<?xml version="1.0" encoding="UTF-8"?>
<svg width="6820px" height="1863px" viewBox="0 0 6820 1863" version="1.1" xmlns="http://www.w3.org/2000/svg" xmlns:xlink="http://www.w3.org/1999/xlink">
    <!-- Generator: Sketch 48.1 (47250) - http://www.bohemiancoding.com/sketch -->
    <title>VOTE</title>
    <desc>Created with Sketch.</desc>
    <defs></defs>
    <g id="Page-1" stroke="none" stroke-width="1" fill="none" fill-rule="evenodd">
        <g id="VOTE">
            <text id="POUR-CHAQUE-SUJET,-I" font-family="NunitoSans-Bold, Nunito Sans" font-size="200" font-weight="bold" fill="#011B3E">
                <tspan x="1499" y="202">POUR CHAQUE SUJET, INDIQUEZ-NOUS</tspan>
            </text>
            <g id="Group-5" transform="translate(349.000000, 513.000000)">
                <g id="Group-4" transform="translate(0.000000, 8.000000)">
                    <g id="003-elections" transform="translate(858.500000, 256.500000) rotate(-360.000000) translate(-858.500000, -256.500000) translate(602.000000, 0.000000)">
                        <path d="M505.538,64.857 L356.205,0.857 C351.832,-1.02 346.69,0.26 343.682,3.993 L301.015,57.326 C298.988,59.843 298.22,63.129 298.924,66.286 C299.585,69.294 301.548,71.769 304.215,73.241 L170.199,123.502 C158.956,127.726 149.335,135.726 143.17,146.009 L98.882,219.822 C89.453,235.545 88.706,254.723 96.919,271.107 L100.034,277.336 L53.335,277.336 C47.447,277.336 42.668,282.115 42.668,288.003 L42.668,490.67 L10.668,490.67 C4.78,490.67 0.001,495.449 0.001,501.337 C0.001,507.225 4.78,512.004 10.668,512.004 L373.335,512.004 C379.223,512.004 384.002,507.225 384.002,501.337 C384.002,495.449 379.223,490.67 373.335,490.67 L341.335,490.67 L341.335,341.337 C341.335,340.526 341.036,339.822 340.887,339.076 C360.898,325.529 383.767,304.623 403.714,272.324 C437.613,217.497 456.663,173.359 464.493,153.497 L465.688,154.094 C470.253,156.377 475.139,157.507 480.024,157.507 C485.848,157.507 491.651,155.907 496.813,152.686 C506.328,146.819 512.002,136.643 512.002,125.465 L512.002,74.649 C512.002,70.382 509.463,66.542 505.538,64.857 Z M320.002,490.67 L64.002,490.67 L64.002,298.67 L117.485,298.67 C117.741,298.67 117.997,298.691 118.274,298.67 L202.839,298.67 C193.218,304.515 181.399,311.875 166.444,321.39 C155.073,328.622 147.287,339.843 144.513,353.027 C141.718,366.211 144.3,379.672 151.83,390.936 C161.366,405.293 177.089,413.101 193.174,413.101 C201.878,413.101 210.71,410.797 218.71,406.04 L292.011,362.072 C296.214,361.048 306.518,358.083 320,351.363 L320.002,490.67 Z M178.391,250.393 C194.711,243.396 216.535,230.724 227.607,217.817 C236.119,222.809 249.516,229.23 266.263,232.516 C254.359,247.257 242.412,265.177 237.356,277.871 C236.481,277.636 235.628,277.338 234.668,277.338 L190.85,277.338 C188.588,266.734 183.362,257.369 178.391,250.393 Z M385.623,261.102 C343.554,329.155 286.508,341.465 285.954,341.571 C284.759,341.827 283.586,342.275 282.541,342.894 L207.789,387.737 C194.776,395.566 178.008,391.79 169.56,379.118 C165.293,372.697 163.821,365.017 165.4,357.486 C167,349.977 171.437,343.555 177.923,339.438 C235.246,302.937 245.592,298.926 245.379,298.691 C251.288,298.691 256.024,294.424 256.024,288.536 C257.112,281.859 276.547,250.627 295.597,231.576 C298.648,228.525 299.565,223.939 297.901,219.949 C296.258,215.96 292.354,213.357 288.045,213.357 C254.85,213.357 230.957,194.562 230.722,194.37 C227.522,191.831 223.234,190.637 219.522,192.429 C215.81,194.2 213.549,197.272 213.549,201.368 C209.773,210.52 168.834,233.667 160.002,234.669 C155.607,234.669 151.703,237.336 150.103,241.432 C148.503,245.528 149.57,250.179 152.791,253.165 C152.919,253.293 164.098,263.917 168.663,277.336 L123.906,277.336 L116.034,261.549 C111.106,251.714 111.533,240.216 117.207,230.786 L161.495,156.973 C165.207,150.786 170.967,146.008 177.708,143.469 L330.071,86.338 L445.335,143.959 C438.274,161.987 419.436,206.382 385.623,261.102 Z M490.668,125.507 C490.668,130.883 487.127,133.635 485.612,134.574 C484.097,135.513 480.023,137.433 475.244,135.043 L325.911,60.377 L355.266,23.705 L490.669,81.732 L490.669,125.507 L490.668,125.507 Z" id="Shape" fill="#011B3E" fill-rule="nonzero"></path>
                        <polygon id="Rectangle-2" fill="#011B3E" points="49 286 244.316784 286 171.475979 336.377162 155.953631 373.312736 189.5 409.721939 281.901922 355.460915 330 336.377162 330 506 49 506"></polygon>
                        <polygon id="Star-2" fill="#FFCC00" points="127.264338 451.967805 98.6714046 467 104.132169 435.161301 81 412.613009 112.967871 407.967805 127.264338 379 141.560805 407.967805 173.528676 412.613009 150.396507 435.161301 155.857271 467"></polygon>
                    </g>
                    <text id="Votre-Vote-Pour-/-Co" font-family="NunitoSans-Regular, Nunito Sans" font-size="200" font-weight="normal" fill="#011B3E">
                        <tspan x="255.7" y="839">Votre Vote</tspan>
                        <tspan x="0.61" y="1112" font-family="NunitoSans-Light, Nunito Sans" font-size="180" font-weight="300">Pour / Contre / Nul</tspan>
                    </text>
                </g>
                <g id="Group-2" transform="translate(4803.000000, 15.000000)">
                    <g id="002-numbered" transform="translate(336.000000, 33.000000)" fill-rule="nonzero">
                        <path d="M488.675,375.363 L488.543,375.231 C484.651,371.324 478.33,371.313 474.423,375.205 C470.516,379.097 470.504,385.418 474.397,389.325 L474.529,389.457 C476.48,391.415 479.041,392.394 481.602,392.394 C484.151,392.394 486.7,391.424 488.649,389.483 C492.556,385.591 492.568,379.27 488.675,375.363 Z" id="Shape" fill-opacity="0.5" fill="#011B3E"></path>
                        <path d="M508.58,408.661 C506.989,403.38 501.417,400.391 496.139,401.982 C490.859,403.573 487.87,409.144 489.461,414.423 C495.849,435.62 490.107,458.498 474.475,474.13 C451.116,497.49 413.108,497.49 389.75,474.13 C378.434,462.815 372.202,447.77 372.202,431.767 C372.202,415.765 378.433,400.719 389.75,389.404 C405.877,373.276 429.36,367.725 451.034,374.92 C456.27,376.658 461.918,373.823 463.656,368.59 C465.392,363.356 462.558,357.706 457.325,355.969 C429.094,346.599 398.56,353.463 377.115,373.851 L85.035,373.851 L85.035,366.694 C85.035,362.656 82.602,359.015 78.872,357.469 C75.141,355.923 70.846,356.778 67.991,359.633 L2.924,424.699 C-0.975,428.598 -0.975,434.92 2.924,438.82 L67.99,503.886 C69.9,505.796 72.454,506.81 75.052,506.81 C76.338,506.81 77.636,506.56 78.871,506.049 C82.601,504.503 85.034,500.863 85.034,496.824 L85.034,489.667 L377.12,489.667 C392.496,504.279 412.297,511.608 432.112,511.608 C452.567,511.608 473.023,503.822 488.595,488.249 C509.439,467.409 517.097,436.912 508.58,408.661 Z M361.782,469.7 L75.051,469.7 C71.52,469.7 68.418,471.532 66.643,474.297 L24.105,431.759 L66.643,389.221 C68.418,391.987 71.52,393.818 75.051,393.818 L361.791,393.818 C355.553,405.34 352.234,418.297 352.234,431.767 C352.234,445.23 355.55,458.182 361.782,469.7 Z" id="Shape" fill-opacity="0.5" fill="#011B3E"></path>
                        <path d="M488.515,199.635 L488.383,199.503 C484.49,195.597 478.169,195.585 474.263,199.477 C470.356,203.369 470.344,209.69 474.237,213.597 L474.369,213.729 C476.32,215.687 478.881,216.666 481.442,216.666 C483.991,216.666 486.54,215.696 488.489,213.755 C492.396,209.863 492.408,203.542 488.515,199.635 Z" id="Shape" fill-opacity="0.75" fill="#011B3E"></path>
                        <path d="M488.515,23.91 L488.383,23.778 C484.491,19.872 478.17,19.86 474.263,23.752 C470.356,27.644 470.344,33.965 474.237,37.872 L474.369,38.004 C476.32,39.962 478.881,40.941 481.442,40.941 C483.991,40.941 486.54,39.971 488.489,38.03 C492.396,34.138 492.408,27.817 488.515,23.91 Z" id="Shape" fill="#000000"></path>
                        <path d="M440.95,38.953 C436.959,37.543 432.512,38.805 429.855,42.1 L409.284,67.61 C405.822,71.902 406.496,78.188 410.789,81.65 C415.083,85.111 421.367,84.438 424.829,80.145 L427.643,76.655 L427.643,112.267 C427.643,117.781 432.113,122.251 437.627,122.251 C443.14,122.251 447.611,117.781 447.611,112.267 L447.611,48.367 C447.611,44.135 444.941,40.362 440.95,38.953 Z" id="Shape" fill="#FFCC00"></path>
                        <path d="M454.195,271.375 L438.182,271.375 C448.361,261.181 458.119,248.236 458.119,236.076 C458.119,218.969 446.625,207.475 429.518,207.475 C413.748,207.475 400.917,220.305 400.917,236.076 C400.917,241.59 405.388,246.06 410.901,246.06 C416.414,246.06 420.885,241.59 420.885,236.076 C420.885,231.316 424.757,227.443 429.518,227.443 C437.125,227.443 438.151,231.807 438.151,236.076 C438.151,244.99 418.968,263.374 405.126,273.215 C401.581,275.73 400.07,280.249 401.389,284.391 C402.709,288.532 406.556,291.344 410.902,291.344 L454.196,291.344 C459.709,291.344 464.18,286.874 464.18,281.36 C464.18,275.846 459.708,271.375 454.195,271.375 Z" id="Shape" fill-opacity="0.75" fill="#FFCC00"></path>
                        <path d="M456.685013,415.784 C456.685013,401.47 445.040013,389.824 430.726013,389.824 L418.404013,389.824 C412.891013,389.824 408.420013,394.294 408.420013,399.808 C408.420013,405.322 412.891013,409.792 418.404013,409.792 L430.726013,409.792 C434.030013,409.792 436.717013,412.479 436.717013,415.783 C436.717013,419.087 434.030013,421.774 430.726013,421.774 L418.404013,421.774 C412.891013,421.774 408.420013,426.244 408.420013,431.758 C408.420013,437.272 412.891013,441.742 418.404013,441.742 L430.726013,441.742 C434.030013,441.742 436.717013,444.429 436.717013,447.733 C436.717013,451.037 434.030013,453.724 430.726013,453.724 L418.404013,453.724 C412.891013,453.724 408.420013,458.194 408.420013,463.708 C408.420013,469.222 412.891013,473.692 418.404013,473.692 L430.726013,473.692 C445.041013,473.692 456.685013,462.046 456.685013,447.733 C456.685013,441.711 454.618013,436.167 451.166013,431.758 C454.618013,427.35 456.685013,421.805 456.685013,415.784 Z" id="Shape" fill-opacity="0.5" fill="#FFCC00"></path>
                        <path d="M508.42,232.933 C506.828,227.652 501.256,224.664 495.979,226.254 C490.699,227.845 487.71,233.416 489.301,238.695 C495.689,259.892 489.947,282.77 474.315,298.403 C463,309.718 447.955,315.951 431.952,315.951 C415.949,315.951 400.904,309.719 389.589,298.403 C378.273,287.088 372.041,272.043 372.041,256.04 C372.041,240.038 378.272,224.992 389.589,213.677 C405.717,197.549 429.2,191.999 450.874,199.193 C456.107,200.93 461.758,198.096 463.496,192.863 C465.232,187.629 462.398,181.979 457.165,180.242 C428.962,170.882 398.465,177.72 377.023,198.057 L170.318,198.057 L170.318,190.9 C170.318,186.862 167.885,183.221 164.155,181.675 C160.423,180.129 156.129,180.985 153.274,183.839 L88.208,248.905 C84.309,252.804 84.309,259.126 88.208,263.026 L153.274,328.091 C155.184,330.001 157.738,331.015 160.336,331.015 C161.622,331.015 162.92,330.765 164.155,330.254 C167.885,328.708 170.318,325.068 170.318,321.029 L170.318,313.872 L376.89,313.872 C391.806,328.091 411.273,335.918 431.954,335.918 C453.291,335.918 473.35,327.609 488.437,312.522 C509.278,291.68 516.936,261.184 508.42,232.933 Z M361.584,293.905 L160.334,293.905 C156.803,293.905 153.701,295.737 151.926,298.502 L109.388,255.964 L151.926,213.426 C153.701,216.192 156.803,218.023 160.334,218.023 L361.67,218.023 C355.409,229.562 352.075,242.543 352.075,256.039 C352.074,269.476 355.376,282.404 361.584,293.905 Z" id="Shape" fill-opacity="0.75" fill="#011B3E"></path>
                        <path d="M508.42,57.207 C506.828,51.926 501.256,48.938 495.979,50.528 C490.699,52.119 487.71,57.69 489.301,62.969 C495.689,84.166 489.947,107.044 474.315,122.677 C463,133.992 447.955,140.225 431.952,140.225 C415.949,140.225 400.904,133.993 389.589,122.677 C378.273,111.362 372.041,96.317 372.041,80.314 C372.041,64.312 378.272,49.266 389.589,37.951 C405.717,21.822 429.2,16.272 450.874,23.467 C456.107,25.205 461.758,22.371 463.496,17.137 C465.232,11.903 462.398,6.253 457.165,4.516 C428.926,-4.857 398.386,2.012 376.94,22.41 L279.766,22.41 L279.766,15.253 C279.766,11.215 277.333,7.574 273.603,6.028 C269.872,4.481 265.577,5.338 262.722,8.192 L197.654,73.258 C195.782,75.13 194.73,77.67 194.73,80.318 C194.73,82.966 195.782,85.506 197.654,87.378 L262.721,152.445 C264.631,154.355 267.185,155.369 269.783,155.369 C271.069,155.369 272.367,155.119 273.602,154.608 C277.332,153.062 279.765,149.422 279.765,145.383 L279.765,138.226 L376.969,138.226 C391.875,152.394 411.307,160.192 431.95,160.192 C453.287,160.192 473.346,151.883 488.433,136.796 C509.278,115.955 516.936,85.458 508.42,57.207 Z M269.784,118.259 C266.253,118.259 263.151,120.091 261.376,122.857 L218.837,80.318 L261.375,37.779 C263.15,40.545 266.253,42.377 269.784,42.377 L361.625,42.377 C355.392,53.896 352.075,66.849 352.075,80.314 C352.075,93.783 355.394,106.738 361.63,118.259 L269.784,118.259 Z" id="Shape" fill="#011B3E"></path>
                    </g>
                    <text id="Vos-Priorités-pour-l" font-family="NunitoSans-Regular, Nunito Sans" font-size="200" font-weight="normal" fill="#011B3E">
                        <tspan x="29" y="871">Vos Priorités</tspan>
                        <tspan x="0.5" y="1144">pour l’Europe</tspan>
                    </text>
                    <g id="001-european-union" transform="translate(290.000000, 193.000000) scale(-1, 1) rotate(-330.000000) translate(-290.000000, -193.000000) translate(140.000000, 57.000000)" fill-rule="nonzero">
                        <path d="M295.138711,205 L20.9187438,205 C18.1665895,205 16,202.77596 16,200.0837 L16,23.9162996 C16,21.1655129 18.225146,19 20.9187438,19 L295.080154,19 C297.832309,19 299.998898,21.2240403 299.998898,23.9162996 L299.998898,200.025173 C300.057455,202.77596 297.773752,205 295.138711,205 Z" id="Shape" fill="#41479B"></path>
                        <g id="Group" transform="translate(86.000000, 39.000000)" fill="#FFE15A">
                            <path d="M73.9928,1.11464257 L75.9784,7.03673092 L82.1688,7.09536546 C82.9864,7.09536546 83.2784,8.15078715 82.636,8.61986345 L77.672,12.3138394 L79.5408,18.2359277 C79.7744,18.9981767 78.8984,19.6431566 78.256,19.1740803 L73.2336,15.538739 L68.2112,19.1740803 C67.5688,19.6431566 66.6928,18.9981767 66.9264,18.2359277 L68.7952,12.3138394 L63.8312,8.61986345 C63.1888,8.15078715 63.5392,7.09536546 64.2984,7.09536546 L70.4888,7.03673092 L72.4744,1.11464257 C72.6496,0.293759036 73.7592,0.293759036 73.9928,1.11464257 Z" id="Shape"></path>
                            <path d="M73.9928,127.647976 L75.9784,133.570064 L82.1688,133.628699 C82.9864,133.628699 83.2784,134.68412 82.636,135.153197 L77.672,138.847173 L79.5408,144.769261 C79.7744,145.53151 78.8984,146.17649 78.256,145.707414 L73.2336,142.072072 L68.2112,145.707414 C67.5688,146.17649 66.6928,145.53151 66.9264,144.769261 L68.7952,138.847173 L63.8312,135.153197 C63.1888,134.68412 63.5392,133.628699 64.2984,133.628699 L70.4888,133.570064 L72.4744,127.647976 C72.6496,126.885727 73.7592,126.885727 73.9928,127.647976 Z" id="Shape"></path>
                            <path d="M137.0064,64.3813092 L138.992,70.3033976 L145.1824,70.3620321 C146,70.3620321 146.292,71.4174538 145.6496,71.8865301 L140.6856,75.580506 L142.5544,81.5025944 C142.788,82.2648434 141.912,82.9098233 141.2696,82.440747 L136.2472,78.8054056 L131.2248,82.440747 C130.5824,82.9098233 129.7064,82.2648434 129.94,81.5025944 L131.8088,75.580506 L126.8448,71.8865301 C126.2024,71.4174538 126.5528,70.3620321 127.312,70.3620321 L133.5024,70.3033976 L135.488,64.3813092 C135.6632,63.5604257 136.7728,63.5604257 137.0064,64.3813092 Z" id="Shape"></path>
                            <path d="M10.9792,64.3813092 L12.9648,70.3033976 L19.1552,70.3620321 C19.9728,70.3620321 20.2648,71.4174538 19.6224,71.8865301 L14.6584,75.580506 L16.5272,81.5025944 C16.7608,82.2648434 15.8848,82.9098233 15.2424,82.440747 L10.22,78.8054056 L5.1976,82.440747 C4.5552,82.9098233 3.6792,82.2648434 3.9128,81.5025944 L5.7816,75.580506 L0.8176,71.8865301 C0.1752,71.4174538 0.5256,70.3620321 1.2848,70.3620321 L7.4752,70.3033976 L9.4608,64.3813092 C9.636,63.5604257 10.6288,63.5604257 10.9792,64.3813092 Z" id="Shape"></path>
                            <path d="M20.3816,31.3700643 L22.3672,37.2921526 L28.5576,37.3507871 C29.3752,37.3507871 29.6672,38.4062088 29.0248,38.8752851 L24.0608,42.569261 L25.9296,48.4913494 C26.1632,49.2535984 25.2872,49.8985783 24.6448,49.429502 L19.6224,45.7941606 L14.6,49.429502 C13.9576,49.8985783 13.0816,49.2535984 13.3152,48.4913494 L15.184,42.569261 L10.22,38.8752851 C9.5776,38.4062088 9.928,37.3507871 10.6872,37.3507871 L16.8776,37.2921526 L18.8632,31.3700643 C19.0968,30.5491807 20.148,30.5491807 20.3816,31.3700643 Z" id="Shape"></path>
                            <path d="M129.5896,94.6367309 L131.5752,100.558819 L137.7656,100.617454 C138.5832,100.617454 138.8752,101.672876 138.2328,102.141952 L133.2688,105.835928 L135.1376,111.758016 C135.3712,112.520265 134.4952,113.165245 133.8528,112.696169 L128.8304,109.060827 L123.808,112.696169 C123.1656,113.165245 122.2896,112.520265 122.5232,111.758016 L124.392,105.835928 L119.428,102.141952 C118.7856,101.672876 119.136,100.617454 119.8952,100.617454 L126.0272,100.500185 L128.0128,94.5780964 C128.2464,93.8158474 129.356,93.8158474 129.5896,94.6367309 Z" id="Shape"></path>
                            <path d="M106.5216,8.15078715 L108.5072,14.0728755 L114.6976,14.13151 C115.5152,14.13151 115.8072,15.1869317 115.1648,15.656008 L110.2008,19.3499839 L112.0696,25.2720723 C112.3032,26.0343213 111.4272,26.6793012 110.7848,26.2102249 L105.7624,22.5748835 L100.74,26.2102249 C100.0976,26.6793012 99.2216,26.0343213 99.4552,25.2720723 L101.324,19.3499839 L96.36,15.656008 C95.7176,15.1869317 96.068,14.13151 96.8272,14.13151 L103.0176,14.0728755 L105.0032,8.15078715 C105.1784,7.38853815 106.288,7.38853815 106.5216,8.15078715 Z" id="Shape"></path>
                            <path d="M43.508,117.797373 L45.4936,123.719462 L51.684,123.778096 C52.5016,123.778096 52.7936,124.833518 52.1512,125.302594 L47.1872,128.99657 L49.056,134.918659 C49.2896,135.680908 48.4136,136.325888 47.7712,135.856811 L42.7488,132.22147 L37.7264,135.856811 C37.084,136.325888 36.208,135.680908 36.4416,134.918659 L38.3104,128.99657 L33.3464,125.302594 C32.704,124.833518 33.0544,123.778096 33.8136,123.778096 L40.004,123.719462 L41.9896,117.797373 C42.1648,117.035124 43.216,117.035124 43.508,117.797373 Z" id="Shape"></path>
                            <path d="M128.0128,31.3700643 L126.0272,37.2921526 L119.8368,37.3507871 C119.0192,37.3507871 118.7272,38.4062088 119.3696,38.8752851 L124.3336,42.569261 L122.4648,48.4913494 C122.2312,49.2535984 123.1072,49.8985783 123.7496,49.429502 L128.772,45.7941606 L133.7944,49.429502 C134.4368,49.8985783 135.3128,49.2535984 135.0792,48.4913494 L133.2104,42.569261 L138.1744,38.8752851 C138.8168,38.4062088 138.4664,37.3507871 137.7072,37.3507871 L131.5168,37.2921526 L129.5312,31.3700643 C129.356,30.5491807 128.2464,30.5491807 128.0128,31.3700643 Z" id="Shape"></path>
                            <path d="M18.8048,94.6367309 L16.8192,100.558819 L10.6288,100.617454 C9.8112,100.617454 9.5192,101.672876 10.1616,102.141952 L15.1256,105.835928 L13.2568,111.758016 C13.0232,112.520265 13.8992,113.165245 14.5416,112.696169 L19.564,109.060827 L24.5864,112.696169 C25.2288,113.165245 26.1048,112.520265 25.8712,111.758016 L24.0024,105.835928 L28.9664,102.141952 C29.6088,101.672876 29.2584,100.617454 28.4992,100.617454 L22.3088,100.558819 L20.3232,94.6367309 C20.148,93.8158474 19.0968,93.8158474 18.8048,94.6367309 Z" id="Shape"></path>
                            <path d="M41.9312,8.15078715 L39.9456,14.0728755 L33.7552,14.13151 C32.9376,14.13151 32.6456,15.1869317 33.288,15.656008 L38.252,19.3499839 L36.3832,25.2720723 C36.1496,26.0343213 37.0256,26.6793012 37.668,26.2102249 L42.6904,22.5748835 L47.7128,26.2102249 C48.3552,26.6793012 49.2312,26.0343213 48.9976,25.2720723 L47.1288,19.3499839 L52.0928,15.656008 C52.7352,15.1869317 52.3848,14.13151 51.6256,14.13151 L45.4352,14.0728755 L43.4496,8.15078715 C43.216,7.38853815 42.1648,7.38853815 41.9312,8.15078715 Z" id="Shape"></path>
                            <path d="M104.9448,117.797373 L102.9592,123.719462 L96.7688,123.778096 C95.9512,123.778096 95.6592,124.833518 96.3016,125.302594 L101.2656,128.99657 L99.3968,134.918659 C99.1632,135.680908 100.0392,136.325888 100.6816,135.856811 L105.704,132.22147 L110.7264,135.856811 C111.3688,136.325888 112.2448,135.680908 112.0112,134.918659 L110.1424,128.99657 L115.1064,125.302594 C115.7488,124.833518 115.3984,123.778096 114.6392,123.778096 L108.4488,123.719462 L106.4632,117.797373 C106.288,117.035124 105.1784,117.035124 104.9448,117.797373 Z" id="Shape"></path>
                        </g>
                        <path d="M10.9712794,272 C4.93994778,272 0,266.960793 0,260.808272 L0,11.1331323 C0,4.98061181 4.88250653,0 10.9138381,0 L11.0287206,0 C17.1174935,0 22,5.03920724 22,11.1917277 L22,260.808272 C21.9425587,266.960793 17.0600522,272 10.9712794,272 Z" id="Shape" fill="#2E3033"></path>
                    </g>
                </g>
                <g id="Group-3" transform="translate(2427.000000, 0.000000)">
                    <g id="002-numbered-copy" transform="translate(377.000000, 16.000000)" fill-rule="nonzero">
                        <path d="M488.675,375.363 L488.543,375.231 C484.651,371.324 478.33,371.313 474.423,375.205 C470.516,379.097 470.504,385.418 474.397,389.325 L474.529,389.457 C476.48,391.415 479.041,392.394 481.602,392.394 C484.151,392.394 486.7,391.424 488.649,389.483 C492.556,385.591 492.568,379.27 488.675,375.363 Z" id="Shape" fill-opacity="0.5" fill="#011B3E"></path>
                        <path d="M508.58,408.661 C506.989,403.38 501.417,400.391 496.139,401.982 C490.859,403.573 487.87,409.144 489.461,414.423 C495.849,435.62 490.107,458.498 474.475,474.13 C451.116,497.49 413.108,497.49 389.75,474.13 C378.434,462.815 372.202,447.77 372.202,431.767 C372.202,415.765 378.433,400.719 389.75,389.404 C405.877,373.276 429.36,367.725 451.034,374.92 C456.27,376.658 461.918,373.823 463.656,368.59 C465.392,363.356 462.558,357.706 457.325,355.969 C429.094,346.599 398.56,353.463 377.115,373.851 L85.035,373.851 L85.035,366.694 C85.035,362.656 82.602,359.015 78.872,357.469 C75.141,355.923 70.846,356.778 67.991,359.633 L2.924,424.699 C-0.975,428.598 -0.975,434.92 2.924,438.82 L67.99,503.886 C69.9,505.796 72.454,506.81 75.052,506.81 C76.338,506.81 77.636,506.56 78.871,506.049 C82.601,504.503 85.034,500.863 85.034,496.824 L85.034,489.667 L377.12,489.667 C392.496,504.279 412.297,511.608 432.112,511.608 C452.567,511.608 473.023,503.822 488.595,488.249 C509.439,467.409 517.097,436.912 508.58,408.661 Z M361.782,469.7 L75.051,469.7 C71.52,469.7 68.418,471.532 66.643,474.297 L24.105,431.759 L66.643,389.221 C68.418,391.987 71.52,393.818 75.051,393.818 L361.791,393.818 C355.553,405.34 352.234,418.297 352.234,431.767 C352.234,445.23 355.55,458.182 361.782,469.7 Z" id="Shape" fill-opacity="0.5" fill="#011B3E"></path>
                        <path d="M488.515,199.635 L488.383,199.503 C484.49,195.597 478.169,195.585 474.263,199.477 C470.356,203.369 470.344,209.69 474.237,213.597 L474.369,213.729 C476.32,215.687 478.881,216.666 481.442,216.666 C483.991,216.666 486.54,215.696 488.489,213.755 C492.396,209.863 492.408,203.542 488.515,199.635 Z" id="Shape" fill-opacity="0.75" fill="#011B3E"></path>
                        <path d="M488.515,23.91 L488.383,23.778 C484.491,19.872 478.17,19.86 474.263,23.752 C470.356,27.644 470.344,33.965 474.237,37.872 L474.369,38.004 C476.32,39.962 478.881,40.941 481.442,40.941 C483.991,40.941 486.54,39.971 488.489,38.03 C492.396,34.138 492.408,27.817 488.515,23.91 Z" id="Shape" fill="#000000"></path>
                        <path d="M440.95,38.953 C436.959,37.543 432.512,38.805 429.855,42.1 L409.284,67.61 C405.822,71.902 406.496,78.188 410.789,81.65 C415.083,85.111 421.367,84.438 424.829,80.145 L427.643,76.655 L427.643,112.267 C427.643,117.781 432.113,122.251 437.627,122.251 C443.14,122.251 447.611,117.781 447.611,112.267 L447.611,48.367 C447.611,44.135 444.941,40.362 440.95,38.953 Z" id="Shape" fill="#FFCC00"></path>
                        <path d="M454.195,271.375 L438.182,271.375 C448.361,261.181 458.119,248.236 458.119,236.076 C458.119,218.969 446.625,207.475 429.518,207.475 C413.748,207.475 400.917,220.305 400.917,236.076 C400.917,241.59 405.388,246.06 410.901,246.06 C416.414,246.06 420.885,241.59 420.885,236.076 C420.885,231.316 424.757,227.443 429.518,227.443 C437.125,227.443 438.151,231.807 438.151,236.076 C438.151,244.99 418.968,263.374 405.126,273.215 C401.581,275.73 400.07,280.249 401.389,284.391 C402.709,288.532 406.556,291.344 410.902,291.344 L454.196,291.344 C459.709,291.344 464.18,286.874 464.18,281.36 C464.18,275.846 459.708,271.375 454.195,271.375 Z" id="Shape" fill-opacity="0.75" fill="#FFCC00"></path>
                        <path d="M456.685013,415.784 C456.685013,401.47 445.040013,389.824 430.726013,389.824 L418.404013,389.824 C412.891013,389.824 408.420013,394.294 408.420013,399.808 C408.420013,405.322 412.891013,409.792 418.404013,409.792 L430.726013,409.792 C434.030013,409.792 436.717013,412.479 436.717013,415.783 C436.717013,419.087 434.030013,421.774 430.726013,421.774 L418.404013,421.774 C412.891013,421.774 408.420013,426.244 408.420013,431.758 C408.420013,437.272 412.891013,441.742 418.404013,441.742 L430.726013,441.742 C434.030013,441.742 436.717013,444.429 436.717013,447.733 C436.717013,451.037 434.030013,453.724 430.726013,453.724 L418.404013,453.724 C412.891013,453.724 408.420013,458.194 408.420013,463.708 C408.420013,469.222 412.891013,473.692 418.404013,473.692 L430.726013,473.692 C445.041013,473.692 456.685013,462.046 456.685013,447.733 C456.685013,441.711 454.618013,436.167 451.166013,431.758 C454.618013,427.35 456.685013,421.805 456.685013,415.784 Z" id="Shape" fill-opacity="0.5" fill="#FFCC00"></path>
                        <path d="M508.42,232.933 C506.828,227.652 501.256,224.664 495.979,226.254 C490.699,227.845 487.71,233.416 489.301,238.695 C495.689,259.892 489.947,282.77 474.315,298.403 C463,309.718 447.955,315.951 431.952,315.951 C415.949,315.951 400.904,309.719 389.589,298.403 C378.273,287.088 372.041,272.043 372.041,256.04 C372.041,240.038 378.272,224.992 389.589,213.677 C405.717,197.549 429.2,191.999 450.874,199.193 C456.107,200.93 461.758,198.096 463.496,192.863 C465.232,187.629 462.398,181.979 457.165,180.242 C428.962,170.882 398.465,177.72 377.023,198.057 L170.318,198.057 L170.318,190.9 C170.318,186.862 167.885,183.221 164.155,181.675 C160.423,180.129 156.129,180.985 153.274,183.839 L88.208,248.905 C84.309,252.804 84.309,259.126 88.208,263.026 L153.274,328.091 C155.184,330.001 157.738,331.015 160.336,331.015 C161.622,331.015 162.92,330.765 164.155,330.254 C167.885,328.708 170.318,325.068 170.318,321.029 L170.318,313.872 L376.89,313.872 C391.806,328.091 411.273,335.918 431.954,335.918 C453.291,335.918 473.35,327.609 488.437,312.522 C509.278,291.68 516.936,261.184 508.42,232.933 Z M361.584,293.905 L160.334,293.905 C156.803,293.905 153.701,295.737 151.926,298.502 L109.388,255.964 L151.926,213.426 C153.701,216.192 156.803,218.023 160.334,218.023 L361.67,218.023 C355.409,229.562 352.075,242.543 352.075,256.039 C352.074,269.476 355.376,282.404 361.584,293.905 Z" id="Shape" fill-opacity="0.75" fill="#011B3E"></path>
                        <path d="M508.42,57.207 C506.828,51.926 501.256,48.938 495.979,50.528 C490.699,52.119 487.71,57.69 489.301,62.969 C495.689,84.166 489.947,107.044 474.315,122.677 C463,133.992 447.955,140.225 431.952,140.225 C415.949,140.225 400.904,133.993 389.589,122.677 C378.273,111.362 372.041,96.317 372.041,80.314 C372.041,64.312 378.272,49.266 389.589,37.951 C405.717,21.822 429.2,16.272 450.874,23.467 C456.107,25.205 461.758,22.371 463.496,17.137 C465.232,11.903 462.398,6.253 457.165,4.516 C428.926,-4.857 398.386,2.012 376.94,22.41 L279.766,22.41 L279.766,15.253 C279.766,11.215 277.333,7.574 273.603,6.028 C269.872,4.481 265.577,5.338 262.722,8.192 L197.654,73.258 C195.782,75.13 194.73,77.67 194.73,80.318 C194.73,82.966 195.782,85.506 197.654,87.378 L262.721,152.445 C264.631,154.355 267.185,155.369 269.783,155.369 C271.069,155.369 272.367,155.119 273.602,154.608 C277.332,153.062 279.765,149.422 279.765,145.383 L279.765,138.226 L376.969,138.226 C391.875,152.394 411.307,160.192 431.95,160.192 C453.287,160.192 473.346,151.883 488.433,136.796 C509.278,115.955 516.936,85.458 508.42,57.207 Z M269.784,118.259 C266.253,118.259 263.151,120.091 261.376,122.857 L218.837,80.318 L261.375,37.779 C263.15,40.545 266.253,42.377 269.784,42.377 L361.625,42.377 C355.392,53.896 352.075,66.849 352.075,80.314 C352.075,93.783 355.394,106.738 361.63,118.259 L269.784,118.259 Z" id="Shape" fill="#011B3E"></path>
                    </g>
                    <text id="Vos-Priorités-pour-l" font-family="NunitoSans-Regular, Nunito Sans" font-size="200" font-weight="normal" fill="#011B3E">
                        <tspan x="69.5" y="854">Vos Priorités</tspan>
                        <tspan x="0.1" y="1127">pour la France</tspan>
                    </text>
                    <g id="002-france" transform="translate(354.500000, 186.000000) scale(-1, 1) rotate(-330.000000) translate(-354.500000, -186.000000) translate(213.000000, 54.000000)" fill-rule="nonzero">
                        <path d="M100,199 L13.7430303,199 C11.0957576,199 9,196.847364 9,194.253161 L9,24.7468393 C9,22.0974406 11.1509091,20 13.7430303,20 L100,20 L100,199 Z" id="Shape" fill="#41479B"></path>
                        <rect id="Rectangle-path" fill="#F5F5F5" x="101" y="20" width="91" height="179"></rect>
                        <path d="M278.25697,199 L192,199 L192,20 L278.25697,20 C280.904242,20 283,22.1519729 283,24.7453761 L283,194.199445 C283,196.848027 280.849091,199 278.25697,199 Z" id="Shape" fill="#FF4B55"></path>
                        <path d="M11,264 C4.91370558,264 0,259.136697 0,253.112832 L0,10.7766381 C0,4.80803852 4.85786802,0 10.8883249,0 L11,0 C17.0862944,0 22,4.86330333 22,10.8871677 L22,253.168097 C22,259.136697 17.0304569,264 11,264 Z" id="Shape" fill="#2E3033"></path>
                    </g>
                </g>
            </g>
        </g>
    </g>
</svg>