<svg xmlns="http://www.w3.org/2000/svg" xmlns:xlink="http://www.w3.org/1999/xlink" viewBox="0 0 360 500"><path d="M 104.000,150.000 C 110.404,146.913 110.403,146.912 116.808,143.826" stroke-width="19.730" stroke="rgb(33,33,33)" fill="none" stroke-linecap="round"></path><path d="M 116.808,143.826 C 119.563,142.499 119.566,142.506 122.319,141.174" stroke-width="18.451" stroke="rgb(33,33,33)" fill="none" stroke-linecap="round"></path><path d="M 122.319,141.174 C 124.582,140.079 124.597,140.108 126.840,138.973" stroke-width="17.947" stroke="rgb(33,33,33)" fill="none" stroke-linecap="round"></path><path d="M 126.840,138.973 C 128.674,138.045 128.660,138.017 130.474,137.049" stroke-width="17.547" stroke="rgb(33,33,33)" fill="none" stroke-linecap="round"></path><path d="M 130.474,137.049 C 131.988,136.240 132.030,136.306 133.496,135.419" stroke-width="17.322" stroke="rgb(33,33,33)" fill="none" stroke-linecap="round"></path><path d="M 133.496,135.419 C 134.471,134.829 134.345,134.586 135.356,134.096" stroke-width="17.426" stroke="rgb(33,33,33)" fill="none" stroke-linecap="round"></path><path d="M 182.000,127.000 C 179.438,121.056 179.349,121.092 176.875,115.112" stroke-width="19.833" stroke="rgb(33,33,33)" fill="none" stroke-linecap="round"></path><path d="M 176.875,115.112 C 175.793,112.498 175.922,112.446 174.888,109.813" stroke-width="18.224" stroke="rgb(33,33,33)" fill="none" stroke-linecap="round"></path><path d="M 174.888,109.813 C 173.925,107.362 173.755,107.423 172.881,104.944" stroke-width="17.308" stroke="rgb(33,33,33)" fill="none" stroke-linecap="round"></path><path d="M 172.881,104.944 C 172.161,102.902 172.278,102.861 171.701,100.770" stroke-width="17.060" stroke="rgb(33,33,33)" fill="none" stroke-linecap="round"></path><path d="M 171.701,100.770 C 171.261,99.175 171.310,99.160 170.848,97.572" stroke-width="17.003" stroke="rgb(33,33,33)" fill="none" stroke-linecap="round"></path><path d="M 170.848,97.572 C 170.547,96.537 170.325,96.567 170.174,95.523" stroke-width="17.165" stroke="rgb(33,33,33)" fill="none" stroke-linecap="round"></path><path d="M 170.174,95.523 C 170.068,94.791 170.037,94.688 170.333,94.019" stroke-width="17.433" stroke="rgb(33,33,33)" fill="none" stroke-linecap="round"></path><path d="M 170.333,94.019 C 170.771,93.028 170.848,92.974 171.643,92.202" stroke-width="17.498" stroke="rgb(33,33,33)" fill="none" stroke-linecap="round"></path><path d="M 171.643,92.202 C 172.778,91.101 172.871,91.170 174.192,90.273" stroke-width="17.371" stroke="rgb(33,33,33)" fill="none" stroke-linecap="round"></path><path d="M 174.192,90.273 C 176.085,88.989 176.126,89.048 178.071,87.841" stroke-width="17.067" stroke="rgb(33,33,33)" fill="none" stroke-linecap="round"></path><path d="M 178.071,87.841 C 180.240,86.494 180.182,86.385 182.420,85.165" stroke-width="16.792" stroke="rgb(33,33,33)" fill="none" stroke-linecap="round"></path><path d="M 182.420,85.165 C 184.352,84.112 184.509,84.387 186.412,83.294" stroke-width="16.645" stroke="rgb(33,33,33)" fill="none" stroke-linecap="round"></path><path d="M 186.412,83.294 C 187.883,82.450 187.844,82.359 189.168,81.291" stroke-width="16.655" stroke="rgb(33,33,33)" fill="none" stroke-linecap="round"></path><path d="M 189.168,81.291 C 190.325,80.358 190.290,80.312 191.374,79.293" stroke-width="16.794" stroke="rgb(33,33,33)" fill="none" stroke-linecap="round"></path><path d="M 191.374,79.293 C 191.997,78.708 192.091,78.765 192.582,78.084" stroke-width="17.054" stroke="rgb(33,33,33)" fill="none" stroke-linecap="round"></path><path d="M 192.582,78.084 C 192.951,77.572 192.852,77.501 193.094,76.906" stroke-width="17.405" stroke="rgb(33,33,33)" fill="none" stroke-linecap="round"></path><path d="M 193.094,76.906 C 193.228,76.578 193.234,76.575 193.333,76.238" stroke-width="17.777" stroke="rgb(33,33,33)" fill="none" stroke-linecap="round"></path><path d="M 193.333,76.238 C 193.353,76.170 193.333,76.035 193.333,76.095" stroke-width="18.195" stroke="rgb(33,33,33)" fill="none" stroke-linecap="round"></path><path d="M 193.333,76.095 C 193.333,76.773 193.333,76.904 193.333,77.713" stroke-width="18.186" stroke="rgb(33,33,33)" fill="none" stroke-linecap="round"></path><path d="M 193.333,77.713 C 193.333,80.848 193.542,80.858 193.333,83.982" stroke-width="17.389" stroke="rgb(33,33,33)" fill="none" stroke-linecap="round"></path><path d="M 193.333,83.982 C 192.916,90.206 192.586,90.185 192.080,96.408" stroke-width="15.838" stroke="rgb(33,33,33)" fill="none" stroke-linecap="round"></path><path d="M 192.080,96.408 C 191.371,105.120 191.328,105.122 190.902,113.853" stroke-width="14.290" stroke="rgb(33,33,33)" fill="none" stroke-linecap="round"></path><path d="M 190.902,113.853 C 190.406,124.019 190.449,124.024 190.236,134.201" stroke-width="12.982" stroke="rgb(33,33,33)" fill="none" stroke-linecap="round"></path><path d="M 190.236,134.201 C 189.998,145.598 190.188,145.602 190.000,157.000" stroke-width="11.559" stroke="rgb(33,33,33)" fill="none" stroke-linecap="round"></path><path d="M 190.000,157.000 C 189.853,165.914 189.991,165.923 189.567,174.825" stroke-width="11.252" stroke="rgb(33,33,33)" fill="none" stroke-linecap="round"></path><path d="M 189.567,174.825 C 189.197,182.600 189.159,182.607 188.411,190.354" stroke-width="10.962" stroke="rgb(33,33,33)" fill="none" stroke-linecap="round"></path><path d="M 188.411,190.354 C 187.918,195.463 188.188,195.549 187.084,200.538" stroke-width="11.258" stroke="rgb(33,33,33)" fill="none" stroke-linecap="round"></path><path d="M 187.084,200.538 C 186.229,204.402 186.075,204.426 184.494,208.059" stroke-width="11.688" stroke="rgb(33,33,33)" fill="none" stroke-linecap="round"></path><path d="M 184.494,208.059 C 183.211,211.007 183.239,211.111 181.355,213.699" stroke-width="12.150" stroke="rgb(33,33,33)" fill="none" stroke-linecap="round"></path><path d="M 181.355,213.699 C 179.648,216.043 179.489,215.985 177.312,217.923" stroke-width="12.669" stroke="rgb(33,33,33)" fill="none" stroke-linecap="round"></path><path d="M 177.312,217.923 C 175.030,219.955 175.041,220.051 172.438,221.640" stroke-width="12.977" stroke="rgb(33,33,33)" fill="none" stroke-linecap="round"></path><path d="M 172.438,221.640 C 169.645,223.345 169.548,223.239 166.520,224.510" stroke-width="13.273" stroke="rgb(33,33,33)" fill="none" stroke-linecap="round"></path><path d="M 166.520,224.510 C 163.726,225.683 163.722,225.780 160.794,226.527" stroke-width="13.609" stroke="rgb(33,33,33)" fill="none" stroke-linecap="round"></path><path d="M 160.794,226.527 C 158.188,227.192 158.136,227.100 155.452,227.333" stroke-width="13.927" stroke="rgb(33,33,33)" fill="none" stroke-linecap="round"></path><path d="M 155.452,227.333 C 153.499,227.503 153.486,227.333 151.520,227.333" stroke-width="14.338" stroke="rgb(33,33,33)" fill="none" stroke-linecap="round"></path><path d="M 151.520,227.333 C 150.021,227.333 150.021,227.333 148.521,227.333" stroke-width="14.783" stroke="rgb(33,33,33)" fill="none" stroke-linecap="round"></path><path d="M 148.521,227.333 C 147.571,227.333 147.571,227.333 146.621,227.333" stroke-width="15.361" stroke="rgb(33,33,33)" fill="none" stroke-linecap="round"></path><path d="M 146.621,227.333 C 146.022,227.333 145.970,227.477 145.424,227.333" stroke-width="15.962" stroke="rgb(33,33,33)" fill="none" stroke-linecap="round"></path><path d="M 145.424,227.333 C 145.096,227.246 145.064,227.158 144.872,226.872" stroke-width="16.545" stroke="rgb(33,33,33)" fill="none" stroke-linecap="round"></path><path d="M 122.667,186.333 C 128.605,182.637 128.553,182.552 134.542,178.941" stroke-width="19.270" stroke="rgb(33,33,33)" fill="none" stroke-linecap="round"></path><path d="M 134.542,178.941 C 140.229,175.512 140.274,175.585 146.019,172.252" stroke-width="16.628" stroke="rgb(33,33,33)" fill="none" stroke-linecap="round"></path><path d="M 146.019,172.252 C 153.492,167.917 153.589,168.078 160.979,163.606" stroke-width="14.700" stroke="rgb(33,33,33)" fill="none" stroke-linecap="round"></path><path d="M 160.979,163.606 C 169.460,158.475 169.467,158.473 177.762,153.046" stroke-width="13.302" stroke="rgb(33,33,33)" fill="none" stroke-linecap="round"></path><path d="M 177.762,153.046 C 185.911,147.714 185.790,147.529 193.868,142.088" stroke-width="12.295" stroke="rgb(33,33,33)" fill="none" stroke-linecap="round"></path><path d="M 193.868,142.088 C 201.829,136.726 201.858,136.770 209.840,131.440" stroke-width="11.418" stroke="rgb(33,33,33)" fill="none" stroke-linecap="round"></path><path d="M 209.840,131.440 C 216.430,127.040 216.359,126.930 223.013,122.628" stroke-width="11.217" stroke="rgb(33,33,33)" fill="none" stroke-linecap="round"></path><path d="M 223.013,122.628 C 229.463,118.458 229.564,118.614 236.048,114.496" stroke-width="11.096" stroke="rgb(33,33,33)" fill="none" stroke-linecap="round"></path><path d="M 236.048,114.496 C 240.901,111.414 240.798,111.249 245.687,108.227" stroke-width="11.280" stroke="rgb(33,33,33)" fill="none" stroke-linecap="round"></path><path d="M 245.687,108.227 C 249.756,105.712 249.854,105.872 253.964,103.422" stroke-width="11.579" stroke="rgb(33,33,33)" fill="none" stroke-linecap="round"></path><path d="M 253.964,103.422 C 256.798,101.733 256.876,101.833 259.575,99.950" stroke-width="12.077" stroke="rgb(33,33,33)" fill="none" stroke-linecap="round"></path><path d="M 259.575,99.950 C 261.203,98.813 261.217,98.777 262.618,97.382" stroke-width="12.750" stroke="rgb(33,33,33)" fill="none" stroke-linecap="round"></path><path d="M 262.618,97.382 C 263.325,96.677 263.421,96.589 263.792,95.750" stroke-width="13.539" stroke="rgb(33,33,33)" fill="none" stroke-linecap="round"></path><path d="M 98.667,228.333 C 102.782,226.854 102.874,227.075 106.896,225.375" stroke-width="19.789" stroke="rgb(33,33,33)" fill="none" stroke-linecap="round"></path><path d="M 106.896,225.375 C 111.991,223.221 111.933,223.068 116.902,220.624" stroke-width="17.625" stroke="rgb(33,33,33)" fill="none" stroke-linecap="round"></path><path d="M 116.902,220.624 C 122.875,217.686 122.892,217.712 128.781,214.610" stroke-width="15.872" stroke="rgb(33,33,33)" fill="none" stroke-linecap="round"></path><path d="M 128.781,214.610 C 135.153,211.253 135.144,211.232 141.424,207.706" stroke-width="14.457" stroke="rgb(33,33,33)" fill="none" stroke-linecap="round"></path><path d="M 141.424,207.706 C 147.902,204.069 147.823,203.928 154.297,200.284" stroke-width="13.542" stroke="rgb(33,33,33)" fill="none" stroke-linecap="round"></path><path d="M 154.297,200.284 C 161.652,196.144 161.727,196.276 169.083,192.137" stroke-width="12.697" stroke="rgb(33,33,33)" fill="none" stroke-linecap="round"></path><path d="M 169.083,192.137 C 176.868,187.757 176.830,187.690 184.579,183.245" stroke-width="12.010" stroke="rgb(33,33,33)" fill="none" stroke-linecap="round"></path><path d="M 184.579,183.245 C 192.043,178.963 192.200,179.215 199.508,174.684" stroke-width="11.637" stroke="rgb(33,33,33)" fill="none" stroke-linecap="round"></path><path d="M 199.508,174.684 C 206.025,170.643 205.798,170.285 212.229,166.101" stroke-width="11.424" stroke="rgb(33,33,33)" fill="none" stroke-linecap="round"></path><path d="M 212.229,166.101 C 219.356,161.464 219.469,161.640 226.623,157.043" stroke-width="10.976" stroke="rgb(33,33,33)" fill="none" stroke-linecap="round"></path><path d="M 226.623,157.043 C 232.646,153.173 232.636,153.154 238.583,149.167" stroke-width="10.979" stroke="rgb(33,33,33)" fill="none" stroke-linecap="round"></path><path d="M 238.583,149.167 C 243.326,145.988 243.309,145.963 248.003,142.712" stroke-width="11.235" stroke="rgb(33,33,33)" fill="none" stroke-linecap="round"></path><path d="M 248.003,142.712 C 252.668,139.481 252.667,139.479 257.301,136.202" stroke-width="11.352" stroke="rgb(33,33,33)" fill="none" stroke-linecap="round"></path><path d="M 257.301,136.202 C 260.604,133.866 260.646,133.921 263.876,131.487" stroke-width="11.718" stroke="rgb(33,33,33)" fill="none" stroke-linecap="round"></path><path d="M 263.876,131.487 C 266.902,129.207 266.833,129.115 269.814,126.775" stroke-width="12.113" stroke="rgb(33,33,33)" fill="none" stroke-linecap="round"></path><path d="M 269.814,126.775 C 272.006,125.055 271.959,124.987 274.222,123.366" stroke-width="12.633" stroke="rgb(33,33,33)" fill="none" stroke-linecap="round"></path><path d="M 274.222,123.366 C 275.955,122.125 276.031,122.233 277.805,121.050" stroke-width="13.238" stroke="rgb(33,33,33)" fill="none" stroke-linecap="round"></path><path d="M 277.805,121.050 C 279.347,120.021 279.397,120.081 280.855,118.942" stroke-width="13.800" stroke="rgb(33,33,33)" fill="none" stroke-linecap="round"></path><path d="M 280.855,118.942 C 282.015,118.036 281.920,117.919 283.040,116.960" stroke-width="14.300" stroke="rgb(33,33,33)" fill="none" stroke-linecap="round"></path><path d="M 283.040,116.960 C 283.785,116.323 284.022,116.470 284.584,115.750" stroke-width="14.948" stroke="rgb(33,33,33)" fill="none" stroke-linecap="round"></path><path d="M 135.667,153.667 C 131.334,150.333 131.579,149.904 127.000,147.000" stroke-width="19.885" stroke="rgb(33,33,33)" fill="none" stroke-linecap="round"></path><path d="M 127.000,147.000 C 124.745,145.570 124.601,145.388 122.000,145.000" stroke-width="18.784" stroke="rgb(33,33,33)" fill="none" stroke-linecap="round"></path><path d="M 122.000,145.000 C 119.017,144.555 118.807,144.691 115.833,145.333" stroke-width="17.840" stroke="rgb(33,33,33)" fill="none" stroke-linecap="round"></path><path d="M 115.833,145.333 C 113.301,145.880 113.248,146.073 110.989,147.379" stroke-width="17.187" stroke="rgb(33,33,33)" fill="none" stroke-linecap="round"></path><path d="M 110.989,147.379 C 108.705,148.699 108.628,148.729 106.748,150.585" stroke-width="16.971" stroke="rgb(33,33,33)" fill="none" stroke-linecap="round"></path><path d="M 106.748,150.585 C 104.188,153.112 103.932,153.062 102.109,156.145" stroke-width="16.264" stroke="rgb(33,33,33)" fill="none" stroke-linecap="round"></path><path d="M 102.109,156.145 C 99.904,159.873 99.912,160.036 98.691,164.207" stroke-width="15.217" stroke="rgb(33,33,33)" fill="none" stroke-linecap="round"></path><path d="M 98.691,164.207 C 97.565,168.051 97.567,168.178 97.415,172.176" stroke-width="14.894" stroke="rgb(33,33,33)" fill="none" stroke-linecap="round"></path><path d="M 97.415,172.176 C 97.286,175.552 97.619,175.589 98.129,178.954" stroke-width="14.750" stroke="rgb(33,33,33)" fill="none" stroke-linecap="round"></path><path d="M 98.129,178.954 C 98.545,181.700 98.391,181.791 99.266,184.398" stroke-width="14.805" stroke="rgb(33,33,33)" fill="none" stroke-linecap="round"></path><path d="M 99.266,184.398 C 99.807,186.010 99.995,185.976 100.960,187.392" stroke-width="15.333" stroke="rgb(33,33,33)" fill="none" stroke-linecap="round"></path><path d="M 100.960,187.392 C 101.892,188.758 101.821,188.898 103.060,189.962" stroke-width="15.486" stroke="rgb(33,33,33)" fill="none" stroke-linecap="round"></path><path d="M 103.060,189.962 C 104.265,190.997 104.355,191.124 105.848,191.591" stroke-width="15.628" stroke="rgb(33,33,33)" fill="none" stroke-linecap="round"></path><path d="M 105.848,191.591 C 107.083,191.977 107.250,191.944 108.516,191.667" stroke-width="16.029" stroke="rgb(33,33,33)" fill="none" stroke-linecap="round"></path><path d="M 108.516,191.667 C 109.807,191.384 109.843,191.223 110.962,190.470" stroke-width="16.269" stroke="rgb(33,33,33)" fill="none" stroke-linecap="round"></path><path d="M 110.962,190.470 C 112.114,189.694 112.242,189.722 113.059,188.608" stroke-width="16.386" stroke="rgb(33,33,33)" fill="none" stroke-linecap="round"></path><path d="M 113.059,188.608 C 114.286,186.936 114.381,186.873 115.050,184.899" stroke-width="16.391" stroke="rgb(33,33,33)" fill="none" stroke-linecap="round"></path><path d="M 115.050,184.899 C 115.982,182.148 115.781,182.050 116.261,179.158" stroke-width="15.988" stroke="rgb(33,33,33)" fill="none" stroke-linecap="round"></path><path d="M 116.261,179.158 C 116.819,175.798 116.936,175.790 117.127,172.396" stroke-width="15.527" stroke="rgb(33,33,33)" fill="none" stroke-linecap="round"></path><path d="M 117.127,172.396 C 117.306,169.211 117.036,169.198 117.000,166.000" stroke-width="15.357" stroke="rgb(33,33,33)" fill="none" stroke-linecap="round"></path><path d="M 117.000,166.000 C 116.972,163.500 117.000,163.500 117.000,161.000" stroke-width="15.415" stroke="rgb(33,33,33)" fill="none" stroke-linecap="round"></path><path d="M 117.000,161.000 C 117.000,159.500 117.000,159.500 117.000,158.000" stroke-width="15.789" stroke="rgb(33,33,33)" fill="none" stroke-linecap="round"></path><path d="M 117.000,158.000 C 117.000,156.500 117.000,156.500 117.000,155.000" stroke-width="15.959" stroke="rgb(33,33,33)" fill="none" stroke-linecap="round"></path><path d="M 117.000,155.000 C 117.000,154.500 117.000,154.500 117.000,154.000" stroke-width="16.514" stroke="rgb(33,33,33)" fill="none" stroke-linecap="round"></path><path d="M 117.000,154.000 C 117.000,154.500 116.832,154.536 117.000,155.000" stroke-width="17.959" stroke="rgb(33,33,33)" fill="none" stroke-linecap="round"></path><path d="M 117.000,155.000 C 117.703,156.944 117.820,156.933 118.741,158.816" stroke-width="17.587" stroke="rgb(33,33,33)" fill="none" stroke-linecap="round"></path><path d="M 118.741,158.816 C 120.143,161.682 119.980,161.789 121.647,164.498" stroke-width="16.862" stroke="rgb(33,33,33)" fill="none" stroke-linecap="round"></path><path d="M 121.647,164.498 C 123.319,167.216 123.493,167.116 125.420,169.671" stroke-width="16.383" stroke="rgb(33,33,33)" fill="none" stroke-linecap="round"></path><path d="M 125.420,169.671 C 126.985,171.747 126.942,171.789 128.633,173.760" stroke-width="16.200" stroke="rgb(33,33,33)" fill="none" stroke-linecap="round"></path><path d="M 128.633,173.760 C 130.214,175.602 130.214,175.618 131.964,177.298" stroke-width="16.148" stroke="rgb(33,33,33)" fill="none" stroke-linecap="round"></path><path d="M 131.964,177.298 C 133.379,178.656 133.393,178.661 134.962,179.837" stroke-width="16.271" stroke="rgb(33,33,33)" fill="none" stroke-linecap="round"></path><path d="M 134.962,179.837 C 136.561,181.036 136.554,181.084 138.301,182.047" stroke-width="16.212" stroke="rgb(33,33,33)" fill="none" stroke-linecap="round"></path><path d="M 138.301,182.047 C 139.813,182.880 139.844,182.881 141.480,183.429" stroke-width="16.330" stroke="rgb(33,33,33)" fill="none" stroke-linecap="round"></path><path d="M 141.480,183.429 C 142.948,183.921 142.999,184.116 144.510,184.128" stroke-width="16.452" stroke="rgb(33,33,33)" fill="none" stroke-linecap="round"></path><path d="M 144.510,184.128 C 145.786,184.138 145.920,184.070 147.054,183.473" stroke-width="16.682" stroke="rgb(33,33,33)" fill="none" stroke-linecap="round"></path><path d="M 147.054,183.473 C 148.310,182.812 148.367,182.712 149.291,181.611" stroke-width="16.770" stroke="rgb(33,33,33)" fill="none" stroke-linecap="round"></path><path d="M 149.291,181.611 C 150.483,180.191 150.375,180.070 151.285,178.430" stroke-width="16.733" stroke="rgb(33,33,33)" fill="none" stroke-linecap="round"></path><path d="M 151.285,178.430 C 152.416,176.391 152.598,176.433 153.373,174.254" stroke-width="16.557" stroke="rgb(33,33,33)" fill="none" stroke-linecap="round"></path><path d="M 153.373,174.254 C 154.003,172.483 153.836,172.406 154.094,170.530" stroke-width="16.557" stroke="rgb(33,33,33)" fill="none" stroke-linecap="round"></path><path d="M 154.094,170.530 C 154.316,168.922 154.266,168.910 154.333,167.287" stroke-width="16.643" stroke="rgb(33,33,33)" fill="none" stroke-linecap="round"></path><path d="M 154.333,167.287 C 154.386,166.001 154.333,165.999 154.333,164.712" stroke-width="16.797" stroke="rgb(33,33,33)" fill="none" stroke-linecap="round"></path><path d="M 154.333,164.712 C 154.333,163.929 154.333,163.929 154.333,163.145" stroke-width="17.119" stroke="rgb(33,33,33)" fill="none" stroke-linecap="round"></path><path d="M 154.333,163.145 C 154.333,162.692 154.448,162.633 154.333,162.239" stroke-width="17.503" stroke="rgb(33,33,33)" fill="none" stroke-linecap="round"></path><path d="M 154.333,162.239 C 154.281,162.061 153.900,161.972 154.000,162.000" stroke-width="17.909" stroke="rgb(33,33,33)" fill="none" stroke-linecap="round"></path><path d="M 154.000,162.000 C 154.298,162.083 154.653,162.094 155.129,162.462" stroke-width="18.067" stroke="rgb(33,33,33)" fill="none" stroke-linecap="round"></path><path d="M 155.129,162.462 C 156.420,163.461 156.315,163.616 157.534,164.734" stroke-width="17.832" stroke="rgb(33,33,33)" fill="none" stroke-linecap="round"></path><path d="M 157.534,164.734 C 159.056,166.130 158.986,166.225 160.612,167.490" stroke-width="17.501" stroke="rgb(33,33,33)" fill="none" stroke-linecap="round"></path><path d="M 160.612,167.490 C 161.971,168.547 161.948,168.816 163.503,169.377" stroke-width="17.363" stroke="rgb(33,33,33)" fill="none" stroke-linecap="round"></path><path d="M 163.503,169.377 C 164.501,169.737 164.798,169.764 165.718,169.333" stroke-width="17.446" stroke="rgb(33,33,33)" fill="none" stroke-linecap="round"></path><path d="M 165.718,169.333 C 166.674,168.884 167.027,168.699 167.255,167.617" stroke-width="17.497" stroke="rgb(33,33,33)" fill="none" stroke-linecap="round"></path><path d="M 167.255,167.617 C 168.001,164.084 168.050,163.819 167.667,160.103" stroke-width="16.675" stroke="rgb(33,33,33)" fill="none" stroke-linecap="round"></path><path d="M 167.667,160.103 C 167.000,153.631 166.813,153.567 165.156,147.240" stroke-width="15.374" stroke="rgb(33,33,33)" fill="none" stroke-linecap="round"></path><path d="M 165.156,147.240 C 163.370,140.418 163.478,140.306 160.781,133.804" stroke-width="14.157" stroke="rgb(33,33,33)" fill="none" stroke-linecap="round"></path><path d="M 160.781,133.804 C 158.520,128.353 158.101,128.519 155.239,123.335" stroke-width="13.720" stroke="rgb(33,33,33)" fill="none" stroke-linecap="round"></path><path d="M 155.239,123.335 C 152.767,118.858 152.729,118.877 150.114,114.482" stroke-width="13.490" stroke="rgb(33,33,33)" fill="none" stroke-linecap="round"></path><path d="M 150.114,114.482 C 148.461,111.704 148.371,111.758 146.702,108.990" stroke-width="13.667" stroke="rgb(33,33,33)" fill="none" stroke-linecap="round"></path><path d="M 146.702,108.990 C 145.672,107.281 145.689,107.271 144.717,105.528" stroke-width="14.138" stroke="rgb(33,33,33)" fill="none" stroke-linecap="round"></path><path d="M 144.717,105.528 C 143.879,104.025 143.660,104.095 143.083,102.499" stroke-width="14.580" stroke="rgb(33,33,33)" fill="none" stroke-linecap="round"></path><path d="M 143.083,102.499 C 142.635,101.260 142.562,101.163 142.667,99.858" stroke-width="15.083" stroke="rgb(33,33,33)" fill="none" stroke-linecap="round"></path><path d="M 142.667,99.858 C 142.808,98.109 142.842,97.999 143.576,96.392" stroke-width="15.320" stroke="rgb(33,33,33)" fill="none" stroke-linecap="round"></path><path d="M 143.576,96.392 C 144.364,94.668 144.509,94.687 145.711,93.195" stroke-width="15.602" stroke="rgb(33,33,33)" fill="none" stroke-linecap="round"></path><path d="M 145.711,93.195 C 147.197,91.349 147.171,91.274 148.951,89.716" stroke-width="15.646" stroke="rgb(33,33,33)" fill="none" stroke-linecap="round"></path><path d="M 148.951,89.716 C 150.981,87.939 151.098,88.059 153.331,86.525" stroke-width="15.539" stroke="rgb(33,33,33)" fill="none" stroke-linecap="round"></path><path d="M 153.331,86.525 C 155.957,84.721 155.902,84.607 158.669,83.040" stroke-width="15.315" stroke="rgb(33,33,33)" fill="none" stroke-linecap="round"></path><path d="M 158.669,83.040 C 161.109,81.659 161.243,81.905 163.745,80.628" stroke-width="15.296" stroke="rgb(33,33,33)" fill="none" stroke-linecap="round"></path><path d="M 163.745,80.628 C 166.350,79.299 166.228,79.031 168.883,77.828" stroke-width="15.200" stroke="rgb(33,33,33)" fill="none" stroke-linecap="round"></path><path d="M 168.883,77.828 C 170.809,76.955 170.894,77.149 172.907,76.475" stroke-width="15.391" stroke="rgb(33,33,33)" fill="none" stroke-linecap="round"></path><path d="M 172.907,76.475 C 174.987,75.779 174.949,75.619 177.069,75.088" stroke-width="15.488" stroke="rgb(33,33,33)" fill="none" stroke-linecap="round"></path><path d="M 204.667,138.667 C 207.240,143.313 207.366,143.251 209.813,147.958" stroke-width="19.994" stroke="rgb(33,33,33)" fill="none" stroke-linecap="round"></path><path d="M 209.813,147.958 C 210.690,149.646 210.571,149.705 211.316,151.457" stroke-width="19.143" stroke="rgb(33,33,33)" fill="none" stroke-linecap="round"></path><path d="M 211.316,151.457 C 211.742,152.458 211.727,152.464 212.155,153.464" stroke-width="18.892" stroke="rgb(33,33,33)" fill="none" stroke-linecap="round"></path><path d="M 212.155,153.464 C 212.482,154.227 212.443,154.289 212.825,154.983" stroke-width="18.821" stroke="rgb(33,33,33)" fill="none" stroke-linecap="round"></path><path d="M 212.825,154.983 C 212.865,155.057 212.912,154.992 213.000,155.000" stroke-width="19.051" stroke="rgb(33,33,33)" fill="none" stroke-linecap="round"></path><path d="M 213.000,155.000 C 213.000,155.000 213.000,155.000 213.000,155.000" stroke-width="19.279" stroke="rgb(33,33,33)" fill="none" stroke-linecap="round"></path><path d="M 213.000,155.000 C 213.000,154.000 213.000,154.000 213.000,153.000" stroke-width="19.009" stroke="rgb(33,33,33)" fill="none" stroke-linecap="round"></path><path d="M 213.000,153.000 C 213.000,150.000 213.000,150.000 213.000,147.000" stroke-width="17.964" stroke="rgb(33,33,33)" fill="none" stroke-linecap="round"></path><path d="M 213.000,147.000 C 213.000,143.000 212.860,142.994 213.000,139.000" stroke-width="16.933" stroke="rgb(33,33,33)" fill="none" stroke-linecap="round"></path><path d="M 213.000,139.000 C 213.090,136.425 213.189,136.427 213.460,133.863" stroke-width="16.634" stroke="rgb(33,33,33)" fill="none" stroke-linecap="round"></path><path d="M 213.460,133.863 C 213.753,131.083 213.711,131.074 214.128,128.312" stroke-width="16.335" stroke="rgb(33,33,33)" fill="none" stroke-linecap="round"></path><path d="M 214.128,128.312 C 214.378,126.656 214.393,126.651 214.795,125.026" stroke-width="16.447" stroke="rgb(33,33,33)" fill="none" stroke-linecap="round"></path><path d="M 214.795,125.026 C 215.044,124.016 214.971,123.963 215.430,123.042" stroke-width="16.722" stroke="rgb(33,33,33)" fill="none" stroke-linecap="round"></path><path d="M 215.430,123.042 C 215.873,122.151 215.824,121.869 216.599,121.401" stroke-width="16.936" stroke="rgb(33,33,33)" fill="none" stroke-linecap="round"></path><path d="M 216.599,121.401 C 217.238,121.015 217.497,121.094 218.258,121.333" stroke-width="17.218" stroke="rgb(33,33,33)" fill="none" stroke-linecap="round"></path><path d="M 218.258,121.333 C 219.392,121.689 219.499,121.763 220.388,122.592" stroke-width="17.308" stroke="rgb(33,33,33)" fill="none" stroke-linecap="round"></path><path d="M 220.388,122.592 C 221.564,123.688 221.488,123.821 222.388,125.183" stroke-width="17.206" stroke="rgb(33,33,33)" fill="none" stroke-linecap="round"></path><path d="M 222.388,125.183 C 223.484,126.842 223.483,126.860 224.381,128.635" stroke-width="17.040" stroke="rgb(33,33,33)" fill="none" stroke-linecap="round"></path><path d="M 224.381,128.635 C 225.081,130.018 224.855,130.138 225.583,131.499" stroke-width="17.056" stroke="rgb(33,33,33)" fill="none" stroke-linecap="round"></path><path d="M 225.583,131.499 C 226.120,132.503 226.364,132.371 226.910,133.365" stroke-width="17.230" stroke="rgb(33,33,33)" fill="none" stroke-linecap="round"></path><path d="M 226.910,133.365 C 227.301,134.077 227.097,134.184 227.456,134.911" stroke-width="17.465" stroke="rgb(33,33,33)" fill="none" stroke-linecap="round"></path><path d="M 227.456,134.911 C 227.688,135.381 227.747,135.359 228.093,135.759" stroke-width="17.762" stroke="rgb(33,33,33)" fill="none" stroke-linecap="round"></path><path d="M 228.093,135.759 C 228.415,136.132 228.547,136.214 228.791,136.458" stroke-width="18.064" stroke="rgb(33,33,33)" fill="none" stroke-linecap="round"></path><path d="M 228.791,136.458 C 228.834,136.501 228.655,136.416 228.667,136.333" stroke-width="18.413" stroke="rgb(33,33,33)" fill="none" stroke-linecap="round"></path><path d="M 228.667,136.333 C 228.760,135.687 228.649,135.493 229.000,135.000" stroke-width="18.440" stroke="rgb(33,33,33)" fill="none" stroke-linecap="round"></path><path d="M 229.000,135.000 C 229.212,134.702 229.530,135.032 229.792,134.750" stroke-width="18.597" stroke="rgb(33,33,33)" fill="none" stroke-linecap="round"></path><path d="M 229.792,134.750 C 230.254,134.251 230.120,134.094 230.448,133.438" stroke-width="18.606" stroke="rgb(33,33,33)" fill="none" stroke-linecap="round"></path><path d="M 230.448,133.438 C 230.784,132.765 230.784,132.765 231.121,132.092" stroke-width="18.605" stroke="rgb(33,33,33)" fill="none" stroke-linecap="round"></path><path d="M 231.121,132.092 C 231.454,131.426 231.365,131.355 231.787,130.760" stroke-width="18.608" stroke="rgb(33,33,33)" fill="none" stroke-linecap="round"></path><path d="M 231.787,130.760 C 232.031,130.416 232.076,130.210 232.452,130.215" stroke-width="18.738" stroke="rgb(33,33,33)" fill="none" stroke-linecap="round"></path><path d="M 232.452,130.215 C 233.138,130.224 233.294,130.340 233.912,130.789" stroke-width="18.698" stroke="rgb(33,33,33)" fill="none" stroke-linecap="round"></path><path d="M 233.912,130.789 C 234.691,131.355 234.629,131.479 235.246,132.246" stroke-width="18.584" stroke="rgb(33,33,33)" fill="none" stroke-linecap="round"></path><path d="M 235.246,132.246 C 235.569,132.647 235.486,132.819 235.791,133.124" stroke-width="18.655" stroke="rgb(33,33,33)" fill="none" stroke-linecap="round"></path><path d="M 235.791,133.124 C 235.863,133.196 235.992,133.117 236.000,133.000" stroke-width="18.906" stroke="rgb(33,33,33)" fill="none" stroke-linecap="round"></path><path d="M 236.000,133.000 C 236.097,131.555 236.000,131.500 236.000,130.000" stroke-width="18.574" stroke="rgb(33,33,33)" fill="none" stroke-linecap="round"></path><path d="M 236.000,130.000 C 236.000,125.500 236.329,125.474 236.000,121.000" stroke-width="16.986" stroke="rgb(33,33,33)" fill="none" stroke-linecap="round"></path><path d="M 236.000,121.000 C 235.707,117.012 235.233,117.055 234.755,113.076" stroke-width="16.148" stroke="rgb(33,33,33)" fill="none" stroke-linecap="round"></path><path d="M 234.755,113.076 C 234.341,109.633 234.419,109.620 234.216,106.156" stroke-width="15.760" stroke="rgb(33,33,33)" fill="none" stroke-linecap="round"></path><path d="M 234.216,106.156 C 234.088,103.969 233.939,103.949 234.093,101.775" stroke-width="15.863" stroke="rgb(33,33,33)" fill="none" stroke-linecap="round"></path><path d="M 234.093,101.775 C 234.226,99.899 234.354,99.893 234.789,98.056" stroke-width="15.998" stroke="rgb(33,33,33)" fill="none" stroke-linecap="round"></path><path d="M 234.789,98.056 C 235.021,97.078 234.912,96.966 235.427,96.146" stroke-width="16.379" stroke="rgb(33,33,33)" fill="none" stroke-linecap="round"></path><path d="M 235.427,96.146 C 235.804,95.545 235.942,95.201 236.573,95.214" stroke-width="16.753" stroke="rgb(33,33,33)" fill="none" stroke-linecap="round"></path><path d="M 236.573,95.214 C 237.578,95.235 238.053,95.287 238.699,96.215" stroke-width="16.972" stroke="rgb(33,33,33)" fill="none" stroke-linecap="round"></path><path d="M 238.699,96.215 C 240.964,99.468 241.132,99.679 242.395,103.577" stroke-width="16.016" stroke="rgb(33,33,33)" fill="none" stroke-linecap="round"></path><path d="M 242.395,103.577 C 245.196,112.223 244.996,112.359 246.826,121.304" stroke-width="14.196" stroke="rgb(33,33,33)" fill="none" stroke-linecap="round"></path><path d="M 246.826,121.304 C 249.328,133.535 249.245,133.572 251.059,145.929" stroke-width="12.247" stroke="rgb(33,33,33)" fill="none" stroke-linecap="round"></path><path d="M 251.059,145.929 C 252.959,158.877 252.644,158.923 254.254,171.914" stroke-width="11.165" stroke="rgb(33,33,33)" fill="none" stroke-linecap="round"></path><path d="M 254.254,171.914 C 255.583,182.642 255.673,182.631 256.937,193.367" stroke-width="10.628" stroke="rgb(33,33,33)" fill="none" stroke-linecap="round"></path><path d="M 256.937,193.367 C 258.062,202.921 258.115,202.918 259.031,212.493" stroke-width="10.307" stroke="rgb(33,33,33)" fill="none" stroke-linecap="round"></path><path d="M 259.031,212.493 C 259.525,217.655 259.339,217.672 259.757,222.841" stroke-width="10.731" stroke="rgb(33,33,33)" fill="none" stroke-linecap="round"></path><path d="M 259.757,222.841 C 260.051,226.471 259.998,226.481 260.455,230.091" stroke-width="11.208" stroke="rgb(33,33,33)" fill="none" stroke-linecap="round"></path><path d="M 260.455,230.091 C 260.679,231.859 260.886,232.354 261.119,233.597" stroke-width="12.001" stroke="rgb(33,33,33)" fill="none" stroke-linecap="round"></path><path d="M 273.000,32.000 C 273.232,39.941 273.376,39.940 273.464,47.883" stroke-width="19.559" stroke="rgb(33,33,33)" fill="none" stroke-linecap="round"></path><path d="M 273.464,47.883 C 273.543,54.980 273.482,54.983 273.333,62.079" stroke-width="16.942" stroke="rgb(33,33,33)" fill="none" stroke-linecap="round"></path><path d="M 273.333,62.079 C 273.189,68.924 273.191,68.926 272.878,75.765" stroke-width="15.372" stroke="rgb(33,33,33)" fill="none" stroke-linecap="round"></path><path d="M 272.878,75.765 C 272.625,81.280 272.839,81.314 272.201,86.786" stroke-width="14.634" stroke="rgb(33,33,33)" fill="none" stroke-linecap="round"></path><path d="M 272.201,86.786 C 271.772,90.470 271.735,90.506 270.744,94.076" stroke-width="14.465" stroke="rgb(33,33,33)" fill="none" stroke-linecap="round"></path><path d="M 270.744,94.076 C 269.948,96.944 269.970,97.017 268.627,99.661" stroke-width="14.566" stroke="rgb(33,33,33)" fill="none" stroke-linecap="round"></path><path d="M 268.627,99.661 C 267.507,101.866 267.393,101.869 265.817,103.774" stroke-width="14.733" stroke="rgb(33,33,33)" fill="none" stroke-linecap="round"></path><path d="M 265.817,103.774 C 264.889,104.896 264.747,104.780 263.618,105.716" stroke-width="15.179" stroke="rgb(33,33,33)" fill="none" stroke-linecap="round"></path><path d="M 263.618,105.716 C 262.649,106.519 262.718,106.682 261.622,107.252" stroke-width="15.614" stroke="rgb(33,33,33)" fill="none" stroke-linecap="round"></path><path d="M 261.622,107.252 C 260.718,107.721 260.631,107.663 259.618,107.794" stroke-width="16.047" stroke="rgb(33,33,33)" fill="none" stroke-linecap="round"></path><path d="M 259.618,107.794 C 259.026,107.871 259.016,107.711 258.412,107.667" stroke-width="16.547" stroke="rgb(33,33,33)" fill="none" stroke-linecap="round"></path><path d="M 258.412,107.667 C 258.146,107.648 258.082,107.802 257.877,107.667" stroke-width="17.078" stroke="rgb(33,33,33)" fill="none" stroke-linecap="round"></path><path d="M 257.877,107.667 C 257.479,107.405 257.371,107.316 257.207,106.874" stroke-width="17.420" stroke="rgb(33,33,33)" fill="none" stroke-linecap="round"></path><path d="M 257.207,106.874 C 257.099,106.582 257.280,106.427 257.333,106.200" stroke-width="17.794" stroke="rgb(33,33,33)" fill="none" stroke-linecap="round"></path><path d="M 257.333,106.200 C 257.343,106.156 257.283,106.295 257.333,106.333" stroke-width="18.211" stroke="rgb(33,33,33)" fill="none" stroke-linecap="round"></path><path d="M 257.333,106.333 C 257.680,106.592 257.761,106.518 258.127,106.793" stroke-width="18.403" stroke="rgb(33,33,33)" fill="none" stroke-linecap="round"></path><path d="M 258.127,106.793 C 259.354,107.713 259.353,107.724 260.520,108.723" stroke-width="18.101" stroke="rgb(33,33,33)" fill="none" stroke-linecap="round"></path><path d="M 260.520,108.723 C 262.114,110.087 261.959,110.298 263.650,111.520" stroke-width="17.695" stroke="rgb(33,33,33)" fill="none" stroke-linecap="round"></path><path d="M 263.650,111.520 C 265.188,112.630 265.281,112.519 266.978,113.387" stroke-width="17.451" stroke="rgb(33,33,33)" fill="none" stroke-linecap="round"></path><path d="M 266.978,113.387 C 268.604,114.218 268.547,114.664 270.296,114.918" stroke-width="17.324" stroke="rgb(33,33,33)" fill="none" stroke-linecap="round"></path><path d="M 316.333,64.667 C 311.590,63.022 311.685,62.468 306.846,61.378" stroke-width="19.953" stroke="rgb(33,33,33)" fill="none" stroke-linecap="round"></path><path d="M 306.846,61.378 C 304.282,60.801 304.131,60.989 301.527,61.333" stroke-width="18.846" stroke="rgb(33,33,33)" fill="none" stroke-linecap="round"></path><path d="M 301.527,61.333 C 299.453,61.607 299.276,61.583 297.489,62.615" stroke-width="18.202" stroke="rgb(33,33,33)" fill="none" stroke-linecap="round"></path><path d="M 297.489,62.615 C 295.892,63.537 295.982,63.806 294.760,65.240" stroke-width="17.887" stroke="rgb(33,33,33)" fill="none" stroke-linecap="round"></path><path d="M 294.760,65.240 C 293.515,66.702 293.512,66.748 292.555,68.408" stroke-width="17.549" stroke="rgb(33,33,33)" fill="none" stroke-linecap="round"></path><path d="M 292.555,68.408 C 292.077,69.237 292.372,69.415 291.891,70.218" stroke-width="17.673" stroke="rgb(33,33,33)" fill="none" stroke-linecap="round"></path><path d="M 291.891,70.218 C 291.595,70.711 290.924,70.945 291.000,71.000" stroke-width="17.911" stroke="rgb(33,33,33)" fill="none" stroke-linecap="round"></path><path d="M 291.000,71.000 C 291.086,71.062 291.690,70.843 292.216,70.451" stroke-width="18.077" stroke="rgb(33,33,33)" fill="none" stroke-linecap="round"></path><path d="M 292.216,70.451 C 293.000,69.867 292.987,69.805 293.620,69.047" stroke-width="18.038" stroke="rgb(33,33,33)" fill="none" stroke-linecap="round"></path><path d="M 293.620,69.047 C 294.099,68.473 293.945,68.340 294.440,67.787" stroke-width="18.165" stroke="rgb(33,33,33)" fill="none" stroke-linecap="round"></path><path d="M 294.440,67.787 C 294.909,67.263 294.919,67.173 295.548,66.893" stroke-width="18.266" stroke="rgb(33,33,33)" fill="none" stroke-linecap="round"></path><path d="M 295.548,66.893 C 296.178,66.613 296.457,66.326 296.957,66.667" stroke-width="18.311" stroke="rgb(33,33,33)" fill="none" stroke-linecap="round"></path><path d="M 296.957,66.667 C 297.824,67.258 297.617,67.714 298.282,68.757" stroke-width="18.180" stroke="rgb(33,33,33)" fill="none" stroke-linecap="round"></path><path d="M 298.282,68.757 C 299.593,70.813 299.608,70.804 300.910,72.866" stroke-width="17.578" stroke="rgb(33,33,33)" fill="none" stroke-linecap="round"></path><path d="M 300.910,72.866 C 302.013,74.613 301.958,74.648 303.091,76.375" stroke-width="17.304" stroke="rgb(33,33,33)" fill="none" stroke-linecap="round"></path><path d="M 303.091,76.375 C 304.035,77.814 304.030,77.823 305.064,79.197" stroke-width="17.209" stroke="rgb(33,33,33)" fill="none" stroke-linecap="round"></path><path d="M 305.064,79.197 C 305.624,79.941 305.697,79.885 306.279,80.612" stroke-width="17.407" stroke="rgb(33,33,33)" fill="none" stroke-linecap="round"></path><path d="M 306.279,80.612 C 306.551,80.953 306.441,81.133 306.772,81.333" stroke-width="17.749" stroke="rgb(33,33,33)" fill="none" stroke-linecap="round"></path><path d="M 333.667,34.333 C 333.419,39.559 333.557,39.569 333.170,44.785" stroke-width="17.013" stroke="rgb(33,33,33)" fill="none" stroke-linecap="round"></path><path d="M 333.170,44.785 C 332.754,50.395 332.607,50.384 332.061,55.985" stroke-width="11.808" stroke="rgb(33,33,33)" fill="none" stroke-linecap="round"></path><path d="M 332.061,55.985 C 331.558,61.141 331.778,61.173 331.071,66.299" stroke-width="12.211" stroke="rgb(33,33,33)" fill="none" stroke-linecap="round"></path><path d="M 331.071,66.299 C 330.581,69.847 330.659,69.910 329.667,73.333" stroke-width="12.125" stroke="rgb(33,33,33)" fill="none" stroke-linecap="round"></path><path d="M 329.667,73.333 C 329.090,75.327 328.941,75.321 327.933,77.133" stroke-width="12.774" stroke="rgb(33,33,33)" fill="none" stroke-linecap="round"></path><path d="M 327.933,77.133 C 327.477,77.952 327.283,79.188 326.739,78.594" stroke-width="13.748" stroke="rgb(33,33,33)" fill="none" stroke-linecap="round"></path><path d="M 326.739,78.594 C 322.793,74.283 322.267,73.233 318.954,67.323" stroke-width="12.972" stroke="rgb(33,33,33)" fill="none" stroke-linecap="round"></path><path d="M 318.954,67.323 C 317.598,64.904 318.045,64.660 317.401,61.935" stroke-width="12.870" stroke="rgb(33,33,33)" fill="none" stroke-linecap="round"></path><path d="M 317.401,61.935 C 316.836,59.541 316.734,59.527 316.536,57.085" stroke-width="13.243" stroke="rgb(33,33,33)" fill="none" stroke-linecap="round"></path><path d="M 316.536,57.085 C 316.367,55.007 316.391,54.957 316.667,52.895" stroke-width="13.751" stroke="rgb(33,33,33)" fill="none" stroke-linecap="round"></path><path d="M 316.667,52.895 C 316.856,51.485 316.946,51.470 317.465,50.141" stroke-width="14.322" stroke="rgb(33,33,33)" fill="none" stroke-linecap="round"></path><path d="M 317.465,50.141 C 317.918,48.980 317.631,48.605 318.612,47.915" stroke-width="15.089" stroke="rgb(33,33,33)" fill="none" stroke-linecap="round"></path><path d="M 318.612,47.915 C 321.251,46.060 321.565,46.180 324.705,45.051" stroke-width="13.124" stroke="rgb(33,33,33)" fill="none" stroke-linecap="round"></path><path d="M 324.705,45.051 C 326.278,44.485 326.378,44.823 328.038,44.526" stroke-width="13.689" stroke="rgb(33,33,33)" fill="none" stroke-linecap="round"></path><path d="M 328.038,44.526 C 329.714,44.226 329.718,44.236 331.377,43.858" stroke-width="14.225" stroke="rgb(33,33,33)" fill="none" stroke-linecap="round"></path><path d="M 331.377,43.858 C 332.653,43.568 332.757,43.751 333.908,43.190" stroke-width="14.785" stroke="rgb(33,33,33)" fill="none" stroke-linecap="round"></path><path d="M 333.908,43.190 C 334.934,42.690 335.032,42.641 335.731,41.735" stroke-width="15.322" stroke="rgb(33,33,33)" fill="none" stroke-linecap="round"></path><path d="M 335.731,41.735 C 336.778,40.379 336.855,40.302 337.400,38.667" stroke-width="15.596" stroke="rgb(33,33,33)" fill="none" stroke-linecap="round"></path><path d="M 337.400,38.667 C 338.056,36.700 337.880,36.612 338.134,34.531" stroke-width="15.916" stroke="rgb(33,33,33)" fill="none" stroke-linecap="round"></path><path d="M 338.134,34.531 C 338.347,32.783 338.414,32.755 338.333,31.008" stroke-width="16.323" stroke="rgb(33,33,33)" fill="none" stroke-linecap="round"></path><path d="M 338.333,31.008 C 338.284,29.967 338.188,29.955 337.874,28.956" stroke-width="16.454" stroke="rgb(33,33,33)" fill="none" stroke-linecap="round"></path><path d="M 337.874,28.956 C 337.620,28.148 337.645,28.091 337.197,27.394" stroke-width="16.811" stroke="rgb(33,33,33)" fill="none" stroke-linecap="round"></path><path d="M 337.197,27.394 C 336.973,27.046 336.915,26.854 336.531,26.865" stroke-width="17.244" stroke="rgb(33,33,33)" fill="none" stroke-linecap="round"></path><path d="M 336.531,26.865 C 335.619,26.890 335.336,26.832 334.604,27.465" stroke-width="17.409" stroke="rgb(33,33,33)" fill="none" stroke-linecap="round"></path><path d="M 334.604,27.465 C 333.134,28.736 333.055,28.892 332.127,30.674" stroke-width="17.187" stroke="rgb(33,33,33)" fill="none" stroke-linecap="round"></path><path d="M 332.127,30.674 C 330.491,33.815 330.428,33.886 329.476,37.311" stroke-width="16.438" stroke="rgb(33,33,33)" fill="none" stroke-linecap="round"></path><path d="M 329.476,37.311 C 328.396,41.196 327.994,41.272 328.062,45.294" stroke-width="16.381" stroke="rgb(33,33,33)" fill="none" stroke-linecap="round"></path><path d="M 328.062,45.294 C 328.224,54.888 328.775,54.950 329.935,64.543" stroke-width="12.510" stroke="rgb(33,33,33)" fill="none" stroke-linecap="round"></path><path d="M 329.935,64.543 C 330.378,68.205 330.704,68.159 331.268,71.805" stroke-width="12.057" stroke="rgb(33,33,33)" fill="none" stroke-linecap="round"></path><path d="M 331.268,71.805 C 331.639,74.202 331.697,74.211 331.804,76.629" stroke-width="12.622" stroke="rgb(33,33,33)" fill="none" stroke-linecap="round"></path><path d="M 331.804,76.629 C 331.897,78.721 332.101,78.830 331.667,80.825" stroke-width="13.211" stroke="rgb(33,33,33)" fill="none" stroke-linecap="round"></path></svg>