<svg xmlns="http://www.w3.org/2000/svg" xmlns:xlink="http://www.w3.org/1999/xlink" viewBox="0 0 800 500"><path d="M 113.000,444.000 C 113.500,444.000 113.500,444.000 114.000,444.000" stroke-width="19.597" stroke="rgb(33,33,33)" fill="none" stroke-linecap="round"></path><path d="M 114.000,444.000 C 114.500,444.000 114.536,443.845 115.000,444.000" stroke-width="19.662" stroke="rgb(33,33,33)" fill="none" stroke-linecap="round"></path><path d="M 115.000,444.000 C 116.036,444.345 115.964,444.655 117.000,445.000" stroke-width="19.502" stroke="rgb(33,33,33)" fill="none" stroke-linecap="round"></path><path d="M 117.000,445.000 C 117.464,445.155 117.500,445.000 118.000,445.000" stroke-width="19.273" stroke="rgb(33,33,33)" fill="none" stroke-linecap="round"></path><path d="M 118.000,445.000 C 119.000,445.000 119.056,444.764 120.000,445.000" stroke-width="18.857" stroke="rgb(33,33,33)" fill="none" stroke-linecap="round"></path><path d="M 120.000,445.000 C 121.056,445.264 120.944,445.736 122.000,446.000" stroke-width="18.263" stroke="rgb(33,33,33)" fill="none" stroke-linecap="round"></path><path d="M 122.000,446.000 C 122.944,446.236 123.000,446.000 124.000,446.000" stroke-width="18.026" stroke="rgb(33,33,33)" fill="none" stroke-linecap="round"></path><path d="M 124.000,446.000 C 126.000,446.000 126.000,446.000 128.000,446.000" stroke-width="17.180" stroke="rgb(33,33,33)" fill="none" stroke-linecap="round"></path><path d="M 128.000,446.000 C 129.000,446.000 129.010,446.124 130.000,446.000" stroke-width="17.118" stroke="rgb(33,33,33)" fill="none" stroke-linecap="round"></path><path d="M 130.000,446.000 C 133.010,445.624 133.119,445.864 136.000,445.000" stroke-width="16.110" stroke="rgb(33,33,33)" fill="none" stroke-linecap="round"></path><path d="M 136.000,445.000 C 138.119,444.364 137.965,443.925 140.000,443.000" stroke-width="15.637" stroke="rgb(33,33,33)" fill="none" stroke-linecap="round"></path><path d="M 140.000,443.000 C 143.465,441.425 143.661,441.798 147.000,440.000" stroke-width="14.733" stroke="rgb(33,33,33)" fill="none" stroke-linecap="round"></path><path d="M 147.000,440.000 C 150.161,438.298 149.943,437.910 153.000,436.000" stroke-width="14.263" stroke="rgb(33,33,33)" fill="none" stroke-linecap="round"></path><path d="M 153.000,436.000 C 157.943,432.910 157.801,432.599 163.000,430.000" stroke-width="12.443" stroke="rgb(33,33,33)" fill="none" stroke-linecap="round"></path><path d="M 163.000,430.000 C 167.801,427.599 168.093,428.208 173.000,426.000" stroke-width="11.928" stroke="rgb(33,33,33)" fill="none" stroke-linecap="round"></path><path d="M 173.000,426.000 C 178.093,423.708 177.966,423.430 183.000,421.000" stroke-width="11.365" stroke="rgb(33,33,33)" fill="none" stroke-linecap="round"></path><path d="M 183.000,421.000 C 192.466,416.430 192.387,416.241 202.000,412.000" stroke-width="10.086" stroke="rgb(33,33,33)" fill="none" stroke-linecap="round"></path><path d="M 202.000,412.000 C 209.387,408.741 209.511,409.027 217.000,406.000" stroke-width="9.510" stroke="rgb(33,33,33)" fill="none" stroke-linecap="round"></path><path d="M 217.000,406.000 C 233.011,399.527 233.079,399.687 249.000,393.000" stroke-width="7.806" stroke="rgb(33,33,33)" fill="none" stroke-linecap="round"></path><path d="M 249.000,393.000 C 258.079,389.187 257.972,388.935 267.000,385.000" stroke-width="7.689" stroke="rgb(33,33,33)" fill="none" stroke-linecap="round"></path><path d="M 267.000,385.000 C 277.472,380.435 277.897,381.214 288.000,376.000" stroke-width="7.535" stroke="rgb(33,33,33)" fill="none" stroke-linecap="round"></path><path d="M 288.000,376.000 C 293.397,373.214 293.034,372.547 298.000,369.000" stroke-width="8.091" stroke="rgb(33,33,33)" fill="none" stroke-linecap="round"></path><path d="M 298.000,369.000 C 303.534,365.047 303.487,364.982 309.000,361.000" stroke-width="7.626" stroke="rgb(33,33,33)" fill="none" stroke-linecap="round"></path><path d="M 309.000,361.000 C 312.487,358.482 312.745,358.790 316.000,356.000" stroke-width="7.879" stroke="rgb(33,33,33)" fill="none" stroke-linecap="round"></path><path d="M 316.000,356.000 C 319.745,352.790 319.500,352.500 323.000,349.000" stroke-width="8.408" stroke="rgb(33,33,33)" fill="none" stroke-linecap="round"></path><path d="M 323.000,349.000 C 324.500,347.500 324.623,347.607 326.000,346.000" stroke-width="9.069" stroke="rgb(33,33,33)" fill="none" stroke-linecap="round"></path><path d="M 326.000,346.000 C 327.623,344.107 327.333,343.667 329.000,342.000" stroke-width="9.706" stroke="rgb(33,33,33)" fill="none" stroke-linecap="round"></path><path d="M 329.000,342.000 C 329.333,341.667 329.691,342.309 330.000,342.000" stroke-width="10.730" stroke="rgb(33,33,33)" fill="none" stroke-linecap="round"></path><path d="M 330.000,342.000 C 330.691,341.309 330.309,340.691 331.000,340.000" stroke-width="11.569" stroke="rgb(33,33,33)" fill="none" stroke-linecap="round"></path><path d="M 331.000,340.000 C 331.309,339.691 331.833,339.667 332.000,340.000" stroke-width="12.497" stroke="rgb(33,33,33)" fill="none" stroke-linecap="round"></path><path d="M 332.000,340.000 C 332.333,340.667 332.194,341.031 332.000,342.000" stroke-width="13.512" stroke="rgb(33,33,33)" fill="none" stroke-linecap="round"></path><path d="M 332.000,342.000 C 331.694,343.531 331.434,343.481 331.000,345.000" stroke-width="13.849" stroke="rgb(33,33,33)" fill="none" stroke-linecap="round"></path><path d="M 331.000,345.000 C 330.434,346.981 330.566,347.019 330.000,349.000" stroke-width="13.944" stroke="rgb(33,33,33)" fill="none" stroke-linecap="round"></path><path d="M 330.000,349.000 C 329.566,350.519 329.587,350.533 329.000,352.000" stroke-width="14.268" stroke="rgb(33,33,33)" fill="none" stroke-linecap="round"></path><path d="M 329.000,352.000 C 327.587,355.533 327.366,355.449 326.000,359.000" stroke-width="13.848" stroke="rgb(33,33,33)" fill="none" stroke-linecap="round"></path><path d="M 326.000,359.000 C 324.866,361.949 325.000,362.000 324.000,365.000" stroke-width="13.407" stroke="rgb(33,33,33)" fill="none" stroke-linecap="round"></path><path d="M 324.000,365.000 C 323.000,368.000 323.213,368.088 322.000,371.000" stroke-width="13.194" stroke="rgb(33,33,33)" fill="none" stroke-linecap="round"></path><path d="M 322.000,371.000 C 320.713,374.088 320.359,373.942 319.000,377.000" stroke-width="12.964" stroke="rgb(33,33,33)" fill="none" stroke-linecap="round"></path><path d="M 319.000,377.000 C 318.359,378.442 318.555,378.520 318.000,380.000" stroke-width="13.436" stroke="rgb(33,33,33)" fill="none" stroke-linecap="round"></path><path d="M 318.000,380.000 C 317.055,382.520 316.945,382.480 316.000,385.000" stroke-width="13.381" stroke="rgb(33,33,33)" fill="none" stroke-linecap="round"></path><path d="M 316.000,385.000 C 315.445,386.480 315.500,386.500 315.000,388.000" stroke-width="13.792" stroke="rgb(33,33,33)" fill="none" stroke-linecap="round"></path><path d="M 315.000,388.000 C 314.500,389.500 314.691,389.618 314.000,391.000" stroke-width="14.084" stroke="rgb(33,33,33)" fill="none" stroke-linecap="round"></path><path d="M 314.000,391.000 C 313.691,391.618 313.293,391.414 313.000,392.000" stroke-width="14.740" stroke="rgb(33,33,33)" fill="none" stroke-linecap="round"></path><path d="M 313.000,392.000 C 312.793,392.414 313.000,392.500 313.000,393.000" stroke-width="15.509" stroke="rgb(33,33,33)" fill="none" stroke-linecap="round"></path><path d="M 313.000,393.000 C 313.000,393.500 313.250,393.750 313.000,394.000" stroke-width="16.013" stroke="rgb(33,33,33)" fill="none" stroke-linecap="round"></path><path d="M 313.000,394.000 C 312.750,394.250 312.464,394.155 312.000,394.000" stroke-width="16.465" stroke="rgb(33,33,33)" fill="none" stroke-linecap="round"></path><path d="M 312.000,394.000 C 310.964,393.655 310.587,393.880 310.000,393.000" stroke-width="17.066" stroke="rgb(33,33,33)" fill="none" stroke-linecap="round"></path><path d="M 310.000,393.000 C 308.587,390.880 309.556,390.074 308.000,388.000" stroke-width="16.110" stroke="rgb(33,33,33)" fill="none" stroke-linecap="round"></path><path d="M 308.000,388.000 C 306.556,386.074 305.759,386.759 304.000,385.000" stroke-width="15.619" stroke="rgb(33,33,33)" fill="none" stroke-linecap="round"></path><path d="M 304.000,385.000 C 300.259,381.259 300.603,380.903 297.000,377.000" stroke-width="13.968" stroke="rgb(33,33,33)" fill="none" stroke-linecap="round"></path><path d="M 297.000,377.000 C 294.603,374.403 294.597,374.397 292.000,372.000" stroke-width="13.489" stroke="rgb(33,33,33)" fill="none" stroke-linecap="round"></path><path d="M 292.000,372.000 C 288.097,368.397 288.198,368.229 284.000,365.000" stroke-width="12.550" stroke="rgb(33,33,33)" fill="none" stroke-linecap="round"></path><path d="M 284.000,365.000 C 281.698,363.229 281.637,363.217 279.000,362.000" stroke-width="12.681" stroke="rgb(33,33,33)" fill="none" stroke-linecap="round"></path><path d="M 279.000,362.000 C 275.137,360.217 275.071,360.110 271.000,359.000" stroke-width="12.285" stroke="rgb(33,33,33)" fill="none" stroke-linecap="round"></path><path d="M 271.000,359.000 C 269.571,358.610 269.482,359.185 268.000,359.000" stroke-width="12.909" stroke="rgb(33,33,33)" fill="none" stroke-linecap="round"></path><path d="M 268.000,359.000 C 265.482,358.685 265.522,358.360 263.000,358.000" stroke-width="12.912" stroke="rgb(33,33,33)" fill="none" stroke-linecap="round"></path><path d="M 263.000,358.000 C 258.522,357.360 258.512,357.282 254.000,357.000" stroke-width="12.380" stroke="rgb(33,33,33)" fill="none" stroke-linecap="round"></path><path d="M 254.000,357.000 C 250.512,356.782 250.500,357.000 247.000,357.000" stroke-width="12.379" stroke="rgb(33,33,33)" fill="none" stroke-linecap="round"></path><path d="M 247.000,357.000 C 243.000,357.000 243.000,357.000 239.000,357.000" stroke-width="12.135" stroke="rgb(33,33,33)" fill="none" stroke-linecap="round"></path><path d="M 239.000,357.000 C 235.500,357.000 235.500,357.000 232.000,357.000" stroke-width="12.182" stroke="rgb(33,33,33)" fill="none" stroke-linecap="round"></path><path d="M 232.000,357.000 C 228.000,357.000 228.000,357.000 224.000,357.000" stroke-width="11.984" stroke="rgb(33,33,33)" fill="none" stroke-linecap="round"></path><path d="M 224.000,357.000 C 221.000,357.000 221.000,357.000 218.000,357.000" stroke-width="12.113" stroke="rgb(33,33,33)" fill="none" stroke-linecap="round"></path><path d="M 218.000,357.000 C 215.500,357.000 215.500,357.000 213.000,357.000" stroke-width="12.494" stroke="rgb(33,33,33)" fill="none" stroke-linecap="round"></path><path d="M 213.000,357.000 C 212.000,357.000 212.000,357.000 211.000,357.000" stroke-width="13.140" stroke="rgb(33,33,33)" fill="none" stroke-linecap="round"></path><path d="M 211.000,357.000 C 209.500,357.000 209.500,357.000 208.000,357.000" stroke-width="13.565" stroke="rgb(33,33,33)" fill="none" stroke-linecap="round"></path><path d="M 208.000,357.000 C 207.500,357.000 207.414,356.793 207.000,357.000" stroke-width="14.337" stroke="rgb(33,33,33)" fill="none" stroke-linecap="round"></path></svg>