<svg xmlns="http://www.w3.org/2000/svg" xmlns:xlink="http://www.w3.org/1999/xlink" viewBox="0 0 375 500"><path d="M 45.000,213.000 C 48.500,210.500 48.707,210.744 52.000,208.000" stroke-width="19.636" stroke="rgb(33,33,33)" fill="none" stroke-linecap="round"></path><path d="M 52.000,208.000 C 54.707,205.744 54.500,205.500 57.000,203.000" stroke-width="18.418" stroke="rgb(33,33,33)" fill="none" stroke-linecap="round"></path><path d="M 57.000,203.000 C 59.000,201.000 58.889,200.876 61.000,199.000" stroke-width="17.604" stroke="rgb(33,33,33)" fill="none" stroke-linecap="round"></path><path d="M 61.000,199.000 C 63.389,196.876 63.522,197.027 66.000,195.000" stroke-width="16.938" stroke="rgb(33,33,33)" fill="none" stroke-linecap="round"></path><path d="M 66.000,195.000 C 69.022,192.527 68.880,192.340 72.000,190.000" stroke-width="16.064" stroke="rgb(33,33,33)" fill="none" stroke-linecap="round"></path><path d="M 72.000,190.000 C 74.880,187.840 75.087,188.119 78.000,186.000" stroke-width="15.594" stroke="rgb(33,33,33)" fill="none" stroke-linecap="round"></path><path d="M 78.000,186.000 C 80.587,184.119 80.284,183.630 83.000,182.000" stroke-width="15.408" stroke="rgb(33,33,33)" fill="none" stroke-linecap="round"></path><path d="M 83.000,182.000 C 85.284,180.630 85.604,181.198 88.000,180.000" stroke-width="15.356" stroke="rgb(33,33,33)" fill="none" stroke-linecap="round"></path><path d="M 88.000,180.000 C 89.604,179.198 89.392,178.643 91.000,178.000" stroke-width="15.637" stroke="rgb(33,33,33)" fill="none" stroke-linecap="round"></path><path d="M 91.000,178.000 C 91.892,177.643 92.000,178.000 93.000,178.000" stroke-width="16.037" stroke="rgb(33,33,33)" fill="none" stroke-linecap="round"></path><path d="M 93.000,178.000 C 94.000,178.000 94.121,177.707 95.000,178.000" stroke-width="16.414" stroke="rgb(33,33,33)" fill="none" stroke-linecap="round"></path><path d="M 95.000,178.000 C 95.621,178.207 95.783,178.349 96.000,179.000" stroke-width="16.825" stroke="rgb(33,33,33)" fill="none" stroke-linecap="round"></path><path d="M 96.000,179.000 C 96.783,181.349 96.640,181.478 97.000,184.000" stroke-width="16.509" stroke="rgb(33,33,33)" fill="none" stroke-linecap="round"></path><path d="M 97.000,184.000 C 97.640,188.478 97.402,188.514 98.000,193.000" stroke-width="15.724" stroke="rgb(33,33,33)" fill="none" stroke-linecap="round"></path><path d="M 98.000,193.000 C 98.402,196.014 98.570,195.990 99.000,199.000" stroke-width="15.555" stroke="rgb(33,33,33)" fill="none" stroke-linecap="round"></path><path d="M 99.000,199.000 C 99.570,202.990 98.972,203.143 100.000,207.000" stroke-width="15.154" stroke="rgb(33,33,33)" fill="none" stroke-linecap="round"></path><path d="M 100.000,207.000 C 100.972,210.643 101.634,210.449 103.000,214.000" stroke-width="14.905" stroke="rgb(33,33,33)" fill="none" stroke-linecap="round"></path><path d="M 103.000,214.000 C 104.134,216.949 103.699,217.138 105.000,220.000" stroke-width="14.825" stroke="rgb(33,33,33)" fill="none" stroke-linecap="round"></path><path d="M 105.000,220.000 C 106.199,222.638 106.933,222.333 108.000,225.000" stroke-width="14.875" stroke="rgb(33,33,33)" fill="none" stroke-linecap="round"></path><path d="M 108.000,225.000 C 108.933,227.333 108.383,227.531 109.000,230.000" stroke-width="15.010" stroke="rgb(33,33,33)" fill="none" stroke-linecap="round"></path><path d="M 109.000,230.000 C 109.383,231.531 109.743,231.460 110.000,233.000" stroke-width="15.382" stroke="rgb(33,33,33)" fill="none" stroke-linecap="round"></path><path d="M 110.000,233.000 C 110.243,234.460 110.000,234.500 110.000,236.000" stroke-width="15.716" stroke="rgb(33,33,33)" fill="none" stroke-linecap="round"></path><path d="M 110.000,236.000 C 110.000,237.500 110.243,237.540 110.000,239.000" stroke-width="15.967" stroke="rgb(33,33,33)" fill="none" stroke-linecap="round"></path><path d="M 110.000,239.000 C 109.743,240.540 109.826,240.678 109.000,242.000" stroke-width="16.113" stroke="rgb(33,33,33)" fill="none" stroke-linecap="round"></path><path d="M 109.000,242.000 C 107.326,244.678 107.124,244.611 105.000,247.000" stroke-width="15.811" stroke="rgb(33,33,33)" fill="none" stroke-linecap="round"></path><path d="M 105.000,247.000 C 103.124,249.111 102.858,248.877 101.000,251.000" stroke-width="15.684" stroke="rgb(33,33,33)" fill="none" stroke-linecap="round"></path><path d="M 101.000,251.000 C 99.358,252.877 99.750,253.250 98.000,255.000" stroke-width="15.676" stroke="rgb(33,33,33)" fill="none" stroke-linecap="round"></path><path d="M 98.000,255.000 C 96.250,256.750 96.034,256.547 94.000,258.000" stroke-width="15.626" stroke="rgb(33,33,33)" fill="none" stroke-linecap="round"></path><path d="M 94.000,258.000 C 92.534,259.047 92.562,259.107 91.000,260.000" stroke-width="15.831" stroke="rgb(33,33,33)" fill="none" stroke-linecap="round"></path><path d="M 91.000,260.000 C 89.062,261.107 89.103,261.299 87.000,262.000" stroke-width="15.871" stroke="rgb(33,33,33)" fill="none" stroke-linecap="round"></path><path d="M 87.000,262.000 C 84.603,262.799 84.500,262.500 82.000,263.000" stroke-width="15.811" stroke="rgb(33,33,33)" fill="none" stroke-linecap="round"></path><path d="M 82.000,263.000 C 79.500,263.500 79.525,263.748 77.000,264.000" stroke-width="15.764" stroke="rgb(33,33,33)" fill="none" stroke-linecap="round"></path><path d="M 77.000,264.000 C 74.525,264.248 74.500,264.000 72.000,264.000" stroke-width="15.696" stroke="rgb(33,33,33)" fill="none" stroke-linecap="round"></path><path d="M 72.000,264.000 C 70.000,264.000 70.000,264.000 68.000,264.000" stroke-width="15.794" stroke="rgb(33,33,33)" fill="none" stroke-linecap="round"></path><path d="M 68.000,264.000 C 67.000,264.000 67.000,264.000 66.000,264.000" stroke-width="16.210" stroke="rgb(33,33,33)" fill="none" stroke-linecap="round"></path><path d="M 66.000,264.000 C 65.000,264.000 64.667,264.333 64.000,264.000" stroke-width="16.559" stroke="rgb(33,33,33)" fill="none" stroke-linecap="round"></path><path d="M 64.000,264.000 C 63.667,263.833 64.000,263.500 64.000,263.000" stroke-width="17.015" stroke="rgb(33,33,33)" fill="none" stroke-linecap="round"></path><path d="M 64.000,263.000 C 64.000,262.500 64.000,262.500 64.000,262.000" stroke-width="17.388" stroke="rgb(33,33,33)" fill="none" stroke-linecap="round"></path><path d="M 64.000,262.000 C 64.000,260.500 63.379,260.243 64.000,259.000" stroke-width="17.353" stroke="rgb(33,33,33)" fill="none" stroke-linecap="round"></path><path d="M 64.000,259.000 C 64.879,257.243 65.315,257.263 67.000,256.000" stroke-width="17.151" stroke="rgb(33,33,33)" fill="none" stroke-linecap="round"></path><path d="M 67.000,256.000 C 69.315,254.263 69.401,254.300 72.000,253.000" stroke-width="16.692" stroke="rgb(33,33,33)" fill="none" stroke-linecap="round"></path><path d="M 72.000,253.000 C 74.401,251.800 74.500,252.000 77.000,251.000" stroke-width="16.300" stroke="rgb(33,33,33)" fill="none" stroke-linecap="round"></path><path d="M 77.000,251.000 C 79.500,250.000 79.500,250.000 82.000,249.000" stroke-width="16.152" stroke="rgb(33,33,33)" fill="none" stroke-linecap="round"></path><path d="M 82.000,249.000 C 84.500,248.000 84.500,248.000 87.000,247.000" stroke-width="15.885" stroke="rgb(33,33,33)" fill="none" stroke-linecap="round"></path><path d="M 87.000,247.000 C 89.500,246.000 89.542,246.093 92.000,245.000" stroke-width="15.825" stroke="rgb(33,33,33)" fill="none" stroke-linecap="round"></path><path d="M 92.000,245.000 C 94.042,244.093 93.950,243.879 96.000,243.000" stroke-width="15.866" stroke="rgb(33,33,33)" fill="none" stroke-linecap="round"></path><path d="M 96.000,243.000 C 97.450,242.379 97.550,242.621 99.000,242.000" stroke-width="16.064" stroke="rgb(33,33,33)" fill="none" stroke-linecap="round"></path><path d="M 171.000,167.000 C 163.000,172.000 162.356,171.243 155.000,177.000" stroke-width="19.399" stroke="rgb(33,33,33)" fill="none" stroke-linecap="round"></path><path d="M 155.000,177.000 C 150.856,180.243 151.402,180.918 148.000,185.000" stroke-width="17.338" stroke="rgb(33,33,33)" fill="none" stroke-linecap="round"></path><path d="M 148.000,185.000 C 143.902,189.918 143.968,189.974 140.000,195.000" stroke-width="15.862" stroke="rgb(33,33,33)" fill="none" stroke-linecap="round"></path><path d="M 140.000,195.000 C 136.468,199.474 136.222,199.314 133.000,204.000" stroke-width="14.848" stroke="rgb(33,33,33)" fill="none" stroke-linecap="round"></path><path d="M 133.000,204.000 C 130.722,207.314 130.910,207.452 129.000,211.000" stroke-width="14.549" stroke="rgb(33,33,33)" fill="none" stroke-linecap="round"></path><path d="M 129.000,211.000 C 127.410,213.952 127.287,213.912 126.000,217.000" stroke-width="14.589" stroke="rgb(33,33,33)" fill="none" stroke-linecap="round"></path><path d="M 126.000,217.000 C 124.787,219.912 124.513,219.921 124.000,223.000" stroke-width="14.519" stroke="rgb(33,33,33)" fill="none" stroke-linecap="round"></path><path d="M 124.000,223.000 C 123.513,225.921 124.000,226.000 124.000,229.000" stroke-width="14.606" stroke="rgb(33,33,33)" fill="none" stroke-linecap="round"></path><path d="M 124.000,229.000 C 124.000,232.500 122.610,233.022 124.000,236.000" stroke-width="14.553" stroke="rgb(33,33,33)" fill="none" stroke-linecap="round"></path><path d="M 124.000,236.000 C 126.110,240.522 127.251,240.251 131.000,244.000" stroke-width="14.004" stroke="rgb(33,33,33)" fill="none" stroke-linecap="round"></path><path d="M 131.000,244.000 C 134.251,247.251 134.080,247.694 138.000,250.000" stroke-width="13.820" stroke="rgb(33,33,33)" fill="none" stroke-linecap="round"></path><path d="M 138.000,250.000 C 142.580,252.694 142.825,252.910 148.000,254.000" stroke-width="13.509" stroke="rgb(33,33,33)" fill="none" stroke-linecap="round"></path><path d="M 148.000,254.000 C 152.325,254.910 152.500,254.000 157.000,254.000" stroke-width="13.455" stroke="rgb(33,33,33)" fill="none" stroke-linecap="round"></path><path d="M 157.000,254.000 C 161.500,254.000 161.850,255.221 166.000,254.000" stroke-width="13.353" stroke="rgb(33,33,33)" fill="none" stroke-linecap="round"></path><path d="M 166.000,254.000 C 170.350,252.721 170.474,252.056 174.000,249.000" stroke-width="13.286" stroke="rgb(33,33,33)" fill="none" stroke-linecap="round"></path><path d="M 174.000,249.000 C 177.974,245.556 177.723,245.171 181.000,241.000" stroke-width="13.112" stroke="rgb(33,33,33)" fill="none" stroke-linecap="round"></path><path d="M 181.000,241.000 C 183.223,238.171 183.298,238.161 185.000,235.000" stroke-width="13.273" stroke="rgb(33,33,33)" fill="none" stroke-linecap="round"></path><path d="M 185.000,235.000 C 186.798,231.661 187.094,231.622 188.000,228.000" stroke-width="13.454" stroke="rgb(33,33,33)" fill="none" stroke-linecap="round"></path><path d="M 188.000,228.000 C 188.594,225.622 188.000,225.500 188.000,223.000" stroke-width="13.807" stroke="rgb(33,33,33)" fill="none" stroke-linecap="round"></path><path d="M 188.000,223.000 C 188.000,221.500 188.842,220.842 188.000,220.000" stroke-width="14.353" stroke="rgb(33,33,33)" fill="none" stroke-linecap="round"></path><path d="M 188.000,220.000 C 186.842,218.842 186.042,219.157 184.000,219.000" stroke-width="14.733" stroke="rgb(33,33,33)" fill="none" stroke-linecap="round"></path><path d="M 184.000,219.000 C 179.542,218.657 179.484,218.736 175.000,219.000" stroke-width="14.265" stroke="rgb(33,33,33)" fill="none" stroke-linecap="round"></path><path d="M 175.000,219.000 C 170.984,219.236 170.905,219.081 167.000,220.000" stroke-width="14.156" stroke="rgb(33,33,33)" fill="none" stroke-linecap="round"></path><path d="M 167.000,220.000 C 162.405,221.081 162.179,220.910 158.000,223.000" stroke-width="13.908" stroke="rgb(33,33,33)" fill="none" stroke-linecap="round"></path><path d="M 158.000,223.000 C 155.179,224.410 155.478,224.973 153.000,227.000" stroke-width="14.015" stroke="rgb(33,33,33)" fill="none" stroke-linecap="round"></path><path d="M 153.000,227.000 C 149.978,229.473 149.576,229.137 147.000,232.000" stroke-width="13.987" stroke="rgb(33,33,33)" fill="none" stroke-linecap="round"></path><path d="M 147.000,232.000 C 145.076,234.137 145.172,234.364 144.000,237.000" stroke-width="14.192" stroke="rgb(33,33,33)" fill="none" stroke-linecap="round"></path><path d="M 144.000,237.000 C 143.172,238.864 143.289,238.974 143.000,241.000" stroke-width="14.569" stroke="rgb(33,33,33)" fill="none" stroke-linecap="round"></path><path d="M 143.000,241.000 C 142.789,242.474 143.000,242.500 143.000,244.000" stroke-width="15.006" stroke="rgb(33,33,33)" fill="none" stroke-linecap="round"></path><path d="M 143.000,244.000 C 143.000,245.000 142.258,245.629 143.000,246.000" stroke-width="15.540" stroke="rgb(33,33,33)" fill="none" stroke-linecap="round"></path><path d="M 143.000,246.000 C 145.258,247.129 145.979,246.748 149.000,247.000" stroke-width="15.410" stroke="rgb(33,33,33)" fill="none" stroke-linecap="round"></path><path d="M 149.000,247.000 C 151.979,247.248 152.000,247.000 155.000,247.000" stroke-width="15.269" stroke="rgb(33,33,33)" fill="none" stroke-linecap="round"></path><path d="M 155.000,247.000 C 159.500,247.000 159.703,247.955 164.000,247.000" stroke-width="14.815" stroke="rgb(33,33,33)" fill="none" stroke-linecap="round"></path><path d="M 164.000,247.000 C 168.703,245.955 168.758,245.456 173.000,243.000" stroke-width="14.368" stroke="rgb(33,33,33)" fill="none" stroke-linecap="round"></path><path d="M 173.000,243.000 C 178.258,239.956 178.281,239.834 183.000,236.000" stroke-width="13.682" stroke="rgb(33,33,33)" fill="none" stroke-linecap="round"></path><path d="M 183.000,236.000 C 186.281,233.334 185.865,232.850 189.000,230.000" stroke-width="13.698" stroke="rgb(33,33,33)" fill="none" stroke-linecap="round"></path><path d="M 189.000,230.000 C 191.365,227.850 191.761,228.239 194.000,226.000" stroke-width="13.844" stroke="rgb(33,33,33)" fill="none" stroke-linecap="round"></path><path d="M 194.000,226.000 C 195.261,224.739 195.201,224.598 196.000,223.000" stroke-width="14.335" stroke="rgb(33,33,33)" fill="none" stroke-linecap="round"></path><path d="M 196.000,223.000 C 196.701,221.598 196.620,221.519 197.000,220.000" stroke-width="14.811" stroke="rgb(33,33,33)" fill="none" stroke-linecap="round"></path><path d="M 197.000,220.000 C 197.120,219.519 197.250,219.250 197.000,219.000" stroke-width="15.502" stroke="rgb(33,33,33)" fill="none" stroke-linecap="round"></path><path d="M 197.000,219.000 C 196.750,218.750 196.250,218.750 196.000,219.000" stroke-width="16.225" stroke="rgb(33,33,33)" fill="none" stroke-linecap="round"></path><path d="M 196.000,219.000 C 195.750,219.250 196.000,219.500 196.000,220.000" stroke-width="16.732" stroke="rgb(33,33,33)" fill="none" stroke-linecap="round"></path><path d="M 196.000,220.000 C 196.000,220.500 196.000,220.500 196.000,221.000" stroke-width="17.171" stroke="rgb(33,33,33)" fill="none" stroke-linecap="round"></path><path d="M 196.000,221.000 C 196.000,221.500 195.667,221.833 196.000,222.000" stroke-width="17.518" stroke="rgb(33,33,33)" fill="none" stroke-linecap="round"></path><path d="M 196.000,222.000 C 196.667,222.333 197.020,222.163 198.000,222.000" stroke-width="17.613" stroke="rgb(33,33,33)" fill="none" stroke-linecap="round"></path><path d="M 198.000,222.000 C 200.020,221.663 200.445,222.209 202.000,221.000" stroke-width="17.333" stroke="rgb(33,33,33)" fill="none" stroke-linecap="round"></path><path d="M 202.000,221.000 C 204.945,218.709 204.660,218.120 207.000,215.000" stroke-width="16.510" stroke="rgb(33,33,33)" fill="none" stroke-linecap="round"></path><path d="M 207.000,215.000 C 209.160,212.120 209.187,212.108 211.000,209.000" stroke-width="15.994" stroke="rgb(33,33,33)" fill="none" stroke-linecap="round"></path><path d="M 211.000,209.000 C 212.687,206.108 212.713,206.088 214.000,203.000" stroke-width="15.676" stroke="rgb(33,33,33)" fill="none" stroke-linecap="round"></path><path d="M 214.000,203.000 C 215.213,200.088 215.235,200.058 216.000,197.000" stroke-width="15.429" stroke="rgb(33,33,33)" fill="none" stroke-linecap="round"></path><path d="M 216.000,197.000 C 216.735,194.058 216.726,194.019 217.000,191.000" stroke-width="15.271" stroke="rgb(33,33,33)" fill="none" stroke-linecap="round"></path><path d="M 217.000,191.000 C 217.226,188.519 217.000,188.500 217.000,186.000" stroke-width="15.345" stroke="rgb(33,33,33)" fill="none" stroke-linecap="round"></path><path d="M 217.000,186.000 C 217.000,185.000 217.653,184.490 217.000,184.000" stroke-width="15.812" stroke="rgb(33,33,33)" fill="none" stroke-linecap="round"></path><path d="M 217.000,184.000 C 215.653,182.990 215.030,183.254 213.000,183.000" stroke-width="15.940" stroke="rgb(33,33,33)" fill="none" stroke-linecap="round"></path><path d="M 213.000,183.000 C 211.030,182.754 210.984,182.802 209.000,183.000" stroke-width="16.029" stroke="rgb(33,33,33)" fill="none" stroke-linecap="round"></path><path d="M 209.000,183.000 C 205.984,183.302 205.288,182.399 203.000,184.000" stroke-width="15.676" stroke="rgb(33,33,33)" fill="none" stroke-linecap="round"></path><path d="M 203.000,184.000 C 200.288,185.899 200.813,186.892 199.000,190.000" stroke-width="15.361" stroke="rgb(33,33,33)" fill="none" stroke-linecap="round"></path><path d="M 199.000,190.000 C 197.313,192.892 197.287,192.912 196.000,196.000" stroke-width="15.185" stroke="rgb(33,33,33)" fill="none" stroke-linecap="round"></path><path d="M 196.000,196.000 C 194.787,198.912 194.708,198.931 194.000,202.000" stroke-width="14.987" stroke="rgb(33,33,33)" fill="none" stroke-linecap="round"></path><path d="M 194.000,202.000 C 193.208,205.431 193.207,205.479 193.000,209.000" stroke-width="14.895" stroke="rgb(33,33,33)" fill="none" stroke-linecap="round"></path><path d="M 193.000,209.000 C 192.707,213.979 192.421,214.081 193.000,219.000" stroke-width="14.335" stroke="rgb(33,33,33)" fill="none" stroke-linecap="round"></path><path d="M 193.000,219.000 C 193.421,222.581 192.937,223.250 195.000,226.000" stroke-width="14.304" stroke="rgb(33,33,33)" fill="none" stroke-linecap="round"></path><path d="M 195.000,226.000 C 197.437,229.250 198.226,229.002 202.000,231.000" stroke-width="14.123" stroke="rgb(33,33,33)" fill="none" stroke-linecap="round"></path><path d="M 202.000,231.000 C 206.726,233.502 206.805,234.011 212.000,235.000" stroke-width="13.741" stroke="rgb(33,33,33)" fill="none" stroke-linecap="round"></path><path d="M 212.000,235.000 C 217.305,236.011 217.613,235.770 223.000,235.000" stroke-width="13.353" stroke="rgb(33,33,33)" fill="none" stroke-linecap="round"></path><path d="M 223.000,235.000 C 228.113,234.270 228.821,234.786 233.000,232.000" stroke-width="13.183" stroke="rgb(33,33,33)" fill="none" stroke-linecap="round"></path><path d="M 233.000,232.000 C 237.821,228.786 237.756,227.991 241.000,223.000" stroke-width="12.822" stroke="rgb(33,33,33)" fill="none" stroke-linecap="round"></path><path d="M 241.000,223.000 C 244.256,217.991 244.433,217.747 246.000,212.000" stroke-width="12.612" stroke="rgb(33,33,33)" fill="none" stroke-linecap="round"></path><path d="M 246.000,212.000 C 247.433,206.747 246.710,206.510 247.000,201.000" stroke-width="12.543" stroke="rgb(33,33,33)" fill="none" stroke-linecap="round"></path><path d="M 247.000,201.000 C 247.210,197.010 247.000,197.000 247.000,193.000" stroke-width="12.771" stroke="rgb(33,33,33)" fill="none" stroke-linecap="round"></path><path d="M 247.000,193.000 C 247.000,189.500 247.818,189.273 247.000,186.000" stroke-width="13.014" stroke="rgb(33,33,33)" fill="none" stroke-linecap="round"></path><path d="M 247.000,186.000 C 246.318,183.273 245.683,183.357 244.000,181.000" stroke-width="13.380" stroke="rgb(33,33,33)" fill="none" stroke-linecap="round"></path><path d="M 244.000,181.000 C 243.183,179.857 243.000,180.000 242.000,179.000" stroke-width="14.023" stroke="rgb(33,33,33)" fill="none" stroke-linecap="round"></path><path d="M 242.000,179.000 C 241.500,178.500 241.586,178.293 241.000,178.000" stroke-width="14.750" stroke="rgb(33,33,33)" fill="none" stroke-linecap="round"></path><path d="M 241.000,178.000 C 240.586,177.793 240.250,177.750 240.000,178.000" stroke-width="15.465" stroke="rgb(33,33,33)" fill="none" stroke-linecap="round"></path><path d="M 240.000,178.000 C 239.750,178.250 240.000,178.500 240.000,179.000" stroke-width="16.151" stroke="rgb(33,33,33)" fill="none" stroke-linecap="round"></path><path d="M 240.000,179.000 C 240.000,181.000 239.574,181.082 240.000,183.000" stroke-width="16.233" stroke="rgb(33,33,33)" fill="none" stroke-linecap="round"></path><path d="M 240.000,183.000 C 240.574,185.582 240.887,185.551 242.000,188.000" stroke-width="16.004" stroke="rgb(33,33,33)" fill="none" stroke-linecap="round"></path><path d="M 242.000,188.000 C 243.387,191.051 243.613,190.949 245.000,194.000" stroke-width="15.684" stroke="rgb(33,33,33)" fill="none" stroke-linecap="round"></path><path d="M 245.000,194.000 C 246.113,196.449 246.296,196.417 247.000,199.000" stroke-width="15.622" stroke="rgb(33,33,33)" fill="none" stroke-linecap="round"></path><path d="M 247.000,199.000 C 247.796,201.917 247.500,202.000 248.000,205.000" stroke-width="15.363" stroke="rgb(33,33,33)" fill="none" stroke-linecap="round"></path><path d="M 248.000,205.000 C 248.500,208.000 248.456,208.008 249.000,211.000" stroke-width="15.317" stroke="rgb(33,33,33)" fill="none" stroke-linecap="round"></path><path d="M 249.000,211.000 C 249.456,213.508 249.447,213.512 250.000,216.000" stroke-width="15.325" stroke="rgb(33,33,33)" fill="none" stroke-linecap="round"></path><path d="M 250.000,216.000 C 250.447,218.012 250.352,218.055 251.000,220.000" stroke-width="15.474" stroke="rgb(33,33,33)" fill="none" stroke-linecap="round"></path><path d="M 290.000,154.000 C 290.500,151.500 290.770,151.527 291.000,149.000" stroke-width="20.041" stroke="rgb(33,33,33)" fill="none" stroke-linecap="round"></path><path d="M 291.000,149.000 C 291.270,146.027 291.000,146.000 291.000,143.000" stroke-width="18.769" stroke="rgb(33,33,33)" fill="none" stroke-linecap="round"></path><path d="M 291.000,143.000 C 291.000,140.000 291.199,139.989 291.000,137.000" stroke-width="17.862" stroke="rgb(33,33,33)" fill="none" stroke-linecap="round"></path><path d="M 291.000,137.000 C 290.699,132.489 290.941,132.390 290.000,128.000" stroke-width="16.769" stroke="rgb(33,33,33)" fill="none" stroke-linecap="round"></path><path d="M 290.000,128.000 C 289.441,125.390 289.113,125.449 288.000,123.000" stroke-width="16.359" stroke="rgb(33,33,33)" fill="none" stroke-linecap="round"></path><path d="M 288.000,123.000 C 286.613,119.949 286.899,119.713 285.000,117.000" stroke-width="16.010" stroke="rgb(33,33,33)" fill="none" stroke-linecap="round"></path><path d="M 285.000,117.000 C 283.399,114.713 283.000,115.000 281.000,113.000" stroke-width="15.789" stroke="rgb(33,33,33)" fill="none" stroke-linecap="round"></path><path d="M 281.000,113.000 C 280.000,112.000 280.172,111.586 279.000,111.000" stroke-width="16.080" stroke="rgb(33,33,33)" fill="none" stroke-linecap="round"></path><path d="M 279.000,111.000 C 278.172,110.586 278.000,111.000 277.000,111.000" stroke-width="16.430" stroke="rgb(33,33,33)" fill="none" stroke-linecap="round"></path><path d="M 277.000,111.000 C 275.500,111.000 275.019,110.151 274.000,111.000" stroke-width="16.581" stroke="rgb(33,33,33)" fill="none" stroke-linecap="round"></path><path d="M 274.000,111.000 C 272.019,112.651 272.217,113.363 271.000,116.000" stroke-width="16.257" stroke="rgb(33,33,33)" fill="none" stroke-linecap="round"></path><path d="M 271.000,116.000 C 269.217,119.863 269.202,119.912 268.000,124.000" stroke-width="15.538" stroke="rgb(33,33,33)" fill="none" stroke-linecap="round"></path><path d="M 268.000,124.000 C 266.702,128.412 266.480,128.443 266.000,133.000" stroke-width="14.988" stroke="rgb(33,33,33)" fill="none" stroke-linecap="round"></path><path d="M 266.000,133.000 C 265.480,137.943 266.000,138.000 266.000,143.000" stroke-width="14.319" stroke="rgb(33,33,33)" fill="none" stroke-linecap="round"></path><path d="M 266.000,143.000 C 266.000,149.000 265.778,149.007 266.000,155.000" stroke-width="13.752" stroke="rgb(33,33,33)" fill="none" stroke-linecap="round"></path><path d="M 266.000,155.000 C 266.278,162.507 265.976,162.573 267.000,170.000" stroke-width="13.023" stroke="rgb(33,33,33)" fill="none" stroke-linecap="round"></path><path d="M 267.000,170.000 C 267.976,177.073 268.390,177.025 270.000,184.000" stroke-width="12.559" stroke="rgb(33,33,33)" fill="none" stroke-linecap="round"></path><path d="M 270.000,184.000 C 271.390,190.025 271.302,190.058 273.000,196.000" stroke-width="12.444" stroke="rgb(33,33,33)" fill="none" stroke-linecap="round"></path><path d="M 273.000,196.000 C 274.302,200.558 274.188,200.652 276.000,205.000" stroke-width="12.436" stroke="rgb(33,33,33)" fill="none" stroke-linecap="round"></path><path d="M 276.000,205.000 C 276.688,206.652 276.668,206.935 278.000,208.000" stroke-width="13.126" stroke="rgb(33,33,33)" fill="none" stroke-linecap="round"></path><path d="M 278.000,208.000 C 279.168,208.935 279.455,208.779 281.000,209.000" stroke-width="13.741" stroke="rgb(33,33,33)" fill="none" stroke-linecap="round"></path><path d="M 325.000,149.000 C 322.000,150.000 321.562,149.292 319.000,151.000" stroke-width="19.311" stroke="rgb(33,33,33)" fill="none" stroke-linecap="round"></path><path d="M 319.000,151.000 C 315.562,153.292 315.790,153.812 313.000,157.000" stroke-width="17.783" stroke="rgb(33,33,33)" fill="none" stroke-linecap="round"></path><path d="M 313.000,157.000 C 308.790,161.812 308.650,161.754 305.000,167.000" stroke-width="16.050" stroke="rgb(33,33,33)" fill="none" stroke-linecap="round"></path><path d="M 305.000,167.000 C 300.650,173.254 300.752,173.362 297.000,180.000" stroke-width="14.685" stroke="rgb(33,33,33)" fill="none" stroke-linecap="round"></path><path d="M 297.000,180.000 C 294.252,184.862 294.267,184.899 292.000,190.000" stroke-width="13.944" stroke="rgb(33,33,33)" fill="none" stroke-linecap="round"></path><path d="M 292.000,190.000 C 290.267,193.899 289.946,193.900 289.000,198.000" stroke-width="13.848" stroke="rgb(33,33,33)" fill="none" stroke-linecap="round"></path><path d="M 289.000,198.000 C 288.446,200.400 289.000,200.500 289.000,203.000" stroke-width="14.174" stroke="rgb(33,33,33)" fill="none" stroke-linecap="round"></path><path d="M 289.000,203.000 C 289.000,203.500 288.830,204.382 289.000,204.000" stroke-width="14.948" stroke="rgb(33,33,33)" fill="none" stroke-linecap="round"></path><path d="M 289.000,204.000 C 290.830,199.882 291.083,199.032 293.000,194.000" stroke-width="14.964" stroke="rgb(33,33,33)" fill="none" stroke-linecap="round"></path><path d="M 293.000,194.000 C 295.083,188.532 295.298,188.591 297.000,183.000" stroke-width="14.335" stroke="rgb(33,33,33)" fill="none" stroke-linecap="round"></path><path d="M 297.000,183.000 C 298.798,177.091 298.740,177.050 300.000,171.000" stroke-width="13.639" stroke="rgb(33,33,33)" fill="none" stroke-linecap="round"></path><path d="M 300.000,171.000 C 301.240,165.050 301.051,165.008 302.000,159.000" stroke-width="13.227" stroke="rgb(33,33,33)" fill="none" stroke-linecap="round"></path><path d="M 302.000,159.000 C 302.551,155.508 302.309,155.455 303.000,152.000" stroke-width="13.429" stroke="rgb(33,33,33)" fill="none" stroke-linecap="round"></path><path d="M 303.000,152.000 C 303.309,150.455 303.694,150.531 304.000,149.000" stroke-width="14.028" stroke="rgb(33,33,33)" fill="none" stroke-linecap="round"></path><path d="M 304.000,149.000 C 304.194,148.031 304.000,146.400 304.000,147.000" stroke-width="14.676" stroke="rgb(33,33,33)" fill="none" stroke-linecap="round"></path><path d="M 304.000,147.000 C 304.000,149.400 304.000,151.000 304.000,155.000" stroke-width="14.974" stroke="rgb(33,33,33)" fill="none" stroke-linecap="round"></path><path d="M 304.000,155.000 C 304.000,161.000 304.000,161.000 304.000,167.000" stroke-width="14.309" stroke="rgb(33,33,33)" fill="none" stroke-linecap="round"></path><path d="M 304.000,167.000 C 304.000,171.000 303.670,171.041 304.000,175.000" stroke-width="14.198" stroke="rgb(33,33,33)" fill="none" stroke-linecap="round"></path><path d="M 304.000,175.000 C 304.170,177.041 304.110,177.221 305.000,179.000" stroke-width="14.541" stroke="rgb(33,33,33)" fill="none" stroke-linecap="round"></path><path d="M 305.000,179.000 C 305.610,180.221 305.787,180.515 307.000,181.000" stroke-width="15.030" stroke="rgb(33,33,33)" fill="none" stroke-linecap="round"></path><path d="M 307.000,181.000 C 308.287,181.515 309.152,181.989 310.000,181.000" stroke-width="15.395" stroke="rgb(33,33,33)" fill="none" stroke-linecap="round"></path><path d="M 310.000,181.000 C 312.152,178.489 311.390,177.449 313.000,174.000" stroke-width="15.091" stroke="rgb(33,33,33)" fill="none" stroke-linecap="round"></path><path d="M 313.000,174.000 C 314.890,169.949 315.346,170.135 317.000,166.000" stroke-width="14.618" stroke="rgb(33,33,33)" fill="none" stroke-linecap="round"></path><path d="M 317.000,166.000 C 318.346,162.635 317.930,162.478 319.000,159.000" stroke-width="14.528" stroke="rgb(33,33,33)" fill="none" stroke-linecap="round"></path><path d="M 319.000,159.000 C 319.930,155.978 320.000,156.000 321.000,153.000" stroke-width="14.617" stroke="rgb(33,33,33)" fill="none" stroke-linecap="round"></path><path d="M 321.000,153.000 C 321.500,151.500 321.081,150.919 322.000,150.000" stroke-width="15.130" stroke="rgb(33,33,33)" fill="none" stroke-linecap="round"></path><path d="M 322.000,150.000 C 322.581,149.419 323.500,149.500 324.000,150.000" stroke-width="15.397" stroke="rgb(33,33,33)" fill="none" stroke-linecap="round"></path><path d="M 324.000,150.000 C 324.500,150.500 323.901,151.006 324.000,152.000" stroke-width="15.890" stroke="rgb(33,33,33)" fill="none" stroke-linecap="round"></path><path d="M 324.000,152.000 C 324.401,156.006 324.430,156.010 325.000,160.000" stroke-width="15.338" stroke="rgb(33,33,33)" fill="none" stroke-linecap="round"></path><path d="M 325.000,160.000 C 325.430,163.010 325.204,163.083 326.000,166.000" stroke-width="15.251" stroke="rgb(33,33,33)" fill="none" stroke-linecap="round"></path><path d="M 326.000,166.000 C 326.704,168.583 326.503,168.904 328.000,171.000" stroke-width="15.276" stroke="rgb(33,33,33)" fill="none" stroke-linecap="round"></path><path d="M 328.000,171.000 C 329.003,172.404 329.402,172.201 331.000,173.000" stroke-width="15.542" stroke="rgb(33,33,33)" fill="none" stroke-linecap="round"></path><path d="M 331.000,173.000 C 332.402,173.701 332.469,173.694 334.000,174.000" stroke-width="15.798" stroke="rgb(33,33,33)" fill="none" stroke-linecap="round"></path><path d="M 334.000,174.000 C 334.969,174.194 335.000,174.000 336.000,174.000" stroke-width="16.213" stroke="rgb(33,33,33)" fill="none" stroke-linecap="round"></path><path d="M 336.000,174.000 C 336.500,174.000 336.691,174.309 337.000,174.000" stroke-width="16.722" stroke="rgb(33,33,33)" fill="none" stroke-linecap="round"></path><path d="M 337.000,174.000 C 337.691,173.309 337.655,173.036 338.000,172.000" stroke-width="16.945" stroke="rgb(33,33,33)" fill="none" stroke-linecap="round"></path><path d="M 338.000,172.000 C 338.155,171.536 338.000,171.500 338.000,171.000" stroke-width="17.340" stroke="rgb(33,33,33)" fill="none" stroke-linecap="round"></path><path d="M 338.000,171.000 C 338.000,170.000 338.293,169.879 338.000,169.000" stroke-width="17.468" stroke="rgb(33,33,33)" fill="none" stroke-linecap="round"></path><path d="M 221.000,269.000 C 217.500,270.000 217.136,269.311 214.000,271.000" stroke-width="17.676" stroke="rgb(33,33,33)" fill="none" stroke-linecap="round"></path><path d="M 214.000,271.000 C 210.636,272.811 210.373,272.980 208.000,276.000" stroke-width="14.708" stroke="rgb(33,33,33)" fill="none" stroke-linecap="round"></path><path d="M 208.000,276.000 C 204.873,279.980 204.986,280.283 203.000,285.000" stroke-width="14.159" stroke="rgb(33,33,33)" fill="none" stroke-linecap="round"></path><path d="M 203.000,285.000 C 200.986,289.783 200.698,289.882 200.000,295.000" stroke-width="13.804" stroke="rgb(33,33,33)" fill="none" stroke-linecap="round"></path><path d="M 200.000,295.000 C 199.198,300.882 200.000,301.000 200.000,307.000" stroke-width="13.369" stroke="rgb(33,33,33)" fill="none" stroke-linecap="round"></path><path d="M 200.000,307.000 C 200.000,310.500 199.340,310.700 200.000,314.000" stroke-width="13.553" stroke="rgb(33,33,33)" fill="none" stroke-linecap="round"></path><path d="M 200.000,314.000 C 200.340,315.700 200.511,316.256 202.000,317.000" stroke-width="14.085" stroke="rgb(33,33,33)" fill="none" stroke-linecap="round"></path><path d="M 202.000,317.000 C 204.511,318.256 205.028,318.212 208.000,318.000" stroke-width="14.198" stroke="rgb(33,33,33)" fill="none" stroke-linecap="round"></path><path d="M 208.000,318.000 C 212.028,317.712 212.866,318.350 216.000,316.000" stroke-width="14.082" stroke="rgb(33,33,33)" fill="none" stroke-linecap="round"></path><path d="M 216.000,316.000 C 220.866,312.350 220.407,311.283 224.000,306.000" stroke-width="13.406" stroke="rgb(33,33,33)" fill="none" stroke-linecap="round"></path><path d="M 224.000,306.000 C 228.907,298.783 228.755,298.640 233.000,291.000" stroke-width="12.545" stroke="rgb(33,33,33)" fill="none" stroke-linecap="round"></path><path d="M 233.000,291.000 C 236.255,285.140 236.000,285.000 239.000,279.000" stroke-width="12.279" stroke="rgb(33,33,33)" fill="none" stroke-linecap="round"></path><path d="M 239.000,279.000 C 242.000,273.000 242.364,273.151 245.000,267.000" stroke-width="12.003" stroke="rgb(33,33,33)" fill="none" stroke-linecap="round"></path><path d="M 245.000,267.000 C 246.864,262.651 247.029,262.613 248.000,258.000" stroke-width="12.190" stroke="rgb(33,33,33)" fill="none" stroke-linecap="round"></path><path d="M 248.000,258.000 C 249.029,253.113 248.687,253.009 249.000,248.000" stroke-width="12.293" stroke="rgb(33,33,33)" fill="none" stroke-linecap="round"></path><path d="M 249.000,248.000 C 249.187,245.009 249.000,245.000 249.000,242.000" stroke-width="12.714" stroke="rgb(33,33,33)" fill="none" stroke-linecap="round"></path><path d="M 249.000,242.000 C 249.000,240.500 249.750,239.750 249.000,239.000" stroke-width="13.415" stroke="rgb(33,33,33)" fill="none" stroke-linecap="round"></path><path d="M 249.000,239.000 C 248.250,238.250 247.482,238.815 246.000,239.000" stroke-width="14.034" stroke="rgb(33,33,33)" fill="none" stroke-linecap="round"></path><path d="M 246.000,239.000 C 243.482,239.315 242.604,238.396 241.000,240.000" stroke-width="14.280" stroke="rgb(33,33,33)" fill="none" stroke-linecap="round"></path><path d="M 241.000,240.000 C 238.604,242.396 239.131,243.381 238.000,247.000" stroke-width="14.220" stroke="rgb(33,33,33)" fill="none" stroke-linecap="round"></path><path d="M 238.000,247.000 C 236.631,251.381 236.568,251.453 236.000,256.000" stroke-width="13.988" stroke="rgb(33,33,33)" fill="none" stroke-linecap="round"></path><path d="M 236.000,256.000 C 235.568,259.453 236.000,259.500 236.000,263.000" stroke-width="14.057" stroke="rgb(33,33,33)" fill="none" stroke-linecap="round"></path><path d="M 236.000,263.000 C 236.000,266.500 235.732,266.522 236.000,270.000" stroke-width="14.114" stroke="rgb(33,33,33)" fill="none" stroke-linecap="round"></path><path d="M 236.000,270.000 C 236.232,273.022 235.468,273.702 237.000,276.000" stroke-width="14.222" stroke="rgb(33,33,33)" fill="none" stroke-linecap="round"></path><path d="M 237.000,276.000 C 238.468,278.202 239.238,278.448 242.000,279.000" stroke-width="14.342" stroke="rgb(33,33,33)" fill="none" stroke-linecap="round"></path><path d="M 242.000,279.000 C 246.738,279.948 247.814,281.093 252.000,279.000" stroke-width="13.992" stroke="rgb(33,33,33)" fill="none" stroke-linecap="round"></path><path d="M 252.000,279.000 C 258.814,275.593 258.780,274.169 264.000,268.000" stroke-width="12.970" stroke="rgb(33,33,33)" fill="none" stroke-linecap="round"></path><path d="M 264.000,268.000 C 269.780,261.169 269.398,260.740 274.000,253.000" stroke-width="12.278" stroke="rgb(33,33,33)" fill="none" stroke-linecap="round"></path><path d="M 274.000,253.000 C 280.398,242.240 281.191,242.488 286.000,231.000" stroke-width="11.049" stroke="rgb(33,33,33)" fill="none" stroke-linecap="round"></path><path d="M 286.000,231.000 C 290.191,220.988 289.289,220.573 292.000,210.000" stroke-width="10.530" stroke="rgb(33,33,33)" fill="none" stroke-linecap="round"></path><path d="M 292.000,210.000 C 294.289,201.073 295.015,201.111 296.000,192.000" stroke-width="10.356" stroke="rgb(33,33,33)" fill="none" stroke-linecap="round"></path><path d="M 296.000,192.000 C 297.015,182.611 296.000,182.500 296.000,173.000" stroke-width="10.116" stroke="rgb(33,33,33)" fill="none" stroke-linecap="round"></path><path d="M 296.000,173.000 C 296.000,166.500 296.309,166.481 296.000,160.000" stroke-width="10.361" stroke="rgb(33,33,33)" fill="none" stroke-linecap="round"></path><path d="M 296.000,160.000 C 295.809,155.981 296.310,155.604 295.000,152.000" stroke-width="10.862" stroke="rgb(33,33,33)" fill="none" stroke-linecap="round"></path><path d="M 295.000,152.000 C 294.310,150.104 293.836,149.689 292.000,149.000" stroke-width="11.629" stroke="rgb(33,33,33)" fill="none" stroke-linecap="round"></path><path d="M 292.000,149.000 C 289.836,148.189 289.252,148.134 287.000,149.000" stroke-width="12.231" stroke="rgb(33,33,33)" fill="none" stroke-linecap="round"></path><path d="M 287.000,149.000 C 282.752,150.634 281.288,150.339 279.000,154.000" stroke-width="12.429" stroke="rgb(33,33,33)" fill="none" stroke-linecap="round"></path><path d="M 279.000,154.000 C 276.288,158.339 277.482,159.453 277.000,165.000" stroke-width="12.386" stroke="rgb(33,33,33)" fill="none" stroke-linecap="round"></path><path d="M 277.000,165.000 C 276.482,170.953 276.800,171.006 277.000,177.000" stroke-width="12.214" stroke="rgb(33,33,33)" fill="none" stroke-linecap="round"></path><path d="M 277.000,177.000 C 277.300,186.006 276.490,186.158 278.000,195.000" stroke-width="11.560" stroke="rgb(33,33,33)" fill="none" stroke-linecap="round"></path><path d="M 278.000,195.000 C 279.990,206.658 282.475,206.311 284.000,218.000" stroke-width="10.765" stroke="rgb(33,33,33)" fill="none" stroke-linecap="round"></path><path d="M 284.000,218.000 C 285.475,229.311 284.000,229.500 284.000,241.000" stroke-width="10.251" stroke="rgb(33,33,33)" fill="none" stroke-linecap="round"></path><path d="M 284.000,241.000 C 284.000,253.000 286.491,253.540 284.000,265.000" stroke-width="9.734" stroke="rgb(33,33,33)" fill="none" stroke-linecap="round"></path><path d="M 284.000,265.000 C 281.491,276.540 280.191,276.784 274.000,287.000" stroke-width="9.425" stroke="rgb(33,33,33)" fill="none" stroke-linecap="round"></path><path d="M 274.000,287.000 C 270.191,293.284 269.594,293.205 264.000,298.000" stroke-width="9.621" stroke="rgb(33,33,33)" fill="none" stroke-linecap="round"></path><path d="M 264.000,298.000 C 259.094,302.205 259.004,302.776 253.000,305.000" stroke-width="9.940" stroke="rgb(33,33,33)" fill="none" stroke-linecap="round"></path><path d="M 253.000,305.000 C 245.504,307.776 245.043,306.781 237.000,308.000" stroke-width="10.019" stroke="rgb(33,33,33)" fill="none" stroke-linecap="round"></path><path d="M 237.000,308.000 C 228.543,309.281 228.381,308.370 220.000,310.000" stroke-width="10.033" stroke="rgb(33,33,33)" fill="none" stroke-linecap="round"></path><path d="M 220.000,310.000 C 210.381,311.870 210.500,312.500 201.000,315.000" stroke-width="9.829" stroke="rgb(33,33,33)" fill="none" stroke-linecap="round"></path><path d="M 201.000,315.000 C 191.500,317.500 191.443,317.302 182.000,320.000" stroke-width="9.739" stroke="rgb(33,33,33)" fill="none" stroke-linecap="round"></path><path d="M 182.000,320.000 C 173.943,322.302 174.056,322.698 166.000,325.000" stroke-width="9.827" stroke="rgb(33,33,33)" fill="none" stroke-linecap="round"></path><path d="M 166.000,325.000 C 160.056,326.698 160.069,326.897 154.000,328.000" stroke-width="10.109" stroke="rgb(33,33,33)" fill="none" stroke-linecap="round"></path><path d="M 154.000,328.000 C 149.069,328.897 148.976,328.337 144.000,329.000" stroke-width="10.543" stroke="rgb(33,33,33)" fill="none" stroke-linecap="round"></path><path d="M 144.000,329.000 C 141.476,329.337 141.518,329.685 139.000,330.000" stroke-width="11.271" stroke="rgb(33,33,33)" fill="none" stroke-linecap="round"></path><path d="M 139.000,330.000 C 137.518,330.185 137.125,329.625 136.000,330.000" stroke-width="12.091" stroke="rgb(33,33,33)" fill="none" stroke-linecap="round"></path><path d="M 136.000,330.000 C 135.625,330.125 135.590,330.836 136.000,331.000" stroke-width="13.051" stroke="rgb(33,33,33)" fill="none" stroke-linecap="round"></path><path d="M 136.000,331.000 C 138.090,331.836 138.466,331.759 141.000,332.000" stroke-width="13.489" stroke="rgb(33,33,33)" fill="none" stroke-linecap="round"></path></svg>