<svg xmlns="http://www.w3.org/2000/svg" xmlns:xlink="http://www.w3.org/1999/xlink" viewBox="0 0 360 500"><path d="M 55.615,307.784 C 52.880,300.147 52.867,300.152 50.145,292.510" stroke-width="20.043" stroke="rgb(33,33,33)" fill="none" stroke-linecap="round"></path><path d="M 50.145,292.510 C 49.437,290.522 49.434,290.522 48.754,288.524" stroke-width="19.141" stroke="rgb(33,33,33)" fill="none" stroke-linecap="round"></path><path d="M 48.754,288.524 C 47.884,285.965 47.694,286.006 47.045,283.395" stroke-width="18.244" stroke="rgb(33,33,33)" fill="none" stroke-linecap="round"></path><path d="M 47.045,283.395 C 46.629,281.721 47.034,281.630 46.623,279.955" stroke-width="17.940" stroke="rgb(33,33,33)" fill="none" stroke-linecap="round"></path><path d="M 46.623,279.955 C 46.002,277.427 45.816,277.467 44.981,274.988" stroke-width="17.332" stroke="rgb(33,33,33)" fill="none" stroke-linecap="round"></path><path d="M 44.981,274.988 C 43.342,270.122 43.154,270.179 41.675,265.266" stroke-width="17.055" stroke="rgb(33,33,33)" fill="none" stroke-linecap="round"></path><path d="M 41.675,265.266 C 40.217,260.425 40.316,260.391 39.107,255.480" stroke-width="16.902" stroke="rgb(33,33,33)" fill="none" stroke-linecap="round"></path><path d="M 39.107,255.480 C 38.129,251.503 38.228,251.479 37.301,247.490" stroke-width="16.801" stroke="rgb(33,33,33)" fill="none" stroke-linecap="round"></path><path d="M 37.301,247.490 C 36.991,246.153 36.992,246.152 36.633,244.828" stroke-width="17.243" stroke="rgb(33,33,33)" fill="none" stroke-linecap="round"></path><path d="M 36.633,244.828 C 36.202,243.238 36.093,243.260 35.722,241.662" stroke-width="13.785" stroke="rgb(33,33,33)" fill="none" stroke-linecap="round"></path><path d="M 35.722,241.662 C 35.594,241.110 35.657,241.095 35.634,240.527" stroke-width="14.553" stroke="rgb(33,33,33)" fill="none" stroke-linecap="round"></path><path d="M 35.634,240.527 C 35.613,239.988 35.692,239.982 35.634,239.448" stroke-width="15.273" stroke="rgb(33,33,33)" fill="none" stroke-linecap="round"></path><path d="M 35.634,239.448 C 35.554,238.714 35.449,238.725 35.357,237.991" stroke-width="15.830" stroke="rgb(33,33,33)" fill="none" stroke-linecap="round"></path><path d="M 35.357,237.991 C 35.283,237.399 35.318,237.394 35.301,236.796" stroke-width="16.364" stroke="rgb(33,33,33)" fill="none" stroke-linecap="round"></path><path d="M 35.301,236.796 C 35.290,236.435 35.301,236.435 35.301,236.074" stroke-width="16.897" stroke="rgb(33,33,33)" fill="none" stroke-linecap="round"></path><path d="M 35.301,236.074 C 35.301,235.615 35.301,235.615 35.301,235.156" stroke-width="17.331" stroke="rgb(33,33,33)" fill="none" stroke-linecap="round"></path><path d="M 35.301,235.156 C 35.301,234.936 35.301,234.936 35.301,234.715" stroke-width="17.790" stroke="rgb(33,33,33)" fill="none" stroke-linecap="round"></path><path d="M 35.301,234.715 C 35.301,234.436 35.301,234.436 35.301,234.156" stroke-width="17.932" stroke="rgb(33,33,33)" fill="none" stroke-linecap="round"></path><path d="M 35.301,234.156 C 35.301,233.977 35.301,233.977 35.301,233.797" stroke-width="18.282" stroke="rgb(33,33,33)" fill="none" stroke-linecap="round"></path><path d="M 35.301,233.797 C 35.301,233.561 35.301,233.561 35.301,233.325" stroke-width="18.596" stroke="rgb(33,33,33)" fill="none" stroke-linecap="round"></path><path d="M 35.301,233.325 C 35.301,233.158 35.301,233.158 35.301,232.990" stroke-width="18.835" stroke="rgb(33,33,33)" fill="none" stroke-linecap="round"></path><path d="M 35.301,232.990 C 35.301,232.839 35.223,232.776 35.301,232.687" stroke-width="19.038" stroke="rgb(33,33,33)" fill="none" stroke-linecap="round"></path><path d="M 35.301,232.687 C 35.389,232.587 35.544,232.710 35.634,232.612" stroke-width="19.191" stroke="rgb(33,33,33)" fill="none" stroke-linecap="round"></path><path d="M 35.634,232.612 C 35.710,232.529 35.526,232.378 35.634,232.324" stroke-width="19.331" stroke="rgb(33,33,33)" fill="none" stroke-linecap="round"></path><path d="M 35.634,232.324 C 35.984,232.150 36.089,232.209 36.550,232.157" stroke-width="19.406" stroke="rgb(33,33,33)" fill="none" stroke-linecap="round"></path><path d="M 36.550,232.157 C 36.833,232.125 36.862,232.057 37.122,232.157" stroke-width="19.442" stroke="rgb(33,33,33)" fill="none" stroke-linecap="round"></path><path d="M 37.122,232.157 C 37.776,232.410 37.727,232.558 38.377,232.863" stroke-width="19.283" stroke="rgb(33,33,33)" fill="none" stroke-linecap="round"></path><path d="M 38.377,232.863 C 39.108,233.205 39.156,233.104 39.885,233.451" stroke-width="19.097" stroke="rgb(33,33,33)" fill="none" stroke-linecap="round"></path><path d="M 39.885,233.451 C 40.573,233.778 40.563,233.806 41.210,234.211" stroke-width="18.992" stroke="rgb(33,33,33)" fill="none" stroke-linecap="round"></path><path d="M 41.210,234.211 C 42.082,234.757 42.077,234.765 42.922,235.353" stroke-width="18.822" stroke="rgb(33,33,33)" fill="none" stroke-linecap="round"></path><path d="M 42.922,235.353 C 43.947,236.066 43.924,236.098 44.949,236.812" stroke-width="18.545" stroke="rgb(33,33,33)" fill="none" stroke-linecap="round"></path><path d="M 44.949,236.812 C 45.791,237.399 45.838,237.334 46.656,237.954" stroke-width="18.448" stroke="rgb(33,33,33)" fill="none" stroke-linecap="round"></path><path d="M 46.656,237.954 C 48.586,239.417 48.748,239.263 50.444,240.977" stroke-width="18.348" stroke="rgb(33,33,33)" fill="none" stroke-linecap="round"></path><path d="M 50.444,240.977 C 52.900,243.459 52.897,243.520 54.961,246.346" stroke-width="18.066" stroke="rgb(33,33,33)" fill="none" stroke-linecap="round"></path><path d="M 54.961,246.346 C 56.906,249.010 56.673,249.177 58.462,251.958" stroke-width="17.866" stroke="rgb(33,33,33)" fill="none" stroke-linecap="round"></path><path d="M 58.462,251.958 C 60.206,254.670 60.331,254.593 62.027,257.333" stroke-width="17.566" stroke="rgb(33,33,33)" fill="none" stroke-linecap="round"></path><path d="M 62.027,257.333 C 63.071,259.020 62.862,259.149 63.943,260.811" stroke-width="17.599" stroke="rgb(33,33,33)" fill="none" stroke-linecap="round"></path><path d="M 63.943,260.811 C 66.298,264.430 66.457,264.329 68.899,267.895" stroke-width="16.888" stroke="rgb(33,33,33)" fill="none" stroke-linecap="round"></path><path d="M 68.899,267.895 C 70.179,269.764 70.140,269.791 71.388,271.682" stroke-width="16.993" stroke="rgb(33,33,33)" fill="none" stroke-linecap="round"></path><path d="M 71.388,271.682 C 73.565,274.981 73.547,274.994 75.749,278.276" stroke-width="16.645" stroke="rgb(33,33,33)" fill="none" stroke-linecap="round"></path><path d="M 75.749,278.276 C 76.579,279.513 76.657,279.462 77.453,280.720" stroke-width="16.887" stroke="rgb(33,33,33)" fill="none" stroke-linecap="round"></path><path d="M 77.453,280.720 C 78.845,282.922 78.727,283.001 80.125,285.196" stroke-width="17.146" stroke="rgb(33,33,33)" fill="none" stroke-linecap="round"></path><path d="M 80.125,285.196 C 80.510,285.801 80.586,285.747 81.020,286.319" stroke-width="16.843" stroke="rgb(33,33,33)" fill="none" stroke-linecap="round"></path><path d="M 81.020,286.319 C 81.319,286.713 81.316,286.716 81.590,287.128" stroke-width="16.855" stroke="rgb(33,33,33)" fill="none" stroke-linecap="round"></path><path d="M 81.590,287.128 C 81.884,287.569 81.833,287.608 82.155,288.025" stroke-width="17.179" stroke="rgb(33,33,33)" fill="none" stroke-linecap="round"></path><path d="M 82.155,288.025 C 82.399,288.341 82.544,288.252 82.723,288.594" stroke-width="17.571" stroke="rgb(33,33,33)" fill="none" stroke-linecap="round"></path><path d="M 82.723,288.594 C 82.928,288.985 82.815,289.044 82.923,289.491" stroke-width="17.876" stroke="rgb(33,33,33)" fill="none" stroke-linecap="round"></path><path d="M 82.923,289.491 C 83.000,289.811 82.926,289.915 83.093,290.127" stroke-width="18.239" stroke="rgb(33,33,33)" fill="none" stroke-linecap="round"></path><path d="M 83.093,290.127 C 83.176,290.233 83.306,290.040 83.423,290.127" stroke-width="18.543" stroke="rgb(33,33,33)" fill="none" stroke-linecap="round"></path><path d="M 83.423,290.127 C 83.621,290.274 83.672,290.354 83.724,290.595" stroke-width="18.739" stroke="rgb(33,33,33)" fill="none" stroke-linecap="round"></path><path d="M 83.724,290.595 C 83.755,290.738 83.541,290.848 83.589,290.896" stroke-width="18.954" stroke="rgb(33,33,33)" fill="none" stroke-linecap="round"></path><path d="M 83.589,290.896 C 83.640,290.947 83.859,290.703 83.922,290.793" stroke-width="19.163" stroke="rgb(33,33,33)" fill="none" stroke-linecap="round"></path><path d="M 83.922,290.793 C 84.026,290.942 83.922,291.083 83.922,291.373" stroke-width="19.308" stroke="rgb(33,33,33)" fill="none" stroke-linecap="round"></path><path d="M 83.922,291.373 C 83.922,291.484 83.922,291.484 83.922,291.596" stroke-width="19.440" stroke="rgb(33,33,33)" fill="none" stroke-linecap="round"></path><path d="M 83.922,291.596 C 83.922,291.695 83.860,291.756 83.922,291.793" stroke-width="19.588" stroke="rgb(33,33,33)" fill="none" stroke-linecap="round"></path><path d="M 83.922,291.793 C 84.027,291.855 84.172,291.710 84.255,291.793" stroke-width="19.678" stroke="rgb(33,33,33)" fill="none" stroke-linecap="round"></path><path d="M 84.255,291.793 C 84.338,291.876 84.255,292.126 84.255,292.126" stroke-width="19.765" stroke="rgb(33,33,33)" fill="none" stroke-linecap="round"></path><path d="M 84.255,292.126 C 84.255,292.126 84.186,291.793 84.255,291.793" stroke-width="19.844" stroke="rgb(33,33,33)" fill="none" stroke-linecap="round"></path><path d="M 84.255,291.793 C 84.353,291.793 84.588,292.028 84.588,292.126" stroke-width="19.887" stroke="rgb(33,33,33)" fill="none" stroke-linecap="round"></path><path d="M 84.588,292.126 C 84.588,292.195 84.338,292.043 84.255,292.126" stroke-width="19.933" stroke="rgb(33,33,33)" fill="none" stroke-linecap="round"></path><path d="M 84.255,292.126 C 84.172,292.209 84.255,292.293 84.255,292.459" stroke-width="19.957" stroke="rgb(33,33,33)" fill="none" stroke-linecap="round"></path><path d="M 84.255,292.459 C 84.255,292.626 84.255,292.792 84.255,292.792" stroke-width="20.008" stroke="rgb(33,33,33)" fill="none" stroke-linecap="round"></path><path d="M 84.255,292.792 C 84.255,292.792 84.315,292.604 84.255,292.459" stroke-width="20.030" stroke="rgb(33,33,33)" fill="none" stroke-linecap="round"></path><path d="M 84.255,292.459 C 84.178,292.271 84.142,292.241 83.981,292.126" stroke-width="20.039" stroke="rgb(33,33,33)" fill="none" stroke-linecap="round"></path><path d="M 83.981,292.126 C 83.909,292.075 83.832,292.199 83.788,292.126" stroke-width="20.041" stroke="rgb(33,33,33)" fill="none" stroke-linecap="round"></path><path d="M 83.788,292.126 C 83.620,291.849 83.768,291.711 83.556,291.427" stroke-width="19.889" stroke="rgb(33,33,33)" fill="none" stroke-linecap="round"></path><path d="M 83.556,291.427 C 83.270,291.044 83.179,291.104 82.792,290.793" stroke-width="19.846" stroke="rgb(33,33,33)" fill="none" stroke-linecap="round"></path><path d="M 82.792,290.793 C 82.339,290.429 82.402,290.299 81.876,290.078" stroke-width="19.644" stroke="rgb(33,33,33)" fill="none" stroke-linecap="round"></path><path d="M 81.876,290.078 C 80.891,289.663 80.811,289.839 79.770,289.520" stroke-width="19.280" stroke="rgb(33,33,33)" fill="none" stroke-linecap="round"></path><path d="M 79.770,289.520 C 78.166,289.029 78.177,288.989 76.585,288.458" stroke-width="18.755" stroke="rgb(33,33,33)" fill="none" stroke-linecap="round"></path><path d="M 76.585,288.458 C 74.860,287.883 74.900,287.719 73.135,287.307" stroke-width="18.300" stroke="rgb(33,33,33)" fill="none" stroke-linecap="round"></path><path d="M 73.135,287.307 C 70.678,286.734 70.654,286.727 68.140,286.488" stroke-width="17.689" stroke="rgb(33,33,33)" fill="none" stroke-linecap="round"></path><path d="M 68.140,286.488 C 65.537,286.240 65.522,286.338 62.902,286.333" stroke-width="17.141" stroke="rgb(33,33,33)" fill="none" stroke-linecap="round"></path><path d="M 62.902,286.333 C 58.217,286.325 58.214,286.335 53.530,286.462" stroke-width="16.954" stroke="rgb(33,33,33)" fill="none" stroke-linecap="round"></path><path d="M 53.530,286.462 C 49.713,286.566 49.712,286.593 45.899,286.795" stroke-width="16.935" stroke="rgb(33,33,33)" fill="none" stroke-linecap="round"></path><path d="M 45.899,286.795 C 43.988,286.896 43.974,287.068 42.081,287.068" stroke-width="17.192" stroke="rgb(33,33,33)" fill="none" stroke-linecap="round"></path><path d="M 42.081,287.068 C 41.624,287.068 41.322,287.095 41.198,286.795" stroke-width="17.626" stroke="rgb(33,33,33)" fill="none" stroke-linecap="round"></path><path d="M 41.198,286.795 C 41.052,286.442 41.229,286.206 41.540,285.762" stroke-width="17.943" stroke="rgb(33,33,33)" fill="none" stroke-linecap="round"></path><path d="M 41.540,285.762 C 44.399,281.678 44.144,281.367 47.538,277.740" stroke-width="17.204" stroke="rgb(33,33,33)" fill="none" stroke-linecap="round"></path><path d="M 47.538,277.740 C 50.081,275.022 50.403,275.308 53.413,273.072" stroke-width="15.477" stroke="rgb(33,33,33)" fill="none" stroke-linecap="round"></path><path d="M 53.413,273.072 C 56.151,271.039 56.140,271.002 59.035,269.202" stroke-width="15.202" stroke="rgb(33,33,33)" fill="none" stroke-linecap="round"></path><path d="M 59.035,269.202 C 61.741,267.519 61.735,267.461 64.614,266.106" stroke-width="15.104" stroke="rgb(33,33,33)" fill="none" stroke-linecap="round"></path><path d="M 64.614,266.106 C 67.120,264.927 67.170,264.996 69.805,264.133" stroke-width="15.136" stroke="rgb(33,33,33)" fill="none" stroke-linecap="round"></path><path d="M 69.805,264.133 C 71.929,263.437 72.021,263.709 74.133,262.988" stroke-width="15.340" stroke="rgb(33,33,33)" fill="none" stroke-linecap="round"></path><path d="M 74.133,262.988 C 75.842,262.405 75.728,262.072 77.446,261.525" stroke-width="15.710" stroke="rgb(33,33,33)" fill="none" stroke-linecap="round"></path><path d="M 77.446,261.525 C 79.838,260.763 79.889,260.893 82.353,260.369" stroke-width="15.980" stroke="rgb(33,33,33)" fill="none" stroke-linecap="round"></path><path d="M 82.353,260.369 C 83.135,260.202 83.143,260.227 83.938,260.143" stroke-width="16.503" stroke="rgb(33,33,33)" fill="none" stroke-linecap="round"></path><path d="M 83.938,260.143 C 84.217,260.114 84.224,260.188 84.500,260.143" stroke-width="17.074" stroke="rgb(33,33,33)" fill="none" stroke-linecap="round"></path><path d="M 84.500,260.143 C 85.242,260.021 85.232,259.932 85.973,259.809" stroke-width="17.419" stroke="rgb(33,33,33)" fill="none" stroke-linecap="round"></path><path d="M 85.973,259.809 C 86.240,259.765 86.245,259.809 86.517,259.809" stroke-width="17.865" stroke="rgb(33,33,33)" fill="none" stroke-linecap="round"></path><path d="M 86.517,259.809 C 86.620,259.809 86.620,259.809 86.723,259.809" stroke-width="18.247" stroke="rgb(33,33,33)" fill="none" stroke-linecap="round"></path><path d="M 86.723,259.809 C 86.889,259.809 86.917,259.877 87.056,259.809" stroke-width="18.544" stroke="rgb(33,33,33)" fill="none" stroke-linecap="round"></path><path d="M 87.056,259.809 C 87.256,259.711 87.209,259.596 87.400,259.476" stroke-width="18.813" stroke="rgb(33,33,33)" fill="none" stroke-linecap="round"></path><path d="M 87.400,259.476 C 87.474,259.429 87.493,259.476 87.586,259.476" stroke-width="19.070" stroke="rgb(33,33,33)" fill="none" stroke-linecap="round"></path><path d="M 87.586,259.476 C 87.752,259.476 87.752,259.476 87.919,259.476" stroke-width="19.259" stroke="rgb(33,33,33)" fill="none" stroke-linecap="round"></path><path d="M 87.919,259.476 C 88.085,259.476 88.085,259.476 88.252,259.476" stroke-width="19.446" stroke="rgb(33,33,33)" fill="none" stroke-linecap="round"></path><path d="M 88.252,259.476 C 88.418,259.476 88.447,259.407 88.585,259.476" stroke-width="19.591" stroke="rgb(33,33,33)" fill="none" stroke-linecap="round"></path><path d="M 88.585,259.476 C 88.780,259.574 88.737,259.659 88.918,259.809" stroke-width="19.613" stroke="rgb(33,33,33)" fill="none" stroke-linecap="round"></path><path d="M 88.918,259.809 C 89.754,260.504 89.854,260.400 90.619,261.166" stroke-width="19.257" stroke="rgb(33,33,33)" fill="none" stroke-linecap="round"></path><path d="M 90.619,261.166 C 91.552,262.099 91.423,262.226 92.313,263.207" stroke-width="18.848" stroke="rgb(33,33,33)" fill="none" stroke-linecap="round"></path><path d="M 92.313,263.207 C 93.117,264.093 93.156,264.058 94.007,264.901" stroke-width="18.617" stroke="rgb(33,33,33)" fill="none" stroke-linecap="round"></path><path d="M 94.007,264.901 C 95.578,266.456 95.549,266.488 97.157,268.003" stroke-width="18.045" stroke="rgb(33,33,33)" fill="none" stroke-linecap="round"></path><path d="M 97.157,268.003 C 98.404,269.177 98.420,269.162 99.717,270.280" stroke-width="17.794" stroke="rgb(33,33,33)" fill="none" stroke-linecap="round"></path><path d="M 99.717,270.280 C 100.648,271.082 100.550,271.256 101.613,271.844" stroke-width="17.773" stroke="rgb(33,33,33)" fill="none" stroke-linecap="round"></path><path d="M 101.613,271.844 C 103.132,272.684 103.197,272.754 104.881,273.136" stroke-width="17.913" stroke="rgb(33,33,33)" fill="none" stroke-linecap="round"></path><path d="M 104.881,273.136 C 106.048,273.400 106.129,273.332 107.316,273.136" stroke-width="18.120" stroke="rgb(33,33,33)" fill="none" stroke-linecap="round"></path><path d="M 107.316,273.136 C 108.634,272.918 108.697,272.911 109.891,272.307" stroke-width="18.265" stroke="rgb(33,33,33)" fill="none" stroke-linecap="round"></path><path d="M 109.891,272.307 C 111.279,271.606 111.464,271.683 112.480,270.526" stroke-width="18.266" stroke="rgb(33,33,33)" fill="none" stroke-linecap="round"></path><path d="M 112.480,270.526 C 114.017,268.776 113.888,268.583 114.998,266.494" stroke-width="18.086" stroke="rgb(33,33,33)" fill="none" stroke-linecap="round"></path><path d="M 114.998,266.494 C 115.595,265.371 115.779,265.354 115.893,264.101" stroke-width="18.142" stroke="rgb(33,33,33)" fill="none" stroke-linecap="round"></path><path d="M 115.893,264.101 C 116.157,261.193 116.073,261.104 115.754,258.172" stroke-width="17.757" stroke="rgb(33,33,33)" fill="none" stroke-linecap="round"></path><path d="M 115.754,258.172 C 115.534,256.156 115.452,256.136 114.815,254.205" stroke-width="17.666" stroke="rgb(33,33,33)" fill="none" stroke-linecap="round"></path><path d="M 114.815,254.205 C 113.852,251.283 113.786,251.286 112.554,248.465" stroke-width="17.361" stroke="rgb(33,33,33)" fill="none" stroke-linecap="round"></path><path d="M 112.554,248.465 C 112.123,247.478 112.095,247.477 111.488,246.589" stroke-width="17.640" stroke="rgb(33,33,33)" fill="none" stroke-linecap="round"></path><path d="M 111.488,246.589 C 110.664,245.383 110.714,245.295 109.691,244.277" stroke-width="17.898" stroke="rgb(33,33,33)" fill="none" stroke-linecap="round"></path><path d="M 109.691,244.277 C 109.103,243.693 109.022,243.738 108.266,243.385" stroke-width="17.561" stroke="rgb(33,33,33)" fill="none" stroke-linecap="round"></path><path d="M 108.266,243.385 C 107.465,243.010 107.441,243.020 106.576,242.821" stroke-width="17.689" stroke="rgb(33,33,33)" fill="none" stroke-linecap="round"></path><path d="M 106.576,242.821 C 105.487,242.570 105.474,242.568 104.359,242.485" stroke-width="17.009" stroke="rgb(33,33,33)" fill="none" stroke-linecap="round"></path><path d="M 104.359,242.485 C 103.211,242.400 103.190,242.343 102.050,242.485" stroke-width="17.046" stroke="rgb(33,33,33)" fill="none" stroke-linecap="round"></path><path d="M 102.050,242.485 C 100.384,242.693 100.371,242.737 98.748,243.184" stroke-width="17.015" stroke="rgb(33,33,33)" fill="none" stroke-linecap="round"></path><path d="M 98.748,243.184 C 97.465,243.537 97.492,243.631 96.238,244.086" stroke-width="17.179" stroke="rgb(33,33,33)" fill="none" stroke-linecap="round"></path><path d="M 96.238,244.086 C 95.242,244.447 95.236,244.433 94.248,244.816" stroke-width="17.485" stroke="rgb(33,33,33)" fill="none" stroke-linecap="round"></path><path d="M 94.248,244.816 C 93.001,245.299 93.020,245.379 91.767,245.817" stroke-width="17.641" stroke="rgb(33,33,33)" fill="none" stroke-linecap="round"></path><path d="M 91.767,245.817 C 91.587,245.880 91.548,245.739 91.383,245.817" stroke-width="18.060" stroke="rgb(33,33,33)" fill="none" stroke-linecap="round"></path><path d="M 91.383,245.817 C 91.055,245.973 90.725,246.206 90.781,246.285" stroke-width="18.405" stroke="rgb(33,33,33)" fill="none" stroke-linecap="round"></path><path d="M 90.781,246.285 C 90.844,246.373 91.229,246.299 91.622,246.150" stroke-width="18.613" stroke="rgb(33,33,33)" fill="none" stroke-linecap="round"></path><path d="M 91.622,246.150 C 92.212,245.926 92.233,245.917 92.747,245.539" stroke-width="18.640" stroke="rgb(33,33,33)" fill="none" stroke-linecap="round"></path><path d="M 92.747,245.539 C 94.079,244.561 93.978,244.417 95.315,243.438" stroke-width="18.234" stroke="rgb(33,33,33)" fill="none" stroke-linecap="round"></path><path d="M 95.315,243.438 C 96.971,242.226 97.075,242.368 98.733,241.158" stroke-width="17.813" stroke="rgb(33,33,33)" fill="none" stroke-linecap="round"></path><path d="M 98.733,241.158 C 100.640,239.766 100.748,239.863 102.444,238.234" stroke-width="17.330" stroke="rgb(33,33,33)" fill="none" stroke-linecap="round"></path><path d="M 102.444,238.234 C 104.358,236.395 104.205,236.233 105.954,234.222" stroke-width="16.959" stroke="rgb(33,33,33)" fill="none" stroke-linecap="round"></path><path d="M 105.954,234.222 C 107.813,232.085 108.006,232.224 109.660,229.937" stroke-width="16.573" stroke="rgb(33,33,33)" fill="none" stroke-linecap="round"></path><path d="M 109.660,229.937 C 111.370,227.572 110.993,227.293 112.683,224.919" stroke-width="16.247" stroke="rgb(33,33,33)" fill="none" stroke-linecap="round"></path><path d="M 112.683,224.919 C 113.634,223.583 113.808,223.713 114.943,222.517" stroke-width="16.413" stroke="rgb(33,33,33)" fill="none" stroke-linecap="round"></path><path d="M 114.943,222.517 C 115.660,221.761 115.712,221.806 116.386,221.015" stroke-width="16.792" stroke="rgb(33,33,33)" fill="none" stroke-linecap="round"></path><path d="M 116.386,221.015 C 116.884,220.431 116.796,220.356 117.288,219.767" stroke-width="17.210" stroke="rgb(33,33,33)" fill="none" stroke-linecap="round"></path><path d="M 117.288,219.767 C 117.680,219.298 117.759,219.357 118.155,218.900" stroke-width="17.592" stroke="rgb(33,33,33)" fill="none" stroke-linecap="round"></path><path d="M 118.155,218.900 C 118.227,218.817 118.205,218.796 118.224,218.687" stroke-width="18.037" stroke="rgb(33,33,33)" fill="none" stroke-linecap="round"></path><path d="M 118.224,218.687 C 118.240,218.595 118.157,218.551 118.224,218.498" stroke-width="18.415" stroke="rgb(33,33,33)" fill="none" stroke-linecap="round"></path><path d="M 118.224,218.498 C 118.490,218.289 118.584,218.368 118.890,218.164" stroke-width="18.660" stroke="rgb(33,33,33)" fill="none" stroke-linecap="round"></path><path d="M 118.890,218.164 C 119.083,218.035 119.028,217.929 119.223,217.831" stroke-width="18.907" stroke="rgb(33,33,33)" fill="none" stroke-linecap="round"></path><path d="M 119.223,217.831 C 119.361,217.762 119.451,217.713 119.556,217.831" stroke-width="19.143" stroke="rgb(33,33,33)" fill="none" stroke-linecap="round"></path><path d="M 119.556,217.831 C 120.213,218.571 120.189,218.665 120.747,219.548" stroke-width="19.201" stroke="rgb(33,33,33)" fill="none" stroke-linecap="round"></path><path d="M 120.747,219.548 C 121.492,220.727 121.437,220.762 122.162,221.954" stroke-width="18.810" stroke="rgb(33,33,33)" fill="none" stroke-linecap="round"></path><path d="M 122.162,221.954 C 122.834,223.057 122.847,223.049 123.541,224.139" stroke-width="18.550" stroke="rgb(33,33,33)" fill="none" stroke-linecap="round"></path><path d="M 123.541,224.139 C 124.559,225.737 124.586,225.721 125.586,227.330" stroke-width="18.069" stroke="rgb(33,33,33)" fill="none" stroke-linecap="round"></path><path d="M 125.586,227.330 C 126.447,228.715 126.282,228.838 127.264,230.128" stroke-width="17.876" stroke="rgb(33,33,33)" fill="none" stroke-linecap="round"></path><path d="M 127.264,230.128 C 128.194,231.350 128.351,231.228 129.410,232.354" stroke-width="17.687" stroke="rgb(33,33,33)" fill="none" stroke-linecap="round"></path><path d="M 129.410,232.354 C 131.665,234.750 131.478,234.965 133.892,237.171" stroke-width="17.600" stroke="rgb(33,33,33)" fill="none" stroke-linecap="round"></path><path d="M 133.892,237.171 C 135.184,238.352 135.260,238.406 136.822,239.128" stroke-width="17.807" stroke="rgb(33,33,33)" fill="none" stroke-linecap="round"></path><path d="M 136.822,239.128 C 137.640,239.507 137.859,239.672 138.652,239.373" stroke-width="18.059" stroke="rgb(33,33,33)" fill="none" stroke-linecap="round"></path><path d="M 138.652,239.373 C 139.793,238.942 139.852,238.663 140.689,237.668" stroke-width="18.156" stroke="rgb(33,33,33)" fill="none" stroke-linecap="round"></path><path d="M 140.689,237.668 C 141.294,236.948 141.402,236.881 141.536,235.943" stroke-width="18.301" stroke="rgb(33,33,33)" fill="none" stroke-linecap="round"></path><path d="M 141.536,235.943 C 142.025,232.530 141.827,232.456 141.936,228.966" stroke-width="17.709" stroke="rgb(33,33,33)" fill="none" stroke-linecap="round"></path><path d="M 141.936,228.966 C 141.993,227.146 142.077,227.129 141.869,225.323" stroke-width="17.641" stroke="rgb(33,33,33)" fill="none" stroke-linecap="round"></path><path d="M 141.869,225.323 C 141.389,221.148 141.280,221.150 140.561,217.003" stroke-width="17.183" stroke="rgb(33,33,33)" fill="none" stroke-linecap="round"></path><path d="M 140.561,217.003 C 140.347,215.769 140.262,215.786 140.002,214.561" stroke-width="17.402" stroke="rgb(33,33,33)" fill="none" stroke-linecap="round"></path><path d="M 140.002,214.561 C 139.750,213.375 139.831,213.352 139.537,212.181" stroke-width="17.740" stroke="rgb(33,33,33)" fill="none" stroke-linecap="round"></path><path d="M 139.537,212.181 C 139.432,211.765 139.337,211.791 139.204,211.387" stroke-width="17.734" stroke="rgb(33,33,33)" fill="none" stroke-linecap="round"></path><path d="M 139.204,211.387 C 139.170,211.284 139.134,211.126 139.204,211.168" stroke-width="18.148" stroke="rgb(33,33,33)" fill="none" stroke-linecap="round"></path><path d="M 139.204,211.168 C 139.569,211.386 139.672,211.505 140.073,211.907" stroke-width="18.417" stroke="rgb(33,33,33)" fill="none" stroke-linecap="round"></path><path d="M 140.073,211.907 C 140.383,212.217 140.368,212.236 140.627,212.592" stroke-width="18.578" stroke="rgb(33,33,33)" fill="none" stroke-linecap="round"></path><path d="M 140.627,212.592 C 141.437,213.705 141.472,213.685 142.212,214.846" stroke-width="18.302" stroke="rgb(33,33,33)" fill="none" stroke-linecap="round"></path><path d="M 142.212,214.846 C 143.044,216.150 142.880,216.260 143.771,217.521" stroke-width="18.018" stroke="rgb(33,33,33)" fill="none" stroke-linecap="round"></path><path d="M 143.771,217.521 C 145.042,219.321 145.173,219.230 146.536,220.969" stroke-width="17.636" stroke="rgb(33,33,33)" fill="none" stroke-linecap="round"></path><path d="M 146.536,220.969 C 147.432,222.112 147.381,222.152 148.288,223.285" stroke-width="17.567" stroke="rgb(33,33,33)" fill="none" stroke-linecap="round"></path><path d="M 148.288,223.285 C 149.249,224.485 149.134,224.621 150.273,225.636" stroke-width="17.447" stroke="rgb(33,33,33)" fill="none" stroke-linecap="round"></path><path d="M 150.273,225.636 C 151.598,226.818 151.672,226.780 153.216,227.678" stroke-width="17.364" stroke="rgb(33,33,33)" fill="none" stroke-linecap="round"></path><path d="M 153.216,227.678 C 154.898,228.657 154.963,228.550 156.725,229.389" stroke-width="17.177" stroke="rgb(33,33,33)" fill="none" stroke-linecap="round"></path><path d="M 156.725,229.389 C 157.882,229.940 157.821,230.300 159.054,230.459" stroke-width="17.376" stroke="rgb(33,33,33)" fill="none" stroke-linecap="round"></path><path d="M 159.054,230.459 C 160.918,230.699 161.223,230.875 162.920,230.188" stroke-width="17.457" stroke="rgb(33,33,33)" fill="none" stroke-linecap="round"></path><path d="M 162.920,230.188 C 164.438,229.574 164.891,229.413 165.484,227.856" stroke-width="17.504" stroke="rgb(33,33,33)" fill="none" stroke-linecap="round"></path><path d="M 165.484,227.856 C 167.120,223.566 167.095,223.196 167.378,218.494" stroke-width="16.889" stroke="rgb(33,33,33)" fill="none" stroke-linecap="round"></path><path d="M 167.378,218.494 C 167.580,215.143 167.254,215.050 166.453,211.749" stroke-width="16.654" stroke="rgb(33,33,33)" fill="none" stroke-linecap="round"></path><path d="M 166.453,211.749 C 164.546,203.892 164.405,203.900 161.962,196.179" stroke-width="15.608" stroke="rgb(33,33,33)" fill="none" stroke-linecap="round"></path><path d="M 161.962,196.179 C 160.571,191.781 160.527,191.784 158.785,187.511" stroke-width="15.401" stroke="rgb(33,33,33)" fill="none" stroke-linecap="round"></path><path d="M 158.785,187.511 C 155.525,179.513 155.375,179.573 151.957,171.638" stroke-width="14.567" stroke="rgb(33,33,33)" fill="none" stroke-linecap="round"></path><path d="M 151.957,171.638 C 150.656,168.617 150.758,168.568 149.347,165.599" stroke-width="14.838" stroke="rgb(33,33,33)" fill="none" stroke-linecap="round"></path><path d="M 149.347,165.599 C 147.924,162.605 147.788,162.670 146.290,159.712" stroke-width="15.361" stroke="rgb(33,33,33)" fill="none" stroke-linecap="round"></path><path d="M 146.290,159.712 C 146.047,159.232 145.979,159.237 145.865,158.722" stroke-width="15.266" stroke="rgb(33,33,33)" fill="none" stroke-linecap="round"></path><path d="M 145.865,158.722 C 145.766,158.273 145.667,157.699 145.865,157.783" stroke-width="15.722" stroke="rgb(33,33,33)" fill="none" stroke-linecap="round"></path><path d="M 145.865,157.783 C 146.259,157.949 146.392,158.565 147.050,159.222" stroke-width="16.304" stroke="rgb(33,33,33)" fill="none" stroke-linecap="round"></path><path d="M 147.050,159.222 C 148.700,160.869 148.957,160.635 150.481,162.392" stroke-width="16.174" stroke="rgb(33,33,33)" fill="none" stroke-linecap="round"></path><path d="M 150.481,162.392 C 152.624,164.862 152.441,165.027 154.383,167.676" stroke-width="15.834" stroke="rgb(33,33,33)" fill="none" stroke-linecap="round"></path><path d="M 154.383,167.676 C 156.645,170.763 156.584,170.809 158.889,173.863" stroke-width="15.421" stroke="rgb(33,33,33)" fill="none" stroke-linecap="round"></path><path d="M 158.889,173.863 C 161.092,176.782 161.098,176.781 163.400,179.623" stroke-width="15.150" stroke="rgb(33,33,33)" fill="none" stroke-linecap="round"></path><path d="M 163.400,179.623 C 165.453,182.157 165.561,182.071 167.600,184.616" stroke-width="14.991" stroke="rgb(33,33,33)" fill="none" stroke-linecap="round"></path><path d="M 167.600,184.616 C 169.481,186.963 169.350,187.069 171.240,189.407" stroke-width="14.984" stroke="rgb(33,33,33)" fill="none" stroke-linecap="round"></path><path d="M 171.240,189.407 C 172.767,191.296 172.967,191.144 174.434,193.071" stroke-width="15.279" stroke="rgb(33,33,33)" fill="none" stroke-linecap="round"></path><path d="M 174.434,193.071 C 175.368,194.297 175.158,194.447 176.042,195.714" stroke-width="15.746" stroke="rgb(33,33,33)" fill="none" stroke-linecap="round"></path><path d="M 176.042,195.714 C 177.121,197.261 177.170,197.233 178.360,198.699" stroke-width="16.098" stroke="rgb(33,33,33)" fill="none" stroke-linecap="round"></path><path d="M 178.360,198.699 C 178.610,199.007 178.681,198.948 178.921,199.261" stroke-width="16.691" stroke="rgb(33,33,33)" fill="none" stroke-linecap="round"></path><path d="M 178.921,199.261 C 179.225,199.658 179.199,199.683 179.447,200.120" stroke-width="17.170" stroke="rgb(33,33,33)" fill="none" stroke-linecap="round"></path><path d="M 179.447,200.120 C 179.552,200.306 179.516,200.531 179.628,200.507" stroke-width="17.660" stroke="rgb(33,33,33)" fill="none" stroke-linecap="round"></path><path d="M 179.628,200.507 C 179.793,200.471 180.030,200.000 180.000,200.000" stroke-width="17.837" stroke="rgb(33,33,33)" fill="none" stroke-linecap="round"></path><path d="M 180.000,200.000 C 179.966,200.000 179.665,200.461 179.500,200.507" stroke-width="18.202" stroke="rgb(33,33,33)" fill="none" stroke-linecap="round"></path><path d="M 179.500,200.507 C 179.415,200.531 179.579,200.299 179.500,200.140" stroke-width="18.504" stroke="rgb(33,33,33)" fill="none" stroke-linecap="round"></path><path d="M 179.500,200.140 C 179.251,199.638 179.151,199.676 178.845,199.185" stroke-width="18.579" stroke="rgb(33,33,33)" fill="none" stroke-linecap="round"></path><path d="M 178.845,199.185 C 178.542,198.698 178.572,198.680 178.282,198.184" stroke-width="18.655" stroke="rgb(33,33,33)" fill="none" stroke-linecap="round"></path><path d="M 178.282,198.184 C 177.790,197.342 177.841,197.305 177.281,196.510" stroke-width="18.555" stroke="rgb(33,33,33)" fill="none" stroke-linecap="round"></path><path d="M 177.281,196.510 C 176.770,195.785 176.673,195.854 176.139,195.145" stroke-width="18.510" stroke="rgb(33,33,33)" fill="none" stroke-linecap="round"></path><path d="M 176.139,195.145 C 175.823,194.726 175.889,194.678 175.580,194.253" stroke-width="18.631" stroke="rgb(33,33,33)" fill="none" stroke-linecap="round"></path><path d="M 175.580,194.253 C 175.238,193.782 175.138,193.845 174.838,193.353" stroke-width="18.679" stroke="rgb(33,33,33)" fill="none" stroke-linecap="round"></path><path d="M 174.838,193.353 C 174.571,192.915 174.626,192.878 174.445,192.392" stroke-width="18.746" stroke="rgb(33,33,33)" fill="none" stroke-linecap="round"></path><path d="M 174.445,192.392 C 174.293,191.981 174.304,191.977 174.172,191.559" stroke-width="18.846" stroke="rgb(33,33,33)" fill="none" stroke-linecap="round"></path><path d="M 174.172,191.559 C 174.001,191.017 174.002,191.017 173.839,190.472" stroke-width="18.934" stroke="rgb(33,33,33)" fill="none" stroke-linecap="round"></path><path d="M 173.839,190.472 C 173.669,189.905 173.581,189.917 173.506,189.336" stroke-width="19.006" stroke="rgb(33,33,33)" fill="none" stroke-linecap="round"></path><path d="M 173.506,189.336 C 173.414,188.625 173.558,188.608 173.506,187.888" stroke-width="18.602" stroke="rgb(33,33,33)" fill="none" stroke-linecap="round"></path><path d="M 173.506,187.888 C 173.449,187.095 173.447,187.089 173.288,186.309" stroke-width="18.487" stroke="rgb(33,33,33)" fill="none" stroke-linecap="round"></path><path d="M 173.288,186.309 C 173.056,185.173 172.830,185.200 172.725,184.056" stroke-width="18.349" stroke="rgb(33,33,33)" fill="none" stroke-linecap="round"></path><path d="M 172.725,184.056 C 172.606,182.761 172.737,182.739 172.840,181.430" stroke-width="18.181" stroke="rgb(33,33,33)" fill="none" stroke-linecap="round"></path><path d="M 172.840,181.430 C 172.919,180.430 172.963,180.433 173.089,179.437" stroke-width="18.280" stroke="rgb(33,33,33)" fill="none" stroke-linecap="round"></path><path d="M 173.089,179.437 C 173.206,178.505 173.097,178.481 173.326,177.573" stroke-width="18.354" stroke="rgb(33,33,33)" fill="none" stroke-linecap="round"></path><path d="M 173.326,177.573 C 173.787,175.744 173.596,175.577 174.469,173.963" stroke-width="18.456" stroke="rgb(33,33,33)" fill="none" stroke-linecap="round"></path><path d="M 174.469,173.963 C 174.977,173.023 175.183,173.086 176.087,172.466" stroke-width="17.751" stroke="rgb(33,33,33)" fill="none" stroke-linecap="round"></path><path d="M 176.087,172.466 C 177.688,171.368 177.714,171.296 179.479,170.528" stroke-width="17.194" stroke="rgb(33,33,33)" fill="none" stroke-linecap="round"></path><path d="M 179.479,170.528 C 180.208,170.211 180.274,170.375 181.076,170.295" stroke-width="17.455" stroke="rgb(33,33,33)" fill="none" stroke-linecap="round"></path><path d="M 181.076,170.295 C 181.978,170.205 181.981,170.223 182.888,170.189" stroke-width="17.680" stroke="rgb(33,33,33)" fill="none" stroke-linecap="round"></path><path d="M 182.888,170.189 C 183.402,170.170 183.408,170.126 183.917,170.189" stroke-width="17.982" stroke="rgb(33,33,33)" fill="none" stroke-linecap="round"></path><path d="M 183.917,170.189 C 185.365,170.370 185.372,170.383 186.802,170.677" stroke-width="18.063" stroke="rgb(33,33,33)" fill="none" stroke-linecap="round"></path><path d="M 186.802,170.677 C 187.234,170.766 187.296,170.695 187.641,170.954" stroke-width="18.328" stroke="rgb(33,33,33)" fill="none" stroke-linecap="round"></path><path d="M 187.641,170.954 C 188.425,171.544 188.708,171.470 189.060,172.375" stroke-width="18.373" stroke="rgb(33,33,33)" fill="none" stroke-linecap="round"></path><path d="M 189.060,172.375 C 189.966,174.703 189.763,174.881 190.157,177.420" stroke-width="18.103" stroke="rgb(33,33,33)" fill="none" stroke-linecap="round"></path><path d="M 190.157,177.420 C 190.311,178.414 190.239,178.437 190.157,179.441" stroke-width="17.569" stroke="rgb(33,33,33)" fill="none" stroke-linecap="round"></path><path d="M 190.157,179.441 C 190.073,180.465 190.034,180.467 189.824,181.475" stroke-width="17.641" stroke="rgb(33,33,33)" fill="none" stroke-linecap="round"></path><path d="M 189.824,181.475 C 189.641,182.354 189.560,182.337 189.370,183.214" stroke-width="17.772" stroke="rgb(33,33,33)" fill="none" stroke-linecap="round"></path><path d="M 189.370,183.214 C 189.227,183.870 189.342,183.906 189.158,184.542" stroke-width="17.962" stroke="rgb(33,33,33)" fill="none" stroke-linecap="round"></path><path d="M 189.158,184.542 C 189.069,184.849 189.015,184.837 188.825,185.099" stroke-width="18.251" stroke="rgb(33,33,33)" fill="none" stroke-linecap="round"></path><path d="M 188.825,185.099 C 188.608,185.397 188.549,185.356 188.345,185.662" stroke-width="18.518" stroke="rgb(33,33,33)" fill="none" stroke-linecap="round"></path><path d="M 188.345,185.662 C 188.133,185.981 188.064,186.021 187.993,186.348" stroke-width="18.737" stroke="rgb(33,33,33)" fill="none" stroke-linecap="round"></path><path d="M 187.993,186.348 C 187.971,186.447 188.051,186.492 188.159,186.514" stroke-width="18.995" stroke="rgb(33,33,33)" fill="none" stroke-linecap="round"></path><path d="M 188.159,186.514 C 188.456,186.575 188.486,186.559 188.804,186.514" stroke-width="19.087" stroke="rgb(33,33,33)" fill="none" stroke-linecap="round"></path><path d="M 188.804,186.514 C 189.653,186.393 189.640,186.256 190.493,186.181" stroke-width="18.943" stroke="rgb(33,33,33)" fill="none" stroke-linecap="round"></path><path d="M 190.493,186.181 C 191.538,186.089 191.547,186.176 192.600,186.181" stroke-width="18.750" stroke="rgb(33,33,33)" fill="none" stroke-linecap="round"></path><path d="M 192.600,186.181 C 194.836,186.192 194.843,186.078 197.072,186.213" stroke-width="18.135" stroke="rgb(33,33,33)" fill="none" stroke-linecap="round"></path><path d="M 197.072,186.213 C 199.836,186.380 199.826,186.538 202.587,186.785" stroke-width="17.479" stroke="rgb(33,33,33)" fill="none" stroke-linecap="round"></path><path d="M 202.587,186.785 C 205.238,187.022 205.243,186.963 207.895,187.181" stroke-width="17.025" stroke="rgb(33,33,33)" fill="none" stroke-linecap="round"></path><path d="M 207.895,187.181 C 210.174,187.368 210.259,188.003 212.450,187.595" stroke-width="16.800" stroke="rgb(33,33,33)" fill="none" stroke-linecap="round"></path><path d="M 212.450,187.595 C 215.662,186.997 216.442,187.301 218.702,185.170" stroke-width="16.853" stroke="rgb(33,33,33)" fill="none" stroke-linecap="round"></path><path d="M 218.702,185.170 C 220.962,183.039 220.365,182.211 221.490,179.071" stroke-width="16.982" stroke="rgb(33,33,33)" fill="none" stroke-linecap="round"></path><path d="M 221.490,179.071 C 222.244,176.967 221.944,176.869 222.461,174.682" stroke-width="17.118" stroke="rgb(33,33,33)" fill="none" stroke-linecap="round"></path><path d="M 222.461,174.682 C 222.679,173.761 222.814,173.747 222.960,172.855" stroke-width="17.466" stroke="rgb(33,33,33)" fill="none" stroke-linecap="round"></path><path d="M 222.960,172.855 C 222.980,172.731 222.833,172.769 222.794,172.651" stroke-width="17.929" stroke="rgb(33,33,33)" fill="none" stroke-linecap="round"></path><path d="M 222.794,172.651 C 222.750,172.519 222.743,172.282 222.794,172.355" stroke-width="18.329" stroke="rgb(33,33,33)" fill="none" stroke-linecap="round"></path><path d="M 222.794,172.355 C 222.981,172.622 222.982,172.873 223.270,173.331" stroke-width="17.963" stroke="rgb(33,33,33)" fill="none" stroke-linecap="round"></path><path d="M 223.270,173.331 C 223.690,173.999 223.704,174.000 224.211,174.606" stroke-width="18.054" stroke="rgb(33,33,33)" fill="none" stroke-linecap="round"></path><path d="M 224.211,174.606 C 224.565,175.029 224.537,175.085 224.993,175.389" stroke-width="18.224" stroke="rgb(33,33,33)" fill="none" stroke-linecap="round"></path><path d="M 224.993,175.389 C 225.860,175.967 225.877,176.003 226.856,176.369" stroke-width="18.183" stroke="rgb(33,33,33)" fill="none" stroke-linecap="round"></path><path d="M 226.856,176.369 C 227.949,176.778 227.985,176.900 229.136,176.940" stroke-width="18.103" stroke="rgb(33,33,33)" fill="none" stroke-linecap="round"></path><path d="M 229.136,176.940 C 230.405,176.984 230.423,176.775 231.696,176.537" stroke-width="17.994" stroke="rgb(33,33,33)" fill="none" stroke-linecap="round"></path><path d="M 231.696,176.537 C 233.011,176.291 233.066,176.417 234.313,175.971" stroke-width="17.892" stroke="rgb(33,33,33)" fill="none" stroke-linecap="round"></path><path d="M 234.313,175.971 C 235.291,175.621 235.547,175.713 236.145,174.945" stroke-width="17.977" stroke="rgb(33,33,33)" fill="none" stroke-linecap="round"></path><path d="M 236.145,174.945 C 236.791,174.115 236.713,173.883 236.801,172.774" stroke-width="17.979" stroke="rgb(33,33,33)" fill="none" stroke-linecap="round"></path><path d="M 236.801,172.774 C 236.905,171.461 236.840,171.406 236.530,170.102" stroke-width="18.039" stroke="rgb(33,33,33)" fill="none" stroke-linecap="round"></path><path d="M 236.530,170.102 C 235.254,164.743 235.314,164.689 233.628,159.448" stroke-width="17.729" stroke="rgb(33,33,33)" fill="none" stroke-linecap="round"></path><path d="M 233.628,159.448 C 233.002,157.503 232.962,157.465 231.905,155.729" stroke-width="16.650" stroke="rgb(33,33,33)" fill="none" stroke-linecap="round"></path><path d="M 231.905,155.729 C 231.086,154.384 230.930,154.472 229.876,153.287" stroke-width="16.662" stroke="rgb(33,33,33)" fill="none" stroke-linecap="round"></path><path d="M 229.876,153.287 C 229.275,152.611 229.301,152.563 228.596,152.007" stroke-width="17.135" stroke="rgb(33,33,33)" fill="none" stroke-linecap="round"></path><path d="M 228.596,152.007 C 227.977,151.519 227.914,151.263 227.227,151.199" stroke-width="17.335" stroke="rgb(33,33,33)" fill="none" stroke-linecap="round"></path><path d="M 227.227,151.199 C 226.718,151.152 226.566,151.341 226.205,151.785" stroke-width="17.708" stroke="rgb(33,33,33)" fill="none" stroke-linecap="round"></path><path d="M 226.205,151.785 C 225.349,152.838 225.352,152.950 224.792,154.194" stroke-width="17.984" stroke="rgb(33,33,33)" fill="none" stroke-linecap="round"></path><path d="M 224.792,154.194 C 224.646,154.519 224.792,154.559 224.792,154.924" stroke-width="17.616" stroke="rgb(33,33,33)" fill="none" stroke-linecap="round"></path><path d="M 224.792,154.924 C 224.792,155.199 224.792,155.199 224.792,155.473" stroke-width="17.837" stroke="rgb(33,33,33)" fill="none" stroke-linecap="round"></path><path d="M 224.792,155.473 C 224.792,155.555 224.792,155.555 224.792,155.636" stroke-width="18.228" stroke="rgb(33,33,33)" fill="none" stroke-linecap="round"></path><path d="M 224.792,155.636 C 224.792,155.750 224.792,155.750 224.792,155.864" stroke-width="18.593" stroke="rgb(33,33,33)" fill="none" stroke-linecap="round"></path><path d="M 224.792,155.864 C 224.792,156.031 224.703,156.078 224.792,156.197" stroke-width="18.866" stroke="rgb(33,33,33)" fill="none" stroke-linecap="round"></path><path d="M 224.792,156.197 C 224.952,156.411 225.188,156.324 225.291,156.530" stroke-width="19.102" stroke="rgb(33,33,33)" fill="none" stroke-linecap="round"></path><path d="M 225.291,156.530 C 225.355,156.657 225.033,156.805 225.125,156.863" stroke-width="19.236" stroke="rgb(33,33,33)" fill="none" stroke-linecap="round"></path><path d="M 225.125,156.863 C 225.296,156.971 225.471,156.863 225.818,156.863" stroke-width="19.280" stroke="rgb(33,33,33)" fill="none" stroke-linecap="round"></path><path d="M 225.818,156.863 C 226.235,156.863 226.241,156.919 226.652,156.863" stroke-width="19.273" stroke="rgb(33,33,33)" fill="none" stroke-linecap="round"></path><path d="M 226.652,156.863 C 227.469,156.752 227.484,156.768 228.275,156.530" stroke-width="19.123" stroke="rgb(33,33,33)" fill="none" stroke-linecap="round"></path><path d="M 228.275,156.530 C 229.332,156.212 229.314,156.148 230.347,155.750" stroke-width="18.840" stroke="rgb(33,33,33)" fill="none" stroke-linecap="round"></path><path d="M 230.347,155.750 C 231.787,155.195 231.783,155.183 233.221,154.623" stroke-width="18.473" stroke="rgb(33,33,33)" fill="none" stroke-linecap="round"></path><path d="M 233.221,154.623 C 234.587,154.091 234.707,154.303 235.956,153.567" stroke-width="18.220" stroke="rgb(33,33,33)" fill="none" stroke-linecap="round"></path><path d="M 235.956,153.567 C 237.449,152.688 237.459,152.612 238.704,151.393" stroke-width="17.914" stroke="rgb(33,33,33)" fill="none" stroke-linecap="round"></path><path d="M 238.704,151.393 C 239.905,150.217 240.123,150.280 240.848,148.778" stroke-width="17.661" stroke="rgb(33,33,33)" fill="none" stroke-linecap="round"></path><path d="M 240.848,148.778 C 242.325,145.721 242.836,145.638 243.108,142.276" stroke-width="17.541" stroke="rgb(33,33,33)" fill="none" stroke-linecap="round"></path><path d="M 243.108,142.276 C 243.541,136.930 243.153,136.743 242.258,131.363" stroke-width="17.186" stroke="rgb(33,33,33)" fill="none" stroke-linecap="round"></path><path d="M 242.258,131.363 C 241.279,125.472 240.882,125.529 239.360,119.734" stroke-width="16.599" stroke="rgb(33,33,33)" fill="none" stroke-linecap="round"></path><path d="M 239.360,119.734 C 237.704,113.428 237.734,113.414 235.903,107.161" stroke-width="16.035" stroke="rgb(33,33,33)" fill="none" stroke-linecap="round"></path><path d="M 235.903,107.161 C 235.488,105.745 235.517,105.715 234.869,104.396" stroke-width="16.423" stroke="rgb(33,33,33)" fill="none" stroke-linecap="round"></path><path d="M 234.869,104.396 C 234.157,102.946 234.134,102.915 233.182,101.623" stroke-width="16.703" stroke="rgb(33,33,33)" fill="none" stroke-linecap="round"></path><path d="M 233.182,101.623 C 232.843,101.163 232.808,101.099 232.287,100.892" stroke-width="17.173" stroke="rgb(33,33,33)" fill="none" stroke-linecap="round"></path><path d="M 232.287,100.892 C 231.468,100.567 231.285,100.382 230.501,100.559" stroke-width="17.489" stroke="rgb(33,33,33)" fill="none" stroke-linecap="round"></path><path d="M 230.501,100.559 C 229.933,100.688 229.717,100.883 229.583,101.504" stroke-width="17.813" stroke="rgb(33,33,33)" fill="none" stroke-linecap="round"></path><path d="M 229.583,101.504 C 229.027,104.074 228.705,104.320 229.121,106.941" stroke-width="17.561" stroke="rgb(33,33,33)" fill="none" stroke-linecap="round"></path><path d="M 229.121,106.941 C 229.567,109.748 229.798,109.876 231.308,112.360" stroke-width="17.319" stroke="rgb(33,33,33)" fill="none" stroke-linecap="round"></path><path d="M 231.308,112.360 C 235.266,118.871 235.602,118.704 240.058,124.931" stroke-width="16.098" stroke="rgb(33,33,33)" fill="none" stroke-linecap="round"></path><path d="M 240.058,124.931 C 242.219,127.950 242.176,127.992 244.541,130.852" stroke-width="15.998" stroke="rgb(33,33,33)" fill="none" stroke-linecap="round"></path><path d="M 244.541,130.852 C 248.718,135.905 248.705,135.935 253.142,140.757" stroke-width="15.369" stroke="rgb(33,33,33)" fill="none" stroke-linecap="round"></path><path d="M 253.142,140.757 C 255.057,142.838 255.131,142.777 257.246,144.657" stroke-width="15.585" stroke="rgb(33,33,33)" fill="none" stroke-linecap="round"></path><path d="M 257.246,144.657 C 259.948,147.058 259.883,147.272 262.776,149.318" stroke-width="15.609" stroke="rgb(33,33,33)" fill="none" stroke-linecap="round"></path><path d="M 262.776,149.318 C 263.320,149.702 263.595,149.865 264.120,149.518" stroke-width="16.216" stroke="rgb(33,33,33)" fill="none" stroke-linecap="round"></path><path d="M 264.120,149.518 C 265.907,148.336 266.208,148.157 267.400,146.259" stroke-width="16.363" stroke="rgb(33,33,33)" fill="none" stroke-linecap="round"></path><path d="M 267.400,146.259 C 268.409,144.653 268.053,144.408 268.521,142.510" stroke-width="16.597" stroke="rgb(33,33,33)" fill="none" stroke-linecap="round"></path><path d="M 268.521,142.510 C 269.159,139.921 269.110,139.905 269.613,137.286" stroke-width="16.615" stroke="rgb(33,33,33)" fill="none" stroke-linecap="round"></path><path d="M 269.613,137.286 C 269.724,136.707 269.699,136.701 269.750,136.114" stroke-width="17.096" stroke="rgb(33,33,33)" fill="none" stroke-linecap="round"></path><path d="M 269.750,136.114 C 269.768,135.912 269.750,135.643 269.750,135.707" stroke-width="17.596" stroke="rgb(33,33,33)" fill="none" stroke-linecap="round"></path><path d="M 269.750,135.707 C 269.750,135.828 269.646,136.114 269.750,136.484" stroke-width="17.970" stroke="rgb(33,33,33)" fill="none" stroke-linecap="round"></path><path d="M 269.750,136.484 C 270.122,137.816 269.915,138.043 270.702,139.112" stroke-width="18.032" stroke="rgb(33,33,33)" fill="none" stroke-linecap="round"></path><path d="M 270.702,139.112 C 271.350,139.993 271.644,139.777 272.621,140.385" stroke-width="18.197" stroke="rgb(33,33,33)" fill="none" stroke-linecap="round"></path><path d="M 272.621,140.385 C 273.459,140.907 273.417,141.064 274.331,141.372" stroke-width="17.517" stroke="rgb(33,33,33)" fill="none" stroke-linecap="round"></path><path d="M 274.331,141.372 C 275.130,141.641 275.191,141.551 276.047,141.538" stroke-width="17.410" stroke="rgb(33,33,33)" fill="none" stroke-linecap="round"></path><path d="M 276.047,141.538 C 276.887,141.526 276.971,141.655 277.723,141.322" stroke-width="17.603" stroke="rgb(33,33,33)" fill="none" stroke-linecap="round"></path><path d="M 277.723,141.322 C 278.905,140.799 279.323,140.891 279.915,139.825" stroke-width="17.612" stroke="rgb(33,33,33)" fill="none" stroke-linecap="round"></path><path d="M 279.915,139.825 C 280.679,138.451 280.380,138.143 280.435,136.443" stroke-width="17.417" stroke="rgb(33,33,33)" fill="none" stroke-linecap="round"></path><path d="M 280.435,136.443 C 280.502,134.340 280.477,134.305 280.159,132.220" stroke-width="17.163" stroke="rgb(33,33,33)" fill="none" stroke-linecap="round"></path><path d="M 280.159,132.220 C 279.798,129.860 279.952,129.741 279.077,127.553" stroke-width="16.915" stroke="rgb(33,33,33)" fill="none" stroke-linecap="round"></path><path d="M 279.077,127.553 C 278.444,125.971 278.356,125.874 277.142,124.679" stroke-width="17.007" stroke="rgb(33,33,33)" fill="none" stroke-linecap="round"></path><path d="M 277.142,124.679 C 275.705,123.265 275.537,123.318 273.775,122.335" stroke-width="17.148" stroke="rgb(33,33,33)" fill="none" stroke-linecap="round"></path><path d="M 273.775,122.335 C 273.230,122.031 273.155,122.133 272.527,122.104" stroke-width="17.535" stroke="rgb(33,33,33)" fill="none" stroke-linecap="round"></path><path d="M 272.527,122.104 C 271.848,122.073 271.844,122.175 271.160,122.214" stroke-width="17.862" stroke="rgb(33,33,33)" fill="none" stroke-linecap="round"></path><path d="M 271.160,122.214 C 270.880,122.230 270.829,122.117 270.598,122.214" stroke-width="18.210" stroke="rgb(33,33,33)" fill="none" stroke-linecap="round"></path><path d="M 270.598,122.214 C 270.430,122.284 270.431,122.590 270.362,122.548" stroke-width="18.529" stroke="rgb(33,33,33)" fill="none" stroke-linecap="round"></path><path d="M 270.362,122.548 C 270.271,122.493 270.181,122.239 270.278,122.020" stroke-width="18.774" stroke="rgb(33,33,33)" fill="none" stroke-linecap="round"></path><path d="M 270.278,122.020 C 270.424,121.690 270.672,121.810 270.847,121.450" stroke-width="18.736" stroke="rgb(33,33,33)" fill="none" stroke-linecap="round"></path><path d="M 270.847,121.450 C 272.385,118.285 272.194,118.173 273.703,114.971" stroke-width="17.641" stroke="rgb(33,33,33)" fill="none" stroke-linecap="round"></path><path d="M 273.703,114.971 C 275.343,111.490 275.620,111.612 277.145,108.085" stroke-width="16.673" stroke="rgb(33,33,33)" fill="none" stroke-linecap="round"></path><path d="M 277.145,108.085 C 278.559,104.814 278.455,104.761 279.580,101.375" stroke-width="16.127" stroke="rgb(33,33,33)" fill="none" stroke-linecap="round"></path><path d="M 279.580,101.375 C 280.831,97.611 280.918,97.625 281.897,93.786" stroke-width="15.533" stroke="rgb(33,33,33)" fill="none" stroke-linecap="round"></path><path d="M 281.897,93.786 C 282.604,91.015 282.467,90.978 282.953,88.155" stroke-width="15.498" stroke="rgb(33,33,33)" fill="none" stroke-linecap="round"></path><path d="M 282.953,88.155 C 283.308,86.091 283.274,86.085 283.579,84.013" stroke-width="15.642" stroke="rgb(33,33,33)" fill="none" stroke-linecap="round"></path><path d="M 283.579,84.013 C 283.871,82.025 283.900,82.028 284.147,80.034" stroke-width="15.748" stroke="rgb(33,33,33)" fill="none" stroke-linecap="round"></path><path d="M 284.147,80.034 C 284.312,78.705 284.338,78.704 284.403,77.367" stroke-width="16.091" stroke="rgb(33,33,33)" fill="none" stroke-linecap="round"></path><path d="M 284.403,77.367 C 284.466,76.073 284.468,76.065 284.403,74.772" stroke-width="16.443" stroke="rgb(33,33,33)" fill="none" stroke-linecap="round"></path><path d="M 284.403,74.772 C 284.358,73.889 284.183,73.893 284.183,73.015" stroke-width="16.884" stroke="rgb(33,33,33)" fill="none" stroke-linecap="round"></path><path d="M 284.183,73.015 C 284.183,72.172 284.233,72.131 284.403,71.329" stroke-width="17.235" stroke="rgb(33,33,33)" fill="none" stroke-linecap="round"></path><path d="M 284.403,71.329 C 284.421,71.244 284.497,71.183 284.560,71.241" stroke-width="17.744" stroke="rgb(33,33,33)" fill="none" stroke-linecap="round"></path><path d="M 284.560,71.241 C 285.427,72.045 285.607,72.007 286.262,73.054" stroke-width="18.026" stroke="rgb(33,33,33)" fill="none" stroke-linecap="round"></path><path d="M 286.262,73.054 C 288.071,75.943 287.975,76.033 289.488,79.112" stroke-width="11.344" stroke="rgb(33,33,33)" fill="none" stroke-linecap="round"></path><path d="M 289.488,79.112 C 292.744,85.736 292.899,85.676 295.800,92.460" stroke-width="9.127" stroke="rgb(33,33,33)" fill="none" stroke-linecap="round"></path><path d="M 295.800,92.460 C 299.347,100.756 299.681,100.678 302.385,109.272" stroke-width="9.140" stroke="rgb(33,33,33)" fill="none" stroke-linecap="round"></path><path d="M 302.385,109.272 C 305.533,119.275 305.534,119.350 307.504,129.654" stroke-width="9.123" stroke="rgb(33,33,33)" fill="none" stroke-linecap="round"></path><path d="M 307.504,129.654 C 309.464,139.906 308.737,140.039 310.244,150.384" stroke-width="9.171" stroke="rgb(33,33,33)" fill="none" stroke-linecap="round"></path><path d="M 310.244,150.384 C 311.206,156.987 311.600,156.948 312.442,163.550" stroke-width="9.611" stroke="rgb(33,33,33)" fill="none" stroke-linecap="round"></path><path d="M 312.442,163.550 C 312.667,165.311 312.571,166.978 312.377,167.110" stroke-width="10.579" stroke="rgb(33,33,33)" fill="none" stroke-linecap="round"></path><path d="M 312.377,167.110 C 312.206,167.226 311.972,165.591 311.711,164.046" stroke-width="11.530" stroke="rgb(33,33,33)" fill="none" stroke-linecap="round"></path><path d="M 311.711,164.046 C 311.306,161.652 311.234,161.654 311.045,159.232" stroke-width="12.306" stroke="rgb(33,33,33)" fill="none" stroke-linecap="round"></path><path d="M 311.045,159.232 C 310.182,148.181 310.121,148.172 309.607,137.101" stroke-width="12.003" stroke="rgb(33,33,33)" fill="none" stroke-linecap="round"></path><path d="M 309.607,137.101 C 309.455,133.819 309.598,133.812 309.713,130.527" stroke-width="12.602" stroke="rgb(33,33,33)" fill="none" stroke-linecap="round"></path><path d="M 309.713,130.527 C 309.887,125.554 310.184,125.542 310.184,120.584" stroke-width="12.964" stroke="rgb(33,33,33)" fill="none" stroke-linecap="round"></path><path d="M 310.184,120.584 C 310.184,119.120 309.782,119.147 309.713,117.683" stroke-width="13.737" stroke="rgb(33,33,33)" fill="none" stroke-linecap="round"></path><path d="M 309.713,117.683 C 309.547,114.168 309.368,114.116 309.713,110.626" stroke-width="14.145" stroke="rgb(33,33,33)" fill="none" stroke-linecap="round"></path><path d="M 309.713,110.626 C 309.984,107.883 310.338,107.924 310.944,105.217" stroke-width="14.553" stroke="rgb(33,33,33)" fill="none" stroke-linecap="round"></path><path d="M 310.944,105.217 C 311.799,101.397 311.668,101.365 312.636,97.573" stroke-width="14.719" stroke="rgb(33,33,33)" fill="none" stroke-linecap="round"></path><path d="M 312.636,97.573 C 314.792,89.128 314.868,89.145 317.193,80.744" stroke-width="14.712" stroke="rgb(33,33,33)" fill="none" stroke-linecap="round"></path><path d="M 317.193,80.744 C 318.262,76.881 318.398,76.917 319.424,73.044" stroke-width="13.233" stroke="rgb(33,33,33)" fill="none" stroke-linecap="round"></path><path d="M 319.424,73.044 C 320.113,70.446 320.049,70.428 320.623,67.801" stroke-width="13.646" stroke="rgb(33,33,33)" fill="none" stroke-linecap="round"></path><path d="M 320.623,67.801 C 320.933,66.382 320.862,66.365 321.192,64.952" stroke-width="14.367" stroke="rgb(33,33,33)" fill="none" stroke-linecap="round"></path><path d="M 321.192,64.952 C 321.401,64.058 321.489,64.079 321.702,63.186" stroke-width="15.086" stroke="rgb(33,33,33)" fill="none" stroke-linecap="round"></path><path d="M 321.702,63.186 C 321.911,62.310 321.910,62.303 322.035,61.413" stroke-width="15.719" stroke="rgb(33,33,33)" fill="none" stroke-linecap="round"></path><path d="M 322.035,61.413 C 322.077,61.116 322.035,61.112 322.035,60.811" stroke-width="16.391" stroke="rgb(33,33,33)" fill="none" stroke-linecap="round"></path><path d="M 322.035,60.811 C 322.035,60.386 322.127,60.311 322.035,59.961" stroke-width="16.944" stroke="rgb(33,33,33)" fill="none" stroke-linecap="round"></path><path d="M 322.035,59.961 C 322.009,59.862 321.853,60.001 321.800,59.914" stroke-width="17.487" stroke="rgb(33,33,33)" fill="none" stroke-linecap="round"></path><path d="M 321.800,59.914 C 321.687,59.728 321.739,59.665 321.702,59.414" stroke-width="17.451" stroke="rgb(33,33,33)" fill="none" stroke-linecap="round"></path><path d="M 321.702,59.414 C 321.690,59.332 321.702,59.331 321.702,59.247" stroke-width="17.894" stroke="rgb(33,33,33)" fill="none" stroke-linecap="round"></path><path d="M 321.702,59.247 C 321.702,59.061 321.702,59.061 321.702,58.874" stroke-width="18.248" stroke="rgb(33,33,33)" fill="none" stroke-linecap="round"></path><path d="M 321.702,58.874 C 321.702,58.727 321.702,58.727 321.702,58.581" stroke-width="18.585" stroke="rgb(33,33,33)" fill="none" stroke-linecap="round"></path><path d="M 321.702,58.581 C 321.702,58.383 321.702,58.383 321.702,58.185" stroke-width="18.814" stroke="rgb(33,33,33)" fill="none" stroke-linecap="round"></path><path d="M 321.702,58.185 C 321.702,58.050 321.702,58.050 321.702,57.915" stroke-width="19.065" stroke="rgb(33,33,33)" fill="none" stroke-linecap="round"></path><path d="M 321.702,57.915 C 321.702,57.748 321.702,57.531 321.702,57.581" stroke-width="19.267" stroke="rgb(33,33,33)" fill="none" stroke-linecap="round"></path><path d="M 321.702,57.581 C 321.702,57.673 321.702,57.889 321.702,58.198" stroke-width="19.436" stroke="rgb(33,33,33)" fill="none" stroke-linecap="round"></path><path d="M 321.702,58.198 C 321.702,58.973 321.627,58.978 321.702,59.747" stroke-width="19.254" stroke="rgb(33,33,33)" fill="none" stroke-linecap="round"></path><path d="M 321.702,59.747 C 321.822,60.978 321.869,60.977 322.092,62.197" stroke-width="18.915" stroke="rgb(33,33,33)" fill="none" stroke-linecap="round"></path><path d="M 322.092,62.197 C 322.497,64.409 322.528,64.403 322.959,66.610" stroke-width="18.254" stroke="rgb(33,33,33)" fill="none" stroke-linecap="round"></path><path d="M 322.959,66.610 C 323.456,69.156 323.283,69.201 323.948,71.704" stroke-width="17.573" stroke="rgb(33,33,33)" fill="none" stroke-linecap="round"></path><path d="M 323.948,71.704 C 324.858,75.129 325.059,75.076 326.108,78.467" stroke-width="16.864" stroke="rgb(33,33,33)" fill="none" stroke-linecap="round"></path><path d="M 326.108,78.467 C 327.103,81.683 326.784,81.804 328.035,84.918" stroke-width="16.268" stroke="rgb(33,33,33)" fill="none" stroke-linecap="round"></path><path d="M 328.035,84.918 C 329.789,89.285 329.914,89.262 332.119,93.429" stroke-width="16.223" stroke="rgb(33,33,33)" fill="none" stroke-linecap="round"></path><path d="M 332.119,93.429 C 333.668,96.357 335.128,95.896 335.543,99.108" stroke-width="16.461" stroke="rgb(33,33,33)" fill="none" stroke-linecap="round"></path><path d="M 335.543,99.108 C 337.034,110.657 338.647,111.573 335.930,122.950" stroke-width="15.336" stroke="rgb(33,33,33)" fill="none" stroke-linecap="round"></path><path d="M 335.930,122.950 C 331.462,141.655 330.029,141.887 321.173,159.271" stroke-width="13.092" stroke="rgb(33,33,33)" fill="none" stroke-linecap="round"></path><path d="M 321.173,159.271 C 314.329,172.704 314.382,173.161 304.530,184.584" stroke-width="12.186" stroke="rgb(33,33,33)" fill="none" stroke-linecap="round"></path><path d="M 304.530,184.584 C 284.252,208.094 283.314,207.495 260.912,229.138" stroke-width="9.984" stroke="rgb(33,33,33)" fill="none" stroke-linecap="round"></path><path d="M 260.912,229.138 C 250.283,239.407 249.496,238.555 238.468,248.408" stroke-width="9.834" stroke="rgb(33,33,33)" fill="none" stroke-linecap="round"></path><path d="M 238.468,248.408 C 222.151,262.986 222.202,263.056 206.221,278.000" stroke-width="9.422" stroke="rgb(33,33,33)" fill="none" stroke-linecap="round"></path><path d="M 206.221,278.000 C 201.949,281.995 202.339,282.451 197.961,286.286" stroke-width="9.996" stroke="rgb(33,33,33)" fill="none" stroke-linecap="round"></path><path d="M 197.961,286.286 C 195.973,288.028 195.646,287.863 193.488,289.154" stroke-width="10.822" stroke="rgb(33,33,33)" fill="none" stroke-linecap="round"></path><path d="M 193.488,289.154 C 193.410,289.201 193.488,289.057 193.488,288.961" stroke-width="11.924" stroke="rgb(33,33,33)" fill="none" stroke-linecap="round"></path><path d="M 193.488,288.961 C 193.488,288.878 193.432,288.822 193.488,288.794" stroke-width="12.987" stroke="rgb(33,33,33)" fill="none" stroke-linecap="round"></path><path d="M 193.488,288.794 C 193.599,288.738 193.655,288.794 193.821,288.794" stroke-width="13.986" stroke="rgb(33,33,33)" fill="none" stroke-linecap="round"></path><path d="M 193.821,288.794 C 193.988,288.794 193.988,288.794 194.154,288.794" stroke-width="14.899" stroke="rgb(33,33,33)" fill="none" stroke-linecap="round"></path><path d="M 194.154,288.794 C 194.321,288.794 194.321,288.794 194.487,288.794" stroke-width="15.702" stroke="rgb(33,33,33)" fill="none" stroke-linecap="round"></path><path d="M 194.487,288.794 C 194.654,288.794 194.654,288.794 194.820,288.794" stroke-width="16.421" stroke="rgb(33,33,33)" fill="none" stroke-linecap="round"></path><path d="M 194.820,288.794 C 194.987,288.794 195.009,288.855 195.153,288.794" stroke-width="17.045" stroke="rgb(33,33,33)" fill="none" stroke-linecap="round"></path><path d="M 195.153,288.794 C 195.342,288.715 195.332,288.668 195.486,288.514" stroke-width="17.584" stroke="rgb(33,33,33)" fill="none" stroke-linecap="round"></path></svg>