<svg xmlns="http://www.w3.org/2000/svg" xmlns:xlink="http://www.w3.org/1999/xlink" viewBox="0 0 360 500"><path d="M 87.715,219.625 C 83.921,205.912 83.367,206.038 80.127,192.199" stroke-width="19.254" stroke="rgb(33,33,33)" fill="none" stroke-linecap="round"></path><path d="M 80.127,192.199 C 77.666,181.688 77.556,181.626 76.313,170.926" stroke-width="15.629" stroke="rgb(33,33,33)" fill="none" stroke-linecap="round"></path><path d="M 76.313,170.926 C 75.566,164.494 75.261,164.285 76.147,157.935" stroke-width="14.575" stroke="rgb(33,33,33)" fill="none" stroke-linecap="round"></path><path d="M 76.147,157.935 C 76.930,152.321 77.059,151.999 79.651,146.998" stroke-width="13.998" stroke="rgb(33,33,33)" fill="none" stroke-linecap="round"></path><path d="M 79.651,146.998 C 81.576,143.283 82.103,143.425 85.181,140.502" stroke-width="13.946" stroke="rgb(33,33,33)" fill="none" stroke-linecap="round"></path><path d="M 85.181,140.502 C 88.666,137.192 88.737,137.152 92.777,134.532" stroke-width="13.838" stroke="rgb(33,33,33)" fill="none" stroke-linecap="round"></path><path d="M 92.777,134.532 C 97.955,131.173 98.042,131.215 103.617,128.543" stroke-width="13.085" stroke="rgb(33,33,33)" fill="none" stroke-linecap="round"></path><path d="M 103.617,128.543 C 109.480,125.733 109.485,125.562 115.652,123.567" stroke-width="12.564" stroke="rgb(33,33,33)" fill="none" stroke-linecap="round"></path><path d="M 115.652,123.567 C 119.807,122.222 120.366,121.444 124.261,121.864" stroke-width="12.664" stroke="rgb(33,33,33)" fill="none" stroke-linecap="round"></path><path d="M 124.261,121.864 C 126.041,122.056 127.356,123.204 127.002,124.792" stroke-width="13.399" stroke="rgb(33,33,33)" fill="none" stroke-linecap="round"></path><path d="M 127.002,124.792 C 126.234,128.241 124.870,128.668 122.018,131.938" stroke-width="13.667" stroke="rgb(33,33,33)" fill="none" stroke-linecap="round"></path><path d="M 122.018,131.938 C 117.825,136.746 117.534,136.515 112.913,140.949" stroke-width="12.126" stroke="rgb(33,33,33)" fill="none" stroke-linecap="round"></path><path d="M 112.913,140.949 C 108.726,144.968 108.438,144.689 104.402,148.844" stroke-width="11.709" stroke="rgb(33,33,33)" fill="none" stroke-linecap="round"></path><path d="M 104.402,148.844 C 101.659,151.667 100.786,151.518 99.355,154.906" stroke-width="11.991" stroke="rgb(33,33,33)" fill="none" stroke-linecap="round"></path><path d="M 99.355,154.906 C 98.423,157.114 98.387,158.080 99.675,160.036" stroke-width="12.566" stroke="rgb(33,33,33)" fill="none" stroke-linecap="round"></path><path d="M 99.675,160.036 C 101.558,162.896 102.377,162.850 105.697,164.538" stroke-width="12.836" stroke="rgb(33,33,33)" fill="none" stroke-linecap="round"></path><path d="M 105.697,164.538 C 110.959,167.213 111.233,166.749 116.840,168.762" stroke-width="12.569" stroke="rgb(33,33,33)" fill="none" stroke-linecap="round"></path><path d="M 116.840,168.762 C 123.138,171.023 123.252,170.717 129.507,173.085" stroke-width="12.227" stroke="rgb(33,33,33)" fill="none" stroke-linecap="round"></path><path d="M 129.507,173.085 C 134.693,175.048 134.885,174.791 139.722,177.423" stroke-width="12.232" stroke="rgb(33,33,33)" fill="none" stroke-linecap="round"></path><path d="M 139.722,177.423 C 142.733,179.062 143.697,178.979 145.204,181.627" stroke-width="12.572" stroke="rgb(33,33,33)" fill="none" stroke-linecap="round"></path><path d="M 145.204,181.627 C 146.241,183.449 145.960,184.441 144.811,186.364" stroke-width="13.111" stroke="rgb(33,33,33)" fill="none" stroke-linecap="round"></path><path d="M 144.811,186.364 C 142.797,189.735 142.101,189.598 138.878,192.214" stroke-width="13.204" stroke="rgb(33,33,33)" fill="none" stroke-linecap="round"></path><path d="M 138.878,192.214 C 134.513,195.757 134.450,195.766 129.634,198.683" stroke-width="13.152" stroke="rgb(33,33,33)" fill="none" stroke-linecap="round"></path><path d="M 129.634,198.683 C 124.187,201.982 124.154,202.023 118.353,204.646" stroke-width="12.546" stroke="rgb(33,33,33)" fill="none" stroke-linecap="round"></path><path d="M 118.353,204.646 C 112.914,207.106 112.822,206.959 107.153,208.849" stroke-width="12.408" stroke="rgb(33,33,33)" fill="none" stroke-linecap="round"></path><path d="M 107.153,208.849 C 102.550,210.384 102.495,210.226 97.808,211.496" stroke-width="12.385" stroke="rgb(33,33,33)" fill="none" stroke-linecap="round"></path><path d="M 97.808,211.496 C 95.297,212.176 95.107,211.830 92.758,212.749" stroke-width="12.904" stroke="rgb(33,33,33)" fill="none" stroke-linecap="round"></path><circle r="6" cx="171.1230010986328" cy="194.156005859375" fill="rgb(33,33,33)"></circle><path d="M 210.938,198.531 C 203.590,178.334 200.653,178.904 196.243,158.138" stroke-width="18.216" stroke="rgb(33,33,33)" fill="none" stroke-linecap="round"></path><path d="M 196.243,158.138 C 192.724,141.565 193.771,140.806 195.080,123.854" stroke-width="13.564" stroke="rgb(33,33,33)" fill="none" stroke-linecap="round"></path><path d="M 195.080,123.854 C 196.009,111.826 196.544,111.473 200.718,100.177" stroke-width="11.922" stroke="rgb(33,33,33)" fill="none" stroke-linecap="round"></path><path d="M 200.718,100.177 C 203.613,92.343 203.625,91.566 209.217,85.593" stroke-width="12.058" stroke="rgb(33,33,33)" fill="none" stroke-linecap="round"></path><path d="M 209.217,85.593 C 213.842,80.653 214.693,80.546 221.151,78.350" stroke-width="11.267" stroke="rgb(33,33,33)" fill="none" stroke-linecap="round"></path><path d="M 221.151,78.350 C 227.831,76.078 228.537,75.861 235.493,76.656" stroke-width="10.779" stroke="rgb(33,33,33)" fill="none" stroke-linecap="round"></path><path d="M 235.493,76.656 C 241.588,77.353 242.897,77.247 247.253,81.333" stroke-width="10.881" stroke="rgb(33,33,33)" fill="none" stroke-linecap="round"></path><path d="M 247.253,81.333 C 252.612,86.359 253.349,87.511 254.923,94.881" stroke-width="10.817" stroke="rgb(33,33,33)" fill="none" stroke-linecap="round"></path><path d="M 254.923,94.881 C 257.185,105.474 256.694,106.347 254.924,117.259" stroke-width="10.327" stroke="rgb(33,33,33)" fill="none" stroke-linecap="round"></path><path d="M 254.924,117.259 C 253.013,129.035 252.296,129.230 247.561,140.258" stroke-width="9.780" stroke="rgb(33,33,33)" fill="none" stroke-linecap="round"></path><path d="M 247.561,140.258 C 243.933,148.706 243.850,149.037 238.198,156.213" stroke-width="9.763" stroke="rgb(33,33,33)" fill="none" stroke-linecap="round"></path><path d="M 238.198,156.213 C 233.965,161.587 233.517,161.628 227.792,165.359" stroke-width="9.963" stroke="rgb(33,33,33)" fill="none" stroke-linecap="round"></path><path d="M 227.792,165.359 C 223.446,168.191 223.105,168.238 218.057,169.340" stroke-width="10.386" stroke="rgb(33,33,33)" fill="none" stroke-linecap="round"></path><path d="M 218.057,169.340 C 213.712,170.289 213.282,170.222 209.006,169.462" stroke-width="10.851" stroke="rgb(33,33,33)" fill="none" stroke-linecap="round"></path><path d="M 209.006,169.462 C 207.067,169.117 205.938,168.642 205.627,167.129" stroke-width="11.609" stroke="rgb(33,33,33)" fill="none" stroke-linecap="round"></path><path d="M 205.627,167.129 C 205.283,165.456 206.216,164.777 207.696,163.089" stroke-width="12.281" stroke="rgb(33,33,33)" fill="none" stroke-linecap="round"></path><path d="M 207.696,163.089 C 211.848,158.354 211.521,157.327 216.892,154.284" stroke-width="12.134" stroke="rgb(33,33,33)" fill="none" stroke-linecap="round"></path><path d="M 216.892,154.284 C 222.333,151.202 223.069,150.985 229.321,150.839" stroke-width="11.862" stroke="rgb(33,33,33)" fill="none" stroke-linecap="round"></path><path d="M 229.321,150.839 C 235.594,150.693 236.091,151.185 241.941,153.699" stroke-width="11.947" stroke="rgb(33,33,33)" fill="none" stroke-linecap="round"></path><path d="M 241.941,153.699 C 248.111,156.351 247.653,157.433 253.362,161.172" stroke-width="11.858" stroke="rgb(33,33,33)" fill="none" stroke-linecap="round"></path><path d="M 253.362,161.172 C 258.148,164.307 257.739,165.648 262.931,167.448" stroke-width="11.526" stroke="rgb(33,33,33)" fill="none" stroke-linecap="round"></path><path d="M 262.931,167.448 C 266.930,168.835 267.975,169.141 271.744,167.546" stroke-width="11.848" stroke="rgb(33,33,33)" fill="none" stroke-linecap="round"></path><path d="M 271.744,167.546 C 276.133,165.689 276.562,164.791 279.246,160.543" stroke-width="11.996" stroke="rgb(33,33,33)" fill="none" stroke-linecap="round"></path><path d="M 279.246,160.543 C 283.468,153.861 283.259,153.383 285.556,145.686" stroke-width="11.557" stroke="rgb(33,33,33)" fill="none" stroke-linecap="round"></path><path d="M 285.556,145.686 C 288.553,135.645 287.989,135.429 289.834,125.068" stroke-width="10.858" stroke="rgb(33,33,33)" fill="none" stroke-linecap="round"></path><path d="M 289.834,125.068 C 291.678,114.711 291.411,114.662 292.935,104.249" stroke-width="10.357" stroke="rgb(33,33,33)" fill="none" stroke-linecap="round"></path><path d="M 292.935,104.249 C 293.599,99.717 293.745,99.367 294.210,95.177" stroke-width="10.818" stroke="rgb(33,33,33)" fill="none" stroke-linecap="round"></path><path d="M 294.210,95.177 C 294.232,94.982 293.958,95.273 293.908,95.479" stroke-width="11.892" stroke="rgb(33,33,33)" fill="none" stroke-linecap="round"></path><path d="M 293.908,95.479 C 293.048,99.037 292.939,99.057 292.391,102.705" stroke-width="12.315" stroke="rgb(33,33,33)" fill="none" stroke-linecap="round"></path><path d="M 292.391,102.705 C 290.923,112.477 290.507,112.470 289.877,122.319" stroke-width="11.382" stroke="rgb(33,33,33)" fill="none" stroke-linecap="round"></path><path d="M 289.877,122.319 C 289.192,133.029 289.437,133.082 289.760,143.823" stroke-width="10.948" stroke="rgb(33,33,33)" fill="none" stroke-linecap="round"></path><path d="M 289.760,143.823 C 290.105,155.299 290.470,155.289 291.214,166.753" stroke-width="10.385" stroke="rgb(33,33,33)" fill="none" stroke-linecap="round"></path><path d="M 291.214,166.753 C 291.875,176.937 292.158,176.926 292.569,187.118" stroke-width="10.049" stroke="rgb(33,33,33)" fill="none" stroke-linecap="round"></path><path d="M 292.569,187.118 C 292.872,194.616 293.422,194.723 292.642,202.132" stroke-width="10.233" stroke="rgb(33,33,33)" fill="none" stroke-linecap="round"></path><path d="M 292.642,202.132 C 292.025,207.985 292.662,208.773 289.775,213.642" stroke-width="10.575" stroke="rgb(33,33,33)" fill="none" stroke-linecap="round"></path><path d="M 289.775,213.642 C 287.102,218.149 286.298,218.422 281.522,220.883" stroke-width="10.781" stroke="rgb(33,33,33)" fill="none" stroke-linecap="round"></path><path d="M 281.522,220.883 C 274.864,224.314 274.335,223.634 266.907,225.428" stroke-width="10.756" stroke="rgb(33,33,33)" fill="none" stroke-linecap="round"></path><path d="M 266.907,225.428 C 256.470,227.949 256.389,227.697 245.792,229.513" stroke-width="10.253" stroke="rgb(33,33,33)" fill="none" stroke-linecap="round"></path><path d="M 245.792,229.513 C 232.864,231.729 232.829,231.534 219.857,233.493" stroke-width="9.606" stroke="rgb(33,33,33)" fill="none" stroke-linecap="round"></path><path d="M 219.857,233.493 C 206.527,235.506 206.515,235.430 193.187,237.456" stroke-width="9.592" stroke="rgb(33,33,33)" fill="none" stroke-linecap="round"></path><path d="M 193.187,237.456 C 183.000,239.005 182.949,238.748 172.827,240.642" stroke-width="9.359" stroke="rgb(33,33,33)" fill="none" stroke-linecap="round"></path><path d="M 172.827,240.642 C 165.952,241.928 165.860,241.782 159.194,243.816" stroke-width="9.159" stroke="rgb(33,33,33)" fill="none" stroke-linecap="round"></path><path d="M 159.194,243.816 C 155.567,244.922 154.486,245.075 152.241,246.922" stroke-width="9.782" stroke="rgb(33,33,33)" fill="none" stroke-linecap="round"></path><circle r="6" cx="317.1090087890625" cy="181.343994140625" fill="rgb(33,33,33)"></circle><circle r="6" cx="275.0979919433594" cy="84.93798828125" fill="rgb(33,33,33)"></circle></svg>