<svg xmlns="http://www.w3.org/2000/svg" xmlns:xlink="http://www.w3.org/1999/xlink" viewBox="0 0 360 500"><path d="M 158.000,238.000 C 153.000,230.000 153.436,228.075 148.000,222.000" stroke-width="15.694" stroke="rgb(33,33,33)" fill="none" stroke-linecap="round"></path><path d="M 148.000,222.000 C 147.061,220.950 146.610,222.852 145.250,223.750" stroke-width="14.514" stroke="rgb(33,33,33)" fill="none" stroke-linecap="round"></path><path d="M 145.250,223.750 C 139.985,227.227 139.211,226.386 134.750,230.750" stroke-width="14.461" stroke="rgb(33,33,33)" fill="none" stroke-linecap="round"></path><path d="M 134.750,230.750 C 127.711,237.636 127.552,237.980 122.250,246.250" stroke-width="13.237" stroke="rgb(33,33,33)" fill="none" stroke-linecap="round"></path><path d="M 122.250,246.250 C 119.887,249.935 121.340,250.672 119.420,254.660" stroke-width="13.491" stroke="rgb(33,33,33)" fill="none" stroke-linecap="round"></path><path d="M 119.420,254.660 C 113.215,267.547 111.617,266.940 106.000,280.000" stroke-width="11.650" stroke="rgb(33,33,33)" fill="none" stroke-linecap="round"></path><path d="M 106.000,280.000 C 103.801,285.113 104.846,285.494 103.788,291.007" stroke-width="11.699" stroke="rgb(33,33,33)" fill="none" stroke-linecap="round"></path><path d="M 103.788,291.007 C 102.713,296.609 101.598,296.701 101.734,302.230" stroke-width="11.409" stroke="rgb(33,33,33)" fill="none" stroke-linecap="round"></path><path d="M 101.734,302.230 C 101.829,306.073 101.145,309.638 104.250,309.750" stroke-width="11.856" stroke="rgb(33,33,33)" fill="none" stroke-linecap="round"></path><path d="M 104.250,309.750 C 112.811,310.060 114.987,307.107 125.066,303.075" stroke-width="12.064" stroke="rgb(33,33,33)" fill="none" stroke-linecap="round"></path><path d="M 125.066,303.075 C 128.737,301.607 128.745,301.330 131.750,298.750" stroke-width="11.775" stroke="rgb(33,33,33)" fill="none" stroke-linecap="round"></path><path d="M 131.750,298.750 C 137.087,294.167 137.176,294.130 141.750,288.750" stroke-width="11.477" stroke="rgb(33,33,33)" fill="none" stroke-linecap="round"></path><path d="M 141.750,288.750 C 152.801,275.755 153.504,276.147 163.000,262.000" stroke-width="10.368" stroke="rgb(33,33,33)" fill="none" stroke-linecap="round"></path><path d="M 163.000,262.000 C 175.144,243.907 175.461,243.844 185.029,224.270" stroke-width="9.522" stroke="rgb(33,33,33)" fill="none" stroke-linecap="round"></path><path d="M 185.029,224.270 C 194.807,204.267 194.557,203.936 201.691,182.846" stroke-width="9.878" stroke="rgb(33,33,33)" fill="none" stroke-linecap="round"></path><path d="M 201.691,182.846 C 205.852,170.545 205.567,170.253 207.618,157.487" stroke-width="9.258" stroke="rgb(33,33,33)" fill="none" stroke-linecap="round"></path><path d="M 207.618,157.487 C 208.346,152.955 207.305,152.843 207.250,148.250" stroke-width="9.892" stroke="rgb(33,33,33)" fill="none" stroke-linecap="round"></path><path d="M 207.250,148.250 C 207.246,147.952 207.679,147.883 207.500,147.704" stroke-width="10.940" stroke="rgb(33,33,33)" fill="none" stroke-linecap="round"></path><path d="M 207.500,147.704 C 206.804,147.008 206.184,145.672 205.500,146.500" stroke-width="11.915" stroke="rgb(33,33,33)" fill="none" stroke-linecap="round"></path><path d="M 205.500,146.500 C 198.515,154.958 197.898,155.891 192.162,166.275" stroke-width="11.912" stroke="rgb(33,33,33)" fill="none" stroke-linecap="round"></path><path d="M 192.162,166.275 C 187.940,173.917 188.649,174.335 185.584,182.552" stroke-width="11.065" stroke="rgb(33,33,33)" fill="none" stroke-linecap="round"></path><path d="M 185.584,182.552 C 184.318,185.947 184.099,185.946 183.500,189.500" stroke-width="11.540" stroke="rgb(33,33,33)" fill="none" stroke-linecap="round"></path><path d="M 183.500,189.500 C 182.774,193.808 182.535,193.918 182.934,198.275" stroke-width="11.569" stroke="rgb(33,33,33)" fill="none" stroke-linecap="round"></path><path d="M 182.934,198.275 C 183.910,208.918 184.858,208.857 186.250,219.500" stroke-width="11.220" stroke="rgb(33,33,33)" fill="none" stroke-linecap="round"></path><path d="M 186.250,219.500 C 186.860,224.159 186.198,224.243 186.938,228.879" stroke-width="11.928" stroke="rgb(33,33,33)" fill="none" stroke-linecap="round"></path><path d="M 186.938,228.879 C 188.714,240.010 189.197,239.941 191.282,251.035" stroke-width="11.852" stroke="rgb(33,33,33)" fill="none" stroke-linecap="round"></path><path d="M 191.282,251.035 C 191.907,254.360 192.175,254.406 192.358,257.716" stroke-width="12.594" stroke="rgb(33,33,33)" fill="none" stroke-linecap="round"></path><path d="M 192.358,257.716 C 192.409,258.638 192.255,258.732 191.750,259.500" stroke-width="13.506" stroke="rgb(33,33,33)" fill="none" stroke-linecap="round"></path><path d="M 191.750,259.500 C 191.101,260.487 191.198,260.861 190.050,261.225" stroke-width="14.305" stroke="rgb(33,33,33)" fill="none" stroke-linecap="round"></path><path d="M 190.050,261.225 C 165.391,269.047 165.177,268.866 140.136,275.872" stroke-width="12.992" stroke="rgb(33,33,33)" fill="none" stroke-linecap="round"></path><path d="M 140.136,275.872 C 132.044,278.136 131.825,277.357 123.784,279.766" stroke-width="11.555" stroke="rgb(33,33,33)" fill="none" stroke-linecap="round"></path><path d="M 123.784,279.766 C 113.257,282.921 113.166,282.861 103.000,287.000" stroke-width="11.114" stroke="rgb(33,33,33)" fill="none" stroke-linecap="round"></path><path d="M 103.000,287.000 C 97.504,289.238 97.779,289.861 92.461,292.520" stroke-width="11.526" stroke="rgb(33,33,33)" fill="none" stroke-linecap="round"></path><path d="M 92.461,292.520 C 90.779,293.361 88.576,293.734 89.000,294.000" stroke-width="12.519" stroke="rgb(33,33,33)" fill="none" stroke-linecap="round"></path><path d="M 89.000,294.000 C 89.627,294.394 91.984,294.784 94.562,293.840" stroke-width="12.912" stroke="rgb(33,33,33)" fill="none" stroke-linecap="round"></path><path d="M 94.562,293.840 C 104.609,290.159 104.280,288.994 114.250,284.750" stroke-width="11.613" stroke="rgb(33,33,33)" fill="none" stroke-linecap="round"></path><path d="M 114.250,284.750 C 121.124,281.824 121.434,282.561 128.250,279.500" stroke-width="11.435" stroke="rgb(33,33,33)" fill="none" stroke-linecap="round"></path><path d="M 128.250,279.500 C 151.203,269.192 151.144,269.013 173.787,258.012" stroke-width="10.430" stroke="rgb(33,33,33)" fill="none" stroke-linecap="round"></path><path d="M 173.787,258.012 C 195.801,247.317 195.800,247.298 217.564,236.107" stroke-width="9.508" stroke="rgb(33,33,33)" fill="none" stroke-linecap="round"></path><path d="M 217.564,236.107 C 227.748,230.871 227.736,230.813 237.684,225.158" stroke-width="10.226" stroke="rgb(33,33,33)" fill="none" stroke-linecap="round"></path><path d="M 237.684,225.158 C 239.704,224.010 242.298,222.243 241.500,222.500" stroke-width="11.135" stroke="rgb(33,33,33)" fill="none" stroke-linecap="round"></path><path d="M 241.500,222.500 C 239.831,223.039 237.120,224.616 232.750,226.750" stroke-width="11.641" stroke="rgb(33,33,33)" fill="none" stroke-linecap="round"></path><path d="M 232.750,226.750 C 226.370,229.866 225.937,229.129 220.000,233.000" stroke-width="11.447" stroke="rgb(33,33,33)" fill="none" stroke-linecap="round"></path><path d="M 220.000,233.000 C 194.675,249.515 195.174,250.349 170.227,267.522" stroke-width="10.375" stroke="rgb(33,33,33)" fill="none" stroke-linecap="round"></path><path d="M 170.227,267.522 C 142.200,286.814 142.141,286.728 114.052,305.929" stroke-width="9.260" stroke="rgb(33,33,33)" fill="none" stroke-linecap="round"></path><path d="M 114.052,305.929 C 105.402,311.842 105.690,312.372 96.750,317.750" stroke-width="9.714" stroke="rgb(33,33,33)" fill="none" stroke-linecap="round"></path><path d="M 96.750,317.750 C 93.164,319.907 87.802,322.781 89.000,321.000" stroke-width="10.555" stroke="rgb(33,33,33)" fill="none" stroke-linecap="round"></path><path d="M 89.000,321.000 C 92.427,315.906 96.672,311.518 106.000,304.000" stroke-width="10.742" stroke="rgb(33,33,33)" fill="none" stroke-linecap="round"></path><path d="M 106.000,304.000 C 121.797,291.268 121.865,291.053 139.250,280.500" stroke-width="10.397" stroke="rgb(33,33,33)" fill="none" stroke-linecap="round"></path><path d="M 139.250,280.500 C 180.599,255.402 180.498,254.900 223.469,232.699" stroke-width="8.180" stroke="rgb(33,33,33)" fill="none" stroke-linecap="round"></path><path d="M 223.469,232.699 C 254.287,216.776 254.733,217.324 286.827,204.252" stroke-width="8.578" stroke="rgb(33,33,33)" fill="none" stroke-linecap="round"></path><path d="M 286.827,204.252 C 296.526,200.302 296.903,201.229 307.055,198.654" stroke-width="6.750" stroke="rgb(33,33,33)" fill="none" stroke-linecap="round"></path><path d="M 307.055,198.654 C 308.240,198.353 308.277,198.555 309.500,198.500" stroke-width="7.324" stroke="rgb(33,33,33)" fill="none" stroke-linecap="round"></path><path d="M 309.500,198.500 C 309.999,198.478 310.597,198.403 310.500,198.500" stroke-width="8.357" stroke="rgb(33,33,33)" fill="none" stroke-linecap="round"></path><path d="M 310.500,198.500 C 310.347,198.653 309.660,198.604 309.000,199.000" stroke-width="9.449" stroke="rgb(33,33,33)" fill="none" stroke-linecap="round"></path><path d="M 309.000,199.000 C 308.410,199.354 308.621,199.793 308.000,200.000" stroke-width="10.323" stroke="rgb(33,33,33)" fill="none" stroke-linecap="round"></path><path d="M 308.000,200.000 C 307.121,200.293 307.000,200.000 306.000,200.000" stroke-width="11.342" stroke="rgb(33,33,33)" fill="none" stroke-linecap="round"></path><path d="M 306.000,200.000 C 306.000,200.000 306.000,200.000 306.000,200.000" stroke-width="12.436" stroke="rgb(33,33,33)" fill="none" stroke-linecap="round"></path><path d="M 306.000,200.000 C 306.500,199.500 306.453,199.447 307.000,199.000" stroke-width="13.440" stroke="rgb(33,33,33)" fill="none" stroke-linecap="round"></path><path d="M 307.000,199.000 C 309.203,197.197 309.276,197.279 311.500,195.500" stroke-width="13.620" stroke="rgb(33,33,33)" fill="none" stroke-linecap="round"></path><path d="M 311.500,195.500 C 311.776,195.279 311.735,195.234 312.000,195.000" stroke-width="14.487" stroke="rgb(33,33,33)" fill="none" stroke-linecap="round"></path><path d="M 312.000,195.000 C 313.860,193.359 314.025,193.475 315.750,191.750" stroke-width="14.776" stroke="rgb(33,33,33)" fill="none" stroke-linecap="round"></path><path d="M 315.750,191.750 C 316.025,191.475 315.701,191.171 316.000,191.000" stroke-width="15.502" stroke="rgb(33,33,33)" fill="none" stroke-linecap="round"></path><path d="M 316.000,191.000 C 316.576,190.671 317.045,191.205 317.500,190.750" stroke-width="16.059" stroke="rgb(33,33,33)" fill="none" stroke-linecap="round"></path><path d="M 317.500,190.750 C 318.045,190.205 317.578,189.774 318.000,189.000" stroke-width="16.491" stroke="rgb(33,33,33)" fill="none" stroke-linecap="round"></path><path d="M 318.000,189.000 C 318.328,188.399 318.707,188.586 319.000,188.000" stroke-width="16.889" stroke="rgb(33,33,33)" fill="none" stroke-linecap="round"></path><path d="M 319.000,188.000 C 319.207,187.586 319.000,187.500 319.000,187.000" stroke-width="17.358" stroke="rgb(33,33,33)" fill="none" stroke-linecap="round"></path><path d="M 319.000,187.000 C 319.000,186.500 319.000,186.500 319.000,186.000" stroke-width="17.767" stroke="rgb(33,33,33)" fill="none" stroke-linecap="round"></path><path d="M 319.000,186.000 C 319.000,185.500 319.000,185.500 319.000,185.000" stroke-width="18.181" stroke="rgb(33,33,33)" fill="none" stroke-linecap="round"></path><path d="M 319.000,185.000 C 319.000,184.500 318.793,184.414 319.000,184.000" stroke-width="18.463" stroke="rgb(33,33,33)" fill="none" stroke-linecap="round"></path><path d="M 319.000,184.000 C 319.293,183.414 320.000,183.293 320.000,183.000" stroke-width="18.745" stroke="rgb(33,33,33)" fill="none" stroke-linecap="round"></path><path d="M 320.000,183.000 C 320.000,182.793 319.414,183.207 319.000,183.000" stroke-width="18.978" stroke="rgb(33,33,33)" fill="none" stroke-linecap="round"></path><path d="M 319.000,183.000 C 318.414,182.707 318.500,182.500 318.000,182.000" stroke-width="19.175" stroke="rgb(33,33,33)" fill="none" stroke-linecap="round"></path><path d="M 318.000,182.000 C 317.500,181.500 317.584,181.390 317.000,181.000" stroke-width="19.122" stroke="rgb(33,33,33)" fill="none" stroke-linecap="round"></path><path d="M 317.000,181.000 C 315.384,179.921 315.406,179.783 313.601,179.061" stroke-width="18.474" stroke="rgb(33,33,33)" fill="none" stroke-linecap="round"></path><path d="M 313.601,179.061 C 311.031,178.033 310.959,178.148 308.250,177.500" stroke-width="17.782" stroke="rgb(33,33,33)" fill="none" stroke-linecap="round"></path><path d="M 308.250,177.500 C 300.909,175.743 300.982,174.845 293.500,174.250" stroke-width="15.429" stroke="rgb(33,33,33)" fill="none" stroke-linecap="round"></path><path d="M 293.500,174.250 C 282.107,173.345 281.889,173.465 270.500,174.500" stroke-width="13.450" stroke="rgb(33,33,33)" fill="none" stroke-linecap="round"></path><path d="M 270.500,174.500 C 264.014,175.090 264.077,175.811 257.750,177.500" stroke-width="12.610" stroke="rgb(33,33,33)" fill="none" stroke-linecap="round"></path><path d="M 257.750,177.500 C 235.630,183.405 235.495,182.995 213.607,189.688" stroke-width="10.939" stroke="rgb(33,33,33)" fill="none" stroke-linecap="round"></path><path d="M 213.607,189.688 C 193.728,195.767 193.129,194.640 174.216,203.043" stroke-width="10.238" stroke="rgb(33,33,33)" fill="none" stroke-linecap="round"></path></svg>