<svg xmlns="http://www.w3.org/2000/svg" xmlns:xlink="http://www.w3.org/1999/xlink" viewBox="0 0 320 500"><path d="M 111.000,283.000 C 112.000,278.500 112.544,278.560 113.000,274.000" stroke-width="18.368" stroke="rgb(33,33,33)" fill="none" stroke-linecap="round"></path><path d="M 113.000,274.000 C 113.544,268.560 113.000,268.500 113.000,263.000" stroke-width="16.717" stroke="rgb(33,33,33)" fill="none" stroke-linecap="round"></path><path d="M 113.000,263.000 C 113.000,255.000 112.772,254.994 113.000,247.000" stroke-width="15.405" stroke="rgb(33,33,33)" fill="none" stroke-linecap="round"></path><path d="M 113.000,247.000 C 113.272,237.494 113.756,237.507 114.000,228.000" stroke-width="13.595" stroke="rgb(33,33,33)" fill="none" stroke-linecap="round"></path><path d="M 114.000,228.000 C 114.256,218.007 114.539,217.968 114.000,208.000" stroke-width="12.212" stroke="rgb(33,33,33)" fill="none" stroke-linecap="round"></path><path d="M 114.000,208.000 C 113.539,199.468 114.185,199.118 112.000,191.000" stroke-width="11.540" stroke="rgb(33,33,33)" fill="none" stroke-linecap="round"></path><path d="M 112.000,191.000 C 110.685,186.118 109.963,186.073 107.000,182.000" stroke-width="11.630" stroke="rgb(33,33,33)" fill="none" stroke-linecap="round"></path><path d="M 107.000,182.000 C 105.963,180.573 105.342,179.404 104.000,180.000" stroke-width="12.363" stroke="rgb(33,33,33)" fill="none" stroke-linecap="round"></path><path d="M 104.000,180.000 C 100.842,181.404 99.604,182.209 98.000,186.000" stroke-width="12.659" stroke="rgb(33,33,33)" fill="none" stroke-linecap="round"></path><path d="M 98.000,186.000 C 94.104,195.209 95.893,196.115 93.000,206.000" stroke-width="11.655" stroke="rgb(33,33,33)" fill="none" stroke-linecap="round"></path><path d="M 93.000,206.000 C 89.893,216.615 89.947,216.677 86.000,227.000" stroke-width="10.742" stroke="rgb(33,33,33)" fill="none" stroke-linecap="round"></path><path d="M 86.000,227.000 C 83.447,233.677 83.315,233.670 80.000,240.000" stroke-width="10.938" stroke="rgb(33,33,33)" fill="none" stroke-linecap="round"></path><path d="M 80.000,240.000 C 77.815,244.170 78.250,244.750 75.000,248.000" stroke-width="11.257" stroke="rgb(33,33,33)" fill="none" stroke-linecap="round"></path><path d="M 75.000,248.000 C 71.750,251.250 71.233,251.024 67.000,253.000" stroke-width="11.525" stroke="rgb(33,33,33)" fill="none" stroke-linecap="round"></path><path d="M 67.000,253.000 C 63.733,254.524 63.541,254.292 60.000,255.000" stroke-width="12.037" stroke="rgb(33,33,33)" fill="none" stroke-linecap="round"></path><path d="M 60.000,255.000 C 58.541,255.292 57.750,255.750 57.000,255.000" stroke-width="12.720" stroke="rgb(33,33,33)" fill="none" stroke-linecap="round"></path><path d="M 57.000,255.000 C 56.250,254.250 55.967,252.947 57.000,252.000" stroke-width="13.421" stroke="rgb(33,33,33)" fill="none" stroke-linecap="round"></path><path d="M 57.000,252.000 C 61.967,247.447 62.491,246.976 69.000,244.000" stroke-width="12.757" stroke="rgb(33,33,33)" fill="none" stroke-linecap="round"></path><path d="M 69.000,244.000 C 79.991,238.976 80.390,239.655 92.000,236.000" stroke-width="11.731" stroke="rgb(33,33,33)" fill="none" stroke-linecap="round"></path><path d="M 92.000,236.000 C 107.390,231.155 107.814,232.389 123.000,227.000" stroke-width="10.204" stroke="rgb(33,33,33)" fill="none" stroke-linecap="round"></path><path d="M 123.000,227.000 C 138.814,221.389 138.538,220.590 154.000,214.000" stroke-width="9.276" stroke="rgb(33,33,33)" fill="none" stroke-linecap="round"></path><path d="M 126.000,220.000 C 123.500,223.000 122.653,222.693 121.000,226.000" stroke-width="19.059" stroke="rgb(33,33,33)" fill="none" stroke-linecap="round"></path><path d="M 121.000,226.000 C 120.153,227.693 121.000,228.000 121.000,230.000" stroke-width="18.291" stroke="rgb(33,33,33)" fill="none" stroke-linecap="round"></path><path d="M 121.000,230.000 C 121.000,231.000 120.400,231.600 121.000,232.000" stroke-width="18.297" stroke="rgb(33,33,33)" fill="none" stroke-linecap="round"></path><path d="M 121.000,232.000 C 121.900,232.600 122.511,232.149 124.000,232.000" stroke-width="17.994" stroke="rgb(33,33,33)" fill="none" stroke-linecap="round"></path><path d="M 124.000,232.000 C 127.511,231.649 127.976,232.601 131.000,231.000" stroke-width="17.035" stroke="rgb(33,33,33)" fill="none" stroke-linecap="round"></path><path d="M 131.000,231.000 C 136.476,228.101 136.188,227.210 141.000,223.000" stroke-width="15.446" stroke="rgb(33,33,33)" fill="none" stroke-linecap="round"></path><path d="M 141.000,223.000 C 144.188,220.210 144.136,220.124 147.000,217.000" stroke-width="15.077" stroke="rgb(33,33,33)" fill="none" stroke-linecap="round"></path><path d="M 147.000,217.000 C 149.636,214.124 149.561,214.048 152.000,211.000" stroke-width="14.820" stroke="rgb(33,33,33)" fill="none" stroke-linecap="round"></path><path d="M 152.000,211.000 C 153.561,209.048 153.377,208.893 155.000,207.000" stroke-width="15.048" stroke="rgb(33,33,33)" fill="none" stroke-linecap="round"></path><path d="M 155.000,207.000 C 156.377,205.393 156.381,205.214 158.000,204.000" stroke-width="15.144" stroke="rgb(33,33,33)" fill="none" stroke-linecap="round"></path><path d="M 158.000,204.000 C 158.381,203.714 158.950,203.550 159.000,204.000" stroke-width="15.792" stroke="rgb(33,33,33)" fill="none" stroke-linecap="round"></path><path d="M 159.000,204.000 C 159.450,208.050 159.553,208.577 159.000,213.000" stroke-width="15.131" stroke="rgb(33,33,33)" fill="none" stroke-linecap="round"></path><path d="M 159.000,213.000 C 158.553,216.577 158.046,216.514 157.000,220.000" stroke-width="14.872" stroke="rgb(33,33,33)" fill="none" stroke-linecap="round"></path><path d="M 157.000,220.000 C 156.546,221.514 156.380,221.481 156.000,223.000" stroke-width="15.265" stroke="rgb(33,33,33)" fill="none" stroke-linecap="round"></path><path d="M 156.000,223.000 C 155.880,223.481 155.659,224.227 156.000,224.000" stroke-width="15.908" stroke="rgb(33,33,33)" fill="none" stroke-linecap="round"></path><path d="M 156.000,224.000 C 158.659,222.227 159.509,221.944 162.000,219.000" stroke-width="15.980" stroke="rgb(33,33,33)" fill="none" stroke-linecap="round"></path><path d="M 162.000,219.000 C 165.009,215.444 164.022,214.574 167.000,211.000" stroke-width="15.357" stroke="rgb(33,33,33)" fill="none" stroke-linecap="round"></path><path d="M 167.000,211.000 C 169.022,208.574 169.284,208.630 172.000,207.000" stroke-width="15.170" stroke="rgb(33,33,33)" fill="none" stroke-linecap="round"></path><path d="M 172.000,207.000 C 174.284,205.630 174.471,205.920 177.000,205.000" stroke-width="15.166" stroke="rgb(33,33,33)" fill="none" stroke-linecap="round"></path><path d="M 177.000,205.000 C 179.971,203.920 179.915,203.475 183.000,203.000" stroke-width="15.083" stroke="rgb(33,33,33)" fill="none" stroke-linecap="round"></path><path d="M 183.000,203.000 C 186.415,202.475 186.500,203.000 190.000,203.000" stroke-width="14.929" stroke="rgb(33,33,33)" fill="none" stroke-linecap="round"></path><path d="M 190.000,203.000 C 193.000,203.000 193.101,202.473 196.000,203.000" stroke-width="14.980" stroke="rgb(33,33,33)" fill="none" stroke-linecap="round"></path><path d="M 196.000,203.000 C 198.601,203.473 198.417,204.296 201.000,205.000" stroke-width="15.014" stroke="rgb(33,33,33)" fill="none" stroke-linecap="round"></path><path d="M 201.000,205.000 C 203.917,205.796 203.976,205.784 207.000,206.000" stroke-width="14.944" stroke="rgb(33,33,33)" fill="none" stroke-linecap="round"></path><path d="M 207.000,206.000 C 210.976,206.284 211.033,206.397 215.000,206.000" stroke-width="14.631" stroke="rgb(33,33,33)" fill="none" stroke-linecap="round"></path><path d="M 215.000,206.000 C 221.033,205.397 221.398,206.101 227.000,204.000" stroke-width="13.962" stroke="rgb(33,33,33)" fill="none" stroke-linecap="round"></path><path d="M 227.000,204.000 C 233.398,201.601 232.917,200.346 239.000,197.000" stroke-width="13.290" stroke="rgb(33,33,33)" fill="none" stroke-linecap="round"></path><path d="M 239.000,197.000 C 242.917,194.846 243.151,195.245 247.000,193.000" stroke-width="13.229" stroke="rgb(33,33,33)" fill="none" stroke-linecap="round"></path><path d="M 247.000,193.000 C 249.151,191.745 248.833,191.204 251.000,190.000" stroke-width="13.681" stroke="rgb(33,33,33)" fill="none" stroke-linecap="round"></path></svg>