<svg xmlns="http://www.w3.org/2000/svg" xmlns:xlink="http://www.w3.org/1999/xlink" viewBox="0 0 360 500"><path d="M 181.333,173.333 C 174.330,184.794 174.088,184.652 167.327,196.254" stroke-width="19.339" stroke="rgb(33,33,33)" fill="none" stroke-linecap="round"></path><path d="M 167.327,196.254 C 159.868,209.052 160.113,209.196 152.892,222.133" stroke-width="14.607" stroke="rgb(33,33,33)" fill="none" stroke-linecap="round"></path><path d="M 152.892,222.133 C 141.558,242.440 141.414,242.361 130.216,262.742" stroke-width="10.909" stroke="rgb(33,33,33)" fill="none" stroke-linecap="round"></path><path d="M 130.216,262.742 C 122.596,276.611 122.630,276.633 115.255,290.634" stroke-width="9.943" stroke="rgb(33,33,33)" fill="none" stroke-linecap="round"></path><path d="M 115.255,290.634 C 108.165,304.094 108.128,304.078 101.285,317.665" stroke-width="9.164" stroke="rgb(33,33,33)" fill="none" stroke-linecap="round"></path><path d="M 101.285,317.665 C 94.916,330.312 94.830,330.279 88.831,343.102" stroke-width="8.872" stroke="rgb(33,33,33)" fill="none" stroke-linecap="round"></path><path d="M 88.831,343.102 C 85.960,349.238 85.721,349.195 83.546,355.582" stroke-width="9.224" stroke="rgb(33,33,33)" fill="none" stroke-linecap="round"></path><path d="M 83.546,355.582 C 82.245,359.403 81.250,359.973 81.879,363.517" stroke-width="9.919" stroke="rgb(33,33,33)" fill="none" stroke-linecap="round"></path><path d="M 81.879,363.517 C 82.297,365.874 83.293,366.438 85.640,367.384" stroke-width="10.629" stroke="rgb(33,33,33)" fill="none" stroke-linecap="round"></path><path d="M 85.640,367.384 C 88.853,368.679 89.557,369.169 93.000,368.000" stroke-width="11.148" stroke="rgb(33,33,33)" fill="none" stroke-linecap="round"></path><path d="M 93.000,368.000 C 111.465,361.732 112.010,361.771 129.456,352.511" stroke-width="9.555" stroke="rgb(33,33,33)" fill="none" stroke-linecap="round"></path><path d="M 129.456,352.511 C 153.495,339.751 154.098,340.119 175.971,323.960" stroke-width="7.980" stroke="rgb(33,33,33)" fill="none" stroke-linecap="round"></path><path d="M 175.971,323.960 C 199.152,306.834 198.384,305.615 219.563,285.941" stroke-width="6.750" stroke="rgb(33,33,33)" fill="none" stroke-linecap="round"></path><path d="M 219.563,285.941 C 241.063,265.970 241.193,266.008 261.330,244.670" stroke-width="6.750" stroke="rgb(33,33,33)" fill="none" stroke-linecap="round"></path><path d="M 261.330,244.670 C 279.906,224.986 279.987,224.937 296.989,203.896" stroke-width="6.750" stroke="rgb(33,33,33)" fill="none" stroke-linecap="round"></path><path d="M 296.989,203.896 C 307.714,190.623 307.560,190.397 316.783,176.043" stroke-width="6.750" stroke="rgb(33,33,33)" fill="none" stroke-linecap="round"></path><path d="M 170.000,276.000 C 161.378,286.120 160.602,285.587 152.756,296.240" stroke-width="19.384" stroke="rgb(33,33,33)" fill="none" stroke-linecap="round"></path><path d="M 152.756,296.240 C 148.664,301.796 148.993,302.126 146.124,308.419" stroke-width="15.068" stroke="rgb(33,33,33)" fill="none" stroke-linecap="round"></path><path d="M 146.124,308.419 C 143.308,314.596 143.783,314.810 141.385,321.180" stroke-width="14.197" stroke="rgb(33,33,33)" fill="none" stroke-linecap="round"></path><path d="M 141.385,321.180 C 139.721,325.601 139.228,325.482 138.000,330.000" stroke-width="13.944" stroke="rgb(33,33,33)" fill="none" stroke-linecap="round"></path><path d="M 138.000,330.000 C 137.291,332.608 137.696,332.712 137.510,335.431" stroke-width="14.161" stroke="rgb(33,33,33)" fill="none" stroke-linecap="round"></path><path d="M 137.510,335.431 C 137.362,337.590 136.845,337.909 137.333,339.756" stroke-width="14.597" stroke="rgb(33,33,33)" fill="none" stroke-linecap="round"></path><path d="M 137.333,339.756 C 137.537,340.527 138.155,340.809 138.895,340.667" stroke-width="15.181" stroke="rgb(33,33,33)" fill="none" stroke-linecap="round"></path><path d="M 138.895,340.667 C 139.958,340.462 140.184,340.094 140.938,339.062" stroke-width="15.660" stroke="rgb(33,33,33)" fill="none" stroke-linecap="round"></path><path d="M 140.938,339.062 C 142.684,336.673 142.533,336.503 143.895,333.824" stroke-width="15.260" stroke="rgb(33,33,33)" fill="none" stroke-linecap="round"></path><path d="M 143.895,333.824 C 146.053,329.579 146.038,329.564 147.979,325.214" stroke-width="14.869" stroke="rgb(33,33,33)" fill="none" stroke-linecap="round"></path><path d="M 147.979,325.214 C 150.107,320.446 149.913,320.359 152.032,315.587" stroke-width="14.173" stroke="rgb(33,33,33)" fill="none" stroke-linecap="round"></path><path d="M 152.032,315.587 C 153.565,312.135 153.717,312.203 155.284,308.766" stroke-width="14.141" stroke="rgb(33,33,33)" fill="none" stroke-linecap="round"></path><path d="M 155.284,308.766 C 156.510,306.077 156.176,305.883 157.618,303.335" stroke-width="14.310" stroke="rgb(33,33,33)" fill="none" stroke-linecap="round"></path><path d="M 157.618,303.335 C 158.521,301.739 158.572,301.546 159.975,300.478" stroke-width="14.691" stroke="rgb(33,33,33)" fill="none" stroke-linecap="round"></path><path d="M 159.975,300.478 C 160.763,299.878 161.086,299.663 162.000,300.000" stroke-width="15.240" stroke="rgb(33,33,33)" fill="none" stroke-linecap="round"></path><path d="M 162.000,300.000 C 164.362,300.872 164.786,300.923 166.528,302.896" stroke-width="15.269" stroke="rgb(33,33,33)" fill="none" stroke-linecap="round"></path><path d="M 166.528,302.896 C 169.767,306.564 169.833,306.795 171.962,311.282" stroke-width="14.760" stroke="rgb(33,33,33)" fill="none" stroke-linecap="round"></path><path d="M 171.962,311.282 C 175.047,317.782 174.709,317.993 176.956,324.869" stroke-width="14.617" stroke="rgb(33,33,33)" fill="none" stroke-linecap="round"></path><path d="M 176.956,324.869 C 179.368,332.252 179.513,332.242 181.280,339.799" stroke-width="11.934" stroke="rgb(33,33,33)" fill="none" stroke-linecap="round"></path><path d="M 181.280,339.799 C 183.035,347.307 182.761,347.380 184.000,355.000" stroke-width="10.419" stroke="rgb(33,33,33)" fill="none" stroke-linecap="round"></path><path d="M 184.000,355.000 C 185.132,361.967 185.181,361.967 186.022,368.973" stroke-width="10.542" stroke="rgb(33,33,33)" fill="none" stroke-linecap="round"></path><path d="M 186.022,368.973 C 186.681,374.467 186.515,374.486 187.000,380.000" stroke-width="10.846" stroke="rgb(33,33,33)" fill="none" stroke-linecap="round"></path><path d="M 187.000,380.000 C 187.337,383.833 187.347,383.832 187.667,387.667" stroke-width="11.314" stroke="rgb(33,33,33)" fill="none" stroke-linecap="round"></path><path d="M 187.667,387.667 C 187.847,389.832 187.913,389.830 188.000,392.000" stroke-width="12.053" stroke="rgb(33,33,33)" fill="none" stroke-linecap="round"></path><path d="M 188.000,392.000 C 188.080,393.997 188.000,394.000 188.000,396.000" stroke-width="12.727" stroke="rgb(33,33,33)" fill="none" stroke-linecap="round"></path><path d="M 188.000,396.000 C 188.000,398.000 188.250,398.041 188.000,400.000" stroke-width="13.235" stroke="rgb(33,33,33)" fill="none" stroke-linecap="round"></path><path d="M 188.000,400.000 C 187.836,401.285 187.896,401.622 187.171,402.488" stroke-width="13.900" stroke="rgb(33,33,33)" fill="none" stroke-linecap="round"></path><path d="M 187.171,402.488 C 186.780,402.955 186.160,403.126 185.769,402.667" stroke-width="14.743" stroke="rgb(33,33,33)" fill="none" stroke-linecap="round"></path><path d="M 185.769,402.667 C 184.634,401.335 184.914,400.799 184.120,398.906" stroke-width="15.032" stroke="rgb(33,33,33)" fill="none" stroke-linecap="round"></path><path d="M 184.120,398.906 C 183.090,396.450 182.874,396.517 182.121,393.969" stroke-width="15.064" stroke="rgb(33,33,33)" fill="none" stroke-linecap="round"></path><path d="M 182.121,393.969 C 180.540,388.615 180.495,388.593 179.452,383.102" stroke-width="14.467" stroke="rgb(33,33,33)" fill="none" stroke-linecap="round"></path><path d="M 179.452,383.102 C 178.129,376.138 178.407,376.083 177.390,369.060" stroke-width="13.705" stroke="rgb(33,33,33)" fill="none" stroke-linecap="round"></path><path d="M 177.390,369.060 C 176.025,359.636 175.737,359.668 174.688,350.208" stroke-width="12.378" stroke="rgb(33,33,33)" fill="none" stroke-linecap="round"></path><path d="M 174.688,350.208 C 173.547,339.914 173.515,339.896 173.010,329.552" stroke-width="11.455" stroke="rgb(33,33,33)" fill="none" stroke-linecap="round"></path><path d="M 173.010,329.552 C 172.505,319.201 172.489,319.178 172.667,308.818" stroke-width="10.809" stroke="rgb(33,33,33)" fill="none" stroke-linecap="round"></path><path d="M 172.667,308.818 C 172.829,299.373 173.113,299.376 173.690,289.942" stroke-width="10.541" stroke="rgb(33,33,33)" fill="none" stroke-linecap="round"></path><path d="M 173.690,289.942 C 174.135,282.679 173.604,282.570 174.711,275.425" stroke-width="10.612" stroke="rgb(33,33,33)" fill="none" stroke-linecap="round"></path><path d="M 174.711,275.425 C 175.316,271.522 175.438,271.403 177.113,267.847" stroke-width="11.091" stroke="rgb(33,33,33)" fill="none" stroke-linecap="round"></path><path d="M 177.113,267.847 C 178.468,264.972 178.399,264.505 180.771,262.562" stroke-width="11.663" stroke="rgb(33,33,33)" fill="none" stroke-linecap="round"></path><path d="M 180.771,262.562 C 182.783,260.915 183.259,260.851 185.882,260.667" stroke-width="12.276" stroke="rgb(33,33,33)" fill="none" stroke-linecap="round"></path><path d="M 185.882,260.667 C 188.869,260.457 189.071,260.806 191.991,261.775" stroke-width="12.678" stroke="rgb(33,33,33)" fill="none" stroke-linecap="round"></path><path d="M 191.991,261.775 C 195.196,262.839 195.317,262.871 198.132,264.733" stroke-width="13.068" stroke="rgb(33,33,33)" fill="none" stroke-linecap="round"></path><path d="M 198.132,264.733 C 200.795,266.495 200.580,266.834 202.946,269.023" stroke-width="13.220" stroke="rgb(33,33,33)" fill="none" stroke-linecap="round"></path><path d="M 202.946,269.023 C 204.606,270.559 204.678,270.502 206.184,272.184" stroke-width="13.695" stroke="rgb(33,33,33)" fill="none" stroke-linecap="round"></path><path d="M 206.184,272.184 C 207.841,274.035 207.954,274.002 209.271,276.089" stroke-width="14.012" stroke="rgb(33,33,33)" fill="none" stroke-linecap="round"></path><path d="M 209.271,276.089 C 210.141,277.468 209.844,277.637 210.558,279.116" stroke-width="14.518" stroke="rgb(33,33,33)" fill="none" stroke-linecap="round"></path><path d="M 210.558,279.116 C 211.068,280.172 211.195,280.110 211.720,281.159" stroke-width="15.053" stroke="rgb(33,33,33)" fill="none" stroke-linecap="round"></path><path d="M 211.720,281.159 C 212.162,282.042 212.189,282.046 212.491,282.981" stroke-width="15.583" stroke="rgb(33,33,33)" fill="none" stroke-linecap="round"></path><path d="M 212.491,282.981 C 212.663,283.512 212.541,284.086 212.667,284.091" stroke-width="16.153" stroke="rgb(33,33,33)" fill="none" stroke-linecap="round"></path><path d="M 212.667,284.091 C 212.795,284.096 213.149,283.467 213.000,283.000" stroke-width="16.637" stroke="rgb(33,33,33)" fill="none" stroke-linecap="round"></path><path d="M 213.000,283.000 C 212.815,282.421 212.131,282.653 212.000,282.000" stroke-width="17.012" stroke="rgb(33,33,33)" fill="none" stroke-linecap="round"></path><path d="M 212.000,282.000 C 211.631,280.153 212.123,279.992 212.000,278.000" stroke-width="16.884" stroke="rgb(33,33,33)" fill="none" stroke-linecap="round"></path><path d="M 212.000,278.000 C 211.877,276.009 211.682,276.023 211.509,274.034" stroke-width="16.743" stroke="rgb(33,33,33)" fill="none" stroke-linecap="round"></path><path d="M 211.509,274.034 C 211.348,272.183 211.567,272.157 211.333,270.319" stroke-width="16.751" stroke="rgb(33,33,33)" fill="none" stroke-linecap="round"></path><path d="M 211.333,270.319 C 211.133,268.755 210.550,268.755 210.641,267.231" stroke-width="16.814" stroke="rgb(33,33,33)" fill="none" stroke-linecap="round"></path><path d="M 210.641,267.231 C 210.742,265.545 210.849,265.329 211.717,263.900" stroke-width="16.774" stroke="rgb(33,33,33)" fill="none" stroke-linecap="round"></path><path d="M 211.717,263.900 C 212.254,263.017 212.494,262.966 213.451,262.608" stroke-width="16.999" stroke="rgb(33,33,33)" fill="none" stroke-linecap="round"></path><path d="M 213.451,262.608 C 214.143,262.349 214.232,262.652 215.014,262.667" stroke-width="17.287" stroke="rgb(33,33,33)" fill="none" stroke-linecap="round"></path><path d="M 215.014,262.667 C 215.789,262.682 215.908,262.887 216.564,262.667" stroke-width="17.527" stroke="rgb(33,33,33)" fill="none" stroke-linecap="round"></path><path d="M 216.564,262.667 C 216.901,262.554 216.692,262.123 217.000,262.000" stroke-width="17.863" stroke="rgb(33,33,33)" fill="none" stroke-linecap="round"></path><path d="M 217.000,262.000 C 217.332,261.867 217.453,262.264 217.845,262.155" stroke-width="18.118" stroke="rgb(33,33,33)" fill="none" stroke-linecap="round"></path><path d="M 217.845,262.155 C 218.581,261.950 218.634,261.875 219.256,261.372" stroke-width="18.353" stroke="rgb(33,33,33)" fill="none" stroke-linecap="round"></path><path d="M 219.256,261.372 C 220.378,260.464 220.502,260.512 221.333,259.333" stroke-width="14.741" stroke="rgb(33,33,33)" fill="none" stroke-linecap="round"></path><path d="M 221.333,259.333 C 222.887,257.128 223.183,257.144 224.025,254.604" stroke-width="14.857" stroke="rgb(33,33,33)" fill="none" stroke-linecap="round"></path><path d="M 224.025,254.604 C 225.024,251.591 224.701,251.433 225.015,248.226" stroke-width="14.646" stroke="rgb(33,33,33)" fill="none" stroke-linecap="round"></path><path d="M 225.015,248.226 C 225.355,244.757 225.239,244.740 225.333,241.252" stroke-width="14.678" stroke="rgb(33,33,33)" fill="none" stroke-linecap="round"></path><path d="M 225.333,241.252 C 225.398,238.858 225.333,238.857 225.333,236.461" stroke-width="14.637" stroke="rgb(33,33,33)" fill="none" stroke-linecap="round"></path><path d="M 225.333,236.461 C 225.333,234.111 225.333,234.111 225.333,231.760" stroke-width="14.867" stroke="rgb(33,33,33)" fill="none" stroke-linecap="round"></path><path d="M 225.333,231.760 C 225.333,230.490 225.333,230.490 225.333,229.219" stroke-width="15.324" stroke="rgb(33,33,33)" fill="none" stroke-linecap="round"></path><path d="M 225.333,229.219 C 225.333,228.443 225.105,227.546 225.333,227.667" stroke-width="15.877" stroke="rgb(33,33,33)" fill="none" stroke-linecap="round"></path><path d="M 225.333,227.667 C 225.697,227.861 225.776,228.870 226.517,229.850" stroke-width="16.246" stroke="rgb(33,33,33)" fill="none" stroke-linecap="round"></path><path d="M 226.517,229.850 C 227.329,230.923 227.663,230.695 228.439,231.773" stroke-width="16.539" stroke="rgb(33,33,33)" fill="none" stroke-linecap="round"></path><path d="M 228.439,231.773 C 228.877,232.381 228.408,232.793 228.944,233.222" stroke-width="16.804" stroke="rgb(33,33,33)" fill="none" stroke-linecap="round"></path><path d="M 228.944,233.222 C 229.706,233.832 229.969,233.647 231.034,233.851" stroke-width="16.998" stroke="rgb(33,33,33)" fill="none" stroke-linecap="round"></path><path d="M 231.034,233.851 C 231.997,234.036 232.092,234.255 233.000,234.000" stroke-width="17.234" stroke="rgb(33,33,33)" fill="none" stroke-linecap="round"></path><path d="M 233.000,234.000 C 234.258,233.647 234.386,233.546 235.365,232.635" stroke-width="17.303" stroke="rgb(33,33,33)" fill="none" stroke-linecap="round"></path><path d="M 235.365,232.635 C 236.583,231.501 236.584,231.388 237.394,229.909" stroke-width="17.138" stroke="rgb(33,33,33)" fill="none" stroke-linecap="round"></path><path d="M 237.394,229.909 C 238.401,228.070 238.176,227.945 239.000,226.000" stroke-width="16.902" stroke="rgb(33,33,33)" fill="none" stroke-linecap="round"></path><path d="M 239.000,226.000 C 239.755,224.218 239.758,224.219 240.553,222.455" stroke-width="16.819" stroke="rgb(33,33,33)" fill="none" stroke-linecap="round"></path><path d="M 240.553,222.455 C 241.267,220.868 241.097,220.755 242.018,219.298" stroke-width="16.877" stroke="rgb(33,33,33)" fill="none" stroke-linecap="round"></path><path d="M 242.018,219.298 C 242.821,218.028 242.704,217.408 244.000,217.000" stroke-width="16.870" stroke="rgb(33,33,33)" fill="none" stroke-linecap="round"></path><path d="M 244.000,217.000 C 245.824,216.426 246.161,216.978 248.257,217.333" stroke-width="16.729" stroke="rgb(33,33,33)" fill="none" stroke-linecap="round"></path><path d="M 248.257,217.333 C 250.295,217.678 250.227,218.094 252.269,218.401" stroke-width="16.636" stroke="rgb(33,33,33)" fill="none" stroke-linecap="round"></path><path d="M 252.269,218.401 C 254.667,218.761 254.761,218.980 257.138,218.667" stroke-width="16.346" stroke="rgb(33,33,33)" fill="none" stroke-linecap="round"></path><path d="M 257.138,218.667 C 259.605,218.342 259.777,218.325 261.957,217.125" stroke-width="16.274" stroke="rgb(33,33,33)" fill="none" stroke-linecap="round"></path><path d="M 261.957,217.125 C 264.440,215.759 264.443,215.561 266.465,213.535" stroke-width="15.916" stroke="rgb(33,33,33)" fill="none" stroke-linecap="round"></path><path d="M 266.465,213.535 C 268.498,211.498 268.518,211.429 270.068,208.998" stroke-width="15.793" stroke="rgb(33,33,33)" fill="none" stroke-linecap="round"></path><path d="M 270.068,208.998 C 271.837,206.224 271.821,206.156 273.104,203.125" stroke-width="15.255" stroke="rgb(33,33,33)" fill="none" stroke-linecap="round"></path><path d="M 273.104,203.125 C 274.014,200.976 273.322,200.643 274.454,198.638" stroke-width="15.410" stroke="rgb(33,33,33)" fill="none" stroke-linecap="round"></path><path d="M 274.454,198.638 C 276.047,195.816 276.360,195.927 278.555,193.472" stroke-width="15.289" stroke="rgb(33,33,33)" fill="none" stroke-linecap="round"></path><path d="M 278.555,193.472 C 280.967,190.774 280.792,190.495 283.667,188.333" stroke-width="14.998" stroke="rgb(33,33,33)" fill="none" stroke-linecap="round"></path></svg>