<svg xmlns="http://www.w3.org/2000/svg" xmlns:xlink="http://www.w3.org/1999/xlink" viewBox="0 0 375 500"><path d="M 127.000,170.500 C 117.500,172.500 116.530,170.709 108.000,174.500" stroke-width="18.641" stroke="rgb(33,33,33)" fill="none" stroke-linecap="round"></path><path d="M 108.000,174.500 C 103.030,176.709 103.883,178.389 100.000,182.500" stroke-width="16.845" stroke="rgb(33,33,33)" fill="none" stroke-linecap="round"></path><path d="M 100.000,182.500 C 95.383,187.389 94.982,187.113 91.000,192.500" stroke-width="15.537" stroke="rgb(33,33,33)" fill="none" stroke-linecap="round"></path><path d="M 91.000,192.500 C 86.482,198.613 86.844,198.910 83.000,205.500" stroke-width="14.430" stroke="rgb(33,33,33)" fill="none" stroke-linecap="round"></path><path d="M 83.000,205.500 C 79.844,210.910 79.412,210.771 77.000,216.500" stroke-width="13.222" stroke="rgb(33,33,33)" fill="none" stroke-linecap="round"></path><path d="M 77.000,216.500 C 75.412,220.271 75.579,220.448 75.000,224.500" stroke-width="13.250" stroke="rgb(33,33,33)" fill="none" stroke-linecap="round"></path><path d="M 75.000,224.500 C 74.579,227.448 74.473,227.601 75.000,230.500" stroke-width="13.561" stroke="rgb(33,33,33)" fill="none" stroke-linecap="round"></path><path d="M 75.000,230.500 C 75.473,233.101 74.832,234.726 77.000,235.500" stroke-width="13.890" stroke="rgb(33,33,33)" fill="none" stroke-linecap="round"></path><path d="M 77.000,235.500 C 81.832,237.226 83.054,236.115 89.000,235.500" stroke-width="13.355" stroke="rgb(33,33,33)" fill="none" stroke-linecap="round"></path><path d="M 89.000,235.500 C 97.554,234.615 97.925,235.326 106.000,232.500" stroke-width="12.530" stroke="rgb(33,33,33)" fill="none" stroke-linecap="round"></path><path d="M 106.000,232.500 C 117.925,228.326 117.653,227.299 129.000,221.500" stroke-width="11.295" stroke="rgb(33,33,33)" fill="none" stroke-linecap="round"></path><path d="M 129.000,221.500 C 140.153,215.799 140.172,215.795 151.000,209.500" stroke-width="10.398" stroke="rgb(33,33,33)" fill="none" stroke-linecap="round"></path><path d="M 151.000,209.500 C 161.672,203.295 161.559,203.094 172.000,196.500" stroke-width="9.885" stroke="rgb(33,33,33)" fill="none" stroke-linecap="round"></path><path d="M 172.000,196.500 C 180.559,191.094 180.713,191.301 189.000,185.500" stroke-width="9.749" stroke="rgb(33,33,33)" fill="none" stroke-linecap="round"></path><path d="M 189.000,185.500 C 195.713,180.801 195.511,180.514 202.000,175.500" stroke-width="9.856" stroke="rgb(33,33,33)" fill="none" stroke-linecap="round"></path><path d="M 202.000,175.500 C 206.511,172.014 206.829,172.323 211.000,168.500" stroke-width="10.195" stroke="rgb(33,33,33)" fill="none" stroke-linecap="round"></path><path d="M 211.000,168.500 C 212.829,166.823 212.929,166.643 214.000,164.500" stroke-width="10.959" stroke="rgb(33,33,33)" fill="none" stroke-linecap="round"></path><path d="M 214.000,164.500 C 214.429,163.643 214.750,162.750 214.000,162.500" stroke-width="11.889" stroke="rgb(33,33,33)" fill="none" stroke-linecap="round"></path><path d="M 214.000,162.500 C 211.750,161.750 210.597,161.202 208.000,162.500" stroke-width="12.399" stroke="rgb(33,33,33)" fill="none" stroke-linecap="round"></path><path d="M 208.000,162.500 C 199.597,166.702 199.913,167.877 192.000,173.500" stroke-width="11.672" stroke="rgb(33,33,33)" fill="none" stroke-linecap="round"></path><path d="M 192.000,173.500 C 180.913,181.377 180.611,181.011 170.000,189.500" stroke-width="10.503" stroke="rgb(33,33,33)" fill="none" stroke-linecap="round"></path><path d="M 170.000,189.500 C 158.111,199.011 158.363,199.346 147.000,209.500" stroke-width="9.638" stroke="rgb(33,33,33)" fill="none" stroke-linecap="round"></path><path d="M 147.000,209.500 C 134.863,220.346 134.377,219.886 123.000,231.500" stroke-width="8.945" stroke="rgb(33,33,33)" fill="none" stroke-linecap="round"></path><path d="M 123.000,231.500 C 110.377,244.386 111.018,245.016 99.000,258.500" stroke-width="8.223" stroke="rgb(33,33,33)" fill="none" stroke-linecap="round"></path><path d="M 99.000,258.500 C 90.518,268.016 90.126,267.693 82.000,277.500" stroke-width="8.198" stroke="rgb(33,33,33)" fill="none" stroke-linecap="round"></path><path d="M 82.000,277.500 C 75.626,285.193 76.417,285.861 70.000,293.500" stroke-width="8.444" stroke="rgb(33,33,33)" fill="none" stroke-linecap="round"></path><path d="M 70.000,293.500 C 65.917,298.361 64.929,297.589 61.000,302.500" stroke-width="8.849" stroke="rgb(33,33,33)" fill="none" stroke-linecap="round"></path><path d="M 61.000,302.500 C 58.929,305.089 59.036,305.391 58.000,308.500" stroke-width="9.599" stroke="rgb(33,33,33)" fill="none" stroke-linecap="round"></path><path d="M 58.000,308.500 C 57.536,309.891 57.625,310.375 58.000,311.500" stroke-width="10.531" stroke="rgb(33,33,33)" fill="none" stroke-linecap="round"></path><path d="M 58.000,311.500 C 58.125,311.875 58.524,311.649 59.000,311.500" stroke-width="11.566" stroke="rgb(33,33,33)" fill="none" stroke-linecap="round"></path><path d="M 59.000,311.500 C 66.524,309.149 67.067,310.159 74.000,306.500" stroke-width="11.334" stroke="rgb(33,33,33)" fill="none" stroke-linecap="round"></path><path d="M 74.000,306.500 C 85.067,300.659 84.535,299.552 95.000,292.500" stroke-width="10.412" stroke="rgb(33,33,33)" fill="none" stroke-linecap="round"></path><path d="M 95.000,292.500 C 107.535,284.052 107.488,283.983 120.000,275.500" stroke-width="9.590" stroke="rgb(33,33,33)" fill="none" stroke-linecap="round"></path><path d="M 120.000,275.500 C 136.988,263.983 137.000,264.000 154.000,252.500" stroke-width="8.536" stroke="rgb(33,33,33)" fill="none" stroke-linecap="round"></path><path d="M 154.000,252.500 C 171.000,241.000 170.923,240.885 188.000,229.500" stroke-width="7.847" stroke="rgb(33,33,33)" fill="none" stroke-linecap="round"></path><path d="M 188.000,229.500 C 205.423,217.885 205.657,218.232 223.000,206.500" stroke-width="7.344" stroke="rgb(33,33,33)" fill="none" stroke-linecap="round"></path><path d="M 223.000,206.500 C 239.657,195.232 239.474,194.962 256.000,183.500" stroke-width="6.962" stroke="rgb(33,33,33)" fill="none" stroke-linecap="round"></path><path d="M 256.000,183.500 C 270.474,173.462 270.392,173.338 285.000,163.500" stroke-width="6.885" stroke="rgb(33,33,33)" fill="none" stroke-linecap="round"></path><path d="M 285.000,163.500 C 294.892,156.838 295.287,157.393 305.000,150.500" stroke-width="7.146" stroke="rgb(33,33,33)" fill="none" stroke-linecap="round"></path><path d="M 305.000,150.500 C 310.787,146.393 310.361,145.812 316.000,141.500" stroke-width="7.657" stroke="rgb(33,33,33)" fill="none" stroke-linecap="round"></path><path d="M 146.000,220.500 C 141.500,222.500 141.218,222.019 137.000,224.500" stroke-width="17.899" stroke="rgb(33,33,33)" fill="none" stroke-linecap="round"></path><path d="M 137.000,224.500 C 132.718,227.019 132.504,226.996 129.000,230.500" stroke-width="14.944" stroke="rgb(33,33,33)" fill="none" stroke-linecap="round"></path><path d="M 129.000,230.500 C 125.004,234.496 124.951,234.671 122.000,239.500" stroke-width="13.578" stroke="rgb(33,33,33)" fill="none" stroke-linecap="round"></path><path d="M 122.000,239.500 C 119.451,243.671 119.237,243.798 118.000,248.500" stroke-width="13.420" stroke="rgb(33,33,33)" fill="none" stroke-linecap="round"></path><path d="M 118.000,248.500 C 116.737,253.298 117.264,253.488 117.000,258.500" stroke-width="13.211" stroke="rgb(33,33,33)" fill="none" stroke-linecap="round"></path><path d="M 117.000,258.500 C 116.764,262.988 115.885,263.263 117.000,267.500" stroke-width="13.314" stroke="rgb(33,33,33)" fill="none" stroke-linecap="round"></path><path d="M 117.000,267.500 C 118.385,272.763 118.504,273.305 122.000,277.500" stroke-width="12.845" stroke="rgb(33,33,33)" fill="none" stroke-linecap="round"></path><path d="M 122.000,277.500 C 126.004,282.305 126.628,282.081 132.000,285.500" stroke-width="12.563" stroke="rgb(33,33,33)" fill="none" stroke-linecap="round"></path><path d="M 132.000,285.500 C 137.628,289.081 138.045,288.412 144.000,291.500" stroke-width="12.293" stroke="rgb(33,33,33)" fill="none" stroke-linecap="round"></path><path d="M 144.000,291.500 C 151.545,295.412 152.244,294.496 159.000,299.500" stroke-width="11.703" stroke="rgb(33,33,33)" fill="none" stroke-linecap="round"></path><path d="M 159.000,299.500 C 165.744,304.496 165.628,304.997 171.000,311.500" stroke-width="11.351" stroke="rgb(33,33,33)" fill="none" stroke-linecap="round"></path><path d="M 171.000,311.500 C 175.128,316.497 175.208,316.663 178.000,322.500" stroke-width="11.373" stroke="rgb(33,33,33)" fill="none" stroke-linecap="round"></path><path d="M 178.000,322.500 C 180.708,328.163 180.831,328.365 182.000,334.500" stroke-width="11.360" stroke="rgb(33,33,33)" fill="none" stroke-linecap="round"></path><path d="M 182.000,334.500 C 182.831,338.865 182.000,339.000 182.000,343.500" stroke-width="11.692" stroke="rgb(33,33,33)" fill="none" stroke-linecap="round"></path><path d="M 182.000,343.500 C 182.000,347.500 182.305,347.530 182.000,351.500" stroke-width="12.056" stroke="rgb(33,33,33)" fill="none" stroke-linecap="round"></path><path d="M 182.000,351.500 C 181.805,354.030 182.400,354.634 181.000,356.500" stroke-width="12.597" stroke="rgb(33,33,33)" fill="none" stroke-linecap="round"></path><path d="M 181.000,356.500 C 179.400,358.634 178.711,358.761 176.000,359.500" stroke-width="13.026" stroke="rgb(33,33,33)" fill="none" stroke-linecap="round"></path><path d="M 176.000,359.500 C 173.211,360.261 171.801,361.440 170.000,359.500" stroke-width="13.373" stroke="rgb(33,33,33)" fill="none" stroke-linecap="round"></path><path d="M 170.000,359.500 C 165.301,354.440 164.959,352.981 163.000,345.500" stroke-width="12.692" stroke="rgb(33,33,33)" fill="none" stroke-linecap="round"></path><path d="M 163.000,345.500 C 159.459,331.981 160.514,331.554 159.000,317.500" stroke-width="11.066" stroke="rgb(33,33,33)" fill="none" stroke-linecap="round"></path><path d="M 159.000,317.500 C 157.014,299.054 156.868,299.026 156.000,280.500" stroke-width="9.640" stroke="rgb(33,33,33)" fill="none" stroke-linecap="round"></path><path d="M 156.000,280.500 C 155.368,267.026 156.287,266.993 156.000,253.500" stroke-width="9.130" stroke="rgb(33,33,33)" fill="none" stroke-linecap="round"></path><path d="M 156.000,253.500 C 155.787,243.493 155.303,243.505 155.000,233.500" stroke-width="9.163" stroke="rgb(33,33,33)" fill="none" stroke-linecap="round"></path><path d="M 155.000,233.500 C 154.803,227.005 155.000,227.000 155.000,220.500" stroke-width="9.547" stroke="rgb(33,33,33)" fill="none" stroke-linecap="round"></path><path d="M 155.000,220.500 C 155.000,217.500 155.000,217.500 155.000,214.500" stroke-width="10.293" stroke="rgb(33,33,33)" fill="none" stroke-linecap="round"></path><path d="M 155.000,214.500 C 155.000,213.000 155.000,213.000 155.000,211.500" stroke-width="11.179" stroke="rgb(33,33,33)" fill="none" stroke-linecap="round"></path><path d="M 155.000,211.500 C 155.000,211.000 154.667,210.667 155.000,210.500" stroke-width="12.192" stroke="rgb(33,33,33)" fill="none" stroke-linecap="round"></path><path d="M 155.000,210.500 C 155.667,210.167 156.577,209.796 157.000,210.500" stroke-width="13.033" stroke="rgb(33,33,33)" fill="none" stroke-linecap="round"></path><path d="M 157.000,210.500 C 158.077,212.296 157.640,212.978 158.000,215.500" stroke-width="13.473" stroke="rgb(33,33,33)" fill="none" stroke-linecap="round"></path><path d="M 158.000,215.500 C 158.640,219.978 158.117,220.084 159.000,224.500" stroke-width="13.420" stroke="rgb(33,33,33)" fill="none" stroke-linecap="round"></path><path d="M 159.000,224.500 C 159.617,227.584 159.699,227.638 161.000,230.500" stroke-width="13.668" stroke="rgb(33,33,33)" fill="none" stroke-linecap="round"></path><path d="M 161.000,230.500 C 162.199,233.138 162.116,233.347 164.000,235.500" stroke-width="13.888" stroke="rgb(33,33,33)" fill="none" stroke-linecap="round"></path><path d="M 164.000,235.500 C 165.616,237.347 165.833,237.296 168.000,238.500" stroke-width="14.207" stroke="rgb(33,33,33)" fill="none" stroke-linecap="round"></path><path d="M 168.000,238.500 C 170.333,239.796 170.418,239.926 173.000,240.500" stroke-width="14.387" stroke="rgb(33,33,33)" fill="none" stroke-linecap="round"></path><path d="M 173.000,240.500 C 174.918,240.926 175.022,240.720 177.000,240.500" stroke-width="14.776" stroke="rgb(33,33,33)" fill="none" stroke-linecap="round"></path><path d="M 177.000,240.500 C 179.522,240.220 180.257,241.050 182.000,239.500" stroke-width="14.789" stroke="rgb(33,33,33)" fill="none" stroke-linecap="round"></path><path d="M 182.000,239.500 C 184.757,237.050 184.619,236.249 186.000,232.500" stroke-width="14.621" stroke="rgb(33,33,33)" fill="none" stroke-linecap="round"></path><path d="M 186.000,232.500 C 188.119,226.749 187.915,226.577 189.000,220.500" stroke-width="13.845" stroke="rgb(33,33,33)" fill="none" stroke-linecap="round"></path><path d="M 189.000,220.500 C 190.415,212.577 190.427,212.527 191.000,204.500" stroke-width="13.071" stroke="rgb(33,33,33)" fill="none" stroke-linecap="round"></path><path d="M 191.000,204.500 C 191.427,198.527 191.000,198.500 191.000,192.500" stroke-width="12.741" stroke="rgb(33,33,33)" fill="none" stroke-linecap="round"></path><path d="M 191.000,192.500 C 191.000,190.000 191.000,190.000 191.000,187.500" stroke-width="13.232" stroke="rgb(33,33,33)" fill="none" stroke-linecap="round"></path><path d="M 191.000,187.500 C 191.000,186.000 190.625,185.625 191.000,184.500" stroke-width="13.874" stroke="rgb(33,33,33)" fill="none" stroke-linecap="round"></path><path d="M 191.000,184.500 C 191.125,184.125 191.691,184.191 192.000,184.500" stroke-width="14.672" stroke="rgb(33,33,33)" fill="none" stroke-linecap="round"></path><path d="M 192.000,184.500 C 192.691,185.191 192.546,185.479 193.000,186.500" stroke-width="15.221" stroke="rgb(33,33,33)" fill="none" stroke-linecap="round"></path><path d="M 193.000,186.500 C 194.546,189.979 194.586,189.965 196.000,193.500" stroke-width="14.956" stroke="rgb(33,33,33)" fill="none" stroke-linecap="round"></path><path d="M 196.000,193.500 C 197.586,197.465 196.894,197.890 199.000,201.500" stroke-width="14.569" stroke="rgb(33,33,33)" fill="none" stroke-linecap="round"></path><path d="M 199.000,201.500 C 200.394,203.890 201.000,203.500 203.000,205.500" stroke-width="14.690" stroke="rgb(33,33,33)" fill="none" stroke-linecap="round"></path><path d="M 203.000,205.500 C 205.000,207.500 204.755,207.896 207.000,209.500" stroke-width="14.788" stroke="rgb(33,33,33)" fill="none" stroke-linecap="round"></path><path d="M 207.000,209.500 C 208.255,210.396 208.460,210.243 210.000,210.500" stroke-width="15.195" stroke="rgb(33,33,33)" fill="none" stroke-linecap="round"></path><path d="M 210.000,210.500 C 211.460,210.743 211.540,210.743 213.000,210.500" stroke-width="15.533" stroke="rgb(33,33,33)" fill="none" stroke-linecap="round"></path><path d="M 213.000,210.500 C 214.540,210.243 215.316,210.697 216.000,209.500" stroke-width="15.790" stroke="rgb(33,33,33)" fill="none" stroke-linecap="round"></path><path d="M 216.000,209.500 C 217.316,207.197 216.598,206.514 217.000,203.500" stroke-width="15.607" stroke="rgb(33,33,33)" fill="none" stroke-linecap="round"></path><path d="M 217.000,203.500 C 217.598,199.014 217.571,199.007 218.000,194.500" stroke-width="15.061" stroke="rgb(33,33,33)" fill="none" stroke-linecap="round"></path><path d="M 218.000,194.500 C 218.571,188.507 218.684,188.508 219.000,182.500" stroke-width="14.367" stroke="rgb(33,33,33)" fill="none" stroke-linecap="round"></path><path d="M 219.000,182.500 C 219.184,179.008 219.000,179.000 219.000,175.500" stroke-width="14.310" stroke="rgb(33,33,33)" fill="none" stroke-linecap="round"></path><path d="M 219.000,175.500 C 219.000,173.000 219.000,173.000 219.000,170.500" stroke-width="14.521" stroke="rgb(33,33,33)" fill="none" stroke-linecap="round"></path><path d="M 219.000,170.500 C 219.000,169.000 219.000,167.286 219.000,167.500" stroke-width="14.990" stroke="rgb(33,33,33)" fill="none" stroke-linecap="round"></path><path d="M 219.000,167.500 C 219.000,167.786 219.000,169.500 219.000,171.500" stroke-width="15.508" stroke="rgb(33,33,33)" fill="none" stroke-linecap="round"></path><path d="M 219.000,171.500 C 219.000,175.500 218.508,175.561 219.000,179.500" stroke-width="15.186" stroke="rgb(33,33,33)" fill="none" stroke-linecap="round"></path><path d="M 219.000,179.500 C 219.508,183.561 219.311,183.841 221.000,187.500" stroke-width="14.848" stroke="rgb(33,33,33)" fill="none" stroke-linecap="round"></path><path d="M 221.000,187.500 C 222.311,190.341 223.291,189.814 225.000,192.500" stroke-width="14.769" stroke="rgb(33,33,33)" fill="none" stroke-linecap="round"></path><path d="M 225.000,192.500 C 226.791,195.314 225.781,196.281 228.000,198.500" stroke-width="14.719" stroke="rgb(33,33,33)" fill="none" stroke-linecap="round"></path><path d="M 228.000,198.500 C 229.781,200.281 230.451,199.650 233.000,200.500" stroke-width="14.846" stroke="rgb(33,33,33)" fill="none" stroke-linecap="round"></path><path d="M 233.000,200.500 C 234.951,201.150 234.970,201.246 237.000,201.500" stroke-width="15.081" stroke="rgb(33,33,33)" fill="none" stroke-linecap="round"></path><path d="M 237.000,201.500 C 238.970,201.746 239.845,202.800 241.000,201.500" stroke-width="15.327" stroke="rgb(33,33,33)" fill="none" stroke-linecap="round"></path><path d="M 241.000,201.500 C 243.845,198.300 243.595,197.183 245.000,192.500" stroke-width="14.673" stroke="rgb(33,33,33)" fill="none" stroke-linecap="round"></path><path d="M 245.000,192.500 C 246.595,187.183 246.538,187.048 247.000,181.500" stroke-width="14.105" stroke="rgb(33,33,33)" fill="none" stroke-linecap="round"></path><path d="M 247.000,181.500 C 247.538,175.048 247.000,175.000 247.000,168.500" stroke-width="13.487" stroke="rgb(33,33,33)" fill="none" stroke-linecap="round"></path><path d="M 247.000,168.500 C 247.000,162.000 247.641,161.910 247.000,155.500" stroke-width="13.030" stroke="rgb(33,33,33)" fill="none" stroke-linecap="round"></path><path d="M 247.000,155.500 C 246.641,151.910 246.672,151.510 245.000,148.500" stroke-width="13.198" stroke="rgb(33,33,33)" fill="none" stroke-linecap="round"></path><path d="M 245.000,148.500 C 244.172,147.010 243.638,147.046 242.000,146.500" stroke-width="13.777" stroke="rgb(33,33,33)" fill="none" stroke-linecap="round"></path><path d="M 242.000,146.500 C 240.638,146.046 240.432,146.214 239.000,146.500" stroke-width="14.327" stroke="rgb(33,33,33)" fill="none" stroke-linecap="round"></path><path d="M 239.000,146.500 C 237.932,146.714 237.218,146.517 237.000,147.500" stroke-width="14.923" stroke="rgb(33,33,33)" fill="none" stroke-linecap="round"></path><path d="M 237.000,147.500 C 236.218,151.017 237.000,151.500 237.000,155.500" stroke-width="14.677" stroke="rgb(33,33,33)" fill="none" stroke-linecap="round"></path><path d="M 237.000,155.500 C 237.000,160.000 236.506,160.054 237.000,164.500" stroke-width="14.365" stroke="rgb(33,33,33)" fill="none" stroke-linecap="round"></path><path d="M 237.000,164.500 C 237.506,169.054 237.317,169.292 239.000,173.500" stroke-width="14.034" stroke="rgb(33,33,33)" fill="none" stroke-linecap="round"></path><path d="M 239.000,173.500 C 240.317,176.792 240.500,177.000 243.000,179.500" stroke-width="14.070" stroke="rgb(33,33,33)" fill="none" stroke-linecap="round"></path><path d="M 243.000,179.500 C 245.500,182.000 245.778,182.036 249.000,183.500" stroke-width="14.100" stroke="rgb(33,33,33)" fill="none" stroke-linecap="round"></path><path d="M 249.000,183.500 C 251.278,184.536 251.475,184.248 254.000,184.500" stroke-width="14.334" stroke="rgb(33,33,33)" fill="none" stroke-linecap="round"></path><path d="M 254.000,184.500 C 256.475,184.748 256.808,185.377 259.000,184.500" stroke-width="14.579" stroke="rgb(33,33,33)" fill="none" stroke-linecap="round"></path><path d="M 259.000,184.500 C 261.808,183.377 262.479,183.161 264.000,180.500" stroke-width="14.605" stroke="rgb(33,33,33)" fill="none" stroke-linecap="round"></path><path d="M 264.000,180.500 C 266.479,176.161 265.894,175.589 267.000,170.500" stroke-width="14.141" stroke="rgb(33,33,33)" fill="none" stroke-linecap="round"></path><path d="M 267.000,170.500 C 268.394,164.089 268.516,164.039 269.000,157.500" stroke-width="13.410" stroke="rgb(33,33,33)" fill="none" stroke-linecap="round"></path><path d="M 269.000,157.500 C 269.516,150.539 268.721,150.487 269.000,143.500" stroke-width="12.876" stroke="rgb(33,33,33)" fill="none" stroke-linecap="round"></path><path d="M 269.000,143.500 C 269.221,137.987 269.656,138.007 270.000,132.500" stroke-width="12.686" stroke="rgb(33,33,33)" fill="none" stroke-linecap="round"></path><path d="M 270.000,132.500 C 270.156,130.007 270.000,130.000 270.000,127.500" stroke-width="13.185" stroke="rgb(33,33,33)" fill="none" stroke-linecap="round"></path><path d="M 270.000,127.500 C 270.000,126.000 269.546,124.500 270.000,124.500" stroke-width="13.832" stroke="rgb(33,33,33)" fill="none" stroke-linecap="round"></path><path d="M 270.000,124.500 C 270.546,124.500 271.126,125.927 272.000,127.500" stroke-width="14.530" stroke="rgb(33,33,33)" fill="none" stroke-linecap="round"></path><path d="M 272.000,127.500 C 273.626,130.427 273.500,130.500 275.000,133.500" stroke-width="14.615" stroke="rgb(33,33,33)" fill="none" stroke-linecap="round"></path><path d="M 275.000,133.500 C 276.500,136.500 276.053,136.822 278.000,139.500" stroke-width="14.596" stroke="rgb(33,33,33)" fill="none" stroke-linecap="round"></path><path d="M 278.000,139.500 C 280.053,142.322 280.364,142.157 283.000,144.500" stroke-width="14.421" stroke="rgb(33,33,33)" fill="none" stroke-linecap="round"></path><path d="M 283.000,144.500 C 284.864,146.157 284.778,146.667 287.000,147.500" stroke-width="14.612" stroke="rgb(33,33,33)" fill="none" stroke-linecap="round"></path><path d="M 287.000,147.500 C 288.778,148.167 289.000,147.500 291.000,147.500" stroke-width="14.937" stroke="rgb(33,33,33)" fill="none" stroke-linecap="round"></path><path d="M 291.000,147.500 C 293.000,147.500 293.159,148.026 295.000,147.500" stroke-width="15.207" stroke="rgb(33,33,33)" fill="none" stroke-linecap="round"></path><path d="M 295.000,147.500 C 296.659,147.026 297.430,147.066 298.000,145.500" stroke-width="15.485" stroke="rgb(33,33,33)" fill="none" stroke-linecap="round"></path><path d="M 298.000,145.500 C 299.430,141.566 298.571,141.007 299.000,136.500" stroke-width="14.896" stroke="rgb(33,33,33)" fill="none" stroke-linecap="round"></path><path d="M 299.000,136.500 C 299.571,130.507 299.750,130.510 300.000,124.500" stroke-width="14.169" stroke="rgb(33,33,33)" fill="none" stroke-linecap="round"></path><path d="M 300.000,124.500 C 300.250,118.510 300.000,118.500 300.000,112.500" stroke-width="13.560" stroke="rgb(33,33,33)" fill="none" stroke-linecap="round"></path><path d="M 300.000,112.500 C 300.000,106.000 300.612,105.925 300.000,99.500" stroke-width="13.085" stroke="rgb(33,33,33)" fill="none" stroke-linecap="round"></path><path d="M 300.000,99.500 C 299.612,95.425 298.927,95.516 298.000,91.500" stroke-width="13.238" stroke="rgb(33,33,33)" fill="none" stroke-linecap="round"></path><path d="M 298.000,91.500 C 297.427,89.016 297.617,88.969 297.000,86.500" stroke-width="13.648" stroke="rgb(33,33,33)" fill="none" stroke-linecap="round"></path><path d="M 297.000,86.500 C 296.617,84.969 296.221,83.279 296.000,83.500" stroke-width="14.169" stroke="rgb(33,33,33)" fill="none" stroke-linecap="round"></path><path d="M 296.000,83.500 C 295.721,83.779 295.555,85.572 296.000,87.500" stroke-width="14.799" stroke="rgb(33,33,33)" fill="none" stroke-linecap="round"></path><path d="M 296.000,87.500 C 297.055,92.072 297.082,92.184 299.000,96.500" stroke-width="14.463" stroke="rgb(33,33,33)" fill="none" stroke-linecap="round"></path><path d="M 299.000,96.500 C 301.082,101.184 301.446,101.031 304.000,105.500" stroke-width="13.977" stroke="rgb(33,33,33)" fill="none" stroke-linecap="round"></path><path d="M 304.000,105.500 C 305.446,108.031 305.332,108.117 307.000,110.500" stroke-width="14.185" stroke="rgb(33,33,33)" fill="none" stroke-linecap="round"></path><path d="M 307.000,110.500 C 308.832,113.117 308.919,113.072 311.000,115.500" stroke-width="14.329" stroke="rgb(33,33,33)" fill="none" stroke-linecap="round"></path><path d="M 311.000,115.500 C 311.919,116.572 311.892,116.761 313.000,117.500" stroke-width="14.825" stroke="rgb(33,33,33)" fill="none" stroke-linecap="round"></path><path d="M 313.000,117.500 C 313.392,117.761 313.805,117.890 314.000,117.500" stroke-width="15.514" stroke="rgb(33,33,33)" fill="none" stroke-linecap="round"></path><path d="M 314.000,117.500 C 314.805,115.890 314.880,115.547 315.000,113.500" stroke-width="15.665" stroke="rgb(33,33,33)" fill="none" stroke-linecap="round"></path><path d="M 315.000,113.500 C 315.380,107.047 315.000,107.000 315.000,100.500" stroke-width="14.599" stroke="rgb(33,33,33)" fill="none" stroke-linecap="round"></path><path d="M 315.000,100.500 C 315.000,94.000 315.689,93.932 315.000,87.500" stroke-width="13.845" stroke="rgb(33,33,33)" fill="none" stroke-linecap="round"></path><path d="M 315.000,87.500 C 314.189,79.932 313.602,79.978 312.000,72.500" stroke-width="12.970" stroke="rgb(33,33,33)" fill="none" stroke-linecap="round"></path><path d="M 312.000,72.500 C 310.602,65.978 310.617,65.970 309.000,59.500" stroke-width="12.609" stroke="rgb(33,33,33)" fill="none" stroke-linecap="round"></path><path d="M 309.000,59.500 C 308.117,55.970 308.580,55.659 307.000,52.500" stroke-width="12.894" stroke="rgb(33,33,33)" fill="none" stroke-linecap="round"></path><path d="M 307.000,52.500 C 306.080,50.659 305.699,50.519 304.000,49.500" stroke-width="13.416" stroke="rgb(33,33,33)" fill="none" stroke-linecap="round"></path><path d="M 304.000,49.500 C 303.199,49.019 302.431,48.746 302.000,49.500" stroke-width="14.150" stroke="rgb(33,33,33)" fill="none" stroke-linecap="round"></path><path d="M 302.000,49.500 C 300.431,52.246 300.288,52.900 300.000,56.500" stroke-width="14.103" stroke="rgb(33,33,33)" fill="none" stroke-linecap="round"></path><path d="M 300.000,56.500 C 299.288,65.400 300.000,65.500 300.000,74.500" stroke-width="12.977" stroke="rgb(33,33,33)" fill="none" stroke-linecap="round"></path></svg>