<svg xmlns="http://www.w3.org/2000/svg" xmlns:xlink="http://www.w3.org/1999/xlink" viewBox="0 0 800 500"><path d="M 123.000,314.000 C 123.000,314.500 123.000,314.500 123.000,315.000" stroke-width="20.239" stroke="rgb(33,33,33)" fill="none" stroke-linecap="round"></path><path d="M 123.000,315.000 C 123.000,315.500 123.000,315.500 123.000,316.000" stroke-width="20.201" stroke="rgb(33,33,33)" fill="none" stroke-linecap="round"></path><path d="M 123.000,316.000 C 123.000,316.500 123.000,316.500 123.000,317.000" stroke-width="20.139" stroke="rgb(33,33,33)" fill="none" stroke-linecap="round"></path><path d="M 123.000,317.000 C 123.000,317.500 123.000,317.500 123.000,318.000" stroke-width="20.102" stroke="rgb(33,33,33)" fill="none" stroke-linecap="round"></path><path d="M 123.000,318.000 C 123.000,318.500 123.000,318.500 123.000,319.000" stroke-width="20.072" stroke="rgb(33,33,33)" fill="none" stroke-linecap="round"></path><path d="M 123.000,319.000 C 123.000,319.500 123.000,319.500 123.000,320.000" stroke-width="19.991" stroke="rgb(33,33,33)" fill="none" stroke-linecap="round"></path><path d="M 123.000,320.000 C 123.000,320.500 123.000,320.500 123.000,321.000" stroke-width="19.926" stroke="rgb(33,33,33)" fill="none" stroke-linecap="round"></path><path d="M 123.000,321.000 C 123.000,321.500 123.000,321.500 123.000,322.000" stroke-width="19.958" stroke="rgb(33,33,33)" fill="none" stroke-linecap="round"></path><path d="M 123.000,322.000 C 123.000,322.500 122.750,322.750 123.000,323.000" stroke-width="19.989" stroke="rgb(33,33,33)" fill="none" stroke-linecap="round"></path><path d="M 123.000,323.000 C 123.250,323.250 123.750,322.750 124.000,323.000" stroke-width="19.823" stroke="rgb(33,33,33)" fill="none" stroke-linecap="round"></path><path d="M 124.000,323.000 C 124.250,323.250 123.667,323.833 124.000,324.000" stroke-width="19.843" stroke="rgb(33,33,33)" fill="none" stroke-linecap="round"></path><path d="M 124.000,324.000 C 124.667,324.333 125.333,323.667 126.000,324.000" stroke-width="19.472" stroke="rgb(33,33,33)" fill="none" stroke-linecap="round"></path><path d="M 126.000,324.000 C 126.333,324.167 126.000,324.500 126.000,325.000" stroke-width="19.402" stroke="rgb(33,33,33)" fill="none" stroke-linecap="round"></path><path d="M 126.000,325.000 C 126.500,325.500 126.500,325.500 127.000,326.000" stroke-width="19.571" stroke="rgb(33,33,33)" fill="none" stroke-linecap="round"></path><path d="M 127.000,326.000 C 127.500,326.500 127.414,326.707 128.000,327.000" stroke-width="19.605" stroke="rgb(33,33,33)" fill="none" stroke-linecap="round"></path><path d="M 128.000,327.000 C 128.414,327.207 128.833,326.667 129.000,327.000" stroke-width="19.674" stroke="rgb(33,33,33)" fill="none" stroke-linecap="round"></path><path d="M 129.000,327.000 C 129.333,327.667 128.667,328.333 129.000,329.000" stroke-width="19.342" stroke="rgb(33,33,33)" fill="none" stroke-linecap="round"></path><path d="M 129.000,329.000 C 129.167,329.333 129.543,328.817 130.000,329.000" stroke-width="19.442" stroke="rgb(33,33,33)" fill="none" stroke-linecap="round"></path><path d="M 130.000,329.000 C 132.043,329.817 131.957,330.183 134.000,331.000" stroke-width="19.458" stroke="rgb(33,33,33)" fill="none" stroke-linecap="round"></path><path d="M 134.000,331.000 C 134.457,331.183 134.500,331.000 135.000,331.000" stroke-width="19.403" stroke="rgb(33,33,33)" fill="none" stroke-linecap="round"></path><path d="M 135.000,331.000 C 135.500,331.000 135.500,331.000 136.000,331.000" stroke-width="19.456" stroke="rgb(33,33,33)" fill="none" stroke-linecap="round"></path><path d="M 136.000,331.000 C 136.500,331.000 136.500,331.000 137.000,331.000" stroke-width="19.422" stroke="rgb(33,33,33)" fill="none" stroke-linecap="round"></path><path d="M 137.000,331.000 C 137.500,331.000 137.500,331.000 138.000,331.000" stroke-width="19.419" stroke="rgb(33,33,33)" fill="none" stroke-linecap="round"></path><path d="M 138.000,331.000 C 138.000,331.000 138.000,331.000 138.000,331.000" stroke-width="19.579" stroke="rgb(33,33,33)" fill="none" stroke-linecap="round"></path><path d="M 138.000,331.000 C 139.000,331.000 139.000,331.000 140.000,331.000" stroke-width="19.293" stroke="rgb(33,33,33)" fill="none" stroke-linecap="round"></path><path d="M 140.000,331.000 C 140.500,331.000 140.500,331.000 141.000,331.000" stroke-width="19.259" stroke="rgb(33,33,33)" fill="none" stroke-linecap="round"></path><path d="M 141.000,331.000 C 141.500,331.000 141.500,331.000 142.000,331.000" stroke-width="19.244" stroke="rgb(33,33,33)" fill="none" stroke-linecap="round"></path><path d="M 142.000,331.000 C 143.000,331.000 143.000,331.000 144.000,331.000" stroke-width="19.008" stroke="rgb(33,33,33)" fill="none" stroke-linecap="round"></path><path d="M 144.000,331.000 C 144.500,331.000 144.500,331.000 145.000,331.000" stroke-width="19.031" stroke="rgb(33,33,33)" fill="none" stroke-linecap="round"></path><path d="M 145.000,331.000 C 145.500,331.000 145.500,331.000 146.000,331.000" stroke-width="19.062" stroke="rgb(33,33,33)" fill="none" stroke-linecap="round"></path><path d="M 146.000,331.000 C 146.500,331.000 146.500,331.000 147.000,331.000" stroke-width="19.074" stroke="rgb(33,33,33)" fill="none" stroke-linecap="round"></path><path d="M 147.000,331.000 C 147.500,331.000 147.566,331.217 148.000,331.000" stroke-width="19.096" stroke="rgb(33,33,33)" fill="none" stroke-linecap="round"></path><path d="M 148.000,331.000 C 149.566,330.217 149.434,329.783 151.000,329.000" stroke-width="19.177" stroke="rgb(33,33,33)" fill="none" stroke-linecap="round"></path><path d="M 151.000,329.000 C 151.434,328.783 151.586,329.207 152.000,329.000" stroke-width="19.215" stroke="rgb(33,33,33)" fill="none" stroke-linecap="round"></path><path d="M 152.000,329.000 C 152.586,328.707 152.707,328.586 153.000,328.000" stroke-width="19.197" stroke="rgb(33,33,33)" fill="none" stroke-linecap="round"></path><path d="M 153.000,328.000 C 153.207,327.586 153.000,327.500 153.000,327.000" stroke-width="19.223" stroke="rgb(33,33,33)" fill="none" stroke-linecap="round"></path><path d="M 153.000,327.000 C 153.000,326.500 152.793,326.414 153.000,326.000" stroke-width="19.260" stroke="rgb(33,33,33)" fill="none" stroke-linecap="round"></path><path d="M 153.000,326.000 C 153.293,325.414 153.707,325.586 154.000,325.000" stroke-width="19.291" stroke="rgb(33,33,33)" fill="none" stroke-linecap="round"></path><path d="M 154.000,325.000 C 154.207,324.586 154.000,324.500 154.000,324.000" stroke-width="19.366" stroke="rgb(33,33,33)" fill="none" stroke-linecap="round"></path><path d="M 154.000,324.000 C 154.000,323.500 153.667,323.167 154.000,323.000" stroke-width="19.451" stroke="rgb(33,33,33)" fill="none" stroke-linecap="round"></path><path d="M 154.000,323.000 C 154.667,322.667 155.333,323.333 156.000,323.000" stroke-width="19.169" stroke="rgb(33,33,33)" fill="none" stroke-linecap="round"></path><path d="M 156.000,323.000 C 156.333,322.833 156.000,322.500 156.000,322.000" stroke-width="19.160" stroke="rgb(33,33,33)" fill="none" stroke-linecap="round"></path><path d="M 156.000,322.000 C 156.000,321.500 156.000,321.500 156.000,321.000" stroke-width="19.153" stroke="rgb(33,33,33)" fill="none" stroke-linecap="round"></path><path d="M 156.000,321.000 C 156.000,319.500 155.757,319.460 156.000,318.000" stroke-width="18.731" stroke="rgb(33,33,33)" fill="none" stroke-linecap="round"></path><path d="M 156.000,318.000 C 156.257,316.460 156.743,316.540 157.000,315.000" stroke-width="18.409" stroke="rgb(33,33,33)" fill="none" stroke-linecap="round"></path><path d="M 157.000,315.000 C 157.243,313.540 157.000,313.500 157.000,312.000" stroke-width="18.121" stroke="rgb(33,33,33)" fill="none" stroke-linecap="round"></path><path d="M 157.000,312.000 C 157.000,310.000 156.754,309.970 157.000,308.000" stroke-width="17.787" stroke="rgb(33,33,33)" fill="none" stroke-linecap="round"></path><path d="M 157.000,308.000 C 157.254,305.970 157.796,306.036 158.000,304.000" stroke-width="17.468" stroke="rgb(33,33,33)" fill="none" stroke-linecap="round"></path><path d="M 158.000,304.000 C 158.296,301.036 158.000,301.000 158.000,298.000" stroke-width="16.841" stroke="rgb(33,33,33)" fill="none" stroke-linecap="round"></path><path d="M 158.000,298.000 C 158.000,296.000 157.574,295.918 158.000,294.000" stroke-width="16.749" stroke="rgb(33,33,33)" fill="none" stroke-linecap="round"></path><path d="M 158.000,294.000 C 158.574,291.418 159.358,291.569 160.000,289.000" stroke-width="16.503" stroke="rgb(33,33,33)" fill="none" stroke-linecap="round"></path><path d="M 160.000,289.000 C 160.358,287.569 160.000,287.500 160.000,286.000" stroke-width="16.640" stroke="rgb(33,33,33)" fill="none" stroke-linecap="round"></path><path d="M 160.000,286.000 C 160.000,283.500 160.000,283.500 160.000,281.000" stroke-width="16.476" stroke="rgb(33,33,33)" fill="none" stroke-linecap="round"></path><path d="M 160.000,281.000 C 160.000,279.500 160.000,279.500 160.000,278.000" stroke-width="16.618" stroke="rgb(33,33,33)" fill="none" stroke-linecap="round"></path><path d="M 160.000,278.000 C 160.000,276.500 160.000,276.500 160.000,275.000" stroke-width="16.734" stroke="rgb(33,33,33)" fill="none" stroke-linecap="round"></path><path d="M 160.000,275.000 C 160.000,272.500 160.000,272.500 160.000,270.000" stroke-width="16.504" stroke="rgb(33,33,33)" fill="none" stroke-linecap="round"></path><path d="M 160.000,270.000 C 160.000,268.000 160.000,268.000 160.000,266.000" stroke-width="16.549" stroke="rgb(33,33,33)" fill="none" stroke-linecap="round"></path><path d="M 160.000,266.000 C 160.000,263.500 160.000,263.500 160.000,261.000" stroke-width="16.360" stroke="rgb(33,33,33)" fill="none" stroke-linecap="round"></path><path d="M 160.000,261.000 C 160.000,259.500 160.000,259.500 160.000,258.000" stroke-width="16.524" stroke="rgb(33,33,33)" fill="none" stroke-linecap="round"></path><path d="M 160.000,258.000 C 160.000,256.000 160.000,256.000 160.000,254.000" stroke-width="16.458" stroke="rgb(33,33,33)" fill="none" stroke-linecap="round"></path><path d="M 160.000,254.000 C 160.000,252.000 160.000,252.000 160.000,250.000" stroke-width="16.445" stroke="rgb(33,33,33)" fill="none" stroke-linecap="round"></path><path d="M 160.000,250.000 C 160.000,247.500 160.581,247.324 160.000,245.000" stroke-width="16.231" stroke="rgb(33,33,33)" fill="none" stroke-linecap="round"></path><path d="M 160.000,245.000 C 159.581,243.324 158.474,243.659 158.000,242.000" stroke-width="16.324" stroke="rgb(33,33,33)" fill="none" stroke-linecap="round"></path><path d="M 158.000,242.000 C 157.474,240.159 158.321,239.924 158.000,238.000" stroke-width="16.338" stroke="rgb(33,33,33)" fill="none" stroke-linecap="round"></path><path d="M 158.000,238.000 C 157.821,236.924 157.352,237.055 157.000,236.000" stroke-width="16.627" stroke="rgb(33,33,33)" fill="none" stroke-linecap="round"></path><path d="M 157.000,236.000 C 156.352,234.055 156.650,233.951 156.000,232.000" stroke-width="16.560" stroke="rgb(33,33,33)" fill="none" stroke-linecap="round"></path><path d="M 156.000,232.000 C 155.150,229.451 154.642,229.569 154.000,227.000" stroke-width="16.310" stroke="rgb(33,33,33)" fill="none" stroke-linecap="round"></path><path d="M 154.000,227.000 C 153.642,225.569 154.358,225.431 154.000,224.000" stroke-width="16.483" stroke="rgb(33,33,33)" fill="none" stroke-linecap="round"></path><path d="M 154.000,224.000 C 153.358,221.431 153.198,221.396 152.000,219.000" stroke-width="16.249" stroke="rgb(33,33,33)" fill="none" stroke-linecap="round"></path><path d="M 152.000,219.000 C 151.198,217.396 150.799,217.598 150.000,216.000" stroke-width="16.339" stroke="rgb(33,33,33)" fill="none" stroke-linecap="round"></path><path d="M 150.000,216.000 C 149.299,214.598 149.586,214.464 149.000,213.000" stroke-width="16.576" stroke="rgb(33,33,33)" fill="none" stroke-linecap="round"></path><path d="M 149.000,213.000 C 148.586,211.964 148.792,211.528 148.000,211.000" stroke-width="16.712" stroke="rgb(33,33,33)" fill="none" stroke-linecap="round"></path><path d="M 148.000,211.000 C 147.292,210.528 147.000,211.000 146.000,211.000" stroke-width="16.976" stroke="rgb(33,33,33)" fill="none" stroke-linecap="round"></path><path d="M 146.000,211.000 C 145.500,211.000 145.500,211.000 145.000,211.000" stroke-width="17.516" stroke="rgb(33,33,33)" fill="none" stroke-linecap="round"></path><path d="M 145.000,211.000 C 144.500,211.000 144.500,211.000 144.000,211.000" stroke-width="17.955" stroke="rgb(33,33,33)" fill="none" stroke-linecap="round"></path><path d="M 144.000,211.000 C 143.500,211.000 143.250,210.750 143.000,211.000" stroke-width="18.274" stroke="rgb(33,33,33)" fill="none" stroke-linecap="round"></path><path d="M 143.000,211.000 C 142.750,211.250 143.250,211.750 143.000,212.000" stroke-width="18.537" stroke="rgb(33,33,33)" fill="none" stroke-linecap="round"></path><path d="M 143.000,212.000 C 142.750,212.250 142.167,211.667 142.000,212.000" stroke-width="18.663" stroke="rgb(33,33,33)" fill="none" stroke-linecap="round"></path><path d="M 142.000,212.000 C 141.667,212.667 142.333,213.333 142.000,214.000" stroke-width="18.552" stroke="rgb(33,33,33)" fill="none" stroke-linecap="round"></path><path d="M 142.000,214.000 C 141.833,214.333 141.167,213.667 141.000,214.000" stroke-width="18.702" stroke="rgb(33,33,33)" fill="none" stroke-linecap="round"></path><path d="M 141.000,214.000 C 140.667,214.667 141.000,215.000 141.000,216.000" stroke-width="18.605" stroke="rgb(33,33,33)" fill="none" stroke-linecap="round"></path><path d="M 141.000,216.000 C 141.000,216.500 141.250,216.750 141.000,217.000" stroke-width="18.694" stroke="rgb(33,33,33)" fill="none" stroke-linecap="round"></path><path d="M 141.000,217.000 C 140.750,217.250 140.167,216.667 140.000,217.000" stroke-width="18.790" stroke="rgb(33,33,33)" fill="none" stroke-linecap="round"></path><path d="M 140.000,217.000 C 139.667,217.667 140.000,218.000 140.000,219.000" stroke-width="18.652" stroke="rgb(33,33,33)" fill="none" stroke-linecap="round"></path><path d="M 140.000,219.000 C 140.000,219.500 140.155,219.536 140.000,220.000" stroke-width="18.744" stroke="rgb(33,33,33)" fill="none" stroke-linecap="round"></path><path d="M 140.000,220.000 C 139.655,221.036 139.345,220.964 139.000,222.000" stroke-width="18.568" stroke="rgb(33,33,33)" fill="none" stroke-linecap="round"></path><path d="M 139.000,222.000 C 138.845,222.464 139.000,222.500 139.000,223.000" stroke-width="18.688" stroke="rgb(33,33,33)" fill="none" stroke-linecap="round"></path><path d="M 139.000,223.000 C 139.000,224.000 139.000,224.000 139.000,225.000" stroke-width="18.547" stroke="rgb(33,33,33)" fill="none" stroke-linecap="round"></path><path d="M 139.000,225.000 C 139.000,226.000 139.000,226.000 139.000,227.000" stroke-width="18.501" stroke="rgb(33,33,33)" fill="none" stroke-linecap="round"></path><path d="M 139.000,227.000 C 139.000,229.000 139.000,229.000 139.000,231.000" stroke-width="18.411" stroke="rgb(33,33,33)" fill="none" stroke-linecap="round"></path><path d="M 139.000,231.000 C 139.000,232.500 139.000,232.500 139.000,234.000" stroke-width="18.190" stroke="rgb(33,33,33)" fill="none" stroke-linecap="round"></path><path d="M 139.000,234.000 C 139.000,236.000 139.000,236.000 139.000,238.000" stroke-width="17.754" stroke="rgb(33,33,33)" fill="none" stroke-linecap="round"></path><path d="M 139.000,238.000 C 139.000,240.000 139.000,240.000 139.000,242.000" stroke-width="17.464" stroke="rgb(33,33,33)" fill="none" stroke-linecap="round"></path><path d="M 139.000,242.000 C 139.000,244.500 139.000,244.500 139.000,247.000" stroke-width="17.068" stroke="rgb(33,33,33)" fill="none" stroke-linecap="round"></path><path d="M 139.000,247.000 C 139.000,249.000 139.000,249.000 139.000,251.000" stroke-width="16.928" stroke="rgb(33,33,33)" fill="none" stroke-linecap="round"></path><path d="M 139.000,251.000 C 139.000,253.000 139.000,253.000 139.000,255.000" stroke-width="16.855" stroke="rgb(33,33,33)" fill="none" stroke-linecap="round"></path><path d="M 139.000,255.000 C 139.000,256.000 139.000,256.000 139.000,257.000" stroke-width="17.093" stroke="rgb(33,33,33)" fill="none" stroke-linecap="round"></path><path d="M 139.000,257.000 C 139.000,258.500 139.000,258.500 139.000,260.000" stroke-width="17.117" stroke="rgb(33,33,33)" fill="none" stroke-linecap="round"></path><path d="M 139.000,260.000 C 139.000,261.000 138.806,261.031 139.000,262.000" stroke-width="17.328" stroke="rgb(33,33,33)" fill="none" stroke-linecap="round"></path><path d="M 139.000,262.000 C 139.306,263.531 139.694,263.469 140.000,265.000" stroke-width="17.276" stroke="rgb(33,33,33)" fill="none" stroke-linecap="round"></path><path d="M 140.000,265.000 C 140.194,265.969 140.000,266.000 140.000,267.000" stroke-width="17.439" stroke="rgb(33,33,33)" fill="none" stroke-linecap="round"></path><path d="M 140.000,267.000 C 140.000,268.500 140.000,268.500 140.000,270.000" stroke-width="17.393" stroke="rgb(33,33,33)" fill="none" stroke-linecap="round"></path><path d="M 140.000,270.000 C 140.000,271.500 139.757,271.540 140.000,273.000" stroke-width="17.386" stroke="rgb(33,33,33)" fill="none" stroke-linecap="round"></path><path d="M 140.000,273.000 C 140.257,274.540 140.620,274.481 141.000,276.000" stroke-width="17.322" stroke="rgb(33,33,33)" fill="none" stroke-linecap="round"></path><path d="M 141.000,276.000 C 141.120,276.481 140.845,276.536 141.000,277.000" stroke-width="17.708" stroke="rgb(33,33,33)" fill="none" stroke-linecap="round"></path><path d="M 141.000,277.000 C 141.345,278.036 141.736,277.944 142.000,279.000" stroke-width="17.464" stroke="rgb(33,33,33)" fill="none" stroke-linecap="round"></path><path d="M 142.000,279.000 C 142.236,279.944 141.806,280.031 142.000,281.000" stroke-width="17.611" stroke="rgb(33,33,33)" fill="none" stroke-linecap="round"></path><path d="M 142.000,281.000 C 142.306,282.531 142.743,282.460 143.000,284.000" stroke-width="17.748" stroke="rgb(33,33,33)" fill="none" stroke-linecap="round"></path><path d="M 143.000,284.000 C 143.243,285.460 142.625,285.875 143.000,287.000" stroke-width="16.426" stroke="rgb(33,33,33)" fill="none" stroke-linecap="round"></path><path d="M 143.000,287.000 C 143.125,287.375 143.833,286.667 144.000,287.000" stroke-width="16.903" stroke="rgb(33,33,33)" fill="none" stroke-linecap="round"></path><path d="M 144.000,287.000 C 144.333,287.667 144.000,288.000 144.000,289.000" stroke-width="17.133" stroke="rgb(33,33,33)" fill="none" stroke-linecap="round"></path><path d="M 144.000,289.000 C 144.000,289.500 144.000,289.500 144.000,290.000" stroke-width="17.498" stroke="rgb(33,33,33)" fill="none" stroke-linecap="round"></path><path d="M 144.000,290.000 C 144.000,290.000 144.000,290.000 144.000,290.000" stroke-width="17.987" stroke="rgb(33,33,33)" fill="none" stroke-linecap="round"></path><path d="M 144.000,290.000 C 144.500,290.000 144.750,289.750 145.000,290.000" stroke-width="18.232" stroke="rgb(33,33,33)" fill="none" stroke-linecap="round"></path><path d="M 145.000,290.000 C 145.250,290.250 145.000,290.500 145.000,291.000" stroke-width="18.526" stroke="rgb(33,33,33)" fill="none" stroke-linecap="round"></path><path d="M 145.000,291.000 C 145.000,291.500 144.793,291.586 145.000,292.000" stroke-width="18.695" stroke="rgb(33,33,33)" fill="none" stroke-linecap="round"></path><path d="M 145.000,292.000 C 145.293,292.586 145.840,292.359 146.000,293.000" stroke-width="18.770" stroke="rgb(33,33,33)" fill="none" stroke-linecap="round"></path><path d="M 146.000,293.000 C 146.340,294.359 145.757,294.540 146.000,296.000" stroke-width="18.470" stroke="rgb(33,33,33)" fill="none" stroke-linecap="round"></path><path d="M 146.000,296.000 C 146.257,297.540 146.743,297.460 147.000,299.000" stroke-width="18.173" stroke="rgb(33,33,33)" fill="none" stroke-linecap="round"></path><path d="M 147.000,299.000 C 147.243,300.460 146.714,300.568 147.000,302.000" stroke-width="17.972" stroke="rgb(33,33,33)" fill="none" stroke-linecap="round"></path><path d="M 147.000,302.000 C 147.214,303.068 147.387,303.081 148.000,304.000" stroke-width="17.957" stroke="rgb(33,33,33)" fill="none" stroke-linecap="round"></path><path d="M 148.000,304.000 C 148.387,304.581 148.613,304.419 149.000,305.000" stroke-width="18.115" stroke="rgb(33,33,33)" fill="none" stroke-linecap="round"></path><path d="M 149.000,305.000 C 149.613,305.919 149.655,305.964 150.000,307.000" stroke-width="18.044" stroke="rgb(33,33,33)" fill="none" stroke-linecap="round"></path><path d="M 150.000,307.000 C 150.155,307.464 150.000,307.500 150.000,308.000" stroke-width="18.271" stroke="rgb(33,33,33)" fill="none" stroke-linecap="round"></path><path d="M 150.000,308.000 C 150.000,308.500 150.000,308.500 150.000,309.000" stroke-width="18.435" stroke="rgb(33,33,33)" fill="none" stroke-linecap="round"></path><path d="M 150.000,309.000 C 150.000,309.500 150.000,309.500 150.000,310.000" stroke-width="18.580" stroke="rgb(33,33,33)" fill="none" stroke-linecap="round"></path><path d="M 150.000,310.000 C 150.000,310.500 149.793,310.586 150.000,311.000" stroke-width="18.698" stroke="rgb(33,33,33)" fill="none" stroke-linecap="round"></path><path d="M 150.000,311.000 C 150.293,311.586 150.707,311.414 151.000,312.000" stroke-width="18.680" stroke="rgb(33,33,33)" fill="none" stroke-linecap="round"></path><path d="M 151.000,312.000 C 151.207,312.414 151.000,312.500 151.000,313.000" stroke-width="18.778" stroke="rgb(33,33,33)" fill="none" stroke-linecap="round"></path><path d="M 151.000,313.000 C 151.000,313.500 151.000,313.500 151.000,314.000" stroke-width="18.847" stroke="rgb(33,33,33)" fill="none" stroke-linecap="round"></path><path d="M 151.000,314.000 C 151.000,314.500 151.000,314.500 151.000,315.000" stroke-width="19.003" stroke="rgb(33,33,33)" fill="none" stroke-linecap="round"></path><path d="M 151.000,315.000 C 151.000,315.500 151.000,315.500 151.000,316.000" stroke-width="19.234" stroke="rgb(33,33,33)" fill="none" stroke-linecap="round"></path><path d="M 151.000,316.000 C 151.000,316.500 151.000,316.500 151.000,317.000" stroke-width="19.320" stroke="rgb(33,33,33)" fill="none" stroke-linecap="round"></path><path d="M 151.000,317.000 C 151.000,317.500 151.000,317.500 151.000,318.000" stroke-width="19.337" stroke="rgb(33,33,33)" fill="none" stroke-linecap="round"></path><path d="M 151.000,318.000 C 151.000,318.500 151.000,318.500 151.000,319.000" stroke-width="19.364" stroke="rgb(33,33,33)" fill="none" stroke-linecap="round"></path><path d="M 151.000,319.000 C 151.000,320.500 151.000,320.500 151.000,322.000" stroke-width="18.891" stroke="rgb(33,33,33)" fill="none" stroke-linecap="round"></path><path d="M 151.000,322.000 C 151.000,322.500 151.000,322.500 151.000,323.000" stroke-width="18.925" stroke="rgb(33,33,33)" fill="none" stroke-linecap="round"></path><path d="M 151.000,323.000 C 151.000,324.000 151.000,324.000 151.000,325.000" stroke-width="18.758" stroke="rgb(33,33,33)" fill="none" stroke-linecap="round"></path><path d="M 151.000,325.000 C 151.000,326.000 151.000,326.000 151.000,327.000" stroke-width="18.626" stroke="rgb(33,33,33)" fill="none" stroke-linecap="round"></path><path d="M 151.000,327.000 C 151.000,327.500 150.783,327.566 151.000,328.000" stroke-width="18.735" stroke="rgb(33,33,33)" fill="none" stroke-linecap="round"></path></svg>