<svg xmlns="http://www.w3.org/2000/svg" xmlns:xlink="http://www.w3.org/1999/xlink" viewBox="0 0 360 500"><path d="M 129.000,160.000 C 132.877,149.308 134.256,149.622 136.753,138.616" stroke-width="18.800" stroke="rgb(33,33,33)" fill="none" stroke-linecap="round"></path><path d="M 136.753,138.616 C 139.273,127.508 139.339,127.133 139.033,115.773" stroke-width="15.015" stroke="rgb(33,33,33)" fill="none" stroke-linecap="round"></path><path d="M 139.033,115.773 C 138.788,106.669 139.270,105.556 135.650,97.689" stroke-width="13.842" stroke="rgb(33,33,33)" fill="none" stroke-linecap="round"></path><path d="M 135.650,97.689 C 133.731,93.519 132.363,91.315 127.956,91.698" stroke-width="13.414" stroke="rgb(33,33,33)" fill="none" stroke-linecap="round"></path><path d="M 127.956,91.698 C 115.659,92.766 113.002,92.770 102.241,100.591" stroke-width="11.842" stroke="rgb(33,33,33)" fill="none" stroke-linecap="round"></path><path d="M 102.241,100.591 C 81.326,115.793 80.941,117.184 64.604,137.744" stroke-width="8.908" stroke="rgb(33,33,33)" fill="none" stroke-linecap="round"></path><path d="M 64.604,137.744 C 47.471,159.306 47.364,160.036 35.300,184.834" stroke-width="7.467" stroke="rgb(33,33,33)" fill="none" stroke-linecap="round"></path><path d="M 35.300,184.834 C 23.696,208.687 21.980,209.320 17.269,235.045" stroke-width="6.750" stroke="rgb(33,33,33)" fill="none" stroke-linecap="round"></path><path d="M 17.269,235.045 C 14.039,252.683 15.817,253.923 19.419,271.560" stroke-width="6.750" stroke="rgb(33,33,33)" fill="none" stroke-linecap="round"></path><path d="M 19.419,271.560 C 21.751,282.979 21.873,284.522 29.136,293.156" stroke-width="6.879" stroke="rgb(33,33,33)" fill="none" stroke-linecap="round"></path><path d="M 29.136,293.156 C 35.024,300.156 36.789,302.828 45.721,302.828" stroke-width="7.282" stroke="rgb(33,33,33)" fill="none" stroke-linecap="round"></path><path d="M 45.721,302.828 C 62.914,302.828 66.371,303.031 81.386,293.156" stroke-width="7.015" stroke="rgb(33,33,33)" fill="none" stroke-linecap="round"></path><path d="M 81.386,293.156 C 108.565,275.282 109.333,273.256 130.109,247.329" stroke-width="6.750" stroke="rgb(33,33,33)" fill="none" stroke-linecap="round"></path><path d="M 130.109,247.329 C 161.233,208.488 162.129,207.800 185.187,163.619" stroke-width="6.750" stroke="rgb(33,33,33)" fill="none" stroke-linecap="round"></path><path d="M 185.187,163.619 C 207.311,121.228 205.025,119.608 220.473,74.185" stroke-width="6.750" stroke="rgb(33,33,33)" fill="none" stroke-linecap="round"></path><path d="M 220.473,74.185 C 229.565,47.454 228.428,46.942 234.267,19.311" stroke-width="6.750" stroke="rgb(33,33,33)" fill="none" stroke-linecap="round"></path><path d="M 234.267,19.311 C 236.692,7.836 236.684,7.387 237.002,-4.028" stroke-width="6.750" stroke="rgb(33,33,33)" fill="none" stroke-linecap="round"></path><path d="M 237.002,-4.028 C 237.050,-5.769 235.793,-8.403 235.000,-7.000" stroke-width="6.750" stroke="rgb(33,33,33)" fill="none" stroke-linecap="round"></path><path d="M 235.000,-7.000 C 224.187,12.137 224.588,15.120 213.791,37.051" stroke-width="6.750" stroke="rgb(33,33,33)" fill="none" stroke-linecap="round"></path><path d="M 213.791,37.051 C 191.311,82.712 194.451,84.597 168.445,128.185" stroke-width="6.750" stroke="rgb(33,33,33)" fill="none" stroke-linecap="round"></path><path d="M 168.445,128.185 C 140.872,174.399 136.757,171.907 106.633,216.656" stroke-width="6.750" stroke="rgb(33,33,33)" fill="none" stroke-linecap="round"></path><path d="M 106.633,216.656 C 93.168,236.658 93.605,236.973 81.267,257.687" stroke-width="6.750" stroke="rgb(33,33,33)" fill="none" stroke-linecap="round"></path><path d="M 81.267,257.687 C 76.569,265.573 75.575,265.562 72.561,273.858" stroke-width="6.750" stroke="rgb(33,33,33)" fill="none" stroke-linecap="round"></path><path d="M 72.561,273.858 C 71.699,276.230 71.453,278.717 73.516,279.023" stroke-width="6.750" stroke="rgb(33,33,33)" fill="none" stroke-linecap="round"></path><path d="M 73.516,279.023 C 79.745,279.946 82.171,279.796 89.144,276.316" stroke-width="6.750" stroke="rgb(33,33,33)" fill="none" stroke-linecap="round"></path><path d="M 89.144,276.316 C 106.008,267.901 107.100,267.991 121.189,255.233" stroke-width="6.750" stroke="rgb(33,33,33)" fill="none" stroke-linecap="round"></path><path d="M 121.189,255.233 C 139.742,238.432 139.109,237.205 154.427,217.198" stroke-width="6.750" stroke="rgb(33,33,33)" fill="none" stroke-linecap="round"></path><path d="M 154.427,217.198 C 168.409,198.936 168.179,198.548 179.790,178.694" stroke-width="6.750" stroke="rgb(33,33,33)" fill="none" stroke-linecap="round"></path><path d="M 179.790,178.694 C 186.907,166.523 186.367,166.109 191.883,153.148" stroke-width="6.750" stroke="rgb(33,33,33)" fill="none" stroke-linecap="round"></path><path d="M 191.883,153.148 C 193.222,150.001 194.658,146.024 193.500,146.479" stroke-width="6.750" stroke="rgb(33,33,33)" fill="none" stroke-linecap="round"></path><path d="M 193.500,146.479 C 191.437,147.289 188.896,150.644 185.441,155.678" stroke-width="7.380" stroke="rgb(33,33,33)" fill="none" stroke-linecap="round"></path><path d="M 185.441,155.678 C 169.013,179.615 168.883,179.622 153.734,204.421" stroke-width="6.750" stroke="rgb(33,33,33)" fill="none" stroke-linecap="round"></path><path d="M 153.734,204.421 C 141.222,224.904 140.764,224.783 130.119,246.243" stroke-width="6.750" stroke="rgb(33,33,33)" fill="none" stroke-linecap="round"></path><path d="M 130.119,246.243 C 123.960,258.659 123.856,258.938 120.127,272.172" stroke-width="6.750" stroke="rgb(33,33,33)" fill="none" stroke-linecap="round"></path><path d="M 120.127,272.172 C 118.564,277.720 117.376,280.274 119.534,283.807" stroke-width="7.096" stroke="rgb(33,33,33)" fill="none" stroke-linecap="round"></path><path d="M 119.534,283.807 C 120.980,286.174 124.074,285.870 127.335,283.972" stroke-width="7.827" stroke="rgb(33,33,33)" fill="none" stroke-linecap="round"></path><path d="M 127.335,283.972 C 141.696,275.616 143.028,275.649 154.778,263.299" stroke-width="7.573" stroke="rgb(33,33,33)" fill="none" stroke-linecap="round"></path><path d="M 154.778,263.299 C 175.351,241.676 175.406,241.004 191.981,216.026" stroke-width="6.750" stroke="rgb(33,33,33)" fill="none" stroke-linecap="round"></path><path d="M 191.981,216.026 C 208.171,191.628 206.847,190.633 220.309,164.546" stroke-width="6.750" stroke="rgb(33,33,33)" fill="none" stroke-linecap="round"></path><path d="M 220.309,164.546 C 226.240,153.054 225.666,152.759 230.767,140.867" stroke-width="6.750" stroke="rgb(33,33,33)" fill="none" stroke-linecap="round"></path><path d="M 230.767,140.867 C 232.039,137.901 233.349,134.425 233.056,134.831" stroke-width="7.160" stroke="rgb(33,33,33)" fill="none" stroke-linecap="round"></path><path d="M 233.056,134.831 C 232.659,135.383 231.111,138.759 229.387,142.783" stroke-width="7.893" stroke="rgb(33,33,33)" fill="none" stroke-linecap="round"></path><path d="M 229.387,142.783 C 219.847,165.047 219.795,165.029 210.528,187.408" stroke-width="7.085" stroke="rgb(33,33,33)" fill="none" stroke-linecap="round"></path><path d="M 210.528,187.408 C 202.657,206.416 201.961,206.187 195.110,225.558" stroke-width="6.936" stroke="rgb(33,33,33)" fill="none" stroke-linecap="round"></path><path d="M 195.110,225.558 C 190.034,239.910 189.604,240.019 186.675,254.854" stroke-width="6.883" stroke="rgb(33,33,33)" fill="none" stroke-linecap="round"></path><path d="M 186.675,254.854 C 185.335,261.641 182.688,272.736 186.573,268.801" stroke-width="7.476" stroke="rgb(33,33,33)" fill="none" stroke-linecap="round"></path><path d="M 186.573,268.801 C 215.518,239.479 224.476,231.170 252.335,188.339" stroke-width="7.614" stroke="rgb(33,33,33)" fill="none" stroke-linecap="round"></path><path d="M 252.335,188.339 C 262.346,172.949 258.463,170.553 262.313,152.357" stroke-width="7.167" stroke="rgb(33,33,33)" fill="none" stroke-linecap="round"></path><path d="M 262.313,152.357 C 264.270,143.108 265.786,133.585 263.949,133.449" stroke-width="7.828" stroke="rgb(33,33,33)" fill="none" stroke-linecap="round"></path><path d="M 263.949,133.449 C 261.958,133.302 258.632,142.322 254.657,151.790" stroke-width="8.015" stroke="rgb(33,33,33)" fill="none" stroke-linecap="round"></path><path d="M 254.657,151.790 C 245.545,173.493 245.227,173.466 237.775,195.792" stroke-width="7.205" stroke="rgb(33,33,33)" fill="none" stroke-linecap="round"></path><path d="M 237.775,195.792 C 231.605,214.278 231.780,214.423 227.413,233.414" stroke-width="6.897" stroke="rgb(33,33,33)" fill="none" stroke-linecap="round"></path><path d="M 227.413,233.414 C 224.323,246.851 223.952,246.981 222.862,260.648" stroke-width="7.047" stroke="rgb(33,33,33)" fill="none" stroke-linecap="round"></path><path d="M 222.862,260.648 C 222.277,267.980 222.499,268.361 224.063,275.412" stroke-width="7.575" stroke="rgb(33,33,33)" fill="none" stroke-linecap="round"></path><path d="M 224.063,275.412 C 224.668,278.137 224.957,279.557 227.200,280.200" stroke-width="8.402" stroke="rgb(33,33,33)" fill="none" stroke-linecap="round"></path><path d="M 227.200,280.200 C 230.078,281.025 231.767,280.814 234.306,278.347" stroke-width="9.144" stroke="rgb(33,33,33)" fill="none" stroke-linecap="round"></path><path d="M 234.306,278.347 C 243.435,269.478 243.926,268.860 250.537,257.527" stroke-width="8.798" stroke="rgb(33,33,33)" fill="none" stroke-linecap="round"></path><path d="M 250.537,257.527 C 260.404,240.612 259.841,240.071 267.263,221.852" stroke-width="7.890" stroke="rgb(33,33,33)" fill="none" stroke-linecap="round"></path><path d="M 267.263,221.852 C 274.277,204.635 273.970,204.439 279.408,186.655" stroke-width="7.593" stroke="rgb(33,33,33)" fill="none" stroke-linecap="round"></path><path d="M 279.408,186.655 C 282.594,176.238 282.142,176.091 284.511,165.450" stroke-width="7.716" stroke="rgb(33,33,33)" fill="none" stroke-linecap="round"></path><path d="M 284.511,165.450 C 285.422,161.358 286.018,160.172 285.968,157.190" stroke-width="8.463" stroke="rgb(33,33,33)" fill="none" stroke-linecap="round"></path><path d="M 285.968,157.190 C 285.957,156.530 284.760,157.323 284.389,158.166" stroke-width="9.480" stroke="rgb(33,33,33)" fill="none" stroke-linecap="round"></path><path d="M 284.389,158.166 C 275.671,177.986 275.867,178.252 267.791,198.517" stroke-width="8.251" stroke="rgb(33,33,33)" fill="none" stroke-linecap="round"></path><path d="M 267.791,198.517 C 257.779,223.640 257.014,223.396 248.212,248.942" stroke-width="7.131" stroke="rgb(33,33,33)" fill="none" stroke-linecap="round"></path><path d="M 248.212,248.942 C 241.463,268.528 240.986,268.598 236.689,288.782" stroke-width="6.842" stroke="rgb(33,33,33)" fill="none" stroke-linecap="round"></path><path d="M 236.689,288.782 C 234.380,299.627 234.279,300.163 235.000,311.000" stroke-width="7.156" stroke="rgb(33,33,33)" fill="none" stroke-linecap="round"></path><path d="M 235.000,311.000 C 235.296,315.439 235.370,317.229 238.723,319.334" stroke-width="7.855" stroke="rgb(33,33,33)" fill="none" stroke-linecap="round"></path><path d="M 238.723,319.334 C 242.935,321.979 244.921,322.276 250.130,320.500" stroke-width="8.474" stroke="rgb(33,33,33)" fill="none" stroke-linecap="round"></path><path d="M 250.130,320.500 C 261.838,316.507 262.599,315.784 272.556,307.796" stroke-width="8.247" stroke="rgb(33,33,33)" fill="none" stroke-linecap="round"></path><path d="M 272.556,307.796 C 286.147,296.893 285.298,295.632 297.226,282.718" stroke-width="7.854" stroke="rgb(33,33,33)" fill="none" stroke-linecap="round"></path><path d="M 297.226,282.718 C 309.026,269.942 308.585,269.537 320.012,256.415" stroke-width="7.579" stroke="rgb(33,33,33)" fill="none" stroke-linecap="round"></path><path d="M 320.012,256.415 C 327.289,248.059 327.352,248.114 334.633,239.762" stroke-width="7.794" stroke="rgb(33,33,33)" fill="none" stroke-linecap="round"></path><path d="M 334.633,239.762 C 337.470,236.508 337.475,236.511 340.248,233.202" stroke-width="8.508" stroke="rgb(33,33,33)" fill="none" stroke-linecap="round"></path><path d="M 340.248,233.202 C 341.176,232.095 341.215,232.113 342.034,230.931" stroke-width="9.471" stroke="rgb(33,33,33)" fill="none" stroke-linecap="round"></path><path d="M 342.034,230.931 C 342.341,230.488 342.717,230.148 342.500,229.953" stroke-width="10.520" stroke="rgb(33,33,33)" fill="none" stroke-linecap="round"></path><path d="M 342.500,229.953 C 342.200,229.683 341.739,230.120 341.000,230.000" stroke-width="11.521" stroke="rgb(33,33,33)" fill="none" stroke-linecap="round"></path><path d="M 341.000,230.000 C 335.749,229.146 335.743,229.088 330.521,228.004" stroke-width="11.694" stroke="rgb(33,33,33)" fill="none" stroke-linecap="round"></path><path d="M 330.521,228.004 C 309.349,223.611 309.507,222.754 288.212,219.046" stroke-width="9.525" stroke="rgb(33,33,33)" fill="none" stroke-linecap="round"></path><path d="M 288.212,219.046 C 251.215,212.603 251.281,211.440 213.938,207.701" stroke-width="7.272" stroke="rgb(33,33,33)" fill="none" stroke-linecap="round"></path></svg>