<svg xmlns="http://www.w3.org/2000/svg" xmlns:xlink="http://www.w3.org/1999/xlink" viewBox="0 0 800 500"><path d="M 93.000,318.500 C 93.000,317.500 92.528,317.208 93.000,316.500" stroke-width="20.187" stroke="rgb(33,33,33)" fill="none" stroke-linecap="round"></path><path d="M 93.000,316.500 C 93.528,315.708 94.234,316.266 95.000,315.500" stroke-width="19.683" stroke="rgb(33,33,33)" fill="none" stroke-linecap="round"></path><path d="M 95.000,315.500 C 96.234,314.266 95.851,313.878 97.000,312.500" stroke-width="19.006" stroke="rgb(33,33,33)" fill="none" stroke-linecap="round"></path><path d="M 97.000,312.500 C 98.351,310.878 98.296,310.717 100.000,309.500" stroke-width="18.459" stroke="rgb(33,33,33)" fill="none" stroke-linecap="round"></path><path d="M 100.000,309.500 C 101.796,308.217 102.062,308.607 104.000,307.500" stroke-width="17.806" stroke="rgb(33,33,33)" fill="none" stroke-linecap="round"></path><path d="M 104.000,307.500 C 105.562,306.607 105.396,306.302 107.000,305.500" stroke-width="17.611" stroke="rgb(33,33,33)" fill="none" stroke-linecap="round"></path><path d="M 107.000,305.500 C 109.396,304.302 109.638,304.772 112.000,303.500" stroke-width="17.114" stroke="rgb(33,33,33)" fill="none" stroke-linecap="round"></path><path d="M 112.000,303.500 C 116.138,301.272 115.841,300.702 120.000,298.500" stroke-width="16.102" stroke="rgb(33,33,33)" fill="none" stroke-linecap="round"></path><path d="M 120.000,298.500 C 124.341,296.202 124.462,296.411 129.000,294.500" stroke-width="15.235" stroke="rgb(33,33,33)" fill="none" stroke-linecap="round"></path><path d="M 129.000,294.500 C 133.962,292.411 133.928,292.290 139.000,290.500" stroke-width="14.568" stroke="rgb(33,33,33)" fill="none" stroke-linecap="round"></path><path d="M 139.000,290.500 C 142.428,289.290 142.483,289.438 146.000,288.500" stroke-width="14.488" stroke="rgb(33,33,33)" fill="none" stroke-linecap="round"></path><path d="M 146.000,288.500 C 149.983,287.438 149.948,287.079 154.000,286.500" stroke-width="14.364" stroke="rgb(33,33,33)" fill="none" stroke-linecap="round"></path><path d="M 154.000,286.500 C 156.948,286.079 157.000,286.500 160.000,286.500" stroke-width="14.481" stroke="rgb(33,33,33)" fill="none" stroke-linecap="round"></path><path d="M 160.000,286.500 C 162.500,286.500 162.500,286.500 165.000,286.500" stroke-width="14.735" stroke="rgb(33,33,33)" fill="none" stroke-linecap="round"></path><path d="M 165.000,286.500 C 168.500,286.500 168.500,286.500 172.000,286.500" stroke-width="14.655" stroke="rgb(33,33,33)" fill="none" stroke-linecap="round"></path><path d="M 172.000,286.500 C 175.000,286.500 175.000,286.500 178.000,286.500" stroke-width="14.716" stroke="rgb(33,33,33)" fill="none" stroke-linecap="round"></path><path d="M 178.000,286.500 C 182.000,286.500 182.024,286.216 186.000,286.500" stroke-width="14.517" stroke="rgb(33,33,33)" fill="none" stroke-linecap="round"></path><path d="M 186.000,286.500 C 189.024,286.716 189.083,286.704 192.000,287.500" stroke-width="14.636" stroke="rgb(33,33,33)" fill="none" stroke-linecap="round"></path><path d="M 192.000,287.500 C 194.583,288.204 194.542,288.407 197.000,289.500" stroke-width="14.779" stroke="rgb(33,33,33)" fill="none" stroke-linecap="round"></path><path d="M 197.000,289.500 C 199.042,290.407 199.204,290.217 201.000,291.500" stroke-width="15.046" stroke="rgb(33,33,33)" fill="none" stroke-linecap="round"></path><path d="M 201.000,291.500 C 202.704,292.717 202.623,292.893 204.000,294.500" stroke-width="15.351" stroke="rgb(33,33,33)" fill="none" stroke-linecap="round"></path><path d="M 204.000,294.500 C 205.623,296.393 205.615,296.423 207.000,298.500" stroke-width="15.410" stroke="rgb(33,33,33)" fill="none" stroke-linecap="round"></path><path d="M 207.000,298.500 C 208.615,300.923 208.933,300.833 210.000,303.500" stroke-width="15.342" stroke="rgb(33,33,33)" fill="none" stroke-linecap="round"></path><path d="M 210.000,303.500 C 210.933,305.833 210.613,305.982 211.000,308.500" stroke-width="15.389" stroke="rgb(33,33,33)" fill="none" stroke-linecap="round"></path><path d="M 211.000,308.500 C 211.613,312.482 211.749,312.484 212.000,316.500" stroke-width="15.027" stroke="rgb(33,33,33)" fill="none" stroke-linecap="round"></path><path d="M 212.000,316.500 C 212.249,320.484 212.000,320.500 212.000,324.500" stroke-width="14.758" stroke="rgb(33,33,33)" fill="none" stroke-linecap="round"></path><path d="M 212.000,324.500 C 212.000,328.500 212.768,328.658 212.000,332.500" stroke-width="14.549" stroke="rgb(33,33,33)" fill="none" stroke-linecap="round"></path><path d="M 212.000,332.500 C 211.268,336.158 210.701,336.098 209.000,339.500" stroke-width="14.433" stroke="rgb(33,33,33)" fill="none" stroke-linecap="round"></path><path d="M 209.000,339.500 C 206.701,344.098 206.902,344.279 204.000,348.500" stroke-width="13.954" stroke="rgb(33,33,33)" fill="none" stroke-linecap="round"></path><path d="M 204.000,348.500 C 201.402,352.279 201.000,352.000 198.000,355.500" stroke-width="13.781" stroke="rgb(33,33,33)" fill="none" stroke-linecap="round"></path><path d="M 198.000,355.500 C 195.000,359.000 194.878,358.902 192.000,362.500" stroke-width="13.646" stroke="rgb(33,33,33)" fill="none" stroke-linecap="round"></path><path d="M 192.000,362.500 C 188.878,366.402 188.830,366.383 186.000,370.500" stroke-width="13.515" stroke="rgb(33,33,33)" fill="none" stroke-linecap="round"></path><path d="M 186.000,370.500 C 183.330,374.383 184.009,374.944 181.000,378.500" stroke-width="13.414" stroke="rgb(33,33,33)" fill="none" stroke-linecap="round"></path><path d="M 181.000,378.500 C 178.509,381.444 177.744,380.756 175.000,383.500" stroke-width="13.504" stroke="rgb(33,33,33)" fill="none" stroke-linecap="round"></path><path d="M 175.000,383.500 C 173.244,385.256 173.623,385.607 172.000,387.500" stroke-width="13.884" stroke="rgb(33,33,33)" fill="none" stroke-linecap="round"></path><path d="M 172.000,387.500 C 170.623,389.107 170.500,389.000 169.000,390.500" stroke-width="14.262" stroke="rgb(33,33,33)" fill="none" stroke-linecap="round"></path><path d="M 169.000,390.500 C 167.500,392.000 167.622,392.149 166.000,393.500" stroke-width="14.580" stroke="rgb(33,33,33)" fill="none" stroke-linecap="round"></path><path d="M 166.000,393.500 C 164.622,394.649 164.250,394.250 163.000,395.500" stroke-width="14.961" stroke="rgb(33,33,33)" fill="none" stroke-linecap="round"></path><path d="M 163.000,395.500 C 161.750,396.750 162.400,397.567 161.000,398.500" stroke-width="15.307" stroke="rgb(33,33,33)" fill="none" stroke-linecap="round"></path><path d="M 161.000,398.500 C 159.400,399.567 158.951,398.850 157.000,399.500" stroke-width="15.606" stroke="rgb(33,33,33)" fill="none" stroke-linecap="round"></path><path d="M 157.000,399.500 C 154.451,400.350 154.549,400.650 152.000,401.500" stroke-width="15.674" stroke="rgb(33,33,33)" fill="none" stroke-linecap="round"></path><path d="M 152.000,401.500 C 150.049,402.150 150.000,402.000 148.000,402.500" stroke-width="15.476" stroke="rgb(33,33,33)" fill="none" stroke-linecap="round"></path><path d="M 148.000,402.500 C 146.000,403.000 146.000,403.000 144.000,403.500" stroke-width="15.695" stroke="rgb(33,33,33)" fill="none" stroke-linecap="round"></path><path d="M 144.000,403.500 C 142.000,404.000 142.020,404.163 140.000,404.500" stroke-width="15.812" stroke="rgb(33,33,33)" fill="none" stroke-linecap="round"></path><path d="M 140.000,404.500 C 139.020,404.663 139.000,404.500 138.000,404.500" stroke-width="16.206" stroke="rgb(33,33,33)" fill="none" stroke-linecap="round"></path><path d="M 138.000,404.500 C 137.000,404.500 136.667,404.833 136.000,404.500" stroke-width="16.573" stroke="rgb(33,33,33)" fill="none" stroke-linecap="round"></path><path d="M 136.000,404.500 C 135.667,404.333 136.000,404.000 136.000,403.500" stroke-width="17.165" stroke="rgb(33,33,33)" fill="none" stroke-linecap="round"></path><path d="M 136.000,403.500 C 136.000,403.000 135.739,402.892 136.000,402.500" stroke-width="17.551" stroke="rgb(33,33,33)" fill="none" stroke-linecap="round"></path><path d="M 136.000,402.500 C 136.739,401.392 137.162,401.617 138.000,400.500" stroke-width="17.566" stroke="rgb(33,33,33)" fill="none" stroke-linecap="round"></path><path d="M 138.000,400.500 C 138.662,399.617 138.387,399.419 139.000,398.500" stroke-width="17.464" stroke="rgb(33,33,33)" fill="none" stroke-linecap="round"></path><path d="M 139.000,398.500 C 139.387,397.919 139.613,398.081 140.000,397.500" stroke-width="17.712" stroke="rgb(33,33,33)" fill="none" stroke-linecap="round"></path><path d="M 140.000,397.500 C 140.613,396.581 140.310,396.363 141.000,395.500" stroke-width="17.748" stroke="rgb(33,33,33)" fill="none" stroke-linecap="round"></path><path d="M 141.000,395.500 C 142.310,393.863 142.623,394.107 144.000,392.500" stroke-width="17.496" stroke="rgb(33,33,33)" fill="none" stroke-linecap="round"></path><path d="M 144.000,392.500 C 145.623,390.607 145.522,390.516 147.000,388.500" stroke-width="17.092" stroke="rgb(33,33,33)" fill="none" stroke-linecap="round"></path><path d="M 147.000,388.500 C 151.022,383.016 150.676,382.735 155.000,377.500" stroke-width="15.088" stroke="rgb(33,33,33)" fill="none" stroke-linecap="round"></path><path d="M 155.000,377.500 C 160.176,371.235 160.593,371.583 166.000,365.500" stroke-width="13.922" stroke="rgb(33,33,33)" fill="none" stroke-linecap="round"></path><path d="M 166.000,365.500 C 172.593,358.083 172.349,357.864 179.000,350.500" stroke-width="12.782" stroke="rgb(33,33,33)" fill="none" stroke-linecap="round"></path><path d="M 179.000,350.500 C 186.349,342.364 186.447,342.450 194.000,334.500" stroke-width="11.628" stroke="rgb(33,33,33)" fill="none" stroke-linecap="round"></path><path d="M 194.000,334.500 C 205.447,322.450 205.642,322.633 217.000,310.500" stroke-width="10.205" stroke="rgb(33,33,33)" fill="none" stroke-linecap="round"></path><path d="M 217.000,310.500 C 227.642,299.133 227.328,298.839 238.000,287.500" stroke-width="9.402" stroke="rgb(33,33,33)" fill="none" stroke-linecap="round"></path><path d="M 238.000,287.500 C 251.328,273.339 251.611,273.606 265.000,259.500" stroke-width="8.506" stroke="rgb(33,33,33)" fill="none" stroke-linecap="round"></path><path d="M 265.000,259.500 C 279.611,244.106 279.125,243.631 294.000,228.500" stroke-width="7.685" stroke="rgb(33,33,33)" fill="none" stroke-linecap="round"></path><path d="M 294.000,228.500 C 308.125,214.131 308.005,213.933 323.000,200.500" stroke-width="7.411" stroke="rgb(33,33,33)" fill="none" stroke-linecap="round"></path><path d="M 323.000,200.500 C 332.005,192.433 332.816,193.372 342.000,185.500" stroke-width="7.532" stroke="rgb(33,33,33)" fill="none" stroke-linecap="round"></path><path d="M 342.000,185.500 C 353.816,175.372 353.333,174.810 365.000,164.500" stroke-width="7.452" stroke="rgb(33,33,33)" fill="none" stroke-linecap="round"></path><path d="M 365.000,164.500 C 374.833,155.810 375.000,156.000 385.000,147.500" stroke-width="7.495" stroke="rgb(33,33,33)" fill="none" stroke-linecap="round"></path><path d="M 385.000,147.500 C 395.000,139.000 395.322,139.349 405.000,130.500" stroke-width="7.583" stroke="rgb(33,33,33)" fill="none" stroke-linecap="round"></path><path d="M 405.000,130.500 C 412.822,123.349 412.251,122.732 420.000,115.500" stroke-width="7.873" stroke="rgb(33,33,33)" fill="none" stroke-linecap="round"></path><path d="M 420.000,115.500 C 427.251,108.732 427.550,109.056 435.000,102.500" stroke-width="8.129" stroke="rgb(33,33,33)" fill="none" stroke-linecap="round"></path><path d="M 435.000,102.500 C 440.050,98.056 439.910,97.896 445.000,93.500" stroke-width="8.645" stroke="rgb(33,33,33)" fill="none" stroke-linecap="round"></path><path d="M 445.000,93.500 C 450.910,88.396 451.049,88.558 457.000,83.500" stroke-width="8.969" stroke="rgb(33,33,33)" fill="none" stroke-linecap="round"></path><path d="M 457.000,83.500 C 461.049,80.058 460.787,79.722 465.000,76.500" stroke-width="9.502" stroke="rgb(33,33,33)" fill="none" stroke-linecap="round"></path><path d="M 465.000,76.500 C 469.287,73.222 469.555,73.577 474.000,70.500" stroke-width="9.965" stroke="rgb(33,33,33)" fill="none" stroke-linecap="round"></path><path d="M 474.000,70.500 C 476.055,69.077 476.123,69.142 478.000,67.500" stroke-width="10.745" stroke="rgb(33,33,33)" fill="none" stroke-linecap="round"></path><path d="M 478.000,67.500 C 480.123,65.642 480.000,65.500 482.000,63.500" stroke-width="11.437" stroke="rgb(33,33,33)" fill="none" stroke-linecap="round"></path><path d="M 482.000,63.500 C 483.000,62.500 482.892,62.239 484.000,61.500" stroke-width="12.275" stroke="rgb(33,33,33)" fill="none" stroke-linecap="round"></path><path d="M 484.000,61.500 C 484.392,61.239 484.500,61.500 485.000,61.500" stroke-width="13.222" stroke="rgb(33,33,33)" fill="none" stroke-linecap="round"></path><path d="M 485.000,61.500 C 485.500,61.500 486.000,61.500 486.000,61.500" stroke-width="14.092" stroke="rgb(33,33,33)" fill="none" stroke-linecap="round"></path><path d="M 486.000,61.500 C 486.000,61.500 485.434,61.283 485.000,61.500" stroke-width="15.001" stroke="rgb(33,33,33)" fill="none" stroke-linecap="round"></path><path d="M 485.000,61.500 C 483.434,62.283 483.351,62.318 482.000,63.500" stroke-width="15.314" stroke="rgb(33,33,33)" fill="none" stroke-linecap="round"></path><path d="M 482.000,63.500 C 479.351,65.818 479.624,66.138 477.000,68.500" stroke-width="15.100" stroke="rgb(33,33,33)" fill="none" stroke-linecap="round"></path><path d="M 477.000,68.500 C 474.624,70.638 474.406,70.395 472.000,72.500" stroke-width="15.020" stroke="rgb(33,33,33)" fill="none" stroke-linecap="round"></path><path d="M 472.000,72.500 C 470.406,73.895 470.500,74.000 469.000,75.500" stroke-width="15.243" stroke="rgb(33,33,33)" fill="none" stroke-linecap="round"></path><path d="M 469.000,75.500 C 467.500,77.000 467.704,77.283 466.000,78.500" stroke-width="15.561" stroke="rgb(33,33,33)" fill="none" stroke-linecap="round"></path><path d="M 466.000,78.500 C 464.204,79.783 463.652,79.084 462.000,80.500" stroke-width="15.568" stroke="rgb(33,33,33)" fill="none" stroke-linecap="round"></path><path d="M 462.000,80.500 C 460.152,82.084 460.453,82.466 459.000,84.500" stroke-width="15.624" stroke="rgb(33,33,33)" fill="none" stroke-linecap="round"></path><path d="M 459.000,84.500 C 457.953,85.966 458.000,86.000 457.000,87.500" stroke-width="15.796" stroke="rgb(33,33,33)" fill="none" stroke-linecap="round"></path><path d="M 457.000,87.500 C 456.000,89.000 456.121,89.099 455.000,90.500" stroke-width="15.937" stroke="rgb(33,33,33)" fill="none" stroke-linecap="round"></path><path d="M 455.000,90.500 C 454.121,91.599 454.000,91.500 453.000,92.500" stroke-width="16.176" stroke="rgb(33,33,33)" fill="none" stroke-linecap="round"></path><path d="M 453.000,92.500 C 451.500,94.000 451.146,93.781 450.000,95.500" stroke-width="16.218" stroke="rgb(33,33,33)" fill="none" stroke-linecap="round"></path><path d="M 450.000,95.500 C 449.146,96.781 449.969,97.338 449.000,98.500" stroke-width="16.351" stroke="rgb(33,33,33)" fill="none" stroke-linecap="round"></path><path d="M 449.000,98.500 C 447.469,100.338 446.743,99.757 445.000,101.500" stroke-width="16.248" stroke="rgb(33,33,33)" fill="none" stroke-linecap="round"></path><path d="M 445.000,101.500 C 443.743,102.757 444.121,103.099 443.000,104.500" stroke-width="16.369" stroke="rgb(33,33,33)" fill="none" stroke-linecap="round"></path><path d="M 443.000,104.500 C 442.121,105.599 442.099,105.621 441.000,106.500" stroke-width="16.558" stroke="rgb(33,33,33)" fill="none" stroke-linecap="round"></path><path d="M 441.000,106.500 C 439.599,107.621 439.500,107.500 438.000,108.500" stroke-width="16.552" stroke="rgb(33,33,33)" fill="none" stroke-linecap="round"></path><path d="M 438.000,108.500 C 436.500,109.500 436.437,109.423 435.000,110.500" stroke-width="16.582" stroke="rgb(33,33,33)" fill="none" stroke-linecap="round"></path><path d="M 435.000,110.500 C 434.437,110.923 434.563,111.077 434.000,111.500" stroke-width="16.979" stroke="rgb(33,33,33)" fill="none" stroke-linecap="round"></path><path d="M 434.000,111.500 C 432.563,112.577 432.543,112.574 431.000,113.500" stroke-width="16.844" stroke="rgb(33,33,33)" fill="none" stroke-linecap="round"></path><path d="M 431.000,113.500 C 430.043,114.074 429.750,113.750 429.000,114.500" stroke-width="17.084" stroke="rgb(33,33,33)" fill="none" stroke-linecap="round"></path><path d="M 429.000,114.500 C 428.250,115.250 428.766,115.734 428.000,116.500" stroke-width="17.241" stroke="rgb(33,33,33)" fill="none" stroke-linecap="round"></path><path d="M 428.000,116.500 C 426.766,117.734 426.401,117.379 425.000,118.500" stroke-width="17.093" stroke="rgb(33,33,33)" fill="none" stroke-linecap="round"></path><path d="M 425.000,118.500 C 423.901,119.379 424.000,119.500 423.000,120.500" stroke-width="17.116" stroke="rgb(33,33,33)" fill="none" stroke-linecap="round"></path><path d="M 423.000,120.500 C 422.000,121.500 422.000,121.500 421.000,122.500" stroke-width="17.257" stroke="rgb(33,33,33)" fill="none" stroke-linecap="round"></path><path d="M 421.000,122.500 C 420.000,123.500 420.117,123.662 419.000,124.500" stroke-width="17.128" stroke="rgb(33,33,33)" fill="none" stroke-linecap="round"></path><path d="M 419.000,124.500 C 418.117,125.162 417.766,124.734 417.000,125.500" stroke-width="17.317" stroke="rgb(33,33,33)" fill="none" stroke-linecap="round"></path><path d="M 417.000,125.500 C 415.766,126.734 416.149,127.122 415.000,128.500" stroke-width="17.192" stroke="rgb(33,33,33)" fill="none" stroke-linecap="round"></path><path d="M 415.000,128.500 C 413.649,130.122 413.500,130.000 412.000,131.500" stroke-width="16.941" stroke="rgb(33,33,33)" fill="none" stroke-linecap="round"></path><path d="M 412.000,131.500 C 411.000,132.500 411.000,132.500 410.000,133.500" stroke-width="16.993" stroke="rgb(33,33,33)" fill="none" stroke-linecap="round"></path><path d="M 410.000,133.500 C 408.500,135.000 408.500,135.000 407.000,136.500" stroke-width="16.869" stroke="rgb(33,33,33)" fill="none" stroke-linecap="round"></path><path d="M 407.000,136.500 C 406.000,137.500 406.000,137.500 405.000,138.500" stroke-width="17.036" stroke="rgb(33,33,33)" fill="none" stroke-linecap="round"></path><path d="M 405.000,138.500 C 403.500,140.000 403.607,140.123 402.000,141.500" stroke-width="16.770" stroke="rgb(33,33,33)" fill="none" stroke-linecap="round"></path><path d="M 402.000,141.500 C 400.107,143.123 399.616,142.653 398.000,144.500" stroke-width="16.577" stroke="rgb(33,33,33)" fill="none" stroke-linecap="round"></path><path d="M 398.000,144.500 C 396.116,146.653 396.884,147.347 395.000,149.500" stroke-width="16.136" stroke="rgb(33,33,33)" fill="none" stroke-linecap="round"></path><path d="M 395.000,149.500 C 393.384,151.347 392.750,150.750 391.000,152.500" stroke-width="16.115" stroke="rgb(33,33,33)" fill="none" stroke-linecap="round"></path><path d="M 391.000,152.500 C 389.250,154.250 389.750,154.750 388.000,156.500" stroke-width="15.973" stroke="rgb(33,33,33)" fill="none" stroke-linecap="round"></path><path d="M 388.000,156.500 C 386.250,158.250 385.893,157.877 384.000,159.500" stroke-width="16.075" stroke="rgb(33,33,33)" fill="none" stroke-linecap="round"></path><path d="M 384.000,159.500 C 382.393,160.877 382.594,161.105 381.000,162.500" stroke-width="15.839" stroke="rgb(33,33,33)" fill="none" stroke-linecap="round"></path><path d="M 381.000,162.500 C 378.594,164.605 378.147,164.158 376.000,166.500" stroke-width="15.650" stroke="rgb(33,33,33)" fill="none" stroke-linecap="round"></path><path d="M 376.000,166.500 C 372.647,170.158 373.160,170.638 370.000,174.500" stroke-width="15.628" stroke="rgb(33,33,33)" fill="none" stroke-linecap="round"></path><path d="M 370.000,174.500 C 368.660,176.138 368.607,176.123 367.000,177.500" stroke-width="15.611" stroke="rgb(33,33,33)" fill="none" stroke-linecap="round"></path><path d="M 367.000,177.500 C 365.107,179.123 364.877,178.858 363.000,180.500" stroke-width="15.693" stroke="rgb(33,33,33)" fill="none" stroke-linecap="round"></path><path d="M 363.000,180.500 C 360.877,182.358 361.000,182.500 359.000,184.500" stroke-width="15.541" stroke="rgb(33,33,33)" fill="none" stroke-linecap="round"></path><path d="M 359.000,184.500 C 357.000,186.500 356.858,186.377 355.000,188.500" stroke-width="15.514" stroke="rgb(33,33,33)" fill="none" stroke-linecap="round"></path><path d="M 355.000,188.500 C 353.358,190.377 353.657,190.636 352.000,192.500" stroke-width="15.541" stroke="rgb(33,33,33)" fill="none" stroke-linecap="round"></path><path d="M 352.000,192.500 C 349.657,195.136 349.500,195.000 347.000,197.500" stroke-width="15.216" stroke="rgb(33,33,33)" fill="none" stroke-linecap="round"></path><path d="M 347.000,197.500 C 344.500,200.000 344.613,200.124 342.000,202.500" stroke-width="15.024" stroke="rgb(33,33,33)" fill="none" stroke-linecap="round"></path><path d="M 342.000,202.500 C 339.113,205.124 339.000,205.000 336.000,207.500" stroke-width="14.779" stroke="rgb(33,33,33)" fill="none" stroke-linecap="round"></path><path d="M 336.000,207.500 C 333.000,210.000 332.900,209.890 330.000,212.500" stroke-width="14.589" stroke="rgb(33,33,33)" fill="none" stroke-linecap="round"></path><path d="M 330.000,212.500 C 327.900,214.390 328.111,214.624 326.000,216.500" stroke-width="14.746" stroke="rgb(33,33,33)" fill="none" stroke-linecap="round"></path><path d="M 326.000,216.500 C 323.611,218.624 323.250,218.250 321.000,220.500" stroke-width="14.894" stroke="rgb(33,33,33)" fill="none" stroke-linecap="round"></path><path d="M 321.000,220.500 C 318.750,222.750 319.250,223.250 317.000,225.500" stroke-width="14.683" stroke="rgb(33,33,33)" fill="none" stroke-linecap="round"></path><path d="M 317.000,225.500 C 314.750,227.750 314.094,227.145 312.000,229.500" stroke-width="14.773" stroke="rgb(33,33,33)" fill="none" stroke-linecap="round"></path><path d="M 312.000,229.500 C 310.094,231.645 310.500,232.000 309.000,234.500" stroke-width="14.977" stroke="rgb(33,33,33)" fill="none" stroke-linecap="round"></path><path d="M 309.000,234.500 C 307.500,237.000 307.301,236.898 306.000,239.500" stroke-width="14.482" stroke="rgb(33,33,33)" fill="none" stroke-linecap="round"></path><path d="M 306.000,239.500 C 304.301,242.898 304.901,243.240 303.000,246.500" stroke-width="14.477" stroke="rgb(33,33,33)" fill="none" stroke-linecap="round"></path><path d="M 303.000,246.500 C 301.401,249.240 300.509,248.733 299.000,251.500" stroke-width="14.641" stroke="rgb(33,33,33)" fill="none" stroke-linecap="round"></path><path d="M 299.000,251.500 C 297.509,254.233 298.496,254.807 297.000,257.500" stroke-width="14.343" stroke="rgb(33,33,33)" fill="none" stroke-linecap="round"></path><path d="M 297.000,257.500 C 295.996,259.307 295.500,259.000 294.000,260.500" stroke-width="14.760" stroke="rgb(33,33,33)" fill="none" stroke-linecap="round"></path><path d="M 294.000,260.500 C 292.000,262.500 292.234,262.825 290.000,264.500" stroke-width="14.885" stroke="rgb(33,33,33)" fill="none" stroke-linecap="round"></path><path d="M 290.000,264.500 C 288.234,265.825 287.938,265.393 286.000,266.500" stroke-width="15.023" stroke="rgb(33,33,33)" fill="none" stroke-linecap="round"></path><path d="M 286.000,266.500 C 284.438,267.393 284.500,267.500 283.000,268.500" stroke-width="15.359" stroke="rgb(33,33,33)" fill="none" stroke-linecap="round"></path><path d="M 283.000,268.500 C 281.500,269.500 281.598,269.701 280.000,270.500" stroke-width="15.611" stroke="rgb(33,33,33)" fill="none" stroke-linecap="round"></path><path d="M 280.000,270.500 C 278.598,271.201 278.402,270.799 277.000,271.500" stroke-width="15.883" stroke="rgb(33,33,33)" fill="none" stroke-linecap="round"></path><path d="M 277.000,271.500 C 275.402,272.299 275.633,272.800 274.000,273.500" stroke-width="15.970" stroke="rgb(33,33,33)" fill="none" stroke-linecap="round"></path><path d="M 274.000,273.500 C 272.133,274.300 271.945,273.852 270.000,274.500" stroke-width="16.069" stroke="rgb(33,33,33)" fill="none" stroke-linecap="round"></path><path d="M 270.000,274.500 C 268.945,274.852 269.055,275.148 268.000,275.500" stroke-width="16.404" stroke="rgb(33,33,33)" fill="none" stroke-linecap="round"></path><path d="M 268.000,275.500 C 266.055,276.148 266.000,276.000 264.000,276.500" stroke-width="16.418" stroke="rgb(33,33,33)" fill="none" stroke-linecap="round"></path><path d="M 264.000,276.500 C 262.000,277.000 261.945,276.852 260.000,277.500" stroke-width="16.308" stroke="rgb(33,33,33)" fill="none" stroke-linecap="round"></path><path d="M 260.000,277.500 C 258.945,277.852 259.055,278.148 258.000,278.500" stroke-width="16.603" stroke="rgb(33,33,33)" fill="none" stroke-linecap="round"></path><path d="M 258.000,278.500 C 256.055,279.148 256.020,279.163 254.000,279.500" stroke-width="16.577" stroke="rgb(33,33,33)" fill="none" stroke-linecap="round"></path><path d="M 254.000,279.500 C 253.020,279.663 252.944,279.264 252.000,279.500" stroke-width="16.864" stroke="rgb(33,33,33)" fill="none" stroke-linecap="round"></path><path d="M 252.000,279.500 C 250.944,279.764 251.056,280.236 250.000,280.500" stroke-width="17.082" stroke="rgb(33,33,33)" fill="none" stroke-linecap="round"></path><path d="M 250.000,280.500 C 249.056,280.736 248.879,280.207 248.000,280.500" stroke-width="17.258" stroke="rgb(33,33,33)" fill="none" stroke-linecap="round"></path><path d="M 248.000,280.500 C 247.379,280.707 247.586,281.207 247.000,281.500" stroke-width="17.512" stroke="rgb(33,33,33)" fill="none" stroke-linecap="round"></path><path d="M 247.000,281.500 C 246.586,281.707 246.500,281.500 246.000,281.500" stroke-width="17.871" stroke="rgb(33,33,33)" fill="none" stroke-linecap="round"></path><path d="M 246.000,281.500 C 245.500,281.500 245.500,281.500 245.000,281.500" stroke-width="18.195" stroke="rgb(33,33,33)" fill="none" stroke-linecap="round"></path><path d="M 245.000,281.500 C 244.500,281.500 244.500,281.500 244.000,281.500" stroke-width="18.442" stroke="rgb(33,33,33)" fill="none" stroke-linecap="round"></path><path d="M 244.000,281.500 C 244.000,281.500 244.000,281.500 244.000,281.500" stroke-width="18.777" stroke="rgb(33,33,33)" fill="none" stroke-linecap="round"></path><path d="M 244.000,281.500 C 244.000,282.000 244.250,282.250 244.000,282.500" stroke-width="18.868" stroke="rgb(33,33,33)" fill="none" stroke-linecap="round"></path><path d="M 244.000,282.500 C 243.750,282.750 243.417,282.250 243.000,282.500" stroke-width="19.119" stroke="rgb(33,33,33)" fill="none" stroke-linecap="round"></path><path d="M 243.000,282.500 C 240.917,283.750 240.743,283.757 239.000,285.500" stroke-width="18.307" stroke="rgb(33,33,33)" fill="none" stroke-linecap="round"></path><path d="M 239.000,285.500 C 237.743,286.757 238.149,287.122 237.000,288.500" stroke-width="17.963" stroke="rgb(33,33,33)" fill="none" stroke-linecap="round"></path><path d="M 237.000,288.500 C 235.649,290.122 235.719,290.354 234.000,291.500" stroke-width="17.624" stroke="rgb(33,33,33)" fill="none" stroke-linecap="round"></path><path d="M 234.000,291.500 C 232.719,292.354 232.172,291.621 231.000,292.500" stroke-width="17.571" stroke="rgb(33,33,33)" fill="none" stroke-linecap="round"></path><path d="M 231.000,292.500 C 230.172,293.121 230.750,293.750 230.000,294.500" stroke-width="17.581" stroke="rgb(33,33,33)" fill="none" stroke-linecap="round"></path><path d="M 230.000,294.500 C 229.250,295.250 228.691,294.809 228.000,295.500" stroke-width="17.686" stroke="rgb(33,33,33)" fill="none" stroke-linecap="round"></path><path d="M 228.000,295.500 C 227.691,295.809 228.155,296.036 228.000,296.500" stroke-width="17.944" stroke="rgb(33,33,33)" fill="none" stroke-linecap="round"></path><path d="M 228.000,296.500 C 227.655,297.536 227.500,297.500 227.000,298.500" stroke-width="17.958" stroke="rgb(33,33,33)" fill="none" stroke-linecap="round"></path><path d="M 227.000,298.500 C 226.500,299.500 226.345,299.464 226.000,300.500" stroke-width="17.919" stroke="rgb(33,33,33)" fill="none" stroke-linecap="round"></path><path d="M 226.000,300.500 C 225.845,300.964 226.250,301.250 226.000,301.500" stroke-width="18.136" stroke="rgb(33,33,33)" fill="none" stroke-linecap="round"></path><path d="M 226.000,301.500 C 225.750,301.750 225.250,301.250 225.000,301.500" stroke-width="18.326" stroke="rgb(33,33,33)" fill="none" stroke-linecap="round"></path><path d="M 225.000,301.500 C 224.750,301.750 225.250,302.250 225.000,302.500" stroke-width="18.468" stroke="rgb(33,33,33)" fill="none" stroke-linecap="round"></path><path d="M 225.000,302.500 C 224.750,302.750 224.414,302.293 224.000,302.500" stroke-width="18.764" stroke="rgb(33,33,33)" fill="none" stroke-linecap="round"></path><path d="M 224.000,302.500 C 223.414,302.793 223.500,303.000 223.000,303.500" stroke-width="18.750" stroke="rgb(33,33,33)" fill="none" stroke-linecap="round"></path><path d="M 223.000,303.500 C 222.500,304.000 222.500,304.000 222.000,304.500" stroke-width="18.739" stroke="rgb(33,33,33)" fill="none" stroke-linecap="round"></path><path d="M 222.000,304.500 C 221.000,305.500 221.000,305.500 220.000,306.500" stroke-width="18.446" stroke="rgb(33,33,33)" fill="none" stroke-linecap="round"></path><path d="M 220.000,306.500 C 219.500,307.000 219.586,307.207 219.000,307.500" stroke-width="18.495" stroke="rgb(33,33,33)" fill="none" stroke-linecap="round"></path><path d="M 219.000,307.500 C 218.586,307.707 218.250,307.250 218.000,307.500" stroke-width="18.656" stroke="rgb(33,33,33)" fill="none" stroke-linecap="round"></path><path d="M 218.000,307.500 C 217.750,307.750 218.000,308.500 218.000,308.500" stroke-width="18.760" stroke="rgb(33,33,33)" fill="none" stroke-linecap="round"></path><path d="M 218.000,308.500 C 218.000,308.500 218.000,308.000 218.000,307.500" stroke-width="19.014" stroke="rgb(33,33,33)" fill="none" stroke-linecap="round"></path><path d="M 218.000,307.500 C 218.000,306.500 218.000,306.500 218.000,305.500" stroke-width="18.851" stroke="rgb(33,33,33)" fill="none" stroke-linecap="round"></path><path d="M 218.000,305.500 C 218.000,304.500 217.691,304.427 218.000,303.500" stroke-width="18.700" stroke="rgb(33,33,33)" fill="none" stroke-linecap="round"></path><path d="M 218.000,303.500 C 218.691,301.427 219.093,301.542 220.000,299.500" stroke-width="18.045" stroke="rgb(33,33,33)" fill="none" stroke-linecap="round"></path><path d="M 220.000,299.500 C 221.093,297.042 220.802,296.896 222.000,294.500" stroke-width="17.493" stroke="rgb(33,33,33)" fill="none" stroke-linecap="round"></path><path d="M 222.000,294.500 C 222.802,292.896 223.274,293.134 224.000,291.500" stroke-width="17.330" stroke="rgb(33,33,33)" fill="none" stroke-linecap="round"></path><path d="M 224.000,291.500 C 225.274,288.634 224.726,288.366 226.000,285.500" stroke-width="16.804" stroke="rgb(33,33,33)" fill="none" stroke-linecap="round"></path><path d="M 226.000,285.500 C 226.726,283.866 227.201,284.098 228.000,282.500" stroke-width="16.784" stroke="rgb(33,33,33)" fill="none" stroke-linecap="round"></path><path d="M 228.000,282.500 C 228.701,281.098 228.414,280.964 229.000,279.500" stroke-width="16.897" stroke="rgb(33,33,33)" fill="none" stroke-linecap="round"></path><path d="M 229.000,279.500 C 229.414,278.464 229.736,278.556 230.000,277.500" stroke-width="17.087" stroke="rgb(33,33,33)" fill="none" stroke-linecap="round"></path><path d="M 230.000,277.500 C 230.236,276.556 230.000,276.500 230.000,275.500" stroke-width="17.262" stroke="rgb(33,33,33)" fill="none" stroke-linecap="round"></path><path d="M 230.000,275.500 C 230.000,274.500 230.000,274.500 230.000,273.500" stroke-width="17.352" stroke="rgb(33,33,33)" fill="none" stroke-linecap="round"></path><path d="M 230.000,273.500 C 230.000,273.000 230.000,273.000 230.000,272.500" stroke-width="17.699" stroke="rgb(33,33,33)" fill="none" stroke-linecap="round"></path><path d="M 230.000,272.500 C 230.000,271.500 230.000,271.500 230.000,270.500" stroke-width="17.836" stroke="rgb(33,33,33)" fill="none" stroke-linecap="round"></path><path d="M 230.000,270.500 C 230.000,270.000 230.000,270.000 230.000,269.500" stroke-width="18.068" stroke="rgb(33,33,33)" fill="none" stroke-linecap="round"></path><path d="M 230.000,269.500 C 230.000,269.000 230.207,268.914 230.000,268.500" stroke-width="18.270" stroke="rgb(33,33,33)" fill="none" stroke-linecap="round"></path><path d="M 230.000,268.500 C 229.707,267.914 229.500,268.000 229.000,267.500" stroke-width="18.353" stroke="rgb(33,33,33)" fill="none" stroke-linecap="round"></path><path d="M 229.000,267.500 C 228.500,267.000 228.653,266.631 228.000,266.500" stroke-width="18.403" stroke="rgb(33,33,33)" fill="none" stroke-linecap="round"></path><path d="M 228.000,266.500 C 226.153,266.131 226.000,266.500 224.000,266.500" stroke-width="18.076" stroke="rgb(33,33,33)" fill="none" stroke-linecap="round"></path><path d="M 224.000,266.500 C 223.000,266.500 223.000,266.500 222.000,266.500" stroke-width="18.003" stroke="rgb(33,33,33)" fill="none" stroke-linecap="round"></path><path d="M 222.000,266.500 C 221.000,266.500 221.000,266.500 220.000,266.500" stroke-width="17.911" stroke="rgb(33,33,33)" fill="none" stroke-linecap="round"></path><path d="M 220.000,266.500 C 219.000,266.500 219.000,266.500 218.000,266.500" stroke-width="17.991" stroke="rgb(33,33,33)" fill="none" stroke-linecap="round"></path><path d="M 218.000,266.500 C 216.500,266.500 216.500,266.500 215.000,266.500" stroke-width="17.861" stroke="rgb(33,33,33)" fill="none" stroke-linecap="round"></path><path d="M 215.000,266.500 C 214.500,266.500 214.309,266.191 214.000,266.500" stroke-width="18.111" stroke="rgb(33,33,33)" fill="none" stroke-linecap="round"></path><path d="M 214.000,266.500 C 213.309,267.191 213.500,267.500 213.000,268.500" stroke-width="18.011" stroke="rgb(33,33,33)" fill="none" stroke-linecap="round"></path><path d="M 213.000,268.500 C 212.500,269.500 212.264,269.444 212.000,270.500" stroke-width="17.988" stroke="rgb(33,33,33)" fill="none" stroke-linecap="round"></path><path d="M 212.000,270.500 C 211.764,271.444 212.000,271.500 212.000,272.500" stroke-width="17.990" stroke="rgb(33,33,33)" fill="none" stroke-linecap="round"></path><path d="M 212.000,272.500 C 212.000,273.000 212.000,273.000 212.000,273.500" stroke-width="18.206" stroke="rgb(33,33,33)" fill="none" stroke-linecap="round"></path><path d="M 212.000,273.500 C 212.000,274.500 212.000,274.500 212.000,275.500" stroke-width="18.210" stroke="rgb(33,33,33)" fill="none" stroke-linecap="round"></path><path d="M 212.000,275.500 C 212.000,276.000 212.000,276.000 212.000,276.500" stroke-width="18.386" stroke="rgb(33,33,33)" fill="none" stroke-linecap="round"></path><path d="M 212.000,276.500 C 212.000,277.000 211.667,277.333 212.000,277.500" stroke-width="18.540" stroke="rgb(33,33,33)" fill="none" stroke-linecap="round"></path><path d="M 212.000,277.500 C 212.667,277.833 213.000,277.500 214.000,277.500" stroke-width="18.514" stroke="rgb(33,33,33)" fill="none" stroke-linecap="round"></path><path d="M 214.000,277.500 C 216.500,277.500 216.534,277.774 219.000,277.500" stroke-width="17.802" stroke="rgb(33,33,33)" fill="none" stroke-linecap="round"></path><path d="M 219.000,277.500 C 221.034,277.274 221.192,277.404 223.000,276.500" stroke-width="17.479" stroke="rgb(33,33,33)" fill="none" stroke-linecap="round"></path><path d="M 223.000,276.500 C 225.192,275.404 225.246,275.254 227.000,273.500" stroke-width="17.027" stroke="rgb(33,33,33)" fill="none" stroke-linecap="round"></path><path d="M 227.000,273.500 C 229.246,271.254 229.000,271.000 231.000,268.500" stroke-width="16.563" stroke="rgb(33,33,33)" fill="none" stroke-linecap="round"></path><path d="M 231.000,268.500 C 233.000,266.000 233.234,266.150 235.000,263.500" stroke-width="16.095" stroke="rgb(33,33,33)" fill="none" stroke-linecap="round"></path><path d="M 235.000,263.500 C 236.234,261.650 235.915,261.453 237.000,259.500" stroke-width="16.120" stroke="rgb(33,33,33)" fill="none" stroke-linecap="round"></path><path d="M 237.000,259.500 C 238.415,256.953 238.385,256.923 240.000,254.500" stroke-width="15.900" stroke="rgb(33,33,33)" fill="none" stroke-linecap="round"></path><path d="M 240.000,254.500 C 241.385,252.423 242.010,252.728 243.000,250.500" stroke-width="15.890" stroke="rgb(33,33,33)" fill="none" stroke-linecap="round"></path><path d="M 243.000,250.500 C 244.010,248.228 243.447,247.988 244.000,245.500" stroke-width="15.780" stroke="rgb(33,33,33)" fill="none" stroke-linecap="round"></path><path d="M 244.000,245.500 C 244.447,243.488 244.280,243.419 245.000,241.500" stroke-width="15.843" stroke="rgb(33,33,33)" fill="none" stroke-linecap="round"></path><path d="M 245.000,241.500 C 245.780,239.419 246.528,239.625 247.000,237.500" stroke-width="15.881" stroke="rgb(33,33,33)" fill="none" stroke-linecap="round"></path><path d="M 247.000,237.500 C 247.528,235.125 246.726,234.966 247.000,232.500" stroke-width="15.834" stroke="rgb(33,33,33)" fill="none" stroke-linecap="round"></path><path d="M 247.000,232.500 C 247.226,230.466 247.352,230.445 248.000,228.500" stroke-width="15.958" stroke="rgb(33,33,33)" fill="none" stroke-linecap="round"></path><path d="M 248.000,228.500 C 248.352,227.445 248.736,227.556 249.000,226.500" stroke-width="16.311" stroke="rgb(33,33,33)" fill="none" stroke-linecap="round"></path><path d="M 249.000,226.500 C 249.236,225.556 249.000,225.500 249.000,224.500" stroke-width="16.643" stroke="rgb(33,33,33)" fill="none" stroke-linecap="round"></path><path d="M 249.000,224.500 C 249.000,224.000 248.750,223.750 249.000,223.500" stroke-width="17.076" stroke="rgb(33,33,33)" fill="none" stroke-linecap="round"></path><path d="M 249.000,223.500 C 249.250,223.250 249.500,223.500 250.000,223.500" stroke-width="17.596" stroke="rgb(33,33,33)" fill="none" stroke-linecap="round"></path><path d="M 250.000,223.500 C 250.500,223.500 250.536,223.345 251.000,223.500" stroke-width="17.910" stroke="rgb(33,33,33)" fill="none" stroke-linecap="round"></path><path d="M 251.000,223.500 C 252.036,223.845 251.964,224.086 253.000,224.500" stroke-width="17.881" stroke="rgb(33,33,33)" fill="none" stroke-linecap="round"></path><path d="M 253.000,224.500 C 254.464,225.086 254.500,225.000 256.000,225.500" stroke-width="17.746" stroke="rgb(33,33,33)" fill="none" stroke-linecap="round"></path><path d="M 256.000,225.500 C 257.500,226.000 257.460,226.243 259.000,226.500" stroke-width="17.607" stroke="rgb(33,33,33)" fill="none" stroke-linecap="round"></path><path d="M 259.000,226.500 C 260.460,226.743 260.641,226.160 262.000,226.500" stroke-width="17.493" stroke="rgb(33,33,33)" fill="none" stroke-linecap="round"></path><path d="M 262.000,226.500 C 262.641,226.660 262.419,227.113 263.000,227.500" stroke-width="17.736" stroke="rgb(33,33,33)" fill="none" stroke-linecap="round"></path><path d="M 263.000,227.500 C 263.919,228.113 264.081,227.887 265.000,228.500" stroke-width="17.767" stroke="rgb(33,33,33)" fill="none" stroke-linecap="round"></path><path d="M 265.000,228.500 C 265.581,228.887 265.707,228.914 266.000,229.500" stroke-width="17.945" stroke="rgb(33,33,33)" fill="none" stroke-linecap="round"></path><path d="M 266.000,229.500 C 266.207,229.914 266.000,230.000 266.000,230.500" stroke-width="18.158" stroke="rgb(33,33,33)" fill="none" stroke-linecap="round"></path><path d="M 266.000,230.500 C 266.000,231.000 266.000,231.000 266.000,231.500" stroke-width="18.331" stroke="rgb(33,33,33)" fill="none" stroke-linecap="round"></path><path d="M 266.000,231.500 C 266.000,232.500 266.000,232.500 266.000,233.500" stroke-width="18.310" stroke="rgb(33,33,33)" fill="none" stroke-linecap="round"></path><path d="M 266.000,233.500 C 266.000,234.500 266.000,234.500 266.000,235.500" stroke-width="18.271" stroke="rgb(33,33,33)" fill="none" stroke-linecap="round"></path><path d="M 266.000,235.500 C 266.000,236.000 266.000,236.000 266.000,236.500" stroke-width="18.509" stroke="rgb(33,33,33)" fill="none" stroke-linecap="round"></path><path d="M 266.000,236.500 C 266.000,236.500 266.000,236.500 266.000,236.500" stroke-width="18.833" stroke="rgb(33,33,33)" fill="none" stroke-linecap="round"></path><path d="M 266.000,236.500 C 266.000,234.500 266.000,234.500 266.000,232.500" stroke-width="18.332" stroke="rgb(33,33,33)" fill="none" stroke-linecap="round"></path><path d="M 266.000,232.500 C 266.000,230.500 266.000,230.500 266.000,228.500" stroke-width="17.862" stroke="rgb(33,33,33)" fill="none" stroke-linecap="round"></path><path d="M 266.000,228.500 C 266.000,226.500 265.721,226.455 266.000,224.500" stroke-width="17.587" stroke="rgb(33,33,33)" fill="none" stroke-linecap="round"></path><path d="M 266.000,224.500 C 266.221,222.955 266.694,223.031 267.000,221.500" stroke-width="17.447" stroke="rgb(33,33,33)" fill="none" stroke-linecap="round"></path><path d="M 267.000,221.500 C 267.194,220.531 266.764,220.444 267.000,219.500" stroke-width="17.577" stroke="rgb(33,33,33)" fill="none" stroke-linecap="round"></path><path d="M 267.000,219.500 C 267.264,218.444 267.655,218.536 268.000,217.500" stroke-width="17.640" stroke="rgb(33,33,33)" fill="none" stroke-linecap="round"></path><path d="M 268.000,217.500 C 268.155,217.036 267.750,216.750 268.000,216.500" stroke-width="17.929" stroke="rgb(33,33,33)" fill="none" stroke-linecap="round"></path><path d="M 268.000,216.500 C 268.250,216.250 268.500,216.500 269.000,216.500" stroke-width="18.156" stroke="rgb(33,33,33)" fill="none" stroke-linecap="round"></path><path d="M 269.000,216.500 C 269.500,216.500 269.586,216.707 270.000,216.500" stroke-width="18.353" stroke="rgb(33,33,33)" fill="none" stroke-linecap="round"></path><path d="M 270.000,216.500 C 270.586,216.207 270.414,215.793 271.000,215.500" stroke-width="18.436" stroke="rgb(33,33,33)" fill="none" stroke-linecap="round"></path><path d="M 271.000,215.500 C 271.414,215.293 271.500,215.500 272.000,215.500" stroke-width="18.581" stroke="rgb(33,33,33)" fill="none" stroke-linecap="round"></path><path d="M 272.000,215.500 C 272.500,215.500 272.500,215.500 273.000,215.500" stroke-width="18.687" stroke="rgb(33,33,33)" fill="none" stroke-linecap="round"></path><path d="M 273.000,215.500 C 273.500,215.500 273.500,215.500 274.000,215.500" stroke-width="18.773" stroke="rgb(33,33,33)" fill="none" stroke-linecap="round"></path><path d="M 274.000,215.500 C 274.500,215.500 274.833,215.833 275.000,215.500" stroke-width="18.986" stroke="rgb(33,33,33)" fill="none" stroke-linecap="round"></path><path d="M 275.000,215.500 C 275.333,214.833 274.806,214.469 275.000,213.500" stroke-width="18.868" stroke="rgb(33,33,33)" fill="none" stroke-linecap="round"></path><path d="M 275.000,213.500 C 275.306,211.969 275.500,212.000 276.000,210.500" stroke-width="18.396" stroke="rgb(33,33,33)" fill="none" stroke-linecap="round"></path><path d="M 276.000,210.500 C 276.500,209.000 276.414,208.964 277.000,207.500" stroke-width="18.149" stroke="rgb(33,33,33)" fill="none" stroke-linecap="round"></path><path d="M 277.000,207.500 C 277.414,206.464 277.500,206.500 278.000,205.500" stroke-width="18.098" stroke="rgb(33,33,33)" fill="none" stroke-linecap="round"></path><path d="M 278.000,205.500 C 278.500,204.500 278.655,204.536 279.000,203.500" stroke-width="18.057" stroke="rgb(33,33,33)" fill="none" stroke-linecap="round"></path><path d="M 279.000,203.500 C 279.155,203.036 279.000,203.000 279.000,202.500" stroke-width="18.272" stroke="rgb(33,33,33)" fill="none" stroke-linecap="round"></path><path d="M 279.000,202.500 C 279.000,202.000 278.750,201.750 279.000,201.500" stroke-width="18.436" stroke="rgb(33,33,33)" fill="none" stroke-linecap="round"></path><path d="M 279.000,201.500 C 279.250,201.250 279.500,201.500 280.000,201.500" stroke-width="18.558" stroke="rgb(33,33,33)" fill="none" stroke-linecap="round"></path><path d="M 280.000,201.500 C 280.500,201.500 280.500,201.500 281.000,201.500" stroke-width="18.714" stroke="rgb(33,33,33)" fill="none" stroke-linecap="round"></path><path d="M 281.000,201.500 C 281.500,201.500 281.500,201.500 282.000,201.500" stroke-width="18.795" stroke="rgb(33,33,33)" fill="none" stroke-linecap="round"></path><path d="M 282.000,201.500 C 282.500,201.500 282.500,201.500 283.000,201.500" stroke-width="18.872" stroke="rgb(33,33,33)" fill="none" stroke-linecap="round"></path><path d="M 283.000,201.500 C 284.500,201.500 284.568,201.786 286.000,201.500" stroke-width="18.515" stroke="rgb(33,33,33)" fill="none" stroke-linecap="round"></path><path d="M 286.000,201.500 C 287.068,201.286 287.117,201.162 288.000,200.500" stroke-width="18.388" stroke="rgb(33,33,33)" fill="none" stroke-linecap="round"></path><path d="M 288.000,200.500 C 289.117,199.662 289.121,199.599 290.000,198.500" stroke-width="18.203" stroke="rgb(33,33,33)" fill="none" stroke-linecap="round"></path><path d="M 290.000,198.500 C 291.121,197.099 291.454,197.138 292.000,195.500" stroke-width="17.883" stroke="rgb(33,33,33)" fill="none" stroke-linecap="round"></path><path d="M 292.000,195.500 C 292.454,194.138 291.789,193.974 292.000,192.500" stroke-width="17.744" stroke="rgb(33,33,33)" fill="none" stroke-linecap="round"></path><path d="M 292.000,192.500 C 292.289,190.474 292.598,190.512 293.000,188.500" stroke-width="17.575" stroke="rgb(33,33,33)" fill="none" stroke-linecap="round"></path><path d="M 293.000,188.500 C 293.098,188.012 293.000,188.000 293.000,187.500" stroke-width="17.853" stroke="rgb(33,33,33)" fill="none" stroke-linecap="round"></path><path d="M 293.000,187.500 C 293.000,187.000 293.000,187.000 293.000,186.500" stroke-width="18.093" stroke="rgb(33,33,33)" fill="none" stroke-linecap="round"></path><path d="M 293.000,186.500 C 293.000,186.000 292.845,185.964 293.000,185.500" stroke-width="18.291" stroke="rgb(33,33,33)" fill="none" stroke-linecap="round"></path><path d="M 293.000,185.500 C 293.345,184.464 293.309,184.191 294.000,183.500" stroke-width="18.234" stroke="rgb(33,33,33)" fill="none" stroke-linecap="round"></path><path d="M 294.000,183.500 C 294.309,183.191 294.536,183.655 295.000,183.500" stroke-width="18.394" stroke="rgb(33,33,33)" fill="none" stroke-linecap="round"></path><path d="M 295.000,183.500 C 296.036,183.155 295.964,182.914 297.000,182.500" stroke-width="18.292" stroke="rgb(33,33,33)" fill="none" stroke-linecap="round"></path><path d="M 297.000,182.500 C 298.464,181.914 298.481,181.934 300.000,181.500" stroke-width="18.068" stroke="rgb(33,33,33)" fill="none" stroke-linecap="round"></path><path d="M 300.000,181.500 C 301.981,180.934 302.000,181.000 304.000,180.500" stroke-width="17.725" stroke="rgb(33,33,33)" fill="none" stroke-linecap="round"></path><path d="M 304.000,180.500 C 306.000,180.000 306.049,180.150 308.000,179.500" stroke-width="17.420" stroke="rgb(33,33,33)" fill="none" stroke-linecap="round"></path><path d="M 308.000,179.500 C 310.549,178.650 310.667,178.796 313.000,177.500" stroke-width="16.913" stroke="rgb(33,33,33)" fill="none" stroke-linecap="round"></path><path d="M 313.000,177.500 C 315.167,176.296 314.966,175.953 317.000,174.500" stroke-width="16.644" stroke="rgb(33,33,33)" fill="none" stroke-linecap="round"></path><path d="M 317.000,174.500 C 318.466,173.453 318.622,173.649 320.000,172.500" stroke-width="16.657" stroke="rgb(33,33,33)" fill="none" stroke-linecap="round"></path><path d="M 320.000,172.500 C 321.622,171.149 321.649,171.122 323.000,169.500" stroke-width="16.564" stroke="rgb(33,33,33)" fill="none" stroke-linecap="round"></path><path d="M 323.000,169.500 C 324.149,168.122 324.357,168.108 325.000,166.500" stroke-width="16.625" stroke="rgb(33,33,33)" fill="none" stroke-linecap="round"></path><path d="M 325.000,166.500 C 325.357,165.608 325.000,165.500 325.000,164.500" stroke-width="16.883" stroke="rgb(33,33,33)" fill="none" stroke-linecap="round"></path><path d="M 325.000,164.500 C 325.000,163.500 325.000,163.500 325.000,162.500" stroke-width="17.135" stroke="rgb(33,33,33)" fill="none" stroke-linecap="round"></path><path d="M 325.000,162.500 C 325.000,161.500 325.000,161.500 325.000,160.500" stroke-width="17.323" stroke="rgb(33,33,33)" fill="none" stroke-linecap="round"></path><path d="M 325.000,160.500 C 325.000,160.000 325.207,159.914 325.000,159.500" stroke-width="17.666" stroke="rgb(33,33,33)" fill="none" stroke-linecap="round"></path><path d="M 325.000,159.500 C 324.707,158.914 324.621,158.707 324.000,158.500" stroke-width="17.863" stroke="rgb(33,33,33)" fill="none" stroke-linecap="round"></path><path d="M 324.000,158.500 C 323.121,158.207 323.000,158.500 322.000,158.500" stroke-width="17.934" stroke="rgb(33,33,33)" fill="none" stroke-linecap="round"></path><path d="M 322.000,158.500 C 321.000,158.500 320.892,158.143 320.000,158.500" stroke-width="17.947" stroke="rgb(33,33,33)" fill="none" stroke-linecap="round"></path><path d="M 320.000,158.500 C 318.392,159.143 317.819,159.135 317.000,160.500" stroke-width="17.721" stroke="rgb(33,33,33)" fill="none" stroke-linecap="round"></path><path d="M 317.000,160.500 C 316.319,161.635 317.000,162.000 317.000,163.500" stroke-width="17.617" stroke="rgb(33,33,33)" fill="none" stroke-linecap="round"></path><path d="M 317.000,163.500 C 317.000,164.500 317.000,164.500 317.000,165.500" stroke-width="17.715" stroke="rgb(33,33,33)" fill="none" stroke-linecap="round"></path><path d="M 317.000,165.500 C 317.000,166.000 317.000,166.000 317.000,166.500" stroke-width="17.991" stroke="rgb(33,33,33)" fill="none" stroke-linecap="round"></path><path d="M 317.000,166.500 C 317.000,167.000 316.600,167.400 317.000,167.500" stroke-width="18.207" stroke="rgb(33,33,33)" fill="none" stroke-linecap="round"></path><path d="M 317.000,167.500 C 318.600,167.900 319.000,167.500 321.000,167.500" stroke-width="17.954" stroke="rgb(33,33,33)" fill="none" stroke-linecap="round"></path><path d="M 321.000,167.500 C 322.500,167.500 322.500,167.500 324.000,167.500" stroke-width="17.766" stroke="rgb(33,33,33)" fill="none" stroke-linecap="round"></path><path d="M 324.000,167.500 C 326.000,167.500 326.222,168.167 328.000,167.500" stroke-width="17.473" stroke="rgb(33,33,33)" fill="none" stroke-linecap="round"></path><path d="M 328.000,167.500 C 330.222,166.667 330.246,166.254 332.000,164.500" stroke-width="17.075" stroke="rgb(33,33,33)" fill="none" stroke-linecap="round"></path><path d="M 332.000,164.500 C 334.246,162.254 334.168,162.117 336.000,159.500" stroke-width="16.480" stroke="rgb(33,33,33)" fill="none" stroke-linecap="round"></path><path d="M 336.000,159.500 C 337.668,157.117 337.585,157.047 339.000,154.500" stroke-width="16.383" stroke="rgb(33,33,33)" fill="none" stroke-linecap="round"></path><path d="M 339.000,154.500 C 340.085,152.547 340.172,152.571 341.000,150.500" stroke-width="16.029" stroke="rgb(33,33,33)" fill="none" stroke-linecap="round"></path><path d="M 341.000,150.500 C 342.172,147.571 341.920,147.471 343.000,144.500" stroke-width="15.808" stroke="rgb(33,33,33)" fill="none" stroke-linecap="round"></path><path d="M 343.000,144.500 C 343.920,141.971 344.055,142.020 345.000,139.500" stroke-width="15.764" stroke="rgb(33,33,33)" fill="none" stroke-linecap="round"></path><path d="M 345.000,139.500 C 345.555,138.020 345.743,138.040 346.000,136.500" stroke-width="15.980" stroke="rgb(33,33,33)" fill="none" stroke-linecap="round"></path><path d="M 346.000,136.500 C 346.243,135.040 346.000,135.000 346.000,133.500" stroke-width="16.260" stroke="rgb(33,33,33)" fill="none" stroke-linecap="round"></path><path d="M 346.000,133.500 C 346.000,133.000 346.000,132.500 346.000,132.500" stroke-width="16.763" stroke="rgb(33,33,33)" fill="none" stroke-linecap="round"></path><path d="M 346.000,132.500 C 346.000,132.500 346.000,133.000 346.000,133.500" stroke-width="17.316" stroke="rgb(33,33,33)" fill="none" stroke-linecap="round"></path><path d="M 346.000,133.500 C 346.000,135.000 346.000,135.000 346.000,136.500" stroke-width="17.263" stroke="rgb(33,33,33)" fill="none" stroke-linecap="round"></path><path d="M 346.000,136.500 C 346.000,137.500 345.707,137.621 346.000,138.500" stroke-width="17.427" stroke="rgb(33,33,33)" fill="none" stroke-linecap="round"></path><path d="M 346.000,138.500 C 346.207,139.121 346.382,139.191 347.000,139.500" stroke-width="17.667" stroke="rgb(33,33,33)" fill="none" stroke-linecap="round"></path><path d="M 347.000,139.500 C 348.382,140.191 348.455,140.279 350.000,140.500" stroke-width="17.545" stroke="rgb(33,33,33)" fill="none" stroke-linecap="round"></path><path d="M 350.000,140.500 C 351.955,140.779 352.000,140.500 354.000,140.500" stroke-width="17.341" stroke="rgb(33,33,33)" fill="none" stroke-linecap="round"></path><path d="M 354.000,140.500 C 356.000,140.500 356.169,141.110 358.000,140.500" stroke-width="17.142" stroke="rgb(33,33,33)" fill="none" stroke-linecap="round"></path><path d="M 358.000,140.500 C 360.669,139.610 360.649,139.210 363.000,137.500" stroke-width="16.686" stroke="rgb(33,33,33)" fill="none" stroke-linecap="round"></path><path d="M 363.000,137.500 C 366.149,135.210 366.250,135.250 369.000,132.500" stroke-width="16.101" stroke="rgb(33,33,33)" fill="none" stroke-linecap="round"></path><path d="M 369.000,132.500 C 371.750,129.750 371.774,129.679 374.000,126.500" stroke-width="15.601" stroke="rgb(33,33,33)" fill="none" stroke-linecap="round"></path><path d="M 374.000,126.500 C 375.274,124.679 375.172,124.571 376.000,122.500" stroke-width="15.645" stroke="rgb(33,33,33)" fill="none" stroke-linecap="round"></path><path d="M 376.000,122.500 C 377.172,119.571 377.170,119.545 378.000,116.500" stroke-width="15.509" stroke="rgb(33,33,33)" fill="none" stroke-linecap="round"></path><path d="M 378.000,116.500 C 378.670,114.045 378.685,114.018 379.000,111.500" stroke-width="15.562" stroke="rgb(33,33,33)" fill="none" stroke-linecap="round"></path><path d="M 379.000,111.500 C 379.185,110.018 379.000,110.000 379.000,108.500" stroke-width="15.866" stroke="rgb(33,33,33)" fill="none" stroke-linecap="round"></path><path d="M 379.000,108.500 C 379.000,107.000 379.000,107.000 379.000,105.500" stroke-width="16.118" stroke="rgb(33,33,33)" fill="none" stroke-linecap="round"></path><path d="M 379.000,105.500 C 379.000,105.000 378.793,104.914 379.000,104.500" stroke-width="16.642" stroke="rgb(33,33,33)" fill="none" stroke-linecap="round"></path><path d="M 379.000,104.500 C 379.293,103.914 379.379,103.707 380.000,103.500" stroke-width="17.015" stroke="rgb(33,33,33)" fill="none" stroke-linecap="round"></path><path d="M 380.000,103.500 C 380.879,103.207 381.000,103.500 382.000,103.500" stroke-width="17.225" stroke="rgb(33,33,33)" fill="none" stroke-linecap="round"></path><path d="M 382.000,103.500 C 383.000,103.500 383.020,103.663 384.000,103.500" stroke-width="17.464" stroke="rgb(33,33,33)" fill="none" stroke-linecap="round"></path><path d="M 384.000,103.500 C 386.020,103.163 385.974,102.789 388.000,102.500" stroke-width="17.173" stroke="rgb(33,33,33)" fill="none" stroke-linecap="round"></path><path d="M 388.000,102.500 C 389.474,102.289 389.500,102.500 391.000,102.500" stroke-width="17.181" stroke="rgb(33,33,33)" fill="none" stroke-linecap="round"></path><path d="M 391.000,102.500 C 393.000,102.500 393.000,102.500 395.000,102.500" stroke-width="17.055" stroke="rgb(33,33,33)" fill="none" stroke-linecap="round"></path><path d="M 395.000,102.500 C 396.000,102.500 396.000,102.500 397.000,102.500" stroke-width="17.236" stroke="rgb(33,33,33)" fill="none" stroke-linecap="round"></path><path d="M 397.000,102.500 C 398.000,102.500 398.121,102.207 399.000,102.500" stroke-width="17.383" stroke="rgb(33,33,33)" fill="none" stroke-linecap="round"></path><path d="M 399.000,102.500 C 399.621,102.707 399.500,103.000 400.000,103.500" stroke-width="17.645" stroke="rgb(33,33,33)" fill="none" stroke-linecap="round"></path><path d="M 400.000,103.500 C 400.500,104.000 400.707,103.914 401.000,104.500" stroke-width="17.829" stroke="rgb(33,33,33)" fill="none" stroke-linecap="round"></path><path d="M 401.000,104.500 C 401.207,104.914 400.750,105.250 401.000,105.500" stroke-width="18.085" stroke="rgb(33,33,33)" fill="none" stroke-linecap="round"></path><path d="M 401.000,105.500 C 401.250,105.750 401.750,105.250 402.000,105.500" stroke-width="18.294" stroke="rgb(33,33,33)" fill="none" stroke-linecap="round"></path><path d="M 402.000,105.500 C 402.250,105.750 401.750,106.250 402.000,106.500" stroke-width="18.442" stroke="rgb(33,33,33)" fill="none" stroke-linecap="round"></path><path d="M 402.000,106.500 C 402.250,106.750 402.536,106.655 403.000,106.500" stroke-width="18.586" stroke="rgb(33,33,33)" fill="none" stroke-linecap="round"></path><path d="M 403.000,106.500 C 404.036,106.155 404.333,106.333 405.000,105.500" stroke-width="18.416" stroke="rgb(33,33,33)" fill="none" stroke-linecap="round"></path><path d="M 405.000,105.500 C 406.333,103.833 405.644,103.243 407.000,101.500" stroke-width="17.884" stroke="rgb(33,33,33)" fill="none" stroke-linecap="round"></path><path d="M 407.000,101.500 C 409.144,98.743 410.013,99.338 412.000,96.500" stroke-width="17.031" stroke="rgb(33,33,33)" fill="none" stroke-linecap="round"></path><path d="M 412.000,96.500 C 413.513,94.338 412.907,93.958 414.000,91.500" stroke-width="16.721" stroke="rgb(33,33,33)" fill="none" stroke-linecap="round"></path><path d="M 414.000,91.500 C 414.907,89.458 415.121,89.550 416.000,87.500" stroke-width="16.579" stroke="rgb(33,33,33)" fill="none" stroke-linecap="round"></path><path d="M 416.000,87.500 C 416.621,86.050 416.414,85.964 417.000,84.500" stroke-width="16.675" stroke="rgb(33,33,33)" fill="none" stroke-linecap="round"></path><path d="M 417.000,84.500 C 417.414,83.464 417.655,83.536 418.000,82.500" stroke-width="16.927" stroke="rgb(33,33,33)" fill="none" stroke-linecap="round"></path><path d="M 418.000,82.500 C 418.155,82.036 417.750,81.750 418.000,81.500" stroke-width="17.325" stroke="rgb(33,33,33)" fill="none" stroke-linecap="round"></path><path d="M 418.000,81.500 C 418.250,81.250 418.750,81.750 419.000,81.500" stroke-width="17.657" stroke="rgb(33,33,33)" fill="none" stroke-linecap="round"></path><path d="M 419.000,81.500 C 419.250,81.250 419.000,81.000 419.000,80.500" stroke-width="18.002" stroke="rgb(33,33,33)" fill="none" stroke-linecap="round"></path><path d="M 419.000,80.500 C 419.000,80.000 419.000,80.000 419.000,79.500" stroke-width="18.227" stroke="rgb(33,33,33)" fill="none" stroke-linecap="round"></path><path d="M 419.000,79.500 C 419.000,78.500 419.000,78.500 419.000,77.500" stroke-width="18.181" stroke="rgb(33,33,33)" fill="none" stroke-linecap="round"></path><path d="M 419.000,77.500 C 419.000,77.000 419.000,77.000 419.000,76.500" stroke-width="18.373" stroke="rgb(33,33,33)" fill="none" stroke-linecap="round"></path><path d="M 419.000,76.500 C 419.000,75.500 419.000,75.500 419.000,74.500" stroke-width="18.322" stroke="rgb(33,33,33)" fill="none" stroke-linecap="round"></path><path d="M 419.000,74.500 C 419.000,74.000 419.000,74.000 419.000,73.500" stroke-width="18.488" stroke="rgb(33,33,33)" fill="none" stroke-linecap="round"></path><path d="M 419.000,73.500 C 419.000,73.000 418.750,72.750 419.000,72.500" stroke-width="18.599" stroke="rgb(33,33,33)" fill="none" stroke-linecap="round"></path><path d="M 419.000,72.500 C 419.250,72.250 419.500,72.500 420.000,72.500" stroke-width="18.874" stroke="rgb(33,33,33)" fill="none" stroke-linecap="round"></path><path d="M 420.000,72.500 C 420.500,72.500 420.500,72.500 421.000,72.500" stroke-width="18.911" stroke="rgb(33,33,33)" fill="none" stroke-linecap="round"></path><path d="M 421.000,72.500 C 422.500,72.500 422.638,72.046 424.000,72.500" stroke-width="18.578" stroke="rgb(33,33,33)" fill="none" stroke-linecap="round"></path><path d="M 424.000,72.500 C 425.638,73.046 425.500,73.500 427.000,74.500" stroke-width="18.128" stroke="rgb(33,33,33)" fill="none" stroke-linecap="round"></path><path d="M 427.000,74.500 C 430.000,76.500 429.895,76.674 433.000,78.500" stroke-width="17.252" stroke="rgb(33,33,33)" fill="none" stroke-linecap="round"></path><path d="M 433.000,78.500 C 438.395,81.674 438.766,81.086 444.000,84.500" stroke-width="15.629" stroke="rgb(33,33,33)" fill="none" stroke-linecap="round"></path><path d="M 444.000,84.500 C 450.266,88.586 449.705,89.453 456.000,93.500" stroke-width="14.522" stroke="rgb(33,33,33)" fill="none" stroke-linecap="round"></path><path d="M 456.000,93.500 C 463.705,98.453 464.245,97.618 472.000,102.500" stroke-width="13.107" stroke="rgb(33,33,33)" fill="none" stroke-linecap="round"></path><path d="M 472.000,102.500 C 477.745,106.118 477.418,106.617 483.000,110.500" stroke-width="12.688" stroke="rgb(33,33,33)" fill="none" stroke-linecap="round"></path><path d="M 483.000,110.500 C 488.918,114.617 489.162,114.283 495.000,118.500" stroke-width="12.299" stroke="rgb(33,33,33)" fill="none" stroke-linecap="round"></path><path d="M 495.000,118.500 C 498.162,120.783 497.978,121.027 501.000,123.500" stroke-width="12.585" stroke="rgb(33,33,33)" fill="none" stroke-linecap="round"></path><path d="M 501.000,123.500 C 503.478,125.527 503.939,125.145 506.000,127.500" stroke-width="13.079" stroke="rgb(33,33,33)" fill="none" stroke-linecap="round"></path><path d="M 506.000,127.500 C 507.439,129.145 507.220,129.419 508.000,131.500" stroke-width="13.550" stroke="rgb(33,33,33)" fill="none" stroke-linecap="round"></path><path d="M 508.000,131.500 C 508.720,133.419 508.711,133.474 509.000,135.500" stroke-width="14.023" stroke="rgb(33,33,33)" fill="none" stroke-linecap="round"></path><path d="M 509.000,135.500 C 509.211,136.974 509.358,137.069 509.000,138.500" stroke-width="14.562" stroke="rgb(33,33,33)" fill="none" stroke-linecap="round"></path><path d="M 509.000,138.500 C 508.358,141.069 508.895,141.763 507.000,143.500" stroke-width="14.676" stroke="rgb(33,33,33)" fill="none" stroke-linecap="round"></path><path d="M 507.000,143.500 C 502.895,147.263 501.918,146.370 497.000,149.500" stroke-width="14.127" stroke="rgb(33,33,33)" fill="none" stroke-linecap="round"></path><path d="M 497.000,149.500 C 490.918,153.370 491.160,153.760 485.000,157.500" stroke-width="13.261" stroke="rgb(33,33,33)" fill="none" stroke-linecap="round"></path><path d="M 485.000,157.500 C 477.160,162.260 476.719,161.552 469.000,166.500" stroke-width="12.366" stroke="rgb(33,33,33)" fill="none" stroke-linecap="round"></path><path d="M 469.000,166.500 C 457.219,174.052 457.654,174.731 446.000,182.500" stroke-width="11.007" stroke="rgb(33,33,33)" fill="none" stroke-linecap="round"></path><path d="M 446.000,182.500 C 433.654,190.731 433.238,190.115 421.000,198.500" stroke-width="10.117" stroke="rgb(33,33,33)" fill="none" stroke-linecap="round"></path><path d="M 421.000,198.500 C 406.238,208.615 406.613,209.159 392.000,219.500" stroke-width="9.208" stroke="rgb(33,33,33)" fill="none" stroke-linecap="round"></path><path d="M 392.000,219.500 C 374.113,232.159 373.917,231.882 356.000,244.500" stroke-width="8.182" stroke="rgb(33,33,33)" fill="none" stroke-linecap="round"></path><path d="M 356.000,244.500 C 338.417,256.882 338.617,257.168 321.000,269.500" stroke-width="7.452" stroke="rgb(33,33,33)" fill="none" stroke-linecap="round"></path><path d="M 321.000,269.500 C 303.617,281.668 303.654,281.731 286.000,293.500" stroke-width="7.048" stroke="rgb(33,33,33)" fill="none" stroke-linecap="round"></path><path d="M 286.000,293.500 C 270.654,303.731 270.040,302.839 255.000,313.500" stroke-width="6.842" stroke="rgb(33,33,33)" fill="none" stroke-linecap="round"></path><path d="M 255.000,313.500 C 230.540,330.839 231.000,331.500 207.000,349.500" stroke-width="6.957" stroke="rgb(33,33,33)" fill="none" stroke-linecap="round"></path><path d="M 207.000,349.500 C 197.000,357.000 196.387,356.324 187.000,364.500" stroke-width="7.174" stroke="rgb(33,33,33)" fill="none" stroke-linecap="round"></path><path d="M 187.000,364.500 C 180.887,369.824 181.749,370.751 176.000,376.500" stroke-width="7.608" stroke="rgb(33,33,33)" fill="none" stroke-linecap="round"></path><path d="M 176.000,376.500 C 171.249,381.251 170.897,380.891 166.000,385.500" stroke-width="8.169" stroke="rgb(33,33,33)" fill="none" stroke-linecap="round"></path><path d="M 166.000,385.500 C 162.397,388.891 162.072,388.660 159.000,392.500" stroke-width="8.779" stroke="rgb(33,33,33)" fill="none" stroke-linecap="round"></path><path d="M 159.000,392.500 C 156.072,396.160 156.735,396.670 154.000,400.500" stroke-width="9.391" stroke="rgb(33,33,33)" fill="none" stroke-linecap="round"></path><path d="M 154.000,400.500 C 151.735,403.670 151.371,403.399 149.000,406.500" stroke-width="10.065" stroke="rgb(33,33,33)" fill="none" stroke-linecap="round"></path><path d="M 149.000,406.500 C 144.871,411.899 144.700,411.808 141.000,417.500" stroke-width="10.282" stroke="rgb(33,33,33)" fill="none" stroke-linecap="round"></path><path d="M 141.000,417.500 C 138.200,421.808 138.524,422.013 136.000,426.500" stroke-width="10.714" stroke="rgb(33,33,33)" fill="none" stroke-linecap="round"></path><path d="M 136.000,426.500 C 134.024,430.013 133.910,429.952 132.000,433.500" stroke-width="11.207" stroke="rgb(33,33,33)" fill="none" stroke-linecap="round"></path><path d="M 132.000,433.500 C 130.410,436.452 130.500,436.500 129.000,439.500" stroke-width="11.710" stroke="rgb(33,33,33)" fill="none" stroke-linecap="round"></path><path d="M 129.000,439.500 C 128.000,441.500 128.140,441.601 127.000,443.500" stroke-width="12.377" stroke="rgb(33,33,33)" fill="none" stroke-linecap="round"></path><path d="M 127.000,443.500 C 126.640,444.101 126.293,443.914 126.000,444.500" stroke-width="13.274" stroke="rgb(33,33,33)" fill="none" stroke-linecap="round"></path><path d="M 126.000,444.500 C 125.793,444.914 126.250,445.250 126.000,445.500" stroke-width="14.146" stroke="rgb(33,33,33)" fill="none" stroke-linecap="round"></path><path d="M 126.000,445.500 C 125.750,445.750 125.250,445.750 125.000,445.500" stroke-width="15.003" stroke="rgb(33,33,33)" fill="none" stroke-linecap="round"></path><path d="M 125.000,445.500 C 124.750,445.250 125.000,445.000 125.000,444.500" stroke-width="15.784" stroke="rgb(33,33,33)" fill="none" stroke-linecap="round"></path><path d="M 125.000,444.500 C 125.000,441.500 125.000,441.500 125.000,438.500" stroke-width="15.661" stroke="rgb(33,33,33)" fill="none" stroke-linecap="round"></path><path d="M 125.000,438.500 C 125.000,434.000 125.195,433.993 125.000,429.500" stroke-width="15.034" stroke="rgb(33,33,33)" fill="none" stroke-linecap="round"></path><path d="M 125.000,429.500 C 124.695,422.493 124.452,422.503 124.000,415.500" stroke-width="13.937" stroke="rgb(33,33,33)" fill="none" stroke-linecap="round"></path><path d="M 124.000,415.500 C 123.452,407.003 123.727,406.981 123.000,398.500" stroke-width="12.958" stroke="rgb(33,33,33)" fill="none" stroke-linecap="round"></path><path d="M 123.000,398.500 C 122.227,389.481 122.028,389.497 121.000,380.500" stroke-width="12.175" stroke="rgb(33,33,33)" fill="none" stroke-linecap="round"></path><path d="M 121.000,380.500 C 120.028,371.997 120.095,371.988 119.000,363.500" stroke-width="11.768" stroke="rgb(33,33,33)" fill="none" stroke-linecap="round"></path><path d="M 119.000,363.500 C 118.095,356.488 118.334,356.435 117.000,349.500" stroke-width="11.736" stroke="rgb(33,33,33)" fill="none" stroke-linecap="round"></path><path d="M 117.000,349.500 C 115.834,343.435 115.103,343.569 114.000,337.500" stroke-width="11.838" stroke="rgb(33,33,33)" fill="none" stroke-linecap="round"></path><path d="M 114.000,337.500 C 113.103,332.569 113.500,332.500 113.000,327.500" stroke-width="11.828" stroke="rgb(33,33,33)" fill="none" stroke-linecap="round"></path><path d="M 113.000,327.500 C 112.500,322.500 112.500,322.500 112.000,317.500" stroke-width="12.086" stroke="rgb(33,33,33)" fill="none" stroke-linecap="round"></path><path d="M 112.000,317.500 C 111.500,312.500 111.251,312.512 111.000,307.500" stroke-width="12.302" stroke="rgb(33,33,33)" fill="none" stroke-linecap="round"></path><path d="M 111.000,307.500 C 110.751,302.512 111.331,302.467 111.000,297.500" stroke-width="12.120" stroke="rgb(33,33,33)" fill="none" stroke-linecap="round"></path><path d="M 111.000,297.500 C 110.831,294.967 110.456,295.008 110.000,292.500" stroke-width="12.734" stroke="rgb(33,33,33)" fill="none" stroke-linecap="round"></path><path d="M 110.000,292.500 C 109.456,289.508 109.335,289.514 109.000,286.500" stroke-width="13.151" stroke="rgb(33,33,33)" fill="none" stroke-linecap="round"></path><path d="M 109.000,286.500 C 108.835,285.014 109.340,284.859 109.000,283.500" stroke-width="13.802" stroke="rgb(33,33,33)" fill="none" stroke-linecap="round"></path><path d="M 109.000,283.500 C 108.840,282.859 108.293,283.086 108.000,282.500" stroke-width="14.554" stroke="rgb(33,33,33)" fill="none" stroke-linecap="round"></path><path d="M 108.000,282.500 C 107.793,282.086 108.250,281.750 108.000,281.500" stroke-width="15.276" stroke="rgb(33,33,33)" fill="none" stroke-linecap="round"></path><path d="M 108.000,281.500 C 107.750,281.250 107.250,281.750 107.000,281.500" stroke-width="16.035" stroke="rgb(33,33,33)" fill="none" stroke-linecap="round"></path><path d="M 107.000,281.500 C 106.750,281.250 107.000,281.000 107.000,280.500" stroke-width="16.674" stroke="rgb(33,33,33)" fill="none" stroke-linecap="round"></path><path d="M 107.000,280.500 C 107.000,280.000 107.155,279.964 107.000,279.500" stroke-width="17.180" stroke="rgb(33,33,33)" fill="none" stroke-linecap="round"></path><path d="M 107.000,279.500 C 106.655,278.464 106.500,278.500 106.000,277.500" stroke-width="17.267" stroke="rgb(33,33,33)" fill="none" stroke-linecap="round"></path><path d="M 106.000,277.500 C 105.500,276.500 105.214,276.568 105.000,275.500" stroke-width="17.365" stroke="rgb(33,33,33)" fill="none" stroke-linecap="round"></path><path d="M 105.000,275.500 C 104.714,274.068 105.286,273.932 105.000,272.500" stroke-width="17.363" stroke="rgb(33,33,33)" fill="none" stroke-linecap="round"></path><path d="M 105.000,272.500 C 104.786,271.432 104.500,271.500 104.000,270.500" stroke-width="17.467" stroke="rgb(33,33,33)" fill="none" stroke-linecap="round"></path><path d="M 104.000,270.500 C 103.500,269.500 103.000,269.191 103.000,268.500" stroke-width="17.574" stroke="rgb(33,33,33)" fill="none" stroke-linecap="round"></path><path d="M 103.000,268.500 C 103.000,268.191 103.543,268.317 104.000,268.500" stroke-width="17.993" stroke="rgb(33,33,33)" fill="none" stroke-linecap="round"></path><path d="M 104.000,268.500 C 106.043,269.317 106.150,269.266 108.000,270.500" stroke-width="17.514" stroke="rgb(33,33,33)" fill="none" stroke-linecap="round"></path><path d="M 108.000,270.500 C 110.650,272.266 110.522,272.473 113.000,274.500" stroke-width="16.871" stroke="rgb(33,33,33)" fill="none" stroke-linecap="round"></path><path d="M 113.000,274.500 C 116.022,276.973 115.918,277.103 119.000,279.500" stroke-width="16.239" stroke="rgb(33,33,33)" fill="none" stroke-linecap="round"></path><path d="M 119.000,279.500 C 124.918,284.103 124.952,284.065 131.000,288.500" stroke-width="14.620" stroke="rgb(33,33,33)" fill="none" stroke-linecap="round"></path><path d="M 131.000,288.500 C 139.952,295.065 140.177,294.767 149.000,301.500" stroke-width="12.904" stroke="rgb(33,33,33)" fill="none" stroke-linecap="round"></path><path d="M 149.000,301.500 C 159.177,309.267 158.912,309.613 169.000,317.500" stroke-width="11.638" stroke="rgb(33,33,33)" fill="none" stroke-linecap="round"></path><path d="M 169.000,317.500 C 186.412,331.113 186.443,331.074 204.000,344.500" stroke-width="10.934" stroke="rgb(33,33,33)" fill="none" stroke-linecap="round"></path><path d="M 204.000,344.500 C 211.943,350.574 212.129,350.340 220.000,356.500" stroke-width="10.564" stroke="rgb(33,33,33)" fill="none" stroke-linecap="round"></path><path d="M 220.000,356.500 C 223.629,359.340 223.615,359.376 227.000,362.500" stroke-width="11.091" stroke="rgb(33,33,33)" fill="none" stroke-linecap="round"></path><path d="M 227.000,362.500 C 230.115,365.376 230.000,365.500 233.000,368.500" stroke-width="11.503" stroke="rgb(33,33,33)" fill="none" stroke-linecap="round"></path><path d="M 233.000,368.500 C 234.500,370.000 234.500,370.000 236.000,371.500" stroke-width="12.212" stroke="rgb(33,33,33)" fill="none" stroke-linecap="round"></path></svg>