<svg xmlns="http://www.w3.org/2000/svg" xmlns:xlink="http://www.w3.org/1999/xlink" viewBox="0 0 800 500"><path d="M 196.500,158.500 C 196.500,159.000 196.500,159.000 196.500,159.500" stroke-width="20.236" stroke="rgb(33,33,33)" fill="none" stroke-linecap="round"></path><path d="M 196.500,159.500 C 196.500,160.000 196.500,160.000 196.500,160.500" stroke-width="19.973" stroke="rgb(33,33,33)" fill="none" stroke-linecap="round"></path><path d="M 196.500,160.500 C 196.500,161.000 196.500,161.000 196.500,161.500" stroke-width="19.783" stroke="rgb(33,33,33)" fill="none" stroke-linecap="round"></path><path d="M 196.500,161.500 C 196.500,162.000 196.500,162.000 196.500,162.500" stroke-width="16.614" stroke="rgb(33,33,33)" fill="none" stroke-linecap="round"></path><path d="M 196.500,162.500 C 196.500,163.500 196.500,163.500 196.500,164.500" stroke-width="16.913" stroke="rgb(33,33,33)" fill="none" stroke-linecap="round"></path><path d="M 196.500,164.500 C 196.500,166.000 196.858,166.069 196.500,167.500" stroke-width="16.425" stroke="rgb(33,33,33)" fill="none" stroke-linecap="round"></path><path d="M 196.500,167.500 C 195.858,170.069 195.074,169.918 194.500,172.500" stroke-width="15.330" stroke="rgb(33,33,33)" fill="none" stroke-linecap="round"></path><path d="M 194.500,172.500 C 194.074,174.418 195.060,174.632 194.500,176.500" stroke-width="14.926" stroke="rgb(33,33,33)" fill="none" stroke-linecap="round"></path><path d="M 194.500,176.500 C 193.560,179.632 192.787,179.412 191.500,182.500" stroke-width="13.936" stroke="rgb(33,33,33)" fill="none" stroke-linecap="round"></path><path d="M 191.500,182.500 C 190.287,185.412 190.580,185.529 189.500,188.500" stroke-width="13.317" stroke="rgb(33,33,33)" fill="none" stroke-linecap="round"></path><path d="M 189.500,188.500 C 188.580,191.029 188.350,190.951 187.500,193.500" stroke-width="13.055" stroke="rgb(33,33,33)" fill="none" stroke-linecap="round"></path><path d="M 187.500,193.500 C 186.850,195.451 187.000,195.500 186.500,197.500" stroke-width="13.116" stroke="rgb(33,33,33)" fill="none" stroke-linecap="round"></path><path d="M 186.500,197.500 C 186.000,199.500 186.066,199.519 185.500,201.500" stroke-width="13.164" stroke="rgb(33,33,33)" fill="none" stroke-linecap="round"></path><path d="M 185.500,201.500 C 185.066,203.019 184.880,202.981 184.500,204.500" stroke-width="13.414" stroke="rgb(33,33,33)" fill="none" stroke-linecap="round"></path><path d="M 184.500,204.500 C 184.380,204.981 184.500,205.000 184.500,205.500" stroke-width="14.134" stroke="rgb(33,33,33)" fill="none" stroke-linecap="round"></path><path d="M 184.500,205.500 C 184.500,206.500 184.500,206.500 184.500,207.500" stroke-width="14.504" stroke="rgb(33,33,33)" fill="none" stroke-linecap="round"></path><path d="M 184.500,207.500 C 184.500,208.500 184.500,208.500 184.500,209.500" stroke-width="14.814" stroke="rgb(33,33,33)" fill="none" stroke-linecap="round"></path><path d="M 184.500,209.500 C 184.500,210.000 184.500,210.000 184.500,210.500" stroke-width="15.358" stroke="rgb(33,33,33)" fill="none" stroke-linecap="round"></path><path d="M 184.500,210.500 C 184.500,211.000 184.500,211.000 184.500,211.500" stroke-width="15.822" stroke="rgb(33,33,33)" fill="none" stroke-linecap="round"></path><path d="M 184.500,211.500 C 184.500,212.000 184.500,212.000 184.500,212.500" stroke-width="16.215" stroke="rgb(33,33,33)" fill="none" stroke-linecap="round"></path><path d="M 184.500,212.500 C 184.500,213.500 184.500,213.500 184.500,214.500" stroke-width="16.212" stroke="rgb(33,33,33)" fill="none" stroke-linecap="round"></path><path d="M 184.500,214.500 C 184.500,215.500 184.500,215.500 184.500,216.500" stroke-width="16.209" stroke="rgb(33,33,33)" fill="none" stroke-linecap="round"></path><path d="M 184.500,216.500 C 184.500,218.000 184.500,218.000 184.500,219.500" stroke-width="15.890" stroke="rgb(33,33,33)" fill="none" stroke-linecap="round"></path><path d="M 184.500,219.500 C 184.500,221.000 184.743,221.040 184.500,222.500" stroke-width="15.643" stroke="rgb(33,33,33)" fill="none" stroke-linecap="round"></path><path d="M 184.500,222.500 C 184.243,224.040 184.000,224.000 183.500,225.500" stroke-width="15.403" stroke="rgb(33,33,33)" fill="none" stroke-linecap="round"></path><path d="M 183.500,225.500 C 183.000,227.000 183.086,227.036 182.500,228.500" stroke-width="15.216" stroke="rgb(33,33,33)" fill="none" stroke-linecap="round"></path><path d="M 182.500,228.500 C 182.086,229.536 181.845,229.464 181.500,230.500" stroke-width="15.335" stroke="rgb(33,33,33)" fill="none" stroke-linecap="round"></path><path d="M 181.500,230.500 C 181.345,230.964 181.500,231.000 181.500,231.500" stroke-width="15.803" stroke="rgb(33,33,33)" fill="none" stroke-linecap="round"></path><path d="M 181.500,231.500 C 181.500,232.000 181.655,232.655 181.500,232.500" stroke-width="16.362" stroke="rgb(33,33,33)" fill="none" stroke-linecap="round"></path><path d="M 181.500,232.500 C 181.155,232.155 180.845,231.536 180.500,230.500" stroke-width="16.883" stroke="rgb(33,33,33)" fill="none" stroke-linecap="round"></path><path d="M 180.500,230.500 C 180.345,230.036 180.500,230.000 180.500,229.500" stroke-width="17.095" stroke="rgb(33,33,33)" fill="none" stroke-linecap="round"></path><path d="M 180.500,229.500 C 180.500,229.000 180.500,229.000 180.500,228.500" stroke-width="17.310" stroke="rgb(33,33,33)" fill="none" stroke-linecap="round"></path></svg>