<svg xmlns="http://www.w3.org/2000/svg" xmlns:xlink="http://www.w3.org/1999/xlink" viewBox="0 0 360 500"><path d="M 97.000,154.000 C 97.963,159.554 97.914,159.563 98.925,165.108" stroke-width="19.528" stroke="rgb(33,33,33)" fill="none" stroke-linecap="round"></path><path d="M 98.925,165.108 C 99.935,170.648 99.972,170.642 101.043,176.171" stroke-width="16.635" stroke="rgb(33,33,33)" fill="none" stroke-linecap="round"></path><path d="M 101.043,176.171 C 101.595,179.022 101.697,179.004 102.172,181.868" stroke-width="16.031" stroke="rgb(33,33,33)" fill="none" stroke-linecap="round"></path><path d="M 102.172,181.868 C 102.750,185.350 102.676,185.363 103.149,188.862" stroke-width="15.591" stroke="rgb(33,33,33)" fill="none" stroke-linecap="round"></path><path d="M 103.149,188.862 C 104.173,196.426 104.245,196.418 105.166,203.994" stroke-width="13.352" stroke="rgb(33,33,33)" fill="none" stroke-linecap="round"></path><path d="M 105.166,203.994 C 105.726,208.602 105.662,208.610 106.112,213.230" stroke-width="13.241" stroke="rgb(33,33,33)" fill="none" stroke-linecap="round"></path><path d="M 106.112,213.230 C 106.280,214.955 106.329,214.955 106.403,216.684" stroke-width="13.805" stroke="rgb(33,33,33)" fill="none" stroke-linecap="round"></path><path d="M 106.403,216.684 C 106.439,217.526 106.475,217.556 106.333,218.371" stroke-width="14.556" stroke="rgb(33,33,33)" fill="none" stroke-linecap="round"></path><path d="M 106.333,218.371 C 106.273,218.714 106.167,218.686 106.000,219.000" stroke-width="15.344" stroke="rgb(33,33,33)" fill="none" stroke-linecap="round"></path><path d="M 106.000,219.000 C 106.000,219.000 106.000,219.000 106.000,219.000" stroke-width="16.125" stroke="rgb(33,33,33)" fill="none" stroke-linecap="round"></path><path d="M 106.000,219.000 C 101.387,198.105 101.682,198.026 96.774,177.210" stroke-width="9.394" stroke="rgb(33,33,33)" fill="none" stroke-linecap="round"></path><path d="M 96.774,177.210 C 95.809,173.119 95.465,173.212 94.255,169.185" stroke-width="9.184" stroke="rgb(33,33,33)" fill="none" stroke-linecap="round"></path><path d="M 94.255,169.185 C 93.609,167.034 93.696,167.008 93.062,164.853" stroke-width="9.899" stroke="rgb(33,33,33)" fill="none" stroke-linecap="round"></path><path d="M 93.062,164.853 C 92.753,163.803 92.660,163.829 92.369,162.775" stroke-width="10.922" stroke="rgb(33,33,33)" fill="none" stroke-linecap="round"></path><path d="M 92.369,162.775 C 92.129,161.903 92.119,161.894 92.000,161.000" stroke-width="11.871" stroke="rgb(33,33,33)" fill="none" stroke-linecap="round"></path><path d="M 92.000,161.000 C 91.934,160.507 92.000,160.500 92.000,160.000" stroke-width="12.805" stroke="rgb(33,33,33)" fill="none" stroke-linecap="round"></path><path d="M 92.000,160.000 C 92.000,160.000 92.000,160.000 92.000,160.000" stroke-width="13.822" stroke="rgb(33,33,33)" fill="none" stroke-linecap="round"></path><path d="M 92.000,160.000 C 92.000,159.500 91.589,159.058 92.000,159.000" stroke-width="14.633" stroke="rgb(33,33,33)" fill="none" stroke-linecap="round"></path><path d="M 92.000,159.000 C 93.938,158.725 94.365,159.038 96.698,159.333" stroke-width="14.825" stroke="rgb(33,33,33)" fill="none" stroke-linecap="round"></path><path d="M 96.698,159.333 C 99.522,159.690 99.553,159.621 102.315,160.303" stroke-width="14.969" stroke="rgb(33,33,33)" fill="none" stroke-linecap="round"></path><path d="M 102.315,160.303 C 106.567,161.353 106.569,161.406 110.726,162.798" stroke-width="14.387" stroke="rgb(33,33,33)" fill="none" stroke-linecap="round"></path><path d="M 110.726,162.798 C 114.570,164.085 114.586,164.083 118.317,165.660" stroke-width="14.299" stroke="rgb(33,33,33)" fill="none" stroke-linecap="round"></path><path d="M 118.317,165.660 C 120.465,166.568 120.517,166.539 122.484,167.767" stroke-width="14.555" stroke="rgb(33,33,33)" fill="none" stroke-linecap="round"></path><path d="M 122.484,167.767 C 123.636,168.486 123.769,168.458 124.554,169.554" stroke-width="15.108" stroke="rgb(33,33,33)" fill="none" stroke-linecap="round"></path><path d="M 124.554,169.554 C 126.153,171.785 126.794,171.759 127.252,174.422" stroke-width="15.137" stroke="rgb(33,33,33)" fill="none" stroke-linecap="round"></path><path d="M 127.252,174.422 C 128.133,179.543 128.388,179.984 127.232,185.123" stroke-width="14.332" stroke="rgb(33,33,33)" fill="none" stroke-linecap="round"></path><path d="M 127.232,185.123 C 125.459,193.007 124.720,192.978 121.394,200.467" stroke-width="13.386" stroke="rgb(33,33,33)" fill="none" stroke-linecap="round"></path><path d="M 121.394,200.467 C 118.533,206.910 118.246,206.793 114.857,212.987" stroke-width="12.443" stroke="rgb(33,33,33)" fill="none" stroke-linecap="round"></path><path d="M 114.857,212.987 C 110.466,221.012 110.902,221.317 105.833,228.906" stroke-width="11.792" stroke="rgb(33,33,33)" fill="none" stroke-linecap="round"></path><path d="M 105.833,228.906 C 100.509,236.877 99.710,236.331 94.070,244.106" stroke-width="11.163" stroke="rgb(33,33,33)" fill="none" stroke-linecap="round"></path><path d="M 94.070,244.106 C 88.769,251.415 89.454,251.940 83.951,259.074" stroke-width="10.788" stroke="rgb(33,33,33)" fill="none" stroke-linecap="round"></path><path d="M 83.951,259.074 C 79.902,264.323 79.448,263.964 74.966,268.873" stroke-width="10.996" stroke="rgb(33,33,33)" fill="none" stroke-linecap="round"></path><path d="M 74.966,268.873 C 71.423,272.753 71.432,272.762 67.900,276.652" stroke-width="11.221" stroke="rgb(33,33,33)" fill="none" stroke-linecap="round"></path><path d="M 67.900,276.652 C 65.705,279.070 65.636,279.012 63.511,281.489" stroke-width="11.700" stroke="rgb(33,33,33)" fill="none" stroke-linecap="round"></path><path d="M 63.511,281.489 C 62.276,282.929 62.311,282.962 61.181,284.486" stroke-width="12.518" stroke="rgb(33,33,33)" fill="none" stroke-linecap="round"></path><path d="M 61.181,284.486 C 60.642,285.212 60.659,285.226 60.172,285.989" stroke-width="13.351" stroke="rgb(33,33,33)" fill="none" stroke-linecap="round"></path><path d="M 60.172,285.989 C 59.902,286.412 59.838,286.402 59.667,286.858" stroke-width="14.201" stroke="rgb(33,33,33)" fill="none" stroke-linecap="round"></path><path d="M 137.000,154.000 C 137.485,159.507 137.507,159.505 137.971,165.013" stroke-width="19.662" stroke="rgb(33,33,33)" fill="none" stroke-linecap="round"></path><path d="M 137.971,165.013 C 138.323,169.182 138.206,169.194 138.632,173.355" stroke-width="16.999" stroke="rgb(33,33,33)" fill="none" stroke-linecap="round"></path><path d="M 138.632,173.355 C 138.952,176.484 139.025,176.477 139.462,179.593" stroke-width="16.371" stroke="rgb(33,33,33)" fill="none" stroke-linecap="round"></path><path d="M 139.462,179.593 C 139.965,183.177 140.027,183.169 140.512,186.755" stroke-width="15.456" stroke="rgb(33,33,33)" fill="none" stroke-linecap="round"></path><path d="M 140.512,186.755 C 140.990,190.284 140.846,190.305 141.388,193.824" stroke-width="14.562" stroke="rgb(33,33,33)" fill="none" stroke-linecap="round"></path><path d="M 141.388,193.824 C 141.996,197.767 142.019,197.768 142.812,201.678" stroke-width="11.831" stroke="rgb(33,33,33)" fill="none" stroke-linecap="round"></path><path d="M 142.812,201.678 C 143.566,205.397 143.412,205.458 144.483,209.083" stroke-width="12.122" stroke="rgb(33,33,33)" fill="none" stroke-linecap="round"></path><path d="M 144.483,209.083 C 145.048,210.995 144.889,213.579 146.085,212.752" stroke-width="13.081" stroke="rgb(33,33,33)" fill="none" stroke-linecap="round"></path><path d="M 146.085,212.752 C 150.658,209.590 153.283,207.965 156.020,201.106" stroke-width="6.820" stroke="rgb(33,33,33)" fill="none" stroke-linecap="round"></path><path d="M 156.020,201.106 C 160.118,190.835 157.924,189.805 159.754,178.492" stroke-width="7.029" stroke="rgb(33,33,33)" fill="none" stroke-linecap="round"></path><path d="M 159.754,178.492 C 161.235,169.337 161.056,169.306 162.642,160.171" stroke-width="7.500" stroke="rgb(33,33,33)" fill="none" stroke-linecap="round"></path><path d="M 162.642,160.171 C 163.705,154.047 163.754,154.052 165.053,147.973" stroke-width="7.888" stroke="rgb(33,33,33)" fill="none" stroke-linecap="round"></path><path d="M 165.053,147.973 C 165.863,144.182 165.911,144.190 166.861,140.432" stroke-width="8.686" stroke="rgb(33,33,33)" fill="none" stroke-linecap="round"></path><path d="M 166.861,140.432 C 167.218,139.018 167.369,139.052 167.667,137.628" stroke-width="9.662" stroke="rgb(33,33,33)" fill="none" stroke-linecap="round"></path><path d="M 167.667,137.628 C 167.938,136.336 167.704,136.162 168.000,135.000" stroke-width="10.561" stroke="rgb(33,33,33)" fill="none" stroke-linecap="round"></path><path d="M 168.000,135.000 C 168.037,134.854 168.231,135.113 168.333,135.011" stroke-width="11.653" stroke="rgb(33,33,33)" fill="none" stroke-linecap="round"></path><path d="M 168.333,135.011 C 168.570,134.774 168.762,134.578 168.678,134.322" stroke-width="12.646" stroke="rgb(33,33,33)" fill="none" stroke-linecap="round"></path><path d="M 168.678,134.322 C 168.596,134.073 168.001,133.729 168.000,134.000" stroke-width="13.601" stroke="rgb(33,33,33)" fill="none" stroke-linecap="round"></path><path d="M 168.000,134.000 C 167.996,135.210 168.641,135.615 168.667,137.285" stroke-width="14.103" stroke="rgb(33,33,33)" fill="none" stroke-linecap="round"></path><path d="M 168.667,137.285 C 168.792,145.159 168.745,145.200 168.302,153.087" stroke-width="13.196" stroke="rgb(33,33,33)" fill="none" stroke-linecap="round"></path><path d="M 168.302,153.087 C 167.778,162.421 167.367,162.397 166.734,171.727" stroke-width="11.947" stroke="rgb(33,33,33)" fill="none" stroke-linecap="round"></path><path d="M 166.734,171.727 C 166.216,179.354 166.185,179.359 166.000,187.000" stroke-width="11.733" stroke="rgb(33,33,33)" fill="none" stroke-linecap="round"></path><path d="M 166.000,187.000 C 165.818,194.496 165.952,194.500 166.000,202.000" stroke-width="11.794" stroke="rgb(33,33,33)" fill="none" stroke-linecap="round"></path><path d="M 166.000,202.000 C 166.053,210.130 165.879,210.140 166.202,218.260" stroke-width="10.978" stroke="rgb(33,33,33)" fill="none" stroke-linecap="round"></path><path d="M 166.202,218.260 C 166.442,224.309 166.496,224.318 167.126,230.338" stroke-width="11.137" stroke="rgb(33,33,33)" fill="none" stroke-linecap="round"></path><path d="M 167.126,230.338 C 167.524,234.141 167.755,234.114 168.257,237.906" stroke-width="11.570" stroke="rgb(33,33,33)" fill="none" stroke-linecap="round"></path><path d="M 168.257,237.906 C 168.830,242.239 168.909,242.236 169.276,246.590" stroke-width="11.930" stroke="rgb(33,33,33)" fill="none" stroke-linecap="round"></path><path d="M 169.276,246.590 C 169.614,250.611 169.565,250.621 169.667,254.656" stroke-width="12.251" stroke="rgb(33,33,33)" fill="none" stroke-linecap="round"></path><path d="M 169.667,254.656 C 169.760,258.319 170.042,258.363 169.667,261.986" stroke-width="12.547" stroke="rgb(33,33,33)" fill="none" stroke-linecap="round"></path><path d="M 169.667,261.986 C 169.341,265.139 169.252,265.188 168.264,268.209" stroke-width="12.847" stroke="rgb(33,33,33)" fill="none" stroke-linecap="round"></path><path d="M 168.264,268.209 C 167.004,272.064 167.108,272.187 165.172,275.738" stroke-width="13.220" stroke="rgb(33,33,33)" fill="none" stroke-linecap="round"></path><path d="M 165.172,275.738 C 163.278,279.212 163.146,279.213 160.605,282.260" stroke-width="13.331" stroke="rgb(33,33,33)" fill="none" stroke-linecap="round"></path><path d="M 160.605,282.260 C 157.901,285.503 157.660,285.305 154.682,288.318" stroke-width="12.904" stroke="rgb(33,33,33)" fill="none" stroke-linecap="round"></path><path d="M 154.682,288.318 C 151.929,291.104 151.937,291.112 149.143,293.857" stroke-width="13.128" stroke="rgb(33,33,33)" fill="none" stroke-linecap="round"></path><path d="M 149.143,293.857 C 146.521,296.434 146.514,296.427 143.850,298.961" stroke-width="13.318" stroke="rgb(33,33,33)" fill="none" stroke-linecap="round"></path><path d="M 143.850,298.961 C 141.344,301.345 141.325,301.326 138.803,303.693" stroke-width="13.474" stroke="rgb(33,33,33)" fill="none" stroke-linecap="round"></path><path d="M 138.803,303.693 C 137.439,304.973 137.462,304.999 136.077,306.256" stroke-width="14.065" stroke="rgb(33,33,33)" fill="none" stroke-linecap="round"></path><path d="M 136.077,306.256 C 135.402,306.869 135.325,306.791 134.683,307.433" stroke-width="14.697" stroke="rgb(33,33,33)" fill="none" stroke-linecap="round"></path><path d="M 134.683,307.433 C 134.173,307.943 134.287,308.059 133.772,308.561" stroke-width="15.349" stroke="rgb(33,33,33)" fill="none" stroke-linecap="round"></path><path d="M 133.772,308.561 C 133.348,308.975 133.229,308.854 132.805,309.264" stroke-width="15.951" stroke="rgb(33,33,33)" fill="none" stroke-linecap="round"></path><path d="M 132.805,309.264 C 132.509,309.550 132.620,309.690 132.333,309.952" stroke-width="16.545" stroke="rgb(33,33,33)" fill="none" stroke-linecap="round"></path><path d="M 132.333,309.952 C 132.217,310.058 131.987,310.151 132.000,310.000" stroke-width="17.084" stroke="rgb(33,33,33)" fill="none" stroke-linecap="round"></path><path d="M 132.000,310.000 C 132.156,308.164 131.771,307.784 132.671,305.977" stroke-width="16.966" stroke="rgb(33,33,33)" fill="none" stroke-linecap="round"></path><path d="M 132.671,305.977 C 136.620,298.045 136.644,297.878 141.698,290.521" stroke-width="14.831" stroke="rgb(33,33,33)" fill="none" stroke-linecap="round"></path><path d="M 141.698,290.521 C 146.749,283.168 147.241,283.500 152.881,276.558" stroke-width="13.228" stroke="rgb(33,33,33)" fill="none" stroke-linecap="round"></path><path d="M 152.881,276.558 C 159.442,268.482 159.286,268.344 166.100,260.484" stroke-width="12.319" stroke="rgb(33,33,33)" fill="none" stroke-linecap="round"></path><path d="M 166.100,260.484 C 172.397,253.220 172.660,253.450 179.103,246.311" stroke-width="11.431" stroke="rgb(33,33,33)" fill="none" stroke-linecap="round"></path><path d="M 179.103,246.311 C 183.772,241.138 183.638,241.016 188.324,235.859" stroke-width="11.304" stroke="rgb(33,33,33)" fill="none" stroke-linecap="round"></path><path d="M 188.324,235.859 C 191.558,232.300 191.710,232.438 194.943,228.878" stroke-width="11.741" stroke="rgb(33,33,33)" fill="none" stroke-linecap="round"></path><path d="M 194.943,228.878 C 197.783,225.750 197.764,225.728 200.470,222.484" stroke-width="11.769" stroke="rgb(33,33,33)" fill="none" stroke-linecap="round"></path><path d="M 200.470,222.484 C 202.085,220.548 202.041,220.511 203.586,218.518" stroke-width="12.379" stroke="rgb(33,33,33)" fill="none" stroke-linecap="round"></path><path d="M 203.586,218.518 C 204.630,217.172 204.611,217.157 205.647,215.805" stroke-width="13.094" stroke="rgb(33,33,33)" fill="none" stroke-linecap="round"></path><path d="M 205.647,215.805 C 206.272,214.989 206.352,215.040 206.909,214.182" stroke-width="13.900" stroke="rgb(33,33,33)" fill="none" stroke-linecap="round"></path><path d="M 206.909,214.182 C 207.336,213.523 207.203,213.441 207.614,212.771" stroke-width="14.590" stroke="rgb(33,33,33)" fill="none" stroke-linecap="round"></path><path d="M 207.614,212.771 C 208.069,212.029 208.257,212.127 208.641,211.359" stroke-width="15.184" stroke="rgb(33,33,33)" fill="none" stroke-linecap="round"></path><path d="M 208.641,211.359 C 208.950,210.741 208.848,210.686 209.000,210.000" stroke-width="15.824" stroke="rgb(33,33,33)" fill="none" stroke-linecap="round"></path><path d="M 209.000,210.000 C 209.194,209.120 209.223,209.119 209.333,208.228" stroke-width="16.151" stroke="rgb(33,33,33)" fill="none" stroke-linecap="round"></path><path d="M 209.333,208.228 C 209.390,207.766 209.333,207.760 209.333,207.293" stroke-width="16.670" stroke="rgb(33,33,33)" fill="none" stroke-linecap="round"></path><path d="M 209.333,207.293 C 209.333,206.754 209.333,206.754 209.333,206.215" stroke-width="17.106" stroke="rgb(33,33,33)" fill="none" stroke-linecap="round"></path><path d="M 209.333,206.215 C 209.333,205.885 209.333,205.885 209.333,205.554" stroke-width="17.520" stroke="rgb(33,33,33)" fill="none" stroke-linecap="round"></path><path d="M 209.333,205.554 C 209.333,205.329 209.429,205.287 209.333,205.104" stroke-width="17.916" stroke="rgb(33,33,33)" fill="none" stroke-linecap="round"></path><path d="M 209.333,205.104 C 209.197,204.844 209.116,204.866 208.868,204.667" stroke-width="18.222" stroke="rgb(33,33,33)" fill="none" stroke-linecap="round"></path><path d="M 208.868,204.667 C 208.533,204.398 208.561,204.308 208.167,204.167" stroke-width="18.400" stroke="rgb(33,33,33)" fill="none" stroke-linecap="round"></path><path d="M 208.167,204.167 C 207.627,203.974 207.553,204.165 207.000,204.000" stroke-width="18.455" stroke="rgb(33,33,33)" fill="none" stroke-linecap="round"></path><path d="M 207.000,204.000 C 206.716,203.915 206.779,203.726 206.494,203.667" stroke-width="18.665" stroke="rgb(33,33,33)" fill="none" stroke-linecap="round"></path><path d="M 206.494,203.667 C 205.979,203.560 205.947,203.667 205.400,203.667" stroke-width="18.722" stroke="rgb(33,33,33)" fill="none" stroke-linecap="round"></path><path d="M 205.400,203.667 C 205.052,203.667 205.052,203.667 204.704,203.667" stroke-width="18.896" stroke="rgb(33,33,33)" fill="none" stroke-linecap="round"></path><path d="M 204.704,203.667 C 204.374,203.667 204.304,203.494 204.045,203.667" stroke-width="18.995" stroke="rgb(33,33,33)" fill="none" stroke-linecap="round"></path><path d="M 204.045,203.667 C 203.266,204.189 203.203,204.258 202.628,205.058" stroke-width="18.816" stroke="rgb(33,33,33)" fill="none" stroke-linecap="round"></path><path d="M 202.628,205.058 C 201.457,206.686 201.327,206.681 200.553,208.523" stroke-width="18.268" stroke="rgb(33,33,33)" fill="none" stroke-linecap="round"></path><path d="M 200.553,208.523 C 199.814,210.283 200.001,210.376 199.601,212.262" stroke-width="17.791" stroke="rgb(33,33,33)" fill="none" stroke-linecap="round"></path><path d="M 199.601,212.262 C 199.188,214.205 199.197,214.212 198.927,216.180" stroke-width="17.632" stroke="rgb(33,33,33)" fill="none" stroke-linecap="round"></path><path d="M 198.927,216.180 C 198.672,218.039 198.614,218.044 198.550,219.916" stroke-width="17.587" stroke="rgb(33,33,33)" fill="none" stroke-linecap="round"></path><path d="M 198.550,219.916 C 198.484,221.869 198.167,221.970 198.667,223.830" stroke-width="17.664" stroke="rgb(33,33,33)" fill="none" stroke-linecap="round"></path><path d="M 198.667,223.830 C 199.510,226.963 199.563,227.141 201.236,229.903" stroke-width="17.310" stroke="rgb(33,33,33)" fill="none" stroke-linecap="round"></path><path d="M 201.236,229.903 C 202.092,231.316 202.299,231.324 203.725,232.180" stroke-width="17.189" stroke="rgb(33,33,33)" fill="none" stroke-linecap="round"></path><path d="M 203.725,232.180 C 205.750,233.396 205.819,234.422 208.138,234.046" stroke-width="17.561" stroke="rgb(33,33,33)" fill="none" stroke-linecap="round"></path><path d="M 208.138,234.046 C 226.273,231.106 226.447,229.986 244.633,225.547" stroke-width="10.357" stroke="rgb(33,33,33)" fill="none" stroke-linecap="round"></path><path d="M 244.633,225.547 C 245.848,225.251 245.783,225.052 246.940,224.576" stroke-width="11.318" stroke="rgb(33,33,33)" fill="none" stroke-linecap="round"></path><path d="M 246.940,224.576 C 247.796,224.224 247.857,224.328 248.659,223.891" stroke-width="12.240" stroke="rgb(33,33,33)" fill="none" stroke-linecap="round"></path><path d="M 248.659,223.891 C 249.121,223.639 249.035,223.501 249.469,223.197" stroke-width="13.183" stroke="rgb(33,33,33)" fill="none" stroke-linecap="round"></path><path d="M 249.469,223.197 C 249.786,222.975 249.894,223.106 250.161,222.839" stroke-width="14.102" stroke="rgb(33,33,33)" fill="none" stroke-linecap="round"></path><path d="M 250.161,222.839 C 250.585,222.415 250.466,222.293 250.852,221.814" stroke-width="14.843" stroke="rgb(33,33,33)" fill="none" stroke-linecap="round"></path><path d="M 250.852,221.814 C 251.157,221.435 251.284,221.524 251.544,221.123" stroke-width="15.582" stroke="rgb(33,33,33)" fill="none" stroke-linecap="round"></path><path d="M 251.544,221.123 C 251.809,220.715 251.711,220.655 251.902,220.196" stroke-width="16.183" stroke="rgb(33,33,33)" fill="none" stroke-linecap="round"></path><path d="M 251.902,220.196 C 252.068,219.798 252.115,219.816 252.257,219.410" stroke-width="16.563" stroke="rgb(33,33,33)" fill="none" stroke-linecap="round"></path><path d="M 252.257,219.410 C 252.472,218.795 252.505,218.793 252.615,218.154" stroke-width="16.921" stroke="rgb(33,33,33)" fill="none" stroke-linecap="round"></path><path d="M 252.615,218.154 C 252.710,217.602 252.653,217.591 252.667,217.027" stroke-width="17.318" stroke="rgb(33,33,33)" fill="none" stroke-linecap="round"></path><path d="M 252.667,217.027 C 252.679,216.514 252.667,216.514 252.667,216.001" stroke-width="17.607" stroke="rgb(33,33,33)" fill="none" stroke-linecap="round"></path><path d="M 252.667,216.001 C 252.667,215.653 252.667,215.653 252.667,215.304" stroke-width="17.940" stroke="rgb(33,33,33)" fill="none" stroke-linecap="round"></path><path d="M 252.667,215.304 C 252.667,214.960 252.667,214.960 252.667,214.615" stroke-width="18.250" stroke="rgb(33,33,33)" fill="none" stroke-linecap="round"></path><path d="M 252.667,214.615 C 252.667,214.271 252.667,214.271 252.667,213.928" stroke-width="18.406" stroke="rgb(33,33,33)" fill="none" stroke-linecap="round"></path><path d="M 252.667,213.928 C 252.667,213.581 252.785,213.537 252.667,213.234" stroke-width="18.702" stroke="rgb(33,33,33)" fill="none" stroke-linecap="round"></path><path d="M 252.667,213.234 C 252.539,212.907 252.456,212.876 252.176,212.667" stroke-width="18.142" stroke="rgb(33,33,33)" fill="none" stroke-linecap="round"></path><path d="M 252.176,212.667 C 252.076,212.593 252.042,212.667 251.909,212.667" stroke-width="18.468" stroke="rgb(33,33,33)" fill="none" stroke-linecap="round"></path><path d="M 251.909,212.667 C 251.688,212.667 251.666,212.586 251.466,212.667" stroke-width="18.628" stroke="rgb(33,33,33)" fill="none" stroke-linecap="round"></path><path d="M 251.466,212.667 C 250.904,212.894 250.779,212.814 250.384,213.283" stroke-width="18.690" stroke="rgb(33,33,33)" fill="none" stroke-linecap="round"></path><path d="M 250.384,213.283 C 248.722,215.259 248.745,215.346 247.353,217.558" stroke-width="17.945" stroke="rgb(33,33,33)" fill="none" stroke-linecap="round"></path><path d="M 247.353,217.558 C 246.583,218.781 246.780,218.899 246.061,220.152" stroke-width="17.842" stroke="rgb(33,33,33)" fill="none" stroke-linecap="round"></path><path d="M 246.061,220.152 C 245.615,220.929 245.455,220.841 245.024,221.619" stroke-width="18.043" stroke="rgb(33,33,33)" fill="none" stroke-linecap="round"></path><path d="M 245.024,221.619 C 244.757,222.100 244.870,222.154 244.665,222.669" stroke-width="18.162" stroke="rgb(33,33,33)" fill="none" stroke-linecap="round"></path><path d="M 244.665,222.669 C 244.524,223.023 244.571,223.136 244.333,223.357" stroke-width="18.384" stroke="rgb(33,33,33)" fill="none" stroke-linecap="round"></path><path d="M 244.333,223.357 C 244.213,223.468 243.983,223.515 243.948,223.333" stroke-width="18.634" stroke="rgb(33,33,33)" fill="none" stroke-linecap="round"></path><path d="M 243.948,223.333 C 243.265,219.817 243.613,219.607 242.896,215.960" stroke-width="18.191" stroke="rgb(33,33,33)" fill="none" stroke-linecap="round"></path><path d="M 242.896,215.960 C 242.346,213.166 242.204,213.191 241.414,210.451" stroke-width="17.429" stroke="rgb(33,33,33)" fill="none" stroke-linecap="round"></path><path d="M 241.414,210.451 C 240.846,208.481 240.907,208.449 240.180,206.540" stroke-width="17.329" stroke="rgb(33,33,33)" fill="none" stroke-linecap="round"></path><path d="M 240.180,206.540 C 239.866,205.716 239.841,205.699 239.333,204.985" stroke-width="17.246" stroke="rgb(33,33,33)" fill="none" stroke-linecap="round"></path><path d="M 239.333,204.985 C 238.987,204.498 238.996,204.360 238.472,204.139" stroke-width="17.604" stroke="rgb(33,33,33)" fill="none" stroke-linecap="round"></path><path d="M 238.472,204.139 C 237.830,203.868 237.737,204.041 237.000,204.000" stroke-width="17.764" stroke="rgb(33,33,33)" fill="none" stroke-linecap="round"></path><path d="M 237.000,204.000 C 236.501,203.972 236.500,204.000 236.000,204.000" stroke-width="18.056" stroke="rgb(33,33,33)" fill="none" stroke-linecap="round"></path><path d="M 236.000,204.000 C 238.092,203.844 238.220,204.316 240.184,203.688" stroke-width="18.248" stroke="rgb(33,33,33)" fill="none" stroke-linecap="round"></path><path d="M 240.184,203.688 C 243.320,202.686 243.258,202.334 246.200,200.741" stroke-width="17.424" stroke="rgb(33,33,33)" fill="none" stroke-linecap="round"></path><path d="M 246.200,200.741 C 248.645,199.417 248.540,199.227 250.958,197.854" stroke-width="16.746" stroke="rgb(33,33,33)" fill="none" stroke-linecap="round"></path><path d="M 250.958,197.854 C 252.554,196.947 252.608,197.046 254.228,196.181" stroke-width="16.936" stroke="rgb(33,33,33)" fill="none" stroke-linecap="round"></path><path d="M 254.228,196.181 C 255.069,195.732 255.026,195.642 255.880,195.227" stroke-width="17.156" stroke="rgb(33,33,33)" fill="none" stroke-linecap="round"></path><path d="M 255.880,195.227 C 256.385,194.982 256.428,195.079 256.946,194.860" stroke-width="17.451" stroke="rgb(33,33,33)" fill="none" stroke-linecap="round"></path><path d="M 256.946,194.860 C 257.484,194.632 257.442,194.485 257.991,194.333" stroke-width="17.685" stroke="rgb(33,33,33)" fill="none" stroke-linecap="round"></path><path d="M 257.991,194.333 C 258.392,194.222 258.492,194.449 258.845,194.333" stroke-width="17.983" stroke="rgb(33,33,33)" fill="none" stroke-linecap="round"></path><path d="M 258.845,194.333 C 258.997,194.283 258.845,194.045 259.000,194.000" stroke-width="18.313" stroke="rgb(33,33,33)" fill="none" stroke-linecap="round"></path><path d="M 259.000,194.000 C 259.422,193.878 259.634,193.754 260.000,194.000" stroke-width="18.458" stroke="rgb(33,33,33)" fill="none" stroke-linecap="round"></path><path d="M 260.000,194.000 C 260.513,194.344 260.519,194.527 260.757,195.180" stroke-width="18.536" stroke="rgb(33,33,33)" fill="none" stroke-linecap="round"></path><path d="M 260.757,195.180 C 261.478,197.155 261.355,197.214 261.918,199.257" stroke-width="17.692" stroke="rgb(33,33,33)" fill="none" stroke-linecap="round"></path><path d="M 261.918,199.257 C 262.461,201.227 262.392,201.247 262.968,203.206" stroke-width="17.400" stroke="rgb(33,33,33)" fill="none" stroke-linecap="round"></path><path d="M 262.968,203.206 C 263.430,204.779 263.446,204.777 263.994,206.322" stroke-width="17.528" stroke="rgb(33,33,33)" fill="none" stroke-linecap="round"></path><path d="M 263.994,206.322 C 264.296,207.174 264.347,207.156 264.667,208.001" stroke-width="17.542" stroke="rgb(33,33,33)" fill="none" stroke-linecap="round"></path><path d="M 264.667,208.001 C 264.869,208.534 264.748,208.608 265.039,209.079" stroke-width="17.766" stroke="rgb(33,33,33)" fill="none" stroke-linecap="round"></path><path d="M 265.039,209.079 C 265.285,209.477 265.283,209.655 265.740,209.740" stroke-width="18.018" stroke="rgb(33,33,33)" fill="none" stroke-linecap="round"></path><path d="M 265.740,209.740 C 267.764,210.116 268.062,210.796 270.000,210.000" stroke-width="18.337" stroke="rgb(33,33,33)" fill="none" stroke-linecap="round"></path><path d="M 270.000,210.000 C 280.579,205.658 284.074,197.716 290.774,199.464" stroke-width="15.383" stroke="rgb(33,33,33)" fill="none" stroke-linecap="round"></path><path d="M 290.774,199.464 C 295.574,200.716 292.300,207.695 293.000,216.000" stroke-width="15.310" stroke="rgb(33,33,33)" fill="none" stroke-linecap="round"></path><path d="M 293.000,216.000 C 293.841,225.975 293.802,226.015 293.855,236.023" stroke-width="13.975" stroke="rgb(33,33,33)" fill="none" stroke-linecap="round"></path><path d="M 293.855,236.023 C 293.884,241.523 293.623,241.529 293.165,247.015" stroke-width="13.831" stroke="rgb(33,33,33)" fill="none" stroke-linecap="round"></path><path d="M 293.165,247.015 C 292.832,251.004 293.006,251.051 292.272,254.974" stroke-width="11.971" stroke="rgb(33,33,33)" fill="none" stroke-linecap="round"></path><path d="M 292.272,254.974 C 291.661,258.235 291.629,258.276 290.475,261.384" stroke-width="12.568" stroke="rgb(33,33,33)" fill="none" stroke-linecap="round"></path><path d="M 290.475,261.384 C 289.526,263.940 289.417,263.928 288.066,266.302" stroke-width="13.066" stroke="rgb(33,33,33)" fill="none" stroke-linecap="round"></path><path d="M 288.066,266.302 C 286.950,268.264 286.890,268.247 285.541,270.056" stroke-width="13.364" stroke="rgb(33,33,33)" fill="none" stroke-linecap="round"></path><path d="M 285.541,270.056 C 284.908,270.904 284.908,270.938 284.102,271.616" stroke-width="14.116" stroke="rgb(33,33,33)" fill="none" stroke-linecap="round"></path><path d="M 284.102,271.616 C 283.187,272.385 283.175,272.461 282.098,272.951" stroke-width="14.677" stroke="rgb(33,33,33)" fill="none" stroke-linecap="round"></path><path d="M 282.098,272.951 C 281.288,273.320 281.176,273.424 280.327,273.333" stroke-width="15.296" stroke="rgb(33,33,33)" fill="none" stroke-linecap="round"></path><path d="M 280.327,273.333 C 279.583,273.253 279.231,273.300 278.913,272.609" stroke-width="15.847" stroke="rgb(33,33,33)" fill="none" stroke-linecap="round"></path><path d="M 278.913,272.609 C 277.348,269.205 277.336,268.956 276.562,265.143" stroke-width="15.340" stroke="rgb(33,33,33)" fill="none" stroke-linecap="round"></path><path d="M 276.562,265.143 C 275.839,261.583 276.076,261.509 275.920,257.863" stroke-width="15.143" stroke="rgb(33,33,33)" fill="none" stroke-linecap="round"></path><path d="M 275.920,257.863 C 275.795,254.938 275.658,254.878 276.000,252.000" stroke-width="14.960" stroke="rgb(33,33,33)" fill="none" stroke-linecap="round"></path><path d="M 276.000,252.000 C 276.165,250.614 276.526,250.683 276.933,249.334" stroke-width="15.386" stroke="rgb(33,33,33)" fill="none" stroke-linecap="round"></path><path d="M 276.933,249.334 C 277.102,248.773 276.940,248.713 277.152,248.181" stroke-width="16.013" stroke="rgb(33,33,33)" fill="none" stroke-linecap="round"></path><path d="M 277.152,248.181 C 277.307,247.791 277.443,247.857 277.667,247.491" stroke-width="16.581" stroke="rgb(33,33,33)" fill="none" stroke-linecap="round"></path><path d="M 277.667,247.491 C 277.969,246.998 278.087,246.982 278.203,246.463" stroke-width="16.902" stroke="rgb(33,33,33)" fill="none" stroke-linecap="round"></path><path d="M 278.203,246.463 C 278.254,246.237 277.895,246.193 278.000,246.000" stroke-width="17.396" stroke="rgb(33,33,33)" fill="none" stroke-linecap="round"></path><path d="M 278.000,246.000 C 278.294,245.461 278.500,245.500 279.000,245.000" stroke-width="17.708" stroke="rgb(33,33,33)" fill="none" stroke-linecap="round"></path><path d="M 279.000,245.000 C 279.584,244.416 279.586,244.418 280.168,243.832" stroke-width="17.787" stroke="rgb(33,33,33)" fill="none" stroke-linecap="round"></path><path d="M 280.168,243.832 C 282.117,241.868 282.222,241.962 284.061,239.900" stroke-width="17.275" stroke="rgb(33,33,33)" fill="none" stroke-linecap="round"></path><path d="M 284.061,239.900 C 286.249,237.446 286.156,237.361 288.223,234.799" stroke-width="16.523" stroke="rgb(33,33,33)" fill="none" stroke-linecap="round"></path><path d="M 288.223,234.799 C 290.352,232.160 290.410,232.201 292.454,229.498" stroke-width="15.761" stroke="rgb(33,33,33)" fill="none" stroke-linecap="round"></path><path d="M 292.454,229.498 C 293.546,228.054 293.391,227.931 294.496,226.504" stroke-width="16.080" stroke="rgb(33,33,33)" fill="none" stroke-linecap="round"></path><path d="M 294.496,226.504 C 295.024,225.822 295.232,225.971 295.720,225.280" stroke-width="16.456" stroke="rgb(33,33,33)" fill="none" stroke-linecap="round"></path><path d="M 295.720,225.280 C 296.032,224.838 295.854,224.734 296.095,224.239" stroke-width="16.886" stroke="rgb(33,33,33)" fill="none" stroke-linecap="round"></path><path d="M 296.095,224.239 C 296.368,223.678 296.400,223.688 296.749,223.169" stroke-width="17.218" stroke="rgb(33,33,33)" fill="none" stroke-linecap="round"></path><path d="M 296.749,223.169 C 296.928,222.902 296.958,222.924 297.152,222.667" stroke-width="17.645" stroke="rgb(33,33,33)" fill="none" stroke-linecap="round"></path><path d="M 297.152,222.667 C 297.346,222.411 297.379,222.425 297.524,222.143" stroke-width="17.982" stroke="rgb(33,33,33)" fill="none" stroke-linecap="round"></path><path d="M 297.524,222.143 C 297.636,221.925 297.583,221.901 297.667,221.667" stroke-width="18.276" stroke="rgb(33,33,33)" fill="none" stroke-linecap="round"></path><path d="M 297.667,221.667 C 297.770,221.380 297.839,221.398 297.898,221.102" stroke-width="18.535" stroke="rgb(33,33,33)" fill="none" stroke-linecap="round"></path><path d="M 297.898,221.102 C 298.005,220.565 297.905,220.544 298.000,220.000" stroke-width="18.581" stroke="rgb(33,33,33)" fill="none" stroke-linecap="round"></path><path d="M 298.000,220.000 C 298.244,218.600 298.341,218.616 298.576,217.213" stroke-width="18.379" stroke="rgb(33,33,33)" fill="none" stroke-linecap="round"></path><path d="M 298.576,217.213 C 298.996,214.698 298.844,214.670 299.310,212.164" stroke-width="17.617" stroke="rgb(33,33,33)" fill="none" stroke-linecap="round"></path><path d="M 299.310,212.164 C 299.757,209.760 299.980,209.801 300.402,207.394" stroke-width="17.091" stroke="rgb(33,33,33)" fill="none" stroke-linecap="round"></path><path d="M 300.402,207.394 C 300.856,204.804 300.754,204.785 301.062,202.171" stroke-width="17.380" stroke="rgb(33,33,33)" fill="none" stroke-linecap="round"></path><path d="M 301.062,202.171 C 302.220,192.339 302.478,192.352 303.333,182.501" stroke-width="14.835" stroke="rgb(33,33,33)" fill="none" stroke-linecap="round"></path><path d="M 303.333,182.501 C 303.614,179.263 303.333,179.247 303.333,175.993" stroke-width="15.109" stroke="rgb(33,33,33)" fill="none" stroke-linecap="round"></path><path d="M 303.333,175.993 C 303.333,174.401 303.333,174.401 303.333,172.810" stroke-width="14.980" stroke="rgb(33,33,33)" fill="none" stroke-linecap="round"></path><path d="M 303.333,172.810 C 303.333,172.137 303.450,172.099 303.333,171.463" stroke-width="15.630" stroke="rgb(33,33,33)" fill="none" stroke-linecap="round"></path><path d="M 303.333,171.463 C 303.283,171.194 303.167,171.232 303.000,171.000" stroke-width="16.262" stroke="rgb(33,33,33)" fill="none" stroke-linecap="round"></path><path d="M 303.000,171.000 C 303.000,171.000 303.000,171.000 303.000,171.000" stroke-width="16.929" stroke="rgb(33,33,33)" fill="none" stroke-linecap="round"></path><path d="M 303.000,171.000 C 303.167,171.936 303.119,171.946 303.333,172.871" stroke-width="16.594" stroke="rgb(33,33,33)" fill="none" stroke-linecap="round"></path><path d="M 303.333,172.871 C 303.870,175.197 303.723,175.247 304.501,177.503" stroke-width="16.978" stroke="rgb(33,33,33)" fill="none" stroke-linecap="round"></path><path d="M 304.501,177.503 C 308.024,187.716 308.363,187.609 311.936,197.809" stroke-width="14.376" stroke="rgb(33,33,33)" fill="none" stroke-linecap="round"></path><path d="M 311.936,197.809 C 312.801,200.279 312.537,200.368 313.378,202.844" stroke-width="14.240" stroke="rgb(33,33,33)" fill="none" stroke-linecap="round"></path><path d="M 313.378,202.844 C 313.983,204.625 314.180,204.557 314.828,206.323" stroke-width="14.679" stroke="rgb(33,33,33)" fill="none" stroke-linecap="round"></path><path d="M 314.828,206.323 C 315.223,207.399 315.116,207.436 315.464,208.529" stroke-width="15.326" stroke="rgb(33,33,33)" fill="none" stroke-linecap="round"></path><path d="M 315.464,208.529 C 315.702,209.274 315.753,209.257 316.000,210.000" stroke-width="15.675" stroke="rgb(33,33,33)" fill="none" stroke-linecap="round"></path><path d="M 316.000,210.000 C 316.188,210.566 316.093,210.609 316.333,211.146" stroke-width="16.243" stroke="rgb(33,33,33)" fill="none" stroke-linecap="round"></path><path d="M 316.333,211.146 C 316.498,211.514 316.566,211.482 316.810,211.810" stroke-width="16.628" stroke="rgb(33,33,33)" fill="none" stroke-linecap="round"></path><path d="M 316.810,211.810 C 317.066,212.155 316.998,212.680 317.333,212.493" stroke-width="17.066" stroke="rgb(33,33,33)" fill="none" stroke-linecap="round"></path><path d="M 317.333,212.493 C 319.892,211.062 321.213,211.437 322.598,208.574" stroke-width="17.378" stroke="rgb(33,33,33)" fill="none" stroke-linecap="round"></path><path d="M 322.598,208.574 C 327.649,198.135 327.146,197.418 330.205,185.888" stroke-width="14.889" stroke="rgb(33,33,33)" fill="none" stroke-linecap="round"></path><path d="M 330.205,185.888 C 332.342,177.833 332.008,177.695 332.989,169.405" stroke-width="14.430" stroke="rgb(33,33,33)" fill="none" stroke-linecap="round"></path><path d="M 332.989,169.405 C 333.924,161.502 333.890,161.462 334.038,153.502" stroke-width="12.076" stroke="rgb(33,33,33)" fill="none" stroke-linecap="round"></path><path d="M 334.038,153.502 C 334.206,144.521 334.355,144.477 333.621,135.523" stroke-width="12.515" stroke="rgb(33,33,33)" fill="none" stroke-linecap="round"></path><path d="M 333.621,135.523 C 332.258,118.906 332.034,118.875 329.843,102.360" stroke-width="9.637" stroke="rgb(33,33,33)" fill="none" stroke-linecap="round"></path><path d="M 329.843,102.360 C 329.626,100.724 329.266,100.806 328.805,99.221" stroke-width="10.570" stroke="rgb(33,33,33)" fill="none" stroke-linecap="round"></path><path d="M 328.805,99.221 C 328.570,98.411 328.596,98.400 328.451,97.569" stroke-width="11.585" stroke="rgb(33,33,33)" fill="none" stroke-linecap="round"></path><path d="M 328.451,97.569 C 328.360,97.048 328.424,97.037 328.333,96.516" stroke-width="12.503" stroke="rgb(33,33,33)" fill="none" stroke-linecap="round"></path><path d="M 328.333,96.516 C 328.199,95.753 328.167,95.758 328.000,95.000" stroke-width="13.412" stroke="rgb(33,33,33)" fill="none" stroke-linecap="round"></path><path d="M 328.000,95.000 C 328.000,95.000 328.000,95.000 328.000,95.000" stroke-width="14.384" stroke="rgb(33,33,33)" fill="none" stroke-linecap="round"></path><path d="M 328.000,95.000 C 327.500,95.000 327.037,94.537 327.000,95.000" stroke-width="15.154" stroke="rgb(33,33,33)" fill="none" stroke-linecap="round"></path><path d="M 327.000,95.000 C 326.535,100.768 327.126,101.233 326.996,107.462" stroke-width="14.530" stroke="rgb(33,33,33)" fill="none" stroke-linecap="round"></path><path d="M 326.996,107.462 C 326.775,118.076 326.466,118.071 326.298,128.686" stroke-width="12.134" stroke="rgb(33,33,33)" fill="none" stroke-linecap="round"></path><path d="M 326.298,128.686 C 326.135,139.007 326.542,139.014 326.333,149.333" stroke-width="11.293" stroke="rgb(33,33,33)" fill="none" stroke-linecap="round"></path><path d="M 326.333,149.333 C 326.135,159.124 331.678,162.032 325.483,168.906" stroke-width="12.120" stroke="rgb(33,33,33)" fill="none" stroke-linecap="round"></path><path d="M 325.483,168.906 C 300.407,196.730 296.783,198.802 263.791,218.729" stroke-width="6.799" stroke="rgb(33,33,33)" fill="none" stroke-linecap="round"></path><path d="M 263.791,218.729 C 252.558,225.513 250.397,220.424 237.034,222.329" stroke-width="7.063" stroke="rgb(33,33,33)" fill="none" stroke-linecap="round"></path><path d="M 237.034,222.329 C 222.435,224.411 222.472,224.674 207.867,226.703" stroke-width="6.784" stroke="rgb(33,33,33)" fill="none" stroke-linecap="round"></path><path d="M 207.867,226.703 C 192.763,228.801 192.689,228.299 177.615,230.583" stroke-width="6.872" stroke="rgb(33,33,33)" fill="none" stroke-linecap="round"></path><path d="M 177.615,230.583 C 162.812,232.826 162.829,232.984 148.114,235.757" stroke-width="7.006" stroke="rgb(33,33,33)" fill="none" stroke-linecap="round"></path><path d="M 148.114,235.757 C 135.218,238.187 135.159,237.973 122.393,240.989" stroke-width="7.129" stroke="rgb(33,33,33)" fill="none" stroke-linecap="round"></path><path d="M 122.393,240.989 C 109.862,243.950 109.815,243.909 97.520,247.712" stroke-width="7.341" stroke="rgb(33,33,33)" fill="none" stroke-linecap="round"></path><path d="M 97.520,247.712 C 89.424,250.216 89.532,250.574 81.610,253.603" stroke-width="7.732" stroke="rgb(33,33,33)" fill="none" stroke-linecap="round"></path><path d="M 81.610,253.603 C 78.544,254.775 78.578,254.860 75.544,256.114" stroke-width="8.518" stroke="rgb(33,33,33)" fill="none" stroke-linecap="round"></path><path d="M 75.544,256.114 C 74.702,256.462 74.663,256.394 73.859,256.807" stroke-width="9.525" stroke="rgb(33,33,33)" fill="none" stroke-linecap="round"></path><path d="M 73.859,256.807 C 73.477,257.003 73.202,257.176 73.171,257.333" stroke-width="10.605" stroke="rgb(33,33,33)" fill="none" stroke-linecap="round"></path><path d="M 73.171,257.333 C 73.150,257.439 73.466,257.373 73.755,257.333" stroke-width="11.669" stroke="rgb(33,33,33)" fill="none" stroke-linecap="round"></path><path d="M 73.755,257.333 C 81.176,256.296 81.261,256.708 88.591,255.178" stroke-width="11.539" stroke="rgb(33,33,33)" fill="none" stroke-linecap="round"></path><path d="M 88.591,255.178 C 101.280,252.529 101.267,252.358 113.793,248.974" stroke-width="10.501" stroke="rgb(33,33,33)" fill="none" stroke-linecap="round"></path><path d="M 113.793,248.974 C 129.453,244.743 129.416,244.591 144.962,239.949" stroke-width="9.309" stroke="rgb(33,33,33)" fill="none" stroke-linecap="round"></path><path d="M 144.962,239.949 C 163.582,234.389 163.663,234.626 182.125,228.569" stroke-width="8.619" stroke="rgb(33,33,33)" fill="none" stroke-linecap="round"></path><path d="M 182.125,228.569 C 201.900,222.082 201.815,221.812 221.435,214.861" stroke-width="7.966" stroke="rgb(33,33,33)" fill="none" stroke-linecap="round"></path><path d="M 221.435,214.861 C 240.288,208.181 240.105,207.640 259.072,201.307" stroke-width="7.488" stroke="rgb(33,33,33)" fill="none" stroke-linecap="round"></path><path d="M 259.072,201.307 C 277.746,195.072 277.816,195.247 296.716,189.726" stroke-width="6.820" stroke="rgb(33,33,33)" fill="none" stroke-linecap="round"></path><path d="M 296.716,189.726 C 312.615,185.082 312.526,184.612 328.671,180.976" stroke-width="6.879" stroke="rgb(33,33,33)" fill="none" stroke-linecap="round"></path><path d="M 328.671,180.976 C 345.545,177.176 349.072,177.550 362.753,174.854" stroke-width="6.889" stroke="rgb(33,33,33)" fill="none" stroke-linecap="round"></path><path d="M 362.753,174.854 C 364.237,174.562 360.287,175.078 359.000,175.000" stroke-width="7.821" stroke="rgb(33,33,33)" fill="none" stroke-linecap="round"></path><path d="M 359.000,175.000 C 358.744,174.985 359.878,174.725 359.667,174.667" stroke-width="8.870" stroke="rgb(33,33,33)" fill="none" stroke-linecap="round"></path><path d="M 359.667,174.667 C 358.948,174.470 358.381,174.263 357.140,174.491" stroke-width="9.830" stroke="rgb(33,33,33)" fill="none" stroke-linecap="round"></path><path d="M 357.140,174.491 C 346.561,176.435 346.595,176.806 336.026,179.010" stroke-width="9.698" stroke="rgb(33,33,33)" fill="none" stroke-linecap="round"></path><path d="M 336.026,179.010 C 319.825,182.389 319.761,182.095 303.600,185.656" stroke-width="8.760" stroke="rgb(33,33,33)" fill="none" stroke-linecap="round"></path><path d="M 303.600,185.656 C 285.422,189.661 285.390,189.568 267.348,194.142" stroke-width="8.480" stroke="rgb(33,33,33)" fill="none" stroke-linecap="round"></path><path d="M 267.348,194.142 C 247.927,199.066 247.959,199.214 228.673,204.653" stroke-width="7.289" stroke="rgb(33,33,33)" fill="none" stroke-linecap="round"></path><path d="M 228.673,204.653 C 209.091,210.176 209.079,210.150 189.612,216.065" stroke-width="6.980" stroke="rgb(33,33,33)" fill="none" stroke-linecap="round"></path><path d="M 189.612,216.065 C 171.568,221.548 171.397,221.084 153.652,227.449" stroke-width="7.632" stroke="rgb(33,33,33)" fill="none" stroke-linecap="round"></path><path d="M 153.652,227.449 C 119.812,239.587 119.826,239.892 86.441,253.072" stroke-width="6.750" stroke="rgb(33,33,33)" fill="none" stroke-linecap="round"></path><path d="M 86.441,253.072 C 85.253,253.541 85.487,253.926 84.505,254.747" stroke-width="7.338" stroke="rgb(33,33,33)" fill="none" stroke-linecap="round"></path><path d="M 84.505,254.747 C 84.100,255.086 83.963,255.009 83.667,255.392" stroke-width="8.372" stroke="rgb(33,33,33)" fill="none" stroke-linecap="round"></path><path d="M 83.667,255.392 C 83.544,255.552 83.459,255.892 83.667,255.833" stroke-width="9.436" stroke="rgb(33,33,33)" fill="none" stroke-linecap="round"></path><path d="M 83.667,255.833 C 95.719,252.419 96.542,253.595 108.186,248.446" stroke-width="8.763" stroke="rgb(33,33,33)" fill="none" stroke-linecap="round"></path><path d="M 108.186,248.446 C 123.910,241.492 123.548,240.466 138.403,231.628" stroke-width="7.847" stroke="rgb(33,33,33)" fill="none" stroke-linecap="round"></path><path d="M 138.403,231.628 C 157.098,220.505 156.947,220.237 175.285,208.523" stroke-width="7.501" stroke="rgb(33,33,33)" fill="none" stroke-linecap="round"></path><path d="M 175.285,208.523 C 195.360,195.700 194.869,194.899 215.230,182.554" stroke-width="6.750" stroke="rgb(33,33,33)" fill="none" stroke-linecap="round"></path><path d="M 215.230,182.554 C 236.915,169.406 237.120,169.710 259.378,157.538" stroke-width="6.750" stroke="rgb(33,33,33)" fill="none" stroke-linecap="round"></path></svg>