<svg xmlns="http://www.w3.org/2000/svg" xmlns:xlink="http://www.w3.org/1999/xlink" viewBox="0 0 360 500"><path d="M 169.000,210.000 C 164.000,210.000 163.956,209.646 159.000,210.000" stroke-width="19.976" stroke="rgb(33,33,33)" fill="none" stroke-linecap="round"></path><path d="M 159.000,210.000 C 156.956,210.146 156.951,210.350 155.000,211.000" stroke-width="19.206" stroke="rgb(33,33,33)" fill="none" stroke-linecap="round"></path><path d="M 155.000,211.000 C 152.451,211.850 152.500,212.000 150.000,213.000" stroke-width="18.074" stroke="rgb(33,33,33)" fill="none" stroke-linecap="round"></path><path d="M 150.000,213.000 C 147.500,214.000 147.500,214.000 145.000,215.000" stroke-width="18.058" stroke="rgb(33,33,33)" fill="none" stroke-linecap="round"></path><path d="M 145.000,215.000 C 142.500,216.000 142.500,216.000 140.000,217.000" stroke-width="9.314" stroke="rgb(33,33,33)" fill="none" stroke-linecap="round"></path><path d="M 140.000,217.000 C 137.500,218.000 137.458,217.907 135.000,219.000" stroke-width="9.892" stroke="rgb(33,33,33)" fill="none" stroke-linecap="round"></path><path d="M 135.000,219.000 C 132.958,219.907 133.000,220.000 131.000,221.000" stroke-width="10.622" stroke="rgb(33,33,33)" fill="none" stroke-linecap="round"></path><path d="M 131.000,221.000 C 128.000,222.500 127.713,222.101 125.000,224.000" stroke-width="11.460" stroke="rgb(33,33,33)" fill="none" stroke-linecap="round"></path><path d="M 125.000,224.000 C 122.713,225.601 123.216,226.277 121.000,228.000" stroke-width="7.377" stroke="rgb(33,33,33)" fill="none" stroke-linecap="round"></path><path d="M 121.000,228.000 C 118.716,229.777 118.284,229.223 116.000,231.000" stroke-width="8.317" stroke="rgb(33,33,33)" fill="none" stroke-linecap="round"></path><path d="M 116.000,231.000 C 113.784,232.723 114.000,233.000 112.000,235.000" stroke-width="8.529" stroke="rgb(33,33,33)" fill="none" stroke-linecap="round"></path><path d="M 112.000,235.000 C 110.000,237.000 110.000,237.000 108.000,239.000" stroke-width="9.457" stroke="rgb(33,33,33)" fill="none" stroke-linecap="round"></path><path d="M 108.000,239.000 C 106.000,241.000 105.876,240.889 104.000,243.000" stroke-width="9.636" stroke="rgb(33,33,33)" fill="none" stroke-linecap="round"></path><path d="M 104.000,243.000 C 101.876,245.389 101.832,245.383 100.000,248.000" stroke-width="10.479" stroke="rgb(33,33,33)" fill="none" stroke-linecap="round"></path><path d="M 100.000,248.000 C 98.332,250.383 98.500,250.500 97.000,253.000" stroke-width="10.704" stroke="rgb(33,33,33)" fill="none" stroke-linecap="round"></path><path d="M 97.000,253.000 C 95.500,255.500 95.300,255.401 94.000,258.000" stroke-width="11.548" stroke="rgb(33,33,33)" fill="none" stroke-linecap="round"></path><path d="M 94.000,258.000 C 92.800,260.401 93.000,260.500 92.000,263.000" stroke-width="10.816" stroke="rgb(33,33,33)" fill="none" stroke-linecap="round"></path><path d="M 92.000,263.000 C 91.000,265.500 91.000,265.500 90.000,268.000" stroke-width="11.681" stroke="rgb(33,33,33)" fill="none" stroke-linecap="round"></path><path d="M 90.000,268.000 C 89.000,270.500 89.093,270.542 88.000,273.000" stroke-width="10.910" stroke="rgb(33,33,33)" fill="none" stroke-linecap="round"></path><path d="M 88.000,273.000 C 87.093,275.042 86.701,274.897 86.000,277.000" stroke-width="11.795" stroke="rgb(33,33,33)" fill="none" stroke-linecap="round"></path><path d="M 86.000,277.000 C 85.201,279.397 85.500,279.500 85.000,282.000" stroke-width="11.393" stroke="rgb(33,33,33)" fill="none" stroke-linecap="round"></path><path d="M 85.000,282.000 C 84.500,284.500 84.553,284.512 84.000,287.000" stroke-width="12.229" stroke="rgb(33,33,33)" fill="none" stroke-linecap="round"></path><path d="M 84.000,287.000 C 83.553,289.012 83.500,289.000 83.000,291.000" stroke-width="11.699" stroke="rgb(33,33,33)" fill="none" stroke-linecap="round"></path><path d="M 83.000,291.000 C 82.500,293.000 82.226,292.966 82.000,295.000" stroke-width="12.527" stroke="rgb(33,33,33)" fill="none" stroke-linecap="round"></path><path d="M 82.000,295.000 C 81.726,297.466 82.000,297.500 82.000,300.000" stroke-width="12.623" stroke="rgb(33,33,33)" fill="none" stroke-linecap="round"></path><path d="M 82.000,300.000 C 82.000,301.500 82.000,301.500 82.000,303.000" stroke-width="13.486" stroke="rgb(33,33,33)" fill="none" stroke-linecap="round"></path><path d="M 82.000,303.000 C 82.000,305.000 82.000,305.000 82.000,307.000" stroke-width="9.199" stroke="rgb(33,33,33)" fill="none" stroke-linecap="round"></path><path d="M 82.000,307.000 C 82.000,309.000 82.000,309.000 82.000,311.000" stroke-width="10.138" stroke="rgb(33,33,33)" fill="none" stroke-linecap="round"></path><path d="M 82.000,311.000 C 82.000,313.000 81.754,313.030 82.000,315.000" stroke-width="11.087" stroke="rgb(33,33,33)" fill="none" stroke-linecap="round"></path><path d="M 82.000,315.000 C 82.254,317.030 82.434,317.019 83.000,319.000" stroke-width="8.146" stroke="rgb(33,33,33)" fill="none" stroke-linecap="round"></path><path d="M 83.000,319.000 C 83.434,320.519 83.566,320.481 84.000,322.000" stroke-width="9.051" stroke="rgb(33,33,33)" fill="none" stroke-linecap="round"></path><path d="M 84.000,322.000 C 84.566,323.981 84.434,324.019 85.000,326.000" stroke-width="10.042" stroke="rgb(33,33,33)" fill="none" stroke-linecap="round"></path><path d="M 85.000,326.000 C 85.434,327.519 85.500,327.500 86.000,329.000" stroke-width="9.510" stroke="rgb(33,33,33)" fill="none" stroke-linecap="round"></path><path d="M 86.000,329.000 C 86.500,330.500 86.500,330.500 87.000,332.000" stroke-width="10.535" stroke="rgb(33,33,33)" fill="none" stroke-linecap="round"></path><path d="M 87.000,332.000 C 87.500,333.500 87.299,333.598 88.000,335.000" stroke-width="8.544" stroke="rgb(33,33,33)" fill="none" stroke-linecap="round"></path><path d="M 88.000,335.000 C 88.799,336.598 89.074,336.457 90.000,338.000" stroke-width="9.444" stroke="rgb(33,33,33)" fill="none" stroke-linecap="round"></path><path d="M 90.000,338.000 C 90.574,338.957 90.426,339.043 91.000,340.000" stroke-width="10.502" stroke="rgb(33,33,33)" fill="none" stroke-linecap="round"></path><path d="M 91.000,340.000 C 91.926,341.543 91.879,341.599 93.000,343.000" stroke-width="8.220" stroke="rgb(33,33,33)" fill="none" stroke-linecap="round"></path><path d="M 93.000,343.000 C 93.879,344.099 94.000,344.000 95.000,345.000" stroke-width="9.187" stroke="rgb(33,33,33)" fill="none" stroke-linecap="round"></path><path d="M 95.000,345.000 C 96.000,346.000 95.883,346.162 97.000,347.000" stroke-width="10.213" stroke="rgb(33,33,33)" fill="none" stroke-linecap="round"></path><path d="M 97.000,347.000 C 97.883,347.662 98.043,347.426 99.000,348.000" stroke-width="10.075" stroke="rgb(33,33,33)" fill="none" stroke-linecap="round"></path><path d="M 99.000,348.000 C 100.543,348.926 100.599,348.879 102.000,350.000" stroke-width="11.032" stroke="rgb(33,33,33)" fill="none" stroke-linecap="round"></path><path d="M 102.000,350.000 C 103.099,350.879 102.883,351.162 104.000,352.000" stroke-width="11.487" stroke="rgb(33,33,33)" fill="none" stroke-linecap="round"></path><path d="M 104.000,352.000 C 104.883,352.662 105.043,352.426 106.000,353.000" stroke-width="12.464" stroke="rgb(33,33,33)" fill="none" stroke-linecap="round"></path><path d="M 106.000,353.000 C 107.543,353.926 107.362,354.454 109.000,355.000" stroke-width="12.054" stroke="rgb(33,33,33)" fill="none" stroke-linecap="round"></path><path d="M 109.000,355.000 C 110.362,355.454 110.540,354.757 112.000,355.000" stroke-width="12.936" stroke="rgb(33,33,33)" fill="none" stroke-linecap="round"></path><path d="M 112.000,355.000 C 113.540,355.257 113.536,355.414 115.000,356.000" stroke-width="12.999" stroke="rgb(33,33,33)" fill="none" stroke-linecap="round"></path><path d="M 115.000,356.000 C 116.036,356.414 115.932,356.786 117.000,357.000" stroke-width="13.859" stroke="rgb(33,33,33)" fill="none" stroke-linecap="round"></path><path d="M 117.000,357.000 C 118.432,357.286 118.500,357.000 120.000,357.000" stroke-width="13.332" stroke="rgb(33,33,33)" fill="none" stroke-linecap="round"></path><path d="M 120.000,357.000 C 121.500,357.000 121.568,357.286 123.000,357.000" stroke-width="14.071" stroke="rgb(33,33,33)" fill="none" stroke-linecap="round"></path><path d="M 123.000,357.000 C 124.068,356.786 123.932,356.214 125.000,356.000" stroke-width="14.390" stroke="rgb(33,33,33)" fill="none" stroke-linecap="round"></path><path d="M 125.000,356.000 C 126.432,355.714 126.540,356.243 128.000,356.000" stroke-width="15.023" stroke="rgb(33,33,33)" fill="none" stroke-linecap="round"></path><path d="M 128.000,356.000 C 129.540,355.743 129.500,355.500 131.000,355.000" stroke-width="15.260" stroke="rgb(33,33,33)" fill="none" stroke-linecap="round"></path><path d="M 131.000,355.000 C 132.500,354.500 132.536,354.586 134.000,354.000" stroke-width="15.722" stroke="rgb(33,33,33)" fill="none" stroke-linecap="round"></path><path d="M 134.000,354.000 C 135.036,353.586 135.043,353.574 136.000,353.000" stroke-width="15.087" stroke="rgb(33,33,33)" fill="none" stroke-linecap="round"></path><path d="M 136.000,353.000 C 137.543,352.074 137.457,351.926 139.000,351.000" stroke-width="15.613" stroke="rgb(33,33,33)" fill="none" stroke-linecap="round"></path><path d="M 139.000,351.000 C 139.957,350.426 140.117,350.662 141.000,350.000" stroke-width="12.019" stroke="rgb(33,33,33)" fill="none" stroke-linecap="round"></path><path d="M 141.000,350.000 C 142.117,349.162 141.901,348.879 143.000,348.000" stroke-width="12.807" stroke="rgb(33,33,33)" fill="none" stroke-linecap="round"></path><path d="M 143.000,348.000 C 144.401,346.879 144.599,347.121 146.000,346.000" stroke-width="13.585" stroke="rgb(33,33,33)" fill="none" stroke-linecap="round"></path><path d="M 146.000,346.000 C 147.099,345.121 147.162,345.117 148.000,344.000" stroke-width="14.101" stroke="rgb(33,33,33)" fill="none" stroke-linecap="round"></path><path d="M 148.000,344.000 C 148.662,343.117 148.338,342.883 149.000,342.000" stroke-width="14.800" stroke="rgb(33,33,33)" fill="none" stroke-linecap="round"></path><path d="M 149.000,342.000 C 149.838,340.883 150.162,341.117 151.000,340.000" stroke-width="14.101" stroke="rgb(33,33,33)" fill="none" stroke-linecap="round"></path><path d="M 151.000,340.000 C 151.662,339.117 151.338,338.883 152.000,338.000" stroke-width="14.688" stroke="rgb(33,33,33)" fill="none" stroke-linecap="round"></path><path d="M 152.000,338.000 C 152.838,336.883 153.162,337.117 154.000,336.000" stroke-width="15.195" stroke="rgb(33,33,33)" fill="none" stroke-linecap="round"></path><path d="M 154.000,336.000 C 154.662,335.117 154.736,335.056 155.000,334.000" stroke-width="15.570" stroke="rgb(33,33,33)" fill="none" stroke-linecap="round"></path><path d="M 155.000,334.000 C 155.236,333.056 154.764,332.944 155.000,332.000" stroke-width="16.078" stroke="rgb(33,33,33)" fill="none" stroke-linecap="round"></path><path d="M 155.000,332.000 C 155.264,330.944 155.736,331.056 156.000,330.000" stroke-width="16.267" stroke="rgb(33,33,33)" fill="none" stroke-linecap="round"></path><path d="M 156.000,330.000 C 156.236,329.056 155.764,328.944 156.000,328.000" stroke-width="16.679" stroke="rgb(33,33,33)" fill="none" stroke-linecap="round"></path><path d="M 156.000,328.000 C 156.264,326.944 156.736,327.056 157.000,326.000" stroke-width="16.709" stroke="rgb(33,33,33)" fill="none" stroke-linecap="round"></path><path d="M 157.000,326.000 C 157.236,325.056 157.236,324.944 157.000,324.000" stroke-width="17.081" stroke="rgb(33,33,33)" fill="none" stroke-linecap="round"></path><path d="M 157.000,324.000 C 156.736,322.944 156.264,323.056 156.000,322.000" stroke-width="16.814" stroke="rgb(33,33,33)" fill="none" stroke-linecap="round"></path><path d="M 156.000,322.000 C 155.764,321.056 156.000,321.000 156.000,320.000" stroke-width="17.169" stroke="rgb(33,33,33)" fill="none" stroke-linecap="round"></path><path d="M 156.000,320.000 C 156.000,319.500 156.155,319.464 156.000,319.000" stroke-width="17.403" stroke="rgb(33,33,33)" fill="none" stroke-linecap="round"></path><path d="M 156.000,319.000 C 155.655,317.964 155.613,317.919 155.000,317.000" stroke-width="17.712" stroke="rgb(33,33,33)" fill="none" stroke-linecap="round"></path><path d="M 155.000,317.000 C 154.613,316.419 154.387,316.581 154.000,316.000" stroke-width="15.404" stroke="rgb(33,33,33)" fill="none" stroke-linecap="round"></path><path d="M 154.000,316.000 C 153.387,315.081 153.345,315.036 153.000,314.000" stroke-width="15.775" stroke="rgb(33,33,33)" fill="none" stroke-linecap="round"></path><path d="M 153.000,314.000 C 152.845,313.536 153.155,313.464 153.000,313.000" stroke-width="16.409" stroke="rgb(33,33,33)" fill="none" stroke-linecap="round"></path><path d="M 153.000,313.000 C 152.655,311.964 152.613,311.919 152.000,311.000" stroke-width="16.537" stroke="rgb(33,33,33)" fill="none" stroke-linecap="round"></path><path d="M 152.000,311.000 C 151.613,310.419 151.500,310.500 151.000,310.000" stroke-width="16.990" stroke="rgb(33,33,33)" fill="none" stroke-linecap="round"></path><path d="M 151.000,310.000 C 150.500,309.500 150.500,309.500 150.000,309.000" stroke-width="17.172" stroke="rgb(33,33,33)" fill="none" stroke-linecap="round"></path><path d="M 150.000,309.000 C 149.500,308.500 149.500,308.500 149.000,308.000" stroke-width="17.483" stroke="rgb(33,33,33)" fill="none" stroke-linecap="round"></path><path d="M 149.000,308.000 C 148.500,307.500 148.500,307.500 148.000,307.000" stroke-width="17.486" stroke="rgb(33,33,33)" fill="none" stroke-linecap="round"></path><path d="M 148.000,307.000 C 147.500,306.500 147.500,306.500 147.000,306.000" stroke-width="17.783" stroke="rgb(33,33,33)" fill="none" stroke-linecap="round"></path><path d="M 147.000,306.000 C 146.500,305.500 146.500,305.500 146.000,305.000" stroke-width="17.726" stroke="rgb(33,33,33)" fill="none" stroke-linecap="round"></path><path d="M 146.000,305.000 C 145.500,304.500 145.500,304.500 145.000,304.000" stroke-width="17.996" stroke="rgb(33,33,33)" fill="none" stroke-linecap="round"></path><path d="M 145.000,304.000 C 144.500,303.500 144.581,303.387 144.000,303.000" stroke-width="17.895" stroke="rgb(33,33,33)" fill="none" stroke-linecap="round"></path><path d="M 144.000,303.000 C 143.081,302.387 143.036,302.345 142.000,302.000" stroke-width="18.017" stroke="rgb(33,33,33)" fill="none" stroke-linecap="round"></path><path d="M 142.000,302.000 C 141.536,301.845 141.250,302.250 141.000,302.000" stroke-width="18.058" stroke="rgb(33,33,33)" fill="none" stroke-linecap="round"></path><path d="M 141.000,302.000 C 140.750,301.750 141.250,301.250 141.000,301.000" stroke-width="18.313" stroke="rgb(33,33,33)" fill="none" stroke-linecap="round"></path><path d="M 141.000,301.000 C 140.750,300.750 140.500,301.000 140.000,301.000" stroke-width="18.332" stroke="rgb(33,33,33)" fill="none" stroke-linecap="round"></path><path d="M 140.000,301.000 C 139.500,300.500 139.500,300.500 139.000,300.000" stroke-width="16.154" stroke="rgb(33,33,33)" fill="none" stroke-linecap="round"></path><path d="M 139.000,300.000 C 139.500,300.000 139.586,300.207 140.000,300.000" stroke-width="18.180" stroke="rgb(33,33,33)" fill="none" stroke-linecap="round"></path><path d="M 140.000,300.000 C 140.586,299.707 140.379,299.207 141.000,299.000" stroke-width="18.222" stroke="rgb(33,33,33)" fill="none" stroke-linecap="round"></path><path d="M 141.000,299.000 C 141.879,298.707 142.056,299.236 143.000,299.000" stroke-width="18.259" stroke="rgb(33,33,33)" fill="none" stroke-linecap="round"></path><path d="M 143.000,299.000 C 144.056,298.736 143.964,298.414 145.000,298.000" stroke-width="18.054" stroke="rgb(33,33,33)" fill="none" stroke-linecap="round"></path><path d="M 145.000,298.000 C 146.464,297.414 146.500,297.500 148.000,297.000" stroke-width="18.069" stroke="rgb(33,33,33)" fill="none" stroke-linecap="round"></path><path d="M 148.000,297.000 C 149.500,296.500 149.598,296.701 151.000,296.000" stroke-width="17.061" stroke="rgb(33,33,33)" fill="none" stroke-linecap="round"></path><path d="M 151.000,296.000 C 152.598,295.201 152.457,294.926 154.000,294.000" stroke-width="17.127" stroke="rgb(33,33,33)" fill="none" stroke-linecap="round"></path><path d="M 154.000,294.000 C 154.957,293.426 155.043,293.574 156.000,293.000" stroke-width="17.157" stroke="rgb(33,33,33)" fill="none" stroke-linecap="round"></path><path d="M 156.000,293.000 C 157.543,292.074 157.599,292.121 159.000,291.000" stroke-width="17.205" stroke="rgb(33,33,33)" fill="none" stroke-linecap="round"></path><path d="M 159.000,291.000 C 160.099,290.121 159.901,289.879 161.000,289.000" stroke-width="16.901" stroke="rgb(33,33,33)" fill="none" stroke-linecap="round"></path><path d="M 161.000,289.000 C 162.401,287.879 162.599,288.121 164.000,287.000" stroke-width="17.019" stroke="rgb(33,33,33)" fill="none" stroke-linecap="round"></path><path d="M 164.000,287.000 C 165.099,286.121 164.901,285.879 166.000,285.000" stroke-width="16.757" stroke="rgb(33,33,33)" fill="none" stroke-linecap="round"></path><path d="M 166.000,285.000 C 167.401,283.879 167.622,284.149 169.000,283.000" stroke-width="16.967" stroke="rgb(33,33,33)" fill="none" stroke-linecap="round"></path><path d="M 169.000,283.000 C 170.622,281.649 170.500,281.500 172.000,280.000" stroke-width="16.335" stroke="rgb(33,33,33)" fill="none" stroke-linecap="round"></path><path d="M 172.000,280.000 C 173.500,278.500 173.500,278.500 175.000,277.000" stroke-width="16.435" stroke="rgb(33,33,33)" fill="none" stroke-linecap="round"></path><path d="M 175.000,277.000 C 176.500,275.500 176.649,275.622 178.000,274.000" stroke-width="15.821" stroke="rgb(33,33,33)" fill="none" stroke-linecap="round"></path><path d="M 178.000,274.000 C 179.149,272.622 178.851,272.378 180.000,271.000" stroke-width="16.148" stroke="rgb(33,33,33)" fill="none" stroke-linecap="round"></path><path d="M 180.000,271.000 C 181.351,269.378 181.783,269.704 183.000,268.000" stroke-width="15.466" stroke="rgb(33,33,33)" fill="none" stroke-linecap="round"></path><path d="M 183.000,268.000 C 184.283,266.204 183.775,265.838 185.000,264.000" stroke-width="15.743" stroke="rgb(33,33,33)" fill="none" stroke-linecap="round"></path><path d="M 185.000,264.000 C 185.775,262.838 186.121,263.099 187.000,262.000" stroke-width="15.867" stroke="rgb(33,33,33)" fill="none" stroke-linecap="round"></path><path d="M 187.000,262.000 C 188.121,260.599 188.000,260.500 189.000,259.000" stroke-width="16.110" stroke="rgb(33,33,33)" fill="none" stroke-linecap="round"></path><path d="M 189.000,259.000 C 190.000,257.500 189.879,257.401 191.000,256.000" stroke-width="16.058" stroke="rgb(33,33,33)" fill="none" stroke-linecap="round"></path><path d="M 191.000,256.000 C 191.879,254.901 192.121,255.099 193.000,254.000" stroke-width="16.368" stroke="rgb(33,33,33)" fill="none" stroke-linecap="round"></path><path d="M 193.000,254.000 C 194.121,252.599 193.879,252.401 195.000,251.000" stroke-width="16.263" stroke="rgb(33,33,33)" fill="none" stroke-linecap="round"></path><path d="M 195.000,251.000 C 195.879,249.901 196.000,250.000 197.000,249.000" stroke-width="16.588" stroke="rgb(33,33,33)" fill="none" stroke-linecap="round"></path><path d="M 197.000,249.000 C 198.000,248.000 198.162,248.117 199.000,247.000" stroke-width="16.597" stroke="rgb(33,33,33)" fill="none" stroke-linecap="round"></path><path d="M 199.000,247.000 C 199.662,246.117 199.387,245.919 200.000,245.000" stroke-width="16.862" stroke="rgb(33,33,33)" fill="none" stroke-linecap="round"></path><path d="M 200.000,245.000 C 200.387,244.419 200.500,244.500 201.000,244.000" stroke-width="17.147" stroke="rgb(33,33,33)" fill="none" stroke-linecap="round"></path><path d="M 201.000,244.000 C 201.500,243.500 201.500,243.500 202.000,243.000" stroke-width="17.523" stroke="rgb(33,33,33)" fill="none" stroke-linecap="round"></path><path d="M 202.000,243.000 C 202.500,242.500 202.707,242.586 203.000,242.000" stroke-width="17.638" stroke="rgb(33,33,33)" fill="none" stroke-linecap="round"></path><path d="M 203.000,242.000 C 203.207,241.586 203.000,241.500 203.000,241.000" stroke-width="17.936" stroke="rgb(33,33,33)" fill="none" stroke-linecap="round"></path><path d="M 203.000,241.000 C 203.000,241.000 203.000,241.000 203.000,241.000" stroke-width="18.356" stroke="rgb(33,33,33)" fill="none" stroke-linecap="round"></path><path d="M 203.000,241.000 C 203.000,240.500 203.000,240.500 203.000,240.000" stroke-width="18.543" stroke="rgb(33,33,33)" fill="none" stroke-linecap="round"></path><path d="M 203.000,240.000 C 203.500,240.000 203.500,240.000 204.000,240.000" stroke-width="19.008" stroke="rgb(33,33,33)" fill="none" stroke-linecap="round"></path><path d="M 204.000,240.000 C 204.000,240.000 204.000,240.000 204.000,240.000" stroke-width="19.244" stroke="rgb(33,33,33)" fill="none" stroke-linecap="round"></path><path d="M 204.000,240.000 C 204.000,240.500 204.000,240.500 204.000,241.000" stroke-width="19.192" stroke="rgb(33,33,33)" fill="none" stroke-linecap="round"></path><path d="M 204.000,241.000 C 204.000,241.500 203.793,241.586 204.000,242.000" stroke-width="19.190" stroke="rgb(33,33,33)" fill="none" stroke-linecap="round"></path><path d="M 204.000,242.000 C 204.293,242.586 204.793,242.379 205.000,243.000" stroke-width="19.025" stroke="rgb(33,33,33)" fill="none" stroke-linecap="round"></path><path d="M 205.000,243.000 C 205.293,243.879 205.194,244.031 205.000,245.000" stroke-width="18.969" stroke="rgb(33,33,33)" fill="none" stroke-linecap="round"></path><path d="M 205.000,245.000 C 204.694,246.531 204.306,246.469 204.000,248.000" stroke-width="18.012" stroke="rgb(33,33,33)" fill="none" stroke-linecap="round"></path><path d="M 204.000,248.000 C 203.806,248.969 204.000,249.000 204.000,250.000" stroke-width="18.090" stroke="rgb(33,33,33)" fill="none" stroke-linecap="round"></path><path d="M 204.000,250.000 C 204.000,251.500 204.243,251.540 204.000,253.000" stroke-width="17.737" stroke="rgb(33,33,33)" fill="none" stroke-linecap="round"></path><path d="M 204.000,253.000 C 203.743,254.540 203.257,254.460 203.000,256.000" stroke-width="17.799" stroke="rgb(33,33,33)" fill="none" stroke-linecap="round"></path><path d="M 203.000,256.000 C 202.757,257.460 203.000,257.500 203.000,259.000" stroke-width="17.387" stroke="rgb(33,33,33)" fill="none" stroke-linecap="round"></path><path d="M 203.000,259.000 C 203.000,260.500 203.211,260.526 203.000,262.000" stroke-width="17.452" stroke="rgb(33,33,33)" fill="none" stroke-linecap="round"></path><path d="M 203.000,262.000 C 202.711,264.026 202.289,263.974 202.000,266.000" stroke-width="16.600" stroke="rgb(33,33,33)" fill="none" stroke-linecap="round"></path><path d="M 202.000,266.000 C 201.789,267.474 202.000,267.500 202.000,269.000" stroke-width="16.830" stroke="rgb(33,33,33)" fill="none" stroke-linecap="round"></path><path d="M 202.000,269.000 C 202.000,270.500 202.000,270.500 202.000,272.000" stroke-width="17.080" stroke="rgb(33,33,33)" fill="none" stroke-linecap="round"></path><path d="M 202.000,272.000 C 202.000,273.500 202.000,273.500 202.000,275.000" stroke-width="15.017" stroke="rgb(33,33,33)" fill="none" stroke-linecap="round"></path><path d="M 202.000,275.000 C 202.000,276.500 202.243,276.540 202.000,278.000" stroke-width="15.355" stroke="rgb(33,33,33)" fill="none" stroke-linecap="round"></path><path d="M 202.000,278.000 C 201.743,279.540 201.257,279.460 201.000,281.000" stroke-width="15.774" stroke="rgb(33,33,33)" fill="none" stroke-linecap="round"></path><path d="M 201.000,281.000 C 200.757,282.460 201.000,282.500 201.000,284.000" stroke-width="15.905" stroke="rgb(33,33,33)" fill="none" stroke-linecap="round"></path><path d="M 201.000,284.000 C 201.000,285.000 201.000,285.000 201.000,286.000" stroke-width="16.262" stroke="rgb(33,33,33)" fill="none" stroke-linecap="round"></path><path d="M 201.000,286.000 C 201.000,287.500 201.000,287.500 201.000,289.000" stroke-width="16.470" stroke="rgb(33,33,33)" fill="none" stroke-linecap="round"></path><path d="M 201.000,289.000 C 201.000,289.500 201.000,289.500 201.000,290.000" stroke-width="16.918" stroke="rgb(33,33,33)" fill="none" stroke-linecap="round"></path><path d="M 201.000,290.000 C 201.000,291.000 201.000,291.000 201.000,292.000" stroke-width="17.255" stroke="rgb(33,33,33)" fill="none" stroke-linecap="round"></path><path d="M 201.000,292.000 C 201.000,292.500 201.000,292.500 201.000,293.000" stroke-width="17.502" stroke="rgb(33,33,33)" fill="none" stroke-linecap="round"></path><path d="M 201.000,293.000 C 201.000,293.000 201.000,293.000 201.000,293.000" stroke-width="17.990" stroke="rgb(33,33,33)" fill="none" stroke-linecap="round"></path><path d="M 201.000,293.000 C 201.500,293.500 201.707,293.414 202.000,294.000" stroke-width="18.221" stroke="rgb(33,33,33)" fill="none" stroke-linecap="round"></path><path d="M 202.000,294.000 C 202.207,294.414 202.000,294.500 202.000,295.000" stroke-width="17.521" stroke="rgb(33,33,33)" fill="none" stroke-linecap="round"></path><path d="M 202.000,295.000 C 202.500,295.000 202.500,295.000 203.000,295.000" stroke-width="18.444" stroke="rgb(33,33,33)" fill="none" stroke-linecap="round"></path><path d="M 203.000,295.000 C 203.000,295.000 203.000,295.000 203.000,295.000" stroke-width="18.779" stroke="rgb(33,33,33)" fill="none" stroke-linecap="round"></path><path d="M 203.000,295.000 C 204.000,295.000 204.056,295.236 205.000,295.000" stroke-width="18.557" stroke="rgb(33,33,33)" fill="none" stroke-linecap="round"></path><path d="M 205.000,295.000 C 206.056,294.736 205.964,294.414 207.000,294.000" stroke-width="18.421" stroke="rgb(33,33,33)" fill="none" stroke-linecap="round"></path><path d="M 207.000,294.000 C 208.464,293.414 208.680,293.792 210.000,293.000" stroke-width="18.459" stroke="rgb(33,33,33)" fill="none" stroke-linecap="round"></path><path d="M 210.000,293.000 C 211.180,292.292 210.838,291.775 212.000,291.000" stroke-width="15.850" stroke="rgb(33,33,33)" fill="none" stroke-linecap="round"></path><path d="M 212.000,291.000 C 213.838,289.775 214.062,290.107 216.000,289.000" stroke-width="15.747" stroke="rgb(33,33,33)" fill="none" stroke-linecap="round"></path><path d="M 216.000,289.000 C 217.562,288.107 217.622,288.149 219.000,287.000" stroke-width="16.032" stroke="rgb(33,33,33)" fill="none" stroke-linecap="round"></path><path d="M 219.000,287.000 C 220.622,285.649 220.500,285.500 222.000,284.000" stroke-width="15.805" stroke="rgb(33,33,33)" fill="none" stroke-linecap="round"></path><path d="M 222.000,284.000 C 223.000,283.000 222.916,282.903 224.000,282.000" stroke-width="16.175" stroke="rgb(33,33,33)" fill="none" stroke-linecap="round"></path><path d="M 224.000,282.000 C 225.916,280.403 225.966,280.453 228.000,279.000" stroke-width="15.840" stroke="rgb(33,33,33)" fill="none" stroke-linecap="round"></path><path d="M 228.000,279.000 C 229.466,277.953 229.534,278.047 231.000,277.000" stroke-width="16.179" stroke="rgb(33,33,33)" fill="none" stroke-linecap="round"></path><path d="M 231.000,277.000 C 233.034,275.547 233.257,275.743 235.000,274.000" stroke-width="15.430" stroke="rgb(33,33,33)" fill="none" stroke-linecap="round"></path><path d="M 235.000,274.000 C 236.257,272.743 235.743,272.257 237.000,271.000" stroke-width="15.805" stroke="rgb(33,33,33)" fill="none" stroke-linecap="round"></path><path d="M 237.000,271.000 C 238.743,269.257 239.107,269.623 241.000,268.000" stroke-width="16.008" stroke="rgb(33,33,33)" fill="none" stroke-linecap="round"></path><path d="M 241.000,268.000 C 242.607,266.623 242.500,266.500 244.000,265.000" stroke-width="9.828" stroke="rgb(33,33,33)" fill="none" stroke-linecap="round"></path><path d="M 244.000,265.000 C 245.500,263.500 245.393,263.377 247.000,262.000" stroke-width="10.683" stroke="rgb(33,33,33)" fill="none" stroke-linecap="round"></path><path d="M 247.000,262.000 C 248.893,260.377 249.084,260.597 251.000,259.000" stroke-width="11.493" stroke="rgb(33,33,33)" fill="none" stroke-linecap="round"></path><path d="M 251.000,259.000 C 252.084,258.097 251.901,257.879 253.000,257.000" stroke-width="12.192" stroke="rgb(33,33,33)" fill="none" stroke-linecap="round"></path><path d="M 253.000,257.000 C 254.401,255.879 254.500,256.000 256.000,255.000" stroke-width="12.991" stroke="rgb(33,33,33)" fill="none" stroke-linecap="round"></path><path d="M 256.000,255.000 C 257.500,254.000 257.599,254.121 259.000,253.000" stroke-width="13.513" stroke="rgb(33,33,33)" fill="none" stroke-linecap="round"></path><path d="M 259.000,253.000 C 260.099,252.121 260.000,252.000 261.000,251.000" stroke-width="14.158" stroke="rgb(33,33,33)" fill="none" stroke-linecap="round"></path><path d="M 261.000,251.000 C 262.000,250.000 261.883,249.838 263.000,249.000" stroke-width="14.592" stroke="rgb(33,33,33)" fill="none" stroke-linecap="round"></path><path d="M 263.000,249.000 C 263.883,248.338 264.081,248.613 265.000,248.000" stroke-width="15.168" stroke="rgb(33,33,33)" fill="none" stroke-linecap="round"></path><path d="M 265.000,248.000 C 265.581,247.613 265.500,247.500 266.000,247.000" stroke-width="15.844" stroke="rgb(33,33,33)" fill="none" stroke-linecap="round"></path><path d="M 266.000,247.000 C 266.500,246.500 266.414,246.293 267.000,246.000" stroke-width="15.378" stroke="rgb(33,33,33)" fill="none" stroke-linecap="round"></path><path d="M 267.000,246.000 C 267.414,245.793 267.586,246.207 268.000,246.000" stroke-width="16.076" stroke="rgb(33,33,33)" fill="none" stroke-linecap="round"></path><path d="M 268.000,246.000 C 268.586,245.707 268.500,245.500 269.000,245.000" stroke-width="15.553" stroke="rgb(33,33,33)" fill="none" stroke-linecap="round"></path><path d="M 269.000,245.000 C 269.000,245.000 269.000,245.000 269.000,245.000" stroke-width="16.309" stroke="rgb(33,33,33)" fill="none" stroke-linecap="round"></path><path d="M 269.000,245.000 C 269.500,245.000 269.750,245.250 270.000,245.000" stroke-width="14.534" stroke="rgb(33,33,33)" fill="none" stroke-linecap="round"></path><path d="M 270.000,245.000 C 270.250,244.750 270.000,244.500 270.000,244.000" stroke-width="15.238" stroke="rgb(33,33,33)" fill="none" stroke-linecap="round"></path><path d="M 270.000,244.000 C 270.000,244.500 270.000,244.500 270.000,245.000" stroke-width="17.254" stroke="rgb(33,33,33)" fill="none" stroke-linecap="round"></path><path d="M 270.000,245.000 C 270.000,246.000 270.236,246.056 270.000,247.000" stroke-width="17.373" stroke="rgb(33,33,33)" fill="none" stroke-linecap="round"></path><path d="M 270.000,247.000 C 269.736,248.056 269.414,247.964 269.000,249.000" stroke-width="17.623" stroke="rgb(33,33,33)" fill="none" stroke-linecap="round"></path><path d="M 269.000,249.000 C 268.414,250.464 268.434,250.481 268.000,252.000" stroke-width="17.339" stroke="rgb(33,33,33)" fill="none" stroke-linecap="round"></path><path d="M 268.000,252.000 C 267.434,253.981 267.500,254.000 267.000,256.000" stroke-width="17.255" stroke="rgb(33,33,33)" fill="none" stroke-linecap="round"></path><path d="M 267.000,256.000 C 266.500,258.000 266.720,258.081 266.000,260.000" stroke-width="16.580" stroke="rgb(33,33,33)" fill="none" stroke-linecap="round"></path><path d="M 266.000,260.000 C 265.220,262.081 264.780,261.919 264.000,264.000" stroke-width="16.468" stroke="rgb(33,33,33)" fill="none" stroke-linecap="round"></path><path d="M 264.000,264.000 C 263.280,265.919 263.720,266.081 263.000,268.000" stroke-width="16.168" stroke="rgb(33,33,33)" fill="none" stroke-linecap="round"></path><path d="M 263.000,268.000 C 262.220,270.081 261.907,269.958 261.000,272.000" stroke-width="16.243" stroke="rgb(33,33,33)" fill="none" stroke-linecap="round"></path><path d="M 261.000,272.000 C 259.907,274.458 259.770,274.432 259.000,277.000" stroke-width="15.891" stroke="rgb(33,33,33)" fill="none" stroke-linecap="round"></path><path d="M 259.000,277.000 C 258.270,279.432 258.799,279.603 258.000,282.000" stroke-width="16.069" stroke="rgb(33,33,33)" fill="none" stroke-linecap="round"></path><path d="M 258.000,282.000 C 257.299,284.103 256.701,283.897 256.000,286.000" stroke-width="15.858" stroke="rgb(33,33,33)" fill="none" stroke-linecap="round"></path><path d="M 256.000,286.000 C 255.201,288.397 255.799,288.603 255.000,291.000" stroke-width="15.879" stroke="rgb(33,33,33)" fill="none" stroke-linecap="round"></path><path d="M 255.000,291.000 C 254.299,293.103 253.780,292.919 253.000,295.000" stroke-width="15.462" stroke="rgb(33,33,33)" fill="none" stroke-linecap="round"></path><path d="M 253.000,295.000 C 252.280,296.919 252.720,297.081 252.000,299.000" stroke-width="15.756" stroke="rgb(33,33,33)" fill="none" stroke-linecap="round"></path><path d="M 252.000,299.000 C 251.220,301.081 250.780,300.919 250.000,303.000" stroke-width="15.369" stroke="rgb(33,33,33)" fill="none" stroke-linecap="round"></path><path d="M 250.000,303.000 C 249.280,304.919 249.650,305.049 249.000,307.000" stroke-width="15.679" stroke="rgb(33,33,33)" fill="none" stroke-linecap="round"></path><path d="M 249.000,307.000 C 248.150,309.549 247.770,309.432 247.000,312.000" stroke-width="15.906" stroke="rgb(33,33,33)" fill="none" stroke-linecap="round"></path><path d="M 247.000,312.000 C 246.270,314.432 246.730,314.568 246.000,317.000" stroke-width="11.716" stroke="rgb(33,33,33)" fill="none" stroke-linecap="round"></path><path d="M 246.000,317.000 C 245.230,319.568 245.093,319.542 244.000,322.000" stroke-width="12.328" stroke="rgb(33,33,33)" fill="none" stroke-linecap="round"></path><path d="M 244.000,322.000 C 243.093,324.042 242.701,323.897 242.000,326.000" stroke-width="12.971" stroke="rgb(33,33,33)" fill="none" stroke-linecap="round"></path><path d="M 242.000,326.000 C 241.201,328.397 241.799,328.603 241.000,331.000" stroke-width="13.350" stroke="rgb(33,33,33)" fill="none" stroke-linecap="round"></path><path d="M 241.000,331.000 C 240.299,333.103 239.780,332.919 239.000,335.000" stroke-width="13.925" stroke="rgb(33,33,33)" fill="none" stroke-linecap="round"></path><path d="M 239.000,335.000 C 238.280,336.919 238.254,336.970 238.000,339.000" stroke-width="14.141" stroke="rgb(33,33,33)" fill="none" stroke-linecap="round"></path><path d="M 238.000,339.000 C 237.754,340.970 238.246,341.030 238.000,343.000" stroke-width="14.614" stroke="rgb(33,33,33)" fill="none" stroke-linecap="round"></path><path d="M 238.000,343.000 C 237.746,345.030 237.289,344.974 237.000,347.000" stroke-width="15.123" stroke="rgb(33,33,33)" fill="none" stroke-linecap="round"></path><path d="M 237.000,347.000 C 236.789,348.474 237.243,348.540 237.000,350.000" stroke-width="14.248" stroke="rgb(33,33,33)" fill="none" stroke-linecap="round"></path><path d="M 237.000,350.000 C 236.743,351.540 236.306,351.469 236.000,353.000" stroke-width="14.903" stroke="rgb(33,33,33)" fill="none" stroke-linecap="round"></path><path d="M 236.000,353.000 C 235.806,353.969 236.000,354.000 236.000,355.000" stroke-width="14.257" stroke="rgb(33,33,33)" fill="none" stroke-linecap="round"></path><path d="M 236.000,355.000 C 236.000,356.000 236.000,356.000 236.000,357.000" stroke-width="15.018" stroke="rgb(33,33,33)" fill="none" stroke-linecap="round"></path><path d="M 236.000,357.000 C 236.000,358.000 236.000,358.000 236.000,359.000" stroke-width="12.063" stroke="rgb(33,33,33)" fill="none" stroke-linecap="round"></path><path d="M 236.000,359.000 C 236.000,360.000 236.000,360.000 236.000,361.000" stroke-width="12.999" stroke="rgb(33,33,33)" fill="none" stroke-linecap="round"></path><path d="M 236.000,361.000 C 236.000,361.500 236.000,361.500 236.000,362.000" stroke-width="13.625" stroke="rgb(33,33,33)" fill="none" stroke-linecap="round"></path><path d="M 236.000,362.000 C 236.000,362.500 236.000,362.500 236.000,363.000" stroke-width="14.509" stroke="rgb(33,33,33)" fill="none" stroke-linecap="round"></path><path d="M 236.000,363.000 C 236.000,363.500 236.000,363.500 236.000,364.000" stroke-width="14.640" stroke="rgb(33,33,33)" fill="none" stroke-linecap="round"></path><path d="M 236.000,364.000 C 236.000,364.500 236.000,364.500 236.000,365.000" stroke-width="15.414" stroke="rgb(33,33,33)" fill="none" stroke-linecap="round"></path><path d="M 236.000,365.000 C 236.000,365.500 236.000,365.500 236.000,366.000" stroke-width="15.767" stroke="rgb(33,33,33)" fill="none" stroke-linecap="round"></path><path d="M 236.000,366.000 C 236.000,366.000 236.000,366.000 236.000,366.000" stroke-width="16.498" stroke="rgb(33,33,33)" fill="none" stroke-linecap="round"></path><path d="M 236.000,366.000 C 236.000,366.500 236.000,366.500 236.000,367.000" stroke-width="16.989" stroke="rgb(33,33,33)" fill="none" stroke-linecap="round"></path><path d="M 236.000,367.000 C 236.000,367.500 236.000,367.500 236.000,368.000" stroke-width="18.345" stroke="rgb(33,33,33)" fill="none" stroke-linecap="round"></path><path d="M 236.000,368.000 C 236.500,368.000 236.586,368.207 237.000,368.000" stroke-width="19.479" stroke="rgb(33,33,33)" fill="none" stroke-linecap="round"></path><path d="M 237.000,368.000 C 237.586,367.707 237.419,367.387 238.000,367.000" stroke-width="16.441" stroke="rgb(33,33,33)" fill="none" stroke-linecap="round"></path><path d="M 238.000,367.000 C 238.919,366.387 239.043,366.574 240.000,366.000" stroke-width="16.891" stroke="rgb(33,33,33)" fill="none" stroke-linecap="round"></path><path d="M 240.000,366.000 C 241.543,365.074 241.534,365.047 243.000,364.000" stroke-width="10.770" stroke="rgb(33,33,33)" fill="none" stroke-linecap="round"></path><path d="M 243.000,364.000 C 245.034,362.547 245.000,362.500 247.000,361.000" stroke-width="11.405" stroke="rgb(33,33,33)" fill="none" stroke-linecap="round"></path><path d="M 247.000,361.000 C 249.000,359.500 249.123,359.642 251.000,358.000" stroke-width="12.155" stroke="rgb(33,33,33)" fill="none" stroke-linecap="round"></path><path d="M 251.000,358.000 C 253.123,356.142 253.000,356.000 255.000,354.000" stroke-width="12.303" stroke="rgb(33,33,33)" fill="none" stroke-linecap="round"></path><path d="M 255.000,354.000 C 257.500,351.500 257.500,351.500 260.000,349.000" stroke-width="12.757" stroke="rgb(33,33,33)" fill="none" stroke-linecap="round"></path><path d="M 260.000,349.000 C 262.500,346.500 262.744,346.707 265.000,344.000" stroke-width="13.318" stroke="rgb(33,33,33)" fill="none" stroke-linecap="round"></path><path d="M 265.000,344.000 C 267.744,340.707 267.420,340.440 270.000,337.000" stroke-width="12.528" stroke="rgb(33,33,33)" fill="none" stroke-linecap="round"></path><path d="M 270.000,337.000 C 271.920,334.440 272.229,334.656 274.000,332.000" stroke-width="13.173" stroke="rgb(33,33,33)" fill="none" stroke-linecap="round"></path><path d="M 274.000,332.000 C 276.229,328.656 275.823,328.387 278.000,325.000" stroke-width="11.556" stroke="rgb(33,33,33)" fill="none" stroke-linecap="round"></path><path d="M 278.000,325.000 C 280.323,321.387 280.794,321.677 283.000,318.000" stroke-width="12.294" stroke="rgb(33,33,33)" fill="none" stroke-linecap="round"></path><path d="M 283.000,318.000 C 285.294,314.177 285.385,314.153 287.000,310.000" stroke-width="11.789" stroke="rgb(33,33,33)" fill="none" stroke-linecap="round"></path><path d="M 287.000,310.000 C 288.885,305.153 288.500,305.000 290.000,300.000" stroke-width="12.367" stroke="rgb(33,33,33)" fill="none" stroke-linecap="round"></path><path d="M 290.000,300.000 C 291.500,295.000 291.929,295.087 293.000,290.000" stroke-width="11.843" stroke="rgb(33,33,33)" fill="none" stroke-linecap="round"></path><path d="M 293.000,290.000 C 293.929,285.587 293.735,285.513 294.000,281.000" stroke-width="12.436" stroke="rgb(33,33,33)" fill="none" stroke-linecap="round"></path><path d="M 294.000,281.000 C 294.235,277.013 294.000,277.000 294.000,273.000" stroke-width="11.893" stroke="rgb(33,33,33)" fill="none" stroke-linecap="round"></path><path d="M 294.000,273.000 C 294.000,270.000 294.230,269.984 294.000,267.000" stroke-width="12.650" stroke="rgb(33,33,33)" fill="none" stroke-linecap="round"></path><path d="M 294.000,267.000 C 293.730,263.484 293.581,263.486 293.000,260.000" stroke-width="10.374" stroke="rgb(33,33,33)" fill="none" stroke-linecap="round"></path><path d="M 293.000,260.000 C 292.581,257.486 292.802,257.406 292.000,255.000" stroke-width="11.270" stroke="rgb(33,33,33)" fill="none" stroke-linecap="round"></path><path d="M 292.000,255.000 C 290.802,251.406 290.700,251.400 289.000,248.000" stroke-width="8.441" stroke="rgb(33,33,33)" fill="none" stroke-linecap="round"></path><path d="M 289.000,248.000 C 287.200,244.400 287.111,244.431 285.000,241.000" stroke-width="9.352" stroke="rgb(33,33,33)" fill="none" stroke-linecap="round"></path><path d="M 285.000,241.000 C 283.111,237.931 283.052,237.964 281.000,235.000" stroke-width="8.392" stroke="rgb(33,33,33)" fill="none" stroke-linecap="round"></path><path d="M 281.000,235.000 C 278.552,231.464 278.883,231.145 276.000,228.000" stroke-width="9.239" stroke="rgb(33,33,33)" fill="none" stroke-linecap="round"></path><path d="M 276.000,228.000 C 273.383,225.145 272.981,225.522 270.000,223.000" stroke-width="8.185" stroke="rgb(33,33,33)" fill="none" stroke-linecap="round"></path><path d="M 270.000,223.000 C 266.481,220.022 266.500,220.000 263.000,217.000" stroke-width="9.045" stroke="rgb(33,33,33)" fill="none" stroke-linecap="round"></path><path d="M 263.000,217.000 C 259.500,214.000 259.707,213.718 256.000,211.000" stroke-width="7.772" stroke="rgb(33,33,33)" fill="none" stroke-linecap="round"></path><path d="M 256.000,211.000 C 252.207,208.218 252.044,208.426 248.000,206.000" stroke-width="8.634" stroke="rgb(33,33,33)" fill="none" stroke-linecap="round"></path><path d="M 248.000,206.000 C 244.544,203.926 244.601,203.801 241.000,202.000" stroke-width="6.750" stroke="rgb(33,33,33)" fill="none" stroke-linecap="round"></path><path d="M 241.000,202.000 C 236.601,199.801 236.612,199.699 232.000,198.000" stroke-width="6.750" stroke="rgb(33,33,33)" fill="none" stroke-linecap="round"></path><path d="M 232.000,198.000 C 227.112,196.199 227.059,196.265 222.000,195.000" stroke-width="6.825" stroke="rgb(33,33,33)" fill="none" stroke-linecap="round"></path><path d="M 222.000,195.000 C 217.059,193.765 217.009,193.954 212.000,193.000" stroke-width="7.497" stroke="rgb(33,33,33)" fill="none" stroke-linecap="round"></path><path d="M 212.000,193.000 C 206.509,191.954 206.533,191.755 201.000,191.000" stroke-width="8.148" stroke="rgb(33,33,33)" fill="none" stroke-linecap="round"></path><path d="M 201.000,191.000 C 195.533,190.255 195.495,190.000 190.000,190.000" stroke-width="8.963" stroke="rgb(33,33,33)" fill="none" stroke-linecap="round"></path><path d="M 190.000,190.000 C 185.495,190.000 185.468,190.295 181.000,191.000" stroke-width="7.755" stroke="rgb(33,33,33)" fill="none" stroke-linecap="round"></path><path d="M 181.000,191.000 C 175.968,191.795 175.897,191.640 171.000,193.000" stroke-width="8.592" stroke="rgb(33,33,33)" fill="none" stroke-linecap="round"></path><path d="M 171.000,193.000 C 166.897,194.140 166.899,194.267 163.000,196.000" stroke-width="6.888" stroke="rgb(33,33,33)" fill="none" stroke-linecap="round"></path><path d="M 163.000,196.000 C 157.899,198.267 157.804,198.174 153.000,201.000" stroke-width="7.702" stroke="rgb(33,33,33)" fill="none" stroke-linecap="round"></path><path d="M 153.000,201.000 C 149.304,203.174 149.440,203.420 146.000,206.000" stroke-width="7.039" stroke="rgb(33,33,33)" fill="none" stroke-linecap="round"></path><path d="M 146.000,206.000 C 141.440,209.420 141.399,209.377 137.000,213.000" stroke-width="7.857" stroke="rgb(33,33,33)" fill="none" stroke-linecap="round"></path><path d="M 137.000,213.000 C 132.899,216.377 132.856,216.347 129.000,220.000" stroke-width="7.740" stroke="rgb(33,33,33)" fill="none" stroke-linecap="round"></path><path d="M 129.000,220.000 C 123.356,225.347 123.211,225.241 118.000,231.000" stroke-width="8.449" stroke="rgb(33,33,33)" fill="none" stroke-linecap="round"></path><path d="M 118.000,231.000 C 113.711,235.741 114.000,236.000 110.000,241.000" stroke-width="6.816" stroke="rgb(33,33,33)" fill="none" stroke-linecap="round"></path><path d="M 110.000,241.000 C 106.000,246.000 105.597,245.724 102.000,251.000" stroke-width="7.370" stroke="rgb(33,33,33)" fill="none" stroke-linecap="round"></path><path d="M 102.000,251.000 C 98.097,256.724 98.418,256.953 95.000,263.000" stroke-width="7.982" stroke="rgb(33,33,33)" fill="none" stroke-linecap="round"></path><path d="M 95.000,263.000 C 91.918,268.453 91.800,268.400 89.000,274.000" stroke-width="8.519" stroke="rgb(33,33,33)" fill="none" stroke-linecap="round"></path><path d="M 89.000,274.000 C 85.800,280.400 85.505,280.320 83.000,287.000" stroke-width="8.957" stroke="rgb(33,33,33)" fill="none" stroke-linecap="round"></path><path d="M 83.000,287.000 C 81.005,292.320 81.659,292.548 80.000,298.000" stroke-width="9.660" stroke="rgb(33,33,33)" fill="none" stroke-linecap="round"></path><path d="M 80.000,298.000 C 78.159,304.048 77.770,303.933 76.000,310.000" stroke-width="6.750" stroke="rgb(33,33,33)" fill="none" stroke-linecap="round"></path><path d="M 76.000,310.000 C 74.270,315.933 74.443,315.986 73.000,322.000" stroke-width="7.235" stroke="rgb(33,33,33)" fill="none" stroke-linecap="round"></path><path d="M 73.000,322.000 C 71.443,328.486 71.094,328.435 70.000,335.000" stroke-width="6.750" stroke="rgb(33,33,33)" fill="none" stroke-linecap="round"></path><path d="M 70.000,335.000 C 69.094,340.435 69.276,340.490 69.000,346.000" stroke-width="7.229" stroke="rgb(33,33,33)" fill="none" stroke-linecap="round"></path><path d="M 69.000,346.000 C 68.776,350.490 68.736,350.516 69.000,355.000" stroke-width="8.014" stroke="rgb(33,33,33)" fill="none" stroke-linecap="round"></path><path d="M 69.000,355.000 C 69.236,359.016 69.159,359.077 70.000,363.000" stroke-width="8.695" stroke="rgb(33,33,33)" fill="none" stroke-linecap="round"></path><path d="M 70.000,363.000 C 70.659,366.077 70.866,366.051 72.000,369.000" stroke-width="9.509" stroke="rgb(33,33,33)" fill="none" stroke-linecap="round"></path><path d="M 72.000,369.000 C 73.366,372.551 72.992,372.844 75.000,376.000" stroke-width="10.294" stroke="rgb(33,33,33)" fill="none" stroke-linecap="round"></path><path d="M 75.000,376.000 C 76.492,378.344 77.000,378.000 79.000,380.000" stroke-width="9.415" stroke="rgb(33,33,33)" fill="none" stroke-linecap="round"></path><path d="M 79.000,380.000 C 82.000,383.000 81.703,383.362 85.000,386.000" stroke-width="10.197" stroke="rgb(33,33,33)" fill="none" stroke-linecap="round"></path><path d="M 85.000,386.000 C 89.203,389.362 89.289,389.383 94.000,392.000" stroke-width="9.653" stroke="rgb(33,33,33)" fill="none" stroke-linecap="round"></path><path d="M 94.000,392.000 C 98.289,394.383 98.351,394.450 103.000,396.000" stroke-width="10.217" stroke="rgb(33,33,33)" fill="none" stroke-linecap="round"></path><path d="M 103.000,396.000 C 107.351,397.450 107.473,397.138 112.000,398.000" stroke-width="10.938" stroke="rgb(33,33,33)" fill="none" stroke-linecap="round"></path><path d="M 112.000,398.000 C 117.973,399.138 117.976,399.726 124.000,400.000" stroke-width="9.705" stroke="rgb(33,33,33)" fill="none" stroke-linecap="round"></path><path d="M 124.000,400.000 C 128.976,400.226 129.081,399.937 134.000,399.000" stroke-width="10.446" stroke="rgb(33,33,33)" fill="none" stroke-linecap="round"></path><path d="M 134.000,399.000 C 139.581,397.937 139.572,397.727 145.000,396.000" stroke-width="10.103" stroke="rgb(33,33,33)" fill="none" stroke-linecap="round"></path><path d="M 145.000,396.000 C 150.572,394.227 150.587,394.214 156.000,392.000" stroke-width="9.813" stroke="rgb(33,33,33)" fill="none" stroke-linecap="round"></path><path d="M 156.000,392.000 C 161.587,389.714 161.600,389.700 167.000,387.000" stroke-width="10.201" stroke="rgb(33,33,33)" fill="none" stroke-linecap="round"></path><path d="M 167.000,387.000 C 172.600,384.200 172.681,384.292 178.000,381.000" stroke-width="10.785" stroke="rgb(33,33,33)" fill="none" stroke-linecap="round"></path><path d="M 178.000,381.000 C 183.181,377.792 183.306,377.865 188.000,374.000" stroke-width="9.602" stroke="rgb(33,33,33)" fill="none" stroke-linecap="round"></path><path d="M 188.000,374.000 C 191.806,370.865 191.500,370.500 195.000,367.000" stroke-width="10.298" stroke="rgb(33,33,33)" fill="none" stroke-linecap="round"></path><path d="M 195.000,367.000 C 198.500,363.500 198.730,363.706 202.000,360.000" stroke-width="10.022" stroke="rgb(33,33,33)" fill="none" stroke-linecap="round"></path><path d="M 202.000,360.000 C 206.230,355.206 206.397,355.266 210.000,350.000" stroke-width="10.245" stroke="rgb(33,33,33)" fill="none" stroke-linecap="round"></path><path d="M 210.000,350.000 C 212.897,345.766 212.701,345.598 215.000,341.000" stroke-width="10.866" stroke="rgb(33,33,33)" fill="none" stroke-linecap="round"></path><path d="M 215.000,341.000 C 216.701,337.598 216.634,337.551 218.000,334.000" stroke-width="10.886" stroke="rgb(33,33,33)" fill="none" stroke-linecap="round"></path><path d="M 218.000,334.000 C 219.134,331.051 219.442,331.072 220.000,328.000" stroke-width="11.683" stroke="rgb(33,33,33)" fill="none" stroke-linecap="round"></path><path d="M 220.000,328.000 C 220.442,325.572 220.248,325.475 220.000,323.000" stroke-width="11.709" stroke="rgb(33,33,33)" fill="none" stroke-linecap="round"></path><path d="M 220.000,323.000 C 219.748,320.475 219.933,320.333 219.000,318.000" stroke-width="12.478" stroke="rgb(33,33,33)" fill="none" stroke-linecap="round"></path><path d="M 219.000,318.000 C 217.933,315.333 217.777,315.284 216.000,313.000" stroke-width="11.695" stroke="rgb(33,33,33)" fill="none" stroke-linecap="round"></path><path d="M 216.000,313.000 C 214.277,310.784 214.182,310.785 212.000,309.000" stroke-width="12.457" stroke="rgb(33,33,33)" fill="none" stroke-linecap="round"></path><path d="M 212.000,309.000 C 208.682,306.285 208.840,305.807 205.000,304.000" stroke-width="11.596" stroke="rgb(33,33,33)" fill="none" stroke-linecap="round"></path><path d="M 205.000,304.000 C 200.340,301.807 200.059,302.265 195.000,301.000" stroke-width="12.133" stroke="rgb(33,33,33)" fill="none" stroke-linecap="round"></path><path d="M 195.000,301.000 C 190.059,299.765 190.055,299.440 185.000,299.000" stroke-width="10.421" stroke="rgb(33,33,33)" fill="none" stroke-linecap="round"></path><path d="M 185.000,299.000 C 178.555,298.440 178.488,298.730 172.000,299.000" stroke-width="10.504" stroke="rgb(33,33,33)" fill="none" stroke-linecap="round"></path><path d="M 172.000,299.000 C 166.488,299.230 166.473,299.286 161.000,300.000" stroke-width="10.930" stroke="rgb(33,33,33)" fill="none" stroke-linecap="round"></path><path d="M 161.000,300.000 C 154.973,300.786 154.883,300.529 149.000,302.000" stroke-width="10.833" stroke="rgb(33,33,33)" fill="none" stroke-linecap="round"></path><path d="M 149.000,302.000 C 142.883,303.529 142.823,303.574 137.000,306.000" stroke-width="11.029" stroke="rgb(33,33,33)" fill="none" stroke-linecap="round"></path><path d="M 137.000,306.000 C 130.823,308.574 130.760,308.597 125.000,312.000" stroke-width="11.372" stroke="rgb(33,33,33)" fill="none" stroke-linecap="round"></path><path d="M 125.000,312.000 C 119.760,315.097 119.880,315.340 115.000,319.000" stroke-width="10.494" stroke="rgb(33,33,33)" fill="none" stroke-linecap="round"></path><path d="M 115.000,319.000 C 109.880,322.840 109.778,322.752 105.000,327.000" stroke-width="11.118" stroke="rgb(33,33,33)" fill="none" stroke-linecap="round"></path><path d="M 105.000,327.000 C 100.778,330.752 100.752,330.778 97.000,335.000" stroke-width="9.110" stroke="rgb(33,33,33)" fill="none" stroke-linecap="round"></path><path d="M 97.000,335.000 C 92.752,339.778 93.188,340.168 89.000,345.000" stroke-width="9.583" stroke="rgb(33,33,33)" fill="none" stroke-linecap="round"></path><path d="M 89.000,345.000 C 86.688,347.668 86.192,347.260 84.000,350.000" stroke-width="10.375" stroke="rgb(33,33,33)" fill="none" stroke-linecap="round"></path><path d="M 84.000,350.000 C 82.192,352.260 82.297,352.407 81.000,355.000" stroke-width="10.708" stroke="rgb(33,33,33)" fill="none" stroke-linecap="round"></path><path d="M 81.000,355.000 C 80.297,356.407 80.691,356.618 80.000,358.000" stroke-width="11.663" stroke="rgb(33,33,33)" fill="none" stroke-linecap="round"></path><path d="M 80.000,358.000 C 79.691,358.618 79.000,358.500 79.000,359.000" stroke-width="12.030" stroke="rgb(33,33,33)" fill="none" stroke-linecap="round"></path><path d="M 79.000,359.000 C 79.000,359.500 79.347,359.869 80.000,360.000" stroke-width="13.008" stroke="rgb(33,33,33)" fill="none" stroke-linecap="round"></path><path d="M 80.000,360.000 C 81.847,360.369 82.061,360.416 84.000,360.000" stroke-width="12.307" stroke="rgb(33,33,33)" fill="none" stroke-linecap="round"></path><path d="M 84.000,360.000 C 89.061,358.916 89.151,358.898 94.000,357.000" stroke-width="12.749" stroke="rgb(33,33,33)" fill="none" stroke-linecap="round"></path><path d="M 94.000,357.000 C 100.651,354.398 100.757,354.468 107.000,351.000" stroke-width="10.396" stroke="rgb(33,33,33)" fill="none" stroke-linecap="round"></path><path d="M 107.000,351.000 C 114.257,346.968 113.885,346.312 121.000,342.000" stroke-width="10.854" stroke="rgb(33,33,33)" fill="none" stroke-linecap="round"></path><path d="M 121.000,342.000 C 130.385,336.312 130.843,337.024 140.000,331.000" stroke-width="6.750" stroke="rgb(33,33,33)" fill="none" stroke-linecap="round"></path><path d="M 140.000,331.000 C 149.843,324.524 149.500,324.000 159.000,317.000" stroke-width="6.998" stroke="rgb(33,33,33)" fill="none" stroke-linecap="round"></path><path d="M 159.000,317.000 C 168.500,310.000 168.500,310.000 178.000,303.000" stroke-width="6.750" stroke="rgb(33,33,33)" fill="none" stroke-linecap="round"></path><path d="M 178.000,303.000 C 187.500,296.000 187.717,296.276 197.000,289.000" stroke-width="7.160" stroke="rgb(33,33,33)" fill="none" stroke-linecap="round"></path><path d="M 197.000,289.000 C 206.217,281.776 205.802,281.247 215.000,274.000" stroke-width="6.750" stroke="rgb(33,33,33)" fill="none" stroke-linecap="round"></path><path d="M 215.000,274.000 C 222.302,268.247 222.591,268.620 230.000,263.000" stroke-width="7.146" stroke="rgb(33,33,33)" fill="none" stroke-linecap="round"></path><path d="M 230.000,263.000 C 237.091,257.620 236.944,257.427 244.000,252.000" stroke-width="6.750" stroke="rgb(33,33,33)" fill="none" stroke-linecap="round"></path><path d="M 244.000,252.000 C 249.944,247.427 249.969,247.458 256.000,243.000" stroke-width="6.750" stroke="rgb(33,33,33)" fill="none" stroke-linecap="round"></path><path d="M 256.000,243.000 C 261.469,238.958 261.668,239.210 267.000,235.000" stroke-width="6.750" stroke="rgb(33,33,33)" fill="none" stroke-linecap="round"></path><path d="M 267.000,235.000 C 271.168,231.710 270.899,231.377 275.000,228.000" stroke-width="6.750" stroke="rgb(33,33,33)" fill="none" stroke-linecap="round"></path><path d="M 275.000,228.000 C 279.399,224.377 279.679,224.703 284.000,221.000" stroke-width="6.750" stroke="rgb(33,33,33)" fill="none" stroke-linecap="round"></path><path d="M 284.000,221.000 C 286.679,218.703 286.293,218.256 289.000,216.000" stroke-width="6.750" stroke="rgb(33,33,33)" fill="none" stroke-linecap="round"></path><path d="M 289.000,216.000 C 292.293,213.256 292.560,213.580 296.000,211.000" stroke-width="6.750" stroke="rgb(33,33,33)" fill="none" stroke-linecap="round"></path><path d="M 296.000,211.000 C 298.560,209.080 298.594,209.105 301.000,207.000" stroke-width="7.452" stroke="rgb(33,33,33)" fill="none" stroke-linecap="round"></path><path d="M 301.000,207.000 C 302.594,205.605 302.378,205.351 304.000,204.000" stroke-width="8.116" stroke="rgb(33,33,33)" fill="none" stroke-linecap="round"></path><path d="M 304.000,204.000 C 305.378,202.851 305.457,202.926 307.000,202.000" stroke-width="9.114" stroke="rgb(33,33,33)" fill="none" stroke-linecap="round"></path><path d="M 307.000,202.000 C 307.957,201.426 308.081,201.613 309.000,201.000" stroke-width="9.798" stroke="rgb(33,33,33)" fill="none" stroke-linecap="round"></path><path d="M 309.000,201.000 C 309.581,200.613 309.500,200.500 310.000,200.000" stroke-width="10.872" stroke="rgb(33,33,33)" fill="none" stroke-linecap="round"></path><path d="M 310.000,200.000 C 310.500,199.500 310.414,199.293 311.000,199.000" stroke-width="11.657" stroke="rgb(33,33,33)" fill="none" stroke-linecap="round"></path><path d="M 311.000,199.000 C 311.414,198.793 311.750,199.250 312.000,199.000" stroke-width="12.686" stroke="rgb(33,33,33)" fill="none" stroke-linecap="round"></path><path d="M 312.000,199.000 C 312.250,198.750 311.750,198.250 312.000,198.000" stroke-width="12.075" stroke="rgb(33,33,33)" fill="none" stroke-linecap="round"></path><path d="M 312.000,198.000 C 312.250,197.750 312.500,198.000 313.000,198.000" stroke-width="13.081" stroke="rgb(33,33,33)" fill="none" stroke-linecap="round"></path></svg>