<svg xmlns="http://www.w3.org/2000/svg" xmlns:xlink="http://www.w3.org/1999/xlink" viewBox="0 0 375 500"><path d="M 135.000,112.500 C 129.500,116.500 128.743,115.757 124.000,120.500" stroke-width="13.933" stroke="rgb(33,33,33)" fill="none" stroke-linecap="round"></path><path d="M 124.000,120.500 C 119.743,124.757 119.601,125.061 117.000,130.500" stroke-width="11.443" stroke="rgb(33,33,33)" fill="none" stroke-linecap="round"></path><path d="M 117.000,130.500 C 114.101,136.561 114.833,136.953 113.000,143.500" stroke-width="11.461" stroke="rgb(33,33,33)" fill="none" stroke-linecap="round"></path><path d="M 113.000,143.500 C 111.333,149.453 110.937,149.410 110.000,155.500" stroke-width="11.387" stroke="rgb(33,33,33)" fill="none" stroke-linecap="round"></path><path d="M 110.000,155.500 C 108.937,162.410 109.305,162.493 109.000,169.500" stroke-width="11.327" stroke="rgb(33,33,33)" fill="none" stroke-linecap="round"></path><path d="M 109.000,169.500 C 108.805,173.993 108.188,174.167 109.000,178.500" stroke-width="11.703" stroke="rgb(33,33,33)" fill="none" stroke-linecap="round"></path><path d="M 109.000,178.500 C 109.688,182.167 109.597,182.697 112.000,185.500" stroke-width="12.098" stroke="rgb(33,33,33)" fill="none" stroke-linecap="round"></path><path d="M 112.000,185.500 C 115.597,189.697 115.893,190.555 121.000,192.500" stroke-width="11.975" stroke="rgb(33,33,33)" fill="none" stroke-linecap="round"></path><path d="M 121.000,192.500 C 126.393,194.555 126.989,193.269 133.000,193.500" stroke-width="11.888" stroke="rgb(33,33,33)" fill="none" stroke-linecap="round"></path><path d="M 133.000,193.500 C 139.989,193.769 140.171,194.551 147.000,193.500" stroke-width="11.723" stroke="rgb(33,33,33)" fill="none" stroke-linecap="round"></path><path d="M 147.000,193.500 C 153.171,192.551 154.021,193.085 159.000,189.500" stroke-width="11.853" stroke="rgb(33,33,33)" fill="none" stroke-linecap="round"></path><path d="M 159.000,189.500 C 166.521,184.085 166.642,183.269 172.000,175.500" stroke-width="11.007" stroke="rgb(33,33,33)" fill="none" stroke-linecap="round"></path><path d="M 172.000,175.500 C 176.642,168.769 176.324,168.286 179.000,160.500" stroke-width="10.849" stroke="rgb(33,33,33)" fill="none" stroke-linecap="round"></path><path d="M 179.000,160.500 C 181.824,152.286 181.987,152.114 183.000,143.500" stroke-width="10.730" stroke="rgb(33,33,33)" fill="none" stroke-linecap="round"></path><path d="M 183.000,143.500 C 183.987,135.114 183.000,135.000 183.000,126.500" stroke-width="10.457" stroke="rgb(33,33,33)" fill="none" stroke-linecap="round"></path><path d="M 183.000,126.500 C 183.000,119.000 184.930,118.392 183.000,111.500" stroke-width="10.570" stroke="rgb(33,33,33)" fill="none" stroke-linecap="round"></path><path d="M 183.000,111.500 C 181.430,105.892 180.526,105.311 176.000,101.500" stroke-width="10.684" stroke="rgb(33,33,33)" fill="none" stroke-linecap="round"></path><path d="M 176.000,101.500 C 171.026,97.311 170.349,97.024 164.000,95.500" stroke-width="10.805" stroke="rgb(33,33,33)" fill="none" stroke-linecap="round"></path><path d="M 164.000,95.500 C 157.849,94.024 157.491,95.260 151.000,95.500" stroke-width="11.107" stroke="rgb(33,33,33)" fill="none" stroke-linecap="round"></path><path d="M 151.000,95.500 C 143.991,95.760 143.467,94.344 137.000,96.500" stroke-width="10.700" stroke="rgb(33,33,33)" fill="none" stroke-linecap="round"></path><path d="M 168.000,128.500 C 165.000,133.500 163.615,133.116 162.000,138.500" stroke-width="18.583" stroke="rgb(33,33,33)" fill="none" stroke-linecap="round"></path><path d="M 162.000,138.500 C 160.615,143.116 160.868,143.745 162.000,148.500" stroke-width="16.921" stroke="rgb(33,33,33)" fill="none" stroke-linecap="round"></path><path d="M 162.000,148.500 C 163.368,154.245 164.722,153.908 167.000,159.500" stroke-width="15.358" stroke="rgb(33,33,33)" fill="none" stroke-linecap="round"></path><path d="M 167.000,159.500 C 170.222,167.408 170.687,167.298 173.000,175.500" stroke-width="14.017" stroke="rgb(33,33,33)" fill="none" stroke-linecap="round"></path><path d="M 173.000,175.500 C 176.187,186.798 176.836,186.856 178.000,198.500" stroke-width="12.273" stroke="rgb(33,33,33)" fill="none" stroke-linecap="round"></path><path d="M 178.000,198.500 C 179.336,211.856 178.697,212.034 178.000,225.500" stroke-width="11.127" stroke="rgb(33,33,33)" fill="none" stroke-linecap="round"></path><path d="M 178.000,225.500 C 177.197,241.034 178.214,241.348 175.000,256.500" stroke-width="9.901" stroke="rgb(33,33,33)" fill="none" stroke-linecap="round"></path><path d="M 175.000,256.500 C 171.214,274.348 170.397,274.345 164.000,291.500" stroke-width="8.824" stroke="rgb(33,33,33)" fill="none" stroke-linecap="round"></path><path d="M 164.000,291.500 C 159.397,303.845 158.809,303.651 153.000,315.500" stroke-width="8.630" stroke="rgb(33,33,33)" fill="none" stroke-linecap="round"></path><path d="M 153.000,315.500 C 146.309,329.151 146.731,329.437 139.000,342.500" stroke-width="8.316" stroke="rgb(33,33,33)" fill="none" stroke-linecap="round"></path><path d="M 139.000,342.500 C 132.231,353.937 132.068,353.950 124.000,364.500" stroke-width="8.163" stroke="rgb(33,33,33)" fill="none" stroke-linecap="round"></path><path d="M 124.000,364.500 C 119.068,370.950 119.319,371.685 113.000,376.500" stroke-width="8.560" stroke="rgb(33,33,33)" fill="none" stroke-linecap="round"></path><path d="M 113.000,376.500 C 108.819,379.685 108.097,379.934 103.000,380.500" stroke-width="9.093" stroke="rgb(33,33,33)" fill="none" stroke-linecap="round"></path><path d="M 103.000,380.500 C 99.097,380.934 96.150,381.822 95.000,378.500" stroke-width="9.742" stroke="rgb(33,33,33)" fill="none" stroke-linecap="round"></path><path d="M 95.000,378.500 C 91.650,368.822 94.000,366.501 94.000,354.500" stroke-width="9.361" stroke="rgb(33,33,33)" fill="none" stroke-linecap="round"></path><path d="M 94.000,354.500 C 94.000,340.501 92.363,340.124 95.000,326.500" stroke-width="8.959" stroke="rgb(33,33,33)" fill="none" stroke-linecap="round"></path><path d="M 95.000,326.500 C 98.363,309.124 99.337,309.013 106.000,292.500" stroke-width="8.338" stroke="rgb(33,33,33)" fill="none" stroke-linecap="round"></path><path d="M 106.000,292.500 C 110.837,280.513 111.517,280.721 118.000,269.500" stroke-width="8.208" stroke="rgb(33,33,33)" fill="none" stroke-linecap="round"></path><path d="M 118.000,269.500 C 124.517,258.221 124.531,258.170 132.000,247.500" stroke-width="8.220" stroke="rgb(33,33,33)" fill="none" stroke-linecap="round"></path><path d="M 132.000,247.500 C 138.531,238.170 139.116,238.587 146.000,229.500" stroke-width="8.246" stroke="rgb(33,33,33)" fill="none" stroke-linecap="round"></path><path d="M 146.000,229.500 C 151.616,222.087 151.618,222.084 157.000,214.500" stroke-width="8.448" stroke="rgb(33,33,33)" fill="none" stroke-linecap="round"></path><path d="M 157.000,214.500 C 162.618,206.584 162.754,206.661 168.000,198.500" stroke-width="8.631" stroke="rgb(33,33,33)" fill="none" stroke-linecap="round"></path><path d="M 168.000,198.500 C 171.754,192.661 172.254,192.816 175.000,186.500" stroke-width="9.039" stroke="rgb(33,33,33)" fill="none" stroke-linecap="round"></path><path d="M 175.000,186.500 C 177.254,181.316 177.201,181.094 178.000,175.500" stroke-width="9.486" stroke="rgb(33,33,33)" fill="none" stroke-linecap="round"></path><path d="M 178.000,175.500 C 178.701,170.594 178.277,170.483 178.000,165.500" stroke-width="10.030" stroke="rgb(33,33,33)" fill="none" stroke-linecap="round"></path><path d="M 178.000,165.500 C 177.777,161.483 179.188,160.483 177.000,157.500" stroke-width="10.569" stroke="rgb(33,33,33)" fill="none" stroke-linecap="round"></path><path d="M 177.000,157.500 C 173.688,152.983 172.360,153.308 167.000,150.500" stroke-width="10.741" stroke="rgb(33,33,33)" fill="none" stroke-linecap="round"></path><path d="M 167.000,150.500 C 161.860,147.808 161.527,148.422 156.000,146.500" stroke-width="10.919" stroke="rgb(33,33,33)" fill="none" stroke-linecap="round"></path><path d="M 156.000,146.500 C 150.027,144.422 150.107,144.027 144.000,142.500" stroke-width="11.051" stroke="rgb(33,33,33)" fill="none" stroke-linecap="round"></path><path d="M 144.000,142.500 C 140.107,141.527 140.014,141.768 136.000,141.500" stroke-width="11.535" stroke="rgb(33,33,33)" fill="none" stroke-linecap="round"></path><path d="M 136.000,141.500 C 132.514,141.268 131.554,139.732 129.000,141.500" stroke-width="12.005" stroke="rgb(33,33,33)" fill="none" stroke-linecap="round"></path><path d="M 129.000,141.500 C 125.054,144.232 124.257,145.472 123.000,150.500" stroke-width="12.020" stroke="rgb(33,33,33)" fill="none" stroke-linecap="round"></path><path d="M 123.000,150.500 C 121.257,157.472 122.766,158.007 123.000,165.500" stroke-width="11.670" stroke="rgb(33,33,33)" fill="none" stroke-linecap="round"></path><path d="M 123.000,165.500 C 123.266,174.007 122.862,174.082 124.000,182.500" stroke-width="11.322" stroke="rgb(33,33,33)" fill="none" stroke-linecap="round"></path><path d="M 124.000,182.500 C 125.362,192.582 126.199,192.464 128.000,202.500" stroke-width="10.824" stroke="rgb(33,33,33)" fill="none" stroke-linecap="round"></path><path d="M 128.000,202.500 C 129.699,211.964 129.968,211.950 131.000,221.500" stroke-width="10.454" stroke="rgb(33,33,33)" fill="none" stroke-linecap="round"></path><path d="M 131.000,221.500 C 131.968,230.450 131.743,230.493 132.000,239.500" stroke-width="10.385" stroke="rgb(33,33,33)" fill="none" stroke-linecap="round"></path><path d="M 132.000,239.500 C 132.243,247.993 132.000,248.000 132.000,256.500" stroke-width="10.193" stroke="rgb(33,33,33)" fill="none" stroke-linecap="round"></path><path d="M 132.000,256.500 C 132.000,262.000 132.000,262.000 132.000,267.500" stroke-width="10.554" stroke="rgb(33,33,33)" fill="none" stroke-linecap="round"></path><path d="M 132.000,267.500 C 132.000,272.000 132.000,272.000 132.000,276.500" stroke-width="11.000" stroke="rgb(33,33,33)" fill="none" stroke-linecap="round"></path><path d="M 132.000,276.500 C 132.000,279.000 132.000,279.000 132.000,281.500" stroke-width="11.695" stroke="rgb(33,33,33)" fill="none" stroke-linecap="round"></path><path d="M 132.000,281.500 C 132.000,282.500 132.653,283.010 132.000,283.500" stroke-width="12.576" stroke="rgb(33,33,33)" fill="none" stroke-linecap="round"></path><path d="M 132.000,283.500 C 130.653,284.510 130.000,284.667 128.000,284.500" stroke-width="13.178" stroke="rgb(33,33,33)" fill="none" stroke-linecap="round"></path><path d="M 128.000,284.500 C 124.000,284.167 123.455,284.532 120.000,282.500" stroke-width="13.267" stroke="rgb(33,33,33)" fill="none" stroke-linecap="round"></path><path d="M 120.000,282.500 C 114.955,279.532 115.153,278.842 111.000,274.500" stroke-width="13.024" stroke="rgb(33,33,33)" fill="none" stroke-linecap="round"></path><path d="M 111.000,274.500 C 104.153,267.342 102.979,267.942 98.000,259.500" stroke-width="11.852" stroke="rgb(33,33,33)" fill="none" stroke-linecap="round"></path><path d="M 98.000,259.500 C 91.479,248.442 91.582,247.917 88.000,235.500" stroke-width="10.813" stroke="rgb(33,33,33)" fill="none" stroke-linecap="round"></path><path d="M 88.000,235.500 C 84.082,221.917 83.973,221.610 83.000,207.500" stroke-width="9.962" stroke="rgb(33,33,33)" fill="none" stroke-linecap="round"></path><path d="M 83.000,207.500 C 81.973,192.610 80.225,191.710 84.000,177.500" stroke-width="9.292" stroke="rgb(33,33,33)" fill="none" stroke-linecap="round"></path><path d="M 84.000,177.500 C 88.725,159.710 90.710,159.758 100.000,143.500" stroke-width="8.391" stroke="rgb(33,33,33)" fill="none" stroke-linecap="round"></path><path d="M 100.000,143.500 C 108.710,128.258 109.267,128.423 120.000,114.500" stroke-width="7.877" stroke="rgb(33,33,33)" fill="none" stroke-linecap="round"></path><path d="M 120.000,114.500 C 127.767,104.423 127.525,103.860 137.000,95.500" stroke-width="7.920" stroke="rgb(33,33,33)" fill="none" stroke-linecap="round"></path><path d="M 137.000,95.500 C 144.525,88.860 145.169,89.372 154.000,84.500" stroke-width="8.154" stroke="rgb(33,33,33)" fill="none" stroke-linecap="round"></path><path d="M 154.000,84.500 C 159.669,81.372 159.796,80.628 166.000,79.500" stroke-width="8.580" stroke="rgb(33,33,33)" fill="none" stroke-linecap="round"></path><path d="M 166.000,79.500 C 170.796,78.628 172.820,77.519 176.000,80.500" stroke-width="9.178" stroke="rgb(33,33,33)" fill="none" stroke-linecap="round"></path><path d="M 176.000,80.500 C 180.820,85.019 180.676,87.121 182.000,94.500" stroke-width="9.444" stroke="rgb(33,33,33)" fill="none" stroke-linecap="round"></path><path d="M 182.000,94.500 C 184.176,106.621 182.750,106.995 183.000,119.500" stroke-width="9.088" stroke="rgb(33,33,33)" fill="none" stroke-linecap="round"></path><path d="M 183.000,119.500 C 183.250,131.995 183.705,132.038 183.000,144.500" stroke-width="8.959" stroke="rgb(33,33,33)" fill="none" stroke-linecap="round"></path><path d="M 183.000,144.500 C 182.205,158.538 182.704,158.735 180.000,172.500" stroke-width="8.655" stroke="rgb(33,33,33)" fill="none" stroke-linecap="round"></path><path d="M 180.000,172.500 C 177.204,186.735 176.156,186.547 172.000,200.500" stroke-width="8.314" stroke="rgb(33,33,33)" fill="none" stroke-linecap="round"></path><path d="M 172.000,200.500 C 169.156,210.047 169.058,210.019 166.000,219.500" stroke-width="8.498" stroke="rgb(33,33,33)" fill="none" stroke-linecap="round"></path><path d="M 166.000,219.500 C 164.058,225.519 163.782,225.442 162.000,231.500" stroke-width="8.943" stroke="rgb(33,33,33)" fill="none" stroke-linecap="round"></path><path d="M 162.000,231.500 C 161.282,233.942 160.533,236.500 161.000,236.500" stroke-width="9.775" stroke="rgb(33,33,33)" fill="none" stroke-linecap="round"></path><path d="M 161.000,236.500 C 161.533,236.500 162.154,233.742 164.000,231.500" stroke-width="10.700" stroke="rgb(33,33,33)" fill="none" stroke-linecap="round"></path><path d="M 164.000,231.500 C 169.154,225.242 169.007,224.948 175.000,219.500" stroke-width="10.740" stroke="rgb(33,33,33)" fill="none" stroke-linecap="round"></path><path d="M 175.000,219.500 C 180.007,214.948 180.035,214.325 186.000,211.500" stroke-width="10.781" stroke="rgb(33,33,33)" fill="none" stroke-linecap="round"></path><path d="M 186.000,211.500 C 189.535,209.825 189.988,210.809 194.000,210.500" stroke-width="11.187" stroke="rgb(33,33,33)" fill="none" stroke-linecap="round"></path><path d="M 194.000,210.500 C 196.488,210.309 196.750,209.750 199.000,210.500" stroke-width="11.863" stroke="rgb(33,33,33)" fill="none" stroke-linecap="round"></path><path d="M 199.000,210.500 C 201.250,211.250 202.524,211.238 203.000,213.500" stroke-width="12.466" stroke="rgb(33,33,33)" fill="none" stroke-linecap="round"></path><path d="M 203.000,213.500 C 204.524,220.738 204.840,221.911 203.000,229.500" stroke-width="11.998" stroke="rgb(33,33,33)" fill="none" stroke-linecap="round"></path><path d="M 203.000,229.500 C 200.840,238.411 199.902,238.534 195.000,246.500" stroke-width="11.344" stroke="rgb(33,33,33)" fill="none" stroke-linecap="round"></path><path d="M 195.000,246.500 C 187.902,258.034 187.712,258.094 179.000,268.500" stroke-width="10.578" stroke="rgb(33,33,33)" fill="none" stroke-linecap="round"></path><path d="M 179.000,268.500 C 169.712,279.594 169.825,279.934 159.000,289.500" stroke-width="9.560" stroke="rgb(33,33,33)" fill="none" stroke-linecap="round"></path><path d="M 159.000,289.500 C 148.325,298.934 148.071,298.956 136.000,306.500" stroke-width="8.992" stroke="rgb(33,33,33)" fill="none" stroke-linecap="round"></path><path d="M 136.000,306.500 C 128.071,311.456 127.653,310.871 119.000,314.500" stroke-width="9.054" stroke="rgb(33,33,33)" fill="none" stroke-linecap="round"></path><path d="M 119.000,314.500 C 112.153,317.371 112.049,317.150 105.000,319.500" stroke-width="9.357" stroke="rgb(33,33,33)" fill="none" stroke-linecap="round"></path><path d="M 135.000,268.500 C 132.500,266.500 130.920,267.259 130.000,264.500" stroke-width="18.434" stroke="rgb(33,33,33)" fill="none" stroke-linecap="round"></path><path d="M 130.000,264.500 C 128.420,259.759 129.359,258.945 130.000,253.500" stroke-width="16.760" stroke="rgb(33,33,33)" fill="none" stroke-linecap="round"></path><path d="M 130.000,253.500 C 131.359,241.945 130.902,241.701 134.000,230.500" stroke-width="14.201" stroke="rgb(33,33,33)" fill="none" stroke-linecap="round"></path><path d="M 134.000,230.500 C 137.402,218.201 138.041,218.308 143.000,206.500" stroke-width="12.330" stroke="rgb(33,33,33)" fill="none" stroke-linecap="round"></path><path d="M 143.000,206.500 C 148.541,193.308 148.700,193.353 155.000,180.500" stroke-width="10.818" stroke="rgb(33,33,33)" fill="none" stroke-linecap="round"></path><path d="M 155.000,180.500 C 161.200,167.853 161.396,167.945 168.000,155.500" stroke-width="9.981" stroke="rgb(33,33,33)" fill="none" stroke-linecap="round"></path><path d="M 168.000,155.500 C 174.396,143.445 173.059,142.383 181.000,131.500" stroke-width="9.444" stroke="rgb(33,33,33)" fill="none" stroke-linecap="round"></path><path d="M 181.000,131.500 C 186.559,123.883 187.283,123.930 195.000,118.500" stroke-width="9.400" stroke="rgb(33,33,33)" fill="none" stroke-linecap="round"></path><path d="M 195.000,118.500 C 200.783,114.430 201.214,114.197 208.000,112.500" stroke-width="9.681" stroke="rgb(33,33,33)" fill="none" stroke-linecap="round"></path><path d="M 208.000,112.500 C 213.214,111.197 215.268,109.554 219.000,112.500" stroke-width="10.110" stroke="rgb(33,33,33)" fill="none" stroke-linecap="round"></path><path d="M 219.000,112.500 C 224.768,117.054 225.262,119.390 227.000,127.500" stroke-width="10.051" stroke="rgb(33,33,33)" fill="none" stroke-linecap="round"></path><path d="M 227.000,127.500 C 229.762,140.390 227.759,140.995 228.000,154.500" stroke-width="9.508" stroke="rgb(33,33,33)" fill="none" stroke-linecap="round"></path><path d="M 228.000,154.500 C 228.259,168.995 229.484,169.152 228.000,183.500" stroke-width="9.020" stroke="rgb(33,33,33)" fill="none" stroke-linecap="round"></path><path d="M 228.000,183.500 C 226.484,198.152 224.961,197.992 222.000,212.500" stroke-width="8.558" stroke="rgb(33,33,33)" fill="none" stroke-linecap="round"></path><path d="M 222.000,212.500 C 219.961,222.492 219.938,222.488 218.000,232.500" stroke-width="8.680" stroke="rgb(33,33,33)" fill="none" stroke-linecap="round"></path><path d="M 218.000,232.500 C 216.938,237.988 217.350,238.101 216.000,243.500" stroke-width="9.179" stroke="rgb(33,33,33)" fill="none" stroke-linecap="round"></path><path d="M 216.000,243.500 C 215.350,246.101 215.265,246.392 214.000,248.500" stroke-width="9.984" stroke="rgb(33,33,33)" fill="none" stroke-linecap="round"></path><path d="M 214.000,248.500 C 213.765,248.892 213.031,248.969 213.000,248.500" stroke-width="11.040" stroke="rgb(33,33,33)" fill="none" stroke-linecap="round"></path><path d="M 213.000,248.500 C 212.531,241.469 212.635,240.986 213.000,233.500" stroke-width="10.982" stroke="rgb(33,33,33)" fill="none" stroke-linecap="round"></path><path d="M 213.000,233.500 C 213.635,220.486 213.059,220.360 215.000,207.500" stroke-width="10.119" stroke="rgb(33,33,33)" fill="none" stroke-linecap="round"></path><path d="M 215.000,207.500 C 217.059,193.860 217.175,193.761 221.000,180.500" stroke-width="9.524" stroke="rgb(33,33,33)" fill="none" stroke-linecap="round"></path><path d="M 221.000,180.500 C 224.675,167.761 224.779,167.681 230.000,155.500" stroke-width="9.148" stroke="rgb(33,33,33)" fill="none" stroke-linecap="round"></path><path d="M 230.000,155.500 C 233.779,146.681 233.584,146.323 239.000,138.500" stroke-width="9.157" stroke="rgb(33,33,33)" fill="none" stroke-linecap="round"></path><path d="M 239.000,138.500 C 242.584,133.323 242.741,132.421 248.000,129.500" stroke-width="9.595" stroke="rgb(33,33,33)" fill="none" stroke-linecap="round"></path><path d="M 248.000,129.500 C 251.741,127.421 252.525,128.276 257.000,128.500" stroke-width="10.117" stroke="rgb(33,33,33)" fill="none" stroke-linecap="round"></path><path d="M 257.000,128.500 C 262.525,128.776 264.597,126.907 268.000,130.500" stroke-width="10.433" stroke="rgb(33,33,33)" fill="none" stroke-linecap="round"></path><path d="M 268.000,130.500 C 273.597,136.407 272.841,138.647 275.000,147.500" stroke-width="10.347" stroke="rgb(33,33,33)" fill="none" stroke-linecap="round"></path><path d="M 275.000,147.500 C 277.841,159.147 277.277,159.452 278.000,171.500" stroke-width="9.792" stroke="rgb(33,33,33)" fill="none" stroke-linecap="round"></path><path d="M 278.000,171.500 C 278.777,184.452 278.000,184.500 278.000,197.500" stroke-width="9.374" stroke="rgb(33,33,33)" fill="none" stroke-linecap="round"></path><path d="M 278.000,197.500 C 278.000,209.500 279.106,209.615 278.000,221.500" stroke-width="9.088" stroke="rgb(33,33,33)" fill="none" stroke-linecap="round"></path><path d="M 278.000,221.500 C 277.106,231.115 276.000,231.000 274.000,240.500" stroke-width="9.159" stroke="rgb(33,33,33)" fill="none" stroke-linecap="round"></path><path d="M 274.000,240.500 C 272.000,250.000 272.422,250.114 270.000,259.500" stroke-width="9.216" stroke="rgb(33,33,33)" fill="none" stroke-linecap="round"></path><path d="M 270.000,259.500 C 268.422,265.614 268.000,265.500 266.000,271.500" stroke-width="9.570" stroke="rgb(33,33,33)" fill="none" stroke-linecap="round"></path><path d="M 266.000,271.500 C 264.500,276.000 264.965,276.243 263.000,280.500" stroke-width="10.163" stroke="rgb(33,33,33)" fill="none" stroke-linecap="round"></path><path d="M 263.000,280.500 C 261.965,282.743 261.754,282.746 260.000,284.500" stroke-width="10.855" stroke="rgb(33,33,33)" fill="none" stroke-linecap="round"></path><path d="M 260.000,284.500 C 257.754,286.746 257.686,286.791 255.000,288.500" stroke-width="11.483" stroke="rgb(33,33,33)" fill="none" stroke-linecap="round"></path><path d="M 103.000,225.500 C 109.000,220.500 108.060,218.672 115.000,215.500" stroke-width="16.942" stroke="rgb(33,33,33)" fill="none" stroke-linecap="round"></path><path d="M 115.000,215.500 C 125.560,210.672 126.357,211.829 138.000,209.500" stroke-width="13.934" stroke="rgb(33,33,33)" fill="none" stroke-linecap="round"></path><path d="M 138.000,209.500 C 158.857,205.329 158.925,205.478 180.000,202.500" stroke-width="11.031" stroke="rgb(33,33,33)" fill="none" stroke-linecap="round"></path><path d="M 180.000,202.500 C 204.925,198.978 204.954,199.051 230.000,196.500" stroke-width="8.654" stroke="rgb(33,33,33)" fill="none" stroke-linecap="round"></path></svg>