<svg xmlns="http://www.w3.org/2000/svg" xmlns:xlink="http://www.w3.org/1999/xlink" viewBox="0 0 360 500"><path d="M 145.635,93.688 C 144.470,108.654 145.150,108.732 143.305,123.619" stroke-width="18.730" stroke="rgb(33,33,33)" fill="none" stroke-linecap="round"></path><path d="M 143.305,123.619 C 140.439,146.737 140.698,146.845 136.213,169.698" stroke-width="12.551" stroke="rgb(33,33,33)" fill="none" stroke-linecap="round"></path><path d="M 136.213,169.698 C 132.169,190.303 131.840,190.284 126.246,210.534" stroke-width="10.044" stroke="rgb(33,33,33)" fill="none" stroke-linecap="round"></path><path d="M 126.246,210.534 C 120.440,231.553 120.504,231.617 113.412,252.235" stroke-width="8.912" stroke="rgb(33,33,33)" fill="none" stroke-linecap="round"></path><path d="M 18.457,188.219 C 25.676,172.232 22.801,170.350 32.894,156.245" stroke-width="18.249" stroke="rgb(33,33,33)" fill="none" stroke-linecap="round"></path><path d="M 32.894,156.245 C 50.270,131.963 51.018,131.414 73.395,111.444" stroke-width="10.990" stroke="rgb(33,33,33)" fill="none" stroke-linecap="round"></path><path d="M 73.395,111.444 C 92.318,94.555 93.719,95.794 115.494,82.527" stroke-width="8.901" stroke="rgb(33,33,33)" fill="none" stroke-linecap="round"></path><path d="M 115.494,82.527 C 137.113,69.354 137.057,68.735 160.183,58.564" stroke-width="7.739" stroke="rgb(33,33,33)" fill="none" stroke-linecap="round"></path><path d="M 160.183,58.564 C 179.776,49.946 180.119,49.309 200.932,44.950" stroke-width="7.493" stroke="rgb(33,33,33)" fill="none" stroke-linecap="round"></path><path d="M 200.932,44.950 C 214.816,42.042 216.053,41.510 229.577,44.030" stroke-width="7.131" stroke="rgb(33,33,33)" fill="none" stroke-linecap="round"></path><path d="M 229.577,44.030 C 237.569,45.519 238.937,46.761 243.963,52.967" stroke-width="7.582" stroke="rgb(33,33,33)" fill="none" stroke-linecap="round"></path><path d="M 243.963,52.967 C 248.852,59.004 249.371,60.640 249.406,68.517" stroke-width="8.002" stroke="rgb(33,33,33)" fill="none" stroke-linecap="round"></path><path d="M 249.406,68.517 C 249.450,78.318 248.741,79.353 244.120,88.323" stroke-width="8.163" stroke="rgb(33,33,33)" fill="none" stroke-linecap="round"></path><path d="M 244.120,88.323 C 237.285,101.589 236.644,101.837 226.494,112.990" stroke-width="7.969" stroke="rgb(33,33,33)" fill="none" stroke-linecap="round"></path><path d="M 226.494,112.990 C 212.988,127.831 212.478,127.664 196.809,140.310" stroke-width="7.479" stroke="rgb(33,33,33)" fill="none" stroke-linecap="round"></path><path d="M 196.809,140.310 C 178.342,155.213 178.210,155.281 158.221,168.088" stroke-width="6.840" stroke="rgb(33,33,33)" fill="none" stroke-linecap="round"></path><path d="M 158.221,168.088 C 137.563,181.323 137.368,181.227 115.516,192.394" stroke-width="6.750" stroke="rgb(33,33,33)" fill="none" stroke-linecap="round"></path><path d="M 115.516,192.394 C 96.730,201.994 96.527,201.758 76.945,209.622" stroke-width="6.750" stroke="rgb(33,33,33)" fill="none" stroke-linecap="round"></path><path d="M 76.945,209.622 C 61.485,215.831 61.523,216.606 45.431,220.541" stroke-width="6.750" stroke="rgb(33,33,33)" fill="none" stroke-linecap="round"></path><path d="M 45.431,220.541 C 34.729,223.158 34.158,223.338 23.357,222.727" stroke-width="6.757" stroke="rgb(33,33,33)" fill="none" stroke-linecap="round"></path><path d="M 23.357,222.727 C 18.014,222.425 17.041,221.910 13.143,218.716" stroke-width="7.427" stroke="rgb(33,33,33)" fill="none" stroke-linecap="round"></path><path d="M 13.143,218.716 C 10.762,216.765 10.678,215.583 10.798,212.436" stroke-width="8.231" stroke="rgb(33,33,33)" fill="none" stroke-linecap="round"></path><path d="M 10.798,212.436 C 10.951,208.433 11.644,208.114 13.688,204.416" stroke-width="8.927" stroke="rgb(33,33,33)" fill="none" stroke-linecap="round"></path><path d="M 13.688,204.416 C 16.653,199.054 16.220,198.236 20.816,194.317" stroke-width="9.335" stroke="rgb(33,33,33)" fill="none" stroke-linecap="round"></path><path d="M 20.816,194.317 C 27.091,188.967 27.587,188.661 35.430,185.879" stroke-width="9.539" stroke="rgb(33,33,33)" fill="none" stroke-linecap="round"></path><path d="M 35.430,185.879 C 44.908,182.517 45.366,182.537 55.458,182.028" stroke-width="9.404" stroke="rgb(33,33,33)" fill="none" stroke-linecap="round"></path><path d="M 55.458,182.028 C 66.236,181.484 66.562,181.635 77.169,183.774" stroke-width="9.294" stroke="rgb(33,33,33)" fill="none" stroke-linecap="round"></path><path d="M 77.169,183.774 C 88.850,186.129 89.008,186.409 100.035,191.016" stroke-width="9.100" stroke="rgb(33,33,33)" fill="none" stroke-linecap="round"></path><path d="M 100.035,191.016 C 112.482,196.216 112.619,196.320 124.117,203.388" stroke-width="8.734" stroke="rgb(33,33,33)" fill="none" stroke-linecap="round"></path><path d="M 124.117,203.388 C 135.304,210.264 134.810,211.080 145.404,218.904" stroke-width="8.563" stroke="rgb(33,33,33)" fill="none" stroke-linecap="round"></path><path d="M 145.404,218.904 C 155.880,226.641 155.619,227.006 166.257,234.510" stroke-width="8.444" stroke="rgb(33,33,33)" fill="none" stroke-linecap="round"></path><path d="M 166.257,234.510 C 177.402,242.372 177.146,242.885 188.969,249.635" stroke-width="8.233" stroke="rgb(33,33,33)" fill="none" stroke-linecap="round"></path><path d="M 188.969,249.635 C 201.676,256.890 201.905,256.614 215.316,262.519" stroke-width="7.990" stroke="rgb(33,33,33)" fill="none" stroke-linecap="round"></path><path d="M 215.316,262.519 C 229.839,268.913 229.975,268.647 244.837,274.233" stroke-width="7.785" stroke="rgb(33,33,33)" fill="none" stroke-linecap="round"></path><path d="M 244.837,274.233 C 260.191,280.004 260.306,279.697 275.749,285.232" stroke-width="7.593" stroke="rgb(33,33,33)" fill="none" stroke-linecap="round"></path><path d="M 221.484,116.813 C 229.110,104.914 229.332,105.051 236.737,93.016" stroke-width="18.652" stroke="rgb(33,33,33)" fill="none" stroke-linecap="round"></path><path d="M 236.737,93.016 C 245.692,78.461 247.067,79.011 254.205,63.632" stroke-width="13.769" stroke="rgb(33,33,33)" fill="none" stroke-linecap="round"></path><path d="M 254.205,63.632 C 258.810,53.711 259.342,52.962 260.223,42.417" stroke-width="12.256" stroke="rgb(33,33,33)" fill="none" stroke-linecap="round"></path><path d="M 260.223,42.417 C 260.639,37.436 259.697,36.574 256.800,32.580" stroke-width="12.366" stroke="rgb(33,33,33)" fill="none" stroke-linecap="round"></path><path d="M 256.800,32.580 C 254.444,29.331 253.665,28.846 249.718,27.931" stroke-width="12.532" stroke="rgb(33,33,33)" fill="none" stroke-linecap="round"></path><path d="M 249.718,27.931 C 244.158,26.642 243.510,26.745 237.787,28.172" stroke-width="12.459" stroke="rgb(33,33,33)" fill="none" stroke-linecap="round"></path><path d="M 237.787,28.172 C 225.296,31.288 224.561,30.709 213.289,37.017" stroke-width="11.412" stroke="rgb(33,33,33)" fill="none" stroke-linecap="round"></path><path d="M 213.289,37.017 C 194.813,47.355 193.925,47.523 178.291,61.464" stroke-width="9.252" stroke="rgb(33,33,33)" fill="none" stroke-linecap="round"></path><path d="M 178.291,61.464 C 172.332,66.777 173.290,68.120 170.103,75.525" stroke-width="9.399" stroke="rgb(33,33,33)" fill="none" stroke-linecap="round"></path><path d="M 170.103,75.525 C 167.523,81.520 166.143,82.165 166.756,88.265" stroke-width="9.698" stroke="rgb(33,33,33)" fill="none" stroke-linecap="round"></path><path d="M 166.756,88.265 C 167.317,93.849 168.262,94.921 172.452,98.893" stroke-width="10.019" stroke="rgb(33,33,33)" fill="none" stroke-linecap="round"></path><path d="M 172.452,98.893 C 177.450,103.632 178.387,103.530 185.131,105.688" stroke-width="10.287" stroke="rgb(33,33,33)" fill="none" stroke-linecap="round"></path><path d="M 185.131,105.688 C 192.330,107.992 192.771,107.994 200.338,107.818" stroke-width="10.230" stroke="rgb(33,33,33)" fill="none" stroke-linecap="round"></path><path d="M 200.338,107.818 C 207.383,107.654 207.890,107.696 214.356,105.008" stroke-width="10.425" stroke="rgb(33,33,33)" fill="none" stroke-linecap="round"></path><path d="M 214.356,105.008 C 220.445,102.477 220.575,101.891 225.449,97.379" stroke-width="10.535" stroke="rgb(33,33,33)" fill="none" stroke-linecap="round"></path><path d="M 225.449,97.379 C 229.256,93.854 229.280,93.473 231.718,88.934" stroke-width="10.833" stroke="rgb(33,33,33)" fill="none" stroke-linecap="round"></path><path d="M 231.718,88.934 C 233.010,86.529 233.147,85.808 232.909,83.491" stroke-width="11.499" stroke="rgb(33,33,33)" fill="none" stroke-linecap="round"></path><path d="M 232.909,83.491 C 232.821,82.638 232.035,82.791 231.066,82.594" stroke-width="12.401" stroke="rgb(33,33,33)" fill="none" stroke-linecap="round"></path><path d="M 231.066,82.594 C 230.200,82.418 230.054,82.389 229.239,82.746" stroke-width="13.254" stroke="rgb(33,33,33)" fill="none" stroke-linecap="round"></path><path d="M 229.239,82.746 C 227.727,83.409 227.691,83.520 226.412,84.634" stroke-width="13.848" stroke="rgb(33,33,33)" fill="none" stroke-linecap="round"></path><path d="M 226.412,84.634 C 221.964,88.508 221.659,88.277 217.785,92.721" stroke-width="13.343" stroke="rgb(33,33,33)" fill="none" stroke-linecap="round"></path><path d="M 217.785,92.721 C 210.976,100.533 210.888,100.570 205.047,109.146" stroke-width="12.209" stroke="rgb(33,33,33)" fill="none" stroke-linecap="round"></path><path d="M 205.047,109.146 C 197.916,119.616 197.923,119.691 191.842,130.814" stroke-width="11.093" stroke="rgb(33,33,33)" fill="none" stroke-linecap="round"></path><path d="M 191.842,130.814 C 183.692,145.722 183.660,145.756 176.586,161.208" stroke-width="9.710" stroke="rgb(33,33,33)" fill="none" stroke-linecap="round"></path><path d="M 176.586,161.208 C 168.490,178.893 168.024,178.781 161.502,197.088" stroke-width="8.705" stroke="rgb(33,33,33)" fill="none" stroke-linecap="round"></path><path d="M 161.502,197.088 C 154.168,217.675 154.081,217.773 148.874,238.996" stroke-width="8.030" stroke="rgb(33,33,33)" fill="none" stroke-linecap="round"></path><path d="M 148.874,238.996 C 144.040,258.701 143.160,258.815 141.421,278.944" stroke-width="7.339" stroke="rgb(33,33,33)" fill="none" stroke-linecap="round"></path><path d="M 141.421,278.944 C 139.938,296.114 139.360,296.809 142.429,313.594" stroke-width="7.193" stroke="rgb(33,33,33)" fill="none" stroke-linecap="round"></path><path d="M 142.429,313.594 C 144.704,326.035 145.006,327.086 152.108,337.395" stroke-width="7.302" stroke="rgb(33,33,33)" fill="none" stroke-linecap="round"></path><path d="M 152.108,337.395 C 158.622,346.850 159.486,347.866 169.660,353.122" stroke-width="7.463" stroke="rgb(33,33,33)" fill="none" stroke-linecap="round"></path><path d="M 169.660,353.122 C 181.210,359.088 182.493,359.689 195.557,359.839" stroke-width="7.541" stroke="rgb(33,33,33)" fill="none" stroke-linecap="round"></path><path d="M 195.557,359.839 C 211.893,360.026 213.254,360.002 228.460,353.797" stroke-width="7.386" stroke="rgb(33,33,33)" fill="none" stroke-linecap="round"></path><path d="M 228.460,353.797 C 246.128,346.587 246.585,345.423 261.304,333.009" stroke-width="7.103" stroke="rgb(33,33,33)" fill="none" stroke-linecap="round"></path><path d="M 261.304,333.009 C 276.061,320.563 276.333,319.918 287.412,304.078" stroke-width="6.823" stroke="rgb(33,33,33)" fill="none" stroke-linecap="round"></path><path d="M 287.412,304.078 C 298.103,288.792 298.369,288.220 304.843,270.756" stroke-width="6.750" stroke="rgb(33,33,33)" fill="none" stroke-linecap="round"></path><path d="M 304.843,270.756 C 310.371,255.843 310.369,255.147 311.417,239.323" stroke-width="6.750" stroke="rgb(33,33,33)" fill="none" stroke-linecap="round"></path><path d="M 311.417,239.323 C 312.252,226.702 313.308,225.084 308.609,213.865" stroke-width="6.951" stroke="rgb(33,33,33)" fill="none" stroke-linecap="round"></path><path d="M 308.609,213.865 C 304.764,204.685 303.199,202.895 294.329,198.524" stroke-width="7.361" stroke="rgb(33,33,33)" fill="none" stroke-linecap="round"></path><path d="M 294.329,198.524 C 284.094,193.481 282.246,194.054 270.398,195.038" stroke-width="7.436" stroke="rgb(33,33,33)" fill="none" stroke-linecap="round"></path><path d="M 270.398,195.038 C 252.308,196.540 251.924,197.708 234.454,203.496" stroke-width="7.261" stroke="rgb(33,33,33)" fill="none" stroke-linecap="round"></path><path d="M 234.454,203.496 C 213.031,210.594 213.207,211.433 192.613,220.811" stroke-width="6.832" stroke="rgb(33,33,33)" fill="none" stroke-linecap="round"></path><path d="M 192.613,220.811 C 169.815,231.193 169.813,231.298 147.671,243.016" stroke-width="6.750" stroke="rgb(33,33,33)" fill="none" stroke-linecap="round"></path><path d="M 147.671,243.016 C 130.355,252.180 130.210,252.068 113.696,262.574" stroke-width="6.750" stroke="rgb(33,33,33)" fill="none" stroke-linecap="round"></path><path d="M 113.696,262.574 C 102.644,269.605 101.361,268.877 92.540,278.089" stroke-width="6.750" stroke="rgb(33,33,33)" fill="none" stroke-linecap="round"></path><path d="M 92.540,278.089 C 87.666,283.179 86.338,284.637 86.306,291.178" stroke-width="7.184" stroke="rgb(33,33,33)" fill="none" stroke-linecap="round"></path><circle r="6" cx="313.85699462890625" cy="141.343994140625" fill="rgb(33,33,33)"></circle></svg>