<svg xmlns="http://www.w3.org/2000/svg" xmlns:xlink="http://www.w3.org/1999/xlink" viewBox="0 0 360 500"><path d="M 91.670,190.656 C 95.589,185.384 94.732,184.555 99.507,180.111" stroke-width="19.773" stroke="rgb(33,33,33)" fill="none" stroke-linecap="round"></path><path d="M 99.507,180.111 C 110.694,169.698 111.538,170.511 123.593,160.941" stroke-width="14.422" stroke="rgb(33,33,33)" fill="none" stroke-linecap="round"></path><path d="M 123.593,160.941 C 135.534,151.461 135.369,151.243 147.499,142.010" stroke-width="11.513" stroke="rgb(33,33,33)" fill="none" stroke-linecap="round"></path><path d="M 147.499,142.010 C 161.730,131.177 161.591,130.950 176.316,120.807" stroke-width="10.208" stroke="rgb(33,33,33)" fill="none" stroke-linecap="round"></path><path d="M 176.316,120.807 C 191.907,110.068 191.866,109.924 208.131,100.246" stroke-width="8.835" stroke="rgb(33,33,33)" fill="none" stroke-linecap="round"></path><path d="M 208.131,100.246 C 223.650,91.012 223.714,91.020 239.885,82.982" stroke-width="8.147" stroke="rgb(33,33,33)" fill="none" stroke-linecap="round"></path><path d="M 239.885,82.982 C 254.166,75.883 254.212,75.832 269.035,69.972" stroke-width="7.898" stroke="rgb(33,33,33)" fill="none" stroke-linecap="round"></path><path d="M 269.035,69.972 C 279.605,65.793 279.689,65.690 290.672,62.904" stroke-width="8.130" stroke="rgb(33,33,33)" fill="none" stroke-linecap="round"></path><path d="M 290.672,62.904 C 296.288,61.479 296.882,61.146 302.233,61.549" stroke-width="8.585" stroke="rgb(33,33,33)" fill="none" stroke-linecap="round"></path><path d="M 302.233,61.549 C 303.658,61.656 304.244,62.659 304.225,63.925" stroke-width="9.536" stroke="rgb(33,33,33)" fill="none" stroke-linecap="round"></path><path d="M 304.225,63.925 C 304.200,65.563 303.404,65.802 302.146,67.358" stroke-width="10.390" stroke="rgb(33,33,33)" fill="none" stroke-linecap="round"></path><path d="M 302.146,67.358 C 298.432,71.954 298.184,71.767 294.281,76.228" stroke-width="10.617" stroke="rgb(33,33,33)" fill="none" stroke-linecap="round"></path><path d="M 294.281,76.228 C 283.843,88.158 284.021,88.316 273.463,100.139" stroke-width="9.912" stroke="rgb(33,33,33)" fill="none" stroke-linecap="round"></path><path d="M 273.463,100.139 C 261.320,113.737 261.651,114.075 248.880,127.071" stroke-width="8.454" stroke="rgb(33,33,33)" fill="none" stroke-linecap="round"></path><path d="M 248.880,127.071 C 235.804,140.377 235.427,140.016 221.770,152.742" stroke-width="7.924" stroke="rgb(33,33,33)" fill="none" stroke-linecap="round"></path><path d="M 221.770,152.742 C 208.559,165.053 208.528,165.021 195.145,177.144" stroke-width="7.511" stroke="rgb(33,33,33)" fill="none" stroke-linecap="round"></path><path d="M 195.145,177.144 C 182.705,188.413 182.753,188.471 170.125,199.528" stroke-width="7.359" stroke="rgb(33,33,33)" fill="none" stroke-linecap="round"></path><path d="M 170.125,199.528 C 159.294,209.011 159.124,208.815 148.228,218.224" stroke-width="7.334" stroke="rgb(33,33,33)" fill="none" stroke-linecap="round"></path><path d="M 148.228,218.224 C 138.556,226.576 138.420,226.430 128.990,235.050" stroke-width="7.473" stroke="rgb(33,33,33)" fill="none" stroke-linecap="round"></path><path d="M 128.990,235.050 C 120.408,242.895 120.477,242.980 112.204,251.154" stroke-width="7.666" stroke="rgb(33,33,33)" fill="none" stroke-linecap="round"></path><path d="M 112.204,251.154 C 104.436,258.829 104.482,258.879 96.907,266.746" stroke-width="7.830" stroke="rgb(33,33,33)" fill="none" stroke-linecap="round"></path><path d="M 96.907,266.746 C 90.222,273.688 90.063,273.555 83.684,280.772" stroke-width="8.114" stroke="rgb(33,33,33)" fill="none" stroke-linecap="round"></path><path d="M 83.684,280.772 C 78.621,286.500 78.763,286.634 74.023,292.636" stroke-width="8.481" stroke="rgb(33,33,33)" fill="none" stroke-linecap="round"></path><path d="M 74.023,292.636 C 71.485,295.850 71.530,295.888 69.127,299.204" stroke-width="9.199" stroke="rgb(33,33,33)" fill="none" stroke-linecap="round"></path><path d="M 69.127,299.204 C 68.204,300.478 68.106,300.447 67.372,301.816" stroke-width="10.110" stroke="rgb(33,33,33)" fill="none" stroke-linecap="round"></path><path d="M 67.372,301.816 C 67.092,302.338 67.050,302.465 67.100,302.985" stroke-width="11.148" stroke="rgb(33,33,33)" fill="none" stroke-linecap="round"></path><path d="M 67.100,302.985 C 67.122,303.214 67.272,303.229 67.515,303.313" stroke-width="12.200" stroke="rgb(33,33,33)" fill="none" stroke-linecap="round"></path><path d="M 67.515,303.313 C 67.973,303.471 68.007,303.400 68.502,303.469" stroke-width="13.158" stroke="rgb(33,33,33)" fill="none" stroke-linecap="round"></path><path d="M 68.502,303.469 C 69.131,303.556 69.130,303.578 69.762,303.625" stroke-width="14.003" stroke="rgb(33,33,33)" fill="none" stroke-linecap="round"></path><path d="M 69.762,303.625 C 70.172,303.656 70.174,303.625 70.586,303.625" stroke-width="14.804" stroke="rgb(33,33,33)" fill="none" stroke-linecap="round"></path><path d="M 70.586,303.625 C 70.844,303.625 70.904,303.565 71.103,303.625" stroke-width="15.568" stroke="rgb(33,33,33)" fill="none" stroke-linecap="round"></path><path d="M 71.103,303.625 C 71.163,303.643 71.153,303.752 71.104,303.781" stroke-width="16.311" stroke="rgb(33,33,33)" fill="none" stroke-linecap="round"></path><path d="M 71.104,303.781 C 71.021,303.830 70.972,303.781 70.840,303.781" stroke-width="16.960" stroke="rgb(33,33,33)" fill="none" stroke-linecap="round"></path><path d="M 70.840,303.781 C 70.708,303.781 70.678,303.712 70.576,303.781" stroke-width="17.482" stroke="rgb(33,33,33)" fill="none" stroke-linecap="round"></path><path d="M 70.576,303.781 C 70.314,303.958 70.352,304.035 70.112,304.272" stroke-width="17.840" stroke="rgb(33,33,33)" fill="none" stroke-linecap="round"></path><path d="M 70.112,304.272 C 69.949,304.433 69.941,304.424 69.770,304.576" stroke-width="18.191" stroke="rgb(33,33,33)" fill="none" stroke-linecap="round"></path><path d="M 69.770,304.576 C 69.601,304.727 69.626,304.793 69.431,304.877" stroke-width="18.473" stroke="rgb(33,33,33)" fill="none" stroke-linecap="round"></path><path d="M 69.431,304.877 C 69.278,304.943 69.252,304.876 69.074,304.875" stroke-width="18.730" stroke="rgb(33,33,33)" fill="none" stroke-linecap="round"></path><path d="M 69.074,304.875 C 68.946,304.875 68.946,304.875 68.818,304.875" stroke-width="18.958" stroke="rgb(33,33,33)" fill="none" stroke-linecap="round"></path><path d="M 68.818,304.875 C 68.604,304.875 68.604,304.875 68.391,304.875" stroke-width="19.107" stroke="rgb(33,33,33)" fill="none" stroke-linecap="round"></path><path d="M 68.391,304.875 C 68.212,304.875 68.212,304.875 68.033,304.875" stroke-width="19.248" stroke="rgb(33,33,33)" fill="none" stroke-linecap="round"></path><path d="M 68.033,304.875 C 67.898,304.875 67.811,304.815 67.764,304.875" stroke-width="19.377" stroke="rgb(33,33,33)" fill="none" stroke-linecap="round"></path><path d="M 67.764,304.875 C 67.721,304.930 67.835,304.985 67.852,305.105" stroke-width="19.488" stroke="rgb(33,33,33)" fill="none" stroke-linecap="round"></path><path d="M 67.852,305.105 C 67.879,305.289 67.894,305.304 67.852,305.482" stroke-width="19.552" stroke="rgb(33,33,33)" fill="none" stroke-linecap="round"></path><path d="M 67.852,305.482 C 67.814,305.643 67.778,305.636 67.692,305.784" stroke-width="19.611" stroke="rgb(33,33,33)" fill="none" stroke-linecap="round"></path><path d="M 67.692,305.784 C 67.602,305.941 67.555,305.926 67.500,306.091" stroke-width="19.649" stroke="rgb(33,33,33)" fill="none" stroke-linecap="round"></path><path d="M 67.500,306.091 C 67.459,306.213 67.500,306.225 67.500,306.359" stroke-width="19.705" stroke="rgb(33,33,33)" fill="none" stroke-linecap="round"></path><path d="M 67.500,306.359 C 67.500,306.594 67.500,306.594 67.500,306.828" stroke-width="19.757" stroke="rgb(33,33,33)" fill="none" stroke-linecap="round"></path><path d="M 67.500,306.828 C 67.500,306.996 67.500,306.996 67.500,307.164" stroke-width="19.777" stroke="rgb(33,33,33)" fill="none" stroke-linecap="round"></path><path d="M 67.500,307.164 C 67.500,307.270 67.500,307.270 67.500,307.375" stroke-width="19.845" stroke="rgb(33,33,33)" fill="none" stroke-linecap="round"></path><path d="M 67.500,307.375 C 67.500,307.453 67.500,307.453 67.500,307.531" stroke-width="19.922" stroke="rgb(33,33,33)" fill="none" stroke-linecap="round"></path><path d="M 67.500,307.531 C 67.500,307.781 67.500,307.781 67.500,308.031" stroke-width="19.864" stroke="rgb(33,33,33)" fill="none" stroke-linecap="round"></path><path d="M 67.500,308.031 C 67.500,308.192 67.576,308.229 67.500,308.352" stroke-width="19.862" stroke="rgb(33,33,33)" fill="none" stroke-linecap="round"></path><path d="M 67.500,308.352 C 67.382,308.542 67.321,308.534 67.111,308.658" stroke-width="19.825" stroke="rgb(33,33,33)" fill="none" stroke-linecap="round"></path><path d="M 67.111,308.658 C 66.959,308.748 66.856,308.663 66.775,308.781" stroke-width="19.821" stroke="rgb(33,33,33)" fill="none" stroke-linecap="round"></path><path d="M 66.775,308.781 C 66.699,308.894 66.790,308.951 66.797,309.120" stroke-width="19.828" stroke="rgb(33,33,33)" fill="none" stroke-linecap="round"></path><path d="M 66.797,309.120 C 66.801,309.224 66.797,309.224 66.797,309.328" stroke-width="19.863" stroke="rgb(33,33,33)" fill="none" stroke-linecap="round"></path><path d="M 66.797,309.328 C 66.797,309.519 66.797,309.519 66.797,309.710" stroke-width="19.846" stroke="rgb(33,33,33)" fill="none" stroke-linecap="round"></path><path d="M 66.797,309.710 C 66.797,309.813 66.797,309.813 66.797,309.916" stroke-width="19.845" stroke="rgb(33,33,33)" fill="none" stroke-linecap="round"></path><path d="M 66.797,309.916 C 66.797,310.135 66.797,310.135 66.797,310.355" stroke-width="19.850" stroke="rgb(33,33,33)" fill="none" stroke-linecap="round"></path><path d="M 66.797,310.355 C 66.797,310.452 66.827,310.460 66.797,310.550" stroke-width="19.860" stroke="rgb(33,33,33)" fill="none" stroke-linecap="round"></path><path d="M 66.797,310.550 C 66.739,310.728 66.757,310.823 66.621,310.891" stroke-width="19.868" stroke="rgb(33,33,33)" fill="none" stroke-linecap="round"></path><path d="M 66.621,310.891 C 66.494,310.955 66.447,310.836 66.270,310.813" stroke-width="19.901" stroke="rgb(33,33,33)" fill="none" stroke-linecap="round"></path><path d="M 66.270,310.813 C 66.148,310.797 66.146,310.813 66.023,310.813" stroke-width="19.889" stroke="rgb(33,33,33)" fill="none" stroke-linecap="round"></path><path d="M 66.023,310.813 C 65.927,310.813 65.857,310.854 65.830,310.813" stroke-width="19.924" stroke="rgb(33,33,33)" fill="none" stroke-linecap="round"></path><path d="M 65.830,310.813 C 65.805,310.775 65.903,310.742 65.918,310.656" stroke-width="19.986" stroke="rgb(33,33,33)" fill="none" stroke-linecap="round"></path><path d="M 65.918,310.656 C 65.947,310.492 65.918,310.484 65.918,310.312" stroke-width="19.958" stroke="rgb(33,33,33)" fill="none" stroke-linecap="round"></path><path d="M 65.918,310.312 C 65.918,310.210 65.887,310.203 65.918,310.109" stroke-width="19.966" stroke="rgb(33,33,33)" fill="none" stroke-linecap="round"></path><path d="M 65.918,310.109 C 65.990,309.893 66.020,309.900 66.124,309.692" stroke-width="19.914" stroke="rgb(33,33,33)" fill="none" stroke-linecap="round"></path><path d="M 66.124,309.692 C 66.202,309.537 66.188,309.528 66.283,309.383" stroke-width="19.900" stroke="rgb(33,33,33)" fill="none" stroke-linecap="round"></path><path d="M 66.283,309.383 C 66.451,309.126 66.483,309.147 66.649,308.888" stroke-width="19.819" stroke="rgb(33,33,33)" fill="none" stroke-linecap="round"></path><path d="M 66.649,308.888 C 66.839,308.593 66.791,308.560 66.994,308.275" stroke-width="19.733" stroke="rgb(33,33,33)" fill="none" stroke-linecap="round"></path><path d="M 66.994,308.275 C 67.221,307.955 67.264,307.986 67.509,307.677" stroke-width="19.656" stroke="rgb(33,33,33)" fill="none" stroke-linecap="round"></path><path d="M 67.509,307.677 C 67.876,307.214 67.863,307.204 68.217,306.731" stroke-width="19.491" stroke="rgb(33,33,33)" fill="none" stroke-linecap="round"></path><path d="M 68.217,306.731 C 68.566,306.265 68.553,306.255 68.915,305.800" stroke-width="19.381" stroke="rgb(33,33,33)" fill="none" stroke-linecap="round"></path><path d="M 68.915,305.800 C 69.286,305.334 69.305,305.349 69.684,304.889" stroke-width="19.271" stroke="rgb(33,33,33)" fill="none" stroke-linecap="round"></path><path d="M 69.684,304.889 C 70.124,304.356 70.102,304.337 70.553,303.814" stroke-width="19.237" stroke="rgb(33,33,33)" fill="none" stroke-linecap="round"></path><path d="M 70.553,303.814 C 71.104,303.174 71.122,303.189 71.688,302.563" stroke-width="18.992" stroke="rgb(33,33,33)" fill="none" stroke-linecap="round"></path><path d="M 71.688,302.563 C 72.401,301.775 72.384,301.760 73.111,300.985" stroke-width="18.652" stroke="rgb(33,33,33)" fill="none" stroke-linecap="round"></path><path d="M 73.111,300.985 C 73.943,300.098 73.974,300.127 74.805,299.240" stroke-width="18.483" stroke="rgb(33,33,33)" fill="none" stroke-linecap="round"></path><path d="M 74.805,299.240 C 75.743,298.240 75.697,298.197 76.649,297.210" stroke-width="18.231" stroke="rgb(33,33,33)" fill="none" stroke-linecap="round"></path><path d="M 76.649,297.210 C 77.815,296.000 77.832,296.015 79.041,294.847" stroke-width="17.950" stroke="rgb(33,33,33)" fill="none" stroke-linecap="round"></path><path d="M 79.041,294.847 C 80.239,293.690 80.261,293.713 81.463,292.561" stroke-width="17.656" stroke="rgb(33,33,33)" fill="none" stroke-linecap="round"></path><path d="M 81.463,292.561 C 82.940,291.146 82.902,291.105 84.400,289.713" stroke-width="17.372" stroke="rgb(33,33,33)" fill="none" stroke-linecap="round"></path><path d="M 84.400,289.713 C 86.070,288.162 86.100,288.194 87.799,286.675" stroke-width="17.024" stroke="rgb(33,33,33)" fill="none" stroke-linecap="round"></path><path d="M 87.799,286.675 C 89.675,284.998 89.633,284.948 91.550,283.320" stroke-width="16.724" stroke="rgb(33,33,33)" fill="none" stroke-linecap="round"></path><path d="M 91.550,283.320 C 93.672,281.518 93.677,281.519 95.878,279.814" stroke-width="16.539" stroke="rgb(33,33,33)" fill="none" stroke-linecap="round"></path><path d="M 95.878,279.814 C 98.334,277.912 98.420,278.022 100.865,276.107" stroke-width="15.967" stroke="rgb(33,33,33)" fill="none" stroke-linecap="round"></path><path d="M 100.865,276.107 C 103.215,274.266 103.219,274.264 105.467,272.302" stroke-width="15.926" stroke="rgb(33,33,33)" fill="none" stroke-linecap="round"></path><path d="M 105.467,272.302 C 107.149,270.834 107.083,270.760 108.726,269.246" stroke-width="15.596" stroke="rgb(33,33,33)" fill="none" stroke-linecap="round"></path><path d="M 108.726,269.246 C 110.027,268.047 110.053,268.076 111.355,266.877" stroke-width="15.784" stroke="rgb(33,33,33)" fill="none" stroke-linecap="round"></path><path d="M 111.355,266.877 C 112.652,265.683 112.649,265.679 113.923,264.460" stroke-width="15.972" stroke="rgb(33,33,33)" fill="none" stroke-linecap="round"></path><path d="M 113.923,264.460 C 115.034,263.397 115.037,263.399 116.125,262.312" stroke-width="16.243" stroke="rgb(33,33,33)" fill="none" stroke-linecap="round"></path><path d="M 116.125,262.312 C 117.155,261.284 117.142,261.271 118.159,260.231" stroke-width="16.345" stroke="rgb(33,33,33)" fill="none" stroke-linecap="round"></path><path d="M 118.159,260.231 C 119.174,259.194 119.180,259.200 120.189,258.157" stroke-width="16.527" stroke="rgb(33,33,33)" fill="none" stroke-linecap="round"></path><path d="M 120.189,258.157 C 121.195,257.119 121.177,257.102 122.189,256.069" stroke-width="16.703" stroke="rgb(33,33,33)" fill="none" stroke-linecap="round"></path><path d="M 122.189,256.069 C 123.367,254.867 123.395,254.894 124.568,253.687" stroke-width="16.709" stroke="rgb(33,33,33)" fill="none" stroke-linecap="round"></path><path d="M 124.568,253.687 C 125.701,252.520 125.699,252.518 126.800,251.321" stroke-width="16.766" stroke="rgb(33,33,33)" fill="none" stroke-linecap="round"></path><path d="M 126.800,251.321 C 127.841,250.188 127.878,250.216 128.852,249.027" stroke-width="16.869" stroke="rgb(33,33,33)" fill="none" stroke-linecap="round"></path><path d="M 128.852,249.027 C 129.655,248.047 129.703,248.065 130.353,246.982" stroke-width="17.037" stroke="rgb(33,33,33)" fill="none" stroke-linecap="round"></path><path d="M 130.353,246.982 C 131.115,245.712 130.973,245.628 131.677,244.320" stroke-width="16.869" stroke="rgb(33,33,33)" fill="none" stroke-linecap="round"></path><path d="M 131.677,244.320 C 132.213,243.323 132.177,243.290 132.834,242.372" stroke-width="17.060" stroke="rgb(33,33,33)" fill="none" stroke-linecap="round"></path><path d="M 132.834,242.372 C 133.613,241.283 133.710,241.353 134.550,240.306" stroke-width="17.170" stroke="rgb(33,33,33)" fill="none" stroke-linecap="round"></path><path d="M 134.550,240.306 C 135.395,239.253 135.350,239.216 136.205,238.172" stroke-width="17.200" stroke="rgb(33,33,33)" fill="none" stroke-linecap="round"></path><path d="M 136.205,238.172 C 137.243,236.905 137.245,236.905 138.336,235.684" stroke-width="17.156" stroke="rgb(33,33,33)" fill="none" stroke-linecap="round"></path><path d="M 138.336,235.684 C 139.428,234.462 139.451,234.482 140.571,233.285" stroke-width="17.178" stroke="rgb(33,33,33)" fill="none" stroke-linecap="round"></path><path d="M 140.571,233.285 C 141.779,231.994 141.783,231.998 142.992,230.707" stroke-width="17.056" stroke="rgb(33,33,33)" fill="none" stroke-linecap="round"></path><path d="M 142.992,230.707 C 144.048,229.580 144.037,229.570 145.100,228.450" stroke-width="16.961" stroke="rgb(33,33,33)" fill="none" stroke-linecap="round"></path><path d="M 145.100,228.450 C 146.144,227.350 146.140,227.346 147.206,226.267" stroke-width="17.059" stroke="rgb(33,33,33)" fill="none" stroke-linecap="round"></path><path d="M 147.206,226.267 C 148.292,225.167 148.306,225.181 149.403,224.092" stroke-width="17.074" stroke="rgb(33,33,33)" fill="none" stroke-linecap="round"></path><path d="M 149.403,224.092 C 150.570,222.933 150.573,222.935 151.735,221.771" stroke-width="16.934" stroke="rgb(33,33,33)" fill="none" stroke-linecap="round"></path><path d="M 151.735,221.771 C 152.975,220.529 152.955,220.510 154.206,219.279" stroke-width="16.936" stroke="rgb(33,33,33)" fill="none" stroke-linecap="round"></path><path d="M 154.206,219.279 C 155.324,218.178 155.341,218.195 156.473,217.108" stroke-width="16.935" stroke="rgb(33,33,33)" fill="none" stroke-linecap="round"></path><path d="M 156.473,217.108 C 157.479,216.141 157.491,216.153 158.483,215.172" stroke-width="16.925" stroke="rgb(33,33,33)" fill="none" stroke-linecap="round"></path><path d="M 158.483,215.172 C 159.429,214.236 159.418,214.225 160.349,213.274" stroke-width="17.010" stroke="rgb(33,33,33)" fill="none" stroke-linecap="round"></path><path d="M 160.349,213.274 C 161.173,212.431 161.187,212.444 161.993,211.584" stroke-width="17.160" stroke="rgb(33,33,33)" fill="none" stroke-linecap="round"></path><path d="M 161.993,211.584 C 162.694,210.836 162.678,210.821 163.364,210.058" stroke-width="17.312" stroke="rgb(33,33,33)" fill="none" stroke-linecap="round"></path><path d="M 163.364,210.058 C 164.060,209.284 164.060,209.284 164.756,208.511" stroke-width="17.473" stroke="rgb(33,33,33)" fill="none" stroke-linecap="round"></path><path d="M 164.756,208.511 C 165.451,207.739 165.468,207.754 166.146,206.968" stroke-width="17.562" stroke="rgb(33,33,33)" fill="none" stroke-linecap="round"></path><path d="M 166.146,206.968 C 166.737,206.283 166.731,206.277 167.295,205.569" stroke-width="17.684" stroke="rgb(33,33,33)" fill="none" stroke-linecap="round"></path><path d="M 167.295,205.569 C 167.665,205.104 167.684,205.114 168.014,204.621" stroke-width="17.919" stroke="rgb(33,33,33)" fill="none" stroke-linecap="round"></path><path d="M 168.014,204.621 C 168.267,204.243 168.220,204.212 168.461,203.826" stroke-width="18.154" stroke="rgb(33,33,33)" fill="none" stroke-linecap="round"></path><path d="M 168.461,203.826 C 168.660,203.507 168.694,203.529 168.895,203.211" stroke-width="18.379" stroke="rgb(33,33,33)" fill="none" stroke-linecap="round"></path><path d="M 168.895,203.211 C 169.084,202.912 169.037,202.878 169.242,202.594" stroke-width="18.582" stroke="rgb(33,33,33)" fill="none" stroke-linecap="round"></path><path d="M 169.242,202.594 C 169.380,202.402 169.430,202.441 169.582,202.260" stroke-width="18.795" stroke="rgb(33,33,33)" fill="none" stroke-linecap="round"></path><path d="M 169.582,202.260 C 169.697,202.123 169.683,202.111 169.776,201.957" stroke-width="18.989" stroke="rgb(33,33,33)" fill="none" stroke-linecap="round"></path><path d="M 169.776,201.957 C 169.869,201.803 169.850,201.790 169.953,201.643" stroke-width="19.151" stroke="rgb(33,33,33)" fill="none" stroke-linecap="round"></path><path d="M 169.953,201.643 C 170.070,201.477 170.111,201.502 170.216,201.331" stroke-width="19.267" stroke="rgb(33,33,33)" fill="none" stroke-linecap="round"></path><path d="M 170.216,201.331 C 170.300,201.194 170.291,201.182 170.332,201.026" stroke-width="19.385" stroke="rgb(33,33,33)" fill="none" stroke-linecap="round"></path><path d="M 170.332,201.026 C 170.349,200.962 170.368,200.935 170.332,200.891" stroke-width="19.520" stroke="rgb(33,33,33)" fill="none" stroke-linecap="round"></path><path d="M 170.332,200.891 C 170.280,200.828 170.159,200.863 170.156,200.813" stroke-width="19.661" stroke="rgb(33,33,33)" fill="none" stroke-linecap="round"></path><path d="M 170.156,200.813 C 170.153,200.758 170.257,200.763 170.319,200.680" stroke-width="19.773" stroke="rgb(33,33,33)" fill="none" stroke-linecap="round"></path><path d="M 170.319,200.680 C 170.428,200.536 170.385,200.501 170.499,200.359" stroke-width="19.777" stroke="rgb(33,33,33)" fill="none" stroke-linecap="round"></path><path d="M 170.499,200.359 C 170.637,200.187 170.657,200.202 170.822,200.053" stroke-width="19.762" stroke="rgb(33,33,33)" fill="none" stroke-linecap="round"></path><path d="M 170.822,200.053 C 170.996,199.897 171.007,199.910 171.177,199.749" stroke-width="19.751" stroke="rgb(33,33,33)" fill="none" stroke-linecap="round"></path><path d="M 171.177,199.749 C 171.491,199.452 171.473,199.433 171.789,199.138" stroke-width="19.641" stroke="rgb(33,33,33)" fill="none" stroke-linecap="round"></path><path d="M 171.789,199.138 C 172.186,198.768 172.209,198.792 172.604,198.420" stroke-width="19.517" stroke="rgb(33,33,33)" fill="none" stroke-linecap="round"></path><path d="M 172.604,198.420 C 173.082,197.971 173.063,197.951 173.535,197.496" stroke-width="19.369" stroke="rgb(33,33,33)" fill="none" stroke-linecap="round"></path><path d="M 173.535,197.496 C 174.092,196.959 174.096,196.962 174.663,196.435" stroke-width="19.201" stroke="rgb(33,33,33)" fill="none" stroke-linecap="round"></path><path d="M 174.663,196.435 C 175.070,196.057 175.069,196.055 175.484,195.686" stroke-width="19.147" stroke="rgb(33,33,33)" fill="none" stroke-linecap="round"></path><path d="M 175.484,195.686 C 176.624,194.673 176.634,194.684 177.774,193.671" stroke-width="18.751" stroke="rgb(33,33,33)" fill="none" stroke-linecap="round"></path><path d="M 177.774,193.671 C 178.661,192.883 178.644,192.863 179.538,192.083" stroke-width="18.483" stroke="rgb(33,33,33)" fill="none" stroke-linecap="round"></path><path d="M 179.538,192.083 C 180.455,191.282 180.460,191.288 181.396,190.509" stroke-width="18.350" stroke="rgb(33,33,33)" fill="none" stroke-linecap="round"></path><path d="M 181.396,190.509 C 182.275,189.776 182.280,189.783 183.168,189.060" stroke-width="18.332" stroke="rgb(33,33,33)" fill="none" stroke-linecap="round"></path><path d="M 183.168,189.060 C 183.954,188.420 183.949,188.413 184.744,187.783" stroke-width="18.163" stroke="rgb(33,33,33)" fill="none" stroke-linecap="round"></path><path d="M 184.744,187.783 C 185.538,187.155 185.532,187.146 186.346,186.545" stroke-width="18.125" stroke="rgb(33,33,33)" fill="none" stroke-linecap="round"></path><path d="M 186.346,186.545 C 187.208,185.909 187.223,185.930 188.097,185.309" stroke-width="18.042" stroke="rgb(33,33,33)" fill="none" stroke-linecap="round"></path><path d="M 188.097,185.309 C 188.961,184.696 188.968,184.705 189.821,184.077" stroke-width="18.010" stroke="rgb(33,33,33)" fill="none" stroke-linecap="round"></path><path d="M 189.821,184.077 C 190.591,183.510 190.578,183.492 191.344,182.918" stroke-width="18.048" stroke="rgb(33,33,33)" fill="none" stroke-linecap="round"></path><path d="M 191.344,182.918 C 191.970,182.449 191.986,182.471 192.604,181.991" stroke-width="18.126" stroke="rgb(33,33,33)" fill="none" stroke-linecap="round"></path><path d="M 192.604,181.991 C 193.179,181.545 193.159,181.519 193.730,181.066" stroke-width="18.229" stroke="rgb(33,33,33)" fill="none" stroke-linecap="round"></path><path d="M 193.730,181.066 C 194.184,180.706 194.205,180.731 194.654,180.365" stroke-width="18.370" stroke="rgb(33,33,33)" fill="none" stroke-linecap="round"></path><path d="M 194.654,180.365 C 195.012,180.074 194.999,180.058 195.344,179.751" stroke-width="18.542" stroke="rgb(33,33,33)" fill="none" stroke-linecap="round"></path><path d="M 195.344,179.751 C 195.682,179.451 195.708,179.476 196.020,179.151" stroke-width="18.663" stroke="rgb(33,33,33)" fill="none" stroke-linecap="round"></path><path d="M 196.020,179.151 C 196.302,178.856 196.237,178.791 196.532,178.511" stroke-width="18.780" stroke="rgb(33,33,33)" fill="none" stroke-linecap="round"></path><path d="M 196.532,178.511 C 196.898,178.165 196.948,178.219 197.341,177.898" stroke-width="18.817" stroke="rgb(33,33,33)" fill="none" stroke-linecap="round"></path><path d="M 197.341,177.898 C 197.691,177.612 197.680,177.598 198.018,177.297" stroke-width="18.898" stroke="rgb(33,33,33)" fill="none" stroke-linecap="round"></path><path d="M 198.018,177.297 C 198.376,176.979 198.376,176.978 198.734,176.660" stroke-width="18.963" stroke="rgb(33,33,33)" fill="none" stroke-linecap="round"></path><path d="M 198.734,176.660 C 199.071,176.361 199.071,176.361 199.408,176.061" stroke-width="19.015" stroke="rgb(33,33,33)" fill="none" stroke-linecap="round"></path><path d="M 199.408,176.061 C 199.747,175.759 199.748,175.760 200.087,175.458" stroke-width="19.031" stroke="rgb(33,33,33)" fill="none" stroke-linecap="round"></path><path d="M 200.087,175.458 C 200.453,175.133 200.442,175.121 200.818,174.808" stroke-width="19.042" stroke="rgb(33,33,33)" fill="none" stroke-linecap="round"></path><path d="M 200.818,174.808 C 201.189,174.500 201.186,174.493 201.580,174.216" stroke-width="19.066" stroke="rgb(33,33,33)" fill="none" stroke-linecap="round"></path><path d="M 201.580,174.216 C 202.034,173.897 202.055,173.928 202.515,173.616" stroke-width="19.039" stroke="rgb(33,33,33)" fill="none" stroke-linecap="round"></path><path d="M 202.515,173.616 C 202.982,173.300 202.966,173.278 203.433,172.961" stroke-width="19.015" stroke="rgb(33,33,33)" fill="none" stroke-linecap="round"></path><path d="M 203.433,172.961 C 203.903,172.642 203.910,172.653 204.388,172.345" stroke-width="19.021" stroke="rgb(33,33,33)" fill="none" stroke-linecap="round"></path><path d="M 204.388,172.345 C 204.862,172.040 204.869,172.051 205.336,171.736" stroke-width="19.051" stroke="rgb(33,33,33)" fill="none" stroke-linecap="round"></path><path d="M 205.336,171.736 C 205.782,171.435 205.768,171.414 206.213,171.112" stroke-width="19.035" stroke="rgb(33,33,33)" fill="none" stroke-linecap="round"></path><path d="M 206.213,171.112 C 206.682,170.794 206.689,170.803 207.165,170.495" stroke-width="19.025" stroke="rgb(33,33,33)" fill="none" stroke-linecap="round"></path><path d="M 207.165,170.495 C 207.640,170.188 207.647,170.198 208.115,169.881" stroke-width="19.002" stroke="rgb(33,33,33)" fill="none" stroke-linecap="round"></path><path d="M 208.115,169.881 C 208.559,169.581 208.545,169.561 208.989,169.261" stroke-width="18.964" stroke="rgb(33,33,33)" fill="none" stroke-linecap="round"></path><path d="M 208.989,169.261 C 209.463,168.941 209.470,168.951 209.950,168.640" stroke-width="18.979" stroke="rgb(33,33,33)" fill="none" stroke-linecap="round"></path><path d="M 209.950,168.640 C 210.423,168.333 210.445,168.361 210.896,168.025" stroke-width="18.930" stroke="rgb(33,33,33)" fill="none" stroke-linecap="round"></path><path d="M 210.896,168.025 C 211.272,167.745 211.252,167.718 211.605,167.407" stroke-width="18.969" stroke="rgb(33,33,33)" fill="none" stroke-linecap="round"></path><path d="M 211.605,167.407 C 211.952,167.102 211.935,167.081 212.295,166.794" stroke-width="19.004" stroke="rgb(33,33,33)" fill="none" stroke-linecap="round"></path><path d="M 212.295,166.794 C 212.622,166.533 212.618,166.518 212.979,166.311" stroke-width="19.072" stroke="rgb(33,33,33)" fill="none" stroke-linecap="round"></path><path d="M 212.979,166.311 C 213.311,166.121 213.339,166.171 213.682,165.999" stroke-width="19.110" stroke="rgb(33,33,33)" fill="none" stroke-linecap="round"></path><path d="M 213.682,165.999 C 213.958,165.861 213.951,165.847 214.217,165.692" stroke-width="19.195" stroke="rgb(33,33,33)" fill="none" stroke-linecap="round"></path><path d="M 214.217,165.692 C 214.474,165.542 214.468,165.531 214.729,165.388" stroke-width="19.260" stroke="rgb(33,33,33)" fill="none" stroke-linecap="round"></path><path d="M 214.729,165.388 C 215.035,165.221 215.044,165.239 215.350,165.072" stroke-width="19.306" stroke="rgb(33,33,33)" fill="none" stroke-linecap="round"></path><path d="M 215.350,165.072 C 215.616,164.926 215.623,164.934 215.873,164.763" stroke-width="19.347" stroke="rgb(33,33,33)" fill="none" stroke-linecap="round"></path><path d="M 215.873,164.763 C 216.061,164.634 216.044,164.610 216.226,164.471" stroke-width="19.414" stroke="rgb(33,33,33)" fill="none" stroke-linecap="round"></path><path d="M 216.226,164.471 C 216.445,164.304 216.459,164.321 216.675,164.150" stroke-width="19.453" stroke="rgb(33,33,33)" fill="none" stroke-linecap="round"></path><path d="M 216.675,164.150 C 216.858,164.005 216.850,163.994 217.025,163.839" stroke-width="19.503" stroke="rgb(33,33,33)" fill="none" stroke-linecap="round"></path><path d="M 217.025,163.839 C 217.189,163.693 217.183,163.627 217.354,163.547" stroke-width="19.544" stroke="rgb(33,33,33)" fill="none" stroke-linecap="round"></path><path d="M 217.354,163.547 C 217.412,163.520 217.412,163.609 217.483,163.625" stroke-width="19.647" stroke="rgb(33,33,33)" fill="none" stroke-linecap="round"></path><path d="M 217.483,163.625 C 217.588,163.648 217.594,163.625 217.705,163.625" stroke-width="19.739" stroke="rgb(33,33,33)" fill="none" stroke-linecap="round"></path><path d="M 217.705,163.625 C 217.881,163.625 217.881,163.625 218.057,163.625" stroke-width="19.759" stroke="rgb(33,33,33)" fill="none" stroke-linecap="round"></path><path d="M 218.057,163.625 C 218.145,163.625 218.145,163.625 218.232,163.625" stroke-width="19.835" stroke="rgb(33,33,33)" fill="none" stroke-linecap="round"></path><path d="M 218.232,163.625 C 218.364,163.625 218.364,163.625 218.496,163.625" stroke-width="19.852" stroke="rgb(33,33,33)" fill="none" stroke-linecap="round"></path><path d="M 218.496,163.625 C 218.628,163.625 218.694,163.625 218.760,163.625" stroke-width="19.899" stroke="rgb(33,33,33)" fill="none" stroke-linecap="round"></path><path d="M 218.760,163.625 C 218.782,163.625 218.716,163.625 218.672,163.625" stroke-width="19.967" stroke="rgb(33,33,33)" fill="none" stroke-linecap="round"></path><path d="M 218.672,163.625 C 218.373,163.625 218.361,163.562 218.074,163.625" stroke-width="19.885" stroke="rgb(33,33,33)" fill="none" stroke-linecap="round"></path><path d="M 218.074,163.625 C 217.682,163.710 217.701,163.796 217.313,163.921" stroke-width="19.769" stroke="rgb(33,33,33)" fill="none" stroke-linecap="round"></path><path d="M 217.313,163.921 C 216.762,164.099 216.759,164.097 216.195,164.232" stroke-width="19.567" stroke="rgb(33,33,33)" fill="none" stroke-linecap="round"></path><path d="M 216.195,164.232 C 215.440,164.413 215.416,164.328 214.675,164.553" stroke-width="19.356" stroke="rgb(33,33,33)" fill="none" stroke-linecap="round"></path><path d="M 214.675,164.553 C 213.712,164.847 213.737,164.928 212.787,165.270" stroke-width="19.091" stroke="rgb(33,33,33)" fill="none" stroke-linecap="round"></path><path d="M 212.787,165.270 C 210.902,165.948 210.896,165.934 209.004,166.594" stroke-width="18.525" stroke="rgb(33,33,33)" fill="none" stroke-linecap="round"></path><path d="M 209.004,166.594 C 203.899,168.374 203.902,168.384 198.792,170.151" stroke-width="17.041" stroke="rgb(33,33,33)" fill="none" stroke-linecap="round"></path><path d="M 198.792,170.151 C 190.646,172.968 190.683,173.080 182.493,175.763" stroke-width="15.489" stroke="rgb(33,33,33)" fill="none" stroke-linecap="round"></path><path d="M 182.493,175.763 C 172.959,178.887 172.862,178.597 163.344,181.765" stroke-width="12.814" stroke="rgb(33,33,33)" fill="none" stroke-linecap="round"></path><path d="M 163.344,181.765 C 155.635,184.331 155.699,184.521 148.038,187.232" stroke-width="11.670" stroke="rgb(33,33,33)" fill="none" stroke-linecap="round"></path><path d="M 148.038,187.232 C 141.863,189.417 141.833,189.333 135.672,191.557" stroke-width="11.680" stroke="rgb(33,33,33)" fill="none" stroke-linecap="round"></path><path d="M 135.672,191.557 C 129.580,193.756 129.599,193.809 123.533,196.077" stroke-width="11.699" stroke="rgb(33,33,33)" fill="none" stroke-linecap="round"></path><path d="M 123.533,196.077 C 116.412,198.740 116.375,198.645 109.298,201.419" stroke-width="11.238" stroke="rgb(33,33,33)" fill="none" stroke-linecap="round"></path><path d="M 109.298,201.419 C 103.341,203.754 103.362,203.810 97.466,206.296" stroke-width="11.241" stroke="rgb(33,33,33)" fill="none" stroke-linecap="round"></path><path d="M 97.466,206.296 C 92.516,208.383 92.297,208.011 87.606,210.564" stroke-width="11.580" stroke="rgb(33,33,33)" fill="none" stroke-linecap="round"></path><path d="M 87.606,210.564 C 84.391,212.314 84.419,212.504 81.654,214.902" stroke-width="11.827" stroke="rgb(33,33,33)" fill="none" stroke-linecap="round"></path><path d="M 81.654,214.902 C 80.047,216.296 80.104,216.415 78.862,218.147" stroke-width="12.475" stroke="rgb(33,33,33)" fill="none" stroke-linecap="round"></path><path d="M 78.862,218.147 C 77.729,219.726 77.778,219.782 76.904,221.523" stroke-width="13.132" stroke="rgb(33,33,33)" fill="none" stroke-linecap="round"></path><path d="M 76.904,221.523 C 75.953,223.420 75.597,223.399 75.212,225.423" stroke-width="13.588" stroke="rgb(33,33,33)" fill="none" stroke-linecap="round"></path><path d="M 75.212,225.423 C 74.903,227.044 74.756,227.443 75.516,228.814" stroke-width="14.138" stroke="rgb(33,33,33)" fill="none" stroke-linecap="round"></path><path d="M 75.516,228.814 C 76.332,230.287 76.693,230.460 78.364,231.110" stroke-width="14.552" stroke="rgb(33,33,33)" fill="none" stroke-linecap="round"></path><path d="M 78.364,231.110 C 82.266,232.628 82.443,232.515 86.662,233.149" stroke-width="14.323" stroke="rgb(33,33,33)" fill="none" stroke-linecap="round"></path><path d="M 86.662,233.149 C 99.477,235.075 99.491,235.499 112.432,236.230" stroke-width="12.232" stroke="rgb(33,33,33)" fill="none" stroke-linecap="round"></path><path d="M 112.432,236.230 C 134.804,237.493 134.932,238.065 157.288,237.137" stroke-width="9.868" stroke="rgb(33,33,33)" fill="none" stroke-linecap="round"></path><path d="M 157.288,237.137 C 174.023,236.442 174.038,235.607 190.615,232.984" stroke-width="9.143" stroke="rgb(33,33,33)" fill="none" stroke-linecap="round"></path><path d="M 190.615,232.984 C 206.534,230.465 206.452,229.944 222.279,226.854" stroke-width="8.431" stroke="rgb(33,33,33)" fill="none" stroke-linecap="round"></path><path d="M 222.279,226.854 C 237.853,223.814 237.853,223.816 253.417,220.724" stroke-width="8.185" stroke="rgb(33,33,33)" fill="none" stroke-linecap="round"></path><path d="M 253.417,220.724 C 267.909,217.845 267.896,217.776 282.391,214.912" stroke-width="8.013" stroke="rgb(33,33,33)" fill="none" stroke-linecap="round"></path><path d="M 282.391,214.912 C 295.288,212.364 295.305,212.455 308.201,209.902" stroke-width="8.001" stroke="rgb(33,33,33)" fill="none" stroke-linecap="round"></path><path d="M 308.201,209.902 C 315.653,208.427 315.650,208.408 323.087,206.856" stroke-width="8.460" stroke="rgb(33,33,33)" fill="none" stroke-linecap="round"></path></svg>