<svg xmlns="http://www.w3.org/2000/svg" xmlns:xlink="http://www.w3.org/1999/xlink" viewBox="0 0 800 500"><circle r="6" cx="257.5" cy="177" fill="rgb(33,33,33)"></circle><path d="M 257.500,177.000 C 257.500,177.500 257.500,177.500 257.500,178.000" stroke-width="20.111" stroke="rgb(33,33,33)" fill="none" stroke-linecap="round"></path><path d="M 257.500,178.000 C 257.500,180.000 257.500,180.000 257.500,182.000" stroke-width="18.084" stroke="rgb(33,33,33)" fill="none" stroke-linecap="round"></path><path d="M 257.500,182.000 C 257.500,183.500 257.315,183.518 257.500,185.000" stroke-width="17.603" stroke="rgb(33,33,33)" fill="none" stroke-linecap="round"></path><path d="M 257.500,185.000 C 257.815,187.518 258.270,187.473 258.500,190.000" stroke-width="15.694" stroke="rgb(33,33,33)" fill="none" stroke-linecap="round"></path><path d="M 258.500,190.000 C 258.770,192.973 258.500,193.000 258.500,196.000" stroke-width="14.650" stroke="rgb(33,33,33)" fill="none" stroke-linecap="round"></path><path d="M 258.500,196.000 C 258.500,199.500 258.500,199.500 258.500,203.000" stroke-width="13.448" stroke="rgb(33,33,33)" fill="none" stroke-linecap="round"></path><path d="M 258.500,203.000 C 258.500,206.500 258.500,206.500 258.500,210.000" stroke-width="12.979" stroke="rgb(33,33,33)" fill="none" stroke-linecap="round"></path><path d="M 258.500,210.000 C 258.500,212.500 258.500,212.500 258.500,215.000" stroke-width="12.872" stroke="rgb(33,33,33)" fill="none" stroke-linecap="round"></path><path d="M 258.500,215.000 C 258.500,220.000 258.500,220.000 258.500,225.000" stroke-width="12.048" stroke="rgb(33,33,33)" fill="none" stroke-linecap="round"></path><path d="M 258.500,225.000 C 258.500,229.000 258.500,229.000 258.500,233.000" stroke-width="11.420" stroke="rgb(33,33,33)" fill="none" stroke-linecap="round"></path><path d="M 253.500,340.000 C 252.500,339.500 252.273,339.773 251.500,339.000" stroke-width="19.880" stroke="rgb(33,33,33)" fill="none" stroke-linecap="round"></path><path d="M 251.500,339.000 C 249.773,337.273 246.228,335.909 248.500,335.000" stroke-width="17.491" stroke="rgb(33,33,33)" fill="none" stroke-linecap="round"></path><path d="M 248.500,335.000 C 381.228,281.909 387.946,281.949 521.500,231.000" stroke-width="16.919" stroke="rgb(33,33,33)" fill="none" stroke-linecap="round"></path><path d="M 521.500,231.000 C 522.946,230.449 519.882,231.309 518.500,232.000" stroke-width="17.171" stroke="rgb(33,33,33)" fill="none" stroke-linecap="round"></path><path d="M 518.500,232.000 C 517.882,232.309 518.151,232.756 517.500,233.000" stroke-width="17.282" stroke="rgb(33,33,33)" fill="none" stroke-linecap="round"></path><path d="M 517.500,233.000 C 514.151,234.256 514.071,234.370 510.500,235.000" stroke-width="14.673" stroke="rgb(33,33,33)" fill="none" stroke-linecap="round"></path><path d="M 510.500,235.000 C 505.571,235.870 505.502,235.524 500.500,236.000" stroke-width="13.020" stroke="rgb(33,33,33)" fill="none" stroke-linecap="round"></path><path d="M 500.500,236.000 C 495.002,236.524 494.967,236.255 489.500,237.000" stroke-width="12.545" stroke="rgb(33,33,33)" fill="none" stroke-linecap="round"></path><path d="M 489.500,237.000 C 483.967,237.755 484.007,238.042 478.500,239.000" stroke-width="11.183" stroke="rgb(33,33,33)" fill="none" stroke-linecap="round"></path><path d="M 478.500,239.000 C 472.507,240.042 472.524,240.169 466.500,241.000" stroke-width="10.144" stroke="rgb(33,33,33)" fill="none" stroke-linecap="round"></path><path d="M 466.500,241.000 C 458.024,242.169 457.985,241.884 449.500,243.000" stroke-width="8.553" stroke="rgb(33,33,33)" fill="none" stroke-linecap="round"></path><path d="M 449.500,243.000 C 438.985,244.384 439.032,244.775 428.500,246.000" stroke-width="7.716" stroke="rgb(33,33,33)" fill="none" stroke-linecap="round"></path><path d="M 428.500,246.000 C 417.532,247.275 417.479,246.813 406.500,248.000" stroke-width="6.910" stroke="rgb(33,33,33)" fill="none" stroke-linecap="round"></path><path d="M 406.500,248.000 C 398.979,248.813 398.994,248.959 391.500,250.000" stroke-width="7.241" stroke="rgb(33,33,33)" fill="none" stroke-linecap="round"></path><path d="M 391.500,250.000 C 380.994,251.459 381.047,251.945 370.500,253.000" stroke-width="6.750" stroke="rgb(33,33,33)" fill="none" stroke-linecap="round"></path><path d="M 370.500,253.000 C 356.047,254.445 356.009,254.275 341.500,255.000" stroke-width="6.750" stroke="rgb(33,33,33)" fill="none" stroke-linecap="round"></path><path d="M 341.500,255.000 C 336.009,255.275 336.000,255.000 330.500,255.000" stroke-width="6.750" stroke="rgb(33,33,33)" fill="none" stroke-linecap="round"></path><path d="M 330.500,255.000 C 326.000,255.000 326.000,255.000 321.500,255.000" stroke-width="6.750" stroke="rgb(33,33,33)" fill="none" stroke-linecap="round"></path><path d="M 321.500,255.000 C 318.500,255.000 318.500,255.000 315.500,255.000" stroke-width="6.750" stroke="rgb(33,33,33)" fill="none" stroke-linecap="round"></path><path d="M 315.500,255.000 C 313.500,255.000 313.500,255.000 311.500,255.000" stroke-width="7.007" stroke="rgb(33,33,33)" fill="none" stroke-linecap="round"></path><path d="M 311.500,255.000 C 309.500,255.000 309.500,255.000 307.500,255.000" stroke-width="7.882" stroke="rgb(33,33,33)" fill="none" stroke-linecap="round"></path><path d="M 307.500,255.000 C 307.000,255.000 307.000,255.000 306.500,255.000" stroke-width="8.784" stroke="rgb(33,33,33)" fill="none" stroke-linecap="round"></path><path d="M 306.500,255.000 C 306.000,255.000 306.000,255.000 305.500,255.000" stroke-width="9.825" stroke="rgb(33,33,33)" fill="none" stroke-linecap="round"></path><path d="M 305.500,255.000 C 304.500,255.000 304.500,255.000 303.500,255.000" stroke-width="10.391" stroke="rgb(33,33,33)" fill="none" stroke-linecap="round"></path><path d="M 303.500,255.000 C 303.000,255.000 303.000,255.000 302.500,255.000" stroke-width="11.450" stroke="rgb(33,33,33)" fill="none" stroke-linecap="round"></path><path d="M 302.500,255.000 C 302.000,255.000 302.000,255.000 301.500,255.000" stroke-width="12.412" stroke="rgb(33,33,33)" fill="none" stroke-linecap="round"></path><path d="M 301.500,255.000 C 301.000,255.000 301.000,255.000 300.500,255.000" stroke-width="13.306" stroke="rgb(33,33,33)" fill="none" stroke-linecap="round"></path><path d="M 300.500,255.000 C 299.500,255.000 299.167,255.333 298.500,255.000" stroke-width="13.344" stroke="rgb(33,33,33)" fill="none" stroke-linecap="round"></path><path d="M 298.500,255.000 C 298.167,254.833 298.906,254.232 298.500,254.000" stroke-width="14.203" stroke="rgb(33,33,33)" fill="none" stroke-linecap="round"></path><path d="M 298.500,254.000 C 295.406,252.232 295.000,252.500 291.500,251.000" stroke-width="14.901" stroke="rgb(33,33,33)" fill="none" stroke-linecap="round"></path><path d="M 291.500,251.000 C 288.000,249.500 288.035,249.414 284.500,248.000" stroke-width="14.204" stroke="rgb(33,33,33)" fill="none" stroke-linecap="round"></path><path d="M 284.500,248.000 C 280.535,246.414 280.615,246.139 276.500,245.000" stroke-width="13.030" stroke="rgb(33,33,33)" fill="none" stroke-linecap="round"></path><path d="M 276.500,245.000 C 248.115,237.139 248.141,236.412 219.500,230.000" stroke-width="11.548" stroke="rgb(33,33,33)" fill="none" stroke-linecap="round"></path><path d="M 219.500,230.000 C 214.641,228.912 214.483,230.277 209.500,230.000" stroke-width="11.528" stroke="rgb(33,33,33)" fill="none" stroke-linecap="round"></path><path d="M 209.500,230.000 C 205.483,229.777 205.510,229.334 201.500,229.000" stroke-width="11.031" stroke="rgb(33,33,33)" fill="none" stroke-linecap="round"></path><path d="M 201.500,229.000 C 199.510,228.834 199.500,229.000 197.500,229.000" stroke-width="11.629" stroke="rgb(33,33,33)" fill="none" stroke-linecap="round"></path><path d="M 197.500,229.000 C 197.000,229.000 196.076,229.071 196.500,229.000" stroke-width="12.325" stroke="rgb(33,33,33)" fill="none" stroke-linecap="round"></path><path d="M 196.500,229.000 C 202.076,228.071 203.031,228.176 209.500,227.000" stroke-width="13.187" stroke="rgb(33,33,33)" fill="none" stroke-linecap="round"></path><path d="M 209.500,227.000 C 219.531,225.176 219.398,224.148 229.500,223.000" stroke-width="12.029" stroke="rgb(33,33,33)" fill="none" stroke-linecap="round"></path><path d="M 229.500,223.000 C 241.398,221.648 241.512,222.685 253.500,222.000" stroke-width="11.165" stroke="rgb(33,33,33)" fill="none" stroke-linecap="round"></path><path d="M 253.500,222.000 C 259.012,221.685 259.004,221.539 264.500,221.000" stroke-width="11.371" stroke="rgb(33,33,33)" fill="none" stroke-linecap="round"></path><path d="M 318.500,217.000 C 326.500,217.000 326.832,219.163 334.500,217.000" stroke-width="6.750" stroke="rgb(33,33,33)" fill="none" stroke-linecap="round"></path><path d="M 334.500,217.000 C 404.832,197.163 406.536,194.177 474.500,173.000" stroke-width="6.750" stroke="rgb(33,33,33)" fill="none" stroke-linecap="round"></path><path d="M 474.500,173.000 C 475.536,172.677 473.191,173.309 472.500,174.000" stroke-width="6.750" stroke="rgb(33,33,33)" fill="none" stroke-linecap="round"></path><path d="M 472.500,174.000 C 472.191,174.309 472.707,174.586 472.500,175.000" stroke-width="7.599" stroke="rgb(33,33,33)" fill="none" stroke-linecap="round"></path><path d="M 472.500,175.000 C 472.207,175.586 471.500,175.707 471.500,176.000" stroke-width="8.619" stroke="rgb(33,33,33)" fill="none" stroke-linecap="round"></path><path d="M 471.500,176.000 C 471.500,176.207 472.000,176.000 472.500,176.000" stroke-width="9.733" stroke="rgb(33,33,33)" fill="none" stroke-linecap="round"></path><path d="M 472.500,176.000 C 473.000,176.000 473.000,176.000 473.500,176.000" stroke-width="10.789" stroke="rgb(33,33,33)" fill="none" stroke-linecap="round"></path><path d="M 473.500,176.000 C 474.000,176.000 474.000,176.000 474.500,176.000" stroke-width="11.898" stroke="rgb(33,33,33)" fill="none" stroke-linecap="round"></path><path d="M 474.500,176.000 C 475.000,176.000 475.000,176.000 475.500,176.000" stroke-width="12.865" stroke="rgb(33,33,33)" fill="none" stroke-linecap="round"></path><path d="M 475.500,176.000 C 476.500,176.000 476.556,176.236 477.500,176.000" stroke-width="13.720" stroke="rgb(33,33,33)" fill="none" stroke-linecap="round"></path><path d="M 477.500,176.000 C 478.556,175.736 478.432,175.214 479.500,175.000" stroke-width="14.375" stroke="rgb(33,33,33)" fill="none" stroke-linecap="round"></path><path d="M 479.500,175.000 C 480.932,174.714 481.000,175.000 482.500,175.000" stroke-width="14.923" stroke="rgb(33,33,33)" fill="none" stroke-linecap="round"></path><path d="M 482.500,175.000 C 483.500,175.000 483.621,175.293 484.500,175.000" stroke-width="14.829" stroke="rgb(33,33,33)" fill="none" stroke-linecap="round"></path><path d="M 484.500,175.000 C 485.121,174.793 484.879,174.207 485.500,174.000" stroke-width="15.251" stroke="rgb(33,33,33)" fill="none" stroke-linecap="round"></path><path d="M 485.500,174.000 C 486.379,173.707 486.500,174.000 487.500,174.000" stroke-width="15.348" stroke="rgb(33,33,33)" fill="none" stroke-linecap="round"></path><path d="M 487.500,174.000 C 488.000,174.000 488.000,174.000 488.500,174.000" stroke-width="15.979" stroke="rgb(33,33,33)" fill="none" stroke-linecap="round"></path><path d="M 488.500,174.000 C 489.500,174.000 489.500,174.000 490.500,174.000" stroke-width="16.094" stroke="rgb(33,33,33)" fill="none" stroke-linecap="round"></path><path d="M 490.500,174.000 C 491.000,174.000 491.019,174.120 491.500,174.000" stroke-width="16.775" stroke="rgb(33,33,33)" fill="none" stroke-linecap="round"></path><path d="M 491.500,174.000 C 493.019,173.620 493.036,173.586 494.500,173.000" stroke-width="16.987" stroke="rgb(33,33,33)" fill="none" stroke-linecap="round"></path><path d="M 494.500,173.000 C 495.536,172.586 495.445,172.352 496.500,172.000" stroke-width="16.897" stroke="rgb(33,33,33)" fill="none" stroke-linecap="round"></path><path d="M 496.500,172.000 C 498.445,171.352 498.549,171.650 500.500,171.000" stroke-width="15.623" stroke="rgb(33,33,33)" fill="none" stroke-linecap="round"></path><path d="M 500.500,171.000 C 503.049,170.150 503.000,170.000 505.500,169.000" stroke-width="14.560" stroke="rgb(33,33,33)" fill="none" stroke-linecap="round"></path><path d="M 505.500,169.000 C 508.000,168.000 508.149,168.283 510.500,167.000" stroke-width="14.138" stroke="rgb(33,33,33)" fill="none" stroke-linecap="round"></path><path d="M 510.500,167.000 C 513.649,165.283 513.375,164.785 516.500,163.000" stroke-width="13.269" stroke="rgb(33,33,33)" fill="none" stroke-linecap="round"></path><path d="M 516.500,163.000 C 520.375,160.785 520.625,161.215 524.500,159.000" stroke-width="12.788" stroke="rgb(33,33,33)" fill="none" stroke-linecap="round"></path><path d="M 524.500,159.000 C 527.625,157.215 527.574,157.090 530.500,155.000" stroke-width="11.537" stroke="rgb(33,33,33)" fill="none" stroke-linecap="round"></path><path d="M 530.500,155.000 C 531.074,154.590 530.914,154.293 531.500,154.000" stroke-width="12.381" stroke="rgb(33,33,33)" fill="none" stroke-linecap="round"></path><circle r="6" cx="533.5" cy="153" fill="rgb(33,33,33)"></circle></svg>