<svg xmlns="http://www.w3.org/2000/svg" xmlns:xlink="http://www.w3.org/1999/xlink" viewBox="0 0 360 500"><path d="M 234.000,190.500 C 224.387,197.916 224.322,197.833 214.774,205.332" stroke-width="18.237" stroke="rgb(33,33,33)" fill="none" stroke-linecap="round"></path><path d="M 214.774,205.332 C 202.937,214.628 202.805,214.470 191.230,224.089" stroke-width="13.827" stroke="rgb(33,33,33)" fill="none" stroke-linecap="round"></path><path d="M 191.230,224.089 C 161.306,248.957 161.371,249.043 131.777,274.305" stroke-width="11.892" stroke="rgb(33,33,33)" fill="none" stroke-linecap="round"></path><path d="M 131.777,274.305 C 120.141,284.237 120.506,284.667 108.769,294.477" stroke-width="8.701" stroke="rgb(33,33,33)" fill="none" stroke-linecap="round"></path><path d="M 108.769,294.477 C 89.719,310.398 89.743,310.455 70.203,325.766" stroke-width="6.830" stroke="rgb(33,33,33)" fill="none" stroke-linecap="round"></path><path d="M 70.203,325.766 C 60.764,333.162 60.433,332.731 50.811,339.891" stroke-width="7.095" stroke="rgb(33,33,33)" fill="none" stroke-linecap="round"></path><path d="M 50.811,339.891 C 47.551,342.317 47.361,342.399 44.438,344.938" stroke-width="8.001" stroke="rgb(33,33,33)" fill="none" stroke-linecap="round"></path><path d="M 44.438,344.938 C 44.305,345.053 44.528,345.264 44.699,345.199" stroke-width="9.085" stroke="rgb(33,33,33)" fill="none" stroke-linecap="round"></path><path d="M 44.699,345.199 C 59.095,339.757 60.097,341.492 73.573,333.925" stroke-width="8.542" stroke="rgb(33,33,33)" fill="none" stroke-linecap="round"></path><path d="M 73.573,333.925 C 120.773,307.421 120.603,306.680 166.051,277.056" stroke-width="6.750" stroke="rgb(33,33,33)" fill="none" stroke-linecap="round"></path><path d="M 166.051,277.056 C 193.082,259.436 190.738,255.734 218.532,239.437" stroke-width="6.750" stroke="rgb(33,33,33)" fill="none" stroke-linecap="round"></path><path d="M 137.000,293.500 C 142.659,280.577 142.950,280.696 148.317,267.653" stroke-width="18.159" stroke="rgb(33,33,33)" fill="none" stroke-linecap="round"></path><path d="M 148.317,267.653 C 153.633,254.735 153.873,254.798 158.366,241.578" stroke-width="15.985" stroke="rgb(33,33,33)" fill="none" stroke-linecap="round"></path><path d="M 158.366,241.578 C 163.584,226.222 164.269,226.053 167.739,210.501" stroke-width="13.424" stroke="rgb(33,33,33)" fill="none" stroke-linecap="round"></path><path d="M 167.739,210.501 C 168.280,208.076 167.391,206.596 166.388,205.624" stroke-width="12.853" stroke="rgb(33,33,33)" fill="none" stroke-linecap="round"></path><path d="M 166.388,205.624 C 165.879,205.131 165.734,206.806 164.715,207.572" stroke-width="13.098" stroke="rgb(33,33,33)" fill="none" stroke-linecap="round"></path><path d="M 164.715,207.572 C 161.334,210.112 160.533,209.218 157.588,212.236" stroke-width="12.993" stroke="rgb(33,33,33)" fill="none" stroke-linecap="round"></path><path d="M 157.588,212.236 C 150.579,219.418 149.883,219.365 144.806,227.971" stroke-width="12.901" stroke="rgb(33,33,33)" fill="none" stroke-linecap="round"></path><path d="M 144.806,227.971 C 140.823,234.723 140.659,235.288 139.468,242.953" stroke-width="12.326" stroke="rgb(33,33,33)" fill="none" stroke-linecap="round"></path><path d="M 139.468,242.953 C 138.607,248.497 138.787,249.149 140.701,254.389" stroke-width="12.276" stroke="rgb(33,33,33)" fill="none" stroke-linecap="round"></path><path d="M 140.701,254.389 C 142.572,259.509 143.568,259.259 147.038,263.673" stroke-width="12.259" stroke="rgb(33,33,33)" fill="none" stroke-linecap="round"></path><path d="M 147.038,263.673 C 155.325,274.215 159.780,272.243 164.214,284.302" stroke-width="12.058" stroke="rgb(33,33,33)" fill="none" stroke-linecap="round"></path><path d="M 164.214,284.302 C 170.190,300.553 169.914,302.685 167.858,320.292" stroke-width="10.147" stroke="rgb(33,33,33)" fill="none" stroke-linecap="round"></path></svg>