<svg xmlns="http://www.w3.org/2000/svg" xmlns:xlink="http://www.w3.org/1999/xlink" viewBox="0 0 800 500"><path d="M 164.500,110.500 C 163.000,110.500 163.000,110.500 161.500,110.500" stroke-width="20.145" stroke="rgb(33,33,33)" fill="none" stroke-linecap="round"></path><path d="M 161.500,110.500 C 159.000,110.500 159.000,110.500 156.500,110.500" stroke-width="18.340" stroke="rgb(33,33,33)" fill="none" stroke-linecap="round"></path><path d="M 156.500,110.500 C 153.000,110.500 153.000,110.500 149.500,110.500" stroke-width="16.093" stroke="rgb(33,33,33)" fill="none" stroke-linecap="round"></path><path d="M 149.500,110.500 C 145.500,110.500 145.500,110.500 141.500,110.500" stroke-width="14.976" stroke="rgb(33,33,33)" fill="none" stroke-linecap="round"></path><path d="M 141.500,110.500 C 136.000,110.500 135.988,110.195 130.500,110.500" stroke-width="13.008" stroke="rgb(33,33,33)" fill="none" stroke-linecap="round"></path><path d="M 130.500,110.500 C 117.988,111.195 117.806,110.803 105.500,112.500" stroke-width="12.986" stroke="rgb(33,33,33)" fill="none" stroke-linecap="round"></path><path d="M 105.500,112.500 C 103.306,112.803 103.543,113.683 101.500,114.500" stroke-width="13.688" stroke="rgb(33,33,33)" fill="none" stroke-linecap="round"></path><path d="M 101.500,114.500 C 101.043,114.683 101.000,114.500 100.500,114.500" stroke-width="14.428" stroke="rgb(33,33,33)" fill="none" stroke-linecap="round"></path><path d="M 100.500,114.500 C 100.000,114.500 99.750,114.250 99.500,114.500" stroke-width="15.256" stroke="rgb(33,33,33)" fill="none" stroke-linecap="round"></path><path d="M 99.500,114.500 C 99.250,114.750 99.750,115.250 99.500,115.500" stroke-width="15.797" stroke="rgb(33,33,33)" fill="none" stroke-linecap="round"></path><path d="M 99.500,115.500 C 99.250,115.750 99.000,115.500 98.500,115.500" stroke-width="16.434" stroke="rgb(33,33,33)" fill="none" stroke-linecap="round"></path><path d="M 98.500,115.500 C 98.000,115.500 97.914,115.293 97.500,115.500" stroke-width="16.919" stroke="rgb(33,33,33)" fill="none" stroke-linecap="round"></path><path d="M 97.500,115.500 C 96.914,115.793 97.086,116.207 96.500,116.500" stroke-width="17.318" stroke="rgb(33,33,33)" fill="none" stroke-linecap="round"></path><path d="M 96.500,116.500 C 96.086,116.707 95.993,116.418 95.500,116.500" stroke-width="17.577" stroke="rgb(33,33,33)" fill="none" stroke-linecap="round"></path><path d="M 95.500,116.500 C 80.993,118.918 81.007,119.082 66.500,121.500" stroke-width="17.615" stroke="rgb(33,33,33)" fill="none" stroke-linecap="round"></path><path d="M 66.500,121.500 C 66.007,121.582 65.750,121.250 65.500,121.500" stroke-width="17.940" stroke="rgb(33,33,33)" fill="none" stroke-linecap="round"></path><path d="M 65.500,121.500 C 65.250,121.750 65.500,122.000 65.500,122.500" stroke-width="18.350" stroke="rgb(33,33,33)" fill="none" stroke-linecap="round"></path><path d="M 65.500,122.500 C 65.500,124.000 65.500,124.000 65.500,125.500" stroke-width="18.035" stroke="rgb(33,33,33)" fill="none" stroke-linecap="round"></path><path d="M 65.500,125.500 C 65.500,127.500 65.500,127.500 65.500,129.500" stroke-width="17.058" stroke="rgb(33,33,33)" fill="none" stroke-linecap="round"></path><path d="M 65.500,129.500 C 65.500,131.500 65.500,131.500 65.500,133.500" stroke-width="16.349" stroke="rgb(33,33,33)" fill="none" stroke-linecap="round"></path><path d="M 65.500,133.500 C 65.500,135.000 65.500,135.000 65.500,136.500" stroke-width="15.687" stroke="rgb(33,33,33)" fill="none" stroke-linecap="round"></path><path d="M 65.500,136.500 C 65.500,139.000 65.500,139.000 65.500,141.500" stroke-width="15.195" stroke="rgb(33,33,33)" fill="none" stroke-linecap="round"></path><path d="M 65.500,141.500 C 65.500,144.500 65.106,144.543 65.500,147.500" stroke-width="14.979" stroke="rgb(33,33,33)" fill="none" stroke-linecap="round"></path><path d="M 65.500,147.500 C 66.106,152.043 66.748,151.953 67.500,156.500" stroke-width="12.271" stroke="rgb(33,33,33)" fill="none" stroke-linecap="round"></path><path d="M 67.500,156.500 C 77.248,215.453 76.825,215.531 86.500,274.500" stroke-width="11.495" stroke="rgb(33,33,33)" fill="none" stroke-linecap="round"></path><path d="M 86.500,274.500 C 87.325,279.531 87.869,279.450 88.500,284.500" stroke-width="11.167" stroke="rgb(33,33,33)" fill="none" stroke-linecap="round"></path><path d="M 88.500,284.500 C 89.369,291.450 88.510,291.570 89.500,298.500" stroke-width="10.318" stroke="rgb(33,33,33)" fill="none" stroke-linecap="round"></path><path d="M 89.500,298.500 C 90.510,305.570 91.220,305.463 92.500,312.500" stroke-width="9.697" stroke="rgb(33,33,33)" fill="none" stroke-linecap="round"></path><path d="M 92.500,312.500 C 93.220,316.463 92.967,316.504 93.500,320.500" stroke-width="9.879" stroke="rgb(33,33,33)" fill="none" stroke-linecap="round"></path><path d="M 93.500,320.500 C 93.967,324.004 94.207,323.985 94.500,327.500" stroke-width="10.221" stroke="rgb(33,33,33)" fill="none" stroke-linecap="round"></path><path d="M 94.500,327.500 C 94.707,329.985 94.396,330.002 94.500,332.500" stroke-width="10.680" stroke="rgb(33,33,33)" fill="none" stroke-linecap="round"></path><path d="M 94.500,332.500 C 95.396,354.002 95.523,353.999 96.500,375.500" stroke-width="11.408" stroke="rgb(33,33,33)" fill="none" stroke-linecap="round"></path><path d="M 96.500,375.500 C 96.523,375.999 96.707,376.943 96.500,376.500" stroke-width="12.453" stroke="rgb(33,33,33)" fill="none" stroke-linecap="round"></path><path d="M 96.500,376.500 C 79.207,339.443 64.066,332.756 61.500,300.500" stroke-width="13.004" stroke="rgb(33,33,33)" fill="none" stroke-linecap="round"></path><path d="M 61.500,300.500 C 60.566,288.756 75.546,294.605 89.500,288.500" stroke-width="7.601" stroke="rgb(33,33,33)" fill="none" stroke-linecap="round"></path><path d="M 89.500,288.500 C 99.546,284.105 99.480,283.954 109.500,279.500" stroke-width="8.156" stroke="rgb(33,33,33)" fill="none" stroke-linecap="round"></path><path d="M 109.500,279.500 C 112.980,277.954 113.234,278.421 116.500,276.500" stroke-width="6.870" stroke="rgb(33,33,33)" fill="none" stroke-linecap="round"></path><path d="M 116.500,276.500 C 121.734,273.421 121.926,273.464 126.500,269.500" stroke-width="7.226" stroke="rgb(33,33,33)" fill="none" stroke-linecap="round"></path><path d="M 126.500,269.500 C 129.426,266.964 129.088,266.570 131.500,263.500" stroke-width="7.743" stroke="rgb(33,33,33)" fill="none" stroke-linecap="round"></path><path d="M 131.500,263.500 C 134.588,259.570 136.191,260.279 137.500,255.500" stroke-width="7.965" stroke="rgb(33,33,33)" fill="none" stroke-linecap="round"></path><path d="M 137.500,255.500 C 147.691,218.279 146.701,217.577 154.500,179.500" stroke-width="8.092" stroke="rgb(33,33,33)" fill="none" stroke-linecap="round"></path><path d="M 154.500,179.500 C 155.201,176.077 154.500,176.000 154.500,172.500" stroke-width="8.899" stroke="rgb(33,33,33)" fill="none" stroke-linecap="round"></path><path d="M 154.500,172.500 C 154.500,170.500 154.500,170.500 154.500,168.500" stroke-width="8.854" stroke="rgb(33,33,33)" fill="none" stroke-linecap="round"></path><path d="M 154.500,168.500 C 154.500,166.500 154.779,166.455 154.500,164.500" stroke-width="9.445" stroke="rgb(33,33,33)" fill="none" stroke-linecap="round"></path><path d="M 154.500,164.500 C 154.279,162.955 154.086,162.964 153.500,161.500" stroke-width="10.290" stroke="rgb(33,33,33)" fill="none" stroke-linecap="round"></path><path d="M 153.500,161.500 C 153.086,160.464 152.892,160.545 152.500,159.500" stroke-width="11.064" stroke="rgb(33,33,33)" fill="none" stroke-linecap="round"></path><path d="M 152.500,159.500 C 151.392,156.545 151.260,155.019 150.500,153.500" stroke-width="12.016" stroke="rgb(33,33,33)" fill="none" stroke-linecap="round"></path><path d="M 150.500,153.500 C 150.260,153.019 150.500,154.500 150.500,155.500" stroke-width="13.018" stroke="rgb(33,33,33)" fill="none" stroke-linecap="round"></path><path d="M 150.500,155.500 C 150.500,159.000 150.500,159.000 150.500,162.500" stroke-width="12.781" stroke="rgb(33,33,33)" fill="none" stroke-linecap="round"></path><path d="M 150.500,162.500 C 150.500,166.500 150.500,166.500 150.500,170.500" stroke-width="12.442" stroke="rgb(33,33,33)" fill="none" stroke-linecap="round"></path><path d="M 150.500,170.500 C 150.500,175.000 150.500,175.000 150.500,179.500" stroke-width="12.039" stroke="rgb(33,33,33)" fill="none" stroke-linecap="round"></path><path d="M 150.500,179.500 C 150.500,190.000 150.500,190.000 150.500,200.500" stroke-width="10.683" stroke="rgb(33,33,33)" fill="none" stroke-linecap="round"></path><path d="M 150.500,200.500 C 150.500,210.000 150.221,210.009 150.500,219.500" stroke-width="8.963" stroke="rgb(33,33,33)" fill="none" stroke-linecap="round"></path><path d="M 150.500,219.500 C 150.721,227.009 151.222,226.993 151.500,234.500" stroke-width="9.224" stroke="rgb(33,33,33)" fill="none" stroke-linecap="round"></path><path d="M 151.500,234.500 C 151.722,240.493 151.500,240.500 151.500,246.500" stroke-width="7.347" stroke="rgb(33,33,33)" fill="none" stroke-linecap="round"></path><path d="M 151.500,246.500 C 151.500,252.000 151.500,252.000 151.500,257.500" stroke-width="7.773" stroke="rgb(33,33,33)" fill="none" stroke-linecap="round"></path><path d="M 151.500,257.500 C 151.500,263.500 151.500,263.500 151.500,269.500" stroke-width="7.939" stroke="rgb(33,33,33)" fill="none" stroke-linecap="round"></path><path d="M 151.500,269.500 C 151.500,274.500 151.500,274.500 151.500,279.500" stroke-width="8.222" stroke="rgb(33,33,33)" fill="none" stroke-linecap="round"></path><path d="M 151.500,279.500 C 151.500,284.500 151.762,284.515 151.500,289.500" stroke-width="8.610" stroke="rgb(33,33,33)" fill="none" stroke-linecap="round"></path><path d="M 151.500,289.500 C 151.262,294.015 152.099,294.303 150.500,298.500" stroke-width="8.870" stroke="rgb(33,33,33)" fill="none" stroke-linecap="round"></path><path d="M 150.500,298.500 C 144.099,315.303 144.006,315.648 135.500,331.500" stroke-width="9.350" stroke="rgb(33,33,33)" fill="none" stroke-linecap="round"></path><path d="M 135.500,331.500 C 133.006,336.148 131.981,335.484 128.500,339.500" stroke-width="9.337" stroke="rgb(33,33,33)" fill="none" stroke-linecap="round"></path><path d="M 128.500,339.500 C 125.481,342.984 125.748,343.252 122.500,346.500" stroke-width="9.031" stroke="rgb(33,33,33)" fill="none" stroke-linecap="round"></path><path d="M 122.500,346.500 C 119.748,349.252 119.906,349.632 116.500,351.500" stroke-width="9.418" stroke="rgb(33,33,33)" fill="none" stroke-linecap="round"></path><path d="M 116.500,351.500 C 104.406,358.132 103.993,358.410 91.500,363.500" stroke-width="10.070" stroke="rgb(33,33,33)" fill="none" stroke-linecap="round"></path><path d="M 91.500,363.500 C 90.493,363.910 90.276,363.276 89.500,362.500" stroke-width="11.025" stroke="rgb(33,33,33)" fill="none" stroke-linecap="round"></path><path d="M 89.500,362.500 C 87.276,360.276 87.099,360.240 85.500,357.500" stroke-width="9.660" stroke="rgb(33,33,33)" fill="none" stroke-linecap="round"></path><path d="M 85.500,357.500 C 83.599,354.240 84.110,353.949 82.500,350.500" stroke-width="9.668" stroke="rgb(33,33,33)" fill="none" stroke-linecap="round"></path><path d="M 82.500,350.500 C 80.610,346.449 80.154,346.635 78.500,342.500" stroke-width="9.856" stroke="rgb(33,33,33)" fill="none" stroke-linecap="round"></path><path d="M 78.500,342.500 C 77.154,339.135 77.249,339.060 76.500,335.500" stroke-width="10.098" stroke="rgb(33,33,33)" fill="none" stroke-linecap="round"></path><path d="M 76.500,335.500 C 73.249,320.060 73.021,320.046 70.500,304.500" stroke-width="10.360" stroke="rgb(33,33,33)" fill="none" stroke-linecap="round"></path><path d="M 70.500,304.500 C 70.021,301.546 70.500,301.500 70.500,298.500" stroke-width="11.039" stroke="rgb(33,33,33)" fill="none" stroke-linecap="round"></path><path d="M 70.500,298.500 C 70.500,296.500 70.500,296.500 70.500,294.500" stroke-width="8.207" stroke="rgb(33,33,33)" fill="none" stroke-linecap="round"></path><path d="M 70.500,294.500 C 70.500,293.000 70.099,292.905 70.500,291.500" stroke-width="9.004" stroke="rgb(33,33,33)" fill="none" stroke-linecap="round"></path><path d="M 70.500,291.500 C 71.099,289.405 71.084,289.152 72.500,287.500" stroke-width="9.970" stroke="rgb(33,33,33)" fill="none" stroke-linecap="round"></path><path d="M 72.500,287.500 C 74.084,285.652 74.281,285.610 76.500,284.500" stroke-width="7.168" stroke="rgb(33,33,33)" fill="none" stroke-linecap="round"></path><path d="M 76.500,284.500 C 81.281,282.110 81.427,282.300 86.500,280.500" stroke-width="7.625" stroke="rgb(33,33,33)" fill="none" stroke-linecap="round"></path><path d="M 86.500,280.500 C 96.927,276.800 97.000,277.000 107.500,273.500" stroke-width="7.954" stroke="rgb(33,33,33)" fill="none" stroke-linecap="round"></path><path d="M 107.500,273.500 C 112.000,272.000 112.577,273.115 116.500,270.500" stroke-width="8.405" stroke="rgb(33,33,33)" fill="none" stroke-linecap="round"></path><path d="M 116.500,270.500 C 139.577,255.115 139.569,254.606 161.500,237.500" stroke-width="8.581" stroke="rgb(33,33,33)" fill="none" stroke-linecap="round"></path><path d="M 161.500,237.500 C 164.569,235.106 164.475,234.791 166.500,231.500" stroke-width="9.024" stroke="rgb(33,33,33)" fill="none" stroke-linecap="round"></path><path d="M 166.500,231.500 C 168.475,228.291 168.647,228.197 169.500,224.500" stroke-width="9.932" stroke="rgb(33,33,33)" fill="none" stroke-linecap="round"></path><path d="M 169.500,224.500 C 173.147,208.697 173.710,208.612 175.500,192.500" stroke-width="6.750" stroke="rgb(33,33,33)" fill="none" stroke-linecap="round"></path><path d="M 175.500,192.500 C 176.710,181.612 175.500,181.500 175.500,170.500" stroke-width="6.750" stroke="rgb(33,33,33)" fill="none" stroke-linecap="round"></path><path d="M 175.500,170.500 C 175.500,169.000 175.500,169.000 175.500,167.500" stroke-width="6.750" stroke="rgb(33,33,33)" fill="none" stroke-linecap="round"></path><path d="M 175.500,167.500 C 175.500,166.500 175.500,166.500 175.500,165.500" stroke-width="6.750" stroke="rgb(33,33,33)" fill="none" stroke-linecap="round"></path><path d="M 175.500,165.500 C 175.500,165.000 175.500,165.000 175.500,164.500" stroke-width="6.750" stroke="rgb(33,33,33)" fill="none" stroke-linecap="round"></path><path d="M 175.500,164.500 C 175.500,164.000 175.500,164.000 175.500,163.500" stroke-width="6.750" stroke="rgb(33,33,33)" fill="none" stroke-linecap="round"></path><path d="M 175.500,163.500 C 175.500,163.000 175.500,162.250 175.500,162.500" stroke-width="6.750" stroke="rgb(33,33,33)" fill="none" stroke-linecap="round"></path><path d="M 175.500,162.500 C 175.500,163.250 175.500,164.000 175.500,165.500" stroke-width="7.550" stroke="rgb(33,33,33)" fill="none" stroke-linecap="round"></path><path d="M 175.500,165.500 C 175.500,167.500 175.500,167.500 175.500,169.500" stroke-width="8.348" stroke="rgb(33,33,33)" fill="none" stroke-linecap="round"></path><path d="M 175.500,169.500 C 175.500,172.000 175.500,172.000 175.500,174.500" stroke-width="9.037" stroke="rgb(33,33,33)" fill="none" stroke-linecap="round"></path><path d="M 175.500,174.500 C 175.500,179.500 175.333,179.504 175.500,184.500" stroke-width="9.143" stroke="rgb(33,33,33)" fill="none" stroke-linecap="round"></path><path d="M 175.500,184.500 C 175.833,194.504 175.929,194.504 176.500,204.500" stroke-width="8.536" stroke="rgb(33,33,33)" fill="none" stroke-linecap="round"></path><path d="M 176.500,204.500 C 176.929,212.004 176.876,212.011 177.500,219.500" stroke-width="8.186" stroke="rgb(33,33,33)" fill="none" stroke-linecap="round"></path><path d="M 177.500,219.500 C 177.876,224.011 177.938,224.008 178.500,228.500" stroke-width="8.580" stroke="rgb(33,33,33)" fill="none" stroke-linecap="round"></path><path d="M 178.500,228.500 C 178.938,232.008 179.207,231.985 179.500,235.500" stroke-width="9.019" stroke="rgb(33,33,33)" fill="none" stroke-linecap="round"></path><path d="M 179.500,235.500 C 179.707,237.985 179.019,238.093 179.500,240.500" stroke-width="9.661" stroke="rgb(33,33,33)" fill="none" stroke-linecap="round"></path><path d="M 179.500,240.500 C 180.019,243.093 180.555,242.980 181.500,245.500" stroke-width="10.333" stroke="rgb(33,33,33)" fill="none" stroke-linecap="round"></path><path d="M 181.500,245.500 C 182.055,246.980 182.243,246.960 182.500,248.500" stroke-width="10.898" stroke="rgb(33,33,33)" fill="none" stroke-linecap="round"></path><path d="M 182.500,248.500 C 182.743,249.960 181.808,250.231 182.500,251.500" stroke-width="11.594" stroke="rgb(33,33,33)" fill="none" stroke-linecap="round"></path><path d="M 182.500,251.500 C 184.808,255.731 185.081,256.081 188.500,259.500" stroke-width="12.356" stroke="rgb(33,33,33)" fill="none" stroke-linecap="round"></path><path d="M 188.500,259.500 C 189.581,260.581 190.036,259.914 191.500,260.500" stroke-width="12.805" stroke="rgb(33,33,33)" fill="none" stroke-linecap="round"></path><path d="M 191.500,260.500 C 192.536,260.914 192.432,261.286 193.500,261.500" stroke-width="10.589" stroke="rgb(33,33,33)" fill="none" stroke-linecap="round"></path><path d="M 193.500,261.500 C 194.932,261.786 195.069,261.858 196.500,261.500" stroke-width="11.423" stroke="rgb(33,33,33)" fill="none" stroke-linecap="round"></path><path d="M 196.500,261.500 C 199.069,260.858 199.099,260.700 201.500,259.500" stroke-width="11.044" stroke="rgb(33,33,33)" fill="none" stroke-linecap="round"></path><path d="M 201.500,259.500 C 204.099,258.200 204.421,258.532 206.500,256.500" stroke-width="11.272" stroke="rgb(33,33,33)" fill="none" stroke-linecap="round"></path><path d="M 206.500,256.500 C 226.421,237.032 225.941,236.442 245.500,216.500" stroke-width="11.025" stroke="rgb(33,33,33)" fill="none" stroke-linecap="round"></path><path d="M 245.500,216.500 C 251.441,210.442 251.500,210.500 257.500,204.500" stroke-width="10.763" stroke="rgb(33,33,33)" fill="none" stroke-linecap="round"></path><path d="M 257.500,204.500 C 259.000,203.000 258.863,202.810 260.500,201.500" stroke-width="11.180" stroke="rgb(33,33,33)" fill="none" stroke-linecap="round"></path><path d="M 260.500,201.500 C 261.363,200.810 261.581,201.113 262.500,200.500" stroke-width="11.822" stroke="rgb(33,33,33)" fill="none" stroke-linecap="round"></path><path d="M 262.500,200.500 C 263.081,200.113 263.000,200.000 263.500,199.500" stroke-width="12.667" stroke="rgb(33,33,33)" fill="none" stroke-linecap="round"></path><path d="M 263.500,199.500 C 264.000,199.000 263.914,198.793 264.500,198.500" stroke-width="13.609" stroke="rgb(33,33,33)" fill="none" stroke-linecap="round"></path><path d="M 264.500,198.500 C 264.914,198.293 265.000,198.500 265.500,198.500" stroke-width="14.307" stroke="rgb(33,33,33)" fill="none" stroke-linecap="round"></path><path d="M 265.500,198.500 C 266.000,198.500 266.400,198.100 266.500,198.500" stroke-width="15.080" stroke="rgb(33,33,33)" fill="none" stroke-linecap="round"></path><path d="M 266.500,198.500 C 266.900,200.100 266.500,200.500 266.500,202.500" stroke-width="15.101" stroke="rgb(33,33,33)" fill="none" stroke-linecap="round"></path><path d="M 266.500,202.500 C 266.500,205.000 266.500,205.000 266.500,207.500" stroke-width="14.305" stroke="rgb(33,33,33)" fill="none" stroke-linecap="round"></path><path d="M 266.500,207.500 C 266.500,209.500 266.746,209.530 266.500,211.500" stroke-width="14.411" stroke="rgb(33,33,33)" fill="none" stroke-linecap="round"></path><path d="M 266.500,211.500 C 266.246,213.530 266.472,213.718 265.500,215.500" stroke-width="14.473" stroke="rgb(33,33,33)" fill="none" stroke-linecap="round"></path><path d="M 265.500,215.500 C 263.472,219.218 263.080,219.060 260.500,222.500" stroke-width="13.198" stroke="rgb(33,33,33)" fill="none" stroke-linecap="round"></path><path d="M 260.500,222.500 C 257.080,227.060 256.614,226.738 253.500,231.500" stroke-width="12.047" stroke="rgb(33,33,33)" fill="none" stroke-linecap="round"></path><path d="M 253.500,231.500 C 248.114,239.738 248.642,240.086 243.500,248.500" stroke-width="10.443" stroke="rgb(33,33,33)" fill="none" stroke-linecap="round"></path><path d="M 243.500,248.500 C 237.642,258.086 237.730,258.156 231.500,267.500" stroke-width="8.997" stroke="rgb(33,33,33)" fill="none" stroke-linecap="round"></path><path d="M 231.500,267.500 C 227.730,273.156 227.269,272.847 223.500,278.500" stroke-width="9.092" stroke="rgb(33,33,33)" fill="none" stroke-linecap="round"></path><path d="M 223.500,278.500 C 220.269,283.347 220.880,283.768 217.500,288.500" stroke-width="9.036" stroke="rgb(33,33,33)" fill="none" stroke-linecap="round"></path><path d="M 217.500,288.500 C 213.380,294.268 213.123,294.106 208.500,299.500" stroke-width="8.772" stroke="rgb(33,33,33)" fill="none" stroke-linecap="round"></path><path d="M 208.500,299.500 C 204.123,304.606 203.255,303.978 199.500,309.500" stroke-width="8.916" stroke="rgb(33,33,33)" fill="none" stroke-linecap="round"></path><path d="M 199.500,309.500 C 194.755,316.478 195.173,316.848 191.500,324.500" stroke-width="7.838" stroke="rgb(33,33,33)" fill="none" stroke-linecap="round"></path><path d="M 191.500,324.500 C 189.173,329.348 189.890,329.719 187.500,334.500" stroke-width="8.158" stroke="rgb(33,33,33)" fill="none" stroke-linecap="round"></path><path d="M 187.500,334.500 C 186.390,336.719 185.490,336.272 184.500,338.500" stroke-width="8.859" stroke="rgb(33,33,33)" fill="none" stroke-linecap="round"></path><path d="M 184.500,338.500 C 183.490,340.772 182.777,341.186 183.500,343.500" stroke-width="9.546" stroke="rgb(33,33,33)" fill="none" stroke-linecap="round"></path><path d="M 183.500,343.500 C 185.277,349.186 185.457,350.146 189.500,354.500" stroke-width="10.405" stroke="rgb(33,33,33)" fill="none" stroke-linecap="round"></path><path d="M 189.500,354.500 C 191.957,357.146 192.965,356.086 196.500,357.500" stroke-width="10.513" stroke="rgb(33,33,33)" fill="none" stroke-linecap="round"></path><path d="M 196.500,357.500 C 200.465,359.086 200.347,359.844 204.500,360.500" stroke-width="10.360" stroke="rgb(33,33,33)" fill="none" stroke-linecap="round"></path><path d="M 204.500,360.500 C 209.847,361.344 210.000,360.500 215.500,360.500" stroke-width="9.933" stroke="rgb(33,33,33)" fill="none" stroke-linecap="round"></path><path d="M 215.500,360.500 C 222.000,360.500 222.000,360.500 228.500,360.500" stroke-width="9.685" stroke="rgb(33,33,33)" fill="none" stroke-linecap="round"></path><path d="M 228.500,360.500 C 233.000,360.500 233.046,360.969 237.500,360.500" stroke-width="10.317" stroke="rgb(33,33,33)" fill="none" stroke-linecap="round"></path><path d="M 237.500,360.500 C 242.546,359.969 243.071,360.567 247.500,358.500" stroke-width="6.750" stroke="rgb(33,33,33)" fill="none" stroke-linecap="round"></path><path d="M 247.500,358.500 C 250.571,357.067 251.487,356.854 252.500,353.500" stroke-width="6.750" stroke="rgb(33,33,33)" fill="none" stroke-linecap="round"></path><path d="M 252.500,353.500 C 265.987,308.854 266.762,308.406 276.500,262.500" stroke-width="6.750" stroke="rgb(33,33,33)" fill="none" stroke-linecap="round"></path><path d="M 276.500,262.500 C 280.762,242.406 279.196,242.034 280.500,221.500" stroke-width="6.750" stroke="rgb(33,33,33)" fill="none" stroke-linecap="round"></path><path d="M 280.500,221.500 C 281.196,210.534 280.500,210.500 280.500,199.500" stroke-width="6.750" stroke="rgb(33,33,33)" fill="none" stroke-linecap="round"></path><path d="M 280.500,199.500 C 280.500,177.500 280.500,177.500 280.500,155.500" stroke-width="6.750" stroke="rgb(33,33,33)" fill="none" stroke-linecap="round"></path><path d="M 280.500,155.500 C 280.500,139.500 280.500,139.500 280.500,123.500" stroke-width="6.750" stroke="rgb(33,33,33)" fill="none" stroke-linecap="round"></path><path d="M 280.500,123.500 C 280.500,116.000 281.473,115.895 280.500,108.500" stroke-width="6.750" stroke="rgb(33,33,33)" fill="none" stroke-linecap="round"></path><path d="M 280.500,108.500 C 278.973,96.895 278.530,96.864 275.500,85.500" stroke-width="6.750" stroke="rgb(33,33,33)" fill="none" stroke-linecap="round"></path><path d="M 275.500,85.500 C 270.530,66.864 269.484,67.075 264.500,48.500" stroke-width="6.750" stroke="rgb(33,33,33)" fill="none" stroke-linecap="round"></path><path d="M 264.500,48.500 C 263.984,46.575 264.900,46.100 264.500,44.500" stroke-width="6.750" stroke="rgb(33,33,33)" fill="none" stroke-linecap="round"></path><path d="M 264.500,44.500 C 264.400,44.100 263.750,44.750 263.500,44.500" stroke-width="6.750" stroke="rgb(33,33,33)" fill="none" stroke-linecap="round"></path><path d="M 263.500,44.500 C 263.250,44.250 263.500,44.000 263.500,43.500" stroke-width="6.750" stroke="rgb(33,33,33)" fill="none" stroke-linecap="round"></path><path d="M 263.500,43.500 C 263.500,43.000 263.500,43.000 263.500,42.500" stroke-width="7.129" stroke="rgb(33,33,33)" fill="none" stroke-linecap="round"></path><path d="M 263.500,42.500 C 263.500,42.000 263.500,41.250 263.500,41.500" stroke-width="8.168" stroke="rgb(33,33,33)" fill="none" stroke-linecap="round"></path><path d="M 263.500,41.500 C 263.500,42.250 263.500,43.000 263.500,44.500" stroke-width="9.231" stroke="rgb(33,33,33)" fill="none" stroke-linecap="round"></path><path d="M 263.500,44.500 C 263.500,46.000 263.665,46.014 263.500,47.500" stroke-width="10.050" stroke="rgb(33,33,33)" fill="none" stroke-linecap="round"></path><path d="M 263.500,47.500 C 263.165,50.514 262.836,50.479 262.500,53.500" stroke-width="10.627" stroke="rgb(33,33,33)" fill="none" stroke-linecap="round"></path><path d="M 262.500,53.500 C 261.336,63.979 260.913,63.972 260.500,74.500" stroke-width="8.342" stroke="rgb(33,33,33)" fill="none" stroke-linecap="round"></path><path d="M 260.500,74.500 C 259.913,89.472 260.500,89.500 260.500,104.500" stroke-width="7.535" stroke="rgb(33,33,33)" fill="none" stroke-linecap="round"></path><path d="M 260.500,104.500 C 260.500,112.500 260.500,112.500 260.500,120.500" stroke-width="7.485" stroke="rgb(33,33,33)" fill="none" stroke-linecap="round"></path><path d="M 260.500,120.500 C 260.500,134.000 259.868,134.026 260.500,147.500" stroke-width="6.972" stroke="rgb(33,33,33)" fill="none" stroke-linecap="round"></path><path d="M 260.500,147.500 C 261.368,166.026 261.077,166.152 263.500,184.500" stroke-width="6.750" stroke="rgb(33,33,33)" fill="none" stroke-linecap="round"></path><path d="M 263.500,184.500 C 264.577,192.652 265.712,192.454 267.500,200.500" stroke-width="6.750" stroke="rgb(33,33,33)" fill="none" stroke-linecap="round"></path><path d="M 267.500,200.500 C 268.712,205.954 268.349,206.033 269.500,211.500" stroke-width="6.750" stroke="rgb(33,33,33)" fill="none" stroke-linecap="round"></path><path d="M 269.500,211.500 C 270.349,215.533 270.337,215.547 271.500,219.500" stroke-width="7.140" stroke="rgb(33,33,33)" fill="none" stroke-linecap="round"></path><path d="M 271.500,219.500 C 272.837,224.047 272.933,224.023 274.500,228.500" stroke-width="7.617" stroke="rgb(33,33,33)" fill="none" stroke-linecap="round"></path><path d="M 274.500,228.500 C 276.433,234.023 276.500,234.000 278.500,239.500" stroke-width="7.828" stroke="rgb(33,33,33)" fill="none" stroke-linecap="round"></path><path d="M 278.500,239.500 C 282.500,250.500 282.686,250.440 286.500,261.500" stroke-width="8.157" stroke="rgb(33,33,33)" fill="none" stroke-linecap="round"></path><path d="M 286.500,261.500 C 287.686,264.940 287.112,265.168 288.500,268.500" stroke-width="8.459" stroke="rgb(33,33,33)" fill="none" stroke-linecap="round"></path><path d="M 288.500,268.500 C 289.612,271.168 289.885,271.077 291.500,273.500" stroke-width="9.234" stroke="rgb(33,33,33)" fill="none" stroke-linecap="round"></path><path d="M 291.500,273.500 C 292.885,275.577 292.877,275.607 294.500,277.500" stroke-width="9.400" stroke="rgb(33,33,33)" fill="none" stroke-linecap="round"></path><path d="M 294.500,277.500 C 295.877,279.107 295.893,279.123 297.500,280.500" stroke-width="10.083" stroke="rgb(33,33,33)" fill="none" stroke-linecap="round"></path><path d="M 297.500,280.500 C 299.393,282.123 299.466,282.047 301.500,283.500" stroke-width="10.559" stroke="rgb(33,33,33)" fill="none" stroke-linecap="round"></path><path d="M 301.500,283.500 C 302.966,284.547 302.927,284.626 304.500,285.500" stroke-width="11.211" stroke="rgb(33,33,33)" fill="none" stroke-linecap="round"></path><path d="M 304.500,285.500 C 307.427,287.126 307.403,287.261 310.500,288.500" stroke-width="11.632" stroke="rgb(33,33,33)" fill="none" stroke-linecap="round"></path><path d="M 310.500,288.500 C 312.403,289.261 312.474,289.211 314.500,289.500" stroke-width="11.839" stroke="rgb(33,33,33)" fill="none" stroke-linecap="round"></path><path d="M 314.500,289.500 C 315.974,289.711 316.000,289.500 317.500,289.500" stroke-width="12.385" stroke="rgb(33,33,33)" fill="none" stroke-linecap="round"></path><path d="M 317.500,289.500 C 319.500,289.500 319.770,290.269 321.500,289.500" stroke-width="12.969" stroke="rgb(33,33,33)" fill="none" stroke-linecap="round"></path><path d="M 321.500,289.500 C 324.270,288.269 324.022,287.527 326.500,285.500" stroke-width="10.794" stroke="rgb(33,33,33)" fill="none" stroke-linecap="round"></path><path d="M 326.500,285.500 C 329.522,283.027 329.817,283.324 332.500,280.500" stroke-width="10.905" stroke="rgb(33,33,33)" fill="none" stroke-linecap="round"></path><path d="M 332.500,280.500 C 339.317,273.324 339.073,273.061 345.500,265.500" stroke-width="11.165" stroke="rgb(33,33,33)" fill="none" stroke-linecap="round"></path><path d="M 345.500,265.500 C 347.573,263.061 347.581,263.059 349.500,260.500" stroke-width="11.293" stroke="rgb(33,33,33)" fill="none" stroke-linecap="round"></path><path d="M 349.500,260.500 C 350.581,259.059 350.574,259.043 351.500,257.500" stroke-width="11.810" stroke="rgb(33,33,33)" fill="none" stroke-linecap="round"></path><path d="M 351.500,257.500 C 352.074,256.543 351.926,256.457 352.500,255.500" stroke-width="12.489" stroke="rgb(33,33,33)" fill="none" stroke-linecap="round"></path><path d="M 352.500,255.500 C 353.426,253.957 354.500,252.780 354.500,252.500" stroke-width="13.421" stroke="rgb(33,33,33)" fill="none" stroke-linecap="round"></path><path d="M 354.500,252.500 C 354.500,252.280 353.237,253.303 352.500,254.500" stroke-width="14.305" stroke="rgb(33,33,33)" fill="none" stroke-linecap="round"></path><path d="M 352.500,254.500 C 349.237,259.803 349.407,259.951 346.500,265.500" stroke-width="12.305" stroke="rgb(33,33,33)" fill="none" stroke-linecap="round"></path><path d="M 346.500,265.500 C 343.907,270.451 343.919,270.461 341.500,275.500" stroke-width="11.637" stroke="rgb(33,33,33)" fill="none" stroke-linecap="round"></path><path d="M 341.500,275.500 C 337.919,282.961 337.941,282.973 334.500,290.500" stroke-width="10.332" stroke="rgb(33,33,33)" fill="none" stroke-linecap="round"></path><path d="M 334.500,290.500 C 329.941,300.473 329.448,300.302 325.500,310.500" stroke-width="8.979" stroke="rgb(33,33,33)" fill="none" stroke-linecap="round"></path><path d="M 325.500,310.500 C 323.448,315.802 324.296,316.113 322.500,321.500" stroke-width="9.391" stroke="rgb(33,33,33)" fill="none" stroke-linecap="round"></path><path d="M 322.500,321.500 C 321.796,323.613 321.028,323.389 320.500,325.500" stroke-width="9.942" stroke="rgb(33,33,33)" fill="none" stroke-linecap="round"></path><path d="M 320.500,325.500 C 320.028,327.389 320.500,327.500 320.500,329.500" stroke-width="10.495" stroke="rgb(33,33,33)" fill="none" stroke-linecap="round"></path><path d="M 320.500,329.500 C 320.500,331.000 319.629,333.636 320.500,332.500" stroke-width="11.135" stroke="rgb(33,33,33)" fill="none" stroke-linecap="round"></path><path d="M 320.500,332.500 C 354.129,288.636 355.430,286.224 389.500,239.500" stroke-width="10.721" stroke="rgb(33,33,33)" fill="none" stroke-linecap="round"></path><path d="M 389.500,239.500 C 390.430,238.224 390.194,238.031 390.500,236.500" stroke-width="11.312" stroke="rgb(33,33,33)" fill="none" stroke-linecap="round"></path><path d="M 390.500,236.500 C 390.694,235.531 390.500,235.500 390.500,234.500" stroke-width="12.079" stroke="rgb(33,33,33)" fill="none" stroke-linecap="round"></path><path d="M 390.500,234.500 C 390.500,234.000 390.500,234.000 390.500,233.500" stroke-width="12.971" stroke="rgb(33,33,33)" fill="none" stroke-linecap="round"></path><path d="M 390.500,233.500 C 390.500,233.000 390.750,232.750 390.500,232.500" stroke-width="13.764" stroke="rgb(33,33,33)" fill="none" stroke-linecap="round"></path><path d="M 390.500,232.500 C 390.250,232.250 389.750,232.750 389.500,232.500" stroke-width="14.670" stroke="rgb(33,33,33)" fill="none" stroke-linecap="round"></path><path d="M 389.500,232.500 C 389.250,232.250 389.500,231.500 389.500,231.500" stroke-width="15.266" stroke="rgb(33,33,33)" fill="none" stroke-linecap="round"></path><path d="M 389.500,231.500 C 389.500,231.500 389.555,232.003 389.500,232.500" stroke-width="16.050" stroke="rgb(33,33,33)" fill="none" stroke-linecap="round"></path><path d="M 389.500,232.500 C 389.055,236.503 388.751,236.484 388.500,240.500" stroke-width="14.935" stroke="rgb(33,33,33)" fill="none" stroke-linecap="round"></path><path d="M 388.500,240.500 C 388.251,244.484 388.500,244.500 388.500,248.500" stroke-width="13.846" stroke="rgb(33,33,33)" fill="none" stroke-linecap="round"></path><path d="M 388.500,248.500 C 388.500,254.500 388.500,254.500 388.500,260.500" stroke-width="12.750" stroke="rgb(33,33,33)" fill="none" stroke-linecap="round"></path><path d="M 388.500,260.500 C 388.500,273.500 389.363,273.551 388.500,286.500" stroke-width="9.149" stroke="rgb(33,33,33)" fill="none" stroke-linecap="round"></path><path d="M 388.500,286.500 C 387.363,303.551 386.439,303.493 384.500,320.500" stroke-width="7.626" stroke="rgb(33,33,33)" fill="none" stroke-linecap="round"></path><path d="M 384.500,320.500 C 379.939,360.493 380.391,360.555 375.500,400.500" stroke-width="7.238" stroke="rgb(33,33,33)" fill="none" stroke-linecap="round"></path><path d="M 375.500,400.500 C 374.391,409.555 374.474,409.618 372.500,418.500" stroke-width="6.750" stroke="rgb(33,33,33)" fill="none" stroke-linecap="round"></path><path d="M 372.500,418.500 C 371.474,423.118 371.164,423.062 369.500,427.500" stroke-width="6.925" stroke="rgb(33,33,33)" fill="none" stroke-linecap="round"></path><path d="M 369.500,427.500 C 368.164,431.062 368.287,431.150 366.500,434.500" stroke-width="7.476" stroke="rgb(33,33,33)" fill="none" stroke-linecap="round"></path><path d="M 366.500,434.500 C 364.287,438.650 365.609,440.445 361.500,442.500" stroke-width="7.859" stroke="rgb(33,33,33)" fill="none" stroke-linecap="round"></path><path d="M 361.500,442.500 C 338.609,453.945 337.512,455.594 312.500,461.500" stroke-width="8.193" stroke="rgb(33,33,33)" fill="none" stroke-linecap="round"></path><path d="M 312.500,461.500 C 301.512,464.094 300.779,461.380 289.500,459.500" stroke-width="8.448" stroke="rgb(33,33,33)" fill="none" stroke-linecap="round"></path><path d="M 289.500,459.500 C 285.779,458.880 285.965,458.075 282.500,456.500" stroke-width="8.855" stroke="rgb(33,33,33)" fill="none" stroke-linecap="round"></path><path d="M 282.500,456.500 C 280.465,455.575 280.500,455.500 278.500,454.500" stroke-width="9.457" stroke="rgb(33,33,33)" fill="none" stroke-linecap="round"></path><path d="M 278.500,454.500 C 277.500,454.000 277.536,453.845 276.500,453.500" stroke-width="10.343" stroke="rgb(33,33,33)" fill="none" stroke-linecap="round"></path><path d="M 276.500,453.500 C 276.036,453.345 275.964,453.655 275.500,453.500" stroke-width="11.337" stroke="rgb(33,33,33)" fill="none" stroke-linecap="round"></path><path d="M 275.500,453.500 C 274.464,453.155 274.191,453.191 273.500,452.500" stroke-width="12.234" stroke="rgb(33,33,33)" fill="none" stroke-linecap="round"></path><path d="M 273.500,452.500 C 273.191,452.191 273.069,451.751 273.500,451.500" stroke-width="13.129" stroke="rgb(33,33,33)" fill="none" stroke-linecap="round"></path><path d="M 273.500,451.500 C 412.069,370.751 421.450,381.420 551.500,290.500" stroke-width="9.782" stroke="rgb(33,33,33)" fill="none" stroke-linecap="round"></path><path d="M 551.500,290.500 C 590.950,262.920 586.538,253.444 612.500,214.500" stroke-width="9.735" stroke="rgb(33,33,33)" fill="none" stroke-linecap="round"></path><path d="M 612.500,214.500 C 615.538,209.944 612.008,208.516 609.500,203.500" stroke-width="9.422" stroke="rgb(33,33,33)" fill="none" stroke-linecap="round"></path><path d="M 609.500,203.500 C 606.508,197.516 605.745,197.806 601.500,192.500" stroke-width="9.241" stroke="rgb(33,33,33)" fill="none" stroke-linecap="round"></path><path d="M 601.500,192.500 C 595.745,185.306 596.007,185.007 589.500,178.500" stroke-width="7.886" stroke="rgb(33,33,33)" fill="none" stroke-linecap="round"></path><path d="M 589.500,178.500 C 579.507,168.507 579.225,152.938 568.500,159.500" stroke-width="7.179" stroke="rgb(33,33,33)" fill="none" stroke-linecap="round"></path><path d="M 568.500,159.500 C 503.225,199.438 471.329,213.508 437.500,271.500" stroke-width="7.543" stroke="rgb(33,33,33)" fill="none" stroke-linecap="round"></path><path d="M 437.500,271.500 C 425.829,291.508 455.900,295.900 477.500,315.500" stroke-width="7.932" stroke="rgb(33,33,33)" fill="none" stroke-linecap="round"></path><path d="M 477.500,315.500 C 482.900,320.400 484.201,319.588 491.500,320.500" stroke-width="7.747" stroke="rgb(33,33,33)" fill="none" stroke-linecap="round"></path><path d="M 491.500,320.500 C 508.201,322.588 508.527,321.809 525.500,321.500" stroke-width="7.787" stroke="rgb(33,33,33)" fill="none" stroke-linecap="round"></path><path d="M 525.500,321.500 C 536.027,321.309 536.267,321.797 546.500,319.500" stroke-width="6.750" stroke="rgb(33,33,33)" fill="none" stroke-linecap="round"></path><path d="M 546.500,319.500 C 560.767,316.297 568.233,322.761 574.500,310.500" stroke-width="6.750" stroke="rgb(33,33,33)" fill="none" stroke-linecap="round"></path><path d="M 574.500,310.500 C 602.733,255.261 623.499,230.825 615.500,184.500" stroke-width="6.750" stroke="rgb(33,33,33)" fill="none" stroke-linecap="round"></path><path d="M 615.500,184.500 C 611.499,161.325 583.235,174.865 550.500,171.500" stroke-width="6.750" stroke="rgb(33,33,33)" fill="none" stroke-linecap="round"></path><path d="M 550.500,171.500 C 529.735,169.365 529.060,170.029 508.500,173.500" stroke-width="6.750" stroke="rgb(33,33,33)" fill="none" stroke-linecap="round"></path><path d="M 508.500,173.500 C 490.560,176.529 490.421,177.533 473.500,184.500" stroke-width="6.750" stroke="rgb(33,33,33)" fill="none" stroke-linecap="round"></path><path d="M 473.500,184.500 C 447.921,195.033 448.925,197.435 423.500,208.500" stroke-width="6.750" stroke="rgb(33,33,33)" fill="none" stroke-linecap="round"></path><path d="M 423.500,208.500 C 232.925,291.435 221.359,296.387 41.500,372.500" stroke-width="6.750" stroke="rgb(33,33,33)" fill="none" stroke-linecap="round"></path><path d="M 41.500,372.500 C 35.859,374.887 46.938,368.899 52.500,365.500" stroke-width="6.750" stroke="rgb(33,33,33)" fill="none" stroke-linecap="round"></path><path d="M 52.500,365.500 C 64.938,357.899 65.314,358.484 77.500,350.500" stroke-width="6.750" stroke="rgb(33,33,33)" fill="none" stroke-linecap="round"></path><path d="M 77.500,350.500 C 94.314,339.484 93.770,338.653 110.500,327.500" stroke-width="6.750" stroke="rgb(33,33,33)" fill="none" stroke-linecap="round"></path><path d="M 110.500,327.500 C 123.770,318.653 123.672,318.434 137.500,310.500" stroke-width="6.750" stroke="rgb(33,33,33)" fill="none" stroke-linecap="round"></path></svg>