<svg xmlns="http://www.w3.org/2000/svg" xmlns:xlink="http://www.w3.org/1999/xlink" viewBox="0 0 360 500"><path d="M 145.000,385.000 C 141.969,376.599 140.964,376.805 138.938,368.197" stroke-width="18.874" stroke="rgb(33,33,33)" fill="none" stroke-linecap="round"></path><path d="M 138.938,368.197 C 137.584,362.443 138.426,362.243 138.241,356.277" stroke-width="17.003" stroke="rgb(33,33,33)" fill="none" stroke-linecap="round"></path><path d="M 138.241,356.277 C 137.957,347.144 138.050,347.139 138.000,338.000" stroke-width="14.804" stroke="rgb(33,33,33)" fill="none" stroke-linecap="round"></path><path d="M 138.000,338.000 C 137.929,325.000 137.926,325.000 138.000,312.000" stroke-width="12.506" stroke="rgb(33,33,33)" fill="none" stroke-linecap="round"></path><path d="M 138.000,312.000 C 138.077,298.315 137.664,298.292 138.302,284.630" stroke-width="11.446" stroke="rgb(33,33,33)" fill="none" stroke-linecap="round"></path><path d="M 138.302,284.630 C 138.914,271.543 139.204,271.546 140.500,258.502" stroke-width="10.707" stroke="rgb(33,33,33)" fill="none" stroke-linecap="round"></path><path d="M 140.500,258.502 C 141.669,246.734 141.732,246.737 143.232,235.006" stroke-width="10.447" stroke="rgb(33,33,33)" fill="none" stroke-linecap="round"></path><path d="M 143.232,235.006 C 145.882,214.287 145.834,214.276 148.800,193.601" stroke-width="9.505" stroke="rgb(33,33,33)" fill="none" stroke-linecap="round"></path><path d="M 148.800,193.601 C 149.862,186.196 149.676,186.140 151.288,178.846" stroke-width="9.893" stroke="rgb(33,33,33)" fill="none" stroke-linecap="round"></path><path d="M 151.288,178.846 C 152.606,172.881 152.711,172.873 154.661,167.084" stroke-width="10.363" stroke="rgb(33,33,33)" fill="none" stroke-linecap="round"></path><path d="M 154.661,167.084 C 156.025,163.035 156.058,163.003 157.916,159.169" stroke-width="11.225" stroke="rgb(33,33,33)" fill="none" stroke-linecap="round"></path><path d="M 157.916,159.169 C 158.738,157.472 158.909,156.982 160.022,156.022" stroke-width="11.562" stroke="rgb(33,33,33)" fill="none" stroke-linecap="round"></path><path d="M 160.022,156.022 C 160.319,155.766 160.564,156.267 160.736,156.736" stroke-width="12.424" stroke="rgb(33,33,33)" fill="none" stroke-linecap="round"></path><path d="M 160.736,156.736 C 162.181,160.671 161.987,160.786 163.256,164.830" stroke-width="12.461" stroke="rgb(33,33,33)" fill="none" stroke-linecap="round"></path><path d="M 163.256,164.830 C 164.967,170.282 165.015,170.268 166.697,175.729" stroke-width="12.389" stroke="rgb(33,33,33)" fill="none" stroke-linecap="round"></path><path d="M 166.697,175.729 C 169.047,183.360 169.123,183.339 171.319,191.015" stroke-width="12.252" stroke="rgb(33,33,33)" fill="none" stroke-linecap="round"></path><path d="M 171.319,191.015 C 174.407,201.806 174.162,201.877 177.265,212.664" stroke-width="11.664" stroke="rgb(33,33,33)" fill="none" stroke-linecap="round"></path><path d="M 177.265,212.664 C 180.458,223.766 180.978,223.623 183.911,234.793" stroke-width="11.257" stroke="rgb(33,33,33)" fill="none" stroke-linecap="round"></path><path d="M 183.911,234.793 C 189.578,256.376 189.115,256.500 194.465,278.171" stroke-width="9.810" stroke="rgb(33,33,33)" fill="none" stroke-linecap="round"></path><path d="M 194.465,278.171 C 197.485,290.406 197.574,290.384 200.651,302.606" stroke-width="9.823" stroke="rgb(33,33,33)" fill="none" stroke-linecap="round"></path><path d="M 200.651,302.606 C 203.040,312.094 203.078,312.085 205.397,321.590" stroke-width="9.853" stroke="rgb(33,33,33)" fill="none" stroke-linecap="round"></path><path d="M 205.397,321.590 C 207.153,328.788 207.005,328.824 208.802,336.012" stroke-width="10.124" stroke="rgb(33,33,33)" fill="none" stroke-linecap="round"></path><path d="M 208.802,336.012 C 211.501,346.808 211.295,346.905 214.389,357.558" stroke-width="10.638" stroke="rgb(33,33,33)" fill="none" stroke-linecap="round"></path><path d="M 214.389,357.558 C 214.792,358.946 215.113,358.816 215.797,360.094" stroke-width="11.214" stroke="rgb(33,33,33)" fill="none" stroke-linecap="round"></path><path d="M 215.797,360.094 C 216.178,360.805 216.443,362.013 216.519,361.537" stroke-width="11.737" stroke="rgb(33,33,33)" fill="none" stroke-linecap="round"></path><path d="M 216.519,361.537 C 216.794,359.811 216.752,358.598 216.500,355.690" stroke-width="12.628" stroke="rgb(33,33,33)" fill="none" stroke-linecap="round"></path><path d="M 216.500,355.690 C 215.992,349.829 215.408,349.874 215.000,344.000" stroke-width="12.488" stroke="rgb(33,33,33)" fill="none" stroke-linecap="round"></path><path d="M 215.000,344.000 C 214.199,332.465 214.426,332.440 214.083,320.873" stroke-width="11.335" stroke="rgb(33,33,33)" fill="none" stroke-linecap="round"></path><path d="M 214.083,320.873 C 213.600,304.554 213.629,304.552 213.348,288.227" stroke-width="10.058" stroke="rgb(33,33,33)" fill="none" stroke-linecap="round"></path><path d="M 213.348,288.227 C 213.088,273.115 213.092,273.114 213.000,258.000" stroke-width="9.253" stroke="rgb(33,33,33)" fill="none" stroke-linecap="round"></path><path d="M 213.000,258.000 C 212.918,244.500 213.000,244.500 213.000,231.000" stroke-width="8.996" stroke="rgb(33,33,33)" fill="none" stroke-linecap="round"></path><path d="M 213.000,231.000 C 213.000,217.000 212.750,216.995 213.000,203.000" stroke-width="8.691" stroke="rgb(33,33,33)" fill="none" stroke-linecap="round"></path><path d="M 213.000,203.000 C 213.204,191.561 213.382,191.563 213.907,180.132" stroke-width="8.735" stroke="rgb(33,33,33)" fill="none" stroke-linecap="round"></path><path d="M 213.907,180.132 C 214.429,168.763 214.495,168.766 215.093,157.401" stroke-width="9.269" stroke="rgb(33,33,33)" fill="none" stroke-linecap="round"></path><path d="M 215.093,157.401 C 215.587,148.016 215.528,148.012 216.090,138.631" stroke-width="9.678" stroke="rgb(33,33,33)" fill="none" stroke-linecap="round"></path><path d="M 216.090,138.631 C 216.827,126.328 216.619,126.269 217.690,114.033" stroke-width="8.555" stroke="rgb(33,33,33)" fill="none" stroke-linecap="round"></path><path d="M 217.690,114.033 C 217.771,113.113 217.961,113.130 218.394,112.319" stroke-width="9.519" stroke="rgb(33,33,33)" fill="none" stroke-linecap="round"></path><path d="M 218.394,112.319 C 218.661,111.818 218.816,111.164 219.090,111.410" stroke-width="10.568" stroke="rgb(33,33,33)" fill="none" stroke-linecap="round"></path><path d="M 219.090,111.410 C 219.800,112.048 219.933,112.677 220.363,114.088" stroke-width="11.573" stroke="rgb(33,33,33)" fill="none" stroke-linecap="round"></path><path d="M 220.363,114.088 C 221.268,117.057 221.103,117.119 221.760,120.169" stroke-width="12.032" stroke="rgb(33,33,33)" fill="none" stroke-linecap="round"></path><path d="M 221.760,120.169 C 223.046,126.138 223.174,126.116 224.250,132.125" stroke-width="11.981" stroke="rgb(33,33,33)" fill="none" stroke-linecap="round"></path><path d="M 224.250,132.125 C 225.587,139.595 225.422,139.625 226.585,147.126" stroke-width="11.700" stroke="rgb(33,33,33)" fill="none" stroke-linecap="round"></path><path d="M 226.585,147.126 C 228.005,156.289 227.970,156.295 229.416,165.454" stroke-width="11.233" stroke="rgb(33,33,33)" fill="none" stroke-linecap="round"></path><path d="M 229.416,165.454 C 231.003,175.506 231.238,175.473 232.651,185.548" stroke-width="10.677" stroke="rgb(33,33,33)" fill="none" stroke-linecap="round"></path><path d="M 232.651,185.548 C 233.968,194.942 233.787,194.967 234.877,204.392" stroke-width="10.435" stroke="rgb(33,33,33)" fill="none" stroke-linecap="round"></path><path d="M 234.877,204.392 C 235.861,212.902 235.814,212.908 236.798,221.418" stroke-width="10.423" stroke="rgb(33,33,33)" fill="none" stroke-linecap="round"></path><path d="M 236.798,221.418 C 237.815,230.213 237.870,230.206 238.880,239.002" stroke-width="10.174" stroke="rgb(33,33,33)" fill="none" stroke-linecap="round"></path><path d="M 238.880,239.002 C 239.970,248.493 239.626,248.543 240.999,257.992" stroke-width="10.102" stroke="rgb(33,33,33)" fill="none" stroke-linecap="round"></path><path d="M 240.999,257.992 C 242.352,267.307 242.568,267.280 244.333,276.530" stroke-width="10.212" stroke="rgb(33,33,33)" fill="none" stroke-linecap="round"></path><path d="M 244.333,276.530 C 245.950,285.005 245.902,285.019 247.762,293.443" stroke-width="10.380" stroke="rgb(33,33,33)" fill="none" stroke-linecap="round"></path><path d="M 247.762,293.443 C 249.405,300.881 249.334,300.907 251.339,308.255" stroke-width="10.541" stroke="rgb(33,33,33)" fill="none" stroke-linecap="round"></path><path d="M 251.339,308.255 C 254.702,320.580 255.279,320.433 258.497,332.790" stroke-width="10.386" stroke="rgb(33,33,33)" fill="none" stroke-linecap="round"></path><path d="M 258.497,332.790 C 260.320,339.789 259.678,339.949 261.421,346.968" stroke-width="10.706" stroke="rgb(33,33,33)" fill="none" stroke-linecap="round"></path><path d="M 261.421,346.968 C 263.183,354.062 263.188,354.088 265.507,361.017" stroke-width="10.890" stroke="rgb(33,33,33)" fill="none" stroke-linecap="round"></path><path d="M 265.507,361.017 C 267.117,365.829 266.834,366.060 269.280,370.451" stroke-width="11.403" stroke="rgb(33,33,33)" fill="none" stroke-linecap="round"></path><path d="M 269.280,370.451 C 271.171,373.846 272.038,375.665 274.181,376.591" stroke-width="11.943" stroke="rgb(33,33,33)" fill="none" stroke-linecap="round"></path><path d="M 274.181,376.591 C 275.188,377.026 275.068,374.942 275.581,373.174" stroke-width="12.723" stroke="rgb(33,33,33)" fill="none" stroke-linecap="round"></path><path d="M 275.581,373.174 C 276.641,369.522 276.675,369.504 277.327,365.750" stroke-width="13.099" stroke="rgb(33,33,33)" fill="none" stroke-linecap="round"></path><path d="M 277.327,365.750 C 278.534,358.802 278.756,358.804 279.298,351.771" stroke-width="13.418" stroke="rgb(33,33,33)" fill="none" stroke-linecap="round"></path><path d="M 279.298,351.771 C 280.892,331.111 280.574,331.074 281.599,310.365" stroke-width="7.812" stroke="rgb(33,33,33)" fill="none" stroke-linecap="round"></path><path d="M 281.599,310.365 C 282.425,293.689 282.745,293.687 283.000,277.000" stroke-width="6.750" stroke="rgb(33,33,33)" fill="none" stroke-linecap="round"></path><path d="M 283.000,277.000 C 283.196,264.190 282.615,264.186 282.500,251.370" stroke-width="6.854" stroke="rgb(33,33,33)" fill="none" stroke-linecap="round"></path><path d="M 282.500,251.370 C 282.365,236.437 283.792,236.310 282.500,221.501" stroke-width="6.947" stroke="rgb(33,33,33)" fill="none" stroke-linecap="round"></path><path d="M 282.500,221.501 C 281.441,209.367 280.149,209.492 277.797,197.484" stroke-width="7.222" stroke="rgb(33,33,33)" fill="none" stroke-linecap="round"></path><path d="M 277.797,197.484 C 275.446,185.482 275.916,185.370 273.094,173.481" stroke-width="7.625" stroke="rgb(33,33,33)" fill="none" stroke-linecap="round"></path><path d="M 273.094,173.481 C 270.534,162.697 271.454,162.250 267.034,152.138" stroke-width="8.016" stroke="rgb(33,33,33)" fill="none" stroke-linecap="round"></path><path d="M 267.034,152.138 C 259.179,134.167 258.823,134.015 248.543,117.315" stroke-width="8.338" stroke="rgb(33,33,33)" fill="none" stroke-linecap="round"></path><path d="M 248.543,117.315 C 244.554,110.835 244.024,111.015 238.496,105.778" stroke-width="7.849" stroke="rgb(33,33,33)" fill="none" stroke-linecap="round"></path><path d="M 238.496,105.778 C 232.845,100.425 232.712,100.384 226.186,96.134" stroke-width="7.754" stroke="rgb(33,33,33)" fill="none" stroke-linecap="round"></path><path d="M 226.186,96.134 C 219.895,92.037 219.793,91.929 212.861,89.084" stroke-width="8.173" stroke="rgb(33,33,33)" fill="none" stroke-linecap="round"></path><path d="M 212.861,89.084 C 207.337,86.817 207.142,87.148 201.274,85.909" stroke-width="8.745" stroke="rgb(33,33,33)" fill="none" stroke-linecap="round"></path><path d="M 201.274,85.909 C 194.987,84.581 194.948,84.553 188.551,83.950" stroke-width="9.334" stroke="rgb(33,33,33)" fill="none" stroke-linecap="round"></path><path d="M 188.551,83.950 C 182.168,83.348 182.115,83.282 175.715,83.500" stroke-width="9.779" stroke="rgb(33,33,33)" fill="none" stroke-linecap="round"></path><path d="M 175.715,83.500 C 170.179,83.689 169.943,83.145 164.679,84.764" stroke-width="10.291" stroke="rgb(33,33,33)" fill="none" stroke-linecap="round"></path><path d="M 164.679,84.764 C 154.048,88.034 153.995,88.418 143.925,93.279" stroke-width="10.283" stroke="rgb(33,33,33)" fill="none" stroke-linecap="round"></path><path d="M 143.925,93.279 C 137.956,96.160 138.256,96.752 132.601,100.249" stroke-width="10.679" stroke="rgb(33,33,33)" fill="none" stroke-linecap="round"></path><path d="M 132.601,100.249 C 127.135,103.629 126.899,103.297 121.684,107.034" stroke-width="10.972" stroke="rgb(33,33,33)" fill="none" stroke-linecap="round"></path><path d="M 121.684,107.034 C 115.316,111.598 114.680,111.073 109.436,116.851" stroke-width="11.170" stroke="rgb(33,33,33)" fill="none" stroke-linecap="round"></path><path d="M 109.436,116.851 C 98.138,129.302 98.225,129.652 88.600,143.492" stroke-width="10.343" stroke="rgb(33,33,33)" fill="none" stroke-linecap="round"></path><path d="M 88.600,143.492 C 83.792,150.405 84.596,150.930 80.571,158.357" stroke-width="10.508" stroke="rgb(33,33,33)" fill="none" stroke-linecap="round"></path><path d="M 80.571,158.357 C 76.697,165.505 75.616,165.059 72.803,172.642" stroke-width="10.586" stroke="rgb(33,33,33)" fill="none" stroke-linecap="round"></path><path d="M 72.803,172.642 C 67.324,187.411 67.338,187.652 63.987,203.060" stroke-width="10.096" stroke="rgb(33,33,33)" fill="none" stroke-linecap="round"></path><path d="M 63.987,203.060 C 62.138,211.563 63.222,211.765 62.404,220.464" stroke-width="10.274" stroke="rgb(33,33,33)" fill="none" stroke-linecap="round"></path><path d="M 62.404,220.464 C 61.581,229.213 61.314,229.193 60.704,237.956" stroke-width="10.416" stroke="rgb(33,33,33)" fill="none" stroke-linecap="round"></path><path d="M 60.704,237.956 C 60.112,246.461 59.556,246.500 60.000,255.000" stroke-width="10.672" stroke="rgb(33,33,33)" fill="none" stroke-linecap="round"></path><path d="M 60.000,255.000 C 60.954,273.271 61.117,273.345 63.500,291.498" stroke-width="9.714" stroke="rgb(33,33,33)" fill="none" stroke-linecap="round"></path><path d="M 63.500,291.498 C 64.613,299.976 65.100,299.913 66.992,308.261" stroke-width="9.971" stroke="rgb(33,33,33)" fill="none" stroke-linecap="round"></path><path d="M 66.992,308.261 C 68.660,315.624 68.514,315.672 70.620,322.921" stroke-width="10.250" stroke="rgb(33,33,33)" fill="none" stroke-linecap="round"></path><path d="M 70.620,322.921 C 75.268,338.917 75.961,338.726 80.500,354.750" stroke-width="9.781" stroke="rgb(33,33,33)" fill="none" stroke-linecap="round"></path><path d="M 80.500,354.750 C 82.956,363.421 82.345,363.584 84.610,372.310" stroke-width="10.024" stroke="rgb(33,33,33)" fill="none" stroke-linecap="round"></path><path d="M 84.610,372.310 C 87.032,381.644 87.363,381.557 89.874,390.870" stroke-width="10.079" stroke="rgb(33,33,33)" fill="none" stroke-linecap="round"></path><path d="M 89.874,390.870 C 92.292,399.836 92.392,399.818 94.467,408.868" stroke-width="10.247" stroke="rgb(33,33,33)" fill="none" stroke-linecap="round"></path><path d="M 94.467,408.868 C 96.700,418.608 96.549,418.651 98.490,428.450" stroke-width="10.780" stroke="rgb(33,33,33)" fill="none" stroke-linecap="round"></path><path d="M 98.490,428.450 C 98.565,428.829 98.496,429.049 98.500,429.224" stroke-width="11.740" stroke="rgb(33,33,33)" fill="none" stroke-linecap="round"></path><path d="M 98.500,429.224 C 98.501,429.290 98.516,429.077 98.500,428.932" stroke-width="12.778" stroke="rgb(33,33,33)" fill="none" stroke-linecap="round"></path><path d="M 98.500,428.932 C 98.141,425.590 98.385,425.548 97.750,422.250" stroke-width="12.521" stroke="rgb(33,33,33)" fill="none" stroke-linecap="round"></path><path d="M 97.750,422.250 C 96.017,413.245 95.767,413.286 93.765,404.326" stroke-width="11.843" stroke="rgb(33,33,33)" fill="none" stroke-linecap="round"></path><path d="M 93.765,404.326 C 91.252,393.079 91.296,393.069 88.721,381.837" stroke-width="10.911" stroke="rgb(33,33,33)" fill="none" stroke-linecap="round"></path><path d="M 88.721,381.837 C 85.753,368.895 85.757,368.893 82.679,355.977" stroke-width="10.139" stroke="rgb(33,33,33)" fill="none" stroke-linecap="round"></path><path d="M 82.679,355.977 C 79.325,341.907 79.579,341.837 75.857,327.864" stroke-width="9.378" stroke="rgb(33,33,33)" fill="none" stroke-linecap="round"></path><path d="M 75.857,327.864 C 72.681,315.942 72.288,316.049 68.883,304.186" stroke-width="9.130" stroke="rgb(33,33,33)" fill="none" stroke-linecap="round"></path><path d="M 68.883,304.186 C 65.207,291.376 65.380,291.326 61.695,278.519" stroke-width="8.851" stroke="rgb(33,33,33)" fill="none" stroke-linecap="round"></path><path d="M 61.695,278.519 C 58.678,268.032 59.365,267.750 55.479,257.598" stroke-width="8.792" stroke="rgb(33,33,33)" fill="none" stroke-linecap="round"></path><path d="M 55.479,257.598 C 52.478,249.759 52.042,249.874 47.921,242.536" stroke-width="9.037" stroke="rgb(33,33,33)" fill="none" stroke-linecap="round"></path><path d="M 47.921,242.536 C 44.219,235.946 44.463,235.668 39.833,229.742" stroke-width="9.329" stroke="rgb(33,33,33)" fill="none" stroke-linecap="round"></path><path d="M 39.833,229.742 C 36.215,225.112 35.802,225.352 31.425,221.425" stroke-width="9.756" stroke="rgb(33,33,33)" fill="none" stroke-linecap="round"></path><path d="M 31.425,221.425 C 30.486,220.582 30.225,220.931 29.202,220.202" stroke-width="10.738" stroke="rgb(33,33,33)" fill="none" stroke-linecap="round"></path><path d="M 29.202,220.202 C 28.487,219.692 28.308,219.679 27.948,218.948" stroke-width="11.740" stroke="rgb(33,33,33)" fill="none" stroke-linecap="round"></path><path d="M 27.948,218.948 C 27.706,218.456 27.479,218.015 27.997,217.755" stroke-width="12.726" stroke="rgb(33,33,33)" fill="none" stroke-linecap="round"></path><path d="M 27.997,217.755 C 37.148,213.165 37.507,213.170 47.287,209.248" stroke-width="12.870" stroke="rgb(33,33,33)" fill="none" stroke-linecap="round"></path><path d="M 47.287,209.248 C 61.322,203.620 61.431,203.882 75.627,198.655" stroke-width="9.142" stroke="rgb(33,33,33)" fill="none" stroke-linecap="round"></path><path d="M 75.627,198.655 C 98.972,190.059 98.907,189.870 122.368,181.603" stroke-width="6.750" stroke="rgb(33,33,33)" fill="none" stroke-linecap="round"></path><path d="M 122.368,181.603 C 141.343,174.917 141.515,175.408 160.500,168.750" stroke-width="6.750" stroke="rgb(33,33,33)" fill="none" stroke-linecap="round"></path><path d="M 160.500,168.750 C 180.839,161.617 180.417,160.254 201.016,154.020" stroke-width="6.750" stroke="rgb(33,33,33)" fill="none" stroke-linecap="round"></path><path d="M 201.016,154.020 C 220.861,148.014 221.113,148.733 241.388,144.271" stroke-width="6.750" stroke="rgb(33,33,33)" fill="none" stroke-linecap="round"></path><path d="M 241.388,144.271 C 255.143,141.244 255.230,141.647 269.076,139.041" stroke-width="6.750" stroke="rgb(33,33,33)" fill="none" stroke-linecap="round"></path><path d="M 269.076,139.041 C 278.366,137.293 278.334,137.021 287.659,135.562" stroke-width="7.008" stroke="rgb(33,33,33)" fill="none" stroke-linecap="round"></path><path d="M 287.659,135.562 C 290.300,135.149 293.976,134.528 293.007,135.297" stroke-width="7.981" stroke="rgb(33,33,33)" fill="none" stroke-linecap="round"></path><path d="M 293.007,135.297 C 290.584,137.219 286.969,138.184 280.874,140.945" stroke-width="7.752" stroke="rgb(33,33,33)" fill="none" stroke-linecap="round"></path><path d="M 280.874,140.945 C 271.908,145.006 271.763,144.694 262.884,148.940" stroke-width="7.934" stroke="rgb(33,33,33)" fill="none" stroke-linecap="round"></path><path d="M 262.884,148.940 C 243.259,158.324 243.308,158.439 223.867,168.205" stroke-width="6.750" stroke="rgb(33,33,33)" fill="none" stroke-linecap="round"></path><path d="M 223.867,168.205 C 205.083,177.642 204.879,177.282 186.433,187.346" stroke-width="6.750" stroke="rgb(33,33,33)" fill="none" stroke-linecap="round"></path><path d="M 186.433,187.346 C 171.567,195.456 171.736,195.780 157.244,204.553" stroke-width="6.750" stroke="rgb(33,33,33)" fill="none" stroke-linecap="round"></path><path d="M 157.244,204.553 C 141.814,213.893 141.851,213.958 126.589,223.572" stroke-width="6.750" stroke="rgb(33,33,33)" fill="none" stroke-linecap="round"></path><path d="M 126.589,223.572 C 111.689,232.958 111.666,232.925 96.921,242.553" stroke-width="6.750" stroke="rgb(33,33,33)" fill="none" stroke-linecap="round"></path><path d="M 96.921,242.553 C 73.164,258.066 73.177,258.092 49.585,273.855" stroke-width="6.750" stroke="rgb(33,33,33)" fill="none" stroke-linecap="round"></path><path d="M 49.585,273.855 C 43.438,277.962 43.437,277.969 37.444,282.294" stroke-width="7.000" stroke="rgb(33,33,33)" fill="none" stroke-linecap="round"></path><path d="M 37.444,282.294 C 33.850,284.887 33.808,284.874 30.411,287.692" stroke-width="7.766" stroke="rgb(33,33,33)" fill="none" stroke-linecap="round"></path><path d="M 30.411,287.692 C 29.843,288.163 28.924,289.053 29.513,288.872" stroke-width="8.831" stroke="rgb(33,33,33)" fill="none" stroke-linecap="round"></path><path d="M 29.513,288.872 C 35.298,287.097 36.478,286.663 43.160,283.781" stroke-width="8.036" stroke="rgb(33,33,33)" fill="none" stroke-linecap="round"></path><path d="M 43.160,283.781 C 53.721,279.227 53.525,278.770 64.000,274.000" stroke-width="7.254" stroke="rgb(33,33,33)" fill="none" stroke-linecap="round"></path><path d="M 64.000,274.000 C 81.801,265.895 81.800,265.889 99.712,258.032" stroke-width="6.930" stroke="rgb(33,33,33)" fill="none" stroke-linecap="round"></path><path d="M 99.712,258.032 C 117.132,250.390 117.219,250.588 134.664,243.001" stroke-width="6.750" stroke="rgb(33,33,33)" fill="none" stroke-linecap="round"></path><path d="M 134.664,243.001 C 161.326,231.404 161.358,231.474 187.926,219.664" stroke-width="6.750" stroke="rgb(33,33,33)" fill="none" stroke-linecap="round"></path><path d="M 187.926,219.664 C 212.312,208.823 212.163,208.485 236.572,197.699" stroke-width="6.750" stroke="rgb(33,33,33)" fill="none" stroke-linecap="round"></path><path d="M 236.572,197.699 C 251.696,191.016 251.733,191.094 266.993,184.727" stroke-width="6.750" stroke="rgb(33,33,33)" fill="none" stroke-linecap="round"></path><path d="M 266.993,184.727 C 287.779,176.054 287.825,176.163 308.664,167.618" stroke-width="6.750" stroke="rgb(33,33,33)" fill="none" stroke-linecap="round"></path><path d="M 308.664,167.618 C 314.543,165.207 314.495,165.079 320.429,162.816" stroke-width="7.339" stroke="rgb(33,33,33)" fill="none" stroke-linecap="round"></path><path d="M 320.429,162.816 C 323.665,161.582 323.684,161.601 327.004,160.624" stroke-width="8.197" stroke="rgb(33,33,33)" fill="none" stroke-linecap="round"></path><circle r="6" cx="326.5" cy="213.5" fill="rgb(33,33,33)"></circle></svg>