<svg xmlns="http://www.w3.org/2000/svg" xmlns:xlink="http://www.w3.org/1999/xlink" viewBox="0 0 320 500"><path d="M 175.000,43.500 C 166.000,45.500 164.175,43.400 157.000,47.500" stroke-width="19.493" stroke="rgb(33,33,33)" fill="none" stroke-linecap="round"></path><path d="M 157.000,47.500 C 153.675,49.400 155.083,51.385 154.000,55.500" stroke-width="17.561" stroke="rgb(33,33,33)" fill="none" stroke-linecap="round"></path><path d="M 154.000,55.500 C 152.583,60.885 152.692,60.960 152.000,66.500" stroke-width="16.328" stroke="rgb(33,33,33)" fill="none" stroke-linecap="round"></path><path d="M 152.000,66.500 C 151.192,72.960 151.241,72.990 151.000,79.500" stroke-width="15.050" stroke="rgb(33,33,33)" fill="none" stroke-linecap="round"></path><path d="M 151.000,79.500 C 150.741,86.490 151.000,86.500 151.000,93.500" stroke-width="13.716" stroke="rgb(33,33,33)" fill="none" stroke-linecap="round"></path><path d="M 151.000,93.500 C 151.000,102.000 151.000,102.000 151.000,110.500" stroke-width="13.055" stroke="rgb(33,33,33)" fill="none" stroke-linecap="round"></path><path d="M 151.000,110.500 C 151.000,119.000 151.000,119.000 151.000,127.500" stroke-width="12.027" stroke="rgb(33,33,33)" fill="none" stroke-linecap="round"></path><path d="M 151.000,127.500 C 151.000,133.500 150.770,133.508 151.000,139.500" stroke-width="12.051" stroke="rgb(33,33,33)" fill="none" stroke-linecap="round"></path><path d="M 151.000,139.500 C 151.270,146.508 151.462,146.503 152.000,153.500" stroke-width="11.846" stroke="rgb(33,33,33)" fill="none" stroke-linecap="round"></path><path d="M 152.000,153.500 C 152.462,159.503 152.013,159.581 153.000,165.500" stroke-width="11.903" stroke="rgb(33,33,33)" fill="none" stroke-linecap="round"></path><path d="M 153.000,165.500 C 154.013,171.581 153.914,171.706 156.000,177.500" stroke-width="11.653" stroke="rgb(33,33,33)" fill="none" stroke-linecap="round"></path><path d="M 156.000,177.500 C 158.414,184.206 158.382,184.376 162.000,190.500" stroke-width="11.514" stroke="rgb(33,33,33)" fill="none" stroke-linecap="round"></path><path d="M 162.000,190.500 C 164.882,195.376 164.895,195.651 169.000,199.500" stroke-width="11.631" stroke="rgb(33,33,33)" fill="none" stroke-linecap="round"></path><path d="M 169.000,199.500 C 172.895,203.151 173.416,202.635 178.000,205.500" stroke-width="11.773" stroke="rgb(33,33,33)" fill="none" stroke-linecap="round"></path><path d="M 178.000,205.500 C 181.416,207.635 181.271,208.168 185.000,209.500" stroke-width="12.119" stroke="rgb(33,33,33)" fill="none" stroke-linecap="round"></path><path d="M 185.000,209.500 C 188.271,210.668 188.481,210.265 192.000,210.500" stroke-width="12.415" stroke="rgb(33,33,33)" fill="none" stroke-linecap="round"></path><path d="M 192.000,210.500 C 195.981,210.765 196.011,210.722 200.000,210.500" stroke-width="12.706" stroke="rgb(33,33,33)" fill="none" stroke-linecap="round"></path><path d="M 200.000,210.500 C 205.011,210.222 205.718,211.515 210.000,209.500" stroke-width="12.710" stroke="rgb(33,33,33)" fill="none" stroke-linecap="round"></path><path d="M 210.000,209.500 C 214.218,207.515 213.730,206.206 217.000,202.500" stroke-width="12.728" stroke="rgb(33,33,33)" fill="none" stroke-linecap="round"></path><path d="M 217.000,202.500 C 221.230,197.706 221.992,198.053 225.000,192.500" stroke-width="12.230" stroke="rgb(33,33,33)" fill="none" stroke-linecap="round"></path><path d="M 225.000,192.500 C 228.492,186.053 227.961,185.637 230.000,178.500" stroke-width="12.102" stroke="rgb(33,33,33)" fill="none" stroke-linecap="round"></path><path d="M 230.000,178.500 C 232.961,168.137 233.192,168.122 235.000,157.500" stroke-width="10.825" stroke="rgb(33,33,33)" fill="none" stroke-linecap="round"></path><path d="M 235.000,157.500 C 237.192,144.622 236.997,144.538 238.000,131.500" stroke-width="10.189" stroke="rgb(33,33,33)" fill="none" stroke-linecap="round"></path><path d="M 238.000,131.500 C 238.997,118.538 238.422,118.496 239.000,105.500" stroke-width="9.661" stroke="rgb(33,33,33)" fill="none" stroke-linecap="round"></path><path d="M 239.000,105.500 C 239.422,95.996 239.736,96.006 240.000,86.500" stroke-width="9.640" stroke="rgb(33,33,33)" fill="none" stroke-linecap="round"></path><path d="M 240.000,86.500 C 240.236,78.006 240.000,78.000 240.000,69.500" stroke-width="9.733" stroke="rgb(33,33,33)" fill="none" stroke-linecap="round"></path><path d="M 240.000,69.500 C 240.000,64.000 240.805,63.869 240.000,58.500" stroke-width="10.069" stroke="rgb(33,33,33)" fill="none" stroke-linecap="round"></path><path d="M 240.000,58.500 C 239.305,53.869 238.965,53.757 237.000,49.500" stroke-width="10.578" stroke="rgb(33,33,33)" fill="none" stroke-linecap="round"></path><path d="M 237.000,49.500 C 235.965,47.257 235.597,47.416 234.000,45.500" stroke-width="11.311" stroke="rgb(33,33,33)" fill="none" stroke-linecap="round"></path><path d="M 234.000,45.500 C 233.097,44.416 233.108,44.239 232.000,43.500" stroke-width="12.144" stroke="rgb(33,33,33)" fill="none" stroke-linecap="round"></path><path d="M 232.000,43.500 C 231.608,43.239 231.250,43.250 231.000,43.500" stroke-width="13.106" stroke="rgb(33,33,33)" fill="none" stroke-linecap="round"></path><path d="M 231.000,43.500 C 230.750,43.750 231.000,44.000 231.000,44.500" stroke-width="13.986" stroke="rgb(33,33,33)" fill="none" stroke-linecap="round"></path><path d="M 231.000,44.500 C 231.000,51.500 230.816,51.504 231.000,58.500" stroke-width="12.868" stroke="rgb(33,33,33)" fill="none" stroke-linecap="round"></path><path d="M 231.000,58.500 C 231.316,70.504 231.043,70.536 232.000,82.500" stroke-width="12.073" stroke="rgb(33,33,33)" fill="none" stroke-linecap="round"></path><path d="M 232.000,82.500 C 233.043,95.536 233.113,95.558 235.000,108.500" stroke-width="10.414" stroke="rgb(33,33,33)" fill="none" stroke-linecap="round"></path><path d="M 235.000,108.500 C 236.613,119.558 236.866,119.526 239.000,130.500" stroke-width="9.950" stroke="rgb(33,33,33)" fill="none" stroke-linecap="round"></path><path d="M 239.000,130.500 C 240.366,137.526 240.479,137.505 242.000,144.500" stroke-width="10.273" stroke="rgb(33,33,33)" fill="none" stroke-linecap="round"></path><path d="M 242.000,144.500 C 242.979,149.005 243.096,148.981 244.000,153.500" stroke-width="10.553" stroke="rgb(33,33,33)" fill="none" stroke-linecap="round"></path><path d="M 244.000,153.500 C 244.596,156.481 244.624,156.490 245.000,159.500" stroke-width="11.256" stroke="rgb(33,33,33)" fill="none" stroke-linecap="round"></path><path d="M 245.000,159.500 C 245.124,160.490 244.667,160.833 245.000,161.500" stroke-width="12.178" stroke="rgb(33,33,33)" fill="none" stroke-linecap="round"></path><path d="M 245.000,161.500 C 245.167,161.833 246.000,161.809 246.000,161.500" stroke-width="13.126" stroke="rgb(33,33,33)" fill="none" stroke-linecap="round"></path><path d="M 246.000,161.500 C 246.000,160.809 245.818,160.243 245.000,159.500" stroke-width="13.983" stroke="rgb(33,33,33)" fill="none" stroke-linecap="round"></path><path d="M 245.000,159.500 C 240.318,155.243 239.722,155.811 235.000,151.500" stroke-width="13.492" stroke="rgb(33,33,33)" fill="none" stroke-linecap="round"></path><path d="M 235.000,151.500 C 228.222,145.311 229.006,144.411 222.000,138.500" stroke-width="12.523" stroke="rgb(33,33,33)" fill="none" stroke-linecap="round"></path><path d="M 222.000,138.500 C 213.006,130.911 212.875,130.930 203.000,124.500" stroke-width="11.199" stroke="rgb(33,33,33)" fill="none" stroke-linecap="round"></path><path d="M 203.000,124.500 C 191.375,116.930 191.804,115.425 179.000,110.500" stroke-width="10.156" stroke="rgb(33,33,33)" fill="none" stroke-linecap="round"></path><path d="M 179.000,110.500 C 165.804,105.425 165.150,106.301 151.000,104.500" stroke-width="9.659" stroke="rgb(33,33,33)" fill="none" stroke-linecap="round"></path><path d="M 151.000,104.500 C 137.650,102.801 137.505,103.750 124.000,103.500" stroke-width="9.142" stroke="rgb(33,33,33)" fill="none" stroke-linecap="round"></path><path d="M 124.000,103.500 C 110.505,103.250 110.106,101.582 97.000,103.500" stroke-width="8.844" stroke="rgb(33,33,33)" fill="none" stroke-linecap="round"></path><path d="M 97.000,103.500 C 89.606,104.582 89.312,105.483 83.000,109.500" stroke-width="9.061" stroke="rgb(33,33,33)" fill="none" stroke-linecap="round"></path><path d="M 83.000,109.500 C 78.312,112.483 78.042,112.937 75.000,117.500" stroke-width="9.581" stroke="rgb(33,33,33)" fill="none" stroke-linecap="round"></path><path d="M 75.000,117.500 C 73.042,120.437 73.000,120.970 73.000,124.500" stroke-width="10.245" stroke="rgb(33,33,33)" fill="none" stroke-linecap="round"></path><path d="M 73.000,124.500 C 73.000,128.970 72.469,130.049 75.000,133.500" stroke-width="10.678" stroke="rgb(33,33,33)" fill="none" stroke-linecap="round"></path><path d="M 75.000,133.500 C 77.969,137.549 79.225,137.008 84.000,139.500" stroke-width="11.021" stroke="rgb(33,33,33)" fill="none" stroke-linecap="round"></path><path d="M 84.000,139.500 C 90.725,143.008 90.779,143.171 98.000,145.500" stroke-width="10.729" stroke="rgb(33,33,33)" fill="none" stroke-linecap="round"></path><path d="M 98.000,145.500 C 106.279,148.171 106.373,148.422 115.000,149.500" stroke-width="10.635" stroke="rgb(33,33,33)" fill="none" stroke-linecap="round"></path><path d="M 115.000,149.500 C 126.373,150.922 126.499,150.500 138.000,150.500" stroke-width="10.232" stroke="rgb(33,33,33)" fill="none" stroke-linecap="round"></path><path d="M 138.000,150.500 C 150.999,150.500 151.455,152.333 164.000,149.500" stroke-width="9.397" stroke="rgb(33,33,33)" fill="none" stroke-linecap="round"></path><path d="M 164.000,149.500 C 182.455,145.333 182.149,143.385 200.000,136.500" stroke-width="8.703" stroke="rgb(33,33,33)" fill="none" stroke-linecap="round"></path><path d="M 200.000,136.500 C 217.149,129.885 217.228,130.010 234.000,122.500" stroke-width="8.032" stroke="rgb(33,33,33)" fill="none" stroke-linecap="round"></path><path d="M 234.000,122.500 C 250.728,115.010 250.440,114.373 267.000,106.500" stroke-width="7.646" stroke="rgb(33,33,33)" fill="none" stroke-linecap="round"></path><path d="M 267.000,106.500 C 280.940,99.873 281.300,100.535 295.000,93.500" stroke-width="7.487" stroke="rgb(33,33,33)" fill="none" stroke-linecap="round"></path><path d="M 295.000,93.500 C 299.800,91.035 299.500,90.500 304.000,87.500" stroke-width="8.130" stroke="rgb(33,33,33)" fill="none" stroke-linecap="round"></path><path d="M 304.000,87.500 C 305.500,86.500 305.563,86.577 307.000,85.500" stroke-width="9.060" stroke="rgb(33,33,33)" fill="none" stroke-linecap="round"></path><circle r="6" cx="273" cy="186.5" fill="rgb(33,33,33)"></circle></svg>