<svg xmlns="http://www.w3.org/2000/svg" xmlns:xlink="http://www.w3.org/1999/xlink" viewBox="0 0 414 500"><path d="M 103.000,157.500 C 104.500,163.000 105.017,162.931 106.000,168.500" stroke-width="18.941" stroke="rgb(33,33,33)" fill="none" stroke-linecap="round"></path><path d="M 106.000,168.500 C 106.517,171.431 105.381,171.612 106.000,174.500" stroke-width="17.748" stroke="rgb(33,33,33)" fill="none" stroke-linecap="round"></path><path d="M 106.000,174.500 C 106.881,178.612 107.706,178.432 109.000,182.500" stroke-width="16.604" stroke="rgb(33,33,33)" fill="none" stroke-linecap="round"></path><path d="M 109.000,182.500 C 111.206,189.432 110.908,189.527 113.000,196.500" stroke-width="15.141" stroke="rgb(33,33,33)" fill="none" stroke-linecap="round"></path><path d="M 113.000,196.500 C 115.408,204.527 115.420,204.526 118.000,212.500" stroke-width="13.687" stroke="rgb(33,33,33)" fill="none" stroke-linecap="round"></path><path d="M 118.000,212.500 C 120.920,221.526 120.934,221.522 124.000,230.500" stroke-width="12.603" stroke="rgb(33,33,33)" fill="none" stroke-linecap="round"></path><path d="M 124.000,230.500 C 127.934,242.022 127.921,242.028 132.000,253.500" stroke-width="11.428" stroke="rgb(33,33,33)" fill="none" stroke-linecap="round"></path><path d="M 132.000,253.500 C 135.921,264.528 135.943,264.521 140.000,275.500" stroke-width="10.601" stroke="rgb(33,33,33)" fill="none" stroke-linecap="round"></path><path d="M 140.000,275.500 C 144.443,287.521 144.330,287.566 149.000,299.500" stroke-width="9.977" stroke="rgb(33,33,33)" fill="none" stroke-linecap="round"></path><path d="M 149.000,299.500 C 153.330,310.566 153.150,310.659 158.000,321.500" stroke-width="9.699" stroke="rgb(33,33,33)" fill="none" stroke-linecap="round"></path><path d="M 158.000,321.500 C 161.650,329.659 161.883,329.561 166.000,337.500" stroke-width="9.732" stroke="rgb(33,33,33)" fill="none" stroke-linecap="round"></path><path d="M 166.000,337.500 C 168.883,343.061 168.708,343.181 172.000,348.500" stroke-width="9.967" stroke="rgb(33,33,33)" fill="none" stroke-linecap="round"></path><path d="M 172.000,348.500 C 175.208,353.681 175.616,353.423 179.000,358.500" stroke-width="10.285" stroke="rgb(33,33,33)" fill="none" stroke-linecap="round"></path><path d="M 179.000,358.500 C 181.616,362.423 181.450,362.533 184.000,366.500" stroke-width="10.697" stroke="rgb(33,33,33)" fill="none" stroke-linecap="round"></path><path d="M 184.000,366.500 C 185.950,369.533 185.758,369.698 188.000,372.500" stroke-width="11.254" stroke="rgb(33,33,33)" fill="none" stroke-linecap="round"></path><path d="M 188.000,372.500 C 189.758,374.698 190.000,374.500 192.000,376.500" stroke-width="11.870" stroke="rgb(33,33,33)" fill="none" stroke-linecap="round"></path><path d="M 192.000,376.500 C 193.000,377.500 192.892,377.761 194.000,378.500" stroke-width="12.655" stroke="rgb(33,33,33)" fill="none" stroke-linecap="round"></path><path d="M 194.000,378.500 C 194.392,378.761 194.875,378.875 195.000,378.500" stroke-width="13.573" stroke="rgb(33,33,33)" fill="none" stroke-linecap="round"></path><path d="M 195.000,378.500 C 195.375,377.375 195.000,377.000 195.000,375.500" stroke-width="14.151" stroke="rgb(33,33,33)" fill="none" stroke-linecap="round"></path><path d="M 195.000,375.500 C 195.000,368.500 196.172,368.336 195.000,361.500" stroke-width="13.415" stroke="rgb(33,33,33)" fill="none" stroke-linecap="round"></path><path d="M 195.000,361.500 C 193.172,350.836 191.756,351.064 189.000,340.500" stroke-width="12.165" stroke="rgb(33,33,33)" fill="none" stroke-linecap="round"></path><path d="M 189.000,340.500 C 185.756,328.064 186.118,327.971 183.000,315.500" stroke-width="11.041" stroke="rgb(33,33,33)" fill="none" stroke-linecap="round"></path><path d="M 183.000,315.500 C 180.118,303.971 179.654,304.080 177.000,292.500" stroke-width="10.308" stroke="rgb(33,33,33)" fill="none" stroke-linecap="round"></path><path d="M 177.000,292.500 C 174.154,280.080 174.173,280.057 172.000,267.500" stroke-width="9.776" stroke="rgb(33,33,33)" fill="none" stroke-linecap="round"></path><path d="M 172.000,267.500 C 169.673,254.057 170.284,253.952 168.000,240.500" stroke-width="9.296" stroke="rgb(33,33,33)" fill="none" stroke-linecap="round"></path><path d="M 168.000,240.500 C 165.784,227.452 165.700,227.458 163.000,214.500" stroke-width="8.907" stroke="rgb(33,33,33)" fill="none" stroke-linecap="round"></path><path d="M 163.000,214.500 C 160.700,203.458 160.869,203.401 158.000,192.500" stroke-width="8.865" stroke="rgb(33,33,33)" fill="none" stroke-linecap="round"></path><path d="M 158.000,192.500 C 155.869,184.401 155.465,184.511 153.000,176.500" stroke-width="9.052" stroke="rgb(33,33,33)" fill="none" stroke-linecap="round"></path><path d="M 153.000,176.500 C 151.465,171.511 151.735,171.415 150.000,166.500" stroke-width="9.586" stroke="rgb(33,33,33)" fill="none" stroke-linecap="round"></path><path d="M 150.000,166.500 C 148.735,162.915 148.575,162.965 147.000,159.500" stroke-width="10.230" stroke="rgb(33,33,33)" fill="none" stroke-linecap="round"></path><path d="M 147.000,159.500 C 146.075,157.465 146.225,157.338 145.000,155.500" stroke-width="11.008" stroke="rgb(33,33,33)" fill="none" stroke-linecap="round"></path><path d="M 145.000,155.500 C 144.225,154.338 143.361,152.958 143.000,153.500" stroke-width="11.878" stroke="rgb(33,33,33)" fill="none" stroke-linecap="round"></path><path d="M 143.000,153.500 C 142.361,154.458 143.000,156.000 143.000,158.500" stroke-width="12.702" stroke="rgb(33,33,33)" fill="none" stroke-linecap="round"></path><path d="M 143.000,158.500 C 143.000,164.000 141.974,164.166 143.000,169.500" stroke-width="12.619" stroke="rgb(33,33,33)" fill="none" stroke-linecap="round"></path><path d="M 143.000,169.500 C 144.474,177.166 145.573,176.976 148.000,184.500" stroke-width="12.127" stroke="rgb(33,33,33)" fill="none" stroke-linecap="round"></path><path d="M 148.000,184.500 C 150.573,192.476 150.223,192.596 153.000,200.500" stroke-width="11.684" stroke="rgb(33,33,33)" fill="none" stroke-linecap="round"></path><path d="M 153.000,200.500 C 156.723,211.096 157.082,210.970 161.000,221.500" stroke-width="10.844" stroke="rgb(33,33,33)" fill="none" stroke-linecap="round"></path><path d="M 161.000,221.500 C 165.082,232.470 164.736,232.603 169.000,243.500" stroke-width="10.283" stroke="rgb(33,33,33)" fill="none" stroke-linecap="round"></path><path d="M 169.000,243.500 C 173.736,255.603 174.000,255.500 179.000,267.500" stroke-width="9.729" stroke="rgb(33,33,33)" fill="none" stroke-linecap="round"></path><path d="M 179.000,267.500 C 184.000,279.500 183.668,279.652 189.000,291.500" stroke-width="9.246" stroke="rgb(33,33,33)" fill="none" stroke-linecap="round"></path><path d="M 189.000,291.500 C 192.668,299.652 193.236,299.392 197.000,307.500" stroke-width="9.364" stroke="rgb(33,33,33)" fill="none" stroke-linecap="round"></path><path d="M 197.000,307.500 C 199.736,313.392 199.334,313.576 202.000,319.500" stroke-width="9.722" stroke="rgb(33,33,33)" fill="none" stroke-linecap="round"></path><path d="M 202.000,319.500 C 203.834,323.576 204.110,323.449 206.000,327.500" stroke-width="10.237" stroke="rgb(33,33,33)" fill="none" stroke-linecap="round"></path><path d="M 206.000,327.500 C 207.610,330.949 207.888,330.886 209.000,334.500" stroke-width="10.817" stroke="rgb(33,33,33)" fill="none" stroke-linecap="round"></path><path d="M 209.000,334.500 C 209.888,337.386 209.665,337.486 210.000,340.500" stroke-width="11.445" stroke="rgb(33,33,33)" fill="none" stroke-linecap="round"></path><path d="M 210.000,340.500 C 210.165,341.986 210.000,342.000 210.000,343.500" stroke-width="12.251" stroke="rgb(33,33,33)" fill="none" stroke-linecap="round"></path><path d="M 210.000,343.500 C 210.000,345.000 210.938,345.938 210.000,346.500" stroke-width="13.001" stroke="rgb(33,33,33)" fill="none" stroke-linecap="round"></path><path d="M 210.000,346.500 C 208.438,347.438 207.492,346.334 205.000,346.500" stroke-width="13.423" stroke="rgb(33,33,33)" fill="none" stroke-linecap="round"></path><path d="M 205.000,346.500 C 199.992,346.834 200.014,347.272 195.000,347.500" stroke-width="13.278" stroke="rgb(33,33,33)" fill="none" stroke-linecap="round"></path><path d="M 195.000,347.500 C 189.014,347.772 188.994,347.300 183.000,347.500" stroke-width="12.970" stroke="rgb(33,33,33)" fill="none" stroke-linecap="round"></path><path d="M 183.000,347.500 C 173.994,347.800 173.945,347.506 165.000,348.500" stroke-width="12.191" stroke="rgb(33,33,33)" fill="none" stroke-linecap="round"></path><path d="M 165.000,348.500 C 155.945,349.506 155.844,349.349 147.000,351.500" stroke-width="11.614" stroke="rgb(33,33,33)" fill="none" stroke-linecap="round"></path><path d="M 147.000,351.500 C 137.344,353.849 137.426,354.281 128.000,357.500" stroke-width="10.982" stroke="rgb(33,33,33)" fill="none" stroke-linecap="round"></path><path d="M 128.000,357.500 C 116.926,361.281 116.992,361.478 106.000,365.500" stroke-width="10.382" stroke="rgb(33,33,33)" fill="none" stroke-linecap="round"></path><path d="M 106.000,365.500 C 96.492,368.978 96.491,368.975 87.000,372.500" stroke-width="10.057" stroke="rgb(33,33,33)" fill="none" stroke-linecap="round"></path><path d="M 87.000,372.500 C 78.991,375.475 78.948,375.369 71.000,378.500" stroke-width="10.065" stroke="rgb(33,33,33)" fill="none" stroke-linecap="round"></path><path d="M 71.000,378.500 C 62.448,381.869 62.554,382.139 54.000,385.500" stroke-width="9.996" stroke="rgb(33,33,33)" fill="none" stroke-linecap="round"></path><path d="M 54.000,385.500 C 48.554,387.639 48.573,387.740 43.000,389.500" stroke-width="10.340" stroke="rgb(33,33,33)" fill="none" stroke-linecap="round"></path><path d="M 43.000,389.500 C 39.073,390.740 39.000,390.500 35.000,391.500" stroke-width="10.830" stroke="rgb(33,33,33)" fill="none" stroke-linecap="round"></path><path d="M 35.000,391.500 C 33.000,392.000 31.176,393.554 31.000,392.500" stroke-width="11.609" stroke="rgb(33,33,33)" fill="none" stroke-linecap="round"></path><path d="M 31.000,392.500 C 30.676,390.554 31.445,388.197 34.000,385.500" stroke-width="12.325" stroke="rgb(33,33,33)" fill="none" stroke-linecap="round"></path><path d="M 34.000,385.500 C 40.445,378.697 41.319,379.261 49.000,373.500" stroke-width="11.720" stroke="rgb(33,33,33)" fill="none" stroke-linecap="round"></path><path d="M 49.000,373.500 C 59.319,365.761 59.565,366.089 70.000,358.500" stroke-width="10.631" stroke="rgb(33,33,33)" fill="none" stroke-linecap="round"></path><path d="M 70.000,358.500 C 81.565,350.089 81.454,349.937 93.000,341.500" stroke-width="9.828" stroke="rgb(33,33,33)" fill="none" stroke-linecap="round"></path><path d="M 93.000,341.500 C 107.454,330.937 107.382,330.833 122.000,320.500" stroke-width="8.923" stroke="rgb(33,33,33)" fill="none" stroke-linecap="round"></path><path d="M 122.000,320.500 C 136.382,310.333 136.346,310.269 151.000,300.500" stroke-width="8.245" stroke="rgb(33,33,33)" fill="none" stroke-linecap="round"></path><path d="M 151.000,300.500 C 166.346,290.269 166.500,290.500 182.000,280.500" stroke-width="7.792" stroke="rgb(33,33,33)" fill="none" stroke-linecap="round"></path><path d="M 182.000,280.500 C 197.500,270.500 197.428,270.387 213.000,260.500" stroke-width="7.464" stroke="rgb(33,33,33)" fill="none" stroke-linecap="round"></path><path d="M 213.000,260.500 C 228.928,250.387 228.737,250.051 245.000,240.500" stroke-width="7.125" stroke="rgb(33,33,33)" fill="none" stroke-linecap="round"></path><path d="M 245.000,240.500 C 260.237,231.551 260.461,231.928 276.000,223.500" stroke-width="7.008" stroke="rgb(33,33,33)" fill="none" stroke-linecap="round"></path><path d="M 276.000,223.500 C 289.961,215.928 290.271,216.463 304.000,208.500" stroke-width="7.018" stroke="rgb(33,33,33)" fill="none" stroke-linecap="round"></path><path d="M 304.000,208.500 C 315.271,201.963 314.889,201.318 326.000,194.500" stroke-width="7.145" stroke="rgb(33,33,33)" fill="none" stroke-linecap="round"></path><path d="M 326.000,194.500 C 336.889,187.818 337.293,188.445 348.000,181.500" stroke-width="7.316" stroke="rgb(33,33,33)" fill="none" stroke-linecap="round"></path><path d="M 348.000,181.500 C 355.793,176.445 355.491,175.987 363.000,170.500" stroke-width="7.690" stroke="rgb(33,33,33)" fill="none" stroke-linecap="round"></path><path d="M 363.000,170.500 C 368.491,166.487 368.668,166.710 374.000,162.500" stroke-width="8.176" stroke="rgb(33,33,33)" fill="none" stroke-linecap="round"></path><path d="M 374.000,162.500 C 378.168,159.210 378.097,159.103 382.000,155.500" stroke-width="8.780" stroke="rgb(33,33,33)" fill="none" stroke-linecap="round"></path><path d="M 382.000,155.500 C 384.597,153.103 384.657,153.136 387.000,150.500" stroke-width="9.515" stroke="rgb(33,33,33)" fill="none" stroke-linecap="round"></path><path d="M 387.000,150.500 C 388.657,148.636 388.775,148.644 390.000,146.500" stroke-width="10.305" stroke="rgb(33,33,33)" fill="none" stroke-linecap="round"></path><path d="M 390.000,146.500 C 390.775,145.144 390.620,145.019 391.000,143.500" stroke-width="11.192" stroke="rgb(33,33,33)" fill="none" stroke-linecap="round"></path><path d="M 391.000,143.500 C 391.120,143.019 391.000,143.000 391.000,142.500" stroke-width="12.205" stroke="rgb(33,33,33)" fill="none" stroke-linecap="round"></path><path d="M 391.000,142.500 C 391.000,142.000 391.250,141.750 391.000,141.500" stroke-width="13.150" stroke="rgb(33,33,33)" fill="none" stroke-linecap="round"></path><path d="M 391.000,141.500 C 390.750,141.250 390.500,141.500 390.000,141.500" stroke-width="14.082" stroke="rgb(33,33,33)" fill="none" stroke-linecap="round"></path><path d="M 390.000,141.500 C 388.000,141.500 388.000,141.500 386.000,141.500" stroke-width="14.518" stroke="rgb(33,33,33)" fill="none" stroke-linecap="round"></path><path d="M 386.000,141.500 C 382.500,141.500 382.284,140.515 379.000,141.500" stroke-width="14.612" stroke="rgb(33,33,33)" fill="none" stroke-linecap="round"></path><path d="M 379.000,141.500 C 372.284,143.515 372.482,144.462 366.000,147.500" stroke-width="13.244" stroke="rgb(33,33,33)" fill="none" stroke-linecap="round"></path><path d="M 366.000,147.500 C 356.482,151.962 356.294,151.608 347.000,156.500" stroke-width="12.122" stroke="rgb(33,33,33)" fill="none" stroke-linecap="round"></path><path d="M 347.000,156.500 C 337.294,161.608 337.500,162.000 328.000,167.500" stroke-width="11.183" stroke="rgb(33,33,33)" fill="none" stroke-linecap="round"></path><path d="M 328.000,167.500 C 318.500,173.000 318.500,173.000 309.000,178.500" stroke-width="10.619" stroke="rgb(33,33,33)" fill="none" stroke-linecap="round"></path><path d="M 309.000,178.500 C 299.500,184.000 299.643,184.265 290.000,189.500" stroke-width="10.125" stroke="rgb(33,33,33)" fill="none" stroke-linecap="round"></path><path d="M 290.000,189.500 C 282.143,193.765 282.137,193.801 274.000,197.500" stroke-width="10.072" stroke="rgb(33,33,33)" fill="none" stroke-linecap="round"></path><path d="M 274.000,197.500 C 265.637,201.301 265.610,201.311 257.000,204.500" stroke-width="10.002" stroke="rgb(33,33,33)" fill="none" stroke-linecap="round"></path><path d="M 257.000,204.500 C 252.110,206.311 252.080,206.547 247.000,207.500" stroke-width="10.383" stroke="rgb(33,33,33)" fill="none" stroke-linecap="round"></path><path d="M 247.000,207.500 C 244.080,208.047 244.000,207.500 241.000,207.500" stroke-width="11.061" stroke="rgb(33,33,33)" fill="none" stroke-linecap="round"></path><path d="M 241.000,207.500 C 239.500,207.500 238.450,208.550 238.000,207.500" stroke-width="11.912" stroke="rgb(33,33,33)" fill="none" stroke-linecap="round"></path><path d="M 238.000,207.500 C 236.950,205.050 236.777,203.644 238.000,200.500" stroke-width="12.292" stroke="rgb(33,33,33)" fill="none" stroke-linecap="round"></path><path d="M 238.000,200.500 C 240.277,194.644 240.651,194.263 245.000,189.500" stroke-width="12.116" stroke="rgb(33,33,33)" fill="none" stroke-linecap="round"></path><path d="M 245.000,189.500 C 251.151,182.763 251.763,183.202 259.000,177.500" stroke-width="11.545" stroke="rgb(33,33,33)" fill="none" stroke-linecap="round"></path><path d="M 259.000,177.500 C 268.263,170.202 268.231,170.100 278.000,163.500" stroke-width="10.766" stroke="rgb(33,33,33)" fill="none" stroke-linecap="round"></path><path d="M 278.000,163.500 C 286.731,157.600 286.863,157.761 296.000,152.500" stroke-width="10.288" stroke="rgb(33,33,33)" fill="none" stroke-linecap="round"></path><path d="M 296.000,152.500 C 303.363,148.261 303.455,148.412 311.000,144.500" stroke-width="10.255" stroke="rgb(33,33,33)" fill="none" stroke-linecap="round"></path><path d="M 311.000,144.500 C 316.955,141.412 316.849,141.136 323.000,138.500" stroke-width="10.398" stroke="rgb(33,33,33)" fill="none" stroke-linecap="round"></path><path d="M 323.000,138.500 C 327.349,136.636 327.447,136.801 332.000,135.500" stroke-width="10.831" stroke="rgb(33,33,33)" fill="none" stroke-linecap="round"></path><path d="M 332.000,135.500 C 334.447,134.801 334.486,134.859 337.000,134.500" stroke-width="11.534" stroke="rgb(33,33,33)" fill="none" stroke-linecap="round"></path><path d="M 337.000,134.500 C 337.986,134.359 338.500,134.000 339.000,134.500" stroke-width="12.448" stroke="rgb(33,33,33)" fill="none" stroke-linecap="round"></path><path d="M 339.000,134.500 C 339.500,135.000 339.730,135.882 339.000,136.500" stroke-width="13.252" stroke="rgb(33,33,33)" fill="none" stroke-linecap="round"></path><path d="M 339.000,136.500 C 333.230,141.382 332.350,140.796 326.000,145.500" stroke-width="12.590" stroke="rgb(33,33,33)" fill="none" stroke-linecap="round"></path><path d="M 326.000,145.500 C 318.850,150.796 319.354,151.518 312.000,156.500" stroke-width="11.847" stroke="rgb(33,33,33)" fill="none" stroke-linecap="round"></path><path d="M 312.000,156.500 C 303.854,162.018 303.630,161.739 295.000,166.500" stroke-width="11.334" stroke="rgb(33,33,33)" fill="none" stroke-linecap="round"></path><path d="M 295.000,166.500 C 289.130,169.739 289.158,169.907 283.000,172.500" stroke-width="11.269" stroke="rgb(33,33,33)" fill="none" stroke-linecap="round"></path><path d="M 283.000,172.500 C 279.658,173.907 279.486,173.454 276.000,174.500" stroke-width="11.715" stroke="rgb(33,33,33)" fill="none" stroke-linecap="round"></path><path d="M 276.000,174.500 C 274.486,174.954 274.531,175.194 273.000,175.500" stroke-width="12.499" stroke="rgb(33,33,33)" fill="none" stroke-linecap="round"></path><path d="M 273.000,175.500 C 272.031,175.694 271.667,175.833 271.000,175.500" stroke-width="13.326" stroke="rgb(33,33,33)" fill="none" stroke-linecap="round"></path><path d="M 271.000,175.500 C 270.667,175.333 270.614,174.776 271.000,174.500" stroke-width="14.179" stroke="rgb(33,33,33)" fill="none" stroke-linecap="round"></path><path d="M 271.000,174.500 C 274.114,172.276 274.268,171.900 278.000,170.500" stroke-width="14.088" stroke="rgb(33,33,33)" fill="none" stroke-linecap="round"></path><path d="M 278.000,170.500 C 282.268,168.900 282.440,168.956 287.000,168.500" stroke-width="13.885" stroke="rgb(33,33,33)" fill="none" stroke-linecap="round"></path><path d="M 287.000,168.500 C 292.440,167.956 292.631,167.695 298.000,168.500" stroke-width="13.462" stroke="rgb(33,33,33)" fill="none" stroke-linecap="round"></path><path d="M 298.000,168.500 C 302.631,169.195 303.625,168.500 307.000,171.500" stroke-width="13.367" stroke="rgb(33,33,33)" fill="none" stroke-linecap="round"></path><path d="M 307.000,171.500 C 312.625,176.500 312.199,177.610 316.000,184.500" stroke-width="12.672" stroke="rgb(33,33,33)" fill="none" stroke-linecap="round"></path><path d="M 316.000,184.500 C 320.199,192.110 320.702,192.143 323.000,200.500" stroke-width="11.935" stroke="rgb(33,33,33)" fill="none" stroke-linecap="round"></path><path d="M 323.000,200.500 C 326.202,212.143 325.170,212.474 327.000,224.500" stroke-width="10.984" stroke="rgb(33,33,33)" fill="none" stroke-linecap="round"></path><path d="M 327.000,224.500 C 328.670,235.474 328.588,235.489 330.000,246.500" stroke-width="10.459" stroke="rgb(33,33,33)" fill="none" stroke-linecap="round"></path><path d="M 330.000,246.500 C 331.088,254.989 331.000,255.000 332.000,263.500" stroke-width="10.383" stroke="rgb(33,33,33)" fill="none" stroke-linecap="round"></path><path d="M 332.000,263.500 C 333.000,272.000 332.328,272.142 334.000,280.500" stroke-width="10.257" stroke="rgb(33,33,33)" fill="none" stroke-linecap="round"></path></svg>