<svg xmlns="http://www.w3.org/2000/svg" xmlns:xlink="http://www.w3.org/1999/xlink" viewBox="0 0 375 500"><path d="M 96.000,185.000 C 94.500,190.500 94.330,190.459 93.000,196.000" stroke-width="17.016" stroke="rgb(33,33,33)" fill="none" stroke-linecap="round"></path><path d="M 93.000,196.000 C 91.330,202.959 90.570,202.872 90.000,210.000" stroke-width="15.079" stroke="rgb(33,33,33)" fill="none" stroke-linecap="round"></path><path d="M 90.000,210.000 C 85.570,265.372 86.469,265.499 83.000,321.000" stroke-width="14.083" stroke="rgb(33,33,33)" fill="none" stroke-linecap="round"></path><path d="M 83.000,321.000 C 82.969,321.499 83.000,322.389 83.000,322.000" stroke-width="14.814" stroke="rgb(33,33,33)" fill="none" stroke-linecap="round"></path><path d="M 83.000,322.000 C 83.000,318.889 83.200,317.992 83.000,314.000" stroke-width="15.072" stroke="rgb(33,33,33)" fill="none" stroke-linecap="round"></path><path d="M 83.000,314.000 C 82.700,307.992 83.132,307.885 82.000,302.000" stroke-width="14.375" stroke="rgb(33,33,33)" fill="none" stroke-linecap="round"></path><path d="M 82.000,302.000 C 80.632,294.885 80.377,294.868 78.000,288.000" stroke-width="13.516" stroke="rgb(33,33,33)" fill="none" stroke-linecap="round"></path><path d="M 78.000,288.000 C 75.877,281.868 76.109,281.652 73.000,276.000" stroke-width="13.052" stroke="rgb(33,33,33)" fill="none" stroke-linecap="round"></path><path d="M 73.000,276.000 C 70.609,271.652 70.393,271.635 67.000,268.000" stroke-width="12.929" stroke="rgb(33,33,33)" fill="none" stroke-linecap="round"></path><path d="M 67.000,268.000 C 63.393,264.135 63.541,263.523 59.000,261.000" stroke-width="12.832" stroke="rgb(33,33,33)" fill="none" stroke-linecap="round"></path><path d="M 59.000,261.000 C 54.541,258.523 54.108,258.766 49.000,258.000" stroke-width="12.829" stroke="rgb(33,33,33)" fill="none" stroke-linecap="round"></path><path d="M 49.000,258.000 C 44.108,257.266 43.815,257.037 39.000,258.000" stroke-width="12.754" stroke="rgb(33,33,33)" fill="none" stroke-linecap="round"></path><path d="M 39.000,258.000 C 33.815,259.037 33.170,258.942 29.000,262.000" stroke-width="12.618" stroke="rgb(33,33,33)" fill="none" stroke-linecap="round"></path><path d="M 29.000,262.000 C 25.670,264.442 25.896,265.209 24.000,269.000" stroke-width="12.776" stroke="rgb(33,33,33)" fill="none" stroke-linecap="round"></path><path d="M 24.000,269.000 C 22.396,272.209 22.958,272.489 22.000,276.000" stroke-width="12.989" stroke="rgb(33,33,33)" fill="none" stroke-linecap="round"></path><path d="M 22.000,276.000 C 21.458,277.989 21.000,278.019 21.000,280.000" stroke-width="13.538" stroke="rgb(33,33,33)" fill="none" stroke-linecap="round"></path><path d="M 21.000,280.000 C 21.000,281.519 20.618,282.724 22.000,283.000" stroke-width="14.123" stroke="rgb(33,33,33)" fill="none" stroke-linecap="round"></path><path d="M 22.000,283.000 C 28.118,284.224 29.205,284.321 36.000,283.000" stroke-width="13.395" stroke="rgb(33,33,33)" fill="none" stroke-linecap="round"></path><path d="M 36.000,283.000 C 47.205,280.821 47.026,279.579 58.000,276.000" stroke-width="12.155" stroke="rgb(33,33,33)" fill="none" stroke-linecap="round"></path><path d="M 58.000,276.000 C 70.026,272.079 69.929,271.772 82.000,268.000" stroke-width="10.829" stroke="rgb(33,33,33)" fill="none" stroke-linecap="round"></path><path d="M 82.000,268.000 C 93.929,264.272 93.964,264.370 106.000,261.000" stroke-width="10.082" stroke="rgb(33,33,33)" fill="none" stroke-linecap="round"></path><path d="M 106.000,261.000 C 118.964,257.370 118.971,257.388 132.000,254.000" stroke-width="9.536" stroke="rgb(33,33,33)" fill="none" stroke-linecap="round"></path><path d="M 132.000,254.000 C 143.971,250.888 143.971,250.877 156.000,248.000" stroke-width="9.247" stroke="rgb(33,33,33)" fill="none" stroke-linecap="round"></path><path d="M 156.000,248.000 C 166.971,245.377 166.906,244.941 178.000,243.000" stroke-width="9.065" stroke="rgb(33,33,33)" fill="none" stroke-linecap="round"></path><path d="M 178.000,243.000 C 186.906,241.441 187.003,242.028 196.000,241.000" stroke-width="9.148" stroke="rgb(33,33,33)" fill="none" stroke-linecap="round"></path><path d="M 196.000,241.000 C 204.503,240.028 204.483,239.824 213.000,239.000" stroke-width="9.322" stroke="rgb(33,33,33)" fill="none" stroke-linecap="round"></path><path d="M 213.000,239.000 C 219.983,238.324 219.993,238.305 227.000,238.000" stroke-width="9.583" stroke="rgb(33,33,33)" fill="none" stroke-linecap="round"></path><path d="M 227.000,238.000 C 231.493,237.805 231.500,238.000 236.000,238.000" stroke-width="10.200" stroke="rgb(33,33,33)" fill="none" stroke-linecap="round"></path><path d="M 236.000,238.000 C 240.000,238.000 240.030,238.305 244.000,238.000" stroke-width="10.686" stroke="rgb(33,33,33)" fill="none" stroke-linecap="round"></path><path d="M 244.000,238.000 C 246.530,237.805 246.482,237.315 249.000,237.000" stroke-width="11.379" stroke="rgb(33,33,33)" fill="none" stroke-linecap="round"></path><path d="M 153.000,302.000 C 150.500,303.000 149.921,304.720 148.000,304.000" stroke-width="19.839" stroke="rgb(33,33,33)" fill="none" stroke-linecap="round"></path><path d="M 148.000,304.000 C 145.921,303.220 145.533,301.800 145.000,299.000" stroke-width="17.668" stroke="rgb(33,33,33)" fill="none" stroke-linecap="round"></path><path d="M 145.000,299.000 C 143.533,291.300 144.191,291.010 144.000,283.000" stroke-width="15.045" stroke="rgb(33,33,33)" fill="none" stroke-linecap="round"></path><path d="M 144.000,283.000 C 143.691,270.010 144.000,270.000 144.000,257.000" stroke-width="12.795" stroke="rgb(33,33,33)" fill="none" stroke-linecap="round"></path><path d="M 144.000,257.000 C 144.000,242.500 142.185,242.260 144.000,228.000" stroke-width="11.074" stroke="rgb(33,33,33)" fill="none" stroke-linecap="round"></path><path d="M 144.000,228.000 C 145.685,214.760 146.672,214.713 151.000,202.000" stroke-width="10.229" stroke="rgb(33,33,33)" fill="none" stroke-linecap="round"></path><path d="M 151.000,202.000 C 154.672,191.213 154.553,190.933 160.000,181.000" stroke-width="9.786" stroke="rgb(33,33,33)" fill="none" stroke-linecap="round"></path><path d="M 160.000,181.000 C 163.053,175.433 163.297,175.076 168.000,171.000" stroke-width="10.047" stroke="rgb(33,33,33)" fill="none" stroke-linecap="round"></path><path d="M 168.000,171.000 C 170.797,168.576 171.353,168.782 175.000,168.000" stroke-width="10.615" stroke="rgb(33,33,33)" fill="none" stroke-linecap="round"></path><path d="M 175.000,168.000 C 178.353,167.282 178.603,167.363 182.000,168.000" stroke-width="11.166" stroke="rgb(33,33,33)" fill="none" stroke-linecap="round"></path><path d="M 182.000,168.000 C 186.603,168.863 187.956,167.776 191.000,171.000" stroke-width="11.489" stroke="rgb(33,33,33)" fill="none" stroke-linecap="round"></path><path d="M 191.000,171.000 C 196.456,176.776 195.817,178.166 199.000,186.000" stroke-width="11.188" stroke="rgb(33,33,33)" fill="none" stroke-linecap="round"></path><path d="M 199.000,186.000 C 202.317,194.166 202.147,194.354 204.000,203.000" stroke-width="10.908" stroke="rgb(33,33,33)" fill="none" stroke-linecap="round"></path><path d="M 204.000,203.000 C 206.647,215.354 206.290,215.462 208.000,228.000" stroke-width="10.212" stroke="rgb(33,33,33)" fill="none" stroke-linecap="round"></path><path d="M 208.000,228.000 C 209.290,237.462 208.473,237.586 210.000,247.000" stroke-width="10.069" stroke="rgb(33,33,33)" fill="none" stroke-linecap="round"></path></svg>