<svg xmlns="http://www.w3.org/2000/svg" xmlns:xlink="http://www.w3.org/1999/xlink" viewBox="0 0 800 500"><path stroke-linecap="round" fill="none" stroke="rgb(33,33,33)" stroke-width="20.160" d="M 351.000,88.000 C 351.000,88.500 351.033,88.501 351.000,89.000"></path><path stroke-linecap="round" fill="none" stroke="rgb(33,33,33)" stroke-width="17.176" d="M 351.000,89.000 C 350.533,96.001 350.747,96.026 350.000,103.000"></path><path stroke-linecap="round" fill="none" stroke="rgb(33,33,33)" stroke-width="15.673" d="M 350.000,103.000 C 349.247,110.026 348.703,109.970 348.000,117.000"></path><path stroke-linecap="round" fill="none" stroke="rgb(33,33,33)" stroke-width="14.527" d="M 348.000,117.000 C 347.203,124.970 347.539,125.003 347.000,133.000"></path><path stroke-linecap="round" fill="none" stroke="rgb(33,33,33)" stroke-width="12.548" d="M 347.000,133.000 C 344.539,169.503 344.517,169.501 342.000,206.000"></path><path stroke-linecap="round" fill="none" stroke="rgb(33,33,33)" stroke-width="11.739" d="M 342.000,206.000 C 341.517,213.001 341.467,212.999 341.000,220.000"></path><path stroke-linecap="round" fill="none" stroke="rgb(33,33,33)" stroke-width="12.780" d="M 341.000,220.000 C 340.967,220.499 341.000,221.167 341.000,221.000"></path><path stroke-linecap="round" fill="none" stroke="rgb(33,33,33)" stroke-width="13.746" d="M 341.000,221.000 C 341.000,220.667 340.780,219.974 341.000,219.000"></path><path stroke-linecap="round" fill="none" stroke="rgb(33,33,33)" stroke-width="13.374" d="M 341.000,219.000 C 344.280,204.474 345.334,204.664 348.000,190.000"></path><path stroke-linecap="round" fill="none" stroke="rgb(33,33,33)" stroke-width="12.272" d="M 348.000,190.000 C 353.334,160.664 352.932,160.559 357.000,131.000"></path><path stroke-linecap="round" fill="none" stroke="rgb(33,33,33)" stroke-width="11.735" d="M 357.000,131.000 C 360.432,106.059 358.868,105.791 363.000,81.000"></path><path stroke-linecap="round" fill="none" stroke="rgb(33,33,33)" stroke-width="12.160" d="M 363.000,81.000 C 365.368,66.791 366.727,67.028 370.000,53.000"></path><path stroke-linecap="round" fill="none" stroke="rgb(33,33,33)" stroke-width="13.144" d="M 370.000,53.000 C 370.227,52.028 369.667,51.667 370.000,51.000"></path><path stroke-linecap="round" fill="none" stroke="rgb(33,33,33)" stroke-width="14.102" d="M 370.000,51.000 C 370.167,50.667 370.890,50.559 371.000,51.000"></path><path stroke-linecap="round" fill="none" stroke="rgb(33,33,33)" stroke-width="14.555" d="M 371.000,51.000 C 371.890,54.559 371.211,55.054 372.000,59.000"></path><path stroke-linecap="round" fill="none" stroke="rgb(33,33,33)" stroke-width="13.593" d="M 372.000,59.000 C 373.211,65.054 373.833,64.929 375.000,71.000"></path><path stroke-linecap="round" fill="none" stroke="rgb(33,33,33)" stroke-width="13.240" d="M 375.000,71.000 C 378.833,90.929 378.989,90.927 382.000,111.000"></path><path stroke-linecap="round" fill="none" stroke="rgb(33,33,33)" stroke-width="12.751" d="M 382.000,111.000 C 384.989,130.927 384.550,130.994 387.000,151.000"></path><path stroke-linecap="round" fill="none" stroke="rgb(33,33,33)" stroke-width="11.426" d="M 387.000,151.000 C 387.550,155.494 387.471,155.503 388.000,160.000"></path><path stroke-linecap="round" fill="none" stroke="rgb(33,33,33)" stroke-width="12.180" d="M 388.000,160.000 C 388.471,164.003 388.338,164.030 389.000,168.000"></path><path stroke-linecap="round" fill="none" stroke="rgb(33,33,33)" stroke-width="12.744" d="M 389.000,168.000 C 389.338,170.030 389.663,169.980 390.000,172.000"></path><path stroke-linecap="round" fill="none" stroke="rgb(33,33,33)" stroke-width="13.669" d="M 390.000,172.000 C 390.163,172.980 390.000,173.000 390.000,174.000"></path><path stroke-linecap="round" fill="none" stroke="rgb(33,33,33)" stroke-width="14.445" d="M 390.000,174.000 C 390.000,176.000 390.000,176.000 390.000,178.000"></path><path stroke-linecap="round" fill="none" stroke="rgb(33,33,33)" stroke-width="15.287" d="M 390.000,178.000 C 390.000,178.500 390.250,178.750 390.000,179.000"></path><path stroke-linecap="round" fill="none" stroke="rgb(33,33,33)" stroke-width="16.013" d="M 390.000,179.000 C 389.750,179.250 389.500,179.000 389.000,179.000"></path><path stroke-linecap="round" fill="none" stroke="rgb(33,33,33)" stroke-width="16.485" d="M 389.000,179.000 C 388.500,179.000 388.481,179.120 388.000,179.000"></path><path stroke-linecap="round" fill="none" stroke="rgb(33,33,33)" stroke-width="16.912" d="M 388.000,179.000 C 386.481,178.620 386.426,178.681 385.000,178.000"></path><path stroke-linecap="round" fill="none" stroke="rgb(33,33,33)" stroke-width="15.261" d="M 385.000,178.000 C 364.426,168.181 363.413,169.757 344.000,158.000"></path><path stroke-linecap="round" fill="none" stroke="rgb(33,33,33)" stroke-width="14.616" d="M 344.000,158.000 C 327.913,148.257 329.008,146.490 314.000,135.000"></path><path stroke-linecap="round" fill="none" stroke="rgb(33,33,33)" stroke-width="14.100" d="M 314.000,135.000 C 297.008,121.990 295.921,123.069 280.000,109.000"></path><path stroke-linecap="round" fill="none" stroke="rgb(33,33,33)" stroke-width="14.523" d="M 280.000,109.000 C 274.421,104.069 272.269,103.597 271.000,97.000"></path><path stroke-linecap="round" fill="none" stroke="rgb(33,33,33)" stroke-width="14.894" d="M 271.000,97.000 C 269.769,90.597 272.395,89.699 275.000,83.000"></path><path stroke-linecap="round" fill="none" stroke="rgb(33,33,33)" stroke-width="14.334" d="M 275.000,83.000 C 275.895,80.699 275.999,80.445 278.000,79.000"></path><path stroke-linecap="round" fill="none" stroke="rgb(33,33,33)" stroke-width="14.131" d="M 278.000,79.000 C 284.999,73.945 285.426,74.370 293.000,70.000"></path><path stroke-linecap="round" fill="none" stroke="rgb(33,33,33)" stroke-width="13.630" d="M 293.000,70.000 C 298.426,66.870 298.037,65.682 304.000,64.000"></path><path stroke-linecap="round" fill="none" stroke="rgb(33,33,33)" stroke-width="13.056" d="M 304.000,64.000 C 317.537,60.182 317.926,60.876 332.000,59.000"></path><path stroke-linecap="round" fill="none" stroke="rgb(33,33,33)" stroke-width="11.367" d="M 332.000,59.000 C 340.426,57.876 340.493,58.350 349.000,58.000"></path><path stroke-linecap="round" fill="none" stroke="rgb(33,33,33)" stroke-width="11.049" d="M 349.000,58.000 C 376.993,56.850 376.997,56.812 405.000,56.000"></path><path stroke-linecap="round" fill="none" stroke="rgb(33,33,33)" stroke-width="10.935" d="M 405.000,56.000 C 411.497,55.812 411.584,55.198 418.000,56.000"></path><path stroke-linecap="round" fill="none" stroke="rgb(33,33,33)" stroke-width="11.370" d="M 418.000,56.000 C 427.584,57.198 428.125,56.450 437.000,60.000"></path><path stroke-linecap="round" fill="none" stroke="rgb(33,33,33)" stroke-width="12.139" d="M 437.000,60.000 C 445.625,63.450 446.024,64.255 453.000,70.000"></path><path stroke-linecap="round" fill="none" stroke="rgb(33,33,33)" stroke-width="13.047" d="M 453.000,70.000 C 454.524,71.255 453.663,71.980 454.000,74.000"></path><path stroke-linecap="round" fill="none" stroke="rgb(33,33,33)" stroke-width="13.970" d="M 454.000,74.000 C 454.163,74.980 454.776,75.428 454.000,76.000"></path><path stroke-linecap="round" fill="none" stroke="rgb(33,33,33)" stroke-width="14.478" d="M 454.000,76.000 C 445.276,82.428 445.019,82.991 435.000,88.000"></path><path stroke-linecap="round" fill="none" stroke="rgb(33,33,33)" stroke-width="13.698" d="M 435.000,88.000 C 419.019,95.991 418.538,95.092 402.000,102.000"></path><path stroke-linecap="round" fill="none" stroke="rgb(33,33,33)" stroke-width="12.923" d="M 402.000,102.000 C 379.038,111.592 379.077,111.695 356.000,121.000"></path><path stroke-linecap="round" fill="none" stroke="rgb(33,33,33)" stroke-width="11.279" d="M 356.000,121.000 C 348.077,124.195 347.906,123.766 340.000,127.000"></path><path stroke-linecap="round" fill="none" stroke="rgb(33,33,33)" stroke-width="11.368" d="M 340.000,127.000 C 325.906,132.766 326.010,133.023 312.000,139.000"></path><path stroke-linecap="round" fill="none" stroke="rgb(33,33,33)" stroke-width="11.069" d="M 312.000,139.000 C 288.510,149.023 288.356,148.674 265.000,159.000"></path><path stroke-linecap="round" fill="none" stroke="rgb(33,33,33)" stroke-width="11.120" d="M 265.000,159.000 C 240.856,169.674 240.756,169.562 217.000,181.000"></path><path stroke-linecap="round" fill="none" stroke="rgb(33,33,33)" stroke-width="10.410" d="M 217.000,181.000 C 213.756,182.562 214.041,183.065 211.000,185.000"></path></svg>