<svg xmlns="http://www.w3.org/2000/svg" xmlns:xlink="http://www.w3.org/1999/xlink" viewBox="0 0 414 500"><path d="M 272.000,149.000 C 273.000,157.500 273.467,157.473 274.000,166.000" stroke-width="16.271" stroke="rgb(33,33,33)" fill="none" stroke-linecap="round"></path><path d="M 274.000,166.000 C 274.467,173.473 273.773,173.506 274.000,181.000" stroke-width="11.942" stroke="rgb(33,33,33)" fill="none" stroke-linecap="round"></path><path d="M 274.000,181.000 C 274.273,190.006 274.104,190.038 275.000,199.000" stroke-width="11.450" stroke="rgb(33,33,33)" fill="none" stroke-linecap="round"></path><path d="M 275.000,199.000 C 276.104,210.038 276.500,210.000 278.000,221.000" stroke-width="10.481" stroke="rgb(33,33,33)" fill="none" stroke-linecap="round"></path><path d="M 278.000,221.000 C 279.500,232.000 279.774,231.969 281.000,243.000" stroke-width="10.090" stroke="rgb(33,33,33)" fill="none" stroke-linecap="round"></path><path d="M 281.000,243.000 C 282.274,254.469 281.570,254.557 283.000,266.000" stroke-width="9.820" stroke="rgb(33,33,33)" fill="none" stroke-linecap="round"></path><path d="M 283.000,266.000 C 284.070,274.557 284.370,274.526 286.000,283.000" stroke-width="9.804" stroke="rgb(33,33,33)" fill="none" stroke-linecap="round"></path><path d="M 286.000,283.000 C 286.870,287.526 286.964,287.509 288.000,292.000" stroke-width="10.252" stroke="rgb(33,33,33)" fill="none" stroke-linecap="round"></path><path d="M 288.000,292.000 C 288.464,294.009 288.352,294.055 289.000,296.000" stroke-width="11.073" stroke="rgb(33,33,33)" fill="none" stroke-linecap="round"></path><path d="M 289.000,296.000 C 289.352,297.055 289.655,296.964 290.000,298.000" stroke-width="11.976" stroke="rgb(33,33,33)" fill="none" stroke-linecap="round"></path><path d="M 290.000,298.000 C 290.155,298.464 290.000,299.250 290.000,299.000" stroke-width="12.943" stroke="rgb(33,33,33)" fill="none" stroke-linecap="round"></path><path d="M 290.000,299.000 C 290.000,298.250 290.798,297.117 290.000,296.000" stroke-width="13.836" stroke="rgb(33,33,33)" fill="none" stroke-linecap="round"></path><path d="M 290.000,296.000 C 288.298,293.617 287.771,293.559 285.000,292.000" stroke-width="14.002" stroke="rgb(33,33,33)" fill="none" stroke-linecap="round"></path><path d="M 285.000,292.000 C 279.771,289.059 279.631,289.166 274.000,287.000" stroke-width="13.508" stroke="rgb(33,33,33)" fill="none" stroke-linecap="round"></path><path d="M 274.000,287.000 C 266.631,284.166 266.587,284.203 259.000,282.000" stroke-width="12.681" stroke="rgb(33,33,33)" fill="none" stroke-linecap="round"></path><path d="M 259.000,282.000 C 251.087,279.703 251.102,279.430 243.000,278.000" stroke-width="12.114" stroke="rgb(33,33,33)" fill="none" stroke-linecap="round"></path><path d="M 243.000,278.000 C 234.102,276.430 234.027,276.516 225.000,276.000" stroke-width="11.482" stroke="rgb(33,33,33)" fill="none" stroke-linecap="round"></path><path d="M 225.000,276.000 C 216.527,275.516 216.500,276.000 208.000,276.000" stroke-width="11.182" stroke="rgb(33,33,33)" fill="none" stroke-linecap="round"></path><path d="M 208.000,276.000 C 201.500,276.000 201.489,275.740 195.000,276.000" stroke-width="11.240" stroke="rgb(33,33,33)" fill="none" stroke-linecap="round"></path><path d="M 195.000,276.000 C 188.989,276.240 188.921,276.065 183.000,277.000" stroke-width="11.357" stroke="rgb(33,33,33)" fill="none" stroke-linecap="round"></path><path d="M 183.000,277.000 C 179.421,277.565 179.407,277.761 176.000,279.000" stroke-width="11.791" stroke="rgb(33,33,33)" fill="none" stroke-linecap="round"></path><path d="M 176.000,279.000 C 173.907,279.761 174.050,280.121 172.000,281.000" stroke-width="12.450" stroke="rgb(33,33,33)" fill="none" stroke-linecap="round"></path><path d="M 172.000,281.000 C 170.550,281.621 169.760,281.620 169.000,282.000" stroke-width="13.143" stroke="rgb(33,33,33)" fill="none" stroke-linecap="round"></path><path d="M 169.000,282.000 C 168.760,282.120 169.500,282.000 170.000,282.000" stroke-width="14.076" stroke="rgb(33,33,33)" fill="none" stroke-linecap="round"></path><path d="M 170.000,282.000 C 176.500,282.000 176.518,282.381 183.000,282.000" stroke-width="13.465" stroke="rgb(33,33,33)" fill="none" stroke-linecap="round"></path><path d="M 183.000,282.000 C 193.518,281.381 193.537,281.308 204.000,280.000" stroke-width="12.263" stroke="rgb(33,33,33)" fill="none" stroke-linecap="round"></path><path d="M 204.000,280.000 C 217.537,278.308 217.494,277.961 231.000,276.000" stroke-width="10.993" stroke="rgb(33,33,33)" fill="none" stroke-linecap="round"></path><path d="M 231.000,276.000 C 248.494,273.461 248.476,273.319 266.000,271.000" stroke-width="9.572" stroke="rgb(33,33,33)" fill="none" stroke-linecap="round"></path><path d="M 266.000,271.000 C 282.476,268.819 282.636,269.774 299.000,267.000" stroke-width="8.868" stroke="rgb(33,33,33)" fill="none" stroke-linecap="round"></path><path d="M 299.000,267.000 C 312.136,264.774 312.223,264.758 325.000,261.000" stroke-width="8.651" stroke="rgb(33,33,33)" fill="none" stroke-linecap="round"></path><path d="M 325.000,261.000 C 337.723,257.258 337.489,256.468 350.000,252.000" stroke-width="8.421" stroke="rgb(33,33,33)" fill="none" stroke-linecap="round"></path><path d="M 350.000,252.000 C 358.489,248.968 358.618,249.293 367.000,246.000" stroke-width="8.669" stroke="rgb(33,33,33)" fill="none" stroke-linecap="round"></path><path d="M 367.000,246.000 C 372.618,243.793 372.479,243.454 378.000,241.000" stroke-width="9.159" stroke="rgb(33,33,33)" fill="none" stroke-linecap="round"></path><path d="M 378.000,241.000 C 381.479,239.454 381.467,239.413 385.000,238.000" stroke-width="9.838" stroke="rgb(33,33,33)" fill="none" stroke-linecap="round"></path><path d="M 385.000,238.000 C 386.467,237.413 386.481,237.380 388.000,237.000" stroke-width="10.736" stroke="rgb(33,33,33)" fill="none" stroke-linecap="round"></path><path d="M 388.000,237.000 C 388.481,236.880 388.750,237.250 389.000,237.000" stroke-width="11.768" stroke="rgb(33,33,33)" fill="none" stroke-linecap="round"></path><path d="M 389.000,237.000 C 389.250,236.750 389.250,236.250 389.000,236.000" stroke-width="12.749" stroke="rgb(33,33,33)" fill="none" stroke-linecap="round"></path><path d="M 389.000,236.000 C 388.750,235.750 388.500,236.000 388.000,236.000" stroke-width="13.653" stroke="rgb(33,33,33)" fill="none" stroke-linecap="round"></path><path d="M 388.000,236.000 C 386.500,236.000 386.500,236.000 385.000,236.000" stroke-width="14.242" stroke="rgb(33,33,33)" fill="none" stroke-linecap="round"></path><path d="M 385.000,236.000 C 384.000,236.000 383.879,235.707 383.000,236.000" stroke-width="14.879" stroke="rgb(33,33,33)" fill="none" stroke-linecap="round"></path><path d="M 383.000,236.000 C 382.379,236.207 382.293,236.414 382.000,237.000" stroke-width="15.500" stroke="rgb(33,33,33)" fill="none" stroke-linecap="round"></path><path d="M 382.000,237.000 C 381.793,237.414 382.000,237.500 382.000,238.000" stroke-width="16.111" stroke="rgb(33,33,33)" fill="none" stroke-linecap="round"></path><path d="M 382.000,238.000 C 382.000,238.500 382.000,238.500 382.000,239.000" stroke-width="16.635" stroke="rgb(33,33,33)" fill="none" stroke-linecap="round"></path><path d="M 382.000,239.000 C 382.000,240.000 381.667,240.333 382.000,241.000" stroke-width="16.891" stroke="rgb(33,33,33)" fill="none" stroke-linecap="round"></path><path d="M 333.000,204.000 C 329.500,206.500 328.043,205.472 326.000,209.000" stroke-width="19.646" stroke="rgb(33,33,33)" fill="none" stroke-linecap="round"></path><path d="M 326.000,209.000 C 322.543,214.972 323.337,215.869 322.000,223.000" stroke-width="16.783" stroke="rgb(33,33,33)" fill="none" stroke-linecap="round"></path><path d="M 322.000,223.000 C 320.337,231.869 320.622,231.979 320.000,241.000" stroke-width="14.935" stroke="rgb(33,33,33)" fill="none" stroke-linecap="round"></path><path d="M 320.000,241.000 C 319.622,246.479 320.000,246.500 320.000,252.000" stroke-width="14.624" stroke="rgb(33,33,33)" fill="none" stroke-linecap="round"></path><path d="M 320.000,252.000 C 320.000,254.500 320.417,254.917 320.000,257.000" stroke-width="14.384" stroke="rgb(33,33,33)" fill="none" stroke-linecap="round"></path><path d="M 320.000,257.000 C 319.917,257.417 319.063,257.438 319.000,257.000" stroke-width="15.117" stroke="rgb(33,33,33)" fill="none" stroke-linecap="round"></path><path d="M 319.000,257.000 C 318.563,253.938 319.218,253.488 319.000,250.000" stroke-width="15.410" stroke="rgb(33,33,33)" fill="none" stroke-linecap="round"></path><path d="M 319.000,250.000 C 318.718,245.488 318.705,245.468 318.000,241.000" stroke-width="14.979" stroke="rgb(33,33,33)" fill="none" stroke-linecap="round"></path><path d="M 318.000,241.000 C 317.205,235.968 317.742,235.727 316.000,231.000" stroke-width="14.286" stroke="rgb(33,33,33)" fill="none" stroke-linecap="round"></path><path d="M 316.000,231.000 C 314.242,226.227 313.902,226.221 311.000,222.000" stroke-width="13.917" stroke="rgb(33,33,33)" fill="none" stroke-linecap="round"></path><path d="M 311.000,222.000 C 308.402,218.221 308.468,217.934 305.000,215.000" stroke-width="13.752" stroke="rgb(33,33,33)" fill="none" stroke-linecap="round"></path><path d="M 305.000,215.000 C 301.968,212.434 301.675,212.531 298.000,211.000" stroke-width="13.693" stroke="rgb(33,33,33)" fill="none" stroke-linecap="round"></path><path d="M 298.000,211.000 C 295.675,210.031 295.514,210.359 293.000,210.000" stroke-width="14.033" stroke="rgb(33,33,33)" fill="none" stroke-linecap="round"></path><path d="M 293.000,210.000 C 292.014,209.859 291.500,209.500 291.000,210.000" stroke-width="14.696" stroke="rgb(33,33,33)" fill="none" stroke-linecap="round"></path><path d="M 291.000,210.000 C 290.500,210.500 290.507,211.155 291.000,212.000" stroke-width="15.256" stroke="rgb(33,33,33)" fill="none" stroke-linecap="round"></path><path d="M 291.000,212.000 C 294.007,217.155 293.369,218.731 298.000,222.000" stroke-width="14.490" stroke="rgb(33,33,33)" fill="none" stroke-linecap="round"></path><path d="M 298.000,222.000 C 301.869,224.731 302.984,224.000 308.000,224.000" stroke-width="14.009" stroke="rgb(33,33,33)" fill="none" stroke-linecap="round"></path><path d="M 308.000,224.000 C 313.984,224.000 315.184,225.065 320.000,222.000" stroke-width="13.424" stroke="rgb(33,33,33)" fill="none" stroke-linecap="round"></path><path d="M 320.000,222.000 C 326.184,218.065 325.448,216.322 330.000,210.000" stroke-width="12.732" stroke="rgb(33,33,33)" fill="none" stroke-linecap="round"></path><path d="M 330.000,210.000 C 334.448,203.822 334.719,203.836 338.000,197.000" stroke-width="12.258" stroke="rgb(33,33,33)" fill="none" stroke-linecap="round"></path><path d="M 338.000,197.000 C 340.719,191.336 340.184,191.054 342.000,185.000" stroke-width="12.056" stroke="rgb(33,33,33)" fill="none" stroke-linecap="round"></path><path d="M 342.000,185.000 C 343.184,181.054 343.000,181.000 344.000,177.000" stroke-width="12.382" stroke="rgb(33,33,33)" fill="none" stroke-linecap="round"></path><path d="M 344.000,177.000 C 344.500,175.000 344.663,175.020 345.000,173.000" stroke-width="12.982" stroke="rgb(33,33,33)" fill="none" stroke-linecap="round"></path><path d="M 345.000,173.000 C 345.163,172.020 345.000,170.308 345.000,171.000" stroke-width="13.748" stroke="rgb(33,33,33)" fill="none" stroke-linecap="round"></path><path d="M 345.000,171.000 C 345.000,174.808 345.455,176.535 345.000,182.000" stroke-width="14.014" stroke="rgb(33,33,33)" fill="none" stroke-linecap="round"></path><path d="M 345.000,182.000 C 344.455,188.535 343.484,188.461 343.000,195.000" stroke-width="13.404" stroke="rgb(33,33,33)" fill="none" stroke-linecap="round"></path><path d="M 343.000,195.000 C 342.484,201.961 343.000,202.000 343.000,209.000" stroke-width="12.871" stroke="rgb(33,33,33)" fill="none" stroke-linecap="round"></path><path d="M 343.000,209.000 C 343.000,215.500 343.000,215.500 343.000,222.000" stroke-width="12.565" stroke="rgb(33,33,33)" fill="none" stroke-linecap="round"></path><path d="M 343.000,222.000 C 343.000,233.500 343.000,233.500 343.000,245.000" stroke-width="11.397" stroke="rgb(33,33,33)" fill="none" stroke-linecap="round"></path><path d="M 343.000,245.000 C 343.000,258.000 343.000,258.000 343.000,271.000" stroke-width="10.600" stroke="rgb(33,33,33)" fill="none" stroke-linecap="round"></path><path d="M 343.000,271.000 C 343.000,284.500 342.654,284.514 343.000,298.000" stroke-width="9.803" stroke="rgb(33,33,33)" fill="none" stroke-linecap="round"></path><path d="M 343.000,298.000 C 343.154,304.014 343.297,304.029 344.000,310.000" stroke-width="10.109" stroke="rgb(33,33,33)" fill="none" stroke-linecap="round"></path><path d="M 344.000,310.000 C 344.297,312.529 344.641,312.486 345.000,315.000" stroke-width="10.873" stroke="rgb(33,33,33)" fill="none" stroke-linecap="round"></path><path d="M 345.000,315.000 C 345.141,315.986 345.000,317.200 345.000,317.000" stroke-width="11.818" stroke="rgb(33,33,33)" fill="none" stroke-linecap="round"></path><path d="M 345.000,317.000 C 345.000,316.700 345.000,315.500 345.000,314.000" stroke-width="12.744" stroke="rgb(33,33,33)" fill="none" stroke-linecap="round"></path><path d="M 345.000,314.000 C 345.000,311.500 345.000,311.500 345.000,309.000" stroke-width="13.235" stroke="rgb(33,33,33)" fill="none" stroke-linecap="round"></path><path d="M 345.000,309.000 C 345.000,306.500 344.694,306.450 345.000,304.000" stroke-width="13.656" stroke="rgb(33,33,33)" fill="none" stroke-linecap="round"></path><path d="M 345.000,304.000 C 345.194,302.450 345.208,302.320 346.000,301.000" stroke-width="14.203" stroke="rgb(33,33,33)" fill="none" stroke-linecap="round"></path><path d="M 346.000,301.000 C 346.708,299.820 347.000,300.000 348.000,299.000" stroke-width="14.739" stroke="rgb(33,33,33)" fill="none" stroke-linecap="round"></path><path d="M 348.000,299.000 C 349.000,298.000 348.892,297.739 350.000,297.000" stroke-width="15.174" stroke="rgb(33,33,33)" fill="none" stroke-linecap="round"></path><path d="M 350.000,297.000 C 350.392,296.739 350.586,297.207 351.000,297.000" stroke-width="15.828" stroke="rgb(33,33,33)" fill="none" stroke-linecap="round"></path></svg>