<svg xmlns="http://www.w3.org/2000/svg" xmlns:xlink="http://www.w3.org/1999/xlink" viewBox="0 0 800 500"><path d="M 349.500,87.500 C 349.000,87.500 349.000,87.500 348.500,87.500" stroke-width="20.245" stroke="rgb(33,33,33)" fill="none" stroke-linecap="round"></path><path d="M 348.500,87.500 C 348.000,87.500 348.000,87.500 347.500,87.500" stroke-width="19.753" stroke="rgb(33,33,33)" fill="none" stroke-linecap="round"></path><path d="M 347.500,87.500 C 346.500,87.500 346.500,87.500 345.500,87.500" stroke-width="18.923" stroke="rgb(33,33,33)" fill="none" stroke-linecap="round"></path><path d="M 345.500,87.500 C 344.500,87.500 344.500,87.500 343.500,87.500" stroke-width="18.400" stroke="rgb(33,33,33)" fill="none" stroke-linecap="round"></path><path d="M 343.500,87.500 C 342.000,87.500 342.000,87.500 340.500,87.500" stroke-width="17.365" stroke="rgb(33,33,33)" fill="none" stroke-linecap="round"></path><path d="M 340.500,87.500 C 339.500,87.500 339.500,87.500 338.500,87.500" stroke-width="17.119" stroke="rgb(33,33,33)" fill="none" stroke-linecap="round"></path><path d="M 338.500,87.500 C 336.500,87.500 336.500,87.500 334.500,87.500" stroke-width="16.248" stroke="rgb(33,33,33)" fill="none" stroke-linecap="round"></path><path d="M 334.500,87.500 C 331.500,87.500 331.500,87.500 328.500,87.500" stroke-width="15.503" stroke="rgb(33,33,33)" fill="none" stroke-linecap="round"></path><path d="M 328.500,87.500 C 328.000,87.500 328.000,87.500 327.500,87.500" stroke-width="16.067" stroke="rgb(33,33,33)" fill="none" stroke-linecap="round"></path><path d="M 327.500,87.500 C 327.000,87.500 326.774,87.135 326.500,87.500" stroke-width="16.420" stroke="rgb(33,33,33)" fill="none" stroke-linecap="round"></path><path d="M 326.500,87.500 C 325.274,89.135 325.640,89.601 324.500,91.500" stroke-width="16.966" stroke="rgb(33,33,33)" fill="none" stroke-linecap="round"></path><path d="M 324.500,91.500 C 324.140,92.101 324.000,92.000 323.500,92.500" stroke-width="17.271" stroke="rgb(33,33,33)" fill="none" stroke-linecap="round"></path><path d="M 323.500,92.500 C 323.000,93.000 322.793,92.914 322.500,93.500" stroke-width="17.184" stroke="rgb(33,33,33)" fill="none" stroke-linecap="round"></path><path d="M 322.500,93.500 C 322.293,93.914 322.500,94.000 322.500,94.500" stroke-width="17.592" stroke="rgb(33,33,33)" fill="none" stroke-linecap="round"></path><path d="M 322.500,94.500 C 322.500,95.000 322.500,95.000 322.500,95.500" stroke-width="17.933" stroke="rgb(33,33,33)" fill="none" stroke-linecap="round"></path><path d="M 322.500,95.500 C 322.500,96.000 322.750,96.250 322.500,96.500" stroke-width="18.250" stroke="rgb(33,33,33)" fill="none" stroke-linecap="round"></path><path d="M 322.500,96.500 C 322.250,96.750 321.750,96.250 321.500,96.500" stroke-width="18.199" stroke="rgb(33,33,33)" fill="none" stroke-linecap="round"></path><path d="M 321.500,96.500 C 321.250,96.750 321.500,97.000 321.500,97.500" stroke-width="18.365" stroke="rgb(33,33,33)" fill="none" stroke-linecap="round"></path><path d="M 321.500,97.500 C 321.500,98.000 321.707,98.086 321.500,98.500" stroke-width="18.291" stroke="rgb(33,33,33)" fill="none" stroke-linecap="round"></path><path d="M 321.500,98.500 C 321.207,99.086 320.793,98.914 320.500,99.500" stroke-width="18.353" stroke="rgb(33,33,33)" fill="none" stroke-linecap="round"></path><path d="M 320.500,99.500 C 320.293,99.914 320.500,100.000 320.500,100.500" stroke-width="18.281" stroke="rgb(33,33,33)" fill="none" stroke-linecap="round"></path><path d="M 320.500,100.500 C 320.500,101.000 320.750,101.250 320.500,101.500" stroke-width="18.270" stroke="rgb(33,33,33)" fill="none" stroke-linecap="round"></path><path d="M 320.500,101.500 C 320.250,101.750 319.750,101.250 319.500,101.500" stroke-width="18.408" stroke="rgb(33,33,33)" fill="none" stroke-linecap="round"></path><path d="M 319.500,101.500 C 319.250,101.750 319.707,102.086 319.500,102.500" stroke-width="18.325" stroke="rgb(33,33,33)" fill="none" stroke-linecap="round"></path><path d="M 319.500,102.500 C 319.207,103.086 318.793,102.914 318.500,103.500" stroke-width="18.381" stroke="rgb(33,33,33)" fill="none" stroke-linecap="round"></path><path d="M 318.500,103.500 C 318.293,103.914 318.500,104.000 318.500,104.500" stroke-width="18.349" stroke="rgb(33,33,33)" fill="none" stroke-linecap="round"></path><path d="M 318.500,104.500 C 318.500,105.000 318.750,105.250 318.500,105.500" stroke-width="18.499" stroke="rgb(33,33,33)" fill="none" stroke-linecap="round"></path><path d="M 318.500,105.500 C 318.250,105.750 317.750,105.250 317.500,105.500" stroke-width="18.259" stroke="rgb(33,33,33)" fill="none" stroke-linecap="round"></path><path d="M 317.500,105.500 C 317.250,105.750 317.707,106.086 317.500,106.500" stroke-width="18.484" stroke="rgb(33,33,33)" fill="none" stroke-linecap="round"></path><path d="M 317.500,106.500 C 317.207,107.086 316.793,106.914 316.500,107.500" stroke-width="18.214" stroke="rgb(33,33,33)" fill="none" stroke-linecap="round"></path><path d="M 316.500,107.500 C 316.293,107.914 316.750,108.250 316.500,108.500" stroke-width="18.377" stroke="rgb(33,33,33)" fill="none" stroke-linecap="round"></path><path d="M 316.500,108.500 C 316.250,108.750 315.667,108.167 315.500,108.500" stroke-width="18.300" stroke="rgb(33,33,33)" fill="none" stroke-linecap="round"></path><path d="M 315.500,108.500 C 315.167,109.167 315.500,109.500 315.500,110.500" stroke-width="17.838" stroke="rgb(33,33,33)" fill="none" stroke-linecap="round"></path><path d="M 315.500,110.500 C 315.500,111.000 315.500,111.000 315.500,111.500" stroke-width="18.069" stroke="rgb(33,33,33)" fill="none" stroke-linecap="round"></path><path d="M 315.500,111.500 C 315.500,112.000 315.500,112.000 315.500,112.500" stroke-width="18.055" stroke="rgb(33,33,33)" fill="none" stroke-linecap="round"></path><path d="M 315.500,112.500 C 315.500,113.000 315.707,113.086 315.500,113.500" stroke-width="18.089" stroke="rgb(33,33,33)" fill="none" stroke-linecap="round"></path><path d="M 315.500,113.500 C 315.207,114.086 314.793,113.914 314.500,114.500" stroke-width="17.826" stroke="rgb(33,33,33)" fill="none" stroke-linecap="round"></path><path d="M 314.500,114.500 C 314.293,114.914 314.500,115.000 314.500,115.500" stroke-width="17.904" stroke="rgb(33,33,33)" fill="none" stroke-linecap="round"></path><path d="M 314.500,115.500 C 314.500,116.000 314.500,116.000 314.500,116.500" stroke-width="17.867" stroke="rgb(33,33,33)" fill="none" stroke-linecap="round"></path><path d="M 314.500,116.500 C 314.500,117.000 314.500,117.000 314.500,117.500" stroke-width="17.937" stroke="rgb(33,33,33)" fill="none" stroke-linecap="round"></path><path d="M 314.500,117.500 C 314.500,118.000 314.500,118.000 314.500,118.500" stroke-width="17.893" stroke="rgb(33,33,33)" fill="none" stroke-linecap="round"></path><path d="M 314.500,118.500 C 314.500,119.000 314.500,119.000 314.500,119.500" stroke-width="17.994" stroke="rgb(33,33,33)" fill="none" stroke-linecap="round"></path><path d="M 314.500,119.500 C 314.500,120.500 314.500,120.500 314.500,121.500" stroke-width="18.019" stroke="rgb(33,33,33)" fill="none" stroke-linecap="round"></path><path d="M 314.500,121.500 C 314.500,122.000 314.500,122.000 314.500,122.500" stroke-width="18.204" stroke="rgb(33,33,33)" fill="none" stroke-linecap="round"></path><path d="M 314.500,122.500 C 314.500,123.000 314.500,123.000 314.500,123.500" stroke-width="18.028" stroke="rgb(33,33,33)" fill="none" stroke-linecap="round"></path><path d="M 314.500,123.500 C 314.500,124.000 314.500,124.000 314.500,124.500" stroke-width="18.132" stroke="rgb(33,33,33)" fill="none" stroke-linecap="round"></path><path d="M 314.500,124.500 C 314.500,125.000 314.500,125.000 314.500,125.500" stroke-width="17.866" stroke="rgb(33,33,33)" fill="none" stroke-linecap="round"></path><path d="M 314.500,125.500 C 314.500,126.500 314.500,126.500 314.500,127.500" stroke-width="17.893" stroke="rgb(33,33,33)" fill="none" stroke-linecap="round"></path><path d="M 314.500,127.500 C 314.500,128.000 314.500,128.000 314.500,128.500" stroke-width="18.114" stroke="rgb(33,33,33)" fill="none" stroke-linecap="round"></path><path d="M 314.500,128.500 C 314.500,129.000 314.500,129.000 314.500,129.500" stroke-width="18.296" stroke="rgb(33,33,33)" fill="none" stroke-linecap="round"></path><path d="M 314.500,129.500 C 314.500,130.000 314.500,130.000 314.500,130.500" stroke-width="18.236" stroke="rgb(33,33,33)" fill="none" stroke-linecap="round"></path><path d="M 314.500,130.500 C 314.500,131.000 314.250,131.250 314.500,131.500" stroke-width="18.188" stroke="rgb(33,33,33)" fill="none" stroke-linecap="round"></path><path d="M 314.500,131.500 C 314.750,131.750 315.333,131.167 315.500,131.500" stroke-width="18.150" stroke="rgb(33,33,33)" fill="none" stroke-linecap="round"></path><path d="M 315.500,131.500 C 315.833,132.167 315.207,132.621 315.500,133.500" stroke-width="17.724" stroke="rgb(33,33,33)" fill="none" stroke-linecap="round"></path><path d="M 315.500,133.500 C 315.707,134.121 316.207,133.914 316.500,134.500" stroke-width="17.618" stroke="rgb(33,33,33)" fill="none" stroke-linecap="round"></path><path d="M 316.500,134.500 C 316.707,134.914 316.500,135.000 316.500,135.500" stroke-width="17.693" stroke="rgb(33,33,33)" fill="none" stroke-linecap="round"></path><path d="M 316.500,135.500 C 316.500,136.000 316.345,136.036 316.500,136.500" stroke-width="17.754" stroke="rgb(33,33,33)" fill="none" stroke-linecap="round"></path><path d="M 316.500,136.500 C 316.845,137.536 316.887,137.581 317.500,138.500" stroke-width="17.756" stroke="rgb(33,33,33)" fill="none" stroke-linecap="round"></path><path d="M 317.500,138.500 C 317.887,139.081 318.207,138.914 318.500,139.500" stroke-width="17.644" stroke="rgb(33,33,33)" fill="none" stroke-linecap="round"></path><path d="M 318.500,139.500 C 318.707,139.914 318.293,140.086 318.500,140.500" stroke-width="17.714" stroke="rgb(33,33,33)" fill="none" stroke-linecap="round"></path><path d="M 318.500,140.500 C 318.793,141.086 319.000,141.000 319.500,141.500" stroke-width="17.671" stroke="rgb(33,33,33)" fill="none" stroke-linecap="round"></path><path d="M 319.500,141.500 C 320.000,142.000 320.293,141.879 320.500,142.500" stroke-width="17.500" stroke="rgb(33,33,33)" fill="none" stroke-linecap="round"></path><path d="M 320.500,142.500 C 320.793,143.379 320.028,143.792 320.500,144.500" stroke-width="17.305" stroke="rgb(33,33,33)" fill="none" stroke-linecap="round"></path><path d="M 320.500,144.500 C 321.028,145.292 321.581,144.887 322.500,145.500" stroke-width="16.875" stroke="rgb(33,33,33)" fill="none" stroke-linecap="round"></path><path d="M 322.500,145.500 C 323.081,145.887 323.000,146.000 323.500,146.500" stroke-width="17.194" stroke="rgb(33,33,33)" fill="none" stroke-linecap="round"></path><path d="M 323.500,146.500 C 324.500,147.500 324.328,147.914 325.500,148.500" stroke-width="16.893" stroke="rgb(33,33,33)" fill="none" stroke-linecap="round"></path><path d="M 325.500,148.500 C 326.328,148.914 326.621,148.207 327.500,148.500" stroke-width="16.522" stroke="rgb(33,33,33)" fill="none" stroke-linecap="round"></path><path d="M 327.500,148.500 C 328.121,148.707 327.919,149.113 328.500,149.500" stroke-width="16.788" stroke="rgb(33,33,33)" fill="none" stroke-linecap="round"></path><path d="M 328.500,149.500 C 329.419,150.113 329.464,150.155 330.500,150.500" stroke-width="16.143" stroke="rgb(33,33,33)" fill="none" stroke-linecap="round"></path><path d="M 330.500,150.500 C 330.964,150.655 331.000,150.500 331.500,150.500" stroke-width="16.483" stroke="rgb(33,33,33)" fill="none" stroke-linecap="round"></path><path d="M 331.500,150.500 C 332.000,150.500 332.000,150.500 332.500,150.500" stroke-width="16.766" stroke="rgb(33,33,33)" fill="none" stroke-linecap="round"></path><path d="M 332.500,150.500 C 333.000,150.500 333.250,150.750 333.500,150.500" stroke-width="17.317" stroke="rgb(33,33,33)" fill="none" stroke-linecap="round"></path><path d="M 333.500,150.500 C 333.750,150.250 333.500,150.000 333.500,149.500" stroke-width="17.449" stroke="rgb(33,33,33)" fill="none" stroke-linecap="round"></path><path d="M 333.500,149.500 C 333.500,149.000 333.250,148.750 333.500,148.500" stroke-width="17.749" stroke="rgb(33,33,33)" fill="none" stroke-linecap="round"></path><path d="M 333.500,148.500 C 333.750,148.250 334.333,148.833 334.500,148.500" stroke-width="17.799" stroke="rgb(33,33,33)" fill="none" stroke-linecap="round"></path><path d="M 334.500,148.500 C 334.833,147.833 334.207,147.379 334.500,146.500" stroke-width="17.454" stroke="rgb(33,33,33)" fill="none" stroke-linecap="round"></path><path d="M 334.500,146.500 C 334.707,145.879 335.293,146.121 335.500,145.500" stroke-width="17.673" stroke="rgb(33,33,33)" fill="none" stroke-linecap="round"></path><path d="M 335.500,145.500 C 335.793,144.621 335.167,144.167 335.500,143.500" stroke-width="17.440" stroke="rgb(33,33,33)" fill="none" stroke-linecap="round"></path><path d="M 335.500,143.500 C 335.667,143.167 336.333,143.833 336.500,143.500" stroke-width="17.495" stroke="rgb(33,33,33)" fill="none" stroke-linecap="round"></path><path d="M 336.500,143.500 C 336.833,142.833 336.500,142.500 336.500,141.500" stroke-width="17.368" stroke="rgb(33,33,33)" fill="none" stroke-linecap="round"></path><path d="M 336.500,141.500 C 336.500,141.000 336.500,141.000 336.500,140.500" stroke-width="17.366" stroke="rgb(33,33,33)" fill="none" stroke-linecap="round"></path><path d="M 336.500,140.500 C 336.500,140.000 336.345,139.964 336.500,139.500" stroke-width="17.565" stroke="rgb(33,33,33)" fill="none" stroke-linecap="round"></path><path d="M 336.500,139.500 C 336.845,138.464 337.000,138.500 337.500,137.500" stroke-width="16.920" stroke="rgb(33,33,33)" fill="none" stroke-linecap="round"></path><path d="M 337.500,137.500 C 338.000,136.500 338.236,136.556 338.500,135.500" stroke-width="17.082" stroke="rgb(33,33,33)" fill="none" stroke-linecap="round"></path><path d="M 338.500,135.500 C 338.736,134.556 338.207,134.379 338.500,133.500" stroke-width="16.898" stroke="rgb(33,33,33)" fill="none" stroke-linecap="round"></path><path d="M 338.500,133.500 C 338.707,132.879 339.207,133.086 339.500,132.500" stroke-width="16.959" stroke="rgb(33,33,33)" fill="none" stroke-linecap="round"></path><path d="M 339.500,132.500 C 339.707,132.086 339.345,131.964 339.500,131.500" stroke-width="17.158" stroke="rgb(33,33,33)" fill="none" stroke-linecap="round"></path><path d="M 339.500,131.500 C 339.845,130.464 339.887,130.419 340.500,129.500" stroke-width="16.874" stroke="rgb(33,33,33)" fill="none" stroke-linecap="round"></path><path d="M 340.500,129.500 C 340.887,128.919 341.207,129.086 341.500,128.500" stroke-width="16.940" stroke="rgb(33,33,33)" fill="none" stroke-linecap="round"></path><path d="M 341.500,128.500 C 341.707,128.086 341.500,128.000 341.500,127.500" stroke-width="17.142" stroke="rgb(33,33,33)" fill="none" stroke-linecap="round"></path><path d="M 341.500,127.500 C 341.500,127.000 341.293,126.914 341.500,126.500" stroke-width="17.307" stroke="rgb(33,33,33)" fill="none" stroke-linecap="round"></path><path d="M 341.500,126.500 C 341.793,125.914 342.207,126.086 342.500,125.500" stroke-width="17.287" stroke="rgb(33,33,33)" fill="none" stroke-linecap="round"></path><path d="M 342.500,125.500 C 342.707,125.086 342.500,125.000 342.500,124.500" stroke-width="17.614" stroke="rgb(33,33,33)" fill="none" stroke-linecap="round"></path><path d="M 342.500,124.500 C 342.500,124.000 342.293,123.914 342.500,123.500" stroke-width="17.952" stroke="rgb(33,33,33)" fill="none" stroke-linecap="round"></path><path d="M 342.500,123.500 C 342.793,122.914 343.207,123.086 343.500,122.500" stroke-width="17.859" stroke="rgb(33,33,33)" fill="none" stroke-linecap="round"></path><path d="M 343.500,122.500 C 343.707,122.086 343.293,121.914 343.500,121.500" stroke-width="18.149" stroke="rgb(33,33,33)" fill="none" stroke-linecap="round"></path><path d="M 343.500,121.500 C 343.793,120.914 344.207,121.086 344.500,120.500" stroke-width="18.343" stroke="rgb(33,33,33)" fill="none" stroke-linecap="round"></path><path d="M 344.500,120.500 C 344.707,120.086 344.293,119.914 344.500,119.500" stroke-width="18.468" stroke="rgb(33,33,33)" fill="none" stroke-linecap="round"></path><path d="M 344.500,119.500 C 344.793,118.914 345.340,119.141 345.500,118.500" stroke-width="18.202" stroke="rgb(33,33,33)" fill="none" stroke-linecap="round"></path><path d="M 345.500,118.500 C 345.840,117.141 345.046,116.862 345.500,115.500" stroke-width="17.692" stroke="rgb(33,33,33)" fill="none" stroke-linecap="round"></path><path d="M 345.500,115.500 C 346.046,113.862 346.423,113.937 347.500,112.500" stroke-width="17.609" stroke="rgb(33,33,33)" fill="none" stroke-linecap="round"></path><path d="M 347.500,112.500 C 347.923,111.937 348.369,112.153 348.500,111.500" stroke-width="17.799" stroke="rgb(33,33,33)" fill="none" stroke-linecap="round"></path><path d="M 348.500,111.500 C 348.869,109.653 348.131,109.347 348.500,107.500" stroke-width="16.734" stroke="rgb(33,33,33)" fill="none" stroke-linecap="round"></path><path d="M 348.500,107.500 C 348.631,106.847 349.207,107.086 349.500,106.500" stroke-width="16.826" stroke="rgb(33,33,33)" fill="none" stroke-linecap="round"></path><path d="M 349.500,106.500 C 349.707,106.086 349.345,105.964 349.500,105.500" stroke-width="17.121" stroke="rgb(33,33,33)" fill="none" stroke-linecap="round"></path><path d="M 349.500,105.500 C 349.845,104.464 350.155,104.536 350.500,103.500" stroke-width="16.588" stroke="rgb(33,33,33)" fill="none" stroke-linecap="round"></path><path d="M 350.500,103.500 C 350.655,103.036 350.500,103.000 350.500,102.500" stroke-width="16.852" stroke="rgb(33,33,33)" fill="none" stroke-linecap="round"></path><path d="M 350.500,102.500 C 350.500,102.000 350.293,101.914 350.500,101.500" stroke-width="17.070" stroke="rgb(33,33,33)" fill="none" stroke-linecap="round"></path><path d="M 350.500,101.500 C 350.793,100.914 350.914,100.793 351.500,100.500" stroke-width="17.098" stroke="rgb(33,33,33)" fill="none" stroke-linecap="round"></path><path d="M 351.500,100.500 C 351.914,100.293 352.333,100.833 352.500,100.500" stroke-width="17.271" stroke="rgb(33,33,33)" fill="none" stroke-linecap="round"></path><path d="M 352.500,100.500 C 352.833,99.833 352.500,99.500 352.500,98.500" stroke-width="17.045" stroke="rgb(33,33,33)" fill="none" stroke-linecap="round"></path><path d="M 352.500,98.500 C 352.500,98.000 352.293,97.914 352.500,97.500" stroke-width="17.228" stroke="rgb(33,33,33)" fill="none" stroke-linecap="round"></path><path d="M 352.500,97.500 C 352.793,96.914 353.293,97.121 353.500,96.500" stroke-width="17.224" stroke="rgb(33,33,33)" fill="none" stroke-linecap="round"></path><path d="M 353.500,96.500 C 353.793,95.621 353.167,95.167 353.500,94.500" stroke-width="17.374" stroke="rgb(33,33,33)" fill="none" stroke-linecap="round"></path><path d="M 353.500,94.500 C 353.667,94.167 354.250,94.750 354.500,94.500" stroke-width="17.538" stroke="rgb(33,33,33)" fill="none" stroke-linecap="round"></path><path d="M 354.500,94.500 C 354.750,94.250 354.500,94.000 354.500,93.500" stroke-width="17.574" stroke="rgb(33,33,33)" fill="none" stroke-linecap="round"></path><path d="M 354.500,93.500 C 354.500,93.000 354.500,93.000 354.500,92.500" stroke-width="17.852" stroke="rgb(33,33,33)" fill="none" stroke-linecap="round"></path><path d="M 354.500,92.500 C 354.500,92.000 354.500,92.000 354.500,91.500" stroke-width="18.081" stroke="rgb(33,33,33)" fill="none" stroke-linecap="round"></path><path d="M 354.500,91.500 C 354.500,91.000 354.250,90.750 354.500,90.500" stroke-width="18.268" stroke="rgb(33,33,33)" fill="none" stroke-linecap="round"></path><path d="M 354.500,90.500 C 354.750,90.250 355.250,90.750 355.500,90.500" stroke-width="18.214" stroke="rgb(33,33,33)" fill="none" stroke-linecap="round"></path><path d="M 355.500,90.500 C 355.750,90.250 355.500,90.000 355.500,89.500" stroke-width="18.503" stroke="rgb(33,33,33)" fill="none" stroke-linecap="round"></path><path d="M 355.500,89.500 C 355.500,89.000 355.500,89.000 355.500,88.500" stroke-width="18.741" stroke="rgb(33,33,33)" fill="none" stroke-linecap="round"></path><path d="M 355.500,88.500 C 355.500,88.000 355.500,87.500 355.500,87.500" stroke-width="18.803" stroke="rgb(33,33,33)" fill="none" stroke-linecap="round"></path><path d="M 355.500,87.500 C 355.500,87.500 355.500,88.000 355.500,88.500" stroke-width="19.061" stroke="rgb(33,33,33)" fill="none" stroke-linecap="round"></path><path d="M 355.500,88.500 C 355.500,89.000 355.293,89.086 355.500,89.500" stroke-width="18.888" stroke="rgb(33,33,33)" fill="none" stroke-linecap="round"></path><path d="M 355.500,89.500 C 355.793,90.086 356.340,89.859 356.500,90.500" stroke-width="18.441" stroke="rgb(33,33,33)" fill="none" stroke-linecap="round"></path><path d="M 356.500,90.500 C 356.840,91.859 356.160,92.141 356.500,93.500" stroke-width="17.556" stroke="rgb(33,33,33)" fill="none" stroke-linecap="round"></path><path d="M 356.500,93.500 C 356.660,94.141 357.207,93.914 357.500,94.500" stroke-width="17.485" stroke="rgb(33,33,33)" fill="none" stroke-linecap="round"></path><path d="M 357.500,94.500 C 357.707,94.914 357.500,95.000 357.500,95.500" stroke-width="17.662" stroke="rgb(33,33,33)" fill="none" stroke-linecap="round"></path><path d="M 357.500,95.500 C 357.500,96.500 357.500,96.500 357.500,97.500" stroke-width="17.105" stroke="rgb(33,33,33)" fill="none" stroke-linecap="round"></path><path d="M 357.500,97.500 C 357.500,98.500 357.264,98.556 357.500,99.500" stroke-width="17.058" stroke="rgb(33,33,33)" fill="none" stroke-linecap="round"></path><path d="M 357.500,99.500 C 357.764,100.556 358.236,100.444 358.500,101.500" stroke-width="16.541" stroke="rgb(33,33,33)" fill="none" stroke-linecap="round"></path><path d="M 358.500,101.500 C 358.736,102.444 358.264,102.556 358.500,103.500" stroke-width="16.472" stroke="rgb(33,33,33)" fill="none" stroke-linecap="round"></path><path d="M 358.500,103.500 C 358.764,104.556 359.236,104.444 359.500,105.500" stroke-width="16.339" stroke="rgb(33,33,33)" fill="none" stroke-linecap="round"></path><path d="M 359.500,105.500 C 359.736,106.444 359.500,106.500 359.500,107.500" stroke-width="16.311" stroke="rgb(33,33,33)" fill="none" stroke-linecap="round"></path><path d="M 359.500,107.500 C 359.500,108.000 359.345,108.036 359.500,108.500" stroke-width="16.623" stroke="rgb(33,33,33)" fill="none" stroke-linecap="round"></path><path d="M 359.500,108.500 C 359.845,109.536 360.155,109.464 360.500,110.500" stroke-width="16.457" stroke="rgb(33,33,33)" fill="none" stroke-linecap="round"></path><path d="M 360.500,110.500 C 360.655,110.964 360.500,111.000 360.500,111.500" stroke-width="16.744" stroke="rgb(33,33,33)" fill="none" stroke-linecap="round"></path><path d="M 360.500,111.500 C 360.500,112.500 360.500,112.500 360.500,113.500" stroke-width="16.632" stroke="rgb(33,33,33)" fill="none" stroke-linecap="round"></path><path d="M 360.500,113.500 C 360.500,114.000 360.500,114.000 360.500,114.500" stroke-width="16.889" stroke="rgb(33,33,33)" fill="none" stroke-linecap="round"></path><path d="M 360.500,114.500 C 360.500,116.000 360.500,116.000 360.500,117.500" stroke-width="16.407" stroke="rgb(33,33,33)" fill="none" stroke-linecap="round"></path><path d="M 360.500,117.500 C 360.500,118.500 360.500,118.500 360.500,119.500" stroke-width="16.365" stroke="rgb(33,33,33)" fill="none" stroke-linecap="round"></path><path d="M 360.500,119.500 C 360.500,120.500 360.500,120.500 360.500,121.500" stroke-width="16.332" stroke="rgb(33,33,33)" fill="none" stroke-linecap="round"></path><path d="M 360.500,121.500 C 360.500,122.500 360.500,122.500 360.500,123.500" stroke-width="16.306" stroke="rgb(33,33,33)" fill="none" stroke-linecap="round"></path><path d="M 360.500,123.500 C 360.500,124.500 360.306,124.531 360.500,125.500" stroke-width="16.284" stroke="rgb(33,33,33)" fill="none" stroke-linecap="round"></path><path d="M 360.500,125.500 C 360.806,127.031 361.243,126.960 361.500,128.500" stroke-width="15.896" stroke="rgb(33,33,33)" fill="none" stroke-linecap="round"></path><path d="M 361.500,128.500 C 361.743,129.960 361.500,130.000 361.500,131.500" stroke-width="15.648" stroke="rgb(33,33,33)" fill="none" stroke-linecap="round"></path><path d="M 361.500,131.500 C 361.500,132.500 361.500,132.500 361.500,133.500" stroke-width="15.824" stroke="rgb(33,33,33)" fill="none" stroke-linecap="round"></path><path d="M 361.500,133.500 C 361.500,135.000 361.214,135.068 361.500,136.500" stroke-width="15.464" stroke="rgb(33,33,33)" fill="none" stroke-linecap="round"></path><path d="M 361.500,136.500 C 361.714,137.568 362.286,137.432 362.500,138.500" stroke-width="15.670" stroke="rgb(33,33,33)" fill="none" stroke-linecap="round"></path><path d="M 362.500,138.500 C 362.786,139.932 362.500,140.000 362.500,141.500" stroke-width="15.182" stroke="rgb(33,33,33)" fill="none" stroke-linecap="round"></path><path d="M 362.500,141.500 C 362.500,142.500 362.500,142.500 362.500,143.500" stroke-width="15.493" stroke="rgb(33,33,33)" fill="none" stroke-linecap="round"></path><path d="M 362.500,143.500 C 362.500,145.000 362.214,145.068 362.500,146.500" stroke-width="15.048" stroke="rgb(33,33,33)" fill="none" stroke-linecap="round"></path><path d="M 362.500,146.500 C 362.714,147.568 363.236,147.444 363.500,148.500" stroke-width="15.374" stroke="rgb(33,33,33)" fill="none" stroke-linecap="round"></path><path d="M 363.500,148.500 C 363.736,149.444 363.500,149.500 363.500,150.500" stroke-width="15.183" stroke="rgb(33,33,33)" fill="none" stroke-linecap="round"></path><path d="M 363.500,150.500 C 363.500,151.500 363.500,151.500 363.500,152.500" stroke-width="15.493" stroke="rgb(33,33,33)" fill="none" stroke-linecap="round"></path><path d="M 363.500,152.500 C 363.500,153.500 363.500,153.500 363.500,154.500" stroke-width="15.431" stroke="rgb(33,33,33)" fill="none" stroke-linecap="round"></path><path d="M 363.500,154.500 C 363.500,155.000 363.500,155.000 363.500,155.500" stroke-width="15.885" stroke="rgb(33,33,33)" fill="none" stroke-linecap="round"></path><path d="M 363.500,155.500 C 363.500,156.000 363.500,156.000 363.500,156.500" stroke-width="16.267" stroke="rgb(33,33,33)" fill="none" stroke-linecap="round"></path><path d="M 363.500,156.500 C 363.500,157.000 363.500,157.000 363.500,157.500" stroke-width="16.586" stroke="rgb(33,33,33)" fill="none" stroke-linecap="round"></path><path d="M 363.500,157.500 C 363.500,158.500 363.500,158.500 363.500,159.500" stroke-width="16.508" stroke="rgb(33,33,33)" fill="none" stroke-linecap="round"></path><path d="M 363.500,159.500 C 363.500,160.000 363.500,160.000 363.500,160.500" stroke-width="16.962" stroke="rgb(33,33,33)" fill="none" stroke-linecap="round"></path><path d="M 363.500,160.500 C 363.500,161.500 363.500,161.500 363.500,162.500" stroke-width="16.804" stroke="rgb(33,33,33)" fill="none" stroke-linecap="round"></path><path d="M 363.500,162.500 C 363.500,163.000 363.500,163.000 363.500,163.500" stroke-width="17.030" stroke="rgb(33,33,33)" fill="none" stroke-linecap="round"></path><path d="M 363.500,163.500 C 363.500,164.000 363.500,164.000 363.500,164.500" stroke-width="17.216" stroke="rgb(33,33,33)" fill="none" stroke-linecap="round"></path><path d="M 363.500,164.500 C 363.500,165.000 363.500,165.000 363.500,165.500" stroke-width="17.367" stroke="rgb(33,33,33)" fill="none" stroke-linecap="round"></path><path d="M 363.500,165.500 C 363.500,166.000 363.707,166.086 363.500,166.500" stroke-width="17.490" stroke="rgb(33,33,33)" fill="none" stroke-linecap="round"></path><path d="M 363.500,166.500 C 363.207,167.086 362.707,166.879 362.500,167.500" stroke-width="17.492" stroke="rgb(33,33,33)" fill="none" stroke-linecap="round"></path><path d="M 362.500,167.500 C 362.207,168.379 362.500,168.500 362.500,169.500" stroke-width="17.113" stroke="rgb(33,33,33)" fill="none" stroke-linecap="round"></path><path d="M 362.500,169.500 C 362.500,170.000 362.500,170.000 362.500,170.500" stroke-width="17.284" stroke="rgb(33,33,33)" fill="none" stroke-linecap="round"></path><path d="M 362.500,170.500 C 362.500,171.000 362.500,171.000 362.500,171.500" stroke-width="17.422" stroke="rgb(33,33,33)" fill="none" stroke-linecap="round"></path><path d="M 362.500,171.500 C 362.500,172.000 362.750,172.250 362.500,172.500" stroke-width="17.577" stroke="rgb(33,33,33)" fill="none" stroke-linecap="round"></path><path d="M 362.500,172.500 C 362.250,172.750 361.750,172.250 361.500,172.500" stroke-width="17.605" stroke="rgb(33,33,33)" fill="none" stroke-linecap="round"></path><path d="M 361.500,172.500 C 361.250,172.750 361.500,173.000 361.500,173.500" stroke-width="17.726" stroke="rgb(33,33,33)" fill="none" stroke-linecap="round"></path><path d="M 361.500,173.500 C 361.500,174.000 361.707,174.086 361.500,174.500" stroke-width="17.724" stroke="rgb(33,33,33)" fill="none" stroke-linecap="round"></path><path d="M 361.500,174.500 C 361.207,175.086 360.793,174.914 360.500,175.500" stroke-width="17.768" stroke="rgb(33,33,33)" fill="none" stroke-linecap="round"></path><path d="M 360.500,175.500 C 360.293,175.914 360.500,176.000 360.500,176.500" stroke-width="17.582" stroke="rgb(33,33,33)" fill="none" stroke-linecap="round"></path><path d="M 360.500,176.500 C 360.500,177.000 360.500,177.000 360.500,177.500" stroke-width="17.769" stroke="rgb(33,33,33)" fill="none" stroke-linecap="round"></path><path d="M 360.500,177.500 C 360.500,178.000 360.500,178.000 360.500,178.500" stroke-width="17.583" stroke="rgb(33,33,33)" fill="none" stroke-linecap="round"></path><path d="M 360.500,178.500 C 360.500,179.000 360.500,179.000 360.500,179.500" stroke-width="17.860" stroke="rgb(33,33,33)" fill="none" stroke-linecap="round"></path><path d="M 360.500,179.500 C 360.500,180.000 360.707,180.086 360.500,180.500" stroke-width="17.888" stroke="rgb(33,33,33)" fill="none" stroke-linecap="round"></path><path d="M 360.500,180.500 C 360.207,181.086 359.660,180.859 359.500,181.500" stroke-width="18.027" stroke="rgb(33,33,33)" fill="none" stroke-linecap="round"></path><path d="M 359.500,181.500 C 359.160,182.859 359.840,183.141 359.500,184.500" stroke-width="18.330" stroke="rgb(33,33,33)" fill="none" stroke-linecap="round"></path><path d="M 359.500,184.500 C 359.340,185.141 358.887,184.919 358.500,185.500" stroke-width="17.189" stroke="rgb(33,33,33)" fill="none" stroke-linecap="round"></path><path d="M 358.500,185.500 C 357.887,186.419 357.845,186.464 357.500,187.500" stroke-width="14.824" stroke="rgb(33,33,33)" fill="none" stroke-linecap="round"></path><path d="M 357.500,187.500 C 357.345,187.964 357.750,188.250 357.500,188.500" stroke-width="15.324" stroke="rgb(33,33,33)" fill="none" stroke-linecap="round"></path><path d="M 357.500,188.500 C 357.250,188.750 356.750,188.250 356.500,188.500" stroke-width="15.828" stroke="rgb(33,33,33)" fill="none" stroke-linecap="round"></path><path d="M 356.500,188.500 C 356.250,188.750 356.500,189.000 356.500,189.500" stroke-width="16.173" stroke="rgb(33,33,33)" fill="none" stroke-linecap="round"></path><path d="M 356.500,189.500 C 356.500,190.000 356.500,190.000 356.500,190.500" stroke-width="16.546" stroke="rgb(33,33,33)" fill="none" stroke-linecap="round"></path><path d="M 356.500,190.500 C 356.500,191.000 356.750,191.250 356.500,191.500" stroke-width="17.014" stroke="rgb(33,33,33)" fill="none" stroke-linecap="round"></path><path d="M 356.500,191.500 C 356.250,191.750 355.750,191.250 355.500,191.500" stroke-width="17.081" stroke="rgb(33,33,33)" fill="none" stroke-linecap="round"></path><path d="M 355.500,191.500 C 355.250,191.750 355.500,192.000 355.500,192.500" stroke-width="17.331" stroke="rgb(33,33,33)" fill="none" stroke-linecap="round"></path><path d="M 355.500,192.500 C 355.500,193.000 355.500,193.000 355.500,193.500" stroke-width="17.337" stroke="rgb(33,33,33)" fill="none" stroke-linecap="round"></path><path d="M 355.500,193.500 C 355.500,194.000 355.500,194.000 355.500,194.500" stroke-width="17.656" stroke="rgb(33,33,33)" fill="none" stroke-linecap="round"></path><path d="M 355.500,194.500 C 355.500,195.000 355.500,195.000 355.500,195.500" stroke-width="17.723" stroke="rgb(33,33,33)" fill="none" stroke-linecap="round"></path><path d="M 355.500,195.500 C 355.500,196.000 355.750,196.250 355.500,196.500" stroke-width="17.778" stroke="rgb(33,33,33)" fill="none" stroke-linecap="round"></path><path d="M 355.500,196.500 C 355.250,196.750 354.750,196.250 354.500,196.500" stroke-width="17.822" stroke="rgb(33,33,33)" fill="none" stroke-linecap="round"></path><path d="M 354.500,196.500 C 354.250,196.750 354.707,197.086 354.500,197.500" stroke-width="17.857" stroke="rgb(33,33,33)" fill="none" stroke-linecap="round"></path><path d="M 354.500,197.500 C 354.207,198.086 353.793,197.914 353.500,198.500" stroke-width="17.724" stroke="rgb(33,33,33)" fill="none" stroke-linecap="round"></path><path d="M 353.500,198.500 C 353.293,198.914 353.500,199.000 353.500,199.500" stroke-width="17.778" stroke="rgb(33,33,33)" fill="none" stroke-linecap="round"></path><path d="M 353.500,199.500 C 353.500,200.000 353.500,200.000 353.500,200.500" stroke-width="18.020" stroke="rgb(33,33,33)" fill="none" stroke-linecap="round"></path><path d="M 353.500,200.500 C 353.500,201.000 353.707,201.086 353.500,201.500" stroke-width="18.219" stroke="rgb(33,33,33)" fill="none" stroke-linecap="round"></path><path d="M 353.500,201.500 C 353.207,202.086 352.793,201.914 352.500,202.500" stroke-width="18.007" stroke="rgb(33,33,33)" fill="none" stroke-linecap="round"></path><path d="M 352.500,202.500 C 352.293,202.914 352.500,203.000 352.500,203.500" stroke-width="18.208" stroke="rgb(33,33,33)" fill="none" stroke-linecap="round"></path><path d="M 352.500,203.500 C 352.500,204.000 352.500,204.000 352.500,204.500" stroke-width="18.372" stroke="rgb(33,33,33)" fill="none" stroke-linecap="round"></path><path d="M 352.500,204.500 C 352.500,205.000 352.707,205.086 352.500,205.500" stroke-width="18.506" stroke="rgb(33,33,33)" fill="none" stroke-linecap="round"></path><path d="M 352.500,205.500 C 352.207,206.086 352.000,206.000 351.500,206.500" stroke-width="18.295" stroke="rgb(33,33,33)" fill="none" stroke-linecap="round"></path><path d="M 351.500,206.500 C 351.000,207.000 350.793,206.914 350.500,207.500" stroke-width="18.447" stroke="rgb(33,33,33)" fill="none" stroke-linecap="round"></path><path d="M 350.500,207.500 C 350.293,207.914 350.707,208.086 350.500,208.500" stroke-width="18.566" stroke="rgb(33,33,33)" fill="none" stroke-linecap="round"></path><path d="M 350.500,208.500 C 350.207,209.086 350.000,209.000 349.500,209.500" stroke-width="18.277" stroke="rgb(33,33,33)" fill="none" stroke-linecap="round"></path><path d="M 349.500,209.500 C 349.000,210.000 349.000,210.000 348.500,210.500" stroke-width="18.342" stroke="rgb(33,33,33)" fill="none" stroke-linecap="round"></path><path d="M 348.500,210.500 C 348.000,211.000 347.793,210.914 347.500,211.500" stroke-width="18.394" stroke="rgb(33,33,33)" fill="none" stroke-linecap="round"></path><path d="M 347.500,211.500 C 347.293,211.914 347.707,212.086 347.500,212.500" stroke-width="18.594" stroke="rgb(33,33,33)" fill="none" stroke-linecap="round"></path><path d="M 347.500,212.500 C 347.207,213.086 346.793,212.914 346.500,213.500" stroke-width="18.596" stroke="rgb(33,33,33)" fill="none" stroke-linecap="round"></path><path d="M 346.500,213.500 C 346.293,213.914 346.750,214.250 346.500,214.500" stroke-width="18.759" stroke="rgb(33,33,33)" fill="none" stroke-linecap="round"></path><path d="M 346.500,214.500 C 346.250,214.750 345.750,214.250 345.500,214.500" stroke-width="18.602" stroke="rgb(33,33,33)" fill="none" stroke-linecap="round"></path><path d="M 345.500,214.500 C 345.250,214.750 345.707,215.086 345.500,215.500" stroke-width="18.479" stroke="rgb(33,33,33)" fill="none" stroke-linecap="round"></path><path d="M 345.500,215.500 C 345.207,216.086 345.086,216.207 344.500,216.500" stroke-width="18.274" stroke="rgb(33,33,33)" fill="none" stroke-linecap="round"></path><path d="M 344.500,216.500 C 344.086,216.707 343.750,216.250 343.500,216.500" stroke-width="18.160" stroke="rgb(33,33,33)" fill="none" stroke-linecap="round"></path><path d="M 343.500,216.500 C 343.250,216.750 343.750,217.250 343.500,217.500" stroke-width="18.210" stroke="rgb(33,33,33)" fill="none" stroke-linecap="round"></path><path d="M 343.500,217.500 C 343.250,217.750 342.914,217.293 342.500,217.500" stroke-width="18.032" stroke="rgb(33,33,33)" fill="none" stroke-linecap="round"></path><path d="M 342.500,217.500 C 341.914,217.793 342.086,218.207 341.500,218.500" stroke-width="18.144" stroke="rgb(33,33,33)" fill="none" stroke-linecap="round"></path><path d="M 341.500,218.500 C 341.086,218.707 341.000,218.500 340.500,218.500" stroke-width="18.494" stroke="rgb(33,33,33)" fill="none" stroke-linecap="round"></path><path d="M 340.500,218.500 C 340.000,218.500 340.000,218.500 339.500,218.500" stroke-width="18.393" stroke="rgb(33,33,33)" fill="none" stroke-linecap="round"></path><path d="M 339.500,218.500 C 339.000,218.500 339.000,218.500 338.500,218.500" stroke-width="18.523" stroke="rgb(33,33,33)" fill="none" stroke-linecap="round"></path><path d="M 338.500,218.500 C 337.500,218.500 337.000,219.000 336.500,218.500" stroke-width="18.416" stroke="rgb(33,33,33)" fill="none" stroke-linecap="round"></path><path d="M 336.500,218.500 C 336.000,218.000 337.000,217.000 336.500,216.500" stroke-width="17.925" stroke="rgb(33,33,33)" fill="none" stroke-linecap="round"></path><path d="M 336.500,216.500 C 336.000,216.000 335.167,216.833 334.500,216.500" stroke-width="17.552" stroke="rgb(33,33,33)" fill="none" stroke-linecap="round"></path><path d="M 334.500,216.500 C 334.167,216.333 334.809,215.809 334.500,215.500" stroke-width="17.639" stroke="rgb(33,33,33)" fill="none" stroke-linecap="round"></path><path d="M 334.500,215.500 C 333.809,214.809 333.191,215.191 332.500,214.500" stroke-width="17.244" stroke="rgb(33,33,33)" fill="none" stroke-linecap="round"></path><path d="M 332.500,214.500 C 332.191,214.191 332.707,213.914 332.500,213.500" stroke-width="17.579" stroke="rgb(33,33,33)" fill="none" stroke-linecap="round"></path><path d="M 332.500,213.500 C 332.207,212.914 332.086,212.793 331.500,212.500" stroke-width="17.611" stroke="rgb(33,33,33)" fill="none" stroke-linecap="round"></path><path d="M 331.500,212.500 C 331.086,212.293 330.750,212.750 330.500,212.500" stroke-width="17.560" stroke="rgb(33,33,33)" fill="none" stroke-linecap="round"></path><path d="M 330.500,212.500 C 330.250,212.250 330.500,212.000 330.500,211.500" stroke-width="17.840" stroke="rgb(33,33,33)" fill="none" stroke-linecap="round"></path><path d="M 330.500,211.500 C 330.500,211.000 330.750,210.750 330.500,210.500" stroke-width="18.071" stroke="rgb(33,33,33)" fill="none" stroke-linecap="round"></path><path d="M 330.500,210.500 C 330.250,210.250 329.750,210.750 329.500,210.500" stroke-width="18.057" stroke="rgb(33,33,33)" fill="none" stroke-linecap="round"></path><path d="M 329.500,210.500 C 329.250,210.250 329.500,210.000 329.500,209.500" stroke-width="18.046" stroke="rgb(33,33,33)" fill="none" stroke-linecap="round"></path><path d="M 329.500,209.500 C 329.500,209.000 329.500,209.000 329.500,208.500" stroke-width="18.240" stroke="rgb(33,33,33)" fill="none" stroke-linecap="round"></path><path d="M 329.500,208.500 C 329.500,208.000 329.707,207.914 329.500,207.500" stroke-width="18.191" stroke="rgb(33,33,33)" fill="none" stroke-linecap="round"></path><path d="M 329.500,207.500 C 329.207,206.914 329.000,207.000 328.500,206.500" stroke-width="17.986" stroke="rgb(33,33,33)" fill="none" stroke-linecap="round"></path><path d="M 328.500,206.500 C 328.000,206.000 327.793,206.086 327.500,205.500" stroke-width="17.825" stroke="rgb(33,33,33)" fill="none" stroke-linecap="round"></path><path d="M 327.500,205.500 C 327.293,205.086 327.500,205.000 327.500,204.500" stroke-width="17.859" stroke="rgb(33,33,33)" fill="none" stroke-linecap="round"></path><path d="M 327.500,204.500 C 327.500,203.500 327.500,203.500 327.500,202.500" stroke-width="17.501" stroke="rgb(33,33,33)" fill="none" stroke-linecap="round"></path><path d="M 327.500,202.500 C 327.500,202.000 327.750,201.750 327.500,201.500" stroke-width="17.598" stroke="rgb(33,33,33)" fill="none" stroke-linecap="round"></path><path d="M 327.500,201.500 C 327.250,201.250 326.667,201.833 326.500,201.500" stroke-width="17.677" stroke="rgb(33,33,33)" fill="none" stroke-linecap="round"></path><path d="M 326.500,201.500 C 326.167,200.833 326.500,200.500 326.500,199.500" stroke-width="17.361" stroke="rgb(33,33,33)" fill="none" stroke-linecap="round"></path><path d="M 326.500,199.500 C 326.500,198.500 326.500,198.500 326.500,197.500" stroke-width="17.485" stroke="rgb(33,33,33)" fill="none" stroke-linecap="round"></path><path d="M 326.500,197.500 C 326.500,197.000 326.500,197.000 326.500,196.500" stroke-width="17.790" stroke="rgb(33,33,33)" fill="none" stroke-linecap="round"></path><path d="M 326.500,196.500 C 326.500,196.000 326.500,196.000 326.500,195.500" stroke-width="18.091" stroke="rgb(33,33,33)" fill="none" stroke-linecap="round"></path><path d="M 326.500,195.500 C 326.500,195.000 326.500,195.000 326.500,194.500" stroke-width="18.351" stroke="rgb(33,33,33)" fill="none" stroke-linecap="round"></path><path d="M 326.500,194.500 C 326.500,194.000 326.345,193.964 326.500,193.500" stroke-width="18.673" stroke="rgb(33,33,33)" fill="none" stroke-linecap="round"></path><path d="M 326.500,193.500 C 326.845,192.464 326.809,192.191 327.500,191.500" stroke-width="18.025" stroke="rgb(33,33,33)" fill="none" stroke-linecap="round"></path><path d="M 327.500,191.500 C 327.809,191.191 328.108,191.761 328.500,191.500" stroke-width="18.154" stroke="rgb(33,33,33)" fill="none" stroke-linecap="round"></path><path d="M 328.500,191.500 C 329.608,190.761 329.383,190.338 330.500,189.500" stroke-width="16.413" stroke="rgb(33,33,33)" fill="none" stroke-linecap="round"></path><path d="M 330.500,189.500 C 331.383,188.838 331.581,189.113 332.500,188.500" stroke-width="16.374" stroke="rgb(33,33,33)" fill="none" stroke-linecap="round"></path><path d="M 332.500,188.500 C 333.081,188.113 332.919,187.887 333.500,187.500" stroke-width="16.466" stroke="rgb(33,33,33)" fill="none" stroke-linecap="round"></path><path d="M 333.500,187.500 C 334.419,186.887 334.581,187.113 335.500,186.500" stroke-width="16.417" stroke="rgb(33,33,33)" fill="none" stroke-linecap="round"></path><path d="M 335.500,186.500 C 336.081,186.113 335.919,185.887 336.500,185.500" stroke-width="16.501" stroke="rgb(33,33,33)" fill="none" stroke-linecap="round"></path><path d="M 336.500,185.500 C 337.419,184.887 337.581,185.113 338.500,184.500" stroke-width="16.511" stroke="rgb(33,33,33)" fill="none" stroke-linecap="round"></path><path d="M 338.500,184.500 C 339.081,184.113 339.000,184.000 339.500,183.500" stroke-width="16.486" stroke="rgb(33,33,33)" fill="none" stroke-linecap="round"></path><path d="M 339.500,183.500 C 340.000,183.000 340.207,183.086 340.500,182.500" stroke-width="16.758" stroke="rgb(33,33,33)" fill="none" stroke-linecap="round"></path><path d="M 340.500,182.500 C 340.707,182.086 340.293,181.914 340.500,181.500" stroke-width="16.781" stroke="rgb(33,33,33)" fill="none" stroke-linecap="round"></path><path d="M 340.500,181.500 C 340.793,180.914 341.207,181.086 341.500,180.500" stroke-width="17.117" stroke="rgb(33,33,33)" fill="none" stroke-linecap="round"></path><path d="M 341.500,180.500 C 341.707,180.086 341.250,179.750 341.500,179.500" stroke-width="17.587" stroke="rgb(33,33,33)" fill="none" stroke-linecap="round"></path><path d="M 341.500,179.500 C 341.750,179.250 342.250,179.750 342.500,179.500" stroke-width="17.668" stroke="rgb(33,33,33)" fill="none" stroke-linecap="round"></path><path d="M 342.500,179.500 C 342.750,179.250 342.250,178.750 342.500,178.500" stroke-width="17.930" stroke="rgb(33,33,33)" fill="none" stroke-linecap="round"></path><path d="M 342.500,178.500 C 342.750,178.250 343.250,178.750 343.500,178.500" stroke-width="17.944" stroke="rgb(33,33,33)" fill="none" stroke-linecap="round"></path><path d="M 343.500,178.500 C 343.750,178.250 343.250,177.750 343.500,177.500" stroke-width="18.224" stroke="rgb(33,33,33)" fill="none" stroke-linecap="round"></path><path d="M 343.500,177.500 C 343.750,177.250 344.333,177.833 344.500,177.500" stroke-width="18.179" stroke="rgb(33,33,33)" fill="none" stroke-linecap="round"></path><path d="M 344.500,177.500 C 344.833,176.833 344.207,176.379 344.500,175.500" stroke-width="17.745" stroke="rgb(33,33,33)" fill="none" stroke-linecap="round"></path><path d="M 344.500,175.500 C 344.707,174.879 345.000,175.000 345.500,174.500" stroke-width="17.911" stroke="rgb(33,33,33)" fill="none" stroke-linecap="round"></path><path d="M 345.500,174.500 C 346.000,174.000 346.207,174.086 346.500,173.500" stroke-width="17.766" stroke="rgb(33,33,33)" fill="none" stroke-linecap="round"></path><path d="M 346.500,173.500 C 346.707,173.086 346.293,172.914 346.500,172.500" stroke-width="17.856" stroke="rgb(33,33,33)" fill="none" stroke-linecap="round"></path><path d="M 346.500,172.500 C 346.793,171.914 347.113,172.081 347.500,171.500" stroke-width="17.644" stroke="rgb(33,33,33)" fill="none" stroke-linecap="round"></path><path d="M 347.500,171.500 C 348.113,170.581 348.000,170.500 348.500,169.500" stroke-width="17.669" stroke="rgb(33,33,33)" fill="none" stroke-linecap="round"></path><path d="M 348.500,169.500 C 349.000,168.500 348.887,168.419 349.500,167.500" stroke-width="17.688" stroke="rgb(33,33,33)" fill="none" stroke-linecap="round"></path><path d="M 349.500,167.500 C 349.887,166.919 350.000,167.000 350.500,166.500" stroke-width="17.864" stroke="rgb(33,33,33)" fill="none" stroke-linecap="round"></path><path d="M 350.500,166.500 C 351.000,166.000 351.207,166.086 351.500,165.500" stroke-width="17.729" stroke="rgb(33,33,33)" fill="none" stroke-linecap="round"></path><path d="M 351.500,165.500 C 351.707,165.086 351.250,164.750 351.500,164.500" stroke-width="17.783" stroke="rgb(33,33,33)" fill="none" stroke-linecap="round"></path><path d="M 351.500,164.500 C 351.750,164.250 352.250,164.750 352.500,164.500" stroke-width="17.826" stroke="rgb(33,33,33)" fill="none" stroke-linecap="round"></path><path d="M 352.500,164.500 C 352.750,164.250 352.293,163.914 352.500,163.500" stroke-width="17.860" stroke="rgb(33,33,33)" fill="none" stroke-linecap="round"></path><path d="M 352.500,163.500 C 352.793,162.914 353.207,163.086 353.500,162.500" stroke-width="17.726" stroke="rgb(33,33,33)" fill="none" stroke-linecap="round"></path><path d="M 353.500,162.500 C 353.707,162.086 353.167,161.667 353.500,161.500" stroke-width="17.780" stroke="rgb(33,33,33)" fill="none" stroke-linecap="round"></path><path d="M 353.500,161.500 C 354.167,161.167 354.699,161.981 355.500,161.500" stroke-width="17.440" stroke="rgb(33,33,33)" fill="none" stroke-linecap="round"></path><path d="M 355.500,161.500 C 357.199,160.481 356.863,159.810 358.500,158.500" stroke-width="16.397" stroke="rgb(33,33,33)" fill="none" stroke-linecap="round"></path><path d="M 358.500,158.500 C 359.363,157.810 359.581,158.113 360.500,157.500" stroke-width="16.280" stroke="rgb(33,33,33)" fill="none" stroke-linecap="round"></path><path d="M 360.500,157.500 C 361.081,157.113 361.000,157.000 361.500,156.500" stroke-width="16.457" stroke="rgb(33,33,33)" fill="none" stroke-linecap="round"></path><path d="M 361.500,156.500 C 362.000,156.000 362.000,156.000 362.500,155.500" stroke-width="16.602" stroke="rgb(33,33,33)" fill="none" stroke-linecap="round"></path><path d="M 362.500,155.500 C 363.500,154.500 363.500,154.500 364.500,153.500" stroke-width="16.246" stroke="rgb(33,33,33)" fill="none" stroke-linecap="round"></path><path d="M 364.500,153.500 C 365.000,153.000 364.914,152.793 365.500,152.500" stroke-width="16.429" stroke="rgb(33,33,33)" fill="none" stroke-linecap="round"></path><path d="M 365.500,152.500 C 365.914,152.293 366.086,152.707 366.500,152.500" stroke-width="16.721" stroke="rgb(33,33,33)" fill="none" stroke-linecap="round"></path><path d="M 366.500,152.500 C 367.086,152.207 367.000,152.000 367.500,151.500" stroke-width="16.816" stroke="rgb(33,33,33)" fill="none" stroke-linecap="round"></path><path d="M 367.500,151.500 C 368.000,151.000 368.000,151.000 368.500,150.500" stroke-width="16.949" stroke="rgb(33,33,33)" fill="none" stroke-linecap="round"></path><path d="M 368.500,150.500 C 369.000,150.000 369.000,150.000 369.500,149.500" stroke-width="16.928" stroke="rgb(33,33,33)" fill="none" stroke-linecap="round"></path><path d="M 369.500,149.500 C 370.000,149.000 370.000,149.000 370.500,148.500" stroke-width="17.040" stroke="rgb(33,33,33)" fill="none" stroke-linecap="round"></path><path d="M 370.500,148.500 C 371.000,148.000 370.914,147.793 371.500,147.500" stroke-width="17.001" stroke="rgb(33,33,33)" fill="none" stroke-linecap="round"></path><path d="M 371.500,147.500 C 371.914,147.293 372.191,147.809 372.500,147.500" stroke-width="17.232" stroke="rgb(33,33,33)" fill="none" stroke-linecap="round"></path><path d="M 372.500,147.500 C 373.191,146.809 372.809,146.191 373.500,145.500" stroke-width="16.819" stroke="rgb(33,33,33)" fill="none" stroke-linecap="round"></path><path d="M 373.500,145.500 C 373.809,145.191 374.086,145.707 374.500,145.500" stroke-width="17.115" stroke="rgb(33,33,33)" fill="none" stroke-linecap="round"></path><path d="M 374.500,145.500 C 375.086,145.207 375.000,145.000 375.500,144.500" stroke-width="16.964" stroke="rgb(33,33,33)" fill="none" stroke-linecap="round"></path><path d="M 375.500,144.500 C 376.000,144.000 376.000,144.000 376.500,143.500" stroke-width="17.151" stroke="rgb(33,33,33)" fill="none" stroke-linecap="round"></path><path d="M 376.500,143.500 C 377.000,143.000 377.000,143.000 377.500,142.500" stroke-width="16.860" stroke="rgb(33,33,33)" fill="none" stroke-linecap="round"></path><path d="M 377.500,142.500 C 378.000,142.000 377.919,141.887 378.500,141.500" stroke-width="17.029" stroke="rgb(33,33,33)" fill="none" stroke-linecap="round"></path><path d="M 378.500,141.500 C 379.419,140.887 379.581,141.113 380.500,140.500" stroke-width="16.519" stroke="rgb(33,33,33)" fill="none" stroke-linecap="round"></path><path d="M 380.500,140.500 C 381.081,140.113 381.000,140.000 381.500,139.500" stroke-width="16.652" stroke="rgb(33,33,33)" fill="none" stroke-linecap="round"></path><path d="M 381.500,139.500 C 382.000,139.000 382.000,139.000 382.500,138.500" stroke-width="16.761" stroke="rgb(33,33,33)" fill="none" stroke-linecap="round"></path><path d="M 382.500,138.500 C 383.000,138.000 382.914,137.793 383.500,137.500" stroke-width="16.848" stroke="rgb(33,33,33)" fill="none" stroke-linecap="round"></path><path d="M 383.500,137.500 C 383.914,137.293 384.191,137.809 384.500,137.500" stroke-width="17.067" stroke="rgb(33,33,33)" fill="none" stroke-linecap="round"></path><path d="M 384.500,137.500 C 385.191,136.809 384.809,136.191 385.500,135.500" stroke-width="16.803" stroke="rgb(33,33,33)" fill="none" stroke-linecap="round"></path><path d="M 385.500,135.500 C 385.809,135.191 386.086,135.707 386.500,135.500" stroke-width="17.030" stroke="rgb(33,33,33)" fill="none" stroke-linecap="round"></path><path d="M 386.500,135.500 C 387.086,135.207 387.000,135.000 387.500,134.500" stroke-width="17.065" stroke="rgb(33,33,33)" fill="none" stroke-linecap="round"></path><path d="M 387.500,134.500 C 388.000,134.000 387.879,133.707 388.500,133.500" stroke-width="17.093" stroke="rgb(33,33,33)" fill="none" stroke-linecap="round"></path><path d="M 388.500,133.500 C 389.379,133.207 390.000,134.000 390.500,133.500" stroke-width="16.807" stroke="rgb(33,33,33)" fill="none" stroke-linecap="round"></path><path d="M 390.500,133.500 C 391.000,133.000 390.000,132.000 390.500,131.500" stroke-width="16.682" stroke="rgb(33,33,33)" fill="none" stroke-linecap="round"></path><path d="M 390.500,131.500 C 391.000,131.000 391.621,131.793 392.500,131.500" stroke-width="16.583" stroke="rgb(33,33,33)" fill="none" stroke-linecap="round"></path><path d="M 392.500,131.500 C 393.121,131.293 393.000,131.000 393.500,130.500" stroke-width="16.966" stroke="rgb(33,33,33)" fill="none" stroke-linecap="round"></path><path d="M 393.500,130.500 C 394.000,130.000 394.000,130.000 394.500,129.500" stroke-width="17.014" stroke="rgb(33,33,33)" fill="none" stroke-linecap="round"></path><path d="M 394.500,129.500 C 395.000,129.000 394.919,128.887 395.500,128.500" stroke-width="17.398" stroke="rgb(33,33,33)" fill="none" stroke-linecap="round"></path><path d="M 395.500,128.500 C 396.419,127.887 396.809,128.191 397.500,127.500" stroke-width="17.471" stroke="rgb(33,33,33)" fill="none" stroke-linecap="round"></path><path d="M 397.500,127.500 C 397.809,127.191 397.250,126.750 397.500,126.500" stroke-width="17.650" stroke="rgb(33,33,33)" fill="none" stroke-linecap="round"></path><path d="M 397.500,126.500 C 397.750,126.250 398.108,126.761 398.500,126.500" stroke-width="17.591" stroke="rgb(33,33,33)" fill="none" stroke-linecap="round"></path><path d="M 398.500,126.500 C 399.608,125.761 399.392,125.239 400.500,124.500" stroke-width="17.198" stroke="rgb(33,33,33)" fill="none" stroke-linecap="round"></path><path d="M 400.500,124.500 C 400.892,124.239 401.108,124.761 401.500,124.500" stroke-width="17.229" stroke="rgb(33,33,33)" fill="none" stroke-linecap="round"></path><path d="M 401.500,124.500 C 402.608,123.761 402.500,123.500 403.500,122.500" stroke-width="16.920" stroke="rgb(33,33,33)" fill="none" stroke-linecap="round"></path><path d="M 403.500,122.500 C 404.000,122.000 404.000,122.000 404.500,121.500" stroke-width="16.810" stroke="rgb(33,33,33)" fill="none" stroke-linecap="round"></path><path d="M 404.500,121.500 C 405.000,121.000 405.000,121.000 405.500,120.500" stroke-width="16.889" stroke="rgb(33,33,33)" fill="none" stroke-linecap="round"></path><path d="M 405.500,120.500 C 406.000,120.000 406.000,120.000 406.500,119.500" stroke-width="16.951" stroke="rgb(33,33,33)" fill="none" stroke-linecap="round"></path><path d="M 406.500,119.500 C 408.500,117.500 408.500,117.500 410.500,115.500" stroke-width="15.612" stroke="rgb(33,33,33)" fill="none" stroke-linecap="round"></path><path d="M 410.500,115.500 C 411.000,115.000 411.000,115.000 411.500,114.500" stroke-width="16.131" stroke="rgb(33,33,33)" fill="none" stroke-linecap="round"></path><path d="M 411.500,114.500 C 413.000,113.000 413.190,113.137 414.500,111.500" stroke-width="15.454" stroke="rgb(33,33,33)" fill="none" stroke-linecap="round"></path><path d="M 414.500,111.500 C 415.190,110.637 414.887,110.419 415.500,109.500" stroke-width="15.527" stroke="rgb(33,33,33)" fill="none" stroke-linecap="round"></path><path d="M 415.500,109.500 C 415.887,108.919 416.113,109.081 416.500,108.500" stroke-width="15.836" stroke="rgb(33,33,33)" fill="none" stroke-linecap="round"></path><path d="M 416.500,108.500 C 417.113,107.581 416.809,107.191 417.500,106.500" stroke-width="15.834" stroke="rgb(33,33,33)" fill="none" stroke-linecap="round"></path><path d="M 417.500,106.500 C 417.809,106.191 418.333,106.833 418.500,106.500" stroke-width="16.225" stroke="rgb(33,33,33)" fill="none" stroke-linecap="round"></path><path d="M 418.500,106.500 C 418.833,105.833 418.167,105.167 418.500,104.500" stroke-width="16.220" stroke="rgb(33,33,33)" fill="none" stroke-linecap="round"></path><path d="M 418.500,104.500 C 418.667,104.167 419.086,104.707 419.500,104.500" stroke-width="16.547" stroke="rgb(33,33,33)" fill="none" stroke-linecap="round"></path><path d="M 419.500,104.500 C 420.086,104.207 420.113,104.081 420.500,103.500" stroke-width="16.675" stroke="rgb(33,33,33)" fill="none" stroke-linecap="round"></path><path d="M 420.500,103.500 C 421.113,102.581 420.887,102.419 421.500,101.500" stroke-width="16.498" stroke="rgb(33,33,33)" fill="none" stroke-linecap="round"></path><path d="M 421.500,101.500 C 421.887,100.919 422.207,101.086 422.500,100.500" stroke-width="16.635" stroke="rgb(33,33,33)" fill="none" stroke-linecap="round"></path><path d="M 422.500,100.500 C 422.707,100.086 422.500,100.000 422.500,99.500" stroke-width="16.892" stroke="rgb(33,33,33)" fill="none" stroke-linecap="round"></path><path d="M 422.500,99.500 C 422.500,99.000 422.293,98.914 422.500,98.500" stroke-width="17.102" stroke="rgb(33,33,33)" fill="none" stroke-linecap="round"></path><path d="M 422.500,98.500 C 422.793,97.914 422.914,97.793 423.500,97.500" stroke-width="17.383" stroke="rgb(33,33,33)" fill="none" stroke-linecap="round"></path><path d="M 423.500,97.500 C 423.914,97.293 424.250,97.750 424.500,97.500" stroke-width="17.694" stroke="rgb(33,33,33)" fill="none" stroke-linecap="round"></path><path d="M 424.500,97.500 C 424.750,97.250 424.500,97.000 424.500,96.500" stroke-width="17.833" stroke="rgb(33,33,33)" fill="none" stroke-linecap="round"></path><path d="M 424.500,96.500 C 424.500,96.000 424.500,96.000 424.500,95.500" stroke-width="18.120" stroke="rgb(33,33,33)" fill="none" stroke-linecap="round"></path><path d="M 424.500,95.500 C 424.500,95.000 424.250,94.750 424.500,94.500" stroke-width="18.096" stroke="rgb(33,33,33)" fill="none" stroke-linecap="round"></path><path d="M 424.500,94.500 C 424.750,94.250 425.250,94.750 425.500,94.500" stroke-width="18.077" stroke="rgb(33,33,33)" fill="none" stroke-linecap="round"></path><path d="M 425.500,94.500 C 425.750,94.250 425.500,94.000 425.500,93.500" stroke-width="18.265" stroke="rgb(33,33,33)" fill="none" stroke-linecap="round"></path><path d="M 425.500,93.500 C 425.500,93.000 425.500,93.000 425.500,92.500" stroke-width="18.418" stroke="rgb(33,33,33)" fill="none" stroke-linecap="round"></path><path d="M 425.500,92.500 C 425.500,92.000 425.500,92.000 425.500,91.500" stroke-width="18.333" stroke="rgb(33,33,33)" fill="none" stroke-linecap="round"></path><path d="M 425.500,91.500 C 425.500,91.000 425.500,91.000 425.500,90.500" stroke-width="18.266" stroke="rgb(33,33,33)" fill="none" stroke-linecap="round"></path><path d="M 425.500,90.500 C 425.500,90.000 425.500,90.000 425.500,89.500" stroke-width="18.212" stroke="rgb(33,33,33)" fill="none" stroke-linecap="round"></path><path d="M 425.500,89.500 C 425.500,89.000 425.500,89.000 425.500,88.500" stroke-width="18.169" stroke="rgb(33,33,33)" fill="none" stroke-linecap="round"></path><path d="M 425.500,88.500 C 425.500,88.000 425.500,88.000 425.500,87.500" stroke-width="18.135" stroke="rgb(33,33,33)" fill="none" stroke-linecap="round"></path><path d="M 425.500,87.500 C 425.500,86.500 425.500,86.500 425.500,85.500" stroke-width="18.108" stroke="rgb(33,33,33)" fill="none" stroke-linecap="round"></path><path d="M 425.500,85.500 C 425.500,85.000 425.500,85.000 425.500,84.500" stroke-width="18.131" stroke="rgb(33,33,33)" fill="none" stroke-linecap="round"></path><path d="M 425.500,84.500 C 425.500,84.000 425.500,84.000 425.500,83.500" stroke-width="18.047" stroke="rgb(33,33,33)" fill="none" stroke-linecap="round"></path><path d="M 425.500,83.500 C 425.500,83.000 425.750,82.750 425.500,82.500" stroke-width="18.038" stroke="rgb(33,33,33)" fill="none" stroke-linecap="round"></path><path d="M 425.500,82.500 C 425.250,82.250 425.000,82.500 424.500,82.500" stroke-width="18.417" stroke="rgb(33,33,33)" fill="none" stroke-linecap="round"></path><path d="M 424.500,82.500 C 424.000,82.500 424.000,82.500 423.500,82.500" stroke-width="18.332" stroke="rgb(33,33,33)" fill="none" stroke-linecap="round"></path><path d="M 423.500,82.500 C 423.000,82.500 423.000,82.500 422.500,82.500" stroke-width="18.473" stroke="rgb(33,33,33)" fill="none" stroke-linecap="round"></path><path d="M 422.500,82.500 C 422.000,82.500 421.914,82.293 421.500,82.500" stroke-width="18.377" stroke="rgb(33,33,33)" fill="none" stroke-linecap="round"></path><path d="M 421.500,82.500 C 420.914,82.793 421.086,83.207 420.500,83.500" stroke-width="18.130" stroke="rgb(33,33,33)" fill="none" stroke-linecap="round"></path><path d="M 420.500,83.500 C 420.086,83.707 419.914,83.293 419.500,83.500" stroke-width="18.104" stroke="rgb(33,33,33)" fill="none" stroke-linecap="round"></path><path d="M 419.500,83.500 C 418.914,83.793 419.000,84.000 418.500,84.500" stroke-width="17.917" stroke="rgb(33,33,33)" fill="none" stroke-linecap="round"></path><path d="M 418.500,84.500 C 418.000,85.000 417.793,84.914 417.500,85.500" stroke-width="17.771" stroke="rgb(33,33,33)" fill="none" stroke-linecap="round"></path><path d="M 417.500,85.500 C 417.293,85.914 417.707,86.086 417.500,86.500" stroke-width="17.860" stroke="rgb(33,33,33)" fill="none" stroke-linecap="round"></path><path d="M 417.500,86.500 C 417.207,87.086 417.000,87.000 416.500,87.500" stroke-width="18.021" stroke="rgb(33,33,33)" fill="none" stroke-linecap="round"></path><path d="M 416.500,87.500 C 416.000,88.000 415.793,87.914 415.500,88.500" stroke-width="18.135" stroke="rgb(33,33,33)" fill="none" stroke-linecap="round"></path><path d="M 415.500,88.500 C 415.293,88.914 415.500,89.000 415.500,89.500" stroke-width="18.369" stroke="rgb(33,33,33)" fill="none" stroke-linecap="round"></path><path d="M 415.500,89.500 C 415.500,90.000 415.750,90.250 415.500,90.500" stroke-width="18.294" stroke="rgb(33,33,33)" fill="none" stroke-linecap="round"></path><path d="M 415.500,90.500 C 415.250,90.750 414.750,90.250 414.500,90.500" stroke-width="18.234" stroke="rgb(33,33,33)" fill="none" stroke-linecap="round"></path><path d="M 414.500,90.500 C 414.250,90.750 414.500,91.000 414.500,91.500" stroke-width="18.187" stroke="rgb(33,33,33)" fill="none" stroke-linecap="round"></path><path d="M 414.500,91.500 C 414.500,92.500 414.833,92.833 414.500,93.500" stroke-width="18.149" stroke="rgb(33,33,33)" fill="none" stroke-linecap="round"></path><path d="M 414.500,93.500 C 414.333,93.833 413.914,93.293 413.500,93.500" stroke-width="18.119" stroke="rgb(33,33,33)" fill="none" stroke-linecap="round"></path><path d="M 413.500,93.500 C 412.914,93.793 412.707,93.879 412.500,94.500" stroke-width="17.929" stroke="rgb(33,33,33)" fill="none" stroke-linecap="round"></path><path d="M 412.500,94.500 C 412.207,95.379 412.736,95.556 412.500,96.500" stroke-width="17.555" stroke="rgb(33,33,33)" fill="none" stroke-linecap="round"></path><path d="M 412.500,96.500 C 412.236,97.556 412.000,97.500 411.500,98.500" stroke-width="17.179" stroke="rgb(33,33,33)" fill="none" stroke-linecap="round"></path><path d="M 411.500,98.500 C 411.000,99.500 410.845,99.464 410.500,100.500" stroke-width="16.891" stroke="rgb(33,33,33)" fill="none" stroke-linecap="round"></path><path d="M 410.500,100.500 C 410.345,100.964 410.707,101.086 410.500,101.500" stroke-width="17.101" stroke="rgb(33,33,33)" fill="none" stroke-linecap="round"></path><path d="M 410.500,101.500 C 410.207,102.086 409.887,101.919 409.500,102.500" stroke-width="17.123" stroke="rgb(33,33,33)" fill="none" stroke-linecap="round"></path><path d="M 409.500,102.500 C 408.887,103.419 408.845,103.464 408.500,104.500" stroke-width="16.847" stroke="rgb(33,33,33)" fill="none" stroke-linecap="round"></path><path d="M 408.500,104.500 C 408.345,104.964 408.500,105.000 408.500,105.500" stroke-width="17.105" stroke="rgb(33,33,33)" fill="none" stroke-linecap="round"></path><path d="M 408.500,105.500 C 408.500,106.000 408.500,106.000 408.500,106.500" stroke-width="17.225" stroke="rgb(33,33,33)" fill="none" stroke-linecap="round"></path><path d="M 408.500,106.500 C 408.500,107.500 408.793,107.621 408.500,108.500" stroke-width="17.009" stroke="rgb(33,33,33)" fill="none" stroke-linecap="round"></path><path d="M 408.500,108.500 C 408.293,109.121 407.793,108.914 407.500,109.500" stroke-width="17.049" stroke="rgb(33,33,33)" fill="none" stroke-linecap="round"></path><path d="M 407.500,109.500 C 407.293,109.914 407.500,110.000 407.500,110.500" stroke-width="17.272" stroke="rgb(33,33,33)" fill="none" stroke-linecap="round"></path><path d="M 407.500,110.500 C 407.500,111.000 407.707,111.086 407.500,111.500" stroke-width="17.359" stroke="rgb(33,33,33)" fill="none" stroke-linecap="round"></path><path d="M 407.500,111.500 C 407.207,112.086 406.707,111.879 406.500,112.500" stroke-width="17.434" stroke="rgb(33,33,33)" fill="none" stroke-linecap="round"></path><path d="M 406.500,112.500 C 406.207,113.379 406.500,113.500 406.500,114.500" stroke-width="16.933" stroke="rgb(33,33,33)" fill="none" stroke-linecap="round"></path><path d="M 406.500,114.500 C 406.500,115.000 406.500,115.000 406.500,115.500" stroke-width="17.320" stroke="rgb(33,33,33)" fill="none" stroke-linecap="round"></path><path d="M 406.500,115.500 C 406.500,116.500 406.500,116.500 406.500,117.500" stroke-width="17.229" stroke="rgb(33,33,33)" fill="none" stroke-linecap="round"></path><path d="M 406.500,117.500 C 406.500,118.000 406.500,118.000 406.500,118.500" stroke-width="17.254" stroke="rgb(33,33,33)" fill="none" stroke-linecap="round"></path><path d="M 406.500,118.500 C 406.500,119.000 406.500,119.000 406.500,119.500" stroke-width="17.398" stroke="rgb(33,33,33)" fill="none" stroke-linecap="round"></path><path d="M 406.500,119.500 C 406.500,120.000 406.500,120.000 406.500,120.500" stroke-width="17.516" stroke="rgb(33,33,33)" fill="none" stroke-linecap="round"></path><path d="M 406.500,120.500 C 406.500,121.000 406.500,121.000 406.500,121.500" stroke-width="17.610" stroke="rgb(33,33,33)" fill="none" stroke-linecap="round"></path><path d="M 406.500,121.500 C 406.500,122.000 406.500,122.000 406.500,122.500" stroke-width="17.687" stroke="rgb(33,33,33)" fill="none" stroke-linecap="round"></path><path d="M 406.500,122.500 C 406.500,123.000 406.500,123.000 406.500,123.500" stroke-width="17.749" stroke="rgb(33,33,33)" fill="none" stroke-linecap="round"></path><path d="M 406.500,123.500 C 406.500,124.000 406.500,124.000 406.500,124.500" stroke-width="17.798" stroke="rgb(33,33,33)" fill="none" stroke-linecap="round"></path><path d="M 406.500,124.500 C 406.500,125.500 406.500,125.500 406.500,126.500" stroke-width="17.454" stroke="rgb(33,33,33)" fill="none" stroke-linecap="round"></path><path d="M 406.500,126.500 C 406.500,127.000 406.500,127.000 406.500,127.500" stroke-width="17.753" stroke="rgb(33,33,33)" fill="none" stroke-linecap="round"></path><path d="M 406.500,127.500 C 406.500,128.000 406.500,128.000 406.500,128.500" stroke-width="17.802" stroke="rgb(33,33,33)" fill="none" stroke-linecap="round"></path><path d="M 406.500,128.500 C 406.500,129.000 406.500,129.000 406.500,129.500" stroke-width="17.841" stroke="rgb(33,33,33)" fill="none" stroke-linecap="round"></path><path d="M 406.500,129.500 C 406.500,130.000 406.500,130.000 406.500,130.500" stroke-width="18.139" stroke="rgb(33,33,33)" fill="none" stroke-linecap="round"></path><path d="M 406.500,130.500 C 406.500,131.000 406.250,131.250 406.500,131.500" stroke-width="18.111" stroke="rgb(33,33,33)" fill="none" stroke-linecap="round"></path><path d="M 406.500,131.500 C 406.750,131.750 407.250,131.250 407.500,131.500" stroke-width="18.362" stroke="rgb(33,33,33)" fill="none" stroke-linecap="round"></path><path d="M 407.500,131.500 C 407.750,131.750 407.293,132.086 407.500,132.500" stroke-width="18.289" stroke="rgb(33,33,33)" fill="none" stroke-linecap="round"></path><path d="M 407.500,132.500 C 407.793,133.086 408.000,133.000 408.500,133.500" stroke-width="18.351" stroke="rgb(33,33,33)" fill="none" stroke-linecap="round"></path><path d="M 408.500,133.500 C 409.000,134.000 408.879,134.293 409.500,134.500" stroke-width="18.174" stroke="rgb(33,33,33)" fill="none" stroke-linecap="round"></path><path d="M 409.500,134.500 C 410.379,134.793 410.556,134.264 411.500,134.500" stroke-width="17.632" stroke="rgb(33,33,33)" fill="none" stroke-linecap="round"></path><path d="M 411.500,134.500 C 412.556,134.764 412.500,135.000 413.500,135.500" stroke-width="17.465" stroke="rgb(33,33,33)" fill="none" stroke-linecap="round"></path><path d="M 413.500,135.500 C 414.500,136.000 414.464,136.086 415.500,136.500" stroke-width="16.639" stroke="rgb(33,33,33)" fill="none" stroke-linecap="round"></path><path d="M 415.500,136.500 C 416.964,137.086 417.036,136.914 418.500,137.500" stroke-width="16.166" stroke="rgb(33,33,33)" fill="none" stroke-linecap="round"></path><path d="M 418.500,137.500 C 419.536,137.914 419.500,138.000 420.500,138.500" stroke-width="16.097" stroke="rgb(33,33,33)" fill="none" stroke-linecap="round"></path><path d="M 420.500,138.500 C 421.500,139.000 421.444,139.236 422.500,139.500" stroke-width="16.042" stroke="rgb(33,33,33)" fill="none" stroke-linecap="round"></path><path d="M 422.500,139.500 C 423.444,139.736 423.556,139.264 424.500,139.500" stroke-width="16.073" stroke="rgb(33,33,33)" fill="none" stroke-linecap="round"></path><path d="M 424.500,139.500 C 425.556,139.764 425.500,140.000 426.500,140.500" stroke-width="16.023" stroke="rgb(33,33,33)" fill="none" stroke-linecap="round"></path><path d="M 426.500,140.500 C 427.500,141.000 427.500,141.000 428.500,141.500" stroke-width="15.983" stroke="rgb(33,33,33)" fill="none" stroke-linecap="round"></path><path d="M 428.500,141.500 C 429.500,142.000 429.444,142.236 430.500,142.500" stroke-width="15.952" stroke="rgb(33,33,33)" fill="none" stroke-linecap="round"></path><path d="M 430.500,142.500 C 431.444,142.736 431.500,142.500 432.500,142.500" stroke-width="16.001" stroke="rgb(33,33,33)" fill="none" stroke-linecap="round"></path><path d="M 432.500,142.500 C 433.000,142.500 433.086,142.293 433.500,142.500" stroke-width="16.364" stroke="rgb(33,33,33)" fill="none" stroke-linecap="round"></path><path d="M 433.500,142.500 C 434.086,142.793 433.879,143.293 434.500,143.500" stroke-width="16.526" stroke="rgb(33,33,33)" fill="none" stroke-linecap="round"></path><path d="M 434.500,143.500 C 435.379,143.793 435.621,143.207 436.500,143.500" stroke-width="16.460" stroke="rgb(33,33,33)" fill="none" stroke-linecap="round"></path><path d="M 436.500,143.500 C 437.121,143.707 436.914,144.207 437.500,144.500" stroke-width="16.604" stroke="rgb(33,33,33)" fill="none" stroke-linecap="round"></path><path d="M 437.500,144.500 C 437.914,144.707 438.000,144.500 438.500,144.500" stroke-width="16.866" stroke="rgb(33,33,33)" fill="none" stroke-linecap="round"></path><path d="M 438.500,144.500 C 439.500,144.500 439.500,144.500 440.500,144.500" stroke-width="16.728" stroke="rgb(33,33,33)" fill="none" stroke-linecap="round"></path><path d="M 440.500,144.500 C 441.000,144.500 441.000,144.500 441.500,144.500" stroke-width="16.968" stroke="rgb(33,33,33)" fill="none" stroke-linecap="round"></path><path d="M 441.500,144.500 C 442.000,144.500 442.000,144.500 442.500,144.500" stroke-width="17.165" stroke="rgb(33,33,33)" fill="none" stroke-linecap="round"></path><path d="M 442.500,144.500 C 443.500,144.500 443.500,144.500 444.500,144.500" stroke-width="16.963" stroke="rgb(33,33,33)" fill="none" stroke-linecap="round"></path><path d="M 444.500,144.500 C 445.000,144.500 445.000,144.500 445.500,144.500" stroke-width="17.344" stroke="rgb(33,33,33)" fill="none" stroke-linecap="round"></path><path d="M 445.500,144.500 C 446.000,144.500 446.000,144.500 446.500,144.500" stroke-width="17.662" stroke="rgb(33,33,33)" fill="none" stroke-linecap="round"></path><path d="M 446.500,144.500 C 447.000,144.500 447.000,144.500 447.500,144.500" stroke-width="17.807" stroke="rgb(33,33,33)" fill="none" stroke-linecap="round"></path><path d="M 447.500,144.500 C 448.000,144.500 448.000,144.500 448.500,144.500" stroke-width="18.044" stroke="rgb(33,33,33)" fill="none" stroke-linecap="round"></path><path d="M 448.500,144.500 C 449.500,144.500 449.500,144.500 450.500,144.500" stroke-width="17.390" stroke="rgb(33,33,33)" fill="none" stroke-linecap="round"></path><path d="M 450.500,144.500 C 451.500,144.500 451.556,144.736 452.500,144.500" stroke-width="17.138" stroke="rgb(33,33,33)" fill="none" stroke-linecap="round"></path><path d="M 452.500,144.500 C 453.556,144.236 453.432,143.714 454.500,143.500" stroke-width="16.859" stroke="rgb(33,33,33)" fill="none" stroke-linecap="round"></path><path d="M 454.500,143.500 C 455.932,143.214 456.018,143.685 457.500,143.500" stroke-width="16.384" stroke="rgb(33,33,33)" fill="none" stroke-linecap="round"></path><path d="M 457.500,143.500 C 460.018,143.185 460.012,143.053 462.500,142.500" stroke-width="15.385" stroke="rgb(33,33,33)" fill="none" stroke-linecap="round"></path><path d="M 462.500,142.500 C 464.512,142.053 464.488,141.947 466.500,141.500" stroke-width="14.933" stroke="rgb(33,33,33)" fill="none" stroke-linecap="round"></path><path d="M 466.500,141.500 C 468.988,140.947 469.000,141.000 471.500,140.500" stroke-width="14.338" stroke="rgb(33,33,33)" fill="none" stroke-linecap="round"></path><path d="M 471.500,140.500 C 474.000,140.000 474.000,140.000 476.500,139.500" stroke-width="13.895" stroke="rgb(33,33,33)" fill="none" stroke-linecap="round"></path><path d="M 476.500,139.500 C 479.000,139.000 479.012,139.053 481.500,138.500" stroke-width="13.560" stroke="rgb(33,33,33)" fill="none" stroke-linecap="round"></path><path d="M 481.500,138.500 C 483.512,138.053 483.500,138.000 485.500,137.500" stroke-width="13.520" stroke="rgb(33,33,33)" fill="none" stroke-linecap="round"></path><path d="M 485.500,137.500 C 489.500,136.500 489.462,136.308 493.500,135.500" stroke-width="12.622" stroke="rgb(33,33,33)" fill="none" stroke-linecap="round"></path><path d="M 493.500,135.500 C 496.962,134.808 497.081,135.260 500.500,134.500" stroke-width="12.883" stroke="rgb(33,33,33)" fill="none" stroke-linecap="round"></path><path d="M 500.500,134.500 C 501.581,134.260 501.444,133.764 502.500,133.500" stroke-width="13.380" stroke="rgb(33,33,33)" fill="none" stroke-linecap="round"></path><path d="M 502.500,133.500 C 503.444,133.264 503.500,133.500 504.500,133.500" stroke-width="13.863" stroke="rgb(33,33,33)" fill="none" stroke-linecap="round"></path><path d="M 504.500,133.500 C 505.000,133.500 505.000,133.500 505.500,133.500" stroke-width="14.531" stroke="rgb(33,33,33)" fill="none" stroke-linecap="round"></path></svg>