<svg xmlns="http://www.w3.org/2000/svg" xmlns:xlink="http://www.w3.org/1999/xlink" viewBox="0 0 800 500"><path d="M 244.500,192.500 C 246.594,203.594 245.984,203.746 248.687,214.687" stroke-width="18.854" stroke="rgb(33,33,33)" fill="none" stroke-linecap="round"></path><path d="M 248.687,214.687 C 251.101,224.456 251.505,224.373 254.734,233.920" stroke-width="15.443" stroke="rgb(33,33,33)" fill="none" stroke-linecap="round"></path><path d="M 254.734,233.920 C 258.022,243.641 257.917,243.695 261.720,253.223" stroke-width="13.586" stroke="rgb(33,33,33)" fill="none" stroke-linecap="round"></path><path d="M 261.720,253.223 C 265.585,262.907 265.008,263.280 270.071,272.344" stroke-width="12.467" stroke="rgb(33,33,33)" fill="none" stroke-linecap="round"></path><path d="M 270.071,272.344 C 275.082,281.315 275.688,281.031 281.868,289.294" stroke-width="11.410" stroke="rgb(33,33,33)" fill="none" stroke-linecap="round"></path><path d="M 281.868,289.294 C 287.152,296.359 287.580,296.033 293.000,303.000" stroke-width="11.081" stroke="rgb(33,33,33)" fill="none" stroke-linecap="round"></path><path d="M 293.000,303.000 C 299.283,311.076 299.482,310.954 305.273,319.379" stroke-width="10.642" stroke="rgb(33,33,33)" fill="none" stroke-linecap="round"></path><path d="M 305.273,319.379 C 310.053,326.333 310.362,326.246 314.143,333.757" stroke-width="10.474" stroke="rgb(33,33,33)" fill="none" stroke-linecap="round"></path><path d="M 314.143,333.757 C 317.276,339.980 318.149,340.106 319.102,346.847" stroke-width="10.594" stroke="rgb(33,33,33)" fill="none" stroke-linecap="round"></path><path d="M 319.102,346.847 C 319.957,352.899 319.344,353.342 317.759,359.343" stroke-width="10.789" stroke="rgb(33,33,33)" fill="none" stroke-linecap="round"></path><path d="M 317.759,359.343 C 316.280,364.943 316.420,365.455 312.975,370.049" stroke-width="10.957" stroke="rgb(33,33,33)" fill="none" stroke-linecap="round"></path><path d="M 312.975,370.049 C 308.846,375.555 308.352,375.604 302.611,379.542" stroke-width="10.982" stroke="rgb(33,33,33)" fill="none" stroke-linecap="round"></path><path d="M 302.611,379.542 C 296.583,383.677 296.422,384.278 289.438,386.194" stroke-width="10.954" stroke="rgb(33,33,33)" fill="none" stroke-linecap="round"></path><path d="M 289.438,386.194 C 281.921,388.257 281.470,387.920 273.609,387.500" stroke-width="10.853" stroke="rgb(33,33,33)" fill="none" stroke-linecap="round"></path><path d="M 273.609,387.500 C 265.260,387.054 264.814,387.297 257.018,384.461" stroke-width="10.708" stroke="rgb(33,33,33)" fill="none" stroke-linecap="round"></path><path d="M 257.018,384.461 C 250.313,382.022 250.477,381.166 244.607,376.949" stroke-width="10.805" stroke="rgb(33,33,33)" fill="none" stroke-linecap="round"></path><path d="M 244.607,376.949 C 239.510,373.287 238.683,373.730 235.085,368.703" stroke-width="10.776" stroke="rgb(33,33,33)" fill="none" stroke-linecap="round"></path><path d="M 235.085,368.703 C 229.707,361.190 229.049,360.754 226.654,351.869" stroke-width="10.520" stroke="rgb(33,33,33)" fill="none" stroke-linecap="round"></path><path d="M 226.654,351.869 C 224.506,343.902 224.274,342.967 226.000,335.000" stroke-width="10.560" stroke="rgb(33,33,33)" fill="none" stroke-linecap="round"></path><path d="M 226.000,335.000 C 227.594,327.641 228.842,327.546 233.295,321.217" stroke-width="10.498" stroke="rgb(33,33,33)" fill="none" stroke-linecap="round"></path><path d="M 233.295,321.217 C 237.959,314.588 237.783,313.921 244.234,309.084" stroke-width="10.398" stroke="rgb(33,33,33)" fill="none" stroke-linecap="round"></path><path d="M 244.234,309.084 C 253.570,302.084 253.991,301.834 264.868,297.543" stroke-width="9.946" stroke="rgb(33,33,33)" fill="none" stroke-linecap="round"></path><path d="M 264.868,297.543 C 273.863,293.994 274.339,293.927 283.978,293.404" stroke-width="9.835" stroke="rgb(33,33,33)" fill="none" stroke-linecap="round"></path><path d="M 283.978,293.404 C 293.612,292.881 293.754,294.029 303.413,295.451" stroke-width="9.683" stroke="rgb(33,33,33)" fill="none" stroke-linecap="round"></path><path d="M 303.413,295.451 C 312.765,296.827 312.775,296.927 322.000,299.000" stroke-width="9.662" stroke="rgb(33,33,33)" fill="none" stroke-linecap="round"></path><path d="M 322.000,299.000 C 329.364,300.655 329.207,301.402 336.591,302.907" stroke-width="9.804" stroke="rgb(33,33,33)" fill="none" stroke-linecap="round"></path><path d="M 336.591,302.907 C 342.685,304.149 342.881,305.051 348.955,304.494" stroke-width="10.130" stroke="rgb(33,33,33)" fill="none" stroke-linecap="round"></path><path d="M 348.955,304.494 C 355.767,303.869 356.198,303.583 362.363,300.543" stroke-width="10.313" stroke="rgb(33,33,33)" fill="none" stroke-linecap="round"></path><path d="M 362.363,300.543 C 367.833,297.846 368.226,297.664 372.224,293.020" stroke-width="10.564" stroke="rgb(33,33,33)" fill="none" stroke-linecap="round"></path><path d="M 372.224,293.020 C 379.503,284.566 379.834,284.310 384.918,274.347" stroke-width="10.046" stroke="rgb(33,33,33)" fill="none" stroke-linecap="round"></path><path d="M 384.918,274.347 C 389.237,265.882 388.771,265.446 391.031,256.164" stroke-width="9.935" stroke="rgb(33,33,33)" fill="none" stroke-linecap="round"></path><path d="M 391.031,256.164 C 393.092,247.699 393.257,247.544 393.559,238.854" stroke-width="9.944" stroke="rgb(33,33,33)" fill="none" stroke-linecap="round"></path><path d="M 393.559,238.854 C 393.872,229.866 393.856,229.652 392.261,220.807" stroke-width="9.917" stroke="rgb(33,33,33)" fill="none" stroke-linecap="round"></path><path d="M 392.261,220.807 C 390.885,213.176 390.349,213.195 387.616,205.903" stroke-width="10.038" stroke="rgb(33,33,33)" fill="none" stroke-linecap="round"></path><path d="M 387.616,205.903 C 385.754,200.935 385.706,200.876 383.072,196.287" stroke-width="10.402" stroke="rgb(33,33,33)" fill="none" stroke-linecap="round"></path><path d="M 383.072,196.287 C 381.402,193.379 381.288,193.316 379.008,190.909" stroke-width="11.025" stroke="rgb(33,33,33)" fill="none" stroke-linecap="round"></path><path d="M 379.008,190.909 C 378.137,189.990 377.950,190.079 376.771,189.635" stroke-width="11.914" stroke="rgb(33,33,33)" fill="none" stroke-linecap="round"></path><path d="M 376.771,189.635 C 376.079,189.375 375.460,188.972 375.267,189.500" stroke-width="12.837" stroke="rgb(33,33,33)" fill="none" stroke-linecap="round"></path><path d="M 375.267,189.500 C 374.760,190.890 374.983,191.535 375.371,193.472" stroke-width="13.422" stroke="rgb(33,33,33)" fill="none" stroke-linecap="round"></path><path d="M 375.371,193.472 C 376.380,198.516 376.478,198.542 378.061,203.462" stroke-width="13.181" stroke="rgb(33,33,33)" fill="none" stroke-linecap="round"></path><path d="M 378.061,203.462 C 379.959,209.361 380.519,209.187 382.333,215.110" stroke-width="12.924" stroke="rgb(33,33,33)" fill="none" stroke-linecap="round"></path><path d="M 382.333,215.110 C 384.306,221.554 383.884,221.680 385.634,228.196" stroke-width="12.483" stroke="rgb(33,33,33)" fill="none" stroke-linecap="round"></path><path d="M 385.634,228.196 C 387.280,234.327 387.233,234.346 389.124,240.404" stroke-width="12.225" stroke="rgb(33,33,33)" fill="none" stroke-linecap="round"></path><path d="M 389.124,240.404 C 390.916,246.148 390.819,246.199 393.000,251.800" stroke-width="12.207" stroke="rgb(33,33,33)" fill="none" stroke-linecap="round"></path><path d="M 393.000,251.800 C 394.573,255.842 394.394,256.006 396.632,259.690" stroke-width="12.325" stroke="rgb(33,33,33)" fill="none" stroke-linecap="round"></path><path d="M 396.632,259.690 C 398.601,262.932 398.796,262.890 401.415,265.651" stroke-width="12.662" stroke="rgb(33,33,33)" fill="none" stroke-linecap="round"></path><path d="M 401.415,265.651 C 403.591,267.946 403.562,268.166 406.222,269.802" stroke-width="12.991" stroke="rgb(33,33,33)" fill="none" stroke-linecap="round"></path><path d="M 406.222,269.802 C 408.275,271.064 408.565,271.630 410.840,271.447" stroke-width="13.458" stroke="rgb(33,33,33)" fill="none" stroke-linecap="round"></path><path d="M 410.840,271.447 C 413.730,271.214 413.981,270.657 416.553,268.970" stroke-width="13.667" stroke="rgb(33,33,33)" fill="none" stroke-linecap="round"></path><path d="M 416.553,268.970 C 419.701,266.904 420.255,267.082 422.281,263.941" stroke-width="13.729" stroke="rgb(33,33,33)" fill="none" stroke-linecap="round"></path><path d="M 422.281,263.941 C 426.259,257.773 426.050,257.364 428.560,250.353" stroke-width="13.013" stroke="rgb(33,33,33)" fill="none" stroke-linecap="round"></path><path d="M 428.560,250.353 C 430.557,244.775 430.245,244.614 431.294,238.763" stroke-width="12.776" stroke="rgb(33,33,33)" fill="none" stroke-linecap="round"></path><path d="M 431.294,238.763 C 432.224,233.571 432.255,233.529 432.518,228.268" stroke-width="12.656" stroke="rgb(33,33,33)" fill="none" stroke-linecap="round"></path><path d="M 432.518,228.268 C 432.713,224.383 432.572,224.344 432.210,220.472" stroke-width="12.883" stroke="rgb(33,33,33)" fill="none" stroke-linecap="round"></path><path d="M 432.210,220.472 C 432.035,218.597 431.965,218.576 431.443,216.773" stroke-width="13.483" stroke="rgb(33,33,33)" fill="none" stroke-linecap="round"></path><path d="M 431.443,216.773 C 431.199,215.929 431.303,215.632 430.678,215.178" stroke-width="14.237" stroke="rgb(33,33,33)" fill="none" stroke-linecap="round"></path><path d="M 430.678,215.178 C 430.082,214.745 429.184,214.776 429.000,215.000" stroke-width="14.915" stroke="rgb(33,33,33)" fill="none" stroke-linecap="round"></path><path d="M 429.000,215.000 C 428.845,215.187 429.890,215.339 430.000,216.000" stroke-width="15.543" stroke="rgb(33,33,33)" fill="none" stroke-linecap="round"></path><path d="M 430.000,216.000 C 430.390,218.339 429.655,218.536 430.000,221.000" stroke-width="15.520" stroke="rgb(33,33,33)" fill="none" stroke-linecap="round"></path><path d="M 430.000,221.000 C 430.688,225.918 430.798,225.944 432.066,230.764" stroke-width="14.797" stroke="rgb(33,33,33)" fill="none" stroke-linecap="round"></path><path d="M 432.066,230.764 C 433.290,235.419 433.182,235.496 434.984,239.951" stroke-width="14.380" stroke="rgb(33,33,33)" fill="none" stroke-linecap="round"></path><path d="M 434.984,239.951 C 436.853,244.571 436.969,244.562 439.408,248.915" stroke-width="14.085" stroke="rgb(33,33,33)" fill="none" stroke-linecap="round"></path><path d="M 439.408,248.915 C 441.402,252.473 441.365,252.547 443.849,255.773" stroke-width="13.944" stroke="rgb(33,33,33)" fill="none" stroke-linecap="round"></path><path d="M 443.849,255.773 C 446.378,259.056 446.489,259.007 449.434,261.934" stroke-width="13.815" stroke="rgb(33,33,33)" fill="none" stroke-linecap="round"></path><path d="M 449.434,261.934 C 452.501,264.981 452.289,265.377 455.873,267.721" stroke-width="13.734" stroke="rgb(33,33,33)" fill="none" stroke-linecap="round"></path><path d="M 455.873,267.721 C 459.781,270.277 459.994,270.175 464.418,271.735" stroke-width="13.585" stroke="rgb(33,33,33)" fill="none" stroke-linecap="round"></path><path d="M 464.418,271.735 C 468.034,273.010 468.230,273.553 471.953,273.391" stroke-width="13.652" stroke="rgb(33,33,33)" fill="none" stroke-linecap="round"></path><path d="M 471.953,273.391 C 475.637,273.230 475.707,272.523 479.232,271.089" stroke-width="13.664" stroke="rgb(33,33,33)" fill="none" stroke-linecap="round"></path><path d="M 479.232,271.089 C 483.129,269.503 483.571,269.930 486.797,267.351" stroke-width="13.637" stroke="rgb(33,33,33)" fill="none" stroke-linecap="round"></path><path d="M 486.797,267.351 C 490.358,264.504 490.337,264.148 492.807,260.236" stroke-width="13.461" stroke="rgb(33,33,33)" fill="none" stroke-linecap="round"></path><path d="M 492.807,260.236 C 496.404,254.541 496.498,254.426 498.931,248.138" stroke-width="13.030" stroke="rgb(33,33,33)" fill="none" stroke-linecap="round"></path><path d="M 498.931,248.138 C 501.119,242.480 500.992,242.333 502.049,236.344" stroke-width="12.690" stroke="rgb(33,33,33)" fill="none" stroke-linecap="round"></path><path d="M 502.049,236.344 C 503.277,229.389 503.128,229.315 503.500,222.250" stroke-width="12.323" stroke="rgb(33,33,33)" fill="none" stroke-linecap="round"></path><path d="M 503.500,222.250 C 503.854,215.533 504.212,215.433 503.500,208.779" stroke-width="12.103" stroke="rgb(33,33,33)" fill="none" stroke-linecap="round"></path><path d="M 503.500,208.779 C 502.869,202.882 502.347,202.912 500.815,197.147" stroke-width="11.998" stroke="rgb(33,33,33)" fill="none" stroke-linecap="round"></path><path d="M 500.815,197.147 C 499.524,192.288 499.602,192.237 497.855,187.530" stroke-width="12.136" stroke="rgb(33,33,33)" fill="none" stroke-linecap="round"></path><path d="M 497.855,187.530 C 496.485,183.840 496.235,183.933 494.580,180.353" stroke-width="12.441" stroke="rgb(33,33,33)" fill="none" stroke-linecap="round"></path><path d="M 494.580,180.353 C 493.729,178.513 493.897,178.380 492.844,176.689" stroke-width="13.041" stroke="rgb(33,33,33)" fill="none" stroke-linecap="round"></path><path d="M 539.000,155.000 C 532.842,155.398 531.898,153.511 526.685,155.797" stroke-width="19.605" stroke="rgb(33,33,33)" fill="none" stroke-linecap="round"></path><path d="M 526.685,155.797 C 522.585,157.595 522.880,159.065 520.374,163.169" stroke-width="17.522" stroke="rgb(33,33,33)" fill="none" stroke-linecap="round"></path><path d="M 520.374,163.169 C 516.788,169.041 516.439,169.154 514.500,175.750" stroke-width="15.723" stroke="rgb(33,33,33)" fill="none" stroke-linecap="round"></path><path d="M 514.500,175.750 C 512.230,183.471 513.015,183.748 511.955,191.802" stroke-width="14.245" stroke="rgb(33,33,33)" fill="none" stroke-linecap="round"></path><path d="M 511.955,191.802 C 510.864,200.087 510.720,200.094 510.198,208.429" stroke-width="13.096" stroke="rgb(33,33,33)" fill="none" stroke-linecap="round"></path><path d="M 510.198,208.429 C 509.743,215.693 509.671,215.736 510.000,223.000" stroke-width="12.665" stroke="rgb(33,33,33)" fill="none" stroke-linecap="round"></path><path d="M 510.000,223.000 C 510.279,229.157 510.258,229.224 511.415,235.271" stroke-width="12.466" stroke="rgb(33,33,33)" fill="none" stroke-linecap="round"></path><path d="M 511.415,235.271 C 512.409,240.467 512.120,240.751 514.303,245.485" stroke-width="12.339" stroke="rgb(33,33,33)" fill="none" stroke-linecap="round"></path><path d="M 514.303,245.485 C 515.818,248.771 516.072,248.950 518.811,251.311" stroke-width="12.660" stroke="rgb(33,33,33)" fill="none" stroke-linecap="round"></path><path d="M 518.811,251.311 C 521.822,253.908 522.033,254.849 525.802,255.401" stroke-width="12.858" stroke="rgb(33,33,33)" fill="none" stroke-linecap="round"></path><path d="M 525.802,255.401 C 530.390,256.073 531.047,255.598 535.525,253.760" stroke-width="12.791" stroke="rgb(33,33,33)" fill="none" stroke-linecap="round"></path><path d="M 535.525,253.760 C 541.585,251.272 542.395,251.484 546.879,246.748" stroke-width="12.473" stroke="rgb(33,33,33)" fill="none" stroke-linecap="round"></path><path d="M 546.879,246.748 C 553.520,239.733 553.121,238.936 557.774,230.257" stroke-width="11.696" stroke="rgb(33,33,33)" fill="none" stroke-linecap="round"></path><path d="M 557.774,230.257 C 563.268,220.008 563.313,219.866 567.173,208.892" stroke-width="10.979" stroke="rgb(33,33,33)" fill="none" stroke-linecap="round"></path><path d="M 567.173,208.892 C 570.701,198.861 571.020,198.732 572.551,188.247" stroke-width="10.511" stroke="rgb(33,33,33)" fill="none" stroke-linecap="round"></path><path d="M 572.551,188.247 C 573.933,178.786 574.037,178.456 573.000,169.000" stroke-width="10.218" stroke="rgb(33,33,33)" fill="none" stroke-linecap="round"></path><path d="M 573.000,169.000 C 572.225,161.937 571.574,161.849 568.927,155.209" stroke-width="10.304" stroke="rgb(33,33,33)" fill="none" stroke-linecap="round"></path><path d="M 568.927,155.209 C 566.989,150.347 567.158,149.945 563.831,145.996" stroke-width="10.719" stroke="rgb(33,33,33)" fill="none" stroke-linecap="round"></path><path d="M 563.831,145.996 C 560.544,142.095 560.176,142.035 555.700,139.509" stroke-width="10.997" stroke="rgb(33,33,33)" fill="none" stroke-linecap="round"></path><path d="M 555.700,139.509 C 550.906,136.803 550.528,135.832 545.292,135.533" stroke-width="11.224" stroke="rgb(33,33,33)" fill="none" stroke-linecap="round"></path><path d="M 545.292,135.533 C 541.057,135.292 540.738,136.427 536.759,138.429" stroke-width="11.576" stroke="rgb(33,33,33)" fill="none" stroke-linecap="round"></path><path d="M 536.759,138.429 C 533.392,140.123 533.009,140.090 530.601,142.924" stroke-width="11.948" stroke="rgb(33,33,33)" fill="none" stroke-linecap="round"></path><path d="M 530.601,142.924 C 527.876,146.132 527.759,146.459 526.493,150.514" stroke-width="12.218" stroke="rgb(33,33,33)" fill="none" stroke-linecap="round"></path><path d="M 526.493,150.514 C 524.975,155.376 524.290,155.837 525.034,160.759" stroke-width="12.234" stroke="rgb(33,33,33)" fill="none" stroke-linecap="round"></path><path d="M 525.034,160.759 C 525.859,166.222 526.563,166.501 529.631,171.284" stroke-width="12.204" stroke="rgb(33,33,33)" fill="none" stroke-linecap="round"></path><path d="M 529.631,171.284 C 533.315,177.027 533.699,176.923 538.539,181.811" stroke-width="11.984" stroke="rgb(33,33,33)" fill="none" stroke-linecap="round"></path><path d="M 538.539,181.811 C 544.799,188.131 544.990,187.989 551.831,193.700" stroke-width="11.411" stroke="rgb(33,33,33)" fill="none" stroke-linecap="round"></path><path d="M 551.831,193.700 C 558.505,199.272 558.564,199.222 565.569,204.376" stroke-width="11.099" stroke="rgb(33,33,33)" fill="none" stroke-linecap="round"></path><path d="M 565.569,204.376 C 573.357,210.105 573.746,209.594 581.417,215.466" stroke-width="10.731" stroke="rgb(33,33,33)" fill="none" stroke-linecap="round"></path><path d="M 581.417,215.466 C 587.856,220.395 587.678,220.637 593.790,225.979" stroke-width="10.587" stroke="rgb(33,33,33)" fill="none" stroke-linecap="round"></path><path d="M 593.790,225.979 C 600.435,231.786 600.725,231.513 606.932,237.764" stroke-width="10.450" stroke="rgb(33,33,33)" fill="none" stroke-linecap="round"></path><path d="M 606.932,237.764 C 612.534,243.406 612.787,243.320 617.409,249.766" stroke-width="10.507" stroke="rgb(33,33,33)" fill="none" stroke-linecap="round"></path><path d="M 617.409,249.766 C 622.365,256.677 623.049,256.621 626.088,264.478" stroke-width="10.423" stroke="rgb(33,33,33)" fill="none" stroke-linecap="round"></path><path d="M 626.088,264.478 C 629.080,272.214 628.469,272.633 629.470,280.952" stroke-width="10.308" stroke="rgb(33,33,33)" fill="none" stroke-linecap="round"></path><path d="M 629.470,280.952 C 630.425,288.894 630.794,289.074 630.000,297.000" stroke-width="10.329" stroke="rgb(33,33,33)" fill="none" stroke-linecap="round"></path><path d="M 630.000,297.000 C 629.109,305.896 628.556,305.945 626.101,314.596" stroke-width="10.225" stroke="rgb(33,33,33)" fill="none" stroke-linecap="round"></path><path d="M 626.101,314.596 C 624.129,321.543 624.407,321.800 621.146,328.195" stroke-width="10.304" stroke="rgb(33,33,33)" fill="none" stroke-linecap="round"></path><path d="M 621.146,328.195 C 618.110,334.148 617.811,334.161 613.506,339.293" stroke-width="10.537" stroke="rgb(33,33,33)" fill="none" stroke-linecap="round"></path><path d="M 613.506,339.293 C 610.064,343.395 610.122,343.832 605.652,346.663" stroke-width="10.817" stroke="rgb(33,33,33)" fill="none" stroke-linecap="round"></path><path d="M 605.652,346.663 C 601.091,349.551 600.743,349.535 595.443,350.731" stroke-width="11.035" stroke="rgb(33,33,33)" fill="none" stroke-linecap="round"></path><path d="M 595.443,350.731 C 589.590,352.052 589.300,352.219 583.346,351.697" stroke-width="11.276" stroke="rgb(33,33,33)" fill="none" stroke-linecap="round"></path><path d="M 583.346,351.697 C 577.773,351.208 577.751,350.543 572.389,348.709" stroke-width="11.325" stroke="rgb(33,33,33)" fill="none" stroke-linecap="round"></path><path d="M 572.389,348.709 C 566.890,346.828 566.732,347.001 561.623,344.267" stroke-width="11.457" stroke="rgb(33,33,33)" fill="none" stroke-linecap="round"></path><path d="M 561.623,344.267 C 556.396,341.469 556.511,341.171 551.717,337.645" stroke-width="11.487" stroke="rgb(33,33,33)" fill="none" stroke-linecap="round"></path><path d="M 551.717,337.645 C 547.350,334.433 546.983,334.701 543.300,330.791" stroke-width="11.651" stroke="rgb(33,33,33)" fill="none" stroke-linecap="round"></path><path d="M 543.300,330.791 C 540.191,327.489 540.016,327.327 538.133,323.221" stroke-width="11.924" stroke="rgb(33,33,33)" fill="none" stroke-linecap="round"></path><path d="M 538.133,323.221 C 536.247,319.108 535.499,318.704 535.762,314.353" stroke-width="12.150" stroke="rgb(33,33,33)" fill="none" stroke-linecap="round"></path><path d="M 535.762,314.353 C 536.030,309.915 536.589,309.426 539.195,305.643" stroke-width="12.270" stroke="rgb(33,33,33)" fill="none" stroke-linecap="round"></path><path d="M 539.195,305.643 C 542.811,300.394 543.205,300.385 548.207,296.288" stroke-width="12.221" stroke="rgb(33,33,33)" fill="none" stroke-linecap="round"></path><path d="M 548.207,296.288 C 556.005,289.901 556.103,289.801 564.796,284.675" stroke-width="11.278" stroke="rgb(33,33,33)" fill="none" stroke-linecap="round"></path><path d="M 564.796,284.675 C 572.957,279.862 573.436,280.701 581.916,276.410" stroke-width="11.026" stroke="rgb(33,33,33)" fill="none" stroke-linecap="round"></path><path d="M 581.916,276.410 C 589.815,272.414 589.757,272.296 597.553,268.101" stroke-width="10.535" stroke="rgb(33,33,33)" fill="none" stroke-linecap="round"></path><path d="M 597.553,268.101 C 605.390,263.884 605.581,264.194 613.182,259.585" stroke-width="10.400" stroke="rgb(33,33,33)" fill="none" stroke-linecap="round"></path><path d="M 613.182,259.585 C 620.584,255.097 620.726,255.200 627.559,249.908" stroke-width="10.323" stroke="rgb(33,33,33)" fill="none" stroke-linecap="round"></path><path d="M 627.559,249.908 C 633.436,245.356 633.505,245.307 638.603,239.897" stroke-width="10.355" stroke="rgb(33,33,33)" fill="none" stroke-linecap="round"></path><path d="M 638.603,239.897 C 644.803,233.318 644.905,233.286 650.156,225.929" stroke-width="10.356" stroke="rgb(33,33,33)" fill="none" stroke-linecap="round"></path><path d="M 650.156,225.929 C 655.021,219.112 655.150,219.061 658.836,211.550" stroke-width="10.185" stroke="rgb(33,33,33)" fill="none" stroke-linecap="round"></path><path d="M 658.836,211.550 C 662.549,203.985 662.769,203.900 664.953,195.777" stroke-width="10.115" stroke="rgb(33,33,33)" fill="none" stroke-linecap="round"></path><path d="M 664.953,195.777 C 667.186,187.475 666.662,187.281 667.670,178.701" stroke-width="10.100" stroke="rgb(33,33,33)" fill="none" stroke-linecap="round"></path><path d="M 667.670,178.701 C 668.854,168.620 668.959,168.592 669.337,158.455" stroke-width="9.840" stroke="rgb(33,33,33)" fill="none" stroke-linecap="round"></path><path d="M 669.337,158.455 C 669.624,150.741 669.278,150.723 669.000,143.000" stroke-width="9.984" stroke="rgb(33,33,33)" fill="none" stroke-linecap="round"></path><path d="M 669.000,143.000 C 668.767,136.519 668.903,136.501 668.315,130.046" stroke-width="10.296" stroke="rgb(33,33,33)" fill="none" stroke-linecap="round"></path><path d="M 668.315,130.046 C 667.719,123.495 667.803,123.454 666.632,116.988" stroke-width="10.449" stroke="rgb(33,33,33)" fill="none" stroke-linecap="round"></path><path d="M 666.632,116.988 C 665.813,112.462 665.987,112.295 664.335,108.063" stroke-width="10.894" stroke="rgb(33,33,33)" fill="none" stroke-linecap="round"></path><path d="M 664.335,108.063 C 663.482,105.877 663.298,105.771 661.622,104.152" stroke-width="11.594" stroke="rgb(33,33,33)" fill="none" stroke-linecap="round"></path><path d="M 661.622,104.152 C 660.070,102.653 659.979,102.082 657.879,101.827" stroke-width="12.280" stroke="rgb(33,33,33)" fill="none" stroke-linecap="round"></path><path d="M 657.879,101.827 C 653.025,101.238 652.431,100.969 647.714,102.464" stroke-width="12.355" stroke="rgb(33,33,33)" fill="none" stroke-linecap="round"></path><path d="M 647.714,102.464 C 642.771,104.031 642.651,104.603 638.559,107.951" stroke-width="12.372" stroke="rgb(33,33,33)" fill="none" stroke-linecap="round"></path><path d="M 638.559,107.951 C 633.854,111.800 633.629,111.888 630.120,116.859" stroke-width="12.178" stroke="rgb(33,33,33)" fill="none" stroke-linecap="round"></path><path d="M 630.120,116.859 C 625.763,123.032 625.571,123.207 622.827,130.239" stroke-width="11.845" stroke="rgb(33,33,33)" fill="none" stroke-linecap="round"></path><path d="M 622.827,130.239 C 620.463,136.299 620.484,136.565 619.904,143.042" stroke-width="11.759" stroke="rgb(33,33,33)" fill="none" stroke-linecap="round"></path><path d="M 619.904,143.042 C 619.358,149.143 619.598,149.324 620.576,155.394" stroke-width="11.689" stroke="rgb(33,33,33)" fill="none" stroke-linecap="round"></path><path d="M 620.576,155.394 C 621.491,161.070 621.476,161.238 623.691,166.535" stroke-width="11.760" stroke="rgb(33,33,33)" fill="none" stroke-linecap="round"></path><path d="M 623.691,166.535 C 625.946,171.928 626.330,171.831 629.516,176.774" stroke-width="11.740" stroke="rgb(33,33,33)" fill="none" stroke-linecap="round"></path><path d="M 629.516,176.774 C 632.569,181.510 632.558,181.570 636.169,185.892" stroke-width="11.824" stroke="rgb(33,33,33)" fill="none" stroke-linecap="round"></path><path d="M 636.169,185.892 C 639.975,190.448 639.912,190.604 644.351,194.530" stroke-width="11.841" stroke="rgb(33,33,33)" fill="none" stroke-linecap="round"></path><path d="M 644.351,194.530 C 648.906,198.558 649.062,198.460 654.157,201.801" stroke-width="11.830" stroke="rgb(33,33,33)" fill="none" stroke-linecap="round"></path><path d="M 654.157,201.801 C 658.930,204.930 658.970,204.944 664.087,207.470" stroke-width="11.885" stroke="rgb(33,33,33)" fill="none" stroke-linecap="round"></path><path d="M 664.087,207.470 C 668.804,209.798 668.824,209.934 673.824,211.509" stroke-width="12.003" stroke="rgb(33,33,33)" fill="none" stroke-linecap="round"></path><path d="M 673.824,211.509 C 677.399,212.636 677.524,212.817 681.237,212.874" stroke-width="12.360" stroke="rgb(33,33,33)" fill="none" stroke-linecap="round"></path><path d="M 681.237,212.874 C 684.722,212.927 684.999,213.033 688.220,211.729" stroke-width="12.663" stroke="rgb(33,33,33)" fill="none" stroke-linecap="round"></path><path d="M 688.220,211.729 C 692.637,209.941 692.665,209.600 696.513,206.691" stroke-width="12.651" stroke="rgb(33,33,33)" fill="none" stroke-linecap="round"></path><path d="M 696.513,206.691 C 699.944,204.097 700.004,204.023 702.777,200.723" stroke-width="12.844" stroke="rgb(33,33,33)" fill="none" stroke-linecap="round"></path><path d="M 702.777,200.723 C 707.329,195.305 707.170,195.125 711.163,189.256" stroke-width="12.267" stroke="rgb(33,33,33)" fill="none" stroke-linecap="round"></path><path d="M 711.163,189.256 C 714.469,184.397 714.515,184.397 717.374,179.268" stroke-width="12.263" stroke="rgb(33,33,33)" fill="none" stroke-linecap="round"></path><path d="M 717.374,179.268 C 719.535,175.392 719.687,175.398 721.202,171.246" stroke-width="12.407" stroke="rgb(33,33,33)" fill="none" stroke-linecap="round"></path><path d="M 721.202,171.246 C 722.473,167.763 722.304,167.651 722.945,163.997" stroke-width="12.709" stroke="rgb(33,33,33)" fill="none" stroke-linecap="round"></path><path d="M 722.945,163.997 C 723.203,162.528 723.222,162.442 723.000,161.000" stroke-width="13.411" stroke="rgb(33,33,33)" fill="none" stroke-linecap="round"></path><path d="M 723.000,161.000 C 722.876,160.195 722.738,160.153 722.252,159.504" stroke-width="14.184" stroke="rgb(33,33,33)" fill="none" stroke-linecap="round"></path><path d="M 722.252,159.504 C 721.993,159.159 721.928,159.104 721.511,159.011" stroke-width="14.971" stroke="rgb(33,33,33)" fill="none" stroke-linecap="round"></path><path d="M 721.511,159.011 C 720.802,158.852 720.756,159.003 720.000,159.000" stroke-width="15.565" stroke="rgb(33,33,33)" fill="none" stroke-linecap="round"></path><path d="M 720.000,159.000 C 719.500,158.998 719.500,159.000 719.000,159.000" stroke-width="16.158" stroke="rgb(33,33,33)" fill="none" stroke-linecap="round"></path><path d="M 719.000,159.000 C 719.000,159.000 719.000,159.000 719.000,159.000" stroke-width="16.838" stroke="rgb(33,33,33)" fill="none" stroke-linecap="round"></path><path d="M 719.000,159.000 C 719.250,159.516 719.350,159.492 719.500,160.031" stroke-width="17.226" stroke="rgb(33,33,33)" fill="none" stroke-linecap="round"></path><path d="M 719.500,160.031 C 719.600,160.391 719.500,160.414 719.500,160.797" stroke-width="17.608" stroke="rgb(33,33,33)" fill="none" stroke-linecap="round"></path><path d="M 719.500,160.797 C 719.500,161.023 719.500,161.023 719.500,161.250" stroke-width="17.994" stroke="rgb(33,33,33)" fill="none" stroke-linecap="round"></path><path d="M 719.500,161.250 C 719.500,161.375 719.412,161.463 719.500,161.500" stroke-width="18.352" stroke="rgb(33,33,33)" fill="none" stroke-linecap="round"></path></svg>