<svg xmlns="http://www.w3.org/2000/svg" xmlns:xlink="http://www.w3.org/1999/xlink" viewBox="0 0 375 500"><path d="M 295.000,245.000 C 288.500,248.000 288.309,247.635 282.000,251.000" stroke-width="16.595" stroke="rgb(33,33,33)" fill="none" stroke-linecap="round"></path><path d="M 282.000,251.000 C 273.309,255.635 273.603,256.182 265.000,261.000" stroke-width="14.233" stroke="rgb(33,33,33)" fill="none" stroke-linecap="round"></path><path d="M 265.000,261.000 C 248.603,270.182 248.845,270.696 232.000,279.000" stroke-width="11.814" stroke="rgb(33,33,33)" fill="none" stroke-linecap="round"></path><path d="M 232.000,279.000 C 213.345,288.196 213.153,287.860 194.000,296.000" stroke-width="9.349" stroke="rgb(33,33,33)" fill="none" stroke-linecap="round"></path><path d="M 194.000,296.000 C 173.153,304.860 173.053,304.633 152.000,313.000" stroke-width="8.212" stroke="rgb(33,33,33)" fill="none" stroke-linecap="round"></path><path d="M 152.000,313.000 C 134.053,320.133 134.117,320.325 116.000,327.000" stroke-width="7.708" stroke="rgb(33,33,33)" fill="none" stroke-linecap="round"></path><path d="M 116.000,327.000 C 105.617,330.825 105.645,331.161 95.000,334.000" stroke-width="7.854" stroke="rgb(33,33,33)" fill="none" stroke-linecap="round"></path><path d="M 95.000,334.000 C 90.645,335.161 90.010,335.401 86.000,335.000" stroke-width="8.547" stroke="rgb(33,33,33)" fill="none" stroke-linecap="round"></path><path d="M 86.000,335.000 C 85.010,334.901 84.564,333.992 85.000,333.000" stroke-width="9.544" stroke="rgb(33,33,33)" fill="none" stroke-linecap="round"></path><path d="M 85.000,333.000 C 90.064,321.492 89.470,320.468 97.000,310.000" stroke-width="9.194" stroke="rgb(33,33,33)" fill="none" stroke-linecap="round"></path><path d="M 97.000,310.000 C 109.970,291.968 111.020,292.568 126.000,276.000" stroke-width="8.034" stroke="rgb(33,33,33)" fill="none" stroke-linecap="round"></path><path d="M 126.000,276.000 C 144.020,256.068 144.237,256.244 163.000,237.000" stroke-width="7.108" stroke="rgb(33,33,33)" fill="none" stroke-linecap="round"></path><path d="M 163.000,237.000 C 183.237,216.244 183.500,216.500 204.000,196.000" stroke-width="6.750" stroke="rgb(33,33,33)" fill="none" stroke-linecap="round"></path><path d="M 204.000,196.000 C 222.500,177.500 222.088,177.065 241.000,159.000" stroke-width="6.750" stroke="rgb(33,33,33)" fill="none" stroke-linecap="round"></path><path d="M 241.000,159.000 C 255.588,145.065 255.953,145.447 271.000,132.000" stroke-width="6.750" stroke="rgb(33,33,33)" fill="none" stroke-linecap="round"></path><path d="M 271.000,132.000 C 279.453,124.447 279.615,124.623 288.000,117.000" stroke-width="6.750" stroke="rgb(33,33,33)" fill="none" stroke-linecap="round"></path><path d="M 288.000,117.000 C 290.615,114.623 291.248,114.190 293.000,112.000" stroke-width="7.151" stroke="rgb(33,33,33)" fill="none" stroke-linecap="round"></path><path d="M 293.000,112.000 C 293.248,111.690 292.398,111.702 292.000,112.000" stroke-width="8.172" stroke="rgb(33,33,33)" fill="none" stroke-linecap="round"></path><path d="M 292.000,112.000 C 276.398,123.702 276.282,123.728 261.000,136.000" stroke-width="7.735" stroke="rgb(33,33,33)" fill="none" stroke-linecap="round"></path><path d="M 261.000,136.000 C 243.282,150.228 243.497,150.496 226.000,165.000" stroke-width="7.074" stroke="rgb(33,33,33)" fill="none" stroke-linecap="round"></path><path d="M 226.000,165.000 C 205.497,181.996 205.339,181.809 185.000,199.000" stroke-width="6.750" stroke="rgb(33,33,33)" fill="none" stroke-linecap="round"></path><path d="M 185.000,199.000 C 163.339,217.309 162.133,216.115 142.000,236.000" stroke-width="6.750" stroke="rgb(33,33,33)" fill="none" stroke-linecap="round"></path><path d="M 142.000,236.000 C 121.633,256.115 123.062,257.555 104.000,279.000" stroke-width="6.750" stroke="rgb(33,33,33)" fill="none" stroke-linecap="round"></path><path d="M 104.000,279.000 C 87.062,298.055 86.258,297.387 70.000,317.000" stroke-width="6.750" stroke="rgb(33,33,33)" fill="none" stroke-linecap="round"></path><path d="M 70.000,317.000 C 54.758,335.387 54.911,335.583 41.000,355.000" stroke-width="6.750" stroke="rgb(33,33,33)" fill="none" stroke-linecap="round"></path><path d="M 41.000,355.000 C 30.911,369.083 30.527,368.993 22.000,384.000" stroke-width="6.750" stroke="rgb(33,33,33)" fill="none" stroke-linecap="round"></path><path d="M 22.000,384.000 C 18.027,390.993 18.434,391.349 16.000,399.000" stroke-width="6.750" stroke="rgb(33,33,33)" fill="none" stroke-linecap="round"></path><path d="M 16.000,399.000 C 14.934,402.349 15.390,402.492 15.000,406.000" stroke-width="6.961" stroke="rgb(33,33,33)" fill="none" stroke-linecap="round"></path><path d="M 15.000,406.000 C 14.890,406.992 14.184,408.188 15.000,408.000" stroke-width="7.939" stroke="rgb(33,33,33)" fill="none" stroke-linecap="round"></path><path d="M 15.000,408.000 C 20.684,406.688 22.348,406.944 28.000,403.000" stroke-width="8.386" stroke="rgb(33,33,33)" fill="none" stroke-linecap="round"></path><path d="M 28.000,403.000 C 43.848,391.944 43.891,391.448 58.000,378.000" stroke-width="7.893" stroke="rgb(33,33,33)" fill="none" stroke-linecap="round"></path><path d="M 58.000,378.000 C 75.891,360.948 75.825,360.717 92.000,342.000" stroke-width="6.952" stroke="rgb(33,33,33)" fill="none" stroke-linecap="round"></path><path d="M 92.000,342.000 C 110.825,320.217 109.010,318.634 128.000,297.000" stroke-width="6.750" stroke="rgb(33,33,33)" fill="none" stroke-linecap="round"></path><path d="M 128.000,297.000 C 148.510,273.634 149.371,274.375 171.000,252.000" stroke-width="6.750" stroke="rgb(33,33,33)" fill="none" stroke-linecap="round"></path><path d="M 171.000,252.000 C 192.871,229.375 192.230,228.686 215.000,207.000" stroke-width="6.750" stroke="rgb(33,33,33)" fill="none" stroke-linecap="round"></path><path d="M 215.000,207.000 C 234.230,188.686 234.547,188.947 255.000,172.000" stroke-width="6.750" stroke="rgb(33,33,33)" fill="none" stroke-linecap="round"></path><path d="M 255.000,172.000 C 269.547,159.947 269.736,160.130 285.000,149.000" stroke-width="6.750" stroke="rgb(33,33,33)" fill="none" stroke-linecap="round"></path><path d="M 285.000,149.000 C 293.736,142.630 293.904,142.848 303.000,137.000" stroke-width="6.750" stroke="rgb(33,33,33)" fill="none" stroke-linecap="round"></path><path d="M 303.000,137.000 C 307.904,133.848 307.940,133.891 313.000,131.000" stroke-width="6.750" stroke="rgb(33,33,33)" fill="none" stroke-linecap="round"></path><path d="M 63.000,319.000 C 65.000,313.000 64.745,312.907 67.000,307.000" stroke-width="17.755" stroke="rgb(33,33,33)" fill="none" stroke-linecap="round"></path><path d="M 67.000,307.000 C 75.245,285.407 75.369,285.447 84.000,264.000" stroke-width="10.754" stroke="rgb(33,33,33)" fill="none" stroke-linecap="round"></path><path d="M 84.000,264.000 C 91.869,244.447 91.893,244.456 100.000,225.000" stroke-width="7.336" stroke="rgb(33,33,33)" fill="none" stroke-linecap="round"></path><path d="M 100.000,225.000 C 109.393,202.456 109.039,202.294 119.000,180.000" stroke-width="6.789" stroke="rgb(33,33,33)" fill="none" stroke-linecap="round"></path><path d="M 119.000,180.000 C 130.039,155.294 130.425,155.465 142.000,131.000" stroke-width="6.750" stroke="rgb(33,33,33)" fill="none" stroke-linecap="round"></path><path d="M 142.000,131.000 C 152.425,108.965 151.992,108.741 163.000,87.000" stroke-width="6.750" stroke="rgb(33,33,33)" fill="none" stroke-linecap="round"></path><path d="M 163.000,87.000 C 171.992,69.241 171.771,69.049 182.000,52.000" stroke-width="6.750" stroke="rgb(33,33,33)" fill="none" stroke-linecap="round"></path><path d="M 182.000,52.000 C 188.271,41.549 188.365,41.467 196.000,32.000" stroke-width="6.750" stroke="rgb(33,33,33)" fill="none" stroke-linecap="round"></path><path d="M 196.000,32.000 C 200.865,25.967 201.181,26.092 207.000,21.000" stroke-width="6.855" stroke="rgb(33,33,33)" fill="none" stroke-linecap="round"></path><path d="M 207.000,21.000 C 209.181,19.092 209.586,18.805 212.000,18.000" stroke-width="7.694" stroke="rgb(33,33,33)" fill="none" stroke-linecap="round"></path><path d="M 212.000,18.000 C 212.586,17.805 213.173,18.333 213.000,19.000" stroke-width="8.717" stroke="rgb(33,33,33)" fill="none" stroke-linecap="round"></path><path d="M 213.000,19.000 C 209.673,31.833 211.458,33.224 205.000,45.000" stroke-width="8.514" stroke="rgb(33,33,33)" fill="none" stroke-linecap="round"></path><path d="M 205.000,45.000 C 194.458,64.224 192.357,63.268 179.000,81.000" stroke-width="7.879" stroke="rgb(33,33,33)" fill="none" stroke-linecap="round"></path><path d="M 179.000,81.000 C 163.357,101.768 163.098,101.577 147.000,122.000" stroke-width="6.752" stroke="rgb(33,33,33)" fill="none" stroke-linecap="round"></path><path d="M 147.000,122.000 C 129.598,144.077 128.611,143.349 112.000,166.000" stroke-width="6.750" stroke="rgb(33,33,33)" fill="none" stroke-linecap="round"></path><path d="M 112.000,166.000 C 95.611,188.349 95.568,188.427 81.000,212.000" stroke-width="6.750" stroke="rgb(33,33,33)" fill="none" stroke-linecap="round"></path><path d="M 81.000,212.000 C 68.068,232.927 68.569,233.272 57.000,255.000" stroke-width="6.750" stroke="rgb(33,33,33)" fill="none" stroke-linecap="round"></path><path d="M 57.000,255.000 C 48.069,271.772 48.070,271.807 40.000,289.000" stroke-width="6.750" stroke="rgb(33,33,33)" fill="none" stroke-linecap="round"></path><path d="M 40.000,289.000 C 36.570,296.307 36.670,296.436 34.000,304.000" stroke-width="6.750" stroke="rgb(33,33,33)" fill="none" stroke-linecap="round"></path><path d="M 34.000,304.000 C 33.670,304.936 33.292,306.500 34.000,306.000" stroke-width="7.246" stroke="rgb(33,33,33)" fill="none" stroke-linecap="round"></path><path d="M 34.000,306.000 C 41.792,300.500 43.318,299.846 51.000,292.000" stroke-width="7.515" stroke="rgb(33,33,33)" fill="none" stroke-linecap="round"></path><path d="M 51.000,292.000 C 66.818,275.846 66.227,275.195 81.000,258.000" stroke-width="7.081" stroke="rgb(33,33,33)" fill="none" stroke-linecap="round"></path><path d="M 81.000,258.000 C 96.727,239.695 96.422,239.434 112.000,221.000" stroke-width="6.750" stroke="rgb(33,33,33)" fill="none" stroke-linecap="round"></path><path d="M 112.000,221.000 C 126.422,203.934 125.783,203.324 141.000,187.000" stroke-width="6.750" stroke="rgb(33,33,33)" fill="none" stroke-linecap="round"></path><path d="M 141.000,187.000 C 153.283,173.824 153.248,173.564 167.000,162.000" stroke-width="6.750" stroke="rgb(33,33,33)" fill="none" stroke-linecap="round"></path><path d="M 167.000,162.000 C 175.248,155.064 175.615,155.214 185.000,150.000" stroke-width="6.750" stroke="rgb(33,33,33)" fill="none" stroke-linecap="round"></path><path d="M 185.000,150.000 C 189.115,147.714 190.835,146.648 194.000,147.000" stroke-width="7.356" stroke="rgb(33,33,33)" fill="none" stroke-linecap="round"></path><path d="M 194.000,147.000 C 195.335,147.148 194.753,149.164 194.000,151.000" stroke-width="8.276" stroke="rgb(33,33,33)" fill="none" stroke-linecap="round"></path><path d="M 194.000,151.000 C 186.753,168.664 187.468,169.318 178.000,186.000" stroke-width="7.675" stroke="rgb(33,33,33)" fill="none" stroke-linecap="round"></path><path d="M 178.000,186.000 C 166.468,206.318 164.831,205.390 152.000,225.000" stroke-width="7.075" stroke="rgb(33,33,33)" fill="none" stroke-linecap="round"></path><path d="M 152.000,225.000 C 138.331,245.890 138.473,245.983 125.000,267.000" stroke-width="6.750" stroke="rgb(33,33,33)" fill="none" stroke-linecap="round"></path><path d="M 125.000,267.000 C 113.473,284.983 112.933,284.671 102.000,303.000" stroke-width="6.750" stroke="rgb(33,33,33)" fill="none" stroke-linecap="round"></path><path d="M 102.000,303.000 C 95.933,313.171 95.823,313.242 91.000,324.000" stroke-width="6.750" stroke="rgb(33,33,33)" fill="none" stroke-linecap="round"></path><path d="M 91.000,324.000 C 89.323,327.742 89.446,328.433 89.000,332.000" stroke-width="7.434" stroke="rgb(33,33,33)" fill="none" stroke-linecap="round"></path><path d="M 89.000,332.000 C 88.946,332.433 89.663,332.363 90.000,332.000" stroke-width="8.466" stroke="rgb(33,33,33)" fill="none" stroke-linecap="round"></path><path d="M 90.000,332.000 C 102.663,318.363 102.805,318.262 115.000,304.000" stroke-width="8.002" stroke="rgb(33,33,33)" fill="none" stroke-linecap="round"></path><path d="M 115.000,304.000 C 132.305,283.762 132.450,283.858 149.000,263.000" stroke-width="6.900" stroke="rgb(33,33,33)" fill="none" stroke-linecap="round"></path><path d="M 149.000,263.000 C 168.950,237.858 167.951,237.061 188.000,212.000" stroke-width="6.750" stroke="rgb(33,33,33)" fill="none" stroke-linecap="round"></path><path d="M 188.000,212.000 C 207.951,187.061 208.342,187.366 229.000,163.000" stroke-width="6.750" stroke="rgb(33,33,33)" fill="none" stroke-linecap="round"></path><path d="M 229.000,163.000 C 247.342,141.366 247.283,141.309 266.000,120.000" stroke-width="6.750" stroke="rgb(33,33,33)" fill="none" stroke-linecap="round"></path><path d="M 266.000,120.000 C 279.783,104.309 280.182,104.660 294.000,89.000" stroke-width="6.750" stroke="rgb(33,33,33)" fill="none" stroke-linecap="round"></path><path d="M 294.000,89.000 C 302.682,79.160 302.245,78.765 311.000,69.000" stroke-width="6.750" stroke="rgb(33,33,33)" fill="none" stroke-linecap="round"></path><path d="M 311.000,69.000 C 315.245,64.265 315.333,64.308 320.000,60.000" stroke-width="6.750" stroke="rgb(33,33,33)" fill="none" stroke-linecap="round"></path><path d="M 320.000,60.000 C 321.833,58.308 324.000,56.386 324.000,57.000" stroke-width="7.304" stroke="rgb(33,33,33)" fill="none" stroke-linecap="round"></path><path d="M 324.000,57.000 C 324.000,57.886 322.000,60.000 320.000,63.000" stroke-width="8.226" stroke="rgb(33,33,33)" fill="none" stroke-linecap="round"></path><path d="M 320.000,63.000 C 313.000,73.500 312.863,73.411 306.000,84.000" stroke-width="8.149" stroke="rgb(33,33,33)" fill="none" stroke-linecap="round"></path><path d="M 306.000,84.000 C 295.363,100.411 296.136,100.943 285.000,117.000" stroke-width="7.647" stroke="rgb(33,33,33)" fill="none" stroke-linecap="round"></path><path d="M 285.000,117.000 C 274.636,131.943 273.804,131.355 263.000,146.000" stroke-width="7.301" stroke="rgb(33,33,33)" fill="none" stroke-linecap="round"></path><path d="M 263.000,146.000 C 251.304,161.855 251.228,161.811 240.000,178.000" stroke-width="7.025" stroke="rgb(33,33,33)" fill="none" stroke-linecap="round"></path><path d="M 240.000,178.000 C 229.728,192.811 229.351,192.615 220.000,208.000" stroke-width="6.911" stroke="rgb(33,33,33)" fill="none" stroke-linecap="round"></path></svg>