<svg xmlns="http://www.w3.org/2000/svg" xmlns:xlink="http://www.w3.org/1999/xlink" viewBox="0 0 360 500"><path d="M 46.318,219.572 C 53.672,212.156 54.174,212.590 61.026,204.741" stroke-width="19.453" stroke="rgb(33,33,33)" fill="none" stroke-linecap="round"></path><path d="M 61.026,204.741 C 66.779,198.151 66.117,197.592 71.528,190.694" stroke-width="16.174" stroke="rgb(33,33,33)" fill="none" stroke-linecap="round"></path><path d="M 71.528,190.694 C 78.484,181.826 78.516,181.843 85.761,173.208" stroke-width="13.805" stroke="rgb(33,33,33)" fill="none" stroke-linecap="round"></path><path d="M 85.761,173.208 C 93.652,163.803 93.716,163.855 101.800,154.614" stroke-width="12.181" stroke="rgb(33,33,33)" fill="none" stroke-linecap="round"></path><path d="M 101.800,154.614 C 110.739,144.395 110.638,144.300 119.806,134.288" stroke-width="10.950" stroke="rgb(33,33,33)" fill="none" stroke-linecap="round"></path><path d="M 119.806,134.288 C 128.393,124.910 128.296,124.797 137.309,115.835" stroke-width="10.234" stroke="rgb(33,33,33)" fill="none" stroke-linecap="round"></path><path d="M 137.309,115.835 C 145.222,107.966 145.148,107.827 153.659,100.626" stroke-width="9.732" stroke="rgb(33,33,33)" fill="none" stroke-linecap="round"></path><path d="M 153.659,100.626 C 160.040,95.227 160.205,95.378 167.094,90.635" stroke-width="9.764" stroke="rgb(33,33,33)" fill="none" stroke-linecap="round"></path><path d="M 167.094,90.635 C 172.175,87.136 172.074,86.779 177.599,84.142" stroke-width="10.144" stroke="rgb(33,33,33)" fill="none" stroke-linecap="round"></path><path d="M 177.599,84.142 C 181.381,82.337 181.712,81.968 185.708,81.752" stroke-width="10.678" stroke="rgb(33,33,33)" fill="none" stroke-linecap="round"></path><path d="M 185.708,81.752 C 187.779,81.640 188.780,81.817 189.733,83.486" stroke-width="11.428" stroke="rgb(33,33,33)" fill="none" stroke-linecap="round"></path><path d="M 189.733,83.486 C 191.250,86.145 190.951,86.973 190.648,90.407" stroke-width="11.914" stroke="rgb(33,33,33)" fill="none" stroke-linecap="round"></path><path d="M 190.648,90.407 C 190.062,97.059 189.860,97.188 187.956,103.658" stroke-width="11.781" stroke="rgb(33,33,33)" fill="none" stroke-linecap="round"></path><path d="M 187.956,103.658 C 185.140,113.227 184.811,113.160 181.207,122.485" stroke-width="11.095" stroke="rgb(33,33,33)" fill="none" stroke-linecap="round"></path><path d="M 181.207,122.485 C 176.613,134.371 176.405,134.292 171.560,146.080" stroke-width="10.234" stroke="rgb(33,33,33)" fill="none" stroke-linecap="round"></path><path d="M 171.560,146.080 C 166.113,159.333 166.376,159.449 160.621,172.568" stroke-width="9.551" stroke="rgb(33,33,33)" fill="none" stroke-linecap="round"></path><path d="M 160.621,172.568 C 154.913,185.579 154.972,185.626 148.634,198.340" stroke-width="9.079" stroke="rgb(33,33,33)" fill="none" stroke-linecap="round"></path><path d="M 148.634,198.340 C 142.666,210.310 142.544,210.263 136.009,221.935" stroke-width="8.733" stroke="rgb(33,33,33)" fill="none" stroke-linecap="round"></path><path d="M 136.009,221.935 C 130.888,231.081 130.913,231.113 125.323,239.977" stroke-width="8.797" stroke="rgb(33,33,33)" fill="none" stroke-linecap="round"></path><path d="M 125.323,239.977 C 120.770,247.198 120.591,247.089 115.723,254.106" stroke-width="8.980" stroke="rgb(33,33,33)" fill="none" stroke-linecap="round"></path><path d="M 115.723,254.106 C 112.398,258.899 112.365,258.876 108.938,263.597" stroke-width="9.457" stroke="rgb(33,33,33)" fill="none" stroke-linecap="round"></path><path d="M 108.938,263.597 C 106.904,266.400 106.946,266.438 104.801,269.153" stroke-width="10.153" stroke="rgb(33,33,33)" fill="none" stroke-linecap="round"></path><path d="M 104.801,269.153 C 103.877,270.323 103.832,270.296 102.799,271.367" stroke-width="11.048" stroke="rgb(33,33,33)" fill="none" stroke-linecap="round"></path><path d="M 102.799,271.367 C 102.606,271.567 102.327,271.630 102.349,271.694" stroke-width="12.105" stroke="rgb(33,33,33)" fill="none" stroke-linecap="round"></path><path d="M 102.349,271.694 C 102.371,271.756 102.670,271.768 102.887,271.620" stroke-width="13.110" stroke="rgb(33,33,33)" fill="none" stroke-linecap="round"></path><path d="M 102.887,271.620 C 103.600,271.134 103.570,271.046 104.210,270.426" stroke-width="13.901" stroke="rgb(33,33,33)" fill="none" stroke-linecap="round"></path><path d="M 104.210,270.426 C 105.821,268.866 105.724,268.761 107.390,267.261" stroke-width="14.246" stroke="rgb(33,33,33)" fill="none" stroke-linecap="round"></path><path d="M 107.390,267.261 C 110.098,264.823 110.336,265.078 112.957,262.551" stroke-width="14.231" stroke="rgb(33,33,33)" fill="none" stroke-linecap="round"></path><path d="M 112.957,262.551 C 116.758,258.887 116.655,258.770 120.233,254.878" stroke-width="13.770" stroke="rgb(33,33,33)" fill="none" stroke-linecap="round"></path><path d="M 120.233,254.878 C 125.522,249.125 125.536,249.134 130.692,243.261" stroke-width="12.978" stroke="rgb(33,33,33)" fill="none" stroke-linecap="round"></path><path d="M 130.692,243.261 C 137.465,235.545 137.340,235.435 144.091,227.699" stroke-width="11.983" stroke="rgb(33,33,33)" fill="none" stroke-linecap="round"></path><path d="M 144.091,227.699 C 152.243,218.358 152.290,218.399 160.498,209.107" stroke-width="10.984" stroke="rgb(33,33,33)" fill="none" stroke-linecap="round"></path><path d="M 160.498,209.107 C 169.008,199.475 168.839,199.320 177.527,189.851" stroke-width="10.241" stroke="rgb(33,33,33)" fill="none" stroke-linecap="round"></path><path d="M 177.527,189.851 C 185.811,180.821 185.718,180.709 194.442,172.109" stroke-width="9.697" stroke="rgb(33,33,33)" fill="none" stroke-linecap="round"></path><path d="M 194.442,172.109 C 201.805,164.851 201.908,164.935 209.700,158.135" stroke-width="9.579" stroke="rgb(33,33,33)" fill="none" stroke-linecap="round"></path><path d="M 209.700,158.135 C 216.121,152.531 216.277,152.711 222.867,147.302" stroke-width="9.623" stroke="rgb(33,33,33)" fill="none" stroke-linecap="round"></path><path d="M 222.867,147.302 C 227.619,143.402 227.473,143.195 232.384,139.517" stroke-width="10.024" stroke="rgb(33,33,33)" fill="none" stroke-linecap="round"></path><path d="M 232.384,139.517 C 234.759,137.738 234.867,137.783 237.440,136.387" stroke-width="10.712" stroke="rgb(33,33,33)" fill="none" stroke-linecap="round"></path><path d="M 237.440,136.387 C 237.728,136.231 238.249,136.170 238.105,136.412" stroke-width="11.772" stroke="rgb(33,33,33)" fill="none" stroke-linecap="round"></path><path d="M 238.105,136.412 C 236.808,138.588 236.534,138.990 234.558,141.224" stroke-width="12.266" stroke="rgb(33,33,33)" fill="none" stroke-linecap="round"></path><path d="M 234.558,141.224 C 231.171,145.054 231.046,144.962 227.379,148.540" stroke-width="12.338" stroke="rgb(33,33,33)" fill="none" stroke-linecap="round"></path><path d="M 227.379,148.540 C 223.321,152.499 223.223,152.399 219.107,156.299" stroke-width="12.299" stroke="rgb(33,33,33)" fill="none" stroke-linecap="round"></path><path d="M 219.107,156.299 C 215.106,160.090 215.189,160.179 211.144,163.922" stroke-width="12.236" stroke="rgb(33,33,33)" fill="none" stroke-linecap="round"></path><path d="M 211.144,163.922 C 207.338,167.444 207.354,167.468 203.406,170.829" stroke-width="12.303" stroke="rgb(33,33,33)" fill="none" stroke-linecap="round"></path><path d="M 203.406,170.829 C 200.101,173.643 199.936,173.450 196.638,176.272" stroke-width="12.508" stroke="rgb(33,33,33)" fill="none" stroke-linecap="round"></path><path d="M 196.638,176.272 C 193.761,178.734 193.707,178.697 191.057,181.396" stroke-width="12.782" stroke="rgb(33,33,33)" fill="none" stroke-linecap="round"></path><path d="M 191.057,181.396 C 188.738,183.757 188.943,183.954 186.699,186.391" stroke-width="13.062" stroke="rgb(33,33,33)" fill="none" stroke-linecap="round"></path><path d="M 186.699,186.391 C 184.988,188.249 184.786,188.083 183.147,189.986" stroke-width="13.503" stroke="rgb(33,33,33)" fill="none" stroke-linecap="round"></path><path d="M 183.147,189.986 C 182.506,190.731 182.521,191.051 182.140,191.687" stroke-width="14.230" stroke="rgb(33,33,33)" fill="none" stroke-linecap="round"></path><path d="M 182.140,191.687 C 182.086,191.778 182.234,191.574 182.277,191.440" stroke-width="15.090" stroke="rgb(33,33,33)" fill="none" stroke-linecap="round"></path><path d="M 182.277,191.440 C 182.953,189.301 182.694,189.196 183.578,187.141" stroke-width="15.267" stroke="rgb(33,33,33)" fill="none" stroke-linecap="round"></path><path d="M 183.578,187.141 C 185.080,183.650 185.382,183.777 187.050,180.347" stroke-width="14.990" stroke="rgb(33,33,33)" fill="none" stroke-linecap="round"></path><path d="M 187.050,180.347 C 188.859,176.626 188.560,176.469 190.532,172.838" stroke-width="14.630" stroke="rgb(33,33,33)" fill="none" stroke-linecap="round"></path><path d="M 190.532,172.838 C 193.082,168.141 193.239,168.218 196.093,163.691" stroke-width="14.129" stroke="rgb(33,33,33)" fill="none" stroke-linecap="round"></path><path d="M 196.093,163.691 C 198.664,159.612 198.655,159.602 201.383,155.627" stroke-width="13.869" stroke="rgb(33,33,33)" fill="none" stroke-linecap="round"></path><path d="M 201.383,155.627 C 203.710,152.236 204.016,152.431 206.203,148.960" stroke-width="13.767" stroke="rgb(33,33,33)" fill="none" stroke-linecap="round"></path><path d="M 206.203,148.960 C 207.822,146.391 207.514,146.205 208.994,143.548" stroke-width="13.981" stroke="rgb(33,33,33)" fill="none" stroke-linecap="round"></path><path d="M 208.994,143.548 C 209.810,142.083 209.841,142.092 210.795,140.716" stroke-width="14.483" stroke="rgb(33,33,33)" fill="none" stroke-linecap="round"></path><path d="M 210.795,140.716 C 211.098,140.279 211.120,140.286 211.507,139.923" stroke-width="15.204" stroke="rgb(33,33,33)" fill="none" stroke-linecap="round"></path><path d="M 211.507,139.923 C 211.833,139.616 211.863,139.648 212.221,139.376" stroke-width="15.869" stroke="rgb(33,33,33)" fill="none" stroke-linecap="round"></path><path d="M 212.221,139.376 C 212.566,139.114 212.590,139.142 212.912,138.854" stroke-width="16.449" stroke="rgb(33,33,33)" fill="none" stroke-linecap="round"></path><path d="M 212.912,138.854 C 213.663,138.183 213.641,138.157 214.368,137.457" stroke-width="16.755" stroke="rgb(33,33,33)" fill="none" stroke-linecap="round"></path><path d="M 214.368,137.457 C 215.740,136.135 215.686,136.076 217.109,134.811" stroke-width="16.674" stroke="rgb(33,33,33)" fill="none" stroke-linecap="round"></path><path d="M 217.109,134.811 C 219.117,133.026 219.149,133.059 221.230,131.358" stroke-width="16.399" stroke="rgb(33,33,33)" fill="none" stroke-linecap="round"></path><path d="M 221.230,131.358 C 222.805,130.070 222.698,129.871 224.421,128.833" stroke-width="16.347" stroke="rgb(33,33,33)" fill="none" stroke-linecap="round"></path><path d="M 224.421,128.833 C 225.639,128.099 225.728,128.009 227.111,127.813" stroke-width="16.533" stroke="rgb(33,33,33)" fill="none" stroke-linecap="round"></path><path d="M 227.111,127.813 C 228.280,127.648 228.524,127.583 229.525,128.111" stroke-width="16.757" stroke="rgb(33,33,33)" fill="none" stroke-linecap="round"></path><path d="M 229.525,128.111 C 230.465,128.606 230.203,129.040 230.993,129.859" stroke-width="16.941" stroke="rgb(33,33,33)" fill="none" stroke-linecap="round"></path><path d="M 230.993,129.859 C 231.595,130.483 231.534,130.810 232.309,130.996" stroke-width="17.209" stroke="rgb(33,33,33)" fill="none" stroke-linecap="round"></path><path d="M 232.309,130.996 C 233.336,131.243 233.583,131.198 234.598,130.726" stroke-width="17.330" stroke="rgb(33,33,33)" fill="none" stroke-linecap="round"></path><path d="M 234.598,130.726 C 236.370,129.901 236.363,129.711 237.884,128.402" stroke-width="17.130" stroke="rgb(33,33,33)" fill="none" stroke-linecap="round"></path><path d="M 237.884,128.402 C 240.442,126.200 240.601,126.293 242.755,123.703" stroke-width="16.526" stroke="rgb(33,33,33)" fill="none" stroke-linecap="round"></path><path d="M 242.755,123.703 C 245.577,120.312 245.196,119.998 247.836,116.440" stroke-width="15.685" stroke="rgb(33,33,33)" fill="none" stroke-linecap="round"></path><path d="M 247.836,116.440 C 250.759,112.500 250.866,112.580 253.880,108.707" stroke-width="15.019" stroke="rgb(33,33,33)" fill="none" stroke-linecap="round"></path><path d="M 253.880,108.707 C 256.719,105.060 256.634,104.992 259.541,101.400" stroke-width="14.524" stroke="rgb(33,33,33)" fill="none" stroke-linecap="round"></path><path d="M 259.541,101.400 C 261.832,98.569 261.896,98.620 264.276,95.861" stroke-width="14.453" stroke="rgb(33,33,33)" fill="none" stroke-linecap="round"></path><path d="M 264.276,95.861 C 265.734,94.171 265.747,94.183 267.216,92.503" stroke-width="14.745" stroke="rgb(33,33,33)" fill="none" stroke-linecap="round"></path><path d="M 267.216,92.503 C 268.454,91.088 268.561,91.170 269.690,89.671" stroke-width="15.048" stroke="rgb(33,33,33)" fill="none" stroke-linecap="round"></path><path d="M 269.690,89.671 C 271.229,87.626 271.048,87.491 272.551,85.415" stroke-width="15.185" stroke="rgb(33,33,33)" fill="none" stroke-linecap="round"></path><path d="M 272.551,85.415 C 274.594,82.592 274.613,82.601 276.782,79.873" stroke-width="14.956" stroke="rgb(33,33,33)" fill="none" stroke-linecap="round"></path><path d="M 276.782,79.873 C 279.311,76.693 279.288,76.669 281.947,73.598" stroke-width="14.687" stroke="rgb(33,33,33)" fill="none" stroke-linecap="round"></path><path d="M 281.947,73.598 C 284.922,70.163 284.832,70.060 288.050,66.860" stroke-width="14.294" stroke="rgb(33,33,33)" fill="none" stroke-linecap="round"></path><path d="M 288.050,66.860 C 290.857,64.070 290.975,64.182 293.997,61.618" stroke-width="14.194" stroke="rgb(33,33,33)" fill="none" stroke-linecap="round"></path><path d="M 293.997,61.618 C 296.584,59.423 296.608,59.451 299.267,57.343" stroke-width="14.249" stroke="rgb(33,33,33)" fill="none" stroke-linecap="round"></path><path d="M 299.267,57.343 C 301.784,55.347 301.817,55.389 304.349,53.411" stroke-width="14.289" stroke="rgb(33,33,33)" fill="none" stroke-linecap="round"></path><path d="M 304.349,53.411 C 307.005,51.337 306.959,51.277 309.642,49.239" stroke-width="14.331" stroke="rgb(33,33,33)" fill="none" stroke-linecap="round"></path><path d="M 309.642,49.239 C 312.119,47.358 312.144,47.391 314.669,45.573" stroke-width="14.427" stroke="rgb(33,33,33)" fill="none" stroke-linecap="round"></path><path d="M 314.669,45.573 C 316.702,44.110 316.731,44.150 318.757,42.677" stroke-width="14.654" stroke="rgb(33,33,33)" fill="none" stroke-linecap="round"></path><path d="M 318.757,42.677 C 320.259,41.585 320.240,41.558 321.725,40.443" stroke-width="14.979" stroke="rgb(33,33,33)" fill="none" stroke-linecap="round"></path><path d="M 321.725,40.443 C 322.462,39.890 322.472,39.902 323.202,39.340" stroke-width="15.553" stroke="rgb(33,33,33)" fill="none" stroke-linecap="round"></path><path d="M 323.202,39.340 C 323.577,39.052 323.553,39.004 323.935,38.743" stroke-width="16.165" stroke="rgb(33,33,33)" fill="none" stroke-linecap="round"></path><path d="M 323.935,38.743 C 324.001,38.698 324.043,38.681 324.097,38.728" stroke-width="16.816" stroke="rgb(33,33,33)" fill="none" stroke-linecap="round"></path><path d="M 324.097,38.728 C 324.229,38.844 324.249,38.885 324.307,39.070" stroke-width="17.331" stroke="rgb(33,33,33)" fill="none" stroke-linecap="round"></path><path d="M 324.307,39.070 C 324.359,39.236 324.348,39.258 324.316,39.431" stroke-width="17.779" stroke="rgb(33,33,33)" fill="none" stroke-linecap="round"></path><path d="M 324.316,39.431 C 324.287,39.583 324.267,39.586 324.185,39.721" stroke-width="18.159" stroke="rgb(33,33,33)" fill="none" stroke-linecap="round"></path><path d="M 324.185,39.721 C 324.096,39.867 324.107,39.914 323.973,39.992" stroke-width="18.473" stroke="rgb(33,33,33)" fill="none" stroke-linecap="round"></path><path d="M 323.973,39.992 C 323.873,40.050 323.844,39.992 323.716,39.992" stroke-width="18.751" stroke="rgb(33,33,33)" fill="none" stroke-linecap="round"></path><path d="M 323.716,39.992 C 323.646,39.992 323.646,39.992 323.576,39.992" stroke-width="19.003" stroke="rgb(33,33,33)" fill="none" stroke-linecap="round"></path><path d="M 323.576,39.992 C 323.384,39.992 323.384,39.992 323.193,39.992" stroke-width="19.153" stroke="rgb(33,33,33)" fill="none" stroke-linecap="round"></path><path d="M 323.193,39.992 C 323.017,39.992 323.017,39.992 322.841,39.992" stroke-width="19.286" stroke="rgb(33,33,33)" fill="none" stroke-linecap="round"></path><path d="M 322.841,39.992 C 322.665,39.992 322.645,40.068 322.488,39.992" stroke-width="19.389" stroke="rgb(33,33,33)" fill="none" stroke-linecap="round"></path><path d="M 178.506,72.150 C 171.834,83.645 168.795,82.819 165.162,95.139" stroke-width="19.058" stroke="rgb(33,33,33)" fill="none" stroke-linecap="round"></path><path d="M 165.162,95.139 C 162.071,105.621 165.214,106.448 165.059,117.754" stroke-width="15.561" stroke="rgb(33,33,33)" fill="none" stroke-linecap="round"></path><path d="M 165.059,117.754 C 164.870,131.597 164.867,131.598 164.474,145.437" stroke-width="12.759" stroke="rgb(33,33,33)" fill="none" stroke-linecap="round"></path><path d="M 164.474,145.437 C 164.038,160.793 164.116,160.798 163.402,176.143" stroke-width="11.058" stroke="rgb(33,33,33)" fill="none" stroke-linecap="round"></path><path d="M 163.402,176.143 C 162.631,192.722 162.426,192.712 161.503,209.284" stroke-width="9.852" stroke="rgb(33,33,33)" fill="none" stroke-linecap="round"></path><path d="M 161.503,209.284 C 160.615,225.235 160.686,225.239 159.780,241.188" stroke-width="9.120" stroke="rgb(33,33,33)" fill="none" stroke-linecap="round"></path><path d="M 159.780,241.188 C 159.003,254.860 159.090,254.867 158.137,268.527" stroke-width="8.734" stroke="rgb(33,33,33)" fill="none" stroke-linecap="round"></path><path d="M 158.137,268.527 C 157.455,278.305 157.659,278.340 156.509,288.064" stroke-width="8.805" stroke="rgb(33,33,33)" fill="none" stroke-linecap="round"></path><path d="M 156.509,288.064 C 155.893,293.274 156.152,293.549 154.605,298.394" stroke-width="9.360" stroke="rgb(33,33,33)" fill="none" stroke-linecap="round"></path><path d="M 154.605,298.394 C 154.194,299.682 153.315,300.943 152.593,300.329" stroke-width="10.312" stroke="rgb(33,33,33)" fill="none" stroke-linecap="round"></path><path d="M 152.593,300.329 C 150.821,298.822 150.333,297.460 149.617,294.153" stroke-width="10.907" stroke="rgb(33,33,33)" fill="none" stroke-linecap="round"></path><path d="M 149.617,294.153 C 148.069,287.003 148.284,286.807 148.065,279.415" stroke-width="10.889" stroke="rgb(33,33,33)" fill="none" stroke-linecap="round"></path><path d="M 148.065,279.415 C 147.746,268.651 147.639,268.575 148.541,257.840" stroke-width="10.430" stroke="rgb(33,33,33)" fill="none" stroke-linecap="round"></path><path d="M 148.541,257.840 C 149.644,244.711 149.998,244.714 152.075,231.686" stroke-width="9.721" stroke="rgb(33,33,33)" fill="none" stroke-linecap="round"></path><path d="M 152.075,231.686 C 154.291,217.788 154.458,217.810 157.126,203.989" stroke-width="9.214" stroke="rgb(33,33,33)" fill="none" stroke-linecap="round"></path><path d="M 157.126,203.989 C 159.705,190.628 159.773,190.640 162.569,177.322" stroke-width="8.888" stroke="rgb(33,33,33)" fill="none" stroke-linecap="round"></path><path d="M 162.569,177.322 C 165.114,165.198 165.011,165.173 167.808,153.106" stroke-width="8.682" stroke="rgb(33,33,33)" fill="none" stroke-linecap="round"></path></svg>