<svg xmlns="http://www.w3.org/2000/svg" xmlns:xlink="http://www.w3.org/1999/xlink" viewBox="0 0 800 500"><path d="M 534.395,103.668 C 512.116,113.592 512.057,113.463 489.836,123.516" stroke-width="8.460" stroke="rgb(33,33,33)" fill="none" stroke-linecap="round"></path><path d="M 489.836,123.516 C 474.095,130.637 474.039,130.527 458.471,138.017" stroke-width="6.750" stroke="rgb(33,33,33)" fill="none" stroke-linecap="round"></path><path d="M 458.471,138.017 C 431.876,150.812 431.773,150.634 405.510,164.085" stroke-width="6.750" stroke="rgb(33,33,33)" fill="none" stroke-linecap="round"></path><path d="M 405.510,164.085 C 392.356,170.822 392.549,171.193 379.638,178.392" stroke-width="6.750" stroke="rgb(33,33,33)" fill="none" stroke-linecap="round"></path><path d="M 379.638,178.392 C 368.853,184.406 368.424,183.798 358.118,190.510" stroke-width="6.750" stroke="rgb(33,33,33)" fill="none" stroke-linecap="round"></path><path d="M 358.118,190.510 C 352.738,194.014 352.863,194.343 348.265,198.824" stroke-width="7.212" stroke="rgb(33,33,33)" fill="none" stroke-linecap="round"></path><path d="M 348.265,198.824 C 345.337,201.678 345.605,201.956 343.066,205.180" stroke-width="7.757" stroke="rgb(33,33,33)" fill="none" stroke-linecap="round"></path><path d="M 343.066,205.180 C 341.907,206.651 342.021,206.743 340.869,208.215" stroke-width="8.631" stroke="rgb(33,33,33)" fill="none" stroke-linecap="round"></path><path d="M 340.869,208.215 C 340.512,208.671 340.303,209.516 340.047,209.036" stroke-width="9.687" stroke="rgb(33,33,33)" fill="none" stroke-linecap="round"></path><path d="M 340.047,209.036 C 335.002,199.585 335.515,198.511 330.266,188.354" stroke-width="10.090" stroke="rgb(33,33,33)" fill="none" stroke-linecap="round"></path><path d="M 330.266,188.354 C 323.761,175.768 323.781,175.724 316.539,163.549" stroke-width="9.375" stroke="rgb(33,33,33)" fill="none" stroke-linecap="round"></path><path d="M 316.539,163.549 C 310.802,153.905 311.106,153.620 304.308,144.716" stroke-width="9.168" stroke="rgb(33,33,33)" fill="none" stroke-linecap="round"></path><path d="M 304.308,144.716 C 295.614,133.328 295.135,133.659 285.556,122.965" stroke-width="8.924" stroke="rgb(33,33,33)" fill="none" stroke-linecap="round"></path><path d="M 285.556,122.965 C 275.913,112.199 275.838,112.259 265.865,101.797" stroke-width="8.787" stroke="rgb(33,33,33)" fill="none" stroke-linecap="round"></path><path d="M 265.865,101.797 C 258.288,93.849 258.079,94.049 250.456,86.145" stroke-width="8.797" stroke="rgb(33,33,33)" fill="none" stroke-linecap="round"></path><path d="M 250.456,86.145 C 245.156,80.650 245.474,80.304 240.020,74.998" stroke-width="8.895" stroke="rgb(33,33,33)" fill="none" stroke-linecap="round"></path><path d="M 240.020,74.998 C 238.264,73.290 236.396,72.809 236.037,72.116" stroke-width="9.811" stroke="rgb(33,33,33)" fill="none" stroke-linecap="round"></path><path d="M 236.037,72.116 C 235.824,71.705 237.515,72.267 238.875,72.790" stroke-width="10.634" stroke="rgb(33,33,33)" fill="none" stroke-linecap="round"></path><path d="M 238.875,72.790 C 254.265,78.714 254.410,78.424 269.537,85.010" stroke-width="9.360" stroke="rgb(33,33,33)" fill="none" stroke-linecap="round"></path><path d="M 269.537,85.010 C 293.351,95.377 292.996,96.194 316.758,106.696" stroke-width="7.966" stroke="rgb(33,33,33)" fill="none" stroke-linecap="round"></path><path d="M 316.758,106.696 C 346.070,119.651 346.333,119.056 375.684,131.925" stroke-width="6.750" stroke="rgb(33,33,33)" fill="none" stroke-linecap="round"></path><path d="M 375.684,131.925 C 407.589,145.913 407.264,146.665 439.270,160.411" stroke-width="6.750" stroke="rgb(33,33,33)" fill="none" stroke-linecap="round"></path><path d="M 439.270,160.411 C 467.385,172.486 467.884,171.336 495.925,183.568" stroke-width="6.750" stroke="rgb(33,33,33)" fill="none" stroke-linecap="round"></path><path d="M 495.925,183.568 C 518.921,193.599 518.142,195.510 541.343,204.936" stroke-width="6.750" stroke="rgb(33,33,33)" fill="none" stroke-linecap="round"></path><path d="M 541.343,204.936 C 556.862,211.241 557.239,212.257 573.365,215.029" stroke-width="6.750" stroke="rgb(33,33,33)" fill="none" stroke-linecap="round"></path><path d="M 573.365,215.029 C 579.297,216.049 579.599,214.309 585.459,212.519" stroke-width="6.750" stroke="rgb(33,33,33)" fill="none" stroke-linecap="round"></path><path d="M 585.459,212.519 C 588.592,211.562 591.140,211.592 591.350,209.536" stroke-width="7.085" stroke="rgb(33,33,33)" fill="none" stroke-linecap="round"></path><path d="M 591.350,209.536 C 591.598,207.117 588.588,206.752 586.375,203.569" stroke-width="7.838" stroke="rgb(33,33,33)" fill="none" stroke-linecap="round"></path><path d="M 586.375,203.569 C 582.385,197.831 583.889,196.440 578.945,191.694" stroke-width="8.327" stroke="rgb(33,33,33)" fill="none" stroke-linecap="round"></path><path d="M 578.945,191.694 C 572.020,185.047 570.894,186.078 562.637,180.783" stroke-width="8.522" stroke="rgb(33,33,33)" fill="none" stroke-linecap="round"></path><path d="M 562.637,180.783 C 553.138,174.692 553.299,174.375 543.433,168.922" stroke-width="8.557" stroke="rgb(33,33,33)" fill="none" stroke-linecap="round"></path><path d="M 543.433,168.922 C 533.469,163.415 533.193,163.915 522.976,158.863" stroke-width="8.575" stroke="rgb(33,33,33)" fill="none" stroke-linecap="round"></path><path d="M 522.976,158.863 C 515.498,155.165 514.365,156.442 508.042,151.422" stroke-width="8.861" stroke="rgb(33,33,33)" fill="none" stroke-linecap="round"></path><path d="M 508.042,151.422 C 503.750,148.015 503.836,147.136 501.745,142.009" stroke-width="9.332" stroke="rgb(33,33,33)" fill="none" stroke-linecap="round"></path><path d="M 501.745,142.009 C 499.817,137.280 498.855,136.547 500.004,131.709" stroke-width="9.868" stroke="rgb(33,33,33)" fill="none" stroke-linecap="round"></path><path d="M 500.004,131.709 C 501.880,123.812 502.896,123.433 507.795,116.539" stroke-width="9.855" stroke="rgb(33,33,33)" fill="none" stroke-linecap="round"></path><path d="M 507.795,116.539 C 513.951,107.875 513.444,106.474 522.113,100.592" stroke-width="9.888" stroke="rgb(33,33,33)" fill="none" stroke-linecap="round"></path><path d="M 522.113,100.592 C 533.484,92.877 534.735,94.264 547.876,89.346" stroke-width="8.778" stroke="rgb(33,33,33)" fill="none" stroke-linecap="round"></path><path d="M 547.876,89.346 C 558.947,85.202 558.939,84.267 570.538,82.468" stroke-width="8.713" stroke="rgb(33,33,33)" fill="none" stroke-linecap="round"></path><path d="M 570.538,82.468 C 583.605,80.441 583.918,81.159 597.207,81.695" stroke-width="8.463" stroke="rgb(33,33,33)" fill="none" stroke-linecap="round"></path><path d="M 597.207,81.695 C 607.769,82.121 607.927,82.228 618.239,84.393" stroke-width="8.567" stroke="rgb(33,33,33)" fill="none" stroke-linecap="round"></path><path d="M 618.239,84.393 C 623.555,85.509 623.940,85.519 628.463,88.258" stroke-width="9.124" stroke="rgb(33,33,33)" fill="none" stroke-linecap="round"></path><path d="M 628.463,88.258 C 630.832,89.692 631.380,90.324 632.023,92.739" stroke-width="9.912" stroke="rgb(33,33,33)" fill="none" stroke-linecap="round"></path><path d="M 632.023,92.739 C 632.461,94.381 632.052,95.152 630.625,96.372" stroke-width="10.754" stroke="rgb(33,33,33)" fill="none" stroke-linecap="round"></path><path d="M 630.625,96.372 C 625.820,100.482 624.951,99.675 619.560,103.399" stroke-width="10.934" stroke="rgb(33,33,33)" fill="none" stroke-linecap="round"></path><path d="M 619.560,103.399 C 606.837,112.189 606.589,111.897 594.397,121.399" stroke-width="9.899" stroke="rgb(33,33,33)" fill="none" stroke-linecap="round"></path><path d="M 594.397,121.399 C 580.084,132.554 580.227,132.773 566.549,144.714" stroke-width="8.841" stroke="rgb(33,33,33)" fill="none" stroke-linecap="round"></path><path d="M 566.549,144.714 C 546.955,161.819 546.618,161.496 527.853,179.491" stroke-width="7.548" stroke="rgb(33,33,33)" fill="none" stroke-linecap="round"></path><path d="M 527.853,179.491 C 510.409,196.218 510.890,196.727 494.130,214.158" stroke-width="7.023" stroke="rgb(33,33,33)" fill="none" stroke-linecap="round"></path><path d="M 494.130,214.158 C 480.725,228.100 481.490,228.900 467.523,242.238" stroke-width="6.837" stroke="rgb(33,33,33)" fill="none" stroke-linecap="round"></path><path d="M 467.523,242.238 C 456.186,253.064 455.663,252.535 443.523,262.486" stroke-width="6.836" stroke="rgb(33,33,33)" fill="none" stroke-linecap="round"></path><path d="M 443.523,262.486 C 435.673,268.921 435.604,268.842 427.542,275.010" stroke-width="7.172" stroke="rgb(33,33,33)" fill="none" stroke-linecap="round"></path><path d="M 427.542,275.010 C 421.371,279.731 421.699,280.582 415.058,284.265" stroke-width="7.746" stroke="rgb(33,33,33)" fill="none" stroke-linecap="round"></path><path d="M 415.058,284.265 C 412.477,285.697 411.709,285.707 409.097,285.240" stroke-width="8.493" stroke="rgb(33,33,33)" fill="none" stroke-linecap="round"></path><path d="M 409.097,285.240 C 407.782,285.005 407.061,284.210 407.203,282.861" stroke-width="9.449" stroke="rgb(33,33,33)" fill="none" stroke-linecap="round"></path><path d="M 437.471,211.533 C 437.286,196.651 438.422,196.537 437.102,181.770" stroke-width="17.930" stroke="rgb(33,33,33)" fill="none" stroke-linecap="round"></path><path d="M 437.102,181.770 C 436.081,170.357 435.136,170.432 432.789,159.173" stroke-width="14.557" stroke="rgb(33,33,33)" fill="none" stroke-linecap="round"></path><path d="M 432.789,159.173 C 430.711,149.202 431.233,149.017 428.252,139.310" stroke-width="13.043" stroke="rgb(33,33,33)" fill="none" stroke-linecap="round"></path><path d="M 428.252,139.310 C 425.772,131.233 424.973,131.491 421.867,123.604" stroke-width="12.336" stroke="rgb(33,33,33)" fill="none" stroke-linecap="round"></path><path d="M 421.867,123.604 C 419.517,117.637 418.795,117.742 417.341,111.603" stroke-width="12.230" stroke="rgb(33,33,33)" fill="none" stroke-linecap="round"></path><path d="M 417.341,111.603 C 416.605,108.496 416.297,107.794 417.486,105.112" stroke-width="12.611" stroke="rgb(33,33,33)" fill="none" stroke-linecap="round"></path><path d="M 417.486,105.112 C 418.448,102.942 419.122,102.145 421.642,101.898" stroke-width="13.095" stroke="rgb(33,33,33)" fill="none" stroke-linecap="round"></path><path d="M 421.642,101.898 C 432.144,100.867 432.699,101.166 443.529,102.555" stroke-width="11.949" stroke="rgb(33,33,33)" fill="none" stroke-linecap="round"></path><path d="M 443.529,102.555 C 462.470,104.984 462.545,105.215 481.184,109.535" stroke-width="9.953" stroke="rgb(33,33,33)" fill="none" stroke-linecap="round"></path><path d="M 481.184,109.535 C 505.257,115.114 505.221,115.423 528.953,122.354" stroke-width="8.404" stroke="rgb(33,33,33)" fill="none" stroke-linecap="round"></path><path d="M 528.953,122.354 C 550.832,128.744 550.783,128.957 572.406,136.176" stroke-width="7.601" stroke="rgb(33,33,33)" fill="none" stroke-linecap="round"></path><path d="M 572.406,136.176 C 589.998,142.049 589.854,142.474 607.383,148.537" stroke-width="7.317" stroke="rgb(33,33,33)" fill="none" stroke-linecap="round"></path><path d="M 607.383,148.537 C 621.224,153.324 621.327,153.035 635.146,157.877" stroke-width="7.340" stroke="rgb(33,33,33)" fill="none" stroke-linecap="round"></path><path d="M 635.146,157.877 C 640.853,159.877 641.092,159.546 646.436,162.221" stroke-width="7.916" stroke="rgb(33,33,33)" fill="none" stroke-linecap="round"></path><path d="M 646.436,162.221 C 648.544,163.276 649.876,164.100 650.051,165.337" stroke-width="8.794" stroke="rgb(33,33,33)" fill="none" stroke-linecap="round"></path><path d="M 650.051,165.337 C 650.168,166.165 648.570,165.969 647.021,166.351" stroke-width="9.726" stroke="rgb(33,33,33)" fill="none" stroke-linecap="round"></path><path d="M 647.021,166.351 C 643.140,167.307 642.914,166.600 639.190,168.012" stroke-width="10.332" stroke="rgb(33,33,33)" fill="none" stroke-linecap="round"></path><path d="M 639.190,168.012 C 630.285,171.387 629.990,171.114 621.763,175.925" stroke-width="10.160" stroke="rgb(33,33,33)" fill="none" stroke-linecap="round"></path><path d="M 621.763,175.925 C 611.008,182.215 610.926,182.355 601.226,190.214" stroke-width="9.695" stroke="rgb(33,33,33)" fill="none" stroke-linecap="round"></path><path d="M 601.226,190.214 C 588.220,200.752 588.516,201.179 576.351,212.719" stroke-width="8.938" stroke="rgb(33,33,33)" fill="none" stroke-linecap="round"></path><path d="M 576.351,212.719 C 563.650,224.766 564.648,225.887 551.494,237.388" stroke-width="8.167" stroke="rgb(33,33,33)" fill="none" stroke-linecap="round"></path><path d="M 551.494,237.388 C 539.032,248.284 538.789,248.162 525.118,257.514" stroke-width="7.867" stroke="rgb(33,33,33)" fill="none" stroke-linecap="round"></path><path d="M 525.118,257.514 C 512.881,265.885 512.641,265.614 499.679,272.835" stroke-width="7.699" stroke="rgb(33,33,33)" fill="none" stroke-linecap="round"></path><path d="M 499.679,272.835 C 489.302,278.616 489.146,278.359 478.440,283.519" stroke-width="7.837" stroke="rgb(33,33,33)" fill="none" stroke-linecap="round"></path><path d="M 478.440,283.519 C 470.181,287.500 470.282,287.867 461.749,291.117" stroke-width="8.156" stroke="rgb(33,33,33)" fill="none" stroke-linecap="round"></path><path d="M 466.448,269.461 C 458.853,257.965 459.427,257.547 451.259,246.470" stroke-width="17.996" stroke="rgb(33,33,33)" fill="none" stroke-linecap="round"></path><path d="M 451.259,246.470 C 440.983,232.534 441.170,232.266 429.560,219.434" stroke-width="13.428" stroke="rgb(33,33,33)" fill="none" stroke-linecap="round"></path><path d="M 429.560,219.434 C 417.251,205.830 417.327,205.534 403.420,193.598" stroke-width="10.853" stroke="rgb(33,33,33)" fill="none" stroke-linecap="round"></path><path d="M 403.420,193.598 C 390.820,182.784 390.241,183.393 376.548,173.933" stroke-width="9.715" stroke="rgb(33,33,33)" fill="none" stroke-linecap="round"></path><path d="M 376.548,173.933 C 364.549,165.644 364.839,164.907 352.037,158.100" stroke-width="9.239" stroke="rgb(33,33,33)" fill="none" stroke-linecap="round"></path><path d="M 352.037,158.100 C 344.617,154.155 344.091,155.203 336.103,152.428" stroke-width="9.354" stroke="rgb(33,33,33)" fill="none" stroke-linecap="round"></path><path d="M 336.103,152.428 C 333.308,151.457 332.252,150.922 330.471,150.609" stroke-width="10.117" stroke="rgb(33,33,33)" fill="none" stroke-linecap="round"></path><path d="M 330.471,150.609 C 330.008,150.528 330.935,151.283 331.615,151.639" stroke-width="11.131" stroke="rgb(33,33,33)" fill="none" stroke-linecap="round"></path><path d="M 331.615,151.639 C 340.469,156.277 340.637,156.000 349.539,160.597" stroke-width="10.708" stroke="rgb(33,33,33)" fill="none" stroke-linecap="round"></path><path d="M 349.539,160.597 C 370.740,171.546 370.433,172.161 391.820,182.731" stroke-width="8.768" stroke="rgb(33,33,33)" fill="none" stroke-linecap="round"></path><path d="M 391.820,182.731 C 415.398,194.383 415.900,193.367 439.469,205.041" stroke-width="7.693" stroke="rgb(33,33,33)" fill="none" stroke-linecap="round"></path><path d="M 439.469,205.041 C 471.549,220.930 471.032,221.990 503.118,237.858" stroke-width="6.750" stroke="rgb(33,33,33)" fill="none" stroke-linecap="round"></path><path d="M 503.118,237.858 C 518.995,245.710 518.897,246.069 535.394,252.482" stroke-width="6.750" stroke="rgb(33,33,33)" fill="none" stroke-linecap="round"></path><path d="M 535.394,252.482 C 559.785,261.963 559.783,263.277 584.893,269.645" stroke-width="6.750" stroke="rgb(33,33,33)" fill="none" stroke-linecap="round"></path><path d="M 584.893,269.645 C 593.257,271.766 594.117,270.746 602.342,269.461" stroke-width="6.750" stroke="rgb(33,33,33)" fill="none" stroke-linecap="round"></path><path d="M 602.342,269.461 C 604.360,269.146 603.703,267.563 605.379,266.445" stroke-width="7.448" stroke="rgb(33,33,33)" fill="none" stroke-linecap="round"></path><path d="M 605.379,266.445 C 605.951,266.064 606.711,266.993 606.838,266.464" stroke-width="8.465" stroke="rgb(33,33,33)" fill="none" stroke-linecap="round"></path><path d="M 606.838,266.464 C 607.191,264.999 606.995,264.260 606.339,262.456" stroke-width="9.369" stroke="rgb(33,33,33)" fill="none" stroke-linecap="round"></path><path d="M 606.339,262.456 C 605.996,261.514 605.589,261.714 604.840,260.971" stroke-width="10.364" stroke="rgb(33,33,33)" fill="none" stroke-linecap="round"></path><path d="M 604.840,260.971 C 603.576,259.716 603.865,259.014 602.314,258.460" stroke-width="11.202" stroke="rgb(33,33,33)" fill="none" stroke-linecap="round"></path><circle r="6" cx="624.3250122070312" cy="307.4129943847656" fill="rgb(33,33,33)"></circle></svg>