<svg xmlns="http://www.w3.org/2000/svg" xmlns:xlink="http://www.w3.org/1999/xlink" viewBox="0 0 360 500"><path d="M 39.435,139.689 C 37.552,156.939 36.923,156.905 35.669,174.190" stroke-width="19.134" stroke="rgb(33,33,33)" fill="none" stroke-linecap="round"></path><path d="M 35.669,174.190 C 35.040,182.857 34.904,182.950 35.669,191.593" stroke-width="16.018" stroke="rgb(33,33,33)" fill="none" stroke-linecap="round"></path><path d="M 35.669,191.593 C 36.736,203.635 36.973,203.693 39.333,215.561" stroke-width="13.531" stroke="rgb(33,33,33)" fill="none" stroke-linecap="round"></path><path d="M 39.333,215.561 C 40.560,221.733 40.939,221.665 42.844,227.672" stroke-width="13.172" stroke="rgb(33,33,33)" fill="none" stroke-linecap="round"></path><path d="M 42.844,227.672 C 44.247,232.096 44.007,232.236 45.948,236.424" stroke-width="13.156" stroke="rgb(33,33,33)" fill="none" stroke-linecap="round"></path><path d="M 45.948,236.424 C 47.391,239.538 47.396,239.692 49.611,242.276" stroke-width="13.497" stroke="rgb(33,33,33)" fill="none" stroke-linecap="round"></path><path d="M 49.611,242.276 C 51.365,244.323 51.481,244.605 53.886,245.686" stroke-width="13.788" stroke="rgb(33,33,33)" fill="none" stroke-linecap="round"></path><path d="M 53.886,245.686 C 56.010,246.641 56.476,246.907 58.669,246.347" stroke-width="14.025" stroke="rgb(33,33,33)" fill="none" stroke-linecap="round"></path><path d="M 58.669,246.347 C 61.259,245.685 61.734,245.422 63.452,243.243" stroke-width="14.197" stroke="rgb(33,33,33)" fill="none" stroke-linecap="round"></path><path d="M 63.452,243.243 C 66.848,238.934 66.745,238.536 68.896,233.371" stroke-width="13.664" stroke="rgb(33,33,33)" fill="none" stroke-linecap="round"></path><path d="M 68.896,233.371 C 70.612,229.249 70.334,229.079 71.186,224.670" stroke-width="13.577" stroke="rgb(33,33,33)" fill="none" stroke-linecap="round"></path><path d="M 71.186,224.670 C 72.217,219.334 72.100,219.296 72.661,213.882" stroke-width="13.311" stroke="rgb(33,33,33)" fill="none" stroke-linecap="round"></path><path d="M 72.661,213.882 C 73.753,203.343 73.499,203.316 74.493,192.764" stroke-width="12.039" stroke="rgb(33,33,33)" fill="none" stroke-linecap="round"></path><path d="M 74.493,192.764 C 75.230,184.946 75.372,184.959 76.122,177.142" stroke-width="11.625" stroke="rgb(33,33,33)" fill="none" stroke-linecap="round"></path><path d="M 76.122,177.142 C 76.746,170.635 76.951,170.638 77.241,164.115" stroke-width="11.744" stroke="rgb(33,33,33)" fill="none" stroke-linecap="round"></path><path d="M 77.241,164.115 C 77.434,159.773 77.617,159.694 77.088,155.413" stroke-width="11.819" stroke="rgb(33,33,33)" fill="none" stroke-linecap="round"></path><path d="M 77.088,155.413 C 76.752,152.697 76.643,152.596 75.511,150.121" stroke-width="12.381" stroke="rgb(33,33,33)" fill="none" stroke-linecap="round"></path><path d="M 75.511,150.121 C 74.735,148.424 74.606,148.358 73.272,147.068" stroke-width="13.060" stroke="rgb(33,33,33)" fill="none" stroke-linecap="round"></path><path d="M 73.272,147.068 C 72.291,146.119 72.125,145.612 70.881,145.643" stroke-width="13.705" stroke="rgb(33,33,33)" fill="none" stroke-linecap="round"></path><path d="M 70.881,145.643 C 69.098,145.688 68.473,145.831 67.217,147.220" stroke-width="14.197" stroke="rgb(33,33,33)" fill="none" stroke-linecap="round"></path><path d="M 67.217,147.220 C 65.369,149.265 65.388,149.685 64.673,152.512" stroke-width="14.267" stroke="rgb(33,33,33)" fill="none" stroke-linecap="round"></path><path d="M 64.673,152.512 C 62.538,160.956 62.373,161.068 61.518,169.763" stroke-width="13.025" stroke="rgb(33,33,33)" fill="none" stroke-linecap="round"></path><path d="M 61.518,169.763 C 60.694,178.140 60.966,178.228 61.314,186.657" stroke-width="12.412" stroke="rgb(33,33,33)" fill="none" stroke-linecap="round"></path><path d="M 61.314,186.657 C 61.678,195.479 61.888,195.490 62.943,204.264" stroke-width="11.900" stroke="rgb(33,33,33)" fill="none" stroke-linecap="round"></path><path d="M 62.943,204.264 C 63.898,212.206 63.777,212.251 65.334,220.090" stroke-width="11.496" stroke="rgb(33,33,33)" fill="none" stroke-linecap="round"></path><path d="M 65.334,220.090 C 66.601,226.474 66.579,226.529 68.591,232.710" stroke-width="11.358" stroke="rgb(33,33,33)" fill="none" stroke-linecap="round"></path><path d="M 68.591,232.710 C 70.115,237.393 70.189,237.426 72.407,241.818" stroke-width="11.664" stroke="rgb(33,33,33)" fill="none" stroke-linecap="round"></path><path d="M 72.407,241.818 C 74.005,244.982 73.734,245.440 76.223,247.823" stroke-width="12.027" stroke="rgb(33,33,33)" fill="none" stroke-linecap="round"></path><path d="M 76.223,247.823 C 78.517,250.020 79.043,250.608 81.973,250.978" stroke-width="12.468" stroke="rgb(33,33,33)" fill="none" stroke-linecap="round"></path><path d="M 81.973,250.978 C 84.080,251.244 84.586,250.610 86.298,249.095" stroke-width="12.995" stroke="rgb(33,33,33)" fill="none" stroke-linecap="round"></path><path d="M 86.298,249.095 C 89.013,246.692 89.190,246.466 90.827,243.141" stroke-width="13.238" stroke="rgb(33,33,33)" fill="none" stroke-linecap="round"></path><path d="M 90.827,243.141 C 94.176,236.340 94.173,236.164 96.271,228.842" stroke-width="12.440" stroke="rgb(33,33,33)" fill="none" stroke-linecap="round"></path><path d="M 96.271,228.842 C 97.964,222.933 97.602,222.796 98.408,216.680" stroke-width="12.406" stroke="rgb(33,33,33)" fill="none" stroke-linecap="round"></path><path d="M 98.408,216.680 C 99.256,210.252 99.091,210.225 99.579,203.755" stroke-width="12.210" stroke="rgb(33,33,33)" fill="none" stroke-linecap="round"></path><path d="M 99.579,203.755 C 100.033,197.732 100.026,197.729 100.291,191.695" stroke-width="12.070" stroke="rgb(33,33,33)" fill="none" stroke-linecap="round"></path><path d="M 100.291,191.695 C 100.509,186.737 100.405,186.733 100.546,181.772" stroke-width="12.093" stroke="rgb(33,33,33)" fill="none" stroke-linecap="round"></path><path d="M 100.546,181.772 C 100.660,177.777 100.761,177.778 100.800,173.783" stroke-width="12.435" stroke="rgb(33,33,33)" fill="none" stroke-linecap="round"></path><path d="M 100.800,173.783 C 100.837,170.069 100.793,170.067 100.698,166.354" stroke-width="12.734" stroke="rgb(33,33,33)" fill="none" stroke-linecap="round"></path><path d="M 100.698,166.354 C 100.564,161.137 100.494,161.139 100.342,155.922" stroke-width="12.567" stroke="rgb(33,33,33)" fill="none" stroke-linecap="round"></path><path d="M 100.342,155.922 C 100.265,153.302 100.272,153.302 100.240,150.681" stroke-width="13.026" stroke="rgb(33,33,33)" fill="none" stroke-linecap="round"></path><path d="M 100.240,150.681 C 100.221,149.129 100.240,149.128 100.240,147.576" stroke-width="13.681" stroke="rgb(33,33,33)" fill="none" stroke-linecap="round"></path><path d="M 100.240,147.576 C 100.240,147.423 100.213,147.418 100.240,147.271" stroke-width="14.592" stroke="rgb(33,33,33)" fill="none" stroke-linecap="round"></path><path d="M 100.240,147.271 C 100.264,147.139 100.284,147.141 100.342,147.017" stroke-width="15.420" stroke="rgb(33,33,33)" fill="none" stroke-linecap="round"></path><path d="M 100.342,147.017 C 100.487,146.708 100.494,146.711 100.647,146.406" stroke-width="16.075" stroke="rgb(33,33,33)" fill="none" stroke-linecap="round"></path><path d="M 100.647,146.406 C 100.952,145.795 100.998,145.813 101.258,145.185" stroke-width="16.547" stroke="rgb(33,33,33)" fill="none" stroke-linecap="round"></path><path d="M 101.258,145.185 C 101.430,144.770 101.334,144.717 101.512,144.320" stroke-width="17.012" stroke="rgb(33,33,33)" fill="none" stroke-linecap="round"></path><path d="M 101.512,144.320 C 101.563,144.208 101.618,144.183 101.716,144.167" stroke-width="17.529" stroke="rgb(33,33,33)" fill="none" stroke-linecap="round"></path><path d="M 101.716,144.167 C 101.771,144.158 101.787,144.206 101.818,144.269" stroke-width="17.984" stroke="rgb(33,33,33)" fill="none" stroke-linecap="round"></path><path d="M 101.818,144.269 C 101.888,144.409 101.891,144.418 101.919,144.574" stroke-width="18.333" stroke="rgb(33,33,33)" fill="none" stroke-linecap="round"></path><path d="M 101.919,144.574 C 101.941,144.698 101.898,144.704 101.919,144.829" stroke-width="18.635" stroke="rgb(33,33,33)" fill="none" stroke-linecap="round"></path><path d="M 101.919,144.829 C 101.949,145.010 102.004,145.001 102.021,145.185" stroke-width="18.855" stroke="rgb(33,33,33)" fill="none" stroke-linecap="round"></path><path d="M 102.021,145.185 C 102.106,146.095 102.094,146.100 102.123,147.017" stroke-width="18.713" stroke="rgb(33,33,33)" fill="none" stroke-linecap="round"></path><path d="M 102.123,147.017 C 102.196,149.281 102.302,149.284 102.225,151.546" stroke-width="18.145" stroke="rgb(33,33,33)" fill="none" stroke-linecap="round"></path><path d="M 102.225,151.546 C 102.073,155.976 101.837,155.968 101.665,160.400" stroke-width="16.823" stroke="rgb(33,33,33)" fill="none" stroke-linecap="round"></path><path d="M 101.665,160.400 C 101.404,167.138 101.337,167.143 101.360,173.885" stroke-width="15.322" stroke="rgb(33,33,33)" fill="none" stroke-linecap="round"></path><path d="M 101.360,173.885 C 101.388,182.078 101.247,182.098 101.767,190.270" stroke-width="13.964" stroke="rgb(33,33,33)" fill="none" stroke-linecap="round"></path><path d="M 101.767,190.270 C 102.265,198.101 102.171,198.146 103.395,205.892" stroke-width="13.108" stroke="rgb(33,33,33)" fill="none" stroke-linecap="round"></path><path d="M 103.395,205.892 C 104.639,213.768 104.748,213.792 106.702,221.515" stroke-width="12.381" stroke="rgb(33,33,33)" fill="none" stroke-linecap="round"></path><path d="M 106.702,221.515 C 107.368,224.147 107.120,224.498 108.636,226.603" stroke-width="12.878" stroke="rgb(33,33,33)" fill="none" stroke-linecap="round"></path><path d="M 108.636,226.603 C 109.740,228.136 110.327,228.749 111.943,228.791" stroke-width="13.432" stroke="rgb(33,33,33)" fill="none" stroke-linecap="round"></path><path d="M 111.943,228.791 C 113.303,228.826 113.679,228.097 114.589,226.756" stroke-width="14.011" stroke="rgb(33,33,33)" fill="none" stroke-linecap="round"></path><path d="M 114.589,226.756 C 116.147,224.459 116.015,224.229 116.879,221.515" stroke-width="14.183" stroke="rgb(33,33,33)" fill="none" stroke-linecap="round"></path><path d="M 116.879,221.515 C 118.000,217.995 117.822,217.923 118.558,214.289" stroke-width="14.166" stroke="rgb(33,33,33)" fill="none" stroke-linecap="round"></path><path d="M 118.558,214.289 C 119.450,209.883 119.388,209.868 120.136,205.434" stroke-width="13.908" stroke="rgb(33,33,33)" fill="none" stroke-linecap="round"></path><path d="M 120.136,205.434 C 121.092,199.767 121.061,199.762 121.967,194.087" stroke-width="13.568" stroke="rgb(33,33,33)" fill="none" stroke-linecap="round"></path><path d="M 121.967,194.087 C 123.096,187.015 123.126,187.019 124.206,179.940" stroke-width="12.960" stroke="rgb(33,33,33)" fill="none" stroke-linecap="round"></path><path d="M 124.206,179.940 C 125.797,169.514 126.043,169.538 127.310,159.077" stroke-width="11.563" stroke="rgb(33,33,33)" fill="none" stroke-linecap="round"></path><path d="M 127.310,159.077 C 127.849,154.628 127.670,154.601 127.819,150.121" stroke-width="11.866" stroke="rgb(33,33,33)" fill="none" stroke-linecap="round"></path><path d="M 127.819,150.121 C 127.899,147.731 128.148,147.638 127.768,145.337" stroke-width="12.488" stroke="rgb(33,33,33)" fill="none" stroke-linecap="round"></path><path d="M 127.768,145.337 C 127.589,144.254 127.266,143.760 126.700,143.353" stroke-width="13.289" stroke="rgb(33,33,33)" fill="none" stroke-linecap="round"></path><path d="M 126.700,143.353 C 126.452,143.175 126.279,143.698 126.140,144.167" stroke-width="14.147" stroke="rgb(33,33,33)" fill="none" stroke-linecap="round"></path><path d="M 126.140,144.167 C 125.440,146.522 125.473,146.563 125.021,149.001" stroke-width="14.519" stroke="rgb(33,33,33)" fill="none" stroke-linecap="round"></path><path d="M 125.021,149.001 C 124.048,154.247 123.927,154.239 123.290,159.535" stroke-width="13.792" stroke="rgb(33,33,33)" fill="none" stroke-linecap="round"></path><path d="M 123.290,159.535 C 122.375,167.139 122.269,167.152 121.917,174.801" stroke-width="12.929" stroke="rgb(33,33,33)" fill="none" stroke-linecap="round"></path><path d="M 121.917,174.801 C 121.557,182.622 121.324,182.681 121.866,190.474" stroke-width="12.445" stroke="rgb(33,33,33)" fill="none" stroke-linecap="round"></path><path d="M 121.866,190.474 C 122.316,196.955 122.182,197.099 123.901,203.348" stroke-width="12.086" stroke="rgb(33,33,33)" fill="none" stroke-linecap="round"></path><path d="M 123.901,203.348 C 125.871,210.507 126.046,210.608 129.244,217.291" stroke-width="11.984" stroke="rgb(33,33,33)" fill="none" stroke-linecap="round"></path><path d="M 129.244,217.291 C 130.600,220.124 130.830,220.153 133.009,222.380" stroke-width="12.331" stroke="rgb(33,33,33)" fill="none" stroke-linecap="round"></path><path d="M 133.009,222.380 C 134.341,223.741 134.626,224.502 136.266,224.466" stroke-width="13.060" stroke="rgb(33,33,33)" fill="none" stroke-linecap="round"></path><path d="M 136.266,224.466 C 138.086,224.426 138.702,223.863 139.929,222.227" stroke-width="13.687" stroke="rgb(33,33,33)" fill="none" stroke-linecap="round"></path><path d="M 139.929,222.227 C 141.755,219.792 141.452,219.372 142.372,216.324" stroke-width="13.274" stroke="rgb(33,33,33)" fill="none" stroke-linecap="round"></path><path d="M 142.372,216.324 C 143.717,211.866 143.671,211.815 144.458,207.215" stroke-width="13.106" stroke="rgb(33,33,33)" fill="none" stroke-linecap="round"></path><path d="M 144.458,207.215 C 145.426,201.561 145.440,201.537 145.883,195.817" stroke-width="12.888" stroke="rgb(33,33,33)" fill="none" stroke-linecap="round"></path><path d="M 145.883,195.817 C 146.305,190.367 146.117,190.347 146.188,184.876" stroke-width="12.770" stroke="rgb(33,33,33)" fill="none" stroke-linecap="round"></path><path d="M 146.188,184.876 C 146.244,180.602 146.326,180.595 146.137,176.327" stroke-width="12.796" stroke="rgb(33,33,33)" fill="none" stroke-linecap="round"></path><path d="M 146.137,176.327 C 145.919,171.384 145.839,171.382 145.374,166.455" stroke-width="12.737" stroke="rgb(33,33,33)" fill="none" stroke-linecap="round"></path><path d="M 145.374,166.455 C 145.152,164.106 145.083,164.113 144.763,161.774" stroke-width="13.258" stroke="rgb(33,33,33)" fill="none" stroke-linecap="round"></path><path d="M 144.763,161.774 C 144.599,160.576 144.795,160.431 144.407,159.382" stroke-width="13.945" stroke="rgb(33,33,33)" fill="none" stroke-linecap="round"></path><path d="M 144.407,159.382 C 144.287,159.057 143.857,158.803 143.746,159.026" stroke-width="14.775" stroke="rgb(33,33,33)" fill="none" stroke-linecap="round"></path><path d="M 143.746,159.026 C 143.450,159.617 143.593,160.017 143.593,161.011" stroke-width="15.326" stroke="rgb(33,33,33)" fill="none" stroke-linecap="round"></path><path d="M 143.593,161.011 C 143.593,162.841 143.480,162.866 143.746,164.674" stroke-width="15.603" stroke="rgb(33,33,33)" fill="none" stroke-linecap="round"></path><path d="M 143.746,164.674 C 144.192,167.700 144.449,167.664 145.018,170.679" stroke-width="15.340" stroke="rgb(33,33,33)" fill="none" stroke-linecap="round"></path><path d="M 145.018,170.679 C 145.797,174.813 145.728,174.826 146.442,178.973" stroke-width="14.944" stroke="rgb(33,33,33)" fill="none" stroke-linecap="round"></path><path d="M 146.442,178.973 C 147.280,183.833 147.074,183.878 148.122,188.693" stroke-width="14.463" stroke="rgb(33,33,33)" fill="none" stroke-linecap="round"></path><path d="M 148.122,188.693 C 149.135,193.344 148.781,193.523 150.564,197.903" stroke-width="14.070" stroke="rgb(33,33,33)" fill="none" stroke-linecap="round"></path><path d="M 150.564,197.903 C 152.520,202.708 152.600,202.883 155.601,207.063" stroke-width="13.735" stroke="rgb(33,33,33)" fill="none" stroke-linecap="round"></path><path d="M 155.601,207.063 C 157.002,209.015 157.271,209.053 159.367,210.167" stroke-width="14.058" stroke="rgb(33,33,33)" fill="none" stroke-linecap="round"></path><path d="M 159.367,210.167 C 160.910,210.987 161.342,211.489 162.878,210.930" stroke-width="14.520" stroke="rgb(33,33,33)" fill="none" stroke-linecap="round"></path><path d="M 162.878,210.930 C 165.463,209.988 165.846,209.505 167.610,207.165" stroke-width="14.745" stroke="rgb(33,33,33)" fill="none" stroke-linecap="round"></path><path d="M 167.610,207.165 C 169.433,204.747 169.193,204.399 170.052,201.414" stroke-width="14.519" stroke="rgb(33,33,33)" fill="none" stroke-linecap="round"></path><path d="M 170.052,201.414 C 171.177,197.504 171.156,197.431 171.579,193.374" stroke-width="14.280" stroke="rgb(33,33,33)" fill="none" stroke-linecap="round"></path><path d="M 171.579,193.374 C 172.047,188.882 172.052,188.827 171.833,184.317" stroke-width="14.110" stroke="rgb(33,33,33)" fill="none" stroke-linecap="round"></path><path d="M 171.833,184.317 C 171.645,180.431 171.895,180.248 170.765,176.582" stroke-width="13.944" stroke="rgb(33,33,33)" fill="none" stroke-linecap="round"></path><path d="M 170.765,176.582 C 169.911,173.811 170.018,173.278 167.864,171.442" stroke-width="14.149" stroke="rgb(33,33,33)" fill="none" stroke-linecap="round"></path><path d="M 167.864,171.442 C 164.675,168.723 164.156,168.857 160.079,167.473" stroke-width="13.925" stroke="rgb(33,33,33)" fill="none" stroke-linecap="round"></path><path d="M 160.079,167.473 C 157.185,166.491 157.004,167.065 153.922,166.710" stroke-width="14.098" stroke="rgb(33,33,33)" fill="none" stroke-linecap="round"></path><path d="M 153.922,166.710 C 151.254,166.403 151.211,166.643 148.580,166.150" stroke-width="14.299" stroke="rgb(33,33,33)" fill="none" stroke-linecap="round"></path><path d="M 148.580,166.150 C 146.046,165.675 146.055,165.550 143.593,164.776" stroke-width="14.564" stroke="rgb(33,33,33)" fill="none" stroke-linecap="round"></path><path d="M 143.593,164.776 C 142.900,164.558 142.837,164.543 142.270,164.165" stroke-width="15.205" stroke="rgb(33,33,33)" fill="none" stroke-linecap="round"></path><path d="M 142.270,164.165 C 142.150,164.085 142.096,163.929 142.219,163.860" stroke-width="15.961" stroke="rgb(33,33,33)" fill="none" stroke-linecap="round"></path><path d="M 142.219,163.860 C 143.139,163.344 143.274,163.393 144.356,162.995" stroke-width="16.256" stroke="rgb(33,33,33)" fill="none" stroke-linecap="round"></path><path d="M 144.356,162.995 C 146.734,162.121 146.760,162.189 149.139,161.316" stroke-width="16.072" stroke="rgb(33,33,33)" fill="none" stroke-linecap="round"></path><path d="M 149.139,161.316 C 152.586,160.052 152.529,159.885 156.008,158.721" stroke-width="15.756" stroke="rgb(33,33,33)" fill="none" stroke-linecap="round"></path><path d="M 156.008,158.721 C 159.602,157.519 159.568,156.932 163.285,156.583" stroke-width="15.233" stroke="rgb(33,33,33)" fill="none" stroke-linecap="round"></path><path d="M 163.285,156.583 C 167.709,156.168 168.454,155.613 172.291,157.194" stroke-width="15.006" stroke="rgb(33,33,33)" fill="none" stroke-linecap="round"></path><path d="M 172.291,157.194 C 174.815,158.234 174.942,159.145 176.006,161.825" stroke-width="14.690" stroke="rgb(33,33,33)" fill="none" stroke-linecap="round"></path><path d="M 176.006,161.825 C 177.639,165.938 177.253,166.257 177.685,170.781" stroke-width="14.478" stroke="rgb(33,33,33)" fill="none" stroke-linecap="round"></path><path d="M 177.685,170.781 C 178.373,177.986 177.824,178.042 178.245,185.283" stroke-width="13.389" stroke="rgb(33,33,33)" fill="none" stroke-linecap="round"></path><path d="M 178.245,185.283 C 178.409,188.092 178.427,188.104 178.855,190.881" stroke-width="13.752" stroke="rgb(33,33,33)" fill="none" stroke-linecap="round"></path><path d="M 178.855,190.881 C 179.063,192.226 178.937,192.424 179.517,193.527" stroke-width="14.379" stroke="rgb(33,33,33)" fill="none" stroke-linecap="round"></path><path d="M 179.517,193.527 C 179.726,193.925 180.159,194.170 180.433,193.883" stroke-width="15.092" stroke="rgb(33,33,33)" fill="none" stroke-linecap="round"></path><path d="M 180.433,193.883 C 181.253,193.025 181.167,192.601 181.705,191.237" stroke-width="15.505" stroke="rgb(33,33,33)" fill="none" stroke-linecap="round"></path><path d="M 181.705,191.237 C 182.744,188.606 182.799,188.611 183.587,185.894" stroke-width="15.337" stroke="rgb(33,33,33)" fill="none" stroke-linecap="round"></path><path d="M 183.587,185.894 C 184.681,182.123 184.566,182.086 185.470,178.261" stroke-width="15.123" stroke="rgb(33,33,33)" fill="none" stroke-linecap="round"></path><path d="M 185.470,178.261 C 186.881,172.291 186.879,172.290 188.218,166.303" stroke-width="13.999" stroke="rgb(33,33,33)" fill="none" stroke-linecap="round"></path><path d="M 188.218,166.303 C 188.660,164.326 188.471,164.247 189.032,162.334" stroke-width="14.414" stroke="rgb(33,33,33)" fill="none" stroke-linecap="round"></path><path d="M 189.032,162.334 C 189.158,161.906 189.496,161.372 189.592,161.621" stroke-width="15.166" stroke="rgb(33,33,33)" fill="none" stroke-linecap="round"></path><path d="M 189.592,161.621 C 189.878,162.364 189.701,162.969 189.795,164.318" stroke-width="15.598" stroke="rgb(33,33,33)" fill="none" stroke-linecap="round"></path><path d="M 189.795,164.318 C 189.955,166.633 189.810,166.650 190.100,168.949" stroke-width="15.571" stroke="rgb(33,33,33)" fill="none" stroke-linecap="round"></path><path d="M 190.100,168.949 C 190.446,171.688 190.500,171.689 191.067,174.394" stroke-width="15.629" stroke="rgb(33,33,33)" fill="none" stroke-linecap="round"></path><path d="M 191.067,174.394 C 191.620,177.032 191.450,177.106 192.339,179.635" stroke-width="15.416" stroke="rgb(33,33,33)" fill="none" stroke-linecap="round"></path><path d="M 192.339,179.635 C 193.104,181.813 193.090,181.908 194.375,183.808" stroke-width="15.511" stroke="rgb(33,33,33)" fill="none" stroke-linecap="round"></path><path d="M 194.375,183.808 C 195.430,185.369 195.368,185.819 197.020,186.556" stroke-width="15.672" stroke="rgb(33,33,33)" fill="none" stroke-linecap="round"></path><path d="M 197.020,186.556 C 199.362,187.600 199.794,187.707 202.363,187.370" stroke-width="15.610" stroke="rgb(33,33,33)" fill="none" stroke-linecap="round"></path><path d="M 202.363,187.370 C 204.831,187.046 204.875,186.551 207.095,185.233" stroke-width="15.590" stroke="rgb(33,33,33)" fill="none" stroke-linecap="round"></path><path d="M 207.095,185.233 C 209.632,183.726 209.558,183.568 211.878,181.721" stroke-width="15.419" stroke="rgb(33,33,33)" fill="none" stroke-linecap="round"></path><path d="M 211.878,181.721 C 214.927,179.294 214.946,179.301 217.832,176.684" stroke-width="15.021" stroke="rgb(33,33,33)" fill="none" stroke-linecap="round"></path><path d="M 217.832,176.684 C 219.576,175.103 219.622,175.121 221.139,173.325" stroke-width="15.181" stroke="rgb(33,33,33)" fill="none" stroke-linecap="round"></path><path d="M 221.139,173.325 C 223.082,171.025 223.203,171.066 224.752,168.491" stroke-width="15.133" stroke="rgb(33,33,33)" fill="none" stroke-linecap="round"></path><path d="M 224.752,168.491 C 226.663,165.316 226.786,165.300 228.059,161.825" stroke-width="14.911" stroke="rgb(33,33,33)" fill="none" stroke-linecap="round"></path><path d="M 228.059,161.825 C 229.508,157.871 229.570,157.797 230.196,153.632" stroke-width="14.544" stroke="rgb(33,33,33)" fill="none" stroke-linecap="round"></path><path d="M 230.196,153.632 C 230.867,149.171 230.721,149.097 230.654,144.574" stroke-width="14.255" stroke="rgb(33,33,33)" fill="none" stroke-linecap="round"></path><path d="M 230.654,144.574 C 230.594,140.574 230.845,140.448 229.942,136.585" stroke-width="14.095" stroke="rgb(33,33,33)" fill="none" stroke-linecap="round"></path><path d="M 229.942,136.585 C 229.115,133.044 228.936,132.840 227.194,129.766" stroke-width="14.267" stroke="rgb(33,33,33)" fill="none" stroke-linecap="round"></path><path d="M 227.194,129.766 C 226.773,129.024 226.093,128.507 225.617,128.952" stroke-width="14.973" stroke="rgb(33,33,33)" fill="none" stroke-linecap="round"></path><path d="M 225.617,128.952 C 224.541,129.958 224.469,130.717 224.090,132.667" stroke-width="14.649" stroke="rgb(33,33,33)" fill="none" stroke-linecap="round"></path><path d="M 224.090,132.667 C 223.401,136.213 223.598,136.298 223.480,139.944" stroke-width="14.550" stroke="rgb(33,33,33)" fill="none" stroke-linecap="round"></path><path d="M 223.480,139.944 C 223.293,145.737 223.371,145.747 223.480,151.546" stroke-width="13.966" stroke="rgb(33,33,33)" fill="none" stroke-linecap="round"></path><path d="M 223.480,151.546 C 223.625,159.282 223.474,159.297 223.989,167.015" stroke-width="13.036" stroke="rgb(33,33,33)" fill="none" stroke-linecap="round"></path><path d="M 223.989,167.015 C 224.568,175.683 224.669,175.684 225.668,184.317" stroke-width="12.379" stroke="rgb(33,33,33)" fill="none" stroke-linecap="round"></path><path d="M 225.668,184.317 C 226.654,192.833 226.851,192.810 227.958,201.313" stroke-width="11.752" stroke="rgb(33,33,33)" fill="none" stroke-linecap="round"></path><path d="M 227.958,201.313 C 229.014,209.424 229.222,209.405 229.993,217.545" stroke-width="11.358" stroke="rgb(33,33,33)" fill="none" stroke-linecap="round"></path><path d="M 229.993,217.545 C 231.053,228.741 231.045,228.756 231.621,239.986" stroke-width="10.615" stroke="rgb(33,33,33)" fill="none" stroke-linecap="round"></path><path d="M 231.621,239.986 C 231.884,245.117 232.016,245.162 231.672,250.266" stroke-width="10.964" stroke="rgb(33,33,33)" fill="none" stroke-linecap="round"></path><path d="M 231.672,250.266 C 231.482,253.075 231.694,253.475 230.553,255.812" stroke-width="11.582" stroke="rgb(33,33,33)" fill="none" stroke-linecap="round"></path><path d="M 230.553,255.812 C 230.066,256.808 229.158,257.402 228.416,256.932" stroke-width="12.446" stroke="rgb(33,33,33)" fill="none" stroke-linecap="round"></path><path d="M 228.416,256.932 C 227.148,256.130 227.225,255.198 226.533,253.268" stroke-width="13.038" stroke="rgb(33,33,33)" fill="none" stroke-linecap="round"></path><path d="M 226.533,253.268 C 225.291,249.804 225.274,249.763 224.548,246.144" stroke-width="13.281" stroke="rgb(33,33,33)" fill="none" stroke-linecap="round"></path><path d="M 224.548,246.144 C 223.518,241.010 223.474,240.982 223.022,235.763" stroke-width="13.057" stroke="rgb(33,33,33)" fill="none" stroke-linecap="round"></path><path d="M 223.022,235.763 C 222.482,229.532 222.484,229.499 222.564,223.245" stroke-width="12.751" stroke="rgb(33,33,33)" fill="none" stroke-linecap="round"></path><path d="M 222.564,223.245 C 222.636,217.617 222.437,217.532 223.327,211.999" stroke-width="12.567" stroke="rgb(33,33,33)" fill="none" stroke-linecap="round"></path><path d="M 223.327,211.999 C 223.989,207.889 223.762,207.620 225.668,203.959" stroke-width="12.755" stroke="rgb(33,33,33)" fill="none" stroke-linecap="round"></path><path d="M 225.668,203.959 C 228.265,198.969 228.630,198.999 232.334,194.697" stroke-width="12.556" stroke="rgb(33,33,33)" fill="none" stroke-linecap="round"></path><path d="M 232.334,194.697 C 235.092,191.493 235.280,191.599 238.592,188.947" stroke-width="12.734" stroke="rgb(33,33,33)" fill="none" stroke-linecap="round"></path><path d="M 238.592,188.947 C 243.574,184.958 243.569,184.881 248.922,181.416" stroke-width="12.409" stroke="rgb(33,33,33)" fill="none" stroke-linecap="round"></path><path d="M 248.922,181.416 C 252.296,179.232 252.419,179.399 256.045,177.650" stroke-width="12.654" stroke="rgb(33,33,33)" fill="none" stroke-linecap="round"></path><path d="M 256.045,177.650 C 259.593,175.938 259.662,176.082 263.271,174.495" stroke-width="12.826" stroke="rgb(33,33,33)" fill="none" stroke-linecap="round"></path><path d="M 263.271,174.495 C 267.244,172.749 267.373,172.995 271.208,170.984" stroke-width="13.027" stroke="rgb(33,33,33)" fill="none" stroke-linecap="round"></path><path d="M 271.208,170.984 C 275.184,168.899 275.418,169.098 278.892,166.303" stroke-width="12.881" stroke="rgb(33,33,33)" fill="none" stroke-linecap="round"></path><path d="M 278.892,166.303 C 282.186,163.653 282.378,163.579 284.743,160.095" stroke-width="13.044" stroke="rgb(33,33,33)" fill="none" stroke-linecap="round"></path><path d="M 284.743,160.095 C 287.110,156.608 287.519,156.462 288.356,152.360" stroke-width="13.076" stroke="rgb(33,33,33)" fill="none" stroke-linecap="round"></path><path d="M 288.356,152.360 C 289.554,146.488 289.689,145.983 288.814,140.147" stroke-width="12.794" stroke="rgb(33,33,33)" fill="none" stroke-linecap="round"></path><path d="M 288.814,140.147 C 288.366,137.154 287.893,136.726 285.710,134.702" stroke-width="13.111" stroke="rgb(33,33,33)" fill="none" stroke-linecap="round"></path><path d="M 285.710,134.702 C 283.695,132.833 283.192,132.473 280.418,132.361" stroke-width="13.467" stroke="rgb(33,33,33)" fill="none" stroke-linecap="round"></path><path d="M 280.418,132.361 C 275.662,132.168 275.111,132.247 270.649,134.092" stroke-width="13.262" stroke="rgb(33,33,33)" fill="none" stroke-linecap="round"></path><path d="M 270.649,134.092 C 266.741,135.708 266.648,136.177 263.678,139.282" stroke-width="13.289" stroke="rgb(33,33,33)" fill="none" stroke-linecap="round"></path><path d="M 263.678,139.282 C 259.932,143.199 259.755,143.337 257.216,148.136" stroke-width="13.081" stroke="rgb(33,33,33)" fill="none" stroke-linecap="round"></path><path d="M 257.216,148.136 C 254.437,153.387 254.125,153.579 253.043,159.382" stroke-width="13.086" stroke="rgb(33,33,33)" fill="none" stroke-linecap="round"></path><path d="M 253.043,159.382 C 252.038,164.774 251.906,165.204 253.043,170.526" stroke-width="12.193" stroke="rgb(33,33,33)" fill="none" stroke-linecap="round"></path><path d="M 253.043,170.526 C 254.119,175.560 254.385,175.958 257.470,180.093" stroke-width="12.350" stroke="rgb(33,33,33)" fill="none" stroke-linecap="round"></path><path d="M 257.470,180.093 C 260.593,184.278 260.985,184.363 265.459,187.166" stroke-width="12.309" stroke="rgb(33,33,33)" fill="none" stroke-linecap="round"></path><path d="M 265.459,187.166 C 271.340,190.851 271.705,190.428 278.180,193.069" stroke-width="11.890" stroke="rgb(33,33,33)" fill="none" stroke-linecap="round"></path><path d="M 167.813,236.781 C 178.881,233.600 178.831,233.417 189.948,230.420" stroke-width="17.630" stroke="rgb(33,33,33)" fill="none" stroke-linecap="round"></path><path d="M 189.948,230.420 C 205.163,226.318 205.174,226.342 220.478,222.583" stroke-width="13.593" stroke="rgb(33,33,33)" fill="none" stroke-linecap="round"></path><circle r="6" cx="308.65899658203125" cy="177.14208984375" fill="rgb(33,33,33)"></circle></svg>