<svg xmlns="http://www.w3.org/2000/svg" xmlns:xlink="http://www.w3.org/1999/xlink" viewBox="0 0 320 500"><path d="M 64.000,214.500 C 62.000,212.500 60.499,208.877 60.000,210.500" stroke-width="19.909" stroke="rgb(33,33,33)" fill="none" stroke-linecap="round"></path><path d="M 60.000,210.500 C 58.499,215.377 60.000,219.000 60.000,227.500" stroke-width="16.684" stroke="rgb(33,33,33)" fill="none" stroke-linecap="round"></path><path d="M 60.000,227.500 C 60.000,240.000 59.222,240.051 60.000,252.500" stroke-width="14.482" stroke="rgb(33,33,33)" fill="none" stroke-linecap="round"></path><path d="M 60.000,252.500 C 60.722,264.051 60.954,264.103 63.000,275.500" stroke-width="10.667" stroke="rgb(33,33,33)" fill="none" stroke-linecap="round"></path><path d="M 63.000,275.500 C 64.454,283.603 65.212,283.454 67.000,291.500" stroke-width="10.587" stroke="rgb(33,33,33)" fill="none" stroke-linecap="round"></path><path d="M 67.000,291.500 C 68.212,296.954 67.650,297.101 69.000,302.500" stroke-width="10.775" stroke="rgb(33,33,33)" fill="none" stroke-linecap="round"></path><path d="M 69.000,302.500 C 69.650,305.101 70.055,304.980 71.000,307.500" stroke-width="11.436" stroke="rgb(33,33,33)" fill="none" stroke-linecap="round"></path><path d="M 71.000,307.500 C 71.555,308.980 71.617,310.883 72.000,310.500" stroke-width="12.260" stroke="rgb(33,33,33)" fill="none" stroke-linecap="round"></path><path d="M 72.000,310.500 C 72.617,309.883 72.885,308.038 73.000,305.500" stroke-width="13.045" stroke="rgb(33,33,33)" fill="none" stroke-linecap="round"></path><path d="M 73.000,305.500 C 73.385,297.038 72.793,296.996 73.000,288.500" stroke-width="12.137" stroke="rgb(33,33,33)" fill="none" stroke-linecap="round"></path><path d="M 73.000,288.500 C 73.293,276.496 73.024,276.462 74.000,264.500" stroke-width="11.142" stroke="rgb(33,33,33)" fill="none" stroke-linecap="round"></path><path d="M 74.000,264.500 C 75.024,251.962 75.406,251.988 77.000,239.500" stroke-width="10.384" stroke="rgb(33,33,33)" fill="none" stroke-linecap="round"></path><path d="M 77.000,239.500 C 78.406,228.488 78.473,228.496 80.000,217.500" stroke-width="9.938" stroke="rgb(33,33,33)" fill="none" stroke-linecap="round"></path><path d="M 80.000,217.500 C 80.973,210.496 81.361,210.526 82.000,203.500" stroke-width="10.143" stroke="rgb(33,33,33)" fill="none" stroke-linecap="round"></path><path d="M 82.000,203.500 C 82.361,199.526 82.000,199.500 82.000,195.500" stroke-width="10.674" stroke="rgb(33,33,33)" fill="none" stroke-linecap="round"></path><path d="M 82.000,195.500 C 82.000,194.500 82.383,193.117 82.000,193.500" stroke-width="11.629" stroke="rgb(33,33,33)" fill="none" stroke-linecap="round"></path><path d="M 82.000,193.500 C 80.883,194.617 80.133,195.822 79.000,198.500" stroke-width="12.187" stroke="rgb(33,33,33)" fill="none" stroke-linecap="round"></path><path d="M 79.000,198.500 C 74.633,208.822 74.175,208.755 71.000,219.500" stroke-width="11.290" stroke="rgb(33,33,33)" fill="none" stroke-linecap="round"></path><path d="M 71.000,219.500 C 67.675,230.755 67.741,230.896 66.000,242.500" stroke-width="10.592" stroke="rgb(33,33,33)" fill="none" stroke-linecap="round"></path><path d="M 66.000,242.500 C 64.741,250.896 65.258,250.993 65.000,259.500" stroke-width="10.554" stroke="rgb(33,33,33)" fill="none" stroke-linecap="round"></path><path d="M 65.000,259.500 C 64.758,267.493 64.022,267.677 65.000,275.500" stroke-width="10.313" stroke="rgb(33,33,33)" fill="none" stroke-linecap="round"></path><path d="M 65.000,275.500 C 65.522,279.677 65.479,280.419 68.000,283.500" stroke-width="10.821" stroke="rgb(33,33,33)" fill="none" stroke-linecap="round"></path><path d="M 68.000,283.500 C 69.979,285.919 70.807,285.816 74.000,286.500" stroke-width="11.402" stroke="rgb(33,33,33)" fill="none" stroke-linecap="round"></path><path d="M 74.000,286.500 C 77.807,287.316 79.385,288.741 82.000,286.500" stroke-width="11.808" stroke="rgb(33,33,33)" fill="none" stroke-linecap="round"></path><path d="M 82.000,286.500 C 86.385,282.741 85.717,280.779 88.000,274.500" stroke-width="11.640" stroke="rgb(33,33,33)" fill="none" stroke-linecap="round"></path><path d="M 88.000,274.500 C 91.717,264.279 91.105,264.029 94.000,253.500" stroke-width="10.954" stroke="rgb(33,33,33)" fill="none" stroke-linecap="round"></path><path d="M 94.000,253.500 C 96.605,244.029 96.618,244.029 99.000,234.500" stroke-width="10.522" stroke="rgb(33,33,33)" fill="none" stroke-linecap="round"></path><path d="M 99.000,234.500 C 100.118,230.029 99.883,229.968 101.000,225.500" stroke-width="10.957" stroke="rgb(33,33,33)" fill="none" stroke-linecap="round"></path><path d="M 101.000,225.500 C 101.383,223.968 101.566,222.283 102.000,222.500" stroke-width="11.803" stroke="rgb(33,33,33)" fill="none" stroke-linecap="round"></path><path d="M 102.000,222.500 C 102.566,222.783 102.880,224.453 103.000,226.500" stroke-width="12.676" stroke="rgb(33,33,33)" fill="none" stroke-linecap="round"></path><path d="M 103.000,226.500 C 103.380,232.953 102.311,233.068 103.000,239.500" stroke-width="12.416" stroke="rgb(33,33,33)" fill="none" stroke-linecap="round"></path><path d="M 103.000,239.500 C 103.811,247.068 103.526,247.354 106.000,254.500" stroke-width="11.940" stroke="rgb(33,33,33)" fill="none" stroke-linecap="round"></path><path d="M 106.000,254.500 C 108.026,260.354 108.045,260.936 112.000,265.500" stroke-width="11.882" stroke="rgb(33,33,33)" fill="none" stroke-linecap="round"></path><path d="M 112.000,265.500 C 114.545,268.436 115.273,268.353 119.000,269.500" stroke-width="12.212" stroke="rgb(33,33,33)" fill="none" stroke-linecap="round"></path><path d="M 119.000,269.500 C 121.773,270.353 123.335,271.609 125.000,269.500" stroke-width="12.644" stroke="rgb(33,33,33)" fill="none" stroke-linecap="round"></path><path d="M 125.000,269.500 C 130.835,262.109 130.492,260.365 134.000,250.500" stroke-width="11.715" stroke="rgb(33,33,33)" fill="none" stroke-linecap="round"></path><path d="M 134.000,250.500 C 138.492,237.865 137.612,237.529 141.000,224.500" stroke-width="10.660" stroke="rgb(33,33,33)" fill="none" stroke-linecap="round"></path><path d="M 141.000,224.500 C 144.112,212.529 144.767,212.622 147.000,200.500" stroke-width="9.981" stroke="rgb(33,33,33)" fill="none" stroke-linecap="round"></path><path d="M 147.000,200.500 C 148.267,193.622 147.611,193.504 148.000,186.500" stroke-width="10.185" stroke="rgb(33,33,33)" fill="none" stroke-linecap="round"></path><path d="M 148.000,186.500 C 148.111,184.504 148.263,181.578 148.000,182.500" stroke-width="11.035" stroke="rgb(33,33,33)" fill="none" stroke-linecap="round"></path><path d="M 148.000,182.500 C 147.263,185.078 146.616,187.953 146.000,193.500" stroke-width="11.652" stroke="rgb(33,33,33)" fill="none" stroke-linecap="round"></path><path d="M 146.000,193.500 C 145.116,201.453 145.216,201.491 145.000,209.500" stroke-width="11.383" stroke="rgb(33,33,33)" fill="none" stroke-linecap="round"></path><path d="M 145.000,209.500 C 144.716,219.991 142.936,220.438 145.000,230.500" stroke-width="10.739" stroke="rgb(33,33,33)" fill="none" stroke-linecap="round"></path><path d="M 145.000,230.500 C 146.936,239.938 147.950,240.182 153.000,248.500" stroke-width="10.437" stroke="rgb(33,33,33)" fill="none" stroke-linecap="round"></path><path d="M 153.000,248.500 C 156.450,254.182 156.660,254.940 162.000,258.500" stroke-width="10.599" stroke="rgb(33,33,33)" fill="none" stroke-linecap="round"></path><path d="M 162.000,258.500 C 165.660,260.940 166.573,260.922 171.000,260.500" stroke-width="11.024" stroke="rgb(33,33,33)" fill="none" stroke-linecap="round"></path><path d="M 171.000,260.500 C 177.073,259.922 179.581,261.115 183.000,256.500" stroke-width="11.080" stroke="rgb(33,33,33)" fill="none" stroke-linecap="round"></path><path d="M 183.000,256.500 C 189.581,247.615 188.116,245.277 191.000,233.500" stroke-width="10.392" stroke="rgb(33,33,33)" fill="none" stroke-linecap="round"></path><path d="M 191.000,233.500 C 194.116,220.777 193.493,220.557 195.000,207.500" stroke-width="9.700" stroke="rgb(33,33,33)" fill="none" stroke-linecap="round"></path><path d="M 195.000,207.500 C 196.493,194.557 196.315,194.512 197.000,181.500" stroke-width="9.302" stroke="rgb(33,33,33)" fill="none" stroke-linecap="round"></path><path d="M 197.000,181.500 C 197.315,175.512 197.000,175.500 197.000,169.500" stroke-width="9.723" stroke="rgb(33,33,33)" fill="none" stroke-linecap="round"></path><path d="M 197.000,169.500 C 197.000,167.500 197.857,166.643 197.000,165.500" stroke-width="10.568" stroke="rgb(33,33,33)" fill="none" stroke-linecap="round"></path><path d="M 197.000,165.500 C 196.357,164.643 195.213,164.807 194.000,165.500" stroke-width="11.452" stroke="rgb(33,33,33)" fill="none" stroke-linecap="round"></path><path d="M 194.000,165.500 C 191.713,166.807 191.068,166.963 190.000,169.500" stroke-width="12.045" stroke="rgb(33,33,33)" fill="none" stroke-linecap="round"></path><path d="M 190.000,169.500 C 187.068,176.463 187.313,176.885 186.000,184.500" stroke-width="11.645" stroke="rgb(33,33,33)" fill="none" stroke-linecap="round"></path><path d="M 186.000,184.500 C 184.813,191.385 185.467,191.498 185.000,198.500" stroke-width="11.530" stroke="rgb(33,33,33)" fill="none" stroke-linecap="round"></path><path d="M 185.000,198.500 C 184.467,206.498 184.308,206.494 184.000,214.500" stroke-width="11.290" stroke="rgb(33,33,33)" fill="none" stroke-linecap="round"></path><path d="M 184.000,214.500 C 183.808,219.494 184.000,219.500 184.000,224.500" stroke-width="11.506" stroke="rgb(33,33,33)" fill="none" stroke-linecap="round"></path><path d="M 184.000,224.500 C 184.000,227.000 184.000,227.000 184.000,229.500" stroke-width="12.149" stroke="rgb(33,33,33)" fill="none" stroke-linecap="round"></path><path d="M 184.000,229.500 C 184.000,231.000 184.000,231.000 184.000,232.500" stroke-width="12.909" stroke="rgb(33,33,33)" fill="none" stroke-linecap="round"></path><path d="M 184.000,232.500 C 184.000,233.500 183.667,233.833 184.000,234.500" stroke-width="13.696" stroke="rgb(33,33,33)" fill="none" stroke-linecap="round"></path><path d="M 184.000,234.500 C 184.167,234.833 184.500,234.500 185.000,234.500" stroke-width="14.613" stroke="rgb(33,33,33)" fill="none" stroke-linecap="round"></path><path d="M 185.000,234.500 C 187.000,234.500 187.444,235.389 189.000,234.500" stroke-width="14.938" stroke="rgb(33,33,33)" fill="none" stroke-linecap="round"></path><path d="M 189.000,234.500 C 190.944,233.389 190.821,232.689 192.000,230.500" stroke-width="14.987" stroke="rgb(33,33,33)" fill="none" stroke-linecap="round"></path><path d="M 192.000,230.500 C 194.321,226.189 194.172,226.069 196.000,221.500" stroke-width="14.497" stroke="rgb(33,33,33)" fill="none" stroke-linecap="round"></path><path d="M 196.000,221.500 C 198.172,216.069 198.217,216.071 200.000,210.500" stroke-width="13.834" stroke="rgb(33,33,33)" fill="none" stroke-linecap="round"></path><path d="M 200.000,210.500 C 202.217,203.571 201.773,203.427 204.000,196.500" stroke-width="13.039" stroke="rgb(33,33,33)" fill="none" stroke-linecap="round"></path><path d="M 204.000,196.500 C 206.273,189.427 206.871,189.596 209.000,182.500" stroke-width="12.521" stroke="rgb(33,33,33)" fill="none" stroke-linecap="round"></path><path d="M 209.000,182.500 C 209.871,179.596 209.624,179.510 210.000,176.500" stroke-width="12.969" stroke="rgb(33,33,33)" fill="none" stroke-linecap="round"></path><path d="M 210.000,176.500 C 210.124,175.510 209.667,175.167 210.000,174.500" stroke-width="13.721" stroke="rgb(33,33,33)" fill="none" stroke-linecap="round"></path><path d="M 210.000,174.500 C 210.167,174.167 210.944,174.056 211.000,174.500" stroke-width="14.543" stroke="rgb(33,33,33)" fill="none" stroke-linecap="round"></path><path d="M 211.000,174.500 C 211.444,178.056 210.800,178.508 211.000,182.500" stroke-width="14.879" stroke="rgb(33,33,33)" fill="none" stroke-linecap="round"></path><path d="M 211.000,182.500 C 211.300,188.508 211.500,188.500 212.000,194.500" stroke-width="14.069" stroke="rgb(33,33,33)" fill="none" stroke-linecap="round"></path><path d="M 212.000,194.500 C 212.500,200.500 212.700,200.492 213.000,206.500" stroke-width="13.562" stroke="rgb(33,33,33)" fill="none" stroke-linecap="round"></path><path d="M 213.000,206.500 C 213.200,210.492 213.235,210.513 213.000,214.500" stroke-width="13.550" stroke="rgb(33,33,33)" fill="none" stroke-linecap="round"></path><path d="M 213.000,214.500 C 212.735,219.013 214.729,220.430 212.000,223.500" stroke-width="13.481" stroke="rgb(33,33,33)" fill="none" stroke-linecap="round"></path><path d="M 212.000,223.500 C 206.729,229.430 204.771,228.515 197.000,232.500" stroke-width="12.597" stroke="rgb(33,33,33)" fill="none" stroke-linecap="round"></path><path d="M 197.000,232.500 C 185.271,238.515 184.916,237.826 173.000,243.500" stroke-width="11.271" stroke="rgb(33,33,33)" fill="none" stroke-linecap="round"></path><path d="M 173.000,243.500 C 163.916,247.826 163.800,247.637 155.000,252.500" stroke-width="10.721" stroke="rgb(33,33,33)" fill="none" stroke-linecap="round"></path><path d="M 155.000,252.500 C 144.800,258.137 144.383,257.676 135.000,264.500" stroke-width="10.199" stroke="rgb(33,33,33)" fill="none" stroke-linecap="round"></path><path d="M 135.000,264.500 C 127.883,269.676 128.248,270.252 122.000,276.500" stroke-width="10.077" stroke="rgb(33,33,33)" fill="none" stroke-linecap="round"></path><path d="M 122.000,276.500 C 117.748,280.752 117.753,280.809 114.000,285.500" stroke-width="10.388" stroke="rgb(33,33,33)" fill="none" stroke-linecap="round"></path></svg>