<svg xmlns="http://www.w3.org/2000/svg" xmlns:xlink="http://www.w3.org/1999/xlink" viewBox="0 0 800 500"><path d="M 150.000,248.000 C 150.000,247.500 150.000,247.500 150.000,247.000" stroke-width="20.229" stroke="rgb(33,33,33)" fill="none" stroke-linecap="round"></path><path d="M 150.000,247.000 C 150.000,246.500 150.000,246.500 150.000,246.000" stroke-width="19.794" stroke="rgb(33,33,33)" fill="none" stroke-linecap="round"></path><path d="M 150.000,246.000 C 150.000,245.500 149.691,245.309 150.000,245.000" stroke-width="19.459" stroke="rgb(33,33,33)" fill="none" stroke-linecap="round"></path><path d="M 150.000,245.000 C 150.691,244.309 151.309,244.691 152.000,244.000" stroke-width="18.469" stroke="rgb(33,33,33)" fill="none" stroke-linecap="round"></path><path d="M 152.000,244.000 C 152.309,243.691 151.880,243.481 152.000,243.000" stroke-width="18.420" stroke="rgb(33,33,33)" fill="none" stroke-linecap="round"></path><path d="M 152.000,243.000 C 152.380,241.481 152.414,241.464 153.000,240.000" stroke-width="17.310" stroke="rgb(33,33,33)" fill="none" stroke-linecap="round"></path><path d="M 153.000,240.000 C 153.414,238.964 153.338,238.883 154.000,238.000" stroke-width="17.212" stroke="rgb(33,33,33)" fill="none" stroke-linecap="round"></path><path d="M 154.000,238.000 C 154.838,236.883 155.292,237.180 156.000,236.000" stroke-width="16.390" stroke="rgb(33,33,33)" fill="none" stroke-linecap="round"></path><path d="M 156.000,236.000 C 156.792,234.680 156.500,234.500 157.000,233.000" stroke-width="16.179" stroke="rgb(33,33,33)" fill="none" stroke-linecap="round"></path><path d="M 157.000,233.000 C 157.500,231.500 157.208,231.320 158.000,230.000" stroke-width="15.497" stroke="rgb(33,33,33)" fill="none" stroke-linecap="round"></path><path d="M 158.000,230.000 C 158.708,228.820 159.225,229.162 160.000,228.000" stroke-width="15.479" stroke="rgb(33,33,33)" fill="none" stroke-linecap="round"></path><path d="M 160.000,228.000 C 161.225,226.162 161.121,226.050 162.000,224.000" stroke-width="14.734" stroke="rgb(33,33,33)" fill="none" stroke-linecap="round"></path><path d="M 162.000,224.000 C 162.621,222.550 162.309,222.382 163.000,221.000" stroke-width="14.860" stroke="rgb(33,33,33)" fill="none" stroke-linecap="round"></path><path d="M 163.000,221.000 C 163.309,220.382 163.691,220.618 164.000,220.000" stroke-width="15.219" stroke="rgb(33,33,33)" fill="none" stroke-linecap="round"></path><path d="M 164.000,220.000 C 164.691,218.618 164.208,218.320 165.000,217.000" stroke-width="15.252" stroke="rgb(33,33,33)" fill="none" stroke-linecap="round"></path><path d="M 165.000,217.000 C 165.708,215.820 166.292,216.180 167.000,215.000" stroke-width="14.724" stroke="rgb(33,33,33)" fill="none" stroke-linecap="round"></path><path d="M 167.000,215.000 C 167.792,213.680 167.414,213.464 168.000,212.000" stroke-width="14.914" stroke="rgb(33,33,33)" fill="none" stroke-linecap="round"></path><path d="M 168.000,212.000 C 168.414,210.964 168.500,211.000 169.000,210.000" stroke-width="14.720" stroke="rgb(33,33,33)" fill="none" stroke-linecap="round"></path><path d="M 169.000,210.000 C 169.500,209.000 169.387,208.919 170.000,208.000" stroke-width="15.137" stroke="rgb(33,33,33)" fill="none" stroke-linecap="round"></path><path d="M 170.000,208.000 C 170.387,207.419 170.613,207.581 171.000,207.000" stroke-width="15.262" stroke="rgb(33,33,33)" fill="none" stroke-linecap="round"></path><path d="M 171.000,207.000 C 171.613,206.081 171.500,206.000 172.000,205.000" stroke-width="15.592" stroke="rgb(33,33,33)" fill="none" stroke-linecap="round"></path><path d="M 172.000,205.000 C 172.500,204.000 172.500,204.000 173.000,203.000" stroke-width="14.992" stroke="rgb(33,33,33)" fill="none" stroke-linecap="round"></path><path d="M 173.000,203.000 C 173.500,202.000 173.387,201.919 174.000,201.000" stroke-width="15.366" stroke="rgb(33,33,33)" fill="none" stroke-linecap="round"></path><path d="M 174.000,201.000 C 174.387,200.419 174.500,200.500 175.000,200.000" stroke-width="15.283" stroke="rgb(33,33,33)" fill="none" stroke-linecap="round"></path><path d="M 175.000,200.000 C 176.000,199.000 176.000,199.000 177.000,198.000" stroke-width="15.535" stroke="rgb(33,33,33)" fill="none" stroke-linecap="round"></path><path d="M 177.000,198.000 C 177.500,197.500 177.613,197.581 178.000,197.000" stroke-width="15.416" stroke="rgb(33,33,33)" fill="none" stroke-linecap="round"></path><path d="M 178.000,197.000 C 178.613,196.081 178.387,195.919 179.000,195.000" stroke-width="15.680" stroke="rgb(33,33,33)" fill="none" stroke-linecap="round"></path><path d="M 179.000,195.000 C 179.387,194.419 179.500,194.500 180.000,194.000" stroke-width="15.701" stroke="rgb(33,33,33)" fill="none" stroke-linecap="round"></path><path d="M 180.000,194.000 C 181.000,193.000 181.000,193.000 182.000,192.000" stroke-width="15.547" stroke="rgb(33,33,33)" fill="none" stroke-linecap="round"></path><path d="M 182.000,192.000 C 182.500,191.500 182.613,191.581 183.000,191.000" stroke-width="15.902" stroke="rgb(33,33,33)" fill="none" stroke-linecap="round"></path><path d="M 183.000,191.000 C 183.613,190.081 183.387,189.919 184.000,189.000" stroke-width="15.887" stroke="rgb(33,33,33)" fill="none" stroke-linecap="round"></path><path d="M 184.000,189.000 C 184.387,188.419 184.500,188.500 185.000,188.000" stroke-width="16.134" stroke="rgb(33,33,33)" fill="none" stroke-linecap="round"></path><path d="M 185.000,188.000 C 185.500,187.500 185.500,187.500 186.000,187.000" stroke-width="16.390" stroke="rgb(33,33,33)" fill="none" stroke-linecap="round"></path><path d="M 186.000,187.000 C 187.000,186.000 187.000,186.000 188.000,185.000" stroke-width="16.083" stroke="rgb(33,33,33)" fill="none" stroke-linecap="round"></path><path d="M 188.000,185.000 C 188.500,184.500 188.437,184.423 189.000,184.000" stroke-width="16.296" stroke="rgb(33,33,33)" fill="none" stroke-linecap="round"></path><path d="M 189.000,184.000 C 190.437,182.923 190.750,183.250 192.000,182.000" stroke-width="15.768" stroke="rgb(33,33,33)" fill="none" stroke-linecap="round"></path><path d="M 192.000,182.000 C 193.250,180.750 192.879,180.401 194.000,179.000" stroke-width="15.370" stroke="rgb(33,33,33)" fill="none" stroke-linecap="round"></path><path d="M 194.000,179.000 C 194.879,177.901 195.000,178.000 196.000,177.000" stroke-width="15.377" stroke="rgb(33,33,33)" fill="none" stroke-linecap="round"></path><path d="M 196.000,177.000 C 197.000,176.000 197.000,176.000 198.000,175.000" stroke-width="15.292" stroke="rgb(33,33,33)" fill="none" stroke-linecap="round"></path><path d="M 198.000,175.000 C 199.000,174.000 198.901,173.879 200.000,173.000" stroke-width="15.315" stroke="rgb(33,33,33)" fill="none" stroke-linecap="round"></path><path d="M 200.000,173.000 C 201.401,171.879 201.750,172.250 203.000,171.000" stroke-width="14.696" stroke="rgb(33,33,33)" fill="none" stroke-linecap="round"></path><path d="M 203.000,171.000 C 204.250,169.750 203.743,169.257 205.000,168.000" stroke-width="14.647" stroke="rgb(33,33,33)" fill="none" stroke-linecap="round"></path><path d="M 205.000,168.000 C 206.743,166.257 207.084,166.597 209.000,165.000" stroke-width="14.151" stroke="rgb(33,33,33)" fill="none" stroke-linecap="round"></path><path d="M 209.000,165.000 C 210.084,164.097 209.901,163.879 211.000,163.000" stroke-width="14.386" stroke="rgb(33,33,33)" fill="none" stroke-linecap="round"></path><path d="M 211.000,163.000 C 212.401,161.879 212.500,162.000 214.000,161.000" stroke-width="14.298" stroke="rgb(33,33,33)" fill="none" stroke-linecap="round"></path><path d="M 214.000,161.000 C 215.500,160.000 215.622,160.149 217.000,159.000" stroke-width="14.412" stroke="rgb(33,33,33)" fill="none" stroke-linecap="round"></path><path d="M 217.000,159.000 C 218.622,157.649 218.500,157.500 220.000,156.000" stroke-width="13.556" stroke="rgb(33,33,33)" fill="none" stroke-linecap="round"></path><path d="M 220.000,156.000 C 221.000,155.000 220.838,154.775 222.000,154.000" stroke-width="13.890" stroke="rgb(33,33,33)" fill="none" stroke-linecap="round"></path><path d="M 222.000,154.000 C 223.838,152.775 224.062,153.107 226.000,152.000" stroke-width="13.700" stroke="rgb(33,33,33)" fill="none" stroke-linecap="round"></path><path d="M 226.000,152.000 C 227.562,151.107 227.622,151.149 229.000,150.000" stroke-width="13.921" stroke="rgb(33,33,33)" fill="none" stroke-linecap="round"></path><path d="M 229.000,150.000 C 230.622,148.649 230.296,148.217 232.000,147.000" stroke-width="13.206" stroke="rgb(33,33,33)" fill="none" stroke-linecap="round"></path><path d="M 232.000,147.000 C 233.796,145.717 234.111,146.180 236.000,145.000" stroke-width="13.489" stroke="rgb(33,33,33)" fill="none" stroke-linecap="round"></path><path d="M 236.000,145.000 C 238.111,143.680 237.966,143.453 240.000,142.000" stroke-width="12.648" stroke="rgb(33,33,33)" fill="none" stroke-linecap="round"></path><path d="M 240.000,142.000 C 241.466,140.953 241.534,141.047 243.000,140.000" stroke-width="13.215" stroke="rgb(33,33,33)" fill="none" stroke-linecap="round"></path><path d="M 243.000,140.000 C 245.034,138.547 244.966,138.453 247.000,137.000" stroke-width="10.515" stroke="rgb(33,33,33)" fill="none" stroke-linecap="round"></path><path d="M 247.000,137.000 C 248.466,135.953 248.438,135.893 250.000,135.000" stroke-width="11.245" stroke="rgb(33,33,33)" fill="none" stroke-linecap="round"></path><path d="M 250.000,135.000 C 251.938,133.893 252.111,134.180 254.000,133.000" stroke-width="10.862" stroke="rgb(33,33,33)" fill="none" stroke-linecap="round"></path><path d="M 254.000,133.000 C 256.111,131.680 255.808,131.096 258.000,130.000" stroke-width="11.518" stroke="rgb(33,33,33)" fill="none" stroke-linecap="round"></path><path d="M 258.000,130.000 C 259.808,129.096 260.133,129.800 262.000,129.000" stroke-width="10.031" stroke="rgb(33,33,33)" fill="none" stroke-linecap="round"></path><path d="M 262.000,129.000 C 263.633,128.300 263.438,127.893 265.000,127.000" stroke-width="10.768" stroke="rgb(33,33,33)" fill="none" stroke-linecap="round"></path><path d="M 265.000,127.000 C 266.938,125.893 266.950,125.879 269.000,125.000" stroke-width="10.752" stroke="rgb(33,33,33)" fill="none" stroke-linecap="round"></path><path d="M 269.000,125.000 C 270.450,124.379 270.550,124.621 272.000,124.000" stroke-width="11.579" stroke="rgb(33,33,33)" fill="none" stroke-linecap="round"></path><path d="M 272.000,124.000 C 274.050,123.121 274.062,123.107 276.000,122.000" stroke-width="9.896" stroke="rgb(33,33,33)" fill="none" stroke-linecap="round"></path><path d="M 276.000,122.000 C 277.562,121.107 277.362,120.546 279.000,120.000" stroke-width="10.674" stroke="rgb(33,33,33)" fill="none" stroke-linecap="round"></path><path d="M 279.000,120.000 C 280.362,119.546 280.638,120.454 282.000,120.000" stroke-width="10.842" stroke="rgb(33,33,33)" fill="none" stroke-linecap="round"></path><path d="M 282.000,120.000 C 283.638,119.454 283.402,118.799 285.000,118.000" stroke-width="11.643" stroke="rgb(33,33,33)" fill="none" stroke-linecap="round"></path><path d="M 285.000,118.000 C 286.402,117.299 286.455,117.221 288.000,117.000" stroke-width="10.615" stroke="rgb(33,33,33)" fill="none" stroke-linecap="round"></path><path d="M 288.000,117.000 C 289.955,116.721 290.153,117.369 292.000,117.000" stroke-width="11.257" stroke="rgb(33,33,33)" fill="none" stroke-linecap="round"></path><path d="M 292.000,117.000 C 292.653,116.869 292.382,116.309 293.000,116.000" stroke-width="11.844" stroke="rgb(33,33,33)" fill="none" stroke-linecap="round"></path><path d="M 293.000,116.000 C 294.382,115.309 294.460,115.257 296.000,115.000" stroke-width="12.598" stroke="rgb(33,33,33)" fill="none" stroke-linecap="round"></path><path d="M 296.000,115.000 C 297.460,114.757 297.540,115.243 299.000,115.000" stroke-width="11.339" stroke="rgb(33,33,33)" fill="none" stroke-linecap="round"></path><path d="M 299.000,115.000 C 300.540,114.743 300.536,114.586 302.000,114.000" stroke-width="12.073" stroke="rgb(33,33,33)" fill="none" stroke-linecap="round"></path><path d="M 302.000,114.000 C 303.036,113.586 302.932,113.214 304.000,113.000" stroke-width="11.470" stroke="rgb(33,33,33)" fill="none" stroke-linecap="round"></path><path d="M 304.000,113.000 C 305.432,112.714 305.500,113.000 307.000,113.000" stroke-width="12.274" stroke="rgb(33,33,33)" fill="none" stroke-linecap="round"></path><path d="M 307.000,113.000 C 308.000,113.000 308.000,113.000 309.000,113.000" stroke-width="11.774" stroke="rgb(33,33,33)" fill="none" stroke-linecap="round"></path><path d="M 309.000,113.000 C 310.000,113.000 310.000,113.000 311.000,113.000" stroke-width="12.649" stroke="rgb(33,33,33)" fill="none" stroke-linecap="round"></path><path d="M 311.000,113.000 C 312.500,113.000 312.500,113.000 314.000,113.000" stroke-width="11.372" stroke="rgb(33,33,33)" fill="none" stroke-linecap="round"></path><path d="M 314.000,113.000 C 315.000,113.000 315.000,113.000 316.000,113.000" stroke-width="12.233" stroke="rgb(33,33,33)" fill="none" stroke-linecap="round"></path><path d="M 316.000,113.000 C 317.500,113.000 317.500,113.000 319.000,113.000" stroke-width="11.100" stroke="rgb(33,33,33)" fill="none" stroke-linecap="round"></path><path d="M 319.000,113.000 C 319.500,113.000 319.500,113.000 320.000,113.000" stroke-width="12.082" stroke="rgb(33,33,33)" fill="none" stroke-linecap="round"></path><path d="M 320.000,113.000 C 321.500,113.000 321.500,113.000 323.000,113.000" stroke-width="11.632" stroke="rgb(33,33,33)" fill="none" stroke-linecap="round"></path><path d="M 323.000,113.000 C 323.500,113.000 323.500,113.000 324.000,113.000" stroke-width="12.601" stroke="rgb(33,33,33)" fill="none" stroke-linecap="round"></path><path d="M 324.000,113.000 C 325.500,113.000 325.500,113.000 327.000,113.000" stroke-width="12.381" stroke="rgb(33,33,33)" fill="none" stroke-linecap="round"></path><path d="M 327.000,113.000 C 328.000,113.000 328.056,112.764 329.000,113.000" stroke-width="13.134" stroke="rgb(33,33,33)" fill="none" stroke-linecap="round"></path><path d="M 329.000,113.000 C 330.056,113.264 329.944,113.736 331.000,114.000" stroke-width="12.796" stroke="rgb(33,33,33)" fill="none" stroke-linecap="round"></path><path d="M 331.000,114.000 C 331.944,114.236 332.056,113.764 333.000,114.000" stroke-width="13.607" stroke="rgb(33,33,33)" fill="none" stroke-linecap="round"></path><path d="M 333.000,114.000 C 334.056,114.264 334.081,114.387 335.000,115.000" stroke-width="12.545" stroke="rgb(33,33,33)" fill="none" stroke-linecap="round"></path><path d="M 335.000,115.000 C 335.581,115.387 335.419,115.613 336.000,116.000" stroke-width="13.367" stroke="rgb(33,33,33)" fill="none" stroke-linecap="round"></path><path d="M 336.000,116.000 C 336.919,116.613 337.000,116.500 338.000,117.000" stroke-width="12.972" stroke="rgb(33,33,33)" fill="none" stroke-linecap="round"></path><path d="M 338.000,117.000 C 339.000,117.500 339.250,117.250 340.000,118.000" stroke-width="13.695" stroke="rgb(33,33,33)" fill="none" stroke-linecap="round"></path><path d="M 340.000,118.000 C 340.750,118.750 340.250,119.250 341.000,120.000" stroke-width="12.605" stroke="rgb(33,33,33)" fill="none" stroke-linecap="round"></path><path d="M 341.000,120.000 C 341.750,120.750 342.250,120.250 343.000,121.000" stroke-width="13.326" stroke="rgb(33,33,33)" fill="none" stroke-linecap="round"></path><path d="M 343.000,121.000 C 343.750,121.750 343.387,122.081 344.000,123.000" stroke-width="12.941" stroke="rgb(33,33,33)" fill="none" stroke-linecap="round"></path><path d="M 344.000,123.000 C 344.387,123.581 344.500,123.500 345.000,124.000" stroke-width="13.799" stroke="rgb(33,33,33)" fill="none" stroke-linecap="round"></path><path d="M 345.000,124.000 C 346.000,125.000 346.162,124.883 347.000,126.000" stroke-width="10.440" stroke="rgb(33,33,33)" fill="none" stroke-linecap="round"></path><path d="M 347.000,126.000 C 347.662,126.883 347.500,127.000 348.000,128.000" stroke-width="11.298" stroke="rgb(33,33,33)" fill="none" stroke-linecap="round"></path><path d="M 348.000,128.000 C 348.500,129.000 348.500,129.000 349.000,130.000" stroke-width="11.357" stroke="rgb(33,33,33)" fill="none" stroke-linecap="round"></path><path d="M 349.000,130.000 C 349.500,131.000 349.736,130.944 350.000,132.000" stroke-width="12.273" stroke="rgb(33,33,33)" fill="none" stroke-linecap="round"></path><path d="M 350.000,132.000 C 350.236,132.944 349.764,133.056 350.000,134.000" stroke-width="11.774" stroke="rgb(33,33,33)" fill="none" stroke-linecap="round"></path><path d="M 350.000,134.000 C 350.264,135.056 350.786,134.932 351.000,136.000" stroke-width="12.457" stroke="rgb(33,33,33)" fill="none" stroke-linecap="round"></path><path d="M 351.000,136.000 C 351.286,137.432 351.000,137.500 351.000,139.000" stroke-width="11.908" stroke="rgb(33,33,33)" fill="none" stroke-linecap="round"></path><path d="M 351.000,139.000 C 351.000,140.500 350.714,140.568 351.000,142.000" stroke-width="12.706" stroke="rgb(33,33,33)" fill="none" stroke-linecap="round"></path><path d="M 351.000,142.000 C 351.214,143.068 351.821,142.924 352.000,144.000" stroke-width="11.922" stroke="rgb(33,33,33)" fill="none" stroke-linecap="round"></path><path d="M 352.000,144.000 C 352.321,145.924 352.000,146.000 352.000,148.000" stroke-width="12.289" stroke="rgb(33,33,33)" fill="none" stroke-linecap="round"></path><path d="M 352.000,148.000 C 352.000,149.500 352.000,149.500 352.000,151.000" stroke-width="12.139" stroke="rgb(33,33,33)" fill="none" stroke-linecap="round"></path><path d="M 352.000,151.000 C 352.000,152.500 352.000,152.500 352.000,154.000" stroke-width="12.943" stroke="rgb(33,33,33)" fill="none" stroke-linecap="round"></path><path d="M 352.000,154.000 C 352.000,157.500 352.000,157.500 352.000,161.000" stroke-width="9.411" stroke="rgb(33,33,33)" fill="none" stroke-linecap="round"></path><path d="M 352.000,161.000 C 352.000,163.500 352.000,163.500 352.000,166.000" stroke-width="9.810" stroke="rgb(33,33,33)" fill="none" stroke-linecap="round"></path><path d="M 352.000,166.000 C 352.000,168.500 352.000,168.500 352.000,171.000" stroke-width="10.035" stroke="rgb(33,33,33)" fill="none" stroke-linecap="round"></path><path d="M 352.000,171.000 C 352.000,173.000 352.426,173.082 352.000,175.000" stroke-width="10.894" stroke="rgb(33,33,33)" fill="none" stroke-linecap="round"></path><path d="M 352.000,175.000 C 351.426,177.582 350.850,177.451 350.000,180.000" stroke-width="9.099" stroke="rgb(33,33,33)" fill="none" stroke-linecap="round"></path><path d="M 350.000,180.000 C 349.350,181.951 349.447,181.988 349.000,184.000" stroke-width="9.773" stroke="rgb(33,33,33)" fill="none" stroke-linecap="round"></path><path d="M 349.000,184.000 C 348.447,186.488 348.500,186.500 348.000,189.000" stroke-width="9.585" stroke="rgb(33,33,33)" fill="none" stroke-linecap="round"></path><path d="M 348.000,189.000 C 347.500,191.500 347.799,191.603 347.000,194.000" stroke-width="10.402" stroke="rgb(33,33,33)" fill="none" stroke-linecap="round"></path><path d="M 347.000,194.000 C 346.299,196.103 345.701,195.897 345.000,198.000" stroke-width="7.636" stroke="rgb(33,33,33)" fill="none" stroke-linecap="round"></path><path d="M 345.000,198.000 C 344.201,200.397 344.553,200.512 344.000,203.000" stroke-width="8.356" stroke="rgb(33,33,33)" fill="none" stroke-linecap="round"></path><path d="M 344.000,203.000 C 343.553,205.012 343.650,205.049 343.000,207.000" stroke-width="8.636" stroke="rgb(33,33,33)" fill="none" stroke-linecap="round"></path><path d="M 343.000,207.000 C 342.150,209.549 341.770,209.432 341.000,212.000" stroke-width="9.481" stroke="rgb(33,33,33)" fill="none" stroke-linecap="round"></path><path d="M 341.000,212.000 C 340.270,214.432 340.730,214.568 340.000,217.000" stroke-width="8.373" stroke="rgb(33,33,33)" fill="none" stroke-linecap="round"></path><path d="M 340.000,217.000 C 339.230,219.568 339.093,219.542 338.000,222.000" stroke-width="9.030" stroke="rgb(33,33,33)" fill="none" stroke-linecap="round"></path><path d="M 338.000,222.000 C 337.093,224.042 336.907,223.958 336.000,226.000" stroke-width="8.834" stroke="rgb(33,33,33)" fill="none" stroke-linecap="round"></path><path d="M 336.000,226.000 C 334.907,228.458 334.850,228.451 334.000,231.000" stroke-width="9.594" stroke="rgb(33,33,33)" fill="none" stroke-linecap="round"></path><path d="M 334.000,231.000 C 333.350,232.951 333.650,233.049 333.000,235.000" stroke-width="8.801" stroke="rgb(33,33,33)" fill="none" stroke-linecap="round"></path><path d="M 333.000,235.000 C 332.150,237.549 332.198,237.604 331.000,240.000" stroke-width="9.655" stroke="rgb(33,33,33)" fill="none" stroke-linecap="round"></path><path d="M 331.000,240.000 C 330.198,241.604 329.893,241.438 329.000,243.000" stroke-width="7.791" stroke="rgb(33,33,33)" fill="none" stroke-linecap="round"></path><path d="M 329.000,243.000 C 327.893,244.938 328.000,245.000 327.000,247.000" stroke-width="8.603" stroke="rgb(33,33,33)" fill="none" stroke-linecap="round"></path><path d="M 327.000,247.000 C 326.000,249.000 326.000,249.000 325.000,251.000" stroke-width="8.504" stroke="rgb(33,33,33)" fill="none" stroke-linecap="round"></path><path d="M 325.000,251.000 C 324.000,253.000 324.180,253.111 323.000,255.000" stroke-width="9.399" stroke="rgb(33,33,33)" fill="none" stroke-linecap="round"></path><path d="M 323.000,255.000 C 321.680,257.111 321.453,256.966 320.000,259.000" stroke-width="6.926" stroke="rgb(33,33,33)" fill="none" stroke-linecap="round"></path><path d="M 320.000,259.000 C 318.953,260.466 319.047,260.534 318.000,262.000" stroke-width="7.756" stroke="rgb(33,33,33)" fill="none" stroke-linecap="round"></path><path d="M 318.000,262.000 C 316.547,264.034 316.320,263.889 315.000,266.000" stroke-width="7.976" stroke="rgb(33,33,33)" fill="none" stroke-linecap="round"></path><path d="M 315.000,266.000 C 313.820,267.889 314.180,268.111 313.000,270.000" stroke-width="8.824" stroke="rgb(33,33,33)" fill="none" stroke-linecap="round"></path><path d="M 313.000,270.000 C 311.680,272.111 311.642,272.123 310.000,274.000" stroke-width="7.985" stroke="rgb(33,33,33)" fill="none" stroke-linecap="round"></path><path d="M 310.000,274.000 C 308.142,276.123 308.000,276.000 306.000,278.000" stroke-width="8.768" stroke="rgb(33,33,33)" fill="none" stroke-linecap="round"></path><path d="M 306.000,278.000 C 304.500,279.500 304.351,279.378 303.000,281.000" stroke-width="8.689" stroke="rgb(33,33,33)" fill="none" stroke-linecap="round"></path><path d="M 303.000,281.000 C 301.851,282.378 302.257,282.743 301.000,284.000" stroke-width="9.600" stroke="rgb(33,33,33)" fill="none" stroke-linecap="round"></path><path d="M 301.000,284.000 C 299.257,285.743 298.743,285.257 297.000,287.000" stroke-width="8.481" stroke="rgb(33,33,33)" fill="none" stroke-linecap="round"></path><path d="M 297.000,287.000 C 295.743,288.257 296.250,288.750 295.000,290.000" stroke-width="9.351" stroke="rgb(33,33,33)" fill="none" stroke-linecap="round"></path><path d="M 295.000,290.000 C 293.750,291.250 293.500,291.000 292.000,292.000" stroke-width="8.831" stroke="rgb(33,33,33)" fill="none" stroke-linecap="round"></path><path d="M 292.000,292.000 C 290.500,293.000 290.500,293.000 289.000,294.000" stroke-width="9.751" stroke="rgb(33,33,33)" fill="none" stroke-linecap="round"></path><path d="M 289.000,294.000 C 287.500,295.000 287.401,294.879 286.000,296.000" stroke-width="9.113" stroke="rgb(33,33,33)" fill="none" stroke-linecap="round"></path><path d="M 286.000,296.000 C 284.901,296.879 285.099,297.121 284.000,298.000" stroke-width="10.001" stroke="rgb(33,33,33)" fill="none" stroke-linecap="round"></path><path d="M 284.000,298.000 C 282.599,299.121 282.562,299.107 281.000,300.000" stroke-width="9.829" stroke="rgb(33,33,33)" fill="none" stroke-linecap="round"></path><path d="M 281.000,300.000 C 279.062,301.107 278.899,300.860 277.000,302.000" stroke-width="10.654" stroke="rgb(33,33,33)" fill="none" stroke-linecap="round"></path><path d="M 277.000,302.000 C 276.399,302.360 276.618,302.691 276.000,303.000" stroke-width="10.875" stroke="rgb(33,33,33)" fill="none" stroke-linecap="round"></path><path d="M 276.000,303.000 C 274.618,303.691 274.500,303.500 273.000,304.000" stroke-width="11.591" stroke="rgb(33,33,33)" fill="none" stroke-linecap="round"></path><path d="M 273.000,304.000 C 271.500,304.500 271.464,304.414 270.000,305.000" stroke-width="11.197" stroke="rgb(33,33,33)" fill="none" stroke-linecap="round"></path><path d="M 270.000,305.000 C 268.964,305.414 269.000,305.500 268.000,306.000" stroke-width="12.078" stroke="rgb(33,33,33)" fill="none" stroke-linecap="round"></path><path d="M 268.000,306.000 C 267.000,306.500 267.036,306.586 266.000,307.000" stroke-width="12.250" stroke="rgb(33,33,33)" fill="none" stroke-linecap="round"></path><path d="M 266.000,307.000 C 264.536,307.586 264.531,307.694 263.000,308.000" stroke-width="12.770" stroke="rgb(33,33,33)" fill="none" stroke-linecap="round"></path><path d="M 263.000,308.000 C 262.031,308.194 262.000,308.000 261.000,308.000" stroke-width="12.910" stroke="rgb(33,33,33)" fill="none" stroke-linecap="round"></path><path d="M 261.000,308.000 C 260.500,308.000 260.500,308.000 260.000,308.000" stroke-width="13.773" stroke="rgb(33,33,33)" fill="none" stroke-linecap="round"></path><path d="M 260.000,308.000 C 259.000,308.000 259.000,308.000 258.000,308.000" stroke-width="13.415" stroke="rgb(33,33,33)" fill="none" stroke-linecap="round"></path><path d="M 258.000,308.000 C 257.000,308.000 257.000,308.000 256.000,308.000" stroke-width="14.135" stroke="rgb(33,33,33)" fill="none" stroke-linecap="round"></path><path d="M 256.000,308.000 C 255.500,308.000 255.500,308.000 255.000,308.000" stroke-width="14.003" stroke="rgb(33,33,33)" fill="none" stroke-linecap="round"></path><path d="M 255.000,308.000 C 254.000,308.000 254.000,308.000 253.000,308.000" stroke-width="14.616" stroke="rgb(33,33,33)" fill="none" stroke-linecap="round"></path><path d="M 253.000,308.000 C 252.000,308.000 252.000,308.000 251.000,308.000" stroke-width="14.046" stroke="rgb(33,33,33)" fill="none" stroke-linecap="round"></path><path d="M 251.000,308.000 C 250.500,308.000 250.414,308.207 250.000,308.000" stroke-width="14.826" stroke="rgb(33,33,33)" fill="none" stroke-linecap="round"></path><path d="M 250.000,308.000 C 249.414,307.707 249.500,307.500 249.000,307.000" stroke-width="14.120" stroke="rgb(33,33,33)" fill="none" stroke-linecap="round"></path><path d="M 249.000,307.000 C 248.500,306.500 248.500,306.500 248.000,306.000" stroke-width="14.749" stroke="rgb(33,33,33)" fill="none" stroke-linecap="round"></path><path d="M 248.000,306.000 C 247.500,305.500 247.387,305.581 247.000,305.000" stroke-width="14.791" stroke="rgb(33,33,33)" fill="none" stroke-linecap="round"></path><path d="M 247.000,305.000 C 246.387,304.081 246.305,304.067 246.000,303.000" stroke-width="15.322" stroke="rgb(33,33,33)" fill="none" stroke-linecap="round"></path><path d="M 246.000,303.000 C 245.305,300.567 245.553,300.488 245.000,298.000" stroke-width="11.459" stroke="rgb(33,33,33)" fill="none" stroke-linecap="round"></path><path d="M 245.000,298.000 C 244.553,295.988 244.226,296.034 244.000,294.000" stroke-width="11.938" stroke="rgb(33,33,33)" fill="none" stroke-linecap="round"></path><path d="M 244.000,294.000 C 243.726,291.534 244.000,291.500 244.000,289.000" stroke-width="11.207" stroke="rgb(33,33,33)" fill="none" stroke-linecap="round"></path><path d="M 244.000,289.000 C 244.000,286.500 244.000,286.500 244.000,284.000" stroke-width="11.881" stroke="rgb(33,33,33)" fill="none" stroke-linecap="round"></path><path d="M 244.000,284.000 C 244.000,280.500 243.732,280.478 244.000,277.000" stroke-width="8.946" stroke="rgb(33,33,33)" fill="none" stroke-linecap="round"></path><path d="M 244.000,277.000 C 244.232,273.978 244.317,273.959 245.000,271.000" stroke-width="9.546" stroke="rgb(33,33,33)" fill="none" stroke-linecap="round"></path><path d="M 245.000,271.000 C 245.817,267.459 245.778,267.421 247.000,264.000" stroke-width="8.500" stroke="rgb(33,33,33)" fill="none" stroke-linecap="round"></path><path d="M 247.000,264.000 C 248.278,260.421 248.500,260.500 250.000,257.000" stroke-width="9.200" stroke="rgb(33,33,33)" fill="none" stroke-linecap="round"></path><path d="M 250.000,257.000 C 251.500,253.500 251.371,253.440 253.000,250.000" stroke-width="7.438" stroke="rgb(33,33,33)" fill="none" stroke-linecap="round"></path><path d="M 253.000,250.000 C 255.871,243.940 255.771,243.871 259.000,238.000" stroke-width="7.835" stroke="rgb(33,33,33)" fill="none" stroke-linecap="round"></path><path d="M 259.000,238.000 C 261.271,233.871 261.319,233.872 264.000,230.000" stroke-width="6.750" stroke="rgb(33,33,33)" fill="none" stroke-linecap="round"></path><path d="M 264.000,230.000 C 265.819,227.372 266.080,227.560 268.000,225.000" stroke-width="7.108" stroke="rgb(33,33,33)" fill="none" stroke-linecap="round"></path><path d="M 268.000,225.000 C 270.580,221.560 270.457,221.468 273.000,218.000" stroke-width="6.750" stroke="rgb(33,33,33)" fill="none" stroke-linecap="round"></path><path d="M 273.000,218.000 C 275.957,213.968 276.043,214.032 279.000,210.000" stroke-width="7.296" stroke="rgb(33,33,33)" fill="none" stroke-linecap="round"></path><path d="M 279.000,210.000 C 281.543,206.532 281.379,206.407 284.000,203.000" stroke-width="6.750" stroke="rgb(33,33,33)" fill="none" stroke-linecap="round"></path><path d="M 284.000,203.000 C 286.379,199.907 286.376,199.887 289.000,197.000" stroke-width="6.854" stroke="rgb(33,33,33)" fill="none" stroke-linecap="round"></path><path d="M 289.000,197.000 C 291.376,194.387 291.500,194.500 294.000,192.000" stroke-width="6.750" stroke="rgb(33,33,33)" fill="none" stroke-linecap="round"></path><path d="M 294.000,192.000 C 296.500,189.500 296.657,189.636 299.000,187.000" stroke-width="7.482" stroke="rgb(33,33,33)" fill="none" stroke-linecap="round"></path><path d="M 299.000,187.000 C 300.657,185.136 300.246,184.754 302.000,183.000" stroke-width="7.067" stroke="rgb(33,33,33)" fill="none" stroke-linecap="round"></path><path d="M 302.000,183.000 C 304.246,180.754 304.906,181.355 307.000,179.000" stroke-width="7.728" stroke="rgb(33,33,33)" fill="none" stroke-linecap="round"></path><path d="M 307.000,179.000 C 308.906,176.855 308.263,176.315 310.000,174.000" stroke-width="7.542" stroke="rgb(33,33,33)" fill="none" stroke-linecap="round"></path><path d="M 310.000,174.000 C 311.263,172.315 311.500,172.500 313.000,171.000" stroke-width="8.463" stroke="rgb(33,33,33)" fill="none" stroke-linecap="round"></path><path d="M 313.000,171.000 C 314.500,169.500 314.500,169.500 316.000,168.000" stroke-width="7.978" stroke="rgb(33,33,33)" fill="none" stroke-linecap="round"></path><path d="M 316.000,168.000 C 318.000,166.000 318.000,166.000 320.000,164.000" stroke-width="8.640" stroke="rgb(33,33,33)" fill="none" stroke-linecap="round"></path><path d="M 320.000,164.000 C 321.500,162.500 321.500,162.500 323.000,161.000" stroke-width="8.102" stroke="rgb(33,33,33)" fill="none" stroke-linecap="round"></path><path d="M 323.000,161.000 C 324.500,159.500 324.500,159.500 326.000,158.000" stroke-width="9.014" stroke="rgb(33,33,33)" fill="none" stroke-linecap="round"></path><path d="M 326.000,158.000 C 327.500,156.500 327.500,156.500 329.000,155.000" stroke-width="7.116" stroke="rgb(33,33,33)" fill="none" stroke-linecap="round"></path><path d="M 329.000,155.000 C 330.500,153.500 330.500,153.500 332.000,152.000" stroke-width="7.906" stroke="rgb(33,33,33)" fill="none" stroke-linecap="round"></path><path d="M 332.000,152.000 C 333.500,150.500 333.393,150.377 335.000,149.000" stroke-width="7.997" stroke="rgb(33,33,33)" fill="none" stroke-linecap="round"></path><path d="M 335.000,149.000 C 336.893,147.377 336.966,147.453 339.000,146.000" stroke-width="8.888" stroke="rgb(33,33,33)" fill="none" stroke-linecap="round"></path><path d="M 339.000,146.000 C 340.466,144.953 340.766,145.234 342.000,144.000" stroke-width="8.497" stroke="rgb(33,33,33)" fill="none" stroke-linecap="round"></path><path d="M 342.000,144.000 C 342.766,143.234 342.234,142.766 343.000,142.000" stroke-width="9.446" stroke="rgb(33,33,33)" fill="none" stroke-linecap="round"></path><path d="M 343.000,142.000 C 344.234,140.766 344.402,140.799 346.000,140.000" stroke-width="8.899" stroke="rgb(33,33,33)" fill="none" stroke-linecap="round"></path><path d="M 346.000,140.000 C 347.402,139.299 347.644,139.775 349.000,139.000" stroke-width="9.830" stroke="rgb(33,33,33)" fill="none" stroke-linecap="round"></path><path d="M 349.000,139.000 C 351.144,137.775 350.966,137.453 353.000,136.000" stroke-width="9.283" stroke="rgb(33,33,33)" fill="none" stroke-linecap="round"></path><path d="M 353.000,136.000 C 354.466,134.953 354.457,134.926 356.000,134.000" stroke-width="10.071" stroke="rgb(33,33,33)" fill="none" stroke-linecap="round"></path><path d="M 356.000,134.000 C 356.957,133.426 356.964,133.414 358.000,133.000" stroke-width="10.669" stroke="rgb(33,33,33)" fill="none" stroke-linecap="round"></path><path d="M 358.000,133.000 C 359.464,132.414 359.500,132.500 361.000,132.000" stroke-width="11.403" stroke="rgb(33,33,33)" fill="none" stroke-linecap="round"></path><path d="M 361.000,132.000 C 362.500,131.500 362.536,131.586 364.000,131.000" stroke-width="11.384" stroke="rgb(33,33,33)" fill="none" stroke-linecap="round"></path><path d="M 364.000,131.000 C 365.036,130.586 365.043,130.574 366.000,130.000" stroke-width="12.236" stroke="rgb(33,33,33)" fill="none" stroke-linecap="round"></path><path d="M 366.000,130.000 C 367.543,129.074 367.402,128.799 369.000,128.000" stroke-width="11.477" stroke="rgb(33,33,33)" fill="none" stroke-linecap="round"></path><path d="M 369.000,128.000 C 370.402,127.299 370.481,127.434 372.000,127.000" stroke-width="12.198" stroke="rgb(33,33,33)" fill="none" stroke-linecap="round"></path><path d="M 372.000,127.000 C 373.981,126.434 374.055,126.648 376.000,126.000" stroke-width="11.676" stroke="rgb(33,33,33)" fill="none" stroke-linecap="round"></path><path d="M 376.000,126.000 C 377.055,125.648 377.000,125.500 378.000,125.000" stroke-width="12.438" stroke="rgb(33,33,33)" fill="none" stroke-linecap="round"></path><path d="M 378.000,125.000 C 380.000,124.000 379.919,123.780 382.000,123.000" stroke-width="11.732" stroke="rgb(33,33,33)" fill="none" stroke-linecap="round"></path><path d="M 382.000,123.000 C 383.919,122.280 384.019,122.566 386.000,122.000" stroke-width="12.349" stroke="rgb(33,33,33)" fill="none" stroke-linecap="round"></path><path d="M 386.000,122.000 C 387.519,121.566 387.469,121.306 389.000,121.000" stroke-width="11.755" stroke="rgb(33,33,33)" fill="none" stroke-linecap="round"></path><path d="M 389.000,121.000 C 389.969,120.806 390.031,121.194 391.000,121.000" stroke-width="12.587" stroke="rgb(33,33,33)" fill="none" stroke-linecap="round"></path><path d="M 391.000,121.000 C 392.531,120.694 392.460,120.257 394.000,120.000" stroke-width="11.926" stroke="rgb(33,33,33)" fill="none" stroke-linecap="round"></path><path d="M 394.000,120.000 C 395.460,119.757 395.500,120.000 397.000,120.000" stroke-width="12.707" stroke="rgb(33,33,33)" fill="none" stroke-linecap="round"></path><path d="M 397.000,120.000 C 398.000,120.000 398.000,120.000 399.000,120.000" stroke-width="12.090" stroke="rgb(33,33,33)" fill="none" stroke-linecap="round"></path><path d="M 399.000,120.000 C 400.000,120.000 400.000,120.000 401.000,120.000" stroke-width="12.871" stroke="rgb(33,33,33)" fill="none" stroke-linecap="round"></path><path d="M 401.000,120.000 C 402.000,120.000 402.000,120.000 403.000,120.000" stroke-width="12.720" stroke="rgb(33,33,33)" fill="none" stroke-linecap="round"></path><path d="M 403.000,120.000 C 404.000,120.000 404.000,120.000 405.000,120.000" stroke-width="13.549" stroke="rgb(33,33,33)" fill="none" stroke-linecap="round"></path><path d="M 405.000,120.000 C 406.500,120.000 406.500,120.000 408.000,120.000" stroke-width="10.147" stroke="rgb(33,33,33)" fill="none" stroke-linecap="round"></path><path d="M 408.000,120.000 C 408.500,120.000 408.536,119.845 409.000,120.000" stroke-width="11.159" stroke="rgb(33,33,33)" fill="none" stroke-linecap="round"></path><path d="M 409.000,120.000 C 410.036,120.345 410.081,120.387 411.000,121.000" stroke-width="11.482" stroke="rgb(33,33,33)" fill="none" stroke-linecap="round"></path><path d="M 411.000,121.000 C 411.581,121.387 411.500,121.500 412.000,122.000" stroke-width="12.403" stroke="rgb(33,33,33)" fill="none" stroke-linecap="round"></path><path d="M 412.000,122.000 C 412.500,122.500 412.419,122.613 413.000,123.000" stroke-width="12.291" stroke="rgb(33,33,33)" fill="none" stroke-linecap="round"></path><path d="M 413.000,123.000 C 413.919,123.613 414.081,123.387 415.000,124.000" stroke-width="13.065" stroke="rgb(33,33,33)" fill="none" stroke-linecap="round"></path><path d="M 415.000,124.000 C 415.581,124.387 415.500,124.500 416.000,125.000" stroke-width="13.405" stroke="rgb(33,33,33)" fill="none" stroke-linecap="round"></path><path d="M 416.000,125.000 C 416.500,125.500 416.500,125.500 417.000,126.000" stroke-width="14.140" stroke="rgb(33,33,33)" fill="none" stroke-linecap="round"></path><path d="M 417.000,126.000 C 417.500,126.500 417.613,126.419 418.000,127.000" stroke-width="14.063" stroke="rgb(33,33,33)" fill="none" stroke-linecap="round"></path><path d="M 418.000,127.000 C 418.613,127.919 418.387,128.081 419.000,129.000" stroke-width="14.632" stroke="rgb(33,33,33)" fill="none" stroke-linecap="round"></path><path d="M 419.000,129.000 C 419.387,129.581 419.500,129.500 420.000,130.000" stroke-width="14.697" stroke="rgb(33,33,33)" fill="none" stroke-linecap="round"></path><path d="M 420.000,130.000 C 420.500,130.500 420.500,130.500 421.000,131.000" stroke-width="15.364" stroke="rgb(33,33,33)" fill="none" stroke-linecap="round"></path><path d="M 421.000,131.000 C 422.000,132.000 422.000,132.000 423.000,133.000" stroke-width="13.173" stroke="rgb(33,33,33)" fill="none" stroke-linecap="round"></path><path d="M 423.000,133.000 C 423.500,133.500 423.613,133.419 424.000,134.000" stroke-width="13.933" stroke="rgb(33,33,33)" fill="none" stroke-linecap="round"></path><path d="M 424.000,134.000 C 424.613,134.919 424.655,134.964 425.000,136.000" stroke-width="12.766" stroke="rgb(33,33,33)" fill="none" stroke-linecap="round"></path><path d="M 425.000,136.000 C 425.155,136.464 424.739,136.608 425.000,137.000" stroke-width="13.642" stroke="rgb(33,33,33)" fill="none" stroke-linecap="round"></path><path d="M 425.000,137.000 C 425.739,138.108 426.414,137.828 427.000,139.000" stroke-width="12.848" stroke="rgb(33,33,33)" fill="none" stroke-linecap="round"></path><path d="M 427.000,139.000 C 427.414,139.828 426.764,140.056 427.000,141.000" stroke-width="13.576" stroke="rgb(33,33,33)" fill="none" stroke-linecap="round"></path><path d="M 427.000,141.000 C 427.264,142.056 427.426,142.043 428.000,143.000" stroke-width="13.129" stroke="rgb(33,33,33)" fill="none" stroke-linecap="round"></path><path d="M 428.000,143.000 C 428.926,144.543 429.217,144.434 430.000,146.000" stroke-width="13.596" stroke="rgb(33,33,33)" fill="none" stroke-linecap="round"></path><path d="M 430.000,146.000 C 430.217,146.434 429.902,146.512 430.000,147.000" stroke-width="13.887" stroke="rgb(33,33,33)" fill="none" stroke-linecap="round"></path><path d="M 430.000,147.000 C 430.402,149.012 430.352,149.055 431.000,151.000" stroke-width="14.338" stroke="rgb(33,33,33)" fill="none" stroke-linecap="round"></path><path d="M 431.000,151.000 C 431.352,152.055 431.500,152.000 432.000,153.000" stroke-width="13.035" stroke="rgb(33,33,33)" fill="none" stroke-linecap="round"></path><path d="M 432.000,153.000 C 432.500,154.000 432.500,154.000 433.000,155.000" stroke-width="13.613" stroke="rgb(33,33,33)" fill="none" stroke-linecap="round"></path><path d="M 433.000,155.000 C 433.500,156.000 433.586,155.964 434.000,157.000" stroke-width="13.157" stroke="rgb(33,33,33)" fill="none" stroke-linecap="round"></path><path d="M 434.000,157.000 C 434.586,158.464 434.566,158.481 435.000,160.000" stroke-width="13.827" stroke="rgb(33,33,33)" fill="none" stroke-linecap="round"></path><path d="M 435.000,160.000 C 435.566,161.981 435.663,161.980 436.000,164.000" stroke-width="11.351" stroke="rgb(33,33,33)" fill="none" stroke-linecap="round"></path><path d="M 436.000,164.000 C 436.163,164.980 435.764,165.056 436.000,166.000" stroke-width="12.195" stroke="rgb(33,33,33)" fill="none" stroke-linecap="round"></path><path d="M 436.000,166.000 C 436.264,167.056 436.786,166.932 437.000,168.000" stroke-width="11.558" stroke="rgb(33,33,33)" fill="none" stroke-linecap="round"></path><path d="M 437.000,168.000 C 437.286,169.432 436.714,169.568 437.000,171.000" stroke-width="12.354" stroke="rgb(33,33,33)" fill="none" stroke-linecap="round"></path><path d="M 437.000,171.000 C 437.214,172.068 437.586,171.964 438.000,173.000" stroke-width="11.672" stroke="rgb(33,33,33)" fill="none" stroke-linecap="round"></path><path d="M 438.000,173.000 C 438.586,174.464 438.743,174.460 439.000,176.000" stroke-width="12.307" stroke="rgb(33,33,33)" fill="none" stroke-linecap="round"></path><path d="M 439.000,176.000 C 439.243,177.460 438.660,177.641 439.000,179.000" stroke-width="12.152" stroke="rgb(33,33,33)" fill="none" stroke-linecap="round"></path><path d="M 439.000,179.000 C 439.160,179.641 439.840,179.359 440.000,180.000" stroke-width="13.075" stroke="rgb(33,33,33)" fill="none" stroke-linecap="round"></path><path d="M 440.000,180.000 C 440.340,181.359 439.757,181.540 440.000,183.000" stroke-width="9.931" stroke="rgb(33,33,33)" fill="none" stroke-linecap="round"></path><path d="M 440.000,183.000 C 440.257,184.540 440.743,184.460 441.000,186.000" stroke-width="10.722" stroke="rgb(33,33,33)" fill="none" stroke-linecap="round"></path><path d="M 441.000,186.000 C 441.243,187.460 441.000,187.500 441.000,189.000" stroke-width="10.597" stroke="rgb(33,33,33)" fill="none" stroke-linecap="round"></path><path d="M 441.000,189.000 C 441.000,190.500 440.815,190.518 441.000,192.000" stroke-width="11.492" stroke="rgb(33,33,33)" fill="none" stroke-linecap="round"></path><path d="M 441.000,192.000 C 441.315,194.518 441.685,194.482 442.000,197.000" stroke-width="9.554" stroke="rgb(33,33,33)" fill="none" stroke-linecap="round"></path><path d="M 442.000,197.000 C 442.185,198.482 442.000,198.500 442.000,200.000" stroke-width="10.355" stroke="rgb(33,33,33)" fill="none" stroke-linecap="round"></path><path d="M 442.000,200.000 C 442.000,201.500 442.000,201.500 442.000,203.000" stroke-width="10.577" stroke="rgb(33,33,33)" fill="none" stroke-linecap="round"></path><path d="M 442.000,203.000 C 442.000,204.500 442.000,204.500 442.000,206.000" stroke-width="11.485" stroke="rgb(33,33,33)" fill="none" stroke-linecap="round"></path><path d="M 442.000,206.000 C 442.000,207.000 442.000,207.000 442.000,208.000" stroke-width="10.072" stroke="rgb(33,33,33)" fill="none" stroke-linecap="round"></path><path d="M 442.000,208.000 C 442.000,209.000 442.000,209.000 442.000,210.000" stroke-width="10.995" stroke="rgb(33,33,33)" fill="none" stroke-linecap="round"></path><path d="M 442.000,210.000 C 442.000,211.000 442.000,211.000 442.000,212.000" stroke-width="10.809" stroke="rgb(33,33,33)" fill="none" stroke-linecap="round"></path><path d="M 442.000,212.000 C 442.000,213.500 442.000,213.500 442.000,215.000" stroke-width="11.605" stroke="rgb(33,33,33)" fill="none" stroke-linecap="round"></path><path d="M 442.000,215.000 C 442.000,216.500 442.000,216.500 442.000,218.000" stroke-width="11.276" stroke="rgb(33,33,33)" fill="none" stroke-linecap="round"></path><path d="M 442.000,218.000 C 442.000,219.500 442.000,219.500 442.000,221.000" stroke-width="12.033" stroke="rgb(33,33,33)" fill="none" stroke-linecap="round"></path><path d="M 442.000,221.000 C 442.000,221.500 442.217,221.566 442.000,222.000" stroke-width="12.554" stroke="rgb(33,33,33)" fill="none" stroke-linecap="round"></path><path d="M 442.000,222.000 C 441.217,223.566 440.799,223.402 440.000,225.000" stroke-width="13.188" stroke="rgb(33,33,33)" fill="none" stroke-linecap="round"></path><path d="M 440.000,225.000 C 439.299,226.402 439.500,226.500 439.000,228.000" stroke-width="11.607" stroke="rgb(33,33,33)" fill="none" stroke-linecap="round"></path><path d="M 439.000,228.000 C 438.500,229.500 438.586,229.536 438.000,231.000" stroke-width="12.285" stroke="rgb(33,33,33)" fill="none" stroke-linecap="round"></path><path d="M 438.000,231.000 C 437.586,232.036 437.500,232.000 437.000,233.000" stroke-width="12.142" stroke="rgb(33,33,33)" fill="none" stroke-linecap="round"></path><path d="M 437.000,233.000 C 436.500,234.000 436.500,234.000 436.000,235.000" stroke-width="13.018" stroke="rgb(33,33,33)" fill="none" stroke-linecap="round"></path><path d="M 436.000,235.000 C 435.500,236.000 435.500,236.000 435.000,237.000" stroke-width="12.140" stroke="rgb(33,33,33)" fill="none" stroke-linecap="round"></path><path d="M 435.000,237.000 C 434.500,238.000 434.662,238.117 434.000,239.000" stroke-width="12.470" stroke="rgb(33,33,33)" fill="none" stroke-linecap="round"></path><path d="M 434.000,239.000 C 433.162,240.117 432.838,239.883 432.000,241.000" stroke-width="11.999" stroke="rgb(33,33,33)" fill="none" stroke-linecap="round"></path><path d="M 432.000,241.000 C 431.338,241.883 431.613,242.081 431.000,243.000" stroke-width="12.894" stroke="rgb(33,33,33)" fill="none" stroke-linecap="round"></path><path d="M 431.000,243.000 C 430.613,243.581 430.387,243.419 430.000,244.000" stroke-width="12.674" stroke="rgb(33,33,33)" fill="none" stroke-linecap="round"></path><path d="M 430.000,244.000 C 429.387,244.919 429.613,245.081 429.000,246.000" stroke-width="13.253" stroke="rgb(33,33,33)" fill="none" stroke-linecap="round"></path><path d="M 429.000,246.000 C 428.613,246.581 428.387,246.419 428.000,247.000" stroke-width="13.352" stroke="rgb(33,33,33)" fill="none" stroke-linecap="round"></path><path d="M 428.000,247.000 C 427.387,247.919 427.613,248.081 427.000,249.000" stroke-width="14.094" stroke="rgb(33,33,33)" fill="none" stroke-linecap="round"></path><path d="M 427.000,249.000 C 426.613,249.581 426.581,249.613 426.000,250.000" stroke-width="13.583" stroke="rgb(33,33,33)" fill="none" stroke-linecap="round"></path><path d="M 426.000,250.000 C 425.081,250.613 424.750,250.250 424.000,251.000" stroke-width="14.039" stroke="rgb(33,33,33)" fill="none" stroke-linecap="round"></path><path d="M 424.000,251.000 C 423.250,251.750 423.613,252.081 423.000,253.000" stroke-width="13.473" stroke="rgb(33,33,33)" fill="none" stroke-linecap="round"></path><path d="M 423.000,253.000 C 422.613,253.581 422.500,253.500 422.000,254.000" stroke-width="14.248" stroke="rgb(33,33,33)" fill="none" stroke-linecap="round"></path><path d="M 422.000,254.000 C 421.500,254.500 421.581,254.613 421.000,255.000" stroke-width="14.148" stroke="rgb(33,33,33)" fill="none" stroke-linecap="round"></path><path d="M 421.000,255.000 C 420.081,255.613 419.919,255.387 419.000,256.000" stroke-width="14.614" stroke="rgb(33,33,33)" fill="none" stroke-linecap="round"></path><path d="M 419.000,256.000 C 418.419,256.387 418.387,256.419 418.000,257.000" stroke-width="14.682" stroke="rgb(33,33,33)" fill="none" stroke-linecap="round"></path><path d="M 418.000,257.000 C 417.387,257.919 417.613,258.081 417.000,259.000" stroke-width="15.261" stroke="rgb(33,33,33)" fill="none" stroke-linecap="round"></path><path d="M 417.000,259.000 C 416.613,259.581 416.500,259.500 416.000,260.000" stroke-width="13.112" stroke="rgb(33,33,33)" fill="none" stroke-linecap="round"></path><path d="M 416.000,260.000 C 415.500,260.500 415.500,260.500 415.000,261.000" stroke-width="13.879" stroke="rgb(33,33,33)" fill="none" stroke-linecap="round"></path><path d="M 415.000,261.000 C 414.500,261.500 414.581,261.613 414.000,262.000" stroke-width="13.855" stroke="rgb(33,33,33)" fill="none" stroke-linecap="round"></path><path d="M 414.000,262.000 C 413.081,262.613 412.691,262.309 412.000,263.000" stroke-width="14.526" stroke="rgb(33,33,33)" fill="none" stroke-linecap="round"></path><path d="M 412.000,263.000 C 411.691,263.309 412.309,263.691 412.000,264.000" stroke-width="14.308" stroke="rgb(33,33,33)" fill="none" stroke-linecap="round"></path><path d="M 412.000,264.000 C 411.309,264.691 410.750,264.250 410.000,265.000" stroke-width="14.654" stroke="rgb(33,33,33)" fill="none" stroke-linecap="round"></path><path d="M 410.000,265.000 C 409.250,265.750 409.613,266.081 409.000,267.000" stroke-width="14.287" stroke="rgb(33,33,33)" fill="none" stroke-linecap="round"></path><path d="M 409.000,267.000 C 408.613,267.581 408.500,267.500 408.000,268.000" stroke-width="14.938" stroke="rgb(33,33,33)" fill="none" stroke-linecap="round"></path><path d="M 408.000,268.000 C 407.500,268.500 407.500,268.500 407.000,269.000" stroke-width="14.687" stroke="rgb(33,33,33)" fill="none" stroke-linecap="round"></path><path d="M 407.000,269.000 C 406.500,269.500 406.581,269.613 406.000,270.000" stroke-width="15.286" stroke="rgb(33,33,33)" fill="none" stroke-linecap="round"></path><path d="M 406.000,270.000 C 405.081,270.613 404.919,270.387 404.000,271.000" stroke-width="14.764" stroke="rgb(33,33,33)" fill="none" stroke-linecap="round"></path><path d="M 404.000,271.000 C 403.419,271.387 403.423,271.437 403.000,272.000" stroke-width="15.423" stroke="rgb(33,33,33)" fill="none" stroke-linecap="round"></path><path d="M 403.000,272.000 C 401.923,273.437 402.077,273.563 401.000,275.000" stroke-width="12.570" stroke="rgb(33,33,33)" fill="none" stroke-linecap="round"></path><path d="M 401.000,275.000 C 400.577,275.563 400.500,275.500 400.000,276.000" stroke-width="13.406" stroke="rgb(33,33,33)" fill="none" stroke-linecap="round"></path><path d="M 400.000,276.000 C 399.500,276.500 399.586,276.707 399.000,277.000" stroke-width="13.066" stroke="rgb(33,33,33)" fill="none" stroke-linecap="round"></path><path d="M 399.000,277.000 C 398.586,277.207 398.414,276.793 398.000,277.000" stroke-width="13.888" stroke="rgb(33,33,33)" fill="none" stroke-linecap="round"></path><path d="M 398.000,277.000 C 397.414,277.293 397.500,277.500 397.000,278.000" stroke-width="14.230" stroke="rgb(33,33,33)" fill="none" stroke-linecap="round"></path><path d="M 397.000,278.000 C 396.500,278.500 396.500,278.500 396.000,279.000" stroke-width="14.944" stroke="rgb(33,33,33)" fill="none" stroke-linecap="round"></path><path d="M 396.000,279.000 C 395.500,279.500 395.586,279.707 395.000,280.000" stroke-width="14.206" stroke="rgb(33,33,33)" fill="none" stroke-linecap="round"></path><path d="M 395.000,280.000 C 394.586,280.207 394.414,279.793 394.000,280.000" stroke-width="14.906" stroke="rgb(33,33,33)" fill="none" stroke-linecap="round"></path><path d="M 394.000,280.000 C 393.414,280.293 393.586,280.707 393.000,281.000" stroke-width="14.178" stroke="rgb(33,33,33)" fill="none" stroke-linecap="round"></path><path d="M 393.000,281.000 C 392.586,281.207 392.414,280.793 392.000,281.000" stroke-width="14.934" stroke="rgb(33,33,33)" fill="none" stroke-linecap="round"></path><path d="M 392.000,281.000 C 391.414,281.293 391.500,281.500 391.000,282.000" stroke-width="14.199" stroke="rgb(33,33,33)" fill="none" stroke-linecap="round"></path><path d="M 391.000,282.000 C 390.500,282.500 390.586,282.707 390.000,283.000" stroke-width="14.840" stroke="rgb(33,33,33)" fill="none" stroke-linecap="round"></path><path d="M 390.000,283.000 C 389.586,283.207 389.414,282.793 389.000,283.000" stroke-width="15.094" stroke="rgb(33,33,33)" fill="none" stroke-linecap="round"></path><path d="M 389.000,283.000 C 388.414,283.293 388.621,283.793 388.000,284.000" stroke-width="15.720" stroke="rgb(33,33,33)" fill="none" stroke-linecap="round"></path><path d="M 388.000,284.000 C 387.121,284.293 386.879,283.707 386.000,284.000" stroke-width="14.156" stroke="rgb(33,33,33)" fill="none" stroke-linecap="round"></path><path d="M 386.000,284.000 C 385.379,284.207 385.500,284.500 385.000,285.000" stroke-width="14.752" stroke="rgb(33,33,33)" fill="none" stroke-linecap="round"></path><path d="M 385.000,285.000 C 384.500,285.500 384.586,285.707 384.000,286.000" stroke-width="14.543" stroke="rgb(33,33,33)" fill="none" stroke-linecap="round"></path><path d="M 384.000,286.000 C 383.586,286.207 383.500,286.000 383.000,286.000" stroke-width="15.282" stroke="rgb(33,33,33)" fill="none" stroke-linecap="round"></path><path d="M 383.000,286.000 C 382.500,286.000 382.414,285.793 382.000,286.000" stroke-width="13.869" stroke="rgb(33,33,33)" fill="none" stroke-linecap="round"></path><path d="M 382.000,286.000 C 381.414,286.293 381.621,286.793 381.000,287.000" stroke-width="14.587" stroke="rgb(33,33,33)" fill="none" stroke-linecap="round"></path><path d="M 381.000,287.000 C 380.121,287.293 380.000,287.000 379.000,287.000" stroke-width="11.838" stroke="rgb(33,33,33)" fill="none" stroke-linecap="round"></path><path d="M 379.000,287.000 C 378.500,287.000 378.414,286.793 378.000,287.000" stroke-width="12.794" stroke="rgb(33,33,33)" fill="none" stroke-linecap="round"></path><path d="M 378.000,287.000 C 377.414,287.293 377.586,287.707 377.000,288.000" stroke-width="12.596" stroke="rgb(33,33,33)" fill="none" stroke-linecap="round"></path><path d="M 377.000,288.000 C 376.586,288.207 376.500,288.000 376.000,288.000" stroke-width="13.505" stroke="rgb(33,33,33)" fill="none" stroke-linecap="round"></path><path d="M 376.000,288.000 C 375.500,288.000 375.414,287.793 375.000,288.000" stroke-width="13.504" stroke="rgb(33,33,33)" fill="none" stroke-linecap="round"></path><path d="M 375.000,288.000 C 374.414,288.293 374.586,288.707 374.000,289.000" stroke-width="14.276" stroke="rgb(33,33,33)" fill="none" stroke-linecap="round"></path><path d="M 374.000,289.000 C 373.586,289.207 373.500,289.000 373.000,289.000" stroke-width="14.113" stroke="rgb(33,33,33)" fill="none" stroke-linecap="round"></path><path d="M 373.000,289.000 C 372.500,289.000 372.500,289.000 372.000,289.000" stroke-width="14.854" stroke="rgb(33,33,33)" fill="none" stroke-linecap="round"></path><path d="M 372.000,289.000 C 372.000,289.000 372.000,289.000 372.000,289.000" stroke-width="15.691" stroke="rgb(33,33,33)" fill="none" stroke-linecap="round"></path><path d="M 372.000,289.000 C 371.500,289.000 371.500,289.000 371.000,289.000" stroke-width="16.211" stroke="rgb(33,33,33)" fill="none" stroke-linecap="round"></path><path d="M 371.000,289.000 C 371.000,289.000 371.000,289.000 371.000,289.000" stroke-width="16.885" stroke="rgb(33,33,33)" fill="none" stroke-linecap="round"></path><path d="M 371.000,289.000 C 370.500,289.000 370.500,289.000 370.000,289.000" stroke-width="16.883" stroke="rgb(33,33,33)" fill="none" stroke-linecap="round"></path><path d="M 370.000,289.000 C 369.500,289.000 369.500,289.000 369.000,289.000" stroke-width="17.216" stroke="rgb(33,33,33)" fill="none" stroke-linecap="round"></path><path d="M 369.000,289.000 C 369.000,289.000 369.000,289.000 369.000,289.000" stroke-width="17.748" stroke="rgb(33,33,33)" fill="none" stroke-linecap="round"></path><path d="M 369.000,289.000 C 368.500,289.000 368.250,289.250 368.000,289.000" stroke-width="17.876" stroke="rgb(33,33,33)" fill="none" stroke-linecap="round"></path><path d="M 368.000,289.000 C 367.750,288.750 368.207,288.414 368.000,288.000" stroke-width="17.845" stroke="rgb(33,33,33)" fill="none" stroke-linecap="round"></path><path d="M 368.000,288.000 C 367.707,287.414 367.500,287.500 367.000,287.000" stroke-width="17.775" stroke="rgb(33,33,33)" fill="none" stroke-linecap="round"></path><path d="M 367.000,287.000 C 367.000,287.000 367.000,287.000 367.000,287.000" stroke-width="18.220" stroke="rgb(33,33,33)" fill="none" stroke-linecap="round"></path><path d="M 367.000,287.000 C 366.500,286.000 366.345,286.036 366.000,285.000" stroke-width="17.859" stroke="rgb(33,33,33)" fill="none" stroke-linecap="round"></path><path d="M 366.000,285.000 C 365.845,284.536 366.120,284.481 366.000,284.000" stroke-width="17.757" stroke="rgb(33,33,33)" fill="none" stroke-linecap="round"></path><path d="M 366.000,284.000 C 365.620,282.481 365.306,282.531 365.000,281.000" stroke-width="17.310" stroke="rgb(33,33,33)" fill="none" stroke-linecap="round"></path><path d="M 365.000,281.000 C 364.806,280.031 365.000,280.000 365.000,279.000" stroke-width="16.840" stroke="rgb(33,33,33)" fill="none" stroke-linecap="round"></path><path d="M 365.000,279.000 C 365.000,277.500 365.000,277.500 365.000,276.000" stroke-width="16.571" stroke="rgb(33,33,33)" fill="none" stroke-linecap="round"></path><path d="M 365.000,276.000 C 365.000,274.500 365.000,274.500 365.000,273.000" stroke-width="15.850" stroke="rgb(33,33,33)" fill="none" stroke-linecap="round"></path><path d="M 365.000,273.000 C 365.000,271.000 365.000,271.000 365.000,269.000" stroke-width="15.639" stroke="rgb(33,33,33)" fill="none" stroke-linecap="round"></path><path d="M 365.000,269.000 C 365.000,268.000 365.000,268.000 365.000,267.000" stroke-width="15.547" stroke="rgb(33,33,33)" fill="none" stroke-linecap="round"></path><path d="M 365.000,267.000 C 365.000,264.000 365.000,264.000 365.000,261.000" stroke-width="14.988" stroke="rgb(33,33,33)" fill="none" stroke-linecap="round"></path><path d="M 365.000,261.000 C 365.000,260.000 365.000,260.000 365.000,259.000" stroke-width="15.027" stroke="rgb(33,33,33)" fill="none" stroke-linecap="round"></path><path d="M 365.000,259.000 C 365.000,256.500 364.694,256.450 365.000,254.000" stroke-width="14.695" stroke="rgb(33,33,33)" fill="none" stroke-linecap="round"></path><path d="M 365.000,254.000 C 365.194,252.450 365.743,252.540 366.000,251.000" stroke-width="14.171" stroke="rgb(33,33,33)" fill="none" stroke-linecap="round"></path><path d="M 366.000,251.000 C 366.243,249.540 365.789,249.474 366.000,248.000" stroke-width="14.488" stroke="rgb(33,33,33)" fill="none" stroke-linecap="round"></path><path d="M 366.000,248.000 C 366.289,245.974 366.200,245.867 367.000,244.000" stroke-width="13.912" stroke="rgb(33,33,33)" fill="none" stroke-linecap="round"></path><path d="M 367.000,244.000 C 367.700,242.367 368.201,242.598 369.000,241.000" stroke-width="14.096" stroke="rgb(33,33,33)" fill="none" stroke-linecap="round"></path><path d="M 369.000,241.000 C 369.701,239.598 369.445,239.480 370.000,238.000" stroke-width="13.921" stroke="rgb(33,33,33)" fill="none" stroke-linecap="round"></path><path d="M 370.000,238.000 C 370.945,235.480 370.907,235.458 372.000,233.000" stroke-width="13.854" stroke="rgb(33,33,33)" fill="none" stroke-linecap="round"></path><path d="M 372.000,233.000 C 372.907,230.958 373.000,231.000 374.000,229.000" stroke-width="13.080" stroke="rgb(33,33,33)" fill="none" stroke-linecap="round"></path><path d="M 374.000,229.000 C 375.000,227.000 375.093,227.042 376.000,225.000" stroke-width="13.253" stroke="rgb(33,33,33)" fill="none" stroke-linecap="round"></path><path d="M 376.000,225.000 C 377.093,222.542 376.800,222.401 378.000,220.000" stroke-width="12.641" stroke="rgb(33,33,33)" fill="none" stroke-linecap="round"></path><path d="M 378.000,220.000 C 379.300,217.401 379.500,217.500 381.000,215.000" stroke-width="12.827" stroke="rgb(33,33,33)" fill="none" stroke-linecap="round"></path><path d="M 381.000,215.000 C 382.500,212.500 382.385,212.423 384.000,210.000" stroke-width="11.938" stroke="rgb(33,33,33)" fill="none" stroke-linecap="round"></path><path d="M 384.000,210.000 C 385.385,207.923 385.465,207.973 387.000,206.000" stroke-width="12.289" stroke="rgb(33,33,33)" fill="none" stroke-linecap="round"></path><path d="M 387.000,206.000 C 388.965,203.473 389.035,203.527 391.000,201.000" stroke-width="11.412" stroke="rgb(33,33,33)" fill="none" stroke-linecap="round"></path><path d="M 391.000,201.000 C 392.535,199.027 392.615,199.077 394.000,197.000" stroke-width="11.701" stroke="rgb(33,33,33)" fill="none" stroke-linecap="round"></path><path d="M 394.000,197.000 C 395.615,194.577 395.223,194.284 397.000,192.000" stroke-width="11.703" stroke="rgb(33,33,33)" fill="none" stroke-linecap="round"></path><path d="M 397.000,192.000 C 398.723,189.784 399.142,190.123 401.000,188.000" stroke-width="11.735" stroke="rgb(33,33,33)" fill="none" stroke-linecap="round"></path><path d="M 401.000,188.000 C 402.642,186.123 402.500,186.000 404.000,184.000" stroke-width="11.873" stroke="rgb(33,33,33)" fill="none" stroke-linecap="round"></path><path d="M 404.000,184.000 C 405.500,182.000 405.615,182.077 407.000,180.000" stroke-width="11.986" stroke="rgb(33,33,33)" fill="none" stroke-linecap="round"></path><path d="M 407.000,180.000 C 408.615,177.577 408.385,177.423 410.000,175.000" stroke-width="11.931" stroke="rgb(33,33,33)" fill="none" stroke-linecap="round"></path><path d="M 410.000,175.000 C 411.385,172.923 411.615,173.077 413.000,171.000" stroke-width="12.033" stroke="rgb(33,33,33)" fill="none" stroke-linecap="round"></path><path d="M 413.000,171.000 C 414.615,168.577 414.385,168.423 416.000,166.000" stroke-width="11.968" stroke="rgb(33,33,33)" fill="none" stroke-linecap="round"></path><path d="M 416.000,166.000 C 417.385,163.923 417.500,164.000 419.000,162.000" stroke-width="12.246" stroke="rgb(33,33,33)" fill="none" stroke-linecap="round"></path><path d="M 419.000,162.000 C 420.500,160.000 420.615,160.077 422.000,158.000" stroke-width="12.157" stroke="rgb(33,33,33)" fill="none" stroke-linecap="round"></path><path d="M 422.000,158.000 C 423.615,155.577 423.385,155.423 425.000,153.000" stroke-width="12.065" stroke="rgb(33,33,33)" fill="none" stroke-linecap="round"></path><path d="M 425.000,153.000 C 426.385,150.923 426.465,150.973 428.000,149.000" stroke-width="12.244" stroke="rgb(33,33,33)" fill="none" stroke-linecap="round"></path><path d="M 428.000,149.000 C 429.965,146.473 430.168,146.617 432.000,144.000" stroke-width="12.031" stroke="rgb(33,33,33)" fill="none" stroke-linecap="round"></path><path d="M 432.000,144.000 C 433.668,141.617 433.223,141.284 435.000,139.000" stroke-width="12.082" stroke="rgb(33,33,33)" fill="none" stroke-linecap="round"></path><path d="M 435.000,139.000 C 436.723,136.784 437.124,137.111 439.000,135.000" stroke-width="11.894" stroke="rgb(33,33,33)" fill="none" stroke-linecap="round"></path><path d="M 439.000,135.000 C 441.124,132.611 441.000,132.500 443.000,130.000" stroke-width="11.882" stroke="rgb(33,33,33)" fill="none" stroke-linecap="round"></path><path d="M 443.000,130.000 C 445.000,127.500 444.876,127.389 447.000,125.000" stroke-width="11.749" stroke="rgb(33,33,33)" fill="none" stroke-linecap="round"></path><path d="M 447.000,125.000 C 448.876,122.889 449.124,123.111 451.000,121.000" stroke-width="11.772" stroke="rgb(33,33,33)" fill="none" stroke-linecap="round"></path><path d="M 451.000,121.000 C 453.124,118.611 452.876,118.389 455.000,116.000" stroke-width="11.511" stroke="rgb(33,33,33)" fill="none" stroke-linecap="round"></path><path d="M 455.000,116.000 C 456.876,113.889 457.000,114.000 459.000,112.000" stroke-width="11.770" stroke="rgb(33,33,33)" fill="none" stroke-linecap="round"></path><path d="M 459.000,112.000 C 461.000,110.000 460.877,109.858 463.000,108.000" stroke-width="11.474" stroke="rgb(33,33,33)" fill="none" stroke-linecap="round"></path><path d="M 463.000,108.000 C 464.877,106.358 465.123,106.642 467.000,105.000" stroke-width="11.892" stroke="rgb(33,33,33)" fill="none" stroke-linecap="round"></path><path d="M 467.000,105.000 C 469.123,103.142 468.889,102.876 471.000,101.000" stroke-width="11.566" stroke="rgb(33,33,33)" fill="none" stroke-linecap="round"></path><path d="M 471.000,101.000 C 473.389,98.876 473.473,98.965 476.000,97.000" stroke-width="11.714" stroke="rgb(33,33,33)" fill="none" stroke-linecap="round"></path><path d="M 476.000,97.000 C 477.973,95.465 478.027,95.535 480.000,94.000" stroke-width="11.733" stroke="rgb(33,33,33)" fill="none" stroke-linecap="round"></path><path d="M 480.000,94.000 C 482.527,92.035 482.413,91.881 485.000,90.000" stroke-width="11.753" stroke="rgb(33,33,33)" fill="none" stroke-linecap="round"></path><path d="M 485.000,90.000 C 487.913,87.881 488.000,88.000 491.000,86.000" stroke-width="11.348" stroke="rgb(33,33,33)" fill="none" stroke-linecap="round"></path><path d="M 491.000,86.000 C 494.000,84.000 494.000,84.000 497.000,82.000" stroke-width="11.429" stroke="rgb(33,33,33)" fill="none" stroke-linecap="round"></path><path d="M 497.000,82.000 C 500.000,80.000 500.000,80.000 503.000,78.000" stroke-width="10.900" stroke="rgb(33,33,33)" fill="none" stroke-linecap="round"></path><path d="M 503.000,78.000 C 506.000,76.000 505.931,75.889 509.000,74.000" stroke-width="11.268" stroke="rgb(33,33,33)" fill="none" stroke-linecap="round"></path><path d="M 509.000,74.000 C 512.431,71.889 512.452,71.910 516.000,70.000" stroke-width="9.309" stroke="rgb(33,33,33)" fill="none" stroke-linecap="round"></path><path d="M 516.000,70.000 C 518.952,68.410 519.000,68.500 522.000,67.000" stroke-width="9.869" stroke="rgb(33,33,33)" fill="none" stroke-linecap="round"></path><path d="M 522.000,67.000 C 525.000,65.500 525.048,65.590 528.000,64.000" stroke-width="9.598" stroke="rgb(33,33,33)" fill="none" stroke-linecap="round"></path><path d="M 528.000,64.000 C 531.548,62.090 531.452,61.910 535.000,60.000" stroke-width="9.953" stroke="rgb(33,33,33)" fill="none" stroke-linecap="round"></path><path d="M 535.000,60.000 C 537.952,58.410 537.912,58.287 541.000,57.000" stroke-width="9.662" stroke="rgb(33,33,33)" fill="none" stroke-linecap="round"></path><path d="M 541.000,57.000 C 543.912,55.787 544.029,56.080 547.000,55.000" stroke-width="10.326" stroke="rgb(33,33,33)" fill="none" stroke-linecap="round"></path><path d="M 547.000,55.000 C 549.529,54.080 549.417,53.704 552.000,53.000" stroke-width="8.776" stroke="rgb(33,33,33)" fill="none" stroke-linecap="round"></path><path d="M 552.000,53.000 C 554.917,52.204 555.083,52.796 558.000,52.000" stroke-width="9.431" stroke="rgb(33,33,33)" fill="none" stroke-linecap="round"></path><path d="M 558.000,52.000 C 560.583,51.296 560.451,50.850 563.000,50.000" stroke-width="9.259" stroke="rgb(33,33,33)" fill="none" stroke-linecap="round"></path><path d="M 563.000,50.000 C 564.951,49.350 565.081,49.720 567.000,49.000" stroke-width="10.119" stroke="rgb(33,33,33)" fill="none" stroke-linecap="round"></path><path d="M 567.000,49.000 C 569.081,48.220 568.897,47.701 571.000,47.000" stroke-width="7.513" stroke="rgb(33,33,33)" fill="none" stroke-linecap="round"></path><path d="M 571.000,47.000 C 573.397,46.201 573.512,46.553 576.000,46.000" stroke-width="8.295" stroke="rgb(33,33,33)" fill="none" stroke-linecap="round"></path><path d="M 576.000,46.000 C 578.012,45.553 578.000,45.500 580.000,45.000" stroke-width="8.341" stroke="rgb(33,33,33)" fill="none" stroke-linecap="round"></path><path d="M 580.000,45.000 C 582.000,44.500 582.000,44.500 584.000,44.000" stroke-width="9.243" stroke="rgb(33,33,33)" fill="none" stroke-linecap="round"></path><path d="M 584.000,44.000 C 586.000,43.500 585.970,43.254 588.000,43.000" stroke-width="7.291" stroke="rgb(33,33,33)" fill="none" stroke-linecap="round"></path><path d="M 588.000,43.000 C 589.970,42.754 590.030,43.246 592.000,43.000" stroke-width="8.118" stroke="rgb(33,33,33)" fill="none" stroke-linecap="round"></path><path d="M 592.000,43.000 C 594.030,42.746 593.974,42.289 596.000,42.000" stroke-width="8.431" stroke="rgb(33,33,33)" fill="none" stroke-linecap="round"></path><path d="M 596.000,42.000 C 597.474,41.789 597.526,42.211 599.000,42.000" stroke-width="9.389" stroke="rgb(33,33,33)" fill="none" stroke-linecap="round"></path><path d="M 599.000,42.000 C 601.026,41.711 600.980,41.337 603.000,41.000" stroke-width="8.662" stroke="rgb(33,33,33)" fill="none" stroke-linecap="round"></path><path d="M 603.000,41.000 C 603.980,40.837 604.000,41.000 605.000,41.000" stroke-width="9.657" stroke="rgb(33,33,33)" fill="none" stroke-linecap="round"></path><path d="M 605.000,41.000 C 606.500,41.000 606.500,41.000 608.000,41.000" stroke-width="8.174" stroke="rgb(33,33,33)" fill="none" stroke-linecap="round"></path><path d="M 608.000,41.000 C 609.500,41.000 609.500,41.000 611.000,41.000" stroke-width="9.102" stroke="rgb(33,33,33)" fill="none" stroke-linecap="round"></path><path d="M 611.000,41.000 C 612.000,41.000 612.000,41.000 613.000,41.000" stroke-width="9.290" stroke="rgb(33,33,33)" fill="none" stroke-linecap="round"></path><path d="M 613.000,41.000 C 614.000,41.000 614.000,41.000 615.000,41.000" stroke-width="10.242" stroke="rgb(33,33,33)" fill="none" stroke-linecap="round"></path><path d="M 615.000,41.000 C 616.000,41.000 616.000,41.000 617.000,41.000" stroke-width="10.574" stroke="rgb(33,33,33)" fill="none" stroke-linecap="round"></path><path d="M 617.000,41.000 C 618.000,41.000 618.000,41.000 619.000,41.000" stroke-width="11.543" stroke="rgb(33,33,33)" fill="none" stroke-linecap="round"></path><path d="M 619.000,41.000 C 619.500,41.000 619.500,41.000 620.000,41.000" stroke-width="11.228" stroke="rgb(33,33,33)" fill="none" stroke-linecap="round"></path><path d="M 620.000,41.000 C 621.000,41.000 621.000,41.000 622.000,41.000" stroke-width="12.082" stroke="rgb(33,33,33)" fill="none" stroke-linecap="round"></path><path d="M 622.000,41.000 C 622.500,41.000 622.500,41.000 623.000,41.000" stroke-width="12.729" stroke="rgb(33,33,33)" fill="none" stroke-linecap="round"></path><path d="M 623.000,41.000 C 623.500,41.000 623.500,41.000 624.000,41.000" stroke-width="13.635" stroke="rgb(33,33,33)" fill="none" stroke-linecap="round"></path><path d="M 624.000,41.000 C 624.000,41.000 624.000,41.000 624.000,41.000" stroke-width="14.588" stroke="rgb(33,33,33)" fill="none" stroke-linecap="round"></path><path d="M 624.000,41.000 C 624.500,41.000 624.500,41.000 625.000,41.000" stroke-width="15.240" stroke="rgb(33,33,33)" fill="none" stroke-linecap="round"></path><path d="M 625.000,41.000 C 625.000,41.000 625.000,41.000 625.000,41.000" stroke-width="16.034" stroke="rgb(33,33,33)" fill="none" stroke-linecap="round"></path><path d="M 625.000,41.000 C 625.500,41.500 625.500,41.500 626.000,42.000" stroke-width="16.103" stroke="rgb(33,33,33)" fill="none" stroke-linecap="round"></path><path d="M 626.000,42.000 C 626.500,42.000 626.750,41.750 627.000,42.000" stroke-width="17.547" stroke="rgb(33,33,33)" fill="none" stroke-linecap="round"></path><path d="M 627.000,42.000 C 627.250,42.250 627.000,42.500 627.000,43.000" stroke-width="17.508" stroke="rgb(33,33,33)" fill="none" stroke-linecap="round"></path><path d="M 627.000,43.000 C 627.500,43.000 627.750,42.750 628.000,43.000" stroke-width="18.406" stroke="rgb(33,33,33)" fill="none" stroke-linecap="round"></path><path d="M 628.000,43.000 C 628.250,43.250 628.000,43.500 628.000,44.000" stroke-width="18.186" stroke="rgb(33,33,33)" fill="none" stroke-linecap="round"></path><path d="M 628.000,44.000 C 628.000,44.500 627.750,44.750 628.000,45.000" stroke-width="18.753" stroke="rgb(33,33,33)" fill="none" stroke-linecap="round"></path><path d="M 628.000,45.000 C 628.250,45.250 628.500,45.000 629.000,45.000" stroke-width="18.645" stroke="rgb(33,33,33)" fill="none" stroke-linecap="round"></path><path d="M 629.000,45.000 C 629.000,45.500 629.000,45.500 629.000,46.000" stroke-width="19.133" stroke="rgb(33,33,33)" fill="none" stroke-linecap="round"></path><path d="M 629.000,46.000 C 629.000,46.500 629.000,46.500 629.000,47.000" stroke-width="19.624" stroke="rgb(33,33,33)" fill="none" stroke-linecap="round"></path><path d="M 629.000,47.000 C 629.000,46.500 629.000,46.500 629.000,46.000" stroke-width="19.507" stroke="rgb(33,33,33)" fill="none" stroke-linecap="round"></path><path d="M 629.000,46.000 C 629.000,45.500 629.000,45.500 629.000,45.000" stroke-width="19.237" stroke="rgb(33,33,33)" fill="none" stroke-linecap="round"></path><path d="M 629.000,45.000 C 629.000,45.000 629.000,45.000 629.000,45.000" stroke-width="19.431" stroke="rgb(33,33,33)" fill="none" stroke-linecap="round"></path><path d="M 629.000,45.000 C 629.000,44.500 629.000,44.500 629.000,44.000" stroke-width="19.177" stroke="rgb(33,33,33)" fill="none" stroke-linecap="round"></path><path d="M 629.000,44.000 C 629.000,43.500 629.000,43.500 629.000,43.000" stroke-width="18.979" stroke="rgb(33,33,33)" fill="none" stroke-linecap="round"></path><path d="M 629.000,43.000 C 629.000,42.000 629.000,42.000 629.000,41.000" stroke-width="18.076" stroke="rgb(33,33,33)" fill="none" stroke-linecap="round"></path><path d="M 629.000,41.000 C 629.000,40.500 629.000,40.500 629.000,40.000" stroke-width="18.142" stroke="rgb(33,33,33)" fill="none" stroke-linecap="round"></path><path d="M 629.000,40.000 C 629.000,39.000 629.000,39.000 629.000,38.000" stroke-width="17.607" stroke="rgb(33,33,33)" fill="none" stroke-linecap="round"></path><path d="M 629.000,38.000 C 629.000,37.500 629.000,37.500 629.000,37.000" stroke-width="17.727" stroke="rgb(33,33,33)" fill="none" stroke-linecap="round"></path></svg>