<svg xmlns="http://www.w3.org/2000/svg" xmlns:xlink="http://www.w3.org/1999/xlink" viewBox="0 0 360 500"><path d="M 133.000,147.000 C 135.000,152.500 135.355,152.407 137.000,158.000" stroke-width="19.156" stroke="rgb(33,33,33)" fill="none" stroke-linecap="round"></path><path d="M 137.000,158.000 C 137.855,160.907 136.718,161.293 138.000,164.000" stroke-width="17.347" stroke="rgb(33,33,33)" fill="none" stroke-linecap="round"></path><path d="M 138.000,164.000 C 141.218,170.793 141.857,170.597 146.000,177.000" stroke-width="16.512" stroke="rgb(33,33,33)" fill="none" stroke-linecap="round"></path><path d="M 146.000,177.000 C 147.357,179.097 147.439,179.048 149.000,181.000" stroke-width="14.150" stroke="rgb(33,33,33)" fill="none" stroke-linecap="round"></path><path d="M 122.000,157.000 C 116.500,151.000 116.099,151.276 111.000,145.000" stroke-width="18.652" stroke="rgb(33,33,33)" fill="none" stroke-linecap="round"></path><path d="M 111.000,145.000 C 109.599,143.276 109.879,143.050 109.000,141.000" stroke-width="17.611" stroke="rgb(33,33,33)" fill="none" stroke-linecap="round"></path><path d="M 109.000,141.000 C 108.379,139.550 107.849,139.514 108.000,138.000" stroke-width="17.015" stroke="rgb(33,33,33)" fill="none" stroke-linecap="round"></path><path d="M 108.000,138.000 C 108.349,134.514 108.235,134.089 110.000,131.000" stroke-width="16.621" stroke="rgb(33,33,33)" fill="none" stroke-linecap="round"></path><path d="M 110.000,131.000 C 112.235,127.089 112.642,127.118 116.000,124.000" stroke-width="16.138" stroke="rgb(33,33,33)" fill="none" stroke-linecap="round"></path><path d="M 116.000,124.000 C 119.642,120.618 119.410,119.777 124.000,118.000" stroke-width="10.826" stroke="rgb(33,33,33)" fill="none" stroke-linecap="round"></path><path d="M 124.000,118.000 C 134.910,113.777 135.490,112.987 147.000,112.000" stroke-width="10.851" stroke="rgb(33,33,33)" fill="none" stroke-linecap="round"></path><path d="M 147.000,112.000 C 152.990,111.487 153.193,113.064 159.000,115.000" stroke-width="11.275" stroke="rgb(33,33,33)" fill="none" stroke-linecap="round"></path><path d="M 159.000,115.000 C 160.693,115.564 160.743,115.743 162.000,117.000" stroke-width="11.639" stroke="rgb(33,33,33)" fill="none" stroke-linecap="round"></path><path d="M 162.000,117.000 C 163.743,118.743 164.501,118.629 165.000,121.000" stroke-width="11.301" stroke="rgb(33,33,33)" fill="none" stroke-linecap="round"></path><path d="M 165.000,121.000 C 166.501,128.129 167.950,129.177 166.000,136.000" stroke-width="11.478" stroke="rgb(33,33,33)" fill="none" stroke-linecap="round"></path><path d="M 166.000,136.000 C 163.950,143.177 161.534,142.524 157.000,149.000" stroke-width="11.579" stroke="rgb(33,33,33)" fill="none" stroke-linecap="round"></path><path d="M 157.000,149.000 C 154.534,152.524 155.257,153.264 152.000,156.000" stroke-width="9.979" stroke="rgb(33,33,33)" fill="none" stroke-linecap="round"></path><path d="M 152.000,156.000 C 142.757,163.764 142.090,163.139 132.000,170.000" stroke-width="10.069" stroke="rgb(33,33,33)" fill="none" stroke-linecap="round"></path><path d="M 132.000,170.000 C 129.590,171.639 129.561,171.720 127.000,173.000" stroke-width="10.889" stroke="rgb(33,33,33)" fill="none" stroke-linecap="round"></path><path d="M 127.000,173.000 C 126.561,173.220 125.833,173.000 126.000,173.000" stroke-width="11.653" stroke="rgb(33,33,33)" fill="none" stroke-linecap="round"></path><path d="M 126.000,173.000 C 126.333,173.000 127.039,173.240 128.000,173.000" stroke-width="12.597" stroke="rgb(33,33,33)" fill="none" stroke-linecap="round"></path><path d="M 128.000,173.000 C 131.039,172.240 130.896,171.554 134.000,171.000" stroke-width="10.615" stroke="rgb(33,33,33)" fill="none" stroke-linecap="round"></path><path d="M 134.000,171.000 C 144.896,169.054 144.956,168.850 156.000,168.000" stroke-width="10.451" stroke="rgb(33,33,33)" fill="none" stroke-linecap="round"></path><path d="M 156.000,168.000 C 164.456,167.350 164.518,167.674 173.000,168.000" stroke-width="10.670" stroke="rgb(33,33,33)" fill="none" stroke-linecap="round"></path><path d="M 173.000,168.000 C 177.518,168.174 177.562,168.155 182.000,169.000" stroke-width="10.024" stroke="rgb(33,33,33)" fill="none" stroke-linecap="round"></path><path d="M 182.000,169.000 C 188.062,170.155 188.072,170.306 194.000,172.000" stroke-width="10.500" stroke="rgb(33,33,33)" fill="none" stroke-linecap="round"></path><path d="M 194.000,172.000 C 195.072,172.306 195.234,172.234 196.000,173.000" stroke-width="11.052" stroke="rgb(33,33,33)" fill="none" stroke-linecap="round"></path><path d="M 196.000,173.000 C 197.234,174.234 197.526,174.341 198.000,176.000" stroke-width="11.931" stroke="rgb(33,33,33)" fill="none" stroke-linecap="round"></path><path d="M 198.000,176.000 C 198.526,177.841 198.940,178.292 198.000,180.000" stroke-width="11.520" stroke="rgb(33,33,33)" fill="none" stroke-linecap="round"></path><path d="M 198.000,180.000 C 193.440,188.292 193.040,188.450 187.000,196.000" stroke-width="11.359" stroke="rgb(33,33,33)" fill="none" stroke-linecap="round"></path><path d="M 187.000,196.000 C 183.040,200.950 182.915,200.979 178.000,205.000" stroke-width="8.950" stroke="rgb(33,33,33)" fill="none" stroke-linecap="round"></path><path d="M 178.000,205.000 C 166.415,214.479 166.420,214.630 154.000,223.000" stroke-width="8.917" stroke="rgb(33,33,33)" fill="none" stroke-linecap="round"></path><path d="M 154.000,223.000 C 143.420,230.130 142.919,229.371 132.000,236.000" stroke-width="9.004" stroke="rgb(33,33,33)" fill="none" stroke-linecap="round"></path><path d="M 132.000,236.000 C 128.919,237.871 129.108,238.187 126.000,240.000" stroke-width="9.183" stroke="rgb(33,33,33)" fill="none" stroke-linecap="round"></path><path d="M 126.000,240.000 C 123.108,241.687 122.909,241.338 120.000,243.000" stroke-width="8.806" stroke="rgb(33,33,33)" fill="none" stroke-linecap="round"></path><path d="M 120.000,243.000 C 115.909,245.338 115.913,245.391 112.000,248.000" stroke-width="9.574" stroke="rgb(33,33,33)" fill="none" stroke-linecap="round"></path><path d="M 112.000,248.000 C 111.413,248.391 111.387,248.419 111.000,249.000" stroke-width="10.317" stroke="rgb(33,33,33)" fill="none" stroke-linecap="round"></path><path d="M 111.000,249.000 C 110.387,249.919 109.390,250.543 110.000,251.000" stroke-width="11.309" stroke="rgb(33,33,33)" fill="none" stroke-linecap="round"></path><path d="M 110.000,251.000 C 111.390,252.043 112.471,251.789 115.000,252.000" stroke-width="12.062" stroke="rgb(33,33,33)" fill="none" stroke-linecap="round"></path><path d="M 213.000,174.000 C 207.500,178.500 206.498,177.810 202.000,183.000" stroke-width="19.716" stroke="rgb(33,33,33)" fill="none" stroke-linecap="round"></path><path d="M 202.000,183.000 C 199.998,185.310 200.558,185.928 200.000,189.000" stroke-width="17.637" stroke="rgb(33,33,33)" fill="none" stroke-linecap="round"></path><path d="M 200.000,189.000 C 199.558,191.428 200.000,191.500 200.000,194.000" stroke-width="17.502" stroke="rgb(33,33,33)" fill="none" stroke-linecap="round"></path><path d="M 200.000,194.000 C 200.000,194.500 199.691,195.000 200.000,195.000" stroke-width="17.225" stroke="rgb(33,33,33)" fill="none" stroke-linecap="round"></path><path d="M 200.000,195.000 C 200.691,195.000 201.117,194.662 202.000,194.000" stroke-width="17.445" stroke="rgb(33,33,33)" fill="none" stroke-linecap="round"></path><path d="M 202.000,194.000 C 203.117,193.162 203.061,193.056 204.000,192.000" stroke-width="16.307" stroke="rgb(33,33,33)" fill="none" stroke-linecap="round"></path><path d="M 204.000,192.000 C 207.061,188.556 207.514,188.841 210.000,185.000" stroke-width="15.751" stroke="rgb(33,33,33)" fill="none" stroke-linecap="round"></path><path d="M 210.000,185.000 C 213.014,180.341 213.420,180.266 215.000,175.000" stroke-width="15.169" stroke="rgb(33,33,33)" fill="none" stroke-linecap="round"></path><path d="M 215.000,175.000 C 216.420,170.266 216.409,169.499 216.000,165.000" stroke-width="14.941" stroke="rgb(33,33,33)" fill="none" stroke-linecap="round"></path><path d="M 216.000,165.000 C 215.909,163.999 215.076,164.179 214.000,164.000" stroke-width="15.522" stroke="rgb(33,33,33)" fill="none" stroke-linecap="round"></path><path d="M 214.000,164.000 C 212.076,163.679 211.955,163.721 210.000,164.000" stroke-width="15.839" stroke="rgb(33,33,33)" fill="none" stroke-linecap="round"></path><path d="M 210.000,164.000 C 208.455,164.221 208.464,164.414 207.000,165.000" stroke-width="14.664" stroke="rgb(33,33,33)" fill="none" stroke-linecap="round"></path><path d="M 207.000,165.000 C 205.964,165.414 206.036,165.655 205.000,166.000" stroke-width="15.293" stroke="rgb(33,33,33)" fill="none" stroke-linecap="round"></path><path d="M 205.000,166.000 C 204.536,166.155 204.000,166.000 204.000,166.000" stroke-width="15.272" stroke="rgb(33,33,33)" fill="none" stroke-linecap="round"></path><path d="M 204.000,166.000 C 204.000,166.000 204.543,166.183 205.000,166.000" stroke-width="15.941" stroke="rgb(33,33,33)" fill="none" stroke-linecap="round"></path><path d="M 205.000,166.000 C 207.043,165.183 206.929,164.828 209.000,164.000" stroke-width="16.111" stroke="rgb(33,33,33)" fill="none" stroke-linecap="round"></path><path d="M 209.000,164.000 C 211.929,162.828 212.080,163.203 215.000,162.000" stroke-width="13.307" stroke="rgb(33,33,33)" fill="none" stroke-linecap="round"></path><path d="M 215.000,162.000 C 220.580,159.703 220.534,159.572 226.000,157.000" stroke-width="13.259" stroke="rgb(33,33,33)" fill="none" stroke-linecap="round"></path><path d="M 226.000,157.000 C 229.034,155.572 229.000,155.500 232.000,154.000" stroke-width="13.630" stroke="rgb(33,33,33)" fill="none" stroke-linecap="round"></path><path d="M 232.000,154.000 C 233.000,153.500 232.964,153.414 234.000,153.000" stroke-width="13.701" stroke="rgb(33,33,33)" fill="none" stroke-linecap="round"></path><path d="M 234.000,153.000 C 235.464,152.414 235.860,152.000 237.000,152.000" stroke-width="14.363" stroke="rgb(33,33,33)" fill="none" stroke-linecap="round"></path><path d="M 237.000,152.000 C 237.360,152.000 236.902,152.511 237.000,153.000" stroke-width="14.520" stroke="rgb(33,33,33)" fill="none" stroke-linecap="round"></path><path d="M 237.000,153.000 C 237.902,157.511 238.717,157.472 239.000,162.000" stroke-width="14.574" stroke="rgb(33,33,33)" fill="none" stroke-linecap="round"></path><path d="M 239.000,162.000 C 239.217,165.472 238.644,165.525 238.000,169.000" stroke-width="11.358" stroke="rgb(33,33,33)" fill="none" stroke-linecap="round"></path><path d="M 238.000,169.000 C 236.144,179.025 236.389,179.103 234.000,189.000" stroke-width="11.227" stroke="rgb(33,33,33)" fill="none" stroke-linecap="round"></path><path d="M 234.000,189.000 C 232.889,193.603 232.552,193.518 231.000,198.000" stroke-width="9.564" stroke="rgb(33,33,33)" fill="none" stroke-linecap="round"></path><path d="M 231.000,198.000 C 228.052,206.518 227.849,206.452 225.000,215.000" stroke-width="9.907" stroke="rgb(33,33,33)" fill="none" stroke-linecap="round"></path><path d="M 225.000,215.000 C 223.849,218.452 224.085,218.526 223.000,222.000" stroke-width="9.208" stroke="rgb(33,33,33)" fill="none" stroke-linecap="round"></path><path d="M 223.000,222.000 C 221.585,226.526 220.919,226.406 220.000,231.000" stroke-width="9.917" stroke="rgb(33,33,33)" fill="none" stroke-linecap="round"></path><path d="M 220.000,231.000 C 219.419,233.906 220.000,234.000 220.000,237.000" stroke-width="10.725" stroke="rgb(33,33,33)" fill="none" stroke-linecap="round"></path><path d="M 220.000,237.000 C 220.000,237.500 219.793,238.000 220.000,238.000" stroke-width="11.776" stroke="rgb(33,33,33)" fill="none" stroke-linecap="round"></path><path d="M 220.000,238.000 C 220.293,238.000 220.414,237.293 221.000,237.000" stroke-width="12.748" stroke="rgb(33,33,33)" fill="none" stroke-linecap="round"></path><path d="M 221.000,237.000 C 221.414,236.793 221.691,237.309 222.000,237.000" stroke-width="13.171" stroke="rgb(33,33,33)" fill="none" stroke-linecap="round"></path><path d="M 222.000,237.000 C 222.691,236.309 222.250,235.750 223.000,235.000" stroke-width="13.953" stroke="rgb(33,33,33)" fill="none" stroke-linecap="round"></path></svg>