<svg xmlns="http://www.w3.org/2000/svg" xmlns:xlink="http://www.w3.org/1999/xlink" viewBox="0 0 360 500"><path d="M 134.736,150.250 C 135.636,161.002 135.410,161.031 136.536,171.754" stroke-width="19.844" stroke="rgb(33,33,33)" fill="none" stroke-linecap="round"></path><path d="M 136.536,171.754 C 136.883,175.055 137.084,175.030 137.681,178.297" stroke-width="18.419" stroke="rgb(33,33,33)" fill="none" stroke-linecap="round"></path><path d="M 137.681,178.297 C 138.305,181.714 138.312,181.713 138.979,185.122" stroke-width="17.438" stroke="rgb(33,33,33)" fill="none" stroke-linecap="round"></path><path d="M 138.979,185.122 C 139.681,188.714 139.768,188.699 140.419,192.300" stroke-width="16.665" stroke="rgb(33,33,33)" fill="none" stroke-linecap="round"></path><path d="M 140.419,192.300 C 140.975,195.371 140.858,195.391 141.393,198.466" stroke-width="16.311" stroke="rgb(33,33,33)" fill="none" stroke-linecap="round"></path><path d="M 141.393,198.466 C 141.906,201.414 141.891,201.419 142.514,204.346" stroke-width="16.076" stroke="rgb(33,33,33)" fill="none" stroke-linecap="round"></path><path d="M 142.514,204.346 C 142.976,206.519 142.977,206.523 143.563,208.666" stroke-width="16.071" stroke="rgb(33,33,33)" fill="none" stroke-linecap="round"></path><path d="M 143.563,208.666 C 144.033,210.384 144.040,210.387 144.625,212.068" stroke-width="16.167" stroke="rgb(33,33,33)" fill="none" stroke-linecap="round"></path><path d="M 144.625,212.068 C 144.937,212.964 144.951,212.964 145.358,213.820" stroke-width="16.607" stroke="rgb(33,33,33)" fill="none" stroke-linecap="round"></path><path d="M 145.358,213.820 C 145.646,214.425 145.584,214.510 146.016,214.991" stroke-width="16.999" stroke="rgb(33,33,33)" fill="none" stroke-linecap="round"></path><path d="M 146.016,214.991 C 146.295,215.303 146.379,215.330 146.780,215.406" stroke-width="17.361" stroke="rgb(33,33,33)" fill="none" stroke-linecap="round"></path><path d="M 146.780,215.406 C 147.095,215.466 147.181,215.447 147.447,215.262" stroke-width="17.738" stroke="rgb(33,33,33)" fill="none" stroke-linecap="round"></path><path d="M 147.447,215.262 C 147.846,214.984 147.892,214.932 148.109,214.481" stroke-width="17.994" stroke="rgb(33,33,33)" fill="none" stroke-linecap="round"></path><path d="M 148.109,214.481 C 148.414,213.847 148.399,213.801 148.490,213.092" stroke-width="18.125" stroke="rgb(33,33,33)" fill="none" stroke-linecap="round"></path><path d="M 171.826,161.500 C 176.331,152.398 176.411,152.436 180.835,143.297" stroke-width="19.970" stroke="rgb(33,33,33)" fill="none" stroke-linecap="round"></path><path d="M 180.835,143.297 C 181.987,140.916 182.058,140.934 182.979,138.460" stroke-width="18.864" stroke="rgb(33,33,33)" fill="none" stroke-linecap="round"></path><path d="M 182.979,138.460 C 183.842,136.142 183.908,136.128 184.404,133.713" stroke-width="18.128" stroke="rgb(33,33,33)" fill="none" stroke-linecap="round"></path><path d="M 184.404,133.713 C 184.791,131.830 184.808,131.777 184.746,129.863" stroke-width="17.733" stroke="rgb(33,33,33)" fill="none" stroke-linecap="round"></path><path d="M 184.746,129.863 C 184.697,128.350 185.201,127.521 184.181,126.859" stroke-width="17.616" stroke="rgb(33,33,33)" fill="none" stroke-linecap="round"></path><path d="M 184.181,126.859 C 182.693,125.894 181.888,126.196 179.730,126.609" stroke-width="17.320" stroke="rgb(33,33,33)" fill="none" stroke-linecap="round"></path><path d="M 179.730,126.609 C 175.246,127.466 174.939,127.231 170.897,129.398" stroke-width="16.354" stroke="rgb(33,33,33)" fill="none" stroke-linecap="round"></path><path d="M 170.897,129.398 C 163.761,133.224 163.799,133.562 157.373,138.594" stroke-width="14.642" stroke="rgb(33,33,33)" fill="none" stroke-linecap="round"></path><path d="M 157.373,138.594 C 149.656,144.637 149.625,144.694 142.610,151.547" stroke-width="12.912" stroke="rgb(33,33,33)" fill="none" stroke-linecap="round"></path><path d="M 142.610,151.547 C 135.128,158.856 135.216,158.992 128.379,166.918" stroke-width="12.001" stroke="rgb(33,33,33)" fill="none" stroke-linecap="round"></path><path d="M 128.379,166.918 C 121.467,174.932 121.774,175.196 115.112,183.427" stroke-width="11.052" stroke="rgb(33,33,33)" fill="none" stroke-linecap="round"></path><path d="M 115.112,183.427 C 108.765,191.269 108.606,191.143 102.360,199.064" stroke-width="10.781" stroke="rgb(33,33,33)" fill="none" stroke-linecap="round"></path><path d="M 102.360,199.064 C 96.737,206.194 96.602,206.112 91.373,213.529" stroke-width="10.413" stroke="rgb(33,33,33)" fill="none" stroke-linecap="round"></path><path d="M 91.373,213.529 C 86.953,219.799 86.940,219.825 83.061,226.438" stroke-width="10.512" stroke="rgb(33,33,33)" fill="none" stroke-linecap="round"></path><path d="M 83.061,226.438 C 80.562,230.699 80.794,230.835 78.616,235.276" stroke-width="10.811" stroke="rgb(33,33,33)" fill="none" stroke-linecap="round"></path><path d="M 78.616,235.276 C 77.286,237.988 77.024,237.909 76.046,240.743" stroke-width="11.493" stroke="rgb(33,33,33)" fill="none" stroke-linecap="round"></path><path d="M 76.046,240.743 C 75.289,242.935 74.931,243.201 75.146,245.328" stroke-width="12.112" stroke="rgb(33,33,33)" fill="none" stroke-linecap="round"></path><path d="M 75.146,245.328 C 75.259,246.453 75.716,246.665 76.702,247.247" stroke-width="12.926" stroke="rgb(33,33,33)" fill="none" stroke-linecap="round"></path><path d="M 76.702,247.247 C 77.558,247.752 77.776,247.604 78.830,247.501" stroke-width="13.696" stroke="rgb(33,33,33)" fill="none" stroke-linecap="round"></path><path d="M 78.830,247.501 C 80.958,247.292 81.044,247.338 83.067,246.623" stroke-width="14.124" stroke="rgb(33,33,33)" fill="none" stroke-linecap="round"></path><path d="M 83.067,246.623 C 85.296,245.835 85.192,245.543 87.333,244.494" stroke-width="14.397" stroke="rgb(33,33,33)" fill="none" stroke-linecap="round"></path><path d="M 87.333,244.494 C 90.590,242.899 90.535,242.771 93.862,241.335" stroke-width="14.404" stroke="rgb(33,33,33)" fill="none" stroke-linecap="round"></path><path d="M 93.862,241.335 C 98.173,239.474 98.216,239.567 102.609,237.899" stroke-width="14.042" stroke="rgb(33,33,33)" fill="none" stroke-linecap="round"></path><path d="M 102.609,237.899 C 107.817,235.922 107.834,235.966 113.063,234.045" stroke-width="13.638" stroke="rgb(33,33,33)" fill="none" stroke-linecap="round"></path><path d="M 113.063,234.045 C 118.803,231.936 118.883,232.135 124.548,229.840" stroke-width="13.143" stroke="rgb(33,33,33)" fill="none" stroke-linecap="round"></path><path d="M 124.548,229.840 C 130.769,227.320 130.849,227.441 136.834,224.414" stroke-width="12.802" stroke="rgb(33,33,33)" fill="none" stroke-linecap="round"></path><path d="M 136.834,224.414 C 143.398,221.094 143.249,220.796 149.645,217.145" stroke-width="12.276" stroke="rgb(33,33,33)" fill="none" stroke-linecap="round"></path><path d="M 149.645,217.145 C 156.652,213.145 156.951,213.593 163.641,209.112" stroke-width="11.846" stroke="rgb(33,33,33)" fill="none" stroke-linecap="round"></path><path d="M 163.641,209.112 C 171.383,203.926 170.998,203.357 178.509,197.810" stroke-width="11.330" stroke="rgb(33,33,33)" fill="none" stroke-linecap="round"></path><path d="M 178.509,197.810 C 185.633,192.548 185.976,192.987 192.910,187.494" stroke-width="11.016" stroke="rgb(33,33,33)" fill="none" stroke-linecap="round"></path><path d="M 192.910,187.494 C 199.137,182.561 198.915,182.276 204.830,176.959" stroke-width="10.900" stroke="rgb(33,33,33)" fill="none" stroke-linecap="round"></path><path d="M 204.830,176.959 C 209.606,172.665 209.467,172.507 214.293,168.272" stroke-width="11.072" stroke="rgb(33,33,33)" fill="none" stroke-linecap="round"></path><path d="M 214.293,168.272 C 218.453,164.622 219.124,165.147 222.803,161.188" stroke-width="11.291" stroke="rgb(33,33,33)" fill="none" stroke-linecap="round"></path><path d="M 222.803,161.188 C 224.097,159.796 223.482,159.362 224.239,157.569" stroke-width="12.006" stroke="rgb(33,33,33)" fill="none" stroke-linecap="round"></path><path d="M 224.239,157.569 C 224.780,156.288 225.422,155.425 225.400,155.041" stroke-width="12.815" stroke="rgb(33,33,33)" fill="none" stroke-linecap="round"></path><path d="M 225.400,155.041 C 225.386,154.797 224.790,155.683 224.168,156.313" stroke-width="13.624" stroke="rgb(33,33,33)" fill="none" stroke-linecap="round"></path><path d="M 224.168,156.313 C 222.996,157.499 222.802,157.341 221.812,158.672" stroke-width="14.219" stroke="rgb(33,33,33)" fill="none" stroke-linecap="round"></path><path d="M 221.812,158.672 C 219.767,161.421 220.101,161.676 218.097,164.472" stroke-width="14.206" stroke="rgb(33,33,33)" fill="none" stroke-linecap="round"></path><path d="M 163.564,209.938 C 171.160,200.184 171.429,200.373 178.755,190.430" stroke-width="19.795" stroke="rgb(33,33,33)" fill="none" stroke-linecap="round"></path><path d="M 178.755,190.430 C 181.451,186.771 181.176,186.578 183.608,182.734" stroke-width="17.993" stroke="rgb(33,33,33)" fill="none" stroke-linecap="round"></path><path d="M 183.608,182.734 C 185.280,180.091 185.298,180.103 186.964,177.456" stroke-width="17.250" stroke="rgb(33,33,33)" fill="none" stroke-linecap="round"></path><path d="M 186.964,177.456 C 188.458,175.084 188.285,174.954 189.927,172.696" stroke-width="16.803" stroke="rgb(33,33,33)" fill="none" stroke-linecap="round"></path><path d="M 189.927,172.696 C 190.912,171.341 190.896,171.168 192.218,170.231" stroke-width="16.854" stroke="rgb(33,33,33)" fill="none" stroke-linecap="round"></path><path d="M 192.218,170.231 C 192.978,169.692 193.218,169.587 194.090,169.744" stroke-width="17.083" stroke="rgb(33,33,33)" fill="none" stroke-linecap="round"></path><path d="M 194.090,169.744 C 195.041,169.915 195.077,170.197 195.864,170.886" stroke-width="17.262" stroke="rgb(33,33,33)" fill="none" stroke-linecap="round"></path><path d="M 195.864,170.886 C 196.893,171.786 196.862,171.849 197.723,172.922" stroke-width="17.264" stroke="rgb(33,33,33)" fill="none" stroke-linecap="round"></path><path d="M 197.723,172.922 C 198.631,174.054 198.541,174.124 199.401,175.296" stroke-width="17.298" stroke="rgb(33,33,33)" fill="none" stroke-linecap="round"></path><path d="M 199.401,175.296 C 200.285,176.500 200.105,176.753 201.210,177.674" stroke-width="17.250" stroke="rgb(33,33,33)" fill="none" stroke-linecap="round"></path><path d="M 201.210,177.674 C 201.978,178.314 202.221,178.543 203.147,178.418" stroke-width="17.404" stroke="rgb(33,33,33)" fill="none" stroke-linecap="round"></path><path d="M 203.147,178.418 C 204.288,178.263 204.416,177.959 205.345,177.114" stroke-width="17.415" stroke="rgb(33,33,33)" fill="none" stroke-linecap="round"></path><path d="M 205.345,177.114 C 206.411,176.144 206.378,176.039 207.137,174.789" stroke-width="17.440" stroke="rgb(33,33,33)" fill="none" stroke-linecap="round"></path><path d="M 207.137,174.789 C 208.287,172.894 208.267,172.859 209.163,170.826" stroke-width="17.042" stroke="rgb(33,33,33)" fill="none" stroke-linecap="round"></path><path d="M 209.163,170.826 C 210.192,168.491 210.084,168.443 210.988,166.053" stroke-width="16.726" stroke="rgb(33,33,33)" fill="none" stroke-linecap="round"></path><path d="M 210.988,166.053 C 211.905,163.626 211.900,163.624 212.805,161.193" stroke-width="16.469" stroke="rgb(33,33,33)" fill="none" stroke-linecap="round"></path><path d="M 212.805,161.193 C 213.695,158.799 213.686,158.796 214.578,156.402" stroke-width="16.281" stroke="rgb(33,33,33)" fill="none" stroke-linecap="round"></path><path d="M 214.578,156.402 C 215.474,153.997 215.135,153.773 216.380,151.596" stroke-width="16.173" stroke="rgb(33,33,33)" fill="none" stroke-linecap="round"></path><path d="M 216.380,151.596 C 217.086,150.361 217.327,150.446 218.480,149.578" stroke-width="16.385" stroke="rgb(33,33,33)" fill="none" stroke-linecap="round"></path><path d="M 218.480,149.578 C 219.450,148.848 219.484,148.679 220.627,148.400" stroke-width="16.632" stroke="rgb(33,33,33)" fill="none" stroke-linecap="round"></path><path d="M 220.627,148.400 C 221.630,148.155 221.700,148.456 222.772,148.531" stroke-width="16.862" stroke="rgb(33,33,33)" fill="none" stroke-linecap="round"></path><path d="M 222.772,148.531 C 224.009,148.618 224.008,148.712 225.245,148.725" stroke-width="17.018" stroke="rgb(33,33,33)" fill="none" stroke-linecap="round"></path><path d="M 225.245,148.725 C 226.415,148.738 226.446,148.808 227.586,148.583" stroke-width="17.143" stroke="rgb(33,33,33)" fill="none" stroke-linecap="round"></path><path d="M 227.586,148.583 C 228.688,148.365 228.719,148.338 229.729,147.840" stroke-width="17.305" stroke="rgb(33,33,33)" fill="none" stroke-linecap="round"></path><path d="M 229.729,147.840 C 230.832,147.296 231.014,147.402 231.812,146.500" stroke-width="17.378" stroke="rgb(33,33,33)" fill="none" stroke-linecap="round"></path><path d="M 231.812,146.500 C 232.904,145.265 232.760,145.082 233.508,143.565" stroke-width="17.240" stroke="rgb(33,33,33)" fill="none" stroke-linecap="round"></path><path d="M 233.508,143.565 C 234.362,141.832 234.362,141.819 235.015,140.000" stroke-width="17.085" stroke="rgb(33,33,33)" fill="none" stroke-linecap="round"></path><path d="M 235.015,140.000 C 235.832,137.723 235.712,137.680 236.447,135.372" stroke-width="16.803" stroke="rgb(33,33,33)" fill="none" stroke-linecap="round"></path><path d="M 236.447,135.372 C 237.127,133.237 237.077,133.218 237.846,131.115" stroke-width="16.596" stroke="rgb(33,33,33)" fill="none" stroke-linecap="round"></path><path d="M 237.846,131.115 C 238.505,129.313 238.426,129.260 239.303,127.563" stroke-width="16.581" stroke="rgb(33,33,33)" fill="none" stroke-linecap="round"></path><path d="M 239.303,127.563 C 240.016,126.183 239.906,125.962 241.027,124.961" stroke-width="16.684" stroke="rgb(33,33,33)" fill="none" stroke-linecap="round"></path><path d="M 257.344,127.750 C 249.143,138.378 249.149,138.382 240.942,149.006" stroke-width="19.688" stroke="rgb(33,33,33)" fill="none" stroke-linecap="round"></path><path d="M 240.942,149.006 C 231.853,160.772 231.393,160.442 222.753,172.530" stroke-width="13.679" stroke="rgb(33,33,33)" fill="none" stroke-linecap="round"></path><path d="M 222.753,172.530 C 213.596,185.342 213.700,185.451 205.349,198.805" stroke-width="11.916" stroke="rgb(33,33,33)" fill="none" stroke-linecap="round"></path><path d="M 205.349,198.805 C 199.780,207.710 199.277,207.659 194.912,217.048" stroke-width="10.888" stroke="rgb(33,33,33)" fill="none" stroke-linecap="round"></path><path d="M 194.912,217.048 C 193.832,219.372 193.245,221.420 194.459,222.231" stroke-width="11.454" stroke="rgb(33,33,33)" fill="none" stroke-linecap="round"></path><path d="M 194.459,222.231 C 195.833,223.149 197.559,221.968 200.088,220.507" stroke-width="11.997" stroke="rgb(33,33,33)" fill="none" stroke-linecap="round"></path><path d="M 200.088,220.507 C 208.425,215.691 208.419,215.473 216.191,209.676" stroke-width="11.194" stroke="rgb(33,33,33)" fill="none" stroke-linecap="round"></path><path d="M 216.191,209.676 C 228.428,200.550 228.148,200.168 240.107,190.661" stroke-width="10.285" stroke="rgb(33,33,33)" fill="none" stroke-linecap="round"></path><path d="M 240.107,190.661 C 252.303,180.965 251.331,179.113 264.501,171.270" stroke-width="9.244" stroke="rgb(33,33,33)" fill="none" stroke-linecap="round"></path><path d="M 264.501,171.270 C 271.889,166.870 272.750,167.386 281.222,166.175" stroke-width="9.328" stroke="rgb(33,33,33)" fill="none" stroke-linecap="round"></path></svg>