<svg xmlns="http://www.w3.org/2000/svg" xmlns:xlink="http://www.w3.org/1999/xlink" viewBox="0 0 800 500"><path d="M 275.000,276.000 C 275.000,276.500 275.000,276.500 275.000,277.000" stroke-width="20.204" stroke="rgb(33,33,33)" fill="none" stroke-linecap="round"></path><path d="M 275.000,277.000 C 275.000,279.500 275.000,279.500 275.000,282.000" stroke-width="19.026" stroke="rgb(33,33,33)" fill="none" stroke-linecap="round"></path><path d="M 275.000,282.000 C 275.000,289.000 275.000,289.000 275.000,296.000" stroke-width="16.892" stroke="rgb(33,33,33)" fill="none" stroke-linecap="round"></path><path d="M 275.000,296.000 C 275.000,304.000 275.000,304.000 275.000,312.000" stroke-width="14.900" stroke="rgb(33,33,33)" fill="none" stroke-linecap="round"></path><path d="M 275.000,312.000 C 275.000,322.500 274.731,322.507 275.000,333.000" stroke-width="13.198" stroke="rgb(33,33,33)" fill="none" stroke-linecap="round"></path><path d="M 275.000,333.000 C 275.231,342.007 275.159,342.034 276.000,351.000" stroke-width="12.351" stroke="rgb(33,33,33)" fill="none" stroke-linecap="round"></path><path d="M 276.000,351.000 C 276.659,358.034 275.585,358.559 278.000,365.000" stroke-width="12.068" stroke="rgb(33,33,33)" fill="none" stroke-linecap="round"></path><path d="M 278.000,365.000 C 280.085,370.559 281.258,370.189 285.000,375.000" stroke-width="12.011" stroke="rgb(33,33,33)" fill="none" stroke-linecap="round"></path><path d="M 285.000,375.000 C 288.258,379.189 287.460,380.730 292.000,383.000" stroke-width="12.098" stroke="rgb(33,33,33)" fill="none" stroke-linecap="round"></path><path d="M 292.000,383.000 C 299.460,386.730 300.373,386.092 309.000,387.000" stroke-width="11.684" stroke="rgb(33,33,33)" fill="none" stroke-linecap="round"></path><path d="M 309.000,387.000 C 319.373,388.092 319.518,387.456 330.000,387.000" stroke-width="11.044" stroke="rgb(33,33,33)" fill="none" stroke-linecap="round"></path><path d="M 330.000,387.000 C 342.518,386.456 342.875,387.745 355.000,385.000" stroke-width="10.322" stroke="rgb(33,33,33)" fill="none" stroke-linecap="round"></path><path d="M 355.000,385.000 C 369.375,381.745 369.168,380.424 383.000,375.000" stroke-width="9.643" stroke="rgb(33,33,33)" fill="none" stroke-linecap="round"></path><path d="M 383.000,375.000 C 394.668,370.424 395.077,370.958 406.000,365.000" stroke-width="9.310" stroke="rgb(33,33,33)" fill="none" stroke-linecap="round"></path><path d="M 406.000,365.000 C 411.577,361.958 411.625,361.606 416.000,357.000" stroke-width="9.686" stroke="rgb(33,33,33)" fill="none" stroke-linecap="round"></path><path d="M 416.000,357.000 C 421.125,351.606 422.120,351.623 425.000,345.000" stroke-width="9.830" stroke="rgb(33,33,33)" fill="none" stroke-linecap="round"></path><path d="M 425.000,345.000 C 427.120,340.123 427.529,339.095 426.000,334.000" stroke-width="10.275" stroke="rgb(33,33,33)" fill="none" stroke-linecap="round"></path><path d="M 426.000,334.000 C 423.029,324.095 423.174,322.596 416.000,315.000" stroke-width="9.979" stroke="rgb(33,33,33)" fill="none" stroke-linecap="round"></path><path d="M 416.000,315.000 C 406.174,304.596 404.885,304.822 392.000,298.000" stroke-width="9.335" stroke="rgb(33,33,33)" fill="none" stroke-linecap="round"></path><path d="M 392.000,298.000 C 379.385,291.322 378.913,291.522 365.000,288.000" stroke-width="8.904" stroke="rgb(33,33,33)" fill="none" stroke-linecap="round"></path><path d="M 365.000,288.000 C 339.413,281.522 339.196,280.943 313.000,278.000" stroke-width="7.765" stroke="rgb(33,33,33)" fill="none" stroke-linecap="round"></path><path d="M 313.000,278.000 C 294.696,275.943 293.919,275.540 276.000,278.000" stroke-width="7.441" stroke="rgb(33,33,33)" fill="none" stroke-linecap="round"></path><path d="M 276.000,278.000 C 268.419,279.040 268.269,280.486 262.000,285.000" stroke-width="7.906" stroke="rgb(33,33,33)" fill="none" stroke-linecap="round"></path><path d="M 262.000,285.000 C 255.769,289.486 254.926,289.658 251.000,296.000" stroke-width="8.326" stroke="rgb(33,33,33)" fill="none" stroke-linecap="round"></path><path d="M 251.000,296.000 C 248.426,300.158 248.414,301.314 249.000,306.000" stroke-width="8.938" stroke="rgb(33,33,33)" fill="none" stroke-linecap="round"></path><path d="M 249.000,306.000 C 249.414,309.314 249.849,310.523 253.000,312.000" stroke-width="9.677" stroke="rgb(33,33,33)" fill="none" stroke-linecap="round"></path><path d="M 253.000,312.000 C 265.849,318.023 266.596,318.882 281.000,321.000" stroke-width="9.121" stroke="rgb(33,33,33)" fill="none" stroke-linecap="round"></path><path d="M 281.000,321.000 C 300.596,323.882 300.996,321.785 321.000,322.000" stroke-width="8.276" stroke="rgb(33,33,33)" fill="none" stroke-linecap="round"></path><path d="M 321.000,322.000 C 347.496,322.285 347.626,323.570 374.000,322.000" stroke-width="7.373" stroke="rgb(33,33,33)" fill="none" stroke-linecap="round"></path><path d="M 374.000,322.000 C 389.626,321.070 389.615,320.002 405.000,317.000" stroke-width="7.320" stroke="rgb(33,33,33)" fill="none" stroke-linecap="round"></path><path d="M 405.000,317.000 C 410.115,316.002 410.101,315.782 415.000,314.000" stroke-width="8.026" stroke="rgb(33,33,33)" fill="none" stroke-linecap="round"></path><path d="M 415.000,314.000 C 421.101,311.782 421.305,312.015 427.000,309.000" stroke-width="8.505" stroke="rgb(33,33,33)" fill="none" stroke-linecap="round"></path><path d="M 427.000,309.000 C 429.805,307.515 432.664,306.107 432.000,305.000" stroke-width="9.288" stroke="rgb(33,33,33)" fill="none" stroke-linecap="round"></path><path d="M 432.000,305.000 C 431.164,303.607 428.027,304.069 424.000,304.000" stroke-width="9.980" stroke="rgb(33,33,33)" fill="none" stroke-linecap="round"></path><path d="M 424.000,304.000 C 399.027,303.569 398.815,301.593 374.000,304.000" stroke-width="8.133" stroke="rgb(33,33,33)" fill="none" stroke-linecap="round"></path><path d="M 374.000,304.000 C 331.815,308.093 331.773,309.284 290.000,317.000" stroke-width="6.750" stroke="rgb(33,33,33)" fill="none" stroke-linecap="round"></path><path d="M 290.000,317.000 C 253.273,323.784 253.229,323.943 217.000,333.000" stroke-width="6.750" stroke="rgb(33,33,33)" fill="none" stroke-linecap="round"></path><path d="M 217.000,333.000 C 191.229,339.443 191.541,340.647 166.000,348.000" stroke-width="6.750" stroke="rgb(33,33,33)" fill="none" stroke-linecap="round"></path><path d="M 166.000,348.000 C 158.541,350.147 158.416,349.718 151.000,352.000" stroke-width="6.750" stroke="rgb(33,33,33)" fill="none" stroke-linecap="round"></path><path d="M 151.000,352.000 C 138.916,355.718 138.693,355.503 127.000,360.000" stroke-width="6.750" stroke="rgb(33,33,33)" fill="none" stroke-linecap="round"></path><path d="M 127.000,360.000 C 125.693,360.503 123.736,361.877 125.000,362.000" stroke-width="7.277" stroke="rgb(33,33,33)" fill="none" stroke-linecap="round"></path><path d="M 125.000,362.000 C 144.236,363.877 146.519,362.678 168.000,364.000" stroke-width="6.905" stroke="rgb(33,33,33)" fill="none" stroke-linecap="round"></path><path d="M 168.000,364.000 C 211.519,366.678 211.663,365.333 255.000,370.000" stroke-width="6.750" stroke="rgb(33,33,33)" fill="none" stroke-linecap="round"></path><path d="M 255.000,370.000 C 341.663,379.333 341.622,380.127 428.000,392.000" stroke-width="6.750" stroke="rgb(33,33,33)" fill="none" stroke-linecap="round"></path><path d="M 428.000,392.000 C 487.122,400.127 486.865,402.009 546.000,410.000" stroke-width="6.750" stroke="rgb(33,33,33)" fill="none" stroke-linecap="round"></path><path d="M 546.000,410.000 C 597.865,417.009 597.858,417.808 650.000,422.000" stroke-width="6.750" stroke="rgb(33,33,33)" fill="none" stroke-linecap="round"></path></svg>