<svg xmlns="http://www.w3.org/2000/svg" xmlns:xlink="http://www.w3.org/1999/xlink" viewBox="0 0 800 500"><path d="M 217.000,77.000 C 222.000,73.500 222.426,70.305 227.000,70.000" stroke-width="19.445" stroke="rgb(33,33,33)" fill="none" stroke-linecap="round"></path><path d="M 227.000,70.000 C 229.926,69.805 230.037,72.663 232.000,76.000" stroke-width="18.082" stroke="rgb(33,33,33)" fill="none" stroke-linecap="round"></path><path d="M 232.000,76.000 C 235.037,81.163 235.097,81.292 237.000,87.000" stroke-width="16.722" stroke="rgb(33,33,33)" fill="none" stroke-linecap="round"></path><path d="M 237.000,87.000 C 239.597,94.792 239.384,94.922 241.000,103.000" stroke-width="13.788" stroke="rgb(33,33,33)" fill="none" stroke-linecap="round"></path><path d="M 241.000,103.000 C 242.884,112.422 243.283,112.439 244.000,122.000" stroke-width="12.996" stroke="rgb(33,33,33)" fill="none" stroke-linecap="round"></path><path d="M 244.000,122.000 C 244.783,132.439 244.000,132.500 244.000,143.000" stroke-width="11.729" stroke="rgb(33,33,33)" fill="none" stroke-linecap="round"></path><path d="M 244.000,143.000 C 244.000,154.000 244.256,154.006 244.000,165.000" stroke-width="10.803" stroke="rgb(33,33,33)" fill="none" stroke-linecap="round"></path><path d="M 244.000,165.000 C 243.756,175.506 244.300,175.603 243.000,186.000" stroke-width="10.401" stroke="rgb(33,33,33)" fill="none" stroke-linecap="round"></path><path d="M 243.000,186.000 C 241.800,195.603 241.415,195.608 239.000,205.000" stroke-width="10.196" stroke="rgb(33,33,33)" fill="none" stroke-linecap="round"></path><path d="M 239.000,205.000 C 236.915,213.108 236.650,213.050 234.000,221.000" stroke-width="10.196" stroke="rgb(33,33,33)" fill="none" stroke-linecap="round"></path><path d="M 234.000,221.000 C 231.650,228.050 232.184,228.343 229.000,235.000" stroke-width="10.191" stroke="rgb(33,33,33)" fill="none" stroke-linecap="round"></path><path d="M 229.000,235.000 C 226.684,239.843 226.421,239.845 223.000,244.000" stroke-width="10.564" stroke="rgb(33,33,33)" fill="none" stroke-linecap="round"></path><path d="M 223.000,244.000 C 219.421,248.345 219.345,248.421 215.000,252.000" stroke-width="10.800" stroke="rgb(33,33,33)" fill="none" stroke-linecap="round"></path><path d="M 215.000,252.000 C 210.845,255.421 210.823,255.730 206.000,258.000" stroke-width="11.083" stroke="rgb(33,33,33)" fill="none" stroke-linecap="round"></path><path d="M 206.000,258.000 C 202.323,259.730 202.073,259.593 198.000,260.000" stroke-width="11.514" stroke="rgb(33,33,33)" fill="none" stroke-linecap="round"></path><path d="M 198.000,260.000 C 192.073,260.593 191.988,260.260 186.000,260.000" stroke-width="11.583" stroke="rgb(33,33,33)" fill="none" stroke-linecap="round"></path><path d="M 186.000,260.000 C 180.488,259.760 180.135,260.712 175.000,259.000" stroke-width="11.661" stroke="rgb(33,33,33)" fill="none" stroke-linecap="round"></path><path d="M 175.000,259.000 C 168.135,256.712 168.201,255.968 162.000,252.000" stroke-width="11.606" stroke="rgb(33,33,33)" fill="none" stroke-linecap="round"></path><path d="M 162.000,252.000 C 155.701,247.968 155.662,247.890 150.000,243.000" stroke-width="11.187" stroke="rgb(33,33,33)" fill="none" stroke-linecap="round"></path><path d="M 150.000,243.000 C 144.662,238.390 145.000,238.000 140.000,233.000" stroke-width="11.161" stroke="rgb(33,33,33)" fill="none" stroke-linecap="round"></path><path d="M 140.000,233.000 C 134.500,227.500 134.369,227.625 129.000,222.000" stroke-width="11.155" stroke="rgb(33,33,33)" fill="none" stroke-linecap="round"></path><path d="M 129.000,222.000 C 123.869,216.625 123.987,216.512 119.000,211.000" stroke-width="10.860" stroke="rgb(33,33,33)" fill="none" stroke-linecap="round"></path><path d="M 119.000,211.000 C 114.487,206.012 114.115,206.290 110.000,201.000" stroke-width="10.946" stroke="rgb(33,33,33)" fill="none" stroke-linecap="round"></path><path d="M 110.000,201.000 C 107.115,197.290 107.681,196.872 105.000,193.000" stroke-width="11.307" stroke="rgb(33,33,33)" fill="none" stroke-linecap="round"></path><path d="M 105.000,193.000 C 103.181,190.372 102.521,190.737 101.000,188.000" stroke-width="11.855" stroke="rgb(33,33,33)" fill="none" stroke-linecap="round"></path><path d="M 101.000,188.000 C 100.021,186.237 100.254,186.030 100.000,184.000" stroke-width="12.515" stroke="rgb(33,33,33)" fill="none" stroke-linecap="round"></path><path d="M 100.000,184.000 C 99.754,182.030 98.615,180.970 100.000,180.000" stroke-width="13.137" stroke="rgb(33,33,33)" fill="none" stroke-linecap="round"></path><path d="M 100.000,180.000 C 103.615,177.470 104.881,177.853 110.000,177.000" stroke-width="12.950" stroke="rgb(33,33,33)" fill="none" stroke-linecap="round"></path><path d="M 110.000,177.000 C 116.881,175.853 116.989,176.200 124.000,176.000" stroke-width="12.530" stroke="rgb(33,33,33)" fill="none" stroke-linecap="round"></path><path d="M 124.000,176.000 C 134.489,175.700 134.650,174.679 145.000,176.000" stroke-width="11.638" stroke="rgb(33,33,33)" fill="none" stroke-linecap="round"></path><path d="M 145.000,176.000 C 158.150,177.679 157.949,179.239 171.000,182.000" stroke-width="10.517" stroke="rgb(33,33,33)" fill="none" stroke-linecap="round"></path><path d="M 171.000,182.000 C 183.949,184.739 183.952,184.784 197.000,187.000" stroke-width="9.869" stroke="rgb(33,33,33)" fill="none" stroke-linecap="round"></path><path d="M 197.000,187.000 C 210.452,189.284 210.512,188.925 224.000,191.000" stroke-width="9.364" stroke="rgb(33,33,33)" fill="none" stroke-linecap="round"></path><path d="M 224.000,191.000 C 236.512,192.925 236.492,193.054 249.000,195.000" stroke-width="9.014" stroke="rgb(33,33,33)" fill="none" stroke-linecap="round"></path><path d="M 249.000,195.000 C 258.992,196.554 259.061,196.169 269.000,198.000" stroke-width="9.060" stroke="rgb(33,33,33)" fill="none" stroke-linecap="round"></path><path d="M 269.000,198.000 C 278.061,199.669 278.022,199.905 287.000,202.000" stroke-width="9.183" stroke="rgb(33,33,33)" fill="none" stroke-linecap="round"></path><path d="M 287.000,202.000 C 293.022,203.405 293.085,203.226 299.000,205.000" stroke-width="9.599" stroke="rgb(33,33,33)" fill="none" stroke-linecap="round"></path><path d="M 299.000,205.000 C 303.085,206.226 303.035,206.414 307.000,208.000" stroke-width="10.117" stroke="rgb(33,33,33)" fill="none" stroke-linecap="round"></path><path d="M 353.000,196.000 C 352.000,195.500 352.027,194.853 351.000,195.000" stroke-width="19.577" stroke="rgb(33,33,33)" fill="none" stroke-linecap="round"></path><path d="M 351.000,195.000 C 348.527,195.353 347.541,195.202 346.000,197.000" stroke-width="18.496" stroke="rgb(33,33,33)" fill="none" stroke-linecap="round"></path><path d="M 346.000,197.000 C 344.541,198.702 345.315,199.482 345.000,202.000" stroke-width="17.769" stroke="rgb(33,33,33)" fill="none" stroke-linecap="round"></path><path d="M 345.000,202.000 C 344.815,203.482 344.757,203.540 345.000,205.000" stroke-width="17.685" stroke="rgb(33,33,33)" fill="none" stroke-linecap="round"></path><path d="M 345.000,205.000 C 345.257,206.540 344.826,207.120 346.000,208.000" stroke-width="17.560" stroke="rgb(33,33,33)" fill="none" stroke-linecap="round"></path><path d="M 346.000,208.000 C 348.826,210.120 349.312,210.418 353.000,211.000" stroke-width="16.629" stroke="rgb(33,33,33)" fill="none" stroke-linecap="round"></path><path d="M 353.000,211.000 C 358.812,211.918 359.667,213.000 365.000,211.000" stroke-width="15.292" stroke="rgb(33,33,33)" fill="none" stroke-linecap="round"></path><path d="M 365.000,211.000 C 371.667,208.500 371.475,207.022 377.000,202.000" stroke-width="14.103" stroke="rgb(33,33,33)" fill="none" stroke-linecap="round"></path><path d="M 377.000,202.000 C 382.475,197.022 382.569,196.908 387.000,191.000" stroke-width="13.291" stroke="rgb(33,33,33)" fill="none" stroke-linecap="round"></path><path d="M 387.000,191.000 C 390.069,186.908 390.057,186.720 392.000,182.000" stroke-width="13.085" stroke="rgb(33,33,33)" fill="none" stroke-linecap="round"></path><path d="M 392.000,182.000 C 393.557,178.220 393.492,178.061 394.000,174.000" stroke-width="13.192" stroke="rgb(33,33,33)" fill="none" stroke-linecap="round"></path><path d="M 394.000,174.000 C 394.492,170.061 395.626,169.252 394.000,166.000" stroke-width="13.252" stroke="rgb(33,33,33)" fill="none" stroke-linecap="round"></path><path d="M 394.000,166.000 C 392.126,162.252 390.943,162.218 387.000,160.000" stroke-width="13.169" stroke="rgb(33,33,33)" fill="none" stroke-linecap="round"></path><path d="M 387.000,160.000 C 382.943,157.718 382.641,157.633 378.000,157.000" stroke-width="13.187" stroke="rgb(33,33,33)" fill="none" stroke-linecap="round"></path><path d="M 378.000,157.000 C 371.641,156.133 371.067,155.267 365.000,157.000" stroke-width="12.728" stroke="rgb(33,33,33)" fill="none" stroke-linecap="round"></path><path d="M 365.000,157.000 C 357.067,159.267 356.756,159.996 350.000,165.000" stroke-width="12.106" stroke="rgb(33,33,33)" fill="none" stroke-linecap="round"></path><path d="M 350.000,165.000 C 343.256,169.996 343.526,170.602 338.000,177.000" stroke-width="11.652" stroke="rgb(33,33,33)" fill="none" stroke-linecap="round"></path><path d="M 338.000,177.000 C 334.026,181.602 334.079,181.766 331.000,187.000" stroke-width="11.619" stroke="rgb(33,33,33)" fill="none" stroke-linecap="round"></path><path d="M 331.000,187.000 C 329.079,190.266 329.112,190.386 328.000,194.000" stroke-width="12.026" stroke="rgb(33,33,33)" fill="none" stroke-linecap="round"></path><path d="M 328.000,194.000 C 327.112,196.886 327.302,196.984 327.000,200.000" stroke-width="12.510" stroke="rgb(33,33,33)" fill="none" stroke-linecap="round"></path><path d="M 327.000,200.000 C 326.802,201.984 326.056,202.584 327.000,204.000" stroke-width="13.107" stroke="rgb(33,33,33)" fill="none" stroke-linecap="round"></path><path d="M 327.000,204.000 C 328.056,205.584 328.844,205.538 331.000,206.000" stroke-width="13.540" stroke="rgb(33,33,33)" fill="none" stroke-linecap="round"></path><path d="M 331.000,206.000 C 335.844,207.038 335.986,206.782 341.000,207.000" stroke-width="13.480" stroke="rgb(33,33,33)" fill="none" stroke-linecap="round"></path><path d="M 341.000,207.000 C 347.486,207.282 347.500,207.000 354.000,207.000" stroke-width="12.945" stroke="rgb(33,33,33)" fill="none" stroke-linecap="round"></path><path d="M 354.000,207.000 C 360.000,207.000 360.000,207.000 366.000,207.000" stroke-width="12.715" stroke="rgb(33,33,33)" fill="none" stroke-linecap="round"></path><path d="M 366.000,207.000 C 372.000,207.000 372.498,208.761 378.000,207.000" stroke-width="12.537" stroke="rgb(33,33,33)" fill="none" stroke-linecap="round"></path><path d="M 378.000,207.000 C 384.998,204.761 384.855,203.490 391.000,199.000" stroke-width="12.032" stroke="rgb(33,33,33)" fill="none" stroke-linecap="round"></path><path d="M 391.000,199.000 C 397.855,193.990 398.107,194.103 404.000,188.000" stroke-width="11.593" stroke="rgb(33,33,33)" fill="none" stroke-linecap="round"></path><path d="M 404.000,188.000 C 412.107,179.603 412.477,179.664 419.000,170.000" stroke-width="10.811" stroke="rgb(33,33,33)" fill="none" stroke-linecap="round"></path><path d="M 419.000,170.000 C 425.977,159.664 425.712,159.332 431.000,148.000" stroke-width="10.066" stroke="rgb(33,33,33)" fill="none" stroke-linecap="round"></path><path d="M 431.000,148.000 C 436.212,136.832 436.516,136.793 440.000,125.000" stroke-width="9.643" stroke="rgb(33,33,33)" fill="none" stroke-linecap="round"></path><path d="M 440.000,125.000 C 443.016,114.793 442.967,114.591 444.000,104.000" stroke-width="9.353" stroke="rgb(33,33,33)" fill="none" stroke-linecap="round"></path><path d="M 444.000,104.000 C 444.967,94.091 444.000,94.000 444.000,84.000" stroke-width="9.400" stroke="rgb(33,33,33)" fill="none" stroke-linecap="round"></path><path d="M 444.000,84.000 C 444.000,74.500 443.712,74.490 444.000,65.000" stroke-width="9.432" stroke="rgb(33,33,33)" fill="none" stroke-linecap="round"></path><path d="M 444.000,65.000 C 444.212,57.990 444.417,57.993 445.000,51.000" stroke-width="9.723" stroke="rgb(33,33,33)" fill="none" stroke-linecap="round"></path><path d="M 445.000,51.000 C 445.417,45.993 445.705,46.010 446.000,41.000" stroke-width="10.167" stroke="rgb(33,33,33)" fill="none" stroke-linecap="round"></path><path d="M 446.000,41.000 C 446.205,37.510 446.000,37.500 446.000,34.000" stroke-width="10.766" stroke="rgb(33,33,33)" fill="none" stroke-linecap="round"></path><path d="M 446.000,34.000 C 446.000,32.500 446.000,31.300 446.000,31.000" stroke-width="11.623" stroke="rgb(33,33,33)" fill="none" stroke-linecap="round"></path><path d="M 446.000,31.000 C 446.000,30.800 446.209,32.026 446.000,33.000" stroke-width="12.613" stroke="rgb(33,33,33)" fill="none" stroke-linecap="round"></path><path d="M 446.000,33.000 C 444.709,39.026 444.613,39.030 443.000,45.000" stroke-width="12.486" stroke="rgb(33,33,33)" fill="none" stroke-linecap="round"></path><path d="M 443.000,45.000 C 439.613,57.530 439.147,57.411 436.000,70.000" stroke-width="10.984" stroke="rgb(33,33,33)" fill="none" stroke-linecap="round"></path><path d="M 436.000,70.000 C 432.647,83.411 432.492,83.405 430.000,97.000" stroke-width="10.216" stroke="rgb(33,33,33)" fill="none" stroke-linecap="round"></path><path d="M 430.000,97.000 C 426.992,113.405 427.428,113.489 425.000,130.000" stroke-width="9.296" stroke="rgb(33,33,33)" fill="none" stroke-linecap="round"></path><path d="M 425.000,130.000 C 422.428,147.489 422.286,147.472 420.000,165.000" stroke-width="8.492" stroke="rgb(33,33,33)" fill="none" stroke-linecap="round"></path><path d="M 420.000,165.000 C 417.786,181.972 417.833,181.982 416.000,199.000" stroke-width="8.139" stroke="rgb(33,33,33)" fill="none" stroke-linecap="round"></path><path d="M 416.000,199.000 C 414.333,214.482 414.090,214.472 413.000,230.000" stroke-width="7.684" stroke="rgb(33,33,33)" fill="none" stroke-linecap="round"></path><path d="M 413.000,230.000 C 412.090,242.972 412.846,243.024 412.000,256.000" stroke-width="7.745" stroke="rgb(33,33,33)" fill="none" stroke-linecap="round"></path><path d="M 412.000,256.000 C 411.346,266.024 411.080,266.009 410.000,276.000" stroke-width="7.964" stroke="rgb(33,33,33)" fill="none" stroke-linecap="round"></path><path d="M 410.000,276.000 C 409.080,284.509 409.501,284.597 408.000,293.000" stroke-width="8.314" stroke="rgb(33,33,33)" fill="none" stroke-linecap="round"></path><path d="M 408.000,293.000 C 407.001,298.597 406.382,298.471 405.000,304.000" stroke-width="8.871" stroke="rgb(33,33,33)" fill="none" stroke-linecap="round"></path><path d="M 405.000,304.000 C 403.882,308.471 404.263,308.581 403.000,313.000" stroke-width="9.513" stroke="rgb(33,33,33)" fill="none" stroke-linecap="round"></path><path d="M 403.000,313.000 C 402.263,315.581 402.311,315.705 401.000,318.000" stroke-width="10.299" stroke="rgb(33,33,33)" fill="none" stroke-linecap="round"></path><path d="M 401.000,318.000 C 400.311,319.205 400.117,319.162 399.000,320.000" stroke-width="11.198" stroke="rgb(33,33,33)" fill="none" stroke-linecap="round"></path><path d="M 464.000,183.000 C 464.000,185.000 464.000,185.000 464.000,187.000" stroke-width="19.432" stroke="rgb(33,33,33)" fill="none" stroke-linecap="round"></path><path d="M 464.000,187.000 C 464.000,189.000 464.000,189.000 464.000,191.000" stroke-width="18.302" stroke="rgb(33,33,33)" fill="none" stroke-linecap="round"></path><path d="M 464.000,191.000 C 464.000,194.500 464.000,194.500 464.000,198.000" stroke-width="17.269" stroke="rgb(33,33,33)" fill="none" stroke-linecap="round"></path><path d="M 464.000,198.000 C 464.000,201.500 464.000,201.500 464.000,205.000" stroke-width="16.444" stroke="rgb(33,33,33)" fill="none" stroke-linecap="round"></path><path d="M 464.000,205.000 C 464.000,208.000 464.000,208.000 464.000,211.000" stroke-width="16.176" stroke="rgb(33,33,33)" fill="none" stroke-linecap="round"></path><path d="M 464.000,211.000 C 464.000,213.000 463.414,213.243 464.000,215.000" stroke-width="16.284" stroke="rgb(33,33,33)" fill="none" stroke-linecap="round"></path><path d="M 464.000,215.000 C 464.414,216.243 464.779,216.390 466.000,217.000" stroke-width="16.393" stroke="rgb(33,33,33)" fill="none" stroke-linecap="round"></path><path d="M 466.000,217.000 C 467.779,217.890 468.049,218.217 470.000,218.000" stroke-width="16.374" stroke="rgb(33,33,33)" fill="none" stroke-linecap="round"></path><path d="M 470.000,218.000 C 472.549,217.717 473.343,217.864 475.000,216.000" stroke-width="16.114" stroke="rgb(33,33,33)" fill="none" stroke-linecap="round"></path><path d="M 475.000,216.000 C 477.343,213.364 477.386,212.682 478.000,209.000" stroke-width="15.698" stroke="rgb(33,33,33)" fill="none" stroke-linecap="round"></path><path d="M 478.000,209.000 C 478.886,203.682 478.239,203.490 478.000,198.000" stroke-width="14.787" stroke="rgb(33,33,33)" fill="none" stroke-linecap="round"></path><path d="M 478.000,198.000 C 477.739,191.990 478.857,191.572 477.000,186.000" stroke-width="14.003" stroke="rgb(33,33,33)" fill="none" stroke-linecap="round"></path><path d="M 477.000,186.000 C 474.857,179.572 473.655,179.904 470.000,174.000" stroke-width="13.320" stroke="rgb(33,33,33)" fill="none" stroke-linecap="round"></path><path d="M 470.000,174.000 C 467.155,169.404 467.064,169.456 464.000,165.000" stroke-width="13.119" stroke="rgb(33,33,33)" fill="none" stroke-linecap="round"></path><path d="M 464.000,165.000 C 461.564,161.456 461.153,161.690 459.000,158.000" stroke-width="13.183" stroke="rgb(33,33,33)" fill="none" stroke-linecap="round"></path><path d="M 459.000,158.000 C 457.653,155.690 457.945,155.520 457.000,153.000" stroke-width="13.449" stroke="rgb(33,33,33)" fill="none" stroke-linecap="round"></path><path d="M 457.000,153.000 C 456.445,151.520 456.306,151.531 456.000,150.000" stroke-width="14.083" stroke="rgb(33,33,33)" fill="none" stroke-linecap="round"></path><path d="M 456.000,150.000 C 455.806,149.031 455.272,148.520 456.000,148.000" stroke-width="14.740" stroke="rgb(33,33,33)" fill="none" stroke-linecap="round"></path><path d="M 456.000,148.000 C 458.772,146.020 459.317,145.837 463.000,145.000" stroke-width="14.458" stroke="rgb(33,33,33)" fill="none" stroke-linecap="round"></path><path d="M 463.000,145.000 C 470.317,143.337 470.516,144.109 478.000,143.000" stroke-width="13.603" stroke="rgb(33,33,33)" fill="none" stroke-linecap="round"></path><path d="M 478.000,143.000 C 484.016,142.109 483.963,141.549 490.000,141.000" stroke-width="13.201" stroke="rgb(33,33,33)" fill="none" stroke-linecap="round"></path><path d="M 490.000,141.000 C 494.963,140.549 495.000,141.000 500.000,141.000" stroke-width="13.046" stroke="rgb(33,33,33)" fill="none" stroke-linecap="round"></path><path d="M 500.000,141.000 C 505.000,141.000 505.352,139.838 510.000,141.000" stroke-width="12.986" stroke="rgb(33,33,33)" fill="none" stroke-linecap="round"></path><path d="M 510.000,141.000 C 513.352,141.838 513.811,142.325 516.000,145.000" stroke-width="13.215" stroke="rgb(33,33,33)" fill="none" stroke-linecap="round"></path><path d="M 516.000,145.000 C 518.311,147.825 518.386,148.318 519.000,152.000" stroke-width="13.313" stroke="rgb(33,33,33)" fill="none" stroke-linecap="round"></path><path d="M 519.000,152.000 C 519.886,157.318 519.737,157.599 519.000,163.000" stroke-width="13.096" stroke="rgb(33,33,33)" fill="none" stroke-linecap="round"></path><path d="M 519.000,163.000 C 518.237,168.599 517.727,168.572 516.000,174.000" stroke-width="12.888" stroke="rgb(33,33,33)" fill="none" stroke-linecap="round"></path><path d="M 516.000,174.000 C 514.227,179.572 513.678,179.406 512.000,185.000" stroke-width="12.631" stroke="rgb(33,33,33)" fill="none" stroke-linecap="round"></path><path d="M 512.000,185.000 C 510.678,189.406 510.800,189.465 510.000,194.000" stroke-width="12.673" stroke="rgb(33,33,33)" fill="none" stroke-linecap="round"></path><path d="M 510.000,194.000 C 509.300,197.965 509.268,197.986 509.000,202.000" stroke-width="12.916" stroke="rgb(33,33,33)" fill="none" stroke-linecap="round"></path><path d="M 509.000,202.000 C 508.768,205.486 509.000,205.500 509.000,209.000" stroke-width="13.029" stroke="rgb(33,33,33)" fill="none" stroke-linecap="round"></path><path d="M 509.000,209.000 C 509.000,212.500 508.182,212.727 509.000,216.000" stroke-width="13.312" stroke="rgb(33,33,33)" fill="none" stroke-linecap="round"></path><path d="M 509.000,216.000 C 509.682,218.727 509.907,219.140 512.000,221.000" stroke-width="13.631" stroke="rgb(33,33,33)" fill="none" stroke-linecap="round"></path><path d="M 512.000,221.000 C 514.407,223.140 514.813,223.063 518.000,224.000" stroke-width="13.702" stroke="rgb(33,33,33)" fill="none" stroke-linecap="round"></path><path d="M 518.000,224.000 C 523.313,225.563 523.448,225.573 529.000,226.000" stroke-width="13.500" stroke="rgb(33,33,33)" fill="none" stroke-linecap="round"></path><path d="M 529.000,226.000 C 536.448,226.573 536.717,227.256 544.000,226.000" stroke-width="12.845" stroke="rgb(33,33,33)" fill="none" stroke-linecap="round"></path><path d="M 544.000,226.000 C 551.217,224.756 551.401,224.299 558.000,221.000" stroke-width="12.100" stroke="rgb(33,33,33)" fill="none" stroke-linecap="round"></path><path d="M 558.000,221.000 C 564.401,217.799 564.703,217.767 570.000,213.000" stroke-width="11.918" stroke="rgb(33,33,33)" fill="none" stroke-linecap="round"></path><path d="M 570.000,213.000 C 574.703,208.767 574.205,208.150 578.000,203.000" stroke-width="11.843" stroke="rgb(33,33,33)" fill="none" stroke-linecap="round"></path><path d="M 578.000,203.000 C 581.205,198.650 581.495,198.760 584.000,194.000" stroke-width="11.890" stroke="rgb(33,33,33)" fill="none" stroke-linecap="round"></path><path d="M 584.000,194.000 C 586.495,189.260 586.707,189.173 588.000,184.000" stroke-width="11.988" stroke="rgb(33,33,33)" fill="none" stroke-linecap="round"></path><path d="M 588.000,184.000 C 589.207,179.173 588.736,179.012 589.000,174.000" stroke-width="12.129" stroke="rgb(33,33,33)" fill="none" stroke-linecap="round"></path><path d="M 589.000,174.000 C 589.236,169.512 589.000,169.500 589.000,165.000" stroke-width="12.420" stroke="rgb(33,33,33)" fill="none" stroke-linecap="round"></path><path d="M 589.000,165.000 C 589.000,162.000 590.091,161.455 589.000,159.000" stroke-width="12.781" stroke="rgb(33,33,33)" fill="none" stroke-linecap="round"></path><path d="M 589.000,159.000 C 588.091,156.955 587.250,156.750 585.000,156.000" stroke-width="13.267" stroke="rgb(33,33,33)" fill="none" stroke-linecap="round"></path><path d="M 585.000,156.000 C 582.750,155.250 582.475,155.752 580.000,156.000" stroke-width="13.650" stroke="rgb(33,33,33)" fill="none" stroke-linecap="round"></path><path d="M 580.000,156.000 C 577.475,156.252 576.634,155.366 575.000,157.000" stroke-width="13.996" stroke="rgb(33,33,33)" fill="none" stroke-linecap="round"></path><path d="M 575.000,157.000 C 572.134,159.866 572.477,160.814 571.000,165.000" stroke-width="13.782" stroke="rgb(33,33,33)" fill="none" stroke-linecap="round"></path><path d="M 571.000,165.000 C 569.477,169.314 569.434,169.438 569.000,174.000" stroke-width="13.647" stroke="rgb(33,33,33)" fill="none" stroke-linecap="round"></path><path d="M 569.000,174.000 C 568.434,179.938 568.162,180.136 569.000,186.000" stroke-width="13.250" stroke="rgb(33,33,33)" fill="none" stroke-linecap="round"></path><path d="M 569.000,186.000 C 569.662,190.636 569.322,191.349 572.000,195.000" stroke-width="13.199" stroke="rgb(33,33,33)" fill="none" stroke-linecap="round"></path><path d="M 572.000,195.000 C 574.822,198.849 575.660,198.685 580.000,201.000" stroke-width="13.107" stroke="rgb(33,33,33)" fill="none" stroke-linecap="round"></path><path d="M 580.000,201.000 C 583.160,202.685 583.437,202.452 587.000,203.000" stroke-width="13.261" stroke="rgb(33,33,33)" fill="none" stroke-linecap="round"></path><path d="M 587.000,203.000 C 589.937,203.452 590.021,203.248 593.000,203.000" stroke-width="13.530" stroke="rgb(33,33,33)" fill="none" stroke-linecap="round"></path><path d="M 593.000,203.000 C 596.021,202.748 596.457,203.387 599.000,202.000" stroke-width="13.786" stroke="rgb(33,33,33)" fill="none" stroke-linecap="round"></path><path d="M 599.000,202.000 C 601.957,200.387 601.964,199.850 604.000,197.000" stroke-width="13.837" stroke="rgb(33,33,33)" fill="none" stroke-linecap="round"></path><path d="M 604.000,197.000 C 606.964,192.850 605.965,192.118 609.000,188.000" stroke-width="13.635" stroke="rgb(33,33,33)" fill="none" stroke-linecap="round"></path><path d="M 609.000,188.000 C 612.965,182.618 613.252,182.748 618.000,178.000" stroke-width="13.095" stroke="rgb(33,33,33)" fill="none" stroke-linecap="round"></path><path d="M 618.000,178.000 C 621.752,174.248 621.787,174.222 626.000,171.000" stroke-width="12.826" stroke="rgb(33,33,33)" fill="none" stroke-linecap="round"></path><path d="M 626.000,171.000 C 630.287,167.722 630.251,167.514 635.000,165.000" stroke-width="12.841" stroke="rgb(33,33,33)" fill="none" stroke-linecap="round"></path><path d="M 635.000,165.000 C 638.751,163.014 638.896,163.094 643.000,162.000" stroke-width="12.853" stroke="rgb(33,33,33)" fill="none" stroke-linecap="round"></path><path d="M 643.000,162.000 C 646.396,161.094 646.482,161.251 650.000,161.000" stroke-width="13.119" stroke="rgb(33,33,33)" fill="none" stroke-linecap="round"></path><path d="M 650.000,161.000 C 653.482,160.751 653.958,159.894 657.000,161.000" stroke-width="13.302" stroke="rgb(33,33,33)" fill="none" stroke-linecap="round"></path><path d="M 657.000,161.000 C 659.458,161.894 659.351,162.732 661.000,165.000" stroke-width="13.642" stroke="rgb(33,33,33)" fill="none" stroke-linecap="round"></path><path d="M 661.000,165.000 C 663.351,168.232 663.475,168.296 665.000,172.000" stroke-width="13.606" stroke="rgb(33,33,33)" fill="none" stroke-linecap="round"></path><path d="M 665.000,172.000 C 666.975,176.796 666.871,176.922 668.000,182.000" stroke-width="13.380" stroke="rgb(33,33,33)" fill="none" stroke-linecap="round"></path><path d="M 668.000,182.000 C 668.871,185.922 669.000,185.992 669.000,190.000" stroke-width="13.449" stroke="rgb(33,33,33)" fill="none" stroke-linecap="round"></path><path d="M 669.000,190.000 C 669.000,195.492 670.689,196.743 668.000,201.000" stroke-width="13.049" stroke="rgb(33,33,33)" fill="none" stroke-linecap="round"></path><path d="M 668.000,201.000 C 664.689,206.243 662.763,205.432 657.000,209.000" stroke-width="12.779" stroke="rgb(33,33,33)" fill="none" stroke-linecap="round"></path><path d="M 657.000,209.000 C 652.263,211.932 652.207,212.162 647.000,214.000" stroke-width="12.598" stroke="rgb(33,33,33)" fill="none" stroke-linecap="round"></path><path d="M 647.000,214.000 C 643.707,215.162 643.513,214.681 640.000,215.000" stroke-width="12.905" stroke="rgb(33,33,33)" fill="none" stroke-linecap="round"></path><path d="M 726.000,82.000 C 726.500,84.000 726.898,83.951 727.000,86.000" stroke-width="19.124" stroke="rgb(33,33,33)" fill="none" stroke-linecap="round"></path><path d="M 727.000,86.000 C 727.398,93.951 727.000,94.000 727.000,102.000" stroke-width="16.066" stroke="rgb(33,33,33)" fill="none" stroke-linecap="round"></path><path d="M 727.000,102.000 C 727.000,111.500 727.237,111.506 727.000,121.000" stroke-width="14.005" stroke="rgb(33,33,33)" fill="none" stroke-linecap="round"></path><path d="M 727.000,121.000 C 726.737,131.506 726.600,131.506 726.000,142.000" stroke-width="12.734" stroke="rgb(33,33,33)" fill="none" stroke-linecap="round"></path><path d="M 726.000,142.000 C 725.600,149.006 725.560,149.005 725.000,156.000" stroke-width="12.203" stroke="rgb(33,33,33)" fill="none" stroke-linecap="round"></path><path d="M 725.000,156.000 C 724.560,161.505 724.610,161.513 724.000,167.000" stroke-width="12.271" stroke="rgb(33,33,33)" fill="none" stroke-linecap="round"></path><path d="M 724.000,167.000 C 723.610,170.513 723.293,170.485 723.000,174.000" stroke-width="12.630" stroke="rgb(33,33,33)" fill="none" stroke-linecap="round"></path><path d="M 723.000,174.000 C 722.793,176.485 723.306,176.550 723.000,179.000" stroke-width="13.070" stroke="rgb(33,33,33)" fill="none" stroke-linecap="round"></path><path d="M 723.000,179.000 C 722.806,180.550 722.691,180.618 722.000,182.000" stroke-width="13.864" stroke="rgb(33,33,33)" fill="none" stroke-linecap="round"></path><path d="M 722.000,182.000 C 721.691,182.618 721.586,182.707 721.000,183.000" stroke-width="14.210" stroke="rgb(33,33,33)" fill="none" stroke-linecap="round"></path><path d="M 721.000,183.000 C 720.586,183.207 720.125,183.375 720.000,183.000" stroke-width="14.963" stroke="rgb(33,33,33)" fill="none" stroke-linecap="round"></path><path d="M 720.000,183.000 C 719.625,181.875 720.136,181.492 720.000,180.000" stroke-width="15.364" stroke="rgb(33,33,33)" fill="none" stroke-linecap="round"></path><path d="M 720.000,180.000 C 719.636,175.992 719.382,176.012 719.000,172.000" stroke-width="15.009" stroke="rgb(33,33,33)" fill="none" stroke-linecap="round"></path><path d="M 719.000,172.000 C 718.382,165.512 718.233,165.510 718.000,159.000" stroke-width="13.934" stroke="rgb(33,33,33)" fill="none" stroke-linecap="round"></path><path d="M 718.000,159.000 C 717.733,151.510 718.000,151.500 718.000,144.000" stroke-width="13.242" stroke="rgb(33,33,33)" fill="none" stroke-linecap="round"></path><path d="M 718.000,144.000 C 718.000,135.000 716.669,134.784 718.000,126.000" stroke-width="12.285" stroke="rgb(33,33,33)" fill="none" stroke-linecap="round"></path><path d="M 718.000,126.000 C 719.169,118.284 720.342,118.443 723.000,111.000" stroke-width="11.798" stroke="rgb(33,33,33)" fill="none" stroke-linecap="round"></path><path d="M 723.000,111.000 C 725.342,104.443 725.260,104.394 728.000,98.000" stroke-width="11.658" stroke="rgb(33,33,33)" fill="none" stroke-linecap="round"></path><path d="M 728.000,98.000 C 729.760,93.894 729.487,93.630 732.000,90.000" stroke-width="11.948" stroke="rgb(33,33,33)" fill="none" stroke-linecap="round"></path><path d="M 732.000,90.000 C 733.987,87.130 734.130,86.987 737.000,85.000" stroke-width="12.316" stroke="rgb(33,33,33)" fill="none" stroke-linecap="round"></path><path d="M 737.000,85.000 C 740.630,82.487 740.847,82.615 745.000,81.000" stroke-width="12.495" stroke="rgb(33,33,33)" fill="none" stroke-linecap="round"></path><path d="M 745.000,81.000 C 749.847,79.115 749.972,79.397 755.000,78.000" stroke-width="12.505" stroke="rgb(33,33,33)" fill="none" stroke-linecap="round"></path><path d="M 755.000,78.000 C 758.972,76.897 758.972,76.863 763.000,76.000" stroke-width="12.668" stroke="rgb(33,33,33)" fill="none" stroke-linecap="round"></path><path d="M 763.000,76.000 C 765.972,75.363 765.978,75.232 769.000,75.000" stroke-width="13.061" stroke="rgb(33,33,33)" fill="none" stroke-linecap="round"></path><path d="M 769.000,75.000 C 772.478,74.732 772.500,75.000 776.000,75.000" stroke-width="13.299" stroke="rgb(33,33,33)" fill="none" stroke-linecap="round"></path><path d="M 240.000,313.000 C 245.000,310.500 244.693,309.572 250.000,308.000" stroke-width="17.278" stroke="rgb(33,33,33)" fill="none" stroke-linecap="round"></path><path d="M 250.000,308.000 C 258.193,305.572 258.449,306.140 267.000,305.000" stroke-width="14.962" stroke="rgb(33,33,33)" fill="none" stroke-linecap="round"></path><path d="M 267.000,305.000 C 280.949,303.140 280.992,303.425 295.000,302.000" stroke-width="12.546" stroke="rgb(33,33,33)" fill="none" stroke-linecap="round"></path><path d="M 295.000,302.000 C 310.492,300.425 310.492,300.410 326.000,299.000" stroke-width="10.901" stroke="rgb(33,33,33)" fill="none" stroke-linecap="round"></path><path d="M 326.000,299.000 C 343.492,297.410 343.478,297.184 361.000,296.000" stroke-width="9.529" stroke="rgb(33,33,33)" fill="none" stroke-linecap="round"></path><path d="M 361.000,296.000 C 380.478,294.684 380.490,294.741 400.000,294.000" stroke-width="8.582" stroke="rgb(33,33,33)" fill="none" stroke-linecap="round"></path><path d="M 400.000,294.000 C 419.990,293.241 419.997,293.247 440.000,293.000" stroke-width="7.915" stroke="rgb(33,33,33)" fill="none" stroke-linecap="round"></path><path d="M 440.000,293.000 C 460.497,292.747 460.503,293.244 481.000,293.000" stroke-width="7.339" stroke="rgb(33,33,33)" fill="none" stroke-linecap="round"></path><path d="M 481.000,293.000 C 502.503,292.744 502.500,292.494 524.000,292.000" stroke-width="6.951" stroke="rgb(33,33,33)" fill="none" stroke-linecap="round"></path><path d="M 524.000,292.000 C 546.000,291.494 546.009,291.750 568.000,291.000" stroke-width="6.750" stroke="rgb(33,33,33)" fill="none" stroke-linecap="round"></path><path d="M 568.000,291.000 C 590.009,290.250 590.015,290.263 612.000,289.000" stroke-width="6.750" stroke="rgb(33,33,33)" fill="none" stroke-linecap="round"></path><path d="M 612.000,289.000 C 633.515,287.763 633.529,287.833 655.000,286.000" stroke-width="6.750" stroke="rgb(33,33,33)" fill="none" stroke-linecap="round"></path><path d="M 655.000,286.000 C 674.529,284.333 674.470,283.628 694.000,282.000" stroke-width="6.750" stroke="rgb(33,33,33)" fill="none" stroke-linecap="round"></path><path d="M 694.000,282.000 C 710.470,280.628 710.505,281.082 727.000,280.000" stroke-width="6.750" stroke="rgb(33,33,33)" fill="none" stroke-linecap="round"></path><path d="M 727.000,280.000 C 741.005,279.082 741.014,279.165 755.000,278.000" stroke-width="6.750" stroke="rgb(33,33,33)" fill="none" stroke-linecap="round"></path><path d="M 755.000,278.000 C 765.014,277.165 764.992,276.910 775.000,276.000" stroke-width="6.865" stroke="rgb(33,33,33)" fill="none" stroke-linecap="round"></path><path d="M 775.000,276.000 C 781.492,275.410 781.508,275.590 788.000,275.000" stroke-width="7.487" stroke="rgb(33,33,33)" fill="none" stroke-linecap="round"></path><path d="M 788.000,275.000 C 792.508,274.590 792.492,274.347 797.000,274.000" stroke-width="8.176" stroke="rgb(33,33,33)" fill="none" stroke-linecap="round"></path><path d="M 797.000,274.000 C 798.992,273.847 799.076,274.321 801.000,274.000" stroke-width="9.075" stroke="rgb(33,33,33)" fill="none" stroke-linecap="round"></path><path d="M 801.000,274.000 C 802.076,273.821 802.309,273.691 803.000,273.000" stroke-width="10.074" stroke="rgb(33,33,33)" fill="none" stroke-linecap="round"></path><path d="M 803.000,273.000 C 803.309,272.691 803.375,272.125 803.000,272.000" stroke-width="11.161" stroke="rgb(33,33,33)" fill="none" stroke-linecap="round"></path><path d="M 803.000,272.000 C 801.875,271.625 801.432,272.286 800.000,272.000" stroke-width="12.006" stroke="rgb(33,33,33)" fill="none" stroke-linecap="round"></path><path d="M 800.000,272.000 C 798.932,271.786 799.056,271.264 798.000,271.000" stroke-width="12.852" stroke="rgb(33,33,33)" fill="none" stroke-linecap="round"></path><path d="M 798.000,271.000 C 797.056,270.764 797.000,271.000 796.000,271.000" stroke-width="13.631" stroke="rgb(33,33,33)" fill="none" stroke-linecap="round"></path><path d="M 796.000,271.000 C 795.000,271.000 795.000,271.000 794.000,271.000" stroke-width="14.342" stroke="rgb(33,33,33)" fill="none" stroke-linecap="round"></path></svg>