<svg xmlns="http://www.w3.org/2000/svg" xmlns:xlink="http://www.w3.org/1999/xlink" viewBox="0 0 800 500"><path d="M 428.500,162.000 C 428.000,164.000 428.261,164.097 427.500,166.000" stroke-width="18.116" stroke="rgb(33,33,33)" fill="none" stroke-linecap="round"></path><path d="M 427.500,166.000 C 426.261,169.097 425.819,168.921 424.500,172.000" stroke-width="15.366" stroke="rgb(33,33,33)" fill="none" stroke-linecap="round"></path><path d="M 424.500,172.000 C 422.819,175.921 423.126,176.052 421.500,180.000" stroke-width="13.795" stroke="rgb(33,33,33)" fill="none" stroke-linecap="round"></path><path d="M 421.500,180.000 C 419.626,184.552 419.474,184.489 417.500,189.000" stroke-width="12.496" stroke="rgb(33,33,33)" fill="none" stroke-linecap="round"></path><path d="M 417.500,189.000 C 415.974,192.489 415.778,192.421 414.500,196.000" stroke-width="12.005" stroke="rgb(33,33,33)" fill="none" stroke-linecap="round"></path><path d="M 414.500,196.000 C 413.278,199.421 413.722,199.579 412.500,203.000" stroke-width="11.695" stroke="rgb(33,33,33)" fill="none" stroke-linecap="round"></path><path d="M 412.500,203.000 C 411.222,206.579 410.537,206.370 409.500,210.000" stroke-width="11.405" stroke="rgb(33,33,33)" fill="none" stroke-linecap="round"></path><path d="M 409.500,210.000 C 408.537,213.370 409.000,213.500 408.500,217.000" stroke-width="11.392" stroke="rgb(33,33,33)" fill="none" stroke-linecap="round"></path><path d="M 408.500,217.000 C 408.000,220.500 408.292,220.569 407.500,224.000" stroke-width="11.257" stroke="rgb(33,33,33)" fill="none" stroke-linecap="round"></path><path d="M 407.500,224.000 C 406.792,227.069 406.500,227.000 405.500,230.000" stroke-width="10.703" stroke="rgb(33,33,33)" fill="none" stroke-linecap="round"></path><path d="M 405.500,230.000 C 404.500,233.000 404.580,233.029 403.500,236.000" stroke-width="11.132" stroke="rgb(33,33,33)" fill="none" stroke-linecap="round"></path><path d="M 403.500,236.000 C 402.580,238.529 402.420,238.471 401.500,241.000" stroke-width="11.037" stroke="rgb(33,33,33)" fill="none" stroke-linecap="round"></path><path d="M 401.500,241.000 C 400.420,243.971 400.673,244.067 399.500,247.000" stroke-width="10.955" stroke="rgb(33,33,33)" fill="none" stroke-linecap="round"></path><path d="M 399.500,247.000 C 397.673,251.567 397.474,251.489 395.500,256.000" stroke-width="10.519" stroke="rgb(33,33,33)" fill="none" stroke-linecap="round"></path><path d="M 395.500,256.000 C 393.974,259.489 394.095,259.544 392.500,263.000" stroke-width="10.490" stroke="rgb(33,33,33)" fill="none" stroke-linecap="round"></path><path d="M 392.500,263.000 C 391.095,266.044 390.699,265.883 389.500,269.000" stroke-width="10.591" stroke="rgb(33,33,33)" fill="none" stroke-linecap="round"></path><path d="M 389.500,269.000 C 388.199,272.383 388.801,272.617 387.500,276.000" stroke-width="10.267" stroke="rgb(33,33,33)" fill="none" stroke-linecap="round"></path><path d="M 387.500,276.000 C 386.301,279.117 386.187,279.108 384.500,282.000" stroke-width="10.408" stroke="rgb(33,33,33)" fill="none" stroke-linecap="round"></path><path d="M 384.500,282.000 C 382.687,285.108 382.552,285.036 380.500,288.000" stroke-width="10.456" stroke="rgb(33,33,33)" fill="none" stroke-linecap="round"></path><path d="M 380.500,288.000 C 378.052,291.536 378.080,291.560 375.500,295.000" stroke-width="10.308" stroke="rgb(33,33,33)" fill="none" stroke-linecap="round"></path><path d="M 375.500,295.000 C 373.580,297.560 373.381,297.413 371.500,300.000" stroke-width="10.483" stroke="rgb(33,33,33)" fill="none" stroke-linecap="round"></path><path d="M 371.500,300.000 C 369.381,302.913 369.619,303.087 367.500,306.000" stroke-width="10.516" stroke="rgb(33,33,33)" fill="none" stroke-linecap="round"></path><path d="M 367.500,306.000 C 365.619,308.587 365.605,308.594 363.500,311.000" stroke-width="10.655" stroke="rgb(33,33,33)" fill="none" stroke-linecap="round"></path><path d="M 363.500,311.000 C 362.105,312.594 362.107,312.623 360.500,314.000" stroke-width="11.087" stroke="rgb(33,33,33)" fill="none" stroke-linecap="round"></path><path d="M 360.500,314.000 C 358.607,315.623 358.573,315.618 356.500,317.000" stroke-width="11.337" stroke="rgb(33,33,33)" fill="none" stroke-linecap="round"></path><path d="M 356.500,317.000 C 355.573,317.618 355.266,317.234 354.500,318.000" stroke-width="12.019" stroke="rgb(33,33,33)" fill="none" stroke-linecap="round"></path><path d="M 354.500,318.000 C 353.266,319.234 353.832,319.935 352.500,321.000" stroke-width="11.967" stroke="rgb(33,33,33)" fill="none" stroke-linecap="round"></path><path d="M 352.500,321.000 C 351.332,321.935 350.902,321.299 349.500,322.000" stroke-width="12.402" stroke="rgb(33,33,33)" fill="none" stroke-linecap="round"></path><path d="M 349.500,322.000 C 347.902,322.799 348.138,323.454 346.500,324.000" stroke-width="12.830" stroke="rgb(33,33,33)" fill="none" stroke-linecap="round"></path><path d="M 346.500,324.000 C 345.138,324.454 344.960,323.757 343.500,324.000" stroke-width="13.169" stroke="rgb(33,33,33)" fill="none" stroke-linecap="round"></path><path d="M 343.500,324.000 C 341.960,324.257 342.019,324.566 340.500,325.000" stroke-width="13.418" stroke="rgb(33,33,33)" fill="none" stroke-linecap="round"></path><path d="M 340.500,325.000 C 338.519,325.566 338.526,325.632 336.500,326.000" stroke-width="13.407" stroke="rgb(33,33,33)" fill="none" stroke-linecap="round"></path><path d="M 336.500,326.000 C 333.026,326.632 333.018,326.749 329.500,327.000" stroke-width="12.775" stroke="rgb(33,33,33)" fill="none" stroke-linecap="round"></path><path d="M 329.500,327.000 C 326.018,327.249 326.000,327.000 322.500,327.000" stroke-width="12.324" stroke="rgb(33,33,33)" fill="none" stroke-linecap="round"></path><path d="M 322.500,327.000 C 318.500,327.000 318.500,327.000 314.500,327.000" stroke-width="10.577" stroke="rgb(33,33,33)" fill="none" stroke-linecap="round"></path><path d="M 314.500,327.000 C 310.500,327.000 310.500,327.000 306.500,327.000" stroke-width="10.484" stroke="rgb(33,33,33)" fill="none" stroke-linecap="round"></path><path d="M 306.500,327.000 C 302.500,327.000 302.484,327.249 298.500,327.000" stroke-width="10.410" stroke="rgb(33,33,33)" fill="none" stroke-linecap="round"></path><path d="M 298.500,327.000 C 294.484,326.749 294.405,326.919 290.500,326.000" stroke-width="10.343" stroke="rgb(33,33,33)" fill="none" stroke-linecap="round"></path><path d="M 290.500,326.000 C 285.905,324.919 286.000,324.500 281.500,323.000" stroke-width="10.108" stroke="rgb(33,33,33)" fill="none" stroke-linecap="round"></path><path d="M 281.500,323.000 C 277.000,321.500 276.977,321.567 272.500,320.000" stroke-width="9.927" stroke="rgb(33,33,33)" fill="none" stroke-linecap="round"></path><path d="M 272.500,320.000 C 266.977,318.067 267.072,317.773 261.500,316.000" stroke-width="9.532" stroke="rgb(33,33,33)" fill="none" stroke-linecap="round"></path><path d="M 261.500,316.000 C 256.072,314.273 255.981,314.566 250.500,313.000" stroke-width="9.406" stroke="rgb(33,33,33)" fill="none" stroke-linecap="round"></path><path d="M 250.500,313.000 C 245.481,311.566 245.535,311.373 240.500,310.000" stroke-width="9.275" stroke="rgb(33,33,33)" fill="none" stroke-linecap="round"></path><path d="M 240.500,310.000 C 234.535,308.373 234.380,308.871 228.500,307.000" stroke-width="8.976" stroke="rgb(33,33,33)" fill="none" stroke-linecap="round"></path><path d="M 228.500,307.000 C 223.380,305.371 223.417,305.185 218.500,303.000" stroke-width="9.024" stroke="rgb(33,33,33)" fill="none" stroke-linecap="round"></path><path d="M 218.500,303.000 C 214.417,301.185 214.545,300.904 210.500,299.000" stroke-width="8.291" stroke="rgb(33,33,33)" fill="none" stroke-linecap="round"></path><path d="M 210.500,299.000 C 206.045,296.904 205.830,297.309 201.500,295.000" stroke-width="8.735" stroke="rgb(33,33,33)" fill="none" stroke-linecap="round"></path><path d="M 201.500,295.000 C 198.330,293.309 198.453,293.067 195.500,291.000" stroke-width="8.385" stroke="rgb(33,33,33)" fill="none" stroke-linecap="round"></path><path d="M 195.500,291.000 C 193.453,289.567 193.377,289.642 191.500,288.000" stroke-width="8.972" stroke="rgb(33,33,33)" fill="none" stroke-linecap="round"></path><path d="M 191.500,288.000 C 189.377,286.142 189.623,285.858 187.500,284.000" stroke-width="9.557" stroke="rgb(33,33,33)" fill="none" stroke-linecap="round"></path><path d="M 187.500,284.000 C 185.623,282.358 185.243,282.743 183.500,281.000" stroke-width="10.025" stroke="rgb(33,33,33)" fill="none" stroke-linecap="round"></path><path d="M 183.500,281.000 C 182.243,279.743 182.426,279.543 181.500,278.000" stroke-width="10.623" stroke="rgb(33,33,33)" fill="none" stroke-linecap="round"></path><path d="M 181.500,278.000 C 180.926,277.043 181.000,277.000 180.500,276.000" stroke-width="11.371" stroke="rgb(33,33,33)" fill="none" stroke-linecap="round"></path><path d="M 180.500,276.000 C 180.000,275.000 180.000,275.000 179.500,274.000" stroke-width="12.050" stroke="rgb(33,33,33)" fill="none" stroke-linecap="round"></path><path d="M 179.500,274.000 C 179.000,273.000 179.000,273.000 178.500,272.000" stroke-width="12.653" stroke="rgb(33,33,33)" fill="none" stroke-linecap="round"></path><path d="M 178.500,272.000 C 178.000,271.000 177.714,271.068 177.500,270.000" stroke-width="12.719" stroke="rgb(33,33,33)" fill="none" stroke-linecap="round"></path><path d="M 177.500,270.000 C 177.214,268.568 177.500,268.500 177.500,267.000" stroke-width="13.076" stroke="rgb(33,33,33)" fill="none" stroke-linecap="round"></path><path d="M 177.500,267.000 C 177.500,266.000 177.500,266.000 177.500,265.000" stroke-width="13.600" stroke="rgb(33,33,33)" fill="none" stroke-linecap="round"></path><path d="M 177.500,265.000 C 177.500,264.000 177.071,263.857 177.500,263.000" stroke-width="14.149" stroke="rgb(33,33,33)" fill="none" stroke-linecap="round"></path><path d="M 177.500,263.000 C 178.571,260.857 178.965,260.973 180.500,259.000" stroke-width="13.776" stroke="rgb(33,33,33)" fill="none" stroke-linecap="round"></path><path d="M 180.500,259.000 C 182.465,256.473 182.248,256.252 184.500,254.000" stroke-width="13.183" stroke="rgb(33,33,33)" fill="none" stroke-linecap="round"></path><path d="M 184.500,254.000 C 187.248,251.252 187.535,251.541 190.500,249.000" stroke-width="12.469" stroke="rgb(33,33,33)" fill="none" stroke-linecap="round"></path><path d="M 190.500,249.000 C 194.535,245.541 194.054,244.808 198.500,242.000" stroke-width="11.473" stroke="rgb(33,33,33)" fill="none" stroke-linecap="round"></path><path d="M 198.500,242.000 C 203.554,238.808 203.926,239.323 209.500,237.000" stroke-width="10.579" stroke="rgb(33,33,33)" fill="none" stroke-linecap="round"></path><path d="M 209.500,237.000 C 215.926,234.323 215.879,234.119 222.500,232.000" stroke-width="9.738" stroke="rgb(33,33,33)" fill="none" stroke-linecap="round"></path><path d="M 222.500,232.000 C 228.379,230.119 228.438,230.155 234.500,229.000" stroke-width="9.320" stroke="rgb(33,33,33)" fill="none" stroke-linecap="round"></path><path d="M 234.500,229.000 C 238.938,228.155 239.008,228.562 243.500,228.000" stroke-width="8.469" stroke="rgb(33,33,33)" fill="none" stroke-linecap="round"></path><path d="M 243.500,228.000 C 247.008,227.562 246.987,227.319 250.500,227.000" stroke-width="8.844" stroke="rgb(33,33,33)" fill="none" stroke-linecap="round"></path><path d="M 250.500,227.000 C 252.487,226.819 252.500,227.000 254.500,227.000" stroke-width="9.500" stroke="rgb(33,33,33)" fill="none" stroke-linecap="round"></path><path d="M 254.500,227.000 C 256.500,227.000 256.576,226.679 258.500,227.000" stroke-width="10.098" stroke="rgb(33,33,33)" fill="none" stroke-linecap="round"></path><path d="M 258.500,227.000 C 259.576,227.179 259.581,227.387 260.500,228.000" stroke-width="10.886" stroke="rgb(33,33,33)" fill="none" stroke-linecap="round"></path><path d="M 260.500,228.000 C 261.081,228.387 261.000,228.500 261.500,229.000" stroke-width="11.749" stroke="rgb(33,33,33)" fill="none" stroke-linecap="round"></path><path d="M 261.500,229.000 C 262.000,229.500 262.207,229.414 262.500,230.000" stroke-width="12.545" stroke="rgb(33,33,33)" fill="none" stroke-linecap="round"></path><path d="M 262.500,230.000 C 262.707,230.414 262.293,230.586 262.500,231.000" stroke-width="13.466" stroke="rgb(33,33,33)" fill="none" stroke-linecap="round"></path><path d="M 262.500,231.000 C 262.793,231.586 263.207,231.414 263.500,232.000" stroke-width="14.253" stroke="rgb(33,33,33)" fill="none" stroke-linecap="round"></path><path d="M 263.500,232.000 C 263.707,232.414 263.250,232.750 263.500,233.000" stroke-width="15.060" stroke="rgb(33,33,33)" fill="none" stroke-linecap="round"></path><path d="M 263.500,233.000 C 263.750,233.250 264.086,232.793 264.500,233.000" stroke-width="15.569" stroke="rgb(33,33,33)" fill="none" stroke-linecap="round"></path><path d="M 379.500,227.000 C 379.500,227.500 379.500,227.500 379.500,228.000" stroke-width="16.875" stroke="rgb(33,33,33)" fill="none" stroke-linecap="round"></path><path d="M 379.500,228.000 C 379.500,228.500 379.500,228.500 379.500,229.000" stroke-width="17.271" stroke="rgb(33,33,33)" fill="none" stroke-linecap="round"></path><path d="M 379.500,229.000 C 379.500,229.500 379.500,229.500 379.500,230.000" stroke-width="17.601" stroke="rgb(33,33,33)" fill="none" stroke-linecap="round"></path><path d="M 379.500,230.000 C 379.500,230.500 379.500,230.500 379.500,231.000" stroke-width="17.679" stroke="rgb(33,33,33)" fill="none" stroke-linecap="round"></path><path d="M 379.500,231.000 C 379.500,231.500 379.500,231.500 379.500,232.000" stroke-width="17.939" stroke="rgb(33,33,33)" fill="none" stroke-linecap="round"></path><path d="M 379.500,232.000 C 379.500,232.500 379.500,232.500 379.500,233.000" stroke-width="18.152" stroke="rgb(33,33,33)" fill="none" stroke-linecap="round"></path><path d="M 379.500,233.000 C 379.500,233.500 379.500,233.500 379.500,234.000" stroke-width="18.327" stroke="rgb(33,33,33)" fill="none" stroke-linecap="round"></path><path d="M 379.500,234.000 C 379.500,234.500 379.707,234.586 379.500,235.000" stroke-width="18.306" stroke="rgb(33,33,33)" fill="none" stroke-linecap="round"></path><path d="M 379.500,235.000 C 379.207,235.586 379.086,235.707 378.500,236.000" stroke-width="18.076" stroke="rgb(33,33,33)" fill="none" stroke-linecap="round"></path><path d="M 378.500,236.000 C 378.086,236.207 377.667,235.667 377.500,236.000" stroke-width="18.003" stroke="rgb(33,33,33)" fill="none" stroke-linecap="round"></path><path d="M 377.500,236.000 C 377.167,236.667 377.833,237.333 377.500,238.000" stroke-width="17.359" stroke="rgb(33,33,33)" fill="none" stroke-linecap="round"></path><path d="M 377.500,238.000 C 377.333,238.333 376.914,237.793 376.500,238.000" stroke-width="17.484" stroke="rgb(33,33,33)" fill="none" stroke-linecap="round"></path><path d="M 376.500,238.000 C 375.914,238.293 375.887,238.419 375.500,239.000" stroke-width="17.428" stroke="rgb(33,33,33)" fill="none" stroke-linecap="round"></path><path d="M 375.500,239.000 C 374.887,239.919 375.113,240.081 374.500,241.000" stroke-width="17.082" stroke="rgb(33,33,33)" fill="none" stroke-linecap="round"></path><path d="M 374.500,241.000 C 374.113,241.581 374.000,241.500 373.500,242.000" stroke-width="17.279" stroke="rgb(33,33,33)" fill="none" stroke-linecap="round"></path><path d="M 373.500,242.000 C 372.500,243.000 372.680,243.292 371.500,244.000" stroke-width="15.833" stroke="rgb(33,33,33)" fill="none" stroke-linecap="round"></path><path d="M 371.500,244.000 C 370.180,244.792 369.820,244.208 368.500,245.000" stroke-width="15.550" stroke="rgb(33,33,33)" fill="none" stroke-linecap="round"></path><path d="M 368.500,245.000 C 367.320,245.708 367.599,246.121 366.500,247.000" stroke-width="15.429" stroke="rgb(33,33,33)" fill="none" stroke-linecap="round"></path><path d="M 366.500,247.000 C 365.099,248.121 365.043,248.074 363.500,249.000" stroke-width="15.110" stroke="rgb(33,33,33)" fill="none" stroke-linecap="round"></path><path d="M 363.500,249.000 C 362.543,249.574 362.575,249.731 361.500,250.000" stroke-width="15.248" stroke="rgb(33,33,33)" fill="none" stroke-linecap="round"></path><path d="M 361.500,250.000 C 358.575,250.731 358.492,250.456 355.500,251.000" stroke-width="14.316" stroke="rgb(33,33,33)" fill="none" stroke-linecap="round"></path><path d="M 355.500,251.000 C 352.992,251.456 353.030,251.805 350.500,252.000" stroke-width="13.879" stroke="rgb(33,33,33)" fill="none" stroke-linecap="round"></path><path d="M 350.500,252.000 C 346.530,252.305 346.500,252.000 342.500,252.000" stroke-width="12.921" stroke="rgb(33,33,33)" fill="none" stroke-linecap="round"></path><path d="M 342.500,252.000 C 338.500,252.000 338.500,252.000 334.500,252.000" stroke-width="12.245" stroke="rgb(33,33,33)" fill="none" stroke-linecap="round"></path><path d="M 334.500,252.000 C 331.500,252.000 331.479,252.248 328.500,252.000" stroke-width="12.104" stroke="rgb(33,33,33)" fill="none" stroke-linecap="round"></path><path d="M 328.500,252.000 C 325.479,251.748 325.417,251.796 322.500,251.000" stroke-width="10.990" stroke="rgb(33,33,33)" fill="none" stroke-linecap="round"></path><path d="M 322.500,251.000 C 319.917,250.296 320.029,249.920 317.500,249.000" stroke-width="11.196" stroke="rgb(33,33,33)" fill="none" stroke-linecap="round"></path><path d="M 317.500,249.000 C 314.529,247.920 314.412,248.213 311.500,247.000" stroke-width="11.218" stroke="rgb(33,33,33)" fill="none" stroke-linecap="round"></path><path d="M 311.500,247.000 C 308.412,245.713 308.272,245.848 305.500,244.000" stroke-width="11.177" stroke="rgb(33,33,33)" fill="none" stroke-linecap="round"></path><path d="M 305.500,244.000 C 302.272,241.848 302.250,241.750 299.500,239.000" stroke-width="10.978" stroke="rgb(33,33,33)" fill="none" stroke-linecap="round"></path><path d="M 299.500,239.000 C 296.750,236.250 296.714,236.198 294.500,233.000" stroke-width="11.140" stroke="rgb(33,33,33)" fill="none" stroke-linecap="round"></path><path d="M 294.500,233.000 C 292.214,229.698 292.199,229.641 290.500,226.000" stroke-width="10.244" stroke="rgb(33,33,33)" fill="none" stroke-linecap="round"></path><path d="M 290.500,226.000 C 288.699,222.141 289.210,221.908 287.500,218.000" stroke-width="10.273" stroke="rgb(33,33,33)" fill="none" stroke-linecap="round"></path><path d="M 287.500,218.000 C 285.710,213.908 285.390,214.051 283.500,210.000" stroke-width="10.122" stroke="rgb(33,33,33)" fill="none" stroke-linecap="round"></path><path d="M 283.500,210.000 C 281.890,206.551 281.612,206.614 280.500,203.000" stroke-width="10.172" stroke="rgb(33,33,33)" fill="none" stroke-linecap="round"></path><path d="M 280.500,203.000 C 279.612,200.114 279.732,200.022 279.500,197.000" stroke-width="10.413" stroke="rgb(33,33,33)" fill="none" stroke-linecap="round"></path><path d="M 279.500,197.000 C 279.232,193.522 279.500,193.500 279.500,190.000" stroke-width="10.488" stroke="rgb(33,33,33)" fill="none" stroke-linecap="round"></path><path d="M 279.500,190.000 C 279.500,187.000 279.500,187.000 279.500,184.000" stroke-width="10.688" stroke="rgb(33,33,33)" fill="none" stroke-linecap="round"></path><path d="M 279.500,184.000 C 279.500,181.000 278.792,180.833 279.500,178.000" stroke-width="10.854" stroke="rgb(33,33,33)" fill="none" stroke-linecap="round"></path><path d="M 279.500,178.000 C 280.292,174.833 280.709,174.814 282.500,172.000" stroke-width="10.885" stroke="rgb(33,33,33)" fill="none" stroke-linecap="round"></path><path d="M 282.500,172.000 C 284.209,169.314 284.148,169.116 286.500,167.000" stroke-width="10.956" stroke="rgb(33,33,33)" fill="none" stroke-linecap="round"></path><path d="M 286.500,167.000 C 289.148,164.616 289.431,164.889 292.500,163.000" stroke-width="10.893" stroke="rgb(33,33,33)" fill="none" stroke-linecap="round"></path><path d="M 292.500,163.000 C 295.931,160.889 295.861,160.712 299.500,159.000" stroke-width="10.722" stroke="rgb(33,33,33)" fill="none" stroke-linecap="round"></path><path d="M 299.500,159.000 C 304.361,156.712 304.552,157.121 309.500,155.000" stroke-width="10.226" stroke="rgb(33,33,33)" fill="none" stroke-linecap="round"></path><path d="M 309.500,155.000 C 315.052,152.621 314.908,152.278 320.500,150.000" stroke-width="9.706" stroke="rgb(33,33,33)" fill="none" stroke-linecap="round"></path><path d="M 320.500,150.000 C 328.408,146.778 328.478,146.941 336.500,144.000" stroke-width="7.436" stroke="rgb(33,33,33)" fill="none" stroke-linecap="round"></path><path d="M 336.500,144.000 C 343.478,141.441 343.340,140.909 350.500,139.000" stroke-width="7.363" stroke="rgb(33,33,33)" fill="none" stroke-linecap="round"></path><path d="M 350.500,139.000 C 358.340,136.909 358.653,138.105 366.500,136.000" stroke-width="7.213" stroke="rgb(33,33,33)" fill="none" stroke-linecap="round"></path><path d="M 366.500,136.000 C 379.153,132.605 379.000,132.000 391.500,128.000" stroke-width="6.750" stroke="rgb(33,33,33)" fill="none" stroke-linecap="round"></path><path d="M 391.500,128.000 C 404.000,124.000 403.887,123.604 416.500,120.000" stroke-width="6.750" stroke="rgb(33,33,33)" fill="none" stroke-linecap="round"></path><path d="M 416.500,120.000 C 428.387,116.604 428.372,116.322 440.500,114.000" stroke-width="6.750" stroke="rgb(33,33,33)" fill="none" stroke-linecap="round"></path><path d="M 440.500,114.000 C 451.872,111.822 451.951,111.906 463.500,111.000" stroke-width="6.750" stroke="rgb(33,33,33)" fill="none" stroke-linecap="round"></path><path d="M 463.500,111.000 C 477.451,109.906 477.496,110.292 491.500,110.000" stroke-width="6.750" stroke="rgb(33,33,33)" fill="none" stroke-linecap="round"></path><path d="M 491.500,110.000 C 501.496,109.792 501.635,108.904 511.500,110.000" stroke-width="6.750" stroke="rgb(33,33,33)" fill="none" stroke-linecap="round"></path><path d="M 511.500,110.000 C 519.635,110.904 519.636,111.580 527.500,114.000" stroke-width="6.750" stroke="rgb(33,33,33)" fill="none" stroke-linecap="round"></path><path d="M 527.500,114.000 C 532.636,115.580 532.920,115.306 537.500,118.000" stroke-width="6.750" stroke="rgb(33,33,33)" fill="none" stroke-linecap="round"></path><path d="M 537.500,118.000 C 541.420,120.306 541.963,120.310 544.500,124.000" stroke-width="6.750" stroke="rgb(33,33,33)" fill="none" stroke-linecap="round"></path><path d="M 544.500,124.000 C 547.463,128.310 546.500,129.000 548.500,134.000" stroke-width="6.875" stroke="rgb(33,33,33)" fill="none" stroke-linecap="round"></path><path d="M 548.500,134.000 C 550.500,139.000 551.070,138.853 552.500,144.000" stroke-width="7.167" stroke="rgb(33,33,33)" fill="none" stroke-linecap="round"></path><path d="M 552.500,144.000 C 553.570,147.853 553.055,147.994 553.500,152.000" stroke-width="7.607" stroke="rgb(33,33,33)" fill="none" stroke-linecap="round"></path><path d="M 553.500,152.000 C 554.055,156.994 554.000,157.000 554.500,162.000" stroke-width="7.846" stroke="rgb(33,33,33)" fill="none" stroke-linecap="round"></path><path d="M 554.500,162.000 C 555.000,167.000 555.222,166.989 555.500,172.000" stroke-width="8.049" stroke="rgb(33,33,33)" fill="none" stroke-linecap="round"></path><path d="M 555.500,172.000 C 555.722,175.989 555.500,176.000 555.500,180.000" stroke-width="8.393" stroke="rgb(33,33,33)" fill="none" stroke-linecap="round"></path><path d="M 555.500,180.000 C 555.500,184.000 555.500,184.000 555.500,188.000" stroke-width="8.690" stroke="rgb(33,33,33)" fill="none" stroke-linecap="round"></path><path d="M 555.500,188.000 C 555.500,191.000 556.073,191.135 555.500,194.000" stroke-width="9.146" stroke="rgb(33,33,33)" fill="none" stroke-linecap="round"></path><path d="M 555.500,194.000 C 555.073,196.135 554.500,196.000 553.500,198.000" stroke-width="9.550" stroke="rgb(33,33,33)" fill="none" stroke-linecap="round"></path><path d="M 553.500,198.000 C 552.500,200.000 552.607,200.062 551.500,202.000" stroke-width="10.084" stroke="rgb(33,33,33)" fill="none" stroke-linecap="round"></path><path d="M 551.500,202.000 C 550.607,203.562 550.757,203.743 549.500,205.000" stroke-width="10.677" stroke="rgb(33,33,33)" fill="none" stroke-linecap="round"></path><path d="M 549.500,205.000 C 547.757,206.743 547.534,206.547 545.500,208.000" stroke-width="10.992" stroke="rgb(33,33,33)" fill="none" stroke-linecap="round"></path><path d="M 545.500,208.000 C 544.034,209.047 544.000,209.000 542.500,210.000" stroke-width="11.287" stroke="rgb(33,33,33)" fill="none" stroke-linecap="round"></path><path d="M 542.500,210.000 C 541.000,211.000 541.157,211.379 539.500,212.000" stroke-width="11.737" stroke="rgb(33,33,33)" fill="none" stroke-linecap="round"></path><path d="M 539.500,212.000 C 537.157,212.879 537.018,212.685 534.500,213.000" stroke-width="11.858" stroke="rgb(33,33,33)" fill="none" stroke-linecap="round"></path><path d="M 534.500,213.000 C 533.018,213.185 532.960,213.243 531.500,213.000" stroke-width="12.338" stroke="rgb(33,33,33)" fill="none" stroke-linecap="round"></path><path d="M 531.500,213.000 C 529.960,212.743 529.980,212.555 528.500,212.000" stroke-width="12.720" stroke="rgb(33,33,33)" fill="none" stroke-linecap="round"></path><path d="M 528.500,212.000 C 525.980,211.055 525.851,211.283 523.500,210.000" stroke-width="12.710" stroke="rgb(33,33,33)" fill="none" stroke-linecap="round"></path><path d="M 523.500,210.000 C 520.351,208.283 520.256,208.297 517.500,206.000" stroke-width="12.236" stroke="rgb(33,33,33)" fill="none" stroke-linecap="round"></path><path d="M 517.500,206.000 C 514.256,203.297 514.624,202.864 511.500,200.000" stroke-width="10.394" stroke="rgb(33,33,33)" fill="none" stroke-linecap="round"></path><path d="M 511.500,200.000 C 508.624,197.364 508.522,197.473 505.500,195.000" stroke-width="10.364" stroke="rgb(33,33,33)" fill="none" stroke-linecap="round"></path><path d="M 505.500,195.000 C 503.022,192.973 502.928,193.081 500.500,191.000" stroke-width="10.530" stroke="rgb(33,33,33)" fill="none" stroke-linecap="round"></path><path d="M 500.500,191.000 C 499.428,190.081 499.500,190.000 498.500,189.000" stroke-width="11.193" stroke="rgb(33,33,33)" fill="none" stroke-linecap="round"></path><path d="M 498.500,189.000 C 497.500,188.000 497.617,187.838 496.500,187.000" stroke-width="11.786" stroke="rgb(33,33,33)" fill="none" stroke-linecap="round"></path><path d="M 496.500,187.000 C 495.617,186.338 495.419,186.613 494.500,186.000" stroke-width="12.421" stroke="rgb(33,33,33)" fill="none" stroke-linecap="round"></path><path d="M 494.500,186.000 C 493.919,185.613 494.086,185.293 493.500,185.000" stroke-width="13.152" stroke="rgb(33,33,33)" fill="none" stroke-linecap="round"></path><path d="M 493.500,185.000 C 493.086,184.793 492.892,184.739 492.500,185.000" stroke-width="13.901" stroke="rgb(33,33,33)" fill="none" stroke-linecap="round"></path><path d="M 492.500,185.000 C 491.392,185.739 491.584,186.097 490.500,187.000" stroke-width="14.101" stroke="rgb(33,33,33)" fill="none" stroke-linecap="round"></path><path d="M 490.500,187.000 C 488.584,188.597 488.354,188.332 486.500,190.000" stroke-width="13.739" stroke="rgb(33,33,33)" fill="none" stroke-linecap="round"></path><path d="M 486.500,190.000 C 483.354,192.832 483.203,192.756 480.500,196.000" stroke-width="12.726" stroke="rgb(33,33,33)" fill="none" stroke-linecap="round"></path><path d="M 480.500,196.000 C 478.203,198.756 478.619,199.087 476.500,202.000" stroke-width="12.249" stroke="rgb(33,33,33)" fill="none" stroke-linecap="round"></path><path d="M 476.500,202.000 C 474.619,204.587 474.465,204.473 472.500,207.000" stroke-width="12.163" stroke="rgb(33,33,33)" fill="none" stroke-linecap="round"></path><path d="M 472.500,207.000 C 470.965,208.973 470.571,208.857 469.500,211.000" stroke-width="12.221" stroke="rgb(33,33,33)" fill="none" stroke-linecap="round"></path><path d="M 469.500,211.000 C 469.071,211.857 469.793,212.121 469.500,213.000" stroke-width="12.718" stroke="rgb(33,33,33)" fill="none" stroke-linecap="round"></path><path d="M 469.500,213.000 C 469.293,213.621 468.793,213.414 468.500,214.000" stroke-width="13.418" stroke="rgb(33,33,33)" fill="none" stroke-linecap="round"></path><path d="M 468.500,214.000 C 468.293,214.414 468.250,214.750 468.500,215.000" stroke-width="14.138" stroke="rgb(33,33,33)" fill="none" stroke-linecap="round"></path><path d="M 468.500,215.000 C 468.750,215.250 469.250,215.250 469.500,215.000" stroke-width="14.991" stroke="rgb(33,33,33)" fill="none" stroke-linecap="round"></path><path d="M 469.500,215.000 C 469.750,214.750 469.250,214.250 469.500,214.000" stroke-width="15.509" stroke="rgb(33,33,33)" fill="none" stroke-linecap="round"></path><path d="M 469.500,214.000 C 469.750,213.750 470.250,214.250 470.500,214.000" stroke-width="15.951" stroke="rgb(33,33,33)" fill="none" stroke-linecap="round"></path><path d="M 470.500,214.000 C 470.750,213.750 470.293,213.414 470.500,213.000" stroke-width="16.213" stroke="rgb(33,33,33)" fill="none" stroke-linecap="round"></path><path d="M 470.500,213.000 C 470.793,212.414 471.000,212.500 471.500,212.000" stroke-width="16.403" stroke="rgb(33,33,33)" fill="none" stroke-linecap="round"></path><path d="M 471.500,212.000 C 472.000,211.500 471.914,211.293 472.500,211.000" stroke-width="16.801" stroke="rgb(33,33,33)" fill="none" stroke-linecap="round"></path></svg>