<svg xmlns="http://www.w3.org/2000/svg" xmlns:xlink="http://www.w3.org/1999/xlink" viewBox="0 0 800 500"><path d="M 327.500,170.000 C 327.000,171.000 326.820,170.933 326.500,172.000" stroke-width="19.828" stroke="rgb(33,33,33)" fill="none" stroke-linecap="round"></path><path d="M 326.500,172.000 C 325.320,175.933 325.892,176.173 324.500,180.000" stroke-width="17.353" stroke="rgb(33,33,33)" fill="none" stroke-linecap="round"></path><path d="M 324.500,180.000 C 323.892,181.673 323.353,181.415 322.500,183.000" stroke-width="16.548" stroke="rgb(33,33,33)" fill="none" stroke-linecap="round"></path><path d="M 322.500,183.000 C 319.853,187.915 319.879,187.944 317.500,193.000" stroke-width="13.884" stroke="rgb(33,33,33)" fill="none" stroke-linecap="round"></path><path d="M 317.500,193.000 C 315.879,196.444 316.121,196.556 314.500,200.000" stroke-width="13.004" stroke="rgb(33,33,33)" fill="none" stroke-linecap="round"></path><path d="M 314.500,200.000 C 312.121,205.056 311.792,204.907 309.500,210.000" stroke-width="11.737" stroke="rgb(33,33,33)" fill="none" stroke-linecap="round"></path><path d="M 309.500,210.000 C 307.292,214.907 307.988,215.250 305.500,220.000" stroke-width="10.949" stroke="rgb(33,33,33)" fill="none" stroke-linecap="round"></path><path d="M 305.500,220.000 C 302.488,225.750 302.308,225.728 298.500,231.000" stroke-width="9.868" stroke="rgb(33,33,33)" fill="none" stroke-linecap="round"></path><path d="M 298.500,231.000 C 295.808,234.728 295.668,234.656 292.500,238.000" stroke-width="10.384" stroke="rgb(33,33,33)" fill="none" stroke-linecap="round"></path><path d="M 292.500,238.000 C 286.668,244.156 286.804,244.359 280.500,250.000" stroke-width="10.615" stroke="rgb(33,33,33)" fill="none" stroke-linecap="round"></path><path d="M 280.500,250.000 C 277.304,252.859 277.304,253.098 273.500,255.000" stroke-width="9.391" stroke="rgb(33,33,33)" fill="none" stroke-linecap="round"></path><path d="M 273.500,255.000 C 269.304,257.098 269.125,257.270 264.500,258.000" stroke-width="8.787" stroke="rgb(33,33,33)" fill="none" stroke-linecap="round"></path><path d="M 264.500,258.000 C 259.625,258.770 259.500,258.000 254.500,258.000" stroke-width="8.829" stroke="rgb(33,33,33)" fill="none" stroke-linecap="round"></path><path d="M 254.500,258.000 C 251.000,258.000 251.000,258.000 247.500,258.000" stroke-width="9.541" stroke="rgb(33,33,33)" fill="none" stroke-linecap="round"></path><path d="M 247.500,258.000 C 245.000,258.000 245.000,258.000 242.500,258.000" stroke-width="10.010" stroke="rgb(33,33,33)" fill="none" stroke-linecap="round"></path><path d="M 242.500,258.000 C 238.500,258.000 238.114,259.205 234.500,258.000" stroke-width="10.145" stroke="rgb(33,33,33)" fill="none" stroke-linecap="round"></path><path d="M 234.500,258.000 C 230.614,256.705 230.978,255.530 227.500,253.000" stroke-width="9.914" stroke="rgb(33,33,33)" fill="none" stroke-linecap="round"></path><path d="M 227.500,253.000 C 225.478,251.530 225.116,251.847 223.500,250.000" stroke-width="10.243" stroke="rgb(33,33,33)" fill="none" stroke-linecap="round"></path><path d="M 223.500,250.000 C 221.616,247.847 221.915,247.547 220.500,245.000" stroke-width="10.596" stroke="rgb(33,33,33)" fill="none" stroke-linecap="round"></path><path d="M 220.500,245.000 C 219.415,243.047 219.328,243.071 218.500,241.000" stroke-width="10.906" stroke="rgb(33,33,33)" fill="none" stroke-linecap="round"></path><path d="M 218.500,241.000 C 217.328,238.071 217.113,238.063 216.500,235.000" stroke-width="11.507" stroke="rgb(33,33,33)" fill="none" stroke-linecap="round"></path><path d="M 216.500,235.000 C 216.113,233.063 216.500,233.000 216.500,231.000" stroke-width="11.857" stroke="rgb(33,33,33)" fill="none" stroke-linecap="round"></path><path d="M 216.500,231.000 C 216.500,229.500 216.500,229.500 216.500,228.000" stroke-width="12.258" stroke="rgb(33,33,33)" fill="none" stroke-linecap="round"></path><path d="M 216.500,228.000 C 216.500,225.000 216.500,225.000 216.500,222.000" stroke-width="12.114" stroke="rgb(33,33,33)" fill="none" stroke-linecap="round"></path><path d="M 216.500,222.000 C 216.500,220.000 216.500,220.000 216.500,218.000" stroke-width="12.368" stroke="rgb(33,33,33)" fill="none" stroke-linecap="round"></path><path d="M 216.500,218.000 C 216.500,216.500 216.500,216.500 216.500,215.000" stroke-width="12.845" stroke="rgb(33,33,33)" fill="none" stroke-linecap="round"></path><path d="M 216.500,215.000 C 216.500,214.500 216.500,214.500 216.500,214.000" stroke-width="13.593" stroke="rgb(33,33,33)" fill="none" stroke-linecap="round"></path><path d="M 216.500,214.000 C 216.500,212.500 216.500,212.500 216.500,211.000" stroke-width="14.190" stroke="rgb(33,33,33)" fill="none" stroke-linecap="round"></path><path d="M 216.500,211.000 C 216.500,210.500 216.345,210.464 216.500,210.000" stroke-width="14.778" stroke="rgb(33,33,33)" fill="none" stroke-linecap="round"></path><path d="M 216.500,210.000 C 216.845,208.964 216.882,208.927 217.500,208.000" stroke-width="14.977" stroke="rgb(33,33,33)" fill="none" stroke-linecap="round"></path><path d="M 341.500,162.000 C 358.000,161.000 357.984,160.472 374.500,160.000" stroke-width="14.329" stroke="rgb(33,33,33)" fill="none" stroke-linecap="round"></path><path d="M 374.500,160.000 C 392.984,159.472 393.000,160.000 411.500,160.000" stroke-width="8.481" stroke="rgb(33,33,33)" fill="none" stroke-linecap="round"></path><path d="M 411.500,160.000 C 426.500,160.000 426.500,160.000 441.500,160.000" stroke-width="7.080" stroke="rgb(33,33,33)" fill="none" stroke-linecap="round"></path><path d="M 362.500,208.000 C 349.500,217.500 348.829,216.688 336.500,227.000" stroke-width="10.546" stroke="rgb(33,33,33)" fill="none" stroke-linecap="round"></path><path d="M 336.500,227.000 C 321.329,239.688 322.080,240.587 307.500,254.000" stroke-width="7.060" stroke="rgb(33,33,33)" fill="none" stroke-linecap="round"></path><path d="M 307.500,254.000 C 297.080,263.587 296.496,263.004 286.500,273.000" stroke-width="7.161" stroke="rgb(33,33,33)" fill="none" stroke-linecap="round"></path><path d="M 286.500,273.000 C 278.996,280.504 279.329,280.857 272.500,289.000" stroke-width="6.750" stroke="rgb(33,33,33)" fill="none" stroke-linecap="round"></path><path d="M 272.500,289.000 C 266.329,296.357 266.500,296.500 260.500,304.000" stroke-width="6.750" stroke="rgb(33,33,33)" fill="none" stroke-linecap="round"></path><path d="M 260.500,304.000 C 256.500,309.000 256.182,308.784 252.500,314.000" stroke-width="6.781" stroke="rgb(33,33,33)" fill="none" stroke-linecap="round"></path><path d="M 252.500,314.000 C 250.182,317.284 250.031,317.325 248.500,321.000" stroke-width="7.315" stroke="rgb(33,33,33)" fill="none" stroke-linecap="round"></path><path d="M 248.500,321.000 C 247.531,323.325 246.500,325.000 247.500,326.000" stroke-width="7.835" stroke="rgb(33,33,33)" fill="none" stroke-linecap="round"></path><path d="M 247.500,326.000 C 248.500,327.000 250.004,325.520 252.500,325.000" stroke-width="8.860" stroke="rgb(33,33,33)" fill="none" stroke-linecap="round"></path><path d="M 252.500,325.000 C 262.004,323.020 262.184,323.662 271.500,321.000" stroke-width="8.056" stroke="rgb(33,33,33)" fill="none" stroke-linecap="round"></path><path d="M 271.500,321.000 C 283.184,317.662 282.745,316.001 294.500,313.000" stroke-width="7.181" stroke="rgb(33,33,33)" fill="none" stroke-linecap="round"></path><path d="M 294.500,313.000 C 306.245,310.001 306.464,310.719 318.500,309.000" stroke-width="6.750" stroke="rgb(33,33,33)" fill="none" stroke-linecap="round"></path><path d="M 318.500,309.000 C 323.964,308.219 323.993,308.413 329.500,308.000" stroke-width="6.917" stroke="rgb(33,33,33)" fill="none" stroke-linecap="round"></path><path d="M 329.500,308.000 C 343.993,306.913 344.010,307.132 358.500,306.000" stroke-width="6.750" stroke="rgb(33,33,33)" fill="none" stroke-linecap="round"></path><path d="M 358.500,306.000 C 376.010,304.632 375.971,304.031 393.500,303.000" stroke-width="6.750" stroke="rgb(33,33,33)" fill="none" stroke-linecap="round"></path><path d="M 393.500,303.000 C 418.471,301.531 418.537,302.577 443.500,301.000" stroke-width="6.750" stroke="rgb(33,33,33)" fill="none" stroke-linecap="round"></path><path d="M 443.500,301.000 C 466.037,299.577 465.968,298.269 488.500,297.000" stroke-width="6.750" stroke="rgb(33,33,33)" fill="none" stroke-linecap="round"></path><path d="M 494.500,227.000 C 493.000,229.500 492.946,229.469 491.500,232.000" stroke-width="19.538" stroke="rgb(33,33,33)" fill="none" stroke-linecap="round"></path><path d="M 491.500,232.000 C 488.946,236.469 489.054,236.531 486.500,241.000" stroke-width="15.740" stroke="rgb(33,33,33)" fill="none" stroke-linecap="round"></path><path d="M 486.500,241.000 C 485.054,243.531 484.969,243.482 483.500,246.000" stroke-width="14.727" stroke="rgb(33,33,33)" fill="none" stroke-linecap="round"></path><path d="M 483.500,246.000 C 481.469,249.482 481.573,249.545 479.500,253.000" stroke-width="13.690" stroke="rgb(33,33,33)" fill="none" stroke-linecap="round"></path><path d="M 479.500,253.000 C 478.573,254.545 478.649,254.622 477.500,256.000" stroke-width="13.624" stroke="rgb(33,33,33)" fill="none" stroke-linecap="round"></path><path d="M 477.500,256.000 C 476.149,257.622 475.717,257.296 474.500,259.000" stroke-width="14.042" stroke="rgb(33,33,33)" fill="none" stroke-linecap="round"></path><path d="M 474.500,259.000 C 473.217,260.796 473.379,260.950 472.500,263.000" stroke-width="13.669" stroke="rgb(33,33,33)" fill="none" stroke-linecap="round"></path><path d="M 472.500,263.000 C 471.879,264.450 472.191,264.618 471.500,266.000" stroke-width="13.913" stroke="rgb(33,33,33)" fill="none" stroke-linecap="round"></path><path d="M 546.500,159.000 C 546.500,162.500 546.232,162.522 546.500,166.000" stroke-width="17.234" stroke="rgb(33,33,33)" fill="none" stroke-linecap="round"></path><path d="M 546.500,166.000 C 546.732,169.022 546.636,169.119 547.500,172.000" stroke-width="16.583" stroke="rgb(33,33,33)" fill="none" stroke-linecap="round"></path><path d="M 547.500,172.000 C 548.136,174.119 548.144,174.257 549.500,176.000" stroke-width="15.867" stroke="rgb(33,33,33)" fill="none" stroke-linecap="round"></path><path d="M 549.500,176.000 C 551.644,178.757 551.715,178.858 554.500,181.000" stroke-width="14.230" stroke="rgb(33,33,33)" fill="none" stroke-linecap="round"></path><path d="M 554.500,181.000 C 558.215,183.858 558.195,184.565 562.500,186.000" stroke-width="13.081" stroke="rgb(33,33,33)" fill="none" stroke-linecap="round"></path><path d="M 599.500,170.000 C 599.500,173.000 599.943,173.047 599.500,176.000" stroke-width="17.609" stroke="rgb(33,33,33)" fill="none" stroke-linecap="round"></path><path d="M 599.500,176.000 C 598.443,183.047 598.126,183.029 596.500,190.000" stroke-width="13.243" stroke="rgb(33,33,33)" fill="none" stroke-linecap="round"></path><path d="M 596.500,190.000 C 594.626,198.029 594.706,198.057 592.500,206.000" stroke-width="11.314" stroke="rgb(33,33,33)" fill="none" stroke-linecap="round"></path><path d="M 592.500,206.000 C 589.706,216.057 588.535,215.825 586.500,226.000" stroke-width="9.402" stroke="rgb(33,33,33)" fill="none" stroke-linecap="round"></path><path d="M 586.500,226.000 C 585.035,233.325 586.201,233.519 585.500,241.000" stroke-width="8.972" stroke="rgb(33,33,33)" fill="none" stroke-linecap="round"></path><path d="M 585.500,241.000 C 584.701,249.519 584.412,249.491 583.500,258.000" stroke-width="9.399" stroke="rgb(33,33,33)" fill="none" stroke-linecap="round"></path><path d="M 583.500,258.000 C 582.912,263.491 583.110,263.513 582.500,269.000" stroke-width="6.750" stroke="rgb(33,33,33)" fill="none" stroke-linecap="round"></path><path d="M 582.500,269.000 C 582.110,272.513 582.038,272.506 581.500,276.000" stroke-width="7.085" stroke="rgb(33,33,33)" fill="none" stroke-linecap="round"></path><path d="M 581.500,276.000 C 581.038,279.006 581.524,279.270 580.500,282.000" stroke-width="7.674" stroke="rgb(33,33,33)" fill="none" stroke-linecap="round"></path><path d="M 580.500,282.000 C 580.024,283.270 579.239,282.892 578.500,284.000" stroke-width="8.503" stroke="rgb(33,33,33)" fill="none" stroke-linecap="round"></path></svg>