<svg xmlns="http://www.w3.org/2000/svg" xmlns:xlink="http://www.w3.org/1999/xlink" viewBox="0 0 800 500"><path d="M 283.500,82.500 C 283.500,83.000 283.214,83.119 283.500,83.500" stroke-width="20.178" stroke="rgb(33,33,33)" fill="none" stroke-linecap="round"></path><path d="M 283.500,83.500 C 284.714,85.119 285.338,84.757 286.500,86.500" stroke-width="19.235" stroke="rgb(33,33,33)" fill="none" stroke-linecap="round"></path><path d="M 286.500,86.500 C 288.338,89.257 287.922,89.541 289.500,92.500" stroke-width="18.133" stroke="rgb(33,33,33)" fill="none" stroke-linecap="round"></path><path d="M 289.500,92.500 C 291.922,97.041 291.692,97.195 294.500,101.500" stroke-width="16.766" stroke="rgb(33,33,33)" fill="none" stroke-linecap="round"></path><path d="M 294.500,101.500 C 299.192,108.695 299.671,108.384 304.500,115.500" stroke-width="14.796" stroke="rgb(33,33,33)" fill="none" stroke-linecap="round"></path><path d="M 304.500,115.500 C 309.171,122.384 309.446,122.246 313.500,129.500" stroke-width="13.684" stroke="rgb(33,33,33)" fill="none" stroke-linecap="round"></path><path d="M 313.500,129.500 C 318.946,139.246 318.604,139.450 323.500,149.500" stroke-width="12.296" stroke="rgb(33,33,33)" fill="none" stroke-linecap="round"></path><path d="M 323.500,149.500 C 328.104,158.950 327.800,159.100 332.500,168.500" stroke-width="11.474" stroke="rgb(33,33,33)" fill="none" stroke-linecap="round"></path><path d="M 332.500,168.500 C 337.300,178.100 337.921,177.803 342.500,187.500" stroke-width="10.861" stroke="rgb(33,33,33)" fill="none" stroke-linecap="round"></path><path d="M 342.500,187.500 C 346.421,195.803 345.880,196.052 349.500,204.500" stroke-width="10.681" stroke="rgb(33,33,33)" fill="none" stroke-linecap="round"></path><path d="M 349.500,204.500 C 351.880,210.052 352.390,209.874 354.500,215.500" stroke-width="10.940" stroke="rgb(33,33,33)" fill="none" stroke-linecap="round"></path><path d="M 354.500,215.500 C 355.390,217.874 354.621,218.157 355.500,220.500" stroke-width="11.633" stroke="rgb(33,33,33)" fill="none" stroke-linecap="round"></path><path d="M 355.500,220.500 C 356.121,222.157 356.717,221.934 357.500,223.500" stroke-width="12.403" stroke="rgb(33,33,33)" fill="none" stroke-linecap="round"></path><path d="M 357.500,223.500 C 357.717,223.934 357.500,224.750 357.500,224.500" stroke-width="13.347" stroke="rgb(33,33,33)" fill="none" stroke-linecap="round"></path><path d="M 357.500,224.500 C 357.500,223.750 358.121,222.743 357.500,221.500" stroke-width="14.296" stroke="rgb(33,33,33)" fill="none" stroke-linecap="round"></path><path d="M 357.500,221.500 C 356.621,219.743 355.768,220.190 354.500,218.500" stroke-width="14.641" stroke="rgb(33,33,33)" fill="none" stroke-linecap="round"></path><path d="M 354.500,218.500 C 351.268,214.190 351.986,213.601 348.500,209.500" stroke-width="14.194" stroke="rgb(33,33,33)" fill="none" stroke-linecap="round"></path><path d="M 348.500,209.500 C 343.486,203.601 343.357,203.601 337.500,198.500" stroke-width="13.373" stroke="rgb(33,33,33)" fill="none" stroke-linecap="round"></path><path d="M 337.500,198.500 C 327.857,190.101 327.865,189.986 317.500,182.500" stroke-width="11.695" stroke="rgb(33,33,33)" fill="none" stroke-linecap="round"></path><path d="M 317.500,182.500 C 309.865,176.986 309.512,177.481 301.500,172.500" stroke-width="11.282" stroke="rgb(33,33,33)" fill="none" stroke-linecap="round"></path><path d="M 301.500,172.500 C 291.012,165.981 291.064,165.894 280.500,159.500" stroke-width="10.512" stroke="rgb(33,33,33)" fill="none" stroke-linecap="round"></path><path d="M 280.500,159.500 C 272.064,154.394 272.000,154.500 263.500,149.500" stroke-width="10.330" stroke="rgb(33,33,33)" fill="none" stroke-linecap="round"></path><path d="M 263.500,149.500 C 255.000,144.500 254.979,144.535 246.500,139.500" stroke-width="10.124" stroke="rgb(33,33,33)" fill="none" stroke-linecap="round"></path><path d="M 246.500,139.500 C 238.979,135.035 238.971,135.048 231.500,130.500" stroke-width="10.152" stroke="rgb(33,33,33)" fill="none" stroke-linecap="round"></path><path d="M 231.500,130.500 C 227.471,128.048 227.330,128.235 223.500,125.500" stroke-width="10.621" stroke="rgb(33,33,33)" fill="none" stroke-linecap="round"></path><path d="M 223.500,125.500 C 220.330,123.235 220.610,122.832 217.500,120.500" stroke-width="11.143" stroke="rgb(33,33,33)" fill="none" stroke-linecap="round"></path><path d="M 217.500,120.500 C 216.610,119.832 216.536,119.845 215.500,119.500" stroke-width="12.064" stroke="rgb(33,33,33)" fill="none" stroke-linecap="round"></path><path d="M 215.500,119.500 C 215.036,119.345 214.750,119.750 214.500,119.500" stroke-width="13.019" stroke="rgb(33,33,33)" fill="none" stroke-linecap="round"></path><path d="M 214.500,119.500 C 214.250,119.250 214.293,118.914 214.500,118.500" stroke-width="13.992" stroke="rgb(33,33,33)" fill="none" stroke-linecap="round"></path><path d="M 214.500,118.500 C 214.793,117.914 214.876,117.812 215.500,117.500" stroke-width="14.780" stroke="rgb(33,33,33)" fill="none" stroke-linecap="round"></path><path d="M 215.500,117.500 C 217.876,116.312 218.131,116.764 220.500,115.500" stroke-width="14.934" stroke="rgb(33,33,33)" fill="none" stroke-linecap="round"></path><path d="M 220.500,115.500 C 225.631,112.764 225.338,112.193 230.500,109.500" stroke-width="14.241" stroke="rgb(33,33,33)" fill="none" stroke-linecap="round"></path><path d="M 230.500,109.500 C 236.838,106.193 236.983,106.462 243.500,103.500" stroke-width="13.530" stroke="rgb(33,33,33)" fill="none" stroke-linecap="round"></path><path d="M 243.500,103.500 C 253.483,98.962 253.342,98.611 263.500,94.500" stroke-width="12.233" stroke="rgb(33,33,33)" fill="none" stroke-linecap="round"></path><path d="M 263.500,94.500 C 274.342,90.111 274.443,90.336 285.500,86.500" stroke-width="11.349" stroke="rgb(33,33,33)" fill="none" stroke-linecap="round"></path><path d="M 285.500,86.500 C 298.943,81.836 298.766,81.071 312.500,77.500" stroke-width="10.319" stroke="rgb(33,33,33)" fill="none" stroke-linecap="round"></path><path d="M 312.500,77.500 C 323.766,74.571 323.947,75.112 335.500,73.500" stroke-width="9.979" stroke="rgb(33,33,33)" fill="none" stroke-linecap="round"></path><path d="M 335.500,73.500 C 345.447,72.112 345.472,71.946 355.500,71.500" stroke-width="9.831" stroke="rgb(33,33,33)" fill="none" stroke-linecap="round"></path><path d="M 355.500,71.500 C 367.972,70.946 368.005,71.255 380.500,71.500" stroke-width="9.526" stroke="rgb(33,33,33)" fill="none" stroke-linecap="round"></path><path d="M 380.500,71.500 C 393.505,71.755 393.772,70.591 406.500,72.500" stroke-width="9.177" stroke="rgb(33,33,33)" fill="none" stroke-linecap="round"></path><path d="M 406.500,72.500 C 413.772,73.591 413.639,74.661 420.500,77.500" stroke-width="9.505" stroke="rgb(33,33,33)" fill="none" stroke-linecap="round"></path><path d="M 420.500,77.500 C 428.139,80.661 428.651,80.022 435.500,84.500" stroke-width="9.647" stroke="rgb(33,33,33)" fill="none" stroke-linecap="round"></path><path d="M 435.500,84.500 C 441.651,88.522 441.396,89.128 446.500,94.500" stroke-width="9.858" stroke="rgb(33,33,33)" fill="none" stroke-linecap="round"></path><path d="M 446.500,94.500 C 450.896,99.128 451.831,98.894 454.500,104.500" stroke-width="10.155" stroke="rgb(33,33,33)" fill="none" stroke-linecap="round"></path><path d="M 454.500,104.500 C 456.831,109.394 455.972,109.957 456.500,115.500" stroke-width="10.510" stroke="rgb(33,33,33)" fill="none" stroke-linecap="round"></path><path d="M 456.500,115.500 C 456.972,120.457 458.076,120.997 456.500,125.500" stroke-width="10.931" stroke="rgb(33,33,33)" fill="none" stroke-linecap="round"></path><path d="M 456.500,125.500 C 454.576,130.997 453.623,131.103 449.500,135.500" stroke-width="11.092" stroke="rgb(33,33,33)" fill="none" stroke-linecap="round"></path><path d="M 449.500,135.500 C 446.123,139.103 445.862,139.191 441.500,141.500" stroke-width="11.430" stroke="rgb(33,33,33)" fill="none" stroke-linecap="round"></path><path d="M 441.500,141.500 C 437.362,143.691 437.064,143.232 432.500,144.500" stroke-width="11.793" stroke="rgb(33,33,33)" fill="none" stroke-linecap="round"></path><path d="M 432.500,144.500 C 428.064,145.732 428.062,146.066 423.500,146.500" stroke-width="12.038" stroke="rgb(33,33,33)" fill="none" stroke-linecap="round"></path><path d="M 423.500,146.500 C 417.562,147.066 417.500,146.500 411.500,146.500" stroke-width="12.004" stroke="rgb(33,33,33)" fill="none" stroke-linecap="round"></path><path d="M 411.500,146.500 C 400.500,146.500 400.500,146.500 389.500,146.500" stroke-width="11.099" stroke="rgb(33,33,33)" fill="none" stroke-linecap="round"></path><path d="M 389.500,146.500 C 377.000,146.500 377.000,146.500 364.500,146.500" stroke-width="10.365" stroke="rgb(33,33,33)" fill="none" stroke-linecap="round"></path><path d="M 364.500,146.500 C 357.000,146.500 357.000,146.500 349.500,146.500" stroke-width="10.441" stroke="rgb(33,33,33)" fill="none" stroke-linecap="round"></path><path d="M 349.500,146.500 C 345.000,146.500 345.000,146.500 340.500,146.500" stroke-width="10.937" stroke="rgb(33,33,33)" fill="none" stroke-linecap="round"></path><path d="M 340.500,146.500 C 338.500,146.500 337.141,146.821 336.500,146.500" stroke-width="11.717" stroke="rgb(33,33,33)" fill="none" stroke-linecap="round"></path><path d="M 336.500,146.500 C 336.141,146.321 337.408,145.682 338.500,145.500" stroke-width="12.728" stroke="rgb(33,33,33)" fill="none" stroke-linecap="round"></path><path d="M 338.500,145.500 C 343.408,144.682 343.557,145.372 348.500,144.500" stroke-width="12.781" stroke="rgb(33,33,33)" fill="none" stroke-linecap="round"></path><path d="M 348.500,144.500 C 360.557,142.372 360.481,141.904 372.500,139.500" stroke-width="11.532" stroke="rgb(33,33,33)" fill="none" stroke-linecap="round"></path><path d="M 372.500,139.500 C 387.981,136.404 387.878,135.453 403.500,133.500" stroke-width="10.355" stroke="rgb(33,33,33)" fill="none" stroke-linecap="round"></path><path d="M 403.500,133.500 C 415.878,131.953 415.996,132.791 428.500,132.500" stroke-width="9.836" stroke="rgb(33,33,33)" fill="none" stroke-linecap="round"></path><path d="M 428.500,132.500 C 437.496,132.291 437.500,132.500 446.500,132.500" stroke-width="9.892" stroke="rgb(33,33,33)" fill="none" stroke-linecap="round"></path><path d="M 446.500,132.500 C 456.500,132.500 456.532,131.961 466.500,132.500" stroke-width="9.769" stroke="rgb(33,33,33)" fill="none" stroke-linecap="round"></path><path d="M 466.500,132.500 C 475.032,132.961 475.018,133.369 483.500,134.500" stroke-width="9.885" stroke="rgb(33,33,33)" fill="none" stroke-linecap="round"></path><path d="M 483.500,134.500 C 490.018,135.369 490.028,135.344 496.500,136.500" stroke-width="10.158" stroke="rgb(33,33,33)" fill="none" stroke-linecap="round"></path><path d="M 496.500,136.500 C 504.028,137.844 504.071,137.731 511.500,139.500" stroke-width="10.306" stroke="rgb(33,33,33)" fill="none" stroke-linecap="round"></path><path d="M 511.500,139.500 C 514.571,140.231 514.545,140.392 517.500,141.500" stroke-width="10.968" stroke="rgb(33,33,33)" fill="none" stroke-linecap="round"></path><path d="M 517.500,141.500 C 518.545,141.892 518.879,141.672 519.500,142.500" stroke-width="11.908" stroke="rgb(33,33,33)" fill="none" stroke-linecap="round"></path><path d="M 519.500,142.500 C 520.379,143.672 520.243,143.960 520.500,145.500" stroke-width="12.656" stroke="rgb(33,33,33)" fill="none" stroke-linecap="round"></path><path d="M 520.500,145.500 C 520.743,146.960 520.500,147.000 520.500,148.500" stroke-width="13.381" stroke="rgb(33,33,33)" fill="none" stroke-linecap="round"></path><path d="M 520.500,148.500 C 520.500,151.000 521.217,151.169 520.500,153.500" stroke-width="13.746" stroke="rgb(33,33,33)" fill="none" stroke-linecap="round"></path><path d="M 520.500,153.500 C 519.217,157.669 519.049,157.859 516.500,161.500" stroke-width="13.648" stroke="rgb(33,33,33)" fill="none" stroke-linecap="round"></path><path d="M 516.500,161.500 C 512.049,167.859 512.201,168.238 506.500,173.500" stroke-width="12.976" stroke="rgb(33,33,33)" fill="none" stroke-linecap="round"></path><path d="M 506.500,173.500 C 499.201,180.238 498.966,180.238 490.500,185.500" stroke-width="12.027" stroke="rgb(33,33,33)" fill="none" stroke-linecap="round"></path><path d="M 490.500,185.500 C 480.466,191.738 480.477,192.151 469.500,196.500" stroke-width="11.090" stroke="rgb(33,33,33)" fill="none" stroke-linecap="round"></path><path d="M 469.500,196.500 C 453.977,202.651 453.677,202.154 437.500,206.500" stroke-width="9.960" stroke="rgb(33,33,33)" fill="none" stroke-linecap="round"></path><path d="M 437.500,206.500 C 420.177,211.154 420.036,210.664 402.500,214.500" stroke-width="9.004" stroke="rgb(33,33,33)" fill="none" stroke-linecap="round"></path><path d="M 402.500,214.500 C 388.036,217.664 388.061,217.831 373.500,220.500" stroke-width="8.698" stroke="rgb(33,33,33)" fill="none" stroke-linecap="round"></path><path d="M 373.500,220.500 C 358.061,223.331 358.094,223.814 342.500,225.500" stroke-width="8.327" stroke="rgb(33,33,33)" fill="none" stroke-linecap="round"></path><path d="M 342.500,225.500 C 321.094,227.814 320.988,226.847 299.500,228.500" stroke-width="7.634" stroke="rgb(33,33,33)" fill="none" stroke-linecap="round"></path><path d="M 299.500,228.500 C 281.988,229.847 281.975,229.753 264.500,231.500" stroke-width="7.465" stroke="rgb(33,33,33)" fill="none" stroke-linecap="round"></path><path d="M 264.500,231.500 C 251.975,232.753 251.959,232.720 239.500,234.500" stroke-width="7.642" stroke="rgb(33,33,33)" fill="none" stroke-linecap="round"></path><path d="M 239.500,234.500 C 230.959,235.720 231.000,236.000 222.500,237.500" stroke-width="7.986" stroke="rgb(33,33,33)" fill="none" stroke-linecap="round"></path><path d="M 222.500,237.500 C 214.000,239.000 214.021,239.137 205.500,240.500" stroke-width="8.367" stroke="rgb(33,33,33)" fill="none" stroke-linecap="round"></path><path d="M 205.500,240.500 C 201.521,241.137 201.300,240.464 197.500,241.500" stroke-width="9.076" stroke="rgb(33,33,33)" fill="none" stroke-linecap="round"></path></svg>