<svg xmlns="http://www.w3.org/2000/svg" xmlns:xlink="http://www.w3.org/1999/xlink" viewBox="0 0 800 500"><path d="M 302.500,91.000 C 302.000,91.000 301.750,90.750 301.500,91.000" stroke-width="20.190" stroke="rgb(33,33,33)" fill="none" stroke-linecap="round"></path><path d="M 301.500,91.000 C 301.250,91.250 301.500,91.500 301.500,92.000" stroke-width="19.967" stroke="rgb(33,33,33)" fill="none" stroke-linecap="round"></path><path d="M 301.500,92.000 C 301.500,93.500 301.500,93.500 301.500,95.000" stroke-width="19.384" stroke="rgb(33,33,33)" fill="none" stroke-linecap="round"></path><path d="M 301.500,95.000 C 301.500,96.500 301.257,96.540 301.500,98.000" stroke-width="18.942" stroke="rgb(33,33,33)" fill="none" stroke-linecap="round"></path><path d="M 301.500,98.000 C 301.757,99.540 302.327,99.447 302.500,101.000" stroke-width="18.536" stroke="rgb(33,33,33)" fill="none" stroke-linecap="round"></path><path d="M 302.500,101.000 C 302.827,103.947 302.500,104.000 302.500,107.000" stroke-width="17.753" stroke="rgb(33,33,33)" fill="none" stroke-linecap="round"></path><path d="M 302.500,107.000 C 302.500,110.500 302.500,110.500 302.500,114.000" stroke-width="16.948" stroke="rgb(33,33,33)" fill="none" stroke-linecap="round"></path><path d="M 302.500,114.000 C 302.500,122.000 302.500,122.000 302.500,130.000" stroke-width="15.066" stroke="rgb(33,33,33)" fill="none" stroke-linecap="round"></path><path d="M 302.500,130.000 C 302.500,140.000 302.500,140.000 302.500,150.000" stroke-width="13.405" stroke="rgb(33,33,33)" fill="none" stroke-linecap="round"></path><path d="M 302.500,150.000 C 302.500,159.000 302.263,159.006 302.500,168.000" stroke-width="12.590" stroke="rgb(33,33,33)" fill="none" stroke-linecap="round"></path><path d="M 302.500,168.000 C 302.763,178.006 302.529,178.045 303.500,188.000" stroke-width="11.757" stroke="rgb(33,33,33)" fill="none" stroke-linecap="round"></path><path d="M 303.500,188.000 C 304.529,198.545 305.419,198.459 306.500,209.000" stroke-width="11.081" stroke="rgb(33,33,33)" fill="none" stroke-linecap="round"></path><path d="M 306.500,209.000 C 307.419,217.959 306.880,218.009 307.500,227.000" stroke-width="10.874" stroke="rgb(33,33,33)" fill="none" stroke-linecap="round"></path><path d="M 307.500,227.000 C 307.880,232.509 308.022,232.498 308.500,238.000" stroke-width="11.128" stroke="rgb(33,33,33)" fill="none" stroke-linecap="round"></path><path d="M 308.500,238.000 C 309.022,243.998 309.200,243.992 309.500,250.000" stroke-width="11.315" stroke="rgb(33,33,33)" fill="none" stroke-linecap="round"></path><path d="M 309.500,250.000 C 309.700,253.992 309.500,254.000 309.500,258.000" stroke-width="11.694" stroke="rgb(33,33,33)" fill="none" stroke-linecap="round"></path><path d="M 309.500,258.000 C 309.500,259.500 309.500,260.700 309.500,261.000" stroke-width="12.510" stroke="rgb(33,33,33)" fill="none" stroke-linecap="round"></path><path d="M 309.500,261.000 C 309.500,261.200 309.191,259.927 309.500,259.000" stroke-width="13.495" stroke="rgb(33,33,33)" fill="none" stroke-linecap="round"></path><path d="M 309.500,259.000 C 310.191,256.927 310.683,257.043 311.500,255.000" stroke-width="13.964" stroke="rgb(33,33,33)" fill="none" stroke-linecap="round"></path><path d="M 311.500,255.000 C 311.683,254.543 311.500,254.500 311.500,254.000" stroke-width="14.768" stroke="rgb(33,33,33)" fill="none" stroke-linecap="round"></path><path d="M 311.500,254.000 C 311.500,252.500 311.500,252.500 311.500,251.000" stroke-width="15.277" stroke="rgb(33,33,33)" fill="none" stroke-linecap="round"></path><path d="M 311.500,251.000 C 311.500,246.500 311.305,246.493 311.500,242.000" stroke-width="14.821" stroke="rgb(33,33,33)" fill="none" stroke-linecap="round"></path><path d="M 311.500,242.000 C 311.805,234.993 312.033,235.002 312.500,228.000" stroke-width="13.887" stroke="rgb(33,33,33)" fill="none" stroke-linecap="round"></path><path d="M 312.500,228.000 C 313.033,220.002 313.309,220.010 313.500,212.000" stroke-width="13.110" stroke="rgb(33,33,33)" fill="none" stroke-linecap="round"></path><path d="M 313.500,212.000 C 313.809,199.010 312.766,198.959 313.500,186.000" stroke-width="11.627" stroke="rgb(33,33,33)" fill="none" stroke-linecap="round"></path><path d="M 313.500,186.000 C 314.266,172.459 315.000,172.500 316.500,159.000" stroke-width="10.586" stroke="rgb(33,33,33)" fill="none" stroke-linecap="round"></path><path d="M 316.500,159.000 C 317.500,150.000 317.832,150.018 318.500,141.000" stroke-width="10.420" stroke="rgb(33,33,33)" fill="none" stroke-linecap="round"></path><path d="M 318.500,141.000 C 318.832,136.518 318.236,136.484 318.500,132.000" stroke-width="10.884" stroke="rgb(33,33,33)" fill="none" stroke-linecap="round"></path><path d="M 318.500,132.000 C 318.736,127.984 319.166,128.010 319.500,124.000" stroke-width="11.389" stroke="rgb(33,33,33)" fill="none" stroke-linecap="round"></path><path d="M 319.500,124.000 C 319.666,122.010 319.221,121.955 319.500,120.000" stroke-width="12.129" stroke="rgb(33,33,33)" fill="none" stroke-linecap="round"></path><path d="M 319.500,120.000 C 319.721,118.455 320.158,118.539 320.500,117.000" stroke-width="12.875" stroke="rgb(33,33,33)" fill="none" stroke-linecap="round"></path><path d="M 320.500,117.000 C 321.158,114.039 320.804,113.957 321.500,111.000" stroke-width="13.271" stroke="rgb(33,33,33)" fill="none" stroke-linecap="round"></path><path d="M 321.500,111.000 C 322.804,105.457 323.737,105.599 324.500,100.000" stroke-width="13.024" stroke="rgb(33,33,33)" fill="none" stroke-linecap="round"></path><path d="M 324.500,100.000 C 325.237,94.599 324.500,94.500 324.500,89.000" stroke-width="12.871" stroke="rgb(33,33,33)" fill="none" stroke-linecap="round"></path><path d="M 324.500,89.000 C 324.500,83.500 324.500,83.500 324.500,78.000" stroke-width="12.752" stroke="rgb(33,33,33)" fill="none" stroke-linecap="round"></path><path d="M 324.500,78.000 C 324.500,73.000 324.500,73.000 324.500,68.000" stroke-width="12.751" stroke="rgb(33,33,33)" fill="none" stroke-linecap="round"></path><path d="M 324.500,68.000 C 324.500,65.000 324.500,65.000 324.500,62.000" stroke-width="13.174" stroke="rgb(33,33,33)" fill="none" stroke-linecap="round"></path><path d="M 324.500,62.000 C 324.500,61.000 324.167,60.667 324.500,60.000" stroke-width="13.935" stroke="rgb(33,33,33)" fill="none" stroke-linecap="round"></path><path d="M 324.500,60.000 C 324.667,59.667 325.333,60.333 325.500,60.000" stroke-width="14.734" stroke="rgb(33,33,33)" fill="none" stroke-linecap="round"></path><path d="M 325.500,60.000 C 325.833,59.333 325.500,58.333 325.500,58.000" stroke-width="15.335" stroke="rgb(33,33,33)" fill="none" stroke-linecap="round"></path><path d="M 325.500,58.000 C 325.500,57.833 325.500,58.500 325.500,59.000" stroke-width="16.091" stroke="rgb(33,33,33)" fill="none" stroke-linecap="round"></path><path d="M 325.500,59.000 C 325.500,59.500 325.500,59.500 325.500,60.000" stroke-width="16.660" stroke="rgb(33,33,33)" fill="none" stroke-linecap="round"></path><path d="M 325.500,60.000 C 325.500,61.500 325.500,61.500 325.500,63.000" stroke-width="16.768" stroke="rgb(33,33,33)" fill="none" stroke-linecap="round"></path><path d="M 325.500,63.000 C 325.500,66.500 325.933,66.534 325.500,70.000" stroke-width="16.220" stroke="rgb(33,33,33)" fill="none" stroke-linecap="round"></path><path d="M 325.500,70.000 C 323.933,82.534 325.922,83.258 321.500,95.000" stroke-width="13.530" stroke="rgb(33,33,33)" fill="none" stroke-linecap="round"></path><path d="M 321.500,95.000 C 311.422,121.758 309.072,121.035 296.500,147.000" stroke-width="9.754" stroke="rgb(33,33,33)" fill="none" stroke-linecap="round"></path><path d="M 296.500,147.000 C 286.072,168.535 287.609,169.507 275.500,190.000" stroke-width="8.464" stroke="rgb(33,33,33)" fill="none" stroke-linecap="round"></path><path d="M 275.500,190.000 C 268.109,202.507 266.892,201.900 257.500,213.000" stroke-width="8.168" stroke="rgb(33,33,33)" fill="none" stroke-linecap="round"></path><path d="M 257.500,213.000 C 255.892,214.900 255.583,214.750 253.500,216.000" stroke-width="9.045" stroke="rgb(33,33,33)" fill="none" stroke-linecap="round"></path><path d="M 253.500,216.000 C 253.083,216.250 252.826,216.326 252.500,216.000" stroke-width="10.110" stroke="rgb(33,33,33)" fill="none" stroke-linecap="round"></path><path d="M 252.500,216.000 C 251.326,214.826 250.919,214.676 250.500,213.000" stroke-width="10.977" stroke="rgb(33,33,33)" fill="none" stroke-linecap="round"></path><path d="M 250.500,213.000 C 249.919,210.676 250.500,210.500 250.500,208.000" stroke-width="11.696" stroke="rgb(33,33,33)" fill="none" stroke-linecap="round"></path><path d="M 250.500,208.000 C 250.500,204.000 250.500,204.000 250.500,200.000" stroke-width="12.059" stroke="rgb(33,33,33)" fill="none" stroke-linecap="round"></path><path d="M 250.500,200.000 C 250.500,199.500 250.500,199.500 250.500,199.000" stroke-width="13.022" stroke="rgb(33,33,33)" fill="none" stroke-linecap="round"></path><path d="M 250.500,199.000 C 250.500,198.500 250.239,198.392 250.500,198.000" stroke-width="14.003" stroke="rgb(33,33,33)" fill="none" stroke-linecap="round"></path><path d="M 250.500,198.000 C 251.239,196.892 251.500,197.000 252.500,196.000" stroke-width="14.566" stroke="rgb(33,33,33)" fill="none" stroke-linecap="round"></path><path d="M 252.500,196.000 C 252.500,196.000 252.500,196.000 252.500,196.000" stroke-width="15.433" stroke="rgb(33,33,33)" fill="none" stroke-linecap="round"></path><path d="M 252.500,196.000 C 253.000,196.000 253.000,196.000 253.500,196.000" stroke-width="16.087" stroke="rgb(33,33,33)" fill="none" stroke-linecap="round"></path><path d="M 253.500,196.000 C 255.000,196.000 255.000,196.000 256.500,196.000" stroke-width="16.300" stroke="rgb(33,33,33)" fill="none" stroke-linecap="round"></path><path d="M 256.500,196.000 C 260.000,196.000 260.000,196.000 263.500,196.000" stroke-width="15.924" stroke="rgb(33,33,33)" fill="none" stroke-linecap="round"></path><path d="M 263.500,196.000 C 269.500,196.000 269.500,196.000 275.500,196.000" stroke-width="14.906" stroke="rgb(33,33,33)" fill="none" stroke-linecap="round"></path><path d="M 275.500,196.000 C 288.000,196.000 288.014,195.554 300.500,196.000" stroke-width="12.809" stroke="rgb(33,33,33)" fill="none" stroke-linecap="round"></path><path d="M 300.500,196.000 C 316.014,196.554 315.993,197.122 331.500,198.000" stroke-width="11.188" stroke="rgb(33,33,33)" fill="none" stroke-linecap="round"></path><path d="M 331.500,198.000 C 342.493,198.622 342.509,198.353 353.500,199.000" stroke-width="10.529" stroke="rgb(33,33,33)" fill="none" stroke-linecap="round"></path><path d="M 353.500,199.000 C 359.509,199.353 359.560,199.208 365.500,200.000" stroke-width="10.770" stroke="rgb(33,33,33)" fill="none" stroke-linecap="round"></path><path d="M 365.500,200.000 C 367.060,200.208 367.464,199.964 368.500,201.000" stroke-width="11.629" stroke="rgb(33,33,33)" fill="none" stroke-linecap="round"></path><path d="M 368.500,201.000 C 369.964,202.464 369.672,202.929 370.500,205.000" stroke-width="12.327" stroke="rgb(33,33,33)" fill="none" stroke-linecap="round"></path><path d="M 370.500,205.000 C 371.672,207.929 371.841,207.923 372.500,211.000" stroke-width="12.747" stroke="rgb(33,33,33)" fill="none" stroke-linecap="round"></path><path d="M 372.500,211.000 C 373.341,214.923 372.118,215.314 373.500,219.000" stroke-width="13.016" stroke="rgb(33,33,33)" fill="none" stroke-linecap="round"></path><path d="M 373.500,219.000 C 375.118,223.314 375.938,223.040 378.500,227.000" stroke-width="13.017" stroke="rgb(33,33,33)" fill="none" stroke-linecap="round"></path><path d="M 378.500,227.000 C 381.438,231.540 381.306,231.645 384.500,236.000" stroke-width="12.884" stroke="rgb(33,33,33)" fill="none" stroke-linecap="round"></path><path d="M 384.500,236.000 C 386.806,239.145 387.365,238.797 389.500,242.000" stroke-width="13.071" stroke="rgb(33,33,33)" fill="none" stroke-linecap="round"></path><path d="M 389.500,242.000 C 390.365,243.297 389.581,244.081 390.500,245.000" stroke-width="13.692" stroke="rgb(33,33,33)" fill="none" stroke-linecap="round"></path><path d="M 390.500,245.000 C 391.081,245.581 391.500,245.000 392.500,245.000" stroke-width="14.395" stroke="rgb(33,33,33)" fill="none" stroke-linecap="round"></path><path d="M 392.500,245.000 C 392.500,245.000 392.500,245.000 392.500,245.000" stroke-width="15.279" stroke="rgb(33,33,33)" fill="none" stroke-linecap="round"></path><path d="M 392.500,245.000 C 393.000,244.000 393.286,244.068 393.500,243.000" stroke-width="16.017" stroke="rgb(33,33,33)" fill="none" stroke-linecap="round"></path><path d="M 393.500,243.000 C 393.786,241.568 393.500,241.500 393.500,240.000" stroke-width="16.242" stroke="rgb(33,33,33)" fill="none" stroke-linecap="round"></path><path d="M 393.500,240.000 C 393.500,235.500 393.500,235.500 393.500,231.000" stroke-width="15.608" stroke="rgb(33,33,33)" fill="none" stroke-linecap="round"></path><path d="M 393.500,231.000 C 393.500,225.500 393.975,225.461 393.500,220.000" stroke-width="14.888" stroke="rgb(33,33,33)" fill="none" stroke-linecap="round"></path><path d="M 393.500,220.000 C 392.975,213.961 391.878,214.051 391.500,208.000" stroke-width="14.061" stroke="rgb(33,33,33)" fill="none" stroke-linecap="round"></path><path d="M 391.500,208.000 C 390.878,198.051 391.700,197.997 391.500,188.000" stroke-width="12.959" stroke="rgb(33,33,33)" fill="none" stroke-linecap="round"></path><path d="M 391.500,188.000 C 391.200,172.997 391.116,172.995 390.500,158.000" stroke-width="11.230" stroke="rgb(33,33,33)" fill="none" stroke-linecap="round"></path><path d="M 390.500,158.000 C 389.616,136.495 389.081,136.510 388.500,115.000" stroke-width="9.423" stroke="rgb(33,33,33)" fill="none" stroke-linecap="round"></path><path d="M 388.500,115.000 C 388.081,99.510 388.500,99.500 388.500,84.000" stroke-width="8.866" stroke="rgb(33,33,33)" fill="none" stroke-linecap="round"></path><path d="M 388.500,84.000 C 388.500,66.500 388.500,66.500 388.500,49.000" stroke-width="8.303" stroke="rgb(33,33,33)" fill="none" stroke-linecap="round"></path><path d="M 388.500,49.000 C 388.500,36.000 388.500,36.000 388.500,23.000" stroke-width="8.242" stroke="rgb(33,33,33)" fill="none" stroke-linecap="round"></path><path d="M 388.500,23.000 C 388.500,17.500 388.822,17.473 388.500,12.000" stroke-width="8.823" stroke="rgb(33,33,33)" fill="none" stroke-linecap="round"></path><path d="M 388.500,12.000 C 388.322,8.973 387.929,8.147 387.500,6.000" stroke-width="9.608" stroke="rgb(33,33,33)" fill="none" stroke-linecap="round"></path><path d="M 387.500,6.000 C 387.429,5.647 387.500,6.500 387.500,7.000" stroke-width="10.728" stroke="rgb(33,33,33)" fill="none" stroke-linecap="round"></path><path d="M 387.500,7.000 C 387.500,8.000 387.500,8.000 387.500,9.000" stroke-width="11.681" stroke="rgb(33,33,33)" fill="none" stroke-linecap="round"></path><path d="M 387.500,9.000 C 387.500,12.000 387.500,12.000 387.500,15.000" stroke-width="12.246" stroke="rgb(33,33,33)" fill="none" stroke-linecap="round"></path><path d="M 387.500,15.000 C 387.500,17.000 387.500,17.000 387.500,19.000" stroke-width="12.899" stroke="rgb(33,33,33)" fill="none" stroke-linecap="round"></path><path d="M 387.500,19.000 C 387.500,24.500 387.500,24.500 387.500,30.000" stroke-width="12.773" stroke="rgb(33,33,33)" fill="none" stroke-linecap="round"></path><path d="M 387.500,30.000 C 387.500,35.500 387.689,35.505 387.500,41.000" stroke-width="12.675" stroke="rgb(33,33,33)" fill="none" stroke-linecap="round"></path><path d="M 387.500,41.000 C 387.189,50.005 387.375,50.035 386.500,59.000" stroke-width="11.981" stroke="rgb(33,33,33)" fill="none" stroke-linecap="round"></path><path d="M 386.500,59.000 C 385.375,70.535 384.366,70.459 383.500,82.000" stroke-width="11.188" stroke="rgb(33,33,33)" fill="none" stroke-linecap="round"></path><path d="M 383.500,82.000 C 382.866,90.459 384.223,90.560 383.500,99.000" stroke-width="10.958" stroke="rgb(33,33,33)" fill="none" stroke-linecap="round"></path><path d="M 383.500,99.000 C 382.723,108.060 381.597,107.953 380.500,117.000" stroke-width="10.697" stroke="rgb(33,33,33)" fill="none" stroke-linecap="round"></path><path d="M 380.500,117.000 C 379.597,124.453 379.778,124.493 379.500,132.000" stroke-width="10.707" stroke="rgb(33,33,33)" fill="none" stroke-linecap="round"></path><path d="M 379.500,132.000 C 379.278,137.993 379.500,138.000 379.500,144.000" stroke-width="10.968" stroke="rgb(33,33,33)" fill="none" stroke-linecap="round"></path><path d="M 379.500,144.000 C 379.500,149.500 379.500,149.500 379.500,155.000" stroke-width="11.210" stroke="rgb(33,33,33)" fill="none" stroke-linecap="round"></path><path d="M 379.500,155.000 C 379.500,161.000 379.815,161.022 379.500,167.000" stroke-width="11.386" stroke="rgb(33,33,33)" fill="none" stroke-linecap="round"></path><path d="M 379.500,167.000 C 379.315,170.522 378.938,170.496 378.500,174.000" stroke-width="11.870" stroke="rgb(33,33,33)" fill="none" stroke-linecap="round"></path><path d="M 378.500,174.000 C 378.438,174.496 378.500,174.500 378.500,175.000" stroke-width="12.844" stroke="rgb(33,33,33)" fill="none" stroke-linecap="round"></path><path d="M 378.500,175.000 C 378.500,175.500 378.720,175.561 378.500,176.000" stroke-width="13.847" stroke="rgb(33,33,33)" fill="none" stroke-linecap="round"></path><path d="M 378.500,176.000 C 377.220,178.561 376.969,178.482 375.500,181.000" stroke-width="14.077" stroke="rgb(33,33,33)" fill="none" stroke-linecap="round"></path><path d="M 375.500,181.000 C 373.469,184.482 373.131,184.329 371.500,188.000" stroke-width="14.007" stroke="rgb(33,33,33)" fill="none" stroke-linecap="round"></path><path d="M 371.500,188.000 C 369.131,193.329 369.869,193.671 367.500,199.000" stroke-width="13.622" stroke="rgb(33,33,33)" fill="none" stroke-linecap="round"></path><path d="M 367.500,199.000 C 365.869,202.671 364.837,204.997 363.500,206.000" stroke-width="13.644" stroke="rgb(33,33,33)" fill="none" stroke-linecap="round"></path><path d="M 363.500,206.000 C 362.837,206.497 363.500,204.000 363.500,202.000" stroke-width="14.445" stroke="rgb(33,33,33)" fill="none" stroke-linecap="round"></path><path d="M 363.500,202.000 C 363.500,200.500 363.500,200.500 363.500,199.000" stroke-width="14.947" stroke="rgb(33,33,33)" fill="none" stroke-linecap="round"></path><path d="M 363.500,199.000 C 363.500,198.000 363.500,198.000 363.500,197.000" stroke-width="15.472" stroke="rgb(33,33,33)" fill="none" stroke-linecap="round"></path><path d="M 363.500,197.000 C 363.500,197.000 363.500,197.000 363.500,197.000" stroke-width="16.238" stroke="rgb(33,33,33)" fill="none" stroke-linecap="round"></path><path d="M 363.500,197.000 C 363.000,195.500 363.121,195.450 362.500,194.000" stroke-width="16.426" stroke="rgb(33,33,33)" fill="none" stroke-linecap="round"></path><path d="M 362.500,194.000 C 361.621,191.950 361.280,192.081 360.500,190.000" stroke-width="16.346" stroke="rgb(33,33,33)" fill="none" stroke-linecap="round"></path><path d="M 360.500,190.000 C 359.780,188.081 359.964,188.009 359.500,186.000" stroke-width="16.372" stroke="rgb(33,33,33)" fill="none" stroke-linecap="round"></path><path d="M 359.500,186.000 C 358.464,181.509 359.015,181.328 357.500,177.000" stroke-width="15.601" stroke="rgb(33,33,33)" fill="none" stroke-linecap="round"></path><path d="M 357.500,177.000 C 355.515,171.328 355.441,171.229 352.500,166.000" stroke-width="14.668" stroke="rgb(33,33,33)" fill="none" stroke-linecap="round"></path><path d="M 352.500,166.000 C 350.941,163.229 350.174,163.678 348.500,161.000" stroke-width="14.676" stroke="rgb(33,33,33)" fill="none" stroke-linecap="round"></path><path d="M 348.500,161.000 C 347.674,159.678 348.201,159.402 347.500,158.000" stroke-width="15.124" stroke="rgb(33,33,33)" fill="none" stroke-linecap="round"></path><path d="M 347.500,158.000 C 346.701,156.402 346.500,156.500 345.500,155.000" stroke-width="15.416" stroke="rgb(33,33,33)" fill="none" stroke-linecap="round"></path><path d="M 345.500,155.000 C 344.500,153.500 343.974,153.659 343.500,152.000" stroke-width="15.658" stroke="rgb(33,33,33)" fill="none" stroke-linecap="round"></path><path d="M 343.500,152.000 C 342.974,150.159 343.500,150.000 343.500,148.000" stroke-width="15.832" stroke="rgb(33,33,33)" fill="none" stroke-linecap="round"></path><path d="M 343.500,148.000 C 343.500,146.000 343.500,146.000 343.500,144.000" stroke-width="15.941" stroke="rgb(33,33,33)" fill="none" stroke-linecap="round"></path><path d="M 343.500,144.000 C 343.500,143.000 343.500,143.000 343.500,142.000" stroke-width="16.351" stroke="rgb(33,33,33)" fill="none" stroke-linecap="round"></path><path d="M 343.500,142.000 C 343.500,141.500 343.250,141.250 343.500,141.000" stroke-width="16.864" stroke="rgb(33,33,33)" fill="none" stroke-linecap="round"></path><path d="M 343.500,141.000 C 343.750,140.750 344.000,141.000 344.500,141.000" stroke-width="17.408" stroke="rgb(33,33,33)" fill="none" stroke-linecap="round"></path><path d="M 344.500,141.000 C 345.500,141.000 345.500,141.000 346.500,141.000" stroke-width="17.545" stroke="rgb(33,33,33)" fill="none" stroke-linecap="round"></path><path d="M 346.500,141.000 C 348.000,141.000 348.000,141.000 349.500,141.000" stroke-width="17.507" stroke="rgb(33,33,33)" fill="none" stroke-linecap="round"></path><path d="M 349.500,141.000 C 350.500,141.000 350.500,141.000 351.500,141.000" stroke-width="17.809" stroke="rgb(33,33,33)" fill="none" stroke-linecap="round"></path><path d="M 351.500,141.000 C 353.000,141.000 353.000,141.000 354.500,141.000" stroke-width="17.686" stroke="rgb(33,33,33)" fill="none" stroke-linecap="round"></path><path d="M 354.500,141.000 C 356.000,141.000 356.000,141.000 357.500,141.000" stroke-width="17.589" stroke="rgb(33,33,33)" fill="none" stroke-linecap="round"></path><path d="M 357.500,141.000 C 360.000,141.000 360.000,141.000 362.500,141.000" stroke-width="17.163" stroke="rgb(33,33,33)" fill="none" stroke-linecap="round"></path><path d="M 362.500,141.000 C 367.000,141.000 367.000,141.000 371.500,141.000" stroke-width="16.203" stroke="rgb(33,33,33)" fill="none" stroke-linecap="round"></path><path d="M 371.500,141.000 C 378.500,141.000 378.571,141.717 385.500,141.000" stroke-width="14.941" stroke="rgb(33,33,33)" fill="none" stroke-linecap="round"></path><path d="M 385.500,141.000 C 393.071,140.217 392.962,139.287 400.500,138.000" stroke-width="13.830" stroke="rgb(33,33,33)" fill="none" stroke-linecap="round"></path><path d="M 400.500,138.000 C 413.462,135.787 413.508,136.051 426.500,134.000" stroke-width="12.047" stroke="rgb(33,33,33)" fill="none" stroke-linecap="round"></path><path d="M 426.500,134.000 C 432.508,133.051 432.488,132.859 438.500,132.000" stroke-width="12.054" stroke="rgb(33,33,33)" fill="none" stroke-linecap="round"></path><path d="M 438.500,132.000 C 439.488,131.859 439.833,132.333 440.500,132.000" stroke-width="12.919" stroke="rgb(33,33,33)" fill="none" stroke-linecap="round"></path><path d="M 440.500,132.000 C 440.833,131.833 440.500,131.500 440.500,131.000" stroke-width="13.822" stroke="rgb(33,33,33)" fill="none" stroke-linecap="round"></path><path d="M 440.500,131.000 C 440.500,130.500 440.500,130.500 440.500,130.000" stroke-width="14.685" stroke="rgb(33,33,33)" fill="none" stroke-linecap="round"></path><path d="M 440.500,130.000 C 440.500,128.500 440.099,128.405 440.500,127.000" stroke-width="15.129" stroke="rgb(33,33,33)" fill="none" stroke-linecap="round"></path><path d="M 440.500,127.000 C 441.099,124.905 442.073,125.135 442.500,123.000" stroke-width="15.302" stroke="rgb(33,33,33)" fill="none" stroke-linecap="round"></path><path d="M 442.500,123.000 C 443.073,120.135 442.500,120.000 442.500,117.000" stroke-width="15.279" stroke="rgb(33,33,33)" fill="none" stroke-linecap="round"></path><path d="M 442.500,117.000 C 442.500,115.000 442.500,115.000 442.500,113.000" stroke-width="15.489" stroke="rgb(33,33,33)" fill="none" stroke-linecap="round"></path><path d="M 442.500,113.000 C 442.500,110.500 442.500,110.500 442.500,108.000" stroke-width="15.560" stroke="rgb(33,33,33)" fill="none" stroke-linecap="round"></path><path d="M 442.500,108.000 C 442.500,107.000 442.500,107.000 442.500,106.000" stroke-width="16.012" stroke="rgb(33,33,33)" fill="none" stroke-linecap="round"></path><path d="M 442.500,106.000 C 442.500,105.000 442.500,105.000 442.500,104.000" stroke-width="16.393" stroke="rgb(33,33,33)" fill="none" stroke-linecap="round"></path><path d="M 442.500,104.000 C 442.500,103.500 442.500,103.500 442.500,103.000" stroke-width="16.875" stroke="rgb(33,33,33)" fill="none" stroke-linecap="round"></path><path d="M 442.500,103.000 C 442.500,102.000 442.500,102.000 442.500,101.000" stroke-width="17.129" stroke="rgb(33,33,33)" fill="none" stroke-linecap="round"></path><path d="M 442.500,101.000 C 442.500,101.000 442.500,101.000 442.500,101.000" stroke-width="17.674" stroke="rgb(33,33,33)" fill="none" stroke-linecap="round"></path><path d="M 442.500,101.000 C 442.500,102.000 442.500,102.000 442.500,103.000" stroke-width="18.047" stroke="rgb(33,33,33)" fill="none" stroke-linecap="round"></path><path d="M 442.500,103.000 C 442.500,106.000 442.500,106.000 442.500,109.000" stroke-width="17.333" stroke="rgb(33,33,33)" fill="none" stroke-linecap="round"></path><path d="M 442.500,109.000 C 442.500,112.000 442.173,112.053 442.500,115.000" stroke-width="16.857" stroke="rgb(33,33,33)" fill="none" stroke-linecap="round"></path><path d="M 442.500,115.000 C 442.673,116.553 442.795,116.589 443.500,118.000" stroke-width="16.900" stroke="rgb(33,33,33)" fill="none" stroke-linecap="round"></path><path d="M 443.500,118.000 C 446.295,123.589 446.228,123.662 449.500,129.000" stroke-width="15.603" stroke="rgb(33,33,33)" fill="none" stroke-linecap="round"></path><path d="M 449.500,129.000 C 455.728,139.162 457.594,138.254 462.500,149.000" stroke-width="13.332" stroke="rgb(33,33,33)" fill="none" stroke-linecap="round"></path><path d="M 462.500,149.000 C 468.094,161.254 467.260,161.810 470.500,175.000" stroke-width="11.671" stroke="rgb(33,33,33)" fill="none" stroke-linecap="round"></path><path d="M 470.500,175.000 C 474.260,190.310 473.704,190.464 476.500,206.000" stroke-width="10.444" stroke="rgb(33,33,33)" fill="none" stroke-linecap="round"></path><path d="M 476.500,206.000 C 478.204,215.464 478.141,215.489 479.500,225.000" stroke-width="10.240" stroke="rgb(33,33,33)" fill="none" stroke-linecap="round"></path><path d="M 479.500,225.000 C 479.641,225.989 479.167,226.333 479.500,227.000" stroke-width="11.224" stroke="rgb(33,33,33)" fill="none" stroke-linecap="round"></path><path d="M 479.500,227.000 C 479.667,227.333 480.333,227.333 480.500,227.000" stroke-width="12.263" stroke="rgb(33,33,33)" fill="none" stroke-linecap="round"></path><path d="M 480.500,227.000 C 480.833,226.333 480.641,225.986 480.500,225.000" stroke-width="13.110" stroke="rgb(33,33,33)" fill="none" stroke-linecap="round"></path><path d="M 480.500,225.000 C 480.141,222.486 480.746,222.137 479.500,220.000" stroke-width="13.539" stroke="rgb(33,33,33)" fill="none" stroke-linecap="round"></path><path d="M 479.500,220.000 C 477.246,216.137 476.582,216.424 473.500,213.000" stroke-width="13.455" stroke="rgb(33,33,33)" fill="none" stroke-linecap="round"></path><path d="M 473.500,213.000 C 472.082,211.424 472.107,211.377 470.500,210.000" stroke-width="13.928" stroke="rgb(33,33,33)" fill="none" stroke-linecap="round"></path><path d="M 470.500,210.000 C 468.607,208.377 468.583,208.250 466.500,207.000" stroke-width="14.274" stroke="rgb(33,33,33)" fill="none" stroke-linecap="round"></path><path d="M 466.500,207.000 C 466.083,206.750 465.667,207.333 465.500,207.000" stroke-width="15.037" stroke="rgb(33,33,33)" fill="none" stroke-linecap="round"></path><path d="M 465.500,207.000 C 465.167,206.333 465.500,206.000 465.500,205.000" stroke-width="15.566" stroke="rgb(33,33,33)" fill="none" stroke-linecap="round"></path><path d="M 465.500,205.000 C 465.500,204.500 465.500,204.500 465.500,204.000" stroke-width="16.168" stroke="rgb(33,33,33)" fill="none" stroke-linecap="round"></path><path d="M 465.500,204.000 C 465.500,203.500 465.720,203.439 465.500,203.000" stroke-width="16.684" stroke="rgb(33,33,33)" fill="none" stroke-linecap="round"></path><path d="M 465.500,203.000 C 464.220,200.439 464.115,200.423 462.500,198.000" stroke-width="16.336" stroke="rgb(33,33,33)" fill="none" stroke-linecap="round"></path><path d="M 462.500,198.000 C 461.115,195.923 460.820,196.111 459.500,194.000" stroke-width="16.236" stroke="rgb(33,33,33)" fill="none" stroke-linecap="round"></path><path d="M 459.500,194.000 C 458.320,192.111 458.607,191.938 457.500,190.000" stroke-width="16.195" stroke="rgb(33,33,33)" fill="none" stroke-linecap="round"></path><path d="M 457.500,190.000 C 456.607,188.438 456.577,188.437 455.500,187.000" stroke-width="16.295" stroke="rgb(33,33,33)" fill="none" stroke-linecap="round"></path><path d="M 455.500,187.000 C 455.077,186.437 455.086,186.293 454.500,186.000" stroke-width="16.724" stroke="rgb(33,33,33)" fill="none" stroke-linecap="round"></path><path d="M 454.500,186.000 C 454.086,185.793 453.892,186.261 453.500,186.000" stroke-width="17.309" stroke="rgb(33,33,33)" fill="none" stroke-linecap="round"></path><path d="M 453.500,186.000 C 452.392,185.261 452.500,185.000 451.500,184.000" stroke-width="17.347" stroke="rgb(33,33,33)" fill="none" stroke-linecap="round"></path><path d="M 451.500,184.000 C 451.000,183.500 450.707,183.621 450.500,183.000" stroke-width="17.601" stroke="rgb(33,33,33)" fill="none" stroke-linecap="round"></path><path d="M 450.500,183.000 C 450.207,182.121 450.694,181.969 450.500,181.000" stroke-width="17.702" stroke="rgb(33,33,33)" fill="none" stroke-linecap="round"></path><path d="M 450.500,181.000 C 450.194,179.469 449.721,179.545 449.500,178.000" stroke-width="17.573" stroke="rgb(33,33,33)" fill="none" stroke-linecap="round"></path><path d="M 449.500,178.000 C 449.221,176.045 449.179,175.924 449.500,174.000" stroke-width="17.362" stroke="rgb(33,33,33)" fill="none" stroke-linecap="round"></path><path d="M 449.500,174.000 C 449.679,172.924 450.000,173.000 450.500,172.000" stroke-width="17.466" stroke="rgb(33,33,33)" fill="none" stroke-linecap="round"></path><path d="M 450.500,172.000 C 451.000,171.000 450.625,170.625 451.500,170.000" stroke-width="17.551" stroke="rgb(33,33,33)" fill="none" stroke-linecap="round"></path><path d="M 451.500,170.000 C 454.125,168.125 454.635,168.719 457.500,167.000" stroke-width="16.847" stroke="rgb(33,33,33)" fill="none" stroke-linecap="round"></path><path d="M 457.500,167.000 C 459.635,165.719 459.357,165.071 461.500,164.000" stroke-width="16.593" stroke="rgb(33,33,33)" fill="none" stroke-linecap="round"></path><path d="M 461.500,164.000 C 462.357,163.571 462.833,164.333 463.500,164.000" stroke-width="16.896" stroke="rgb(33,33,33)" fill="none" stroke-linecap="round"></path><path d="M 463.500,164.000 C 463.833,163.833 463.293,163.414 463.500,163.000" stroke-width="17.401" stroke="rgb(33,33,33)" fill="none" stroke-linecap="round"></path><path d="M 463.500,163.000 C 463.793,162.414 464.293,162.621 464.500,162.000" stroke-width="17.672" stroke="rgb(33,33,33)" fill="none" stroke-linecap="round"></path><path d="M 464.500,162.000 C 464.793,161.121 464.500,161.000 464.500,160.000" stroke-width="17.760" stroke="rgb(33,33,33)" fill="none" stroke-linecap="round"></path><path d="M 464.500,160.000 C 464.500,160.000 464.500,160.000 464.500,160.000" stroke-width="18.208" stroke="rgb(33,33,33)" fill="none" stroke-linecap="round"></path><path d="M 464.500,160.000 C 464.500,159.000 464.306,158.969 464.500,158.000" stroke-width="18.211" stroke="rgb(33,33,33)" fill="none" stroke-linecap="round"></path><path d="M 464.500,158.000 C 464.806,156.469 464.879,156.450 465.500,155.000" stroke-width="17.972" stroke="rgb(33,33,33)" fill="none" stroke-linecap="round"></path><path d="M 465.500,155.000 C 466.379,152.950 466.500,153.000 467.500,151.000" stroke-width="17.592" stroke="rgb(33,33,33)" fill="none" stroke-linecap="round"></path><path d="M 467.500,151.000 C 468.500,149.000 468.901,149.095 469.500,147.000" stroke-width="17.256" stroke="rgb(33,33,33)" fill="none" stroke-linecap="round"></path><path d="M 469.500,147.000 C 469.901,145.595 469.500,145.500 469.500,144.000" stroke-width="17.247" stroke="rgb(33,33,33)" fill="none" stroke-linecap="round"></path><path d="M 469.500,144.000 C 469.500,143.500 469.191,143.309 469.500,143.000" stroke-width="17.593" stroke="rgb(33,33,33)" fill="none" stroke-linecap="round"></path><path d="M 469.500,143.000 C 470.191,142.309 470.972,142.792 471.500,142.000" stroke-width="17.675" stroke="rgb(33,33,33)" fill="none" stroke-linecap="round"></path><path d="M 471.500,142.000 C 471.972,141.292 471.500,141.000 471.500,140.000" stroke-width="17.762" stroke="rgb(33,33,33)" fill="none" stroke-linecap="round"></path><path d="M 471.500,140.000 C 471.500,139.500 471.250,139.250 471.500,139.000" stroke-width="18.128" stroke="rgb(33,33,33)" fill="none" stroke-linecap="round"></path><path d="M 471.500,139.000 C 471.750,138.750 472.250,139.250 472.500,139.000" stroke-width="18.417" stroke="rgb(33,33,33)" fill="none" stroke-linecap="round"></path><path d="M 472.500,139.000 C 472.750,138.750 472.750,138.250 472.500,138.000" stroke-width="18.680" stroke="rgb(33,33,33)" fill="none" stroke-linecap="round"></path><path d="M 472.500,138.000 C 472.250,137.750 471.750,137.750 471.500,138.000" stroke-width="18.929" stroke="rgb(33,33,33)" fill="none" stroke-linecap="round"></path><path d="M 471.500,138.000 C 471.250,138.250 471.761,138.608 471.500,139.000" stroke-width="19.029" stroke="rgb(33,33,33)" fill="none" stroke-linecap="round"></path><path d="M 471.500,139.000 C 470.761,140.108 470.608,140.261 469.500,141.000" stroke-width="18.702" stroke="rgb(33,33,33)" fill="none" stroke-linecap="round"></path><path d="M 469.500,141.000 C 469.108,141.261 468.750,140.750 468.500,141.000" stroke-width="18.785" stroke="rgb(33,33,33)" fill="none" stroke-linecap="round"></path><path d="M 468.500,141.000 C 468.250,141.250 468.500,141.500 468.500,142.000" stroke-width="18.864" stroke="rgb(33,33,33)" fill="none" stroke-linecap="round"></path><path d="M 468.500,142.000 C 468.500,142.500 468.707,142.586 468.500,143.000" stroke-width="19.023" stroke="rgb(33,33,33)" fill="none" stroke-linecap="round"></path><path d="M 468.500,143.000 C 468.207,143.586 467.793,143.414 467.500,144.000" stroke-width="18.973" stroke="rgb(33,33,33)" fill="none" stroke-linecap="round"></path><path d="M 467.500,144.000 C 467.293,144.414 467.500,144.500 467.500,145.000" stroke-width="19.090" stroke="rgb(33,33,33)" fill="none" stroke-linecap="round"></path><path d="M 467.500,145.000 C 467.500,145.500 467.833,145.833 467.500,146.000" stroke-width="19.145" stroke="rgb(33,33,33)" fill="none" stroke-linecap="round"></path><path d="M 467.500,146.000 C 466.833,146.333 466.000,145.500 465.500,146.000" stroke-width="18.931" stroke="rgb(33,33,33)" fill="none" stroke-linecap="round"></path><path d="M 465.500,146.000 C 465.000,146.500 465.500,147.000 465.500,148.000" stroke-width="18.991" stroke="rgb(33,33,33)" fill="none" stroke-linecap="round"></path><path d="M 465.500,148.000 C 465.500,149.000 465.306,149.031 465.500,150.000" stroke-width="18.833" stroke="rgb(33,33,33)" fill="none" stroke-linecap="round"></path><path d="M 465.500,150.000 C 465.806,151.531 466.120,151.481 466.500,153.000" stroke-width="18.453" stroke="rgb(33,33,33)" fill="none" stroke-linecap="round"></path><path d="M 466.500,153.000 C 466.620,153.481 466.500,153.500 466.500,154.000" stroke-width="18.583" stroke="rgb(33,33,33)" fill="none" stroke-linecap="round"></path><path d="M 466.500,154.000 C 466.500,155.000 466.000,155.500 466.500,156.000" stroke-width="18.489" stroke="rgb(33,33,33)" fill="none" stroke-linecap="round"></path><path d="M 466.500,156.000 C 467.000,156.500 467.500,156.000 468.500,156.000" stroke-width="18.435" stroke="rgb(33,33,33)" fill="none" stroke-linecap="round"></path><path d="M 468.500,156.000 C 469.000,156.000 469.000,156.000 469.500,156.000" stroke-width="18.644" stroke="rgb(33,33,33)" fill="none" stroke-linecap="round"></path><path d="M 469.500,156.000 C 470.000,156.000 470.000,156.000 470.500,156.000" stroke-width="18.738" stroke="rgb(33,33,33)" fill="none" stroke-linecap="round"></path><path d="M 470.500,156.000 C 471.500,156.000 471.500,156.000 472.500,156.000" stroke-width="18.611" stroke="rgb(33,33,33)" fill="none" stroke-linecap="round"></path><path d="M 472.500,156.000 C 473.500,156.000 473.500,156.000 474.500,156.000" stroke-width="18.532" stroke="rgb(33,33,33)" fill="none" stroke-linecap="round"></path><path d="M 474.500,156.000 C 475.000,156.000 475.000,156.000 475.500,156.000" stroke-width="18.648" stroke="rgb(33,33,33)" fill="none" stroke-linecap="round"></path><path d="M 475.500,156.000 C 476.000,156.000 476.375,156.375 476.500,156.000" stroke-width="18.864" stroke="rgb(33,33,33)" fill="none" stroke-linecap="round"></path><path d="M 476.500,156.000 C 476.875,154.875 476.500,154.500 476.500,153.000" stroke-width="18.509" stroke="rgb(33,33,33)" fill="none" stroke-linecap="round"></path><path d="M 476.500,153.000 C 476.500,152.500 476.305,152.454 476.500,152.000" stroke-width="18.640" stroke="rgb(33,33,33)" fill="none" stroke-linecap="round"></path><path d="M 476.500,152.000 C 477.805,148.954 477.781,148.865 479.500,146.000" stroke-width="17.639" stroke="rgb(33,33,33)" fill="none" stroke-linecap="round"></path><path d="M 479.500,146.000 C 480.781,143.865 481.404,144.192 482.500,142.000" stroke-width="17.201" stroke="rgb(33,33,33)" fill="none" stroke-linecap="round"></path><path d="M 482.500,142.000 C 483.404,140.192 482.755,139.862 483.500,138.000" stroke-width="17.051" stroke="rgb(33,33,33)" fill="none" stroke-linecap="round"></path><path d="M 483.500,138.000 C 483.755,137.362 484.207,137.586 484.500,137.000" stroke-width="17.356" stroke="rgb(33,33,33)" fill="none" stroke-linecap="round"></path><path d="M 484.500,137.000 C 484.707,136.586 484.345,136.464 484.500,136.000" stroke-width="17.693" stroke="rgb(33,33,33)" fill="none" stroke-linecap="round"></path><path d="M 484.500,136.000 C 484.845,134.964 485.155,135.036 485.500,134.000" stroke-width="17.734" stroke="rgb(33,33,33)" fill="none" stroke-linecap="round"></path><path d="M 485.500,134.000 C 485.655,133.536 485.500,133.500 485.500,133.000" stroke-width="18.024" stroke="rgb(33,33,33)" fill="none" stroke-linecap="round"></path><path d="M 485.500,133.000 C 485.500,132.500 485.293,132.414 485.500,132.000" stroke-width="18.234" stroke="rgb(33,33,33)" fill="none" stroke-linecap="round"></path><path d="M 485.500,132.000 C 485.793,131.414 485.914,131.293 486.500,131.000" stroke-width="18.324" stroke="rgb(33,33,33)" fill="none" stroke-linecap="round"></path><path d="M 486.500,131.000 C 486.914,130.793 487.108,130.739 487.500,131.000" stroke-width="18.617" stroke="rgb(33,33,33)" fill="none" stroke-linecap="round"></path><path d="M 487.500,131.000 C 488.608,131.739 488.392,132.261 489.500,133.000" stroke-width="18.352" stroke="rgb(33,33,33)" fill="none" stroke-linecap="round"></path><path d="M 489.500,133.000 C 489.892,133.261 490.000,133.000 490.500,133.000" stroke-width="18.584" stroke="rgb(33,33,33)" fill="none" stroke-linecap="round"></path><path d="M 490.500,133.000 C 490.500,133.000 490.500,133.000 490.500,133.000" stroke-width="18.895" stroke="rgb(33,33,33)" fill="none" stroke-linecap="round"></path><path d="M 490.500,133.000 C 491.500,133.000 491.500,133.000 492.500,133.000" stroke-width="18.709" stroke="rgb(33,33,33)" fill="none" stroke-linecap="round"></path><path d="M 492.500,133.000 C 492.500,133.000 492.500,133.000 492.500,133.000" stroke-width="18.998" stroke="rgb(33,33,33)" fill="none" stroke-linecap="round"></path><path d="M 492.500,133.000 C 493.000,133.000 493.191,132.691 493.500,133.000" stroke-width="19.063" stroke="rgb(33,33,33)" fill="none" stroke-linecap="round"></path><path d="M 493.500,133.000 C 494.191,133.691 493.887,134.081 494.500,135.000" stroke-width="18.843" stroke="rgb(33,33,33)" fill="none" stroke-linecap="round"></path><path d="M 494.500,135.000 C 494.887,135.581 495.113,135.419 495.500,136.000" stroke-width="18.814" stroke="rgb(33,33,33)" fill="none" stroke-linecap="round"></path><path d="M 495.500,136.000 C 496.113,136.919 495.750,137.250 496.500,138.000" stroke-width="18.623" stroke="rgb(33,33,33)" fill="none" stroke-linecap="round"></path><path d="M 496.500,138.000 C 497.250,138.750 497.972,138.208 498.500,139.000" stroke-width="18.473" stroke="rgb(33,33,33)" fill="none" stroke-linecap="round"></path><path d="M 498.500,139.000 C 498.972,139.708 498.500,140.000 498.500,141.000" stroke-width="18.423" stroke="rgb(33,33,33)" fill="none" stroke-linecap="round"></path><path d="M 498.500,141.000 C 498.500,141.500 498.500,141.500 498.500,142.000" stroke-width="18.559" stroke="rgb(33,33,33)" fill="none" stroke-linecap="round"></path><path d="M 498.500,142.000 C 498.500,142.500 498.500,142.500 498.500,143.000" stroke-width="18.700" stroke="rgb(33,33,33)" fill="none" stroke-linecap="round"></path><path d="M 498.500,143.000 C 498.500,144.000 498.500,144.000 498.500,145.000" stroke-width="18.603" stroke="rgb(33,33,33)" fill="none" stroke-linecap="round"></path><path d="M 498.500,145.000 C 498.500,145.500 498.500,145.500 498.500,146.000" stroke-width="18.705" stroke="rgb(33,33,33)" fill="none" stroke-linecap="round"></path><path d="M 498.500,146.000 C 498.500,146.500 498.750,146.750 498.500,147.000" stroke-width="18.788" stroke="rgb(33,33,33)" fill="none" stroke-linecap="round"></path><path d="M 498.500,147.000 C 498.250,147.250 497.934,146.783 497.500,147.000" stroke-width="18.988" stroke="rgb(33,33,33)" fill="none" stroke-linecap="round"></path><path d="M 497.500,147.000 C 495.934,147.783 495.941,147.919 494.500,149.000" stroke-width="18.523" stroke="rgb(33,33,33)" fill="none" stroke-linecap="round"></path><path d="M 494.500,149.000 C 491.941,150.919 492.095,151.270 489.500,153.000" stroke-width="17.538" stroke="rgb(33,33,33)" fill="none" stroke-linecap="round"></path><path d="M 489.500,153.000 C 489.095,153.270 488.981,152.880 488.500,153.000" stroke-width="17.834" stroke="rgb(33,33,33)" fill="none" stroke-linecap="round"></path><path d="M 488.500,153.000 C 486.981,153.380 487.019,153.620 485.500,154.000" stroke-width="17.709" stroke="rgb(33,33,33)" fill="none" stroke-linecap="round"></path><path d="M 485.500,154.000 C 485.019,154.120 485.000,154.000 484.500,154.000" stroke-width="18.128" stroke="rgb(33,33,33)" fill="none" stroke-linecap="round"></path><path d="M 484.500,154.000 C 484.000,154.000 483.914,154.207 483.500,154.000" stroke-width="18.466" stroke="rgb(33,33,33)" fill="none" stroke-linecap="round"></path><path d="M 483.500,154.000 C 482.914,153.707 483.086,153.293 482.500,153.000" stroke-width="18.688" stroke="rgb(33,33,33)" fill="none" stroke-linecap="round"></path><path d="M 482.500,153.000 C 482.086,152.793 481.695,153.390 481.500,153.000" stroke-width="18.834" stroke="rgb(33,33,33)" fill="none" stroke-linecap="round"></path><path d="M 481.500,153.000 C 480.695,151.390 480.902,151.012 480.500,149.000" stroke-width="18.265" stroke="rgb(33,33,33)" fill="none" stroke-linecap="round"></path><path d="M 480.500,149.000 C 480.402,148.512 480.860,148.240 480.500,148.000" stroke-width="18.509" stroke="rgb(33,33,33)" fill="none" stroke-linecap="round"></path><path d="M 480.500,148.000 C 479.360,147.240 479.031,147.306 477.500,147.000" stroke-width="18.692" stroke="rgb(33,33,33)" fill="none" stroke-linecap="round"></path><path d="M 477.500,147.000 C 476.531,146.806 476.444,146.764 475.500,147.000" stroke-width="18.574" stroke="rgb(33,33,33)" fill="none" stroke-linecap="round"></path><path d="M 475.500,147.000 C 474.444,147.264 474.322,147.253 473.500,148.000" stroke-width="18.793" stroke="rgb(33,33,33)" fill="none" stroke-linecap="round"></path><path d="M 473.500,148.000 C 468.822,152.253 469.260,152.800 464.500,157.000" stroke-width="16.711" stroke="rgb(33,33,33)" fill="none" stroke-linecap="round"></path><path d="M 464.500,157.000 C 460.760,160.300 460.583,160.118 456.500,163.000" stroke-width="15.734" stroke="rgb(33,33,33)" fill="none" stroke-linecap="round"></path><path d="M 456.500,163.000 C 452.083,166.118 452.206,166.466 447.500,169.000" stroke-width="14.924" stroke="rgb(33,33,33)" fill="none" stroke-linecap="round"></path><path d="M 447.500,169.000 C 445.706,169.966 445.110,169.195 443.500,170.000" stroke-width="15.210" stroke="rgb(33,33,33)" fill="none" stroke-linecap="round"></path><path d="M 443.500,170.000 C 443.110,170.195 443.500,170.500 443.500,171.000" stroke-width="15.984" stroke="rgb(33,33,33)" fill="none" stroke-linecap="round"></path><path d="M 443.500,171.000 C 443.500,171.500 443.500,171.500 443.500,172.000" stroke-width="16.569" stroke="rgb(33,33,33)" fill="none" stroke-linecap="round"></path><path d="M 443.500,172.000 C 443.500,172.000 443.500,172.000 443.500,172.000" stroke-width="17.194" stroke="rgb(33,33,33)" fill="none" stroke-linecap="round"></path><path d="M 443.500,172.000 C 444.000,173.000 443.809,173.309 444.500,174.000" stroke-width="17.352" stroke="rgb(33,33,33)" fill="none" stroke-linecap="round"></path><path d="M 444.500,174.000 C 444.809,174.309 445.086,173.793 445.500,174.000" stroke-width="17.679" stroke="rgb(33,33,33)" fill="none" stroke-linecap="round"></path><path d="M 445.500,174.000 C 446.086,174.293 446.000,174.500 446.500,175.000" stroke-width="17.888" stroke="rgb(33,33,33)" fill="none" stroke-linecap="round"></path><path d="M 446.500,175.000 C 447.500,176.000 447.320,176.292 448.500,177.000" stroke-width="17.780" stroke="rgb(33,33,33)" fill="none" stroke-linecap="round"></path><path d="M 448.500,177.000 C 449.820,177.792 450.000,177.500 451.500,178.000" stroke-width="17.666" stroke="rgb(33,33,33)" fill="none" stroke-linecap="round"></path><path d="M 451.500,178.000 C 453.000,178.500 453.098,178.299 454.500,179.000" stroke-width="17.544" stroke="rgb(33,33,33)" fill="none" stroke-linecap="round"></path><path d="M 454.500,179.000 C 456.098,179.799 455.934,180.217 457.500,181.000" stroke-width="17.405" stroke="rgb(33,33,33)" fill="none" stroke-linecap="round"></path><path d="M 457.500,181.000 C 457.934,181.217 458.000,181.000 458.500,181.000" stroke-width="17.724" stroke="rgb(33,33,33)" fill="none" stroke-linecap="round"></path><path d="M 458.500,181.000 C 459.500,181.000 459.500,181.000 460.500,181.000" stroke-width="17.822" stroke="rgb(33,33,33)" fill="none" stroke-linecap="round"></path><path d="M 460.500,181.000 C 461.000,181.000 461.000,181.000 461.500,181.000" stroke-width="18.068" stroke="rgb(33,33,33)" fill="none" stroke-linecap="round"></path><path d="M 461.500,181.000 C 466.000,181.000 466.000,181.000 470.500,181.000" stroke-width="16.840" stroke="rgb(33,33,33)" fill="none" stroke-linecap="round"></path><path d="M 470.500,181.000 C 473.500,181.000 473.500,181.000 476.500,181.000" stroke-width="16.529" stroke="rgb(33,33,33)" fill="none" stroke-linecap="round"></path><path d="M 476.500,181.000 C 481.000,181.000 481.000,181.000 485.500,181.000" stroke-width="15.747" stroke="rgb(33,33,33)" fill="none" stroke-linecap="round"></path><path d="M 485.500,181.000 C 487.000,181.000 487.138,181.454 488.500,181.000" stroke-width="16.019" stroke="rgb(33,33,33)" fill="none" stroke-linecap="round"></path><path d="M 488.500,181.000 C 490.138,180.454 490.326,180.174 491.500,179.000" stroke-width="16.118" stroke="rgb(33,33,33)" fill="none" stroke-linecap="round"></path><path d="M 491.500,179.000 C 491.826,178.674 491.214,178.381 491.500,178.000" stroke-width="16.666" stroke="rgb(33,33,33)" fill="none" stroke-linecap="round"></path><path d="M 491.500,178.000 C 492.714,176.381 493.621,176.757 494.500,175.000" stroke-width="16.609" stroke="rgb(33,33,33)" fill="none" stroke-linecap="round"></path><path d="M 494.500,175.000 C 495.121,173.757 493.990,173.359 494.500,172.000" stroke-width="16.696" stroke="rgb(33,33,33)" fill="none" stroke-linecap="round"></path><path d="M 494.500,172.000 C 495.490,169.359 496.085,169.547 497.500,167.000" stroke-width="16.396" stroke="rgb(33,33,33)" fill="none" stroke-linecap="round"></path><path d="M 497.500,167.000 C 498.585,165.047 498.672,165.071 499.500,163.000" stroke-width="16.322" stroke="rgb(33,33,33)" fill="none" stroke-linecap="round"></path><path d="M 499.500,163.000 C 500.672,160.071 500.740,160.039 501.500,157.000" stroke-width="15.983" stroke="rgb(33,33,33)" fill="none" stroke-linecap="round"></path><path d="M 501.500,157.000 C 501.740,156.039 501.500,156.000 501.500,155.000" stroke-width="16.386" stroke="rgb(33,33,33)" fill="none" stroke-linecap="round"></path><path d="M 501.500,155.000 C 501.500,153.000 501.319,152.987 501.500,151.000" stroke-width="16.388" stroke="rgb(33,33,33)" fill="none" stroke-linecap="round"></path><path d="M 501.500,151.000 C 501.819,147.487 501.949,147.492 502.500,144.000" stroke-width="15.923" stroke="rgb(33,33,33)" fill="none" stroke-linecap="round"></path><path d="M 502.500,144.000 C 503.449,137.992 503.458,137.993 504.500,132.000" stroke-width="14.972" stroke="rgb(33,33,33)" fill="none" stroke-linecap="round"></path><path d="M 504.500,132.000 C 505.458,126.493 505.778,126.537 506.500,121.000" stroke-width="14.325" stroke="rgb(33,33,33)" fill="none" stroke-linecap="round"></path><path d="M 506.500,121.000 C 507.278,115.037 506.978,114.998 507.500,109.000" stroke-width="13.752" stroke="rgb(33,33,33)" fill="none" stroke-linecap="round"></path><path d="M 507.500,109.000 C 507.978,103.498 508.176,103.508 508.500,98.000" stroke-width="13.493" stroke="rgb(33,33,33)" fill="none" stroke-linecap="round"></path><path d="M 508.500,98.000 C 508.676,95.008 508.500,95.000 508.500,92.000" stroke-width="13.764" stroke="rgb(33,33,33)" fill="none" stroke-linecap="round"></path><path d="M 508.500,92.000 C 508.500,90.000 508.221,89.955 508.500,88.000" stroke-width="14.247" stroke="rgb(33,33,33)" fill="none" stroke-linecap="round"></path><path d="M 508.500,88.000 C 508.721,86.455 509.194,86.531 509.500,85.000" stroke-width="14.735" stroke="rgb(33,33,33)" fill="none" stroke-linecap="round"></path><path d="M 509.500,85.000 C 509.694,84.031 509.500,84.000 509.500,83.000" stroke-width="15.321" stroke="rgb(33,33,33)" fill="none" stroke-linecap="round"></path><path d="M 509.500,83.000 C 509.500,81.500 509.500,81.500 509.500,80.000" stroke-width="15.639" stroke="rgb(33,33,33)" fill="none" stroke-linecap="round"></path><path d="M 509.500,80.000 C 509.500,78.500 509.500,78.500 509.500,77.000" stroke-width="15.955" stroke="rgb(33,33,33)" fill="none" stroke-linecap="round"></path><path d="M 509.500,77.000 C 509.500,75.000 509.500,75.000 509.500,73.000" stroke-width="16.041" stroke="rgb(33,33,33)" fill="none" stroke-linecap="round"></path><path d="M 509.500,73.000 C 509.500,70.500 509.500,70.500 509.500,68.000" stroke-width="15.960" stroke="rgb(33,33,33)" fill="none" stroke-linecap="round"></path><path d="M 509.500,68.000 C 509.500,67.000 509.500,67.000 509.500,66.000" stroke-width="16.367" stroke="rgb(33,33,33)" fill="none" stroke-linecap="round"></path><path d="M 509.500,66.000 C 509.500,65.000 509.500,64.333 509.500,64.000" stroke-width="16.690" stroke="rgb(33,33,33)" fill="none" stroke-linecap="round"></path><path d="M 509.500,64.000 C 509.500,63.833 509.345,64.536 509.500,65.000" stroke-width="17.292" stroke="rgb(33,33,33)" fill="none" stroke-linecap="round"></path><path d="M 509.500,65.000 C 509.845,66.036 510.000,66.000 510.500,67.000" stroke-width="17.409" stroke="rgb(33,33,33)" fill="none" stroke-linecap="round"></path><path d="M 510.500,67.000 C 511.000,68.000 511.086,67.964 511.500,69.000" stroke-width="17.504" stroke="rgb(33,33,33)" fill="none" stroke-linecap="round"></path><path d="M 511.500,69.000 C 512.086,70.464 512.117,70.469 512.500,72.000" stroke-width="17.448" stroke="rgb(33,33,33)" fill="none" stroke-linecap="round"></path><path d="M 512.500,72.000 C 513.117,74.469 513.185,74.482 513.500,77.000" stroke-width="17.039" stroke="rgb(33,33,33)" fill="none" stroke-linecap="round"></path><path d="M 513.500,77.000 C 513.685,78.482 513.214,78.568 513.500,80.000" stroke-width="17.073" stroke="rgb(33,33,33)" fill="none" stroke-linecap="round"></path><path d="M 513.500,80.000 C 513.714,81.068 514.086,80.964 514.500,82.000" stroke-width="17.232" stroke="rgb(33,33,33)" fill="none" stroke-linecap="round"></path><path d="M 514.500,82.000 C 515.086,83.464 514.621,83.828 515.500,85.000" stroke-width="17.200" stroke="rgb(33,33,33)" fill="none" stroke-linecap="round"></path><path d="M 515.500,85.000 C 516.121,85.828 516.637,85.310 517.500,86.000" stroke-width="17.480" stroke="rgb(33,33,33)" fill="none" stroke-linecap="round"></path><path d="M 517.500,86.000 C 519.137,87.310 518.881,87.786 520.500,89.000" stroke-width="17.250" stroke="rgb(33,33,33)" fill="none" stroke-linecap="round"></path><path d="M 520.500,89.000 C 520.881,89.286 521.030,88.843 521.500,89.000" stroke-width="17.595" stroke="rgb(33,33,33)" fill="none" stroke-linecap="round"></path><path d="M 521.500,89.000 C 524.030,89.843 524.000,90.000 526.500,91.000" stroke-width="17.153" stroke="rgb(33,33,33)" fill="none" stroke-linecap="round"></path><path d="M 526.500,91.000 C 526.500,91.000 526.500,91.000 526.500,91.000" stroke-width="17.694" stroke="rgb(33,33,33)" fill="none" stroke-linecap="round"></path><path d="M 526.500,91.000 C 527.000,91.000 527.000,91.000 527.500,91.000" stroke-width="17.999" stroke="rgb(33,33,33)" fill="none" stroke-linecap="round"></path><path d="M 527.500,91.000 C 528.500,91.000 528.500,91.000 529.500,91.000" stroke-width="18.044" stroke="rgb(33,33,33)" fill="none" stroke-linecap="round"></path><path d="M 529.500,91.000 C 530.500,91.000 530.500,91.000 531.500,91.000" stroke-width="18.059" stroke="rgb(33,33,33)" fill="none" stroke-linecap="round"></path><path d="M 531.500,91.000 C 532.000,91.000 532.036,91.155 532.500,91.000" stroke-width="18.273" stroke="rgb(33,33,33)" fill="none" stroke-linecap="round"></path><path d="M 532.500,91.000 C 533.536,90.655 533.750,90.750 534.500,90.000" stroke-width="18.196" stroke="rgb(33,33,33)" fill="none" stroke-linecap="round"></path><path d="M 534.500,90.000 C 535.250,89.250 535.000,89.000 535.500,88.000" stroke-width="18.136" stroke="rgb(33,33,33)" fill="none" stroke-linecap="round"></path><path d="M 535.500,88.000 C 535.500,88.000 535.500,88.000 535.500,88.000" stroke-width="18.522" stroke="rgb(33,33,33)" fill="none" stroke-linecap="round"></path><path d="M 535.500,88.000 C 535.500,87.000 535.500,87.000 535.500,86.000" stroke-width="18.440" stroke="rgb(33,33,33)" fill="none" stroke-linecap="round"></path><path d="M 535.500,86.000 C 535.500,85.500 535.500,85.500 535.500,85.000" stroke-width="18.573" stroke="rgb(33,33,33)" fill="none" stroke-linecap="round"></path><path d="M 535.500,85.000 C 535.500,84.000 535.500,84.000 535.500,83.000" stroke-width="18.502" stroke="rgb(33,33,33)" fill="none" stroke-linecap="round"></path><path d="M 535.500,83.000 C 535.500,80.500 535.500,80.500 535.500,78.000" stroke-width="17.851" stroke="rgb(33,33,33)" fill="none" stroke-linecap="round"></path><path d="M 535.500,78.000 C 535.500,73.500 535.220,73.480 535.500,69.000" stroke-width="16.689" stroke="rgb(33,33,33)" fill="none" stroke-linecap="round"></path><path d="M 535.500,69.000 C 535.720,65.480 535.809,65.455 536.500,62.000" stroke-width="16.209" stroke="rgb(33,33,33)" fill="none" stroke-linecap="round"></path><path d="M 536.500,62.000 C 536.809,60.455 537.000,60.500 537.500,59.000" stroke-width="16.375" stroke="rgb(33,33,33)" fill="none" stroke-linecap="round"></path><path d="M 537.500,59.000 C 537.500,59.000 537.500,59.000 537.500,59.000" stroke-width="17.027" stroke="rgb(33,33,33)" fill="none" stroke-linecap="round"></path><path d="M 537.500,59.000 C 537.500,58.500 537.500,58.500 537.500,58.000" stroke-width="17.497" stroke="rgb(33,33,33)" fill="none" stroke-linecap="round"></path><path d="M 537.500,58.000 C 537.500,57.500 537.293,57.000 537.500,57.000" stroke-width="17.890" stroke="rgb(33,33,33)" fill="none" stroke-linecap="round"></path><path d="M 537.500,57.000 C 537.793,57.000 538.191,57.382 538.500,58.000" stroke-width="18.287" stroke="rgb(33,33,33)" fill="none" stroke-linecap="round"></path><path d="M 538.500,58.000 C 539.191,59.382 539.000,59.500 539.500,61.000" stroke-width="18.031" stroke="rgb(33,33,33)" fill="none" stroke-linecap="round"></path><path d="M 539.500,61.000 C 540.500,64.000 540.987,63.921 541.500,67.000" stroke-width="17.326" stroke="rgb(33,33,33)" fill="none" stroke-linecap="round"></path><path d="M 541.500,67.000 C 541.987,69.921 540.953,70.080 541.500,73.000" stroke-width="16.797" stroke="rgb(33,33,33)" fill="none" stroke-linecap="round"></path><path d="M 541.500,73.000 C 542.453,78.080 543.066,77.981 544.500,83.000" stroke-width="15.731" stroke="rgb(33,33,33)" fill="none" stroke-linecap="round"></path><path d="M 544.500,83.000 C 546.066,88.481 546.118,88.471 547.500,94.000" stroke-width="14.846" stroke="rgb(33,33,33)" fill="none" stroke-linecap="round"></path><path d="M 547.500,94.000 C 548.618,98.471 548.432,98.516 549.500,103.000" stroke-width="14.468" stroke="rgb(33,33,33)" fill="none" stroke-linecap="round"></path><path d="M 549.500,103.000 C 550.932,109.016 551.288,108.940 552.500,115.000" stroke-width="13.897" stroke="rgb(33,33,33)" fill="none" stroke-linecap="round"></path><path d="M 552.500,115.000 C 554.288,123.940 554.765,123.937 555.500,133.000" stroke-width="12.813" stroke="rgb(33,33,33)" fill="none" stroke-linecap="round"></path><path d="M 555.500,133.000 C 556.265,142.437 555.014,142.524 555.500,152.000" stroke-width="12.086" stroke="rgb(33,33,33)" fill="none" stroke-linecap="round"></path><path d="M 555.500,152.000 C 556.014,162.024 555.772,162.127 557.500,172.000" stroke-width="11.397" stroke="rgb(33,33,33)" fill="none" stroke-linecap="round"></path><path d="M 557.500,172.000 C 559.272,182.127 560.857,181.869 562.500,192.000" stroke-width="10.864" stroke="rgb(33,33,33)" fill="none" stroke-linecap="round"></path><path d="M 562.500,192.000 C 563.857,200.369 562.216,200.651 563.500,209.000" stroke-width="10.706" stroke="rgb(33,33,33)" fill="none" stroke-linecap="round"></path><path d="M 563.500,209.000 C 564.216,213.651 565.658,213.367 566.500,218.000" stroke-width="11.135" stroke="rgb(33,33,33)" fill="none" stroke-linecap="round"></path><path d="M 566.500,218.000 C 567.658,224.367 567.250,224.490 567.500,231.000" stroke-width="11.198" stroke="rgb(33,33,33)" fill="none" stroke-linecap="round"></path><path d="M 567.500,231.000 C 567.750,237.490 567.500,237.500 567.500,244.000" stroke-width="11.253" stroke="rgb(33,33,33)" fill="none" stroke-linecap="round"></path><path d="M 567.500,244.000 C 567.500,247.500 567.306,247.509 567.500,251.000" stroke-width="11.759" stroke="rgb(33,33,33)" fill="none" stroke-linecap="round"></path><path d="M 567.500,251.000 C 567.806,256.509 568.249,256.489 568.500,262.000" stroke-width="11.859" stroke="rgb(33,33,33)" fill="none" stroke-linecap="round"></path><path d="M 568.500,262.000 C 568.749,267.489 568.211,267.518 568.500,273.000" stroke-width="11.995" stroke="rgb(33,33,33)" fill="none" stroke-linecap="round"></path><path d="M 568.500,273.000 C 568.711,277.018 569.232,276.986 569.500,281.000" stroke-width="12.307" stroke="rgb(33,33,33)" fill="none" stroke-linecap="round"></path><path d="M 569.500,281.000 C 569.732,284.486 569.251,284.518 569.500,288.000" stroke-width="12.666" stroke="rgb(33,33,33)" fill="none" stroke-linecap="round"></path><path d="M 569.500,288.000 C 569.751,291.518 570.230,291.484 570.500,295.000" stroke-width="12.963" stroke="rgb(33,33,33)" fill="none" stroke-linecap="round"></path><path d="M 570.500,295.000 C 570.730,297.984 570.500,298.000 570.500,301.000" stroke-width="13.354" stroke="rgb(33,33,33)" fill="none" stroke-linecap="round"></path><path d="M 570.500,301.000 C 570.500,302.500 570.500,302.500 570.500,304.000" stroke-width="13.981" stroke="rgb(33,33,33)" fill="none" stroke-linecap="round"></path><path d="M 570.500,304.000 C 570.500,306.500 570.500,306.500 570.500,309.000" stroke-width="14.318" stroke="rgb(33,33,33)" fill="none" stroke-linecap="round"></path><path d="M 570.500,309.000 C 570.500,310.500 570.500,310.500 570.500,312.000" stroke-width="14.816" stroke="rgb(33,33,33)" fill="none" stroke-linecap="round"></path><path d="M 570.500,312.000 C 570.500,313.500 570.500,313.500 570.500,315.000" stroke-width="15.263" stroke="rgb(33,33,33)" fill="none" stroke-linecap="round"></path></svg>