<svg xmlns="http://www.w3.org/2000/svg" xmlns:xlink="http://www.w3.org/1999/xlink" viewBox="0 0 375 500"><path d="M 369.000,66.000 C 364.000,69.500 364.000,69.500 359.000,73.000" stroke-width="17.243" stroke="rgb(33,33,33)" fill="none" stroke-linecap="round"></path><path d="M 359.000,73.000 C 349.000,80.000 348.609,79.487 339.000,87.000" stroke-width="13.822" stroke="rgb(33,33,33)" fill="none" stroke-linecap="round"></path><path d="M 339.000,87.000 C 321.109,100.987 321.866,101.962 304.000,116.000" stroke-width="10.788" stroke="rgb(33,33,33)" fill="none" stroke-linecap="round"></path><path d="M 304.000,116.000 C 279.866,134.962 279.393,134.360 255.000,153.000" stroke-width="8.035" stroke="rgb(33,33,33)" fill="none" stroke-linecap="round"></path><path d="M 255.000,153.000 C 226.393,174.860 226.084,174.482 198.000,197.000" stroke-width="6.750" stroke="rgb(33,33,33)" fill="none" stroke-linecap="round"></path><path d="M 198.000,197.000 C 170.584,218.982 170.955,219.446 144.000,242.000" stroke-width="6.750" stroke="rgb(33,33,33)" fill="none" stroke-linecap="round"></path><path d="M 144.000,242.000 C 121.955,260.446 122.349,260.937 100.000,279.000" stroke-width="6.750" stroke="rgb(33,33,33)" fill="none" stroke-linecap="round"></path><path d="M 100.000,279.000 C 85.849,290.437 85.878,290.585 71.000,301.000" stroke-width="6.750" stroke="rgb(33,33,33)" fill="none" stroke-linecap="round"></path><path d="M 71.000,301.000 C 65.878,304.585 64.039,307.000 60.000,307.000" stroke-width="6.750" stroke="rgb(33,33,33)" fill="none" stroke-linecap="round"></path><path d="M 60.000,307.000 C 58.039,307.000 58.160,303.880 59.000,301.000" stroke-width="7.193" stroke="rgb(33,33,33)" fill="none" stroke-linecap="round"></path><path d="M 59.000,301.000 C 65.160,279.880 65.801,279.726 74.000,259.000" stroke-width="6.803" stroke="rgb(33,33,33)" fill="none" stroke-linecap="round"></path><path d="M 74.000,259.000 C 83.801,234.226 84.011,234.278 95.000,210.000" stroke-width="6.750" stroke="rgb(33,33,33)" fill="none" stroke-linecap="round"></path><path d="M 95.000,210.000 C 105.511,186.778 106.495,187.222 117.000,164.000" stroke-width="6.750" stroke="rgb(33,33,33)" fill="none" stroke-linecap="round"></path><path d="M 117.000,164.000 C 125.495,145.222 124.176,144.593 133.000,126.000" stroke-width="6.750" stroke="rgb(33,33,33)" fill="none" stroke-linecap="round"></path><path d="M 133.000,126.000 C 138.176,115.093 138.259,114.934 145.000,105.000" stroke-width="6.750" stroke="rgb(33,33,33)" fill="none" stroke-linecap="round"></path><path d="M 145.000,105.000 C 147.759,100.934 148.083,100.493 152.000,98.000" stroke-width="7.017" stroke="rgb(33,33,33)" fill="none" stroke-linecap="round"></path><path d="M 152.000,98.000 C 153.583,96.993 155.370,96.345 156.000,98.000" stroke-width="7.904" stroke="rgb(33,33,33)" fill="none" stroke-linecap="round"></path><path d="M 156.000,98.000 C 159.370,106.845 158.298,108.450 160.000,119.000" stroke-width="8.142" stroke="rgb(33,33,33)" fill="none" stroke-linecap="round"></path><path d="M 160.000,119.000 C 163.298,139.450 162.473,139.591 166.000,160.000" stroke-width="7.479" stroke="rgb(33,33,33)" fill="none" stroke-linecap="round"></path><path d="M 166.000,160.000 C 169.473,180.091 168.819,180.314 174.000,200.000" stroke-width="7.115" stroke="rgb(33,33,33)" fill="none" stroke-linecap="round"></path><path d="M 174.000,200.000 C 178.819,218.314 179.909,218.031 186.000,236.000" stroke-width="6.927" stroke="rgb(33,33,33)" fill="none" stroke-linecap="round"></path><path d="M 186.000,236.000 C 189.909,247.531 189.792,247.578 194.000,259.000" stroke-width="7.123" stroke="rgb(33,33,33)" fill="none" stroke-linecap="round"></path><path d="M 194.000,259.000 C 196.792,266.578 196.820,266.581 200.000,274.000" stroke-width="7.600" stroke="rgb(33,33,33)" fill="none" stroke-linecap="round"></path><path d="M 200.000,274.000 C 201.320,277.081 200.927,277.927 203.000,280.000" stroke-width="8.401" stroke="rgb(33,33,33)" fill="none" stroke-linecap="round"></path><path d="M 203.000,280.000 C 203.927,280.927 205.798,281.376 206.000,280.000" stroke-width="9.368" stroke="rgb(33,33,33)" fill="none" stroke-linecap="round"></path><path d="M 206.000,280.000 C 208.298,264.376 207.392,263.015 208.000,246.000" stroke-width="8.496" stroke="rgb(33,33,33)" fill="none" stroke-linecap="round"></path><path d="M 208.000,246.000 C 208.892,221.015 208.299,220.994 209.000,196.000" stroke-width="7.412" stroke="rgb(33,33,33)" fill="none" stroke-linecap="round"></path><path d="M 209.000,196.000 C 209.799,167.494 209.461,167.471 211.000,139.000" stroke-width="6.750" stroke="rgb(33,33,33)" fill="none" stroke-linecap="round"></path><path d="M 211.000,139.000 C 212.461,111.971 211.756,111.837 215.000,85.000" stroke-width="6.750" stroke="rgb(33,33,33)" fill="none" stroke-linecap="round"></path><path d="M 215.000,85.000 C 217.256,66.337 217.698,66.282 222.000,48.000" stroke-width="6.750" stroke="rgb(33,33,33)" fill="none" stroke-linecap="round"></path><path d="M 222.000,48.000 C 223.698,40.782 223.781,40.438 227.000,34.000" stroke-width="6.750" stroke="rgb(33,33,33)" fill="none" stroke-linecap="round"></path><path d="M 227.000,34.000 C 227.781,32.438 228.963,31.092 230.000,32.000" stroke-width="7.653" stroke="rgb(33,33,33)" fill="none" stroke-linecap="round"></path><path d="M 230.000,32.000 C 232.963,34.592 233.763,36.050 235.000,41.000" stroke-width="8.252" stroke="rgb(33,33,33)" fill="none" stroke-linecap="round"></path><path d="M 235.000,41.000 C 239.763,60.050 238.988,60.423 242.000,80.000" stroke-width="7.617" stroke="rgb(33,33,33)" fill="none" stroke-linecap="round"></path><path d="M 242.000,80.000 C 245.988,105.923 245.921,105.950 249.000,132.000" stroke-width="6.878" stroke="rgb(33,33,33)" fill="none" stroke-linecap="round"></path><path d="M 249.000,132.000 C 252.421,160.950 251.751,161.028 255.000,190.000" stroke-width="6.750" stroke="rgb(33,33,33)" fill="none" stroke-linecap="round"></path><path d="M 255.000,190.000 C 257.751,214.528 257.511,214.574 261.000,239.000" stroke-width="6.750" stroke="rgb(33,33,33)" fill="none" stroke-linecap="round"></path><path d="M 261.000,239.000 C 263.011,253.074 263.145,253.080 266.000,267.000" stroke-width="6.750" stroke="rgb(33,33,33)" fill="none" stroke-linecap="round"></path><path d="M 266.000,267.000 C 267.145,272.580 267.161,272.943 269.000,278.000" stroke-width="6.932" stroke="rgb(33,33,33)" fill="none" stroke-linecap="round"></path><path d="M 269.000,278.000 C 269.161,278.443 269.971,278.486 270.000,278.000" stroke-width="7.943" stroke="rgb(33,33,33)" fill="none" stroke-linecap="round"></path><path d="M 270.000,278.000 C 270.971,261.486 269.803,260.956 271.000,244.000" stroke-width="7.671" stroke="rgb(33,33,33)" fill="none" stroke-linecap="round"></path><path d="M 271.000,244.000 C 272.803,218.456 273.063,218.450 276.000,193.000" stroke-width="6.948" stroke="rgb(33,33,33)" fill="none" stroke-linecap="round"></path><path d="M 276.000,193.000 C 279.063,166.450 279.543,166.506 283.000,140.000" stroke-width="6.750" stroke="rgb(33,33,33)" fill="none" stroke-linecap="round"></path><path d="M 283.000,140.000 C 285.543,120.506 286.190,120.544 288.000,101.000" stroke-width="6.750" stroke="rgb(33,33,33)" fill="none" stroke-linecap="round"></path><path d="M 288.000,101.000 C 288.690,93.544 289.840,92.255 288.000,86.000" stroke-width="6.854" stroke="rgb(33,33,33)" fill="none" stroke-linecap="round"></path><path d="M 288.000,86.000 C 287.340,83.755 284.989,82.509 283.000,84.000" stroke-width="7.697" stroke="rgb(33,33,33)" fill="none" stroke-linecap="round"></path><path d="M 283.000,84.000 C 270.989,93.009 270.244,94.436 260.000,107.000" stroke-width="7.595" stroke="rgb(33,33,33)" fill="none" stroke-linecap="round"></path><path d="M 260.000,107.000 C 243.744,126.936 243.496,127.069 230.000,149.000" stroke-width="6.800" stroke="rgb(33,33,33)" fill="none" stroke-linecap="round"></path><path d="M 230.000,149.000 C 215.496,172.569 215.494,172.824 204.000,198.000" stroke-width="6.750" stroke="rgb(33,33,33)" fill="none" stroke-linecap="round"></path><path d="M 204.000,198.000 C 194.494,218.824 195.757,219.414 188.000,241.000" stroke-width="6.750" stroke="rgb(33,33,33)" fill="none" stroke-linecap="round"></path><path d="M 188.000,241.000 C 184.257,251.414 184.720,251.584 181.000,262.000" stroke-width="6.750" stroke="rgb(33,33,33)" fill="none" stroke-linecap="round"></path><path d="M 181.000,262.000 C 179.720,265.584 179.326,266.348 178.000,269.000" stroke-width="7.146" stroke="rgb(33,33,33)" fill="none" stroke-linecap="round"></path><path d="M 178.000,269.000 C 177.826,269.348 177.963,268.499 178.000,268.000" stroke-width="8.167" stroke="rgb(33,33,33)" fill="none" stroke-linecap="round"></path><path d="M 178.000,268.000 C 179.463,248.499 178.083,248.296 181.000,229.000" stroke-width="7.659" stroke="rgb(33,33,33)" fill="none" stroke-linecap="round"></path><path d="M 181.000,229.000 C 184.583,205.296 185.759,205.446 191.000,182.000" stroke-width="6.945" stroke="rgb(33,33,33)" fill="none" stroke-linecap="round"></path><path d="M 191.000,182.000 C 195.259,162.946 196.558,163.124 200.000,144.000" stroke-width="6.768" stroke="rgb(33,33,33)" fill="none" stroke-linecap="round"></path><path d="M 200.000,144.000 C 201.058,138.124 202.933,132.628 200.000,132.000" stroke-width="7.405" stroke="rgb(33,33,33)" fill="none" stroke-linecap="round"></path><path d="M 200.000,132.000 C 195.933,131.128 191.557,134.879 186.000,141.000" stroke-width="7.838" stroke="rgb(33,33,33)" fill="none" stroke-linecap="round"></path><path d="M 186.000,141.000 C 157.057,172.879 156.609,173.099 131.000,208.000" stroke-width="6.750" stroke="rgb(33,33,33)" fill="none" stroke-linecap="round"></path><path d="M 131.000,208.000 C 100.109,250.099 101.325,251.067 73.000,295.000" stroke-width="6.750" stroke="rgb(33,33,33)" fill="none" stroke-linecap="round"></path><path d="M 73.000,295.000 C 52.325,327.067 52.285,327.102 33.000,360.000" stroke-width="6.750" stroke="rgb(33,33,33)" fill="none" stroke-linecap="round"></path><path d="M 33.000,360.000 C 26.785,370.602 24.707,375.814 22.000,382.000" stroke-width="6.750" stroke="rgb(33,33,33)" fill="none" stroke-linecap="round"></path><path d="M 22.000,382.000 C 21.207,383.814 24.093,379.060 26.000,376.000" stroke-width="6.750" stroke="rgb(33,33,33)" fill="none" stroke-linecap="round"></path><path d="M 26.000,376.000 C 45.593,344.560 45.250,344.343 65.000,313.000" stroke-width="6.750" stroke="rgb(33,33,33)" fill="none" stroke-linecap="round"></path><path d="M 65.000,313.000 C 91.250,271.343 90.111,270.542 118.000,230.000" stroke-width="6.750" stroke="rgb(33,33,33)" fill="none" stroke-linecap="round"></path><path d="M 118.000,230.000 C 144.111,192.042 144.706,192.378 173.000,156.000" stroke-width="6.750" stroke="rgb(33,33,33)" fill="none" stroke-linecap="round"></path><path d="M 173.000,156.000 C 193.706,129.378 193.969,129.528 216.000,104.000" stroke-width="6.750" stroke="rgb(33,33,33)" fill="none" stroke-linecap="round"></path><path d="M 216.000,104.000 C 225.469,93.028 225.787,93.213 236.000,83.000" stroke-width="6.750" stroke="rgb(33,33,33)" fill="none" stroke-linecap="round"></path><path d="M 236.000,83.000 C 236.787,82.213 238.558,81.151 238.000,82.000" stroke-width="6.750" stroke="rgb(33,33,33)" fill="none" stroke-linecap="round"></path><path d="M 238.000,82.000 C 227.058,98.651 226.054,100.406 213.000,118.000" stroke-width="6.750" stroke="rgb(33,33,33)" fill="none" stroke-linecap="round"></path><path d="M 213.000,118.000 C 191.554,146.906 190.016,145.797 169.000,175.000" stroke-width="6.750" stroke="rgb(33,33,33)" fill="none" stroke-linecap="round"></path><path d="M 169.000,175.000 C 151.516,199.297 151.930,199.656 136.000,225.000" stroke-width="6.750" stroke="rgb(33,33,33)" fill="none" stroke-linecap="round"></path><path d="M 136.000,225.000 C 129.930,234.656 129.790,235.420 125.000,245.000" stroke-width="6.750" stroke="rgb(33,33,33)" fill="none" stroke-linecap="round"></path><path d="M 125.000,245.000 C 124.790,245.420 125.666,245.368 126.000,245.000" stroke-width="6.750" stroke="rgb(33,33,33)" fill="none" stroke-linecap="round"></path><path d="M 126.000,245.000 C 145.166,223.868 145.989,224.309 164.000,202.000" stroke-width="6.750" stroke="rgb(33,33,33)" fill="none" stroke-linecap="round"></path><path d="M 164.000,202.000 C 189.989,169.809 187.863,168.077 214.000,136.000" stroke-width="6.750" stroke="rgb(33,33,33)" fill="none" stroke-linecap="round"></path><path d="M 214.000,136.000 C 242.863,100.577 243.146,100.711 274.000,67.000" stroke-width="6.750" stroke="rgb(33,33,33)" fill="none" stroke-linecap="round"></path><path d="M 274.000,67.000 C 297.146,41.711 298.109,42.605 322.000,18.000" stroke-width="6.750" stroke="rgb(33,33,33)" fill="none" stroke-linecap="round"></path><path d="M 322.000,18.000 C 331.609,8.105 331.350,7.650 341.000,-2.000" stroke-width="6.750" stroke="rgb(33,33,33)" fill="none" stroke-linecap="round"></path><path d="M 286.000,246.000 C 287.500,239.500 288.104,239.569 289.000,233.000" stroke-width="15.985" stroke="rgb(33,33,33)" fill="none" stroke-linecap="round"></path><circle r="6" cx="128" cy="60" fill="rgb(33,33,33)"></circle></svg>