<svg xmlns="http://www.w3.org/2000/svg" xmlns:xlink="http://www.w3.org/1999/xlink" viewBox="0 0 360 500"><path d="M 38.000,152.000 C 41.500,155.000 41.469,155.038 45.000,158.000" stroke-width="19.883" stroke="rgb(33,33,33)" fill="none" stroke-linecap="round"></path><path d="M 45.000,158.000 C 46.635,159.371 47.175,158.910 48.333,160.667" stroke-width="19.015" stroke="rgb(33,33,33)" fill="none" stroke-linecap="round"></path><path d="M 48.333,160.667 C 52.298,166.683 52.179,166.924 55.246,173.546" stroke-width="16.241" stroke="rgb(33,33,33)" fill="none" stroke-linecap="round"></path><path d="M 55.246,173.546 C 58.744,181.100 58.446,181.247 61.463,189.018" stroke-width="14.530" stroke="rgb(33,33,33)" fill="none" stroke-linecap="round"></path><path d="M 61.463,189.018 C 63.095,193.222 63.276,193.177 64.544,197.497" stroke-width="14.411" stroke="rgb(33,33,33)" fill="none" stroke-linecap="round"></path><path d="M 64.544,197.497 C 65.948,202.280 66.059,202.301 66.806,207.225" stroke-width="13.976" stroke="rgb(33,33,33)" fill="none" stroke-linecap="round"></path><path d="M 66.806,207.225 C 67.652,212.802 67.224,212.866 67.731,218.499" stroke-width="13.638" stroke="rgb(33,33,33)" fill="none" stroke-linecap="round"></path><path d="M 67.731,218.499 C 68.064,222.194 68.229,222.182 68.485,225.880" stroke-width="13.482" stroke="rgb(33,33,33)" fill="none" stroke-linecap="round"></path><path d="M 68.485,225.880 C 68.697,228.931 68.854,228.962 68.667,231.997" stroke-width="13.700" stroke="rgb(33,33,33)" fill="none" stroke-linecap="round"></path><path d="M 68.667,231.997 C 68.542,234.037 68.264,234.014 67.861,236.030" stroke-width="14.089" stroke="rgb(33,33,33)" fill="none" stroke-linecap="round"></path><path d="M 67.861,236.030 C 67.461,238.032 68.156,238.595 67.060,240.034" stroke-width="14.486" stroke="rgb(33,33,33)" fill="none" stroke-linecap="round"></path><path d="M 67.060,240.034 C 66.082,241.318 65.428,240.869 63.714,241.476" stroke-width="14.903" stroke="rgb(33,33,33)" fill="none" stroke-linecap="round"></path><path d="M 63.714,241.476 C 61.899,242.119 61.866,242.569 60.003,242.533" stroke-width="15.129" stroke="rgb(33,33,33)" fill="none" stroke-linecap="round"></path><path d="M 60.003,242.533 C 57.648,242.488 57.265,242.579 55.278,241.315" stroke-width="15.205" stroke="rgb(33,33,33)" fill="none" stroke-linecap="round"></path><path d="M 55.278,241.315 C 52.497,239.546 52.620,239.098 50.467,236.467" stroke-width="15.183" stroke="rgb(33,33,33)" fill="none" stroke-linecap="round"></path><path d="M 50.467,236.467 C 48.299,233.819 48.210,233.791 46.636,230.757" stroke-width="14.904" stroke="rgb(33,33,33)" fill="none" stroke-linecap="round"></path><path d="M 46.636,230.757 C 44.976,227.557 45.015,227.473 44.000,224.000" stroke-width="14.700" stroke="rgb(33,33,33)" fill="none" stroke-linecap="round"></path><path d="M 44.000,224.000 C 42.213,217.887 42.354,217.826 41.032,211.584" stroke-width="13.944" stroke="rgb(33,33,33)" fill="none" stroke-linecap="round"></path><path d="M 41.032,211.584 C 40.008,206.749 40.002,206.738 39.308,201.846" stroke-width="13.700" stroke="rgb(33,33,33)" fill="none" stroke-linecap="round"></path><path d="M 39.308,201.846 C 38.747,197.889 38.771,197.876 38.522,193.886" stroke-width="13.598" stroke="rgb(33,33,33)" fill="none" stroke-linecap="round"></path><path d="M 38.522,193.886 C 37.980,185.202 37.900,185.193 37.725,176.498" stroke-width="12.687" stroke="rgb(33,33,33)" fill="none" stroke-linecap="round"></path><path d="M 37.725,176.498 C 37.639,172.250 37.628,172.228 38.000,168.000" stroke-width="12.841" stroke="rgb(33,33,33)" fill="none" stroke-linecap="round"></path><path d="M 38.000,168.000 C 38.370,163.792 38.774,163.831 39.208,159.626" stroke-width="12.920" stroke="rgb(33,33,33)" fill="none" stroke-linecap="round"></path><path d="M 39.208,159.626 C 39.782,154.059 39.614,154.041 40.015,148.455" stroke-width="12.771" stroke="rgb(33,33,33)" fill="none" stroke-linecap="round"></path><path d="M 40.015,148.455 C 40.420,142.815 40.601,142.818 40.821,137.174" stroke-width="12.579" stroke="rgb(33,33,33)" fill="none" stroke-linecap="round"></path><path d="M 40.821,137.174 C 40.927,134.469 40.710,134.465 40.667,131.756" stroke-width="13.132" stroke="rgb(33,33,33)" fill="none" stroke-linecap="round"></path><path d="M 40.667,131.756 C 40.633,129.627 40.667,129.627 40.667,127.498" stroke-width="13.550" stroke="rgb(33,33,33)" fill="none" stroke-linecap="round"></path><path d="M 40.667,127.498 C 40.667,125.440 40.667,125.440 40.667,123.383" stroke-width="14.188" stroke="rgb(33,33,33)" fill="none" stroke-linecap="round"></path><path d="M 40.667,123.383 C 40.667,121.994 40.667,121.994 40.667,120.605" stroke-width="14.428" stroke="rgb(33,33,33)" fill="none" stroke-linecap="round"></path><path d="M 40.667,120.605 C 40.667,119.807 40.667,119.807 40.667,119.009" stroke-width="15.049" stroke="rgb(33,33,33)" fill="none" stroke-linecap="round"></path><path d="M 40.667,119.009 C 40.667,118.714 40.758,118.693 40.667,118.418" stroke-width="15.791" stroke="rgb(33,33,33)" fill="none" stroke-linecap="round"></path><path d="M 40.667,118.418 C 40.425,117.689 40.430,117.386 40.000,117.000" stroke-width="16.222" stroke="rgb(33,33,33)" fill="none" stroke-linecap="round"></path><path d="M 40.000,117.000 C 39.826,116.844 39.619,117.090 39.460,117.333" stroke-width="16.776" stroke="rgb(33,33,33)" fill="none" stroke-linecap="round"></path><path d="M 39.460,117.333 C 39.285,117.600 39.414,117.680 39.333,118.019" stroke-width="17.250" stroke="rgb(33,33,33)" fill="none" stroke-linecap="round"></path><path d="M 39.333,118.019 C 38.946,119.633 38.928,119.629 38.524,121.239" stroke-width="17.188" stroke="rgb(33,33,33)" fill="none" stroke-linecap="round"></path><path d="M 38.524,121.239 C 38.124,122.836 38.008,122.815 37.725,124.433" stroke-width="17.107" stroke="rgb(33,33,33)" fill="none" stroke-linecap="round"></path><path d="M 37.725,124.433 C 37.413,126.217 37.433,126.232 37.333,128.042" stroke-width="17.022" stroke="rgb(33,33,33)" fill="none" stroke-linecap="round"></path><path d="M 37.333,128.042 C 37.237,129.768 37.172,129.787 37.333,131.504" stroke-width="16.982" stroke="rgb(33,33,33)" fill="none" stroke-linecap="round"></path><path d="M 37.333,131.504 C 37.520,133.504 37.439,133.555 38.029,135.477" stroke-width="16.855" stroke="rgb(33,33,33)" fill="none" stroke-linecap="round"></path><path d="M 38.029,135.477 C 39.408,139.969 39.093,140.183 41.272,144.331" stroke-width="15.833" stroke="rgb(33,33,33)" fill="none" stroke-linecap="round"></path><path d="M 41.272,144.331 C 44.301,150.098 44.677,149.950 48.445,155.306" stroke-width="14.701" stroke="rgb(33,33,33)" fill="none" stroke-linecap="round"></path><path d="M 48.445,155.306 C 50.541,158.285 50.722,158.153 53.000,161.000" stroke-width="14.473" stroke="rgb(33,33,33)" fill="none" stroke-linecap="round"></path><path d="M 53.000,161.000 C 55.216,163.769 55.484,163.588 57.432,166.538" stroke-width="14.435" stroke="rgb(33,33,33)" fill="none" stroke-linecap="round"></path><path d="M 57.432,166.538 C 59.930,170.321 59.768,170.445 61.891,174.466" stroke-width="14.168" stroke="rgb(33,33,33)" fill="none" stroke-linecap="round"></path><path d="M 61.891,174.466 C 64.511,179.427 64.509,179.434 66.917,184.501" stroke-width="13.725" stroke="rgb(33,33,33)" fill="none" stroke-linecap="round"></path><path d="M 66.917,184.501 C 68.890,188.653 68.676,188.755 70.653,192.904" stroke-width="13.473" stroke="rgb(33,33,33)" fill="none" stroke-linecap="round"></path><path d="M 70.653,192.904 C 72.074,195.885 72.362,195.751 73.714,198.761" stroke-width="13.681" stroke="rgb(33,33,33)" fill="none" stroke-linecap="round"></path><path d="M 73.714,198.761 C 75.495,202.728 75.429,202.768 76.918,206.858" stroke-width="13.622" stroke="rgb(33,33,33)" fill="none" stroke-linecap="round"></path><path d="M 76.918,206.858 C 78.612,211.508 78.507,211.547 80.080,216.241" stroke-width="13.607" stroke="rgb(33,33,33)" fill="none" stroke-linecap="round"></path><path d="M 80.080,216.241 C 81.741,221.197 81.543,221.276 83.386,226.159" stroke-width="13.150" stroke="rgb(33,33,33)" fill="none" stroke-linecap="round"></path><path d="M 83.386,226.159 C 84.270,228.501 84.297,228.521 85.534,230.690" stroke-width="13.511" stroke="rgb(33,33,33)" fill="none" stroke-linecap="round"></path><path d="M 85.534,230.690 C 86.437,232.275 86.757,232.088 87.667,233.667" stroke-width="14.042" stroke="rgb(33,33,33)" fill="none" stroke-linecap="round"></path><path d="M 87.667,233.667 C 88.563,235.222 88.382,235.324 89.145,236.958" stroke-width="14.529" stroke="rgb(33,33,33)" fill="none" stroke-linecap="round"></path><path d="M 89.145,236.958 C 89.574,237.875 89.456,237.968 90.051,238.769" stroke-width="15.089" stroke="rgb(33,33,33)" fill="none" stroke-linecap="round"></path><path d="M 90.051,238.769 C 90.691,239.630 90.840,239.519 91.615,240.282" stroke-width="15.586" stroke="rgb(33,33,33)" fill="none" stroke-linecap="round"></path><path d="M 91.615,240.282 C 92.474,241.128 92.429,241.182 93.320,241.987" stroke-width="16.042" stroke="rgb(33,33,33)" fill="none" stroke-linecap="round"></path><path d="M 93.320,241.987 C 93.628,242.265 93.643,242.262 94.014,242.449" stroke-width="16.547" stroke="rgb(33,33,33)" fill="none" stroke-linecap="round"></path><path d="M 94.014,242.449 C 94.893,242.891 94.893,242.938 95.821,243.244" stroke-width="16.823" stroke="rgb(33,33,33)" fill="none" stroke-linecap="round"></path><path d="M 95.821,243.244 C 96.233,243.380 96.256,243.310 96.693,243.333" stroke-width="17.259" stroke="rgb(33,33,33)" fill="none" stroke-linecap="round"></path><path d="M 96.693,243.333 C 97.088,243.354 97.090,243.333 97.486,243.333" stroke-width="17.640" stroke="rgb(33,33,33)" fill="none" stroke-linecap="round"></path><path d="M 97.486,243.333 C 97.839,243.333 98.059,243.624 98.192,243.333" stroke-width="18.036" stroke="rgb(33,33,33)" fill="none" stroke-linecap="round"></path><path d="M 98.192,243.333 C 98.987,241.602 99.086,241.356 99.342,239.290" stroke-width="18.033" stroke="rgb(33,33,33)" fill="none" stroke-linecap="round"></path><path d="M 99.342,239.290 C 99.657,236.744 99.336,236.700 99.333,234.109" stroke-width="17.410" stroke="rgb(33,33,33)" fill="none" stroke-linecap="round"></path><path d="M 99.333,234.109 C 99.331,232.074 99.333,232.074 99.333,230.038" stroke-width="17.223" stroke="rgb(33,33,33)" fill="none" stroke-linecap="round"></path><path d="M 99.333,230.038 C 99.333,225.781 99.333,225.781 99.333,221.523" stroke-width="16.239" stroke="rgb(33,33,33)" fill="none" stroke-linecap="round"></path><path d="M 99.333,221.523 C 99.333,216.733 99.529,216.723 99.333,211.942" stroke-width="15.371" stroke="rgb(33,33,33)" fill="none" stroke-linecap="round"></path><path d="M 99.333,211.942 C 99.176,208.112 99.084,208.109 98.626,204.300" stroke-width="15.423" stroke="rgb(33,33,33)" fill="none" stroke-linecap="round"></path><path d="M 98.626,204.300 C 98.087,199.817 98.133,199.804 97.338,195.359" stroke-width="15.276" stroke="rgb(33,33,33)" fill="none" stroke-linecap="round"></path><path d="M 97.338,195.359 C 96.019,187.983 96.259,187.901 94.398,180.658" stroke-width="11.990" stroke="rgb(33,33,33)" fill="none" stroke-linecap="round"></path><path d="M 94.398,180.658 C 93.261,176.233 92.787,176.368 91.341,172.023" stroke-width="11.676" stroke="rgb(33,33,33)" fill="none" stroke-linecap="round"></path><path d="M 91.341,172.023 C 89.791,167.367 89.715,167.384 88.407,162.655" stroke-width="11.936" stroke="rgb(33,33,33)" fill="none" stroke-linecap="round"></path><path d="M 88.407,162.655 C 86.236,154.807 86.264,154.792 84.384,146.868" stroke-width="11.412" stroke="rgb(33,33,33)" fill="none" stroke-linecap="round"></path><path d="M 84.384,146.868 C 83.165,141.729 83.390,141.676 82.209,136.529" stroke-width="11.612" stroke="rgb(33,33,33)" fill="none" stroke-linecap="round"></path><path d="M 82.209,136.529 C 81.531,133.576 81.393,133.609 80.667,130.667" stroke-width="12.181" stroke="rgb(33,33,33)" fill="none" stroke-linecap="round"></path><path d="M 80.667,130.667 C 80.063,128.219 80.080,128.214 79.550,125.749" stroke-width="12.641" stroke="rgb(33,33,33)" fill="none" stroke-linecap="round"></path><path d="M 79.550,125.749 C 79.118,123.740 79.230,123.712 78.744,121.718" stroke-width="13.280" stroke="rgb(33,33,33)" fill="none" stroke-linecap="round"></path><path d="M 78.744,121.718 C 78.430,120.430 78.154,120.478 77.950,119.184" stroke-width="13.891" stroke="rgb(33,33,33)" fill="none" stroke-linecap="round"></path><path d="M 77.950,119.184 C 77.782,118.119 78.326,117.749 78.000,117.000" stroke-width="14.548" stroke="rgb(33,33,33)" fill="none" stroke-linecap="round"></path><path d="M 78.000,117.000 C 77.851,116.657 77.312,117.220 77.000,117.000" stroke-width="15.300" stroke="rgb(33,33,33)" fill="none" stroke-linecap="round"></path><path d="M 77.000,117.000 C 76.750,116.824 76.958,116.600 76.876,116.209" stroke-width="15.941" stroke="rgb(33,33,33)" fill="none" stroke-linecap="round"></path><path d="M 76.876,116.209 C 76.791,115.804 76.720,115.815 76.667,115.407" stroke-width="16.517" stroke="rgb(33,33,33)" fill="none" stroke-linecap="round"></path><path d="M 76.667,115.407 C 76.616,115.015 76.667,114.393 76.667,114.609" stroke-width="16.996" stroke="rgb(33,33,33)" fill="none" stroke-linecap="round"></path><path d="M 76.667,114.609 C 76.667,115.333 76.536,115.957 76.667,117.287" stroke-width="17.065" stroke="rgb(33,33,33)" fill="none" stroke-linecap="round"></path><path d="M 76.667,117.287 C 77.020,120.857 76.223,121.263 77.635,124.410" stroke-width="16.475" stroke="rgb(33,33,33)" fill="none" stroke-linecap="round"></path><path d="M 77.635,124.410 C 79.066,127.599 80.298,126.971 82.352,129.959" stroke-width="16.121" stroke="rgb(33,33,33)" fill="none" stroke-linecap="round"></path><path d="M 82.352,129.959 C 84.949,133.736 85.063,133.752 86.937,137.941" stroke-width="14.908" stroke="rgb(33,33,33)" fill="none" stroke-linecap="round"></path><path d="M 86.937,137.941 C 90.087,144.983 89.410,145.297 92.400,152.420" stroke-width="13.787" stroke="rgb(33,33,33)" fill="none" stroke-linecap="round"></path><path d="M 92.400,152.420 C 93.683,155.477 94.225,155.239 95.484,158.302" stroke-width="13.935" stroke="rgb(33,33,33)" fill="none" stroke-linecap="round"></path><path d="M 95.484,158.302 C 97.359,162.863 97.114,162.972 98.667,167.667" stroke-width="13.693" stroke="rgb(33,33,33)" fill="none" stroke-linecap="round"></path><path d="M 98.667,167.667 C 100.259,172.482 100.065,172.551 101.774,177.323" stroke-width="13.337" stroke="rgb(33,33,33)" fill="none" stroke-linecap="round"></path><path d="M 101.774,177.323 C 103.547,182.274 103.441,182.339 105.631,187.114" stroke-width="13.162" stroke="rgb(33,33,33)" fill="none" stroke-linecap="round"></path><path d="M 105.631,187.114 C 107.665,191.548 107.516,191.700 110.222,195.741" stroke-width="13.100" stroke="rgb(33,33,33)" fill="none" stroke-linecap="round"></path><path d="M 110.222,195.741 C 113.175,200.152 113.584,199.880 116.948,204.018" stroke-width="12.899" stroke="rgb(33,33,33)" fill="none" stroke-linecap="round"></path><path d="M 116.948,204.018 C 118.973,206.510 118.991,206.496 121.000,209.000" stroke-width="13.222" stroke="rgb(33,33,33)" fill="none" stroke-linecap="round"></path><path d="M 121.000,209.000 C 122.794,211.237 122.717,211.301 124.555,213.500" stroke-width="13.528" stroke="rgb(33,33,33)" fill="none" stroke-linecap="round"></path><path d="M 124.555,213.500 C 126.114,215.365 126.134,215.353 127.795,217.129" stroke-width="13.951" stroke="rgb(33,33,33)" fill="none" stroke-linecap="round"></path><path d="M 127.795,217.129 C 128.952,218.365 128.887,218.458 130.191,219.524" stroke-width="14.427" stroke="rgb(33,33,33)" fill="none" stroke-linecap="round"></path><path d="M 130.191,219.524 C 131.311,220.441 131.479,220.609 132.643,221.095" stroke-width="14.898" stroke="rgb(33,33,33)" fill="none" stroke-linecap="round"></path><path d="M 132.643,221.095 C 132.849,221.181 132.774,220.871 132.930,220.667" stroke-width="15.660" stroke="rgb(33,33,33)" fill="none" stroke-linecap="round"></path><path d="M 132.930,220.667 C 133.119,220.421 133.141,220.438 133.333,220.194" stroke-width="16.301" stroke="rgb(33,33,33)" fill="none" stroke-linecap="round"></path><path d="M 133.333,220.194 C 133.633,219.813 133.678,219.840 133.915,219.418" stroke-width="16.792" stroke="rgb(33,33,33)" fill="none" stroke-linecap="round"></path><path d="M 133.915,219.418 C 134.745,217.942 134.845,217.972 135.467,216.399" stroke-width="16.809" stroke="rgb(33,33,33)" fill="none" stroke-linecap="round"></path><path d="M 135.467,216.399 C 136.440,213.938 136.348,213.892 137.106,211.348" stroke-width="16.561" stroke="rgb(33,33,33)" fill="none" stroke-linecap="round"></path><path d="M 137.106,211.348 C 137.945,208.534 138.153,208.563 138.662,205.684" stroke-width="16.116" stroke="rgb(33,33,33)" fill="none" stroke-linecap="round"></path><path d="M 138.662,205.684 C 139.160,202.862 138.760,202.797 139.120,199.946" stroke-width="15.855" stroke="rgb(33,33,33)" fill="none" stroke-linecap="round"></path><path d="M 139.120,199.946 C 139.387,197.828 139.709,197.866 139.917,195.746" stroke-width="15.919" stroke="rgb(33,33,33)" fill="none" stroke-linecap="round"></path><path d="M 139.917,195.746 C 140.149,193.393 139.971,193.373 140.000,191.000" stroke-width="15.858" stroke="rgb(33,33,33)" fill="none" stroke-linecap="round"></path><path d="M 140.000,191.000 C 140.012,190.000 140.000,190.000 140.000,189.000" stroke-width="16.245" stroke="rgb(33,33,33)" fill="none" stroke-linecap="round"></path><path d="M 140.000,189.000 C 140.000,187.500 140.000,187.500 140.000,186.000" stroke-width="16.479" stroke="rgb(33,33,33)" fill="none" stroke-linecap="round"></path><path d="M 140.000,186.000 C 140.000,185.000 140.000,185.000 140.000,184.000" stroke-width="16.762" stroke="rgb(33,33,33)" fill="none" stroke-linecap="round"></path><path d="M 140.000,184.000 C 140.000,183.500 140.000,183.500 140.000,183.000" stroke-width="17.176" stroke="rgb(33,33,33)" fill="none" stroke-linecap="round"></path><path d="M 140.000,183.000 C 140.000,182.500 140.000,182.500 140.000,182.000" stroke-width="17.522" stroke="rgb(33,33,33)" fill="none" stroke-linecap="round"></path><path d="M 140.000,182.000 C 140.000,181.500 139.873,180.909 140.000,181.000" stroke-width="17.914" stroke="rgb(33,33,33)" fill="none" stroke-linecap="round"></path><path d="M 140.000,181.000 C 140.206,181.149 140.248,181.788 140.667,182.480" stroke-width="18.071" stroke="rgb(33,33,33)" fill="none" stroke-linecap="round"></path><path d="M 140.667,182.480 C 141.473,183.810 141.427,183.870 142.449,185.043" stroke-width="17.694" stroke="rgb(33,33,33)" fill="none" stroke-linecap="round"></path><path d="M 142.449,185.043 C 144.322,187.192 144.662,186.911 146.458,189.124" stroke-width="17.059" stroke="rgb(33,33,33)" fill="none" stroke-linecap="round"></path><path d="M 146.458,189.124 C 148.669,191.848 148.317,192.133 150.464,194.917" stroke-width="16.361" stroke="rgb(33,33,33)" fill="none" stroke-linecap="round"></path><path d="M 150.464,194.917 C 152.254,197.238 152.227,197.313 154.333,199.333" stroke-width="16.130" stroke="rgb(33,33,33)" fill="none" stroke-linecap="round"></path><path d="M 154.333,199.333 C 155.646,200.593 155.828,200.391 157.302,201.477" stroke-width="16.159" stroke="rgb(33,33,33)" fill="none" stroke-linecap="round"></path><path d="M 157.302,201.477 C 158.875,202.635 158.781,202.782 160.427,203.820" stroke-width="16.220" stroke="rgb(33,33,33)" fill="none" stroke-linecap="round"></path><path d="M 160.427,203.820 C 161.992,204.808 162.001,204.883 163.725,205.529" stroke-width="16.298" stroke="rgb(33,33,33)" fill="none" stroke-linecap="round"></path><path d="M 163.725,205.529 C 165.148,206.063 165.292,205.688 166.721,206.180" stroke-width="16.535" stroke="rgb(33,33,33)" fill="none" stroke-linecap="round"></path><path d="M 166.721,206.180 C 167.429,206.424 167.458,207.001 168.000,207.000" stroke-width="16.875" stroke="rgb(33,33,33)" fill="none" stroke-linecap="round"></path><path d="M 168.000,207.000 C 168.342,207.000 168.208,206.565 168.489,206.178" stroke-width="17.254" stroke="rgb(33,33,33)" fill="none" stroke-linecap="round"></path><path d="M 168.489,206.178 C 169.450,204.854 169.693,204.998 170.483,203.578" stroke-width="17.283" stroke="rgb(33,33,33)" fill="none" stroke-linecap="round"></path><path d="M 170.483,203.578 C 171.542,201.675 171.851,201.650 172.187,199.532" stroke-width="16.874" stroke="rgb(33,33,33)" fill="none" stroke-linecap="round"></path><path d="M 172.187,199.532 C 172.610,196.861 172.045,196.767 172.000,194.000" stroke-width="16.474" stroke="rgb(33,33,33)" fill="none" stroke-linecap="round"></path><path d="M 172.000,194.000 C 171.951,191.001 172.666,190.891 172.000,188.000" stroke-width="16.149" stroke="rgb(33,33,33)" fill="none" stroke-linecap="round"></path><path d="M 172.000,188.000 C 170.467,181.347 170.148,181.315 167.602,174.911" stroke-width="14.719" stroke="rgb(33,33,33)" fill="none" stroke-linecap="round"></path><path d="M 167.602,174.911 C 165.622,169.929 165.476,169.960 162.948,165.229" stroke-width="14.324" stroke="rgb(33,33,33)" fill="none" stroke-linecap="round"></path><path d="M 162.948,165.229 C 161.149,161.862 160.611,162.142 158.947,158.715" stroke-width="14.195" stroke="rgb(33,33,33)" fill="none" stroke-linecap="round"></path><path d="M 158.947,158.715 C 156.534,153.747 156.649,153.653 154.794,148.440" stroke-width="13.600" stroke="rgb(33,33,33)" fill="none" stroke-linecap="round"></path><path d="M 154.794,148.440 C 153.675,145.295 153.775,145.249 153.000,142.000" stroke-width="13.731" stroke="rgb(33,33,33)" fill="none" stroke-linecap="round"></path><path d="M 153.000,142.000 C 152.228,138.763 152.541,138.681 151.700,135.467" stroke-width="13.966" stroke="rgb(33,33,33)" fill="none" stroke-linecap="round"></path><path d="M 151.700,135.467 C 151.093,133.146 150.894,133.201 150.105,130.930" stroke-width="14.260" stroke="rgb(33,33,33)" fill="none" stroke-linecap="round"></path><path d="M 150.105,130.930 C 149.659,129.645 149.404,129.681 149.229,128.354" stroke-width="14.756" stroke="rgb(33,33,33)" fill="none" stroke-linecap="round"></path><path d="M 149.229,128.354 C 149.018,126.758 149.670,126.365 149.333,125.083" stroke-width="15.126" stroke="rgb(33,33,33)" fill="none" stroke-linecap="round"></path><path d="M 149.333,125.083 C 149.232,124.698 148.525,125.256 148.352,125.019" stroke-width="15.789" stroke="rgb(33,33,33)" fill="none" stroke-linecap="round"></path><path d="M 148.352,125.019 C 148.192,124.800 148.566,124.605 148.667,124.171" stroke-width="16.374" stroke="rgb(33,33,33)" fill="none" stroke-linecap="round"></path><path d="M 148.667,124.171 C 148.723,123.929 148.577,123.497 148.667,123.667" stroke-width="16.954" stroke="rgb(33,33,33)" fill="none" stroke-linecap="round"></path><path d="M 148.667,123.667 C 149.295,124.849 149.112,125.443 150.104,126.875" stroke-width="16.795" stroke="rgb(33,33,33)" fill="none" stroke-linecap="round"></path><path d="M 150.104,126.875 C 151.988,129.594 152.141,129.536 154.419,131.969" stroke-width="16.153" stroke="rgb(33,33,33)" fill="none" stroke-linecap="round"></path><path d="M 154.419,131.969 C 156.256,133.932 156.702,133.548 158.333,135.667" stroke-width="16.037" stroke="rgb(33,33,33)" fill="none" stroke-linecap="round"></path><path d="M 158.333,135.667 C 161.317,139.545 161.226,139.681 163.648,143.963" stroke-width="15.095" stroke="rgb(33,33,33)" fill="none" stroke-linecap="round"></path><path d="M 163.648,143.963 C 166.263,148.588 165.937,148.770 168.407,153.481" stroke-width="14.481" stroke="rgb(33,33,33)" fill="none" stroke-linecap="round"></path><path d="M 168.407,153.481 C 169.934,156.393 170.109,156.301 171.643,159.209" stroke-width="14.454" stroke="rgb(33,33,33)" fill="none" stroke-linecap="round"></path><path d="M 171.643,159.209 C 173.305,162.361 172.815,162.689 174.800,165.601" stroke-width="14.416" stroke="rgb(33,33,33)" fill="none" stroke-linecap="round"></path><path d="M 174.800,165.601 C 176.493,168.085 176.855,167.845 179.000,170.000" stroke-width="14.513" stroke="rgb(33,33,33)" fill="none" stroke-linecap="round"></path><path d="M 179.000,170.000 C 181.594,172.605 181.635,172.565 184.278,175.121" stroke-width="14.381" stroke="rgb(33,33,33)" fill="none" stroke-linecap="round"></path><path d="M 184.278,175.121 C 186.675,177.438 186.598,177.526 189.080,179.747" stroke-width="14.363" stroke="rgb(33,33,33)" fill="none" stroke-linecap="round"></path><path d="M 189.080,179.747 C 190.995,181.461 191.047,181.407 193.073,182.992" stroke-width="14.585" stroke="rgb(33,33,33)" fill="none" stroke-linecap="round"></path><path d="M 193.073,182.992 C 194.613,184.197 194.537,184.343 196.212,185.326" stroke-width="14.925" stroke="rgb(33,33,33)" fill="none" stroke-linecap="round"></path><path d="M 196.212,185.326 C 197.667,186.180 197.705,186.327 199.333,186.667" stroke-width="15.250" stroke="rgb(33,33,33)" fill="none" stroke-linecap="round"></path><path d="M 199.333,186.667 C 200.912,186.997 200.980,186.667 202.627,186.667" stroke-width="15.613" stroke="rgb(33,33,33)" fill="none" stroke-linecap="round"></path><path d="M 202.627,186.667 C 203.902,186.667 203.931,186.856 205.177,186.667" stroke-width="15.952" stroke="rgb(33,33,33)" fill="none" stroke-linecap="round"></path><path d="M 205.177,186.667 C 206.409,186.480 206.473,186.481 207.584,185.916" stroke-width="16.238" stroke="rgb(33,33,33)" fill="none" stroke-linecap="round"></path><path d="M 207.584,185.916 C 208.909,185.242 208.765,184.960 210.048,184.190" stroke-width="16.360" stroke="rgb(33,33,33)" fill="none" stroke-linecap="round"></path><path d="M 210.048,184.190 C 210.640,183.835 210.757,184.041 211.333,183.667" stroke-width="16.784" stroke="rgb(33,33,33)" fill="none" stroke-linecap="round"></path><path d="M 211.333,183.667 C 212.317,183.029 212.422,183.021 213.167,182.166" stroke-width="16.948" stroke="rgb(33,33,33)" fill="none" stroke-linecap="round"></path><path d="M 213.167,182.166 C 213.422,181.873 213.136,181.709 213.333,181.372" stroke-width="17.383" stroke="rgb(33,33,33)" fill="none" stroke-linecap="round"></path><path d="M 213.333,181.372 C 213.608,180.903 213.972,181.052 214.112,180.554" stroke-width="17.670" stroke="rgb(33,33,33)" fill="none" stroke-linecap="round"></path><path d="M 214.112,180.554 C 214.305,179.866 213.730,179.473 214.000,179.000" stroke-width="17.839" stroke="rgb(33,33,33)" fill="none" stroke-linecap="round"></path><path d="M 214.000,179.000 C 214.174,178.696 214.882,179.317 215.000,179.000" stroke-width="18.093" stroke="rgb(33,33,33)" fill="none" stroke-linecap="round"></path><path d="M 215.000,179.000 C 215.215,178.422 214.722,178.115 214.667,177.210" stroke-width="18.132" stroke="rgb(33,33,33)" fill="none" stroke-linecap="round"></path><path d="M 214.667,177.210 C 214.555,175.350 214.832,175.327 214.667,173.470" stroke-width="17.712" stroke="rgb(33,33,33)" fill="none" stroke-linecap="round"></path><path d="M 214.667,173.470 C 214.464,171.184 214.343,171.189 213.932,168.924" stroke-width="17.219" stroke="rgb(33,33,33)" fill="none" stroke-linecap="round"></path><path d="M 213.932,168.924 C 213.551,166.828 213.654,166.793 213.083,164.748" stroke-width="17.003" stroke="rgb(33,33,33)" fill="none" stroke-linecap="round"></path><path d="M 213.083,164.748 C 212.688,163.331 212.360,163.422 212.000,162.000" stroke-width="17.080" stroke="rgb(33,33,33)" fill="none" stroke-linecap="round"></path><path d="M 212.000,162.000 C 211.570,160.301 211.725,160.257 211.502,158.507" stroke-width="16.938" stroke="rgb(33,33,33)" fill="none" stroke-linecap="round"></path><path d="M 211.502,158.507 C 211.391,157.635 211.618,157.544 211.333,156.757" stroke-width="17.220" stroke="rgb(33,33,33)" fill="none" stroke-linecap="round"></path><path d="M 211.333,156.757 C 211.144,156.234 210.751,156.381 210.554,155.887" stroke-width="17.512" stroke="rgb(33,33,33)" fill="none" stroke-linecap="round"></path><path d="M 210.554,155.887 C 210.418,155.546 210.841,155.392 210.667,155.087" stroke-width="17.848" stroke="rgb(33,33,33)" fill="none" stroke-linecap="round"></path><path d="M 210.667,155.087 C 210.397,154.615 210.016,154.806 209.667,154.333" stroke-width="18.055" stroke="rgb(33,33,33)" fill="none" stroke-linecap="round"></path><path d="M 209.667,154.333 C 209.427,154.008 209.577,153.912 209.490,153.490" stroke-width="18.264" stroke="rgb(33,33,33)" fill="none" stroke-linecap="round"></path><path d="M 209.490,153.490 C 209.410,153.097 209.569,152.914 209.333,152.704" stroke-width="18.469" stroke="rgb(33,33,33)" fill="none" stroke-linecap="round"></path><path d="M 209.333,152.704 C 209.108,152.503 208.705,152.365 208.568,152.667" stroke-width="18.644" stroke="rgb(33,33,33)" fill="none" stroke-linecap="round"></path><path d="M 208.568,152.667 C 207.953,154.022 208.192,154.341 207.829,156.018" stroke-width="18.583" stroke="rgb(33,33,33)" fill="none" stroke-linecap="round"></path><path d="M 207.829,156.018 C 207.328,158.330 207.366,158.339 206.839,160.645" stroke-width="17.906" stroke="rgb(33,33,33)" fill="none" stroke-linecap="round"></path><path d="M 206.839,160.645 C 206.479,162.219 206.303,162.192 206.055,163.778" stroke-width="17.721" stroke="rgb(33,33,33)" fill="none" stroke-linecap="round"></path><path d="M 206.055,163.778 C 205.884,164.870 206.027,164.889 206.000,166.000" stroke-width="17.733" stroke="rgb(33,33,33)" fill="none" stroke-linecap="round"></path><path d="M 206.000,166.000 C 206.000,166.000 206.000,166.000 206.000,166.000" stroke-width="18.185" stroke="rgb(33,33,33)" fill="none" stroke-linecap="round"></path><path d="M 206.000,166.000 C 207.000,167.000 207.211,166.858 208.000,168.000" stroke-width="18.044" stroke="rgb(33,33,33)" fill="none" stroke-linecap="round"></path><path d="M 208.000,168.000 C 208.703,169.017 208.269,169.310 208.985,170.318" stroke-width="17.898" stroke="rgb(33,33,33)" fill="none" stroke-linecap="round"></path><path d="M 208.985,170.318 C 209.899,171.606 210.122,171.456 211.260,172.593" stroke-width="17.750" stroke="rgb(33,33,33)" fill="none" stroke-linecap="round"></path><path d="M 211.260,172.593 C 212.411,173.745 212.188,174.093 213.563,174.896" stroke-width="17.469" stroke="rgb(33,33,33)" fill="none" stroke-linecap="round"></path><path d="M 213.563,174.896 C 215.567,176.067 215.829,175.628 218.018,176.541" stroke-width="17.007" stroke="rgb(33,33,33)" fill="none" stroke-linecap="round"></path><path d="M 218.018,176.541 C 219.548,177.180 219.480,177.335 221.000,178.000" stroke-width="17.025" stroke="rgb(33,33,33)" fill="none" stroke-linecap="round"></path><path d="M 221.000,178.000 C 223.043,178.893 223.040,178.920 225.143,179.657" stroke-width="16.818" stroke="rgb(33,33,33)" fill="none" stroke-linecap="round"></path><path d="M 225.143,179.657 C 226.770,180.227 226.794,180.165 228.460,180.615" stroke-width="16.746" stroke="rgb(33,33,33)" fill="none" stroke-linecap="round"></path><path d="M 228.460,180.615 C 230.049,181.043 230.253,181.491 231.653,181.413" stroke-width="16.789" stroke="rgb(33,33,33)" fill="none" stroke-linecap="round"></path><path d="M 231.653,181.413 C 232.155,181.385 231.976,180.918 232.263,180.403" stroke-width="17.179" stroke="rgb(33,33,33)" fill="none" stroke-linecap="round"></path><path d="M 232.263,180.403 C 232.649,179.711 232.856,179.768 233.000,179.000" stroke-width="17.414" stroke="rgb(33,33,33)" fill="none" stroke-linecap="round"></path><path d="M 233.000,179.000 C 233.473,176.468 233.694,176.377 233.496,173.803" stroke-width="16.993" stroke="rgb(33,33,33)" fill="none" stroke-linecap="round"></path><path d="M 233.496,173.803 C 233.233,170.385 233.032,170.340 232.078,167.017" stroke-width="16.398" stroke="rgb(33,33,33)" fill="none" stroke-linecap="round"></path><path d="M 232.078,167.017 C 231.104,163.624 230.851,163.697 229.639,160.371" stroke-width="16.040" stroke="rgb(33,33,33)" fill="none" stroke-linecap="round"></path><path d="M 229.639,160.371 C 227.983,155.826 228.041,155.805 226.343,151.276" stroke-width="15.124" stroke="rgb(33,33,33)" fill="none" stroke-linecap="round"></path><path d="M 226.343,151.276 C 224.222,145.619 223.994,145.698 222.000,140.000" stroke-width="14.026" stroke="rgb(33,33,33)" fill="none" stroke-linecap="round"></path><path d="M 222.000,140.000 C 220.725,136.357 221.077,136.235 219.806,132.593" stroke-width="14.005" stroke="rgb(33,33,33)" fill="none" stroke-linecap="round"></path><path d="M 219.806,132.593 C 218.780,129.653 218.693,129.675 217.406,126.836" stroke-width="14.160" stroke="rgb(33,33,33)" fill="none" stroke-linecap="round"></path><path d="M 217.406,126.836 C 216.322,124.444 216.154,124.521 215.065,122.131" stroke-width="14.403" stroke="rgb(33,33,33)" fill="none" stroke-linecap="round"></path><path d="M 215.065,122.131 C 213.764,119.278 213.550,119.335 212.626,116.350" stroke-width="14.432" stroke="rgb(33,33,33)" fill="none" stroke-linecap="round"></path><path d="M 212.626,116.350 C 211.517,112.769 211.525,112.711 211.000,109.000" stroke-width="14.351" stroke="rgb(33,33,33)" fill="none" stroke-linecap="round"></path><path d="M 211.000,109.000 C 210.625,106.349 211.141,106.278 210.827,103.626" stroke-width="14.505" stroke="rgb(33,33,33)" fill="none" stroke-linecap="round"></path><path d="M 210.827,103.626 C 210.652,102.145 210.284,102.200 210.022,100.734" stroke-width="14.951" stroke="rgb(33,33,33)" fill="none" stroke-linecap="round"></path><path d="M 210.022,100.734 C 209.871,99.887 210.003,98.657 210.000,99.000" stroke-width="15.544" stroke="rgb(33,33,33)" fill="none" stroke-linecap="round"></path><path d="M 210.000,99.000 C 209.992,99.790 209.874,101.007 210.000,103.000" stroke-width="16.086" stroke="rgb(33,33,33)" fill="none" stroke-linecap="round"></path><path d="M 210.000,103.000 C 210.195,106.075 210.512,106.058 210.642,109.136" stroke-width="15.874" stroke="rgb(33,33,33)" fill="none" stroke-linecap="round"></path><path d="M 210.642,109.136 C 210.845,113.935 210.660,113.945 210.667,118.754" stroke-width="15.255" stroke="rgb(33,33,33)" fill="none" stroke-linecap="round"></path><path d="M 210.667,118.754 C 210.672,122.250 210.411,122.269 210.667,125.746" stroke-width="14.943" stroke="rgb(33,33,33)" fill="none" stroke-linecap="round"></path><path d="M 210.667,125.746 C 210.911,129.059 210.725,129.156 211.667,132.333" stroke-width="14.992" stroke="rgb(33,33,33)" fill="none" stroke-linecap="round"></path><path d="M 211.667,132.333 C 213.387,138.139 213.394,138.233 215.991,143.712" stroke-width="14.034" stroke="rgb(33,33,33)" fill="none" stroke-linecap="round"></path><path d="M 215.991,143.712 C 218.171,148.311 218.209,148.408 221.221,152.490" stroke-width="13.586" stroke="rgb(33,33,33)" fill="none" stroke-linecap="round"></path><path d="M 221.221,152.490 C 223.294,155.299 223.683,155.000 226.160,157.494" stroke-width="13.679" stroke="rgb(33,33,33)" fill="none" stroke-linecap="round"></path><path d="M 226.160,157.494 C 228.465,159.814 228.233,160.122 230.785,162.118" stroke-width="13.858" stroke="rgb(33,33,33)" fill="none" stroke-linecap="round"></path><path d="M 230.785,162.118 C 232.819,163.709 232.959,163.669 235.333,164.667" stroke-width="14.120" stroke="rgb(33,33,33)" fill="none" stroke-linecap="round"></path><path d="M 235.333,164.667 C 236.610,165.204 236.707,165.189 238.088,165.189" stroke-width="14.649" stroke="rgb(33,33,33)" fill="none" stroke-linecap="round"></path><path d="M 238.088,165.189 C 239.706,165.189 240.039,165.441 241.331,164.667" stroke-width="15.061" stroke="rgb(33,33,33)" fill="none" stroke-linecap="round"></path><path d="M 241.331,164.667 C 242.451,163.996 242.219,163.538 242.913,162.298" stroke-width="15.468" stroke="rgb(33,33,33)" fill="none" stroke-linecap="round"></path><path d="M 242.913,162.298 C 243.801,160.710 243.927,160.725 244.495,159.010" stroke-width="15.814" stroke="rgb(33,33,33)" fill="none" stroke-linecap="round"></path><path d="M 244.495,159.010 C 244.970,157.576 244.583,157.461 245.000,156.000" stroke-width="15.879" stroke="rgb(33,33,33)" fill="none" stroke-linecap="round"></path><path d="M 245.000,156.000 C 245.597,153.908 245.802,153.966 246.524,151.904" stroke-width="15.839" stroke="rgb(33,33,33)" fill="none" stroke-linecap="round"></path><path d="M 246.524,151.904 C 246.962,150.652 247.005,150.659 247.320,149.372" stroke-width="16.171" stroke="rgb(33,33,33)" fill="none" stroke-linecap="round"></path><path d="M 247.320,149.372 C 247.815,147.348 247.448,147.220 248.144,145.282" stroke-width="16.149" stroke="rgb(33,33,33)" fill="none" stroke-linecap="round"></path><path d="M 248.144,145.282 C 248.732,143.646 249.183,143.819 249.888,142.224" stroke-width="16.237" stroke="rgb(33,33,33)" fill="none" stroke-linecap="round"></path><path d="M 249.888,142.224 C 250.277,141.344 249.678,140.915 250.333,140.333" stroke-width="16.590" stroke="rgb(33,33,33)" fill="none" stroke-linecap="round"></path><path d="M 250.333,140.333 C 251.526,139.274 251.889,139.349 253.585,138.943" stroke-width="16.589" stroke="rgb(33,33,33)" fill="none" stroke-linecap="round"></path><path d="M 253.585,138.943 C 255.370,138.516 255.464,138.528 257.296,138.667" stroke-width="16.557" stroke="rgb(33,33,33)" fill="none" stroke-linecap="round"></path><path d="M 257.296,138.667 C 258.944,138.792 259.000,138.862 260.545,139.470" stroke-width="16.685" stroke="rgb(33,33,33)" fill="none" stroke-linecap="round"></path><path d="M 260.545,139.470 C 262.218,140.128 262.125,140.360 263.731,141.199" stroke-width="16.608" stroke="rgb(33,33,33)" fill="none" stroke-linecap="round"></path><path d="M 263.731,141.199 C 265.186,141.959 265.214,141.903 266.667,142.667" stroke-width="16.647" stroke="rgb(33,33,33)" fill="none" stroke-linecap="round"></path><path d="M 266.667,142.667 C 268.709,143.741 268.695,143.769 270.721,144.874" stroke-width="16.452" stroke="rgb(33,33,33)" fill="none" stroke-linecap="round"></path><path d="M 270.721,144.874 C 272.380,145.778 272.300,145.983 274.037,146.685" stroke-width="16.538" stroke="rgb(33,33,33)" fill="none" stroke-linecap="round"></path><path d="M 274.037,146.685 C 275.450,147.257 275.520,147.096 277.022,147.422" stroke-width="16.591" stroke="rgb(33,33,33)" fill="none" stroke-linecap="round"></path><path d="M 277.022,147.422 C 279.154,147.884 279.151,148.083 281.304,148.261" stroke-width="16.493" stroke="rgb(33,33,33)" fill="none" stroke-linecap="round"></path><path d="M 281.304,148.261 C 282.640,148.372 282.713,148.374 284.000,148.000" stroke-width="16.679" stroke="rgb(33,33,33)" fill="none" stroke-linecap="round"></path><path d="M 284.000,148.000 C 286.111,147.385 286.251,147.456 288.100,146.283" stroke-width="16.456" stroke="rgb(33,33,33)" fill="none" stroke-linecap="round"></path><path d="M 288.100,146.283 C 289.898,145.143 289.906,145.014 291.294,143.373" stroke-width="16.431" stroke="rgb(33,33,33)" fill="none" stroke-linecap="round"></path><path d="M 291.294,143.373 C 293.537,140.720 293.499,140.641 295.362,137.694" stroke-width="15.968" stroke="rgb(33,33,33)" fill="none" stroke-linecap="round"></path><path d="M 295.362,137.694 C 297.043,135.037 296.858,134.922 298.382,132.165" stroke-width="15.595" stroke="rgb(33,33,33)" fill="none" stroke-linecap="round"></path><path d="M 298.382,132.165 C 299.254,130.587 299.308,130.616 300.155,129.024" stroke-width="15.805" stroke="rgb(33,33,33)" fill="none" stroke-linecap="round"></path><path d="M 300.155,129.024 C 300.984,127.467 301.022,127.480 301.733,125.868" stroke-width="15.989" stroke="rgb(33,33,33)" fill="none" stroke-linecap="round"></path><path d="M 301.733,125.868 C 302.278,124.632 302.309,124.618 302.668,123.329" stroke-width="16.209" stroke="rgb(33,33,33)" fill="none" stroke-linecap="round"></path><path d="M 302.668,123.329 C 302.776,122.939 302.480,122.832 302.667,122.511" stroke-width="16.756" stroke="rgb(33,33,33)" fill="none" stroke-linecap="round"></path><path d="M 302.667,122.511 C 302.943,122.038 303.277,122.210 303.594,121.740" stroke-width="17.134" stroke="rgb(33,33,33)" fill="none" stroke-linecap="round"></path><path d="M 303.594,121.740 C 303.808,121.423 303.638,121.333 303.730,120.937" stroke-width="17.522" stroke="rgb(33,33,33)" fill="none" stroke-linecap="round"></path><path d="M 303.730,120.937 C 303.841,120.463 303.762,120.408 304.000,120.000" stroke-width="17.835" stroke="rgb(33,33,33)" fill="none" stroke-linecap="round"></path><path d="M 304.000,120.000 C 304.227,119.609 304.482,119.734 304.660,119.340" stroke-width="18.068" stroke="rgb(33,33,33)" fill="none" stroke-linecap="round"></path><path d="M 304.660,119.340 C 304.815,118.996 304.665,118.933 304.667,118.525" stroke-width="18.315" stroke="rgb(33,33,33)" fill="none" stroke-linecap="round"></path><path d="M 304.667,118.525 C 304.669,118.139 304.586,118.122 304.667,117.753" stroke-width="18.507" stroke="rgb(33,33,33)" fill="none" stroke-linecap="round"></path><path d="M 304.667,117.753 C 304.753,117.359 304.825,117.373 305.000,117.000" stroke-width="18.663" stroke="rgb(33,33,33)" fill="none" stroke-linecap="round"></path><path d="M 305.000,117.000 C 305.158,116.663 305.079,116.587 305.333,116.333" stroke-width="18.796" stroke="rgb(33,33,33)" fill="none" stroke-linecap="round"></path><path d="M 305.333,116.333 C 305.675,115.991 306.009,116.173 306.192,115.808" stroke-width="18.961" stroke="rgb(33,33,33)" fill="none" stroke-linecap="round"></path><path d="M 306.192,115.808 C 306.343,115.507 306.044,115.410 306.000,115.000" stroke-width="19.029" stroke="rgb(33,33,33)" fill="none" stroke-linecap="round"></path><path d="M 306.000,115.000 C 305.948,114.506 306.000,114.500 306.000,114.000" stroke-width="19.157" stroke="rgb(33,33,33)" fill="none" stroke-linecap="round"></path><path d="M 306.000,114.000 C 306.000,113.500 306.000,113.500 306.000,113.000" stroke-width="19.255" stroke="rgb(33,33,33)" fill="none" stroke-linecap="round"></path><path d="M 306.000,113.000 C 306.000,113.000 306.000,113.000 306.000,113.000" stroke-width="19.446" stroke="rgb(33,33,33)" fill="none" stroke-linecap="round"></path><path d="M 306.000,113.000 C 306.430,112.737 306.465,112.782 306.859,112.474" stroke-width="19.437" stroke="rgb(33,33,33)" fill="none" stroke-linecap="round"></path><path d="M 306.859,112.474 C 307.224,112.190 307.151,111.968 307.518,111.816" stroke-width="19.491" stroke="rgb(33,33,33)" fill="none" stroke-linecap="round"></path><path d="M 307.518,111.816 C 307.721,111.731 307.759,111.908 308.000,112.000" stroke-width="19.508" stroke="rgb(33,33,33)" fill="none" stroke-linecap="round"></path><path d="M 308.000,112.000 C 308.000,112.000 308.000,112.000 308.000,112.000" stroke-width="19.652" stroke="rgb(33,33,33)" fill="none" stroke-linecap="round"></path><path d="M 308.000,112.000 C 308.762,111.572 308.808,111.634 309.523,111.144" stroke-width="19.560" stroke="rgb(33,33,33)" fill="none" stroke-linecap="round"></path><path d="M 309.523,111.144 C 309.869,110.907 309.766,110.672 310.121,110.546" stroke-width="19.506" stroke="rgb(33,33,33)" fill="none" stroke-linecap="round"></path><path d="M 310.121,110.546 C 310.436,110.434 310.490,110.630 310.863,110.667" stroke-width="19.564" stroke="rgb(33,33,33)" fill="none" stroke-linecap="round"></path><path d="M 310.863,110.667 C 311.098,110.690 311.446,110.667 311.336,110.667" stroke-width="19.591" stroke="rgb(33,33,33)" fill="none" stroke-linecap="round"></path><path d="M 311.336,110.667 C 311.033,110.667 310.686,110.667 310.037,110.667" stroke-width="19.660" stroke="rgb(33,33,33)" fill="none" stroke-linecap="round"></path><path d="M 310.037,110.667 C 309.618,110.667 309.618,110.667 309.199,110.667" stroke-width="19.586" stroke="rgb(33,33,33)" fill="none" stroke-linecap="round"></path><path d="M 309.199,110.667 C 308.790,110.667 308.771,110.557 308.382,110.667" stroke-width="19.543" stroke="rgb(33,33,33)" fill="none" stroke-linecap="round"></path><path d="M 308.382,110.667 C 307.005,111.057 306.524,110.666 305.667,111.667" stroke-width="19.050" stroke="rgb(33,33,33)" fill="none" stroke-linecap="round"></path><path d="M 305.667,111.667 C 304.461,113.077 304.527,113.530 304.256,115.489" stroke-width="18.387" stroke="rgb(33,33,33)" fill="none" stroke-linecap="round"></path><path d="M 304.256,115.489 C 304.037,117.072 304.381,117.138 304.688,118.752" stroke-width="18.249" stroke="rgb(33,33,33)" fill="none" stroke-linecap="round"></path><path d="M 304.688,118.752 C 304.990,120.341 305.019,120.342 305.474,121.895" stroke-width="17.461" stroke="rgb(33,33,33)" fill="none" stroke-linecap="round"></path><path d="M 305.474,121.895 C 305.803,123.018 305.527,123.268 306.257,124.103" stroke-width="17.650" stroke="rgb(33,33,33)" fill="none" stroke-linecap="round"></path><path d="M 306.257,124.103 C 307.213,125.198 307.490,125.052 308.846,125.756" stroke-width="16.951" stroke="rgb(33,33,33)" fill="none" stroke-linecap="round"></path><path d="M 308.846,125.756 C 309.833,126.268 309.871,126.484 310.941,126.536" stroke-width="17.108" stroke="rgb(33,33,33)" fill="none" stroke-linecap="round"></path><path d="M 310.941,126.536 C 312.149,126.595 312.308,126.549 313.402,125.977" stroke-width="17.210" stroke="rgb(33,33,33)" fill="none" stroke-linecap="round"></path><path d="M 313.402,125.977 C 315.073,125.104 315.035,124.922 316.472,123.646" stroke-width="17.065" stroke="rgb(33,33,33)" fill="none" stroke-linecap="round"></path><path d="M 316.472,123.646 C 317.810,122.458 317.901,122.458 318.951,121.049" stroke-width="16.957" stroke="rgb(33,33,33)" fill="none" stroke-linecap="round"></path><path d="M 318.951,121.049 C 319.331,120.538 319.085,120.404 319.333,119.806" stroke-width="17.311" stroke="rgb(33,33,33)" fill="none" stroke-linecap="round"></path><path d="M 319.333,119.806 C 319.557,119.265 319.761,119.331 319.894,118.772" stroke-width="17.585" stroke="rgb(33,33,33)" fill="none" stroke-linecap="round"></path><path d="M 319.894,118.772 C 320.095,117.928 319.947,117.886 320.000,117.000" stroke-width="17.730" stroke="rgb(33,33,33)" fill="none" stroke-linecap="round"></path><path d="M 320.000,117.000 C 320.000,117.000 320.000,117.000 320.000,117.000" stroke-width="18.183" stroke="rgb(33,33,33)" fill="none" stroke-linecap="round"></path><path d="M 320.000,117.000 C 320.000,116.500 320.000,116.500 320.000,116.000" stroke-width="18.283" stroke="rgb(33,33,33)" fill="none" stroke-linecap="round"></path><path d="M 320.000,116.000 C 320.000,115.500 319.824,115.382 320.000,115.000" stroke-width="18.445" stroke="rgb(33,33,33)" fill="none" stroke-linecap="round"></path><path d="M 320.000,115.000 C 320.107,114.766 320.420,114.989 320.566,114.767" stroke-width="18.648" stroke="rgb(33,33,33)" fill="none" stroke-linecap="round"></path><path d="M 320.566,114.767 C 320.754,114.481 320.366,114.168 320.667,113.984" stroke-width="18.774" stroke="rgb(33,33,33)" fill="none" stroke-linecap="round"></path><path d="M 320.667,113.984 C 321.688,113.360 321.921,113.507 323.210,113.152" stroke-width="18.504" stroke="rgb(33,33,33)" fill="none" stroke-linecap="round"></path><path d="M 323.210,113.152 C 324.869,112.695 324.869,112.368 326.562,112.359" stroke-width="18.104" stroke="rgb(33,33,33)" fill="none" stroke-linecap="round"></path><path d="M 326.562,112.359 C 329.141,112.346 329.268,112.357 331.755,113.108" stroke-width="17.509" stroke="rgb(33,33,33)" fill="none" stroke-linecap="round"></path><path d="M 331.755,113.108 C 334.638,113.979 334.894,113.851 337.303,115.602" stroke-width="16.857" stroke="rgb(33,33,33)" fill="none" stroke-linecap="round"></path><path d="M 337.303,115.602 C 339.760,117.388 339.552,117.766 341.486,120.183" stroke-width="16.464" stroke="rgb(33,33,33)" fill="none" stroke-linecap="round"></path><path d="M 341.486,120.183 C 343.691,122.938 343.747,122.950 345.582,125.947" stroke-width="15.842" stroke="rgb(33,33,33)" fill="none" stroke-linecap="round"></path><path d="M 345.582,125.947 C 346.306,127.129 346.535,127.186 346.605,128.542" stroke-width="16.154" stroke="rgb(33,33,33)" fill="none" stroke-linecap="round"></path><path d="M 346.605,128.542 C 346.744,131.212 346.158,131.263 346.000,134.000" stroke-width="15.869" stroke="rgb(33,33,33)" fill="none" stroke-linecap="round"></path><path d="M 346.000,134.000 C 345.856,136.492 346.000,136.500 346.000,139.000" stroke-width="15.901" stroke="rgb(33,33,33)" fill="none" stroke-linecap="round"></path><path d="M 346.000,139.000 C 346.000,142.500 346.000,142.500 346.000,146.000" stroke-width="15.433" stroke="rgb(33,33,33)" fill="none" stroke-linecap="round"></path><path d="M 346.000,146.000 C 346.000,149.000 346.000,149.000 346.000,152.000" stroke-width="15.286" stroke="rgb(33,33,33)" fill="none" stroke-linecap="round"></path><path d="M 346.000,152.000 C 346.000,155.500 346.712,155.665 346.000,159.000" stroke-width="15.088" stroke="rgb(33,33,33)" fill="none" stroke-linecap="round"></path><path d="M 346.000,159.000 C 345.385,161.880 345.201,162.131 343.345,164.431" stroke-width="15.008" stroke="rgb(33,33,33)" fill="none" stroke-linecap="round"></path><path d="M 343.345,164.431 C 341.256,167.020 340.948,166.953 338.110,168.779" stroke-width="14.896" stroke="rgb(33,33,33)" fill="none" stroke-linecap="round"></path><circle r="6" cx="251" cy="98" fill="rgb(33,33,33)"></circle></svg>