<svg xmlns="http://www.w3.org/2000/svg" xmlns:xlink="http://www.w3.org/1999/xlink" viewBox="0 0 800 500"><path d="M 210.500,176.000 C 210.500,177.500 210.500,177.500 210.500,179.000" stroke-width="20.078" stroke="rgb(33,33,33)" fill="none" stroke-linecap="round"></path><path d="M 210.500,179.000 C 210.500,181.500 210.500,181.500 210.500,184.000" stroke-width="18.113" stroke="rgb(33,33,33)" fill="none" stroke-linecap="round"></path><path d="M 210.500,184.000 C 210.500,186.500 210.981,186.593 210.500,189.000" stroke-width="16.607" stroke="rgb(33,33,33)" fill="none" stroke-linecap="round"></path><path d="M 210.500,189.000 C 209.981,191.593 209.420,191.471 208.500,194.000" stroke-width="15.456" stroke="rgb(33,33,33)" fill="none" stroke-linecap="round"></path><path d="M 208.500,194.000 C 207.420,196.971 207.208,196.931 206.500,200.000" stroke-width="14.173" stroke="rgb(33,33,33)" fill="none" stroke-linecap="round"></path><path d="M 206.500,200.000 C 205.708,203.431 206.406,203.604 205.500,207.000" stroke-width="13.324" stroke="rgb(33,33,33)" fill="none" stroke-linecap="round"></path><path d="M 205.500,207.000 C 204.406,211.104 203.937,210.978 202.500,215.000" stroke-width="12.427" stroke="rgb(33,33,33)" fill="none" stroke-linecap="round"></path><path d="M 202.500,215.000 C 201.437,217.978 201.208,217.931 200.500,221.000" stroke-width="12.186" stroke="rgb(33,33,33)" fill="none" stroke-linecap="round"></path><path d="M 200.500,221.000 C 199.708,224.431 200.038,224.506 199.500,228.000" stroke-width="11.869" stroke="rgb(33,33,33)" fill="none" stroke-linecap="round"></path><path d="M 199.500,228.000 C 199.038,231.006 199.296,231.083 198.500,234.000" stroke-width="11.794" stroke="rgb(33,33,33)" fill="none" stroke-linecap="round"></path><path d="M 198.500,234.000 C 197.796,236.583 197.420,236.471 196.500,239.000" stroke-width="11.855" stroke="rgb(33,33,33)" fill="none" stroke-linecap="round"></path><path d="M 196.500,239.000 C 195.420,241.971 195.330,241.955 194.500,245.000" stroke-width="11.741" stroke="rgb(33,33,33)" fill="none" stroke-linecap="round"></path><path d="M 194.500,245.000 C 193.830,247.455 194.299,247.603 193.500,250.000" stroke-width="11.861" stroke="rgb(33,33,33)" fill="none" stroke-linecap="round"></path><path d="M 193.500,250.000 C 192.799,252.103 192.099,251.905 191.500,254.000" stroke-width="12.071" stroke="rgb(33,33,33)" fill="none" stroke-linecap="round"></path><path d="M 191.500,254.000 C 191.099,255.405 191.743,255.540 191.500,257.000" stroke-width="12.588" stroke="rgb(33,33,33)" fill="none" stroke-linecap="round"></path><path d="M 191.500,257.000 C 191.243,258.540 191.086,258.536 190.500,260.000" stroke-width="12.931" stroke="rgb(33,33,33)" fill="none" stroke-linecap="round"></path><path d="M 190.500,260.000 C 190.086,261.036 189.914,260.964 189.500,262.000" stroke-width="13.351" stroke="rgb(33,33,33)" fill="none" stroke-linecap="round"></path><path d="M 189.500,262.000 C 188.914,263.464 188.806,263.469 188.500,265.000" stroke-width="13.568" stroke="rgb(33,33,33)" fill="none" stroke-linecap="round"></path><path d="M 188.500,265.000 C 188.306,265.969 188.500,266.000 188.500,267.000" stroke-width="14.024" stroke="rgb(33,33,33)" fill="none" stroke-linecap="round"></path><path d="M 188.500,267.000 C 188.500,267.500 188.500,267.500 188.500,268.000" stroke-width="14.702" stroke="rgb(33,33,33)" fill="none" stroke-linecap="round"></path><path d="M 188.500,268.000 C 188.500,268.500 188.707,268.586 188.500,269.000" stroke-width="15.261" stroke="rgb(33,33,33)" fill="none" stroke-linecap="round"></path><path d="M 188.500,269.000 C 188.207,269.586 187.500,270.472 187.500,270.000" stroke-width="15.614" stroke="rgb(33,33,33)" fill="none" stroke-linecap="round"></path><path d="M 187.500,270.000 C 187.500,267.972 187.956,266.992 188.500,264.000" stroke-width="16.231" stroke="rgb(33,33,33)" fill="none" stroke-linecap="round"></path><path d="M 188.500,264.000 C 188.956,261.492 188.882,261.471 189.500,259.000" stroke-width="15.276" stroke="rgb(33,33,33)" fill="none" stroke-linecap="round"></path><path d="M 189.500,259.000 C 190.382,255.471 190.350,255.450 191.500,252.000" stroke-width="14.038" stroke="rgb(33,33,33)" fill="none" stroke-linecap="round"></path><path d="M 191.500,252.000 C 192.850,247.950 193.360,248.103 194.500,244.000" stroke-width="12.918" stroke="rgb(33,33,33)" fill="none" stroke-linecap="round"></path><path d="M 194.500,244.000 C 195.860,239.103 195.320,238.957 196.500,234.000" stroke-width="11.849" stroke="rgb(33,33,33)" fill="none" stroke-linecap="round"></path><path d="M 196.500,234.000 C 197.820,228.457 198.049,228.513 199.500,223.000" stroke-width="10.697" stroke="rgb(33,33,33)" fill="none" stroke-linecap="round"></path><path d="M 199.500,223.000 C 200.549,219.013 200.199,218.903 201.500,215.000" stroke-width="10.671" stroke="rgb(33,33,33)" fill="none" stroke-linecap="round"></path><path d="M 201.500,215.000 C 203.199,209.903 203.801,210.097 205.500,205.000" stroke-width="9.996" stroke="rgb(33,33,33)" fill="none" stroke-linecap="round"></path><path d="M 205.500,205.000 C 206.801,201.097 206.438,200.983 207.500,197.000" stroke-width="10.105" stroke="rgb(33,33,33)" fill="none" stroke-linecap="round"></path><path d="M 207.500,197.000 C 208.438,193.483 208.788,193.559 209.500,190.000" stroke-width="10.069" stroke="rgb(33,33,33)" fill="none" stroke-linecap="round"></path><path d="M 209.500,190.000 C 210.288,186.059 209.967,185.996 210.500,182.000" stroke-width="10.072" stroke="rgb(33,33,33)" fill="none" stroke-linecap="round"></path><path d="M 210.500,182.000 C 210.967,178.496 210.962,178.494 211.500,175.000" stroke-width="10.201" stroke="rgb(33,33,33)" fill="none" stroke-linecap="round"></path><path d="M 211.500,175.000 C 211.962,171.994 211.956,171.992 212.500,169.000" stroke-width="10.437" stroke="rgb(33,33,33)" fill="none" stroke-linecap="round"></path><path d="M 212.500,169.000 C 212.956,166.492 213.248,166.525 213.500,164.000" stroke-width="10.773" stroke="rgb(33,33,33)" fill="none" stroke-linecap="round"></path><path d="M 213.500,164.000 C 213.748,161.525 213.500,161.500 213.500,159.000" stroke-width="11.073" stroke="rgb(33,33,33)" fill="none" stroke-linecap="round"></path><path d="M 213.500,159.000 C 213.500,157.500 212.819,157.135 213.500,156.000" stroke-width="11.652" stroke="rgb(33,33,33)" fill="none" stroke-linecap="round"></path><path d="M 213.500,156.000 C 214.319,154.635 215.326,155.174 216.500,154.000" stroke-width="12.050" stroke="rgb(33,33,33)" fill="none" stroke-linecap="round"></path><path d="M 216.500,154.000 C 216.826,153.674 216.500,153.500 216.500,153.000" stroke-width="12.903" stroke="rgb(33,33,33)" fill="none" stroke-linecap="round"></path><path d="M 216.500,153.000 C 216.500,152.500 216.500,151.700 216.500,152.000" stroke-width="13.678" stroke="rgb(33,33,33)" fill="none" stroke-linecap="round"></path><path d="M 216.500,152.000 C 216.500,153.200 216.500,154.000 216.500,156.000" stroke-width="14.553" stroke="rgb(33,33,33)" fill="none" stroke-linecap="round"></path><path d="M 216.500,156.000 C 216.500,159.500 216.500,159.500 216.500,163.000" stroke-width="13.382" stroke="rgb(33,33,33)" fill="none" stroke-linecap="round"></path><path d="M 216.500,163.000 C 216.500,166.500 216.500,166.500 216.500,170.000" stroke-width="12.772" stroke="rgb(33,33,33)" fill="none" stroke-linecap="round"></path><path d="M 216.500,170.000 C 216.500,173.500 216.500,173.500 216.500,177.000" stroke-width="12.469" stroke="rgb(33,33,33)" fill="none" stroke-linecap="round"></path><path d="M 216.500,177.000 C 216.500,180.000 216.500,180.000 216.500,183.000" stroke-width="12.121" stroke="rgb(33,33,33)" fill="none" stroke-linecap="round"></path><path d="M 216.500,183.000 C 216.500,186.000 216.500,186.000 216.500,189.000" stroke-width="12.007" stroke="rgb(33,33,33)" fill="none" stroke-linecap="round"></path><path d="M 216.500,189.000 C 216.500,192.000 216.500,192.000 216.500,195.000" stroke-width="11.917" stroke="rgb(33,33,33)" fill="none" stroke-linecap="round"></path><path d="M 216.500,195.000 C 216.500,197.500 216.500,197.500 216.500,200.000" stroke-width="12.022" stroke="rgb(33,33,33)" fill="none" stroke-linecap="round"></path><path d="M 216.500,200.000 C 216.500,201.000 216.337,201.020 216.500,202.000" stroke-width="12.676" stroke="rgb(33,33,33)" fill="none" stroke-linecap="round"></path><path d="M 216.500,202.000 C 216.837,204.020 217.098,203.988 217.500,206.000" stroke-width="12.901" stroke="rgb(33,33,33)" fill="none" stroke-linecap="round"></path><path d="M 217.500,206.000 C 217.598,206.488 217.293,206.586 217.500,207.000" stroke-width="13.643" stroke="rgb(33,33,33)" fill="none" stroke-linecap="round"></path><path d="M 217.500,207.000 C 217.793,207.586 218.207,207.414 218.500,208.000" stroke-width="14.272" stroke="rgb(33,33,33)" fill="none" stroke-linecap="round"></path><path d="M 218.500,208.000 C 218.707,208.414 218.250,208.750 218.500,209.000" stroke-width="15.027" stroke="rgb(33,33,33)" fill="none" stroke-linecap="round"></path><path d="M 218.500,209.000 C 218.750,209.250 219.250,208.750 219.500,209.000" stroke-width="15.742" stroke="rgb(33,33,33)" fill="none" stroke-linecap="round"></path><path d="M 219.500,209.000 C 219.750,209.250 219.250,209.750 219.500,210.000" stroke-width="16.147" stroke="rgb(33,33,33)" fill="none" stroke-linecap="round"></path><path d="M 219.500,210.000 C 219.750,210.250 220.000,210.000 220.500,210.000" stroke-width="16.708" stroke="rgb(33,33,33)" fill="none" stroke-linecap="round"></path><path d="M 220.500,210.000 C 221.000,210.000 221.000,210.000 221.500,210.000" stroke-width="16.951" stroke="rgb(33,33,33)" fill="none" stroke-linecap="round"></path><path d="M 221.500,210.000 C 222.000,210.000 222.000,210.000 222.500,210.000" stroke-width="17.151" stroke="rgb(33,33,33)" fill="none" stroke-linecap="round"></path><path d="M 222.500,210.000 C 223.000,210.000 223.000,210.000 223.500,210.000" stroke-width="17.315" stroke="rgb(33,33,33)" fill="none" stroke-linecap="round"></path><path d="M 223.500,210.000 C 225.000,210.000 225.138,210.454 226.500,210.000" stroke-width="16.727" stroke="rgb(33,33,33)" fill="none" stroke-linecap="round"></path><path d="M 226.500,210.000 C 228.138,209.454 228.000,209.000 229.500,208.000" stroke-width="16.089" stroke="rgb(33,33,33)" fill="none" stroke-linecap="round"></path><path d="M 229.500,208.000 C 232.500,206.000 232.620,206.160 235.500,204.000" stroke-width="14.598" stroke="rgb(33,33,33)" fill="none" stroke-linecap="round"></path><path d="M 235.500,204.000 C 238.620,201.660 238.451,201.439 241.500,199.000" stroke-width="13.652" stroke="rgb(33,33,33)" fill="none" stroke-linecap="round"></path><path d="M 241.500,199.000 C 245.951,195.439 246.101,195.623 250.500,192.000" stroke-width="11.825" stroke="rgb(33,33,33)" fill="none" stroke-linecap="round"></path><path d="M 250.500,192.000 C 254.601,188.623 254.607,188.615 258.500,185.000" stroke-width="11.031" stroke="rgb(33,33,33)" fill="none" stroke-linecap="round"></path><path d="M 258.500,185.000 C 261.607,182.115 261.256,181.703 264.500,179.000" stroke-width="10.767" stroke="rgb(33,33,33)" fill="none" stroke-linecap="round"></path><path d="M 264.500,179.000 C 267.256,176.703 267.620,177.160 270.500,175.000" stroke-width="10.744" stroke="rgb(33,33,33)" fill="none" stroke-linecap="round"></path><path d="M 270.500,175.000 C 273.620,172.660 273.600,172.610 276.500,170.000" stroke-width="10.640" stroke="rgb(33,33,33)" fill="none" stroke-linecap="round"></path><path d="M 276.500,170.000 C 278.600,168.110 278.362,167.832 280.500,166.000" stroke-width="10.864" stroke="rgb(33,33,33)" fill="none" stroke-linecap="round"></path><path d="M 280.500,166.000 C 281.862,164.832 282.063,165.077 283.500,164.000" stroke-width="11.368" stroke="rgb(33,33,33)" fill="none" stroke-linecap="round"></path><path d="M 283.500,164.000 C 284.063,163.577 283.914,163.293 284.500,163.000" stroke-width="12.196" stroke="rgb(33,33,33)" fill="none" stroke-linecap="round"></path><path d="M 284.500,163.000 C 284.914,162.793 285.108,162.739 285.500,163.000" stroke-width="13.037" stroke="rgb(33,33,33)" fill="none" stroke-linecap="round"></path><path d="M 285.500,163.000 C 286.608,163.739 287.139,163.735 287.500,165.000" stroke-width="13.939" stroke="rgb(33,33,33)" fill="none" stroke-linecap="round"></path><path d="M 287.500,165.000 C 288.139,167.235 287.500,167.500 287.500,170.000" stroke-width="13.745" stroke="rgb(33,33,33)" fill="none" stroke-linecap="round"></path><path d="M 287.500,170.000 C 287.500,173.000 287.500,173.000 287.500,176.000" stroke-width="13.247" stroke="rgb(33,33,33)" fill="none" stroke-linecap="round"></path><path d="M 287.500,176.000 C 287.500,179.500 287.500,179.500 287.500,183.000" stroke-width="12.478" stroke="rgb(33,33,33)" fill="none" stroke-linecap="round"></path><path d="M 287.500,183.000 C 287.500,186.000 287.748,186.021 287.500,189.000" stroke-width="12.285" stroke="rgb(33,33,33)" fill="none" stroke-linecap="round"></path><path d="M 287.500,189.000 C 287.248,192.021 286.962,191.994 286.500,195.000" stroke-width="12.120" stroke="rgb(33,33,33)" fill="none" stroke-linecap="round"></path><path d="M 286.500,195.000 C 285.962,198.494 286.038,198.506 285.500,202.000" stroke-width="11.956" stroke="rgb(33,33,33)" fill="none" stroke-linecap="round"></path><path d="M 285.500,202.000 C 285.038,205.006 284.802,204.984 284.500,208.000" stroke-width="11.863" stroke="rgb(33,33,33)" fill="none" stroke-linecap="round"></path><path d="M 284.500,208.000 C 284.302,209.984 284.746,210.030 284.500,212.000" stroke-width="12.054" stroke="rgb(33,33,33)" fill="none" stroke-linecap="round"></path><path d="M 284.500,212.000 C 284.246,214.030 283.789,213.974 283.500,216.000" stroke-width="12.295" stroke="rgb(33,33,33)" fill="none" stroke-linecap="round"></path><path d="M 283.500,216.000 C 283.289,217.474 283.500,217.500 283.500,219.000" stroke-width="12.715" stroke="rgb(33,33,33)" fill="none" stroke-linecap="round"></path><path d="M 283.500,219.000 C 283.500,220.000 283.500,220.000 283.500,221.000" stroke-width="13.287" stroke="rgb(33,33,33)" fill="none" stroke-linecap="round"></path><path d="M 283.500,221.000 C 283.500,222.000 283.500,222.000 283.500,223.000" stroke-width="13.877" stroke="rgb(33,33,33)" fill="none" stroke-linecap="round"></path><path d="M 283.500,223.000 C 283.500,223.500 283.500,223.500 283.500,224.000" stroke-width="14.457" stroke="rgb(33,33,33)" fill="none" stroke-linecap="round"></path><path d="M 283.500,224.000 C 283.500,225.000 283.500,225.000 283.500,226.000" stroke-width="14.775" stroke="rgb(33,33,33)" fill="none" stroke-linecap="round"></path><path d="M 283.500,226.000 C 283.500,226.500 283.500,226.500 283.500,227.000" stroke-width="15.519" stroke="rgb(33,33,33)" fill="none" stroke-linecap="round"></path><path d="M 283.500,227.000 C 283.500,227.500 283.500,227.500 283.500,228.000" stroke-width="15.959" stroke="rgb(33,33,33)" fill="none" stroke-linecap="round"></path><path d="M 283.500,228.000 C 283.500,228.500 283.293,228.586 283.500,229.000" stroke-width="16.330" stroke="rgb(33,33,33)" fill="none" stroke-linecap="round"></path><path d="M 283.500,229.000 C 283.793,229.586 284.207,229.414 284.500,230.000" stroke-width="16.498" stroke="rgb(33,33,33)" fill="none" stroke-linecap="round"></path><path d="M 284.500,230.000 C 284.707,230.414 284.500,230.500 284.500,231.000" stroke-width="16.778" stroke="rgb(33,33,33)" fill="none" stroke-linecap="round"></path><path d="M 284.500,231.000 C 284.500,231.500 284.500,231.500 284.500,232.000" stroke-width="17.009" stroke="rgb(33,33,33)" fill="none" stroke-linecap="round"></path><path d="M 284.500,232.000 C 284.500,233.500 284.500,233.500 284.500,235.000" stroke-width="16.498" stroke="rgb(33,33,33)" fill="none" stroke-linecap="round"></path><path d="M 284.500,235.000 C 284.500,235.500 284.500,235.500 284.500,236.000" stroke-width="16.778" stroke="rgb(33,33,33)" fill="none" stroke-linecap="round"></path><path d="M 284.500,236.000 C 284.500,237.500 284.500,237.500 284.500,239.000" stroke-width="16.434" stroke="rgb(33,33,33)" fill="none" stroke-linecap="round"></path><path d="M 284.500,239.000 C 284.500,240.500 284.500,240.500 284.500,242.000" stroke-width="15.926" stroke="rgb(33,33,33)" fill="none" stroke-linecap="round"></path><path d="M 284.500,242.000 C 284.500,243.500 284.500,243.500 284.500,245.000" stroke-width="15.773" stroke="rgb(33,33,33)" fill="none" stroke-linecap="round"></path><path d="M 284.500,245.000 C 284.500,247.000 284.500,247.000 284.500,249.000" stroke-width="15.096" stroke="rgb(33,33,33)" fill="none" stroke-linecap="round"></path><path d="M 284.500,249.000 C 284.500,251.000 284.500,251.000 284.500,253.000" stroke-width="14.748" stroke="rgb(33,33,33)" fill="none" stroke-linecap="round"></path><path d="M 284.500,253.000 C 284.500,255.000 284.500,255.000 284.500,257.000" stroke-width="14.480" stroke="rgb(33,33,33)" fill="none" stroke-linecap="round"></path><path d="M 284.500,257.000 C 284.500,258.500 284.500,258.500 284.500,260.000" stroke-width="14.529" stroke="rgb(33,33,33)" fill="none" stroke-linecap="round"></path><path d="M 284.500,260.000 C 284.500,261.500 284.500,261.500 284.500,263.000" stroke-width="14.568" stroke="rgb(33,33,33)" fill="none" stroke-linecap="round"></path><path d="M 284.500,263.000 C 284.500,264.000 284.500,264.000 284.500,265.000" stroke-width="14.928" stroke="rgb(33,33,33)" fill="none" stroke-linecap="round"></path><path d="M 284.500,265.000 C 284.500,266.000 284.264,266.056 284.500,267.000" stroke-width="15.086" stroke="rgb(33,33,33)" fill="none" stroke-linecap="round"></path><path d="M 284.500,267.000 C 284.764,268.056 285.155,267.964 285.500,269.000" stroke-width="15.300" stroke="rgb(33,33,33)" fill="none" stroke-linecap="round"></path><path d="M 285.500,269.000 C 285.655,269.464 285.500,269.500 285.500,270.000" stroke-width="15.928" stroke="rgb(33,33,33)" fill="none" stroke-linecap="round"></path><path d="M 285.500,270.000 C 285.500,270.500 285.500,270.500 285.500,271.000" stroke-width="16.303" stroke="rgb(33,33,33)" fill="none" stroke-linecap="round"></path><path d="M 285.500,271.000 C 285.500,271.500 285.167,271.833 285.500,272.000" stroke-width="16.617" stroke="rgb(33,33,33)" fill="none" stroke-linecap="round"></path><path d="M 285.500,272.000 C 286.167,272.333 286.500,272.000 287.500,272.000" stroke-width="17.189" stroke="rgb(33,33,33)" fill="none" stroke-linecap="round"></path><path d="M 287.500,272.000 C 290.500,272.000 290.689,272.625 293.500,272.000" stroke-width="16.633" stroke="rgb(33,33,33)" fill="none" stroke-linecap="round"></path><path d="M 293.500,272.000 C 295.189,271.625 295.122,271.149 296.500,270.000" stroke-width="15.858" stroke="rgb(33,33,33)" fill="none" stroke-linecap="round"></path><path d="M 296.500,270.000 C 298.122,268.649 297.757,268.162 299.500,267.000" stroke-width="15.389" stroke="rgb(33,33,33)" fill="none" stroke-linecap="round"></path><path d="M 299.500,267.000 C 302.257,265.162 302.442,265.359 305.500,264.000" stroke-width="14.257" stroke="rgb(33,33,33)" fill="none" stroke-linecap="round"></path><path d="M 305.500,264.000 C 306.942,263.359 307.144,263.775 308.500,263.000" stroke-width="14.307" stroke="rgb(33,33,33)" fill="none" stroke-linecap="round"></path><path d="M 308.500,263.000 C 310.644,261.775 310.551,261.559 312.500,260.000" stroke-width="14.029" stroke="rgb(33,33,33)" fill="none" stroke-linecap="round"></path><path d="M 312.500,260.000 C 313.051,259.559 312.879,259.207 313.500,259.000" stroke-width="14.515" stroke="rgb(33,33,33)" fill="none" stroke-linecap="round"></path><path d="M 313.500,259.000 C 314.379,258.707 314.833,259.333 315.500,259.000" stroke-width="14.823" stroke="rgb(33,33,33)" fill="none" stroke-linecap="round"></path><path d="M 315.500,259.000 C 315.833,258.833 315.250,258.250 315.500,258.000" stroke-width="15.366" stroke="rgb(33,33,33)" fill="none" stroke-linecap="round"></path><path d="M 315.500,258.000 C 315.750,257.750 316.333,257.667 316.500,258.000" stroke-width="16.098" stroke="rgb(33,33,33)" fill="none" stroke-linecap="round"></path><path d="M 316.500,258.000 C 316.833,258.667 316.500,259.000 316.500,260.000" stroke-width="16.118" stroke="rgb(33,33,33)" fill="none" stroke-linecap="round"></path><path d="M 316.500,260.000 C 316.500,261.500 316.257,261.540 316.500,263.000" stroke-width="15.923" stroke="rgb(33,33,33)" fill="none" stroke-linecap="round"></path><path d="M 316.500,263.000 C 316.757,264.540 317.066,264.481 317.500,266.000" stroke-width="15.485" stroke="rgb(33,33,33)" fill="none" stroke-linecap="round"></path><path d="M 317.500,266.000 C 318.066,267.981 318.211,267.974 318.500,270.000" stroke-width="15.137" stroke="rgb(33,33,33)" fill="none" stroke-linecap="round"></path><path d="M 318.500,270.000 C 318.711,271.474 318.257,271.540 318.500,273.000" stroke-width="14.934" stroke="rgb(33,33,33)" fill="none" stroke-linecap="round"></path><path d="M 318.500,273.000 C 318.757,274.540 319.194,274.469 319.500,276.000" stroke-width="14.944" stroke="rgb(33,33,33)" fill="none" stroke-linecap="round"></path><path d="M 319.500,276.000 C 319.694,276.969 319.143,277.108 319.500,278.000" stroke-width="15.099" stroke="rgb(33,33,33)" fill="none" stroke-linecap="round"></path><path d="M 319.500,278.000 C 320.143,279.608 320.423,279.563 321.500,281.000" stroke-width="14.856" stroke="rgb(33,33,33)" fill="none" stroke-linecap="round"></path><path d="M 321.500,281.000 C 321.923,281.563 322.207,281.414 322.500,282.000" stroke-width="15.480" stroke="rgb(33,33,33)" fill="none" stroke-linecap="round"></path><path d="M 322.500,282.000 C 322.707,282.414 322.250,282.750 322.500,283.000" stroke-width="16.191" stroke="rgb(33,33,33)" fill="none" stroke-linecap="round"></path><path d="M 322.500,283.000 C 322.750,283.250 323.019,283.120 323.500,283.000" stroke-width="16.780" stroke="rgb(33,33,33)" fill="none" stroke-linecap="round"></path><path d="M 323.500,283.000 C 325.019,282.620 325.118,282.691 326.500,282.000" stroke-width="16.272" stroke="rgb(33,33,33)" fill="none" stroke-linecap="round"></path><path d="M 326.500,282.000 C 327.118,281.691 326.937,281.423 327.500,281.000" stroke-width="16.451" stroke="rgb(33,33,33)" fill="none" stroke-linecap="round"></path><path d="M 327.500,281.000 C 328.937,279.923 328.892,279.643 330.500,279.000" stroke-width="15.884" stroke="rgb(33,33,33)" fill="none" stroke-linecap="round"></path><path d="M 330.500,279.000 C 331.392,278.643 331.556,279.236 332.500,279.000" stroke-width="15.946" stroke="rgb(33,33,33)" fill="none" stroke-linecap="round"></path><path d="M 332.500,279.000 C 333.556,278.736 333.464,278.345 334.500,278.000" stroke-width="15.922" stroke="rgb(33,33,33)" fill="none" stroke-linecap="round"></path><path d="M 334.500,278.000 C 334.964,277.845 335.000,278.000 335.500,278.000" stroke-width="16.298" stroke="rgb(33,33,33)" fill="none" stroke-linecap="round"></path><path d="M 335.500,278.000 C 336.000,278.000 336.000,278.000 336.500,278.000" stroke-width="16.612" stroke="rgb(33,33,33)" fill="none" stroke-linecap="round"></path><path d="M 336.500,278.000 C 337.000,278.000 337.019,277.880 337.500,278.000" stroke-width="17.140" stroke="rgb(33,33,33)" fill="none" stroke-linecap="round"></path><path d="M 337.500,278.000 C 339.019,278.380 339.180,278.208 340.500,279.000" stroke-width="17.093" stroke="rgb(33,33,33)" fill="none" stroke-linecap="round"></path><path d="M 340.500,279.000 C 341.680,279.708 341.416,280.097 342.500,281.000" stroke-width="16.619" stroke="rgb(33,33,33)" fill="none" stroke-linecap="round"></path><path d="M 342.500,281.000 C 344.416,282.597 344.623,282.358 346.500,284.000" stroke-width="15.580" stroke="rgb(33,33,33)" fill="none" stroke-linecap="round"></path><path d="M 346.500,284.000 C 348.623,285.858 348.362,286.168 350.500,288.000" stroke-width="14.661" stroke="rgb(33,33,33)" fill="none" stroke-linecap="round"></path><path d="M 350.500,288.000 C 351.862,289.168 351.972,289.045 353.500,290.000" stroke-width="14.515" stroke="rgb(33,33,33)" fill="none" stroke-linecap="round"></path><path d="M 353.500,290.000 C 355.972,291.545 356.000,291.500 358.500,293.000" stroke-width="13.852" stroke="rgb(33,33,33)" fill="none" stroke-linecap="round"></path><path d="M 358.500,293.000 C 361.000,294.500 360.953,294.585 363.500,296.000" stroke-width="13.364" stroke="rgb(33,33,33)" fill="none" stroke-linecap="round"></path><path d="M 363.500,296.000 C 365.453,297.085 365.547,296.915 367.500,298.000" stroke-width="13.287" stroke="rgb(33,33,33)" fill="none" stroke-linecap="round"></path><path d="M 367.500,298.000 C 370.047,299.415 369.894,299.883 372.500,301.000" stroke-width="12.939" stroke="rgb(33,33,33)" fill="none" stroke-linecap="round"></path><path d="M 372.500,301.000 C 373.394,301.383 373.520,300.837 374.500,301.000" stroke-width="13.482" stroke="rgb(33,33,33)" fill="none" stroke-linecap="round"></path><path d="M 374.500,301.000 C 376.520,301.337 376.474,301.711 378.500,302.000" stroke-width="13.458" stroke="rgb(33,33,33)" fill="none" stroke-linecap="round"></path><path d="M 378.500,302.000 C 379.974,302.211 380.000,302.000 381.500,302.000" stroke-width="13.694" stroke="rgb(33,33,33)" fill="none" stroke-linecap="round"></path><path d="M 381.500,302.000 C 383.000,302.000 383.000,302.000 384.500,302.000" stroke-width="13.889" stroke="rgb(33,33,33)" fill="none" stroke-linecap="round"></path><path d="M 384.500,302.000 C 385.500,302.000 385.500,302.000 386.500,302.000" stroke-width="14.297" stroke="rgb(33,33,33)" fill="none" stroke-linecap="round"></path><path d="M 386.500,302.000 C 387.500,302.000 387.608,302.357 388.500,302.000" stroke-width="14.641" stroke="rgb(33,33,33)" fill="none" stroke-linecap="round"></path><path d="M 388.500,302.000 C 390.108,301.357 390.099,301.121 391.500,300.000" stroke-width="14.604" stroke="rgb(33,33,33)" fill="none" stroke-linecap="round"></path><path d="M 391.500,300.000 C 392.599,299.121 392.662,299.117 393.500,298.000" stroke-width="14.567" stroke="rgb(33,33,33)" fill="none" stroke-linecap="round"></path><path d="M 393.500,298.000 C 394.162,297.117 393.882,296.927 394.500,296.000" stroke-width="14.803" stroke="rgb(33,33,33)" fill="none" stroke-linecap="round"></path><path d="M 394.500,296.000 C 395.882,293.927 395.941,293.949 397.500,292.000" stroke-width="14.267" stroke="rgb(33,33,33)" fill="none" stroke-linecap="round"></path><path d="M 397.500,292.000 C 397.941,291.449 398.340,291.641 398.500,291.000" stroke-width="14.772" stroke="rgb(33,33,33)" fill="none" stroke-linecap="round"></path><path d="M 398.500,291.000 C 398.840,289.641 398.214,289.432 398.500,288.000" stroke-width="14.763" stroke="rgb(33,33,33)" fill="none" stroke-linecap="round"></path><path d="M 398.500,288.000 C 398.714,286.932 399.000,287.000 399.500,286.000" stroke-width="14.964" stroke="rgb(33,33,33)" fill="none" stroke-linecap="round"></path><path d="M 399.500,286.000 C 400.500,284.000 400.809,284.073 401.500,282.000" stroke-width="14.522" stroke="rgb(33,33,33)" fill="none" stroke-linecap="round"></path><path d="M 401.500,282.000 C 401.809,281.073 401.207,280.879 401.500,280.000" stroke-width="14.829" stroke="rgb(33,33,33)" fill="none" stroke-linecap="round"></path><path d="M 401.500,280.000 C 401.707,279.379 402.113,279.581 402.500,279.000" stroke-width="15.251" stroke="rgb(33,33,33)" fill="none" stroke-linecap="round"></path><path d="M 402.500,279.000 C 403.113,278.081 403.086,278.036 403.500,277.000" stroke-width="15.363" stroke="rgb(33,33,33)" fill="none" stroke-linecap="round"></path><path d="M 403.500,277.000 C 404.086,275.536 403.809,275.382 404.500,274.000" stroke-width="15.185" stroke="rgb(33,33,33)" fill="none" stroke-linecap="round"></path><path d="M 404.500,274.000 C 404.809,273.382 405.113,273.581 405.500,273.000" stroke-width="15.551" stroke="rgb(33,33,33)" fill="none" stroke-linecap="round"></path><path d="M 405.500,273.000 C 406.113,272.081 406.155,272.036 406.500,271.000" stroke-width="15.605" stroke="rgb(33,33,33)" fill="none" stroke-linecap="round"></path><path d="M 406.500,271.000 C 406.655,270.536 406.380,270.481 406.500,270.000" stroke-width="16.032" stroke="rgb(33,33,33)" fill="none" stroke-linecap="round"></path><path d="M 406.500,270.000 C 406.880,268.481 406.740,268.140 407.500,267.000" stroke-width="15.703" stroke="rgb(33,33,33)" fill="none" stroke-linecap="round"></path><path d="M 407.500,267.000 C 407.740,266.640 408.250,267.250 408.500,267.000" stroke-width="16.114" stroke="rgb(33,33,33)" fill="none" stroke-linecap="round"></path><path d="M 408.500,267.000 C 408.750,266.750 408.293,266.414 408.500,266.000" stroke-width="16.459" stroke="rgb(33,33,33)" fill="none" stroke-linecap="round"></path><path d="M 446.500,171.000 C 446.000,171.000 445.914,170.793 445.500,171.000" stroke-width="20.187" stroke="rgb(33,33,33)" fill="none" stroke-linecap="round"></path><path d="M 445.500,171.000 C 444.914,171.293 444.774,171.360 444.500,172.000" stroke-width="19.849" stroke="rgb(33,33,33)" fill="none" stroke-linecap="round"></path><path d="M 444.500,172.000 C 443.274,174.860 443.500,175.000 442.500,178.000" stroke-width="17.245" stroke="rgb(33,33,33)" fill="none" stroke-linecap="round"></path><path d="M 442.500,178.000 C 441.500,181.000 441.265,180.942 440.500,184.000" stroke-width="15.607" stroke="rgb(33,33,33)" fill="none" stroke-linecap="round"></path><path d="M 440.500,184.000 C 439.765,186.942 440.044,187.008 439.500,190.000" stroke-width="14.567" stroke="rgb(33,33,33)" fill="none" stroke-linecap="round"></path><path d="M 439.500,190.000 C 439.044,192.508 439.053,192.512 438.500,195.000" stroke-width="14.067" stroke="rgb(33,33,33)" fill="none" stroke-linecap="round"></path><path d="M 438.500,195.000 C 438.053,197.012 437.868,196.974 437.500,199.000" stroke-width="13.920" stroke="rgb(33,33,33)" fill="none" stroke-linecap="round"></path><path d="M 437.500,199.000 C 436.868,202.474 436.751,202.482 436.500,206.000" stroke-width="13.145" stroke="rgb(33,33,33)" fill="none" stroke-linecap="round"></path><path d="M 436.500,206.000 C 436.251,209.482 436.500,209.500 436.500,213.000" stroke-width="12.598" stroke="rgb(33,33,33)" fill="none" stroke-linecap="round"></path><path d="M 436.500,213.000 C 436.500,215.500 436.500,215.500 436.500,218.000" stroke-width="12.570" stroke="rgb(33,33,33)" fill="none" stroke-linecap="round"></path><path d="M 436.500,218.000 C 436.500,221.500 436.500,221.500 436.500,225.000" stroke-width="12.171" stroke="rgb(33,33,33)" fill="none" stroke-linecap="round"></path><path d="M 436.500,225.000 C 436.500,228.000 436.500,228.000 436.500,231.000" stroke-width="12.046" stroke="rgb(33,33,33)" fill="none" stroke-linecap="round"></path><path d="M 436.500,231.000 C 436.500,233.500 436.726,233.519 436.500,236.000" stroke-width="12.127" stroke="rgb(33,33,33)" fill="none" stroke-linecap="round"></path><path d="M 436.500,236.000 C 436.226,239.019 435.774,238.981 435.500,242.000" stroke-width="11.997" stroke="rgb(33,33,33)" fill="none" stroke-linecap="round"></path><path d="M 435.500,242.000 C 435.274,244.481 435.774,244.534 435.500,247.000" stroke-width="12.087" stroke="rgb(33,33,33)" fill="none" stroke-linecap="round"></path><path d="M 435.500,247.000 C 435.274,249.034 434.726,248.966 434.500,251.000" stroke-width="12.322" stroke="rgb(33,33,33)" fill="none" stroke-linecap="round"></path><path d="M 434.500,251.000 C 434.226,253.466 434.500,253.500 434.500,256.000" stroke-width="12.350" stroke="rgb(33,33,33)" fill="none" stroke-linecap="round"></path><path d="M 434.500,256.000 C 434.500,258.000 434.972,258.111 434.500,260.000" stroke-width="12.564" stroke="rgb(33,33,33)" fill="none" stroke-linecap="round"></path><path d="M 434.500,260.000 C 433.972,262.111 433.280,261.919 432.500,264.000" stroke-width="12.647" stroke="rgb(33,33,33)" fill="none" stroke-linecap="round"></path><path d="M 432.500,264.000 C 431.780,265.919 432.066,266.019 431.500,268.000" stroke-width="12.784" stroke="rgb(33,33,33)" fill="none" stroke-linecap="round"></path><path d="M 431.500,268.000 C 431.066,269.519 431.000,269.500 430.500,271.000" stroke-width="13.096" stroke="rgb(33,33,33)" fill="none" stroke-linecap="round"></path><path d="M 430.500,271.000 C 430.000,272.500 429.806,272.469 429.500,274.000" stroke-width="13.435" stroke="rgb(33,33,33)" fill="none" stroke-linecap="round"></path><path d="M 429.500,274.000 C 429.306,274.969 429.857,275.108 429.500,276.000" stroke-width="13.909" stroke="rgb(33,33,33)" fill="none" stroke-linecap="round"></path><path d="M 429.500,276.000 C 428.857,277.608 428.577,277.563 427.500,279.000" stroke-width="13.797" stroke="rgb(33,33,33)" fill="none" stroke-linecap="round"></path><path d="M 427.500,279.000 C 427.077,279.563 426.707,279.379 426.500,280.000" stroke-width="14.367" stroke="rgb(33,33,33)" fill="none" stroke-linecap="round"></path><path d="M 426.500,280.000 C 426.207,280.879 426.793,281.121 426.500,282.000" stroke-width="14.759" stroke="rgb(33,33,33)" fill="none" stroke-linecap="round"></path><path d="M 426.500,282.000 C 426.293,282.621 426.000,282.500 425.500,283.000" stroke-width="15.134" stroke="rgb(33,33,33)" fill="none" stroke-linecap="round"></path><path d="M 425.500,283.000 C 425.000,283.500 424.793,283.414 424.500,284.000" stroke-width="15.508" stroke="rgb(33,33,33)" fill="none" stroke-linecap="round"></path><path d="M 424.500,284.000 C 424.293,284.414 424.707,284.586 424.500,285.000" stroke-width="15.949" stroke="rgb(33,33,33)" fill="none" stroke-linecap="round"></path><path d="M 424.500,285.000 C 424.207,285.586 424.000,285.500 423.500,286.000" stroke-width="16.186" stroke="rgb(33,33,33)" fill="none" stroke-linecap="round"></path><path d="M 423.500,286.000 C 423.000,286.500 423.121,286.793 422.500,287.000" stroke-width="16.618" stroke="rgb(33,33,33)" fill="none" stroke-linecap="round"></path><path d="M 422.500,287.000 C 421.621,287.293 421.379,286.707 420.500,287.000" stroke-width="17.005" stroke="rgb(33,33,33)" fill="none" stroke-linecap="round"></path><path d="M 420.500,287.000 C 419.879,287.207 420.086,287.707 419.500,288.000" stroke-width="17.045" stroke="rgb(33,33,33)" fill="none" stroke-linecap="round"></path><path d="M 419.500,288.000 C 419.086,288.207 419.000,288.000 418.500,288.000" stroke-width="17.228" stroke="rgb(33,33,33)" fill="none" stroke-linecap="round"></path><path d="M 418.500,288.000 C 418.000,288.000 418.000,288.000 417.500,288.000" stroke-width="17.324" stroke="rgb(33,33,33)" fill="none" stroke-linecap="round"></path><path d="M 417.500,288.000 C 416.500,288.000 416.500,288.000 415.500,288.000" stroke-width="17.087" stroke="rgb(33,33,33)" fill="none" stroke-linecap="round"></path><path d="M 415.500,288.000 C 415.000,288.000 415.000,288.000 414.500,288.000" stroke-width="17.262" stroke="rgb(33,33,33)" fill="none" stroke-linecap="round"></path><path d="M 414.500,288.000 C 414.000,288.000 414.000,288.000 413.500,288.000" stroke-width="17.405" stroke="rgb(33,33,33)" fill="none" stroke-linecap="round"></path><path d="M 413.500,288.000 C 412.500,288.000 412.500,288.000 411.500,288.000" stroke-width="17.150" stroke="rgb(33,33,33)" fill="none" stroke-linecap="round"></path><path d="M 411.500,288.000 C 411.000,288.000 411.000,288.000 410.500,288.000" stroke-width="17.313" stroke="rgb(33,33,33)" fill="none" stroke-linecap="round"></path><path d="M 410.500,288.000 C 409.500,288.000 409.500,288.000 408.500,288.000" stroke-width="17.446" stroke="rgb(33,33,33)" fill="none" stroke-linecap="round"></path><path d="M 408.500,288.000 C 408.000,288.000 407.914,288.207 407.500,288.000" stroke-width="17.554" stroke="rgb(33,33,33)" fill="none" stroke-linecap="round"></path><path d="M 407.500,288.000 C 406.914,287.707 407.081,287.387 406.500,287.000" stroke-width="17.484" stroke="rgb(33,33,33)" fill="none" stroke-linecap="round"></path><path d="M 406.500,287.000 C 405.581,286.387 405.419,286.613 404.500,286.000" stroke-width="17.125" stroke="rgb(33,33,33)" fill="none" stroke-linecap="round"></path><path d="M 404.500,286.000 C 403.919,285.613 404.000,285.500 403.500,285.000" stroke-width="17.142" stroke="rgb(33,33,33)" fill="none" stroke-linecap="round"></path><path d="M 403.500,285.000 C 403.000,284.500 403.086,284.293 402.500,284.000" stroke-width="17.155" stroke="rgb(33,33,33)" fill="none" stroke-linecap="round"></path><path d="M 402.500,284.000 C 402.086,283.793 401.914,284.207 401.500,284.000" stroke-width="17.318" stroke="rgb(33,33,33)" fill="none" stroke-linecap="round"></path><path d="M 401.500,284.000 C 400.914,283.707 401.086,283.293 400.500,283.000" stroke-width="17.296" stroke="rgb(33,33,33)" fill="none" stroke-linecap="round"></path><path d="M 400.500,283.000 C 400.086,282.793 399.750,283.250 399.500,283.000" stroke-width="17.432" stroke="rgb(33,33,33)" fill="none" stroke-linecap="round"></path><path d="M 399.500,283.000 C 399.250,282.750 399.500,282.500 399.500,282.000" stroke-width="17.735" stroke="rgb(33,33,33)" fill="none" stroke-linecap="round"></path><path d="M 399.500,282.000 C 399.500,281.500 399.500,281.500 399.500,281.000" stroke-width="18.136" stroke="rgb(33,33,33)" fill="none" stroke-linecap="round"></path><path d="M 399.500,281.000 C 399.500,280.000 399.264,279.944 399.500,279.000" stroke-width="17.712" stroke="rgb(33,33,33)" fill="none" stroke-linecap="round"></path><path d="M 423.500,180.000 C 423.500,179.500 423.250,179.250 423.500,179.000" stroke-width="19.756" stroke="rgb(33,33,33)" fill="none" stroke-linecap="round"></path><path d="M 423.500,179.000 C 423.750,178.750 424.250,179.250 424.500,179.000" stroke-width="19.378" stroke="rgb(33,33,33)" fill="none" stroke-linecap="round"></path><path d="M 424.500,179.000 C 424.750,178.750 424.167,178.167 424.500,178.000" stroke-width="19.086" stroke="rgb(33,33,33)" fill="none" stroke-linecap="round"></path><path d="M 424.500,178.000 C 425.167,177.667 425.500,178.000 426.500,178.000" stroke-width="18.429" stroke="rgb(33,33,33)" fill="none" stroke-linecap="round"></path><path d="M 426.500,178.000 C 427.500,178.000 427.556,178.236 428.500,178.000" stroke-width="17.936" stroke="rgb(33,33,33)" fill="none" stroke-linecap="round"></path><path d="M 428.500,178.000 C 429.556,177.736 429.432,177.214 430.500,177.000" stroke-width="17.470" stroke="rgb(33,33,33)" fill="none" stroke-linecap="round"></path><path d="M 430.500,177.000 C 431.932,176.714 432.000,177.000 433.500,177.000" stroke-width="16.843" stroke="rgb(33,33,33)" fill="none" stroke-linecap="round"></path><path d="M 433.500,177.000 C 434.500,177.000 434.520,177.163 435.500,177.000" stroke-width="16.612" stroke="rgb(33,33,33)" fill="none" stroke-linecap="round"></path><path d="M 435.500,177.000 C 437.520,176.663 437.470,176.254 439.500,176.000" stroke-width="15.985" stroke="rgb(33,33,33)" fill="none" stroke-linecap="round"></path><path d="M 439.500,176.000 C 441.470,175.754 441.516,176.198 443.500,176.000" stroke-width="15.417" stroke="rgb(33,33,33)" fill="none" stroke-linecap="round"></path><path d="M 443.500,176.000 C 446.516,175.698 446.619,175.864 449.500,175.000" stroke-width="14.215" stroke="rgb(33,33,33)" fill="none" stroke-linecap="round"></path><path d="M 449.500,175.000 C 451.619,174.364 451.369,173.581 453.500,173.000" stroke-width="14.072" stroke="rgb(33,33,33)" fill="none" stroke-linecap="round"></path><path d="M 453.500,173.000 C 456.869,172.081 456.996,172.467 460.500,172.000" stroke-width="13.253" stroke="rgb(33,33,33)" fill="none" stroke-linecap="round"></path><path d="M 460.500,172.000 C 464.496,171.467 464.504,171.533 468.500,171.000" stroke-width="12.470" stroke="rgb(33,33,33)" fill="none" stroke-linecap="round"></path><path d="M 468.500,171.000 C 472.004,170.533 471.996,170.467 475.500,170.000" stroke-width="12.083" stroke="rgb(33,33,33)" fill="none" stroke-linecap="round"></path><path d="M 475.500,170.000 C 479.496,169.467 479.497,169.471 483.500,169.000" stroke-width="11.623" stroke="rgb(33,33,33)" fill="none" stroke-linecap="round"></path><path d="M 483.500,169.000 C 487.997,168.471 488.040,168.743 492.500,168.000" stroke-width="11.125" stroke="rgb(33,33,33)" fill="none" stroke-linecap="round"></path><path d="M 492.500,168.000 C 497.040,167.243 496.949,166.535 501.500,166.000" stroke-width="10.733" stroke="rgb(33,33,33)" fill="none" stroke-linecap="round"></path><path d="M 501.500,166.000 C 505.449,165.535 505.551,166.465 509.500,166.000" stroke-width="10.606" stroke="rgb(33,33,33)" fill="none" stroke-linecap="round"></path><path d="M 509.500,166.000 C 514.051,165.465 513.981,164.904 518.500,164.000" stroke-width="10.342" stroke="rgb(33,33,33)" fill="none" stroke-linecap="round"></path><path d="M 518.500,164.000 C 521.481,163.404 521.486,163.335 524.500,163.000" stroke-width="10.437" stroke="rgb(33,33,33)" fill="none" stroke-linecap="round"></path><path d="M 524.500,163.000 C 525.986,162.835 526.000,163.000 527.500,163.000" stroke-width="11.134" stroke="rgb(33,33,33)" fill="none" stroke-linecap="round"></path><path d="M 527.500,163.000 C 529.000,163.000 529.000,163.000 530.500,163.000" stroke-width="11.705" stroke="rgb(33,33,33)" fill="none" stroke-linecap="round"></path><path d="M 524.500,162.000 C 524.000,163.500 523.642,163.442 523.500,165.000" stroke-width="20.020" stroke="rgb(33,33,33)" fill="none" stroke-linecap="round"></path><path d="M 523.500,165.000 C 523.142,168.942 523.722,169.011 523.500,173.000" stroke-width="17.060" stroke="rgb(33,33,33)" fill="none" stroke-linecap="round"></path><path d="M 523.500,173.000 C 523.222,178.011 522.976,177.998 522.500,183.000" stroke-width="14.456" stroke="rgb(33,33,33)" fill="none" stroke-linecap="round"></path><path d="M 522.500,183.000 C 521.976,188.498 522.214,188.527 521.500,194.000" stroke-width="12.682" stroke="rgb(33,33,33)" fill="none" stroke-linecap="round"></path><path d="M 521.500,194.000 C 520.714,200.027 520.196,199.964 519.500,206.000" stroke-width="11.366" stroke="rgb(33,33,33)" fill="none" stroke-linecap="round"></path><path d="M 519.500,206.000 C 518.696,212.964 519.563,213.090 518.500,220.000" stroke-width="10.247" stroke="rgb(33,33,33)" fill="none" stroke-linecap="round"></path><path d="M 518.500,220.000 C 517.563,226.090 516.474,225.915 515.500,232.000" stroke-width="9.688" stroke="rgb(33,33,33)" fill="none" stroke-linecap="round"></path><path d="M 515.500,232.000 C 514.474,238.415 514.750,238.490 514.500,245.000" stroke-width="9.213" stroke="rgb(33,33,33)" fill="none" stroke-linecap="round"></path><path d="M 514.500,245.000 C 514.250,251.490 514.500,251.500 514.500,258.000" stroke-width="9.011" stroke="rgb(33,33,33)" fill="none" stroke-linecap="round"></path><path d="M 514.500,258.000 C 514.500,263.500 514.500,263.500 514.500,269.000" stroke-width="8.758" stroke="rgb(33,33,33)" fill="none" stroke-linecap="round"></path><path d="M 514.500,269.000 C 514.500,274.500 514.500,274.500 514.500,280.000" stroke-width="8.711" stroke="rgb(33,33,33)" fill="none" stroke-linecap="round"></path><path d="M 514.500,280.000 C 514.500,284.000 514.500,284.000 514.500,288.000" stroke-width="8.961" stroke="rgb(33,33,33)" fill="none" stroke-linecap="round"></path><path d="M 514.500,288.000 C 514.500,292.000 514.500,292.000 514.500,296.000" stroke-width="9.172" stroke="rgb(33,33,33)" fill="none" stroke-linecap="round"></path><path d="M 514.500,296.000 C 514.500,299.000 514.500,299.000 514.500,302.000" stroke-width="9.473" stroke="rgb(33,33,33)" fill="none" stroke-linecap="round"></path><path d="M 514.500,302.000 C 514.500,305.500 514.500,305.500 514.500,309.000" stroke-width="9.712" stroke="rgb(33,33,33)" fill="none" stroke-linecap="round"></path><path d="M 514.500,309.000 C 514.500,312.000 514.500,312.000 514.500,315.000" stroke-width="10.034" stroke="rgb(33,33,33)" fill="none" stroke-linecap="round"></path><path d="M 514.500,315.000 C 514.500,316.000 514.500,316.000 514.500,317.000" stroke-width="10.861" stroke="rgb(33,33,33)" fill="none" stroke-linecap="round"></path><path d="M 514.500,317.000 C 514.500,318.500 514.500,318.500 514.500,320.000" stroke-width="11.517" stroke="rgb(33,33,33)" fill="none" stroke-linecap="round"></path><path d="M 514.500,320.000 C 514.500,321.500 514.500,321.500 514.500,323.000" stroke-width="12.042" stroke="rgb(33,33,33)" fill="none" stroke-linecap="round"></path><path d="M 514.500,323.000 C 514.500,323.500 514.500,323.500 514.500,324.000" stroke-width="12.866" stroke="rgb(33,33,33)" fill="none" stroke-linecap="round"></path><path d="M 514.500,324.000 C 514.500,324.500 514.500,324.500 514.500,325.000" stroke-width="13.645" stroke="rgb(33,33,33)" fill="none" stroke-linecap="round"></path><path d="M 514.500,325.000 C 514.500,325.500 514.500,325.500 514.500,326.000" stroke-width="14.339" stroke="rgb(33,33,33)" fill="none" stroke-linecap="round"></path><path d="M 514.500,326.000 C 514.500,327.000 514.500,327.000 514.500,328.000" stroke-width="14.947" stroke="rgb(33,33,33)" fill="none" stroke-linecap="round"></path></svg>