<svg xmlns="http://www.w3.org/2000/svg" xmlns:xlink="http://www.w3.org/1999/xlink" viewBox="0 0 800 500"><path d="M 145.000,281.000 C 145.500,281.000 145.500,281.000 146.000,281.000" stroke-width="20.204" stroke="rgb(33,33,33)" fill="none" stroke-linecap="round"></path><path d="M 146.000,281.000 C 151.000,281.000 151.086,281.768 156.000,281.000" stroke-width="18.195" stroke="rgb(33,33,33)" fill="none" stroke-linecap="round"></path><path d="M 156.000,281.000 C 167.086,279.268 167.209,279.214 178.000,276.000" stroke-width="14.936" stroke="rgb(33,33,33)" fill="none" stroke-linecap="round"></path><path d="M 178.000,276.000 C 190.709,272.214 190.399,271.200 203.000,267.000" stroke-width="12.678" stroke="rgb(33,33,33)" fill="none" stroke-linecap="round"></path><path d="M 203.000,267.000 C 218.899,261.700 219.403,263.052 235.000,257.000" stroke-width="10.816" stroke="rgb(33,33,33)" fill="none" stroke-linecap="round"></path><path d="M 235.000,257.000 C 252.903,250.052 252.445,248.877 270.000,241.000" stroke-width="9.416" stroke="rgb(33,33,33)" fill="none" stroke-linecap="round"></path><path d="M 270.000,241.000 C 291.445,231.377 291.594,231.707 313.000,222.000" stroke-width="8.187" stroke="rgb(33,33,33)" fill="none" stroke-linecap="round"></path><path d="M 313.000,222.000 C 334.594,212.207 334.084,210.997 356.000,202.000" stroke-width="7.484" stroke="rgb(33,33,33)" fill="none" stroke-linecap="round"></path><path d="M 356.000,202.000 C 381.584,191.497 381.750,191.750 408.000,183.000" stroke-width="6.750" stroke="rgb(33,33,33)" fill="none" stroke-linecap="round"></path><path d="M 408.000,183.000 C 434.250,174.250 434.478,174.926 461.000,167.000" stroke-width="6.750" stroke="rgb(33,33,33)" fill="none" stroke-linecap="round"></path><path d="M 461.000,167.000 C 477.978,161.926 478.124,162.391 495.000,157.000" stroke-width="6.750" stroke="rgb(33,33,33)" fill="none" stroke-linecap="round"></path><path d="M 495.000,157.000 C 514.124,150.891 514.053,150.648 533.000,144.000" stroke-width="6.750" stroke="rgb(33,33,33)" fill="none" stroke-linecap="round"></path><path d="M 533.000,144.000 C 542.553,140.648 542.581,140.700 552.000,137.000" stroke-width="6.750" stroke="rgb(33,33,33)" fill="none" stroke-linecap="round"></path><path d="M 552.000,137.000 C 556.581,135.200 556.539,135.082 561.000,133.000" stroke-width="7.451" stroke="rgb(33,33,33)" fill="none" stroke-linecap="round"></path><path d="M 561.000,133.000 C 564.039,131.582 564.000,131.500 567.000,130.000" stroke-width="8.254" stroke="rgb(33,33,33)" fill="none" stroke-linecap="round"></path><path d="M 567.000,130.000 C 569.000,129.000 568.957,128.817 571.000,128.000" stroke-width="9.141" stroke="rgb(33,33,33)" fill="none" stroke-linecap="round"></path><path d="M 571.000,128.000 C 571.457,127.817 572.000,128.000 572.000,128.000" stroke-width="10.203" stroke="rgb(33,33,33)" fill="none" stroke-linecap="round"></path><path d="M 572.000,128.000 C 572.000,128.000 571.500,128.000 571.000,128.000" stroke-width="11.317" stroke="rgb(33,33,33)" fill="none" stroke-linecap="round"></path><path d="M 571.000,128.000 C 570.500,128.000 570.500,128.000 570.000,128.000" stroke-width="12.323" stroke="rgb(33,33,33)" fill="none" stroke-linecap="round"></path><path d="M 570.000,128.000 C 569.000,128.000 568.961,127.760 568.000,128.000" stroke-width="13.165" stroke="rgb(33,33,33)" fill="none" stroke-linecap="round"></path><path d="M 568.000,128.000 C 564.961,128.760 565.033,129.108 562.000,130.000" stroke-width="13.456" stroke="rgb(33,33,33)" fill="none" stroke-linecap="round"></path><path d="M 562.000,130.000 C 556.533,131.608 556.530,131.618 551.000,133.000" stroke-width="13.166" stroke="rgb(33,33,33)" fill="none" stroke-linecap="round"></path><path d="M 551.000,133.000 C 542.530,135.118 542.572,135.367 534.000,137.000" stroke-width="12.378" stroke="rgb(33,33,33)" fill="none" stroke-linecap="round"></path><path d="M 534.000,137.000 C 521.572,139.367 521.548,139.354 509.000,141.000" stroke-width="11.313" stroke="rgb(33,33,33)" fill="none" stroke-linecap="round"></path><path d="M 509.000,141.000 C 491.048,143.354 491.016,143.152 473.000,145.000" stroke-width="9.839" stroke="rgb(33,33,33)" fill="none" stroke-linecap="round"></path><path d="M 473.000,145.000 C 452.016,147.152 452.000,147.000 431.000,149.000" stroke-width="8.530" stroke="rgb(33,33,33)" fill="none" stroke-linecap="round"></path><path d="M 431.000,149.000 C 410.000,151.000 409.963,150.671 389.000,153.000" stroke-width="7.802" stroke="rgb(33,33,33)" fill="none" stroke-linecap="round"></path><path d="M 389.000,153.000 C 369.463,155.171 369.427,155.032 350.000,158.000" stroke-width="7.463" stroke="rgb(33,33,33)" fill="none" stroke-linecap="round"></path><path d="M 350.000,158.000 C 333.427,160.532 333.419,160.612 317.000,164.000" stroke-width="7.323" stroke="rgb(33,33,33)" fill="none" stroke-linecap="round"></path><path d="M 317.000,164.000 C 301.919,167.112 302.058,167.773 287.000,171.000" stroke-width="7.352" stroke="rgb(33,33,33)" fill="none" stroke-linecap="round"></path><path d="M 287.000,171.000 C 274.058,173.773 274.011,173.560 261.000,176.000" stroke-width="7.405" stroke="rgb(33,33,33)" fill="none" stroke-linecap="round"></path><path d="M 261.000,176.000 C 250.011,178.060 249.960,177.808 239.000,180.000" stroke-width="7.682" stroke="rgb(33,33,33)" fill="none" stroke-linecap="round"></path><path d="M 239.000,180.000 C 232.460,181.308 232.538,181.692 226.000,183.000" stroke-width="8.212" stroke="rgb(33,33,33)" fill="none" stroke-linecap="round"></path><path d="M 226.000,183.000 C 220.038,184.192 220.037,184.451 214.000,185.000" stroke-width="8.711" stroke="rgb(33,33,33)" fill="none" stroke-linecap="round"></path><path d="M 214.000,185.000 C 209.037,185.451 209.000,185.000 204.000,185.000" stroke-width="9.328" stroke="rgb(33,33,33)" fill="none" stroke-linecap="round"></path><path d="M 204.000,185.000 C 201.500,185.000 201.500,185.000 199.000,185.000" stroke-width="10.148" stroke="rgb(33,33,33)" fill="none" stroke-linecap="round"></path><path d="M 199.000,185.000 C 197.000,185.000 197.000,185.000 195.000,185.000" stroke-width="11.014" stroke="rgb(33,33,33)" fill="none" stroke-linecap="round"></path><path d="M 195.000,185.000 C 194.500,185.000 194.000,185.000 194.000,185.000" stroke-width="12.035" stroke="rgb(33,33,33)" fill="none" stroke-linecap="round"></path><path d="M 194.000,185.000 C 194.000,185.000 194.760,184.640 195.000,185.000" stroke-width="13.090" stroke="rgb(33,33,33)" fill="none" stroke-linecap="round"></path><path d="M 195.000,185.000 C 195.760,186.140 195.225,186.644 196.000,188.000" stroke-width="13.731" stroke="rgb(33,33,33)" fill="none" stroke-linecap="round"></path><path d="M 196.000,188.000 C 197.225,190.144 197.614,189.922 199.000,192.000" stroke-width="14.076" stroke="rgb(33,33,33)" fill="none" stroke-linecap="round"></path><path d="M 199.000,192.000 C 201.614,195.922 201.901,195.802 204.000,200.000" stroke-width="13.911" stroke="rgb(33,33,33)" fill="none" stroke-linecap="round"></path><path d="M 204.000,200.000 C 205.901,203.802 205.589,203.969 207.000,208.000" stroke-width="13.822" stroke="rgb(33,33,33)" fill="none" stroke-linecap="round"></path><path d="M 207.000,208.000 C 209.089,213.969 208.751,214.097 211.000,220.000" stroke-width="13.315" stroke="rgb(33,33,33)" fill="none" stroke-linecap="round"></path><path d="M 211.000,220.000 C 212.751,224.597 213.249,224.403 215.000,229.000" stroke-width="13.213" stroke="rgb(33,33,33)" fill="none" stroke-linecap="round"></path><path d="M 215.000,229.000 C 217.249,234.903 216.699,235.118 219.000,241.000" stroke-width="12.858" stroke="rgb(33,33,33)" fill="none" stroke-linecap="round"></path><path d="M 219.000,241.000 C 221.199,246.618 222.023,246.317 224.000,252.000" stroke-width="12.759" stroke="rgb(33,33,33)" fill="none" stroke-linecap="round"></path><path d="M 224.000,252.000 C 226.023,257.817 225.426,258.020 227.000,264.000" stroke-width="12.537" stroke="rgb(33,33,33)" fill="none" stroke-linecap="round"></path><path d="M 227.000,264.000 C 227.926,267.520 227.699,267.617 229.000,271.000" stroke-width="12.834" stroke="rgb(33,33,33)" fill="none" stroke-linecap="round"></path><path d="M 229.000,271.000 C 230.199,274.117 230.864,273.875 232.000,277.000" stroke-width="13.097" stroke="rgb(33,33,33)" fill="none" stroke-linecap="round"></path><path d="M 232.000,277.000 C 232.864,279.375 232.447,279.512 233.000,282.000" stroke-width="13.558" stroke="rgb(33,33,33)" fill="none" stroke-linecap="round"></path><path d="M 233.000,282.000 C 233.447,284.012 233.255,284.138 234.000,286.000" stroke-width="14.001" stroke="rgb(33,33,33)" fill="none" stroke-linecap="round"></path><path d="M 234.000,286.000 C 234.255,286.638 234.500,286.500 235.000,287.000" stroke-width="14.741" stroke="rgb(33,33,33)" fill="none" stroke-linecap="round"></path><path d="M 235.000,287.000 C 235.500,287.500 235.793,287.379 236.000,288.000" stroke-width="15.392" stroke="rgb(33,33,33)" fill="none" stroke-linecap="round"></path><path d="M 236.000,288.000 C 236.293,288.879 235.837,289.020 236.000,290.000" stroke-width="15.870" stroke="rgb(33,33,33)" fill="none" stroke-linecap="round"></path><path d="M 236.000,290.000 C 236.337,292.020 236.596,291.980 237.000,294.000" stroke-width="15.953" stroke="rgb(33,33,33)" fill="none" stroke-linecap="round"></path><path d="M 237.000,294.000 C 237.596,296.980 237.204,297.083 238.000,300.000" stroke-width="15.734" stroke="rgb(33,33,33)" fill="none" stroke-linecap="round"></path><path d="M 238.000,300.000 C 238.704,302.583 238.704,302.667 240.000,305.000" stroke-width="15.614" stroke="rgb(33,33,33)" fill="none" stroke-linecap="round"></path><path d="M 240.000,305.000 C 241.204,307.167 241.618,306.927 243.000,309.000" stroke-width="15.621" stroke="rgb(33,33,33)" fill="none" stroke-linecap="round"></path><path d="M 243.000,309.000 C 243.618,309.927 243.655,309.964 244.000,311.000" stroke-width="16.028" stroke="rgb(33,33,33)" fill="none" stroke-linecap="round"></path><path d="M 244.000,311.000 C 244.155,311.464 243.750,311.750 244.000,312.000" stroke-width="16.573" stroke="rgb(33,33,33)" fill="none" stroke-linecap="round"></path><path d="M 244.000,312.000 C 244.250,312.250 244.500,312.000 245.000,312.000" stroke-width="17.037" stroke="rgb(33,33,33)" fill="none" stroke-linecap="round"></path><path d="M 245.000,312.000 C 245.000,312.000 245.000,312.000 245.000,312.000" stroke-width="17.595" stroke="rgb(33,33,33)" fill="none" stroke-linecap="round"></path><path d="M 245.000,312.000 C 245.500,312.000 245.750,312.250 246.000,312.000" stroke-width="18.032" stroke="rgb(33,33,33)" fill="none" stroke-linecap="round"></path><path d="M 246.000,312.000 C 246.250,311.750 245.635,311.274 246.000,311.000" stroke-width="18.240" stroke="rgb(33,33,33)" fill="none" stroke-linecap="round"></path><path d="M 246.000,311.000 C 247.635,309.774 248.000,310.000 250.000,309.000" stroke-width="17.797" stroke="rgb(33,33,33)" fill="none" stroke-linecap="round"></path><path d="M 250.000,309.000 C 254.000,307.000 254.039,307.075 258.000,305.000" stroke-width="16.660" stroke="rgb(33,33,33)" fill="none" stroke-linecap="round"></path><path d="M 258.000,305.000 C 264.539,301.575 264.554,301.598 271.000,298.000" stroke-width="14.923" stroke="rgb(33,33,33)" fill="none" stroke-linecap="round"></path><path d="M 271.000,298.000 C 286.054,289.598 285.692,288.918 301.000,281.000" stroke-width="11.974" stroke="rgb(33,33,33)" fill="none" stroke-linecap="round"></path><path d="M 301.000,281.000 C 329.192,266.418 329.714,267.424 358.000,253.000" stroke-width="8.966" stroke="rgb(33,33,33)" fill="none" stroke-linecap="round"></path><path d="M 358.000,253.000 C 405.214,228.924 404.780,228.069 452.000,204.000" stroke-width="6.750" stroke="rgb(33,33,33)" fill="none" stroke-linecap="round"></path><path d="M 452.000,204.000 C 507.780,175.569 507.625,175.224 564.000,148.000" stroke-width="6.750" stroke="rgb(33,33,33)" fill="none" stroke-linecap="round"></path></svg>