<svg xmlns="http://www.w3.org/2000/svg" xmlns:xlink="http://www.w3.org/1999/xlink" viewBox="0 0 800 500"><path d="M 381.000,137.000 C 375.000,135.000 375.199,133.775 369.000,133.000" stroke-width="16.951" stroke="rgb(33,33,33)" fill="none" stroke-linecap="round"></path><path d="M 369.000,133.000 C 359.199,131.775 359.000,133.000 349.000,133.000" stroke-width="11.112" stroke="rgb(33,33,33)" fill="none" stroke-linecap="round"></path><path d="M 349.000,133.000 C 333.000,133.000 332.897,131.657 317.000,133.000" stroke-width="9.241" stroke="rgb(33,33,33)" fill="none" stroke-linecap="round"></path><path d="M 317.000,133.000 C 297.397,134.657 297.012,134.071 278.000,139.000" stroke-width="8.550" stroke="rgb(33,33,33)" fill="none" stroke-linecap="round"></path><path d="M 278.000,139.000 C 256.512,144.571 256.589,145.507 236.000,154.000" stroke-width="7.413" stroke="rgb(33,33,33)" fill="none" stroke-linecap="round"></path><path d="M 236.000,154.000 C 216.589,162.007 216.009,161.358 198.000,172.000" stroke-width="7.160" stroke="rgb(33,33,33)" fill="none" stroke-linecap="round"></path><path d="M 198.000,172.000 C 183.009,180.858 182.542,181.042 170.000,193.000" stroke-width="7.045" stroke="rgb(33,33,33)" fill="none" stroke-linecap="round"></path><path d="M 170.000,193.000 C 161.042,201.542 160.986,202.225 155.000,213.000" stroke-width="7.454" stroke="rgb(33,33,33)" fill="none" stroke-linecap="round"></path><path d="M 155.000,213.000 C 150.986,220.225 151.089,220.836 150.000,229.000" stroke-width="7.696" stroke="rgb(33,33,33)" fill="none" stroke-linecap="round"></path><path d="M 150.000,229.000 C 149.089,235.836 147.317,238.017 151.000,243.000" stroke-width="7.976" stroke="rgb(33,33,33)" fill="none" stroke-linecap="round"></path><path d="M 151.000,243.000 C 155.817,249.517 158.296,249.729 167.000,252.000" stroke-width="8.386" stroke="rgb(33,33,33)" fill="none" stroke-linecap="round"></path><path d="M 167.000,252.000 C 181.296,255.729 181.959,254.327 197.000,255.000" stroke-width="7.992" stroke="rgb(33,33,33)" fill="none" stroke-linecap="round"></path><path d="M 197.000,255.000 C 215.459,255.827 215.729,257.175 234.000,255.000" stroke-width="7.739" stroke="rgb(33,33,33)" fill="none" stroke-linecap="round"></path><path d="M 234.000,255.000 C 257.729,252.175 257.785,251.097 281.000,245.000" stroke-width="6.750" stroke="rgb(33,33,33)" fill="none" stroke-linecap="round"></path><path d="M 281.000,245.000 C 307.285,238.097 307.123,237.379 333.000,229.000" stroke-width="6.750" stroke="rgb(33,33,33)" fill="none" stroke-linecap="round"></path><path d="M 333.000,229.000 C 359.623,220.379 359.821,220.850 386.000,211.000" stroke-width="6.750" stroke="rgb(33,33,33)" fill="none" stroke-linecap="round"></path><path d="M 386.000,211.000 C 410.321,201.850 410.387,201.834 434.000,191.000" stroke-width="6.750" stroke="rgb(33,33,33)" fill="none" stroke-linecap="round"></path><path d="M 434.000,191.000 C 452.887,182.334 453.014,182.365 471.000,172.000" stroke-width="6.750" stroke="rgb(33,33,33)" fill="none" stroke-linecap="round"></path><path d="M 471.000,172.000 C 482.514,165.365 483.492,165.804 493.000,157.000" stroke-width="6.750" stroke="rgb(33,33,33)" fill="none" stroke-linecap="round"></path><path d="M 493.000,157.000 C 496.992,153.304 497.405,152.056 498.000,147.000" stroke-width="6.750" stroke="rgb(33,33,33)" fill="none" stroke-linecap="round"></path><path d="M 498.000,147.000 C 498.405,143.556 498.339,140.809 495.000,140.000" stroke-width="7.335" stroke="rgb(33,33,33)" fill="none" stroke-linecap="round"></path><path d="M 495.000,140.000 C 481.839,136.809 479.970,138.401 465.000,139.000" stroke-width="7.137" stroke="rgb(33,33,33)" fill="none" stroke-linecap="round"></path><path d="M 465.000,139.000 C 442.470,139.901 442.093,138.760 420.000,143.000" stroke-width="6.875" stroke="rgb(33,33,33)" fill="none" stroke-linecap="round"></path><path d="M 420.000,143.000 C 392.593,148.260 392.607,149.297 366.000,158.000" stroke-width="6.750" stroke="rgb(33,33,33)" fill="none" stroke-linecap="round"></path><path d="M 366.000,158.000 C 339.107,166.797 339.201,167.270 313.000,178.000" stroke-width="6.750" stroke="rgb(33,33,33)" fill="none" stroke-linecap="round"></path><path d="M 313.000,178.000 C 286.701,188.770 286.264,188.087 261.000,201.000" stroke-width="6.750" stroke="rgb(33,33,33)" fill="none" stroke-linecap="round"></path><path d="M 261.000,201.000 C 241.264,211.087 240.933,211.101 223.000,224.000" stroke-width="6.750" stroke="rgb(33,33,33)" fill="none" stroke-linecap="round"></path><path d="M 223.000,224.000 C 212.433,231.601 212.408,232.190 204.000,242.000" stroke-width="6.750" stroke="rgb(33,33,33)" fill="none" stroke-linecap="round"></path><path d="M 204.000,242.000 C 200.408,246.190 200.295,246.819 199.000,252.000" stroke-width="6.750" stroke="rgb(33,33,33)" fill="none" stroke-linecap="round"></path><path d="M 199.000,252.000 C 198.295,254.819 197.625,256.875 200.000,258.000" stroke-width="7.076" stroke="rgb(33,33,33)" fill="none" stroke-linecap="round"></path><path d="M 200.000,258.000 C 207.125,261.375 208.925,260.408 218.000,261.000" stroke-width="7.743" stroke="rgb(33,33,33)" fill="none" stroke-linecap="round"></path><path d="M 218.000,261.000 C 231.925,261.908 232.249,262.964 246.000,261.000" stroke-width="6.750" stroke="rgb(33,33,33)" fill="none" stroke-linecap="round"></path><path d="M 246.000,261.000 C 263.749,258.464 263.593,256.835 281.000,252.000" stroke-width="6.750" stroke="rgb(33,33,33)" fill="none" stroke-linecap="round"></path><path d="M 281.000,252.000 C 299.593,246.835 299.434,246.269 318.000,241.000" stroke-width="6.750" stroke="rgb(33,33,33)" fill="none" stroke-linecap="round"></path><path d="M 318.000,241.000 C 336.434,235.769 336.385,235.521 355.000,231.000" stroke-width="6.750" stroke="rgb(33,33,33)" fill="none" stroke-linecap="round"></path><path d="M 355.000,231.000 C 371.385,227.021 371.498,227.491 388.000,224.000" stroke-width="6.750" stroke="rgb(33,33,33)" fill="none" stroke-linecap="round"></path><path d="M 388.000,224.000 C 397.498,221.991 397.453,221.705 407.000,220.000" stroke-width="6.750" stroke="rgb(33,33,33)" fill="none" stroke-linecap="round"></path><path d="M 407.000,220.000 C 411.453,219.205 416.959,218.425 416.000,219.000" stroke-width="6.773" stroke="rgb(33,33,33)" fill="none" stroke-linecap="round"></path><path d="M 416.000,219.000 C 414.459,219.925 408.973,220.908 402.000,223.000" stroke-width="7.555" stroke="rgb(33,33,33)" fill="none" stroke-linecap="round"></path><path d="M 402.000,223.000 C 393.973,225.408 393.874,225.165 386.000,228.000" stroke-width="7.968" stroke="rgb(33,33,33)" fill="none" stroke-linecap="round"></path><path d="M 386.000,228.000 C 381.374,229.665 381.470,229.937 377.000,232.000" stroke-width="8.703" stroke="rgb(33,33,33)" fill="none" stroke-linecap="round"></path><path d="M 377.000,232.000 C 374.970,232.937 374.899,232.860 373.000,234.000" stroke-width="9.480" stroke="rgb(33,33,33)" fill="none" stroke-linecap="round"></path><path d="M 373.000,234.000 C 372.399,234.360 372.293,234.414 372.000,235.000" stroke-width="10.517" stroke="rgb(33,33,33)" fill="none" stroke-linecap="round"></path><path d="M 372.000,235.000 C 371.793,235.414 371.583,235.917 372.000,236.000" stroke-width="11.562" stroke="rgb(33,33,33)" fill="none" stroke-linecap="round"></path><path d="M 372.000,236.000 C 374.083,236.417 374.508,236.166 377.000,236.000" stroke-width="12.141" stroke="rgb(33,33,33)" fill="none" stroke-linecap="round"></path><path d="M 377.000,236.000 C 382.008,235.666 382.202,236.263 387.000,235.000" stroke-width="12.254" stroke="rgb(33,33,33)" fill="none" stroke-linecap="round"></path><path d="M 387.000,235.000 C 391.702,233.763 391.600,233.200 396.000,231.000" stroke-width="12.412" stroke="rgb(33,33,33)" fill="none" stroke-linecap="round"></path><path d="M 396.000,231.000 C 400.600,228.700 400.513,228.524 405.000,226.000" stroke-width="12.329" stroke="rgb(33,33,33)" fill="none" stroke-linecap="round"></path><path d="M 405.000,226.000 C 408.513,224.024 408.698,224.286 412.000,222.000" stroke-width="12.587" stroke="rgb(33,33,33)" fill="none" stroke-linecap="round"></path><path d="M 412.000,222.000 C 415.198,219.786 415.256,219.744 418.000,217.000" stroke-width="12.825" stroke="rgb(33,33,33)" fill="none" stroke-linecap="round"></path><path d="M 418.000,217.000 C 419.756,215.244 419.441,214.949 421.000,213.000" stroke-width="13.360" stroke="rgb(33,33,33)" fill="none" stroke-linecap="round"></path><path d="M 421.000,213.000 C 421.441,212.449 422.000,212.293 422.000,212.000" stroke-width="14.133" stroke="rgb(33,33,33)" fill="none" stroke-linecap="round"></path><path d="M 422.000,212.000 C 422.000,211.793 421.397,211.716 421.000,212.000" stroke-width="14.911" stroke="rgb(33,33,33)" fill="none" stroke-linecap="round"></path><path d="M 421.000,212.000 C 417.897,214.216 417.368,214.041 415.000,217.000" stroke-width="14.631" stroke="rgb(33,33,33)" fill="none" stroke-linecap="round"></path><path d="M 415.000,217.000 C 413.368,219.041 413.945,219.480 413.000,222.000" stroke-width="14.775" stroke="rgb(33,33,33)" fill="none" stroke-linecap="round"></path><path d="M 413.000,222.000 C 412.445,223.480 412.380,223.481 412.000,225.000" stroke-width="15.184" stroke="rgb(33,33,33)" fill="none" stroke-linecap="round"></path><path d="M 412.000,225.000 C 411.880,225.481 411.563,225.938 412.000,226.000" stroke-width="15.827" stroke="rgb(33,33,33)" fill="none" stroke-linecap="round"></path><path d="M 412.000,226.000 C 415.063,226.438 416.186,227.655 419.000,226.000" stroke-width="15.506" stroke="rgb(33,33,33)" fill="none" stroke-linecap="round"></path><path d="M 419.000,226.000 C 424.686,222.655 424.225,221.209 429.000,216.000" stroke-width="14.445" stroke="rgb(33,33,33)" fill="none" stroke-linecap="round"></path><path d="M 429.000,216.000 C 435.225,209.209 435.665,209.469 441.000,202.000" stroke-width="12.920" stroke="rgb(33,33,33)" fill="none" stroke-linecap="round"></path><path d="M 441.000,202.000 C 445.665,195.469 445.819,195.317 449.000,188.000" stroke-width="12.321" stroke="rgb(33,33,33)" fill="none" stroke-linecap="round"></path><path d="M 449.000,188.000 C 450.819,183.817 450.303,183.533 451.000,179.000" stroke-width="12.474" stroke="rgb(33,33,33)" fill="none" stroke-linecap="round"></path><path d="M 451.000,179.000 C 451.303,177.033 451.000,177.000 451.000,175.000" stroke-width="13.076" stroke="rgb(33,33,33)" fill="none" stroke-linecap="round"></path><path d="M 451.000,175.000 C 451.000,174.500 451.375,174.125 451.000,174.000" stroke-width="13.959" stroke="rgb(33,33,33)" fill="none" stroke-linecap="round"></path><path d="M 451.000,174.000 C 449.875,173.625 448.568,172.863 448.000,174.000" stroke-width="14.507" stroke="rgb(33,33,33)" fill="none" stroke-linecap="round"></path><path d="M 448.000,174.000 C 446.068,177.863 446.505,178.951 446.000,184.000" stroke-width="14.022" stroke="rgb(33,33,33)" fill="none" stroke-linecap="round"></path><path d="M 446.000,184.000 C 445.505,188.951 444.536,189.607 446.000,194.000" stroke-width="13.748" stroke="rgb(33,33,33)" fill="none" stroke-linecap="round"></path><path d="M 446.000,194.000 C 447.036,197.107 447.920,197.900 451.000,199.000" stroke-width="13.855" stroke="rgb(33,33,33)" fill="none" stroke-linecap="round"></path><path d="M 451.000,199.000 C 454.920,200.400 455.780,200.055 460.000,199.000" stroke-width="13.666" stroke="rgb(33,33,33)" fill="none" stroke-linecap="round"></path><path d="M 460.000,199.000 C 463.780,198.055 465.194,198.283 467.000,195.000" stroke-width="13.680" stroke="rgb(33,33,33)" fill="none" stroke-linecap="round"></path><path d="M 467.000,195.000 C 470.694,188.283 469.806,187.122 471.000,179.000" stroke-width="12.831" stroke="rgb(33,33,33)" fill="none" stroke-linecap="round"></path><path d="M 471.000,179.000 C 472.306,170.122 471.769,170.007 472.000,161.000" stroke-width="11.997" stroke="rgb(33,33,33)" fill="none" stroke-linecap="round"></path><path d="M 472.000,161.000 C 472.269,150.507 472.823,150.428 472.000,140.000" stroke-width="11.266" stroke="rgb(33,33,33)" fill="none" stroke-linecap="round"></path><path d="M 472.000,140.000 C 471.323,131.428 471.082,131.327 469.000,123.000" stroke-width="11.067" stroke="rgb(33,33,33)" fill="none" stroke-linecap="round"></path><path d="M 469.000,123.000 C 468.082,119.327 467.980,118.772 466.000,116.000" stroke-width="11.512" stroke="rgb(33,33,33)" fill="none" stroke-linecap="round"></path><path d="M 466.000,116.000 C 465.480,115.272 465.000,116.000 464.000,116.000" stroke-width="12.407" stroke="rgb(33,33,33)" fill="none" stroke-linecap="round"></path><path d="M 464.000,116.000 C 463.000,116.000 462.285,115.104 462.000,116.000" stroke-width="13.253" stroke="rgb(33,33,33)" fill="none" stroke-linecap="round"></path><path d="M 462.000,116.000 C 458.785,126.104 458.138,126.847 457.000,138.000" stroke-width="11.881" stroke="rgb(33,33,33)" fill="none" stroke-linecap="round"></path><path d="M 457.000,138.000 C 455.638,151.347 453.657,152.343 457.000,165.000" stroke-width="10.765" stroke="rgb(33,33,33)" fill="none" stroke-linecap="round"></path><path d="M 457.000,165.000 C 460.657,178.843 462.160,179.369 471.000,191.000" stroke-width="10.196" stroke="rgb(33,33,33)" fill="none" stroke-linecap="round"></path><path d="M 471.000,191.000 C 481.160,204.369 482.472,203.586 495.000,215.000" stroke-width="9.150" stroke="rgb(33,33,33)" fill="none" stroke-linecap="round"></path><path d="M 495.000,215.000 C 504.972,224.086 505.484,223.520 516.000,232.000" stroke-width="8.486" stroke="rgb(33,33,33)" fill="none" stroke-linecap="round"></path><path d="M 516.000,232.000 C 520.984,236.020 521.000,236.000 526.000,240.000" stroke-width="8.962" stroke="rgb(33,33,33)" fill="none" stroke-linecap="round"></path><path d="M 526.000,240.000 C 528.500,242.000 531.664,243.336 531.000,244.000" stroke-width="9.721" stroke="rgb(33,33,33)" fill="none" stroke-linecap="round"></path><path d="M 531.000,244.000 C 530.164,244.836 527.024,243.109 523.000,243.000" stroke-width="10.564" stroke="rgb(33,33,33)" fill="none" stroke-linecap="round"></path><path d="M 523.000,243.000 C 508.524,242.609 508.500,243.000 494.000,243.000" stroke-width="9.761" stroke="rgb(33,33,33)" fill="none" stroke-linecap="round"></path><path d="M 494.000,243.000 C 469.000,243.000 468.901,241.312 444.000,243.000" stroke-width="8.150" stroke="rgb(33,33,33)" fill="none" stroke-linecap="round"></path><path d="M 444.000,243.000 C 409.901,245.312 409.794,245.664 376.000,251.000" stroke-width="6.868" stroke="rgb(33,33,33)" fill="none" stroke-linecap="round"></path><path d="M 376.000,251.000 C 333.794,257.664 333.824,258.168 292.000,267.000" stroke-width="6.750" stroke="rgb(33,33,33)" fill="none" stroke-linecap="round"></path><path d="M 292.000,267.000 C 253.324,275.168 253.204,274.914 215.000,285.000" stroke-width="6.750" stroke="rgb(33,33,33)" fill="none" stroke-linecap="round"></path><path d="M 215.000,285.000 C 190.704,291.414 190.682,291.711 167.000,300.000" stroke-width="6.750" stroke="rgb(33,33,33)" fill="none" stroke-linecap="round"></path><path d="M 167.000,300.000 C 160.682,302.211 159.904,302.322 155.000,306.000" stroke-width="6.750" stroke="rgb(33,33,33)" fill="none" stroke-linecap="round"></path><path d="M 155.000,306.000 C 153.904,306.822 153.681,308.760 155.000,309.000" stroke-width="6.750" stroke="rgb(33,33,33)" fill="none" stroke-linecap="round"></path><path d="M 155.000,309.000 C 164.681,310.760 166.001,310.175 177.000,310.000" stroke-width="6.889" stroke="rgb(33,33,33)" fill="none" stroke-linecap="round"></path><path d="M 177.000,310.000 C 197.501,309.675 197.609,310.124 218.000,308.000" stroke-width="6.750" stroke="rgb(33,33,33)" fill="none" stroke-linecap="round"></path><path d="M 218.000,308.000 C 245.609,305.124 245.447,303.594 273.000,300.000" stroke-width="6.750" stroke="rgb(33,33,33)" fill="none" stroke-linecap="round"></path><path d="M 273.000,300.000 C 302.947,296.094 302.926,295.638 333.000,293.000" stroke-width="6.750" stroke="rgb(33,33,33)" fill="none" stroke-linecap="round"></path><path d="M 333.000,293.000 C 359.926,290.638 359.985,291.114 387.000,290.000" stroke-width="6.750" stroke="rgb(33,33,33)" fill="none" stroke-linecap="round"></path><path d="M 387.000,290.000 C 408.485,289.114 408.658,288.210 430.000,289.000" stroke-width="6.750" stroke="rgb(33,33,33)" fill="none" stroke-linecap="round"></path><path d="M 430.000,289.000 C 435.658,289.210 442.700,290.300 441.000,292.000" stroke-width="6.750" stroke="rgb(33,33,33)" fill="none" stroke-linecap="round"></path><path d="M 441.000,292.000 C 437.700,295.300 430.877,297.539 420.000,299.000" stroke-width="6.750" stroke="rgb(33,33,33)" fill="none" stroke-linecap="round"></path><path d="M 420.000,299.000 C 397.377,302.039 397.012,300.553 374.000,301.000" stroke-width="6.750" stroke="rgb(33,33,33)" fill="none" stroke-linecap="round"></path><path d="M 374.000,301.000 C 345.512,301.553 345.315,303.275 317.000,301.000" stroke-width="6.750" stroke="rgb(33,33,33)" fill="none" stroke-linecap="round"></path><path d="M 317.000,301.000 C 289.315,298.775 288.544,299.662 262.000,292.000" stroke-width="6.750" stroke="rgb(33,33,33)" fill="none" stroke-linecap="round"></path><path d="M 262.000,292.000 C 240.044,285.662 239.340,285.014 220.000,273.000" stroke-width="6.750" stroke="rgb(33,33,33)" fill="none" stroke-linecap="round"></path><path d="M 220.000,273.000 C 206.340,264.514 205.452,263.788 196.000,251.000" stroke-width="6.750" stroke="rgb(33,33,33)" fill="none" stroke-linecap="round"></path><path d="M 196.000,251.000 C 188.452,240.788 189.312,239.422 186.000,227.000" stroke-width="6.750" stroke="rgb(33,33,33)" fill="none" stroke-linecap="round"></path><path d="M 186.000,227.000 C 183.312,216.922 184.584,216.520 184.000,206.000" stroke-width="6.750" stroke="rgb(33,33,33)" fill="none" stroke-linecap="round"></path><path d="M 184.000,206.000 C 183.584,198.520 184.000,198.500 184.000,191.000" stroke-width="7.117" stroke="rgb(33,33,33)" fill="none" stroke-linecap="round"></path><path d="M 184.000,191.000 C 184.000,186.500 184.000,186.500 184.000,182.000" stroke-width="7.745" stroke="rgb(33,33,33)" fill="none" stroke-linecap="round"></path><path d="M 184.000,182.000 C 184.000,180.500 183.250,179.750 184.000,179.000" stroke-width="8.702" stroke="rgb(33,33,33)" fill="none" stroke-linecap="round"></path><path d="M 184.000,179.000 C 184.750,178.250 185.825,178.160 187.000,179.000" stroke-width="9.657" stroke="rgb(33,33,33)" fill="none" stroke-linecap="round"></path><path d="M 187.000,179.000 C 192.825,183.160 193.152,183.406 198.000,189.000" stroke-width="9.814" stroke="rgb(33,33,33)" fill="none" stroke-linecap="round"></path><path d="M 198.000,189.000 C 206.152,198.406 205.965,198.681 213.000,209.000" stroke-width="9.442" stroke="rgb(33,33,33)" fill="none" stroke-linecap="round"></path><path d="M 213.000,209.000 C 220.965,220.681 220.543,220.973 228.000,233.000" stroke-width="9.080" stroke="rgb(33,33,33)" fill="none" stroke-linecap="round"></path><path d="M 181.000,263.000 C 167.500,263.000 167.482,263.364 154.000,263.000" stroke-width="13.582" stroke="rgb(33,33,33)" fill="none" stroke-linecap="round"></path><path d="M 154.000,263.000 C 148.982,262.864 148.170,263.251 144.000,262.000" stroke-width="13.337" stroke="rgb(33,33,33)" fill="none" stroke-linecap="round"></path><path d="M 144.000,262.000 C 143.170,261.751 143.072,260.166 144.000,260.000" stroke-width="14.080" stroke="rgb(33,33,33)" fill="none" stroke-linecap="round"></path><path d="M 144.000,260.000 C 157.072,257.666 157.958,257.878 172.000,257.000" stroke-width="12.040" stroke="rgb(33,33,33)" fill="none" stroke-linecap="round"></path><path d="M 172.000,257.000 C 189.958,255.878 189.996,256.243 208.000,256.000" stroke-width="10.408" stroke="rgb(33,33,33)" fill="none" stroke-linecap="round"></path><path d="M 208.000,256.000 C 226.996,255.743 227.023,255.407 246.000,256.000" stroke-width="8.948" stroke="rgb(33,33,33)" fill="none" stroke-linecap="round"></path><path d="M 246.000,256.000 C 259.023,256.407 260.028,254.579 272.000,258.000" stroke-width="8.803" stroke="rgb(33,33,33)" fill="none" stroke-linecap="round"></path><path d="M 272.000,258.000 C 277.528,259.579 279.833,261.625 281.000,266.000" stroke-width="9.281" stroke="rgb(33,33,33)" fill="none" stroke-linecap="round"></path><path d="M 281.000,266.000 C 281.833,269.125 279.626,271.108 276.000,273.000" stroke-width="9.894" stroke="rgb(33,33,33)" fill="none" stroke-linecap="round"></path><path d="M 276.000,273.000 C 268.126,277.108 267.172,276.761 258.000,278.000" stroke-width="9.902" stroke="rgb(33,33,33)" fill="none" stroke-linecap="round"></path><path d="M 258.000,278.000 C 248.672,279.261 248.481,278.339 239.000,278.000" stroke-width="9.515" stroke="rgb(33,33,33)" fill="none" stroke-linecap="round"></path><path d="M 239.000,278.000 C 234.481,277.839 234.505,277.410 230.000,277.000" stroke-width="10.182" stroke="rgb(33,33,33)" fill="none" stroke-linecap="round"></path><path d="M 230.000,277.000 C 229.005,276.910 229.000,277.000 228.000,277.000" stroke-width="11.115" stroke="rgb(33,33,33)" fill="none" stroke-linecap="round"></path><path d="M 228.000,277.000 C 227.500,277.000 227.000,276.610 227.000,277.000" stroke-width="12.126" stroke="rgb(33,33,33)" fill="none" stroke-linecap="round"></path></svg>