<svg xmlns="http://www.w3.org/2000/svg" xmlns:xlink="http://www.w3.org/1999/xlink" viewBox="0 0 768 500"><path d="M 289.000,161.000 C 290.000,165.500 290.318,165.450 291.000,170.000" stroke-width="19.770" stroke="rgb(33,33,33)" fill="none" stroke-linecap="round"></path><path d="M 291.000,170.000 C 291.818,175.450 291.367,175.515 292.000,181.000" stroke-width="17.357" stroke="rgb(33,33,33)" fill="none" stroke-linecap="round"></path><path d="M 292.000,181.000 C 292.867,188.515 293.000,188.500 294.000,196.000" stroke-width="15.763" stroke="rgb(33,33,33)" fill="none" stroke-linecap="round"></path><path d="M 294.000,196.000 C 295.000,203.500 294.966,203.505 296.000,211.000" stroke-width="14.024" stroke="rgb(33,33,33)" fill="none" stroke-linecap="round"></path><path d="M 296.000,211.000 C 296.966,218.005 297.045,217.994 298.000,225.000" stroke-width="13.004" stroke="rgb(33,33,33)" fill="none" stroke-linecap="round"></path><path d="M 298.000,225.000 C 298.545,228.994 298.691,228.988 299.000,233.000" stroke-width="13.094" stroke="rgb(33,33,33)" fill="none" stroke-linecap="round"></path><path d="M 299.000,233.000 C 299.191,235.488 298.655,235.582 299.000,238.000" stroke-width="13.503" stroke="rgb(33,33,33)" fill="none" stroke-linecap="round"></path><path d="M 299.000,238.000 C 299.155,239.082 299.500,239.000 300.000,240.000" stroke-width="14.214" stroke="rgb(33,33,33)" fill="none" stroke-linecap="round"></path><path d="M 300.000,240.000 C 300.500,241.000 300.655,240.964 301.000,242.000" stroke-width="14.763" stroke="rgb(33,33,33)" fill="none" stroke-linecap="round"></path><path d="M 301.000,242.000 C 301.155,242.464 301.250,242.750 301.000,243.000" stroke-width="15.469" stroke="rgb(33,33,33)" fill="none" stroke-linecap="round"></path><path d="M 301.000,243.000 C 300.750,243.250 300.454,243.195 300.000,243.000" stroke-width="16.157" stroke="rgb(33,33,33)" fill="none" stroke-linecap="round"></path><path d="M 300.000,243.000 C 296.954,241.695 297.164,240.974 294.000,240.000" stroke-width="15.507" stroke="rgb(33,33,33)" fill="none" stroke-linecap="round"></path><path d="M 294.000,240.000 C 290.664,238.974 290.519,239.235 287.000,239.000" stroke-width="15.190" stroke="rgb(33,33,33)" fill="none" stroke-linecap="round"></path><path d="M 287.000,239.000 C 283.019,238.735 282.994,238.818 279.000,239.000" stroke-width="14.819" stroke="rgb(33,33,33)" fill="none" stroke-linecap="round"></path><path d="M 279.000,239.000 C 271.994,239.318 271.790,238.585 265.000,240.000" stroke-width="13.886" stroke="rgb(33,33,33)" fill="none" stroke-linecap="round"></path><path d="M 265.000,240.000 C 259.790,241.085 259.801,241.599 255.000,244.000" stroke-width="13.560" stroke="rgb(33,33,33)" fill="none" stroke-linecap="round"></path><path d="M 255.000,244.000 C 249.801,246.599 249.975,246.960 245.000,250.000" stroke-width="12.970" stroke="rgb(33,33,33)" fill="none" stroke-linecap="round"></path><path d="M 245.000,250.000 C 240.975,252.460 240.794,252.241 237.000,255.000" stroke-width="13.079" stroke="rgb(33,33,33)" fill="none" stroke-linecap="round"></path><path d="M 237.000,255.000 C 235.294,256.241 235.637,256.690 234.000,258.000" stroke-width="13.604" stroke="rgb(33,33,33)" fill="none" stroke-linecap="round"></path><path d="M 234.000,258.000 C 233.137,258.690 232.306,258.387 232.000,259.000" stroke-width="14.208" stroke="rgb(33,33,33)" fill="none" stroke-linecap="round"></path><path d="M 232.000,259.000 C 231.806,259.387 232.341,260.073 233.000,260.000" stroke-width="14.959" stroke="rgb(33,33,33)" fill="none" stroke-linecap="round"></path><path d="M 233.000,260.000 C 236.841,259.573 237.244,259.633 241.000,258.000" stroke-width="14.457" stroke="rgb(33,33,33)" fill="none" stroke-linecap="round"></path><path d="M 241.000,258.000 C 248.744,254.633 248.581,254.146 256.000,250.000" stroke-width="13.088" stroke="rgb(33,33,33)" fill="none" stroke-linecap="round"></path><path d="M 256.000,250.000 C 265.581,244.646 265.294,244.108 275.000,239.000" stroke-width="12.134" stroke="rgb(33,33,33)" fill="none" stroke-linecap="round"></path><path d="M 275.000,239.000 C 284.294,234.108 284.600,234.700 294.000,230.000" stroke-width="10.740" stroke="rgb(33,33,33)" fill="none" stroke-linecap="round"></path><path d="M 294.000,230.000 C 303.600,225.200 303.354,224.700 313.000,220.000" stroke-width="10.152" stroke="rgb(33,33,33)" fill="none" stroke-linecap="round"></path><path d="M 313.000,220.000 C 322.854,215.200 323.000,215.500 333.000,211.000" stroke-width="9.697" stroke="rgb(33,33,33)" fill="none" stroke-linecap="round"></path><path d="M 333.000,211.000 C 343.000,206.500 342.842,206.111 353.000,202.000" stroke-width="9.362" stroke="rgb(33,33,33)" fill="none" stroke-linecap="round"></path><path d="M 353.000,202.000 C 363.842,197.611 364.000,198.000 375.000,194.000" stroke-width="9.245" stroke="rgb(33,33,33)" fill="none" stroke-linecap="round"></path><path d="M 375.000,194.000 C 386.000,190.000 386.138,190.345 397.000,186.000" stroke-width="8.855" stroke="rgb(33,33,33)" fill="none" stroke-linecap="round"></path><path d="M 397.000,186.000 C 408.638,181.345 408.586,181.188 420.000,176.000" stroke-width="8.773" stroke="rgb(33,33,33)" fill="none" stroke-linecap="round"></path><path d="M 420.000,176.000 C 430.586,171.188 430.449,170.890 441.000,166.000" stroke-width="8.593" stroke="rgb(33,33,33)" fill="none" stroke-linecap="round"></path><path d="M 441.000,166.000 C 450.949,161.390 450.923,161.319 461.000,157.000" stroke-width="8.583" stroke="rgb(33,33,33)" fill="none" stroke-linecap="round"></path><path d="M 461.000,157.000 C 468.423,153.819 468.428,153.804 476.000,151.000" stroke-width="8.891" stroke="rgb(33,33,33)" fill="none" stroke-linecap="round"></path><path d="M 476.000,151.000 C 481.928,148.804 482.119,149.287 488.000,147.000" stroke-width="9.288" stroke="rgb(33,33,33)" fill="none" stroke-linecap="round"></path><path d="M 488.000,147.000 C 491.119,145.787 490.942,145.359 494.000,144.000" stroke-width="9.958" stroke="rgb(33,33,33)" fill="none" stroke-linecap="round"></path><path d="M 494.000,144.000 C 495.442,143.359 495.481,143.380 497.000,143.000" stroke-width="10.863" stroke="rgb(33,33,33)" fill="none" stroke-linecap="round"></path><path d="M 497.000,143.000 C 497.481,142.880 497.500,143.000 498.000,143.000" stroke-width="11.885" stroke="rgb(33,33,33)" fill="none" stroke-linecap="round"></path><path d="M 498.000,143.000 C 498.500,143.000 499.000,143.000 499.000,143.000" stroke-width="12.853" stroke="rgb(33,33,33)" fill="none" stroke-linecap="round"></path><path d="M 499.000,143.000 C 499.000,143.000 498.500,143.000 498.000,143.000" stroke-width="13.805" stroke="rgb(33,33,33)" fill="none" stroke-linecap="round"></path><path d="M 498.000,143.000 C 497.500,143.000 497.481,142.880 497.000,143.000" stroke-width="14.618" stroke="rgb(33,33,33)" fill="none" stroke-linecap="round"></path><path d="M 497.000,143.000 C 495.481,143.380 495.382,143.309 494.000,144.000" stroke-width="15.025" stroke="rgb(33,33,33)" fill="none" stroke-linecap="round"></path><path d="M 494.000,144.000 C 493.382,144.309 493.581,144.613 493.000,145.000" stroke-width="15.627" stroke="rgb(33,33,33)" fill="none" stroke-linecap="round"></path><path d="M 293.000,225.000 C 294.000,222.500 293.907,222.458 295.000,220.000" stroke-width="19.525" stroke="rgb(33,33,33)" fill="none" stroke-linecap="round"></path><path d="M 295.000,220.000 C 295.907,217.958 296.093,218.042 297.000,216.000" stroke-width="18.589" stroke="rgb(33,33,33)" fill="none" stroke-linecap="round"></path><path d="M 297.000,216.000 C 298.093,213.542 298.080,213.529 299.000,211.000" stroke-width="17.712" stroke="rgb(33,33,33)" fill="none" stroke-linecap="round"></path><path d="M 299.000,211.000 C 300.080,208.029 300.000,208.000 301.000,205.000" stroke-width="17.276" stroke="rgb(33,33,33)" fill="none" stroke-linecap="round"></path><path d="M 301.000,205.000 C 302.500,200.500 302.638,200.542 304.000,196.000" stroke-width="15.627" stroke="rgb(33,33,33)" fill="none" stroke-linecap="round"></path><path d="M 304.000,196.000 C 305.638,190.542 305.884,190.579 307.000,185.000" stroke-width="14.993" stroke="rgb(33,33,33)" fill="none" stroke-linecap="round"></path><path d="M 307.000,185.000 C 308.384,178.079 308.414,178.029 309.000,171.000" stroke-width="13.517" stroke="rgb(33,33,33)" fill="none" stroke-linecap="round"></path><path d="M 309.000,171.000 C 309.414,166.029 309.000,166.000 309.000,161.000" stroke-width="13.514" stroke="rgb(33,33,33)" fill="none" stroke-linecap="round"></path><path d="M 309.000,161.000 C 309.000,157.500 309.000,157.500 309.000,154.000" stroke-width="13.028" stroke="rgb(33,33,33)" fill="none" stroke-linecap="round"></path><path d="M 309.000,154.000 C 309.000,152.000 309.000,152.000 309.000,150.000" stroke-width="13.610" stroke="rgb(33,33,33)" fill="none" stroke-linecap="round"></path><path d="M 309.000,150.000 C 309.000,148.500 309.375,148.125 309.000,147.000" stroke-width="14.158" stroke="rgb(33,33,33)" fill="none" stroke-linecap="round"></path><path d="M 309.000,147.000 C 308.875,146.625 308.162,146.567 308.000,147.000" stroke-width="14.925" stroke="rgb(33,33,33)" fill="none" stroke-linecap="round"></path><path d="M 308.000,147.000 C 306.662,150.567 306.355,150.921 306.000,155.000" stroke-width="14.431" stroke="rgb(33,33,33)" fill="none" stroke-linecap="round"></path><path d="M 306.000,155.000 C 305.355,162.421 306.000,162.500 306.000,170.000" stroke-width="13.598" stroke="rgb(33,33,33)" fill="none" stroke-linecap="round"></path><path d="M 306.000,170.000 C 306.000,179.000 305.710,179.011 306.000,188.000" stroke-width="12.413" stroke="rgb(33,33,33)" fill="none" stroke-linecap="round"></path><path d="M 306.000,188.000 C 306.210,194.511 305.933,194.598 307.000,201.000" stroke-width="12.210" stroke="rgb(33,33,33)" fill="none" stroke-linecap="round"></path><path d="M 307.000,201.000 C 307.933,206.598 308.474,206.507 310.000,212.000" stroke-width="11.984" stroke="rgb(33,33,33)" fill="none" stroke-linecap="round"></path><path d="M 310.000,212.000 C 310.974,215.507 310.852,215.557 312.000,219.000" stroke-width="12.327" stroke="rgb(33,33,33)" fill="none" stroke-linecap="round"></path><path d="M 312.000,219.000 C 312.352,220.057 312.387,220.081 313.000,221.000" stroke-width="13.145" stroke="rgb(33,33,33)" fill="none" stroke-linecap="round"></path><path d="M 313.000,221.000 C 313.387,221.581 313.783,222.434 314.000,222.000" stroke-width="13.965" stroke="rgb(33,33,33)" fill="none" stroke-linecap="round"></path><path d="M 314.000,222.000 C 314.783,220.434 314.466,219.493 315.000,217.000" stroke-width="14.548" stroke="rgb(33,33,33)" fill="none" stroke-linecap="round"></path><path d="M 315.000,217.000 C 315.966,212.493 315.616,212.382 317.000,208.000" stroke-width="14.173" stroke="rgb(33,33,33)" fill="none" stroke-linecap="round"></path><path d="M 317.000,208.000 C 318.616,202.882 319.000,203.000 321.000,198.000" stroke-width="13.844" stroke="rgb(33,33,33)" fill="none" stroke-linecap="round"></path><path d="M 321.000,198.000 C 322.000,195.500 321.602,195.237 323.000,193.000" stroke-width="14.087" stroke="rgb(33,33,33)" fill="none" stroke-linecap="round"></path><path d="M 323.000,193.000 C 324.102,191.237 324.690,191.637 326.000,190.000" stroke-width="14.308" stroke="rgb(33,33,33)" fill="none" stroke-linecap="round"></path><path d="M 326.000,190.000 C 326.690,189.137 326.208,188.528 327.000,188.000" stroke-width="14.949" stroke="rgb(33,33,33)" fill="none" stroke-linecap="round"></path><path d="M 327.000,188.000 C 327.708,187.528 328.000,188.000 329.000,188.000" stroke-width="15.406" stroke="rgb(33,33,33)" fill="none" stroke-linecap="round"></path><path d="M 329.000,188.000 C 330.000,188.000 330.286,187.465 331.000,188.000" stroke-width="15.938" stroke="rgb(33,33,33)" fill="none" stroke-linecap="round"></path><path d="M 353.000,169.000 C 349.500,170.500 349.211,170.073 346.000,172.000" stroke-width="19.239" stroke="rgb(33,33,33)" fill="none" stroke-linecap="round"></path><path d="M 346.000,172.000 C 344.211,173.073 344.014,173.225 343.000,175.000" stroke-width="18.492" stroke="rgb(33,33,33)" fill="none" stroke-linecap="round"></path><path d="M 343.000,175.000 C 342.014,176.725 342.404,176.980 342.000,179.000" stroke-width="17.904" stroke="rgb(33,33,33)" fill="none" stroke-linecap="round"></path><path d="M 342.000,179.000 C 341.404,181.980 341.500,182.000 341.000,185.000" stroke-width="17.214" stroke="rgb(33,33,33)" fill="none" stroke-linecap="round"></path><path d="M 341.000,185.000 C 340.500,188.000 340.302,187.984 340.000,191.000" stroke-width="16.637" stroke="rgb(33,33,33)" fill="none" stroke-linecap="round"></path><path d="M 340.000,191.000 C 339.802,192.984 340.000,193.000 340.000,195.000" stroke-width="16.624" stroke="rgb(33,33,33)" fill="none" stroke-linecap="round"></path><path d="M 340.000,195.000 C 340.000,196.000 340.000,196.000 340.000,197.000" stroke-width="16.801" stroke="rgb(33,33,33)" fill="none" stroke-linecap="round"></path><path d="M 340.000,197.000 C 340.000,198.000 339.500,198.500 340.000,199.000" stroke-width="17.113" stroke="rgb(33,33,33)" fill="none" stroke-linecap="round"></path><path d="M 340.000,199.000 C 340.500,199.500 341.286,199.535 342.000,199.000" stroke-width="17.162" stroke="rgb(33,33,33)" fill="none" stroke-linecap="round"></path><path d="M 342.000,199.000 C 343.286,198.035 343.198,197.604 344.000,196.000" stroke-width="17.103" stroke="rgb(33,33,33)" fill="none" stroke-linecap="round"></path><path d="M 344.000,196.000 C 345.198,193.604 345.296,193.583 346.000,191.000" stroke-width="16.462" stroke="rgb(33,33,33)" fill="none" stroke-linecap="round"></path><path d="M 346.000,191.000 C 346.796,188.083 346.404,187.980 347.000,185.000" stroke-width="16.427" stroke="rgb(33,33,33)" fill="none" stroke-linecap="round"></path><path d="M 347.000,185.000 C 347.404,182.980 347.746,183.030 348.000,181.000" stroke-width="16.591" stroke="rgb(33,33,33)" fill="none" stroke-linecap="round"></path><path d="M 348.000,181.000 C 348.246,179.030 348.000,179.000 348.000,177.000" stroke-width="10.246" stroke="rgb(33,33,33)" fill="none" stroke-linecap="round"></path><path d="M 348.000,177.000 C 348.000,176.500 348.000,176.500 348.000,176.000" stroke-width="11.279" stroke="rgb(33,33,33)" fill="none" stroke-linecap="round"></path><path d="M 348.000,176.000 C 348.000,175.500 348.000,174.700 348.000,175.000" stroke-width="12.292" stroke="rgb(33,33,33)" fill="none" stroke-linecap="round"></path><path d="M 348.000,175.000 C 348.000,176.200 348.000,177.000 348.000,179.000" stroke-width="13.110" stroke="rgb(33,33,33)" fill="none" stroke-linecap="round"></path><path d="M 348.000,179.000 C 348.000,181.500 347.419,181.676 348.000,184.000" stroke-width="13.516" stroke="rgb(33,33,33)" fill="none" stroke-linecap="round"></path><path d="M 348.000,184.000 C 348.419,185.676 349.000,185.500 350.000,187.000" stroke-width="14.053" stroke="rgb(33,33,33)" fill="none" stroke-linecap="round"></path><path d="M 350.000,187.000 C 351.000,188.500 350.766,188.766 352.000,190.000" stroke-width="14.486" stroke="rgb(33,33,33)" fill="none" stroke-linecap="round"></path><path d="M 352.000,190.000 C 352.766,190.766 352.932,190.786 354.000,191.000" stroke-width="15.042" stroke="rgb(33,33,33)" fill="none" stroke-linecap="round"></path><path d="M 354.000,191.000 C 355.432,191.286 356.339,191.991 357.000,191.000" stroke-width="15.343" stroke="rgb(33,33,33)" fill="none" stroke-linecap="round"></path><path d="M 357.000,191.000 C 358.339,188.991 357.698,188.016 358.000,185.000" stroke-width="15.664" stroke="rgb(33,33,33)" fill="none" stroke-linecap="round"></path><path d="M 358.000,185.000 C 358.198,183.016 358.000,183.000 358.000,181.000" stroke-width="15.769" stroke="rgb(33,33,33)" fill="none" stroke-linecap="round"></path><path d="M 358.000,181.000 C 358.000,179.000 358.000,179.000 358.000,177.000" stroke-width="15.812" stroke="rgb(33,33,33)" fill="none" stroke-linecap="round"></path><path d="M 358.000,177.000 C 358.000,176.500 358.000,175.700 358.000,176.000" stroke-width="16.388" stroke="rgb(33,33,33)" fill="none" stroke-linecap="round"></path><path d="M 358.000,176.000 C 358.000,177.200 357.631,178.153 358.000,180.000" stroke-width="16.797" stroke="rgb(33,33,33)" fill="none" stroke-linecap="round"></path><path d="M 358.000,180.000 C 358.131,180.653 358.379,180.793 359.000,181.000" stroke-width="17.145" stroke="rgb(33,33,33)" fill="none" stroke-linecap="round"></path><path d="M 359.000,181.000 C 359.879,181.293 360.031,181.194 361.000,181.000" stroke-width="17.285" stroke="rgb(33,33,33)" fill="none" stroke-linecap="round"></path><path d="M 361.000,181.000 C 362.531,180.694 363.307,181.247 364.000,180.000" stroke-width="17.242" stroke="rgb(33,33,33)" fill="none" stroke-linecap="round"></path><path d="M 364.000,180.000 C 365.807,176.747 365.000,176.000 366.000,172.000" stroke-width="16.207" stroke="rgb(33,33,33)" fill="none" stroke-linecap="round"></path><path d="M 366.000,172.000 C 366.500,170.000 366.663,170.020 367.000,168.000" stroke-width="16.260" stroke="rgb(33,33,33)" fill="none" stroke-linecap="round"></path><path d="M 367.000,168.000 C 367.163,167.020 366.667,166.667 367.000,166.000" stroke-width="16.558" stroke="rgb(33,33,33)" fill="none" stroke-linecap="round"></path><path d="M 367.000,166.000 C 367.167,165.667 367.500,166.000 368.000,166.000" stroke-width="17.047" stroke="rgb(33,33,33)" fill="none" stroke-linecap="round"></path><path d="M 368.000,166.000 C 368.500,166.000 368.859,165.576 369.000,166.000" stroke-width="17.303" stroke="rgb(33,33,33)" fill="none" stroke-linecap="round"></path><path d="M 369.000,166.000 C 369.859,168.576 368.902,169.256 370.000,172.000" stroke-width="16.821" stroke="rgb(33,33,33)" fill="none" stroke-linecap="round"></path><path d="M 370.000,172.000 C 370.902,174.256 371.403,174.084 373.000,176.000" stroke-width="16.403" stroke="rgb(33,33,33)" fill="none" stroke-linecap="round"></path><path d="M 373.000,176.000 C 373.903,177.084 373.820,177.292 375.000,178.000" stroke-width="16.526" stroke="rgb(33,33,33)" fill="none" stroke-linecap="round"></path><path d="M 385.000,162.000 C 382.000,158.000 381.500,156.500 379.000,154.000" stroke-width="19.586" stroke="rgb(33,33,33)" fill="none" stroke-linecap="round"></path><path d="M 379.000,154.000 C 378.500,153.500 379.000,155.000 379.000,156.000" stroke-width="19.274" stroke="rgb(33,33,33)" fill="none" stroke-linecap="round"></path><path d="M 379.000,156.000 C 379.000,157.500 378.757,157.540 379.000,159.000" stroke-width="18.692" stroke="rgb(33,33,33)" fill="none" stroke-linecap="round"></path><path d="M 379.000,159.000 C 379.257,160.540 379.299,160.598 380.000,162.000" stroke-width="18.378" stroke="rgb(33,33,33)" fill="none" stroke-linecap="round"></path><path d="M 380.000,162.000 C 380.799,163.598 380.750,163.750 382.000,165.000" stroke-width="18.018" stroke="rgb(33,33,33)" fill="none" stroke-linecap="round"></path><path d="M 382.000,165.000 C 383.250,166.250 383.766,165.766 385.000,167.000" stroke-width="17.652" stroke="rgb(33,33,33)" fill="none" stroke-linecap="round"></path><path d="M 385.000,167.000 C 385.766,167.766 385.500,168.000 386.000,169.000" stroke-width="17.743" stroke="rgb(33,33,33)" fill="none" stroke-linecap="round"></path><path d="M 386.000,169.000 C 386.500,170.000 386.821,169.924 387.000,171.000" stroke-width="17.604" stroke="rgb(33,33,33)" fill="none" stroke-linecap="round"></path><path d="M 387.000,171.000 C 387.321,172.924 387.000,173.000 387.000,175.000" stroke-width="17.482" stroke="rgb(33,33,33)" fill="none" stroke-linecap="round"></path><path d="M 387.000,175.000 C 387.000,176.500 387.454,176.638 387.000,178.000" stroke-width="17.394" stroke="rgb(33,33,33)" fill="none" stroke-linecap="round"></path><path d="M 387.000,178.000 C 386.454,179.638 386.234,179.766 385.000,181.000" stroke-width="17.170" stroke="rgb(33,33,33)" fill="none" stroke-linecap="round"></path><path d="M 385.000,181.000 C 384.234,181.766 384.036,181.655 383.000,182.000" stroke-width="17.191" stroke="rgb(33,33,33)" fill="none" stroke-linecap="round"></path><path d="M 383.000,182.000 C 382.536,182.155 382.250,182.250 382.000,182.000" stroke-width="17.491" stroke="rgb(33,33,33)" fill="none" stroke-linecap="round"></path><path d="M 382.000,182.000 C 381.750,181.750 382.000,181.500 382.000,181.000" stroke-width="17.823" stroke="rgb(33,33,33)" fill="none" stroke-linecap="round"></path><path d="M 382.000,181.000 C 382.000,178.000 381.243,177.839 382.000,175.000" stroke-width="16.950" stroke="rgb(33,33,33)" fill="none" stroke-linecap="round"></path><path d="M 382.000,175.000 C 383.243,170.339 383.904,170.455 386.000,166.000" stroke-width="15.620" stroke="rgb(33,33,33)" fill="none" stroke-linecap="round"></path><path d="M 386.000,166.000 C 387.904,161.955 387.785,161.875 390.000,158.000" stroke-width="15.151" stroke="rgb(33,33,33)" fill="none" stroke-linecap="round"></path><path d="M 390.000,158.000 C 391.785,154.875 391.845,154.873 394.000,152.000" stroke-width="15.007" stroke="rgb(33,33,33)" fill="none" stroke-linecap="round"></path><path d="M 394.000,152.000 C 394.845,150.873 395.414,151.172 396.000,150.000" stroke-width="15.264" stroke="rgb(33,33,33)" fill="none" stroke-linecap="round"></path><path d="M 396.000,150.000 C 396.414,149.172 395.707,148.879 396.000,148.000" stroke-width="15.791" stroke="rgb(33,33,33)" fill="none" stroke-linecap="round"></path><path d="M 396.000,148.000 C 396.207,147.379 396.890,146.559 397.000,147.000" stroke-width="16.251" stroke="rgb(33,33,33)" fill="none" stroke-linecap="round"></path><path d="M 397.000,147.000 C 397.390,148.559 397.000,149.500 397.000,152.000" stroke-width="16.535" stroke="rgb(33,33,33)" fill="none" stroke-linecap="round"></path><path d="M 397.000,152.000 C 397.000,154.500 397.248,154.525 397.000,157.000" stroke-width="16.185" stroke="rgb(33,33,33)" fill="none" stroke-linecap="round"></path><path d="M 397.000,157.000 C 396.748,159.525 396.359,159.486 396.000,162.000" stroke-width="15.959" stroke="rgb(33,33,33)" fill="none" stroke-linecap="round"></path><path d="M 396.000,162.000 C 395.859,162.986 396.000,163.000 396.000,164.000" stroke-width="16.329" stroke="rgb(33,33,33)" fill="none" stroke-linecap="round"></path><path d="M 396.000,164.000 C 396.000,165.000 395.296,165.859 396.000,166.000" stroke-width="16.589" stroke="rgb(33,33,33)" fill="none" stroke-linecap="round"></path><path d="M 396.000,166.000 C 397.796,166.359 399.246,166.579 401.000,165.000" stroke-width="16.784" stroke="rgb(33,33,33)" fill="none" stroke-linecap="round"></path><path d="M 412.000,140.000 C 411.000,139.500 410.271,138.321 410.000,139.000" stroke-width="20.046" stroke="rgb(33,33,33)" fill="none" stroke-linecap="round"></path><path d="M 410.000,139.000 C 409.271,140.821 410.000,142.000 410.000,145.000" stroke-width="18.772" stroke="rgb(33,33,33)" fill="none" stroke-linecap="round"></path><path d="M 410.000,145.000 C 410.000,147.000 409.631,147.153 410.000,149.000" stroke-width="18.008" stroke="rgb(33,33,33)" fill="none" stroke-linecap="round"></path><path d="M 410.000,149.000 C 410.131,149.653 410.414,149.707 411.000,150.000" stroke-width="18.182" stroke="rgb(33,33,33)" fill="none" stroke-linecap="round"></path><path d="M 411.000,150.000 C 411.414,150.207 411.662,150.338 412.000,150.000" stroke-width="18.337" stroke="rgb(33,33,33)" fill="none" stroke-linecap="round"></path><path d="M 412.000,150.000 C 414.162,147.838 414.877,147.808 416.000,145.000" stroke-width="17.325" stroke="rgb(33,33,33)" fill="none" stroke-linecap="round"></path><path d="M 416.000,145.000 C 416.877,142.808 416.000,142.500 416.000,140.000" stroke-width="16.961" stroke="rgb(33,33,33)" fill="none" stroke-linecap="round"></path><path d="M 416.000,140.000 C 416.000,138.500 416.000,138.500 416.000,137.000" stroke-width="16.944" stroke="rgb(33,33,33)" fill="none" stroke-linecap="round"></path><path d="M 416.000,137.000 C 416.000,136.000 416.000,134.308 416.000,135.000" stroke-width="17.218" stroke="rgb(33,33,33)" fill="none" stroke-linecap="round"></path><path d="M 416.000,135.000 C 416.000,138.808 415.823,140.504 416.000,146.000" stroke-width="16.678" stroke="rgb(33,33,33)" fill="none" stroke-linecap="round"></path><path d="M 416.000,146.000 C 416.323,156.004 416.151,156.028 417.000,166.000" stroke-width="13.688" stroke="rgb(33,33,33)" fill="none" stroke-linecap="round"></path><path d="M 417.000,166.000 C 418.151,179.528 417.679,179.653 420.000,193.000" stroke-width="11.752" stroke="rgb(33,33,33)" fill="none" stroke-linecap="round"></path><path d="M 420.000,193.000 C 421.679,202.653 422.230,202.581 425.000,212.000" stroke-width="11.190" stroke="rgb(33,33,33)" fill="none" stroke-linecap="round"></path><path d="M 425.000,212.000 C 427.230,219.581 427.071,219.678 430.000,227.000" stroke-width="10.808" stroke="rgb(33,33,33)" fill="none" stroke-linecap="round"></path><path d="M 430.000,227.000 C 432.071,232.178 432.940,231.849 435.000,237.000" stroke-width="11.107" stroke="rgb(33,33,33)" fill="none" stroke-linecap="round"></path><path d="M 435.000,237.000 C 435.940,239.349 435.383,239.531 436.000,242.000" stroke-width="11.729" stroke="rgb(33,33,33)" fill="none" stroke-linecap="round"></path><path d="M 436.000,242.000 C 436.383,243.531 436.620,243.481 437.000,245.000" stroke-width="12.543" stroke="rgb(33,33,33)" fill="none" stroke-linecap="round"></path><path d="M 437.000,245.000 C 437.120,245.481 437.364,246.208 437.000,246.000" stroke-width="13.463" stroke="rgb(33,33,33)" fill="none" stroke-linecap="round"></path><path d="M 437.000,246.000 C 433.864,244.208 433.440,243.580 430.000,241.000" stroke-width="13.187" stroke="rgb(33,33,33)" fill="none" stroke-linecap="round"></path><path d="M 430.000,241.000 C 425.440,237.580 424.732,238.199 421.000,234.000" stroke-width="13.128" stroke="rgb(33,33,33)" fill="none" stroke-linecap="round"></path><path d="M 421.000,234.000 C 416.732,229.199 416.471,228.931 414.000,223.000" stroke-width="12.388" stroke="rgb(33,33,33)" fill="none" stroke-linecap="round"></path><path d="M 414.000,223.000 C 411.471,216.931 411.908,216.586 411.000,210.000" stroke-width="12.431" stroke="rgb(33,33,33)" fill="none" stroke-linecap="round"></path><path d="M 411.000,210.000 C 409.908,202.086 410.000,202.003 410.000,194.000" stroke-width="10.891" stroke="rgb(33,33,33)" fill="none" stroke-linecap="round"></path><path d="M 410.000,194.000 C 410.000,184.003 409.592,183.858 411.000,174.000" stroke-width="10.877" stroke="rgb(33,33,33)" fill="none" stroke-linecap="round"></path><path d="M 411.000,174.000 C 412.092,166.358 412.053,166.072 415.000,159.000" stroke-width="10.502" stroke="rgb(33,33,33)" fill="none" stroke-linecap="round"></path><path d="M 415.000,159.000 C 417.053,154.072 417.451,154.022 421.000,150.000" stroke-width="10.442" stroke="rgb(33,33,33)" fill="none" stroke-linecap="round"></path><path d="M 421.000,150.000 C 424.951,145.522 425.309,145.753 430.000,142.000" stroke-width="10.782" stroke="rgb(33,33,33)" fill="none" stroke-linecap="round"></path><path d="M 430.000,142.000 C 432.809,139.753 432.745,139.356 436.000,138.000" stroke-width="11.259" stroke="rgb(33,33,33)" fill="none" stroke-linecap="round"></path><path d="M 436.000,138.000 C 438.745,136.856 438.978,137.232 442.000,137.000" stroke-width="11.773" stroke="rgb(33,33,33)" fill="none" stroke-linecap="round"></path><path d="M 442.000,137.000 C 445.478,136.732 445.644,136.390 449.000,137.000" stroke-width="12.173" stroke="rgb(33,33,33)" fill="none" stroke-linecap="round"></path><path d="M 449.000,137.000 C 451.144,137.390 451.339,137.616 453.000,139.000" stroke-width="12.789" stroke="rgb(33,33,33)" fill="none" stroke-linecap="round"></path><path d="M 453.000,139.000 C 454.339,140.116 454.074,140.457 455.000,142.000" stroke-width="13.395" stroke="rgb(33,33,33)" fill="none" stroke-linecap="round"></path><path d="M 455.000,142.000 C 455.574,142.957 455.736,142.944 456.000,144.000" stroke-width="14.088" stroke="rgb(33,33,33)" fill="none" stroke-linecap="round"></path><path d="M 456.000,144.000 C 456.236,144.944 456.293,145.121 456.000,146.000" stroke-width="14.710" stroke="rgb(33,33,33)" fill="none" stroke-linecap="round"></path><path d="M 456.000,146.000 C 455.793,146.621 455.638,147.000 455.000,147.000" stroke-width="15.353" stroke="rgb(33,33,33)" fill="none" stroke-linecap="round"></path><path d="M 455.000,147.000 C 453.138,147.000 452.582,147.130 451.000,146.000" stroke-width="15.497" stroke="rgb(33,33,33)" fill="none" stroke-linecap="round"></path><path d="M 451.000,146.000 C 449.082,144.630 449.385,144.077 448.000,142.000" stroke-width="15.566" stroke="rgb(33,33,33)" fill="none" stroke-linecap="round"></path><path d="M 448.000,142.000 C 446.385,139.577 445.783,139.742 445.000,137.000" stroke-width="15.294" stroke="rgb(33,33,33)" fill="none" stroke-linecap="round"></path><path d="M 445.000,137.000 C 443.783,132.742 444.265,132.513 444.000,128.000" stroke-width="14.827" stroke="rgb(33,33,33)" fill="none" stroke-linecap="round"></path><path d="M 444.000,128.000 C 443.765,124.013 443.751,123.984 444.000,120.000" stroke-width="14.472" stroke="rgb(33,33,33)" fill="none" stroke-linecap="round"></path><path d="M 444.000,120.000 C 444.251,115.984 443.875,115.826 445.000,112.000" stroke-width="14.372" stroke="rgb(33,33,33)" fill="none" stroke-linecap="round"></path><path d="M 445.000,112.000 C 446.375,107.326 447.000,107.500 449.000,103.000" stroke-width="13.694" stroke="rgb(33,33,33)" fill="none" stroke-linecap="round"></path><path d="M 449.000,103.000 C 451.000,98.500 451.000,98.500 453.000,94.000" stroke-width="13.621" stroke="rgb(33,33,33)" fill="none" stroke-linecap="round"></path><path d="M 453.000,94.000 C 455.000,89.500 455.173,89.567 457.000,85.000" stroke-width="13.142" stroke="rgb(33,33,33)" fill="none" stroke-linecap="round"></path><path d="M 457.000,85.000 C 458.173,82.067 457.699,81.862 459.000,79.000" stroke-width="13.564" stroke="rgb(33,33,33)" fill="none" stroke-linecap="round"></path><path d="M 459.000,79.000 C 460.199,76.362 460.703,76.593 462.000,74.000" stroke-width="13.645" stroke="rgb(33,33,33)" fill="none" stroke-linecap="round"></path><path d="M 462.000,74.000 C 462.703,72.593 463.576,70.568 463.000,71.000" stroke-width="14.287" stroke="rgb(33,33,33)" fill="none" stroke-linecap="round"></path><path d="M 463.000,71.000 C 461.576,72.068 460.112,73.736 458.000,77.000" stroke-width="14.611" stroke="rgb(33,33,33)" fill="none" stroke-linecap="round"></path><path d="M 458.000,77.000 C 454.612,82.236 454.278,82.201 452.000,88.000" stroke-width="13.486" stroke="rgb(33,33,33)" fill="none" stroke-linecap="round"></path><path d="M 452.000,88.000 C 448.778,96.201 448.487,96.325 447.000,105.000" stroke-width="12.754" stroke="rgb(33,33,33)" fill="none" stroke-linecap="round"></path><path d="M 447.000,105.000 C 445.487,113.825 446.231,113.993 446.000,123.000" stroke-width="11.588" stroke="rgb(33,33,33)" fill="none" stroke-linecap="round"></path><path d="M 446.000,123.000 C 445.731,133.493 444.917,133.599 446.000,144.000" stroke-width="10.884" stroke="rgb(33,33,33)" fill="none" stroke-linecap="round"></path><path d="M 446.000,144.000 C 447.417,157.599 447.916,157.636 451.000,171.000" stroke-width="9.856" stroke="rgb(33,33,33)" fill="none" stroke-linecap="round"></path><path d="M 451.000,171.000 C 453.916,183.636 454.146,183.611 458.000,196.000" stroke-width="9.423" stroke="rgb(33,33,33)" fill="none" stroke-linecap="round"></path><path d="M 458.000,196.000 C 461.146,206.111 461.281,206.084 465.000,216.000" stroke-width="9.197" stroke="rgb(33,33,33)" fill="none" stroke-linecap="round"></path><path d="M 465.000,216.000 C 467.281,222.084 467.586,221.966 470.000,228.000" stroke-width="9.577" stroke="rgb(33,33,33)" fill="none" stroke-linecap="round"></path><path d="M 470.000,228.000 C 471.586,231.966 471.651,231.953 473.000,236.000" stroke-width="10.098" stroke="rgb(33,33,33)" fill="none" stroke-linecap="round"></path></svg>