<svg xmlns="http://www.w3.org/2000/svg" xmlns:xlink="http://www.w3.org/1999/xlink" viewBox="0 0 800 500"><path d="M 248.000,145.000 C 249.000,144.500 250.892,143.812 250.000,144.000" stroke-width="20.209" stroke="rgb(33,33,33)" fill="none" stroke-linecap="round"></path><path d="M 250.000,144.000 C 241.392,145.812 238.716,144.980 229.000,149.000" stroke-width="8.297" stroke="rgb(33,33,33)" fill="none" stroke-linecap="round"></path><path d="M 229.000,149.000 C 224.216,150.980 224.372,152.015 221.000,156.000" stroke-width="8.743" stroke="rgb(33,33,33)" fill="none" stroke-linecap="round"></path><path d="M 221.000,156.000 C 218.872,158.515 218.684,158.807 218.000,162.000" stroke-width="9.452" stroke="rgb(33,33,33)" fill="none" stroke-linecap="round"></path><path d="M 218.000,162.000 C 217.184,165.807 216.222,166.889 218.000,170.000" stroke-width="10.022" stroke="rgb(33,33,33)" fill="none" stroke-linecap="round"></path><path d="M 218.000,170.000 C 220.222,173.889 221.470,174.113 226.000,176.000" stroke-width="10.470" stroke="rgb(33,33,33)" fill="none" stroke-linecap="round"></path><path d="M 226.000,176.000 C 233.470,179.113 233.922,178.384 242.000,180.000" stroke-width="10.366" stroke="rgb(33,33,33)" fill="none" stroke-linecap="round"></path><path d="M 242.000,180.000 C 251.422,181.884 251.514,181.419 261.000,183.000" stroke-width="10.246" stroke="rgb(33,33,33)" fill="none" stroke-linecap="round"></path><path d="M 261.000,183.000 C 269.514,184.419 269.649,183.912 278.000,186.000" stroke-width="10.068" stroke="rgb(33,33,33)" fill="none" stroke-linecap="round"></path><path d="M 278.000,186.000 C 285.649,187.912 285.697,188.025 293.000,191.000" stroke-width="10.150" stroke="rgb(33,33,33)" fill="none" stroke-linecap="round"></path><path d="M 293.000,191.000 C 299.197,193.525 299.534,193.260 305.000,197.000" stroke-width="10.364" stroke="rgb(33,33,33)" fill="none" stroke-linecap="round"></path><path d="M 305.000,197.000 C 309.034,199.760 309.795,199.866 312.000,204.000" stroke-width="10.732" stroke="rgb(33,33,33)" fill="none" stroke-linecap="round"></path><path d="M 312.000,204.000 C 313.795,207.366 313.395,208.054 313.000,212.000" stroke-width="11.223" stroke="rgb(33,33,33)" fill="none" stroke-linecap="round"></path><path d="M 313.000,212.000 C 312.395,218.054 313.824,219.773 310.000,224.000" stroke-width="11.262" stroke="rgb(33,33,33)" fill="none" stroke-linecap="round"></path><path d="M 310.000,224.000 C 304.324,230.273 302.491,229.686 294.000,233.000" stroke-width="10.991" stroke="rgb(33,33,33)" fill="none" stroke-linecap="round"></path><path d="M 294.000,233.000 C 281.991,237.686 281.657,237.215 269.000,240.000" stroke-width="10.133" stroke="rgb(33,33,33)" fill="none" stroke-linecap="round"></path><path d="M 269.000,240.000 C 256.657,242.715 256.576,242.952 244.000,244.000" stroke-width="9.573" stroke="rgb(33,33,33)" fill="none" stroke-linecap="round"></path><path d="M 244.000,244.000 C 232.576,244.952 232.500,244.000 221.000,244.000" stroke-width="9.363" stroke="rgb(33,33,33)" fill="none" stroke-linecap="round"></path><path d="M 221.000,244.000 C 207.500,244.000 207.471,244.573 194.000,244.000" stroke-width="8.930" stroke="rgb(33,33,33)" fill="none" stroke-linecap="round"></path><path d="M 194.000,244.000 C 183.971,243.573 183.861,243.770 174.000,242.000" stroke-width="9.050" stroke="rgb(33,33,33)" fill="none" stroke-linecap="round"></path><path d="M 174.000,242.000 C 164.361,240.270 164.581,239.129 155.000,237.000" stroke-width="9.117" stroke="rgb(33,33,33)" fill="none" stroke-linecap="round"></path><path d="M 155.000,237.000 C 146.581,235.129 146.513,235.419 138.000,234.000" stroke-width="9.235" stroke="rgb(33,33,33)" fill="none" stroke-linecap="round"></path><path d="M 138.000,234.000 C 131.513,232.919 131.533,232.568 125.000,232.000" stroke-width="9.558" stroke="rgb(33,33,33)" fill="none" stroke-linecap="round"></path><path d="M 335.000,115.000 C 336.000,118.000 336.383,117.916 337.000,121.000" stroke-width="18.920" stroke="rgb(33,33,33)" fill="none" stroke-linecap="round"></path><path d="M 337.000,121.000 C 337.883,125.416 336.864,125.647 338.000,130.000" stroke-width="17.585" stroke="rgb(33,33,33)" fill="none" stroke-linecap="round"></path><path d="M 338.000,130.000 C 339.864,137.147 341.091,136.840 343.000,144.000" stroke-width="15.849" stroke="rgb(33,33,33)" fill="none" stroke-linecap="round"></path><path d="M 343.000,144.000 C 345.091,151.840 345.051,151.933 346.000,160.000" stroke-width="13.920" stroke="rgb(33,33,33)" fill="none" stroke-linecap="round"></path><path d="M 346.000,160.000 C 347.051,168.933 346.750,168.993 347.000,178.000" stroke-width="12.743" stroke="rgb(33,33,33)" fill="none" stroke-linecap="round"></path><path d="M 347.000,178.000 C 347.250,186.993 347.000,187.000 347.000,196.000" stroke-width="12.032" stroke="rgb(33,33,33)" fill="none" stroke-linecap="round"></path><path d="M 347.000,196.000 C 347.000,205.500 347.264,205.508 347.000,215.000" stroke-width="11.351" stroke="rgb(33,33,33)" fill="none" stroke-linecap="round"></path><path d="M 347.000,215.000 C 346.764,223.508 346.727,223.519 346.000,232.000" stroke-width="11.081" stroke="rgb(33,33,33)" fill="none" stroke-linecap="round"></path><path d="M 346.000,232.000 C 345.227,241.019 345.237,241.035 344.000,250.000" stroke-width="10.638" stroke="rgb(33,33,33)" fill="none" stroke-linecap="round"></path><path d="M 254.000,187.000 C 256.500,186.500 256.464,186.133 259.000,186.000" stroke-width="16.819" stroke="rgb(33,33,33)" fill="none" stroke-linecap="round"></path><path d="M 259.000,186.000 C 265.964,185.633 266.069,186.770 273.000,186.000" stroke-width="14.032" stroke="rgb(33,33,33)" fill="none" stroke-linecap="round"></path><path d="M 273.000,186.000 C 284.069,184.770 284.004,184.020 295.000,182.000" stroke-width="12.737" stroke="rgb(33,33,33)" fill="none" stroke-linecap="round"></path><path d="M 295.000,182.000 C 308.504,179.520 308.402,178.731 322.000,177.000" stroke-width="11.156" stroke="rgb(33,33,33)" fill="none" stroke-linecap="round"></path><path d="M 322.000,177.000 C 335.902,175.231 335.982,175.501 350.000,175.000" stroke-width="10.110" stroke="rgb(33,33,33)" fill="none" stroke-linecap="round"></path><path d="M 350.000,175.000 C 363.982,174.501 364.000,175.000 378.000,175.000" stroke-width="9.581" stroke="rgb(33,33,33)" fill="none" stroke-linecap="round"></path><path d="M 378.000,175.000 C 389.000,175.000 389.000,175.000 400.000,175.000" stroke-width="9.350" stroke="rgb(33,33,33)" fill="none" stroke-linecap="round"></path><path d="M 358.000,220.000 C 359.000,219.000 358.705,218.288 360.000,218.000" stroke-width="19.764" stroke="rgb(33,33,33)" fill="none" stroke-linecap="round"></path><path d="M 360.000,218.000 C 363.205,217.288 363.500,218.000 367.000,218.000" stroke-width="18.375" stroke="rgb(33,33,33)" fill="none" stroke-linecap="round"></path><path d="M 367.000,218.000 C 371.500,218.000 371.500,218.000 376.000,218.000" stroke-width="17.214" stroke="rgb(33,33,33)" fill="none" stroke-linecap="round"></path><path d="M 376.000,218.000 C 381.000,218.000 381.000,218.000 386.000,218.000" stroke-width="15.994" stroke="rgb(33,33,33)" fill="none" stroke-linecap="round"></path><path d="M 386.000,218.000 C 392.000,218.000 392.000,218.000 398.000,218.000" stroke-width="14.858" stroke="rgb(33,33,33)" fill="none" stroke-linecap="round"></path><path d="M 398.000,218.000 C 403.500,218.000 403.551,218.519 409.000,218.000" stroke-width="14.336" stroke="rgb(33,33,33)" fill="none" stroke-linecap="round"></path><path d="M 409.000,218.000 C 414.051,217.519 414.000,217.000 419.000,216.000" stroke-width="13.894" stroke="rgb(33,33,33)" fill="none" stroke-linecap="round"></path><path d="M 419.000,216.000 C 421.500,215.500 421.482,215.315 424.000,215.000" stroke-width="14.164" stroke="rgb(33,33,33)" fill="none" stroke-linecap="round"></path><path d="M 424.000,215.000 C 425.482,214.815 427.971,215.000 427.000,215.000" stroke-width="14.684" stroke="rgb(33,33,33)" fill="none" stroke-linecap="round"></path><path d="M 427.000,215.000 C 422.471,215.000 419.994,214.781 413.000,215.000" stroke-width="14.531" stroke="rgb(33,33,33)" fill="none" stroke-linecap="round"></path><path d="M 413.000,215.000 C 403.994,215.281 403.918,214.885 395.000,216.000" stroke-width="13.262" stroke="rgb(33,33,33)" fill="none" stroke-linecap="round"></path><path d="M 395.000,216.000 C 387.918,216.885 387.940,217.265 381.000,219.000" stroke-width="12.736" stroke="rgb(33,33,33)" fill="none" stroke-linecap="round"></path><path d="M 381.000,219.000 C 375.940,220.265 375.733,219.971 371.000,222.000" stroke-width="12.697" stroke="rgb(33,33,33)" fill="none" stroke-linecap="round"></path><path d="M 371.000,222.000 C 368.733,222.971 368.727,223.273 367.000,225.000" stroke-width="13.163" stroke="rgb(33,33,33)" fill="none" stroke-linecap="round"></path><path d="M 367.000,225.000 C 366.227,225.773 366.214,225.932 366.000,227.000" stroke-width="13.898" stroke="rgb(33,33,33)" fill="none" stroke-linecap="round"></path><path d="M 366.000,227.000 C 365.714,228.432 364.854,229.375 366.000,230.000" stroke-width="14.432" stroke="rgb(33,33,33)" fill="none" stroke-linecap="round"></path><path d="M 366.000,230.000 C 370.354,232.375 371.436,231.791 377.000,233.000" stroke-width="13.902" stroke="rgb(33,33,33)" fill="none" stroke-linecap="round"></path><path d="M 377.000,233.000 C 382.936,234.291 382.956,234.535 389.000,235.000" stroke-width="13.425" stroke="rgb(33,33,33)" fill="none" stroke-linecap="round"></path><path d="M 389.000,235.000 C 395.956,235.535 396.000,235.000 403.000,235.000" stroke-width="12.802" stroke="rgb(33,33,33)" fill="none" stroke-linecap="round"></path><path d="M 403.000,235.000 C 410.000,235.000 410.000,235.000 417.000,235.000" stroke-width="12.423" stroke="rgb(33,33,33)" fill="none" stroke-linecap="round"></path><path d="M 417.000,235.000 C 424.000,235.000 424.000,235.000 431.000,235.000" stroke-width="12.135" stroke="rgb(33,33,33)" fill="none" stroke-linecap="round"></path><path d="M 431.000,235.000 C 436.000,235.000 436.000,235.000 441.000,235.000" stroke-width="12.253" stroke="rgb(33,33,33)" fill="none" stroke-linecap="round"></path><path d="M 441.000,235.000 C 444.500,235.000 444.500,235.000 448.000,235.000" stroke-width="12.621" stroke="rgb(33,33,33)" fill="none" stroke-linecap="round"></path><path d="M 448.000,235.000 C 450.000,235.000 450.000,235.000 452.000,235.000" stroke-width="13.204" stroke="rgb(33,33,33)" fill="none" stroke-linecap="round"></path><path d="M 452.000,235.000 C 453.500,235.000 454.250,235.000 455.000,235.000" stroke-width="13.828" stroke="rgb(33,33,33)" fill="none" stroke-linecap="round"></path><path d="M 455.000,235.000 C 455.250,235.000 454.457,234.817 454.000,235.000" stroke-width="14.700" stroke="rgb(33,33,33)" fill="none" stroke-linecap="round"></path><path d="M 454.000,235.000 C 451.957,235.817 451.519,235.481 450.000,237.000" stroke-width="15.010" stroke="rgb(33,33,33)" fill="none" stroke-linecap="round"></path><path d="M 450.000,237.000 C 448.019,238.981 447.990,239.359 447.000,242.000" stroke-width="15.023" stroke="rgb(33,33,33)" fill="none" stroke-linecap="round"></path><path d="M 447.000,242.000 C 446.490,243.359 447.000,243.500 447.000,245.000" stroke-width="15.416" stroke="rgb(33,33,33)" fill="none" stroke-linecap="round"></path><circle r="6" cx="466" cy="174" fill="rgb(33,33,33)"></circle><path d="M 493.000,230.000 C 495.500,226.500 495.420,226.440 498.000,223.000" stroke-width="19.247" stroke="rgb(33,33,33)" fill="none" stroke-linecap="round"></path><path d="M 498.000,223.000 C 499.920,220.440 500.035,220.527 502.000,218.000" stroke-width="18.128" stroke="rgb(33,33,33)" fill="none" stroke-linecap="round"></path><path d="M 502.000,218.000 C 503.535,216.027 503.796,216.167 505.000,214.000" stroke-width="17.666" stroke="rgb(33,33,33)" fill="none" stroke-linecap="round"></path><path d="M 505.000,214.000 C 506.296,211.667 506.150,211.549 507.000,209.000" stroke-width="17.098" stroke="rgb(33,33,33)" fill="none" stroke-linecap="round"></path><path d="M 507.000,209.000 C 507.650,207.049 507.663,207.020 508.000,205.000" stroke-width="16.970" stroke="rgb(33,33,33)" fill="none" stroke-linecap="round"></path><path d="M 508.000,205.000 C 508.163,204.020 508.500,203.500 508.000,203.000" stroke-width="17.115" stroke="rgb(33,33,33)" fill="none" stroke-linecap="round"></path><path d="M 508.000,203.000 C 507.500,202.500 506.869,202.566 506.000,203.000" stroke-width="17.306" stroke="rgb(33,33,33)" fill="none" stroke-linecap="round"></path><path d="M 506.000,203.000 C 502.869,204.566 502.113,204.253 500.000,207.000" stroke-width="16.514" stroke="rgb(33,33,33)" fill="none" stroke-linecap="round"></path><path d="M 500.000,207.000 C 497.113,210.753 497.783,211.416 496.000,216.000" stroke-width="15.615" stroke="rgb(33,33,33)" fill="none" stroke-linecap="round"></path><path d="M 496.000,216.000 C 494.283,220.416 494.146,220.416 493.000,225.000" stroke-width="15.080" stroke="rgb(33,33,33)" fill="none" stroke-linecap="round"></path><path d="M 493.000,225.000 C 492.146,228.416 492.251,228.482 492.000,232.000" stroke-width="14.724" stroke="rgb(33,33,33)" fill="none" stroke-linecap="round"></path><path d="M 492.000,232.000 C 491.751,235.482 491.182,235.727 492.000,239.000" stroke-width="14.646" stroke="rgb(33,33,33)" fill="none" stroke-linecap="round"></path><path d="M 492.000,239.000 C 492.682,241.727 492.776,242.443 495.000,244.000" stroke-width="14.685" stroke="rgb(33,33,33)" fill="none" stroke-linecap="round"></path><path d="M 495.000,244.000 C 497.776,245.943 498.406,245.673 502.000,246.000" stroke-width="14.581" stroke="rgb(33,33,33)" fill="none" stroke-linecap="round"></path><path d="M 502.000,246.000 C 509.406,246.673 509.931,247.824 517.000,246.000" stroke-width="13.613" stroke="rgb(33,33,33)" fill="none" stroke-linecap="round"></path><path d="M 517.000,246.000 C 525.431,243.824 525.605,242.930 533.000,238.000" stroke-width="12.549" stroke="rgb(33,33,33)" fill="none" stroke-linecap="round"></path><path d="M 533.000,238.000 C 542.105,231.930 542.250,231.750 550.000,224.000" stroke-width="11.571" stroke="rgb(33,33,33)" fill="none" stroke-linecap="round"></path><path d="M 550.000,224.000 C 557.750,216.250 558.046,216.180 564.000,207.000" stroke-width="10.892" stroke="rgb(33,33,33)" fill="none" stroke-linecap="round"></path><path d="M 564.000,207.000 C 570.046,197.680 569.672,197.278 574.000,187.000" stroke-width="10.383" stroke="rgb(33,33,33)" fill="none" stroke-linecap="round"></path><path d="M 574.000,187.000 C 577.672,178.278 578.007,178.218 580.000,169.000" stroke-width="10.274" stroke="rgb(33,33,33)" fill="none" stroke-linecap="round"></path><path d="M 580.000,169.000 C 582.007,159.718 581.161,159.514 582.000,150.000" stroke-width="10.117" stroke="rgb(33,33,33)" fill="none" stroke-linecap="round"></path><path d="M 582.000,150.000 C 582.661,142.514 582.750,142.508 583.000,135.000" stroke-width="10.044" stroke="rgb(33,33,33)" fill="none" stroke-linecap="round"></path><path d="M 583.000,135.000 C 583.250,127.508 583.000,127.500 583.000,120.000" stroke-width="10.179" stroke="rgb(33,33,33)" fill="none" stroke-linecap="round"></path><path d="M 583.000,120.000 C 583.000,115.000 583.000,115.000 583.000,110.000" stroke-width="10.607" stroke="rgb(33,33,33)" fill="none" stroke-linecap="round"></path><path d="M 583.000,110.000 C 583.000,107.000 583.000,107.000 583.000,104.000" stroke-width="11.236" stroke="rgb(33,33,33)" fill="none" stroke-linecap="round"></path><path d="M 583.000,104.000 C 583.000,103.000 583.000,101.308 583.000,102.000" stroke-width="12.160" stroke="rgb(33,33,33)" fill="none" stroke-linecap="round"></path><path d="M 583.000,102.000 C 583.000,105.808 583.000,107.500 583.000,113.000" stroke-width="12.665" stroke="rgb(33,33,33)" fill="none" stroke-linecap="round"></path><path d="M 583.000,113.000 C 583.000,120.000 582.794,120.005 583.000,127.000" stroke-width="12.319" stroke="rgb(33,33,33)" fill="none" stroke-linecap="round"></path><path d="M 583.000,127.000 C 583.294,137.005 582.246,137.226 584.000,147.000" stroke-width="11.567" stroke="rgb(33,33,33)" fill="none" stroke-linecap="round"></path><path d="M 584.000,147.000 C 585.746,156.726 586.781,156.574 590.000,166.000" stroke-width="11.036" stroke="rgb(33,33,33)" fill="none" stroke-linecap="round"></path><path d="M 590.000,166.000 C 593.781,177.074 593.607,177.163 598.000,188.000" stroke-width="10.329" stroke="rgb(33,33,33)" fill="none" stroke-linecap="round"></path><path d="M 598.000,188.000 C 601.107,195.663 601.194,195.660 605.000,203.000" stroke-width="10.315" stroke="rgb(33,33,33)" fill="none" stroke-linecap="round"></path><path d="M 605.000,203.000 C 608.194,209.160 607.792,209.590 612.000,215.000" stroke-width="10.470" stroke="rgb(33,33,33)" fill="none" stroke-linecap="round"></path><path d="M 612.000,215.000 C 614.792,218.590 615.238,218.395 619.000,221.000" stroke-width="10.873" stroke="rgb(33,33,33)" fill="none" stroke-linecap="round"></path><path d="M 619.000,221.000 C 621.738,222.895 621.807,223.316 625.000,224.000" stroke-width="11.448" stroke="rgb(33,33,33)" fill="none" stroke-linecap="round"></path><path d="M 625.000,224.000 C 628.807,224.816 629.096,224.651 633.000,224.000" stroke-width="11.807" stroke="rgb(33,33,33)" fill="none" stroke-linecap="round"></path><path d="M 633.000,224.000 C 638.096,223.151 638.276,223.126 643.000,221.000" stroke-width="12.079" stroke="rgb(33,33,33)" fill="none" stroke-linecap="round"></path><path d="M 643.000,221.000 C 648.276,218.626 648.209,218.294 653.000,215.000" stroke-width="11.857" stroke="rgb(33,33,33)" fill="none" stroke-linecap="round"></path><path d="M 653.000,215.000 C 656.209,212.794 655.772,212.152 659.000,210.000" stroke-width="12.250" stroke="rgb(33,33,33)" fill="none" stroke-linecap="round"></path><path d="M 659.000,210.000 C 661.772,208.152 662.000,208.500 665.000,207.000" stroke-width="12.563" stroke="rgb(33,33,33)" fill="none" stroke-linecap="round"></path><path d="M 665.000,207.000 C 667.000,206.000 666.875,205.472 669.000,205.000" stroke-width="13.131" stroke="rgb(33,33,33)" fill="none" stroke-linecap="round"></path><path d="M 669.000,205.000 C 671.375,204.472 671.593,204.519 674.000,205.000" stroke-width="13.535" stroke="rgb(33,33,33)" fill="none" stroke-linecap="round"></path><path d="M 674.000,205.000 C 676.593,205.519 676.982,205.319 679.000,207.000" stroke-width="13.867" stroke="rgb(33,33,33)" fill="none" stroke-linecap="round"></path><path d="M 679.000,207.000 C 682.982,210.319 682.248,211.248 686.000,215.000" stroke-width="13.561" stroke="rgb(33,33,33)" fill="none" stroke-linecap="round"></path><path d="M 686.000,215.000 C 690.748,219.748 690.668,219.937 696.000,224.000" stroke-width="13.040" stroke="rgb(33,33,33)" fill="none" stroke-linecap="round"></path><path d="M 696.000,224.000 C 701.168,227.937 701.291,227.886 707.000,231.000" stroke-width="12.614" stroke="rgb(33,33,33)" fill="none" stroke-linecap="round"></path><path d="M 707.000,231.000 C 712.291,233.886 712.340,233.942 718.000,236.000" stroke-width="12.451" stroke="rgb(33,33,33)" fill="none" stroke-linecap="round"></path><path d="M 718.000,236.000 C 723.340,237.942 723.424,238.071 729.000,239.000" stroke-width="12.320" stroke="rgb(33,33,33)" fill="none" stroke-linecap="round"></path><path d="M 729.000,239.000 C 732.424,239.571 732.529,238.711 736.000,239.000" stroke-width="12.678" stroke="rgb(33,33,33)" fill="none" stroke-linecap="round"></path><path d="M 736.000,239.000 C 738.529,239.211 738.482,239.685 741.000,240.000" stroke-width="13.168" stroke="rgb(33,33,33)" fill="none" stroke-linecap="round"></path><path d="M 326.000,256.000 C 321.500,256.500 321.508,256.653 317.000,257.000" stroke-width="15.555" stroke="rgb(33,33,33)" fill="none" stroke-linecap="round"></path><path d="M 317.000,257.000 C 315.008,257.153 315.000,257.000 313.000,257.000" stroke-width="15.324" stroke="rgb(33,33,33)" fill="none" stroke-linecap="round"></path><path d="M 313.000,257.000 C 312.500,257.000 312.167,256.667 312.000,257.000" stroke-width="15.966" stroke="rgb(33,33,33)" fill="none" stroke-linecap="round"></path><path d="M 312.000,257.000 C 311.667,257.667 311.240,258.494 312.000,259.000" stroke-width="16.335" stroke="rgb(33,33,33)" fill="none" stroke-linecap="round"></path><path d="M 312.000,259.000 C 315.740,261.494 316.403,261.249 321.000,263.000" stroke-width="15.563" stroke="rgb(33,33,33)" fill="none" stroke-linecap="round"></path><path d="M 321.000,263.000 C 326.903,265.249 326.875,265.469 333.000,267.000" stroke-width="14.658" stroke="rgb(33,33,33)" fill="none" stroke-linecap="round"></path><path d="M 333.000,267.000 C 342.875,269.469 342.882,270.191 353.000,271.000" stroke-width="12.980" stroke="rgb(33,33,33)" fill="none" stroke-linecap="round"></path><path d="M 353.000,271.000 C 367.882,272.191 368.000,271.000 383.000,271.000" stroke-width="10.957" stroke="rgb(33,33,33)" fill="none" stroke-linecap="round"></path><path d="M 383.000,271.000 C 400.000,271.000 400.002,271.218 417.000,271.000" stroke-width="9.627" stroke="rgb(33,33,33)" fill="none" stroke-linecap="round"></path><path d="M 417.000,271.000 C 439.002,270.718 439.000,270.500 461.000,270.000" stroke-width="8.538" stroke="rgb(33,33,33)" fill="none" stroke-linecap="round"></path><path d="M 461.000,270.000 C 483.000,269.500 482.997,269.244 505.000,269.000" stroke-width="7.428" stroke="rgb(33,33,33)" fill="none" stroke-linecap="round"></path><path d="M 505.000,269.000 C 527.997,268.744 528.003,268.744 551.000,269.000" stroke-width="6.851" stroke="rgb(33,33,33)" fill="none" stroke-linecap="round"></path><path d="M 551.000,269.000 C 573.003,269.244 573.058,268.629 595.000,270.000" stroke-width="6.750" stroke="rgb(33,33,33)" fill="none" stroke-linecap="round"></path><path d="M 595.000,270.000 C 613.058,271.129 613.026,271.788 631.000,274.000" stroke-width="6.750" stroke="rgb(33,33,33)" fill="none" stroke-linecap="round"></path><path d="M 631.000,274.000 C 645.526,275.788 645.560,275.643 660.000,278.000" stroke-width="6.750" stroke="rgb(33,33,33)" fill="none" stroke-linecap="round"></path><path d="M 660.000,278.000 C 670.060,279.643 670.012,279.944 680.000,282.000" stroke-width="7.052" stroke="rgb(33,33,33)" fill="none" stroke-linecap="round"></path><path d="M 680.000,282.000 C 687.012,283.444 686.955,283.775 694.000,285.000" stroke-width="7.596" stroke="rgb(33,33,33)" fill="none" stroke-linecap="round"></path><path d="M 694.000,285.000 C 698.455,285.775 698.522,285.360 703.000,286.000" stroke-width="8.302" stroke="rgb(33,33,33)" fill="none" stroke-linecap="round"></path></svg>