<svg xmlns="http://www.w3.org/2000/svg" xmlns:xlink="http://www.w3.org/1999/xlink" viewBox="0 0 800 500"><path d="M 270.000,66.500 C 264.500,74.500 262.880,73.770 259.000,82.500" stroke-width="17.929" stroke="rgb(33,33,33)" fill="none" stroke-linecap="round"></path><path d="M 259.000,82.500 C 254.880,91.770 256.189,92.431 254.000,102.500" stroke-width="14.876" stroke="rgb(33,33,33)" fill="none" stroke-linecap="round"></path><path d="M 254.000,102.500 C 251.189,115.431 251.212,115.450 249.000,128.500" stroke-width="12.500" stroke="rgb(33,33,33)" fill="none" stroke-linecap="round"></path><path d="M 249.000,128.500 C 246.212,144.950 246.255,144.967 244.000,161.500" stroke-width="11.067" stroke="rgb(33,33,33)" fill="none" stroke-linecap="round"></path><path d="M 244.000,161.500 C 241.755,177.967 241.753,177.974 240.000,194.500" stroke-width="9.739" stroke="rgb(33,33,33)" fill="none" stroke-linecap="round"></path><path d="M 240.000,194.500 C 238.253,210.974 238.084,210.974 237.000,227.500" stroke-width="9.074" stroke="rgb(33,33,33)" fill="none" stroke-linecap="round"></path><path d="M 237.000,227.500 C 236.084,241.474 235.726,241.520 236.000,255.500" stroke-width="8.380" stroke="rgb(33,33,33)" fill="none" stroke-linecap="round"></path><path d="M 236.000,255.500 C 236.226,267.020 234.492,267.976 238.000,278.500" stroke-width="8.296" stroke="rgb(33,33,33)" fill="none" stroke-linecap="round"></path><path d="M 238.000,278.500 C 240.492,285.976 241.713,286.853 248.000,291.500" stroke-width="8.673" stroke="rgb(33,33,33)" fill="none" stroke-linecap="round"></path><path d="M 248.000,291.500 C 253.213,295.353 254.409,295.500 261.000,295.500" stroke-width="8.892" stroke="rgb(33,33,33)" fill="none" stroke-linecap="round"></path><path d="M 261.000,295.500 C 270.409,295.500 271.791,296.105 280.000,291.500" stroke-width="8.999" stroke="rgb(33,33,33)" fill="none" stroke-linecap="round"></path><path d="M 280.000,291.500 C 292.291,284.605 292.145,283.076 302.000,272.500" stroke-width="8.717" stroke="rgb(33,33,33)" fill="none" stroke-linecap="round"></path><path d="M 302.000,272.500 C 312.645,261.076 312.367,260.573 321.000,247.500" stroke-width="8.175" stroke="rgb(33,33,33)" fill="none" stroke-linecap="round"></path><path d="M 321.000,247.500 C 329.867,234.073 329.598,233.810 337.000,219.500" stroke-width="7.907" stroke="rgb(33,33,33)" fill="none" stroke-linecap="round"></path><path d="M 337.000,219.500 C 344.598,204.810 344.951,204.874 351.000,189.500" stroke-width="7.675" stroke="rgb(33,33,33)" fill="none" stroke-linecap="round"></path><path d="M 351.000,189.500 C 356.951,174.374 357.061,174.255 361.000,158.500" stroke-width="7.517" stroke="rgb(33,33,33)" fill="none" stroke-linecap="round"></path><path d="M 361.000,158.500 C 364.061,146.255 363.952,146.076 365.000,133.500" stroke-width="7.633" stroke="rgb(33,33,33)" fill="none" stroke-linecap="round"></path><path d="M 365.000,133.500 C 365.952,122.076 365.295,121.991 365.000,110.500" stroke-width="7.810" stroke="rgb(33,33,33)" fill="none" stroke-linecap="round"></path><path d="M 365.000,110.500 C 364.795,102.491 365.905,102.122 364.000,94.500" stroke-width="8.183" stroke="rgb(33,33,33)" fill="none" stroke-linecap="round"></path><path d="M 364.000,94.500 C 362.405,88.122 361.792,87.872 358.000,82.500" stroke-width="8.662" stroke="rgb(33,33,33)" fill="none" stroke-linecap="round"></path><path d="M 358.000,82.500 C 355.792,79.372 355.458,78.735 352.000,77.500" stroke-width="9.366" stroke="rgb(33,33,33)" fill="none" stroke-linecap="round"></path><path d="M 352.000,77.500 C 348.458,76.235 347.114,75.476 344.000,77.500" stroke-width="9.977" stroke="rgb(33,33,33)" fill="none" stroke-linecap="round"></path><path d="M 344.000,77.500 C 337.114,81.976 337.021,83.295 332.000,90.500" stroke-width="9.903" stroke="rgb(33,33,33)" fill="none" stroke-linecap="round"></path><path d="M 332.000,90.500 C 325.521,99.795 325.402,100.020 321.000,110.500" stroke-width="9.623" stroke="rgb(33,33,33)" fill="none" stroke-linecap="round"></path><path d="M 321.000,110.500 C 314.902,125.020 315.175,125.273 311.000,140.500" stroke-width="8.886" stroke="rgb(33,33,33)" fill="none" stroke-linecap="round"></path><path d="M 311.000,140.500 C 306.675,156.273 306.524,156.348 304.000,172.500" stroke-width="8.408" stroke="rgb(33,33,33)" fill="none" stroke-linecap="round"></path><path d="M 304.000,172.500 C 301.524,188.348 302.069,188.472 301.000,204.500" stroke-width="8.084" stroke="rgb(33,33,33)" fill="none" stroke-linecap="round"></path><path d="M 301.000,204.500 C 300.069,218.472 300.250,218.496 300.000,232.500" stroke-width="7.993" stroke="rgb(33,33,33)" fill="none" stroke-linecap="round"></path><path d="M 300.000,232.500 C 299.750,246.496 298.008,246.839 300.000,260.500" stroke-width="7.859" stroke="rgb(33,33,33)" fill="none" stroke-linecap="round"></path><path d="M 300.000,260.500 C 301.508,270.839 301.627,271.734 307.000,280.500" stroke-width="8.110" stroke="rgb(33,33,33)" fill="none" stroke-linecap="round"></path><path d="M 307.000,280.500 C 311.127,287.234 312.019,288.278 319.000,291.500" stroke-width="8.476" stroke="rgb(33,33,33)" fill="none" stroke-linecap="round"></path><path d="M 319.000,291.500 C 325.019,294.278 326.277,293.915 333.000,292.500" stroke-width="8.811" stroke="rgb(33,33,33)" fill="none" stroke-linecap="round"></path><path d="M 333.000,292.500 C 345.277,289.915 346.611,290.501 357.000,283.500" stroke-width="8.772" stroke="rgb(33,33,33)" fill="none" stroke-linecap="round"></path><path d="M 357.000,283.500 C 369.611,275.001 369.151,273.459 379.000,261.500" stroke-width="8.128" stroke="rgb(33,33,33)" fill="none" stroke-linecap="round"></path><path d="M 379.000,261.500 C 390.151,247.959 389.880,247.535 399.000,232.500" stroke-width="7.766" stroke="rgb(33,33,33)" fill="none" stroke-linecap="round"></path><path d="M 399.000,232.500 C 408.380,217.035 408.438,216.929 416.000,200.500" stroke-width="7.466" stroke="rgb(33,33,33)" fill="none" stroke-linecap="round"></path><path d="M 416.000,200.500 C 422.938,185.429 422.993,185.311 428.000,169.500" stroke-width="7.270" stroke="rgb(33,33,33)" fill="none" stroke-linecap="round"></path><path d="M 428.000,169.500 C 432.493,155.311 432.654,155.165 435.000,140.500" stroke-width="7.286" stroke="rgb(33,33,33)" fill="none" stroke-linecap="round"></path><path d="M 435.000,140.500 C 436.654,130.165 435.737,130.006 436.000,119.500" stroke-width="7.582" stroke="rgb(33,33,33)" fill="none" stroke-linecap="round"></path><path d="M 436.000,119.500 C 436.237,110.006 437.238,109.782 436.000,100.500" stroke-width="7.867" stroke="rgb(33,33,33)" fill="none" stroke-linecap="round"></path><path d="M 436.000,100.500 C 435.238,94.782 435.170,94.111 432.000,89.500" stroke-width="8.448" stroke="rgb(33,33,33)" fill="none" stroke-linecap="round"></path><path d="M 432.000,89.500 C 429.670,86.111 428.967,85.544 425.000,84.500" stroke-width="9.127" stroke="rgb(33,33,33)" fill="none" stroke-linecap="round"></path><path d="M 425.000,84.500 C 419.467,83.044 418.051,81.974 413.000,84.500" stroke-width="9.529" stroke="rgb(33,33,33)" fill="none" stroke-linecap="round"></path><path d="M 413.000,84.500 C 404.051,88.974 403.649,90.350 397.000,98.500" stroke-width="9.479" stroke="rgb(33,33,33)" fill="none" stroke-linecap="round"></path><path d="M 397.000,98.500 C 388.149,109.350 388.627,110.041 382.000,122.500" stroke-width="8.949" stroke="rgb(33,33,33)" fill="none" stroke-linecap="round"></path><path d="M 382.000,122.500 C 376.127,133.541 375.701,133.605 372.000,145.500" stroke-width="8.784" stroke="rgb(33,33,33)" fill="none" stroke-linecap="round"></path><path d="M 372.000,145.500 C 368.701,156.105 369.031,156.413 368.000,167.500" stroke-width="8.714" stroke="rgb(33,33,33)" fill="none" stroke-linecap="round"></path><path d="M 368.000,167.500 C 367.031,177.913 366.386,178.277 368.000,188.500" stroke-width="8.781" stroke="rgb(33,33,33)" fill="none" stroke-linecap="round"></path><path d="M 368.000,188.500 C 369.386,197.277 368.969,198.456 374.000,205.500" stroke-width="9.062" stroke="rgb(33,33,33)" fill="none" stroke-linecap="round"></path><path d="M 374.000,205.500 C 378.969,212.456 380.320,212.263 388.000,216.500" stroke-width="9.162" stroke="rgb(33,33,33)" fill="none" stroke-linecap="round"></path><path d="M 388.000,216.500 C 394.820,220.263 395.351,219.588 403.000,221.500" stroke-width="9.293" stroke="rgb(33,33,33)" fill="none" stroke-linecap="round"></path><path d="M 403.000,221.500 C 411.351,223.588 411.454,223.361 420.000,224.500" stroke-width="9.379" stroke="rgb(33,33,33)" fill="none" stroke-linecap="round"></path><path d="M 420.000,224.500 C 426.454,225.361 426.490,225.250 433.000,225.500" stroke-width="9.733" stroke="rgb(33,33,33)" fill="none" stroke-linecap="round"></path><path d="M 279.000,353.500 C 291.000,351.500 291.241,352.440 303.000,349.500" stroke-width="15.527" stroke="rgb(33,33,33)" fill="none" stroke-linecap="round"></path><path d="M 303.000,349.500 C 313.241,346.940 313.114,346.302 323.000,342.500" stroke-width="12.904" stroke="rgb(33,33,33)" fill="none" stroke-linecap="round"></path><path d="M 323.000,342.500 C 339.114,336.302 339.388,336.833 355.000,329.500" stroke-width="9.719" stroke="rgb(33,33,33)" fill="none" stroke-linecap="round"></path><path d="M 355.000,329.500 C 372.388,321.333 372.079,320.646 389.000,311.500" stroke-width="9.068" stroke="rgb(33,33,33)" fill="none" stroke-linecap="round"></path><path d="M 389.000,311.500 C 409.079,300.646 408.735,299.990 429.000,289.500" stroke-width="7.674" stroke="rgb(33,33,33)" fill="none" stroke-linecap="round"></path><path d="M 429.000,289.500 C 451.235,277.990 451.600,278.700 474.000,267.500" stroke-width="6.798" stroke="rgb(33,33,33)" fill="none" stroke-linecap="round"></path><path d="M 474.000,267.500 C 495.600,256.700 495.679,256.835 517.000,245.500" stroke-width="6.750" stroke="rgb(33,33,33)" fill="none" stroke-linecap="round"></path><path d="M 517.000,245.500 C 535.179,235.835 534.872,235.261 553.000,225.500" stroke-width="6.750" stroke="rgb(33,33,33)" fill="none" stroke-linecap="round"></path><path d="M 553.000,225.500 C 567.372,217.761 567.598,218.181 582.000,210.500" stroke-width="6.750" stroke="rgb(33,33,33)" fill="none" stroke-linecap="round"></path><path d="M 582.000,210.500 C 590.098,206.181 590.050,206.086 598.000,201.500" stroke-width="6.750" stroke="rgb(33,33,33)" fill="none" stroke-linecap="round"></path><path d="M 598.000,201.500 C 603.050,198.586 603.451,199.000 608.000,195.500" stroke-width="7.355" stroke="rgb(33,33,33)" fill="none" stroke-linecap="round"></path><path d="M 608.000,195.500 C 609.951,194.000 609.775,193.644 611.000,191.500" stroke-width="8.227" stroke="rgb(33,33,33)" fill="none" stroke-linecap="round"></path><path d="M 611.000,191.500 C 611.775,190.144 611.694,190.031 612.000,188.500" stroke-width="9.169" stroke="rgb(33,33,33)" fill="none" stroke-linecap="round"></path><path d="M 612.000,188.500 C 612.194,187.531 612.500,187.000 612.000,186.500" stroke-width="10.187" stroke="rgb(33,33,33)" fill="none" stroke-linecap="round"></path><path d="M 612.000,186.500 C 611.500,186.000 611.000,186.500 610.000,186.500" stroke-width="11.155" stroke="rgb(33,33,33)" fill="none" stroke-linecap="round"></path><path d="M 610.000,186.500 C 608.000,186.500 608.000,186.500 606.000,186.500" stroke-width="11.873" stroke="rgb(33,33,33)" fill="none" stroke-linecap="round"></path><path d="M 606.000,186.500 C 604.000,186.500 604.000,186.500 602.000,186.500" stroke-width="12.566" stroke="rgb(33,33,33)" fill="none" stroke-linecap="round"></path></svg>