<svg xmlns="http://www.w3.org/2000/svg" xmlns:xlink="http://www.w3.org/1999/xlink" viewBox="0 0 800 500"><circle r="6" cx="440" cy="321.5" fill="rgb(33,33,33)"></circle><path d="M 440.000,321.500 C 440.000,322.000 440.000,322.000 440.000,322.500" stroke-width="20.196" stroke="rgb(33,33,33)" fill="none" stroke-linecap="round"></path><path d="M 440.000,322.500 C 440.000,323.000 440.000,323.000 440.000,323.500" stroke-width="20.047" stroke="rgb(33,33,33)" fill="none" stroke-linecap="round"></path><path d="M 440.000,323.500 C 440.000,324.000 440.000,324.000 440.000,324.500" stroke-width="19.963" stroke="rgb(33,33,33)" fill="none" stroke-linecap="round"></path><path d="M 440.000,324.500 C 440.000,325.500 439.667,325.833 440.000,326.500" stroke-width="18.950" stroke="rgb(33,33,33)" fill="none" stroke-linecap="round"></path><path d="M 440.000,326.500 C 440.167,326.833 440.750,326.250 441.000,326.500" stroke-width="19.046" stroke="rgb(33,33,33)" fill="none" stroke-linecap="round"></path><path d="M 441.000,326.500 C 441.250,326.750 440.750,327.250 441.000,327.500" stroke-width="19.048" stroke="rgb(33,33,33)" fill="none" stroke-linecap="round"></path><path d="M 441.000,327.500 C 441.250,327.750 441.536,327.345 442.000,327.500" stroke-width="18.829" stroke="rgb(33,33,33)" fill="none" stroke-linecap="round"></path><path d="M 442.000,327.500 C 443.036,327.845 443.309,327.809 444.000,328.500" stroke-width="18.635" stroke="rgb(33,33,33)" fill="none" stroke-linecap="round"></path><path d="M 444.000,328.500 C 444.309,328.809 443.750,329.250 444.000,329.500" stroke-width="18.364" stroke="rgb(33,33,33)" fill="none" stroke-linecap="round"></path><path d="M 444.000,329.500 C 444.250,329.750 444.500,329.500 445.000,329.500" stroke-width="18.570" stroke="rgb(33,33,33)" fill="none" stroke-linecap="round"></path><path d="M 445.000,329.500 C 445.500,329.500 445.500,329.500 446.000,329.500" stroke-width="18.796" stroke="rgb(33,33,33)" fill="none" stroke-linecap="round"></path></svg>