<svg xmlns="http://www.w3.org/2000/svg" xmlns:xlink="http://www.w3.org/1999/xlink" viewBox="0 0 320 500"><path d="M 42.000,68.000 C 43.500,70.500 43.554,70.469 45.000,73.000" stroke-width="18.135" stroke="rgb(33,33,33)" fill="none" stroke-linecap="round"></path><path d="M 45.000,73.000 C 47.554,77.469 47.382,77.569 50.000,82.000" stroke-width="16.009" stroke="rgb(33,33,33)" fill="none" stroke-linecap="round"></path><path d="M 50.000,82.000 C 53.882,88.569 54.239,88.363 58.000,95.000" stroke-width="14.307" stroke="rgb(33,33,33)" fill="none" stroke-linecap="round"></path><path d="M 58.000,95.000 C 62.739,103.363 63.280,103.166 67.000,112.000" stroke-width="13.503" stroke="rgb(33,33,33)" fill="none" stroke-linecap="round"></path><path d="M 67.000,112.000 C 71.280,122.166 70.199,122.610 74.000,133.000" stroke-width="10.991" stroke="rgb(33,33,33)" fill="none" stroke-linecap="round"></path><path d="M 74.000,133.000 C 77.699,143.110 78.085,142.967 82.000,153.000" stroke-width="10.507" stroke="rgb(33,33,33)" fill="none" stroke-linecap="round"></path><path d="M 82.000,153.000 C 86.085,163.467 86.377,163.371 90.000,174.000" stroke-width="10.011" stroke="rgb(33,33,33)" fill="none" stroke-linecap="round"></path><path d="M 90.000,174.000 C 93.877,185.371 94.424,185.292 97.000,197.000" stroke-width="9.638" stroke="rgb(33,33,33)" fill="none" stroke-linecap="round"></path><path d="M 97.000,197.000 C 99.924,210.292 99.521,210.443 101.000,224.000" stroke-width="9.196" stroke="rgb(33,33,33)" fill="none" stroke-linecap="round"></path><path d="M 101.000,224.000 C 102.521,237.943 102.540,237.981 103.000,252.000" stroke-width="8.757" stroke="rgb(33,33,33)" fill="none" stroke-linecap="round"></path><path d="M 103.000,252.000 C 103.540,268.481 104.301,268.608 103.000,285.000" stroke-width="8.305" stroke="rgb(33,33,33)" fill="none" stroke-linecap="round"></path><path d="M 103.000,285.000 C 101.801,300.108 101.997,300.439 98.000,315.000" stroke-width="8.002" stroke="rgb(33,33,33)" fill="none" stroke-linecap="round"></path><path d="M 98.000,315.000 C 94.997,325.939 94.100,325.801 89.000,336.000" stroke-width="8.121" stroke="rgb(33,33,33)" fill="none" stroke-linecap="round"></path><path d="M 89.000,336.000 C 84.100,345.801 84.604,346.387 78.000,355.000" stroke-width="8.255" stroke="rgb(33,33,33)" fill="none" stroke-linecap="round"></path><path d="M 78.000,355.000 C 73.104,361.387 72.716,361.609 66.000,366.000" stroke-width="8.559" stroke="rgb(33,33,33)" fill="none" stroke-linecap="round"></path><path d="M 66.000,366.000 C 59.716,370.109 59.306,370.489 52.000,372.000" stroke-width="8.913" stroke="rgb(33,33,33)" fill="none" stroke-linecap="round"></path><path d="M 52.000,372.000 C 44.806,373.489 44.444,372.677 37.000,372.000" stroke-width="9.184" stroke="rgb(33,33,33)" fill="none" stroke-linecap="round"></path><path d="M 37.000,372.000 C 27.944,371.177 26.261,373.189 19.000,369.000" stroke-width="9.295" stroke="rgb(33,33,33)" fill="none" stroke-linecap="round"></path><path d="M 19.000,369.000 C 13.261,365.689 13.353,363.666 11.000,357.000" stroke-width="9.585" stroke="rgb(33,33,33)" fill="none" stroke-linecap="round"></path><path d="M 11.000,357.000 C 7.353,346.666 7.723,346.088 7.000,335.000" stroke-width="9.405" stroke="rgb(33,33,33)" fill="none" stroke-linecap="round"></path><path d="M 7.000,335.000 C 6.223,323.088 4.796,322.322 8.000,311.000" stroke-width="9.110" stroke="rgb(33,33,33)" fill="none" stroke-linecap="round"></path><path d="M 8.000,311.000 C 12.296,295.822 13.951,295.878 22.000,282.000" stroke-width="8.668" stroke="rgb(33,33,33)" fill="none" stroke-linecap="round"></path><path d="M 22.000,282.000 C 28.451,270.878 28.922,271.027 37.000,261.000" stroke-width="8.535" stroke="rgb(33,33,33)" fill="none" stroke-linecap="round"></path><path d="M 37.000,261.000 C 43.422,253.027 43.511,252.972 51.000,246.000" stroke-width="8.539" stroke="rgb(33,33,33)" fill="none" stroke-linecap="round"></path><path d="M 51.000,246.000 C 58.011,239.472 57.826,238.792 66.000,234.000" stroke-width="8.716" stroke="rgb(33,33,33)" fill="none" stroke-linecap="round"></path><path d="M 66.000,234.000 C 72.326,230.292 72.783,230.244 80.000,229.000" stroke-width="9.022" stroke="rgb(33,33,33)" fill="none" stroke-linecap="round"></path><path d="M 80.000,229.000 C 87.283,227.744 87.800,227.615 95.000,229.000" stroke-width="9.323" stroke="rgb(33,33,33)" fill="none" stroke-linecap="round"></path><path d="M 95.000,229.000 C 100.800,230.115 101.420,230.293 106.000,234.000" stroke-width="9.737" stroke="rgb(33,33,33)" fill="none" stroke-linecap="round"></path><path d="M 106.000,234.000 C 111.920,238.793 112.748,239.089 116.000,246.000" stroke-width="9.890" stroke="rgb(33,33,33)" fill="none" stroke-linecap="round"></path><path d="M 116.000,246.000 C 120.748,256.089 119.720,256.853 122.000,268.000" stroke-width="9.538" stroke="rgb(33,33,33)" fill="none" stroke-linecap="round"></path><path d="M 122.000,268.000 C 124.220,278.853 123.896,278.962 125.000,290.000" stroke-width="9.376" stroke="rgb(33,33,33)" fill="none" stroke-linecap="round"></path><path d="M 125.000,290.000 C 125.896,298.962 124.435,299.236 126.000,308.000" stroke-width="9.463" stroke="rgb(33,33,33)" fill="none" stroke-linecap="round"></path><path d="M 126.000,308.000 C 126.935,313.236 127.000,314.000 130.000,318.000" stroke-width="9.895" stroke="rgb(33,33,33)" fill="none" stroke-linecap="round"></path><path d="M 130.000,318.000 C 131.500,320.000 132.597,320.400 135.000,320.000" stroke-width="10.655" stroke="rgb(33,33,33)" fill="none" stroke-linecap="round"></path><path d="M 135.000,320.000 C 138.597,319.400 140.098,319.382 142.000,316.000" stroke-width="11.119" stroke="rgb(33,33,33)" fill="none" stroke-linecap="round"></path><path d="M 142.000,316.000 C 149.098,303.382 148.249,302.252 153.000,288.000" stroke-width="10.070" stroke="rgb(33,33,33)" fill="none" stroke-linecap="round"></path><path d="M 153.000,288.000 C 158.249,272.252 157.527,272.008 162.000,256.000" stroke-width="9.297" stroke="rgb(33,33,33)" fill="none" stroke-linecap="round"></path><path d="M 162.000,256.000 C 167.027,238.008 166.677,237.904 172.000,220.000" stroke-width="8.297" stroke="rgb(33,33,33)" fill="none" stroke-linecap="round"></path><path d="M 172.000,220.000 C 177.677,200.904 177.485,200.822 184.000,182.000" stroke-width="7.725" stroke="rgb(33,33,33)" fill="none" stroke-linecap="round"></path><path d="M 184.000,182.000 C 190.985,161.822 191.385,161.956 199.000,142.000" stroke-width="7.233" stroke="rgb(33,33,33)" fill="none" stroke-linecap="round"></path><path d="M 199.000,142.000 C 205.885,123.956 205.142,123.613 213.000,106.000" stroke-width="6.929" stroke="rgb(33,33,33)" fill="none" stroke-linecap="round"></path><path d="M 213.000,106.000 C 219.642,91.113 219.880,91.135 228.000,77.000" stroke-width="6.930" stroke="rgb(33,33,33)" fill="none" stroke-linecap="round"></path><path d="M 228.000,77.000 C 233.380,67.635 233.576,67.673 240.000,59.000" stroke-width="7.252" stroke="rgb(33,33,33)" fill="none" stroke-linecap="round"></path><path d="M 240.000,59.000 C 243.576,54.173 243.328,53.003 248.000,50.000" stroke-width="7.836" stroke="rgb(33,33,33)" fill="none" stroke-linecap="round"></path><path d="M 248.000,50.000 C 250.328,48.503 252.257,48.257 254.000,50.000" stroke-width="8.661" stroke="rgb(33,33,33)" fill="none" stroke-linecap="round"></path><path d="M 254.000,50.000 C 256.757,52.757 256.630,54.317 257.000,59.000" stroke-width="9.307" stroke="rgb(33,33,33)" fill="none" stroke-linecap="round"></path><path d="M 257.000,59.000 C 258.130,73.317 258.017,73.560 257.000,88.000" stroke-width="8.792" stroke="rgb(33,33,33)" fill="none" stroke-linecap="round"></path><path d="M 257.000,88.000 C 255.517,109.060 255.284,109.122 252.000,130.000" stroke-width="7.876" stroke="rgb(33,33,33)" fill="none" stroke-linecap="round"></path><path d="M 252.000,130.000 C 248.284,153.622 247.382,153.478 243.000,177.000" stroke-width="7.181" stroke="rgb(33,33,33)" fill="none" stroke-linecap="round"></path><path d="M 243.000,177.000 C 237.882,204.478 237.800,204.465 233.000,232.000" stroke-width="6.750" stroke="rgb(33,33,33)" fill="none" stroke-linecap="round"></path><path d="M 233.000,232.000 C 228.300,258.965 227.944,258.920 224.000,286.000" stroke-width="6.750" stroke="rgb(33,33,33)" fill="none" stroke-linecap="round"></path><path d="M 224.000,286.000 C 220.444,310.420 220.402,310.443 218.000,335.000" stroke-width="6.750" stroke="rgb(33,33,33)" fill="none" stroke-linecap="round"></path><path d="M 218.000,335.000 C 215.902,356.443 216.195,356.484 215.000,378.000" stroke-width="6.750" stroke="rgb(33,33,33)" fill="none" stroke-linecap="round"></path><path d="M 215.000,378.000 C 214.195,392.484 214.279,392.496 214.000,407.000" stroke-width="6.750" stroke="rgb(33,33,33)" fill="none" stroke-linecap="round"></path></svg>