<svg xmlns="http://www.w3.org/2000/svg" xmlns:xlink="http://www.w3.org/1999/xlink" viewBox="0 0 800 500"><path d="M 17.500,140.500 C 17.500,141.500 17.500,141.500 17.500,142.500" stroke-width="20.059" stroke="rgb(33,33,33)" fill="none" stroke-linecap="round"></path><path d="M 17.500,142.500 C 17.500,144.500 17.500,144.500 17.500,146.500" stroke-width="18.282" stroke="rgb(33,33,33)" fill="none" stroke-linecap="round"></path><path d="M 17.500,146.500 C 17.500,148.500 17.500,148.500 17.500,150.500" stroke-width="17.073" stroke="rgb(33,33,33)" fill="none" stroke-linecap="round"></path><path d="M 17.500,150.500 C 17.500,153.000 17.500,153.000 17.500,155.500" stroke-width="15.896" stroke="rgb(33,33,33)" fill="none" stroke-linecap="round"></path><path d="M 17.500,155.500 C 17.500,159.000 17.718,159.012 17.500,162.500" stroke-width="14.525" stroke="rgb(33,33,33)" fill="none" stroke-linecap="round"></path><path d="M 17.500,162.500 C 17.218,167.012 17.000,167.000 16.500,171.500" stroke-width="13.135" stroke="rgb(33,33,33)" fill="none" stroke-linecap="round"></path><path d="M 16.500,171.500 C 16.000,176.000 15.751,175.986 15.500,180.500" stroke-width="12.201" stroke="rgb(33,33,33)" fill="none" stroke-linecap="round"></path><path d="M 15.500,180.500 C 15.251,184.986 15.994,185.054 15.500,189.500" stroke-width="11.553" stroke="rgb(33,33,33)" fill="none" stroke-linecap="round"></path><path d="M 15.500,189.500 C 14.994,194.054 14.035,193.949 13.500,198.500" stroke-width="11.049" stroke="rgb(33,33,33)" fill="none" stroke-linecap="round"></path><path d="M 13.500,198.500 C 13.035,202.449 13.992,202.561 13.500,206.500" stroke-width="10.851" stroke="rgb(33,33,33)" fill="none" stroke-linecap="round"></path><path d="M 13.500,206.500 C 12.992,210.561 12.233,210.467 11.500,214.500" stroke-width="10.663" stroke="rgb(33,33,33)" fill="none" stroke-linecap="round"></path><path d="M 11.500,214.500 C 11.233,215.967 11.500,216.000 11.500,217.500" stroke-width="11.339" stroke="rgb(33,33,33)" fill="none" stroke-linecap="round"></path><path d="M 11.500,217.500 C 11.500,218.000 11.500,218.000 11.500,218.500" stroke-width="12.219" stroke="rgb(33,33,33)" fill="none" stroke-linecap="round"></path><path d="M 11.500,218.500 C 11.500,219.500 11.500,219.500 11.500,220.500" stroke-width="12.896" stroke="rgb(33,33,33)" fill="none" stroke-linecap="round"></path><path d="M 11.500,220.500 C 11.500,221.000 11.250,221.250 11.500,221.500" stroke-width="13.823" stroke="rgb(33,33,33)" fill="none" stroke-linecap="round"></path><path d="M 11.500,221.500 C 11.750,221.750 12.019,221.620 12.500,221.500" stroke-width="14.627" stroke="rgb(33,33,33)" fill="none" stroke-linecap="round"></path><path d="M 12.500,221.500 C 14.019,221.120 14.219,221.354 15.500,220.500" stroke-width="14.604" stroke="rgb(33,33,33)" fill="none" stroke-linecap="round"></path><path d="M 15.500,220.500 C 17.219,219.354 17.237,219.185 18.500,217.500" stroke-width="14.307" stroke="rgb(33,33,33)" fill="none" stroke-linecap="round"></path><path d="M 18.500,217.500 C 20.237,215.185 20.119,215.065 21.500,212.500" stroke-width="13.700" stroke="rgb(33,33,33)" fill="none" stroke-linecap="round"></path><path d="M 21.500,212.500 C 23.619,208.565 23.710,208.592 25.500,204.500" stroke-width="12.609" stroke="rgb(33,33,33)" fill="none" stroke-linecap="round"></path><path d="M 25.500,204.500 C 27.210,200.592 26.914,200.465 28.500,196.500" stroke-width="11.923" stroke="rgb(33,33,33)" fill="none" stroke-linecap="round"></path><path d="M 28.500,196.500 C 29.914,192.965 29.974,192.989 31.500,189.500" stroke-width="11.577" stroke="rgb(33,33,33)" fill="none" stroke-linecap="round"></path><path d="M 31.500,189.500 C 33.474,184.989 34.026,185.167 35.500,180.500" stroke-width="10.972" stroke="rgb(33,33,33)" fill="none" stroke-linecap="round"></path><path d="M 35.500,180.500 C 37.026,175.667 36.333,175.460 37.500,170.500" stroke-width="10.485" stroke="rgb(33,33,33)" fill="none" stroke-linecap="round"></path><path d="M 37.500,170.500 C 38.333,166.960 38.739,167.051 39.500,163.500" stroke-width="10.508" stroke="rgb(33,33,33)" fill="none" stroke-linecap="round"></path><path d="M 39.500,163.500 C 40.239,160.051 40.230,160.016 40.500,156.500" stroke-width="10.555" stroke="rgb(33,33,33)" fill="none" stroke-linecap="round"></path><path d="M 40.500,156.500 C 40.730,153.516 40.136,153.414 40.500,150.500" stroke-width="10.744" stroke="rgb(33,33,33)" fill="none" stroke-linecap="round"></path><path d="M 40.500,150.500 C 40.636,149.414 41.155,149.536 41.500,148.500" stroke-width="11.481" stroke="rgb(33,33,33)" fill="none" stroke-linecap="round"></path><path d="M 41.500,148.500 C 41.655,148.036 41.500,147.167 41.500,147.500" stroke-width="12.378" stroke="rgb(33,33,33)" fill="none" stroke-linecap="round"></path><path d="M 41.500,147.500 C 41.500,149.167 40.906,150.122 41.500,152.500" stroke-width="13.284" stroke="rgb(33,33,33)" fill="none" stroke-linecap="round"></path><path d="M 41.500,152.500 C 42.406,156.122 43.852,155.825 44.500,159.500" stroke-width="12.578" stroke="rgb(33,33,33)" fill="none" stroke-linecap="round"></path><path d="M 44.500,159.500 C 45.352,164.325 44.223,164.517 44.500,169.500" stroke-width="11.652" stroke="rgb(33,33,33)" fill="none" stroke-linecap="round"></path><path d="M 44.500,169.500 C 44.723,173.517 45.249,173.484 45.500,177.500" stroke-width="11.561" stroke="rgb(33,33,33)" fill="none" stroke-linecap="round"></path><path d="M 45.500,177.500 C 45.749,181.484 45.035,181.551 45.500,185.500" stroke-width="10.841" stroke="rgb(33,33,33)" fill="none" stroke-linecap="round"></path><path d="M 45.500,185.500 C 46.035,190.051 46.314,190.052 47.500,194.500" stroke-width="10.520" stroke="rgb(33,33,33)" fill="none" stroke-linecap="round"></path><path d="M 47.500,194.500 C 48.314,197.552 48.670,197.455 49.500,200.500" stroke-width="10.669" stroke="rgb(33,33,33)" fill="none" stroke-linecap="round"></path><path d="M 49.500,200.500 C 50.170,202.955 50.185,202.982 50.500,205.500" stroke-width="10.970" stroke="rgb(33,33,33)" fill="none" stroke-linecap="round"></path><path d="M 50.500,205.500 C 50.685,206.982 50.125,207.375 50.500,208.500" stroke-width="11.560" stroke="rgb(33,33,33)" fill="none" stroke-linecap="round"></path><path d="M 50.500,208.500 C 50.625,208.875 51.000,208.500 51.500,208.500" stroke-width="12.451" stroke="rgb(33,33,33)" fill="none" stroke-linecap="round"></path><path d="M 51.500,208.500 C 52.000,208.500 52.000,208.500 52.500,208.500" stroke-width="13.269" stroke="rgb(33,33,33)" fill="none" stroke-linecap="round"></path><path d="M 52.500,208.500 C 53.500,208.500 53.862,209.138 54.500,208.500" stroke-width="14.005" stroke="rgb(33,33,33)" fill="none" stroke-linecap="round"></path><path d="M 54.500,208.500 C 56.362,206.638 56.388,206.168 57.500,203.500" stroke-width="13.478" stroke="rgb(33,33,33)" fill="none" stroke-linecap="round"></path><path d="M 57.500,203.500 C 58.888,200.168 58.500,200.000 59.500,196.500" stroke-width="12.784" stroke="rgb(33,33,33)" fill="none" stroke-linecap="round"></path><path d="M 59.500,196.500 C 60.500,193.000 60.415,192.974 61.500,189.500" stroke-width="12.279" stroke="rgb(33,33,33)" fill="none" stroke-linecap="round"></path><path d="M 61.500,189.500 C 62.915,184.974 62.743,184.893 64.500,180.500" stroke-width="11.528" stroke="rgb(33,33,33)" fill="none" stroke-linecap="round"></path><path d="M 64.500,180.500 C 65.743,177.393 66.213,177.588 67.500,174.500" stroke-width="11.422" stroke="rgb(33,33,33)" fill="none" stroke-linecap="round"></path><path d="M 67.500,174.500 C 68.713,171.588 68.199,171.362 69.500,168.500" stroke-width="11.399" stroke="rgb(33,33,33)" fill="none" stroke-linecap="round"></path><path d="M 69.500,168.500 C 70.699,165.862 71.388,166.168 72.500,163.500" stroke-width="11.461" stroke="rgb(33,33,33)" fill="none" stroke-linecap="round"></path><path d="M 72.500,163.500 C 73.888,160.168 73.716,160.030 74.500,156.500" stroke-width="11.406" stroke="rgb(33,33,33)" fill="none" stroke-linecap="round"></path><path d="M 74.500,156.500 C 74.716,155.530 74.500,155.500 74.500,154.500" stroke-width="12.072" stroke="rgb(33,33,33)" fill="none" stroke-linecap="round"></path><path d="M 74.500,154.500 C 74.500,152.500 74.500,152.500 74.500,150.500" stroke-width="12.417" stroke="rgb(33,33,33)" fill="none" stroke-linecap="round"></path><path d="M 74.500,150.500 C 74.500,149.500 74.500,149.500 74.500,148.500" stroke-width="12.966" stroke="rgb(33,33,33)" fill="none" stroke-linecap="round"></path><path d="M 74.500,148.500 C 74.500,148.000 74.500,147.250 74.500,147.500" stroke-width="13.852" stroke="rgb(33,33,33)" fill="none" stroke-linecap="round"></path><path d="M 74.500,147.500 C 74.500,148.250 74.500,149.000 74.500,150.500" stroke-width="14.626" stroke="rgb(33,33,33)" fill="none" stroke-linecap="round"></path><path d="M 74.500,150.500 C 74.500,155.000 74.500,155.000 74.500,159.500" stroke-width="13.213" stroke="rgb(33,33,33)" fill="none" stroke-linecap="round"></path><path d="M 74.500,159.500 C 74.500,163.500 74.500,163.500 74.500,167.500" stroke-width="12.453" stroke="rgb(33,33,33)" fill="none" stroke-linecap="round"></path><path d="M 74.500,167.500 C 74.500,177.500 74.500,177.500 74.500,187.500" stroke-width="11.664" stroke="rgb(33,33,33)" fill="none" stroke-linecap="round"></path><path d="M 74.500,187.500 C 74.500,192.000 73.947,192.077 74.500,196.500" stroke-width="11.447" stroke="rgb(33,33,33)" fill="none" stroke-linecap="round"></path><path d="M 74.500,196.500 C 74.947,200.077 75.792,199.959 76.500,203.500" stroke-width="10.622" stroke="rgb(33,33,33)" fill="none" stroke-linecap="round"></path><path d="M 76.500,203.500 C 76.792,204.959 76.214,205.068 76.500,206.500" stroke-width="11.249" stroke="rgb(33,33,33)" fill="none" stroke-linecap="round"></path><path d="M 76.500,206.500 C 76.714,207.568 76.926,208.691 77.500,208.500" stroke-width="11.940" stroke="rgb(33,33,33)" fill="none" stroke-linecap="round"></path><path d="M 77.500,208.500 C 78.426,208.191 78.892,207.173 79.500,205.500" stroke-width="12.859" stroke="rgb(33,33,33)" fill="none" stroke-linecap="round"></path><path d="M 79.500,205.500 C 80.892,201.673 80.959,201.557 81.500,197.500" stroke-width="12.155" stroke="rgb(33,33,33)" fill="none" stroke-linecap="round"></path><path d="M 81.500,197.500 C 81.959,194.057 81.268,193.986 81.500,190.500" stroke-width="11.857" stroke="rgb(33,33,33)" fill="none" stroke-linecap="round"></path><path d="M 81.500,190.500 C 81.768,186.486 81.659,186.423 82.500,182.500" stroke-width="11.455" stroke="rgb(33,33,33)" fill="none" stroke-linecap="round"></path><path d="M 82.500,182.500 C 83.159,179.423 83.592,179.527 84.500,176.500" stroke-width="11.426" stroke="rgb(33,33,33)" fill="none" stroke-linecap="round"></path><path d="M 84.500,176.500 C 85.092,174.527 84.934,174.481 85.500,172.500" stroke-width="11.767" stroke="rgb(33,33,33)" fill="none" stroke-linecap="round"></path><path d="M 85.500,172.500 C 85.934,170.981 86.066,171.019 86.500,169.500" stroke-width="12.347" stroke="rgb(33,33,33)" fill="none" stroke-linecap="round"></path><path d="M 86.500,169.500 C 87.066,167.519 87.274,165.274 87.500,165.500" stroke-width="12.277" stroke="rgb(33,33,33)" fill="none" stroke-linecap="round"></path><path d="M 87.500,165.500 C 87.774,165.774 87.500,168.000 87.500,170.500" stroke-width="13.191" stroke="rgb(33,33,33)" fill="none" stroke-linecap="round"></path><path d="M 87.500,170.500 C 87.500,174.000 87.500,174.000 87.500,177.500" stroke-width="12.631" stroke="rgb(33,33,33)" fill="none" stroke-linecap="round"></path><path d="M 87.500,177.500 C 87.500,181.500 87.251,181.516 87.500,185.500" stroke-width="12.036" stroke="rgb(33,33,33)" fill="none" stroke-linecap="round"></path><path d="M 87.500,185.500 C 87.751,189.516 87.838,189.526 88.500,193.500" stroke-width="11.588" stroke="rgb(33,33,33)" fill="none" stroke-linecap="round"></path><path d="M 88.500,193.500 C 89.338,198.526 89.500,198.500 90.500,203.500" stroke-width="10.928" stroke="rgb(33,33,33)" fill="none" stroke-linecap="round"></path><path d="M 90.500,203.500 C 91.000,206.000 90.882,206.029 91.500,208.500" stroke-width="11.189" stroke="rgb(33,33,33)" fill="none" stroke-linecap="round"></path><path d="M 91.500,208.500 C 92.382,212.029 92.112,212.168 93.500,215.500" stroke-width="11.066" stroke="rgb(33,33,33)" fill="none" stroke-linecap="round"></path><path d="M 93.500,215.500 C 94.612,218.168 94.885,218.077 96.500,220.500" stroke-width="11.190" stroke="rgb(33,33,33)" fill="none" stroke-linecap="round"></path><path d="M 96.500,220.500 C 97.885,222.577 97.858,222.623 99.500,224.500" stroke-width="11.423" stroke="rgb(33,33,33)" fill="none" stroke-linecap="round"></path><path d="M 99.500,224.500 C 101.358,226.623 101.377,226.642 103.500,228.500" stroke-width="11.508" stroke="rgb(33,33,33)" fill="none" stroke-linecap="round"></path><path d="M 103.500,228.500 C 105.377,230.142 105.466,230.047 107.500,231.500" stroke-width="11.687" stroke="rgb(33,33,33)" fill="none" stroke-linecap="round"></path><path d="M 107.500,231.500 C 108.966,232.547 108.862,232.954 110.500,233.500" stroke-width="12.080" stroke="rgb(33,33,33)" fill="none" stroke-linecap="round"></path><path d="M 110.500,233.500 C 111.862,233.954 112.000,233.500 113.500,233.500" stroke-width="12.531" stroke="rgb(33,33,33)" fill="none" stroke-linecap="round"></path><path d="M 113.500,233.500 C 114.000,233.500 114.000,233.500 114.500,233.500" stroke-width="13.341" stroke="rgb(33,33,33)" fill="none" stroke-linecap="round"></path><path d="M 114.500,233.500 C 116.000,233.500 116.000,233.500 117.500,233.500" stroke-width="13.674" stroke="rgb(33,33,33)" fill="none" stroke-linecap="round"></path><path d="M 117.500,233.500 C 119.500,233.500 120.160,234.691 121.500,233.500" stroke-width="13.509" stroke="rgb(33,33,33)" fill="none" stroke-linecap="round"></path><path d="M 121.500,233.500 C 124.660,230.691 124.162,229.591 126.500,225.500" stroke-width="12.586" stroke="rgb(33,33,33)" fill="none" stroke-linecap="round"></path><path d="M 126.500,225.500 C 128.162,222.591 127.857,222.421 129.500,219.500" stroke-width="12.062" stroke="rgb(33,33,33)" fill="none" stroke-linecap="round"></path><path d="M 129.500,219.500 C 132.357,214.421 132.206,214.291 135.500,209.500" stroke-width="11.237" stroke="rgb(33,33,33)" fill="none" stroke-linecap="round"></path><path d="M 135.500,209.500 C 137.706,206.291 138.160,206.620 140.500,203.500" stroke-width="10.859" stroke="rgb(33,33,33)" fill="none" stroke-linecap="round"></path><path d="M 140.500,203.500 C 142.660,200.620 142.611,200.569 144.500,197.500" stroke-width="11.108" stroke="rgb(33,33,33)" fill="none" stroke-linecap="round"></path><path d="M 144.500,197.500 C 146.611,194.069 146.207,193.776 148.500,190.500" stroke-width="10.223" stroke="rgb(33,33,33)" fill="none" stroke-linecap="round"></path><path d="M 148.500,190.500 C 149.707,188.776 150.190,189.137 151.500,187.500" stroke-width="10.974" stroke="rgb(33,33,33)" fill="none" stroke-linecap="round"></path><path d="M 151.500,187.500 C 152.190,186.637 152.060,186.527 152.500,185.500" stroke-width="10.659" stroke="rgb(33,33,33)" fill="none" stroke-linecap="round"></path><path d="M 152.500,185.500 C 153.560,183.027 153.302,182.896 154.500,180.500" stroke-width="10.919" stroke="rgb(33,33,33)" fill="none" stroke-linecap="round"></path><path d="M 154.500,180.500 C 155.302,178.896 155.954,179.138 156.500,177.500" stroke-width="11.416" stroke="rgb(33,33,33)" fill="none" stroke-linecap="round"></path><path d="M 156.500,177.500 C 156.954,176.138 156.500,176.000 156.500,174.500" stroke-width="11.954" stroke="rgb(33,33,33)" fill="none" stroke-linecap="round"></path><path d="M 156.500,174.500 C 156.500,173.500 156.500,173.500 156.500,172.500" stroke-width="12.615" stroke="rgb(33,33,33)" fill="none" stroke-linecap="round"></path><path d="M 156.500,172.500 C 156.500,170.500 156.500,170.500 156.500,168.500" stroke-width="12.783" stroke="rgb(33,33,33)" fill="none" stroke-linecap="round"></path><path d="M 156.500,168.500 C 156.500,167.500 156.500,167.500 156.500,166.500" stroke-width="13.346" stroke="rgb(33,33,33)" fill="none" stroke-linecap="round"></path><path d="M 156.500,166.500 C 156.500,165.500 156.500,165.500 156.500,164.500" stroke-width="13.833" stroke="rgb(33,33,33)" fill="none" stroke-linecap="round"></path><path d="M 156.500,164.500 C 156.500,163.500 156.914,163.328 156.500,162.500" stroke-width="14.250" stroke="rgb(33,33,33)" fill="none" stroke-linecap="round"></path><path d="M 156.500,162.500 C 155.914,161.328 155.208,161.680 154.500,160.500" stroke-width="14.386" stroke="rgb(33,33,33)" fill="none" stroke-linecap="round"></path><path d="M 154.500,160.500 C 153.708,159.180 154.379,158.672 153.500,157.500" stroke-width="14.412" stroke="rgb(33,33,33)" fill="none" stroke-linecap="round"></path><path d="M 153.500,157.500 C 152.879,156.672 152.191,157.191 151.500,156.500" stroke-width="14.674" stroke="rgb(33,33,33)" fill="none" stroke-linecap="round"></path><path d="M 151.500,156.500 C 151.191,156.191 151.809,155.809 151.500,155.500" stroke-width="15.237" stroke="rgb(33,33,33)" fill="none" stroke-linecap="round"></path><path d="M 151.500,155.500 C 150.809,154.809 150.568,154.714 149.500,154.500" stroke-width="15.351" stroke="rgb(33,33,33)" fill="none" stroke-linecap="round"></path><path d="M 149.500,154.500 C 148.068,154.214 148.000,154.500 146.500,154.500" stroke-width="15.318" stroke="rgb(33,33,33)" fill="none" stroke-linecap="round"></path><path d="M 146.500,154.500 C 146.000,154.500 146.000,154.500 145.500,154.500" stroke-width="15.745" stroke="rgb(33,33,33)" fill="none" stroke-linecap="round"></path><path d="M 145.500,154.500 C 144.500,154.500 144.500,154.500 143.500,154.500" stroke-width="15.903" stroke="rgb(33,33,33)" fill="none" stroke-linecap="round"></path><path d="M 143.500,154.500 C 142.500,154.500 142.500,154.500 141.500,154.500" stroke-width="15.872" stroke="rgb(33,33,33)" fill="none" stroke-linecap="round"></path><path d="M 141.500,154.500 C 140.500,154.500 140.500,154.500 139.500,154.500" stroke-width="16.007" stroke="rgb(33,33,33)" fill="none" stroke-linecap="round"></path><path d="M 139.500,154.500 C 138.500,154.500 138.500,154.500 137.500,154.500" stroke-width="15.955" stroke="rgb(33,33,33)" fill="none" stroke-linecap="round"></path><path d="M 137.500,154.500 C 136.000,154.500 136.000,154.500 134.500,154.500" stroke-width="15.795" stroke="rgb(33,33,33)" fill="none" stroke-linecap="round"></path><path d="M 134.500,154.500 C 134.000,154.500 133.964,154.345 133.500,154.500" stroke-width="16.146" stroke="rgb(33,33,33)" fill="none" stroke-linecap="round"></path><path d="M 133.500,154.500 C 132.464,154.845 132.536,155.155 131.500,155.500" stroke-width="16.225" stroke="rgb(33,33,33)" fill="none" stroke-linecap="round"></path><path d="M 131.500,155.500 C 131.036,155.655 130.957,155.317 130.500,155.500" stroke-width="16.439" stroke="rgb(33,33,33)" fill="none" stroke-linecap="round"></path><path d="M 130.500,155.500 C 128.457,156.317 128.338,156.275 126.500,157.500" stroke-width="15.610" stroke="rgb(33,33,33)" fill="none" stroke-linecap="round"></path><path d="M 126.500,157.500 C 125.338,158.275 125.617,158.662 124.500,159.500" stroke-width="15.569" stroke="rgb(33,33,33)" fill="none" stroke-linecap="round"></path><path d="M 124.500,159.500 C 123.617,160.162 123.363,159.810 122.500,160.500" stroke-width="15.524" stroke="rgb(33,33,33)" fill="none" stroke-linecap="round"></path><path d="M 122.500,160.500 C 120.863,161.810 121.000,162.000 119.500,163.500" stroke-width="15.005" stroke="rgb(33,33,33)" fill="none" stroke-linecap="round"></path><path d="M 119.500,163.500 C 118.500,164.500 118.599,164.621 117.500,165.500" stroke-width="14.996" stroke="rgb(33,33,33)" fill="none" stroke-linecap="round"></path><path d="M 117.500,165.500 C 116.099,166.621 115.757,166.243 114.500,167.500" stroke-width="14.776" stroke="rgb(33,33,33)" fill="none" stroke-linecap="round"></path><path d="M 114.500,167.500 C 112.757,169.243 112.953,169.466 111.500,171.500" stroke-width="14.247" stroke="rgb(33,33,33)" fill="none" stroke-linecap="round"></path><path d="M 111.500,171.500 C 110.453,172.966 110.500,173.000 109.500,174.500" stroke-width="14.188" stroke="rgb(33,33,33)" fill="none" stroke-linecap="round"></path><path d="M 109.500,174.500 C 108.500,176.000 108.143,175.892 107.500,177.500" stroke-width="14.142" stroke="rgb(33,33,33)" fill="none" stroke-linecap="round"></path><path d="M 107.500,177.500 C 107.143,178.392 107.500,178.500 107.500,179.500" stroke-width="14.511" stroke="rgb(33,33,33)" fill="none" stroke-linecap="round"></path><path d="M 107.500,179.500 C 107.500,181.000 107.500,181.000 107.500,182.500" stroke-width="14.553" stroke="rgb(33,33,33)" fill="none" stroke-linecap="round"></path><path d="M 107.500,182.500 C 107.500,184.000 107.500,184.000 107.500,185.500" stroke-width="14.588" stroke="rgb(33,33,33)" fill="none" stroke-linecap="round"></path><path d="M 107.500,185.500 C 107.500,187.000 107.500,187.000 107.500,188.500" stroke-width="14.616" stroke="rgb(33,33,33)" fill="none" stroke-linecap="round"></path><path d="M 107.500,188.500 C 107.500,190.000 107.500,190.000 107.500,191.500" stroke-width="14.638" stroke="rgb(33,33,33)" fill="none" stroke-linecap="round"></path><path d="M 107.500,191.500 C 107.500,193.000 107.500,193.000 107.500,194.500" stroke-width="14.656" stroke="rgb(33,33,33)" fill="none" stroke-linecap="round"></path><path d="M 107.500,194.500 C 107.500,196.500 107.500,196.500 107.500,198.500" stroke-width="14.409" stroke="rgb(33,33,33)" fill="none" stroke-linecap="round"></path><path d="M 107.500,198.500 C 107.500,200.000 107.500,200.000 107.500,201.500" stroke-width="14.471" stroke="rgb(33,33,33)" fill="none" stroke-linecap="round"></path><path d="M 107.500,201.500 C 107.500,203.000 107.500,203.000 107.500,204.500" stroke-width="14.609" stroke="rgb(33,33,33)" fill="none" stroke-linecap="round"></path><path d="M 107.500,204.500 C 107.500,205.000 107.256,205.074 107.500,205.500" stroke-width="15.141" stroke="rgb(33,33,33)" fill="none" stroke-linecap="round"></path><path d="M 107.500,205.500 C 109.256,208.574 109.410,208.574 111.500,211.500" stroke-width="14.159" stroke="rgb(33,33,33)" fill="none" stroke-linecap="round"></path><path d="M 111.500,211.500 C 111.910,212.074 111.937,212.077 112.500,212.500" stroke-width="14.625" stroke="rgb(33,33,33)" fill="none" stroke-linecap="round"></path><path d="M 112.500,212.500 C 113.937,213.577 114.435,213.168 115.500,214.500" stroke-width="14.676" stroke="rgb(33,33,33)" fill="none" stroke-linecap="round"></path><path d="M 115.500,214.500 C 116.435,215.668 115.621,216.328 116.500,217.500" stroke-width="14.370" stroke="rgb(33,33,33)" fill="none" stroke-linecap="round"></path><path d="M 116.500,217.500 C 117.121,218.328 117.464,218.086 118.500,218.500" stroke-width="14.639" stroke="rgb(33,33,33)" fill="none" stroke-linecap="round"></path><path d="M 118.500,218.500 C 119.964,219.086 119.969,219.194 121.500,219.500" stroke-width="14.614" stroke="rgb(33,33,33)" fill="none" stroke-linecap="round"></path><path d="M 121.500,219.500 C 122.469,219.694 122.608,219.143 123.500,219.500" stroke-width="14.906" stroke="rgb(33,33,33)" fill="none" stroke-linecap="round"></path><path d="M 123.500,219.500 C 125.108,220.143 124.862,220.954 126.500,221.500" stroke-width="14.706" stroke="rgb(33,33,33)" fill="none" stroke-linecap="round"></path><path d="M 126.500,221.500 C 127.862,221.954 128.000,221.500 129.500,221.500" stroke-width="14.710" stroke="rgb(33,33,33)" fill="none" stroke-linecap="round"></path><path d="M 129.500,221.500 C 131.000,221.500 131.000,221.500 132.500,221.500" stroke-width="14.714" stroke="rgb(33,33,33)" fill="none" stroke-linecap="round"></path><path d="M 132.500,221.500 C 134.500,221.500 134.500,221.500 136.500,221.500" stroke-width="14.454" stroke="rgb(33,33,33)" fill="none" stroke-linecap="round"></path><path d="M 136.500,221.500 C 137.500,221.500 137.500,221.500 138.500,221.500" stroke-width="14.772" stroke="rgb(33,33,33)" fill="none" stroke-linecap="round"></path><path d="M 138.500,221.500 C 140.000,221.500 140.000,221.500 141.500,221.500" stroke-width="14.763" stroke="rgb(33,33,33)" fill="none" stroke-linecap="round"></path><path d="M 141.500,221.500 C 142.500,221.500 142.581,221.845 143.500,221.500" stroke-width="15.030" stroke="rgb(33,33,33)" fill="none" stroke-linecap="round"></path><path d="M 143.500,221.500 C 146.581,220.345 146.573,220.126 149.500,218.500" stroke-width="14.008" stroke="rgb(33,33,33)" fill="none" stroke-linecap="round"></path><path d="M 149.500,218.500 C 151.073,217.626 151.059,217.581 152.500,216.500" stroke-width="13.998" stroke="rgb(33,33,33)" fill="none" stroke-linecap="round"></path><path d="M 152.500,216.500 C 155.059,214.581 155.250,214.750 157.500,212.500" stroke-width="13.346" stroke="rgb(33,33,33)" fill="none" stroke-linecap="round"></path><path d="M 157.500,212.500 C 159.750,210.250 159.991,210.267 161.500,207.500" stroke-width="12.866" stroke="rgb(33,33,33)" fill="none" stroke-linecap="round"></path><path d="M 161.500,207.500 C 162.991,204.767 162.420,204.471 163.500,201.500" stroke-width="12.521" stroke="rgb(33,33,33)" fill="none" stroke-linecap="round"></path><path d="M 163.500,201.500 C 164.420,198.971 164.650,199.051 165.500,196.500" stroke-width="12.435" stroke="rgb(33,33,33)" fill="none" stroke-linecap="round"></path><path d="M 165.500,196.500 C 166.650,193.051 166.716,193.030 167.500,189.500" stroke-width="12.019" stroke="rgb(33,33,33)" fill="none" stroke-linecap="round"></path><path d="M 167.500,189.500 C 167.716,188.530 167.337,188.480 167.500,187.500" stroke-width="12.718" stroke="rgb(33,33,33)" fill="none" stroke-linecap="round"></path><path d="M 167.500,187.500 C 167.837,185.480 168.211,185.526 168.500,183.500" stroke-width="12.723" stroke="rgb(33,33,33)" fill="none" stroke-linecap="round"></path><path d="M 168.500,183.500 C 168.711,182.026 168.500,182.000 168.500,180.500" stroke-width="13.150" stroke="rgb(33,33,33)" fill="none" stroke-linecap="round"></path><path d="M 168.500,180.500 C 168.500,179.000 168.500,179.000 168.500,177.500" stroke-width="13.343" stroke="rgb(33,33,33)" fill="none" stroke-linecap="round"></path><path d="M 168.500,177.500 C 168.500,177.000 168.500,177.000 168.500,176.500" stroke-width="14.120" stroke="rgb(33,33,33)" fill="none" stroke-linecap="round"></path><path d="M 168.500,176.500 C 168.500,176.000 168.500,176.000 168.500,175.500" stroke-width="14.667" stroke="rgb(33,33,33)" fill="none" stroke-linecap="round"></path><path d="M 168.500,175.500 C 168.500,174.500 168.500,174.500 168.500,173.500" stroke-width="15.061" stroke="rgb(33,33,33)" fill="none" stroke-linecap="round"></path><path d="M 168.500,173.500 C 168.500,172.500 168.500,172.500 168.500,171.500" stroke-width="15.527" stroke="rgb(33,33,33)" fill="none" stroke-linecap="round"></path><path d="M 168.500,171.500 C 168.500,171.000 168.750,170.750 168.500,170.500" stroke-width="16.125" stroke="rgb(33,33,33)" fill="none" stroke-linecap="round"></path><path d="M 168.500,170.500 C 168.250,170.250 167.740,170.140 167.500,170.500" stroke-width="16.748" stroke="rgb(33,33,33)" fill="none" stroke-linecap="round"></path><path d="M 167.500,170.500 C 166.740,171.640 166.809,171.955 166.500,173.500" stroke-width="14.694" stroke="rgb(33,33,33)" fill="none" stroke-linecap="round"></path><path d="M 166.500,173.500 C 165.809,176.955 165.751,176.982 165.500,180.500" stroke-width="13.689" stroke="rgb(33,33,33)" fill="none" stroke-linecap="round"></path><path d="M 165.500,180.500 C 165.251,183.982 165.732,184.014 165.500,187.500" stroke-width="12.994" stroke="rgb(33,33,33)" fill="none" stroke-linecap="round"></path><path d="M 165.500,187.500 C 165.232,191.514 164.723,191.483 164.500,195.500" stroke-width="12.285" stroke="rgb(33,33,33)" fill="none" stroke-linecap="round"></path><path d="M 164.500,195.500 C 164.223,200.483 164.500,200.500 164.500,205.500" stroke-width="11.450" stroke="rgb(33,33,33)" fill="none" stroke-linecap="round"></path><path d="M 164.500,205.500 C 164.500,209.000 164.500,209.000 164.500,212.500" stroke-width="11.313" stroke="rgb(33,33,33)" fill="none" stroke-linecap="round"></path><path d="M 164.500,212.500 C 164.500,215.000 164.500,215.000 164.500,217.500" stroke-width="11.526" stroke="rgb(33,33,33)" fill="none" stroke-linecap="round"></path><path d="M 164.500,217.500 C 164.500,220.500 164.500,220.500 164.500,223.500" stroke-width="11.535" stroke="rgb(33,33,33)" fill="none" stroke-linecap="round"></path><path d="M 164.500,223.500 C 164.500,224.000 164.500,224.000 164.500,224.500" stroke-width="12.428" stroke="rgb(33,33,33)" fill="none" stroke-linecap="round"></path><path d="M 164.500,224.500 C 164.500,226.000 163.900,226.600 164.500,227.500" stroke-width="12.896" stroke="rgb(33,33,33)" fill="none" stroke-linecap="round"></path><path d="M 164.500,227.500 C 164.900,228.100 165.952,228.231 166.500,227.500" stroke-width="13.827" stroke="rgb(33,33,33)" fill="none" stroke-linecap="round"></path><path d="M 166.500,227.500 C 168.952,224.231 167.934,223.092 170.500,219.500" stroke-width="13.060" stroke="rgb(33,33,33)" fill="none" stroke-linecap="round"></path><path d="M 170.500,219.500 C 172.934,216.092 173.746,216.713 176.500,213.500" stroke-width="11.378" stroke="rgb(33,33,33)" fill="none" stroke-linecap="round"></path><path d="M 176.500,213.500 C 179.746,209.713 179.573,209.553 182.500,205.500" stroke-width="10.807" stroke="rgb(33,33,33)" fill="none" stroke-linecap="round"></path><path d="M 182.500,205.500 C 186.073,200.553 185.841,200.379 189.500,195.500" stroke-width="10.104" stroke="rgb(33,33,33)" fill="none" stroke-linecap="round"></path><path d="M 189.500,195.500 C 191.841,192.379 191.876,192.387 194.500,189.500" stroke-width="10.132" stroke="rgb(33,33,33)" fill="none" stroke-linecap="round"></path><path d="M 194.500,189.500 C 196.876,186.887 197.138,187.124 199.500,184.500" stroke-width="10.250" stroke="rgb(33,33,33)" fill="none" stroke-linecap="round"></path><path d="M 199.500,184.500 C 201.638,182.124 201.376,181.889 203.500,179.500" stroke-width="10.435" stroke="rgb(33,33,33)" fill="none" stroke-linecap="round"></path><path d="M 203.500,179.500 C 205.376,177.389 205.800,177.624 207.500,175.500" stroke-width="10.692" stroke="rgb(33,33,33)" fill="none" stroke-linecap="round"></path><path d="M 207.500,175.500 C 207.800,175.124 207.239,174.892 207.500,174.500" stroke-width="11.637" stroke="rgb(33,33,33)" fill="none" stroke-linecap="round"></path><path d="M 207.500,174.500 C 208.239,173.392 208.890,172.093 209.500,172.500" stroke-width="12.178" stroke="rgb(33,33,33)" fill="none" stroke-linecap="round"></path><path d="M 209.500,172.500 C 210.390,173.093 210.315,174.461 210.500,176.500" stroke-width="13.057" stroke="rgb(33,33,33)" fill="none" stroke-linecap="round"></path><path d="M 210.500,176.500 C 210.815,179.961 210.282,180.012 210.500,183.500" stroke-width="12.533" stroke="rgb(33,33,33)" fill="none" stroke-linecap="round"></path><path d="M 210.500,183.500 C 210.782,188.012 210.795,188.032 211.500,192.500" stroke-width="11.780" stroke="rgb(33,33,33)" fill="none" stroke-linecap="round"></path><path d="M 211.500,192.500 C 212.295,197.532 212.069,197.634 213.500,202.500" stroke-width="11.065" stroke="rgb(33,33,33)" fill="none" stroke-linecap="round"></path><path d="M 213.500,202.500 C 214.569,206.134 214.974,206.011 216.500,209.500" stroke-width="10.920" stroke="rgb(33,33,33)" fill="none" stroke-linecap="round"></path><path d="M 216.500,209.500 C 218.474,214.011 218.304,214.108 220.500,218.500" stroke-width="10.493" stroke="rgb(33,33,33)" fill="none" stroke-linecap="round"></path><path d="M 220.500,218.500 C 221.304,220.108 221.800,219.867 222.500,221.500" stroke-width="11.102" stroke="rgb(33,33,33)" fill="none" stroke-linecap="round"></path><path d="M 222.500,221.500 C 223.300,223.367 222.490,224.153 223.500,225.500" stroke-width="11.396" stroke="rgb(33,33,33)" fill="none" stroke-linecap="round"></path><path d="M 223.500,225.500 C 223.990,226.153 224.833,225.167 225.500,225.500" stroke-width="12.155" stroke="rgb(33,33,33)" fill="none" stroke-linecap="round"></path><path d="M 225.500,225.500 C 225.833,225.667 225.167,226.333 225.500,226.500" stroke-width="12.969" stroke="rgb(33,33,33)" fill="none" stroke-linecap="round"></path><path d="M 225.500,226.500 C 226.167,226.833 226.500,226.500 227.500,226.500" stroke-width="13.508" stroke="rgb(33,33,33)" fill="none" stroke-linecap="round"></path><path d="M 227.500,226.500 C 228.500,226.500 228.849,227.151 229.500,226.500" stroke-width="13.972" stroke="rgb(33,33,33)" fill="none" stroke-linecap="round"></path><path d="M 229.500,226.500 C 231.849,224.151 232.183,223.792 233.500,220.500" stroke-width="13.912" stroke="rgb(33,33,33)" fill="none" stroke-linecap="round"></path><path d="M 233.500,220.500 C 235.183,216.292 234.382,215.971 235.500,211.500" stroke-width="8.857" stroke="rgb(33,33,33)" fill="none" stroke-linecap="round"></path><path d="M 235.500,211.500 C 236.882,205.971 237.180,206.043 238.500,200.500" stroke-width="9.186" stroke="rgb(33,33,33)" fill="none" stroke-linecap="round"></path><path d="M 238.500,200.500 C 239.680,195.543 238.961,195.336 240.500,190.500" stroke-width="6.787" stroke="rgb(33,33,33)" fill="none" stroke-linecap="round"></path><path d="M 240.500,190.500 C 242.461,184.336 243.732,184.689 245.500,178.500" stroke-width="6.955" stroke="rgb(33,33,33)" fill="none" stroke-linecap="round"></path><path d="M 245.500,178.500 C 246.732,174.189 245.496,173.851 246.500,169.500" stroke-width="7.348" stroke="rgb(33,33,33)" fill="none" stroke-linecap="round"></path><path d="M 246.500,169.500 C 246.996,167.351 247.799,167.603 248.500,165.500" stroke-width="8.047" stroke="rgb(33,33,33)" fill="none" stroke-linecap="round"></path><path d="M 248.500,165.500 C 249.299,163.103 249.141,163.014 249.500,160.500" stroke-width="8.652" stroke="rgb(33,33,33)" fill="none" stroke-linecap="round"></path><path d="M 249.500,160.500 C 249.641,159.514 249.500,159.500 249.500,158.500" stroke-width="9.541" stroke="rgb(33,33,33)" fill="none" stroke-linecap="round"></path><path d="M 249.500,158.500 C 249.500,158.000 249.500,158.000 249.500,157.500" stroke-width="10.530" stroke="rgb(33,33,33)" fill="none" stroke-linecap="round"></path><path d="M 249.500,157.500 C 249.500,157.000 249.250,156.750 249.500,156.500" stroke-width="11.484" stroke="rgb(33,33,33)" fill="none" stroke-linecap="round"></path><path d="M 249.500,156.500 C 249.750,156.250 250.375,156.125 250.500,156.500" stroke-width="12.533" stroke="rgb(33,33,33)" fill="none" stroke-linecap="round"></path><path d="M 250.500,156.500 C 250.875,157.625 250.500,158.000 250.500,159.500" stroke-width="12.918" stroke="rgb(33,33,33)" fill="none" stroke-linecap="round"></path><path d="M 250.500,159.500 C 250.500,162.500 249.881,162.612 250.500,165.500" stroke-width="12.624" stroke="rgb(33,33,33)" fill="none" stroke-linecap="round"></path><path d="M 250.500,165.500 C 251.381,169.612 252.619,169.388 253.500,173.500" stroke-width="11.934" stroke="rgb(33,33,33)" fill="none" stroke-linecap="round"></path><path d="M 253.500,173.500 C 254.119,176.388 253.013,176.579 253.500,179.500" stroke-width="11.976" stroke="rgb(33,33,33)" fill="none" stroke-linecap="round"></path><path d="M 253.500,179.500 C 254.013,182.579 254.328,182.571 255.500,185.500" stroke-width="11.683" stroke="rgb(33,33,33)" fill="none" stroke-linecap="round"></path><path d="M 255.500,185.500 C 256.328,187.571 256.621,187.450 257.500,189.500" stroke-width="12.010" stroke="rgb(33,33,33)" fill="none" stroke-linecap="round"></path><path d="M 257.500,189.500 C 258.121,190.950 257.809,191.118 258.500,192.500" stroke-width="12.507" stroke="rgb(33,33,33)" fill="none" stroke-linecap="round"></path><path d="M 258.500,192.500 C 258.809,193.118 259.000,193.000 259.500,193.500" stroke-width="13.129" stroke="rgb(33,33,33)" fill="none" stroke-linecap="round"></path><path d="M 259.500,193.500 C 260.000,194.000 259.879,194.293 260.500,194.500" stroke-width="13.782" stroke="rgb(33,33,33)" fill="none" stroke-linecap="round"></path><path d="M 260.500,194.500 C 261.379,194.793 261.573,194.809 262.500,194.500" stroke-width="14.553" stroke="rgb(33,33,33)" fill="none" stroke-linecap="round"></path><path d="M 262.500,194.500 C 264.573,193.809 264.757,193.856 266.500,192.500" stroke-width="14.053" stroke="rgb(33,33,33)" fill="none" stroke-linecap="round"></path><path d="M 266.500,192.500 C 269.257,190.356 269.000,190.000 271.500,187.500" stroke-width="13.239" stroke="rgb(33,33,33)" fill="none" stroke-linecap="round"></path><path d="M 271.500,187.500 C 274.000,185.000 273.876,184.862 276.500,182.500" stroke-width="12.653" stroke="rgb(33,33,33)" fill="none" stroke-linecap="round"></path><path d="M 276.500,182.500 C 278.876,180.362 278.692,179.904 281.500,178.500" stroke-width="12.345" stroke="rgb(33,33,33)" fill="none" stroke-linecap="round"></path><path d="M 281.500,178.500 C 284.692,176.904 285.022,177.570 288.500,176.500" stroke-width="11.952" stroke="rgb(33,33,33)" fill="none" stroke-linecap="round"></path><path d="M 288.500,176.500 C 291.522,175.570 291.529,175.580 294.500,174.500" stroke-width="11.817" stroke="rgb(33,33,33)" fill="none" stroke-linecap="round"></path><path d="M 294.500,174.500 C 297.029,173.580 296.918,173.074 299.500,172.500" stroke-width="11.873" stroke="rgb(33,33,33)" fill="none" stroke-linecap="round"></path><path d="M 299.500,172.500 C 301.418,172.074 301.500,172.500 303.500,172.500" stroke-width="12.167" stroke="rgb(33,33,33)" fill="none" stroke-linecap="round"></path><path d="M 303.500,172.500 C 305.000,172.500 305.000,172.500 306.500,172.500" stroke-width="12.605" stroke="rgb(33,33,33)" fill="none" stroke-linecap="round"></path><path d="M 306.500,172.500 C 309.000,172.500 309.000,172.500 311.500,172.500" stroke-width="12.576" stroke="rgb(33,33,33)" fill="none" stroke-linecap="round"></path><path d="M 311.500,172.500 C 313.000,172.500 313.000,172.500 314.500,172.500" stroke-width="12.954" stroke="rgb(33,33,33)" fill="none" stroke-linecap="round"></path><path d="M 314.500,172.500 C 316.000,172.500 316.000,172.500 317.500,172.500" stroke-width="13.274" stroke="rgb(33,33,33)" fill="none" stroke-linecap="round"></path><path d="M 317.500,172.500 C 319.000,172.500 319.000,172.500 320.500,172.500" stroke-width="13.541" stroke="rgb(33,33,33)" fill="none" stroke-linecap="round"></path><path d="M 320.500,172.500 C 321.500,172.500 321.621,172.207 322.500,172.500" stroke-width="14.262" stroke="rgb(33,33,33)" fill="none" stroke-linecap="round"></path><path d="M 322.500,172.500 C 323.121,172.707 323.000,173.000 323.500,173.500" stroke-width="14.713" stroke="rgb(33,33,33)" fill="none" stroke-linecap="round"></path><path d="M 323.500,173.500 C 324.000,174.000 323.914,174.207 324.500,174.500" stroke-width="15.233" stroke="rgb(33,33,33)" fill="none" stroke-linecap="round"></path><path d="M 324.500,174.500 C 324.914,174.707 325.000,174.500 325.500,174.500" stroke-width="15.870" stroke="rgb(33,33,33)" fill="none" stroke-linecap="round"></path><path d="M 325.500,174.500 C 326.000,174.500 326.066,174.717 326.500,174.500" stroke-width="16.396" stroke="rgb(33,33,33)" fill="none" stroke-linecap="round"></path><path d="M 326.500,174.500 C 328.066,173.717 328.592,173.952 329.500,172.500" stroke-width="15.843" stroke="rgb(33,33,33)" fill="none" stroke-linecap="round"></path><path d="M 329.500,172.500 C 331.092,169.952 330.592,169.527 331.500,166.500" stroke-width="14.667" stroke="rgb(33,33,33)" fill="none" stroke-linecap="round"></path><path d="M 331.500,166.500 C 332.092,164.527 331.780,164.419 332.500,162.500" stroke-width="14.386" stroke="rgb(33,33,33)" fill="none" stroke-linecap="round"></path><path d="M 332.500,162.500 C 333.280,160.419 333.809,160.573 334.500,158.500" stroke-width="14.083" stroke="rgb(33,33,33)" fill="none" stroke-linecap="round"></path><path d="M 334.500,158.500 C 334.809,157.573 334.500,157.500 334.500,156.500" stroke-width="14.461" stroke="rgb(33,33,33)" fill="none" stroke-linecap="round"></path><path d="M 334.500,156.500 C 334.500,155.500 334.500,155.500 334.500,154.500" stroke-width="14.778" stroke="rgb(33,33,33)" fill="none" stroke-linecap="round"></path><path d="M 334.500,154.500 C 334.500,154.000 334.500,154.000 334.500,153.500" stroke-width="15.327" stroke="rgb(33,33,33)" fill="none" stroke-linecap="round"></path><path d="M 334.500,153.500 C 334.500,152.500 334.500,152.500 334.500,151.500" stroke-width="15.494" stroke="rgb(33,33,33)" fill="none" stroke-linecap="round"></path><path d="M 334.500,151.500 C 334.500,150.500 335.000,150.000 334.500,149.500" stroke-width="15.630" stroke="rgb(33,33,33)" fill="none" stroke-linecap="round"></path><path d="M 334.500,149.500 C 334.000,149.000 333.500,149.500 332.500,149.500" stroke-width="15.741" stroke="rgb(33,33,33)" fill="none" stroke-linecap="round"></path><path d="M 332.500,149.500 C 331.000,149.500 330.974,149.289 329.500,149.500" stroke-width="15.527" stroke="rgb(33,33,33)" fill="none" stroke-linecap="round"></path><path d="M 329.500,149.500 C 327.474,149.789 327.500,150.000 325.500,150.500" stroke-width="15.040" stroke="rgb(33,33,33)" fill="none" stroke-linecap="round"></path><path d="M 325.500,150.500 C 321.500,151.500 321.360,151.121 317.500,152.500" stroke-width="13.652" stroke="rgb(33,33,33)" fill="none" stroke-linecap="round"></path><path d="M 317.500,152.500 C 314.360,153.621 314.607,154.257 311.500,155.500" stroke-width="13.028" stroke="rgb(33,33,33)" fill="none" stroke-linecap="round"></path><path d="M 311.500,155.500 C 307.107,157.257 306.679,156.410 302.500,158.500" stroke-width="12.049" stroke="rgb(33,33,33)" fill="none" stroke-linecap="round"></path><path d="M 302.500,158.500 C 299.679,159.910 300.117,160.668 297.500,162.500" stroke-width="11.880" stroke="rgb(33,33,33)" fill="none" stroke-linecap="round"></path><path d="M 297.500,162.500 C 295.117,164.168 294.857,163.817 292.500,165.500" stroke-width="11.959" stroke="rgb(33,33,33)" fill="none" stroke-linecap="round"></path><path d="M 292.500,165.500 C 291.357,166.317 291.403,166.416 290.500,167.500" stroke-width="12.382" stroke="rgb(33,33,33)" fill="none" stroke-linecap="round"></path><path d="M 290.500,167.500 C 288.903,169.416 288.333,169.278 287.500,171.500" stroke-width="12.504" stroke="rgb(33,33,33)" fill="none" stroke-linecap="round"></path><path d="M 287.500,171.500 C 286.833,173.278 287.500,173.500 287.500,175.500" stroke-width="12.579" stroke="rgb(33,33,33)" fill="none" stroke-linecap="round"></path><path d="M 287.500,175.500 C 287.500,177.000 287.665,177.014 287.500,178.500" stroke-width="13.083" stroke="rgb(33,33,33)" fill="none" stroke-linecap="round"></path><path d="M 287.500,178.500 C 287.165,181.514 286.802,181.484 286.500,184.500" stroke-width="12.340" stroke="rgb(33,33,33)" fill="none" stroke-linecap="round"></path><path d="M 286.500,184.500 C 286.302,186.484 286.500,186.500 286.500,188.500" stroke-width="12.713" stroke="rgb(33,33,33)" fill="none" stroke-linecap="round"></path><path d="M 286.500,188.500 C 286.500,192.000 286.500,192.000 286.500,195.500" stroke-width="11.859" stroke="rgb(33,33,33)" fill="none" stroke-linecap="round"></path><path d="M 286.500,195.500 C 286.500,198.000 286.500,198.000 286.500,200.500" stroke-width="11.975" stroke="rgb(33,33,33)" fill="none" stroke-linecap="round"></path><path d="M 286.500,200.500 C 286.500,203.500 286.500,203.500 286.500,206.500" stroke-width="11.892" stroke="rgb(33,33,33)" fill="none" stroke-linecap="round"></path><path d="M 286.500,206.500 C 286.500,208.500 286.500,208.500 286.500,210.500" stroke-width="12.182" stroke="rgb(33,33,33)" fill="none" stroke-linecap="round"></path><path d="M 286.500,210.500 C 286.500,215.500 285.809,215.663 286.500,220.500" stroke-width="11.377" stroke="rgb(33,33,33)" fill="none" stroke-linecap="round"></path><path d="M 286.500,220.500 C 286.809,222.663 287.672,222.429 288.500,224.500" stroke-width="11.667" stroke="rgb(33,33,33)" fill="none" stroke-linecap="round"></path><path d="M 288.500,224.500 C 289.672,227.429 289.009,227.767 290.500,230.500" stroke-width="11.594" stroke="rgb(33,33,33)" fill="none" stroke-linecap="round"></path><path d="M 290.500,230.500 C 292.009,233.267 292.248,233.248 294.500,235.500" stroke-width="11.523" stroke="rgb(33,33,33)" fill="none" stroke-linecap="round"></path><path d="M 294.500,235.500 C 297.248,238.248 297.127,238.813 300.500,240.500" stroke-width="11.963" stroke="rgb(33,33,33)" fill="none" stroke-linecap="round"></path><path d="M 300.500,240.500 C 303.127,241.813 303.479,241.248 306.500,241.500" stroke-width="12.084" stroke="rgb(33,33,33)" fill="none" stroke-linecap="round"></path><path d="M 306.500,241.500 C 309.479,241.748 309.500,241.500 312.500,241.500" stroke-width="11.002" stroke="rgb(33,33,33)" fill="none" stroke-linecap="round"></path><path d="M 312.500,241.500 C 314.500,241.500 314.623,242.078 316.500,241.500" stroke-width="11.424" stroke="rgb(33,33,33)" fill="none" stroke-linecap="round"></path><path d="M 316.500,241.500 C 321.123,240.078 321.451,240.199 325.500,237.500" stroke-width="10.862" stroke="rgb(33,33,33)" fill="none" stroke-linecap="round"></path><path d="M 325.500,237.500 C 330.451,234.199 330.109,233.616 334.500,229.500" stroke-width="10.163" stroke="rgb(33,33,33)" fill="none" stroke-linecap="round"></path><path d="M 334.500,229.500 C 338.109,226.116 338.000,226.000 341.500,222.500" stroke-width="9.920" stroke="rgb(33,33,33)" fill="none" stroke-linecap="round"></path><path d="M 341.500,222.500 C 345.500,218.500 345.625,218.618 349.500,214.500" stroke-width="9.570" stroke="rgb(33,33,33)" fill="none" stroke-linecap="round"></path><path d="M 349.500,214.500 C 353.625,210.118 353.500,210.000 357.500,205.500" stroke-width="9.230" stroke="rgb(33,33,33)" fill="none" stroke-linecap="round"></path><path d="M 357.500,205.500 C 361.500,201.000 361.535,201.031 365.500,196.500" stroke-width="8.976" stroke="rgb(33,33,33)" fill="none" stroke-linecap="round"></path><path d="M 365.500,196.500 C 368.535,193.031 368.655,193.121 371.500,189.500" stroke-width="9.059" stroke="rgb(33,33,33)" fill="none" stroke-linecap="round"></path><path d="M 371.500,189.500 C 374.155,186.121 374.177,186.113 376.500,182.500" stroke-width="9.291" stroke="rgb(33,33,33)" fill="none" stroke-linecap="round"></path><path d="M 376.500,182.500 C 378.677,179.113 378.924,179.178 380.500,175.500" stroke-width="9.315" stroke="rgb(33,33,33)" fill="none" stroke-linecap="round"></path><path d="M 380.500,175.500 C 381.924,172.178 381.683,172.041 382.500,168.500" stroke-width="9.713" stroke="rgb(33,33,33)" fill="none" stroke-linecap="round"></path><path d="M 382.500,168.500 C 383.183,165.541 383.165,165.514 383.500,162.500" stroke-width="9.780" stroke="rgb(33,33,33)" fill="none" stroke-linecap="round"></path><path d="M 383.500,162.500 C 383.665,161.014 383.500,161.000 383.500,159.500" stroke-width="10.566" stroke="rgb(33,33,33)" fill="none" stroke-linecap="round"></path><path d="M 383.500,159.500 C 383.500,158.000 383.500,158.000 383.500,156.500" stroke-width="11.047" stroke="rgb(33,33,33)" fill="none" stroke-linecap="round"></path><path d="M 383.500,156.500 C 383.500,156.000 383.500,156.000 383.500,155.500" stroke-width="11.971" stroke="rgb(33,33,33)" fill="none" stroke-linecap="round"></path><path d="M 383.500,155.500 C 383.500,155.000 383.750,154.750 383.500,154.500" stroke-width="12.985" stroke="rgb(33,33,33)" fill="none" stroke-linecap="round"></path><path d="M 383.500,154.500 C 383.250,154.250 383.000,154.500 382.500,154.500" stroke-width="13.751" stroke="rgb(33,33,33)" fill="none" stroke-linecap="round"></path><path d="M 382.500,154.500 C 382.000,154.500 381.740,154.140 381.500,154.500" stroke-width="14.433" stroke="rgb(33,33,33)" fill="none" stroke-linecap="round"></path><path d="M 381.500,154.500 C 380.740,155.640 380.883,155.969 380.500,157.500" stroke-width="14.449" stroke="rgb(33,33,33)" fill="none" stroke-linecap="round"></path><path d="M 380.500,157.500 C 379.883,159.969 379.815,159.982 379.500,162.500" stroke-width="13.978" stroke="rgb(33,33,33)" fill="none" stroke-linecap="round"></path><path d="M 379.500,162.500 C 379.315,163.982 379.500,164.000 379.500,165.500" stroke-width="14.122" stroke="rgb(33,33,33)" fill="none" stroke-linecap="round"></path><path d="M 379.500,165.500 C 379.500,168.500 379.500,168.500 379.500,171.500" stroke-width="13.526" stroke="rgb(33,33,33)" fill="none" stroke-linecap="round"></path><path d="M 379.500,171.500 C 379.500,174.000 378.906,174.122 379.500,176.500" stroke-width="13.299" stroke="rgb(33,33,33)" fill="none" stroke-linecap="round"></path><path d="M 379.500,176.500 C 380.406,180.122 381.036,179.985 382.500,183.500" stroke-width="12.589" stroke="rgb(33,33,33)" fill="none" stroke-linecap="round"></path><path d="M 382.500,183.500 C 383.536,185.985 383.228,186.138 384.500,188.500" stroke-width="12.489" stroke="rgb(33,33,33)" fill="none" stroke-linecap="round"></path><path d="M 384.500,188.500 C 386.728,192.638 387.028,192.483 389.500,196.500" stroke-width="11.685" stroke="rgb(33,33,33)" fill="none" stroke-linecap="round"></path><path d="M 389.500,196.500 C 391.028,198.983 391.328,198.864 392.500,201.500" stroke-width="11.690" stroke="rgb(33,33,33)" fill="none" stroke-linecap="round"></path><path d="M 392.500,201.500 C 393.328,203.364 392.934,203.519 393.500,205.500" stroke-width="11.990" stroke="rgb(33,33,33)" fill="none" stroke-linecap="round"></path><path d="M 393.500,205.500 C 393.934,207.019 394.243,206.960 394.500,208.500" stroke-width="12.490" stroke="rgb(33,33,33)" fill="none" stroke-linecap="round"></path><path d="M 394.500,208.500 C 394.743,209.960 394.500,210.000 394.500,211.500" stroke-width="12.794" stroke="rgb(33,33,33)" fill="none" stroke-linecap="round"></path><path d="M 394.500,211.500 C 394.500,213.000 394.500,213.000 394.500,214.500" stroke-width="13.210" stroke="rgb(33,33,33)" fill="none" stroke-linecap="round"></path><path d="M 394.500,214.500 C 394.500,216.000 394.500,216.000 394.500,217.500" stroke-width="13.393" stroke="rgb(33,33,33)" fill="none" stroke-linecap="round"></path><path d="M 394.500,217.500 C 394.500,219.000 395.138,219.224 394.500,220.500" stroke-width="13.717" stroke="rgb(33,33,33)" fill="none" stroke-linecap="round"></path><path d="M 394.500,220.500 C 393.138,223.224 392.465,222.973 390.500,225.500" stroke-width="12.948" stroke="rgb(33,33,33)" fill="none" stroke-linecap="round"></path><path d="M 390.500,225.500 C 388.965,227.473 389.422,228.005 387.500,229.500" stroke-width="12.847" stroke="rgb(33,33,33)" fill="none" stroke-linecap="round"></path><path d="M 387.500,229.500 C 384.922,231.505 384.609,231.464 381.500,232.500" stroke-width="12.434" stroke="rgb(33,33,33)" fill="none" stroke-linecap="round"></path><path d="M 381.500,232.500 C 380.109,232.964 380.000,232.500 378.500,232.500" stroke-width="12.833" stroke="rgb(33,33,33)" fill="none" stroke-linecap="round"></path><path d="M 378.500,232.500 C 377.000,232.500 376.932,232.786 375.500,232.500" stroke-width="13.172" stroke="rgb(33,33,33)" fill="none" stroke-linecap="round"></path><path d="M 375.500,232.500 C 374.432,232.286 374.027,232.379 373.500,231.500" stroke-width="13.853" stroke="rgb(33,33,33)" fill="none" stroke-linecap="round"></path><path d="M 373.500,231.500 C 372.527,229.879 372.657,229.542 372.500,227.500" stroke-width="11.365" stroke="rgb(33,33,33)" fill="none" stroke-linecap="round"></path><path d="M 372.500,227.500 C 372.157,223.042 372.500,223.000 372.500,218.500" stroke-width="11.602" stroke="rgb(33,33,33)" fill="none" stroke-linecap="round"></path><path d="M 372.500,218.500 C 372.500,215.500 372.500,215.500 372.500,212.500" stroke-width="9.220" stroke="rgb(33,33,33)" fill="none" stroke-linecap="round"></path><path d="M 372.500,212.500 C 372.500,208.000 372.236,207.984 372.500,203.500" stroke-width="9.145" stroke="rgb(33,33,33)" fill="none" stroke-linecap="round"></path><path d="M 372.500,203.500 C 372.736,199.484 372.315,199.293 373.500,195.500" stroke-width="9.319" stroke="rgb(33,33,33)" fill="none" stroke-linecap="round"></path><path d="M 373.500,195.500 C 374.815,191.293 374.792,190.947 377.500,187.500" stroke-width="9.367" stroke="rgb(33,33,33)" fill="none" stroke-linecap="round"></path><path d="M 377.500,187.500 C 380.292,183.947 380.879,184.345 384.500,181.500" stroke-width="9.375" stroke="rgb(33,33,33)" fill="none" stroke-linecap="round"></path><path d="M 384.500,181.500 C 387.879,178.845 387.671,178.287 391.500,176.500" stroke-width="9.449" stroke="rgb(33,33,33)" fill="none" stroke-linecap="round"></path><path d="M 391.500,176.500 C 395.171,174.787 395.626,175.867 399.500,174.500" stroke-width="9.549" stroke="rgb(33,33,33)" fill="none" stroke-linecap="round"></path><path d="M 399.500,174.500 C 404.126,172.867 403.802,171.842 408.500,170.500" stroke-width="9.451" stroke="rgb(33,33,33)" fill="none" stroke-linecap="round"></path><path d="M 408.500,170.500 C 414.302,168.842 414.507,169.542 420.500,168.500" stroke-width="9.129" stroke="rgb(33,33,33)" fill="none" stroke-linecap="round"></path><path d="M 420.500,168.500 C 426.007,167.542 426.021,167.596 431.500,166.500" stroke-width="8.983" stroke="rgb(33,33,33)" fill="none" stroke-linecap="round"></path><path d="M 431.500,166.500 C 433.521,166.096 433.597,166.261 435.500,165.500" stroke-width="9.614" stroke="rgb(33,33,33)" fill="none" stroke-linecap="round"></path><path d="M 435.500,165.500 C 438.597,164.261 438.686,164.259 441.500,162.500" stroke-width="9.864" stroke="rgb(33,33,33)" fill="none" stroke-linecap="round"></path><path d="M 441.500,162.500 C 442.686,161.759 442.500,161.500 443.500,160.500" stroke-width="10.629" stroke="rgb(33,33,33)" fill="none" stroke-linecap="round"></path><path d="M 443.500,160.500 C 445.500,158.500 445.500,158.500 447.500,156.500" stroke-width="10.739" stroke="rgb(33,33,33)" fill="none" stroke-linecap="round"></path><path d="M 447.500,156.500 C 448.000,156.000 448.207,156.086 448.500,155.500" stroke-width="11.731" stroke="rgb(33,33,33)" fill="none" stroke-linecap="round"></path><path d="M 448.500,155.500 C 448.707,155.086 448.250,154.750 448.500,154.500" stroke-width="12.631" stroke="rgb(33,33,33)" fill="none" stroke-linecap="round"></path><path d="M 448.500,154.500 C 448.750,154.250 449.375,154.125 449.500,154.500" stroke-width="13.599" stroke="rgb(33,33,33)" fill="none" stroke-linecap="round"></path><path d="M 449.500,154.500 C 449.875,155.625 449.110,156.071 449.500,157.500" stroke-width="13.811" stroke="rgb(33,33,33)" fill="none" stroke-linecap="round"></path><path d="M 449.500,157.500 C 450.610,161.571 451.406,161.396 452.500,165.500" stroke-width="12.763" stroke="rgb(33,33,33)" fill="none" stroke-linecap="round"></path><path d="M 452.500,165.500 C 453.406,168.896 452.558,169.111 453.500,172.500" stroke-width="12.302" stroke="rgb(33,33,33)" fill="none" stroke-linecap="round"></path><path d="M 453.500,172.500 C 455.058,178.111 456.214,177.841 457.500,183.500" stroke-width="11.191" stroke="rgb(33,33,33)" fill="none" stroke-linecap="round"></path><path d="M 457.500,183.500 C 458.714,188.841 458.260,188.988 458.500,194.500" stroke-width="10.315" stroke="rgb(33,33,33)" fill="none" stroke-linecap="round"></path><path d="M 458.500,194.500 C 458.760,200.488 458.500,200.500 458.500,206.500" stroke-width="9.780" stroke="rgb(33,33,33)" fill="none" stroke-linecap="round"></path><path d="M 458.500,206.500 C 458.500,211.500 458.500,211.500 458.500,216.500" stroke-width="9.742" stroke="rgb(33,33,33)" fill="none" stroke-linecap="round"></path><path d="M 458.500,216.500 C 458.500,222.000 459.102,222.084 458.500,227.500" stroke-width="9.301" stroke="rgb(33,33,33)" fill="none" stroke-linecap="round"></path><path d="M 458.500,227.500 C 458.102,231.084 458.096,231.308 456.500,234.500" stroke-width="9.535" stroke="rgb(33,33,33)" fill="none" stroke-linecap="round"></path><path d="M 456.500,234.500 C 455.096,237.308 454.746,237.254 452.500,239.500" stroke-width="9.834" stroke="rgb(33,33,33)" fill="none" stroke-linecap="round"></path><path d="M 452.500,239.500 C 450.746,241.254 450.644,241.275 448.500,242.500" stroke-width="10.267" stroke="rgb(33,33,33)" fill="none" stroke-linecap="round"></path><path d="M 448.500,242.500 C 447.144,243.275 446.902,242.799 445.500,243.500" stroke-width="10.905" stroke="rgb(33,33,33)" fill="none" stroke-linecap="round"></path><path d="M 445.500,243.500 C 443.902,244.299 444.138,244.954 442.500,245.500" stroke-width="11.404" stroke="rgb(33,33,33)" fill="none" stroke-linecap="round"></path><path d="M 442.500,245.500 C 441.138,245.954 441.000,245.500 439.500,245.500" stroke-width="11.943" stroke="rgb(33,33,33)" fill="none" stroke-linecap="round"></path><path d="M 439.500,245.500 C 437.000,245.500 436.966,245.774 434.500,245.500" stroke-width="12.043" stroke="rgb(33,33,33)" fill="none" stroke-linecap="round"></path><path d="M 434.500,245.500 C 432.466,245.274 432.308,245.404 430.500,244.500" stroke-width="12.286" stroke="rgb(33,33,33)" fill="none" stroke-linecap="round"></path><path d="M 430.500,244.500 C 428.308,243.404 428.449,243.059 426.500,241.500" stroke-width="12.321" stroke="rgb(33,33,33)" fill="none" stroke-linecap="round"></path><path d="M 426.500,241.500 C 425.949,241.059 425.923,241.063 425.500,240.500" stroke-width="13.063" stroke="rgb(33,33,33)" fill="none" stroke-linecap="round"></path><path d="M 425.500,240.500 C 424.423,239.063 424.299,239.098 423.500,237.500" stroke-width="13.390" stroke="rgb(33,33,33)" fill="none" stroke-linecap="round"></path><path d="M 423.500,237.500 C 422.799,236.098 422.757,236.040 422.500,234.500" stroke-width="13.364" stroke="rgb(33,33,33)" fill="none" stroke-linecap="round"></path><path d="M 422.500,234.500 C 422.257,233.040 422.500,233.000 422.500,231.500" stroke-width="13.693" stroke="rgb(33,33,33)" fill="none" stroke-linecap="round"></path><path d="M 422.500,231.500 C 422.500,229.000 422.194,228.950 422.500,226.500" stroke-width="13.271" stroke="rgb(33,33,33)" fill="none" stroke-linecap="round"></path><path d="M 422.500,226.500 C 422.694,224.950 422.621,224.672 423.500,223.500" stroke-width="13.502" stroke="rgb(33,33,33)" fill="none" stroke-linecap="round"></path><path d="M 423.500,223.500 C 424.121,222.672 424.500,223.000 425.500,222.500" stroke-width="13.970" stroke="rgb(33,33,33)" fill="none" stroke-linecap="round"></path><path d="M 425.500,222.500 C 427.500,221.500 427.405,221.099 429.500,220.500" stroke-width="13.762" stroke="rgb(33,33,33)" fill="none" stroke-linecap="round"></path><path d="M 429.500,220.500 C 430.905,220.099 431.027,220.746 432.500,220.500" stroke-width="13.945" stroke="rgb(33,33,33)" fill="none" stroke-linecap="round"></path><path d="M 432.500,220.500 C 437.027,219.746 436.950,219.182 441.500,218.500" stroke-width="12.718" stroke="rgb(33,33,33)" fill="none" stroke-linecap="round"></path><path d="M 441.500,218.500 C 446.950,217.682 446.988,217.740 452.500,217.500" stroke-width="11.572" stroke="rgb(33,33,33)" fill="none" stroke-linecap="round"></path><path d="M 452.500,217.500 C 458.488,217.240 458.500,217.500 464.500,217.500" stroke-width="10.658" stroke="rgb(33,33,33)" fill="none" stroke-linecap="round"></path><path d="M 464.500,217.500 C 472.000,217.500 472.008,217.750 479.500,217.500" stroke-width="9.666" stroke="rgb(33,33,33)" fill="none" stroke-linecap="round"></path><path d="M 479.500,217.500 C 487.008,217.250 487.065,217.491 494.500,216.500" stroke-width="8.783" stroke="rgb(33,33,33)" fill="none" stroke-linecap="round"></path><path d="M 494.500,216.500 C 502.065,215.491 502.089,215.353 509.500,213.500" stroke-width="8.493" stroke="rgb(33,33,33)" fill="none" stroke-linecap="round"></path><path d="M 509.500,213.500 C 516.089,211.853 516.051,211.650 522.500,209.500" stroke-width="8.274" stroke="rgb(33,33,33)" fill="none" stroke-linecap="round"></path><path d="M 522.500,209.500 C 526.551,208.150 526.641,208.301 530.500,206.500" stroke-width="8.539" stroke="rgb(33,33,33)" fill="none" stroke-linecap="round"></path><path d="M 530.500,206.500 C 534.141,204.801 534.198,204.786 537.500,202.500" stroke-width="8.809" stroke="rgb(33,33,33)" fill="none" stroke-linecap="round"></path><path d="M 537.500,202.500 C 540.698,200.286 541.079,200.459 543.500,197.500" stroke-width="9.063" stroke="rgb(33,33,33)" fill="none" stroke-linecap="round"></path><path d="M 543.500,197.500 C 545.579,194.959 545.560,194.632 546.500,191.500" stroke-width="9.396" stroke="rgb(33,33,33)" fill="none" stroke-linecap="round"></path><path d="M 546.500,191.500 C 547.060,189.632 546.500,189.500 546.500,187.500" stroke-width="10.004" stroke="rgb(33,33,33)" fill="none" stroke-linecap="round"></path><path d="M 546.500,187.500 C 546.500,185.000 546.500,185.000 546.500,182.500" stroke-width="10.415" stroke="rgb(33,33,33)" fill="none" stroke-linecap="round"></path><path d="M 546.500,182.500 C 546.500,180.000 546.806,179.950 546.500,177.500" stroke-width="10.769" stroke="rgb(33,33,33)" fill="none" stroke-linecap="round"></path><path d="M 546.500,177.500 C 546.306,175.950 546.292,175.820 545.500,174.500" stroke-width="11.355" stroke="rgb(33,33,33)" fill="none" stroke-linecap="round"></path><path d="M 545.500,174.500 C 544.792,173.320 544.500,173.500 543.500,172.500" stroke-width="11.985" stroke="rgb(33,33,33)" fill="none" stroke-linecap="round"></path><path d="M 543.500,172.500 C 543.000,172.000 543.000,172.000 542.500,171.500" stroke-width="12.719" stroke="rgb(33,33,33)" fill="none" stroke-linecap="round"></path><path d="M 542.500,171.500 C 541.500,170.500 541.608,170.239 540.500,169.500" stroke-width="13.233" stroke="rgb(33,33,33)" fill="none" stroke-linecap="round"></path><path d="M 540.500,169.500 C 540.108,169.239 540.000,169.500 539.500,169.500" stroke-width="14.087" stroke="rgb(33,33,33)" fill="none" stroke-linecap="round"></path><path d="M 539.500,169.500 C 539.000,169.500 538.964,169.345 538.500,169.500" stroke-width="14.689" stroke="rgb(33,33,33)" fill="none" stroke-linecap="round"></path><path d="M 538.500,169.500 C 537.464,169.845 537.457,169.926 536.500,170.500" stroke-width="14.903" stroke="rgb(33,33,33)" fill="none" stroke-linecap="round"></path><path d="M 536.500,170.500 C 534.957,171.426 534.582,171.109 533.500,172.500" stroke-width="14.704" stroke="rgb(33,33,33)" fill="none" stroke-linecap="round"></path><path d="M 533.500,172.500 C 531.082,175.609 531.786,176.198 529.500,179.500" stroke-width="13.471" stroke="rgb(33,33,33)" fill="none" stroke-linecap="round"></path><path d="M 529.500,179.500 C 527.286,182.698 526.790,182.351 524.500,185.500" stroke-width="12.673" stroke="rgb(33,33,33)" fill="none" stroke-linecap="round"></path><path d="M 524.500,185.500 C 522.790,187.851 523.115,188.077 521.500,190.500" stroke-width="12.469" stroke="rgb(33,33,33)" fill="none" stroke-linecap="round"></path><path d="M 521.500,190.500 C 520.115,192.577 519.604,192.292 518.500,194.500" stroke-width="12.467" stroke="rgb(33,33,33)" fill="none" stroke-linecap="round"></path><path d="M 518.500,194.500 C 517.104,197.292 517.330,197.455 516.500,200.500" stroke-width="12.217" stroke="rgb(33,33,33)" fill="none" stroke-linecap="round"></path><path d="M 516.500,200.500 C 515.830,202.955 515.711,202.971 515.500,205.500" stroke-width="12.247" stroke="rgb(33,33,33)" fill="none" stroke-linecap="round"></path><path d="M 515.500,205.500 C 515.211,208.971 515.500,209.000 515.500,212.500" stroke-width="11.927" stroke="rgb(33,33,33)" fill="none" stroke-linecap="round"></path><path d="M 515.500,212.500 C 515.500,215.000 515.500,215.000 515.500,217.500" stroke-width="12.384" stroke="rgb(33,33,33)" fill="none" stroke-linecap="round"></path><path d="M 515.500,217.500 C 515.500,220.500 515.500,220.500 515.500,223.500" stroke-width="9.606" stroke="rgb(33,33,33)" fill="none" stroke-linecap="round"></path><path d="M 515.500,223.500 C 515.500,227.000 514.488,227.262 515.500,230.500" stroke-width="9.916" stroke="rgb(33,33,33)" fill="none" stroke-linecap="round"></path><path d="M 515.500,230.500 C 516.988,235.262 517.485,235.389 520.500,239.500" stroke-width="9.517" stroke="rgb(33,33,33)" fill="none" stroke-linecap="round"></path><path d="M 520.500,239.500 C 522.985,242.889 523.185,242.896 526.500,245.500" stroke-width="9.685" stroke="rgb(33,33,33)" fill="none" stroke-linecap="round"></path><path d="M 526.500,245.500 C 530.185,248.396 530.381,248.212 534.500,250.500" stroke-width="9.453" stroke="rgb(33,33,33)" fill="none" stroke-linecap="round"></path><path d="M 534.500,250.500 C 539.381,253.212 539.218,253.991 544.500,255.500" stroke-width="9.233" stroke="rgb(33,33,33)" fill="none" stroke-linecap="round"></path><path d="M 544.500,255.500 C 549.718,256.991 549.988,256.270 555.500,256.500" stroke-width="9.078" stroke="rgb(33,33,33)" fill="none" stroke-linecap="round"></path><path d="M 555.500,256.500 C 561.988,256.770 562.000,256.500 568.500,256.500" stroke-width="8.768" stroke="rgb(33,33,33)" fill="none" stroke-linecap="round"></path><path d="M 568.500,256.500 C 576.000,256.500 576.000,256.500 583.500,256.500" stroke-width="8.359" stroke="rgb(33,33,33)" fill="none" stroke-linecap="round"></path><path d="M 583.500,256.500 C 593.000,256.500 593.000,256.500 602.500,256.500" stroke-width="7.909" stroke="rgb(33,33,33)" fill="none" stroke-linecap="round"></path><path d="M 602.500,256.500 C 613.500,256.500 613.500,256.500 624.500,256.500" stroke-width="7.039" stroke="rgb(33,33,33)" fill="none" stroke-linecap="round"></path><path d="M 624.500,256.500 C 634.500,256.500 634.500,256.500 644.500,256.500" stroke-width="6.874" stroke="rgb(33,33,33)" fill="none" stroke-linecap="round"></path><path d="M 644.500,256.500 C 654.000,256.500 654.006,256.737 663.500,256.500" stroke-width="6.750" stroke="rgb(33,33,33)" fill="none" stroke-linecap="round"></path><path d="M 663.500,256.500 C 674.006,256.237 674.024,256.306 684.500,255.500" stroke-width="6.750" stroke="rgb(33,33,33)" fill="none" stroke-linecap="round"></path><path d="M 684.500,255.500 C 693.524,254.806 693.527,254.696 702.500,253.500" stroke-width="6.750" stroke="rgb(33,33,33)" fill="none" stroke-linecap="round"></path><path d="M 702.500,253.500 C 708.527,252.696 708.457,251.983 714.500,251.500" stroke-width="6.750" stroke="rgb(33,33,33)" fill="none" stroke-linecap="round"></path><path d="M 714.500,251.500 C 720.957,250.983 721.023,251.824 727.500,251.500" stroke-width="6.750" stroke="rgb(33,33,33)" fill="none" stroke-linecap="round"></path><path d="M 727.500,251.500 C 731.023,251.324 730.987,250.819 734.500,250.500" stroke-width="7.281" stroke="rgb(33,33,33)" fill="none" stroke-linecap="round"></path><path d="M 734.500,250.500 C 736.487,250.319 736.500,250.500 738.500,250.500" stroke-width="8.055" stroke="rgb(33,33,33)" fill="none" stroke-linecap="round"></path></svg>