<svg xmlns="http://www.w3.org/2000/svg" xmlns:xlink="http://www.w3.org/1999/xlink" viewBox="0 0 375 500"><path d="M 58.000,96.000 C 58.000,105.500 58.000,105.500 58.000,115.000" stroke-width="16.875" stroke="rgb(33,33,33)" fill="none" stroke-linecap="round"></path><path d="M 58.000,115.000 C 58.000,121.500 57.768,121.508 58.000,128.000" stroke-width="14.709" stroke="rgb(33,33,33)" fill="none" stroke-linecap="round"></path><path d="M 58.000,128.000 C 58.268,135.508 58.339,135.514 59.000,143.000" stroke-width="13.699" stroke="rgb(33,33,33)" fill="none" stroke-linecap="round"></path><path d="M 59.000,143.000 C 59.839,152.514 60.268,152.479 61.000,162.000" stroke-width="12.943" stroke="rgb(33,33,33)" fill="none" stroke-linecap="round"></path><path d="M 61.000,162.000 C 61.768,171.979 61.555,171.998 62.000,182.000" stroke-width="11.508" stroke="rgb(33,33,33)" fill="none" stroke-linecap="round"></path><path d="M 62.000,182.000 C 62.555,194.498 62.709,194.496 63.000,207.000" stroke-width="10.646" stroke="rgb(33,33,33)" fill="none" stroke-linecap="round"></path><path d="M 63.000,207.000 C 63.209,215.996 63.000,216.000 63.000,225.000" stroke-width="10.323" stroke="rgb(33,33,33)" fill="none" stroke-linecap="round"></path><path d="M 63.000,225.000 C 63.000,234.000 63.310,234.014 63.000,243.000" stroke-width="10.222" stroke="rgb(33,33,33)" fill="none" stroke-linecap="round"></path><path d="M 63.000,243.000 C 62.810,248.514 62.645,248.519 62.000,254.000" stroke-width="10.531" stroke="rgb(33,33,33)" fill="none" stroke-linecap="round"></path><path d="M 62.000,254.000 C 61.645,257.019 61.658,257.039 61.000,260.000" stroke-width="11.188" stroke="rgb(33,33,33)" fill="none" stroke-linecap="round"></path><path d="M 61.000,260.000 C 60.658,261.539 60.380,261.481 60.000,263.000" stroke-width="12.017" stroke="rgb(33,33,33)" fill="none" stroke-linecap="round"></path><path d="M 60.000,263.000 C 59.880,263.481 60.250,263.750 60.000,264.000" stroke-width="12.976" stroke="rgb(33,33,33)" fill="none" stroke-linecap="round"></path><path d="M 60.000,264.000 C 59.750,264.250 59.038,264.462 59.000,264.000" stroke-width="13.867" stroke="rgb(33,33,33)" fill="none" stroke-linecap="round"></path><path d="M 59.000,264.000 C 58.538,258.462 59.000,258.000 59.000,252.000" stroke-width="13.338" stroke="rgb(33,33,33)" fill="none" stroke-linecap="round"></path><path d="M 59.000,252.000 C 59.000,245.000 59.000,245.000 59.000,238.000" stroke-width="12.822" stroke="rgb(33,33,33)" fill="none" stroke-linecap="round"></path><path d="M 59.000,238.000 C 59.000,228.500 59.000,228.500 59.000,219.000" stroke-width="12.004" stroke="rgb(33,33,33)" fill="none" stroke-linecap="round"></path><path d="M 59.000,219.000 C 59.000,209.000 58.737,208.993 59.000,199.000" stroke-width="11.345" stroke="rgb(33,33,33)" fill="none" stroke-linecap="round"></path><path d="M 59.000,199.000 C 59.237,189.993 59.231,189.977 60.000,181.000" stroke-width="10.927" stroke="rgb(33,33,33)" fill="none" stroke-linecap="round"></path><path d="M 60.000,181.000 C 60.731,172.477 60.549,172.417 62.000,164.000" stroke-width="10.749" stroke="rgb(33,33,33)" fill="none" stroke-linecap="round"></path><path d="M 62.000,164.000 C 63.049,157.917 62.977,157.817 65.000,152.000" stroke-width="10.930" stroke="rgb(33,33,33)" fill="none" stroke-linecap="round"></path><path d="M 65.000,152.000 C 66.977,146.317 67.301,146.398 70.000,141.000" stroke-width="11.046" stroke="rgb(33,33,33)" fill="none" stroke-linecap="round"></path><path d="M 70.000,141.000 C 71.801,137.398 71.771,137.344 74.000,134.000" stroke-width="11.497" stroke="rgb(33,33,33)" fill="none" stroke-linecap="round"></path><path d="M 74.000,134.000 C 75.771,131.344 75.473,130.404 78.000,129.000" stroke-width="12.022" stroke="rgb(33,33,33)" fill="none" stroke-linecap="round"></path><path d="M 78.000,129.000 C 79.973,127.904 80.525,128.752 83.000,129.000" stroke-width="12.577" stroke="rgb(33,33,33)" fill="none" stroke-linecap="round"></path><path d="M 83.000,129.000 C 85.525,129.252 86.516,128.219 88.000,130.000" stroke-width="13.081" stroke="rgb(33,33,33)" fill="none" stroke-linecap="round"></path><path d="M 88.000,130.000 C 91.516,134.219 91.030,135.310 93.000,141.000" stroke-width="12.812" stroke="rgb(33,33,33)" fill="none" stroke-linecap="round"></path><path d="M 93.000,141.000 C 95.530,148.310 95.573,148.390 97.000,156.000" stroke-width="12.294" stroke="rgb(33,33,33)" fill="none" stroke-linecap="round"></path><path d="M 97.000,156.000 C 98.573,164.390 97.823,164.524 99.000,173.000" stroke-width="11.780" stroke="rgb(33,33,33)" fill="none" stroke-linecap="round"></path><path d="M 99.000,173.000 C 100.323,182.524 100.712,182.471 102.000,192.000" stroke-width="11.240" stroke="rgb(33,33,33)" fill="none" stroke-linecap="round"></path><path d="M 102.000,192.000 C 103.212,200.971 103.227,200.981 104.000,210.000" stroke-width="10.756" stroke="rgb(33,33,33)" fill="none" stroke-linecap="round"></path><path d="M 104.000,210.000 C 104.727,218.481 104.434,218.505 105.000,227.000" stroke-width="10.621" stroke="rgb(33,33,33)" fill="none" stroke-linecap="round"></path><path d="M 105.000,227.000 C 105.434,233.505 105.759,233.490 106.000,240.000" stroke-width="10.779" stroke="rgb(33,33,33)" fill="none" stroke-linecap="round"></path><path d="M 106.000,240.000 C 106.259,246.990 106.000,247.000 106.000,254.000" stroke-width="10.783" stroke="rgb(33,33,33)" fill="none" stroke-linecap="round"></path><path d="M 106.000,254.000 C 106.000,258.000 106.000,258.000 106.000,262.000" stroke-width="11.272" stroke="rgb(33,33,33)" fill="none" stroke-linecap="round"></path><path d="M 106.000,262.000 C 106.000,264.500 106.000,264.500 106.000,267.000" stroke-width="11.940" stroke="rgb(33,33,33)" fill="none" stroke-linecap="round"></path><path d="M 106.000,267.000 C 106.000,268.500 106.000,268.500 106.000,270.000" stroke-width="12.702" stroke="rgb(33,33,33)" fill="none" stroke-linecap="round"></path><path d="M 106.000,270.000 C 106.000,270.500 106.207,271.000 106.000,271.000" stroke-width="13.616" stroke="rgb(33,33,33)" fill="none" stroke-linecap="round"></path><path d="M 106.000,271.000 C 105.707,271.000 105.114,270.681 105.000,270.000" stroke-width="14.399" stroke="rgb(33,33,33)" fill="none" stroke-linecap="round"></path><path d="M 105.000,270.000 C 104.114,264.681 104.230,264.512 104.000,259.000" stroke-width="13.840" stroke="rgb(33,33,33)" fill="none" stroke-linecap="round"></path><path d="M 104.000,259.000 C 103.730,252.512 104.216,252.494 104.000,246.000" stroke-width="13.292" stroke="rgb(33,33,33)" fill="none" stroke-linecap="round"></path><path d="M 104.000,246.000 C 103.716,237.494 103.243,237.508 103.000,229.000" stroke-width="12.507" stroke="rgb(33,33,33)" fill="none" stroke-linecap="round"></path><path d="M 103.000,229.000 C 102.743,220.008 103.000,220.000 103.000,211.000" stroke-width="11.771" stroke="rgb(33,33,33)" fill="none" stroke-linecap="round"></path><path d="M 103.000,211.000 C 103.000,202.000 103.000,202.000 103.000,193.000" stroke-width="11.325" stroke="rgb(33,33,33)" fill="none" stroke-linecap="round"></path><path d="M 103.000,193.000 C 103.000,184.500 103.000,184.500 103.000,176.000" stroke-width="11.063" stroke="rgb(33,33,33)" fill="none" stroke-linecap="round"></path><path d="M 103.000,176.000 C 103.000,168.000 102.411,167.947 103.000,160.000" stroke-width="10.862" stroke="rgb(33,33,33)" fill="none" stroke-linecap="round"></path><path d="M 103.000,160.000 C 103.411,154.447 103.472,154.348 105.000,149.000" stroke-width="11.153" stroke="rgb(33,33,33)" fill="none" stroke-linecap="round"></path><path d="M 105.000,149.000 C 106.472,143.848 106.601,143.798 109.000,139.000" stroke-width="11.331" stroke="rgb(33,33,33)" fill="none" stroke-linecap="round"></path><path d="M 109.000,139.000 C 111.101,134.798 111.187,134.751 114.000,131.000" stroke-width="11.587" stroke="rgb(33,33,33)" fill="none" stroke-linecap="round"></path><path d="M 114.000,131.000 C 115.687,128.751 115.686,128.446 118.000,127.000" stroke-width="12.164" stroke="rgb(33,33,33)" fill="none" stroke-linecap="round"></path><path d="M 118.000,127.000 C 119.686,125.946 119.966,126.226 122.000,126.000" stroke-width="12.836" stroke="rgb(33,33,33)" fill="none" stroke-linecap="round"></path><path d="M 122.000,126.000 C 124.466,125.726 125.027,124.904 127.000,126.000" stroke-width="13.246" stroke="rgb(33,33,33)" fill="none" stroke-linecap="round"></path><path d="M 127.000,126.000 C 129.527,127.404 129.720,128.119 131.000,131.000" stroke-width="13.553" stroke="rgb(33,33,33)" fill="none" stroke-linecap="round"></path><path d="M 131.000,131.000 C 133.720,137.119 133.505,137.381 135.000,144.000" stroke-width="13.020" stroke="rgb(33,33,33)" fill="none" stroke-linecap="round"></path><path d="M 135.000,144.000 C 137.005,152.881 136.965,152.948 138.000,162.000" stroke-width="12.000" stroke="rgb(33,33,33)" fill="none" stroke-linecap="round"></path><path d="M 138.000,162.000 C 138.965,170.448 138.514,170.499 139.000,179.000" stroke-width="11.569" stroke="rgb(33,33,33)" fill="none" stroke-linecap="round"></path><path d="M 139.000,179.000 C 139.514,187.999 139.486,188.001 140.000,197.000" stroke-width="11.173" stroke="rgb(33,33,33)" fill="none" stroke-linecap="round"></path><path d="M 140.000,197.000 C 140.486,205.501 140.742,205.493 141.000,214.000" stroke-width="10.944" stroke="rgb(33,33,33)" fill="none" stroke-linecap="round"></path><path d="M 141.000,214.000 C 141.242,221.993 141.000,222.000 141.000,230.000" stroke-width="10.770" stroke="rgb(33,33,33)" fill="none" stroke-linecap="round"></path><path d="M 141.000,230.000 C 141.000,236.000 141.000,236.000 141.000,242.000" stroke-width="10.974" stroke="rgb(33,33,33)" fill="none" stroke-linecap="round"></path><path d="M 141.000,242.000 C 141.000,247.500 141.000,247.500 141.000,253.000" stroke-width="11.165" stroke="rgb(33,33,33)" fill="none" stroke-linecap="round"></path><path d="M 141.000,253.000 C 141.000,257.000 141.000,257.000 141.000,261.000" stroke-width="11.604" stroke="rgb(33,33,33)" fill="none" stroke-linecap="round"></path><path d="M 141.000,261.000 C 141.000,263.500 141.345,263.582 141.000,266.000" stroke-width="12.236" stroke="rgb(33,33,33)" fill="none" stroke-linecap="round"></path><path d="M 141.000,266.000 C 140.845,267.082 140.345,266.964 140.000,268.000" stroke-width="13.062" stroke="rgb(33,33,33)" fill="none" stroke-linecap="round"></path><path d="M 140.000,268.000 C 139.845,268.464 140.000,269.000 140.000,269.000" stroke-width="13.940" stroke="rgb(33,33,33)" fill="none" stroke-linecap="round"></path><path d="M 140.000,269.000 C 140.000,269.000 140.000,268.500 140.000,268.000" stroke-width="14.856" stroke="rgb(33,33,33)" fill="none" stroke-linecap="round"></path><path d="M 140.000,268.000 C 140.000,267.500 140.000,267.500 140.000,267.000" stroke-width="15.558" stroke="rgb(33,33,33)" fill="none" stroke-linecap="round"></path><path d="M 140.000,267.000 C 140.000,266.500 140.000,266.500 140.000,266.000" stroke-width="16.128" stroke="rgb(33,33,33)" fill="none" stroke-linecap="round"></path><path d="M 140.000,266.000 C 140.000,265.500 140.250,265.250 140.000,265.000" stroke-width="16.757" stroke="rgb(33,33,33)" fill="none" stroke-linecap="round"></path><path d="M 140.000,265.000 C 139.750,264.750 139.250,265.250 139.000,265.000" stroke-width="17.321" stroke="rgb(33,33,33)" fill="none" stroke-linecap="round"></path><path d="M 139.000,265.000 C 138.750,264.750 139.000,264.500 139.000,264.000" stroke-width="17.745" stroke="rgb(33,33,33)" fill="none" stroke-linecap="round"></path><path d="M 139.000,264.000 C 139.000,262.500 138.757,262.460 139.000,261.000" stroke-width="17.894" stroke="rgb(33,33,33)" fill="none" stroke-linecap="round"></path><path d="M 139.000,261.000 C 139.257,259.460 139.445,259.480 140.000,258.000" stroke-width="17.724" stroke="rgb(33,33,33)" fill="none" stroke-linecap="round"></path><path d="M 140.000,258.000 C 140.945,255.480 140.799,255.403 142.000,253.000" stroke-width="17.199" stroke="rgb(33,33,33)" fill="none" stroke-linecap="round"></path><path d="M 142.000,253.000 C 143.799,249.403 144.104,249.556 146.000,246.000" stroke-width="16.295" stroke="rgb(33,33,33)" fill="none" stroke-linecap="round"></path><path d="M 146.000,246.000 C 148.104,242.056 148.267,242.115 150.000,238.000" stroke-width="15.506" stroke="rgb(33,33,33)" fill="none" stroke-linecap="round"></path><path d="M 150.000,238.000 C 152.267,232.615 152.298,232.591 154.000,227.000" stroke-width="14.648" stroke="rgb(33,33,33)" fill="none" stroke-linecap="round"></path><path d="M 154.000,227.000 C 155.798,221.091 155.270,220.933 157.000,215.000" stroke-width="13.864" stroke="rgb(33,33,33)" fill="none" stroke-linecap="round"></path><path d="M 157.000,215.000 C 158.770,208.933 159.470,209.122 161.000,203.000" stroke-width="13.419" stroke="rgb(33,33,33)" fill="none" stroke-linecap="round"></path><path d="M 161.000,203.000 C 162.970,195.122 162.453,194.991 164.000,187.000" stroke-width="12.572" stroke="rgb(33,33,33)" fill="none" stroke-linecap="round"></path><path d="M 164.000,187.000 C 165.453,179.491 165.820,179.551 167.000,172.000" stroke-width="12.055" stroke="rgb(33,33,33)" fill="none" stroke-linecap="round"></path><path d="M 167.000,172.000 C 168.320,163.551 168.000,163.500 169.000,155.000" stroke-width="11.678" stroke="rgb(33,33,33)" fill="none" stroke-linecap="round"></path><path d="M 169.000,155.000 C 170.000,146.500 170.526,146.531 171.000,138.000" stroke-width="11.243" stroke="rgb(33,33,33)" fill="none" stroke-linecap="round"></path><path d="M 171.000,138.000 C 171.526,128.531 171.000,128.500 171.000,119.000" stroke-width="10.861" stroke="rgb(33,33,33)" fill="none" stroke-linecap="round"></path><path d="M 171.000,119.000 C 171.000,109.000 171.000,109.000 171.000,99.000" stroke-width="10.509" stroke="rgb(33,33,33)" fill="none" stroke-linecap="round"></path><path d="M 171.000,99.000 C 171.000,89.000 171.000,89.000 171.000,79.000" stroke-width="10.168" stroke="rgb(33,33,33)" fill="none" stroke-linecap="round"></path><path d="M 171.000,79.000 C 171.000,69.500 171.000,69.500 171.000,60.000" stroke-width="10.041" stroke="rgb(33,33,33)" fill="none" stroke-linecap="round"></path><path d="M 171.000,60.000 C 171.000,53.000 171.000,53.000 171.000,46.000" stroke-width="10.184" stroke="rgb(33,33,33)" fill="none" stroke-linecap="round"></path><path d="M 171.000,46.000 C 171.000,39.000 171.000,39.000 171.000,32.000" stroke-width="10.356" stroke="rgb(33,33,33)" fill="none" stroke-linecap="round"></path><path d="M 171.000,32.000 C 171.000,27.500 170.702,27.475 171.000,23.000" stroke-width="10.828" stroke="rgb(33,33,33)" fill="none" stroke-linecap="round"></path><path d="M 171.000,23.000 C 171.202,19.975 171.665,20.014 172.000,17.000" stroke-width="11.426" stroke="rgb(33,33,33)" fill="none" stroke-linecap="round"></path><path d="M 172.000,17.000 C 172.165,15.514 171.625,15.125 172.000,14.000" stroke-width="12.250" stroke="rgb(33,33,33)" fill="none" stroke-linecap="round"></path><path d="M 172.000,14.000 C 172.125,13.625 172.750,13.750 173.000,14.000" stroke-width="13.199" stroke="rgb(33,33,33)" fill="none" stroke-linecap="round"></path><path d="M 173.000,14.000 C 173.250,14.250 172.962,14.502 173.000,15.000" stroke-width="14.071" stroke="rgb(33,33,33)" fill="none" stroke-linecap="round"></path><path d="M 173.000,15.000 C 173.462,21.002 173.520,20.998 174.000,27.000" stroke-width="13.484" stroke="rgb(33,33,33)" fill="none" stroke-linecap="round"></path><path d="M 174.000,27.000 C 174.520,33.498 174.566,33.495 175.000,40.000" stroke-width="13.024" stroke="rgb(33,33,33)" fill="none" stroke-linecap="round"></path><path d="M 175.000,40.000 C 175.566,48.495 175.273,48.519 176.000,57.000" stroke-width="12.223" stroke="rgb(33,33,33)" fill="none" stroke-linecap="round"></path><path d="M 176.000,57.000 C 176.773,66.019 176.819,66.024 178.000,75.000" stroke-width="11.648" stroke="rgb(33,33,33)" fill="none" stroke-linecap="round"></path><path d="M 178.000,75.000 C 179.319,85.024 179.884,84.956 181.000,95.000" stroke-width="11.073" stroke="rgb(33,33,33)" fill="none" stroke-linecap="round"></path><path d="M 181.000,95.000 C 182.384,107.456 182.234,107.486 183.000,120.000" stroke-width="10.246" stroke="rgb(33,33,33)" fill="none" stroke-linecap="round"></path><path d="M 183.000,120.000 C 183.734,131.986 183.760,131.995 184.000,144.000" stroke-width="9.812" stroke="rgb(33,33,33)" fill="none" stroke-linecap="round"></path><path d="M 184.000,144.000 C 184.260,156.995 183.745,157.005 184.000,170.000" stroke-width="9.388" stroke="rgb(33,33,33)" fill="none" stroke-linecap="round"></path><path d="M 184.000,170.000 C 184.245,182.505 184.709,182.496 185.000,195.000" stroke-width="9.047" stroke="rgb(33,33,33)" fill="none" stroke-linecap="round"></path><path d="M 185.000,195.000 C 185.209,203.996 185.000,204.000 185.000,213.000" stroke-width="9.195" stroke="rgb(33,33,33)" fill="none" stroke-linecap="round"></path><path d="M 185.000,213.000 C 185.000,220.500 185.000,220.500 185.000,228.000" stroke-width="9.470" stroke="rgb(33,33,33)" fill="none" stroke-linecap="round"></path><path d="M 185.000,228.000 C 185.000,233.000 185.613,233.099 185.000,238.000" stroke-width="9.984" stroke="rgb(33,33,33)" fill="none" stroke-linecap="round"></path><path d="M 185.000,238.000 C 184.613,241.099 183.908,240.973 183.000,244.000" stroke-width="10.698" stroke="rgb(33,33,33)" fill="none" stroke-linecap="round"></path><path d="M 183.000,244.000 C 182.408,245.973 182.402,245.988 182.000,248.000" stroke-width="11.445" stroke="rgb(33,33,33)" fill="none" stroke-linecap="round"></path><path d="M 182.000,248.000 C 181.902,248.488 182.250,248.750 182.000,249.000" stroke-width="12.444" stroke="rgb(33,33,33)" fill="none" stroke-linecap="round"></path><path d="M 182.000,249.000 C 181.750,249.250 181.309,249.309 181.000,249.000" stroke-width="13.373" stroke="rgb(33,33,33)" fill="none" stroke-linecap="round"></path><path d="M 181.000,249.000 C 180.309,248.309 180.320,248.067 180.000,247.000" stroke-width="14.085" stroke="rgb(33,33,33)" fill="none" stroke-linecap="round"></path><path d="M 180.000,247.000 C 178.820,243.067 178.849,243.033 178.000,239.000" stroke-width="13.993" stroke="rgb(33,33,33)" fill="none" stroke-linecap="round"></path><path d="M 178.000,239.000 C 176.849,233.533 177.187,233.460 176.000,228.000" stroke-width="13.522" stroke="rgb(33,33,33)" fill="none" stroke-linecap="round"></path><path d="M 176.000,228.000 C 174.687,221.960 174.260,222.050 173.000,216.000" stroke-width="13.119" stroke="rgb(33,33,33)" fill="none" stroke-linecap="round"></path><path d="M 173.000,216.000 C 171.760,210.050 171.465,210.044 171.000,204.000" stroke-width="12.833" stroke="rgb(33,33,33)" fill="none" stroke-linecap="round"></path><path d="M 171.000,204.000 C 170.465,197.044 171.000,197.000 171.000,190.000" stroke-width="12.367" stroke="rgb(33,33,33)" fill="none" stroke-linecap="round"></path><path d="M 171.000,190.000 C 171.000,182.000 171.000,182.000 171.000,174.000" stroke-width="11.925" stroke="rgb(33,33,33)" fill="none" stroke-linecap="round"></path><path d="M 171.000,174.000 C 171.000,165.500 170.717,165.489 171.000,157.000" stroke-width="11.434" stroke="rgb(33,33,33)" fill="none" stroke-linecap="round"></path><path d="M 171.000,157.000 C 171.217,150.489 170.974,150.415 172.000,144.000" stroke-width="11.439" stroke="rgb(33,33,33)" fill="none" stroke-linecap="round"></path><path d="M 172.000,144.000 C 172.974,137.915 172.969,137.803 175.000,132.000" stroke-width="11.495" stroke="rgb(33,33,33)" fill="none" stroke-linecap="round"></path><path d="M 175.000,132.000 C 176.469,127.803 176.598,127.737 179.000,124.000" stroke-width="11.811" stroke="rgb(33,33,33)" fill="none" stroke-linecap="round"></path><path d="M 179.000,124.000 C 181.098,120.737 181.041,120.421 184.000,118.000" stroke-width="12.131" stroke="rgb(33,33,33)" fill="none" stroke-linecap="round"></path><path d="M 184.000,118.000 C 186.541,115.921 186.949,116.387 190.000,115.000" stroke-width="12.544" stroke="rgb(33,33,33)" fill="none" stroke-linecap="round"></path><path d="M 190.000,115.000 C 192.449,113.887 192.418,113.574 195.000,113.000" stroke-width="12.991" stroke="rgb(33,33,33)" fill="none" stroke-linecap="round"></path><path d="M 195.000,113.000 C 196.918,112.574 197.016,112.802 199.000,113.000" stroke-width="13.553" stroke="rgb(33,33,33)" fill="none" stroke-linecap="round"></path><path d="M 199.000,113.000 C 202.016,113.302 202.850,112.280 205.000,114.000" stroke-width="13.805" stroke="rgb(33,33,33)" fill="none" stroke-linecap="round"></path><path d="M 205.000,114.000 C 207.850,116.280 207.369,117.329 209.000,121.000" stroke-width="13.791" stroke="rgb(33,33,33)" fill="none" stroke-linecap="round"></path><path d="M 209.000,121.000 C 211.369,126.329 211.529,126.361 213.000,132.000" stroke-width="13.314" stroke="rgb(33,33,33)" fill="none" stroke-linecap="round"></path><path d="M 213.000,132.000 C 214.529,137.861 214.517,137.957 215.000,144.000" stroke-width="12.982" stroke="rgb(33,33,33)" fill="none" stroke-linecap="round"></path><path d="M 215.000,144.000 C 215.517,150.457 215.000,150.500 215.000,157.000" stroke-width="12.649" stroke="rgb(33,33,33)" fill="none" stroke-linecap="round"></path><path d="M 215.000,157.000 C 215.000,164.000 215.000,164.000 215.000,171.000" stroke-width="12.307" stroke="rgb(33,33,33)" fill="none" stroke-linecap="round"></path><path d="M 215.000,171.000 C 215.000,179.500 215.498,179.529 215.000,188.000" stroke-width="11.875" stroke="rgb(33,33,33)" fill="none" stroke-linecap="round"></path><path d="M 215.000,188.000 C 214.498,196.529 214.485,196.585 213.000,205.000" stroke-width="11.298" stroke="rgb(33,33,33)" fill="none" stroke-linecap="round"></path><path d="M 213.000,205.000 C 211.485,213.585 211.118,213.530 209.000,222.000" stroke-width="10.933" stroke="rgb(33,33,33)" fill="none" stroke-linecap="round"></path><path d="M 209.000,222.000 C 207.118,229.530 207.767,229.806 205.000,237.000" stroke-width="10.861" stroke="rgb(33,33,33)" fill="none" stroke-linecap="round"></path><path d="M 205.000,237.000 C 202.767,242.806 202.042,242.524 199.000,248.000" stroke-width="11.012" stroke="rgb(33,33,33)" fill="none" stroke-linecap="round"></path><path d="M 199.000,248.000 C 197.042,251.524 196.910,251.452 195.000,255.000" stroke-width="11.467" stroke="rgb(33,33,33)" fill="none" stroke-linecap="round"></path><path d="M 195.000,255.000 C 193.410,257.952 193.719,258.135 192.000,261.000" stroke-width="11.935" stroke="rgb(33,33,33)" fill="none" stroke-linecap="round"></path><path d="M 192.000,261.000 C 190.719,263.135 190.743,263.257 189.000,265.000" stroke-width="12.530" stroke="rgb(33,33,33)" fill="none" stroke-linecap="round"></path><path d="M 189.000,265.000 C 187.743,266.257 187.543,266.074 186.000,267.000" stroke-width="13.189" stroke="rgb(33,33,33)" fill="none" stroke-linecap="round"></path><path d="M 186.000,267.000 C 185.043,267.574 184.691,268.000 184.000,268.000" stroke-width="13.906" stroke="rgb(33,33,33)" fill="none" stroke-linecap="round"></path><path d="M 184.000,268.000 C 183.691,268.000 184.000,267.500 184.000,267.000" stroke-width="14.830" stroke="rgb(33,33,33)" fill="none" stroke-linecap="round"></path><path d="M 184.000,267.000 C 184.000,266.500 183.793,266.414 184.000,266.000" stroke-width="15.536" stroke="rgb(33,33,33)" fill="none" stroke-linecap="round"></path><path d="M 184.000,266.000 C 184.293,265.414 184.691,265.618 185.000,265.000" stroke-width="16.127" stroke="rgb(33,33,33)" fill="none" stroke-linecap="round"></path><path d="M 185.000,265.000 C 185.691,263.618 185.414,263.464 186.000,262.000" stroke-width="15.973" stroke="rgb(33,33,33)" fill="none" stroke-linecap="round"></path><path d="M 186.000,262.000 C 186.414,260.964 186.500,261.000 187.000,260.000" stroke-width="16.302" stroke="rgb(33,33,33)" fill="none" stroke-linecap="round"></path><path d="M 187.000,260.000 C 188.000,258.000 188.419,258.131 189.000,256.000" stroke-width="16.102" stroke="rgb(33,33,33)" fill="none" stroke-linecap="round"></path><path d="M 189.000,256.000 C 189.919,252.631 189.308,252.462 190.000,249.000" stroke-width="15.707" stroke="rgb(33,33,33)" fill="none" stroke-linecap="round"></path><path d="M 190.000,249.000 C 190.808,244.962 191.151,245.033 192.000,241.000" stroke-width="15.174" stroke="rgb(33,33,33)" fill="none" stroke-linecap="round"></path><path d="M 192.000,241.000 C 193.151,235.533 192.813,235.460 194.000,230.000" stroke-width="14.473" stroke="rgb(33,33,33)" fill="none" stroke-linecap="round"></path><path d="M 194.000,230.000 C 195.313,223.960 195.610,224.025 197.000,218.000" stroke-width="13.824" stroke="rgb(33,33,33)" fill="none" stroke-linecap="round"></path><path d="M 197.000,218.000 C 198.610,211.025 197.972,210.843 200.000,204.000" stroke-width="13.147" stroke="rgb(33,33,33)" fill="none" stroke-linecap="round"></path><path d="M 200.000,204.000 C 201.972,197.343 202.414,197.465 205.000,191.000" stroke-width="12.760" stroke="rgb(33,33,33)" fill="none" stroke-linecap="round"></path><path d="M 205.000,191.000 C 207.414,184.965 207.500,185.000 210.000,179.000" stroke-width="12.233" stroke="rgb(33,33,33)" fill="none" stroke-linecap="round"></path><path d="M 210.000,179.000 C 212.500,173.000 212.440,172.974 215.000,167.000" stroke-width="12.074" stroke="rgb(33,33,33)" fill="none" stroke-linecap="round"></path><path d="M 215.000,167.000 C 216.940,162.474 216.691,162.330 219.000,158.000" stroke-width="12.264" stroke="rgb(33,33,33)" fill="none" stroke-linecap="round"></path><path d="M 219.000,158.000 C 220.691,154.830 220.758,154.802 223.000,152.000" stroke-width="12.569" stroke="rgb(33,33,33)" fill="none" stroke-linecap="round"></path><path d="M 223.000,152.000 C 224.758,149.802 224.862,149.832 227.000,148.000" stroke-width="12.984" stroke="rgb(33,33,33)" fill="none" stroke-linecap="round"></path><path d="M 227.000,148.000 C 228.362,146.832 228.392,146.643 230.000,146.000" stroke-width="13.590" stroke="rgb(33,33,33)" fill="none" stroke-linecap="round"></path><path d="M 230.000,146.000 C 230.892,145.643 231.000,146.000 232.000,146.000" stroke-width="14.305" stroke="rgb(33,33,33)" fill="none" stroke-linecap="round"></path><path d="M 232.000,146.000 C 233.000,146.000 233.519,145.279 234.000,146.000" stroke-width="14.917" stroke="rgb(33,33,33)" fill="none" stroke-linecap="round"></path><path d="M 234.000,146.000 C 235.519,148.279 235.483,148.901 236.000,152.000" stroke-width="14.885" stroke="rgb(33,33,33)" fill="none" stroke-linecap="round"></path><path d="M 236.000,152.000 C 236.983,157.901 236.254,158.031 237.000,164.000" stroke-width="14.161" stroke="rgb(33,33,33)" fill="none" stroke-linecap="round"></path><path d="M 237.000,164.000 C 237.754,170.031 238.222,169.970 239.000,176.000" stroke-width="13.617" stroke="rgb(33,33,33)" fill="none" stroke-linecap="round"></path><path d="M 239.000,176.000 C 240.222,185.470 240.228,185.482 241.000,195.000" stroke-width="12.435" stroke="rgb(33,33,33)" fill="none" stroke-linecap="round"></path><path d="M 241.000,195.000 C 241.728,203.982 241.513,203.999 242.000,213.000" stroke-width="11.808" stroke="rgb(33,33,33)" fill="none" stroke-linecap="round"></path><path d="M 242.000,213.000 C 242.513,222.499 242.472,222.502 243.000,232.000" stroke-width="11.277" stroke="rgb(33,33,33)" fill="none" stroke-linecap="round"></path><path d="M 243.000,232.000 C 243.472,240.502 243.707,240.494 244.000,249.000" stroke-width="10.949" stroke="rgb(33,33,33)" fill="none" stroke-linecap="round"></path><path d="M 244.000,249.000 C 244.207,254.994 244.000,255.000 244.000,261.000" stroke-width="11.122" stroke="rgb(33,33,33)" fill="none" stroke-linecap="round"></path><path d="M 244.000,261.000 C 244.000,265.500 244.000,265.500 244.000,270.000" stroke-width="11.489" stroke="rgb(33,33,33)" fill="none" stroke-linecap="round"></path><path d="M 244.000,270.000 C 244.000,273.000 244.000,273.000 244.000,276.000" stroke-width="12.018" stroke="rgb(33,33,33)" fill="none" stroke-linecap="round"></path><path d="M 244.000,276.000 C 244.000,278.000 244.369,278.153 244.000,280.000" stroke-width="12.716" stroke="rgb(33,33,33)" fill="none" stroke-linecap="round"></path><path d="M 244.000,280.000 C 243.869,280.653 243.586,280.707 243.000,281.000" stroke-width="13.576" stroke="rgb(33,33,33)" fill="none" stroke-linecap="round"></path><path d="M 243.000,281.000 C 242.586,281.207 242.309,281.309 242.000,281.000" stroke-width="14.405" stroke="rgb(33,33,33)" fill="none" stroke-linecap="round"></path><path d="M 242.000,281.000 C 241.309,280.309 241.084,280.098 241.000,279.000" stroke-width="14.989" stroke="rgb(33,33,33)" fill="none" stroke-linecap="round"></path><path d="M 241.000,279.000 C 240.584,273.598 241.475,273.461 241.000,268.000" stroke-width="14.360" stroke="rgb(33,33,33)" fill="none" stroke-linecap="round"></path><path d="M 241.000,268.000 C 240.475,261.961 239.831,262.024 239.000,256.000" stroke-width="13.681" stroke="rgb(33,33,33)" fill="none" stroke-linecap="round"></path><path d="M 239.000,256.000 C 237.831,247.524 238.000,247.500 237.000,239.000" stroke-width="12.772" stroke="rgb(33,33,33)" fill="none" stroke-linecap="round"></path><path d="M 237.000,239.000 C 236.000,230.500 236.000,230.500 235.000,222.000" stroke-width="12.127" stroke="rgb(33,33,33)" fill="none" stroke-linecap="round"></path><path d="M 235.000,222.000 C 234.000,213.500 233.799,213.519 233.000,205.000" stroke-width="11.656" stroke="rgb(33,33,33)" fill="none" stroke-linecap="round"></path><path d="M 233.000,205.000 C 232.299,197.519 232.259,197.508 232.000,190.000" stroke-width="11.391" stroke="rgb(33,33,33)" fill="none" stroke-linecap="round"></path><path d="M 232.000,190.000 C 231.759,183.008 232.000,183.000 232.000,176.000" stroke-width="11.333" stroke="rgb(33,33,33)" fill="none" stroke-linecap="round"></path><path d="M 232.000,176.000 C 232.000,171.000 232.000,171.000 232.000,166.000" stroke-width="11.542" stroke="rgb(33,33,33)" fill="none" stroke-linecap="round"></path><path d="M 232.000,166.000 C 232.000,162.500 232.000,162.500 232.000,159.000" stroke-width="12.011" stroke="rgb(33,33,33)" fill="none" stroke-linecap="round"></path><path d="M 232.000,159.000 C 232.000,156.500 231.081,155.838 232.000,154.000" stroke-width="12.597" stroke="rgb(33,33,33)" fill="none" stroke-linecap="round"></path><path d="M 232.000,154.000 C 232.581,152.838 233.460,153.257 235.000,153.000" stroke-width="13.294" stroke="rgb(33,33,33)" fill="none" stroke-linecap="round"></path><path d="M 235.000,153.000 C 236.460,152.757 236.875,152.250 238.000,153.000" stroke-width="13.907" stroke="rgb(33,33,33)" fill="none" stroke-linecap="round"></path><path d="M 238.000,153.000 C 239.875,154.250 239.821,154.811 241.000,157.000" stroke-width="14.187" stroke="rgb(33,33,33)" fill="none" stroke-linecap="round"></path><path d="M 241.000,157.000 C 243.321,161.311 243.249,161.403 245.000,166.000" stroke-width="13.891" stroke="rgb(33,33,33)" fill="none" stroke-linecap="round"></path><path d="M 245.000,166.000 C 247.249,171.903 247.073,171.977 249.000,178.000" stroke-width="13.366" stroke="rgb(33,33,33)" fill="none" stroke-linecap="round"></path><path d="M 249.000,178.000 C 251.073,184.477 251.068,184.480 253.000,191.000" stroke-width="12.881" stroke="rgb(33,33,33)" fill="none" stroke-linecap="round"></path><path d="M 253.000,191.000 C 255.068,197.980 254.932,198.020 257.000,205.000" stroke-width="12.350" stroke="rgb(33,33,33)" fill="none" stroke-linecap="round"></path><path d="M 257.000,205.000 C 258.932,211.520 259.167,211.453 261.000,218.000" stroke-width="12.113" stroke="rgb(33,33,33)" fill="none" stroke-linecap="round"></path><path d="M 261.000,218.000 C 262.667,223.953 262.789,223.946 264.000,230.000" stroke-width="12.033" stroke="rgb(33,33,33)" fill="none" stroke-linecap="round"></path><path d="M 264.000,230.000 C 264.789,233.946 264.749,233.984 265.000,238.000" stroke-width="12.294" stroke="rgb(33,33,33)" fill="none" stroke-linecap="round"></path><path d="M 265.000,238.000 C 265.249,241.984 264.716,242.024 265.000,246.000" stroke-width="12.564" stroke="rgb(33,33,33)" fill="none" stroke-linecap="round"></path><path d="M 265.000,246.000 C 265.216,249.024 265.698,248.984 266.000,252.000" stroke-width="12.972" stroke="rgb(33,33,33)" fill="none" stroke-linecap="round"></path><path d="M 266.000,252.000 C 266.198,253.984 266.000,254.000 266.000,256.000" stroke-width="13.561" stroke="rgb(33,33,33)" fill="none" stroke-linecap="round"></path><path d="M 266.000,256.000 C 266.000,257.000 266.000,258.333 266.000,258.000" stroke-width="14.279" stroke="rgb(33,33,33)" fill="none" stroke-linecap="round"></path><path d="M 266.000,258.000 C 266.000,257.333 266.000,256.000 266.000,254.000" stroke-width="14.987" stroke="rgb(33,33,33)" fill="none" stroke-linecap="round"></path><path d="M 266.000,254.000 C 266.000,248.000 266.637,247.941 266.000,242.000" stroke-width="14.239" stroke="rgb(33,33,33)" fill="none" stroke-linecap="round"></path><path d="M 266.000,242.000 C 265.137,233.941 264.414,234.015 263.000,226.000" stroke-width="13.242" stroke="rgb(33,33,33)" fill="none" stroke-linecap="round"></path><path d="M 263.000,226.000 C 261.414,217.015 260.777,217.060 260.000,208.000" stroke-width="12.262" stroke="rgb(33,33,33)" fill="none" stroke-linecap="round"></path><path d="M 260.000,208.000 C 259.277,199.560 260.000,199.500 260.000,191.000" stroke-width="11.765" stroke="rgb(33,33,33)" fill="none" stroke-linecap="round"></path><path d="M 260.000,191.000 C 260.000,182.500 260.000,182.500 260.000,174.000" stroke-width="11.316" stroke="rgb(33,33,33)" fill="none" stroke-linecap="round"></path><path d="M 260.000,174.000 C 260.000,166.500 259.723,166.488 260.000,159.000" stroke-width="11.261" stroke="rgb(33,33,33)" fill="none" stroke-linecap="round"></path><path d="M 260.000,159.000 C 260.223,152.988 259.383,152.660 261.000,147.000" stroke-width="11.319" stroke="rgb(33,33,33)" fill="none" stroke-linecap="round"></path><path d="M 261.000,147.000 C 262.383,142.160 263.814,142.645 266.000,138.000" stroke-width="11.556" stroke="rgb(33,33,33)" fill="none" stroke-linecap="round"></path><path d="M 266.000,138.000 C 267.814,134.145 266.894,133.610 269.000,130.000" stroke-width="11.851" stroke="rgb(33,33,33)" fill="none" stroke-linecap="round"></path><path d="M 269.000,130.000 C 270.394,127.610 270.862,127.832 273.000,126.000" stroke-width="12.396" stroke="rgb(33,33,33)" fill="none" stroke-linecap="round"></path><path d="M 273.000,126.000 C 274.362,124.832 274.362,124.546 276.000,124.000" stroke-width="13.071" stroke="rgb(33,33,33)" fill="none" stroke-linecap="round"></path><path d="M 276.000,124.000 C 277.362,123.546 277.500,124.000 279.000,124.000" stroke-width="13.711" stroke="rgb(33,33,33)" fill="none" stroke-linecap="round"></path><path d="M 279.000,124.000 C 280.000,124.000 280.349,123.349 281.000,124.000" stroke-width="14.412" stroke="rgb(33,33,33)" fill="none" stroke-linecap="round"></path><path d="M 281.000,124.000 C 283.349,126.349 283.644,126.707 285.000,130.000" stroke-width="14.373" stroke="rgb(33,33,33)" fill="none" stroke-linecap="round"></path><path d="M 285.000,130.000 C 287.144,135.207 286.561,135.484 288.000,141.000" stroke-width="13.779" stroke="rgb(33,33,33)" fill="none" stroke-linecap="round"></path><path d="M 288.000,141.000 C 289.561,146.984 289.557,146.986 291.000,153.000" stroke-width="13.312" stroke="rgb(33,33,33)" fill="none" stroke-linecap="round"></path><path d="M 291.000,153.000 C 292.557,159.486 292.829,159.440 294.000,166.000" stroke-width="12.866" stroke="rgb(33,33,33)" fill="none" stroke-linecap="round"></path><path d="M 294.000,166.000 C 295.329,173.440 295.248,173.475 296.000,181.000" stroke-width="12.285" stroke="rgb(33,33,33)" fill="none" stroke-linecap="round"></path><path d="M 296.000,181.000 C 296.748,188.475 296.516,188.499 297.000,196.000" stroke-width="11.943" stroke="rgb(33,33,33)" fill="none" stroke-linecap="round"></path><path d="M 297.000,196.000 C 297.516,203.999 297.449,204.004 298.000,212.000" stroke-width="11.605" stroke="rgb(33,33,33)" fill="none" stroke-linecap="round"></path><path d="M 298.000,212.000 C 298.449,218.504 298.759,218.490 299.000,225.000" stroke-width="11.512" stroke="rgb(33,33,33)" fill="none" stroke-linecap="round"></path><path d="M 299.000,225.000 C 299.259,231.990 298.721,232.013 299.000,239.000" stroke-width="11.428" stroke="rgb(33,33,33)" fill="none" stroke-linecap="round"></path><path d="M 299.000,239.000 C 299.221,244.513 299.390,244.513 300.000,250.000" stroke-width="11.588" stroke="rgb(33,33,33)" fill="none" stroke-linecap="round"></path><path d="M 300.000,250.000 C 300.390,253.513 300.462,253.506 301.000,257.000" stroke-width="12.008" stroke="rgb(33,33,33)" fill="none" stroke-linecap="round"></path><path d="M 301.000,257.000 C 301.462,260.006 301.665,259.986 302.000,263.000" stroke-width="12.526" stroke="rgb(33,33,33)" fill="none" stroke-linecap="round"></path><path d="M 302.000,263.000 C 302.165,264.486 301.660,264.641 302.000,266.000" stroke-width="13.247" stroke="rgb(33,33,33)" fill="none" stroke-linecap="round"></path><path d="M 302.000,266.000 C 302.160,266.641 302.707,266.414 303.000,267.000" stroke-width="14.045" stroke="rgb(33,33,33)" fill="none" stroke-linecap="round"></path></svg>