<svg xmlns="http://www.w3.org/2000/svg" xmlns:xlink="http://www.w3.org/1999/xlink" viewBox="0 0 800 500"><path d="M 297.500,147.000 C 296.500,147.000 296.000,146.500 295.500,147.000" stroke-width="20.044" stroke="rgb(33,33,33)" fill="none" stroke-linecap="round"></path><path d="M 295.500,147.000 C 295.000,147.500 295.500,148.000 295.500,149.000" stroke-width="19.136" stroke="rgb(33,33,33)" fill="none" stroke-linecap="round"></path><path d="M 295.500,149.000 C 295.500,151.000 295.500,151.000 295.500,153.000" stroke-width="17.661" stroke="rgb(33,33,33)" fill="none" stroke-linecap="round"></path><path d="M 295.500,153.000 C 295.500,154.500 295.500,154.500 295.500,156.000" stroke-width="16.985" stroke="rgb(33,33,33)" fill="none" stroke-linecap="round"></path><path d="M 295.500,156.000 C 295.500,159.000 295.500,159.000 295.500,162.000" stroke-width="15.532" stroke="rgb(33,33,33)" fill="none" stroke-linecap="round"></path><path d="M 295.500,162.000 C 295.500,164.500 295.500,164.500 295.500,167.000" stroke-width="14.802" stroke="rgb(33,33,33)" fill="none" stroke-linecap="round"></path><path d="M 295.500,167.000 C 295.500,169.000 295.500,169.000 295.500,171.000" stroke-width="14.522" stroke="rgb(33,33,33)" fill="none" stroke-linecap="round"></path><path d="M 295.500,171.000 C 295.500,173.000 295.500,173.000 295.500,175.000" stroke-width="14.305" stroke="rgb(33,33,33)" fill="none" stroke-linecap="round"></path><path d="M 295.500,175.000 C 295.500,177.000 295.500,177.000 295.500,179.000" stroke-width="14.137" stroke="rgb(33,33,33)" fill="none" stroke-linecap="round"></path><path d="M 295.500,179.000 C 295.500,180.500 295.500,180.500 295.500,182.000" stroke-width="14.251" stroke="rgb(33,33,33)" fill="none" stroke-linecap="round"></path><path d="M 295.500,182.000 C 295.500,183.500 295.500,183.500 295.500,185.000" stroke-width="14.429" stroke="rgb(33,33,33)" fill="none" stroke-linecap="round"></path><path d="M 295.500,185.000 C 295.500,185.500 295.500,185.500 295.500,186.000" stroke-width="14.985" stroke="rgb(33,33,33)" fill="none" stroke-linecap="round"></path><path d="M 295.500,186.000 C 295.500,186.500 295.500,186.500 295.500,187.000" stroke-width="15.505" stroke="rgb(33,33,33)" fill="none" stroke-linecap="round"></path><path d="M 295.500,187.000 C 295.500,187.500 295.500,187.500 295.500,188.000" stroke-width="15.947" stroke="rgb(33,33,33)" fill="none" stroke-linecap="round"></path><path d="M 295.500,188.000 C 295.500,188.500 295.500,189.000 295.500,189.000" stroke-width="16.319" stroke="rgb(33,33,33)" fill="none" stroke-linecap="round"></path><path d="M 295.500,189.000 C 295.500,189.000 295.500,188.500 295.500,188.000" stroke-width="16.928" stroke="rgb(33,33,33)" fill="none" stroke-linecap="round"></path><path d="M 295.500,188.000 C 295.500,186.000 295.074,185.918 295.500,184.000" stroke-width="16.110" stroke="rgb(33,33,33)" fill="none" stroke-linecap="round"></path><path d="M 295.500,184.000 C 296.074,181.418 296.852,181.594 297.500,179.000" stroke-width="15.109" stroke="rgb(33,33,33)" fill="none" stroke-linecap="round"></path><path d="M 297.500,179.000 C 298.352,175.594 298.000,175.500 298.500,172.000" stroke-width="13.975" stroke="rgb(33,33,33)" fill="none" stroke-linecap="round"></path><path d="M 298.500,172.000 C 299.000,168.500 298.692,168.432 299.500,165.000" stroke-width="13.184" stroke="rgb(33,33,33)" fill="none" stroke-linecap="round"></path><path d="M 299.500,165.000 C 300.692,159.932 300.765,159.915 302.500,155.000" stroke-width="11.984" stroke="rgb(33,33,33)" fill="none" stroke-linecap="round"></path><path d="M 302.500,155.000 C 303.765,151.415 304.852,151.675 305.500,148.000" stroke-width="11.623" stroke="rgb(33,33,33)" fill="none" stroke-linecap="round"></path><path d="M 305.500,148.000 C 306.352,143.175 304.850,142.875 305.500,138.000" stroke-width="10.983" stroke="rgb(33,33,33)" fill="none" stroke-linecap="round"></path><path d="M 305.500,138.000 C 305.850,135.375 306.300,135.401 307.500,133.000" stroke-width="11.190" stroke="rgb(33,33,33)" fill="none" stroke-linecap="round"></path><path d="M 307.500,133.000 C 308.800,130.401 309.433,130.667 310.500,128.000" stroke-width="11.291" stroke="rgb(33,33,33)" fill="none" stroke-linecap="round"></path><path d="M 310.500,128.000 C 311.433,125.667 310.664,125.090 311.500,123.000" stroke-width="11.491" stroke="rgb(33,33,33)" fill="none" stroke-linecap="round"></path><path d="M 311.500,123.000 C 311.664,122.590 312.250,123.250 312.500,123.000" stroke-width="12.387" stroke="rgb(33,33,33)" fill="none" stroke-linecap="round"></path><path d="M 312.500,123.000 C 312.750,122.750 312.500,122.000 312.500,122.000" stroke-width="13.211" stroke="rgb(33,33,33)" fill="none" stroke-linecap="round"></path><path d="M 312.500,122.000 C 312.500,122.000 312.500,122.500 312.500,123.000" stroke-width="14.156" stroke="rgb(33,33,33)" fill="none" stroke-linecap="round"></path><path d="M 312.500,123.000 C 312.500,124.500 312.500,124.500 312.500,126.000" stroke-width="14.267" stroke="rgb(33,33,33)" fill="none" stroke-linecap="round"></path><path d="M 312.500,126.000 C 312.500,127.000 312.500,127.000 312.500,128.000" stroke-width="14.616" stroke="rgb(33,33,33)" fill="none" stroke-linecap="round"></path><path d="M 312.500,128.000 C 312.500,130.000 312.500,130.000 312.500,132.000" stroke-width="14.378" stroke="rgb(33,33,33)" fill="none" stroke-linecap="round"></path><path d="M 312.500,132.000 C 312.500,134.000 312.500,134.000 312.500,136.000" stroke-width="14.193" stroke="rgb(33,33,33)" fill="none" stroke-linecap="round"></path><path d="M 312.500,136.000 C 312.500,138.000 312.746,138.030 312.500,140.000" stroke-width="14.049" stroke="rgb(33,33,33)" fill="none" stroke-linecap="round"></path><path d="M 312.500,140.000 C 312.246,142.030 311.904,141.980 311.500,144.000" stroke-width="14.106" stroke="rgb(33,33,33)" fill="none" stroke-linecap="round"></path><path d="M 311.500,144.000 C 310.904,146.980 310.876,146.990 310.500,150.000" stroke-width="13.054" stroke="rgb(33,33,33)" fill="none" stroke-linecap="round"></path><path d="M 310.500,150.000 C 310.376,150.990 310.500,151.000 310.500,152.000" stroke-width="13.582" stroke="rgb(33,33,33)" fill="none" stroke-linecap="round"></path><path d="M 310.500,152.000 C 310.500,153.000 310.264,153.056 310.500,154.000" stroke-width="14.035" stroke="rgb(33,33,33)" fill="none" stroke-linecap="round"></path><path d="M 310.500,154.000 C 310.764,155.056 311.155,154.964 311.500,156.000" stroke-width="14.360" stroke="rgb(33,33,33)" fill="none" stroke-linecap="round"></path><path d="M 311.500,156.000 C 311.655,156.464 311.293,157.000 311.500,157.000" stroke-width="14.996" stroke="rgb(33,33,33)" fill="none" stroke-linecap="round"></path><path d="M 311.500,157.000 C 311.793,157.000 312.077,156.563 312.500,156.000" stroke-width="15.728" stroke="rgb(33,33,33)" fill="none" stroke-linecap="round"></path><path d="M 312.500,156.000 C 313.577,154.563 313.250,154.250 314.500,153.000" stroke-width="15.339" stroke="rgb(33,33,33)" fill="none" stroke-linecap="round"></path><path d="M 314.500,153.000 C 315.750,151.750 316.739,152.521 317.500,151.000" stroke-width="15.042" stroke="rgb(33,33,33)" fill="none" stroke-linecap="round"></path><path d="M 317.500,151.000 C 319.239,147.521 317.900,146.734 319.500,143.000" stroke-width="13.653" stroke="rgb(33,33,33)" fill="none" stroke-linecap="round"></path><path d="M 319.500,143.000 C 320.900,139.734 321.687,140.108 323.500,137.000" stroke-width="12.924" stroke="rgb(33,33,33)" fill="none" stroke-linecap="round"></path><path d="M 323.500,137.000 C 325.187,134.108 324.895,133.942 326.500,131.000" stroke-width="12.755" stroke="rgb(33,33,33)" fill="none" stroke-linecap="round"></path><path d="M 326.500,131.000 C 327.895,128.442 327.790,128.351 329.500,126.000" stroke-width="12.166" stroke="rgb(33,33,33)" fill="none" stroke-linecap="round"></path><path d="M 329.500,126.000 C 331.790,122.851 332.210,123.149 334.500,120.000" stroke-width="11.727" stroke="rgb(33,33,33)" fill="none" stroke-linecap="round"></path><path d="M 334.500,120.000 C 336.210,117.649 335.955,117.472 337.500,115.000" stroke-width="11.724" stroke="rgb(33,33,33)" fill="none" stroke-linecap="round"></path><path d="M 337.500,115.000 C 338.455,113.472 338.379,113.401 339.500,112.000" stroke-width="12.112" stroke="rgb(33,33,33)" fill="none" stroke-linecap="round"></path><path d="M 339.500,112.000 C 340.379,110.901 341.015,109.757 341.500,110.000" stroke-width="12.653" stroke="rgb(33,33,33)" fill="none" stroke-linecap="round"></path><path d="M 341.500,110.000 C 342.015,110.257 341.500,111.500 341.500,113.000" stroke-width="13.592" stroke="rgb(33,33,33)" fill="none" stroke-linecap="round"></path><path d="M 341.500,113.000 C 341.500,114.500 341.500,114.500 341.500,116.000" stroke-width="13.805" stroke="rgb(33,33,33)" fill="none" stroke-linecap="round"></path><path d="M 341.500,116.000 C 341.500,118.000 341.500,118.000 341.500,120.000" stroke-width="13.743" stroke="rgb(33,33,33)" fill="none" stroke-linecap="round"></path><path d="M 341.500,120.000 C 341.500,123.000 341.500,123.000 341.500,126.000" stroke-width="13.246" stroke="rgb(33,33,33)" fill="none" stroke-linecap="round"></path><path d="M 341.500,126.000 C 341.500,129.000 341.500,129.000 341.500,132.000" stroke-width="12.873" stroke="rgb(33,33,33)" fill="none" stroke-linecap="round"></path><path d="M 341.500,132.000 C 341.500,136.000 341.500,136.000 341.500,140.000" stroke-width="12.210" stroke="rgb(33,33,33)" fill="none" stroke-linecap="round"></path><path d="M 341.500,140.000 C 341.500,144.000 341.500,144.000 341.500,148.000" stroke-width="11.727" stroke="rgb(33,33,33)" fill="none" stroke-linecap="round"></path><path d="M 341.500,148.000 C 341.500,152.000 342.024,152.073 341.500,156.000" stroke-width="11.511" stroke="rgb(33,33,33)" fill="none" stroke-linecap="round"></path><path d="M 341.500,156.000 C 341.024,159.573 339.947,159.423 339.500,163.000" stroke-width="11.155" stroke="rgb(33,33,33)" fill="none" stroke-linecap="round"></path><path d="M 339.500,163.000 C 338.947,167.423 339.500,167.500 339.500,172.000" stroke-width="10.787" stroke="rgb(33,33,33)" fill="none" stroke-linecap="round"></path><path d="M 339.500,172.000 C 339.500,175.500 339.500,175.500 339.500,179.000" stroke-width="10.790" stroke="rgb(33,33,33)" fill="none" stroke-linecap="round"></path><path d="M 339.500,179.000 C 339.500,181.500 339.500,181.500 339.500,184.000" stroke-width="11.087" stroke="rgb(33,33,33)" fill="none" stroke-linecap="round"></path><path d="M 339.500,184.000 C 339.500,185.000 339.500,185.000 339.500,186.000" stroke-width="11.873" stroke="rgb(33,33,33)" fill="none" stroke-linecap="round"></path><path d="M 339.500,186.000 C 339.500,186.500 339.500,186.500 339.500,187.000" stroke-width="12.711" stroke="rgb(33,33,33)" fill="none" stroke-linecap="round"></path><path d="M 339.500,187.000 C 339.500,187.500 339.250,187.750 339.500,188.000" stroke-width="13.505" stroke="rgb(33,33,33)" fill="none" stroke-linecap="round"></path><path d="M 339.500,188.000 C 339.750,188.250 340.086,188.207 340.500,188.000" stroke-width="14.341" stroke="rgb(33,33,33)" fill="none" stroke-linecap="round"></path><path d="M 340.500,188.000 C 341.086,187.707 340.949,187.441 341.500,187.000" stroke-width="15.030" stroke="rgb(33,33,33)" fill="none" stroke-linecap="round"></path><path d="M 341.500,187.000 C 343.449,185.441 343.969,185.838 345.500,184.000" stroke-width="14.435" stroke="rgb(33,33,33)" fill="none" stroke-linecap="round"></path><path d="M 345.500,184.000 C 346.469,182.838 345.796,182.409 346.500,181.000" stroke-width="14.450" stroke="rgb(33,33,33)" fill="none" stroke-linecap="round"></path><path d="M 346.500,181.000 C 348.296,177.409 348.389,177.431 350.500,174.000" stroke-width="13.299" stroke="rgb(33,33,33)" fill="none" stroke-linecap="round"></path><path d="M 350.500,174.000 C 352.389,170.931 352.611,171.069 354.500,168.000" stroke-width="12.830" stroke="rgb(33,33,33)" fill="none" stroke-linecap="round"></path><path d="M 354.500,168.000 C 356.611,164.569 356.892,164.675 358.500,161.000" stroke-width="11.961" stroke="rgb(33,33,33)" fill="none" stroke-linecap="round"></path><path d="M 358.500,161.000 C 360.392,156.675 360.419,156.595 361.500,152.000" stroke-width="11.303" stroke="rgb(33,33,33)" fill="none" stroke-linecap="round"></path><path d="M 361.500,152.000 C 362.419,148.095 362.277,148.017 362.500,144.000" stroke-width="11.036" stroke="rgb(33,33,33)" fill="none" stroke-linecap="round"></path><path d="M 362.500,144.000 C 362.777,139.017 362.500,139.000 362.500,134.000" stroke-width="10.559" stroke="rgb(33,33,33)" fill="none" stroke-linecap="round"></path><path d="M 362.500,134.000 C 362.500,131.500 362.500,131.500 362.500,129.000" stroke-width="10.973" stroke="rgb(33,33,33)" fill="none" stroke-linecap="round"></path><path d="M 362.500,129.000 C 362.500,127.000 362.666,126.990 362.500,125.000" stroke-width="11.309" stroke="rgb(33,33,33)" fill="none" stroke-linecap="round"></path><path d="M 362.500,125.000 C 362.166,120.990 362.810,120.604 361.500,117.000" stroke-width="11.041" stroke="rgb(33,33,33)" fill="none" stroke-linecap="round"></path><path d="M 361.500,117.000 C 360.810,115.104 359.877,115.607 358.500,114.000" stroke-width="11.419" stroke="rgb(33,33,33)" fill="none" stroke-linecap="round"></path><path d="M 358.500,114.000 C 356.877,112.107 357.097,111.916 355.500,110.000" stroke-width="11.783" stroke="rgb(33,33,33)" fill="none" stroke-linecap="round"></path><path d="M 355.500,110.000 C 354.597,108.916 354.686,108.741 353.500,108.000" stroke-width="12.132" stroke="rgb(33,33,33)" fill="none" stroke-linecap="round"></path><path d="M 353.500,108.000 C 350.686,106.241 350.588,106.287 347.500,105.000" stroke-width="11.890" stroke="rgb(33,33,33)" fill="none" stroke-linecap="round"></path><path d="M 347.500,105.000 C 344.588,103.787 344.500,104.000 341.500,103.000" stroke-width="11.891" stroke="rgb(33,33,33)" fill="none" stroke-linecap="round"></path><path d="M 341.500,103.000 C 338.500,102.000 338.522,101.930 335.500,101.000" stroke-width="11.617" stroke="rgb(33,33,33)" fill="none" stroke-linecap="round"></path><path d="M 335.500,101.000 C 332.022,99.930 332.069,99.510 328.500,99.000" stroke-width="11.399" stroke="rgb(33,33,33)" fill="none" stroke-linecap="round"></path><path d="M 328.500,99.000 C 325.069,98.510 324.978,99.268 321.500,99.000" stroke-width="11.397" stroke="rgb(33,33,33)" fill="none" stroke-linecap="round"></path><path d="M 321.500,99.000 C 318.478,98.768 318.524,98.216 315.500,98.000" stroke-width="11.280" stroke="rgb(33,33,33)" fill="none" stroke-linecap="round"></path><path d="M 315.500,98.000 C 311.524,97.716 311.500,98.000 307.500,98.000" stroke-width="11.029" stroke="rgb(33,33,33)" fill="none" stroke-linecap="round"></path><path d="M 307.500,98.000 C 304.000,98.000 304.000,98.000 300.500,98.000" stroke-width="10.982" stroke="rgb(33,33,33)" fill="none" stroke-linecap="round"></path><path d="M 300.500,98.000 C 296.000,98.000 295.936,97.478 291.500,98.000" stroke-width="10.657" stroke="rgb(33,33,33)" fill="none" stroke-linecap="round"></path><path d="M 291.500,98.000 C 287.436,98.478 287.432,98.790 283.500,100.000" stroke-width="10.639" stroke="rgb(33,33,33)" fill="none" stroke-linecap="round"></path><path d="M 283.500,100.000 C 280.932,100.790 280.862,100.728 278.500,102.000" stroke-width="10.791" stroke="rgb(33,33,33)" fill="none" stroke-linecap="round"></path><path d="M 278.500,102.000 C 274.362,104.228 274.733,105.024 270.500,107.000" stroke-width="10.454" stroke="rgb(33,33,33)" fill="none" stroke-linecap="round"></path><path d="M 270.500,107.000 C 267.233,108.524 267.017,108.121 263.500,109.000" stroke-width="10.483" stroke="rgb(33,33,33)" fill="none" stroke-linecap="round"></path><path d="M 263.500,109.000 C 263.017,109.121 262.876,108.700 262.500,109.000" stroke-width="11.438" stroke="rgb(33,33,33)" fill="none" stroke-linecap="round"></path><path d="M 262.500,109.000 C 260.376,110.700 260.611,111.124 258.500,113.000" stroke-width="11.521" stroke="rgb(33,33,33)" fill="none" stroke-linecap="round"></path><path d="M 258.500,113.000 C 256.111,115.124 255.928,114.919 253.500,117.000" stroke-width="11.465" stroke="rgb(33,33,33)" fill="none" stroke-linecap="round"></path><path d="M 253.500,117.000 C 252.428,117.919 252.379,117.901 251.500,119.000" stroke-width="12.027" stroke="rgb(33,33,33)" fill="none" stroke-linecap="round"></path><path d="M 251.500,119.000 C 250.379,120.401 250.455,120.472 249.500,122.000" stroke-width="12.369" stroke="rgb(33,33,33)" fill="none" stroke-linecap="round"></path><path d="M 249.500,122.000 C 247.955,124.472 247.617,124.394 246.500,127.000" stroke-width="12.232" stroke="rgb(33,33,33)" fill="none" stroke-linecap="round"></path><path d="M 246.500,127.000 C 246.117,127.894 246.845,128.081 246.500,129.000" stroke-width="12.908" stroke="rgb(33,33,33)" fill="none" stroke-linecap="round"></path><path d="M 246.500,129.000 C 245.345,132.081 245.000,132.000 243.500,135.000" stroke-width="12.297" stroke="rgb(33,33,33)" fill="none" stroke-linecap="round"></path><path d="M 243.500,135.000 C 243.000,136.000 242.764,135.944 242.500,137.000" stroke-width="12.871" stroke="rgb(33,33,33)" fill="none" stroke-linecap="round"></path><path d="M 242.500,137.000 C 242.264,137.944 242.500,138.000 242.500,139.000" stroke-width="13.423" stroke="rgb(33,33,33)" fill="none" stroke-linecap="round"></path><path d="M 242.500,139.000 C 242.500,140.500 242.500,140.500 242.500,142.000" stroke-width="13.665" stroke="rgb(33,33,33)" fill="none" stroke-linecap="round"></path><path d="M 242.500,142.000 C 242.500,143.000 242.500,143.000 242.500,144.000" stroke-width="14.161" stroke="rgb(33,33,33)" fill="none" stroke-linecap="round"></path><path d="M 242.500,144.000 C 242.500,144.500 242.500,144.500 242.500,145.000" stroke-width="14.754" stroke="rgb(33,33,33)" fill="none" stroke-linecap="round"></path><path d="M 242.500,145.000 C 242.500,145.500 242.167,145.833 242.500,146.000" stroke-width="15.418" stroke="rgb(33,33,33)" fill="none" stroke-linecap="round"></path><path d="M 242.500,146.000 C 243.167,146.333 243.500,146.000 244.500,146.000" stroke-width="14.631" stroke="rgb(33,33,33)" fill="none" stroke-linecap="round"></path><path d="M 244.500,146.000 C 245.000,146.000 245.000,146.000 245.500,146.000" stroke-width="15.232" stroke="rgb(33,33,33)" fill="none" stroke-linecap="round"></path><path d="M 245.500,146.000 C 246.000,146.000 246.000,146.000 246.500,146.000" stroke-width="15.672" stroke="rgb(33,33,33)" fill="none" stroke-linecap="round"></path><path d="M 246.500,146.000 C 247.500,146.000 247.500,146.000 248.500,146.000" stroke-width="15.774" stroke="rgb(33,33,33)" fill="none" stroke-linecap="round"></path><path d="M 248.500,146.000 C 250.500,146.000 250.516,146.198 252.500,146.000" stroke-width="15.580" stroke="rgb(33,33,33)" fill="none" stroke-linecap="round"></path><path d="M 252.500,146.000 C 255.516,145.698 255.636,145.955 258.500,145.000" stroke-width="13.654" stroke="rgb(33,33,33)" fill="none" stroke-linecap="round"></path><path d="M 258.500,145.000 C 263.136,143.455 263.100,143.200 267.500,141.000" stroke-width="12.403" stroke="rgb(33,33,33)" fill="none" stroke-linecap="round"></path><path d="M 267.500,141.000 C 272.100,138.700 272.235,138.843 276.500,136.000" stroke-width="12.166" stroke="rgb(33,33,33)" fill="none" stroke-linecap="round"></path><path d="M 276.500,136.000 C 279.735,133.843 279.535,133.541 282.500,131.000" stroke-width="9.867" stroke="rgb(33,33,33)" fill="none" stroke-linecap="round"></path><path d="M 282.500,131.000 C 286.535,127.541 286.607,127.615 290.500,124.000" stroke-width="9.608" stroke="rgb(33,33,33)" fill="none" stroke-linecap="round"></path><path d="M 290.500,124.000 C 293.607,121.115 293.746,121.213 296.500,118.000" stroke-width="9.651" stroke="rgb(33,33,33)" fill="none" stroke-linecap="round"></path><path d="M 296.500,118.000 C 299.746,114.213 299.254,113.787 302.500,110.000" stroke-width="9.513" stroke="rgb(33,33,33)" fill="none" stroke-linecap="round"></path><path d="M 302.500,110.000 C 305.254,106.787 305.797,107.244 308.500,104.000" stroke-width="9.575" stroke="rgb(33,33,33)" fill="none" stroke-linecap="round"></path><path d="M 308.500,104.000 C 310.797,101.244 310.902,101.196 312.500,98.000" stroke-width="9.772" stroke="rgb(33,33,33)" fill="none" stroke-linecap="round"></path><path d="M 312.500,98.000 C 313.902,95.196 313.420,94.971 314.500,92.000" stroke-width="10.133" stroke="rgb(33,33,33)" fill="none" stroke-linecap="round"></path><path d="M 314.500,92.000 C 315.420,89.471 315.440,89.473 316.500,87.000" stroke-width="10.371" stroke="rgb(33,33,33)" fill="none" stroke-linecap="round"></path><path d="M 316.500,87.000 C 316.940,85.973 316.887,85.919 317.500,85.000" stroke-width="11.139" stroke="rgb(33,33,33)" fill="none" stroke-linecap="round"></path><path d="M 317.500,85.000 C 317.887,84.419 318.293,83.793 318.500,84.000" stroke-width="12.012" stroke="rgb(33,33,33)" fill="none" stroke-linecap="round"></path><path d="M 318.500,84.000 C 318.793,84.293 318.500,85.000 318.500,86.000" stroke-width="13.005" stroke="rgb(33,33,33)" fill="none" stroke-linecap="round"></path><path d="M 318.500,86.000 C 318.500,89.000 318.699,89.011 318.500,92.000" stroke-width="12.690" stroke="rgb(33,33,33)" fill="none" stroke-linecap="round"></path><path d="M 318.500,92.000 C 318.199,96.511 318.171,96.525 317.500,101.000" stroke-width="11.891" stroke="rgb(33,33,33)" fill="none" stroke-linecap="round"></path><path d="M 317.500,101.000 C 316.671,106.525 316.687,106.540 315.500,112.000" stroke-width="10.994" stroke="rgb(33,33,33)" fill="none" stroke-linecap="round"></path><path d="M 315.500,112.000 C 314.187,118.040 313.513,117.919 312.500,124.000" stroke-width="10.393" stroke="rgb(33,33,33)" fill="none" stroke-linecap="round"></path><path d="M 312.500,124.000 C 311.513,129.919 312.045,130.004 311.500,136.000" stroke-width="9.630" stroke="rgb(33,33,33)" fill="none" stroke-linecap="round"></path><path d="M 311.500,136.000 C 311.045,141.004 310.728,140.986 310.500,146.000" stroke-width="9.492" stroke="rgb(33,33,33)" fill="none" stroke-linecap="round"></path><path d="M 310.500,146.000 C 310.228,151.986 310.500,152.000 310.500,158.000" stroke-width="9.176" stroke="rgb(33,33,33)" fill="none" stroke-linecap="round"></path><path d="M 310.500,158.000 C 310.500,162.500 310.500,162.500 310.500,167.000" stroke-width="9.245" stroke="rgb(33,33,33)" fill="none" stroke-linecap="round"></path><path d="M 310.500,167.000 C 310.500,171.000 310.500,171.000 310.500,175.000" stroke-width="9.507" stroke="rgb(33,33,33)" fill="none" stroke-linecap="round"></path><path d="M 310.500,175.000 C 310.500,177.000 310.221,177.045 310.500,179.000" stroke-width="10.033" stroke="rgb(33,33,33)" fill="none" stroke-linecap="round"></path><path d="M 310.500,179.000 C 310.721,180.545 311.194,180.469 311.500,182.000" stroke-width="10.693" stroke="rgb(33,33,33)" fill="none" stroke-linecap="round"></path><path d="M 311.500,182.000 C 311.694,182.969 311.264,184.000 311.500,184.000" stroke-width="11.473" stroke="rgb(33,33,33)" fill="none" stroke-linecap="round"></path><path d="M 311.500,184.000 C 311.764,184.000 311.792,182.850 312.500,182.000" stroke-width="12.476" stroke="rgb(33,33,33)" fill="none" stroke-linecap="round"></path><path d="M 312.500,182.000 C 314.292,179.850 314.851,180.268 316.500,178.000" stroke-width="12.348" stroke="rgb(33,33,33)" fill="none" stroke-linecap="round"></path><path d="M 316.500,178.000 C 318.851,174.768 318.850,174.666 320.500,171.000" stroke-width="11.818" stroke="rgb(33,33,33)" fill="none" stroke-linecap="round"></path><path d="M 320.500,171.000 C 323.350,164.666 322.650,164.334 325.500,158.000" stroke-width="10.552" stroke="rgb(33,33,33)" fill="none" stroke-linecap="round"></path><path d="M 325.500,158.000 C 327.150,154.334 327.699,154.601 329.500,151.000" stroke-width="10.455" stroke="rgb(33,33,33)" fill="none" stroke-linecap="round"></path><path d="M 329.500,151.000 C 331.699,146.601 331.301,146.399 333.500,142.000" stroke-width="10.147" stroke="rgb(33,33,33)" fill="none" stroke-linecap="round"></path><path d="M 333.500,142.000 C 335.301,138.399 335.167,138.266 337.500,135.000" stroke-width="10.135" stroke="rgb(33,33,33)" fill="none" stroke-linecap="round"></path><path d="M 337.500,135.000 C 340.167,131.266 340.807,131.704 343.500,128.000" stroke-width="10.108" stroke="rgb(33,33,33)" fill="none" stroke-linecap="round"></path><path d="M 343.500,128.000 C 344.807,126.204 344.720,126.081 345.500,124.000" stroke-width="10.490" stroke="rgb(33,33,33)" fill="none" stroke-linecap="round"></path><path d="M 345.500,124.000 C 346.220,122.081 345.610,121.779 346.500,120.000" stroke-width="10.961" stroke="rgb(33,33,33)" fill="none" stroke-linecap="round"></path><path d="M 346.500,120.000 C 347.110,118.779 347.500,118.333 348.500,118.000" stroke-width="11.580" stroke="rgb(33,33,33)" fill="none" stroke-linecap="round"></path><path d="M 348.500,118.000 C 349.000,117.833 349.340,118.359 349.500,119.000" stroke-width="12.618" stroke="rgb(33,33,33)" fill="none" stroke-linecap="round"></path><path d="M 349.500,119.000 C 349.840,120.359 349.500,120.500 349.500,122.000" stroke-width="12.990" stroke="rgb(33,33,33)" fill="none" stroke-linecap="round"></path><path d="M 349.500,122.000 C 349.500,124.000 349.500,124.000 349.500,126.000" stroke-width="13.089" stroke="rgb(33,33,33)" fill="none" stroke-linecap="round"></path><path d="M 349.500,126.000 C 349.500,128.000 349.500,128.000 349.500,130.000" stroke-width="13.169" stroke="rgb(33,33,33)" fill="none" stroke-linecap="round"></path><path d="M 349.500,130.000 C 349.500,132.000 349.500,132.000 349.500,134.000" stroke-width="13.234" stroke="rgb(33,33,33)" fill="none" stroke-linecap="round"></path><path d="M 349.500,134.000 C 349.500,137.500 349.500,137.500 349.500,141.000" stroke-width="12.663" stroke="rgb(33,33,33)" fill="none" stroke-linecap="round"></path><path d="M 349.500,141.000 C 349.500,144.000 349.500,144.000 349.500,147.000" stroke-width="12.557" stroke="rgb(33,33,33)" fill="none" stroke-linecap="round"></path><path d="M 349.500,147.000 C 349.500,148.500 349.500,148.500 349.500,150.000" stroke-width="12.851" stroke="rgb(33,33,33)" fill="none" stroke-linecap="round"></path><path d="M 349.500,150.000 C 349.500,151.500 349.500,151.500 349.500,153.000" stroke-width="13.187" stroke="rgb(33,33,33)" fill="none" stroke-linecap="round"></path><path d="M 349.500,153.000 C 349.500,154.000 349.264,154.056 349.500,155.000" stroke-width="13.696" stroke="rgb(33,33,33)" fill="none" stroke-linecap="round"></path><path d="M 349.500,155.000 C 349.764,156.056 349.887,156.081 350.500,157.000" stroke-width="14.075" stroke="rgb(33,33,33)" fill="none" stroke-linecap="round"></path><path d="M 350.500,157.000 C 350.887,157.581 350.914,157.707 351.500,158.000" stroke-width="14.796" stroke="rgb(33,33,33)" fill="none" stroke-linecap="round"></path><path d="M 351.500,158.000 C 351.914,158.207 352.250,158.250 352.500,158.000" stroke-width="15.563" stroke="rgb(33,33,33)" fill="none" stroke-linecap="round"></path><path d="M 352.500,158.000 C 352.750,157.750 352.174,157.326 352.500,157.000" stroke-width="15.996" stroke="rgb(33,33,33)" fill="none" stroke-linecap="round"></path><path d="M 352.500,157.000 C 353.674,155.826 354.063,156.077 355.500,155.000" stroke-width="15.542" stroke="rgb(33,33,33)" fill="none" stroke-linecap="round"></path><path d="M 355.500,155.000 C 356.063,154.577 356.000,154.500 356.500,154.000" stroke-width="15.849" stroke="rgb(33,33,33)" fill="none" stroke-linecap="round"></path><path d="M 356.500,154.000 C 357.500,153.000 357.320,152.708 358.500,152.000" stroke-width="15.663" stroke="rgb(33,33,33)" fill="none" stroke-linecap="round"></path><path d="M 358.500,152.000 C 359.820,151.208 360.118,151.691 361.500,151.000" stroke-width="15.523" stroke="rgb(33,33,33)" fill="none" stroke-linecap="round"></path><path d="M 361.500,151.000 C 362.118,150.691 362.207,150.586 362.500,150.000" stroke-width="15.770" stroke="rgb(33,33,33)" fill="none" stroke-linecap="round"></path><path d="M 362.500,150.000 C 362.707,149.586 362.293,149.000 362.500,149.000" stroke-width="16.171" stroke="rgb(33,33,33)" fill="none" stroke-linecap="round"></path><path d="M 362.500,149.000 C 362.793,149.000 363.207,149.414 363.500,150.000" stroke-width="16.768" stroke="rgb(33,33,33)" fill="none" stroke-linecap="round"></path><path d="M 363.500,150.000 C 363.707,150.414 363.345,150.536 363.500,151.000" stroke-width="17.000" stroke="rgb(33,33,33)" fill="none" stroke-linecap="round"></path><path d="M 363.500,151.000 C 363.845,152.036 364.086,151.964 364.500,153.000" stroke-width="16.838" stroke="rgb(33,33,33)" fill="none" stroke-linecap="round"></path><path d="M 364.500,153.000 C 365.086,154.464 364.809,154.618 365.500,156.000" stroke-width="16.168" stroke="rgb(33,33,33)" fill="none" stroke-linecap="round"></path><path d="M 365.500,156.000 C 365.809,156.618 366.113,156.419 366.500,157.000" stroke-width="16.366" stroke="rgb(33,33,33)" fill="none" stroke-linecap="round"></path><path d="M 366.500,157.000 C 367.113,157.919 366.838,158.117 367.500,159.000" stroke-width="16.255" stroke="rgb(33,33,33)" fill="none" stroke-linecap="round"></path><path d="M 367.500,159.000 C 368.338,160.117 368.761,159.892 369.500,161.000" stroke-width="15.979" stroke="rgb(33,33,33)" fill="none" stroke-linecap="round"></path><path d="M 369.500,161.000 C 369.761,161.392 369.250,161.750 369.500,162.000" stroke-width="16.412" stroke="rgb(33,33,33)" fill="none" stroke-linecap="round"></path><path d="M 369.500,162.000 C 369.750,162.250 370.000,162.000 370.500,162.000" stroke-width="16.593" stroke="rgb(33,33,33)" fill="none" stroke-linecap="round"></path><path d="M 370.500,162.000 C 371.000,162.000 371.000,162.000 371.500,162.000" stroke-width="16.856" stroke="rgb(33,33,33)" fill="none" stroke-linecap="round"></path><path d="M 371.500,162.000 C 372.000,162.000 372.000,162.000 372.500,162.000" stroke-width="17.073" stroke="rgb(33,33,33)" fill="none" stroke-linecap="round"></path><path d="M 372.500,162.000 C 373.500,162.000 373.500,162.000 374.500,162.000" stroke-width="17.251" stroke="rgb(33,33,33)" fill="none" stroke-linecap="round"></path><path d="M 374.500,162.000 C 375.500,162.000 375.500,162.000 376.500,162.000" stroke-width="17.396" stroke="rgb(33,33,33)" fill="none" stroke-linecap="round"></path><path d="M 376.500,162.000 C 377.000,162.000 377.250,162.250 377.500,162.000" stroke-width="17.874" stroke="rgb(33,33,33)" fill="none" stroke-linecap="round"></path><path d="M 377.500,162.000 C 377.750,161.750 377.250,161.250 377.500,161.000" stroke-width="17.979" stroke="rgb(33,33,33)" fill="none" stroke-linecap="round"></path><path d="M 377.500,161.000 C 377.750,160.750 378.000,161.000 378.500,161.000" stroke-width="18.171" stroke="rgb(33,33,33)" fill="none" stroke-linecap="round"></path><path d="M 378.500,161.000 C 380.000,161.000 380.068,161.286 381.500,161.000" stroke-width="17.201" stroke="rgb(33,33,33)" fill="none" stroke-linecap="round"></path><path d="M 381.500,161.000 C 382.568,160.786 382.464,160.414 383.500,160.000" stroke-width="16.907" stroke="rgb(33,33,33)" fill="none" stroke-linecap="round"></path><path d="M 383.500,160.000 C 384.964,159.414 384.960,159.257 386.500,159.000" stroke-width="16.367" stroke="rgb(33,33,33)" fill="none" stroke-linecap="round"></path><path d="M 386.500,159.000 C 387.960,158.757 388.000,159.000 389.500,159.000" stroke-width="16.011" stroke="rgb(33,33,33)" fill="none" stroke-linecap="round"></path><path d="M 389.500,159.000 C 390.000,159.000 390.250,159.250 390.500,159.000" stroke-width="16.540" stroke="rgb(33,33,33)" fill="none" stroke-linecap="round"></path><path d="M 390.500,159.000 C 390.750,158.750 390.167,158.167 390.500,158.000" stroke-width="16.989" stroke="rgb(33,33,33)" fill="none" stroke-linecap="round"></path><path d="M 390.500,158.000 C 391.167,157.667 391.573,158.309 392.500,158.000" stroke-width="17.470" stroke="rgb(33,33,33)" fill="none" stroke-linecap="round"></path><path d="M 392.500,158.000 C 394.573,157.309 394.611,157.180 396.500,156.000" stroke-width="16.508" stroke="rgb(33,33,33)" fill="none" stroke-linecap="round"></path><path d="M 396.500,156.000 C 398.611,154.680 398.500,154.500 400.500,153.000" stroke-width="15.292" stroke="rgb(33,33,33)" fill="none" stroke-linecap="round"></path><path d="M 400.500,153.000 C 402.500,151.500 402.423,151.385 404.500,150.000" stroke-width="14.776" stroke="rgb(33,33,33)" fill="none" stroke-linecap="round"></path><path d="M 404.500,150.000 C 406.923,148.385 407.240,148.808 409.500,147.000" stroke-width="13.842" stroke="rgb(33,33,33)" fill="none" stroke-linecap="round"></path><path d="M 409.500,147.000 C 412.240,144.808 412.272,144.723 414.500,142.000" stroke-width="13.089" stroke="rgb(33,33,33)" fill="none" stroke-linecap="round"></path><path d="M 414.500,142.000 C 416.772,139.223 416.898,139.204 418.500,136.000" stroke-width="12.515" stroke="rgb(33,33,33)" fill="none" stroke-linecap="round"></path><path d="M 418.500,136.000 C 420.398,132.204 420.000,132.000 421.500,128.000" stroke-width="11.856" stroke="rgb(33,33,33)" fill="none" stroke-linecap="round"></path><path d="M 421.500,128.000 C 423.000,124.000 423.725,124.132 424.500,120.000" stroke-width="11.376" stroke="rgb(33,33,33)" fill="none" stroke-linecap="round"></path><path d="M 424.500,120.000 C 425.225,116.132 424.500,116.000 424.500,112.000" stroke-width="11.102" stroke="rgb(33,33,33)" fill="none" stroke-linecap="round"></path><path d="M 424.500,112.000 C 424.500,106.500 425.344,106.347 424.500,101.000" stroke-width="10.469" stroke="rgb(33,33,33)" fill="none" stroke-linecap="round"></path><path d="M 424.500,101.000 C 423.844,96.847 422.772,97.071 421.500,93.000" stroke-width="10.327" stroke="rgb(33,33,33)" fill="none" stroke-linecap="round"></path><path d="M 421.500,93.000 C 420.272,89.071 420.363,89.028 419.500,85.000" stroke-width="10.254" stroke="rgb(33,33,33)" fill="none" stroke-linecap="round"></path><path d="M 419.500,85.000 C 418.863,82.028 419.231,81.925 418.500,79.000" stroke-width="10.574" stroke="rgb(33,33,33)" fill="none" stroke-linecap="round"></path><path d="M 418.500,79.000 C 418.231,77.925 418.162,77.883 417.500,77.000" stroke-width="11.275" stroke="rgb(33,33,33)" fill="none" stroke-linecap="round"></path><path d="M 417.500,77.000 C 416.662,75.883 416.239,76.108 415.500,75.000" stroke-width="11.859" stroke="rgb(33,33,33)" fill="none" stroke-linecap="round"></path><path d="M 415.500,75.000 C 415.239,74.608 415.500,74.500 415.500,74.000" stroke-width="12.728" stroke="rgb(33,33,33)" fill="none" stroke-linecap="round"></path><path d="M 415.500,74.000 C 415.500,73.500 415.750,73.250 415.500,73.000" stroke-width="13.520" stroke="rgb(33,33,33)" fill="none" stroke-linecap="round"></path><path d="M 415.500,73.000 C 415.250,72.750 414.625,72.625 414.500,73.000" stroke-width="14.446" stroke="rgb(33,33,33)" fill="none" stroke-linecap="round"></path><path d="M 414.500,73.000 C 414.125,74.125 414.743,74.540 414.500,76.000" stroke-width="14.501" stroke="rgb(33,33,33)" fill="none" stroke-linecap="round"></path><path d="M 414.500,76.000 C 414.243,77.540 413.757,77.460 413.500,79.000" stroke-width="14.731" stroke="rgb(33,33,33)" fill="none" stroke-linecap="round"></path><path d="M 413.500,79.000 C 413.257,80.460 413.500,80.500 413.500,82.000" stroke-width="14.263" stroke="rgb(33,33,33)" fill="none" stroke-linecap="round"></path><path d="M 413.500,82.000 C 413.500,85.500 413.500,85.500 413.500,89.000" stroke-width="13.578" stroke="rgb(33,33,33)" fill="none" stroke-linecap="round"></path><path d="M 413.500,89.000 C 413.500,93.500 413.500,93.500 413.500,98.000" stroke-width="12.271" stroke="rgb(33,33,33)" fill="none" stroke-linecap="round"></path><path d="M 413.500,98.000 C 413.500,102.500 413.500,102.500 413.500,107.000" stroke-width="11.603" stroke="rgb(33,33,33)" fill="none" stroke-linecap="round"></path><path d="M 413.500,107.000 C 413.500,111.500 413.500,111.500 413.500,116.000" stroke-width="11.119" stroke="rgb(33,33,33)" fill="none" stroke-linecap="round"></path><path d="M 413.500,116.000 C 413.500,121.000 413.500,121.000 413.500,126.000" stroke-width="10.619" stroke="rgb(33,33,33)" fill="none" stroke-linecap="round"></path><path d="M 413.500,126.000 C 413.500,132.500 413.218,132.514 413.500,139.000" stroke-width="9.876" stroke="rgb(33,33,33)" fill="none" stroke-linecap="round"></path><path d="M 413.500,139.000 C 413.718,144.014 413.519,144.095 414.500,149.000" stroke-width="9.681" stroke="rgb(33,33,33)" fill="none" stroke-linecap="round"></path><path d="M 414.500,149.000 C 415.519,154.095 416.027,153.992 417.500,159.000" stroke-width="9.488" stroke="rgb(33,33,33)" fill="none" stroke-linecap="round"></path><path d="M 417.500,159.000 C 418.527,162.492 418.112,162.668 419.500,166.000" stroke-width="9.691" stroke="rgb(33,33,33)" fill="none" stroke-linecap="round"></path><path d="M 419.500,166.000 C 420.612,168.668 421.200,168.401 422.500,171.000" stroke-width="10.038" stroke="rgb(33,33,33)" fill="none" stroke-linecap="round"></path><path d="M 422.500,171.000 C 423.700,173.401 423.555,173.480 424.500,176.000" stroke-width="10.473" stroke="rgb(33,33,33)" fill="none" stroke-linecap="round"></path><path d="M 424.500,176.000 C 425.055,177.480 425.120,177.481 425.500,179.000" stroke-width="11.022" stroke="rgb(33,33,33)" fill="none" stroke-linecap="round"></path><path d="M 425.500,179.000 C 425.620,179.481 425.239,179.608 425.500,180.000" stroke-width="11.949" stroke="rgb(33,33,33)" fill="none" stroke-linecap="round"></path><path d="M 425.500,180.000 C 426.239,181.108 426.914,180.828 427.500,182.000" stroke-width="12.450" stroke="rgb(33,33,33)" fill="none" stroke-linecap="round"></path><path d="M 427.500,182.000 C 427.914,182.828 427.500,183.000 427.500,184.000" stroke-width="13.054" stroke="rgb(33,33,33)" fill="none" stroke-linecap="round"></path><path d="M 427.500,184.000 C 427.500,185.000 427.500,185.000 427.500,186.000" stroke-width="13.633" stroke="rgb(33,33,33)" fill="none" stroke-linecap="round"></path><path d="M 427.500,186.000 C 427.500,186.500 427.500,186.500 427.500,187.000" stroke-width="14.292" stroke="rgb(33,33,33)" fill="none" stroke-linecap="round"></path><path d="M 427.500,187.000 C 427.500,187.500 427.293,187.586 427.500,188.000" stroke-width="14.906" stroke="rgb(33,33,33)" fill="none" stroke-linecap="round"></path><path d="M 427.500,188.000 C 427.793,188.586 428.293,188.379 428.500,189.000" stroke-width="15.316" stroke="rgb(33,33,33)" fill="none" stroke-linecap="round"></path><path d="M 428.500,189.000 C 428.793,189.879 428.167,190.333 428.500,191.000" stroke-width="15.485" stroke="rgb(33,33,33)" fill="none" stroke-linecap="round"></path><path d="M 428.500,191.000 C 428.667,191.333 429.250,190.750 429.500,191.000" stroke-width="15.930" stroke="rgb(33,33,33)" fill="none" stroke-linecap="round"></path><path d="M 429.500,191.000 C 429.750,191.250 429.750,191.750 429.500,192.000" stroke-width="16.471" stroke="rgb(33,33,33)" fill="none" stroke-linecap="round"></path><path d="M 429.500,192.000 C 429.250,192.250 429.000,192.000 428.500,192.000" stroke-width="17.037" stroke="rgb(33,33,33)" fill="none" stroke-linecap="round"></path><path d="M 428.500,192.000 C 426.000,192.000 425.988,192.191 423.500,192.000" stroke-width="16.046" stroke="rgb(33,33,33)" fill="none" stroke-linecap="round"></path><path d="M 423.500,192.000 C 419.488,191.691 419.512,191.382 415.500,191.000" stroke-width="14.063" stroke="rgb(33,33,33)" fill="none" stroke-linecap="round"></path><path d="M 415.500,191.000 C 409.012,190.382 408.998,190.520 402.500,190.000" stroke-width="12.335" stroke="rgb(33,33,33)" fill="none" stroke-linecap="round"></path><path d="M 402.500,190.000 C 396.498,189.520 396.510,189.261 390.500,189.000" stroke-width="10.902" stroke="rgb(33,33,33)" fill="none" stroke-linecap="round"></path><path d="M 390.500,189.000 C 385.010,188.761 385.000,189.000 379.500,189.000" stroke-width="10.327" stroke="rgb(33,33,33)" fill="none" stroke-linecap="round"></path><path d="M 379.500,189.000 C 373.000,189.000 372.975,189.432 366.500,189.000" stroke-width="9.672" stroke="rgb(33,33,33)" fill="none" stroke-linecap="round"></path><path d="M 366.500,189.000 C 357.975,188.432 358.027,187.533 349.500,187.000" stroke-width="8.793" stroke="rgb(33,33,33)" fill="none" stroke-linecap="round"></path><path d="M 349.500,187.000 C 342.027,186.533 341.967,187.560 334.500,187.000" stroke-width="8.645" stroke="rgb(33,33,33)" fill="none" stroke-linecap="round"></path><path d="M 334.500,187.000 C 321.967,186.060 322.023,185.278 309.500,184.000" stroke-width="6.951" stroke="rgb(33,33,33)" fill="none" stroke-linecap="round"></path><path d="M 309.500,184.000 C 297.523,182.778 297.434,183.492 285.500,182.000" stroke-width="6.750" stroke="rgb(33,33,33)" fill="none" stroke-linecap="round"></path><path d="M 285.500,182.000 C 277.434,180.992 277.543,180.192 269.500,179.000" stroke-width="6.750" stroke="rgb(33,33,33)" fill="none" stroke-linecap="round"></path><path d="M 269.500,179.000 C 264.043,178.192 264.010,178.290 258.500,178.000" stroke-width="6.826" stroke="rgb(33,33,33)" fill="none" stroke-linecap="round"></path><path d="M 258.500,178.000 C 254.510,177.790 254.500,178.000 250.500,178.000" stroke-width="7.302" stroke="rgb(33,33,33)" fill="none" stroke-linecap="round"></path><path d="M 250.500,178.000 C 247.500,178.000 247.500,178.000 244.500,178.000" stroke-width="7.884" stroke="rgb(33,33,33)" fill="none" stroke-linecap="round"></path></svg>