<svg xmlns="http://www.w3.org/2000/svg" xmlns:xlink="http://www.w3.org/1999/xlink" viewBox="0 0 375 500"><path d="M 100.000,95.000 C 98.500,94.500 97.581,93.225 97.000,94.000" stroke-width="20.016" stroke="rgb(33,33,33)" fill="none" stroke-linecap="round"></path><path d="M 97.000,94.000 C 96.081,95.225 96.234,96.703 97.000,99.000" stroke-width="18.892" stroke="rgb(33,33,33)" fill="none" stroke-linecap="round"></path><path d="M 97.000,99.000 C 98.234,102.703 99.199,102.399 101.000,106.000" stroke-width="17.793" stroke="rgb(33,33,33)" fill="none" stroke-linecap="round"></path><path d="M 101.000,106.000 C 103.199,110.399 102.800,110.599 105.000,115.000" stroke-width="16.678" stroke="rgb(33,33,33)" fill="none" stroke-linecap="round"></path><path d="M 105.000,115.000 C 107.800,120.599 108.102,120.446 111.000,126.000" stroke-width="14.241" stroke="rgb(33,33,33)" fill="none" stroke-linecap="round"></path><path d="M 111.000,126.000 C 114.102,131.946 114.361,131.843 117.000,138.000" stroke-width="13.622" stroke="rgb(33,33,33)" fill="none" stroke-linecap="round"></path><path d="M 117.000,138.000 C 120.361,145.843 119.916,146.033 123.000,154.000" stroke-width="12.633" stroke="rgb(33,33,33)" fill="none" stroke-linecap="round"></path><path d="M 123.000,154.000 C 125.916,161.533 126.164,161.438 129.000,169.000" stroke-width="12.108" stroke="rgb(33,33,33)" fill="none" stroke-linecap="round"></path><path d="M 129.000,169.000 C 132.164,177.438 132.368,177.387 135.000,186.000" stroke-width="11.571" stroke="rgb(33,33,33)" fill="none" stroke-linecap="round"></path><path d="M 135.000,186.000 C 137.868,195.387 137.926,195.409 140.000,205.000" stroke-width="10.972" stroke="rgb(33,33,33)" fill="none" stroke-linecap="round"></path><path d="M 140.000,205.000 C 141.926,213.909 142.223,213.940 143.000,223.000" stroke-width="10.548" stroke="rgb(33,33,33)" fill="none" stroke-linecap="round"></path><path d="M 143.000,223.000 C 143.723,231.440 143.000,231.500 143.000,240.000" stroke-width="10.461" stroke="rgb(33,33,33)" fill="none" stroke-linecap="round"></path><path d="M 143.000,240.000 C 143.000,248.500 143.868,248.607 143.000,257.000" stroke-width="10.392" stroke="rgb(33,33,33)" fill="none" stroke-linecap="round"></path><path d="M 143.000,257.000 C 142.368,263.107 142.355,263.348 140.000,269.000" stroke-width="10.633" stroke="rgb(33,33,33)" fill="none" stroke-linecap="round"></path><path d="M 140.000,269.000 C 137.355,275.348 136.907,275.290 133.000,281.000" stroke-width="10.731" stroke="rgb(33,33,33)" fill="none" stroke-linecap="round"></path><path d="M 133.000,281.000 C 130.407,284.790 130.358,284.882 127.000,288.000" stroke-width="11.138" stroke="rgb(33,33,33)" fill="none" stroke-linecap="round"></path><path d="M 127.000,288.000 C 123.358,291.382 123.384,291.808 119.000,294.000" stroke-width="11.380" stroke="rgb(33,33,33)" fill="none" stroke-linecap="round"></path><path d="M 119.000,294.000 C 115.384,295.808 115.052,295.421 111.000,296.000" stroke-width="11.769" stroke="rgb(33,33,33)" fill="none" stroke-linecap="round"></path><path d="M 111.000,296.000 C 108.052,296.421 108.000,296.000 105.000,296.000" stroke-width="12.262" stroke="rgb(33,33,33)" fill="none" stroke-linecap="round"></path><path d="M 105.000,296.000 C 102.500,296.000 102.147,296.976 100.000,296.000" stroke-width="12.817" stroke="rgb(33,33,33)" fill="none" stroke-linecap="round"></path><path d="M 100.000,296.000 C 96.647,294.476 96.149,294.104 94.000,291.000" stroke-width="13.015" stroke="rgb(33,33,33)" fill="none" stroke-linecap="round"></path><path d="M 94.000,291.000 C 91.649,287.604 92.140,287.103 91.000,283.000" stroke-width="13.052" stroke="rgb(33,33,33)" fill="none" stroke-linecap="round"></path><path d="M 91.000,283.000 C 89.640,278.103 89.481,278.051 89.000,273.000" stroke-width="12.971" stroke="rgb(33,33,33)" fill="none" stroke-linecap="round"></path><path d="M 89.000,273.000 C 88.481,267.551 89.000,267.500 89.000,262.000" stroke-width="12.830" stroke="rgb(33,33,33)" fill="none" stroke-linecap="round"></path><path d="M 89.000,262.000 C 89.000,256.500 87.989,256.305 89.000,251.000" stroke-width="12.719" stroke="rgb(33,33,33)" fill="none" stroke-linecap="round"></path><path d="M 89.000,251.000 C 89.989,245.805 90.328,245.615 93.000,241.000" stroke-width="12.591" stroke="rgb(33,33,33)" fill="none" stroke-linecap="round"></path><path d="M 93.000,241.000 C 95.828,236.115 96.220,236.253 100.000,232.000" stroke-width="12.494" stroke="rgb(33,33,33)" fill="none" stroke-linecap="round"></path><path d="M 100.000,232.000 C 104.220,227.253 104.151,227.084 109.000,223.000" stroke-width="12.362" stroke="rgb(33,33,33)" fill="none" stroke-linecap="round"></path><path d="M 109.000,223.000 C 113.651,219.084 113.923,219.384 119.000,216.000" stroke-width="12.103" stroke="rgb(33,33,33)" fill="none" stroke-linecap="round"></path><path d="M 119.000,216.000 C 122.923,213.384 122.841,213.202 127.000,211.000" stroke-width="12.276" stroke="rgb(33,33,33)" fill="none" stroke-linecap="round"></path><path d="M 127.000,211.000 C 131.341,208.702 131.400,208.725 136.000,207.000" stroke-width="12.382" stroke="rgb(33,33,33)" fill="none" stroke-linecap="round"></path><path d="M 136.000,207.000 C 139.400,205.725 139.449,205.761 143.000,205.000" stroke-width="12.613" stroke="rgb(33,33,33)" fill="none" stroke-linecap="round"></path><path d="M 143.000,205.000 C 146.449,204.261 146.526,204.632 150.000,204.000" stroke-width="12.918" stroke="rgb(33,33,33)" fill="none" stroke-linecap="round"></path><path d="M 150.000,204.000 C 152.026,203.632 152.019,203.566 154.000,203.000" stroke-width="13.477" stroke="rgb(33,33,33)" fill="none" stroke-linecap="round"></path><path d="M 154.000,203.000 C 155.519,202.566 155.536,202.586 157.000,202.000" stroke-width="14.070" stroke="rgb(33,33,33)" fill="none" stroke-linecap="round"></path><path d="M 157.000,202.000 C 158.036,201.586 158.309,201.691 159.000,201.000" stroke-width="14.681" stroke="rgb(33,33,33)" fill="none" stroke-linecap="round"></path><path d="M 159.000,201.000 C 159.309,200.691 158.880,200.481 159.000,200.000" stroke-width="15.396" stroke="rgb(33,33,33)" fill="none" stroke-linecap="round"></path><path d="M 159.000,200.000 C 159.380,198.481 159.743,198.540 160.000,197.000" stroke-width="15.705" stroke="rgb(33,33,33)" fill="none" stroke-linecap="round"></path><path d="M 160.000,197.000 C 160.243,195.540 160.000,195.500 160.000,194.000" stroke-width="15.985" stroke="rgb(33,33,33)" fill="none" stroke-linecap="round"></path><path d="M 160.000,194.000 C 160.000,192.000 160.000,192.000 160.000,190.000" stroke-width="16.065" stroke="rgb(33,33,33)" fill="none" stroke-linecap="round"></path><path d="M 160.000,190.000 C 160.000,189.000 160.236,188.944 160.000,188.000" stroke-width="16.418" stroke="rgb(33,33,33)" fill="none" stroke-linecap="round"></path><path d="M 160.000,188.000 C 159.736,186.944 159.613,186.919 159.000,186.000" stroke-width="16.694" stroke="rgb(33,33,33)" fill="none" stroke-linecap="round"></path><path d="M 159.000,186.000 C 158.613,185.419 158.131,184.608 158.000,185.000" stroke-width="17.044" stroke="rgb(33,33,33)" fill="none" stroke-linecap="round"></path><path d="M 158.000,185.000 C 157.631,186.108 157.819,187.013 158.000,189.000" stroke-width="17.365" stroke="rgb(33,33,33)" fill="none" stroke-linecap="round"></path><path d="M 158.000,189.000 C 158.319,192.513 158.148,192.594 159.000,196.000" stroke-width="16.651" stroke="rgb(33,33,33)" fill="none" stroke-linecap="round"></path><path d="M 159.000,196.000 C 159.648,198.594 159.887,198.551 161.000,201.000" stroke-width="16.269" stroke="rgb(33,33,33)" fill="none" stroke-linecap="round"></path><path d="M 161.000,201.000 C 162.387,204.051 162.101,204.287 164.000,207.000" stroke-width="15.886" stroke="rgb(33,33,33)" fill="none" stroke-linecap="round"></path><circle r="6" cx="170" cy="141" fill="rgb(33,33,33)"></circle><path d="M 195.000,191.000 C 193.500,189.500 192.879,189.757 192.000,188.000" stroke-width="19.849" stroke="rgb(33,33,33)" fill="none" stroke-linecap="round"></path><path d="M 192.000,188.000 C 191.379,186.757 192.000,186.500 192.000,185.000" stroke-width="19.295" stroke="rgb(33,33,33)" fill="none" stroke-linecap="round"></path><path d="M 192.000,185.000 C 192.000,183.500 192.000,183.500 192.000,182.000" stroke-width="18.904" stroke="rgb(33,33,33)" fill="none" stroke-linecap="round"></path><path d="M 192.000,182.000 C 192.000,181.500 191.880,181.481 192.000,181.000" stroke-width="18.884" stroke="rgb(33,33,33)" fill="none" stroke-linecap="round"></path><path d="M 192.000,181.000 C 192.380,179.481 192.065,179.168 193.000,178.000" stroke-width="18.527" stroke="rgb(33,33,33)" fill="none" stroke-linecap="round"></path><path d="M 193.000,178.000 C 194.065,176.668 194.438,176.893 196.000,176.000" stroke-width="18.089" stroke="rgb(33,33,33)" fill="none" stroke-linecap="round"></path><path d="M 196.000,176.000 C 197.938,174.893 197.875,174.472 200.000,174.000" stroke-width="17.637" stroke="rgb(33,33,33)" fill="none" stroke-linecap="round"></path><path d="M 200.000,174.000 C 202.375,173.472 202.500,174.000 205.000,174.000" stroke-width="17.247" stroke="rgb(33,33,33)" fill="none" stroke-linecap="round"></path><path d="M 205.000,174.000 C 206.500,174.000 206.500,174.000 208.000,174.000" stroke-width="17.171" stroke="rgb(33,33,33)" fill="none" stroke-linecap="round"></path><path d="M 208.000,174.000 C 210.500,174.000 210.500,174.000 213.000,174.000" stroke-width="16.843" stroke="rgb(33,33,33)" fill="none" stroke-linecap="round"></path><path d="M 213.000,174.000 C 215.500,174.000 215.572,174.442 218.000,174.000" stroke-width="16.590" stroke="rgb(33,33,33)" fill="none" stroke-linecap="round"></path><path d="M 218.000,174.000 C 221.072,173.442 221.029,173.080 224.000,172.000" stroke-width="16.128" stroke="rgb(33,33,33)" fill="none" stroke-linecap="round"></path><path d="M 224.000,172.000 C 226.529,171.080 226.500,171.000 229.000,170.000" stroke-width="15.973" stroke="rgb(33,33,33)" fill="none" stroke-linecap="round"></path><path d="M 229.000,170.000 C 231.500,169.000 231.570,169.157 234.000,168.000" stroke-width="15.894" stroke="rgb(33,33,33)" fill="none" stroke-linecap="round"></path><path d="M 234.000,168.000 C 242.070,164.157 241.882,163.747 250.000,160.000" stroke-width="13.891" stroke="rgb(33,33,33)" fill="none" stroke-linecap="round"></path><path d="M 250.000,160.000 C 261.382,154.747 261.257,154.340 273.000,150.000" stroke-width="12.189" stroke="rgb(33,33,33)" fill="none" stroke-linecap="round"></path><path d="M 273.000,150.000 C 284.257,145.840 284.329,145.593 296.000,143.000" stroke-width="11.176" stroke="rgb(33,33,33)" fill="none" stroke-linecap="round"></path><path d="M 296.000,143.000 C 302.329,141.593 302.495,142.361 309.000,142.000" stroke-width="11.173" stroke="rgb(33,33,33)" fill="none" stroke-linecap="round"></path><path d="M 309.000,142.000 C 311.495,141.861 312.864,140.636 314.000,142.000" stroke-width="11.850" stroke="rgb(33,33,33)" fill="none" stroke-linecap="round"></path><path d="M 314.000,142.000 C 315.364,143.636 313.704,145.036 314.000,148.000" stroke-width="12.365" stroke="rgb(33,33,33)" fill="none" stroke-linecap="round"></path><path d="M 314.000,148.000 C 314.204,150.036 314.500,150.000 315.000,152.000" stroke-width="12.967" stroke="rgb(33,33,33)" fill="none" stroke-linecap="round"></path><path d="M 315.000,152.000 C 315.500,154.000 315.746,153.970 316.000,156.000" stroke-width="13.544" stroke="rgb(33,33,33)" fill="none" stroke-linecap="round"></path><path d="M 316.000,156.000 C 316.246,157.970 316.246,158.030 316.000,160.000" stroke-width="14.003" stroke="rgb(33,33,33)" fill="none" stroke-linecap="round"></path><path d="M 316.000,160.000 C 315.746,162.030 316.519,162.709 315.000,164.000" stroke-width="14.409" stroke="rgb(33,33,33)" fill="none" stroke-linecap="round"></path><path d="M 315.000,164.000 C 306.519,171.209 305.889,171.129 296.000,177.000" stroke-width="12.414" stroke="rgb(33,33,33)" fill="none" stroke-linecap="round"></path><path d="M 296.000,177.000 C 273.889,190.129 273.702,189.877 251.000,202.000" stroke-width="9.893" stroke="rgb(33,33,33)" fill="none" stroke-linecap="round"></path><path d="M 251.000,202.000 C 222.202,217.377 221.637,216.335 193.000,232.000" stroke-width="7.477" stroke="rgb(33,33,33)" fill="none" stroke-linecap="round"></path><path d="M 193.000,232.000 C 163.137,248.335 163.237,248.560 134.000,266.000" stroke-width="6.750" stroke="rgb(33,33,33)" fill="none" stroke-linecap="round"></path></svg>