<svg xmlns="http://www.w3.org/2000/svg" xmlns:xlink="http://www.w3.org/1999/xlink" viewBox="0 0 800 500"><path d="M 284.500,129.500 C 284.500,130.500 284.500,130.500 284.500,131.500" stroke-width="20.177" stroke="rgb(33,33,33)" fill="none" stroke-linecap="round"></path><path d="M 284.500,131.500 C 284.500,133.500 284.500,133.500 284.500,135.500" stroke-width="18.700" stroke="rgb(33,33,33)" fill="none" stroke-linecap="round"></path><path d="M 284.500,135.500 C 284.500,137.500 284.500,137.500 284.500,139.500" stroke-width="17.665" stroke="rgb(33,33,33)" fill="none" stroke-linecap="round"></path><path d="M 284.500,139.500 C 284.500,141.000 284.500,141.000 284.500,142.500" stroke-width="17.573" stroke="rgb(33,33,33)" fill="none" stroke-linecap="round"></path><path d="M 284.500,142.500 C 284.500,145.000 284.500,145.000 284.500,147.500" stroke-width="13.916" stroke="rgb(33,33,33)" fill="none" stroke-linecap="round"></path><path d="M 284.500,147.500 C 284.500,150.500 284.500,150.500 284.500,153.500" stroke-width="13.745" stroke="rgb(33,33,33)" fill="none" stroke-linecap="round"></path><path d="M 284.500,153.500 C 284.500,155.000 284.500,155.000 284.500,156.500" stroke-width="14.076" stroke="rgb(33,33,33)" fill="none" stroke-linecap="round"></path><path d="M 284.500,156.500 C 284.500,158.500 284.500,158.500 284.500,160.500" stroke-width="14.421" stroke="rgb(33,33,33)" fill="none" stroke-linecap="round"></path><path d="M 284.500,160.500 C 284.500,162.000 284.500,162.000 284.500,163.500" stroke-width="13.744" stroke="rgb(33,33,33)" fill="none" stroke-linecap="round"></path><path d="M 284.500,163.500 C 284.500,165.000 284.500,165.000 284.500,166.500" stroke-width="14.491" stroke="rgb(33,33,33)" fill="none" stroke-linecap="round"></path><path d="M 284.500,166.500 C 284.500,167.000 284.500,167.000 284.500,167.500" stroke-width="15.110" stroke="rgb(33,33,33)" fill="none" stroke-linecap="round"></path><path d="M 284.500,167.500 C 284.500,168.500 284.304,170.217 284.500,169.500" stroke-width="15.841" stroke="rgb(33,33,33)" fill="none" stroke-linecap="round"></path><path d="M 284.500,169.500 C 285.804,164.717 285.972,162.993 287.500,156.500" stroke-width="16.249" stroke="rgb(33,33,33)" fill="none" stroke-linecap="round"></path><path d="M 287.500,156.500 C 287.972,154.493 288.098,154.512 288.500,152.500" stroke-width="12.583" stroke="rgb(33,33,33)" fill="none" stroke-linecap="round"></path><path d="M 288.500,152.500 C 288.598,152.012 288.500,152.000 288.500,151.500" stroke-width="13.414" stroke="rgb(33,33,33)" fill="none" stroke-linecap="round"></path><path d="M 293.500,127.500 C 294.500,127.500 294.500,127.500 295.500,127.500" stroke-width="18.984" stroke="rgb(33,33,33)" fill="none" stroke-linecap="round"></path><path d="M 295.500,127.500 C 296.000,127.500 296.000,127.500 296.500,127.500" stroke-width="18.866" stroke="rgb(33,33,33)" fill="none" stroke-linecap="round"></path><path d="M 296.500,127.500 C 297.500,127.500 297.500,127.500 298.500,127.500" stroke-width="18.431" stroke="rgb(33,33,33)" fill="none" stroke-linecap="round"></path><path d="M 298.500,127.500 C 299.500,127.500 299.833,127.167 300.500,127.500" stroke-width="18.098" stroke="rgb(33,33,33)" fill="none" stroke-linecap="round"></path><path d="M 300.500,127.500 C 300.833,127.667 300.250,128.250 300.500,128.500" stroke-width="18.253" stroke="rgb(33,33,33)" fill="none" stroke-linecap="round"></path><path d="M 300.500,128.500 C 300.750,128.750 301.000,128.500 301.500,128.500" stroke-width="18.247" stroke="rgb(33,33,33)" fill="none" stroke-linecap="round"></path><path d="M 301.500,128.500 C 302.000,128.500 302.174,128.174 302.500,128.500" stroke-width="18.506" stroke="rgb(33,33,33)" fill="none" stroke-linecap="round"></path><path d="M 302.500,128.500 C 303.674,129.674 303.573,129.955 304.500,131.500" stroke-width="17.524" stroke="rgb(33,33,33)" fill="none" stroke-linecap="round"></path><path d="M 304.500,131.500 C 306.573,134.955 306.279,135.169 308.500,138.500" stroke-width="16.804" stroke="rgb(33,33,33)" fill="none" stroke-linecap="round"></path><path d="M 308.500,138.500 C 309.279,139.669 309.683,139.357 310.500,140.500" stroke-width="16.505" stroke="rgb(33,33,33)" fill="none" stroke-linecap="round"></path><path d="M 310.500,140.500 C 312.183,142.857 311.729,143.198 313.500,145.500" stroke-width="15.445" stroke="rgb(33,33,33)" fill="none" stroke-linecap="round"></path><path d="M 313.500,145.500 C 316.729,149.698 316.897,149.597 320.500,153.500" stroke-width="15.316" stroke="rgb(33,33,33)" fill="none" stroke-linecap="round"></path><path d="M 320.500,153.500 C 322.897,156.097 323.000,156.000 325.500,158.500" stroke-width="15.282" stroke="rgb(33,33,33)" fill="none" stroke-linecap="round"></path><path d="M 325.500,158.500 C 326.000,159.000 326.140,158.899 326.500,159.500" stroke-width="15.679" stroke="rgb(33,33,33)" fill="none" stroke-linecap="round"></path><path d="M 326.500,159.500 C 327.640,161.399 327.683,161.457 328.500,163.500" stroke-width="15.709" stroke="rgb(33,33,33)" fill="none" stroke-linecap="round"></path><path d="M 328.500,163.500 C 328.683,163.957 328.239,164.108 328.500,164.500" stroke-width="16.155" stroke="rgb(33,33,33)" fill="none" stroke-linecap="round"></path><path d="M 328.500,164.500 C 329.239,165.608 329.500,165.500 330.500,166.500" stroke-width="15.776" stroke="rgb(33,33,33)" fill="none" stroke-linecap="round"></path><path d="M 330.500,166.500 C 331.000,167.000 331.077,166.937 331.500,167.500" stroke-width="16.093" stroke="rgb(33,33,33)" fill="none" stroke-linecap="round"></path><path d="M 331.500,167.500 C 332.577,168.937 332.857,168.892 333.500,170.500" stroke-width="16.139" stroke="rgb(33,33,33)" fill="none" stroke-linecap="round"></path><path d="M 333.500,170.500 C 333.857,171.392 333.143,171.608 333.500,172.500" stroke-width="15.532" stroke="rgb(33,33,33)" fill="none" stroke-linecap="round"></path><path d="M 333.500,172.500 C 334.143,174.108 334.423,174.063 335.500,175.500" stroke-width="15.921" stroke="rgb(33,33,33)" fill="none" stroke-linecap="round"></path><path d="M 335.500,175.500 C 335.923,176.063 336.000,176.000 336.500,176.500" stroke-width="16.479" stroke="rgb(33,33,33)" fill="none" stroke-linecap="round"></path><path d="M 336.500,176.500 C 337.000,177.000 337.000,177.500 337.500,177.500" stroke-width="17.050" stroke="rgb(33,33,33)" fill="none" stroke-linecap="round"></path><path d="M 337.500,177.500 C 338.000,177.500 338.000,177.000 338.500,176.500" stroke-width="17.453" stroke="rgb(33,33,33)" fill="none" stroke-linecap="round"></path><path d="M 338.500,176.500 C 339.000,176.000 339.000,176.000 339.500,175.500" stroke-width="16.565" stroke="rgb(33,33,33)" fill="none" stroke-linecap="round"></path><path d="M 339.500,175.500 C 340.000,175.000 340.293,175.121 340.500,174.500" stroke-width="16.787" stroke="rgb(33,33,33)" fill="none" stroke-linecap="round"></path><path d="M 340.500,174.500 C 340.793,173.621 340.337,173.480 340.500,172.500" stroke-width="17.056" stroke="rgb(33,33,33)" fill="none" stroke-linecap="round"></path><path d="M 340.500,172.500 C 340.837,170.480 340.880,170.465 341.500,168.500" stroke-width="16.619" stroke="rgb(33,33,33)" fill="none" stroke-linecap="round"></path><path d="M 341.500,168.500 C 343.880,160.965 344.103,161.032 346.500,153.500" stroke-width="15.899" stroke="rgb(33,33,33)" fill="none" stroke-linecap="round"></path><path d="M 346.500,153.500 C 347.603,150.032 347.454,149.986 348.500,146.500" stroke-width="14.841" stroke="rgb(33,33,33)" fill="none" stroke-linecap="round"></path><path d="M 348.500,146.500 C 348.954,144.986 349.117,145.031 349.500,143.500" stroke-width="15.148" stroke="rgb(33,33,33)" fill="none" stroke-linecap="round"></path><path d="M 349.500,143.500 C 350.117,141.031 349.947,140.988 350.500,138.500" stroke-width="12.583" stroke="rgb(33,33,33)" fill="none" stroke-linecap="round"></path><path d="M 350.500,138.500 C 350.947,136.488 350.934,136.481 351.500,134.500" stroke-width="12.899" stroke="rgb(33,33,33)" fill="none" stroke-linecap="round"></path><path d="M 351.500,134.500 C 351.934,132.981 352.209,133.051 352.500,131.500" stroke-width="13.329" stroke="rgb(33,33,33)" fill="none" stroke-linecap="round"></path><path d="M 352.500,131.500 C 353.709,125.051 353.775,125.021 354.500,118.500" stroke-width="13.446" stroke="rgb(33,33,33)" fill="none" stroke-linecap="round"></path><path d="M 354.500,118.500 C 354.775,116.021 354.252,115.975 354.500,113.500" stroke-width="13.456" stroke="rgb(33,33,33)" fill="none" stroke-linecap="round"></path><path d="M 354.500,113.500 C 354.752,110.975 355.081,111.014 355.500,108.500" stroke-width="13.798" stroke="rgb(33,33,33)" fill="none" stroke-linecap="round"></path><path d="M 355.500,108.500 C 356.081,105.014 356.149,105.011 356.500,101.500" stroke-width="11.721" stroke="rgb(33,33,33)" fill="none" stroke-linecap="round"></path><path d="M 356.500,101.500 C 356.649,100.011 356.500,100.000 356.500,98.500" stroke-width="12.436" stroke="rgb(33,33,33)" fill="none" stroke-linecap="round"></path><path d="M 356.500,98.500 C 356.500,95.000 356.500,95.000 356.500,91.500" stroke-width="13.095" stroke="rgb(33,33,33)" fill="none" stroke-linecap="round"></path><path d="M 356.500,91.500 C 356.500,90.500 356.500,90.500 356.500,89.500" stroke-width="13.348" stroke="rgb(33,33,33)" fill="none" stroke-linecap="round"></path><path d="M 356.500,89.500 C 356.500,89.000 356.500,89.000 356.500,88.500" stroke-width="14.274" stroke="rgb(33,33,33)" fill="none" stroke-linecap="round"></path><path d="M 356.500,88.500 C 356.500,88.000 356.500,88.000 356.500,87.500" stroke-width="15.056" stroke="rgb(33,33,33)" fill="none" stroke-linecap="round"></path><path d="M 371.500,112.500 C 371.500,113.000 371.345,113.036 371.500,113.500" stroke-width="19.888" stroke="rgb(33,33,33)" fill="none" stroke-linecap="round"></path><path d="M 371.500,113.500 C 371.845,114.536 372.236,114.444 372.500,115.500" stroke-width="19.117" stroke="rgb(33,33,33)" fill="none" stroke-linecap="round"></path><path d="M 372.500,115.500 C 372.736,116.444 372.337,116.520 372.500,117.500" stroke-width="18.971" stroke="rgb(33,33,33)" fill="none" stroke-linecap="round"></path><path d="M 372.500,117.500 C 372.837,119.520 373.211,119.474 373.500,121.500" stroke-width="17.820" stroke="rgb(33,33,33)" fill="none" stroke-linecap="round"></path><path d="M 373.500,121.500 C 373.711,122.974 373.257,123.040 373.500,124.500" stroke-width="17.777" stroke="rgb(33,33,33)" fill="none" stroke-linecap="round"></path><path d="M 373.500,124.500 C 373.757,126.040 374.120,125.981 374.500,127.500" stroke-width="17.241" stroke="rgb(33,33,33)" fill="none" stroke-linecap="round"></path><path d="M 374.500,127.500 C 374.620,127.981 374.500,128.000 374.500,128.500" stroke-width="17.576" stroke="rgb(33,33,33)" fill="none" stroke-linecap="round"></path><path d="M 374.500,128.500 C 374.500,131.000 374.500,131.000 374.500,133.500" stroke-width="17.100" stroke="rgb(33,33,33)" fill="none" stroke-linecap="round"></path><path d="M 374.500,133.500 C 374.500,134.500 374.500,134.500 374.500,135.500" stroke-width="17.055" stroke="rgb(33,33,33)" fill="none" stroke-linecap="round"></path><path d="M 374.500,135.500 C 374.500,137.000 374.500,137.000 374.500,138.500" stroke-width="16.978" stroke="rgb(33,33,33)" fill="none" stroke-linecap="round"></path><path d="M 374.500,138.500 C 374.500,139.500 374.500,139.500 374.500,140.500" stroke-width="16.717" stroke="rgb(33,33,33)" fill="none" stroke-linecap="round"></path><path d="M 374.500,140.500 C 374.500,145.000 374.500,145.000 374.500,149.500" stroke-width="16.419" stroke="rgb(33,33,33)" fill="none" stroke-linecap="round"></path><path d="M 374.500,149.500 C 374.500,150.500 374.500,150.500 374.500,151.500" stroke-width="16.598" stroke="rgb(33,33,33)" fill="none" stroke-linecap="round"></path><path d="M 374.500,151.500 C 374.500,153.500 374.500,153.500 374.500,155.500" stroke-width="16.557" stroke="rgb(33,33,33)" fill="none" stroke-linecap="round"></path><path d="M 374.500,155.500 C 374.500,157.500 374.500,157.500 374.500,159.500" stroke-width="12.829" stroke="rgb(33,33,33)" fill="none" stroke-linecap="round"></path><path d="M 374.500,159.500 C 374.500,160.500 374.500,160.500 374.500,161.500" stroke-width="13.508" stroke="rgb(33,33,33)" fill="none" stroke-linecap="round"></path><path d="M 374.500,161.500 C 374.500,162.500 374.500,162.500 374.500,163.500" stroke-width="14.217" stroke="rgb(33,33,33)" fill="none" stroke-linecap="round"></path><path d="M 374.500,163.500 C 374.500,164.000 374.500,164.000 374.500,164.500" stroke-width="14.574" stroke="rgb(33,33,33)" fill="none" stroke-linecap="round"></path><path d="M 374.500,164.500 C 374.500,165.500 374.500,165.500 374.500,166.500" stroke-width="14.934" stroke="rgb(33,33,33)" fill="none" stroke-linecap="round"></path><path d="M 374.500,166.500 C 374.500,167.500 374.500,167.500 374.500,168.500" stroke-width="15.520" stroke="rgb(33,33,33)" fill="none" stroke-linecap="round"></path><path d="M 374.500,168.500 C 374.500,169.000 374.500,169.000 374.500,169.500" stroke-width="16.108" stroke="rgb(33,33,33)" fill="none" stroke-linecap="round"></path><path d="M 374.500,169.500 C 374.500,170.000 374.500,170.000 374.500,170.500" stroke-width="15.915" stroke="rgb(33,33,33)" fill="none" stroke-linecap="round"></path><path d="M 374.500,170.500 C 374.500,171.000 374.500,171.667 374.500,171.500" stroke-width="16.402" stroke="rgb(33,33,33)" fill="none" stroke-linecap="round"></path><path d="M 374.500,171.500 C 374.500,171.167 374.229,170.448 374.500,169.500" stroke-width="16.953" stroke="rgb(33,33,33)" fill="none" stroke-linecap="round"></path><path d="M 374.500,169.500 C 375.229,166.948 375.796,167.083 376.500,164.500" stroke-width="15.879" stroke="rgb(33,33,33)" fill="none" stroke-linecap="round"></path><path d="M 376.500,164.500 C 377.296,161.583 376.704,161.417 377.500,158.500" stroke-width="15.217" stroke="rgb(33,33,33)" fill="none" stroke-linecap="round"></path><path d="M 377.500,158.500 C 378.204,155.917 378.580,156.029 379.500,153.500" stroke-width="14.628" stroke="rgb(33,33,33)" fill="none" stroke-linecap="round"></path><path d="M 379.500,153.500 C 380.580,150.529 381.025,150.585 381.500,147.500" stroke-width="14.236" stroke="rgb(33,33,33)" fill="none" stroke-linecap="round"></path><path d="M 381.500,147.500 C 382.025,144.085 381.500,144.000 381.500,140.500" stroke-width="14.008" stroke="rgb(33,33,33)" fill="none" stroke-linecap="round"></path><path d="M 381.500,140.500 C 381.500,138.000 381.500,138.000 381.500,135.500" stroke-width="14.229" stroke="rgb(33,33,33)" fill="none" stroke-linecap="round"></path><path d="M 381.500,135.500 C 381.500,133.500 381.500,133.500 381.500,131.500" stroke-width="12.615" stroke="rgb(33,33,33)" fill="none" stroke-linecap="round"></path><path d="M 381.500,131.500 C 381.500,128.500 381.500,128.500 381.500,125.500" stroke-width="12.623" stroke="rgb(33,33,33)" fill="none" stroke-linecap="round"></path><path d="M 381.500,125.500 C 381.500,123.000 381.500,123.000 381.500,120.500" stroke-width="13.065" stroke="rgb(33,33,33)" fill="none" stroke-linecap="round"></path><path d="M 381.500,120.500 C 381.500,118.500 381.500,118.500 381.500,116.500" stroke-width="11.865" stroke="rgb(33,33,33)" fill="none" stroke-linecap="round"></path><path d="M 381.500,116.500 C 381.500,114.000 381.500,114.000 381.500,111.500" stroke-width="12.160" stroke="rgb(33,33,33)" fill="none" stroke-linecap="round"></path><path d="M 381.500,111.500 C 381.500,107.000 381.500,107.000 381.500,102.500" stroke-width="12.446" stroke="rgb(33,33,33)" fill="none" stroke-linecap="round"></path><path d="M 381.500,102.500 C 381.500,101.000 381.500,101.000 381.500,99.500" stroke-width="13.013" stroke="rgb(33,33,33)" fill="none" stroke-linecap="round"></path><path d="M 381.500,99.500 C 381.500,94.000 381.500,94.000 381.500,88.500" stroke-width="13.378" stroke="rgb(33,33,33)" fill="none" stroke-linecap="round"></path><path d="M 381.500,88.500 C 381.500,87.000 381.500,87.000 381.500,85.500" stroke-width="13.705" stroke="rgb(33,33,33)" fill="none" stroke-linecap="round"></path><path d="M 381.500,85.500 C 381.500,84.000 381.289,83.974 381.500,82.500" stroke-width="14.096" stroke="rgb(33,33,33)" fill="none" stroke-linecap="round"></path><path d="M 381.500,82.500 C 381.789,80.474 382.098,80.512 382.500,78.500" stroke-width="14.053" stroke="rgb(33,33,33)" fill="none" stroke-linecap="round"></path><path d="M 382.500,78.500 C 382.598,78.012 382.500,78.000 382.500,77.500" stroke-width="14.813" stroke="rgb(33,33,33)" fill="none" stroke-linecap="round"></path><path d="M 382.500,77.500 C 382.500,76.500 382.207,76.379 382.500,75.500" stroke-width="15.504" stroke="rgb(33,33,33)" fill="none" stroke-linecap="round"></path><path d="M 382.500,75.500 C 382.707,74.879 382.879,74.707 383.500,74.500" stroke-width="16.231" stroke="rgb(33,33,33)" fill="none" stroke-linecap="round"></path><path d="M 383.500,74.500 C 384.379,74.207 384.500,74.500 385.500,74.500" stroke-width="16.356" stroke="rgb(33,33,33)" fill="none" stroke-linecap="round"></path><path d="M 385.500,74.500 C 387.000,74.500 387.141,73.990 388.500,74.500" stroke-width="16.108" stroke="rgb(33,33,33)" fill="none" stroke-linecap="round"></path><path d="M 388.500,74.500 C 391.141,75.490 390.859,76.510 393.500,77.500" stroke-width="15.314" stroke="rgb(33,33,33)" fill="none" stroke-linecap="round"></path><path d="M 393.500,77.500 C 394.859,78.010 395.071,77.110 396.500,77.500" stroke-width="15.568" stroke="rgb(33,33,33)" fill="none" stroke-linecap="round"></path><path d="M 396.500,77.500 C 400.571,78.610 400.486,79.040 404.500,80.500" stroke-width="15.029" stroke="rgb(33,33,33)" fill="none" stroke-linecap="round"></path><path d="M 404.500,80.500 C 405.986,81.040 406.000,81.000 407.500,81.500" stroke-width="15.099" stroke="rgb(33,33,33)" fill="none" stroke-linecap="round"></path><path d="M 407.500,81.500 C 409.000,82.000 409.180,81.708 410.500,82.500" stroke-width="15.398" stroke="rgb(33,33,33)" fill="none" stroke-linecap="round"></path><path d="M 410.500,82.500 C 411.680,83.208 411.320,83.792 412.500,84.500" stroke-width="15.474" stroke="rgb(33,33,33)" fill="none" stroke-linecap="round"></path><path d="M 412.500,84.500 C 413.820,85.292 414.050,84.879 415.500,85.500" stroke-width="15.630" stroke="rgb(33,33,33)" fill="none" stroke-linecap="round"></path><path d="M 415.500,85.500 C 417.550,86.379 417.457,86.683 419.500,87.500" stroke-width="13.196" stroke="rgb(33,33,33)" fill="none" stroke-linecap="round"></path><path d="M 419.500,87.500 C 419.957,87.683 420.000,87.500 420.500,87.500" stroke-width="14.094" stroke="rgb(33,33,33)" fill="none" stroke-linecap="round"></path><path d="M 420.500,87.500 C 421.500,87.500 421.500,87.500 422.500,87.500" stroke-width="13.971" stroke="rgb(33,33,33)" fill="none" stroke-linecap="round"></path><circle r="6" cx="392.5" cy="127.5" fill="rgb(33,33,33)"></circle></svg>