<svg xmlns="http://www.w3.org/2000/svg" xmlns:xlink="http://www.w3.org/1999/xlink" viewBox="0 0 375 500"><path d="M 191.000,78.750 C 184.500,84.250 184.140,83.877 178.000,89.750" stroke-width="14.203" stroke="rgb(33,33,33)" fill="none" stroke-linecap="round"></path><path d="M 178.000,89.750 C 172.640,94.877 173.475,95.772 168.000,100.750" stroke-width="13.448" stroke="rgb(33,33,33)" fill="none" stroke-linecap="round"></path><path d="M 168.000,100.750 C 162.475,105.772 161.755,104.954 156.000,109.750" stroke-width="11.046" stroke="rgb(33,33,33)" fill="none" stroke-linecap="round"></path><path d="M 156.000,109.750 C 149.755,114.954 150.083,115.343 144.000,120.750" stroke-width="10.961" stroke="rgb(33,33,33)" fill="none" stroke-linecap="round"></path><path d="M 144.000,120.750 C 136.583,127.343 136.259,126.991 129.000,133.750" stroke-width="10.514" stroke="rgb(33,33,33)" fill="none" stroke-linecap="round"></path><path d="M 129.000,133.750 C 121.759,140.491 122.000,140.750 115.000,147.750" stroke-width="10.101" stroke="rgb(33,33,33)" fill="none" stroke-linecap="round"></path><path d="M 115.000,147.750 C 107.500,155.250 107.371,155.125 100.000,162.750" stroke-width="9.862" stroke="rgb(33,33,33)" fill="none" stroke-linecap="round"></path><path d="M 100.000,162.750 C 92.871,170.125 92.693,169.987 86.000,177.750" stroke-width="9.716" stroke="rgb(33,33,33)" fill="none" stroke-linecap="round"></path><path d="M 86.000,177.750 C 80.193,184.487 80.746,184.959 75.000,191.750" stroke-width="9.690" stroke="rgb(33,33,33)" fill="none" stroke-linecap="round"></path><path d="M 75.000,191.750 C 69.746,197.959 69.143,197.464 64.000,203.750" stroke-width="9.814" stroke="rgb(33,33,33)" fill="none" stroke-linecap="round"></path><path d="M 64.000,203.750 C 60.143,208.464 60.703,208.908 57.000,213.750" stroke-width="10.195" stroke="rgb(33,33,33)" fill="none" stroke-linecap="round"></path><path d="M 57.000,213.750 C 54.203,217.408 53.845,217.129 51.000,220.750" stroke-width="10.634" stroke="rgb(33,33,33)" fill="none" stroke-linecap="round"></path><path d="M 51.000,220.750 C 48.345,224.129 48.247,224.098 46.000,227.750" stroke-width="11.060" stroke="rgb(33,33,33)" fill="none" stroke-linecap="round"></path><path d="M 46.000,227.750 C 44.247,230.598 44.239,230.653 43.000,233.750" stroke-width="11.613" stroke="rgb(33,33,33)" fill="none" stroke-linecap="round"></path><path d="M 43.000,233.750 C 42.239,235.653 42.745,235.888 42.000,237.750" stroke-width="12.299" stroke="rgb(33,33,33)" fill="none" stroke-linecap="round"></path><path d="M 42.000,237.750 C 41.745,238.388 40.718,239.174 41.000,238.750" stroke-width="13.202" stroke="rgb(33,33,33)" fill="none" stroke-linecap="round"></path><path d="M 41.000,238.750 C 42.718,236.174 43.151,234.955 46.000,231.750" stroke-width="13.690" stroke="rgb(33,33,33)" fill="none" stroke-linecap="round"></path><path d="M 46.000,231.750 C 51.151,225.955 51.390,226.136 57.000,220.750" stroke-width="13.012" stroke="rgb(33,33,33)" fill="none" stroke-linecap="round"></path><path d="M 57.000,220.750 C 63.890,214.136 64.031,214.283 71.000,207.750" stroke-width="12.128" stroke="rgb(33,33,33)" fill="none" stroke-linecap="round"></path><path d="M 71.000,207.750 C 80.031,199.283 80.250,199.500 89.000,190.750" stroke-width="11.182" stroke="rgb(33,33,33)" fill="none" stroke-linecap="round"></path><path d="M 89.000,190.750 C 97.250,182.500 96.750,182.000 105.000,173.750" stroke-width="10.332" stroke="rgb(33,33,33)" fill="none" stroke-linecap="round"></path><path d="M 105.000,173.750 C 113.250,165.500 113.750,166.000 122.000,157.750" stroke-width="9.739" stroke="rgb(33,33,33)" fill="none" stroke-linecap="round"></path><path d="M 122.000,157.750 C 130.250,149.500 129.751,148.999 138.000,140.750" stroke-width="9.471" stroke="rgb(33,33,33)" fill="none" stroke-linecap="round"></path><path d="M 138.000,140.750 C 144.251,134.499 144.900,135.127 151.000,128.750" stroke-width="9.558" stroke="rgb(33,33,33)" fill="none" stroke-linecap="round"></path><path d="M 151.000,128.750 C 155.900,123.627 155.284,123.055 160.000,117.750" stroke-width="9.820" stroke="rgb(33,33,33)" fill="none" stroke-linecap="round"></path><path d="M 160.000,117.750 C 163.284,114.055 163.660,114.393 167.000,110.750" stroke-width="10.299" stroke="rgb(33,33,33)" fill="none" stroke-linecap="round"></path><path d="M 167.000,110.750 C 169.160,108.393 168.761,107.989 171.000,105.750" stroke-width="10.929" stroke="rgb(33,33,33)" fill="none" stroke-linecap="round"></path><path d="M 171.000,105.750 C 172.261,104.489 172.563,104.827 174.000,103.750" stroke-width="11.723" stroke="rgb(33,33,33)" fill="none" stroke-linecap="round"></path><path d="M 174.000,103.750 C 174.563,103.327 175.073,102.238 175.000,102.750" stroke-width="12.668" stroke="rgb(33,33,33)" fill="none" stroke-linecap="round"></path><path d="M 175.000,102.750 C 174.573,105.738 174.352,106.864 173.000,110.750" stroke-width="13.258" stroke="rgb(33,33,33)" fill="none" stroke-linecap="round"></path><path d="M 173.000,110.750 C 170.352,118.364 170.411,118.441 167.000,125.750" stroke-width="12.562" stroke="rgb(33,33,33)" fill="none" stroke-linecap="round"></path><path d="M 167.000,125.750 C 163.411,133.441 162.800,133.150 159.000,140.750" stroke-width="11.897" stroke="rgb(33,33,33)" fill="none" stroke-linecap="round"></path><path d="M 159.000,140.750 C 154.800,149.150 155.312,149.414 151.000,157.750" stroke-width="11.359" stroke="rgb(33,33,33)" fill="none" stroke-linecap="round"></path><path d="M 151.000,157.750 C 147.812,163.914 147.098,163.554 144.000,169.750" stroke-width="11.251" stroke="rgb(33,33,33)" fill="none" stroke-linecap="round"></path><path d="M 144.000,169.750 C 141.598,174.554 142.120,174.804 140.000,179.750" stroke-width="11.463" stroke="rgb(33,33,33)" fill="none" stroke-linecap="round"></path><path d="M 140.000,179.750 C 139.120,181.804 138.817,181.707 138.000,183.750" stroke-width="12.156" stroke="rgb(33,33,33)" fill="none" stroke-linecap="round"></path><path d="M 138.000,183.750 C 137.817,184.207 138.000,185.000 138.000,184.750" stroke-width="13.111" stroke="rgb(33,33,33)" fill="none" stroke-linecap="round"></path><path d="M 138.000,184.750 C 138.000,184.000 137.310,183.032 138.000,181.750" stroke-width="13.786" stroke="rgb(33,33,33)" fill="none" stroke-linecap="round"></path><path d="M 138.000,181.750 C 140.810,176.532 141.012,176.308 145.000,171.750" stroke-width="13.255" stroke="rgb(33,33,33)" fill="none" stroke-linecap="round"></path><path d="M 145.000,171.750 C 148.012,168.308 148.576,168.832 152.000,165.750" stroke-width="13.172" stroke="rgb(33,33,33)" fill="none" stroke-linecap="round"></path><path d="M 152.000,165.750 C 153.576,164.332 153.378,164.101 155.000,162.750" stroke-width="13.655" stroke="rgb(33,33,33)" fill="none" stroke-linecap="round"></path><path d="M 155.000,162.750 C 156.378,161.601 156.434,161.533 158.000,160.750" stroke-width="14.173" stroke="rgb(33,33,33)" fill="none" stroke-linecap="round"></path><path d="M 158.000,160.750 C 158.434,160.533 158.500,160.750 159.000,160.750" stroke-width="14.947" stroke="rgb(33,33,33)" fill="none" stroke-linecap="round"></path><path d="M 159.000,160.750 C 159.500,160.750 159.875,160.375 160.000,160.750" stroke-width="15.630" stroke="rgb(33,33,33)" fill="none" stroke-linecap="round"></path><path d="M 160.000,160.750 C 160.375,161.875 160.000,162.250 160.000,163.750" stroke-width="16.133" stroke="rgb(33,33,33)" fill="none" stroke-linecap="round"></path><path d="M 160.000,163.750 C 160.000,164.750 160.000,164.750 160.000,165.750" stroke-width="16.512" stroke="rgb(33,33,33)" fill="none" stroke-linecap="round"></path><path d="M 160.000,165.750 C 160.000,167.250 160.000,167.250 160.000,168.750" stroke-width="16.617" stroke="rgb(33,33,33)" fill="none" stroke-linecap="round"></path><path d="M 160.000,168.750 C 160.000,170.750 160.000,170.750 160.000,172.750" stroke-width="16.572" stroke="rgb(33,33,33)" fill="none" stroke-linecap="round"></path><path d="M 160.000,172.750 C 160.000,173.750 160.000,173.750 160.000,174.750" stroke-width="16.860" stroke="rgb(33,33,33)" fill="none" stroke-linecap="round"></path><path d="M 160.000,174.750 C 160.000,175.750 160.000,175.750 160.000,176.750" stroke-width="17.076" stroke="rgb(33,33,33)" fill="none" stroke-linecap="round"></path><path d="M 160.000,176.750 C 160.000,177.250 159.576,177.750 160.000,177.750" stroke-width="17.450" stroke="rgb(33,33,33)" fill="none" stroke-linecap="round"></path><path d="M 160.000,177.750 C 162.576,177.750 163.255,177.894 166.000,176.750" stroke-width="17.361" stroke="rgb(33,33,33)" fill="none" stroke-linecap="round"></path><path d="M 166.000,176.750 C 169.255,175.394 168.796,174.352 172.000,172.750" stroke-width="16.691" stroke="rgb(33,33,33)" fill="none" stroke-linecap="round"></path><path d="M 172.000,172.750 C 175.796,170.852 175.972,171.172 180.000,169.750" stroke-width="15.931" stroke="rgb(33,33,33)" fill="none" stroke-linecap="round"></path><path d="M 180.000,169.750 C 184.472,168.172 184.453,168.087 189.000,166.750" stroke-width="15.243" stroke="rgb(33,33,33)" fill="none" stroke-linecap="round"></path><path d="M 189.000,166.750 C 192.953,165.587 193.000,165.750 197.000,164.750" stroke-width="14.826" stroke="rgb(33,33,33)" fill="none" stroke-linecap="round"></path><path d="M 197.000,164.750 C 203.000,163.250 203.091,163.548 209.000,161.750" stroke-width="14.080" stroke="rgb(33,33,33)" fill="none" stroke-linecap="round"></path><path d="M 209.000,161.750 C 214.591,160.048 214.409,159.452 220.000,157.750" stroke-width="13.528" stroke="rgb(33,33,33)" fill="none" stroke-linecap="round"></path><path d="M 220.000,157.750 C 225.909,155.952 225.919,155.763 232.000,154.750" stroke-width="13.124" stroke="rgb(33,33,33)" fill="none" stroke-linecap="round"></path><path d="M 232.000,154.750 C 237.919,153.763 238.004,154.295 244.000,153.750" stroke-width="12.776" stroke="rgb(33,33,33)" fill="none" stroke-linecap="round"></path><path d="M 244.000,153.750 C 249.004,153.295 248.987,152.989 254.000,152.750" stroke-width="12.766" stroke="rgb(33,33,33)" fill="none" stroke-linecap="round"></path><path d="M 254.000,152.750 C 259.487,152.489 259.510,152.989 265.000,152.750" stroke-width="12.669" stroke="rgb(33,33,33)" fill="none" stroke-linecap="round"></path><path d="M 265.000,152.750 C 271.010,152.489 270.991,152.036 277.000,151.750" stroke-width="12.497" stroke="rgb(33,33,33)" fill="none" stroke-linecap="round"></path><path d="M 277.000,151.750 C 281.491,151.536 281.532,152.069 286.000,151.750" stroke-width="12.639" stroke="rgb(33,33,33)" fill="none" stroke-linecap="round"></path><path d="M 286.000,151.750 C 288.532,151.569 288.486,151.109 291.000,150.750" stroke-width="13.103" stroke="rgb(33,33,33)" fill="none" stroke-linecap="round"></path><path d="M 291.000,150.750 C 291.986,150.609 293.500,150.750 293.000,150.750" stroke-width="13.857" stroke="rgb(33,33,33)" fill="none" stroke-linecap="round"></path><path d="M 293.000,150.750 C 291.500,150.750 289.963,150.316 287.000,150.750" stroke-width="14.066" stroke="rgb(33,33,33)" fill="none" stroke-linecap="round"></path><path d="M 287.000,150.750 C 269.463,153.316 269.415,153.313 252.000,156.750" stroke-width="11.444" stroke="rgb(33,33,33)" fill="none" stroke-linecap="round"></path><path d="M 252.000,156.750 C 231.415,160.813 231.428,160.943 211.000,165.750" stroke-width="9.461" stroke="rgb(33,33,33)" fill="none" stroke-linecap="round"></path><path d="M 211.000,165.750 C 188.928,170.943 188.802,170.559 167.000,176.750" stroke-width="8.279" stroke="rgb(33,33,33)" fill="none" stroke-linecap="round"></path><path d="M 167.000,176.750 C 148.302,182.059 148.168,181.900 130.000,188.750" stroke-width="7.746" stroke="rgb(33,33,33)" fill="none" stroke-linecap="round"></path><path d="M 130.000,188.750 C 117.668,193.400 117.524,193.412 106.000,199.750" stroke-width="7.725" stroke="rgb(33,33,33)" fill="none" stroke-linecap="round"></path><circle r="6" cx="231" cy="183.75" fill="rgb(33,33,33)"></circle></svg>