<svg xmlns="http://www.w3.org/2000/svg" xmlns:xlink="http://www.w3.org/1999/xlink" viewBox="0 0 800 500"><path d="M 361.500,102.000 C 361.500,101.500 361.500,100.833 361.500,101.000" stroke-width="20.000" stroke="rgb(33,33,33)" fill="none" stroke-linecap="round"></path><path d="M 361.500,101.000 C 361.500,101.333 361.500,102.000 361.500,103.000" stroke-width="20.006" stroke="rgb(33,33,33)" fill="none" stroke-linecap="round"></path><path d="M 361.500,103.000 C 361.500,104.000 361.678,104.020 361.500,105.000" stroke-width="19.108" stroke="rgb(33,33,33)" fill="none" stroke-linecap="round"></path><path d="M 361.500,105.000 C 360.678,109.520 360.618,109.530 359.500,114.000" stroke-width="18.348" stroke="rgb(33,33,33)" fill="none" stroke-linecap="round"></path><path d="M 359.500,114.000 C 358.618,117.530 359.080,117.841 357.500,121.000" stroke-width="17.463" stroke="rgb(33,33,33)" fill="none" stroke-linecap="round"></path><path d="M 357.500,121.000 C 356.580,122.841 355.646,122.281 354.500,124.000" stroke-width="14.357" stroke="rgb(33,33,33)" fill="none" stroke-linecap="round"></path><path d="M 354.500,124.000 C 353.646,125.281 354.055,125.520 353.500,127.000" stroke-width="14.388" stroke="rgb(33,33,33)" fill="none" stroke-linecap="round"></path><path d="M 353.500,127.000 C 352.555,129.520 352.467,129.487 351.500,132.000" stroke-width="13.864" stroke="rgb(33,33,33)" fill="none" stroke-linecap="round"></path><path d="M 351.500,132.000 C 349.967,135.987 349.772,135.929 348.500,140.000" stroke-width="13.785" stroke="rgb(33,33,33)" fill="none" stroke-linecap="round"></path><path d="M 348.500,140.000 C 347.272,143.929 347.663,144.047 346.500,148.000" stroke-width="13.755" stroke="rgb(33,33,33)" fill="none" stroke-linecap="round"></path><path d="M 346.500,148.000 C 345.163,152.547 345.078,152.528 343.500,157.000" stroke-width="13.533" stroke="rgb(33,33,33)" fill="none" stroke-linecap="round"></path><path d="M 343.500,157.000 C 342.078,161.028 341.753,160.929 340.500,165.000" stroke-width="13.572" stroke="rgb(33,33,33)" fill="none" stroke-linecap="round"></path><path d="M 340.500,165.000 C 339.753,167.429 340.364,167.625 339.500,170.000" stroke-width="13.931" stroke="rgb(33,33,33)" fill="none" stroke-linecap="round"></path><path d="M 339.500,170.000 C 338.364,173.125 337.636,172.875 336.500,176.000" stroke-width="14.045" stroke="rgb(33,33,33)" fill="none" stroke-linecap="round"></path><path d="M 336.500,176.000 C 335.636,178.375 336.117,178.531 335.500,181.000" stroke-width="14.327" stroke="rgb(33,33,33)" fill="none" stroke-linecap="round"></path><path d="M 335.500,181.000 C 335.117,182.531 335.000,182.500 334.500,184.000" stroke-width="10.315" stroke="rgb(33,33,33)" fill="none" stroke-linecap="round"></path><path d="M 334.500,184.000 C 333.500,187.000 333.713,187.088 332.500,190.000" stroke-width="11.000" stroke="rgb(33,33,33)" fill="none" stroke-linecap="round"></path><path d="M 332.500,190.000 C 331.213,193.088 331.000,193.000 329.500,196.000" stroke-width="11.561" stroke="rgb(33,33,33)" fill="none" stroke-linecap="round"></path><path d="M 329.500,196.000 C 329.000,197.000 328.892,196.955 328.500,198.000" stroke-width="11.977" stroke="rgb(33,33,33)" fill="none" stroke-linecap="round"></path><path d="M 328.500,198.000 C 327.392,200.955 327.608,201.045 326.500,204.000" stroke-width="12.597" stroke="rgb(33,33,33)" fill="none" stroke-linecap="round"></path><path d="M 326.500,204.000 C 326.108,205.045 325.940,204.973 325.500,206.000" stroke-width="11.844" stroke="rgb(33,33,33)" fill="none" stroke-linecap="round"></path><path d="M 325.500,206.000 C 324.440,208.473 324.445,208.480 323.500,211.000" stroke-width="12.385" stroke="rgb(33,33,33)" fill="none" stroke-linecap="round"></path><path d="M 323.500,211.000 C 322.945,212.480 323.292,212.680 322.500,214.000" stroke-width="13.165" stroke="rgb(33,33,33)" fill="none" stroke-linecap="round"></path><path d="M 322.500,214.000 C 321.792,215.180 321.338,214.883 320.500,216.000" stroke-width="13.834" stroke="rgb(33,33,33)" fill="none" stroke-linecap="round"></path><path d="M 320.500,216.000 C 319.838,216.883 320.162,217.117 319.500,218.000" stroke-width="11.137" stroke="rgb(33,33,33)" fill="none" stroke-linecap="round"></path><path d="M 319.500,218.000 C 318.662,219.117 318.239,218.892 317.500,220.000" stroke-width="11.983" stroke="rgb(33,33,33)" fill="none" stroke-linecap="round"></path><path d="M 317.500,220.000 C 317.239,220.392 317.707,220.586 317.500,221.000" stroke-width="12.950" stroke="rgb(33,33,33)" fill="none" stroke-linecap="round"></path><path d="M 317.500,221.000 C 317.207,221.586 317.081,221.613 316.500,222.000" stroke-width="13.798" stroke="rgb(33,33,33)" fill="none" stroke-linecap="round"></path><path d="M 316.500,222.000 C 315.581,222.613 315.419,222.387 314.500,223.000" stroke-width="14.475" stroke="rgb(33,33,33)" fill="none" stroke-linecap="round"></path><path d="M 314.500,223.000 C 313.919,223.387 314.086,223.707 313.500,224.000" stroke-width="15.160" stroke="rgb(33,33,33)" fill="none" stroke-linecap="round"></path><path d="M 313.500,224.000 C 313.086,224.207 313.000,224.000 312.500,224.000" stroke-width="15.823" stroke="rgb(33,33,33)" fill="none" stroke-linecap="round"></path><path d="M 312.500,224.000 C 311.500,224.000 311.500,224.000 310.500,224.000" stroke-width="12.471" stroke="rgb(33,33,33)" fill="none" stroke-linecap="round"></path><path d="M 310.500,224.000 C 309.000,224.000 309.000,224.000 307.500,224.000" stroke-width="13.278" stroke="rgb(33,33,33)" fill="none" stroke-linecap="round"></path><path d="M 307.500,224.000 C 305.500,224.000 305.500,224.000 303.500,224.000" stroke-width="11.126" stroke="rgb(33,33,33)" fill="none" stroke-linecap="round"></path><path d="M 303.500,224.000 C 300.000,224.000 300.000,224.000 296.500,224.000" stroke-width="11.648" stroke="rgb(33,33,33)" fill="none" stroke-linecap="round"></path><path d="M 296.500,224.000 C 292.000,224.000 292.000,224.000 287.500,224.000" stroke-width="12.048" stroke="rgb(33,33,33)" fill="none" stroke-linecap="round"></path><path d="M 287.500,224.000 C 284.000,224.000 283.924,224.571 280.500,224.000" stroke-width="12.447" stroke="rgb(33,33,33)" fill="none" stroke-linecap="round"></path><path d="M 280.500,224.000 C 274.924,223.071 275.008,222.469 269.500,221.000" stroke-width="12.380" stroke="rgb(33,33,33)" fill="none" stroke-linecap="round"></path><path d="M 269.500,221.000 C 267.508,220.469 267.367,220.800 265.500,220.000" stroke-width="13.005" stroke="rgb(33,33,33)" fill="none" stroke-linecap="round"></path><path d="M 265.500,220.000 C 263.867,219.300 263.878,219.149 262.500,218.000" stroke-width="13.608" stroke="rgb(33,33,33)" fill="none" stroke-linecap="round"></path><path d="M 262.500,218.000 C 260.878,216.649 260.877,216.607 259.500,215.000" stroke-width="14.059" stroke="rgb(33,33,33)" fill="none" stroke-linecap="round"></path><path d="M 259.500,215.000 C 257.877,213.107 258.035,212.973 256.500,211.000" stroke-width="14.414" stroke="rgb(33,33,33)" fill="none" stroke-linecap="round"></path><path d="M 256.500,211.000 C 254.535,208.473 254.099,208.740 252.500,206.000" stroke-width="14.472" stroke="rgb(33,33,33)" fill="none" stroke-linecap="round"></path><path d="M 252.500,206.000 C 250.599,202.740 250.483,202.606 249.500,199.000" stroke-width="14.372" stroke="rgb(33,33,33)" fill="none" stroke-linecap="round"></path><path d="M 249.500,199.000 C 248.983,197.106 249.500,197.000 249.500,195.000" stroke-width="14.868" stroke="rgb(33,33,33)" fill="none" stroke-linecap="round"></path><path d="M 249.500,195.000 C 249.500,194.500 249.500,194.500 249.500,194.000" stroke-width="15.609" stroke="rgb(33,33,33)" fill="none" stroke-linecap="round"></path><path d="M 249.500,194.000 C 249.500,193.500 249.250,193.250 249.500,193.000" stroke-width="15.990" stroke="rgb(33,33,33)" fill="none" stroke-linecap="round"></path><path d="M 249.500,193.000 C 249.750,192.750 250.006,193.071 250.500,193.000" stroke-width="16.607" stroke="rgb(33,33,33)" fill="none" stroke-linecap="round"></path><path d="M 250.500,193.000 C 253.506,192.571 253.490,192.376 256.500,192.000" stroke-width="16.485" stroke="rgb(33,33,33)" fill="none" stroke-linecap="round"></path><path d="M 256.500,192.000 C 257.490,191.876 257.500,192.000 258.500,192.000" stroke-width="16.767" stroke="rgb(33,33,33)" fill="none" stroke-linecap="round"></path><path d="M 258.500,192.000 C 259.000,192.000 259.000,192.000 259.500,192.000" stroke-width="14.822" stroke="rgb(33,33,33)" fill="none" stroke-linecap="round"></path><path d="M 259.500,192.000 C 261.500,192.000 261.500,192.000 263.500,192.000" stroke-width="15.112" stroke="rgb(33,33,33)" fill="none" stroke-linecap="round"></path><path d="M 263.500,192.000 C 265.500,192.000 265.500,192.000 267.500,192.000" stroke-width="15.410" stroke="rgb(33,33,33)" fill="none" stroke-linecap="round"></path><path d="M 267.500,192.000 C 270.000,192.000 270.000,192.000 272.500,192.000" stroke-width="15.457" stroke="rgb(33,33,33)" fill="none" stroke-linecap="round"></path><path d="M 272.500,192.000 C 275.500,192.000 275.579,191.513 278.500,192.000" stroke-width="15.356" stroke="rgb(33,33,33)" fill="none" stroke-linecap="round"></path><path d="M 278.500,192.000 C 281.579,192.513 281.455,193.170 284.500,194.000" stroke-width="15.281" stroke="rgb(33,33,33)" fill="none" stroke-linecap="round"></path><path d="M 284.500,194.000 C 286.955,194.670 287.125,194.136 289.500,195.000" stroke-width="8.882" stroke="rgb(33,33,33)" fill="none" stroke-linecap="round"></path><path d="M 289.500,195.000 C 292.625,196.136 292.449,196.613 295.500,198.000" stroke-width="9.630" stroke="rgb(33,33,33)" fill="none" stroke-linecap="round"></path><path d="M 295.500,198.000 C 297.949,199.113 297.917,199.296 300.500,200.000" stroke-width="9.821" stroke="rgb(33,33,33)" fill="none" stroke-linecap="round"></path><path d="M 300.500,200.000 C 303.417,200.796 303.583,200.204 306.500,201.000" stroke-width="10.541" stroke="rgb(33,33,33)" fill="none" stroke-linecap="round"></path><path d="M 306.500,201.000 C 309.083,201.704 308.970,202.157 311.500,203.000" stroke-width="11.249" stroke="rgb(33,33,33)" fill="none" stroke-linecap="round"></path><path d="M 311.500,203.000 C 311.970,203.157 312.036,202.845 312.500,203.000" stroke-width="12.259" stroke="rgb(33,33,33)" fill="none" stroke-linecap="round"></path><path d="M 312.500,203.000 C 313.536,203.345 313.581,203.387 314.500,204.000" stroke-width="13.083" stroke="rgb(33,33,33)" fill="none" stroke-linecap="round"></path><path d="M 314.500,204.000 C 315.081,204.387 315.207,204.414 315.500,205.000" stroke-width="13.918" stroke="rgb(33,33,33)" fill="none" stroke-linecap="round"></path><path d="M 315.500,205.000 C 315.707,205.414 315.293,205.586 315.500,206.000" stroke-width="14.764" stroke="rgb(33,33,33)" fill="none" stroke-linecap="round"></path><path d="M 315.500,206.000 C 315.793,206.586 315.949,206.559 316.500,207.000" stroke-width="12.815" stroke="rgb(33,33,33)" fill="none" stroke-linecap="round"></path><path d="M 316.500,207.000 C 318.449,208.559 318.453,208.567 320.500,210.000" stroke-width="13.395" stroke="rgb(33,33,33)" fill="none" stroke-linecap="round"></path><path d="M 320.500,210.000 C 323.453,212.067 323.547,211.933 326.500,214.000" stroke-width="13.552" stroke="rgb(33,33,33)" fill="none" stroke-linecap="round"></path><path d="M 326.500,214.000 C 328.547,215.433 328.399,215.650 330.500,217.000" stroke-width="11.714" stroke="rgb(33,33,33)" fill="none" stroke-linecap="round"></path><path d="M 330.500,217.000 C 335.399,220.150 335.571,219.887 340.500,223.000" stroke-width="11.772" stroke="rgb(33,33,33)" fill="none" stroke-linecap="round"></path><path d="M 340.500,223.000 C 345.071,225.887 344.960,226.062 349.500,229.000" stroke-width="11.888" stroke="rgb(33,33,33)" fill="none" stroke-linecap="round"></path><path d="M 349.500,229.000 C 353.460,231.562 353.267,232.024 357.500,234.000" stroke-width="12.144" stroke="rgb(33,33,33)" fill="none" stroke-linecap="round"></path><path d="M 357.500,234.000 C 360.767,235.524 361.093,234.761 364.500,236.000" stroke-width="12.503" stroke="rgb(33,33,33)" fill="none" stroke-linecap="round"></path><path d="M 364.500,236.000 C 366.593,236.761 366.457,237.183 368.500,238.000" stroke-width="13.103" stroke="rgb(33,33,33)" fill="none" stroke-linecap="round"></path><path d="M 368.500,238.000 C 368.957,238.183 369.000,238.000 369.500,238.000" stroke-width="13.984" stroke="rgb(33,33,33)" fill="none" stroke-linecap="round"></path><path d="M 369.500,238.000 C 370.500,238.000 370.500,238.000 371.500,238.000" stroke-width="14.795" stroke="rgb(33,33,33)" fill="none" stroke-linecap="round"></path><path d="M 371.500,238.000 C 375.500,238.000 375.500,238.000 379.500,238.000" stroke-width="14.768" stroke="rgb(33,33,33)" fill="none" stroke-linecap="round"></path><path d="M 379.500,238.000 C 384.500,238.000 384.500,238.000 389.500,238.000" stroke-width="14.241" stroke="rgb(33,33,33)" fill="none" stroke-linecap="round"></path><path d="M 389.500,238.000 C 392.500,238.000 392.500,238.000 395.500,238.000" stroke-width="14.457" stroke="rgb(33,33,33)" fill="none" stroke-linecap="round"></path><path d="M 395.500,238.000 C 397.000,238.000 397.000,238.000 398.500,238.000" stroke-width="10.544" stroke="rgb(33,33,33)" fill="none" stroke-linecap="round"></path><path d="M 398.500,238.000 C 399.500,238.000 399.500,238.000 400.500,238.000" stroke-width="11.506" stroke="rgb(33,33,33)" fill="none" stroke-linecap="round"></path><path d="M 400.500,238.000 C 401.000,238.000 401.086,238.207 401.500,238.000" stroke-width="12.502" stroke="rgb(33,33,33)" fill="none" stroke-linecap="round"></path><path d="M 401.500,238.000 C 402.086,237.707 401.914,237.293 402.500,237.000" stroke-width="13.522" stroke="rgb(33,33,33)" fill="none" stroke-linecap="round"></path><path d="M 402.500,237.000 C 402.914,236.793 403.333,237.333 403.500,237.000" stroke-width="14.230" stroke="rgb(33,33,33)" fill="none" stroke-linecap="round"></path><path d="M 403.500,237.000 C 403.833,236.333 403.143,235.892 403.500,235.000" stroke-width="14.585" stroke="rgb(33,33,33)" fill="none" stroke-linecap="round"></path><path d="M 403.500,235.000 C 404.143,233.392 404.717,233.566 405.500,232.000" stroke-width="15.210" stroke="rgb(33,33,33)" fill="none" stroke-linecap="round"></path><path d="M 405.500,232.000 C 405.717,231.566 405.500,231.500 405.500,231.000" stroke-width="15.868" stroke="rgb(33,33,33)" fill="none" stroke-linecap="round"></path><path d="M 405.500,231.000 C 405.500,230.500 405.500,230.500 405.500,230.000" stroke-width="16.482" stroke="rgb(33,33,33)" fill="none" stroke-linecap="round"></path><path d="M 405.500,230.000 C 405.500,229.500 405.500,229.500 405.500,229.000" stroke-width="17.029" stroke="rgb(33,33,33)" fill="none" stroke-linecap="round"></path><path d="M 405.500,229.000 C 405.500,228.500 405.500,228.500 405.500,228.000" stroke-width="17.437" stroke="rgb(33,33,33)" fill="none" stroke-linecap="round"></path><path d="M 405.500,228.000 C 405.500,227.500 405.500,227.500 405.500,227.000" stroke-width="17.750" stroke="rgb(33,33,33)" fill="none" stroke-linecap="round"></path><path d="M 405.500,227.000 C 405.500,226.500 405.500,226.500 405.500,226.000" stroke-width="18.020" stroke="rgb(33,33,33)" fill="none" stroke-linecap="round"></path><path d="M 405.500,226.000 C 405.500,225.500 405.500,225.500 405.500,225.000" stroke-width="16.889" stroke="rgb(33,33,33)" fill="none" stroke-linecap="round"></path><path d="M 405.500,225.000 C 405.500,224.000 405.500,224.000 405.500,223.000" stroke-width="17.100" stroke="rgb(33,33,33)" fill="none" stroke-linecap="round"></path><path d="M 405.500,223.000 C 405.500,222.500 405.500,222.500 405.500,222.000" stroke-width="17.470" stroke="rgb(33,33,33)" fill="none" stroke-linecap="round"></path><path d="M 405.500,222.000 C 405.500,221.000 405.793,220.879 405.500,220.000" stroke-width="17.596" stroke="rgb(33,33,33)" fill="none" stroke-linecap="round"></path><path d="M 405.500,220.000 C 405.293,219.379 405.000,219.500 404.500,219.000" stroke-width="17.833" stroke="rgb(33,33,33)" fill="none" stroke-linecap="round"></path><path d="M 404.500,219.000 C 403.500,218.000 403.500,218.000 402.500,217.000" stroke-width="17.736" stroke="rgb(33,33,33)" fill="none" stroke-linecap="round"></path><path d="M 402.500,217.000 C 402.000,216.500 402.000,216.500 401.500,216.000" stroke-width="14.503" stroke="rgb(33,33,33)" fill="none" stroke-linecap="round"></path><path d="M 401.500,216.000 C 401.000,215.500 401.141,215.160 400.500,215.000" stroke-width="14.974" stroke="rgb(33,33,33)" fill="none" stroke-linecap="round"></path><path d="M 400.500,215.000 C 399.141,214.660 398.859,215.340 397.500,215.000" stroke-width="15.417" stroke="rgb(33,33,33)" fill="none" stroke-linecap="round"></path><path d="M 397.500,215.000 C 396.859,214.840 397.118,214.309 396.500,214.000" stroke-width="15.745" stroke="rgb(33,33,33)" fill="none" stroke-linecap="round"></path><path d="M 396.500,214.000 C 395.118,213.309 394.964,213.586 393.500,213.000" stroke-width="15.994" stroke="rgb(33,33,33)" fill="none" stroke-linecap="round"></path><path d="M 393.500,213.000 C 392.464,212.586 392.555,212.352 391.500,212.000" stroke-width="16.341" stroke="rgb(33,33,33)" fill="none" stroke-linecap="round"></path><path d="M 391.500,212.000 C 389.555,211.352 389.512,211.402 387.500,211.000" stroke-width="16.368" stroke="rgb(33,33,33)" fill="none" stroke-linecap="round"></path><path d="M 387.500,211.000 C 387.012,210.902 387.000,211.000 386.500,211.000" stroke-width="14.571" stroke="rgb(33,33,33)" fill="none" stroke-linecap="round"></path><path d="M 386.500,211.000 C 385.500,211.000 385.500,211.000 384.500,211.000" stroke-width="15.165" stroke="rgb(33,33,33)" fill="none" stroke-linecap="round"></path><path d="M 384.500,211.000 C 384.000,211.000 383.964,210.845 383.500,211.000" stroke-width="15.932" stroke="rgb(33,33,33)" fill="none" stroke-linecap="round"></path><path d="M 383.500,211.000 C 382.464,211.345 382.028,211.208 381.500,212.000" stroke-width="16.486" stroke="rgb(33,33,33)" fill="none" stroke-linecap="round"></path><path d="M 381.500,212.000 C 381.028,212.708 381.740,213.039 381.500,214.000" stroke-width="14.646" stroke="rgb(33,33,33)" fill="none" stroke-linecap="round"></path><path d="M 381.500,214.000 C 380.740,217.039 380.260,216.961 379.500,220.000" stroke-width="15.119" stroke="rgb(33,33,33)" fill="none" stroke-linecap="round"></path><path d="M 379.500,220.000 C 379.260,220.961 379.500,221.000 379.500,222.000" stroke-width="15.667" stroke="rgb(33,33,33)" fill="none" stroke-linecap="round"></path><path d="M 379.500,222.000 C 379.500,223.000 379.500,223.000 379.500,224.000" stroke-width="16.119" stroke="rgb(33,33,33)" fill="none" stroke-linecap="round"></path><path d="M 379.500,224.000 C 379.500,225.500 379.500,225.500 379.500,227.000" stroke-width="16.327" stroke="rgb(33,33,33)" fill="none" stroke-linecap="round"></path><path d="M 379.500,227.000 C 379.500,227.500 379.500,227.500 379.500,228.000" stroke-width="15.670" stroke="rgb(33,33,33)" fill="none" stroke-linecap="round"></path><path d="M 379.500,228.000 C 379.500,228.500 379.500,228.500 379.500,229.000" stroke-width="16.258" stroke="rgb(33,33,33)" fill="none" stroke-linecap="round"></path><path d="M 379.500,229.000 C 379.500,230.500 379.500,230.500 379.500,232.000" stroke-width="11.272" stroke="rgb(33,33,33)" fill="none" stroke-linecap="round"></path><path d="M 379.500,232.000 C 379.500,234.000 379.280,234.022 379.500,236.000" stroke-width="12.023" stroke="rgb(33,33,33)" fill="none" stroke-linecap="round"></path><path d="M 379.500,236.000 C 379.780,238.522 379.805,238.567 380.500,241.000" stroke-width="12.624" stroke="rgb(33,33,33)" fill="none" stroke-linecap="round"></path><path d="M 380.500,241.000 C 380.805,242.067 381.086,241.964 381.500,243.000" stroke-width="12.406" stroke="rgb(33,33,33)" fill="none" stroke-linecap="round"></path><path d="M 381.500,243.000 C 382.086,244.464 381.646,244.719 382.500,246.000" stroke-width="13.141" stroke="rgb(33,33,33)" fill="none" stroke-linecap="round"></path><path d="M 382.500,246.000 C 383.646,247.719 384.000,247.500 385.500,249.000" stroke-width="13.658" stroke="rgb(33,33,33)" fill="none" stroke-linecap="round"></path><path d="M 385.500,249.000 C 387.500,251.000 387.500,251.000 389.500,253.000" stroke-width="13.940" stroke="rgb(33,33,33)" fill="none" stroke-linecap="round"></path><path d="M 389.500,253.000 C 390.500,254.000 390.267,254.336 391.500,255.000" stroke-width="13.468" stroke="rgb(33,33,33)" fill="none" stroke-linecap="round"></path><path d="M 391.500,255.000 C 396.767,257.836 396.913,257.714 402.500,260.000" stroke-width="13.290" stroke="rgb(33,33,33)" fill="none" stroke-linecap="round"></path><path d="M 402.500,260.000 C 407.913,262.214 407.982,262.052 413.500,264.000" stroke-width="13.131" stroke="rgb(33,33,33)" fill="none" stroke-linecap="round"></path><path d="M 413.500,264.000 C 416.482,265.052 416.485,265.048 419.500,266.000" stroke-width="7.504" stroke="rgb(33,33,33)" fill="none" stroke-linecap="round"></path><path d="M 419.500,266.000 C 425.985,268.048 425.944,268.212 432.500,270.000" stroke-width="8.039" stroke="rgb(33,33,33)" fill="none" stroke-linecap="round"></path><path d="M 432.500,270.000 C 436.944,271.212 436.957,271.394 441.500,272.000" stroke-width="8.715" stroke="rgb(33,33,33)" fill="none" stroke-linecap="round"></path><path d="M 441.500,272.000 C 444.457,272.394 444.500,272.000 447.500,272.000" stroke-width="9.527" stroke="rgb(33,33,33)" fill="none" stroke-linecap="round"></path><path d="M 447.500,272.000 C 448.500,272.000 448.500,272.000 449.500,272.000" stroke-width="10.525" stroke="rgb(33,33,33)" fill="none" stroke-linecap="round"></path><path d="M 449.500,272.000 C 450.000,272.000 450.000,272.000 450.500,272.000" stroke-width="11.565" stroke="rgb(33,33,33)" fill="none" stroke-linecap="round"></path><path d="M 450.500,272.000 C 451.000,272.000 451.086,272.207 451.500,272.000" stroke-width="12.563" stroke="rgb(33,33,33)" fill="none" stroke-linecap="round"></path><path d="M 451.500,272.000 C 452.086,271.707 452.293,271.621 452.500,271.000" stroke-width="13.445" stroke="rgb(33,33,33)" fill="none" stroke-linecap="round"></path><path d="M 452.500,271.000 C 452.793,270.121 452.264,269.944 452.500,269.000" stroke-width="14.176" stroke="rgb(33,33,33)" fill="none" stroke-linecap="round"></path><path d="M 452.500,269.000 C 452.764,267.944 453.086,268.036 453.500,267.000" stroke-width="14.791" stroke="rgb(33,33,33)" fill="none" stroke-linecap="round"></path><path d="M 453.500,267.000 C 454.086,265.536 454.120,265.519 454.500,264.000" stroke-width="15.221" stroke="rgb(33,33,33)" fill="none" stroke-linecap="round"></path><path d="M 454.500,264.000 C 454.620,263.519 454.380,263.481 454.500,263.000" stroke-width="15.214" stroke="rgb(33,33,33)" fill="none" stroke-linecap="round"></path><path d="M 454.500,263.000 C 454.880,261.481 454.809,261.382 455.500,260.000" stroke-width="15.670" stroke="rgb(33,33,33)" fill="none" stroke-linecap="round"></path><path d="M 455.500,260.000 C 455.809,259.382 456.283,259.651 456.500,259.000" stroke-width="14.725" stroke="rgb(33,33,33)" fill="none" stroke-linecap="round"></path><path d="M 456.500,259.000 C 457.283,256.651 457.220,256.522 457.500,254.000" stroke-width="14.888" stroke="rgb(33,33,33)" fill="none" stroke-linecap="round"></path><path d="M 457.500,254.000 C 457.720,252.022 457.500,252.000 457.500,250.000" stroke-width="15.133" stroke="rgb(33,33,33)" fill="none" stroke-linecap="round"></path><path d="M 457.500,250.000 C 457.500,248.000 457.500,248.000 457.500,246.000" stroke-width="15.400" stroke="rgb(33,33,33)" fill="none" stroke-linecap="round"></path><path d="M 457.500,246.000 C 457.500,244.000 457.500,244.000 457.500,242.000" stroke-width="15.674" stroke="rgb(33,33,33)" fill="none" stroke-linecap="round"></path><path d="M 457.500,242.000 C 457.500,241.000 457.500,241.000 457.500,240.000" stroke-width="16.125" stroke="rgb(33,33,33)" fill="none" stroke-linecap="round"></path><path d="M 457.500,240.000 C 457.500,239.500 457.500,239.500 457.500,239.000" stroke-width="16.656" stroke="rgb(33,33,33)" fill="none" stroke-linecap="round"></path><path d="M 457.500,239.000 C 457.500,238.500 457.500,238.500 457.500,238.000" stroke-width="17.142" stroke="rgb(33,33,33)" fill="none" stroke-linecap="round"></path><path d="M 457.500,238.000 C 457.500,237.500 457.500,236.833 457.500,237.000" stroke-width="17.515" stroke="rgb(33,33,33)" fill="none" stroke-linecap="round"></path><path d="M 457.500,237.000 C 457.500,237.333 457.291,238.026 457.500,239.000" stroke-width="17.973" stroke="rgb(33,33,33)" fill="none" stroke-linecap="round"></path><path d="M 457.500,239.000 C 458.791,245.026 458.802,245.058 460.500,251.000" stroke-width="16.924" stroke="rgb(33,33,33)" fill="none" stroke-linecap="round"></path><path d="M 460.500,251.000 C 461.802,255.558 462.000,255.500 463.500,260.000" stroke-width="15.873" stroke="rgb(33,33,33)" fill="none" stroke-linecap="round"></path><path d="M 463.500,260.000 C 464.000,261.500 464.000,261.500 464.500,263.000" stroke-width="15.271" stroke="rgb(33,33,33)" fill="none" stroke-linecap="round"></path><path d="M 464.500,263.000 C 465.000,264.500 465.117,264.469 465.500,266.000" stroke-width="15.113" stroke="rgb(33,33,33)" fill="none" stroke-linecap="round"></path><path d="M 465.500,266.000 C 466.117,268.469 465.883,268.531 466.500,271.000" stroke-width="15.204" stroke="rgb(33,33,33)" fill="none" stroke-linecap="round"></path><path d="M 466.500,271.000 C 466.883,272.531 466.914,272.536 467.500,274.000" stroke-width="15.517" stroke="rgb(33,33,33)" fill="none" stroke-linecap="round"></path><path d="M 467.500,274.000 C 467.914,275.036 468.286,274.932 468.500,276.000" stroke-width="15.990" stroke="rgb(33,33,33)" fill="none" stroke-linecap="round"></path><path d="M 468.500,276.000 C 468.786,277.432 468.214,277.568 468.500,279.000" stroke-width="16.192" stroke="rgb(33,33,33)" fill="none" stroke-linecap="round"></path><path d="M 468.500,279.000 C 468.714,280.068 469.155,279.964 469.500,281.000" stroke-width="16.544" stroke="rgb(33,33,33)" fill="none" stroke-linecap="round"></path><path d="M 469.500,281.000 C 469.655,281.464 469.500,281.500 469.500,282.000" stroke-width="14.682" stroke="rgb(33,33,33)" fill="none" stroke-linecap="round"></path><path d="M 469.500,282.000 C 469.500,282.500 469.500,282.500 469.500,283.000" stroke-width="15.203" stroke="rgb(33,33,33)" fill="none" stroke-linecap="round"></path><path d="M 469.500,283.000 C 469.500,283.500 469.500,283.500 469.500,284.000" stroke-width="15.875" stroke="rgb(33,33,33)" fill="none" stroke-linecap="round"></path><path d="M 469.500,284.000 C 469.500,284.500 469.500,285.167 469.500,285.000" stroke-width="16.434" stroke="rgb(33,33,33)" fill="none" stroke-linecap="round"></path><path d="M 469.500,285.000 C 469.500,284.667 469.500,284.000 469.500,283.000" stroke-width="17.055" stroke="rgb(33,33,33)" fill="none" stroke-linecap="round"></path><path d="M 469.500,283.000 C 469.500,275.500 470.553,275.370 469.500,268.000" stroke-width="16.479" stroke="rgb(33,33,33)" fill="none" stroke-linecap="round"></path><path d="M 469.500,268.000 C 468.053,257.870 467.421,257.858 464.500,248.000" stroke-width="14.864" stroke="rgb(33,33,33)" fill="none" stroke-linecap="round"></path><path d="M 464.500,248.000 C 463.421,244.358 463.000,244.500 461.500,241.000" stroke-width="9.871" stroke="rgb(33,33,33)" fill="none" stroke-linecap="round"></path><path d="M 461.500,241.000 C 458.500,234.000 458.650,233.930 455.500,227.000" stroke-width="10.073" stroke="rgb(33,33,33)" fill="none" stroke-linecap="round"></path><path d="M 455.500,227.000 C 453.650,222.930 453.500,223.000 451.500,219.000" stroke-width="10.615" stroke="rgb(33,33,33)" fill="none" stroke-linecap="round"></path><path d="M 451.500,219.000 C 451.000,218.000 450.764,218.056 450.500,217.000" stroke-width="11.555" stroke="rgb(33,33,33)" fill="none" stroke-linecap="round"></path><path d="M 450.500,217.000 C 450.264,216.056 449.796,215.423 450.500,215.000" stroke-width="12.458" stroke="rgb(33,33,33)" fill="none" stroke-linecap="round"></path><path d="M 450.500,215.000 C 452.296,213.923 452.978,214.280 455.500,214.000" stroke-width="12.978" stroke="rgb(33,33,33)" fill="none" stroke-linecap="round"></path><path d="M 455.500,214.000 C 457.478,213.780 457.500,214.000 459.500,214.000" stroke-width="9.007" stroke="rgb(33,33,33)" fill="none" stroke-linecap="round"></path><path d="M 459.500,214.000 C 464.500,214.000 464.500,214.000 469.500,214.000" stroke-width="9.569" stroke="rgb(33,33,33)" fill="none" stroke-linecap="round"></path><path d="M 469.500,214.000 C 470.500,214.000 470.500,214.000 471.500,214.000" stroke-width="10.579" stroke="rgb(33,33,33)" fill="none" stroke-linecap="round"></path><path d="M 471.500,214.000 C 472.000,214.000 472.000,214.000 472.500,214.000" stroke-width="11.681" stroke="rgb(33,33,33)" fill="none" stroke-linecap="round"></path><path d="M 472.500,214.000 C 473.500,214.000 473.517,213.827 474.500,214.000" stroke-width="12.371" stroke="rgb(33,33,33)" fill="none" stroke-linecap="round"></path><path d="M 474.500,214.000 C 482.017,215.327 482.121,215.075 489.500,217.000" stroke-width="12.639" stroke="rgb(33,33,33)" fill="none" stroke-linecap="round"></path><path d="M 489.500,217.000 C 493.621,218.075 493.485,218.540 497.500,220.000" stroke-width="11.463" stroke="rgb(33,33,33)" fill="none" stroke-linecap="round"></path><path d="M 497.500,220.000 C 504.485,222.540 504.452,222.651 511.500,225.000" stroke-width="11.539" stroke="rgb(33,33,33)" fill="none" stroke-linecap="round"></path><path d="M 511.500,225.000 C 514.952,226.151 515.862,226.121 518.500,227.000" stroke-width="12.019" stroke="rgb(33,33,33)" fill="none" stroke-linecap="round"></path><path d="M 518.500,227.000 C 518.862,227.121 518.000,227.000 517.500,227.000" stroke-width="13.042" stroke="rgb(33,33,33)" fill="none" stroke-linecap="round"></path><path d="M 517.500,227.000 C 515.000,227.000 515.000,227.000 512.500,227.000" stroke-width="13.547" stroke="rgb(33,33,33)" fill="none" stroke-linecap="round"></path><path d="M 512.500,227.000 C 510.500,227.000 510.500,227.000 508.500,227.000" stroke-width="14.006" stroke="rgb(33,33,33)" fill="none" stroke-linecap="round"></path><path d="M 508.500,227.000 C 507.000,227.000 507.000,227.000 505.500,227.000" stroke-width="14.568" stroke="rgb(33,33,33)" fill="none" stroke-linecap="round"></path><path d="M 505.500,227.000 C 505.000,227.000 505.000,227.000 504.500,227.000" stroke-width="15.297" stroke="rgb(33,33,33)" fill="none" stroke-linecap="round"></path><path d="M 504.500,227.000 C 504.000,227.000 503.750,226.750 503.500,227.000" stroke-width="15.943" stroke="rgb(33,33,33)" fill="none" stroke-linecap="round"></path><path d="M 503.500,227.000 C 503.250,227.250 503.924,227.859 503.500,228.000" stroke-width="16.316" stroke="rgb(33,33,33)" fill="none" stroke-linecap="round"></path><path d="M 503.500,228.000 C 500.924,228.859 500.531,228.879 497.500,229.000" stroke-width="16.190" stroke="rgb(33,33,33)" fill="none" stroke-linecap="round"></path><path d="M 497.500,229.000 C 488.031,229.379 488.000,229.000 478.500,229.000" stroke-width="14.344" stroke="rgb(33,33,33)" fill="none" stroke-linecap="round"></path><path d="M 478.500,229.000 C 468.000,229.000 467.912,230.183 457.500,229.000" stroke-width="6.750" stroke="rgb(33,33,33)" fill="none" stroke-linecap="round"></path><path d="M 457.500,229.000 C 423.912,225.183 423.878,224.674 390.500,219.000" stroke-width="6.750" stroke="rgb(33,33,33)" fill="none" stroke-linecap="round"></path><path d="M 390.500,219.000 C 373.878,216.174 373.891,215.963 357.500,212.000" stroke-width="6.750" stroke="rgb(33,33,33)" fill="none" stroke-linecap="round"></path><path d="M 357.500,212.000 C 328.391,204.963 328.398,204.844 299.500,197.000" stroke-width="6.750" stroke="rgb(33,33,33)" fill="none" stroke-linecap="round"></path><path d="M 299.500,197.000 C 293.398,195.344 293.500,195.000 287.500,193.000" stroke-width="6.750" stroke="rgb(33,33,33)" fill="none" stroke-linecap="round"></path><path d="M 287.500,193.000 C 286.000,192.500 285.260,192.380 284.500,192.000" stroke-width="6.750" stroke="rgb(33,33,33)" fill="none" stroke-linecap="round"></path><path d="M 284.500,192.000 C 284.260,191.880 285.000,192.000 285.500,192.000" stroke-width="7.213" stroke="rgb(33,33,33)" fill="none" stroke-linecap="round"></path><path d="M 285.500,192.000 C 287.000,192.000 287.000,192.000 288.500,192.000" stroke-width="8.161" stroke="rgb(33,33,33)" fill="none" stroke-linecap="round"></path></svg>