<svg xmlns="http://www.w3.org/2000/svg" xmlns:xlink="http://www.w3.org/1999/xlink" viewBox="0 0 800 500"><path d="M 190.500,125.000 C 190.000,125.000 190.000,125.000 189.500,125.000" stroke-width="20.128" stroke="rgb(33,33,33)" fill="none" stroke-linecap="round"></path><path d="M 189.500,125.000 C 187.000,125.000 186.966,124.726 184.500,125.000" stroke-width="18.609" stroke="rgb(33,33,33)" fill="none" stroke-linecap="round"></path><path d="M 184.500,125.000 C 182.466,125.226 182.453,125.349 180.500,126.000" stroke-width="17.678" stroke="rgb(33,33,33)" fill="none" stroke-linecap="round"></path><path d="M 180.500,126.000 C 176.453,127.349 176.399,127.267 172.500,129.000" stroke-width="15.923" stroke="rgb(33,33,33)" fill="none" stroke-linecap="round"></path><path d="M 172.500,129.000 C 167.399,131.267 167.451,131.407 162.500,134.000" stroke-width="14.254" stroke="rgb(33,33,33)" fill="none" stroke-linecap="round"></path><path d="M 162.500,134.000 C 156.951,136.907 156.736,136.612 151.500,140.000" stroke-width="13.104" stroke="rgb(33,33,33)" fill="none" stroke-linecap="round"></path><path d="M 151.500,140.000 C 148.236,142.112 148.522,142.527 145.500,145.000" stroke-width="12.830" stroke="rgb(33,33,33)" fill="none" stroke-linecap="round"></path><path d="M 145.500,145.000 C 143.022,147.027 142.906,146.895 140.500,149.000" stroke-width="12.824" stroke="rgb(33,33,33)" fill="none" stroke-linecap="round"></path><path d="M 140.500,149.000 C 138.906,150.395 139.000,150.500 137.500,152.000" stroke-width="13.201" stroke="rgb(33,33,33)" fill="none" stroke-linecap="round"></path><path d="M 137.500,152.000 C 135.500,154.000 135.101,153.713 133.500,156.000" stroke-width="13.235" stroke="rgb(33,33,33)" fill="none" stroke-linecap="round"></path><path d="M 133.500,156.000 C 131.601,158.713 131.887,158.949 130.500,162.000" stroke-width="13.098" stroke="rgb(33,33,33)" fill="none" stroke-linecap="round"></path><path d="M 130.500,162.000 C 129.387,164.449 129.350,164.449 128.500,167.000" stroke-width="13.195" stroke="rgb(33,33,33)" fill="none" stroke-linecap="round"></path><path d="M 128.500,167.000 C 127.350,170.449 127.382,170.471 126.500,174.000" stroke-width="12.980" stroke="rgb(33,33,33)" fill="none" stroke-linecap="round"></path><path d="M 126.500,174.000 C 125.882,176.471 125.500,176.492 125.500,179.000" stroke-width="13.209" stroke="rgb(33,33,33)" fill="none" stroke-linecap="round"></path><path d="M 125.500,179.000 C 125.500,181.992 125.904,182.020 126.500,185.000" stroke-width="13.174" stroke="rgb(33,33,33)" fill="none" stroke-linecap="round"></path><path d="M 126.500,185.000 C 126.904,187.020 126.780,187.081 127.500,189.000" stroke-width="13.459" stroke="rgb(33,33,33)" fill="none" stroke-linecap="round"></path><path d="M 127.500,189.000 C 128.280,191.081 128.116,191.339 129.500,193.000" stroke-width="13.636" stroke="rgb(33,33,33)" fill="none" stroke-linecap="round"></path><path d="M 129.500,193.000 C 130.616,194.339 130.972,194.045 132.500,195.000" stroke-width="13.984" stroke="rgb(33,33,33)" fill="none" stroke-linecap="round"></path><path d="M 132.500,195.000 C 134.972,196.545 134.898,196.699 137.500,198.000" stroke-width="13.827" stroke="rgb(33,33,33)" fill="none" stroke-linecap="round"></path><path d="M 137.500,198.000 C 140.898,199.699 140.836,200.138 144.500,201.000" stroke-width="13.410" stroke="rgb(33,33,33)" fill="none" stroke-linecap="round"></path><path d="M 144.500,201.000 C 149.336,202.138 149.493,201.583 154.500,202.000" stroke-width="12.853" stroke="rgb(33,33,33)" fill="none" stroke-linecap="round"></path><path d="M 154.500,202.000 C 161.493,202.583 161.501,203.000 168.500,203.000" stroke-width="11.803" stroke="rgb(33,33,33)" fill="none" stroke-linecap="round"></path><path d="M 168.500,203.000 C 175.001,203.000 175.046,202.861 181.500,202.000" stroke-width="11.191" stroke="rgb(33,33,33)" fill="none" stroke-linecap="round"></path><path d="M 181.500,202.000 C 190.046,200.861 190.081,200.871 198.500,199.000" stroke-width="10.463" stroke="rgb(33,33,33)" fill="none" stroke-linecap="round"></path><path d="M 198.500,199.000 C 208.081,196.871 208.067,196.731 217.500,194.000" stroke-width="9.457" stroke="rgb(33,33,33)" fill="none" stroke-linecap="round"></path><path d="M 217.500,194.000 C 227.067,191.231 227.050,191.150 236.500,188.000" stroke-width="9.020" stroke="rgb(33,33,33)" fill="none" stroke-linecap="round"></path><path d="M 236.500,188.000 C 245.050,185.150 245.254,185.573 253.500,182.000" stroke-width="8.714" stroke="rgb(33,33,33)" fill="none" stroke-linecap="round"></path><path d="M 253.500,182.000 C 260.254,179.073 260.386,179.076 266.500,175.000" stroke-width="8.700" stroke="rgb(33,33,33)" fill="none" stroke-linecap="round"></path><path d="M 266.500,175.000 C 272.386,171.076 272.224,170.748 277.500,166.000" stroke-width="8.727" stroke="rgb(33,33,33)" fill="none" stroke-linecap="round"></path><path d="M 277.500,166.000 C 282.224,161.748 282.548,161.940 286.500,157.000" stroke-width="8.927" stroke="rgb(33,33,33)" fill="none" stroke-linecap="round"></path><path d="M 286.500,157.000 C 290.548,151.940 290.488,151.750 293.500,146.000" stroke-width="8.993" stroke="rgb(33,33,33)" fill="none" stroke-linecap="round"></path><path d="M 293.500,146.000 C 295.988,141.250 295.801,141.097 297.500,136.000" stroke-width="9.216" stroke="rgb(33,33,33)" fill="none" stroke-linecap="round"></path><path d="M 297.500,136.000 C 298.801,132.097 298.877,132.046 299.500,128.000" stroke-width="9.607" stroke="rgb(33,33,33)" fill="none" stroke-linecap="round"></path><path d="M 299.500,128.000 C 299.877,125.546 299.500,125.500 299.500,123.000" stroke-width="10.282" stroke="rgb(33,33,33)" fill="none" stroke-linecap="round"></path><path d="M 299.500,123.000 C 299.500,120.000 299.500,120.000 299.500,117.000" stroke-width="10.744" stroke="rgb(33,33,33)" fill="none" stroke-linecap="round"></path><path d="M 299.500,117.000 C 299.500,114.000 299.770,113.973 299.500,111.000" stroke-width="11.146" stroke="rgb(33,33,33)" fill="none" stroke-linecap="round"></path><path d="M 299.500,111.000 C 299.270,108.473 299.053,108.488 298.500,106.000" stroke-width="11.648" stroke="rgb(33,33,33)" fill="none" stroke-linecap="round"></path><path d="M 298.500,106.000 C 298.053,103.988 298.000,104.000 297.500,102.000" stroke-width="12.157" stroke="rgb(33,33,33)" fill="none" stroke-linecap="round"></path><path d="M 297.500,102.000 C 297.000,100.000 297.404,99.808 296.500,98.000" stroke-width="12.597" stroke="rgb(33,33,33)" fill="none" stroke-linecap="round"></path><path d="M 296.500,98.000 C 295.404,95.808 295.157,95.864 293.500,94.000" stroke-width="12.841" stroke="rgb(33,33,33)" fill="none" stroke-linecap="round"></path><path d="M 293.500,94.000 C 291.157,91.364 291.207,91.256 288.500,89.000" stroke-width="12.735" stroke="rgb(33,33,33)" fill="none" stroke-linecap="round"></path><path d="M 288.500,89.000 C 285.207,86.256 285.113,86.323 281.500,84.000" stroke-width="12.535" stroke="rgb(33,33,33)" fill="none" stroke-linecap="round"></path><path d="M 281.500,84.000 C 278.113,81.823 278.100,81.800 274.500,80.000" stroke-width="12.355" stroke="rgb(33,33,33)" fill="none" stroke-linecap="round"></path><path d="M 274.500,80.000 C 271.100,78.300 271.104,78.201 267.500,77.000" stroke-width="12.275" stroke="rgb(33,33,33)" fill="none" stroke-linecap="round"></path><path d="M 267.500,77.000 C 262.104,75.201 262.073,75.115 256.500,74.000" stroke-width="11.725" stroke="rgb(33,33,33)" fill="none" stroke-linecap="round"></path><path d="M 256.500,74.000 C 252.073,73.115 251.935,73.832 247.500,73.000" stroke-width="11.688" stroke="rgb(33,33,33)" fill="none" stroke-linecap="round"></path><path d="M 247.500,73.000 C 243.935,72.332 244.069,71.510 240.500,71.000" stroke-width="11.784" stroke="rgb(33,33,33)" fill="none" stroke-linecap="round"></path><path d="M 240.500,71.000 C 237.069,70.510 237.000,71.000 233.500,71.000" stroke-width="11.898" stroke="rgb(33,33,33)" fill="none" stroke-linecap="round"></path><path d="M 233.500,71.000 C 230.000,71.000 229.931,70.510 226.500,71.000" stroke-width="11.990" stroke="rgb(33,33,33)" fill="none" stroke-linecap="round"></path><path d="M 226.500,71.000 C 222.931,71.510 223.030,72.118 219.500,73.000" stroke-width="12.108" stroke="rgb(33,33,33)" fill="none" stroke-linecap="round"></path><path d="M 219.500,73.000 C 215.030,74.118 214.857,73.548 210.500,75.000" stroke-width="11.873" stroke="rgb(33,33,33)" fill="none" stroke-linecap="round"></path><path d="M 210.500,75.000 C 204.357,77.048 204.405,77.293 198.500,80.000" stroke-width="11.245" stroke="rgb(33,33,33)" fill="none" stroke-linecap="round"></path><path d="M 198.500,80.000 C 192.405,82.793 192.441,82.888 186.500,86.000" stroke-width="10.745" stroke="rgb(33,33,33)" fill="none" stroke-linecap="round"></path><path d="M 186.500,86.000 C 181.941,88.388 181.969,88.446 177.500,91.000" stroke-width="10.775" stroke="rgb(33,33,33)" fill="none" stroke-linecap="round"></path><path d="M 177.500,91.000 C 171.469,94.446 171.651,94.791 165.500,98.000" stroke-width="10.353" stroke="rgb(33,33,33)" fill="none" stroke-linecap="round"></path><path d="M 165.500,98.000 C 160.151,100.791 160.021,100.546 154.500,103.000" stroke-width="10.204" stroke="rgb(33,33,33)" fill="none" stroke-linecap="round"></path><path d="M 154.500,103.000 C 151.021,104.546 151.015,104.536 147.500,106.000" stroke-width="10.514" stroke="rgb(33,33,33)" fill="none" stroke-linecap="round"></path><path d="M 147.500,106.000 C 145.015,107.036 145.020,107.055 142.500,108.000" stroke-width="11.062" stroke="rgb(33,33,33)" fill="none" stroke-linecap="round"></path><path d="M 142.500,108.000 C 141.020,108.555 141.000,108.500 139.500,109.000" stroke-width="11.760" stroke="rgb(33,33,33)" fill="none" stroke-linecap="round"></path><path d="M 362.500,122.000 C 363.500,122.500 363.411,122.802 364.500,123.000" stroke-width="20.090" stroke="rgb(33,33,33)" fill="none" stroke-linecap="round"></path><path d="M 364.500,123.000 C 368.911,123.802 369.015,123.388 373.500,124.000" stroke-width="17.292" stroke="rgb(33,33,33)" fill="none" stroke-linecap="round"></path><path d="M 373.500,124.000 C 380.015,124.888 379.950,125.532 386.500,126.000" stroke-width="14.717" stroke="rgb(33,33,33)" fill="none" stroke-linecap="round"></path><path d="M 386.500,126.000 C 400.950,127.032 400.995,126.780 415.500,127.000" stroke-width="11.075" stroke="rgb(33,33,33)" fill="none" stroke-linecap="round"></path><path d="M 415.500,127.000 C 433.995,127.280 434.000,127.000 452.500,127.000" stroke-width="8.884" stroke="rgb(33,33,33)" fill="none" stroke-linecap="round"></path><path d="M 452.500,127.000 C 473.500,127.000 473.553,128.034 494.500,127.000" stroke-width="7.266" stroke="rgb(33,33,33)" fill="none" stroke-linecap="round"></path><path d="M 494.500,127.000 C 514.053,126.034 514.170,126.038 533.500,123.000" stroke-width="6.750" stroke="rgb(33,33,33)" fill="none" stroke-linecap="round"></path><path d="M 533.500,123.000 C 549.170,120.538 549.134,119.995 564.500,116.000" stroke-width="6.750" stroke="rgb(33,33,33)" fill="none" stroke-linecap="round"></path><path d="M 564.500,116.000 C 574.134,113.495 574.595,114.134 583.500,110.000" stroke-width="6.750" stroke="rgb(33,33,33)" fill="none" stroke-linecap="round"></path><path d="M 583.500,110.000 C 588.595,107.634 588.530,106.970 592.500,103.000" stroke-width="6.904" stroke="rgb(33,33,33)" fill="none" stroke-linecap="round"></path><path d="M 592.500,103.000 C 594.530,100.970 594.521,100.692 595.500,98.000" stroke-width="7.634" stroke="rgb(33,33,33)" fill="none" stroke-linecap="round"></path><path d="M 595.500,98.000 C 596.521,95.192 596.198,95.016 596.500,92.000" stroke-width="8.324" stroke="rgb(33,33,33)" fill="none" stroke-linecap="round"></path><path d="M 596.500,92.000 C 596.698,90.016 596.500,90.000 596.500,88.000" stroke-width="9.152" stroke="rgb(33,33,33)" fill="none" stroke-linecap="round"></path><path d="M 596.500,88.000 C 596.500,86.000 596.779,85.955 596.500,84.000" stroke-width="9.912" stroke="rgb(33,33,33)" fill="none" stroke-linecap="round"></path><path d="M 596.500,84.000 C 596.279,82.455 596.292,82.320 595.500,81.000" stroke-width="10.704" stroke="rgb(33,33,33)" fill="none" stroke-linecap="round"></path><path d="M 595.500,81.000 C 594.792,79.820 594.500,80.000 593.500,79.000" stroke-width="11.474" stroke="rgb(33,33,33)" fill="none" stroke-linecap="round"></path><path d="M 593.500,79.000 C 592.500,78.000 592.500,78.000 591.500,77.000" stroke-width="12.206" stroke="rgb(33,33,33)" fill="none" stroke-linecap="round"></path><path d="M 591.500,77.000 C 590.500,76.000 590.770,75.476 589.500,75.000" stroke-width="12.827" stroke="rgb(33,33,33)" fill="none" stroke-linecap="round"></path><path d="M 589.500,75.000 C 586.770,73.976 586.527,74.178 583.500,74.000" stroke-width="12.869" stroke="rgb(33,33,33)" fill="none" stroke-linecap="round"></path><path d="M 583.500,74.000 C 578.027,73.678 577.981,73.635 572.500,74.000" stroke-width="12.331" stroke="rgb(33,33,33)" fill="none" stroke-linecap="round"></path><path d="M 572.500,74.000 C 562.981,74.635 562.888,74.331 553.500,76.000" stroke-width="10.881" stroke="rgb(33,33,33)" fill="none" stroke-linecap="round"></path><path d="M 553.500,76.000 C 540.388,78.331 540.344,78.447 527.500,82.000" stroke-width="9.315" stroke="rgb(33,33,33)" fill="none" stroke-linecap="round"></path><path d="M 527.500,82.000 C 516.844,84.947 516.867,85.138 506.500,89.000" stroke-width="8.648" stroke="rgb(33,33,33)" fill="none" stroke-linecap="round"></path><path d="M 506.500,89.000 C 491.367,94.638 491.173,94.285 476.500,101.000" stroke-width="7.610" stroke="rgb(33,33,33)" fill="none" stroke-linecap="round"></path><path d="M 476.500,101.000 C 461.673,107.785 461.543,107.725 447.500,116.000" stroke-width="7.049" stroke="rgb(33,33,33)" fill="none" stroke-linecap="round"></path><path d="M 447.500,116.000 C 433.543,124.225 433.827,124.752 420.500,134.000" stroke-width="6.750" stroke="rgb(33,33,33)" fill="none" stroke-linecap="round"></path><path d="M 420.500,134.000 C 409.327,141.752 408.742,141.142 398.500,150.000" stroke-width="6.750" stroke="rgb(33,33,33)" fill="none" stroke-linecap="round"></path><path d="M 398.500,150.000 C 390.242,157.142 390.534,157.613 383.500,166.000" stroke-width="6.750" stroke="rgb(33,33,33)" fill="none" stroke-linecap="round"></path><path d="M 383.500,166.000 C 377.534,173.113 376.946,172.941 372.500,181.000" stroke-width="6.750" stroke="rgb(33,33,33)" fill="none" stroke-linecap="round"></path><path d="M 372.500,181.000 C 368.946,187.441 369.157,187.818 367.500,195.000" stroke-width="7.023" stroke="rgb(33,33,33)" fill="none" stroke-linecap="round"></path><path d="M 367.500,195.000 C 366.157,200.818 366.500,201.010 366.500,207.000" stroke-width="7.480" stroke="rgb(33,33,33)" fill="none" stroke-linecap="round"></path><path d="M 366.500,207.000 C 366.500,211.010 366.535,211.141 367.500,215.000" stroke-width="8.013" stroke="rgb(33,33,33)" fill="none" stroke-linecap="round"></path><path d="M 367.500,215.000 C 368.035,217.141 368.061,217.355 369.500,219.000" stroke-width="8.819" stroke="rgb(33,33,33)" fill="none" stroke-linecap="round"></path><path d="M 369.500,219.000 C 371.561,221.355 371.601,221.806 374.500,223.000" stroke-width="9.446" stroke="rgb(33,33,33)" fill="none" stroke-linecap="round"></path><path d="M 374.500,223.000 C 380.101,225.306 380.398,225.103 386.500,226.000" stroke-width="9.365" stroke="rgb(33,33,33)" fill="none" stroke-linecap="round"></path><path d="M 386.500,226.000 C 397.398,227.603 397.474,227.816 408.500,228.000" stroke-width="8.685" stroke="rgb(33,33,33)" fill="none" stroke-linecap="round"></path><path d="M 408.500,228.000 C 427.474,228.316 427.549,228.247 446.500,227.000" stroke-width="7.503" stroke="rgb(33,33,33)" fill="none" stroke-linecap="round"></path><path d="M 446.500,227.000 C 465.549,225.747 465.542,225.333 484.500,223.000" stroke-width="6.750" stroke="rgb(33,33,33)" fill="none" stroke-linecap="round"></path><path d="M 484.500,223.000 C 498.042,221.333 498.083,221.460 511.500,219.000" stroke-width="6.750" stroke="rgb(33,33,33)" fill="none" stroke-linecap="round"></path><path d="M 511.500,219.000 C 528.083,215.960 527.952,215.245 544.500,212.000" stroke-width="6.750" stroke="rgb(33,33,33)" fill="none" stroke-linecap="round"></path><path d="M 544.500,212.000 C 553.452,210.245 553.551,210.705 562.500,209.000" stroke-width="6.750" stroke="rgb(33,33,33)" fill="none" stroke-linecap="round"></path><path d="M 562.500,209.000 C 564.051,208.705 564.000,208.500 565.500,208.000" stroke-width="7.262" stroke="rgb(33,33,33)" fill="none" stroke-linecap="round"></path><path d="M 565.500,208.000 C 565.500,208.000 565.500,208.000 565.500,208.000" stroke-width="8.330" stroke="rgb(33,33,33)" fill="none" stroke-linecap="round"></path><path d="M 565.500,208.000 C 565.500,209.000 564.929,209.286 565.500,210.000" stroke-width="9.284" stroke="rgb(33,33,33)" fill="none" stroke-linecap="round"></path><path d="M 565.500,210.000 C 566.929,211.786 567.197,212.178 569.500,213.000" stroke-width="9.984" stroke="rgb(33,33,33)" fill="none" stroke-linecap="round"></path><path d="M 569.500,213.000 C 574.197,214.678 574.446,214.541 579.500,215.000" stroke-width="10.085" stroke="rgb(33,33,33)" fill="none" stroke-linecap="round"></path><path d="M 579.500,215.000 C 585.446,215.541 585.500,215.000 591.500,215.000" stroke-width="10.002" stroke="rgb(33,33,33)" fill="none" stroke-linecap="round"></path><path d="M 591.500,215.000 C 600.000,215.000 600.000,215.000 608.500,215.000" stroke-width="9.513" stroke="rgb(33,33,33)" fill="none" stroke-linecap="round"></path><path d="M 608.500,215.000 C 615.500,215.000 615.517,215.304 622.500,215.000" stroke-width="9.386" stroke="rgb(33,33,33)" fill="none" stroke-linecap="round"></path><path d="M 622.500,215.000 C 627.017,214.804 626.992,214.347 631.500,214.000" stroke-width="9.750" stroke="rgb(33,33,33)" fill="none" stroke-linecap="round"></path><path d="M 631.500,214.000 C 633.492,213.847 633.500,214.000 635.500,214.000" stroke-width="10.469" stroke="rgb(33,33,33)" fill="none" stroke-linecap="round"></path><path d="M 635.500,214.000 C 637.000,214.000 637.000,214.000 638.500,214.000" stroke-width="11.238" stroke="rgb(33,33,33)" fill="none" stroke-linecap="round"></path><path d="M 638.500,214.000 C 638.500,214.000 638.500,214.000 638.500,214.000" stroke-width="12.336" stroke="rgb(33,33,33)" fill="none" stroke-linecap="round"></path><path d="M 638.500,214.000 C 639.000,214.000 639.000,214.000 639.500,214.000" stroke-width="13.236" stroke="rgb(33,33,33)" fill="none" stroke-linecap="round"></path><path d="M 639.500,214.000 C 637.500,216.000 637.682,216.215 635.500,218.000" stroke-width="15.864" stroke="rgb(33,33,33)" fill="none" stroke-linecap="round"></path><path d="M 635.500,218.000 C 632.182,220.715 632.322,221.089 628.500,223.000" stroke-width="14.699" stroke="rgb(33,33,33)" fill="none" stroke-linecap="round"></path><path d="M 628.500,223.000 C 621.322,226.589 621.216,226.667 613.500,229.000" stroke-width="12.689" stroke="rgb(33,33,33)" fill="none" stroke-linecap="round"></path><path d="M 613.500,229.000 C 599.716,233.167 599.602,232.963 585.500,236.000" stroke-width="10.344" stroke="rgb(33,33,33)" fill="none" stroke-linecap="round"></path><path d="M 585.500,236.000 C 567.102,239.963 567.156,240.725 548.500,243.000" stroke-width="8.263" stroke="rgb(33,33,33)" fill="none" stroke-linecap="round"></path><path d="M 548.500,243.000 C 526.156,245.725 526.016,244.794 503.500,246.000" stroke-width="6.794" stroke="rgb(33,33,33)" fill="none" stroke-linecap="round"></path><path d="M 503.500,246.000 C 470.016,247.794 470.018,248.292 436.500,249.000" stroke-width="6.750" stroke="rgb(33,33,33)" fill="none" stroke-linecap="round"></path><path d="M 436.500,249.000 C 399.018,249.792 398.989,249.586 361.500,249.000" stroke-width="6.750" stroke="rgb(33,33,33)" fill="none" stroke-linecap="round"></path><path d="M 361.500,249.000 C 334.989,248.586 335.006,247.828 308.500,247.000" stroke-width="6.750" stroke="rgb(33,33,33)" fill="none" stroke-linecap="round"></path><path d="M 308.500,247.000 C 271.006,245.828 271.006,245.586 233.500,245.000" stroke-width="6.750" stroke="rgb(33,33,33)" fill="none" stroke-linecap="round"></path><path d="M 233.500,245.000 C 207.006,244.586 206.994,244.665 180.500,245.000" stroke-width="6.750" stroke="rgb(33,33,33)" fill="none" stroke-linecap="round"></path><path d="M 180.500,245.000 C 167.494,245.165 167.464,245.022 154.500,246.000" stroke-width="6.750" stroke="rgb(33,33,33)" fill="none" stroke-linecap="round"></path><path d="M 154.500,246.000 C 140.964,247.022 141.015,247.649 127.500,249.000" stroke-width="6.750" stroke="rgb(33,33,33)" fill="none" stroke-linecap="round"></path><path d="M 127.500,249.000 C 116.015,250.149 115.961,249.690 104.500,251.000" stroke-width="6.750" stroke="rgb(33,33,33)" fill="none" stroke-linecap="round"></path><path d="M 104.500,251.000 C 98.461,251.690 98.462,251.808 92.500,253.000" stroke-width="6.750" stroke="rgb(33,33,33)" fill="none" stroke-linecap="round"></path><path d="M 92.500,253.000 C 85.962,254.308 86.053,254.809 79.500,256.000" stroke-width="6.750" stroke="rgb(33,33,33)" fill="none" stroke-linecap="round"></path><path d="M 79.500,256.000 C 75.053,256.809 74.890,256.059 70.500,257.000" stroke-width="6.750" stroke="rgb(33,33,33)" fill="none" stroke-linecap="round"></path><path d="M 70.500,257.000 C 67.890,257.559 68.030,258.157 65.500,259.000" stroke-width="7.038" stroke="rgb(33,33,33)" fill="none" stroke-linecap="round"></path><path d="M 65.500,259.000 C 65.030,259.157 65.000,259.000 64.500,259.000" stroke-width="8.035" stroke="rgb(33,33,33)" fill="none" stroke-linecap="round"></path><path d="M 64.500,259.000 C 64.500,259.000 64.500,259.000 64.500,259.000" stroke-width="9.138" stroke="rgb(33,33,33)" fill="none" stroke-linecap="round"></path><path d="M 64.500,259.000 C 65.000,259.000 65.124,258.700 65.500,259.000" stroke-width="10.233" stroke="rgb(33,33,33)" fill="none" stroke-linecap="round"></path><path d="M 65.500,259.000 C 67.624,260.700 67.202,261.378 69.500,263.000" stroke-width="10.737" stroke="rgb(33,33,33)" fill="none" stroke-linecap="round"></path><path d="M 69.500,263.000 C 75.702,267.378 75.770,267.425 82.500,271.000" stroke-width="10.315" stroke="rgb(33,33,33)" fill="none" stroke-linecap="round"></path><path d="M 82.500,271.000 C 91.770,275.925 91.627,276.474 101.500,280.000" stroke-width="9.406" stroke="rgb(33,33,33)" fill="none" stroke-linecap="round"></path><path d="M 101.500,280.000 C 119.627,286.474 119.741,286.533 138.500,291.000" stroke-width="7.717" stroke="rgb(33,33,33)" fill="none" stroke-linecap="round"></path><path d="M 138.500,291.000 C 172.241,299.033 172.220,299.742 206.500,305.000" stroke-width="6.750" stroke="rgb(33,33,33)" fill="none" stroke-linecap="round"></path><path d="M 206.500,305.000 C 253.720,312.242 253.881,312.008 301.500,316.000" stroke-width="6.750" stroke="rgb(33,33,33)" fill="none" stroke-linecap="round"></path><path d="M 301.500,316.000 C 337.381,319.008 337.482,318.122 373.500,319.000" stroke-width="6.750" stroke="rgb(33,33,33)" fill="none" stroke-linecap="round"></path><path d="M 373.500,319.000 C 439.982,320.622 440.018,321.731 506.500,321.000" stroke-width="6.750" stroke="rgb(33,33,33)" fill="none" stroke-linecap="round"></path></svg>