<svg xmlns="http://www.w3.org/2000/svg" xmlns:xlink="http://www.w3.org/1999/xlink" viewBox="0 0 800 500"><path d="M 279.500,228.500 C 279.500,228.000 279.500,228.000 279.500,227.500" stroke-width="16.875" stroke="rgb(33,33,33)" fill="none" stroke-linecap="round"></path><path d="M 279.500,227.500 C 279.500,227.000 279.345,226.964 279.500,226.500" stroke-width="17.161" stroke="rgb(33,33,33)" fill="none" stroke-linecap="round"></path><path d="M 279.500,226.500 C 279.845,225.464 280.236,225.556 280.500,224.500" stroke-width="17.143" stroke="rgb(33,33,33)" fill="none" stroke-linecap="round"></path><path d="M 280.500,224.500 C 280.736,223.556 280.337,223.480 280.500,222.500" stroke-width="17.141" stroke="rgb(33,33,33)" fill="none" stroke-linecap="round"></path><path d="M 280.500,222.500 C 280.837,220.480 281.274,220.534 281.500,218.500" stroke-width="16.597" stroke="rgb(33,33,33)" fill="none" stroke-linecap="round"></path><path d="M 281.500,218.500 C 281.774,216.034 281.500,216.000 281.500,213.500" stroke-width="15.983" stroke="rgb(33,33,33)" fill="none" stroke-linecap="round"></path><path d="M 281.500,213.500 C 281.500,211.000 281.500,211.000 281.500,208.500" stroke-width="15.614" stroke="rgb(33,33,33)" fill="none" stroke-linecap="round"></path><path d="M 281.500,208.500 C 281.500,206.000 281.274,205.981 281.500,203.500" stroke-width="15.244" stroke="rgb(33,33,33)" fill="none" stroke-linecap="round"></path><path d="M 281.500,203.500 C 281.774,200.481 281.817,200.459 282.500,197.500" stroke-width="14.745" stroke="rgb(33,33,33)" fill="none" stroke-linecap="round"></path><path d="M 282.500,197.500 C 283.317,193.959 283.739,194.051 284.500,190.500" stroke-width="14.151" stroke="rgb(33,33,33)" fill="none" stroke-linecap="round"></path><path d="M 284.500,190.500 C 285.239,187.051 284.849,186.972 285.500,183.500" stroke-width="13.844" stroke="rgb(33,33,33)" fill="none" stroke-linecap="round"></path><path d="M 285.500,183.500 C 286.349,178.972 286.651,179.028 287.500,174.500" stroke-width="13.168" stroke="rgb(33,33,33)" fill="none" stroke-linecap="round"></path><path d="M 287.500,174.500 C 288.151,171.028 288.062,171.008 288.500,167.500" stroke-width="12.991" stroke="rgb(33,33,33)" fill="none" stroke-linecap="round"></path><path d="M 288.500,167.500 C 289.062,163.008 288.902,162.986 289.500,158.500" stroke-width="12.565" stroke="rgb(33,33,33)" fill="none" stroke-linecap="round"></path><path d="M 289.500,158.500 C 289.902,155.486 290.070,155.510 290.500,152.500" stroke-width="12.730" stroke="rgb(33,33,33)" fill="none" stroke-linecap="round"></path><path d="M 290.500,152.500 C 291.070,148.510 291.000,148.500 291.500,144.500" stroke-width="12.506" stroke="rgb(33,33,33)" fill="none" stroke-linecap="round"></path><path d="M 291.500,144.500 C 292.000,140.500 292.000,140.500 292.500,136.500" stroke-width="12.333" stroke="rgb(33,33,33)" fill="none" stroke-linecap="round"></path><path d="M 292.500,136.500 C 293.000,132.500 292.967,132.496 293.500,128.500" stroke-width="12.198" stroke="rgb(33,33,33)" fill="none" stroke-linecap="round"></path><path d="M 293.500,128.500 C 293.967,124.996 293.962,124.994 294.500,121.500" stroke-width="12.303" stroke="rgb(33,33,33)" fill="none" stroke-linecap="round"></path><path d="M 294.500,121.500 C 294.962,118.494 294.636,118.381 295.500,115.500" stroke-width="12.444" stroke="rgb(33,33,33)" fill="none" stroke-linecap="round"></path><path d="M 295.500,115.500 C 296.136,113.381 296.500,113.500 297.500,111.500" stroke-width="12.791" stroke="rgb(33,33,33)" fill="none" stroke-linecap="round"></path><path d="M 297.500,111.500 C 298.000,110.500 298.148,110.555 298.500,109.500" stroke-width="13.435" stroke="rgb(33,33,33)" fill="none" stroke-linecap="round"></path><path d="M 298.500,109.500 C 299.148,107.555 298.934,107.481 299.500,105.500" stroke-width="13.734" stroke="rgb(33,33,33)" fill="none" stroke-linecap="round"></path><path d="M 299.500,105.500 C 299.934,103.981 299.914,103.964 300.500,102.500" stroke-width="14.091" stroke="rgb(33,33,33)" fill="none" stroke-linecap="round"></path><path d="M 300.500,102.500 C 300.914,101.464 300.887,101.419 301.500,100.500" stroke-width="14.565" stroke="rgb(33,33,33)" fill="none" stroke-linecap="round"></path><path d="M 301.500,100.500 C 301.887,99.919 302.000,100.000 302.500,99.500" stroke-width="15.159" stroke="rgb(33,33,33)" fill="none" stroke-linecap="round"></path><path d="M 302.500,99.500 C 303.000,99.000 302.914,98.793 303.500,98.500" stroke-width="15.645" stroke="rgb(33,33,33)" fill="none" stroke-linecap="round"></path><path d="M 303.500,98.500 C 303.914,98.293 304.000,98.500 304.500,98.500" stroke-width="16.172" stroke="rgb(33,33,33)" fill="none" stroke-linecap="round"></path><path d="M 304.500,98.500 C 305.000,98.500 305.000,98.500 305.500,98.500" stroke-width="16.575" stroke="rgb(33,33,33)" fill="none" stroke-linecap="round"></path><path d="M 305.500,98.500 C 306.000,98.500 306.000,98.500 306.500,98.500" stroke-width="16.938" stroke="rgb(33,33,33)" fill="none" stroke-linecap="round"></path><path d="M 306.500,98.500 C 308.000,98.500 308.026,98.289 309.500,98.500" stroke-width="16.838" stroke="rgb(33,33,33)" fill="none" stroke-linecap="round"></path><path d="M 309.500,98.500 C 311.526,98.789 311.597,98.739 313.500,99.500" stroke-width="16.271" stroke="rgb(33,33,33)" fill="none" stroke-linecap="round"></path><path d="M 313.500,99.500 C 316.597,100.739 316.635,100.781 319.500,102.500" stroke-width="15.369" stroke="rgb(33,33,33)" fill="none" stroke-linecap="round"></path><path d="M 319.500,102.500 C 321.635,103.781 321.389,104.180 323.500,105.500" stroke-width="15.141" stroke="rgb(33,33,33)" fill="none" stroke-linecap="round"></path><path d="M 323.500,105.500 C 325.389,106.680 325.734,106.175 327.500,107.500" stroke-width="14.897" stroke="rgb(33,33,33)" fill="none" stroke-linecap="round"></path><path d="M 327.500,107.500 C 329.734,109.175 329.500,109.500 331.500,111.500" stroke-width="14.655" stroke="rgb(33,33,33)" fill="none" stroke-linecap="round"></path><path d="M 331.500,111.500 C 333.000,113.000 333.123,112.893 334.500,114.500" stroke-width="14.715" stroke="rgb(33,33,33)" fill="none" stroke-linecap="round"></path><path d="M 334.500,114.500 C 336.123,116.393 336.296,116.333 337.500,118.500" stroke-width="14.455" stroke="rgb(33,33,33)" fill="none" stroke-linecap="round"></path><path d="M 337.500,118.500 C 338.796,120.833 338.500,121.000 339.500,123.500" stroke-width="14.357" stroke="rgb(33,33,33)" fill="none" stroke-linecap="round"></path><path d="M 339.500,123.500 C 340.500,126.000 340.858,125.931 341.500,128.500" stroke-width="14.198" stroke="rgb(33,33,33)" fill="none" stroke-linecap="round"></path><path d="M 341.500,128.500 C 341.858,129.931 341.500,130.000 341.500,131.500" stroke-width="14.510" stroke="rgb(33,33,33)" fill="none" stroke-linecap="round"></path><path d="M 341.500,131.500 C 341.500,133.500 341.500,133.500 341.500,135.500" stroke-width="14.577" stroke="rgb(33,33,33)" fill="none" stroke-linecap="round"></path><path d="M 341.500,135.500 C 341.500,137.000 341.743,137.040 341.500,138.500" stroke-width="14.875" stroke="rgb(33,33,33)" fill="none" stroke-linecap="round"></path><path d="M 341.500,138.500 C 341.243,140.040 340.757,139.960 340.500,141.500" stroke-width="15.038" stroke="rgb(33,33,33)" fill="none" stroke-linecap="round"></path><path d="M 340.500,141.500 C 340.257,142.960 340.954,143.138 340.500,144.500" stroke-width="15.205" stroke="rgb(33,33,33)" fill="none" stroke-linecap="round"></path><path d="M 340.500,144.500 C 339.954,146.138 339.500,146.000 338.500,147.500" stroke-width="15.214" stroke="rgb(33,33,33)" fill="none" stroke-linecap="round"></path><path d="M 338.500,147.500 C 337.500,149.000 337.839,149.384 336.500,150.500" stroke-width="15.284" stroke="rgb(33,33,33)" fill="none" stroke-linecap="round"></path><path d="M 336.500,150.500 C 334.839,151.884 334.542,151.593 332.500,152.500" stroke-width="15.098" stroke="rgb(33,33,33)" fill="none" stroke-linecap="round"></path><path d="M 332.500,152.500 C 330.042,153.593 330.110,153.941 327.500,154.500" stroke-width="14.771" stroke="rgb(33,33,33)" fill="none" stroke-linecap="round"></path><path d="M 327.500,154.500 C 323.110,155.441 323.000,155.000 318.500,155.500" stroke-width="13.857" stroke="rgb(33,33,33)" fill="none" stroke-linecap="round"></path><path d="M 318.500,155.500 C 314.000,156.000 314.010,156.178 309.500,156.500" stroke-width="13.322" stroke="rgb(33,33,33)" fill="none" stroke-linecap="round"></path><path d="M 309.500,156.500 C 307.010,156.678 307.000,156.500 304.500,156.500" stroke-width="13.438" stroke="rgb(33,33,33)" fill="none" stroke-linecap="round"></path><path d="M 304.500,156.500 C 302.500,156.500 302.500,156.500 300.500,156.500" stroke-width="13.699" stroke="rgb(33,33,33)" fill="none" stroke-linecap="round"></path><path d="M 300.500,156.500 C 299.500,156.500 299.500,156.500 298.500,156.500" stroke-width="14.271" stroke="rgb(33,33,33)" fill="none" stroke-linecap="round"></path><path d="M 298.500,156.500 C 298.000,156.500 298.000,156.500 297.500,156.500" stroke-width="14.980" stroke="rgb(33,33,33)" fill="none" stroke-linecap="round"></path><path d="M 297.500,156.500 C 296.500,156.500 296.500,156.500 295.500,156.500" stroke-width="15.366" stroke="rgb(33,33,33)" fill="none" stroke-linecap="round"></path><path d="M 295.500,156.500 C 295.500,156.500 295.500,156.500 295.500,156.500" stroke-width="16.145" stroke="rgb(33,33,33)" fill="none" stroke-linecap="round"></path><path d="M 295.500,156.500 C 295.000,156.500 295.000,156.500 294.500,156.500" stroke-width="16.577" stroke="rgb(33,33,33)" fill="none" stroke-linecap="round"></path><path d="M 294.500,156.500 C 295.500,156.500 295.531,156.694 296.500,156.500" stroke-width="17.611" stroke="rgb(33,33,33)" fill="none" stroke-linecap="round"></path><path d="M 296.500,156.500 C 298.031,156.194 297.955,155.721 299.500,155.500" stroke-width="17.270" stroke="rgb(33,33,33)" fill="none" stroke-linecap="round"></path><path d="M 299.500,155.500 C 301.455,155.221 301.500,155.500 303.500,155.500" stroke-width="16.725" stroke="rgb(33,33,33)" fill="none" stroke-linecap="round"></path><path d="M 303.500,155.500 C 305.000,155.500 305.000,155.500 306.500,155.500" stroke-width="16.555" stroke="rgb(33,33,33)" fill="none" stroke-linecap="round"></path><path d="M 306.500,155.500 C 308.000,155.500 308.026,155.711 309.500,155.500" stroke-width="16.422" stroke="rgb(33,33,33)" fill="none" stroke-linecap="round"></path><path d="M 309.500,155.500 C 311.526,155.211 311.470,154.754 313.500,154.500" stroke-width="16.133" stroke="rgb(33,33,33)" fill="none" stroke-linecap="round"></path><path d="M 313.500,154.500 C 315.470,154.254 315.516,154.698 317.500,154.500" stroke-width="15.859" stroke="rgb(33,33,33)" fill="none" stroke-linecap="round"></path><path d="M 317.500,154.500 C 320.516,154.198 320.478,153.732 323.500,153.500" stroke-width="15.202" stroke="rgb(33,33,33)" fill="none" stroke-linecap="round"></path><path d="M 323.500,153.500 C 326.978,153.232 327.000,153.500 330.500,153.500" stroke-width="14.538" stroke="rgb(33,33,33)" fill="none" stroke-linecap="round"></path><path d="M 330.500,153.500 C 333.500,153.500 333.500,153.500 336.500,153.500" stroke-width="14.396" stroke="rgb(33,33,33)" fill="none" stroke-linecap="round"></path><path d="M 336.500,153.500 C 339.500,153.500 339.500,153.500 342.500,153.500" stroke-width="14.011" stroke="rgb(33,33,33)" fill="none" stroke-linecap="round"></path><path d="M 342.500,153.500 C 344.500,153.500 344.545,153.779 346.500,153.500" stroke-width="14.171" stroke="rgb(33,33,33)" fill="none" stroke-linecap="round"></path><path d="M 346.500,153.500 C 348.045,153.279 347.981,152.880 349.500,152.500" stroke-width="14.507" stroke="rgb(33,33,33)" fill="none" stroke-linecap="round"></path><path d="M 349.500,152.500 C 349.981,152.380 350.086,152.707 350.500,152.500" stroke-width="15.170" stroke="rgb(33,33,33)" fill="none" stroke-linecap="round"></path><path d="M 350.500,152.500 C 351.086,152.207 350.914,151.793 351.500,151.500" stroke-width="15.654" stroke="rgb(33,33,33)" fill="none" stroke-linecap="round"></path><path d="M 351.500,151.500 C 351.914,151.293 352.250,151.750 352.500,151.500" stroke-width="16.180" stroke="rgb(33,33,33)" fill="none" stroke-linecap="round"></path><path d="M 352.500,151.500 C 352.750,151.250 352.293,150.914 352.500,150.500" stroke-width="16.606" stroke="rgb(33,33,33)" fill="none" stroke-linecap="round"></path><path d="M 352.500,150.500 C 352.793,149.914 353.207,150.086 353.500,149.500" stroke-width="16.857" stroke="rgb(33,33,33)" fill="none" stroke-linecap="round"></path><path d="M 353.500,149.500 C 353.707,149.086 353.500,149.000 353.500,148.500" stroke-width="17.173" stroke="rgb(33,33,33)" fill="none" stroke-linecap="round"></path><path d="M 353.500,148.500 C 353.500,148.000 353.500,148.000 353.500,147.500" stroke-width="17.434" stroke="rgb(33,33,33)" fill="none" stroke-linecap="round"></path><path d="M 353.500,147.500 C 353.500,147.000 353.293,146.914 353.500,146.500" stroke-width="17.648" stroke="rgb(33,33,33)" fill="none" stroke-linecap="round"></path><path d="M 353.500,146.500 C 353.793,145.914 354.207,146.086 354.500,145.500" stroke-width="17.740" stroke="rgb(33,33,33)" fill="none" stroke-linecap="round"></path><path d="M 354.500,145.500 C 354.707,145.086 354.500,145.000 354.500,144.500" stroke-width="17.898" stroke="rgb(33,33,33)" fill="none" stroke-linecap="round"></path><path d="M 354.500,144.500 C 354.500,144.000 354.500,144.000 354.500,143.500" stroke-width="18.027" stroke="rgb(33,33,33)" fill="none" stroke-linecap="round"></path><path d="M 354.500,143.500 C 354.500,143.000 354.500,143.000 354.500,142.500" stroke-width="18.132" stroke="rgb(33,33,33)" fill="none" stroke-linecap="round"></path><path d="M 354.500,142.500 C 354.500,142.500 354.500,142.500 354.500,142.500" stroke-width="18.519" stroke="rgb(33,33,33)" fill="none" stroke-linecap="round"></path><path d="M 354.500,142.500 C 354.500,142.000 354.500,142.000 354.500,141.500" stroke-width="18.528" stroke="rgb(33,33,33)" fill="none" stroke-linecap="round"></path><path d="M 354.500,141.500 C 354.500,141.000 354.500,141.000 354.500,140.500" stroke-width="19.000" stroke="rgb(33,33,33)" fill="none" stroke-linecap="round"></path><path d="M 354.500,140.500 C 354.500,141.000 354.750,141.250 354.500,141.500" stroke-width="19.623" stroke="rgb(33,33,33)" fill="none" stroke-linecap="round"></path><path d="M 354.500,141.500 C 354.250,141.750 354.000,141.500 353.500,141.500" stroke-width="19.401" stroke="rgb(33,33,33)" fill="none" stroke-linecap="round"></path><path d="M 353.500,141.500 C 353.500,141.500 353.500,141.500 353.500,141.500" stroke-width="19.565" stroke="rgb(33,33,33)" fill="none" stroke-linecap="round"></path><path d="M 353.500,141.500 C 353.500,142.000 353.500,142.000 353.500,142.500" stroke-width="19.356" stroke="rgb(33,33,33)" fill="none" stroke-linecap="round"></path><path d="M 353.500,142.500 C 353.500,143.000 353.167,143.333 353.500,143.500" stroke-width="19.597" stroke="rgb(33,33,33)" fill="none" stroke-linecap="round"></path><path d="M 353.500,143.500 C 354.167,143.833 354.500,143.500 355.500,143.500" stroke-width="19.050" stroke="rgb(33,33,33)" fill="none" stroke-linecap="round"></path><path d="M 355.500,143.500 C 357.000,143.500 357.052,143.822 358.500,143.500" stroke-width="18.402" stroke="rgb(33,33,33)" fill="none" stroke-linecap="round"></path><path d="M 358.500,143.500 C 361.552,142.822 361.428,142.058 364.500,141.500" stroke-width="16.941" stroke="rgb(33,33,33)" fill="none" stroke-linecap="round"></path><path d="M 364.500,141.500 C 366.928,141.058 367.010,141.678 369.500,141.500" stroke-width="16.237" stroke="rgb(33,33,33)" fill="none" stroke-linecap="round"></path><path d="M 369.500,141.500 C 374.010,141.178 374.127,141.529 378.500,140.500" stroke-width="14.864" stroke="rgb(33,33,33)" fill="none" stroke-linecap="round"></path><path d="M 378.500,140.500 C 382.627,139.529 382.565,139.157 386.500,137.500" stroke-width="14.247" stroke="rgb(33,33,33)" fill="none" stroke-linecap="round"></path><path d="M 386.500,137.500 C 392.065,135.157 392.101,135.200 397.500,132.500" stroke-width="12.827" stroke="rgb(33,33,33)" fill="none" stroke-linecap="round"></path><path d="M 397.500,132.500 C 402.101,130.200 402.235,130.343 406.500,127.500" stroke-width="12.271" stroke="rgb(33,33,33)" fill="none" stroke-linecap="round"></path><path d="M 406.500,127.500 C 409.735,125.343 410.290,125.539 412.500,122.500" stroke-width="12.270" stroke="rgb(33,33,33)" fill="none" stroke-linecap="round"></path><path d="M 412.500,122.500 C 414.290,120.039 413.735,119.558 414.500,116.500" stroke-width="12.297" stroke="rgb(33,33,33)" fill="none" stroke-linecap="round"></path><path d="M 414.500,116.500 C 415.235,113.558 415.268,113.522 415.500,110.500" stroke-width="12.509" stroke="rgb(33,33,33)" fill="none" stroke-linecap="round"></path><path d="M 415.500,110.500 C 415.768,107.022 415.500,107.000 415.500,103.500" stroke-width="12.564" stroke="rgb(33,33,33)" fill="none" stroke-linecap="round"></path><path d="M 415.500,103.500 C 415.500,101.500 415.720,101.478 415.500,99.500" stroke-width="12.903" stroke="rgb(33,33,33)" fill="none" stroke-linecap="round"></path><path d="M 415.500,99.500 C 415.220,96.978 415.117,96.969 414.500,94.500" stroke-width="13.145" stroke="rgb(33,33,33)" fill="none" stroke-linecap="round"></path><path d="M 414.500,94.500 C 414.117,92.969 414.201,92.902 413.500,91.500" stroke-width="13.592" stroke="rgb(33,33,33)" fill="none" stroke-linecap="round"></path><path d="M 413.500,91.500 C 412.701,89.902 412.577,89.937 411.500,88.500" stroke-width="13.894" stroke="rgb(33,33,33)" fill="none" stroke-linecap="round"></path><path d="M 411.500,88.500 C 411.077,87.937 411.141,87.660 410.500,87.500" stroke-width="14.551" stroke="rgb(33,33,33)" fill="none" stroke-linecap="round"></path><path d="M 410.500,87.500 C 409.141,87.160 409.000,87.500 407.500,87.500" stroke-width="14.853" stroke="rgb(33,33,33)" fill="none" stroke-linecap="round"></path><path d="M 407.500,87.500 C 406.000,87.500 406.000,87.500 404.500,87.500" stroke-width="15.053" stroke="rgb(33,33,33)" fill="none" stroke-linecap="round"></path><path d="M 404.500,87.500 C 403.000,87.500 402.974,87.289 401.500,87.500" stroke-width="15.217" stroke="rgb(33,33,33)" fill="none" stroke-linecap="round"></path><path d="M 401.500,87.500 C 399.474,87.789 399.451,87.850 397.500,88.500" stroke-width="15.117" stroke="rgb(33,33,33)" fill="none" stroke-linecap="round"></path><path d="M 397.500,88.500 C 394.951,89.350 394.745,89.072 392.500,90.500" stroke-width="14.786" stroke="rgb(33,33,33)" fill="none" stroke-linecap="round"></path><path d="M 392.500,90.500 C 389.245,92.572 389.359,92.845 386.500,95.500" stroke-width="14.202" stroke="rgb(33,33,33)" fill="none" stroke-linecap="round"></path><path d="M 386.500,95.500 C 382.359,99.345 382.611,99.617 378.500,103.500" stroke-width="13.095" stroke="rgb(33,33,33)" fill="none" stroke-linecap="round"></path><path d="M 378.500,103.500 C 373.611,108.117 372.888,107.454 368.500,112.500" stroke-width="12.041" stroke="rgb(33,33,33)" fill="none" stroke-linecap="round"></path><path d="M 368.500,112.500 C 362.888,118.954 363.013,119.194 358.500,126.500" stroke-width="11.053" stroke="rgb(33,33,33)" fill="none" stroke-linecap="round"></path><path d="M 358.500,126.500 C 352.513,136.194 352.965,136.481 347.500,146.500" stroke-width="9.732" stroke="rgb(33,33,33)" fill="none" stroke-linecap="round"></path><path d="M 347.500,146.500 C 343.965,152.981 343.401,152.731 340.500,159.500" stroke-width="9.494" stroke="rgb(33,33,33)" fill="none" stroke-linecap="round"></path><path d="M 340.500,159.500 C 335.901,170.231 336.366,170.453 332.500,181.500" stroke-width="8.683" stroke="rgb(33,33,33)" fill="none" stroke-linecap="round"></path><path d="M 332.500,181.500 C 329.366,190.453 329.577,190.526 326.500,199.500" stroke-width="8.400" stroke="rgb(33,33,33)" fill="none" stroke-linecap="round"></path><path d="M 326.500,199.500 C 323.577,208.026 323.169,207.900 320.500,216.500" stroke-width="8.337" stroke="rgb(33,33,33)" fill="none" stroke-linecap="round"></path><path d="M 320.500,216.500 C 318.669,222.400 318.870,222.471 317.500,228.500" stroke-width="8.551" stroke="rgb(33,33,33)" fill="none" stroke-linecap="round"></path><path d="M 317.500,228.500 C 316.370,233.471 316.440,233.489 315.500,238.500" stroke-width="8.882" stroke="rgb(33,33,33)" fill="none" stroke-linecap="round"></path><path d="M 315.500,238.500 C 314.940,241.489 314.774,241.481 314.500,244.500" stroke-width="9.487" stroke="rgb(33,33,33)" fill="none" stroke-linecap="round"></path><path d="M 314.500,244.500 C 314.274,246.981 314.500,247.000 314.500,249.500" stroke-width="10.171" stroke="rgb(33,33,33)" fill="none" stroke-linecap="round"></path><path d="M 314.500,249.500 C 314.500,251.500 314.500,251.500 314.500,253.500" stroke-width="10.855" stroke="rgb(33,33,33)" fill="none" stroke-linecap="round"></path><path d="M 314.500,253.500 C 314.500,256.000 314.194,256.050 314.500,258.500" stroke-width="11.355" stroke="rgb(33,33,33)" fill="none" stroke-linecap="round"></path><path d="M 314.500,258.500 C 314.694,260.050 315.194,259.969 315.500,261.500" stroke-width="12.058" stroke="rgb(33,33,33)" fill="none" stroke-linecap="round"></path><path d="M 315.500,261.500 C 315.694,262.469 315.500,262.500 315.500,263.500" stroke-width="12.818" stroke="rgb(33,33,33)" fill="none" stroke-linecap="round"></path><path d="M 315.500,263.500 C 315.500,264.000 315.500,264.000 315.500,264.500" stroke-width="13.664" stroke="rgb(33,33,33)" fill="none" stroke-linecap="round"></path><path d="M 315.500,264.500 C 315.500,264.500 315.500,264.500 315.500,264.500" stroke-width="14.614" stroke="rgb(33,33,33)" fill="none" stroke-linecap="round"></path><path d="M 315.500,264.500 C 315.500,265.000 315.500,265.500 315.500,265.500" stroke-width="15.281" stroke="rgb(33,33,33)" fill="none" stroke-linecap="round"></path><path d="M 315.500,265.500 C 315.500,265.500 315.500,265.000 315.500,264.500" stroke-width="16.032" stroke="rgb(33,33,33)" fill="none" stroke-linecap="round"></path><path d="M 315.500,264.500 C 315.500,264.500 315.500,264.500 315.500,264.500" stroke-width="16.729" stroke="rgb(33,33,33)" fill="none" stroke-linecap="round"></path><path d="M 315.500,264.500 C 316.000,264.000 316.245,264.138 316.500,263.500" stroke-width="16.922" stroke="rgb(33,33,33)" fill="none" stroke-linecap="round"></path><path d="M 316.500,263.500 C 317.245,261.638 317.274,261.534 317.500,259.500" stroke-width="16.516" stroke="rgb(33,33,33)" fill="none" stroke-linecap="round"></path><path d="M 317.500,259.500 C 317.774,257.034 317.500,257.000 317.500,254.500" stroke-width="16.018" stroke="rgb(33,33,33)" fill="none" stroke-linecap="round"></path><path d="M 317.500,254.500 C 317.500,252.000 317.252,251.975 317.500,249.500" stroke-width="15.442" stroke="rgb(33,33,33)" fill="none" stroke-linecap="round"></path><path d="M 317.500,249.500 C 317.752,246.975 318.248,247.025 318.500,244.500" stroke-width="15.179" stroke="rgb(33,33,33)" fill="none" stroke-linecap="round"></path><path d="M 318.500,244.500 C 318.748,242.025 317.919,241.824 318.500,239.500" stroke-width="14.910" stroke="rgb(33,33,33)" fill="none" stroke-linecap="round"></path><path d="M 318.500,239.500 C 318.919,237.824 319.500,238.000 320.500,236.500" stroke-width="14.977" stroke="rgb(33,33,33)" fill="none" stroke-linecap="round"></path><path d="M 320.500,236.500 C 322.500,233.500 322.138,233.157 324.500,230.500" stroke-width="14.333" stroke="rgb(33,33,33)" fill="none" stroke-linecap="round"></path><path d="M 324.500,230.500 C 326.138,228.657 326.527,229.035 328.500,227.500" stroke-width="14.326" stroke="rgb(33,33,33)" fill="none" stroke-linecap="round"></path><path d="M 328.500,227.500 C 331.027,225.535 330.940,225.420 333.500,223.500" stroke-width="13.992" stroke="rgb(33,33,33)" fill="none" stroke-linecap="round"></path><path d="M 333.500,223.500 C 336.940,220.920 337.060,221.080 340.500,218.500" stroke-width="13.373" stroke="rgb(33,33,33)" fill="none" stroke-linecap="round"></path><path d="M 340.500,218.500 C 343.060,216.580 342.822,216.174 345.500,214.500" stroke-width="13.339" stroke="rgb(33,33,33)" fill="none" stroke-linecap="round"></path><path d="M 345.500,214.500 C 346.822,213.674 347.036,214.086 348.500,213.500" stroke-width="13.757" stroke="rgb(33,33,33)" fill="none" stroke-linecap="round"></path><path d="M 348.500,213.500 C 349.536,213.086 349.500,213.000 350.500,212.500" stroke-width="14.278" stroke="rgb(33,33,33)" fill="none" stroke-linecap="round"></path><path d="M 350.500,212.500 C 350.500,212.500 350.500,212.500 350.500,212.500" stroke-width="15.173" stroke="rgb(33,33,33)" fill="none" stroke-linecap="round"></path><path d="M 350.500,212.500 C 351.000,212.000 350.914,211.793 351.500,211.500" stroke-width="15.657" stroke="rgb(33,33,33)" fill="none" stroke-linecap="round"></path><path d="M 351.500,211.500 C 351.914,211.293 352.086,211.707 352.500,211.500" stroke-width="16.163" stroke="rgb(33,33,33)" fill="none" stroke-linecap="round"></path><path d="M 352.500,211.500 C 353.086,211.207 352.914,210.793 353.500,210.500" stroke-width="16.519" stroke="rgb(33,33,33)" fill="none" stroke-linecap="round"></path><path d="M 353.500,210.500 C 353.914,210.293 354.000,210.500 354.500,210.500" stroke-width="16.891" stroke="rgb(33,33,33)" fill="none" stroke-linecap="round"></path><path d="M 354.500,210.500 C 354.000,210.500 354.000,210.500 353.500,210.500" stroke-width="18.415" stroke="rgb(33,33,33)" fill="none" stroke-linecap="round"></path><path d="M 353.500,210.500 C 352.000,210.500 351.974,210.711 350.500,210.500" stroke-width="17.853" stroke="rgb(33,33,33)" fill="none" stroke-linecap="round"></path><path d="M 350.500,210.500 C 348.474,210.211 348.509,209.964 346.500,209.500" stroke-width="17.127" stroke="rgb(33,33,33)" fill="none" stroke-linecap="round"></path><path d="M 346.500,209.500 C 342.009,208.464 341.984,208.568 337.500,207.500" stroke-width="15.416" stroke="rgb(33,33,33)" fill="none" stroke-linecap="round"></path><path d="M 337.500,207.500 C 331.484,206.068 331.545,205.795 325.500,204.500" stroke-width="13.899" stroke="rgb(33,33,33)" fill="none" stroke-linecap="round"></path><path d="M 325.500,204.500 C 317.545,202.795 317.491,203.047 309.500,201.500" stroke-width="12.187" stroke="rgb(33,33,33)" fill="none" stroke-linecap="round"></path><path d="M 309.500,201.500 C 301.991,200.047 302.000,200.000 294.500,198.500" stroke-width="11.204" stroke="rgb(33,33,33)" fill="none" stroke-linecap="round"></path><path d="M 294.500,198.500 C 289.500,197.500 289.516,197.336 284.500,196.500" stroke-width="11.058" stroke="rgb(33,33,33)" fill="none" stroke-linecap="round"></path><path d="M 284.500,196.500 C 283.516,196.336 283.500,196.500 282.500,196.500" stroke-width="11.923" stroke="rgb(33,33,33)" fill="none" stroke-linecap="round"></path><path d="M 282.500,196.500 C 282.500,196.500 282.500,196.500 282.500,196.500" stroke-width="12.991" stroke="rgb(33,33,33)" fill="none" stroke-linecap="round"></path><path d="M 282.500,196.500 C 283.000,196.500 283.023,196.357 283.500,196.500" stroke-width="13.821" stroke="rgb(33,33,33)" fill="none" stroke-linecap="round"></path><path d="M 283.500,196.500 C 288.023,197.857 287.916,198.294 292.500,199.500" stroke-width="13.233" stroke="rgb(33,33,33)" fill="none" stroke-linecap="round"></path><path d="M 292.500,199.500 C 306.916,203.294 307.041,202.837 321.500,206.500" stroke-width="10.297" stroke="rgb(33,33,33)" fill="none" stroke-linecap="round"></path><path d="M 321.500,206.500 C 344.541,212.337 344.555,212.299 367.500,218.500" stroke-width="7.893" stroke="rgb(33,33,33)" fill="none" stroke-linecap="round"></path><path d="M 367.500,218.500 C 381.555,222.299 381.288,223.550 395.500,226.500" stroke-width="7.143" stroke="rgb(33,33,33)" fill="none" stroke-linecap="round"></path><path d="M 395.500,226.500 C 407.788,229.050 407.967,228.560 420.500,229.500" stroke-width="6.921" stroke="rgb(33,33,33)" fill="none" stroke-linecap="round"></path><path d="M 420.500,229.500 C 427.967,230.060 428.000,229.500 435.500,229.500" stroke-width="7.307" stroke="rgb(33,33,33)" fill="none" stroke-linecap="round"></path><path d="M 435.500,229.500 C 437.500,229.500 437.500,229.500 439.500,229.500" stroke-width="8.109" stroke="rgb(33,33,33)" fill="none" stroke-linecap="round"></path><path d="M 439.500,229.500 C 440.000,229.500 440.500,229.500 440.500,229.500" stroke-width="9.139" stroke="rgb(33,33,33)" fill="none" stroke-linecap="round"></path><path d="M 440.500,229.500 C 440.500,229.500 440.000,229.500 439.500,229.500" stroke-width="10.220" stroke="rgb(33,33,33)" fill="none" stroke-linecap="round"></path><path d="M 439.500,229.500 C 439.500,229.500 439.500,229.500 439.500,229.500" stroke-width="11.344" stroke="rgb(33,33,33)" fill="none" stroke-linecap="round"></path><path d="M 439.500,229.500 C 439.000,229.500 439.000,229.500 438.500,229.500" stroke-width="12.312" stroke="rgb(33,33,33)" fill="none" stroke-linecap="round"></path><path d="M 438.500,229.500 C 438.500,229.500 438.500,229.500 438.500,229.500" stroke-width="13.359" stroke="rgb(33,33,33)" fill="none" stroke-linecap="round"></path><path d="M 438.500,229.500 C 438.500,229.000 438.500,229.000 438.500,228.500" stroke-width="14.168" stroke="rgb(33,33,33)" fill="none" stroke-linecap="round"></path><path d="M 438.500,228.500 C 438.000,228.500 438.000,228.500 437.500,228.500" stroke-width="18.574" stroke="rgb(33,33,33)" fill="none" stroke-linecap="round"></path><path d="M 437.500,228.500 C 437.500,229.000 437.500,229.500 437.500,229.500" stroke-width="19.189" stroke="rgb(33,33,33)" fill="none" stroke-linecap="round"></path><path d="M 437.500,229.500 C 437.500,229.500 437.500,228.500 437.500,228.500" stroke-width="19.284" stroke="rgb(33,33,33)" fill="none" stroke-linecap="round"></path><path d="M 437.500,228.500 C 437.500,228.500 437.500,229.000 437.500,229.500" stroke-width="19.360" stroke="rgb(33,33,33)" fill="none" stroke-linecap="round"></path></svg>