<svg xmlns="http://www.w3.org/2000/svg" xmlns:xlink="http://www.w3.org/1999/xlink" viewBox="0 0 800 500"><path d="M 289.400,144.000 C 287.900,144.000 287.900,144.000 286.400,144.000" stroke-width="20.111" stroke="rgb(33,33,33)" fill="none" stroke-linecap="round"></path><path d="M 286.400,144.000 C 285.900,144.000 285.900,144.000 285.400,144.000" stroke-width="19.650" stroke="rgb(33,33,33)" fill="none" stroke-linecap="round"></path><path d="M 285.400,144.000 C 283.900,144.000 283.900,144.000 282.400,144.000" stroke-width="18.560" stroke="rgb(33,33,33)" fill="none" stroke-linecap="round"></path><path d="M 282.400,144.000 C 281.400,144.000 281.400,144.000 280.400,144.000" stroke-width="18.306" stroke="rgb(33,33,33)" fill="none" stroke-linecap="round"></path><path d="M 280.400,144.000 C 278.400,144.000 278.400,144.000 276.400,144.000" stroke-width="15.759" stroke="rgb(33,33,33)" fill="none" stroke-linecap="round"></path><path d="M 276.400,144.000 C 274.400,144.000 274.400,144.000 272.400,144.000" stroke-width="15.378" stroke="rgb(33,33,33)" fill="none" stroke-linecap="round"></path><path d="M 272.400,144.000 C 270.400,144.000 270.241,143.474 268.400,144.000" stroke-width="13.932" stroke="rgb(33,33,33)" fill="none" stroke-linecap="round"></path><path d="M 268.400,144.000 C 266.741,144.474 266.634,144.766 265.400,146.000" stroke-width="14.034" stroke="rgb(33,33,33)" fill="none" stroke-linecap="round"></path><path d="M 265.400,146.000 C 264.634,146.766 264.974,147.043 264.400,148.000" stroke-width="14.278" stroke="rgb(33,33,33)" fill="none" stroke-linecap="round"></path><path d="M 264.400,148.000 C 263.474,149.543 263.199,149.402 262.400,151.000" stroke-width="14.213" stroke="rgb(33,33,33)" fill="none" stroke-linecap="round"></path><path d="M 262.400,151.000 C 261.699,152.402 261.621,152.455 261.400,154.000" stroke-width="14.272" stroke="rgb(33,33,33)" fill="none" stroke-linecap="round"></path><path d="M 261.400,154.000 C 261.121,155.955 261.180,156.022 261.400,158.000" stroke-width="14.111" stroke="rgb(33,33,33)" fill="none" stroke-linecap="round"></path><path d="M 261.400,158.000 C 261.680,160.522 261.598,160.594 262.400,163.000" stroke-width="13.724" stroke="rgb(33,33,33)" fill="none" stroke-linecap="round"></path><path d="M 262.400,163.000 C 263.598,166.594 262.971,167.328 265.400,170.000" stroke-width="12.891" stroke="rgb(33,33,33)" fill="none" stroke-linecap="round"></path><path d="M 265.400,170.000 C 267.971,172.828 269.052,171.768 272.400,174.000" stroke-width="12.212" stroke="rgb(33,33,33)" fill="none" stroke-linecap="round"></path><path d="M 272.400,174.000 C 276.552,176.768 276.750,176.631 280.400,180.000" stroke-width="11.398" stroke="rgb(33,33,33)" fill="none" stroke-linecap="round"></path><path d="M 280.400,180.000 C 283.250,182.631 282.304,183.789 285.400,186.000" stroke-width="11.148" stroke="rgb(33,33,33)" fill="none" stroke-linecap="round"></path><path d="M 285.400,186.000 C 289.304,188.789 290.070,187.691 294.400,190.000" stroke-width="10.661" stroke="rgb(33,33,33)" fill="none" stroke-linecap="round"></path><path d="M 294.400,190.000 C 297.570,191.691 297.487,191.881 300.400,194.000" stroke-width="10.659" stroke="rgb(33,33,33)" fill="none" stroke-linecap="round"></path><path d="M 300.400,194.000 C 302.987,195.881 302.722,196.326 305.400,198.000" stroke-width="10.772" stroke="rgb(33,33,33)" fill="none" stroke-linecap="round"></path><path d="M 305.400,198.000 C 306.722,198.826 307.260,198.240 308.400,199.000" stroke-width="11.357" stroke="rgb(33,33,33)" fill="none" stroke-linecap="round"></path><path d="M 308.400,199.000 C 308.760,199.240 308.733,199.833 308.400,200.000" stroke-width="12.262" stroke="rgb(33,33,33)" fill="none" stroke-linecap="round"></path><path d="M 308.400,200.000 C 307.733,200.333 307.400,200.000 306.400,200.000" stroke-width="13.168" stroke="rgb(33,33,33)" fill="none" stroke-linecap="round"></path><path d="M 306.400,200.000 C 303.900,200.000 303.861,199.648 301.400,200.000" stroke-width="13.021" stroke="rgb(33,33,33)" fill="none" stroke-linecap="round"></path><path d="M 301.400,200.000 C 296.861,200.648 296.951,201.465 292.400,202.000" stroke-width="12.092" stroke="rgb(33,33,33)" fill="none" stroke-linecap="round"></path><path d="M 292.400,202.000 C 288.451,202.465 288.400,202.000 284.400,202.000" stroke-width="11.640" stroke="rgb(33,33,33)" fill="none" stroke-linecap="round"></path><path d="M 284.400,202.000 C 280.400,202.000 280.400,202.000 276.400,202.000" stroke-width="11.302" stroke="rgb(33,33,33)" fill="none" stroke-linecap="round"></path><path d="M 276.400,202.000 C 270.900,202.000 270.900,202.000 265.400,202.000" stroke-width="10.611" stroke="rgb(33,33,33)" fill="none" stroke-linecap="round"></path><path d="M 265.400,202.000 C 259.400,202.000 259.400,202.000 253.400,202.000" stroke-width="9.991" stroke="rgb(33,33,33)" fill="none" stroke-linecap="round"></path><path d="M 253.400,202.000 C 247.400,202.000 247.400,202.000 241.400,202.000" stroke-width="9.546" stroke="rgb(33,33,33)" fill="none" stroke-linecap="round"></path><path d="M 241.400,202.000 C 234.900,202.000 234.900,202.000 228.400,202.000" stroke-width="9.113" stroke="rgb(33,33,33)" fill="none" stroke-linecap="round"></path><path d="M 228.400,202.000 C 224.400,202.000 224.400,202.000 220.400,202.000" stroke-width="9.299" stroke="rgb(33,33,33)" fill="none" stroke-linecap="round"></path><path d="M 220.400,202.000 C 214.900,202.000 214.900,202.000 209.400,202.000" stroke-width="9.133" stroke="rgb(33,33,33)" fill="none" stroke-linecap="round"></path><path d="M 209.400,202.000 C 206.900,202.000 206.900,202.000 204.400,202.000" stroke-width="9.649" stroke="rgb(33,33,33)" fill="none" stroke-linecap="round"></path><path d="M 204.400,202.000 C 203.400,202.000 203.400,202.000 202.400,202.000" stroke-width="10.498" stroke="rgb(33,33,33)" fill="none" stroke-linecap="round"></path><path d="M 202.400,202.000 C 201.400,202.000 200.733,202.000 200.400,202.000" stroke-width="11.293" stroke="rgb(33,33,33)" fill="none" stroke-linecap="round"></path><path d="M 200.400,202.000 C 200.233,202.000 200.900,202.000 201.400,202.000" stroke-width="12.387" stroke="rgb(33,33,33)" fill="none" stroke-linecap="round"></path><path d="M 201.400,202.000 C 201.900,202.000 201.900,202.000 202.400,202.000" stroke-width="13.304" stroke="rgb(33,33,33)" fill="none" stroke-linecap="round"></path><path d="M 202.400,202.000 C 203.400,202.000 203.400,202.000 204.400,202.000" stroke-width="13.956" stroke="rgb(33,33,33)" fill="none" stroke-linecap="round"></path><path d="M 204.400,202.000 C 204.400,202.000 204.400,202.000 204.400,202.000" stroke-width="14.881" stroke="rgb(33,33,33)" fill="none" stroke-linecap="round"></path><path d="M 204.400,202.000 C 204.900,202.000 204.900,202.000 205.400,202.000" stroke-width="15.373" stroke="rgb(33,33,33)" fill="none" stroke-linecap="round"></path><path d="M 205.400,202.000 C 206.900,202.000 206.900,202.000 208.400,202.000" stroke-width="15.118" stroke="rgb(33,33,33)" fill="none" stroke-linecap="round"></path><path d="M 208.400,202.000 C 209.400,202.000 209.400,202.000 210.400,202.000" stroke-width="16.451" stroke="rgb(33,33,33)" fill="none" stroke-linecap="round"></path><path d="M 210.400,202.000 C 211.400,202.000 211.400,202.000 212.400,202.000" stroke-width="16.474" stroke="rgb(33,33,33)" fill="none" stroke-linecap="round"></path><path d="M 212.400,202.000 C 212.400,202.000 212.400,202.000 212.400,202.000" stroke-width="17.112" stroke="rgb(33,33,33)" fill="none" stroke-linecap="round"></path><path d="M 212.400,202.000 C 214.400,202.000 214.400,202.000 216.400,202.000" stroke-width="15.820" stroke="rgb(33,33,33)" fill="none" stroke-linecap="round"></path><path d="M 216.400,202.000 C 216.400,202.000 216.400,202.000 216.400,202.000" stroke-width="16.544" stroke="rgb(33,33,33)" fill="none" stroke-linecap="round"></path><path d="M 216.400,202.000 C 217.400,202.000 217.400,202.000 218.400,202.000" stroke-width="16.474" stroke="rgb(33,33,33)" fill="none" stroke-linecap="round"></path><path d="M 218.400,202.000 C 219.900,202.000 219.900,202.000 221.400,202.000" stroke-width="16.092" stroke="rgb(33,33,33)" fill="none" stroke-linecap="round"></path><path d="M 221.400,202.000 C 222.900,202.000 222.900,202.000 224.400,202.000" stroke-width="15.799" stroke="rgb(33,33,33)" fill="none" stroke-linecap="round"></path><path d="M 224.400,202.000 C 225.400,202.000 225.400,202.000 226.400,202.000" stroke-width="15.878" stroke="rgb(33,33,33)" fill="none" stroke-linecap="round"></path><path d="M 226.400,202.000 C 227.400,202.000 227.400,202.000 228.400,202.000" stroke-width="15.941" stroke="rgb(33,33,33)" fill="none" stroke-linecap="round"></path><path d="M 228.400,202.000 C 230.400,202.000 230.400,202.000 232.400,202.000" stroke-width="15.220" stroke="rgb(33,33,33)" fill="none" stroke-linecap="round"></path><path d="M 232.400,202.000 C 234.400,202.000 234.400,202.000 236.400,202.000" stroke-width="15.144" stroke="rgb(33,33,33)" fill="none" stroke-linecap="round"></path><path d="M 236.400,202.000 C 236.900,202.000 236.900,202.000 237.400,202.000" stroke-width="15.541" stroke="rgb(33,33,33)" fill="none" stroke-linecap="round"></path><path d="M 237.400,202.000 C 238.900,202.000 238.900,202.000 240.400,202.000" stroke-width="15.371" stroke="rgb(33,33,33)" fill="none" stroke-linecap="round"></path><path d="M 240.400,202.000 C 240.900,202.000 240.900,202.000 241.400,202.000" stroke-width="15.789" stroke="rgb(33,33,33)" fill="none" stroke-linecap="round"></path><path d="M 241.400,202.000 C 242.900,202.000 242.900,202.000 244.400,202.000" stroke-width="15.665" stroke="rgb(33,33,33)" fill="none" stroke-linecap="round"></path><path d="M 244.400,202.000 C 244.400,202.000 244.400,202.000 244.400,202.000" stroke-width="16.408" stroke="rgb(33,33,33)" fill="none" stroke-linecap="round"></path><path d="M 244.400,202.000 C 244.900,202.000 244.900,202.000 245.400,202.000" stroke-width="16.704" stroke="rgb(33,33,33)" fill="none" stroke-linecap="round"></path><path d="M 245.400,202.000 C 246.900,202.000 246.900,202.000 248.400,202.000" stroke-width="16.128" stroke="rgb(33,33,33)" fill="none" stroke-linecap="round"></path><path d="M 248.400,202.000 C 249.400,201.000 249.228,200.586 250.400,200.000" stroke-width="16.853" stroke="rgb(33,33,33)" fill="none" stroke-linecap="round"></path><path d="M 250.400,200.000 C 251.228,199.586 251.733,200.333 252.400,200.000" stroke-width="16.718" stroke="rgb(33,33,33)" fill="none" stroke-linecap="round"></path><path d="M 252.400,200.000 C 252.733,199.833 252.400,199.500 252.400,199.000" stroke-width="16.909" stroke="rgb(33,33,33)" fill="none" stroke-linecap="round"></path><path d="M 252.400,199.000 C 252.400,199.000 252.400,199.000 252.400,199.000" stroke-width="17.486" stroke="rgb(33,33,33)" fill="none" stroke-linecap="round"></path><path d="M 252.400,199.000 C 252.900,199.000 252.900,199.000 253.400,199.000" stroke-width="17.587" stroke="rgb(33,33,33)" fill="none" stroke-linecap="round"></path><path d="M 253.400,199.000 C 253.900,199.000 253.900,199.000 254.400,199.000" stroke-width="17.668" stroke="rgb(33,33,33)" fill="none" stroke-linecap="round"></path><path d="M 254.400,199.000 C 255.400,199.000 255.400,199.000 256.400,199.000" stroke-width="17.353" stroke="rgb(33,33,33)" fill="none" stroke-linecap="round"></path><path d="M 256.400,199.000 C 256.400,199.000 256.400,199.000 256.400,199.000" stroke-width="17.864" stroke="rgb(33,33,33)" fill="none" stroke-linecap="round"></path><path d="M 256.400,199.000 C 256.900,199.000 256.900,199.000 257.400,199.000" stroke-width="17.891" stroke="rgb(33,33,33)" fill="none" stroke-linecap="round"></path><path d="M 257.400,199.000 C 257.900,199.000 257.900,199.000 258.400,199.000" stroke-width="17.913" stroke="rgb(33,33,33)" fill="none" stroke-linecap="round"></path><path d="M 258.400,199.000 C 259.400,199.000 259.400,199.000 260.400,199.000" stroke-width="17.542" stroke="rgb(33,33,33)" fill="none" stroke-linecap="round"></path><path d="M 260.400,199.000 C 260.400,199.000 260.400,199.000 260.400,199.000" stroke-width="18.024" stroke="rgb(33,33,33)" fill="none" stroke-linecap="round"></path><path d="M 260.400,199.000 C 261.400,199.000 261.400,199.000 262.400,199.000" stroke-width="17.518" stroke="rgb(33,33,33)" fill="none" stroke-linecap="round"></path><path d="M 262.400,199.000 C 263.400,199.000 263.400,199.000 264.400,199.000" stroke-width="17.238" stroke="rgb(33,33,33)" fill="none" stroke-linecap="round"></path><path d="M 264.400,199.000 C 264.900,199.000 264.900,199.000 265.400,199.000" stroke-width="17.460" stroke="rgb(33,33,33)" fill="none" stroke-linecap="round"></path><path d="M 265.400,199.000 C 266.900,199.000 266.900,199.000 268.400,199.000" stroke-width="16.492" stroke="rgb(33,33,33)" fill="none" stroke-linecap="round"></path><path d="M 268.400,199.000 C 270.400,199.000 270.400,199.000 272.400,199.000" stroke-width="15.792" stroke="rgb(33,33,33)" fill="none" stroke-linecap="round"></path><path d="M 272.400,199.000 C 274.400,199.000 274.400,199.000 276.400,199.000" stroke-width="15.403" stroke="rgb(33,33,33)" fill="none" stroke-linecap="round"></path><path d="M 276.400,199.000 C 278.400,199.000 278.400,199.000 280.400,199.000" stroke-width="14.824" stroke="rgb(33,33,33)" fill="none" stroke-linecap="round"></path><path d="M 280.400,199.000 C 282.900,199.000 282.900,199.000 285.400,199.000" stroke-width="14.715" stroke="rgb(33,33,33)" fill="none" stroke-linecap="round"></path><path d="M 285.400,199.000 C 288.900,199.000 288.900,199.000 292.400,199.000" stroke-width="12.266" stroke="rgb(33,33,33)" fill="none" stroke-linecap="round"></path><path d="M 292.400,199.000 C 294.400,199.000 294.422,199.220 296.400,199.000" stroke-width="12.494" stroke="rgb(33,33,33)" fill="none" stroke-linecap="round"></path><path d="M 296.400,199.000 C 298.922,198.720 298.878,198.280 301.400,198.000" stroke-width="12.469" stroke="rgb(33,33,33)" fill="none" stroke-linecap="round"></path><path d="M 301.400,198.000 C 303.378,197.780 303.400,198.000 305.400,198.000" stroke-width="12.662" stroke="rgb(33,33,33)" fill="none" stroke-linecap="round"></path><path d="M 305.400,198.000 C 306.900,198.000 306.900,198.000 308.400,198.000" stroke-width="13.027" stroke="rgb(33,33,33)" fill="none" stroke-linecap="round"></path><path d="M 308.400,198.000 C 309.400,198.000 309.400,198.000 310.400,198.000" stroke-width="13.559" stroke="rgb(33,33,33)" fill="none" stroke-linecap="round"></path><path d="M 310.400,198.000 C 310.400,198.000 310.400,198.000 310.400,198.000" stroke-width="14.518" stroke="rgb(33,33,33)" fill="none" stroke-linecap="round"></path><path d="M 310.400,198.000 C 311.400,198.000 311.400,198.000 312.400,198.000" stroke-width="14.826" stroke="rgb(33,33,33)" fill="none" stroke-linecap="round"></path><path d="M 312.400,198.000 C 312.900,197.000 312.709,196.691 313.400,196.000" stroke-width="16.857" stroke="rgb(33,33,33)" fill="none" stroke-linecap="round"></path><path d="M 313.400,196.000 C 313.709,195.691 313.900,196.000 314.400,196.000" stroke-width="17.114" stroke="rgb(33,33,33)" fill="none" stroke-linecap="round"></path><path d="M 314.400,196.000 C 315.400,196.000 315.733,196.333 316.400,196.000" stroke-width="16.923" stroke="rgb(33,33,33)" fill="none" stroke-linecap="round"></path><path d="M 316.400,196.000 C 316.733,195.833 316.150,195.250 316.400,195.000" stroke-width="17.128" stroke="rgb(33,33,33)" fill="none" stroke-linecap="round"></path><path d="M 316.400,195.000 C 316.650,194.750 316.900,195.000 317.400,195.000" stroke-width="17.337" stroke="rgb(33,33,33)" fill="none" stroke-linecap="round"></path><path d="M 317.400,195.000 C 317.900,195.000 318.150,195.250 318.400,195.000" stroke-width="17.643" stroke="rgb(33,33,33)" fill="none" stroke-linecap="round"></path><path d="M 318.400,195.000 C 318.650,194.750 318.067,194.167 318.400,194.000" stroke-width="17.713" stroke="rgb(33,33,33)" fill="none" stroke-linecap="round"></path><path d="M 318.400,194.000 C 319.067,193.667 319.900,194.500 320.400,194.000" stroke-width="17.282" stroke="rgb(33,33,33)" fill="none" stroke-linecap="round"></path><path d="M 320.400,194.000 C 320.900,193.500 320.067,192.667 320.400,192.000" stroke-width="17.054" stroke="rgb(33,33,33)" fill="none" stroke-linecap="round"></path><path d="M 320.400,192.000 C 320.567,191.667 321.150,192.250 321.400,192.000" stroke-width="17.276" stroke="rgb(33,33,33)" fill="none" stroke-linecap="round"></path><path d="M 321.400,192.000 C 321.650,191.750 321.040,191.240 321.400,191.000" stroke-width="17.363" stroke="rgb(33,33,33)" fill="none" stroke-linecap="round"></path><path d="M 321.400,191.000 C 322.540,190.240 322.900,190.500 324.400,190.000" stroke-width="16.707" stroke="rgb(33,33,33)" fill="none" stroke-linecap="round"></path><path d="M 324.400,190.000 C 324.400,189.000 324.067,188.667 324.400,188.000" stroke-width="17.478" stroke="rgb(33,33,33)" fill="none" stroke-linecap="round"></path><path d="M 324.400,188.000 C 324.567,187.667 324.900,188.000 325.400,188.000" stroke-width="17.580" stroke="rgb(33,33,33)" fill="none" stroke-linecap="round"></path><path d="M 325.400,188.000 C 325.900,188.000 326.150,188.250 326.400,188.000" stroke-width="17.740" stroke="rgb(33,33,33)" fill="none" stroke-linecap="round"></path><path d="M 326.400,188.000 C 326.650,187.750 326.400,187.500 326.400,187.000" stroke-width="18.044" stroke="rgb(33,33,33)" fill="none" stroke-linecap="round"></path><path d="M 326.400,187.000 C 326.400,186.500 326.400,186.500 326.400,186.000" stroke-width="18.035" stroke="rgb(33,33,33)" fill="none" stroke-linecap="round"></path><path d="M 326.400,186.000 C 326.400,186.000 326.400,186.000 326.400,186.000" stroke-width="18.438" stroke="rgb(33,33,33)" fill="none" stroke-linecap="round"></path><path d="M 326.400,186.000 C 326.400,185.000 326.400,185.000 326.400,184.000" stroke-width="18.646" stroke="rgb(33,33,33)" fill="none" stroke-linecap="round"></path><path d="M 326.400,184.000 C 326.400,184.000 326.400,184.000 326.400,184.000" stroke-width="18.946" stroke="rgb(33,33,33)" fill="none" stroke-linecap="round"></path><path d="M 326.400,184.000 C 326.400,183.500 326.400,183.500 326.400,183.000" stroke-width="18.749" stroke="rgb(33,33,33)" fill="none" stroke-linecap="round"></path><path d="M 326.400,183.000 C 326.400,182.500 326.400,182.500 326.400,182.000" stroke-width="18.883" stroke="rgb(33,33,33)" fill="none" stroke-linecap="round"></path><path d="M 326.400,182.000 C 326.400,182.000 326.400,182.000 326.400,182.000" stroke-width="19.142" stroke="rgb(33,33,33)" fill="none" stroke-linecap="round"></path><path d="M 326.400,182.000 C 325.900,182.000 325.900,182.000 325.400,182.000" stroke-width="19.349" stroke="rgb(33,33,33)" fill="none" stroke-linecap="round"></path><path d="M 325.400,182.000 C 324.900,182.000 324.900,182.000 324.400,182.000" stroke-width="19.367" stroke="rgb(33,33,33)" fill="none" stroke-linecap="round"></path><path d="M 324.400,182.000 C 324.400,182.500 324.400,182.500 324.400,183.000" stroke-width="19.689" stroke="rgb(33,33,33)" fill="none" stroke-linecap="round"></path><path d="M 324.400,183.000 C 324.400,183.500 324.400,183.500 324.400,184.000" stroke-width="19.327" stroke="rgb(33,33,33)" fill="none" stroke-linecap="round"></path><path d="M 324.400,184.000 C 324.400,184.000 324.400,184.000 324.400,184.000" stroke-width="19.504" stroke="rgb(33,33,33)" fill="none" stroke-linecap="round"></path><path d="M 324.400,184.000 C 323.400,184.000 323.108,183.528 322.400,184.000" stroke-width="18.837" stroke="rgb(33,33,33)" fill="none" stroke-linecap="round"></path><path d="M 322.400,184.000 C 321.608,184.528 321.900,185.000 321.400,186.000" stroke-width="18.018" stroke="rgb(33,33,33)" fill="none" stroke-linecap="round"></path><path d="M 321.400,186.000 C 321.400,186.000 321.400,186.000 321.400,186.000" stroke-width="18.424" stroke="rgb(33,33,33)" fill="none" stroke-linecap="round"></path><path d="M 321.400,186.000 C 321.400,186.500 321.400,186.500 321.400,187.000" stroke-width="18.547" stroke="rgb(33,33,33)" fill="none" stroke-linecap="round"></path><path d="M 321.400,187.000 C 321.400,187.500 321.400,187.500 321.400,188.000" stroke-width="18.435" stroke="rgb(33,33,33)" fill="none" stroke-linecap="round"></path><path d="M 321.400,188.000 C 321.400,188.000 321.400,188.000 321.400,188.000" stroke-width="18.772" stroke="rgb(33,33,33)" fill="none" stroke-linecap="round"></path><path d="M 321.400,188.000 C 321.400,189.000 321.400,189.000 321.400,190.000" stroke-width="18.194" stroke="rgb(33,33,33)" fill="none" stroke-linecap="round"></path><path d="M 321.400,190.000 C 321.400,190.000 321.400,190.000 321.400,190.000" stroke-width="18.571" stroke="rgb(33,33,33)" fill="none" stroke-linecap="round"></path><path d="M 321.400,190.000 C 321.400,190.500 321.400,190.500 321.400,191.000" stroke-width="18.454" stroke="rgb(33,33,33)" fill="none" stroke-linecap="round"></path><path d="M 321.400,191.000 C 321.400,191.500 321.400,191.500 321.400,192.000" stroke-width="18.302" stroke="rgb(33,33,33)" fill="none" stroke-linecap="round"></path><path d="M 321.400,192.000 C 321.400,192.000 321.400,192.000 321.400,192.000" stroke-width="18.661" stroke="rgb(33,33,33)" fill="none" stroke-linecap="round"></path><path d="M 321.400,192.000 C 321.400,193.000 321.400,193.000 321.400,194.000" stroke-width="17.996" stroke="rgb(33,33,33)" fill="none" stroke-linecap="round"></path><path d="M 321.400,194.000 C 321.400,194.000 321.400,194.000 321.400,194.000" stroke-width="18.406" stroke="rgb(33,33,33)" fill="none" stroke-linecap="round"></path><path d="M 321.400,194.000 C 321.400,194.500 321.400,194.500 321.400,195.000" stroke-width="18.323" stroke="rgb(33,33,33)" fill="none" stroke-linecap="round"></path><path d="M 321.400,195.000 C 321.400,195.500 321.400,195.500 321.400,196.000" stroke-width="18.199" stroke="rgb(33,33,33)" fill="none" stroke-linecap="round"></path><path d="M 321.400,196.000 C 321.400,197.000 321.400,197.000 321.400,198.000" stroke-width="18.183" stroke="rgb(33,33,33)" fill="none" stroke-linecap="round"></path><path d="M 321.400,198.000 C 321.400,198.000 321.400,198.000 321.400,198.000" stroke-width="18.562" stroke="rgb(33,33,33)" fill="none" stroke-linecap="round"></path><path d="M 321.400,198.000 C 321.400,198.500 321.150,198.750 321.400,199.000" stroke-width="18.447" stroke="rgb(33,33,33)" fill="none" stroke-linecap="round"></path><path d="M 321.400,199.000 C 321.650,199.250 321.900,199.000 322.400,199.000" stroke-width="18.296" stroke="rgb(33,33,33)" fill="none" stroke-linecap="round"></path><path d="M 322.400,199.000 C 323.400,199.000 323.400,199.000 324.400,199.000" stroke-width="18.260" stroke="rgb(33,33,33)" fill="none" stroke-linecap="round"></path><path d="M 324.400,199.000 C 324.400,199.000 324.400,199.000 324.400,199.000" stroke-width="18.626" stroke="rgb(33,33,33)" fill="none" stroke-linecap="round"></path><path d="M 324.400,199.000 C 324.900,199.000 324.900,199.000 325.400,199.000" stroke-width="18.438" stroke="rgb(33,33,33)" fill="none" stroke-linecap="round"></path><path d="M 325.400,199.000 C 326.900,199.000 326.900,199.000 328.400,199.000" stroke-width="17.681" stroke="rgb(33,33,33)" fill="none" stroke-linecap="round"></path><path d="M 328.400,199.000 C 328.400,199.000 328.400,199.000 328.400,199.000" stroke-width="18.141" stroke="rgb(33,33,33)" fill="none" stroke-linecap="round"></path><path d="M 328.400,199.000 C 329.400,199.000 329.400,199.000 330.400,199.000" stroke-width="17.717" stroke="rgb(33,33,33)" fill="none" stroke-linecap="round"></path><path d="M 330.400,199.000 C 331.400,199.000 331.400,199.000 332.400,199.000" stroke-width="17.391" stroke="rgb(33,33,33)" fill="none" stroke-linecap="round"></path><path d="M 332.400,199.000 C 334.400,199.000 334.400,199.000 336.400,199.000" stroke-width="16.255" stroke="rgb(33,33,33)" fill="none" stroke-linecap="round"></path><path d="M 336.400,199.000 C 336.900,199.000 336.900,199.000 337.400,199.000" stroke-width="16.576" stroke="rgb(33,33,33)" fill="none" stroke-linecap="round"></path><path d="M 337.400,199.000 C 338.900,199.000 338.900,199.000 340.400,199.000" stroke-width="16.366" stroke="rgb(33,33,33)" fill="none" stroke-linecap="round"></path><path d="M 340.400,199.000 C 340.900,199.000 340.900,199.000 341.400,199.000" stroke-width="16.620" stroke="rgb(33,33,33)" fill="none" stroke-linecap="round"></path><path d="M 341.400,199.000 C 341.900,199.000 341.900,199.000 342.400,199.000" stroke-width="16.879" stroke="rgb(33,33,33)" fill="none" stroke-linecap="round"></path><path d="M 342.400,199.000 C 343.400,199.000 343.400,199.000 344.400,199.000" stroke-width="16.738" stroke="rgb(33,33,33)" fill="none" stroke-linecap="round"></path><path d="M 344.400,199.000 C 344.400,199.000 344.400,199.000 344.400,199.000" stroke-width="17.340" stroke="rgb(33,33,33)" fill="none" stroke-linecap="round"></path><path d="M 344.400,199.000 C 344.900,198.500 345.013,198.581 345.400,198.000" stroke-width="17.239" stroke="rgb(33,33,33)" fill="none" stroke-linecap="round"></path><path d="M 345.400,198.000 C 346.013,197.081 345.650,196.750 346.400,196.000" stroke-width="17.025" stroke="rgb(33,33,33)" fill="none" stroke-linecap="round"></path><path d="M 346.400,196.000 C 347.150,195.250 347.709,195.691 348.400,195.000" stroke-width="16.661" stroke="rgb(33,33,33)" fill="none" stroke-linecap="round"></path><path d="M 348.400,195.000 C 348.709,194.691 348.400,194.500 348.400,194.000" stroke-width="16.952" stroke="rgb(33,33,33)" fill="none" stroke-linecap="round"></path><path d="M 348.400,194.000 C 348.400,194.000 348.400,194.000 348.400,194.000" stroke-width="17.523" stroke="rgb(33,33,33)" fill="none" stroke-linecap="round"></path><path d="M 348.400,194.000 C 348.400,193.000 348.400,193.000 348.400,192.000" stroke-width="17.323" stroke="rgb(33,33,33)" fill="none" stroke-linecap="round"></path><path d="M 348.400,192.000 C 348.400,191.000 348.400,191.000 348.400,190.000" stroke-width="17.086" stroke="rgb(33,33,33)" fill="none" stroke-linecap="round"></path><path d="M 348.400,190.000 C 348.400,190.000 348.400,190.000 348.400,190.000" stroke-width="17.637" stroke="rgb(33,33,33)" fill="none" stroke-linecap="round"></path><path d="M 348.400,190.000 C 348.400,189.000 348.400,189.000 348.400,188.000" stroke-width="17.224" stroke="rgb(33,33,33)" fill="none" stroke-linecap="round"></path><path d="M 348.400,188.000 C 348.400,187.000 348.400,187.000 348.400,186.000" stroke-width="17.089" stroke="rgb(33,33,33)" fill="none" stroke-linecap="round"></path><path d="M 348.400,186.000 C 348.400,185.000 348.400,185.000 348.400,184.000" stroke-width="16.803" stroke="rgb(33,33,33)" fill="none" stroke-linecap="round"></path><path d="M 348.400,184.000 C 348.400,183.000 348.400,183.000 348.400,182.000" stroke-width="16.756" stroke="rgb(33,33,33)" fill="none" stroke-linecap="round"></path><path d="M 348.400,182.000 C 348.400,181.000 348.400,181.000 348.400,180.000" stroke-width="16.642" stroke="rgb(33,33,33)" fill="none" stroke-linecap="round"></path><path d="M 348.400,180.000 C 348.400,179.500 348.400,179.500 348.400,179.000" stroke-width="16.846" stroke="rgb(33,33,33)" fill="none" stroke-linecap="round"></path><path d="M 348.400,179.000 C 348.400,178.500 348.661,178.392 348.400,178.000" stroke-width="17.065" stroke="rgb(33,33,33)" fill="none" stroke-linecap="round"></path><path d="M 348.400,178.000 C 347.661,176.892 347.508,176.739 346.400,176.000" stroke-width="16.598" stroke="rgb(33,33,33)" fill="none" stroke-linecap="round"></path><path d="M 346.400,176.000 C 346.008,175.739 345.900,176.000 345.400,176.000" stroke-width="16.900" stroke="rgb(33,33,33)" fill="none" stroke-linecap="round"></path><path d="M 345.400,176.000 C 344.900,176.000 344.900,176.000 344.400,176.000" stroke-width="17.058" stroke="rgb(33,33,33)" fill="none" stroke-linecap="round"></path><path d="M 344.400,176.000 C 344.400,177.000 344.400,177.000 344.400,178.000" stroke-width="17.673" stroke="rgb(33,33,33)" fill="none" stroke-linecap="round"></path><path d="M 344.400,178.000 C 344.400,179.000 344.814,179.172 344.400,180.000" stroke-width="17.760" stroke="rgb(33,33,33)" fill="none" stroke-linecap="round"></path><path d="M 344.400,180.000 C 343.814,181.172 343.139,180.892 342.400,182.000" stroke-width="16.975" stroke="rgb(33,33,33)" fill="none" stroke-linecap="round"></path><path d="M 342.400,182.000 C 342.139,182.392 342.400,182.500 342.400,183.000" stroke-width="17.170" stroke="rgb(33,33,33)" fill="none" stroke-linecap="round"></path><path d="M 342.400,183.000 C 342.400,183.500 342.400,183.500 342.400,184.000" stroke-width="17.330" stroke="rgb(33,33,33)" fill="none" stroke-linecap="round"></path><path d="M 342.400,184.000 C 342.400,185.000 342.400,185.000 342.400,186.000" stroke-width="17.237" stroke="rgb(33,33,33)" fill="none" stroke-linecap="round"></path><path d="M 342.400,186.000 C 342.400,186.500 342.400,186.500 342.400,187.000" stroke-width="17.331" stroke="rgb(33,33,33)" fill="none" stroke-linecap="round"></path><path d="M 342.400,187.000 C 342.400,187.500 342.400,187.500 342.400,188.000" stroke-width="17.461" stroke="rgb(33,33,33)" fill="none" stroke-linecap="round"></path><path d="M 342.400,188.000 C 342.400,189.000 342.400,189.000 342.400,190.000" stroke-width="17.090" stroke="rgb(33,33,33)" fill="none" stroke-linecap="round"></path><path d="M 342.400,190.000 C 342.400,190.500 342.400,190.500 342.400,191.000" stroke-width="17.264" stroke="rgb(33,33,33)" fill="none" stroke-linecap="round"></path><path d="M 342.400,191.000 C 342.400,192.500 341.827,192.854 342.400,194.000" stroke-width="16.805" stroke="rgb(33,33,33)" fill="none" stroke-linecap="round"></path><path d="M 342.400,194.000 C 342.827,194.854 343.709,194.309 344.400,195.000" stroke-width="16.599" stroke="rgb(33,33,33)" fill="none" stroke-linecap="round"></path><path d="M 344.400,195.000 C 344.709,195.309 344.400,195.500 344.400,196.000" stroke-width="16.862" stroke="rgb(33,33,33)" fill="none" stroke-linecap="round"></path><path d="M 344.400,196.000 C 344.400,197.000 344.400,197.000 344.400,198.000" stroke-width="16.725" stroke="rgb(33,33,33)" fill="none" stroke-linecap="round"></path><path d="M 344.400,198.000 C 344.400,198.500 344.193,198.586 344.400,199.000" stroke-width="16.966" stroke="rgb(33,33,33)" fill="none" stroke-linecap="round"></path><path d="M 344.400,199.000 C 344.693,199.586 344.759,199.840 345.400,200.000" stroke-width="16.942" stroke="rgb(33,33,33)" fill="none" stroke-linecap="round"></path><path d="M 345.400,200.000 C 346.759,200.340 346.900,200.000 348.400,200.000" stroke-width="16.559" stroke="rgb(33,33,33)" fill="none" stroke-linecap="round"></path><path d="M 348.400,200.000 C 349.400,200.000 349.733,200.333 350.400,200.000" stroke-width="17.777" stroke="rgb(33,33,33)" fill="none" stroke-linecap="round"></path><path d="M 350.400,200.000 C 350.733,199.833 350.091,199.309 350.400,199.000" stroke-width="17.865" stroke="rgb(33,33,33)" fill="none" stroke-linecap="round"></path><path d="M 350.400,199.000 C 351.091,198.309 351.364,198.345 352.400,198.000" stroke-width="17.416" stroke="rgb(33,33,33)" fill="none" stroke-linecap="round"></path><path d="M 352.400,198.000 C 352.864,197.845 352.966,198.217 353.400,198.000" stroke-width="17.530" stroke="rgb(33,33,33)" fill="none" stroke-linecap="round"></path><path d="M 353.400,198.000 C 354.966,197.217 355.226,197.174 356.400,196.000" stroke-width="16.502" stroke="rgb(33,33,33)" fill="none" stroke-linecap="round"></path><path d="M 356.400,196.000 C 356.726,195.674 356.400,195.500 356.400,195.000" stroke-width="16.781" stroke="rgb(33,33,33)" fill="none" stroke-linecap="round"></path><path d="M 356.400,195.000 C 356.400,194.500 356.035,194.274 356.400,194.000" stroke-width="17.011" stroke="rgb(33,33,33)" fill="none" stroke-linecap="round"></path><path d="M 356.400,194.000 C 358.035,192.774 359.018,193.382 360.400,192.000" stroke-width="16.178" stroke="rgb(33,33,33)" fill="none" stroke-linecap="round"></path><path d="M 360.400,192.000 C 361.018,191.382 360.400,191.000 360.400,190.000" stroke-width="16.091" stroke="rgb(33,33,33)" fill="none" stroke-linecap="round"></path><path d="M 360.400,190.000 C 360.400,189.000 360.164,188.944 360.400,188.000" stroke-width="16.242" stroke="rgb(33,33,33)" fill="none" stroke-linecap="round"></path><path d="M 360.400,188.000 C 360.664,186.944 360.634,186.766 361.400,186.000" stroke-width="15.920" stroke="rgb(33,33,33)" fill="none" stroke-linecap="round"></path><path d="M 361.400,186.000 C 362.634,184.766 362.900,185.000 364.400,184.000" stroke-width="15.485" stroke="rgb(33,33,33)" fill="none" stroke-linecap="round"></path><path d="M 364.400,184.000 C 364.400,184.000 364.400,184.000 364.400,184.000" stroke-width="16.250" stroke="rgb(33,33,33)" fill="none" stroke-linecap="round"></path><path d="M 364.400,184.000 C 364.400,183.500 364.400,183.500 364.400,183.000" stroke-width="16.572" stroke="rgb(33,33,33)" fill="none" stroke-linecap="round"></path><path d="M 364.400,183.000 C 364.400,182.500 364.245,182.464 364.400,182.000" stroke-width="16.839" stroke="rgb(33,33,33)" fill="none" stroke-linecap="round"></path><path d="M 364.400,182.000 C 364.745,180.964 364.900,181.000 365.400,180.000" stroke-width="16.626" stroke="rgb(33,33,33)" fill="none" stroke-linecap="round"></path><path d="M 365.400,180.000 C 365.400,180.000 365.400,180.000 365.400,180.000" stroke-width="17.244" stroke="rgb(33,33,33)" fill="none" stroke-linecap="round"></path><path d="M 365.400,180.000 C 365.900,179.000 365.900,179.000 366.400,178.000" stroke-width="17.346" stroke="rgb(33,33,33)" fill="none" stroke-linecap="round"></path><path d="M 366.400,178.000 C 366.400,178.000 366.400,178.000 366.400,178.000" stroke-width="17.858" stroke="rgb(33,33,33)" fill="none" stroke-linecap="round"></path><path d="M 366.400,178.000 C 367.400,177.000 367.400,177.000 368.400,176.000" stroke-width="17.811" stroke="rgb(33,33,33)" fill="none" stroke-linecap="round"></path><path d="M 368.400,176.000 C 368.400,177.000 368.067,177.333 368.400,178.000" stroke-width="18.079" stroke="rgb(33,33,33)" fill="none" stroke-linecap="round"></path><path d="M 368.400,178.000 C 368.567,178.333 369.150,177.750 369.400,178.000" stroke-width="18.063" stroke="rgb(33,33,33)" fill="none" stroke-linecap="round"></path><path d="M 369.400,178.000 C 369.650,178.250 369.280,178.519 369.400,179.000" stroke-width="18.050" stroke="rgb(33,33,33)" fill="none" stroke-linecap="round"></path><path d="M 369.400,179.000 C 369.780,180.519 370.094,180.469 370.400,182.000" stroke-width="17.341" stroke="rgb(33,33,33)" fill="none" stroke-linecap="round"></path><path d="M 370.400,182.000 C 370.594,182.969 370.091,183.073 370.400,184.000" stroke-width="16.997" stroke="rgb(33,33,33)" fill="none" stroke-linecap="round"></path><path d="M 370.400,184.000 C 371.091,186.073 371.801,185.905 372.400,188.000" stroke-width="16.168" stroke="rgb(33,33,33)" fill="none" stroke-linecap="round"></path><path d="M 372.400,188.000 C 372.801,189.405 372.400,189.500 372.400,191.000" stroke-width="15.726" stroke="rgb(33,33,33)" fill="none" stroke-linecap="round"></path><path d="M 372.400,191.000 C 372.400,192.500 372.400,192.500 372.400,194.000" stroke-width="15.762" stroke="rgb(33,33,33)" fill="none" stroke-linecap="round"></path><path d="M 372.400,194.000 C 372.400,196.500 372.400,196.500 372.400,199.000" stroke-width="14.183" stroke="rgb(33,33,33)" fill="none" stroke-linecap="round"></path><path d="M 372.400,199.000 C 372.400,201.500 372.400,201.500 372.400,204.000" stroke-width="13.934" stroke="rgb(33,33,33)" fill="none" stroke-linecap="round"></path><path d="M 372.400,204.000 C 372.400,207.000 372.400,207.000 372.400,210.000" stroke-width="13.387" stroke="rgb(33,33,33)" fill="none" stroke-linecap="round"></path><path d="M 372.400,210.000 C 372.400,212.500 372.400,212.500 372.400,215.000" stroke-width="13.191" stroke="rgb(33,33,33)" fill="none" stroke-linecap="round"></path><path d="M 372.400,215.000 C 372.400,218.500 372.400,218.500 372.400,222.000" stroke-width="12.632" stroke="rgb(33,33,33)" fill="none" stroke-linecap="round"></path><path d="M 372.400,222.000 C 372.400,225.000 372.400,225.000 372.400,228.000" stroke-width="12.404" stroke="rgb(33,33,33)" fill="none" stroke-linecap="round"></path><path d="M 372.400,228.000 C 372.400,232.000 372.400,232.000 372.400,236.000" stroke-width="11.870" stroke="rgb(33,33,33)" fill="none" stroke-linecap="round"></path><path d="M 372.400,236.000 C 372.400,239.000 372.400,239.000 372.400,242.000" stroke-width="11.809" stroke="rgb(33,33,33)" fill="none" stroke-linecap="round"></path><path d="M 372.400,242.000 C 372.400,246.000 372.400,246.000 372.400,250.000" stroke-width="11.247" stroke="rgb(33,33,33)" fill="none" stroke-linecap="round"></path><path d="M 372.400,250.000 C 372.400,252.500 373.092,252.692 372.400,255.000" stroke-width="11.562" stroke="rgb(33,33,33)" fill="none" stroke-linecap="round"></path><path d="M 372.400,255.000 C 371.592,257.692 371.177,257.716 369.400,260.000" stroke-width="11.592" stroke="rgb(33,33,33)" fill="none" stroke-linecap="round"></path><path d="M 369.400,260.000 C 367.677,262.216 367.400,262.000 365.400,264.000" stroke-width="11.645" stroke="rgb(33,33,33)" fill="none" stroke-linecap="round"></path><path d="M 365.400,264.000 C 363.900,265.500 364.175,265.986 362.400,267.000" stroke-width="11.931" stroke="rgb(33,33,33)" fill="none" stroke-linecap="round"></path><path d="M 362.400,267.000 C 360.675,267.986 360.208,267.096 358.400,268.000" stroke-width="12.085" stroke="rgb(33,33,33)" fill="none" stroke-linecap="round"></path><path d="M 358.400,268.000 C 356.208,269.096 356.543,269.929 354.400,271.000" stroke-width="12.261" stroke="rgb(33,33,33)" fill="none" stroke-linecap="round"></path><path d="M 354.400,271.000 C 353.543,271.429 353.392,270.890 352.400,271.000" stroke-width="12.829" stroke="rgb(33,33,33)" fill="none" stroke-linecap="round"></path><path d="M 352.400,271.000 C 348.892,271.390 348.913,271.681 345.400,272.000" stroke-width="12.501" stroke="rgb(33,33,33)" fill="none" stroke-linecap="round"></path><path d="M 345.400,272.000 C 343.413,272.181 343.400,272.000 341.400,272.000" stroke-width="12.689" stroke="rgb(33,33,33)" fill="none" stroke-linecap="round"></path><path d="M 341.400,272.000 C 339.900,272.000 339.900,272.000 338.400,272.000" stroke-width="12.961" stroke="rgb(33,33,33)" fill="none" stroke-linecap="round"></path><path d="M 338.400,272.000 C 337.400,272.000 337.327,272.309 336.400,272.000" stroke-width="13.551" stroke="rgb(33,33,33)" fill="none" stroke-linecap="round"></path><path d="M 336.400,272.000 C 334.327,271.309 334.166,271.325 332.400,270.000" stroke-width="13.294" stroke="rgb(33,33,33)" fill="none" stroke-linecap="round"></path><path d="M 332.400,270.000 C 330.166,268.325 330.538,267.832 328.400,266.000" stroke-width="13.112" stroke="rgb(33,33,33)" fill="none" stroke-linecap="round"></path><path d="M 328.400,266.000 C 327.038,264.832 326.900,265.000 325.400,264.000" stroke-width="13.162" stroke="rgb(33,33,33)" fill="none" stroke-linecap="round"></path><path d="M 325.400,264.000 C 323.900,263.000 323.516,263.339 322.400,262.000" stroke-width="13.314" stroke="rgb(33,33,33)" fill="none" stroke-linecap="round"></path><path d="M 322.400,262.000 C 321.016,260.339 320.999,260.095 320.400,258.000" stroke-width="13.356" stroke="rgb(33,33,33)" fill="none" stroke-linecap="round"></path><path d="M 320.400,258.000 C 319.999,256.595 320.400,256.500 320.400,255.000" stroke-width="13.513" stroke="rgb(33,33,33)" fill="none" stroke-linecap="round"></path><path d="M 320.400,255.000 C 320.400,253.500 320.400,253.500 320.400,252.000" stroke-width="13.739" stroke="rgb(33,33,33)" fill="none" stroke-linecap="round"></path><path d="M 320.400,252.000 C 320.400,250.000 320.400,250.000 320.400,248.000" stroke-width="13.691" stroke="rgb(33,33,33)" fill="none" stroke-linecap="round"></path><path d="M 320.400,248.000 C 320.400,245.000 320.400,245.000 320.400,242.000" stroke-width="13.207" stroke="rgb(33,33,33)" fill="none" stroke-linecap="round"></path><path d="M 320.400,242.000 C 320.400,240.000 319.928,239.889 320.400,238.000" stroke-width="13.362" stroke="rgb(33,33,33)" fill="none" stroke-linecap="round"></path><path d="M 320.400,238.000 C 320.928,235.889 320.984,235.652 322.400,234.000" stroke-width="13.148" stroke="rgb(33,33,33)" fill="none" stroke-linecap="round"></path><path d="M 322.400,234.000 C 323.984,232.152 324.400,232.500 326.400,231.000" stroke-width="13.122" stroke="rgb(33,33,33)" fill="none" stroke-linecap="round"></path><path d="M 326.400,231.000 C 328.400,229.500 328.353,229.433 330.400,228.000" stroke-width="12.837" stroke="rgb(33,33,33)" fill="none" stroke-linecap="round"></path><path d="M 330.400,228.000 C 333.353,225.933 333.251,225.717 336.400,224.000" stroke-width="12.331" stroke="rgb(33,33,33)" fill="none" stroke-linecap="round"></path><path d="M 336.400,224.000 C 338.751,222.717 338.849,222.850 341.400,222.000" stroke-width="12.397" stroke="rgb(33,33,33)" fill="none" stroke-linecap="round"></path><path d="M 341.400,222.000 C 344.849,220.850 344.827,220.476 348.400,220.000" stroke-width="11.809" stroke="rgb(33,33,33)" fill="none" stroke-linecap="round"></path><path d="M 348.400,220.000 C 352.327,219.476 352.400,220.000 356.400,220.000" stroke-width="11.574" stroke="rgb(33,33,33)" fill="none" stroke-linecap="round"></path><path d="M 356.400,220.000 C 361.400,220.000 361.400,220.000 366.400,220.000" stroke-width="10.740" stroke="rgb(33,33,33)" fill="none" stroke-linecap="round"></path><path d="M 366.400,220.000 C 370.400,220.000 370.400,220.000 374.400,220.000" stroke-width="10.611" stroke="rgb(33,33,33)" fill="none" stroke-linecap="round"></path><path d="M 374.400,220.000 C 379.400,220.000 379.400,220.000 384.400,220.000" stroke-width="10.245" stroke="rgb(33,33,33)" fill="none" stroke-linecap="round"></path><path d="M 384.400,220.000 C 386.900,220.000 386.900,220.000 389.400,220.000" stroke-width="10.623" stroke="rgb(33,33,33)" fill="none" stroke-linecap="round"></path><path d="M 389.400,220.000 C 392.900,220.000 392.900,220.000 396.400,220.000" stroke-width="10.658" stroke="rgb(33,33,33)" fill="none" stroke-linecap="round"></path><path d="M 396.400,220.000 C 398.400,220.000 398.400,220.000 400.400,220.000" stroke-width="11.194" stroke="rgb(33,33,33)" fill="none" stroke-linecap="round"></path><path d="M 400.400,220.000 C 402.400,220.000 402.400,220.000 404.400,220.000" stroke-width="11.496" stroke="rgb(33,33,33)" fill="none" stroke-linecap="round"></path><path d="M 404.400,220.000 C 405.400,220.000 405.400,220.000 406.400,220.000" stroke-width="12.246" stroke="rgb(33,33,33)" fill="none" stroke-linecap="round"></path><path d="M 406.400,220.000 C 407.400,220.000 407.733,220.333 408.400,220.000" stroke-width="12.816" stroke="rgb(33,33,33)" fill="none" stroke-linecap="round"></path><path d="M 408.400,220.000 C 408.733,219.833 408.400,219.500 408.400,219.000" stroke-width="13.600" stroke="rgb(33,33,33)" fill="none" stroke-linecap="round"></path><path d="M 408.400,219.000 C 408.400,218.500 408.400,218.500 408.400,218.000" stroke-width="14.469" stroke="rgb(33,33,33)" fill="none" stroke-linecap="round"></path><path d="M 408.400,218.000 C 408.400,217.000 408.400,217.000 408.400,216.000" stroke-width="14.845" stroke="rgb(33,33,33)" fill="none" stroke-linecap="round"></path><path d="M 408.400,216.000 C 408.400,216.000 408.400,216.000 408.400,216.000" stroke-width="15.682" stroke="rgb(33,33,33)" fill="none" stroke-linecap="round"></path><path d="M 408.400,216.000 C 408.400,215.500 408.400,215.500 408.400,215.000" stroke-width="16.132" stroke="rgb(33,33,33)" fill="none" stroke-linecap="round"></path><path d="M 408.400,215.000 C 408.400,214.500 408.400,214.500 408.400,214.000" stroke-width="16.632" stroke="rgb(33,33,33)" fill="none" stroke-linecap="round"></path><path d="M 408.400,214.000 C 408.400,214.000 408.400,214.000 408.400,214.000" stroke-width="17.248" stroke="rgb(33,33,33)" fill="none" stroke-linecap="round"></path><path d="M 408.400,214.000 C 408.400,213.000 408.400,213.000 408.400,212.000" stroke-width="17.108" stroke="rgb(33,33,33)" fill="none" stroke-linecap="round"></path><path d="M 408.400,212.000 C 408.400,211.000 408.400,211.000 408.400,210.000" stroke-width="16.818" stroke="rgb(33,33,33)" fill="none" stroke-linecap="round"></path><path d="M 408.400,210.000 C 408.400,208.500 407.707,208.213 408.400,207.000" stroke-width="16.464" stroke="rgb(33,33,33)" fill="none" stroke-linecap="round"></path><path d="M 408.400,207.000 C 409.707,204.713 411.093,205.287 412.400,203.000" stroke-width="15.049" stroke="rgb(33,33,33)" fill="none" stroke-linecap="round"></path><path d="M 412.400,203.000 C 413.093,201.787 412.400,201.500 412.400,200.000" stroke-width="14.984" stroke="rgb(33,33,33)" fill="none" stroke-linecap="round"></path><path d="M 412.400,200.000 C 412.400,197.000 411.913,196.921 412.400,194.000" stroke-width="14.149" stroke="rgb(33,33,33)" fill="none" stroke-linecap="round"></path><path d="M 412.400,194.000 C 412.913,190.921 413.532,191.038 414.400,188.000" stroke-width="13.632" stroke="rgb(33,33,33)" fill="none" stroke-linecap="round"></path><path d="M 414.400,188.000 C 415.532,184.038 414.961,183.838 416.400,180.000" stroke-width="12.469" stroke="rgb(33,33,33)" fill="none" stroke-linecap="round"></path><path d="M 416.400,180.000 C 417.961,175.838 419.117,176.169 420.400,172.000" stroke-width="11.926" stroke="rgb(33,33,33)" fill="none" stroke-linecap="round"></path><path d="M 420.400,172.000 C 421.117,169.669 420.400,169.500 420.400,167.000" stroke-width="11.903" stroke="rgb(33,33,33)" fill="none" stroke-linecap="round"></path><path d="M 420.400,167.000 C 420.400,163.500 420.168,163.486 420.400,160.000" stroke-width="11.797" stroke="rgb(33,33,33)" fill="none" stroke-linecap="round"></path><path d="M 420.400,160.000 C 420.668,155.986 421.091,156.012 421.400,152.000" stroke-width="11.228" stroke="rgb(33,33,33)" fill="none" stroke-linecap="round"></path><path d="M 421.400,152.000 C 421.591,149.512 421.400,149.500 421.400,147.000" stroke-width="11.455" stroke="rgb(33,33,33)" fill="none" stroke-linecap="round"></path><path d="M 421.400,147.000 C 421.400,144.500 421.400,144.500 421.400,142.000" stroke-width="11.736" stroke="rgb(33,33,33)" fill="none" stroke-linecap="round"></path><path d="M 421.400,142.000 C 421.400,140.000 421.400,140.000 421.400,138.000" stroke-width="11.950" stroke="rgb(33,33,33)" fill="none" stroke-linecap="round"></path><path d="M 421.400,138.000 C 421.400,135.000 421.764,134.914 421.400,132.000" stroke-width="12.085" stroke="rgb(33,33,33)" fill="none" stroke-linecap="round"></path><path d="M 421.400,132.000 C 421.264,130.914 420.900,131.000 420.400,130.000" stroke-width="12.621" stroke="rgb(33,33,33)" fill="none" stroke-linecap="round"></path><path d="M 420.400,130.000 C 420.400,130.000 420.400,130.000 420.400,130.000" stroke-width="13.650" stroke="rgb(33,33,33)" fill="none" stroke-linecap="round"></path><path d="M 420.400,130.000 C 419.400,130.000 419.400,130.000 418.400,130.000" stroke-width="14.343" stroke="rgb(33,33,33)" fill="none" stroke-linecap="round"></path><path d="M 418.400,130.000 C 417.900,130.000 417.900,130.000 417.400,130.000" stroke-width="14.981" stroke="rgb(33,33,33)" fill="none" stroke-linecap="round"></path><path d="M 417.400,130.000 C 416.900,130.000 416.674,129.635 416.400,130.000" stroke-width="15.501" stroke="rgb(33,33,33)" fill="none" stroke-linecap="round"></path><path d="M 416.400,130.000 C 415.174,131.635 415.634,132.150 414.400,134.000" stroke-width="14.750" stroke="rgb(33,33,33)" fill="none" stroke-linecap="round"></path><path d="M 414.400,134.000 C 412.634,136.650 412.538,136.624 410.400,139.000" stroke-width="13.885" stroke="rgb(33,33,33)" fill="none" stroke-linecap="round"></path><path d="M 410.400,139.000 C 408.038,141.624 406.900,141.000 405.400,144.000" stroke-width="13.120" stroke="rgb(33,33,33)" fill="none" stroke-linecap="round"></path><path d="M 405.400,144.000 C 403.900,147.000 405.568,147.729 404.400,151.000" stroke-width="12.566" stroke="rgb(33,33,33)" fill="none" stroke-linecap="round"></path><path d="M 404.400,151.000 C 403.068,154.729 402.200,154.399 400.400,158.000" stroke-width="11.977" stroke="rgb(33,33,33)" fill="none" stroke-linecap="round"></path><path d="M 400.400,158.000 C 398.200,162.399 397.569,162.324 396.400,167.000" stroke-width="11.431" stroke="rgb(33,33,33)" fill="none" stroke-linecap="round"></path><path d="M 396.400,167.000 C 395.569,170.324 396.400,170.500 396.400,174.000" stroke-width="11.144" stroke="rgb(33,33,33)" fill="none" stroke-linecap="round"></path><path d="M 396.400,174.000 C 396.400,177.000 396.400,177.000 396.400,180.000" stroke-width="11.227" stroke="rgb(33,33,33)" fill="none" stroke-linecap="round"></path><path d="M 396.400,180.000 C 396.400,184.000 396.400,184.000 396.400,188.000" stroke-width="10.987" stroke="rgb(33,33,33)" fill="none" stroke-linecap="round"></path><path d="M 396.400,188.000 C 396.400,191.000 396.400,191.000 396.400,194.000" stroke-width="11.202" stroke="rgb(33,33,33)" fill="none" stroke-linecap="round"></path><path d="M 396.400,194.000 C 396.400,196.500 395.919,196.593 396.400,199.000" stroke-width="11.319" stroke="rgb(33,33,33)" fill="none" stroke-linecap="round"></path><path d="M 396.400,199.000 C 396.919,201.593 396.937,201.805 398.400,204.000" stroke-width="11.565" stroke="rgb(33,33,33)" fill="none" stroke-linecap="round"></path><path d="M 398.400,204.000 C 399.937,206.305 400.400,206.000 402.400,208.000" stroke-width="11.490" stroke="rgb(33,33,33)" fill="none" stroke-linecap="round"></path><path d="M 402.400,208.000 C 403.900,209.500 403.793,209.623 405.400,211.000" stroke-width="11.801" stroke="rgb(33,33,33)" fill="none" stroke-linecap="round"></path><path d="M 405.400,211.000 C 407.293,212.623 407.122,213.172 409.400,214.000" stroke-width="11.927" stroke="rgb(33,33,33)" fill="none" stroke-linecap="round"></path><path d="M 409.400,214.000 C 412.622,215.172 412.887,214.681 416.400,215.000" stroke-width="11.672" stroke="rgb(33,33,33)" fill="none" stroke-linecap="round"></path><path d="M 416.400,215.000 C 418.387,215.181 418.400,215.000 420.400,215.000" stroke-width="12.076" stroke="rgb(33,33,33)" fill="none" stroke-linecap="round"></path><path d="M 420.400,215.000 C 422.400,215.000 422.400,215.000 424.400,215.000" stroke-width="12.230" stroke="rgb(33,33,33)" fill="none" stroke-linecap="round"></path><path d="M 424.400,215.000 C 428.400,215.000 428.400,215.000 432.400,215.000" stroke-width="12.020" stroke="rgb(33,33,33)" fill="none" stroke-linecap="round"></path><path d="M 432.400,215.000 C 436.400,215.000 436.400,215.000 440.400,215.000" stroke-width="11.400" stroke="rgb(33,33,33)" fill="none" stroke-linecap="round"></path><path d="M 440.400,215.000 C 442.400,215.000 442.430,215.246 444.400,215.000" stroke-width="11.669" stroke="rgb(33,33,33)" fill="none" stroke-linecap="round"></path><path d="M 444.400,215.000 C 446.430,214.746 446.481,214.720 448.400,214.000" stroke-width="12.055" stroke="rgb(33,33,33)" fill="none" stroke-linecap="round"></path><path d="M 448.400,214.000 C 450.481,213.220 450.501,213.140 452.400,212.000" stroke-width="12.114" stroke="rgb(33,33,33)" fill="none" stroke-linecap="round"></path><path d="M 452.400,212.000 C 453.001,211.640 452.782,211.309 453.400,211.000" stroke-width="12.908" stroke="rgb(33,33,33)" fill="none" stroke-linecap="round"></path><path d="M 453.400,211.000 C 454.782,210.309 455.481,210.919 456.400,210.000" stroke-width="13.104" stroke="rgb(33,33,33)" fill="none" stroke-linecap="round"></path><path d="M 456.400,210.000 C 456.981,209.419 456.400,209.000 456.400,208.000" stroke-width="13.676" stroke="rgb(33,33,33)" fill="none" stroke-linecap="round"></path><path d="M 456.400,208.000 C 456.400,208.000 456.400,208.000 456.400,208.000" stroke-width="14.625" stroke="rgb(33,33,33)" fill="none" stroke-linecap="round"></path><path d="M 456.400,208.000 C 456.400,207.500 456.400,207.500 456.400,207.000" stroke-width="15.195" stroke="rgb(33,33,33)" fill="none" stroke-linecap="round"></path><path d="M 456.400,207.000 C 456.400,207.000 456.400,207.000 456.400,207.000" stroke-width="15.994" stroke="rgb(33,33,33)" fill="none" stroke-linecap="round"></path><path d="M 456.400,207.000 C 457.400,206.500 457.400,206.500 458.400,206.000" stroke-width="16.038" stroke="rgb(33,33,33)" fill="none" stroke-linecap="round"></path><path d="M 458.400,206.000 C 458.400,206.000 458.400,206.000 458.400,206.000" stroke-width="16.734" stroke="rgb(33,33,33)" fill="none" stroke-linecap="round"></path><path d="M 458.400,206.000 C 459.400,205.000 459.238,204.775 460.400,204.000" stroke-width="16.347" stroke="rgb(33,33,33)" fill="none" stroke-linecap="round"></path><path d="M 460.400,204.000 C 462.238,202.775 462.400,203.000 464.400,202.000" stroke-width="15.693" stroke="rgb(33,33,33)" fill="none" stroke-linecap="round"></path><path d="M 464.400,202.000 C 466.400,201.000 466.634,201.325 468.400,200.000" stroke-width="14.889" stroke="rgb(33,33,33)" fill="none" stroke-linecap="round"></path><path d="M 468.400,200.000 C 470.634,198.325 470.400,198.000 472.400,196.000" stroke-width="14.323" stroke="rgb(33,33,33)" fill="none" stroke-linecap="round"></path><path d="M 472.400,196.000 C 474.900,193.500 475.057,193.636 477.400,191.000" stroke-width="13.209" stroke="rgb(33,33,33)" fill="none" stroke-linecap="round"></path><path d="M 477.400,191.000 C 479.057,189.136 478.644,188.756 480.400,187.000" stroke-width="13.052" stroke="rgb(33,33,33)" fill="none" stroke-linecap="round"></path><path d="M 480.400,187.000 C 483.144,184.256 483.656,184.744 486.400,182.000" stroke-width="12.541" stroke="rgb(33,33,33)" fill="none" stroke-linecap="round"></path><path d="M 486.400,182.000 C 488.156,180.244 487.525,179.250 489.400,178.000" stroke-width="12.525" stroke="rgb(33,33,33)" fill="none" stroke-linecap="round"></path><path d="M 489.400,178.000 C 490.525,177.250 491.500,178.600 492.400,178.000" stroke-width="12.911" stroke="rgb(33,33,33)" fill="none" stroke-linecap="round"></path><path d="M 492.400,178.000 C 493.000,177.600 493.067,176.333 492.400,176.000" stroke-width="13.394" stroke="rgb(33,33,33)" fill="none" stroke-linecap="round"></path><path d="M 492.400,176.000 C 491.067,175.333 490.360,175.673 488.400,176.000" stroke-width="14.035" stroke="rgb(33,33,33)" fill="none" stroke-linecap="round"></path><path d="M 488.400,176.000 C 484.360,176.673 484.131,176.368 480.400,178.000" stroke-width="13.171" stroke="rgb(33,33,33)" fill="none" stroke-linecap="round"></path><path d="M 480.400,178.000 C 476.131,179.868 476.162,180.179 472.400,183.000" stroke-width="11.915" stroke="rgb(33,33,33)" fill="none" stroke-linecap="round"></path><path d="M 472.400,183.000 C 468.162,186.179 468.275,186.367 464.400,190.000" stroke-width="11.093" stroke="rgb(33,33,33)" fill="none" stroke-linecap="round"></path><path d="M 464.400,190.000 C 460.275,193.867 460.779,194.497 456.400,198.000" stroke-width="10.421" stroke="rgb(33,33,33)" fill="none" stroke-linecap="round"></path><path d="M 456.400,198.000 C 453.279,200.497 452.303,199.361 449.400,202.000" stroke-width="10.472" stroke="rgb(33,33,33)" fill="none" stroke-linecap="round"></path><path d="M 449.400,202.000 C 446.803,204.361 446.756,204.745 445.400,208.000" stroke-width="10.507" stroke="rgb(33,33,33)" fill="none" stroke-linecap="round"></path><path d="M 445.400,208.000 C 444.256,210.745 444.776,210.990 444.400,214.000" stroke-width="10.571" stroke="rgb(33,33,33)" fill="none" stroke-linecap="round"></path><path d="M 444.400,214.000 C 444.276,214.990 443.878,215.216 444.400,216.000" stroke-width="11.361" stroke="rgb(33,33,33)" fill="none" stroke-linecap="round"></path><path d="M 444.400,216.000 C 445.878,218.216 446.039,218.584 448.400,220.000" stroke-width="11.458" stroke="rgb(33,33,33)" fill="none" stroke-linecap="round"></path><path d="M 448.400,220.000 C 451.039,221.584 451.301,221.613 454.400,222.000" stroke-width="11.542" stroke="rgb(33,33,33)" fill="none" stroke-linecap="round"></path><path d="M 454.400,222.000 C 459.301,222.613 459.400,222.000 464.400,222.000" stroke-width="10.718" stroke="rgb(33,33,33)" fill="none" stroke-linecap="round"></path><path d="M 464.400,222.000 C 470.400,222.000 470.400,222.000 476.400,222.000" stroke-width="10.067" stroke="rgb(33,33,33)" fill="none" stroke-linecap="round"></path><path d="M 476.400,222.000 C 482.900,222.000 482.900,222.000 489.400,222.000" stroke-width="9.489" stroke="rgb(33,33,33)" fill="none" stroke-linecap="round"></path><path d="M 489.400,222.000 C 492.900,222.000 492.900,222.000 496.400,222.000" stroke-width="9.725" stroke="rgb(33,33,33)" fill="none" stroke-linecap="round"></path><path d="M 496.400,222.000 C 498.400,222.000 500.400,222.472 500.400,222.000" stroke-width="10.301" stroke="rgb(33,33,33)" fill="none" stroke-linecap="round"></path><path d="M 500.400,222.000 C 500.400,221.472 498.550,220.538 496.400,220.000" stroke-width="11.094" stroke="rgb(33,33,33)" fill="none" stroke-linecap="round"></path><path d="M 496.400,220.000 C 490.550,218.538 490.451,218.378 484.400,218.000" stroke-width="10.086" stroke="rgb(33,33,33)" fill="none" stroke-linecap="round"></path><path d="M 484.400,218.000 C 474.451,217.378 474.400,218.000 464.400,218.000" stroke-width="8.780" stroke="rgb(33,33,33)" fill="none" stroke-linecap="round"></path><path d="M 464.400,218.000 C 445.400,218.000 445.400,218.000 426.400,218.000" stroke-width="7.008" stroke="rgb(33,33,33)" fill="none" stroke-linecap="round"></path><path d="M 426.400,218.000 C 403.900,218.000 403.900,218.000 381.400,218.000" stroke-width="6.750" stroke="rgb(33,33,33)" fill="none" stroke-linecap="round"></path><path d="M 381.400,218.000 C 357.900,218.000 357.900,218.000 334.400,218.000" stroke-width="6.750" stroke="rgb(33,33,33)" fill="none" stroke-linecap="round"></path><path d="M 334.400,218.000 C 313.400,218.000 313.400,218.000 292.400,218.000" stroke-width="6.750" stroke="rgb(33,33,33)" fill="none" stroke-linecap="round"></path><path d="M 292.400,218.000 C 278.400,218.000 278.376,217.452 264.400,218.000" stroke-width="6.750" stroke="rgb(33,33,33)" fill="none" stroke-linecap="round"></path><path d="M 264.400,218.000 C 252.876,218.452 252.804,218.479 241.400,220.000" stroke-width="6.750" stroke="rgb(33,33,33)" fill="none" stroke-linecap="round"></path><path d="M 241.400,220.000 C 237.804,220.479 237.843,220.852 234.400,222.000" stroke-width="6.750" stroke="rgb(33,33,33)" fill="none" stroke-linecap="round"></path><path d="M 234.400,222.000 C 233.343,222.352 232.048,222.648 232.400,223.000" stroke-width="6.750" stroke="rgb(33,33,33)" fill="none" stroke-linecap="round"></path><path d="M 232.400,223.000 C 233.048,223.648 234.370,223.746 236.400,224.000" stroke-width="6.750" stroke="rgb(33,33,33)" fill="none" stroke-linecap="round"></path><path d="M 236.400,224.000 C 238.370,224.246 238.400,224.000 240.400,224.000" stroke-width="7.455" stroke="rgb(33,33,33)" fill="none" stroke-linecap="round"></path><path d="M 240.400,224.000 C 243.400,224.000 243.400,224.000 246.400,224.000" stroke-width="8.026" stroke="rgb(33,33,33)" fill="none" stroke-linecap="round"></path><path d="M 246.400,224.000 C 249.900,224.000 249.900,224.000 253.400,224.000" stroke-width="8.530" stroke="rgb(33,33,33)" fill="none" stroke-linecap="round"></path><path d="M 253.400,224.000 C 256.900,224.000 257.044,224.610 260.400,224.000" stroke-width="8.808" stroke="rgb(33,33,33)" fill="none" stroke-linecap="round"></path><path d="M 260.400,224.000 C 262.544,223.610 262.249,222.359 264.400,222.000" stroke-width="9.468" stroke="rgb(33,33,33)" fill="none" stroke-linecap="round"></path><path d="M 264.400,222.000 C 268.249,221.359 268.400,222.000 272.400,222.000" stroke-width="9.465" stroke="rgb(33,33,33)" fill="none" stroke-linecap="round"></path><path d="M 272.400,222.000 C 274.900,222.000 274.957,222.407 277.400,222.000" stroke-width="9.943" stroke="rgb(33,33,33)" fill="none" stroke-linecap="round"></path><path d="M 277.400,222.000 C 280.957,221.407 280.859,220.817 284.400,220.000" stroke-width="10.068" stroke="rgb(33,33,33)" fill="none" stroke-linecap="round"></path><path d="M 284.400,220.000 C 287.359,219.317 287.376,219.216 290.400,219.000" stroke-width="10.326" stroke="rgb(33,33,33)" fill="none" stroke-linecap="round"></path><path d="M 290.400,219.000 C 294.376,218.716 294.400,219.000 298.400,219.000" stroke-width="10.285" stroke="rgb(33,33,33)" fill="none" stroke-linecap="round"></path><path d="M 298.400,219.000 C 303.400,219.000 303.400,219.000 308.400,219.000" stroke-width="9.999" stroke="rgb(33,33,33)" fill="none" stroke-linecap="round"></path><path d="M 308.400,219.000 C 312.400,219.000 312.400,219.000 316.400,219.000" stroke-width="10.136" stroke="rgb(33,33,33)" fill="none" stroke-linecap="round"></path><path d="M 316.400,219.000 C 320.400,219.000 320.400,219.000 324.400,219.000" stroke-width="9.991" stroke="rgb(33,33,33)" fill="none" stroke-linecap="round"></path><path d="M 324.400,219.000 C 328.400,219.000 328.400,219.000 332.400,219.000" stroke-width="10.017" stroke="rgb(33,33,33)" fill="none" stroke-linecap="round"></path><path d="M 332.400,219.000 C 338.400,219.000 338.400,219.000 344.400,219.000" stroke-width="9.565" stroke="rgb(33,33,33)" fill="none" stroke-linecap="round"></path><path d="M 344.400,219.000 C 349.400,219.000 349.400,219.000 354.400,219.000" stroke-width="9.570" stroke="rgb(33,33,33)" fill="none" stroke-linecap="round"></path><path d="M 354.400,219.000 C 359.400,219.000 359.400,219.000 364.400,219.000" stroke-width="9.295" stroke="rgb(33,33,33)" fill="none" stroke-linecap="round"></path><path d="M 364.400,219.000 C 368.400,219.000 368.400,219.000 372.400,219.000" stroke-width="9.450" stroke="rgb(33,33,33)" fill="none" stroke-linecap="round"></path><path d="M 372.400,219.000 C 374.900,219.000 374.900,219.000 377.400,219.000" stroke-width="9.998" stroke="rgb(33,33,33)" fill="none" stroke-linecap="round"></path><path d="M 377.400,219.000 C 378.900,219.000 378.900,219.000 380.400,219.000" stroke-width="10.684" stroke="rgb(33,33,33)" fill="none" stroke-linecap="round"></path><path d="M 380.400,219.000 C 381.400,219.000 382.067,219.000 382.400,219.000" stroke-width="11.465" stroke="rgb(33,33,33)" fill="none" stroke-linecap="round"></path><path d="M 382.400,219.000 C 382.567,219.000 381.900,219.000 381.400,219.000" stroke-width="12.504" stroke="rgb(33,33,33)" fill="none" stroke-linecap="round"></path><path d="M 381.400,219.000 C 378.900,219.000 378.900,219.000 376.400,219.000" stroke-width="12.604" stroke="rgb(33,33,33)" fill="none" stroke-linecap="round"></path><path d="M 376.400,219.000 C 372.900,219.000 372.900,219.000 369.400,219.000" stroke-width="12.015" stroke="rgb(33,33,33)" fill="none" stroke-linecap="round"></path><path d="M 369.400,219.000 C 365.400,219.000 365.400,219.000 361.400,219.000" stroke-width="11.583" stroke="rgb(33,33,33)" fill="none" stroke-linecap="round"></path><path d="M 361.400,219.000 C 353.900,219.000 353.900,219.000 346.400,219.000" stroke-width="10.260" stroke="rgb(33,33,33)" fill="none" stroke-linecap="round"></path><path d="M 346.400,219.000 C 339.400,219.000 339.400,219.000 332.400,219.000" stroke-width="9.689" stroke="rgb(33,33,33)" fill="none" stroke-linecap="round"></path><path d="M 332.400,219.000 C 322.400,219.000 322.400,219.000 312.400,219.000" stroke-width="8.288" stroke="rgb(33,33,33)" fill="none" stroke-linecap="round"></path><path d="M 312.400,219.000 C 298.400,219.000 298.400,219.000 284.400,219.000" stroke-width="7.093" stroke="rgb(33,33,33)" fill="none" stroke-linecap="round"></path><path d="M 284.400,219.000 C 271.400,219.000 271.400,219.000 258.400,219.000" stroke-width="6.750" stroke="rgb(33,33,33)" fill="none" stroke-linecap="round"></path><path d="M 258.400,219.000 C 245.400,219.000 245.400,219.000 232.400,219.000" stroke-width="6.750" stroke="rgb(33,33,33)" fill="none" stroke-linecap="round"></path><path d="M 232.400,219.000 C 225.400,219.000 225.390,219.259 218.400,219.000" stroke-width="6.750" stroke="rgb(33,33,33)" fill="none" stroke-linecap="round"></path><path d="M 218.400,219.000 C 211.890,218.759 211.832,218.919 205.400,218.000" stroke-width="6.750" stroke="rgb(33,33,33)" fill="none" stroke-linecap="round"></path><path d="M 205.400,218.000 C 201.332,217.419 201.059,217.689 197.400,216.000" stroke-width="7.000" stroke="rgb(33,33,33)" fill="none" stroke-linecap="round"></path><path d="M 197.400,216.000 C 194.559,214.689 195.078,213.674 192.400,212.000" stroke-width="7.572" stroke="rgb(33,33,33)" fill="none" stroke-linecap="round"></path><path d="M 192.400,212.000 C 191.078,211.174 190.170,212.026 189.400,211.000" stroke-width="8.428" stroke="rgb(33,33,33)" fill="none" stroke-linecap="round"></path><path d="M 189.400,211.000 C 188.670,210.026 189.114,209.432 189.400,208.000" stroke-width="9.113" stroke="rgb(33,33,33)" fill="none" stroke-linecap="round"></path><path d="M 189.400,208.000 C 189.614,206.932 189.710,206.863 190.400,206.000" stroke-width="10.013" stroke="rgb(33,33,33)" fill="none" stroke-linecap="round"></path><path d="M 190.400,206.000 C 191.710,204.363 191.749,204.321 193.400,203.000" stroke-width="10.335" stroke="rgb(33,33,33)" fill="none" stroke-linecap="round"></path><path d="M 193.400,203.000 C 196.749,200.321 197.255,200.883 200.400,198.000" stroke-width="10.214" stroke="rgb(33,33,33)" fill="none" stroke-linecap="round"></path><path d="M 200.400,198.000 C 203.255,195.383 202.448,194.460 205.400,192.000" stroke-width="10.221" stroke="rgb(33,33,33)" fill="none" stroke-linecap="round"></path><path d="M 205.400,192.000 C 208.448,189.460 209.052,190.232 212.400,188.000" stroke-width="10.193" stroke="rgb(33,33,33)" fill="none" stroke-linecap="round"></path><path d="M 212.400,188.000 C 216.552,185.232 216.400,185.000 220.400,182.000" stroke-width="9.930" stroke="rgb(33,33,33)" fill="none" stroke-linecap="round"></path><path d="M 220.400,182.000 C 224.400,179.000 223.970,178.215 228.400,176.000" stroke-width="9.729" stroke="rgb(33,33,33)" fill="none" stroke-linecap="round"></path><path d="M 228.400,176.000 C 235.970,172.215 236.808,173.796 244.400,170.000" stroke-width="8.834" stroke="rgb(33,33,33)" fill="none" stroke-linecap="round"></path><path d="M 244.400,170.000 C 250.808,166.796 249.842,164.714 256.400,162.000" stroke-width="8.457" stroke="rgb(33,33,33)" fill="none" stroke-linecap="round"></path><path d="M 256.400,162.000 C 264.342,158.714 264.871,159.866 273.400,158.000" stroke-width="7.935" stroke="rgb(33,33,33)" fill="none" stroke-linecap="round"></path><path d="M 273.400,158.000 C 280.871,156.366 280.873,156.351 288.400,155.000" stroke-width="7.844" stroke="rgb(33,33,33)" fill="none" stroke-linecap="round"></path><path d="M 288.400,155.000 C 300.373,152.851 300.323,152.258 312.400,151.000" stroke-width="6.840" stroke="rgb(33,33,33)" fill="none" stroke-linecap="round"></path><path d="M 312.400,151.000 C 324.323,149.758 324.456,151.127 336.400,150.000" stroke-width="6.750" stroke="rgb(33,33,33)" fill="none" stroke-linecap="round"></path><path d="M 336.400,150.000 C 350.956,148.627 350.845,147.456 365.400,146.000" stroke-width="6.750" stroke="rgb(33,33,33)" fill="none" stroke-linecap="round"></path><path d="M 365.400,146.000 C 380.845,144.456 380.889,144.776 396.400,144.000" stroke-width="6.750" stroke="rgb(33,33,33)" fill="none" stroke-linecap="round"></path><path d="M 396.400,144.000 C 410.889,143.276 410.896,143.254 425.400,143.000" stroke-width="6.750" stroke="rgb(33,33,33)" fill="none" stroke-linecap="round"></path><path d="M 425.400,143.000 C 439.396,142.754 439.400,143.000 453.400,143.000" stroke-width="6.750" stroke="rgb(33,33,33)" fill="none" stroke-linecap="round"></path><path d="M 453.400,143.000 C 465.900,143.000 465.934,143.680 478.400,143.000" stroke-width="6.750" stroke="rgb(33,33,33)" fill="none" stroke-linecap="round"></path><path d="M 478.400,143.000 C 493.434,142.180 493.424,141.702 508.400,140.000" stroke-width="6.750" stroke="rgb(33,33,33)" fill="none" stroke-linecap="round"></path><path d="M 508.400,140.000 C 515.424,139.202 515.371,138.586 522.400,138.000" stroke-width="6.750" stroke="rgb(33,33,33)" fill="none" stroke-linecap="round"></path><path d="M 522.400,138.000 C 527.371,137.586 527.400,138.000 532.400,138.000" stroke-width="6.750" stroke="rgb(33,33,33)" fill="none" stroke-linecap="round"></path><path d="M 532.400,138.000 C 536.400,138.000 536.551,138.641 540.400,138.000" stroke-width="6.750" stroke="rgb(33,33,33)" fill="none" stroke-linecap="round"></path><path d="M 540.400,138.000 C 542.551,137.641 542.357,136.817 544.400,136.000" stroke-width="6.927" stroke="rgb(33,33,33)" fill="none" stroke-linecap="round"></path><path d="M 544.400,136.000 C 544.857,135.817 544.900,136.000 545.400,136.000" stroke-width="7.899" stroke="rgb(33,33,33)" fill="none" stroke-linecap="round"></path><path d="M 545.400,136.000 C 545.900,136.000 546.150,136.250 546.400,136.000" stroke-width="8.897" stroke="rgb(33,33,33)" fill="none" stroke-linecap="round"></path><path d="M 546.400,136.000 C 546.650,135.750 546.400,135.500 546.400,135.000" stroke-width="10.015" stroke="rgb(33,33,33)" fill="none" stroke-linecap="round"></path><path d="M 546.400,135.000 C 546.400,134.500 546.650,134.250 546.400,134.000" stroke-width="10.990" stroke="rgb(33,33,33)" fill="none" stroke-linecap="round"></path></svg>