<svg xmlns="http://www.w3.org/2000/svg" xmlns:xlink="http://www.w3.org/1999/xlink" viewBox="0 0 360 500"><path d="M 60.915,165.790 C 61.717,171.648 61.526,171.680 62.519,177.506" stroke-width="18.109" stroke="rgb(33,33,33)" fill="none" stroke-linecap="round"></path><path d="M 62.519,177.506 C 63.961,185.969 64.316,185.909 65.785,194.369" stroke-width="15.617" stroke="rgb(33,33,33)" fill="none" stroke-linecap="round"></path><path d="M 65.785,194.369 C 67.320,203.211 66.884,203.291 68.527,212.110" stroke-width="13.853" stroke="rgb(33,33,33)" fill="none" stroke-linecap="round"></path><path d="M 68.527,212.110 C 69.908,219.520 70.340,219.437 71.832,226.828" stroke-width="13.091" stroke="rgb(33,33,33)" fill="none" stroke-linecap="round"></path><path d="M 71.832,226.828 C 72.941,232.323 72.833,232.347 73.728,237.882" stroke-width="12.903" stroke="rgb(33,33,33)" fill="none" stroke-linecap="round"></path><path d="M 73.728,237.882 C 74.115,240.277 73.707,240.486 74.397,242.689" stroke-width="13.387" stroke="rgb(33,33,33)" fill="none" stroke-linecap="round"></path><path d="M 74.397,242.689 C 74.603,243.347 75.062,243.758 75.520,243.604" stroke-width="14.189" stroke="rgb(33,33,33)" fill="none" stroke-linecap="round"></path><path d="M 75.520,243.604 C 76.125,243.400 76.308,242.886 76.522,241.973" stroke-width="14.843" stroke="rgb(33,33,33)" fill="none" stroke-linecap="round"></path><path d="M 76.522,241.973 C 77.061,239.668 76.650,239.553 77.026,237.167" stroke-width="14.760" stroke="rgb(33,33,33)" fill="none" stroke-linecap="round"></path><path d="M 77.026,237.167 C 78.283,229.196 78.166,229.165 79.788,221.260" stroke-width="13.386" stroke="rgb(33,33,33)" fill="none" stroke-linecap="round"></path><path d="M 79.788,221.260 C 81.966,210.647 82.392,210.734 84.625,200.130" stroke-width="12.359" stroke="rgb(33,33,33)" fill="none" stroke-linecap="round"></path><path d="M 84.625,200.130 C 86.925,189.209 86.095,188.994 88.853,178.209" stroke-width="11.198" stroke="rgb(33,33,33)" fill="none" stroke-linecap="round"></path><path d="M 88.853,178.209 C 90.695,171.005 90.961,171.014 93.826,164.151" stroke-width="11.047" stroke="rgb(33,33,33)" fill="none" stroke-linecap="round"></path><path d="M 93.826,164.151 C 95.575,159.963 95.381,159.648 98.081,156.107" stroke-width="11.418" stroke="rgb(33,33,33)" fill="none" stroke-linecap="round"></path><path d="M 98.081,156.107 C 99.806,153.845 100.140,153.865 102.676,152.545" stroke-width="11.971" stroke="rgb(33,33,33)" fill="none" stroke-linecap="round"></path><path d="M 102.676,152.545 C 105.126,151.270 105.363,151.009 108.052,150.916" stroke-width="12.505" stroke="rgb(33,33,33)" fill="none" stroke-linecap="round"></path><path d="M 108.052,150.916 C 110.210,150.842 111.182,150.973 112.371,152.211" stroke-width="13.077" stroke="rgb(33,33,33)" fill="none" stroke-linecap="round"></path><path d="M 112.371,152.211 C 113.089,152.959 111.974,153.532 111.867,154.887" stroke-width="13.768" stroke="rgb(33,33,33)" fill="none" stroke-linecap="round"></path><path d="M 111.867,154.887 C 111.537,159.076 112.235,159.180 111.498,163.299" stroke-width="13.722" stroke="rgb(33,33,33)" fill="none" stroke-linecap="round"></path><path d="M 111.498,163.299 C 110.404,169.409 110.000,169.366 108.205,175.345" stroke-width="13.257" stroke="rgb(33,33,33)" fill="none" stroke-linecap="round"></path><path d="M 108.205,175.345 C 106.083,182.416 106.196,182.468 103.664,189.398" stroke-width="12.604" stroke="rgb(33,33,33)" fill="none" stroke-linecap="round"></path><path d="M 103.664,189.398 C 101.610,195.021 101.422,194.956 99.034,200.450" stroke-width="12.452" stroke="rgb(33,33,33)" fill="none" stroke-linecap="round"></path><path d="M 99.034,200.450 C 97.652,203.629 97.486,203.559 96.124,206.744" stroke-width="12.754" stroke="rgb(33,33,33)" fill="none" stroke-linecap="round"></path><path d="M 96.124,206.744 C 95.453,208.312 95.681,208.425 94.968,209.955" stroke-width="13.408" stroke="rgb(33,33,33)" fill="none" stroke-linecap="round"></path><path d="M 94.968,209.955 C 94.697,210.536 94.120,210.955 94.157,210.967" stroke-width="14.226" stroke="rgb(33,33,33)" fill="none" stroke-linecap="round"></path><path d="M 94.157,210.967 C 94.195,210.980 94.590,210.415 95.118,210.005" stroke-width="14.936" stroke="rgb(33,33,33)" fill="none" stroke-linecap="round"></path><path d="M 95.118,210.005 C 95.370,209.809 95.420,209.887 95.717,209.756" stroke-width="15.712" stroke="rgb(33,33,33)" fill="none" stroke-linecap="round"></path><path d="M 95.717,209.756 C 96.460,209.429 96.417,209.281 97.197,209.090" stroke-width="15.757" stroke="rgb(33,33,33)" fill="none" stroke-linecap="round"></path><path d="M 97.197,209.090 C 98.457,208.781 98.593,208.405 99.797,208.756" stroke-width="15.922" stroke="rgb(33,33,33)" fill="none" stroke-linecap="round"></path><path d="M 99.797,208.756 C 102.095,209.427 102.012,209.922 104.201,211.134" stroke-width="15.943" stroke="rgb(33,33,33)" fill="none" stroke-linecap="round"></path><path d="M 104.201,211.134 C 107.507,212.964 107.494,212.988 110.788,214.841" stroke-width="15.517" stroke="rgb(33,33,33)" fill="none" stroke-linecap="round"></path><path d="M 110.788,214.841 C 113.564,216.403 113.436,216.702 116.341,217.965" stroke-width="15.298" stroke="rgb(33,33,33)" fill="none" stroke-linecap="round"></path><path d="M 116.341,217.965 C 119.077,219.154 119.151,219.214 122.070,219.745" stroke-width="15.231" stroke="rgb(33,33,33)" fill="none" stroke-linecap="round"></path><path d="M 122.070,219.745 C 124.053,220.106 124.269,220.176 126.145,219.748" stroke-width="15.440" stroke="rgb(33,33,33)" fill="none" stroke-linecap="round"></path><path d="M 126.145,219.748 C 127.026,219.547 126.895,219.150 127.584,218.488" stroke-width="15.905" stroke="rgb(33,33,33)" fill="none" stroke-linecap="round"></path><path d="M 127.584,218.488 C 129.128,217.005 129.878,217.394 130.612,215.458" stroke-width="15.994" stroke="rgb(33,33,33)" fill="none" stroke-linecap="round"></path><path d="M 130.612,215.458 C 132.517,210.432 132.224,210.075 132.861,204.564" stroke-width="14.876" stroke="rgb(33,33,33)" fill="none" stroke-linecap="round"></path><path d="M 132.861,204.564 C 133.825,196.213 133.604,196.157 133.814,187.735" stroke-width="13.616" stroke="rgb(33,33,33)" fill="none" stroke-linecap="round"></path><path d="M 133.814,187.735 C 134.081,177.028 134.702,176.942 133.814,166.306" stroke-width="12.216" stroke="rgb(33,33,33)" fill="none" stroke-linecap="round"></path><path d="M 133.814,166.306 C 133.024,156.838 132.254,156.894 130.457,147.528" stroke-width="11.568" stroke="rgb(33,33,33)" fill="none" stroke-linecap="round"></path><path d="M 130.457,147.528 C 129.197,140.962 129.089,140.983 127.699,134.443" stroke-width="11.578" stroke="rgb(33,33,33)" fill="none" stroke-linecap="round"></path><path d="M 127.699,134.443 C 126.973,131.029 127.171,130.943 126.225,127.620" stroke-width="12.077" stroke="rgb(33,33,33)" fill="none" stroke-linecap="round"></path><path d="M 126.225,127.620 C 126.026,126.923 125.467,126.852 125.409,126.403" stroke-width="12.961" stroke="rgb(33,33,33)" fill="none" stroke-linecap="round"></path><path d="M 125.409,126.403 C 125.383,126.203 125.916,126.074 126.058,126.321" stroke-width="13.897" stroke="rgb(33,33,33)" fill="none" stroke-linecap="round"></path><path d="M 126.058,126.321 C 126.693,127.421 126.415,127.745 126.963,129.096" stroke-width="14.441" stroke="rgb(33,33,33)" fill="none" stroke-linecap="round"></path><path d="M 126.963,129.096 C 129.022,134.171 129.330,134.052 131.272,139.173" stroke-width="13.882" stroke="rgb(33,33,33)" fill="none" stroke-linecap="round"></path><path d="M 131.272,139.173 C 134.218,146.943 134.226,146.955 136.738,154.878" stroke-width="12.959" stroke="rgb(33,33,33)" fill="none" stroke-linecap="round"></path><path d="M 136.738,154.878 C 139.301,162.958 138.947,163.069 141.422,171.179" stroke-width="12.183" stroke="rgb(33,33,33)" fill="none" stroke-linecap="round"></path><path d="M 141.422,171.179 C 143.561,178.189 143.308,178.304 145.967,185.118" stroke-width="11.964" stroke="rgb(33,33,33)" fill="none" stroke-linecap="round"></path><path d="M 145.967,185.118 C 147.932,190.154 147.821,190.338 150.670,194.879" stroke-width="12.042" stroke="rgb(33,33,33)" fill="none" stroke-linecap="round"></path><path d="M 150.670,194.879 C 152.370,197.588 152.536,198.263 155.065,199.617" stroke-width="12.454" stroke="rgb(33,33,33)" fill="none" stroke-linecap="round"></path><path d="M 155.065,199.617 C 156.371,200.316 157.061,199.823 158.340,198.984" stroke-width="13.213" stroke="rgb(33,33,33)" fill="none" stroke-linecap="round"></path><path d="M 158.340,198.984 C 159.507,198.218 159.491,197.832 159.958,196.406" stroke-width="13.748" stroke="rgb(33,33,33)" fill="none" stroke-linecap="round"></path><path d="M 159.958,196.406 C 160.959,193.346 160.628,193.211 161.276,190.011" stroke-width="13.870" stroke="rgb(33,33,33)" fill="none" stroke-linecap="round"></path><path d="M 161.276,190.011 C 162.011,186.383 162.372,186.419 162.724,182.751" stroke-width="13.917" stroke="rgb(33,33,33)" fill="none" stroke-linecap="round"></path><path d="M 162.724,182.751 C 163.121,178.623 162.623,178.580 162.774,174.419" stroke-width="13.793" stroke="rgb(33,33,33)" fill="none" stroke-linecap="round"></path><path d="M 162.774,174.419 C 162.897,171.021 162.908,171.012 163.273,167.632" stroke-width="13.964" stroke="rgb(33,33,33)" fill="none" stroke-linecap="round"></path><path d="M 163.273,167.632 C 163.511,165.430 163.459,165.403 163.980,163.255" stroke-width="14.338" stroke="rgb(33,33,33)" fill="none" stroke-linecap="round"></path><path d="M 163.980,163.255 C 164.482,161.186 164.430,161.098 165.319,159.198" stroke-width="14.673" stroke="rgb(33,33,33)" fill="none" stroke-linecap="round"></path><path d="M 165.319,159.198 C 165.672,158.445 165.822,158.174 166.464,157.949" stroke-width="15.294" stroke="rgb(33,33,33)" fill="none" stroke-linecap="round"></path><path d="M 166.464,157.949 C 166.878,157.804 167.078,158.055 167.431,158.459" stroke-width="15.909" stroke="rgb(33,33,33)" fill="none" stroke-linecap="round"></path><path d="M 167.431,158.459 C 168.693,159.906 168.748,159.947 169.694,161.652" stroke-width="16.016" stroke="rgb(33,33,33)" fill="none" stroke-linecap="round"></path><path d="M 169.694,161.652 C 171.362,164.660 171.235,164.743 172.659,167.886" stroke-width="15.665" stroke="rgb(33,33,33)" fill="none" stroke-linecap="round"></path><path d="M 172.659,167.886 C 173.941,170.716 173.847,170.758 175.106,173.598" stroke-width="15.436" stroke="rgb(33,33,33)" fill="none" stroke-linecap="round"></path><path d="M 175.106,173.598 C 176.080,175.794 175.854,175.953 177.125,177.958" stroke-width="15.464" stroke="rgb(33,33,33)" fill="none" stroke-linecap="round"></path><path d="M 177.125,177.958 C 178.051,179.419 178.350,179.211 179.501,180.529" stroke-width="15.740" stroke="rgb(33,33,33)" fill="none" stroke-linecap="round"></path><path d="M 179.501,180.529 C 180.267,181.406 180.083,181.767 180.958,182.347" stroke-width="16.093" stroke="rgb(33,33,33)" fill="none" stroke-linecap="round"></path><path d="M 180.958,182.347 C 181.401,182.641 181.647,182.545 182.136,182.277" stroke-width="16.591" stroke="rgb(33,33,33)" fill="none" stroke-linecap="round"></path><path d="M 182.136,182.277 C 182.994,181.807 183.191,181.772 183.653,180.870" stroke-width="16.864" stroke="rgb(33,33,33)" fill="none" stroke-linecap="round"></path><path d="M 183.653,180.870 C 185.028,178.185 184.977,178.056 185.810,175.102" stroke-width="16.422" stroke="rgb(33,33,33)" fill="none" stroke-linecap="round"></path><path d="M 185.810,175.102 C 186.692,171.971 186.711,171.931 187.083,168.701" stroke-width="15.970" stroke="rgb(33,33,33)" fill="none" stroke-linecap="round"></path><path d="M 187.083,168.701 C 187.426,165.718 187.194,165.689 187.240,162.676" stroke-width="15.755" stroke="rgb(33,33,33)" fill="none" stroke-linecap="round"></path><path d="M 187.240,162.676 C 187.273,160.536 187.088,160.521 187.240,158.395" stroke-width="15.837" stroke="rgb(33,33,33)" fill="none" stroke-linecap="round"></path><path d="M 187.240,158.395 C 187.337,157.037 187.557,157.057 187.739,155.707" stroke-width="16.109" stroke="rgb(33,33,33)" fill="none" stroke-linecap="round"></path><path d="M 187.739,155.707 C 187.807,155.203 187.524,154.948 187.739,154.687" stroke-width="16.630" stroke="rgb(33,33,33)" fill="none" stroke-linecap="round"></path><path d="M 187.739,154.687 C 187.899,154.494 188.328,154.517 188.488,154.799" stroke-width="17.117" stroke="rgb(33,33,33)" fill="none" stroke-linecap="round"></path><path d="M 188.488,154.799 C 188.889,155.508 188.548,155.771 188.861,156.668" stroke-width="17.360" stroke="rgb(33,33,33)" fill="none" stroke-linecap="round"></path><path d="M 188.861,156.668 C 189.737,159.181 189.716,159.215 190.865,161.618" stroke-width="16.813" stroke="rgb(33,33,33)" fill="none" stroke-linecap="round"></path><path d="M 190.865,161.618 C 191.788,163.548 191.686,163.689 193.004,165.334" stroke-width="16.589" stroke="rgb(33,33,33)" fill="none" stroke-linecap="round"></path><path d="M 193.004,165.334 C 193.918,166.475 194.036,166.528 195.329,167.189" stroke-width="16.714" stroke="rgb(33,33,33)" fill="none" stroke-linecap="round"></path><path d="M 195.329,167.189 C 196.437,167.755 196.801,168.253 197.806,167.788" stroke-width="16.886" stroke="rgb(33,33,33)" fill="none" stroke-linecap="round"></path><path d="M 197.806,167.788 C 199.423,167.040 199.456,166.467 200.574,164.762" stroke-width="16.769" stroke="rgb(33,33,33)" fill="none" stroke-linecap="round"></path><path d="M 200.574,164.762 C 203.123,160.874 203.767,160.996 205.140,156.602" stroke-width="15.869" stroke="rgb(33,33,33)" fill="none" stroke-linecap="round"></path><path d="M 205.140,156.602 C 207.042,150.518 206.276,150.223 207.124,143.806" stroke-width="14.746" stroke="rgb(33,33,33)" fill="none" stroke-linecap="round"></path><path d="M 207.124,143.806 C 208.061,136.707 208.620,136.699 208.710,129.570" stroke-width="13.803" stroke="rgb(33,33,33)" fill="none" stroke-linecap="round"></path><path d="M 208.710,129.570 C 208.806,121.939 208.916,121.780 207.497,114.285" stroke-width="12.936" stroke="rgb(33,33,33)" fill="none" stroke-linecap="round"></path><path d="M 207.497,114.285 C 205.857,105.623 204.916,105.806 202.591,97.257" stroke-width="12.193" stroke="rgb(33,33,33)" fill="none" stroke-linecap="round"></path><path d="M 202.591,97.257 C 200.792,90.643 200.986,90.591 199.250,83.960" stroke-width="12.047" stroke="rgb(33,33,33)" fill="none" stroke-linecap="round"></path><path d="M 199.250,83.960 C 198.054,79.393 197.467,79.481 196.727,74.861" stroke-width="11.798" stroke="rgb(33,33,33)" fill="none" stroke-linecap="round"></path><path d="M 196.727,74.861 C 196.205,71.603 196.727,71.532 196.727,68.203" stroke-width="12.374" stroke="rgb(33,33,33)" fill="none" stroke-linecap="round"></path><path d="M 196.727,68.203 C 196.727,67.785 196.649,67.775 196.727,67.367" stroke-width="13.254" stroke="rgb(33,33,33)" fill="none" stroke-linecap="round"></path><path d="M 196.727,67.367 C 196.988,65.999 196.968,65.948 197.405,64.651" stroke-width="13.949" stroke="rgb(33,33,33)" fill="none" stroke-linecap="round"></path><path d="M 197.405,64.651 C 197.473,64.449 197.642,64.194 197.737,64.369" stroke-width="14.718" stroke="rgb(33,33,33)" fill="none" stroke-linecap="round"></path><path d="M 197.737,64.369 C 199.026,66.752 199.320,66.942 200.173,69.768" stroke-width="15.124" stroke="rgb(33,33,33)" fill="none" stroke-linecap="round"></path><path d="M 200.173,69.768 C 202.482,77.422 202.001,77.579 204.060,85.330" stroke-width="13.871" stroke="rgb(33,33,33)" fill="none" stroke-linecap="round"></path><path d="M 204.060,85.330 C 206.687,95.221 206.508,95.283 209.544,105.051" stroke-width="12.693" stroke="rgb(33,33,33)" fill="none" stroke-linecap="round"></path><path d="M 209.544,105.051 C 212.185,113.548 211.685,113.849 215.414,121.861" stroke-width="12.013" stroke="rgb(33,33,33)" fill="none" stroke-linecap="round"></path><path d="M 215.414,121.861 C 217.946,127.302 218.359,127.215 222.067,131.958" stroke-width="11.976" stroke="rgb(33,33,33)" fill="none" stroke-linecap="round"></path><path d="M 222.067,131.958 C 224.957,135.655 224.970,135.950 228.611,138.740" stroke-width="12.173" stroke="rgb(33,33,33)" fill="none" stroke-linecap="round"></path><path d="M 228.611,138.740 C 230.167,139.933 230.517,139.708 232.461,139.924" stroke-width="12.807" stroke="rgb(33,33,33)" fill="none" stroke-linecap="round"></path><path d="M 232.461,139.924 C 233.669,140.058 233.909,139.927 234.916,139.439" stroke-width="13.566" stroke="rgb(33,33,33)" fill="none" stroke-linecap="round"></path><path d="M 234.916,139.439 C 235.265,139.270 235.132,139.038 235.173,138.610" stroke-width="14.412" stroke="rgb(33,33,33)" fill="none" stroke-linecap="round"></path><path d="M 235.173,138.610 C 235.260,137.703 235.217,137.688 235.173,136.769" stroke-width="15.033" stroke="rgb(33,33,33)" fill="none" stroke-linecap="round"></path><path d="M 235.173,136.769 C 235.050,134.198 235.065,134.194 234.838,131.630" stroke-width="15.132" stroke="rgb(33,33,33)" fill="none" stroke-linecap="round"></path><path d="M 234.838,131.630 C 234.491,127.716 234.317,127.729 234.024,123.812" stroke-width="14.794" stroke="rgb(33,33,33)" fill="none" stroke-linecap="round"></path><path d="M 234.024,123.812 C 233.736,119.967 233.638,119.957 233.675,116.105" stroke-width="14.612" stroke="rgb(33,33,33)" fill="none" stroke-linecap="round"></path><path d="M 233.675,116.105 C 233.713,112.190 233.839,112.184 234.175,108.279" stroke-width="14.508" stroke="rgb(33,33,33)" fill="none" stroke-linecap="round"></path><path d="M 234.175,108.279 C 234.388,105.806 234.456,105.812 234.772,103.349" stroke-width="14.688" stroke="rgb(33,33,33)" fill="none" stroke-linecap="round"></path><path d="M 234.772,103.349 C 234.955,101.924 234.768,101.837 235.173,100.504" stroke-width="15.148" stroke="rgb(33,33,33)" fill="none" stroke-linecap="round"></path><path d="M 235.173,100.504 C 235.337,99.965 235.625,99.433 235.909,99.605" stroke-width="15.782" stroke="rgb(33,33,33)" fill="none" stroke-linecap="round"></path><path d="M 235.909,99.605 C 236.401,99.904 236.240,100.566 236.725,101.447" stroke-width="16.179" stroke="rgb(33,33,33)" fill="none" stroke-linecap="round"></path><path d="M 236.725,101.447 C 237.676,103.174 237.640,103.212 238.780,104.820" stroke-width="16.191" stroke="rgb(33,33,33)" fill="none" stroke-linecap="round"></path><path d="M 238.780,104.820 C 240.243,106.885 240.230,106.922 241.931,108.793" stroke-width="16.149" stroke="rgb(33,33,33)" fill="none" stroke-linecap="round"></path><path d="M 241.931,108.793 C 243.434,110.446 243.389,110.576 245.188,111.868" stroke-width="16.035" stroke="rgb(33,33,33)" fill="none" stroke-linecap="round"></path><path d="M 245.188,111.868 C 246.655,112.922 246.772,112.811 248.463,113.485" stroke-width="16.189" stroke="rgb(33,33,33)" fill="none" stroke-linecap="round"></path><path d="M 248.463,113.485 C 250.035,114.112 250.105,114.490 251.713,114.471" stroke-width="16.289" stroke="rgb(33,33,33)" fill="none" stroke-linecap="round"></path><path d="M 251.713,114.471 C 253.134,114.454 253.231,114.154 254.522,113.414" stroke-width="16.466" stroke="rgb(33,33,33)" fill="none" stroke-linecap="round"></path><path d="M 254.522,113.414 C 256.498,112.282 256.661,112.350 258.247,110.728" stroke-width="16.314" stroke="rgb(33,33,33)" fill="none" stroke-linecap="round"></path><path d="M 258.247,110.728 C 260.163,108.769 260.027,108.580 261.526,106.253" stroke-width="16.041" stroke="rgb(33,33,33)" fill="none" stroke-linecap="round"></path><path d="M 261.526,106.253 C 262.884,104.145 262.651,103.998 263.961,101.857" stroke-width="15.957" stroke="rgb(33,33,33)" fill="none" stroke-linecap="round"></path><path d="M 263.961,101.857 C 265.046,100.085 264.740,99.663 266.317,98.427" stroke-width="16.522" stroke="rgb(33,33,33)" fill="none" stroke-linecap="round"></path><path d="M 266.317,98.427 C 268.257,96.906 268.566,96.466 270.995,96.344" stroke-width="16.216" stroke="rgb(33,33,33)" fill="none" stroke-linecap="round"></path><path d="M 270.995,96.344 C 274.239,96.180 274.286,97.486 277.663,97.855" stroke-width="14.523" stroke="rgb(33,33,33)" fill="none" stroke-linecap="round"></path><path d="M 277.663,97.855 C 281.144,98.235 281.224,98.192 284.711,97.843" stroke-width="13.575" stroke="rgb(33,33,33)" fill="none" stroke-linecap="round"></path><path d="M 284.711,97.843 C 287.689,97.545 287.760,97.528 290.593,96.559" stroke-width="12.936" stroke="rgb(33,33,33)" fill="none" stroke-linecap="round"></path><path d="M 290.593,96.559 C 294.037,95.381 294.860,96.095 297.265,93.548" stroke-width="13.693" stroke="rgb(33,33,33)" fill="none" stroke-linecap="round"></path><path d="M 297.265,93.548 C 301.445,89.122 306.225,87.354 303.763,82.614" stroke-width="14.316" stroke="rgb(33,33,33)" fill="none" stroke-linecap="round"></path><path d="M 303.763,82.614 C 296.914,69.429 293.280,54.442 278.642,57.698" stroke-width="12.919" stroke="rgb(33,33,33)" fill="none" stroke-linecap="round"></path><path d="M 278.642,57.698 C 236.891,66.985 229.596,76.125 190.984,107.701" stroke-width="11.507" stroke="rgb(33,33,33)" fill="none" stroke-linecap="round"></path><path d="M 190.984,107.701 C 144.205,145.955 147.534,150.965 107.859,197.358" stroke-width="8.449" stroke="rgb(33,33,33)" fill="none" stroke-linecap="round"></path><path d="M 107.859,197.358 C 85.454,223.556 86.542,224.586 66.824,252.883" stroke-width="7.757" stroke="rgb(33,33,33)" fill="none" stroke-linecap="round"></path><path d="M 66.824,252.883 C 58.584,264.709 59.249,265.164 51.943,277.603" stroke-width="7.312" stroke="rgb(33,33,33)" fill="none" stroke-linecap="round"></path><path d="M 51.943,277.603 C 46.248,287.299 46.485,287.438 40.822,297.152" stroke-width="7.458" stroke="rgb(33,33,33)" fill="none" stroke-linecap="round"></path><path d="M 40.822,297.152 C 36.972,303.756 36.521,303.563 32.916,310.240" stroke-width="7.209" stroke="rgb(33,33,33)" fill="none" stroke-linecap="round"></path><path d="M 32.916,310.240 C 32.338,311.311 31.962,312.630 32.455,312.648" stroke-width="8.112" stroke="rgb(33,33,33)" fill="none" stroke-linecap="round"></path><path d="M 32.455,312.648 C 33.211,312.675 33.973,311.535 35.415,310.329" stroke-width="9.035" stroke="rgb(33,33,33)" fill="none" stroke-linecap="round"></path><path d="M 35.415,310.329 C 42.772,304.180 42.907,304.329 50.054,297.938" stroke-width="9.127" stroke="rgb(33,33,33)" fill="none" stroke-linecap="round"></path><path d="M 50.054,297.938 C 65.590,284.044 65.738,284.183 80.781,269.759" stroke-width="8.113" stroke="rgb(33,33,33)" fill="none" stroke-linecap="round"></path><path d="M 80.781,269.759 C 97.132,254.081 96.684,253.617 112.843,237.734" stroke-width="7.499" stroke="rgb(33,33,33)" fill="none" stroke-linecap="round"></path><path d="M 112.843,237.734 C 132.676,218.240 132.307,217.831 152.764,199.006" stroke-width="6.750" stroke="rgb(33,33,33)" fill="none" stroke-linecap="round"></path><path d="M 152.764,199.006 C 172.989,180.394 173.167,180.555 194.207,162.860" stroke-width="6.750" stroke="rgb(33,33,33)" fill="none" stroke-linecap="round"></path></svg>