<svg xmlns="http://www.w3.org/2000/svg" xmlns:xlink="http://www.w3.org/1999/xlink" viewBox="0 0 768 500"><path d="M 232.000,214.000 C 241.444,213.250 241.434,212.384 250.888,212.500" stroke-width="19.150" stroke="rgb(33,33,33)" fill="none" stroke-linecap="round"></path><path d="M 250.888,212.500 C 270.576,212.741 270.627,213.154 290.285,214.714" stroke-width="14.730" stroke="rgb(33,33,33)" fill="none" stroke-linecap="round"></path><path d="M 290.285,214.714 C 301.179,215.578 301.126,216.148 311.993,217.348" stroke-width="11.657" stroke="rgb(33,33,33)" fill="none" stroke-linecap="round"></path><path d="M 311.993,217.348 C 336.645,220.069 336.662,219.919 361.324,222.555" stroke-width="10.019" stroke="rgb(33,33,33)" fill="none" stroke-linecap="round"></path><path d="M 361.324,222.555 C 373.057,223.809 373.099,223.500 384.782,225.128" stroke-width="9.289" stroke="rgb(33,33,33)" fill="none" stroke-linecap="round"></path><path d="M 384.782,225.128 C 402.500,227.597 402.672,227.077 420.126,230.750" stroke-width="8.863" stroke="rgb(33,33,33)" fill="none" stroke-linecap="round"></path><path d="M 420.126,230.750 C 426.860,232.167 426.788,232.690 433.159,235.309" stroke-width="9.284" stroke="rgb(33,33,33)" fill="none" stroke-linecap="round"></path><path d="M 433.159,235.309 C 437.212,236.975 438.620,236.714 440.974,239.319" stroke-width="9.914" stroke="rgb(33,33,33)" fill="none" stroke-linecap="round"></path><path d="M 440.974,239.319 C 441.912,240.357 441.109,241.601 439.743,242.594" stroke-width="10.861" stroke="rgb(33,33,33)" fill="none" stroke-linecap="round"></path><path d="M 439.743,242.594 C 433.296,247.279 433.225,248.393 425.348,250.675" stroke-width="11.071" stroke="rgb(33,33,33)" fill="none" stroke-linecap="round"></path><path d="M 425.348,250.675 C 393.321,259.951 392.811,259.025 359.935,265.710" stroke-width="9.291" stroke="rgb(33,33,33)" fill="none" stroke-linecap="round"></path><path d="M 359.935,265.710 C 325.532,272.705 325.271,271.432 290.790,278.034" stroke-width="8.281" stroke="rgb(33,33,33)" fill="none" stroke-linecap="round"></path><path d="M 290.790,278.034 C 280.901,279.927 280.983,280.325 271.196,282.701" stroke-width="8.686" stroke="rgb(33,33,33)" fill="none" stroke-linecap="round"></path><path d="M 271.196,282.701 C 266.833,283.760 266.862,283.918 262.491,284.904" stroke-width="9.397" stroke="rgb(33,33,33)" fill="none" stroke-linecap="round"></path><path d="M 262.491,284.904 C 261.764,285.068 260.398,284.834 261.000,285.000" stroke-width="10.424" stroke="rgb(33,33,33)" fill="none" stroke-linecap="round"></path><path d="M 261.000,285.000 C 267.535,286.803 268.694,288.412 276.765,288.842" stroke-width="10.718" stroke="rgb(33,33,33)" fill="none" stroke-linecap="round"></path><path d="M 276.765,288.842 C 313.501,290.799 313.691,289.718 350.615,289.775" stroke-width="8.883" stroke="rgb(33,33,33)" fill="none" stroke-linecap="round"></path><path d="M 350.615,289.775 C 371.289,289.807 371.290,289.499 391.960,289.019" stroke-width="8.691" stroke="rgb(33,33,33)" fill="none" stroke-linecap="round"></path><path d="M 391.960,289.019 C 409.478,288.612 409.487,288.752 426.991,288.000" stroke-width="7.497" stroke="rgb(33,33,33)" fill="none" stroke-linecap="round"></path><path d="M 426.991,288.000 C 438.708,287.496 438.729,287.556 450.402,286.507" stroke-width="7.440" stroke="rgb(33,33,33)" fill="none" stroke-linecap="round"></path><path d="M 450.402,286.507 C 455.522,286.047 455.642,286.162 460.577,284.981" stroke-width="7.261" stroke="rgb(33,33,33)" fill="none" stroke-linecap="round"></path><path d="M 460.577,284.981 C 461.943,284.654 463.825,284.178 463.005,283.491" stroke-width="8.209" stroke="rgb(33,33,33)" fill="none" stroke-linecap="round"></path><path d="M 463.005,283.491 C 459.158,280.269 457.506,279.386 451.242,277.163" stroke-width="8.689" stroke="rgb(33,33,33)" fill="none" stroke-linecap="round"></path><path d="M 451.242,277.163 C 436.168,271.814 435.972,271.972 420.329,268.347" stroke-width="8.211" stroke="rgb(33,33,33)" fill="none" stroke-linecap="round"></path><path d="M 420.329,268.347 C 399.476,263.515 399.351,263.953 378.250,260.250" stroke-width="7.564" stroke="rgb(33,33,33)" fill="none" stroke-linecap="round"></path><path d="M 378.250,260.250 C 349.020,255.121 349.076,254.589 319.667,250.683" stroke-width="6.750" stroke="rgb(33,33,33)" fill="none" stroke-linecap="round"></path><path d="M 319.667,250.683 C 287.893,246.463 287.808,246.986 255.883,243.997" stroke-width="6.750" stroke="rgb(33,33,33)" fill="none" stroke-linecap="round"></path><path d="M 255.883,243.997 C 229.253,241.503 229.161,242.304 202.557,239.717" stroke-width="6.750" stroke="rgb(33,33,33)" fill="none" stroke-linecap="round"></path><path d="M 202.557,239.717 C 197.210,239.197 197.271,238.737 191.980,237.783" stroke-width="6.750" stroke="rgb(33,33,33)" fill="none" stroke-linecap="round"></path><path d="M 191.980,237.783 C 181.778,235.943 181.741,236.131 171.571,234.129" stroke-width="6.769" stroke="rgb(33,33,33)" fill="none" stroke-linecap="round"></path><path d="M 171.571,234.129 C 159.264,231.707 159.164,232.038 147.025,228.936" stroke-width="7.011" stroke="rgb(33,33,33)" fill="none" stroke-linecap="round"></path><path d="M 147.025,228.936 C 138.413,226.735 138.071,227.156 130.068,223.523" stroke-width="7.445" stroke="rgb(33,33,33)" fill="none" stroke-linecap="round"></path><path d="M 130.068,223.523 C 125.628,221.508 124.547,221.496 122.139,217.639" stroke-width="8.102" stroke="rgb(33,33,33)" fill="none" stroke-linecap="round"></path><path d="M 122.139,217.639 C 120.013,214.235 118.279,211.547 121.000,209.000" stroke-width="8.838" stroke="rgb(33,33,33)" fill="none" stroke-linecap="round"></path><path d="M 121.000,209.000 C 128.470,202.008 131.291,202.518 142.522,198.561" stroke-width="8.809" stroke="rgb(33,33,33)" fill="none" stroke-linecap="round"></path><path d="M 142.522,198.561 C 158.879,192.798 159.145,193.113 176.176,189.559" stroke-width="8.482" stroke="rgb(33,33,33)" fill="none" stroke-linecap="round"></path><path d="M 176.176,189.559 C 198.435,184.915 198.449,183.718 221.103,182.165" stroke-width="7.336" stroke="rgb(33,33,33)" fill="none" stroke-linecap="round"></path><path d="M 221.103,182.165 C 260.861,179.439 261.050,181.496 301.000,181.000" stroke-width="6.750" stroke="rgb(33,33,33)" fill="none" stroke-linecap="round"></path><path d="M 301.000,181.000 C 328.046,180.664 328.054,180.173 355.094,180.500" stroke-width="6.750" stroke="rgb(33,33,33)" fill="none" stroke-linecap="round"></path><path d="M 355.094,180.500 C 381.935,180.825 381.977,180.798 408.761,182.303" stroke-width="6.750" stroke="rgb(33,33,33)" fill="none" stroke-linecap="round"></path><path d="M 408.761,182.303 C 416.857,182.758 416.827,183.226 424.854,184.419" stroke-width="6.750" stroke="rgb(33,33,33)" fill="none" stroke-linecap="round"></path><path d="M 424.854,184.419 C 440.706,186.774 440.702,186.814 456.520,189.399" stroke-width="6.750" stroke="rgb(33,33,33)" fill="none" stroke-linecap="round"></path><path d="M 456.520,189.399 C 475.860,192.560 475.874,192.488 495.170,195.910" stroke-width="6.750" stroke="rgb(33,33,33)" fill="none" stroke-linecap="round"></path><path d="M 495.170,195.910 C 521.335,200.550 521.409,200.219 547.441,205.523" stroke-width="6.750" stroke="rgb(33,33,33)" fill="none" stroke-linecap="round"></path><path d="M 547.441,205.523 C 565.935,209.291 565.865,209.650 584.222,214.055" stroke-width="6.750" stroke="rgb(33,33,33)" fill="none" stroke-linecap="round"></path><path d="M 584.222,214.055 C 595.867,216.849 595.900,216.753 607.444,219.920" stroke-width="6.750" stroke="rgb(33,33,33)" fill="none" stroke-linecap="round"></path><path d="M 607.444,219.920 C 612.683,221.357 612.683,221.425 617.788,223.263" stroke-width="7.072" stroke="rgb(33,33,33)" fill="none" stroke-linecap="round"></path><path d="M 617.788,223.263 C 619.306,223.810 619.793,223.985 620.689,224.689" stroke-width="8.015" stroke="rgb(33,33,33)" fill="none" stroke-linecap="round"></path><path d="M 620.689,224.689 C 620.899,224.854 620.371,224.969 620.000,225.000" stroke-width="9.084" stroke="rgb(33,33,33)" fill="none" stroke-linecap="round"></path><path d="M 620.000,225.000 C 618.527,225.124 618.496,225.101 617.000,225.000" stroke-width="10.050" stroke="rgb(33,33,33)" fill="none" stroke-linecap="round"></path><path d="M 617.000,225.000 C 607.676,224.373 607.651,224.518 598.360,223.545" stroke-width="10.176" stroke="rgb(33,33,33)" fill="none" stroke-linecap="round"></path><path d="M 598.360,223.545 C 593.505,223.037 593.529,222.816 588.707,222.038" stroke-width="10.579" stroke="rgb(33,33,33)" fill="none" stroke-linecap="round"></path><path d="M 588.707,222.038 C 584.110,221.296 584.122,221.224 579.522,220.504" stroke-width="10.914" stroke="rgb(33,33,33)" fill="none" stroke-linecap="round"></path><path d="M 579.522,220.504 C 576.047,219.960 576.056,219.700 572.557,219.510" stroke-width="11.489" stroke="rgb(33,33,33)" fill="none" stroke-linecap="round"></path><path d="M 368.000,230.000 C 355.182,231.961 354.552,230.385 342.365,233.922" stroke-width="18.663" stroke="rgb(33,33,33)" fill="none" stroke-linecap="round"></path><path d="M 342.365,233.922 C 337.423,235.357 337.333,236.203 333.742,239.944" stroke-width="16.992" stroke="rgb(33,33,33)" fill="none" stroke-linecap="round"></path><path d="M 333.742,239.944 C 328.798,245.096 326.859,245.163 325.295,251.708" stroke-width="15.297" stroke="rgb(33,33,33)" fill="none" stroke-linecap="round"></path><path d="M 325.295,251.708 C 323.654,258.575 324.788,259.777 327.332,266.768" stroke-width="14.084" stroke="rgb(33,33,33)" fill="none" stroke-linecap="round"></path><path d="M 327.332,266.768 C 330.119,274.428 330.612,274.709 335.956,281.010" stroke-width="12.994" stroke="rgb(33,33,33)" fill="none" stroke-linecap="round"></path><path d="M 335.956,281.010 C 344.932,291.594 345.810,290.938 355.973,300.539" stroke-width="11.523" stroke="rgb(33,33,33)" fill="none" stroke-linecap="round"></path><path d="M 355.973,300.539 C 364.257,308.365 364.369,308.247 372.849,315.863" stroke-width="10.892" stroke="rgb(33,33,33)" fill="none" stroke-linecap="round"></path><path d="M 372.849,315.863 C 379.455,321.796 380.026,321.265 386.145,327.637" stroke-width="10.679" stroke="rgb(33,33,33)" fill="none" stroke-linecap="round"></path><path d="M 386.145,327.637 C 390.040,331.693 390.289,331.799 392.877,336.718" stroke-width="11.065" stroke="rgb(33,33,33)" fill="none" stroke-linecap="round"></path><path d="M 392.877,336.718 C 394.714,340.209 397.418,342.436 394.996,344.456" stroke-width="11.777" stroke="rgb(33,33,33)" fill="none" stroke-linecap="round"></path><path d="M 394.996,344.456 C 388.870,349.565 384.687,353.176 375.780,350.976" stroke-width="12.268" stroke="rgb(33,33,33)" fill="none" stroke-linecap="round"></path><path d="M 375.780,350.976 C 361.396,347.423 360.133,343.939 348.414,332.949" stroke-width="7.750" stroke="rgb(33,33,33)" fill="none" stroke-linecap="round"></path><path d="M 348.414,332.949 C 339.618,324.701 338.974,323.713 334.750,312.500" stroke-width="7.278" stroke="rgb(33,33,33)" fill="none" stroke-linecap="round"></path><path d="M 334.750,312.500 C 330.457,301.104 331.710,300.150 331.380,287.732" stroke-width="7.531" stroke="rgb(33,33,33)" fill="none" stroke-linecap="round"></path><path d="M 331.380,287.732 C 331.060,275.692 331.240,275.424 333.450,263.585" stroke-width="7.434" stroke="rgb(33,33,33)" fill="none" stroke-linecap="round"></path><path d="M 333.450,263.585 C 335.216,254.124 335.476,253.922 339.331,245.131" stroke-width="7.767" stroke="rgb(33,33,33)" fill="none" stroke-linecap="round"></path><path d="M 339.331,245.131 C 341.739,239.641 341.648,238.983 345.976,235.024" stroke-width="8.276" stroke="rgb(33,33,33)" fill="none" stroke-linecap="round"></path><path d="M 345.976,235.024 C 350.386,230.990 351.201,229.523 356.808,229.146" stroke-width="8.760" stroke="rgb(33,33,33)" fill="none" stroke-linecap="round"></path><path d="M 356.808,229.146 C 362.606,228.756 363.571,230.041 368.786,233.491" stroke-width="9.208" stroke="rgb(33,33,33)" fill="none" stroke-linecap="round"></path><path d="M 368.786,233.491 C 376.630,238.681 377.063,238.975 382.927,246.427" stroke-width="9.209" stroke="rgb(33,33,33)" fill="none" stroke-linecap="round"></path><path d="M 382.927,246.427 C 390.380,255.899 389.484,256.711 395.420,267.340" stroke-width="9.082" stroke="rgb(33,33,33)" fill="none" stroke-linecap="round"></path><path d="M 395.420,267.340 C 400.620,276.652 400.263,276.849 405.200,286.309" stroke-width="9.118" stroke="rgb(33,33,33)" fill="none" stroke-linecap="round"></path><path d="M 405.200,286.309 C 408.269,292.188 408.358,292.141 411.432,298.017" stroke-width="9.451" stroke="rgb(33,33,33)" fill="none" stroke-linecap="round"></path><path d="M 411.432,298.017 C 413.484,301.940 413.149,302.198 415.453,305.906" stroke-width="10.001" stroke="rgb(33,33,33)" fill="none" stroke-linecap="round"></path><path d="M 415.453,305.906 C 416.055,306.875 416.266,307.082 417.244,307.372" stroke-width="10.964" stroke="rgb(33,33,33)" fill="none" stroke-linecap="round"></path><path d="M 417.244,307.372 C 417.909,307.569 418.483,307.582 418.738,306.881" stroke-width="11.931" stroke="rgb(33,33,33)" fill="none" stroke-linecap="round"></path><path d="M 418.738,306.881 C 420.602,301.757 420.706,301.393 421.482,295.721" stroke-width="11.961" stroke="rgb(33,33,33)" fill="none" stroke-linecap="round"></path><path d="M 421.482,295.721 C 422.654,287.160 422.098,287.070 422.634,278.414" stroke-width="11.516" stroke="rgb(33,33,33)" fill="none" stroke-linecap="round"></path><path d="M 422.634,278.414 C 423.041,271.829 422.727,271.797 423.368,265.239" stroke-width="11.492" stroke="rgb(33,33,33)" fill="none" stroke-linecap="round"></path><path d="M 423.368,265.239 C 423.796,260.864 423.870,260.845 424.772,256.549" stroke-width="11.928" stroke="rgb(33,33,33)" fill="none" stroke-linecap="round"></path><path d="M 424.772,256.549 C 425.132,254.834 424.856,254.097 425.891,253.217" stroke-width="12.710" stroke="rgb(33,33,33)" fill="none" stroke-linecap="round"></path><path d="M 425.891,253.217 C 426.592,252.620 427.401,252.835 428.244,253.595" stroke-width="13.461" stroke="rgb(33,33,33)" fill="none" stroke-linecap="round"></path><path d="M 428.244,253.595 C 431.059,256.133 431.261,256.383 433.208,259.813" stroke-width="13.526" stroke="rgb(33,33,33)" fill="none" stroke-linecap="round"></path><path d="M 433.208,259.813 C 435.992,264.718 435.435,265.049 437.706,270.265" stroke-width="12.979" stroke="rgb(33,33,33)" fill="none" stroke-linecap="round"></path><path d="M 437.706,270.265 C 438.978,273.187 438.899,273.237 440.294,276.089" stroke-width="13.208" stroke="rgb(33,33,33)" fill="none" stroke-linecap="round"></path><path d="M 440.294,276.089 C 440.546,276.605 440.871,277.199 441.000,277.000" stroke-width="14.081" stroke="rgb(33,33,33)" fill="none" stroke-linecap="round"></path><path d="M 441.000,277.000 C 441.224,276.655 441.061,275.998 441.000,275.000" stroke-width="14.705" stroke="rgb(33,33,33)" fill="none" stroke-linecap="round"></path><path d="M 441.000,275.000 C 440.563,267.847 440.740,267.825 440.004,260.698" stroke-width="13.772" stroke="rgb(33,33,33)" fill="none" stroke-linecap="round"></path><path d="M 440.004,260.698 C 439.086,251.808 438.765,251.841 437.691,242.965" stroke-width="12.943" stroke="rgb(33,33,33)" fill="none" stroke-linecap="round"></path><path d="M 437.691,242.965 C 436.913,236.541 436.846,236.542 436.300,230.097" stroke-width="12.946" stroke="rgb(33,33,33)" fill="none" stroke-linecap="round"></path><path d="M 436.300,230.097 C 436.000,226.560 436.131,226.549 436.000,223.000" stroke-width="13.358" stroke="rgb(33,33,33)" fill="none" stroke-linecap="round"></path><path d="M 436.000,223.000 C 435.981,222.500 435.832,221.564 436.000,222.000" stroke-width="14.004" stroke="rgb(33,33,33)" fill="none" stroke-linecap="round"></path><path d="M 436.000,222.000 C 440.832,234.564 441.293,235.403 446.000,249.000" stroke-width="12.897" stroke="rgb(33,33,33)" fill="none" stroke-linecap="round"></path><path d="M 446.000,249.000 C 448.036,254.883 447.518,255.057 449.486,260.960" stroke-width="12.483" stroke="rgb(33,33,33)" fill="none" stroke-linecap="round"></path><path d="M 449.486,260.960 C 450.904,265.213 451.041,265.174 452.771,269.313" stroke-width="12.630" stroke="rgb(33,33,33)" fill="none" stroke-linecap="round"></path><path d="M 452.771,269.313 C 453.571,271.228 453.484,271.511 454.546,273.068" stroke-width="13.222" stroke="rgb(33,33,33)" fill="none" stroke-linecap="round"></path><path d="M 454.546,273.068 C 454.731,273.340 455.113,273.284 455.265,272.971" stroke-width="14.128" stroke="rgb(33,33,33)" fill="none" stroke-linecap="round"></path><path d="M 455.265,272.971 C 456.894,269.611 457.340,269.516 458.107,265.722" stroke-width="14.024" stroke="rgb(33,33,33)" fill="none" stroke-linecap="round"></path><path d="M 458.107,265.722 C 460.098,255.873 459.981,255.749 460.781,245.686" stroke-width="12.594" stroke="rgb(33,33,33)" fill="none" stroke-linecap="round"></path><path d="M 460.781,245.686 C 461.701,234.120 461.324,234.077 461.548,222.464" stroke-width="11.508" stroke="rgb(33,33,33)" fill="none" stroke-linecap="round"></path><path d="M 461.548,222.464 C 461.684,215.413 461.514,215.411 461.500,208.358" stroke-width="11.351" stroke="rgb(33,33,33)" fill="none" stroke-linecap="round"></path><path d="M 461.500,208.358 C 461.490,203.585 461.500,203.585 461.500,198.812" stroke-width="11.641" stroke="rgb(33,33,33)" fill="none" stroke-linecap="round"></path><path d="M 461.500,198.812 C 461.500,197.748 461.500,196.893 461.500,196.684" stroke-width="12.526" stroke="rgb(33,33,33)" fill="none" stroke-linecap="round"></path><path d="M 461.500,196.684 C 461.500,196.544 461.383,197.409 461.500,198.113" stroke-width="13.409" stroke="rgb(33,33,33)" fill="none" stroke-linecap="round"></path><path d="M 461.500,198.113 C 463.517,210.263 463.353,210.309 465.767,222.393" stroke-width="11.925" stroke="rgb(33,33,33)" fill="none" stroke-linecap="round"></path><path d="M 465.767,222.393 C 468.522,236.189 468.404,236.234 471.838,249.874" stroke-width="10.918" stroke="rgb(33,33,33)" fill="none" stroke-linecap="round"></path><path d="M 471.838,249.874 C 474.899,262.033 474.984,262.032 478.756,273.990" stroke-width="10.138" stroke="rgb(33,33,33)" fill="none" stroke-linecap="round"></path><path d="M 478.756,273.990 C 481.735,283.434 481.482,283.589 485.340,292.679" stroke-width="10.278" stroke="rgb(33,33,33)" fill="none" stroke-linecap="round"></path><path d="M 485.340,292.679 C 487.661,298.149 487.034,299.395 491.115,303.110" stroke-width="10.772" stroke="rgb(33,33,33)" fill="none" stroke-linecap="round"></path><path d="M 491.115,303.110 C 494.064,305.795 496.914,307.559 499.400,305.480" stroke-width="11.576" stroke="rgb(33,33,33)" fill="none" stroke-linecap="round"></path><path d="M 499.400,305.480 C 503.531,302.026 503.481,299.049 504.349,292.044" stroke-width="10.082" stroke="rgb(33,33,33)" fill="none" stroke-linecap="round"></path><path d="M 504.349,292.044 C 505.964,279.010 505.344,278.654 504.367,265.401" stroke-width="8.655" stroke="rgb(33,33,33)" fill="none" stroke-linecap="round"></path><path d="M 504.367,265.401 C 503.261,250.406 503.920,250.066 500.182,235.547" stroke-width="8.186" stroke="rgb(33,33,33)" fill="none" stroke-linecap="round"></path><path d="M 500.182,235.547 C 495.720,218.218 494.120,218.609 487.966,201.704" stroke-width="7.703" stroke="rgb(33,33,33)" fill="none" stroke-linecap="round"></path><path d="M 487.966,201.704 C 483.046,188.188 482.917,188.234 478.034,174.706" stroke-width="7.666" stroke="rgb(33,33,33)" fill="none" stroke-linecap="round"></path><path d="M 478.034,174.706 C 476.152,169.491 476.419,169.387 474.435,164.217" stroke-width="8.372" stroke="rgb(33,33,33)" fill="none" stroke-linecap="round"></path><path d="M 474.435,164.217 C 473.415,161.559 473.069,160.857 472.025,159.050" stroke-width="9.178" stroke="rgb(33,33,33)" fill="none" stroke-linecap="round"></path><path d="M 472.025,159.050 C 471.851,158.749 471.873,159.543 472.000,160.000" stroke-width="10.258" stroke="rgb(33,33,33)" fill="none" stroke-linecap="round"></path><path d="M 472.000,160.000 C 475.151,171.314 475.277,171.300 478.582,182.592" stroke-width="9.457" stroke="rgb(33,33,33)" fill="none" stroke-linecap="round"></path><path d="M 478.582,182.592 C 483.162,198.240 483.198,198.229 487.769,213.879" stroke-width="8.625" stroke="rgb(33,33,33)" fill="none" stroke-linecap="round"></path><path d="M 487.769,213.879 C 493.017,231.847 492.889,231.886 498.221,249.829" stroke-width="7.953" stroke="rgb(33,33,33)" fill="none" stroke-linecap="round"></path><path d="M 498.221,249.829 C 503.694,268.246 503.464,268.324 509.380,286.599" stroke-width="7.452" stroke="rgb(33,33,33)" fill="none" stroke-linecap="round"></path><path d="M 509.380,286.599 C 514.266,301.695 514.142,301.771 519.825,316.572" stroke-width="7.309" stroke="rgb(33,33,33)" fill="none" stroke-linecap="round"></path><path d="M 519.825,316.572 C 522.588,323.768 522.531,323.884 526.271,330.593" stroke-width="7.760" stroke="rgb(33,33,33)" fill="none" stroke-linecap="round"></path><path d="M 526.271,330.593 C 528.799,335.127 528.555,336.331 532.361,339.059" stroke-width="8.426" stroke="rgb(33,33,33)" fill="none" stroke-linecap="round"></path><path d="M 532.361,339.059 C 534.419,340.534 536.053,340.656 538.000,339.000" stroke-width="9.213" stroke="rgb(33,33,33)" fill="none" stroke-linecap="round"></path><path d="M 538.000,339.000 C 542.682,335.017 543.263,334.037 545.619,327.780" stroke-width="9.602" stroke="rgb(33,33,33)" fill="none" stroke-linecap="round"></path><path d="M 545.619,327.780 C 550.283,315.394 550.414,314.957 552.041,301.714" stroke-width="9.110" stroke="rgb(33,33,33)" fill="none" stroke-linecap="round"></path><path d="M 552.041,301.714 C 553.979,285.942 553.967,285.627 552.750,269.750" stroke-width="8.601" stroke="rgb(33,33,33)" fill="none" stroke-linecap="round"></path><path d="M 552.750,269.750 C 551.238,250.036 550.083,250.066 546.583,230.532" stroke-width="7.939" stroke="rgb(33,33,33)" fill="none" stroke-linecap="round"></path><path d="M 546.583,230.532 C 543.208,211.691 543.733,211.512 539.000,193.000" stroke-width="7.525" stroke="rgb(33,33,33)" fill="none" stroke-linecap="round"></path><path d="M 539.000,193.000 C 535.898,180.866 535.389,180.944 530.914,169.241" stroke-width="7.594" stroke="rgb(33,33,33)" fill="none" stroke-linecap="round"></path><path d="M 530.914,169.241 C 528.889,163.944 528.564,164.059 526.000,159.000" stroke-width="8.209" stroke="rgb(33,33,33)" fill="none" stroke-linecap="round"></path><path d="M 526.000,159.000 C 525.569,158.150 525.171,156.783 524.923,157.423" stroke-width="9.227" stroke="rgb(33,33,33)" fill="none" stroke-linecap="round"></path><path d="M 524.923,157.423 C 523.730,160.504 523.220,161.868 523.118,166.441" stroke-width="9.779" stroke="rgb(33,33,33)" fill="none" stroke-linecap="round"></path><path d="M 523.118,166.441 C 522.826,179.518 522.652,179.683 524.136,192.722" stroke-width="9.266" stroke="rgb(33,33,33)" fill="none" stroke-linecap="round"></path><path d="M 524.136,192.722 C 526.110,210.066 526.924,209.993 530.034,227.206" stroke-width="8.581" stroke="rgb(33,33,33)" fill="none" stroke-linecap="round"></path><path d="M 530.034,227.206 C 533.503,246.404 532.706,246.609 537.293,265.544" stroke-width="7.862" stroke="rgb(33,33,33)" fill="none" stroke-linecap="round"></path><path d="M 537.293,265.544 C 541.525,283.012 542.115,282.898 547.671,300.012" stroke-width="7.545" stroke="rgb(33,33,33)" fill="none" stroke-linecap="round"></path><path d="M 547.671,300.012 C 551.977,313.274 551.540,313.554 557.017,326.296" stroke-width="7.621" stroke="rgb(33,33,33)" fill="none" stroke-linecap="round"></path><path d="M 557.017,326.296 C 559.025,330.967 559.207,331.175 562.640,334.838" stroke-width="8.279" stroke="rgb(33,33,33)" fill="none" stroke-linecap="round"></path><path d="M 562.640,334.838 C 565.389,337.771 566.192,339.933 569.381,339.489" stroke-width="8.987" stroke="rgb(33,33,33)" fill="none" stroke-linecap="round"></path><path d="M 569.381,339.489 C 573.220,338.955 574.620,337.198 576.697,332.882" stroke-width="9.614" stroke="rgb(33,33,33)" fill="none" stroke-linecap="round"></path><path d="M 576.697,332.882 C 582.090,321.675 582.247,320.972 584.320,308.443" stroke-width="9.512" stroke="rgb(33,33,33)" fill="none" stroke-linecap="round"></path><path d="M 584.320,308.443 C 586.826,293.298 586.140,292.975 585.855,277.535" stroke-width="9.085" stroke="rgb(33,33,33)" fill="none" stroke-linecap="round"></path><path d="M 585.855,277.535 C 585.517,259.168 585.568,259.029 583.074,240.828" stroke-width="8.288" stroke="rgb(33,33,33)" fill="none" stroke-linecap="round"></path><path d="M 583.074,240.828 C 580.697,223.485 580.133,223.509 576.112,206.448" stroke-width="8.387" stroke="rgb(33,33,33)" fill="none" stroke-linecap="round"></path><path d="M 576.112,206.448 C 572.846,192.594 572.697,192.597 568.500,178.999" stroke-width="7.643" stroke="rgb(33,33,33)" fill="none" stroke-linecap="round"></path><path d="M 568.500,178.999 C 566.294,171.852 566.192,171.850 563.306,164.958" stroke-width="7.813" stroke="rgb(33,33,33)" fill="none" stroke-linecap="round"></path><path d="M 563.306,164.958 C 561.883,161.559 562.143,160.911 559.881,158.416" stroke-width="8.411" stroke="rgb(33,33,33)" fill="none" stroke-linecap="round"></path><path d="M 559.881,158.416 C 558.990,157.432 557.849,157.178 557.000,158.000" stroke-width="9.328" stroke="rgb(33,33,33)" fill="none" stroke-linecap="round"></path><path d="M 557.000,158.000 C 555.342,159.604 555.005,160.459 554.866,163.268" stroke-width="10.142" stroke="rgb(33,33,33)" fill="none" stroke-linecap="round"></path><path d="M 554.866,163.268 C 554.135,178.067 553.967,178.336 555.261,193.215" stroke-width="9.325" stroke="rgb(33,33,33)" fill="none" stroke-linecap="round"></path><path d="M 555.261,193.215 C 556.598,208.588 556.859,208.669 560.129,223.773" stroke-width="8.799" stroke="rgb(33,33,33)" fill="none" stroke-linecap="round"></path><path d="M 560.129,223.773 C 564.455,243.757 565.422,243.549 570.452,263.391" stroke-width="7.828" stroke="rgb(33,33,33)" fill="none" stroke-linecap="round"></path><path d="M 570.452,263.391 C 574.999,281.326 574.169,281.563 579.284,299.328" stroke-width="7.486" stroke="rgb(33,33,33)" fill="none" stroke-linecap="round"></path><path d="M 579.284,299.328 C 583.720,314.735 583.895,314.736 589.555,329.734" stroke-width="7.443" stroke="rgb(33,33,33)" fill="none" stroke-linecap="round"></path><path d="M 589.555,329.734 C 592.898,338.592 592.682,338.913 597.291,347.040" stroke-width="7.749" stroke="rgb(33,33,33)" fill="none" stroke-linecap="round"></path><path d="M 597.291,347.040 C 598.788,349.679 599.098,350.049 601.766,351.266" stroke-width="8.569" stroke="rgb(33,33,33)" fill="none" stroke-linecap="round"></path><path d="M 601.766,351.266 C 604.801,352.651 606.664,354.509 608.697,352.244" stroke-width="9.320" stroke="rgb(33,33,33)" fill="none" stroke-linecap="round"></path><path d="M 608.697,352.244 C 615.249,344.945 615.786,342.808 618.935,332.139" stroke-width="9.189" stroke="rgb(33,33,33)" fill="none" stroke-linecap="round"></path><path d="M 618.935,332.139 C 622.764,319.165 622.293,318.609 622.654,304.958" stroke-width="8.859" stroke="rgb(33,33,33)" fill="none" stroke-linecap="round"></path><path d="M 622.654,304.958 C 623.134,286.767 622.712,286.585 620.617,268.456" stroke-width="8.048" stroke="rgb(33,33,33)" fill="none" stroke-linecap="round"></path><path d="M 620.617,268.456 C 618.317,248.553 618.482,248.379 613.864,228.894" stroke-width="7.616" stroke="rgb(33,33,33)" fill="none" stroke-linecap="round"></path><path d="M 613.864,228.894 C 609.414,210.119 608.901,210.148 602.481,191.936" stroke-width="7.205" stroke="rgb(33,33,33)" fill="none" stroke-linecap="round"></path><path d="M 602.481,191.936 C 598.508,180.665 598.291,180.665 593.079,169.928" stroke-width="7.370" stroke="rgb(33,33,33)" fill="none" stroke-linecap="round"></path><path d="M 593.079,169.928 C 590.740,165.109 590.888,164.556 587.378,160.825" stroke-width="8.022" stroke="rgb(33,33,33)" fill="none" stroke-linecap="round"></path><path d="M 587.378,160.825 C 585.882,159.235 584.505,158.114 583.067,159.287" stroke-width="8.895" stroke="rgb(33,33,33)" fill="none" stroke-linecap="round"></path><path d="M 583.067,159.287 C 579.635,162.086 578.460,163.496 577.638,168.768" stroke-width="9.419" stroke="rgb(33,33,33)" fill="none" stroke-linecap="round"></path><path d="M 577.638,168.768 C 575.321,183.625 576.074,184.202 576.789,199.545" stroke-width="8.952" stroke="rgb(33,33,33)" fill="none" stroke-linecap="round"></path><path d="M 576.789,199.545 C 577.647,217.976 578.123,218.025 580.784,236.315" stroke-width="8.510" stroke="rgb(33,33,33)" fill="none" stroke-linecap="round"></path><path d="M 580.784,236.315 C 583.827,257.230 584.097,257.213 588.199,277.955" stroke-width="7.785" stroke="rgb(33,33,33)" fill="none" stroke-linecap="round"></path><path d="M 588.199,277.955 C 591.863,296.482 591.501,296.610 596.315,314.853" stroke-width="7.560" stroke="rgb(33,33,33)" fill="none" stroke-linecap="round"></path><path d="M 596.315,314.853 C 599.804,328.074 599.701,328.229 604.806,340.882" stroke-width="7.696" stroke="rgb(33,33,33)" fill="none" stroke-linecap="round"></path><path d="M 604.806,340.882 C 608.359,349.689 608.448,349.898 613.631,357.772" stroke-width="8.115" stroke="rgb(33,33,33)" fill="none" stroke-linecap="round"></path><path d="M 613.631,357.772 C 616.100,361.523 616.313,362.337 620.110,364.132" stroke-width="8.973" stroke="rgb(33,33,33)" fill="none" stroke-linecap="round"></path><path d="M 620.110,364.132 C 622.967,365.482 624.762,366.219 626.939,364.061" stroke-width="9.453" stroke="rgb(33,33,33)" fill="none" stroke-linecap="round"></path><path d="M 626.939,364.061 C 632.743,358.308 633.458,356.873 636.072,348.311" stroke-width="8.890" stroke="rgb(33,33,33)" fill="none" stroke-linecap="round"></path><path d="M 636.072,348.311 C 640.167,334.899 640.089,334.281 640.356,320.113" stroke-width="7.810" stroke="rgb(33,33,33)" fill="none" stroke-linecap="round"></path><path d="M 640.356,320.113 C 640.723,300.661 639.868,300.461 637.341,281.071" stroke-width="6.919" stroke="rgb(33,33,33)" fill="none" stroke-linecap="round"></path><path d="M 637.341,281.071 C 634.643,260.372 634.515,260.301 629.907,239.935" stroke-width="6.750" stroke="rgb(33,33,33)" fill="none" stroke-linecap="round"></path><path d="M 629.907,239.935 C 625.355,219.816 625.150,219.800 619.021,200.101" stroke-width="6.750" stroke="rgb(33,33,33)" fill="none" stroke-linecap="round"></path><path d="M 619.021,200.101 C 614.363,185.128 614.333,185.033 608.332,170.591" stroke-width="6.750" stroke="rgb(33,33,33)" fill="none" stroke-linecap="round"></path><path d="M 608.332,170.591 C 606.466,166.100 606.007,166.269 603.286,162.235" stroke-width="7.295" stroke="rgb(33,33,33)" fill="none" stroke-linecap="round"></path><path d="M 603.286,162.235 C 602.112,160.495 601.577,158.221 600.542,159.043" stroke-width="8.215" stroke="rgb(33,33,33)" fill="none" stroke-linecap="round"></path><path d="M 600.542,159.043 C 598.245,160.867 597.339,162.967 596.623,167.526" stroke-width="8.783" stroke="rgb(33,33,33)" fill="none" stroke-linecap="round"></path><path d="M 596.623,167.526 C 594.414,181.598 594.258,181.942 594.692,196.304" stroke-width="8.563" stroke="rgb(33,33,33)" fill="none" stroke-linecap="round"></path><path d="M 594.692,196.304 C 595.247,214.678 596.279,214.697 598.600,232.998" stroke-width="7.931" stroke="rgb(33,33,33)" fill="none" stroke-linecap="round"></path><path d="M 598.600,232.998 C 601.099,252.706 600.552,252.837 604.332,272.321" stroke-width="7.544" stroke="rgb(33,33,33)" fill="none" stroke-linecap="round"></path><path d="M 604.332,272.321 C 608.159,292.045 608.636,291.986 613.814,311.415" stroke-width="7.105" stroke="rgb(33,33,33)" fill="none" stroke-linecap="round"></path><path d="M 613.814,311.415 C 617.933,326.870 617.131,327.332 622.927,342.089" stroke-width="7.089" stroke="rgb(33,33,33)" fill="none" stroke-linecap="round"></path><path d="M 622.927,342.089 C 625.284,348.089 625.960,348.040 630.120,352.929" stroke-width="7.648" stroke="rgb(33,33,33)" fill="none" stroke-linecap="round"></path><path d="M 630.120,352.929 C 632.387,355.594 632.700,357.319 635.782,357.198" stroke-width="8.448" stroke="rgb(33,33,33)" fill="none" stroke-linecap="round"></path><path d="M 635.782,357.198 C 640.973,356.994 642.899,356.585 646.665,352.279" stroke-width="8.933" stroke="rgb(33,33,33)" fill="none" stroke-linecap="round"></path><path d="M 646.665,352.279 C 654.645,343.155 655.962,342.253 659.275,330.339" stroke-width="8.691" stroke="rgb(33,33,33)" fill="none" stroke-linecap="round"></path><path d="M 659.275,330.339 C 663.827,313.966 662.328,313.034 662.395,295.705" stroke-width="8.105" stroke="rgb(33,33,33)" fill="none" stroke-linecap="round"></path><path d="M 662.395,295.705 C 662.470,276.360 662.776,276.046 659.558,256.990" stroke-width="7.699" stroke="rgb(33,33,33)" fill="none" stroke-linecap="round"></path><path d="M 659.558,256.990 C 656.238,237.329 655.345,237.340 649.318,218.271" stroke-width="7.135" stroke="rgb(33,33,33)" fill="none" stroke-linecap="round"></path><path d="M 649.318,218.271 C 644.131,201.862 643.913,201.844 637.130,186.035" stroke-width="7.097" stroke="rgb(33,33,33)" fill="none" stroke-linecap="round"></path><path d="M 637.130,186.035 C 633.185,176.840 632.922,176.879 627.861,168.263" stroke-width="7.517" stroke="rgb(33,33,33)" fill="none" stroke-linecap="round"></path><path d="M 627.861,168.263 C 625.701,164.586 625.778,164.052 622.688,161.450" stroke-width="8.265" stroke="rgb(33,33,33)" fill="none" stroke-linecap="round"></path><path d="M 622.688,161.450 C 621.279,160.263 619.779,159.319 618.862,160.684" stroke-width="9.200" stroke="rgb(33,33,33)" fill="none" stroke-linecap="round"></path><path d="M 618.862,160.684 C 615.490,165.704 615.103,167.190 614.110,174.221" stroke-width="9.734" stroke="rgb(33,33,33)" fill="none" stroke-linecap="round"></path><path d="M 614.110,174.221 C 612.204,187.711 612.392,188.018 613.063,201.726" stroke-width="9.888" stroke="rgb(33,33,33)" fill="none" stroke-linecap="round"></path><path d="M 613.063,201.726 C 613.981,220.482 614.370,220.562 617.287,239.150" stroke-width="6.750" stroke="rgb(33,33,33)" fill="none" stroke-linecap="round"></path><path d="M 617.287,239.150 C 620.715,260.988 620.878,261.010 625.753,282.578" stroke-width="6.750" stroke="rgb(33,33,33)" fill="none" stroke-linecap="round"></path><path d="M 625.753,282.578 C 630.228,302.377 630.491,302.338 635.987,321.883" stroke-width="6.750" stroke="rgb(33,33,33)" fill="none" stroke-linecap="round"></path><path d="M 635.987,321.883 C 640.197,336.852 639.614,337.181 645.165,351.605" stroke-width="6.750" stroke="rgb(33,33,33)" fill="none" stroke-linecap="round"></path><path d="M 645.165,351.605 C 647.207,356.911 647.643,356.927 651.174,361.343" stroke-width="6.750" stroke="rgb(33,33,33)" fill="none" stroke-linecap="round"></path><path d="M 651.174,361.343 C 653.381,364.104 654.175,366.681 656.641,365.958" stroke-width="6.750" stroke="rgb(33,33,33)" fill="none" stroke-linecap="round"></path><path d="M 656.641,365.958 C 660.328,364.877 661.727,362.653 663.480,357.736" stroke-width="7.212" stroke="rgb(33,33,33)" fill="none" stroke-linecap="round"></path><path d="M 663.480,357.736 C 667.953,345.188 668.595,344.523 669.093,331.027" stroke-width="7.265" stroke="rgb(33,33,33)" fill="none" stroke-linecap="round"></path><path d="M 669.093,331.027 C 669.789,312.167 668.554,311.875 665.868,293.024" stroke-width="6.967" stroke="rgb(33,33,33)" fill="none" stroke-linecap="round"></path><path d="M 665.868,293.024 C 662.938,272.454 663.121,272.275 657.861,252.184" stroke-width="6.750" stroke="rgb(33,33,33)" fill="none" stroke-linecap="round"></path><path d="M 657.861,252.184 C 652.653,232.294 652.378,232.238 644.932,213.062" stroke-width="6.750" stroke="rgb(33,33,33)" fill="none" stroke-linecap="round"></path><path d="M 644.932,213.062 C 638.304,195.995 637.942,196.041 629.713,179.697" stroke-width="6.750" stroke="rgb(33,33,33)" fill="none" stroke-linecap="round"></path><path d="M 629.713,179.697 C 626.718,173.748 626.456,173.792 622.484,168.475" stroke-width="7.095" stroke="rgb(33,33,33)" fill="none" stroke-linecap="round"></path><path d="M 622.484,168.475 C 620.770,166.181 619.711,163.292 618.342,164.474" stroke-width="7.938" stroke="rgb(33,33,33)" fill="none" stroke-linecap="round"></path><path d="M 618.342,164.474 C 615.443,166.977 614.443,169.869 613.947,175.846" stroke-width="8.462" stroke="rgb(33,33,33)" fill="none" stroke-linecap="round"></path><path d="M 613.947,175.846 C 612.707,190.792 613.055,191.228 614.871,206.320" stroke-width="8.254" stroke="rgb(33,33,33)" fill="none" stroke-linecap="round"></path><path d="M 614.871,206.320 C 617.466,227.881 617.969,227.928 622.769,249.152" stroke-width="7.652" stroke="rgb(33,33,33)" fill="none" stroke-linecap="round"></path><path d="M 622.769,249.152 C 627.684,270.883 627.612,270.985 634.300,292.230" stroke-width="7.267" stroke="rgb(33,33,33)" fill="none" stroke-linecap="round"></path><path d="M 634.300,292.230 C 640.110,310.684 639.996,310.875 647.765,328.550" stroke-width="7.189" stroke="rgb(33,33,33)" fill="none" stroke-linecap="round"></path><path d="M 647.765,328.550 C 652.131,338.484 651.910,339.127 658.571,347.448" stroke-width="7.430" stroke="rgb(33,33,33)" fill="none" stroke-linecap="round"></path><path d="M 658.571,347.448 C 662.476,352.326 663.385,354.191 668.897,354.948" stroke-width="7.973" stroke="rgb(33,33,33)" fill="none" stroke-linecap="round"></path><path d="M 668.897,354.948 C 674.024,355.652 676.739,354.922 679.848,350.369" stroke-width="8.507" stroke="rgb(33,33,33)" fill="none" stroke-linecap="round"></path><path d="M 679.848,350.369 C 686.749,340.265 687.461,338.457 688.918,325.634" stroke-width="8.503" stroke="rgb(33,33,33)" fill="none" stroke-linecap="round"></path><path d="M 688.918,325.634 C 690.944,307.804 689.689,307.072 686.813,289.063" stroke-width="8.648" stroke="rgb(33,33,33)" fill="none" stroke-linecap="round"></path><path d="M 686.813,289.063 C 683.424,267.839 683.091,267.628 676.389,247.169" stroke-width="8.011" stroke="rgb(33,33,33)" fill="none" stroke-linecap="round"></path><path d="M 676.389,247.169 C 669.632,226.540 669.491,226.350 659.894,206.887" stroke-width="6.750" stroke="rgb(33,33,33)" fill="none" stroke-linecap="round"></path><path d="M 659.894,206.887 C 652.038,190.953 651.812,190.765 641.483,176.376" stroke-width="6.750" stroke="rgb(33,33,33)" fill="none" stroke-linecap="round"></path><path d="M 641.483,176.376 C 635.921,168.628 635.913,167.572 628.112,162.612" stroke-width="6.750" stroke="rgb(33,33,33)" fill="none" stroke-linecap="round"></path><path d="M 628.112,162.612 C 622.267,158.896 620.978,158.788 614.191,159.024" stroke-width="6.750" stroke="rgb(33,33,33)" fill="none" stroke-linecap="round"></path><path d="M 614.191,159.024 C 609.114,159.201 606.444,158.987 604.384,163.438" stroke-width="7.266" stroke="rgb(33,33,33)" fill="none" stroke-linecap="round"></path><path d="M 604.384,163.438 C 598.818,175.467 598.610,177.761 598.940,191.984" stroke-width="7.251" stroke="rgb(33,33,33)" fill="none" stroke-linecap="round"></path><path d="M 598.940,191.984 C 599.293,207.167 600.259,207.859 605.750,222.250" stroke-width="7.234" stroke="rgb(33,33,33)" fill="none" stroke-linecap="round"></path><path d="M 605.750,222.250 C 613.780,243.295 614.780,243.172 625.983,262.856" stroke-width="6.811" stroke="rgb(33,33,33)" fill="none" stroke-linecap="round"></path><path d="M 625.983,262.856 C 636.905,282.047 635.820,283.233 650.000,300.000" stroke-width="6.750" stroke="rgb(33,33,33)" fill="none" stroke-linecap="round"></path><path d="M 650.000,300.000 C 666.320,319.297 668.512,317.471 686.984,334.984" stroke-width="6.750" stroke="rgb(33,33,33)" fill="none" stroke-linecap="round"></path><path d="M 686.984,334.984 C 698.254,345.669 698.451,345.473 709.485,356.396" stroke-width="6.750" stroke="rgb(33,33,33)" fill="none" stroke-linecap="round"></path><path d="M 709.485,356.396 C 716.767,363.604 718.897,362.944 723.615,371.246" stroke-width="6.750" stroke="rgb(33,33,33)" fill="none" stroke-linecap="round"></path><path d="M 723.615,371.246 C 725.750,375.003 726.145,377.525 723.192,380.514" stroke-width="7.487" stroke="rgb(33,33,33)" fill="none" stroke-linecap="round"></path><path d="M 723.192,380.514 C 715.379,388.424 713.895,391.482 702.084,393.044" stroke-width="7.634" stroke="rgb(33,33,33)" fill="none" stroke-linecap="round"></path><path d="M 702.084,393.044 C 669.891,397.302 668.631,392.739 635.183,392.155" stroke-width="6.750" stroke="rgb(33,33,33)" fill="none" stroke-linecap="round"></path><path d="M 635.183,392.155 C 597.833,391.502 597.827,391.627 560.487,390.570" stroke-width="6.750" stroke="rgb(33,33,33)" fill="none" stroke-linecap="round"></path><path d="M 560.487,390.570 C 529.040,389.680 528.994,390.085 497.608,388.260" stroke-width="6.750" stroke="rgb(33,33,33)" fill="none" stroke-linecap="round"></path><path d="M 497.608,388.260 C 487.025,387.645 486.958,387.692 476.548,385.689" stroke-width="6.750" stroke="rgb(33,33,33)" fill="none" stroke-linecap="round"></path><path d="M 476.548,385.689 C 438.646,378.398 438.531,378.455 400.984,369.673" stroke-width="6.750" stroke="rgb(33,33,33)" fill="none" stroke-linecap="round"></path><path d="M 400.984,369.673 C 395.729,368.444 395.752,368.090 390.944,365.667" stroke-width="6.750" stroke="rgb(33,33,33)" fill="none" stroke-linecap="round"></path><path d="M 390.944,365.667 C 386.290,363.321 386.369,363.093 382.060,360.135" stroke-width="6.750" stroke="rgb(33,33,33)" fill="none" stroke-linecap="round"></path><path d="M 382.060,360.135 C 378.395,357.619 377.656,358.097 374.995,354.719" stroke-width="6.984" stroke="rgb(33,33,33)" fill="none" stroke-linecap="round"></path><path d="M 374.995,354.719 C 372.553,351.619 371.784,350.920 371.853,347.178" stroke-width="7.704" stroke="rgb(33,33,33)" fill="none" stroke-linecap="round"></path><path d="M 371.853,347.178 C 371.922,343.418 372.022,341.856 375.271,339.715" stroke-width="8.459" stroke="rgb(33,33,33)" fill="none" stroke-linecap="round"></path><path d="M 375.271,339.715 C 384.599,333.566 385.775,333.934 397.007,330.598" stroke-width="8.335" stroke="rgb(33,33,33)" fill="none" stroke-linecap="round"></path><path d="M 397.007,330.598 C 408.424,327.208 408.675,327.061 420.570,326.263" stroke-width="8.453" stroke="rgb(33,33,33)" fill="none" stroke-linecap="round"></path></svg>