<svg xmlns="http://www.w3.org/2000/svg" xmlns:xlink="http://www.w3.org/1999/xlink" viewBox="0 0 375 500"><path d="M 321.000,139.000 C 305.500,134.000 305.858,132.398 290.000,129.000" stroke-width="14.118" stroke="rgb(33,33,33)" fill="none" stroke-linecap="round"></path><path d="M 290.000,129.000 C 270.858,124.898 270.580,125.557 251.000,124.000" stroke-width="9.490" stroke="rgb(33,33,33)" fill="none" stroke-linecap="round"></path><path d="M 251.000,124.000 C 226.580,122.057 226.511,122.481 202.000,122.000" stroke-width="8.259" stroke="rgb(33,33,33)" fill="none" stroke-linecap="round"></path><path d="M 202.000,122.000 C 175.511,121.481 175.490,121.491 149.000,122.000" stroke-width="6.750" stroke="rgb(33,33,33)" fill="none" stroke-linecap="round"></path><path d="M 149.000,122.000 C 123.490,122.491 123.351,121.547 98.000,124.000" stroke-width="6.750" stroke="rgb(33,33,33)" fill="none" stroke-linecap="round"></path><path d="M 98.000,124.000 C 76.851,126.047 76.860,126.828 56.000,131.000" stroke-width="6.750" stroke="rgb(33,33,33)" fill="none" stroke-linecap="round"></path><path d="M 56.000,131.000 C 41.860,133.828 41.861,134.040 28.000,138.000" stroke-width="6.750" stroke="rgb(33,33,33)" fill="none" stroke-linecap="round"></path><path d="M 28.000,138.000 C 20.861,140.040 20.519,139.740 14.000,143.000" stroke-width="6.750" stroke="rgb(33,33,33)" fill="none" stroke-linecap="round"></path><path d="M 14.000,143.000 C 11.519,144.240 10.611,144.862 10.000,147.000" stroke-width="6.750" stroke="rgb(33,33,33)" fill="none" stroke-linecap="round"></path><path d="M 10.000,147.000 C 9.611,148.362 10.281,149.844 12.000,150.000" stroke-width="6.750" stroke="rgb(33,33,33)" fill="none" stroke-linecap="round"></path><path d="M 12.000,150.000 C 26.781,151.344 27.500,150.000 43.000,150.000" stroke-width="6.750" stroke="rgb(33,33,33)" fill="none" stroke-linecap="round"></path><path d="M 43.000,150.000 C 64.000,150.000 64.253,152.277 85.000,150.000" stroke-width="6.750" stroke="rgb(33,33,33)" fill="none" stroke-linecap="round"></path><path d="M 85.000,150.000 C 105.253,147.777 105.235,146.368 125.000,141.000" stroke-width="6.750" stroke="rgb(33,33,33)" fill="none" stroke-linecap="round"></path><path d="M 125.000,141.000 C 145.735,135.368 145.819,135.363 166.000,128.000" stroke-width="6.750" stroke="rgb(33,33,33)" fill="none" stroke-linecap="round"></path><path d="M 166.000,128.000 C 182.819,121.863 183.019,121.991 199.000,114.000" stroke-width="6.750" stroke="rgb(33,33,33)" fill="none" stroke-linecap="round"></path><path d="M 199.000,114.000 C 209.019,108.991 208.454,107.925 218.000,102.000" stroke-width="6.750" stroke="rgb(33,33,33)" fill="none" stroke-linecap="round"></path><path d="M 218.000,102.000 C 222.954,98.925 223.732,99.414 228.000,96.000" stroke-width="7.160" stroke="rgb(33,33,33)" fill="none" stroke-linecap="round"></path><path d="M 228.000,96.000 C 228.732,95.414 228.900,94.100 228.000,94.000" stroke-width="8.140" stroke="rgb(33,33,33)" fill="none" stroke-linecap="round"></path><path d="M 228.000,94.000 C 219.900,93.100 218.868,92.733 210.000,94.000" stroke-width="8.385" stroke="rgb(33,33,33)" fill="none" stroke-linecap="round"></path><path d="M 210.000,94.000 C 190.868,96.733 190.633,96.759 172.000,102.000" stroke-width="7.899" stroke="rgb(33,33,33)" fill="none" stroke-linecap="round"></path><path d="M 172.000,102.000 C 158.633,105.759 158.133,105.489 146.000,112.000" stroke-width="7.791" stroke="rgb(33,33,33)" fill="none" stroke-linecap="round"></path><path d="M 146.000,112.000 C 137.633,116.489 136.562,116.682 131.000,124.000" stroke-width="8.083" stroke="rgb(33,33,33)" fill="none" stroke-linecap="round"></path><path d="M 131.000,124.000 C 127.062,129.182 126.769,130.526 127.000,137.000" stroke-width="8.529" stroke="rgb(33,33,33)" fill="none" stroke-linecap="round"></path><path d="M 127.000,137.000 C 127.269,144.526 126.884,146.519 132.000,152.000" stroke-width="8.861" stroke="rgb(33,33,33)" fill="none" stroke-linecap="round"></path><path d="M 132.000,152.000 C 140.884,161.519 143.577,159.385 155.000,167.000" stroke-width="8.539" stroke="rgb(33,33,33)" fill="none" stroke-linecap="round"></path><path d="M 155.000,167.000 C 163.077,172.385 163.321,172.093 171.000,178.000" stroke-width="8.707" stroke="rgb(33,33,33)" fill="none" stroke-linecap="round"></path><path d="M 171.000,178.000 C 176.321,182.093 176.818,181.834 181.000,187.000" stroke-width="9.127" stroke="rgb(33,33,33)" fill="none" stroke-linecap="round"></path><path d="M 181.000,187.000 C 185.318,192.334 185.772,192.594 188.000,199.000" stroke-width="9.424" stroke="rgb(33,33,33)" fill="none" stroke-linecap="round"></path><path d="M 188.000,199.000 C 189.772,204.094 189.248,204.533 189.000,210.000" stroke-width="9.883" stroke="rgb(33,33,33)" fill="none" stroke-linecap="round"></path><path d="M 189.000,210.000 C 188.748,215.533 189.572,216.324 187.000,221.000" stroke-width="10.276" stroke="rgb(33,33,33)" fill="none" stroke-linecap="round"></path><path d="M 187.000,221.000 C 184.072,226.324 182.500,225.500 178.000,230.000" stroke-width="10.462" stroke="rgb(33,33,33)" fill="none" stroke-linecap="round"></path><path d="M 178.000,230.000 C 173.500,234.500 173.500,234.500 169.000,239.000" stroke-width="10.668" stroke="rgb(33,33,33)" fill="none" stroke-linecap="round"></path></svg>