<svg xmlns="http://www.w3.org/2000/svg" xmlns:xlink="http://www.w3.org/1999/xlink" viewBox="0 0 800 500"><path d="M 161.333,109.000 C 158.333,109.000 158.192,108.220 155.333,109.000" stroke-width="20.087" stroke="rgb(33,33,33)" fill="none" stroke-linecap="round"></path><path d="M 155.333,109.000 C 147.192,111.220 147.362,112.081 139.333,115.000" stroke-width="18.189" stroke="rgb(33,33,33)" fill="none" stroke-linecap="round"></path><path d="M 139.333,115.000 C 136.362,116.081 136.372,116.132 133.333,117.000" stroke-width="11.752" stroke="rgb(33,33,33)" fill="none" stroke-linecap="round"></path><path d="M 133.333,117.000 C 129.372,118.132 129.068,117.400 125.333,119.000" stroke-width="11.801" stroke="rgb(33,33,33)" fill="none" stroke-linecap="round"></path><path d="M 125.333,119.000 C 122.068,120.400 122.390,121.090 119.333,123.000" stroke-width="12.027" stroke="rgb(33,33,33)" fill="none" stroke-linecap="round"></path><path d="M 119.333,123.000 C 114.390,126.090 114.333,126.000 109.333,129.000" stroke-width="11.730" stroke="rgb(33,33,33)" fill="none" stroke-linecap="round"></path><path d="M 109.333,129.000 C 104.333,132.000 104.277,131.910 99.333,135.000" stroke-width="11.502" stroke="rgb(33,33,33)" fill="none" stroke-linecap="round"></path><path d="M 99.333,135.000 C 96.277,136.910 95.833,136.500 93.333,139.000" stroke-width="11.778" stroke="rgb(33,33,33)" fill="none" stroke-linecap="round"></path><path d="M 93.333,139.000 C 90.833,141.500 91.575,142.198 89.333,145.000" stroke-width="12.361" stroke="rgb(33,33,33)" fill="none" stroke-linecap="round"></path><path d="M 89.333,145.000 C 87.575,147.198 87.009,146.766 85.333,149.000" stroke-width="12.551" stroke="rgb(33,33,33)" fill="none" stroke-linecap="round"></path><path d="M 85.333,149.000 C 84.009,150.766 83.760,150.865 83.333,153.000" stroke-width="13.239" stroke="rgb(33,33,33)" fill="none" stroke-linecap="round"></path><path d="M 83.333,153.000 C 82.760,155.865 83.333,156.000 83.333,159.000" stroke-width="13.211" stroke="rgb(33,33,33)" fill="none" stroke-linecap="round"></path><path d="M 83.333,159.000 C 83.333,160.000 83.024,160.073 83.333,161.000" stroke-width="13.845" stroke="rgb(33,33,33)" fill="none" stroke-linecap="round"></path><path d="M 83.333,161.000 C 84.024,163.073 84.333,163.000 85.333,165.000" stroke-width="13.952" stroke="rgb(33,33,33)" fill="none" stroke-linecap="round"></path><path d="M 85.333,165.000 C 86.333,167.000 86.009,167.234 87.333,169.000" stroke-width="14.211" stroke="rgb(33,33,33)" fill="none" stroke-linecap="round"></path><path d="M 87.333,169.000 C 89.009,171.234 89.135,171.242 91.333,173.000" stroke-width="14.119" stroke="rgb(33,33,33)" fill="none" stroke-linecap="round"></path><path d="M 91.333,173.000 C 94.135,175.242 94.400,174.905 97.333,177.000" stroke-width="13.885" stroke="rgb(33,33,33)" fill="none" stroke-linecap="round"></path><path d="M 97.333,177.000 C 101.400,179.905 101.266,180.095 105.333,183.000" stroke-width="13.318" stroke="rgb(33,33,33)" fill="none" stroke-linecap="round"></path><path d="M 105.333,183.000 C 108.266,185.095 108.209,185.215 111.333,187.000" stroke-width="13.178" stroke="rgb(33,33,33)" fill="none" stroke-linecap="round"></path><path d="M 111.333,187.000 C 115.209,189.215 115.128,189.598 119.333,191.000" stroke-width="12.924" stroke="rgb(33,33,33)" fill="none" stroke-linecap="round"></path><path d="M 119.333,191.000 C 124.128,192.598 124.357,191.894 129.333,193.000" stroke-width="12.574" stroke="rgb(33,33,33)" fill="none" stroke-linecap="round"></path><path d="M 129.333,193.000 C 133.357,193.894 133.333,194.000 137.333,195.000" stroke-width="12.670" stroke="rgb(33,33,33)" fill="none" stroke-linecap="round"></path><path d="M 137.333,195.000 C 141.333,196.000 141.310,196.106 145.333,197.000" stroke-width="12.613" stroke="rgb(33,33,33)" fill="none" stroke-linecap="round"></path><path d="M 145.333,197.000 C 150.310,198.106 150.290,198.440 155.333,199.000" stroke-width="12.497" stroke="rgb(33,33,33)" fill="none" stroke-linecap="round"></path><path d="M 155.333,199.000 C 159.290,199.440 159.394,198.508 163.333,199.000" stroke-width="12.573" stroke="rgb(33,33,33)" fill="none" stroke-linecap="round"></path><path d="M 163.333,199.000 C 167.394,199.508 167.310,200.106 171.333,201.000" stroke-width="12.724" stroke="rgb(33,33,33)" fill="none" stroke-linecap="round"></path><path d="M 171.333,201.000 C 176.310,202.106 176.396,201.766 181.333,203.000" stroke-width="12.508" stroke="rgb(33,33,33)" fill="none" stroke-linecap="round"></path><path d="M 181.333,203.000 C 184.396,203.766 184.295,204.132 187.333,205.000" stroke-width="12.716" stroke="rgb(33,33,33)" fill="none" stroke-linecap="round"></path><path d="M 187.333,205.000 C 191.295,206.132 191.372,205.868 195.333,207.000" stroke-width="12.356" stroke="rgb(33,33,33)" fill="none" stroke-linecap="round"></path><path d="M 195.333,207.000 C 198.372,207.868 198.295,208.132 201.333,209.000" stroke-width="12.590" stroke="rgb(33,33,33)" fill="none" stroke-linecap="round"></path><path d="M 201.333,209.000 C 205.295,210.132 205.775,209.221 209.333,211.000" stroke-width="12.373" stroke="rgb(33,33,33)" fill="none" stroke-linecap="round"></path><path d="M 209.333,211.000 C 211.775,212.221 211.333,213.000 213.333,215.000" stroke-width="12.561" stroke="rgb(33,33,33)" fill="none" stroke-linecap="round"></path><path d="M 213.333,215.000 C 215.333,217.000 215.099,217.325 217.333,219.000" stroke-width="12.715" stroke="rgb(33,33,33)" fill="none" stroke-linecap="round"></path><path d="M 217.333,219.000 C 219.099,220.325 219.951,219.618 221.333,221.000" stroke-width="13.076" stroke="rgb(33,33,33)" fill="none" stroke-linecap="round"></path><path d="M 221.333,221.000 C 221.951,221.618 220.919,222.172 221.333,223.000" stroke-width="13.693" stroke="rgb(33,33,33)" fill="none" stroke-linecap="round"></path><path d="M 221.333,223.000 C 221.919,224.172 222.748,223.828 223.333,225.000" stroke-width="14.225" stroke="rgb(33,33,33)" fill="none" stroke-linecap="round"></path><path d="M 223.333,225.000 C 223.748,225.828 223.024,226.073 223.333,227.000" stroke-width="14.758" stroke="rgb(33,33,33)" fill="none" stroke-linecap="round"></path><path d="M 223.333,227.000 C 224.024,229.073 224.805,228.889 225.333,231.000" stroke-width="14.819" stroke="rgb(33,33,33)" fill="none" stroke-linecap="round"></path><path d="M 225.333,231.000 C 225.805,232.889 225.333,233.000 225.333,235.000" stroke-width="14.891" stroke="rgb(33,33,33)" fill="none" stroke-linecap="round"></path><path d="M 225.333,235.000 C 225.333,237.000 225.333,237.000 225.333,239.000" stroke-width="15.098" stroke="rgb(33,33,33)" fill="none" stroke-linecap="round"></path><path d="M 225.333,239.000 C 225.333,242.000 225.333,242.000 225.333,245.000" stroke-width="14.749" stroke="rgb(33,33,33)" fill="none" stroke-linecap="round"></path><path d="M 225.333,245.000 C 225.333,248.000 225.333,248.000 225.333,251.000" stroke-width="14.481" stroke="rgb(33,33,33)" fill="none" stroke-linecap="round"></path><path d="M 225.333,251.000 C 225.333,255.000 225.892,255.091 225.333,259.000" stroke-width="14.045" stroke="rgb(33,33,33)" fill="none" stroke-linecap="round"></path><path d="M 225.333,259.000 C 224.892,262.091 224.576,262.101 223.333,265.000" stroke-width="13.958" stroke="rgb(33,33,33)" fill="none" stroke-linecap="round"></path><path d="M 223.333,265.000 C 221.576,269.101 221.333,269.000 219.333,273.000" stroke-width="13.414" stroke="rgb(33,33,33)" fill="none" stroke-linecap="round"></path><path d="M 219.333,273.000 C 217.333,277.000 217.694,277.223 215.333,281.000" stroke-width="13.188" stroke="rgb(33,33,33)" fill="none" stroke-linecap="round"></path><path d="M 215.333,281.000 C 212.694,285.223 212.403,285.054 209.333,289.000" stroke-width="12.798" stroke="rgb(33,33,33)" fill="none" stroke-linecap="round"></path><path d="M 209.333,289.000 C 205.403,294.054 205.826,294.508 201.333,299.000" stroke-width="11.921" stroke="rgb(33,33,33)" fill="none" stroke-linecap="round"></path><path d="M 201.333,299.000 C 197.826,302.508 197.428,302.134 193.333,305.000" stroke-width="11.899" stroke="rgb(33,33,33)" fill="none" stroke-linecap="round"></path><path d="M 193.333,305.000 C 187.428,309.134 187.550,309.374 181.333,313.000" stroke-width="11.239" stroke="rgb(33,33,33)" fill="none" stroke-linecap="round"></path><path d="M 181.333,313.000 C 175.550,316.374 175.491,316.361 169.333,319.000" stroke-width="10.959" stroke="rgb(33,33,33)" fill="none" stroke-linecap="round"></path><path d="M 169.333,319.000 C 161.491,322.361 161.539,322.721 153.333,325.000" stroke-width="10.624" stroke="rgb(33,33,33)" fill="none" stroke-linecap="round"></path><path d="M 153.333,325.000 C 143.539,327.721 143.397,327.411 133.333,329.000" stroke-width="9.807" stroke="rgb(33,33,33)" fill="none" stroke-linecap="round"></path><path d="M 133.333,329.000 C 124.397,330.411 124.318,329.877 115.333,331.000" stroke-width="9.284" stroke="rgb(33,33,33)" fill="none" stroke-linecap="round"></path><path d="M 115.333,331.000 C 108.318,331.877 108.306,331.838 101.333,333.000" stroke-width="9.364" stroke="rgb(33,33,33)" fill="none" stroke-linecap="round"></path><path d="M 101.333,333.000 C 96.306,333.838 96.361,334.282 91.333,335.000" stroke-width="9.703" stroke="rgb(33,33,33)" fill="none" stroke-linecap="round"></path><path d="M 91.333,335.000 C 89.361,335.282 89.333,335.000 87.333,335.000" stroke-width="10.510" stroke="rgb(33,33,33)" fill="none" stroke-linecap="round"></path><path d="M 87.333,335.000 C 86.333,335.000 86.333,335.000 85.333,335.000" stroke-width="11.411" stroke="rgb(33,33,33)" fill="none" stroke-linecap="round"></path><path d="M 85.333,335.000 C 84.333,335.000 84.162,334.586 83.333,335.000" stroke-width="12.269" stroke="rgb(33,33,33)" fill="none" stroke-linecap="round"></path><path d="M 83.333,335.000 C 82.162,335.586 82.333,336.000 81.333,337.000" stroke-width="12.918" stroke="rgb(33,33,33)" fill="none" stroke-linecap="round"></path><path d="M 81.333,337.000 C 81.333,337.000 81.333,337.000 81.333,337.000" stroke-width="13.927" stroke="rgb(33,33,33)" fill="none" stroke-linecap="round"></path><path d="M 81.333,337.000 C 80.333,337.000 80.333,337.000 79.333,337.000" stroke-width="14.527" stroke="rgb(33,33,33)" fill="none" stroke-linecap="round"></path><path d="M 79.333,337.000 C 80.333,337.000 80.333,337.000 81.333,337.000" stroke-width="16.986" stroke="rgb(33,33,33)" fill="none" stroke-linecap="round"></path><path d="M 81.333,337.000 C 82.333,337.000 82.333,337.000 83.333,337.000" stroke-width="17.096" stroke="rgb(33,33,33)" fill="none" stroke-linecap="round"></path><path d="M 83.333,337.000 C 85.333,337.000 85.333,337.000 87.333,337.000" stroke-width="16.677" stroke="rgb(33,33,33)" fill="none" stroke-linecap="round"></path><path d="M 87.333,337.000 C 89.333,337.000 89.333,337.000 91.333,337.000" stroke-width="16.424" stroke="rgb(33,33,33)" fill="none" stroke-linecap="round"></path><path d="M 91.333,337.000 C 94.333,337.000 94.385,337.421 97.333,337.000" stroke-width="15.837" stroke="rgb(33,33,33)" fill="none" stroke-linecap="round"></path><path d="M 97.333,337.000 C 101.385,336.421 101.266,335.452 105.333,335.000" stroke-width="15.104" stroke="rgb(33,33,33)" fill="none" stroke-linecap="round"></path><path d="M 105.333,335.000 C 110.266,334.452 110.371,335.451 115.333,335.000" stroke-width="14.070" stroke="rgb(33,33,33)" fill="none" stroke-linecap="round"></path><path d="M 115.333,335.000 C 121.371,334.451 121.300,333.603 127.333,333.000" stroke-width="13.277" stroke="rgb(33,33,33)" fill="none" stroke-linecap="round"></path><path d="M 127.333,333.000 C 131.300,332.603 131.394,333.492 135.333,333.000" stroke-width="12.934" stroke="rgb(33,33,33)" fill="none" stroke-linecap="round"></path><path d="M 135.333,333.000 C 139.394,332.492 139.372,332.132 143.333,331.000" stroke-width="12.822" stroke="rgb(33,33,33)" fill="none" stroke-linecap="round"></path><path d="M 143.333,331.000 C 146.372,330.132 146.295,329.868 149.333,329.000" stroke-width="12.974" stroke="rgb(33,33,33)" fill="none" stroke-linecap="round"></path><path d="M 149.333,329.000 C 153.295,327.868 153.372,328.132 157.333,327.000" stroke-width="12.767" stroke="rgb(33,33,33)" fill="none" stroke-linecap="round"></path><path d="M 157.333,327.000 C 160.372,326.132 160.434,326.243 163.333,325.000" stroke-width="12.987" stroke="rgb(33,33,33)" fill="none" stroke-linecap="round"></path><path d="M 163.333,325.000 C 167.434,323.243 167.458,323.215 171.333,321.000" stroke-width="12.776" stroke="rgb(33,33,33)" fill="none" stroke-linecap="round"></path><path d="M 171.333,321.000 C 174.458,319.215 174.125,318.604 177.333,317.000" stroke-width="13.428" stroke="rgb(33,33,33)" fill="none" stroke-linecap="round"></path><path d="M 177.333,317.000 C 182.125,314.604 182.532,315.401 187.333,313.000" stroke-width="12.638" stroke="rgb(33,33,33)" fill="none" stroke-linecap="round"></path><path d="M 187.333,313.000 C 192.532,310.401 192.218,309.790 197.333,307.000" stroke-width="11.955" stroke="rgb(33,33,33)" fill="none" stroke-linecap="round"></path><path d="M 197.333,307.000 C 203.218,303.790 203.550,304.374 209.333,301.000" stroke-width="11.256" stroke="rgb(33,33,33)" fill="none" stroke-linecap="round"></path><path d="M 209.333,301.000 C 215.550,297.374 215.333,297.000 221.333,293.000" stroke-width="10.650" stroke="rgb(33,33,33)" fill="none" stroke-linecap="round"></path><path d="M 221.333,293.000 C 224.333,291.000 224.333,291.000 227.333,289.000" stroke-width="10.933" stroke="rgb(33,33,33)" fill="none" stroke-linecap="round"></path><path d="M 227.333,289.000 C 230.333,287.000 230.333,287.000 233.333,285.000" stroke-width="11.296" stroke="rgb(33,33,33)" fill="none" stroke-linecap="round"></path><path d="M 233.333,285.000 C 236.333,283.000 236.577,283.297 239.333,281.000" stroke-width="11.471" stroke="rgb(33,33,33)" fill="none" stroke-linecap="round"></path><path d="M 239.333,281.000 C 242.577,278.297 242.333,278.000 245.333,275.000" stroke-width="11.682" stroke="rgb(33,33,33)" fill="none" stroke-linecap="round"></path><path d="M 245.333,275.000 C 249.333,271.000 249.151,270.803 253.333,267.000" stroke-width="11.774" stroke="rgb(33,33,33)" fill="none" stroke-linecap="round"></path><path d="M 253.333,267.000 C 260.151,260.803 260.598,261.286 267.333,255.000" stroke-width="11.116" stroke="rgb(33,33,33)" fill="none" stroke-linecap="round"></path><path d="M 267.333,255.000 C 275.598,247.286 275.583,247.235 283.333,239.000" stroke-width="10.097" stroke="rgb(33,33,33)" fill="none" stroke-linecap="round"></path><path d="M 283.333,239.000 C 291.583,230.235 291.629,230.246 299.333,221.000" stroke-width="9.527" stroke="rgb(33,33,33)" fill="none" stroke-linecap="round"></path><path d="M 299.333,221.000 C 306.629,212.246 306.494,212.120 313.333,203.000" stroke-width="8.995" stroke="rgb(33,33,33)" fill="none" stroke-linecap="round"></path><path d="M 313.333,203.000 C 318.494,196.120 318.921,196.354 323.333,189.000" stroke-width="9.013" stroke="rgb(33,33,33)" fill="none" stroke-linecap="round"></path><path d="M 323.333,189.000 C 327.921,181.354 327.333,181.000 331.333,173.000" stroke-width="8.718" stroke="rgb(33,33,33)" fill="none" stroke-linecap="round"></path><path d="M 331.333,173.000 C 333.333,169.000 332.973,168.777 335.333,165.000" stroke-width="9.119" stroke="rgb(33,33,33)" fill="none" stroke-linecap="round"></path><path d="M 335.333,165.000 C 337.973,160.777 339.141,161.384 341.333,157.000" stroke-width="9.382" stroke="rgb(33,33,33)" fill="none" stroke-linecap="round"></path><path d="M 341.333,157.000 C 343.141,153.384 342.201,152.962 343.333,149.000" stroke-width="9.751" stroke="rgb(33,33,33)" fill="none" stroke-linecap="round"></path><path d="M 343.333,149.000 C 344.201,145.962 344.568,146.062 345.333,143.000" stroke-width="10.296" stroke="rgb(33,33,33)" fill="none" stroke-linecap="round"></path><path d="M 345.333,143.000 C 346.568,138.062 346.228,137.976 347.333,133.000" stroke-width="10.338" stroke="rgb(33,33,33)" fill="none" stroke-linecap="round"></path><path d="M 347.333,133.000 C 348.228,128.976 348.037,128.890 349.333,125.000" stroke-width="10.563" stroke="rgb(33,33,33)" fill="none" stroke-linecap="round"></path><path d="M 349.333,125.000 C 350.037,122.890 350.805,123.111 351.333,121.000" stroke-width="11.199" stroke="rgb(33,33,33)" fill="none" stroke-linecap="round"></path><path d="M 351.333,121.000 C 351.805,119.111 350.861,118.889 351.333,117.000" stroke-width="11.856" stroke="rgb(33,33,33)" fill="none" stroke-linecap="round"></path><path d="M 351.333,117.000 C 351.861,114.889 352.642,115.073 353.333,113.000" stroke-width="12.340" stroke="rgb(33,33,33)" fill="none" stroke-linecap="round"></path><path d="M 353.333,113.000 C 353.642,112.073 353.333,112.000 353.333,111.000" stroke-width="13.119" stroke="rgb(33,33,33)" fill="none" stroke-linecap="round"></path><path d="M 353.333,111.000 C 353.333,109.000 353.333,109.000 353.333,107.000" stroke-width="13.573" stroke="rgb(33,33,33)" fill="none" stroke-linecap="round"></path><path d="M 353.333,107.000 C 353.333,105.000 353.333,105.000 353.333,103.000" stroke-width="13.810" stroke="rgb(33,33,33)" fill="none" stroke-linecap="round"></path><path d="M 353.333,103.000 C 353.333,101.000 353.721,100.937 353.333,99.000" stroke-width="14.159" stroke="rgb(33,33,33)" fill="none" stroke-linecap="round"></path><path d="M 353.333,99.000 C 352.721,95.937 352.505,95.929 351.333,93.000" stroke-width="14.048" stroke="rgb(33,33,33)" fill="none" stroke-linecap="round"></path><path d="M 351.333,93.000 C 350.505,90.929 350.333,91.000 349.333,89.000" stroke-width="14.117" stroke="rgb(33,33,33)" fill="none" stroke-linecap="round"></path><path d="M 349.333,89.000 C 348.333,87.000 347.861,87.111 347.333,85.000" stroke-width="14.347" stroke="rgb(33,33,33)" fill="none" stroke-linecap="round"></path><path d="M 347.333,85.000 C 346.861,83.111 347.919,82.757 347.333,81.000" stroke-width="14.561" stroke="rgb(33,33,33)" fill="none" stroke-linecap="round"></path><path d="M 347.333,81.000 C 346.919,79.757 345.919,80.172 345.333,79.000" stroke-width="14.967" stroke="rgb(33,33,33)" fill="none" stroke-linecap="round"></path><path d="M 345.333,79.000 C 344.919,78.172 345.833,77.500 345.333,77.000" stroke-width="15.356" stroke="rgb(33,33,33)" fill="none" stroke-linecap="round"></path><path d="M 345.333,77.000 C 344.833,76.500 344.333,77.000 343.333,77.000" stroke-width="15.749" stroke="rgb(33,33,33)" fill="none" stroke-linecap="round"></path><path d="M 343.333,77.000 C 343.333,79.000 343.333,79.000 343.333,81.000" stroke-width="16.765" stroke="rgb(33,33,33)" fill="none" stroke-linecap="round"></path><path d="M 343.333,81.000 C 343.333,85.000 343.333,85.000 343.333,89.000" stroke-width="15.582" stroke="rgb(33,33,33)" fill="none" stroke-linecap="round"></path><path d="M 343.333,89.000 C 343.333,93.000 343.333,93.000 343.333,97.000" stroke-width="14.859" stroke="rgb(33,33,33)" fill="none" stroke-linecap="round"></path><path d="M 343.333,97.000 C 343.333,102.000 342.785,102.067 343.333,107.000" stroke-width="14.023" stroke="rgb(33,33,33)" fill="none" stroke-linecap="round"></path><path d="M 343.333,107.000 C 343.785,111.067 344.881,110.933 345.333,115.000" stroke-width="13.566" stroke="rgb(33,33,33)" fill="none" stroke-linecap="round"></path><path d="M 345.333,115.000 C 345.881,119.933 344.838,120.049 345.333,125.000" stroke-width="13.081" stroke="rgb(33,33,33)" fill="none" stroke-linecap="round"></path><path d="M 345.333,125.000 C 345.838,130.049 346.421,129.984 347.333,135.000" stroke-width="12.694" stroke="rgb(33,33,33)" fill="none" stroke-linecap="round"></path><path d="M 347.333,135.000 C 348.421,140.984 348.530,140.973 349.333,147.000" stroke-width="12.061" stroke="rgb(33,33,33)" fill="none" stroke-linecap="round"></path><path d="M 349.333,147.000 C 350.530,155.973 350.858,155.971 351.333,165.000" stroke-width="11.238" stroke="rgb(33,33,33)" fill="none" stroke-linecap="round"></path><path d="M 351.333,165.000 C 351.858,174.971 350.835,175.025 351.333,185.000" stroke-width="10.389" stroke="rgb(33,33,33)" fill="none" stroke-linecap="round"></path><path d="M 351.333,185.000 C 351.835,195.025 352.333,195.000 353.333,205.000" stroke-width="9.669" stroke="rgb(33,33,33)" fill="none" stroke-linecap="round"></path><path d="M 353.333,205.000 C 354.333,215.000 354.832,214.975 355.333,225.000" stroke-width="9.269" stroke="rgb(33,33,33)" fill="none" stroke-linecap="round"></path><path d="M 355.333,225.000 C 355.832,234.975 355.333,235.000 355.333,245.000" stroke-width="8.978" stroke="rgb(33,33,33)" fill="none" stroke-linecap="round"></path><path d="M 355.333,245.000 C 355.333,253.000 355.333,253.000 355.333,261.000" stroke-width="8.917" stroke="rgb(33,33,33)" fill="none" stroke-linecap="round"></path><path d="M 355.333,261.000 C 355.333,268.000 355.333,268.000 355.333,275.000" stroke-width="9.072" stroke="rgb(33,33,33)" fill="none" stroke-linecap="round"></path><path d="M 355.333,275.000 C 355.333,282.000 355.868,282.044 355.333,289.000" stroke-width="9.200" stroke="rgb(33,33,33)" fill="none" stroke-linecap="round"></path><path d="M 355.333,289.000 C 354.868,295.044 355.062,295.237 353.333,301.000" stroke-width="9.486" stroke="rgb(33,33,33)" fill="none" stroke-linecap="round"></path><path d="M 353.333,301.000 C 352.062,305.237 351.148,304.917 349.333,309.000" stroke-width="9.845" stroke="rgb(33,33,33)" fill="none" stroke-linecap="round"></path><path d="M 349.333,309.000 C 347.148,313.917 348.130,314.525 345.333,319.000" stroke-width="10.069" stroke="rgb(33,33,33)" fill="none" stroke-linecap="round"></path><path d="M 345.333,319.000 C 343.130,322.525 342.333,322.000 339.333,325.000" stroke-width="10.383" stroke="rgb(33,33,33)" fill="none" stroke-linecap="round"></path><path d="M 339.333,325.000 C 337.333,327.000 337.531,327.242 335.333,329.000" stroke-width="10.962" stroke="rgb(33,33,33)" fill="none" stroke-linecap="round"></path><path d="M 335.333,329.000 C 332.531,331.242 332.135,330.758 329.333,333.000" stroke-width="11.371" stroke="rgb(33,33,33)" fill="none" stroke-linecap="round"></path><path d="M 329.333,333.000 C 327.135,334.758 327.676,335.828 325.333,337.000" stroke-width="11.722" stroke="rgb(33,33,33)" fill="none" stroke-linecap="round"></path><path d="M 325.333,337.000 C 323.676,337.828 323.222,336.528 321.333,337.000" stroke-width="12.354" stroke="rgb(33,33,33)" fill="none" stroke-linecap="round"></path><path d="M 321.333,337.000 C 319.222,337.528 319.404,338.172 317.333,339.000" stroke-width="12.769" stroke="rgb(33,33,33)" fill="none" stroke-linecap="round"></path><path d="M 317.333,339.000 C 314.404,340.172 314.372,340.240 311.333,341.000" stroke-width="12.989" stroke="rgb(33,33,33)" fill="none" stroke-linecap="round"></path><path d="M 311.333,341.000 C 310.372,341.240 310.162,340.586 309.333,341.000" stroke-width="13.677" stroke="rgb(33,33,33)" fill="none" stroke-linecap="round"></path><path d="M 309.333,341.000 C 308.162,341.586 308.505,342.414 307.333,343.000" stroke-width="14.181" stroke="rgb(33,33,33)" fill="none" stroke-linecap="round"></path><path d="M 307.333,343.000 C 306.505,343.414 306.333,343.000 305.333,343.000" stroke-width="14.720" stroke="rgb(33,33,33)" fill="none" stroke-linecap="round"></path><path d="M 305.333,343.000 C 304.333,343.000 304.333,343.000 303.333,343.000" stroke-width="15.210" stroke="rgb(33,33,33)" fill="none" stroke-linecap="round"></path><path d="M 303.333,343.000 C 303.333,343.000 303.333,343.000 303.333,343.000" stroke-width="16.007" stroke="rgb(33,33,33)" fill="none" stroke-linecap="round"></path><path d="M 303.333,343.000 C 305.333,342.000 305.260,341.691 307.333,341.000" stroke-width="16.520" stroke="rgb(33,33,33)" fill="none" stroke-linecap="round"></path><path d="M 307.333,341.000 C 308.260,340.691 308.550,341.522 309.333,341.000" stroke-width="16.681" stroke="rgb(33,33,33)" fill="none" stroke-linecap="round"></path><path d="M 309.333,341.000 C 311.550,339.522 311.099,338.675 313.333,337.000" stroke-width="16.002" stroke="rgb(33,33,33)" fill="none" stroke-linecap="round"></path><path d="M 313.333,337.000 C 315.099,335.675 315.802,336.531 317.333,335.000" stroke-width="15.735" stroke="rgb(33,33,33)" fill="none" stroke-linecap="round"></path><path d="M 317.333,335.000 C 319.802,332.531 318.998,331.725 321.333,329.000" stroke-width="15.196" stroke="rgb(33,33,33)" fill="none" stroke-linecap="round"></path><path d="M 321.333,329.000 C 324.998,324.725 325.886,325.432 329.333,321.000" stroke-width="14.184" stroke="rgb(33,33,33)" fill="none" stroke-linecap="round"></path><path d="M 329.333,321.000 C 332.886,316.432 331.997,315.766 335.333,311.000" stroke-width="13.179" stroke="rgb(33,33,33)" fill="none" stroke-linecap="round"></path><path d="M 335.333,311.000 C 338.997,305.766 340.526,306.615 343.333,301.000" stroke-width="12.561" stroke="rgb(33,33,33)" fill="none" stroke-linecap="round"></path><path d="M 343.333,301.000 C 346.526,294.615 345.458,294.033 347.333,287.000" stroke-width="11.689" stroke="rgb(33,33,33)" fill="none" stroke-linecap="round"></path><path d="M 347.333,287.000 C 349.458,279.033 349.816,279.090 351.333,271.000" stroke-width="10.883" stroke="rgb(33,33,33)" fill="none" stroke-linecap="round"></path><path d="M 351.333,271.000 C 352.816,263.090 352.798,263.029 353.333,255.000" stroke-width="10.346" stroke="rgb(33,33,33)" fill="none" stroke-linecap="round"></path><path d="M 353.333,255.000 C 353.798,248.029 352.836,247.965 353.333,241.000" stroke-width="10.221" stroke="rgb(33,33,33)" fill="none" stroke-linecap="round"></path><path d="M 353.333,241.000 C 353.836,233.965 354.748,234.029 355.333,227.000" stroke-width="10.261" stroke="rgb(33,33,33)" fill="none" stroke-linecap="round"></path><path d="M 355.333,227.000 C 355.748,222.029 355.828,221.951 355.333,217.000" stroke-width="10.328" stroke="rgb(33,33,33)" fill="none" stroke-linecap="round"></path><path d="M 355.333,217.000 C 354.828,211.951 354.333,212.000 353.333,207.000" stroke-width="10.517" stroke="rgb(33,33,33)" fill="none" stroke-linecap="round"></path><path d="M 353.333,207.000 C 352.333,202.000 352.439,201.976 351.333,197.000" stroke-width="10.600" stroke="rgb(33,33,33)" fill="none" stroke-linecap="round"></path><path d="M 351.333,197.000 C 350.439,192.976 350.333,193.000 349.333,189.000" stroke-width="11.250" stroke="rgb(33,33,33)" fill="none" stroke-linecap="round"></path><path d="M 349.333,189.000 C 348.333,185.000 348.465,184.962 347.333,181.000" stroke-width="11.313" stroke="rgb(33,33,33)" fill="none" stroke-linecap="round"></path><path d="M 347.333,181.000 C 346.465,177.962 346.576,177.899 345.333,175.000" stroke-width="11.710" stroke="rgb(33,33,33)" fill="none" stroke-linecap="round"></path><path d="M 345.333,175.000 C 343.576,170.899 343.548,170.875 341.333,167.000" stroke-width="11.992" stroke="rgb(33,33,33)" fill="none" stroke-linecap="round"></path><path d="M 341.333,167.000 C 339.548,163.875 339.575,163.802 337.333,161.000" stroke-width="12.244" stroke="rgb(33,33,33)" fill="none" stroke-linecap="round"></path><path d="M 337.333,161.000 C 335.575,158.802 335.092,159.198 333.333,157.000" stroke-width="12.576" stroke="rgb(33,33,33)" fill="none" stroke-linecap="round"></path><path d="M 333.333,157.000 C 331.092,154.198 331.333,154.000 329.333,151.000" stroke-width="12.591" stroke="rgb(33,33,33)" fill="none" stroke-linecap="round"></path><path d="M 329.333,151.000 C 327.333,148.000 327.833,147.500 325.333,145.000" stroke-width="12.602" stroke="rgb(33,33,33)" fill="none" stroke-linecap="round"></path><path d="M 325.333,145.000 C 322.833,142.500 321.833,143.500 319.333,141.000" stroke-width="12.685" stroke="rgb(33,33,33)" fill="none" stroke-linecap="round"></path><path d="M 319.333,141.000 C 316.833,138.500 317.833,137.500 315.333,135.000" stroke-width="12.678" stroke="rgb(33,33,33)" fill="none" stroke-linecap="round"></path><path d="M 315.333,135.000 C 312.833,132.500 312.333,133.000 309.333,131.000" stroke-width="12.672" stroke="rgb(33,33,33)" fill="none" stroke-linecap="round"></path><path d="M 309.333,131.000 C 306.333,129.000 306.135,129.242 303.333,127.000" stroke-width="12.805" stroke="rgb(33,33,33)" fill="none" stroke-linecap="round"></path><path d="M 303.333,127.000 C 301.135,125.242 301.531,124.758 299.333,123.000" stroke-width="13.046" stroke="rgb(33,33,33)" fill="none" stroke-linecap="round"></path><path d="M 299.333,123.000 C 296.531,120.758 296.458,120.785 293.333,119.000" stroke-width="13.435" stroke="rgb(33,33,33)" fill="none" stroke-linecap="round"></path><path d="M 293.333,119.000 C 289.458,116.785 289.417,116.815 285.333,115.000" stroke-width="13.617" stroke="rgb(33,33,33)" fill="none" stroke-linecap="round"></path><path d="M 285.333,115.000 C 280.417,112.815 279.923,113.623 275.333,111.000" stroke-width="12.904" stroke="rgb(33,33,33)" fill="none" stroke-linecap="round"></path><path d="M 275.333,111.000 C 272.923,109.623 273.694,108.416 271.333,107.000" stroke-width="12.995" stroke="rgb(33,33,33)" fill="none" stroke-linecap="round"></path><path d="M 271.333,107.000 C 268.694,105.416 268.097,106.382 265.333,105.000" stroke-width="13.048" stroke="rgb(33,33,33)" fill="none" stroke-linecap="round"></path><path d="M 265.333,105.000 C 264.097,104.382 264.496,103.775 263.333,103.000" stroke-width="13.563" stroke="rgb(33,33,33)" fill="none" stroke-linecap="round"></path><path d="M 263.333,103.000 C 261.496,101.775 260.864,102.531 259.333,101.000" stroke-width="13.839" stroke="rgb(33,33,33)" fill="none" stroke-linecap="round"></path><path d="M 259.333,101.000 C 256.864,98.531 257.333,98.000 255.333,95.000" stroke-width="13.668" stroke="rgb(33,33,33)" fill="none" stroke-linecap="round"></path><path d="M 255.333,95.000 C 253.333,92.000 253.333,92.000 251.333,89.000" stroke-width="13.452" stroke="rgb(33,33,33)" fill="none" stroke-linecap="round"></path><path d="M 251.333,89.000 C 249.333,86.000 248.932,86.196 247.333,83.000" stroke-width="13.283" stroke="rgb(33,33,33)" fill="none" stroke-linecap="round"></path><path d="M 247.333,83.000 C 245.932,80.196 246.333,80.000 245.333,77.000" stroke-width="13.350" stroke="rgb(33,33,33)" fill="none" stroke-linecap="round"></path><path d="M 245.333,77.000 C 244.333,74.000 243.946,74.063 243.333,71.000" stroke-width="13.465" stroke="rgb(33,33,33)" fill="none" stroke-linecap="round"></path><path d="M 243.333,71.000 C 242.946,69.063 243.805,68.889 243.333,67.000" stroke-width="13.778" stroke="rgb(33,33,33)" fill="none" stroke-linecap="round"></path><path d="M 243.333,67.000 C 242.805,64.889 242.024,65.073 241.333,63.000" stroke-width="14.065" stroke="rgb(33,33,33)" fill="none" stroke-linecap="round"></path><path d="M 241.333,63.000 C 241.024,62.073 241.333,62.000 241.333,61.000" stroke-width="14.620" stroke="rgb(33,33,33)" fill="none" stroke-linecap="round"></path><path d="M 241.333,61.000 C 241.333,58.000 241.333,58.000 241.333,55.000" stroke-width="14.460" stroke="rgb(33,33,33)" fill="none" stroke-linecap="round"></path><path d="M 241.333,55.000 C 241.333,54.000 241.333,54.000 241.333,53.000" stroke-width="14.988" stroke="rgb(33,33,33)" fill="none" stroke-linecap="round"></path><path d="M 241.333,53.000 C 241.333,52.000 240.919,51.828 241.333,51.000" stroke-width="15.439" stroke="rgb(33,33,33)" fill="none" stroke-linecap="round"></path><path d="M 241.333,51.000 C 241.919,49.828 242.171,49.775 243.333,49.000" stroke-width="15.620" stroke="rgb(33,33,33)" fill="none" stroke-linecap="round"></path><path d="M 243.333,49.000 C 245.171,47.775 245.222,47.528 247.333,47.000" stroke-width="15.506" stroke="rgb(33,33,33)" fill="none" stroke-linecap="round"></path><path d="M 247.333,47.000 C 249.222,46.528 249.333,47.000 251.333,47.000" stroke-width="15.502" stroke="rgb(33,33,33)" fill="none" stroke-linecap="round"></path><path d="M 251.333,47.000 C 253.333,47.000 253.333,47.000 255.333,47.000" stroke-width="15.438" stroke="rgb(33,33,33)" fill="none" stroke-linecap="round"></path><path d="M 255.333,47.000 C 259.333,47.000 259.333,47.000 263.333,47.000" stroke-width="14.850" stroke="rgb(33,33,33)" fill="none" stroke-linecap="round"></path><path d="M 263.333,47.000 C 268.333,47.000 268.353,46.644 273.333,47.000" stroke-width="14.016" stroke="rgb(33,33,33)" fill="none" stroke-linecap="round"></path><path d="M 273.333,47.000 C 282.353,47.644 282.436,47.430 291.333,49.000" stroke-width="12.216" stroke="rgb(33,33,33)" fill="none" stroke-linecap="round"></path><path d="M 291.333,49.000 C 299.436,50.430 299.243,51.483 307.333,53.000" stroke-width="11.377" stroke="rgb(33,33,33)" fill="none" stroke-linecap="round"></path><path d="M 307.333,53.000 C 315.243,54.483 315.424,53.517 323.333,55.000" stroke-width="10.699" stroke="rgb(33,33,33)" fill="none" stroke-linecap="round"></path><path d="M 323.333,55.000 C 331.424,56.517 331.258,57.385 339.333,59.000" stroke-width="10.386" stroke="rgb(33,33,33)" fill="none" stroke-linecap="round"></path><path d="M 339.333,59.000 C 346.258,60.385 346.385,59.737 353.333,61.000" stroke-width="10.148" stroke="rgb(33,33,33)" fill="none" stroke-linecap="round"></path><path d="M 353.333,61.000 C 357.385,61.737 357.281,62.421 361.333,63.000" stroke-width="10.529" stroke="rgb(33,33,33)" fill="none" stroke-linecap="round"></path><path d="M 361.333,63.000 C 364.281,63.421 364.469,62.427 367.333,63.000" stroke-width="11.014" stroke="rgb(33,33,33)" fill="none" stroke-linecap="round"></path><path d="M 367.333,63.000 C 369.469,63.427 369.222,64.472 371.333,65.000" stroke-width="11.673" stroke="rgb(33,33,33)" fill="none" stroke-linecap="round"></path><path d="M 371.333,65.000 C 373.222,65.472 373.445,64.528 375.333,65.000" stroke-width="12.278" stroke="rgb(33,33,33)" fill="none" stroke-linecap="round"></path><path d="M 375.333,65.000 C 377.445,65.528 377.260,66.309 379.333,67.000" stroke-width="12.704" stroke="rgb(33,33,33)" fill="none" stroke-linecap="round"></path><path d="M 379.333,67.000 C 380.260,67.309 380.333,67.000 381.333,67.000" stroke-width="13.446" stroke="rgb(33,33,33)" fill="none" stroke-linecap="round"></path><path d="M 381.333,67.000 C 383.333,67.000 383.333,67.000 385.333,67.000" stroke-width="13.810" stroke="rgb(33,33,33)" fill="none" stroke-linecap="round"></path><path d="M 385.333,67.000 C 385.333,67.000 385.333,67.000 385.333,67.000" stroke-width="14.748" stroke="rgb(33,33,33)" fill="none" stroke-linecap="round"></path><path d="M 385.333,67.000 C 386.333,67.000 386.333,67.000 387.333,67.000" stroke-width="15.235" stroke="rgb(33,33,33)" fill="none" stroke-linecap="round"></path><path d="M 387.333,67.000 C 387.333,67.000 387.333,67.000 387.333,67.000" stroke-width="16.029" stroke="rgb(33,33,33)" fill="none" stroke-linecap="round"></path><path d="M 387.333,67.000 C 388.333,67.000 389.333,66.586 389.333,67.000" stroke-width="16.585" stroke="rgb(33,33,33)" fill="none" stroke-linecap="round"></path><path d="M 389.333,67.000 C 389.333,67.586 388.576,68.586 387.333,69.000" stroke-width="17.150" stroke="rgb(33,33,33)" fill="none" stroke-linecap="round"></path><path d="M 387.333,69.000 C 385.576,69.586 385.293,68.673 383.333,69.000" stroke-width="16.718" stroke="rgb(33,33,33)" fill="none" stroke-linecap="round"></path><path d="M 383.333,69.000 C 379.293,69.673 379.373,70.192 375.333,71.000" stroke-width="16.321" stroke="rgb(33,33,33)" fill="none" stroke-linecap="round"></path><path d="M 375.333,71.000 C 369.373,72.192 369.317,71.912 363.333,73.000" stroke-width="14.323" stroke="rgb(33,33,33)" fill="none" stroke-linecap="round"></path><path d="M 363.333,73.000 C 358.317,73.912 358.382,74.495 353.333,75.000" stroke-width="13.354" stroke="rgb(33,33,33)" fill="none" stroke-linecap="round"></path><path d="M 353.333,75.000 C 348.382,75.495 348.284,74.505 343.333,75.000" stroke-width="12.553" stroke="rgb(33,33,33)" fill="none" stroke-linecap="round"></path><path d="M 343.333,75.000 C 338.284,75.505 338.377,76.440 333.333,77.000" stroke-width="12.450" stroke="rgb(33,33,33)" fill="none" stroke-linecap="round"></path><path d="M 333.333,77.000 C 329.377,77.440 329.243,76.442 325.333,77.000" stroke-width="12.298" stroke="rgb(33,33,33)" fill="none" stroke-linecap="round"></path><path d="M 325.333,77.000 C 322.243,77.442 322.396,78.387 319.333,79.000" stroke-width="12.406" stroke="rgb(33,33,33)" fill="none" stroke-linecap="round"></path><path d="M 319.333,79.000 C 317.396,79.387 317.333,79.000 315.333,79.000" stroke-width="12.877" stroke="rgb(33,33,33)" fill="none" stroke-linecap="round"></path><path d="M 315.333,79.000 C 313.333,79.000 313.333,79.000 311.333,79.000" stroke-width="13.326" stroke="rgb(33,33,33)" fill="none" stroke-linecap="round"></path><path d="M 311.333,79.000 C 310.333,79.000 310.333,79.000 309.333,79.000" stroke-width="13.975" stroke="rgb(33,33,33)" fill="none" stroke-linecap="round"></path><path d="M 309.333,79.000 C 307.333,79.000 307.333,79.000 305.333,79.000" stroke-width="14.298" stroke="rgb(33,33,33)" fill="none" stroke-linecap="round"></path><path d="M 305.333,79.000 C 304.333,79.000 304.260,78.691 303.333,79.000" stroke-width="14.911" stroke="rgb(33,33,33)" fill="none" stroke-linecap="round"></path><path d="M 303.333,79.000 C 301.260,79.691 301.406,80.309 299.333,81.000" stroke-width="14.879" stroke="rgb(33,33,33)" fill="none" stroke-linecap="round"></path><path d="M 299.333,81.000 C 298.406,81.309 298.333,81.000 297.333,81.000" stroke-width="15.346" stroke="rgb(33,33,33)" fill="none" stroke-linecap="round"></path><path d="M 297.333,81.000 C 297.333,81.000 297.333,81.000 297.333,81.000" stroke-width="16.127" stroke="rgb(33,33,33)" fill="none" stroke-linecap="round"></path><path d="M 297.333,81.000 C 296.333,81.000 296.333,81.000 295.333,81.000" stroke-width="16.393" stroke="rgb(33,33,33)" fill="none" stroke-linecap="round"></path><path d="M 295.333,81.000 C 295.333,81.000 295.333,81.000 295.333,81.000" stroke-width="17.042" stroke="rgb(33,33,33)" fill="none" stroke-linecap="round"></path><path d="M 295.333,81.000 C 294.333,81.000 294.333,81.000 293.333,81.000" stroke-width="17.141" stroke="rgb(33,33,33)" fill="none" stroke-linecap="round"></path><path d="M 293.333,81.000 C 293.333,81.000 293.333,81.000 293.333,81.000" stroke-width="17.684" stroke="rgb(33,33,33)" fill="none" stroke-linecap="round"></path><path d="M 293.333,81.000 C 293.333,80.000 292.833,79.500 293.333,79.000" stroke-width="18.038" stroke="rgb(33,33,33)" fill="none" stroke-linecap="round"></path><path d="M 293.333,79.000 C 293.833,78.500 294.333,79.000 295.333,79.000" stroke-width="17.898" stroke="rgb(33,33,33)" fill="none" stroke-linecap="round"></path><path d="M 295.333,79.000 C 295.333,79.000 295.333,79.000 295.333,79.000" stroke-width="18.323" stroke="rgb(33,33,33)" fill="none" stroke-linecap="round"></path><path d="M 295.333,79.000 C 296.333,79.000 296.333,79.000 297.333,79.000" stroke-width="18.122" stroke="rgb(33,33,33)" fill="none" stroke-linecap="round"></path><path d="M 297.333,79.000 C 300.333,79.000 300.370,79.370 303.333,79.000" stroke-width="17.632" stroke="rgb(33,33,33)" fill="none" stroke-linecap="round"></path><path d="M 303.333,79.000 C 308.370,78.370 308.333,78.000 313.333,77.000" stroke-width="15.713" stroke="rgb(33,33,33)" fill="none" stroke-linecap="round"></path><path d="M 313.333,77.000 C 318.333,76.000 318.280,75.459 323.333,75.000" stroke-width="14.296" stroke="rgb(33,33,33)" fill="none" stroke-linecap="round"></path><path d="M 323.333,75.000 C 329.280,74.459 329.406,75.593 335.333,75.000" stroke-width="13.053" stroke="rgb(33,33,33)" fill="none" stroke-linecap="round"></path><path d="M 335.333,75.000 C 339.406,74.593 339.260,73.407 343.333,73.000" stroke-width="12.829" stroke="rgb(33,33,33)" fill="none" stroke-linecap="round"></path><path d="M 343.333,73.000 C 349.260,72.407 349.333,73.000 355.333,73.000" stroke-width="12.047" stroke="rgb(33,33,33)" fill="none" stroke-linecap="round"></path><path d="M 355.333,73.000 C 363.333,73.000 363.364,72.502 371.333,73.000" stroke-width="11.031" stroke="rgb(33,33,33)" fill="none" stroke-linecap="round"></path><path d="M 371.333,73.000 C 379.364,73.502 379.302,74.498 387.333,75.000" stroke-width="10.565" stroke="rgb(33,33,33)" fill="none" stroke-linecap="round"></path><path d="M 387.333,75.000 C 395.302,75.498 395.371,74.469 403.333,75.000" stroke-width="10.230" stroke="rgb(33,33,33)" fill="none" stroke-linecap="round"></path><path d="M 403.333,75.000 C 410.371,75.469 410.298,76.497 417.333,77.000" stroke-width="10.198" stroke="rgb(33,33,33)" fill="none" stroke-linecap="round"></path><path d="M 417.333,77.000 C 424.298,77.497 424.378,76.465 431.333,77.000" stroke-width="10.016" stroke="rgb(33,33,33)" fill="none" stroke-linecap="round"></path><path d="M 431.333,77.000 C 437.378,77.465 437.292,78.497 443.333,79.000" stroke-width="10.102" stroke="rgb(33,33,33)" fill="none" stroke-linecap="round"></path><path d="M 443.333,79.000 C 449.292,79.497 449.406,78.407 455.333,79.000" stroke-width="10.106" stroke="rgb(33,33,33)" fill="none" stroke-linecap="round"></path><path d="M 455.333,79.000 C 459.406,79.407 459.273,80.492 463.333,81.000" stroke-width="10.586" stroke="rgb(33,33,33)" fill="none" stroke-linecap="round"></path><path d="M 463.333,81.000 C 467.273,81.492 467.333,81.000 471.333,81.000" stroke-width="10.796" stroke="rgb(33,33,33)" fill="none" stroke-linecap="round"></path><path d="M 471.333,81.000 C 474.333,81.000 474.469,80.427 477.333,81.000" stroke-width="11.246" stroke="rgb(33,33,33)" fill="none" stroke-linecap="round"></path><path d="M 477.333,81.000 C 479.469,81.427 479.222,82.472 481.333,83.000" stroke-width="11.847" stroke="rgb(33,33,33)" fill="none" stroke-linecap="round"></path><path d="M 481.333,83.000 C 483.222,83.472 483.333,83.000 485.333,83.000" stroke-width="12.392" stroke="rgb(33,33,33)" fill="none" stroke-linecap="round"></path><path d="M 485.333,83.000 C 486.333,83.000 486.406,82.691 487.333,83.000" stroke-width="13.185" stroke="rgb(33,33,33)" fill="none" stroke-linecap="round"></path><path d="M 487.333,83.000 C 489.406,83.691 489.260,84.309 491.333,85.000" stroke-width="13.523" stroke="rgb(33,33,33)" fill="none" stroke-linecap="round"></path><path d="M 491.333,85.000 C 492.260,85.309 492.333,85.000 493.333,85.000" stroke-width="14.173" stroke="rgb(33,33,33)" fill="none" stroke-linecap="round"></path><path d="M 493.333,85.000 C 495.333,85.000 495.445,84.528 497.333,85.000" stroke-width="14.304" stroke="rgb(33,33,33)" fill="none" stroke-linecap="round"></path><path d="M 497.333,85.000 C 499.445,85.528 499.260,86.309 501.333,87.000" stroke-width="14.545" stroke="rgb(33,33,33)" fill="none" stroke-linecap="round"></path><path d="M 501.333,87.000 C 502.260,87.309 502.505,86.586 503.333,87.000" stroke-width="15.032" stroke="rgb(33,33,33)" fill="none" stroke-linecap="round"></path><path d="M 503.333,87.000 C 504.505,87.586 504.333,88.000 505.333,89.000" stroke-width="15.285" stroke="rgb(33,33,33)" fill="none" stroke-linecap="round"></path><path d="M 505.333,89.000 C 505.333,89.000 505.333,89.000 505.333,89.000" stroke-width="16.073" stroke="rgb(33,33,33)" fill="none" stroke-linecap="round"></path><path d="M 505.333,89.000 C 506.333,89.000 506.833,88.500 507.333,89.000" stroke-width="16.348" stroke="rgb(33,33,33)" fill="none" stroke-linecap="round"></path><path d="M 507.333,89.000 C 507.833,89.500 506.833,90.500 507.333,91.000" stroke-width="16.541" stroke="rgb(33,33,33)" fill="none" stroke-linecap="round"></path><path d="M 507.333,91.000 C 507.833,91.500 508.333,91.000 509.333,91.000" stroke-width="16.733" stroke="rgb(33,33,33)" fill="none" stroke-linecap="round"></path><path d="M 509.333,91.000 C 509.333,91.000 509.333,91.000 509.333,91.000" stroke-width="17.335" stroke="rgb(33,33,33)" fill="none" stroke-linecap="round"></path><path d="M 509.333,91.000 C 508.333,91.000 508.260,90.691 507.333,91.000" stroke-width="17.411" stroke="rgb(33,33,33)" fill="none" stroke-linecap="round"></path><path d="M 507.333,91.000 C 505.260,91.691 505.496,92.691 503.333,93.000" stroke-width="16.805" stroke="rgb(33,33,33)" fill="none" stroke-linecap="round"></path><path d="M 503.333,93.000 C 498.496,93.691 498.296,92.549 493.333,93.000" stroke-width="15.218" stroke="rgb(33,33,33)" fill="none" stroke-linecap="round"></path><path d="M 493.333,93.000 C 487.296,93.549 487.216,93.529 481.333,95.000" stroke-width="14.079" stroke="rgb(33,33,33)" fill="none" stroke-linecap="round"></path><path d="M 481.333,95.000 C 475.216,96.529 475.450,97.471 469.333,99.000" stroke-width="12.968" stroke="rgb(33,33,33)" fill="none" stroke-linecap="round"></path><path d="M 469.333,99.000 C 463.450,100.471 463.216,99.529 457.333,101.000" stroke-width="12.375" stroke="rgb(33,33,33)" fill="none" stroke-linecap="round"></path><path d="M 457.333,101.000 C 451.216,102.529 451.065,102.452 445.333,105.000" stroke-width="11.886" stroke="rgb(33,33,33)" fill="none" stroke-linecap="round"></path><path d="M 445.333,105.000 C 442.065,106.452 442.458,107.215 439.333,109.000" stroke-width="12.031" stroke="rgb(33,33,33)" fill="none" stroke-linecap="round"></path><path d="M 439.333,109.000 C 435.458,111.215 434.655,110.232 431.333,113.000" stroke-width="12.095" stroke="rgb(33,33,33)" fill="none" stroke-linecap="round"></path><path d="M 431.333,113.000 C 428.655,115.232 429.630,116.244 427.333,119.000" stroke-width="12.202" stroke="rgb(33,33,33)" fill="none" stroke-linecap="round"></path><path d="M 427.333,119.000 C 424.630,122.244 423.860,121.631 421.333,125.000" stroke-width="12.212" stroke="rgb(33,33,33)" fill="none" stroke-linecap="round"></path><path d="M 421.333,125.000 C 417.860,129.631 418.333,130.000 415.333,135.000" stroke-width="11.767" stroke="rgb(33,33,33)" fill="none" stroke-linecap="round"></path><path d="M 415.333,135.000 C 412.333,140.000 411.291,139.616 409.333,145.000" stroke-width="11.531" stroke="rgb(33,33,33)" fill="none" stroke-linecap="round"></path><path d="M 409.333,145.000 C 407.291,150.616 408.333,151.000 407.333,157.000" stroke-width="11.300" stroke="rgb(33,33,33)" fill="none" stroke-linecap="round"></path><path d="M 407.333,157.000 C 406.333,163.000 405.798,162.956 405.333,169.000" stroke-width="11.121" stroke="rgb(33,33,33)" fill="none" stroke-linecap="round"></path><path d="M 405.333,169.000 C 404.798,175.956 405.333,176.000 405.333,183.000" stroke-width="10.817" stroke="rgb(33,33,33)" fill="none" stroke-linecap="round"></path><path d="M 405.333,183.000 C 405.333,189.000 404.430,189.127 405.333,195.000" stroke-width="10.758" stroke="rgb(33,33,33)" fill="none" stroke-linecap="round"></path><path d="M 405.333,195.000 C 406.430,202.127 407.333,202.000 409.333,209.000" stroke-width="10.393" stroke="rgb(33,33,33)" fill="none" stroke-linecap="round"></path><path d="M 409.333,209.000 C 411.333,216.000 410.486,216.357 413.333,223.000" stroke-width="10.296" stroke="rgb(33,33,33)" fill="none" stroke-linecap="round"></path><path d="M 413.333,223.000 C 416.486,230.357 417.474,229.925 421.333,237.000" stroke-width="9.916" stroke="rgb(33,33,33)" fill="none" stroke-linecap="round"></path><path d="M 421.333,237.000 C 423.474,240.925 422.973,241.223 425.333,245.000" stroke-width="10.213" stroke="rgb(33,33,33)" fill="none" stroke-linecap="round"></path><path d="M 425.333,245.000 C 427.973,249.223 428.088,249.213 431.333,253.000" stroke-width="10.497" stroke="rgb(33,33,33)" fill="none" stroke-linecap="round"></path><path d="M 431.333,253.000 C 434.088,256.213 434.333,256.000 437.333,259.000" stroke-width="10.744" stroke="rgb(33,33,33)" fill="none" stroke-linecap="round"></path><path d="M 437.333,259.000 C 439.333,261.000 439.166,261.193 441.333,263.000" stroke-width="11.283" stroke="rgb(33,33,33)" fill="none" stroke-linecap="round"></path><path d="M 441.333,263.000 C 445.166,266.193 445.547,265.754 449.333,269.000" stroke-width="11.385" stroke="rgb(33,33,33)" fill="none" stroke-linecap="round"></path><path d="M 449.333,269.000 C 452.547,271.754 451.651,273.159 455.333,275.000" stroke-width="12.125" stroke="rgb(33,33,33)" fill="none" stroke-linecap="round"></path><path d="M 455.333,275.000 C 461.651,278.159 462.207,277.904 469.333,279.000" stroke-width="11.384" stroke="rgb(33,33,33)" fill="none" stroke-linecap="round"></path><path d="M 469.333,279.000 C 475.207,279.904 475.333,279.000 481.333,279.000" stroke-width="10.998" stroke="rgb(33,33,33)" fill="none" stroke-linecap="round"></path><path d="M 481.333,279.000 C 488.333,279.000 488.369,279.497 495.333,279.000" stroke-width="10.506" stroke="rgb(33,33,33)" fill="none" stroke-linecap="round"></path><path d="M 495.333,279.000 C 502.369,278.497 502.423,278.382 509.333,277.000" stroke-width="10.239" stroke="rgb(33,33,33)" fill="none" stroke-linecap="round"></path><path d="M 509.333,277.000 C 512.423,276.382 512.434,276.243 515.333,275.000" stroke-width="10.774" stroke="rgb(33,33,33)" fill="none" stroke-linecap="round"></path><path d="M 515.333,275.000 C 519.434,273.243 519.458,273.215 523.333,271.000" stroke-width="10.645" stroke="rgb(33,33,33)" fill="none" stroke-linecap="round"></path><path d="M 523.333,271.000 C 526.458,269.215 526.833,269.500 529.333,267.000" stroke-width="10.993" stroke="rgb(33,33,33)" fill="none" stroke-linecap="round"></path><path d="M 529.333,267.000 C 531.833,264.500 530.833,263.500 533.333,261.000" stroke-width="11.481" stroke="rgb(33,33,33)" fill="none" stroke-linecap="round"></path><path d="M 533.333,261.000 C 535.833,258.500 536.460,259.155 539.333,257.000" stroke-width="11.814" stroke="rgb(33,33,33)" fill="none" stroke-linecap="round"></path><path d="M 539.333,257.000 C 540.460,256.155 540.333,256.000 541.333,255.000" stroke-width="12.586" stroke="rgb(33,33,33)" fill="none" stroke-linecap="round"></path><path d="M 541.333,255.000 C 543.333,253.000 543.658,253.234 545.333,251.000" stroke-width="12.959" stroke="rgb(33,33,33)" fill="none" stroke-linecap="round"></path><path d="M 545.333,251.000 C 546.658,249.234 546.805,249.111 547.333,247.000" stroke-width="13.476" stroke="rgb(33,33,33)" fill="none" stroke-linecap="round"></path><path d="M 547.333,247.000 C 547.805,245.111 546.861,244.889 547.333,243.000" stroke-width="13.877" stroke="rgb(33,33,33)" fill="none" stroke-linecap="round"></path><path d="M 547.333,243.000 C 547.861,240.889 548.805,241.111 549.333,239.000" stroke-width="13.978" stroke="rgb(33,33,33)" fill="none" stroke-linecap="round"></path><path d="M 549.333,239.000 C 549.805,237.111 549.333,237.000 549.333,235.000" stroke-width="14.072" stroke="rgb(33,33,33)" fill="none" stroke-linecap="round"></path><path d="M 549.333,235.000 C 549.333,233.000 549.721,232.937 549.333,231.000" stroke-width="14.379" stroke="rgb(33,33,33)" fill="none" stroke-linecap="round"></path><path d="M 549.333,231.000 C 548.721,227.937 548.715,227.764 547.333,225.000" stroke-width="14.140" stroke="rgb(33,33,33)" fill="none" stroke-linecap="round"></path><path d="M 547.333,225.000 C 546.715,223.764 546.333,224.000 545.333,223.000" stroke-width="14.610" stroke="rgb(33,33,33)" fill="none" stroke-linecap="round"></path><path d="M 545.333,223.000 C 543.333,221.000 543.567,220.675 541.333,219.000" stroke-width="14.432" stroke="rgb(33,33,33)" fill="none" stroke-linecap="round"></path><path d="M 541.333,219.000 C 539.567,217.675 539.404,217.828 537.333,217.000" stroke-width="14.606" stroke="rgb(33,33,33)" fill="none" stroke-linecap="round"></path><path d="M 537.333,217.000 C 534.404,215.828 534.333,216.000 531.333,215.000" stroke-width="14.316" stroke="rgb(33,33,33)" fill="none" stroke-linecap="round"></path><path d="M 531.333,215.000 C 528.333,214.000 528.396,213.613 525.333,213.000" stroke-width="14.172" stroke="rgb(33,33,33)" fill="none" stroke-linecap="round"></path><path d="M 525.333,213.000 C 523.396,212.613 523.333,213.000 521.333,213.000" stroke-width="14.364" stroke="rgb(33,33,33)" fill="none" stroke-linecap="round"></path><path d="M 521.333,213.000 C 520.333,213.000 520.333,213.000 519.333,213.000" stroke-width="14.929" stroke="rgb(33,33,33)" fill="none" stroke-linecap="round"></path><path d="M 519.333,213.000 C 517.333,213.000 517.333,213.000 515.333,213.000" stroke-width="14.980" stroke="rgb(33,33,33)" fill="none" stroke-linecap="round"></path><path d="M 515.333,213.000 C 514.333,213.000 514.333,213.000 513.333,213.000" stroke-width="15.432" stroke="rgb(33,33,33)" fill="none" stroke-linecap="round"></path><path d="M 513.333,213.000 C 513.333,213.000 513.333,213.000 513.333,213.000" stroke-width="16.203" stroke="rgb(33,33,33)" fill="none" stroke-linecap="round"></path><path d="M 513.333,213.000 C 512.333,213.000 512.333,213.000 511.333,213.000" stroke-width="16.485" stroke="rgb(33,33,33)" fill="none" stroke-linecap="round"></path><path d="M 511.333,213.000 C 511.333,213.000 511.333,213.000 511.333,213.000" stroke-width="17.122" stroke="rgb(33,33,33)" fill="none" stroke-linecap="round"></path><path d="M 511.333,213.000 C 511.333,212.000 511.333,212.000 511.333,211.000" stroke-width="17.206" stroke="rgb(33,33,33)" fill="none" stroke-linecap="round"></path><path d="M 511.333,211.000 C 511.333,211.000 511.333,211.000 511.333,211.000" stroke-width="17.739" stroke="rgb(33,33,33)" fill="none" stroke-linecap="round"></path><path d="M 511.333,211.000 C 513.333,211.000 513.445,211.472 515.333,211.000" stroke-width="17.237" stroke="rgb(33,33,33)" fill="none" stroke-linecap="round"></path><path d="M 515.333,211.000 C 517.445,210.472 517.182,209.359 519.333,209.000" stroke-width="16.755" stroke="rgb(33,33,33)" fill="none" stroke-linecap="round"></path><path d="M 519.333,209.000 C 523.182,208.359 523.333,209.000 527.333,209.000" stroke-width="15.698" stroke="rgb(33,33,33)" fill="none" stroke-linecap="round"></path><path d="M 527.333,209.000 C 531.333,209.000 531.424,209.558 535.333,209.000" stroke-width="14.944" stroke="rgb(33,33,33)" fill="none" stroke-linecap="round"></path><path d="M 535.333,209.000 C 538.424,208.558 538.243,207.442 541.333,207.000" stroke-width="14.734" stroke="rgb(33,33,33)" fill="none" stroke-linecap="round"></path><path d="M 541.333,207.000 C 545.243,206.442 545.333,207.000 549.333,207.000" stroke-width="14.014" stroke="rgb(33,33,33)" fill="none" stroke-linecap="round"></path><path d="M 549.333,207.000 C 551.333,207.000 551.374,207.327 553.333,207.000" stroke-width="14.286" stroke="rgb(33,33,33)" fill="none" stroke-linecap="round"></path><path d="M 553.333,207.000 C 557.374,206.327 557.333,206.000 561.333,205.000" stroke-width="13.862" stroke="rgb(33,33,33)" fill="none" stroke-linecap="round"></path><path d="M 561.333,205.000 C 561.333,205.000 561.333,205.000 561.333,205.000" stroke-width="14.795" stroke="rgb(33,33,33)" fill="none" stroke-linecap="round"></path><path d="M 561.333,205.000 C 561.333,204.000 561.642,203.927 561.333,203.000" stroke-width="15.210" stroke="rgb(33,33,33)" fill="none" stroke-linecap="round"></path><path d="M 561.333,203.000 C 560.642,200.927 560.162,201.071 559.333,199.000" stroke-width="15.040" stroke="rgb(33,33,33)" fill="none" stroke-linecap="round"></path><path d="M 559.333,199.000 C 558.162,196.071 557.775,196.091 557.333,193.000" stroke-width="15.228" stroke="rgb(33,33,33)" fill="none" stroke-linecap="round"></path><path d="M 557.333,193.000 C 556.775,189.091 557.730,188.967 557.333,185.000" stroke-width="14.222" stroke="rgb(33,33,33)" fill="none" stroke-linecap="round"></path><path d="M 557.333,185.000 C 556.730,178.967 556.333,179.000 555.333,173.000" stroke-width="12.979" stroke="rgb(33,33,33)" fill="none" stroke-linecap="round"></path><path d="M 555.333,173.000 C 554.333,167.000 554.333,167.000 553.333,161.000" stroke-width="13.031" stroke="rgb(33,33,33)" fill="none" stroke-linecap="round"></path><path d="M 553.333,161.000 C 552.333,155.000 551.737,155.049 551.333,149.000" stroke-width="12.303" stroke="rgb(33,33,33)" fill="none" stroke-linecap="round"></path><path d="M 551.333,149.000 C 550.737,140.049 551.861,139.967 551.333,131.000" stroke-width="10.981" stroke="rgb(33,33,33)" fill="none" stroke-linecap="round"></path><path d="M 551.333,131.000 C 550.861,122.967 549.907,123.027 549.333,115.000" stroke-width="10.288" stroke="rgb(33,33,33)" fill="none" stroke-linecap="round"></path><path d="M 549.333,115.000 C 548.907,109.027 549.926,108.927 549.333,103.000" stroke-width="10.335" stroke="rgb(33,33,33)" fill="none" stroke-linecap="round"></path><path d="M 549.333,103.000 C 548.926,98.927 547.841,99.061 547.333,95.000" stroke-width="10.561" stroke="rgb(33,33,33)" fill="none" stroke-linecap="round"></path><path d="M 547.333,95.000 C 546.841,91.061 547.333,91.000 547.333,87.000" stroke-width="10.957" stroke="rgb(33,33,33)" fill="none" stroke-linecap="round"></path><path d="M 547.333,87.000 C 547.333,84.000 547.333,84.000 547.333,81.000" stroke-width="11.435" stroke="rgb(33,33,33)" fill="none" stroke-linecap="round"></path><path d="M 547.333,81.000 C 547.333,78.000 547.333,78.000 547.333,75.000" stroke-width="11.734" stroke="rgb(33,33,33)" fill="none" stroke-linecap="round"></path><path d="M 547.333,75.000 C 547.333,72.000 547.333,72.000 547.333,69.000" stroke-width="12.152" stroke="rgb(33,33,33)" fill="none" stroke-linecap="round"></path><path d="M 547.333,69.000 C 547.333,67.000 547.333,67.000 547.333,65.000" stroke-width="12.699" stroke="rgb(33,33,33)" fill="none" stroke-linecap="round"></path><path d="M 547.333,65.000 C 547.333,64.000 547.333,64.000 547.333,63.000" stroke-width="13.442" stroke="rgb(33,33,33)" fill="none" stroke-linecap="round"></path><path d="M 547.333,63.000 C 547.333,62.000 547.333,62.000 547.333,61.000" stroke-width="14.077" stroke="rgb(33,33,33)" fill="none" stroke-linecap="round"></path><path d="M 547.333,61.000 C 547.333,61.000 547.333,61.000 547.333,61.000" stroke-width="14.991" stroke="rgb(33,33,33)" fill="none" stroke-linecap="round"></path><path d="M 547.333,61.000 C 547.333,60.000 547.333,58.500 547.333,59.000" stroke-width="15.411" stroke="rgb(33,33,33)" fill="none" stroke-linecap="round"></path><path d="M 547.333,59.000 C 547.333,60.500 546.462,62.168 547.333,65.000" stroke-width="15.609" stroke="rgb(33,33,33)" fill="none" stroke-linecap="round"></path><path d="M 547.333,65.000 C 550.462,75.168 552.300,74.687 555.333,85.000" stroke-width="12.681" stroke="rgb(33,33,33)" fill="none" stroke-linecap="round"></path><path d="M 555.333,85.000 C 562.300,108.687 560.487,109.239 567.333,133.000" stroke-width="9.475" stroke="rgb(33,33,33)" fill="none" stroke-linecap="round"></path><path d="M 567.333,133.000 C 577.487,168.239 578.444,167.966 589.333,203.000" stroke-width="6.750" stroke="rgb(33,33,33)" fill="none" stroke-linecap="round"></path><path d="M 589.333,203.000 C 601.444,241.966 601.706,241.889 613.333,281.000" stroke-width="6.750" stroke="rgb(33,33,33)" fill="none" stroke-linecap="round"></path><path d="M 613.333,281.000 C 623.706,315.889 623.185,316.043 633.333,351.000" stroke-width="6.750" stroke="rgb(33,33,33)" fill="none" stroke-linecap="round"></path><path d="M 633.333,351.000 C 641.185,378.043 642.041,377.820 649.333,405.000" stroke-width="6.750" stroke="rgb(33,33,33)" fill="none" stroke-linecap="round"></path><path d="M 649.333,405.000 C 653.041,418.820 652.526,418.963 655.333,433.000" stroke-width="6.750" stroke="rgb(33,33,33)" fill="none" stroke-linecap="round"></path><path d="M 655.333,433.000 C 656.526,438.963 656.017,439.078 657.333,445.000" stroke-width="6.750" stroke="rgb(33,33,33)" fill="none" stroke-linecap="round"></path><path d="M 657.333,445.000 C 658.017,448.078 658.333,448.000 659.333,451.000" stroke-width="6.750" stroke="rgb(33,33,33)" fill="none" stroke-linecap="round"></path><path d="M 659.333,451.000 C 660.333,454.000 660.333,454.000 661.333,457.000" stroke-width="6.750" stroke="rgb(33,33,33)" fill="none" stroke-linecap="round"></path><path d="M 661.333,457.000 C 662.333,460.000 662.162,460.071 663.333,463.000" stroke-width="7.464" stroke="rgb(33,33,33)" fill="none" stroke-linecap="round"></path><path d="M 663.333,463.000 C 664.162,465.071 664.333,465.000 665.333,467.000" stroke-width="8.283" stroke="rgb(33,33,33)" fill="none" stroke-linecap="round"></path><path d="M 665.333,467.000 C 665.333,467.000 665.333,467.000 665.333,467.000" stroke-width="9.393" stroke="rgb(33,33,33)" fill="none" stroke-linecap="round"></path><path d="M 665.333,467.000 C 665.333,463.000 665.333,463.000 665.333,459.000" stroke-width="9.931" stroke="rgb(33,33,33)" fill="none" stroke-linecap="round"></path><path d="M 665.333,459.000 C 665.333,442.000 666.635,441.926 665.333,425.000" stroke-width="8.740" stroke="rgb(33,33,33)" fill="none" stroke-linecap="round"></path><path d="M 665.333,425.000 C 662.635,389.926 661.177,390.017 657.333,355.000" stroke-width="6.750" stroke="rgb(33,33,33)" fill="none" stroke-linecap="round"></path><path d="M 657.333,355.000 C 652.177,308.017 653.261,307.881 647.333,261.000" stroke-width="6.750" stroke="rgb(33,33,33)" fill="none" stroke-linecap="round"></path><path d="M 647.333,261.000 C 642.261,220.881 640.880,221.061 635.333,181.000" stroke-width="6.750" stroke="rgb(33,33,33)" fill="none" stroke-linecap="round"></path><path d="M 635.333,181.000 C 631.880,156.061 633.255,155.839 629.333,131.000" stroke-width="6.750" stroke="rgb(33,33,33)" fill="none" stroke-linecap="round"></path><path d="M 629.333,131.000 C 627.255,117.839 625.948,118.072 623.333,105.000" stroke-width="6.750" stroke="rgb(33,33,33)" fill="none" stroke-linecap="round"></path><path d="M 623.333,105.000 C 621.948,98.072 621.972,98.026 621.333,91.000" stroke-width="6.750" stroke="rgb(33,33,33)" fill="none" stroke-linecap="round"></path><path d="M 621.333,91.000 C 620.972,87.026 621.773,86.956 621.333,83.000" stroke-width="6.750" stroke="rgb(33,33,33)" fill="none" stroke-linecap="round"></path><path d="M 621.333,83.000 C 620.773,77.956 620.439,77.976 619.333,73.000" stroke-width="6.750" stroke="rgb(33,33,33)" fill="none" stroke-linecap="round"></path><path d="M 619.333,73.000 C 618.439,68.976 618.007,69.040 617.333,65.000" stroke-width="6.940" stroke="rgb(33,33,33)" fill="none" stroke-linecap="round"></path><path d="M 617.333,65.000 C 617.007,63.040 617.919,62.757 617.333,61.000" stroke-width="7.785" stroke="rgb(33,33,33)" fill="none" stroke-linecap="round"></path><path d="M 617.333,61.000 C 616.919,59.757 615.919,60.172 615.333,59.000" stroke-width="8.724" stroke="rgb(33,33,33)" fill="none" stroke-linecap="round"></path><path d="M 615.333,59.000 C 614.919,58.172 615.333,57.000 615.333,57.000" stroke-width="9.688" stroke="rgb(33,33,33)" fill="none" stroke-linecap="round"></path><path d="M 615.333,57.000 C 615.333,57.000 615.333,58.000 615.333,59.000" stroke-width="10.641" stroke="rgb(33,33,33)" fill="none" stroke-linecap="round"></path><path d="M 615.333,59.000 C 615.333,63.000 615.333,63.000 615.333,67.000" stroke-width="10.973" stroke="rgb(33,33,33)" fill="none" stroke-linecap="round"></path><path d="M 615.333,67.000 C 615.333,80.000 615.333,80.000 615.333,93.000" stroke-width="9.598" stroke="rgb(33,33,33)" fill="none" stroke-linecap="round"></path><path d="M 615.333,93.000 C 615.333,116.000 615.333,116.000 615.333,139.000" stroke-width="7.802" stroke="rgb(33,33,33)" fill="none" stroke-linecap="round"></path><path d="M 615.333,139.000 C 615.333,164.000 615.333,164.000 615.333,189.000" stroke-width="6.771" stroke="rgb(33,33,33)" fill="none" stroke-linecap="round"></path><path d="M 615.333,189.000 C 615.333,208.000 615.945,208.025 615.333,227.000" stroke-width="6.750" stroke="rgb(33,33,33)" fill="none" stroke-linecap="round"></path><path d="M 615.333,227.000 C 614.945,239.025 613.934,238.983 613.333,251.000" stroke-width="6.750" stroke="rgb(33,33,33)" fill="none" stroke-linecap="round"></path><path d="M 613.333,251.000 C 612.934,258.983 613.333,259.000 613.333,267.000" stroke-width="6.778" stroke="rgb(33,33,33)" fill="none" stroke-linecap="round"></path><path d="M 613.333,267.000 C 613.333,272.000 613.881,272.067 613.333,277.000" stroke-width="7.380" stroke="rgb(33,33,33)" fill="none" stroke-linecap="round"></path><path d="M 613.333,277.000 C 612.881,281.067 611.912,280.948 611.333,285.000" stroke-width="8.029" stroke="rgb(33,33,33)" fill="none" stroke-linecap="round"></path><path d="M 611.333,285.000 C 610.912,287.948 611.333,288.000 611.333,291.000" stroke-width="8.767" stroke="rgb(33,33,33)" fill="none" stroke-linecap="round"></path><path d="M 611.333,291.000 C 611.333,292.000 611.333,292.000 611.333,293.000" stroke-width="9.742" stroke="rgb(33,33,33)" fill="none" stroke-linecap="round"></path><path d="M 611.333,293.000 C 611.333,294.000 611.333,295.000 611.333,295.000" stroke-width="10.706" stroke="rgb(33,33,33)" fill="none" stroke-linecap="round"></path><path d="M 611.333,295.000 C 611.333,295.000 611.024,293.927 611.333,293.000" stroke-width="11.710" stroke="rgb(33,33,33)" fill="none" stroke-linecap="round"></path><path d="M 611.333,293.000 C 612.024,290.927 612.333,291.000 613.333,289.000" stroke-width="12.214" stroke="rgb(33,33,33)" fill="none" stroke-linecap="round"></path><path d="M 613.333,289.000 C 614.333,287.000 614.108,286.838 615.333,285.000" stroke-width="12.734" stroke="rgb(33,33,33)" fill="none" stroke-linecap="round"></path><path d="M 615.333,285.000 C 616.108,283.838 616.748,284.172 617.333,283.000" stroke-width="13.328" stroke="rgb(33,33,33)" fill="none" stroke-linecap="round"></path><path d="M 617.333,283.000 C 617.748,282.172 616.715,281.618 617.333,281.000" stroke-width="13.977" stroke="rgb(33,33,33)" fill="none" stroke-linecap="round"></path><path d="M 617.333,281.000 C 618.715,279.618 619.260,279.691 621.333,279.000" stroke-width="14.182" stroke="rgb(33,33,33)" fill="none" stroke-linecap="round"></path><path d="M 621.333,279.000 C 622.260,278.691 622.550,278.478 623.333,279.000" stroke-width="14.772" stroke="rgb(33,33,33)" fill="none" stroke-linecap="round"></path><path d="M 623.333,279.000 C 625.550,280.478 625.575,280.802 627.333,283.000" stroke-width="14.469" stroke="rgb(33,33,33)" fill="none" stroke-linecap="round"></path><path d="M 627.333,283.000 C 629.575,285.802 629.729,285.792 631.333,289.000" stroke-width="14.234" stroke="rgb(33,33,33)" fill="none" stroke-linecap="round"></path><path d="M 631.333,289.000 C 633.729,293.792 633.443,293.960 635.333,299.000" stroke-width="13.466" stroke="rgb(33,33,33)" fill="none" stroke-linecap="round"></path><path d="M 635.333,299.000 C 636.443,301.960 636.162,302.071 637.333,305.000" stroke-width="13.497" stroke="rgb(33,33,33)" fill="none" stroke-linecap="round"></path><path d="M 637.333,305.000 C 638.162,307.071 638.805,306.889 639.333,309.000" stroke-width="13.830" stroke="rgb(33,33,33)" fill="none" stroke-linecap="round"></path><path d="M 639.333,309.000 C 639.805,310.889 638.667,311.667 639.333,313.000" stroke-width="14.023" stroke="rgb(33,33,33)" fill="none" stroke-linecap="round"></path><path d="M 639.333,313.000 C 639.667,313.667 640.833,312.500 641.333,313.000" stroke-width="14.610" stroke="rgb(33,33,33)" fill="none" stroke-linecap="round"></path><path d="M 641.333,313.000 C 641.833,313.500 640.833,314.500 641.333,315.000" stroke-width="15.117" stroke="rgb(33,33,33)" fill="none" stroke-linecap="round"></path><path d="M 641.333,315.000 C 641.833,315.500 642.682,315.651 643.333,315.000" stroke-width="15.574" stroke="rgb(33,33,33)" fill="none" stroke-linecap="round"></path><path d="M 643.333,315.000 C 645.682,312.651 645.729,312.208 647.333,309.000" stroke-width="14.767" stroke="rgb(33,33,33)" fill="none" stroke-linecap="round"></path><path d="M 647.333,309.000 C 649.729,304.208 649.494,304.059 651.333,299.000" stroke-width="13.844" stroke="rgb(33,33,33)" fill="none" stroke-linecap="round"></path><path d="M 651.333,299.000 C 653.494,293.059 653.173,292.941 655.333,287.000" stroke-width="12.808" stroke="rgb(33,33,33)" fill="none" stroke-linecap="round"></path><path d="M 655.333,287.000 C 657.173,281.941 657.634,282.097 659.333,277.000" stroke-width="12.510" stroke="rgb(33,33,33)" fill="none" stroke-linecap="round"></path><path d="M 659.333,277.000 C 660.634,273.097 660.754,273.052 661.333,269.000" stroke-width="12.486" stroke="rgb(33,33,33)" fill="none" stroke-linecap="round"></path><path d="M 661.333,269.000 C 661.754,266.052 661.333,266.000 661.333,263.000" stroke-width="12.677" stroke="rgb(33,33,33)" fill="none" stroke-linecap="round"></path><path d="M 661.333,263.000 C 661.333,262.000 661.333,262.000 661.333,261.000" stroke-width="13.399" stroke="rgb(33,33,33)" fill="none" stroke-linecap="round"></path><path d="M 661.333,261.000 C 661.333,260.000 661.748,259.828 661.333,259.000" stroke-width="14.105" stroke="rgb(33,33,33)" fill="none" stroke-linecap="round"></path><path d="M 661.333,259.000 C 660.748,257.828 660.505,257.586 659.333,257.000" stroke-width="14.509" stroke="rgb(33,33,33)" fill="none" stroke-linecap="round"></path><path d="M 659.333,257.000 C 658.505,256.586 658.333,257.000 657.333,257.000" stroke-width="14.968" stroke="rgb(33,33,33)" fill="none" stroke-linecap="round"></path><path d="M 657.333,257.000 C 655.333,257.000 655.333,257.000 653.333,257.000" stroke-width="15.068" stroke="rgb(33,33,33)" fill="none" stroke-linecap="round"></path><path d="M 653.333,257.000 C 652.333,257.000 652.333,257.000 651.333,257.000" stroke-width="15.507" stroke="rgb(33,33,33)" fill="none" stroke-linecap="round"></path><path d="M 651.333,257.000 C 649.333,257.000 648.667,256.333 647.333,257.000" stroke-width="15.676" stroke="rgb(33,33,33)" fill="none" stroke-linecap="round"></path><path d="M 647.333,257.000 C 646.667,257.333 646.833,258.500 647.333,259.000" stroke-width="15.847" stroke="rgb(33,33,33)" fill="none" stroke-linecap="round"></path><path d="M 647.333,259.000 C 647.833,259.500 648.405,259.348 649.333,259.000" stroke-width="16.361" stroke="rgb(33,33,33)" fill="none" stroke-linecap="round"></path><path d="M 649.333,259.000 C 656.405,256.348 656.606,256.541 663.333,253.000" stroke-width="15.242" stroke="rgb(33,33,33)" fill="none" stroke-linecap="round"></path><path d="M 663.333,253.000 C 675.606,246.541 675.191,245.746 687.333,239.000" stroke-width="13.460" stroke="rgb(33,33,33)" fill="none" stroke-linecap="round"></path><path d="M 687.333,239.000 C 702.191,230.746 703.285,232.366 717.333,223.000" stroke-width="10.016" stroke="rgb(33,33,33)" fill="none" stroke-linecap="round"></path><path d="M 717.333,223.000 C 727.285,216.366 726.148,214.773 735.333,207.000" stroke-width="8.979" stroke="rgb(33,33,33)" fill="none" stroke-linecap="round"></path><path d="M 735.333,207.000 C 739.148,203.773 740.476,204.571 743.333,201.000" stroke-width="9.263" stroke="rgb(33,33,33)" fill="none" stroke-linecap="round"></path><path d="M 743.333,201.000 C 744.476,199.571 744.278,198.416 743.333,197.000" stroke-width="10.047" stroke="rgb(33,33,33)" fill="none" stroke-linecap="round"></path><path d="M 743.333,197.000 C 742.278,195.416 741.532,195.157 739.333,195.000" stroke-width="10.793" stroke="rgb(33,33,33)" fill="none" stroke-linecap="round"></path><path d="M 739.333,195.000 C 727.532,194.157 727.318,194.479 715.333,195.000" stroke-width="9.638" stroke="rgb(33,33,33)" fill="none" stroke-linecap="round"></path><path d="M 715.333,195.000 C 681.318,196.479 681.243,195.957 647.333,199.000" stroke-width="7.095" stroke="rgb(33,33,33)" fill="none" stroke-linecap="round"></path><path d="M 647.333,199.000 C 603.243,202.957 603.165,202.812 559.333,209.000" stroke-width="6.750" stroke="rgb(33,33,33)" fill="none" stroke-linecap="round"></path><path d="M 559.333,209.000 C 518.165,214.812 518.360,216.162 477.333,223.000" stroke-width="6.750" stroke="rgb(33,33,33)" fill="none" stroke-linecap="round"></path><path d="M 477.333,223.000 C 446.360,228.162 446.360,228.174 415.333,233.000" stroke-width="6.750" stroke="rgb(33,33,33)" fill="none" stroke-linecap="round"></path><path d="M 415.333,233.000 C 401.360,235.174 401.270,234.677 387.333,237.000" stroke-width="6.750" stroke="rgb(33,33,33)" fill="none" stroke-linecap="round"></path><path d="M 387.333,237.000 C 383.270,237.677 383.374,238.327 379.333,239.000" stroke-width="6.750" stroke="rgb(33,33,33)" fill="none" stroke-linecap="round"></path><path d="M 379.333,239.000 C 377.374,239.327 377.333,239.000 375.333,239.000" stroke-width="6.750" stroke="rgb(33,33,33)" fill="none" stroke-linecap="round"></path><path d="M 375.333,239.000 C 375.333,239.000 375.333,239.000 375.333,239.000" stroke-width="7.054" stroke="rgb(33,33,33)" fill="none" stroke-linecap="round"></path><path d="M 375.333,239.000 C 376.333,239.000 376.391,239.328 377.333,239.000" stroke-width="8.026" stroke="rgb(33,33,33)" fill="none" stroke-linecap="round"></path><path d="M 377.333,239.000 C 399.391,231.328 399.214,230.657 421.333,223.000" stroke-width="8.064" stroke="rgb(33,33,33)" fill="none" stroke-linecap="round"></path><path d="M 421.333,223.000 C 451.214,212.657 451.239,212.708 481.333,203.000" stroke-width="6.750" stroke="rgb(33,33,33)" fill="none" stroke-linecap="round"></path><path d="M 481.333,203.000 C 513.239,192.708 512.973,191.629 545.333,183.000" stroke-width="6.750" stroke="rgb(33,33,33)" fill="none" stroke-linecap="round"></path><path d="M 545.333,183.000 C 572.973,175.629 573.273,176.431 601.333,171.000" stroke-width="6.750" stroke="rgb(33,33,33)" fill="none" stroke-linecap="round"></path><path d="M 601.333,171.000 C 604.273,170.431 604.615,170.320 607.333,171.000" stroke-width="6.750" stroke="rgb(33,33,33)" fill="none" stroke-linecap="round"></path><path d="M 607.333,171.000 C 608.615,171.320 609.013,171.718 609.333,173.000" stroke-width="6.750" stroke="rgb(33,33,33)" fill="none" stroke-linecap="round"></path><path d="M 609.333,173.000 C 610.013,175.718 609.333,176.000 609.333,179.000" stroke-width="7.174" stroke="rgb(33,33,33)" fill="none" stroke-linecap="round"></path><path d="M 609.333,179.000 C 609.333,182.000 608.846,182.079 609.333,185.000" stroke-width="7.940" stroke="rgb(33,33,33)" fill="none" stroke-linecap="round"></path><path d="M 609.333,185.000 C 609.846,188.079 610.465,187.962 611.333,191.000" stroke-width="8.633" stroke="rgb(33,33,33)" fill="none" stroke-linecap="round"></path><path d="M 611.333,191.000 C 612.465,194.962 611.526,195.384 613.333,199.000" stroke-width="9.190" stroke="rgb(33,33,33)" fill="none" stroke-linecap="round"></path><path d="M 613.333,199.000 C 615.526,203.384 615.360,204.351 619.333,207.000" stroke-width="9.567" stroke="rgb(33,33,33)" fill="none" stroke-linecap="round"></path><path d="M 619.333,207.000 C 624.360,210.351 625.209,209.469 631.333,211.000" stroke-width="9.699" stroke="rgb(33,33,33)" fill="none" stroke-linecap="round"></path><path d="M 631.333,211.000 C 641.209,213.469 641.231,214.038 651.333,215.000" stroke-width="9.272" stroke="rgb(33,33,33)" fill="none" stroke-linecap="round"></path><path d="M 651.333,215.000 C 662.231,216.038 662.333,215.000 673.333,215.000" stroke-width="8.859" stroke="rgb(33,33,33)" fill="none" stroke-linecap="round"></path><path d="M 673.333,215.000 C 682.333,215.000 682.333,215.000 691.333,215.000" stroke-width="8.696" stroke="rgb(33,33,33)" fill="none" stroke-linecap="round"></path><path d="M 691.333,215.000 C 699.333,215.000 699.380,214.432 707.333,215.000" stroke-width="8.896" stroke="rgb(33,33,33)" fill="none" stroke-linecap="round"></path><path d="M 707.333,215.000 C 713.380,215.432 713.333,216.000 719.333,217.000" stroke-width="9.032" stroke="rgb(33,33,33)" fill="none" stroke-linecap="round"></path><path d="M 719.333,217.000 C 725.333,218.000 725.333,218.000 731.333,219.000" stroke-width="9.219" stroke="rgb(33,33,33)" fill="none" stroke-linecap="round"></path></svg>