<svg xmlns="http://www.w3.org/2000/svg" xmlns:xlink="http://www.w3.org/1999/xlink" viewBox="0 0 800 500"><path d="M 341.600,205.200 C 340.600,205.200 340.600,205.200 339.600,205.200" stroke-width="19.286" stroke="rgb(33,33,33)" fill="none" stroke-linecap="round"></path><path d="M 339.600,205.200 C 339.100,205.200 339.100,205.200 338.600,205.200" stroke-width="19.014" stroke="rgb(33,33,33)" fill="none" stroke-linecap="round"></path><path d="M 338.600,205.200 C 338.100,205.200 338.100,205.200 337.600,205.200" stroke-width="19.023" stroke="rgb(33,33,33)" fill="none" stroke-linecap="round"></path><path d="M 337.600,205.200 C 337.600,205.200 337.600,205.200 337.600,205.200" stroke-width="19.256" stroke="rgb(33,33,33)" fill="none" stroke-linecap="round"></path><path d="M 337.600,205.200 C 336.600,205.200 336.600,205.200 335.600,205.200" stroke-width="18.556" stroke="rgb(33,33,33)" fill="none" stroke-linecap="round"></path><path d="M 335.600,205.200 C 334.600,205.200 334.600,205.200 333.600,205.200" stroke-width="18.121" stroke="rgb(33,33,33)" fill="none" stroke-linecap="round"></path><path d="M 333.600,205.200 C 332.600,205.200 332.600,205.200 331.600,205.200" stroke-width="18.661" stroke="rgb(33,33,33)" fill="none" stroke-linecap="round"></path><path d="M 331.600,205.200 C 331.600,205.200 331.600,205.200 331.600,205.200" stroke-width="18.959" stroke="rgb(33,33,33)" fill="none" stroke-linecap="round"></path><path d="M 331.600,205.200 C 331.100,205.200 330.767,204.867 330.600,205.200" stroke-width="18.759" stroke="rgb(33,33,33)" fill="none" stroke-linecap="round"></path><path d="M 330.600,205.200 C 330.267,205.867 330.933,206.533 330.600,207.200" stroke-width="18.184" stroke="rgb(33,33,33)" fill="none" stroke-linecap="round"></path><path d="M 330.600,207.200 C 330.433,207.533 330.100,207.200 329.600,207.200" stroke-width="18.147" stroke="rgb(33,33,33)" fill="none" stroke-linecap="round"></path><path d="M 329.600,207.200 C 329.600,207.700 329.600,207.700 329.600,208.200" stroke-width="18.967" stroke="rgb(33,33,33)" fill="none" stroke-linecap="round"></path><path d="M 329.600,208.200 C 329.600,208.700 329.600,208.700 329.600,209.200" stroke-width="19.119" stroke="rgb(33,33,33)" fill="none" stroke-linecap="round"></path><path d="M 329.600,209.200 C 329.600,209.200 329.600,209.200 329.600,209.200" stroke-width="19.335" stroke="rgb(33,33,33)" fill="none" stroke-linecap="round"></path><path d="M 329.600,209.200 C 328.600,210.200 328.600,210.200 327.600,211.200" stroke-width="18.397" stroke="rgb(33,33,33)" fill="none" stroke-linecap="round"></path><path d="M 327.600,211.200 C 327.600,211.200 327.600,211.200 327.600,211.200" stroke-width="18.740" stroke="rgb(33,33,33)" fill="none" stroke-linecap="round"></path><path d="M 327.600,211.200 C 327.600,211.700 327.600,211.700 327.600,212.200" stroke-width="18.587" stroke="rgb(33,33,33)" fill="none" stroke-linecap="round"></path><path d="M 327.600,212.200 C 327.600,212.700 327.600,212.700 327.600,213.200" stroke-width="18.823" stroke="rgb(33,33,33)" fill="none" stroke-linecap="round"></path><path d="M 327.600,213.200 C 327.600,213.200 327.600,213.200 327.600,213.200" stroke-width="19.092" stroke="rgb(33,33,33)" fill="none" stroke-linecap="round"></path><path d="M 327.600,213.200 C 327.600,214.200 327.600,214.200 327.600,215.200" stroke-width="18.863" stroke="rgb(33,33,33)" fill="none" stroke-linecap="round"></path><path d="M 327.600,215.200 C 327.600,215.200 327.600,215.200 327.600,215.200" stroke-width="19.125" stroke="rgb(33,33,33)" fill="none" stroke-linecap="round"></path><path d="M 327.600,215.200 C 327.600,215.700 327.600,215.700 327.600,216.200" stroke-width="18.938" stroke="rgb(33,33,33)" fill="none" stroke-linecap="round"></path><path d="M 327.600,216.200 C 327.600,216.700 327.600,216.700 327.600,217.200" stroke-width="18.947" stroke="rgb(33,33,33)" fill="none" stroke-linecap="round"></path><path d="M 327.600,217.200 C 327.600,217.200 327.600,217.200 327.600,217.200" stroke-width="19.194" stroke="rgb(33,33,33)" fill="none" stroke-linecap="round"></path><path d="M 327.600,217.200 C 327.600,218.200 327.600,218.200 327.600,219.200" stroke-width="18.390" stroke="rgb(33,33,33)" fill="none" stroke-linecap="round"></path><path d="M 327.600,219.200 C 327.600,219.200 327.600,219.200 327.600,219.200" stroke-width="18.734" stroke="rgb(33,33,33)" fill="none" stroke-linecap="round"></path><path d="M 327.600,219.200 C 328.600,219.200 328.933,218.867 329.600,219.200" stroke-width="18.050" stroke="rgb(33,33,33)" fill="none" stroke-linecap="round"></path><path d="M 329.600,219.200 C 329.933,219.367 329.600,219.700 329.600,220.200" stroke-width="18.040" stroke="rgb(33,33,33)" fill="none" stroke-linecap="round"></path><path d="M 329.600,220.200 C 329.600,220.200 329.600,220.200 329.600,220.200" stroke-width="18.443" stroke="rgb(33,33,33)" fill="none" stroke-linecap="round"></path><path d="M 329.600,220.200 C 329.600,220.700 329.600,220.700 329.600,221.200" stroke-width="18.293" stroke="rgb(33,33,33)" fill="none" stroke-linecap="round"></path><path d="M 329.600,221.200 C 329.600,221.200 329.600,221.200 329.600,221.200" stroke-width="18.654" stroke="rgb(33,33,33)" fill="none" stroke-linecap="round"></path><path d="M 329.600,221.200 C 330.100,221.200 330.433,220.867 330.600,221.200" stroke-width="18.459" stroke="rgb(33,33,33)" fill="none" stroke-linecap="round"></path><path d="M 330.600,221.200 C 330.933,221.867 330.267,222.533 330.600,223.200" stroke-width="17.958" stroke="rgb(33,33,33)" fill="none" stroke-linecap="round"></path><path d="M 330.600,223.200 C 330.767,223.533 331.100,223.200 331.600,223.200" stroke-width="18.011" stroke="rgb(33,33,33)" fill="none" stroke-linecap="round"></path><path d="M 331.600,223.200 C 332.600,223.200 333.100,222.700 333.600,223.200" stroke-width="17.617" stroke="rgb(33,33,33)" fill="none" stroke-linecap="round"></path><path d="M 333.600,223.200 C 334.100,223.700 333.600,224.200 333.600,225.200" stroke-width="17.314" stroke="rgb(33,33,33)" fill="none" stroke-linecap="round"></path><path d="M 333.600,225.200 C 333.600,225.200 333.600,225.200 333.600,225.200" stroke-width="17.831" stroke="rgb(33,33,33)" fill="none" stroke-linecap="round"></path><path d="M 333.600,225.200 C 334.100,225.200 334.291,224.891 334.600,225.200" stroke-width="17.809" stroke="rgb(33,33,33)" fill="none" stroke-linecap="round"></path><path d="M 334.600,225.200 C 335.291,225.891 334.808,226.672 335.600,227.200" stroke-width="17.255" stroke="rgb(33,33,33)" fill="none" stroke-linecap="round"></path><path d="M 335.600,227.200 C 336.308,227.672 336.600,227.200 337.600,227.200" stroke-width="17.113" stroke="rgb(33,33,33)" fill="none" stroke-linecap="round"></path><path d="M 337.600,227.200 C 337.600,227.200 337.600,227.200 337.600,227.200" stroke-width="17.660" stroke="rgb(33,33,33)" fill="none" stroke-linecap="round"></path><path d="M 337.600,227.200 C 337.600,227.700 337.600,227.700 337.600,228.200" stroke-width="17.672" stroke="rgb(33,33,33)" fill="none" stroke-linecap="round"></path><path d="M 337.600,228.200 C 337.600,228.700 337.600,228.700 337.600,229.200" stroke-width="17.737" stroke="rgb(33,33,33)" fill="none" stroke-linecap="round"></path><path d="M 337.600,229.200 C 337.600,229.200 337.600,229.200 337.600,229.200" stroke-width="18.188" stroke="rgb(33,33,33)" fill="none" stroke-linecap="round"></path><path d="M 337.600,229.200 C 338.100,229.200 338.100,229.200 338.600,229.200" stroke-width="18.150" stroke="rgb(33,33,33)" fill="none" stroke-linecap="round"></path><path d="M 338.600,229.200 C 339.100,229.200 339.100,229.200 339.600,229.200" stroke-width="18.120" stroke="rgb(33,33,33)" fill="none" stroke-linecap="round"></path><path d="M 339.600,229.200 C 340.600,229.200 341.100,228.700 341.600,229.200" stroke-width="18.232" stroke="rgb(33,33,33)" fill="none" stroke-linecap="round"></path><path d="M 341.600,229.200 C 342.100,229.700 341.600,230.200 341.600,231.200" stroke-width="18.185" stroke="rgb(33,33,33)" fill="none" stroke-linecap="round"></path><path d="M 341.600,231.200 C 342.100,231.200 342.350,230.950 342.600,231.200" stroke-width="18.898" stroke="rgb(33,33,33)" fill="none" stroke-linecap="round"></path><path d="M 342.600,231.200 C 342.850,231.450 342.350,231.950 342.600,232.200" stroke-width="18.712" stroke="rgb(33,33,33)" fill="none" stroke-linecap="round"></path><path d="M 342.600,232.200 C 342.850,232.450 343.350,231.950 343.600,232.200" stroke-width="18.565" stroke="rgb(33,33,33)" fill="none" stroke-linecap="round"></path><path d="M 343.600,232.200 C 343.850,232.450 343.267,233.033 343.600,233.200" stroke-width="18.449" stroke="rgb(33,33,33)" fill="none" stroke-linecap="round"></path><path d="M 343.600,233.200 C 344.267,233.533 344.600,233.200 345.600,233.200" stroke-width="17.951" stroke="rgb(33,33,33)" fill="none" stroke-linecap="round"></path><path d="M 345.600,233.200 C 345.600,233.200 345.600,233.200 345.600,233.200" stroke-width="18.368" stroke="rgb(33,33,33)" fill="none" stroke-linecap="round"></path><path d="M 345.600,233.200 C 345.600,234.200 345.600,234.200 345.600,235.200" stroke-width="18.293" stroke="rgb(33,33,33)" fill="none" stroke-linecap="round"></path><path d="M 345.600,235.200 C 345.600,235.200 345.600,235.200 345.600,235.200" stroke-width="18.654" stroke="rgb(33,33,33)" fill="none" stroke-linecap="round"></path><path d="M 345.600,235.200 C 345.600,235.700 345.600,235.700 345.600,236.200" stroke-width="18.746" stroke="rgb(33,33,33)" fill="none" stroke-linecap="round"></path><path d="M 345.600,236.200 C 345.600,236.700 345.350,236.950 345.600,237.200" stroke-width="18.592" stroke="rgb(33,33,33)" fill="none" stroke-linecap="round"></path><path d="M 345.600,237.200 C 345.850,237.450 346.291,236.891 346.600,237.200" stroke-width="18.470" stroke="rgb(33,33,33)" fill="none" stroke-linecap="round"></path><path d="M 346.600,237.200 C 347.291,237.891 347.100,238.200 347.600,239.200" stroke-width="18.325" stroke="rgb(33,33,33)" fill="none" stroke-linecap="round"></path><path d="M 347.600,239.200 C 347.600,239.200 347.600,239.200 347.600,239.200" stroke-width="18.680" stroke="rgb(33,33,33)" fill="none" stroke-linecap="round"></path><path d="M 347.600,239.200 C 348.600,239.700 348.909,239.509 349.600,240.200" stroke-width="18.130" stroke="rgb(33,33,33)" fill="none" stroke-linecap="round"></path><path d="M 349.600,240.200 C 349.909,240.509 349.600,240.700 349.600,241.200" stroke-width="18.047" stroke="rgb(33,33,33)" fill="none" stroke-linecap="round"></path><path d="M 349.600,241.200 C 349.600,241.200 349.600,241.200 349.600,241.200" stroke-width="18.448" stroke="rgb(33,33,33)" fill="none" stroke-linecap="round"></path><path d="M 349.600,241.200 C 349.600,242.200 349.600,242.200 349.600,243.200" stroke-width="18.039" stroke="rgb(33,33,33)" fill="none" stroke-linecap="round"></path><path d="M 349.600,243.200 C 349.600,243.200 349.600,243.200 349.600,243.200" stroke-width="18.441" stroke="rgb(33,33,33)" fill="none" stroke-linecap="round"></path><path d="M 349.600,243.200 C 349.600,243.700 349.600,243.700 349.600,244.200" stroke-width="18.351" stroke="rgb(33,33,33)" fill="none" stroke-linecap="round"></path><path d="M 349.600,244.200 C 349.600,244.700 349.600,244.700 349.600,245.200" stroke-width="18.280" stroke="rgb(33,33,33)" fill="none" stroke-linecap="round"></path><path d="M 349.600,245.200 C 349.600,245.200 349.600,245.200 349.600,245.200" stroke-width="18.643" stroke="rgb(33,33,33)" fill="none" stroke-linecap="round"></path><path d="M 349.600,245.200 C 349.600,246.200 349.600,246.200 349.600,247.200" stroke-width="18.535" stroke="rgb(33,33,33)" fill="none" stroke-linecap="round"></path><path d="M 349.600,247.200 C 349.600,247.200 349.600,247.200 349.600,247.200" stroke-width="18.855" stroke="rgb(33,33,33)" fill="none" stroke-linecap="round"></path><path d="M 349.600,247.200 C 349.600,247.700 349.600,247.700 349.600,248.200" stroke-width="18.677" stroke="rgb(33,33,33)" fill="none" stroke-linecap="round"></path><path d="M 349.600,248.200 C 349.600,248.700 349.600,248.700 349.600,249.200" stroke-width="18.623" stroke="rgb(33,33,33)" fill="none" stroke-linecap="round"></path><path d="M 349.600,249.200 C 349.600,249.200 349.600,249.200 349.600,249.200" stroke-width="18.927" stroke="rgb(33,33,33)" fill="none" stroke-linecap="round"></path><path d="M 349.600,249.200 C 349.600,250.200 349.600,250.200 349.600,251.200" stroke-width="18.311" stroke="rgb(33,33,33)" fill="none" stroke-linecap="round"></path><path d="M 349.600,251.200 C 349.600,251.200 349.600,251.200 349.600,251.200" stroke-width="18.668" stroke="rgb(33,33,33)" fill="none" stroke-linecap="round"></path><path d="M 349.600,251.200 C 349.600,251.700 349.600,251.700 349.600,252.200" stroke-width="18.390" stroke="rgb(33,33,33)" fill="none" stroke-linecap="round"></path><path d="M 349.600,252.200 C 349.600,252.700 349.600,252.700 349.600,253.200" stroke-width="18.311" stroke="rgb(33,33,33)" fill="none" stroke-linecap="round"></path><path d="M 349.600,253.200 C 349.600,253.200 349.600,253.200 349.600,253.200" stroke-width="18.669" stroke="rgb(33,33,33)" fill="none" stroke-linecap="round"></path><path d="M 349.600,253.200 C 349.600,254.200 350.100,254.700 349.600,255.200" stroke-width="18.531" stroke="rgb(33,33,33)" fill="none" stroke-linecap="round"></path><path d="M 349.600,255.200 C 349.100,255.700 348.600,255.200 347.600,255.200" stroke-width="18.013" stroke="rgb(33,33,33)" fill="none" stroke-linecap="round"></path><path d="M 347.600,255.200 C 347.100,255.200 347.100,255.200 346.600,255.200" stroke-width="18.213" stroke="rgb(33,33,33)" fill="none" stroke-linecap="round"></path><path d="M 346.600,255.200 C 346.600,255.200 346.600,255.200 346.600,255.200" stroke-width="18.587" stroke="rgb(33,33,33)" fill="none" stroke-linecap="round"></path><path d="M 346.600,255.200 C 346.100,255.200 345.850,254.950 345.600,255.200" stroke-width="18.551" stroke="rgb(33,33,33)" fill="none" stroke-linecap="round"></path><path d="M 345.600,255.200 C 345.350,255.450 345.600,255.700 345.600,256.200" stroke-width="18.378" stroke="rgb(33,33,33)" fill="none" stroke-linecap="round"></path><path d="M 345.600,256.200 C 345.600,256.700 345.600,256.700 345.600,257.200" stroke-width="18.510" stroke="rgb(33,33,33)" fill="none" stroke-linecap="round"></path><path d="M 345.600,257.200 C 345.600,257.200 345.600,257.200 345.600,257.200" stroke-width="18.834" stroke="rgb(33,33,33)" fill="none" stroke-linecap="round"></path><path d="M 345.600,257.200 C 344.100,257.200 344.100,257.200 342.600,257.200" stroke-width="17.839" stroke="rgb(33,33,33)" fill="none" stroke-linecap="round"></path><path d="M 342.600,257.200 C 342.100,257.200 342.100,257.200 341.600,257.200" stroke-width="17.871" stroke="rgb(33,33,33)" fill="none" stroke-linecap="round"></path><path d="M 341.600,257.200 C 340.600,257.200 340.600,257.200 339.600,257.200" stroke-width="18.110" stroke="rgb(33,33,33)" fill="none" stroke-linecap="round"></path><path d="M 339.600,257.200 C 338.600,257.200 338.600,257.200 337.600,257.200" stroke-width="17.779" stroke="rgb(33,33,33)" fill="none" stroke-linecap="round"></path><path d="M 337.600,257.200 C 336.100,257.200 336.100,257.200 334.600,257.200" stroke-width="17.797" stroke="rgb(33,33,33)" fill="none" stroke-linecap="round"></path><path d="M 334.600,257.200 C 334.100,257.200 334.100,257.200 333.600,257.200" stroke-width="18.036" stroke="rgb(33,33,33)" fill="none" stroke-linecap="round"></path><path d="M 333.600,257.200 C 333.600,257.200 333.600,257.200 333.600,257.200" stroke-width="18.439" stroke="rgb(33,33,33)" fill="none" stroke-linecap="round"></path><path d="M 333.600,257.200 C 332.600,257.200 332.600,257.200 331.600,257.200" stroke-width="18.396" stroke="rgb(33,33,33)" fill="none" stroke-linecap="round"></path><path d="M 331.600,257.200 C 331.100,257.200 330.850,257.450 330.600,257.200" stroke-width="18.178" stroke="rgb(33,33,33)" fill="none" stroke-linecap="round"></path><path d="M 330.600,257.200 C 330.350,256.950 330.850,256.450 330.600,256.200" stroke-width="18.142" stroke="rgb(33,33,33)" fill="none" stroke-linecap="round"></path><path d="M 330.600,256.200 C 330.350,255.950 330.100,256.200 329.600,256.200" stroke-width="18.114" stroke="rgb(33,33,33)" fill="none" stroke-linecap="round"></path><path d="M 329.600,256.200 C 329.600,256.200 329.600,256.200 329.600,256.200" stroke-width="18.504" stroke="rgb(33,33,33)" fill="none" stroke-linecap="round"></path><path d="M 329.600,256.200 C 329.600,255.700 329.933,255.367 329.600,255.200" stroke-width="18.342" stroke="rgb(33,33,33)" fill="none" stroke-linecap="round"></path><path d="M 329.600,255.200 C 328.933,254.867 328.600,255.200 327.600,255.200" stroke-width="17.869" stroke="rgb(33,33,33)" fill="none" stroke-linecap="round"></path><path d="M 327.600,255.200 C 327.100,255.200 327.100,255.200 326.600,255.200" stroke-width="17.975" stroke="rgb(33,33,33)" fill="none" stroke-linecap="round"></path><path d="M 326.600,255.200 C 326.100,255.200 326.100,255.200 325.600,255.200" stroke-width="17.923" stroke="rgb(33,33,33)" fill="none" stroke-linecap="round"></path><path d="M 325.600,255.200 C 324.600,255.200 324.100,255.700 323.600,255.200" stroke-width="18.940" stroke="rgb(33,33,33)" fill="none" stroke-linecap="round"></path><path d="M 323.600,255.200 C 323.100,254.700 323.933,253.867 323.600,253.200" stroke-width="18.202" stroke="rgb(33,33,33)" fill="none" stroke-linecap="round"></path><path d="M 323.600,253.200 C 323.433,252.867 323.100,253.200 322.600,253.200" stroke-width="18.207" stroke="rgb(33,33,33)" fill="none" stroke-linecap="round"></path><path d="M 322.600,253.200 C 322.100,253.200 322.100,253.200 321.600,253.200" stroke-width="18.107" stroke="rgb(33,33,33)" fill="none" stroke-linecap="round"></path><path d="M 321.600,253.200 C 321.600,252.700 321.933,252.367 321.600,252.200" stroke-width="18.952" stroke="rgb(33,33,33)" fill="none" stroke-linecap="round"></path><path d="M 321.600,252.200 C 320.933,251.867 320.267,252.533 319.600,252.200" stroke-width="18.212" stroke="rgb(33,33,33)" fill="none" stroke-linecap="round"></path><path d="M 319.600,252.200 C 319.267,252.033 319.850,251.450 319.600,251.200" stroke-width="18.111" stroke="rgb(33,33,33)" fill="none" stroke-linecap="round"></path><path d="M 319.600,251.200 C 319.350,250.950 319.100,251.200 318.600,251.200" stroke-width="18.305" stroke="rgb(33,33,33)" fill="none" stroke-linecap="round"></path><path d="M 318.600,251.200 C 318.600,251.200 318.600,251.200 318.600,251.200" stroke-width="18.664" stroke="rgb(33,33,33)" fill="none" stroke-linecap="round"></path><path d="M 318.600,251.200 C 318.600,250.200 318.600,250.200 318.600,249.200" stroke-width="18.734" stroke="rgb(33,33,33)" fill="none" stroke-linecap="round"></path><path d="M 318.600,249.200 C 318.600,249.200 318.600,249.200 318.600,249.200" stroke-width="19.019" stroke="rgb(33,33,33)" fill="none" stroke-linecap="round"></path><path d="M 318.600,249.200 C 319.100,248.700 319.019,248.587 319.600,248.200" stroke-width="18.935" stroke="rgb(33,33,33)" fill="none" stroke-linecap="round"></path><path d="M 319.600,248.200 C 320.519,247.587 320.600,247.700 321.600,247.200" stroke-width="18.219" stroke="rgb(33,33,33)" fill="none" stroke-linecap="round"></path><path d="M 321.600,247.200 C 322.100,247.200 322.100,247.200 322.600,247.200" stroke-width="18.653" stroke="rgb(33,33,33)" fill="none" stroke-linecap="round"></path><path d="M 322.600,247.200 C 323.100,247.200 323.208,247.461 323.600,247.200" stroke-width="18.565" stroke="rgb(33,33,33)" fill="none" stroke-linecap="round"></path><path d="M 323.600,247.200 C 324.708,246.461 324.600,246.200 325.600,245.200" stroke-width="17.557" stroke="rgb(33,33,33)" fill="none" stroke-linecap="round"></path><path d="M 325.600,245.200 C 325.600,245.200 325.600,245.200 325.600,245.200" stroke-width="18.037" stroke="rgb(33,33,33)" fill="none" stroke-linecap="round"></path><path d="M 325.600,245.200 C 325.600,244.700 325.350,244.450 325.600,244.200" stroke-width="18.029" stroke="rgb(33,33,33)" fill="none" stroke-linecap="round"></path><path d="M 325.600,244.200 C 325.850,243.950 326.100,244.200 326.600,244.200" stroke-width="18.023" stroke="rgb(33,33,33)" fill="none" stroke-linecap="round"></path><path d="M 326.600,244.200 C 327.100,244.200 327.136,244.355 327.600,244.200" stroke-width="18.063" stroke="rgb(33,33,33)" fill="none" stroke-linecap="round"></path><path d="M 327.600,244.200 C 328.636,243.855 328.600,243.700 329.600,243.200" stroke-width="17.446" stroke="rgb(33,33,33)" fill="none" stroke-linecap="round"></path><path d="M 329.600,243.200 C 330.100,243.200 330.100,243.200 330.600,243.200" stroke-width="18.229" stroke="rgb(33,33,33)" fill="none" stroke-linecap="round"></path><path d="M 330.600,243.200 C 331.100,243.200 331.100,243.200 331.600,243.200" stroke-width="18.183" stroke="rgb(33,33,33)" fill="none" stroke-linecap="round"></path><path d="M 331.600,243.200 C 332.600,243.200 332.600,243.200 333.600,243.200" stroke-width="17.905" stroke="rgb(33,33,33)" fill="none" stroke-linecap="round"></path><path d="M 333.600,243.200 C 333.600,243.200 333.600,243.200 333.600,243.200" stroke-width="18.330" stroke="rgb(33,33,33)" fill="none" stroke-linecap="round"></path><path d="M 333.600,243.200 C 334.600,243.200 334.600,243.200 335.600,243.200" stroke-width="17.860" stroke="rgb(33,33,33)" fill="none" stroke-linecap="round"></path><path d="M 335.600,243.200 C 336.600,243.200 336.600,243.200 337.600,243.200" stroke-width="17.586" stroke="rgb(33,33,33)" fill="none" stroke-linecap="round"></path><path d="M 337.600,243.200 C 338.100,243.200 338.100,243.200 338.600,243.200" stroke-width="18.366" stroke="rgb(33,33,33)" fill="none" stroke-linecap="round"></path><path d="M 338.600,243.200 C 339.100,243.200 339.100,243.200 339.600,243.200" stroke-width="18.338" stroke="rgb(33,33,33)" fill="none" stroke-linecap="round"></path><path d="M 339.600,243.200 C 340.600,243.200 340.600,243.200 341.600,243.200" stroke-width="17.754" stroke="rgb(33,33,33)" fill="none" stroke-linecap="round"></path><path d="M 341.600,243.200 C 341.600,243.200 341.600,243.200 341.600,243.200" stroke-width="18.203" stroke="rgb(33,33,33)" fill="none" stroke-linecap="round"></path><path d="M 341.600,243.200 C 342.100,243.200 342.100,243.200 342.600,243.200" stroke-width="18.432" stroke="rgb(33,33,33)" fill="none" stroke-linecap="round"></path><path d="M 342.600,243.200 C 343.100,243.200 343.100,243.200 343.600,243.200" stroke-width="18.344" stroke="rgb(33,33,33)" fill="none" stroke-linecap="round"></path><path d="M 343.600,243.200 C 344.600,243.200 344.600,243.200 345.600,243.200" stroke-width="17.759" stroke="rgb(33,33,33)" fill="none" stroke-linecap="round"></path><path d="M 345.600,243.200 C 346.100,243.200 346.350,242.950 346.600,243.200" stroke-width="18.462" stroke="rgb(33,33,33)" fill="none" stroke-linecap="round"></path><path d="M 346.600,243.200 C 346.850,243.450 346.350,243.950 346.600,244.200" stroke-width="18.579" stroke="rgb(33,33,33)" fill="none" stroke-linecap="round"></path><path d="M 346.600,244.200 C 346.850,244.450 347.136,244.045 347.600,244.200" stroke-width="18.545" stroke="rgb(33,33,33)" fill="none" stroke-linecap="round"></path><path d="M 347.600,244.200 C 348.636,244.545 348.600,244.700 349.600,245.200" stroke-width="18.317" stroke="rgb(33,33,33)" fill="none" stroke-linecap="round"></path><path d="M 349.600,245.200 C 350.100,245.200 350.100,245.200 350.600,245.200" stroke-width="18.705" stroke="rgb(33,33,33)" fill="none" stroke-linecap="round"></path><path d="M 350.600,245.200 C 351.100,245.200 351.100,245.200 351.600,245.200" stroke-width="18.560" stroke="rgb(33,33,33)" fill="none" stroke-linecap="round"></path><path d="M 351.600,245.200 C 352.600,245.200 352.600,245.200 353.600,245.200" stroke-width="18.124" stroke="rgb(33,33,33)" fill="none" stroke-linecap="round"></path><path d="M 353.600,245.200 C 354.100,246.200 353.909,246.509 354.600,247.200" stroke-width="18.146" stroke="rgb(33,33,33)" fill="none" stroke-linecap="round"></path><path d="M 354.600,247.200 C 354.909,247.509 355.100,247.200 355.600,247.200" stroke-width="18.321" stroke="rgb(33,33,33)" fill="none" stroke-linecap="round"></path><path d="M 355.600,247.200 C 356.600,247.200 356.600,247.200 357.600,247.200" stroke-width="17.854" stroke="rgb(33,33,33)" fill="none" stroke-linecap="round"></path><path d="M 357.600,247.200 C 358.100,247.200 358.100,247.200 358.600,247.200" stroke-width="18.515" stroke="rgb(33,33,33)" fill="none" stroke-linecap="round"></path><path d="M 358.600,247.200 C 359.100,247.200 359.100,247.200 359.600,247.200" stroke-width="18.350" stroke="rgb(33,33,33)" fill="none" stroke-linecap="round"></path><path d="M 359.600,247.200 C 360.600,247.200 360.600,247.200 361.600,247.200" stroke-width="17.875" stroke="rgb(33,33,33)" fill="none" stroke-linecap="round"></path><path d="M 361.600,247.200 C 361.600,247.200 361.600,247.200 361.600,247.200" stroke-width="18.305" stroke="rgb(33,33,33)" fill="none" stroke-linecap="round"></path><path d="M 361.600,247.200 C 361.600,246.200 361.267,245.867 361.600,245.200" stroke-width="17.841" stroke="rgb(33,33,33)" fill="none" stroke-linecap="round"></path><path d="M 361.600,245.200 C 361.767,244.867 362.100,245.200 362.600,245.200" stroke-width="17.817" stroke="rgb(33,33,33)" fill="none" stroke-linecap="round"></path><path d="M 362.600,245.200 C 362.600,245.200 362.600,245.200 362.600,245.200" stroke-width="18.255" stroke="rgb(33,33,33)" fill="none" stroke-linecap="round"></path><path d="M 362.600,245.200 C 362.600,244.700 362.393,244.614 362.600,244.200" stroke-width="18.204" stroke="rgb(33,33,33)" fill="none" stroke-linecap="round"></path><path d="M 362.600,244.200 C 362.893,243.614 363.100,243.700 363.600,243.200" stroke-width="18.109" stroke="rgb(33,33,33)" fill="none" stroke-linecap="round"></path><path d="M 363.600,243.200 C 363.600,243.200 363.600,243.200 363.600,243.200" stroke-width="18.500" stroke="rgb(33,33,33)" fill="none" stroke-linecap="round"></path><path d="M 363.600,243.200 C 363.600,242.200 363.600,242.200 363.600,241.200" stroke-width="17.989" stroke="rgb(33,33,33)" fill="none" stroke-linecap="round"></path><path d="M 363.600,241.200 C 363.600,241.200 363.600,241.200 363.600,241.200" stroke-width="18.400" stroke="rgb(33,33,33)" fill="none" stroke-linecap="round"></path><path d="M 363.600,241.200 C 363.600,240.200 363.600,240.200 363.600,239.200" stroke-width="17.801" stroke="rgb(33,33,33)" fill="none" stroke-linecap="round"></path><path d="M 363.600,239.200 C 363.600,239.200 363.600,239.200 363.600,239.200" stroke-width="18.242" stroke="rgb(33,33,33)" fill="none" stroke-linecap="round"></path><path d="M 363.600,239.200 C 363.600,238.200 363.600,238.200 363.600,237.200" stroke-width="17.881" stroke="rgb(33,33,33)" fill="none" stroke-linecap="round"></path><path d="M 363.600,237.200 C 363.600,237.200 363.600,237.200 363.600,237.200" stroke-width="18.309" stroke="rgb(33,33,33)" fill="none" stroke-linecap="round"></path><path d="M 363.600,237.200 C 363.600,236.200 363.600,236.200 363.600,235.200" stroke-width="18.219" stroke="rgb(33,33,33)" fill="none" stroke-linecap="round"></path><path d="M 363.600,235.200 C 363.600,235.200 363.600,235.200 363.600,235.200" stroke-width="18.592" stroke="rgb(33,33,33)" fill="none" stroke-linecap="round"></path><path d="M 363.600,235.200 C 363.600,234.200 363.600,234.200 363.600,233.200" stroke-width="18.059" stroke="rgb(33,33,33)" fill="none" stroke-linecap="round"></path><path d="M 363.600,233.200 C 363.600,232.700 363.600,232.700 363.600,232.200" stroke-width="17.990" stroke="rgb(33,33,33)" fill="none" stroke-linecap="round"></path><path d="M 363.600,232.200 C 363.600,231.700 363.600,231.700 363.600,231.200" stroke-width="18.036" stroke="rgb(33,33,33)" fill="none" stroke-linecap="round"></path><path d="M 363.600,231.200 C 363.600,230.200 363.600,230.200 363.600,229.200" stroke-width="17.637" stroke="rgb(33,33,33)" fill="none" stroke-linecap="round"></path><path d="M 363.600,229.200 C 363.600,228.700 363.600,228.700 363.600,228.200" stroke-width="17.653" stroke="rgb(33,33,33)" fill="none" stroke-linecap="round"></path><path d="M 363.600,228.200 C 363.600,227.700 363.600,227.700 363.600,227.200" stroke-width="17.764" stroke="rgb(33,33,33)" fill="none" stroke-linecap="round"></path><path d="M 363.600,227.200 C 363.600,227.200 363.600,227.200 363.600,227.200" stroke-width="18.212" stroke="rgb(33,33,33)" fill="none" stroke-linecap="round"></path><path d="M 363.600,227.200 C 363.600,226.200 363.600,226.200 363.600,225.200" stroke-width="17.770" stroke="rgb(33,33,33)" fill="none" stroke-linecap="round"></path><path d="M 363.600,225.200 C 363.600,224.700 363.600,224.700 363.600,224.200" stroke-width="17.859" stroke="rgb(33,33,33)" fill="none" stroke-linecap="round"></path><path d="M 363.600,224.200 C 363.600,223.700 363.600,223.700 363.600,223.200" stroke-width="17.831" stroke="rgb(33,33,33)" fill="none" stroke-linecap="round"></path><path d="M 363.600,223.200 C 363.600,223.200 363.600,223.200 363.600,223.200" stroke-width="18.267" stroke="rgb(33,33,33)" fill="none" stroke-linecap="round"></path><path d="M 363.600,223.200 C 363.600,222.200 363.600,222.200 363.600,221.200" stroke-width="18.237" stroke="rgb(33,33,33)" fill="none" stroke-linecap="round"></path><path d="M 363.600,221.200 C 363.600,221.200 363.600,221.200 363.600,221.200" stroke-width="18.607" stroke="rgb(33,33,33)" fill="none" stroke-linecap="round"></path><path d="M 363.600,221.200 C 363.600,220.700 363.600,220.700 363.600,220.200" stroke-width="18.567" stroke="rgb(33,33,33)" fill="none" stroke-linecap="round"></path><path d="M 363.600,220.200 C 363.600,219.700 363.267,219.367 363.600,219.200" stroke-width="18.391" stroke="rgb(33,33,33)" fill="none" stroke-linecap="round"></path><path d="M 363.600,219.200 C 364.267,218.867 365.100,219.700 365.600,219.200" stroke-width="17.794" stroke="rgb(33,33,33)" fill="none" stroke-linecap="round"></path><path d="M 365.600,219.200 C 366.100,218.700 365.600,218.200 365.600,217.200" stroke-width="17.451" stroke="rgb(33,33,33)" fill="none" stroke-linecap="round"></path><path d="M 365.600,217.200 C 365.600,217.200 365.600,217.200 365.600,217.200" stroke-width="17.947" stroke="rgb(33,33,33)" fill="none" stroke-linecap="round"></path><path d="M 365.600,217.200 C 365.600,216.700 365.600,216.700 365.600,216.200" stroke-width="17.958" stroke="rgb(33,33,33)" fill="none" stroke-linecap="round"></path><path d="M 365.600,216.200 C 365.600,215.700 365.600,215.700 365.600,215.200" stroke-width="17.966" stroke="rgb(33,33,33)" fill="none" stroke-linecap="round"></path><path d="M 365.600,215.200 C 365.600,214.200 365.600,214.200 365.600,213.200" stroke-width="17.668" stroke="rgb(33,33,33)" fill="none" stroke-linecap="round"></path><path d="M 365.600,213.200 C 365.600,213.200 365.600,213.200 365.600,213.200" stroke-width="18.130" stroke="rgb(33,33,33)" fill="none" stroke-linecap="round"></path><path d="M 365.600,213.200 C 365.600,212.700 365.600,212.700 365.600,212.200" stroke-width="18.104" stroke="rgb(33,33,33)" fill="none" stroke-linecap="round"></path><path d="M 365.600,212.200 C 365.600,211.700 365.600,211.700 365.600,211.200" stroke-width="18.083" stroke="rgb(33,33,33)" fill="none" stroke-linecap="round"></path><path d="M 365.600,211.200 C 365.600,210.200 365.600,210.200 365.600,209.200" stroke-width="17.672" stroke="rgb(33,33,33)" fill="none" stroke-linecap="round"></path><path d="M 365.600,209.200 C 365.600,209.200 365.600,209.200 365.600,209.200" stroke-width="18.134" stroke="rgb(33,33,33)" fill="none" stroke-linecap="round"></path><path d="M 365.600,209.200 C 366.100,208.700 366.014,208.493 366.600,208.200" stroke-width="17.941" stroke="rgb(33,33,33)" fill="none" stroke-linecap="round"></path><path d="M 366.600,208.200 C 367.014,207.993 367.136,208.355 367.600,208.200" stroke-width="17.953" stroke="rgb(33,33,33)" fill="none" stroke-linecap="round"></path><path d="M 367.600,208.200 C 368.636,207.855 368.600,207.700 369.600,207.200" stroke-width="17.483" stroke="rgb(33,33,33)" fill="none" stroke-linecap="round"></path><path d="M 369.600,207.200 C 369.600,206.200 369.267,205.867 369.600,205.200" stroke-width="17.904" stroke="rgb(33,33,33)" fill="none" stroke-linecap="round"></path><path d="M 369.600,205.200 C 369.767,204.867 370.100,205.200 370.600,205.200" stroke-width="17.923" stroke="rgb(33,33,33)" fill="none" stroke-linecap="round"></path><path d="M 370.600,205.200 C 371.100,205.200 371.100,205.200 371.600,205.200" stroke-width="17.938" stroke="rgb(33,33,33)" fill="none" stroke-linecap="round"></path><path d="M 371.600,205.200 C 372.600,205.200 372.933,205.533 373.600,205.200" stroke-width="17.951" stroke="rgb(33,33,33)" fill="none" stroke-linecap="round"></path><path d="M 373.600,205.200 C 373.933,205.033 373.350,204.450 373.600,204.200" stroke-width="17.961" stroke="rgb(33,33,33)" fill="none" stroke-linecap="round"></path><path d="M 373.600,204.200 C 373.850,203.950 374.100,204.200 374.600,204.200" stroke-width="18.013" stroke="rgb(33,33,33)" fill="none" stroke-linecap="round"></path><path d="M 374.600,204.200 C 375.100,204.200 375.100,204.200 375.600,204.200" stroke-width="17.953" stroke="rgb(33,33,33)" fill="none" stroke-linecap="round"></path><path d="M 375.600,204.200 C 376.600,204.200 376.600,204.200 377.600,204.200" stroke-width="17.573" stroke="rgb(33,33,33)" fill="none" stroke-linecap="round"></path><path d="M 377.600,204.200 C 377.600,204.200 377.600,204.200 377.600,204.200" stroke-width="18.050" stroke="rgb(33,33,33)" fill="none" stroke-linecap="round"></path><path d="M 377.600,204.200 C 378.100,204.200 378.100,204.200 378.600,204.200" stroke-width="18.040" stroke="rgb(33,33,33)" fill="none" stroke-linecap="round"></path><path d="M 378.600,204.200 C 379.100,204.200 379.100,204.200 379.600,204.200" stroke-width="18.032" stroke="rgb(33,33,33)" fill="none" stroke-linecap="round"></path><path d="M 379.600,204.200 C 380.600,204.200 380.600,204.200 381.600,204.200" stroke-width="17.633" stroke="rgb(33,33,33)" fill="none" stroke-linecap="round"></path><path d="M 381.600,204.200 C 382.100,204.200 382.350,203.950 382.600,204.200" stroke-width="18.604" stroke="rgb(33,33,33)" fill="none" stroke-linecap="round"></path><path d="M 382.600,204.200 C 382.850,204.450 382.600,204.700 382.600,205.200" stroke-width="18.693" stroke="rgb(33,33,33)" fill="none" stroke-linecap="round"></path><path d="M 382.600,205.200 C 382.600,205.200 382.600,205.200 382.600,205.200" stroke-width="18.985" stroke="rgb(33,33,33)" fill="none" stroke-linecap="round"></path><path d="M 382.600,205.200 C 383.100,205.200 383.433,204.867 383.600,205.200" stroke-width="18.718" stroke="rgb(33,33,33)" fill="none" stroke-linecap="round"></path><path d="M 383.600,205.200 C 383.933,205.867 383.100,206.700 383.600,207.200" stroke-width="18.244" stroke="rgb(33,33,33)" fill="none" stroke-linecap="round"></path><path d="M 383.600,207.200 C 384.100,207.700 384.933,206.867 385.600,207.200" stroke-width="17.795" stroke="rgb(33,33,33)" fill="none" stroke-linecap="round"></path><path d="M 385.600,207.200 C 385.933,207.367 385.600,207.700 385.600,208.200" stroke-width="17.780" stroke="rgb(33,33,33)" fill="none" stroke-linecap="round"></path><path d="M 385.600,208.200 C 385.600,208.700 385.600,208.700 385.600,209.200" stroke-width="17.867" stroke="rgb(33,33,33)" fill="none" stroke-linecap="round"></path><path d="M 385.600,209.200 C 385.600,210.200 385.600,210.200 385.600,211.200" stroke-width="18.108" stroke="rgb(33,33,33)" fill="none" stroke-linecap="round"></path><path d="M 385.600,211.200 C 385.600,211.200 385.600,211.200 385.600,211.200" stroke-width="18.499" stroke="rgb(33,33,33)" fill="none" stroke-linecap="round"></path><path d="M 385.600,211.200 C 385.600,211.700 385.393,211.786 385.600,212.200" stroke-width="18.621" stroke="rgb(33,33,33)" fill="none" stroke-linecap="round"></path><path d="M 385.600,212.200 C 385.893,212.786 386.393,212.579 386.600,213.200" stroke-width="18.237" stroke="rgb(33,33,33)" fill="none" stroke-linecap="round"></path><path d="M 386.600,213.200 C 386.893,214.079 386.600,214.200 386.600,215.200" stroke-width="17.790" stroke="rgb(33,33,33)" fill="none" stroke-linecap="round"></path><path d="M 386.600,215.200 C 386.600,215.700 386.600,215.700 386.600,216.200" stroke-width="17.875" stroke="rgb(33,33,33)" fill="none" stroke-linecap="round"></path><path d="M 386.600,216.200 C 386.600,216.700 386.600,216.700 386.600,217.200" stroke-width="17.844" stroke="rgb(33,33,33)" fill="none" stroke-linecap="round"></path><path d="M 386.600,217.200 C 386.600,218.200 386.600,218.200 386.600,219.200" stroke-width="17.573" stroke="rgb(33,33,33)" fill="none" stroke-linecap="round"></path><path d="M 386.600,219.200 C 386.600,219.200 386.600,219.200 386.600,219.200" stroke-width="18.050" stroke="rgb(33,33,33)" fill="none" stroke-linecap="round"></path><path d="M 386.600,219.200 C 386.600,219.700 386.600,219.700 386.600,220.200" stroke-width="18.085" stroke="rgb(33,33,33)" fill="none" stroke-linecap="round"></path><path d="M 386.600,220.200 C 386.600,220.700 386.600,220.700 386.600,221.200" stroke-width="18.010" stroke="rgb(33,33,33)" fill="none" stroke-linecap="round"></path><path d="M 386.600,221.200 C 386.600,221.200 386.600,221.200 386.600,221.200" stroke-width="18.418" stroke="rgb(33,33,33)" fill="none" stroke-linecap="round"></path><path d="M 386.600,221.200 C 386.100,222.200 386.100,222.200 385.600,223.200" stroke-width="18.253" stroke="rgb(33,33,33)" fill="none" stroke-linecap="round"></path><path d="M 385.600,223.200 C 384.600,223.700 384.519,223.587 383.600,224.200" stroke-width="18.681" stroke="rgb(33,33,33)" fill="none" stroke-linecap="round"></path><path d="M 383.600,224.200 C 383.019,224.587 383.186,224.907 382.600,225.200" stroke-width="18.283" stroke="rgb(33,33,33)" fill="none" stroke-linecap="round"></path><path d="M 382.600,225.200 C 382.186,225.407 382.100,225.200 381.600,225.200" stroke-width="18.226" stroke="rgb(33,33,33)" fill="none" stroke-linecap="round"></path><path d="M 381.600,225.200 C 381.600,225.200 381.600,225.200 381.600,225.200" stroke-width="18.598" stroke="rgb(33,33,33)" fill="none" stroke-linecap="round"></path><path d="M 381.600,225.200 C 380.600,226.200 380.708,226.461 379.600,227.200" stroke-width="17.580" stroke="rgb(33,33,33)" fill="none" stroke-linecap="round"></path><path d="M 379.600,227.200 C 379.208,227.461 379.100,227.200 378.600,227.200" stroke-width="17.662" stroke="rgb(33,33,33)" fill="none" stroke-linecap="round"></path><path d="M 378.600,227.200 C 378.100,227.200 378.100,227.200 377.600,227.200" stroke-width="17.772" stroke="rgb(33,33,33)" fill="none" stroke-linecap="round"></path><path d="M 377.600,227.200 C 376.600,227.200 375.600,227.200 375.600,227.200" stroke-width="18.585" stroke="rgb(33,33,33)" fill="none" stroke-linecap="round"></path><path d="M 375.600,227.200 C 375.600,227.200 376.600,227.200 377.600,227.200" stroke-width="18.841" stroke="rgb(33,33,33)" fill="none" stroke-linecap="round"></path><path d="M 377.600,227.200 C 377.600,227.200 377.600,227.200 377.600,227.200" stroke-width="19.107" stroke="rgb(33,33,33)" fill="none" stroke-linecap="round"></path><path d="M 377.600,227.200 C 378.100,227.200 378.100,227.200 378.600,227.200" stroke-width="18.875" stroke="rgb(33,33,33)" fill="none" stroke-linecap="round"></path><path d="M 378.600,227.200 C 380.100,227.200 380.475,226.825 381.600,227.200" stroke-width="17.869" stroke="rgb(33,33,33)" fill="none" stroke-linecap="round"></path><path d="M 381.600,227.200 C 381.975,227.325 381.210,228.005 381.600,228.200" stroke-width="17.895" stroke="rgb(33,33,33)" fill="none" stroke-linecap="round"></path><path d="M 381.600,228.200 C 383.210,229.005 383.588,228.798 385.600,229.200" stroke-width="16.758" stroke="rgb(33,33,33)" fill="none" stroke-linecap="round"></path><path d="M 385.600,229.200 C 386.088,229.298 386.166,228.983 386.600,229.200" stroke-width="17.032" stroke="rgb(33,33,33)" fill="none" stroke-linecap="round"></path><path d="M 386.600,229.200 C 388.166,229.983 388.057,230.274 389.600,231.200" stroke-width="16.146" stroke="rgb(33,33,33)" fill="none" stroke-linecap="round"></path><path d="M 389.600,231.200 C 390.557,231.774 390.600,231.700 391.600,232.200" stroke-width="16.081" stroke="rgb(33,33,33)" fill="none" stroke-linecap="round"></path><path d="M 391.600,232.200 C 392.600,232.700 392.600,232.700 393.600,233.200" stroke-width="16.109" stroke="rgb(33,33,33)" fill="none" stroke-linecap="round"></path><path d="M 393.600,233.200 C 393.600,233.200 393.600,233.200 393.600,233.200" stroke-width="16.796" stroke="rgb(33,33,33)" fill="none" stroke-linecap="round"></path><path d="M 393.600,233.200 C 393.600,234.200 393.600,234.200 393.600,235.200" stroke-width="16.673" stroke="rgb(33,33,33)" fill="none" stroke-linecap="round"></path><path d="M 393.600,235.200 C 393.600,235.700 393.393,235.786 393.600,236.200" stroke-width="17.888" stroke="rgb(33,33,33)" fill="none" stroke-linecap="round"></path><path d="M 393.600,236.200 C 393.893,236.786 394.100,236.700 394.600,237.200" stroke-width="17.748" stroke="rgb(33,33,33)" fill="none" stroke-linecap="round"></path><path d="M 394.600,237.200 C 394.600,237.200 394.600,237.200 394.600,237.200" stroke-width="18.197" stroke="rgb(33,33,33)" fill="none" stroke-linecap="round"></path><path d="M 394.600,237.200 C 395.100,238.200 395.100,238.200 395.600,239.200" stroke-width="17.842" stroke="rgb(33,33,33)" fill="none" stroke-linecap="round"></path><path d="M 395.600,239.200 C 395.600,239.200 395.600,239.200 395.600,239.200" stroke-width="18.277" stroke="rgb(33,33,33)" fill="none" stroke-linecap="round"></path><path d="M 395.600,239.200 C 396.600,239.700 396.909,239.509 397.600,240.200" stroke-width="17.728" stroke="rgb(33,33,33)" fill="none" stroke-linecap="round"></path><path d="M 397.600,240.200 C 397.909,240.509 397.600,240.700 397.600,241.200" stroke-width="17.782" stroke="rgb(33,33,33)" fill="none" stroke-linecap="round"></path><path d="M 397.600,241.200 C 397.600,241.200 397.600,241.200 397.600,241.200" stroke-width="18.226" stroke="rgb(33,33,33)" fill="none" stroke-linecap="round"></path><path d="M 397.600,241.200 C 397.600,242.200 397.600,242.200 397.600,243.200" stroke-width="17.868" stroke="rgb(33,33,33)" fill="none" stroke-linecap="round"></path><path d="M 397.600,243.200 C 397.600,243.200 397.600,243.200 397.600,243.200" stroke-width="18.299" stroke="rgb(33,33,33)" fill="none" stroke-linecap="round"></path><path d="M 397.600,243.200 C 397.600,244.200 397.267,244.533 397.600,245.200" stroke-width="17.725" stroke="rgb(33,33,33)" fill="none" stroke-linecap="round"></path><path d="M 397.600,245.200 C 397.767,245.533 398.433,244.867 398.600,245.200" stroke-width="17.858" stroke="rgb(33,33,33)" fill="none" stroke-linecap="round"></path><path d="M 398.600,245.200 C 398.933,245.867 398.600,246.200 398.600,247.200" stroke-width="17.392" stroke="rgb(33,33,33)" fill="none" stroke-linecap="round"></path><path d="M 398.600,247.200 C 398.600,248.200 398.600,248.200 398.600,249.200" stroke-width="17.037" stroke="rgb(33,33,33)" fill="none" stroke-linecap="round"></path><path d="M 398.600,249.200 C 398.600,249.200 398.600,249.200 398.600,249.200" stroke-width="17.595" stroke="rgb(33,33,33)" fill="none" stroke-linecap="round"></path><path d="M 398.600,249.200 C 398.600,250.200 398.600,250.200 398.600,251.200" stroke-width="17.297" stroke="rgb(33,33,33)" fill="none" stroke-linecap="round"></path><path d="M 398.600,251.200 C 398.600,251.200 398.600,251.200 398.600,251.200" stroke-width="17.817" stroke="rgb(33,33,33)" fill="none" stroke-linecap="round"></path><path d="M 398.600,251.200 C 398.600,252.200 398.600,252.200 398.600,253.200" stroke-width="17.468" stroke="rgb(33,33,33)" fill="none" stroke-linecap="round"></path><path d="M 398.600,253.200 C 398.600,253.200 398.600,253.200 398.600,253.200" stroke-width="17.962" stroke="rgb(33,33,33)" fill="none" stroke-linecap="round"></path><path d="M 398.600,253.200 C 398.600,254.200 398.933,254.533 398.600,255.200" stroke-width="17.579" stroke="rgb(33,33,33)" fill="none" stroke-linecap="round"></path><path d="M 398.600,255.200 C 398.433,255.533 398.100,255.200 397.600,255.200" stroke-width="17.922" stroke="rgb(33,33,33)" fill="none" stroke-linecap="round"></path><path d="M 397.600,255.200 C 396.600,255.200 396.267,254.867 395.600,255.200" stroke-width="18.137" stroke="rgb(33,33,33)" fill="none" stroke-linecap="round"></path><path d="M 395.600,255.200 C 395.267,255.367 395.933,256.033 395.600,256.200" stroke-width="18.052" stroke="rgb(33,33,33)" fill="none" stroke-linecap="round"></path><path d="M 395.600,256.200 C 394.933,256.533 394.267,255.867 393.600,256.200" stroke-width="17.804" stroke="rgb(33,33,33)" fill="none" stroke-linecap="round"></path><path d="M 393.600,256.200 C 393.267,256.367 393.600,256.700 393.600,257.200" stroke-width="17.787" stroke="rgb(33,33,33)" fill="none" stroke-linecap="round"></path><path d="M 393.600,257.200 C 393.600,257.200 393.600,257.200 393.600,257.200" stroke-width="18.230" stroke="rgb(33,33,33)" fill="none" stroke-linecap="round"></path><path d="M 393.600,257.200 C 392.100,257.200 392.100,257.200 390.600,257.200" stroke-width="17.528" stroke="rgb(33,33,33)" fill="none" stroke-linecap="round"></path><path d="M 390.600,257.200 C 390.100,257.200 390.100,257.200 389.600,257.200" stroke-width="17.620" stroke="rgb(33,33,33)" fill="none" stroke-linecap="round"></path><path d="M 389.600,257.200 C 388.600,257.200 388.600,257.200 387.600,257.200" stroke-width="17.211" stroke="rgb(33,33,33)" fill="none" stroke-linecap="round"></path><path d="M 387.600,257.200 C 386.600,257.200 386.600,257.200 385.600,257.200" stroke-width="17.079" stroke="rgb(33,33,33)" fill="none" stroke-linecap="round"></path><path d="M 385.600,257.200 C 385.600,257.200 385.600,257.200 385.600,257.200" stroke-width="17.631" stroke="rgb(33,33,33)" fill="none" stroke-linecap="round"></path><path d="M 385.600,257.200 C 384.600,257.200 384.600,257.200 383.600,257.200" stroke-width="17.220" stroke="rgb(33,33,33)" fill="none" stroke-linecap="round"></path><path d="M 383.600,257.200 C 382.600,257.200 382.600,257.200 381.600,257.200" stroke-width="17.085" stroke="rgb(33,33,33)" fill="none" stroke-linecap="round"></path><path d="M 381.600,257.200 C 381.600,256.700 381.933,256.367 381.600,256.200" stroke-width="18.128" stroke="rgb(33,33,33)" fill="none" stroke-linecap="round"></path><path d="M 381.600,256.200 C 380.933,255.867 380.600,256.200 379.600,256.200" stroke-width="17.707" stroke="rgb(33,33,33)" fill="none" stroke-linecap="round"></path><path d="M 379.600,256.200 C 379.100,256.200 379.014,256.407 378.600,256.200" stroke-width="17.764" stroke="rgb(33,33,33)" fill="none" stroke-linecap="round"></path><path d="M 378.600,256.200 C 378.014,255.907 378.221,255.407 377.600,255.200" stroke-width="17.711" stroke="rgb(33,33,33)" fill="none" stroke-linecap="round"></path><path d="M 377.600,255.200 C 376.721,254.907 376.600,255.200 375.600,255.200" stroke-width="17.281" stroke="rgb(33,33,33)" fill="none" stroke-linecap="round"></path><path d="M 375.600,255.200 C 375.100,255.200 374.909,255.509 374.600,255.200" stroke-width="17.420" stroke="rgb(33,33,33)" fill="none" stroke-linecap="round"></path><path d="M 374.600,255.200 C 373.909,254.509 374.100,254.200 373.600,253.200" stroke-width="17.076" stroke="rgb(33,33,33)" fill="none" stroke-linecap="round"></path><path d="M 373.600,253.200 C 373.600,253.200 373.600,253.200 373.600,253.200" stroke-width="17.629" stroke="rgb(33,33,33)" fill="none" stroke-linecap="round"></path><path d="M 373.600,253.200 C 372.600,253.200 372.479,253.493 371.600,253.200" stroke-width="17.323" stroke="rgb(33,33,33)" fill="none" stroke-linecap="round"></path><path d="M 371.600,253.200 C 370.979,252.993 371.186,252.493 370.600,252.200" stroke-width="17.226" stroke="rgb(33,33,33)" fill="none" stroke-linecap="round"></path><path d="M 370.600,252.200 C 370.186,251.993 369.850,252.450 369.600,252.200" stroke-width="17.417" stroke="rgb(33,33,33)" fill="none" stroke-linecap="round"></path><path d="M 369.600,252.200 C 369.350,251.950 369.600,251.700 369.600,251.200" stroke-width="17.476" stroke="rgb(33,33,33)" fill="none" stroke-linecap="round"></path><path d="M 369.600,251.200 C 369.600,251.200 369.600,251.200 369.600,251.200" stroke-width="17.968" stroke="rgb(33,33,33)" fill="none" stroke-linecap="round"></path><path d="M 369.600,251.200 C 368.600,251.200 368.600,251.200 367.600,251.200" stroke-width="17.670" stroke="rgb(33,33,33)" fill="none" stroke-linecap="round"></path><path d="M 367.600,251.200 C 366.600,251.200 366.600,251.200 365.600,251.200" stroke-width="17.355" stroke="rgb(33,33,33)" fill="none" stroke-linecap="round"></path><path d="M 365.600,251.200 C 364.600,250.200 364.708,249.939 363.600,249.200" stroke-width="17.515" stroke="rgb(33,33,33)" fill="none" stroke-linecap="round"></path><path d="M 363.600,249.200 C 363.208,248.939 363.100,249.200 362.600,249.200" stroke-width="17.804" stroke="rgb(33,33,33)" fill="none" stroke-linecap="round"></path><path d="M 362.600,249.200 C 362.100,249.200 362.100,249.200 361.600,249.200" stroke-width="17.922" stroke="rgb(33,33,33)" fill="none" stroke-linecap="round"></path><path d="M 361.600,249.200 C 360.600,248.700 360.656,248.464 359.600,248.200" stroke-width="18.041" stroke="rgb(33,33,33)" fill="none" stroke-linecap="round"></path><path d="M 359.600,248.200 C 358.656,247.964 358.600,248.200 357.600,248.200" stroke-width="17.640" stroke="rgb(33,33,33)" fill="none" stroke-linecap="round"></path><path d="M 357.600,248.200 C 357.600,248.200 357.600,248.200 357.600,248.200" stroke-width="18.107" stroke="rgb(33,33,33)" fill="none" stroke-linecap="round"></path><path d="M 357.600,248.200 C 357.600,247.700 357.933,247.367 357.600,247.200" stroke-width="18.028" stroke="rgb(33,33,33)" fill="none" stroke-linecap="round"></path></svg>