<svg xmlns="http://www.w3.org/2000/svg" xmlns:xlink="http://www.w3.org/1999/xlink" viewBox="0 0 768 500"><path d="M 236.000,189.000 C 240.000,186.000 240.138,186.160 244.000,183.000" stroke-width="19.125" stroke="rgb(33,33,33)" fill="none" stroke-linecap="round"></path><path d="M 244.000,183.000 C 245.638,181.660 245.500,181.500 247.000,180.000" stroke-width="18.408" stroke="rgb(33,33,33)" fill="none" stroke-linecap="round"></path><path d="M 247.000,180.000 C 250.500,176.500 250.609,176.603 254.000,173.000" stroke-width="14.858" stroke="rgb(33,33,33)" fill="none" stroke-linecap="round"></path><path d="M 254.000,173.000 C 258.609,168.103 258.937,168.332 263.000,163.000" stroke-width="12.986" stroke="rgb(33,33,33)" fill="none" stroke-linecap="round"></path><path d="M 263.000,163.000 C 266.937,157.832 266.988,157.750 270.000,152.000" stroke-width="13.049" stroke="rgb(33,33,33)" fill="none" stroke-linecap="round"></path><path d="M 270.000,152.000 C 272.488,147.250 272.210,147.072 274.000,142.000" stroke-width="12.600" stroke="rgb(33,33,33)" fill="none" stroke-linecap="round"></path><path d="M 274.000,142.000 C 275.210,138.572 275.407,138.557 276.000,135.000" stroke-width="12.413" stroke="rgb(33,33,33)" fill="none" stroke-linecap="round"></path><path d="M 276.000,135.000 C 276.407,132.557 276.000,132.500 276.000,130.000" stroke-width="12.918" stroke="rgb(33,33,33)" fill="none" stroke-linecap="round"></path><path d="M 276.000,130.000 C 276.000,128.500 276.000,128.500 276.000,127.000" stroke-width="13.576" stroke="rgb(33,33,33)" fill="none" stroke-linecap="round"></path><path d="M 276.000,127.000 C 276.000,126.500 276.375,126.125 276.000,126.000" stroke-width="14.413" stroke="rgb(33,33,33)" fill="none" stroke-linecap="round"></path><path d="M 276.000,126.000 C 274.875,125.625 274.500,126.000 273.000,126.000" stroke-width="14.873" stroke="rgb(33,33,33)" fill="none" stroke-linecap="round"></path><path d="M 273.000,126.000 C 271.500,126.000 271.405,125.599 270.000,126.000" stroke-width="15.289" stroke="rgb(33,33,33)" fill="none" stroke-linecap="round"></path><path d="M 270.000,126.000 C 267.905,126.599 267.638,126.544 266.000,128.000" stroke-width="15.466" stroke="rgb(33,33,33)" fill="none" stroke-linecap="round"></path><path d="M 266.000,128.000 C 263.138,130.544 263.056,130.710 261.000,134.000" stroke-width="14.983" stroke="rgb(33,33,33)" fill="none" stroke-linecap="round"></path><path d="M 261.000,134.000 C 258.056,138.710 258.500,139.000 256.000,144.000" stroke-width="14.250" stroke="rgb(33,33,33)" fill="none" stroke-linecap="round"></path><path d="M 256.000,144.000 C 253.000,150.000 252.910,149.956 250.000,156.000" stroke-width="13.548" stroke="rgb(33,33,33)" fill="none" stroke-linecap="round"></path><path d="M 250.000,156.000 C 246.410,163.456 246.890,163.707 243.000,171.000" stroke-width="12.732" stroke="rgb(33,33,33)" fill="none" stroke-linecap="round"></path><path d="M 243.000,171.000 C 238.890,178.707 238.423,178.455 234.000,186.000" stroke-width="11.975" stroke="rgb(33,33,33)" fill="none" stroke-linecap="round"></path><path d="M 234.000,186.000 C 229.923,192.955 230.943,193.756 226.000,200.000" stroke-width="11.621" stroke="rgb(33,33,33)" fill="none" stroke-linecap="round"></path><path d="M 226.000,200.000 C 221.443,205.756 220.512,205.013 215.000,210.000" stroke-width="11.377" stroke="rgb(33,33,33)" fill="none" stroke-linecap="round"></path><path d="M 215.000,210.000 C 210.012,214.513 210.437,215.117 205.000,219.000" stroke-width="11.363" stroke="rgb(33,33,33)" fill="none" stroke-linecap="round"></path><path d="M 205.000,219.000 C 199.937,222.617 199.691,222.439 194.000,225.000" stroke-width="11.420" stroke="rgb(33,33,33)" fill="none" stroke-linecap="round"></path><path d="M 194.000,225.000 C 189.691,226.939 189.584,226.854 185.000,228.000" stroke-width="11.704" stroke="rgb(33,33,33)" fill="none" stroke-linecap="round"></path><path d="M 185.000,228.000 C 181.584,228.854 181.516,228.730 178.000,229.000" stroke-width="12.108" stroke="rgb(33,33,33)" fill="none" stroke-linecap="round"></path><path d="M 178.000,229.000 C 175.016,229.230 175.000,229.000 172.000,229.000" stroke-width="12.589" stroke="rgb(33,33,33)" fill="none" stroke-linecap="round"></path><path d="M 172.000,229.000 C 169.500,229.000 169.500,229.000 167.000,229.000" stroke-width="13.101" stroke="rgb(33,33,33)" fill="none" stroke-linecap="round"></path><path d="M 167.000,229.000 C 165.500,229.000 164.894,229.894 164.000,229.000" stroke-width="13.738" stroke="rgb(33,33,33)" fill="none" stroke-linecap="round"></path><path d="M 164.000,229.000 C 162.394,227.394 162.473,226.601 162.000,224.000" stroke-width="14.037" stroke="rgb(33,33,33)" fill="none" stroke-linecap="round"></path><path d="M 162.000,224.000 C 161.473,221.101 162.000,221.000 162.000,218.000" stroke-width="14.214" stroke="rgb(33,33,33)" fill="none" stroke-linecap="round"></path><path d="M 162.000,218.000 C 162.000,213.500 161.736,213.484 162.000,209.000" stroke-width="13.944" stroke="rgb(33,33,33)" fill="none" stroke-linecap="round"></path><path d="M 162.000,209.000 C 162.236,204.984 161.126,204.372 163.000,201.000" stroke-width="13.902" stroke="rgb(33,33,33)" fill="none" stroke-linecap="round"></path><path d="M 163.000,201.000 C 166.126,195.372 166.932,195.344 172.000,191.000" stroke-width="13.291" stroke="rgb(33,33,33)" fill="none" stroke-linecap="round"></path><path d="M 172.000,191.000 C 177.432,186.344 177.874,186.793 184.000,183.000" stroke-width="12.748" stroke="rgb(33,33,33)" fill="none" stroke-linecap="round"></path><path d="M 184.000,183.000 C 188.374,180.293 188.252,179.846 193.000,178.000" stroke-width="12.774" stroke="rgb(33,33,33)" fill="none" stroke-linecap="round"></path><path d="M 193.000,178.000 C 197.252,176.346 197.457,176.606 202.000,176.000" stroke-width="12.727" stroke="rgb(33,33,33)" fill="none" stroke-linecap="round"></path><path d="M 202.000,176.000 C 204.957,175.606 205.000,176.000 208.000,176.000" stroke-width="13.120" stroke="rgb(33,33,33)" fill="none" stroke-linecap="round"></path><path d="M 208.000,176.000 C 210.500,176.000 210.836,175.189 213.000,176.000" stroke-width="13.525" stroke="rgb(33,33,33)" fill="none" stroke-linecap="round"></path><path d="M 213.000,176.000 C 214.836,176.689 214.898,177.237 216.000,179.000" stroke-width="13.987" stroke="rgb(33,33,33)" fill="none" stroke-linecap="round"></path><path d="M 216.000,179.000 C 217.398,181.237 217.080,181.471 218.000,184.000" stroke-width="14.205" stroke="rgb(33,33,33)" fill="none" stroke-linecap="round"></path><path d="M 218.000,184.000 C 219.080,186.971 219.235,186.942 220.000,190.000" stroke-width="14.313" stroke="rgb(33,33,33)" fill="none" stroke-linecap="round"></path><path d="M 220.000,190.000 C 220.735,192.942 220.204,193.083 221.000,196.000" stroke-width="14.429" stroke="rgb(33,33,33)" fill="none" stroke-linecap="round"></path><path d="M 221.000,196.000 C 221.704,198.583 221.602,198.763 223.000,201.000" stroke-width="14.568" stroke="rgb(33,33,33)" fill="none" stroke-linecap="round"></path><path d="M 223.000,201.000 C 224.102,202.763 224.500,202.500 226.000,204.000" stroke-width="14.868" stroke="rgb(33,33,33)" fill="none" stroke-linecap="round"></path><path d="M 226.000,204.000 C 227.500,205.500 227.225,205.986 229.000,207.000" stroke-width="15.118" stroke="rgb(33,33,33)" fill="none" stroke-linecap="round"></path><path d="M 229.000,207.000 C 230.725,207.986 230.959,207.830 233.000,208.000" stroke-width="15.305" stroke="rgb(33,33,33)" fill="none" stroke-linecap="round"></path><path d="M 233.000,208.000 C 236.959,208.330 237.057,208.538 241.000,208.000" stroke-width="14.971" stroke="rgb(33,33,33)" fill="none" stroke-linecap="round"></path><path d="M 241.000,208.000 C 248.057,207.038 248.332,207.445 255.000,205.000" stroke-width="13.960" stroke="rgb(33,33,33)" fill="none" stroke-linecap="round"></path><path d="M 255.000,205.000 C 263.332,201.945 263.529,201.781 271.000,197.000" stroke-width="12.784" stroke="rgb(33,33,33)" fill="none" stroke-linecap="round"></path><path d="M 271.000,197.000 C 276.029,193.781 275.903,193.370 280.000,189.000" stroke-width="12.586" stroke="rgb(33,33,33)" fill="none" stroke-linecap="round"></path><path d="M 280.000,189.000 C 283.403,185.370 283.500,185.167 286.000,181.000" stroke-width="12.561" stroke="rgb(33,33,33)" fill="none" stroke-linecap="round"></path><path d="M 286.000,181.000 C 286.500,180.167 286.333,179.667 286.000,179.000" stroke-width="13.394" stroke="rgb(33,33,33)" fill="none" stroke-linecap="round"></path><path d="M 286.000,179.000 C 285.833,178.667 285.500,179.000 285.000,179.000" stroke-width="14.282" stroke="rgb(33,33,33)" fill="none" stroke-linecap="round"></path><path d="M 285.000,179.000 C 284.000,179.000 283.919,178.655 283.000,179.000" stroke-width="14.628" stroke="rgb(33,33,33)" fill="none" stroke-linecap="round"></path><path d="M 283.000,179.000 C 279.919,180.155 279.772,180.152 277.000,182.000" stroke-width="14.653" stroke="rgb(33,33,33)" fill="none" stroke-linecap="round"></path><path d="M 277.000,182.000 C 273.772,184.152 273.576,184.137 271.000,187.000" stroke-width="14.491" stroke="rgb(33,33,33)" fill="none" stroke-linecap="round"></path><path d="M 271.000,187.000 C 269.076,189.137 269.545,189.528 268.000,192.000" stroke-width="14.559" stroke="rgb(33,33,33)" fill="none" stroke-linecap="round"></path><path d="M 268.000,192.000 C 267.045,193.528 266.643,193.392 266.000,195.000" stroke-width="14.944" stroke="rgb(33,33,33)" fill="none" stroke-linecap="round"></path><path d="M 266.000,195.000 C 265.643,195.892 265.667,196.333 266.000,197.000" stroke-width="15.469" stroke="rgb(33,33,33)" fill="none" stroke-linecap="round"></path><path d="M 266.000,197.000 C 266.167,197.333 266.500,197.000 267.000,197.000" stroke-width="16.084" stroke="rgb(33,33,33)" fill="none" stroke-linecap="round"></path><path d="M 267.000,197.000 C 272.000,197.000 272.384,198.385 277.000,197.000" stroke-width="15.200" stroke="rgb(33,33,33)" fill="none" stroke-linecap="round"></path><path d="M 277.000,197.000 C 282.384,195.385 281.954,193.921 287.000,191.000" stroke-width="14.434" stroke="rgb(33,33,33)" fill="none" stroke-linecap="round"></path><path d="M 287.000,191.000 C 291.454,188.421 291.805,188.904 296.000,186.000" stroke-width="13.955" stroke="rgb(33,33,33)" fill="none" stroke-linecap="round"></path><path d="M 296.000,186.000 C 298.305,184.404 298.300,183.275 300.000,182.000" stroke-width="14.186" stroke="rgb(33,33,33)" fill="none" stroke-linecap="round"></path><path d="M 300.000,182.000 C 300.300,181.775 300.155,182.536 300.000,183.000" stroke-width="15.037" stroke="rgb(33,33,33)" fill="none" stroke-linecap="round"></path><path d="M 300.000,183.000 C 299.655,184.036 299.592,184.053 299.000,185.000" stroke-width="15.188" stroke="rgb(33,33,33)" fill="none" stroke-linecap="round"></path><path d="M 299.000,185.000 C 297.092,188.053 297.000,188.000 295.000,191.000" stroke-width="14.984" stroke="rgb(33,33,33)" fill="none" stroke-linecap="round"></path><path d="M 295.000,191.000 C 293.000,194.000 292.464,193.778 291.000,197.000" stroke-width="14.824" stroke="rgb(33,33,33)" fill="none" stroke-linecap="round"></path><path d="M 291.000,197.000 C 289.964,199.278 290.359,199.486 290.000,202.000" stroke-width="14.928" stroke="rgb(33,33,33)" fill="none" stroke-linecap="round"></path><path d="M 290.000,202.000 C 289.859,202.986 290.000,203.000 290.000,204.000" stroke-width="15.473" stroke="rgb(33,33,33)" fill="none" stroke-linecap="round"></path><path d="M 290.000,204.000 C 290.000,204.500 289.750,204.750 290.000,205.000" stroke-width="16.087" stroke="rgb(33,33,33)" fill="none" stroke-linecap="round"></path><path d="M 290.000,205.000 C 290.250,205.250 290.500,205.000 291.000,205.000" stroke-width="16.605" stroke="rgb(33,33,33)" fill="none" stroke-linecap="round"></path><path d="M 291.000,205.000 C 295.000,205.000 295.298,206.169 299.000,205.000" stroke-width="15.948" stroke="rgb(33,33,33)" fill="none" stroke-linecap="round"></path><path d="M 299.000,205.000 C 304.798,203.169 304.511,202.019 310.000,199.000" stroke-width="14.855" stroke="rgb(33,33,33)" fill="none" stroke-linecap="round"></path><path d="M 310.000,199.000 C 314.511,196.519 314.751,196.833 319.000,194.000" stroke-width="14.268" stroke="rgb(33,33,33)" fill="none" stroke-linecap="round"></path><path d="M 319.000,194.000 C 320.751,192.833 320.981,191.340 322.000,191.000" stroke-width="14.647" stroke="rgb(33,33,33)" fill="none" stroke-linecap="round"></path><path d="M 322.000,191.000 C 322.481,190.840 322.141,192.014 322.000,193.000" stroke-width="15.407" stroke="rgb(33,33,33)" fill="none" stroke-linecap="round"></path><path d="M 322.000,193.000 C 321.641,195.514 321.419,195.486 321.000,198.000" stroke-width="15.480" stroke="rgb(33,33,33)" fill="none" stroke-linecap="round"></path><path d="M 321.000,198.000 C 320.419,201.486 320.293,201.485 320.000,205.000" stroke-width="15.229" stroke="rgb(33,33,33)" fill="none" stroke-linecap="round"></path><path d="M 320.000,205.000 C 319.793,207.485 320.000,207.500 320.000,210.000" stroke-width="15.268" stroke="rgb(33,33,33)" fill="none" stroke-linecap="round"></path><path d="M 320.000,210.000 C 320.000,211.500 320.000,211.500 320.000,213.000" stroke-width="15.621" stroke="rgb(33,33,33)" fill="none" stroke-linecap="round"></path><path d="M 320.000,213.000 C 320.000,214.000 319.500,214.500 320.000,215.000" stroke-width="16.045" stroke="rgb(33,33,33)" fill="none" stroke-linecap="round"></path><path d="M 320.000,215.000 C 320.500,215.500 321.000,215.000 322.000,215.000" stroke-width="16.421" stroke="rgb(33,33,33)" fill="none" stroke-linecap="round"></path><path d="M 322.000,215.000 C 325.500,215.000 325.591,215.649 329.000,215.000" stroke-width="15.959" stroke="rgb(33,33,33)" fill="none" stroke-linecap="round"></path><path d="M 329.000,215.000 C 336.091,213.649 336.150,213.431 343.000,211.000" stroke-width="14.606" stroke="rgb(33,33,33)" fill="none" stroke-linecap="round"></path><path d="M 343.000,211.000 C 351.650,207.931 351.637,207.801 360.000,204.000" stroke-width="13.158" stroke="rgb(33,33,33)" fill="none" stroke-linecap="round"></path><path d="M 360.000,204.000 C 368.137,200.301 368.572,200.867 376.000,196.000" stroke-width="12.336" stroke="rgb(33,33,33)" fill="none" stroke-linecap="round"></path><path d="M 376.000,196.000 C 383.072,191.367 383.175,191.116 389.000,185.000" stroke-width="11.731" stroke="rgb(33,33,33)" fill="none" stroke-linecap="round"></path><path d="M 389.000,185.000 C 393.175,180.616 392.903,180.240 396.000,175.000" stroke-width="11.797" stroke="rgb(33,33,33)" fill="none" stroke-linecap="round"></path><path d="M 396.000,175.000 C 399.403,169.240 399.659,169.244 402.000,163.000" stroke-width="11.632" stroke="rgb(33,33,33)" fill="none" stroke-linecap="round"></path><path d="M 402.000,163.000 C 404.159,157.244 403.845,157.062 405.000,151.000" stroke-width="11.589" stroke="rgb(33,33,33)" fill="none" stroke-linecap="round"></path><path d="M 405.000,151.000 C 405.845,146.562 405.360,146.478 406.000,142.000" stroke-width="11.881" stroke="rgb(33,33,33)" fill="none" stroke-linecap="round"></path><path d="M 406.000,142.000 C 406.360,139.478 406.685,137.630 407.000,137.000" stroke-width="12.473" stroke="rgb(33,33,33)" fill="none" stroke-linecap="round"></path><path d="M 407.000,137.000 C 407.185,136.630 407.275,138.531 407.000,140.000" stroke-width="13.401" stroke="rgb(33,33,33)" fill="none" stroke-linecap="round"></path><path d="M 407.000,140.000 C 405.775,146.531 405.706,146.553 404.000,153.000" stroke-width="12.933" stroke="rgb(33,33,33)" fill="none" stroke-linecap="round"></path><path d="M 404.000,153.000 C 401.206,163.553 400.747,163.433 398.000,174.000" stroke-width="11.945" stroke="rgb(33,33,33)" fill="none" stroke-linecap="round"></path><path d="M 398.000,174.000 C 394.247,188.433 395.325,188.752 391.000,203.000" stroke-width="10.727" stroke="rgb(33,33,33)" fill="none" stroke-linecap="round"></path><path d="M 391.000,203.000 C 386.825,216.752 386.477,216.698 381.000,230.000" stroke-width="9.545" stroke="rgb(33,33,33)" fill="none" stroke-linecap="round"></path><path d="M 381.000,230.000 C 375.977,242.198 376.657,242.713 370.000,254.000" stroke-width="9.172" stroke="rgb(33,33,33)" fill="none" stroke-linecap="round"></path><path d="M 370.000,254.000 C 365.157,262.213 364.836,262.489 358.000,269.000" stroke-width="9.237" stroke="rgb(33,33,33)" fill="none" stroke-linecap="round"></path><path d="M 358.000,269.000 C 354.336,272.489 353.849,272.846 349.000,274.000" stroke-width="9.724" stroke="rgb(33,33,33)" fill="none" stroke-linecap="round"></path><path d="M 349.000,274.000 C 343.349,275.346 341.396,276.997 337.000,274.000" stroke-width="10.089" stroke="rgb(33,33,33)" fill="none" stroke-linecap="round"></path><path d="M 337.000,274.000 C 330.396,269.497 330.761,267.115 327.000,259.000" stroke-width="9.970" stroke="rgb(33,33,33)" fill="none" stroke-linecap="round"></path><path d="M 327.000,259.000 C 321.261,246.615 321.112,246.339 318.000,233.000" stroke-width="9.425" stroke="rgb(33,33,33)" fill="none" stroke-linecap="round"></path><path d="M 318.000,233.000 C 314.112,216.339 315.473,216.004 313.000,199.000" stroke-width="8.717" stroke="rgb(33,33,33)" fill="none" stroke-linecap="round"></path><path d="M 313.000,199.000 C 311.473,188.504 310.958,188.539 310.000,178.000" stroke-width="8.774" stroke="rgb(33,33,33)" fill="none" stroke-linecap="round"></path><path d="M 310.000,178.000 C 309.458,172.039 308.543,171.100 310.000,166.000" stroke-width="9.257" stroke="rgb(33,33,33)" fill="none" stroke-linecap="round"></path><path d="M 310.000,166.000 C 310.543,164.100 311.851,164.165 314.000,164.000" stroke-width="10.095" stroke="rgb(33,33,33)" fill="none" stroke-linecap="round"></path><path d="M 314.000,164.000 C 318.351,163.665 319.326,162.704 323.000,165.000" stroke-width="10.595" stroke="rgb(33,33,33)" fill="none" stroke-linecap="round"></path><path d="M 323.000,165.000 C 331.326,170.204 331.119,171.430 338.000,179.000" stroke-width="10.199" stroke="rgb(33,33,33)" fill="none" stroke-linecap="round"></path><path d="M 338.000,179.000 C 346.119,187.930 345.972,188.161 353.000,198.000" stroke-width="9.767" stroke="rgb(33,33,33)" fill="none" stroke-linecap="round"></path><path d="M 353.000,198.000 C 360.972,209.161 360.098,209.784 368.000,221.000" stroke-width="9.282" stroke="rgb(33,33,33)" fill="none" stroke-linecap="round"></path><path d="M 368.000,221.000 C 375.598,231.784 375.186,232.274 384.000,242.000" stroke-width="8.900" stroke="rgb(33,33,33)" fill="none" stroke-linecap="round"></path><path d="M 384.000,242.000 C 389.686,248.274 389.966,248.310 397.000,253.000" stroke-width="9.119" stroke="rgb(33,33,33)" fill="none" stroke-linecap="round"></path><path d="M 397.000,253.000 C 403.466,257.310 403.513,258.381 411.000,260.000" stroke-width="9.372" stroke="rgb(33,33,33)" fill="none" stroke-linecap="round"></path><path d="M 411.000,260.000 C 422.013,262.381 423.138,263.607 434.000,261.000" stroke-width="9.137" stroke="rgb(33,33,33)" fill="none" stroke-linecap="round"></path><path d="M 434.000,261.000 C 448.138,257.607 449.012,256.631 461.000,248.000" stroke-width="8.782" stroke="rgb(33,33,33)" fill="none" stroke-linecap="round"></path><path d="M 461.000,248.000 C 474.012,238.631 473.259,237.173 484.000,225.000" stroke-width="8.261" stroke="rgb(33,33,33)" fill="none" stroke-linecap="round"></path></svg>