<svg xmlns="http://www.w3.org/2000/svg" xmlns:xlink="http://www.w3.org/1999/xlink" viewBox="0 0 360 500"><path d="M 103.500,158.500 C 102.343,174.627 100.642,174.687 101.186,190.754" stroke-width="18.834" stroke="rgb(33,33,33)" fill="none" stroke-linecap="round"></path><path d="M 101.186,190.754 C 101.718,206.469 103.089,206.464 105.652,222.064" stroke-width="14.346" stroke="rgb(33,33,33)" fill="none" stroke-linecap="round"></path><path d="M 105.652,222.064 C 107.851,235.446 107.770,235.484 110.709,248.718" stroke-width="12.138" stroke="rgb(33,33,33)" fill="none" stroke-linecap="round"></path><path d="M 110.709,248.718 C 112.937,258.750 113.260,258.681 115.985,268.596" stroke-width="11.398" stroke="rgb(33,33,33)" fill="none" stroke-linecap="round"></path><path d="M 115.985,268.596 C 118.131,276.405 118.724,276.283 120.450,284.166" stroke-width="11.176" stroke="rgb(33,33,33)" fill="none" stroke-linecap="round"></path><path d="M 120.450,284.166 C 121.426,288.622 121.336,288.720 121.388,293.273" stroke-width="11.524" stroke="rgb(33,33,33)" fill="none" stroke-linecap="round"></path><path d="M 121.388,293.273 C 121.428,296.820 122.358,298.291 120.634,300.366" stroke-width="12.343" stroke="rgb(33,33,33)" fill="none" stroke-linecap="round"></path><path d="M 120.634,300.366 C 119.373,301.884 117.745,301.264 115.417,300.458" stroke-width="13.123" stroke="rgb(33,33,33)" fill="none" stroke-linecap="round"></path><path d="M 115.417,300.458 C 112.873,299.577 112.755,299.091 110.890,296.992" stroke-width="13.486" stroke="rgb(33,33,33)" fill="none" stroke-linecap="round"></path><path d="M 110.890,296.992 C 108.632,294.450 108.778,294.216 107.172,291.176" stroke-width="13.433" stroke="rgb(33,33,33)" fill="none" stroke-linecap="round"></path><path d="M 107.172,291.176 C 105.731,288.449 105.569,288.426 104.796,285.457" stroke-width="13.731" stroke="rgb(33,33,33)" fill="none" stroke-linecap="round"></path><path d="M 104.796,285.457 C 103.983,282.338 103.786,282.189 104.000,279.000" stroke-width="13.750" stroke="rgb(33,33,33)" fill="none" stroke-linecap="round"></path><path d="M 104.000,279.000 C 104.221,275.711 104.056,275.342 105.667,272.500" stroke-width="14.011" stroke="rgb(33,33,33)" fill="none" stroke-linecap="round"></path><path d="M 105.667,272.500 C 107.789,268.757 108.254,268.839 111.466,265.830" stroke-width="13.659" stroke="rgb(33,33,33)" fill="none" stroke-linecap="round"></path><path d="M 111.466,265.830 C 115.645,261.916 116.431,262.745 120.449,258.655" stroke-width="13.311" stroke="rgb(33,33,33)" fill="none" stroke-linecap="round"></path><path d="M 120.449,258.655 C 131.571,247.334 134.107,248.614 141.745,235.009" stroke-width="12.848" stroke="rgb(33,33,33)" fill="none" stroke-linecap="round"></path><path d="M 141.745,235.009 C 151.357,217.887 150.628,216.619 154.950,197.201" stroke-width="12.683" stroke="rgb(33,33,33)" fill="none" stroke-linecap="round"></path><path d="M 154.950,197.201 C 159.491,176.800 157.256,176.290 159.470,155.370" stroke-width="9.935" stroke="rgb(33,33,33)" fill="none" stroke-linecap="round"></path><path d="M 159.470,155.370 C 160.254,147.959 159.936,147.900 160.946,140.539" stroke-width="9.978" stroke="rgb(33,33,33)" fill="none" stroke-linecap="round"></path><path d="M 160.946,140.539 C 161.185,138.799 161.398,137.970 161.967,137.167" stroke-width="10.996" stroke="rgb(33,33,33)" fill="none" stroke-linecap="round"></path><path d="M 161.967,137.167 C 162.175,136.873 162.480,137.699 162.500,138.344" stroke-width="12.059" stroke="rgb(33,33,33)" fill="none" stroke-linecap="round"></path><path d="M 162.500,138.344 C 163.592,172.880 161.401,173.263 164.191,207.528" stroke-width="11.125" stroke="rgb(33,33,33)" fill="none" stroke-linecap="round"></path><path d="M 164.191,207.528 C 164.893,216.148 164.930,216.881 169.483,224.114" stroke-width="10.525" stroke="rgb(33,33,33)" fill="none" stroke-linecap="round"></path><path d="M 169.483,224.114 C 177.443,236.761 177.892,238.024 189.218,247.288" stroke-width="10.389" stroke="rgb(33,33,33)" fill="none" stroke-linecap="round"></path><path d="M 189.218,247.288 C 194.083,251.267 195.450,249.721 201.866,250.600" stroke-width="10.472" stroke="rgb(33,33,33)" fill="none" stroke-linecap="round"></path><path d="M 201.866,250.600 C 206.783,251.274 207.770,252.418 211.884,250.393" stroke-width="10.859" stroke="rgb(33,33,33)" fill="none" stroke-linecap="round"></path><path d="M 211.884,250.393 C 216.415,248.163 216.506,246.833 219.156,242.090" stroke-width="11.160" stroke="rgb(33,33,33)" fill="none" stroke-linecap="round"></path><path d="M 219.156,242.090 C 222.890,235.408 222.939,235.072 224.652,227.544" stroke-width="10.598" stroke="rgb(33,33,33)" fill="none" stroke-linecap="round"></path><path d="M 224.652,227.544 C 226.942,217.478 226.128,217.246 227.161,206.903" stroke-width="10.896" stroke="rgb(33,33,33)" fill="none" stroke-linecap="round"></path><path d="M 227.161,206.903 C 228.302,195.474 228.154,195.454 229.000,184.000" stroke-width="10.427" stroke="rgb(33,33,33)" fill="none" stroke-linecap="round"></path><path d="M 229.000,184.000 C 229.074,183.003 228.839,181.484 229.000,182.000" stroke-width="11.410" stroke="rgb(33,33,33)" fill="none" stroke-linecap="round"></path><path d="M 229.000,182.000 C 229.527,183.692 229.640,185.218 230.375,188.415" stroke-width="12.226" stroke="rgb(33,33,33)" fill="none" stroke-linecap="round"></path><path d="M 230.375,188.415 C 232.809,199.002 230.158,201.113 235.337,209.568" stroke-width="12.223" stroke="rgb(33,33,33)" fill="none" stroke-linecap="round"></path><path d="M 235.337,209.568 C 238.434,214.623 243.240,217.655 246.927,215.434" stroke-width="12.937" stroke="rgb(33,33,33)" fill="none" stroke-linecap="round"></path><path d="M 246.927,215.434 C 251.760,212.523 248.132,206.388 252.378,199.304" stroke-width="12.654" stroke="rgb(33,33,33)" fill="none" stroke-linecap="round"></path><path d="M 252.378,199.304 C 255.638,193.865 256.823,192.029 261.940,190.388" stroke-width="11.925" stroke="rgb(33,33,33)" fill="none" stroke-linecap="round"></path><path d="M 261.940,190.388 C 264.914,189.434 265.997,191.486 268.560,194.115" stroke-width="12.147" stroke="rgb(33,33,33)" fill="none" stroke-linecap="round"></path><path d="M 268.560,194.115 C 271.647,197.281 271.582,197.760 273.239,201.978" stroke-width="12.338" stroke="rgb(33,33,33)" fill="none" stroke-linecap="round"></path><path d="M 273.239,201.978 C 275.552,207.866 275.662,208.066 276.500,214.327" stroke-width="12.842" stroke="rgb(33,33,33)" fill="none" stroke-linecap="round"></path><path d="M 276.500,214.327 C 277.102,218.827 276.577,220.482 276.120,223.500" stroke-width="13.412" stroke="rgb(33,33,33)" fill="none" stroke-linecap="round"></path><path d="M 276.120,223.500 C 276.021,224.150 275.594,222.625 275.388,221.663" stroke-width="14.184" stroke="rgb(33,33,33)" fill="none" stroke-linecap="round"></path><path d="M 275.388,221.663 C 274.847,219.130 274.813,219.102 274.626,216.510" stroke-width="14.390" stroke="rgb(33,33,33)" fill="none" stroke-linecap="round"></path><path d="M 274.626,216.510 C 274.369,212.954 274.449,212.937 274.500,209.367" stroke-width="14.310" stroke="rgb(33,33,33)" fill="none" stroke-linecap="round"></path><path d="M 274.500,209.367 C 274.565,204.852 273.742,204.653 274.858,200.340" stroke-width="14.079" stroke="rgb(33,33,33)" fill="none" stroke-linecap="round"></path><path d="M 274.858,200.340 C 276.712,193.176 275.480,191.257 280.440,186.413" stroke-width="14.272" stroke="rgb(33,33,33)" fill="none" stroke-linecap="round"></path><path d="M 280.440,186.413 C 285.990,180.993 288.758,178.163 295.877,179.813" stroke-width="14.557" stroke="rgb(33,33,33)" fill="none" stroke-linecap="round"></path><path d="M 295.877,179.813 C 306.245,182.216 306.466,186.374 315.414,194.518" stroke-width="12.512" stroke="rgb(33,33,33)" fill="none" stroke-linecap="round"></path><path d="M 315.414,194.518 C 319.180,197.945 318.471,198.664 321.304,202.956" stroke-width="12.334" stroke="rgb(33,33,33)" fill="none" stroke-linecap="round"></path><path d="M 321.304,202.956 C 323.087,205.657 323.168,205.633 324.645,208.504" stroke-width="12.803" stroke="rgb(33,33,33)" fill="none" stroke-linecap="round"></path><path d="M 324.645,208.504 C 325.793,210.736 326.477,210.932 326.554,213.163" stroke-width="13.477" stroke="rgb(33,33,33)" fill="none" stroke-linecap="round"></path><path d="M 326.554,213.163 C 326.598,214.448 326.261,215.123 324.888,215.537" stroke-width="14.299" stroke="rgb(33,33,33)" fill="none" stroke-linecap="round"></path><path d="M 324.888,215.537 C 298.919,223.378 297.138,219.617 271.870,229.674" stroke-width="11.920" stroke="rgb(33,33,33)" fill="none" stroke-linecap="round"></path></svg>