<svg xmlns="http://www.w3.org/2000/svg" xmlns:xlink="http://www.w3.org/1999/xlink" viewBox="0 0 800 500"><path d="M 386.500,84.000 C 385.500,84.000 385.500,84.000 384.500,84.000" stroke-width="20.039" stroke="rgb(33,33,33)" fill="none" stroke-linecap="round"></path><path d="M 384.500,84.000 C 384.000,84.000 384.000,84.000 383.500,84.000" stroke-width="19.595" stroke="rgb(33,33,33)" fill="none" stroke-linecap="round"></path><path d="M 383.500,84.000 C 382.500,84.000 382.500,84.000 381.500,84.000" stroke-width="19.254" stroke="rgb(33,33,33)" fill="none" stroke-linecap="round"></path><path d="M 381.500,84.000 C 380.500,84.000 380.500,84.000 379.500,84.000" stroke-width="18.554" stroke="rgb(33,33,33)" fill="none" stroke-linecap="round"></path><path d="M 379.500,84.000 C 379.000,84.000 379.000,84.000 378.500,84.000" stroke-width="18.639" stroke="rgb(33,33,33)" fill="none" stroke-linecap="round"></path><path d="M 378.500,84.000 C 377.500,84.000 377.500,84.000 376.500,84.000" stroke-width="17.979" stroke="rgb(33,33,33)" fill="none" stroke-linecap="round"></path><path d="M 376.500,84.000 C 375.500,84.000 375.500,84.000 374.500,84.000" stroke-width="17.983" stroke="rgb(33,33,33)" fill="none" stroke-linecap="round"></path><path d="M 374.500,84.000 C 373.500,84.000 373.500,84.000 372.500,84.000" stroke-width="17.596" stroke="rgb(33,33,33)" fill="none" stroke-linecap="round"></path><path d="M 372.500,84.000 C 372.000,84.000 372.000,84.000 371.500,84.000" stroke-width="17.675" stroke="rgb(33,33,33)" fill="none" stroke-linecap="round"></path><path d="M 371.500,84.000 C 370.500,84.000 370.500,84.000 369.500,84.000" stroke-width="17.359" stroke="rgb(33,33,33)" fill="none" stroke-linecap="round"></path><path d="M 369.500,84.000 C 369.000,84.000 369.000,84.000 368.500,84.000" stroke-width="17.526" stroke="rgb(33,33,33)" fill="none" stroke-linecap="round"></path><path d="M 368.500,84.000 C 367.500,84.000 367.500,84.000 366.500,84.000" stroke-width="16.814" stroke="rgb(33,33,33)" fill="none" stroke-linecap="round"></path><path d="M 366.500,84.000 C 365.000,84.000 365.000,84.000 363.500,84.000" stroke-width="16.461" stroke="rgb(33,33,33)" fill="none" stroke-linecap="round"></path><path d="M 363.500,84.000 C 361.500,84.000 361.500,84.000 359.500,84.000" stroke-width="15.596" stroke="rgb(33,33,33)" fill="none" stroke-linecap="round"></path><path d="M 359.500,84.000 C 358.500,84.000 358.500,84.000 357.500,84.000" stroke-width="15.781" stroke="rgb(33,33,33)" fill="none" stroke-linecap="round"></path><path d="M 357.500,84.000 C 356.000,84.000 356.000,84.000 354.500,84.000" stroke-width="15.431" stroke="rgb(33,33,33)" fill="none" stroke-linecap="round"></path><path d="M 354.500,84.000 C 353.000,84.000 353.000,84.000 351.500,84.000" stroke-width="15.382" stroke="rgb(33,33,33)" fill="none" stroke-linecap="round"></path><path d="M 351.500,84.000 C 351.000,84.000 350.964,83.845 350.500,84.000" stroke-width="15.799" stroke="rgb(33,33,33)" fill="none" stroke-linecap="round"></path><path d="M 350.500,84.000 C 349.464,84.345 349.556,84.736 348.500,85.000" stroke-width="15.995" stroke="rgb(33,33,33)" fill="none" stroke-linecap="round"></path><path d="M 348.500,85.000 C 347.556,85.236 347.500,85.000 346.500,85.000" stroke-width="15.663" stroke="rgb(33,33,33)" fill="none" stroke-linecap="round"></path><path d="M 346.500,85.000 C 346.000,85.000 345.750,84.750 345.500,85.000" stroke-width="16.145" stroke="rgb(33,33,33)" fill="none" stroke-linecap="round"></path><path d="M 345.500,85.000 C 345.250,85.250 345.750,85.750 345.500,86.000" stroke-width="16.374" stroke="rgb(33,33,33)" fill="none" stroke-linecap="round"></path><path d="M 345.500,86.000 C 345.250,86.250 345.000,86.000 344.500,86.000" stroke-width="16.823" stroke="rgb(33,33,33)" fill="none" stroke-linecap="round"></path><path d="M 344.500,86.000 C 343.500,86.000 343.167,85.667 342.500,86.000" stroke-width="16.695" stroke="rgb(33,33,33)" fill="none" stroke-linecap="round"></path><path d="M 342.500,86.000 C 342.167,86.167 342.750,86.750 342.500,87.000" stroke-width="16.941" stroke="rgb(33,33,33)" fill="none" stroke-linecap="round"></path><path d="M 342.500,87.000 C 342.250,87.250 342.000,87.000 341.500,87.000" stroke-width="17.337" stroke="rgb(33,33,33)" fill="none" stroke-linecap="round"></path><path d="M 341.500,87.000 C 341.000,87.000 340.914,86.793 340.500,87.000" stroke-width="17.412" stroke="rgb(33,33,33)" fill="none" stroke-linecap="round"></path><path d="M 340.500,87.000 C 339.914,87.293 340.086,87.707 339.500,88.000" stroke-width="17.638" stroke="rgb(33,33,33)" fill="none" stroke-linecap="round"></path><path d="M 339.500,88.000 C 339.086,88.207 338.750,87.750 338.500,88.000" stroke-width="17.917" stroke="rgb(33,33,33)" fill="none" stroke-linecap="round"></path><path d="M 338.500,88.000 C 338.250,88.250 338.809,88.691 338.500,89.000" stroke-width="17.933" stroke="rgb(33,33,33)" fill="none" stroke-linecap="round"></path><path d="M 338.500,89.000 C 337.809,89.691 337.419,89.387 336.500,90.000" stroke-width="16.977" stroke="rgb(33,33,33)" fill="none" stroke-linecap="round"></path><path d="M 336.500,90.000 C 335.919,90.387 336.000,90.500 335.500,91.000" stroke-width="17.279" stroke="rgb(33,33,33)" fill="none" stroke-linecap="round"></path><path d="M 335.500,91.000 C 335.000,91.500 335.086,91.707 334.500,92.000" stroke-width="17.529" stroke="rgb(33,33,33)" fill="none" stroke-linecap="round"></path><path d="M 334.500,92.000 C 334.086,92.207 333.667,91.667 333.500,92.000" stroke-width="17.827" stroke="rgb(33,33,33)" fill="none" stroke-linecap="round"></path><path d="M 333.500,92.000 C 333.167,92.667 333.500,93.000 333.500,94.000" stroke-width="17.369" stroke="rgb(33,33,33)" fill="none" stroke-linecap="round"></path><path d="M 333.500,94.000 C 333.500,94.500 333.500,94.500 333.500,95.000" stroke-width="17.655" stroke="rgb(33,33,33)" fill="none" stroke-linecap="round"></path><path d="M 333.500,95.000 C 333.500,95.500 333.750,95.750 333.500,96.000" stroke-width="17.801" stroke="rgb(33,33,33)" fill="none" stroke-linecap="round"></path><path d="M 333.500,96.000 C 333.250,96.250 332.667,95.667 332.500,96.000" stroke-width="18.071" stroke="rgb(33,33,33)" fill="none" stroke-linecap="round"></path><path d="M 332.500,96.000 C 332.167,96.667 332.793,97.121 332.500,98.000" stroke-width="18.030" stroke="rgb(33,33,33)" fill="none" stroke-linecap="round"></path><path d="M 332.500,98.000 C 332.293,98.621 332.000,98.500 331.500,99.000" stroke-width="17.319" stroke="rgb(33,33,33)" fill="none" stroke-linecap="round"></path><path d="M 331.500,99.000 C 331.000,99.500 330.793,99.414 330.500,100.000" stroke-width="17.562" stroke="rgb(33,33,33)" fill="none" stroke-linecap="round"></path><path d="M 330.500,100.000 C 330.293,100.414 330.500,100.500 330.500,101.000" stroke-width="17.777" stroke="rgb(33,33,33)" fill="none" stroke-linecap="round"></path><path d="M 330.500,101.000 C 330.500,102.000 330.500,102.000 330.500,103.000" stroke-width="17.691" stroke="rgb(33,33,33)" fill="none" stroke-linecap="round"></path><path d="M 330.500,103.000 C 330.500,103.500 330.500,103.500 330.500,104.000" stroke-width="17.961" stroke="rgb(33,33,33)" fill="none" stroke-linecap="round"></path><path d="M 330.500,104.000 C 330.500,104.500 330.500,104.500 330.500,105.000" stroke-width="17.968" stroke="rgb(33,33,33)" fill="none" stroke-linecap="round"></path><path d="M 330.500,105.000 C 330.500,105.500 330.500,105.500 330.500,106.000" stroke-width="18.255" stroke="rgb(33,33,33)" fill="none" stroke-linecap="round"></path><path d="M 330.500,106.000 C 330.500,106.500 330.500,106.500 330.500,107.000" stroke-width="18.286" stroke="rgb(33,33,33)" fill="none" stroke-linecap="round"></path><path d="M 330.500,107.000 C 330.500,107.500 330.500,107.500 330.500,108.000" stroke-width="18.499" stroke="rgb(33,33,33)" fill="none" stroke-linecap="round"></path><path d="M 330.500,108.000 C 330.500,108.500 330.500,108.500 330.500,109.000" stroke-width="18.397" stroke="rgb(33,33,33)" fill="none" stroke-linecap="round"></path><path d="M 330.500,109.000 C 330.500,109.500 330.500,109.500 330.500,110.000" stroke-width="18.597" stroke="rgb(33,33,33)" fill="none" stroke-linecap="round"></path><path d="M 330.500,110.000 C 330.500,110.500 330.500,110.500 330.500,111.000" stroke-width="18.765" stroke="rgb(33,33,33)" fill="none" stroke-linecap="round"></path><path d="M 330.500,111.000 C 330.500,111.500 330.500,111.500 330.500,112.000" stroke-width="18.922" stroke="rgb(33,33,33)" fill="none" stroke-linecap="round"></path><path d="M 330.500,112.000 C 330.500,112.500 330.500,112.500 330.500,113.000" stroke-width="19.061" stroke="rgb(33,33,33)" fill="none" stroke-linecap="round"></path><path d="M 330.500,113.000 C 330.500,113.500 330.500,113.500 330.500,114.000" stroke-width="19.186" stroke="rgb(33,33,33)" fill="none" stroke-linecap="round"></path><path d="M 330.500,114.000 C 330.500,114.500 330.500,114.500 330.500,115.000" stroke-width="19.248" stroke="rgb(33,33,33)" fill="none" stroke-linecap="round"></path><path d="M 330.500,115.000 C 330.500,115.500 330.500,115.500 330.500,116.000" stroke-width="19.034" stroke="rgb(33,33,33)" fill="none" stroke-linecap="round"></path><path d="M 330.500,116.000 C 330.500,116.500 330.500,116.500 330.500,117.000" stroke-width="19.188" stroke="rgb(33,33,33)" fill="none" stroke-linecap="round"></path><path d="M 330.500,117.000 C 330.500,117.500 330.293,117.586 330.500,118.000" stroke-width="18.938" stroke="rgb(33,33,33)" fill="none" stroke-linecap="round"></path><path d="M 330.500,118.000 C 330.793,118.586 330.914,118.707 331.500,119.000" stroke-width="18.479" stroke="rgb(33,33,33)" fill="none" stroke-linecap="round"></path><path d="M 331.500,119.000 C 331.914,119.207 332.250,118.750 332.500,119.000" stroke-width="18.381" stroke="rgb(33,33,33)" fill="none" stroke-linecap="round"></path><path d="M 332.500,119.000 C 332.750,119.250 332.500,119.500 332.500,120.000" stroke-width="18.245" stroke="rgb(33,33,33)" fill="none" stroke-linecap="round"></path><path d="M 332.500,120.000 C 332.500,121.000 332.167,121.333 332.500,122.000" stroke-width="17.883" stroke="rgb(33,33,33)" fill="none" stroke-linecap="round"></path><path d="M 332.500,122.000 C 332.667,122.333 333.086,121.793 333.500,122.000" stroke-width="17.850" stroke="rgb(33,33,33)" fill="none" stroke-linecap="round"></path><path d="M 333.500,122.000 C 334.086,122.293 334.000,122.500 334.500,123.000" stroke-width="17.779" stroke="rgb(33,33,33)" fill="none" stroke-linecap="round"></path><path d="M 334.500,123.000 C 335.000,123.500 335.207,123.414 335.500,124.000" stroke-width="17.584" stroke="rgb(33,33,33)" fill="none" stroke-linecap="round"></path><path d="M 335.500,124.000 C 335.707,124.414 335.250,124.750 335.500,125.000" stroke-width="17.771" stroke="rgb(33,33,33)" fill="none" stroke-linecap="round"></path><path d="M 335.500,125.000 C 335.750,125.250 336.191,124.691 336.500,125.000" stroke-width="17.585" stroke="rgb(33,33,33)" fill="none" stroke-linecap="round"></path><path d="M 336.500,125.000 C 337.191,125.691 336.750,126.250 337.500,127.000" stroke-width="17.202" stroke="rgb(33,33,33)" fill="none" stroke-linecap="round"></path><path d="M 337.500,127.000 C 338.250,127.750 338.809,127.309 339.500,128.000" stroke-width="17.285" stroke="rgb(33,33,33)" fill="none" stroke-linecap="round"></path><path d="M 339.500,128.000 C 339.809,128.309 339.250,128.750 339.500,129.000" stroke-width="17.370" stroke="rgb(33,33,33)" fill="none" stroke-linecap="round"></path><path d="M 339.500,129.000 C 339.750,129.250 340.250,128.750 340.500,129.000" stroke-width="17.748" stroke="rgb(33,33,33)" fill="none" stroke-linecap="round"></path><path d="M 340.500,129.000 C 340.750,129.250 340.250,129.750 340.500,130.000" stroke-width="18.068" stroke="rgb(33,33,33)" fill="none" stroke-linecap="round"></path><path d="M 340.500,130.000 C 340.750,130.250 341.250,129.750 341.500,130.000" stroke-width="17.997" stroke="rgb(33,33,33)" fill="none" stroke-linecap="round"></path><path d="M 341.500,130.000 C 341.750,130.250 341.250,130.750 341.500,131.000" stroke-width="18.078" stroke="rgb(33,33,33)" fill="none" stroke-linecap="round"></path><path d="M 341.500,131.000 C 341.750,131.250 342.086,130.793 342.500,131.000" stroke-width="18.218" stroke="rgb(33,33,33)" fill="none" stroke-linecap="round"></path><path d="M 342.500,131.000 C 343.086,131.293 343.000,131.500 343.500,132.000" stroke-width="18.275" stroke="rgb(33,33,33)" fill="none" stroke-linecap="round"></path><path d="M 343.500,132.000 C 344.000,132.500 343.919,132.613 344.500,133.000" stroke-width="18.051" stroke="rgb(33,33,33)" fill="none" stroke-linecap="round"></path><path d="M 344.500,133.000 C 345.419,133.613 345.617,133.338 346.500,134.000" stroke-width="17.558" stroke="rgb(33,33,33)" fill="none" stroke-linecap="round"></path><path d="M 346.500,134.000 C 347.617,134.838 347.320,135.292 348.500,136.000" stroke-width="16.968" stroke="rgb(33,33,33)" fill="none" stroke-linecap="round"></path><path d="M 348.500,136.000 C 349.820,136.792 350.098,136.299 351.500,137.000" stroke-width="16.531" stroke="rgb(33,33,33)" fill="none" stroke-linecap="round"></path><path d="M 351.500,137.000 C 353.098,137.799 352.938,138.107 354.500,139.000" stroke-width="15.783" stroke="rgb(33,33,33)" fill="none" stroke-linecap="round"></path><path d="M 354.500,139.000 C 356.438,140.107 356.381,140.364 358.500,141.000" stroke-width="15.274" stroke="rgb(33,33,33)" fill="none" stroke-linecap="round"></path><path d="M 358.500,141.000 C 361.381,141.864 361.520,141.404 364.500,142.000" stroke-width="13.465" stroke="rgb(33,33,33)" fill="none" stroke-linecap="round"></path><path d="M 364.500,142.000 C 366.520,142.404 366.549,142.350 368.500,143.000" stroke-width="13.547" stroke="rgb(33,33,33)" fill="none" stroke-linecap="round"></path><path d="M 368.500,143.000 C 371.049,143.850 370.971,144.080 373.500,145.000" stroke-width="13.067" stroke="rgb(33,33,33)" fill="none" stroke-linecap="round"></path><path d="M 373.500,145.000 C 376.471,146.080 376.442,146.235 379.500,147.000" stroke-width="12.673" stroke="rgb(33,33,33)" fill="none" stroke-linecap="round"></path><path d="M 379.500,147.000 C 382.442,147.735 382.484,147.698 385.500,148.000" stroke-width="12.657" stroke="rgb(33,33,33)" fill="none" stroke-linecap="round"></path><path d="M 385.500,148.000 C 387.484,148.198 387.530,147.754 389.500,148.000" stroke-width="12.552" stroke="rgb(33,33,33)" fill="none" stroke-linecap="round"></path><path d="M 389.500,148.000 C 391.530,148.254 391.480,148.663 393.500,149.000" stroke-width="12.706" stroke="rgb(33,33,33)" fill="none" stroke-linecap="round"></path><path d="M 393.500,149.000 C 394.480,149.163 394.500,149.000 395.500,149.000" stroke-width="13.279" stroke="rgb(33,33,33)" fill="none" stroke-linecap="round"></path><path d="M 395.500,149.000 C 397.000,149.000 397.068,148.714 398.500,149.000" stroke-width="13.545" stroke="rgb(33,33,33)" fill="none" stroke-linecap="round"></path><path d="M 398.500,149.000 C 399.568,149.214 399.464,149.655 400.500,150.000" stroke-width="13.947" stroke="rgb(33,33,33)" fill="none" stroke-linecap="round"></path><path d="M 400.500,150.000 C 400.964,150.155 401.000,150.000 401.500,150.000" stroke-width="14.605" stroke="rgb(33,33,33)" fill="none" stroke-linecap="round"></path><path d="M 401.500,150.000 C 402.500,150.000 402.500,150.000 403.500,150.000" stroke-width="14.821" stroke="rgb(33,33,33)" fill="none" stroke-linecap="round"></path><path d="M 403.500,150.000 C 405.000,150.000 405.000,150.000 406.500,150.000" stroke-width="14.802" stroke="rgb(33,33,33)" fill="none" stroke-linecap="round"></path><path d="M 406.500,150.000 C 407.000,150.000 407.000,150.000 407.500,150.000" stroke-width="15.347" stroke="rgb(33,33,33)" fill="none" stroke-linecap="round"></path><path d="M 407.500,150.000 C 408.500,150.000 408.500,150.000 409.500,150.000" stroke-width="15.510" stroke="rgb(33,33,33)" fill="none" stroke-linecap="round"></path><path d="M 409.500,150.000 C 410.000,150.000 410.086,149.793 410.500,150.000" stroke-width="15.952" stroke="rgb(33,33,33)" fill="none" stroke-linecap="round"></path><path d="M 410.500,150.000 C 411.086,150.293 410.914,150.707 411.500,151.000" stroke-width="16.188" stroke="rgb(33,33,33)" fill="none" stroke-linecap="round"></path><path d="M 411.500,151.000 C 411.914,151.207 412.000,151.000 412.500,151.000" stroke-width="16.473" stroke="rgb(33,33,33)" fill="none" stroke-linecap="round"></path><path d="M 412.500,151.000 C 413.000,151.000 413.250,150.750 413.500,151.000" stroke-width="16.932" stroke="rgb(33,33,33)" fill="none" stroke-linecap="round"></path><path d="M 413.500,151.000 C 413.750,151.250 413.250,151.750 413.500,152.000" stroke-width="17.208" stroke="rgb(33,33,33)" fill="none" stroke-linecap="round"></path><path d="M 413.500,152.000 C 413.750,152.250 414.250,151.750 414.500,152.000" stroke-width="17.238" stroke="rgb(33,33,33)" fill="none" stroke-linecap="round"></path><path d="M 414.500,152.000 C 414.750,152.250 414.500,152.500 414.500,153.000" stroke-width="17.663" stroke="rgb(33,33,33)" fill="none" stroke-linecap="round"></path><path d="M 414.500,153.000 C 414.500,154.000 414.500,154.000 414.500,155.000" stroke-width="17.870" stroke="rgb(33,33,33)" fill="none" stroke-linecap="round"></path><path d="M 414.500,155.000 C 414.500,155.500 414.500,155.500 414.500,156.000" stroke-width="17.840" stroke="rgb(33,33,33)" fill="none" stroke-linecap="round"></path><path d="M 414.500,156.000 C 414.500,157.000 414.306,157.031 414.500,158.000" stroke-width="17.486" stroke="rgb(33,33,33)" fill="none" stroke-linecap="round"></path><path d="M 414.500,158.000 C 414.806,159.531 415.194,159.469 415.500,161.000" stroke-width="16.921" stroke="rgb(33,33,33)" fill="none" stroke-linecap="round"></path><path d="M 415.500,161.000 C 415.694,161.969 415.264,162.056 415.500,163.000" stroke-width="16.365" stroke="rgb(33,33,33)" fill="none" stroke-linecap="round"></path><path d="M 415.500,163.000 C 415.764,164.056 416.236,163.944 416.500,165.000" stroke-width="16.254" stroke="rgb(33,33,33)" fill="none" stroke-linecap="round"></path><path d="M 416.500,165.000 C 416.736,165.944 416.306,166.031 416.500,167.000" stroke-width="16.244" stroke="rgb(33,33,33)" fill="none" stroke-linecap="round"></path><path d="M 416.500,167.000 C 416.806,168.531 417.194,168.469 417.500,170.000" stroke-width="15.865" stroke="rgb(33,33,33)" fill="none" stroke-linecap="round"></path><path d="M 417.500,170.000 C 417.694,170.969 417.500,171.000 417.500,172.000" stroke-width="15.931" stroke="rgb(33,33,33)" fill="none" stroke-linecap="round"></path><path d="M 417.500,172.000 C 417.500,173.000 417.500,173.000 417.500,174.000" stroke-width="16.325" stroke="rgb(33,33,33)" fill="none" stroke-linecap="round"></path><path d="M 417.500,174.000 C 417.500,174.500 417.500,174.500 417.500,175.000" stroke-width="16.635" stroke="rgb(33,33,33)" fill="none" stroke-linecap="round"></path><path d="M 417.500,175.000 C 417.500,175.500 417.500,175.500 417.500,176.000" stroke-width="16.841" stroke="rgb(33,33,33)" fill="none" stroke-linecap="round"></path><path d="M 417.500,176.000 C 417.500,177.500 417.500,177.500 417.500,179.000" stroke-width="16.482" stroke="rgb(33,33,33)" fill="none" stroke-linecap="round"></path><path d="M 417.500,179.000 C 417.500,180.000 417.500,180.000 417.500,181.000" stroke-width="16.330" stroke="rgb(33,33,33)" fill="none" stroke-linecap="round"></path><path d="M 417.500,181.000 C 417.500,183.000 417.821,183.076 417.500,185.000" stroke-width="15.279" stroke="rgb(33,33,33)" fill="none" stroke-linecap="round"></path><path d="M 417.500,185.000 C 417.321,186.076 416.655,185.918 416.500,187.000" stroke-width="15.458" stroke="rgb(33,33,33)" fill="none" stroke-linecap="round"></path><path d="M 416.500,187.000 C 416.155,189.418 416.806,189.550 416.500,192.000" stroke-width="14.560" stroke="rgb(33,33,33)" fill="none" stroke-linecap="round"></path><path d="M 416.500,192.000 C 416.306,193.550 415.806,193.469 415.500,195.000" stroke-width="14.779" stroke="rgb(33,33,33)" fill="none" stroke-linecap="round"></path><path d="M 415.500,195.000 C 415.306,195.969 415.694,196.031 415.500,197.000" stroke-width="14.715" stroke="rgb(33,33,33)" fill="none" stroke-linecap="round"></path><path d="M 415.500,197.000 C 415.194,198.531 415.086,198.536 414.500,200.000" stroke-width="14.674" stroke="rgb(33,33,33)" fill="none" stroke-linecap="round"></path><path d="M 414.500,200.000 C 414.086,201.036 414.074,201.043 413.500,202.000" stroke-width="14.891" stroke="rgb(33,33,33)" fill="none" stroke-linecap="round"></path><path d="M 413.500,202.000 C 412.574,203.543 412.426,203.457 411.500,205.000" stroke-width="14.802" stroke="rgb(33,33,33)" fill="none" stroke-linecap="round"></path><path d="M 411.500,205.000 C 410.926,205.957 411.113,206.081 410.500,207.000" stroke-width="14.908" stroke="rgb(33,33,33)" fill="none" stroke-linecap="round"></path><path d="M 410.500,207.000 C 410.113,207.581 410.000,207.500 409.500,208.000" stroke-width="15.664" stroke="rgb(33,33,33)" fill="none" stroke-linecap="round"></path><path d="M 409.500,208.000 C 409.000,208.500 409.086,208.707 408.500,209.000" stroke-width="15.950" stroke="rgb(33,33,33)" fill="none" stroke-linecap="round"></path><path d="M 408.500,209.000 C 408.086,209.207 408.000,209.000 407.500,209.000" stroke-width="16.488" stroke="rgb(33,33,33)" fill="none" stroke-linecap="round"></path><path d="M 407.500,209.000 C 406.000,209.000 405.813,209.563 404.500,209.000" stroke-width="16.904" stroke="rgb(33,33,33)" fill="none" stroke-linecap="round"></path><path d="M 404.500,209.000 C 402.313,208.063 402.692,207.096 400.500,206.000" stroke-width="15.563" stroke="rgb(33,33,33)" fill="none" stroke-linecap="round"></path><path d="M 400.500,206.000 C 398.692,205.096 398.419,205.720 396.500,205.000" stroke-width="15.196" stroke="rgb(33,33,33)" fill="none" stroke-linecap="round"></path><path d="M 396.500,205.000 C 394.419,204.220 394.550,203.879 392.500,203.000" stroke-width="14.528" stroke="rgb(33,33,33)" fill="none" stroke-linecap="round"></path><path d="M 392.500,203.000 C 391.050,202.379 391.045,202.221 389.500,202.000" stroke-width="14.617" stroke="rgb(33,33,33)" fill="none" stroke-linecap="round"></path><path d="M 389.500,202.000 C 387.545,201.721 387.347,202.369 385.500,202.000" stroke-width="14.235" stroke="rgb(33,33,33)" fill="none" stroke-linecap="round"></path><path d="M 385.500,202.000 C 384.847,201.869 385.086,201.293 384.500,201.000" stroke-width="14.744" stroke="rgb(33,33,33)" fill="none" stroke-linecap="round"></path><path d="M 384.500,201.000 C 384.086,200.793 384.000,201.000 383.500,201.000" stroke-width="15.330" stroke="rgb(33,33,33)" fill="none" stroke-linecap="round"></path><path d="M 383.500,201.000 C 383.000,201.000 383.000,201.000 382.500,201.000" stroke-width="15.755" stroke="rgb(33,33,33)" fill="none" stroke-linecap="round"></path><path d="M 382.500,201.000 C 382.000,201.000 382.000,201.000 381.500,201.000" stroke-width="16.321" stroke="rgb(33,33,33)" fill="none" stroke-linecap="round"></path><path d="M 381.500,201.000 C 381.000,201.000 380.750,201.250 380.500,201.000" stroke-width="16.955" stroke="rgb(33,33,33)" fill="none" stroke-linecap="round"></path><path d="M 380.500,201.000 C 380.250,200.750 380.707,200.414 380.500,200.000" stroke-width="17.154" stroke="rgb(33,33,33)" fill="none" stroke-linecap="round"></path><path d="M 380.500,200.000 C 380.207,199.414 380.086,199.293 379.500,199.000" stroke-width="17.165" stroke="rgb(33,33,33)" fill="none" stroke-linecap="round"></path><path d="M 379.500,199.000 C 379.086,198.793 378.750,199.250 378.500,199.000" stroke-width="17.513" stroke="rgb(33,33,33)" fill="none" stroke-linecap="round"></path><path d="M 378.500,199.000 C 378.250,198.750 378.500,198.500 378.500,198.000" stroke-width="17.774" stroke="rgb(33,33,33)" fill="none" stroke-linecap="round"></path><path d="M 378.500,198.000 C 378.500,197.500 378.750,197.250 378.500,197.000" stroke-width="18.029" stroke="rgb(33,33,33)" fill="none" stroke-linecap="round"></path><path d="M 378.500,197.000 C 378.250,196.750 377.750,197.250 377.500,197.000" stroke-width="17.966" stroke="rgb(33,33,33)" fill="none" stroke-linecap="round"></path><path d="M 377.500,197.000 C 377.250,196.750 377.500,196.500 377.500,196.000" stroke-width="17.973" stroke="rgb(33,33,33)" fill="none" stroke-linecap="round"></path><path d="M 377.500,196.000 C 377.500,195.000 377.500,195.000 377.500,194.000" stroke-width="18.112" stroke="rgb(33,33,33)" fill="none" stroke-linecap="round"></path><path d="M 377.500,194.000 C 377.500,193.000 377.500,193.000 377.500,192.000" stroke-width="17.694" stroke="rgb(33,33,33)" fill="none" stroke-linecap="round"></path><path d="M 377.500,192.000 C 377.500,190.500 377.500,190.500 377.500,189.000" stroke-width="17.596" stroke="rgb(33,33,33)" fill="none" stroke-linecap="round"></path><path d="M 377.500,189.000 C 377.500,188.500 377.500,188.500 377.500,188.000" stroke-width="17.620" stroke="rgb(33,33,33)" fill="none" stroke-linecap="round"></path><path d="M 377.500,188.000 C 377.500,187.000 377.306,186.969 377.500,186.000" stroke-width="17.399" stroke="rgb(33,33,33)" fill="none" stroke-linecap="round"></path><path d="M 377.500,186.000 C 377.806,184.469 378.066,184.519 378.500,183.000" stroke-width="16.103" stroke="rgb(33,33,33)" fill="none" stroke-linecap="round"></path><path d="M 378.500,183.000 C 379.066,181.019 378.700,180.867 379.500,179.000" stroke-width="15.808" stroke="rgb(33,33,33)" fill="none" stroke-linecap="round"></path><path d="M 379.500,179.000 C 380.200,177.367 380.800,177.633 381.500,176.000" stroke-width="14.791" stroke="rgb(33,33,33)" fill="none" stroke-linecap="round"></path><path d="M 381.500,176.000 C 382.300,174.133 382.000,174.000 382.500,172.000" stroke-width="14.847" stroke="rgb(33,33,33)" fill="none" stroke-linecap="round"></path><path d="M 382.500,172.000 C 383.000,170.000 382.596,169.808 383.500,168.000" stroke-width="13.524" stroke="rgb(33,33,33)" fill="none" stroke-linecap="round"></path><path d="M 383.500,168.000 C 384.596,165.808 385.180,166.111 386.500,164.000" stroke-width="13.420" stroke="rgb(33,33,33)" fill="none" stroke-linecap="round"></path><path d="M 386.500,164.000 C 387.680,162.111 387.352,161.914 388.500,160.000" stroke-width="13.193" stroke="rgb(33,33,33)" fill="none" stroke-linecap="round"></path><path d="M 388.500,160.000 C 390.352,156.914 390.500,157.000 392.500,154.000" stroke-width="12.591" stroke="rgb(33,33,33)" fill="none" stroke-linecap="round"></path><path d="M 392.500,154.000 C 394.500,151.000 394.565,151.041 396.500,148.000" stroke-width="12.149" stroke="rgb(33,33,33)" fill="none" stroke-linecap="round"></path><path d="M 396.500,148.000 C 398.065,145.541 398.105,145.558 399.500,143.000" stroke-width="11.720" stroke="rgb(33,33,33)" fill="none" stroke-linecap="round"></path><path d="M 399.500,143.000 C 401.105,140.058 400.652,139.772 402.500,137.000" stroke-width="11.696" stroke="rgb(33,33,33)" fill="none" stroke-linecap="round"></path><path d="M 402.500,137.000 C 404.652,133.772 405.160,134.120 407.500,131.000" stroke-width="11.199" stroke="rgb(33,33,33)" fill="none" stroke-linecap="round"></path><path d="M 407.500,131.000 C 409.660,128.120 409.340,127.880 411.500,125.000" stroke-width="11.207" stroke="rgb(33,33,33)" fill="none" stroke-linecap="round"></path><path d="M 411.500,125.000 C 413.840,121.880 414.000,122.000 416.500,119.000" stroke-width="10.837" stroke="rgb(33,33,33)" fill="none" stroke-linecap="round"></path><path d="M 416.500,119.000 C 419.000,116.000 419.027,116.022 421.500,113.000" stroke-width="10.939" stroke="rgb(33,33,33)" fill="none" stroke-linecap="round"></path><path d="M 421.500,113.000 C 423.527,110.522 423.246,110.254 425.500,108.000" stroke-width="10.690" stroke="rgb(33,33,33)" fill="none" stroke-linecap="round"></path><path d="M 425.500,108.000 C 428.746,104.754 428.981,104.978 432.500,102.000" stroke-width="10.659" stroke="rgb(33,33,33)" fill="none" stroke-linecap="round"></path><path d="M 432.500,102.000 C 435.481,99.478 435.750,99.750 438.500,97.000" stroke-width="10.226" stroke="rgb(33,33,33)" fill="none" stroke-linecap="round"></path><path d="M 438.500,97.000 C 441.250,94.250 440.750,93.750 443.500,91.000" stroke-width="10.344" stroke="rgb(33,33,33)" fill="none" stroke-linecap="round"></path><path d="M 443.500,91.000 C 446.250,88.250 446.613,88.624 449.500,86.000" stroke-width="10.179" stroke="rgb(33,33,33)" fill="none" stroke-linecap="round"></path><path d="M 449.500,86.000 C 452.113,83.624 452.221,83.659 454.500,81.000" stroke-width="10.158" stroke="rgb(33,33,33)" fill="none" stroke-linecap="round"></path><path d="M 454.500,81.000 C 455.221,80.159 454.946,79.970 455.500,79.000" stroke-width="10.979" stroke="rgb(33,33,33)" fill="none" stroke-linecap="round"></path><path d="M 455.500,79.000 C 456.946,76.470 456.890,76.414 458.500,74.000" stroke-width="10.829" stroke="rgb(33,33,33)" fill="none" stroke-linecap="round"></path><path d="M 458.500,74.000 C 458.890,73.414 459.140,73.601 459.500,73.000" stroke-width="11.696" stroke="rgb(33,33,33)" fill="none" stroke-linecap="round"></path><path d="M 459.500,73.000 C 460.640,71.101 460.275,70.838 461.500,69.000" stroke-width="11.934" stroke="rgb(33,33,33)" fill="none" stroke-linecap="round"></path><path d="M 461.500,69.000 C 462.275,67.838 462.792,68.180 463.500,67.000" stroke-width="12.497" stroke="rgb(33,33,33)" fill="none" stroke-linecap="round"></path><path d="M 463.500,67.000 C 464.292,65.680 463.945,65.480 464.500,64.000" stroke-width="12.763" stroke="rgb(33,33,33)" fill="none" stroke-linecap="round"></path><path d="M 464.500,64.000 C 465.445,61.480 465.312,61.376 466.500,59.000" stroke-width="13.338" stroke="rgb(33,33,33)" fill="none" stroke-linecap="round"></path><path d="M 466.500,59.000 C 466.812,58.376 467.113,58.581 467.500,58.000" stroke-width="13.966" stroke="rgb(33,33,33)" fill="none" stroke-linecap="round"></path><path d="M 467.500,58.000 C 468.113,57.081 468.236,57.056 468.500,56.000" stroke-width="13.419" stroke="rgb(33,33,33)" fill="none" stroke-linecap="round"></path><path d="M 468.500,56.000 C 468.736,55.056 468.500,55.000 468.500,54.000" stroke-width="14.104" stroke="rgb(33,33,33)" fill="none" stroke-linecap="round"></path><path d="M 468.500,54.000 C 468.500,53.500 468.500,52.833 468.500,53.000" stroke-width="14.967" stroke="rgb(33,33,33)" fill="none" stroke-linecap="round"></path><path d="M 468.500,53.000 C 468.500,53.333 468.500,54.000 468.500,55.000" stroke-width="15.729" stroke="rgb(33,33,33)" fill="none" stroke-linecap="round"></path><path d="M 468.500,55.000 C 468.500,55.500 468.500,55.500 468.500,56.000" stroke-width="16.275" stroke="rgb(33,33,33)" fill="none" stroke-linecap="round"></path><path d="M 468.500,56.000 C 468.500,57.500 468.500,57.500 468.500,59.000" stroke-width="14.512" stroke="rgb(33,33,33)" fill="none" stroke-linecap="round"></path><path d="M 468.500,59.000 C 468.500,61.000 468.500,61.000 468.500,63.000" stroke-width="14.970" stroke="rgb(33,33,33)" fill="none" stroke-linecap="round"></path><path d="M 468.500,63.000 C 468.500,64.000 468.500,64.000 468.500,65.000" stroke-width="15.120" stroke="rgb(33,33,33)" fill="none" stroke-linecap="round"></path><path d="M 468.500,65.000 C 468.500,65.500 468.500,65.500 468.500,66.000" stroke-width="14.766" stroke="rgb(33,33,33)" fill="none" stroke-linecap="round"></path><path d="M 468.500,66.000 C 468.500,67.000 468.500,67.000 468.500,68.000" stroke-width="15.275" stroke="rgb(33,33,33)" fill="none" stroke-linecap="round"></path><path d="M 468.500,68.000 C 468.500,69.000 468.500,69.000 468.500,70.000" stroke-width="14.883" stroke="rgb(33,33,33)" fill="none" stroke-linecap="round"></path><path d="M 468.500,70.000 C 468.500,71.500 468.214,71.568 468.500,73.000" stroke-width="14.852" stroke="rgb(33,33,33)" fill="none" stroke-linecap="round"></path><path d="M 468.500,73.000 C 468.714,74.068 468.887,74.081 469.500,75.000" stroke-width="15.281" stroke="rgb(33,33,33)" fill="none" stroke-linecap="round"></path><path d="M 469.500,75.000 C 469.887,75.581 469.919,75.613 470.500,76.000" stroke-width="15.631" stroke="rgb(33,33,33)" fill="none" stroke-linecap="round"></path><path d="M 470.500,76.000 C 471.419,76.613 471.464,76.655 472.500,77.000" stroke-width="15.935" stroke="rgb(33,33,33)" fill="none" stroke-linecap="round"></path><path d="M 472.500,77.000 C 472.964,77.155 473.000,77.000 473.500,77.000" stroke-width="16.375" stroke="rgb(33,33,33)" fill="none" stroke-linecap="round"></path><path d="M 473.500,77.000 C 474.500,77.000 474.500,77.000 475.500,77.000" stroke-width="16.522" stroke="rgb(33,33,33)" fill="none" stroke-linecap="round"></path><path d="M 475.500,77.000 C 476.500,77.000 476.573,77.309 477.500,77.000" stroke-width="16.361" stroke="rgb(33,33,33)" fill="none" stroke-linecap="round"></path><path d="M 477.500,77.000 C 479.573,76.309 479.500,76.000 481.500,75.000" stroke-width="16.251" stroke="rgb(33,33,33)" fill="none" stroke-linecap="round"></path><path d="M 481.500,75.000 C 482.500,74.500 482.666,74.730 483.500,74.000" stroke-width="16.409" stroke="rgb(33,33,33)" fill="none" stroke-linecap="round"></path><path d="M 483.500,74.000 C 486.666,71.230 487.053,71.365 489.500,68.000" stroke-width="15.476" stroke="rgb(33,33,33)" fill="none" stroke-linecap="round"></path><path d="M 489.500,68.000 C 491.053,65.865 490.975,65.625 491.500,63.000" stroke-width="13.849" stroke="rgb(33,33,33)" fill="none" stroke-linecap="round"></path><path d="M 491.500,63.000 C 492.975,55.625 492.617,55.508 493.500,48.000" stroke-width="13.950" stroke="rgb(33,33,33)" fill="none" stroke-linecap="round"></path><path d="M 493.500,48.000 C 493.617,47.008 493.500,47.000 493.500,46.000" stroke-width="14.181" stroke="rgb(33,33,33)" fill="none" stroke-linecap="round"></path><path d="M 493.500,46.000 C 493.500,44.500 493.500,44.500 493.500,43.000" stroke-width="14.440" stroke="rgb(33,33,33)" fill="none" stroke-linecap="round"></path><path d="M 493.500,43.000 C 493.500,42.500 493.500,42.500 493.500,42.000" stroke-width="15.192" stroke="rgb(33,33,33)" fill="none" stroke-linecap="round"></path><path d="M 493.500,42.000 C 493.500,41.500 493.500,41.500 493.500,41.000" stroke-width="15.580" stroke="rgb(33,33,33)" fill="none" stroke-linecap="round"></path><path d="M 493.500,41.000 C 493.500,40.000 493.500,39.333 493.500,39.000" stroke-width="16.029" stroke="rgb(33,33,33)" fill="none" stroke-linecap="round"></path><path d="M 493.500,39.000 C 493.500,38.833 493.761,39.608 493.500,40.000" stroke-width="16.709" stroke="rgb(33,33,33)" fill="none" stroke-linecap="round"></path><path d="M 493.500,40.000 C 492.761,41.108 492.338,40.883 491.500,42.000" stroke-width="16.432" stroke="rgb(33,33,33)" fill="none" stroke-linecap="round"></path><path d="M 491.500,42.000 C 490.838,42.883 490.852,42.943 490.500,44.000" stroke-width="16.203" stroke="rgb(33,33,33)" fill="none" stroke-linecap="round"></path><path d="M 490.500,44.000 C 489.352,47.443 489.570,47.522 488.500,51.000" stroke-width="14.872" stroke="rgb(33,33,33)" fill="none" stroke-linecap="round"></path><path d="M 488.500,51.000 C 487.570,54.022 487.902,54.196 486.500,57.000" stroke-width="13.991" stroke="rgb(33,33,33)" fill="none" stroke-linecap="round"></path><path d="M 486.500,57.000 C 484.902,60.196 484.202,59.839 482.500,63.000" stroke-width="13.165" stroke="rgb(33,33,33)" fill="none" stroke-linecap="round"></path><path d="M 482.500,63.000 C 480.702,66.339 480.700,66.399 479.500,70.000" stroke-width="12.493" stroke="rgb(33,33,33)" fill="none" stroke-linecap="round"></path><path d="M 479.500,70.000 C 478.200,73.899 478.663,74.047 477.500,78.000" stroke-width="11.689" stroke="rgb(33,33,33)" fill="none" stroke-linecap="round"></path><path d="M 477.500,78.000 C 476.163,82.547 475.705,82.422 474.500,87.000" stroke-width="11.404" stroke="rgb(33,33,33)" fill="none" stroke-linecap="round"></path><path d="M 474.500,87.000 C 473.205,91.922 473.795,92.078 472.500,97.000" stroke-width="10.329" stroke="rgb(33,33,33)" fill="none" stroke-linecap="round"></path><path d="M 472.500,97.000 C 471.295,101.578 471.000,101.500 469.500,106.000" stroke-width="10.232" stroke="rgb(33,33,33)" fill="none" stroke-linecap="round"></path><path d="M 469.500,106.000 C 468.500,109.000 468.500,109.000 467.500,112.000" stroke-width="9.944" stroke="rgb(33,33,33)" fill="none" stroke-linecap="round"></path><path d="M 467.500,112.000 C 466.000,116.500 465.523,116.395 464.500,121.000" stroke-width="9.927" stroke="rgb(33,33,33)" fill="none" stroke-linecap="round"></path><path d="M 464.500,121.000 C 463.523,125.395 464.429,125.587 463.500,130.000" stroke-width="9.838" stroke="rgb(33,33,33)" fill="none" stroke-linecap="round"></path><path d="M 463.500,130.000 C 462.429,135.087 461.571,134.913 460.500,140.000" stroke-width="9.608" stroke="rgb(33,33,33)" fill="none" stroke-linecap="round"></path><path d="M 460.500,140.000 C 459.571,144.413 460.000,144.500 459.500,149.000" stroke-width="9.441" stroke="rgb(33,33,33)" fill="none" stroke-linecap="round"></path><path d="M 459.500,149.000 C 459.000,153.500 459.062,153.508 458.500,158.000" stroke-width="9.565" stroke="rgb(33,33,33)" fill="none" stroke-linecap="round"></path><path d="M 458.500,158.000 C 458.062,161.508 457.751,161.482 457.500,165.000" stroke-width="9.780" stroke="rgb(33,33,33)" fill="none" stroke-linecap="round"></path><path d="M 457.500,165.000 C 457.251,168.482 457.932,168.547 457.500,172.000" stroke-width="9.969" stroke="rgb(33,33,33)" fill="none" stroke-linecap="round"></path><path d="M 457.500,172.000 C 456.932,176.547 456.257,176.460 455.500,181.000" stroke-width="9.851" stroke="rgb(33,33,33)" fill="none" stroke-linecap="round"></path><path d="M 455.500,181.000 C 454.757,185.460 454.765,185.487 454.500,190.000" stroke-width="9.779" stroke="rgb(33,33,33)" fill="none" stroke-linecap="round"></path><path d="M 454.500,190.000 C 454.265,193.987 454.735,194.013 454.500,198.000" stroke-width="10.114" stroke="rgb(33,33,33)" fill="none" stroke-linecap="round"></path><path d="M 454.500,198.000 C 454.235,202.513 453.822,202.490 453.500,207.000" stroke-width="7.480" stroke="rgb(33,33,33)" fill="none" stroke-linecap="round"></path><path d="M 453.500,207.000 C 453.322,209.490 453.691,209.512 453.500,212.000" stroke-width="8.212" stroke="rgb(33,33,33)" fill="none" stroke-linecap="round"></path><path d="M 453.500,212.000 C 453.191,216.012 452.809,215.988 452.500,220.000" stroke-width="8.294" stroke="rgb(33,33,33)" fill="none" stroke-linecap="round"></path><path d="M 452.500,220.000 C 452.309,222.488 452.500,222.500 452.500,225.000" stroke-width="9.024" stroke="rgb(33,33,33)" fill="none" stroke-linecap="round"></path><path d="M 452.500,225.000 C 452.500,228.500 452.500,228.500 452.500,232.000" stroke-width="8.900" stroke="rgb(33,33,33)" fill="none" stroke-linecap="round"></path><path d="M 452.500,232.000 C 452.500,234.500 452.500,234.500 452.500,237.000" stroke-width="9.551" stroke="rgb(33,33,33)" fill="none" stroke-linecap="round"></path><path d="M 452.500,237.000 C 452.500,239.000 452.500,239.000 452.500,241.000" stroke-width="9.978" stroke="rgb(33,33,33)" fill="none" stroke-linecap="round"></path><path d="M 452.500,241.000 C 452.500,243.000 452.500,243.000 452.500,245.000" stroke-width="10.638" stroke="rgb(33,33,33)" fill="none" stroke-linecap="round"></path><path d="M 452.500,245.000 C 452.500,246.500 452.500,246.500 452.500,248.000" stroke-width="11.109" stroke="rgb(33,33,33)" fill="none" stroke-linecap="round"></path><path d="M 452.500,248.000 C 452.500,248.500 452.500,248.500 452.500,249.000" stroke-width="12.079" stroke="rgb(33,33,33)" fill="none" stroke-linecap="round"></path><path d="M 452.500,249.000 C 452.500,250.000 452.500,250.000 452.500,251.000" stroke-width="12.339" stroke="rgb(33,33,33)" fill="none" stroke-linecap="round"></path><path d="M 452.500,251.000 C 452.500,251.500 452.500,251.500 452.500,252.000" stroke-width="13.136" stroke="rgb(33,33,33)" fill="none" stroke-linecap="round"></path><path d="M 452.500,252.000 C 452.500,253.000 452.500,253.000 452.500,254.000" stroke-width="13.653" stroke="rgb(33,33,33)" fill="none" stroke-linecap="round"></path><path d="M 452.500,254.000 C 452.500,254.500 452.500,254.500 452.500,255.000" stroke-width="14.346" stroke="rgb(33,33,33)" fill="none" stroke-linecap="round"></path><path d="M 452.500,255.000 C 452.500,255.500 452.500,255.500 452.500,256.000" stroke-width="15.008" stroke="rgb(33,33,33)" fill="none" stroke-linecap="round"></path><path d="M 452.500,256.000 C 452.500,256.500 452.500,256.500 452.500,257.000" stroke-width="15.426" stroke="rgb(33,33,33)" fill="none" stroke-linecap="round"></path><path d="M 452.500,257.000 C 452.500,258.000 452.500,258.000 452.500,259.000" stroke-width="15.695" stroke="rgb(33,33,33)" fill="none" stroke-linecap="round"></path><path d="M 452.500,259.000 C 452.500,260.500 452.500,260.500 452.500,262.000" stroke-width="15.949" stroke="rgb(33,33,33)" fill="none" stroke-linecap="round"></path><path d="M 452.500,262.000 C 452.500,262.500 452.707,262.586 452.500,263.000" stroke-width="16.212" stroke="rgb(33,33,33)" fill="none" stroke-linecap="round"></path><path d="M 452.500,263.000 C 452.207,263.586 451.887,263.419 451.500,264.000" stroke-width="16.497" stroke="rgb(33,33,33)" fill="none" stroke-linecap="round"></path><path d="M 451.500,264.000 C 450.887,264.919 450.764,264.944 450.500,266.000" stroke-width="15.651" stroke="rgb(33,33,33)" fill="none" stroke-linecap="round"></path><path d="M 450.500,266.000 C 450.264,266.944 450.793,267.121 450.500,268.000" stroke-width="15.882" stroke="rgb(33,33,33)" fill="none" stroke-linecap="round"></path></svg>