<svg xmlns="http://www.w3.org/2000/svg" xmlns:xlink="http://www.w3.org/1999/xlink" viewBox="0 0 320 500"><path d="M 28.000,299.500 C 31.500,298.000 32.328,298.929 35.000,296.500" stroke-width="17.573" stroke="rgb(33,33,33)" fill="none" stroke-linecap="round"></path><path d="M 35.000,296.500 C 37.828,293.929 37.574,293.242 39.000,289.500" stroke-width="15.565" stroke="rgb(33,33,33)" fill="none" stroke-linecap="round"></path><path d="M 39.000,289.500 C 41.574,282.742 41.024,282.507 43.000,275.500" stroke-width="13.824" stroke="rgb(33,33,33)" fill="none" stroke-linecap="round"></path><path d="M 43.000,275.500 C 46.524,263.007 46.853,263.089 50.000,250.500" stroke-width="12.412" stroke="rgb(33,33,33)" fill="none" stroke-linecap="round"></path><path d="M 50.000,250.500 C 53.853,235.089 53.885,235.075 57.000,219.500" stroke-width="10.155" stroke="rgb(33,33,33)" fill="none" stroke-linecap="round"></path><path d="M 57.000,219.500 C 59.385,207.575 59.543,207.569 61.000,195.500" stroke-width="9.646" stroke="rgb(33,33,33)" fill="none" stroke-linecap="round"></path><path d="M 61.000,195.500 C 63.043,178.569 62.865,178.523 64.000,161.500" stroke-width="8.877" stroke="rgb(33,33,33)" fill="none" stroke-linecap="round"></path><path d="M 64.000,161.500 C 64.865,148.523 64.704,148.504 65.000,135.500" stroke-width="8.862" stroke="rgb(33,33,33)" fill="none" stroke-linecap="round"></path><path d="M 65.000,135.500 C 65.204,126.504 65.000,126.500 65.000,117.500" stroke-width="8.698" stroke="rgb(33,33,33)" fill="none" stroke-linecap="round"></path><path d="M 65.000,117.500 C 65.000,111.500 65.000,111.500 65.000,105.500" stroke-width="9.153" stroke="rgb(33,33,33)" fill="none" stroke-linecap="round"></path><path d="M 65.000,105.500 C 65.000,103.000 65.000,103.000 65.000,100.500" stroke-width="9.981" stroke="rgb(33,33,33)" fill="none" stroke-linecap="round"></path><path d="M 65.000,100.500 C 65.000,100.000 65.000,99.083 65.000,99.500" stroke-width="11.044" stroke="rgb(33,33,33)" fill="none" stroke-linecap="round"></path><path d="M 65.000,99.500 C 65.000,104.083 65.000,105.000 65.000,110.500" stroke-width="11.668" stroke="rgb(33,33,33)" fill="none" stroke-linecap="round"></path><path d="M 65.000,110.500 C 65.000,120.000 65.000,120.000 65.000,129.500" stroke-width="10.995" stroke="rgb(33,33,33)" fill="none" stroke-linecap="round"></path><path d="M 65.000,129.500 C 65.000,137.500 65.000,137.500 65.000,145.500" stroke-width="10.877" stroke="rgb(33,33,33)" fill="none" stroke-linecap="round"></path><path d="M 65.000,145.500 C 65.000,152.500 64.774,152.507 65.000,159.500" stroke-width="10.862" stroke="rgb(33,33,33)" fill="none" stroke-linecap="round"></path><path d="M 65.000,159.500 C 65.274,168.007 65.750,167.993 66.000,176.500" stroke-width="10.704" stroke="rgb(33,33,33)" fill="none" stroke-linecap="round"></path><path d="M 66.000,176.500 C 66.250,184.993 65.366,185.041 66.000,193.500" stroke-width="10.583" stroke="rgb(33,33,33)" fill="none" stroke-linecap="round"></path><path d="M 66.000,193.500 C 66.866,205.041 67.846,204.965 69.000,216.500" stroke-width="10.107" stroke="rgb(33,33,33)" fill="none" stroke-linecap="round"></path><path d="M 69.000,216.500 C 70.346,229.965 69.717,230.026 71.000,243.500" stroke-width="9.457" stroke="rgb(33,33,33)" fill="none" stroke-linecap="round"></path><path d="M 71.000,243.500 C 72.717,261.526 73.256,261.476 75.000,279.500" stroke-width="8.657" stroke="rgb(33,33,33)" fill="none" stroke-linecap="round"></path><path d="M 75.000,279.500 C 76.256,292.476 75.793,292.520 77.000,305.500" stroke-width="8.515" stroke="rgb(33,33,33)" fill="none" stroke-linecap="round"></path><path d="M 77.000,305.500 C 77.793,314.020 78.055,313.994 79.000,322.500" stroke-width="8.789" stroke="rgb(33,33,33)" fill="none" stroke-linecap="round"></path><path d="M 79.000,322.500 C 79.555,327.494 79.642,327.493 80.000,332.500" stroke-width="9.337" stroke="rgb(33,33,33)" fill="none" stroke-linecap="round"></path><path d="M 80.000,332.500 C 80.142,334.493 80.000,334.500 80.000,336.500" stroke-width="10.217" stroke="rgb(33,33,33)" fill="none" stroke-linecap="round"></path><path d="M 80.000,336.500 C 80.000,337.500 80.778,338.278 80.000,338.500" stroke-width="11.184" stroke="rgb(33,33,33)" fill="none" stroke-linecap="round"></path><path d="M 80.000,338.500 C 77.278,339.278 76.324,339.331 73.000,338.500" stroke-width="11.699" stroke="rgb(33,33,33)" fill="none" stroke-linecap="round"></path><path d="M 73.000,338.500 C 68.324,337.331 68.569,336.328 64.000,334.500" stroke-width="11.908" stroke="rgb(33,33,33)" fill="none" stroke-linecap="round"></path><path d="M 64.000,334.500 C 58.569,332.328 58.573,332.260 53.000,330.500" stroke-width="11.925" stroke="rgb(33,33,33)" fill="none" stroke-linecap="round"></path><path d="M 53.000,330.500 C 49.073,329.260 48.860,329.879 45.000,328.500" stroke-width="12.187" stroke="rgb(33,33,33)" fill="none" stroke-linecap="round"></path><path d="M 45.000,328.500 C 41.860,327.379 42.097,326.739 39.000,325.500" stroke-width="12.592" stroke="rgb(33,33,33)" fill="none" stroke-linecap="round"></path><path d="M 97.000,322.500 C 99.500,319.500 101.062,320.065 102.000,316.500" stroke-width="19.744" stroke="rgb(33,33,33)" fill="none" stroke-linecap="round"></path><path d="M 102.000,316.500 C 103.562,310.565 102.560,309.945 102.000,303.500" stroke-width="17.257" stroke="rgb(33,33,33)" fill="none" stroke-linecap="round"></path><path d="M 102.000,303.500 C 101.560,298.445 101.591,298.272 100.000,293.500" stroke-width="15.993" stroke="rgb(33,33,33)" fill="none" stroke-linecap="round"></path><path d="M 100.000,293.500 C 99.091,290.772 99.387,289.602 97.000,288.500" stroke-width="15.801" stroke="rgb(33,33,33)" fill="none" stroke-linecap="round"></path><path d="M 97.000,288.500 C 92.887,286.602 91.964,287.500 87.000,287.500" stroke-width="16.022" stroke="rgb(33,33,33)" fill="none" stroke-linecap="round"></path><path d="M 87.000,287.500 C 84.964,287.500 83.921,287.027 83.000,288.500" stroke-width="16.111" stroke="rgb(33,33,33)" fill="none" stroke-linecap="round"></path><path d="M 83.000,288.500 C 81.421,291.027 82.176,291.977 82.000,295.500" stroke-width="15.407" stroke="rgb(33,33,33)" fill="none" stroke-linecap="round"></path><path d="M 82.000,295.500 C 81.676,301.977 82.000,302.000 82.000,308.500" stroke-width="14.321" stroke="rgb(33,33,33)" fill="none" stroke-linecap="round"></path><path d="M 82.000,308.500 C 82.000,312.000 82.000,312.000 82.000,315.500" stroke-width="14.326" stroke="rgb(33,33,33)" fill="none" stroke-linecap="round"></path><path d="M 82.000,315.500 C 82.000,318.000 81.308,318.192 82.000,320.500" stroke-width="14.534" stroke="rgb(33,33,33)" fill="none" stroke-linecap="round"></path><path d="M 82.000,320.500 C 82.808,323.192 83.193,323.332 85.000,325.500" stroke-width="14.639" stroke="rgb(33,33,33)" fill="none" stroke-linecap="round"></path><path d="M 85.000,325.500 C 85.693,326.332 85.944,326.236 87.000,326.500" stroke-width="15.192" stroke="rgb(33,33,33)" fill="none" stroke-linecap="round"></path><path d="M 87.000,326.500 C 87.944,326.736 88.000,326.500 89.000,326.500" stroke-width="15.681" stroke="rgb(33,33,33)" fill="none" stroke-linecap="round"></path><path d="M 89.000,326.500 C 90.000,326.500 90.480,327.228 91.000,326.500" stroke-width="16.115" stroke="rgb(33,33,33)" fill="none" stroke-linecap="round"></path><path d="M 91.000,326.500 C 92.980,323.728 92.848,323.120 94.000,319.500" stroke-width="15.639" stroke="rgb(33,33,33)" fill="none" stroke-linecap="round"></path><path d="M 94.000,319.500 C 96.348,312.120 95.942,311.984 98.000,304.500" stroke-width="14.161" stroke="rgb(33,33,33)" fill="none" stroke-linecap="round"></path><path d="M 98.000,304.500 C 101.442,291.984 101.905,292.101 105.000,279.500" stroke-width="12.277" stroke="rgb(33,33,33)" fill="none" stroke-linecap="round"></path><path d="M 105.000,279.500 C 108.905,263.601 109.437,263.647 112.000,247.500" stroke-width="10.498" stroke="rgb(33,33,33)" fill="none" stroke-linecap="round"></path><path d="M 112.000,247.500 C 114.437,232.147 113.929,232.029 115.000,216.500" stroke-width="9.599" stroke="rgb(33,33,33)" fill="none" stroke-linecap="round"></path><path d="M 115.000,216.500 C 115.929,203.029 115.759,203.005 116.000,189.500" stroke-width="9.181" stroke="rgb(33,33,33)" fill="none" stroke-linecap="round"></path><path d="M 116.000,189.500 C 116.259,175.005 116.000,175.000 116.000,160.500" stroke-width="8.783" stroke="rgb(33,33,33)" fill="none" stroke-linecap="round"></path><path d="M 116.000,160.500 C 116.000,148.000 116.291,147.992 116.000,135.500" stroke-width="8.591" stroke="rgb(33,33,33)" fill="none" stroke-linecap="round"></path><path d="M 116.000,135.500 C 115.791,126.492 115.300,126.506 115.000,117.500" stroke-width="8.813" stroke="rgb(33,33,33)" fill="none" stroke-linecap="round"></path><path d="M 115.000,117.500 C 114.800,111.506 115.000,111.500 115.000,105.500" stroke-width="9.254" stroke="rgb(33,33,33)" fill="none" stroke-linecap="round"></path><path d="M 115.000,105.500 C 115.000,103.500 115.000,102.167 115.000,101.500" stroke-width="10.137" stroke="rgb(33,33,33)" fill="none" stroke-linecap="round"></path><path d="M 115.000,101.500 C 115.000,101.167 115.000,102.500 115.000,103.500" stroke-width="11.189" stroke="rgb(33,33,33)" fill="none" stroke-linecap="round"></path><path d="M 115.000,103.500 C 115.000,112.500 115.000,112.500 115.000,121.500" stroke-width="10.812" stroke="rgb(33,33,33)" fill="none" stroke-linecap="round"></path><path d="M 115.000,121.500 C 115.000,134.500 115.000,134.500 115.000,147.500" stroke-width="10.104" stroke="rgb(33,33,33)" fill="none" stroke-linecap="round"></path><path d="M 115.000,147.500 C 115.000,166.000 115.000,166.000 115.000,184.500" stroke-width="8.937" stroke="rgb(33,33,33)" fill="none" stroke-linecap="round"></path><path d="M 115.000,184.500 C 115.000,204.000 115.779,204.032 115.000,223.500" stroke-width="8.279" stroke="rgb(33,33,33)" fill="none" stroke-linecap="round"></path><path d="M 115.000,223.500 C 114.279,241.532 113.849,241.536 112.000,259.500" stroke-width="7.675" stroke="rgb(33,33,33)" fill="none" stroke-linecap="round"></path><path d="M 112.000,259.500 C 110.349,275.536 109.384,275.450 108.000,291.500" stroke-width="7.527" stroke="rgb(33,33,33)" fill="none" stroke-linecap="round"></path><path d="M 108.000,291.500 C 106.884,304.450 107.491,304.500 107.000,317.500" stroke-width="7.618" stroke="rgb(33,33,33)" fill="none" stroke-linecap="round"></path><path d="M 107.000,317.500 C 106.491,331.000 106.500,331.000 106.000,344.500" stroke-width="7.600" stroke="rgb(33,33,33)" fill="none" stroke-linecap="round"></path><path d="M 106.000,344.500 C 105.500,358.000 105.519,358.001 105.000,371.500" stroke-width="7.643" stroke="rgb(33,33,33)" fill="none" stroke-linecap="round"></path><path d="M 105.000,371.500 C 104.519,384.001 104.278,383.996 104.000,396.500" stroke-width="7.747" stroke="rgb(33,33,33)" fill="none" stroke-linecap="round"></path><path d="M 104.000,396.500 C 103.778,406.496 104.000,406.500 104.000,416.500" stroke-width="8.016" stroke="rgb(33,33,33)" fill="none" stroke-linecap="round"></path><path d="M 104.000,416.500 C 104.000,423.000 104.000,423.000 104.000,429.500" stroke-width="8.496" stroke="rgb(33,33,33)" fill="none" stroke-linecap="round"></path><path d="M 104.000,429.500 C 104.000,433.500 104.000,433.500 104.000,437.500" stroke-width="9.200" stroke="rgb(33,33,33)" fill="none" stroke-linecap="round"></path><path d="M 98.000,286.500 C 98.500,288.500 98.746,288.470 99.000,290.500" stroke-width="20.007" stroke="rgb(33,33,33)" fill="none" stroke-linecap="round"></path><path d="M 99.000,290.500 C 99.246,292.470 98.802,292.516 99.000,294.500" stroke-width="19.109" stroke="rgb(33,33,33)" fill="none" stroke-linecap="round"></path><path d="M 99.000,294.500 C 99.302,297.516 99.204,297.583 100.000,300.500" stroke-width="18.019" stroke="rgb(33,33,33)" fill="none" stroke-linecap="round"></path><path d="M 100.000,300.500 C 100.704,303.083 100.907,303.042 102.000,305.500" stroke-width="17.421" stroke="rgb(33,33,33)" fill="none" stroke-linecap="round"></path><path d="M 102.000,305.500 C 102.907,307.542 102.775,307.662 104.000,309.500" stroke-width="17.077" stroke="rgb(33,33,33)" fill="none" stroke-linecap="round"></path><path d="M 104.000,309.500 C 104.775,310.662 104.828,310.914 106.000,311.500" stroke-width="17.133" stroke="rgb(33,33,33)" fill="none" stroke-linecap="round"></path><path d="M 106.000,311.500 C 106.828,311.914 107.000,311.500 108.000,311.500" stroke-width="17.300" stroke="rgb(33,33,33)" fill="none" stroke-linecap="round"></path><path d="M 108.000,311.500 C 109.000,311.500 109.349,312.151 110.000,311.500" stroke-width="17.435" stroke="rgb(33,33,33)" fill="none" stroke-linecap="round"></path><path d="M 110.000,311.500 C 112.349,309.151 112.283,308.649 114.000,305.500" stroke-width="16.681" stroke="rgb(33,33,33)" fill="none" stroke-linecap="round"></path><path d="M 114.000,305.500 C 115.283,303.149 115.150,303.049 116.000,300.500" stroke-width="16.403" stroke="rgb(33,33,33)" fill="none" stroke-linecap="round"></path><path d="M 116.000,300.500 C 116.650,298.549 116.434,298.481 117.000,296.500" stroke-width="16.342" stroke="rgb(33,33,33)" fill="none" stroke-linecap="round"></path><path d="M 117.000,296.500 C 117.434,294.981 117.309,294.882 118.000,293.500" stroke-width="16.483" stroke="rgb(33,33,33)" fill="none" stroke-linecap="round"></path><path d="M 118.000,293.500 C 118.309,292.882 118.414,292.793 119.000,292.500" stroke-width="16.882" stroke="rgb(33,33,33)" fill="none" stroke-linecap="round"></path><path d="M 119.000,292.500 C 119.414,292.293 119.691,292.191 120.000,292.500" stroke-width="17.277" stroke="rgb(33,33,33)" fill="none" stroke-linecap="round"></path><path d="M 120.000,292.500 C 120.691,293.191 120.426,293.543 121.000,294.500" stroke-width="17.607" stroke="rgb(33,33,33)" fill="none" stroke-linecap="round"></path><path d="M 121.000,294.500 C 121.926,296.043 121.851,296.122 123.000,297.500" stroke-width="17.284" stroke="rgb(33,33,33)" fill="none" stroke-linecap="round"></path><path d="M 123.000,297.500 C 124.351,299.122 124.281,299.354 126.000,300.500" stroke-width="17.057" stroke="rgb(33,33,33)" fill="none" stroke-linecap="round"></path><path d="M 126.000,300.500 C 127.281,301.354 127.460,301.243 129.000,301.500" stroke-width="17.061" stroke="rgb(33,33,33)" fill="none" stroke-linecap="round"></path><path d="M 129.000,301.500 C 130.460,301.743 130.500,301.500 132.000,301.500" stroke-width="17.059" stroke="rgb(33,33,33)" fill="none" stroke-linecap="round"></path><path d="M 132.000,301.500 C 133.500,301.500 133.500,301.500 135.000,301.500" stroke-width="17.090" stroke="rgb(33,33,33)" fill="none" stroke-linecap="round"></path><path d="M 135.000,301.500 C 136.500,301.500 136.713,302.015 138.000,301.500" stroke-width="17.142" stroke="rgb(33,33,33)" fill="none" stroke-linecap="round"></path><path d="M 138.000,301.500 C 139.213,301.015 138.892,300.239 140.000,299.500" stroke-width="17.155" stroke="rgb(33,33,33)" fill="none" stroke-linecap="round"></path><path d="M 140.000,299.500 C 140.392,299.239 140.500,299.500 141.000,299.500" stroke-width="17.505" stroke="rgb(33,33,33)" fill="none" stroke-linecap="round"></path><path d="M 141.000,299.500 C 141.500,299.500 141.500,299.500 142.000,299.500" stroke-width="17.807" stroke="rgb(33,33,33)" fill="none" stroke-linecap="round"></path><path d="M 142.000,299.500 C 142.500,299.500 142.500,299.500 143.000,299.500" stroke-width="18.148" stroke="rgb(33,33,33)" fill="none" stroke-linecap="round"></path><path d="M 143.000,299.500 C 143.500,299.500 143.691,299.191 144.000,299.500" stroke-width="18.335" stroke="rgb(33,33,33)" fill="none" stroke-linecap="round"></path><path d="M 144.000,299.500 C 144.691,300.191 144.387,300.581 145.000,301.500" stroke-width="18.219" stroke="rgb(33,33,33)" fill="none" stroke-linecap="round"></path><path d="M 145.000,301.500 C 145.387,302.081 145.379,302.293 146.000,302.500" stroke-width="18.312" stroke="rgb(33,33,33)" fill="none" stroke-linecap="round"></path><path d="M 146.000,302.500 C 146.879,302.793 147.000,302.500 148.000,302.500" stroke-width="18.273" stroke="rgb(33,33,33)" fill="none" stroke-linecap="round"></path><path d="M 148.000,302.500 C 149.000,302.500 149.000,302.500 150.000,302.500" stroke-width="18.218" stroke="rgb(33,33,33)" fill="none" stroke-linecap="round"></path><path d="M 150.000,302.500 C 151.000,302.500 151.000,302.500 152.000,302.500" stroke-width="18.198" stroke="rgb(33,33,33)" fill="none" stroke-linecap="round"></path><path d="M 152.000,302.500 C 152.500,302.500 152.500,302.500 153.000,302.500" stroke-width="18.364" stroke="rgb(33,33,33)" fill="none" stroke-linecap="round"></path><path d="M 153.000,302.500 C 153.500,302.500 153.500,302.500 154.000,302.500" stroke-width="18.511" stroke="rgb(33,33,33)" fill="none" stroke-linecap="round"></path><path d="M 154.000,302.500 C 154.500,302.500 154.500,302.500 155.000,302.500" stroke-width="18.631" stroke="rgb(33,33,33)" fill="none" stroke-linecap="round"></path><path d="M 155.000,302.500 C 155.500,302.500 155.500,302.500 156.000,302.500" stroke-width="18.739" stroke="rgb(33,33,33)" fill="none" stroke-linecap="round"></path><path d="M 156.000,302.500 C 156.500,302.500 156.586,302.293 157.000,302.500" stroke-width="18.912" stroke="rgb(33,33,33)" fill="none" stroke-linecap="round"></path><path d="M 157.000,302.500 C 157.586,302.793 157.500,303.000 158.000,303.500" stroke-width="18.868" stroke="rgb(33,33,33)" fill="none" stroke-linecap="round"></path><path d="M 158.000,303.500 C 159.000,304.500 158.883,304.662 160.000,305.500" stroke-width="18.511" stroke="rgb(33,33,33)" fill="none" stroke-linecap="round"></path><path d="M 160.000,305.500 C 160.883,306.162 160.964,306.086 162.000,306.500" stroke-width="18.385" stroke="rgb(33,33,33)" fill="none" stroke-linecap="round"></path><path d="M 162.000,306.500 C 163.464,307.086 163.536,306.914 165.000,307.500" stroke-width="18.107" stroke="rgb(33,33,33)" fill="none" stroke-linecap="round"></path><path d="M 165.000,307.500 C 166.036,307.914 166.043,307.926 167.000,308.500" stroke-width="18.038" stroke="rgb(33,33,33)" fill="none" stroke-linecap="round"></path><path d="M 167.000,308.500 C 168.543,309.426 168.457,309.574 170.000,310.500" stroke-width="17.755" stroke="rgb(33,33,33)" fill="none" stroke-linecap="round"></path><path d="M 170.000,310.500 C 170.957,311.074 170.945,311.148 172.000,311.500" stroke-width="17.783" stroke="rgb(33,33,33)" fill="none" stroke-linecap="round"></path><path d="M 172.000,311.500 C 173.945,312.148 174.055,311.852 176.000,312.500" stroke-width="17.419" stroke="rgb(33,33,33)" fill="none" stroke-linecap="round"></path><path d="M 176.000,312.500 C 177.055,312.852 177.081,312.887 178.000,313.500" stroke-width="17.512" stroke="rgb(33,33,33)" fill="none" stroke-linecap="round"></path><path d="M 215.000,97.500 C 215.500,102.500 215.791,102.485 216.000,107.500" stroke-width="18.894" stroke="rgb(33,33,33)" fill="none" stroke-linecap="round"></path><path d="M 216.000,107.500 C 216.291,114.485 215.811,114.504 216.000,121.500" stroke-width="16.277" stroke="rgb(33,33,33)" fill="none" stroke-linecap="round"></path><path d="M 216.000,121.500 C 216.311,133.004 216.194,133.020 217.000,144.500" stroke-width="13.812" stroke="rgb(33,33,33)" fill="none" stroke-linecap="round"></path><path d="M 217.000,144.500 C 218.194,161.520 219.027,161.469 220.000,178.500" stroke-width="11.412" stroke="rgb(33,33,33)" fill="none" stroke-linecap="round"></path><path d="M 220.000,178.500 C 221.027,196.469 220.429,196.502 221.000,214.500" stroke-width="9.784" stroke="rgb(33,33,33)" fill="none" stroke-linecap="round"></path><path d="M 221.000,214.500 C 221.429,228.002 221.750,227.995 222.000,241.500" stroke-width="9.316" stroke="rgb(33,33,33)" fill="none" stroke-linecap="round"></path><path d="M 222.000,241.500 C 222.250,254.995 222.000,255.000 222.000,268.500" stroke-width="8.896" stroke="rgb(33,33,33)" fill="none" stroke-linecap="round"></path><path d="M 222.000,268.500 C 222.000,278.500 222.000,278.500 222.000,288.500" stroke-width="8.916" stroke="rgb(33,33,33)" fill="none" stroke-linecap="round"></path><path d="M 222.000,288.500 C 222.000,298.000 222.000,298.000 222.000,307.500" stroke-width="9.038" stroke="rgb(33,33,33)" fill="none" stroke-linecap="round"></path><path d="M 222.000,307.500 C 222.000,313.500 222.000,313.500 222.000,319.500" stroke-width="9.491" stroke="rgb(33,33,33)" fill="none" stroke-linecap="round"></path><path d="M 222.000,319.500 C 222.000,324.000 222.319,324.032 222.000,328.500" stroke-width="10.061" stroke="rgb(33,33,33)" fill="none" stroke-linecap="round"></path><path d="M 222.000,328.500 C 221.819,331.032 221.418,330.992 221.000,333.500" stroke-width="10.806" stroke="rgb(33,33,33)" fill="none" stroke-linecap="round"></path><path d="M 221.000,333.500 C 220.918,333.992 221.000,334.889 221.000,334.500" stroke-width="11.836" stroke="rgb(33,33,33)" fill="none" stroke-linecap="round"></path><path d="M 221.000,334.500 C 221.000,331.389 220.571,330.471 221.000,326.500" stroke-width="12.533" stroke="rgb(33,33,33)" fill="none" stroke-linecap="round"></path><path d="M 221.000,326.500 C 222.571,311.971 222.269,311.838 225.000,297.500" stroke-width="10.754" stroke="rgb(33,33,33)" fill="none" stroke-linecap="round"></path><path d="M 225.000,297.500 C 226.269,290.838 226.952,290.985 229.000,284.500" stroke-width="10.850" stroke="rgb(33,33,33)" fill="none" stroke-linecap="round"></path><path d="M 229.000,284.500 C 229.952,281.485 229.828,281.429 231.000,278.500" stroke-width="11.457" stroke="rgb(33,33,33)" fill="none" stroke-linecap="round"></path><path d="M 231.000,278.500 C 231.828,276.429 231.860,276.399 233.000,274.500" stroke-width="12.126" stroke="rgb(33,33,33)" fill="none" stroke-linecap="round"></path><path d="M 233.000,274.500 C 233.360,273.899 233.500,273.500 234.000,273.500" stroke-width="13.043" stroke="rgb(33,33,33)" fill="none" stroke-linecap="round"></path><path d="M 234.000,273.500 C 234.500,273.500 234.905,273.832 235.000,274.500" stroke-width="13.962" stroke="rgb(33,33,33)" fill="none" stroke-linecap="round"></path><path d="M 235.000,274.500 C 235.405,277.332 235.000,277.500 235.000,280.500" stroke-width="14.152" stroke="rgb(33,33,33)" fill="none" stroke-linecap="round"></path><path d="M 235.000,280.500 C 235.000,284.000 235.000,284.000 235.000,287.500" stroke-width="14.139" stroke="rgb(33,33,33)" fill="none" stroke-linecap="round"></path><path d="M 235.000,287.500 C 235.000,292.000 235.000,292.000 235.000,296.500" stroke-width="13.950" stroke="rgb(33,33,33)" fill="none" stroke-linecap="round"></path><path d="M 235.000,296.500 C 235.000,299.500 235.000,299.500 235.000,302.500" stroke-width="14.142" stroke="rgb(33,33,33)" fill="none" stroke-linecap="round"></path><path d="M 235.000,302.500 C 235.000,305.500 234.673,305.553 235.000,308.500" stroke-width="14.255" stroke="rgb(33,33,33)" fill="none" stroke-linecap="round"></path><path d="M 235.000,308.500 C 235.173,310.053 235.240,310.360 236.000,311.500" stroke-width="14.742" stroke="rgb(33,33,33)" fill="none" stroke-linecap="round"></path><path d="M 236.000,311.500 C 236.240,311.860 236.500,311.500 237.000,311.500" stroke-width="15.442" stroke="rgb(33,33,33)" fill="none" stroke-linecap="round"></path><path d="M 237.000,311.500 C 238.000,311.500 238.000,311.500 239.000,311.500" stroke-width="15.912" stroke="rgb(33,33,33)" fill="none" stroke-linecap="round"></path><path d="M 239.000,311.500 C 240.000,311.500 240.510,312.153 241.000,311.500" stroke-width="16.309" stroke="rgb(33,33,33)" fill="none" stroke-linecap="round"></path><path d="M 241.000,311.500 C 242.010,310.153 241.500,309.500 242.000,307.500" stroke-width="16.267" stroke="rgb(33,33,33)" fill="none" stroke-linecap="round"></path><path d="M 242.000,307.500 C 242.500,305.500 242.280,305.419 243.000,303.500" stroke-width="16.308" stroke="rgb(33,33,33)" fill="none" stroke-linecap="round"></path><path d="M 243.000,303.500 C 243.780,301.419 244.172,301.571 245.000,299.500" stroke-width="16.252" stroke="rgb(33,33,33)" fill="none" stroke-linecap="round"></path><path d="M 245.000,299.500 C 246.172,296.571 246.070,296.522 247.000,293.500" stroke-width="15.872" stroke="rgb(33,33,33)" fill="none" stroke-linecap="round"></path><path d="M 247.000,293.500 C 248.070,290.022 247.930,289.978 249.000,286.500" stroke-width="15.438" stroke="rgb(33,33,33)" fill="none" stroke-linecap="round"></path><path d="M 249.000,286.500 C 249.930,283.478 249.726,283.366 251.000,280.500" stroke-width="15.244" stroke="rgb(33,33,33)" fill="none" stroke-linecap="round"></path><path d="M 251.000,280.500 C 251.726,278.866 252.074,279.043 253.000,277.500" stroke-width="15.516" stroke="rgb(33,33,33)" fill="none" stroke-linecap="round"></path><path d="M 253.000,277.500 C 253.574,276.543 253.309,276.191 254.000,275.500" stroke-width="15.940" stroke="rgb(33,33,33)" fill="none" stroke-linecap="round"></path><path d="M 254.000,275.500 C 254.309,275.191 254.760,275.140 255.000,275.500" stroke-width="16.489" stroke="rgb(33,33,33)" fill="none" stroke-linecap="round"></path><path d="M 255.000,275.500 C 255.760,276.640 255.806,276.950 256.000,278.500" stroke-width="16.852" stroke="rgb(33,33,33)" fill="none" stroke-linecap="round"></path><path d="M 256.000,278.500 C 256.306,280.950 256.000,281.000 256.000,283.500" stroke-width="16.597" stroke="rgb(33,33,33)" fill="none" stroke-linecap="round"></path><path d="M 256.000,283.500 C 256.000,286.500 256.000,286.500 256.000,289.500" stroke-width="16.186" stroke="rgb(33,33,33)" fill="none" stroke-linecap="round"></path><path d="M 256.000,289.500 C 256.000,292.000 256.000,292.000 256.000,294.500" stroke-width="16.075" stroke="rgb(33,33,33)" fill="none" stroke-linecap="round"></path><path d="M 256.000,294.500 C 256.000,297.500 256.000,297.500 256.000,300.500" stroke-width="15.841" stroke="rgb(33,33,33)" fill="none" stroke-linecap="round"></path><path d="M 256.000,300.500 C 256.000,303.000 256.000,303.000 256.000,305.500" stroke-width="15.756" stroke="rgb(33,33,33)" fill="none" stroke-linecap="round"></path><path d="M 256.000,305.500 C 256.000,307.500 256.000,307.500 256.000,309.500" stroke-width="15.880" stroke="rgb(33,33,33)" fill="none" stroke-linecap="round"></path><path d="M 256.000,309.500 C 256.000,311.000 255.757,311.040 256.000,312.500" stroke-width="16.101" stroke="rgb(33,33,33)" fill="none" stroke-linecap="round"></path><path d="M 256.000,312.500 C 256.257,314.040 256.620,313.981 257.000,315.500" stroke-width="16.287" stroke="rgb(33,33,33)" fill="none" stroke-linecap="round"></path><path d="M 257.000,315.500 C 257.120,315.981 256.750,316.250 257.000,316.500" stroke-width="16.785" stroke="rgb(33,33,33)" fill="none" stroke-linecap="round"></path><path d="M 257.000,316.500 C 257.250,316.750 257.500,316.500 258.000,316.500" stroke-width="17.206" stroke="rgb(33,33,33)" fill="none" stroke-linecap="round"></path><path d="M 258.000,316.500 C 258.500,316.500 258.500,316.500 259.000,316.500" stroke-width="17.558" stroke="rgb(33,33,33)" fill="none" stroke-linecap="round"></path><path d="M 259.000,316.500 C 260.000,316.500 260.362,317.138 261.000,316.500" stroke-width="17.645" stroke="rgb(33,33,33)" fill="none" stroke-linecap="round"></path><path d="M 261.000,316.500 C 262.862,314.638 263.039,314.223 264.000,311.500" stroke-width="17.064" stroke="rgb(33,33,33)" fill="none" stroke-linecap="round"></path><path d="M 264.000,311.500 C 266.039,305.723 265.659,305.533 267.000,299.500" stroke-width="15.638" stroke="rgb(33,33,33)" fill="none" stroke-linecap="round"></path><path d="M 267.000,299.500 C 267.659,296.533 267.456,296.492 268.000,293.500" stroke-width="15.435" stroke="rgb(33,33,33)" fill="none" stroke-linecap="round"></path><path d="M 268.000,293.500 C 268.456,290.992 268.201,290.897 269.000,288.500" stroke-width="15.463" stroke="rgb(33,33,33)" fill="none" stroke-linecap="round"></path><path d="M 269.000,288.500 C 269.701,286.397 270.472,286.611 271.000,284.500" stroke-width="15.574" stroke="rgb(33,33,33)" fill="none" stroke-linecap="round"></path><path d="M 271.000,284.500 C 271.472,282.611 270.721,282.455 271.000,280.500" stroke-width="15.695" stroke="rgb(33,33,33)" fill="none" stroke-linecap="round"></path><path d="M 271.000,280.500 C 271.221,278.955 271.500,279.000 272.000,277.500" stroke-width="15.953" stroke="rgb(33,33,33)" fill="none" stroke-linecap="round"></path><path d="M 272.000,277.500 C 272.500,276.000 272.844,273.878 273.000,274.500" stroke-width="16.165" stroke="rgb(33,33,33)" fill="none" stroke-linecap="round"></path><path d="M 273.000,274.500 C 273.344,275.878 273.249,278.018 273.000,281.500" stroke-width="16.614" stroke="rgb(33,33,33)" fill="none" stroke-linecap="round"></path><path d="M 273.000,281.500 C 272.749,285.018 272.196,284.978 272.000,288.500" stroke-width="16.028" stroke="rgb(33,33,33)" fill="none" stroke-linecap="round"></path><path d="M 272.000,288.500 C 271.696,293.978 272.000,294.000 272.000,299.500" stroke-width="15.110" stroke="rgb(33,33,33)" fill="none" stroke-linecap="round"></path><path d="M 272.000,299.500 C 272.000,303.000 271.711,303.029 272.000,306.500" stroke-width="14.894" stroke="rgb(33,33,33)" fill="none" stroke-linecap="round"></path><path d="M 272.000,306.500 C 272.211,309.029 271.738,309.480 273.000,311.500" stroke-width="15.026" stroke="rgb(33,33,33)" fill="none" stroke-linecap="round"></path><path d="M 273.000,311.500 C 274.238,313.480 274.889,313.180 277.000,314.500" stroke-width="15.146" stroke="rgb(33,33,33)" fill="none" stroke-linecap="round"></path><path d="M 277.000,314.500 C 278.889,315.680 278.889,315.972 281.000,316.500" stroke-width="15.315" stroke="rgb(33,33,33)" fill="none" stroke-linecap="round"></path><path d="M 281.000,316.500 C 282.889,316.972 283.000,316.500 285.000,316.500" stroke-width="15.485" stroke="rgb(33,33,33)" fill="none" stroke-linecap="round"></path><path d="M 285.000,316.500 C 287.000,316.500 287.045,316.779 289.000,316.500" stroke-width="15.623" stroke="rgb(33,33,33)" fill="none" stroke-linecap="round"></path><path d="M 289.000,316.500 C 290.545,316.279 291.000,316.500 292.000,315.500" stroke-width="15.893" stroke="rgb(33,33,33)" fill="none" stroke-linecap="round"></path><path d="M 313.000,250.500 C 311.000,258.000 310.313,257.885 309.000,265.500" stroke-width="18.970" stroke="rgb(33,33,33)" fill="none" stroke-linecap="round"></path><path d="M 309.000,265.500 C 307.813,272.385 308.926,272.555 308.000,279.500" stroke-width="16.142" stroke="rgb(33,33,33)" fill="none" stroke-linecap="round"></path><path d="M 308.000,279.500 C 306.926,287.555 307.119,287.660 305.000,295.500" stroke-width="14.515" stroke="rgb(33,33,33)" fill="none" stroke-linecap="round"></path><path d="M 305.000,295.500 C 302.119,306.160 301.883,306.144 298.000,316.500" stroke-width="12.568" stroke="rgb(33,33,33)" fill="none" stroke-linecap="round"></path><path d="M 298.000,316.500 C 294.383,326.144 293.746,325.900 290.000,335.500" stroke-width="11.593" stroke="rgb(33,33,33)" fill="none" stroke-linecap="round"></path><path d="M 290.000,335.500 C 285.746,346.400 285.700,346.400 282.000,357.500" stroke-width="10.813" stroke="rgb(33,33,33)" fill="none" stroke-linecap="round"></path><path d="M 282.000,357.500 C 278.700,367.400 278.946,367.484 276.000,377.500" stroke-width="10.417" stroke="rgb(33,33,33)" fill="none" stroke-linecap="round"></path><path d="M 276.000,377.500 C 273.946,384.484 274.000,384.500 272.000,391.500" stroke-width="10.454" stroke="rgb(33,33,33)" fill="none" stroke-linecap="round"></path><path d="M 272.000,391.500 C 270.000,398.500 269.697,398.429 268.000,405.500" stroke-width="10.542" stroke="rgb(33,33,33)" fill="none" stroke-linecap="round"></path><path d="M 268.000,405.500 C 266.697,410.929 267.293,411.070 266.000,416.500" stroke-width="10.839" stroke="rgb(33,33,33)" fill="none" stroke-linecap="round"></path><path d="M 316.000,334.500 C 314.500,338.500 313.757,338.338 313.000,342.500" stroke-width="19.731" stroke="rgb(33,33,33)" fill="none" stroke-linecap="round"></path><path d="M 313.000,342.500 C 311.757,349.338 313.187,349.615 312.000,356.500" stroke-width="16.761" stroke="rgb(33,33,33)" fill="none" stroke-linecap="round"></path><path d="M 312.000,356.500 C 310.687,364.115 310.229,364.069 308.000,371.500" stroke-width="15.009" stroke="rgb(33,33,33)" fill="none" stroke-linecap="round"></path><path d="M 308.000,371.500 C 305.729,379.069 305.975,379.197 303.000,386.500" stroke-width="13.819" stroke="rgb(33,33,33)" fill="none" stroke-linecap="round"></path><path d="M 303.000,386.500 C 300.475,392.697 300.000,392.500 297.000,398.500" stroke-width="13.234" stroke="rgb(33,33,33)" fill="none" stroke-linecap="round"></path><circle r="6" cx="314" cy="434.5" fill="rgb(33,33,33)"></circle></svg>