<svg xmlns="http://www.w3.org/2000/svg" xmlns:xlink="http://www.w3.org/1999/xlink" viewBox="0 0 375 500"><path d="M 222.000,96.500 C 217.000,95.000 217.071,94.514 212.000,93.500" stroke-width="19.010" stroke="rgb(33,33,33)" fill="none" stroke-linecap="round"></path><path d="M 212.000,93.500 C 209.571,93.014 209.490,93.322 207.000,93.500" stroke-width="18.166" stroke="rgb(33,33,33)" fill="none" stroke-linecap="round"></path><path d="M 207.000,93.500 C 202.490,93.822 202.362,93.410 198.000,94.500" stroke-width="16.983" stroke="rgb(33,33,33)" fill="none" stroke-linecap="round"></path><path d="M 198.000,94.500 C 192.362,95.910 192.532,96.592 187.000,98.500" stroke-width="15.574" stroke="rgb(33,33,33)" fill="none" stroke-linecap="round"></path><path d="M 187.000,98.500 C 178.032,101.592 177.949,101.356 169.000,104.500" stroke-width="14.064" stroke="rgb(33,33,33)" fill="none" stroke-linecap="round"></path><path d="M 169.000,104.500 C 159.449,107.856 159.415,107.784 150.000,111.500" stroke-width="12.485" stroke="rgb(33,33,33)" fill="none" stroke-linecap="round"></path><path d="M 150.000,111.500 C 140.415,115.284 140.312,115.103 131.000,119.500" stroke-width="11.300" stroke="rgb(33,33,33)" fill="none" stroke-linecap="round"></path><path d="M 131.000,119.500 C 122.312,123.603 122.096,123.372 114.000,128.500" stroke-width="10.888" stroke="rgb(33,33,33)" fill="none" stroke-linecap="round"></path><path d="M 114.000,128.500 C 107.096,132.872 106.904,132.924 101.000,138.500" stroke-width="10.698" stroke="rgb(33,33,33)" fill="none" stroke-linecap="round"></path><path d="M 101.000,138.500 C 97.904,141.424 98.028,141.782 96.000,145.500" stroke-width="11.154" stroke="rgb(33,33,33)" fill="none" stroke-linecap="round"></path><path d="M 96.000,145.500 C 95.028,147.282 95.289,147.474 95.000,149.500" stroke-width="11.905" stroke="rgb(33,33,33)" fill="none" stroke-linecap="round"></path><path d="M 95.000,149.500 C 94.789,150.974 93.807,151.949 95.000,152.500" stroke-width="12.670" stroke="rgb(33,33,33)" fill="none" stroke-linecap="round"></path><path d="M 95.000,152.500 C 100.307,154.949 101.462,154.192 108.000,155.500" stroke-width="12.447" stroke="rgb(33,33,33)" fill="none" stroke-linecap="round"></path><path d="M 108.000,155.500 C 113.962,156.692 113.973,156.696 120.000,157.500" stroke-width="12.246" stroke="rgb(33,33,33)" fill="none" stroke-linecap="round"></path><path d="M 120.000,157.500 C 128.973,158.696 129.021,158.341 138.000,159.500" stroke-width="11.577" stroke="rgb(33,33,33)" fill="none" stroke-linecap="round"></path><path d="M 138.000,159.500 C 144.521,160.341 144.650,159.913 151.000,161.500" stroke-width="11.544" stroke="rgb(33,33,33)" fill="none" stroke-linecap="round"></path><path d="M 151.000,161.500 C 156.650,162.913 156.548,163.380 162.000,165.500" stroke-width="11.631" stroke="rgb(33,33,33)" fill="none" stroke-linecap="round"></path><path d="M 162.000,165.500 C 165.548,166.880 166.012,166.327 169.000,168.500" stroke-width="12.036" stroke="rgb(33,33,33)" fill="none" stroke-linecap="round"></path><path d="M 169.000,168.500 C 171.512,170.327 171.291,170.814 173.000,173.500" stroke-width="12.490" stroke="rgb(33,33,33)" fill="none" stroke-linecap="round"></path><path d="M 173.000,173.500 C 174.791,176.314 175.208,176.333 176.000,179.500" stroke-width="12.810" stroke="rgb(33,33,33)" fill="none" stroke-linecap="round"></path><path d="M 176.000,179.500 C 176.708,182.333 176.000,182.500 176.000,185.500" stroke-width="13.224" stroke="rgb(33,33,33)" fill="none" stroke-linecap="round"></path><path d="M 176.000,185.500 C 176.000,189.500 177.265,189.958 176.000,193.500" stroke-width="13.278" stroke="rgb(33,33,33)" fill="none" stroke-linecap="round"></path><path d="M 176.000,193.500 C 174.765,196.958 173.379,196.407 171.000,199.500" stroke-width="13.343" stroke="rgb(33,33,33)" fill="none" stroke-linecap="round"></path><path d="M 171.000,199.500 C 168.379,202.907 168.866,203.347 166.000,206.500" stroke-width="13.363" stroke="rgb(33,33,33)" fill="none" stroke-linecap="round"></path><path d="M 166.000,206.500 C 163.866,208.847 163.459,208.451 161.000,210.500" stroke-width="13.612" stroke="rgb(33,33,33)" fill="none" stroke-linecap="round"></path><path d="M 161.000,210.500 C 157.459,213.451 157.519,213.522 154.000,216.500" stroke-width="13.452" stroke="rgb(33,33,33)" fill="none" stroke-linecap="round"></path><path d="M 154.000,216.500 C 151.019,219.022 151.120,219.160 148.000,221.500" stroke-width="13.535" stroke="rgb(33,33,33)" fill="none" stroke-linecap="round"></path><path d="M 148.000,221.500 C 145.120,223.660 145.086,223.648 142.000,225.500" stroke-width="13.666" stroke="rgb(33,33,33)" fill="none" stroke-linecap="round"></path><path d="M 142.000,225.500 C 140.086,226.648 139.838,226.275 138.000,227.500" stroke-width="14.050" stroke="rgb(33,33,33)" fill="none" stroke-linecap="round"></path><path d="M 4.000,228.500 C 15.000,216.000 13.971,214.956 26.000,203.500" stroke-width="14.994" stroke="rgb(33,33,33)" fill="none" stroke-linecap="round"></path><path d="M 26.000,203.500 C 45.471,184.956 45.611,184.842 67.000,168.500" stroke-width="9.294" stroke="rgb(33,33,33)" fill="none" stroke-linecap="round"></path><path d="M 67.000,168.500 C 90.111,150.842 90.127,150.567 115.000,135.500" stroke-width="7.818" stroke="rgb(33,33,33)" fill="none" stroke-linecap="round"></path><path d="M 115.000,135.500 C 142.127,119.067 142.374,119.191 171.000,105.500" stroke-width="6.800" stroke="rgb(33,33,33)" fill="none" stroke-linecap="round"></path><path d="M 171.000,105.500 C 199.874,91.691 200.349,92.630 230.000,80.500" stroke-width="6.750" stroke="rgb(33,33,33)" fill="none" stroke-linecap="round"></path><path d="M 230.000,80.500 C 255.349,70.130 255.301,69.952 281.000,60.500" stroke-width="6.750" stroke="rgb(33,33,33)" fill="none" stroke-linecap="round"></path><path d="M 281.000,60.500 C 298.801,53.952 298.829,53.884 317.000,48.500" stroke-width="6.750" stroke="rgb(33,33,33)" fill="none" stroke-linecap="round"></path><path d="M 317.000,48.500 C 325.829,45.884 326.000,46.500 335.000,44.500" stroke-width="6.750" stroke="rgb(33,33,33)" fill="none" stroke-linecap="round"></path><path d="M 335.000,44.500 C 339.500,43.500 339.480,43.322 344.000,42.500" stroke-width="6.920" stroke="rgb(33,33,33)" fill="none" stroke-linecap="round"></path><path d="M 11.000,281.500 C 19.000,276.500 18.990,276.484 27.000,271.500" stroke-width="15.951" stroke="rgb(33,33,33)" fill="none" stroke-linecap="round"></path><path d="M 27.000,271.500 C 41.490,262.484 41.741,262.870 56.000,253.500" stroke-width="9.243" stroke="rgb(33,33,33)" fill="none" stroke-linecap="round"></path><path d="M 56.000,253.500 C 76.741,239.870 76.448,239.423 97.000,225.500" stroke-width="7.092" stroke="rgb(33,33,33)" fill="none" stroke-linecap="round"></path><path d="M 97.000,225.500 C 122.948,207.923 122.576,207.337 149.000,190.500" stroke-width="6.750" stroke="rgb(33,33,33)" fill="none" stroke-linecap="round"></path><path d="M 149.000,190.500 C 179.076,171.337 178.934,170.991 210.000,153.500" stroke-width="6.750" stroke="rgb(33,33,33)" fill="none" stroke-linecap="round"></path><path d="M 210.000,153.500 C 238.434,137.491 238.858,138.218 268.000,123.500" stroke-width="6.750" stroke="rgb(33,33,33)" fill="none" stroke-linecap="round"></path><path d="M 268.000,123.500 C 288.358,113.218 288.299,113.054 309.000,103.500" stroke-width="6.750" stroke="rgb(33,33,33)" fill="none" stroke-linecap="round"></path><path d="M 309.000,103.500 C 320.799,98.054 320.854,98.096 333.000,93.500" stroke-width="6.750" stroke="rgb(33,33,33)" fill="none" stroke-linecap="round"></path></svg>