<svg xmlns="http://www.w3.org/2000/svg" xmlns:xlink="http://www.w3.org/1999/xlink" viewBox="0 0 360 500"><path d="M 183.000,61.000 C 179.085,80.794 179.356,80.853 175.170,100.588" stroke-width="18.954" stroke="rgb(33,33,33)" fill="none" stroke-linecap="round"></path><path d="M 175.170,100.588 C 172.314,114.051 171.940,113.970 168.915,127.398" stroke-width="14.476" stroke="rgb(33,33,33)" fill="none" stroke-linecap="round"></path><path d="M 168.915,127.398 C 165.438,142.830 165.737,142.899 162.166,158.308" stroke-width="12.604" stroke="rgb(33,33,33)" fill="none" stroke-linecap="round"></path><path d="M 162.166,158.308 C 158.810,172.788 158.584,172.735 155.062,187.177" stroke-width="12.158" stroke="rgb(33,33,33)" fill="none" stroke-linecap="round"></path><path d="M 155.062,187.177 C 150.986,203.887 150.994,203.889 146.970,220.612" stroke-width="11.056" stroke="rgb(33,33,33)" fill="none" stroke-linecap="round"></path><path d="M 146.970,220.612 C 141.241,244.419 141.268,244.426 135.555,268.237" stroke-width="9.034" stroke="rgb(33,33,33)" fill="none" stroke-linecap="round"></path><path d="M 135.555,268.237 C 134.549,272.428 134.524,272.422 133.532,276.616" stroke-width="9.169" stroke="rgb(33,33,33)" fill="none" stroke-linecap="round"></path><path d="M 133.532,276.616 C 133.032,278.730 132.757,280.024 132.572,280.853" stroke-width="9.957" stroke="rgb(33,33,33)" fill="none" stroke-linecap="round"></path><path d="M 132.572,280.853 C 132.491,281.216 132.754,279.919 133.000,279.000" stroke-width="10.970" stroke="rgb(33,33,33)" fill="none" stroke-linecap="round"></path><path d="M 133.000,279.000 C 137.186,263.342 137.525,263.427 141.436,247.700" stroke-width="9.726" stroke="rgb(33,33,33)" fill="none" stroke-linecap="round"></path><path d="M 141.436,247.700 C 146.121,228.861 145.538,228.716 150.193,209.868" stroke-width="8.496" stroke="rgb(33,33,33)" fill="none" stroke-linecap="round"></path><path d="M 150.193,209.868 C 155.173,189.702 155.051,189.658 160.705,169.673" stroke-width="8.029" stroke="rgb(33,33,33)" fill="none" stroke-linecap="round"></path><path d="M 160.705,169.673 C 166.319,149.827 166.504,149.872 172.729,130.206" stroke-width="7.214" stroke="rgb(33,33,33)" fill="none" stroke-linecap="round"></path><path d="M 172.729,130.206 C 177.555,114.959 177.612,114.973 182.807,99.848" stroke-width="7.229" stroke="rgb(33,33,33)" fill="none" stroke-linecap="round"></path><path d="M 182.807,99.848 C 186.774,88.297 187.049,88.392 191.052,76.854" stroke-width="7.319" stroke="rgb(33,33,33)" fill="none" stroke-linecap="round"></path><path d="M 191.052,76.854 C 192.992,71.262 192.932,71.240 194.693,65.589" stroke-width="7.979" stroke="rgb(33,33,33)" fill="none" stroke-linecap="round"></path><path d="M 194.693,65.589 C 195.547,62.851 195.714,62.870 196.282,60.077" stroke-width="8.758" stroke="rgb(33,33,33)" fill="none" stroke-linecap="round"></path><path d="M 196.282,60.077 C 196.573,58.645 196.919,58.370 196.412,57.139" stroke-width="9.715" stroke="rgb(33,33,33)" fill="none" stroke-linecap="round"></path><path d="M 196.412,57.139 C 195.912,55.926 195.629,55.603 194.267,55.190" stroke-width="10.649" stroke="rgb(33,33,33)" fill="none" stroke-linecap="round"></path><path d="M 194.267,55.190 C 186.896,52.958 186.702,52.593 178.946,51.849" stroke-width="10.562" stroke="rgb(33,33,33)" fill="none" stroke-linecap="round"></path><path d="M 178.946,51.849 C 170.069,50.998 169.913,51.227 161.000,52.000" stroke-width="10.411" stroke="rgb(33,33,33)" fill="none" stroke-linecap="round"></path><path d="M 161.000,52.000 C 151.823,52.796 151.764,52.952 142.765,54.986" stroke-width="10.325" stroke="rgb(33,33,33)" fill="none" stroke-linecap="round"></path><path d="M 142.765,54.986 C 131.547,57.522 131.531,57.657 120.566,61.139" stroke-width="9.844" stroke="rgb(33,33,33)" fill="none" stroke-linecap="round"></path><path d="M 120.566,61.139 C 114.026,63.215 114.157,63.613 107.755,66.102" stroke-width="10.089" stroke="rgb(33,33,33)" fill="none" stroke-linecap="round"></path><path d="M 107.755,66.102 C 102.988,67.956 102.903,67.773 98.227,69.825" stroke-width="10.550" stroke="rgb(33,33,33)" fill="none" stroke-linecap="round"></path><path d="M 98.227,69.825 C 95.797,70.892 95.821,70.986 93.544,72.340" stroke-width="11.238" stroke="rgb(33,33,33)" fill="none" stroke-linecap="round"></path><path d="M 93.544,72.340 C 92.880,72.735 92.159,72.868 92.344,73.323" stroke-width="12.214" stroke="rgb(33,33,33)" fill="none" stroke-linecap="round"></path><path d="M 92.344,73.323 C 92.660,74.102 93.248,74.575 94.546,74.809" stroke-width="13.015" stroke="rgb(33,33,33)" fill="none" stroke-linecap="round"></path><path d="M 94.546,74.809 C 109.919,77.577 110.062,78.912 125.686,79.327" stroke-width="10.284" stroke="rgb(33,33,33)" fill="none" stroke-linecap="round"></path><path d="M 125.686,79.327 C 142.094,79.763 142.144,77.869 158.610,76.512" stroke-width="9.617" stroke="rgb(33,33,33)" fill="none" stroke-linecap="round"></path><path d="M 158.610,76.512 C 177.131,74.986 177.169,75.376 195.661,73.561" stroke-width="8.620" stroke="rgb(33,33,33)" fill="none" stroke-linecap="round"></path><path d="M 195.661,73.561 C 212.031,71.954 211.983,71.484 228.333,69.667" stroke-width="8.130" stroke="rgb(33,33,33)" fill="none" stroke-linecap="round"></path><path d="M 228.333,69.667 C 244.654,67.853 244.659,67.882 261.004,66.298" stroke-width="7.852" stroke="rgb(33,33,33)" fill="none" stroke-linecap="round"></path><path d="M 261.004,66.298 C 271.490,65.282 271.484,65.065 281.995,64.467" stroke-width="8.370" stroke="rgb(33,33,33)" fill="none" stroke-linecap="round"></path><path d="M 281.995,64.467 C 288.748,64.083 288.799,63.973 295.532,64.333" stroke-width="8.416" stroke="rgb(33,33,33)" fill="none" stroke-linecap="round"></path><path d="M 295.532,64.333 C 298.969,64.517 299.042,64.664 302.334,65.556" stroke-width="9.076" stroke="rgb(33,33,33)" fill="none" stroke-linecap="round"></path><path d="M 302.334,65.556 C 303.305,65.819 303.587,65.933 304.059,66.644" stroke-width="10.080" stroke="rgb(33,33,33)" fill="none" stroke-linecap="round"></path><path d="M 304.059,66.644 C 304.332,67.056 304.193,67.350 303.823,67.801" stroke-width="11.109" stroke="rgb(33,33,33)" fill="none" stroke-linecap="round"></path><path d="M 303.823,67.801 C 300.470,71.888 300.510,72.055 296.614,75.719" stroke-width="11.394" stroke="rgb(33,33,33)" fill="none" stroke-linecap="round"></path><path d="M 296.614,75.719 C 286.575,85.161 286.511,85.134 275.953,94.013" stroke-width="10.403" stroke="rgb(33,33,33)" fill="none" stroke-linecap="round"></path><path d="M 275.953,94.013 C 261.130,106.478 261.057,106.404 245.853,118.406" stroke-width="9.353" stroke="rgb(33,33,33)" fill="none" stroke-linecap="round"></path><path d="M 245.853,118.406 C 226.813,133.436 226.461,132.992 207.466,148.078" stroke-width="7.560" stroke="rgb(33,33,33)" fill="none" stroke-linecap="round"></path><path d="M 207.466,148.078 C 185.518,165.510 185.890,165.976 163.968,183.442" stroke-width="6.828" stroke="rgb(33,33,33)" fill="none" stroke-linecap="round"></path><path d="M 163.968,183.442 C 138.707,203.568 138.056,202.771 113.101,223.262" stroke-width="6.750" stroke="rgb(33,33,33)" fill="none" stroke-linecap="round"></path><path d="M 113.101,223.262 C 91.802,240.751 92.187,241.225 71.460,259.401" stroke-width="6.750" stroke="rgb(33,33,33)" fill="none" stroke-linecap="round"></path><path d="M 71.460,259.401 C 53.470,275.177 52.009,273.850 35.667,291.167" stroke-width="6.750" stroke="rgb(33,33,33)" fill="none" stroke-linecap="round"></path></svg>