<svg xmlns="http://www.w3.org/2000/svg" xmlns:xlink="http://www.w3.org/1999/xlink" viewBox="0 0 360 500"><path d="M 218.000,97.000 C 211.500,101.000 211.297,100.707 205.000,105.000" stroke-width="16.399" stroke="rgb(33,33,33)" fill="none" stroke-linecap="round"></path><path d="M 205.000,105.000 C 200.297,108.207 200.534,108.545 196.000,112.000" stroke-width="15.221" stroke="rgb(33,33,33)" fill="none" stroke-linecap="round"></path><path d="M 196.000,112.000 C 190.034,116.545 189.809,116.261 184.000,121.000" stroke-width="12.945" stroke="rgb(33,33,33)" fill="none" stroke-linecap="round"></path><path d="M 184.000,121.000 C 170.809,131.761 170.718,131.678 158.000,143.000" stroke-width="7.828" stroke="rgb(33,33,33)" fill="none" stroke-linecap="round"></path><path d="M 158.000,143.000 C 129.718,168.178 129.777,168.266 102.000,194.000" stroke-width="7.559" stroke="rgb(33,33,33)" fill="none" stroke-linecap="round"></path><path d="M 102.000,194.000 C 95.777,199.766 94.778,199.064 90.000,206.000" stroke-width="6.750" stroke="rgb(33,33,33)" fill="none" stroke-linecap="round"></path><path d="M 90.000,206.000 C 79.278,221.564 79.121,222.307 71.000,239.000" stroke-width="7.110" stroke="rgb(33,33,33)" fill="none" stroke-linecap="round"></path><path d="M 71.000,239.000 C 70.121,240.807 71.200,241.133 72.000,243.000" stroke-width="7.660" stroke="rgb(33,33,33)" fill="none" stroke-linecap="round"></path><path d="M 72.000,243.000 C 72.700,244.633 72.296,245.757 74.000,246.000" stroke-width="8.316" stroke="rgb(33,33,33)" fill="none" stroke-linecap="round"></path><path d="M 74.000,246.000 C 86.296,247.757 87.228,248.216 100.000,247.000" stroke-width="8.529" stroke="rgb(33,33,33)" fill="none" stroke-linecap="round"></path><path d="M 100.000,247.000 C 108.228,246.216 108.217,245.081 116.000,242.000" stroke-width="6.750" stroke="rgb(33,33,33)" fill="none" stroke-linecap="round"></path><path d="M 116.000,242.000 C 132.217,235.581 132.343,235.655 148.000,228.000" stroke-width="6.750" stroke="rgb(33,33,33)" fill="none" stroke-linecap="round"></path><path d="M 148.000,228.000 C 154.843,224.655 154.553,224.083 161.000,220.000" stroke-width="6.750" stroke="rgb(33,33,33)" fill="none" stroke-linecap="round"></path><path d="M 161.000,220.000 C 169.553,214.583 169.579,214.614 178.000,209.000" stroke-width="6.750" stroke="rgb(33,33,33)" fill="none" stroke-linecap="round"></path><path d="M 178.000,209.000 C 180.079,207.614 180.107,207.623 182.000,206.000" stroke-width="7.101" stroke="rgb(33,33,33)" fill="none" stroke-linecap="round"></path><path d="M 182.000,206.000 C 183.607,204.623 184.191,204.214 185.000,203.000" stroke-width="8.030" stroke="rgb(33,33,33)" fill="none" stroke-linecap="round"></path><path d="M 185.000,203.000 C 185.191,202.714 184.488,202.895 184.000,203.000" stroke-width="8.866" stroke="rgb(33,33,33)" fill="none" stroke-linecap="round"></path><path d="M 184.000,203.000 C 177.488,204.395 177.219,203.651 171.000,206.000" stroke-width="9.372" stroke="rgb(33,33,33)" fill="none" stroke-linecap="round"></path><path d="M 171.000,206.000 C 154.719,212.151 154.889,212.756 139.000,220.000" stroke-width="8.741" stroke="rgb(33,33,33)" fill="none" stroke-linecap="round"></path><path d="M 139.000,220.000 C 120.889,228.256 120.795,228.103 103.000,237.000" stroke-width="8.261" stroke="rgb(33,33,33)" fill="none" stroke-linecap="round"></path><path d="M 103.000,237.000 C 94.795,241.103 95.036,241.566 87.000,246.000" stroke-width="6.994" stroke="rgb(33,33,33)" fill="none" stroke-linecap="round"></path><path d="M 87.000,246.000 C 80.536,249.566 80.524,249.546 74.000,253.000" stroke-width="6.750" stroke="rgb(33,33,33)" fill="none" stroke-linecap="round"></path><path d="M 74.000,253.000 C 63.524,258.546 63.522,258.544 53.000,264.000" stroke-width="6.765" stroke="rgb(33,33,33)" fill="none" stroke-linecap="round"></path><path d="M 53.000,264.000 C 50.022,265.544 50.044,265.595 47.000,267.000" stroke-width="6.911" stroke="rgb(33,33,33)" fill="none" stroke-linecap="round"></path><path d="M 47.000,267.000 C 43.544,268.595 43.536,268.674 40.000,270.000" stroke-width="7.739" stroke="rgb(33,33,33)" fill="none" stroke-linecap="round"></path><path d="M 40.000,270.000 C 39.536,270.174 39.392,270.261 39.000,270.000" stroke-width="8.581" stroke="rgb(33,33,33)" fill="none" stroke-linecap="round"></path><path d="M 39.000,270.000 C 37.892,269.261 37.203,269.221 37.000,268.000" stroke-width="9.586" stroke="rgb(33,33,33)" fill="none" stroke-linecap="round"></path><path d="M 37.000,268.000 C 36.703,266.221 37.500,266.000 38.000,264.000" stroke-width="9.354" stroke="rgb(33,33,33)" fill="none" stroke-linecap="round"></path><path d="M 38.000,264.000 C 39.000,260.000 39.137,260.028 40.000,256.000" stroke-width="10.007" stroke="rgb(33,33,33)" fill="none" stroke-linecap="round"></path><path d="M 40.000,256.000 C 40.637,253.028 40.624,253.010 41.000,250.000" stroke-width="10.755" stroke="rgb(33,33,33)" fill="none" stroke-linecap="round"></path><path d="M 41.000,250.000 C 41.124,249.010 41.000,249.000 41.000,248.000" stroke-width="11.723" stroke="rgb(33,33,33)" fill="none" stroke-linecap="round"></path><path d="M 41.000,248.000 C 41.000,247.500 40.793,247.414 41.000,247.000" stroke-width="12.284" stroke="rgb(33,33,33)" fill="none" stroke-linecap="round"></path><path d="M 41.000,247.000 C 41.293,246.414 41.344,246.239 42.000,246.000" stroke-width="13.203" stroke="rgb(33,33,33)" fill="none" stroke-linecap="round"></path><path d="M 42.000,246.000 C 46.844,244.239 46.997,244.490 52.000,243.000" stroke-width="13.066" stroke="rgb(33,33,33)" fill="none" stroke-linecap="round"></path><path d="M 52.000,243.000 C 70.497,237.490 70.840,238.486 89.000,232.000" stroke-width="10.836" stroke="rgb(33,33,33)" fill="none" stroke-linecap="round"></path><path d="M 89.000,232.000 C 119.840,220.986 119.459,219.895 150.000,208.000" stroke-width="8.731" stroke="rgb(33,33,33)" fill="none" stroke-linecap="round"></path><path d="M 150.000,208.000 C 166.959,201.395 167.070,201.677 184.000,195.000" stroke-width="6.750" stroke="rgb(33,33,33)" fill="none" stroke-linecap="round"></path><path d="M 184.000,195.000 C 202.570,187.677 202.268,186.887 221.000,180.000" stroke-width="6.750" stroke="rgb(33,33,33)" fill="none" stroke-linecap="round"></path><path d="M 126.000,238.000 C 130.500,229.500 129.772,228.995 135.000,221.000" stroke-width="18.473" stroke="rgb(33,33,33)" fill="none" stroke-linecap="round"></path><path d="M 135.000,221.000 C 138.272,215.995 138.749,216.251 143.000,212.000" stroke-width="14.251" stroke="rgb(33,33,33)" fill="none" stroke-linecap="round"></path><path d="M 143.000,212.000 C 147.749,207.251 148.067,207.572 153.000,203.000" stroke-width="12.610" stroke="rgb(33,33,33)" fill="none" stroke-linecap="round"></path><path d="M 153.000,203.000 C 168.567,188.572 168.375,188.358 184.000,174.000" stroke-width="11.724" stroke="rgb(33,33,33)" fill="none" stroke-linecap="round"></path><path d="M 184.000,174.000 C 186.875,171.358 187.063,171.569 190.000,169.000" stroke-width="12.199" stroke="rgb(33,33,33)" fill="none" stroke-linecap="round"></path><path d="M 190.000,169.000 C 191.063,168.069 191.000,168.000 192.000,167.000" stroke-width="12.340" stroke="rgb(33,33,33)" fill="none" stroke-linecap="round"></path><path d="M 192.000,167.000 C 192.000,167.000 192.000,167.000 192.000,167.000" stroke-width="13.385" stroke="rgb(33,33,33)" fill="none" stroke-linecap="round"></path><path d="M 192.000,167.000 C 191.000,170.000 190.952,169.985 190.000,173.000" stroke-width="13.549" stroke="rgb(33,33,33)" fill="none" stroke-linecap="round"></path><path d="M 190.000,173.000 C 187.952,179.485 187.438,179.387 186.000,186.000" stroke-width="13.159" stroke="rgb(33,33,33)" fill="none" stroke-linecap="round"></path><path d="M 186.000,186.000 C 184.938,190.887 185.385,190.994 185.000,196.000" stroke-width="13.176" stroke="rgb(33,33,33)" fill="none" stroke-linecap="round"></path><path d="M 185.000,196.000 C 184.885,197.494 184.270,198.026 185.000,199.000" stroke-width="13.240" stroke="rgb(33,33,33)" fill="none" stroke-linecap="round"></path><path d="M 185.000,199.000 C 185.770,200.026 186.563,200.392 188.000,200.000" stroke-width="13.899" stroke="rgb(33,33,33)" fill="none" stroke-linecap="round"></path><path d="M 188.000,200.000 C 192.063,198.892 192.331,198.511 196.000,196.000" stroke-width="13.824" stroke="rgb(33,33,33)" fill="none" stroke-linecap="round"></path><path d="M 196.000,196.000 C 201.831,192.011 201.748,191.774 207.000,187.000" stroke-width="13.157" stroke="rgb(33,33,33)" fill="none" stroke-linecap="round"></path><path d="M 207.000,187.000 C 212.748,181.774 212.324,181.297 218.000,176.000" stroke-width="12.761" stroke="rgb(33,33,33)" fill="none" stroke-linecap="round"></path><path d="M 218.000,176.000 C 219.824,174.297 219.899,174.350 222.000,173.000" stroke-width="12.129" stroke="rgb(33,33,33)" fill="none" stroke-linecap="round"></path><path d="M 222.000,173.000 C 226.899,169.850 226.718,168.981 232.000,167.000" stroke-width="12.402" stroke="rgb(33,33,33)" fill="none" stroke-linecap="round"></path><path d="M 232.000,167.000 C 234.718,165.981 235.101,166.473 238.000,167.000" stroke-width="12.903" stroke="rgb(33,33,33)" fill="none" stroke-linecap="round"></path><path d="M 238.000,167.000 C 240.601,167.473 240.480,168.055 243.000,169.000" stroke-width="13.460" stroke="rgb(33,33,33)" fill="none" stroke-linecap="round"></path><path d="M 243.000,169.000 C 244.480,169.555 244.461,169.658 246.000,170.000" stroke-width="12.967" stroke="rgb(33,33,33)" fill="none" stroke-linecap="round"></path><path d="M 246.000,170.000 C 248.961,170.658 248.994,171.000 252.000,171.000" stroke-width="13.349" stroke="rgb(33,33,33)" fill="none" stroke-linecap="round"></path><path d="M 252.000,171.000 C 255.494,171.000 255.689,170.993 259.000,170.000" stroke-width="13.571" stroke="rgb(33,33,33)" fill="none" stroke-linecap="round"></path><path d="M 259.000,170.000 C 260.689,169.493 260.649,169.182 262.000,168.000" stroke-width="12.392" stroke="rgb(33,33,33)" fill="none" stroke-linecap="round"></path><path d="M 262.000,168.000 C 264.649,165.682 264.638,165.624 267.000,163.000" stroke-width="12.803" stroke="rgb(33,33,33)" fill="none" stroke-linecap="round"></path><path d="M 267.000,163.000 C 269.138,160.624 269.035,160.527 271.000,158.000" stroke-width="13.241" stroke="rgb(33,33,33)" fill="none" stroke-linecap="round"></path><path d="M 271.000,158.000 C 272.535,156.027 272.441,155.949 274.000,154.000" stroke-width="13.691" stroke="rgb(33,33,33)" fill="none" stroke-linecap="round"></path><path d="M 274.000,154.000 C 274.441,153.449 274.613,153.581 275.000,153.000" stroke-width="13.705" stroke="rgb(33,33,33)" fill="none" stroke-linecap="round"></path><path d="M 275.000,153.000 C 275.613,152.081 275.387,151.919 276.000,151.000" stroke-width="14.394" stroke="rgb(33,33,33)" fill="none" stroke-linecap="round"></path><path d="M 276.000,151.000 C 276.387,150.419 276.362,150.255 277.000,150.000" stroke-width="15.098" stroke="rgb(33,33,33)" fill="none" stroke-linecap="round"></path><path d="M 277.000,150.000 C 278.862,149.255 278.974,149.368 281.000,149.000" stroke-width="15.355" stroke="rgb(33,33,33)" fill="none" stroke-linecap="round"></path><path d="M 281.000,149.000 C 284.474,148.368 284.517,148.606 288.000,148.000" stroke-width="15.232" stroke="rgb(33,33,33)" fill="none" stroke-linecap="round"></path><path d="M 288.000,148.000 C 296.017,146.606 295.968,146.285 304.000,145.000" stroke-width="14.346" stroke="rgb(33,33,33)" fill="none" stroke-linecap="round"></path><path d="M 304.000,145.000 C 308.468,144.285 308.487,144.347 313.000,144.000" stroke-width="10.476" stroke="rgb(33,33,33)" fill="none" stroke-linecap="round"></path><path d="M 313.000,144.000 C 321.487,143.347 321.516,143.000 330.000,143.000" stroke-width="10.565" stroke="rgb(33,33,33)" fill="none" stroke-linecap="round"></path><path d="M 330.000,143.000 C 334.016,143.000 334.179,142.908 338.000,144.000" stroke-width="8.918" stroke="rgb(33,33,33)" fill="none" stroke-linecap="round"></path><path d="M 338.000,144.000 C 341.179,144.908 341.927,144.927 344.000,147.000" stroke-width="9.733" stroke="rgb(33,33,33)" fill="none" stroke-linecap="round"></path></svg>