<svg xmlns="http://www.w3.org/2000/svg" xmlns:xlink="http://www.w3.org/1999/xlink" viewBox="0 0 414 500"><path d="M 100.000,77.000 C 101.000,78.000 101.680,77.718 102.000,79.000" stroke-width="20.028" stroke="rgb(33,33,33)" fill="none" stroke-linecap="round"></path><path d="M 102.000,79.000 C 102.680,81.718 102.000,82.000 102.000,85.000" stroke-width="18.683" stroke="rgb(33,33,33)" fill="none" stroke-linecap="round"></path><path d="M 102.000,85.000 C 102.000,90.500 101.359,90.555 102.000,96.000" stroke-width="17.119" stroke="rgb(33,33,33)" fill="none" stroke-linecap="round"></path><path d="M 102.000,96.000 C 103.359,107.555 103.667,107.567 106.000,119.000" stroke-width="14.081" stroke="rgb(33,33,33)" fill="none" stroke-linecap="round"></path><path d="M 106.000,119.000 C 108.667,132.067 108.765,132.059 112.000,145.000" stroke-width="11.868" stroke="rgb(33,33,33)" fill="none" stroke-linecap="round"></path><path d="M 112.000,145.000 C 115.265,158.059 115.859,157.914 119.000,171.000" stroke-width="10.761" stroke="rgb(33,33,33)" fill="none" stroke-linecap="round"></path><path d="M 119.000,171.000 C 121.859,182.914 122.159,182.902 124.000,195.000" stroke-width="10.065" stroke="rgb(33,33,33)" fill="none" stroke-linecap="round"></path><path d="M 124.000,195.000 C 125.659,205.902 125.435,205.980 126.000,217.000" stroke-width="9.709" stroke="rgb(33,33,33)" fill="none" stroke-linecap="round"></path><path d="M 126.000,217.000 C 126.435,225.480 126.000,225.500 126.000,234.000" stroke-width="9.790" stroke="rgb(33,33,33)" fill="none" stroke-linecap="round"></path><path d="M 126.000,234.000 C 126.000,240.000 126.000,240.000 126.000,246.000" stroke-width="10.145" stroke="rgb(33,33,33)" fill="none" stroke-linecap="round"></path><path d="M 126.000,246.000 C 126.000,250.000 126.391,250.092 126.000,254.000" stroke-width="10.676" stroke="rgb(33,33,33)" fill="none" stroke-linecap="round"></path><path d="M 126.000,254.000 C 125.891,255.092 125.825,256.309 125.000,256.000" stroke-width="11.613" stroke="rgb(33,33,33)" fill="none" stroke-linecap="round"></path><path d="M 125.000,256.000 C 121.825,254.809 120.188,254.556 118.000,251.000" stroke-width="11.938" stroke="rgb(33,33,33)" fill="none" stroke-linecap="round"></path><path d="M 118.000,251.000 C 112.188,241.556 113.411,240.537 109.000,230.000" stroke-width="10.990" stroke="rgb(33,33,33)" fill="none" stroke-linecap="round"></path><path d="M 109.000,230.000 C 104.411,219.037 104.265,219.089 100.000,208.000" stroke-width="10.365" stroke="rgb(33,33,33)" fill="none" stroke-linecap="round"></path><path d="M 100.000,208.000 C 96.765,199.589 97.138,199.449 94.000,191.000" stroke-width="10.315" stroke="rgb(33,33,33)" fill="none" stroke-linecap="round"></path><path d="M 94.000,191.000 C 90.638,181.949 90.967,181.784 87.000,173.000" stroke-width="9.985" stroke="rgb(33,33,33)" fill="none" stroke-linecap="round"></path><path d="M 87.000,173.000 C 83.967,166.284 84.296,165.907 80.000,160.000" stroke-width="10.144" stroke="rgb(33,33,33)" fill="none" stroke-linecap="round"></path><path d="M 80.000,160.000 C 76.296,154.907 76.235,154.414 71.000,151.000" stroke-width="10.402" stroke="rgb(33,33,33)" fill="none" stroke-linecap="round"></path><path d="M 71.000,151.000 C 64.735,146.914 64.306,146.511 57.000,145.000" stroke-width="10.397" stroke="rgb(33,33,33)" fill="none" stroke-linecap="round"></path><path d="M 57.000,145.000 C 49.806,143.511 49.500,145.000 42.000,145.000" stroke-width="10.467" stroke="rgb(33,33,33)" fill="none" stroke-linecap="round"></path><path d="M 42.000,145.000 C 37.000,145.000 36.919,144.421 32.000,145.000" stroke-width="10.856" stroke="rgb(33,33,33)" fill="none" stroke-linecap="round"></path><path d="M 32.000,145.000 C 28.419,145.421 27.479,145.230 25.000,147.000" stroke-width="11.355" stroke="rgb(33,33,33)" fill="none" stroke-linecap="round"></path><path d="M 25.000,147.000 C 23.979,147.730 23.850,149.329 25.000,150.000" stroke-width="12.168" stroke="rgb(33,33,33)" fill="none" stroke-linecap="round"></path><path d="M 25.000,150.000 C 29.850,152.829 30.767,153.740 37.000,154.000" stroke-width="12.053" stroke="rgb(33,33,33)" fill="none" stroke-linecap="round"></path><path d="M 37.000,154.000 C 54.767,154.740 55.219,154.574 73.000,152.000" stroke-width="10.288" stroke="rgb(33,33,33)" fill="none" stroke-linecap="round"></path><path d="M 73.000,152.000 C 93.219,149.074 93.046,147.695 113.000,143.000" stroke-width="8.854" stroke="rgb(33,33,33)" fill="none" stroke-linecap="round"></path><path d="M 113.000,143.000 C 135.546,137.695 135.500,137.500 158.000,132.000" stroke-width="7.959" stroke="rgb(33,33,33)" fill="none" stroke-linecap="round"></path><path d="M 158.000,132.000 C 180.500,126.500 180.545,126.678 203.000,121.000" stroke-width="7.195" stroke="rgb(33,33,33)" fill="none" stroke-linecap="round"></path><path d="M 203.000,121.000 C 224.045,115.678 224.025,115.593 245.000,110.000" stroke-width="6.836" stroke="rgb(33,33,33)" fill="none" stroke-linecap="round"></path><path d="M 245.000,110.000 C 261.525,105.593 261.398,105.078 278.000,101.000" stroke-width="6.813" stroke="rgb(33,33,33)" fill="none" stroke-linecap="round"></path><path d="M 278.000,101.000 C 289.898,98.078 290.005,98.525 302.000,96.000" stroke-width="7.021" stroke="rgb(33,33,33)" fill="none" stroke-linecap="round"></path><path d="M 302.000,96.000 C 309.005,94.525 309.064,94.734 316.000,93.000" stroke-width="7.567" stroke="rgb(33,33,33)" fill="none" stroke-linecap="round"></path><path d="M 316.000,93.000 C 319.064,92.234 318.961,91.760 322.000,91.000" stroke-width="8.385" stroke="rgb(33,33,33)" fill="none" stroke-linecap="round"></path><path d="M 161.000,158.000 C 160.500,166.500 158.786,166.742 160.000,175.000" stroke-width="15.105" stroke="rgb(33,33,33)" fill="none" stroke-linecap="round"></path><path d="M 160.000,175.000 C 161.286,183.742 162.836,183.562 166.000,192.000" stroke-width="14.233" stroke="rgb(33,33,33)" fill="none" stroke-linecap="round"></path><path d="M 166.000,192.000 C 168.836,199.562 169.165,199.440 172.000,207.000" stroke-width="11.624" stroke="rgb(33,33,33)" fill="none" stroke-linecap="round"></path><path d="M 172.000,207.000 C 173.665,211.440 173.301,211.582 175.000,216.000" stroke-width="11.711" stroke="rgb(33,33,33)" fill="none" stroke-linecap="round"></path><path d="M 175.000,216.000 C 175.801,218.082 176.309,217.927 177.000,220.000" stroke-width="12.353" stroke="rgb(33,33,33)" fill="none" stroke-linecap="round"></path><path d="M 177.000,220.000 C 177.309,220.927 177.236,222.000 177.000,222.000" stroke-width="13.180" stroke="rgb(33,33,33)" fill="none" stroke-linecap="round"></path><path d="M 177.000,222.000 C 176.736,222.000 176.407,221.041 176.000,220.000" stroke-width="13.898" stroke="rgb(33,33,33)" fill="none" stroke-linecap="round"></path><path d="M 176.000,220.000 C 171.907,209.541 172.125,209.450 168.000,199.000" stroke-width="12.423" stroke="rgb(33,33,33)" fill="none" stroke-linecap="round"></path><path d="M 168.000,199.000 C 164.625,190.450 164.161,190.622 161.000,182.000" stroke-width="11.771" stroke="rgb(33,33,33)" fill="none" stroke-linecap="round"></path><path d="M 161.000,182.000 C 158.661,175.622 159.413,175.334 157.000,169.000" stroke-width="11.596" stroke="rgb(33,33,33)" fill="none" stroke-linecap="round"></path><path d="M 157.000,169.000 C 155.413,164.834 154.592,165.140 153.000,161.000" stroke-width="11.896" stroke="rgb(33,33,33)" fill="none" stroke-linecap="round"></path><path d="M 153.000,161.000 C 152.092,158.640 152.799,158.397 152.000,156.000" stroke-width="12.457" stroke="rgb(33,33,33)" fill="none" stroke-linecap="round"></path><path d="M 152.000,156.000 C 151.299,153.897 151.140,153.899 150.000,152.000" stroke-width="13.039" stroke="rgb(33,33,33)" fill="none" stroke-linecap="round"></path><path d="M 150.000,152.000 C 149.640,151.399 148.859,150.718 149.000,151.000" stroke-width="13.879" stroke="rgb(33,33,33)" fill="none" stroke-linecap="round"></path><path d="M 149.000,151.000 C 149.359,151.718 149.675,152.807 151.000,154.000" stroke-width="14.584" stroke="rgb(33,33,33)" fill="none" stroke-linecap="round"></path><path d="M 151.000,154.000 C 154.675,157.307 154.556,158.333 159.000,160.000" stroke-width="14.177" stroke="rgb(33,33,33)" fill="none" stroke-linecap="round"></path><path d="M 159.000,160.000 C 162.556,161.333 163.000,160.000 167.000,160.000" stroke-width="14.036" stroke="rgb(33,33,33)" fill="none" stroke-linecap="round"></path><path d="M 167.000,160.000 C 172.000,160.000 172.820,161.980 177.000,160.000" stroke-width="13.758" stroke="rgb(33,33,33)" fill="none" stroke-linecap="round"></path><path d="M 177.000,160.000 C 182.320,157.480 182.296,156.093 186.000,151.000" stroke-width="13.259" stroke="rgb(33,33,33)" fill="none" stroke-linecap="round"></path><path d="M 186.000,151.000 C 190.296,145.093 189.443,144.468 193.000,138.000" stroke-width="12.606" stroke="rgb(33,33,33)" fill="none" stroke-linecap="round"></path><path d="M 193.000,138.000 C 194.943,134.468 195.204,134.591 197.000,131.000" stroke-width="12.817" stroke="rgb(33,33,33)" fill="none" stroke-linecap="round"></path><path d="M 197.000,131.000 C 197.704,129.591 197.081,128.919 198.000,128.000" stroke-width="13.490" stroke="rgb(33,33,33)" fill="none" stroke-linecap="round"></path><path d="M 198.000,128.000 C 198.581,127.419 199.818,127.182 200.000,128.000" stroke-width="14.201" stroke="rgb(33,33,33)" fill="none" stroke-linecap="round"></path><path d="M 200.000,128.000 C 200.818,131.682 199.834,132.505 200.000,137.000" stroke-width="13.998" stroke="rgb(33,33,33)" fill="none" stroke-linecap="round"></path><path d="M 200.000,137.000 C 200.334,146.005 200.500,146.000 201.000,155.000" stroke-width="12.903" stroke="rgb(33,33,33)" fill="none" stroke-linecap="round"></path><path d="M 201.000,155.000 C 201.500,164.000 201.486,164.001 202.000,173.000" stroke-width="12.047" stroke="rgb(33,33,33)" fill="none" stroke-linecap="round"></path><path d="M 202.000,173.000 C 202.486,181.501 202.685,181.495 203.000,190.000" stroke-width="11.604" stroke="rgb(33,33,33)" fill="none" stroke-linecap="round"></path><path d="M 203.000,190.000 C 203.185,194.995 202.689,195.026 203.000,200.000" stroke-width="11.817" stroke="rgb(33,33,33)" fill="none" stroke-linecap="round"></path><path d="M 203.000,200.000 C 203.189,203.026 203.624,202.990 204.000,206.000" stroke-width="12.295" stroke="rgb(33,33,33)" fill="none" stroke-linecap="round"></path><path d="M 204.000,206.000 C 204.124,206.990 204.000,207.667 204.000,208.000" stroke-width="13.140" stroke="rgb(33,33,33)" fill="none" stroke-linecap="round"></path><path d="M 204.000,208.000 C 204.000,208.167 204.082,207.493 204.000,207.000" stroke-width="14.017" stroke="rgb(33,33,33)" fill="none" stroke-linecap="round"></path><path d="M 204.000,207.000 C 203.082,201.493 202.919,201.513 202.000,196.000" stroke-width="13.541" stroke="rgb(33,33,33)" fill="none" stroke-linecap="round"></path><path d="M 202.000,196.000 C 201.419,192.513 201.993,192.311 201.000,189.000" stroke-width="13.686" stroke="rgb(33,33,33)" fill="none" stroke-linecap="round"></path><path d="M 201.000,189.000 C 200.493,187.311 199.926,187.543 199.000,186.000" stroke-width="14.200" stroke="rgb(33,33,33)" fill="none" stroke-linecap="round"></path><path d="M 199.000,186.000 C 198.426,185.043 198.691,184.691 198.000,184.000" stroke-width="14.794" stroke="rgb(33,33,33)" fill="none" stroke-linecap="round"></path><path d="M 198.000,184.000 C 197.691,183.691 197.167,183.667 197.000,184.000" stroke-width="15.496" stroke="rgb(33,33,33)" fill="none" stroke-linecap="round"></path><path d="M 197.000,184.000 C 196.667,184.667 196.764,185.056 197.000,186.000" stroke-width="15.958" stroke="rgb(33,33,33)" fill="none" stroke-linecap="round"></path><path d="M 197.000,186.000 C 197.264,187.056 197.086,187.478 198.000,188.000" stroke-width="16.289" stroke="rgb(33,33,33)" fill="none" stroke-linecap="round"></path><path d="M 198.000,188.000 C 200.586,189.478 200.910,189.807 204.000,190.000" stroke-width="16.058" stroke="rgb(33,33,33)" fill="none" stroke-linecap="round"></path><path d="M 204.000,190.000 C 208.910,190.307 209.485,190.806 214.000,189.000" stroke-width="15.080" stroke="rgb(33,33,33)" fill="none" stroke-linecap="round"></path><path d="M 214.000,189.000 C 219.485,186.806 219.442,185.988 224.000,182.000" stroke-width="14.192" stroke="rgb(33,33,33)" fill="none" stroke-linecap="round"></path><path d="M 224.000,182.000 C 227.442,178.988 226.901,178.409 230.000,175.000" stroke-width="13.901" stroke="rgb(33,33,33)" fill="none" stroke-linecap="round"></path><path d="M 230.000,175.000 C 231.901,172.909 232.168,173.138 234.000,171.000" stroke-width="14.142" stroke="rgb(33,33,33)" fill="none" stroke-linecap="round"></path><path d="M 234.000,171.000 C 235.168,169.638 234.714,168.965 236.000,168.000" stroke-width="14.614" stroke="rgb(33,33,33)" fill="none" stroke-linecap="round"></path><path d="M 236.000,168.000 C 236.714,167.465 237.770,167.157 238.000,168.000" stroke-width="15.186" stroke="rgb(33,33,33)" fill="none" stroke-linecap="round"></path><path d="M 238.000,168.000 C 239.270,172.657 238.522,173.498 239.000,179.000" stroke-width="14.498" stroke="rgb(33,33,33)" fill="none" stroke-linecap="round"></path><path d="M 239.000,179.000 C 239.522,184.998 239.283,185.026 240.000,191.000" stroke-width="13.879" stroke="rgb(33,33,33)" fill="none" stroke-linecap="round"></path><path d="M 240.000,191.000 C 240.783,197.526 241.313,197.476 242.000,204.000" stroke-width="13.221" stroke="rgb(33,33,33)" fill="none" stroke-linecap="round"></path><path d="M 242.000,204.000 C 242.313,206.976 242.394,210.591 242.000,210.000" stroke-width="13.537" stroke="rgb(33,33,33)" fill="none" stroke-linecap="round"></path><path d="M 242.000,210.000 C 241.394,209.091 240.711,205.551 240.000,201.000" stroke-width="14.146" stroke="rgb(33,33,33)" fill="none" stroke-linecap="round"></path><path d="M 240.000,201.000 C 238.211,189.551 238.720,189.466 237.000,178.000" stroke-width="11.897" stroke="rgb(33,33,33)" fill="none" stroke-linecap="round"></path><path d="M 237.000,178.000 C 235.720,169.466 235.264,169.533 234.000,161.000" stroke-width="11.549" stroke="rgb(33,33,33)" fill="none" stroke-linecap="round"></path><path d="M 234.000,161.000 C 233.264,156.033 233.358,156.007 233.000,151.000" stroke-width="11.716" stroke="rgb(33,33,33)" fill="none" stroke-linecap="round"></path><path d="M 233.000,151.000 C 232.858,149.007 233.000,149.000 233.000,147.000" stroke-width="12.403" stroke="rgb(33,33,33)" fill="none" stroke-linecap="round"></path><path d="M 233.000,147.000 C 233.000,146.000 233.000,145.333 233.000,145.000" stroke-width="13.225" stroke="rgb(33,33,33)" fill="none" stroke-linecap="round"></path><path d="M 233.000,145.000 C 233.000,144.833 232.779,145.559 233.000,146.000" stroke-width="14.153" stroke="rgb(33,33,33)" fill="none" stroke-linecap="round"></path><path d="M 233.000,146.000 C 234.779,149.559 234.172,150.429 237.000,153.000" stroke-width="14.067" stroke="rgb(33,33,33)" fill="none" stroke-linecap="round"></path><path d="M 237.000,153.000 C 239.672,155.429 240.342,155.268 244.000,156.000" stroke-width="13.996" stroke="rgb(33,33,33)" fill="none" stroke-linecap="round"></path><path d="M 244.000,156.000 C 247.842,156.768 248.064,156.562 252.000,156.000" stroke-width="13.951" stroke="rgb(33,33,33)" fill="none" stroke-linecap="round"></path><path d="M 252.000,156.000 C 258.564,155.062 259.966,156.661 265.000,153.000" stroke-width="13.252" stroke="rgb(33,33,33)" fill="none" stroke-linecap="round"></path><path d="M 265.000,153.000 C 270.966,148.661 269.980,146.784 274.000,140.000" stroke-width="12.671" stroke="rgb(33,33,33)" fill="none" stroke-linecap="round"></path><path d="M 274.000,140.000 C 277.980,133.284 277.624,133.059 281.000,126.000" stroke-width="12.180" stroke="rgb(33,33,33)" fill="none" stroke-linecap="round"></path><path d="M 281.000,126.000 C 283.124,121.559 282.937,121.470 285.000,117.000" stroke-width="12.303" stroke="rgb(33,33,33)" fill="none" stroke-linecap="round"></path><path d="M 285.000,117.000 C 285.937,114.970 285.860,114.899 287.000,113.000" stroke-width="12.876" stroke="rgb(33,33,33)" fill="none" stroke-linecap="round"></path><path d="M 287.000,113.000 C 287.360,112.399 287.905,111.523 288.000,112.000" stroke-width="13.731" stroke="rgb(33,33,33)" fill="none" stroke-linecap="round"></path><path d="M 288.000,112.000 C 288.405,114.023 288.166,115.007 288.000,118.000" stroke-width="14.299" stroke="rgb(33,33,33)" fill="none" stroke-linecap="round"></path><path d="M 288.000,118.000 C 287.666,124.007 287.400,123.993 287.000,130.000" stroke-width="13.732" stroke="rgb(33,33,33)" fill="none" stroke-linecap="round"></path><path d="M 287.000,130.000 C 286.400,138.993 286.257,138.993 286.000,148.000" stroke-width="12.617" stroke="rgb(33,33,33)" fill="none" stroke-linecap="round"></path><path d="M 286.000,148.000 C 285.757,156.493 285.750,156.507 286.000,165.000" stroke-width="12.025" stroke="rgb(33,33,33)" fill="none" stroke-linecap="round"></path><path d="M 286.000,165.000 C 286.250,173.507 285.716,173.651 287.000,182.000" stroke-width="11.588" stroke="rgb(33,33,33)" fill="none" stroke-linecap="round"></path><path d="M 287.000,182.000 C 287.716,186.651 288.301,186.582 290.000,191.000" stroke-width="11.796" stroke="rgb(33,33,33)" fill="none" stroke-linecap="round"></path><path d="M 290.000,191.000 C 290.801,193.082 290.860,193.101 292.000,195.000" stroke-width="12.454" stroke="rgb(33,33,33)" fill="none" stroke-linecap="round"></path><path d="M 292.000,195.000 C 292.360,195.601 292.905,196.477 293.000,196.000" stroke-width="13.345" stroke="rgb(33,33,33)" fill="none" stroke-linecap="round"></path><path d="M 293.000,196.000 C 293.405,193.977 293.619,192.888 293.000,190.000" stroke-width="13.963" stroke="rgb(33,33,33)" fill="none" stroke-linecap="round"></path><path d="M 293.000,190.000 C 292.119,185.888 292.316,185.474 290.000,182.000" stroke-width="13.863" stroke="rgb(33,33,33)" fill="none" stroke-linecap="round"></path><path d="M 290.000,182.000 C 287.316,177.974 286.940,177.889 283.000,175.000" stroke-width="13.636" stroke="rgb(33,33,33)" fill="none" stroke-linecap="round"></path><path d="M 283.000,175.000 C 279.440,172.389 279.101,172.757 275.000,171.000" stroke-width="13.501" stroke="rgb(33,33,33)" fill="none" stroke-linecap="round"></path><path d="M 275.000,171.000 C 272.101,169.757 272.045,169.830 269.000,169.000" stroke-width="13.736" stroke="rgb(33,33,33)" fill="none" stroke-linecap="round"></path><path d="M 269.000,169.000 C 266.545,168.330 266.508,168.418 264.000,168.000" stroke-width="14.068" stroke="rgb(33,33,33)" fill="none" stroke-linecap="round"></path><path d="M 264.000,168.000 C 263.508,167.918 263.125,167.625 263.000,168.000" stroke-width="14.846" stroke="rgb(33,33,33)" fill="none" stroke-linecap="round"></path><path d="M 263.000,168.000 C 262.625,169.125 261.863,170.432 263.000,171.000" stroke-width="15.240" stroke="rgb(33,33,33)" fill="none" stroke-linecap="round"></path><path d="M 263.000,171.000 C 266.863,172.932 267.946,172.541 273.000,173.000" stroke-width="14.643" stroke="rgb(33,33,33)" fill="none" stroke-linecap="round"></path><path d="M 273.000,173.000 C 278.946,173.541 279.158,173.974 285.000,173.000" stroke-width="13.989" stroke="rgb(33,33,33)" fill="none" stroke-linecap="round"></path><path d="M 285.000,173.000 C 291.158,171.974 291.534,171.981 297.000,169.000" stroke-width="13.439" stroke="rgb(33,33,33)" fill="none" stroke-linecap="round"></path><path d="M 297.000,169.000 C 302.534,165.981 303.141,165.888 307.000,161.000" stroke-width="13.013" stroke="rgb(33,33,33)" fill="none" stroke-linecap="round"></path><path d="M 307.000,161.000 C 310.641,156.388 309.657,155.565 312.000,150.000" stroke-width="12.688" stroke="rgb(33,33,33)" fill="none" stroke-linecap="round"></path><path d="M 312.000,150.000 C 313.657,146.065 313.359,145.938 315.000,142.000" stroke-width="12.839" stroke="rgb(33,33,33)" fill="none" stroke-linecap="round"></path><path d="M 315.000,142.000 C 315.859,139.938 316.183,140.043 317.000,138.000" stroke-width="13.342" stroke="rgb(33,33,33)" fill="none" stroke-linecap="round"></path><path d="M 317.000,138.000 C 317.183,137.543 317.000,136.611 317.000,137.000" stroke-width="14.201" stroke="rgb(33,33,33)" fill="none" stroke-linecap="round"></path><path d="M 317.000,137.000 C 317.000,140.111 317.000,141.000 317.000,145.000" stroke-width="14.113" stroke="rgb(33,33,33)" fill="none" stroke-linecap="round"></path><path d="M 317.000,145.000 C 317.000,153.500 316.757,153.507 317.000,162.000" stroke-width="12.977" stroke="rgb(33,33,33)" fill="none" stroke-linecap="round"></path><path d="M 317.000,162.000 C 317.257,171.007 317.689,170.995 318.000,180.000" stroke-width="12.196" stroke="rgb(33,33,33)" fill="none" stroke-linecap="round"></path><path d="M 318.000,180.000 C 318.189,185.495 318.000,185.500 318.000,191.000" stroke-width="12.215" stroke="rgb(33,33,33)" fill="none" stroke-linecap="round"></path><path d="M 318.000,191.000 C 318.000,194.500 318.000,194.500 318.000,198.000" stroke-width="12.549" stroke="rgb(33,33,33)" fill="none" stroke-linecap="round"></path><path d="M 318.000,198.000 C 318.000,199.000 318.000,200.000 318.000,200.000" stroke-width="13.382" stroke="rgb(33,33,33)" fill="none" stroke-linecap="round"></path><path d="M 318.000,200.000 C 318.000,200.000 318.050,198.999 318.000,198.000" stroke-width="14.106" stroke="rgb(33,33,33)" fill="none" stroke-linecap="round"></path><path d="M 318.000,198.000 C 317.550,188.999 317.250,189.007 317.000,180.000" stroke-width="12.976" stroke="rgb(33,33,33)" fill="none" stroke-linecap="round"></path><path d="M 317.000,180.000 C 316.750,171.007 317.000,171.000 317.000,162.000" stroke-width="12.284" stroke="rgb(33,33,33)" fill="none" stroke-linecap="round"></path><path d="M 317.000,162.000 C 317.000,156.500 317.000,156.500 317.000,151.000" stroke-width="12.083" stroke="rgb(33,33,33)" fill="none" stroke-linecap="round"></path><path d="M 317.000,151.000 C 317.000,148.000 317.000,148.000 317.000,145.000" stroke-width="12.568" stroke="rgb(33,33,33)" fill="none" stroke-linecap="round"></path><path d="M 317.000,145.000 C 317.000,143.500 317.000,143.500 317.000,142.000" stroke-width="13.285" stroke="rgb(33,33,33)" fill="none" stroke-linecap="round"></path><path d="M 317.000,142.000 C 317.000,140.000 316.162,139.396 317.000,138.000" stroke-width="13.808" stroke="rgb(33,33,33)" fill="none" stroke-linecap="round"></path><path d="M 317.000,138.000 C 317.662,136.896 318.703,137.865 320.000,137.000" stroke-width="14.679" stroke="rgb(33,33,33)" fill="none" stroke-linecap="round"></path><path d="M 320.000,137.000 C 323.203,134.865 323.464,134.926 326.000,132.000" stroke-width="14.511" stroke="rgb(33,33,33)" fill="none" stroke-linecap="round"></path><path d="M 326.000,132.000 C 329.964,127.426 329.868,127.219 333.000,122.000" stroke-width="13.870" stroke="rgb(33,33,33)" fill="none" stroke-linecap="round"></path><path d="M 333.000,122.000 C 335.868,117.219 335.733,117.101 338.000,112.000" stroke-width="13.734" stroke="rgb(33,33,33)" fill="none" stroke-linecap="round"></path><path d="M 338.000,112.000 C 339.733,108.101 339.108,107.785 341.000,104.000" stroke-width="13.559" stroke="rgb(33,33,33)" fill="none" stroke-linecap="round"></path><path d="M 341.000,104.000 C 342.108,101.785 342.056,101.111 344.000,100.000" stroke-width="13.700" stroke="rgb(33,33,33)" fill="none" stroke-linecap="round"></path><path d="M 344.000,100.000 C 345.556,99.111 347.457,98.372 348.000,100.000" stroke-width="14.165" stroke="rgb(33,33,33)" fill="none" stroke-linecap="round"></path><path d="M 348.000,100.000 C 350.457,107.372 348.930,109.008 350.000,118.000" stroke-width="12.898" stroke="rgb(33,33,33)" fill="none" stroke-linecap="round"></path><path d="M 350.000,118.000 C 351.430,130.008 351.207,130.046 353.000,142.000" stroke-width="11.634" stroke="rgb(33,33,33)" fill="none" stroke-linecap="round"></path><path d="M 353.000,142.000 C 354.207,150.046 354.715,149.968 356.000,158.000" stroke-width="11.351" stroke="rgb(33,33,33)" fill="none" stroke-linecap="round"></path><path d="M 356.000,158.000 C 356.715,162.468 356.259,162.553 357.000,167.000" stroke-width="11.680" stroke="rgb(33,33,33)" fill="none" stroke-linecap="round"></path><path d="M 357.000,167.000 C 357.259,168.553 357.081,169.081 358.000,170.000" stroke-width="12.450" stroke="rgb(33,33,33)" fill="none" stroke-linecap="round"></path><path d="M 358.000,170.000 C 358.581,170.581 359.718,170.847 360.000,170.000" stroke-width="13.281" stroke="rgb(33,33,33)" fill="none" stroke-linecap="round"></path><path d="M 360.000,170.000 C 361.718,164.847 360.768,163.953 362.000,158.000" stroke-width="12.957" stroke="rgb(33,33,33)" fill="none" stroke-linecap="round"></path><path d="M 362.000,158.000 C 363.768,149.453 364.240,149.549 366.000,141.000" stroke-width="12.230" stroke="rgb(33,33,33)" fill="none" stroke-linecap="round"></path><path d="M 366.000,141.000 C 367.740,132.549 367.483,132.497 369.000,124.000" stroke-width="11.721" stroke="rgb(33,33,33)" fill="none" stroke-linecap="round"></path><path d="M 369.000,124.000 C 369.983,118.497 370.029,118.505 371.000,113.000" stroke-width="11.760" stroke="rgb(33,33,33)" fill="none" stroke-linecap="round"></path><path d="M 371.000,113.000 C 371.529,110.005 371.822,106.110 372.000,107.000" stroke-width="12.279" stroke="rgb(33,33,33)" fill="none" stroke-linecap="round"></path><path d="M 372.000,107.000 C 372.322,108.610 372.000,112.500 372.000,118.000" stroke-width="13.042" stroke="rgb(33,33,33)" fill="none" stroke-linecap="round"></path><path d="M 372.000,118.000 C 372.000,125.000 372.000,125.000 372.000,132.000" stroke-width="12.603" stroke="rgb(33,33,33)" fill="none" stroke-linecap="round"></path><path d="M 372.000,132.000 C 372.000,136.000 370.717,136.793 372.000,140.000" stroke-width="12.820" stroke="rgb(33,33,33)" fill="none" stroke-linecap="round"></path><path d="M 372.000,140.000 C 372.717,141.793 373.849,141.641 376.000,142.000" stroke-width="13.355" stroke="rgb(33,33,33)" fill="none" stroke-linecap="round"></path><path d="M 376.000,142.000 C 379.849,142.641 382.051,144.698 384.000,142.000" stroke-width="13.483" stroke="rgb(33,33,33)" fill="none" stroke-linecap="round"></path><path d="M 384.000,142.000 C 388.551,135.698 387.539,133.183 389.000,124.000" stroke-width="12.268" stroke="rgb(33,33,33)" fill="none" stroke-linecap="round"></path><path d="M 389.000,124.000 C 391.039,111.183 390.025,111.002 391.000,98.000" stroke-width="11.082" stroke="rgb(33,33,33)" fill="none" stroke-linecap="round"></path><path d="M 391.000,98.000 C 391.525,91.002 391.012,90.914 392.000,84.000" stroke-width="11.084" stroke="rgb(33,33,33)" fill="none" stroke-linecap="round"></path><path d="M 392.000,84.000 C 392.512,80.414 393.292,80.541 394.000,77.000" stroke-width="11.555" stroke="rgb(33,33,33)" fill="none" stroke-linecap="round"></path><path d="M 394.000,77.000 C 394.292,75.541 393.714,74.286 394.000,74.000" stroke-width="12.351" stroke="rgb(33,33,33)" fill="none" stroke-linecap="round"></path><path d="M 394.000,74.000 C 394.214,73.786 394.843,74.900 395.000,76.000" stroke-width="13.153" stroke="rgb(33,33,33)" fill="none" stroke-linecap="round"></path><path d="M 395.000,76.000 C 396.343,85.400 396.228,85.482 397.000,95.000" stroke-width="12.225" stroke="rgb(33,33,33)" fill="none" stroke-linecap="round"></path><path d="M 397.000,95.000 C 397.728,103.982 397.800,103.992 398.000,113.000" stroke-width="11.656" stroke="rgb(33,33,33)" fill="none" stroke-linecap="round"></path><path d="M 398.000,113.000 C 398.300,126.492 398.000,126.500 398.000,140.000" stroke-width="10.616" stroke="rgb(33,33,33)" fill="none" stroke-linecap="round"></path><path d="M 398.000,140.000 C 398.000,151.500 399.711,151.755 398.000,163.000" stroke-width="10.057" stroke="rgb(33,33,33)" fill="none" stroke-linecap="round"></path><path d="M 398.000,163.000 C 396.211,174.755 396.000,175.210 391.000,186.000" stroke-width="9.672" stroke="rgb(33,33,33)" fill="none" stroke-linecap="round"></path><path d="M 391.000,186.000 C 386.500,195.710 386.259,196.204 379.000,204.000" stroke-width="9.510" stroke="rgb(33,33,33)" fill="none" stroke-linecap="round"></path><path d="M 379.000,204.000 C 372.759,210.704 372.168,210.792 364.000,215.000" stroke-width="9.541" stroke="rgb(33,33,33)" fill="none" stroke-linecap="round"></path><path d="M 364.000,215.000 C 355.668,219.292 355.157,218.590 346.000,221.000" stroke-width="9.547" stroke="rgb(33,33,33)" fill="none" stroke-linecap="round"></path><path d="M 346.000,221.000 C 336.157,223.590 336.082,223.638 326.000,225.000" stroke-width="9.411" stroke="rgb(33,33,33)" fill="none" stroke-linecap="round"></path><path d="M 326.000,225.000 C 317.582,226.138 317.463,225.154 309.000,226.000" stroke-width="9.544" stroke="rgb(33,33,33)" fill="none" stroke-linecap="round"></path><path d="M 309.000,226.000 C 302.463,226.654 302.478,226.873 296.000,228.000" stroke-width="9.868" stroke="rgb(33,33,33)" fill="none" stroke-linecap="round"></path></svg>