<svg xmlns="http://www.w3.org/2000/svg" xmlns:xlink="http://www.w3.org/1999/xlink" viewBox="0 0 414 500"><path d="M 74.000,150.188 C 77.000,150.188 77.000,150.188 80.000,150.188" stroke-width="19.735" stroke="rgb(33,33,33)" fill="none" stroke-linecap="round"></path><path d="M 80.000,150.188 C 83.500,150.188 83.569,150.678 87.000,150.188" stroke-width="18.355" stroke="rgb(33,33,33)" fill="none" stroke-linecap="round"></path><path d="M 87.000,150.188 C 90.569,149.678 90.668,149.576 94.000,148.188" stroke-width="17.255" stroke="rgb(33,33,33)" fill="none" stroke-linecap="round"></path><path d="M 94.000,148.188 C 96.668,147.076 96.442,146.583 99.000,145.188" stroke-width="16.771" stroke="rgb(33,33,33)" fill="none" stroke-linecap="round"></path><path d="M 99.000,145.188 C 101.942,143.583 102.135,143.906 105.000,142.188" stroke-width="16.266" stroke="rgb(33,33,33)" fill="none" stroke-linecap="round"></path><path d="M 105.000,142.188 C 107.135,140.906 107.273,140.915 109.000,139.188" stroke-width="16.092" stroke="rgb(33,33,33)" fill="none" stroke-linecap="round"></path><path d="M 109.000,139.188 C 109.773,138.415 109.845,136.724 110.000,137.188" stroke-width="16.423" stroke="rgb(33,33,33)" fill="none" stroke-linecap="round"></path><path d="M 110.000,137.188 C 110.345,138.224 110.000,139.688 110.000,142.188" stroke-width="16.643" stroke="rgb(33,33,33)" fill="none" stroke-linecap="round"></path><path d="M 110.000,142.188 C 110.000,147.188 110.000,147.188 110.000,152.188" stroke-width="15.596" stroke="rgb(33,33,33)" fill="none" stroke-linecap="round"></path><path d="M 110.000,152.188 C 110.000,160.188 110.000,160.188 110.000,168.188" stroke-width="14.191" stroke="rgb(33,33,33)" fill="none" stroke-linecap="round"></path><path d="M 110.000,168.188 C 110.000,173.688 110.000,173.688 110.000,179.188" stroke-width="13.766" stroke="rgb(33,33,33)" fill="none" stroke-linecap="round"></path><path d="M 110.000,179.188 C 110.000,184.688 110.000,184.688 110.000,190.188" stroke-width="13.373" stroke="rgb(33,33,33)" fill="none" stroke-linecap="round"></path><path d="M 110.000,190.188 C 110.000,194.188 110.000,194.188 110.000,198.188" stroke-width="13.450" stroke="rgb(33,33,33)" fill="none" stroke-linecap="round"></path><path d="M 110.000,198.188 C 110.000,201.188 110.000,201.188 110.000,204.188" stroke-width="13.688" stroke="rgb(33,33,33)" fill="none" stroke-linecap="round"></path><path d="M 110.000,204.188 C 110.000,206.188 110.000,206.188 110.000,208.188" stroke-width="14.155" stroke="rgb(33,33,33)" fill="none" stroke-linecap="round"></path><path d="M 110.000,208.188 C 110.000,209.188 110.000,209.188 110.000,210.188" stroke-width="14.803" stroke="rgb(33,33,33)" fill="none" stroke-linecap="round"></path><path d="M 140.000,137.188 C 141.000,145.688 141.603,145.652 142.000,154.188" stroke-width="17.811" stroke="rgb(33,33,33)" fill="none" stroke-linecap="round"></path><path d="M 142.000,154.188 C 142.603,167.152 142.530,167.210 142.000,180.188" stroke-width="14.116" stroke="rgb(33,33,33)" fill="none" stroke-linecap="round"></path><path d="M 142.000,180.188 C 141.530,191.710 141.015,191.689 140.000,203.188" stroke-width="12.623" stroke="rgb(33,33,33)" fill="none" stroke-linecap="round"></path><path d="M 140.000,203.188 C 139.515,208.689 139.344,208.680 139.000,214.188" stroke-width="12.489" stroke="rgb(33,33,33)" fill="none" stroke-linecap="round"></path><path d="M 139.000,214.188 C 138.844,216.680 139.000,216.688 139.000,219.188" stroke-width="13.089" stroke="rgb(33,33,33)" fill="none" stroke-linecap="round"></path><path d="M 139.000,219.188 C 139.000,219.688 139.000,220.576 139.000,220.188" stroke-width="13.924" stroke="rgb(33,33,33)" fill="none" stroke-linecap="round"></path><path d="M 139.000,220.188 C 139.000,217.076 138.372,216.115 139.000,212.188" stroke-width="14.356" stroke="rgb(33,33,33)" fill="none" stroke-linecap="round"></path><path d="M 139.000,212.188 C 140.372,203.615 141.459,203.773 143.000,195.188" stroke-width="13.301" stroke="rgb(33,33,33)" fill="none" stroke-linecap="round"></path><path d="M 143.000,195.188 C 144.959,184.273 144.588,184.199 146.000,173.188" stroke-width="11.943" stroke="rgb(33,33,33)" fill="none" stroke-linecap="round"></path><path d="M 146.000,173.188 C 147.088,164.699 146.447,164.573 148.000,156.188" stroke-width="11.520" stroke="rgb(33,33,33)" fill="none" stroke-linecap="round"></path><path d="M 148.000,156.188 C 148.947,151.073 149.142,151.019 151.000,146.188" stroke-width="11.660" stroke="rgb(33,33,33)" fill="none" stroke-linecap="round"></path><path d="M 151.000,146.188 C 151.642,144.519 151.826,144.362 153.000,143.188" stroke-width="12.409" stroke="rgb(33,33,33)" fill="none" stroke-linecap="round"></path><path d="M 153.000,143.188 C 153.326,142.862 153.770,142.773 154.000,143.188" stroke-width="13.353" stroke="rgb(33,33,33)" fill="none" stroke-linecap="round"></path><path d="M 154.000,143.188 C 156.270,147.273 156.545,147.500 158.000,152.188" stroke-width="13.180" stroke="rgb(33,33,33)" fill="none" stroke-linecap="round"></path><path d="M 158.000,152.188 C 161.045,162.000 160.170,162.284 163.000,172.188" stroke-width="12.114" stroke="rgb(33,33,33)" fill="none" stroke-linecap="round"></path><path d="M 163.000,172.188 C 165.170,179.784 165.756,179.613 168.000,187.188" stroke-width="11.821" stroke="rgb(33,33,33)" fill="none" stroke-linecap="round"></path><path d="M 168.000,187.188 C 169.756,193.113 169.226,193.273 171.000,199.188" stroke-width="11.739" stroke="rgb(33,33,33)" fill="none" stroke-linecap="round"></path><path d="M 171.000,199.188 C 172.226,203.273 172.415,203.225 174.000,207.188" stroke-width="11.955" stroke="rgb(33,33,33)" fill="none" stroke-linecap="round"></path><path d="M 174.000,207.188 C 174.415,208.225 174.500,208.188 175.000,209.188" stroke-width="12.827" stroke="rgb(33,33,33)" fill="none" stroke-linecap="round"></path><path d="M 143.000,170.188 C 144.500,173.688 143.113,175.455 146.000,177.188" stroke-width="19.627" stroke="rgb(33,33,33)" fill="none" stroke-linecap="round"></path><path d="M 146.000,177.188 C 150.613,179.955 151.956,178.723 158.000,179.188" stroke-width="17.198" stroke="rgb(33,33,33)" fill="none" stroke-linecap="round"></path><path d="M 158.000,179.188 C 164.956,179.723 165.000,179.188 172.000,179.188" stroke-width="15.497" stroke="rgb(33,33,33)" fill="none" stroke-linecap="round"></path><path d="M 172.000,179.188 C 177.500,179.188 177.522,179.492 183.000,179.188" stroke-width="14.730" stroke="rgb(33,33,33)" fill="none" stroke-linecap="round"></path><path d="M 183.000,179.188 C 186.522,178.992 186.778,179.359 190.000,178.188" stroke-width="14.642" stroke="rgb(33,33,33)" fill="none" stroke-linecap="round"></path><path d="M 193.000,149.188 C 195.000,156.188 196.015,156.045 197.000,163.188" stroke-width="18.511" stroke="rgb(33,33,33)" fill="none" stroke-linecap="round"></path><path d="M 197.000,163.188 C 198.015,170.545 197.000,170.688 197.000,178.188" stroke-width="16.179" stroke="rgb(33,33,33)" fill="none" stroke-linecap="round"></path><path d="M 197.000,178.188 C 197.000,189.688 197.000,189.688 197.000,201.188" stroke-width="13.758" stroke="rgb(33,33,33)" fill="none" stroke-linecap="round"></path><path d="M 197.000,201.188 C 197.000,207.688 197.000,207.688 197.000,214.188" stroke-width="13.231" stroke="rgb(33,33,33)" fill="none" stroke-linecap="round"></path><path d="M 197.000,214.188 C 197.000,217.188 197.000,217.188 197.000,220.188" stroke-width="13.546" stroke="rgb(33,33,33)" fill="none" stroke-linecap="round"></path><path d="M 197.000,220.188 C 197.000,220.688 197.000,221.545 197.000,221.188" stroke-width="14.385" stroke="rgb(33,33,33)" fill="none" stroke-linecap="round"></path><path d="M 197.000,221.188 C 197.000,219.045 197.000,218.188 197.000,215.188" stroke-width="14.862" stroke="rgb(33,33,33)" fill="none" stroke-linecap="round"></path><path d="M 197.000,215.188 C 197.000,205.188 197.000,205.188 197.000,195.188" stroke-width="13.149" stroke="rgb(33,33,33)" fill="none" stroke-linecap="round"></path><path d="M 197.000,195.188 C 197.000,183.188 196.490,183.165 197.000,171.188" stroke-width="11.812" stroke="rgb(33,33,33)" fill="none" stroke-linecap="round"></path><path d="M 197.000,171.188 C 197.490,159.665 197.792,159.665 199.000,148.188" stroke-width="10.987" stroke="rgb(33,33,33)" fill="none" stroke-linecap="round"></path><path d="M 199.000,148.188 C 199.792,140.665 199.268,140.463 201.000,133.188" stroke-width="10.866" stroke="rgb(33,33,33)" fill="none" stroke-linecap="round"></path><path d="M 201.000,133.188 C 201.768,129.963 202.259,129.798 204.000,127.188" stroke-width="11.442" stroke="rgb(33,33,33)" fill="none" stroke-linecap="round"></path><path d="M 204.000,127.188 C 204.259,126.798 204.765,126.796 205.000,127.188" stroke-width="12.436" stroke="rgb(33,33,33)" fill="none" stroke-linecap="round"></path><path d="M 205.000,127.188 C 206.265,129.296 206.322,129.588 207.000,132.188" stroke-width="12.931" stroke="rgb(33,33,33)" fill="none" stroke-linecap="round"></path><path d="M 207.000,132.188 C 209.322,141.088 209.287,141.133 211.000,150.188" stroke-width="12.127" stroke="rgb(33,33,33)" fill="none" stroke-linecap="round"></path><path d="M 211.000,150.188 C 212.787,159.633 212.375,159.709 214.000,169.188" stroke-width="11.492" stroke="rgb(33,33,33)" fill="none" stroke-linecap="round"></path><path d="M 214.000,169.188 C 215.375,177.209 215.236,177.248 217.000,185.188" stroke-width="11.168" stroke="rgb(33,33,33)" fill="none" stroke-linecap="round"></path><path d="M 217.000,185.188 C 218.236,190.748 218.618,190.660 220.000,196.188" stroke-width="11.294" stroke="rgb(33,33,33)" fill="none" stroke-linecap="round"></path><path d="M 220.000,196.188 C 220.618,198.660 220.641,198.674 221.000,201.188" stroke-width="11.974" stroke="rgb(33,33,33)" fill="none" stroke-linecap="round"></path><path d="M 221.000,201.188 C 221.141,202.174 221.000,202.188 221.000,203.188" stroke-width="12.834" stroke="rgb(33,33,33)" fill="none" stroke-linecap="round"></path><path d="M 221.000,203.188 C 221.000,203.688 221.000,204.354 221.000,204.188" stroke-width="13.737" stroke="rgb(33,33,33)" fill="none" stroke-linecap="round"></path><path d="M 221.000,204.188 C 221.000,203.854 221.124,203.179 221.000,202.188" stroke-width="14.436" stroke="rgb(33,33,33)" fill="none" stroke-linecap="round"></path><path d="M 221.000,202.188 C 220.124,195.179 220.602,195.051 219.000,188.188" stroke-width="13.688" stroke="rgb(33,33,33)" fill="none" stroke-linecap="round"></path><path d="M 219.000,188.188 C 217.102,180.051 216.857,180.044 214.000,172.188" stroke-width="12.477" stroke="rgb(33,33,33)" fill="none" stroke-linecap="round"></path><path d="M 214.000,172.188 C 212.857,169.044 213.168,168.355 211.000,166.188" stroke-width="12.874" stroke="rgb(33,33,33)" fill="none" stroke-linecap="round"></path><path d="M 211.000,166.188 C 209.668,164.855 209.020,165.524 207.000,165.188" stroke-width="13.412" stroke="rgb(33,33,33)" fill="none" stroke-linecap="round"></path><path d="M 207.000,165.188 C 206.020,165.024 206.000,165.188 205.000,165.188" stroke-width="14.132" stroke="rgb(33,33,33)" fill="none" stroke-linecap="round"></path><path d="M 205.000,165.188 C 204.000,165.188 203.333,164.521 203.000,165.188" stroke-width="14.797" stroke="rgb(33,33,33)" fill="none" stroke-linecap="round"></path><path d="M 203.000,165.188 C 202.333,166.521 203.000,167.188 203.000,169.188" stroke-width="15.058" stroke="rgb(33,33,33)" fill="none" stroke-linecap="round"></path><path d="M 203.000,169.188 C 203.000,170.688 202.073,171.260 203.000,172.188" stroke-width="15.444" stroke="rgb(33,33,33)" fill="none" stroke-linecap="round"></path><path d="M 203.000,172.188 C 205.073,174.260 205.807,174.503 209.000,175.188" stroke-width="15.250" stroke="rgb(33,33,33)" fill="none" stroke-linecap="round"></path><path d="M 209.000,175.188 C 212.807,176.003 213.318,176.239 217.000,175.188" stroke-width="14.865" stroke="rgb(33,33,33)" fill="none" stroke-linecap="round"></path><path d="M 217.000,175.188 C 220.318,174.239 220.352,173.571 223.000,171.188" stroke-width="14.731" stroke="rgb(33,33,33)" fill="none" stroke-linecap="round"></path><path d="M 223.000,171.188 C 225.352,169.071 224.761,168.427 227.000,166.188" stroke-width="14.727" stroke="rgb(33,33,33)" fill="none" stroke-linecap="round"></path><path d="M 227.000,166.188 C 228.261,164.927 228.392,164.831 230.000,164.188" stroke-width="15.054" stroke="rgb(33,33,33)" fill="none" stroke-linecap="round"></path><path d="M 230.000,164.188 C 230.892,163.831 231.382,163.569 232.000,164.188" stroke-width="15.581" stroke="rgb(33,33,33)" fill="none" stroke-linecap="round"></path><path d="M 232.000,164.188 C 233.382,165.569 233.429,166.045 234.000,168.188" stroke-width="15.670" stroke="rgb(33,33,33)" fill="none" stroke-linecap="round"></path><path d="M 234.000,168.188 C 235.429,173.545 234.849,173.720 236.000,179.188" stroke-width="15.108" stroke="rgb(33,33,33)" fill="none" stroke-linecap="round"></path><path d="M 236.000,179.188 C 236.849,183.220 236.703,183.297 238.000,187.188" stroke-width="14.365" stroke="rgb(33,33,33)" fill="none" stroke-linecap="round"></path><path d="M 238.000,187.188 C 238.703,189.297 239.121,189.137 240.000,191.188" stroke-width="14.670" stroke="rgb(33,33,33)" fill="none" stroke-linecap="round"></path><path d="M 240.000,191.188 C 240.621,192.637 240.081,193.269 241.000,194.188" stroke-width="15.069" stroke="rgb(33,33,33)" fill="none" stroke-linecap="round"></path><path d="M 241.000,194.188 C 241.581,194.769 242.526,194.946 243.000,194.188" stroke-width="15.594" stroke="rgb(33,33,33)" fill="none" stroke-linecap="round"></path><path d="M 243.000,194.188 C 245.026,190.946 244.540,190.202 246.000,186.188" stroke-width="15.119" stroke="rgb(33,33,33)" fill="none" stroke-linecap="round"></path><path d="M 246.000,186.188 C 248.540,179.202 248.431,179.161 251.000,172.188" stroke-width="14.000" stroke="rgb(33,33,33)" fill="none" stroke-linecap="round"></path><path d="M 251.000,172.188 C 251.931,169.661 252.157,169.718 253.000,167.188" stroke-width="14.216" stroke="rgb(33,33,33)" fill="none" stroke-linecap="round"></path><path d="M 253.000,167.188 C 253.157,166.718 252.750,166.438 253.000,166.188" stroke-width="14.985" stroke="rgb(33,33,33)" fill="none" stroke-linecap="round"></path><path d="M 253.000,166.188 C 253.250,165.938 253.760,165.827 254.000,166.188" stroke-width="15.655" stroke="rgb(33,33,33)" fill="none" stroke-linecap="round"></path><path d="M 254.000,166.188 C 254.760,167.327 254.566,167.668 255.000,169.188" stroke-width="16.155" stroke="rgb(33,33,33)" fill="none" stroke-linecap="round"></path><path d="M 255.000,169.188 C 255.566,171.168 255.200,171.320 256.000,173.188" stroke-width="16.145" stroke="rgb(33,33,33)" fill="none" stroke-linecap="round"></path><path d="M 256.000,173.188 C 256.700,174.820 256.635,175.369 258.000,176.188" stroke-width="16.285" stroke="rgb(33,33,33)" fill="none" stroke-linecap="round"></path><path d="M 258.000,176.188 C 259.135,176.869 259.500,176.188 261.000,176.188" stroke-width="16.433" stroke="rgb(33,33,33)" fill="none" stroke-linecap="round"></path><path d="M 284.000,152.188 C 288.000,151.688 289.992,149.431 292.000,151.188" stroke-width="19.023" stroke="rgb(33,33,33)" fill="none" stroke-linecap="round"></path><path d="M 292.000,151.188 C 293.992,152.931 292.000,155.188 292.000,159.188" stroke-width="17.675" stroke="rgb(33,33,33)" fill="none" stroke-linecap="round"></path><path d="M 292.000,159.188 C 292.000,163.188 292.000,163.188 292.000,167.188" stroke-width="16.799" stroke="rgb(33,33,33)" fill="none" stroke-linecap="round"></path><path d="M 292.000,167.188 C 292.000,170.188 292.000,170.188 292.000,173.188" stroke-width="16.397" stroke="rgb(33,33,33)" fill="none" stroke-linecap="round"></path><path d="M 292.000,173.188 C 292.000,175.188 292.000,175.188 292.000,177.188" stroke-width="16.357" stroke="rgb(33,33,33)" fill="none" stroke-linecap="round"></path><path d="M 292.000,177.188 C 292.000,177.688 291.667,178.021 292.000,178.188" stroke-width="16.845" stroke="rgb(33,33,33)" fill="none" stroke-linecap="round"></path><path d="M 292.000,178.188 C 292.667,178.521 293.565,178.971 294.000,178.188" stroke-width="17.085" stroke="rgb(33,33,33)" fill="none" stroke-linecap="round"></path><path d="M 294.000,178.188 C 296.065,174.471 295.422,173.660 297.000,169.188" stroke-width="16.074" stroke="rgb(33,33,33)" fill="none" stroke-linecap="round"></path><path d="M 297.000,169.188 C 298.422,165.160 298.217,165.051 300.000,161.188" stroke-width="15.403" stroke="rgb(33,33,33)" fill="none" stroke-linecap="round"></path><path d="M 300.000,161.188 C 301.217,158.551 301.801,155.948 303.000,156.188" stroke-width="15.382" stroke="rgb(33,33,33)" fill="none" stroke-linecap="round"></path><path d="M 303.000,156.188 C 304.301,156.448 303.416,159.548 305.000,162.188" stroke-width="15.826" stroke="rgb(33,33,33)" fill="none" stroke-linecap="round"></path><path d="M 305.000,162.188 C 306.416,164.548 306.766,164.512 309.000,166.188" stroke-width="15.740" stroke="rgb(33,33,33)" fill="none" stroke-linecap="round"></path><path d="M 309.000,166.188 C 310.766,167.512 310.905,167.589 313.000,168.188" stroke-width="15.798" stroke="rgb(33,33,33)" fill="none" stroke-linecap="round"></path><path d="M 313.000,168.188 C 314.405,168.589 314.540,168.431 316.000,168.188" stroke-width="16.034" stroke="rgb(33,33,33)" fill="none" stroke-linecap="round"></path><path d="M 316.000,168.188 C 317.540,167.931 318.408,168.489 319.000,167.188" stroke-width="16.201" stroke="rgb(33,33,33)" fill="none" stroke-linecap="round"></path><path d="M 319.000,167.188 C 320.908,162.989 320.072,162.201 321.000,157.188" stroke-width="15.256" stroke="rgb(33,33,33)" fill="none" stroke-linecap="round"></path><path d="M 321.000,157.188 C 322.572,148.701 322.242,148.628 324.000,140.188" stroke-width="13.823" stroke="rgb(33,33,33)" fill="none" stroke-linecap="round"></path><path d="M 324.000,140.188 C 324.742,136.628 324.681,136.265 326.000,133.188" stroke-width="13.841" stroke="rgb(33,33,33)" fill="none" stroke-linecap="round"></path><path d="M 326.000,133.188 C 326.181,132.765 326.923,132.727 327.000,133.188" stroke-width="14.651" stroke="rgb(33,33,33)" fill="none" stroke-linecap="round"></path><path d="M 327.000,133.188 C 327.923,138.727 327.684,139.176 328.000,145.188" stroke-width="13.906" stroke="rgb(33,33,33)" fill="none" stroke-linecap="round"></path><path d="M 328.000,145.188 C 328.684,158.176 328.022,158.223 329.000,171.188" stroke-width="12.242" stroke="rgb(33,33,33)" fill="none" stroke-linecap="round"></path><path d="M 329.000,171.188 C 330.022,184.723 329.579,184.873 332.000,198.188" stroke-width="10.870" stroke="rgb(33,33,33)" fill="none" stroke-linecap="round"></path><path d="M 332.000,198.188 C 333.579,206.873 334.612,206.657 337.000,215.188" stroke-width="10.665" stroke="rgb(33,33,33)" fill="none" stroke-linecap="round"></path><path d="M 337.000,215.188 C 338.112,219.157 338.267,219.155 339.000,223.188" stroke-width="11.114" stroke="rgb(33,33,33)" fill="none" stroke-linecap="round"></path><path d="M 339.000,223.188 C 339.267,224.655 339.681,225.052 339.000,226.188" stroke-width="11.961" stroke="rgb(33,33,33)" fill="none" stroke-linecap="round"></path><path d="M 339.000,226.188 C 338.181,227.552 337.757,228.035 336.000,228.188" stroke-width="12.682" stroke="rgb(33,33,33)" fill="none" stroke-linecap="round"></path><path d="M 336.000,228.188 C 326.257,229.035 325.897,227.112 316.000,228.188" stroke-width="11.823" stroke="rgb(33,33,33)" fill="none" stroke-linecap="round"></path><path d="M 316.000,228.188 C 302.897,229.612 302.981,230.591 290.000,233.188" stroke-width="10.652" stroke="rgb(33,33,33)" fill="none" stroke-linecap="round"></path><path d="M 290.000,233.188 C 280.481,235.091 280.571,235.867 271.000,237.188" stroke-width="10.388" stroke="rgb(33,33,33)" fill="none" stroke-linecap="round"></path><path d="M 271.000,237.188 C 266.071,237.867 265.819,237.626 261.000,237.188" stroke-width="10.826" stroke="rgb(33,33,33)" fill="none" stroke-linecap="round"></path><path d="M 261.000,237.188 C 260.319,237.126 259.522,236.529 260.000,236.188" stroke-width="11.805" stroke="rgb(33,33,33)" fill="none" stroke-linecap="round"></path></svg>