<svg xmlns="http://www.w3.org/2000/svg" xmlns:xlink="http://www.w3.org/1999/xlink" viewBox="0 0 360 500"><path d="M 103.000,237.000 C 105.354,242.406 105.615,242.312 107.708,247.811" stroke-width="19.926" stroke="rgb(33,33,33)" fill="none" stroke-linecap="round"></path><path d="M 107.708,247.811 C 108.863,250.846 108.611,250.937 109.497,254.068" stroke-width="18.192" stroke="rgb(33,33,33)" fill="none" stroke-linecap="round"></path><path d="M 109.497,254.068 C 110.143,256.348 110.152,256.345 110.772,258.632" stroke-width="17.990" stroke="rgb(33,33,33)" fill="none" stroke-linecap="round"></path><path d="M 110.772,258.632 C 111.359,260.799 111.345,260.803 111.911,262.976" stroke-width="17.508" stroke="rgb(33,33,33)" fill="none" stroke-linecap="round"></path><path d="M 111.911,262.976 C 112.441,265.007 112.422,265.012 112.964,267.040" stroke-width="17.511" stroke="rgb(33,33,33)" fill="none" stroke-linecap="round"></path><path d="M 112.964,267.040 C 113.380,268.598 113.403,268.592 113.827,270.148" stroke-width="17.336" stroke="rgb(33,33,33)" fill="none" stroke-linecap="round"></path><path d="M 70.000,250.000 C 73.513,247.380 73.575,247.460 77.025,244.761" stroke-width="19.805" stroke="rgb(33,33,33)" fill="none" stroke-linecap="round"></path><path d="M 77.025,244.761 C 80.236,242.249 80.166,242.160 83.322,239.577" stroke-width="18.081" stroke="rgb(33,33,33)" fill="none" stroke-linecap="round"></path><path d="M 83.322,239.577 C 86.824,236.710 86.754,236.618 90.340,233.861" stroke-width="16.924" stroke="rgb(33,33,33)" fill="none" stroke-linecap="round"></path><path d="M 90.340,233.861 C 93.461,231.461 93.544,231.570 96.737,229.263" stroke-width="16.127" stroke="rgb(33,33,33)" fill="none" stroke-linecap="round"></path><path d="M 96.737,229.263 C 99.138,227.528 99.214,227.625 101.527,225.778" stroke-width="16.521" stroke="rgb(33,33,33)" fill="none" stroke-linecap="round"></path><path d="M 101.527,225.778 C 105.012,222.994 104.860,222.801 108.332,220.001" stroke-width="13.170" stroke="rgb(33,33,33)" fill="none" stroke-linecap="round"></path><path d="M 108.332,220.001 C 110.174,218.516 110.232,218.589 112.155,217.209" stroke-width="12.936" stroke="rgb(33,33,33)" fill="none" stroke-linecap="round"></path><path d="M 112.155,217.209 C 113.870,215.978 113.883,215.997 115.608,214.780" stroke-width="13.585" stroke="rgb(33,33,33)" fill="none" stroke-linecap="round"></path><path d="M 115.608,214.780 C 116.794,213.943 116.802,213.954 117.977,213.101" stroke-width="14.245" stroke="rgb(33,33,33)" fill="none" stroke-linecap="round"></path><path d="M 117.977,213.101 C 119.945,211.674 119.925,211.646 121.894,210.220" stroke-width="14.731" stroke="rgb(33,33,33)" fill="none" stroke-linecap="round"></path><path d="M 139.667,247.333 C 141.413,253.385 141.441,253.378 143.158,259.438" stroke-width="19.792" stroke="rgb(33,33,33)" fill="none" stroke-linecap="round"></path><path d="M 143.158,259.438 C 143.503,260.657 143.447,260.673 143.792,261.891" stroke-width="18.718" stroke="rgb(33,33,33)" fill="none" stroke-linecap="round"></path><path d="M 143.792,261.891 C 144.121,263.054 144.151,263.045 144.507,264.201" stroke-width="18.181" stroke="rgb(33,33,33)" fill="none" stroke-linecap="round"></path><path d="M 144.507,264.201 C 144.769,265.051 144.770,265.050 145.027,265.902" stroke-width="18.189" stroke="rgb(33,33,33)" fill="none" stroke-linecap="round"></path><path d="M 145.027,265.902 C 145.266,266.695 145.300,266.686 145.498,267.490" stroke-width="18.221" stroke="rgb(33,33,33)" fill="none" stroke-linecap="round"></path><circle r="6" cx="142" cy="229" fill="rgb(33,33,33)"></circle><path d="M 194.333,235.667 C 190.141,236.672 190.149,236.703 185.950,237.677" stroke-width="19.963" stroke="rgb(33,33,33)" fill="none" stroke-linecap="round"></path><path d="M 185.950,237.677 C 182.152,238.558 182.124,238.453 178.340,239.379" stroke-width="18.517" stroke="rgb(33,33,33)" fill="none" stroke-linecap="round"></path><path d="M 178.340,239.379 C 177.360,239.619 177.372,239.670 176.422,240.009" stroke-width="17.730" stroke="rgb(33,33,33)" fill="none" stroke-linecap="round"></path><path d="M 176.422,240.009 C 174.874,240.562 174.856,240.522 173.344,241.163" stroke-width="17.605" stroke="rgb(33,33,33)" fill="none" stroke-linecap="round"></path><path d="M 173.344,241.163 C 171.231,242.058 171.130,241.908 169.171,243.081" stroke-width="17.503" stroke="rgb(33,33,33)" fill="none" stroke-linecap="round"></path><path d="M 169.171,243.081 C 167.175,244.276 167.165,244.344 165.435,245.898" stroke-width="16.983" stroke="rgb(33,33,33)" fill="none" stroke-linecap="round"></path><path d="M 165.435,245.898 C 164.391,246.836 164.182,246.790 163.623,248.065" stroke-width="17.198" stroke="rgb(33,33,33)" fill="none" stroke-linecap="round"></path><path d="M 163.623,248.065 C 162.059,251.631 161.421,251.792 161.188,255.581" stroke-width="17.384" stroke="rgb(33,33,33)" fill="none" stroke-linecap="round"></path><path d="M 161.188,255.581 C 160.999,258.650 161.196,259.277 162.779,261.779" stroke-width="15.403" stroke="rgb(33,33,33)" fill="none" stroke-linecap="round"></path><path d="M 162.779,261.779 C 163.832,263.442 164.532,263.038 166.460,263.911" stroke-width="15.476" stroke="rgb(33,33,33)" fill="none" stroke-linecap="round"></path><path d="M 166.460,263.911 C 168.437,264.807 168.480,264.877 170.589,265.318" stroke-width="15.762" stroke="rgb(33,33,33)" fill="none" stroke-linecap="round"></path><path d="M 170.589,265.318 C 171.885,265.588 171.935,265.415 173.269,265.333" stroke-width="16.199" stroke="rgb(33,33,33)" fill="none" stroke-linecap="round"></path><path d="M 173.269,265.333 C 174.465,265.259 174.635,265.585 175.649,265.006" stroke-width="16.644" stroke="rgb(33,33,33)" fill="none" stroke-linecap="round"></path><path d="M 175.649,265.006 C 178.204,263.548 178.307,263.402 180.407,261.259" stroke-width="16.547" stroke="rgb(33,33,33)" fill="none" stroke-linecap="round"></path><path d="M 180.407,261.259 C 182.279,259.349 182.206,259.208 183.593,256.901" stroke-width="16.760" stroke="rgb(33,33,33)" fill="none" stroke-linecap="round"></path><path d="M 183.593,256.901 C 185.720,253.361 185.588,253.268 187.435,249.565" stroke-width="17.059" stroke="rgb(33,33,33)" fill="none" stroke-linecap="round"></path><path d="M 187.435,249.565 C 187.958,248.517 187.755,248.366 188.333,247.399" stroke-width="17.362" stroke="rgb(33,33,33)" fill="none" stroke-linecap="round"></path><path d="M 188.333,247.399 C 188.499,247.121 188.637,247.249 188.924,247.077" stroke-width="17.760" stroke="rgb(33,33,33)" fill="none" stroke-linecap="round"></path><path d="M 188.924,247.077 C 188.970,247.049 188.948,247.004 189.000,247.000" stroke-width="18.186" stroke="rgb(33,33,33)" fill="none" stroke-linecap="round"></path><path d="M 189.000,247.000 C 189.486,246.965 189.520,246.873 190.000,247.000" stroke-width="18.418" stroke="rgb(33,33,33)" fill="none" stroke-linecap="round"></path><path d="M 190.000,247.000 C 192.714,247.720 192.735,247.737 195.388,248.694" stroke-width="17.727" stroke="rgb(33,33,33)" fill="none" stroke-linecap="round"></path><path d="M 195.388,248.694 C 196.997,249.275 196.969,249.356 198.523,250.076" stroke-width="17.415" stroke="rgb(33,33,33)" fill="none" stroke-linecap="round"></path><path d="M 198.523,250.076 C 199.496,250.527 199.451,250.625 200.441,251.036" stroke-width="17.718" stroke="rgb(33,33,33)" fill="none" stroke-linecap="round"></path><path d="M 200.441,251.036 C 203.402,252.265 203.400,252.295 206.425,253.356" stroke-width="17.183" stroke="rgb(33,33,33)" fill="none" stroke-linecap="round"></path><path d="M 206.425,253.356 C 208.317,254.020 208.316,254.075 210.275,254.486" stroke-width="17.315" stroke="rgb(33,33,33)" fill="none" stroke-linecap="round"></path><path d="M 210.275,254.486 C 213.023,255.063 213.050,255.008 215.839,255.333" stroke-width="17.555" stroke="rgb(33,33,33)" fill="none" stroke-linecap="round"></path><path d="M 215.839,255.333 C 216.687,255.432 216.694,255.333 217.549,255.333" stroke-width="17.841" stroke="rgb(33,33,33)" fill="none" stroke-linecap="round"></path><path d="M 217.549,255.333 C 218.243,255.333 218.243,255.333 218.937,255.333" stroke-width="18.038" stroke="rgb(33,33,33)" fill="none" stroke-linecap="round"></path><path d="M 256.000,230.000 C 249.936,231.355 249.865,231.129 243.871,232.710" stroke-width="19.904" stroke="rgb(33,33,33)" fill="none" stroke-linecap="round"></path><path d="M 243.871,232.710 C 242.102,233.177 242.186,233.439 240.474,234.096" stroke-width="18.315" stroke="rgb(33,33,33)" fill="none" stroke-linecap="round"></path><path d="M 240.474,234.096 C 239.113,234.618 239.115,234.634 237.725,235.069" stroke-width="18.130" stroke="rgb(33,33,33)" fill="none" stroke-linecap="round"></path><path d="M 237.725,235.069 C 236.839,235.346 236.750,235.108 235.922,235.520" stroke-width="18.311" stroke="rgb(33,33,33)" fill="none" stroke-linecap="round"></path><path d="M 235.922,235.520 C 232.310,237.318 231.701,236.754 228.845,239.488" stroke-width="18.248" stroke="rgb(33,33,33)" fill="none" stroke-linecap="round"></path><path d="M 228.845,239.488 C 225.267,242.914 225.410,243.439 223.053,247.840" stroke-width="16.554" stroke="rgb(33,33,33)" fill="none" stroke-linecap="round"></path><path d="M 223.053,247.840 C 222.159,249.509 222.546,249.720 222.343,251.629" stroke-width="16.759" stroke="rgb(33,33,33)" fill="none" stroke-linecap="round"></path><path d="M 222.343,251.629 C 222.186,253.111 222.127,253.165 222.333,254.621" stroke-width="16.744" stroke="rgb(33,33,33)" fill="none" stroke-linecap="round"></path><path d="M 222.333,254.621 C 222.461,255.522 222.275,255.839 223.011,256.344" stroke-width="17.212" stroke="rgb(33,33,33)" fill="none" stroke-linecap="round"></path><path d="M 223.011,256.344 C 226.485,258.730 226.724,259.040 230.753,260.403" stroke-width="16.482" stroke="rgb(33,33,33)" fill="none" stroke-linecap="round"></path><path d="M 230.753,260.403 C 232.618,261.034 232.832,260.676 234.798,260.333" stroke-width="16.553" stroke="rgb(33,33,33)" fill="none" stroke-linecap="round"></path><path d="M 234.798,260.333 C 236.587,260.021 236.673,259.991 238.263,259.095" stroke-width="16.870" stroke="rgb(33,33,33)" fill="none" stroke-linecap="round"></path><path d="M 238.263,259.095 C 241.102,257.496 241.274,257.544 243.657,255.343" stroke-width="17.033" stroke="rgb(33,33,33)" fill="none" stroke-linecap="round"></path><path d="M 243.657,255.343 C 245.462,253.677 245.270,253.433 246.639,251.361" stroke-width="17.130" stroke="rgb(33,33,33)" fill="none" stroke-linecap="round"></path><path d="M 246.639,251.361 C 248.108,249.138 247.944,249.030 249.333,246.753" stroke-width="17.449" stroke="rgb(33,33,33)" fill="none" stroke-linecap="round"></path><path d="M 249.333,246.753 C 249.769,246.039 249.783,246.042 250.289,245.378" stroke-width="17.099" stroke="rgb(33,33,33)" fill="none" stroke-linecap="round"></path><path d="M 250.289,245.378 C 250.455,245.160 250.454,245.108 250.678,244.989" stroke-width="17.519" stroke="rgb(33,33,33)" fill="none" stroke-linecap="round"></path><path d="M 250.678,244.989 C 250.809,244.919 250.972,244.853 251.000,245.000" stroke-width="17.931" stroke="rgb(33,33,33)" fill="none" stroke-linecap="round"></path><path d="M 251.000,245.000 C 251.300,246.599 251.272,246.735 251.333,248.481" stroke-width="18.034" stroke="rgb(33,33,33)" fill="none" stroke-linecap="round"></path><path d="M 251.333,248.481 C 251.438,251.499 251.333,251.505 251.333,254.528" stroke-width="17.093" stroke="rgb(33,33,33)" fill="none" stroke-linecap="round"></path><path d="M 251.333,254.528 C 251.333,257.641 251.333,257.641 251.333,260.753" stroke-width="16.453" stroke="rgb(33,33,33)" fill="none" stroke-linecap="round"></path><path d="M 251.333,260.753 C 251.333,263.536 251.333,263.536 251.333,266.320" stroke-width="16.246" stroke="rgb(33,33,33)" fill="none" stroke-linecap="round"></path><path d="M 251.333,266.320 C 251.333,268.895 251.385,268.896 251.333,271.469" stroke-width="16.052" stroke="rgb(33,33,33)" fill="none" stroke-linecap="round"></path><path d="M 251.333,271.469 C 251.285,273.838 251.275,273.839 251.133,276.204" stroke-width="16.217" stroke="rgb(33,33,33)" fill="none" stroke-linecap="round"></path><path d="M 251.133,276.204 C 250.987,278.627 251.058,278.637 250.756,281.045" stroke-width="16.232" stroke="rgb(33,33,33)" fill="none" stroke-linecap="round"></path><path d="M 250.756,281.045 C 250.058,286.603 250.238,286.651 249.133,292.136" stroke-width="16.147" stroke="rgb(33,33,33)" fill="none" stroke-linecap="round"></path><path d="M 249.133,292.136 C 248.194,296.793 248.457,296.957 246.668,301.329" stroke-width="16.102" stroke="rgb(33,33,33)" fill="none" stroke-linecap="round"></path><path d="M 246.668,301.329 C 244.745,306.027 244.650,306.149 241.710,310.276" stroke-width="16.152" stroke="rgb(33,33,33)" fill="none" stroke-linecap="round"></path><path d="M 241.710,310.276 C 239.694,313.106 239.450,313.016 236.756,315.244" stroke-width="16.550" stroke="rgb(33,33,33)" fill="none" stroke-linecap="round"></path><path d="M 236.756,315.244 C 233.024,318.330 232.932,318.301 228.857,320.905" stroke-width="16.189" stroke="rgb(33,33,33)" fill="none" stroke-linecap="round"></path><path d="M 228.857,320.905 C 227.660,321.670 227.565,321.534 226.213,321.982" stroke-width="16.406" stroke="rgb(33,33,33)" fill="none" stroke-linecap="round"></path><path d="M 226.213,321.982 C 224.677,322.491 224.680,322.622 223.081,322.820" stroke-width="16.601" stroke="rgb(33,33,33)" fill="none" stroke-linecap="round"></path><path d="M 223.081,322.820 C 220.574,323.131 220.487,323.350 218.000,323.000" stroke-width="16.597" stroke="rgb(33,33,33)" fill="none" stroke-linecap="round"></path><path d="M 218.000,323.000 C 214.797,322.550 214.675,322.517 211.700,321.220" stroke-width="16.673" stroke="rgb(33,33,33)" fill="none" stroke-linecap="round"></path><path d="M 211.700,321.220 C 208.472,319.814 208.388,319.726 205.594,317.594" stroke-width="16.749" stroke="rgb(33,33,33)" fill="none" stroke-linecap="round"></path><path d="M 205.594,317.594 C 203.752,316.188 203.534,316.171 202.429,314.144" stroke-width="16.999" stroke="rgb(33,33,33)" fill="none" stroke-linecap="round"></path><path d="M 202.429,314.144 C 200.071,309.818 199.495,309.604 198.667,304.887" stroke-width="17.161" stroke="rgb(33,33,33)" fill="none" stroke-linecap="round"></path><path d="M 198.667,304.887 C 198.211,302.290 198.837,302.022 199.860,299.517" stroke-width="16.991" stroke="rgb(33,33,33)" fill="none" stroke-linecap="round"></path><path d="M 199.860,299.517 C 200.756,297.324 200.909,297.278 202.505,295.492" stroke-width="16.884" stroke="rgb(33,33,33)" fill="none" stroke-linecap="round"></path><path d="M 202.505,295.492 C 205.788,291.818 205.790,291.718 209.618,288.596" stroke-width="16.629" stroke="rgb(33,33,33)" fill="none" stroke-linecap="round"></path><path d="M 209.618,288.596 C 214.621,284.514 214.823,284.735 220.167,281.083" stroke-width="15.943" stroke="rgb(33,33,33)" fill="none" stroke-linecap="round"></path><path d="M 220.167,281.083 C 222.218,279.681 222.278,279.771 224.407,278.489" stroke-width="15.888" stroke="rgb(33,33,33)" fill="none" stroke-linecap="round"></path><path d="M 224.407,278.489 C 226.085,277.478 226.123,277.540 227.781,276.497" stroke-width="16.170" stroke="rgb(33,33,33)" fill="none" stroke-linecap="round"></path><path d="M 227.781,276.497 C 230.780,274.609 230.698,274.474 233.721,272.626" stroke-width="16.190" stroke="rgb(33,33,33)" fill="none" stroke-linecap="round"></path><path d="M 233.721,272.626 C 236.343,271.023 236.458,271.204 239.071,269.595" stroke-width="16.400" stroke="rgb(33,33,33)" fill="none" stroke-linecap="round"></path><path d="M 239.071,269.595 C 239.999,269.024 239.878,268.841 240.803,268.265" stroke-width="16.707" stroke="rgb(33,33,33)" fill="none" stroke-linecap="round"></path><path d="M 240.803,268.265 C 242.686,267.092 242.811,267.277 244.687,266.098" stroke-width="16.885" stroke="rgb(33,33,33)" fill="none" stroke-linecap="round"></path><path d="M 244.687,266.098 C 245.409,265.644 245.275,265.420 246.000,265.000" stroke-width="17.234" stroke="rgb(33,33,33)" fill="none" stroke-linecap="round"></path><path d="M 246.000,265.000 C 246.510,264.705 246.603,264.897 247.157,264.667" stroke-width="17.643" stroke="rgb(33,33,33)" fill="none" stroke-linecap="round"></path><path d="M 247.157,264.667 C 248.207,264.231 248.163,264.117 249.209,263.667" stroke-width="18.001" stroke="rgb(33,33,33)" fill="none" stroke-linecap="round"></path><path d="M 249.209,263.667 C 249.712,263.450 249.741,263.524 250.254,263.333" stroke-width="17.704" stroke="rgb(33,33,33)" fill="none" stroke-linecap="round"></path><path d="M 250.254,263.333 C 250.636,263.191 250.631,263.175 251.000,263.000" stroke-width="17.996" stroke="rgb(33,33,33)" fill="none" stroke-linecap="round"></path><path d="M 251.000,263.000 C 251.342,262.838 251.325,262.775 251.675,262.658" stroke-width="18.266" stroke="rgb(33,33,33)" fill="none" stroke-linecap="round"></path><path d="M 284.333,226.333 C 282.006,230.984 281.925,230.947 279.679,235.636" stroke-width="19.951" stroke="rgb(33,33,33)" fill="none" stroke-linecap="round"></path><path d="M 279.679,235.636 C 278.984,237.087 279.034,237.112 278.452,238.611" stroke-width="18.344" stroke="rgb(33,33,33)" fill="none" stroke-linecap="round"></path><path d="M 278.452,238.611 C 278.037,239.678 278.085,239.696 277.685,240.769" stroke-width="17.757" stroke="rgb(33,33,33)" fill="none" stroke-linecap="round"></path><path d="M 277.685,240.769 C 277.244,241.954 277.194,241.936 276.770,243.127" stroke-width="17.731" stroke="rgb(33,33,33)" fill="none" stroke-linecap="round"></path><path d="M 276.770,243.127 C 276.001,245.287 275.966,245.278 275.299,247.471" stroke-width="17.464" stroke="rgb(33,33,33)" fill="none" stroke-linecap="round"></path><path d="M 275.299,247.471 C 274.418,250.367 274.319,250.353 273.674,253.306" stroke-width="16.828" stroke="rgb(33,33,33)" fill="none" stroke-linecap="round"></path><path d="M 273.674,253.306 C 273.169,255.618 273.183,255.642 273.000,258.000" stroke-width="17.143" stroke="rgb(33,33,33)" fill="none" stroke-linecap="round"></path><path d="M 273.000,258.000 C 272.846,259.989 272.416,260.234 273.000,262.000" stroke-width="17.522" stroke="rgb(33,33,33)" fill="none" stroke-linecap="round"></path><path d="M 273.000,262.000 C 273.428,263.294 273.804,263.494 275.024,264.119" stroke-width="17.654" stroke="rgb(33,33,33)" fill="none" stroke-linecap="round"></path><path d="M 275.024,264.119 C 276.081,264.660 276.287,264.322 277.553,264.333" stroke-width="17.672" stroke="rgb(33,33,33)" fill="none" stroke-linecap="round"></path><path d="M 277.553,264.333 C 279.346,264.349 279.395,264.495 281.142,264.172" stroke-width="17.595" stroke="rgb(33,33,33)" fill="none" stroke-linecap="round"></path><path d="M 281.142,264.172 C 282.660,263.891 282.704,263.842 284.083,263.125" stroke-width="17.602" stroke="rgb(33,33,33)" fill="none" stroke-linecap="round"></path><path d="M 284.083,263.125 C 287.091,261.562 287.272,261.725 289.915,259.612" stroke-width="17.684" stroke="rgb(33,33,33)" fill="none" stroke-linecap="round"></path><path d="M 289.915,259.612 C 293.734,256.559 293.620,256.347 297.006,252.793" stroke-width="13.414" stroke="rgb(33,33,33)" fill="none" stroke-linecap="round"></path><path d="M 297.006,252.793 C 298.618,251.101 298.567,251.031 299.911,249.119" stroke-width="13.685" stroke="rgb(33,33,33)" fill="none" stroke-linecap="round"></path><path d="M 299.911,249.119 C 301.026,247.531 300.908,247.450 301.924,245.793" stroke-width="14.165" stroke="rgb(33,33,33)" fill="none" stroke-linecap="round"></path><path d="M 301.924,245.793 C 302.775,244.405 303.021,244.519 303.645,243.028" stroke-width="14.823" stroke="rgb(33,33,33)" fill="none" stroke-linecap="round"></path><path d="M 303.645,243.028 C 304.731,240.432 304.595,240.347 305.345,237.619" stroke-width="15.035" stroke="rgb(33,33,33)" fill="none" stroke-linecap="round"></path><path d="M 305.345,237.619 C 305.613,236.644 305.614,236.628 305.682,235.621" stroke-width="15.577" stroke="rgb(33,33,33)" fill="none" stroke-linecap="round"></path><path d="M 305.682,235.621 C 305.775,234.245 305.672,234.237 305.667,232.852" stroke-width="15.935" stroke="rgb(33,33,33)" fill="none" stroke-linecap="round"></path><path d="M 305.667,232.852 C 305.664,231.958 305.780,231.943 305.667,231.064" stroke-width="16.434" stroke="rgb(33,33,33)" fill="none" stroke-linecap="round"></path><path d="M 305.667,231.064 C 305.562,230.247 305.665,230.155 305.230,229.460" stroke-width="16.996" stroke="rgb(33,33,33)" fill="none" stroke-linecap="round"></path><path d="M 305.230,229.460 C 303.940,227.399 303.963,227.253 302.218,225.552" stroke-width="16.840" stroke="rgb(33,33,33)" fill="none" stroke-linecap="round"></path><path d="M 302.218,225.552 C 300.761,224.132 300.618,224.221 298.825,223.217" stroke-width="16.830" stroke="rgb(33,33,33)" fill="none" stroke-linecap="round"></path><path d="M 298.825,223.217 C 295.140,221.155 295.076,221.248 291.262,219.421" stroke-width="17.095" stroke="rgb(33,33,33)" fill="none" stroke-linecap="round"></path><path d="M 291.262,219.421 C 289.693,218.669 289.646,218.769 288.058,218.058" stroke-width="16.723" stroke="rgb(33,33,33)" fill="none" stroke-linecap="round"></path><path d="M 288.058,218.058 C 287.678,217.888 287.715,217.766 287.326,217.659" stroke-width="17.235" stroke="rgb(33,33,33)" fill="none" stroke-linecap="round"></path><path d="M 287.326,217.659 C 287.007,217.571 286.967,217.743 286.643,217.667" stroke-width="17.632" stroke="rgb(33,33,33)" fill="none" stroke-linecap="round"></path><path d="M 286.643,217.667 C 286.276,217.580 286.303,217.478 285.945,217.333" stroke-width="17.945" stroke="rgb(33,33,33)" fill="none" stroke-linecap="round"></path><path d="M 285.945,217.333 C 285.481,217.145 285.473,217.167 285.000,217.000" stroke-width="17.898" stroke="rgb(33,33,33)" fill="none" stroke-linecap="round"></path></svg>