<svg xmlns="http://www.w3.org/2000/svg" xmlns:xlink="http://www.w3.org/1999/xlink" viewBox="0 0 375 500"><path d="M 148.000,153.500 C 149.000,155.000 149.512,154.793 150.000,156.500" stroke-width="19.578" stroke="rgb(33,33,33)" fill="none" stroke-linecap="round"></path><path d="M 150.000,156.500 C 151.512,161.793 151.117,161.981 152.000,167.500" stroke-width="17.057" stroke="rgb(33,33,33)" fill="none" stroke-linecap="round"></path><path d="M 152.000,167.500 C 153.117,174.481 152.698,174.555 154.000,181.500" stroke-width="15.265" stroke="rgb(33,33,33)" fill="none" stroke-linecap="round"></path><path d="M 154.000,181.500 C 155.698,190.555 155.969,190.507 158.000,199.500" stroke-width="13.700" stroke="rgb(33,33,33)" fill="none" stroke-linecap="round"></path><path d="M 158.000,199.500 C 159.469,206.007 159.553,205.988 161.000,212.500" stroke-width="13.070" stroke="rgb(33,33,33)" fill="none" stroke-linecap="round"></path><path d="M 161.000,212.500 C 162.553,219.488 162.265,219.560 164.000,226.500" stroke-width="12.594" stroke="rgb(33,33,33)" fill="none" stroke-linecap="round"></path><path d="M 164.000,226.500 C 165.265,231.560 165.428,231.523 167.000,236.500" stroke-width="12.525" stroke="rgb(33,33,33)" fill="none" stroke-linecap="round"></path><path d="M 167.000,236.500 C 168.428,241.023 168.572,240.977 170.000,245.500" stroke-width="12.616" stroke="rgb(33,33,33)" fill="none" stroke-linecap="round"></path><path d="M 170.000,245.500 C 171.572,250.477 171.603,250.472 173.000,255.500" stroke-width="12.602" stroke="rgb(33,33,33)" fill="none" stroke-linecap="round"></path><path d="M 173.000,255.500 C 174.103,259.472 174.073,259.484 175.000,263.500" stroke-width="12.796" stroke="rgb(33,33,33)" fill="none" stroke-linecap="round"></path><path d="M 175.000,263.500 C 175.573,265.984 175.305,266.067 176.000,268.500" stroke-width="13.299" stroke="rgb(33,33,33)" fill="none" stroke-linecap="round"></path><path d="M 176.000,268.500 C 176.305,269.567 176.655,269.464 177.000,270.500" stroke-width="13.985" stroke="rgb(33,33,33)" fill="none" stroke-linecap="round"></path><path d="M 177.000,270.500 C 177.155,270.964 177.400,271.400 177.000,271.500" stroke-width="14.772" stroke="rgb(33,33,33)" fill="none" stroke-linecap="round"></path><path d="M 177.000,271.500 C 175.400,271.900 174.788,272.266 173.000,271.500" stroke-width="15.070" stroke="rgb(33,33,33)" fill="none" stroke-linecap="round"></path><path d="M 173.000,271.500 C 167.788,269.266 167.882,268.684 163.000,265.500" stroke-width="14.339" stroke="rgb(33,33,33)" fill="none" stroke-linecap="round"></path><path d="M 163.000,265.500 C 156.382,261.184 156.840,260.408 150.000,256.500" stroke-width="13.258" stroke="rgb(33,33,33)" fill="none" stroke-linecap="round"></path><path d="M 150.000,256.500 C 142.840,252.408 142.805,252.102 135.000,249.500" stroke-width="12.526" stroke="rgb(33,33,33)" fill="none" stroke-linecap="round"></path><path d="M 135.000,249.500 C 126.305,246.602 126.054,247.213 117.000,245.500" stroke-width="11.924" stroke="rgb(33,33,33)" fill="none" stroke-linecap="round"></path><path d="M 117.000,245.500 C 107.554,243.713 107.554,243.480 98.000,242.500" stroke-width="11.256" stroke="rgb(33,33,33)" fill="none" stroke-linecap="round"></path><path d="M 98.000,242.500 C 88.054,241.480 88.006,241.770 78.000,241.500" stroke-width="10.717" stroke="rgb(33,33,33)" fill="none" stroke-linecap="round"></path><path d="M 78.000,241.500 C 69.506,241.270 69.500,241.500 61.000,241.500" stroke-width="10.524" stroke="rgb(33,33,33)" fill="none" stroke-linecap="round"></path><path d="M 61.000,241.500 C 54.500,241.500 54.484,241.205 48.000,241.500" stroke-width="10.702" stroke="rgb(33,33,33)" fill="none" stroke-linecap="round"></path><path d="M 48.000,241.500 C 43.484,241.705 43.175,241.108 39.000,242.500" stroke-width="11.124" stroke="rgb(33,33,33)" fill="none" stroke-linecap="round"></path><path d="M 39.000,242.500 C 35.675,243.608 35.833,244.296 33.000,246.500" stroke-width="11.631" stroke="rgb(33,33,33)" fill="none" stroke-linecap="round"></path><path d="M 33.000,246.500 C 31.333,247.796 30.879,247.743 30.000,249.500" stroke-width="12.303" stroke="rgb(33,33,33)" fill="none" stroke-linecap="round"></path><path d="M 30.000,249.500 C 29.379,250.743 28.851,252.040 30.000,252.500" stroke-width="13.048" stroke="rgb(33,33,33)" fill="none" stroke-linecap="round"></path><path d="M 30.000,252.500 C 33.851,254.040 34.984,253.321 40.000,253.500" stroke-width="12.982" stroke="rgb(33,33,33)" fill="none" stroke-linecap="round"></path><path d="M 40.000,253.500 C 48.984,253.821 49.040,254.140 58.000,253.500" stroke-width="12.105" stroke="rgb(33,33,33)" fill="none" stroke-linecap="round"></path><path d="M 58.000,253.500 C 70.040,252.640 70.095,252.560 82.000,250.500" stroke-width="11.109" stroke="rgb(33,33,33)" fill="none" stroke-linecap="round"></path><path d="M 82.000,250.500 C 96.095,248.060 96.146,248.075 110.000,244.500" stroke-width="10.044" stroke="rgb(33,33,33)" fill="none" stroke-linecap="round"></path><path d="M 110.000,244.500 C 127.146,240.075 127.000,239.500 144.000,234.500" stroke-width="9.081" stroke="rgb(33,33,33)" fill="none" stroke-linecap="round"></path><path d="M 144.000,234.500 C 161.000,229.500 161.121,229.882 178.000,224.500" stroke-width="8.434" stroke="rgb(33,33,33)" fill="none" stroke-linecap="round"></path><path d="M 178.000,224.500 C 195.621,218.882 195.401,218.194 213.000,212.500" stroke-width="7.923" stroke="rgb(33,33,33)" fill="none" stroke-linecap="round"></path><path d="M 213.000,212.500 C 229.401,207.194 229.621,207.866 246.000,202.500" stroke-width="7.568" stroke="rgb(33,33,33)" fill="none" stroke-linecap="round"></path><path d="M 246.000,202.500 C 258.621,198.366 258.400,197.700 271.000,193.500" stroke-width="7.632" stroke="rgb(33,33,33)" fill="none" stroke-linecap="round"></path><path d="M 271.000,193.500 C 282.400,189.700 282.405,189.634 294.000,186.500" stroke-width="7.772" stroke="rgb(33,33,33)" fill="none" stroke-linecap="round"></path><path d="M 294.000,186.500 C 300.905,184.634 301.005,185.021 308.000,183.500" stroke-width="8.256" stroke="rgb(33,33,33)" fill="none" stroke-linecap="round"></path><path d="M 308.000,183.500 C 312.505,182.521 312.467,182.197 317.000,181.500" stroke-width="8.891" stroke="rgb(33,33,33)" fill="none" stroke-linecap="round"></path><path d="M 317.000,181.500 C 318.967,181.197 319.076,181.821 321.000,181.500" stroke-width="9.773" stroke="rgb(33,33,33)" fill="none" stroke-linecap="round"></path><path d="M 321.000,181.500 C 322.076,181.321 323.000,180.764 323.000,180.500" stroke-width="10.749" stroke="rgb(33,33,33)" fill="none" stroke-linecap="round"></path><path d="M 266.000,97.500 C 266.000,99.500 265.847,99.508 266.000,101.500" stroke-width="19.388" stroke="rgb(33,33,33)" fill="none" stroke-linecap="round"></path><path d="M 266.000,101.500 C 266.347,106.008 266.500,106.000 267.000,110.500" stroke-width="16.047" stroke="rgb(33,33,33)" fill="none" stroke-linecap="round"></path><path d="M 267.000,110.500 C 268.000,119.500 267.857,119.518 269.000,128.500" stroke-width="14.354" stroke="rgb(33,33,33)" fill="none" stroke-linecap="round"></path><path d="M 269.000,128.500 C 271.357,147.018 271.264,147.035 274.000,165.500" stroke-width="11.279" stroke="rgb(33,33,33)" fill="none" stroke-linecap="round"></path><path d="M 274.000,165.500 C 277.264,187.535 276.847,187.626 281.000,209.500" stroke-width="9.373" stroke="rgb(33,33,33)" fill="none" stroke-linecap="round"></path><path d="M 281.000,209.500 C 284.347,227.126 284.361,227.179 289.000,244.500" stroke-width="8.614" stroke="rgb(33,33,33)" fill="none" stroke-linecap="round"></path><path d="M 289.000,244.500 C 291.861,255.179 292.317,255.066 296.000,265.500" stroke-width="8.590" stroke="rgb(33,33,33)" fill="none" stroke-linecap="round"></path><path d="M 296.000,265.500 C 298.317,272.066 298.714,271.927 301.000,278.500" stroke-width="9.001" stroke="rgb(33,33,33)" fill="none" stroke-linecap="round"></path><path d="M 301.000,278.500 C 302.714,283.427 302.808,283.432 304.000,288.500" stroke-width="9.506" stroke="rgb(33,33,33)" fill="none" stroke-linecap="round"></path><path d="M 304.000,288.500 C 304.808,291.932 304.368,292.026 305.000,295.500" stroke-width="10.213" stroke="rgb(33,33,33)" fill="none" stroke-linecap="round"></path><path d="M 305.000,295.500 C 305.368,297.526 306.181,300.042 306.000,299.500" stroke-width="11.019" stroke="rgb(33,33,33)" fill="none" stroke-linecap="round"></path><path d="M 306.000,299.500 C 305.681,298.542 305.407,295.842 304.000,292.500" stroke-width="11.921" stroke="rgb(33,33,33)" fill="none" stroke-linecap="round"></path><path d="M 304.000,292.500 C 301.407,286.342 300.574,286.677 298.000,280.500" stroke-width="11.728" stroke="rgb(33,33,33)" fill="none" stroke-linecap="round"></path><path d="M 298.000,280.500 C 295.574,274.677 296.343,274.358 294.000,268.500" stroke-width="11.760" stroke="rgb(33,33,33)" fill="none" stroke-linecap="round"></path><path d="M 294.000,268.500 C 292.343,264.358 292.402,264.237 290.000,260.500" stroke-width="11.934" stroke="rgb(33,33,33)" fill="none" stroke-linecap="round"></path><path d="M 290.000,260.500 C 287.902,257.237 287.636,257.376 285.000,254.500" stroke-width="12.278" stroke="rgb(33,33,33)" fill="none" stroke-linecap="round"></path><path d="M 285.000,254.500 C 282.136,251.376 282.627,250.420 279.000,248.500" stroke-width="12.458" stroke="rgb(33,33,33)" fill="none" stroke-linecap="round"></path><path d="M 279.000,248.500 C 274.127,245.920 273.614,246.148 268.000,245.500" stroke-width="12.497" stroke="rgb(33,33,33)" fill="none" stroke-linecap="round"></path><path d="M 268.000,245.500 C 260.614,244.648 260.500,245.500 253.000,245.500" stroke-width="11.937" stroke="rgb(33,33,33)" fill="none" stroke-linecap="round"></path><path d="M 253.000,245.500 C 241.000,245.500 240.863,244.157 229.000,245.500" stroke-width="10.904" stroke="rgb(33,33,33)" fill="none" stroke-linecap="round"></path><path d="M 229.000,245.500 C 214.363,247.157 214.310,247.757 200.000,251.500" stroke-width="9.955" stroke="rgb(33,33,33)" fill="none" stroke-linecap="round"></path><path d="M 200.000,251.500 C 181.810,256.257 181.910,256.723 164.000,262.500" stroke-width="9.265" stroke="rgb(33,33,33)" fill="none" stroke-linecap="round"></path><path d="M 164.000,262.500 C 150.910,266.723 150.797,266.482 138.000,271.500" stroke-width="8.269" stroke="rgb(33,33,33)" fill="none" stroke-linecap="round"></path><path d="M 138.000,271.500 C 125.297,276.482 125.504,277.010 113.000,282.500" stroke-width="8.164" stroke="rgb(33,33,33)" fill="none" stroke-linecap="round"></path><path d="M 113.000,282.500 C 105.004,286.010 104.864,285.725 97.000,289.500" stroke-width="8.514" stroke="rgb(33,33,33)" fill="none" stroke-linecap="round"></path><path d="M 97.000,289.500 C 92.364,291.725 92.532,292.060 88.000,294.500" stroke-width="9.106" stroke="rgb(33,33,33)" fill="none" stroke-linecap="round"></path><path d="M 88.000,294.500 C 86.032,295.560 84.299,295.901 84.000,296.500" stroke-width="9.951" stroke="rgb(33,33,33)" fill="none" stroke-linecap="round"></path><path d="M 84.000,296.500 C 83.799,296.901 85.540,296.824 87.000,296.500" stroke-width="10.868" stroke="rgb(33,33,33)" fill="none" stroke-linecap="round"></path><path d="M 87.000,296.500 C 99.040,293.824 99.288,294.404 111.000,290.500" stroke-width="10.126" stroke="rgb(33,33,33)" fill="none" stroke-linecap="round"></path><path d="M 111.000,290.500 C 129.288,284.404 128.741,282.747 147.000,276.500" stroke-width="8.983" stroke="rgb(33,33,33)" fill="none" stroke-linecap="round"></path><path d="M 147.000,276.500 C 166.741,269.747 166.968,270.392 187.000,264.500" stroke-width="8.117" stroke="rgb(33,33,33)" fill="none" stroke-linecap="round"></path><path d="M 187.000,264.500 C 209.468,257.892 209.472,257.900 232.000,251.500" stroke-width="7.455" stroke="rgb(33,33,33)" fill="none" stroke-linecap="round"></path><path d="M 232.000,251.500 C 253.472,245.400 253.593,245.812 275.000,239.500" stroke-width="6.909" stroke="rgb(33,33,33)" fill="none" stroke-linecap="round"></path><path d="M 275.000,239.500 C 292.593,234.312 292.402,233.658 310.000,228.500" stroke-width="6.750" stroke="rgb(33,33,33)" fill="none" stroke-linecap="round"></path><path d="M 310.000,228.500 C 321.402,225.158 321.454,225.308 333.000,222.500" stroke-width="6.966" stroke="rgb(33,33,33)" fill="none" stroke-linecap="round"></path><path d="M 333.000,222.500 C 339.954,220.808 339.965,220.672 347.000,219.500" stroke-width="7.517" stroke="rgb(33,33,33)" fill="none" stroke-linecap="round"></path><path d="M 347.000,219.500 C 348.965,219.172 349.800,219.500 351.000,219.500" stroke-width="8.419" stroke="rgb(33,33,33)" fill="none" stroke-linecap="round"></path><path d="M 220.000,147.500 C 215.000,146.000 215.096,145.349 210.000,144.500" stroke-width="17.019" stroke="rgb(33,33,33)" fill="none" stroke-linecap="round"></path><path d="M 210.000,144.500 C 206.096,143.849 206.000,144.500 202.000,144.500" stroke-width="16.252" stroke="rgb(33,33,33)" fill="none" stroke-linecap="round"></path><path d="M 202.000,144.500 C 201.500,144.500 201.167,144.833 201.000,144.500" stroke-width="16.756" stroke="rgb(33,33,33)" fill="none" stroke-linecap="round"></path><path d="M 201.000,144.500 C 200.667,143.833 200.298,143.124 201.000,142.500" stroke-width="16.991" stroke="rgb(33,33,33)" fill="none" stroke-linecap="round"></path><path d="M 201.000,142.500 C 204.798,139.124 205.300,139.163 210.000,136.500" stroke-width="15.811" stroke="rgb(33,33,33)" fill="none" stroke-linecap="round"></path><path d="M 210.000,136.500 C 220.300,130.663 220.535,131.066 231.000,125.500" stroke-width="13.469" stroke="rgb(33,33,33)" fill="none" stroke-linecap="round"></path><path d="M 231.000,125.500 C 244.035,118.566 243.884,118.277 257.000,111.500" stroke-width="11.570" stroke="rgb(33,33,33)" fill="none" stroke-linecap="round"></path><path d="M 257.000,111.500 C 273.884,102.777 273.943,102.884 291.000,94.500" stroke-width="9.891" stroke="rgb(33,33,33)" fill="none" stroke-linecap="round"></path><path d="M 291.000,94.500 C 303.443,88.384 303.088,87.407 316.000,82.500" stroke-width="9.357" stroke="rgb(33,33,33)" fill="none" stroke-linecap="round"></path><circle r="6" cx="311" cy="139.5" fill="rgb(33,33,33)"></circle></svg>