<svg xmlns="http://www.w3.org/2000/svg" xmlns:xlink="http://www.w3.org/1999/xlink" viewBox="0 0 375 500"><path d="M 86.000,86.500 C 88.000,88.500 88.685,88.133 90.000,90.500" stroke-width="20.036" stroke="rgb(33,33,33)" fill="none" stroke-linecap="round"></path><path d="M 90.000,90.500 C 91.185,92.633 90.330,93.045 91.000,95.500" stroke-width="18.811" stroke="rgb(33,33,33)" fill="none" stroke-linecap="round"></path><path d="M 91.000,95.500 C 91.830,98.545 91.937,98.522 93.000,101.500" stroke-width="17.897" stroke="rgb(33,33,33)" fill="none" stroke-linecap="round"></path><path d="M 93.000,101.500 C 94.437,105.522 94.715,105.431 96.000,109.500" stroke-width="16.873" stroke="rgb(33,33,33)" fill="none" stroke-linecap="round"></path><path d="M 96.000,109.500 C 97.715,114.931 97.039,115.176 99.000,120.500" stroke-width="15.433" stroke="rgb(33,33,33)" fill="none" stroke-linecap="round"></path><path d="M 99.000,120.500 C 100.539,124.676 101.096,124.455 103.000,128.500" stroke-width="15.122" stroke="rgb(33,33,33)" fill="none" stroke-linecap="round"></path><path d="M 103.000,128.500 C 105.096,132.955 104.702,133.159 107.000,137.500" stroke-width="14.341" stroke="rgb(33,33,33)" fill="none" stroke-linecap="round"></path><path d="M 107.000,137.500 C 109.202,141.659 109.386,141.578 112.000,145.500" stroke-width="13.828" stroke="rgb(33,33,33)" fill="none" stroke-linecap="round"></path><path d="M 112.000,145.500 C 113.386,147.578 113.377,147.607 115.000,149.500" stroke-width="14.158" stroke="rgb(33,33,33)" fill="none" stroke-linecap="round"></path><path d="M 115.000,149.500 C 116.377,151.107 116.281,151.354 118.000,152.500" stroke-width="14.554" stroke="rgb(33,33,33)" fill="none" stroke-linecap="round"></path><path d="M 118.000,152.500 C 119.281,153.354 119.460,153.243 121.000,153.500" stroke-width="14.941" stroke="rgb(33,33,33)" fill="none" stroke-linecap="round"></path><path d="M 121.000,153.500 C 122.460,153.743 122.638,153.954 124.000,153.500" stroke-width="15.369" stroke="rgb(33,33,33)" fill="none" stroke-linecap="round"></path><path d="M 124.000,153.500 C 125.638,152.954 126.036,152.946 127.000,151.500" stroke-width="15.587" stroke="rgb(33,33,33)" fill="none" stroke-linecap="round"></path><path d="M 127.000,151.500 C 129.036,148.446 128.405,147.956 130.000,144.500" stroke-width="15.174" stroke="rgb(33,33,33)" fill="none" stroke-linecap="round"></path><path d="M 130.000,144.500 C 131.405,141.456 131.757,141.607 133.000,138.500" stroke-width="15.039" stroke="rgb(33,33,33)" fill="none" stroke-linecap="round"></path><path d="M 133.000,138.500 C 134.757,134.107 134.919,134.095 136.000,129.500" stroke-width="14.581" stroke="rgb(33,33,33)" fill="none" stroke-linecap="round"></path><path d="M 136.000,129.500 C 136.919,125.595 136.467,125.496 137.000,121.500" stroke-width="14.343" stroke="rgb(33,33,33)" fill="none" stroke-linecap="round"></path><path d="M 137.000,121.500 C 137.467,117.996 137.208,117.931 138.000,114.500" stroke-width="14.335" stroke="rgb(33,33,33)" fill="none" stroke-linecap="round"></path><path d="M 138.000,114.500 C 138.708,111.431 139.070,111.522 140.000,108.500" stroke-width="14.418" stroke="rgb(33,33,33)" fill="none" stroke-linecap="round"></path><path d="M 140.000,108.500 C 141.070,105.022 141.407,105.057 142.000,101.500" stroke-width="14.369" stroke="rgb(33,33,33)" fill="none" stroke-linecap="round"></path><path d="M 142.000,101.500 C 142.407,99.057 141.694,98.950 142.000,96.500" stroke-width="14.569" stroke="rgb(33,33,33)" fill="none" stroke-linecap="round"></path><path d="M 142.000,96.500 C 142.194,94.950 142.240,94.640 143.000,93.500" stroke-width="15.010" stroke="rgb(33,33,33)" fill="none" stroke-linecap="round"></path><path d="M 143.000,93.500 C 143.240,93.140 143.750,93.750 144.000,93.500" stroke-width="15.676" stroke="rgb(33,33,33)" fill="none" stroke-linecap="round"></path><path d="M 144.000,93.500 C 144.250,93.250 144.000,92.250 144.000,92.500" stroke-width="16.262" stroke="rgb(33,33,33)" fill="none" stroke-linecap="round"></path><path d="M 144.000,92.500 C 144.000,93.250 144.000,94.000 144.000,95.500" stroke-width="16.803" stroke="rgb(33,33,33)" fill="none" stroke-linecap="round"></path><path d="M 144.000,95.500 C 144.000,97.500 144.000,97.500 144.000,99.500" stroke-width="16.720" stroke="rgb(33,33,33)" fill="none" stroke-linecap="round"></path><path d="M 144.000,99.500 C 144.000,103.000 144.232,103.014 144.000,106.500" stroke-width="16.117" stroke="rgb(33,33,33)" fill="none" stroke-linecap="round"></path><path d="M 144.000,106.500 C 143.732,110.514 143.828,110.565 143.000,114.500" stroke-width="15.640" stroke="rgb(33,33,33)" fill="none" stroke-linecap="round"></path><path d="M 143.000,114.500 C 141.828,120.065 141.262,119.946 140.000,125.500" stroke-width="14.692" stroke="rgb(33,33,33)" fill="none" stroke-linecap="round"></path><path d="M 140.000,125.500 C 138.762,130.946 138.919,130.986 138.000,136.500" stroke-width="14.039" stroke="rgb(33,33,33)" fill="none" stroke-linecap="round"></path><path d="M 138.000,136.500 C 136.919,142.986 137.039,143.006 136.000,149.500" stroke-width="13.423" stroke="rgb(33,33,33)" fill="none" stroke-linecap="round"></path><path d="M 136.000,149.500 C 135.039,155.506 134.925,155.488 134.000,161.500" stroke-width="12.989" stroke="rgb(33,33,33)" fill="none" stroke-linecap="round"></path><path d="M 134.000,161.500 C 132.925,168.488 132.810,168.479 132.000,175.500" stroke-width="12.550" stroke="rgb(33,33,33)" fill="none" stroke-linecap="round"></path><path d="M 132.000,175.500 C 131.310,181.479 131.717,181.526 131.000,187.500" stroke-width="12.337" stroke="rgb(33,33,33)" fill="none" stroke-linecap="round"></path><path d="M 131.000,187.500 C 130.217,194.026 129.568,193.967 129.000,200.500" stroke-width="12.204" stroke="rgb(33,33,33)" fill="none" stroke-linecap="round"></path><path d="M 129.000,200.500 C 128.568,205.467 129.000,205.500 129.000,210.500" stroke-width="12.310" stroke="rgb(33,33,33)" fill="none" stroke-linecap="round"></path><path d="M 129.000,210.500 C 129.000,215.500 129.000,215.500 129.000,220.500" stroke-width="12.340" stroke="rgb(33,33,33)" fill="none" stroke-linecap="round"></path><path d="M 129.000,220.500 C 129.000,225.000 129.000,225.000 129.000,229.500" stroke-width="12.459" stroke="rgb(33,33,33)" fill="none" stroke-linecap="round"></path><path d="M 129.000,229.500 C 129.000,232.500 129.000,232.500 129.000,235.500" stroke-width="12.891" stroke="rgb(33,33,33)" fill="none" stroke-linecap="round"></path><path d="M 190.000,104.500 C 192.500,102.000 192.721,102.159 195.000,99.500" stroke-width="19.308" stroke="rgb(33,33,33)" fill="none" stroke-linecap="round"></path><path d="M 195.000,99.500 C 195.721,98.659 195.786,98.568 196.000,97.500" stroke-width="18.979" stroke="rgb(33,33,33)" fill="none" stroke-linecap="round"></path><path d="M 196.000,97.500 C 196.286,96.068 196.340,95.859 196.000,94.500" stroke-width="18.597" stroke="rgb(33,33,33)" fill="none" stroke-linecap="round"></path><path d="M 196.000,94.500 C 195.840,93.859 195.660,93.689 195.000,93.500" stroke-width="18.617" stroke="rgb(33,33,33)" fill="none" stroke-linecap="round"></path><path d="M 195.000,93.500 C 192.160,92.689 192.025,92.702 189.000,92.500" stroke-width="17.736" stroke="rgb(33,33,33)" fill="none" stroke-linecap="round"></path><path d="M 189.000,92.500 C 184.525,92.202 184.500,92.500 180.000,92.500" stroke-width="16.519" stroke="rgb(33,33,33)" fill="none" stroke-linecap="round"></path><path d="M 180.000,92.500 C 173.500,92.500 173.500,92.500 167.000,92.500" stroke-width="15.184" stroke="rgb(33,33,33)" fill="none" stroke-linecap="round"></path><path d="M 167.000,92.500 C 160.000,92.500 159.841,91.397 153.000,92.500" stroke-width="14.145" stroke="rgb(33,33,33)" fill="none" stroke-linecap="round"></path><path d="M 153.000,92.500 C 144.341,93.897 144.369,94.623 136.000,97.500" stroke-width="12.924" stroke="rgb(33,33,33)" fill="none" stroke-linecap="round"></path><path d="M 136.000,97.500 C 128.369,100.123 128.309,100.089 121.000,103.500" stroke-width="12.321" stroke="rgb(33,33,33)" fill="none" stroke-linecap="round"></path><path d="M 121.000,103.500 C 113.309,107.089 112.788,106.539 106.000,111.500" stroke-width="11.809" stroke="rgb(33,33,33)" fill="none" stroke-linecap="round"></path><path d="M 106.000,111.500 C 99.788,116.039 100.111,116.659 95.000,122.500" stroke-width="11.465" stroke="rgb(33,33,33)" fill="none" stroke-linecap="round"></path><path d="M 95.000,122.500 C 89.611,128.659 89.419,128.625 85.000,135.500" stroke-width="11.213" stroke="rgb(33,33,33)" fill="none" stroke-linecap="round"></path><path d="M 85.000,135.500 C 80.419,142.625 80.368,142.728 77.000,150.500" stroke-width="10.903" stroke="rgb(33,33,33)" fill="none" stroke-linecap="round"></path><path d="M 77.000,150.500 C 73.868,157.728 73.681,157.817 72.000,165.500" stroke-width="10.878" stroke="rgb(33,33,33)" fill="none" stroke-linecap="round"></path><path d="M 72.000,165.500 C 70.181,173.817 70.568,173.975 70.000,182.500" stroke-width="10.711" stroke="rgb(33,33,33)" fill="none" stroke-linecap="round"></path><path d="M 70.000,182.500 C 69.568,188.975 69.286,189.076 70.000,195.500" stroke-width="10.800" stroke="rgb(33,33,33)" fill="none" stroke-linecap="round"></path><path d="M 70.000,195.500 C 70.786,202.576 70.097,203.166 73.000,209.500" stroke-width="10.777" stroke="rgb(33,33,33)" fill="none" stroke-linecap="round"></path><path d="M 73.000,209.500 C 75.597,215.166 76.293,215.288 81.000,219.500" stroke-width="10.923" stroke="rgb(33,33,33)" fill="none" stroke-linecap="round"></path><path d="M 81.000,219.500 C 85.793,223.788 86.127,223.808 92.000,226.500" stroke-width="11.027" stroke="rgb(33,33,33)" fill="none" stroke-linecap="round"></path><path d="M 92.000,226.500 C 98.127,229.308 98.333,229.611 105.000,230.500" stroke-width="11.010" stroke="rgb(33,33,33)" fill="none" stroke-linecap="round"></path><path d="M 105.000,230.500 C 113.333,231.611 113.529,230.998 122.000,230.500" stroke-width="10.821" stroke="rgb(33,33,33)" fill="none" stroke-linecap="round"></path><path d="M 122.000,230.500 C 130.529,229.998 131.033,231.225 139.000,228.500" stroke-width="10.667" stroke="rgb(33,33,33)" fill="none" stroke-linecap="round"></path><path d="M 139.000,228.500 C 150.033,224.725 149.978,223.764 160.000,217.500" stroke-width="10.137" stroke="rgb(33,33,33)" fill="none" stroke-linecap="round"></path><path d="M 160.000,217.500 C 169.978,211.264 169.628,210.667 179.000,203.500" stroke-width="9.674" stroke="rgb(33,33,33)" fill="none" stroke-linecap="round"></path><path d="M 179.000,203.500 C 186.628,197.667 187.103,198.110 194.000,191.500" stroke-width="9.641" stroke="rgb(33,33,33)" fill="none" stroke-linecap="round"></path><path d="M 194.000,191.500 C 199.103,186.610 198.853,186.243 203.000,180.500" stroke-width="9.839" stroke="rgb(33,33,33)" fill="none" stroke-linecap="round"></path><path d="M 203.000,180.500 C 205.353,177.243 205.766,177.203 207.000,173.500" stroke-width="10.431" stroke="rgb(33,33,33)" fill="none" stroke-linecap="round"></path><path d="M 207.000,173.500 C 207.766,171.203 207.481,170.907 207.000,168.500" stroke-width="11.176" stroke="rgb(33,33,33)" fill="none" stroke-linecap="round"></path><path d="M 207.000,168.500 C 206.481,165.907 207.245,164.160 205.000,163.500" stroke-width="11.795" stroke="rgb(33,33,33)" fill="none" stroke-linecap="round"></path><path d="M 205.000,163.500 C 198.745,161.660 197.495,163.286 190.000,163.500" stroke-width="11.572" stroke="rgb(33,33,33)" fill="none" stroke-linecap="round"></path><path d="M 190.000,163.500 C 179.995,163.786 179.649,162.307 170.000,164.500" stroke-width="11.032" stroke="rgb(33,33,33)" fill="none" stroke-linecap="round"></path><path d="M 170.000,164.500 C 157.649,167.307 157.878,168.698 146.000,173.500" stroke-width="10.182" stroke="rgb(33,33,33)" fill="none" stroke-linecap="round"></path><path d="M 146.000,173.500 C 134.378,178.198 134.254,177.998 123.000,183.500" stroke-width="9.707" stroke="rgb(33,33,33)" fill="none" stroke-linecap="round"></path><path d="M 123.000,183.500 C 111.754,188.998 111.877,189.285 101.000,195.500" stroke-width="9.359" stroke="rgb(33,33,33)" fill="none" stroke-linecap="round"></path><path d="M 101.000,195.500 C 90.877,201.285 90.736,201.102 81.000,207.500" stroke-width="9.111" stroke="rgb(33,33,33)" fill="none" stroke-linecap="round"></path><path d="M 81.000,207.500 C 73.236,212.602 73.309,212.757 66.000,218.500" stroke-width="9.218" stroke="rgb(33,33,33)" fill="none" stroke-linecap="round"></path><path d="M 66.000,218.500 C 59.309,223.757 59.444,223.935 53.000,229.500" stroke-width="9.384" stroke="rgb(33,33,33)" fill="none" stroke-linecap="round"></path><path d="M 53.000,229.500 C 48.444,233.435 48.244,233.256 44.000,237.500" stroke-width="9.792" stroke="rgb(33,33,33)" fill="none" stroke-linecap="round"></path><path d="M 44.000,237.500 C 41.744,239.756 41.853,239.906 40.000,242.500" stroke-width="10.468" stroke="rgb(33,33,33)" fill="none" stroke-linecap="round"></path><path d="M 40.000,242.500 C 39.353,243.406 38.347,244.500 39.000,244.500" stroke-width="11.416" stroke="rgb(33,33,33)" fill="none" stroke-linecap="round"></path><path d="M 39.000,244.500 C 40.847,244.500 42.406,244.229 45.000,242.500" stroke-width="12.218" stroke="rgb(33,33,33)" fill="none" stroke-linecap="round"></path><path d="M 45.000,242.500 C 51.406,238.229 51.055,237.564 57.000,232.500" stroke-width="11.844" stroke="rgb(33,33,33)" fill="none" stroke-linecap="round"></path><path d="M 57.000,232.500 C 64.555,226.064 64.129,225.519 72.000,219.500" stroke-width="11.242" stroke="rgb(33,33,33)" fill="none" stroke-linecap="round"></path><path d="M 72.000,219.500 C 81.129,212.519 81.247,212.596 91.000,206.500" stroke-width="10.499" stroke="rgb(33,33,33)" fill="none" stroke-linecap="round"></path><path d="M 91.000,206.500 C 101.247,200.096 101.076,199.598 112.000,194.500" stroke-width="9.987" stroke="rgb(33,33,33)" fill="none" stroke-linecap="round"></path><path d="M 112.000,194.500 C 123.576,189.098 123.943,189.841 136.000,185.500" stroke-width="9.536" stroke="rgb(33,33,33)" fill="none" stroke-linecap="round"></path><path d="M 136.000,185.500 C 148.943,180.841 148.863,180.560 162.000,176.500" stroke-width="9.029" stroke="rgb(33,33,33)" fill="none" stroke-linecap="round"></path><path d="M 162.000,176.500 C 176.363,172.060 176.483,172.437 191.000,168.500" stroke-width="8.624" stroke="rgb(33,33,33)" fill="none" stroke-linecap="round"></path><path d="M 191.000,168.500 C 205.983,164.437 205.865,163.892 221.000,160.500" stroke-width="8.286" stroke="rgb(33,33,33)" fill="none" stroke-linecap="round"></path><path d="M 221.000,160.500 C 234.865,157.392 235.036,158.185 249.000,155.500" stroke-width="8.066" stroke="rgb(33,33,33)" fill="none" stroke-linecap="round"></path><path d="M 249.000,155.500 C 261.036,153.185 261.044,153.190 273.000,150.500" stroke-width="8.110" stroke="rgb(33,33,33)" fill="none" stroke-linecap="round"></path><path d="M 273.000,150.500 C 281.044,148.690 281.174,149.004 289.000,146.500" stroke-width="8.467" stroke="rgb(33,33,33)" fill="none" stroke-linecap="round"></path><path d="M 289.000,146.500 C 293.674,145.004 293.418,144.262 298.000,142.500" stroke-width="9.084" stroke="rgb(33,33,33)" fill="none" stroke-linecap="round"></path><path d="M 298.000,142.500 C 299.918,141.762 300.390,142.305 302.000,141.500" stroke-width="9.952" stroke="rgb(33,33,33)" fill="none" stroke-linecap="round"></path><path d="M 302.000,141.500 C 302.390,141.305 302.450,140.550 302.000,140.500" stroke-width="11.008" stroke="rgb(33,33,33)" fill="none" stroke-linecap="round"></path><path d="M 302.000,140.500 C 297.950,140.050 297.500,140.500 293.000,140.500" stroke-width="11.350" stroke="rgb(33,33,33)" fill="none" stroke-linecap="round"></path><path d="M 293.000,140.500 C 285.000,140.500 284.991,140.242 277.000,140.500" stroke-width="11.153" stroke="rgb(33,33,33)" fill="none" stroke-linecap="round"></path><path d="M 277.000,140.500 C 269.491,140.742 269.402,140.344 262.000,141.500" stroke-width="11.070" stroke="rgb(33,33,33)" fill="none" stroke-linecap="round"></path><path d="M 262.000,141.500 C 253.402,142.844 253.486,143.443 245.000,145.500" stroke-width="10.761" stroke="rgb(33,33,33)" fill="none" stroke-linecap="round"></path><path d="M 153.000,157.500 C 156.000,159.500 157.101,158.788 159.000,161.500" stroke-width="19.804" stroke="rgb(33,33,33)" fill="none" stroke-linecap="round"></path><path d="M 159.000,161.500 C 160.601,163.788 159.784,164.476 160.000,167.500" stroke-width="18.509" stroke="rgb(33,33,33)" fill="none" stroke-linecap="round"></path><path d="M 160.000,167.500 C 160.284,171.476 160.000,171.500 160.000,175.500" stroke-width="17.230" stroke="rgb(33,33,33)" fill="none" stroke-linecap="round"></path><path d="M 160.000,175.500 C 160.000,178.500 160.000,178.500 160.000,181.500" stroke-width="16.725" stroke="rgb(33,33,33)" fill="none" stroke-linecap="round"></path><path d="M 160.000,181.500 C 160.000,184.500 160.000,184.500 160.000,187.500" stroke-width="16.341" stroke="rgb(33,33,33)" fill="none" stroke-linecap="round"></path><path d="M 160.000,187.500 C 160.000,188.500 160.000,189.833 160.000,189.500" stroke-width="16.686" stroke="rgb(33,33,33)" fill="none" stroke-linecap="round"></path><path d="M 160.000,189.500 C 160.000,188.833 160.000,187.500 160.000,185.500" stroke-width="16.933" stroke="rgb(33,33,33)" fill="none" stroke-linecap="round"></path><path d="M 160.000,185.500 C 160.000,180.500 160.000,180.500 160.000,175.500" stroke-width="15.890" stroke="rgb(33,33,33)" fill="none" stroke-linecap="round"></path><path d="M 160.000,175.500 C 160.000,171.500 160.000,171.500 160.000,167.500" stroke-width="15.347" stroke="rgb(33,33,33)" fill="none" stroke-linecap="round"></path><path d="M 160.000,167.500 C 160.000,164.500 159.548,164.437 160.000,161.500" stroke-width="15.219" stroke="rgb(33,33,33)" fill="none" stroke-linecap="round"></path><path d="M 160.000,161.500 C 160.548,157.937 160.761,157.907 162.000,154.500" stroke-width="14.999" stroke="rgb(33,33,33)" fill="none" stroke-linecap="round"></path><path d="M 162.000,154.500 C 162.761,152.407 162.616,152.161 164.000,150.500" stroke-width="15.195" stroke="rgb(33,33,33)" fill="none" stroke-linecap="round"></path><path d="M 164.000,150.500 C 165.116,149.161 165.392,149.143 167.000,148.500" stroke-width="15.475" stroke="rgb(33,33,33)" fill="none" stroke-linecap="round"></path><path d="M 167.000,148.500 C 167.892,148.143 168.031,148.306 169.000,148.500" stroke-width="15.921" stroke="rgb(33,33,33)" fill="none" stroke-linecap="round"></path><path d="M 169.000,148.500 C 170.531,148.806 170.838,148.531 172.000,149.500" stroke-width="16.139" stroke="rgb(33,33,33)" fill="none" stroke-linecap="round"></path><path d="M 172.000,149.500 C 173.838,151.031 173.250,151.750 175.000,153.500" stroke-width="16.039" stroke="rgb(33,33,33)" fill="none" stroke-linecap="round"></path><path d="M 175.000,153.500 C 176.750,155.250 176.808,155.404 179.000,156.500" stroke-width="15.959" stroke="rgb(33,33,33)" fill="none" stroke-linecap="round"></path><path d="M 179.000,156.500 C 180.808,157.404 180.970,157.162 183.000,157.500" stroke-width="15.987" stroke="rgb(33,33,33)" fill="none" stroke-linecap="round"></path><path d="M 183.000,157.500 C 186.970,158.162 186.984,158.249 191.000,158.500" stroke-width="15.480" stroke="rgb(33,33,33)" fill="none" stroke-linecap="round"></path><path d="M 191.000,158.500 C 194.984,158.749 195.024,158.784 199.000,158.500" stroke-width="15.105" stroke="rgb(33,33,33)" fill="none" stroke-linecap="round"></path><path d="M 199.000,158.500 C 202.024,158.284 202.409,158.795 205.000,157.500" stroke-width="15.016" stroke="rgb(33,33,33)" fill="none" stroke-linecap="round"></path><path d="M 205.000,157.500 C 207.409,156.295 207.142,155.623 209.000,153.500" stroke-width="15.051" stroke="rgb(33,33,33)" fill="none" stroke-linecap="round"></path><path d="M 209.000,153.500 C 210.642,151.623 211.063,151.688 212.000,149.500" stroke-width="15.167" stroke="rgb(33,33,33)" fill="none" stroke-linecap="round"></path><path d="M 212.000,149.500 C 212.563,148.188 212.000,148.000 212.000,146.500" stroke-width="15.510" stroke="rgb(33,33,33)" fill="none" stroke-linecap="round"></path><path d="M 212.000,146.500 C 212.000,146.000 212.375,145.625 212.000,145.500" stroke-width="16.148" stroke="rgb(33,33,33)" fill="none" stroke-linecap="round"></path><path d="M 212.000,145.500 C 210.875,145.125 210.500,145.500 209.000,145.500" stroke-width="16.208" stroke="rgb(33,33,33)" fill="none" stroke-linecap="round"></path><path d="M 209.000,145.500 C 206.500,145.500 206.308,144.808 204.000,145.500" stroke-width="16.093" stroke="rgb(33,33,33)" fill="none" stroke-linecap="round"></path><path d="M 204.000,145.500 C 201.308,146.308 201.284,146.723 199.000,148.500" stroke-width="15.826" stroke="rgb(33,33,33)" fill="none" stroke-linecap="round"></path><path d="M 199.000,148.500 C 196.784,150.223 196.675,150.266 195.000,152.500" stroke-width="15.645" stroke="rgb(33,33,33)" fill="none" stroke-linecap="round"></path><path d="M 195.000,152.500 C 193.675,154.266 193.472,154.375 193.000,156.500" stroke-width="15.757" stroke="rgb(33,33,33)" fill="none" stroke-linecap="round"></path><path d="M 193.000,156.500 C 192.472,158.875 193.000,159.000 193.000,161.500" stroke-width="15.735" stroke="rgb(33,33,33)" fill="none" stroke-linecap="round"></path><path d="M 193.000,161.500 C 193.000,164.000 192.472,164.125 193.000,166.500" stroke-width="15.673" stroke="rgb(33,33,33)" fill="none" stroke-linecap="round"></path><path d="M 193.000,166.500 C 193.472,168.625 193.348,169.556 195.000,170.500" stroke-width="15.743" stroke="rgb(33,33,33)" fill="none" stroke-linecap="round"></path><path d="M 195.000,170.500 C 196.848,171.556 197.500,170.500 200.000,170.500" stroke-width="15.724" stroke="rgb(33,33,33)" fill="none" stroke-linecap="round"></path><path d="M 200.000,170.500 C 203.000,170.500 203.475,171.648 206.000,170.500" stroke-width="15.514" stroke="rgb(33,33,33)" fill="none" stroke-linecap="round"></path><path d="M 206.000,170.500 C 208.975,169.148 209.292,168.489 211.000,165.500" stroke-width="15.196" stroke="rgb(33,33,33)" fill="none" stroke-linecap="round"></path><path d="M 211.000,165.500 C 213.292,161.489 212.804,161.083 214.000,156.500" stroke-width="14.698" stroke="rgb(33,33,33)" fill="none" stroke-linecap="round"></path><path d="M 214.000,156.500 C 215.804,149.583 215.914,149.561 217.000,142.500" stroke-width="13.672" stroke="rgb(33,33,33)" fill="none" stroke-linecap="round"></path><path d="M 217.000,142.500 C 217.914,136.561 217.785,136.512 218.000,130.500" stroke-width="13.265" stroke="rgb(33,33,33)" fill="none" stroke-linecap="round"></path><path d="M 218.000,130.500 C 218.285,122.512 217.725,122.489 218.000,114.500" stroke-width="12.582" stroke="rgb(33,33,33)" fill="none" stroke-linecap="round"></path><path d="M 218.000,114.500 C 218.225,107.989 218.750,108.010 219.000,101.500" stroke-width="12.340" stroke="rgb(33,33,33)" fill="none" stroke-linecap="round"></path><path d="M 219.000,101.500 C 219.250,95.010 219.000,95.000 219.000,88.500" stroke-width="12.087" stroke="rgb(33,33,33)" fill="none" stroke-linecap="round"></path><path d="M 219.000,88.500 C 219.000,84.500 219.000,84.500 219.000,80.500" stroke-width="12.346" stroke="rgb(33,33,33)" fill="none" stroke-linecap="round"></path><path d="M 219.000,80.500 C 219.000,78.500 219.000,78.500 219.000,76.500" stroke-width="12.987" stroke="rgb(33,33,33)" fill="none" stroke-linecap="round"></path><path d="M 219.000,76.500 C 219.000,75.000 219.000,73.800 219.000,73.500" stroke-width="13.658" stroke="rgb(33,33,33)" fill="none" stroke-linecap="round"></path><path d="M 219.000,73.500 C 219.000,73.300 219.000,74.500 219.000,75.500" stroke-width="14.482" stroke="rgb(33,33,33)" fill="none" stroke-linecap="round"></path><path d="M 219.000,75.500 C 219.000,82.000 219.000,82.000 219.000,88.500" stroke-width="13.761" stroke="rgb(33,33,33)" fill="none" stroke-linecap="round"></path><path d="M 219.000,88.500 C 219.000,96.500 219.000,96.500 219.000,104.500" stroke-width="12.935" stroke="rgb(33,33,33)" fill="none" stroke-linecap="round"></path><path d="M 219.000,104.500 C 219.000,113.000 219.000,113.000 219.000,121.500" stroke-width="12.163" stroke="rgb(33,33,33)" fill="none" stroke-linecap="round"></path><path d="M 219.000,121.500 C 219.000,127.500 218.434,127.562 219.000,133.500" stroke-width="12.103" stroke="rgb(33,33,33)" fill="none" stroke-linecap="round"></path><path d="M 219.000,133.500 C 219.434,138.062 219.230,138.369 221.000,142.500" stroke-width="12.296" stroke="rgb(33,33,33)" fill="none" stroke-linecap="round"></path><path d="M 221.000,142.500 C 222.230,145.369 222.648,145.384 225.000,147.500" stroke-width="12.675" stroke="rgb(33,33,33)" fill="none" stroke-linecap="round"></path><path d="M 225.000,147.500 C 227.648,149.884 227.752,150.319 231.000,151.500" stroke-width="12.957" stroke="rgb(33,33,33)" fill="none" stroke-linecap="round"></path><path d="M 231.000,151.500 C 233.252,152.319 234.431,153.069 236.000,151.500" stroke-width="13.418" stroke="rgb(33,33,33)" fill="none" stroke-linecap="round"></path><path d="M 236.000,151.500 C 239.931,147.569 239.841,146.328 242.000,140.500" stroke-width="12.948" stroke="rgb(33,33,33)" fill="none" stroke-linecap="round"></path><path d="M 242.000,140.500 C 244.841,132.828 244.331,132.567 246.000,124.500" stroke-width="12.309" stroke="rgb(33,33,33)" fill="none" stroke-linecap="round"></path><path d="M 246.000,124.500 C 247.331,118.067 247.247,118.028 248.000,111.500" stroke-width="12.119" stroke="rgb(33,33,33)" fill="none" stroke-linecap="round"></path><path d="M 248.000,111.500 C 248.747,105.028 248.658,105.006 249.000,98.500" stroke-width="11.982" stroke="rgb(33,33,33)" fill="none" stroke-linecap="round"></path><path d="M 249.000,98.500 C 249.158,95.506 249.000,95.500 249.000,92.500" stroke-width="12.479" stroke="rgb(33,33,33)" fill="none" stroke-linecap="round"></path><path d="M 249.000,92.500 C 249.000,91.500 249.000,90.167 249.000,90.500" stroke-width="13.295" stroke="rgb(33,33,33)" fill="none" stroke-linecap="round"></path><path d="M 249.000,90.500 C 249.000,91.167 249.000,92.500 249.000,94.500" stroke-width="14.036" stroke="rgb(33,33,33)" fill="none" stroke-linecap="round"></path><path d="M 249.000,94.500 C 249.000,100.500 249.000,100.500 249.000,106.500" stroke-width="13.542" stroke="rgb(33,33,33)" fill="none" stroke-linecap="round"></path><path d="M 249.000,106.500 C 249.000,113.500 249.000,113.500 249.000,120.500" stroke-width="12.887" stroke="rgb(33,33,33)" fill="none" stroke-linecap="round"></path><path d="M 249.000,120.500 C 249.000,125.000 249.000,125.000 249.000,129.500" stroke-width="12.956" stroke="rgb(33,33,33)" fill="none" stroke-linecap="round"></path><path d="M 249.000,129.500 C 249.000,134.500 247.947,134.936 249.000,139.500" stroke-width="12.915" stroke="rgb(33,33,33)" fill="none" stroke-linecap="round"></path><path d="M 249.000,139.500 C 249.447,141.436 250.296,141.283 252.000,142.500" stroke-width="13.461" stroke="rgb(33,33,33)" fill="none" stroke-linecap="round"></path><path d="M 252.000,142.500 C 253.796,143.783 253.889,143.972 256.000,144.500" stroke-width="13.876" stroke="rgb(33,33,33)" fill="none" stroke-linecap="round"></path><path d="M 256.000,144.500 C 257.889,144.972 258.022,144.720 260.000,144.500" stroke-width="14.316" stroke="rgb(33,33,33)" fill="none" stroke-linecap="round"></path><path d="M 260.000,144.500 C 262.522,144.220 262.817,144.592 265.000,143.500" stroke-width="14.551" stroke="rgb(33,33,33)" fill="none" stroke-linecap="round"></path><path d="M 265.000,143.500 C 266.817,142.592 266.225,141.514 268.000,140.500" stroke-width="14.821" stroke="rgb(33,33,33)" fill="none" stroke-linecap="round"></path><path d="M 268.000,140.500 C 269.725,139.514 269.980,139.837 272.000,139.500" stroke-width="15.094" stroke="rgb(33,33,33)" fill="none" stroke-linecap="round"></path><path d="M 272.000,139.500 C 272.980,139.337 273.000,139.500 274.000,139.500" stroke-width="15.616" stroke="rgb(33,33,33)" fill="none" stroke-linecap="round"></path><path d="M 274.000,139.500 C 275.000,139.500 275.286,140.035 276.000,139.500" stroke-width="16.041" stroke="rgb(33,33,33)" fill="none" stroke-linecap="round"></path><path d="M 276.000,139.500 C 277.286,138.535 277.107,138.062 278.000,136.500" stroke-width="16.200" stroke="rgb(33,33,33)" fill="none" stroke-linecap="round"></path><path d="M 278.000,136.500 C 279.107,134.562 279.000,134.500 280.000,132.500" stroke-width="16.124" stroke="rgb(33,33,33)" fill="none" stroke-linecap="round"></path><path d="M 280.000,132.500 C 280.500,131.500 280.387,131.419 281.000,130.500" stroke-width="16.450" stroke="rgb(33,33,33)" fill="none" stroke-linecap="round"></path><path d="M 281.000,130.500 C 281.387,129.919 281.379,129.707 282.000,129.500" stroke-width="16.854" stroke="rgb(33,33,33)" fill="none" stroke-linecap="round"></path><path d="M 282.000,129.500 C 282.879,129.207 283.014,129.359 284.000,129.500" stroke-width="17.072" stroke="rgb(33,33,33)" fill="none" stroke-linecap="round"></path><path d="M 284.000,129.500 C 286.514,129.859 286.783,129.392 289.000,130.500" stroke-width="16.750" stroke="rgb(33,33,33)" fill="none" stroke-linecap="round"></path><path d="M 289.000,130.500 C 291.783,131.892 291.123,133.393 294.000,134.500" stroke-width="16.298" stroke="rgb(33,33,33)" fill="none" stroke-linecap="round"></path><path d="M 294.000,134.500 C 297.623,135.893 297.986,135.232 302.000,135.500" stroke-width="15.640" stroke="rgb(33,33,33)" fill="none" stroke-linecap="round"></path><path d="M 302.000,135.500 C 305.486,135.732 305.798,136.485 309.000,135.500" stroke-width="15.362" stroke="rgb(33,33,33)" fill="none" stroke-linecap="round"></path><path d="M 309.000,135.500 C 312.298,134.485 312.167,133.704 315.000,131.500" stroke-width="15.060" stroke="rgb(33,33,33)" fill="none" stroke-linecap="round"></path><path d="M 315.000,131.500 C 316.667,130.204 316.500,130.000 318.000,128.500" stroke-width="15.276" stroke="rgb(33,33,33)" fill="none" stroke-linecap="round"></path><path d="M 318.000,128.500 C 319.000,127.500 318.883,127.338 320.000,126.500" stroke-width="15.652" stroke="rgb(33,33,33)" fill="none" stroke-linecap="round"></path><circle r="6" cx="298" cy="83.5" fill="rgb(33,33,33)"></circle></svg>