<svg xmlns="http://www.w3.org/2000/svg" xmlns:xlink="http://www.w3.org/1999/xlink" viewBox="0 0 375 500"><path d="M 103.000,295.500 C 103.000,291.000 103.000,291.000 103.000,286.500" stroke-width="19.418" stroke="rgb(33,33,33)" fill="none" stroke-linecap="round"></path><path d="M 103.000,286.500 C 103.000,281.500 103.618,281.444 103.000,276.500" stroke-width="17.579" stroke="rgb(33,33,33)" fill="none" stroke-linecap="round"></path><path d="M 103.000,276.500 C 101.618,265.444 100.774,265.537 99.000,254.500" stroke-width="14.781" stroke="rgb(33,33,33)" fill="none" stroke-linecap="round"></path><path d="M 99.000,254.500 C 96.274,237.537 96.271,237.531 94.000,220.500" stroke-width="11.735" stroke="rgb(33,33,33)" fill="none" stroke-linecap="round"></path><path d="M 94.000,220.500 C 91.271,200.031 90.912,200.055 89.000,179.500" stroke-width="9.502" stroke="rgb(33,33,33)" fill="none" stroke-linecap="round"></path><path d="M 89.000,179.500 C 86.912,157.055 86.743,157.025 86.000,134.500" stroke-width="8.203" stroke="rgb(33,33,33)" fill="none" stroke-linecap="round"></path><path d="M 86.000,134.500 C 85.243,111.525 86.000,111.500 86.000,88.500" stroke-width="7.455" stroke="rgb(33,33,33)" fill="none" stroke-linecap="round"></path><path d="M 86.000,88.500 C 86.000,68.000 86.611,67.977 86.000,47.500" stroke-width="7.092" stroke="rgb(33,33,33)" fill="none" stroke-linecap="round"></path><path d="M 86.000,47.500 C 85.611,34.477 86.229,34.238 84.000,21.500" stroke-width="7.151" stroke="rgb(33,33,33)" fill="none" stroke-linecap="round"></path><path d="M 84.000,21.500 C 82.729,14.238 82.591,13.605 79.000,7.500" stroke-width="7.804" stroke="rgb(33,33,33)" fill="none" stroke-linecap="round"></path><path d="M 79.000,7.500 C 77.591,5.105 76.500,4.500 74.000,4.500" stroke-width="8.464" stroke="rgb(33,33,33)" fill="none" stroke-linecap="round"></path><path d="M 74.000,4.500 C 71.500,4.500 70.297,4.998 69.000,7.500" stroke-width="9.294" stroke="rgb(33,33,33)" fill="none" stroke-linecap="round"></path><path d="M 69.000,7.500 C 63.297,18.498 63.675,19.251 60.000,31.500" stroke-width="9.022" stroke="rgb(33,33,33)" fill="none" stroke-linecap="round"></path><path d="M 60.000,31.500 C 56.175,44.251 57.000,44.500 54.000,57.500" stroke-width="8.768" stroke="rgb(33,33,33)" fill="none" stroke-linecap="round"></path><path d="M 54.000,57.500 C 51.000,70.500 50.328,70.376 48.000,83.500" stroke-width="8.575" stroke="rgb(33,33,33)" fill="none" stroke-linecap="round"></path><path d="M 48.000,83.500 C 44.828,101.376 44.733,101.426 43.000,119.500" stroke-width="7.961" stroke="rgb(33,33,33)" fill="none" stroke-linecap="round"></path><path d="M 43.000,119.500 C 41.233,137.926 41.721,137.989 41.000,156.500" stroke-width="7.582" stroke="rgb(33,33,33)" fill="none" stroke-linecap="round"></path><path d="M 41.000,156.500 C 40.221,176.489 40.263,176.497 40.000,196.500" stroke-width="7.213" stroke="rgb(33,33,33)" fill="none" stroke-linecap="round"></path><path d="M 40.000,196.500 C 39.763,214.497 39.447,214.519 40.000,232.500" stroke-width="6.993" stroke="rgb(33,33,33)" fill="none" stroke-linecap="round"></path><path d="M 40.000,232.500 C 40.447,247.019 40.610,247.039 42.000,261.500" stroke-width="7.031" stroke="rgb(33,33,33)" fill="none" stroke-linecap="round"></path><path d="M 42.000,261.500 C 43.110,273.039 42.989,273.103 45.000,284.500" stroke-width="7.292" stroke="rgb(33,33,33)" fill="none" stroke-linecap="round"></path><path d="M 45.000,284.500 C 45.989,290.103 45.915,290.286 48.000,295.500" stroke-width="7.923" stroke="rgb(33,33,33)" fill="none" stroke-linecap="round"></path><path d="M 48.000,295.500 C 48.915,297.786 49.162,297.969 51.000,299.500" stroke-width="8.791" stroke="rgb(33,33,33)" fill="none" stroke-linecap="round"></path><path d="M 51.000,299.500 C 52.162,300.469 52.789,301.226 54.000,300.500" stroke-width="9.736" stroke="rgb(33,33,33)" fill="none" stroke-linecap="round"></path><path d="M 54.000,300.500 C 57.789,298.226 58.310,297.606 61.000,293.500" stroke-width="10.188" stroke="rgb(33,33,33)" fill="none" stroke-linecap="round"></path><path d="M 61.000,293.500 C 67.810,283.106 67.072,282.539 73.000,271.500" stroke-width="9.712" stroke="rgb(33,33,33)" fill="none" stroke-linecap="round"></path><path d="M 73.000,271.500 C 81.572,255.539 80.863,255.129 90.000,239.500" stroke-width="8.725" stroke="rgb(33,33,33)" fill="none" stroke-linecap="round"></path><path d="M 90.000,239.500 C 99.863,222.629 100.324,222.886 111.000,206.500" stroke-width="8.046" stroke="rgb(33,33,33)" fill="none" stroke-linecap="round"></path><path d="M 111.000,206.500 C 121.824,189.886 121.170,189.369 133.000,173.500" stroke-width="7.556" stroke="rgb(33,33,33)" fill="none" stroke-linecap="round"></path><path d="M 133.000,173.500 C 141.670,161.869 142.327,162.345 152.000,151.500" stroke-width="7.539" stroke="rgb(33,33,33)" fill="none" stroke-linecap="round"></path><path d="M 152.000,151.500 C 158.827,143.845 159.083,144.075 166.000,136.500" stroke-width="7.772" stroke="rgb(33,33,33)" fill="none" stroke-linecap="round"></path><path d="M 166.000,136.500 C 169.583,132.575 169.640,132.607 173.000,128.500" stroke-width="8.378" stroke="rgb(33,33,33)" fill="none" stroke-linecap="round"></path><path d="M 173.000,128.500 C 174.140,127.107 175.632,125.184 175.000,125.500" stroke-width="9.305" stroke="rgb(33,33,33)" fill="none" stroke-linecap="round"></path><path d="M 175.000,125.500 C 173.632,126.184 171.687,127.679 169.000,130.500" stroke-width="10.177" stroke="rgb(33,33,33)" fill="none" stroke-linecap="round"></path><path d="M 169.000,130.500 C 161.687,138.179 161.580,138.165 155.000,146.500" stroke-width="9.985" stroke="rgb(33,33,33)" fill="none" stroke-linecap="round"></path><path d="M 155.000,146.500 C 146.580,157.165 146.781,157.347 139.000,168.500" stroke-width="9.531" stroke="rgb(33,33,33)" fill="none" stroke-linecap="round"></path><path d="M 139.000,168.500 C 131.781,178.847 131.877,178.920 125.000,189.500" stroke-width="9.141" stroke="rgb(33,33,33)" fill="none" stroke-linecap="round"></path><path d="M 125.000,189.500 C 118.877,198.920 118.822,198.893 113.000,208.500" stroke-width="9.054" stroke="rgb(33,33,33)" fill="none" stroke-linecap="round"></path><path d="M 113.000,208.500 C 108.822,215.393 108.222,215.178 105.000,222.500" stroke-width="9.243" stroke="rgb(33,33,33)" fill="none" stroke-linecap="round"></path><path d="M 105.000,222.500 C 102.722,227.678 102.731,227.897 102.000,233.500" stroke-width="9.665" stroke="rgb(33,33,33)" fill="none" stroke-linecap="round"></path><path d="M 102.000,233.500 C 101.231,239.397 102.000,239.500 102.000,245.500" stroke-width="10.077" stroke="rgb(33,33,33)" fill="none" stroke-linecap="round"></path><path d="M 102.000,245.500 C 102.000,250.000 100.456,250.640 102.000,254.500" stroke-width="10.546" stroke="rgb(33,33,33)" fill="none" stroke-linecap="round"></path><path d="M 102.000,254.500 C 103.456,258.140 104.411,258.705 108.000,260.500" stroke-width="11.030" stroke="rgb(33,33,33)" fill="none" stroke-linecap="round"></path><path d="M 108.000,260.500 C 111.411,262.205 112.026,261.721 116.000,261.500" stroke-width="11.482" stroke="rgb(33,33,33)" fill="none" stroke-linecap="round"></path><path d="M 116.000,261.500 C 121.026,261.221 122.278,262.477 126.000,259.500" stroke-width="11.649" stroke="rgb(33,33,33)" fill="none" stroke-linecap="round"></path><path d="M 126.000,259.500 C 132.278,254.477 132.092,253.056 136.000,245.500" stroke-width="11.294" stroke="rgb(33,33,33)" fill="none" stroke-linecap="round"></path><path d="M 136.000,245.500 C 139.592,238.556 139.234,238.153 141.000,230.500" stroke-width="11.124" stroke="rgb(33,33,33)" fill="none" stroke-linecap="round"></path><path d="M 141.000,230.500 C 142.234,225.153 141.710,225.010 142.000,219.500" stroke-width="11.285" stroke="rgb(33,33,33)" fill="none" stroke-linecap="round"></path><path d="M 142.000,219.500 C 142.210,215.510 142.000,215.500 142.000,211.500" stroke-width="11.707" stroke="rgb(33,33,33)" fill="none" stroke-linecap="round"></path><path d="M 142.000,211.500 C 142.000,208.500 142.879,208.136 142.000,205.500" stroke-width="12.241" stroke="rgb(33,33,33)" fill="none" stroke-linecap="round"></path><path d="M 142.000,205.500 C 141.379,203.636 140.817,202.954 139.000,202.500" stroke-width="12.845" stroke="rgb(33,33,33)" fill="none" stroke-linecap="round"></path><path d="M 139.000,202.500 C 136.817,201.954 135.313,201.695 134.000,203.500" stroke-width="13.312" stroke="rgb(33,33,33)" fill="none" stroke-linecap="round"></path><path d="M 134.000,203.500 C 131.313,207.195 131.668,208.378 131.000,213.500" stroke-width="13.151" stroke="rgb(33,33,33)" fill="none" stroke-linecap="round"></path><path d="M 131.000,213.500 C 130.168,219.878 131.000,220.000 131.000,226.500" stroke-width="12.701" stroke="rgb(33,33,33)" fill="none" stroke-linecap="round"></path><path d="M 131.000,226.500 C 131.000,230.000 129.967,230.745 131.000,233.500" stroke-width="12.999" stroke="rgb(33,33,33)" fill="none" stroke-linecap="round"></path><path d="M 131.000,233.500 C 131.467,234.745 132.468,234.628 134.000,234.500" stroke-width="13.629" stroke="rgb(33,33,33)" fill="none" stroke-linecap="round"></path><path d="M 134.000,234.500 C 138.468,234.128 140.666,235.933 143.000,232.500" stroke-width="13.581" stroke="rgb(33,33,33)" fill="none" stroke-linecap="round"></path><path d="M 143.000,232.500 C 149.166,223.433 148.057,221.273 151.000,209.500" stroke-width="11.790" stroke="rgb(33,33,33)" fill="none" stroke-linecap="round"></path><path d="M 151.000,209.500 C 154.557,195.273 153.860,195.054 156.000,180.500" stroke-width="10.652" stroke="rgb(33,33,33)" fill="none" stroke-linecap="round"></path><path d="M 156.000,180.500 C 158.860,161.054 158.942,161.046 161.000,141.500" stroke-width="9.153" stroke="rgb(33,33,33)" fill="none" stroke-linecap="round"></path><path d="M 161.000,141.500 C 162.942,123.046 162.766,123.017 164.000,104.500" stroke-width="8.415" stroke="rgb(33,33,33)" fill="none" stroke-linecap="round"></path><path d="M 164.000,104.500 C 164.766,93.017 164.689,93.004 165.000,81.500" stroke-width="8.451" stroke="rgb(33,33,33)" fill="none" stroke-linecap="round"></path><path d="M 165.000,81.500 C 165.189,74.504 165.795,74.259 165.000,67.500" stroke-width="8.836" stroke="rgb(33,33,33)" fill="none" stroke-linecap="round"></path><path d="M 165.000,67.500 C 164.795,65.759 164.286,65.465 163.000,64.500" stroke-width="9.755" stroke="rgb(33,33,33)" fill="none" stroke-linecap="round"></path><path d="M 163.000,64.500 C 162.286,63.965 161.209,63.611 161.000,64.500" stroke-width="10.754" stroke="rgb(33,33,33)" fill="none" stroke-linecap="round"></path><path d="M 161.000,64.500 C 159.209,72.111 159.474,72.969 159.000,81.500" stroke-width="10.467" stroke="rgb(33,33,33)" fill="none" stroke-linecap="round"></path><path d="M 159.000,81.500 C 158.474,90.969 159.000,91.000 159.000,100.500" stroke-width="10.273" stroke="rgb(33,33,33)" fill="none" stroke-linecap="round"></path><path d="M 159.000,100.500 C 159.000,114.000 158.252,114.041 159.000,127.500" stroke-width="9.668" stroke="rgb(33,33,33)" fill="none" stroke-linecap="round"></path><path d="M 159.000,127.500 C 159.752,141.041 159.974,141.080 162.000,154.500" stroke-width="9.141" stroke="rgb(33,33,33)" fill="none" stroke-linecap="round"></path><path d="M 162.000,154.500 C 163.974,167.580 164.102,167.590 167.000,180.500" stroke-width="8.867" stroke="rgb(33,33,33)" fill="none" stroke-linecap="round"></path><path d="M 167.000,180.500 C 169.602,192.090 169.775,192.065 173.000,203.500" stroke-width="8.779" stroke="rgb(33,33,33)" fill="none" stroke-linecap="round"></path><path d="M 173.000,203.500 C 175.275,211.565 175.260,211.585 178.000,219.500" stroke-width="8.981" stroke="rgb(33,33,33)" fill="none" stroke-linecap="round"></path><path d="M 178.000,219.500 C 179.760,224.585 179.729,224.634 182.000,229.500" stroke-width="9.505" stroke="rgb(33,33,33)" fill="none" stroke-linecap="round"></path><path d="M 182.000,229.500 C 183.229,232.134 183.138,232.638 185.000,234.500" stroke-width="10.283" stroke="rgb(33,33,33)" fill="none" stroke-linecap="round"></path><path d="M 185.000,234.500 C 185.638,235.138 186.718,235.347 187.000,234.500" stroke-width="11.237" stroke="rgb(33,33,33)" fill="none" stroke-linecap="round"></path><path d="M 187.000,234.500 C 188.718,229.347 188.697,228.558 189.000,222.500" stroke-width="11.346" stroke="rgb(33,33,33)" fill="none" stroke-linecap="round"></path><path d="M 189.000,222.500 C 189.697,208.558 189.000,208.500 189.000,194.500" stroke-width="10.346" stroke="rgb(33,33,33)" fill="none" stroke-linecap="round"></path><path d="M 189.000,194.500 C 189.000,173.000 190.046,172.946 189.000,151.500" stroke-width="8.792" stroke="rgb(33,33,33)" fill="none" stroke-linecap="round"></path><path d="M 189.000,151.500 C 188.046,131.946 186.775,132.020 185.000,112.500" stroke-width="8.171" stroke="rgb(33,33,33)" fill="none" stroke-linecap="round"></path><path d="M 185.000,112.500 C 183.775,99.020 183.900,99.006 183.000,85.500" stroke-width="8.032" stroke="rgb(33,33,33)" fill="none" stroke-linecap="round"></path><path d="M 183.000,85.500 C 182.400,76.506 182.346,76.504 182.000,67.500" stroke-width="8.292" stroke="rgb(33,33,33)" fill="none" stroke-linecap="round"></path><path d="M 182.000,67.500 C 181.846,63.504 182.425,63.324 182.000,59.500" stroke-width="9.009" stroke="rgb(33,33,33)" fill="none" stroke-linecap="round"></path><path d="M 182.000,59.500 C 181.925,58.824 181.293,58.500 181.000,58.500" stroke-width="10.055" stroke="rgb(33,33,33)" fill="none" stroke-linecap="round"></path><path d="M 181.000,58.500 C 180.793,58.500 181.000,59.000 181.000,59.500" stroke-width="11.099" stroke="rgb(33,33,33)" fill="none" stroke-linecap="round"></path><path d="M 181.000,59.500 C 181.000,69.000 181.000,69.000 181.000,78.500" stroke-width="10.753" stroke="rgb(33,33,33)" fill="none" stroke-linecap="round"></path><path d="M 181.000,78.500 C 181.000,90.000 181.000,90.000 181.000,101.500" stroke-width="10.155" stroke="rgb(33,33,33)" fill="none" stroke-linecap="round"></path><path d="M 181.000,101.500 C 181.000,114.000 181.000,114.000 181.000,126.500" stroke-width="9.608" stroke="rgb(33,33,33)" fill="none" stroke-linecap="round"></path><path d="M 181.000,126.500 C 181.000,139.000 180.501,139.020 181.000,151.500" stroke-width="9.210" stroke="rgb(33,33,33)" fill="none" stroke-linecap="round"></path><path d="M 181.000,151.500 C 181.501,164.020 182.444,163.982 183.000,176.500" stroke-width="8.984" stroke="rgb(33,33,33)" fill="none" stroke-linecap="round"></path><path d="M 183.000,176.500 C 183.444,186.482 183.000,186.500 183.000,196.500" stroke-width="9.046" stroke="rgb(33,33,33)" fill="none" stroke-linecap="round"></path><path d="M 183.000,196.500 C 183.000,203.000 184.286,203.389 183.000,209.500" stroke-width="9.446" stroke="rgb(33,33,33)" fill="none" stroke-linecap="round"></path><path d="M 183.000,209.500 C 182.286,212.889 181.777,213.733 179.000,215.500" stroke-width="10.126" stroke="rgb(33,33,33)" fill="none" stroke-linecap="round"></path><path d="M 179.000,215.500 C 176.277,217.233 175.449,216.746 172.000,216.500" stroke-width="10.724" stroke="rgb(33,33,33)" fill="none" stroke-linecap="round"></path><path d="M 172.000,216.500 C 168.449,216.246 167.613,216.678 165.000,214.500" stroke-width="11.330" stroke="rgb(33,33,33)" fill="none" stroke-linecap="round"></path><path d="M 165.000,214.500 C 161.613,211.678 161.206,210.922 160.000,206.500" stroke-width="11.587" stroke="rgb(33,33,33)" fill="none" stroke-linecap="round"></path><path d="M 160.000,206.500 C 158.206,199.922 159.000,199.503 159.000,192.500" stroke-width="11.417" stroke="rgb(33,33,33)" fill="none" stroke-linecap="round"></path><path d="M 159.000,192.500 C 159.000,184.003 157.805,183.547 160.000,175.500" stroke-width="11.200" stroke="rgb(33,33,33)" fill="none" stroke-linecap="round"></path><path d="M 160.000,175.500 C 162.305,167.047 163.659,167.313 168.000,159.500" stroke-width="10.646" stroke="rgb(33,33,33)" fill="none" stroke-linecap="round"></path><path d="M 168.000,159.500 C 173.659,149.313 173.298,148.994 180.000,139.500" stroke-width="10.145" stroke="rgb(33,33,33)" fill="none" stroke-linecap="round"></path><path d="M 180.000,139.500 C 185.298,131.994 185.072,131.401 192.000,125.500" stroke-width="10.056" stroke="rgb(33,33,33)" fill="none" stroke-linecap="round"></path><path d="M 192.000,125.500 C 198.572,119.901 199.165,120.272 207.000,116.500" stroke-width="10.041" stroke="rgb(33,33,33)" fill="none" stroke-linecap="round"></path><path d="M 242.000,124.500 C 241.500,129.000 241.226,128.985 241.000,133.500" stroke-width="17.595" stroke="rgb(33,33,33)" fill="none" stroke-linecap="round"></path><path d="M 241.000,133.500 C 240.726,138.985 241.000,139.000 241.000,144.500" stroke-width="14.833" stroke="rgb(33,33,33)" fill="none" stroke-linecap="round"></path><path d="M 241.000,144.500 C 241.000,148.000 241.000,148.000 241.000,151.500" stroke-width="14.782" stroke="rgb(33,33,33)" fill="none" stroke-linecap="round"></path><path d="M 278.000,159.500 C 280.500,158.000 280.435,157.881 283.000,156.500" stroke-width="19.347" stroke="rgb(33,33,33)" fill="none" stroke-linecap="round"></path><path d="M 283.000,156.500 C 286.935,154.381 287.703,155.357 291.000,152.500" stroke-width="17.622" stroke="rgb(33,33,33)" fill="none" stroke-linecap="round"></path><path d="M 291.000,152.500 C 295.203,148.857 294.787,148.196 298.000,143.500" stroke-width="16.252" stroke="rgb(33,33,33)" fill="none" stroke-linecap="round"></path><path d="M 298.000,143.500 C 301.287,138.696 301.403,138.694 304.000,133.500" stroke-width="15.267" stroke="rgb(33,33,33)" fill="none" stroke-linecap="round"></path><path d="M 304.000,133.500 C 305.903,129.694 305.978,129.587 307.000,125.500" stroke-width="14.804" stroke="rgb(33,33,33)" fill="none" stroke-linecap="round"></path><path d="M 307.000,125.500 C 307.478,123.587 307.728,121.743 307.000,121.500" stroke-width="15.026" stroke="rgb(33,33,33)" fill="none" stroke-linecap="round"></path><path d="M 307.000,121.500 C 306.228,121.243 304.895,122.610 304.000,124.500" stroke-width="15.531" stroke="rgb(33,33,33)" fill="none" stroke-linecap="round"></path><path d="M 304.000,124.500 C 300.395,132.110 300.337,132.322 298.000,140.500" stroke-width="14.132" stroke="rgb(33,33,33)" fill="none" stroke-linecap="round"></path><path d="M 298.000,140.500 C 296.337,146.322 296.724,146.466 296.000,152.500" stroke-width="13.514" stroke="rgb(33,33,33)" fill="none" stroke-linecap="round"></path><path d="M 296.000,152.500 C 295.224,158.966 295.325,158.993 295.000,165.500" stroke-width="13.047" stroke="rgb(33,33,33)" fill="none" stroke-linecap="round"></path><path d="M 295.000,165.500 C 294.825,168.993 294.125,169.292 295.000,172.500" stroke-width="13.287" stroke="rgb(33,33,33)" fill="none" stroke-linecap="round"></path><path d="M 295.000,172.500 C 295.625,174.792 296.074,175.056 298.000,176.500" stroke-width="13.666" stroke="rgb(33,33,33)" fill="none" stroke-linecap="round"></path><path d="M 298.000,176.500 C 300.074,178.056 300.407,177.981 303.000,178.500" stroke-width="13.978" stroke="rgb(33,33,33)" fill="none" stroke-linecap="round"></path><path d="M 303.000,178.500 C 305.407,178.981 306.350,180.000 308.000,178.500" stroke-width="14.282" stroke="rgb(33,33,33)" fill="none" stroke-linecap="round"></path><path d="M 308.000,178.500 C 311.850,175.000 312.053,173.907 314.000,168.500" stroke-width="13.834" stroke="rgb(33,33,33)" fill="none" stroke-linecap="round"></path><path d="M 314.000,168.500 C 316.553,161.407 315.820,161.051 317.000,153.500" stroke-width="12.962" stroke="rgb(33,33,33)" fill="none" stroke-linecap="round"></path><path d="M 317.000,153.500 C 318.320,145.051 317.198,144.834 319.000,136.500" stroke-width="12.347" stroke="rgb(33,33,33)" fill="none" stroke-linecap="round"></path><path d="M 319.000,136.500 C 321.198,126.334 320.986,126.088 325.000,116.500" stroke-width="11.186" stroke="rgb(33,33,33)" fill="none" stroke-linecap="round"></path><path d="M 325.000,116.500 C 329.986,104.588 330.371,104.628 337.000,93.500" stroke-width="10.366" stroke="rgb(33,33,33)" fill="none" stroke-linecap="round"></path></svg>