<svg xmlns="http://www.w3.org/2000/svg" xmlns:xlink="http://www.w3.org/1999/xlink" viewBox="0 0 360 500"><path d="M 287.101,114.846 C 281.063,119.382 281.036,119.346 275.025,123.917" stroke-width="18.828" stroke="rgb(33,33,33)" fill="none" stroke-linecap="round"></path><path d="M 275.025,123.917 C 268.389,128.963 268.439,129.029 261.806,134.079" stroke-width="15.960" stroke="rgb(33,33,33)" fill="none" stroke-linecap="round"></path><path d="M 261.806,134.079 C 250.868,142.407 250.737,142.238 239.883,150.673" stroke-width="13.460" stroke="rgb(33,33,33)" fill="none" stroke-linecap="round"></path><path d="M 239.883,150.673 C 225.680,161.710 225.599,161.619 211.691,173.024" stroke-width="11.798" stroke="rgb(33,33,33)" fill="none" stroke-linecap="round"></path><path d="M 211.691,173.024 C 195.417,186.369 195.577,186.565 179.519,200.173" stroke-width="9.312" stroke="rgb(33,33,33)" fill="none" stroke-linecap="round"></path><path d="M 179.519,200.173 C 162.442,214.644 162.706,214.964 145.422,229.182" stroke-width="7.540" stroke="rgb(33,33,33)" fill="none" stroke-linecap="round"></path><path d="M 145.422,229.182 C 130.531,241.431 130.599,241.554 115.170,253.107" stroke-width="7.351" stroke="rgb(33,33,33)" fill="none" stroke-linecap="round"></path><path d="M 115.170,253.107 C 104.215,261.309 104.110,261.210 92.653,268.692" stroke-width="7.600" stroke="rgb(33,33,33)" fill="none" stroke-linecap="round"></path><path d="M 92.653,268.692 C 86.029,273.018 86.088,273.354 79.008,276.724" stroke-width="8.006" stroke="rgb(33,33,33)" fill="none" stroke-linecap="round"></path><path d="M 79.008,276.724 C 76.146,278.086 75.901,277.724 72.769,278.157" stroke-width="8.611" stroke="rgb(33,33,33)" fill="none" stroke-linecap="round"></path><path d="M 72.769,278.157 C 71.752,278.298 70.476,278.349 70.709,277.872" stroke-width="9.633" stroke="rgb(33,33,33)" fill="none" stroke-linecap="round"></path><path d="M 70.709,277.872 C 71.205,276.854 72.464,276.514 74.227,275.167" stroke-width="10.453" stroke="rgb(33,33,33)" fill="none" stroke-linecap="round"></path><path d="M 74.227,275.167 C 79.784,270.919 79.830,270.980 85.348,266.682" stroke-width="10.458" stroke="rgb(33,33,33)" fill="none" stroke-linecap="round"></path><path d="M 85.348,266.682 C 96.046,258.349 95.722,257.910 106.659,249.905" stroke-width="10.148" stroke="rgb(33,33,33)" fill="none" stroke-linecap="round"></path><path d="M 106.659,249.905 C 118.477,241.255 118.464,241.172 130.859,233.373" stroke-width="9.142" stroke="rgb(33,33,33)" fill="none" stroke-linecap="round"></path><path d="M 130.859,233.373 C 144.651,224.695 144.716,224.738 159.032,216.950" stroke-width="8.871" stroke="rgb(33,33,33)" fill="none" stroke-linecap="round"></path><path d="M 159.032,216.950 C 171.888,209.957 171.845,209.763 185.203,203.811" stroke-width="7.565" stroke="rgb(33,33,33)" fill="none" stroke-linecap="round"></path><path d="M 185.203,203.811 C 196.754,198.664 196.881,198.855 208.850,194.753" stroke-width="7.672" stroke="rgb(33,33,33)" fill="none" stroke-linecap="round"></path><path d="M 208.850,194.753 C 219.822,190.993 219.786,190.234 231.086,188.087" stroke-width="7.881" stroke="rgb(33,33,33)" fill="none" stroke-linecap="round"></path><path d="M 231.086,188.087 C 237.801,186.812 238.065,187.269 244.879,187.909" stroke-width="8.375" stroke="rgb(33,33,33)" fill="none" stroke-linecap="round"></path><path d="M 244.879,187.909 C 249.875,188.379 250.029,188.534 254.705,190.307" stroke-width="8.886" stroke="rgb(33,33,33)" fill="none" stroke-linecap="round"></path><path d="M 254.705,190.307 C 257.909,191.522 258.297,191.505 260.640,193.886" stroke-width="9.643" stroke="rgb(33,33,33)" fill="none" stroke-linecap="round"></path><path d="M 260.640,193.886 C 262.672,195.950 262.628,196.374 263.454,199.197" stroke-width="10.467" stroke="rgb(33,33,33)" fill="none" stroke-linecap="round"></path><path d="M 263.454,199.197 C 264.253,201.928 264.004,202.109 263.889,204.995" stroke-width="10.864" stroke="rgb(33,33,33)" fill="none" stroke-linecap="round"></path><path d="M 263.889,204.995 C 263.773,207.895 264.070,208.128 262.992,210.769" stroke-width="11.531" stroke="rgb(33,33,33)" fill="none" stroke-linecap="round"></path><path d="M 262.992,210.769 C 261.758,213.794 261.323,213.714 259.265,216.328" stroke-width="12.027" stroke="rgb(33,33,33)" fill="none" stroke-linecap="round"></path><path d="M 259.265,216.328 C 258.205,217.674 258.205,217.883 256.755,218.690" stroke-width="12.774" stroke="rgb(33,33,33)" fill="none" stroke-linecap="round"></path><path d="M 256.755,218.690 C 255.569,219.351 255.387,219.103 253.993,219.264" stroke-width="13.504" stroke="rgb(33,33,33)" fill="none" stroke-linecap="round"></path><path d="M 253.993,219.264 C 252.897,219.390 252.618,219.847 251.776,219.264" stroke-width="14.148" stroke="rgb(33,33,33)" fill="none" stroke-linecap="round"></path><path d="M 251.776,219.264 C 249.857,217.937 249.153,217.760 248.471,215.444" stroke-width="14.418" stroke="rgb(33,33,33)" fill="none" stroke-linecap="round"></path><path d="M 248.471,215.444 C 247.093,210.768 247.005,210.278 247.656,205.280" stroke-width="14.093" stroke="rgb(33,33,33)" fill="none" stroke-linecap="round"></path><path d="M 247.656,205.280 C 248.892,195.786 249.588,195.766 252.244,186.461" stroke-width="12.595" stroke="rgb(33,33,33)" fill="none" stroke-linecap="round"></path><path d="M 252.244,186.461 C 254.492,178.589 254.935,178.719 257.464,170.926" stroke-width="11.879" stroke="rgb(33,33,33)" fill="none" stroke-linecap="round"></path><path d="M 257.464,170.926 C 258.516,167.686 258.554,167.685 259.405,164.394" stroke-width="12.351" stroke="rgb(33,33,33)" fill="none" stroke-linecap="round"></path><path d="M 259.405,164.394 C 259.642,163.478 259.545,163.454 259.639,162.512" stroke-width="13.190" stroke="rgb(33,33,33)" fill="none" stroke-linecap="round"></path><path d="M 259.639,162.512 C 259.662,162.287 259.726,162.004 259.639,162.059" stroke-width="14.126" stroke="rgb(33,33,33)" fill="none" stroke-linecap="round"></path><path d="M 259.639,162.059 C 259.453,162.176 259.214,162.397 259.093,162.856" stroke-width="14.901" stroke="rgb(33,33,33)" fill="none" stroke-linecap="round"></path><path d="M 259.093,162.856 C 258.715,164.296 258.971,164.379 258.641,165.856" stroke-width="15.282" stroke="rgb(33,33,33)" fill="none" stroke-linecap="round"></path><path d="M 190.236,137.328 C 192.988,145.850 193.809,145.686 195.740,154.372" stroke-width="19.339" stroke="rgb(33,33,33)" fill="none" stroke-linecap="round"></path><path d="M 195.740,154.372 C 197.054,160.283 196.970,160.478 196.727,166.522" stroke-width="16.872" stroke="rgb(33,33,33)" fill="none" stroke-linecap="round"></path><path d="M 196.727,166.522 C 196.493,172.327 196.010,172.351 194.786,178.070" stroke-width="15.923" stroke="rgb(33,33,33)" fill="none" stroke-linecap="round"></path><path d="M 194.786,178.070 C 193.684,183.220 193.774,183.292 192.076,188.260" stroke-width="14.912" stroke="rgb(33,33,33)" fill="none" stroke-linecap="round"></path><path d="M 192.076,188.260 C 191.074,191.192 191.079,191.394 189.385,193.870" stroke-width="14.979" stroke="rgb(33,33,33)" fill="none" stroke-linecap="round"></path><path d="M 189.385,193.870 C 188.814,194.704 188.525,194.634 187.547,194.880" stroke-width="15.441" stroke="rgb(33,33,33)" fill="none" stroke-linecap="round"></path><path d="M 187.547,194.880 C 186.705,195.091 186.576,195.092 185.745,194.784" stroke-width="16.001" stroke="rgb(33,33,33)" fill="none" stroke-linecap="round"></path><path d="M 185.745,194.784 C 183.636,194.004 183.105,194.351 181.667,192.704" stroke-width="15.785" stroke="rgb(33,33,33)" fill="none" stroke-linecap="round"></path><path d="M 181.667,192.704 C 179.386,190.093 179.851,189.550 178.307,186.268" stroke-width="15.438" stroke="rgb(33,33,33)" fill="none" stroke-linecap="round"></path><path d="M 178.307,186.268 C 176.781,183.023 177.053,182.890 175.527,179.650" stroke-width="14.892" stroke="rgb(33,33,33)" fill="none" stroke-linecap="round"></path><path d="M 175.527,179.650 C 174.862,178.238 174.467,178.289 173.925,176.964" stroke-width="15.332" stroke="rgb(33,33,33)" fill="none" stroke-linecap="round"></path><path d="M 173.925,176.964 C 173.833,176.738 174.269,176.350 174.258,176.548" stroke-width="16.039" stroke="rgb(33,33,33)" fill="none" stroke-linecap="round"></path><path d="M 174.258,176.548 C 174.186,177.785 174.109,178.212 173.759,179.834" stroke-width="16.453" stroke="rgb(33,33,33)" fill="none" stroke-linecap="round"></path><path d="M 173.759,179.834 C 173.214,182.361 173.253,182.384 172.467,184.846" stroke-width="16.090" stroke="rgb(33,33,33)" fill="none" stroke-linecap="round"></path><path d="M 172.467,184.846 C 171.524,187.803 171.288,187.728 170.301,190.673" stroke-width="15.916" stroke="rgb(33,33,33)" fill="none" stroke-linecap="round"></path><path d="M 170.301,190.673 C 169.631,192.671 170.005,192.855 169.153,194.731" stroke-width="16.012" stroke="rgb(33,33,33)" fill="none" stroke-linecap="round"></path><path d="M 169.153,194.731 C 168.725,195.674 168.528,195.628 167.740,196.310" stroke-width="16.424" stroke="rgb(33,33,33)" fill="none" stroke-linecap="round"></path><path d="M 167.740,196.310 C 167.343,196.653 167.272,196.593 166.783,196.782" stroke-width="16.852" stroke="rgb(33,33,33)" fill="none" stroke-linecap="round"></path><path d="M 166.783,196.782 C 166.662,196.829 166.520,196.889 166.519,196.782" stroke-width="17.385" stroke="rgb(33,33,33)" fill="none" stroke-linecap="round"></path><path d="M 166.519,196.782 C 166.513,196.279 166.712,196.179 166.768,195.562" stroke-width="17.769" stroke="rgb(33,33,33)" fill="none" stroke-linecap="round"></path><path d="M 166.768,195.562 C 166.837,194.804 166.768,194.797 166.768,194.032" stroke-width="17.907" stroke="rgb(33,33,33)" fill="none" stroke-linecap="round"></path><path d="M 166.768,194.032 C 166.768,193.386 166.768,193.386 166.768,192.740" stroke-width="18.096" stroke="rgb(33,33,33)" fill="none" stroke-linecap="round"></path><path d="M 166.768,192.740 C 166.768,192.388 166.946,191.813 166.768,192.035" stroke-width="18.351" stroke="rgb(33,33,33)" fill="none" stroke-linecap="round"></path><path d="M 166.768,192.035 C 165.292,193.876 165.368,194.678 163.460,196.866" stroke-width="18.108" stroke="rgb(33,33,33)" fill="none" stroke-linecap="round"></path><path d="M 163.460,196.866 C 161.901,198.653 161.644,198.422 159.835,199.986" stroke-width="17.413" stroke="rgb(33,33,33)" fill="none" stroke-linecap="round"></path><path d="M 159.835,199.986 C 158.373,201.249 158.420,201.307 156.917,202.520" stroke-width="17.350" stroke="rgb(33,33,33)" fill="none" stroke-linecap="round"></path><path d="M 156.917,202.520 C 155.090,203.994 155.088,203.999 153.174,205.360" stroke-width="16.863" stroke="rgb(33,33,33)" fill="none" stroke-linecap="round"></path><path d="M 153.174,205.360 C 151.126,206.816 151.167,206.899 148.993,208.153" stroke-width="16.686" stroke="rgb(33,33,33)" fill="none" stroke-linecap="round"></path><path d="M 148.993,208.153 C 146.439,209.626 146.471,209.801 143.719,210.812" stroke-width="16.269" stroke="rgb(33,33,33)" fill="none" stroke-linecap="round"></path><path d="M 143.719,210.812 C 141.157,211.754 141.069,211.626 138.364,212.059" stroke-width="16.111" stroke="rgb(33,33,33)" fill="none" stroke-linecap="round"></path><path d="M 138.364,212.059 C 136.519,212.355 136.406,212.541 134.619,212.270" stroke-width="16.169" stroke="rgb(33,33,33)" fill="none" stroke-linecap="round"></path><path d="M 134.619,212.270 C 133.554,212.108 133.560,211.847 132.661,211.193" stroke-width="16.488" stroke="rgb(33,33,33)" fill="none" stroke-linecap="round"></path><path d="M 132.661,211.193 C 131.106,210.062 131.052,210.067 129.710,208.699" stroke-width="16.409" stroke="rgb(33,33,33)" fill="none" stroke-linecap="round"></path><path d="M 129.710,208.699 C 128.976,207.950 129.179,207.773 128.508,206.960" stroke-width="16.661" stroke="rgb(33,33,33)" fill="none" stroke-linecap="round"></path><path d="M 128.508,206.960 C 127.615,205.876 127.763,205.568 126.582,204.905" stroke-width="16.824" stroke="rgb(33,33,33)" fill="none" stroke-linecap="round"></path><path d="M 126.582,204.905 C 125.140,204.096 124.934,203.912 123.262,204.015" stroke-width="16.859" stroke="rgb(33,33,33)" fill="none" stroke-linecap="round"></path><path d="M 123.262,204.015 C 119.865,204.225 119.681,204.287 116.445,205.532" stroke-width="16.291" stroke="rgb(33,33,33)" fill="none" stroke-linecap="round"></path><path d="M 116.445,205.532 C 111.440,207.458 111.434,207.636 106.780,210.356" stroke-width="15.232" stroke="rgb(33,33,33)" fill="none" stroke-linecap="round"></path><path d="M 106.780,210.356 C 101.394,213.504 101.648,213.932 96.364,217.267" stroke-width="14.262" stroke="rgb(33,33,33)" fill="none" stroke-linecap="round"></path><path d="M 96.364,217.267 C 91.876,220.099 91.936,220.253 87.237,222.690" stroke-width="13.929" stroke="rgb(33,33,33)" fill="none" stroke-linecap="round"></path><path d="M 87.237,222.690 C 84.406,224.158 84.311,224.654 81.304,225.076" stroke-width="13.982" stroke="rgb(33,33,33)" fill="none" stroke-linecap="round"></path><path d="M 81.304,225.076 C 79.518,225.327 78.113,225.430 77.650,224.036" stroke-width="14.499" stroke="rgb(33,33,33)" fill="none" stroke-linecap="round"></path><path d="M 77.650,224.036 C 76.812,221.512 77.469,220.419 78.701,217.240" stroke-width="14.529" stroke="rgb(33,33,33)" fill="none" stroke-linecap="round"></path><path d="M 78.701,217.240 C 82.094,208.487 82.105,208.307 86.901,200.173" stroke-width="13.169" stroke="rgb(33,33,33)" fill="none" stroke-linecap="round"></path><path d="M 86.901,200.173 C 93.463,189.044 93.356,188.810 101.416,178.715" stroke-width="10.876" stroke="rgb(33,33,33)" fill="none" stroke-linecap="round"></path><path d="M 101.416,178.715 C 110.633,167.171 110.656,166.974 121.456,156.895" stroke-width="9.831" stroke="rgb(33,33,33)" fill="none" stroke-linecap="round"></path><path d="M 121.456,156.895 C 133.146,145.986 133.369,146.037 146.397,136.739" stroke-width="9.100" stroke="rgb(33,33,33)" fill="none" stroke-linecap="round"></path><path d="M 146.397,136.739 C 159.722,127.229 159.820,127.170 174.162,119.279" stroke-width="8.559" stroke="rgb(33,33,33)" fill="none" stroke-linecap="round"></path><path d="M 174.162,119.279 C 187.624,111.872 187.626,111.453 202.006,106.143" stroke-width="8.248" stroke="rgb(33,33,33)" fill="none" stroke-linecap="round"></path><path d="M 202.006,106.143 C 215.041,101.329 215.387,102.068 228.992,99.031" stroke-width="8.125" stroke="rgb(33,33,33)" fill="none" stroke-linecap="round"></path><path d="M 228.992,99.031 C 239.227,96.746 239.275,96.465 249.687,95.499" stroke-width="8.186" stroke="rgb(33,33,33)" fill="none" stroke-linecap="round"></path><path d="M 249.687,95.499 C 257.528,94.771 257.755,94.625 265.497,95.643" stroke-width="8.562" stroke="rgb(33,33,33)" fill="none" stroke-linecap="round"></path><path d="M 265.497,95.643 C 270.211,96.263 270.904,96.112 274.600,98.774" stroke-width="9.182" stroke="rgb(33,33,33)" fill="none" stroke-linecap="round"></path><path d="M 274.600,98.774 C 277.553,100.900 278.783,101.726 278.795,105.218" stroke-width="9.856" stroke="rgb(33,33,33)" fill="none" stroke-linecap="round"></path><path d="M 278.795,105.218 C 278.816,111.190 277.721,111.942 274.666,117.702" stroke-width="10.177" stroke="rgb(33,33,33)" fill="none" stroke-linecap="round"></path><path d="M 274.666,117.702 C 269.487,127.464 269.038,127.384 262.327,136.262" stroke-width="9.693" stroke="rgb(33,33,33)" fill="none" stroke-linecap="round"></path><path d="M 262.327,136.262 C 252.960,148.653 252.901,148.680 242.511,160.240" stroke-width="8.960" stroke="rgb(33,33,33)" fill="none" stroke-linecap="round"></path><path d="M 242.511,160.240 C 228.904,175.378 228.643,175.167 214.333,189.657" stroke-width="8.229" stroke="rgb(33,33,33)" fill="none" stroke-linecap="round"></path><path d="M 214.333,189.657 C 198.571,205.618 198.200,205.251 182.366,221.143" stroke-width="7.419" stroke="rgb(33,33,33)" fill="none" stroke-linecap="round"></path><path d="M 182.366,221.143 C 165.670,237.900 166.061,238.294 149.273,254.956" stroke-width="6.887" stroke="rgb(33,33,33)" fill="none" stroke-linecap="round"></path><path d="M 149.273,254.956 C 135.343,268.781 135.128,268.564 120.930,282.117" stroke-width="6.750" stroke="rgb(33,33,33)" fill="none" stroke-linecap="round"></path><path d="M 120.930,282.117 C 110.596,291.982 110.861,292.288 100.209,301.792" stroke-width="6.822" stroke="rgb(33,33,33)" fill="none" stroke-linecap="round"></path><path d="M 100.209,301.792 C 93.666,307.629 93.325,307.236 86.540,312.799" stroke-width="7.248" stroke="rgb(33,33,33)" fill="none" stroke-linecap="round"></path><path d="M 86.540,312.799 C 83.809,315.038 83.888,315.234 81.178,317.397" stroke-width="8.041" stroke="rgb(33,33,33)" fill="none" stroke-linecap="round"></path><path d="M 81.178,317.397 C 81.062,317.490 80.819,317.428 80.888,317.311" stroke-width="9.130" stroke="rgb(33,33,33)" fill="none" stroke-linecap="round"></path><path d="M 80.888,317.311 C 81.680,315.981 81.782,315.818 82.900,314.503" stroke-width="10.037" stroke="rgb(33,33,33)" fill="none" stroke-linecap="round"></path><path d="M 82.900,314.503 C 88.376,308.065 88.424,308.097 94.077,301.806" stroke-width="10.613" stroke="rgb(33,33,33)" fill="none" stroke-linecap="round"></path><path d="M 94.077,301.806 C 103.292,291.551 103.080,291.344 112.635,281.410" stroke-width="9.416" stroke="rgb(33,33,33)" fill="none" stroke-linecap="round"></path><path d="M 112.635,281.410 C 123.143,270.485 122.227,269.136 134.203,260.089" stroke-width="6.750" stroke="rgb(33,33,33)" fill="none" stroke-linecap="round"></path><path d="M 134.203,260.089 C 144.552,252.272 145.031,250.771 157.285,247.681" stroke-width="6.750" stroke="rgb(33,33,33)" fill="none" stroke-linecap="round"></path><path d="M 157.285,247.681 C 167.736,245.046 169.130,245.707 179.613,248.639" stroke-width="6.750" stroke="rgb(33,33,33)" fill="none" stroke-linecap="round"></path></svg>