<svg xmlns="http://www.w3.org/2000/svg" xmlns:xlink="http://www.w3.org/1999/xlink" viewBox="0 0 360 500"><path d="M 141.000,274.000 C 139.081,266.111 139.433,266.008 137.162,258.222" stroke-width="19.140" stroke="rgb(33,33,33)" fill="none" stroke-linecap="round"></path><path d="M 137.162,258.222 C 135.054,250.995 134.604,251.131 132.241,243.975" stroke-width="16.548" stroke="rgb(33,33,33)" fill="none" stroke-linecap="round"></path><path d="M 132.241,243.975 C 129.431,235.466 129.101,235.549 126.815,226.892" stroke-width="14.433" stroke="rgb(33,33,33)" fill="none" stroke-linecap="round"></path><path d="M 126.815,226.892 C 123.764,215.340 123.736,215.310 121.566,203.557" stroke-width="12.626" stroke="rgb(33,33,33)" fill="none" stroke-linecap="round"></path><path d="M 121.566,203.557 C 118.986,189.581 118.951,189.552 117.314,175.435" stroke-width="12.193" stroke="rgb(33,33,33)" fill="none" stroke-linecap="round"></path><path d="M 117.314,175.435 C 115.869,162.972 116.190,162.927 115.403,150.398" stroke-width="10.201" stroke="rgb(33,33,33)" fill="none" stroke-linecap="round"></path><path d="M 115.403,150.398 C 114.600,137.619 114.680,137.612 114.133,124.819" stroke-width="9.401" stroke="rgb(33,33,33)" fill="none" stroke-linecap="round"></path><path d="M 114.133,124.819 C 113.627,112.964 113.495,112.962 113.297,101.101" stroke-width="9.647" stroke="rgb(33,33,33)" fill="none" stroke-linecap="round"></path><path d="M 113.297,101.101 C 113.179,94.009 113.109,93.988 113.500,86.912" stroke-width="9.942" stroke="rgb(33,33,33)" fill="none" stroke-linecap="round"></path><path d="M 113.500,86.912 C 113.787,81.718 113.778,81.680 114.653,76.561" stroke-width="10.236" stroke="rgb(33,33,33)" fill="none" stroke-linecap="round"></path><path d="M 114.653,76.561 C 115.195,73.391 114.958,73.115 116.333,70.333" stroke-width="10.417" stroke="rgb(33,33,33)" fill="none" stroke-linecap="round"></path><path d="M 116.333,70.333 C 117.039,68.904 117.297,68.415 118.815,68.139" stroke-width="10.947" stroke="rgb(33,33,33)" fill="none" stroke-linecap="round"></path><path d="M 118.815,68.139 C 121.951,67.569 122.553,67.389 125.641,68.642" stroke-width="11.471" stroke="rgb(33,33,33)" fill="none" stroke-linecap="round"></path><path d="M 125.641,68.642 C 131.270,70.925 131.392,71.348 136.249,75.211" stroke-width="11.452" stroke="rgb(33,33,33)" fill="none" stroke-linecap="round"></path><path d="M 136.249,75.211 C 142.667,80.316 142.772,80.398 148.191,86.578" stroke-width="11.197" stroke="rgb(33,33,33)" fill="none" stroke-linecap="round"></path><path d="M 148.191,86.578 C 155.779,95.232 155.927,95.263 162.262,104.879" stroke-width="10.639" stroke="rgb(33,33,33)" fill="none" stroke-linecap="round"></path><path d="M 162.262,104.879 C 169.307,115.572 169.452,115.639 174.952,127.196" stroke-width="9.909" stroke="rgb(33,33,33)" fill="none" stroke-linecap="round"></path><path d="M 174.952,127.196 C 180.007,137.818 179.620,138.060 183.371,149.237" stroke-width="9.508" stroke="rgb(33,33,33)" fill="none" stroke-linecap="round"></path><path d="M 183.371,149.237 C 188.134,163.430 188.064,163.483 191.981,177.935" stroke-width="9.250" stroke="rgb(33,33,33)" fill="none" stroke-linecap="round"></path><path d="M 191.981,177.935 C 194.829,188.443 194.299,188.581 196.900,199.157" stroke-width="8.950" stroke="rgb(33,33,33)" fill="none" stroke-linecap="round"></path><path d="M 196.900,199.157 C 199.300,208.915 199.389,208.895 201.984,218.604" stroke-width="8.955" stroke="rgb(33,33,33)" fill="none" stroke-linecap="round"></path><path d="M 201.984,218.604 C 204.257,227.112 204.039,227.185 206.636,235.591" stroke-width="9.084" stroke="rgb(33,33,33)" fill="none" stroke-linecap="round"></path><path d="M 206.636,235.591 C 208.013,240.049 207.960,240.129 209.932,244.331" stroke-width="9.642" stroke="rgb(33,33,33)" fill="none" stroke-linecap="round"></path><path d="M 68.000,141.000 C 65.452,134.624 60.672,133.657 62.905,128.247" stroke-width="19.475" stroke="rgb(33,33,33)" fill="none" stroke-linecap="round"></path><path d="M 62.905,128.247 C 67.026,118.263 71.229,118.588 80.707,110.211" stroke-width="15.594" stroke="rgb(33,33,33)" fill="none" stroke-linecap="round"></path><path d="M 80.707,110.211 C 93.704,98.723 93.600,98.385 107.855,88.516" stroke-width="11.669" stroke="rgb(33,33,33)" fill="none" stroke-linecap="round"></path><path d="M 107.855,88.516 C 123.251,77.858 123.213,77.373 140.010,69.157" stroke-width="9.976" stroke="rgb(33,33,33)" fill="none" stroke-linecap="round"></path><path d="M 140.010,69.157 C 157.749,60.480 158.141,60.926 176.928,54.729" stroke-width="9.611" stroke="rgb(33,33,33)" fill="none" stroke-linecap="round"></path><path d="M 176.928,54.729 C 191.820,49.817 191.952,49.710 207.368,46.939" stroke-width="8.787" stroke="rgb(33,33,33)" fill="none" stroke-linecap="round"></path><path d="M 207.368,46.939 C 220.890,44.508 221.159,44.318 234.804,44.325" stroke-width="8.908" stroke="rgb(33,33,33)" fill="none" stroke-linecap="round"></path><path d="M 234.804,44.325 C 241.165,44.328 241.534,44.704 247.380,46.960" stroke-width="7.043" stroke="rgb(33,33,33)" fill="none" stroke-linecap="round"></path><path d="M 247.380,46.960 C 250.507,48.167 253.068,48.342 252.750,51.250" stroke-width="7.714" stroke="rgb(33,33,33)" fill="none" stroke-linecap="round"></path><path d="M 252.750,51.250 C 251.811,59.826 251.300,62.398 244.865,69.928" stroke-width="8.056" stroke="rgb(33,33,33)" fill="none" stroke-linecap="round"></path><path d="M 244.865,69.928 C 231.754,85.270 229.513,83.761 213.658,96.994" stroke-width="7.333" stroke="rgb(33,33,33)" fill="none" stroke-linecap="round"></path><path d="M 213.658,96.994 C 192.843,114.368 192.368,113.800 171.525,131.143" stroke-width="6.921" stroke="rgb(33,33,33)" fill="none" stroke-linecap="round"></path><path d="M 171.525,131.143 C 155.134,144.781 155.829,145.642 139.191,158.956" stroke-width="6.750" stroke="rgb(33,33,33)" fill="none" stroke-linecap="round"></path><path d="M 139.191,158.956 C 124.892,170.398 124.136,169.445 109.650,180.654" stroke-width="6.750" stroke="rgb(33,33,33)" fill="none" stroke-linecap="round"></path><path d="M 109.650,180.654 C 101.392,187.044 101.582,187.298 93.702,194.154" stroke-width="6.836" stroke="rgb(33,33,33)" fill="none" stroke-linecap="round"></path><path d="M 93.702,194.154 C 90.796,196.682 90.970,196.899 88.079,199.421" stroke-width="7.532" stroke="rgb(33,33,33)" fill="none" stroke-linecap="round"></path><path d="M 88.079,199.421 C 87.619,199.822 86.509,200.305 87.000,200.000" stroke-width="8.558" stroke="rgb(33,33,33)" fill="none" stroke-linecap="round"></path><path d="M 87.000,200.000 C 104.184,189.345 104.583,187.602 123.429,177.501" stroke-width="8.098" stroke="rgb(33,33,33)" fill="none" stroke-linecap="round"></path><path d="M 123.429,177.501 C 152.244,162.056 153.167,163.774 182.321,148.908" stroke-width="6.750" stroke="rgb(33,33,33)" fill="none" stroke-linecap="round"></path><path d="M 182.321,148.908 C 206.050,136.808 205.321,135.328 229.196,123.570" stroke-width="6.750" stroke="rgb(33,33,33)" fill="none" stroke-linecap="round"></path><path d="M 229.196,123.570 C 244.967,115.803 245.305,116.454 261.614,109.857" stroke-width="6.750" stroke="rgb(33,33,33)" fill="none" stroke-linecap="round"></path><path d="M 261.614,109.857 C 266.800,107.759 266.840,107.721 272.186,106.181" stroke-width="6.767" stroke="rgb(33,33,33)" fill="none" stroke-linecap="round"></path><path d="M 272.186,106.181 C 273.533,105.793 275.650,105.054 275.000,106.000" stroke-width="7.708" stroke="rgb(33,33,33)" fill="none" stroke-linecap="round"></path><path d="M 275.000,106.000 C 269.864,113.480 268.670,115.359 260.614,123.034" stroke-width="7.898" stroke="rgb(33,33,33)" fill="none" stroke-linecap="round"></path><path d="M 260.614,123.034 C 235.758,146.715 234.326,145.263 209.175,168.712" stroke-width="6.750" stroke="rgb(33,33,33)" fill="none" stroke-linecap="round"></path><path d="M 209.175,168.712 C 182.864,193.243 184.167,194.647 157.689,218.994" stroke-width="6.750" stroke="rgb(33,33,33)" fill="none" stroke-linecap="round"></path><path d="M 157.689,218.994 C 122.491,251.359 120.716,249.464 85.823,282.137" stroke-width="6.750" stroke="rgb(33,33,33)" fill="none" stroke-linecap="round"></path></svg>