<svg xmlns="http://www.w3.org/2000/svg" xmlns:xlink="http://www.w3.org/1999/xlink" viewBox="0 0 800 500"><path d="M 295.500,85.500 C 295.500,84.500 296.153,83.990 295.500,83.500" stroke-width="20.212" stroke="rgb(33,33,33)" fill="none" stroke-linecap="round"></path><path d="M 295.500,83.500 C 294.153,82.490 293.453,83.151 291.500,82.500" stroke-width="18.921" stroke="rgb(33,33,33)" fill="none" stroke-linecap="round"></path><path d="M 291.500,82.500 C 287.453,81.151 287.550,80.850 283.500,79.500" stroke-width="16.895" stroke="rgb(33,33,33)" fill="none" stroke-linecap="round"></path><path d="M 283.500,79.500 C 280.050,78.350 280.000,78.500 276.500,77.500" stroke-width="16.123" stroke="rgb(33,33,33)" fill="none" stroke-linecap="round"></path><path d="M 276.500,77.500 C 273.000,76.500 273.011,76.458 269.500,75.500" stroke-width="15.144" stroke="rgb(33,33,33)" fill="none" stroke-linecap="round"></path><path d="M 269.500,75.500 C 267.511,74.958 267.500,75.000 265.500,74.500" stroke-width="15.060" stroke="rgb(33,33,33)" fill="none" stroke-linecap="round"></path><path d="M 265.500,74.500 C 263.500,74.000 263.536,73.704 261.500,73.500" stroke-width="15.121" stroke="rgb(33,33,33)" fill="none" stroke-linecap="round"></path><path d="M 261.500,73.500 C 258.536,73.204 258.500,73.500 255.500,73.500" stroke-width="15.041" stroke="rgb(33,33,33)" fill="none" stroke-linecap="round"></path><path d="M 255.500,73.500 C 253.000,73.500 253.000,73.500 250.500,73.500" stroke-width="14.705" stroke="rgb(33,33,33)" fill="none" stroke-linecap="round"></path><path d="M 250.500,73.500 C 247.000,73.500 247.000,73.500 243.500,73.500" stroke-width="14.172" stroke="rgb(33,33,33)" fill="none" stroke-linecap="round"></path><path d="M 243.500,73.500 C 241.000,73.500 240.975,73.252 238.500,73.500" stroke-width="14.260" stroke="rgb(33,33,33)" fill="none" stroke-linecap="round"></path><path d="M 238.500,73.500 C 235.975,73.752 235.843,73.513 233.500,74.500" stroke-width="14.423" stroke="rgb(33,33,33)" fill="none" stroke-linecap="round"></path><path d="M 233.500,74.500 C 216.843,81.513 215.966,80.508 200.500,89.500" stroke-width="14.178" stroke="rgb(33,33,33)" fill="none" stroke-linecap="round"></path><path d="M 200.500,89.500 C 194.466,93.008 195.033,94.117 190.500,99.500" stroke-width="6.750" stroke="rgb(33,33,33)" fill="none" stroke-linecap="round"></path><path d="M 190.500,99.500 C 187.033,103.617 187.739,104.181 184.500,108.500" stroke-width="6.750" stroke="rgb(33,33,33)" fill="none" stroke-linecap="round"></path><path d="M 184.500,108.500 C 181.739,112.181 181.038,111.693 178.500,115.500" stroke-width="6.750" stroke="rgb(33,33,33)" fill="none" stroke-linecap="round"></path><path d="M 178.500,115.500 C 176.038,119.193 176.198,119.375 174.500,123.500" stroke-width="6.750" stroke="rgb(33,33,33)" fill="none" stroke-linecap="round"></path><path d="M 174.500,123.500 C 172.698,127.875 172.391,127.864 171.500,132.500" stroke-width="7.339" stroke="rgb(33,33,33)" fill="none" stroke-linecap="round"></path><path d="M 171.500,132.500 C 169.891,140.864 170.781,141.043 169.500,149.500" stroke-width="7.582" stroke="rgb(33,33,33)" fill="none" stroke-linecap="round"></path><path d="M 169.500,149.500 C 168.281,157.543 167.982,157.497 166.500,165.500" stroke-width="7.827" stroke="rgb(33,33,33)" fill="none" stroke-linecap="round"></path><path d="M 166.500,165.500 C 165.482,170.997 165.004,170.955 164.500,176.500" stroke-width="8.189" stroke="rgb(33,33,33)" fill="none" stroke-linecap="round"></path><path d="M 164.500,176.500 C 164.004,181.955 164.500,182.000 164.500,187.500" stroke-width="8.574" stroke="rgb(33,33,33)" fill="none" stroke-linecap="round"></path><path d="M 164.500,187.500 C 164.500,197.000 164.500,197.000 164.500,206.500" stroke-width="8.502" stroke="rgb(33,33,33)" fill="none" stroke-linecap="round"></path><path d="M 164.500,206.500 C 164.500,214.500 164.500,214.500 164.500,222.500" stroke-width="8.733" stroke="rgb(33,33,33)" fill="none" stroke-linecap="round"></path><path d="M 164.500,222.500 C 164.500,227.000 164.500,227.000 164.500,231.500" stroke-width="8.980" stroke="rgb(33,33,33)" fill="none" stroke-linecap="round"></path><path d="M 164.500,231.500 C 164.500,235.000 164.500,235.000 164.500,238.500" stroke-width="9.590" stroke="rgb(33,33,33)" fill="none" stroke-linecap="round"></path><path d="M 164.500,238.500 C 164.500,242.000 164.500,242.000 164.500,245.500" stroke-width="10.095" stroke="rgb(33,33,33)" fill="none" stroke-linecap="round"></path><path d="M 164.500,245.500 C 164.500,249.000 164.268,249.014 164.500,252.500" stroke-width="10.668" stroke="rgb(33,33,33)" fill="none" stroke-linecap="round"></path><path d="M 164.500,252.500 C 164.768,256.514 165.000,256.500 165.500,260.500" stroke-width="10.773" stroke="rgb(33,33,33)" fill="none" stroke-linecap="round"></path><path d="M 165.500,260.500 C 166.000,264.500 165.758,264.545 166.500,268.500" stroke-width="11.079" stroke="rgb(33,33,33)" fill="none" stroke-linecap="round"></path><path d="M 166.500,268.500 C 167.258,272.545 167.368,272.538 168.500,276.500" stroke-width="11.252" stroke="rgb(33,33,33)" fill="none" stroke-linecap="round"></path><path d="M 168.500,276.500 C 169.368,279.538 169.199,279.638 170.500,282.500" stroke-width="11.745" stroke="rgb(33,33,33)" fill="none" stroke-linecap="round"></path><path d="M 170.500,282.500 C 171.699,285.138 171.594,285.355 173.500,287.500" stroke-width="11.850" stroke="rgb(33,33,33)" fill="none" stroke-linecap="round"></path><path d="M 173.500,287.500 C 175.594,289.855 175.569,290.465 178.500,291.500" stroke-width="12.098" stroke="rgb(33,33,33)" fill="none" stroke-linecap="round"></path><path d="M 178.500,291.500 C 184.069,293.465 184.500,292.500 190.500,293.500" stroke-width="11.731" stroke="rgb(33,33,33)" fill="none" stroke-linecap="round"></path><path d="M 190.500,293.500 C 196.500,294.500 196.465,294.925 202.500,295.500" stroke-width="11.453" stroke="rgb(33,33,33)" fill="none" stroke-linecap="round"></path><path d="M 202.500,295.500 C 206.965,295.925 207.000,295.500 211.500,295.500" stroke-width="11.476" stroke="rgb(33,33,33)" fill="none" stroke-linecap="round"></path><path d="M 211.500,295.500 C 215.500,295.500 215.500,295.500 219.500,295.500" stroke-width="11.605" stroke="rgb(33,33,33)" fill="none" stroke-linecap="round"></path><path d="M 219.500,295.500 C 223.500,295.500 223.500,295.500 227.500,295.500" stroke-width="11.780" stroke="rgb(33,33,33)" fill="none" stroke-linecap="round"></path><path d="M 227.500,295.500 C 233.000,295.500 233.000,295.500 238.500,295.500" stroke-width="11.760" stroke="rgb(33,33,33)" fill="none" stroke-linecap="round"></path><path d="M 238.500,295.500 C 245.000,295.500 245.000,295.500 251.500,295.500" stroke-width="11.020" stroke="rgb(33,33,33)" fill="none" stroke-linecap="round"></path><path d="M 251.500,295.500 C 257.000,295.500 257.000,295.500 262.500,295.500" stroke-width="11.147" stroke="rgb(33,33,33)" fill="none" stroke-linecap="round"></path><path d="M 262.500,295.500 C 266.500,295.500 266.573,296.024 270.500,295.500" stroke-width="11.258" stroke="rgb(33,33,33)" fill="none" stroke-linecap="round"></path><path d="M 270.500,295.500 C 274.073,295.024 274.000,294.500 277.500,293.500" stroke-width="11.347" stroke="rgb(33,33,33)" fill="none" stroke-linecap="round"></path><path d="M 277.500,293.500 C 281.000,292.500 280.993,292.474 284.500,291.500" stroke-width="11.640" stroke="rgb(33,33,33)" fill="none" stroke-linecap="round"></path><path d="M 284.500,291.500 C 289.993,289.974 289.970,289.882 295.500,288.500" stroke-width="11.365" stroke="rgb(33,33,33)" fill="none" stroke-linecap="round"></path><path d="M 295.500,288.500 C 301.970,286.882 301.982,286.917 308.500,285.500" stroke-width="11.061" stroke="rgb(33,33,33)" fill="none" stroke-linecap="round"></path><path d="M 308.500,285.500 C 313.482,284.417 313.540,284.667 318.500,283.500" stroke-width="11.038" stroke="rgb(33,33,33)" fill="none" stroke-linecap="round"></path><path d="M 318.500,283.500 C 322.040,282.667 322.014,282.546 325.500,281.500" stroke-width="11.515" stroke="rgb(33,33,33)" fill="none" stroke-linecap="round"></path><path d="M 325.500,281.500 C 327.014,281.046 327.000,281.000 328.500,280.500" stroke-width="12.167" stroke="rgb(33,33,33)" fill="none" stroke-linecap="round"></path><path d="M 328.500,280.500 C 330.000,280.000 330.036,280.086 331.500,279.500" stroke-width="12.744" stroke="rgb(33,33,33)" fill="none" stroke-linecap="round"></path><path d="M 331.500,279.500 C 332.536,279.086 332.750,279.250 333.500,278.500" stroke-width="13.394" stroke="rgb(33,33,33)" fill="none" stroke-linecap="round"></path><path d="M 333.500,278.500 C 334.250,277.750 334.000,277.500 334.500,276.500" stroke-width="14.025" stroke="rgb(33,33,33)" fill="none" stroke-linecap="round"></path><path d="M 334.500,276.500 C 335.000,275.500 334.887,275.419 335.500,274.500" stroke-width="14.573" stroke="rgb(33,33,33)" fill="none" stroke-linecap="round"></path><path d="M 335.500,274.500 C 335.887,273.919 336.207,274.086 336.500,273.500" stroke-width="15.166" stroke="rgb(33,33,33)" fill="none" stroke-linecap="round"></path><path d="M 336.500,273.500 C 336.707,273.086 336.293,272.914 336.500,272.500" stroke-width="15.761" stroke="rgb(33,33,33)" fill="none" stroke-linecap="round"></path><path d="M 336.500,272.500 C 336.793,271.914 337.207,271.500 337.500,271.500" stroke-width="16.205" stroke="rgb(33,33,33)" fill="none" stroke-linecap="round"></path><path d="M 337.500,271.500 C 337.707,271.500 337.402,272.924 337.500,272.500" stroke-width="16.863" stroke="rgb(33,33,33)" fill="none" stroke-linecap="round"></path><path d="M 337.500,272.500 C 338.902,266.424 339.512,265.581 340.500,258.500" stroke-width="17.290" stroke="rgb(33,33,33)" fill="none" stroke-linecap="round"></path><path d="M 340.500,258.500 C 342.512,244.081 342.568,244.041 343.500,229.500" stroke-width="12.772" stroke="rgb(33,33,33)" fill="none" stroke-linecap="round"></path><path d="M 343.500,229.500 C 345.068,205.041 344.967,205.010 345.500,180.500" stroke-width="8.580" stroke="rgb(33,33,33)" fill="none" stroke-linecap="round"></path><path d="M 345.500,180.500 C 345.967,159.010 345.500,159.000 345.500,137.500" stroke-width="7.494" stroke="rgb(33,33,33)" fill="none" stroke-linecap="round"></path><path d="M 345.500,137.500 C 345.500,117.000 345.500,117.000 345.500,96.500" stroke-width="6.750" stroke="rgb(33,33,33)" fill="none" stroke-linecap="round"></path><path d="M 345.500,96.500 C 345.500,88.500 345.181,88.482 345.500,80.500" stroke-width="7.196" stroke="rgb(33,33,33)" fill="none" stroke-linecap="round"></path><path d="M 345.500,80.500 C 345.681,75.982 345.211,75.688 346.500,71.500" stroke-width="7.782" stroke="rgb(33,33,33)" fill="none" stroke-linecap="round"></path><path d="M 346.500,71.500 C 347.211,69.188 347.757,69.243 349.500,67.500" stroke-width="8.463" stroke="rgb(33,33,33)" fill="none" stroke-linecap="round"></path><path d="M 349.500,67.500 C 350.757,66.243 350.902,66.299 352.500,65.500" stroke-width="9.290" stroke="rgb(33,33,33)" fill="none" stroke-linecap="round"></path><path d="M 352.500,65.500 C 353.902,64.799 353.981,64.934 355.500,64.500" stroke-width="10.163" stroke="rgb(33,33,33)" fill="none" stroke-linecap="round"></path><path d="M 355.500,64.500 C 357.481,63.934 357.474,63.789 359.500,63.500" stroke-width="10.739" stroke="rgb(33,33,33)" fill="none" stroke-linecap="round"></path><path d="M 359.500,63.500 C 360.974,63.289 361.000,63.500 362.500,63.500" stroke-width="11.516" stroke="rgb(33,33,33)" fill="none" stroke-linecap="round"></path><path d="M 362.500,63.500 C 363.500,63.500 363.556,63.264 364.500,63.500" stroke-width="12.366" stroke="rgb(33,33,33)" fill="none" stroke-linecap="round"></path><path d="M 364.500,63.500 C 365.556,63.764 365.973,63.621 366.500,64.500" stroke-width="13.307" stroke="rgb(33,33,33)" fill="none" stroke-linecap="round"></path><path d="M 366.500,64.500 C 367.473,66.121 367.200,66.462 367.500,68.500" stroke-width="14.023" stroke="rgb(33,33,33)" fill="none" stroke-linecap="round"></path><path d="M 367.500,68.500 C 369.700,83.462 370.131,83.445 371.500,98.500" stroke-width="7.892" stroke="rgb(33,33,33)" fill="none" stroke-linecap="round"></path><path d="M 371.500,98.500 C 372.631,110.945 371.905,111.004 372.500,123.500" stroke-width="6.824" stroke="rgb(33,33,33)" fill="none" stroke-linecap="round"></path><path d="M 372.500,123.500 C 373.405,142.504 373.085,142.532 374.500,161.500" stroke-width="6.750" stroke="rgb(33,33,33)" fill="none" stroke-linecap="round"></path><path d="M 374.500,161.500 C 375.585,176.032 376.721,175.963 377.500,190.500" stroke-width="6.750" stroke="rgb(33,33,33)" fill="none" stroke-linecap="round"></path><path d="M 377.500,190.500 C 378.221,203.963 377.500,204.000 377.500,217.500" stroke-width="6.750" stroke="rgb(33,33,33)" fill="none" stroke-linecap="round"></path><path d="M 377.500,217.500 C 377.500,228.500 377.500,228.500 377.500,239.500" stroke-width="6.750" stroke="rgb(33,33,33)" fill="none" stroke-linecap="round"></path><path d="M 377.500,239.500 C 377.500,244.000 377.500,244.000 377.500,248.500" stroke-width="6.750" stroke="rgb(33,33,33)" fill="none" stroke-linecap="round"></path><path d="M 377.500,248.500 C 377.500,250.500 377.500,250.500 377.500,252.500" stroke-width="7.110" stroke="rgb(33,33,33)" fill="none" stroke-linecap="round"></path><path d="M 377.500,252.500 C 377.500,253.500 377.500,253.500 377.500,254.500" stroke-width="8.052" stroke="rgb(33,33,33)" fill="none" stroke-linecap="round"></path><path d="M 377.500,254.500 C 377.500,255.000 377.458,255.915 377.500,255.500" stroke-width="9.091" stroke="rgb(33,33,33)" fill="none" stroke-linecap="round"></path><path d="M 377.500,255.500 C 377.958,250.915 378.176,250.012 378.500,244.500" stroke-width="9.911" stroke="rgb(33,33,33)" fill="none" stroke-linecap="round"></path><path d="M 378.500,244.500 C 379.176,233.012 379.344,233.007 379.500,221.500" stroke-width="9.252" stroke="rgb(33,33,33)" fill="none" stroke-linecap="round"></path><path d="M 379.500,221.500 C 379.844,196.007 379.500,196.000 379.500,170.500" stroke-width="7.229" stroke="rgb(33,33,33)" fill="none" stroke-linecap="round"></path><path d="M 379.500,170.500 C 379.500,151.500 379.500,151.500 379.500,132.500" stroke-width="6.870" stroke="rgb(33,33,33)" fill="none" stroke-linecap="round"></path><path d="M 379.500,132.500 C 379.500,115.000 379.500,115.000 379.500,97.500" stroke-width="6.750" stroke="rgb(33,33,33)" fill="none" stroke-linecap="round"></path><path d="M 379.500,97.500 C 379.500,87.500 379.500,87.500 379.500,77.500" stroke-width="6.750" stroke="rgb(33,33,33)" fill="none" stroke-linecap="round"></path><path d="M 379.500,77.500 C 379.500,73.000 379.500,73.000 379.500,68.500" stroke-width="7.105" stroke="rgb(33,33,33)" fill="none" stroke-linecap="round"></path><path d="M 379.500,68.500 C 379.500,67.000 379.500,67.000 379.500,65.500" stroke-width="8.035" stroke="rgb(33,33,33)" fill="none" stroke-linecap="round"></path><path d="M 379.500,65.500 C 379.500,64.500 379.239,62.891 379.500,63.500" stroke-width="9.098" stroke="rgb(33,33,33)" fill="none" stroke-linecap="round"></path><path d="M 379.500,63.500 C 380.739,66.391 381.000,68.000 382.500,72.500" stroke-width="10.082" stroke="rgb(33,33,33)" fill="none" stroke-linecap="round"></path><path d="M 382.500,72.500 C 384.500,78.500 384.614,78.464 386.500,84.500" stroke-width="10.037" stroke="rgb(33,33,33)" fill="none" stroke-linecap="round"></path><path d="M 386.500,84.500 C 389.614,94.464 389.786,94.421 392.500,104.500" stroke-width="9.586" stroke="rgb(33,33,33)" fill="none" stroke-linecap="round"></path><path d="M 392.500,104.500 C 396.786,120.421 396.361,120.536 400.500,136.500" stroke-width="8.975" stroke="rgb(33,33,33)" fill="none" stroke-linecap="round"></path><path d="M 400.500,136.500 C 403.361,147.536 403.008,147.675 406.500,158.500" stroke-width="7.863" stroke="rgb(33,33,33)" fill="none" stroke-linecap="round"></path><path d="M 406.500,158.500 C 408.008,163.175 408.955,162.864 410.500,167.500" stroke-width="8.397" stroke="rgb(33,33,33)" fill="none" stroke-linecap="round"></path><path d="M 410.500,167.500 C 411.455,170.364 411.038,170.494 411.500,173.500" stroke-width="9.078" stroke="rgb(33,33,33)" fill="none" stroke-linecap="round"></path><path d="M 411.500,173.500 C 412.038,176.994 411.761,177.051 412.500,180.500" stroke-width="9.583" stroke="rgb(33,33,33)" fill="none" stroke-linecap="round"></path><path d="M 412.500,180.500 C 413.261,184.051 413.935,183.921 414.500,187.500" stroke-width="9.945" stroke="rgb(33,33,33)" fill="none" stroke-linecap="round"></path><path d="M 414.500,187.500 C 415.435,193.421 415.000,193.500 415.500,199.500" stroke-width="10.054" stroke="rgb(33,33,33)" fill="none" stroke-linecap="round"></path><path d="M 415.500,199.500 C 416.000,205.500 415.066,205.762 416.500,211.500" stroke-width="10.065" stroke="rgb(33,33,33)" fill="none" stroke-linecap="round"></path><path d="M 416.500,211.500 C 417.566,215.762 419.012,215.334 420.500,219.500" stroke-width="10.268" stroke="rgb(33,33,33)" fill="none" stroke-linecap="round"></path><path d="M 420.500,219.500 C 421.512,222.334 420.704,222.583 421.500,225.500" stroke-width="10.821" stroke="rgb(33,33,33)" fill="none" stroke-linecap="round"></path><path d="M 421.500,225.500 C 422.204,228.083 422.312,228.124 423.500,230.500" stroke-width="11.333" stroke="rgb(33,33,33)" fill="none" stroke-linecap="round"></path><path d="M 423.500,230.500 C 423.812,231.124 424.000,231.000 424.500,231.500" stroke-width="12.285" stroke="rgb(33,33,33)" fill="none" stroke-linecap="round"></path><path d="M 424.500,231.500 C 425.000,232.000 424.914,232.207 425.500,232.500" stroke-width="13.090" stroke="rgb(33,33,33)" fill="none" stroke-linecap="round"></path><path d="M 425.500,232.500 C 425.914,232.707 426.400,232.900 426.500,232.500" stroke-width="14.064" stroke="rgb(33,33,33)" fill="none" stroke-linecap="round"></path><path d="M 426.500,232.500 C 426.900,230.900 426.500,230.500 426.500,228.500" stroke-width="14.327" stroke="rgb(33,33,33)" fill="none" stroke-linecap="round"></path><path d="M 426.500,228.500 C 426.500,222.500 426.500,222.500 426.500,216.500" stroke-width="13.229" stroke="rgb(33,33,33)" fill="none" stroke-linecap="round"></path><path d="M 426.500,216.500 C 426.500,210.500 426.500,210.500 426.500,204.500" stroke-width="12.327" stroke="rgb(33,33,33)" fill="none" stroke-linecap="round"></path><path d="M 426.500,204.500 C 426.500,200.500 426.500,200.500 426.500,196.500" stroke-width="12.733" stroke="rgb(33,33,33)" fill="none" stroke-linecap="round"></path><path d="M 426.500,196.500 C 426.500,192.500 426.500,192.500 426.500,188.500" stroke-width="12.109" stroke="rgb(33,33,33)" fill="none" stroke-linecap="round"></path><path d="M 426.500,188.500 C 426.500,184.500 426.500,184.500 426.500,180.500" stroke-width="11.927" stroke="rgb(33,33,33)" fill="none" stroke-linecap="round"></path><path d="M 426.500,180.500 C 426.500,175.000 426.500,175.000 426.500,169.500" stroke-width="11.517" stroke="rgb(33,33,33)" fill="none" stroke-linecap="round"></path><path d="M 426.500,169.500 C 426.500,164.500 426.500,164.500 426.500,159.500" stroke-width="11.694" stroke="rgb(33,33,33)" fill="none" stroke-linecap="round"></path><path d="M 426.500,159.500 C 426.500,156.000 426.500,156.000 426.500,152.500" stroke-width="11.504" stroke="rgb(33,33,33)" fill="none" stroke-linecap="round"></path><path d="M 426.500,152.500 C 426.500,150.500 426.500,150.500 426.500,148.500" stroke-width="12.127" stroke="rgb(33,33,33)" fill="none" stroke-linecap="round"></path><path d="M 426.500,148.500 C 426.500,147.500 426.500,147.500 426.500,146.500" stroke-width="12.974" stroke="rgb(33,33,33)" fill="none" stroke-linecap="round"></path><path d="M 426.500,146.500 C 426.500,145.500 426.500,145.500 426.500,144.500" stroke-width="13.636" stroke="rgb(33,33,33)" fill="none" stroke-linecap="round"></path><path d="M 426.500,144.500 C 426.500,144.000 426.655,143.964 426.500,143.500" stroke-width="14.382" stroke="rgb(33,33,33)" fill="none" stroke-linecap="round"></path><path d="M 426.500,143.500 C 426.155,142.464 425.714,142.568 425.500,141.500" stroke-width="15.184" stroke="rgb(33,33,33)" fill="none" stroke-linecap="round"></path><path d="M 425.500,141.500 C 425.214,140.068 425.500,140.000 425.500,138.500" stroke-width="15.422" stroke="rgb(33,33,33)" fill="none" stroke-linecap="round"></path><path d="M 425.500,138.500 C 425.500,137.500 425.500,137.500 425.500,136.500" stroke-width="15.911" stroke="rgb(33,33,33)" fill="none" stroke-linecap="round"></path><path d="M 425.500,136.500 C 425.500,136.000 425.500,136.000 425.500,135.500" stroke-width="16.243" stroke="rgb(33,33,33)" fill="none" stroke-linecap="round"></path><path d="M 425.500,135.500 C 425.500,134.000 425.786,133.932 425.500,132.500" stroke-width="16.234" stroke="rgb(33,33,33)" fill="none" stroke-linecap="round"></path><path d="M 425.500,132.500 C 425.286,131.432 424.845,131.536 424.500,130.500" stroke-width="16.519" stroke="rgb(33,33,33)" fill="none" stroke-linecap="round"></path><path d="M 424.500,130.500 C 424.345,130.036 424.500,130.000 424.500,129.500" stroke-width="16.972" stroke="rgb(33,33,33)" fill="none" stroke-linecap="round"></path><path d="M 424.500,129.500 C 424.500,129.000 424.500,129.000 424.500,128.500" stroke-width="17.419" stroke="rgb(33,33,33)" fill="none" stroke-linecap="round"></path><path d="M 424.500,128.500 C 424.500,128.000 424.500,128.000 424.500,127.500" stroke-width="17.843" stroke="rgb(33,33,33)" fill="none" stroke-linecap="round"></path><path d="M 424.500,127.500 C 424.500,127.000 424.500,127.000 424.500,126.500" stroke-width="18.027" stroke="rgb(33,33,33)" fill="none" stroke-linecap="round"></path><path d="M 424.500,126.500 C 424.500,125.500 424.500,125.500 424.500,124.500" stroke-width="17.930" stroke="rgb(33,33,33)" fill="none" stroke-linecap="round"></path><path d="M 424.500,124.500 C 424.500,123.500 424.663,123.480 424.500,122.500" stroke-width="17.765" stroke="rgb(33,33,33)" fill="none" stroke-linecap="round"></path><path d="M 424.500,122.500 C 424.163,120.480 423.904,120.520 423.500,118.500" stroke-width="17.229" stroke="rgb(33,33,33)" fill="none" stroke-linecap="round"></path><path d="M 423.500,118.500 C 422.904,115.520 422.802,115.516 422.500,112.500" stroke-width="16.765" stroke="rgb(33,33,33)" fill="none" stroke-linecap="round"></path><path d="M 422.500,112.500 C 422.302,110.516 422.500,110.500 422.500,108.500" stroke-width="16.344" stroke="rgb(33,33,33)" fill="none" stroke-linecap="round"></path><path d="M 422.500,108.500 C 422.500,107.500 422.500,107.500 422.500,106.500" stroke-width="16.388" stroke="rgb(33,33,33)" fill="none" stroke-linecap="round"></path><path d="M 422.500,106.500 C 422.500,106.000 422.402,105.207 422.500,105.500" stroke-width="16.924" stroke="rgb(33,33,33)" fill="none" stroke-linecap="round"></path><path d="M 422.500,105.500 C 422.902,106.707 422.739,107.597 423.500,109.500" stroke-width="17.353" stroke="rgb(33,33,33)" fill="none" stroke-linecap="round"></path><path d="M 423.500,109.500 C 424.739,112.597 425.082,112.461 426.500,115.500" stroke-width="16.558" stroke="rgb(33,33,33)" fill="none" stroke-linecap="round"></path><path d="M 426.500,115.500 C 428.582,119.961 429.238,119.769 430.500,124.500" stroke-width="14.723" stroke="rgb(33,33,33)" fill="none" stroke-linecap="round"></path><path d="M 430.500,124.500 C 433.238,134.769 432.230,135.058 434.500,145.500" stroke-width="12.430" stroke="rgb(33,33,33)" fill="none" stroke-linecap="round"></path><path d="M 434.500,145.500 C 437.230,158.058 437.015,158.144 440.500,170.500" stroke-width="10.969" stroke="rgb(33,33,33)" fill="none" stroke-linecap="round"></path><path d="M 440.500,170.500 C 442.515,177.644 443.922,177.287 445.500,184.500" stroke-width="10.257" stroke="rgb(33,33,33)" fill="none" stroke-linecap="round"></path><path d="M 445.500,184.500 C 447.422,193.287 446.404,193.512 447.500,202.500" stroke-width="9.730" stroke="rgb(33,33,33)" fill="none" stroke-linecap="round"></path><path d="M 447.500,202.500 C 448.904,214.012 449.565,213.963 450.500,225.500" stroke-width="8.856" stroke="rgb(33,33,33)" fill="none" stroke-linecap="round"></path><path d="M 450.500,225.500 C 451.065,232.463 450.500,232.500 450.500,239.500" stroke-width="9.021" stroke="rgb(33,33,33)" fill="none" stroke-linecap="round"></path><path d="M 450.500,239.500 C 450.500,245.000 450.500,245.000 450.500,250.500" stroke-width="9.293" stroke="rgb(33,33,33)" fill="none" stroke-linecap="round"></path><path d="M 450.500,250.500 C 450.500,255.000 450.500,255.000 450.500,259.500" stroke-width="9.674" stroke="rgb(33,33,33)" fill="none" stroke-linecap="round"></path><path d="M 450.500,259.500 C 450.500,263.500 450.500,263.500 450.500,267.500" stroke-width="10.085" stroke="rgb(33,33,33)" fill="none" stroke-linecap="round"></path><path d="M 450.500,267.500 C 450.500,271.500 450.035,271.551 450.500,275.500" stroke-width="10.585" stroke="rgb(33,33,33)" fill="none" stroke-linecap="round"></path><path d="M 450.500,275.500 C 451.035,280.051 451.464,280.009 452.500,284.500" stroke-width="10.575" stroke="rgb(33,33,33)" fill="none" stroke-linecap="round"></path><path d="M 452.500,284.500 C 452.964,286.509 452.852,286.555 453.500,288.500" stroke-width="11.246" stroke="rgb(33,33,33)" fill="none" stroke-linecap="round"></path><path d="M 453.500,288.500 C 453.852,289.555 453.809,289.809 454.500,290.500" stroke-width="12.091" stroke="rgb(33,33,33)" fill="none" stroke-linecap="round"></path><path d="M 454.500,290.500 C 454.809,290.809 455.250,290.250 455.500,290.500" stroke-width="13.029" stroke="rgb(33,33,33)" fill="none" stroke-linecap="round"></path><path d="M 455.500,290.500 C 455.750,290.750 455.500,291.667 455.500,291.500" stroke-width="14.003" stroke="rgb(33,33,33)" fill="none" stroke-linecap="round"></path><path d="M 455.500,291.500 C 455.500,291.167 455.337,290.480 455.500,289.500" stroke-width="14.905" stroke="rgb(33,33,33)" fill="none" stroke-linecap="round"></path><path d="M 455.500,289.500 C 455.837,287.480 456.315,287.539 456.500,285.500" stroke-width="14.870" stroke="rgb(33,33,33)" fill="none" stroke-linecap="round"></path><path d="M 456.500,285.500 C 456.815,282.039 456.370,281.997 456.500,278.500" stroke-width="14.574" stroke="rgb(33,33,33)" fill="none" stroke-linecap="round"></path><path d="M 456.500,278.500 C 456.870,268.497 457.292,268.507 457.500,258.500" stroke-width="12.085" stroke="rgb(33,33,33)" fill="none" stroke-linecap="round"></path><path d="M 457.500,258.500 C 457.792,244.507 458.718,244.439 457.500,230.500" stroke-width="11.351" stroke="rgb(33,33,33)" fill="none" stroke-linecap="round"></path><path d="M 457.500,230.500 C 449.718,141.439 448.352,141.507 439.500,52.500" stroke-width="10.023" stroke="rgb(33,33,33)" fill="none" stroke-linecap="round"></path><path d="M 439.500,52.500 C 439.352,51.007 439.500,51.000 439.500,49.500" stroke-width="10.754" stroke="rgb(33,33,33)" fill="none" stroke-linecap="round"></path><path d="M 439.500,49.500 C 439.500,48.500 439.500,48.500 439.500,47.500" stroke-width="11.706" stroke="rgb(33,33,33)" fill="none" stroke-linecap="round"></path><path d="M 439.500,47.500 C 439.500,46.000 439.257,45.960 439.500,44.500" stroke-width="12.128" stroke="rgb(33,33,33)" fill="none" stroke-linecap="round"></path><path d="M 439.500,44.500 C 439.757,42.960 440.158,43.039 440.500,41.500" stroke-width="12.781" stroke="rgb(33,33,33)" fill="none" stroke-linecap="round"></path><path d="M 440.500,41.500 C 441.158,38.539 440.842,38.461 441.500,35.500" stroke-width="12.907" stroke="rgb(33,33,33)" fill="none" stroke-linecap="round"></path><path d="M 441.500,35.500 C 441.842,33.961 442.120,34.019 442.500,32.500" stroke-width="13.549" stroke="rgb(33,33,33)" fill="none" stroke-linecap="round"></path><path d="M 442.500,32.500 C 442.620,32.019 442.293,31.914 442.500,31.500" stroke-width="14.281" stroke="rgb(33,33,33)" fill="none" stroke-linecap="round"></path><path d="M 442.500,31.500 C 442.793,30.914 442.914,30.793 443.500,30.500" stroke-width="15.048" stroke="rgb(33,33,33)" fill="none" stroke-linecap="round"></path><path d="M 443.500,30.500 C 443.914,30.293 444.250,30.250 444.500,30.500" stroke-width="15.830" stroke="rgb(33,33,33)" fill="none" stroke-linecap="round"></path><path d="M 444.500,30.500 C 444.750,30.750 444.500,31.000 444.500,31.500" stroke-width="16.460" stroke="rgb(33,33,33)" fill="none" stroke-linecap="round"></path><path d="M 444.500,31.500 C 444.500,32.000 444.500,32.000 444.500,32.500" stroke-width="16.957" stroke="rgb(33,33,33)" fill="none" stroke-linecap="round"></path><path d="M 444.500,32.500 C 444.500,33.000 444.191,33.191 444.500,33.500" stroke-width="17.478" stroke="rgb(33,33,33)" fill="none" stroke-linecap="round"></path><path d="M 444.500,33.500 C 445.191,34.191 445.464,34.086 446.500,34.500" stroke-width="17.918" stroke="rgb(33,33,33)" fill="none" stroke-linecap="round"></path><path d="M 446.500,34.500 C 447.964,35.086 448.036,34.914 449.500,35.500" stroke-width="17.433" stroke="rgb(33,33,33)" fill="none" stroke-linecap="round"></path><path d="M 449.500,35.500 C 450.536,35.914 450.432,36.286 451.500,36.500" stroke-width="17.438" stroke="rgb(33,33,33)" fill="none" stroke-linecap="round"></path><path d="M 451.500,36.500 C 452.932,36.786 453.040,36.257 454.500,36.500" stroke-width="17.031" stroke="rgb(33,33,33)" fill="none" stroke-linecap="round"></path><path d="M 454.500,36.500 C 456.040,36.757 455.947,37.327 457.500,37.500" stroke-width="16.877" stroke="rgb(33,33,33)" fill="none" stroke-linecap="round"></path><path d="M 457.500,37.500 C 460.447,37.827 460.513,37.287 463.500,37.500" stroke-width="16.073" stroke="rgb(33,33,33)" fill="none" stroke-linecap="round"></path><path d="M 463.500,37.500 C 467.513,37.787 467.486,38.232 471.500,38.500" stroke-width="15.395" stroke="rgb(33,33,33)" fill="none" stroke-linecap="round"></path><path d="M 471.500,38.500 C 474.986,38.732 475.000,38.500 478.500,38.500" stroke-width="14.544" stroke="rgb(33,33,33)" fill="none" stroke-linecap="round"></path><path d="M 478.500,38.500 C 480.500,38.500 480.500,38.500 482.500,38.500" stroke-width="14.668" stroke="rgb(33,33,33)" fill="none" stroke-linecap="round"></path><path d="M 482.500,38.500 C 484.500,38.500 484.500,38.500 486.500,38.500" stroke-width="14.825" stroke="rgb(33,33,33)" fill="none" stroke-linecap="round"></path><path d="M 486.500,38.500 C 487.500,38.500 487.500,38.500 488.500,38.500" stroke-width="15.348" stroke="rgb(33,33,33)" fill="none" stroke-linecap="round"></path><path d="M 488.500,38.500 C 489.000,38.500 489.000,38.500 489.500,38.500" stroke-width="15.848" stroke="rgb(33,33,33)" fill="none" stroke-linecap="round"></path></svg>