<svg xmlns="http://www.w3.org/2000/svg" xmlns:xlink="http://www.w3.org/1999/xlink" viewBox="0 0 800 500"><path d="M 198.000,325.500 C 198.000,325.000 198.000,325.000 198.000,324.500" stroke-width="20.230" stroke="rgb(33,33,33)" fill="none" stroke-linecap="round"></path><path d="M 198.000,324.500 C 198.000,324.500 198.000,324.500 198.000,324.500" stroke-width="20.234" stroke="rgb(33,33,33)" fill="none" stroke-linecap="round"></path><path d="M 198.000,324.500 C 198.000,323.500 198.000,323.500 198.000,322.500" stroke-width="19.585" stroke="rgb(33,33,33)" fill="none" stroke-linecap="round"></path><path d="M 198.000,322.500 C 198.000,321.500 198.000,321.500 198.000,320.500" stroke-width="18.675" stroke="rgb(33,33,33)" fill="none" stroke-linecap="round"></path><path d="M 198.000,320.500 C 198.000,319.000 197.714,318.932 198.000,317.500" stroke-width="18.238" stroke="rgb(33,33,33)" fill="none" stroke-linecap="round"></path><path d="M 198.000,317.500 C 198.214,316.432 198.792,316.593 199.000,315.500" stroke-width="16.366" stroke="rgb(33,33,33)" fill="none" stroke-linecap="round"></path><path d="M 199.000,315.500 C 200.792,306.093 200.301,305.964 202.000,296.500" stroke-width="14.001" stroke="rgb(33,33,33)" fill="none" stroke-linecap="round"></path><path d="M 202.000,296.500 C 203.801,286.464 204.814,286.581 206.000,276.500" stroke-width="12.884" stroke="rgb(33,33,33)" fill="none" stroke-linecap="round"></path><path d="M 206.000,276.500 C 206.814,269.581 205.465,269.456 206.000,262.500" stroke-width="10.038" stroke="rgb(33,33,33)" fill="none" stroke-linecap="round"></path><path d="M 206.000,262.500 C 206.465,256.456 207.353,256.540 208.000,250.500" stroke-width="9.843" stroke="rgb(33,33,33)" fill="none" stroke-linecap="round"></path><path d="M 208.000,250.500 C 208.853,242.540 208.252,242.477 209.000,234.500" stroke-width="8.508" stroke="rgb(33,33,33)" fill="none" stroke-linecap="round"></path><path d="M 209.000,234.500 C 209.752,226.477 210.198,226.519 211.000,218.500" stroke-width="8.224" stroke="rgb(33,33,33)" fill="none" stroke-linecap="round"></path><path d="M 211.000,218.500 C 211.698,211.519 211.666,211.506 212.000,204.500" stroke-width="7.876" stroke="rgb(33,33,33)" fill="none" stroke-linecap="round"></path><path d="M 212.000,204.500 C 212.166,201.006 211.825,200.993 212.000,197.500" stroke-width="8.394" stroke="rgb(33,33,33)" fill="none" stroke-linecap="round"></path><path d="M 212.000,197.500 C 212.325,190.993 212.435,190.994 213.000,184.500" stroke-width="7.896" stroke="rgb(33,33,33)" fill="none" stroke-linecap="round"></path><path d="M 213.000,184.500 C 213.435,179.494 213.749,179.512 214.000,174.500" stroke-width="8.371" stroke="rgb(33,33,33)" fill="none" stroke-linecap="round"></path><path d="M 214.000,174.500 C 214.249,169.512 214.000,169.500 214.000,164.500" stroke-width="8.364" stroke="rgb(33,33,33)" fill="none" stroke-linecap="round"></path><path d="M 214.000,164.500 C 214.000,160.500 214.000,160.500 214.000,156.500" stroke-width="8.749" stroke="rgb(33,33,33)" fill="none" stroke-linecap="round"></path><path d="M 214.000,156.500 C 214.000,154.000 214.000,154.000 214.000,151.500" stroke-width="9.129" stroke="rgb(33,33,33)" fill="none" stroke-linecap="round"></path><path d="M 214.000,151.500 C 214.000,150.000 214.185,149.982 214.000,148.500" stroke-width="9.979" stroke="rgb(33,33,33)" fill="none" stroke-linecap="round"></path><path d="M 214.000,148.500 C 213.685,145.982 213.617,145.969 213.000,143.500" stroke-width="9.989" stroke="rgb(33,33,33)" fill="none" stroke-linecap="round"></path><path d="M 213.000,143.500 C 212.617,141.969 212.500,142.000 212.000,140.500" stroke-width="10.826" stroke="rgb(33,33,33)" fill="none" stroke-linecap="round"></path><path d="M 212.000,140.500 C 211.500,139.000 211.500,139.000 211.000,137.500" stroke-width="10.618" stroke="rgb(33,33,33)" fill="none" stroke-linecap="round"></path><path d="M 211.000,137.500 C 210.500,136.000 210.586,135.964 210.000,134.500" stroke-width="11.386" stroke="rgb(33,33,33)" fill="none" stroke-linecap="round"></path><path d="M 210.000,134.500 C 209.586,133.464 209.613,133.419 209.000,132.500" stroke-width="11.429" stroke="rgb(33,33,33)" fill="none" stroke-linecap="round"></path><path d="M 209.000,132.500 C 208.613,131.919 208.500,132.000 208.000,131.500" stroke-width="12.340" stroke="rgb(33,33,33)" fill="none" stroke-linecap="round"></path><path d="M 208.000,131.500 C 207.500,131.000 207.500,131.000 207.000,130.500" stroke-width="12.600" stroke="rgb(33,33,33)" fill="none" stroke-linecap="round"></path><path d="M 207.000,130.500 C 206.500,130.000 206.586,129.793 206.000,129.500" stroke-width="13.447" stroke="rgb(33,33,33)" fill="none" stroke-linecap="round"></path><path d="M 206.000,129.500 C 205.586,129.293 205.250,129.750 205.000,129.500" stroke-width="13.762" stroke="rgb(33,33,33)" fill="none" stroke-linecap="round"></path><path d="M 205.000,129.500 C 204.750,129.250 205.250,128.750 205.000,128.500" stroke-width="14.542" stroke="rgb(33,33,33)" fill="none" stroke-linecap="round"></path><path d="M 205.000,128.500 C 204.750,128.250 204.500,128.500 204.000,128.500" stroke-width="14.667" stroke="rgb(33,33,33)" fill="none" stroke-linecap="round"></path><path d="M 204.000,128.500 C 204.000,128.500 204.000,128.500 204.000,128.500" stroke-width="15.523" stroke="rgb(33,33,33)" fill="none" stroke-linecap="round"></path><path d="M 204.000,128.500 C 203.500,128.500 203.500,128.500 203.000,128.500" stroke-width="15.654" stroke="rgb(33,33,33)" fill="none" stroke-linecap="round"></path><path d="M 203.000,128.500 C 202.500,128.500 202.500,128.500 202.000,128.500" stroke-width="17.388" stroke="rgb(33,33,33)" fill="none" stroke-linecap="round"></path><path d="M 202.000,128.500 C 202.000,128.500 202.000,128.500 202.000,128.500" stroke-width="17.893" stroke="rgb(33,33,33)" fill="none" stroke-linecap="round"></path><path d="M 202.000,128.500 C 202.000,129.000 202.000,129.000 202.000,129.500" stroke-width="17.959" stroke="rgb(33,33,33)" fill="none" stroke-linecap="round"></path><path d="M 202.000,129.500 C 202.000,129.500 202.000,129.500 202.000,129.500" stroke-width="18.375" stroke="rgb(33,33,33)" fill="none" stroke-linecap="round"></path><path d="M 202.000,129.500 C 202.000,130.500 201.586,130.672 202.000,131.500" stroke-width="17.894" stroke="rgb(33,33,33)" fill="none" stroke-linecap="round"></path><path d="M 202.000,131.500 C 202.586,132.672 203.000,132.500 204.000,133.500" stroke-width="17.335" stroke="rgb(33,33,33)" fill="none" stroke-linecap="round"></path><path d="M 204.000,133.500 C 205.000,134.500 204.873,134.655 206.000,135.500" stroke-width="16.801" stroke="rgb(33,33,33)" fill="none" stroke-linecap="round"></path><path d="M 206.000,135.500 C 208.873,137.655 209.223,137.228 212.000,139.500" stroke-width="15.289" stroke="rgb(33,33,33)" fill="none" stroke-linecap="round"></path><path d="M 212.000,139.500 C 214.723,141.728 214.150,142.464 217.000,144.500" stroke-width="13.855" stroke="rgb(33,33,33)" fill="none" stroke-linecap="round"></path><path d="M 217.000,144.500 C 221.150,147.464 221.564,146.891 226.000,149.500" stroke-width="12.672" stroke="rgb(33,33,33)" fill="none" stroke-linecap="round"></path><path d="M 226.000,149.500 C 230.064,151.891 229.975,152.040 234.000,154.500" stroke-width="11.585" stroke="rgb(33,33,33)" fill="none" stroke-linecap="round"></path><path d="M 234.000,154.500 C 238.975,157.540 238.843,157.799 244.000,160.500" stroke-width="11.056" stroke="rgb(33,33,33)" fill="none" stroke-linecap="round"></path><path d="M 244.000,160.500 C 249.343,163.299 249.657,162.701 255.000,165.500" stroke-width="9.425" stroke="rgb(33,33,33)" fill="none" stroke-linecap="round"></path><path d="M 255.000,165.500 C 260.157,168.201 259.885,168.710 265.000,171.500" stroke-width="9.503" stroke="rgb(33,33,33)" fill="none" stroke-linecap="round"></path><path d="M 265.000,171.500 C 270.885,174.710 271.000,174.500 277.000,177.500" stroke-width="8.294" stroke="rgb(33,33,33)" fill="none" stroke-linecap="round"></path><path d="M 277.000,177.500 C 279.000,178.500 279.000,178.500 281.000,179.500" stroke-width="9.090" stroke="rgb(33,33,33)" fill="none" stroke-linecap="round"></path><path d="M 281.000,179.500 C 286.000,182.000 286.196,181.674 291.000,184.500" stroke-width="8.336" stroke="rgb(33,33,33)" fill="none" stroke-linecap="round"></path><path d="M 291.000,184.500 C 294.696,186.674 294.464,187.052 298.000,189.500" stroke-width="8.855" stroke="rgb(33,33,33)" fill="none" stroke-linecap="round"></path><path d="M 298.000,189.500 C 300.964,191.552 301.223,191.228 304.000,193.500" stroke-width="8.067" stroke="rgb(33,33,33)" fill="none" stroke-linecap="round"></path><path d="M 304.000,193.500 C 306.723,195.728 306.721,195.841 309.000,198.500" stroke-width="8.740" stroke="rgb(33,33,33)" fill="none" stroke-linecap="round"></path><path d="M 309.000,198.500 C 309.721,199.341 309.279,199.659 310.000,200.500" stroke-width="9.352" stroke="rgb(33,33,33)" fill="none" stroke-linecap="round"></path><path d="M 310.000,200.500 C 312.279,203.159 312.682,202.851 315.000,205.500" stroke-width="9.921" stroke="rgb(33,33,33)" fill="none" stroke-linecap="round"></path><path d="M 315.000,205.500 C 316.182,206.851 316.379,206.843 317.000,208.500" stroke-width="9.767" stroke="rgb(33,33,33)" fill="none" stroke-linecap="round"></path><path d="M 317.000,208.500 C 317.879,210.843 317.720,210.978 318.000,213.500" stroke-width="10.555" stroke="rgb(33,33,33)" fill="none" stroke-linecap="round"></path><path d="M 318.000,213.500 C 318.220,215.478 318.000,215.500 318.000,217.500" stroke-width="9.485" stroke="rgb(33,33,33)" fill="none" stroke-linecap="round"></path><path d="M 318.000,217.500 C 318.000,220.000 318.000,220.000 318.000,222.500" stroke-width="10.202" stroke="rgb(33,33,33)" fill="none" stroke-linecap="round"></path><path d="M 318.000,222.500 C 318.000,228.000 318.572,228.070 318.000,233.500" stroke-width="8.032" stroke="rgb(33,33,33)" fill="none" stroke-linecap="round"></path><path d="M 318.000,233.500 C 317.572,237.570 316.849,237.467 316.000,241.500" stroke-width="8.601" stroke="rgb(33,33,33)" fill="none" stroke-linecap="round"></path><path d="M 316.000,241.500 C 314.849,246.967 315.408,247.104 314.000,252.500" stroke-width="7.663" stroke="rgb(33,33,33)" fill="none" stroke-linecap="round"></path><path d="M 314.000,252.500 C 312.408,258.604 311.927,258.477 310.000,264.500" stroke-width="8.117" stroke="rgb(33,33,33)" fill="none" stroke-linecap="round"></path><path d="M 310.000,264.500 C 307.927,270.977 308.301,271.109 306.000,277.500" stroke-width="6.750" stroke="rgb(33,33,33)" fill="none" stroke-linecap="round"></path><path d="M 306.000,277.500 C 303.801,283.609 303.199,283.391 301.000,289.500" stroke-width="6.750" stroke="rgb(33,33,33)" fill="none" stroke-linecap="round"></path><path d="M 301.000,289.500 C 298.699,295.891 299.359,296.132 297.000,302.500" stroke-width="6.750" stroke="rgb(33,33,33)" fill="none" stroke-linecap="round"></path><path d="M 297.000,302.500 C 294.359,309.632 294.292,309.642 291.000,316.500" stroke-width="6.750" stroke="rgb(33,33,33)" fill="none" stroke-linecap="round"></path><path d="M 291.000,316.500 C 288.292,322.142 288.082,322.047 285.000,327.500" stroke-width="6.750" stroke="rgb(33,33,33)" fill="none" stroke-linecap="round"></path><path d="M 285.000,327.500 C 281.582,333.547 281.909,333.815 278.000,339.500" stroke-width="6.750" stroke="rgb(33,33,33)" fill="none" stroke-linecap="round"></path><path d="M 278.000,339.500 C 276.409,341.815 275.910,341.416 274.000,343.500" stroke-width="7.318" stroke="rgb(33,33,33)" fill="none" stroke-linecap="round"></path><path d="M 274.000,343.500 C 270.410,347.416 270.749,347.751 267.000,351.500" stroke-width="7.316" stroke="rgb(33,33,33)" fill="none" stroke-linecap="round"></path><path d="M 267.000,351.500 C 263.749,354.751 263.734,354.833 260.000,357.500" stroke-width="7.731" stroke="rgb(33,33,33)" fill="none" stroke-linecap="round"></path><path d="M 260.000,357.500 C 256.734,359.833 256.548,359.590 253.000,361.500" stroke-width="8.017" stroke="rgb(33,33,33)" fill="none" stroke-linecap="round"></path><path d="M 253.000,361.500 C 250.048,363.090 250.147,363.451 247.000,364.500" stroke-width="8.600" stroke="rgb(33,33,33)" fill="none" stroke-linecap="round"></path><path d="M 247.000,364.500 C 244.147,365.451 244.019,365.226 241.000,365.500" stroke-width="8.856" stroke="rgb(33,33,33)" fill="none" stroke-linecap="round"></path><path d="M 241.000,365.500 C 238.519,365.726 238.475,365.252 236.000,365.500" stroke-width="9.551" stroke="rgb(33,33,33)" fill="none" stroke-linecap="round"></path><path d="M 236.000,365.500 C 233.475,365.752 233.514,366.141 231.000,366.500" stroke-width="9.414" stroke="rgb(33,33,33)" fill="none" stroke-linecap="round"></path><path d="M 231.000,366.500 C 230.014,366.641 230.000,366.500 229.000,366.500" stroke-width="10.346" stroke="rgb(33,33,33)" fill="none" stroke-linecap="round"></path><path d="M 229.000,366.500 C 227.000,366.500 227.000,366.500 225.000,366.500" stroke-width="10.515" stroke="rgb(33,33,33)" fill="none" stroke-linecap="round"></path><path d="M 225.000,366.500 C 223.500,366.500 223.500,366.500 222.000,366.500" stroke-width="11.309" stroke="rgb(33,33,33)" fill="none" stroke-linecap="round"></path><path d="M 222.000,366.500 C 221.000,366.500 220.944,366.736 220.000,366.500" stroke-width="11.688" stroke="rgb(33,33,33)" fill="none" stroke-linecap="round"></path><path d="M 220.000,366.500 C 218.944,366.236 219.036,365.845 218.000,365.500" stroke-width="12.497" stroke="rgb(33,33,33)" fill="none" stroke-linecap="round"></path><path d="M 218.000,365.500 C 217.536,365.345 217.414,365.707 217.000,365.500" stroke-width="12.956" stroke="rgb(33,33,33)" fill="none" stroke-linecap="round"></path><path d="M 217.000,365.500 C 216.414,365.207 216.586,364.793 216.000,364.500" stroke-width="13.755" stroke="rgb(33,33,33)" fill="none" stroke-linecap="round"></path><path d="M 216.000,364.500 C 215.586,364.293 215.500,364.500 215.000,364.500" stroke-width="14.183" stroke="rgb(33,33,33)" fill="none" stroke-linecap="round"></path><path d="M 215.000,364.500 C 215.000,364.500 215.000,364.500 215.000,364.500" stroke-width="15.087" stroke="rgb(33,33,33)" fill="none" stroke-linecap="round"></path><path d="M 215.000,364.500 C 215.000,364.000 215.000,364.000 215.000,363.500" stroke-width="15.298" stroke="rgb(33,33,33)" fill="none" stroke-linecap="round"></path><path d="M 215.000,363.500 C 215.000,363.000 215.000,363.000 215.000,362.500" stroke-width="15.890" stroke="rgb(33,33,33)" fill="none" stroke-linecap="round"></path><path d="M 215.000,362.500 C 215.000,362.500 215.000,362.500 215.000,362.500" stroke-width="16.605" stroke="rgb(33,33,33)" fill="none" stroke-linecap="round"></path><path d="M 215.000,362.500 C 215.500,361.500 215.227,361.273 216.000,360.500" stroke-width="16.736" stroke="rgb(33,33,33)" fill="none" stroke-linecap="round"></path><path d="M 216.000,360.500 C 217.727,358.773 218.123,359.142 220.000,357.500" stroke-width="12.140" stroke="rgb(33,33,33)" fill="none" stroke-linecap="round"></path><path d="M 220.000,357.500 C 222.123,355.642 221.900,355.390 224.000,353.500" stroke-width="12.579" stroke="rgb(33,33,33)" fill="none" stroke-linecap="round"></path><path d="M 224.000,353.500 C 226.900,350.890 227.133,351.146 230.000,348.500" stroke-width="10.082" stroke="rgb(33,33,33)" fill="none" stroke-linecap="round"></path><path d="M 230.000,348.500 C 233.633,345.146 233.500,345.000 237.000,341.500" stroke-width="10.336" stroke="rgb(33,33,33)" fill="none" stroke-linecap="round"></path><path d="M 237.000,341.500 C 241.000,337.500 241.000,337.500 245.000,333.500" stroke-width="8.031" stroke="rgb(33,33,33)" fill="none" stroke-linecap="round"></path><path d="M 245.000,333.500 C 249.000,329.500 249.000,329.500 253.000,325.500" stroke-width="8.100" stroke="rgb(33,33,33)" fill="none" stroke-linecap="round"></path><path d="M 253.000,325.500 C 255.000,323.500 255.000,323.500 257.000,321.500" stroke-width="8.648" stroke="rgb(33,33,33)" fill="none" stroke-linecap="round"></path><path d="M 257.000,321.500 C 261.000,317.500 261.133,317.625 265.000,313.500" stroke-width="8.711" stroke="rgb(33,33,33)" fill="none" stroke-linecap="round"></path><path d="M 265.000,313.500 C 268.633,309.625 268.519,309.516 272.000,305.500" stroke-width="8.708" stroke="rgb(33,33,33)" fill="none" stroke-linecap="round"></path><path d="M 272.000,305.500 C 275.019,302.016 275.333,302.234 278.000,298.500" stroke-width="8.553" stroke="rgb(33,33,33)" fill="none" stroke-linecap="round"></path><path d="M 278.000,298.500 C 280.333,295.234 280.090,295.048 282.000,291.500" stroke-width="9.037" stroke="rgb(33,33,33)" fill="none" stroke-linecap="round"></path><path d="M 282.000,291.500 C 283.590,288.548 283.500,288.500 285.000,285.500" stroke-width="9.137" stroke="rgb(33,33,33)" fill="none" stroke-linecap="round"></path><path d="M 285.000,285.500 C 286.500,282.500 286.713,282.588 288.000,279.500" stroke-width="9.754" stroke="rgb(33,33,33)" fill="none" stroke-linecap="round"></path><path d="M 288.000,279.500 C 289.213,276.588 289.235,276.558 290.000,273.500" stroke-width="10.298" stroke="rgb(33,33,33)" fill="none" stroke-linecap="round"></path><path d="M 290.000,273.500 C 290.735,270.558 290.665,270.514 291.000,267.500" stroke-width="9.295" stroke="rgb(33,33,33)" fill="none" stroke-linecap="round"></path><path d="M 291.000,267.500 C 291.165,266.014 291.000,266.000 291.000,264.500" stroke-width="10.035" stroke="rgb(33,33,33)" fill="none" stroke-linecap="round"></path><path d="M 291.000,264.500 C 291.000,261.000 291.000,261.000 291.000,257.500" stroke-width="10.747" stroke="rgb(33,33,33)" fill="none" stroke-linecap="round"></path><path d="M 291.000,257.500 C 291.000,256.500 291.000,256.500 291.000,255.500" stroke-width="11.329" stroke="rgb(33,33,33)" fill="none" stroke-linecap="round"></path><path d="M 291.000,255.500 C 291.000,254.500 291.000,254.500 291.000,253.500" stroke-width="12.054" stroke="rgb(33,33,33)" fill="none" stroke-linecap="round"></path><path d="M 291.000,253.500 C 291.000,253.000 291.000,253.000 291.000,252.500" stroke-width="12.948" stroke="rgb(33,33,33)" fill="none" stroke-linecap="round"></path><path d="M 291.000,252.500 C 291.000,252.000 291.000,252.000 291.000,251.500" stroke-width="13.055" stroke="rgb(33,33,33)" fill="none" stroke-linecap="round"></path><path d="M 291.000,251.500 C 290.500,251.500 290.250,251.250 290.000,251.500" stroke-width="15.572" stroke="rgb(33,33,33)" fill="none" stroke-linecap="round"></path><path d="M 290.000,251.500 C 289.750,251.750 289.793,252.086 290.000,252.500" stroke-width="16.245" stroke="rgb(33,33,33)" fill="none" stroke-linecap="round"></path><path d="M 290.000,252.500 C 290.293,253.086 290.437,253.077 291.000,253.500" stroke-width="16.481" stroke="rgb(33,33,33)" fill="none" stroke-linecap="round"></path><path d="M 291.000,253.500 C 292.437,254.577 292.500,254.500 294.000,255.500" stroke-width="15.747" stroke="rgb(33,33,33)" fill="none" stroke-linecap="round"></path><path d="M 294.000,255.500 C 295.500,256.500 295.393,256.697 297.000,257.500" stroke-width="15.860" stroke="rgb(33,33,33)" fill="none" stroke-linecap="round"></path><path d="M 297.000,257.500 C 300.393,259.197 300.544,258.905 304.000,260.500" stroke-width="11.711" stroke="rgb(33,33,33)" fill="none" stroke-linecap="round"></path><path d="M 304.000,260.500 C 307.044,261.905 306.826,262.508 310.000,263.500" stroke-width="12.007" stroke="rgb(33,33,33)" fill="none" stroke-linecap="round"></path><path d="M 310.000,263.500 C 314.826,265.008 314.959,264.780 320.000,265.500" stroke-width="9.084" stroke="rgb(33,33,33)" fill="none" stroke-linecap="round"></path><path d="M 320.000,265.500 C 325.459,266.280 325.495,266.060 331.000,266.500" stroke-width="8.962" stroke="rgb(33,33,33)" fill="none" stroke-linecap="round"></path><path d="M 331.000,266.500 C 337.995,267.060 337.991,267.250 345.000,267.500" stroke-width="8.731" stroke="rgb(33,33,33)" fill="none" stroke-linecap="round"></path><path d="M 345.000,267.500 C 351.991,267.750 352.007,267.726 359.000,267.500" stroke-width="8.247" stroke="rgb(33,33,33)" fill="none" stroke-linecap="round"></path><path d="M 359.000,267.500 C 367.507,267.226 367.669,267.970 376.000,266.500" stroke-width="7.963" stroke="rgb(33,33,33)" fill="none" stroke-linecap="round"></path><path d="M 376.000,266.500 C 384.669,264.970 384.549,264.156 393.000,261.500" stroke-width="7.389" stroke="rgb(33,33,33)" fill="none" stroke-linecap="round"></path><path d="M 393.000,261.500 C 402.049,258.656 402.148,258.885 411.000,255.500" stroke-width="7.196" stroke="rgb(33,33,33)" fill="none" stroke-linecap="round"></path><path d="M 411.000,255.500 C 419.148,252.385 419.090,252.191 427.000,248.500" stroke-width="6.864" stroke="rgb(33,33,33)" fill="none" stroke-linecap="round"></path><path d="M 427.000,248.500 C 434.090,245.191 434.362,245.585 441.000,241.500" stroke-width="7.118" stroke="rgb(33,33,33)" fill="none" stroke-linecap="round"></path><path d="M 441.000,241.500 C 447.362,237.585 447.043,237.055 453.000,232.500" stroke-width="6.750" stroke="rgb(33,33,33)" fill="none" stroke-linecap="round"></path><path d="M 453.000,232.500 C 455.543,230.555 455.651,230.668 458.000,228.500" stroke-width="7.292" stroke="rgb(33,33,33)" fill="none" stroke-linecap="round"></path><path d="M 458.000,228.500 C 462.151,224.668 462.000,224.500 466.000,220.500" stroke-width="7.235" stroke="rgb(33,33,33)" fill="none" stroke-linecap="round"></path><path d="M 466.000,220.500 C 469.500,217.000 469.634,217.124 473.000,213.500" stroke-width="7.679" stroke="rgb(33,33,33)" fill="none" stroke-linecap="round"></path><path d="M 473.000,213.500 C 476.134,210.124 476.282,210.207 479.000,206.500" stroke-width="7.738" stroke="rgb(33,33,33)" fill="none" stroke-linecap="round"></path><path d="M 479.000,206.500 C 481.782,202.707 481.901,202.698 484.000,198.500" stroke-width="8.263" stroke="rgb(33,33,33)" fill="none" stroke-linecap="round"></path><path d="M 484.000,198.500 C 485.901,194.698 485.319,194.421 487.000,190.500" stroke-width="7.825" stroke="rgb(33,33,33)" fill="none" stroke-linecap="round"></path><path d="M 487.000,190.500 C 488.319,187.421 488.951,187.647 490.000,184.500" stroke-width="8.422" stroke="rgb(33,33,33)" fill="none" stroke-linecap="round"></path><path d="M 490.000,184.500 C 490.951,181.647 490.456,181.492 491.000,178.500" stroke-width="9.019" stroke="rgb(33,33,33)" fill="none" stroke-linecap="round"></path><path d="M 491.000,178.500 C 491.456,175.992 491.748,176.025 492.000,173.500" stroke-width="9.651" stroke="rgb(33,33,33)" fill="none" stroke-linecap="round"></path><path d="M 492.000,173.500 C 492.248,171.025 492.000,171.000 492.000,168.500" stroke-width="9.155" stroke="rgb(33,33,33)" fill="none" stroke-linecap="round"></path><path d="M 492.000,168.500 C 492.000,166.000 492.000,166.000 492.000,163.500" stroke-width="9.865" stroke="rgb(33,33,33)" fill="none" stroke-linecap="round"></path><path d="M 492.000,163.500 C 492.000,161.000 492.000,161.000 492.000,158.500" stroke-width="9.679" stroke="rgb(33,33,33)" fill="none" stroke-linecap="round"></path><path d="M 492.000,158.500 C 492.000,156.000 492.000,156.000 492.000,153.500" stroke-width="10.347" stroke="rgb(33,33,33)" fill="none" stroke-linecap="round"></path><path d="M 492.000,153.500 C 492.000,151.000 492.248,150.975 492.000,148.500" stroke-width="10.046" stroke="rgb(33,33,33)" fill="none" stroke-linecap="round"></path><path d="M 492.000,148.500 C 491.748,145.975 491.419,146.014 491.000,143.500" stroke-width="10.672" stroke="rgb(33,33,33)" fill="none" stroke-linecap="round"></path><path d="M 491.000,143.500 C 490.419,140.014 490.739,139.949 490.000,136.500" stroke-width="9.249" stroke="rgb(33,33,33)" fill="none" stroke-linecap="round"></path><path d="M 490.000,136.500 C 489.239,132.949 488.761,133.051 488.000,129.500" stroke-width="9.851" stroke="rgb(33,33,33)" fill="none" stroke-linecap="round"></path><path d="M 488.000,129.500 C 487.261,126.051 487.538,125.994 487.000,122.500" stroke-width="8.744" stroke="rgb(33,33,33)" fill="none" stroke-linecap="round"></path><path d="M 487.000,122.500 C 486.538,119.494 486.731,119.425 486.000,116.500" stroke-width="9.435" stroke="rgb(33,33,33)" fill="none" stroke-linecap="round"></path><path d="M 486.000,116.500 C 485.731,115.425 485.352,115.555 485.000,114.500" stroke-width="9.801" stroke="rgb(33,33,33)" fill="none" stroke-linecap="round"></path><path d="M 485.000,114.500 C 484.352,112.555 484.566,112.481 484.000,110.500" stroke-width="10.567" stroke="rgb(33,33,33)" fill="none" stroke-linecap="round"></path><path d="M 484.000,110.500 C 483.566,108.981 483.586,108.964 483.000,107.500" stroke-width="10.708" stroke="rgb(33,33,33)" fill="none" stroke-linecap="round"></path><path d="M 483.000,107.500 C 482.586,106.464 482.613,106.419 482.000,105.500" stroke-width="11.589" stroke="rgb(33,33,33)" fill="none" stroke-linecap="round"></path><path d="M 482.000,105.500 C 481.613,104.919 481.500,105.000 481.000,104.500" stroke-width="11.967" stroke="rgb(33,33,33)" fill="none" stroke-linecap="round"></path><path d="M 481.000,104.500 C 480.500,104.000 480.293,104.086 480.000,103.500" stroke-width="12.743" stroke="rgb(33,33,33)" fill="none" stroke-linecap="round"></path><path d="M 480.000,103.500 C 479.793,103.086 480.250,102.750 480.000,102.500" stroke-width="13.534" stroke="rgb(33,33,33)" fill="none" stroke-linecap="round"></path><path d="M 480.000,102.500 C 479.750,102.250 479.500,102.500 479.000,102.500" stroke-width="14.240" stroke="rgb(33,33,33)" fill="none" stroke-linecap="round"></path><path d="M 479.000,102.500 C 478.500,102.500 478.414,102.293 478.000,102.500" stroke-width="16.696" stroke="rgb(33,33,33)" fill="none" stroke-linecap="round"></path><path d="M 478.000,102.500 C 477.414,102.793 477.309,102.882 477.000,103.500" stroke-width="16.851" stroke="rgb(33,33,33)" fill="none" stroke-linecap="round"></path><path d="M 477.000,103.500 C 476.309,104.882 476.434,104.981 476.000,106.500" stroke-width="16.325" stroke="rgb(33,33,33)" fill="none" stroke-linecap="round"></path><path d="M 476.000,106.500 C 475.434,108.481 475.500,108.500 475.000,110.500" stroke-width="15.885" stroke="rgb(33,33,33)" fill="none" stroke-linecap="round"></path><path d="M 475.000,110.500 C 474.500,112.500 474.692,112.562 474.000,114.500" stroke-width="15.139" stroke="rgb(33,33,33)" fill="none" stroke-linecap="round"></path><path d="M 474.000,114.500 C 472.192,119.562 471.358,119.339 470.000,124.500" stroke-width="13.814" stroke="rgb(33,33,33)" fill="none" stroke-linecap="round"></path><path d="M 470.000,124.500 C 468.858,128.839 469.705,129.032 469.000,133.500" stroke-width="10.246" stroke="rgb(33,33,33)" fill="none" stroke-linecap="round"></path><path d="M 469.000,133.500 C 468.205,138.532 467.658,138.453 467.000,143.500" stroke-width="10.379" stroke="rgb(33,33,33)" fill="none" stroke-linecap="round"></path><path d="M 467.000,143.500 C 466.158,149.953 466.720,150.024 466.000,156.500" stroke-width="8.393" stroke="rgb(33,33,33)" fill="none" stroke-linecap="round"></path><path d="M 466.000,156.500 C 465.220,163.524 464.753,163.474 464.000,170.500" stroke-width="8.559" stroke="rgb(33,33,33)" fill="none" stroke-linecap="round"></path><path d="M 464.000,170.500 C 463.253,177.474 463.676,177.517 463.000,184.500" stroke-width="7.246" stroke="rgb(33,33,33)" fill="none" stroke-linecap="round"></path><path d="M 463.000,184.500 C 462.176,193.017 461.752,192.978 461.000,201.500" stroke-width="7.503" stroke="rgb(33,33,33)" fill="none" stroke-linecap="round"></path><path d="M 461.000,201.500 C 460.252,209.978 460.531,210.002 460.000,218.500" stroke-width="6.750" stroke="rgb(33,33,33)" fill="none" stroke-linecap="round"></path><path d="M 460.000,218.500 C 459.531,226.002 459.484,225.999 459.000,233.500" stroke-width="6.750" stroke="rgb(33,33,33)" fill="none" stroke-linecap="round"></path><path d="M 459.000,233.500 C 458.484,241.499 458.516,241.501 458.000,249.500" stroke-width="6.750" stroke="rgb(33,33,33)" fill="none" stroke-linecap="round"></path><path d="M 458.000,249.500 C 457.516,257.001 457.500,257.000 457.000,264.500" stroke-width="6.750" stroke="rgb(33,33,33)" fill="none" stroke-linecap="round"></path><path d="M 457.000,264.500 C 456.500,272.000 456.773,272.029 456.000,279.500" stroke-width="6.750" stroke="rgb(33,33,33)" fill="none" stroke-linecap="round"></path><path d="M 456.000,279.500 C 455.273,286.529 454.727,286.471 454.000,293.500" stroke-width="6.750" stroke="rgb(33,33,33)" fill="none" stroke-linecap="round"></path><path d="M 454.000,293.500 C 453.227,300.971 453.829,301.038 453.000,308.500" stroke-width="6.750" stroke="rgb(33,33,33)" fill="none" stroke-linecap="round"></path><path d="M 453.000,308.500 C 452.329,314.538 452.000,314.500 451.000,320.500" stroke-width="6.750" stroke="rgb(33,33,33)" fill="none" stroke-linecap="round"></path><path d="M 451.000,320.500 C 450.500,323.500 450.596,323.519 450.000,326.500" stroke-width="6.750" stroke="rgb(33,33,33)" fill="none" stroke-linecap="round"></path><path d="M 450.000,326.500 C 449.096,331.019 449.172,331.045 448.000,335.500" stroke-width="6.907" stroke="rgb(33,33,33)" fill="none" stroke-linecap="round"></path><path d="M 448.000,335.500 C 446.672,340.545 446.801,340.612 445.000,345.500" stroke-width="6.750" stroke="rgb(33,33,33)" fill="none" stroke-linecap="round"></path><path d="M 445.000,345.500 C 443.301,350.112 442.793,349.917 441.000,354.500" stroke-width="6.902" stroke="rgb(33,33,33)" fill="none" stroke-linecap="round"></path><path d="M 441.000,354.500 C 438.293,361.417 438.993,361.765 436.000,368.500" stroke-width="6.750" stroke="rgb(33,33,33)" fill="none" stroke-linecap="round"></path><path d="M 436.000,368.500 C 434.993,370.765 434.340,370.395 433.000,372.500" stroke-width="6.750" stroke="rgb(33,33,33)" fill="none" stroke-linecap="round"></path><path d="M 433.000,372.500 C 430.840,375.895 431.333,376.234 429.000,379.500" stroke-width="6.921" stroke="rgb(33,33,33)" fill="none" stroke-linecap="round"></path><path d="M 429.000,379.500 C 426.333,383.234 425.978,382.981 423.000,386.500" stroke-width="7.221" stroke="rgb(33,33,33)" fill="none" stroke-linecap="round"></path><path d="M 423.000,386.500 C 420.478,389.481 420.748,389.752 418.000,392.500" stroke-width="7.790" stroke="rgb(33,33,33)" fill="none" stroke-linecap="round"></path><path d="M 418.000,392.500 C 415.748,394.752 415.686,394.791 413.000,396.500" stroke-width="8.123" stroke="rgb(33,33,33)" fill="none" stroke-linecap="round"></path><path d="M 413.000,396.500 C 410.186,398.291 410.097,398.225 407.000,399.500" stroke-width="8.742" stroke="rgb(33,33,33)" fill="none" stroke-linecap="round"></path><path d="M 407.000,399.500 C 401.597,401.725 401.625,402.020 396.000,403.500" stroke-width="8.288" stroke="rgb(33,33,33)" fill="none" stroke-linecap="round"></path><path d="M 396.000,403.500 C 392.125,404.520 392.016,404.264 388.000,404.500" stroke-width="8.744" stroke="rgb(33,33,33)" fill="none" stroke-linecap="round"></path><path d="M 388.000,404.500 C 383.516,404.764 383.500,404.500 379.000,404.500" stroke-width="8.607" stroke="rgb(33,33,33)" fill="none" stroke-linecap="round"></path><path d="M 379.000,404.500 C 374.500,404.500 374.325,405.410 370.000,404.500" stroke-width="8.952" stroke="rgb(33,33,33)" fill="none" stroke-linecap="round"></path><path d="M 370.000,404.500 C 364.825,403.410 364.740,402.995 360.000,400.500" stroke-width="8.549" stroke="rgb(33,33,33)" fill="none" stroke-linecap="round"></path><path d="M 360.000,400.500 C 355.240,397.995 355.397,397.641 351.000,394.500" stroke-width="8.836" stroke="rgb(33,33,33)" fill="none" stroke-linecap="round"></path><path d="M 351.000,394.500 C 348.397,392.641 348.478,392.527 346.000,390.500" stroke-width="9.013" stroke="rgb(33,33,33)" fill="none" stroke-linecap="round"></path><path d="M 346.000,390.500 C 342.978,388.027 342.867,388.146 340.000,385.500" stroke-width="9.465" stroke="rgb(33,33,33)" fill="none" stroke-linecap="round"></path><path d="M 340.000,385.500 C 336.367,382.146 336.182,382.261 333.000,378.500" stroke-width="8.415" stroke="rgb(33,33,33)" fill="none" stroke-linecap="round"></path><path d="M 333.000,378.500 C 330.682,375.761 331.000,375.500 329.000,372.500" stroke-width="8.975" stroke="rgb(33,33,33)" fill="none" stroke-linecap="round"></path><path d="M 329.000,372.500 C 327.000,369.500 326.935,369.541 325.000,366.500" stroke-width="8.829" stroke="rgb(33,33,33)" fill="none" stroke-linecap="round"></path><path d="M 325.000,366.500 C 323.435,364.041 323.300,364.099 322.000,361.500" stroke-width="9.459" stroke="rgb(33,33,33)" fill="none" stroke-linecap="round"></path><path d="M 322.000,361.500 C 320.800,359.099 320.945,359.020 320.000,356.500" stroke-width="9.516" stroke="rgb(33,33,33)" fill="none" stroke-linecap="round"></path><path d="M 320.000,356.500 C 319.445,355.020 319.257,355.040 319.000,353.500" stroke-width="10.379" stroke="rgb(33,33,33)" fill="none" stroke-linecap="round"></path><path d="M 319.000,353.500 C 318.757,352.040 319.243,351.960 319.000,350.500" stroke-width="10.327" stroke="rgb(33,33,33)" fill="none" stroke-linecap="round"></path><path d="M 319.000,350.500 C 318.743,348.960 318.257,349.040 318.000,347.500" stroke-width="11.143" stroke="rgb(33,33,33)" fill="none" stroke-linecap="round"></path><path d="M 318.000,347.500 C 317.757,346.040 318.000,346.000 318.000,344.500" stroke-width="10.923" stroke="rgb(33,33,33)" fill="none" stroke-linecap="round"></path><path d="M 318.000,344.500 C 318.000,343.500 318.000,343.500 318.000,342.500" stroke-width="11.831" stroke="rgb(33,33,33)" fill="none" stroke-linecap="round"></path><path d="M 318.000,342.500 C 318.000,341.500 318.000,341.500 318.000,340.500" stroke-width="11.893" stroke="rgb(33,33,33)" fill="none" stroke-linecap="round"></path><path d="M 318.000,340.500 C 318.000,339.000 318.000,339.000 318.000,337.500" stroke-width="12.617" stroke="rgb(33,33,33)" fill="none" stroke-linecap="round"></path><path d="M 318.000,337.500 C 318.000,336.500 317.465,336.214 318.000,335.500" stroke-width="12.521" stroke="rgb(33,33,33)" fill="none" stroke-linecap="round"></path><path d="M 318.000,335.500 C 318.965,334.214 319.594,334.625 321.000,333.500" stroke-width="13.031" stroke="rgb(33,33,33)" fill="none" stroke-linecap="round"></path><path d="M 321.000,333.500 C 324.594,330.625 324.379,330.345 328.000,327.500" stroke-width="13.102" stroke="rgb(33,33,33)" fill="none" stroke-linecap="round"></path><path d="M 328.000,327.500 C 331.379,324.845 331.387,324.823 335.000,322.500" stroke-width="10.849" stroke="rgb(33,33,33)" fill="none" stroke-linecap="round"></path><path d="M 335.000,322.500 C 338.387,320.323 338.444,320.396 342.000,318.500" stroke-width="11.143" stroke="rgb(33,33,33)" fill="none" stroke-linecap="round"></path><path d="M 342.000,318.500 C 345.944,316.396 345.917,316.315 350.000,314.500" stroke-width="7.947" stroke="rgb(33,33,33)" fill="none" stroke-linecap="round"></path><path d="M 350.000,314.500 C 354.917,312.315 354.922,312.277 360.000,310.500" stroke-width="7.953" stroke="rgb(33,33,33)" fill="none" stroke-linecap="round"></path><path d="M 360.000,310.500 C 364.922,308.777 365.000,309.000 370.000,307.500" stroke-width="8.201" stroke="rgb(33,33,33)" fill="none" stroke-linecap="round"></path><path d="M 370.000,307.500 C 375.000,306.000 374.911,305.606 380.000,304.500" stroke-width="8.187" stroke="rgb(33,33,33)" fill="none" stroke-linecap="round"></path><path d="M 380.000,304.500 C 386.411,303.106 386.506,303.539 393.000,302.500" stroke-width="8.293" stroke="rgb(33,33,33)" fill="none" stroke-linecap="round"></path><path d="M 393.000,302.500 C 399.006,301.539 398.984,301.391 405.000,300.500" stroke-width="7.913" stroke="rgb(33,33,33)" fill="none" stroke-linecap="round"></path><path d="M 405.000,300.500 C 412.484,299.391 412.477,299.278 420.000,298.500" stroke-width="7.942" stroke="rgb(33,33,33)" fill="none" stroke-linecap="round"></path><path d="M 420.000,298.500 C 426.977,297.778 426.991,297.742 434.000,297.500" stroke-width="7.478" stroke="rgb(33,33,33)" fill="none" stroke-linecap="round"></path><path d="M 434.000,297.500 C 441.491,297.242 441.500,297.500 449.000,297.500" stroke-width="7.595" stroke="rgb(33,33,33)" fill="none" stroke-linecap="round"></path><path d="M 449.000,297.500 C 457.500,297.500 457.500,297.500 466.000,297.500" stroke-width="7.184" stroke="rgb(33,33,33)" fill="none" stroke-linecap="round"></path><path d="M 466.000,297.500 C 474.000,297.500 474.000,297.500 482.000,297.500" stroke-width="7.297" stroke="rgb(33,33,33)" fill="none" stroke-linecap="round"></path><path d="M 482.000,297.500 C 489.500,297.500 489.537,296.985 497.000,297.500" stroke-width="6.750" stroke="rgb(33,33,33)" fill="none" stroke-linecap="round"></path><path d="M 497.000,297.500 C 504.037,297.985 503.976,298.831 511.000,299.500" stroke-width="6.814" stroke="rgb(33,33,33)" fill="none" stroke-linecap="round"></path><path d="M 511.000,299.500 C 514.476,299.831 514.508,299.316 518.000,299.500" stroke-width="7.087" stroke="rgb(33,33,33)" fill="none" stroke-linecap="round"></path><path d="M 518.000,299.500 C 524.008,299.816 524.002,299.978 530.000,300.500" stroke-width="7.487" stroke="rgb(33,33,33)" fill="none" stroke-linecap="round"></path><path d="M 530.000,300.500 C 535.502,300.978 535.490,301.224 541.000,301.500" stroke-width="6.944" stroke="rgb(33,33,33)" fill="none" stroke-linecap="round"></path><path d="M 541.000,301.500 C 545.490,301.724 545.516,301.236 550.000,301.500" stroke-width="7.580" stroke="rgb(33,33,33)" fill="none" stroke-linecap="round"></path><path d="M 550.000,301.500 C 554.016,301.736 553.987,302.213 558.000,302.500" stroke-width="7.390" stroke="rgb(33,33,33)" fill="none" stroke-linecap="round"></path><path d="M 558.000,302.500 C 560.987,302.713 561.000,302.500 564.000,302.500" stroke-width="8.151" stroke="rgb(33,33,33)" fill="none" stroke-linecap="round"></path><path d="M 564.000,302.500 C 565.000,302.500 565.000,302.500 566.000,302.500" stroke-width="8.725" stroke="rgb(33,33,33)" fill="none" stroke-linecap="round"></path><path d="M 566.000,302.500 C 568.000,302.500 568.000,302.500 570.000,302.500" stroke-width="9.580" stroke="rgb(33,33,33)" fill="none" stroke-linecap="round"></path><path d="M 570.000,302.500 C 572.000,302.500 572.000,302.500 574.000,302.500" stroke-width="9.385" stroke="rgb(33,33,33)" fill="none" stroke-linecap="round"></path><path d="M 574.000,302.500 C 575.000,302.500 575.000,302.500 576.000,302.500" stroke-width="10.359" stroke="rgb(33,33,33)" fill="none" stroke-linecap="round"></path><path d="M 576.000,302.500 C 576.500,302.500 576.500,302.500 577.000,302.500" stroke-width="11.063" stroke="rgb(33,33,33)" fill="none" stroke-linecap="round"></path><path d="M 577.000,302.500 C 577.500,302.500 577.500,302.500 578.000,302.500" stroke-width="12.035" stroke="rgb(33,33,33)" fill="none" stroke-linecap="round"></path><path d="M 578.000,302.500 C 578.500,302.500 578.500,302.500 579.000,302.500" stroke-width="12.688" stroke="rgb(33,33,33)" fill="none" stroke-linecap="round"></path><path d="M 579.000,302.500 C 579.000,302.500 579.000,302.500 579.000,302.500" stroke-width="13.712" stroke="rgb(33,33,33)" fill="none" stroke-linecap="round"></path><circle r="6" cx="556" cy="265.5" fill="rgb(33,33,33)"></circle></svg>