<svg xmlns="http://www.w3.org/2000/svg" xmlns:xlink="http://www.w3.org/1999/xlink" viewBox="0 0 375 500"><path d="M 70.000,265.500 C 72.500,267.500 72.008,268.902 75.000,269.500" stroke-width="19.713" stroke="rgb(33,33,33)" fill="none" stroke-linecap="round"></path><path d="M 75.000,269.500 C 82.008,270.902 82.528,270.021 90.000,269.500" stroke-width="17.039" stroke="rgb(33,33,33)" fill="none" stroke-linecap="round"></path><path d="M 90.000,269.500 C 104.028,268.521 104.369,269.695 118.000,266.500" stroke-width="13.835" stroke="rgb(33,33,33)" fill="none" stroke-linecap="round"></path><path d="M 118.000,266.500 C 136.369,262.195 136.182,261.001 154.000,254.500" stroke-width="11.297" stroke="rgb(33,33,33)" fill="none" stroke-linecap="round"></path><path d="M 154.000,254.500 C 173.182,247.501 172.929,246.815 192.000,239.500" stroke-width="9.442" stroke="rgb(33,33,33)" fill="none" stroke-linecap="round"></path><path d="M 192.000,239.500 C 209.429,232.815 209.767,233.631 227.000,226.500" stroke-width="8.599" stroke="rgb(33,33,33)" fill="none" stroke-linecap="round"></path><path d="M 227.000,226.500 C 238.767,221.631 238.741,221.442 250.000,215.500" stroke-width="8.271" stroke="rgb(33,33,33)" fill="none" stroke-linecap="round"></path><path d="M 250.000,215.500 C 256.741,211.942 256.974,212.020 263.000,207.500" stroke-width="8.619" stroke="rgb(33,33,33)" fill="none" stroke-linecap="round"></path><path d="M 263.000,207.500 C 264.974,206.020 266.438,205.254 266.000,203.500" stroke-width="9.470" stroke="rgb(33,33,33)" fill="none" stroke-linecap="round"></path><path d="M 266.000,203.500 C 265.438,201.254 264.071,199.872 261.000,199.500" stroke-width="10.196" stroke="rgb(33,33,33)" fill="none" stroke-linecap="round"></path><path d="M 261.000,199.500 C 247.571,197.872 246.712,197.314 233.000,199.500" stroke-width="9.468" stroke="rgb(33,33,33)" fill="none" stroke-linecap="round"></path><path d="M 233.000,199.500 C 212.212,202.814 211.838,203.179 192.000,210.500" stroke-width="8.401" stroke="rgb(33,33,33)" fill="none" stroke-linecap="round"></path><path d="M 192.000,210.500 C 169.838,218.679 169.981,219.510 149.000,230.500" stroke-width="7.626" stroke="rgb(33,33,33)" fill="none" stroke-linecap="round"></path><path d="M 149.000,230.500 C 127.981,241.510 127.989,241.707 108.000,254.500" stroke-width="6.939" stroke="rgb(33,33,33)" fill="none" stroke-linecap="round"></path><path d="M 108.000,254.500 C 90.489,265.707 90.469,265.831 74.000,278.500" stroke-width="6.750" stroke="rgb(33,33,33)" fill="none" stroke-linecap="round"></path><path d="M 74.000,278.500 C 64.469,285.831 64.295,285.873 56.000,294.500" stroke-width="6.918" stroke="rgb(33,33,33)" fill="none" stroke-linecap="round"></path><path d="M 56.000,294.500 C 51.795,298.873 51.483,299.179 49.000,304.500" stroke-width="7.541" stroke="rgb(33,33,33)" fill="none" stroke-linecap="round"></path><path d="M 49.000,304.500 C 47.983,306.679 47.125,308.875 49.000,309.500" stroke-width="8.413" stroke="rgb(33,33,33)" fill="none" stroke-linecap="round"></path><path d="M 49.000,309.500 C 54.625,311.375 57.010,311.782 64.000,309.500" stroke-width="8.868" stroke="rgb(33,33,33)" fill="none" stroke-linecap="round"></path><path d="M 64.000,309.500 C 81.510,303.782 82.391,303.669 98.000,293.500" stroke-width="7.899" stroke="rgb(33,33,33)" fill="none" stroke-linecap="round"></path><path d="M 98.000,293.500 C 115.391,282.169 114.386,280.433 130.000,266.500" stroke-width="7.381" stroke="rgb(33,33,33)" fill="none" stroke-linecap="round"></path><path d="M 130.000,266.500 C 146.886,251.433 147.001,251.499 163.000,235.500" stroke-width="6.917" stroke="rgb(33,33,33)" fill="none" stroke-linecap="round"></path><path d="M 163.000,235.500 C 178.001,220.499 178.231,220.613 192.000,204.500" stroke-width="6.750" stroke="rgb(33,33,33)" fill="none" stroke-linecap="round"></path><path d="M 192.000,204.500 C 201.731,193.113 201.856,193.029 210.000,180.500" stroke-width="6.750" stroke="rgb(33,33,33)" fill="none" stroke-linecap="round"></path><path d="M 210.000,180.500 C 214.856,173.029 215.339,172.816 218.000,164.500" stroke-width="7.149" stroke="rgb(33,33,33)" fill="none" stroke-linecap="round"></path><path d="M 218.000,164.500 C 219.339,160.316 219.286,159.357 218.000,155.500" stroke-width="7.874" stroke="rgb(33,33,33)" fill="none" stroke-linecap="round"></path><path d="M 218.000,155.500 C 217.286,153.357 216.307,152.199 214.000,152.500" stroke-width="8.742" stroke="rgb(33,33,33)" fill="none" stroke-linecap="round"></path><path d="M 214.000,152.500 C 204.807,153.699 202.893,152.917 195.000,158.500" stroke-width="8.853" stroke="rgb(33,33,33)" fill="none" stroke-linecap="round"></path><path d="M 195.000,158.500 C 182.393,167.417 182.438,168.834 173.000,181.500" stroke-width="8.422" stroke="rgb(33,33,33)" fill="none" stroke-linecap="round"></path><path d="M 173.000,181.500 C 163.438,194.334 163.208,194.755 157.000,209.500" stroke-width="8.015" stroke="rgb(33,33,33)" fill="none" stroke-linecap="round"></path><path d="M 157.000,209.500 C 151.208,223.255 151.549,223.771 149.000,238.500" stroke-width="7.924" stroke="rgb(33,33,33)" fill="none" stroke-linecap="round"></path><path d="M 149.000,238.500 C 147.049,249.771 148.281,249.995 148.000,261.500" stroke-width="7.997" stroke="rgb(33,33,33)" fill="none" stroke-linecap="round"></path><path d="M 148.000,261.500 C 147.781,270.495 146.128,270.942 148.000,279.500" stroke-width="8.263" stroke="rgb(33,33,33)" fill="none" stroke-linecap="round"></path><circle r="6" cx="216" cy="264.5" fill="rgb(33,33,33)"></circle></svg>