<svg xmlns="http://www.w3.org/2000/svg" xmlns:xlink="http://www.w3.org/1999/xlink" viewBox="0 0 800 500"><path d="M 350.500,357.000 C 350.500,360.000 350.045,360.045 350.500,363.000" stroke-width="20.149" stroke="rgb(33,33,33)" fill="none" stroke-linecap="round"></path><path d="M 350.500,363.000 C 352.045,373.045 352.139,373.085 354.500,383.000" stroke-width="16.279" stroke="rgb(33,33,33)" fill="none" stroke-linecap="round"></path><path d="M 354.500,383.000 C 357.139,394.085 357.435,394.018 360.500,405.000" stroke-width="13.837" stroke="rgb(33,33,33)" fill="none" stroke-linecap="round"></path><path d="M 360.500,405.000 C 363.435,415.518 363.651,415.460 366.500,426.000" stroke-width="12.441" stroke="rgb(33,33,33)" fill="none" stroke-linecap="round"></path><path d="M 366.500,426.000 C 368.651,433.960 368.160,434.104 370.500,442.000" stroke-width="11.938" stroke="rgb(33,33,33)" fill="none" stroke-linecap="round"></path><path d="M 370.500,442.000 C 372.160,447.604 372.445,447.521 374.500,453.000" stroke-width="11.949" stroke="rgb(33,33,33)" fill="none" stroke-linecap="round"></path><path d="M 374.500,453.000 C 375.445,455.521 375.555,455.480 376.500,458.000" stroke-width="12.507" stroke="rgb(33,33,33)" fill="none" stroke-linecap="round"></path><path d="M 376.500,458.000 C 377.055,459.480 376.740,459.860 377.500,461.000" stroke-width="13.214" stroke="rgb(33,33,33)" fill="none" stroke-linecap="round"></path><path d="M 377.500,461.000 C 377.740,461.360 378.400,461.400 378.500,461.000" stroke-width="14.174" stroke="rgb(33,33,33)" fill="none" stroke-linecap="round"></path><path d="M 378.500,461.000 C 378.900,459.400 378.666,458.992 378.500,457.000" stroke-width="14.741" stroke="rgb(33,33,33)" fill="none" stroke-linecap="round"></path><path d="M 378.500,457.000 C 377.666,446.992 378.714,446.740 376.500,437.000" stroke-width="13.062" stroke="rgb(33,33,33)" fill="none" stroke-linecap="round"></path><path d="M 376.500,437.000 C 373.714,424.740 372.860,424.868 368.500,413.000" stroke-width="11.653" stroke="rgb(33,33,33)" fill="none" stroke-linecap="round"></path><path d="M 368.500,413.000 C 363.860,400.368 363.352,400.557 358.500,388.000" stroke-width="10.619" stroke="rgb(33,33,33)" fill="none" stroke-linecap="round"></path><path d="M 358.500,388.000 C 354.852,378.557 355.390,378.337 351.500,369.000" stroke-width="10.311" stroke="rgb(33,33,33)" fill="none" stroke-linecap="round"></path><path d="M 351.500,369.000 C 347.890,360.337 346.635,360.777 343.500,352.000" stroke-width="10.165" stroke="rgb(33,33,33)" fill="none" stroke-linecap="round"></path><path d="M 343.500,352.000 C 341.635,346.777 342.777,346.429 341.500,341.000" stroke-width="10.518" stroke="rgb(33,33,33)" fill="none" stroke-linecap="round"></path><path d="M 341.500,341.000 C 340.777,337.929 340.178,338.052 339.500,335.000" stroke-width="11.131" stroke="rgb(33,33,33)" fill="none" stroke-linecap="round"></path><path d="M 339.500,335.000 C 339.178,333.552 339.500,333.500 339.500,332.000" stroke-width="11.977" stroke="rgb(33,33,33)" fill="none" stroke-linecap="round"></path><path d="M 339.500,332.000 C 339.500,331.500 339.500,330.750 339.500,331.000" stroke-width="12.945" stroke="rgb(33,33,33)" fill="none" stroke-linecap="round"></path><path d="M 339.500,331.000 C 339.500,331.750 339.208,332.541 339.500,334.000" stroke-width="13.896" stroke="rgb(33,33,33)" fill="none" stroke-linecap="round"></path><path d="M 339.500,334.000 C 340.208,337.541 339.891,337.782 341.500,341.000" stroke-width="13.951" stroke="rgb(33,33,33)" fill="none" stroke-linecap="round"></path><path d="M 341.500,341.000 C 343.891,345.782 344.336,345.619 347.500,350.000" stroke-width="13.605" stroke="rgb(33,33,33)" fill="none" stroke-linecap="round"></path><path d="M 347.500,350.000 C 350.836,354.619 351.119,354.412 354.500,359.000" stroke-width="13.280" stroke="rgb(33,33,33)" fill="none" stroke-linecap="round"></path><path d="M 354.500,359.000 C 358.119,363.912 357.536,364.426 361.500,369.000" stroke-width="12.952" stroke="rgb(33,33,33)" fill="none" stroke-linecap="round"></path><path d="M 361.500,369.000 C 364.036,371.926 364.330,371.735 367.500,374.000" stroke-width="13.126" stroke="rgb(33,33,33)" fill="none" stroke-linecap="round"></path><path d="M 367.500,374.000 C 371.330,376.735 371.381,376.753 375.500,379.000" stroke-width="13.106" stroke="rgb(33,33,33)" fill="none" stroke-linecap="round"></path><path d="M 375.500,379.000 C 376.881,379.753 377.000,379.500 378.500,380.000" stroke-width="13.723" stroke="rgb(33,33,33)" fill="none" stroke-linecap="round"></path><path d="M 378.500,380.000 C 380.000,380.500 380.000,380.500 381.500,381.000" stroke-width="14.284" stroke="rgb(33,33,33)" fill="none" stroke-linecap="round"></path><path d="M 381.500,381.000 C 383.000,381.500 382.955,381.779 384.500,382.000" stroke-width="14.766" stroke="rgb(33,33,33)" fill="none" stroke-linecap="round"></path><path d="M 384.500,382.000 C 386.455,382.279 386.500,382.000 388.500,382.000" stroke-width="15.065" stroke="rgb(33,33,33)" fill="none" stroke-linecap="round"></path><path d="M 388.500,382.000 C 391.500,382.000 391.536,382.296 394.500,382.000" stroke-width="15.046" stroke="rgb(33,33,33)" fill="none" stroke-linecap="round"></path><path d="M 394.500,382.000 C 396.536,381.796 396.737,381.979 398.500,381.000" stroke-width="15.280" stroke="rgb(33,33,33)" fill="none" stroke-linecap="round"></path><path d="M 398.500,381.000 C 401.237,379.479 401.406,379.355 403.500,377.000" stroke-width="15.163" stroke="rgb(33,33,33)" fill="none" stroke-linecap="round"></path><path d="M 403.500,377.000 C 405.406,374.855 405.388,374.668 406.500,372.000" stroke-width="15.097" stroke="rgb(33,33,33)" fill="none" stroke-linecap="round"></path><path d="M 406.500,372.000 C 407.888,368.668 407.952,368.563 408.500,365.000" stroke-width="14.904" stroke="rgb(33,33,33)" fill="none" stroke-linecap="round"></path><path d="M 408.500,365.000 C 408.952,362.063 408.500,362.000 408.500,359.000" stroke-width="14.917" stroke="rgb(33,33,33)" fill="none" stroke-linecap="round"></path><path d="M 408.500,359.000 C 408.500,357.000 408.500,357.000 408.500,355.000" stroke-width="15.190" stroke="rgb(33,33,33)" fill="none" stroke-linecap="round"></path><path d="M 408.500,355.000 C 408.500,353.000 408.821,352.924 408.500,351.000" stroke-width="15.416" stroke="rgb(33,33,33)" fill="none" stroke-linecap="round"></path><path d="M 408.500,351.000 C 408.321,349.924 407.845,350.036 407.500,349.000" stroke-width="15.856" stroke="rgb(33,33,33)" fill="none" stroke-linecap="round"></path><path d="M 407.500,349.000 C 407.345,348.536 407.750,348.250 407.500,348.000" stroke-width="16.417" stroke="rgb(33,33,33)" fill="none" stroke-linecap="round"></path><path d="M 407.500,348.000 C 407.250,347.750 406.563,347.563 406.500,348.000" stroke-width="17.033" stroke="rgb(33,33,33)" fill="none" stroke-linecap="round"></path><path d="M 406.500,348.000 C 406.063,351.063 406.705,351.510 406.500,355.000" stroke-width="16.417" stroke="rgb(33,33,33)" fill="none" stroke-linecap="round"></path><path d="M 406.500,355.000 C 406.205,360.010 405.662,359.983 405.500,365.000" stroke-width="15.517" stroke="rgb(33,33,33)" fill="none" stroke-linecap="round"></path><path d="M 405.500,365.000 C 405.162,375.483 405.500,375.500 405.500,386.000" stroke-width="13.442" stroke="rgb(33,33,33)" fill="none" stroke-linecap="round"></path><path d="M 405.500,386.000 C 405.500,396.500 405.500,396.500 405.500,407.000" stroke-width="12.256" stroke="rgb(33,33,33)" fill="none" stroke-linecap="round"></path><path d="M 405.500,407.000 C 405.500,415.000 405.234,415.010 405.500,423.000" stroke-width="11.915" stroke="rgb(33,33,33)" fill="none" stroke-linecap="round"></path><path d="M 405.500,423.000 C 405.734,430.010 405.512,430.086 406.500,437.000" stroke-width="11.671" stroke="rgb(33,33,33)" fill="none" stroke-linecap="round"></path><path d="M 406.500,437.000 C 407.012,440.586 407.542,440.489 408.500,444.000" stroke-width="12.099" stroke="rgb(33,33,33)" fill="none" stroke-linecap="round"></path><path d="M 408.500,444.000 C 409.042,445.989 409.098,445.988 409.500,448.000" stroke-width="12.756" stroke="rgb(33,33,33)" fill="none" stroke-linecap="round"></path><path d="M 409.500,448.000 C 409.598,448.488 409.250,448.750 409.500,449.000" stroke-width="13.666" stroke="rgb(33,33,33)" fill="none" stroke-linecap="round"></path><path d="M 409.500,449.000 C 409.750,449.250 410.691,449.286 410.500,449.000" stroke-width="14.486" stroke="rgb(33,33,33)" fill="none" stroke-linecap="round"></path><path d="M 410.500,449.000 C 409.691,447.786 409.000,447.500 407.500,446.000" stroke-width="15.273" stroke="rgb(33,33,33)" fill="none" stroke-linecap="round"></path><path d="M 407.500,446.000 C 403.500,442.000 403.959,441.452 399.500,438.000" stroke-width="14.442" stroke="rgb(33,33,33)" fill="none" stroke-linecap="round"></path><path d="M 399.500,438.000 C 388.459,429.452 388.784,428.581 376.500,422.000" stroke-width="12.263" stroke="rgb(33,33,33)" fill="none" stroke-linecap="round"></path><path d="M 376.500,422.000 C 360.784,413.581 359.988,415.028 343.500,408.000" stroke-width="10.423" stroke="rgb(33,33,33)" fill="none" stroke-linecap="round"></path><path d="M 343.500,408.000 C 329.488,402.028 329.687,401.517 315.500,396.000" stroke-width="9.585" stroke="rgb(33,33,33)" fill="none" stroke-linecap="round"></path><path d="M 315.500,396.000 C 302.687,391.017 302.725,390.658 289.500,387.000" stroke-width="9.064" stroke="rgb(33,33,33)" fill="none" stroke-linecap="round"></path><path d="M 289.500,387.000 C 279.225,384.158 279.025,384.857 268.500,383.000" stroke-width="9.045" stroke="rgb(33,33,33)" fill="none" stroke-linecap="round"></path><path d="M 268.500,383.000 C 262.025,381.857 262.029,381.622 255.500,381.000" stroke-width="9.437" stroke="rgb(33,33,33)" fill="none" stroke-linecap="round"></path><path d="M 255.500,381.000 C 251.529,380.622 251.500,381.000 247.500,381.000" stroke-width="10.097" stroke="rgb(33,33,33)" fill="none" stroke-linecap="round"></path><path d="M 247.500,381.000 C 245.000,381.000 245.000,381.000 242.500,381.000" stroke-width="10.868" stroke="rgb(33,33,33)" fill="none" stroke-linecap="round"></path><path d="M 242.500,381.000 C 241.500,381.000 241.469,380.806 240.500,381.000" stroke-width="11.814" stroke="rgb(33,33,33)" fill="none" stroke-linecap="round"></path><path d="M 240.500,381.000 C 238.969,381.306 238.882,381.309 237.500,382.000" stroke-width="12.590" stroke="rgb(33,33,33)" fill="none" stroke-linecap="round"></path><path d="M 237.500,382.000 C 236.882,382.309 237.121,382.793 236.500,383.000" stroke-width="13.469" stroke="rgb(33,33,33)" fill="none" stroke-linecap="round"></path><path d="M 236.500,383.000 C 235.621,383.293 235.379,382.707 234.500,383.000" stroke-width="14.183" stroke="rgb(33,33,33)" fill="none" stroke-linecap="round"></path><path d="M 234.500,383.000 C 233.879,383.207 233.191,383.691 233.500,384.000" stroke-width="14.937" stroke="rgb(33,33,33)" fill="none" stroke-linecap="round"></path><path d="M 233.500,384.000 C 234.191,384.691 234.937,384.816 236.500,385.000" stroke-width="15.676" stroke="rgb(33,33,33)" fill="none" stroke-linecap="round"></path><path d="M 236.500,385.000 C 243.437,385.816 243.490,385.702 250.500,386.000" stroke-width="14.479" stroke="rgb(33,33,33)" fill="none" stroke-linecap="round"></path><path d="M 250.500,386.000 C 266.990,386.702 267.051,385.735 283.500,387.000" stroke-width="11.861" stroke="rgb(33,33,33)" fill="none" stroke-linecap="round"></path><path d="M 283.500,387.000 C 312.551,389.235 312.483,390.169 341.500,393.000" stroke-width="8.993" stroke="rgb(33,33,33)" fill="none" stroke-linecap="round"></path><path d="M 341.500,393.000 C 373.983,396.169 373.994,396.067 406.500,399.000" stroke-width="7.187" stroke="rgb(33,33,33)" fill="none" stroke-linecap="round"></path><path d="M 406.500,399.000 C 440.494,402.067 440.460,402.569 474.500,405.000" stroke-width="6.750" stroke="rgb(33,33,33)" fill="none" stroke-linecap="round"></path><path d="M 474.500,405.000 C 503.460,407.069 503.485,407.064 532.500,408.000" stroke-width="6.750" stroke="rgb(33,33,33)" fill="none" stroke-linecap="round"></path><path d="M 532.500,408.000 C 549.985,408.564 550.000,408.000 567.500,408.000" stroke-width="6.750" stroke="rgb(33,33,33)" fill="none" stroke-linecap="round"></path></svg>