<svg xmlns="http://www.w3.org/2000/svg" xmlns:xlink="http://www.w3.org/1999/xlink" viewBox="0 0 320 500"><path d="M 143.000,219.000 C 143.500,228.000 143.666,227.995 144.000,237.000" stroke-width="17.157" stroke="rgb(33,33,33)" fill="none" stroke-linecap="round"></path><path d="M 144.000,237.000 C 144.166,241.495 144.000,241.500 144.000,246.000" stroke-width="15.292" stroke="rgb(33,33,33)" fill="none" stroke-linecap="round"></path><path d="M 144.000,246.000 C 144.000,250.000 144.000,250.000 144.000,254.000" stroke-width="14.897" stroke="rgb(33,33,33)" fill="none" stroke-linecap="round"></path><path d="M 144.000,254.000 C 144.000,258.000 144.000,258.000 144.000,262.000" stroke-width="14.657" stroke="rgb(33,33,33)" fill="none" stroke-linecap="round"></path><path d="M 144.000,262.000 C 144.000,264.500 144.000,264.500 144.000,267.000" stroke-width="14.805" stroke="rgb(33,33,33)" fill="none" stroke-linecap="round"></path><path d="M 144.000,267.000 C 144.000,269.000 144.000,269.000 144.000,271.000" stroke-width="15.127" stroke="rgb(33,33,33)" fill="none" stroke-linecap="round"></path><path d="M 144.000,271.000 C 144.000,272.000 144.000,273.429 144.000,273.000" stroke-width="15.626" stroke="rgb(33,33,33)" fill="none" stroke-linecap="round"></path><path d="M 144.000,273.000 C 144.000,271.929 144.000,270.500 144.000,268.000" stroke-width="16.118" stroke="rgb(33,33,33)" fill="none" stroke-linecap="round"></path><path d="M 144.000,268.000 C 144.000,262.000 144.000,262.000 144.000,256.000" stroke-width="15.209" stroke="rgb(33,33,33)" fill="none" stroke-linecap="round"></path><path d="M 144.000,256.000 C 144.000,246.500 144.237,246.494 144.000,237.000" stroke-width="13.002" stroke="rgb(33,33,33)" fill="none" stroke-linecap="round"></path><path d="M 144.000,237.000 C 143.737,226.494 144.158,226.419 143.000,216.000" stroke-width="11.851" stroke="rgb(33,33,33)" fill="none" stroke-linecap="round"></path><path d="M 143.000,216.000 C 142.158,208.419 141.983,208.365 140.000,201.000" stroke-width="11.592" stroke="rgb(33,33,33)" fill="none" stroke-linecap="round"></path><path d="M 140.000,201.000 C 138.483,195.365 138.225,195.403 136.000,190.000" stroke-width="11.670" stroke="rgb(33,33,33)" fill="none" stroke-linecap="round"></path><path d="M 136.000,190.000 C 134.725,186.903 134.605,186.942 133.000,184.000" stroke-width="12.147" stroke="rgb(33,33,33)" fill="none" stroke-linecap="round"></path><path d="M 133.000,184.000 C 131.605,181.442 131.615,181.423 130.000,179.000" stroke-width="12.604" stroke="rgb(33,33,33)" fill="none" stroke-linecap="round"></path><path d="M 130.000,179.000 C 128.615,176.923 128.382,177.073 127.000,175.000" stroke-width="13.114" stroke="rgb(33,33,33)" fill="none" stroke-linecap="round"></path><path d="M 127.000,175.000 C 126.382,174.073 126.214,174.068 126.000,173.000" stroke-width="13.839" stroke="rgb(33,33,33)" fill="none" stroke-linecap="round"></path><path d="M 126.000,173.000 C 125.714,171.568 125.412,171.322 126.000,170.000" stroke-width="14.424" stroke="rgb(33,33,33)" fill="none" stroke-linecap="round"></path><path d="M 126.000,170.000 C 127.412,166.822 127.403,166.435 130.000,164.000" stroke-width="14.328" stroke="rgb(33,33,33)" fill="none" stroke-linecap="round"></path><path d="M 130.000,164.000 C 135.403,158.935 135.882,159.333 142.000,155.000" stroke-width="13.339" stroke="rgb(33,33,33)" fill="none" stroke-linecap="round"></path><path d="M 142.000,155.000 C 147.882,150.833 147.846,150.746 154.000,147.000" stroke-width="12.783" stroke="rgb(33,33,33)" fill="none" stroke-linecap="round"></path><path d="M 154.000,147.000 C 159.346,143.746 159.309,143.561 165.000,141.000" stroke-width="12.470" stroke="rgb(33,33,33)" fill="none" stroke-linecap="round"></path><path d="M 165.000,141.000 C 169.309,139.061 169.447,139.301 174.000,138.000" stroke-width="12.620" stroke="rgb(33,33,33)" fill="none" stroke-linecap="round"></path><path d="M 174.000,138.000 C 176.447,137.301 176.478,137.280 179.000,137.000" stroke-width="13.086" stroke="rgb(33,33,33)" fill="none" stroke-linecap="round"></path><path d="M 179.000,137.000 C 180.978,136.780 181.400,136.600 183.000,137.000" stroke-width="13.637" stroke="rgb(33,33,33)" fill="none" stroke-linecap="round"></path><path d="M 111.000,235.000 C 116.000,234.500 116.037,234.745 121.000,234.000" stroke-width="18.623" stroke="rgb(33,33,33)" fill="none" stroke-linecap="round"></path><path d="M 121.000,234.000 C 126.037,233.245 126.136,233.459 131.000,232.000" stroke-width="17.018" stroke="rgb(33,33,33)" fill="none" stroke-linecap="round"></path><path d="M 131.000,232.000 C 136.136,230.459 135.968,229.917 141.000,228.000" stroke-width="15.925" stroke="rgb(33,33,33)" fill="none" stroke-linecap="round"></path><path d="M 141.000,228.000 C 146.468,225.917 146.407,225.645 152.000,224.000" stroke-width="14.851" stroke="rgb(33,33,33)" fill="none" stroke-linecap="round"></path><path d="M 152.000,224.000 C 154.907,223.145 154.979,223.252 158.000,223.000" stroke-width="14.863" stroke="rgb(33,33,33)" fill="none" stroke-linecap="round"></path><path d="M 158.000,223.000 C 160.979,222.752 161.053,222.673 164.000,223.000" stroke-width="14.836" stroke="rgb(33,33,33)" fill="none" stroke-linecap="round"></path><path d="M 164.000,223.000 C 165.553,223.173 166.243,222.789 167.000,224.000" stroke-width="15.235" stroke="rgb(33,33,33)" fill="none" stroke-linecap="round"></path><path d="M 167.000,224.000 C 168.743,226.789 168.579,227.419 169.000,231.000" stroke-width="14.952" stroke="rgb(33,33,33)" fill="none" stroke-linecap="round"></path><path d="M 169.000,231.000 C 169.579,235.919 169.000,236.000 169.000,241.000" stroke-width="14.521" stroke="rgb(33,33,33)" fill="none" stroke-linecap="round"></path><path d="M 169.000,241.000 C 169.000,246.000 169.000,246.000 169.000,251.000" stroke-width="14.056" stroke="rgb(33,33,33)" fill="none" stroke-linecap="round"></path><path d="M 169.000,251.000 C 169.000,254.500 169.610,254.644 169.000,258.000" stroke-width="14.062" stroke="rgb(33,33,33)" fill="none" stroke-linecap="round"></path><path d="M 169.000,258.000 C 168.610,260.144 167.879,259.950 167.000,262.000" stroke-width="14.417" stroke="rgb(33,33,33)" fill="none" stroke-linecap="round"></path><path d="M 167.000,262.000 C 166.379,263.450 166.760,263.860 166.000,265.000" stroke-width="14.880" stroke="rgb(33,33,33)" fill="none" stroke-linecap="round"></path><path d="M 166.000,265.000 C 165.760,265.360 165.414,265.207 165.000,265.000" stroke-width="15.579" stroke="rgb(33,33,33)" fill="none" stroke-linecap="round"></path><path d="M 165.000,265.000 C 164.414,264.707 164.062,264.681 164.000,264.000" stroke-width="16.103" stroke="rgb(33,33,33)" fill="none" stroke-linecap="round"></path><path d="M 164.000,264.000 C 163.562,259.181 164.000,259.000 164.000,254.000" stroke-width="15.214" stroke="rgb(33,33,33)" fill="none" stroke-linecap="round"></path><path d="M 164.000,254.000 C 164.000,243.500 163.303,243.457 164.000,233.000" stroke-width="13.394" stroke="rgb(33,33,33)" fill="none" stroke-linecap="round"></path><path d="M 164.000,233.000 C 164.803,220.957 165.013,220.919 167.000,209.000" stroke-width="11.829" stroke="rgb(33,33,33)" fill="none" stroke-linecap="round"></path><path d="M 167.000,209.000 C 169.013,196.919 169.116,196.896 172.000,185.000" stroke-width="10.994" stroke="rgb(33,33,33)" fill="none" stroke-linecap="round"></path><path d="M 172.000,185.000 C 173.116,180.396 173.301,180.418 175.000,176.000" stroke-width="11.300" stroke="rgb(33,33,33)" fill="none" stroke-linecap="round"></path><path d="M 175.000,176.000 C 175.801,173.918 175.774,173.635 177.000,172.000" stroke-width="11.985" stroke="rgb(33,33,33)" fill="none" stroke-linecap="round"></path><path d="M 177.000,172.000 C 177.274,171.635 177.500,172.000 178.000,172.000" stroke-width="12.952" stroke="rgb(33,33,33)" fill="none" stroke-linecap="round"></path><path d="M 178.000,172.000 C 179.500,172.000 180.458,170.915 181.000,172.000" stroke-width="13.645" stroke="rgb(33,33,33)" fill="none" stroke-linecap="round"></path><path d="M 181.000,172.000 C 182.458,174.915 181.310,176.031 182.000,180.000" stroke-width="13.609" stroke="rgb(33,33,33)" fill="none" stroke-linecap="round"></path><path d="M 182.000,180.000 C 183.310,187.531 183.743,187.460 185.000,195.000" stroke-width="12.895" stroke="rgb(33,33,33)" fill="none" stroke-linecap="round"></path><path d="M 185.000,195.000 C 186.243,202.460 186.272,202.473 187.000,210.000" stroke-width="12.306" stroke="rgb(33,33,33)" fill="none" stroke-linecap="round"></path><path d="M 187.000,210.000 C 187.772,217.973 187.467,218.002 188.000,226.000" stroke-width="11.877" stroke="rgb(33,33,33)" fill="none" stroke-linecap="round"></path><path d="M 188.000,226.000 C 188.467,233.002 188.440,233.005 189.000,240.000" stroke-width="11.564" stroke="rgb(33,33,33)" fill="none" stroke-linecap="round"></path><path d="M 189.000,240.000 C 189.440,245.505 189.694,245.491 190.000,251.000" stroke-width="11.699" stroke="rgb(33,33,33)" fill="none" stroke-linecap="round"></path><path d="M 190.000,251.000 C 190.194,254.491 190.000,254.500 190.000,258.000" stroke-width="12.147" stroke="rgb(33,33,33)" fill="none" stroke-linecap="round"></path><path d="M 190.000,258.000 C 190.000,260.500 190.000,260.500 190.000,263.000" stroke-width="12.716" stroke="rgb(33,33,33)" fill="none" stroke-linecap="round"></path><path d="M 190.000,263.000 C 190.000,264.500 190.000,266.000 190.000,266.000" stroke-width="13.417" stroke="rgb(33,33,33)" fill="none" stroke-linecap="round"></path><path d="M 190.000,266.000 C 190.000,266.000 189.864,264.492 190.000,263.000" stroke-width="14.205" stroke="rgb(33,33,33)" fill="none" stroke-linecap="round"></path><path d="M 190.000,263.000 C 190.364,258.992 189.682,258.733 191.000,255.000" stroke-width="14.160" stroke="rgb(33,33,33)" fill="none" stroke-linecap="round"></path><path d="M 191.000,255.000 C 192.682,250.233 193.048,250.182 196.000,246.000" stroke-width="13.821" stroke="rgb(33,33,33)" fill="none" stroke-linecap="round"></path><path d="M 196.000,246.000 C 199.048,241.682 199.253,241.747 203.000,238.000" stroke-width="13.455" stroke="rgb(33,33,33)" fill="none" stroke-linecap="round"></path><path d="M 203.000,238.000 C 205.753,235.247 205.851,235.290 209.000,233.000" stroke-width="13.537" stroke="rgb(33,33,33)" fill="none" stroke-linecap="round"></path><path d="M 209.000,233.000 C 211.351,231.290 211.333,231.067 214.000,230.000" stroke-width="13.779" stroke="rgb(33,33,33)" fill="none" stroke-linecap="round"></path><path d="M 164.000,311.000 C 167.000,309.500 166.961,309.418 170.000,308.000" stroke-width="18.356" stroke="rgb(33,33,33)" fill="none" stroke-linecap="round"></path><path d="M 170.000,308.000 C 174.461,305.918 174.517,306.038 179.000,304.000" stroke-width="16.051" stroke="rgb(33,33,33)" fill="none" stroke-linecap="round"></path><path d="M 179.000,304.000 C 185.517,301.038 185.448,300.883 192.000,298.000" stroke-width="14.698" stroke="rgb(33,33,33)" fill="none" stroke-linecap="round"></path><path d="M 192.000,298.000 C 197.948,295.383 198.251,295.990 204.000,293.000" stroke-width="13.916" stroke="rgb(33,33,33)" fill="none" stroke-linecap="round"></path><path d="M 204.000,293.000 C 210.751,289.490 210.733,289.338 217.000,285.000" stroke-width="13.203" stroke="rgb(33,33,33)" fill="none" stroke-linecap="round"></path><path d="M 217.000,285.000 C 223.733,280.338 224.592,281.032 230.000,275.000" stroke-width="12.408" stroke="rgb(33,33,33)" fill="none" stroke-linecap="round"></path></svg>