<svg xmlns="http://www.w3.org/2000/svg" xmlns:xlink="http://www.w3.org/1999/xlink" viewBox="0 0 360 500"><path d="M 172.266,236.750 C 164.299,233.262 164.453,231.281 156.333,229.773" stroke-width="19.445" stroke="rgb(33,33,33)" fill="none" stroke-linecap="round"></path><path d="M 156.333,229.773 C 152.020,228.972 151.604,230.293 147.400,232.133" stroke-width="17.630" stroke="rgb(33,33,33)" fill="none" stroke-linecap="round"></path><path d="M 147.400,232.133 C 139.876,235.426 139.592,235.282 132.877,240.039" stroke-width="15.546" stroke="rgb(33,33,33)" fill="none" stroke-linecap="round"></path><path d="M 132.877,240.039 C 122.924,247.090 123.858,248.415 114.065,255.750" stroke-width="13.499" stroke="rgb(33,33,33)" fill="none" stroke-linecap="round"></path><path d="M 114.065,255.750 C 105.337,262.288 104.826,261.588 95.836,267.785" stroke-width="12.511" stroke="rgb(33,33,33)" fill="none" stroke-linecap="round"></path><path d="M 95.836,267.785 C 88.970,272.518 88.830,272.373 82.353,277.609" stroke-width="11.792" stroke="rgb(33,33,33)" fill="none" stroke-linecap="round"></path><path d="M 82.353,277.609 C 76.852,282.055 75.729,281.443 71.880,287.149" stroke-width="11.488" stroke="rgb(33,33,33)" fill="none" stroke-linecap="round"></path><path d="M 71.880,287.149 C 68.036,292.849 68.083,293.537 66.967,300.420" stroke-width="11.257" stroke="rgb(33,33,33)" fill="none" stroke-linecap="round"></path><path d="M 66.967,300.420 C 65.533,309.265 64.256,310.293 66.780,318.605" stroke-width="11.309" stroke="rgb(33,33,33)" fill="none" stroke-linecap="round"></path><path d="M 66.780,318.605 C 69.390,327.200 70.640,327.885 77.236,334.235" stroke-width="10.082" stroke="rgb(33,33,33)" fill="none" stroke-linecap="round"></path><path d="M 77.236,334.235 C 83.032,339.816 83.869,341.255 91.565,342.467" stroke-width="10.118" stroke="rgb(33,33,33)" fill="none" stroke-linecap="round"></path><path d="M 91.565,342.467 C 100.418,343.861 101.192,341.889 110.334,339.446" stroke-width="10.063" stroke="rgb(33,33,33)" fill="none" stroke-linecap="round"></path><path d="M 110.334,339.446 C 120.856,336.635 121.109,336.732 130.894,331.959" stroke-width="9.926" stroke="rgb(33,33,33)" fill="none" stroke-linecap="round"></path><path d="M 130.894,331.959 C 141.914,326.584 141.952,326.299 151.944,319.150" stroke-width="9.158" stroke="rgb(33,33,33)" fill="none" stroke-linecap="round"></path><path d="M 151.944,319.150 C 161.820,312.084 162.102,312.134 170.630,303.528" stroke-width="9.152" stroke="rgb(33,33,33)" fill="none" stroke-linecap="round"></path><path d="M 170.630,303.528 C 177.925,296.166 178.092,295.975 183.589,287.214" stroke-width="9.079" stroke="rgb(33,33,33)" fill="none" stroke-linecap="round"></path><path d="M 183.589,287.214 C 188.305,279.698 188.214,279.393 191.057,270.974" stroke-width="9.111" stroke="rgb(33,33,33)" fill="none" stroke-linecap="round"></path><path d="M 191.057,270.974 C 193.790,262.882 194.459,262.609 194.742,254.193" stroke-width="9.288" stroke="rgb(33,33,33)" fill="none" stroke-linecap="round"></path><path d="M 194.742,254.193 C 194.980,247.106 195.546,245.748 192.098,239.968" stroke-width="9.577" stroke="rgb(33,33,33)" fill="none" stroke-linecap="round"></path><path d="M 192.098,239.968 C 189.015,234.799 187.439,234.978 181.679,232.296" stroke-width="9.908" stroke="rgb(33,33,33)" fill="none" stroke-linecap="round"></path><path d="M 181.679,232.296 C 175.341,229.345 174.918,229.399 167.902,228.703" stroke-width="10.060" stroke="rgb(33,33,33)" fill="none" stroke-linecap="round"></path><path d="M 167.902,228.703 C 158.969,227.816 158.749,228.084 149.781,229.130" stroke-width="10.066" stroke="rgb(33,33,33)" fill="none" stroke-linecap="round"></path><path d="M 149.781,229.130 C 139.488,230.331 139.373,230.416 129.380,233.198" stroke-width="9.924" stroke="rgb(33,33,33)" fill="none" stroke-linecap="round"></path><path d="M 129.380,233.198 C 119.159,236.043 119.094,236.163 109.353,240.384" stroke-width="9.650" stroke="rgb(33,33,33)" fill="none" stroke-linecap="round"></path><path d="M 109.353,240.384 C 99.681,244.575 99.486,244.454 90.554,250.021" stroke-width="9.450" stroke="rgb(33,33,33)" fill="none" stroke-linecap="round"></path><path d="M 90.554,250.021 C 81.919,255.403 82.240,255.969 74.219,262.282" stroke-width="9.399" stroke="rgb(33,33,33)" fill="none" stroke-linecap="round"></path><path d="M 74.219,262.282 C 69.728,265.817 69.461,265.651 65.529,269.717" stroke-width="9.875" stroke="rgb(33,33,33)" fill="none" stroke-linecap="round"></path><path d="M 65.529,269.717 C 63.908,271.394 62.465,273.245 63.113,273.767" stroke-width="10.661" stroke="rgb(33,33,33)" fill="none" stroke-linecap="round"></path><path d="M 63.113,273.767 C 63.872,274.378 65.737,272.902 68.342,271.983" stroke-width="11.347" stroke="rgb(33,33,33)" fill="none" stroke-linecap="round"></path><path d="M 68.342,271.983 C 75.156,269.578 75.608,270.508 81.951,267.118" stroke-width="11.264" stroke="rgb(33,33,33)" fill="none" stroke-linecap="round"></path><path d="M 81.951,267.118 C 96.587,259.297 96.214,258.481 110.300,249.562" stroke-width="9.577" stroke="rgb(33,33,33)" fill="none" stroke-linecap="round"></path><path d="M 110.300,249.562 C 128.478,238.053 127.969,237.207 146.478,226.262" stroke-width="8.545" stroke="rgb(33,33,33)" fill="none" stroke-linecap="round"></path><path d="M 146.478,226.262 C 169.055,212.911 169.340,213.365 192.471,200.970" stroke-width="7.646" stroke="rgb(33,33,33)" fill="none" stroke-linecap="round"></path><path d="M 192.471,200.970 C 212.564,190.203 212.305,189.585 232.925,179.939" stroke-width="7.010" stroke="rgb(33,33,33)" fill="none" stroke-linecap="round"></path><path d="M 232.925,179.939 C 245.638,173.992 246.011,174.809 259.137,169.783" stroke-width="7.126" stroke="rgb(33,33,33)" fill="none" stroke-linecap="round"></path><path d="M 259.137,169.783 C 265.139,167.485 265.359,166.992 271.180,165.291" stroke-width="7.688" stroke="rgb(33,33,33)" fill="none" stroke-linecap="round"></path><path d="M 271.180,165.291 C 271.614,165.164 271.919,165.898 271.647,166.127" stroke-width="8.732" stroke="rgb(33,33,33)" fill="none" stroke-linecap="round"></path><path d="M 271.647,166.127 C 270.872,166.779 270.387,166.654 269.086,167.053" stroke-width="9.701" stroke="rgb(33,33,33)" fill="none" stroke-linecap="round"></path><path d="M 269.086,167.053 C 267.292,167.603 267.290,167.620 265.458,168.024" stroke-width="10.580" stroke="rgb(33,33,33)" fill="none" stroke-linecap="round"></path><path d="M 265.458,168.024 C 263.940,168.359 263.927,168.465 262.387,168.531" stroke-width="11.480" stroke="rgb(33,33,33)" fill="none" stroke-linecap="round"></path><path d="M 262.387,168.531 C 261.207,168.581 261.201,168.400 260.017,168.256" stroke-width="12.340" stroke="rgb(33,33,33)" fill="none" stroke-linecap="round"></path><path d="M 260.017,168.256 C 258.914,168.122 258.905,168.166 257.812,167.975" stroke-width="13.144" stroke="rgb(33,33,33)" fill="none" stroke-linecap="round"></path><path d="M 257.812,167.975 C 256.993,167.832 256.999,167.791 256.192,167.587" stroke-width="13.945" stroke="rgb(33,33,33)" fill="none" stroke-linecap="round"></path><path d="M 256.192,167.587 C 255.428,167.394 255.411,167.436 254.669,167.181" stroke-width="14.659" stroke="rgb(33,33,33)" fill="none" stroke-linecap="round"></path><path d="M 254.669,167.181 C 254.281,167.048 254.297,167.002 253.932,166.811" stroke-width="15.395" stroke="rgb(33,33,33)" fill="none" stroke-linecap="round"></path><path d="M 253.932,166.811 C 253.811,166.748 253.664,166.684 253.696,166.672" stroke-width="16.128" stroke="rgb(33,33,33)" fill="none" stroke-linecap="round"></path><path d="M 253.696,166.672 C 253.744,166.654 253.892,166.733 254.092,166.750" stroke-width="16.792" stroke="rgb(33,33,33)" fill="none" stroke-linecap="round"></path><path d="M 254.092,166.750 C 254.353,166.772 254.355,166.750 254.619,166.750" stroke-width="17.230" stroke="rgb(33,33,33)" fill="none" stroke-linecap="round"></path><path d="M 254.619,166.750 C 254.837,166.750 254.837,166.750 255.055,166.750" stroke-width="17.318" stroke="rgb(33,33,33)" fill="none" stroke-linecap="round"></path><path d="M 255.055,166.750 C 255.254,166.750 255.262,166.712 255.454,166.750" stroke-width="17.761" stroke="rgb(33,33,33)" fill="none" stroke-linecap="round"></path><path d="M 255.454,166.750 C 255.656,166.790 255.683,166.780 255.844,166.906" stroke-width="18.123" stroke="rgb(33,33,33)" fill="none" stroke-linecap="round"></path><path d="M 255.844,166.906 C 256.071,167.083 256.131,167.092 256.229,167.356" stroke-width="18.407" stroke="rgb(33,33,33)" fill="none" stroke-linecap="round"></path><path d="M 256.229,167.356 C 256.353,167.691 256.285,167.729 256.289,168.104" stroke-width="18.576" stroke="rgb(33,33,33)" fill="none" stroke-linecap="round"></path><path d="M 256.289,168.104 C 256.315,170.357 256.787,170.425 256.289,172.612" stroke-width="18.046" stroke="rgb(33,33,33)" fill="none" stroke-linecap="round"></path><path d="M 256.289,172.612 C 253.824,183.425 254.243,183.677 250.363,194.103" stroke-width="15.198" stroke="rgb(33,33,33)" fill="none" stroke-linecap="round"></path><path d="M 250.363,194.103 C 242.968,213.974 243.988,214.702 233.739,233.206" stroke-width="11.051" stroke="rgb(33,33,33)" fill="none" stroke-linecap="round"></path><path d="M 233.739,233.206 C 221.022,256.165 221.210,256.978 204.430,277.029" stroke-width="8.857" stroke="rgb(33,33,33)" fill="none" stroke-linecap="round"></path><path d="M 204.430,277.029 C 192.529,291.250 191.860,292.152 176.377,301.751" stroke-width="8.602" stroke="rgb(33,33,33)" fill="none" stroke-linecap="round"></path><path d="M 176.377,301.751 C 167.827,307.052 163.976,309.343 156.363,306.829" stroke-width="8.342" stroke="rgb(33,33,33)" fill="none" stroke-linecap="round"></path><path d="M 156.363,306.829 C 150.736,304.970 149.161,300.192 149.896,293.005" stroke-width="8.853" stroke="rgb(33,33,33)" fill="none" stroke-linecap="round"></path><path d="M 149.896,293.005 C 151.823,274.157 154.137,273.206 161.687,254.758" stroke-width="8.098" stroke="rgb(33,33,33)" fill="none" stroke-linecap="round"></path><path d="M 161.687,254.758 C 169.386,235.947 167.970,233.417 180.395,218.488" stroke-width="7.029" stroke="rgb(33,33,33)" fill="none" stroke-linecap="round"></path><path d="M 180.395,218.488 C 186.653,210.969 189.237,212.088 199.052,209.862" stroke-width="7.499" stroke="rgb(33,33,33)" fill="none" stroke-linecap="round"></path><path d="M 199.052,209.862 C 209.436,207.506 211.091,205.936 220.793,209.324" stroke-width="7.582" stroke="rgb(33,33,33)" fill="none" stroke-linecap="round"></path><path d="M 220.793,209.324 C 232.109,213.276 233.370,214.954 241.087,224.543" stroke-width="7.426" stroke="rgb(33,33,33)" fill="none" stroke-linecap="round"></path><path d="M 241.087,224.543 C 249.181,234.601 251.688,236.208 252.414,248.619" stroke-width="7.515" stroke="rgb(33,33,33)" fill="none" stroke-linecap="round"></path><path d="M 252.414,248.619 C 253.207,262.180 250.626,263.745 244.124,276.486" stroke-width="7.506" stroke="rgb(33,33,33)" fill="none" stroke-linecap="round"></path><path d="M 244.124,276.486 C 237.361,289.738 236.803,290.550 225.885,300.606" stroke-width="7.461" stroke="rgb(33,33,33)" fill="none" stroke-linecap="round"></path><path d="M 225.885,300.606 C 216.315,309.420 215.295,309.605 203.148,314.225" stroke-width="7.493" stroke="rgb(33,33,33)" fill="none" stroke-linecap="round"></path><path d="M 203.148,314.225 C 193.368,317.944 191.909,319.142 182.031,317.285" stroke-width="7.750" stroke="rgb(33,33,33)" fill="none" stroke-linecap="round"></path><path d="M 182.031,317.285 C 172.823,315.554 171.820,313.843 164.975,307.050" stroke-width="8.101" stroke="rgb(33,33,33)" fill="none" stroke-linecap="round"></path><path d="M 164.975,307.050 C 158.449,300.573 156.514,299.536 155.290,290.745" stroke-width="8.310" stroke="rgb(33,33,33)" fill="none" stroke-linecap="round"></path><path d="M 155.290,290.745 C 153.805,280.085 155.391,278.666 159.557,268.148" stroke-width="8.368" stroke="rgb(33,33,33)" fill="none" stroke-linecap="round"></path><path d="M 159.557,268.148 C 164.223,256.368 164.490,255.482 172.954,246.150" stroke-width="8.302" stroke="rgb(33,33,33)" fill="none" stroke-linecap="round"></path><path d="M 172.954,246.150 C 179.955,238.432 180.902,238.036 190.486,234.048" stroke-width="8.315" stroke="rgb(33,33,33)" fill="none" stroke-linecap="round"></path><path d="M 190.486,234.048 C 198.778,230.598 199.676,230.960 208.706,231.274" stroke-width="8.513" stroke="rgb(33,33,33)" fill="none" stroke-linecap="round"></path><path d="M 208.706,231.274 C 216.688,231.552 217.812,231.617 224.509,235.231" stroke-width="8.866" stroke="rgb(33,33,33)" fill="none" stroke-linecap="round"></path><path d="M 224.509,235.231 C 227.782,236.997 227.290,238.381 228.647,242.033" stroke-width="9.522" stroke="rgb(33,33,33)" fill="none" stroke-linecap="round"></path><path d="M 228.647,242.033 C 229.808,245.159 230.305,245.680 229.544,248.787" stroke-width="10.220" stroke="rgb(33,33,33)" fill="none" stroke-linecap="round"></path><path d="M 229.544,248.787 C 228.691,252.271 227.436,251.973 225.418,255.215" stroke-width="10.800" stroke="rgb(33,33,33)" fill="none" stroke-linecap="round"></path><path d="M 225.418,255.215 C 224.079,257.367 224.268,257.514 222.829,259.574" stroke-width="11.567" stroke="rgb(33,33,33)" fill="none" stroke-linecap="round"></path><path d="M 222.829,259.574 C 222.374,260.226 221.996,260.285 221.630,260.639" stroke-width="12.473" stroke="rgb(33,33,33)" fill="none" stroke-linecap="round"></path><path d="M 221.630,260.639 C 221.548,260.719 221.770,260.520 221.933,260.442" stroke-width="13.473" stroke="rgb(33,33,33)" fill="none" stroke-linecap="round"></path><path d="M 221.933,260.442 C 223.384,259.751 223.348,259.654 224.857,259.101" stroke-width="14.060" stroke="rgb(33,33,33)" fill="none" stroke-linecap="round"></path><path d="M 224.857,259.101 C 230.192,257.144 230.358,257.570 235.620,255.421" stroke-width="13.551" stroke="rgb(33,33,33)" fill="none" stroke-linecap="round"></path><path d="M 235.620,255.421 C 251.358,248.993 251.174,248.529 266.858,241.946" stroke-width="11.122" stroke="rgb(33,33,33)" fill="none" stroke-linecap="round"></path><path d="M 266.858,241.946 C 287.243,233.390 287.268,233.447 307.758,225.144" stroke-width="9.543" stroke="rgb(33,33,33)" fill="none" stroke-linecap="round"></path><path d="M 307.758,225.144 C 321.377,219.625 321.317,219.432 335.075,214.302" stroke-width="8.845" stroke="rgb(33,33,33)" fill="none" stroke-linecap="round"></path><path d="M 335.075,214.302 C 338.958,212.854 339.122,213.261 343.041,211.989" stroke-width="9.535" stroke="rgb(33,33,33)" fill="none" stroke-linecap="round"></path><path d="M 343.041,211.989 C 343.340,211.892 343.328,211.820 343.510,211.564" stroke-width="10.624" stroke="rgb(33,33,33)" fill="none" stroke-linecap="round"></path><path d="M 343.510,211.564 C 344.060,210.787 343.994,210.735 344.505,209.923" stroke-width="11.579" stroke="rgb(33,33,33)" fill="none" stroke-linecap="round"></path></svg>