<svg xmlns="http://www.w3.org/2000/svg" xmlns:xlink="http://www.w3.org/1999/xlink" viewBox="0 0 375 500"><path d="M 295.000,373.000 C 294.000,372.500 293.271,372.950 293.000,372.000" stroke-width="20.146" stroke="rgb(33,33,33)" fill="none" stroke-linecap="round"></path><path d="M 293.000,372.000 C 292.271,369.450 293.000,369.000 293.000,366.000" stroke-width="18.842" stroke="rgb(33,33,33)" fill="none" stroke-linecap="round"></path><path d="M 293.000,366.000 C 293.000,360.500 293.000,360.500 293.000,355.000" stroke-width="16.914" stroke="rgb(33,33,33)" fill="none" stroke-linecap="round"></path><path d="M 293.000,355.000 C 293.000,350.000 292.738,349.985 293.000,345.000" stroke-width="15.877" stroke="rgb(33,33,33)" fill="none" stroke-linecap="round"></path><path d="M 293.000,345.000 C 293.238,340.485 293.471,340.497 294.000,336.000" stroke-width="15.261" stroke="rgb(33,33,33)" fill="none" stroke-linecap="round"></path><path d="M 294.000,336.000 C 294.471,331.997 294.467,331.996 295.000,328.000" stroke-width="14.930" stroke="rgb(33,33,33)" fill="none" stroke-linecap="round"></path><path d="M 295.000,328.000 C 295.467,324.496 295.730,324.516 296.000,321.000" stroke-width="14.800" stroke="rgb(33,33,33)" fill="none" stroke-linecap="round"></path><path d="M 296.000,321.000 C 296.230,318.016 296.000,318.000 296.000,315.000" stroke-width="14.785" stroke="rgb(33,33,33)" fill="none" stroke-linecap="round"></path><path d="M 296.000,315.000 C 296.000,312.000 295.752,311.979 296.000,309.000" stroke-width="14.821" stroke="rgb(33,33,33)" fill="none" stroke-linecap="round"></path><path d="M 296.000,309.000 C 296.252,305.979 296.538,306.006 297.000,303.000" stroke-width="14.840" stroke="rgb(33,33,33)" fill="none" stroke-linecap="round"></path><path d="M 297.000,303.000 C 297.538,299.506 296.832,299.271 298.000,296.000" stroke-width="14.729" stroke="rgb(33,33,33)" fill="none" stroke-linecap="round"></path></svg>