<svg xmlns="http://www.w3.org/2000/svg" xmlns:xlink="http://www.w3.org/1999/xlink" viewBox="0 0 800 500"><path d="M 359.500,41.000 C 359.500,41.500 359.500,41.500 359.500,42.000" stroke-width="19.918" stroke="rgb(33,33,33)" fill="none" stroke-linecap="round"></path><path d="M 359.500,42.000 C 359.500,42.000 359.500,42.000 359.500,42.000" stroke-width="19.984" stroke="rgb(33,33,33)" fill="none" stroke-linecap="round"></path><path d="M 359.500,42.000 C 359.500,42.500 359.500,42.500 359.500,43.000" stroke-width="19.682" stroke="rgb(33,33,33)" fill="none" stroke-linecap="round"></path><path d="M 359.500,43.000 C 359.500,43.000 359.500,43.000 359.500,43.000" stroke-width="19.793" stroke="rgb(33,33,33)" fill="none" stroke-linecap="round"></path><path d="M 359.500,43.000 C 359.500,43.500 359.500,43.500 359.500,44.000" stroke-width="19.563" stroke="rgb(33,33,33)" fill="none" stroke-linecap="round"></path><path d="M 359.500,44.000 C 359.500,44.500 359.500,44.500 359.500,45.000" stroke-width="19.354" stroke="rgb(33,33,33)" fill="none" stroke-linecap="round"></path><path d="M 359.500,45.000 C 359.500,45.500 359.500,45.500 359.500,46.000" stroke-width="19.190" stroke="rgb(33,33,33)" fill="none" stroke-linecap="round"></path><path d="M 359.500,46.000 C 359.500,46.000 359.500,46.000 359.500,46.000" stroke-width="19.393" stroke="rgb(33,33,33)" fill="none" stroke-linecap="round"></path><path d="M 359.500,46.000 C 359.500,46.500 359.500,46.500 359.500,47.000" stroke-width="19.249" stroke="rgb(33,33,33)" fill="none" stroke-linecap="round"></path><path d="M 359.500,47.000 C 359.500,47.000 359.500,47.000 359.500,47.000" stroke-width="19.441" stroke="rgb(33,33,33)" fill="none" stroke-linecap="round"></path><path d="M 359.500,47.000 C 359.500,47.500 359.500,47.500 359.500,48.000" stroke-width="19.259" stroke="rgb(33,33,33)" fill="none" stroke-linecap="round"></path><path d="M 359.500,48.000 C 359.500,48.500 359.500,48.500 359.500,49.000" stroke-width="19.115" stroke="rgb(33,33,33)" fill="none" stroke-linecap="round"></path><path d="M 359.500,49.000 C 359.500,49.500 359.500,49.500 359.500,50.000" stroke-width="19.029" stroke="rgb(33,33,33)" fill="none" stroke-linecap="round"></path><path d="M 359.500,50.000 C 359.500,50.500 359.500,50.500 359.500,51.000" stroke-width="18.934" stroke="rgb(33,33,33)" fill="none" stroke-linecap="round"></path><path d="M 359.500,51.000 C 359.500,51.500 359.500,51.500 359.500,52.000" stroke-width="18.885" stroke="rgb(33,33,33)" fill="none" stroke-linecap="round"></path><path d="M 359.500,52.000 C 359.500,52.500 359.500,52.500 359.500,53.000" stroke-width="18.788" stroke="rgb(33,33,33)" fill="none" stroke-linecap="round"></path><path d="M 359.500,53.000 C 359.500,53.500 359.500,53.500 359.500,54.000" stroke-width="18.769" stroke="rgb(33,33,33)" fill="none" stroke-linecap="round"></path><path d="M 359.500,54.000 C 359.500,54.500 359.500,54.500 359.500,55.000" stroke-width="18.727" stroke="rgb(33,33,33)" fill="none" stroke-linecap="round"></path><path d="M 359.500,55.000 C 359.500,55.500 359.500,55.500 359.500,56.000" stroke-width="18.694" stroke="rgb(33,33,33)" fill="none" stroke-linecap="round"></path><path d="M 359.500,56.000 C 359.500,56.500 359.500,56.500 359.500,57.000" stroke-width="18.668" stroke="rgb(33,33,33)" fill="none" stroke-linecap="round"></path><path d="M 359.500,57.000 C 359.500,57.500 359.500,57.500 359.500,58.000" stroke-width="18.673" stroke="rgb(33,33,33)" fill="none" stroke-linecap="round"></path><path d="M 359.500,58.000 C 359.500,58.500 359.500,58.500 359.500,59.000" stroke-width="18.650" stroke="rgb(33,33,33)" fill="none" stroke-linecap="round"></path><path d="M 359.500,59.000 C 359.500,59.500 359.500,59.500 359.500,60.000" stroke-width="18.633" stroke="rgb(33,33,33)" fill="none" stroke-linecap="round"></path><path d="M 359.500,60.000 C 359.500,60.500 359.500,60.500 359.500,61.000" stroke-width="18.619" stroke="rgb(33,33,33)" fill="none" stroke-linecap="round"></path><path d="M 359.500,61.000 C 359.500,61.500 359.500,61.500 359.500,62.000" stroke-width="18.633" stroke="rgb(33,33,33)" fill="none" stroke-linecap="round"></path><path d="M 359.500,62.000 C 359.500,62.500 359.500,62.500 359.500,63.000" stroke-width="18.619" stroke="rgb(33,33,33)" fill="none" stroke-linecap="round"></path><path d="M 359.500,63.000 C 359.500,63.500 359.345,63.536 359.500,64.000" stroke-width="18.608" stroke="rgb(33,33,33)" fill="none" stroke-linecap="round"></path><path d="M 359.500,64.000 C 359.845,65.036 360.000,65.000 360.500,66.000" stroke-width="18.223" stroke="rgb(33,33,33)" fill="none" stroke-linecap="round"></path><path d="M 360.500,66.000 C 360.500,66.000 360.500,66.000 360.500,66.000" stroke-width="18.595" stroke="rgb(33,33,33)" fill="none" stroke-linecap="round"></path><path d="M 360.500,66.000 C 360.500,66.500 360.500,66.500 360.500,67.000" stroke-width="18.614" stroke="rgb(33,33,33)" fill="none" stroke-linecap="round"></path><path d="M 360.500,67.000 C 360.500,68.000 360.500,68.000 360.500,69.000" stroke-width="18.298" stroke="rgb(33,33,33)" fill="none" stroke-linecap="round"></path><path d="M 360.500,69.000 C 360.500,69.500 360.500,69.500 360.500,70.000" stroke-width="18.351" stroke="rgb(33,33,33)" fill="none" stroke-linecap="round"></path><path d="M 360.500,70.000 C 360.500,70.500 360.500,70.500 360.500,71.000" stroke-width="18.393" stroke="rgb(33,33,33)" fill="none" stroke-linecap="round"></path><path d="M 360.500,71.000 C 360.500,72.000 360.500,72.000 360.500,73.000" stroke-width="18.176" stroke="rgb(33,33,33)" fill="none" stroke-linecap="round"></path><path d="M 360.500,73.000 C 360.500,74.000 360.500,74.000 360.500,75.000" stroke-width="17.957" stroke="rgb(33,33,33)" fill="none" stroke-linecap="round"></path><path d="M 360.500,75.000 C 360.500,75.500 360.500,75.500 360.500,76.000" stroke-width="18.100" stroke="rgb(33,33,33)" fill="none" stroke-linecap="round"></path><path d="M 360.500,76.000 C 360.500,77.000 360.500,77.000 360.500,78.000" stroke-width="17.841" stroke="rgb(33,33,33)" fill="none" stroke-linecap="round"></path><path d="M 360.500,78.000 C 360.500,78.500 360.500,78.500 360.500,79.000" stroke-width="18.005" stroke="rgb(33,33,33)" fill="none" stroke-linecap="round"></path><path d="M 360.500,79.000 C 360.500,80.000 360.500,80.000 360.500,81.000" stroke-width="17.912" stroke="rgb(33,33,33)" fill="none" stroke-linecap="round"></path><path d="M 360.500,81.000 C 360.500,81.500 360.500,81.500 360.500,82.000" stroke-width="17.974" stroke="rgb(33,33,33)" fill="none" stroke-linecap="round"></path><path d="M 360.500,82.000 C 360.500,82.500 360.500,82.500 360.500,83.000" stroke-width="18.113" stroke="rgb(33,33,33)" fill="none" stroke-linecap="round"></path><path d="M 360.500,83.000 C 360.500,84.000 360.500,84.000 360.500,85.000" stroke-width="17.957" stroke="rgb(33,33,33)" fill="none" stroke-linecap="round"></path><path d="M 360.500,85.000 C 360.500,85.500 360.500,85.500 360.500,86.000" stroke-width="18.045" stroke="rgb(33,33,33)" fill="none" stroke-linecap="round"></path><path d="M 360.500,86.000 C 360.500,87.000 360.500,87.000 360.500,88.000" stroke-width="17.856" stroke="rgb(33,33,33)" fill="none" stroke-linecap="round"></path><path d="M 360.500,88.000 C 360.500,89.000 360.500,89.000 360.500,90.000" stroke-width="17.754" stroke="rgb(33,33,33)" fill="none" stroke-linecap="round"></path><path d="M 360.500,90.000 C 360.500,91.000 360.500,91.000 360.500,92.000" stroke-width="17.626" stroke="rgb(33,33,33)" fill="none" stroke-linecap="round"></path><path d="M 360.500,92.000 C 360.500,92.500 360.500,92.500 360.500,93.000" stroke-width="17.830" stroke="rgb(33,33,33)" fill="none" stroke-linecap="round"></path><path d="M 360.500,93.000 C 360.500,94.000 360.500,94.000 360.500,95.000" stroke-width="17.630" stroke="rgb(33,33,33)" fill="none" stroke-linecap="round"></path><path d="M 360.500,95.000 C 360.500,95.500 360.500,95.500 360.500,96.000" stroke-width="17.833" stroke="rgb(33,33,33)" fill="none" stroke-linecap="round"></path><path d="M 360.500,96.000 C 360.500,97.500 360.500,97.500 360.500,99.000" stroke-width="17.412" stroke="rgb(33,33,33)" fill="none" stroke-linecap="round"></path><path d="M 360.500,99.000 C 360.500,100.000 360.500,100.000 360.500,101.000" stroke-width="17.356" stroke="rgb(33,33,33)" fill="none" stroke-linecap="round"></path><path d="M 360.500,101.000 C 360.500,102.000 360.500,102.000 360.500,103.000" stroke-width="17.311" stroke="rgb(33,33,33)" fill="none" stroke-linecap="round"></path><path d="M 360.500,103.000 C 360.500,104.000 360.500,104.000 360.500,105.000" stroke-width="17.276" stroke="rgb(33,33,33)" fill="none" stroke-linecap="round"></path><path d="M 360.500,105.000 C 360.500,106.500 360.500,106.500 360.500,108.000" stroke-width="17.105" stroke="rgb(33,33,33)" fill="none" stroke-linecap="round"></path><path d="M 360.500,108.000 C 360.500,109.000 360.500,109.000 360.500,110.000" stroke-width="17.058" stroke="rgb(33,33,33)" fill="none" stroke-linecap="round"></path><path d="M 360.500,110.000 C 360.500,111.000 360.500,111.000 360.500,112.000" stroke-width="17.073" stroke="rgb(33,33,33)" fill="none" stroke-linecap="round"></path><path d="M 360.500,112.000 C 360.500,112.500 360.500,112.500 360.500,113.000" stroke-width="17.374" stroke="rgb(33,33,33)" fill="none" stroke-linecap="round"></path><path d="M 360.500,113.000 C 360.500,114.000 360.500,114.000 360.500,115.000" stroke-width="17.326" stroke="rgb(33,33,33)" fill="none" stroke-linecap="round"></path><path d="M 360.500,115.000 C 360.500,116.000 360.500,116.000 360.500,117.000" stroke-width="17.287" stroke="rgb(33,33,33)" fill="none" stroke-linecap="round"></path><path d="M 360.500,117.000 C 360.500,117.500 360.500,117.500 360.500,118.000" stroke-width="17.551" stroke="rgb(33,33,33)" fill="none" stroke-linecap="round"></path><path d="M 360.500,118.000 C 360.500,118.500 360.500,118.500 360.500,119.000" stroke-width="17.716" stroke="rgb(33,33,33)" fill="none" stroke-linecap="round"></path><path d="M 360.500,119.000 C 360.500,119.500 360.500,119.500 360.500,120.000" stroke-width="17.903" stroke="rgb(33,33,33)" fill="none" stroke-linecap="round"></path><path d="M 360.500,120.000 C 360.500,121.000 360.500,121.000 360.500,122.000" stroke-width="17.744" stroke="rgb(33,33,33)" fill="none" stroke-linecap="round"></path><path d="M 360.500,122.000 C 360.500,123.000 360.500,123.000 360.500,124.000" stroke-width="17.619" stroke="rgb(33,33,33)" fill="none" stroke-linecap="round"></path><path d="M 360.500,124.000 C 360.500,124.500 360.500,124.500 360.500,125.000" stroke-width="17.800" stroke="rgb(33,33,33)" fill="none" stroke-linecap="round"></path><path d="M 360.500,125.000 C 360.500,126.000 360.500,126.000 360.500,127.000" stroke-width="17.709" stroke="rgb(33,33,33)" fill="none" stroke-linecap="round"></path><path d="M 360.500,127.000 C 360.500,128.000 360.500,128.000 360.500,129.000" stroke-width="17.591" stroke="rgb(33,33,33)" fill="none" stroke-linecap="round"></path><path d="M 360.500,129.000 C 360.500,130.000 360.500,130.000 360.500,131.000" stroke-width="17.498" stroke="rgb(33,33,33)" fill="none" stroke-linecap="round"></path><path d="M 360.500,131.000 C 360.500,132.000 360.500,132.000 360.500,133.000" stroke-width="17.424" stroke="rgb(33,33,33)" fill="none" stroke-linecap="round"></path><path d="M 360.500,133.000 C 360.500,134.500 360.500,134.500 360.500,136.000" stroke-width="17.165" stroke="rgb(33,33,33)" fill="none" stroke-linecap="round"></path><path d="M 360.500,136.000 C 360.500,137.000 360.500,137.000 360.500,138.000" stroke-width="17.159" stroke="rgb(33,33,33)" fill="none" stroke-linecap="round"></path><path d="M 360.500,138.000 C 360.500,139.500 360.500,139.500 360.500,141.000" stroke-width="16.894" stroke="rgb(33,33,33)" fill="none" stroke-linecap="round"></path><path d="M 360.500,141.000 C 360.500,142.000 360.500,142.000 360.500,143.000" stroke-width="16.984" stroke="rgb(33,33,33)" fill="none" stroke-linecap="round"></path><path d="M 360.500,143.000 C 360.500,144.500 360.500,144.500 360.500,146.000" stroke-width="16.758" stroke="rgb(33,33,33)" fill="none" stroke-linecap="round"></path><path d="M 360.500,146.000 C 360.500,147.500 360.500,147.500 360.500,149.000" stroke-width="16.582" stroke="rgb(33,33,33)" fill="none" stroke-linecap="round"></path><path d="M 360.500,149.000 C 360.500,150.500 360.500,150.500 360.500,152.000" stroke-width="16.443" stroke="rgb(33,33,33)" fill="none" stroke-linecap="round"></path><path d="M 360.500,152.000 C 360.500,153.000 360.500,153.000 360.500,154.000" stroke-width="16.577" stroke="rgb(33,33,33)" fill="none" stroke-linecap="round"></path><path d="M 360.500,154.000 C 360.500,155.000 360.500,155.000 360.500,156.000" stroke-width="16.727" stroke="rgb(33,33,33)" fill="none" stroke-linecap="round"></path><path d="M 360.500,156.000 C 360.500,157.500 360.500,157.500 360.500,159.000" stroke-width="16.557" stroke="rgb(33,33,33)" fill="none" stroke-linecap="round"></path><path d="M 360.500,159.000 C 360.500,160.500 360.500,160.500 360.500,162.000" stroke-width="16.424" stroke="rgb(33,33,33)" fill="none" stroke-linecap="round"></path><path d="M 360.500,162.000 C 360.500,163.000 360.500,163.000 360.500,164.000" stroke-width="16.602" stroke="rgb(33,33,33)" fill="none" stroke-linecap="round"></path><path d="M 360.500,164.000 C 360.500,165.500 360.500,165.500 360.500,167.000" stroke-width="16.459" stroke="rgb(33,33,33)" fill="none" stroke-linecap="round"></path><path d="M 360.500,167.000 C 360.500,168.500 360.500,168.500 360.500,170.000" stroke-width="16.347" stroke="rgb(33,33,33)" fill="none" stroke-linecap="round"></path><path d="M 360.500,170.000 C 360.500,171.500 360.500,171.500 360.500,173.000" stroke-width="16.257" stroke="rgb(33,33,33)" fill="none" stroke-linecap="round"></path><path d="M 360.500,173.000 C 360.500,174.000 360.500,174.000 360.500,175.000" stroke-width="16.426" stroke="rgb(33,33,33)" fill="none" stroke-linecap="round"></path><path d="M 360.500,175.000 C 360.500,176.500 360.500,176.500 360.500,178.000" stroke-width="16.380" stroke="rgb(33,33,33)" fill="none" stroke-linecap="round"></path><path d="M 360.500,178.000 C 360.500,179.500 360.500,179.500 360.500,181.000" stroke-width="16.284" stroke="rgb(33,33,33)" fill="none" stroke-linecap="round"></path><path d="M 360.500,181.000 C 360.500,182.500 360.500,182.500 360.500,184.000" stroke-width="16.208" stroke="rgb(33,33,33)" fill="none" stroke-linecap="round"></path><path d="M 360.500,184.000 C 360.500,185.000 360.500,185.000 360.500,186.000" stroke-width="16.425" stroke="rgb(33,33,33)" fill="none" stroke-linecap="round"></path><path d="M 360.500,186.000 C 360.500,187.500 360.500,187.500 360.500,189.000" stroke-width="16.320" stroke="rgb(33,33,33)" fill="none" stroke-linecap="round"></path><path d="M 360.500,189.000 C 360.500,190.000 360.500,190.000 360.500,191.000" stroke-width="16.517" stroke="rgb(33,33,33)" fill="none" stroke-linecap="round"></path><path d="M 360.500,191.000 C 360.500,192.000 360.500,192.000 360.500,193.000" stroke-width="16.588" stroke="rgb(33,33,33)" fill="none" stroke-linecap="round"></path><path d="M 360.500,193.000 C 360.500,194.000 360.500,194.000 360.500,195.000" stroke-width="16.736" stroke="rgb(33,33,33)" fill="none" stroke-linecap="round"></path><path d="M 360.500,195.000 C 360.500,196.000 360.736,196.056 360.500,197.000" stroke-width="16.857" stroke="rgb(33,33,33)" fill="none" stroke-linecap="round"></path><path d="M 360.500,197.000 C 360.236,198.056 359.764,197.944 359.500,199.000" stroke-width="16.794" stroke="rgb(33,33,33)" fill="none" stroke-linecap="round"></path><path d="M 359.500,199.000 C 359.264,199.944 359.736,200.056 359.500,201.000" stroke-width="16.861" stroke="rgb(33,33,33)" fill="none" stroke-linecap="round"></path><path d="M 359.500,201.000 C 359.236,202.056 358.714,201.932 358.500,203.000" stroke-width="16.943" stroke="rgb(33,33,33)" fill="none" stroke-linecap="round"></path><path d="M 358.500,203.000 C 358.214,204.432 358.786,204.568 358.500,206.000" stroke-width="16.651" stroke="rgb(33,33,33)" fill="none" stroke-linecap="round"></path><path d="M 358.500,206.000 C 358.286,207.068 358.162,207.117 357.500,208.000" stroke-width="16.686" stroke="rgb(33,33,33)" fill="none" stroke-linecap="round"></path><path d="M 357.500,208.000 C 356.662,209.117 356.338,208.883 355.500,210.000" stroke-width="16.626" stroke="rgb(33,33,33)" fill="none" stroke-linecap="round"></path><path d="M 355.500,210.000 C 354.838,210.883 355.000,211.000 354.500,212.000" stroke-width="16.666" stroke="rgb(33,33,33)" fill="none" stroke-linecap="round"></path><path d="M 354.500,212.000 C 354.000,213.000 354.000,213.000 353.500,214.000" stroke-width="16.698" stroke="rgb(33,33,33)" fill="none" stroke-linecap="round"></path><path d="M 353.500,214.000 C 353.000,215.000 353.162,215.117 352.500,216.000" stroke-width="16.724" stroke="rgb(33,33,33)" fill="none" stroke-linecap="round"></path><path d="M 352.500,216.000 C 351.662,217.117 351.500,217.000 350.500,218.000" stroke-width="16.597" stroke="rgb(33,33,33)" fill="none" stroke-linecap="round"></path><path d="M 350.500,218.000 C 349.500,219.000 349.599,219.121 348.500,220.000" stroke-width="16.497" stroke="rgb(33,33,33)" fill="none" stroke-linecap="round"></path><path d="M 348.500,220.000 C 347.099,221.121 346.901,220.879 345.500,222.000" stroke-width="16.303" stroke="rgb(33,33,33)" fill="none" stroke-linecap="round"></path><path d="M 345.500,222.000 C 344.401,222.879 344.500,223.000 343.500,224.000" stroke-width="16.264" stroke="rgb(33,33,33)" fill="none" stroke-linecap="round"></path><path d="M 343.500,224.000 C 342.500,225.000 342.617,225.162 341.500,226.000" stroke-width="16.232" stroke="rgb(33,33,33)" fill="none" stroke-linecap="round"></path><path d="M 341.500,226.000 C 340.617,226.662 340.383,226.338 339.500,227.000" stroke-width="16.348" stroke="rgb(33,33,33)" fill="none" stroke-linecap="round"></path><path d="M 339.500,227.000 C 338.383,227.838 338.338,227.883 337.500,229.000" stroke-width="16.356" stroke="rgb(33,33,33)" fill="none" stroke-linecap="round"></path><path d="M 337.500,229.000 C 336.838,229.883 337.113,230.081 336.500,231.000" stroke-width="16.449" stroke="rgb(33,33,33)" fill="none" stroke-linecap="round"></path><path d="M 336.500,231.000 C 336.113,231.581 336.121,231.793 335.500,232.000" stroke-width="16.727" stroke="rgb(33,33,33)" fill="none" stroke-linecap="round"></path><path d="M 335.500,232.000 C 334.621,232.293 334.379,231.707 333.500,232.000" stroke-width="16.807" stroke="rgb(33,33,33)" fill="none" stroke-linecap="round"></path><path d="M 333.500,232.000 C 332.879,232.207 333.000,232.500 332.500,233.000" stroke-width="17.053" stroke="rgb(33,33,33)" fill="none" stroke-linecap="round"></path><path d="M 332.500,233.000 C 332.000,233.500 332.000,233.500 331.500,234.000" stroke-width="17.224" stroke="rgb(33,33,33)" fill="none" stroke-linecap="round"></path><path d="M 331.500,234.000 C 331.000,234.500 331.086,234.707 330.500,235.000" stroke-width="17.363" stroke="rgb(33,33,33)" fill="none" stroke-linecap="round"></path><path d="M 330.500,235.000 C 330.086,235.207 329.750,234.750 329.500,235.000" stroke-width="17.614" stroke="rgb(33,33,33)" fill="none" stroke-linecap="round"></path><path d="M 329.500,235.000 C 329.250,235.250 329.833,235.833 329.500,236.000" stroke-width="17.796" stroke="rgb(33,33,33)" fill="none" stroke-linecap="round"></path><path d="M 329.500,236.000 C 328.833,236.333 328.379,235.707 327.500,236.000" stroke-width="17.659" stroke="rgb(33,33,33)" fill="none" stroke-linecap="round"></path><path d="M 327.500,236.000 C 326.879,236.207 327.086,236.707 326.500,237.000" stroke-width="17.715" stroke="rgb(33,33,33)" fill="none" stroke-linecap="round"></path><path d="M 326.500,237.000 C 326.086,237.207 325.914,236.793 325.500,237.000" stroke-width="17.903" stroke="rgb(33,33,33)" fill="none" stroke-linecap="round"></path><path d="M 325.500,237.000 C 324.914,237.293 325.000,237.500 324.500,238.000" stroke-width="17.911" stroke="rgb(33,33,33)" fill="none" stroke-linecap="round"></path><path d="M 324.500,238.000 C 324.500,238.000 324.500,238.000 324.500,238.000" stroke-width="18.334" stroke="rgb(33,33,33)" fill="none" stroke-linecap="round"></path><path d="M 324.500,238.000 C 324.000,238.000 324.000,238.000 323.500,238.000" stroke-width="18.379" stroke="rgb(33,33,33)" fill="none" stroke-linecap="round"></path><path d="M 323.500,238.000 C 323.500,238.000 323.500,238.000 323.500,238.000" stroke-width="18.725" stroke="rgb(33,33,33)" fill="none" stroke-linecap="round"></path><path d="M 323.500,238.000 C 323.000,238.000 322.914,238.207 322.500,238.000" stroke-width="18.693" stroke="rgb(33,33,33)" fill="none" stroke-linecap="round"></path><path d="M 322.500,238.000 C 321.914,237.707 322.081,237.387 321.500,237.000" stroke-width="18.538" stroke="rgb(33,33,33)" fill="none" stroke-linecap="round"></path><path d="M 321.500,237.000 C 320.581,236.387 320.419,236.613 319.500,236.000" stroke-width="18.169" stroke="rgb(33,33,33)" fill="none" stroke-linecap="round"></path><path d="M 319.500,236.000 C 318.919,235.613 319.081,235.387 318.500,235.000" stroke-width="18.158" stroke="rgb(33,33,33)" fill="none" stroke-linecap="round"></path><path d="M 318.500,235.000 C 317.581,234.387 317.191,234.691 316.500,234.000" stroke-width="17.876" stroke="rgb(33,33,33)" fill="none" stroke-linecap="round"></path><path d="M 316.500,234.000 C 316.191,233.691 316.707,233.414 316.500,233.000" stroke-width="18.009" stroke="rgb(33,33,33)" fill="none" stroke-linecap="round"></path><path d="M 316.500,233.000 C 316.207,232.414 316.000,232.500 315.500,232.000" stroke-width="17.996" stroke="rgb(33,33,33)" fill="none" stroke-linecap="round"></path><path d="M 315.500,232.000 C 315.000,231.500 314.707,231.621 314.500,231.000" stroke-width="18.020" stroke="rgb(33,33,33)" fill="none" stroke-linecap="round"></path><path d="M 314.500,231.000 C 314.207,230.121 314.736,229.944 314.500,229.000" stroke-width="17.835" stroke="rgb(33,33,33)" fill="none" stroke-linecap="round"></path><path d="M 314.500,229.000 C 314.236,227.944 314.000,228.000 313.500,227.000" stroke-width="17.625" stroke="rgb(33,33,33)" fill="none" stroke-linecap="round"></path><path d="M 313.500,227.000 C 313.000,226.000 312.845,226.036 312.500,225.000" stroke-width="17.459" stroke="rgb(33,33,33)" fill="none" stroke-linecap="round"></path><path d="M 312.500,225.000 C 312.345,224.536 312.500,224.500 312.500,224.000" stroke-width="17.669" stroke="rgb(33,33,33)" fill="none" stroke-linecap="round"></path><path d="M 312.500,224.000 C 312.500,223.000 312.736,222.944 312.500,222.000" stroke-width="17.606" stroke="rgb(33,33,33)" fill="none" stroke-linecap="round"></path><path d="M 312.500,222.000 C 312.236,220.944 311.764,221.056 311.500,220.000" stroke-width="17.445" stroke="rgb(33,33,33)" fill="none" stroke-linecap="round"></path><path d="M 311.500,220.000 C 311.264,219.056 311.500,219.000 311.500,218.000" stroke-width="17.382" stroke="rgb(33,33,33)" fill="none" stroke-linecap="round"></path><path d="M 311.500,218.000 C 311.500,217.000 311.500,217.000 311.500,216.000" stroke-width="17.332" stroke="rgb(33,33,33)" fill="none" stroke-linecap="round"></path><path d="M 311.500,216.000 C 311.500,214.500 311.500,214.500 311.500,213.000" stroke-width="17.093" stroke="rgb(33,33,33)" fill="none" stroke-linecap="round"></path><path d="M 311.500,213.000 C 311.500,211.500 311.214,211.432 311.500,210.000" stroke-width="16.907" stroke="rgb(33,33,33)" fill="none" stroke-linecap="round"></path><path d="M 311.500,210.000 C 311.714,208.932 312.236,209.056 312.500,208.000" stroke-width="16.834" stroke="rgb(33,33,33)" fill="none" stroke-linecap="round"></path><path d="M 312.500,208.000 C 312.736,207.056 312.500,207.000 312.500,206.000" stroke-width="16.936" stroke="rgb(33,33,33)" fill="none" stroke-linecap="round"></path><path d="M 312.500,206.000 C 312.500,205.500 312.500,205.500 312.500,205.000" stroke-width="17.260" stroke="rgb(33,33,33)" fill="none" stroke-linecap="round"></path><path d="M 312.500,205.000 C 312.500,204.500 312.345,204.464 312.500,204.000" stroke-width="17.479" stroke="rgb(33,33,33)" fill="none" stroke-linecap="round"></path><path d="M 312.500,204.000 C 312.845,202.964 313.000,203.000 313.500,202.000" stroke-width="17.345" stroke="rgb(33,33,33)" fill="none" stroke-linecap="round"></path><path d="M 313.500,202.000 C 313.500,202.000 313.500,202.000 313.500,202.000" stroke-width="17.857" stroke="rgb(33,33,33)" fill="none" stroke-linecap="round"></path><path d="M 313.500,202.000 C 313.500,201.500 313.500,201.500 313.500,201.000" stroke-width="17.965" stroke="rgb(33,33,33)" fill="none" stroke-linecap="round"></path><path d="M 313.500,201.000 C 313.500,201.000 313.500,201.000 313.500,201.000" stroke-width="18.380" stroke="rgb(33,33,33)" fill="none" stroke-linecap="round"></path><path d="M 313.500,201.000 C 314.000,200.500 314.000,200.500 314.500,200.000" stroke-width="18.326" stroke="rgb(33,33,33)" fill="none" stroke-linecap="round"></path><path d="M 314.500,200.000 C 315.000,200.000 315.000,200.000 315.500,200.000" stroke-width="18.891" stroke="rgb(33,33,33)" fill="none" stroke-linecap="round"></path><path d="M 315.500,200.000 C 316.000,200.000 316.000,200.000 316.500,200.000" stroke-width="18.824" stroke="rgb(33,33,33)" fill="none" stroke-linecap="round"></path><path d="M 316.500,200.000 C 317.000,200.000 317.000,200.000 317.500,200.000" stroke-width="18.798" stroke="rgb(33,33,33)" fill="none" stroke-linecap="round"></path><path d="M 317.500,200.000 C 319.000,200.000 319.000,200.000 320.500,200.000" stroke-width="18.214" stroke="rgb(33,33,33)" fill="none" stroke-linecap="round"></path><path d="M 320.500,200.000 C 322.500,200.000 322.500,200.000 324.500,200.000" stroke-width="17.316" stroke="rgb(33,33,33)" fill="none" stroke-linecap="round"></path><path d="M 324.500,200.000 C 326.000,200.000 326.000,200.000 327.500,200.000" stroke-width="17.015" stroke="rgb(33,33,33)" fill="none" stroke-linecap="round"></path><path d="M 327.500,200.000 C 328.500,200.000 328.514,200.141 329.500,200.000" stroke-width="17.083" stroke="rgb(33,33,33)" fill="none" stroke-linecap="round"></path><path d="M 329.500,200.000 C 332.014,199.641 331.975,199.252 334.500,199.000" stroke-width="16.317" stroke="rgb(33,33,33)" fill="none" stroke-linecap="round"></path><path d="M 334.500,199.000 C 336.975,198.752 337.025,199.248 339.500,199.000" stroke-width="15.774" stroke="rgb(33,33,33)" fill="none" stroke-linecap="round"></path><path d="M 339.500,199.000 C 342.025,198.748 341.982,198.315 344.500,198.000" stroke-width="15.344" stroke="rgb(33,33,33)" fill="none" stroke-linecap="round"></path><path d="M 344.500,198.000 C 345.982,197.815 346.018,198.185 347.500,198.000" stroke-width="15.508" stroke="rgb(33,33,33)" fill="none" stroke-linecap="round"></path><path d="M 347.500,198.000 C 350.018,197.685 349.975,197.252 352.500,197.000" stroke-width="15.142" stroke="rgb(33,33,33)" fill="none" stroke-linecap="round"></path><path d="M 352.500,197.000 C 354.975,196.752 355.015,197.207 357.500,197.000" stroke-width="14.881" stroke="rgb(33,33,33)" fill="none" stroke-linecap="round"></path><path d="M 357.500,197.000 C 361.015,196.707 361.014,196.581 364.500,196.000" stroke-width="14.289" stroke="rgb(33,33,33)" fill="none" stroke-linecap="round"></path><path d="M 364.500,196.000 C 367.014,195.581 367.045,195.670 369.500,195.000" stroke-width="14.273" stroke="rgb(33,33,33)" fill="none" stroke-linecap="round"></path><path d="M 369.500,195.000 C 372.545,194.170 372.462,193.868 375.500,193.000" stroke-width="13.966" stroke="rgb(33,33,33)" fill="none" stroke-linecap="round"></path><path d="M 375.500,193.000 C 379.462,191.868 379.517,192.062 383.500,191.000" stroke-width="13.411" stroke="rgb(33,33,33)" fill="none" stroke-linecap="round"></path><path d="M 383.500,191.000 C 387.017,190.062 387.051,190.150 390.500,189.000" stroke-width="13.147" stroke="rgb(33,33,33)" fill="none" stroke-linecap="round"></path><path d="M 390.500,189.000 C 393.051,188.150 393.099,188.200 395.500,187.000" stroke-width="13.234" stroke="rgb(33,33,33)" fill="none" stroke-linecap="round"></path><path d="M 395.500,187.000 C 398.099,185.700 397.901,185.300 400.500,184.000" stroke-width="13.311" stroke="rgb(33,33,33)" fill="none" stroke-linecap="round"></path><path d="M 400.500,184.000 C 402.901,182.800 403.042,183.093 405.500,182.000" stroke-width="13.367" stroke="rgb(33,33,33)" fill="none" stroke-linecap="round"></path><path d="M 405.500,182.000 C 407.542,181.093 407.662,181.225 409.500,180.000" stroke-width="13.561" stroke="rgb(33,33,33)" fill="none" stroke-linecap="round"></path><path d="M 409.500,180.000 C 410.662,179.225 410.621,179.099 411.500,178.000" stroke-width="14.004" stroke="rgb(33,33,33)" fill="none" stroke-linecap="round"></path><path d="M 411.500,178.000 C 412.621,176.599 412.500,176.500 413.500,175.000" stroke-width="14.291" stroke="rgb(33,33,33)" fill="none" stroke-linecap="round"></path><path d="M 413.500,175.000 C 414.500,173.500 414.379,173.401 415.500,172.000" stroke-width="14.474" stroke="rgb(33,33,33)" fill="none" stroke-linecap="round"></path><path d="M 415.500,172.000 C 416.379,170.901 416.792,171.180 417.500,170.000" stroke-width="14.773" stroke="rgb(33,33,33)" fill="none" stroke-linecap="round"></path><path d="M 417.500,170.000 C 418.292,168.680 417.725,168.356 418.500,167.000" stroke-width="15.008" stroke="rgb(33,33,33)" fill="none" stroke-linecap="round"></path><path d="M 418.500,167.000 C 419.725,164.856 420.296,165.167 421.500,163.000" stroke-width="14.778" stroke="rgb(33,33,33)" fill="none" stroke-linecap="round"></path><path d="M 421.500,163.000 C 422.796,160.667 422.500,160.500 423.500,158.000" stroke-width="14.525" stroke="rgb(33,33,33)" fill="none" stroke-linecap="round"></path><path d="M 423.500,158.000 C 424.500,155.500 424.302,155.396 425.500,153.000" stroke-width="14.412" stroke="rgb(33,33,33)" fill="none" stroke-linecap="round"></path><path d="M 425.500,153.000 C 426.302,151.396 426.800,151.633 427.500,150.000" stroke-width="14.572" stroke="rgb(33,33,33)" fill="none" stroke-linecap="round"></path><path d="M 427.500,150.000 C 428.300,148.133 427.934,147.981 428.500,146.000" stroke-width="14.603" stroke="rgb(33,33,33)" fill="none" stroke-linecap="round"></path><path d="M 428.500,146.000 C 428.934,144.481 429.000,144.500 429.500,143.000" stroke-width="14.815" stroke="rgb(33,33,33)" fill="none" stroke-linecap="round"></path><path d="M 429.500,143.000 C 430.000,141.500 430.000,141.500 430.500,140.000" stroke-width="14.989" stroke="rgb(33,33,33)" fill="none" stroke-linecap="round"></path><path d="M 430.500,140.000 C 431.000,138.500 431.000,138.500 431.500,137.000" stroke-width="15.132" stroke="rgb(33,33,33)" fill="none" stroke-linecap="round"></path><path d="M 431.500,137.000 C 432.000,135.500 432.000,135.500 432.500,134.000" stroke-width="15.302" stroke="rgb(33,33,33)" fill="none" stroke-linecap="round"></path><path d="M 432.500,134.000 C 433.000,132.500 433.279,132.545 433.500,131.000" stroke-width="15.386" stroke="rgb(33,33,33)" fill="none" stroke-linecap="round"></path><path d="M 433.500,131.000 C 433.779,129.045 433.500,129.000 433.500,127.000" stroke-width="15.276" stroke="rgb(33,33,33)" fill="none" stroke-linecap="round"></path><path d="M 433.500,127.000 C 433.500,126.000 433.500,126.000 433.500,125.000" stroke-width="15.651" stroke="rgb(33,33,33)" fill="none" stroke-linecap="round"></path><path d="M 433.500,125.000 C 433.500,124.000 433.500,124.000 433.500,123.000" stroke-width="15.927" stroke="rgb(33,33,33)" fill="none" stroke-linecap="round"></path><path d="M 433.500,123.000 C 433.500,121.500 433.786,121.432 433.500,120.000" stroke-width="15.981" stroke="rgb(33,33,33)" fill="none" stroke-linecap="round"></path><path d="M 433.500,120.000 C 433.286,118.932 432.764,119.056 432.500,118.000" stroke-width="16.091" stroke="rgb(33,33,33)" fill="none" stroke-linecap="round"></path><path d="M 432.500,118.000 C 432.264,117.056 432.914,116.828 432.500,116.000" stroke-width="16.329" stroke="rgb(33,33,33)" fill="none" stroke-linecap="round"></path><path d="M 432.500,116.000 C 431.914,114.828 431.500,115.000 430.500,114.000" stroke-width="16.341" stroke="rgb(33,33,33)" fill="none" stroke-linecap="round"></path><path d="M 430.500,114.000 C 430.000,113.500 430.000,113.500 429.500,113.000" stroke-width="16.603" stroke="rgb(33,33,33)" fill="none" stroke-linecap="round"></path><path d="M 429.500,113.000 C 429.000,112.500 429.000,112.500 428.500,112.000" stroke-width="16.855" stroke="rgb(33,33,33)" fill="none" stroke-linecap="round"></path><path d="M 428.500,112.000 C 428.000,111.500 428.000,111.500 427.500,111.000" stroke-width="17.093" stroke="rgb(33,33,33)" fill="none" stroke-linecap="round"></path><path d="M 427.500,111.000 C 427.000,111.000 427.000,111.000 426.500,111.000" stroke-width="18.772" stroke="rgb(33,33,33)" fill="none" stroke-linecap="round"></path><path d="M 426.500,111.000 C 426.000,111.000 425.914,110.793 425.500,111.000" stroke-width="19.278" stroke="rgb(33,33,33)" fill="none" stroke-linecap="round"></path><path d="M 425.500,111.000 C 424.914,111.293 424.793,111.414 424.500,112.000" stroke-width="18.995" stroke="rgb(33,33,33)" fill="none" stroke-linecap="round"></path><path d="M 424.500,112.000 C 424.293,112.414 424.707,112.586 424.500,113.000" stroke-width="18.907" stroke="rgb(33,33,33)" fill="none" stroke-linecap="round"></path><path d="M 424.500,113.000 C 424.207,113.586 424.000,113.500 423.500,114.000" stroke-width="18.743" stroke="rgb(33,33,33)" fill="none" stroke-linecap="round"></path><path d="M 423.500,114.000 C 423.000,114.500 422.887,114.419 422.500,115.000" stroke-width="18.578" stroke="rgb(33,33,33)" fill="none" stroke-linecap="round"></path><path d="M 422.500,115.000 C 421.887,115.919 422.074,116.043 421.500,117.000" stroke-width="18.199" stroke="rgb(33,33,33)" fill="none" stroke-linecap="round"></path><path d="M 421.500,117.000 C 420.574,118.543 420.426,118.457 419.500,120.000" stroke-width="17.605" stroke="rgb(33,33,33)" fill="none" stroke-linecap="round"></path><path d="M 419.500,120.000 C 418.926,120.957 419.074,121.043 418.500,122.000" stroke-width="17.444" stroke="rgb(33,33,33)" fill="none" stroke-linecap="round"></path><path d="M 418.500,122.000 C 417.574,123.543 417.426,123.457 416.500,125.000" stroke-width="16.957" stroke="rgb(33,33,33)" fill="none" stroke-linecap="round"></path><path d="M 416.500,125.000 C 415.926,125.957 416.000,126.000 415.500,127.000" stroke-width="16.931" stroke="rgb(33,33,33)" fill="none" stroke-linecap="round"></path><path d="M 415.500,127.000 C 414.500,129.000 414.500,129.000 413.500,131.000" stroke-width="16.522" stroke="rgb(33,33,33)" fill="none" stroke-linecap="round"></path><path d="M 413.500,131.000 C 413.000,132.000 413.000,132.000 412.500,133.000" stroke-width="16.528" stroke="rgb(33,33,33)" fill="none" stroke-linecap="round"></path><path d="M 412.500,133.000 C 411.500,135.000 411.407,134.958 410.500,137.000" stroke-width="16.052" stroke="rgb(33,33,33)" fill="none" stroke-linecap="round"></path><path d="M 410.500,137.000 C 409.407,139.458 409.613,139.551 408.500,142.000" stroke-width="15.492" stroke="rgb(33,33,33)" fill="none" stroke-linecap="round"></path><path d="M 408.500,142.000 C 407.113,145.051 407.000,145.000 405.500,148.000" stroke-width="14.806" stroke="rgb(33,33,33)" fill="none" stroke-linecap="round"></path><path d="M 405.500,148.000 C 404.000,151.000 403.918,150.961 402.500,154.000" stroke-width="14.403" stroke="rgb(33,33,33)" fill="none" stroke-linecap="round"></path><path d="M 402.500,154.000 C 400.418,158.461 400.328,158.431 398.500,163.000" stroke-width="13.466" stroke="rgb(33,33,33)" fill="none" stroke-linecap="round"></path><path d="M 398.500,163.000 C 396.328,168.431 396.500,168.500 394.500,174.000" stroke-width="12.532" stroke="rgb(33,33,33)" fill="none" stroke-linecap="round"></path><path d="M 394.500,174.000 C 392.500,179.500 392.178,179.406 390.500,185.000" stroke-width="11.873" stroke="rgb(33,33,33)" fill="none" stroke-linecap="round"></path><path d="M 390.500,185.000 C 389.178,189.406 389.404,189.481 388.500,194.000" stroke-width="11.787" stroke="rgb(33,33,33)" fill="none" stroke-linecap="round"></path><path d="M 388.500,194.000 C 387.404,199.481 387.290,199.470 386.500,205.000" stroke-width="11.391" stroke="rgb(33,33,33)" fill="none" stroke-linecap="round"></path><path d="M 386.500,205.000 C 385.790,209.970 386.282,210.045 385.500,215.000" stroke-width="11.219" stroke="rgb(33,33,33)" fill="none" stroke-linecap="round"></path><path d="M 385.500,215.000 C 384.782,219.545 384.466,219.493 383.500,224.000" stroke-width="11.178" stroke="rgb(33,33,33)" fill="none" stroke-linecap="round"></path><path d="M 383.500,224.000 C 382.966,226.493 382.752,226.475 382.500,229.000" stroke-width="11.677" stroke="rgb(33,33,33)" fill="none" stroke-linecap="round"></path><path d="M 382.500,229.000 C 382.252,231.475 383.028,231.625 382.500,234.000" stroke-width="12.066" stroke="rgb(33,33,33)" fill="none" stroke-linecap="round"></path><path d="M 382.500,234.000 C 382.028,236.125 381.280,235.919 380.500,238.000" stroke-width="12.470" stroke="rgb(33,33,33)" fill="none" stroke-linecap="round"></path><path d="M 380.500,238.000 C 379.780,239.919 379.789,239.974 379.500,242.000" stroke-width="12.864" stroke="rgb(33,33,33)" fill="none" stroke-linecap="round"></path><path d="M 379.500,242.000 C 379.289,243.474 379.822,243.552 379.500,245.000" stroke-width="13.417" stroke="rgb(33,33,33)" fill="none" stroke-linecap="round"></path><path d="M 379.500,245.000 C 378.822,248.052 378.208,247.931 377.500,251.000" stroke-width="13.301" stroke="rgb(33,33,33)" fill="none" stroke-linecap="round"></path><path d="M 377.500,251.000 C 376.708,254.431 377.151,254.528 376.500,258.000" stroke-width="13.094" stroke="rgb(33,33,33)" fill="none" stroke-linecap="round"></path><path d="M 376.500,258.000 C 375.651,262.528 375.404,262.481 374.500,267.000" stroke-width="12.618" stroke="rgb(33,33,33)" fill="none" stroke-linecap="round"></path><path d="M 374.500,267.000 C 373.904,269.981 373.902,269.986 373.500,273.000" stroke-width="12.774" stroke="rgb(33,33,33)" fill="none" stroke-linecap="round"></path><path d="M 373.500,273.000 C 372.902,277.486 373.098,277.514 372.500,282.000" stroke-width="12.402" stroke="rgb(33,33,33)" fill="none" stroke-linecap="round"></path><path d="M 372.500,282.000 C 372.098,285.014 372.044,285.008 371.500,288.000" stroke-width="12.524" stroke="rgb(33,33,33)" fill="none" stroke-linecap="round"></path><path d="M 371.500,288.000 C 371.044,290.508 370.859,290.486 370.500,293.000" stroke-width="12.766" stroke="rgb(33,33,33)" fill="none" stroke-linecap="round"></path></svg>