<svg xmlns="http://www.w3.org/2000/svg" xmlns:xlink="http://www.w3.org/1999/xlink" viewBox="0 0 800 500"><path d="M 240.500,125.500 C 240.500,126.000 240.500,126.000 240.500,126.500" stroke-width="20.191" stroke="rgb(33,33,33)" fill="none" stroke-linecap="round"></path><path d="M 240.500,126.500 C 240.500,128.000 240.315,128.018 240.500,129.500" stroke-width="19.475" stroke="rgb(33,33,33)" fill="none" stroke-linecap="round"></path><path d="M 240.500,129.500 C 240.815,132.018 241.044,131.992 241.500,134.500" stroke-width="18.743" stroke="rgb(33,33,33)" fill="none" stroke-linecap="round"></path><path d="M 241.500,134.500 C 242.044,137.492 242.165,137.486 242.500,140.500" stroke-width="17.371" stroke="rgb(33,33,33)" fill="none" stroke-linecap="round"></path><path d="M 242.500,140.500 C 242.665,141.986 242.289,142.026 242.500,143.500" stroke-width="17.124" stroke="rgb(33,33,33)" fill="none" stroke-linecap="round"></path><path d="M 242.500,143.500 C 242.789,145.526 243.053,145.488 243.500,147.500" stroke-width="16.670" stroke="rgb(33,33,33)" fill="none" stroke-linecap="round"></path><path d="M 243.500,147.500 C 244.053,149.988 244.140,149.978 244.500,152.500" stroke-width="16.333" stroke="rgb(33,33,33)" fill="none" stroke-linecap="round"></path><path d="M 244.500,152.500 C 245.140,156.978 245.274,156.985 245.500,161.500" stroke-width="15.081" stroke="rgb(33,33,33)" fill="none" stroke-linecap="round"></path><path d="M 245.500,161.500 C 245.774,166.985 245.211,167.018 245.500,172.500" stroke-width="13.334" stroke="rgb(33,33,33)" fill="none" stroke-linecap="round"></path><path d="M 245.500,172.500 C 245.711,176.518 246.232,176.486 246.500,180.500" stroke-width="13.070" stroke="rgb(33,33,33)" fill="none" stroke-linecap="round"></path><path d="M 246.500,180.500 C 246.732,183.986 246.500,184.000 246.500,187.500" stroke-width="13.013" stroke="rgb(33,33,33)" fill="none" stroke-linecap="round"></path><path d="M 246.500,187.500 C 246.500,189.500 246.500,189.500 246.500,191.500" stroke-width="13.397" stroke="rgb(33,33,33)" fill="none" stroke-linecap="round"></path><path d="M 246.500,191.500 C 246.500,194.500 246.270,194.516 246.500,197.500" stroke-width="13.417" stroke="rgb(33,33,33)" fill="none" stroke-linecap="round"></path><path d="M 246.500,197.500 C 246.770,201.016 247.265,200.981 247.500,204.500" stroke-width="13.425" stroke="rgb(33,33,33)" fill="none" stroke-linecap="round"></path><path d="M 247.500,204.500 C 247.765,208.481 247.500,208.500 247.500,212.500" stroke-width="13.149" stroke="rgb(33,33,33)" fill="none" stroke-linecap="round"></path><path d="M 247.500,212.500 C 247.500,216.000 247.232,216.022 247.500,219.500" stroke-width="13.152" stroke="rgb(33,33,33)" fill="none" stroke-linecap="round"></path><path d="M 247.500,219.500 C 247.732,222.522 247.842,222.539 248.500,225.500" stroke-width="13.275" stroke="rgb(33,33,33)" fill="none" stroke-linecap="round"></path><path d="M 248.500,225.500 C 248.842,227.039 248.809,227.118 249.500,228.500" stroke-width="13.506" stroke="rgb(33,33,33)" fill="none" stroke-linecap="round"></path><path d="M 249.500,228.500 C 249.809,229.118 250.207,228.914 250.500,229.500" stroke-width="14.289" stroke="rgb(33,33,33)" fill="none" stroke-linecap="round"></path><path d="M 250.500,229.500 C 250.707,229.914 250.250,230.250 250.500,230.500" stroke-width="14.904" stroke="rgb(33,33,33)" fill="none" stroke-linecap="round"></path><path d="M 250.500,230.500 C 250.750,230.750 251.250,230.250 251.500,230.500" stroke-width="15.712" stroke="rgb(33,33,33)" fill="none" stroke-linecap="round"></path><path d="M 251.500,230.500 C 251.750,230.750 251.500,231.000 251.500,231.500" stroke-width="16.334" stroke="rgb(33,33,33)" fill="none" stroke-linecap="round"></path><path d="M 251.500,231.500 C 251.500,232.500 251.337,232.520 251.500,233.500" stroke-width="16.783" stroke="rgb(33,33,33)" fill="none" stroke-linecap="round"></path><path d="M 251.500,233.500 C 251.837,235.520 252.246,235.470 252.500,237.500" stroke-width="16.410" stroke="rgb(33,33,33)" fill="none" stroke-linecap="round"></path><path d="M 252.500,237.500 C 252.746,239.470 252.254,239.530 252.500,241.500" stroke-width="16.150" stroke="rgb(33,33,33)" fill="none" stroke-linecap="round"></path><path d="M 252.500,241.500 C 252.754,243.530 252.934,243.519 253.500,245.500" stroke-width="15.922" stroke="rgb(33,33,33)" fill="none" stroke-linecap="round"></path><path d="M 253.500,245.500 C 253.934,247.019 253.914,247.036 254.500,248.500" stroke-width="15.943" stroke="rgb(33,33,33)" fill="none" stroke-linecap="round"></path><path d="M 254.500,248.500 C 254.914,249.536 254.887,249.581 255.500,250.500" stroke-width="16.193" stroke="rgb(33,33,33)" fill="none" stroke-linecap="round"></path><path d="M 255.500,250.500 C 255.887,251.081 255.919,251.113 256.500,251.500" stroke-width="16.544" stroke="rgb(33,33,33)" fill="none" stroke-linecap="round"></path><path d="M 256.500,251.500 C 257.419,252.113 257.424,252.321 258.500,252.500" stroke-width="16.647" stroke="rgb(33,33,33)" fill="none" stroke-linecap="round"></path><path d="M 258.500,252.500 C 260.424,252.821 260.500,252.500 262.500,252.500" stroke-width="16.401" stroke="rgb(33,33,33)" fill="none" stroke-linecap="round"></path><path d="M 262.500,252.500 C 264.500,252.500 264.500,252.500 266.500,252.500" stroke-width="15.973" stroke="rgb(33,33,33)" fill="none" stroke-linecap="round"></path><path d="M 266.500,252.500 C 268.500,252.500 268.530,252.746 270.500,252.500" stroke-width="15.809" stroke="rgb(33,33,33)" fill="none" stroke-linecap="round"></path><path d="M 270.500,252.500 C 272.530,252.246 272.721,252.390 274.500,251.500" stroke-width="15.656" stroke="rgb(33,33,33)" fill="none" stroke-linecap="round"></path><path d="M 274.500,251.500 C 275.721,250.890 275.621,250.599 276.500,249.500" stroke-width="15.797" stroke="rgb(33,33,33)" fill="none" stroke-linecap="round"></path><path d="M 276.500,249.500 C 277.621,248.099 277.545,248.028 278.500,246.500" stroke-width="15.751" stroke="rgb(33,33,33)" fill="none" stroke-linecap="round"></path><path d="M 278.500,246.500 C 280.045,244.028 280.199,244.102 281.500,241.500" stroke-width="15.275" stroke="rgb(33,33,33)" fill="none" stroke-linecap="round"></path><path d="M 281.500,241.500 C 283.199,238.102 283.388,238.114 284.500,234.500" stroke-width="14.595" stroke="rgb(33,33,33)" fill="none" stroke-linecap="round"></path><path d="M 284.500,234.500 C 285.388,231.614 284.765,231.442 285.500,228.500" stroke-width="14.497" stroke="rgb(33,33,33)" fill="none" stroke-linecap="round"></path><path d="M 285.500,228.500 C 286.265,225.442 286.420,225.471 287.500,222.500" stroke-width="14.024" stroke="rgb(33,33,33)" fill="none" stroke-linecap="round"></path><path d="M 287.500,222.500 C 288.420,219.971 289.065,220.109 289.500,217.500" stroke-width="14.014" stroke="rgb(33,33,33)" fill="none" stroke-linecap="round"></path><path d="M 289.500,217.500 C 290.065,214.109 289.500,214.000 289.500,210.500" stroke-width="13.751" stroke="rgb(33,33,33)" fill="none" stroke-linecap="round"></path><path d="M 289.500,210.500 C 289.500,203.000 289.998,202.967 289.500,195.500" stroke-width="12.438" stroke="rgb(33,33,33)" fill="none" stroke-linecap="round"></path><path d="M 289.500,195.500 C 288.998,187.967 289.383,187.762 287.500,180.500" stroke-width="11.541" stroke="rgb(33,33,33)" fill="none" stroke-linecap="round"></path><path d="M 287.500,180.500 C 285.883,174.262 285.397,174.295 282.500,168.500" stroke-width="11.124" stroke="rgb(33,33,33)" fill="none" stroke-linecap="round"></path><path d="M 282.500,168.500 C 280.397,164.295 280.396,164.185 277.500,160.500" stroke-width="11.166" stroke="rgb(33,33,33)" fill="none" stroke-linecap="round"></path><path d="M 277.500,160.500 C 274.896,157.185 275.133,156.317 271.500,154.500" stroke-width="11.480" stroke="rgb(33,33,33)" fill="none" stroke-linecap="round"></path><path d="M 271.500,154.500 C 267.133,152.317 266.537,153.255 261.500,152.500" stroke-width="11.019" stroke="rgb(33,33,33)" fill="none" stroke-linecap="round"></path><path d="M 261.500,152.500 C 256.537,151.755 256.513,151.739 251.500,151.500" stroke-width="11.019" stroke="rgb(33,33,33)" fill="none" stroke-linecap="round"></path><path d="M 251.500,151.500 C 246.013,151.239 246.000,151.500 240.500,151.500" stroke-width="10.925" stroke="rgb(33,33,33)" fill="none" stroke-linecap="round"></path><path d="M 240.500,151.500 C 237.000,151.500 237.000,151.500 233.500,151.500" stroke-width="11.253" stroke="rgb(33,33,33)" fill="none" stroke-linecap="round"></path><path d="M 233.500,151.500 C 230.000,151.500 230.000,151.500 226.500,151.500" stroke-width="11.530" stroke="rgb(33,33,33)" fill="none" stroke-linecap="round"></path><path d="M 226.500,151.500 C 223.500,151.500 223.500,151.500 220.500,151.500" stroke-width="11.877" stroke="rgb(33,33,33)" fill="none" stroke-linecap="round"></path><path d="M 220.500,151.500 C 215.000,151.500 215.000,151.500 209.500,151.500" stroke-width="11.589" stroke="rgb(33,33,33)" fill="none" stroke-linecap="round"></path><path d="M 209.500,151.500 C 204.000,151.500 203.978,151.196 198.500,151.500" stroke-width="11.608" stroke="rgb(33,33,33)" fill="none" stroke-linecap="round"></path><path d="M 198.500,151.500 C 194.978,151.696 194.974,151.868 191.500,152.500" stroke-width="11.881" stroke="rgb(33,33,33)" fill="none" stroke-linecap="round"></path><path d="M 191.500,152.500 C 189.474,152.868 189.364,152.672 187.500,153.500" stroke-width="12.150" stroke="rgb(33,33,33)" fill="none" stroke-linecap="round"></path><path d="M 187.500,153.500 C 184.864,154.672 184.972,154.955 182.500,156.500" stroke-width="12.608" stroke="rgb(33,33,33)" fill="none" stroke-linecap="round"></path><path d="M 182.500,156.500 C 180.972,157.455 180.757,157.243 179.500,158.500" stroke-width="12.856" stroke="rgb(33,33,33)" fill="none" stroke-linecap="round"></path><path d="M 179.500,158.500 C 177.757,160.243 177.953,160.466 176.500,162.500" stroke-width="13.300" stroke="rgb(33,33,33)" fill="none" stroke-linecap="round"></path><path d="M 176.500,162.500 C 175.453,163.966 175.302,163.896 174.500,165.500" stroke-width="13.427" stroke="rgb(33,33,33)" fill="none" stroke-linecap="round"></path><path d="M 174.500,165.500 C 173.302,167.896 173.074,167.918 172.500,170.500" stroke-width="13.739" stroke="rgb(33,33,33)" fill="none" stroke-linecap="round"></path><path d="M 172.500,170.500 C 172.074,172.418 172.500,172.500 172.500,174.500" stroke-width="13.691" stroke="rgb(33,33,33)" fill="none" stroke-linecap="round"></path><path d="M 172.500,174.500 C 172.500,176.000 172.500,176.000 172.500,177.500" stroke-width="14.295" stroke="rgb(33,33,33)" fill="none" stroke-linecap="round"></path><path d="M 172.500,177.500 C 172.500,178.500 171.700,179.300 172.500,179.500" stroke-width="14.465" stroke="rgb(33,33,33)" fill="none" stroke-linecap="round"></path><path d="M 172.500,179.500 C 175.700,180.300 176.525,179.885 180.500,179.500" stroke-width="14.261" stroke="rgb(33,33,33)" fill="none" stroke-linecap="round"></path><path d="M 180.500,179.500 C 192.025,178.385 192.325,179.349 203.500,176.500" stroke-width="11.756" stroke="rgb(33,33,33)" fill="none" stroke-linecap="round"></path><path d="M 203.500,176.500 C 217.825,172.849 217.305,170.884 231.500,166.500" stroke-width="9.320" stroke="rgb(33,33,33)" fill="none" stroke-linecap="round"></path><path d="M 231.500,166.500 C 251.305,160.384 251.459,160.844 271.500,155.500" stroke-width="7.701" stroke="rgb(33,33,33)" fill="none" stroke-linecap="round"></path><path d="M 271.500,155.500 C 288.959,150.844 288.943,150.764 306.500,146.500" stroke-width="6.968" stroke="rgb(33,33,33)" fill="none" stroke-linecap="round"></path><path d="M 306.500,146.500 C 323.943,142.264 324.272,143.456 341.500,138.500" stroke-width="6.750" stroke="rgb(33,33,33)" fill="none" stroke-linecap="round"></path><path d="M 341.500,138.500 C 360.772,132.956 360.936,133.042 379.500,125.500" stroke-width="6.750" stroke="rgb(33,33,33)" fill="none" stroke-linecap="round"></path><path d="M 379.500,125.500 C 392.936,120.042 393.320,120.274 405.500,112.500" stroke-width="6.750" stroke="rgb(33,33,33)" fill="none" stroke-linecap="round"></path><path d="M 405.500,112.500 C 416.820,105.274 415.181,102.703 426.500,95.500" stroke-width="6.750" stroke="rgb(33,33,33)" fill="none" stroke-linecap="round"></path><path d="M 426.500,95.500 C 437.181,88.703 437.640,89.018 449.500,84.500" stroke-width="6.750" stroke="rgb(33,33,33)" fill="none" stroke-linecap="round"></path><path d="M 449.500,84.500 C 458.640,81.018 458.891,81.157 468.500,79.500" stroke-width="6.750" stroke="rgb(33,33,33)" fill="none" stroke-linecap="round"></path><path d="M 468.500,79.500 C 473.391,78.657 473.500,79.500 478.500,79.500" stroke-width="7.082" stroke="rgb(33,33,33)" fill="none" stroke-linecap="round"></path><path d="M 478.500,79.500 C 482.500,79.500 482.500,79.500 486.500,79.500" stroke-width="7.726" stroke="rgb(33,33,33)" fill="none" stroke-linecap="round"></path><path d="M 486.500,79.500 C 490.000,79.500 490.000,79.500 493.500,79.500" stroke-width="8.391" stroke="rgb(33,33,33)" fill="none" stroke-linecap="round"></path><path d="M 493.500,79.500 C 496.500,79.500 496.636,80.161 499.500,79.500" stroke-width="9.078" stroke="rgb(33,33,33)" fill="none" stroke-linecap="round"></path><path d="M 499.500,79.500 C 503.136,78.661 503.240,78.401 506.500,76.500" stroke-width="9.538" stroke="rgb(33,33,33)" fill="none" stroke-linecap="round"></path><path d="M 506.500,76.500 C 509.240,74.901 509.547,74.942 511.500,72.500" stroke-width="10.099" stroke="rgb(33,33,33)" fill="none" stroke-linecap="round"></path><path d="M 511.500,72.500 C 513.547,69.942 513.708,69.667 514.500,66.500" stroke-width="10.569" stroke="rgb(33,33,33)" fill="none" stroke-linecap="round"></path><path d="M 514.500,66.500 C 515.208,63.667 515.318,63.227 514.500,60.500" stroke-width="11.049" stroke="rgb(33,33,33)" fill="none" stroke-linecap="round"></path><path d="M 514.500,60.500 C 513.818,58.227 513.422,57.995 511.500,56.500" stroke-width="11.575" stroke="rgb(33,33,33)" fill="none" stroke-linecap="round"></path><path d="M 511.500,56.500 C 508.922,54.495 508.544,54.905 505.500,53.500" stroke-width="11.832" stroke="rgb(33,33,33)" fill="none" stroke-linecap="round"></path><path d="M 505.500,53.500 C 502.044,51.905 502.130,51.537 498.500,50.500" stroke-width="11.939" stroke="rgb(33,33,33)" fill="none" stroke-linecap="round"></path><path d="M 498.500,50.500 C 495.130,49.537 495.023,49.676 491.500,49.500" stroke-width="12.092" stroke="rgb(33,33,33)" fill="none" stroke-linecap="round"></path><path d="M 491.500,49.500 C 485.023,49.176 485.000,49.500 478.500,49.500" stroke-width="11.821" stroke="rgb(33,33,33)" fill="none" stroke-linecap="round"></path><path d="M 478.500,49.500 C 470.000,49.500 469.984,49.186 461.500,49.500" stroke-width="10.599" stroke="rgb(33,33,33)" fill="none" stroke-linecap="round"></path><path d="M 461.500,49.500 C 456.484,49.686 456.387,49.471 451.500,50.500" stroke-width="10.681" stroke="rgb(33,33,33)" fill="none" stroke-linecap="round"></path><path d="M 451.500,50.500 C 446.887,51.471 446.696,51.402 442.500,53.500" stroke-width="10.801" stroke="rgb(33,33,33)" fill="none" stroke-linecap="round"></path><path d="M 442.500,53.500 C 438.696,55.402 438.715,55.663 435.500,58.500" stroke-width="11.052" stroke="rgb(33,33,33)" fill="none" stroke-linecap="round"></path><path d="M 435.500,58.500 C 430.215,63.163 430.093,63.141 425.500,68.500" stroke-width="10.650" stroke="rgb(33,33,33)" fill="none" stroke-linecap="round"></path><path d="M 425.500,68.500 C 418.093,77.141 417.993,77.150 411.500,86.500" stroke-width="9.637" stroke="rgb(33,33,33)" fill="none" stroke-linecap="round"></path><path d="M 411.500,86.500 C 405.493,95.150 406.201,95.632 400.500,104.500" stroke-width="8.793" stroke="rgb(33,33,33)" fill="none" stroke-linecap="round"></path><path d="M 400.500,104.500 C 397.201,109.632 396.674,109.306 393.500,114.500" stroke-width="9.183" stroke="rgb(33,33,33)" fill="none" stroke-linecap="round"></path><path d="M 393.500,114.500 C 391.174,118.306 391.290,118.408 389.500,122.500" stroke-width="9.450" stroke="rgb(33,33,33)" fill="none" stroke-linecap="round"></path><path d="M 389.500,122.500 C 387.790,126.408 387.531,126.374 386.500,130.500" stroke-width="9.784" stroke="rgb(33,33,33)" fill="none" stroke-linecap="round"></path><path d="M 386.500,130.500 C 385.031,136.374 384.948,136.454 384.500,142.500" stroke-width="9.837" stroke="rgb(33,33,33)" fill="none" stroke-linecap="round"></path><path d="M 384.500,142.500 C 383.948,149.954 384.223,150.012 384.500,157.500" stroke-width="9.658" stroke="rgb(33,33,33)" fill="none" stroke-linecap="round"></path><path d="M 384.500,157.500 C 384.723,163.512 383.785,163.864 385.500,169.500" stroke-width="9.881" stroke="rgb(33,33,33)" fill="none" stroke-linecap="round"></path><path d="M 385.500,169.500 C 387.285,175.364 388.038,175.307 391.500,180.500" stroke-width="9.886" stroke="rgb(33,33,33)" fill="none" stroke-linecap="round"></path><path d="M 391.500,180.500 C 395.038,185.807 395.907,185.217 399.500,190.500" stroke-width="9.868" stroke="rgb(33,33,33)" fill="none" stroke-linecap="round"></path><path d="M 399.500,190.500 C 404.407,197.717 403.916,198.052 408.500,205.500" stroke-width="9.593" stroke="rgb(33,33,33)" fill="none" stroke-linecap="round"></path><path d="M 408.500,205.500 C 411.916,211.052 411.885,211.078 415.500,216.500" stroke-width="9.296" stroke="rgb(33,33,33)" fill="none" stroke-linecap="round"></path><path d="M 415.500,216.500 C 417.885,220.078 418.197,219.881 420.500,223.500" stroke-width="9.707" stroke="rgb(33,33,33)" fill="none" stroke-linecap="round"></path><path d="M 420.500,223.500 C 421.697,225.381 421.683,225.457 422.500,227.500" stroke-width="10.420" stroke="rgb(33,33,33)" fill="none" stroke-linecap="round"></path><path d="M 422.500,227.500 C 422.683,227.957 422.429,228.006 422.500,228.500" stroke-width="11.486" stroke="rgb(33,33,33)" fill="none" stroke-linecap="round"></path><path d="M 422.500,228.500 C 422.929,231.506 423.038,231.494 423.500,234.500" stroke-width="12.205" stroke="rgb(33,33,33)" fill="none" stroke-linecap="round"></path><path d="M 423.500,234.500 C 424.038,237.994 423.886,238.020 424.500,241.500" stroke-width="12.488" stroke="rgb(33,33,33)" fill="none" stroke-linecap="round"></path><path d="M 424.500,241.500 C 425.386,246.520 425.333,246.540 426.500,251.500" stroke-width="12.034" stroke="rgb(33,33,33)" fill="none" stroke-linecap="round"></path><path d="M 426.500,251.500 C 427.333,255.040 427.500,255.000 428.500,258.500" stroke-width="11.970" stroke="rgb(33,33,33)" fill="none" stroke-linecap="round"></path><path d="M 428.500,258.500 C 429.500,262.000 429.716,261.970 430.500,265.500" stroke-width="12.091" stroke="rgb(33,33,33)" fill="none" stroke-linecap="round"></path><path d="M 430.500,265.500 C 430.716,266.470 430.207,266.621 430.500,267.500" stroke-width="12.873" stroke="rgb(33,33,33)" fill="none" stroke-linecap="round"></path><path d="M 430.500,267.500 C 430.707,268.121 431.416,269.004 431.500,268.500" stroke-width="13.663" stroke="rgb(33,33,33)" fill="none" stroke-linecap="round"></path><path d="M 431.500,268.500 C 431.916,266.004 431.500,265.000 431.500,261.500" stroke-width="14.372" stroke="rgb(33,33,33)" fill="none" stroke-linecap="round"></path><path d="M 431.500,261.500 C 431.500,257.500 431.290,257.490 431.500,253.500" stroke-width="14.189" stroke="rgb(33,33,33)" fill="none" stroke-linecap="round"></path><path d="M 431.500,253.500 C 431.790,247.990 432.076,248.006 432.500,242.500" stroke-width="13.271" stroke="rgb(33,33,33)" fill="none" stroke-linecap="round"></path><path d="M 432.500,242.500 C 433.076,235.006 433.211,235.007 433.500,227.500" stroke-width="12.117" stroke="rgb(33,33,33)" fill="none" stroke-linecap="round"></path><path d="M 433.500,227.500 C 433.711,222.007 433.761,221.987 433.500,216.500" stroke-width="11.771" stroke="rgb(33,33,33)" fill="none" stroke-linecap="round"></path><path d="M 433.500,216.500 C 433.261,211.487 433.638,211.336 432.500,206.500" stroke-width="11.613" stroke="rgb(33,33,33)" fill="none" stroke-linecap="round"></path><path d="M 432.500,206.500 C 431.638,202.836 431.957,202.180 429.500,199.500" stroke-width="11.760" stroke="rgb(33,33,33)" fill="none" stroke-linecap="round"></path><path d="M 429.500,199.500 C 426.457,196.180 425.917,195.914 421.500,194.500" stroke-width="11.673" stroke="rgb(33,33,33)" fill="none" stroke-linecap="round"></path><path d="M 421.500,194.500 C 413.417,191.914 413.056,192.356 404.500,191.500" stroke-width="10.797" stroke="rgb(33,33,33)" fill="none" stroke-linecap="round"></path><path d="M 404.500,191.500 C 398.056,190.856 398.000,191.500 391.500,191.500" stroke-width="10.563" stroke="rgb(33,33,33)" fill="none" stroke-linecap="round"></path><path d="M 391.500,191.500 C 386.500,191.500 386.457,191.028 381.500,191.500" stroke-width="10.656" stroke="rgb(33,33,33)" fill="none" stroke-linecap="round"></path><path d="M 381.500,191.500 C 375.957,192.028 375.843,191.942 370.500,193.500" stroke-width="10.621" stroke="rgb(33,33,33)" fill="none" stroke-linecap="round"></path><path d="M 370.500,193.500 C 363.843,195.442 364.057,196.158 357.500,198.500" stroke-width="10.345" stroke="rgb(33,33,33)" fill="none" stroke-linecap="round"></path><path d="M 357.500,198.500 C 350.057,201.158 349.822,200.571 342.500,203.500" stroke-width="9.564" stroke="rgb(33,33,33)" fill="none" stroke-linecap="round"></path><path d="M 342.500,203.500 C 337.322,205.571 337.381,205.788 332.500,208.500" stroke-width="9.958" stroke="rgb(33,33,33)" fill="none" stroke-linecap="round"></path><path d="M 332.500,208.500 C 328.381,210.788 327.899,210.410 324.500,213.500" stroke-width="10.133" stroke="rgb(33,33,33)" fill="none" stroke-linecap="round"></path><path d="M 324.500,213.500 C 322.399,215.410 322.915,215.953 321.500,218.500" stroke-width="10.681" stroke="rgb(33,33,33)" fill="none" stroke-linecap="round"></path><path d="M 321.500,218.500 C 320.415,220.453 320.640,220.601 319.500,222.500" stroke-width="11.305" stroke="rgb(33,33,33)" fill="none" stroke-linecap="round"></path><path d="M 319.500,222.500 C 319.140,223.101 318.793,222.914 318.500,223.500" stroke-width="12.224" stroke="rgb(33,33,33)" fill="none" stroke-linecap="round"></path><path d="M 318.500,223.500 C 318.293,223.914 318.031,224.469 318.500,224.500" stroke-width="13.133" stroke="rgb(33,33,33)" fill="none" stroke-linecap="round"></path><path d="M 318.500,224.500 C 325.531,224.969 326.140,225.582 333.500,224.500" stroke-width="13.350" stroke="rgb(33,33,33)" fill="none" stroke-linecap="round"></path><path d="M 333.500,224.500 C 343.140,223.082 343.000,222.000 352.500,219.500" stroke-width="11.210" stroke="rgb(33,33,33)" fill="none" stroke-linecap="round"></path><path d="M 352.500,219.500 C 362.000,217.000 362.067,217.231 371.500,214.500" stroke-width="10.618" stroke="rgb(33,33,33)" fill="none" stroke-linecap="round"></path><path d="M 371.500,214.500 C 381.067,211.731 380.892,211.062 390.500,208.500" stroke-width="9.698" stroke="rgb(33,33,33)" fill="none" stroke-linecap="round"></path><path d="M 390.500,208.500 C 395.892,207.062 396.101,207.850 401.500,206.500" stroke-width="9.846" stroke="rgb(33,33,33)" fill="none" stroke-linecap="round"></path><path d="M 401.500,206.500 C 404.101,205.850 404.392,205.765 406.500,204.500" stroke-width="10.464" stroke="rgb(33,33,33)" fill="none" stroke-linecap="round"></path><path d="M 406.500,204.500 C 406.892,204.265 406.953,203.639 406.500,203.500" stroke-width="11.529" stroke="rgb(33,33,33)" fill="none" stroke-linecap="round"></path><path d="M 406.500,203.500 C 400.453,201.639 400.075,201.560 393.500,200.500" stroke-width="11.081" stroke="rgb(33,33,33)" fill="none" stroke-linecap="round"></path><path d="M 393.500,200.500 C 384.575,199.060 384.515,199.339 375.500,198.500" stroke-width="10.311" stroke="rgb(33,33,33)" fill="none" stroke-linecap="round"></path><path d="M 375.500,198.500 C 363.015,197.339 363.016,197.111 350.500,196.500" stroke-width="9.510" stroke="rgb(33,33,33)" fill="none" stroke-linecap="round"></path><path d="M 350.500,196.500 C 342.516,196.111 342.487,196.204 334.500,196.500" stroke-width="9.107" stroke="rgb(33,33,33)" fill="none" stroke-linecap="round"></path><path d="M 334.500,196.500 C 328.987,196.704 328.703,196.055 323.500,197.500" stroke-width="9.363" stroke="rgb(33,33,33)" fill="none" stroke-linecap="round"></path><path d="M 323.500,197.500 C 319.703,198.555 319.565,198.992 316.500,201.500" stroke-width="9.808" stroke="rgb(33,33,33)" fill="none" stroke-linecap="round"></path><path d="M 316.500,201.500 C 314.065,203.492 314.465,203.973 312.500,206.500" stroke-width="10.340" stroke="rgb(33,33,33)" fill="none" stroke-linecap="round"></path><path d="M 312.500,206.500 C 310.965,208.473 310.882,208.427 309.500,210.500" stroke-width="10.945" stroke="rgb(33,33,33)" fill="none" stroke-linecap="round"></path><path d="M 309.500,210.500 C 308.882,211.427 307.686,212.849 308.500,212.500" stroke-width="11.791" stroke="rgb(33,33,33)" fill="none" stroke-linecap="round"></path><path d="M 308.500,212.500 C 314.686,209.849 315.707,207.862 323.500,204.500" stroke-width="12.301" stroke="rgb(33,33,33)" fill="none" stroke-linecap="round"></path><path d="M 323.500,204.500 C 341.207,196.862 341.492,197.478 359.500,190.500" stroke-width="10.126" stroke="rgb(33,33,33)" fill="none" stroke-linecap="round"></path><path d="M 359.500,190.500 C 381.492,181.978 381.835,182.785 403.500,173.500" stroke-width="6.797" stroke="rgb(33,33,33)" fill="none" stroke-linecap="round"></path><path d="M 403.500,173.500 C 427.335,163.285 426.860,162.186 450.500,151.500" stroke-width="6.750" stroke="rgb(33,33,33)" fill="none" stroke-linecap="round"></path><path d="M 450.500,151.500 C 463.360,145.686 463.350,145.614 476.500,140.500" stroke-width="6.750" stroke="rgb(33,33,33)" fill="none" stroke-linecap="round"></path><path d="M 476.500,140.500 C 490.350,135.114 490.426,135.280 504.500,130.500" stroke-width="6.750" stroke="rgb(33,33,33)" fill="none" stroke-linecap="round"></path><path d="M 504.500,130.500 C 516.926,126.280 516.903,126.147 529.500,122.500" stroke-width="6.750" stroke="rgb(33,33,33)" fill="none" stroke-linecap="round"></path><path d="M 529.500,122.500 C 535.903,120.647 536.172,121.514 542.500,119.500" stroke-width="6.750" stroke="rgb(33,33,33)" fill="none" stroke-linecap="round"></path><path d="M 542.500,119.500 C 547.172,118.014 547.368,118.083 551.500,115.500" stroke-width="7.165" stroke="rgb(33,33,33)" fill="none" stroke-linecap="round"></path><path d="M 551.500,115.500 C 555.368,113.083 554.879,112.345 558.500,109.500" stroke-width="7.745" stroke="rgb(33,33,33)" fill="none" stroke-linecap="round"></path><path d="M 558.500,109.500 C 561.879,106.845 561.804,106.674 565.500,104.500" stroke-width="8.316" stroke="rgb(33,33,33)" fill="none" stroke-linecap="round"></path><path d="M 565.500,104.500 C 570.304,101.674 570.500,102.000 575.500,99.500" stroke-width="8.675" stroke="rgb(33,33,33)" fill="none" stroke-linecap="round"></path><path d="M 575.500,99.500 C 580.500,97.000 580.444,96.879 585.500,94.500" stroke-width="8.985" stroke="rgb(33,33,33)" fill="none" stroke-linecap="round"></path><path d="M 585.500,94.500 C 588.944,92.879 589.035,93.075 592.500,91.500" stroke-width="9.507" stroke="rgb(33,33,33)" fill="none" stroke-linecap="round"></path><path d="M 592.500,91.500 C 594.535,90.575 594.601,90.640 596.500,89.500" stroke-width="10.265" stroke="rgb(33,33,33)" fill="none" stroke-linecap="round"></path><path d="M 596.500,89.500 C 597.101,89.140 597.000,89.000 597.500,88.500" stroke-width="11.239" stroke="rgb(33,33,33)" fill="none" stroke-linecap="round"></path><path d="M 597.500,88.500 C 598.000,88.000 597.937,87.923 598.500,87.500" stroke-width="12.128" stroke="rgb(33,33,33)" fill="none" stroke-linecap="round"></path><path d="M 598.500,87.500 C 599.937,86.423 600.266,86.734 601.500,85.500" stroke-width="13.086" stroke="rgb(33,33,33)" fill="none" stroke-linecap="round"></path></svg>