<svg xmlns="http://www.w3.org/2000/svg" xmlns:xlink="http://www.w3.org/1999/xlink" viewBox="0 0 360 500"><path d="M 99.333,27.333 C 100.008,40.902 101.724,41.040 100.683,54.471" stroke-width="18.847" stroke="rgb(33,33,33)" fill="none" stroke-linecap="round"></path><path d="M 100.683,54.471 C 99.685,67.335 98.978,67.499 95.255,79.923" stroke-width="15.343" stroke="rgb(33,33,33)" fill="none" stroke-linecap="round"></path><path d="M 95.255,79.923 C 91.521,92.386 90.381,92.035 85.769,104.245" stroke-width="12.625" stroke="rgb(33,33,33)" fill="none" stroke-linecap="round"></path><path d="M 85.769,104.245 C 82.253,113.552 83.063,113.925 78.998,122.958" stroke-width="11.692" stroke="rgb(33,33,33)" fill="none" stroke-linecap="round"></path><path d="M 78.998,122.958 C 76.426,128.673 75.928,128.470 72.495,133.741" stroke-width="11.874" stroke="rgb(33,33,33)" fill="none" stroke-linecap="round"></path><path d="M 72.495,133.741 C 70.397,136.963 70.402,137.000 67.936,139.943" stroke-width="12.034" stroke="rgb(33,33,33)" fill="none" stroke-linecap="round"></path><path d="M 67.936,139.943 C 65.840,142.445 65.926,142.680 63.370,144.630" stroke-width="12.438" stroke="rgb(33,33,33)" fill="none" stroke-linecap="round"></path><path d="M 63.370,144.630 C 61.792,145.834 61.583,146.276 59.669,146.250" stroke-width="13.125" stroke="rgb(33,33,33)" fill="none" stroke-linecap="round"></path><path d="M 59.669,146.250 C 56.448,146.206 56.006,146.164 53.101,144.489" stroke-width="13.536" stroke="rgb(33,33,33)" fill="none" stroke-linecap="round"></path><path d="M 53.101,144.489 C 45.908,140.341 45.720,140.177 39.472,134.604" stroke-width="11.140" stroke="rgb(33,33,33)" fill="none" stroke-linecap="round"></path><path d="M 39.472,134.604 C 33.628,129.391 34.315,128.646 28.917,122.917" stroke-width="11.127" stroke="rgb(33,33,33)" fill="none" stroke-linecap="round"></path><path d="M 28.917,122.917 C 25.104,118.870 24.867,119.092 21.051,115.051" stroke-width="11.158" stroke="rgb(33,33,33)" fill="none" stroke-linecap="round"></path><path d="M 21.051,115.051 C 19.008,112.887 19.016,112.864 17.200,110.507" stroke-width="11.786" stroke="rgb(33,33,33)" fill="none" stroke-linecap="round"></path><path d="M 17.200,110.507 C 14.988,107.635 14.889,107.669 12.995,104.593" stroke-width="12.266" stroke="rgb(33,33,33)" fill="none" stroke-linecap="round"></path><path d="M 12.995,104.593 C 12.069,103.089 12.213,102.996 11.561,101.348" stroke-width="12.915" stroke="rgb(33,33,33)" fill="none" stroke-linecap="round"></path><path d="M 11.561,101.348 C 11.089,100.153 11.071,100.145 10.747,98.908" stroke-width="13.640" stroke="rgb(33,33,33)" fill="none" stroke-linecap="round"></path><path d="M 10.747,98.908 C 10.624,98.438 10.509,98.378 10.667,97.935" stroke-width="14.479" stroke="rgb(33,33,33)" fill="none" stroke-linecap="round"></path><path d="M 10.667,97.935 C 11.046,96.872 10.929,96.592 11.821,95.897" stroke-width="14.974" stroke="rgb(33,33,33)" fill="none" stroke-linecap="round"></path><path d="M 11.821,95.897 C 13.795,94.358 14.142,94.738 16.400,93.467" stroke-width="15.037" stroke="rgb(33,33,33)" fill="none" stroke-linecap="round"></path><path d="M 16.400,93.467 C 18.780,92.127 18.688,91.957 21.097,90.675" stroke-width="15.260" stroke="rgb(33,33,33)" fill="none" stroke-linecap="round"></path><path d="M 21.097,90.675 C 23.864,89.202 23.970,89.404 26.752,87.957" stroke-width="14.720" stroke="rgb(33,33,33)" fill="none" stroke-linecap="round"></path><path d="M 26.752,87.957 C 29.847,86.347 29.682,86.001 32.850,84.562" stroke-width="14.876" stroke="rgb(33,33,33)" fill="none" stroke-linecap="round"></path><path d="M 32.850,84.562 C 36.449,82.927 36.455,82.327 40.285,81.810" stroke-width="14.352" stroke="rgb(33,33,33)" fill="none" stroke-linecap="round"></path><path d="M 40.285,81.810 C 43.992,81.309 44.126,82.002 47.925,82.526" stroke-width="14.214" stroke="rgb(33,33,33)" fill="none" stroke-linecap="round"></path><path d="M 47.925,82.526 C 55.513,83.574 55.600,83.258 63.059,84.954" stroke-width="13.691" stroke="rgb(33,33,33)" fill="none" stroke-linecap="round"></path><path d="M 63.059,84.954 C 71.299,86.827 71.397,86.755 79.324,89.664" stroke-width="11.974" stroke="rgb(33,33,33)" fill="none" stroke-linecap="round"></path><path d="M 79.324,89.664 C 86.622,92.342 86.437,92.851 93.509,96.127" stroke-width="11.501" stroke="rgb(33,33,33)" fill="none" stroke-linecap="round"></path><path d="M 93.509,96.127 C 101.271,99.723 101.499,99.313 108.992,103.408" stroke-width="11.378" stroke="rgb(33,33,33)" fill="none" stroke-linecap="round"></path><path d="M 108.992,103.408 C 116.477,107.498 116.483,107.591 123.466,112.497" stroke-width="10.733" stroke="rgb(33,33,33)" fill="none" stroke-linecap="round"></path><path d="M 123.466,112.497 C 130.586,117.500 130.674,117.475 137.199,123.226" stroke-width="10.641" stroke="rgb(33,33,33)" fill="none" stroke-linecap="round"></path><path d="M 137.199,123.226 C 143.438,128.724 143.041,129.168 148.995,134.995" stroke-width="10.670" stroke="rgb(33,33,33)" fill="none" stroke-linecap="round"></path><path d="M 148.995,134.995 C 154.865,140.740 155.046,140.558 160.847,146.371" stroke-width="10.453" stroke="rgb(33,33,33)" fill="none" stroke-linecap="round"></path><path d="M 160.847,146.371 C 166.519,152.055 166.494,152.089 171.940,157.990" stroke-width="10.381" stroke="rgb(33,33,33)" fill="none" stroke-linecap="round"></path><path d="M 171.940,157.990 C 175.131,161.448 174.859,161.702 178.120,165.090" stroke-width="10.857" stroke="rgb(33,33,33)" fill="none" stroke-linecap="round"></path><path d="M 178.120,165.090 C 182.783,169.935 182.903,169.826 187.788,174.455" stroke-width="10.820" stroke="rgb(33,33,33)" fill="none" stroke-linecap="round"></path><path d="M 187.788,174.455 C 193.234,179.616 193.069,179.827 198.781,184.670" stroke-width="10.807" stroke="rgb(33,33,33)" fill="none" stroke-linecap="round"></path><path d="M 198.781,184.670 C 201.842,187.266 202.055,187.005 205.333,189.333" stroke-width="11.353" stroke="rgb(33,33,33)" fill="none" stroke-linecap="round"></path><path d="M 205.333,189.333 C 207.616,190.955 207.541,191.073 209.904,192.570" stroke-width="11.863" stroke="rgb(33,33,33)" fill="none" stroke-linecap="round"></path><path d="M 209.904,192.570 C 212.540,194.239 212.668,194.040 215.331,195.665" stroke-width="12.355" stroke="rgb(33,33,33)" fill="none" stroke-linecap="round"></path><path d="M 215.331,195.665 C 216.322,196.270 216.171,196.540 217.212,197.030" stroke-width="13.161" stroke="rgb(33,33,33)" fill="none" stroke-linecap="round"></path><path d="M 217.212,197.030 C 219.008,197.875 219.130,197.628 221.005,198.335" stroke-width="13.725" stroke="rgb(33,33,33)" fill="none" stroke-linecap="round"></path><path d="M 221.005,198.335 C 222.214,198.791 222.170,198.966 223.381,199.357" stroke-width="14.334" stroke="rgb(33,33,33)" fill="none" stroke-linecap="round"></path><path d="M 223.381,199.357 C 223.714,199.465 223.767,199.214 224.093,199.333" stroke-width="15.147" stroke="rgb(33,33,33)" fill="none" stroke-linecap="round"></path><path d="M 224.093,199.333 C 225.002,199.665 225.072,199.692 225.850,200.258" stroke-width="15.510" stroke="rgb(33,33,33)" fill="none" stroke-linecap="round"></path><path d="M 225.850,200.258 C 226.120,200.454 226.169,201.025 226.189,200.856" stroke-width="16.217" stroke="rgb(33,33,33)" fill="none" stroke-linecap="round"></path><path d="M 120.000,35.000 C 126.394,36.694 127.059,35.383 132.787,38.388" stroke-width="19.617" stroke="rgb(33,33,33)" fill="none" stroke-linecap="round"></path><path d="M 132.787,38.388 C 139.283,41.796 138.556,43.187 144.449,47.826" stroke-width="16.843" stroke="rgb(33,33,33)" fill="none" stroke-linecap="round"></path><path d="M 144.449,47.826 C 148.007,50.626 147.962,50.699 151.689,53.267" stroke-width="15.965" stroke="rgb(33,33,33)" fill="none" stroke-linecap="round"></path><path d="M 151.689,53.267 C 157.032,56.949 157.204,56.702 162.589,60.325" stroke-width="15.061" stroke="rgb(33,33,33)" fill="none" stroke-linecap="round"></path><path d="M 162.589,60.325 C 164.762,61.787 164.775,61.791 166.805,63.437" stroke-width="15.327" stroke="rgb(33,33,33)" fill="none" stroke-linecap="round"></path><path d="M 166.805,63.437 C 167.598,64.079 167.520,64.807 168.234,64.901" stroke-width="15.685" stroke="rgb(33,33,33)" fill="none" stroke-linecap="round"></path><path d="M 168.234,64.901 C 168.784,64.973 169.414,64.371 169.333,63.770" stroke-width="16.082" stroke="rgb(33,33,33)" fill="none" stroke-linecap="round"></path><path d="M 169.333,63.770 C 169.206,62.829 168.656,62.722 167.817,61.817" stroke-width="16.354" stroke="rgb(33,33,33)" fill="none" stroke-linecap="round"></path><path d="M 167.817,61.817 C 165.844,59.691 165.763,59.763 163.709,57.709" stroke-width="16.178" stroke="rgb(33,33,33)" fill="none" stroke-linecap="round"></path><path d="M 163.709,57.709 C 162.720,56.720 162.877,56.429 161.731,55.731" stroke-width="16.506" stroke="rgb(33,33,33)" fill="none" stroke-linecap="round"></path><path d="M 161.731,55.731 C 160.926,55.241 160.574,54.918 159.807,55.333" stroke-width="16.588" stroke="rgb(33,33,33)" fill="none" stroke-linecap="round"></path><path d="M 159.807,55.333 C 158.255,56.173 157.381,56.353 157.094,58.240" stroke-width="16.553" stroke="rgb(33,33,33)" fill="none" stroke-linecap="round"></path><path d="M 157.094,58.240 C 155.862,66.325 156.684,66.762 156.769,75.277" stroke-width="15.399" stroke="rgb(33,33,33)" fill="none" stroke-linecap="round"></path><path d="M 156.769,75.277 C 156.843,82.642 157.747,82.665 157.412,90.001" stroke-width="14.471" stroke="rgb(33,33,33)" fill="none" stroke-linecap="round"></path><path d="M 157.412,90.001 C 157.031,98.342 156.522,98.337 155.337,106.630" stroke-width="12.990" stroke="rgb(33,33,33)" fill="none" stroke-linecap="round"></path><path d="M 155.337,106.630 C 154.351,113.532 154.872,113.708 153.069,120.392" stroke-width="11.276" stroke="rgb(33,33,33)" fill="none" stroke-linecap="round"></path><path d="M 153.069,120.392 C 151.828,124.994 151.447,124.949 149.248,129.203" stroke-width="11.746" stroke="rgb(33,33,33)" fill="none" stroke-linecap="round"></path><path d="M 149.248,129.203 C 147.413,132.753 147.307,132.732 145.000,136.000" stroke-width="11.894" stroke="rgb(33,33,33)" fill="none" stroke-linecap="round"></path><path d="M 145.000,136.000 C 143.048,138.765 142.974,138.732 140.731,141.269" stroke-width="12.255" stroke="rgb(33,33,33)" fill="none" stroke-linecap="round"></path><path d="M 140.731,141.269 C 139.163,143.043 139.314,143.398 137.378,144.622" stroke-width="12.922" stroke="rgb(33,33,33)" fill="none" stroke-linecap="round"></path><path d="M 137.378,144.622 C 135.981,145.506 135.659,144.906 134.065,145.484" stroke-width="13.477" stroke="rgb(33,33,33)" fill="none" stroke-linecap="round"></path><path d="M 134.065,145.484 C 133.318,145.755 133.427,146.151 132.695,146.319" stroke-width="14.239" stroke="rgb(33,33,33)" fill="none" stroke-linecap="round"></path><path d="M 184.000,120.000 C 181.114,122.799 181.602,123.628 178.227,125.597" stroke-width="19.607" stroke="rgb(33,33,33)" fill="none" stroke-linecap="round"></path><path d="M 178.227,125.597 C 174.733,127.636 174.323,127.320 170.262,128.016" stroke-width="18.101" stroke="rgb(33,33,33)" fill="none" stroke-linecap="round"></path><path d="M 170.262,128.016 C 167.095,128.558 167.016,128.078 163.771,128.073" stroke-width="17.288" stroke="rgb(33,33,33)" fill="none" stroke-linecap="round"></path><path d="M 163.771,128.073 C 161.885,128.070 161.773,128.341 160.000,128.000" stroke-width="17.140" stroke="rgb(33,33,33)" fill="none" stroke-linecap="round"></path><path d="M 160.000,128.000 C 159.371,127.879 159.437,127.621 158.966,127.150" stroke-width="17.456" stroke="rgb(33,33,33)" fill="none" stroke-linecap="round"></path><path d="M 158.966,127.150 C 158.437,126.621 157.696,126.207 158.000,126.000" stroke-width="17.658" stroke="rgb(33,33,33)" fill="none" stroke-linecap="round"></path><path d="M 158.000,126.000 C 158.537,125.635 159.324,126.005 160.649,126.005" stroke-width="17.722" stroke="rgb(33,33,33)" fill="none" stroke-linecap="round"></path><path d="M 160.649,126.005 C 163.324,126.005 163.653,124.973 166.000,126.000" stroke-width="16.925" stroke="rgb(33,33,33)" fill="none" stroke-linecap="round"></path><path d="M 166.000,126.000 C 170.616,128.019 170.779,128.504 174.575,132.098" stroke-width="15.607" stroke="rgb(33,33,33)" fill="none" stroke-linecap="round"></path><path d="M 174.575,132.098 C 180.373,137.586 181.033,137.549 185.188,144.163" stroke-width="14.190" stroke="rgb(33,33,33)" fill="none" stroke-linecap="round"></path><path d="M 185.188,144.163 C 187.138,147.266 185.917,147.864 186.785,151.532" stroke-width="14.103" stroke="rgb(33,33,33)" fill="none" stroke-linecap="round"></path><path d="M 186.785,151.532 C 187.518,154.632 187.790,154.582 188.390,157.700" stroke-width="14.224" stroke="rgb(33,33,33)" fill="none" stroke-linecap="round"></path><path d="M 188.390,157.700 C 188.731,159.472 188.091,159.723 188.667,161.312" stroke-width="14.683" stroke="rgb(33,33,33)" fill="none" stroke-linecap="round"></path><path d="M 188.667,161.312 C 188.991,162.206 189.409,162.777 190.191,162.667" stroke-width="15.298" stroke="rgb(33,33,33)" fill="none" stroke-linecap="round"></path><path d="M 190.191,162.667 C 191.361,162.502 191.700,161.983 192.572,160.761" stroke-width="15.460" stroke="rgb(33,33,33)" fill="none" stroke-linecap="round"></path><path d="M 192.572,160.761 C 194.722,157.748 194.617,157.584 196.235,154.196" stroke-width="15.260" stroke="rgb(33,33,33)" fill="none" stroke-linecap="round"></path><path d="M 196.235,154.196 C 199.272,147.836 198.980,147.694 201.883,141.264" stroke-width="14.184" stroke="rgb(33,33,33)" fill="none" stroke-linecap="round"></path><path d="M 201.883,141.264 C 203.637,137.380 203.420,137.238 205.549,133.569" stroke-width="13.833" stroke="rgb(33,33,33)" fill="none" stroke-linecap="round"></path><path d="M 205.549,133.569 C 207.065,130.956 207.422,131.176 209.174,128.699" stroke-width="14.077" stroke="rgb(33,33,33)" fill="none" stroke-linecap="round"></path><path d="M 209.174,128.699 C 209.981,127.558 209.889,126.677 210.667,126.333" stroke-width="14.654" stroke="rgb(33,33,33)" fill="none" stroke-linecap="round"></path><path d="M 210.667,126.333 C 211.111,126.136 211.386,126.867 211.618,127.618" stroke-width="15.277" stroke="rgb(33,33,33)" fill="none" stroke-linecap="round"></path><path d="M 211.618,127.618 C 212.402,130.151 212.568,130.218 212.700,132.900" stroke-width="15.296" stroke="rgb(33,33,33)" fill="none" stroke-linecap="round"></path><path d="M 212.700,132.900 C 213.093,140.877 213.213,140.965 212.667,148.937" stroke-width="13.607" stroke="rgb(33,33,33)" fill="none" stroke-linecap="round"></path><path d="M 212.667,148.937 C 212.318,154.029 211.941,154.015 210.910,159.028" stroke-width="13.335" stroke="rgb(33,33,33)" fill="none" stroke-linecap="round"></path><path d="M 210.910,159.028 C 210.167,162.639 209.627,162.569 209.120,166.186" stroke-width="13.568" stroke="rgb(33,33,33)" fill="none" stroke-linecap="round"></path><path d="M 209.120,166.186 C 208.838,168.199 208.834,168.355 209.333,170.288" stroke-width="13.977" stroke="rgb(33,33,33)" fill="none" stroke-linecap="round"></path><path d="M 209.333,170.288 C 209.693,171.682 209.614,172.230 210.839,172.839" stroke-width="14.505" stroke="rgb(33,33,33)" fill="none" stroke-linecap="round"></path><path d="M 210.839,172.839 C 213.366,174.096 213.999,174.573 216.836,174.021" stroke-width="14.727" stroke="rgb(33,33,33)" fill="none" stroke-linecap="round"></path><path d="M 216.836,174.021 C 220.673,173.274 221.077,172.903 224.187,170.240" stroke-width="14.429" stroke="rgb(33,33,33)" fill="none" stroke-linecap="round"></path><path d="M 224.187,170.240 C 233.207,162.515 232.993,162.063 241.097,153.245" stroke-width="12.161" stroke="rgb(33,33,33)" fill="none" stroke-linecap="round"></path><path d="M 241.097,153.245 C 248.128,145.595 247.928,145.395 254.456,137.303" stroke-width="11.704" stroke="rgb(33,33,33)" fill="none" stroke-linecap="round"></path><path d="M 254.456,137.303 C 258.948,131.734 258.751,131.575 263.136,125.923" stroke-width="11.485" stroke="rgb(33,33,33)" fill="none" stroke-linecap="round"></path><path d="M 263.136,125.923 C 263.523,125.424 263.833,125.566 264.000,125.000" stroke-width="12.434" stroke="rgb(33,33,33)" fill="none" stroke-linecap="round"></path><path d="M 264.000,125.000 C 264.265,124.105 264.000,123.000 264.000,123.000" stroke-width="13.278" stroke="rgb(33,33,33)" fill="none" stroke-linecap="round"></path><path d="M 264.000,123.000 C 264.000,123.000 263.985,124.000 264.000,125.000" stroke-width="13.997" stroke="rgb(33,33,33)" fill="none" stroke-linecap="round"></path><path d="M 264.000,125.000 C 264.071,129.639 264.172,129.639 264.172,134.278" stroke-width="13.865" stroke="rgb(33,33,33)" fill="none" stroke-linecap="round"></path><path d="M 291.000,154.000 C 287.943,167.340 288.687,167.565 284.885,180.681" stroke-width="18.837" stroke="rgb(33,33,33)" fill="none" stroke-linecap="round"></path><path d="M 284.885,180.681 C 282.090,190.321 281.811,190.299 277.806,199.512" stroke-width="15.617" stroke="rgb(33,33,33)" fill="none" stroke-linecap="round"></path><path d="M 277.806,199.512 C 273.681,209.000 273.386,208.897 268.625,218.083" stroke-width="14.019" stroke="rgb(33,33,33)" fill="none" stroke-linecap="round"></path><path d="M 268.625,218.083 C 267.827,219.623 267.709,219.562 266.687,220.965" stroke-width="14.445" stroke="rgb(33,33,33)" fill="none" stroke-linecap="round"></path><path d="M 266.687,220.965 C 265.089,223.160 265.000,223.095 263.387,225.279" stroke-width="14.574" stroke="rgb(33,33,33)" fill="none" stroke-linecap="round"></path><path d="M 263.387,225.279 C 262.673,226.247 262.843,226.502 262.033,227.268" stroke-width="15.094" stroke="rgb(33,33,33)" fill="none" stroke-linecap="round"></path><path d="M 262.033,227.268 C 261.756,227.529 261.174,227.588 261.214,227.333" stroke-width="15.807" stroke="rgb(33,33,33)" fill="none" stroke-linecap="round"></path><path d="M 261.214,227.333 C 261.324,226.621 261.567,226.104 262.333,225.333" stroke-width="16.070" stroke="rgb(33,33,33)" fill="none" stroke-linecap="round"></path><path d="M 282.000,236.000 C 273.682,231.360 274.130,230.261 265.363,226.720" stroke-width="17.898" stroke="rgb(33,33,33)" fill="none" stroke-linecap="round"></path><path d="M 265.363,226.720 C 256.006,222.940 255.777,222.405 245.751,221.358" stroke-width="15.214" stroke="rgb(33,33,33)" fill="none" stroke-linecap="round"></path><path d="M 245.751,221.358 C 229.979,219.711 229.749,221.739 213.767,221.333" stroke-width="13.224" stroke="rgb(33,33,33)" fill="none" stroke-linecap="round"></path><path d="M 213.767,221.333 C 197.051,220.908 196.944,221.522 180.355,219.695" stroke-width="10.214" stroke="rgb(33,33,33)" fill="none" stroke-linecap="round"></path><path d="M 180.355,219.695 C 166.277,218.145 166.113,218.146 152.433,214.578" stroke-width="9.240" stroke="rgb(33,33,33)" fill="none" stroke-linecap="round"></path><circle r="6" cx="145.33299255371094" cy="250.6669921875" fill="rgb(33,33,33)"></circle><circle r="6" cx="268" cy="78" fill="rgb(33,33,33)"></circle></svg>