<svg xmlns="http://www.w3.org/2000/svg" xmlns:xlink="http://www.w3.org/1999/xlink" viewBox="0 0 414 500"><path d="M 38.000,388.000 C 40.500,387.000 40.385,386.402 43.000,386.000" stroke-width="19.500" stroke="rgb(33,33,33)" fill="none" stroke-linecap="round"></path><path d="M 43.000,386.000 C 46.885,385.402 47.143,386.812 51.000,386.000" stroke-width="18.002" stroke="rgb(33,33,33)" fill="none" stroke-linecap="round"></path><path d="M 51.000,386.000 C 56.643,384.812 56.412,383.719 62.000,382.000" stroke-width="16.249" stroke="rgb(33,33,33)" fill="none" stroke-linecap="round"></path><path d="M 62.000,382.000 C 69.412,379.719 69.484,379.940 77.000,378.000" stroke-width="14.678" stroke="rgb(33,33,33)" fill="none" stroke-linecap="round"></path><path d="M 77.000,378.000 C 84.984,375.940 84.948,375.761 93.000,374.000" stroke-width="13.412" stroke="rgb(33,33,33)" fill="none" stroke-linecap="round"></path><path d="M 93.000,374.000 C 100.948,372.261 100.938,371.834 109.000,371.000" stroke-width="12.661" stroke="rgb(33,33,33)" fill="none" stroke-linecap="round"></path><path d="M 109.000,371.000 C 115.438,370.334 115.500,371.000 122.000,371.000" stroke-width="12.405" stroke="rgb(33,33,33)" fill="none" stroke-linecap="round"></path><path d="M 122.000,371.000 C 128.500,371.000 128.664,369.986 135.000,371.000" stroke-width="12.207" stroke="rgb(33,33,33)" fill="none" stroke-linecap="round"></path><path d="M 135.000,371.000 C 141.164,371.986 141.534,372.019 147.000,375.000" stroke-width="12.143" stroke="rgb(33,33,33)" fill="none" stroke-linecap="round"></path><path d="M 147.000,375.000 C 152.534,378.019 152.813,378.290 157.000,383.000" stroke-width="11.793" stroke="rgb(33,33,33)" fill="none" stroke-linecap="round"></path><path d="M 157.000,383.000 C 160.813,387.290 160.519,387.761 163.000,393.000" stroke-width="11.836" stroke="rgb(33,33,33)" fill="none" stroke-linecap="round"></path><path d="M 163.000,393.000 C 165.019,397.261 165.230,397.381 166.000,402.000" stroke-width="12.051" stroke="rgb(33,33,33)" fill="none" stroke-linecap="round"></path><path d="M 166.000,402.000 C 166.730,406.381 166.632,406.578 166.000,411.000" stroke-width="12.223" stroke="rgb(33,33,33)" fill="none" stroke-linecap="round"></path><path d="M 166.000,411.000 C 165.132,417.078 166.413,418.182 163.000,423.000" stroke-width="12.178" stroke="rgb(33,33,33)" fill="none" stroke-linecap="round"></path><path d="M 163.000,423.000 C 157.913,430.182 156.358,429.481 149.000,435.000" stroke-width="11.501" stroke="rgb(33,33,33)" fill="none" stroke-linecap="round"></path><path d="M 149.000,435.000 C 142.358,439.981 142.281,440.007 135.000,444.000" stroke-width="11.147" stroke="rgb(33,33,33)" fill="none" stroke-linecap="round"></path><path d="M 135.000,444.000 C 126.781,448.507 126.749,448.655 118.000,452.000" stroke-width="10.804" stroke="rgb(33,33,33)" fill="none" stroke-linecap="round"></path><path d="M 118.000,452.000 C 109.749,455.155 109.621,455.029 101.000,457.000" stroke-width="10.613" stroke="rgb(33,33,33)" fill="none" stroke-linecap="round"></path><path d="M 101.000,457.000 C 92.121,459.029 92.050,458.935 83.000,460.000" stroke-width="10.361" stroke="rgb(33,33,33)" fill="none" stroke-linecap="round"></path><path d="M 83.000,460.000 C 75.050,460.935 75.007,460.714 67.000,461.000" stroke-width="10.373" stroke="rgb(33,33,33)" fill="none" stroke-linecap="round"></path><path d="M 67.000,461.000 C 61.007,461.214 61.000,461.000 55.000,461.000" stroke-width="10.642" stroke="rgb(33,33,33)" fill="none" stroke-linecap="round"></path><path d="M 55.000,461.000 C 51.000,461.000 51.000,461.000 47.000,461.000" stroke-width="11.112" stroke="rgb(33,33,33)" fill="none" stroke-linecap="round"></path><path d="M 47.000,461.000 C 44.500,461.000 44.324,461.581 42.000,461.000" stroke-width="11.796" stroke="rgb(33,33,33)" fill="none" stroke-linecap="round"></path><path d="M 42.000,461.000 C 40.324,460.581 39.819,460.365 39.000,459.000" stroke-width="12.533" stroke="rgb(33,33,33)" fill="none" stroke-linecap="round"></path><path d="M 39.000,459.000 C 38.319,457.865 39.000,457.500 39.000,456.000" stroke-width="13.234" stroke="rgb(33,33,33)" fill="none" stroke-linecap="round"></path><path d="M 39.000,456.000 C 39.000,455.000 38.304,454.596 39.000,454.000" stroke-width="13.988" stroke="rgb(33,33,33)" fill="none" stroke-linecap="round"></path><path d="M 39.000,454.000 C 41.804,451.596 42.272,451.450 46.000,450.000" stroke-width="13.937" stroke="rgb(33,33,33)" fill="none" stroke-linecap="round"></path><path d="M 46.000,450.000 C 51.272,447.950 51.448,448.281 57.000,447.000" stroke-width="13.456" stroke="rgb(33,33,33)" fill="none" stroke-linecap="round"></path><path d="M 57.000,447.000 C 64.448,445.281 64.555,445.737 72.000,444.000" stroke-width="12.785" stroke="rgb(33,33,33)" fill="none" stroke-linecap="round"></path><path d="M 72.000,444.000 C 79.555,442.237 79.470,441.882 87.000,440.000" stroke-width="12.275" stroke="rgb(33,33,33)" fill="none" stroke-linecap="round"></path><path d="M 87.000,440.000 C 95.470,437.882 95.543,438.169 104.000,436.000" stroke-width="11.651" stroke="rgb(33,33,33)" fill="none" stroke-linecap="round"></path><path d="M 104.000,436.000 C 115.043,433.169 114.968,432.878 126.000,430.000" stroke-width="10.894" stroke="rgb(33,33,33)" fill="none" stroke-linecap="round"></path><path d="M 126.000,430.000 C 137.968,426.878 137.973,426.887 150.000,424.000" stroke-width="10.237" stroke="rgb(33,33,33)" fill="none" stroke-linecap="round"></path><path d="M 150.000,424.000 C 162.973,420.887 162.940,420.711 176.000,418.000" stroke-width="9.570" stroke="rgb(33,33,33)" fill="none" stroke-linecap="round"></path><path d="M 176.000,418.000 C 189.440,415.211 189.485,415.413 203.000,413.000" stroke-width="9.139" stroke="rgb(33,33,33)" fill="none" stroke-linecap="round"></path><path d="M 203.000,413.000 C 217.485,410.413 217.507,410.543 232.000,408.000" stroke-width="8.733" stroke="rgb(33,33,33)" fill="none" stroke-linecap="round"></path><path d="M 232.000,408.000 C 246.007,405.543 245.967,405.296 260.000,403.000" stroke-width="8.400" stroke="rgb(33,33,33)" fill="none" stroke-linecap="round"></path><path d="M 260.000,403.000 C 273.467,400.796 273.512,401.075 287.000,399.000" stroke-width="8.267" stroke="rgb(33,33,33)" fill="none" stroke-linecap="round"></path><path d="M 287.000,399.000 C 299.512,397.075 299.514,397.081 312.000,395.000" stroke-width="8.178" stroke="rgb(33,33,33)" fill="none" stroke-linecap="round"></path><path d="M 312.000,395.000 C 323.514,393.081 323.546,393.235 335.000,391.000" stroke-width="8.246" stroke="rgb(33,33,33)" fill="none" stroke-linecap="round"></path><path d="M 335.000,391.000 C 344.046,389.235 343.962,388.808 353.000,387.000" stroke-width="8.503" stroke="rgb(33,33,33)" fill="none" stroke-linecap="round"></path><path d="M 353.000,387.000 C 361.462,385.308 361.588,385.869 370.000,384.000" stroke-width="8.816" stroke="rgb(33,33,33)" fill="none" stroke-linecap="round"></path><path d="M 370.000,384.000 C 375.088,382.869 374.972,382.397 380.000,381.000" stroke-width="9.303" stroke="rgb(33,33,33)" fill="none" stroke-linecap="round"></path><path d="M 380.000,381.000 C 383.972,379.897 384.000,380.000 388.000,379.000" stroke-width="9.934" stroke="rgb(33,33,33)" fill="none" stroke-linecap="round"></path><path d="M 388.000,379.000 C 390.000,378.500 390.055,378.648 392.000,378.000" stroke-width="10.758" stroke="rgb(33,33,33)" fill="none" stroke-linecap="round"></path><path d="M 207.000,380.000 C 204.500,381.500 204.153,381.116 202.000,383.000" stroke-width="19.822" stroke="rgb(33,33,33)" fill="none" stroke-linecap="round"></path><path d="M 202.000,383.000 C 200.153,384.616 200.204,384.833 199.000,387.000" stroke-width="18.754" stroke="rgb(33,33,33)" fill="none" stroke-linecap="round"></path><path d="M 199.000,387.000 C 197.704,389.333 197.435,389.391 197.000,392.000" stroke-width="18.072" stroke="rgb(33,33,33)" fill="none" stroke-linecap="round"></path><path d="M 197.000,392.000 C 196.435,395.391 197.000,395.500 197.000,399.000" stroke-width="17.021" stroke="rgb(33,33,33)" fill="none" stroke-linecap="round"></path><path d="M 197.000,399.000 C 197.000,401.500 197.000,401.500 197.000,404.000" stroke-width="16.727" stroke="rgb(33,33,33)" fill="none" stroke-linecap="round"></path><path d="M 197.000,404.000 C 197.000,405.500 196.270,406.026 197.000,407.000" stroke-width="16.822" stroke="rgb(33,33,33)" fill="none" stroke-linecap="round"></path><path d="M 197.000,407.000 C 197.770,408.026 198.450,407.806 200.000,408.000" stroke-width="16.802" stroke="rgb(33,33,33)" fill="none" stroke-linecap="round"></path><path d="M 200.000,408.000 C 202.450,408.306 202.557,408.407 205.000,408.000" stroke-width="16.602" stroke="rgb(33,33,33)" fill="none" stroke-linecap="round"></path><path d="M 205.000,408.000 C 208.557,407.407 209.272,408.143 212.000,406.000" stroke-width="16.053" stroke="rgb(33,33,33)" fill="none" stroke-linecap="round"></path><path d="M 212.000,406.000 C 216.272,402.643 216.049,401.829 219.000,397.000" stroke-width="14.982" stroke="rgb(33,33,33)" fill="none" stroke-linecap="round"></path><path d="M 219.000,397.000 C 221.549,392.829 221.026,392.511 223.000,388.000" stroke-width="14.493" stroke="rgb(33,33,33)" fill="none" stroke-linecap="round"></path><path d="M 223.000,388.000 C 224.526,384.511 224.802,384.594 226.000,381.000" stroke-width="14.389" stroke="rgb(33,33,33)" fill="none" stroke-linecap="round"></path><path d="M 226.000,381.000 C 226.802,378.594 226.447,378.488 227.000,376.000" stroke-width="14.572" stroke="rgb(33,33,33)" fill="none" stroke-linecap="round"></path><path d="M 227.000,376.000 C 227.447,373.988 227.598,374.012 228.000,372.000" stroke-width="14.854" stroke="rgb(33,33,33)" fill="none" stroke-linecap="round"></path><path d="M 228.000,372.000 C 228.098,371.512 228.000,370.700 228.000,371.000" stroke-width="15.549" stroke="rgb(33,33,33)" fill="none" stroke-linecap="round"></path><path d="M 228.000,371.000 C 228.000,372.200 228.166,373.010 228.000,375.000" stroke-width="15.994" stroke="rgb(33,33,33)" fill="none" stroke-linecap="round"></path><path d="M 228.000,375.000 C 227.666,379.010 227.570,379.010 227.000,383.000" stroke-width="15.547" stroke="rgb(33,33,33)" fill="none" stroke-linecap="round"></path><path d="M 227.000,383.000 C 226.570,386.010 226.500,386.000 226.000,389.000" stroke-width="15.305" stroke="rgb(33,33,33)" fill="none" stroke-linecap="round"></path><path d="M 226.000,389.000 C 225.500,392.000 225.335,391.986 225.000,395.000" stroke-width="15.225" stroke="rgb(33,33,33)" fill="none" stroke-linecap="round"></path><path d="M 225.000,395.000 C 224.835,396.486 225.000,396.500 225.000,398.000" stroke-width="15.609" stroke="rgb(33,33,33)" fill="none" stroke-linecap="round"></path><path d="M 225.000,398.000 C 225.000,398.500 224.667,398.833 225.000,399.000" stroke-width="16.184" stroke="rgb(33,33,33)" fill="none" stroke-linecap="round"></path><path d="M 225.000,399.000 C 225.667,399.333 226.244,399.588 227.000,399.000" stroke-width="16.571" stroke="rgb(33,33,33)" fill="none" stroke-linecap="round"></path><path d="M 227.000,399.000 C 230.744,396.088 231.016,395.903 234.000,392.000" stroke-width="15.463" stroke="rgb(33,33,33)" fill="none" stroke-linecap="round"></path><path d="M 234.000,392.000 C 237.516,387.403 237.299,387.157 240.000,382.000" stroke-width="14.622" stroke="rgb(33,33,33)" fill="none" stroke-linecap="round"></path><path d="M 240.000,382.000 C 242.799,376.657 242.521,376.509 245.000,371.000" stroke-width="13.880" stroke="rgb(33,33,33)" fill="none" stroke-linecap="round"></path><path d="M 245.000,371.000 C 247.021,366.509 247.526,366.667 249.000,362.000" stroke-width="13.654" stroke="rgb(33,33,33)" fill="none" stroke-linecap="round"></path><path d="M 249.000,362.000 C 250.526,357.167 250.060,357.011 251.000,352.000" stroke-width="13.376" stroke="rgb(33,33,33)" fill="none" stroke-linecap="round"></path><path d="M 251.000,352.000 C 251.560,349.011 251.538,349.006 252.000,346.000" stroke-width="13.694" stroke="rgb(33,33,33)" fill="none" stroke-linecap="round"></path><path d="M 252.000,346.000 C 252.538,342.506 252.707,342.515 253.000,339.000" stroke-width="13.812" stroke="rgb(33,33,33)" fill="none" stroke-linecap="round"></path><path d="M 253.000,339.000 C 253.207,336.515 253.000,336.500 253.000,334.000" stroke-width="14.107" stroke="rgb(33,33,33)" fill="none" stroke-linecap="round"></path><path d="M 253.000,334.000 C 253.000,332.000 253.000,332.000 253.000,330.000" stroke-width="14.512" stroke="rgb(33,33,33)" fill="none" stroke-linecap="round"></path><path d="M 253.000,330.000 C 253.000,329.000 253.000,328.333 253.000,328.000" stroke-width="15.114" stroke="rgb(33,33,33)" fill="none" stroke-linecap="round"></path><path d="M 253.000,328.000 C 253.000,327.833 253.000,328.500 253.000,329.000" stroke-width="15.869" stroke="rgb(33,33,33)" fill="none" stroke-linecap="round"></path><path d="M 253.000,329.000 C 253.000,333.000 253.249,333.016 253.000,337.000" stroke-width="15.400" stroke="rgb(33,33,33)" fill="none" stroke-linecap="round"></path><path d="M 253.000,337.000 C 252.749,341.016 252.251,340.984 252.000,345.000" stroke-width="15.035" stroke="rgb(33,33,33)" fill="none" stroke-linecap="round"></path><path d="M 252.000,345.000 C 251.751,348.984 252.000,349.000 252.000,353.000" stroke-width="14.764" stroke="rgb(33,33,33)" fill="none" stroke-linecap="round"></path><path d="M 252.000,353.000 C 252.000,357.500 251.736,357.516 252.000,362.000" stroke-width="14.364" stroke="rgb(33,33,33)" fill="none" stroke-linecap="round"></path><path d="M 252.000,362.000 C 252.236,366.016 251.908,366.179 253.000,370.000" stroke-width="14.234" stroke="rgb(33,33,33)" fill="none" stroke-linecap="round"></path><path d="M 253.000,370.000 C 253.908,373.179 254.101,373.287 256.000,376.000" stroke-width="14.290" stroke="rgb(33,33,33)" fill="none" stroke-linecap="round"></path><path d="M 256.000,376.000 C 257.601,378.287 257.695,378.463 260.000,380.000" stroke-width="14.462" stroke="rgb(33,33,33)" fill="none" stroke-linecap="round"></path><path d="M 260.000,380.000 C 262.195,381.463 262.391,381.565 265.000,382.000" stroke-width="14.595" stroke="rgb(33,33,33)" fill="none" stroke-linecap="round"></path><path d="M 265.000,382.000 C 268.391,382.565 268.647,382.718 272.000,382.000" stroke-width="14.544" stroke="rgb(33,33,33)" fill="none" stroke-linecap="round"></path><path d="M 272.000,382.000 C 275.647,381.218 276.038,381.222 279.000,379.000" stroke-width="14.429" stroke="rgb(33,33,33)" fill="none" stroke-linecap="round"></path><path d="M 279.000,379.000 C 282.038,376.722 281.376,375.887 284.000,373.000" stroke-width="14.257" stroke="rgb(33,33,33)" fill="none" stroke-linecap="round"></path><path d="M 284.000,373.000 C 286.376,370.387 286.856,370.757 289.000,368.000" stroke-width="14.312" stroke="rgb(33,33,33)" fill="none" stroke-linecap="round"></path><path d="M 289.000,368.000 C 290.356,366.257 289.893,365.938 291.000,364.000" stroke-width="14.552" stroke="rgb(33,33,33)" fill="none" stroke-linecap="round"></path><path d="M 291.000,364.000 C 291.893,362.438 293.000,361.280 293.000,361.000" stroke-width="14.964" stroke="rgb(33,33,33)" fill="none" stroke-linecap="round"></path><path d="M 293.000,361.000 C 293.000,360.780 291.838,361.883 291.000,363.000" stroke-width="15.683" stroke="rgb(33,33,33)" fill="none" stroke-linecap="round"></path><path d="M 291.000,363.000 C 290.338,363.883 290.345,363.964 290.000,365.000" stroke-width="16.081" stroke="rgb(33,33,33)" fill="none" stroke-linecap="round"></path><path d="M 290.000,365.000 C 289.845,365.464 289.750,365.750 290.000,366.000" stroke-width="16.600" stroke="rgb(33,33,33)" fill="none" stroke-linecap="round"></path><path d="M 290.000,366.000 C 290.250,366.250 290.500,366.000 291.000,366.000" stroke-width="17.050" stroke="rgb(33,33,33)" fill="none" stroke-linecap="round"></path><path d="M 291.000,366.000 C 294.000,366.000 294.021,366.248 297.000,366.000" stroke-width="16.588" stroke="rgb(33,33,33)" fill="none" stroke-linecap="round"></path><path d="M 297.000,366.000 C 300.021,365.748 299.990,365.430 303.000,365.000" stroke-width="16.224" stroke="rgb(33,33,33)" fill="none" stroke-linecap="round"></path><path d="M 303.000,365.000 C 306.990,364.430 306.987,364.287 311.000,364.000" stroke-width="15.585" stroke="rgb(33,33,33)" fill="none" stroke-linecap="round"></path><path d="M 311.000,364.000 C 313.987,363.787 314.000,364.000 317.000,364.000" stroke-width="15.458" stroke="rgb(33,33,33)" fill="none" stroke-linecap="round"></path><path d="M 317.000,364.000 C 320.500,364.000 320.500,364.000 324.000,364.000" stroke-width="15.274" stroke="rgb(33,33,33)" fill="none" stroke-linecap="round"></path><path d="M 324.000,364.000 C 326.500,364.000 326.500,364.000 329.000,364.000" stroke-width="15.256" stroke="rgb(33,33,33)" fill="none" stroke-linecap="round"></path><path d="M 329.000,364.000 C 331.500,364.000 331.500,364.000 334.000,364.000" stroke-width="15.371" stroke="rgb(33,33,33)" fill="none" stroke-linecap="round"></path><path d="M 334.000,364.000 C 336.500,364.000 336.500,364.000 339.000,364.000" stroke-width="15.334" stroke="rgb(33,33,33)" fill="none" stroke-linecap="round"></path><path d="M 339.000,364.000 C 340.500,364.000 340.500,364.000 342.000,364.000" stroke-width="15.676" stroke="rgb(33,33,33)" fill="none" stroke-linecap="round"></path><path d="M 342.000,364.000 C 343.000,364.000 343.000,364.000 344.000,364.000" stroke-width="16.111" stroke="rgb(33,33,33)" fill="none" stroke-linecap="round"></path><path d="M 344.000,364.000 C 345.000,364.000 345.000,364.000 346.000,364.000" stroke-width="16.476" stroke="rgb(33,33,33)" fill="none" stroke-linecap="round"></path><path d="M 346.000,364.000 C 347.000,364.000 347.000,364.000 348.000,364.000" stroke-width="16.780" stroke="rgb(33,33,33)" fill="none" stroke-linecap="round"></path><path d="M 348.000,364.000 C 349.500,364.000 349.500,364.000 351.000,364.000" stroke-width="16.834" stroke="rgb(33,33,33)" fill="none" stroke-linecap="round"></path><path d="M 351.000,364.000 C 352.500,364.000 352.526,364.211 354.000,364.000" stroke-width="16.908" stroke="rgb(33,33,33)" fill="none" stroke-linecap="round"></path><path d="M 354.000,364.000 C 356.026,363.711 356.019,363.566 358.000,363.000" stroke-width="16.782" stroke="rgb(33,33,33)" fill="none" stroke-linecap="round"></path><path d="M 358.000,363.000 C 359.519,362.566 359.455,362.221 361.000,362.000" stroke-width="16.807" stroke="rgb(33,33,33)" fill="none" stroke-linecap="round"></path><path d="M 361.000,362.000 C 362.955,361.721 363.000,362.000 365.000,362.000" stroke-width="16.682" stroke="rgb(33,33,33)" fill="none" stroke-linecap="round"></path><path d="M 365.000,362.000 C 367.000,362.000 367.000,362.000 369.000,362.000" stroke-width="16.624" stroke="rgb(33,33,33)" fill="none" stroke-linecap="round"></path><path d="M 369.000,362.000 C 370.000,362.000 370.000,362.000 371.000,362.000" stroke-width="16.903" stroke="rgb(33,33,33)" fill="none" stroke-linecap="round"></path><path d="M 371.000,362.000 C 373.000,362.000 373.030,361.754 375.000,362.000" stroke-width="16.798" stroke="rgb(33,33,33)" fill="none" stroke-linecap="round"></path><path d="M 375.000,362.000 C 377.030,362.254 377.049,362.350 379.000,363.000" stroke-width="16.695" stroke="rgb(33,33,33)" fill="none" stroke-linecap="round"></path><path d="M 379.000,363.000 C 381.549,363.850 381.500,364.000 384.000,365.000" stroke-width="16.303" stroke="rgb(33,33,33)" fill="none" stroke-linecap="round"></path><path d="M 384.000,365.000 C 386.500,366.000 386.480,366.055 389.000,367.000" stroke-width="16.109" stroke="rgb(33,33,33)" fill="none" stroke-linecap="round"></path><path d="M 389.000,367.000 C 390.480,367.555 390.469,367.694 392.000,368.000" stroke-width="16.293" stroke="rgb(33,33,33)" fill="none" stroke-linecap="round"></path></svg>