<svg xmlns="http://www.w3.org/2000/svg" xmlns:xlink="http://www.w3.org/1999/xlink" viewBox="0 0 360 500"><path d="M 84.000,388.000 C 82.924,383.602 83.105,383.547 81.849,379.204" stroke-width="20.046" stroke="rgb(33,33,33)" fill="none" stroke-linecap="round"></path><path d="M 81.849,379.204 C 81.098,376.606 80.797,376.699 79.986,374.118" stroke-width="18.744" stroke="rgb(33,33,33)" fill="none" stroke-linecap="round"></path><path d="M 79.986,374.118 C 79.015,371.026 79.162,370.980 78.286,367.857" stroke-width="17.503" stroke="rgb(33,33,33)" fill="none" stroke-linecap="round"></path><path d="M 78.286,367.857 C 77.267,364.223 76.936,364.295 76.196,360.604" stroke-width="16.805" stroke="rgb(33,33,33)" fill="none" stroke-linecap="round"></path><path d="M 76.196,360.604 C 75.209,355.680 75.516,355.616 74.831,350.628" stroke-width="15.205" stroke="rgb(33,33,33)" fill="none" stroke-linecap="round"></path><path d="M 74.831,350.628 C 74.053,344.966 73.740,344.993 73.270,339.304" stroke-width="13.054" stroke="rgb(33,33,33)" fill="none" stroke-linecap="round"></path><path d="M 73.270,339.304 C 72.714,332.581 73.169,332.546 72.779,325.804" stroke-width="12.791" stroke="rgb(33,33,33)" fill="none" stroke-linecap="round"></path><path d="M 72.779,325.804 C 71.868,310.059 71.955,310.047 70.667,294.330" stroke-width="12.753" stroke="rgb(33,33,33)" fill="none" stroke-linecap="round"></path><path d="M 70.667,294.330 C 69.911,285.100 69.172,285.147 68.691,275.910" stroke-width="13.287" stroke="rgb(33,33,33)" fill="none" stroke-linecap="round"></path><path d="M 68.691,275.910 C 68.172,265.960 68.405,265.923 68.667,255.956" stroke-width="10.558" stroke="rgb(33,33,33)" fill="none" stroke-linecap="round"></path><path d="M 68.667,255.956 C 68.814,250.348 69.302,250.364 69.510,244.761" stroke-width="10.849" stroke="rgb(33,33,33)" fill="none" stroke-linecap="round"></path><path d="M 69.510,244.761 C 69.635,241.407 69.376,241.403 69.333,238.043" stroke-width="11.503" stroke="rgb(33,33,33)" fill="none" stroke-linecap="round"></path><path d="M 69.333,238.043 C 69.287,234.445 69.333,234.445 69.333,230.846" stroke-width="11.961" stroke="rgb(33,33,33)" fill="none" stroke-linecap="round"></path><path d="M 69.333,230.846 C 69.333,228.561 69.333,228.561 69.333,226.276" stroke-width="12.876" stroke="rgb(33,33,33)" fill="none" stroke-linecap="round"></path><path d="M 69.333,226.276 C 69.333,224.069 69.333,224.069 69.333,221.862" stroke-width="13.637" stroke="rgb(33,33,33)" fill="none" stroke-linecap="round"></path><path d="M 69.333,221.862 C 69.333,221.371 69.333,221.371 69.333,220.881" stroke-width="14.524" stroke="rgb(33,33,33)" fill="none" stroke-linecap="round"></path><path d="M 69.333,220.881 C 69.333,220.038 69.228,219.435 69.333,219.195" stroke-width="15.297" stroke="rgb(33,33,33)" fill="none" stroke-linecap="round"></path><path d="M 69.333,219.195 C 69.395,219.055 69.556,219.642 69.667,220.122" stroke-width="16.003" stroke="rgb(33,33,33)" fill="none" stroke-linecap="round"></path><path d="M 69.667,220.122 C 70.858,225.284 70.687,225.328 71.937,230.478" stroke-width="15.360" stroke="rgb(33,33,33)" fill="none" stroke-linecap="round"></path><path d="M 71.937,230.478 C 72.948,234.642 72.854,234.686 74.188,238.750" stroke-width="14.870" stroke="rgb(33,33,33)" fill="none" stroke-linecap="round"></path><path d="M 74.188,238.750 C 74.986,241.180 75.221,241.097 76.200,243.466" stroke-width="15.299" stroke="rgb(33,33,33)" fill="none" stroke-linecap="round"></path><path d="M 76.200,243.466 C 79.048,250.358 79.144,250.323 81.842,257.273" stroke-width="14.117" stroke="rgb(33,33,33)" fill="none" stroke-linecap="round"></path><path d="M 81.842,257.273 C 83.064,260.422 82.637,260.598 84.040,263.663" stroke-width="14.557" stroke="rgb(33,33,33)" fill="none" stroke-linecap="round"></path><path d="M 84.040,263.663 C 87.014,270.159 87.082,270.164 90.597,276.395" stroke-width="14.607" stroke="rgb(33,33,33)" fill="none" stroke-linecap="round"></path><path d="M 90.597,276.395 C 93.468,281.485 93.648,281.386 96.812,286.305" stroke-width="14.697" stroke="rgb(33,33,33)" fill="none" stroke-linecap="round"></path><path d="M 96.812,286.305 C 99.397,290.323 99.338,290.370 102.094,294.268" stroke-width="14.868" stroke="rgb(33,33,33)" fill="none" stroke-linecap="round"></path><path d="M 102.094,294.268 C 103.568,296.353 103.406,296.560 105.271,298.271" stroke-width="15.373" stroke="rgb(33,33,33)" fill="none" stroke-linecap="round"></path><path d="M 105.271,298.271 C 107.732,300.529 107.702,300.904 110.747,302.207" stroke-width="15.728" stroke="rgb(33,33,33)" fill="none" stroke-linecap="round"></path><path d="M 110.747,302.207 C 114.831,303.955 115.088,303.644 119.529,304.372" stroke-width="15.694" stroke="rgb(33,33,33)" fill="none" stroke-linecap="round"></path><path d="M 119.529,304.372 C 122.316,304.829 122.629,305.450 125.202,304.577" stroke-width="16.072" stroke="rgb(33,33,33)" fill="none" stroke-linecap="round"></path><path d="M 125.202,304.577 C 129.112,303.250 129.629,303.046 132.496,299.972" stroke-width="15.977" stroke="rgb(33,33,33)" fill="none" stroke-linecap="round"></path><path d="M 132.496,299.972 C 136.194,296.008 135.997,295.515 138.332,290.502" stroke-width="15.932" stroke="rgb(33,33,33)" fill="none" stroke-linecap="round"></path><path d="M 138.332,290.502 C 141.117,284.522 141.045,284.379 142.736,277.985" stroke-width="15.716" stroke="rgb(33,33,33)" fill="none" stroke-linecap="round"></path><path d="M 142.736,277.985 C 144.482,271.381 143.828,271.215 145.207,264.505" stroke-width="15.350" stroke="rgb(33,33,33)" fill="none" stroke-linecap="round"></path><path d="M 145.207,264.505 C 146.297,259.202 146.697,259.277 147.673,253.958" stroke-width="15.508" stroke="rgb(33,33,33)" fill="none" stroke-linecap="round"></path><path d="M 147.673,253.958 C 148.445,249.751 148.324,249.717 148.702,245.453" stroke-width="15.619" stroke="rgb(33,33,33)" fill="none" stroke-linecap="round"></path><path d="M 148.702,245.453 C 148.987,242.238 148.908,242.228 149.000,239.000" stroke-width="15.850" stroke="rgb(33,33,33)" fill="none" stroke-linecap="round"></path><path d="M 149.000,239.000 C 149.057,237.001 149.184,236.981 149.000,235.000" stroke-width="16.282" stroke="rgb(33,33,33)" fill="none" stroke-linecap="round"></path><path d="M 149.000,235.000 C 148.851,233.391 148.651,233.413 148.333,231.821" stroke-width="16.663" stroke="rgb(33,33,33)" fill="none" stroke-linecap="round"></path><path d="M 148.333,231.821 C 148.151,230.913 148.202,230.901 148.000,230.000" stroke-width="17.129" stroke="rgb(33,33,33)" fill="none" stroke-linecap="round"></path><path d="M 148.000,230.000 C 147.923,229.657 147.979,229.538 147.774,229.333" stroke-width="17.618" stroke="rgb(33,33,33)" fill="none" stroke-linecap="round"></path><path d="M 147.774,229.333 C 147.646,229.205 147.364,229.131 147.333,229.333" stroke-width="18.041" stroke="rgb(33,33,33)" fill="none" stroke-linecap="round"></path><path d="M 147.333,229.333 C 146.975,231.645 147.110,231.845 146.995,234.362" stroke-width="17.972" stroke="rgb(33,33,33)" fill="none" stroke-linecap="round"></path><path d="M 146.995,234.362 C 146.804,238.537 146.592,238.553 146.722,242.718" stroke-width="12.208" stroke="rgb(33,33,33)" fill="none" stroke-linecap="round"></path><path d="M 146.722,242.718 C 146.805,245.392 147.120,245.374 147.422,248.040" stroke-width="12.763" stroke="rgb(33,33,33)" fill="none" stroke-linecap="round"></path><path d="M 147.422,248.040 C 147.759,251.015 147.827,251.013 148.000,254.000" stroke-width="13.215" stroke="rgb(33,33,33)" fill="none" stroke-linecap="round"></path><path d="M 148.000,254.000 C 148.183,257.156 147.567,257.227 148.133,260.326" stroke-width="13.765" stroke="rgb(33,33,33)" fill="none" stroke-linecap="round"></path><path d="M 148.133,260.326 C 149.820,269.572 150.036,269.611 152.506,278.690" stroke-width="14.189" stroke="rgb(33,33,33)" fill="none" stroke-linecap="round"></path><path d="M 152.506,278.690 C 152.904,280.151 153.228,280.030 153.869,281.405" stroke-width="14.741" stroke="rgb(33,33,33)" fill="none" stroke-linecap="round"></path><path d="M 153.869,281.405 C 154.141,281.988 154.046,282.034 154.333,282.607" stroke-width="15.450" stroke="rgb(33,33,33)" fill="none" stroke-linecap="round"></path><path d="M 154.333,282.607 C 154.589,283.119 154.651,283.087 154.955,283.576" stroke-width="16.123" stroke="rgb(33,33,33)" fill="none" stroke-linecap="round"></path><path d="M 154.955,283.576 C 155.797,284.930 155.967,284.847 156.626,286.293" stroke-width="16.571" stroke="rgb(33,33,33)" fill="none" stroke-linecap="round"></path><path d="M 156.626,286.293 C 158.022,289.356 157.971,289.399 159.065,292.593" stroke-width="16.634" stroke="rgb(33,33,33)" fill="none" stroke-linecap="round"></path><path d="M 159.065,292.593 C 160.555,296.944 160.545,296.956 161.794,301.383" stroke-width="16.872" stroke="rgb(33,33,33)" fill="none" stroke-linecap="round"></path><path d="M 161.794,301.383 C 162.590,304.203 162.641,304.203 163.155,307.086" stroke-width="15.497" stroke="rgb(33,33,33)" fill="none" stroke-linecap="round"></path><path d="M 163.155,307.086 C 163.860,311.041 163.773,311.064 164.232,315.059" stroke-width="14.971" stroke="rgb(33,33,33)" fill="none" stroke-linecap="round"></path><path d="M 164.232,315.059 C 164.482,317.241 164.332,317.258 164.573,319.440" stroke-width="15.182" stroke="rgb(33,33,33)" fill="none" stroke-linecap="round"></path><path d="M 164.573,319.440 C 164.716,320.729 164.753,320.726 165.000,322.000" stroke-width="15.661" stroke="rgb(33,33,33)" fill="none" stroke-linecap="round"></path><path d="M 165.000,322.000 C 165.281,323.449 165.388,323.431 165.629,324.886" stroke-width="15.897" stroke="rgb(33,33,33)" fill="none" stroke-linecap="round"></path><path d="M 165.629,324.886 C 165.880,326.400 165.786,326.415 165.985,327.938" stroke-width="16.104" stroke="rgb(33,33,33)" fill="none" stroke-linecap="round"></path><path d="M 165.985,327.938 C 166.144,329.156 166.121,329.161 166.345,330.369" stroke-width="16.522" stroke="rgb(33,33,33)" fill="none" stroke-linecap="round"></path><path d="M 166.345,330.369 C 166.962,333.695 166.967,333.695 167.667,337.005" stroke-width="16.885" stroke="rgb(33,33,33)" fill="none" stroke-linecap="round"></path><path d="M 167.667,337.005 C 168.003,338.594 167.965,338.609 168.417,340.167" stroke-width="17.050" stroke="rgb(33,33,33)" fill="none" stroke-linecap="round"></path><path d="M 168.417,340.167 C 168.703,341.153 168.685,341.178 169.142,342.093" stroke-width="17.168" stroke="rgb(33,33,33)" fill="none" stroke-linecap="round"></path><path d="M 169.142,342.093 C 169.551,342.911 169.697,342.832 170.149,343.632" stroke-width="17.498" stroke="rgb(33,33,33)" fill="none" stroke-linecap="round"></path><path d="M 170.149,343.632 C 171.165,345.427 171.172,345.429 172.078,347.283" stroke-width="17.737" stroke="rgb(33,33,33)" fill="none" stroke-linecap="round"></path><path d="M 172.078,347.283 C 172.852,348.867 172.812,348.887 173.508,350.508" stroke-width="17.343" stroke="rgb(33,33,33)" fill="none" stroke-linecap="round"></path><path d="M 173.508,350.508 C 173.738,351.044 173.724,351.051 173.930,351.597" stroke-width="17.597" stroke="rgb(33,33,33)" fill="none" stroke-linecap="round"></path><path d="M 173.930,351.597 C 174.113,352.082 174.091,352.091 174.286,352.571" stroke-width="17.937" stroke="rgb(33,33,33)" fill="none" stroke-linecap="round"></path><path d="M 174.286,352.571 C 174.433,352.932 174.514,352.909 174.613,353.280" stroke-width="18.221" stroke="rgb(33,33,33)" fill="none" stroke-linecap="round"></path><path d="M 174.613,353.280 C 174.704,353.621 174.551,353.662 174.667,353.996" stroke-width="18.538" stroke="rgb(33,33,33)" fill="none" stroke-linecap="round"></path><path d="M 174.667,353.996 C 174.911,354.697 175.079,354.654 175.333,355.349" stroke-width="18.663" stroke="rgb(33,33,33)" fill="none" stroke-linecap="round"></path><path d="M 175.333,355.349 C 175.412,355.565 175.399,355.937 175.333,355.818" stroke-width="18.633" stroke="rgb(33,33,33)" fill="none" stroke-linecap="round"></path><path d="M 175.333,355.818 C 175.102,355.400 175.123,355.002 174.739,354.275" stroke-width="18.778" stroke="rgb(33,33,33)" fill="none" stroke-linecap="round"></path><path d="M 174.739,354.275 C 174.195,353.244 174.126,353.276 173.476,352.302" stroke-width="18.663" stroke="rgb(33,33,33)" fill="none" stroke-linecap="round"></path><path d="M 173.476,352.302 C 172.732,351.186 172.717,351.196 171.952,350.094" stroke-width="18.132" stroke="rgb(33,33,33)" fill="none" stroke-linecap="round"></path><path d="M 171.952,350.094 C 171.150,348.939 171.074,348.986 170.341,347.788" stroke-width="17.976" stroke="rgb(33,33,33)" fill="none" stroke-linecap="round"></path><path d="M 170.341,347.788 C 169.512,346.433 169.592,346.384 168.828,344.989" stroke-width="17.817" stroke="rgb(33,33,33)" fill="none" stroke-linecap="round"></path><path d="M 168.828,344.989 C 168.147,343.745 168.116,343.761 167.450,342.509" stroke-width="17.874" stroke="rgb(33,33,33)" fill="none" stroke-linecap="round"></path><path d="M 167.450,342.509 C 166.741,341.177 166.727,341.183 166.077,339.821" stroke-width="17.818" stroke="rgb(33,33,33)" fill="none" stroke-linecap="round"></path><path d="M 166.077,339.821 C 165.178,337.937 165.193,337.929 164.352,336.018" stroke-width="18.050" stroke="rgb(33,33,33)" fill="none" stroke-linecap="round"></path><path d="M 164.352,336.018 C 163.971,335.152 163.935,335.163 163.634,334.268" stroke-width="18.037" stroke="rgb(33,33,33)" fill="none" stroke-linecap="round"></path><path d="M 163.634,334.268 C 163.259,333.154 163.452,332.996 163.000,332.000" stroke-width="18.141" stroke="rgb(33,33,33)" fill="none" stroke-linecap="round"></path><path d="M 163.000,332.000 C 162.911,331.805 162.661,332.056 162.553,331.886" stroke-width="18.481" stroke="rgb(33,33,33)" fill="none" stroke-linecap="round"></path><path d="M 162.553,331.886 C 162.327,331.530 162.391,331.423 162.333,330.948" stroke-width="18.705" stroke="rgb(33,33,33)" fill="none" stroke-linecap="round"></path><path d="M 162.333,330.948 C 162.281,330.529 162.333,330.523 162.333,330.098" stroke-width="18.909" stroke="rgb(33,33,33)" fill="none" stroke-linecap="round"></path><path d="M 162.333,330.098 C 162.333,329.742 162.244,329.709 162.333,329.385" stroke-width="18.845" stroke="rgb(33,33,33)" fill="none" stroke-linecap="round"></path><path d="M 162.333,329.385 C 162.389,329.182 162.442,329.172 162.622,329.044" stroke-width="18.932" stroke="rgb(33,33,33)" fill="none" stroke-linecap="round"></path><path d="M 162.622,329.044 C 163.103,328.703 163.132,328.735 163.655,328.448" stroke-width="18.897" stroke="rgb(33,33,33)" fill="none" stroke-linecap="round"></path><path d="M 163.655,328.448 C 165.399,327.489 165.418,327.523 167.156,326.552" stroke-width="18.292" stroke="rgb(33,33,33)" fill="none" stroke-linecap="round"></path><path d="M 167.156,326.552 C 170.310,324.788 170.395,324.918 173.439,322.978" stroke-width="16.920" stroke="rgb(33,33,33)" fill="none" stroke-linecap="round"></path><path d="M 173.439,322.978 C 176.560,320.989 176.489,320.872 179.486,318.693" stroke-width="16.270" stroke="rgb(33,33,33)" fill="none" stroke-linecap="round"></path><path d="M 179.486,318.693 C 182.502,316.500 182.530,316.532 185.466,314.234" stroke-width="16.026" stroke="rgb(33,33,33)" fill="none" stroke-linecap="round"></path><path d="M 185.466,314.234 C 188.529,311.837 188.375,311.639 191.484,309.304" stroke-width="15.801" stroke="rgb(33,33,33)" fill="none" stroke-linecap="round"></path><path d="M 191.484,309.304 C 198.644,303.927 198.897,304.249 206.005,298.811" stroke-width="15.539" stroke="rgb(33,33,33)" fill="none" stroke-linecap="round"></path><path d="M 206.005,298.811 C 208.796,296.676 208.705,296.552 211.281,294.158" stroke-width="13.288" stroke="rgb(33,33,33)" fill="none" stroke-linecap="round"></path><path d="M 211.281,294.158 C 214.702,290.979 214.711,290.982 218.000,287.666" stroke-width="13.464" stroke="rgb(33,33,33)" fill="none" stroke-linecap="round"></path><path d="M 218.000,287.666 C 221.107,284.534 221.244,284.643 224.072,281.262" stroke-width="13.810" stroke="rgb(33,33,33)" fill="none" stroke-linecap="round"></path><path d="M 224.072,281.262 C 229.888,274.308 229.890,274.284 235.289,266.995" stroke-width="14.072" stroke="rgb(33,33,33)" fill="none" stroke-linecap="round"></path><path d="M 235.289,266.995 C 240.646,259.764 240.501,259.650 245.584,252.222" stroke-width="12.955" stroke="rgb(33,33,33)" fill="none" stroke-linecap="round"></path><path d="M 245.584,252.222 C 246.158,251.384 246.035,251.300 246.602,250.463" stroke-width="13.793" stroke="rgb(33,33,33)" fill="none" stroke-linecap="round"></path><path d="M 246.602,250.463 C 246.881,250.051 247.094,250.177 247.277,249.723" stroke-width="14.673" stroke="rgb(33,33,33)" fill="none" stroke-linecap="round"></path><path d="M 247.277,249.723 C 247.793,248.446 248.765,247.706 248.000,247.000" stroke-width="15.200" stroke="rgb(33,33,33)" fill="none" stroke-linecap="round"></path><path d="M 248.000,247.000 C 246.560,245.671 245.480,245.805 242.867,245.653" stroke-width="15.533" stroke="rgb(33,33,33)" fill="none" stroke-linecap="round"></path><path d="M 242.867,245.653 C 239.059,245.432 238.865,245.254 235.158,246.253" stroke-width="15.599" stroke="rgb(33,33,33)" fill="none" stroke-linecap="round"></path><path d="M 235.158,246.253 C 225.948,248.734 225.968,249.109 217.032,252.613" stroke-width="15.019" stroke="rgb(33,33,33)" fill="none" stroke-linecap="round"></path><path d="M 217.032,252.613 C 208.198,256.078 207.926,255.635 199.618,260.191" stroke-width="14.742" stroke="rgb(33,33,33)" fill="none" stroke-linecap="round"></path><path d="M 199.618,260.191 C 183.476,269.043 183.437,269.188 168.132,279.428" stroke-width="14.301" stroke="rgb(33,33,33)" fill="none" stroke-linecap="round"></path><path d="M 168.132,279.428 C 161.064,284.157 161.062,284.335 154.871,290.129" stroke-width="13.207" stroke="rgb(33,33,33)" fill="none" stroke-linecap="round"></path><path d="M 154.871,290.129 C 151.393,293.384 151.791,293.795 148.794,297.526" stroke-width="13.096" stroke="rgb(33,33,33)" fill="none" stroke-linecap="round"></path><path d="M 148.794,297.526 C 147.048,299.699 146.774,299.544 145.385,301.938" stroke-width="13.565" stroke="rgb(33,33,33)" fill="none" stroke-linecap="round"></path><path d="M 145.385,301.938 C 143.677,304.882 143.988,305.068 142.599,308.202" stroke-width="13.630" stroke="rgb(33,33,33)" fill="none" stroke-linecap="round"></path><path d="M 142.599,308.202 C 141.428,310.844 141.114,310.744 140.266,313.489" stroke-width="13.817" stroke="rgb(33,33,33)" fill="none" stroke-linecap="round"></path><path d="M 140.266,313.489 C 139.261,316.743 139.482,316.827 138.893,320.200" stroke-width="14.412" stroke="rgb(33,33,33)" fill="none" stroke-linecap="round"></path><path d="M 138.893,320.200 C 137.967,325.505 137.586,325.483 137.235,330.845" stroke-width="14.710" stroke="rgb(33,33,33)" fill="none" stroke-linecap="round"></path><path d="M 137.235,330.845 C 136.687,339.221 136.166,339.419 137.096,347.675" stroke-width="14.287" stroke="rgb(33,33,33)" fill="none" stroke-linecap="round"></path><path d="M 137.096,347.675 C 137.626,352.382 137.853,352.647 140.155,356.771" stroke-width="14.700" stroke="rgb(33,33,33)" fill="none" stroke-linecap="round"></path><path d="M 140.155,356.771 C 142.643,361.230 142.921,361.303 146.676,364.842" stroke-width="14.836" stroke="rgb(33,33,33)" fill="none" stroke-linecap="round"></path><path d="M 146.676,364.842 C 152.996,370.797 152.901,371.259 160.305,375.759" stroke-width="13.887" stroke="rgb(33,33,33)" fill="none" stroke-linecap="round"></path><path d="M 160.305,375.759 C 168.373,380.663 168.854,379.999 177.619,383.651" stroke-width="13.007" stroke="rgb(33,33,33)" fill="none" stroke-linecap="round"></path><path d="M 177.619,383.651 C 180.108,384.688 180.161,384.644 182.813,385.137" stroke-width="13.724" stroke="rgb(33,33,33)" fill="none" stroke-linecap="round"></path><path d="M 182.813,385.137 C 191.851,386.818 191.868,387.386 201.000,388.000" stroke-width="13.541" stroke="rgb(33,33,33)" fill="none" stroke-linecap="round"></path><path d="M 201.000,388.000 C 207.323,388.425 207.700,388.873 213.724,387.216" stroke-width="13.884" stroke="rgb(33,33,33)" fill="none" stroke-linecap="round"></path><path d="M 213.724,387.216 C 220.213,385.431 220.412,384.950 226.027,381.117" stroke-width="13.913" stroke="rgb(33,33,33)" fill="none" stroke-linecap="round"></path><path d="M 226.027,381.117 C 231.537,377.356 231.638,377.099 235.973,372.027" stroke-width="13.925" stroke="rgb(33,33,33)" fill="none" stroke-linecap="round"></path><path d="M 235.973,372.027 C 239.367,368.056 239.244,367.761 241.484,363.032" stroke-width="14.313" stroke="rgb(33,33,33)" fill="none" stroke-linecap="round"></path><path d="M 241.484,363.032 C 243.091,359.638 242.949,359.462 243.667,355.782" stroke-width="14.713" stroke="rgb(33,33,33)" fill="none" stroke-linecap="round"></path><path d="M 243.667,355.782 C 244.040,353.868 243.816,353.803 243.667,351.844" stroke-width="15.332" stroke="rgb(33,33,33)" fill="none" stroke-linecap="round"></path><path d="M 243.667,351.844 C 243.482,349.412 243.452,349.363 243.000,347.000" stroke-width="15.732" stroke="rgb(33,33,33)" fill="none" stroke-linecap="round"></path><path d="M 243.000,347.000 C 242.958,346.780 242.758,346.885 242.678,346.678" stroke-width="16.429" stroke="rgb(33,33,33)" fill="none" stroke-linecap="round"></path><path d="M 242.678,346.678 C 242.424,346.020 242.464,345.983 242.333,345.271" stroke-width="16.972" stroke="rgb(33,33,33)" fill="none" stroke-linecap="round"></path><path d="M 242.333,345.271 C 242.125,344.144 242.289,344.031 242.000,343.000" stroke-width="17.367" stroke="rgb(33,33,33)" fill="none" stroke-linecap="round"></path><path d="M 242.000,343.000 C 241.956,342.843 241.716,343.033 241.667,342.894" stroke-width="17.720" stroke="rgb(33,33,33)" fill="none" stroke-linecap="round"></path><path d="M 241.667,342.894 C 241.550,342.564 241.501,342.380 241.667,342.062" stroke-width="17.982" stroke="rgb(33,33,33)" fill="none" stroke-linecap="round"></path><path d="M 241.667,342.062 C 241.807,341.794 241.971,341.887 242.279,341.721" stroke-width="18.258" stroke="rgb(33,33,33)" fill="none" stroke-linecap="round"></path><path d="M 242.279,341.721 C 242.625,341.535 242.728,341.605 242.975,341.358" stroke-width="18.503" stroke="rgb(33,33,33)" fill="none" stroke-linecap="round"></path><path d="M 242.975,341.358 C 243.088,341.245 242.848,341.068 243.000,341.000" stroke-width="18.758" stroke="rgb(33,33,33)" fill="none" stroke-linecap="round"></path><path d="M 243.000,341.000 C 244.107,340.502 244.256,340.640 245.494,340.226" stroke-width="17.598" stroke="rgb(33,33,33)" fill="none" stroke-linecap="round"></path><path d="M 245.494,340.226 C 246.262,339.969 246.238,339.894 247.011,339.659" stroke-width="17.769" stroke="rgb(33,33,33)" fill="none" stroke-linecap="round"></path><path d="M 247.011,339.659 C 247.706,339.448 247.814,339.651 248.430,339.333" stroke-width="17.939" stroke="rgb(33,33,33)" fill="none" stroke-linecap="round"></path><path d="M 248.430,339.333 C 248.845,339.119 248.672,338.834 249.073,338.594" stroke-width="18.211" stroke="rgb(33,33,33)" fill="none" stroke-linecap="round"></path><path d="M 249.073,338.594 C 249.508,338.334 249.754,338.557 250.103,338.333" stroke-width="18.347" stroke="rgb(33,33,33)" fill="none" stroke-linecap="round"></path><path d="M 250.103,338.333 C 250.217,338.260 249.865,338.055 250.000,338.000" stroke-width="18.652" stroke="rgb(33,33,33)" fill="none" stroke-linecap="round"></path><path d="M 250.000,338.000 C 250.683,337.722 250.904,337.929 251.739,337.667" stroke-width="18.813" stroke="rgb(33,33,33)" fill="none" stroke-linecap="round"></path><path d="M 251.739,337.667 C 252.237,337.511 252.201,337.411 252.667,337.164" stroke-width="18.834" stroke="rgb(33,33,33)" fill="none" stroke-linecap="round"></path><path d="M 252.667,337.164 C 252.831,337.077 252.955,337.158 253.000,337.000" stroke-width="19.006" stroke="rgb(33,33,33)" fill="none" stroke-linecap="round"></path><path d="M 253.000,337.000 C 253.121,336.576 253.000,336.500 253.000,336.000" stroke-width="19.070" stroke="rgb(33,33,33)" fill="none" stroke-linecap="round"></path><path d="M 253.000,336.000 C 253.000,336.000 253.000,336.000 253.000,336.000" stroke-width="19.295" stroke="rgb(33,33,33)" fill="none" stroke-linecap="round"></path><path d="M 253.000,336.000 C 252.701,336.333 252.801,336.559 252.401,336.667" stroke-width="19.257" stroke="rgb(33,33,33)" fill="none" stroke-linecap="round"></path><path d="M 252.401,336.667 C 251.566,336.892 251.425,336.438 250.530,336.667" stroke-width="19.104" stroke="rgb(33,33,33)" fill="none" stroke-linecap="round"></path><path d="M 250.530,336.667 C 248.276,337.245 248.292,337.410 246.104,338.281" stroke-width="17.124" stroke="rgb(33,33,33)" fill="none" stroke-linecap="round"></path><path d="M 246.104,338.281 C 243.668,339.251 243.752,339.491 241.282,340.350" stroke-width="15.625" stroke="rgb(33,33,33)" fill="none" stroke-linecap="round"></path><path d="M 241.282,340.350 C 239.399,341.004 239.325,340.774 237.399,341.307" stroke-width="15.773" stroke="rgb(33,33,33)" fill="none" stroke-linecap="round"></path><path d="M 237.399,341.307 C 235.552,341.818 235.602,342.044 233.736,342.439" stroke-width="16.066" stroke="rgb(33,33,33)" fill="none" stroke-linecap="round"></path></svg>