<svg xmlns="http://www.w3.org/2000/svg" xmlns:xlink="http://www.w3.org/1999/xlink" viewBox="0 0 414 500"><path d="M 125.000,244.188 C 130.500,237.688 131.754,238.467 136.000,231.188" stroke-width="17.982" stroke="rgb(33,33,33)" fill="none" stroke-linecap="round"></path><path d="M 136.000,231.188 C 142.254,220.467 141.719,219.960 146.000,208.188" stroke-width="13.877" stroke="rgb(33,33,33)" fill="none" stroke-linecap="round"></path><path d="M 146.000,208.188 C 153.719,186.960 153.215,186.755 160.000,165.188" stroke-width="10.661" stroke="rgb(33,33,33)" fill="none" stroke-linecap="round"></path><path d="M 160.000,165.188 C 167.215,142.255 167.092,142.215 174.000,119.188" stroke-width="8.234" stroke="rgb(33,33,33)" fill="none" stroke-linecap="round"></path><path d="M 174.000,119.188 C 180.592,97.215 181.307,97.389 187.000,75.188" stroke-width="7.891" stroke="rgb(33,33,33)" fill="none" stroke-linecap="round"></path><path d="M 187.000,75.188 C 191.307,58.389 190.408,58.168 194.000,41.188" stroke-width="7.021" stroke="rgb(33,33,33)" fill="none" stroke-linecap="round"></path><path d="M 194.000,41.188 C 195.908,32.168 196.491,32.241 198.000,23.188" stroke-width="7.255" stroke="rgb(33,33,33)" fill="none" stroke-linecap="round"></path><path d="M 198.000,23.188 C 198.491,20.241 198.789,16.240 198.000,17.188" stroke-width="8.059" stroke="rgb(33,33,33)" fill="none" stroke-linecap="round"></path><path d="M 198.000,17.188 C 196.289,19.240 195.300,23.110 193.000,29.188" stroke-width="8.846" stroke="rgb(33,33,33)" fill="none" stroke-linecap="round"></path><path d="M 193.000,29.188 C 188.300,41.610 187.103,41.334 184.000,54.188" stroke-width="8.640" stroke="rgb(33,33,33)" fill="none" stroke-linecap="round"></path><path d="M 184.000,54.188 C 180.103,70.334 180.405,70.605 179.000,87.188" stroke-width="8.206" stroke="rgb(33,33,33)" fill="none" stroke-linecap="round"></path><path d="M 179.000,87.188 C 177.905,100.105 179.000,100.188 179.000,113.188" stroke-width="8.103" stroke="rgb(33,33,33)" fill="none" stroke-linecap="round"></path><path d="M 179.000,113.188 C 179.000,122.688 178.119,122.788 179.000,132.188" stroke-width="8.358" stroke="rgb(33,33,33)" fill="none" stroke-linecap="round"></path><path d="M 179.000,132.188 C 179.619,138.788 180.753,138.643 182.000,145.188" stroke-width="8.822" stroke="rgb(33,33,33)" fill="none" stroke-linecap="round"></path><path d="M 182.000,145.188 C 182.753,149.143 182.430,149.198 183.000,153.188" stroke-width="9.476" stroke="rgb(33,33,33)" fill="none" stroke-linecap="round"></path><path d="M 183.000,153.188 C 183.430,156.198 183.456,156.196 184.000,159.188" stroke-width="10.221" stroke="rgb(33,33,33)" fill="none" stroke-linecap="round"></path><path d="M 184.000,159.188 C 184.456,161.696 184.720,161.666 185.000,164.188" stroke-width="10.976" stroke="rgb(33,33,33)" fill="none" stroke-linecap="round"></path><path d="M 185.000,164.188 C 185.220,166.166 185.000,166.188 185.000,168.188" stroke-width="11.753" stroke="rgb(33,33,33)" fill="none" stroke-linecap="round"></path><path d="M 185.000,168.188 C 185.000,168.688 185.000,168.688 185.000,169.188" stroke-width="12.729" stroke="rgb(33,33,33)" fill="none" stroke-linecap="round"></path><path d="M 185.000,169.188 C 185.000,169.688 185.000,169.688 185.000,170.188" stroke-width="13.641" stroke="rgb(33,33,33)" fill="none" stroke-linecap="round"></path><path d="M 185.000,170.188 C 185.000,170.688 185.375,171.063 185.000,171.188" stroke-width="14.463" stroke="rgb(33,33,33)" fill="none" stroke-linecap="round"></path><path d="M 219.000,109.188 C 221.500,108.688 222.055,107.053 224.000,108.188" stroke-width="19.770" stroke="rgb(33,33,33)" fill="none" stroke-linecap="round"></path><path d="M 224.000,108.188 C 228.055,110.553 228.290,111.671 231.000,116.188" stroke-width="18.144" stroke="rgb(33,33,33)" fill="none" stroke-linecap="round"></path><path d="M 231.000,116.188 C 235.790,124.171 236.605,124.207 239.000,133.188" stroke-width="14.403" stroke="rgb(33,33,33)" fill="none" stroke-linecap="round"></path><path d="M 239.000,133.188 C 242.605,146.707 242.092,147.110 243.000,161.188" stroke-width="12.355" stroke="rgb(33,33,33)" fill="none" stroke-linecap="round"></path><path d="M 243.000,161.188 C 244.092,178.110 243.000,178.188 243.000,195.188" stroke-width="10.834" stroke="rgb(33,33,33)" fill="none" stroke-linecap="round"></path><path d="M 243.000,195.188 C 243.000,211.688 244.510,211.828 243.000,228.188" stroke-width="9.019" stroke="rgb(33,33,33)" fill="none" stroke-linecap="round"></path><path d="M 243.000,228.188 C 241.510,244.328 240.307,244.253 237.000,260.188" stroke-width="8.426" stroke="rgb(33,33,33)" fill="none" stroke-linecap="round"></path><path d="M 75.000,237.188 C 77.000,236.188 76.952,236.083 79.000,235.188" stroke-width="19.623" stroke="rgb(33,33,33)" fill="none" stroke-linecap="round"></path><path d="M 79.000,235.188 C 84.952,232.583 85.242,233.187 91.000,230.188" stroke-width="17.524" stroke="rgb(33,33,33)" fill="none" stroke-linecap="round"></path><path d="M 91.000,230.188 C 109.242,220.687 109.111,220.383 127.000,210.188" stroke-width="11.823" stroke="rgb(33,33,33)" fill="none" stroke-linecap="round"></path><path d="M 127.000,210.188 C 155.611,193.883 155.299,193.332 184.000,177.188" stroke-width="8.635" stroke="rgb(33,33,33)" fill="none" stroke-linecap="round"></path><path d="M 184.000,177.188 C 219.299,157.332 219.035,156.790 255.000,138.188" stroke-width="6.750" stroke="rgb(33,33,33)" fill="none" stroke-linecap="round"></path></svg>