<svg xmlns="http://www.w3.org/2000/svg" xmlns:xlink="http://www.w3.org/1999/xlink" viewBox="0 0 360 500"><path d="M 167.000,99.000 C 169.085,116.348 168.828,116.384 171.170,133.696" stroke-width="18.435" stroke="rgb(33,33,33)" fill="none" stroke-linecap="round"></path><path d="M 171.170,133.696 C 172.661,144.717 173.017,144.667 174.667,155.667" stroke-width="15.272" stroke="rgb(33,33,33)" fill="none" stroke-linecap="round"></path><path d="M 174.667,155.667 C 176.087,165.133 176.072,165.137 177.311,174.629" stroke-width="13.743" stroke="rgb(33,33,33)" fill="none" stroke-linecap="round"></path><path d="M 177.311,174.629 C 178.094,180.623 177.943,180.643 178.711,186.639" stroke-width="13.383" stroke="rgb(33,33,33)" fill="none" stroke-linecap="round"></path><path d="M 178.711,186.639 C 179.208,190.518 179.346,190.501 179.841,194.380" stroke-width="13.876" stroke="rgb(33,33,33)" fill="none" stroke-linecap="round"></path><path d="M 179.841,194.380 C 180.157,196.854 180.107,197.260 180.333,199.346" stroke-width="13.959" stroke="rgb(33,33,33)" fill="none" stroke-linecap="round"></path><path d="M 180.333,199.346 C 180.353,199.527 180.382,199.124 180.333,198.914" stroke-width="14.831" stroke="rgb(33,33,33)" fill="none" stroke-linecap="round"></path><path d="M 180.333,198.914 C 179.696,196.204 179.694,196.198 178.960,193.507" stroke-width="14.989" stroke="rgb(33,33,33)" fill="none" stroke-linecap="round"></path><path d="M 178.960,193.507 C 176.392,184.091 176.591,184.027 173.729,174.701" stroke-width="14.092" stroke="rgb(33,33,33)" fill="none" stroke-linecap="round"></path><path d="M 173.729,174.701 C 171.595,167.745 171.469,167.777 168.968,160.943" stroke-width="12.103" stroke="rgb(33,33,33)" fill="none" stroke-linecap="round"></path><path d="M 168.968,160.943 C 167.068,155.751 166.975,155.785 164.926,150.649" stroke-width="11.937" stroke="rgb(33,33,33)" fill="none" stroke-linecap="round"></path><path d="M 164.926,150.649 C 163.479,147.023 163.532,146.998 161.976,143.419" stroke-width="12.237" stroke="rgb(33,33,33)" fill="none" stroke-linecap="round"></path><path d="M 161.976,143.419 C 161.093,141.388 160.969,141.443 160.048,139.430" stroke-width="12.823" stroke="rgb(33,33,33)" fill="none" stroke-linecap="round"></path><path d="M 160.048,139.430 C 159.611,138.474 159.781,138.363 159.259,137.481" stroke-width="13.608" stroke="rgb(33,33,33)" fill="none" stroke-linecap="round"></path><path d="M 159.259,137.481 C 159.021,137.079 158.886,137.180 158.529,136.862" stroke-width="14.446" stroke="rgb(33,33,33)" fill="none" stroke-linecap="round"></path><path d="M 158.529,136.862 C 158.364,136.715 158.167,136.501 158.216,136.550" stroke-width="15.265" stroke="rgb(33,33,33)" fill="none" stroke-linecap="round"></path><path d="M 158.216,136.550 C 158.310,136.644 158.471,136.902 158.814,137.148" stroke-width="15.913" stroke="rgb(33,33,33)" fill="none" stroke-linecap="round"></path><path d="M 158.814,137.148 C 163.582,140.572 163.414,140.872 168.439,143.890" stroke-width="14.930" stroke="rgb(33,33,33)" fill="none" stroke-linecap="round"></path><path d="M 168.439,143.890 C 173.725,147.064 173.684,147.393 179.436,149.532" stroke-width="13.967" stroke="rgb(33,33,33)" fill="none" stroke-linecap="round"></path><path d="M 179.436,149.532 C 185.229,151.686 185.397,151.760 191.529,152.477" stroke-width="13.583" stroke="rgb(33,33,33)" fill="none" stroke-linecap="round"></path><path d="M 191.529,152.477 C 197.339,153.156 197.473,152.873 203.321,152.323" stroke-width="13.223" stroke="rgb(33,33,33)" fill="none" stroke-linecap="round"></path><path d="M 203.321,152.323 C 208.343,151.850 208.343,151.576 213.270,150.431" stroke-width="13.169" stroke="rgb(33,33,33)" fill="none" stroke-linecap="round"></path><path d="M 213.270,150.431 C 217.157,149.528 217.111,149.332 220.949,148.226" stroke-width="13.113" stroke="rgb(33,33,33)" fill="none" stroke-linecap="round"></path><path d="M 220.949,148.226 C 223.509,147.488 223.583,147.650 226.067,146.743" stroke-width="13.626" stroke="rgb(33,33,33)" fill="none" stroke-linecap="round"></path><path d="M 226.067,146.743 C 226.858,146.454 226.762,146.213 227.500,145.833" stroke-width="14.346" stroke="rgb(33,33,33)" fill="none" stroke-linecap="round"></path><path d="M 227.500,145.833 C 227.645,145.758 227.937,145.714 227.833,145.833" stroke-width="15.180" stroke="rgb(33,33,33)" fill="none" stroke-linecap="round"></path><path d="M 227.833,145.833 C 224.540,149.583 224.639,150.101 220.706,153.570" stroke-width="15.215" stroke="rgb(33,33,33)" fill="none" stroke-linecap="round"></path><path d="M 220.706,153.570 C 213.434,159.984 213.151,159.698 205.422,165.599" stroke-width="13.558" stroke="rgb(33,33,33)" fill="none" stroke-linecap="round"></path><path d="M 205.422,165.599 C 195.742,172.990 195.469,172.638 185.889,180.155" stroke-width="11.916" stroke="rgb(33,33,33)" fill="none" stroke-linecap="round"></path><path d="M 185.889,180.155 C 173.358,189.988 173.343,189.990 161.200,200.299" stroke-width="10.782" stroke="rgb(33,33,33)" fill="none" stroke-linecap="round"></path><path d="M 161.200,200.299 C 149.597,210.149 149.599,210.170 138.398,220.474" stroke-width="10.731" stroke="rgb(33,33,33)" fill="none" stroke-linecap="round"></path><path d="M 138.398,220.474 C 127.749,230.270 126.629,229.398 117.500,240.500" stroke-width="7.062" stroke="rgb(33,33,33)" fill="none" stroke-linecap="round"></path></svg>