<svg xmlns="http://www.w3.org/2000/svg" xmlns:xlink="http://www.w3.org/1999/xlink" viewBox="0 0 320 500"><path d="M 38.000,243.000 C 38.000,233.500 38.000,233.500 38.000,224.000" stroke-width="17.017" stroke="rgb(33,33,33)" fill="none" stroke-linecap="round"></path><path d="M 38.000,224.000 C 38.000,217.000 38.000,217.000 38.000,210.000" stroke-width="14.617" stroke="rgb(33,33,33)" fill="none" stroke-linecap="round"></path><path d="M 38.000,210.000 C 38.000,199.000 38.000,199.000 38.000,188.000" stroke-width="11.854" stroke="rgb(33,33,33)" fill="none" stroke-linecap="round"></path><path d="M 38.000,188.000 C 38.000,175.000 38.255,174.995 38.000,162.000" stroke-width="11.086" stroke="rgb(33,33,33)" fill="none" stroke-linecap="round"></path><path d="M 38.000,162.000 C 37.755,149.495 37.305,149.504 37.000,137.000" stroke-width="10.031" stroke="rgb(33,33,33)" fill="none" stroke-linecap="round"></path><path d="M 37.000,137.000 C 36.805,129.004 37.319,128.982 37.000,121.000" stroke-width="10.162" stroke="rgb(33,33,33)" fill="none" stroke-linecap="round"></path><path d="M 37.000,121.000 C 36.819,116.482 36.322,116.510 36.000,112.000" stroke-width="10.575" stroke="rgb(33,33,33)" fill="none" stroke-linecap="round"></path><path d="M 36.000,112.000 C 35.822,109.510 36.000,109.500 36.000,107.000" stroke-width="11.109" stroke="rgb(33,33,33)" fill="none" stroke-linecap="round"></path><path d="M 36.000,107.000 C 36.000,105.500 36.000,103.318 36.000,104.000" stroke-width="11.941" stroke="rgb(33,33,33)" fill="none" stroke-linecap="round"></path><path d="M 36.000,104.000 C 36.000,105.818 36.000,108.000 36.000,112.000" stroke-width="12.747" stroke="rgb(33,33,33)" fill="none" stroke-linecap="round"></path><path d="M 36.000,112.000 C 36.000,119.000 36.000,119.000 36.000,126.000" stroke-width="12.303" stroke="rgb(33,33,33)" fill="none" stroke-linecap="round"></path><path d="M 36.000,126.000 C 36.000,135.000 36.000,135.000 36.000,144.000" stroke-width="11.868" stroke="rgb(33,33,33)" fill="none" stroke-linecap="round"></path><path d="M 36.000,144.000 C 36.000,156.000 35.750,156.005 36.000,168.000" stroke-width="10.743" stroke="rgb(33,33,33)" fill="none" stroke-linecap="round"></path><path d="M 36.000,168.000 C 36.250,180.005 36.721,179.995 37.000,192.000" stroke-width="10.254" stroke="rgb(33,33,33)" fill="none" stroke-linecap="round"></path><path d="M 37.000,192.000 C 37.221,201.495 36.757,201.506 37.000,211.000" stroke-width="10.038" stroke="rgb(33,33,33)" fill="none" stroke-linecap="round"></path><path d="M 37.000,211.000 C 37.257,221.006 37.737,220.994 38.000,231.000" stroke-width="9.880" stroke="rgb(33,33,33)" fill="none" stroke-linecap="round"></path><path d="M 38.000,231.000 C 38.237,239.994 38.000,240.000 38.000,249.000" stroke-width="9.871" stroke="rgb(33,33,33)" fill="none" stroke-linecap="round"></path><path d="M 38.000,249.000 C 38.000,256.000 38.000,256.000 38.000,263.000" stroke-width="10.044" stroke="rgb(33,33,33)" fill="none" stroke-linecap="round"></path><path d="M 38.000,263.000 C 38.000,269.500 38.000,269.500 38.000,276.000" stroke-width="10.301" stroke="rgb(33,33,33)" fill="none" stroke-linecap="round"></path><path d="M 38.000,276.000 C 38.000,280.000 38.000,280.000 38.000,284.000" stroke-width="10.814" stroke="rgb(33,33,33)" fill="none" stroke-linecap="round"></path><path d="M 38.000,284.000 C 38.000,286.500 38.000,286.500 38.000,289.000" stroke-width="11.526" stroke="rgb(33,33,33)" fill="none" stroke-linecap="round"></path><path d="M 38.000,289.000 C 38.000,290.000 37.667,290.333 38.000,291.000" stroke-width="12.419" stroke="rgb(33,33,33)" fill="none" stroke-linecap="round"></path><path d="M 38.000,291.000 C 38.167,291.333 38.726,291.365 39.000,291.000" stroke-width="13.361" stroke="rgb(33,33,33)" fill="none" stroke-linecap="round"></path><path d="M 39.000,291.000 C 40.226,289.365 40.465,289.141 41.000,287.000" stroke-width="13.850" stroke="rgb(33,33,33)" fill="none" stroke-linecap="round"></path><path d="M 41.000,287.000 C 41.965,283.141 41.789,283.018 42.000,279.000" stroke-width="13.708" stroke="rgb(33,33,33)" fill="none" stroke-linecap="round"></path><path d="M 42.000,279.000 C 42.289,273.518 43.191,273.242 42.000,268.000" stroke-width="13.400" stroke="rgb(33,33,33)" fill="none" stroke-linecap="round"></path><path d="M 42.000,268.000 C 40.691,262.242 40.954,261.187 37.000,257.000" stroke-width="12.981" stroke="rgb(33,33,33)" fill="none" stroke-linecap="round"></path><path d="M 37.000,257.000 C 32.454,252.187 31.280,252.855 25.000,250.000" stroke-width="12.567" stroke="rgb(33,33,33)" fill="none" stroke-linecap="round"></path><path d="M 25.000,250.000 C 20.280,247.855 20.055,248.264 15.000,247.000" stroke-width="12.616" stroke="rgb(33,33,33)" fill="none" stroke-linecap="round"></path><path d="M 15.000,247.000 C 12.055,246.264 11.980,246.596 9.000,246.000" stroke-width="12.980" stroke="rgb(33,33,33)" fill="none" stroke-linecap="round"></path><path d="M 9.000,246.000 C 6.980,245.596 7.020,245.337 5.000,245.000" stroke-width="13.530" stroke="rgb(33,33,33)" fill="none" stroke-linecap="round"></path><path d="M 5.000,245.000 C 4.020,244.837 3.828,244.586 3.000,245.000" stroke-width="14.221" stroke="rgb(33,33,33)" fill="none" stroke-linecap="round"></path><path d="M 3.000,245.000 C 1.828,245.586 0.437,246.155 1.000,247.000" stroke-width="14.755" stroke="rgb(33,33,33)" fill="none" stroke-linecap="round"></path><path d="M 1.000,247.000 C 2.437,249.155 3.544,250.309 7.000,251.000" stroke-width="14.644" stroke="rgb(33,33,33)" fill="none" stroke-linecap="round"></path><path d="M 7.000,251.000 C 18.544,253.309 19.017,253.393 31.000,253.000" stroke-width="12.739" stroke="rgb(33,33,33)" fill="none" stroke-linecap="round"></path><path d="M 31.000,253.000 C 49.517,252.393 49.714,252.241 68.000,249.000" stroke-width="10.455" stroke="rgb(33,33,33)" fill="none" stroke-linecap="round"></path><path d="M 68.000,249.000 C 89.214,245.241 88.990,243.957 110.000,239.000" stroke-width="8.970" stroke="rgb(33,33,33)" fill="none" stroke-linecap="round"></path><path d="M 110.000,239.000 C 133.490,233.457 133.310,232.459 157.000,228.000" stroke-width="8.055" stroke="rgb(33,33,33)" fill="none" stroke-linecap="round"></path><path d="M 34.000,302.000 C 39.500,304.000 39.406,305.441 45.000,306.000" stroke-width="17.799" stroke="rgb(33,33,33)" fill="none" stroke-linecap="round"></path><path d="M 45.000,306.000 C 49.406,306.441 50.136,306.283 54.000,304.000" stroke-width="16.023" stroke="rgb(33,33,33)" fill="none" stroke-linecap="round"></path><path d="M 54.000,304.000 C 61.136,299.783 61.190,299.116 67.000,293.000" stroke-width="14.081" stroke="rgb(33,33,33)" fill="none" stroke-linecap="round"></path><path d="M 67.000,293.000 C 70.690,289.116 71.275,288.886 73.000,284.000" stroke-width="13.703" stroke="rgb(33,33,33)" fill="none" stroke-linecap="round"></path><path d="M 73.000,284.000 C 74.275,280.386 74.564,279.352 73.000,276.000" stroke-width="13.765" stroke="rgb(33,33,33)" fill="none" stroke-linecap="round"></path><path d="M 73.000,276.000 C 71.064,271.852 70.322,270.964 66.000,269.000" stroke-width="13.421" stroke="rgb(33,33,33)" fill="none" stroke-linecap="round"></path><path d="M 66.000,269.000 C 59.322,265.964 58.578,266.710 51.000,266.000" stroke-width="12.759" stroke="rgb(33,33,33)" fill="none" stroke-linecap="round"></path><path d="M 51.000,266.000 C 42.578,265.210 42.484,265.686 34.000,266.000" stroke-width="12.038" stroke="rgb(33,33,33)" fill="none" stroke-linecap="round"></path><path d="M 34.000,266.000 C 28.984,266.186 28.976,266.337 24.000,267.000" stroke-width="12.170" stroke="rgb(33,33,33)" fill="none" stroke-linecap="round"></path><path d="M 24.000,267.000 C 21.476,267.337 21.090,267.164 19.000,268.000" stroke-width="12.727" stroke="rgb(33,33,33)" fill="none" stroke-linecap="round"></path><path d="M 19.000,268.000 C 18.590,268.164 18.556,268.944 19.000,269.000" stroke-width="13.633" stroke="rgb(33,33,33)" fill="none" stroke-linecap="round"></path><path d="M 19.000,269.000 C 22.556,269.444 23.644,270.678 27.000,269.000" stroke-width="13.660" stroke="rgb(33,33,33)" fill="none" stroke-linecap="round"></path><path d="M 27.000,269.000 C 32.644,266.178 33.124,265.329 37.000,260.000" stroke-width="13.030" stroke="rgb(33,33,33)" fill="none" stroke-linecap="round"></path><path d="M 37.000,260.000 C 41.124,254.329 40.754,253.738 43.000,247.000" stroke-width="12.564" stroke="rgb(33,33,33)" fill="none" stroke-linecap="round"></path><path d="M 43.000,247.000 C 44.754,241.738 44.385,241.535 45.000,236.000" stroke-width="12.430" stroke="rgb(33,33,33)" fill="none" stroke-linecap="round"></path><path d="M 45.000,236.000 C 45.385,232.535 45.000,232.500 45.000,229.000" stroke-width="12.771" stroke="rgb(33,33,33)" fill="none" stroke-linecap="round"></path><path d="M 45.000,229.000 C 45.000,227.000 45.000,227.000 45.000,225.000" stroke-width="13.361" stroke="rgb(33,33,33)" fill="none" stroke-linecap="round"></path><path d="M 45.000,225.000 C 45.000,223.500 44.642,221.642 45.000,222.000" stroke-width="13.987" stroke="rgb(33,33,33)" fill="none" stroke-linecap="round"></path><path d="M 45.000,222.000 C 45.642,222.642 45.172,225.172 47.000,227.000" stroke-width="14.559" stroke="rgb(33,33,33)" fill="none" stroke-linecap="round"></path><path d="M 47.000,227.000 C 50.672,230.672 51.389,230.182 56.000,233.000" stroke-width="14.063" stroke="rgb(33,33,33)" fill="none" stroke-linecap="round"></path><path d="M 56.000,233.000 C 60.389,235.682 60.459,235.578 65.000,238.000" stroke-width="13.676" stroke="rgb(33,33,33)" fill="none" stroke-linecap="round"></path><path d="M 65.000,238.000 C 67.959,239.578 68.422,238.995 71.000,241.000" stroke-width="13.837" stroke="rgb(33,33,33)" fill="none" stroke-linecap="round"></path><path d="M 71.000,241.000 C 72.922,242.495 72.811,242.820 74.000,245.000" stroke-width="14.165" stroke="rgb(33,33,33)" fill="none" stroke-linecap="round"></path><path d="M 74.000,245.000 C 75.811,248.320 75.802,248.406 77.000,252.000" stroke-width="14.129" stroke="rgb(33,33,33)" fill="none" stroke-linecap="round"></path><path d="M 77.000,252.000 C 77.802,254.406 76.815,254.867 78.000,257.000" stroke-width="14.315" stroke="rgb(33,33,33)" fill="none" stroke-linecap="round"></path><path d="M 78.000,257.000 C 79.315,259.367 79.574,260.029 82.000,261.000" stroke-width="14.483" stroke="rgb(33,33,33)" fill="none" stroke-linecap="round"></path><path d="M 82.000,261.000 C 84.574,262.029 85.477,262.336 88.000,261.000" stroke-width="14.577" stroke="rgb(33,33,33)" fill="none" stroke-linecap="round"></path><path d="M 88.000,261.000 C 93.977,257.836 94.861,257.588 99.000,252.000" stroke-width="13.600" stroke="rgb(33,33,33)" fill="none" stroke-linecap="round"></path><path d="M 99.000,252.000 C 104.861,244.088 103.918,243.185 108.000,234.000" stroke-width="12.540" stroke="rgb(33,33,33)" fill="none" stroke-linecap="round"></path><path d="M 108.000,234.000 C 111.918,225.185 111.732,225.078 115.000,216.000" stroke-width="11.576" stroke="rgb(33,33,33)" fill="none" stroke-linecap="round"></path><path d="M 115.000,216.000 C 116.232,212.578 116.216,212.530 117.000,209.000" stroke-width="12.017" stroke="rgb(33,33,33)" fill="none" stroke-linecap="round"></path><path d="M 117.000,209.000 C 117.216,208.030 117.581,207.194 117.000,207.000" stroke-width="12.885" stroke="rgb(33,33,33)" fill="none" stroke-linecap="round"></path><path d="M 117.000,207.000 C 116.081,206.694 115.211,207.032 114.000,208.000" stroke-width="13.550" stroke="rgb(33,33,33)" fill="none" stroke-linecap="round"></path><path d="M 114.000,208.000 C 110.211,211.032 109.915,211.114 107.000,215.000" stroke-width="13.328" stroke="rgb(33,33,33)" fill="none" stroke-linecap="round"></path><path d="M 107.000,215.000 C 105.415,217.114 105.729,217.448 105.000,220.000" stroke-width="13.693" stroke="rgb(33,33,33)" fill="none" stroke-linecap="round"></path><path d="M 105.000,220.000 C 104.729,220.948 104.143,221.857 105.000,222.000" stroke-width="14.396" stroke="rgb(33,33,33)" fill="none" stroke-linecap="round"></path><path d="M 105.000,222.000 C 110.143,222.857 111.648,224.141 117.000,222.000" stroke-width="13.726" stroke="rgb(33,33,33)" fill="none" stroke-linecap="round"></path><path d="M 117.000,222.000 C 126.648,218.141 126.328,216.442 135.000,210.000" stroke-width="12.387" stroke="rgb(33,33,33)" fill="none" stroke-linecap="round"></path><path d="M 135.000,210.000 C 143.828,203.442 143.249,202.651 152.000,196.000" stroke-width="11.357" stroke="rgb(33,33,33)" fill="none" stroke-linecap="round"></path><path d="M 152.000,196.000 C 155.749,193.151 155.787,192.756 160.000,191.000" stroke-width="11.655" stroke="rgb(33,33,33)" fill="none" stroke-linecap="round"></path><path d="M 160.000,191.000 C 161.787,190.256 163.556,189.444 164.000,191.000" stroke-width="12.370" stroke="rgb(33,33,33)" fill="none" stroke-linecap="round"></path><path d="M 164.000,191.000 C 165.556,196.444 165.576,198.303 164.000,205.000" stroke-width="12.021" stroke="rgb(33,33,33)" fill="none" stroke-linecap="round"></path><path d="M 164.000,205.000 C 161.576,215.303 159.487,214.830 156.000,225.000" stroke-width="11.243" stroke="rgb(33,33,33)" fill="none" stroke-linecap="round"></path><path d="M 156.000,225.000 C 153.487,232.330 153.718,232.442 152.000,240.000" stroke-width="11.105" stroke="rgb(33,33,33)" fill="none" stroke-linecap="round"></path><path d="M 152.000,240.000 C 151.218,243.442 151.000,243.545 151.000,247.000" stroke-width="11.708" stroke="rgb(33,33,33)" fill="none" stroke-linecap="round"></path><path d="M 151.000,247.000 C 151.000,248.545 150.617,249.914 152.000,250.000" stroke-width="12.406" stroke="rgb(33,33,33)" fill="none" stroke-linecap="round"></path><path d="M 152.000,250.000 C 158.617,250.414 160.501,251.343 167.000,248.000" stroke-width="12.161" stroke="rgb(33,33,33)" fill="none" stroke-linecap="round"></path><path d="M 167.000,248.000 C 178.001,242.343 176.862,239.820 187.000,232.000" stroke-width="10.808" stroke="rgb(33,33,33)" fill="none" stroke-linecap="round"></path><path d="M 187.000,232.000 C 194.362,226.320 193.838,224.930 202.000,221.000" stroke-width="10.559" stroke="rgb(33,33,33)" fill="none" stroke-linecap="round"></path><path d="M 202.000,221.000 C 207.338,218.430 208.313,218.188 214.000,219.000" stroke-width="10.736" stroke="rgb(33,33,33)" fill="none" stroke-linecap="round"></path><path d="M 214.000,219.000 C 218.813,219.688 221.045,219.894 223.000,224.000" stroke-width="11.019" stroke="rgb(33,33,33)" fill="none" stroke-linecap="round"></path><path d="M 223.000,224.000 C 226.045,230.394 223.757,231.992 224.000,240.000" stroke-width="10.894" stroke="rgb(33,33,33)" fill="none" stroke-linecap="round"></path><path d="M 224.000,240.000 C 224.257,248.492 224.000,248.500 224.000,257.000" stroke-width="10.731" stroke="rgb(33,33,33)" fill="none" stroke-linecap="round"></path><path d="M 224.000,257.000 C 224.000,260.000 222.957,264.174 224.000,263.000" stroke-width="11.375" stroke="rgb(33,33,33)" fill="none" stroke-linecap="round"></path><path d="M 224.000,263.000 C 226.957,259.674 228.283,255.640 232.000,248.000" stroke-width="11.724" stroke="rgb(33,33,33)" fill="none" stroke-linecap="round"></path><path d="M 232.000,248.000 C 237.283,237.140 237.042,237.019 242.000,226.000" stroke-width="10.852" stroke="rgb(33,33,33)" fill="none" stroke-linecap="round"></path><path d="M 242.000,226.000 C 246.042,217.019 246.073,217.031 250.000,208.000" stroke-width="10.443" stroke="rgb(33,33,33)" fill="none" stroke-linecap="round"></path><path d="M 250.000,208.000 C 251.073,205.531 250.940,205.473 252.000,203.000" stroke-width="11.159" stroke="rgb(33,33,33)" fill="none" stroke-linecap="round"></path><path d="M 252.000,203.000 C 252.440,201.973 252.771,202.089 253.000,201.000" stroke-width="12.056" stroke="rgb(33,33,33)" fill="none" stroke-linecap="round"></path><path d="M 253.000,201.000 C 254.771,192.589 255.048,192.568 256.000,184.000" stroke-width="12.694" stroke="rgb(33,33,33)" fill="none" stroke-linecap="round"></path><path d="M 256.000,184.000 C 257.548,170.068 257.778,170.017 258.000,156.000" stroke-width="11.210" stroke="rgb(33,33,33)" fill="none" stroke-linecap="round"></path><path d="M 258.000,156.000 C 258.278,138.517 261.345,137.137 257.000,121.000" stroke-width="9.955" stroke="rgb(33,33,33)" fill="none" stroke-linecap="round"></path><path d="M 257.000,121.000 C 254.345,111.137 252.716,108.917 244.000,104.000" stroke-width="9.666" stroke="rgb(33,33,33)" fill="none" stroke-linecap="round"></path><path d="M 244.000,104.000 C 233.216,97.917 231.086,99.000 218.000,99.000" stroke-width="9.331" stroke="rgb(33,33,33)" fill="none" stroke-linecap="round"></path><path d="M 218.000,99.000 C 197.586,99.000 197.125,99.763 177.000,104.000" stroke-width="8.143" stroke="rgb(33,33,33)" fill="none" stroke-linecap="round"></path><path d="M 177.000,104.000 C 159.125,107.763 159.623,109.965 142.000,115.000" stroke-width="7.647" stroke="rgb(33,33,33)" fill="none" stroke-linecap="round"></path><path d="M 142.000,115.000 C 135.123,116.965 125.898,119.617 128.000,118.000" stroke-width="8.143" stroke="rgb(33,33,33)" fill="none" stroke-linecap="round"></path><path d="M 128.000,118.000 C 132.398,114.617 141.168,110.709 155.000,105.000" stroke-width="8.540" stroke="rgb(33,33,33)" fill="none" stroke-linecap="round"></path><path d="M 155.000,105.000 C 172.668,97.709 172.676,97.280 191.000,92.000" stroke-width="7.950" stroke="rgb(33,33,33)" fill="none" stroke-linecap="round"></path><path d="M 191.000,92.000 C 202.176,88.780 202.591,88.787 214.000,88.000" stroke-width="8.060" stroke="rgb(33,33,33)" fill="none" stroke-linecap="round"></path><path d="M 214.000,88.000 C 217.091,87.787 220.820,87.541 220.000,90.000" stroke-width="8.847" stroke="rgb(33,33,33)" fill="none" stroke-linecap="round"></path><path d="M 220.000,90.000 C 215.820,102.541 214.748,106.309 204.000,118.000" stroke-width="8.400" stroke="rgb(33,33,33)" fill="none" stroke-linecap="round"></path><path d="M 204.000,118.000 C 186.248,137.309 183.521,135.026 163.000,152.000" stroke-width="7.350" stroke="rgb(33,33,33)" fill="none" stroke-linecap="round"></path><path d="M 163.000,152.000 C 143.021,168.526 142.067,167.522 123.000,185.000" stroke-width="6.750" stroke="rgb(33,33,33)" fill="none" stroke-linecap="round"></path><path d="M 123.000,185.000 C 112.067,195.022 110.282,195.119 103.000,207.000" stroke-width="6.769" stroke="rgb(33,33,33)" fill="none" stroke-linecap="round"></path><path d="M 103.000,207.000 C 100.782,210.619 100.324,214.845 104.000,216.000" stroke-width="7.482" stroke="rgb(33,33,33)" fill="none" stroke-linecap="round"></path><path d="M 104.000,216.000 C 117.824,220.345 121.006,216.911 138.000,218.000" stroke-width="7.321" stroke="rgb(33,33,33)" fill="none" stroke-linecap="round"></path><path d="M 138.000,218.000 C 160.006,219.411 160.102,218.597 182.000,221.000" stroke-width="6.908" stroke="rgb(33,33,33)" fill="none" stroke-linecap="round"></path><path d="M 182.000,221.000 C 201.102,223.097 201.530,222.223 220.000,227.000" stroke-width="6.812" stroke="rgb(33,33,33)" fill="none" stroke-linecap="round"></path><path d="M 220.000,227.000 C 230.530,229.723 231.972,229.718 240.000,236.000" stroke-width="7.054" stroke="rgb(33,33,33)" fill="none" stroke-linecap="round"></path><path d="M 155.000,301.000 C 153.000,300.000 151.000,299.528 151.000,299.000" stroke-width="18.587" stroke="rgb(33,33,33)" fill="none" stroke-linecap="round"></path></svg>