<svg xmlns="http://www.w3.org/2000/svg" xmlns:xlink="http://www.w3.org/1999/xlink" viewBox="0 0 360 500"><path d="M 110.742,189.781 C 108.207,180.201 107.942,180.261 105.673,170.621" stroke-width="18.955" stroke="rgb(33,33,33)" fill="none" stroke-linecap="round"></path><path d="M 105.673,170.621 C 104.163,164.208 103.843,163.751 103.184,157.675" stroke-width="16.739" stroke="rgb(33,33,33)" fill="none" stroke-linecap="round"></path><path d="M 103.184,157.675 C 103.130,157.177 104.100,156.981 104.246,157.472" stroke-width="17.189" stroke="rgb(33,33,33)" fill="none" stroke-linecap="round"></path><path d="M 104.246,157.472 C 106.690,165.725 106.108,166.367 108.364,175.163" stroke-width="15.063" stroke="rgb(33,33,33)" fill="none" stroke-linecap="round"></path><path d="M 108.364,175.163 C 111.526,187.490 111.702,187.446 115.081,199.717" stroke-width="12.707" stroke="rgb(33,33,33)" fill="none" stroke-linecap="round"></path><path d="M 115.081,199.717 C 118.359,211.618 118.326,211.628 121.678,223.508" stroke-width="12.309" stroke="rgb(33,33,33)" fill="none" stroke-linecap="round"></path><path d="M 121.678,223.508 C 124.020,231.809 124.704,231.673 126.469,240.080" stroke-width="12.199" stroke="rgb(33,33,33)" fill="none" stroke-linecap="round"></path><path d="M 126.469,240.080 C 127.674,245.818 127.242,245.931 127.617,251.799" stroke-width="12.089" stroke="rgb(33,33,33)" fill="none" stroke-linecap="round"></path><path d="M 127.617,251.799 C 127.785,254.426 127.662,254.440 127.555,257.071" stroke-width="12.640" stroke="rgb(33,33,33)" fill="none" stroke-linecap="round"></path><path d="M 127.555,257.071 C 127.516,258.043 127.631,258.179 127.325,259.006" stroke-width="13.317" stroke="rgb(33,33,33)" fill="none" stroke-linecap="round"></path><path d="M 127.325,259.006 C 127.225,259.276 127.009,259.387 126.744,259.264" stroke-width="14.225" stroke="rgb(33,33,33)" fill="none" stroke-linecap="round"></path><path d="M 126.744,259.264 C 125.653,258.761 125.675,258.514 124.612,257.754" stroke-width="14.714" stroke="rgb(33,33,33)" fill="none" stroke-linecap="round"></path><path d="M 124.612,257.754 C 121.300,255.386 121.062,255.674 117.995,253.008" stroke-width="10.983" stroke="rgb(33,33,33)" fill="none" stroke-linecap="round"></path><path d="M 117.995,253.008 C 110.795,246.750 110.961,246.534 104.078,239.905" stroke-width="10.395" stroke="rgb(33,33,33)" fill="none" stroke-linecap="round"></path><path d="M 104.078,239.905 C 99.047,235.060 99.463,234.555 94.166,230.059" stroke-width="10.668" stroke="rgb(33,33,33)" fill="none" stroke-linecap="round"></path><path d="M 94.166,230.059 C 91.177,227.522 90.985,227.448 87.506,225.840" stroke-width="11.006" stroke="rgb(33,33,33)" fill="none" stroke-linecap="round"></path><path d="M 87.506,225.840 C 86.381,225.320 85.200,225.570 84.958,225.804" stroke-width="11.921" stroke="rgb(33,33,33)" fill="none" stroke-linecap="round"></path><path d="M 84.958,225.804 C 84.777,225.978 85.734,226.600 86.661,226.656" stroke-width="12.805" stroke="rgb(33,33,33)" fill="none" stroke-linecap="round"></path><path d="M 86.661,226.656 C 89.621,226.833 89.744,226.784 92.732,226.270" stroke-width="13.212" stroke="rgb(33,33,33)" fill="none" stroke-linecap="round"></path><path d="M 92.732,226.270 C 97.865,225.387 97.846,225.181 102.902,223.863" stroke-width="12.853" stroke="rgb(33,33,33)" fill="none" stroke-linecap="round"></path><path d="M 102.902,223.863 C 110.077,221.992 110.324,222.573 117.193,219.892" stroke-width="12.304" stroke="rgb(33,33,33)" fill="none" stroke-linecap="round"></path><path d="M 117.193,219.892 C 123.310,217.504 123.357,217.300 128.874,213.724" stroke-width="12.041" stroke="rgb(33,33,33)" fill="none" stroke-linecap="round"></path><path d="M 128.874,213.724 C 133.638,210.636 133.546,210.399 137.754,206.565" stroke-width="12.057" stroke="rgb(33,33,33)" fill="none" stroke-linecap="round"></path><path d="M 137.754,206.565 C 141.852,202.831 142.903,203.286 145.485,198.589" stroke-width="12.094" stroke="rgb(33,33,33)" fill="none" stroke-linecap="round"></path><path d="M 145.485,198.589 C 148.101,193.830 147.899,193.181 148.150,187.653" stroke-width="12.052" stroke="rgb(33,33,33)" fill="none" stroke-linecap="round"></path><path d="M 148.150,187.653 C 148.430,181.497 148.480,181.074 146.548,175.220" stroke-width="11.971" stroke="rgb(33,33,33)" fill="none" stroke-linecap="round"></path><path d="M 146.548,175.220 C 144.434,168.813 143.981,168.590 140.058,163.132" stroke-width="11.741" stroke="rgb(33,33,33)" fill="none" stroke-linecap="round"></path><path d="M 140.058,163.132 C 138.381,160.799 137.846,160.497 135.347,159.637" stroke-width="12.281" stroke="rgb(33,33,33)" fill="none" stroke-linecap="round"></path><path d="M 135.347,159.637 C 134.097,159.207 133.536,159.568 132.560,160.553" stroke-width="13.016" stroke="rgb(33,33,33)" fill="none" stroke-linecap="round"></path><path d="M 132.560,160.553 C 130.630,162.503 130.118,162.722 129.535,165.507" stroke-width="13.449" stroke="rgb(33,33,33)" fill="none" stroke-linecap="round"></path><path d="M 129.535,165.507 C 127.814,173.724 127.696,174.040 127.952,182.558" stroke-width="12.401" stroke="rgb(33,33,33)" fill="none" stroke-linecap="round"></path><path d="M 127.952,182.558 C 128.365,196.275 128.362,196.479 130.873,209.978" stroke-width="11.448" stroke="rgb(33,33,33)" fill="none" stroke-linecap="round"></path><path d="M 130.873,209.978 C 132.718,219.898 133.205,219.897 136.664,229.397" stroke-width="10.509" stroke="rgb(33,33,33)" fill="none" stroke-linecap="round"></path><path d="M 136.664,229.397 C 139.432,236.999 140.114,236.739 143.327,244.182" stroke-width="10.415" stroke="rgb(33,33,33)" fill="none" stroke-linecap="round"></path><path d="M 143.327,244.182 C 145.558,249.351 145.448,249.399 147.553,254.622" stroke-width="10.806" stroke="rgb(33,33,33)" fill="none" stroke-linecap="round"></path><path d="M 147.553,254.622 C 148.723,257.523 149.159,257.419 149.877,260.431" stroke-width="11.449" stroke="rgb(33,33,33)" fill="none" stroke-linecap="round"></path><path d="M 149.877,260.431 C 150.634,263.605 150.454,263.731 150.503,266.995" stroke-width="11.848" stroke="rgb(33,33,33)" fill="none" stroke-linecap="round"></path><path d="M 150.503,266.995 C 150.519,268.055 150.453,268.221 150.007,269.079" stroke-width="12.673" stroke="rgb(33,33,33)" fill="none" stroke-linecap="round"></path><path d="M 150.007,269.079 C 149.854,269.374 149.459,269.575 149.306,269.301" stroke-width="13.627" stroke="rgb(33,33,33)" fill="none" stroke-linecap="round"></path><path d="M 149.306,269.301 C 148.528,267.905 148.789,267.497 148.145,265.738" stroke-width="14.039" stroke="rgb(33,33,33)" fill="none" stroke-linecap="round"></path><path d="M 148.145,265.738 C 146.304,260.707 146.790,260.464 144.337,255.721" stroke-width="13.683" stroke="rgb(33,33,33)" fill="none" stroke-linecap="round"></path><path d="M 144.337,255.721 C 139.636,246.630 139.192,246.829 133.836,238.069" stroke-width="12.741" stroke="rgb(33,33,33)" fill="none" stroke-linecap="round"></path><path d="M 133.836,238.069 C 131.346,233.996 131.151,234.116 128.644,230.055" stroke-width="12.836" stroke="rgb(33,33,33)" fill="none" stroke-linecap="round"></path><path d="M 128.644,230.055 C 127.218,227.746 127.397,227.630 125.970,225.330" stroke-width="13.236" stroke="rgb(33,33,33)" fill="none" stroke-linecap="round"></path><path d="M 125.970,225.330 C 125.575,224.693 125.442,224.785 124.999,224.181" stroke-width="14.056" stroke="rgb(33,33,33)" fill="none" stroke-linecap="round"></path><path d="M 124.999,224.181 C 124.735,223.821 124.504,223.734 124.556,223.401" stroke-width="14.862" stroke="rgb(33,33,33)" fill="none" stroke-linecap="round"></path><path d="M 124.556,223.401 C 124.602,223.104 124.809,222.977 125.194,222.921" stroke-width="15.523" stroke="rgb(33,33,33)" fill="none" stroke-linecap="round"></path><path d="M 125.194,222.921 C 127.055,222.651 127.121,222.809 129.049,222.750" stroke-width="15.675" stroke="rgb(33,33,33)" fill="none" stroke-linecap="round"></path><path d="M 129.049,222.750 C 134.445,222.586 134.455,222.759 139.842,222.476" stroke-width="14.701" stroke="rgb(33,33,33)" fill="none" stroke-linecap="round"></path><path d="M 139.842,222.476 C 142.849,222.318 142.880,222.376 145.838,221.867" stroke-width="14.750" stroke="rgb(33,33,33)" fill="none" stroke-linecap="round"></path><path d="M 145.838,221.867 C 147.563,221.570 147.660,221.642 149.207,220.864" stroke-width="15.087" stroke="rgb(33,33,33)" fill="none" stroke-linecap="round"></path><path d="M 149.207,220.864 C 150.854,220.035 150.855,219.908 152.227,218.652" stroke-width="15.421" stroke="rgb(33,33,33)" fill="none" stroke-linecap="round"></path><path d="M 152.227,218.652 C 153.476,217.509 153.637,217.524 154.448,216.066" stroke-width="15.763" stroke="rgb(33,33,33)" fill="none" stroke-linecap="round"></path><path d="M 154.448,216.066 C 155.219,214.681 155.555,214.494 155.391,212.966" stroke-width="15.895" stroke="rgb(33,33,33)" fill="none" stroke-linecap="round"></path><path d="M 155.391,212.966 C 155.139,210.618 154.480,210.649 153.615,208.314" stroke-width="15.752" stroke="rgb(33,33,33)" fill="none" stroke-linecap="round"></path><path d="M 153.615,208.314 C 151.982,203.905 152.035,203.886 150.396,199.479" stroke-width="15.255" stroke="rgb(33,33,33)" fill="none" stroke-linecap="round"></path><path d="M 150.396,199.479 C 147.429,191.503 147.730,191.366 144.404,183.548" stroke-width="13.454" stroke="rgb(33,33,33)" fill="none" stroke-linecap="round"></path><path d="M 144.404,183.548 C 142.632,179.385 142.508,179.370 140.200,175.517" stroke-width="13.504" stroke="rgb(33,33,33)" fill="none" stroke-linecap="round"></path><path d="M 140.200,175.517 C 139.772,174.802 139.213,174.415 138.932,174.411" stroke-width="14.224" stroke="rgb(33,33,33)" fill="none" stroke-linecap="round"></path><path d="M 138.932,174.411 C 138.741,174.409 139.037,174.979 139.256,175.505" stroke-width="14.965" stroke="rgb(33,33,33)" fill="none" stroke-linecap="round"></path><path d="M 139.256,175.505 C 140.524,178.555 140.878,178.426 141.906,181.563" stroke-width="14.833" stroke="rgb(33,33,33)" fill="none" stroke-linecap="round"></path><path d="M 141.906,181.563 C 145.173,191.527 145.215,191.548 147.846,201.708" stroke-width="13.156" stroke="rgb(33,33,33)" fill="none" stroke-linecap="round"></path><path d="M 147.846,201.708 C 150.516,212.019 149.340,212.380 152.507,222.505" stroke-width="12.038" stroke="rgb(33,33,33)" fill="none" stroke-linecap="round"></path><path d="M 152.507,222.505 C 154.945,230.301 155.247,230.320 159.057,237.550" stroke-width="11.566" stroke="rgb(33,33,33)" fill="none" stroke-linecap="round"></path><path d="M 159.057,237.550 C 161.771,242.700 162.073,242.593 165.556,247.265" stroke-width="11.702" stroke="rgb(33,33,33)" fill="none" stroke-linecap="round"></path><path d="M 165.556,247.265 C 167.148,249.401 167.255,249.414 169.206,251.166" stroke-width="12.401" stroke="rgb(33,33,33)" fill="none" stroke-linecap="round"></path><path d="M 169.206,251.166 C 169.623,251.541 170.142,251.707 170.293,251.519" stroke-width="13.288" stroke="rgb(33,33,33)" fill="none" stroke-linecap="round"></path><path d="M 170.293,251.519 C 170.455,251.318 170.086,250.944 169.832,250.389" stroke-width="14.126" stroke="rgb(33,33,33)" fill="none" stroke-linecap="round"></path><path d="M 169.832,250.389 C 169.327,249.286 169.208,249.336 168.775,248.203" stroke-width="14.682" stroke="rgb(33,33,33)" fill="none" stroke-linecap="round"></path><path d="M 168.775,248.203 C 166.865,243.212 167.272,243.042 165.146,238.140" stroke-width="14.091" stroke="rgb(33,33,33)" fill="none" stroke-linecap="round"></path><path d="M 165.146,238.140 C 161.085,228.778 161.488,228.432 156.400,219.676" stroke-width="13.031" stroke="rgb(33,33,33)" fill="none" stroke-linecap="round"></path><path d="M 156.400,219.676 C 154.302,216.065 153.730,216.388 150.773,213.406" stroke-width="12.951" stroke="rgb(33,33,33)" fill="none" stroke-linecap="round"></path><path d="M 150.773,213.406 C 149.534,212.156 148.369,211.750 148.008,211.212" stroke-width="13.546" stroke="rgb(33,33,33)" fill="none" stroke-linecap="round"></path><path d="M 148.008,211.212 C 147.826,210.941 149.070,211.477 149.687,211.788" stroke-width="14.292" stroke="rgb(33,33,33)" fill="none" stroke-linecap="round"></path><path d="M 149.687,211.788 C 149.787,211.838 149.387,211.826 149.441,211.935" stroke-width="15.148" stroke="rgb(33,33,33)" fill="none" stroke-linecap="round"></path><path d="M 149.441,211.935 C 149.745,212.545 149.771,212.758 150.403,213.226" stroke-width="15.686" stroke="rgb(33,33,33)" fill="none" stroke-linecap="round"></path><path d="M 150.403,213.226 C 151.567,214.087 151.644,214.101 153.033,214.593" stroke-width="15.999" stroke="rgb(33,33,33)" fill="none" stroke-linecap="round"></path><path d="M 153.033,214.593 C 155.332,215.408 155.369,215.434 157.779,215.839" stroke-width="15.845" stroke="rgb(33,33,33)" fill="none" stroke-linecap="round"></path><path d="M 157.779,215.839 C 160.189,216.244 160.303,216.556 162.672,216.214" stroke-width="15.819" stroke="rgb(33,33,33)" fill="none" stroke-linecap="round"></path><path d="M 162.672,216.214 C 165.004,215.877 165.294,215.855 167.182,214.481" stroke-width="15.848" stroke="rgb(33,33,33)" fill="none" stroke-linecap="round"></path><path d="M 167.182,214.481 C 169.111,213.077 169.259,212.815 170.306,210.659" stroke-width="15.722" stroke="rgb(33,33,33)" fill="none" stroke-linecap="round"></path><path d="M 170.306,210.659 C 171.285,208.645 171.355,208.387 171.234,206.141" stroke-width="15.833" stroke="rgb(33,33,33)" fill="none" stroke-linecap="round"></path><path d="M 171.234,206.141 C 171.074,203.169 171.092,202.922 169.744,200.223" stroke-width="15.637" stroke="rgb(33,33,33)" fill="none" stroke-linecap="round"></path><path d="M 169.744,200.223 C 166.940,194.611 167.274,193.971 162.930,189.519" stroke-width="14.149" stroke="rgb(33,33,33)" fill="none" stroke-linecap="round"></path><path d="M 162.930,189.519 C 158.252,184.724 157.580,184.350 151.701,181.730" stroke-width="13.601" stroke="rgb(33,33,33)" fill="none" stroke-linecap="round"></path><path d="M 151.701,181.730 C 149.811,180.887 149.195,181.698 147.392,182.594" stroke-width="13.969" stroke="rgb(33,33,33)" fill="none" stroke-linecap="round"></path><path d="M 147.392,182.594 C 146.603,182.986 146.630,183.379 146.516,184.306" stroke-width="14.662" stroke="rgb(33,33,33)" fill="none" stroke-linecap="round"></path><path d="M 146.516,184.306 C 146.273,186.289 146.270,186.414 146.678,188.415" stroke-width="14.893" stroke="rgb(33,33,33)" fill="none" stroke-linecap="round"></path><path d="M 146.678,188.415 C 147.477,192.340 147.152,192.581 148.930,196.158" stroke-width="14.584" stroke="rgb(33,33,33)" fill="none" stroke-linecap="round"></path><path d="M 148.930,196.158 C 151.977,202.286 151.532,203.101 156.328,207.824" stroke-width="13.744" stroke="rgb(33,33,33)" fill="none" stroke-linecap="round"></path><path d="M 156.328,207.824 C 161.199,212.621 161.954,212.663 168.263,215.198" stroke-width="13.267" stroke="rgb(33,33,33)" fill="none" stroke-linecap="round"></path><path d="M 168.263,215.198 C 171.318,216.426 171.700,215.667 175.056,215.348" stroke-width="13.396" stroke="rgb(33,33,33)" fill="none" stroke-linecap="round"></path><path d="M 175.056,215.348 C 178.063,215.062 178.450,215.461 180.990,213.987" stroke-width="13.710" stroke="rgb(33,33,33)" fill="none" stroke-linecap="round"></path><path d="M 180.990,213.987 C 184.199,212.124 184.264,211.700 186.554,208.673" stroke-width="13.577" stroke="rgb(33,33,33)" fill="none" stroke-linecap="round"></path><path d="M 186.554,208.673 C 188.753,205.767 189.715,205.579 189.967,202.121" stroke-width="13.681" stroke="rgb(33,33,33)" fill="none" stroke-linecap="round"></path><path d="M 189.967,202.121 C 190.301,197.552 189.402,197.167 187.726,192.620" stroke-width="13.619" stroke="rgb(33,33,33)" fill="none" stroke-linecap="round"></path><path d="M 187.726,192.620 C 185.984,187.893 185.935,187.680 183.130,183.573" stroke-width="13.421" stroke="rgb(33,33,33)" fill="none" stroke-linecap="round"></path><path d="M 183.130,183.573 C 181.931,181.818 181.573,181.635 179.719,180.895" stroke-width="13.939" stroke="rgb(33,33,33)" fill="none" stroke-linecap="round"></path><path d="M 179.719,180.895 C 178.736,180.503 178.238,180.619 177.457,181.308" stroke-width="14.489" stroke="rgb(33,33,33)" fill="none" stroke-linecap="round"></path><path d="M 177.457,181.308 C 176.289,182.338 176.251,182.696 175.820,184.333" stroke-width="14.847" stroke="rgb(33,33,33)" fill="none" stroke-linecap="round"></path><path d="M 175.820,184.333 C 175.035,187.316 175.153,187.428 175.026,190.548" stroke-width="14.837" stroke="rgb(33,33,33)" fill="none" stroke-linecap="round"></path><path d="M 175.026,190.548 C 174.874,194.265 174.339,194.494 175.262,198.007" stroke-width="14.619" stroke="rgb(33,33,33)" fill="none" stroke-linecap="round"></path><path d="M 175.262,198.007 C 176.143,201.357 176.378,201.642 178.634,204.274" stroke-width="14.549" stroke="rgb(33,33,33)" fill="none" stroke-linecap="round"></path><path d="M 178.634,204.274 C 180.652,206.629 180.979,206.676 183.810,207.981" stroke-width="14.585" stroke="rgb(33,33,33)" fill="none" stroke-linecap="round"></path><path d="M 183.810,207.981 C 186.274,209.117 186.542,209.187 189.225,209.156" stroke-width="14.718" stroke="rgb(33,33,33)" fill="none" stroke-linecap="round"></path><path d="M 189.225,209.156 C 191.384,209.131 191.750,209.071 193.494,207.869" stroke-width="14.965" stroke="rgb(33,33,33)" fill="none" stroke-linecap="round"></path><path d="M 193.494,207.869 C 195.160,206.721 195.448,206.422 196.044,204.457" stroke-width="15.227" stroke="rgb(33,33,33)" fill="none" stroke-linecap="round"></path><path d="M 196.044,204.457 C 197.030,201.203 196.610,200.949 196.658,197.430" stroke-width="14.977" stroke="rgb(33,33,33)" fill="none" stroke-linecap="round"></path><path d="M 196.658,197.430 C 196.722,192.734 196.544,192.722 196.267,188.027" stroke-width="14.544" stroke="rgb(33,33,33)" fill="none" stroke-linecap="round"></path><path d="M 196.267,188.027 C 196.175,186.465 196.208,186.385 195.921,184.915" stroke-width="14.938" stroke="rgb(33,33,33)" fill="none" stroke-linecap="round"></path><path d="M 195.921,184.915 C 195.893,184.770 195.661,184.672 195.636,184.796" stroke-width="15.723" stroke="rgb(33,33,33)" fill="none" stroke-linecap="round"></path><path d="M 195.636,184.796 C 195.484,185.555 195.399,185.764 195.568,186.681" stroke-width="16.167" stroke="rgb(33,33,33)" fill="none" stroke-linecap="round"></path><path d="M 195.568,186.681 C 195.926,188.624 195.822,188.741 196.690,190.517" stroke-width="16.027" stroke="rgb(33,33,33)" fill="none" stroke-linecap="round"></path><path d="M 196.690,190.517 C 197.839,192.870 197.817,193.031 199.602,194.940" stroke-width="15.949" stroke="rgb(33,33,33)" fill="none" stroke-linecap="round"></path><path d="M 199.602,194.940 C 201.565,197.038 201.626,197.268 204.185,198.531" stroke-width="15.716" stroke="rgb(33,33,33)" fill="none" stroke-linecap="round"></path><path d="M 204.185,198.531 C 206.937,199.888 207.177,200.021 210.224,200.180" stroke-width="15.573" stroke="rgb(33,33,33)" fill="none" stroke-linecap="round"></path><path d="M 210.224,200.180 C 213.011,200.325 213.390,200.401 215.853,199.138" stroke-width="15.606" stroke="rgb(33,33,33)" fill="none" stroke-linecap="round"></path><path d="M 215.853,199.138 C 218.967,197.541 219.505,197.435 221.377,194.460" stroke-width="15.243" stroke="rgb(33,33,33)" fill="none" stroke-linecap="round"></path><path d="M 221.377,194.460 C 224.378,189.694 224.920,189.265 225.599,183.656" stroke-width="14.384" stroke="rgb(33,33,33)" fill="none" stroke-linecap="round"></path><path d="M 225.599,183.656 C 226.429,176.800 225.844,176.425 224.394,169.530" stroke-width="13.469" stroke="rgb(33,33,33)" fill="none" stroke-linecap="round"></path><path d="M 224.394,169.530 C 222.619,161.090 222.654,160.875 219.150,152.986" stroke-width="12.392" stroke="rgb(33,33,33)" fill="none" stroke-linecap="round"></path><path d="M 219.150,152.986 C 215.059,143.775 215.411,143.036 209.205,135.330" stroke-width="11.392" stroke="rgb(33,33,33)" fill="none" stroke-linecap="round"></path><path d="M 209.205,135.330 C 205.581,130.830 204.515,130.633 199.489,128.573" stroke-width="11.594" stroke="rgb(33,33,33)" fill="none" stroke-linecap="round"></path><path d="M 199.489,128.573 C 197.877,127.912 196.823,128.371 195.929,129.889" stroke-width="12.333" stroke="rgb(33,33,33)" fill="none" stroke-linecap="round"></path><path d="M 195.929,129.889 C 193.200,134.524 192.574,135.232 192.243,140.879" stroke-width="12.140" stroke="rgb(33,33,33)" fill="none" stroke-linecap="round"></path><path d="M 192.243,140.879 C 191.763,149.061 192.208,149.483 194.308,157.547" stroke-width="11.608" stroke="rgb(33,33,33)" fill="none" stroke-linecap="round"></path><path d="M 194.308,157.547 C 196.661,166.585 196.659,166.921 201.148,175.083" stroke-width="11.221" stroke="rgb(33,33,33)" fill="none" stroke-linecap="round"></path><path d="M 201.148,175.083 C 204.906,181.915 205.239,182.073 210.802,187.535" stroke-width="11.190" stroke="rgb(33,33,33)" fill="none" stroke-linecap="round"></path><path d="M 210.802,187.535 C 215.671,192.315 216.022,192.353 222.012,195.567" stroke-width="11.295" stroke="rgb(33,33,33)" fill="none" stroke-linecap="round"></path><path d="M 222.012,195.567 C 225.545,197.463 225.890,197.557 229.848,197.754" stroke-width="11.442" stroke="rgb(33,33,33)" fill="none" stroke-linecap="round"></path><path d="M 229.848,197.754 C 233.633,197.942 234.075,197.896 237.498,196.338" stroke-width="11.927" stroke="rgb(33,33,33)" fill="none" stroke-linecap="round"></path><path d="M 237.498,196.338 C 240.555,194.946 240.906,194.604 242.807,191.855" stroke-width="12.161" stroke="rgb(33,33,33)" fill="none" stroke-linecap="round"></path><path d="M 242.807,191.855 C 244.545,189.342 244.552,188.918 244.775,185.815" stroke-width="12.602" stroke="rgb(33,33,33)" fill="none" stroke-linecap="round"></path><path d="M 244.775,185.815 C 245.092,181.411 244.964,181.161 243.887,176.842" stroke-width="12.671" stroke="rgb(33,33,33)" fill="none" stroke-linecap="round"></path><path d="M 243.887,176.842 C 242.980,173.206 242.875,172.897 240.807,169.905" stroke-width="12.916" stroke="rgb(33,33,33)" fill="none" stroke-linecap="round"></path><path d="M 240.807,169.905 C 239.917,168.617 239.488,168.706 237.972,168.281" stroke-width="13.544" stroke="rgb(33,33,33)" fill="none" stroke-linecap="round"></path><path d="M 237.972,168.281 C 236.692,167.923 236.310,167.682 235.215,168.339" stroke-width="14.175" stroke="rgb(33,33,33)" fill="none" stroke-linecap="round"></path><path d="M 235.215,168.339 C 233.291,169.494 233.040,169.815 231.935,171.906" stroke-width="14.601" stroke="rgb(33,33,33)" fill="none" stroke-linecap="round"></path><path d="M 231.935,171.906 C 230.429,174.757 230.425,174.995 229.993,178.222" stroke-width="14.350" stroke="rgb(33,33,33)" fill="none" stroke-linecap="round"></path><path d="M 229.993,178.222 C 229.592,181.220 229.063,181.714 230.268,184.356" stroke-width="14.494" stroke="rgb(33,33,33)" fill="none" stroke-linecap="round"></path><path d="M 230.268,184.356 C 231.873,187.875 232.396,188.169 235.613,190.545" stroke-width="14.322" stroke="rgb(33,33,33)" fill="none" stroke-linecap="round"></path><path d="M 235.613,190.545 C 239.242,193.225 239.630,193.537 243.960,194.469" stroke-width="13.926" stroke="rgb(33,33,33)" fill="none" stroke-linecap="round"></path><path d="M 243.960,194.469 C 246.802,195.081 247.432,195.024 249.956,193.634" stroke-width="13.968" stroke="rgb(33,33,33)" fill="none" stroke-linecap="round"></path><path d="M 249.956,193.634 C 253.394,191.741 253.008,190.855 255.884,187.903" stroke-width="13.900" stroke="rgb(33,33,33)" fill="none" stroke-linecap="round"></path><path d="M 255.884,187.903 C 259.105,184.597 259.786,184.965 262.150,181.119" stroke-width="13.674" stroke="rgb(33,33,33)" fill="none" stroke-linecap="round"></path><path d="M 262.150,181.119 C 264.150,177.867 264.090,177.493 264.612,173.707" stroke-width="13.843" stroke="rgb(33,33,33)" fill="none" stroke-linecap="round"></path><path d="M 264.612,173.707 C 265.026,170.704 265.107,170.099 264.023,167.540" stroke-width="13.882" stroke="rgb(33,33,33)" fill="none" stroke-linecap="round"></path><path d="M 264.023,167.540 C 263.503,166.312 262.810,166.358 261.403,166.133" stroke-width="14.421" stroke="rgb(33,33,33)" fill="none" stroke-linecap="round"></path><path d="M 261.403,166.133 C 259.540,165.835 259.314,165.894 257.483,166.495" stroke-width="14.754" stroke="rgb(33,33,33)" fill="none" stroke-linecap="round"></path><path d="M 257.483,166.495 C 255.267,167.222 255.016,167.230 253.308,168.788" stroke-width="14.955" stroke="rgb(33,33,33)" fill="none" stroke-linecap="round"></path><path d="M 253.308,168.788 C 251.681,170.273 251.682,170.527 250.813,172.581" stroke-width="15.150" stroke="rgb(33,33,33)" fill="none" stroke-linecap="round"></path><path d="M 250.813,172.581 C 249.991,174.524 249.783,174.732 249.926,176.782" stroke-width="15.343" stroke="rgb(33,33,33)" fill="none" stroke-linecap="round"></path><path d="M 249.926,176.782 C 250.054,178.615 250.123,179.025 251.356,180.347" stroke-width="15.530" stroke="rgb(33,33,33)" fill="none" stroke-linecap="round"></path><path d="M 251.356,180.347 C 252.769,181.862 253.144,181.890 255.218,182.456" stroke-width="15.638" stroke="rgb(33,33,33)" fill="none" stroke-linecap="round"></path><path d="M 255.218,182.456 C 257.687,183.130 257.869,183.053 260.442,182.827" stroke-width="15.607" stroke="rgb(33,33,33)" fill="none" stroke-linecap="round"></path><path d="M 260.442,182.827 C 262.811,182.619 263.151,182.842 265.102,181.589" stroke-width="15.640" stroke="rgb(33,33,33)" fill="none" stroke-linecap="round"></path><path d="M 265.102,181.589 C 267.544,180.021 268.121,179.887 269.229,177.185" stroke-width="15.384" stroke="rgb(33,33,33)" fill="none" stroke-linecap="round"></path><path d="M 269.229,177.185 C 271.453,171.761 271.738,171.286 271.767,165.337" stroke-width="14.736" stroke="rgb(33,33,33)" fill="none" stroke-linecap="round"></path><path d="M 271.767,165.337 C 271.802,158.376 270.967,158.259 269.357,151.366" stroke-width="13.605" stroke="rgb(33,33,33)" fill="none" stroke-linecap="round"></path><path d="M 269.357,151.366 C 267.353,142.784 267.377,142.732 264.539,134.386" stroke-width="12.567" stroke="rgb(33,33,33)" fill="none" stroke-linecap="round"></path><path d="M 264.539,134.386 C 261.165,124.463 261.870,123.873 256.932,114.828" stroke-width="11.665" stroke="rgb(33,33,33)" fill="none" stroke-linecap="round"></path><path d="M 256.932,114.828 C 254.612,110.578 253.841,109.240 250.022,107.796" stroke-width="11.828" stroke="rgb(33,33,33)" fill="none" stroke-linecap="round"></path><path d="M 250.022,107.796 C 247.807,106.959 246.024,107.986 244.864,110.266" stroke-width="12.339" stroke="rgb(33,33,33)" fill="none" stroke-linecap="round"></path><path d="M 244.864,110.266 C 242.658,114.605 242.961,115.673 243.290,121.034" stroke-width="12.341" stroke="rgb(33,33,33)" fill="none" stroke-linecap="round"></path><path d="M 243.290,121.034 C 243.835,129.904 243.744,130.283 246.612,138.729" stroke-width="11.653" stroke="rgb(33,33,33)" fill="none" stroke-linecap="round"></path><path d="M 246.612,138.729 C 249.753,147.977 250.436,147.880 255.308,156.422" stroke-width="11.113" stroke="rgb(33,33,33)" fill="none" stroke-linecap="round"></path><path d="M 255.308,156.422 C 259.190,163.227 259.376,163.185 264.120,169.422" stroke-width="11.052" stroke="rgb(33,33,33)" fill="none" stroke-linecap="round"></path><path d="M 264.120,169.422 C 267.485,173.846 267.364,174.132 271.526,177.743" stroke-width="11.270" stroke="rgb(33,33,33)" fill="none" stroke-linecap="round"></path><path d="M 271.526,177.743 C 274.753,180.544 274.889,181.055 278.898,182.246" stroke-width="11.644" stroke="rgb(33,33,33)" fill="none" stroke-linecap="round"></path><path d="M 278.898,182.246 C 283.110,183.497 283.744,183.467 287.967,182.627" stroke-width="11.826" stroke="rgb(33,33,33)" fill="none" stroke-linecap="round"></path><path d="M 287.967,182.627 C 290.346,182.154 290.988,181.728 292.102,179.619" stroke-width="12.449" stroke="rgb(33,33,33)" fill="none" stroke-linecap="round"></path><path d="M 292.102,179.619 C 293.775,176.452 293.731,175.838 293.540,172.075" stroke-width="12.677" stroke="rgb(33,33,33)" fill="none" stroke-linecap="round"></path><path d="M 293.540,172.075 C 293.254,166.429 293.291,166.020 291.148,160.802" stroke-width="12.412" stroke="rgb(33,33,33)" fill="none" stroke-linecap="round"></path><path d="M 291.148,160.802 C 289.480,156.740 289.278,156.025 285.918,153.515" stroke-width="12.659" stroke="rgb(33,33,33)" fill="none" stroke-linecap="round"></path><path d="M 285.918,153.515 C 283.472,151.687 282.555,151.671 279.536,152.125" stroke-width="12.970" stroke="rgb(33,33,33)" fill="none" stroke-linecap="round"></path><path d="M 279.536,152.125 C 276.501,152.581 275.929,153.008 273.809,155.336" stroke-width="13.178" stroke="rgb(33,33,33)" fill="none" stroke-linecap="round"></path><path d="M 273.809,155.336 C 271.169,158.234 271.327,158.756 270.016,162.577" stroke-width="13.275" stroke="rgb(33,33,33)" fill="none" stroke-linecap="round"></path><path d="M 270.016,162.577 C 268.708,166.391 268.247,166.660 268.570,170.606" stroke-width="13.354" stroke="rgb(33,33,33)" fill="none" stroke-linecap="round"></path><path d="M 268.570,170.606 C 268.938,175.097 269.230,175.502 271.398,179.451" stroke-width="13.243" stroke="rgb(33,33,33)" fill="none" stroke-linecap="round"></path><path d="M 271.398,179.451 C 272.762,181.935 273.140,182.123 275.635,183.473" stroke-width="13.666" stroke="rgb(33,33,33)" fill="none" stroke-linecap="round"></path><path d="M 275.635,183.473 C 278.615,185.085 278.930,184.732 282.348,185.375" stroke-width="13.751" stroke="rgb(33,33,33)" fill="none" stroke-linecap="round"></path><path d="M 282.348,185.375 C 287.049,186.259 287.214,186.597 291.873,186.526" stroke-width="13.446" stroke="rgb(33,33,33)" fill="none" stroke-linecap="round"></path><path d="M 291.873,186.526 C 293.405,186.502 293.573,186.172 294.729,185.185" stroke-width="14.082" stroke="rgb(33,33,33)" fill="none" stroke-linecap="round"></path><path d="M 294.729,185.185 C 295.852,184.226 295.815,184.029 296.432,182.635" stroke-width="14.524" stroke="rgb(33,33,33)" fill="none" stroke-linecap="round"></path><path d="M 296.432,182.635 C 297.995,179.105 298.575,179.123 299.089,175.338" stroke-width="14.271" stroke="rgb(33,33,33)" fill="none" stroke-linecap="round"></path><path d="M 299.089,175.338 C 299.810,170.032 300.154,169.587 298.901,164.453" stroke-width="13.839" stroke="rgb(33,33,33)" fill="none" stroke-linecap="round"></path><path d="M 298.901,164.453 C 297.841,160.112 297.083,160.145 294.463,156.389" stroke-width="13.631" stroke="rgb(33,33,33)" fill="none" stroke-linecap="round"></path><path d="M 294.463,156.389 C 291.527,152.179 291.525,152.040 287.789,148.521" stroke-width="13.526" stroke="rgb(33,33,33)" fill="none" stroke-linecap="round"></path><path d="M 287.789,148.521 C 283.212,144.210 282.852,144.574 277.837,140.729" stroke-width="13.229" stroke="rgb(33,33,33)" fill="none" stroke-linecap="round"></path><path d="M 277.837,140.729 C 272.662,136.762 272.742,136.640 267.408,132.897" stroke-width="12.832" stroke="rgb(33,33,33)" fill="none" stroke-linecap="round"></path><path d="M 267.408,132.897 C 263.347,130.047 263.548,129.273 259.045,127.543" stroke-width="12.622" stroke="rgb(33,33,33)" fill="none" stroke-linecap="round"></path><path d="M 259.045,127.543 C 255.789,126.292 255.388,126.747 251.890,126.936" stroke-width="12.823" stroke="rgb(33,33,33)" fill="none" stroke-linecap="round"></path><path d="M 251.890,126.936 C 250.488,127.012 250.344,127.252 249.246,128.073" stroke-width="13.606" stroke="rgb(33,33,33)" fill="none" stroke-linecap="round"></path><circle r="6" cx="292.6759948730469" cy="156.031005859375" fill="rgb(33,33,33)"></circle></svg>