<svg xmlns="http://www.w3.org/2000/svg" xmlns:xlink="http://www.w3.org/1999/xlink" viewBox="0 0 360 500"><path d="M 67.000,187.500 C 68.006,194.026 67.947,194.035 69.011,200.551" stroke-width="19.503" stroke="rgb(33,33,33)" fill="none" stroke-linecap="round"></path><path d="M 69.011,200.551 C 69.930,206.176 69.849,206.194 70.966,211.781" stroke-width="17.386" stroke="rgb(33,33,33)" fill="none" stroke-linecap="round"></path><path d="M 70.966,211.781 C 72.037,217.138 72.185,217.108 73.388,222.439" stroke-width="15.965" stroke="rgb(33,33,33)" fill="none" stroke-linecap="round"></path><path d="M 73.388,222.439 C 74.609,227.847 74.686,227.831 75.814,233.258" stroke-width="15.054" stroke="rgb(33,33,33)" fill="none" stroke-linecap="round"></path><path d="M 75.814,233.258 C 76.660,237.327 76.517,237.356 77.337,241.430" stroke-width="14.739" stroke="rgb(33,33,33)" fill="none" stroke-linecap="round"></path><path d="M 77.337,241.430 C 77.807,243.766 77.850,243.757 78.394,246.077" stroke-width="14.904" stroke="rgb(33,33,33)" fill="none" stroke-linecap="round"></path><path d="M 78.394,246.077 C 78.871,248.112 78.788,248.143 79.380,250.140" stroke-width="15.155" stroke="rgb(33,33,33)" fill="none" stroke-linecap="round"></path><path d="M 55.000,188.500 C 58.126,184.624 57.792,184.272 61.253,180.747" stroke-width="19.775" stroke="rgb(33,33,33)" fill="none" stroke-linecap="round"></path><path d="M 61.253,180.747 C 63.287,178.676 63.519,178.868 65.989,177.307" stroke-width="18.611" stroke="rgb(33,33,33)" fill="none" stroke-linecap="round"></path><path d="M 65.989,177.307 C 68.954,175.433 68.907,175.241 72.123,173.876" stroke-width="17.561" stroke="rgb(33,33,33)" fill="none" stroke-linecap="round"></path><path d="M 72.123,173.876 C 75.413,172.480 75.501,172.485 79.001,171.785" stroke-width="16.776" stroke="rgb(33,33,33)" fill="none" stroke-linecap="round"></path><path d="M 79.001,171.785 C 81.439,171.297 81.563,171.202 84.000,171.500" stroke-width="16.746" stroke="rgb(33,33,33)" fill="none" stroke-linecap="round"></path><path d="M 84.000,171.500 C 85.998,171.745 86.157,171.841 87.871,172.871" stroke-width="16.853" stroke="rgb(33,33,33)" fill="none" stroke-linecap="round"></path><path d="M 87.871,172.871 C 89.196,173.668 89.214,173.839 90.077,175.154" stroke-width="16.825" stroke="rgb(33,33,33)" fill="none" stroke-linecap="round"></path><path d="M 90.077,175.154 C 91.689,177.611 91.777,177.663 92.821,180.415" stroke-width="16.146" stroke="rgb(33,33,33)" fill="none" stroke-linecap="round"></path><path d="M 92.821,180.415 C 93.739,182.836 93.699,182.925 94.000,185.500" stroke-width="15.349" stroke="rgb(33,33,33)" fill="none" stroke-linecap="round"></path><path d="M 94.000,185.500 C 94.288,187.967 94.230,188.022 94.000,190.500" stroke-width="15.365" stroke="rgb(33,33,33)" fill="none" stroke-linecap="round"></path><path d="M 94.000,190.500 C 93.774,192.934 93.870,193.034 93.088,195.324" stroke-width="15.391" stroke="rgb(33,33,33)" fill="none" stroke-linecap="round"></path><path d="M 93.088,195.324 C 92.525,196.973 92.161,196.832 91.310,198.380" stroke-width="15.647" stroke="rgb(33,33,33)" fill="none" stroke-linecap="round"></path><path d="M 91.310,198.380 C 90.782,199.341 90.891,199.405 90.329,200.342" stroke-width="16.036" stroke="rgb(33,33,33)" fill="none" stroke-linecap="round"></path><path d="M 90.329,200.342 C 89.910,201.041 89.888,201.040 89.348,201.652" stroke-width="16.485" stroke="rgb(33,33,33)" fill="none" stroke-linecap="round"></path><path d="M 89.348,201.652 C 88.658,202.434 88.625,202.408 87.870,203.130" stroke-width="16.752" stroke="rgb(33,33,33)" fill="none" stroke-linecap="round"></path><circle r="6" cx="134.5" cy="238" fill="rgb(33,33,33)"></circle><path d="M 159.500,162.000 C 159.500,168.942 159.500,168.942 159.500,175.883" stroke-width="19.595" stroke="rgb(33,33,33)" fill="none" stroke-linecap="round"></path><path d="M 159.500,175.883 C 159.500,181.256 159.500,181.256 159.500,186.630" stroke-width="17.560" stroke="rgb(33,33,33)" fill="none" stroke-linecap="round"></path><path d="M 159.500,186.630 C 159.500,191.994 159.402,191.996 159.500,197.359" stroke-width="16.216" stroke="rgb(33,33,33)" fill="none" stroke-linecap="round"></path><path d="M 159.500,197.359 C 159.611,203.433 159.466,203.452 159.917,209.504" stroke-width="14.990" stroke="rgb(33,33,33)" fill="none" stroke-linecap="round"></path><path d="M 134.500,175.000 C 140.779,166.885 140.195,166.334 147.057,158.769" stroke-width="19.273" stroke="rgb(33,33,33)" fill="none" stroke-linecap="round"></path><path d="M 147.057,158.769 C 151.626,153.731 152.141,154.200 157.362,149.793" stroke-width="16.717" stroke="rgb(33,33,33)" fill="none" stroke-linecap="round"></path><path d="M 157.362,149.793 C 163.072,144.974 162.992,144.859 168.919,140.317" stroke-width="15.167" stroke="rgb(33,33,33)" fill="none" stroke-linecap="round"></path><path d="M 168.919,140.317 C 173.011,137.181 173.017,137.128 177.400,134.438" stroke-width="14.494" stroke="rgb(33,33,33)" fill="none" stroke-linecap="round"></path><path d="M 185.000,181.500 C 185.145,186.328 185.101,186.331 185.289,191.157" stroke-width="19.674" stroke="rgb(33,33,33)" fill="none" stroke-linecap="round"></path><path d="M 185.289,191.157 C 185.351,192.740 185.292,192.753 185.500,194.318" stroke-width="19.091" stroke="rgb(33,33,33)" fill="none" stroke-linecap="round"></path><path d="M 185.500,194.318 C 185.647,195.424 185.827,195.400 186.000,196.500" stroke-width="18.839" stroke="rgb(33,33,33)" fill="none" stroke-linecap="round"></path><path d="M 186.000,196.500 C 186.077,196.991 186.000,197.000 186.000,197.500" stroke-width="18.896" stroke="rgb(33,33,33)" fill="none" stroke-linecap="round"></path><path d="M 186.000,197.500 C 186.000,198.500 186.000,198.500 186.000,199.500" stroke-width="18.709" stroke="rgb(33,33,33)" fill="none" stroke-linecap="round"></path><path d="M 186.000,199.500 C 186.000,200.500 186.000,201.500 186.000,201.500" stroke-width="18.563" stroke="rgb(33,33,33)" fill="none" stroke-linecap="round"></path><path d="M 186.000,201.500 C 186.000,201.500 186.000,200.500 186.000,199.500" stroke-width="18.738" stroke="rgb(33,33,33)" fill="none" stroke-linecap="round"></path><path d="M 186.000,199.500 C 186.000,196.500 185.497,196.419 186.000,193.500" stroke-width="17.839" stroke="rgb(33,33,33)" fill="none" stroke-linecap="round"></path><path d="M 186.000,193.500 C 186.581,190.126 186.983,190.170 188.168,186.913" stroke-width="17.021" stroke="rgb(33,33,33)" fill="none" stroke-linecap="round"></path><path d="M 188.168,186.913 C 189.325,183.735 189.189,183.652 190.685,180.630" stroke-width="16.379" stroke="rgb(33,33,33)" fill="none" stroke-linecap="round"></path><path d="M 190.685,180.630 C 191.947,178.080 192.118,178.155 193.685,175.769" stroke-width="16.119" stroke="rgb(33,33,33)" fill="none" stroke-linecap="round"></path><path d="M 193.685,175.769 C 194.813,174.052 194.740,173.979 196.075,172.425" stroke-width="16.117" stroke="rgb(33,33,33)" fill="none" stroke-linecap="round"></path><path d="M 196.075,172.425 C 197.651,170.591 197.791,170.709 199.507,168.993" stroke-width="16.043" stroke="rgb(33,33,33)" fill="none" stroke-linecap="round"></path><path d="M 199.507,168.993 C 200.735,167.765 200.735,167.765 201.963,166.537" stroke-width="16.159" stroke="rgb(33,33,33)" fill="none" stroke-linecap="round"></path><path d="M 201.963,166.537 C 203.199,165.302 203.130,165.222 204.434,164.066" stroke-width="16.282" stroke="rgb(33,33,33)" fill="none" stroke-linecap="round"></path><path d="M 204.434,164.066 C 205.341,163.262 205.362,163.266 206.384,162.616" stroke-width="16.550" stroke="rgb(33,33,33)" fill="none" stroke-linecap="round"></path><path d="M 206.384,162.616 C 207.315,162.023 207.388,162.142 208.340,161.580" stroke-width="16.784" stroke="rgb(33,33,33)" fill="none" stroke-linecap="round"></path><path d="M 208.340,161.580 C 209.103,161.130 209.071,161.076 209.814,160.593" stroke-width="17.073" stroke="rgb(33,33,33)" fill="none" stroke-linecap="round"></path><path d="M 209.814,160.593 C 209.901,160.536 209.898,160.508 210.000,160.500" stroke-width="17.587" stroke="rgb(33,33,33)" fill="none" stroke-linecap="round"></path><path d="M 210.000,160.500 C 210.491,160.461 210.758,160.171 211.000,160.500" stroke-width="17.874" stroke="rgb(33,33,33)" fill="none" stroke-linecap="round"></path><path d="M 211.000,160.500 C 211.508,161.193 211.361,161.504 211.500,162.544" stroke-width="17.879" stroke="rgb(33,33,33)" fill="none" stroke-linecap="round"></path><path d="M 211.500,162.544 C 211.765,164.525 211.682,164.541 211.808,166.542" stroke-width="17.598" stroke="rgb(33,33,33)" fill="none" stroke-linecap="round"></path><path d="M 211.808,166.542 C 211.932,168.519 211.894,168.522 212.000,170.500" stroke-width="17.307" stroke="rgb(33,33,33)" fill="none" stroke-linecap="round"></path><path d="M 212.000,170.500 C 212.130,172.922 212.120,172.923 212.281,175.343" stroke-width="16.972" stroke="rgb(33,33,33)" fill="none" stroke-linecap="round"></path><path d="M 212.281,175.343 C 212.370,176.676 212.215,176.756 212.500,178.006" stroke-width="17.047" stroke="rgb(33,33,33)" fill="none" stroke-linecap="round"></path><path d="M 212.500,178.006 C 212.575,178.335 212.859,178.186 213.000,178.500" stroke-width="17.478" stroke="rgb(33,33,33)" fill="none" stroke-linecap="round"></path><path d="M 213.000,178.500 C 213.469,179.543 213.130,179.850 213.721,180.721" stroke-width="17.542" stroke="rgb(33,33,33)" fill="none" stroke-linecap="round"></path><path d="M 213.721,180.721 C 213.978,181.100 214.199,180.929 214.697,181.000" stroke-width="17.823" stroke="rgb(33,33,33)" fill="none" stroke-linecap="round"></path><path d="M 214.697,181.000 C 215.177,181.068 215.260,181.208 215.676,181.000" stroke-width="18.073" stroke="rgb(33,33,33)" fill="none" stroke-linecap="round"></path><path d="M 215.676,181.000 C 216.564,180.556 216.588,180.446 217.305,179.695" stroke-width="18.041" stroke="rgb(33,33,33)" fill="none" stroke-linecap="round"></path><path d="M 217.305,179.695 C 218.455,178.491 218.502,178.488 219.410,177.090" stroke-width="17.804" stroke="rgb(33,33,33)" fill="none" stroke-linecap="round"></path><path d="M 219.410,177.090 C 220.469,175.461 220.355,175.381 221.240,173.641" stroke-width="17.477" stroke="rgb(33,33,33)" fill="none" stroke-linecap="round"></path><path d="M 221.240,173.641 C 221.701,172.734 221.515,172.605 222.102,171.797" stroke-width="17.595" stroke="rgb(33,33,33)" fill="none" stroke-linecap="round"></path><path d="M 222.102,171.797 C 222.684,170.995 223.098,171.256 223.579,170.421" stroke-width="17.694" stroke="rgb(33,33,33)" fill="none" stroke-linecap="round"></path><path d="M 223.579,170.421 C 224.047,169.607 223.529,169.137 224.000,168.500" stroke-width="17.761" stroke="rgb(33,33,33)" fill="none" stroke-linecap="round"></path><path d="M 224.000,168.500 C 224.240,168.176 224.500,168.500 225.000,168.500" stroke-width="18.018" stroke="rgb(33,33,33)" fill="none" stroke-linecap="round"></path><path d="M 225.000,168.500 C 225.500,168.500 225.500,168.500 226.000,168.500" stroke-width="18.217" stroke="rgb(33,33,33)" fill="none" stroke-linecap="round"></path><path d="M 226.000,168.500 C 226.500,168.500 226.500,168.500 227.000,168.500" stroke-width="18.391" stroke="rgb(33,33,33)" fill="none" stroke-linecap="round"></path><path d="M 227.000,168.500 C 227.000,168.500 227.000,168.500 227.000,168.500" stroke-width="18.735" stroke="rgb(33,33,33)" fill="none" stroke-linecap="round"></path><path d="M 227.000,168.500 C 228.231,168.981 228.229,168.987 229.463,169.463" stroke-width="18.447" stroke="rgb(33,33,33)" fill="none" stroke-linecap="round"></path><path d="M 229.463,169.463 C 230.174,169.737 230.153,169.862 230.890,170.000" stroke-width="18.474" stroke="rgb(33,33,33)" fill="none" stroke-linecap="round"></path><path d="M 230.890,170.000 C 231.585,170.130 231.608,170.000 232.327,170.000" stroke-width="18.513" stroke="rgb(33,33,33)" fill="none" stroke-linecap="round"></path><path d="M 232.327,170.000 C 233.110,170.000 233.241,170.342 233.894,170.000" stroke-width="18.519" stroke="rgb(33,33,33)" fill="none" stroke-linecap="round"></path><path d="M 233.894,170.000 C 235.134,169.351 235.308,169.251 236.112,168.018" stroke-width="18.211" stroke="rgb(33,33,33)" fill="none" stroke-linecap="round"></path><path d="M 236.112,168.018 C 238.746,163.980 238.797,163.901 240.771,159.459" stroke-width="16.716" stroke="rgb(33,33,33)" fill="none" stroke-linecap="round"></path><path d="M 240.771,159.459 C 243.561,153.182 243.393,153.084 245.640,146.579" stroke-width="15.317" stroke="rgb(33,33,33)" fill="none" stroke-linecap="round"></path><path d="M 245.640,146.579 C 247.735,140.512 247.797,140.512 249.455,134.316" stroke-width="14.278" stroke="rgb(33,33,33)" fill="none" stroke-linecap="round"></path><path d="M 249.455,134.316 C 250.622,129.957 250.327,129.882 251.290,125.469" stroke-width="13.990" stroke="rgb(33,33,33)" fill="none" stroke-linecap="round"></path><path d="M 251.290,125.469 C 251.733,123.440 251.810,123.458 252.267,121.432" stroke-width="14.394" stroke="rgb(33,33,33)" fill="none" stroke-linecap="round"></path><path d="M 252.267,121.432 C 252.539,120.225 252.521,120.221 252.748,119.005" stroke-width="14.929" stroke="rgb(33,33,33)" fill="none" stroke-linecap="round"></path><path d="M 252.748,119.005 C 252.888,118.255 252.924,118.257 253.000,117.500" stroke-width="15.540" stroke="rgb(33,33,33)" fill="none" stroke-linecap="round"></path><path d="M 253.000,117.500 C 253.050,117.004 253.000,116.143 253.000,116.500" stroke-width="16.154" stroke="rgb(33,33,33)" fill="none" stroke-linecap="round"></path><path d="M 253.000,116.500 C 253.000,118.643 253.000,119.500 253.000,122.500" stroke-width="16.341" stroke="rgb(33,33,33)" fill="none" stroke-linecap="round"></path><path d="M 253.000,122.500 C 253.000,126.500 253.179,126.509 253.000,130.500" stroke-width="15.817" stroke="rgb(33,33,33)" fill="none" stroke-linecap="round"></path><path d="M 253.000,130.500 C 252.861,133.602 252.531,133.589 252.363,136.686" stroke-width="15.554" stroke="rgb(33,33,33)" fill="none" stroke-linecap="round"></path><path d="M 252.363,136.686 C 252.281,138.192 252.487,138.197 252.500,139.707" stroke-width="15.998" stroke="rgb(33,33,33)" fill="none" stroke-linecap="round"></path><path d="M 252.500,139.707 C 252.508,140.652 252.568,140.679 252.404,141.596" stroke-width="16.140" stroke="rgb(33,33,33)" fill="none" stroke-linecap="round"></path><path d="M 252.404,141.596 C 252.318,142.076 252.202,142.048 252.000,142.500" stroke-width="16.662" stroke="rgb(33,33,33)" fill="none" stroke-linecap="round"></path><path d="M 252.000,142.500 C 252.000,142.500 252.000,142.500 252.000,142.500" stroke-width="17.274" stroke="rgb(33,33,33)" fill="none" stroke-linecap="round"></path><path d="M 252.000,142.500 C 252.760,142.230 252.878,142.419 253.520,141.960" stroke-width="17.630" stroke="rgb(33,33,33)" fill="none" stroke-linecap="round"></path><path d="M 253.520,141.960 C 254.632,141.165 254.457,140.910 255.508,139.992" stroke-width="17.582" stroke="rgb(33,33,33)" fill="none" stroke-linecap="round"></path><path d="M 255.508,139.992 C 256.426,139.190 256.539,139.322 257.458,138.521" stroke-width="17.606" stroke="rgb(33,33,33)" fill="none" stroke-linecap="round"></path><path d="M 257.458,138.521 C 258.483,137.628 258.375,137.505 259.395,136.605" stroke-width="17.545" stroke="rgb(33,33,33)" fill="none" stroke-linecap="round"></path><path d="M 259.395,136.605 C 260.335,135.775 260.325,135.736 261.378,135.061" stroke-width="17.564" stroke="rgb(33,33,33)" fill="none" stroke-linecap="round"></path><path d="M 261.378,135.061 C 262.290,134.477 262.304,134.399 263.324,134.088" stroke-width="17.640" stroke="rgb(33,33,33)" fill="none" stroke-linecap="round"></path><path d="M 263.324,134.088 C 264.042,133.869 264.088,134.021 264.853,134.000" stroke-width="17.820" stroke="rgb(33,33,33)" fill="none" stroke-linecap="round"></path><path d="M 264.853,134.000 C 265.676,133.977 266.014,133.585 266.500,134.000" stroke-width="17.926" stroke="rgb(33,33,33)" fill="none" stroke-linecap="round"></path><path d="M 266.500,134.000 C 267.016,134.440 266.733,134.848 266.856,135.711" stroke-width="17.991" stroke="rgb(33,33,33)" fill="none" stroke-linecap="round"></path><path d="M 266.856,135.711 C 266.983,136.598 266.973,136.604 267.000,137.500" stroke-width="18.074" stroke="rgb(33,33,33)" fill="none" stroke-linecap="round"></path><path d="M 267.000,137.500 C 267.045,138.998 267.000,139.000 267.000,140.500" stroke-width="17.860" stroke="rgb(33,33,33)" fill="none" stroke-linecap="round"></path><path d="M 267.000,140.500 C 267.000,141.500 267.000,141.500 267.000,142.500" stroke-width="17.932" stroke="rgb(33,33,33)" fill="none" stroke-linecap="round"></path><path d="M 267.000,142.500 C 267.000,143.500 266.783,143.560 267.000,144.500" stroke-width="17.945" stroke="rgb(33,33,33)" fill="none" stroke-linecap="round"></path><path d="M 267.000,144.500 C 267.158,145.185 267.302,145.202 267.750,145.750" stroke-width="18.065" stroke="rgb(33,33,33)" fill="none" stroke-linecap="round"></path><path d="M 267.750,145.750 C 267.915,145.952 267.968,145.956 268.226,146.000" stroke-width="18.351" stroke="rgb(33,33,33)" fill="none" stroke-linecap="round"></path><path d="M 268.226,146.000 C 268.700,146.081 268.736,146.105 269.213,146.000" stroke-width="18.524" stroke="rgb(33,33,33)" fill="none" stroke-linecap="round"></path><path d="M 269.213,146.000 C 270.320,145.756 270.445,145.900 271.394,145.303" stroke-width="18.288" stroke="rgb(33,33,33)" fill="none" stroke-linecap="round"></path><path d="M 271.394,145.303 C 272.852,144.386 272.668,144.084 274.028,142.972" stroke-width="17.965" stroke="rgb(33,33,33)" fill="none" stroke-linecap="round"></path><path d="M 274.028,142.972 C 274.874,142.280 274.923,142.341 275.806,141.694" stroke-width="17.934" stroke="rgb(33,33,33)" fill="none" stroke-linecap="round"></path><path d="M 275.806,141.694 C 276.797,140.968 276.724,140.844 277.775,140.225" stroke-width="17.886" stroke="rgb(33,33,33)" fill="none" stroke-linecap="round"></path><path d="M 277.775,140.225 C 278.681,139.692 278.761,139.836 279.720,139.390" stroke-width="17.932" stroke="rgb(33,33,33)" fill="none" stroke-linecap="round"></path><path d="M 279.720,139.390 C 280.718,138.926 280.662,138.685 281.689,138.406" stroke-width="17.877" stroke="rgb(33,33,33)" fill="none" stroke-linecap="round"></path><path d="M 281.689,138.406 C 282.302,138.240 282.343,138.481 283.000,138.500" stroke-width="18.053" stroke="rgb(33,33,33)" fill="none" stroke-linecap="round"></path><path d="M 283.000,138.500 C 283.999,138.528 284.000,138.500 285.000,138.500" stroke-width="18.043" stroke="rgb(33,33,33)" fill="none" stroke-linecap="round"></path><path d="M 285.000,138.500 C 285.500,138.500 285.500,138.500 286.000,138.500" stroke-width="18.260" stroke="rgb(33,33,33)" fill="none" stroke-linecap="round"></path><path d="M 286.000,138.500 C 287.000,138.500 287.016,138.376 288.000,138.500" stroke-width="18.253" stroke="rgb(33,33,33)" fill="none" stroke-linecap="round"></path><path d="M 288.000,138.500 C 288.994,138.626 289.015,138.650 289.957,139.000" stroke-width="18.198" stroke="rgb(33,33,33)" fill="none" stroke-linecap="round"></path><path d="M 289.957,139.000 C 290.963,139.374 290.927,139.471 291.895,139.948" stroke-width="18.195" stroke="rgb(33,33,33)" fill="none" stroke-linecap="round"></path><path d="M 291.895,139.948 C 292.449,140.221 292.408,140.342 293.000,140.500" stroke-width="18.254" stroke="rgb(33,33,33)" fill="none" stroke-linecap="round"></path><path d="M 293.000,140.500 C 294.381,140.868 294.449,140.652 295.840,141.000" stroke-width="18.183" stroke="rgb(33,33,33)" fill="none" stroke-linecap="round"></path><path d="M 295.840,141.000 C 296.449,141.152 296.384,141.426 297.000,141.500" stroke-width="18.237" stroke="rgb(33,33,33)" fill="none" stroke-linecap="round"></path><path d="M 297.000,141.500 C 298.464,141.676 298.517,141.664 300.000,141.500" stroke-width="17.947" stroke="rgb(33,33,33)" fill="none" stroke-linecap="round"></path><path d="M 300.000,141.500 C 301.815,141.299 301.882,141.370 303.596,140.769" stroke-width="17.631" stroke="rgb(33,33,33)" fill="none" stroke-linecap="round"></path><path d="M 303.596,140.769 C 305.225,140.198 305.237,140.108 306.687,139.156" stroke-width="17.459" stroke="rgb(33,33,33)" fill="none" stroke-linecap="round"></path><path d="M 306.687,139.156 C 308.091,138.234 308.098,138.198 309.304,137.022" stroke-width="17.307" stroke="rgb(33,33,33)" fill="none" stroke-linecap="round"></path><path d="M 309.304,137.022 C 311.364,135.011 311.265,134.905 313.219,132.781" stroke-width="16.819" stroke="rgb(33,33,33)" fill="none" stroke-linecap="round"></path><path d="M 313.219,132.781 C 314.792,131.071 314.836,131.108 316.359,129.355" stroke-width="16.628" stroke="rgb(33,33,33)" fill="none" stroke-linecap="round"></path><path d="M 316.359,129.355 C 317.357,128.206 317.325,128.177 318.262,126.976" stroke-width="16.734" stroke="rgb(33,33,33)" fill="none" stroke-linecap="round"></path><path d="M 318.262,126.976 C 319.017,126.008 318.941,125.943 319.742,125.016" stroke-width="16.892" stroke="rgb(33,33,33)" fill="none" stroke-linecap="round"></path><path d="M 319.742,125.016 C 320.423,124.228 320.527,124.320 321.227,123.547" stroke-width="17.109" stroke="rgb(33,33,33)" fill="none" stroke-linecap="round"></path><path d="M 321.227,123.547 C 321.761,122.957 321.811,122.975 322.209,122.291" stroke-width="17.355" stroke="rgb(33,33,33)" fill="none" stroke-linecap="round"></path><path d="M 322.209,122.291 C 322.698,121.451 322.605,121.396 323.000,120.500" stroke-width="17.510" stroke="rgb(33,33,33)" fill="none" stroke-linecap="round"></path><path d="M 323.000,120.500 C 323.000,120.500 323.000,120.500 323.000,120.500" stroke-width="17.997" stroke="rgb(33,33,33)" fill="none" stroke-linecap="round"></path><path d="M 323.000,120.500 C 322.694,121.306 322.519,121.280 322.388,122.112" stroke-width="18.292" stroke="rgb(33,33,33)" fill="none" stroke-linecap="round"></path><path d="M 322.388,122.112 C 322.269,122.872 322.621,122.941 322.500,123.683" stroke-width="18.340" stroke="rgb(33,33,33)" fill="none" stroke-linecap="round"></path><path d="M 322.500,123.683 C 322.427,124.135 322.081,124.044 322.000,124.500" stroke-width="18.488" stroke="rgb(33,33,33)" fill="none" stroke-linecap="round"></path><path d="M 322.000,124.500 C 321.831,125.452 322.000,125.500 322.000,126.500" stroke-width="18.413" stroke="rgb(33,33,33)" fill="none" stroke-linecap="round"></path><path d="M 322.000,126.500 C 322.000,127.500 321.837,127.539 322.000,128.500" stroke-width="18.329" stroke="rgb(33,33,33)" fill="none" stroke-linecap="round"></path><path d="M 322.000,128.500 C 322.092,129.044 322.220,129.025 322.510,129.510" stroke-width="18.457" stroke="rgb(33,33,33)" fill="none" stroke-linecap="round"></path><path d="M 322.510,129.510 C 322.965,130.270 322.838,130.462 323.490,130.990" stroke-width="18.432" stroke="rgb(33,33,33)" fill="none" stroke-linecap="round"></path><path d="M 323.490,130.990 C 324.042,131.436 324.195,131.255 324.917,131.458" stroke-width="18.467" stroke="rgb(33,33,33)" fill="none" stroke-linecap="round"></path><path d="M 324.917,131.458 C 325.891,131.731 325.886,131.805 326.883,131.942" stroke-width="18.366" stroke="rgb(33,33,33)" fill="none" stroke-linecap="round"></path><path d="M 326.883,131.942 C 327.853,132.076 327.867,131.987 328.852,132.000" stroke-width="18.298" stroke="rgb(33,33,33)" fill="none" stroke-linecap="round"></path><path d="M 328.852,132.000 C 330.040,132.016 330.040,132.000 331.228,132.000" stroke-width="18.189" stroke="rgb(33,33,33)" fill="none" stroke-linecap="round"></path><path d="M 174.000,243.500 C 184.086,236.227 183.841,235.862 194.172,228.953" stroke-width="18.349" stroke="rgb(33,33,33)" fill="none" stroke-linecap="round"></path><path d="M 194.172,228.953 C 206.203,220.908 206.160,220.765 218.725,213.592" stroke-width="14.015" stroke="rgb(33,33,33)" fill="none" stroke-linecap="round"></path><path d="M 218.725,213.592 C 229.832,207.252 230.284,208.061 241.515,201.927" stroke-width="12.458" stroke="rgb(33,33,33)" fill="none" stroke-linecap="round"></path><path d="M 241.515,201.927 C 253.082,195.609 252.831,195.154 264.320,188.689" stroke-width="11.066" stroke="rgb(33,33,33)" fill="none" stroke-linecap="round"></path><path d="M 264.320,188.689 C 272.698,183.974 272.695,183.952 281.248,179.568" stroke-width="10.634" stroke="rgb(33,33,33)" fill="none" stroke-linecap="round"></path><path d="M 281.248,179.568 C 286.551,176.850 286.525,176.736 292.032,174.484" stroke-width="10.865" stroke="rgb(33,33,33)" fill="none" stroke-linecap="round"></path><path d="M 292.032,174.484 C 295.978,172.870 296.102,173.185 300.155,171.836" stroke-width="11.264" stroke="rgb(33,33,33)" fill="none" stroke-linecap="round"></path><path d="M 300.155,171.836 C 301.416,171.416 301.382,171.222 302.660,170.947" stroke-width="12.115" stroke="rgb(33,33,33)" fill="none" stroke-linecap="round"></path><path d="M 302.660,170.947 C 303.325,170.804 303.429,170.810 304.042,171.000" stroke-width="13.036" stroke="rgb(33,33,33)" fill="none" stroke-linecap="round"></path><path d="M 304.042,171.000 C 304.349,171.095 304.661,171.230 304.500,171.518" stroke-width="13.957" stroke="rgb(33,33,33)" fill="none" stroke-linecap="round"></path><path d="M 304.500,171.518 C 302.153,175.712 302.195,176.071 299.026,179.965" stroke-width="13.622" stroke="rgb(33,33,33)" fill="none" stroke-linecap="round"></path><path d="M 299.026,179.965 C 291.321,189.435 291.378,189.593 282.753,198.247" stroke-width="11.946" stroke="rgb(33,33,33)" fill="none" stroke-linecap="round"></path><path d="M 282.753,198.247 C 273.958,207.072 273.709,206.871 264.185,214.923" stroke-width="10.947" stroke="rgb(33,33,33)" fill="none" stroke-linecap="round"></path><path d="M 264.185,214.923 C 256.759,221.202 256.579,220.995 248.854,226.909" stroke-width="10.745" stroke="rgb(33,33,33)" fill="none" stroke-linecap="round"></path><path d="M 248.854,226.909 C 243.917,230.688 243.886,230.650 238.861,234.311" stroke-width="10.809" stroke="rgb(33,33,33)" fill="none" stroke-linecap="round"></path><path d="M 238.861,234.311 C 236.417,236.091 236.295,235.935 233.916,237.792" stroke-width="11.412" stroke="rgb(33,33,33)" fill="none" stroke-linecap="round"></path><path d="M 233.916,237.792 C 232.486,238.908 232.565,239.008 231.244,240.256" stroke-width="12.162" stroke="rgb(33,33,33)" fill="none" stroke-linecap="round"></path><path d="M 231.244,240.256 C 230.678,240.791 230.693,240.806 230.143,241.357" stroke-width="13.062" stroke="rgb(33,33,33)" fill="none" stroke-linecap="round"></path><path d="M 230.143,241.357 C 229.946,241.553 229.533,241.863 229.750,241.750" stroke-width="13.997" stroke="rgb(33,33,33)" fill="none" stroke-linecap="round"></path><path d="M 229.750,241.750 C 233.085,240.019 233.513,239.735 237.247,237.669" stroke-width="14.354" stroke="rgb(33,33,33)" fill="none" stroke-linecap="round"></path><path d="M 237.247,237.669 C 242.062,235.005 242.128,235.114 246.848,232.291" stroke-width="13.888" stroke="rgb(33,33,33)" fill="none" stroke-linecap="round"></path><path d="M 246.848,232.291 C 250.646,230.020 250.546,229.855 254.284,227.481" stroke-width="13.769" stroke="rgb(33,33,33)" fill="none" stroke-linecap="round"></path><path d="M 254.284,227.481 C 256.853,225.849 256.895,225.915 259.461,224.279" stroke-width="13.984" stroke="rgb(33,33,33)" fill="none" stroke-linecap="round"></path><path d="M 259.461,224.279 C 260.970,223.317 260.970,223.314 262.433,222.284" stroke-width="14.431" stroke="rgb(33,33,33)" fill="none" stroke-linecap="round"></path><path d="M 262.433,222.284 C 263.440,221.575 263.361,221.452 264.401,220.800" stroke-width="14.982" stroke="rgb(33,33,33)" fill="none" stroke-linecap="round"></path><path d="M 264.401,220.800 C 265.324,220.221 265.424,220.382 266.358,219.821" stroke-width="15.493" stroke="rgb(33,33,33)" fill="none" stroke-linecap="round"></path><path d="M 266.358,219.821 C 267.050,219.405 266.991,219.313 267.654,218.846" stroke-width="15.997" stroke="rgb(33,33,33)" fill="none" stroke-linecap="round"></path><path d="M 267.654,218.846 C 268.382,218.332 268.348,218.251 269.140,217.860" stroke-width="16.414" stroke="rgb(33,33,33)" fill="none" stroke-linecap="round"></path><path d="M 269.140,217.860 C 269.829,217.520 269.885,217.640 270.617,217.383" stroke-width="16.786" stroke="rgb(33,33,33)" fill="none" stroke-linecap="round"></path><path d="M 270.617,217.383 C 271.111,217.210 271.146,217.266 271.593,217.000" stroke-width="17.199" stroke="rgb(33,33,33)" fill="none" stroke-linecap="round"></path><path d="M 271.593,217.000 C 272.377,216.535 272.306,216.410 273.079,215.921" stroke-width="17.404" stroke="rgb(33,33,33)" fill="none" stroke-linecap="round"></path><path d="M 273.079,215.921 C 273.539,215.630 273.569,215.680 274.060,215.440" stroke-width="17.693" stroke="rgb(33,33,33)" fill="none" stroke-linecap="round"></path><path d="M 274.060,215.440 C 274.548,215.201 274.547,215.201 275.036,214.964" stroke-width="17.946" stroke="rgb(33,33,33)" fill="none" stroke-linecap="round"></path><path d="M 275.036,214.964 C 275.517,214.731 275.559,214.790 276.000,214.500" stroke-width="18.144" stroke="rgb(33,33,33)" fill="none" stroke-linecap="round"></path><path d="M 276.000,214.500 C 276.292,214.308 276.252,214.251 276.502,214.000" stroke-width="18.389" stroke="rgb(33,33,33)" fill="none" stroke-linecap="round"></path><path d="M 276.502,214.000 C 276.752,213.751 276.712,213.697 277.000,213.500" stroke-width="18.582" stroke="rgb(33,33,33)" fill="none" stroke-linecap="round"></path><path d="M 277.000,213.500 C 277.444,213.197 277.527,213.313 277.965,213.000" stroke-width="18.784" stroke="rgb(33,33,33)" fill="none" stroke-linecap="round"></path><path d="M 277.965,213.000 C 278.402,212.688 278.315,212.560 278.750,212.250" stroke-width="18.312" stroke="rgb(33,33,33)" fill="none" stroke-linecap="round"></path><path d="M 278.750,212.250 C 279.016,212.060 279.302,212.194 279.367,212.000" stroke-width="18.507" stroke="rgb(33,33,33)" fill="none" stroke-linecap="round"></path><path d="M 279.367,212.000 C 279.427,211.819 278.849,211.648 279.000,211.500" stroke-width="18.677" stroke="rgb(33,33,33)" fill="none" stroke-linecap="round"></path><path d="M 279.000,211.500 C 279.358,211.148 279.729,211.316 280.385,211.000" stroke-width="18.629" stroke="rgb(33,33,33)" fill="none" stroke-linecap="round"></path><path d="M 280.385,211.000 C 280.694,210.851 280.671,210.801 280.929,210.571" stroke-width="18.789" stroke="rgb(33,33,33)" fill="none" stroke-linecap="round"></path><path d="M 280.929,210.571 C 281.188,210.341 281.175,210.326 281.420,210.080" stroke-width="18.919" stroke="rgb(33,33,33)" fill="none" stroke-linecap="round"></path><path d="M 281.420,210.080 C 281.579,209.922 281.578,209.921 281.737,209.763" stroke-width="19.070" stroke="rgb(33,33,33)" fill="none" stroke-linecap="round"></path><path d="M 281.737,209.763 C 281.868,209.631 281.868,209.631 282.000,209.500" stroke-width="19.209" stroke="rgb(33,33,33)" fill="none" stroke-linecap="round"></path><path d="M 282.000,209.500 C 282.000,209.500 282.000,209.500 282.000,209.500" stroke-width="19.409" stroke="rgb(33,33,33)" fill="none" stroke-linecap="round"></path></svg>