<svg xmlns="http://www.w3.org/2000/svg" xmlns:xlink="http://www.w3.org/1999/xlink" viewBox="0 0 800 500"><path d="M 384.500,189.500 C 384.500,190.000 384.500,190.000 384.500,190.500" stroke-width="20.203" stroke="rgb(33,33,33)" fill="none" stroke-linecap="round"></path><path d="M 384.500,190.500 C 384.500,193.500 384.334,193.507 384.500,196.500" stroke-width="18.050" stroke="rgb(33,33,33)" fill="none" stroke-linecap="round"></path><path d="M 384.500,196.500 C 384.834,202.507 385.293,202.488 385.500,208.500" stroke-width="15.131" stroke="rgb(33,33,33)" fill="none" stroke-linecap="round"></path><path d="M 385.500,208.500 C 385.793,216.988 385.042,217.023 385.500,225.500" stroke-width="11.529" stroke="rgb(33,33,33)" fill="none" stroke-linecap="round"></path><path d="M 385.500,225.500 C 386.042,235.523 386.846,235.476 387.500,245.500" stroke-width="10.089" stroke="rgb(33,33,33)" fill="none" stroke-linecap="round"></path><path d="M 387.500,245.500 C 388.346,258.476 387.705,258.518 388.500,271.500" stroke-width="6.750" stroke="rgb(33,33,33)" fill="none" stroke-linecap="round"></path><path d="M 388.500,271.500 C 389.205,283.018 389.988,282.979 390.500,294.500" stroke-width="6.750" stroke="rgb(33,33,33)" fill="none" stroke-linecap="round"></path><path d="M 390.500,294.500 C 390.988,305.479 390.500,305.500 390.500,316.500" stroke-width="6.750" stroke="rgb(33,33,33)" fill="none" stroke-linecap="round"></path><path d="M 390.500,316.500 C 390.500,324.000 390.233,324.010 390.500,331.500" stroke-width="6.750" stroke="rgb(33,33,33)" fill="none" stroke-linecap="round"></path><path d="M 390.500,331.500 C 390.733,338.010 391.175,337.993 391.500,344.500" stroke-width="6.750" stroke="rgb(33,33,33)" fill="none" stroke-linecap="round"></path><path d="M 391.500,344.500 C 391.675,347.993 391.500,348.000 391.500,351.500" stroke-width="6.750" stroke="rgb(33,33,33)" fill="none" stroke-linecap="round"></path><path d="M 391.500,351.500 C 391.500,353.000 391.214,353.068 391.500,354.500" stroke-width="7.472" stroke="rgb(33,33,33)" fill="none" stroke-linecap="round"></path><path d="M 391.500,354.500 C 391.714,355.568 392.236,355.444 392.500,356.500" stroke-width="8.393" stroke="rgb(33,33,33)" fill="none" stroke-linecap="round"></path><path d="M 392.500,356.500 C 392.736,357.444 392.500,357.500 392.500,358.500" stroke-width="9.080" stroke="rgb(33,33,33)" fill="none" stroke-linecap="round"></path><path d="M 392.500,358.500 C 392.500,359.000 392.500,359.800 392.500,359.500" stroke-width="10.104" stroke="rgb(33,33,33)" fill="none" stroke-linecap="round"></path><path d="M 392.500,359.500 C 392.500,358.300 392.500,357.500 392.500,355.500" stroke-width="11.187" stroke="rgb(33,33,33)" fill="none" stroke-linecap="round"></path><path d="M 392.500,355.500 C 392.500,353.000 392.500,353.000 392.500,350.500" stroke-width="10.957" stroke="rgb(33,33,33)" fill="none" stroke-linecap="round"></path><path d="M 392.500,350.500 C 392.500,347.500 392.500,347.500 392.500,344.500" stroke-width="10.555" stroke="rgb(33,33,33)" fill="none" stroke-linecap="round"></path><path d="M 392.500,344.500 C 392.500,341.000 392.500,341.000 392.500,337.500" stroke-width="10.801" stroke="rgb(33,33,33)" fill="none" stroke-linecap="round"></path><path d="M 392.500,337.500 C 392.500,329.500 392.500,329.500 392.500,321.500" stroke-width="10.725" stroke="rgb(33,33,33)" fill="none" stroke-linecap="round"></path><path d="M 392.500,321.500 C 392.500,316.500 392.500,316.500 392.500,311.500" stroke-width="10.478" stroke="rgb(33,33,33)" fill="none" stroke-linecap="round"></path><path d="M 392.500,311.500 C 392.500,307.500 392.500,307.500 392.500,303.500" stroke-width="10.255" stroke="rgb(33,33,33)" fill="none" stroke-linecap="round"></path><path d="M 392.500,303.500 C 392.500,299.500 392.500,299.500 392.500,295.500" stroke-width="10.345" stroke="rgb(33,33,33)" fill="none" stroke-linecap="round"></path><path d="M 392.500,295.500 C 392.500,291.000 392.500,291.000 392.500,286.500" stroke-width="10.406" stroke="rgb(33,33,33)" fill="none" stroke-linecap="round"></path><path d="M 392.500,286.500 C 392.500,283.000 392.500,283.000 392.500,279.500" stroke-width="9.107" stroke="rgb(33,33,33)" fill="none" stroke-linecap="round"></path><path d="M 392.500,279.500 C 392.500,276.500 392.500,276.500 392.500,273.500" stroke-width="9.648" stroke="rgb(33,33,33)" fill="none" stroke-linecap="round"></path><path d="M 392.500,273.500 C 392.500,269.000 392.500,269.000 392.500,264.500" stroke-width="9.293" stroke="rgb(33,33,33)" fill="none" stroke-linecap="round"></path><path d="M 392.500,264.500 C 392.500,260.000 392.500,260.000 392.500,255.500" stroke-width="9.611" stroke="rgb(33,33,33)" fill="none" stroke-linecap="round"></path><path d="M 392.500,255.500 C 392.500,250.000 392.500,250.000 392.500,244.500" stroke-width="9.507" stroke="rgb(33,33,33)" fill="none" stroke-linecap="round"></path><path d="M 392.500,244.500 C 392.500,238.500 392.270,238.492 392.500,232.500" stroke-width="8.087" stroke="rgb(33,33,33)" fill="none" stroke-linecap="round"></path><path d="M 392.500,232.500 C 392.770,225.492 393.230,225.508 393.500,218.500" stroke-width="8.153" stroke="rgb(33,33,33)" fill="none" stroke-linecap="round"></path><path d="M 393.500,218.500 C 393.730,212.508 393.500,212.500 393.500,206.500" stroke-width="7.827" stroke="rgb(33,33,33)" fill="none" stroke-linecap="round"></path><path d="M 393.500,206.500 C 393.500,201.000 393.500,201.000 393.500,195.500" stroke-width="8.199" stroke="rgb(33,33,33)" fill="none" stroke-linecap="round"></path><path d="M 393.500,195.500 C 393.500,190.500 393.500,190.500 393.500,185.500" stroke-width="8.589" stroke="rgb(33,33,33)" fill="none" stroke-linecap="round"></path><path d="M 393.500,185.500 C 393.500,183.500 393.500,183.500 393.500,181.500" stroke-width="9.016" stroke="rgb(33,33,33)" fill="none" stroke-linecap="round"></path><path d="M 393.500,181.500 C 393.500,180.500 393.500,180.500 393.500,179.500" stroke-width="9.942" stroke="rgb(33,33,33)" fill="none" stroke-linecap="round"></path><path d="M 393.500,179.500 C 393.500,179.000 393.750,178.750 393.500,178.500" stroke-width="10.774" stroke="rgb(33,33,33)" fill="none" stroke-linecap="round"></path><path d="M 393.500,178.500 C 393.250,178.250 392.750,178.250 392.500,178.500" stroke-width="11.852" stroke="rgb(33,33,33)" fill="none" stroke-linecap="round"></path><path d="M 392.500,178.500 C 392.250,178.750 392.500,179.000 392.500,179.500" stroke-width="12.861" stroke="rgb(33,33,33)" fill="none" stroke-linecap="round"></path><path d="M 392.500,179.500 C 392.500,180.000 392.500,180.000 392.500,180.500" stroke-width="13.686" stroke="rgb(33,33,33)" fill="none" stroke-linecap="round"></path><path d="M 392.500,180.500 C 392.500,181.500 392.500,181.500 392.500,182.500" stroke-width="13.648" stroke="rgb(33,33,33)" fill="none" stroke-linecap="round"></path><path d="M 392.500,182.500 C 392.500,183.500 392.500,183.500 392.500,184.500" stroke-width="14.191" stroke="rgb(33,33,33)" fill="none" stroke-linecap="round"></path><path d="M 392.500,184.500 C 392.500,185.500 392.500,185.500 392.500,186.500" stroke-width="14.728" stroke="rgb(33,33,33)" fill="none" stroke-linecap="round"></path><path d="M 392.500,186.500 C 392.500,188.000 392.500,188.000 392.500,189.500" stroke-width="13.966" stroke="rgb(33,33,33)" fill="none" stroke-linecap="round"></path><path d="M 392.500,189.500 C 392.500,191.000 392.500,191.000 392.500,192.500" stroke-width="14.261" stroke="rgb(33,33,33)" fill="none" stroke-linecap="round"></path><path d="M 392.500,192.500 C 392.500,194.500 392.280,194.522 392.500,196.500" stroke-width="13.782" stroke="rgb(33,33,33)" fill="none" stroke-linecap="round"></path><path d="M 392.500,196.500 C 392.780,199.022 392.947,199.012 393.500,201.500" stroke-width="13.706" stroke="rgb(33,33,33)" fill="none" stroke-linecap="round"></path><path d="M 393.500,201.500 C 393.947,203.512 394.246,203.470 394.500,205.500" stroke-width="13.828" stroke="rgb(33,33,33)" fill="none" stroke-linecap="round"></path><path d="M 394.500,205.500 C 394.746,207.470 394.280,207.522 394.500,209.500" stroke-width="12.886" stroke="rgb(33,33,33)" fill="none" stroke-linecap="round"></path><path d="M 394.500,209.500 C 394.780,212.022 395.220,211.978 395.500,214.500" stroke-width="12.988" stroke="rgb(33,33,33)" fill="none" stroke-linecap="round"></path><path d="M 395.500,214.500 C 395.720,216.478 395.500,216.500 395.500,218.500" stroke-width="12.811" stroke="rgb(33,33,33)" fill="none" stroke-linecap="round"></path><path d="M 395.500,218.500 C 395.500,220.000 395.500,220.000 395.500,221.500" stroke-width="13.283" stroke="rgb(33,33,33)" fill="none" stroke-linecap="round"></path><path d="M 395.500,221.500 C 395.500,223.000 395.500,223.000 395.500,224.500" stroke-width="13.686" stroke="rgb(33,33,33)" fill="none" stroke-linecap="round"></path><path d="M 395.500,224.500 C 395.500,226.000 395.257,226.040 395.500,227.500" stroke-width="13.203" stroke="rgb(33,33,33)" fill="none" stroke-linecap="round"></path><path d="M 395.500,227.500 C 395.757,229.040 396.243,228.960 396.500,230.500" stroke-width="13.589" stroke="rgb(33,33,33)" fill="none" stroke-linecap="round"></path><path d="M 396.500,230.500 C 396.743,231.960 396.500,232.000 396.500,233.500" stroke-width="13.571" stroke="rgb(33,33,33)" fill="none" stroke-linecap="round"></path><path d="M 396.500,233.500 C 396.500,235.000 396.500,235.000 396.500,236.500" stroke-width="13.930" stroke="rgb(33,33,33)" fill="none" stroke-linecap="round"></path><path d="M 396.500,236.500 C 396.500,237.500 396.500,237.500 396.500,238.500" stroke-width="14.433" stroke="rgb(33,33,33)" fill="none" stroke-linecap="round"></path><path d="M 396.500,238.500 C 396.500,240.000 396.160,240.141 396.500,241.500" stroke-width="14.381" stroke="rgb(33,33,33)" fill="none" stroke-linecap="round"></path><path d="M 396.500,241.500 C 396.660,242.141 397.207,241.914 397.500,242.500" stroke-width="14.947" stroke="rgb(33,33,33)" fill="none" stroke-linecap="round"></path><path d="M 397.500,242.500 C 397.707,242.914 397.500,243.000 397.500,243.500" stroke-width="15.182" stroke="rgb(33,33,33)" fill="none" stroke-linecap="round"></path><path d="M 397.500,243.500 C 397.500,244.000 397.293,244.086 397.500,244.500" stroke-width="15.734" stroke="rgb(33,33,33)" fill="none" stroke-linecap="round"></path><path d="M 397.500,244.500 C 397.793,245.086 398.113,245.694 398.500,245.500" stroke-width="16.098" stroke="rgb(33,33,33)" fill="none" stroke-linecap="round"></path><path d="M 398.500,245.500 C 399.113,245.194 398.926,244.457 399.500,243.500" stroke-width="16.700" stroke="rgb(33,33,33)" fill="none" stroke-linecap="round"></path><path d="M 399.500,243.500 C 400.426,241.957 400.161,241.616 401.500,240.500" stroke-width="16.302" stroke="rgb(33,33,33)" fill="none" stroke-linecap="round"></path><path d="M 401.500,240.500 C 403.161,239.116 404.100,240.100 405.500,238.500" stroke-width="14.287" stroke="rgb(33,33,33)" fill="none" stroke-linecap="round"></path><path d="M 405.500,238.500 C 407.600,236.100 406.922,235.459 408.500,232.500" stroke-width="13.794" stroke="rgb(33,33,33)" fill="none" stroke-linecap="round"></path><path d="M 408.500,232.500 C 410.922,227.959 410.854,227.911 413.500,223.500" stroke-width="11.790" stroke="rgb(33,33,33)" fill="none" stroke-linecap="round"></path><path d="M 413.500,223.500 C 415.354,220.411 415.203,220.256 417.500,217.500" stroke-width="11.785" stroke="rgb(33,33,33)" fill="none" stroke-linecap="round"></path><path d="M 417.500,217.500 C 420.203,214.256 420.987,214.851 423.500,211.500" stroke-width="11.609" stroke="rgb(33,33,33)" fill="none" stroke-linecap="round"></path><path d="M 423.500,211.500 C 425.487,208.851 424.910,208.452 426.500,205.500" stroke-width="10.487" stroke="rgb(33,33,33)" fill="none" stroke-linecap="round"></path><path d="M 426.500,205.500 C 428.410,201.952 428.590,202.048 430.500,198.500" stroke-width="10.625" stroke="rgb(33,33,33)" fill="none" stroke-linecap="round"></path><path d="M 430.500,198.500 C 432.090,195.548 432.000,195.500 433.500,192.500" stroke-width="10.393" stroke="rgb(33,33,33)" fill="none" stroke-linecap="round"></path><path d="M 433.500,192.500 C 434.500,190.500 434.720,190.581 435.500,188.500" stroke-width="10.957" stroke="rgb(33,33,33)" fill="none" stroke-linecap="round"></path><path d="M 435.500,188.500 C 436.220,186.581 436.211,186.526 436.500,184.500" stroke-width="11.499" stroke="rgb(33,33,33)" fill="none" stroke-linecap="round"></path><path d="M 436.500,184.500 C 436.711,183.026 436.160,182.859 436.500,181.500" stroke-width="12.135" stroke="rgb(33,33,33)" fill="none" stroke-linecap="round"></path><path d="M 436.500,181.500 C 436.660,180.859 437.207,180.500 437.500,180.500" stroke-width="12.611" stroke="rgb(33,33,33)" fill="none" stroke-linecap="round"></path><path d="M 437.500,180.500 C 437.707,180.500 437.500,181.000 437.500,181.500" stroke-width="13.625" stroke="rgb(33,33,33)" fill="none" stroke-linecap="round"></path><path d="M 437.500,181.500 C 437.500,185.000 437.251,185.018 437.500,188.500" stroke-width="12.482" stroke="rgb(33,33,33)" fill="none" stroke-linecap="round"></path><path d="M 437.500,188.500 C 437.751,192.018 438.249,191.982 438.500,195.500" stroke-width="12.353" stroke="rgb(33,33,33)" fill="none" stroke-linecap="round"></path><path d="M 438.500,195.500 C 438.749,198.982 438.500,199.000 438.500,202.500" stroke-width="12.262" stroke="rgb(33,33,33)" fill="none" stroke-linecap="round"></path><path d="M 438.500,202.500 C 438.500,207.000 438.276,207.010 438.500,211.500" stroke-width="10.273" stroke="rgb(33,33,33)" fill="none" stroke-linecap="round"></path><path d="M 438.500,211.500 C 438.776,217.010 438.950,217.005 439.500,222.500" stroke-width="10.136" stroke="rgb(33,33,33)" fill="none" stroke-linecap="round"></path><path d="M 439.500,222.500 C 439.950,227.005 440.026,226.997 440.500,231.500" stroke-width="9.642" stroke="rgb(33,33,33)" fill="none" stroke-linecap="round"></path><path d="M 440.500,231.500 C 441.026,236.497 441.024,236.498 441.500,241.500" stroke-width="9.731" stroke="rgb(33,33,33)" fill="none" stroke-linecap="round"></path><path d="M 441.500,241.500 C 442.024,246.998 441.516,247.087 442.500,252.500" stroke-width="9.709" stroke="rgb(33,33,33)" fill="none" stroke-linecap="round"></path><path d="M 442.500,252.500 C 443.516,258.087 444.266,257.945 445.500,263.500" stroke-width="8.711" stroke="rgb(33,33,33)" fill="none" stroke-linecap="round"></path><path d="M 445.500,263.500 C 446.266,266.945 446.033,266.996 446.500,270.500" stroke-width="9.134" stroke="rgb(33,33,33)" fill="none" stroke-linecap="round"></path><path d="M 446.500,270.500 C 447.033,274.496 447.213,274.487 447.500,278.500" stroke-width="9.031" stroke="rgb(33,33,33)" fill="none" stroke-linecap="round"></path><path d="M 447.500,278.500 C 447.713,281.487 447.204,281.536 447.500,284.500" stroke-width="9.580" stroke="rgb(33,33,33)" fill="none" stroke-linecap="round"></path><path d="M 447.500,284.500 C 447.704,286.536 448.246,286.470 448.500,288.500" stroke-width="10.261" stroke="rgb(33,33,33)" fill="none" stroke-linecap="round"></path><path d="M 448.500,288.500 C 448.746,290.470 448.500,290.500 448.500,292.500" stroke-width="10.233" stroke="rgb(33,33,33)" fill="none" stroke-linecap="round"></path><path d="M 448.500,292.500 C 448.500,293.000 448.500,293.000 448.500,293.500" stroke-width="11.252" stroke="rgb(33,33,33)" fill="none" stroke-linecap="round"></path><path d="M 448.500,293.500 C 448.500,294.000 448.345,294.036 448.500,294.500" stroke-width="11.984" stroke="rgb(33,33,33)" fill="none" stroke-linecap="round"></path><path d="M 448.500,294.500 C 448.845,295.536 449.155,296.155 449.500,296.500" stroke-width="12.684" stroke="rgb(33,33,33)" fill="none" stroke-linecap="round"></path><path d="M 449.500,296.500 C 449.655,296.655 449.929,295.571 449.500,295.500" stroke-width="13.700" stroke="rgb(33,33,33)" fill="none" stroke-linecap="round"></path><path d="M 449.500,295.500 C 446.929,295.071 446.500,295.500 443.500,295.500" stroke-width="14.609" stroke="rgb(33,33,33)" fill="none" stroke-linecap="round"></path><path d="M 443.500,295.500 C 436.000,295.500 436.000,295.500 428.500,295.500" stroke-width="9.835" stroke="rgb(33,33,33)" fill="none" stroke-linecap="round"></path><path d="M 428.500,295.500 C 420.500,295.500 420.500,295.500 412.500,295.500" stroke-width="9.580" stroke="rgb(33,33,33)" fill="none" stroke-linecap="round"></path><path d="M 412.500,295.500 C 402.500,295.500 402.500,295.500 392.500,295.500" stroke-width="7.004" stroke="rgb(33,33,33)" fill="none" stroke-linecap="round"></path><path d="M 392.500,295.500 C 385.000,295.500 385.000,295.500 377.500,295.500" stroke-width="7.199" stroke="rgb(33,33,33)" fill="none" stroke-linecap="round"></path><path d="M 377.500,295.500 C 372.000,295.500 372.000,295.500 366.500,295.500" stroke-width="7.584" stroke="rgb(33,33,33)" fill="none" stroke-linecap="round"></path><path d="M 366.500,295.500 C 365.500,295.500 364.167,295.500 364.500,295.500" stroke-width="8.427" stroke="rgb(33,33,33)" fill="none" stroke-linecap="round"></path><path d="M 364.500,295.500 C 365.167,295.500 366.500,295.500 368.500,295.500" stroke-width="9.510" stroke="rgb(33,33,33)" fill="none" stroke-linecap="round"></path><path d="M 368.500,295.500 C 375.500,295.500 375.500,295.500 382.500,295.500" stroke-width="8.220" stroke="rgb(33,33,33)" fill="none" stroke-linecap="round"></path><path d="M 382.500,295.500 C 392.500,295.500 392.531,296.110 402.500,295.500" stroke-width="7.877" stroke="rgb(33,33,33)" fill="none" stroke-linecap="round"></path><path d="M 402.500,295.500 C 417.031,294.610 416.987,293.861 431.500,292.500" stroke-width="6.750" stroke="rgb(33,33,33)" fill="none" stroke-linecap="round"></path><path d="M 431.500,292.500 C 448.987,290.861 449.028,291.273 466.500,289.500" stroke-width="6.750" stroke="rgb(33,33,33)" fill="none" stroke-linecap="round"></path><path d="M 466.500,289.500 C 483.528,287.773 483.455,286.920 500.500,285.500" stroke-width="6.750" stroke="rgb(33,33,33)" fill="none" stroke-linecap="round"></path><path d="M 500.500,285.500 C 513.455,284.420 513.554,285.602 526.500,284.500" stroke-width="6.750" stroke="rgb(33,33,33)" fill="none" stroke-linecap="round"></path><path d="M 526.500,284.500 C 537.054,283.602 536.989,282.920 547.500,281.500" stroke-width="6.750" stroke="rgb(33,33,33)" fill="none" stroke-linecap="round"></path><path d="M 547.500,281.500 C 555.489,280.420 555.473,280.073 563.500,279.500" stroke-width="6.750" stroke="rgb(33,33,33)" fill="none" stroke-linecap="round"></path><path d="M 563.500,279.500 C 569.473,279.073 569.780,280.509 575.500,279.500" stroke-width="6.750" stroke="rgb(33,33,33)" fill="none" stroke-linecap="round"></path><path d="M 575.500,279.500 C 578.280,279.009 578.028,278.045 580.500,276.500" stroke-width="6.750" stroke="rgb(33,33,33)" fill="none" stroke-linecap="round"></path><path d="M 580.500,276.500 C 582.028,275.545 581.957,275.426 583.500,274.500" stroke-width="6.750" stroke="rgb(33,33,33)" fill="none" stroke-linecap="round"></path><path d="M 583.500,274.500 C 584.457,273.926 584.500,274.000 585.500,273.500" stroke-width="7.374" stroke="rgb(33,33,33)" fill="none" stroke-linecap="round"></path><path d="M 585.500,273.500 C 587.500,272.500 587.662,272.725 589.500,271.500" stroke-width="7.728" stroke="rgb(33,33,33)" fill="none" stroke-linecap="round"></path><path d="M 589.500,271.500 C 590.662,270.725 590.279,270.110 591.500,269.500" stroke-width="8.606" stroke="rgb(33,33,33)" fill="none" stroke-linecap="round"></path><path d="M 591.500,269.500 C 593.279,268.610 593.597,269.261 595.500,268.500" stroke-width="9.387" stroke="rgb(33,33,33)" fill="none" stroke-linecap="round"></path><path d="M 595.500,268.500 C 598.597,267.261 598.360,266.621 601.500,265.500" stroke-width="9.421" stroke="rgb(33,33,33)" fill="none" stroke-linecap="round"></path><path d="M 601.500,265.500 C 605.360,264.121 605.571,264.728 609.500,263.500" stroke-width="9.630" stroke="rgb(33,33,33)" fill="none" stroke-linecap="round"></path><path d="M 609.500,263.500 C 613.571,262.228 613.397,261.640 617.500,260.500" stroke-width="9.523" stroke="rgb(33,33,33)" fill="none" stroke-linecap="round"></path><path d="M 617.500,260.500 C 622.397,259.140 622.474,259.338 627.500,258.500" stroke-width="9.517" stroke="rgb(33,33,33)" fill="none" stroke-linecap="round"></path><path d="M 627.500,258.500 C 631.474,257.838 631.504,258.033 635.500,257.500" stroke-width="9.496" stroke="rgb(33,33,33)" fill="none" stroke-linecap="round"></path><path d="M 635.500,257.500 C 639.004,257.033 639.014,257.081 642.500,256.500" stroke-width="9.723" stroke="rgb(33,33,33)" fill="none" stroke-linecap="round"></path><path d="M 642.500,256.500 C 645.014,256.081 644.992,255.918 647.500,255.500" stroke-width="10.230" stroke="rgb(33,33,33)" fill="none" stroke-linecap="round"></path><path d="M 647.500,255.500 C 647.992,255.418 648.000,255.500 648.500,255.500" stroke-width="11.145" stroke="rgb(33,33,33)" fill="none" stroke-linecap="round"></path><path d="M 648.500,255.500 C 649.000,255.500 649.500,255.500 649.500,255.500" stroke-width="12.100" stroke="rgb(33,33,33)" fill="none" stroke-linecap="round"></path><path d="M 510.500,239.500 C 510.000,238.000 510.419,237.419 509.500,236.500" stroke-width="19.045" stroke="rgb(33,33,33)" fill="none" stroke-linecap="round"></path><path d="M 509.500,236.500 C 508.919,235.919 508.000,236.000 507.500,236.500" stroke-width="19.164" stroke="rgb(33,33,33)" fill="none" stroke-linecap="round"></path><path d="M 507.500,236.500 C 507.000,237.000 507.500,237.500 507.500,238.500" stroke-width="18.658" stroke="rgb(33,33,33)" fill="none" stroke-linecap="round"></path><path d="M 507.500,238.500 C 507.500,239.500 507.500,239.500 507.500,240.500" stroke-width="17.635" stroke="rgb(33,33,33)" fill="none" stroke-linecap="round"></path><path d="M 507.500,240.500 C 507.500,243.000 507.500,243.000 507.500,245.500" stroke-width="16.742" stroke="rgb(33,33,33)" fill="none" stroke-linecap="round"></path><path d="M 507.500,245.500 C 507.500,248.500 507.500,248.500 507.500,251.500" stroke-width="13.798" stroke="rgb(33,33,33)" fill="none" stroke-linecap="round"></path><path d="M 507.500,251.500 C 507.500,254.500 507.500,254.500 507.500,257.500" stroke-width="13.653" stroke="rgb(33,33,33)" fill="none" stroke-linecap="round"></path><path d="M 507.500,257.500 C 507.500,261.000 507.010,261.069 507.500,264.500" stroke-width="13.131" stroke="rgb(33,33,33)" fill="none" stroke-linecap="round"></path><path d="M 507.500,264.500 C 508.010,268.069 508.415,268.026 509.500,271.500" stroke-width="12.335" stroke="rgb(33,33,33)" fill="none" stroke-linecap="round"></path><path d="M 509.500,271.500 C 510.915,276.026 510.743,276.107 512.500,280.500" stroke-width="11.745" stroke="rgb(33,33,33)" fill="none" stroke-linecap="round"></path><path d="M 512.500,280.500 C 513.743,283.607 514.451,283.353 515.500,286.500" stroke-width="10.576" stroke="rgb(33,33,33)" fill="none" stroke-linecap="round"></path><path d="M 515.500,286.500 C 516.451,289.353 515.636,289.619 516.500,292.500" stroke-width="10.926" stroke="rgb(33,33,33)" fill="none" stroke-linecap="round"></path><path d="M 516.500,292.500 C 517.136,294.619 517.809,294.427 518.500,296.500" stroke-width="11.479" stroke="rgb(33,33,33)" fill="none" stroke-linecap="round"></path><path d="M 518.500,296.500 C 518.809,297.427 518.264,297.556 518.500,298.500" stroke-width="11.973" stroke="rgb(33,33,33)" fill="none" stroke-linecap="round"></path><path d="M 518.500,298.500 C 518.764,299.556 519.500,299.809 519.500,300.500" stroke-width="12.707" stroke="rgb(33,33,33)" fill="none" stroke-linecap="round"></path><path d="M 519.500,300.500 C 519.500,300.809 519.000,300.500 518.500,300.500" stroke-width="13.688" stroke="rgb(33,33,33)" fill="none" stroke-linecap="round"></path><path d="M 518.500,300.500 C 515.500,300.500 515.420,301.047 512.500,300.500" stroke-width="13.469" stroke="rgb(33,33,33)" fill="none" stroke-linecap="round"></path><path d="M 512.500,300.500 C 507.420,299.547 507.450,299.150 502.500,297.500" stroke-width="12.715" stroke="rgb(33,33,33)" fill="none" stroke-linecap="round"></path><path d="M 502.500,297.500 C 496.950,295.650 496.949,295.632 491.500,293.500" stroke-width="8.982" stroke="rgb(33,33,33)" fill="none" stroke-linecap="round"></path><path d="M 491.500,293.500 C 485.449,291.132 485.474,291.060 479.500,288.500" stroke-width="8.946" stroke="rgb(33,33,33)" fill="none" stroke-linecap="round"></path><path d="M 479.500,288.500 C 474.974,286.560 475.067,286.327 470.500,284.500" stroke-width="8.657" stroke="rgb(33,33,33)" fill="none" stroke-linecap="round"></path><path d="M 470.500,284.500 C 467.567,283.327 467.264,283.882 464.500,282.500" stroke-width="9.214" stroke="rgb(33,33,33)" fill="none" stroke-linecap="round"></path><path d="M 464.500,282.500 C 463.264,281.882 463.239,281.608 462.500,280.500" stroke-width="10.051" stroke="rgb(33,33,33)" fill="none" stroke-linecap="round"></path><path d="M 462.500,280.500 C 462.239,280.108 462.500,280.000 462.500,279.500" stroke-width="11.155" stroke="rgb(33,33,33)" fill="none" stroke-linecap="round"></path><path d="M 462.500,279.500 C 462.500,279.000 462.500,279.000 462.500,278.500" stroke-width="11.895" stroke="rgb(33,33,33)" fill="none" stroke-linecap="round"></path><path d="M 551.500,247.500 C 551.000,247.500 551.000,247.500 550.500,247.500" stroke-width="19.965" stroke="rgb(33,33,33)" fill="none" stroke-linecap="round"></path><path d="M 550.500,247.500 C 549.000,247.500 548.862,247.046 547.500,247.500" stroke-width="18.900" stroke="rgb(33,33,33)" fill="none" stroke-linecap="round"></path><path d="M 547.500,247.500 C 545.862,248.046 546.104,248.698 544.500,249.500" stroke-width="16.856" stroke="rgb(33,33,33)" fill="none" stroke-linecap="round"></path><path d="M 544.500,249.500 C 542.104,250.698 541.412,249.861 539.500,251.500" stroke-width="16.084" stroke="rgb(33,33,33)" fill="none" stroke-linecap="round"></path><path d="M 539.500,251.500 C 537.912,252.861 538.825,253.734 537.500,255.500" stroke-width="14.153" stroke="rgb(33,33,33)" fill="none" stroke-linecap="round"></path><path d="M 537.500,255.500 C 535.825,257.734 535.734,257.825 533.500,259.500" stroke-width="13.891" stroke="rgb(33,33,33)" fill="none" stroke-linecap="round"></path><path d="M 533.500,259.500 C 531.734,260.825 531.000,260.000 529.500,261.500" stroke-width="14.055" stroke="rgb(33,33,33)" fill="none" stroke-linecap="round"></path><path d="M 529.500,261.500 C 528.000,263.000 528.607,263.562 527.500,265.500" stroke-width="12.267" stroke="rgb(33,33,33)" fill="none" stroke-linecap="round"></path><path d="M 527.500,265.500 C 526.607,267.062 526.500,267.000 525.500,268.500" stroke-width="12.767" stroke="rgb(33,33,33)" fill="none" stroke-linecap="round"></path><path d="M 525.500,268.500 C 524.500,270.000 524.143,269.892 523.500,271.500" stroke-width="11.847" stroke="rgb(33,33,33)" fill="none" stroke-linecap="round"></path><path d="M 523.500,271.500 C 523.143,272.392 523.694,272.531 523.500,273.500" stroke-width="12.598" stroke="rgb(33,33,33)" fill="none" stroke-linecap="round"></path><path d="M 523.500,273.500 C 523.194,275.031 522.806,274.969 522.500,276.500" stroke-width="13.161" stroke="rgb(33,33,33)" fill="none" stroke-linecap="round"></path><path d="M 522.500,276.500 C 522.306,277.469 522.500,277.500 522.500,278.500" stroke-width="13.227" stroke="rgb(33,33,33)" fill="none" stroke-linecap="round"></path><path d="M 522.500,278.500 C 522.500,280.000 522.500,280.000 522.500,281.500" stroke-width="13.639" stroke="rgb(33,33,33)" fill="none" stroke-linecap="round"></path><path d="M 522.500,281.500 C 522.500,283.000 522.500,283.000 522.500,284.500" stroke-width="13.611" stroke="rgb(33,33,33)" fill="none" stroke-linecap="round"></path><path d="M 522.500,284.500 C 522.500,286.000 521.927,286.354 522.500,287.500" stroke-width="14.016" stroke="rgb(33,33,33)" fill="none" stroke-linecap="round"></path><path d="M 522.500,287.500 C 522.927,288.354 523.617,287.838 524.500,288.500" stroke-width="14.459" stroke="rgb(33,33,33)" fill="none" stroke-linecap="round"></path><path d="M 524.500,288.500 C 525.617,289.338 525.295,289.811 526.500,290.500" stroke-width="14.126" stroke="rgb(33,33,33)" fill="none" stroke-linecap="round"></path><path d="M 526.500,290.500 C 528.795,291.811 528.918,291.926 531.500,292.500" stroke-width="13.808" stroke="rgb(33,33,33)" fill="none" stroke-linecap="round"></path><path d="M 531.500,292.500 C 533.418,292.926 533.500,292.500 535.500,292.500" stroke-width="13.207" stroke="rgb(33,33,33)" fill="none" stroke-linecap="round"></path><path d="M 535.500,292.500 C 539.000,292.500 539.022,292.768 542.500,292.500" stroke-width="13.032" stroke="rgb(33,33,33)" fill="none" stroke-linecap="round"></path><path d="M 542.500,292.500 C 545.522,292.268 545.705,292.575 548.500,291.500" stroke-width="12.831" stroke="rgb(33,33,33)" fill="none" stroke-linecap="round"></path><path d="M 548.500,291.500 C 552.205,290.075 552.018,289.531 555.500,287.500" stroke-width="11.344" stroke="rgb(33,33,33)" fill="none" stroke-linecap="round"></path><path d="M 555.500,287.500 C 558.018,286.031 558.355,286.406 560.500,284.500" stroke-width="11.607" stroke="rgb(33,33,33)" fill="none" stroke-linecap="round"></path><path d="M 560.500,284.500 C 562.855,282.406 562.395,281.906 564.500,279.500" stroke-width="10.935" stroke="rgb(33,33,33)" fill="none" stroke-linecap="round"></path><path d="M 564.500,279.500 C 565.895,277.906 566.204,278.167 567.500,276.500" stroke-width="11.515" stroke="rgb(33,33,33)" fill="none" stroke-linecap="round"></path><path d="M 567.500,276.500 C 569.704,273.667 570.408,273.775 571.500,270.500" stroke-width="11.564" stroke="rgb(33,33,33)" fill="none" stroke-linecap="round"></path><path d="M 571.500,270.500 C 572.408,267.775 571.204,267.464 571.500,264.500" stroke-width="11.244" stroke="rgb(33,33,33)" fill="none" stroke-linecap="round"></path><path d="M 571.500,264.500 C 571.704,262.464 572.296,262.536 572.500,260.500" stroke-width="11.751" stroke="rgb(33,33,33)" fill="none" stroke-linecap="round"></path><path d="M 572.500,260.500 C 572.796,257.536 572.500,257.500 572.500,254.500" stroke-width="10.235" stroke="rgb(33,33,33)" fill="none" stroke-linecap="round"></path><path d="M 572.500,254.500 C 572.500,252.500 572.500,252.500 572.500,250.500" stroke-width="10.870" stroke="rgb(33,33,33)" fill="none" stroke-linecap="round"></path><path d="M 572.500,250.500 C 572.500,249.500 572.500,249.500 572.500,248.500" stroke-width="11.703" stroke="rgb(33,33,33)" fill="none" stroke-linecap="round"></path><path d="M 572.500,248.500 C 572.500,247.000 572.500,247.000 572.500,245.500" stroke-width="12.023" stroke="rgb(33,33,33)" fill="none" stroke-linecap="round"></path><path d="M 572.500,245.500 C 572.500,245.000 572.500,245.000 572.500,244.500" stroke-width="12.920" stroke="rgb(33,33,33)" fill="none" stroke-linecap="round"></path><path d="M 572.500,244.500 C 572.500,244.000 572.500,244.000 572.500,243.500" stroke-width="13.465" stroke="rgb(33,33,33)" fill="none" stroke-linecap="round"></path><path d="M 572.500,243.500 C 572.500,243.000 572.750,242.750 572.500,242.500" stroke-width="14.229" stroke="rgb(33,33,33)" fill="none" stroke-linecap="round"></path><path d="M 572.500,242.500 C 572.250,242.250 572.000,242.500 571.500,242.500" stroke-width="15.109" stroke="rgb(33,33,33)" fill="none" stroke-linecap="round"></path><path d="M 571.500,242.500 C 570.500,242.500 570.392,242.143 569.500,242.500" stroke-width="15.432" stroke="rgb(33,33,33)" fill="none" stroke-linecap="round"></path><path d="M 569.500,242.500 C 567.892,243.143 567.901,243.379 566.500,244.500" stroke-width="15.395" stroke="rgb(33,33,33)" fill="none" stroke-linecap="round"></path><path d="M 566.500,244.500 C 565.401,245.379 565.617,245.662 564.500,246.500" stroke-width="14.831" stroke="rgb(33,33,33)" fill="none" stroke-linecap="round"></path><path d="M 564.500,246.500 C 563.617,247.162 563.419,246.887 562.500,247.500" stroke-width="15.089" stroke="rgb(33,33,33)" fill="none" stroke-linecap="round"></path><path d="M 562.500,247.500 C 561.919,247.887 562.086,248.207 561.500,248.500" stroke-width="15.332" stroke="rgb(33,33,33)" fill="none" stroke-linecap="round"></path><path d="M 561.500,248.500 C 561.086,248.707 560.750,248.250 560.500,248.500" stroke-width="15.862" stroke="rgb(33,33,33)" fill="none" stroke-linecap="round"></path><path d="M 560.500,248.500 C 560.250,248.750 560.500,249.500 560.500,249.500" stroke-width="16.285" stroke="rgb(33,33,33)" fill="none" stroke-linecap="round"></path><path d="M 560.500,249.500 C 560.500,249.500 560.239,248.892 560.500,248.500" stroke-width="16.937" stroke="rgb(33,33,33)" fill="none" stroke-linecap="round"></path><path d="M 560.500,248.500 C 561.239,247.392 561.597,247.584 562.500,246.500" stroke-width="17.451" stroke="rgb(33,33,33)" fill="none" stroke-linecap="round"></path><path d="M 562.500,246.500 C 564.097,244.584 564.219,244.635 565.500,242.500" stroke-width="16.486" stroke="rgb(33,33,33)" fill="none" stroke-linecap="round"></path><path d="M 565.500,242.500 C 567.219,239.635 566.652,239.272 568.500,236.500" stroke-width="13.340" stroke="rgb(33,33,33)" fill="none" stroke-linecap="round"></path><path d="M 568.500,236.500 C 570.652,233.272 571.194,233.645 573.500,230.500" stroke-width="12.752" stroke="rgb(33,33,33)" fill="none" stroke-linecap="round"></path><path d="M 573.500,230.500 C 576.694,226.145 576.682,226.111 579.500,221.500" stroke-width="11.380" stroke="rgb(33,33,33)" fill="none" stroke-linecap="round"></path><path d="M 579.500,221.500 C 582.182,217.111 581.853,216.912 584.500,212.500" stroke-width="10.932" stroke="rgb(33,33,33)" fill="none" stroke-linecap="round"></path><path d="M 584.500,212.500 C 587.853,206.912 588.402,207.219 591.500,201.500" stroke-width="10.553" stroke="rgb(33,33,33)" fill="none" stroke-linecap="round"></path><path d="M 591.500,201.500 C 594.902,195.219 594.500,195.000 597.500,188.500" stroke-width="10.017" stroke="rgb(33,33,33)" fill="none" stroke-linecap="round"></path><path d="M 597.500,188.500 C 600.500,182.000 600.749,182.103 603.500,175.500" stroke-width="8.826" stroke="rgb(33,33,33)" fill="none" stroke-linecap="round"></path><path d="M 603.500,175.500 C 605.749,170.103 605.233,169.885 607.500,164.500" stroke-width="7.727" stroke="rgb(33,33,33)" fill="none" stroke-linecap="round"></path><path d="M 607.500,164.500 C 609.233,160.385 610.303,160.690 611.500,156.500" stroke-width="8.180" stroke="rgb(33,33,33)" fill="none" stroke-linecap="round"></path><path d="M 611.500,156.500 C 612.303,153.690 611.230,153.473 611.500,150.500" stroke-width="8.752" stroke="rgb(33,33,33)" fill="none" stroke-linecap="round"></path><path d="M 611.500,150.500 C 611.730,147.973 612.185,148.018 612.500,145.500" stroke-width="9.118" stroke="rgb(33,33,33)" fill="none" stroke-linecap="round"></path><path d="M 612.500,145.500 C 612.685,144.018 612.500,142.800 612.500,142.500" stroke-width="9.942" stroke="rgb(33,33,33)" fill="none" stroke-linecap="round"></path><path d="M 612.500,142.500 C 612.500,142.300 612.678,143.520 612.500,144.500" stroke-width="11.025" stroke="rgb(33,33,33)" fill="none" stroke-linecap="round"></path><path d="M 612.500,144.500 C 611.678,149.020 611.822,149.094 610.500,153.500" stroke-width="11.108" stroke="rgb(33,33,33)" fill="none" stroke-linecap="round"></path><path d="M 610.500,153.500 C 608.822,159.094 608.639,159.054 606.500,164.500" stroke-width="9.025" stroke="rgb(33,33,33)" fill="none" stroke-linecap="round"></path><path d="M 606.500,164.500 C 603.139,173.054 602.095,172.716 599.500,181.500" stroke-width="8.694" stroke="rgb(33,33,33)" fill="none" stroke-linecap="round"></path><path d="M 599.500,181.500 C 595.595,194.716 596.853,195.087 593.500,208.500" stroke-width="6.750" stroke="rgb(33,33,33)" fill="none" stroke-linecap="round"></path><path d="M 593.500,208.500 C 589.353,225.087 589.166,225.047 584.500,241.500" stroke-width="6.750" stroke="rgb(33,33,33)" fill="none" stroke-linecap="round"></path><path d="M 584.500,241.500 C 579.666,258.547 578.794,258.322 574.500,275.500" stroke-width="6.750" stroke="rgb(33,33,33)" fill="none" stroke-linecap="round"></path><path d="M 574.500,275.500 C 569.794,294.322 570.847,294.580 566.500,313.500" stroke-width="6.750" stroke="rgb(33,33,33)" fill="none" stroke-linecap="round"></path><path d="M 566.500,313.500 C 562.347,331.580 561.749,331.441 557.500,349.500" stroke-width="6.750" stroke="rgb(33,33,33)" fill="none" stroke-linecap="round"></path><path d="M 557.500,349.500 C 553.749,365.441 553.500,365.408 550.500,381.500" stroke-width="6.750" stroke="rgb(33,33,33)" fill="none" stroke-linecap="round"></path><path d="M 550.500,381.500 C 548.000,394.908 548.553,395.008 546.500,408.500" stroke-width="6.750" stroke="rgb(33,33,33)" fill="none" stroke-linecap="round"></path><path d="M 546.500,408.500 C 545.053,418.008 544.522,417.962 543.500,427.500" stroke-width="6.750" stroke="rgb(33,33,33)" fill="none" stroke-linecap="round"></path><path d="M 543.500,427.500 C 543.022,431.962 543.500,432.000 543.500,436.500" stroke-width="6.750" stroke="rgb(33,33,33)" fill="none" stroke-linecap="round"></path><path d="M 543.500,436.500 C 543.500,438.500 543.500,438.500 543.500,440.500" stroke-width="6.750" stroke="rgb(33,33,33)" fill="none" stroke-linecap="round"></path><path d="M 543.500,440.500 C 543.500,441.500 543.500,442.167 543.500,442.500" stroke-width="6.750" stroke="rgb(33,33,33)" fill="none" stroke-linecap="round"></path><path d="M 543.500,442.500 C 543.500,442.667 543.500,442.000 543.500,441.500" stroke-width="6.750" stroke="rgb(33,33,33)" fill="none" stroke-linecap="round"></path><path d="M 543.500,441.500 C 543.500,441.000 543.500,441.000 543.500,440.500" stroke-width="7.664" stroke="rgb(33,33,33)" fill="none" stroke-linecap="round"></path><path d="M 543.500,440.500 C 543.500,438.500 543.500,438.500 543.500,436.500" stroke-width="8.485" stroke="rgb(33,33,33)" fill="none" stroke-linecap="round"></path><path d="M 543.500,436.500 C 543.500,435.500 543.500,435.500 543.500,434.500" stroke-width="9.422" stroke="rgb(33,33,33)" fill="none" stroke-linecap="round"></path><path d="M 543.500,434.500 C 543.500,433.000 543.500,433.000 543.500,431.500" stroke-width="9.785" stroke="rgb(33,33,33)" fill="none" stroke-linecap="round"></path><path d="M 543.500,431.500 C 543.500,430.500 543.500,430.500 543.500,429.500" stroke-width="10.683" stroke="rgb(33,33,33)" fill="none" stroke-linecap="round"></path><path d="M 543.500,429.500 C 543.500,429.000 543.500,429.000 543.500,428.500" stroke-width="11.573" stroke="rgb(33,33,33)" fill="none" stroke-linecap="round"></path><path d="M 543.500,428.500 C 543.500,428.000 543.500,428.000 543.500,427.500" stroke-width="12.515" stroke="rgb(33,33,33)" fill="none" stroke-linecap="round"></path><path d="M 543.500,427.500 C 543.500,427.000 543.500,427.000 543.500,426.500" stroke-width="13.472" stroke="rgb(33,33,33)" fill="none" stroke-linecap="round"></path><path d="M 543.500,426.500 C 543.500,426.000 543.500,426.000 543.500,425.500" stroke-width="14.104" stroke="rgb(33,33,33)" fill="none" stroke-linecap="round"></path><path d="M 543.500,425.500 C 543.500,425.000 543.500,425.000 543.500,424.500" stroke-width="14.927" stroke="rgb(33,33,33)" fill="none" stroke-linecap="round"></path><path d="M 543.500,424.500 C 543.500,424.000 543.293,423.914 543.500,423.500" stroke-width="15.748" stroke="rgb(33,33,33)" fill="none" stroke-linecap="round"></path><path d="M 543.500,423.500 C 543.793,422.914 543.914,422.793 544.500,422.500" stroke-width="16.110" stroke="rgb(33,33,33)" fill="none" stroke-linecap="round"></path><path d="M 544.500,422.500 C 544.914,422.293 545.086,422.707 545.500,422.500" stroke-width="16.523" stroke="rgb(33,33,33)" fill="none" stroke-linecap="round"></path><path d="M 545.500,422.500 C 546.086,422.207 546.207,422.086 546.500,421.500" stroke-width="16.185" stroke="rgb(33,33,33)" fill="none" stroke-linecap="round"></path><path d="M 546.500,421.500 C 546.707,421.086 546.883,420.788 546.500,420.500" stroke-width="16.809" stroke="rgb(33,33,33)" fill="none" stroke-linecap="round"></path><path d="M 546.500,420.500 C 542.883,417.788 542.813,417.348 538.500,415.500" stroke-width="12.382" stroke="rgb(33,33,33)" fill="none" stroke-linecap="round"></path><path d="M 538.500,415.500 C 528.813,411.348 528.677,411.408 518.500,408.500" stroke-width="10.231" stroke="rgb(33,33,33)" fill="none" stroke-linecap="round"></path><path d="M 518.500,408.500 C 500.677,403.408 500.577,403.672 482.500,399.500" stroke-width="8.018" stroke="rgb(33,33,33)" fill="none" stroke-linecap="round"></path><path d="M 482.500,399.500 C 455.077,393.172 455.279,391.702 427.500,387.500" stroke-width="6.750" stroke="rgb(33,33,33)" fill="none" stroke-linecap="round"></path><path d="M 427.500,387.500 C 395.779,382.702 395.337,385.710 363.500,381.500" stroke-width="6.750" stroke="rgb(33,33,33)" fill="none" stroke-linecap="round"></path><path d="M 363.500,381.500 C 334.837,377.710 335.066,376.091 306.500,371.500" stroke-width="6.750" stroke="rgb(33,33,33)" fill="none" stroke-linecap="round"></path><path d="M 306.500,371.500 C 279.066,367.091 278.972,367.681 251.500,363.500" stroke-width="6.750" stroke="rgb(33,33,33)" fill="none" stroke-linecap="round"></path><path d="M 251.500,363.500 C 232.972,360.681 232.937,360.819 214.500,357.500" stroke-width="6.750" stroke="rgb(33,33,33)" fill="none" stroke-linecap="round"></path><path d="M 214.500,357.500 C 207.937,356.319 208.022,355.804 201.500,354.500" stroke-width="6.750" stroke="rgb(33,33,33)" fill="none" stroke-linecap="round"></path><path d="M 201.500,354.500 C 200.522,354.304 199.322,354.857 199.500,354.500" stroke-width="6.750" stroke="rgb(33,33,33)" fill="none" stroke-linecap="round"></path><path d="M 199.500,354.500 C 199.822,353.857 200.759,352.705 202.500,352.500" stroke-width="6.750" stroke="rgb(33,33,33)" fill="none" stroke-linecap="round"></path><path d="M 202.500,352.500 C 209.259,351.705 209.500,352.500 216.500,352.500" stroke-width="6.750" stroke="rgb(33,33,33)" fill="none" stroke-linecap="round"></path><path d="M 216.500,352.500 C 230.000,352.500 230.008,352.865 243.500,352.500" stroke-width="6.750" stroke="rgb(33,33,33)" fill="none" stroke-linecap="round"></path><path d="M 243.500,352.500 C 267.008,351.865 266.988,350.957 290.500,350.500" stroke-width="6.750" stroke="rgb(33,33,33)" fill="none" stroke-linecap="round"></path><path d="M 290.500,350.500 C 318.488,349.957 318.500,350.500 346.500,350.500" stroke-width="6.750" stroke="rgb(33,33,33)" fill="none" stroke-linecap="round"></path><path d="M 346.500,350.500 C 379.500,350.500 379.500,350.500 412.500,350.500" stroke-width="6.750" stroke="rgb(33,33,33)" fill="none" stroke-linecap="round"></path><path d="M 412.500,350.500 C 444.500,350.500 444.500,350.500 476.500,350.500" stroke-width="6.750" stroke="rgb(33,33,33)" fill="none" stroke-linecap="round"></path><path d="M 476.500,350.500 C 508.000,350.500 508.000,350.500 539.500,350.500" stroke-width="6.750" stroke="rgb(33,33,33)" fill="none" stroke-linecap="round"></path><path d="M 539.500,350.500 C 567.500,350.500 567.511,351.028 595.500,350.500" stroke-width="6.750" stroke="rgb(33,33,33)" fill="none" stroke-linecap="round"></path><path d="M 595.500,350.500 C 620.511,350.028 620.497,349.426 645.500,348.500" stroke-width="6.750" stroke="rgb(33,33,33)" fill="none" stroke-linecap="round"></path><path d="M 645.500,348.500 C 660.997,347.926 660.998,347.878 676.500,347.500" stroke-width="6.750" stroke="rgb(33,33,33)" fill="none" stroke-linecap="round"></path><path d="M 676.500,347.500 C 681.498,347.378 681.955,347.955 686.500,347.500" stroke-width="6.750" stroke="rgb(33,33,33)" fill="none" stroke-linecap="round"></path><path d="M 686.500,347.500 C 686.955,347.455 686.500,347.000 686.500,346.500" stroke-width="6.750" stroke="rgb(33,33,33)" fill="none" stroke-linecap="round"></path><path d="M 686.500,346.500 C 686.500,346.000 686.500,346.000 686.500,345.500" stroke-width="6.750" stroke="rgb(33,33,33)" fill="none" stroke-linecap="round"></path><path d="M 686.500,345.500 C 686.500,345.000 686.750,344.750 686.500,344.500" stroke-width="6.750" stroke="rgb(33,33,33)" fill="none" stroke-linecap="round"></path><path d="M 686.500,344.500 C 686.250,344.250 685.750,344.750 685.500,344.500" stroke-width="6.750" stroke="rgb(33,33,33)" fill="none" stroke-linecap="round"></path><path d="M 685.500,344.500 C 685.250,344.250 685.750,343.750 685.500,343.500" stroke-width="7.351" stroke="rgb(33,33,33)" fill="none" stroke-linecap="round"></path><path d="M 685.500,343.500 C 685.250,343.250 684.750,343.750 684.500,343.500" stroke-width="8.361" stroke="rgb(33,33,33)" fill="none" stroke-linecap="round"></path><path d="M 684.500,343.500 C 684.250,343.250 684.750,342.750 684.500,342.500" stroke-width="9.300" stroke="rgb(33,33,33)" fill="none" stroke-linecap="round"></path><path d="M 684.500,342.500 C 684.250,342.250 684.000,342.500 683.500,342.500" stroke-width="10.414" stroke="rgb(33,33,33)" fill="none" stroke-linecap="round"></path></svg>