<svg xmlns="http://www.w3.org/2000/svg" xmlns:xlink="http://www.w3.org/1999/xlink" viewBox="0 0 320 500"><path d="M 73.000,161.500 C 70.000,168.500 68.742,168.242 67.000,175.500" stroke-width="18.629" stroke="rgb(33,33,33)" fill="none" stroke-linecap="round"></path><path d="M 67.000,175.500 C 65.742,180.742 67.189,181.005 67.000,186.500" stroke-width="16.775" stroke="rgb(33,33,33)" fill="none" stroke-linecap="round"></path><path d="M 67.000,186.500 C 66.689,195.505 66.474,195.499 66.000,204.500" stroke-width="14.697" stroke="rgb(33,33,33)" fill="none" stroke-linecap="round"></path><path d="M 66.000,204.500 C 65.474,214.499 65.500,214.500 65.000,224.500" stroke-width="13.384" stroke="rgb(33,33,33)" fill="none" stroke-linecap="round"></path><path d="M 65.000,224.500 C 64.500,234.500 64.526,234.501 64.000,244.500" stroke-width="12.193" stroke="rgb(33,33,33)" fill="none" stroke-linecap="round"></path><path d="M 64.000,244.500 C 63.526,253.501 63.311,253.495 63.000,262.500" stroke-width="11.447" stroke="rgb(33,33,33)" fill="none" stroke-linecap="round"></path><path d="M 63.000,262.500 C 62.811,267.995 63.000,268.000 63.000,273.500" stroke-width="11.655" stroke="rgb(33,33,33)" fill="none" stroke-linecap="round"></path><path d="M 63.000,273.500 C 63.000,277.000 63.000,277.000 63.000,280.500" stroke-width="12.072" stroke="rgb(33,33,33)" fill="none" stroke-linecap="round"></path><path d="M 63.000,280.500 C 63.000,282.500 63.000,282.500 63.000,284.500" stroke-width="12.744" stroke="rgb(33,33,33)" fill="none" stroke-linecap="round"></path><path d="M 63.000,284.500 C 63.000,285.000 63.000,285.800 63.000,285.500" stroke-width="13.661" stroke="rgb(33,33,33)" fill="none" stroke-linecap="round"></path><path d="M 63.000,285.500 C 63.000,284.300 62.444,283.406 63.000,281.500" stroke-width="14.033" stroke="rgb(33,33,33)" fill="none" stroke-linecap="round"></path><path d="M 63.000,281.500 C 65.944,271.406 66.306,271.428 70.000,261.500" stroke-width="12.506" stroke="rgb(33,33,33)" fill="none" stroke-linecap="round"></path><path d="M 70.000,261.500 C 74.306,249.928 74.460,249.984 79.000,238.500" stroke-width="11.338" stroke="rgb(33,33,33)" fill="none" stroke-linecap="round"></path><path d="M 79.000,238.500 C 82.960,228.484 82.836,228.430 87.000,218.500" stroke-width="10.669" stroke="rgb(33,33,33)" fill="none" stroke-linecap="round"></path><path d="M 87.000,218.500 C 89.336,212.930 89.302,212.896 92.000,207.500" stroke-width="10.884" stroke="rgb(33,33,33)" fill="none" stroke-linecap="round"></path><path d="M 92.000,207.500 C 93.302,204.896 93.138,204.362 95.000,202.500" stroke-width="11.525" stroke="rgb(33,33,33)" fill="none" stroke-linecap="round"></path><path d="M 95.000,202.500 C 95.638,201.862 96.577,201.796 97.000,202.500" stroke-width="12.418" stroke="rgb(33,33,33)" fill="none" stroke-linecap="round"></path><path d="M 97.000,202.500 C 98.077,204.296 97.885,204.962 98.000,207.500" stroke-width="12.943" stroke="rgb(33,33,33)" fill="none" stroke-linecap="round"></path><path d="M 98.000,207.500 C 98.385,215.962 98.000,216.000 98.000,224.500" stroke-width="12.261" stroke="rgb(33,33,33)" fill="none" stroke-linecap="round"></path><path d="M 98.000,224.500 C 98.000,230.500 98.000,230.500 98.000,236.500" stroke-width="12.116" stroke="rgb(33,33,33)" fill="none" stroke-linecap="round"></path><path d="M 98.000,236.500 C 98.000,241.000 98.000,241.000 98.000,245.500" stroke-width="12.326" stroke="rgb(33,33,33)" fill="none" stroke-linecap="round"></path><path d="M 98.000,245.500 C 98.000,247.500 98.000,247.500 98.000,249.500" stroke-width="12.969" stroke="rgb(33,33,33)" fill="none" stroke-linecap="round"></path><path d="M 98.000,249.500 C 98.000,251.000 97.754,253.484 98.000,252.500" stroke-width="13.622" stroke="rgb(33,33,33)" fill="none" stroke-linecap="round"></path><path d="M 98.000,252.500 C 99.254,247.484 98.729,244.767 101.000,237.500" stroke-width="13.689" stroke="rgb(33,33,33)" fill="none" stroke-linecap="round"></path><path d="M 101.000,237.500 C 103.729,228.767 104.291,228.908 108.000,220.500" stroke-width="12.659" stroke="rgb(33,33,33)" fill="none" stroke-linecap="round"></path><path d="M 108.000,220.500 C 111.791,211.908 112.158,212.070 116.000,203.500" stroke-width="11.810" stroke="rgb(33,33,33)" fill="none" stroke-linecap="round"></path><path d="M 116.000,203.500 C 118.658,197.570 118.334,197.424 121.000,191.500" stroke-width="11.742" stroke="rgb(33,33,33)" fill="none" stroke-linecap="round"></path><path d="M 121.000,191.500 C 122.834,187.424 123.000,187.500 125.000,183.500" stroke-width="11.972" stroke="rgb(33,33,33)" fill="none" stroke-linecap="round"></path><path d="M 125.000,183.500 C 126.000,181.500 125.667,181.167 127.000,179.500" stroke-width="12.610" stroke="rgb(33,33,33)" fill="none" stroke-linecap="round"></path><path d="M 127.000,179.500 C 127.667,178.667 128.379,178.086 129.000,178.500" stroke-width="13.402" stroke="rgb(33,33,33)" fill="none" stroke-linecap="round"></path><path d="M 129.000,178.500 C 129.879,179.086 129.932,179.930 130.000,181.500" stroke-width="13.982" stroke="rgb(33,33,33)" fill="none" stroke-linecap="round"></path><path d="M 130.000,181.500 C 130.432,191.430 130.000,191.500 130.000,201.500" stroke-width="12.704" stroke="rgb(33,33,33)" fill="none" stroke-linecap="round"></path><path d="M 130.000,201.500 C 130.000,213.500 130.000,213.500 130.000,225.500" stroke-width="11.522" stroke="rgb(33,33,33)" fill="none" stroke-linecap="round"></path><path d="M 130.000,225.500 C 130.000,235.000 130.000,235.000 130.000,244.500" stroke-width="10.985" stroke="rgb(33,33,33)" fill="none" stroke-linecap="round"></path><path d="M 130.000,244.500 C 130.000,252.000 130.000,252.000 130.000,259.500" stroke-width="10.938" stroke="rgb(33,33,33)" fill="none" stroke-linecap="round"></path><path d="M 130.000,259.500 C 130.000,264.500 130.000,264.500 130.000,269.500" stroke-width="11.258" stroke="rgb(33,33,33)" fill="none" stroke-linecap="round"></path><path d="M 130.000,269.500 C 130.000,272.500 130.000,272.500 130.000,275.500" stroke-width="11.815" stroke="rgb(33,33,33)" fill="none" stroke-linecap="round"></path><path d="M 55.000,244.500 C 57.500,244.500 57.500,244.500 60.000,244.500" stroke-width="19.882" stroke="rgb(33,33,33)" fill="none" stroke-linecap="round"></path><path d="M 60.000,244.500 C 66.500,244.500 66.505,244.691 73.000,244.500" stroke-width="17.200" stroke="rgb(33,33,33)" fill="none" stroke-linecap="round"></path><path d="M 73.000,244.500 C 83.505,244.191 83.593,244.801 94.000,243.500" stroke-width="14.722" stroke="rgb(33,33,33)" fill="none" stroke-linecap="round"></path><path d="M 94.000,243.500 C 107.593,241.801 107.628,241.569 121.000,238.500" stroke-width="12.474" stroke="rgb(33,33,33)" fill="none" stroke-linecap="round"></path><path d="M 121.000,238.500 C 138.128,234.569 138.035,234.127 155.000,229.500" stroke-width="10.717" stroke="rgb(33,33,33)" fill="none" stroke-linecap="round"></path><path d="M 155.000,229.500 C 171.035,225.127 171.280,225.825 187.000,220.500" stroke-width="9.261" stroke="rgb(33,33,33)" fill="none" stroke-linecap="round"></path><path d="M 187.000,220.500 C 202.280,215.325 201.806,213.947 217.000,208.500" stroke-width="8.606" stroke="rgb(33,33,33)" fill="none" stroke-linecap="round"></path><path d="M 217.000,208.500 C 228.306,204.447 228.486,204.954 240.000,201.500" stroke-width="8.561" stroke="rgb(33,33,33)" fill="none" stroke-linecap="round"></path><path d="M 240.000,201.500 C 248.486,198.954 248.481,198.934 257.000,196.500" stroke-width="8.752" stroke="rgb(33,33,33)" fill="none" stroke-linecap="round"></path><path d="M 257.000,196.500 C 262.481,194.934 262.472,194.882 268.000,193.500" stroke-width="9.267" stroke="rgb(33,33,33)" fill="none" stroke-linecap="round"></path><path d="M 268.000,193.500 C 270.472,192.882 270.567,193.195 273.000,192.500" stroke-width="10.084" stroke="rgb(33,33,33)" fill="none" stroke-linecap="round"></path><path d="M 208.000,148.500 C 206.500,149.500 204.122,149.748 205.000,150.500" stroke-width="19.923" stroke="rgb(33,33,33)" fill="none" stroke-linecap="round"></path><path d="M 205.000,150.500 C 207.622,152.748 209.824,153.106 215.000,154.500" stroke-width="17.643" stroke="rgb(33,33,33)" fill="none" stroke-linecap="round"></path><path d="M 215.000,154.500 C 222.824,156.606 222.934,156.492 231.000,157.500" stroke-width="15.461" stroke="rgb(33,33,33)" fill="none" stroke-linecap="round"></path><path d="M 231.000,157.500 C 242.934,158.992 242.978,159.019 255.000,159.500" stroke-width="13.075" stroke="rgb(33,33,33)" fill="none" stroke-linecap="round"></path><path d="M 255.000,159.500 C 267.978,160.019 268.000,159.500 281.000,159.500" stroke-width="11.605" stroke="rgb(33,33,33)" fill="none" stroke-linecap="round"></path><path d="M 281.000,159.500 C 289.500,159.500 289.667,160.611 298.000,159.500" stroke-width="11.275" stroke="rgb(33,33,33)" fill="none" stroke-linecap="round"></path><path d="M 298.000,159.500 C 304.667,158.611 304.792,158.114 311.000,155.500" stroke-width="11.208" stroke="rgb(33,33,33)" fill="none" stroke-linecap="round"></path><path d="M 311.000,155.500 C 314.292,154.114 314.881,153.972 317.000,151.500" stroke-width="11.703" stroke="rgb(33,33,33)" fill="none" stroke-linecap="round"></path><path d="M 317.000,151.500 C 317.881,150.472 316.660,149.859 317.000,148.500" stroke-width="12.504" stroke="rgb(33,33,33)" fill="none" stroke-linecap="round"></path><path d="M 317.000,148.500 C 317.160,147.859 318.040,146.895 318.000,147.500" stroke-width="13.382" stroke="rgb(33,33,33)" fill="none" stroke-linecap="round"></path><path d="M 318.000,147.500 C 317.540,154.395 320.083,156.967 316.000,163.500" stroke-width="13.425" stroke="rgb(33,33,33)" fill="none" stroke-linecap="round"></path><path d="M 316.000,163.500 C 307.583,176.967 306.156,177.582 293.000,187.500" stroke-width="11.264" stroke="rgb(33,33,33)" fill="none" stroke-linecap="round"></path><path d="M 293.000,187.500 C 273.656,202.082 271.913,199.855 251.000,212.500" stroke-width="9.003" stroke="rgb(33,33,33)" fill="none" stroke-linecap="round"></path><path d="M 251.000,212.500 C 228.913,225.855 228.545,225.312 207.000,239.500" stroke-width="7.769" stroke="rgb(33,33,33)" fill="none" stroke-linecap="round"></path><path d="M 207.000,239.500 C 187.545,252.312 187.304,252.118 169.000,266.500" stroke-width="7.061" stroke="rgb(33,33,33)" fill="none" stroke-linecap="round"></path><path d="M 169.000,266.500 C 152.304,279.618 152.890,280.376 137.000,294.500" stroke-width="6.762" stroke="rgb(33,33,33)" fill="none" stroke-linecap="round"></path><path d="M 137.000,294.500 C 121.390,308.376 121.407,308.399 106.000,322.500" stroke-width="6.750" stroke="rgb(33,33,33)" fill="none" stroke-linecap="round"></path></svg>