<svg xmlns="http://www.w3.org/2000/svg" xmlns:xlink="http://www.w3.org/1999/xlink" viewBox="0 0 375 500"><path d="M 110.000,120.500 C 107.500,119.000 107.638,118.699 105.000,117.500" stroke-width="19.749" stroke="rgb(33,33,33)" fill="none" stroke-linecap="round"></path><path d="M 105.000,117.500 C 102.138,116.199 102.052,116.314 99.000,115.500" stroke-width="18.498" stroke="rgb(33,33,33)" fill="none" stroke-linecap="round"></path><path d="M 99.000,115.500 C 94.552,114.314 94.557,113.980 90.000,113.500" stroke-width="17.266" stroke="rgb(33,33,33)" fill="none" stroke-linecap="round"></path><path d="M 90.000,113.500 C 85.057,112.980 85.000,113.500 80.000,113.500" stroke-width="16.354" stroke="rgb(33,33,33)" fill="none" stroke-linecap="round"></path><path d="M 80.000,113.500 C 74.500,113.500 74.042,111.987 69.000,113.500" stroke-width="15.025" stroke="rgb(33,33,33)" fill="none" stroke-linecap="round"></path><path d="M 69.000,113.500 C 64.042,114.987 63.609,115.650 60.000,119.500" stroke-width="14.327" stroke="rgb(33,33,33)" fill="none" stroke-linecap="round"></path><path d="M 60.000,119.500 C 56.109,123.650 55.479,124.079 54.000,129.500" stroke-width="13.409" stroke="rgb(33,33,33)" fill="none" stroke-linecap="round"></path><path d="M 54.000,129.500 C 52.479,135.079 53.786,135.507 54.000,141.500" stroke-width="13.071" stroke="rgb(33,33,33)" fill="none" stroke-linecap="round"></path><path d="M 54.000,141.500 C 54.286,149.507 52.287,150.264 55.000,157.500" stroke-width="12.438" stroke="rgb(33,33,33)" fill="none" stroke-linecap="round"></path><path d="M 55.000,157.500 C 58.287,166.264 59.679,166.207 66.000,173.500" stroke-width="11.604" stroke="rgb(33,33,33)" fill="none" stroke-linecap="round"></path><path d="M 66.000,173.500 C 72.679,181.207 73.482,180.519 81.000,187.500" stroke-width="11.020" stroke="rgb(33,33,33)" fill="none" stroke-linecap="round"></path><path d="M 81.000,187.500 C 87.482,193.519 87.753,193.253 94.000,199.500" stroke-width="10.708" stroke="rgb(33,33,33)" fill="none" stroke-linecap="round"></path><path d="M 94.000,199.500 C 97.753,203.253 98.013,203.186 101.000,207.500" stroke-width="11.018" stroke="rgb(33,33,33)" fill="none" stroke-linecap="round"></path><path d="M 101.000,207.500 C 102.513,209.686 102.481,209.907 103.000,212.500" stroke-width="11.680" stroke="rgb(33,33,33)" fill="none" stroke-linecap="round"></path><path d="M 103.000,212.500 C 103.481,214.907 103.692,215.192 103.000,217.500" stroke-width="12.277" stroke="rgb(33,33,33)" fill="none" stroke-linecap="round"></path><path d="M 103.000,217.500 C 102.192,220.192 102.387,221.041 100.000,222.500" stroke-width="12.781" stroke="rgb(33,33,33)" fill="none" stroke-linecap="round"></path><path d="M 100.000,222.500 C 93.387,226.541 92.150,224.810 85.000,228.500" stroke-width="12.130" stroke="rgb(33,33,33)" fill="none" stroke-linecap="round"></path><path d="M 85.000,228.500 C 76.650,232.810 77.043,233.570 69.000,238.500" stroke-width="11.432" stroke="rgb(33,33,33)" fill="none" stroke-linecap="round"></path><path d="M 69.000,238.500 C 61.543,243.070 61.374,242.808 54.000,247.500" stroke-width="11.109" stroke="rgb(33,33,33)" fill="none" stroke-linecap="round"></path><path d="M 54.000,247.500 C 50.374,249.808 50.387,249.866 47.000,252.500" stroke-width="11.509" stroke="rgb(33,33,33)" fill="none" stroke-linecap="round"></path><path d="M 47.000,252.500 C 45.887,253.366 46.000,253.500 45.000,254.500" stroke-width="12.355" stroke="rgb(33,33,33)" fill="none" stroke-linecap="round"></path><path d="M 45.000,254.500 C 44.500,255.000 44.500,255.000 44.000,255.500" stroke-width="13.245" stroke="rgb(33,33,33)" fill="none" stroke-linecap="round"></path><path d="M 44.000,255.500 C 43.500,256.000 43.586,256.207 43.000,256.500" stroke-width="14.065" stroke="rgb(33,33,33)" fill="none" stroke-linecap="round"></path><path d="M 163.000,115.500 C 159.500,115.500 159.098,114.224 156.000,115.500" stroke-width="19.317" stroke="rgb(33,33,33)" fill="none" stroke-linecap="round"></path><path d="M 156.000,115.500 C 150.598,117.724 150.375,118.300 146.000,122.500" stroke-width="17.000" stroke="rgb(33,33,33)" fill="none" stroke-linecap="round"></path><path d="M 146.000,122.500 C 137.875,130.300 138.229,130.775 131.000,139.500" stroke-width="14.551" stroke="rgb(33,33,33)" fill="none" stroke-linecap="round"></path><path d="M 131.000,139.500 C 123.729,148.275 123.302,148.047 117.000,157.500" stroke-width="12.804" stroke="rgb(33,33,33)" fill="none" stroke-linecap="round"></path><path d="M 117.000,157.500 C 112.302,164.547 112.407,164.756 109.000,172.500" stroke-width="12.160" stroke="rgb(33,33,33)" fill="none" stroke-linecap="round"></path><path d="M 109.000,172.500 C 106.907,177.256 106.698,177.382 106.000,182.500" stroke-width="12.116" stroke="rgb(33,33,33)" fill="none" stroke-linecap="round"></path><path d="M 106.000,182.500 C 105.198,188.382 104.654,188.849 106.000,194.500" stroke-width="11.932" stroke="rgb(33,33,33)" fill="none" stroke-linecap="round"></path><path d="M 106.000,194.500 C 107.154,199.349 107.965,199.382 111.000,203.500" stroke-width="12.062" stroke="rgb(33,33,33)" fill="none" stroke-linecap="round"></path><path d="M 111.000,203.500 C 114.965,208.882 115.250,208.750 120.000,213.500" stroke-width="11.902" stroke="rgb(33,33,33)" fill="none" stroke-linecap="round"></path><path d="M 120.000,213.500 C 124.750,218.250 124.710,218.385 130.000,222.500" stroke-width="11.710" stroke="rgb(33,33,33)" fill="none" stroke-linecap="round"></path><path d="M 130.000,222.500 C 133.710,225.385 133.862,225.272 138.000,227.500" stroke-width="11.951" stroke="rgb(33,33,33)" fill="none" stroke-linecap="round"></path><path d="M 138.000,227.500 C 140.362,228.772 140.399,229.027 143.000,229.500" stroke-width="12.509" stroke="rgb(33,33,33)" fill="none" stroke-linecap="round"></path><path d="M 143.000,229.500 C 145.899,230.027 146.000,229.500 149.000,229.500" stroke-width="12.934" stroke="rgb(33,33,33)" fill="none" stroke-linecap="round"></path><path d="M 149.000,229.500 C 150.500,229.500 151.502,230.620 152.000,229.500" stroke-width="13.590" stroke="rgb(33,33,33)" fill="none" stroke-linecap="round"></path><path d="M 152.000,229.500 C 153.502,226.120 152.749,225.014 153.000,220.500" stroke-width="13.513" stroke="rgb(33,33,33)" fill="none" stroke-linecap="round"></path><path d="M 153.000,220.500 C 153.249,216.014 153.769,215.860 153.000,211.500" stroke-width="13.399" stroke="rgb(33,33,33)" fill="none" stroke-linecap="round"></path><path d="M 153.000,211.500 C 152.269,207.360 152.377,206.769 150.000,203.500" stroke-width="13.414" stroke="rgb(33,33,33)" fill="none" stroke-linecap="round"></path><path d="M 150.000,203.500 C 148.377,201.269 147.599,201.800 145.000,200.500" stroke-width="13.717" stroke="rgb(33,33,33)" fill="none" stroke-linecap="round"></path><path d="M 145.000,200.500 C 142.599,199.300 142.569,199.142 140.000,198.500" stroke-width="13.982" stroke="rgb(33,33,33)" fill="none" stroke-linecap="round"></path><path d="M 140.000,198.500 C 138.569,198.142 138.500,198.500 137.000,198.500" stroke-width="14.527" stroke="rgb(33,33,33)" fill="none" stroke-linecap="round"></path><path d="M 185.000,185.500 C 182.000,183.500 182.298,182.515 179.000,181.500" stroke-width="19.377" stroke="rgb(33,33,33)" fill="none" stroke-linecap="round"></path><path d="M 179.000,181.500 C 175.798,180.515 175.319,180.734 172.000,181.500" stroke-width="18.106" stroke="rgb(33,33,33)" fill="none" stroke-linecap="round"></path><path d="M 172.000,181.500 C 168.819,182.234 168.143,182.143 166.000,184.500" stroke-width="17.377" stroke="rgb(33,33,33)" fill="none" stroke-linecap="round"></path><path d="M 166.000,184.500 C 163.143,187.643 163.488,188.334 162.000,192.500" stroke-width="16.071" stroke="rgb(33,33,33)" fill="none" stroke-linecap="round"></path><path d="M 162.000,192.500 C 160.988,195.334 161.202,195.475 161.000,198.500" stroke-width="15.708" stroke="rgb(33,33,33)" fill="none" stroke-linecap="round"></path><path d="M 161.000,198.500 C 160.702,202.975 159.662,203.485 161.000,207.500" stroke-width="15.211" stroke="rgb(33,33,33)" fill="none" stroke-linecap="round"></path><path d="M 161.000,207.500 C 162.162,210.985 163.150,210.869 166.000,213.500" stroke-width="14.790" stroke="rgb(33,33,33)" fill="none" stroke-linecap="round"></path><path d="M 166.000,213.500 C 169.650,216.869 169.607,217.450 174.000,219.500" stroke-width="14.398" stroke="rgb(33,33,33)" fill="none" stroke-linecap="round"></path><path d="M 174.000,219.500 C 177.107,220.950 177.481,220.265 181.000,220.500" stroke-width="14.326" stroke="rgb(33,33,33)" fill="none" stroke-linecap="round"></path><path d="M 181.000,220.500 C 184.981,220.765 185.091,221.058 189.000,220.500" stroke-width="14.152" stroke="rgb(33,33,33)" fill="none" stroke-linecap="round"></path><path d="M 189.000,220.500 C 192.091,220.058 193.348,220.625 195.000,218.500" stroke-width="14.270" stroke="rgb(33,33,33)" fill="none" stroke-linecap="round"></path><path d="M 195.000,218.500 C 196.848,216.125 195.462,214.994 196.000,211.500" stroke-width="14.276" stroke="rgb(33,33,33)" fill="none" stroke-linecap="round"></path><path d="M 196.000,211.500 C 196.462,208.494 196.726,208.519 197.000,205.500" stroke-width="14.354" stroke="rgb(33,33,33)" fill="none" stroke-linecap="round"></path><path d="M 197.000,205.500 C 197.226,203.019 197.581,202.824 197.000,200.500" stroke-width="14.595" stroke="rgb(33,33,33)" fill="none" stroke-linecap="round"></path><path d="M 197.000,200.500 C 196.581,198.824 196.234,198.734 195.000,197.500" stroke-width="14.944" stroke="rgb(33,33,33)" fill="none" stroke-linecap="round"></path><path d="M 195.000,197.500 C 194.234,196.734 194.036,196.845 193.000,196.500" stroke-width="15.454" stroke="rgb(33,33,33)" fill="none" stroke-linecap="round"></path><path d="M 193.000,196.500 C 192.536,196.345 192.167,196.167 192.000,196.500" stroke-width="16.071" stroke="rgb(33,33,33)" fill="none" stroke-linecap="round"></path><path d="M 192.000,196.500 C 191.667,197.167 191.890,197.508 192.000,198.500" stroke-width="16.443" stroke="rgb(33,33,33)" fill="none" stroke-linecap="round"></path><path d="M 192.000,198.500 C 192.390,202.008 191.481,202.462 193.000,205.500" stroke-width="16.023" stroke="rgb(33,33,33)" fill="none" stroke-linecap="round"></path><path d="M 193.000,205.500 C 194.981,209.462 195.876,209.115 199.000,212.500" stroke-width="15.180" stroke="rgb(33,33,33)" fill="none" stroke-linecap="round"></path><path d="M 199.000,212.500 C 201.876,215.615 201.740,215.833 205.000,218.500" stroke-width="14.813" stroke="rgb(33,33,33)" fill="none" stroke-linecap="round"></path><path d="M 205.000,218.500 C 207.240,220.333 207.401,220.200 210.000,221.500" stroke-width="14.819" stroke="rgb(33,33,33)" fill="none" stroke-linecap="round"></path><path d="M 210.000,221.500 C 212.401,222.700 212.418,222.926 215.000,223.500" stroke-width="14.928" stroke="rgb(33,33,33)" fill="none" stroke-linecap="round"></path><path d="M 215.000,223.500 C 216.918,223.926 217.045,223.779 219.000,223.500" stroke-width="15.199" stroke="rgb(33,33,33)" fill="none" stroke-linecap="round"></path><path d="M 219.000,223.500 C 220.545,223.279 221.234,223.648 222.000,222.500" stroke-width="15.541" stroke="rgb(33,33,33)" fill="none" stroke-linecap="round"></path><path d="M 222.000,222.500 C 223.234,220.648 222.770,220.027 223.000,217.500" stroke-width="15.503" stroke="rgb(33,33,33)" fill="none" stroke-linecap="round"></path><path d="M 223.000,217.500 C 223.270,214.527 223.000,214.500 223.000,211.500" stroke-width="15.393" stroke="rgb(33,33,33)" fill="none" stroke-linecap="round"></path><path d="M 223.000,211.500 C 223.000,209.500 223.000,209.500 223.000,207.500" stroke-width="15.548" stroke="rgb(33,33,33)" fill="none" stroke-linecap="round"></path><path d="M 223.000,207.500 C 223.000,206.000 223.000,206.000 223.000,204.500" stroke-width="15.855" stroke="rgb(33,33,33)" fill="none" stroke-linecap="round"></path><path d="M 223.000,204.500 C 223.000,203.500 223.333,203.167 223.000,202.500" stroke-width="16.261" stroke="rgb(33,33,33)" fill="none" stroke-linecap="round"></path><path d="M 223.000,202.500 C 222.833,202.167 222.250,202.250 222.000,202.500" stroke-width="16.753" stroke="rgb(33,33,33)" fill="none" stroke-linecap="round"></path><path d="M 222.000,202.500 C 221.750,202.750 222.000,203.000 222.000,203.500" stroke-width="17.179" stroke="rgb(33,33,33)" fill="none" stroke-linecap="round"></path><path d="M 222.000,203.500 C 222.000,206.000 221.308,206.192 222.000,208.500" stroke-width="16.849" stroke="rgb(33,33,33)" fill="none" stroke-linecap="round"></path><path d="M 222.000,208.500 C 222.808,211.192 223.223,211.216 225.000,213.500" stroke-width="16.405" stroke="rgb(33,33,33)" fill="none" stroke-linecap="round"></path><path d="M 225.000,213.500 C 226.723,215.716 226.766,215.825 229.000,217.500" stroke-width="16.148" stroke="rgb(33,33,33)" fill="none" stroke-linecap="round"></path><path d="M 229.000,217.500 C 230.766,218.825 230.889,218.972 233.000,219.500" stroke-width="16.125" stroke="rgb(33,33,33)" fill="none" stroke-linecap="round"></path><path d="M 233.000,219.500 C 234.889,219.972 235.576,220.517 237.000,219.500" stroke-width="16.178" stroke="rgb(33,33,33)" fill="none" stroke-linecap="round"></path><path d="M 237.000,219.500 C 239.076,218.017 239.161,217.228 240.000,214.500" stroke-width="15.891" stroke="rgb(33,33,33)" fill="none" stroke-linecap="round"></path><path d="M 240.000,214.500 C 241.161,210.728 240.691,210.512 241.000,206.500" stroke-width="15.408" stroke="rgb(33,33,33)" fill="none" stroke-linecap="round"></path><path d="M 241.000,206.500 C 241.191,204.012 241.000,204.000 241.000,201.500" stroke-width="15.455" stroke="rgb(33,33,33)" fill="none" stroke-linecap="round"></path><path d="M 241.000,201.500 C 241.000,200.000 241.000,200.000 241.000,198.500" stroke-width="15.802" stroke="rgb(33,33,33)" fill="none" stroke-linecap="round"></path><path d="M 241.000,198.500 C 241.000,197.500 240.729,196.094 241.000,196.500" stroke-width="16.197" stroke="rgb(33,33,33)" fill="none" stroke-linecap="round"></path><path d="M 241.000,196.500 C 241.729,197.594 241.653,199.190 243.000,201.500" stroke-width="16.398" stroke="rgb(33,33,33)" fill="none" stroke-linecap="round"></path><path d="M 243.000,201.500 C 245.153,205.190 245.154,205.338 248.000,208.500" stroke-width="15.777" stroke="rgb(33,33,33)" fill="none" stroke-linecap="round"></path><path d="M 248.000,208.500 C 249.654,210.338 249.966,210.047 252.000,211.500" stroke-width="15.751" stroke="rgb(33,33,33)" fill="none" stroke-linecap="round"></path><path d="M 252.000,211.500 C 253.466,212.547 253.392,212.857 255.000,213.500" stroke-width="15.900" stroke="rgb(33,33,33)" fill="none" stroke-linecap="round"></path><path d="M 255.000,213.500 C 255.892,213.857 256.333,213.833 257.000,213.500" stroke-width="16.299" stroke="rgb(33,33,33)" fill="none" stroke-linecap="round"></path><path d="M 257.000,213.500 C 257.333,213.333 257.000,213.000 257.000,212.500" stroke-width="16.875" stroke="rgb(33,33,33)" fill="none" stroke-linecap="round"></path><path d="M 257.000,212.500 C 257.000,212.000 256.750,211.750 257.000,211.500" stroke-width="17.282" stroke="rgb(33,33,33)" fill="none" stroke-linecap="round"></path><path d="M 257.000,211.500 C 257.250,211.250 257.500,211.500 258.000,211.500" stroke-width="17.741" stroke="rgb(33,33,33)" fill="none" stroke-linecap="round"></path><path d="M 258.000,211.500 C 259.000,211.500 259.031,211.306 260.000,211.500" stroke-width="17.816" stroke="rgb(33,33,33)" fill="none" stroke-linecap="round"></path><path d="M 260.000,211.500 C 261.531,211.806 261.536,211.914 263.000,212.500" stroke-width="17.626" stroke="rgb(33,33,33)" fill="none" stroke-linecap="round"></path><path d="M 263.000,212.500 C 264.036,212.914 263.944,213.236 265.000,213.500" stroke-width="17.702" stroke="rgb(33,33,33)" fill="none" stroke-linecap="round"></path><path d="M 265.000,213.500 C 265.944,213.736 266.000,213.500 267.000,213.500" stroke-width="17.761" stroke="rgb(33,33,33)" fill="none" stroke-linecap="round"></path><path d="M 267.000,213.500 C 268.000,213.500 268.000,213.500 269.000,213.500" stroke-width="17.831" stroke="rgb(33,33,33)" fill="none" stroke-linecap="round"></path><path d="M 269.000,213.500 C 270.000,213.500 270.000,213.500 271.000,213.500" stroke-width="17.888" stroke="rgb(33,33,33)" fill="none" stroke-linecap="round"></path><path d="M 271.000,213.500 C 271.500,213.500 271.536,213.345 272.000,213.500" stroke-width="18.122" stroke="rgb(33,33,33)" fill="none" stroke-linecap="round"></path><path d="M 272.000,213.500 C 273.036,213.845 273.000,214.000 274.000,214.500" stroke-width="18.050" stroke="rgb(33,33,33)" fill="none" stroke-linecap="round"></path><path d="M 274.000,214.500 C 275.000,215.000 275.117,214.838 276.000,215.500" stroke-width="17.993" stroke="rgb(33,33,33)" fill="none" stroke-linecap="round"></path><path d="M 276.000,215.500 C 277.117,216.338 277.000,216.500 278.000,217.500" stroke-width="17.863" stroke="rgb(33,33,33)" fill="none" stroke-linecap="round"></path><path d="M 278.000,217.500 C 278.500,218.000 278.707,217.914 279.000,218.500" stroke-width="18.023" stroke="rgb(33,33,33)" fill="none" stroke-linecap="round"></path><path d="M 279.000,218.500 C 279.207,218.914 278.750,219.250 279.000,219.500" stroke-width="18.221" stroke="rgb(33,33,33)" fill="none" stroke-linecap="round"></path><path d="M 279.000,219.500 C 279.250,219.750 279.586,219.293 280.000,219.500" stroke-width="18.395" stroke="rgb(33,33,33)" fill="none" stroke-linecap="round"></path><path d="M 280.000,219.500 C 280.586,219.793 280.414,220.207 281.000,220.500" stroke-width="18.454" stroke="rgb(33,33,33)" fill="none" stroke-linecap="round"></path><path d="M 281.000,220.500 C 281.414,220.707 281.500,220.500 282.000,220.500" stroke-width="18.572" stroke="rgb(33,33,33)" fill="none" stroke-linecap="round"></path><path d="M 282.000,220.500 C 282.500,220.500 282.586,220.707 283.000,220.500" stroke-width="18.680" stroke="rgb(33,33,33)" fill="none" stroke-linecap="round"></path><path d="M 283.000,220.500 C 283.586,220.207 283.707,220.086 284.000,219.500" stroke-width="18.823" stroke="rgb(33,33,33)" fill="none" stroke-linecap="round"></path><path d="M 284.000,219.500 C 284.207,219.086 283.750,218.750 284.000,218.500" stroke-width="18.883" stroke="rgb(33,33,33)" fill="none" stroke-linecap="round"></path><path d="M 284.000,218.500 C 284.250,218.250 284.500,218.500 285.000,218.500" stroke-width="19.110" stroke="rgb(33,33,33)" fill="none" stroke-linecap="round"></path><path d="M 285.000,218.500 C 285.500,218.500 285.500,218.500 286.000,218.500" stroke-width="19.217" stroke="rgb(33,33,33)" fill="none" stroke-linecap="round"></path><path d="M 286.000,218.500 C 286.500,218.500 286.500,218.500 287.000,218.500" stroke-width="19.198" stroke="rgb(33,33,33)" fill="none" stroke-linecap="round"></path><path d="M 287.000,218.500 C 288.000,218.500 288.000,218.500 289.000,218.500" stroke-width="18.972" stroke="rgb(33,33,33)" fill="none" stroke-linecap="round"></path><path d="M 289.000,218.500 C 290.000,218.500 290.056,218.264 291.000,218.500" stroke-width="18.795" stroke="rgb(33,33,33)" fill="none" stroke-linecap="round"></path><path d="M 291.000,218.500 C 292.056,218.764 291.964,219.155 293.000,219.500" stroke-width="18.580" stroke="rgb(33,33,33)" fill="none" stroke-linecap="round"></path><path d="M 293.000,219.500 C 293.464,219.655 293.586,219.293 294.000,219.500" stroke-width="18.674" stroke="rgb(33,33,33)" fill="none" stroke-linecap="round"></path><path d="M 294.000,219.500 C 294.586,219.793 294.414,220.207 295.000,220.500" stroke-width="18.678" stroke="rgb(33,33,33)" fill="none" stroke-linecap="round"></path><path d="M 295.000,220.500 C 295.414,220.707 295.500,220.500 296.000,220.500" stroke-width="18.766" stroke="rgb(33,33,33)" fill="none" stroke-linecap="round"></path><path d="M 296.000,220.500 C 296.500,220.500 296.586,220.707 297.000,220.500" stroke-width="18.937" stroke="rgb(33,33,33)" fill="none" stroke-linecap="round"></path><path d="M 297.000,220.500 C 297.586,220.207 297.793,220.121 298.000,219.500" stroke-width="19.036" stroke="rgb(33,33,33)" fill="none" stroke-linecap="round"></path><path d="M 298.000,219.500 C 298.293,218.621 297.707,218.379 298.000,217.500" stroke-width="18.845" stroke="rgb(33,33,33)" fill="none" stroke-linecap="round"></path><path d="M 298.000,217.500 C 298.207,216.879 298.707,217.086 299.000,216.500" stroke-width="18.797" stroke="rgb(33,33,33)" fill="none" stroke-linecap="round"></path><path d="M 299.000,216.500 C 299.207,216.086 298.750,215.750 299.000,215.500" stroke-width="18.861" stroke="rgb(33,33,33)" fill="none" stroke-linecap="round"></path><path d="M 299.000,215.500 C 299.250,215.250 299.500,215.500 300.000,215.500" stroke-width="18.913" stroke="rgb(33,33,33)" fill="none" stroke-linecap="round"></path><path d="M 300.000,215.500 C 301.000,215.500 301.000,215.500 302.000,215.500" stroke-width="18.749" stroke="rgb(33,33,33)" fill="none" stroke-linecap="round"></path><path d="M 302.000,215.500 C 303.500,215.500 303.568,215.214 305.000,215.500" stroke-width="18.342" stroke="rgb(33,33,33)" fill="none" stroke-linecap="round"></path><path d="M 305.000,215.500 C 306.068,215.714 305.964,216.086 307.000,216.500" stroke-width="18.251" stroke="rgb(33,33,33)" fill="none" stroke-linecap="round"></path><path d="M 307.000,216.500 C 308.464,217.086 308.455,217.279 310.000,217.500" stroke-width="18.003" stroke="rgb(33,33,33)" fill="none" stroke-linecap="round"></path><path d="M 310.000,217.500 C 311.955,217.779 312.693,218.621 314.000,217.500" stroke-width="17.656" stroke="rgb(33,33,33)" fill="none" stroke-linecap="round"></path><path d="M 314.000,217.500 C 316.193,215.621 316.418,214.761 317.000,211.500" stroke-width="16.855" stroke="rgb(33,33,33)" fill="none" stroke-linecap="round"></path><path d="M 317.000,211.500 C 318.918,200.761 318.364,200.523 319.000,189.500" stroke-width="14.250" stroke="rgb(33,33,33)" fill="none" stroke-linecap="round"></path><path d="M 319.000,189.500 C 319.864,174.523 319.754,174.504 320.000,159.500" stroke-width="11.983" stroke="rgb(33,33,33)" fill="none" stroke-linecap="round"></path><path d="M 320.000,159.500 C 320.254,144.004 320.000,144.000 320.000,128.500" stroke-width="10.441" stroke="rgb(33,33,33)" fill="none" stroke-linecap="round"></path><path d="M 320.000,128.500 C 320.000,115.000 320.689,114.943 320.000,101.500" stroke-width="9.786" stroke="rgb(33,33,33)" fill="none" stroke-linecap="round"></path><path d="M 320.000,101.500 C 319.689,95.443 318.802,95.516 318.000,89.500" stroke-width="10.133" stroke="rgb(33,33,33)" fill="none" stroke-linecap="round"></path><path d="M 318.000,89.500 C 317.802,88.016 318.000,86.000 318.000,86.500" stroke-width="11.028" stroke="rgb(33,33,33)" fill="none" stroke-linecap="round"></path><path d="M 318.000,86.500 C 318.000,87.500 317.929,89.501 318.000,92.500" stroke-width="11.640" stroke="rgb(33,33,33)" fill="none" stroke-linecap="round"></path><path d="M 318.000,92.500 C 318.429,110.501 317.578,110.581 319.000,128.500" stroke-width="9.917" stroke="rgb(33,33,33)" fill="none" stroke-linecap="round"></path><path d="M 319.000,128.500 C 320.078,142.081 321.821,141.940 323.000,155.500" stroke-width="9.398" stroke="rgb(33,33,33)" fill="none" stroke-linecap="round"></path><path d="M 323.000,155.500 C 323.821,164.940 323.000,165.000 323.000,174.500" stroke-width="9.431" stroke="rgb(33,33,33)" fill="none" stroke-linecap="round"></path><path d="M 323.000,174.500 C 323.000,178.500 324.632,179.508 323.000,182.500" stroke-width="10.036" stroke="rgb(33,33,33)" fill="none" stroke-linecap="round"></path><path d="M 323.000,182.500 C 321.632,185.008 320.132,186.040 317.000,185.500" stroke-width="10.721" stroke="rgb(33,33,33)" fill="none" stroke-linecap="round"></path><path d="M 317.000,185.500 C 305.632,183.540 304.584,183.291 294.000,177.500" stroke-width="10.048" stroke="rgb(33,33,33)" fill="none" stroke-linecap="round"></path><path d="M 294.000,177.500 C 278.084,168.791 279.789,165.564 264.000,156.500" stroke-width="9.028" stroke="rgb(33,33,33)" fill="none" stroke-linecap="round"></path><path d="M 264.000,156.500 C 252.789,150.064 252.387,149.823 240.000,146.500" stroke-width="8.730" stroke="rgb(33,33,33)" fill="none" stroke-linecap="round"></path><path d="M 240.000,146.500 C 231.887,144.323 231.149,144.142 223.000,145.500" stroke-width="8.976" stroke="rgb(33,33,33)" fill="none" stroke-linecap="round"></path><path d="M 223.000,145.500 C 216.149,146.642 212.144,145.471 210.000,151.500" stroke-width="9.358" stroke="rgb(33,33,33)" fill="none" stroke-linecap="round"></path><path d="M 210.000,151.500 C 204.144,167.971 207.792,170.973 207.000,190.500" stroke-width="8.368" stroke="rgb(33,33,33)" fill="none" stroke-linecap="round"></path><path d="M 207.000,190.500 C 206.292,207.973 208.573,208.194 207.000,225.500" stroke-width="7.948" stroke="rgb(33,33,33)" fill="none" stroke-linecap="round"></path><path d="M 207.000,225.500 C 206.073,235.694 206.735,236.917 202.000,245.500" stroke-width="8.113" stroke="rgb(33,33,33)" fill="none" stroke-linecap="round"></path><path d="M 202.000,245.500 C 198.735,251.417 197.524,252.869 191.000,254.500" stroke-width="8.528" stroke="rgb(33,33,33)" fill="none" stroke-linecap="round"></path><path d="M 191.000,254.500 C 179.524,257.369 177.534,258.345 166.000,254.500" stroke-width="8.460" stroke="rgb(33,33,33)" fill="none" stroke-linecap="round"></path><path d="M 166.000,254.500 C 144.534,247.345 145.847,242.795 125.000,232.500" stroke-width="7.606" stroke="rgb(33,33,33)" fill="none" stroke-linecap="round"></path></svg>