<svg xmlns="http://www.w3.org/2000/svg" xmlns:xlink="http://www.w3.org/1999/xlink" viewBox="0 0 360 500"><path d="M 146.667,163.333 C 154.152,164.936 154.101,165.271 161.637,166.538" stroke-width="19.251" stroke="rgb(33,33,33)" fill="none" stroke-linecap="round"></path><path d="M 161.637,166.538 C 165.899,167.255 165.950,166.914 170.262,167.300" stroke-width="17.711" stroke="rgb(33,33,33)" fill="none" stroke-linecap="round"></path><path d="M 170.262,167.300 C 175.086,167.732 175.080,167.945 179.910,168.174" stroke-width="16.386" stroke="rgb(33,33,33)" fill="none" stroke-linecap="round"></path><path d="M 179.910,168.174 C 182.449,168.295 182.488,168.324 185.000,168.000" stroke-width="16.219" stroke="rgb(33,33,33)" fill="none" stroke-linecap="round"></path><path d="M 185.000,168.000 C 187.033,167.737 190.789,167.312 189.000,167.000" stroke-width="16.766" stroke="rgb(33,33,33)" fill="none" stroke-linecap="round"></path><path d="M 189.000,167.000 C 161.967,162.286 157.446,158.401 127.357,157.947" stroke-width="14.975" stroke="rgb(33,33,33)" fill="none" stroke-linecap="round"></path><path d="M 127.357,157.947 C 119.418,157.827 109.500,162.057 112.944,165.853" stroke-width="14.799" stroke="rgb(33,33,33)" fill="none" stroke-linecap="round"></path><path d="M 112.944,165.853 C 122.407,176.282 131.624,181.402 153.171,186.396" stroke-width="13.542" stroke="rgb(33,33,33)" fill="none" stroke-linecap="round"></path><path d="M 153.171,186.396 C 184.118,193.569 186.549,192.713 217.932,190.188" stroke-width="12.612" stroke="rgb(33,33,33)" fill="none" stroke-linecap="round"></path><path d="M 217.932,190.188 C 228.528,189.335 240.560,185.822 237.129,179.640" stroke-width="12.634" stroke="rgb(33,33,33)" fill="none" stroke-linecap="round"></path><path d="M 237.129,179.640 C 228.761,164.562 218.499,155.263 194.333,147.667" stroke-width="11.530" stroke="rgb(33,33,33)" fill="none" stroke-linecap="round"></path><path d="M 194.333,147.667 C 168.041,139.403 163.468,142.662 136.214,147.920" stroke-width="11.626" stroke="rgb(33,33,33)" fill="none" stroke-linecap="round"></path><path d="M 136.214,147.920 C 125.324,150.021 110.760,159.803 118.046,162.385" stroke-width="11.865" stroke="rgb(33,33,33)" fill="none" stroke-linecap="round"></path><path d="M 118.046,162.385 C 146.153,172.344 162.949,171.733 207.000,173.000" stroke-width="10.313" stroke="rgb(33,33,33)" fill="none" stroke-linecap="round"></path><path d="M 207.000,173.000 C 218.315,173.326 237.560,164.013 228.778,165.571" stroke-width="11.215" stroke="rgb(33,33,33)" fill="none" stroke-linecap="round"></path><path d="M 228.778,165.571 C 159.820,177.805 109.734,182.248 51.520,200.585" stroke-width="8.274" stroke="rgb(33,33,33)" fill="none" stroke-linecap="round"></path><path d="M 51.520,200.585 C 39.372,204.411 69.313,208.637 88.055,209.898" stroke-width="8.912" stroke="rgb(33,33,33)" fill="none" stroke-linecap="round"></path><path d="M 88.055,209.898 C 174.700,215.727 175.166,212.784 262.294,214.765" stroke-width="6.841" stroke="rgb(33,33,33)" fill="none" stroke-linecap="round"></path><path d="M 262.294,214.765 C 299.345,215.607 299.360,214.984 336.413,215.544" stroke-width="7.097" stroke="rgb(33,33,33)" fill="none" stroke-linecap="round"></path><path d="M 336.413,215.544 C 340.213,215.601 341.834,213.864 344.000,216.000" stroke-width="8.028" stroke="rgb(33,33,33)" fill="none" stroke-linecap="round"></path></svg>