<svg xmlns="http://www.w3.org/2000/svg" xmlns:xlink="http://www.w3.org/1999/xlink" viewBox="0 0 800 500"><path d="M 164.500,319.000 C 165.500,317.500 165.054,316.964 166.500,316.000" stroke-width="20.010" stroke="rgb(33,33,33)" fill="none" stroke-linecap="round"></path><path d="M 166.500,316.000 C 169.554,313.964 170.249,314.950 173.500,313.000" stroke-width="17.178" stroke="rgb(33,33,33)" fill="none" stroke-linecap="round"></path><path d="M 173.500,313.000 C 180.249,308.950 179.698,308.001 186.500,304.000" stroke-width="14.607" stroke="rgb(33,33,33)" fill="none" stroke-linecap="round"></path><path d="M 186.500,304.000 C 196.698,298.001 196.864,298.228 207.500,293.000" stroke-width="8.118" stroke="rgb(33,33,33)" fill="none" stroke-linecap="round"></path><path d="M 207.500,293.000 C 226.364,283.728 226.454,283.902 245.500,275.000" stroke-width="6.750" stroke="rgb(33,33,33)" fill="none" stroke-linecap="round"></path><path d="M 245.500,275.000 C 272.454,262.402 272.520,262.543 299.500,250.000" stroke-width="6.750" stroke="rgb(33,33,33)" fill="none" stroke-linecap="round"></path><path d="M 299.500,250.000 C 329.520,236.043 329.469,235.934 359.500,222.000" stroke-width="6.750" stroke="rgb(33,33,33)" fill="none" stroke-linecap="round"></path><path d="M 359.500,222.000 C 391.969,206.934 392.008,207.017 424.500,192.000" stroke-width="6.750" stroke="rgb(33,33,33)" fill="none" stroke-linecap="round"></path><path d="M 424.500,192.000 C 451.508,179.517 452.642,181.512 478.500,167.000" stroke-width="6.750" stroke="rgb(33,33,33)" fill="none" stroke-linecap="round"></path><path d="M 478.500,167.000 C 501.642,154.012 501.016,152.700 522.500,137.000" stroke-width="6.750" stroke="rgb(33,33,33)" fill="none" stroke-linecap="round"></path><path d="M 522.500,137.000 C 540.016,124.200 540.663,124.726 556.500,110.000" stroke-width="6.750" stroke="rgb(33,33,33)" fill="none" stroke-linecap="round"></path><path d="M 556.500,110.000 C 569.163,98.226 569.230,97.921 579.500,84.000" stroke-width="6.750" stroke="rgb(33,33,33)" fill="none" stroke-linecap="round"></path><path d="M 579.500,84.000 C 591.730,67.421 592.050,67.144 601.500,49.000" stroke-width="6.750" stroke="rgb(33,33,33)" fill="none" stroke-linecap="round"></path><path d="M 601.500,49.000 C 604.550,43.144 603.105,42.512 604.500,36.000" stroke-width="6.750" stroke="rgb(33,33,33)" fill="none" stroke-linecap="round"></path><path d="M 604.500,36.000 C 604.605,35.512 604.838,34.797 604.500,35.000" stroke-width="6.750" stroke="rgb(33,33,33)" fill="none" stroke-linecap="round"></path><path d="M 604.500,35.000 C 602.338,36.297 601.756,36.744 599.500,39.000" stroke-width="6.750" stroke="rgb(33,33,33)" fill="none" stroke-linecap="round"></path><path d="M 599.500,39.000 C 595.256,43.244 594.982,43.125 591.500,48.000" stroke-width="6.750" stroke="rgb(33,33,33)" fill="none" stroke-linecap="round"></path><path d="M 591.500,48.000 C 587.482,53.625 587.051,53.624 584.500,60.000" stroke-width="6.750" stroke="rgb(33,33,33)" fill="none" stroke-linecap="round"></path><path d="M 584.500,60.000 C 582.051,66.124 583.065,66.516 581.500,73.000" stroke-width="6.750" stroke="rgb(33,33,33)" fill="none" stroke-linecap="round"></path><path d="M 581.500,73.000 C 579.565,81.016 579.031,80.908 577.500,89.000" stroke-width="6.750" stroke="rgb(33,33,33)" fill="none" stroke-linecap="round"></path><path d="M 577.500,89.000 C 575.531,99.408 576.204,99.533 574.500,110.000" stroke-width="6.750" stroke="rgb(33,33,33)" fill="none" stroke-linecap="round"></path><path d="M 574.500,110.000 C 572.704,121.033 571.697,120.928 570.500,132.000" stroke-width="6.750" stroke="rgb(33,33,33)" fill="none" stroke-linecap="round"></path><path d="M 570.500,132.000 C 569.697,139.428 570.500,139.500 570.500,147.000" stroke-width="6.750" stroke="rgb(33,33,33)" fill="none" stroke-linecap="round"></path><path d="M 570.500,147.000 C 570.500,153.500 570.500,153.500 570.500,160.000" stroke-width="6.750" stroke="rgb(33,33,33)" fill="none" stroke-linecap="round"></path><path d="M 570.500,160.000 C 570.500,165.000 570.005,165.049 570.500,170.000" stroke-width="6.750" stroke="rgb(33,33,33)" fill="none" stroke-linecap="round"></path><path d="M 570.500,170.000 C 571.005,175.049 571.205,175.078 572.500,180.000" stroke-width="6.877" stroke="rgb(33,33,33)" fill="none" stroke-linecap="round"></path><path d="M 572.500,180.000 C 573.705,184.578 573.642,184.665 575.500,189.000" stroke-width="7.251" stroke="rgb(33,33,33)" fill="none" stroke-linecap="round"></path><path d="M 575.500,189.000 C 576.642,191.665 576.723,191.716 578.500,194.000" stroke-width="7.849" stroke="rgb(33,33,33)" fill="none" stroke-linecap="round"></path><path d="M 578.500,194.000 C 580.223,196.216 580.500,196.000 582.500,198.000" stroke-width="8.418" stroke="rgb(33,33,33)" fill="none" stroke-linecap="round"></path><path d="M 582.500,198.000 C 584.500,200.000 584.091,200.795 586.500,202.000" stroke-width="8.937" stroke="rgb(33,33,33)" fill="none" stroke-linecap="round"></path><path d="M 586.500,202.000 C 589.091,203.295 589.476,202.784 592.500,203.000" stroke-width="9.355" stroke="rgb(33,33,33)" fill="none" stroke-linecap="round"></path><path d="M 592.500,203.000 C 596.476,203.284 596.500,203.000 600.500,203.000" stroke-width="9.499" stroke="rgb(33,33,33)" fill="none" stroke-linecap="round"></path><path d="M 600.500,203.000 C 603.500,203.000 603.636,203.661 606.500,203.000" stroke-width="9.852" stroke="rgb(33,33,33)" fill="none" stroke-linecap="round"></path><path d="M 606.500,203.000 C 610.136,202.161 610.102,201.699 613.500,200.000" stroke-width="9.952" stroke="rgb(33,33,33)" fill="none" stroke-linecap="round"></path><path d="M 613.500,200.000 C 616.102,198.699 616.743,199.050 618.500,197.000" stroke-width="10.261" stroke="rgb(33,33,33)" fill="none" stroke-linecap="round"></path><path d="M 618.500,197.000 C 619.743,195.550 618.852,194.945 619.500,193.000" stroke-width="10.760" stroke="rgb(33,33,33)" fill="none" stroke-linecap="round"></path><path d="M 619.500,193.000 C 619.852,191.945 620.321,192.076 620.500,191.000" stroke-width="11.496" stroke="rgb(33,33,33)" fill="none" stroke-linecap="round"></path><path d="M 620.500,191.000 C 620.821,189.076 621.570,188.427 620.500,187.000" stroke-width="11.848" stroke="rgb(33,33,33)" fill="none" stroke-linecap="round"></path><path d="M 620.500,187.000 C 618.570,184.427 617.690,184.664 614.500,183.000" stroke-width="11.587" stroke="rgb(33,33,33)" fill="none" stroke-linecap="round"></path><path d="M 614.500,183.000 C 606.190,178.664 606.403,177.841 597.500,175.000" stroke-width="9.793" stroke="rgb(33,33,33)" fill="none" stroke-linecap="round"></path><path d="M 597.500,175.000 C 582.903,170.341 582.636,170.803 567.500,168.000" stroke-width="7.976" stroke="rgb(33,33,33)" fill="none" stroke-linecap="round"></path><path d="M 567.500,168.000 C 542.136,163.303 541.954,164.278 516.500,160.000" stroke-width="6.750" stroke="rgb(33,33,33)" fill="none" stroke-linecap="round"></path><path d="M 516.500,160.000 C 482.454,154.278 482.626,153.184 448.500,148.000" stroke-width="6.750" stroke="rgb(33,33,33)" fill="none" stroke-linecap="round"></path><path d="M 448.500,148.000 C 403.626,141.184 403.514,141.892 358.500,136.000" stroke-width="6.750" stroke="rgb(33,33,33)" fill="none" stroke-linecap="round"></path><path d="M 358.500,136.000 C 308.014,129.392 308.165,127.780 257.500,123.000" stroke-width="6.750" stroke="rgb(33,33,33)" fill="none" stroke-linecap="round"></path><path d="M 257.500,123.000 C 202.165,117.780 202.010,119.331 146.500,116.000" stroke-width="6.750" stroke="rgb(33,33,33)" fill="none" stroke-linecap="round"></path><path d="M 146.500,116.000 C 102.010,113.331 86.264,90.081 57.500,111.000" stroke-width="6.750" stroke="rgb(33,33,33)" fill="none" stroke-linecap="round"></path><path d="M 57.500,111.000 C 25.764,134.081 14.846,170.885 25.500,204.000" stroke-width="6.750" stroke="rgb(33,33,33)" fill="none" stroke-linecap="round"></path><path d="M 25.500,204.000 C 33.346,228.385 59.434,217.297 94.500,226.000" stroke-width="6.750" stroke="rgb(33,33,33)" fill="none" stroke-linecap="round"></path><path d="M 94.500,226.000 C 127.934,234.297 128.590,231.529 162.500,238.000" stroke-width="6.750" stroke="rgb(33,33,33)" fill="none" stroke-linecap="round"></path><path d="M 162.500,238.000 C 194.090,244.029 194.017,244.417 225.500,251.000" stroke-width="6.750" stroke="rgb(33,33,33)" fill="none" stroke-linecap="round"></path><path d="M 225.500,251.000 C 249.017,255.917 249.112,255.533 272.500,261.000" stroke-width="6.750" stroke="rgb(33,33,33)" fill="none" stroke-linecap="round"></path><path d="M 272.500,261.000 C 287.612,264.533 287.612,264.643 302.500,269.000" stroke-width="6.750" stroke="rgb(33,33,33)" fill="none" stroke-linecap="round"></path><path d="M 302.500,269.000 C 308.112,270.643 307.928,271.408 313.500,273.000" stroke-width="6.750" stroke="rgb(33,33,33)" fill="none" stroke-linecap="round"></path><path d="M 313.500,273.000 C 314.928,273.408 315.750,273.000 316.500,273.000" stroke-width="6.750" stroke="rgb(33,33,33)" fill="none" stroke-linecap="round"></path><path d="M 316.500,273.000 C 316.750,273.000 315.977,273.143 315.500,273.000" stroke-width="6.750" stroke="rgb(33,33,33)" fill="none" stroke-linecap="round"></path><path d="M 315.500,273.000 C 310.977,271.643 310.878,271.812 306.500,270.000" stroke-width="6.750" stroke="rgb(33,33,33)" fill="none" stroke-linecap="round"></path><path d="M 306.500,270.000 C 296.378,265.812 296.939,264.132 286.500,261.000" stroke-width="6.750" stroke="rgb(33,33,33)" fill="none" stroke-linecap="round"></path><path d="M 286.500,261.000 C 271.939,256.632 271.341,258.649 256.500,255.000" stroke-width="6.750" stroke="rgb(33,33,33)" fill="none" stroke-linecap="round"></path><path d="M 256.500,255.000 C 240.841,251.149 241.297,248.916 225.500,246.000" stroke-width="6.750" stroke="rgb(33,33,33)" fill="none" stroke-linecap="round"></path><path d="M 225.500,246.000 C 208.797,242.916 208.489,244.618 191.500,243.000" stroke-width="6.750" stroke="rgb(33,33,33)" fill="none" stroke-linecap="round"></path><path d="M 191.500,243.000 C 176.989,241.618 177.010,241.395 162.500,240.000" stroke-width="6.750" stroke="rgb(33,33,33)" fill="none" stroke-linecap="round"></path><path d="M 162.500,240.000 C 151.010,238.895 151.016,238.640 139.500,238.000" stroke-width="6.750" stroke="rgb(33,33,33)" fill="none" stroke-linecap="round"></path><path d="M 139.500,238.000 C 133.016,237.640 133.000,238.000 126.500,238.000" stroke-width="6.750" stroke="rgb(33,33,33)" fill="none" stroke-linecap="round"></path><path d="M 126.500,238.000 C 123.500,238.000 123.500,238.000 120.500,238.000" stroke-width="6.750" stroke="rgb(33,33,33)" fill="none" stroke-linecap="round"></path><path d="M 120.500,238.000 C 118.500,238.000 117.833,237.333 116.500,238.000" stroke-width="6.750" stroke="rgb(33,33,33)" fill="none" stroke-linecap="round"></path><path d="M 116.500,238.000 C 115.833,238.333 116.500,239.000 116.500,240.000" stroke-width="7.125" stroke="rgb(33,33,33)" fill="none" stroke-linecap="round"></path><path d="M 116.500,240.000 C 116.500,240.500 116.293,240.586 116.500,241.000" stroke-width="8.105" stroke="rgb(33,33,33)" fill="none" stroke-linecap="round"></path><path d="M 116.500,241.000 C 116.793,241.586 117.000,241.500 117.500,242.000" stroke-width="9.079" stroke="rgb(33,33,33)" fill="none" stroke-linecap="round"></path><path d="M 117.500,242.000 C 118.000,242.500 118.000,242.500 118.500,243.000" stroke-width="9.969" stroke="rgb(33,33,33)" fill="none" stroke-linecap="round"></path><path d="M 118.500,243.000 C 119.000,243.500 118.914,243.707 119.500,244.000" stroke-width="10.884" stroke="rgb(33,33,33)" fill="none" stroke-linecap="round"></path><path d="M 119.500,244.000 C 119.914,244.207 120.004,243.938 120.500,244.000" stroke-width="11.974" stroke="rgb(33,33,33)" fill="none" stroke-linecap="round"></path><path d="M 120.500,244.000 C 124.004,244.438 123.992,244.562 127.500,245.000" stroke-width="12.043" stroke="rgb(33,33,33)" fill="none" stroke-linecap="round"></path><path d="M 127.500,245.000 C 131.992,245.562 131.995,245.550 136.500,246.000" stroke-width="10.964" stroke="rgb(33,33,33)" fill="none" stroke-linecap="round"></path><path d="M 136.500,246.000 C 141.995,246.550 142.087,246.016 147.500,247.000" stroke-width="10.666" stroke="rgb(33,33,33)" fill="none" stroke-linecap="round"></path><path d="M 147.500,247.000 C 153.087,248.016 152.902,249.067 158.500,250.000" stroke-width="9.904" stroke="rgb(33,33,33)" fill="none" stroke-linecap="round"></path><path d="M 158.500,250.000 C 164.902,251.067 165.012,250.382 171.500,251.000" stroke-width="8.920" stroke="rgb(33,33,33)" fill="none" stroke-linecap="round"></path><path d="M 171.500,251.000 C 175.512,251.382 175.487,251.713 179.500,252.000" stroke-width="9.300" stroke="rgb(33,33,33)" fill="none" stroke-linecap="round"></path></svg>