<svg xmlns="http://www.w3.org/2000/svg" xmlns:xlink="http://www.w3.org/1999/xlink" viewBox="0 0 360 500"><path d="M 76.000,136.000 C 76.452,147.715 75.304,147.898 76.905,159.430" stroke-width="18.847" stroke="rgb(33,33,33)" fill="none" stroke-linecap="round"></path><path d="M 76.905,159.430 C 78.049,167.668 78.677,167.673 81.490,175.540" stroke-width="16.115" stroke="rgb(33,33,33)" fill="none" stroke-linecap="round"></path><path d="M 81.490,175.540 C 84.021,182.619 83.582,183.126 87.593,189.322" stroke-width="14.751" stroke="rgb(33,33,33)" fill="none" stroke-linecap="round"></path><path d="M 87.593,189.322 C 90.014,193.062 90.430,193.966 94.353,195.412" stroke-width="14.622" stroke="rgb(33,33,33)" fill="none" stroke-linecap="round"></path><path d="M 94.353,195.412 C 97.836,196.696 99.239,196.921 102.405,194.781" stroke-width="14.140" stroke="rgb(33,33,33)" fill="none" stroke-linecap="round"></path><path d="M 102.405,194.781 C 109.964,189.673 109.541,188.228 115.803,180.916" stroke-width="13.076" stroke="rgb(33,33,33)" fill="none" stroke-linecap="round"></path><path d="M 115.803,180.916 C 123.740,171.649 124.241,171.882 130.802,161.624" stroke-width="11.609" stroke="rgb(33,33,33)" fill="none" stroke-linecap="round"></path><path d="M 130.802,161.624 C 138.847,149.047 138.402,148.677 145.014,135.247" stroke-width="10.279" stroke="rgb(33,33,33)" fill="none" stroke-linecap="round"></path><path d="M 145.014,135.247 C 150.798,123.498 150.671,123.404 155.594,111.266" stroke-width="9.417" stroke="rgb(33,33,33)" fill="none" stroke-linecap="round"></path><path d="M 155.594,111.266 C 159.508,101.618 159.449,101.562 162.688,91.675" stroke-width="9.464" stroke="rgb(33,33,33)" fill="none" stroke-linecap="round"></path><path d="M 162.688,91.675 C 163.804,88.269 164.176,87.965 164.303,84.680" stroke-width="10.190" stroke="rgb(33,33,33)" fill="none" stroke-linecap="round"></path><path d="M 164.303,84.680 C 164.334,83.877 163.606,83.015 163.004,83.500" stroke-width="11.177" stroke="rgb(33,33,33)" fill="none" stroke-linecap="round"></path><path d="M 163.004,83.500 C 158.961,86.752 158.390,87.350 155.013,92.153" stroke-width="11.140" stroke="rgb(33,33,33)" fill="none" stroke-linecap="round"></path><path d="M 155.013,92.153 C 145.025,106.358 145.483,106.735 136.273,121.516" stroke-width="10.275" stroke="rgb(33,33,33)" fill="none" stroke-linecap="round"></path><path d="M 136.273,121.516 C 124.875,139.809 124.636,139.677 113.798,158.303" stroke-width="8.300" stroke="rgb(33,33,33)" fill="none" stroke-linecap="round"></path><path d="M 113.798,158.303 C 101.875,178.794 101.567,178.667 90.750,199.750" stroke-width="7.378" stroke="rgb(33,33,33)" fill="none" stroke-linecap="round"></path><path d="M 90.750,199.750 C 81.973,216.857 82.155,216.994 74.611,234.682" stroke-width="7.172" stroke="rgb(33,33,33)" fill="none" stroke-linecap="round"></path><path d="M 74.611,234.682 C 68.572,248.842 68.100,248.830 63.583,263.446" stroke-width="7.230" stroke="rgb(33,33,33)" fill="none" stroke-linecap="round"></path><path d="M 63.583,263.446 C 62.109,268.216 62.611,268.476 62.629,273.454" stroke-width="7.764" stroke="rgb(33,33,33)" fill="none" stroke-linecap="round"></path><path d="M 62.629,273.454 C 62.638,275.960 61.930,277.377 63.638,278.413" stroke-width="8.689" stroke="rgb(33,33,33)" fill="none" stroke-linecap="round"></path><path d="M 63.638,278.413 C 66.143,279.932 67.557,279.526 71.055,278.564" stroke-width="9.484" stroke="rgb(33,33,33)" fill="none" stroke-linecap="round"></path><path d="M 71.055,278.564 C 77.596,276.765 77.808,276.470 83.716,272.892" stroke-width="9.545" stroke="rgb(33,33,33)" fill="none" stroke-linecap="round"></path><path d="M 83.716,272.892 C 94.084,266.613 94.535,266.873 103.607,258.851" stroke-width="8.793" stroke="rgb(33,33,33)" fill="none" stroke-linecap="round"></path><path d="M 103.607,258.851 C 113.853,249.791 113.200,248.988 122.351,238.729" stroke-width="8.559" stroke="rgb(33,33,33)" fill="none" stroke-linecap="round"></path><path d="M 122.351,238.729 C 131.998,227.915 132.133,228.002 141.202,216.705" stroke-width="8.548" stroke="rgb(33,33,33)" fill="none" stroke-linecap="round"></path><path d="M 141.202,216.705 C 149.271,206.654 149.652,206.841 156.627,196.034" stroke-width="8.220" stroke="rgb(33,33,33)" fill="none" stroke-linecap="round"></path><path d="M 156.627,196.034 C 162.839,186.409 162.720,186.221 167.577,175.840" stroke-width="8.022" stroke="rgb(33,33,33)" fill="none" stroke-linecap="round"></path><path d="M 167.577,175.840 C 171.618,167.205 172.293,167.182 174.423,158.000" stroke-width="8.327" stroke="rgb(33,33,33)" fill="none" stroke-linecap="round"></path><path d="M 174.423,158.000 C 175.941,151.457 175.486,151.103 174.874,144.391" stroke-width="8.702" stroke="rgb(33,33,33)" fill="none" stroke-linecap="round"></path><path d="M 174.874,144.391 C 174.408,139.278 174.952,138.429 172.268,134.350" stroke-width="9.393" stroke="rgb(33,33,33)" fill="none" stroke-linecap="round"></path><path d="M 172.268,134.350 C 169.818,130.627 168.900,130.323 164.606,128.788" stroke-width="9.874" stroke="rgb(33,33,33)" fill="none" stroke-linecap="round"></path><path d="M 164.606,128.788 C 159.903,127.108 159.386,127.489 154.274,127.920" stroke-width="10.233" stroke="rgb(33,33,33)" fill="none" stroke-linecap="round"></path><path d="M 154.274,127.920 C 147.415,128.497 147.224,128.620 140.665,130.804" stroke-width="10.494" stroke="rgb(33,33,33)" fill="none" stroke-linecap="round"></path><path d="M 140.665,130.804 C 133.956,133.038 134.091,133.564 127.738,136.756" stroke-width="10.401" stroke="rgb(33,33,33)" fill="none" stroke-linecap="round"></path><path d="M 127.738,136.756 C 123.316,138.978 123.447,139.232 119.114,141.631" stroke-width="10.805" stroke="rgb(33,33,33)" fill="none" stroke-linecap="round"></path><path d="M 119.114,141.631 C 117.619,142.459 115.886,143.709 116.083,143.209" stroke-width="11.624" stroke="rgb(33,33,33)" fill="none" stroke-linecap="round"></path><path d="M 116.083,143.209 C 116.427,142.336 117.939,140.829 120.195,138.886" stroke-width="12.139" stroke="rgb(33,33,33)" fill="none" stroke-linecap="round"></path><path d="M 120.195,138.886 C 125.862,134.003 125.868,133.958 131.928,129.557" stroke-width="12.022" stroke="rgb(33,33,33)" fill="none" stroke-linecap="round"></path><path d="M 131.928,129.557 C 140.566,123.284 140.325,122.771 149.591,117.538" stroke-width="10.930" stroke="rgb(33,33,33)" fill="none" stroke-linecap="round"></path><path d="M 149.591,117.538 C 158.068,112.751 158.269,112.878 167.414,109.517" stroke-width="10.511" stroke="rgb(33,33,33)" fill="none" stroke-linecap="round"></path><path d="M 167.414,109.517 C 174.929,106.755 175.059,106.563 182.910,105.293" stroke-width="10.691" stroke="rgb(33,33,33)" fill="none" stroke-linecap="round"></path><path d="M 182.910,105.293 C 187.471,104.555 188.616,103.789 192.239,105.500" stroke-width="10.893" stroke="rgb(33,33,33)" fill="none" stroke-linecap="round"></path><path d="M 192.239,105.500 C 194.563,106.597 194.619,108.051 194.803,110.909" stroke-width="11.493" stroke="rgb(33,33,33)" fill="none" stroke-linecap="round"></path><path d="M 194.803,110.909 C 195.101,115.545 195.130,116.111 193.203,120.487" stroke-width="11.830" stroke="rgb(33,33,33)" fill="none" stroke-linecap="round"></path><path d="M 193.203,120.487 C 189.269,129.420 188.811,129.480 183.080,137.528" stroke-width="11.144" stroke="rgb(33,33,33)" fill="none" stroke-linecap="round"></path><path d="M 183.080,137.528 C 176.664,146.538 176.354,146.393 168.910,154.603" stroke-width="10.387" stroke="rgb(33,33,33)" fill="none" stroke-linecap="round"></path><path d="M 168.910,154.603 C 162.310,161.882 162.169,161.797 154.993,168.507" stroke-width="10.351" stroke="rgb(33,33,33)" fill="none" stroke-linecap="round"></path><path d="M 154.993,168.507 C 151.586,171.693 151.460,171.577 147.744,174.395" stroke-width="10.761" stroke="rgb(33,33,33)" fill="none" stroke-linecap="round"></path><path d="M 147.744,174.395 C 146.147,175.606 143.544,176.837 144.368,176.566" stroke-width="11.512" stroke="rgb(33,33,33)" fill="none" stroke-linecap="round"></path><path d="M 144.368,176.566 C 146.418,175.891 148.934,174.543 153.492,172.504" stroke-width="12.142" stroke="rgb(33,33,33)" fill="none" stroke-linecap="round"></path><path d="M 153.492,172.504 C 159.564,169.787 159.277,168.798 165.628,167.054" stroke-width="12.039" stroke="rgb(33,33,33)" fill="none" stroke-linecap="round"></path><path d="M 165.628,167.054 C 173.278,164.954 173.527,165.372 181.494,164.816" stroke-width="11.511" stroke="rgb(33,33,33)" fill="none" stroke-linecap="round"></path><path d="M 181.494,164.816 C 187.776,164.378 188.056,163.817 194.125,165.066" stroke-width="11.680" stroke="rgb(33,33,33)" fill="none" stroke-linecap="round"></path><path d="M 194.125,165.066 C 199.434,166.159 200.539,165.953 204.250,169.500" stroke-width="11.605" stroke="rgb(33,33,33)" fill="none" stroke-linecap="round"></path><path d="M 204.250,169.500 C 207.434,172.543 207.382,173.684 207.915,178.246" stroke-width="11.860" stroke="rgb(33,33,33)" fill="none" stroke-linecap="round"></path><path d="M 207.915,178.246 C 208.580,183.937 208.247,184.369 206.646,190.006" stroke-width="11.816" stroke="rgb(33,33,33)" fill="none" stroke-linecap="round"></path><path d="M 206.646,190.006 C 204.162,198.751 203.760,198.782 199.746,207.009" stroke-width="11.332" stroke="rgb(33,33,33)" fill="none" stroke-linecap="round"></path><path d="M 199.746,207.009 C 195.513,215.685 195.623,215.876 190.151,223.812" stroke-width="11.108" stroke="rgb(33,33,33)" fill="none" stroke-linecap="round"></path><path d="M 190.151,223.812 C 184.629,231.820 184.111,231.490 177.758,238.897" stroke-width="10.452" stroke="rgb(33,33,33)" fill="none" stroke-linecap="round"></path><path d="M 177.758,238.897 C 173.377,244.005 173.419,244.072 168.684,248.842" stroke-width="10.746" stroke="rgb(33,33,33)" fill="none" stroke-linecap="round"></path><path d="M 168.684,248.842 C 165.750,251.798 164.971,251.617 162.419,254.350" stroke-width="11.085" stroke="rgb(33,33,33)" fill="none" stroke-linecap="round"></path><path d="M 162.419,254.350 C 162.167,254.620 162.741,255.005 163.075,254.849" stroke-width="12.108" stroke="rgb(33,33,33)" fill="none" stroke-linecap="round"></path><path d="M 163.075,254.849 C 164.701,254.093 164.769,253.769 166.339,252.526" stroke-width="12.816" stroke="rgb(33,33,33)" fill="none" stroke-linecap="round"></path><path d="M 166.339,252.526 C 171.384,248.533 171.547,248.702 176.306,244.377" stroke-width="12.063" stroke="rgb(33,33,33)" fill="none" stroke-linecap="round"></path><path d="M 176.306,244.377 C 183.251,238.065 183.428,238.184 189.748,231.252" stroke-width="11.816" stroke="rgb(33,33,33)" fill="none" stroke-linecap="round"></path><path d="M 189.748,231.252 C 197.275,222.995 196.761,222.530 204.000,214.000" stroke-width="10.573" stroke="rgb(33,33,33)" fill="none" stroke-linecap="round"></path><path d="M 204.000,214.000 C 211.621,205.019 212.274,205.527 219.468,196.228" stroke-width="10.350" stroke="rgb(33,33,33)" fill="none" stroke-linecap="round"></path><path d="M 219.468,196.228 C 225.538,188.382 225.284,188.146 230.527,179.709" stroke-width="9.882" stroke="rgb(33,33,33)" fill="none" stroke-linecap="round"></path><path d="M 230.527,179.709 C 235.316,172.002 235.806,172.172 239.531,163.939" stroke-width="9.648" stroke="rgb(33,33,33)" fill="none" stroke-linecap="round"></path><path d="M 239.531,163.939 C 242.940,156.403 242.686,156.186 244.795,148.172" stroke-width="10.037" stroke="rgb(33,33,33)" fill="none" stroke-linecap="round"></path><path d="M 244.795,148.172 C 246.320,142.374 246.436,142.264 246.799,136.314" stroke-width="10.052" stroke="rgb(33,33,33)" fill="none" stroke-linecap="round"></path><path d="M 246.799,136.314 C 247.037,132.420 247.051,132.189 245.997,128.485" stroke-width="10.689" stroke="rgb(33,33,33)" fill="none" stroke-linecap="round"></path><path d="M 245.997,128.485 C 245.232,125.798 245.170,124.872 243.160,123.530" stroke-width="11.183" stroke="rgb(33,33,33)" fill="none" stroke-linecap="round"></path><path d="M 243.160,123.530 C 241.734,122.578 240.930,123.119 239.126,123.896" stroke-width="11.957" stroke="rgb(33,33,33)" fill="none" stroke-linecap="round"></path><path d="M 239.126,123.896 C 236.188,125.163 235.655,125.067 233.676,127.618" stroke-width="12.493" stroke="rgb(33,33,33)" fill="none" stroke-linecap="round"></path><path d="M 233.676,127.618 C 229.303,133.256 229.163,133.566 226.422,140.273" stroke-width="11.766" stroke="rgb(33,33,33)" fill="none" stroke-linecap="round"></path><path d="M 226.422,140.273 C 222.783,149.177 223.185,149.438 220.915,158.839" stroke-width="11.133" stroke="rgb(33,33,33)" fill="none" stroke-linecap="round"></path><path d="M 220.915,158.839 C 218.413,169.200 217.578,169.252 216.878,179.796" stroke-width="10.701" stroke="rgb(33,33,33)" fill="none" stroke-linecap="round"></path><path d="M 216.878,179.796 C 216.326,188.115 217.610,188.183 218.412,196.564" stroke-width="10.886" stroke="rgb(33,33,33)" fill="none" stroke-linecap="round"></path><path d="M 218.412,196.564 C 219.024,202.962 218.658,203.042 219.706,209.354" stroke-width="10.536" stroke="rgb(33,33,33)" fill="none" stroke-linecap="round"></path><path d="M 219.706,209.354 C 220.182,212.219 219.846,212.799 221.459,214.918" stroke-width="11.257" stroke="rgb(33,33,33)" fill="none" stroke-linecap="round"></path><path d="M 221.459,214.918 C 222.577,216.386 223.383,216.812 225.167,216.528" stroke-width="11.933" stroke="rgb(33,33,33)" fill="none" stroke-linecap="round"></path><path d="M 225.167,216.528 C 227.753,216.117 228.309,215.702 230.200,213.528" stroke-width="12.380" stroke="rgb(33,33,33)" fill="none" stroke-linecap="round"></path><path d="M 230.200,213.528 C 235.874,207.005 235.887,206.709 240.297,199.135" stroke-width="11.805" stroke="rgb(33,33,33)" fill="none" stroke-linecap="round"></path><path d="M 240.297,199.135 C 245.488,190.220 245.886,190.234 249.402,180.550" stroke-width="11.236" stroke="rgb(33,33,33)" fill="none" stroke-linecap="round"></path><path d="M 249.402,180.550 C 254.008,167.864 253.188,167.528 256.542,154.395" stroke-width="10.108" stroke="rgb(33,33,33)" fill="none" stroke-linecap="round"></path><path d="M 256.542,154.395 C 260.019,140.780 259.721,140.704 263.064,127.054" stroke-width="9.650" stroke="rgb(33,33,33)" fill="none" stroke-linecap="round"></path><path d="M 263.064,127.054 C 266.075,114.757 266.613,114.873 269.250,102.500" stroke-width="9.224" stroke="rgb(33,33,33)" fill="none" stroke-linecap="round"></path><path d="M 269.250,102.500 C 271.679,91.101 271.581,91.054 273.196,79.509" stroke-width="9.009" stroke="rgb(33,33,33)" fill="none" stroke-linecap="round"></path><path d="M 273.196,79.509 C 274.648,69.131 274.805,69.105 275.385,58.654" stroke-width="9.491" stroke="rgb(33,33,33)" fill="none" stroke-linecap="round"></path><path d="M 275.385,58.654 C 275.799,51.199 275.434,51.171 275.185,43.698" stroke-width="9.043" stroke="rgb(33,33,33)" fill="none" stroke-linecap="round"></path><path d="M 275.185,43.698 C 274.988,37.791 275.494,37.669 274.493,31.894" stroke-width="9.089" stroke="rgb(33,33,33)" fill="none" stroke-linecap="round"></path><path d="M 274.493,31.894 C 273.753,27.625 273.787,27.212 271.704,23.611" stroke-width="9.712" stroke="rgb(33,33,33)" fill="none" stroke-linecap="round"></path><path d="M 271.704,23.611 C 270.812,22.069 270.179,21.706 268.542,21.608" stroke-width="10.575" stroke="rgb(33,33,33)" fill="none" stroke-linecap="round"></path><path d="M 268.542,21.608 C 266.894,21.510 266.327,21.827 265.135,23.219" stroke-width="11.416" stroke="rgb(33,33,33)" fill="none" stroke-linecap="round"></path><path d="M 265.135,23.219 C 261.410,27.570 261.230,27.806 258.708,33.093" stroke-width="11.572" stroke="rgb(33,33,33)" fill="none" stroke-linecap="round"></path><path d="M 258.708,33.093 C 254.849,41.181 255.014,41.364 252.373,49.969" stroke-width="10.902" stroke="rgb(33,33,33)" fill="none" stroke-linecap="round"></path><path d="M 252.373,49.969 C 248.668,62.038 248.100,62.015 246.015,74.440" stroke-width="10.295" stroke="rgb(33,33,33)" fill="none" stroke-linecap="round"></path><path d="M 246.015,74.440 C 243.626,88.676 244.310,88.840 243.425,103.291" stroke-width="9.578" stroke="rgb(33,33,33)" fill="none" stroke-linecap="round"></path><path d="M 243.425,103.291 C 242.546,117.648 242.337,117.685 242.486,132.056" stroke-width="8.900" stroke="rgb(33,33,33)" fill="none" stroke-linecap="round"></path><path d="M 242.486,132.056 C 242.595,142.592 242.976,142.603 243.940,153.105" stroke-width="8.927" stroke="rgb(33,33,33)" fill="none" stroke-linecap="round"></path><path d="M 243.940,153.105 C 244.589,160.175 244.509,160.210 245.711,167.198" stroke-width="9.321" stroke="rgb(33,33,33)" fill="none" stroke-linecap="round"></path><path d="M 245.711,167.198 C 246.481,171.673 245.746,172.334 247.883,176.031" stroke-width="9.957" stroke="rgb(33,33,33)" fill="none" stroke-linecap="round"></path><path d="M 247.883,176.031 C 249.299,178.482 250.076,178.640 252.818,179.494" stroke-width="10.617" stroke="rgb(33,33,33)" fill="none" stroke-linecap="round"></path><path d="M 252.818,179.494 C 255.580,180.353 256.567,180.947 258.890,179.457" stroke-width="11.292" stroke="rgb(33,33,33)" fill="none" stroke-linecap="round"></path><path d="M 258.890,179.457 C 262.771,176.967 262.529,175.806 265.227,171.534" stroke-width="11.778" stroke="rgb(33,33,33)" fill="none" stroke-linecap="round"></path><path d="M 265.227,171.534 C 269.515,164.745 269.679,164.715 272.862,157.334" stroke-width="11.396" stroke="rgb(33,33,33)" fill="none" stroke-linecap="round"></path><path d="M 272.862,157.334 C 276.952,147.852 277.317,147.827 279.773,137.808" stroke-width="10.437" stroke="rgb(33,33,33)" fill="none" stroke-linecap="round"></path><path d="M 279.773,137.808 C 282.860,125.217 282.181,125.006 283.949,112.115" stroke-width="9.407" stroke="rgb(33,33,33)" fill="none" stroke-linecap="round"></path><path d="M 283.949,112.115 C 286.053,96.778 285.973,96.757 287.517,81.352" stroke-width="8.564" stroke="rgb(33,33,33)" fill="none" stroke-linecap="round"></path><path d="M 287.517,81.352 C 288.773,68.814 288.775,68.804 289.549,56.229" stroke-width="8.479" stroke="rgb(33,33,33)" fill="none" stroke-linecap="round"></path><path d="M 289.549,56.229 C 290.017,48.628 289.845,48.616 290.000,41.000" stroke-width="8.801" stroke="rgb(33,33,33)" fill="none" stroke-linecap="round"></path><path d="M 290.000,41.000 C 290.071,37.501 290.326,37.365 290.000,34.000" stroke-width="9.577" stroke="rgb(33,33,33)" fill="none" stroke-linecap="round"></path><path d="M 290.000,34.000 C 289.951,33.490 289.375,32.780 289.250,33.250" stroke-width="10.620" stroke="rgb(33,33,33)" fill="none" stroke-linecap="round"></path><path d="M 289.250,33.250 C 287.081,41.394 286.418,42.122 285.411,51.228" stroke-width="11.044" stroke="rgb(33,33,33)" fill="none" stroke-linecap="round"></path><path d="M 285.411,51.228 C 283.863,65.223 284.429,65.333 284.141,79.453" stroke-width="10.309" stroke="rgb(33,33,33)" fill="none" stroke-linecap="round"></path><path d="M 284.141,79.453 C 283.790,96.712 283.933,96.722 284.133,113.986" stroke-width="9.711" stroke="rgb(33,33,33)" fill="none" stroke-linecap="round"></path><path d="M 284.133,113.986 C 284.339,131.727 284.201,131.741 284.952,149.464" stroke-width="8.388" stroke="rgb(33,33,33)" fill="none" stroke-linecap="round"></path></svg>