<svg xmlns="http://www.w3.org/2000/svg" xmlns:xlink="http://www.w3.org/1999/xlink" viewBox="0 0 375 500"><path d="M 62.000,276.500 C 62.000,273.500 62.000,273.500 62.000,270.500" stroke-width="19.418" stroke="rgb(33,33,33)" fill="none" stroke-linecap="round"></path><path d="M 62.000,270.500 C 62.000,267.500 62.000,267.500 62.000,264.500" stroke-width="17.099" stroke="rgb(33,33,33)" fill="none" stroke-linecap="round"></path><path d="M 62.000,264.500 C 62.000,261.500 62.394,261.457 62.000,258.500" stroke-width="16.233" stroke="rgb(33,33,33)" fill="none" stroke-linecap="round"></path><path d="M 62.000,258.500 C 61.394,253.957 61.172,253.955 60.000,249.500" stroke-width="15.331" stroke="rgb(33,33,33)" fill="none" stroke-linecap="round"></path><path d="M 60.000,249.500 C 58.672,244.455 58.591,244.471 57.000,239.500" stroke-width="14.932" stroke="rgb(33,33,33)" fill="none" stroke-linecap="round"></path><path d="M 57.000,239.500 C 54.591,231.971 54.427,232.024 52.000,224.500" stroke-width="13.078" stroke="rgb(33,33,33)" fill="none" stroke-linecap="round"></path><path d="M 52.000,224.500 C 49.427,216.524 49.431,216.521 47.000,208.500" stroke-width="12.286" stroke="rgb(33,33,33)" fill="none" stroke-linecap="round"></path><path d="M 47.000,208.500 C 44.431,200.021 44.205,200.076 42.000,191.500" stroke-width="11.637" stroke="rgb(33,33,33)" fill="none" stroke-linecap="round"></path><path d="M 42.000,191.500 C 39.705,182.576 40.295,182.424 38.000,173.500" stroke-width="11.194" stroke="rgb(33,33,33)" fill="none" stroke-linecap="round"></path><path d="M 38.000,173.500 C 35.795,164.924 35.282,165.057 33.000,156.500" stroke-width="10.912" stroke="rgb(33,33,33)" fill="none" stroke-linecap="round"></path><path d="M 33.000,156.500 C 31.282,150.057 31.733,149.937 30.000,143.500" stroke-width="10.873" stroke="rgb(33,33,33)" fill="none" stroke-linecap="round"></path><path d="M 30.000,143.500 C 28.233,136.937 27.954,137.014 26.000,130.500" stroke-width="10.999" stroke="rgb(33,33,33)" fill="none" stroke-linecap="round"></path><path d="M 26.000,130.500 C 24.954,127.014 24.548,127.063 24.000,123.500" stroke-width="11.480" stroke="rgb(33,33,33)" fill="none" stroke-linecap="round"></path><path d="M 24.000,123.500 C 23.548,120.563 24.000,120.500 24.000,117.500" stroke-width="12.010" stroke="rgb(33,33,33)" fill="none" stroke-linecap="round"></path><path d="M 24.000,117.500 C 24.000,116.000 22.950,114.950 24.000,114.500" stroke-width="12.783" stroke="rgb(33,33,33)" fill="none" stroke-linecap="round"></path><path d="M 24.000,114.500 C 26.450,113.450 27.508,114.316 31.000,114.500" stroke-width="13.067" stroke="rgb(33,33,33)" fill="none" stroke-linecap="round"></path><path d="M 31.000,114.500 C 37.008,114.816 37.454,113.519 43.000,115.500" stroke-width="12.869" stroke="rgb(33,33,33)" fill="none" stroke-linecap="round"></path><path d="M 43.000,115.500 C 51.454,118.519 51.418,119.371 59.000,124.500" stroke-width="11.887" stroke="rgb(33,33,33)" fill="none" stroke-linecap="round"></path><path d="M 59.000,124.500 C 68.418,130.871 68.225,131.229 77.000,138.500" stroke-width="11.149" stroke="rgb(33,33,33)" fill="none" stroke-linecap="round"></path><path d="M 77.000,138.500 C 85.725,145.729 85.763,145.720 94.000,153.500" stroke-width="10.548" stroke="rgb(33,33,33)" fill="none" stroke-linecap="round"></path><path d="M 94.000,153.500 C 103.763,162.720 103.764,162.751 113.000,172.500" stroke-width="9.670" stroke="rgb(33,33,33)" fill="none" stroke-linecap="round"></path><path d="M 113.000,172.500 C 121.764,181.751 121.531,181.972 130.000,191.500" stroke-width="9.310" stroke="rgb(33,33,33)" fill="none" stroke-linecap="round"></path><path d="M 130.000,191.500 C 137.531,199.972 137.279,200.207 145.000,208.500" stroke-width="9.176" stroke="rgb(33,33,33)" fill="none" stroke-linecap="round"></path><path d="M 145.000,208.500 C 150.779,214.707 151.159,214.351 157.000,220.500" stroke-width="9.299" stroke="rgb(33,33,33)" fill="none" stroke-linecap="round"></path><path d="M 157.000,220.500 C 160.659,224.351 160.599,224.419 164.000,228.500" stroke-width="9.796" stroke="rgb(33,33,33)" fill="none" stroke-linecap="round"></path><path d="M 164.000,228.500 C 165.599,230.419 165.750,230.417 167.000,232.500" stroke-width="10.588" stroke="rgb(33,33,33)" fill="none" stroke-linecap="round"></path><path d="M 167.000,232.500 C 167.250,232.917 167.429,233.429 167.000,233.500" stroke-width="11.626" stroke="rgb(33,33,33)" fill="none" stroke-linecap="round"></path><path d="M 167.000,233.500 C 164.429,233.929 163.768,234.525 161.000,233.500" stroke-width="12.169" stroke="rgb(33,33,33)" fill="none" stroke-linecap="round"></path><path d="M 161.000,233.500 C 150.268,229.525 150.551,228.390 140.000,223.500" stroke-width="11.114" stroke="rgb(33,33,33)" fill="none" stroke-linecap="round"></path><path d="M 140.000,223.500 C 130.051,218.890 130.217,218.430 120.000,214.500" stroke-width="10.571" stroke="rgb(33,33,33)" fill="none" stroke-linecap="round"></path><path d="M 120.000,214.500 C 110.717,210.930 110.608,211.097 101.000,208.500" stroke-width="10.295" stroke="rgb(33,33,33)" fill="none" stroke-linecap="round"></path><path d="M 101.000,208.500 C 92.108,206.097 92.085,205.919 83.000,204.500" stroke-width="10.105" stroke="rgb(33,33,33)" fill="none" stroke-linecap="round"></path><path d="M 83.000,204.500 C 76.085,203.419 76.008,203.780 69.000,203.500" stroke-width="10.288" stroke="rgb(33,33,33)" fill="none" stroke-linecap="round"></path><path d="M 69.000,203.500 C 63.508,203.280 63.500,203.500 58.000,203.500" stroke-width="10.635" stroke="rgb(33,33,33)" fill="none" stroke-linecap="round"></path><path d="M 58.000,203.500 C 53.500,203.500 53.333,202.688 49.000,203.500" stroke-width="11.031" stroke="rgb(33,33,33)" fill="none" stroke-linecap="round"></path><path d="M 49.000,203.500 C 45.333,204.188 44.988,204.327 42.000,206.500" stroke-width="11.550" stroke="rgb(33,33,33)" fill="none" stroke-linecap="round"></path><path d="M 42.000,206.500 C 39.488,208.327 39.674,208.822 38.000,211.500" stroke-width="12.069" stroke="rgb(33,33,33)" fill="none" stroke-linecap="round"></path><path d="M 38.000,211.500 C 37.174,212.822 37.380,212.981 37.000,214.500" stroke-width="12.801" stroke="rgb(33,33,33)" fill="none" stroke-linecap="round"></path><path d="M 37.000,214.500 C 36.880,214.981 36.560,215.549 37.000,215.500" stroke-width="13.701" stroke="rgb(33,33,33)" fill="none" stroke-linecap="round"></path><path d="M 37.000,215.500 C 41.060,215.049 42.077,215.718 46.000,213.500" stroke-width="14.079" stroke="rgb(33,33,33)" fill="none" stroke-linecap="round"></path><path d="M 46.000,213.500 C 53.577,209.218 53.129,208.158 60.000,202.500" stroke-width="12.872" stroke="rgb(33,33,33)" fill="none" stroke-linecap="round"></path><path d="M 60.000,202.500 C 70.129,194.158 70.124,194.142 80.000,185.500" stroke-width="11.458" stroke="rgb(33,33,33)" fill="none" stroke-linecap="round"></path><path d="M 80.000,185.500 C 90.124,176.642 89.804,176.273 100.000,167.500" stroke-width="10.490" stroke="rgb(33,33,33)" fill="none" stroke-linecap="round"></path><path d="M 100.000,167.500 C 111.304,157.773 111.424,157.906 123.000,148.500" stroke-width="9.564" stroke="rgb(33,33,33)" fill="none" stroke-linecap="round"></path><path d="M 123.000,148.500 C 135.424,138.406 135.142,138.015 148.000,128.500" stroke-width="8.919" stroke="rgb(33,33,33)" fill="none" stroke-linecap="round"></path><path d="M 148.000,128.500 C 160.142,119.515 160.385,119.826 173.000,111.500" stroke-width="8.609" stroke="rgb(33,33,33)" fill="none" stroke-linecap="round"></path><path d="M 173.000,111.500 C 185.385,103.326 185.302,103.172 198.000,95.500" stroke-width="8.256" stroke="rgb(33,33,33)" fill="none" stroke-linecap="round"></path><path d="M 198.000,95.500 C 209.302,88.672 209.515,89.026 221.000,82.500" stroke-width="8.124" stroke="rgb(33,33,33)" fill="none" stroke-linecap="round"></path><path d="M 221.000,82.500 C 231.515,76.526 231.633,76.720 242.000,70.500" stroke-width="8.112" stroke="rgb(33,33,33)" fill="none" stroke-linecap="round"></path><path d="M 242.000,70.500 C 249.133,66.220 248.991,65.986 256.000,61.500" stroke-width="8.463" stroke="rgb(33,33,33)" fill="none" stroke-linecap="round"></path><path d="M 256.000,61.500 C 261.491,57.986 261.635,58.189 267.000,54.500" stroke-width="8.930" stroke="rgb(33,33,33)" fill="none" stroke-linecap="round"></path><path d="M 267.000,54.500 C 269.635,52.689 269.754,52.746 272.000,50.500" stroke-width="9.670" stroke="rgb(33,33,33)" fill="none" stroke-linecap="round"></path><path d="M 108.000,150.500 C 110.000,145.500 111.224,145.673 112.000,140.500" stroke-width="19.537" stroke="rgb(33,33,33)" fill="none" stroke-linecap="round"></path><path d="M 112.000,140.500 C 112.724,135.673 112.558,135.173 111.000,130.500" stroke-width="17.750" stroke="rgb(33,33,33)" fill="none" stroke-linecap="round"></path><path d="M 111.000,130.500 C 109.058,124.673 108.156,124.910 105.000,119.500" stroke-width="15.823" stroke="rgb(33,33,33)" fill="none" stroke-linecap="round"></path><path d="M 105.000,119.500 C 101.156,112.910 101.229,112.844 97.000,106.500" stroke-width="14.626" stroke="rgb(33,33,33)" fill="none" stroke-linecap="round"></path><path d="M 97.000,106.500 C 94.229,102.344 94.222,102.308 91.000,98.500" stroke-width="14.053" stroke="rgb(33,33,33)" fill="none" stroke-linecap="round"></path><path d="M 91.000,98.500 C 88.722,95.808 88.740,95.692 86.000,93.500" stroke-width="14.148" stroke="rgb(33,33,33)" fill="none" stroke-linecap="round"></path><path d="M 86.000,93.500 C 83.740,91.692 83.530,91.946 81.000,90.500" stroke-width="14.325" stroke="rgb(33,33,33)" fill="none" stroke-linecap="round"></path><path d="M 81.000,90.500 C 80.030,89.946 80.036,89.845 79.000,89.500" stroke-width="14.882" stroke="rgb(33,33,33)" fill="none" stroke-linecap="round"></path><path d="M 79.000,89.500 C 78.536,89.345 78.167,89.167 78.000,89.500" stroke-width="15.573" stroke="rgb(33,33,33)" fill="none" stroke-linecap="round"></path><path d="M 78.000,89.500 C 77.667,90.167 77.621,90.590 78.000,91.500" stroke-width="16.004" stroke="rgb(33,33,33)" fill="none" stroke-linecap="round"></path><path d="M 78.000,91.500 C 80.121,96.590 80.101,96.737 83.000,101.500" stroke-width="15.070" stroke="rgb(33,33,33)" fill="none" stroke-linecap="round"></path><path d="M 83.000,101.500 C 87.101,108.237 87.296,108.150 92.000,114.500" stroke-width="13.860" stroke="rgb(33,33,33)" fill="none" stroke-linecap="round"></path><path d="M 92.000,114.500 C 97.296,121.650 97.468,121.525 103.000,128.500" stroke-width="12.725" stroke="rgb(33,33,33)" fill="none" stroke-linecap="round"></path><path d="M 103.000,128.500 C 108.968,136.025 109.281,135.792 115.000,143.500" stroke-width="11.918" stroke="rgb(33,33,33)" fill="none" stroke-linecap="round"></path><path d="M 115.000,143.500 C 120.781,151.292 120.262,151.675 126.000,159.500" stroke-width="11.327" stroke="rgb(33,33,33)" fill="none" stroke-linecap="round"></path><path d="M 126.000,159.500 C 131.262,166.675 131.535,166.473 137.000,173.500" stroke-width="10.930" stroke="rgb(33,33,33)" fill="none" stroke-linecap="round"></path><path d="M 137.000,173.500 C 142.035,179.973 141.986,180.011 147.000,186.500" stroke-width="10.799" stroke="rgb(33,33,33)" fill="none" stroke-linecap="round"></path><path d="M 147.000,186.500 C 150.486,191.011 150.324,191.155 154.000,195.500" stroke-width="10.990" stroke="rgb(33,33,33)" fill="none" stroke-linecap="round"></path><path d="M 154.000,195.500 C 155.824,197.655 155.862,197.668 158.000,199.500" stroke-width="11.634" stroke="rgb(33,33,33)" fill="none" stroke-linecap="round"></path><path d="M 158.000,199.500 C 159.362,200.668 159.826,200.326 161.000,201.500" stroke-width="12.386" stroke="rgb(33,33,33)" fill="none" stroke-linecap="round"></path><path d="M 161.000,201.500 C 161.326,201.826 161.221,202.854 161.000,202.500" stroke-width="13.318" stroke="rgb(33,33,33)" fill="none" stroke-linecap="round"></path><path d="M 161.000,202.500 C 158.721,198.854 158.892,197.742 156.000,193.500" stroke-width="13.694" stroke="rgb(33,33,33)" fill="none" stroke-linecap="round"></path><path d="M 156.000,193.500 C 151.392,186.742 150.837,187.119 146.000,180.500" stroke-width="12.849" stroke="rgb(33,33,33)" fill="none" stroke-linecap="round"></path><path d="M 146.000,180.500 C 141.337,174.119 141.258,174.154 137.000,167.500" stroke-width="12.297" stroke="rgb(33,33,33)" fill="none" stroke-linecap="round"></path><path d="M 137.000,167.500 C 133.258,161.654 133.655,161.404 130.000,155.500" stroke-width="12.113" stroke="rgb(33,33,33)" fill="none" stroke-linecap="round"></path><path d="M 130.000,155.500 C 127.155,150.904 126.641,151.195 124.000,146.500" stroke-width="12.042" stroke="rgb(33,33,33)" fill="none" stroke-linecap="round"></path><path d="M 124.000,146.500 C 122.141,143.195 122.595,142.956 121.000,139.500" stroke-width="12.424" stroke="rgb(33,33,33)" fill="none" stroke-linecap="round"></path><path d="M 121.000,139.500 C 119.595,136.456 119.626,136.427 118.000,133.500" stroke-width="12.793" stroke="rgb(33,33,33)" fill="none" stroke-linecap="round"></path><path d="M 118.000,133.500 C 117.126,131.927 116.643,132.108 116.000,130.500" stroke-width="13.372" stroke="rgb(33,33,33)" fill="none" stroke-linecap="round"></path><path d="M 116.000,130.500 C 115.643,129.608 115.500,129.000 116.000,128.500" stroke-width="14.111" stroke="rgb(33,33,33)" fill="none" stroke-linecap="round"></path><path d="M 116.000,128.500 C 116.500,128.000 117.000,128.500 118.000,128.500" stroke-width="14.955" stroke="rgb(33,33,33)" fill="none" stroke-linecap="round"></path><path d="M 118.000,128.500 C 119.500,128.500 119.500,128.500 121.000,128.500" stroke-width="15.381" stroke="rgb(33,33,33)" fill="none" stroke-linecap="round"></path><path d="M 121.000,128.500 C 122.500,128.500 122.500,128.500 124.000,128.500" stroke-width="15.688" stroke="rgb(33,33,33)" fill="none" stroke-linecap="round"></path><path d="M 124.000,128.500 C 125.000,128.500 125.056,128.264 126.000,128.500" stroke-width="16.121" stroke="rgb(33,33,33)" fill="none" stroke-linecap="round"></path><path d="M 126.000,128.500 C 127.056,128.764 127.250,128.750 128.000,129.500" stroke-width="16.447" stroke="rgb(33,33,33)" fill="none" stroke-linecap="round"></path><path d="M 128.000,129.500 C 128.750,130.250 128.586,130.464 129.000,131.500" stroke-width="16.718" stroke="rgb(33,33,33)" fill="none" stroke-linecap="round"></path><path d="M 129.000,131.500 C 129.586,132.964 129.208,133.180 130.000,134.500" stroke-width="16.755" stroke="rgb(33,33,33)" fill="none" stroke-linecap="round"></path><path d="M 130.000,134.500 C 130.708,135.680 131.292,135.320 132.000,136.500" stroke-width="16.873" stroke="rgb(33,33,33)" fill="none" stroke-linecap="round"></path><path d="M 132.000,136.500 C 132.792,137.820 132.414,138.036 133.000,139.500" stroke-width="16.880" stroke="rgb(33,33,33)" fill="none" stroke-linecap="round"></path><path d="M 133.000,139.500 C 133.414,140.536 133.655,140.464 134.000,141.500" stroke-width="17.074" stroke="rgb(33,33,33)" fill="none" stroke-linecap="round"></path><path d="M 134.000,141.500 C 134.155,141.964 134.261,142.631 134.000,142.500" stroke-width="17.448" stroke="rgb(33,33,33)" fill="none" stroke-linecap="round"></path><path d="M 134.000,142.500 C 133.261,142.131 132.903,141.584 132.000,140.500" stroke-width="17.763" stroke="rgb(33,33,33)" fill="none" stroke-linecap="round"></path><path d="M 132.000,140.500 C 130.403,138.584 130.320,138.611 129.000,136.500" stroke-width="17.295" stroke="rgb(33,33,33)" fill="none" stroke-linecap="round"></path><path d="M 129.000,136.500 C 127.820,134.611 128.000,134.500 127.000,132.500" stroke-width="17.027" stroke="rgb(33,33,33)" fill="none" stroke-linecap="round"></path><path d="M 127.000,132.500 C 126.000,130.500 125.599,130.595 125.000,128.500" stroke-width="16.818" stroke="rgb(33,33,33)" fill="none" stroke-linecap="round"></path><path d="M 125.000,128.500 C 124.599,127.095 125.000,127.000 125.000,125.500" stroke-width="16.865" stroke="rgb(33,33,33)" fill="none" stroke-linecap="round"></path><path d="M 125.000,125.500 C 125.000,124.500 125.000,124.500 125.000,123.500" stroke-width="17.080" stroke="rgb(33,33,33)" fill="none" stroke-linecap="round"></path><path d="M 125.000,123.500 C 125.000,122.500 125.000,122.500 125.000,121.500" stroke-width="17.278" stroke="rgb(33,33,33)" fill="none" stroke-linecap="round"></path><path d="M 125.000,121.500 C 125.000,120.500 125.000,120.500 125.000,119.500" stroke-width="17.418" stroke="rgb(33,33,33)" fill="none" stroke-linecap="round"></path><path d="M 125.000,119.500 C 125.000,118.500 124.347,117.990 125.000,117.500" stroke-width="17.554" stroke="rgb(33,33,33)" fill="none" stroke-linecap="round"></path><path d="M 125.000,117.500 C 126.347,116.490 127.019,117.066 129.000,116.500" stroke-width="17.287" stroke="rgb(33,33,33)" fill="none" stroke-linecap="round"></path><path d="M 129.000,116.500 C 130.519,116.066 130.500,116.000 132.000,115.500" stroke-width="17.210" stroke="rgb(33,33,33)" fill="none" stroke-linecap="round"></path><path d="M 132.000,115.500 C 133.500,115.000 133.469,114.806 135.000,114.500" stroke-width="17.183" stroke="rgb(33,33,33)" fill="none" stroke-linecap="round"></path><path d="M 135.000,114.500 C 135.969,114.306 136.121,114.793 137.000,114.500" stroke-width="17.362" stroke="rgb(33,33,33)" fill="none" stroke-linecap="round"></path><path d="M 137.000,114.500 C 137.621,114.293 137.707,114.086 138.000,113.500" stroke-width="17.613" stroke="rgb(33,33,33)" fill="none" stroke-linecap="round"></path><path d="M 138.000,113.500 C 138.207,113.086 138.250,112.750 138.000,112.500" stroke-width="17.984" stroke="rgb(33,33,33)" fill="none" stroke-linecap="round"></path><path d="M 138.000,112.500 C 137.750,112.250 137.500,112.500 137.000,112.500" stroke-width="18.295" stroke="rgb(33,33,33)" fill="none" stroke-linecap="round"></path><path d="M 137.000,112.500 C 136.500,112.500 136.167,112.167 136.000,112.500" stroke-width="18.466" stroke="rgb(33,33,33)" fill="none" stroke-linecap="round"></path><path d="M 136.000,112.500 C 135.667,113.167 135.806,113.531 136.000,114.500" stroke-width="18.588" stroke="rgb(33,33,33)" fill="none" stroke-linecap="round"></path><path d="M 136.000,114.500 C 136.306,116.031 135.964,116.464 137.000,117.500" stroke-width="18.264" stroke="rgb(33,33,33)" fill="none" stroke-linecap="round"></path><path d="M 137.000,117.500 C 138.464,118.964 138.889,118.972 141.000,119.500" stroke-width="17.815" stroke="rgb(33,33,33)" fill="none" stroke-linecap="round"></path><path d="M 141.000,119.500 C 142.889,119.972 143.000,119.500 145.000,119.500" stroke-width="17.467" stroke="rgb(33,33,33)" fill="none" stroke-linecap="round"></path><path d="M 145.000,119.500 C 146.500,119.500 146.500,119.500 148.000,119.500" stroke-width="17.415" stroke="rgb(33,33,33)" fill="none" stroke-linecap="round"></path><path d="M 148.000,119.500 C 149.500,119.500 150.357,120.357 151.000,119.500" stroke-width="17.342" stroke="rgb(33,33,33)" fill="none" stroke-linecap="round"></path><path d="M 151.000,119.500 C 151.857,118.357 151.000,117.500 151.000,115.500" stroke-width="17.143" stroke="rgb(33,33,33)" fill="none" stroke-linecap="round"></path><path d="M 151.000,115.500 C 151.000,111.500 151.000,111.500 151.000,107.500" stroke-width="16.342" stroke="rgb(33,33,33)" fill="none" stroke-linecap="round"></path><path d="M 151.000,107.500 C 151.000,104.000 151.565,103.891 151.000,100.500" stroke-width="15.835" stroke="rgb(33,33,33)" fill="none" stroke-linecap="round"></path><path d="M 151.000,100.500 C 150.565,97.891 150.370,97.784 149.000,95.500" stroke-width="15.742" stroke="rgb(33,33,33)" fill="none" stroke-linecap="round"></path><path d="M 149.000,95.500 C 147.370,92.784 147.246,92.746 145.000,90.500" stroke-width="15.524" stroke="rgb(33,33,33)" fill="none" stroke-linecap="round"></path><path d="M 145.000,90.500 C 143.246,88.746 142.949,89.059 141.000,87.500" stroke-width="15.505" stroke="rgb(33,33,33)" fill="none" stroke-linecap="round"></path><path d="M 141.000,87.500 C 140.449,87.059 140.586,86.793 140.000,86.500" stroke-width="16.053" stroke="rgb(33,33,33)" fill="none" stroke-linecap="round"></path><path d="M 140.000,86.500 C 139.586,86.293 138.700,86.500 139.000,86.500" stroke-width="16.576" stroke="rgb(33,33,33)" fill="none" stroke-linecap="round"></path><path d="M 139.000,86.500 C 140.200,86.500 141.111,86.028 143.000,86.500" stroke-width="16.969" stroke="rgb(33,33,33)" fill="none" stroke-linecap="round"></path><path d="M 143.000,86.500 C 145.111,87.028 144.958,87.593 147.000,88.500" stroke-width="16.773" stroke="rgb(33,33,33)" fill="none" stroke-linecap="round"></path><path d="M 147.000,88.500 C 149.458,89.593 149.667,89.204 152.000,90.500" stroke-width="16.474" stroke="rgb(33,33,33)" fill="none" stroke-linecap="round"></path><path d="M 152.000,90.500 C 154.167,91.704 154.250,91.750 156.000,93.500" stroke-width="16.254" stroke="rgb(33,33,33)" fill="none" stroke-linecap="round"></path><path d="M 156.000,93.500 C 157.750,95.250 157.500,95.500 159.000,97.500" stroke-width="16.129" stroke="rgb(33,33,33)" fill="none" stroke-linecap="round"></path><path d="M 159.000,97.500 C 160.500,99.500 160.500,99.500 162.000,101.500" stroke-width="16.072" stroke="rgb(33,33,33)" fill="none" stroke-linecap="round"></path><path d="M 162.000,101.500 C 163.500,103.500 163.547,103.466 165.000,105.500" stroke-width="15.939" stroke="rgb(33,33,33)" fill="none" stroke-linecap="round"></path><path d="M 165.000,105.500 C 166.047,106.966 166.074,106.957 167.000,108.500" stroke-width="16.053" stroke="rgb(33,33,33)" fill="none" stroke-linecap="round"></path><circle r="6" cx="145" cy="63.5" fill="rgb(33,33,33)"></circle><path d="M 181.000,63.500 C 179.000,66.500 179.204,66.667 177.000,69.500" stroke-width="19.882" stroke="rgb(33,33,33)" fill="none" stroke-linecap="round"></path><path d="M 177.000,69.500 C 175.704,71.167 175.310,70.863 174.000,72.500" stroke-width="19.114" stroke="rgb(33,33,33)" fill="none" stroke-linecap="round"></path><path d="M 174.000,72.500 C 173.310,73.363 173.214,73.432 173.000,74.500" stroke-width="18.963" stroke="rgb(33,33,33)" fill="none" stroke-linecap="round"></path><path d="M 173.000,74.500 C 172.714,75.932 173.000,76.000 173.000,77.500" stroke-width="18.262" stroke="rgb(33,33,33)" fill="none" stroke-linecap="round"></path><path d="M 173.000,77.500 C 173.000,79.000 172.073,79.573 173.000,80.500" stroke-width="18.007" stroke="rgb(33,33,33)" fill="none" stroke-linecap="round"></path><path d="M 173.000,80.500 C 175.073,82.573 175.893,82.257 179.000,83.500" stroke-width="17.030" stroke="rgb(33,33,33)" fill="none" stroke-linecap="round"></path><path d="M 179.000,83.500 C 183.393,85.257 183.562,84.836 188.000,86.500" stroke-width="15.946" stroke="rgb(33,33,33)" fill="none" stroke-linecap="round"></path><path d="M 188.000,86.500 C 191.562,87.836 191.680,87.689 195.000,89.500" stroke-width="15.511" stroke="rgb(33,33,33)" fill="none" stroke-linecap="round"></path><path d="M 195.000,89.500 C 197.180,90.689 196.966,91.047 199.000,92.500" stroke-width="15.538" stroke="rgb(33,33,33)" fill="none" stroke-linecap="round"></path><path d="M 199.000,92.500 C 200.466,93.547 201.035,93.214 202.000,94.500" stroke-width="15.759" stroke="rgb(33,33,33)" fill="none" stroke-linecap="round"></path><path d="M 202.000,94.500 C 202.535,95.214 202.000,95.500 202.000,96.500" stroke-width="16.161" stroke="rgb(33,33,33)" fill="none" stroke-linecap="round"></path><path d="M 202.000,96.500 C 202.000,97.500 202.293,97.621 202.000,98.500" stroke-width="16.498" stroke="rgb(33,33,33)" fill="none" stroke-linecap="round"></path><path d="M 202.000,98.500 C 201.793,99.121 201.638,99.245 201.000,99.500" stroke-width="16.895" stroke="rgb(33,33,33)" fill="none" stroke-linecap="round"></path><path d="M 201.000,99.500 C 199.138,100.245 198.981,99.934 197.000,100.500" stroke-width="16.772" stroke="rgb(33,33,33)" fill="none" stroke-linecap="round"></path><path d="M 208.000,50.500 C 200.500,56.500 199.207,55.879 193.000,62.500" stroke-width="19.471" stroke="rgb(33,33,33)" fill="none" stroke-linecap="round"></path><path d="M 193.000,62.500 C 191.707,63.879 192.286,64.716 193.000,66.500" stroke-width="18.853" stroke="rgb(33,33,33)" fill="none" stroke-linecap="round"></path><path d="M 193.000,66.500 C 194.286,69.716 194.492,69.992 197.000,72.500" stroke-width="17.526" stroke="rgb(33,33,33)" fill="none" stroke-linecap="round"></path><path d="M 197.000,72.500 C 199.992,75.492 200.387,75.177 204.000,77.500" stroke-width="16.523" stroke="rgb(33,33,33)" fill="none" stroke-linecap="round"></path><path d="M 204.000,77.500 C 207.387,79.677 207.518,79.469 211.000,81.500" stroke-width="15.879" stroke="rgb(33,33,33)" fill="none" stroke-linecap="round"></path><path d="M 211.000,81.500 C 213.518,82.969 213.577,82.885 216.000,84.500" stroke-width="15.660" stroke="rgb(33,33,33)" fill="none" stroke-linecap="round"></path><path d="M 216.000,84.500 C 218.077,85.885 218.084,85.903 220.000,87.500" stroke-width="15.657" stroke="rgb(33,33,33)" fill="none" stroke-linecap="round"></path><path d="M 220.000,87.500 C 221.084,88.403 221.261,88.392 222.000,89.500" stroke-width="15.945" stroke="rgb(33,33,33)" fill="none" stroke-linecap="round"></path><path d="M 222.000,89.500 C 222.261,89.892 222.000,90.000 222.000,90.500" stroke-width="16.493" stroke="rgb(33,33,33)" fill="none" stroke-linecap="round"></path><path d="M 222.000,90.500 C 222.000,91.000 222.000,91.000 222.000,91.500" stroke-width="16.960" stroke="rgb(33,33,33)" fill="none" stroke-linecap="round"></path><path d="M 222.000,91.500 C 222.000,92.000 222.250,92.250 222.000,92.500" stroke-width="17.342" stroke="rgb(33,33,33)" fill="none" stroke-linecap="round"></path><path d="M 230.000,36.500 C 227.000,42.500 226.718,42.383 224.000,48.500" stroke-width="19.577" stroke="rgb(33,33,33)" fill="none" stroke-linecap="round"></path><path d="M 224.000,48.500 C 222.718,51.383 222.558,51.428 222.000,54.500" stroke-width="18.377" stroke="rgb(33,33,33)" fill="none" stroke-linecap="round"></path><path d="M 222.000,54.500 C 221.558,56.928 222.000,57.000 222.000,59.500" stroke-width="17.700" stroke="rgb(33,33,33)" fill="none" stroke-linecap="round"></path><path d="M 222.000,59.500 C 222.000,61.500 221.721,61.545 222.000,63.500" stroke-width="17.462" stroke="rgb(33,33,33)" fill="none" stroke-linecap="round"></path><path d="M 222.000,63.500 C 222.221,65.045 222.081,65.581 223.000,66.500" stroke-width="17.348" stroke="rgb(33,33,33)" fill="none" stroke-linecap="round"></path><path d="M 223.000,66.500 C 223.581,67.081 224.000,66.500 225.000,66.500" stroke-width="17.497" stroke="rgb(33,33,33)" fill="none" stroke-linecap="round"></path><path d="M 225.000,66.500 C 226.000,66.500 226.000,66.500 227.000,66.500" stroke-width="17.595" stroke="rgb(33,33,33)" fill="none" stroke-linecap="round"></path><path d="M 227.000,66.500 C 227.500,66.500 227.805,66.890 228.000,66.500" stroke-width="17.881" stroke="rgb(33,33,33)" fill="none" stroke-linecap="round"></path><path d="M 228.000,66.500 C 228.805,64.890 228.774,64.534 229.000,62.500" stroke-width="17.540" stroke="rgb(33,33,33)" fill="none" stroke-linecap="round"></path><path d="M 229.000,62.500 C 229.274,60.034 229.000,60.000 229.000,57.500" stroke-width="17.126" stroke="rgb(33,33,33)" fill="none" stroke-linecap="round"></path><path d="M 229.000,57.500 C 229.000,55.000 229.000,55.000 229.000,52.500" stroke-width="16.808" stroke="rgb(33,33,33)" fill="none" stroke-linecap="round"></path><path d="M 229.000,52.500 C 229.000,50.500 229.369,50.347 229.000,48.500" stroke-width="16.683" stroke="rgb(33,33,33)" fill="none" stroke-linecap="round"></path><path d="M 229.000,48.500 C 228.869,47.847 228.000,47.191 228.000,47.500" stroke-width="17.035" stroke="rgb(33,33,33)" fill="none" stroke-linecap="round"></path><path d="M 228.000,47.500 C 228.000,48.191 228.225,49.144 229.000,50.500" stroke-width="17.403" stroke="rgb(33,33,33)" fill="none" stroke-linecap="round"></path><path d="M 229.000,50.500 C 230.225,52.644 230.465,52.527 232.000,54.500" stroke-width="17.021" stroke="rgb(33,33,33)" fill="none" stroke-linecap="round"></path><path d="M 232.000,54.500 C 233.965,57.027 233.895,57.094 236.000,59.500" stroke-width="16.502" stroke="rgb(33,33,33)" fill="none" stroke-linecap="round"></path><path d="M 236.000,59.500 C 237.395,61.094 237.500,61.000 239.000,62.500" stroke-width="16.400" stroke="rgb(33,33,33)" fill="none" stroke-linecap="round"></path><path d="M 251.000,23.500 C 248.500,27.500 247.756,27.287 246.000,31.500" stroke-width="19.759" stroke="rgb(33,33,33)" fill="none" stroke-linecap="round"></path><path d="M 246.000,31.500 C 245.256,33.287 246.000,33.500 246.000,35.500" stroke-width="18.928" stroke="rgb(33,33,33)" fill="none" stroke-linecap="round"></path><path d="M 246.000,35.500 C 246.000,37.000 244.949,37.683 246.000,38.500" stroke-width="18.558" stroke="rgb(33,33,33)" fill="none" stroke-linecap="round"></path><path d="M 246.000,38.500 C 249.449,41.183 250.288,41.181 255.000,42.500" stroke-width="17.034" stroke="rgb(33,33,33)" fill="none" stroke-linecap="round"></path><path d="M 255.000,42.500 C 262.788,44.681 263.019,43.904 271.000,45.500" stroke-width="15.083" stroke="rgb(33,33,33)" fill="none" stroke-linecap="round"></path><path d="M 271.000,45.500 C 280.519,47.404 280.503,47.486 290.000,49.500" stroke-width="13.351" stroke="rgb(33,33,33)" fill="none" stroke-linecap="round"></path><path d="M 290.000,49.500 C 297.003,50.986 297.229,50.346 304.000,52.500" stroke-width="12.801" stroke="rgb(33,33,33)" fill="none" stroke-linecap="round"></path><path d="M 304.000,52.500 C 308.229,53.846 308.503,53.877 312.000,56.500" stroke-width="12.839" stroke="rgb(33,33,33)" fill="none" stroke-linecap="round"></path><path d="M 312.000,56.500 C 314.503,58.377 315.027,58.581 316.000,61.500" stroke-width="13.133" stroke="rgb(33,33,33)" fill="none" stroke-linecap="round"></path><path d="M 316.000,61.500 C 317.527,66.081 317.777,66.642 317.000,71.500" stroke-width="13.050" stroke="rgb(33,33,33)" fill="none" stroke-linecap="round"></path><path d="M 317.000,71.500 C 315.777,79.142 316.135,79.921 312.000,86.500" stroke-width="12.443" stroke="rgb(33,33,33)" fill="none" stroke-linecap="round"></path><path d="M 312.000,86.500 C 305.135,97.421 304.033,97.003 295.000,106.500" stroke-width="11.290" stroke="rgb(33,33,33)" fill="none" stroke-linecap="round"></path><path d="M 295.000,106.500 C 284.533,117.503 283.979,116.978 273.000,127.500" stroke-width="10.049" stroke="rgb(33,33,33)" fill="none" stroke-linecap="round"></path><path d="M 273.000,127.500 C 259.979,139.978 260.033,140.034 247.000,152.500" stroke-width="9.055" stroke="rgb(33,33,33)" fill="none" stroke-linecap="round"></path><path d="M 247.000,152.500 C 237.033,162.034 237.006,162.007 227.000,171.500" stroke-width="8.752" stroke="rgb(33,33,33)" fill="none" stroke-linecap="round"></path><path d="M 227.000,171.500 C 217.506,180.507 217.693,180.716 208.000,189.500" stroke-width="8.438" stroke="rgb(33,33,33)" fill="none" stroke-linecap="round"></path><path d="M 208.000,189.500 C 201.693,195.216 201.324,194.809 195.000,200.500" stroke-width="8.728" stroke="rgb(33,33,33)" fill="none" stroke-linecap="round"></path><path d="M 195.000,200.500 C 191.324,203.809 191.654,204.178 188.000,207.500" stroke-width="9.320" stroke="rgb(33,33,33)" fill="none" stroke-linecap="round"></path><path d="M 188.000,207.500 C 186.154,209.178 185.667,208.833 184.000,210.500" stroke-width="10.122" stroke="rgb(33,33,33)" fill="none" stroke-linecap="round"></path></svg>