<svg xmlns="http://www.w3.org/2000/svg" xmlns:xlink="http://www.w3.org/1999/xlink" viewBox="0 0 800 500"><path d="M 274.500,246.500 C 276.000,246.500 276.144,247.108 277.500,246.500" stroke-width="20.189" stroke="rgb(33,33,33)" fill="none" stroke-linecap="round"></path><path d="M 277.500,246.500 C 290.644,240.608 290.466,239.930 303.500,233.500" stroke-width="15.278" stroke="rgb(33,33,33)" fill="none" stroke-linecap="round"></path><path d="M 303.500,233.500 C 327.966,221.430 328.100,221.700 352.500,209.500" stroke-width="10.187" stroke="rgb(33,33,33)" fill="none" stroke-linecap="round"></path><path d="M 352.500,209.500 C 388.100,191.700 387.787,191.070 423.500,173.500" stroke-width="7.426" stroke="rgb(33,33,33)" fill="none" stroke-linecap="round"></path><path d="M 423.500,173.500 C 481.287,145.070 481.521,145.542 539.500,117.500" stroke-width="6.750" stroke="rgb(33,33,33)" fill="none" stroke-linecap="round"></path><path d="M 539.500,117.500 C 558.021,108.542 558.144,108.786 576.500,99.500" stroke-width="6.750" stroke="rgb(33,33,33)" fill="none" stroke-linecap="round"></path><path d="M 576.500,99.500 C 600.644,87.286 600.373,86.744 624.500,74.500" stroke-width="6.750" stroke="rgb(33,33,33)" fill="none" stroke-linecap="round"></path><path d="M 624.500,74.500 C 633.873,69.744 644.815,65.281 643.500,65.500" stroke-width="6.750" stroke="rgb(33,33,33)" fill="none" stroke-linecap="round"></path><path d="M 643.500,65.500 C 641.815,65.781 630.480,69.395 618.500,75.500" stroke-width="6.750" stroke="rgb(33,33,33)" fill="none" stroke-linecap="round"></path><path d="M 618.500,75.500 C 578.480,95.895 579.053,97.098 539.500,118.500" stroke-width="6.750" stroke="rgb(33,33,33)" fill="none" stroke-linecap="round"></path><path d="M 539.500,118.500 C 506.053,136.598 505.452,135.541 472.500,154.500" stroke-width="6.750" stroke="rgb(33,33,33)" fill="none" stroke-linecap="round"></path><path d="M 472.500,154.500 C 432.452,177.541 432.752,178.110 393.500,202.500" stroke-width="6.750" stroke="rgb(33,33,33)" fill="none" stroke-linecap="round"></path><path d="M 393.500,202.500 C 381.252,210.110 381.426,210.391 369.500,218.500" stroke-width="6.750" stroke="rgb(33,33,33)" fill="none" stroke-linecap="round"></path><path d="M 369.500,218.500 C 356.426,227.391 356.312,227.247 343.500,236.500" stroke-width="6.750" stroke="rgb(33,33,33)" fill="none" stroke-linecap="round"></path><path d="M 343.500,236.500 C 338.312,240.247 338.382,240.369 333.500,244.500" stroke-width="6.750" stroke="rgb(33,33,33)" fill="none" stroke-linecap="round"></path><path d="M 333.500,244.500 C 331.882,245.869 331.714,245.881 330.500,247.500" stroke-width="6.750" stroke="rgb(33,33,33)" fill="none" stroke-linecap="round"></path><path d="M 330.500,247.500 C 330.214,247.881 330.110,248.500 330.500,248.500" stroke-width="7.712" stroke="rgb(33,33,33)" fill="none" stroke-linecap="round"></path><path d="M 330.500,248.500 C 332.110,248.500 332.609,248.310 334.500,247.500" stroke-width="8.620" stroke="rgb(33,33,33)" fill="none" stroke-linecap="round"></path><path d="M 334.500,247.500 C 346.609,242.310 346.866,242.705 358.500,236.500" stroke-width="8.473" stroke="rgb(33,33,33)" fill="none" stroke-linecap="round"></path><path d="M 358.500,236.500 C 376.866,226.705 376.215,225.474 394.500,215.500" stroke-width="7.782" stroke="rgb(33,33,33)" fill="none" stroke-linecap="round"></path><path d="M 394.500,215.500 C 409.215,207.474 409.555,208.108 424.500,200.500" stroke-width="7.629" stroke="rgb(33,33,33)" fill="none" stroke-linecap="round"></path><path d="M 424.500,200.500 C 437.055,194.108 436.901,193.799 449.500,187.500" stroke-width="7.627" stroke="rgb(33,33,33)" fill="none" stroke-linecap="round"></path><path d="M 449.500,187.500 C 456.901,183.799 456.903,183.756 464.500,180.500" stroke-width="8.001" stroke="rgb(33,33,33)" fill="none" stroke-linecap="round"></path><path d="M 464.500,180.500 C 467.403,179.256 467.545,179.608 470.500,178.500" stroke-width="8.807" stroke="rgb(33,33,33)" fill="none" stroke-linecap="round"></path><path d="M 470.500,178.500 C 471.545,178.108 471.464,177.845 472.500,177.500" stroke-width="9.803" stroke="rgb(33,33,33)" fill="none" stroke-linecap="round"></path><path d="M 472.500,177.500 C 472.964,177.345 473.800,177.500 473.500,177.500" stroke-width="10.862" stroke="rgb(33,33,33)" fill="none" stroke-linecap="round"></path><path d="M 473.500,177.500 C 472.300,177.500 471.429,177.018 469.500,177.500" stroke-width="11.648" stroke="rgb(33,33,33)" fill="none" stroke-linecap="round"></path><path d="M 469.500,177.500 C 459.429,180.018 459.427,180.274 449.500,183.500" stroke-width="11.252" stroke="rgb(33,33,33)" fill="none" stroke-linecap="round"></path><path d="M 449.500,183.500 C 439.427,186.774 439.603,187.343 429.500,190.500" stroke-width="10.720" stroke="rgb(33,33,33)" fill="none" stroke-linecap="round"></path><path d="M 429.500,190.500 C 423.603,192.343 423.529,192.130 417.500,193.500" stroke-width="10.853" stroke="rgb(33,33,33)" fill="none" stroke-linecap="round"></path><path d="M 417.500,193.500 C 412.529,194.630 412.523,194.727 407.500,195.500" stroke-width="11.172" stroke="rgb(33,33,33)" fill="none" stroke-linecap="round"></path><path d="M 407.500,195.500 C 406.023,195.727 406.000,195.500 404.500,195.500" stroke-width="11.999" stroke="rgb(33,33,33)" fill="none" stroke-linecap="round"></path><path d="M 404.500,195.500 C 404.500,195.500 404.500,195.500 404.500,195.500" stroke-width="13.064" stroke="rgb(33,33,33)" fill="none" stroke-linecap="round"></path><path d="M 404.500,195.500 C 406.500,194.500 406.734,194.825 408.500,193.500" stroke-width="13.566" stroke="rgb(33,33,33)" fill="none" stroke-linecap="round"></path><path d="M 408.500,193.500 C 410.734,191.825 411.136,191.926 412.500,189.500" stroke-width="13.824" stroke="rgb(33,33,33)" fill="none" stroke-linecap="round"></path><path d="M 412.500,189.500 C 415.636,183.926 415.883,183.738 417.500,177.500" stroke-width="13.280" stroke="rgb(33,33,33)" fill="none" stroke-linecap="round"></path><path d="M 417.500,177.500 C 419.383,170.238 418.562,170.008 419.500,162.500" stroke-width="12.585" stroke="rgb(33,33,33)" fill="none" stroke-linecap="round"></path><path d="M 419.500,162.500 C 420.562,154.008 420.604,154.011 421.500,145.500" stroke-width="11.904" stroke="rgb(33,33,33)" fill="none" stroke-linecap="round"></path><path d="M 421.500,145.500 C 422.604,135.011 422.856,135.023 423.500,124.500" stroke-width="11.428" stroke="rgb(33,33,33)" fill="none" stroke-linecap="round"></path><path d="M 423.500,124.500 C 424.356,110.523 424.189,110.503 424.500,96.500" stroke-width="10.400" stroke="rgb(33,33,33)" fill="none" stroke-linecap="round"></path><path d="M 424.500,96.500 C 424.689,88.003 424.500,88.000 424.500,79.500" stroke-width="10.344" stroke="rgb(33,33,33)" fill="none" stroke-linecap="round"></path><path d="M 424.500,79.500 C 424.500,73.500 423.582,69.029 424.500,67.500" stroke-width="10.617" stroke="rgb(33,33,33)" fill="none" stroke-linecap="round"></path><path d="M 424.500,67.500 C 425.082,66.529 426.734,70.797 427.500,74.500" stroke-width="11.641" stroke="rgb(33,33,33)" fill="none" stroke-linecap="round"></path><path d="M 427.500,74.500 C 429.734,85.297 428.823,85.526 430.500,96.500" stroke-width="10.728" stroke="rgb(33,33,33)" fill="none" stroke-linecap="round"></path><path d="M 430.500,96.500 C 434.323,121.526 433.837,121.630 438.500,146.500" stroke-width="8.782" stroke="rgb(33,33,33)" fill="none" stroke-linecap="round"></path><path d="M 438.500,146.500 C 441.337,161.630 441.865,161.533 445.500,176.500" stroke-width="8.413" stroke="rgb(33,33,33)" fill="none" stroke-linecap="round"></path><path d="M 445.500,176.500 C 450.365,196.533 450.565,196.484 455.500,216.500" stroke-width="7.837" stroke="rgb(33,33,33)" fill="none" stroke-linecap="round"></path><path d="M 455.500,216.500 C 459.565,232.984 459.216,233.078 463.500,249.500" stroke-width="7.594" stroke="rgb(33,33,33)" fill="none" stroke-linecap="round"></path><path d="M 463.500,249.500 C 465.216,256.078 465.785,255.928 467.500,262.500" stroke-width="8.177" stroke="rgb(33,33,33)" fill="none" stroke-linecap="round"></path><path d="M 467.500,262.500 C 468.785,267.428 468.432,267.515 469.500,272.500" stroke-width="8.800" stroke="rgb(33,33,33)" fill="none" stroke-linecap="round"></path><path d="M 469.500,272.500 C 469.932,274.515 469.852,274.555 470.500,276.500" stroke-width="9.678" stroke="rgb(33,33,33)" fill="none" stroke-linecap="round"></path><path d="M 470.500,276.500 C 470.852,277.555 471.155,277.464 471.500,278.500" stroke-width="10.672" stroke="rgb(33,33,33)" fill="none" stroke-linecap="round"></path></svg>