<svg xmlns="http://www.w3.org/2000/svg" xmlns:xlink="http://www.w3.org/1999/xlink" viewBox="0 0 800 500"><path d="M 114.500,159.000 C 114.500,158.500 114.293,158.414 114.500,158.000" stroke-width="20.200" stroke="rgb(33,33,33)" fill="none" stroke-linecap="round"></path><path d="M 114.500,158.000 C 114.793,157.414 115.245,157.638 115.500,157.000" stroke-width="19.704" stroke="rgb(33,33,33)" fill="none" stroke-linecap="round"></path><path d="M 115.500,157.000 C 116.245,155.138 116.053,155.012 116.500,153.000" stroke-width="18.654" stroke="rgb(33,33,33)" fill="none" stroke-linecap="round"></path><path d="M 116.500,153.000 C 117.053,150.512 116.660,150.399 117.500,148.000" stroke-width="17.998" stroke="rgb(33,33,33)" fill="none" stroke-linecap="round"></path><path d="M 117.500,148.000 C 120.160,140.399 120.319,140.423 123.500,133.000" stroke-width="13.464" stroke="rgb(33,33,33)" fill="none" stroke-linecap="round"></path><path d="M 123.500,133.000 C 127.819,122.923 127.600,122.800 132.500,113.000" stroke-width="10.995" stroke="rgb(33,33,33)" fill="none" stroke-linecap="round"></path><path d="M 132.500,113.000 C 137.600,102.800 137.839,102.907 143.500,93.000" stroke-width="10.002" stroke="rgb(33,33,33)" fill="none" stroke-linecap="round"></path><path d="M 143.500,93.000 C 147.839,85.407 148.601,85.798 152.500,78.000" stroke-width="9.334" stroke="rgb(33,33,33)" fill="none" stroke-linecap="round"></path><path d="M 152.500,78.000 C 156.101,70.798 154.906,70.188 158.500,63.000" stroke-width="9.271" stroke="rgb(33,33,33)" fill="none" stroke-linecap="round"></path><path d="M 158.500,63.000 C 160.906,58.188 162.384,58.838 164.500,54.000" stroke-width="9.580" stroke="rgb(33,33,33)" fill="none" stroke-linecap="round"></path><path d="M 164.500,54.000 C 165.884,50.838 164.581,50.369 165.500,47.000" stroke-width="10.027" stroke="rgb(33,33,33)" fill="none" stroke-linecap="round"></path><path d="M 165.500,47.000 C 166.081,44.869 166.360,44.899 167.500,43.000" stroke-width="10.713" stroke="rgb(33,33,33)" fill="none" stroke-linecap="round"></path><path d="M 167.500,43.000 C 167.860,42.399 167.914,42.293 168.500,42.000" stroke-width="11.667" stroke="rgb(33,33,33)" fill="none" stroke-linecap="round"></path><path d="M 168.500,42.000 C 168.914,41.793 169.000,42.000 169.500,42.000" stroke-width="12.714" stroke="rgb(33,33,33)" fill="none" stroke-linecap="round"></path><path d="M 169.500,42.000 C 170.000,42.000 170.250,41.750 170.500,42.000" stroke-width="13.662" stroke="rgb(33,33,33)" fill="none" stroke-linecap="round"></path><path d="M 170.500,42.000 C 170.750,42.250 170.293,42.586 170.500,43.000" stroke-width="14.526" stroke="rgb(33,33,33)" fill="none" stroke-linecap="round"></path><path d="M 170.500,43.000 C 170.793,43.586 171.207,43.414 171.500,44.000" stroke-width="15.101" stroke="rgb(33,33,33)" fill="none" stroke-linecap="round"></path><path d="M 171.500,44.000 C 171.707,44.414 171.500,44.500 171.500,45.000" stroke-width="15.704" stroke="rgb(33,33,33)" fill="none" stroke-linecap="round"></path><path d="M 171.500,45.000 C 171.500,46.000 171.500,46.000 171.500,47.000" stroke-width="16.009" stroke="rgb(33,33,33)" fill="none" stroke-linecap="round"></path><path d="M 171.500,47.000 C 171.500,48.000 171.500,48.000 171.500,49.000" stroke-width="16.222" stroke="rgb(33,33,33)" fill="none" stroke-linecap="round"></path><path d="M 171.500,49.000 C 171.500,51.000 171.500,51.000 171.500,53.000" stroke-width="16.126" stroke="rgb(33,33,33)" fill="none" stroke-linecap="round"></path><path d="M 171.500,53.000 C 171.500,57.500 171.500,57.500 171.500,62.000" stroke-width="14.800" stroke="rgb(33,33,33)" fill="none" stroke-linecap="round"></path><path d="M 171.500,62.000 C 171.500,68.500 171.500,68.500 171.500,75.000" stroke-width="13.399" stroke="rgb(33,33,33)" fill="none" stroke-linecap="round"></path><path d="M 171.500,75.000 C 171.500,83.500 171.500,83.500 171.500,92.000" stroke-width="11.966" stroke="rgb(33,33,33)" fill="none" stroke-linecap="round"></path><path d="M 171.500,92.000 C 171.500,97.500 171.500,97.500 171.500,103.000" stroke-width="11.657" stroke="rgb(33,33,33)" fill="none" stroke-linecap="round"></path><path d="M 171.500,103.000 C 171.500,107.000 170.976,107.073 171.500,111.000" stroke-width="11.822" stroke="rgb(33,33,33)" fill="none" stroke-linecap="round"></path><path d="M 171.500,111.000 C 171.976,114.573 172.855,114.450 173.500,118.000" stroke-width="12.145" stroke="rgb(33,33,33)" fill="none" stroke-linecap="round"></path><path d="M 173.500,118.000 C 173.855,119.950 173.221,120.045 173.500,122.000" stroke-width="12.479" stroke="rgb(33,33,33)" fill="none" stroke-linecap="round"></path><path d="M 173.500,122.000 C 173.721,123.545 173.621,123.828 174.500,125.000" stroke-width="13.017" stroke="rgb(33,33,33)" fill="none" stroke-linecap="round"></path><path d="M 174.500,125.000 C 175.121,125.828 175.809,125.309 176.500,126.000" stroke-width="13.715" stroke="rgb(33,33,33)" fill="none" stroke-linecap="round"></path><path d="M 176.500,126.000 C 176.809,126.309 176.293,126.586 176.500,127.000" stroke-width="14.452" stroke="rgb(33,33,33)" fill="none" stroke-linecap="round"></path><path d="M 176.500,127.000 C 176.793,127.586 177.694,128.000 177.500,128.000" stroke-width="15.081" stroke="rgb(33,33,33)" fill="none" stroke-linecap="round"></path><path d="M 177.500,128.000 C 177.194,128.000 176.556,127.264 175.500,127.000" stroke-width="15.857" stroke="rgb(33,33,33)" fill="none" stroke-linecap="round"></path><path d="M 175.500,127.000 C 174.556,126.764 174.448,127.271 173.500,127.000" stroke-width="16.136" stroke="rgb(33,33,33)" fill="none" stroke-linecap="round"></path><path d="M 173.500,127.000 C 170.948,126.271 171.082,125.574 168.500,125.000" stroke-width="15.652" stroke="rgb(33,33,33)" fill="none" stroke-linecap="round"></path><path d="M 168.500,125.000 C 166.582,124.574 166.500,125.000 164.500,125.000" stroke-width="15.619" stroke="rgb(33,33,33)" fill="none" stroke-linecap="round"></path><path d="M 164.500,125.000 C 161.500,125.000 161.500,125.000 158.500,125.000" stroke-width="15.041" stroke="rgb(33,33,33)" fill="none" stroke-linecap="round"></path><path d="M 158.500,125.000 C 156.500,125.000 156.500,125.000 154.500,125.000" stroke-width="15.070" stroke="rgb(33,33,33)" fill="none" stroke-linecap="round"></path><path d="M 154.500,125.000 C 153.500,125.000 153.500,125.000 152.500,125.000" stroke-width="15.478" stroke="rgb(33,33,33)" fill="none" stroke-linecap="round"></path><path d="M 152.500,125.000 C 152.000,125.000 152.000,125.000 151.500,125.000" stroke-width="16.046" stroke="rgb(33,33,33)" fill="none" stroke-linecap="round"></path><path d="M 151.500,125.000 C 151.000,125.000 151.000,125.000 150.500,125.000" stroke-width="16.493" stroke="rgb(33,33,33)" fill="none" stroke-linecap="round"></path><path d="M 150.500,125.000 C 150.000,125.000 150.000,125.000 149.500,125.000" stroke-width="17.120" stroke="rgb(33,33,33)" fill="none" stroke-linecap="round"></path><path d="M 149.500,125.000 C 149.000,125.000 149.000,125.000 148.500,125.000" stroke-width="17.413" stroke="rgb(33,33,33)" fill="none" stroke-linecap="round"></path><path d="M 148.500,125.000 C 147.000,125.000 147.000,125.000 145.500,125.000" stroke-width="17.156" stroke="rgb(33,33,33)" fill="none" stroke-linecap="round"></path><path d="M 145.500,125.000 C 145.000,125.000 144.914,125.207 144.500,125.000" stroke-width="17.443" stroke="rgb(33,33,33)" fill="none" stroke-linecap="round"></path><path d="M 144.500,125.000 C 143.914,124.707 144.086,124.293 143.500,124.000" stroke-width="17.573" stroke="rgb(33,33,33)" fill="none" stroke-linecap="round"></path><path d="M 143.500,124.000 C 143.086,123.793 143.000,124.000 142.500,124.000" stroke-width="17.786" stroke="rgb(33,33,33)" fill="none" stroke-linecap="round"></path><path d="M 142.500,124.000 C 142.000,124.000 141.964,124.155 141.500,124.000" stroke-width="17.960" stroke="rgb(33,33,33)" fill="none" stroke-linecap="round"></path><path d="M 141.500,124.000 C 140.464,123.655 139.500,123.264 139.500,123.000" stroke-width="17.775" stroke="rgb(33,33,33)" fill="none" stroke-linecap="round"></path><path d="M 139.500,123.000 C 139.500,122.764 140.500,123.000 141.500,123.000" stroke-width="18.166" stroke="rgb(33,33,33)" fill="none" stroke-linecap="round"></path><path d="M 141.500,123.000 C 143.000,123.000 143.033,123.267 144.500,123.000" stroke-width="17.795" stroke="rgb(33,33,33)" fill="none" stroke-linecap="round"></path><path d="M 144.500,123.000 C 148.533,122.267 148.577,122.255 152.500,121.000" stroke-width="16.068" stroke="rgb(33,33,33)" fill="none" stroke-linecap="round"></path><path d="M 152.500,121.000 C 161.077,118.255 161.000,118.000 169.500,115.000" stroke-width="13.631" stroke="rgb(33,33,33)" fill="none" stroke-linecap="round"></path><path d="M 169.500,115.000 C 178.000,112.000 178.509,112.996 186.500,109.000" stroke-width="11.799" stroke="rgb(33,33,33)" fill="none" stroke-linecap="round"></path><path d="M 186.500,109.000 C 193.509,105.496 192.624,103.820 199.500,100.000" stroke-width="11.149" stroke="rgb(33,33,33)" fill="none" stroke-linecap="round"></path><path d="M 199.500,100.000 C 206.124,96.320 206.398,96.732 213.500,94.000" stroke-width="10.493" stroke="rgb(33,33,33)" fill="none" stroke-linecap="round"></path><path d="M 213.500,94.000 C 219.398,91.732 219.408,91.433 225.500,90.000" stroke-width="10.446" stroke="rgb(33,33,33)" fill="none" stroke-linecap="round"></path><path d="M 225.500,90.000 C 227.908,89.433 228.082,90.345 230.500,90.000" stroke-width="11.040" stroke="rgb(33,33,33)" fill="none" stroke-linecap="round"></path><path d="M 230.500,90.000 C 231.582,89.845 232.194,89.000 232.500,89.000" stroke-width="11.917" stroke="rgb(33,33,33)" fill="none" stroke-linecap="round"></path><path d="M 232.500,89.000 C 232.694,89.000 232.000,89.500 231.500,90.000" stroke-width="12.952" stroke="rgb(33,33,33)" fill="none" stroke-linecap="round"></path><path d="M 231.500,90.000 C 231.000,90.500 230.793,90.414 230.500,91.000" stroke-width="13.735" stroke="rgb(33,33,33)" fill="none" stroke-linecap="round"></path><path d="M 230.500,91.000 C 230.293,91.414 230.500,91.500 230.500,92.000" stroke-width="14.504" stroke="rgb(33,33,33)" fill="none" stroke-linecap="round"></path><path d="M 230.500,92.000 C 230.500,93.000 230.500,93.000 230.500,94.000" stroke-width="14.997" stroke="rgb(33,33,33)" fill="none" stroke-linecap="round"></path><path d="M 230.500,94.000 C 230.500,94.500 230.655,94.536 230.500,95.000" stroke-width="15.630" stroke="rgb(33,33,33)" fill="none" stroke-linecap="round"></path><path d="M 230.500,95.000 C 230.155,96.036 230.074,96.043 229.500,97.000" stroke-width="15.898" stroke="rgb(33,33,33)" fill="none" stroke-linecap="round"></path><path d="M 229.500,97.000 C 228.574,98.543 228.121,98.343 227.500,100.000" stroke-width="15.764" stroke="rgb(33,33,33)" fill="none" stroke-linecap="round"></path><path d="M 227.500,100.000 C 226.621,102.343 227.465,102.749 226.500,105.000" stroke-width="15.427" stroke="rgb(33,33,33)" fill="none" stroke-linecap="round"></path><path d="M 226.500,105.000 C 225.965,106.249 225.035,105.751 224.500,107.000" stroke-width="15.692" stroke="rgb(33,33,33)" fill="none" stroke-linecap="round"></path><path d="M 224.500,107.000 C 223.535,109.251 224.170,109.545 223.500,112.000" stroke-width="15.176" stroke="rgb(33,33,33)" fill="none" stroke-linecap="round"></path><path d="M 223.500,112.000 C 222.670,115.045 222.330,114.955 221.500,118.000" stroke-width="14.750" stroke="rgb(33,33,33)" fill="none" stroke-linecap="round"></path><path d="M 221.500,118.000 C 220.830,120.455 221.299,120.603 220.500,123.000" stroke-width="14.639" stroke="rgb(33,33,33)" fill="none" stroke-linecap="round"></path><path d="M 220.500,123.000 C 219.799,125.103 219.379,124.950 218.500,127.000" stroke-width="14.661" stroke="rgb(33,33,33)" fill="none" stroke-linecap="round"></path><path d="M 218.500,127.000 C 217.879,128.450 217.880,128.481 217.500,130.000" stroke-width="14.915" stroke="rgb(33,33,33)" fill="none" stroke-linecap="round"></path><path d="M 217.500,130.000 C 217.380,130.481 217.500,131.300 217.500,131.000" stroke-width="15.526" stroke="rgb(33,33,33)" fill="none" stroke-linecap="round"></path><path d="M 217.500,131.000 C 217.500,129.800 217.500,129.000 217.500,127.000" stroke-width="16.145" stroke="rgb(33,33,33)" fill="none" stroke-linecap="round"></path><path d="M 217.500,127.000 C 217.500,123.500 216.788,123.205 217.500,120.000" stroke-width="15.218" stroke="rgb(33,33,33)" fill="none" stroke-linecap="round"></path><path d="M 217.500,120.000 C 217.788,118.705 218.683,119.143 219.500,118.000" stroke-width="15.518" stroke="rgb(33,33,33)" fill="none" stroke-linecap="round"></path><path d="M 219.500,118.000 C 221.183,115.643 220.763,115.315 222.500,113.000" stroke-width="15.000" stroke="rgb(33,33,33)" fill="none" stroke-linecap="round"></path><path d="M 222.500,113.000 C 223.763,111.315 223.781,111.146 225.500,110.000" stroke-width="14.921" stroke="rgb(33,33,33)" fill="none" stroke-linecap="round"></path><path d="M 225.500,110.000 C 226.781,109.146 227.000,109.500 228.500,109.000" stroke-width="15.130" stroke="rgb(33,33,33)" fill="none" stroke-linecap="round"></path><path d="M 228.500,109.000 C 231.500,108.000 231.437,107.613 234.500,107.000" stroke-width="15.002" stroke="rgb(33,33,33)" fill="none" stroke-linecap="round"></path><path d="M 234.500,107.000 C 236.437,106.613 236.500,107.000 238.500,107.000" stroke-width="14.676" stroke="rgb(33,33,33)" fill="none" stroke-linecap="round"></path><path d="M 238.500,107.000 C 241.000,107.000 241.000,107.000 243.500,107.000" stroke-width="14.666" stroke="rgb(33,33,33)" fill="none" stroke-linecap="round"></path><path d="M 243.500,107.000 C 244.500,107.000 244.500,107.000 245.500,107.000" stroke-width="15.164" stroke="rgb(33,33,33)" fill="none" stroke-linecap="round"></path><path d="M 245.500,107.000 C 247.000,107.000 247.040,106.757 248.500,107.000" stroke-width="15.308" stroke="rgb(33,33,33)" fill="none" stroke-linecap="round"></path><path d="M 248.500,107.000 C 250.040,107.257 250.118,107.309 251.500,108.000" stroke-width="15.390" stroke="rgb(33,33,33)" fill="none" stroke-linecap="round"></path><path d="M 251.500,108.000 C 252.118,108.309 252.207,108.414 252.500,109.000" stroke-width="15.890" stroke="rgb(33,33,33)" fill="none" stroke-linecap="round"></path><path d="M 252.500,109.000 C 252.707,109.414 252.500,109.500 252.500,110.000" stroke-width="16.381" stroke="rgb(33,33,33)" fill="none" stroke-linecap="round"></path><path d="M 252.500,110.000 C 252.500,110.500 252.380,110.519 252.500,111.000" stroke-width="16.797" stroke="rgb(33,33,33)" fill="none" stroke-linecap="round"></path><path d="M 252.500,111.000 C 252.880,112.519 253.194,112.469 253.500,114.000" stroke-width="16.571" stroke="rgb(33,33,33)" fill="none" stroke-linecap="round"></path><path d="M 253.500,114.000 C 253.694,114.969 253.500,115.000 253.500,116.000" stroke-width="16.758" stroke="rgb(33,33,33)" fill="none" stroke-linecap="round"></path><path d="M 253.500,116.000 C 253.500,117.500 253.500,117.500 253.500,119.000" stroke-width="16.582" stroke="rgb(33,33,33)" fill="none" stroke-linecap="round"></path><path d="M 253.500,119.000 C 253.500,119.500 253.500,119.500 253.500,120.000" stroke-width="16.983" stroke="rgb(33,33,33)" fill="none" stroke-linecap="round"></path><path d="M 253.500,120.000 C 253.500,121.500 253.500,121.500 253.500,123.000" stroke-width="16.757" stroke="rgb(33,33,33)" fill="none" stroke-linecap="round"></path><path d="M 253.500,123.000 C 253.500,123.500 253.500,123.500 253.500,124.000" stroke-width="17.130" stroke="rgb(33,33,33)" fill="none" stroke-linecap="round"></path><path d="M 253.500,124.000 C 253.500,124.500 253.250,124.750 253.500,125.000" stroke-width="17.440" stroke="rgb(33,33,33)" fill="none" stroke-linecap="round"></path><path d="M 253.500,125.000 C 253.750,125.250 254.083,125.250 254.500,125.000" stroke-width="17.801" stroke="rgb(33,33,33)" fill="none" stroke-linecap="round"></path><path d="M 254.500,125.000 C 256.583,123.750 256.636,123.657 258.500,122.000" stroke-width="17.797" stroke="rgb(33,33,33)" fill="none" stroke-linecap="round"></path><path d="M 258.500,122.000 C 261.136,119.657 260.793,119.256 263.500,117.000" stroke-width="16.611" stroke="rgb(33,33,33)" fill="none" stroke-linecap="round"></path><path d="M 263.500,117.000 C 266.793,114.256 266.770,114.098 270.500,112.000" stroke-width="15.207" stroke="rgb(33,33,33)" fill="none" stroke-linecap="round"></path><path d="M 270.500,112.000 C 274.770,109.598 274.989,109.974 279.500,108.000" stroke-width="14.020" stroke="rgb(33,33,33)" fill="none" stroke-linecap="round"></path><path d="M 279.500,108.000 C 282.989,106.474 282.921,106.278 286.500,105.000" stroke-width="13.750" stroke="rgb(33,33,33)" fill="none" stroke-linecap="round"></path><path d="M 286.500,105.000 C 289.921,103.778 290.057,104.148 293.500,103.000" stroke-width="13.663" stroke="rgb(33,33,33)" fill="none" stroke-linecap="round"></path><path d="M 293.500,103.000 C 294.557,102.648 294.543,102.574 295.500,102.000" stroke-width="14.157" stroke="rgb(33,33,33)" fill="none" stroke-linecap="round"></path><path d="M 295.500,102.000 C 297.043,101.074 296.934,100.783 298.500,100.000" stroke-width="14.419" stroke="rgb(33,33,33)" fill="none" stroke-linecap="round"></path><path d="M 298.500,100.000 C 298.934,99.783 299.333,99.667 299.500,100.000" stroke-width="15.208" stroke="rgb(33,33,33)" fill="none" stroke-linecap="round"></path><path d="M 299.500,100.000 C 299.833,100.667 299.500,101.000 299.500,102.000" stroke-width="15.944" stroke="rgb(33,33,33)" fill="none" stroke-linecap="round"></path><path d="M 299.500,102.000 C 299.500,102.500 299.809,102.691 299.500,103.000" stroke-width="16.427" stroke="rgb(33,33,33)" fill="none" stroke-linecap="round"></path><path d="M 299.500,103.000 C 298.809,103.691 298.363,103.310 297.500,104.000" stroke-width="16.552" stroke="rgb(33,33,33)" fill="none" stroke-linecap="round"></path><path d="M 297.500,104.000 C 295.863,105.310 296.263,105.898 294.500,107.000" stroke-width="16.339" stroke="rgb(33,33,33)" fill="none" stroke-linecap="round"></path><path d="M 294.500,107.000 C 292.263,108.398 291.833,107.704 289.500,109.000" stroke-width="15.587" stroke="rgb(33,33,33)" fill="none" stroke-linecap="round"></path><path d="M 289.500,109.000 C 287.333,110.204 287.393,110.377 285.500,112.000" stroke-width="15.310" stroke="rgb(33,33,33)" fill="none" stroke-linecap="round"></path><path d="M 285.500,112.000 C 283.893,113.377 284.122,113.649 282.500,115.000" stroke-width="15.301" stroke="rgb(33,33,33)" fill="none" stroke-linecap="round"></path><path d="M 282.500,115.000 C 281.122,116.149 280.734,115.766 279.500,117.000" stroke-width="15.496" stroke="rgb(33,33,33)" fill="none" stroke-linecap="round"></path><path d="M 279.500,117.000 C 278.734,117.766 278.764,117.944 278.500,119.000" stroke-width="15.635" stroke="rgb(33,33,33)" fill="none" stroke-linecap="round"></path><path d="M 278.500,119.000 C 278.264,119.944 278.500,120.000 278.500,121.000" stroke-width="15.984" stroke="rgb(33,33,33)" fill="none" stroke-linecap="round"></path><path d="M 278.500,121.000 C 278.500,121.500 278.500,121.500 278.500,122.000" stroke-width="16.478" stroke="rgb(33,33,33)" fill="none" stroke-linecap="round"></path><path d="M 278.500,122.000 C 278.500,123.500 278.500,123.500 278.500,125.000" stroke-width="16.290" stroke="rgb(33,33,33)" fill="none" stroke-linecap="round"></path><path d="M 278.500,125.000 C 278.500,126.000 278.500,126.000 278.500,127.000" stroke-width="16.493" stroke="rgb(33,33,33)" fill="none" stroke-linecap="round"></path><path d="M 278.500,127.000 C 278.500,128.000 278.207,128.121 278.500,129.000" stroke-width="16.659" stroke="rgb(33,33,33)" fill="none" stroke-linecap="round"></path><path d="M 278.500,129.000 C 278.707,129.621 278.859,129.840 279.500,130.000" stroke-width="16.979" stroke="rgb(33,33,33)" fill="none" stroke-linecap="round"></path><path d="M 279.500,130.000 C 280.859,130.340 281.000,130.000 282.500,130.000" stroke-width="16.587" stroke="rgb(33,33,33)" fill="none" stroke-linecap="round"></path><path d="M 282.500,130.000 C 285.500,130.000 285.739,130.920 288.500,130.000" stroke-width="15.958" stroke="rgb(33,33,33)" fill="none" stroke-linecap="round"></path><path d="M 288.500,130.000 C 293.239,128.420 293.142,127.724 297.500,125.000" stroke-width="14.602" stroke="rgb(33,33,33)" fill="none" stroke-linecap="round"></path><path d="M 297.500,125.000 C 301.142,122.724 301.500,123.000 304.500,120.000" stroke-width="14.355" stroke="rgb(33,33,33)" fill="none" stroke-linecap="round"></path><path d="M 304.500,120.000 C 307.500,117.000 307.000,116.500 309.500,113.000" stroke-width="12.537" stroke="rgb(33,33,33)" fill="none" stroke-linecap="round"></path><path d="M 309.500,113.000 C 312.000,109.500 312.483,109.746 314.500,106.000" stroke-width="12.465" stroke="rgb(33,33,33)" fill="none" stroke-linecap="round"></path><path d="M 314.500,106.000 C 315.983,103.246 315.366,102.949 316.500,100.000" stroke-width="12.681" stroke="rgb(33,33,33)" fill="none" stroke-linecap="round"></path><path d="M 316.500,100.000 C 317.866,96.449 318.134,96.551 319.500,93.000" stroke-width="12.531" stroke="rgb(33,33,33)" fill="none" stroke-linecap="round"></path><path d="M 319.500,93.000 C 320.634,90.051 320.816,90.078 321.500,87.000" stroke-width="12.595" stroke="rgb(33,33,33)" fill="none" stroke-linecap="round"></path><path d="M 321.500,87.000 C 322.816,81.078 323.068,81.047 323.500,75.000" stroke-width="12.101" stroke="rgb(33,33,33)" fill="none" stroke-linecap="round"></path><path d="M 323.500,75.000 C 324.068,67.047 322.932,66.953 323.500,59.000" stroke-width="11.726" stroke="rgb(33,33,33)" fill="none" stroke-linecap="round"></path><path d="M 323.500,59.000 C 323.932,52.953 324.897,53.033 325.500,47.000" stroke-width="10.497" stroke="rgb(33,33,33)" fill="none" stroke-linecap="round"></path><path d="M 325.500,47.000 C 325.897,43.033 325.142,42.942 325.500,39.000" stroke-width="10.850" stroke="rgb(33,33,33)" fill="none" stroke-linecap="round"></path><path d="M 325.500,39.000 C 325.642,37.442 326.243,37.540 326.500,36.000" stroke-width="11.599" stroke="rgb(33,33,33)" fill="none" stroke-linecap="round"></path><path d="M 326.500,36.000 C 326.743,34.540 326.500,32.786 326.500,33.000" stroke-width="12.298" stroke="rgb(33,33,33)" fill="none" stroke-linecap="round"></path><path d="M 326.500,33.000 C 326.500,33.286 326.500,35.000 326.500,37.000" stroke-width="13.273" stroke="rgb(33,33,33)" fill="none" stroke-linecap="round"></path><path d="M 326.500,37.000 C 326.500,42.000 326.500,42.000 326.500,47.000" stroke-width="12.638" stroke="rgb(33,33,33)" fill="none" stroke-linecap="round"></path><path d="M 326.500,47.000 C 326.500,51.000 326.500,51.000 326.500,55.000" stroke-width="12.617" stroke="rgb(33,33,33)" fill="none" stroke-linecap="round"></path><path d="M 326.500,55.000 C 326.500,59.500 326.500,59.500 326.500,64.000" stroke-width="12.291" stroke="rgb(33,33,33)" fill="none" stroke-linecap="round"></path><path d="M 326.500,64.000 C 326.500,67.000 326.500,67.000 326.500,70.000" stroke-width="12.515" stroke="rgb(33,33,33)" fill="none" stroke-linecap="round"></path><path d="M 326.500,70.000 C 326.500,72.000 326.500,72.000 326.500,74.000" stroke-width="12.971" stroke="rgb(33,33,33)" fill="none" stroke-linecap="round"></path><path d="M 326.500,74.000 C 326.500,76.500 326.500,76.500 326.500,79.000" stroke-width="13.271" stroke="rgb(33,33,33)" fill="none" stroke-linecap="round"></path><path d="M 326.500,79.000 C 326.500,80.500 326.500,80.500 326.500,82.000" stroke-width="13.727" stroke="rgb(33,33,33)" fill="none" stroke-linecap="round"></path><path d="M 326.500,82.000 C 326.500,82.500 326.500,82.500 326.500,83.000" stroke-width="14.497" stroke="rgb(33,33,33)" fill="none" stroke-linecap="round"></path><path d="M 326.500,83.000 C 326.500,83.500 326.500,83.500 326.500,84.000" stroke-width="15.178" stroke="rgb(33,33,33)" fill="none" stroke-linecap="round"></path><path d="M 326.500,84.000 C 326.500,84.500 326.500,84.500 326.500,85.000" stroke-width="15.879" stroke="rgb(33,33,33)" fill="none" stroke-linecap="round"></path><path d="M 326.500,85.000 C 326.500,85.500 326.500,85.500 326.500,86.000" stroke-width="16.371" stroke="rgb(33,33,33)" fill="none" stroke-linecap="round"></path><path d="M 326.500,86.000 C 326.500,86.500 326.500,86.500 326.500,87.000" stroke-width="16.900" stroke="rgb(33,33,33)" fill="none" stroke-linecap="round"></path><path d="M 326.500,87.000 C 326.500,88.000 326.500,88.000 326.500,89.000" stroke-width="17.240" stroke="rgb(33,33,33)" fill="none" stroke-linecap="round"></path><path d="M 326.500,89.000 C 326.500,89.500 326.500,89.500 326.500,90.000" stroke-width="17.512" stroke="rgb(33,33,33)" fill="none" stroke-linecap="round"></path><path d="M 326.500,90.000 C 326.500,90.500 326.250,90.750 326.500,91.000" stroke-width="17.736" stroke="rgb(33,33,33)" fill="none" stroke-linecap="round"></path><path d="M 326.500,91.000 C 326.750,91.250 327.333,91.333 327.500,91.000" stroke-width="18.047" stroke="rgb(33,33,33)" fill="none" stroke-linecap="round"></path><path d="M 327.500,91.000 C 327.833,90.333 327.191,89.927 327.500,89.000" stroke-width="17.945" stroke="rgb(33,33,33)" fill="none" stroke-linecap="round"></path><path d="M 327.500,89.000 C 328.191,86.927 328.217,86.796 329.500,85.000" stroke-width="17.102" stroke="rgb(33,33,33)" fill="none" stroke-linecap="round"></path><path d="M 329.500,85.000 C 330.717,83.296 331.000,83.500 332.500,82.000" stroke-width="16.701" stroke="rgb(33,33,33)" fill="none" stroke-linecap="round"></path><path d="M 332.500,82.000 C 333.000,81.500 333.077,81.563 333.500,81.000" stroke-width="16.935" stroke="rgb(33,33,33)" fill="none" stroke-linecap="round"></path><path d="M 333.500,81.000 C 334.577,79.563 334.266,79.234 335.500,78.000" stroke-width="16.707" stroke="rgb(33,33,33)" fill="none" stroke-linecap="round"></path><path d="M 335.500,78.000 C 336.266,77.234 336.464,77.345 337.500,77.000" stroke-width="16.731" stroke="rgb(33,33,33)" fill="none" stroke-linecap="round"></path><path d="M 337.500,77.000 C 337.964,76.845 338.333,76.667 338.500,77.000" stroke-width="17.124" stroke="rgb(33,33,33)" fill="none" stroke-linecap="round"></path><path d="M 338.500,77.000 C 338.833,77.667 338.500,78.000 338.500,79.000" stroke-width="17.595" stroke="rgb(33,33,33)" fill="none" stroke-linecap="round"></path><path d="M 338.500,79.000 C 338.500,81.000 338.500,81.000 338.500,83.000" stroke-width="17.128" stroke="rgb(33,33,33)" fill="none" stroke-linecap="round"></path><path d="M 338.500,83.000 C 338.500,87.000 338.500,87.000 338.500,91.000" stroke-width="15.831" stroke="rgb(33,33,33)" fill="none" stroke-linecap="round"></path><path d="M 338.500,91.000 C 338.500,94.000 338.500,94.000 338.500,97.000" stroke-width="15.303" stroke="rgb(33,33,33)" fill="none" stroke-linecap="round"></path><path d="M 338.500,97.000 C 338.500,99.500 338.500,99.500 338.500,102.000" stroke-width="15.162" stroke="rgb(33,33,33)" fill="none" stroke-linecap="round"></path><path d="M 338.500,102.000 C 338.500,103.000 338.000,103.500 338.500,104.000" stroke-width="15.519" stroke="rgb(33,33,33)" fill="none" stroke-linecap="round"></path><path d="M 338.500,104.000 C 339.000,104.500 339.500,104.000 340.500,104.000" stroke-width="16.140" stroke="rgb(33,33,33)" fill="none" stroke-linecap="round"></path><path d="M 340.500,104.000 C 342.000,104.000 342.069,104.358 343.500,104.000" stroke-width="16.093" stroke="rgb(33,33,33)" fill="none" stroke-linecap="round"></path><path d="M 343.500,104.000 C 346.069,103.358 346.404,103.497 348.500,102.000" stroke-width="15.704" stroke="rgb(33,33,33)" fill="none" stroke-linecap="round"></path><path d="M 348.500,102.000 C 349.904,100.997 349.351,100.378 350.500,99.000" stroke-width="15.611" stroke="rgb(33,33,33)" fill="none" stroke-linecap="round"></path><path d="M 350.500,99.000 C 351.851,97.378 352.149,97.622 353.500,96.000" stroke-width="15.477" stroke="rgb(33,33,33)" fill="none" stroke-linecap="round"></path><path d="M 353.500,96.000 C 354.649,94.622 354.453,94.466 355.500,93.000" stroke-width="15.496" stroke="rgb(33,33,33)" fill="none" stroke-linecap="round"></path><path d="M 355.500,93.000 C 356.953,90.966 357.510,91.228 358.500,89.000" stroke-width="15.313" stroke="rgb(33,33,33)" fill="none" stroke-linecap="round"></path><path d="M 358.500,89.000 C 359.510,86.728 358.535,86.251 359.500,84.000" stroke-width="14.993" stroke="rgb(33,33,33)" fill="none" stroke-linecap="round"></path><path d="M 359.500,84.000 C 360.035,82.751 360.662,83.117 361.500,82.000" stroke-width="15.253" stroke="rgb(33,33,33)" fill="none" stroke-linecap="round"></path><path d="M 361.500,82.000 C 362.162,81.117 362.155,81.036 362.500,80.000" stroke-width="15.584" stroke="rgb(33,33,33)" fill="none" stroke-linecap="round"></path><path d="M 362.500,80.000 C 362.655,79.536 362.293,79.414 362.500,79.000" stroke-width="16.120" stroke="rgb(33,33,33)" fill="none" stroke-linecap="round"></path><path d="M 362.500,79.000 C 362.793,78.414 363.447,77.420 363.500,78.000" stroke-width="16.508" stroke="rgb(33,33,33)" fill="none" stroke-linecap="round"></path><path d="M 363.500,78.000 C 363.947,82.920 363.500,84.000 363.500,90.000" stroke-width="16.580" stroke="rgb(33,33,33)" fill="none" stroke-linecap="round"></path><path d="M 363.500,90.000 C 363.500,97.000 363.500,97.000 363.500,104.000" stroke-width="14.145" stroke="rgb(33,33,33)" fill="none" stroke-linecap="round"></path><path d="M 363.500,104.000 C 363.500,107.000 363.500,107.000 363.500,110.000" stroke-width="14.086" stroke="rgb(33,33,33)" fill="none" stroke-linecap="round"></path><path d="M 363.500,110.000 C 363.500,112.000 363.500,112.000 363.500,114.000" stroke-width="14.293" stroke="rgb(33,33,33)" fill="none" stroke-linecap="round"></path><path d="M 363.500,114.000 C 363.500,115.000 363.500,115.000 363.500,116.000" stroke-width="14.784" stroke="rgb(33,33,33)" fill="none" stroke-linecap="round"></path><path d="M 363.500,116.000 C 363.500,116.500 363.500,116.500 363.500,117.000" stroke-width="15.444" stroke="rgb(33,33,33)" fill="none" stroke-linecap="round"></path><path d="M 363.500,117.000 C 363.500,117.500 363.500,117.500 363.500,118.000" stroke-width="15.981" stroke="rgb(33,33,33)" fill="none" stroke-linecap="round"></path><path d="M 363.500,118.000 C 363.500,118.500 363.809,118.691 363.500,119.000" stroke-width="16.647" stroke="rgb(33,33,33)" fill="none" stroke-linecap="round"></path><path d="M 363.500,119.000 C 362.809,119.691 362.027,119.121 361.500,120.000" stroke-width="16.980" stroke="rgb(33,33,33)" fill="none" stroke-linecap="round"></path><path d="M 361.500,120.000 C 360.527,121.621 361.328,122.136 360.500,124.000" stroke-width="16.632" stroke="rgb(33,33,33)" fill="none" stroke-linecap="round"></path><path d="M 360.500,124.000 C 359.328,126.636 359.020,126.512 357.500,129.000" stroke-width="15.930" stroke="rgb(33,33,33)" fill="none" stroke-linecap="round"></path><path d="M 357.500,129.000 C 353.520,135.512 353.667,135.610 349.500,142.000" stroke-width="13.763" stroke="rgb(33,33,33)" fill="none" stroke-linecap="round"></path><path d="M 349.500,142.000 C 346.167,147.110 346.203,147.158 342.500,152.000" stroke-width="12.664" stroke="rgb(33,33,33)" fill="none" stroke-linecap="round"></path><path d="M 342.500,152.000 C 339.703,155.658 338.918,155.200 336.500,159.000" stroke-width="12.570" stroke="rgb(33,33,33)" fill="none" stroke-linecap="round"></path><path d="M 336.500,159.000 C 335.418,160.700 336.148,161.055 335.500,163.000" stroke-width="12.950" stroke="rgb(33,33,33)" fill="none" stroke-linecap="round"></path><path d="M 335.500,163.000 C 335.148,164.055 335.250,164.250 334.500,165.000" stroke-width="13.607" stroke="rgb(33,33,33)" fill="none" stroke-linecap="round"></path><path d="M 334.500,165.000 C 333.750,165.750 333.536,165.655 332.500,166.000" stroke-width="14.182" stroke="rgb(33,33,33)" fill="none" stroke-linecap="round"></path><path d="M 332.500,166.000 C 332.036,166.155 331.750,165.750 331.500,166.000" stroke-width="14.915" stroke="rgb(33,33,33)" fill="none" stroke-linecap="round"></path><path d="M 331.500,166.000 C 331.250,166.250 331.750,166.750 331.500,167.000" stroke-width="15.639" stroke="rgb(33,33,33)" fill="none" stroke-linecap="round"></path><path d="M 331.500,167.000 C 331.250,167.250 330.964,166.845 330.500,167.000" stroke-width="16.184" stroke="rgb(33,33,33)" fill="none" stroke-linecap="round"></path><path d="M 330.500,167.000 C 329.464,167.345 329.568,167.786 328.500,168.000" stroke-width="16.309" stroke="rgb(33,33,33)" fill="none" stroke-linecap="round"></path><path d="M 328.500,168.000 C 327.068,168.286 326.862,167.546 325.500,168.000" stroke-width="16.338" stroke="rgb(33,33,33)" fill="none" stroke-linecap="round"></path><path d="M 325.500,168.000 C 323.862,168.546 324.138,169.454 322.500,170.000" stroke-width="16.108" stroke="rgb(33,33,33)" fill="none" stroke-linecap="round"></path><path d="M 322.500,170.000 C 321.138,170.454 320.974,169.789 319.500,170.000" stroke-width="16.126" stroke="rgb(33,33,33)" fill="none" stroke-linecap="round"></path><path d="M 319.500,170.000 C 317.474,170.289 317.526,170.711 315.500,171.000" stroke-width="15.904" stroke="rgb(33,33,33)" fill="none" stroke-linecap="round"></path><path d="M 315.500,171.000 C 314.026,171.211 314.000,171.000 312.500,171.000" stroke-width="16.011" stroke="rgb(33,33,33)" fill="none" stroke-linecap="round"></path><path d="M 312.500,171.000 C 308.500,171.000 308.500,171.000 304.500,171.000" stroke-width="14.920" stroke="rgb(33,33,33)" fill="none" stroke-linecap="round"></path><path d="M 304.500,171.000 C 299.000,171.000 299.000,171.000 293.500,171.000" stroke-width="13.917" stroke="rgb(33,33,33)" fill="none" stroke-linecap="round"></path><path d="M 293.500,171.000 C 290.500,171.000 290.457,171.394 287.500,171.000" stroke-width="13.746" stroke="rgb(33,33,33)" fill="none" stroke-linecap="round"></path><path d="M 287.500,171.000 C 282.957,170.394 282.714,170.621 278.500,169.000" stroke-width="13.217" stroke="rgb(33,33,33)" fill="none" stroke-linecap="round"></path><path d="M 278.500,169.000 C 276.214,168.121 276.346,167.678 274.500,166.000" stroke-width="13.419" stroke="rgb(33,33,33)" fill="none" stroke-linecap="round"></path><path d="M 274.500,166.000 C 270.846,162.678 270.744,162.731 267.500,159.000" stroke-width="12.880" stroke="rgb(33,33,33)" fill="none" stroke-linecap="round"></path><path d="M 267.500,159.000 C 260.744,151.231 262.350,149.476 254.500,143.000" stroke-width="11.409" stroke="rgb(33,33,33)" fill="none" stroke-linecap="round"></path><path d="M 254.500,143.000 C 242.350,132.976 241.176,134.205 227.500,126.000" stroke-width="9.411" stroke="rgb(33,33,33)" fill="none" stroke-linecap="round"></path><path d="M 227.500,126.000 C 216.176,119.205 215.822,119.793 204.500,113.000" stroke-width="8.699" stroke="rgb(33,33,33)" fill="none" stroke-linecap="round"></path><path d="M 204.500,113.000 C 195.822,107.793 196.066,107.394 187.500,102.000" stroke-width="8.332" stroke="rgb(33,33,33)" fill="none" stroke-linecap="round"></path><path d="M 187.500,102.000 C 182.566,98.894 182.672,98.586 177.500,96.000" stroke-width="8.594" stroke="rgb(33,33,33)" fill="none" stroke-linecap="round"></path><path d="M 177.500,96.000 C 175.672,95.086 175.367,95.800 173.500,95.000" stroke-width="9.445" stroke="rgb(33,33,33)" fill="none" stroke-linecap="round"></path></svg>