<svg xmlns="http://www.w3.org/2000/svg" xmlns:xlink="http://www.w3.org/1999/xlink" viewBox="0 0 800 500"><path d="M 312.000,134.500 C 310.500,138.500 310.350,138.449 309.000,142.500" stroke-width="17.527" stroke="rgb(33,33,33)" fill="none" stroke-linecap="round"></path><path d="M 309.000,142.500 C 307.350,147.449 307.155,147.420 306.000,152.500" stroke-width="15.598" stroke="rgb(33,33,33)" fill="none" stroke-linecap="round"></path><path d="M 306.000,152.500 C 304.655,158.420 304.605,158.452 304.000,164.500" stroke-width="14.740" stroke="rgb(33,33,33)" fill="none" stroke-linecap="round"></path><path d="M 304.000,164.500 C 302.105,183.452 302.119,183.485 301.000,202.500" stroke-width="13.350" stroke="rgb(33,33,33)" fill="none" stroke-linecap="round"></path><path d="M 301.000,202.500 C 300.619,208.985 300.620,209.047 301.000,215.500" stroke-width="12.928" stroke="rgb(33,33,33)" fill="none" stroke-linecap="round"></path><path d="M 301.000,215.500 C 301.120,217.547 301.110,218.907 302.000,219.500" stroke-width="13.427" stroke="rgb(33,33,33)" fill="none" stroke-linecap="round"></path><path d="M 302.000,219.500 C 302.610,219.907 303.375,218.751 304.000,217.500" stroke-width="14.247" stroke="rgb(33,33,33)" fill="none" stroke-linecap="round"></path><path d="M 304.000,217.500 C 306.875,211.751 306.700,211.578 309.000,205.500" stroke-width="13.739" stroke="rgb(33,33,33)" fill="none" stroke-linecap="round"></path><path d="M 309.000,205.500 C 313.700,193.078 314.150,193.204 318.000,180.500" stroke-width="11.682" stroke="rgb(33,33,33)" fill="none" stroke-linecap="round"></path><path d="M 318.000,180.500 C 324.150,160.204 324.252,160.169 329.000,139.500" stroke-width="9.707" stroke="rgb(33,33,33)" fill="none" stroke-linecap="round"></path><path d="M 329.000,139.500 C 332.752,123.169 331.781,122.955 335.000,106.500" stroke-width="8.946" stroke="rgb(33,33,33)" fill="none" stroke-linecap="round"></path><path d="M 335.000,106.500 C 336.281,99.955 336.304,99.945 338.000,93.500" stroke-width="9.341" stroke="rgb(33,33,33)" fill="none" stroke-linecap="round"></path><path d="M 338.000,93.500 C 338.804,90.445 338.726,90.366 340.000,87.500" stroke-width="10.058" stroke="rgb(33,33,33)" fill="none" stroke-linecap="round"></path><path d="M 340.000,87.500 C 340.726,85.866 340.826,85.674 342.000,84.500" stroke-width="10.928" stroke="rgb(33,33,33)" fill="none" stroke-linecap="round"></path><path d="M 342.000,84.500 C 342.326,84.174 342.500,84.500 343.000,84.500" stroke-width="11.957" stroke="rgb(33,33,33)" fill="none" stroke-linecap="round"></path><path d="M 343.000,84.500 C 343.500,84.500 343.839,84.057 344.000,84.500" stroke-width="12.926" stroke="rgb(33,33,33)" fill="none" stroke-linecap="round"></path><path d="M 344.000,84.500 C 345.839,89.557 346.177,89.875 347.000,95.500" stroke-width="12.757" stroke="rgb(33,33,33)" fill="none" stroke-linecap="round"></path><path d="M 347.000,95.500 C 349.177,110.375 348.475,110.503 350.000,125.500" stroke-width="10.965" stroke="rgb(33,33,33)" fill="none" stroke-linecap="round"></path><path d="M 350.000,125.500 C 351.475,140.003 350.745,140.124 353.000,154.500" stroke-width="10.023" stroke="rgb(33,33,33)" fill="none" stroke-linecap="round"></path><path d="M 353.000,154.500 C 354.745,165.624 356.200,165.398 358.000,176.500" stroke-width="9.727" stroke="rgb(33,33,33)" fill="none" stroke-linecap="round"></path><path d="M 358.000,176.500 C 359.200,183.898 357.820,184.123 359.000,191.500" stroke-width="9.915" stroke="rgb(33,33,33)" fill="none" stroke-linecap="round"></path><path d="M 359.000,191.500 C 359.820,196.623 360.465,196.511 362.000,201.500" stroke-width="10.349" stroke="rgb(33,33,33)" fill="none" stroke-linecap="round"></path><path d="M 362.000,201.500 C 362.465,203.011 362.240,203.360 363.000,204.500" stroke-width="11.234" stroke="rgb(33,33,33)" fill="none" stroke-linecap="round"></path><path d="M 363.000,204.500 C 363.240,204.860 363.546,204.695 364.000,204.500" stroke-width="12.298" stroke="rgb(33,33,33)" fill="none" stroke-linecap="round"></path><path d="M 364.000,204.500 C 367.046,203.195 366.949,202.887 370.000,201.500" stroke-width="12.722" stroke="rgb(33,33,33)" fill="none" stroke-linecap="round"></path><path d="M 370.000,201.500 C 372.449,200.387 372.431,200.142 375.000,199.500" stroke-width="13.207" stroke="rgb(33,33,33)" fill="none" stroke-linecap="round"></path><path d="M 375.000,199.500 C 376.431,199.142 376.500,199.500 378.000,199.500" stroke-width="13.807" stroke="rgb(33,33,33)" fill="none" stroke-linecap="round"></path><path d="M 378.000,199.500 C 379.000,199.500 379.000,199.500 380.000,199.500" stroke-width="14.497" stroke="rgb(33,33,33)" fill="none" stroke-linecap="round"></path><path d="M 380.000,199.500 C 380.500,199.500 380.586,199.293 381.000,199.500" stroke-width="15.242" stroke="rgb(33,33,33)" fill="none" stroke-linecap="round"></path><path d="M 381.000,199.500 C 381.586,199.793 381.840,199.859 382.000,200.500" stroke-width="15.827" stroke="rgb(33,33,33)" fill="none" stroke-linecap="round"></path><path d="M 382.000,200.500 C 382.340,201.859 381.412,202.178 382.000,203.500" stroke-width="16.086" stroke="rgb(33,33,33)" fill="none" stroke-linecap="round"></path><path d="M 382.000,203.500 C 383.412,206.678 383.227,207.311 386.000,209.500" stroke-width="15.610" stroke="rgb(33,33,33)" fill="none" stroke-linecap="round"></path><path d="M 386.000,209.500 C 392.727,214.811 392.899,215.516 401.000,218.500" stroke-width="14.139" stroke="rgb(33,33,33)" fill="none" stroke-linecap="round"></path><path d="M 401.000,218.500 C 411.899,222.516 412.370,222.208 424.000,223.500" stroke-width="12.480" stroke="rgb(33,33,33)" fill="none" stroke-linecap="round"></path><path d="M 424.000,223.500 C 434.870,224.708 435.258,224.992 446.000,223.500" stroke-width="11.621" stroke="rgb(33,33,33)" fill="none" stroke-linecap="round"></path><path d="M 446.000,223.500 C 453.258,222.492 454.586,222.711 460.000,218.500" stroke-width="11.448" stroke="rgb(33,33,33)" fill="none" stroke-linecap="round"></path><path d="M 460.000,218.500 C 463.586,215.711 464.173,214.160 464.000,209.500" stroke-width="11.742" stroke="rgb(33,33,33)" fill="none" stroke-linecap="round"></path><path d="M 464.000,209.500 C 463.673,200.660 464.748,198.365 459.000,191.500" stroke-width="11.253" stroke="rgb(33,33,33)" fill="none" stroke-linecap="round"></path><path d="M 459.000,191.500 C 446.748,176.865 445.366,175.530 428.000,166.500" stroke-width="9.726" stroke="rgb(33,33,33)" fill="none" stroke-linecap="round"></path><path d="M 428.000,166.500 C 407.866,156.030 406.483,156.997 384.000,152.500" stroke-width="8.406" stroke="rgb(33,33,33)" fill="none" stroke-linecap="round"></path><path d="M 384.000,152.500 C 363.983,148.497 363.512,150.151 343.000,149.500" stroke-width="7.837" stroke="rgb(33,33,33)" fill="none" stroke-linecap="round"></path><path d="M 343.000,149.500 C 332.012,149.151 331.395,148.153 321.000,150.500" stroke-width="8.141" stroke="rgb(33,33,33)" fill="none" stroke-linecap="round"></path><path d="M 321.000,150.500 C 315.895,151.653 316.310,153.268 312.000,156.500" stroke-width="8.739" stroke="rgb(33,33,33)" fill="none" stroke-linecap="round"></path><path d="M 312.000,156.500 C 310.310,157.768 309.772,157.698 309.000,159.500" stroke-width="9.626" stroke="rgb(33,33,33)" fill="none" stroke-linecap="round"></path><path d="M 309.000,159.500 C 308.272,161.198 308.574,161.582 309.000,163.500" stroke-width="10.477" stroke="rgb(33,33,33)" fill="none" stroke-linecap="round"></path><path d="M 309.000,163.500 C 309.574,166.082 309.503,166.404 311.000,168.500" stroke-width="11.212" stroke="rgb(33,33,33)" fill="none" stroke-linecap="round"></path><path d="M 311.000,168.500 C 312.003,169.904 312.366,169.774 314.000,170.500" stroke-width="11.961" stroke="rgb(33,33,33)" fill="none" stroke-linecap="round"></path><path d="M 314.000,170.500 C 316.866,171.774 316.886,172.203 320.000,172.500" stroke-width="12.493" stroke="rgb(33,33,33)" fill="none" stroke-linecap="round"></path><path d="M 320.000,172.500 C 327.386,173.203 327.500,172.500 335.000,172.500" stroke-width="11.934" stroke="rgb(33,33,33)" fill="none" stroke-linecap="round"></path><path d="M 335.000,172.500 C 347.500,172.500 347.732,174.387 360.000,172.500" stroke-width="10.937" stroke="rgb(33,33,33)" fill="none" stroke-linecap="round"></path><path d="M 360.000,172.500 C 380.232,169.387 380.771,169.584 400.000,162.500" stroke-width="9.348" stroke="rgb(33,33,33)" fill="none" stroke-linecap="round"></path><path d="M 400.000,162.500 C 418.771,155.584 418.468,154.350 436.000,144.500" stroke-width="8.415" stroke="rgb(33,33,33)" fill="none" stroke-linecap="round"></path></svg>