<svg xmlns="http://www.w3.org/2000/svg" xmlns:xlink="http://www.w3.org/1999/xlink" viewBox="0 0 800 500"><path d="M 410.500,228.000 C 410.500,227.000 410.500,227.000 410.500,226.000" stroke-width="19.756" stroke="rgb(33,33,33)" fill="none" stroke-linecap="round"></path><path d="M 410.500,226.000 C 410.500,225.000 410.500,225.000 410.500,224.000" stroke-width="18.800" stroke="rgb(33,33,33)" fill="none" stroke-linecap="round"></path><path d="M 410.500,224.000 C 410.500,222.500 410.500,222.500 410.500,221.000" stroke-width="17.946" stroke="rgb(33,33,33)" fill="none" stroke-linecap="round"></path><path d="M 410.500,221.000 C 410.500,220.000 410.500,220.000 410.500,219.000" stroke-width="17.652" stroke="rgb(33,33,33)" fill="none" stroke-linecap="round"></path><path d="M 410.500,219.000 C 410.500,217.000 411.086,216.757 410.500,215.000" stroke-width="16.186" stroke="rgb(33,33,33)" fill="none" stroke-linecap="round"></path><path d="M 410.500,215.000 C 410.086,213.757 408.914,214.243 408.500,213.000" stroke-width="15.925" stroke="rgb(33,33,33)" fill="none" stroke-linecap="round"></path><path d="M 408.500,213.000 C 407.914,211.243 408.500,211.000 408.500,209.000" stroke-width="15.208" stroke="rgb(33,33,33)" fill="none" stroke-linecap="round"></path><path d="M 408.500,209.000 C 408.500,205.500 408.500,205.500 408.500,202.000" stroke-width="14.060" stroke="rgb(33,33,33)" fill="none" stroke-linecap="round"></path><path d="M 408.500,202.000 C 408.500,199.500 408.877,199.454 408.500,197.000" stroke-width="13.709" stroke="rgb(33,33,33)" fill="none" stroke-linecap="round"></path><path d="M 408.500,197.000 C 407.877,192.954 407.041,193.057 406.500,189.000" stroke-width="12.939" stroke="rgb(33,33,33)" fill="none" stroke-linecap="round"></path><path d="M 406.500,189.000 C 406.041,185.557 406.705,185.490 406.500,182.000" stroke-width="12.446" stroke="rgb(33,33,33)" fill="none" stroke-linecap="round"></path><path d="M 406.500,182.000 C 406.205,176.990 406.370,176.929 405.500,172.000" stroke-width="11.321" stroke="rgb(33,33,33)" fill="none" stroke-linecap="round"></path><path d="M 405.500,172.000 C 404.870,168.429 403.947,168.577 403.500,165.000" stroke-width="11.295" stroke="rgb(33,33,33)" fill="none" stroke-linecap="round"></path><path d="M 403.500,165.000 C 402.947,160.577 403.798,160.475 403.500,156.000" stroke-width="10.892" stroke="rgb(33,33,33)" fill="none" stroke-linecap="round"></path><path d="M 403.500,156.000 C 403.298,152.975 402.774,153.019 402.500,150.000" stroke-width="11.009" stroke="rgb(33,33,33)" fill="none" stroke-linecap="round"></path><path d="M 402.500,150.000 C 402.274,147.519 402.748,147.475 402.500,145.000" stroke-width="11.272" stroke="rgb(33,33,33)" fill="none" stroke-linecap="round"></path><path d="M 402.500,145.000 C 402.248,142.475 401.815,142.518 401.500,140.000" stroke-width="11.475" stroke="rgb(33,33,33)" fill="none" stroke-linecap="round"></path><path d="M 401.500,140.000 C 401.315,138.518 402.063,138.313 401.500,137.000" stroke-width="12.005" stroke="rgb(33,33,33)" fill="none" stroke-linecap="round"></path><path d="M 401.500,137.000 C 400.563,134.813 399.725,135.144 398.500,133.000" stroke-width="12.094" stroke="rgb(33,33,33)" fill="none" stroke-linecap="round"></path><path d="M 398.500,133.000 C 397.725,131.644 398.121,131.450 397.500,130.000" stroke-width="12.511" stroke="rgb(33,33,33)" fill="none" stroke-linecap="round"></path><path d="M 397.500,130.000 C 396.621,127.950 396.500,128.000 395.500,126.000" stroke-width="12.604" stroke="rgb(33,33,33)" fill="none" stroke-linecap="round"></path><path d="M 395.500,126.000 C 395.000,125.000 395.000,125.000 394.500,124.000" stroke-width="13.139" stroke="rgb(33,33,33)" fill="none" stroke-linecap="round"></path><path d="M 394.500,124.000 C 394.000,123.000 394.266,122.766 393.500,122.000" stroke-width="13.601" stroke="rgb(33,33,33)" fill="none" stroke-linecap="round"></path><path d="M 393.500,122.000 C 392.266,120.766 391.734,121.234 390.500,120.000" stroke-width="13.671" stroke="rgb(33,33,33)" fill="none" stroke-linecap="round"></path><path d="M 390.500,120.000 C 389.734,119.234 390.162,118.883 389.500,118.000" stroke-width="14.054" stroke="rgb(33,33,33)" fill="none" stroke-linecap="round"></path><path d="M 389.500,118.000 C 388.662,116.883 388.584,116.903 387.500,116.000" stroke-width="14.226" stroke="rgb(33,33,33)" fill="none" stroke-linecap="round"></path><path d="M 387.500,116.000 C 385.584,114.403 385.583,114.250 383.500,113.000" stroke-width="13.834" stroke="rgb(33,33,33)" fill="none" stroke-linecap="round"></path><path d="M 383.500,113.000 C 383.083,112.750 382.988,113.098 382.500,113.000" stroke-width="14.506" stroke="rgb(33,33,33)" fill="none" stroke-linecap="round"></path><path d="M 382.500,113.000 C 380.488,112.598 380.451,112.650 378.500,112.000" stroke-width="14.378" stroke="rgb(33,33,33)" fill="none" stroke-linecap="round"></path><path d="M 378.500,112.000 C 375.951,111.150 376.049,110.850 373.500,110.000" stroke-width="13.677" stroke="rgb(33,33,33)" fill="none" stroke-linecap="round"></path><path d="M 373.500,110.000 C 371.549,109.350 371.530,109.254 369.500,109.000" stroke-width="13.719" stroke="rgb(33,33,33)" fill="none" stroke-linecap="round"></path><path d="M 369.500,109.000 C 367.530,108.754 367.500,109.000 365.500,109.000" stroke-width="13.544" stroke="rgb(33,33,33)" fill="none" stroke-linecap="round"></path><path d="M 365.500,109.000 C 363.000,109.000 363.000,109.000 360.500,109.000" stroke-width="13.535" stroke="rgb(33,33,33)" fill="none" stroke-linecap="round"></path><path d="M 360.500,109.000 C 359.000,109.000 358.931,108.642 357.500,109.000" stroke-width="13.528" stroke="rgb(33,33,33)" fill="none" stroke-linecap="round"></path><path d="M 357.500,109.000 C 354.931,109.642 355.029,110.080 352.500,111.000" stroke-width="13.217" stroke="rgb(33,33,33)" fill="none" stroke-linecap="round"></path><path d="M 352.500,111.000 C 349.529,112.080 349.062,111.292 346.500,113.000" stroke-width="12.785" stroke="rgb(33,33,33)" fill="none" stroke-linecap="round"></path><path d="M 346.500,113.000 C 343.062,115.292 343.500,116.000 340.500,119.000" stroke-width="12.059" stroke="rgb(33,33,33)" fill="none" stroke-linecap="round"></path><path d="M 340.500,119.000 C 337.000,122.500 336.710,122.255 333.500,126.000" stroke-width="11.307" stroke="rgb(33,33,33)" fill="none" stroke-linecap="round"></path><path d="M 333.500,126.000 C 330.710,129.255 331.308,129.761 328.500,133.000" stroke-width="10.959" stroke="rgb(33,33,33)" fill="none" stroke-linecap="round"></path><path d="M 328.500,133.000 C 324.808,137.261 324.375,136.882 320.500,141.000" stroke-width="10.326" stroke="rgb(33,33,33)" fill="none" stroke-linecap="round"></path><path d="M 320.500,141.000 C 316.375,145.382 316.632,145.625 312.500,150.000" stroke-width="9.783" stroke="rgb(33,33,33)" fill="none" stroke-linecap="round"></path><path d="M 312.500,150.000 C 308.132,154.625 307.765,154.286 303.500,159.000" stroke-width="9.314" stroke="rgb(33,33,33)" fill="none" stroke-linecap="round"></path><path d="M 303.500,159.000 C 298.265,164.786 298.558,165.049 293.500,171.000" stroke-width="8.692" stroke="rgb(33,33,33)" fill="none" stroke-linecap="round"></path><path d="M 293.500,171.000 C 290.058,175.049 290.147,175.138 286.500,179.000" stroke-width="8.693" stroke="rgb(33,33,33)" fill="none" stroke-linecap="round"></path><path d="M 286.500,179.000 C 281.647,184.138 281.163,183.715 276.500,189.000" stroke-width="8.377" stroke="rgb(33,33,33)" fill="none" stroke-linecap="round"></path><path d="M 276.500,189.000 C 273.663,192.215 274.215,192.682 271.500,196.000" stroke-width="8.621" stroke="rgb(33,33,33)" fill="none" stroke-linecap="round"></path><path d="M 271.500,196.000 C 269.715,198.182 268.916,197.639 267.500,200.000" stroke-width="9.120" stroke="rgb(33,33,33)" fill="none" stroke-linecap="round"></path><path d="M 267.500,200.000 C 265.916,202.639 266.500,203.000 265.500,206.000" stroke-width="9.487" stroke="rgb(33,33,33)" fill="none" stroke-linecap="round"></path><path d="M 265.500,206.000 C 265.000,207.500 264.806,207.469 264.500,209.000" stroke-width="10.193" stroke="rgb(33,33,33)" fill="none" stroke-linecap="round"></path><path d="M 264.500,209.000 C 264.306,209.969 264.500,210.000 264.500,211.000" stroke-width="11.009" stroke="rgb(33,33,33)" fill="none" stroke-linecap="round"></path><path d="M 264.500,211.000 C 264.500,211.500 264.500,211.500 264.500,212.000" stroke-width="11.937" stroke="rgb(33,33,33)" fill="none" stroke-linecap="round"></path><path d="M 264.500,212.000 C 264.500,212.500 264.125,212.875 264.500,213.000" stroke-width="12.901" stroke="rgb(33,33,33)" fill="none" stroke-linecap="round"></path><path d="M 264.500,213.000 C 265.625,213.375 266.000,213.000 267.500,213.000" stroke-width="13.360" stroke="rgb(33,33,33)" fill="none" stroke-linecap="round"></path><path d="M 267.500,213.000 C 272.500,213.000 272.500,213.000 277.500,213.000" stroke-width="11.598" stroke="rgb(33,33,33)" fill="none" stroke-linecap="round"></path><path d="M 277.500,213.000 C 286.500,213.000 286.500,213.000 295.500,213.000" stroke-width="9.593" stroke="rgb(33,33,33)" fill="none" stroke-linecap="round"></path><path d="M 295.500,213.000 C 311.500,213.000 311.500,213.000 327.500,213.000" stroke-width="7.789" stroke="rgb(33,33,33)" fill="none" stroke-linecap="round"></path><path d="M 327.500,213.000 C 348.000,213.000 348.000,213.000 368.500,213.000" stroke-width="6.750" stroke="rgb(33,33,33)" fill="none" stroke-linecap="round"></path><path d="M 368.500,213.000 C 391.500,213.000 391.500,213.000 414.500,213.000" stroke-width="6.750" stroke="rgb(33,33,33)" fill="none" stroke-linecap="round"></path><path d="M 414.500,213.000 C 440.500,213.000 440.500,213.000 466.500,213.000" stroke-width="6.750" stroke="rgb(33,33,33)" fill="none" stroke-linecap="round"></path><path d="M 466.500,213.000 C 492.000,213.000 492.000,213.000 517.500,213.000" stroke-width="6.750" stroke="rgb(33,33,33)" fill="none" stroke-linecap="round"></path><path d="M 517.500,213.000 C 542.000,213.000 542.000,213.000 566.500,213.000" stroke-width="6.750" stroke="rgb(33,33,33)" fill="none" stroke-linecap="round"></path><path d="M 566.500,213.000 C 582.500,213.000 582.500,213.000 598.500,213.000" stroke-width="6.750" stroke="rgb(33,33,33)" fill="none" stroke-linecap="round"></path><path d="M 598.500,213.000 C 607.000,213.000 607.018,213.326 615.500,213.000" stroke-width="6.750" stroke="rgb(33,33,33)" fill="none" stroke-linecap="round"></path><path d="M 615.500,213.000 C 620.018,212.826 620.053,212.741 624.500,212.000" stroke-width="6.750" stroke="rgb(33,33,33)" fill="none" stroke-linecap="round"></path><path d="M 624.500,212.000 C 626.053,211.741 628.208,211.142 627.500,211.000" stroke-width="6.750" stroke="rgb(33,33,33)" fill="none" stroke-linecap="round"></path><path d="M 627.500,211.000 C 625.708,210.642 623.500,211.000 619.500,211.000" stroke-width="6.750" stroke="rgb(33,33,33)" fill="none" stroke-linecap="round"></path><path d="M 619.500,211.000 C 610.500,211.000 610.441,211.795 601.500,211.000" stroke-width="6.750" stroke="rgb(33,33,33)" fill="none" stroke-linecap="round"></path><path d="M 601.500,211.000 C 587.941,209.795 588.036,208.719 574.500,207.000" stroke-width="6.750" stroke="rgb(33,33,33)" fill="none" stroke-linecap="round"></path><path d="M 574.500,207.000 C 556.536,204.719 556.442,205.437 538.500,203.000" stroke-width="6.750" stroke="rgb(33,33,33)" fill="none" stroke-linecap="round"></path><path d="M 538.500,203.000 C 515.942,199.937 516.008,199.445 493.500,196.000" stroke-width="6.750" stroke="rgb(33,33,33)" fill="none" stroke-linecap="round"></path><path d="M 493.500,196.000 C 467.008,191.945 467.040,191.716 440.500,188.000" stroke-width="6.750" stroke="rgb(33,33,33)" fill="none" stroke-linecap="round"></path><path d="M 440.500,188.000 C 417.040,184.716 416.993,185.054 393.500,182.000" stroke-width="6.750" stroke="rgb(33,33,33)" fill="none" stroke-linecap="round"></path><path d="M 393.500,182.000 C 366.993,178.554 366.916,179.043 340.500,175.000" stroke-width="6.750" stroke="rgb(33,33,33)" fill="none" stroke-linecap="round"></path><path d="M 340.500,175.000 C 317.916,171.543 318.153,169.265 295.500,167.000" stroke-width="6.750" stroke="rgb(33,33,33)" fill="none" stroke-linecap="round"></path><path d="M 295.500,167.000 C 278.153,165.265 278.000,167.000 260.500,167.000" stroke-width="6.750" stroke="rgb(33,33,33)" fill="none" stroke-linecap="round"></path><path d="M 260.500,167.000 C 249.500,167.000 249.500,167.000 238.500,167.000" stroke-width="6.750" stroke="rgb(33,33,33)" fill="none" stroke-linecap="round"></path><path d="M 238.500,167.000 C 231.500,167.000 231.500,167.000 224.500,167.000" stroke-width="6.750" stroke="rgb(33,33,33)" fill="none" stroke-linecap="round"></path><path d="M 224.500,167.000 C 217.000,167.000 217.000,167.000 209.500,167.000" stroke-width="6.750" stroke="rgb(33,33,33)" fill="none" stroke-linecap="round"></path><path d="M 209.500,167.000 C 203.500,167.000 203.500,167.000 197.500,167.000" stroke-width="6.750" stroke="rgb(33,33,33)" fill="none" stroke-linecap="round"></path><path d="M 197.500,167.000 C 193.000,167.000 192.988,166.764 188.500,167.000" stroke-width="6.750" stroke="rgb(33,33,33)" fill="none" stroke-linecap="round"></path><path d="M 188.500,167.000 C 183.488,167.264 183.455,167.218 178.500,168.000" stroke-width="6.750" stroke="rgb(33,33,33)" fill="none" stroke-linecap="round"></path><path d="M 178.500,168.000 C 173.955,168.718 173.912,168.702 169.500,170.000" stroke-width="6.750" stroke="rgb(33,33,33)" fill="none" stroke-linecap="round"></path><path d="M 169.500,170.000 C 165.412,171.202 165.547,171.651 161.500,173.000" stroke-width="6.785" stroke="rgb(33,33,33)" fill="none" stroke-linecap="round"></path><path d="M 161.500,173.000 C 159.547,173.651 159.362,173.255 157.500,174.000" stroke-width="7.526" stroke="rgb(33,33,33)" fill="none" stroke-linecap="round"></path><path d="M 157.500,174.000 C 156.862,174.255 157.101,174.640 156.500,175.000" stroke-width="8.480" stroke="rgb(33,33,33)" fill="none" stroke-linecap="round"></path><path d="M 156.500,175.000 C 154.601,176.140 154.543,176.183 152.500,177.000" stroke-width="9.113" stroke="rgb(33,33,33)" fill="none" stroke-linecap="round"></path><path d="M 152.500,177.000 C 152.043,177.183 151.750,176.750 151.500,177.000" stroke-width="10.195" stroke="rgb(33,33,33)" fill="none" stroke-linecap="round"></path><path d="M 151.500,177.000 C 151.250,177.250 151.250,177.750 151.500,178.000" stroke-width="11.306" stroke="rgb(33,33,33)" fill="none" stroke-linecap="round"></path><path d="M 151.500,178.000 C 151.750,178.250 152.019,177.880 152.500,178.000" stroke-width="12.214" stroke="rgb(33,33,33)" fill="none" stroke-linecap="round"></path><path d="M 152.500,178.000 C 154.019,178.380 154.328,178.121 155.500,179.000" stroke-width="12.614" stroke="rgb(33,33,33)" fill="none" stroke-linecap="round"></path><path d="M 155.500,179.000 C 156.328,179.621 155.708,180.472 156.500,181.000" stroke-width="13.148" stroke="rgb(33,33,33)" fill="none" stroke-linecap="round"></path></svg>