<svg xmlns="http://www.w3.org/2000/svg" xmlns:xlink="http://www.w3.org/1999/xlink" viewBox="0 0 800 500"><path d="M 303.500,227.000 C 303.500,225.500 303.500,225.500 303.500,224.000" stroke-width="19.840" stroke="rgb(33,33,33)" fill="none" stroke-linecap="round"></path><path d="M 303.500,224.000 C 303.500,222.000 303.698,221.984 303.500,220.000" stroke-width="18.318" stroke="rgb(33,33,33)" fill="none" stroke-linecap="round"></path><path d="M 303.500,220.000 C 303.198,216.984 303.183,216.959 302.500,214.000" stroke-width="16.605" stroke="rgb(33,33,33)" fill="none" stroke-linecap="round"></path><path d="M 302.500,214.000 C 301.683,210.459 301.168,210.565 300.500,207.000" stroke-width="14.916" stroke="rgb(33,33,33)" fill="none" stroke-linecap="round"></path><path d="M 300.500,207.000 C 299.668,202.565 300.205,202.468 299.500,198.000" stroke-width="13.389" stroke="rgb(33,33,33)" fill="none" stroke-linecap="round"></path><path d="M 299.500,198.000 C 298.705,192.968 298.959,192.864 297.500,188.000" stroke-width="12.163" stroke="rgb(33,33,33)" fill="none" stroke-linecap="round"></path><path d="M 297.500,188.000 C 295.959,182.864 295.361,183.051 293.500,178.000" stroke-width="11.242" stroke="rgb(33,33,33)" fill="none" stroke-linecap="round"></path><path d="M 293.500,178.000 C 291.861,173.551 291.648,173.590 290.500,169.000" stroke-width="10.782" stroke="rgb(33,33,33)" fill="none" stroke-linecap="round"></path><path d="M 290.500,169.000 C 289.148,163.590 289.546,163.491 288.500,158.000" stroke-width="10.217" stroke="rgb(33,33,33)" fill="none" stroke-linecap="round"></path><path d="M 288.500,158.000 C 287.546,152.991 287.338,153.026 286.500,148.000" stroke-width="9.924" stroke="rgb(33,33,33)" fill="none" stroke-linecap="round"></path><path d="M 286.500,148.000 C 285.838,144.026 286.000,144.000 285.500,140.000" stroke-width="9.956" stroke="rgb(33,33,33)" fill="none" stroke-linecap="round"></path><path d="M 285.500,140.000 C 285.000,136.000 284.751,136.016 284.500,132.000" stroke-width="9.842" stroke="rgb(33,33,33)" fill="none" stroke-linecap="round"></path><path d="M 284.500,132.000 C 284.251,128.016 284.500,128.000 284.500,124.000" stroke-width="10.006" stroke="rgb(33,33,33)" fill="none" stroke-linecap="round"></path><path d="M 284.500,124.000 C 284.500,120.500 283.734,120.319 284.500,117.000" stroke-width="10.029" stroke="rgb(33,33,33)" fill="none" stroke-linecap="round"></path><path d="M 284.500,117.000 C 285.234,113.819 285.874,113.927 287.500,111.000" stroke-width="10.309" stroke="rgb(33,33,33)" fill="none" stroke-linecap="round"></path><path d="M 287.500,111.000 C 288.374,109.427 288.243,109.257 289.500,108.000" stroke-width="10.878" stroke="rgb(33,33,33)" fill="none" stroke-linecap="round"></path><path d="M 289.500,108.000 C 291.243,106.257 291.261,106.018 293.500,105.000" stroke-width="11.161" stroke="rgb(33,33,33)" fill="none" stroke-linecap="round"></path><path d="M 293.500,105.000 C 296.761,103.518 296.923,103.447 300.500,103.000" stroke-width="11.045" stroke="rgb(33,33,33)" fill="none" stroke-linecap="round"></path><path d="M 300.500,103.000 C 304.923,102.447 305.000,103.000 309.500,103.000" stroke-width="10.848" stroke="rgb(33,33,33)" fill="none" stroke-linecap="round"></path><path d="M 309.500,103.000 C 315.500,103.000 315.658,102.026 321.500,103.000" stroke-width="9.945" stroke="rgb(33,33,33)" fill="none" stroke-linecap="round"></path><path d="M 321.500,103.000 C 327.658,104.026 327.417,105.297 333.500,107.000" stroke-width="9.597" stroke="rgb(33,33,33)" fill="none" stroke-linecap="round"></path><path d="M 333.500,107.000 C 339.917,108.797 340.493,107.330 346.500,110.000" stroke-width="9.115" stroke="rgb(33,33,33)" fill="none" stroke-linecap="round"></path><path d="M 346.500,110.000 C 353.993,113.330 353.385,114.688 360.500,119.000" stroke-width="8.256" stroke="rgb(33,33,33)" fill="none" stroke-linecap="round"></path><path d="M 360.500,119.000 C 369.885,124.688 369.969,124.554 379.500,130.000" stroke-width="7.259" stroke="rgb(33,33,33)" fill="none" stroke-linecap="round"></path><path d="M 379.500,130.000 C 387.469,134.554 387.610,134.315 395.500,139.000" stroke-width="7.235" stroke="rgb(33,33,33)" fill="none" stroke-linecap="round"></path><path d="M 395.500,139.000 C 403.610,143.815 403.412,144.147 411.500,149.000" stroke-width="6.957" stroke="rgb(33,33,33)" fill="none" stroke-linecap="round"></path><path d="M 411.500,149.000 C 418.412,153.147 419.036,152.299 425.500,157.000" stroke-width="6.774" stroke="rgb(33,33,33)" fill="none" stroke-linecap="round"></path><path d="M 425.500,157.000 C 430.036,160.299 429.389,161.117 433.500,165.000" stroke-width="6.948" stroke="rgb(33,33,33)" fill="none" stroke-linecap="round"></path><path d="M 433.500,165.000 C 438.389,169.617 438.337,169.698 443.500,174.000" stroke-width="7.230" stroke="rgb(33,33,33)" fill="none" stroke-linecap="round"></path><path d="M 443.500,174.000 C 447.337,177.198 447.842,176.647 451.500,180.000" stroke-width="7.300" stroke="rgb(33,33,33)" fill="none" stroke-linecap="round"></path><path d="M 451.500,180.000 C 453.842,182.147 453.535,182.473 455.500,185.000" stroke-width="7.851" stroke="rgb(33,33,33)" fill="none" stroke-linecap="round"></path><path d="M 455.500,185.000 C 457.035,186.973 457.000,187.000 458.500,189.000" stroke-width="8.528" stroke="rgb(33,33,33)" fill="none" stroke-linecap="round"></path><path d="M 458.500,189.000 C 460.000,191.000 460.180,190.889 461.500,193.000" stroke-width="9.103" stroke="rgb(33,33,33)" fill="none" stroke-linecap="round"></path><path d="M 461.500,193.000 C 462.680,194.889 462.901,194.905 463.500,197.000" stroke-width="9.682" stroke="rgb(33,33,33)" fill="none" stroke-linecap="round"></path><path d="M 463.500,197.000 C 463.901,198.405 463.257,198.540 463.500,200.000" stroke-width="10.394" stroke="rgb(33,33,33)" fill="none" stroke-linecap="round"></path><path d="M 463.500,200.000 C 463.757,201.540 464.194,201.469 464.500,203.000" stroke-width="11.020" stroke="rgb(33,33,33)" fill="none" stroke-linecap="round"></path><path d="M 464.500,203.000 C 464.694,203.969 464.500,204.000 464.500,205.000" stroke-width="11.773" stroke="rgb(33,33,33)" fill="none" stroke-linecap="round"></path><path d="M 464.500,205.000 C 464.500,206.000 465.071,206.286 464.500,207.000" stroke-width="12.530" stroke="rgb(33,33,33)" fill="none" stroke-linecap="round"></path><path d="M 464.500,207.000 C 463.071,208.786 462.739,208.982 460.500,210.000" stroke-width="11.962" stroke="rgb(33,33,33)" fill="none" stroke-linecap="round"></path><path d="M 460.500,210.000 C 457.239,211.482 457.030,211.118 453.500,212.000" stroke-width="12.006" stroke="rgb(33,33,33)" fill="none" stroke-linecap="round"></path><path d="M 453.500,212.000 C 449.030,213.118 449.070,213.634 444.500,214.000" stroke-width="11.378" stroke="rgb(33,33,33)" fill="none" stroke-linecap="round"></path><path d="M 444.500,214.000 C 436.570,214.634 436.482,214.409 428.500,214.000" stroke-width="10.006" stroke="rgb(33,33,33)" fill="none" stroke-linecap="round"></path><path d="M 428.500,214.000 C 416.982,213.409 416.919,213.599 405.500,212.000" stroke-width="8.451" stroke="rgb(33,33,33)" fill="none" stroke-linecap="round"></path><path d="M 405.500,212.000 C 391.919,210.099 391.971,209.650 378.500,207.000" stroke-width="7.223" stroke="rgb(33,33,33)" fill="none" stroke-linecap="round"></path><path d="M 378.500,207.000 C 361.471,203.650 361.357,204.094 344.500,200.000" stroke-width="6.750" stroke="rgb(33,33,33)" fill="none" stroke-linecap="round"></path><path d="M 344.500,200.000 C 326.357,195.594 326.528,194.897 308.500,190.000" stroke-width="6.750" stroke="rgb(33,33,33)" fill="none" stroke-linecap="round"></path><path d="M 308.500,190.000 C 286.028,183.897 285.917,184.297 263.500,178.000" stroke-width="6.750" stroke="rgb(33,33,33)" fill="none" stroke-linecap="round"></path><path d="M 263.500,178.000 C 241.417,171.797 241.539,171.367 219.500,165.000" stroke-width="6.750" stroke="rgb(33,33,33)" fill="none" stroke-linecap="round"></path><path d="M 219.500,165.000 C 196.539,158.367 196.521,158.424 173.500,152.000" stroke-width="6.750" stroke="rgb(33,33,33)" fill="none" stroke-linecap="round"></path><path d="M 173.500,152.000 C 153.521,146.424 153.179,147.477 133.500,141.000" stroke-width="6.750" stroke="rgb(33,33,33)" fill="none" stroke-linecap="round"></path><path d="M 133.500,141.000 C 113.679,134.477 114.356,132.318 94.500,126.000" stroke-width="6.750" stroke="rgb(33,33,33)" fill="none" stroke-linecap="round"></path><path d="M 94.500,126.000 C 81.356,121.818 80.929,123.289 67.500,120.000" stroke-width="6.750" stroke="rgb(33,33,33)" fill="none" stroke-linecap="round"></path><path d="M 67.500,120.000 C 56.429,117.289 56.179,117.789 45.500,114.000" stroke-width="6.750" stroke="rgb(33,33,33)" fill="none" stroke-linecap="round"></path><path d="M 45.500,114.000 C 40.679,112.289 41.215,110.886 36.500,109.000" stroke-width="6.750" stroke="rgb(33,33,33)" fill="none" stroke-linecap="round"></path><path d="M 36.500,109.000 C 33.715,107.886 33.425,108.731 30.500,108.000" stroke-width="6.750" stroke="rgb(33,33,33)" fill="none" stroke-linecap="round"></path><path d="M 30.500,108.000 C 29.425,107.731 28.845,107.345 28.500,107.000" stroke-width="6.750" stroke="rgb(33,33,33)" fill="none" stroke-linecap="round"></path><path d="M 28.500,107.000 C 28.345,106.845 29.022,106.863 29.500,107.000" stroke-width="6.798" stroke="rgb(33,33,33)" fill="none" stroke-linecap="round"></path><path d="M 29.500,107.000 C 32.522,107.863 32.478,108.070 35.500,109.000" stroke-width="7.473" stroke="rgb(33,33,33)" fill="none" stroke-linecap="round"></path><path d="M 35.500,109.000 C 38.978,110.070 38.919,110.579 42.500,111.000" stroke-width="7.616" stroke="rgb(33,33,33)" fill="none" stroke-linecap="round"></path><path d="M 42.500,111.000 C 47.419,111.579 47.529,110.586 52.500,111.000" stroke-width="7.943" stroke="rgb(33,33,33)" fill="none" stroke-linecap="round"></path><path d="M 52.500,111.000 C 59.529,111.586 59.496,112.027 66.500,113.000" stroke-width="7.930" stroke="rgb(33,33,33)" fill="none" stroke-linecap="round"></path><path d="M 66.500,113.000 C 77.496,114.527 77.447,115.116 88.500,116.000" stroke-width="7.038" stroke="rgb(33,33,33)" fill="none" stroke-linecap="round"></path><path d="M 88.500,116.000 C 102.447,117.116 102.495,116.788 116.500,117.000" stroke-width="6.750" stroke="rgb(33,33,33)" fill="none" stroke-linecap="round"></path><path d="M 116.500,117.000 C 135.495,117.288 135.512,116.519 154.500,117.000" stroke-width="6.750" stroke="rgb(33,33,33)" fill="none" stroke-linecap="round"></path><path d="M 154.500,117.000 C 175.012,117.519 174.987,118.544 195.500,119.000" stroke-width="6.750" stroke="rgb(33,33,33)" fill="none" stroke-linecap="round"></path><path d="M 195.500,119.000 C 219.987,119.544 220.000,119.000 244.500,119.000" stroke-width="6.750" stroke="rgb(33,33,33)" fill="none" stroke-linecap="round"></path><path d="M 244.500,119.000 C 270.500,119.000 270.500,119.000 296.500,119.000" stroke-width="6.750" stroke="rgb(33,33,33)" fill="none" stroke-linecap="round"></path><path d="M 296.500,119.000 C 322.000,119.000 322.000,119.000 347.500,119.000" stroke-width="6.750" stroke="rgb(33,33,33)" fill="none" stroke-linecap="round"></path><path d="M 347.500,119.000 C 373.000,119.000 373.000,119.000 398.500,119.000" stroke-width="6.750" stroke="rgb(33,33,33)" fill="none" stroke-linecap="round"></path><path d="M 398.500,119.000 C 419.000,119.000 419.003,119.256 439.500,119.000" stroke-width="6.750" stroke="rgb(33,33,33)" fill="none" stroke-linecap="round"></path><path d="M 439.500,119.000 C 459.003,118.756 458.997,118.287 478.500,118.000" stroke-width="6.750" stroke="rgb(33,33,33)" fill="none" stroke-linecap="round"></path><path d="M 478.500,118.000 C 492.997,117.787 493.007,118.296 507.500,118.000" stroke-width="6.750" stroke="rgb(33,33,33)" fill="none" stroke-linecap="round"></path><path d="M 507.500,118.000 C 517.507,117.796 517.495,117.313 527.500,117.000" stroke-width="6.750" stroke="rgb(33,33,33)" fill="none" stroke-linecap="round"></path><path d="M 527.500,117.000 C 533.495,116.813 533.522,117.315 539.500,117.000" stroke-width="6.750" stroke="rgb(33,33,33)" fill="none" stroke-linecap="round"></path><path d="M 539.500,117.000 C 543.022,116.815 542.996,116.438 546.500,116.000" stroke-width="6.750" stroke="rgb(33,33,33)" fill="none" stroke-linecap="round"></path><path d="M 546.500,116.000 C 546.996,115.938 547.250,116.250 547.500,116.000" stroke-width="6.750" stroke="rgb(33,33,33)" fill="none" stroke-linecap="round"></path></svg>