<svg xmlns="http://www.w3.org/2000/svg" xmlns:xlink="http://www.w3.org/1999/xlink" viewBox="0 0 768 500"><path d="M 595.000,93.000 C 591.000,94.500 591.136,95.081 587.000,96.000" stroke-width="18.726" stroke="rgb(33,33,33)" fill="none" stroke-linecap="round"></path><path d="M 587.000,96.000 C 582.136,97.081 582.006,96.565 577.000,97.000" stroke-width="16.602" stroke="rgb(33,33,33)" fill="none" stroke-linecap="round"></path><path d="M 577.000,97.000 C 570.506,97.565 570.440,97.053 564.000,98.000" stroke-width="15.235" stroke="rgb(33,33,33)" fill="none" stroke-linecap="round"></path><path d="M 564.000,98.000 C 553.440,99.553 553.506,100.030 543.000,102.000" stroke-width="13.368" stroke="rgb(33,33,33)" fill="none" stroke-linecap="round"></path><path d="M 543.000,102.000 C 529.506,104.530 529.346,103.845 516.000,107.000" stroke-width="11.794" stroke="rgb(33,33,33)" fill="none" stroke-linecap="round"></path><path d="M 516.000,107.000 C 501.846,110.345 501.802,110.399 488.000,115.000" stroke-width="10.322" stroke="rgb(33,33,33)" fill="none" stroke-linecap="round"></path><path d="M 488.000,115.000 C 471.802,120.399 471.980,120.947 456.000,127.000" stroke-width="9.100" stroke="rgb(33,33,33)" fill="none" stroke-linecap="round"></path><path d="M 456.000,127.000 C 438.980,133.447 438.981,133.450 422.000,140.000" stroke-width="8.569" stroke="rgb(33,33,33)" fill="none" stroke-linecap="round"></path><path d="M 422.000,140.000 C 403.981,146.950 404.063,147.165 386.000,154.000" stroke-width="7.869" stroke="rgb(33,33,33)" fill="none" stroke-linecap="round"></path><path d="M 386.000,154.000 C 367.063,161.165 366.897,160.732 348.000,168.000" stroke-width="7.403" stroke="rgb(33,33,33)" fill="none" stroke-linecap="round"></path><path d="M 348.000,168.000 C 327.897,175.732 328.000,176.000 308.000,184.000" stroke-width="6.995" stroke="rgb(33,33,33)" fill="none" stroke-linecap="round"></path><path d="M 308.000,184.000 C 288.000,192.000 287.763,191.454 268.000,200.000" stroke-width="6.750" stroke="rgb(33,33,33)" fill="none" stroke-linecap="round"></path><path d="M 268.000,200.000 C 250.763,207.454 250.958,207.912 234.000,216.000" stroke-width="6.750" stroke="rgb(33,33,33)" fill="none" stroke-linecap="round"></path><path d="M 234.000,216.000 C 218.458,223.412 218.400,223.300 203.000,231.000" stroke-width="6.750" stroke="rgb(33,33,33)" fill="none" stroke-linecap="round"></path><path d="M 203.000,231.000 C 189.400,237.800 189.492,237.984 176.000,245.000" stroke-width="6.750" stroke="rgb(33,33,33)" fill="none" stroke-linecap="round"></path><path d="M 176.000,245.000 C 164.492,250.984 164.478,250.959 153.000,257.000" stroke-width="6.848" stroke="rgb(33,33,33)" fill="none" stroke-linecap="round"></path><path d="M 153.000,257.000 C 145.478,260.959 145.600,261.200 138.000,265.000" stroke-width="7.289" stroke="rgb(33,33,33)" fill="none" stroke-linecap="round"></path><path d="M 138.000,265.000 C 131.600,268.200 131.400,267.800 125.000,271.000" stroke-width="7.816" stroke="rgb(33,33,33)" fill="none" stroke-linecap="round"></path><path d="M 125.000,271.000 C 119.400,273.800 119.420,273.862 114.000,277.000" stroke-width="8.336" stroke="rgb(33,33,33)" fill="none" stroke-linecap="round"></path><path d="M 114.000,277.000 C 109.920,279.362 110.017,279.528 106.000,282.000" stroke-width="8.982" stroke="rgb(33,33,33)" fill="none" stroke-linecap="round"></path><path d="M 106.000,282.000 C 103.517,283.528 103.472,283.455 101.000,285.000" stroke-width="9.772" stroke="rgb(33,33,33)" fill="none" stroke-linecap="round"></path><path d="M 101.000,285.000 C 99.472,285.955 98.965,285.714 98.000,287.000" stroke-width="10.642" stroke="rgb(33,33,33)" fill="none" stroke-linecap="round"></path><path d="M 98.000,287.000 C 97.465,287.714 97.419,288.419 98.000,289.000" stroke-width="11.599" stroke="rgb(33,33,33)" fill="none" stroke-linecap="round"></path><path d="M 98.000,289.000 C 98.919,289.919 99.432,289.922 101.000,290.000" stroke-width="12.533" stroke="rgb(33,33,33)" fill="none" stroke-linecap="round"></path><path d="M 101.000,290.000 C 109.432,290.422 109.599,291.000 118.000,290.000" stroke-width="11.964" stroke="rgb(33,33,33)" fill="none" stroke-linecap="round"></path><path d="M 118.000,290.000 C 130.599,288.500 130.660,288.141 143.000,285.000" stroke-width="10.922" stroke="rgb(33,33,33)" fill="none" stroke-linecap="round"></path><path d="M 143.000,285.000 C 158.160,281.141 158.007,280.522 173.000,276.000" stroke-width="9.870" stroke="rgb(33,33,33)" fill="none" stroke-linecap="round"></path><path d="M 173.000,276.000 C 189.507,271.022 189.467,270.890 206.000,266.000" stroke-width="9.012" stroke="rgb(33,33,33)" fill="none" stroke-linecap="round"></path><path d="M 206.000,266.000 C 224.967,260.390 225.097,260.816 244.000,255.000" stroke-width="8.309" stroke="rgb(33,33,33)" fill="none" stroke-linecap="round"></path><path d="M 244.000,255.000 C 264.097,248.816 263.977,248.427 284.000,242.000" stroke-width="7.471" stroke="rgb(33,33,33)" fill="none" stroke-linecap="round"></path><path d="M 284.000,242.000 C 304.477,235.427 304.430,235.271 325.000,229.000" stroke-width="6.968" stroke="rgb(33,33,33)" fill="none" stroke-linecap="round"></path><path d="M 325.000,229.000 C 345.430,222.771 345.418,222.704 366.000,217.000" stroke-width="6.750" stroke="rgb(33,33,33)" fill="none" stroke-linecap="round"></path><path d="M 366.000,217.000 C 386.918,211.204 386.969,211.380 408.000,206.000" stroke-width="6.750" stroke="rgb(33,33,33)" fill="none" stroke-linecap="round"></path><path d="M 408.000,206.000 C 429.969,200.380 430.016,200.562 452.000,195.000" stroke-width="6.750" stroke="rgb(33,33,33)" fill="none" stroke-linecap="round"></path><path d="M 452.000,195.000 C 471.516,190.062 471.387,189.506 491.000,185.000" stroke-width="6.750" stroke="rgb(33,33,33)" fill="none" stroke-linecap="round"></path><path d="M 491.000,185.000 C 508.387,181.006 508.589,181.898 526.000,178.000" stroke-width="6.750" stroke="rgb(33,33,33)" fill="none" stroke-linecap="round"></path><path d="M 526.000,178.000 C 542.089,174.398 541.941,173.747 558.000,170.000" stroke-width="6.750" stroke="rgb(33,33,33)" fill="none" stroke-linecap="round"></path><path d="M 558.000,170.000 C 571.941,166.747 572.119,167.470 586.000,164.000" stroke-width="6.750" stroke="rgb(33,33,33)" fill="none" stroke-linecap="round"></path><path d="M 586.000,164.000 C 598.119,160.970 597.981,160.434 610.000,157.000" stroke-width="6.792" stroke="rgb(33,33,33)" fill="none" stroke-linecap="round"></path><path d="M 610.000,157.000 C 615.481,155.434 615.507,155.526 621.000,154.000" stroke-width="7.424" stroke="rgb(33,33,33)" fill="none" stroke-linecap="round"></path><path d="M 621.000,154.000 C 624.507,153.026 624.514,153.046 628.000,152.000" stroke-width="8.206" stroke="rgb(33,33,33)" fill="none" stroke-linecap="round"></path><path d="M 251.000,274.000 C 251.500,267.000 250.543,266.799 252.000,260.000" stroke-width="17.518" stroke="rgb(33,33,33)" fill="none" stroke-linecap="round"></path><path d="M 252.000,260.000 C 253.543,252.799 254.514,253.005 257.000,246.000" stroke-width="15.581" stroke="rgb(33,33,33)" fill="none" stroke-linecap="round"></path><path d="M 257.000,246.000 C 260.014,237.505 260.108,237.537 263.000,229.000" stroke-width="14.261" stroke="rgb(33,33,33)" fill="none" stroke-linecap="round"></path><path d="M 263.000,229.000 C 270.608,206.537 270.392,206.463 278.000,184.000" stroke-width="12.473" stroke="rgb(33,33,33)" fill="none" stroke-linecap="round"></path><path d="M 278.000,184.000 C 280.892,175.463 280.656,175.360 284.000,167.000" stroke-width="11.644" stroke="rgb(33,33,33)" fill="none" stroke-linecap="round"></path><path d="M 284.000,167.000 C 286.656,160.360 286.685,160.330 290.000,154.000" stroke-width="11.439" stroke="rgb(33,33,33)" fill="none" stroke-linecap="round"></path><path d="M 290.000,154.000 C 292.185,149.830 292.500,150.000 295.000,146.000" stroke-width="11.724" stroke="rgb(33,33,33)" fill="none" stroke-linecap="round"></path><path d="M 295.000,146.000 C 297.500,142.000 297.528,142.017 300.000,138.000" stroke-width="11.914" stroke="rgb(33,33,33)" fill="none" stroke-linecap="round"></path><path d="M 300.000,138.000 C 301.528,135.517 301.385,135.423 303.000,133.000" stroke-width="12.436" stroke="rgb(33,33,33)" fill="none" stroke-linecap="round"></path><path d="M 303.000,133.000 C 304.385,130.923 304.403,130.916 306.000,129.000" stroke-width="12.968" stroke="rgb(33,33,33)" fill="none" stroke-linecap="round"></path><path d="M 306.000,129.000 C 306.903,127.916 307.000,128.000 308.000,127.000" stroke-width="13.619" stroke="rgb(33,33,33)" fill="none" stroke-linecap="round"></path><path d="M 308.000,127.000 C 308.500,126.500 308.414,126.293 309.000,126.000" stroke-width="14.401" stroke="rgb(33,33,33)" fill="none" stroke-linecap="round"></path><path d="M 309.000,126.000 C 309.414,125.793 309.500,126.000 310.000,126.000" stroke-width="15.149" stroke="rgb(33,33,33)" fill="none" stroke-linecap="round"></path><path d="M 310.000,126.000 C 310.500,126.000 310.586,125.793 311.000,126.000" stroke-width="15.797" stroke="rgb(33,33,33)" fill="none" stroke-linecap="round"></path><path d="M 311.000,126.000 C 311.586,126.293 311.577,126.437 312.000,127.000" stroke-width="16.303" stroke="rgb(33,33,33)" fill="none" stroke-linecap="round"></path><path d="M 312.000,127.000 C 313.077,128.437 312.739,128.739 314.000,130.000" stroke-width="16.347" stroke="rgb(33,33,33)" fill="none" stroke-linecap="round"></path><path d="M 314.000,130.000 C 316.239,132.239 316.397,132.141 319.000,134.000" stroke-width="15.991" stroke="rgb(33,33,33)" fill="none" stroke-linecap="round"></path><path d="M 319.000,134.000 C 323.397,137.141 323.438,137.097 328.000,140.000" stroke-width="15.108" stroke="rgb(33,33,33)" fill="none" stroke-linecap="round"></path><path d="M 328.000,140.000 C 334.438,144.097 334.542,143.934 341.000,148.000" stroke-width="13.841" stroke="rgb(33,33,33)" fill="none" stroke-linecap="round"></path><path d="M 341.000,148.000 C 348.042,152.434 347.867,152.720 355.000,157.000" stroke-width="13.019" stroke="rgb(33,33,33)" fill="none" stroke-linecap="round"></path><path d="M 355.000,157.000 C 362.867,161.720 363.000,161.500 371.000,166.000" stroke-width="12.197" stroke="rgb(33,33,33)" fill="none" stroke-linecap="round"></path><path d="M 371.000,166.000 C 379.000,170.500 378.756,171.003 387.000,175.000" stroke-width="11.521" stroke="rgb(33,33,33)" fill="none" stroke-linecap="round"></path><path d="M 387.000,175.000 C 395.256,179.003 395.567,178.346 404.000,182.000" stroke-width="11.030" stroke="rgb(33,33,33)" fill="none" stroke-linecap="round"></path><path d="M 404.000,182.000 C 410.567,184.846 410.410,185.212 417.000,188.000" stroke-width="11.022" stroke="rgb(33,33,33)" fill="none" stroke-linecap="round"></path><path d="M 417.000,188.000 C 423.410,190.712 423.515,190.462 430.000,193.000" stroke-width="10.982" stroke="rgb(33,33,33)" fill="none" stroke-linecap="round"></path><path d="M 430.000,193.000 C 435.015,194.962 434.903,195.301 440.000,197.000" stroke-width="11.239" stroke="rgb(33,33,33)" fill="none" stroke-linecap="round"></path><path d="M 440.000,197.000 C 443.903,198.301 444.110,197.703 448.000,199.000" stroke-width="11.648" stroke="rgb(33,33,33)" fill="none" stroke-linecap="round"></path><path d="M 254.000,194.000 C 258.000,192.500 258.008,192.521 262.000,191.000" stroke-width="19.253" stroke="rgb(33,33,33)" fill="none" stroke-linecap="round"></path><path d="M 262.000,191.000 C 268.508,188.521 268.603,188.742 275.000,186.000" stroke-width="16.929" stroke="rgb(33,33,33)" fill="none" stroke-linecap="round"></path><path d="M 275.000,186.000 C 282.603,182.742 282.419,182.316 290.000,179.000" stroke-width="15.102" stroke="rgb(33,33,33)" fill="none" stroke-linecap="round"></path><path d="M 290.000,179.000 C 298.419,175.316 298.452,175.379 307.000,172.000" stroke-width="13.600" stroke="rgb(33,33,33)" fill="none" stroke-linecap="round"></path><path d="M 307.000,172.000 C 319.952,166.879 319.852,166.508 333.000,162.000" stroke-width="12.842" stroke="rgb(33,33,33)" fill="none" stroke-linecap="round"></path><path d="M 438.000,63.000 C 438.500,79.000 438.385,79.005 439.000,95.000" stroke-width="18.596" stroke="rgb(33,33,33)" fill="none" stroke-linecap="round"></path><path d="M 439.000,95.000 C 439.385,105.005 439.524,104.999 440.000,115.000" stroke-width="14.682" stroke="rgb(33,33,33)" fill="none" stroke-linecap="round"></path><path d="M 440.000,115.000 C 440.524,125.999 440.464,126.002 441.000,137.000" stroke-width="12.680" stroke="rgb(33,33,33)" fill="none" stroke-linecap="round"></path><path d="M 441.000,137.000 C 441.464,146.502 441.425,146.505 442.000,156.000" stroke-width="11.902" stroke="rgb(33,33,33)" fill="none" stroke-linecap="round"></path><path d="M 442.000,156.000 C 442.425,163.005 441.853,163.119 443.000,170.000" stroke-width="11.661" stroke="rgb(33,33,33)" fill="none" stroke-linecap="round"></path><path d="M 443.000,170.000 C 443.853,175.119 443.712,175.424 446.000,180.000" stroke-width="11.827" stroke="rgb(33,33,33)" fill="none" stroke-linecap="round"></path><path d="M 446.000,180.000 C 447.712,183.424 448.140,183.400 451.000,186.000" stroke-width="12.187" stroke="rgb(33,33,33)" fill="none" stroke-linecap="round"></path><path d="M 451.000,186.000 C 453.640,188.400 453.734,188.600 457.000,190.000" stroke-width="12.546" stroke="rgb(33,33,33)" fill="none" stroke-linecap="round"></path><path d="M 457.000,190.000 C 460.734,191.600 460.925,191.612 465.000,192.000" stroke-width="12.647" stroke="rgb(33,33,33)" fill="none" stroke-linecap="round"></path><path d="M 465.000,192.000 C 471.425,192.612 471.512,192.270 478.000,192.000" stroke-width="12.517" stroke="rgb(33,33,33)" fill="none" stroke-linecap="round"></path><path d="M 478.000,192.000 C 483.512,191.770 483.596,192.039 489.000,191.000" stroke-width="12.258" stroke="rgb(33,33,33)" fill="none" stroke-linecap="round"></path><path d="M 489.000,191.000 C 496.596,189.539 496.733,189.616 504.000,187.000" stroke-width="11.803" stroke="rgb(33,33,33)" fill="none" stroke-linecap="round"></path><path d="M 504.000,187.000 C 509.233,185.116 508.920,184.328 514.000,182.000" stroke-width="11.883" stroke="rgb(33,33,33)" fill="none" stroke-linecap="round"></path><path d="M 514.000,182.000 C 520.920,178.828 521.080,179.172 528.000,176.000" stroke-width="11.804" stroke="rgb(33,33,33)" fill="none" stroke-linecap="round"></path><path d="M 528.000,176.000 C 533.080,173.672 532.907,173.292 538.000,171.000" stroke-width="11.608" stroke="rgb(33,33,33)" fill="none" stroke-linecap="round"></path><path d="M 538.000,171.000 C 542.907,168.792 543.016,169.039 548.000,167.000" stroke-width="11.758" stroke="rgb(33,33,33)" fill="none" stroke-linecap="round"></path><path d="M 548.000,167.000 C 554.016,164.539 553.899,164.218 560.000,162.000" stroke-width="11.700" stroke="rgb(33,33,33)" fill="none" stroke-linecap="round"></path></svg>