<svg xmlns="http://www.w3.org/2000/svg" xmlns:xlink="http://www.w3.org/1999/xlink" viewBox="0 0 800 500"><path d="M 134.500,198.000 C 134.000,198.000 133.740,197.640 133.500,198.000" stroke-width="20.138" stroke="rgb(33,33,33)" fill="none" stroke-linecap="round"></path><path d="M 133.500,198.000 C 132.740,199.140 133.292,199.680 132.500,201.000" stroke-width="16.813" stroke="rgb(33,33,33)" fill="none" stroke-linecap="round"></path><path d="M 132.500,201.000 C 131.792,202.180 131.500,202.000 130.500,203.000" stroke-width="16.946" stroke="rgb(33,33,33)" fill="none" stroke-linecap="round"></path><path d="M 130.500,203.000 C 129.000,204.500 129.000,204.500 127.500,206.000" stroke-width="16.045" stroke="rgb(33,33,33)" fill="none" stroke-linecap="round"></path><path d="M 127.500,206.000 C 126.000,207.500 126.000,207.500 124.500,209.000" stroke-width="15.391" stroke="rgb(33,33,33)" fill="none" stroke-linecap="round"></path><path d="M 124.500,209.000 C 123.000,210.500 123.000,210.500 121.500,212.000" stroke-width="14.740" stroke="rgb(33,33,33)" fill="none" stroke-linecap="round"></path><path d="M 121.500,212.000 C 120.000,213.500 120.000,213.500 118.500,215.000" stroke-width="14.534" stroke="rgb(33,33,33)" fill="none" stroke-linecap="round"></path><path d="M 118.500,215.000 C 117.000,216.500 116.763,216.315 115.500,218.000" stroke-width="14.253" stroke="rgb(33,33,33)" fill="none" stroke-linecap="round"></path><path d="M 115.500,218.000 C 113.763,220.315 114.237,220.685 112.500,223.000" stroke-width="13.661" stroke="rgb(33,33,33)" fill="none" stroke-linecap="round"></path><path d="M 112.500,223.000 C 111.237,224.685 111.000,224.500 109.500,226.000" stroke-width="13.573" stroke="rgb(33,33,33)" fill="none" stroke-linecap="round"></path><path d="M 109.500,226.000 C 107.500,228.000 107.223,227.784 105.500,230.000" stroke-width="13.021" stroke="rgb(33,33,33)" fill="none" stroke-linecap="round"></path><path d="M 105.500,230.000 C 103.723,232.284 104.406,232.855 102.500,235.000" stroke-width="12.868" stroke="rgb(33,33,33)" fill="none" stroke-linecap="round"></path><path d="M 102.500,235.000 C 100.406,237.355 99.750,236.750 97.500,239.000" stroke-width="12.507" stroke="rgb(33,33,33)" fill="none" stroke-linecap="round"></path><path d="M 97.500,239.000 C 95.250,241.250 95.750,241.750 93.500,244.000" stroke-width="12.233" stroke="rgb(33,33,33)" fill="none" stroke-linecap="round"></path><path d="M 93.500,244.000 C 91.250,246.250 90.594,245.645 88.500,248.000" stroke-width="12.023" stroke="rgb(33,33,33)" fill="none" stroke-linecap="round"></path><path d="M 88.500,248.000 C 86.594,250.145 87.237,250.685 85.500,253.000" stroke-width="11.959" stroke="rgb(33,33,33)" fill="none" stroke-linecap="round"></path><path d="M 85.500,253.000 C 84.237,254.685 84.000,254.500 82.500,256.000" stroke-width="12.194" stroke="rgb(33,33,33)" fill="none" stroke-linecap="round"></path><path d="M 82.500,256.000 C 81.000,257.500 81.000,257.500 79.500,259.000" stroke-width="12.126" stroke="rgb(33,33,33)" fill="none" stroke-linecap="round"></path><path d="M 79.500,259.000 C 78.000,260.500 77.851,260.378 76.500,262.000" stroke-width="12.332" stroke="rgb(33,33,33)" fill="none" stroke-linecap="round"></path><path d="M 76.500,262.000 C 75.351,263.378 75.500,263.500 74.500,265.000" stroke-width="12.627" stroke="rgb(33,33,33)" fill="none" stroke-linecap="round"></path><path d="M 74.500,265.000 C 73.500,266.500 73.750,266.750 72.500,268.000" stroke-width="13.022" stroke="rgb(33,33,33)" fill="none" stroke-linecap="round"></path><path d="M 72.500,268.000 C 71.250,269.250 70.878,268.851 69.500,270.000" stroke-width="12.945" stroke="rgb(33,33,33)" fill="none" stroke-linecap="round"></path><path d="M 69.500,270.000 C 67.878,271.351 67.851,271.378 66.500,273.000" stroke-width="13.002" stroke="rgb(33,33,33)" fill="none" stroke-linecap="round"></path><path d="M 66.500,273.000 C 65.351,274.378 65.577,274.563 64.500,276.000" stroke-width="13.182" stroke="rgb(33,33,33)" fill="none" stroke-linecap="round"></path><path d="M 64.500,276.000 C 64.077,276.563 63.793,276.414 63.500,277.000" stroke-width="13.830" stroke="rgb(33,33,33)" fill="none" stroke-linecap="round"></path><path d="M 63.500,277.000 C 63.293,277.414 63.167,277.833 63.500,278.000" stroke-width="14.501" stroke="rgb(33,33,33)" fill="none" stroke-linecap="round"></path><path d="M 63.500,278.000 C 64.167,278.333 64.786,278.571 65.500,278.000" stroke-width="15.302" stroke="rgb(33,33,33)" fill="none" stroke-linecap="round"></path><path d="M 65.500,278.000 C 67.286,276.571 67.115,276.077 68.500,274.000" stroke-width="14.635" stroke="rgb(33,33,33)" fill="none" stroke-linecap="round"></path><path d="M 68.500,274.000 C 70.115,271.577 69.935,271.459 71.500,269.000" stroke-width="13.939" stroke="rgb(33,33,33)" fill="none" stroke-linecap="round"></path><path d="M 71.500,269.000 C 73.435,265.959 73.433,265.953 75.500,263.000" stroke-width="12.913" stroke="rgb(33,33,33)" fill="none" stroke-linecap="round"></path><path d="M 75.500,263.000 C 76.933,260.953 76.939,260.952 78.500,259.000" stroke-width="12.820" stroke="rgb(33,33,33)" fill="none" stroke-linecap="round"></path><path d="M 78.500,259.000 C 80.939,255.952 81.000,256.000 83.500,253.000" stroke-width="12.005" stroke="rgb(33,33,33)" fill="none" stroke-linecap="round"></path><path d="M 83.500,253.000 C 86.000,250.000 86.160,250.120 88.500,247.000" stroke-width="11.607" stroke="rgb(33,33,33)" fill="none" stroke-linecap="round"></path><path d="M 88.500,247.000 C 90.660,244.120 90.448,243.964 92.500,241.000" stroke-width="11.402" stroke="rgb(33,33,33)" fill="none" stroke-linecap="round"></path><path d="M 92.500,241.000 C 94.948,237.464 95.052,237.536 97.500,234.000" stroke-width="11.030" stroke="rgb(33,33,33)" fill="none" stroke-linecap="round"></path><path d="M 97.500,234.000 C 99.552,231.036 99.340,230.880 101.500,228.000" stroke-width="10.952" stroke="rgb(33,33,33)" fill="none" stroke-linecap="round"></path><path d="M 101.500,228.000 C 103.840,224.880 103.752,224.748 106.500,222.000" stroke-width="10.803" stroke="rgb(33,33,33)" fill="none" stroke-linecap="round"></path><path d="M 106.500,222.000 C 108.752,219.748 109.124,220.138 111.500,218.000" stroke-width="10.889" stroke="rgb(33,33,33)" fill="none" stroke-linecap="round"></path><path d="M 111.500,218.000 C 114.124,215.638 114.138,215.624 116.500,213.000" stroke-width="10.861" stroke="rgb(33,33,33)" fill="none" stroke-linecap="round"></path><path d="M 116.500,213.000 C 118.638,210.624 118.250,210.250 120.500,208.000" stroke-width="10.936" stroke="rgb(33,33,33)" fill="none" stroke-linecap="round"></path><path d="M 120.500,208.000 C 122.750,205.750 123.111,206.124 125.500,204.000" stroke-width="10.997" stroke="rgb(33,33,33)" fill="none" stroke-linecap="round"></path><path d="M 125.500,204.000 C 127.611,202.124 127.284,201.723 129.500,200.000" stroke-width="11.160" stroke="rgb(33,33,33)" fill="none" stroke-linecap="round"></path><path d="M 129.500,200.000 C 131.784,198.223 132.185,198.737 134.500,197.000" stroke-width="11.266" stroke="rgb(33,33,33)" fill="none" stroke-linecap="round"></path><path d="M 134.500,197.000 C 136.185,195.737 135.878,195.351 137.500,194.000" stroke-width="11.611" stroke="rgb(33,33,33)" fill="none" stroke-linecap="round"></path><path d="M 137.500,194.000 C 138.878,192.851 138.957,192.926 140.500,192.000" stroke-width="12.015" stroke="rgb(33,33,33)" fill="none" stroke-linecap="round"></path><path d="M 140.500,192.000 C 141.457,191.426 141.464,191.414 142.500,191.000" stroke-width="12.623" stroke="rgb(33,33,33)" fill="none" stroke-linecap="round"></path><path d="M 142.500,191.000 C 143.964,190.414 143.981,190.434 145.500,190.000" stroke-width="12.868" stroke="rgb(33,33,33)" fill="none" stroke-linecap="round"></path><path d="M 145.500,190.000 C 147.481,189.434 147.500,189.500 149.500,189.000" stroke-width="12.964" stroke="rgb(33,33,33)" fill="none" stroke-linecap="round"></path><path d="M 149.500,189.000 C 151.500,188.500 151.519,188.566 153.500,188.000" stroke-width="12.759" stroke="rgb(33,33,33)" fill="none" stroke-linecap="round"></path><path d="M 153.500,188.000 C 155.019,187.566 155.000,187.500 156.500,187.000" stroke-width="13.260" stroke="rgb(33,33,33)" fill="none" stroke-linecap="round"></path><path d="M 156.500,187.000 C 158.000,186.500 158.000,186.500 159.500,186.000" stroke-width="13.493" stroke="rgb(33,33,33)" fill="none" stroke-linecap="round"></path><path d="M 159.500,186.000 C 161.000,185.500 160.981,185.380 162.500,185.000" stroke-width="13.446" stroke="rgb(33,33,33)" fill="none" stroke-linecap="round"></path><path d="M 162.500,185.000 C 162.981,184.880 163.000,185.000 163.500,185.000" stroke-width="14.288" stroke="rgb(33,33,33)" fill="none" stroke-linecap="round"></path><path d="M 163.500,185.000 C 164.000,185.000 164.250,184.750 164.500,185.000" stroke-width="14.902" stroke="rgb(33,33,33)" fill="none" stroke-linecap="round"></path><path d="M 164.500,185.000 C 164.750,185.250 164.293,185.586 164.500,186.000" stroke-width="15.433" stroke="rgb(33,33,33)" fill="none" stroke-linecap="round"></path><path d="M 164.500,186.000 C 164.793,186.586 164.914,186.707 165.500,187.000" stroke-width="15.758" stroke="rgb(33,33,33)" fill="none" stroke-linecap="round"></path><path d="M 165.500,187.000 C 165.914,187.207 166.250,186.750 166.500,187.000" stroke-width="16.161" stroke="rgb(33,33,33)" fill="none" stroke-linecap="round"></path><path d="M 166.500,187.000 C 166.750,187.250 166.345,187.536 166.500,188.000" stroke-width="16.498" stroke="rgb(33,33,33)" fill="none" stroke-linecap="round"></path><path d="M 166.500,188.000 C 166.845,189.036 167.086,188.964 167.500,190.000" stroke-width="16.359" stroke="rgb(33,33,33)" fill="none" stroke-linecap="round"></path><path d="M 167.500,190.000 C 168.086,191.464 167.809,191.618 168.500,193.000" stroke-width="16.466" stroke="rgb(33,33,33)" fill="none" stroke-linecap="round"></path><path d="M 168.500,193.000 C 168.809,193.618 169.113,193.419 169.500,194.000" stroke-width="16.609" stroke="rgb(33,33,33)" fill="none" stroke-linecap="round"></path><path d="M 169.500,194.000 C 170.113,194.919 170.086,194.964 170.500,196.000" stroke-width="16.597" stroke="rgb(33,33,33)" fill="none" stroke-linecap="round"></path><path d="M 170.500,196.000 C 171.086,197.464 171.243,197.460 171.500,199.000" stroke-width="15.802" stroke="rgb(33,33,33)" fill="none" stroke-linecap="round"></path><path d="M 171.500,199.000 C 171.743,200.460 171.500,200.500 171.500,202.000" stroke-width="15.575" stroke="rgb(33,33,33)" fill="none" stroke-linecap="round"></path><path d="M 171.500,202.000 C 171.500,202.500 171.500,202.500 171.500,203.000" stroke-width="16.006" stroke="rgb(33,33,33)" fill="none" stroke-linecap="round"></path><path d="M 171.500,203.000 C 171.500,204.500 171.500,204.500 171.500,206.000" stroke-width="15.433" stroke="rgb(33,33,33)" fill="none" stroke-linecap="round"></path><path d="M 171.500,206.000 C 171.500,207.000 171.694,207.031 171.500,208.000" stroke-width="15.581" stroke="rgb(33,33,33)" fill="none" stroke-linecap="round"></path><path d="M 171.500,208.000 C 171.194,209.531 171.086,209.536 170.500,211.000" stroke-width="15.355" stroke="rgb(33,33,33)" fill="none" stroke-linecap="round"></path><path d="M 170.500,211.000 C 170.086,212.036 170.190,212.137 169.500,213.000" stroke-width="15.447" stroke="rgb(33,33,33)" fill="none" stroke-linecap="round"></path><path d="M 169.500,213.000 C 168.190,214.637 167.851,214.378 166.500,216.000" stroke-width="14.781" stroke="rgb(33,33,33)" fill="none" stroke-linecap="round"></path><path d="M 166.500,216.000 C 165.351,217.378 165.649,217.622 164.500,219.000" stroke-width="14.609" stroke="rgb(33,33,33)" fill="none" stroke-linecap="round"></path><path d="M 164.500,219.000 C 163.149,220.622 163.000,220.500 161.500,222.000" stroke-width="14.432" stroke="rgb(33,33,33)" fill="none" stroke-linecap="round"></path><path d="M 161.500,222.000 C 160.000,223.500 160.219,223.854 158.500,225.000" stroke-width="14.175" stroke="rgb(33,33,33)" fill="none" stroke-linecap="round"></path><path d="M 158.500,225.000 C 157.219,225.854 156.820,225.208 155.500,226.000" stroke-width="14.241" stroke="rgb(33,33,33)" fill="none" stroke-linecap="round"></path><path d="M 155.500,226.000 C 154.320,226.708 154.680,227.292 153.500,228.000" stroke-width="14.379" stroke="rgb(33,33,33)" fill="none" stroke-linecap="round"></path><path d="M 153.500,228.000 C 152.180,228.792 152.019,228.566 150.500,229.000" stroke-width="14.406" stroke="rgb(33,33,33)" fill="none" stroke-linecap="round"></path><path d="M 150.500,229.000 C 148.519,229.566 148.500,229.500 146.500,230.000" stroke-width="14.185" stroke="rgb(33,33,33)" fill="none" stroke-linecap="round"></path><path d="M 146.500,230.000 C 144.500,230.500 144.520,230.596 142.500,231.000" stroke-width="14.012" stroke="rgb(33,33,33)" fill="none" stroke-linecap="round"></path><path d="M 142.500,231.000 C 139.520,231.596 139.492,231.456 136.500,232.000" stroke-width="13.427" stroke="rgb(33,33,33)" fill="none" stroke-linecap="round"></path><path d="M 136.500,232.000 C 133.992,232.456 134.027,232.684 131.500,233.000" stroke-width="13.200" stroke="rgb(33,33,33)" fill="none" stroke-linecap="round"></path><path d="M 131.500,233.000 C 126.027,233.684 125.939,233.141 120.500,234.000" stroke-width="11.888" stroke="rgb(33,33,33)" fill="none" stroke-linecap="round"></path><path d="M 120.500,234.000 C 116.439,234.641 116.551,235.285 112.500,236.000" stroke-width="11.448" stroke="rgb(33,33,33)" fill="none" stroke-linecap="round"></path><path d="M 112.500,236.000 C 108.051,236.785 107.992,236.438 103.500,237.000" stroke-width="10.997" stroke="rgb(33,33,33)" fill="none" stroke-linecap="round"></path><path d="M 103.500,237.000 C 99.992,237.438 100.004,237.533 96.500,238.000" stroke-width="10.946" stroke="rgb(33,33,33)" fill="none" stroke-linecap="round"></path><path d="M 96.500,238.000 C 92.504,238.533 92.470,238.338 88.500,239.000" stroke-width="10.392" stroke="rgb(33,33,33)" fill="none" stroke-linecap="round"></path><path d="M 88.500,239.000 C 86.470,239.338 86.512,239.598 84.500,240.000" stroke-width="10.875" stroke="rgb(33,33,33)" fill="none" stroke-linecap="round"></path><path d="M 84.500,240.000 C 84.012,240.098 84.000,240.000 83.500,240.000" stroke-width="11.810" stroke="rgb(33,33,33)" fill="none" stroke-linecap="round"></path><path d="M 83.500,240.000 C 83.000,240.000 82.500,240.000 82.500,240.000" stroke-width="12.682" stroke="rgb(33,33,33)" fill="none" stroke-linecap="round"></path><path d="M 82.500,240.000 C 82.500,240.000 83.250,239.750 83.500,240.000" stroke-width="13.677" stroke="rgb(33,33,33)" fill="none" stroke-linecap="round"></path><path d="M 83.500,240.000 C 83.750,240.250 83.191,240.691 83.500,241.000" stroke-width="14.584" stroke="rgb(33,33,33)" fill="none" stroke-linecap="round"></path><path d="M 83.500,241.000 C 84.191,241.691 84.464,241.586 85.500,242.000" stroke-width="15.081" stroke="rgb(33,33,33)" fill="none" stroke-linecap="round"></path><path d="M 85.500,242.000 C 86.964,242.586 86.981,242.566 88.500,243.000" stroke-width="15.141" stroke="rgb(33,33,33)" fill="none" stroke-linecap="round"></path><path d="M 88.500,243.000 C 90.481,243.566 90.466,243.774 92.500,244.000" stroke-width="14.749" stroke="rgb(33,33,33)" fill="none" stroke-linecap="round"></path><path d="M 92.500,244.000 C 94.966,244.274 95.015,243.793 97.500,244.000" stroke-width="13.514" stroke="rgb(33,33,33)" fill="none" stroke-linecap="round"></path><path d="M 97.500,244.000 C 101.015,244.293 100.982,244.749 104.500,245.000" stroke-width="13.015" stroke="rgb(33,33,33)" fill="none" stroke-linecap="round"></path><path d="M 104.500,245.000 C 107.982,245.249 108.012,244.782 111.500,245.000" stroke-width="12.502" stroke="rgb(33,33,33)" fill="none" stroke-linecap="round"></path><path d="M 111.500,245.000 C 116.012,245.282 116.008,245.438 120.500,246.000" stroke-width="11.759" stroke="rgb(33,33,33)" fill="none" stroke-linecap="round"></path><path d="M 120.500,246.000 C 124.008,246.438 124.026,246.368 127.500,247.000" stroke-width="11.542" stroke="rgb(33,33,33)" fill="none" stroke-linecap="round"></path><path d="M 127.500,247.000 C 129.526,247.368 129.500,247.500 131.500,248.000" stroke-width="11.865" stroke="rgb(33,33,33)" fill="none" stroke-linecap="round"></path><path d="M 131.500,248.000 C 133.500,248.500 133.519,248.434 135.500,249.000" stroke-width="12.137" stroke="rgb(33,33,33)" fill="none" stroke-linecap="round"></path><path d="M 135.500,249.000 C 137.019,249.434 137.360,249.240 138.500,250.000" stroke-width="12.548" stroke="rgb(33,33,33)" fill="none" stroke-linecap="round"></path><path d="M 138.500,250.000 C 138.860,250.240 138.293,250.586 138.500,251.000" stroke-width="13.357" stroke="rgb(33,33,33)" fill="none" stroke-linecap="round"></path><path d="M 138.500,251.000 C 138.793,251.586 139.000,251.500 139.500,252.000" stroke-width="13.983" stroke="rgb(33,33,33)" fill="none" stroke-linecap="round"></path><path d="M 139.500,252.000 C 140.000,252.500 139.914,252.707 140.500,253.000" stroke-width="14.528" stroke="rgb(33,33,33)" fill="none" stroke-linecap="round"></path><path d="M 140.500,253.000 C 140.914,253.207 141.250,252.750 141.500,253.000" stroke-width="15.111" stroke="rgb(33,33,33)" fill="none" stroke-linecap="round"></path><path d="M 141.500,253.000 C 141.750,253.250 141.500,253.500 141.500,254.000" stroke-width="15.612" stroke="rgb(33,33,33)" fill="none" stroke-linecap="round"></path><path d="M 141.500,254.000 C 141.500,254.500 141.500,254.500 141.500,255.000" stroke-width="16.037" stroke="rgb(33,33,33)" fill="none" stroke-linecap="round"></path><path d="M 141.500,255.000 C 141.500,256.000 141.500,256.000 141.500,257.000" stroke-width="16.395" stroke="rgb(33,33,33)" fill="none" stroke-linecap="round"></path><path d="M 141.500,257.000 C 141.500,258.500 141.786,258.568 141.500,260.000" stroke-width="15.721" stroke="rgb(33,33,33)" fill="none" stroke-linecap="round"></path><path d="M 141.500,260.000 C 141.286,261.068 141.250,261.250 140.500,262.000" stroke-width="15.742" stroke="rgb(33,33,33)" fill="none" stroke-linecap="round"></path><path d="M 140.500,262.000 C 139.750,262.750 139.363,262.310 138.500,263.000" stroke-width="15.759" stroke="rgb(33,33,33)" fill="none" stroke-linecap="round"></path><path d="M 138.500,263.000 C 136.863,264.310 137.204,264.783 135.500,266.000" stroke-width="15.179" stroke="rgb(33,33,33)" fill="none" stroke-linecap="round"></path><path d="M 135.500,266.000 C 133.704,267.283 133.500,267.000 131.500,268.000" stroke-width="14.684" stroke="rgb(33,33,33)" fill="none" stroke-linecap="round"></path><path d="M 131.500,268.000 C 127.500,270.000 127.615,270.267 123.500,272.000" stroke-width="12.991" stroke="rgb(33,33,33)" fill="none" stroke-linecap="round"></path><path d="M 123.500,272.000 C 118.115,274.267 118.050,274.150 112.500,276.000" stroke-width="11.862" stroke="rgb(33,33,33)" fill="none" stroke-linecap="round"></path><path d="M 112.500,276.000 C 106.050,278.150 105.995,277.984 99.500,280.000" stroke-width="10.626" stroke="rgb(33,33,33)" fill="none" stroke-linecap="round"></path><path d="M 99.500,280.000 C 91.495,282.484 91.500,282.500 83.500,285.000" stroke-width="9.446" stroke="rgb(33,33,33)" fill="none" stroke-linecap="round"></path><path d="M 83.500,285.000 C 75.500,287.500 75.450,287.350 67.500,290.000" stroke-width="8.676" stroke="rgb(33,33,33)" fill="none" stroke-linecap="round"></path><path d="M 67.500,290.000 C 60.450,292.350 60.524,292.569 53.500,295.000" stroke-width="8.126" stroke="rgb(33,33,33)" fill="none" stroke-linecap="round"></path><path d="M 53.500,295.000 C 47.524,297.069 47.604,297.408 41.500,299.000" stroke-width="8.183" stroke="rgb(33,33,33)" fill="none" stroke-linecap="round"></path><path d="M 41.500,299.000 C 36.104,300.408 35.994,299.970 30.500,301.000" stroke-width="8.234" stroke="rgb(33,33,33)" fill="none" stroke-linecap="round"></path><path d="M 30.500,301.000 C 27.994,301.470 28.014,301.641 25.500,302.000" stroke-width="8.824" stroke="rgb(33,33,33)" fill="none" stroke-linecap="round"></path><path d="M 25.500,302.000 C 24.514,302.141 24.500,302.000 23.500,302.000" stroke-width="9.708" stroke="rgb(33,33,33)" fill="none" stroke-linecap="round"></path><path d="M 23.500,302.000 C 23.000,302.000 22.750,302.250 22.500,302.000" stroke-width="10.693" stroke="rgb(33,33,33)" fill="none" stroke-linecap="round"></path><path d="M 22.500,302.000 C 22.250,301.750 22.833,301.167 22.500,301.000" stroke-width="11.778" stroke="rgb(33,33,33)" fill="none" stroke-linecap="round"></path><path d="M 22.500,301.000 C 21.833,300.667 21.469,301.194 20.500,301.000" stroke-width="12.458" stroke="rgb(33,33,33)" fill="none" stroke-linecap="round"></path><path d="M 20.500,301.000 C 18.969,300.694 19.019,300.434 17.500,300.000" stroke-width="12.821" stroke="rgb(33,33,33)" fill="none" stroke-linecap="round"></path><path d="M 17.500,300.000 C 15.519,299.434 15.500,299.500 13.500,299.000" stroke-width="12.926" stroke="rgb(33,33,33)" fill="none" stroke-linecap="round"></path><path d="M 13.500,299.000 C 11.500,298.500 11.481,298.566 9.500,298.000" stroke-width="13.011" stroke="rgb(33,33,33)" fill="none" stroke-linecap="round"></path><path d="M 9.500,298.000 C 7.981,297.566 7.964,297.586 6.500,297.000" stroke-width="13.286" stroke="rgb(33,33,33)" fill="none" stroke-linecap="round"></path><path d="M 6.500,297.000 C 5.464,296.586 5.536,296.345 4.500,296.000" stroke-width="13.727" stroke="rgb(33,33,33)" fill="none" stroke-linecap="round"></path><path d="M 4.500,296.000 C 4.036,295.845 3.750,296.250 3.500,296.000" stroke-width="14.411" stroke="rgb(33,33,33)" fill="none" stroke-linecap="round"></path><path d="M 3.500,296.000 C 3.250,295.750 3.500,295.500 3.500,295.000" stroke-width="15.010" stroke="rgb(33,33,33)" fill="none" stroke-linecap="round"></path><path d="M 3.500,295.000 C 3.500,294.500 3.167,294.333 3.500,294.000" stroke-width="15.676" stroke="rgb(33,33,33)" fill="none" stroke-linecap="round"></path><path d="M 3.500,294.000 C 5.167,292.333 5.422,292.386 7.500,291.000" stroke-width="15.626" stroke="rgb(33,33,33)" fill="none" stroke-linecap="round"></path><path d="M 7.500,291.000 C 11.422,288.386 11.371,288.271 15.500,286.000" stroke-width="14.206" stroke="rgb(33,33,33)" fill="none" stroke-linecap="round"></path><path d="M 15.500,286.000 C 21.371,282.771 21.332,282.617 27.500,280.000" stroke-width="11.328" stroke="rgb(33,33,33)" fill="none" stroke-linecap="round"></path><path d="M 27.500,280.000 C 37.832,275.617 38.085,276.210 48.500,272.000" stroke-width="9.239" stroke="rgb(33,33,33)" fill="none" stroke-linecap="round"></path><path d="M 48.500,272.000 C 61.585,266.710 61.381,266.202 74.500,261.000" stroke-width="6.996" stroke="rgb(33,33,33)" fill="none" stroke-linecap="round"></path><path d="M 74.500,261.000 C 90.381,254.702 90.619,255.298 106.500,249.000" stroke-width="6.750" stroke="rgb(33,33,33)" fill="none" stroke-linecap="round"></path><path d="M 106.500,249.000 C 119.619,243.798 119.364,243.152 132.500,238.000" stroke-width="6.750" stroke="rgb(33,33,33)" fill="none" stroke-linecap="round"></path><path d="M 132.500,238.000 C 144.864,233.152 144.855,233.046 157.500,229.000" stroke-width="6.750" stroke="rgb(33,33,33)" fill="none" stroke-linecap="round"></path><path d="M 157.500,229.000 C 169.855,225.046 169.984,225.442 182.500,222.000" stroke-width="6.750" stroke="rgb(33,33,33)" fill="none" stroke-linecap="round"></path><path d="M 182.500,222.000 C 189.984,219.942 190.088,220.281 197.500,218.000" stroke-width="6.750" stroke="rgb(33,33,33)" fill="none" stroke-linecap="round"></path><path d="M 197.500,218.000 C 203.088,216.281 203.048,216.120 208.500,214.000" stroke-width="6.750" stroke="rgb(33,33,33)" fill="none" stroke-linecap="round"></path><path d="M 208.500,214.000 C 212.048,212.620 211.985,212.464 215.500,211.000" stroke-width="6.750" stroke="rgb(33,33,33)" fill="none" stroke-linecap="round"></path><path d="M 215.500,211.000 C 217.985,209.964 218.124,210.188 220.500,209.000" stroke-width="7.134" stroke="rgb(33,33,33)" fill="none" stroke-linecap="round"></path><path d="M 220.500,209.000 C 221.124,208.688 221.000,208.500 221.500,208.000" stroke-width="8.080" stroke="rgb(33,33,33)" fill="none" stroke-linecap="round"></path><path d="M 221.500,208.000 C 222.000,207.500 221.914,207.293 222.500,207.000" stroke-width="9.039" stroke="rgb(33,33,33)" fill="none" stroke-linecap="round"></path><path d="M 222.500,207.000 C 222.914,206.793 223.086,207.207 223.500,207.000" stroke-width="10.139" stroke="rgb(33,33,33)" fill="none" stroke-linecap="round"></path><path d="M 223.500,207.000 C 224.086,206.707 223.914,206.293 224.500,206.000" stroke-width="11.154" stroke="rgb(33,33,33)" fill="none" stroke-linecap="round"></path><path d="M 224.500,206.000 C 224.914,205.793 225.631,205.739 225.500,206.000" stroke-width="12.013" stroke="rgb(33,33,33)" fill="none" stroke-linecap="round"></path><path d="M 225.500,206.000 C 225.131,206.739 224.572,207.081 223.500,208.000" stroke-width="12.984" stroke="rgb(33,33,33)" fill="none" stroke-linecap="round"></path><path d="M 223.500,208.000 C 221.072,210.081 221.027,210.035 218.500,212.000" stroke-width="13.422" stroke="rgb(33,33,33)" fill="none" stroke-linecap="round"></path><path d="M 218.500,212.000 C 216.527,213.535 216.534,213.547 214.500,215.000" stroke-width="13.218" stroke="rgb(33,33,33)" fill="none" stroke-linecap="round"></path><path d="M 214.500,215.000 C 213.034,216.047 213.043,216.074 211.500,217.000" stroke-width="13.360" stroke="rgb(33,33,33)" fill="none" stroke-linecap="round"></path><path d="M 211.500,217.000 C 210.543,217.574 210.536,217.655 209.500,218.000" stroke-width="13.790" stroke="rgb(33,33,33)" fill="none" stroke-linecap="round"></path><path d="M 209.500,218.000 C 209.036,218.155 208.750,217.750 208.500,218.000" stroke-width="14.467" stroke="rgb(33,33,33)" fill="none" stroke-linecap="round"></path><path d="M 208.500,218.000 C 208.250,218.250 208.500,218.500 208.500,219.000" stroke-width="15.058" stroke="rgb(33,33,33)" fill="none" stroke-linecap="round"></path><path d="M 208.500,219.000 C 208.500,219.500 208.707,219.586 208.500,220.000" stroke-width="15.567" stroke="rgb(33,33,33)" fill="none" stroke-linecap="round"></path><path d="M 208.500,220.000 C 208.207,220.586 208.086,220.707 207.500,221.000" stroke-width="15.869" stroke="rgb(33,33,33)" fill="none" stroke-linecap="round"></path><path d="M 207.500,221.000 C 207.086,221.207 207.000,221.000 206.500,221.000" stroke-width="16.254" stroke="rgb(33,33,33)" fill="none" stroke-linecap="round"></path><path d="M 206.500,221.000 C 206.000,221.000 205.750,220.750 205.500,221.000" stroke-width="16.576" stroke="rgb(33,33,33)" fill="none" stroke-linecap="round"></path><path d="M 205.500,221.000 C 205.250,221.250 205.500,221.500 205.500,222.000" stroke-width="16.726" stroke="rgb(33,33,33)" fill="none" stroke-linecap="round"></path><path d="M 205.500,222.000 C 205.500,222.500 205.707,222.586 205.500,223.000" stroke-width="16.966" stroke="rgb(33,33,33)" fill="none" stroke-linecap="round"></path><path d="M 205.500,223.000 C 205.207,223.586 205.086,223.707 204.500,224.000" stroke-width="17.014" stroke="rgb(33,33,33)" fill="none" stroke-linecap="round"></path><path d="M 204.500,224.000 C 204.086,224.207 203.750,223.750 203.500,224.000" stroke-width="17.203" stroke="rgb(33,33,33)" fill="none" stroke-linecap="round"></path><path d="M 203.500,224.000 C 203.250,224.250 203.809,224.691 203.500,225.000" stroke-width="17.356" stroke="rgb(33,33,33)" fill="none" stroke-linecap="round"></path><path d="M 203.500,225.000 C 202.809,225.691 202.266,225.234 201.500,226.000" stroke-width="17.027" stroke="rgb(33,33,33)" fill="none" stroke-linecap="round"></path><path d="M 201.500,226.000 C 200.266,227.234 200.649,227.622 199.500,229.000" stroke-width="16.310" stroke="rgb(33,33,33)" fill="none" stroke-linecap="round"></path><path d="M 199.500,229.000 C 198.149,230.622 198.137,230.690 196.500,232.000" stroke-width="15.585" stroke="rgb(33,33,33)" fill="none" stroke-linecap="round"></path><path d="M 196.500,232.000 C 195.637,232.690 195.383,232.338 194.500,233.000" stroke-width="15.633" stroke="rgb(33,33,33)" fill="none" stroke-linecap="round"></path><path d="M 194.500,233.000 C 193.383,233.838 193.338,233.883 192.500,235.000" stroke-width="15.375" stroke="rgb(33,33,33)" fill="none" stroke-linecap="round"></path><path d="M 192.500,235.000 C 191.838,235.883 192.000,236.000 191.500,237.000" stroke-width="15.537" stroke="rgb(33,33,33)" fill="none" stroke-linecap="round"></path><path d="M 191.500,237.000 C 191.000,238.000 191.113,238.081 190.500,239.000" stroke-width="15.594" stroke="rgb(33,33,33)" fill="none" stroke-linecap="round"></path><path d="M 190.500,239.000 C 190.113,239.581 190.086,239.707 189.500,240.000" stroke-width="15.892" stroke="rgb(33,33,33)" fill="none" stroke-linecap="round"></path><path d="M 189.500,240.000 C 189.086,240.207 188.750,239.750 188.500,240.000" stroke-width="16.273" stroke="rgb(33,33,33)" fill="none" stroke-linecap="round"></path><path d="M 188.500,240.000 C 188.250,240.250 188.500,240.500 188.500,241.000" stroke-width="16.763" stroke="rgb(33,33,33)" fill="none" stroke-linecap="round"></path><path d="M 188.500,241.000 C 188.500,241.500 188.500,241.500 188.500,242.000" stroke-width="17.268" stroke="rgb(33,33,33)" fill="none" stroke-linecap="round"></path><path d="M 188.500,242.000 C 188.500,242.500 188.167,242.833 188.500,243.000" stroke-width="17.730" stroke="rgb(33,33,33)" fill="none" stroke-linecap="round"></path><path d="M 188.500,243.000 C 189.167,243.333 189.621,243.293 190.500,243.000" stroke-width="18.003" stroke="rgb(33,33,33)" fill="none" stroke-linecap="round"></path><path d="M 190.500,243.000 C 191.121,242.793 190.937,242.423 191.500,242.000" stroke-width="17.838" stroke="rgb(33,33,33)" fill="none" stroke-linecap="round"></path><path d="M 191.500,242.000 C 192.937,240.923 193.000,241.000 194.500,240.000" stroke-width="16.899" stroke="rgb(33,33,33)" fill="none" stroke-linecap="round"></path><path d="M 194.500,240.000 C 196.000,239.000 195.938,238.893 197.500,238.000" stroke-width="16.216" stroke="rgb(33,33,33)" fill="none" stroke-linecap="round"></path><path d="M 197.500,238.000 C 199.438,236.893 199.562,237.107 201.500,236.000" stroke-width="15.448" stroke="rgb(33,33,33)" fill="none" stroke-linecap="round"></path><path d="M 201.500,236.000 C 203.062,235.107 203.000,235.000 204.500,234.000" stroke-width="15.125" stroke="rgb(33,33,33)" fill="none" stroke-linecap="round"></path><path d="M 204.500,234.000 C 206.000,233.000 206.122,233.149 207.500,232.000" stroke-width="14.877" stroke="rgb(33,33,33)" fill="none" stroke-linecap="round"></path><path d="M 207.500,232.000 C 209.122,230.649 208.781,230.146 210.500,229.000" stroke-width="14.516" stroke="rgb(33,33,33)" fill="none" stroke-linecap="round"></path><path d="M 210.500,229.000 C 211.781,228.146 212.118,228.691 213.500,228.000" stroke-width="14.038" stroke="rgb(33,33,33)" fill="none" stroke-linecap="round"></path><path d="M 213.500,228.000 C 214.118,227.691 213.914,227.293 214.500,227.000" stroke-width="14.677" stroke="rgb(33,33,33)" fill="none" stroke-linecap="round"></path><path d="M 214.500,227.000 C 214.914,226.793 215.000,227.000 215.500,227.000" stroke-width="15.240" stroke="rgb(33,33,33)" fill="none" stroke-linecap="round"></path><path d="M 215.500,227.000 C 216.000,227.000 216.086,227.207 216.500,227.000" stroke-width="15.621" stroke="rgb(33,33,33)" fill="none" stroke-linecap="round"></path><path d="M 216.500,227.000 C 217.086,226.707 217.207,226.586 217.500,226.000" stroke-width="15.914" stroke="rgb(33,33,33)" fill="none" stroke-linecap="round"></path><path d="M 217.500,226.000 C 217.707,225.586 217.500,225.500 217.500,225.000" stroke-width="16.292" stroke="rgb(33,33,33)" fill="none" stroke-linecap="round"></path><path d="M 217.500,225.000 C 217.500,224.500 217.250,224.250 217.500,224.000" stroke-width="16.607" stroke="rgb(33,33,33)" fill="none" stroke-linecap="round"></path><path d="M 217.500,224.000 C 217.750,223.750 218.086,224.207 218.500,224.000" stroke-width="17.046" stroke="rgb(33,33,33)" fill="none" stroke-linecap="round"></path><path d="M 218.500,224.000 C 219.086,223.707 218.914,223.293 219.500,223.000" stroke-width="17.078" stroke="rgb(33,33,33)" fill="none" stroke-linecap="round"></path><path d="M 219.500,223.000 C 219.914,222.793 220.000,223.000 220.500,223.000" stroke-width="17.255" stroke="rgb(33,33,33)" fill="none" stroke-linecap="round"></path><path d="M 220.500,223.000 C 221.000,223.000 221.000,223.000 221.500,223.000" stroke-width="17.588" stroke="rgb(33,33,33)" fill="none" stroke-linecap="round"></path><path d="M 221.500,223.000 C 222.000,223.000 222.000,223.000 222.500,223.000" stroke-width="17.669" stroke="rgb(33,33,33)" fill="none" stroke-linecap="round"></path><path d="M 222.500,223.000 C 223.000,223.000 223.250,223.250 223.500,223.000" stroke-width="17.942" stroke="rgb(33,33,33)" fill="none" stroke-linecap="round"></path><path d="M 223.500,223.000 C 223.750,222.750 223.500,222.000 223.500,222.000" stroke-width="18.141" stroke="rgb(33,33,33)" fill="none" stroke-linecap="round"></path><path d="M 223.500,222.000 C 223.500,222.000 223.500,222.500 223.500,223.000" stroke-width="18.458" stroke="rgb(33,33,33)" fill="none" stroke-linecap="round"></path><path d="M 223.500,223.000 C 223.500,223.500 223.809,223.691 223.500,224.000" stroke-width="18.626" stroke="rgb(33,33,33)" fill="none" stroke-linecap="round"></path><path d="M 223.500,224.000 C 222.809,224.691 222.250,224.250 221.500,225.000" stroke-width="17.990" stroke="rgb(33,33,33)" fill="none" stroke-linecap="round"></path><path d="M 221.500,225.000 C 220.750,225.750 221.266,226.234 220.500,227.000" stroke-width="17.511" stroke="rgb(33,33,33)" fill="none" stroke-linecap="round"></path><path d="M 220.500,227.000 C 219.266,228.234 218.674,227.826 217.500,229.000" stroke-width="16.663" stroke="rgb(33,33,33)" fill="none" stroke-linecap="round"></path><path d="M 217.500,229.000 C 217.174,229.326 217.750,229.750 217.500,230.000" stroke-width="16.864" stroke="rgb(33,33,33)" fill="none" stroke-linecap="round"></path><path d="M 217.500,230.000 C 217.250,230.250 216.914,229.793 216.500,230.000" stroke-width="17.120" stroke="rgb(33,33,33)" fill="none" stroke-linecap="round"></path><path d="M 216.500,230.000 C 215.914,230.293 215.793,230.414 215.500,231.000" stroke-width="17.137" stroke="rgb(33,33,33)" fill="none" stroke-linecap="round"></path><path d="M 215.500,231.000 C 215.293,231.414 215.500,231.500 215.500,232.000" stroke-width="17.553" stroke="rgb(33,33,33)" fill="none" stroke-linecap="round"></path><path d="M 215.500,232.000 C 215.500,232.500 215.500,232.500 215.500,233.000" stroke-width="17.949" stroke="rgb(33,33,33)" fill="none" stroke-linecap="round"></path><path d="M 215.500,233.000 C 215.500,233.500 215.293,233.586 215.500,234.000" stroke-width="18.284" stroke="rgb(33,33,33)" fill="none" stroke-linecap="round"></path><path d="M 215.500,234.000 C 215.793,234.586 216.000,234.500 216.500,235.000" stroke-width="18.058" stroke="rgb(33,33,33)" fill="none" stroke-linecap="round"></path><path d="M 216.500,235.000 C 217.000,235.500 216.847,235.869 217.500,236.000" stroke-width="17.881" stroke="rgb(33,33,33)" fill="none" stroke-linecap="round"></path><path d="M 217.500,236.000 C 219.347,236.369 219.500,236.000 221.500,236.000" stroke-width="16.791" stroke="rgb(33,33,33)" fill="none" stroke-linecap="round"></path><path d="M 221.500,236.000 C 223.500,236.000 223.516,236.198 225.500,236.000" stroke-width="16.011" stroke="rgb(33,33,33)" fill="none" stroke-linecap="round"></path><path d="M 225.500,236.000 C 228.516,235.698 228.486,235.402 231.500,235.000" stroke-width="14.847" stroke="rgb(33,33,33)" fill="none" stroke-linecap="round"></path><path d="M 231.500,235.000 C 235.986,234.402 236.138,235.090 240.500,234.000" stroke-width="13.344" stroke="rgb(33,33,33)" fill="none" stroke-linecap="round"></path><path d="M 240.500,234.000 C 246.138,232.590 245.973,231.922 251.500,230.000" stroke-width="11.582" stroke="rgb(33,33,33)" fill="none" stroke-linecap="round"></path><path d="M 251.500,230.000 C 257.473,227.922 257.477,227.927 263.500,226.000" stroke-width="10.936" stroke="rgb(33,33,33)" fill="none" stroke-linecap="round"></path><path d="M 263.500,226.000 C 269.977,223.927 270.082,224.232 276.500,222.000" stroke-width="9.783" stroke="rgb(33,33,33)" fill="none" stroke-linecap="round"></path><path d="M 276.500,222.000 C 281.582,220.232 281.418,219.768 286.500,218.000" stroke-width="9.142" stroke="rgb(33,33,33)" fill="none" stroke-linecap="round"></path><path d="M 286.500,218.000 C 292.918,215.768 293.120,216.320 299.500,214.000" stroke-width="8.759" stroke="rgb(33,33,33)" fill="none" stroke-linecap="round"></path><path d="M 299.500,214.000 C 304.120,212.320 303.843,211.455 308.500,210.000" stroke-width="9.014" stroke="rgb(33,33,33)" fill="none" stroke-linecap="round"></path><path d="M 308.500,210.000 C 311.843,208.955 312.045,209.691 315.500,209.000" stroke-width="9.314" stroke="rgb(33,33,33)" fill="none" stroke-linecap="round"></path><path d="M 315.500,209.000 C 317.045,208.691 317.118,208.691 318.500,208.000" stroke-width="9.904" stroke="rgb(33,33,33)" fill="none" stroke-linecap="round"></path><path d="M 318.500,208.000 C 319.118,207.691 319.207,207.586 319.500,207.000" stroke-width="10.823" stroke="rgb(33,33,33)" fill="none" stroke-linecap="round"></path><path d="M 319.500,207.000 C 319.707,206.586 319.655,205.845 319.500,206.000" stroke-width="11.846" stroke="rgb(33,33,33)" fill="none" stroke-linecap="round"></path><path d="M 319.500,206.000 C 319.155,206.345 319.113,207.081 318.500,208.000" stroke-width="12.842" stroke="rgb(33,33,33)" fill="none" stroke-linecap="round"></path><path d="M 318.500,208.000 C 318.113,208.581 317.793,208.414 317.500,209.000" stroke-width="13.529" stroke="rgb(33,33,33)" fill="none" stroke-linecap="round"></path><path d="M 317.500,209.000 C 317.293,209.414 317.655,209.536 317.500,210.000" stroke-width="14.236" stroke="rgb(33,33,33)" fill="none" stroke-linecap="round"></path><path d="M 317.500,210.000 C 317.155,211.036 317.191,211.309 316.500,212.000" stroke-width="14.528" stroke="rgb(33,33,33)" fill="none" stroke-linecap="round"></path><path d="M 316.500,212.000 C 316.191,212.309 315.914,211.793 315.500,212.000" stroke-width="15.111" stroke="rgb(33,33,33)" fill="none" stroke-linecap="round"></path><path d="M 315.500,212.000 C 314.914,212.293 314.793,212.414 314.500,213.000" stroke-width="15.488" stroke="rgb(33,33,33)" fill="none" stroke-linecap="round"></path><path d="M 314.500,213.000 C 314.293,213.414 314.809,213.691 314.500,214.000" stroke-width="15.933" stroke="rgb(33,33,33)" fill="none" stroke-linecap="round"></path><path d="M 314.500,214.000 C 313.809,214.691 313.457,214.426 312.500,215.000" stroke-width="15.682" stroke="rgb(33,33,33)" fill="none" stroke-linecap="round"></path><path d="M 312.500,215.000 C 310.957,215.926 310.878,215.851 309.500,217.000" stroke-width="15.304" stroke="rgb(33,33,33)" fill="none" stroke-linecap="round"></path><path d="M 309.500,217.000 C 307.878,218.351 308.000,218.500 306.500,220.000" stroke-width="14.840" stroke="rgb(33,33,33)" fill="none" stroke-linecap="round"></path><path d="M 306.500,220.000 C 305.000,221.500 305.000,221.500 303.500,223.000" stroke-width="14.488" stroke="rgb(33,33,33)" fill="none" stroke-linecap="round"></path><path d="M 303.500,223.000 C 301.500,225.000 301.611,225.124 299.500,227.000" stroke-width="13.873" stroke="rgb(33,33,33)" fill="none" stroke-linecap="round"></path><path d="M 299.500,227.000 C 297.111,229.124 296.889,228.876 294.500,231.000" stroke-width="13.255" stroke="rgb(33,33,33)" fill="none" stroke-linecap="round"></path><path d="M 294.500,231.000 C 292.389,232.876 292.500,233.000 290.500,235.000" stroke-width="12.951" stroke="rgb(33,33,33)" fill="none" stroke-linecap="round"></path><path d="M 290.500,235.000 C 289.000,236.500 289.185,236.737 287.500,238.000" stroke-width="13.006" stroke="rgb(33,33,33)" fill="none" stroke-linecap="round"></path><path d="M 287.500,238.000 C 285.185,239.737 284.857,239.317 282.500,241.000" stroke-width="12.725" stroke="rgb(33,33,33)" fill="none" stroke-linecap="round"></path><path d="M 282.500,241.000 C 281.357,241.817 281.500,242.000 280.500,243.000" stroke-width="13.117" stroke="rgb(33,33,33)" fill="none" stroke-linecap="round"></path><path d="M 280.500,243.000 C 280.000,243.500 279.500,244.000 279.500,244.000" stroke-width="13.939" stroke="rgb(33,33,33)" fill="none" stroke-linecap="round"></path><path d="M 279.500,244.000 C 279.500,244.000 280.000,243.500 280.500,243.000" stroke-width="14.830" stroke="rgb(33,33,33)" fill="none" stroke-linecap="round"></path><path d="M 280.500,243.000 C 281.000,242.500 281.000,242.500 281.500,242.000" stroke-width="15.252" stroke="rgb(33,33,33)" fill="none" stroke-linecap="round"></path><path d="M 281.500,242.000 C 282.000,241.500 281.879,241.207 282.500,241.000" stroke-width="15.607" stroke="rgb(33,33,33)" fill="none" stroke-linecap="round"></path><path d="M 282.500,241.000 C 283.379,240.707 283.500,241.000 284.500,241.000" stroke-width="16.033" stroke="rgb(33,33,33)" fill="none" stroke-linecap="round"></path><path d="M 284.500,241.000 C 285.500,241.000 285.500,241.000 286.500,241.000" stroke-width="16.066" stroke="rgb(33,33,33)" fill="none" stroke-linecap="round"></path><path d="M 286.500,241.000 C 287.000,241.000 287.019,241.120 287.500,241.000" stroke-width="16.419" stroke="rgb(33,33,33)" fill="none" stroke-linecap="round"></path><path d="M 287.500,241.000 C 289.019,240.620 288.960,240.257 290.500,240.000" stroke-width="15.999" stroke="rgb(33,33,33)" fill="none" stroke-linecap="round"></path><path d="M 290.500,240.000 C 291.960,239.757 292.000,240.000 293.500,240.000" stroke-width="15.727" stroke="rgb(33,33,33)" fill="none" stroke-linecap="round"></path><path d="M 293.500,240.000 C 294.500,240.000 294.500,240.000 295.500,240.000" stroke-width="15.820" stroke="rgb(33,33,33)" fill="none" stroke-linecap="round"></path><path d="M 295.500,240.000 C 297.000,240.000 297.000,240.000 298.500,240.000" stroke-width="15.588" stroke="rgb(33,33,33)" fill="none" stroke-linecap="round"></path><path d="M 298.500,240.000 C 300.000,240.000 300.040,240.243 301.500,240.000" stroke-width="15.408" stroke="rgb(33,33,33)" fill="none" stroke-linecap="round"></path><path d="M 301.500,240.000 C 303.040,239.743 302.969,239.306 304.500,239.000" stroke-width="15.220" stroke="rgb(33,33,33)" fill="none" stroke-linecap="round"></path><path d="M 304.500,239.000 C 305.469,238.806 305.500,239.000 306.500,239.000" stroke-width="15.407" stroke="rgb(33,33,33)" fill="none" stroke-linecap="round"></path><path d="M 306.500,239.000 C 307.000,239.000 307.000,239.000 307.500,239.000" stroke-width="15.864" stroke="rgb(33,33,33)" fill="none" stroke-linecap="round"></path><path d="M 307.500,239.000 C 308.000,239.000 308.250,239.250 308.500,239.000" stroke-width="16.142" stroke="rgb(33,33,33)" fill="none" stroke-linecap="round"></path><path d="M 308.500,239.000 C 308.750,238.750 308.500,238.500 308.500,238.000" stroke-width="16.782" stroke="rgb(33,33,33)" fill="none" stroke-linecap="round"></path><path d="M 308.500,238.000 C 308.500,237.500 308.750,237.250 308.500,237.000" stroke-width="17.243" stroke="rgb(33,33,33)" fill="none" stroke-linecap="round"></path><path d="M 308.500,237.000 C 308.250,236.750 308.000,237.000 307.500,237.000" stroke-width="17.578" stroke="rgb(33,33,33)" fill="none" stroke-linecap="round"></path><path d="M 307.500,237.000 C 306.500,237.000 306.500,237.000 305.500,237.000" stroke-width="17.284" stroke="rgb(33,33,33)" fill="none" stroke-linecap="round"></path><path d="M 305.500,237.000 C 304.000,237.000 304.000,237.000 302.500,237.000" stroke-width="16.704" stroke="rgb(33,33,33)" fill="none" stroke-linecap="round"></path><path d="M 302.500,237.000 C 300.500,237.000 300.487,236.819 298.500,237.000" stroke-width="15.947" stroke="rgb(33,33,33)" fill="none" stroke-linecap="round"></path><path d="M 298.500,237.000 C 294.987,237.319 295.000,237.500 291.500,238.000" stroke-width="14.541" stroke="rgb(33,33,33)" fill="none" stroke-linecap="round"></path><path d="M 291.500,238.000 C 288.000,238.500 288.000,238.500 284.500,239.000" stroke-width="13.582" stroke="rgb(33,33,33)" fill="none" stroke-linecap="round"></path><path d="M 284.500,239.000 C 281.000,239.500 281.000,239.500 277.500,240.000" stroke-width="12.902" stroke="rgb(33,33,33)" fill="none" stroke-linecap="round"></path><path d="M 277.500,240.000 C 274.000,240.500 273.962,240.308 270.500,241.000" stroke-width="11.973" stroke="rgb(33,33,33)" fill="none" stroke-linecap="round"></path><path d="M 270.500,241.000 C 266.462,241.808 266.483,241.938 262.500,243.000" stroke-width="11.511" stroke="rgb(33,33,33)" fill="none" stroke-linecap="round"></path><path d="M 262.500,243.000 C 258.983,243.938 259.051,244.239 255.500,245.000" stroke-width="11.317" stroke="rgb(33,33,33)" fill="none" stroke-linecap="round"></path><path d="M 255.500,245.000 C 252.051,245.739 252.000,245.500 248.500,246.000" stroke-width="11.199" stroke="rgb(33,33,33)" fill="none" stroke-linecap="round"></path><path d="M 248.500,246.000 C 245.000,246.500 244.836,245.974 241.500,247.000" stroke-width="11.106" stroke="rgb(33,33,33)" fill="none" stroke-linecap="round"></path><path d="M 241.500,247.000 C 238.336,247.974 238.664,249.026 235.500,250.000" stroke-width="11.087" stroke="rgb(33,33,33)" fill="none" stroke-linecap="round"></path><path d="M 235.500,250.000 C 232.164,251.026 231.962,250.308 228.500,251.000" stroke-width="11.018" stroke="rgb(33,33,33)" fill="none" stroke-linecap="round"></path><path d="M 228.500,251.000 C 224.462,251.808 224.235,251.444 220.500,253.000" stroke-width="10.791" stroke="rgb(33,33,33)" fill="none" stroke-linecap="round"></path><path d="M 220.500,253.000 C 218.235,253.944 218.692,254.904 216.500,256.000" stroke-width="11.089" stroke="rgb(33,33,33)" fill="none" stroke-linecap="round"></path><path d="M 216.500,256.000 C 214.692,256.904 214.520,256.663 212.500,257.000" stroke-width="11.479" stroke="rgb(33,33,33)" fill="none" stroke-linecap="round"></path><path d="M 212.500,257.000 C 211.520,257.163 211.167,256.667 210.500,257.000" stroke-width="12.190" stroke="rgb(33,33,33)" fill="none" stroke-linecap="round"></path><path d="M 210.500,257.000 C 210.167,257.167 210.500,257.500 210.500,258.000" stroke-width="13.031" stroke="rgb(33,33,33)" fill="none" stroke-linecap="round"></path><path d="M 210.500,258.000 C 210.500,258.500 210.500,258.500 210.500,259.000" stroke-width="13.911" stroke="rgb(33,33,33)" fill="none" stroke-linecap="round"></path><path d="M 210.500,259.000 C 210.500,259.500 210.500,259.500 210.500,260.000" stroke-width="14.573" stroke="rgb(33,33,33)" fill="none" stroke-linecap="round"></path><path d="M 210.500,260.000 C 210.500,260.500 210.500,260.500 210.500,261.000" stroke-width="15.341" stroke="rgb(33,33,33)" fill="none" stroke-linecap="round"></path><path d="M 210.500,261.000 C 210.500,261.500 210.500,261.500 210.500,262.000" stroke-width="15.942" stroke="rgb(33,33,33)" fill="none" stroke-linecap="round"></path><path d="M 210.500,262.000 C 210.500,262.500 210.293,262.586 210.500,263.000" stroke-width="16.481" stroke="rgb(33,33,33)" fill="none" stroke-linecap="round"></path><path d="M 210.500,263.000 C 210.793,263.586 210.919,263.613 211.500,264.000" stroke-width="16.621" stroke="rgb(33,33,33)" fill="none" stroke-linecap="round"></path><path d="M 211.500,264.000 C 212.419,264.613 212.500,264.500 213.500,265.000" stroke-width="16.456" stroke="rgb(33,33,33)" fill="none" stroke-linecap="round"></path><path d="M 213.500,265.000 C 214.500,265.500 214.464,265.586 215.500,266.000" stroke-width="16.326" stroke="rgb(33,33,33)" fill="none" stroke-linecap="round"></path><path d="M 215.500,266.000 C 216.964,266.586 216.981,266.566 218.500,267.000" stroke-width="15.928" stroke="rgb(33,33,33)" fill="none" stroke-linecap="round"></path><path d="M 218.500,267.000 C 220.481,267.566 220.466,267.774 222.500,268.000" stroke-width="15.339" stroke="rgb(33,33,33)" fill="none" stroke-linecap="round"></path><path d="M 222.500,268.000 C 224.966,268.274 225.000,268.000 227.500,268.000" stroke-width="14.662" stroke="rgb(33,33,33)" fill="none" stroke-linecap="round"></path><path d="M 227.500,268.000 C 231.000,268.000 231.000,268.000 234.500,268.000" stroke-width="13.683" stroke="rgb(33,33,33)" fill="none" stroke-linecap="round"></path><path d="M 234.500,268.000 C 238.000,268.000 238.009,268.194 241.500,268.000" stroke-width="12.990" stroke="rgb(33,33,33)" fill="none" stroke-linecap="round"></path><path d="M 241.500,268.000 C 247.009,267.694 247.027,267.714 252.500,267.000" stroke-width="11.751" stroke="rgb(33,33,33)" fill="none" stroke-linecap="round"></path><path d="M 252.500,267.000 C 258.527,266.214 258.612,266.472 264.500,265.000" stroke-width="10.756" stroke="rgb(33,33,33)" fill="none" stroke-linecap="round"></path><path d="M 264.500,265.000 C 272.612,262.972 272.524,262.573 280.500,260.000" stroke-width="9.528" stroke="rgb(33,33,33)" fill="none" stroke-linecap="round"></path><path d="M 280.500,260.000 C 288.024,257.573 287.976,257.427 295.500,255.000" stroke-width="8.822" stroke="rgb(33,33,33)" fill="none" stroke-linecap="round"></path><path d="M 295.500,255.000 C 303.476,252.427 303.526,252.580 311.500,250.000" stroke-width="8.247" stroke="rgb(33,33,33)" fill="none" stroke-linecap="round"></path><path d="M 311.500,250.000 C 320.526,247.080 320.343,246.410 329.500,244.000" stroke-width="7.674" stroke="rgb(33,33,33)" fill="none" stroke-linecap="round"></path><path d="M 329.500,244.000 C 339.343,241.410 339.601,242.408 349.500,240.000" stroke-width="7.179" stroke="rgb(33,33,33)" fill="none" stroke-linecap="round"></path><path d="M 349.500,240.000 C 358.101,237.908 358.014,237.546 366.500,235.000" stroke-width="6.750" stroke="rgb(33,33,33)" fill="none" stroke-linecap="round"></path><path d="M 366.500,235.000 C 373.014,233.046 372.921,232.645 379.500,231.000" stroke-width="6.800" stroke="rgb(33,33,33)" fill="none" stroke-linecap="round"></path><path d="M 379.500,231.000 C 382.921,230.145 383.026,230.632 386.500,230.000" stroke-width="7.339" stroke="rgb(33,33,33)" fill="none" stroke-linecap="round"></path><path d="M 386.500,230.000 C 388.526,229.632 388.519,229.566 390.500,229.000" stroke-width="8.067" stroke="rgb(33,33,33)" fill="none" stroke-linecap="round"></path><path d="M 390.500,229.000 C 392.019,228.566 392.360,228.760 393.500,228.000" stroke-width="8.853" stroke="rgb(33,33,33)" fill="none" stroke-linecap="round"></path><path d="M 393.500,228.000 C 393.860,227.760 393.500,227.000 393.500,227.000" stroke-width="9.915" stroke="rgb(33,33,33)" fill="none" stroke-linecap="round"></path><path d="M 393.500,227.000 C 393.500,227.000 393.500,227.500 393.500,228.000" stroke-width="11.025" stroke="rgb(33,33,33)" fill="none" stroke-linecap="round"></path><path d="M 393.500,228.000 C 393.500,228.500 393.707,228.586 393.500,229.000" stroke-width="12.040" stroke="rgb(33,33,33)" fill="none" stroke-linecap="round"></path><path d="M 393.500,229.000 C 393.207,229.586 392.887,229.419 392.500,230.000" stroke-width="12.955" stroke="rgb(33,33,33)" fill="none" stroke-linecap="round"></path><path d="M 392.500,230.000 C 391.887,230.919 392.113,231.081 391.500,232.000" stroke-width="13.442" stroke="rgb(33,33,33)" fill="none" stroke-linecap="round"></path><path d="M 391.500,232.000 C 391.113,232.581 391.000,232.500 390.500,233.000" stroke-width="13.944" stroke="rgb(33,33,33)" fill="none" stroke-linecap="round"></path><path d="M 390.500,233.000 C 389.000,234.500 389.257,235.121 387.500,236.000" stroke-width="13.795" stroke="rgb(33,33,33)" fill="none" stroke-linecap="round"></path><path d="M 387.500,236.000 C 386.257,236.621 385.743,235.379 384.500,236.000" stroke-width="13.972" stroke="rgb(33,33,33)" fill="none" stroke-linecap="round"></path><path d="M 384.500,236.000 C 382.743,236.879 383.122,237.649 381.500,239.000" stroke-width="13.818" stroke="rgb(33,33,33)" fill="none" stroke-linecap="round"></path><path d="M 381.500,239.000 C 380.122,240.149 380.000,240.000 378.500,241.000" stroke-width="13.846" stroke="rgb(33,33,33)" fill="none" stroke-linecap="round"></path><path d="M 378.500,241.000 C 377.000,242.000 376.901,241.879 375.500,243.000" stroke-width="13.868" stroke="rgb(33,33,33)" fill="none" stroke-linecap="round"></path><path d="M 375.500,243.000 C 374.401,243.879 374.239,243.892 373.500,245.000" stroke-width="14.074" stroke="rgb(33,33,33)" fill="none" stroke-linecap="round"></path><path d="M 373.500,245.000 C 373.239,245.392 373.500,246.000 373.500,246.000" stroke-width="14.716" stroke="rgb(33,33,33)" fill="none" stroke-linecap="round"></path><path d="M 373.500,246.000 C 373.500,246.000 373.500,245.500 373.500,245.000" stroke-width="15.541" stroke="rgb(33,33,33)" fill="none" stroke-linecap="round"></path><path d="M 373.500,245.000 C 373.500,244.000 373.306,243.969 373.500,243.000" stroke-width="15.736" stroke="rgb(33,33,33)" fill="none" stroke-linecap="round"></path><path d="M 373.500,243.000 C 373.806,241.469 373.809,241.382 374.500,240.000" stroke-width="15.475" stroke="rgb(33,33,33)" fill="none" stroke-linecap="round"></path><path d="M 374.500,240.000 C 374.809,239.382 374.914,239.293 375.500,239.000" stroke-width="15.793" stroke="rgb(33,33,33)" fill="none" stroke-linecap="round"></path><path d="M 375.500,239.000 C 375.914,238.793 376.250,239.250 376.500,239.000" stroke-width="16.190" stroke="rgb(33,33,33)" fill="none" stroke-linecap="round"></path><path d="M 376.500,239.000 C 376.750,238.750 376.345,238.464 376.500,238.000" stroke-width="16.522" stroke="rgb(33,33,33)" fill="none" stroke-linecap="round"></path><path d="M 376.500,238.000 C 376.845,236.964 376.809,236.691 377.500,236.000" stroke-width="16.378" stroke="rgb(33,33,33)" fill="none" stroke-linecap="round"></path><path d="M 377.500,236.000 C 377.809,235.691 378.086,236.207 378.500,236.000" stroke-width="16.679" stroke="rgb(33,33,33)" fill="none" stroke-linecap="round"></path><path d="M 378.500,236.000 C 379.086,235.707 379.207,235.586 379.500,235.000" stroke-width="16.712" stroke="rgb(33,33,33)" fill="none" stroke-linecap="round"></path><path d="M 379.500,235.000 C 379.707,234.586 379.500,234.500 379.500,234.000" stroke-width="16.994" stroke="rgb(33,33,33)" fill="none" stroke-linecap="round"></path><path d="M 379.500,234.000 C 379.500,233.500 379.500,233.000 379.500,233.000" stroke-width="17.433" stroke="rgb(33,33,33)" fill="none" stroke-linecap="round"></path><path d="M 379.500,233.000 C 379.500,233.000 379.500,233.500 379.500,234.000" stroke-width="17.833" stroke="rgb(33,33,33)" fill="none" stroke-linecap="round"></path><path d="M 379.500,234.000 C 379.500,234.500 379.500,234.500 379.500,235.000" stroke-width="17.866" stroke="rgb(33,33,33)" fill="none" stroke-linecap="round"></path><path d="M 379.500,235.000 C 379.500,236.000 379.694,236.031 379.500,237.000" stroke-width="17.258" stroke="rgb(33,33,33)" fill="none" stroke-linecap="round"></path><path d="M 379.500,237.000 C 379.194,238.531 379.000,238.500 378.500,240.000" stroke-width="16.629" stroke="rgb(33,33,33)" fill="none" stroke-linecap="round"></path><path d="M 378.500,240.000 C 378.000,241.500 378.191,241.618 377.500,243.000" stroke-width="16.158" stroke="rgb(33,33,33)" fill="none" stroke-linecap="round"></path><path d="M 377.500,243.000 C 377.191,243.618 376.707,243.379 376.500,244.000" stroke-width="16.357" stroke="rgb(33,33,33)" fill="none" stroke-linecap="round"></path><path d="M 376.500,244.000 C 376.207,244.879 376.793,245.121 376.500,246.000" stroke-width="16.326" stroke="rgb(33,33,33)" fill="none" stroke-linecap="round"></path><path d="M 376.500,246.000 C 376.293,246.621 375.793,246.414 375.500,247.000" stroke-width="16.495" stroke="rgb(33,33,33)" fill="none" stroke-linecap="round"></path><path d="M 375.500,247.000 C 375.293,247.414 375.250,247.750 375.500,248.000" stroke-width="16.775" stroke="rgb(33,33,33)" fill="none" stroke-linecap="round"></path><path d="M 375.500,248.000 C 375.750,248.250 376.083,248.250 376.500,248.000" stroke-width="17.318" stroke="rgb(33,33,33)" fill="none" stroke-linecap="round"></path><path d="M 376.500,248.000 C 378.583,246.750 378.423,246.385 380.500,245.000" stroke-width="16.066" stroke="rgb(33,33,33)" fill="none" stroke-linecap="round"></path><path d="M 380.500,245.000 C 382.923,243.385 382.935,243.381 385.500,242.000" stroke-width="14.954" stroke="rgb(33,33,33)" fill="none" stroke-linecap="round"></path><path d="M 385.500,242.000 C 389.435,239.881 389.500,240.000 393.500,238.000" stroke-width="13.664" stroke="rgb(33,33,33)" fill="none" stroke-linecap="round"></path><path d="M 393.500,238.000 C 397.500,236.000 397.449,235.890 401.500,234.000" stroke-width="11.615" stroke="rgb(33,33,33)" fill="none" stroke-linecap="round"></path><path d="M 401.500,234.000 C 404.949,232.390 404.886,232.112 408.500,231.000" stroke-width="11.344" stroke="rgb(33,33,33)" fill="none" stroke-linecap="round"></path><path d="M 408.500,231.000 C 411.386,230.112 411.539,230.658 414.500,230.000" stroke-width="11.375" stroke="rgb(33,33,33)" fill="none" stroke-linecap="round"></path><path d="M 414.500,230.000 C 416.039,229.658 416.000,229.500 417.500,229.000" stroke-width="11.889" stroke="rgb(33,33,33)" fill="none" stroke-linecap="round"></path><path d="M 417.500,229.000 C 419.000,228.500 418.981,228.434 420.500,228.000" stroke-width="12.335" stroke="rgb(33,33,33)" fill="none" stroke-linecap="round"></path><path d="M 420.500,228.000 C 422.481,227.434 422.581,227.720 424.500,227.000" stroke-width="12.528" stroke="rgb(33,33,33)" fill="none" stroke-linecap="round"></path><path d="M 424.500,227.000 C 426.581,226.220 426.458,225.907 428.500,225.000" stroke-width="12.618" stroke="rgb(33,33,33)" fill="none" stroke-linecap="round"></path><path d="M 428.500,225.000 C 430.958,223.907 431.042,224.093 433.500,223.000" stroke-width="12.511" stroke="rgb(33,33,33)" fill="none" stroke-linecap="round"></path><path d="M 433.500,223.000 C 435.542,222.093 435.611,222.180 437.500,221.000" stroke-width="12.604" stroke="rgb(33,33,33)" fill="none" stroke-linecap="round"></path><path d="M 437.500,221.000 C 439.611,219.680 439.527,219.535 441.500,218.000" stroke-width="12.437" stroke="rgb(33,33,33)" fill="none" stroke-linecap="round"></path><path d="M 441.500,218.000 C 444.027,216.035 443.973,215.965 446.500,214.000" stroke-width="12.311" stroke="rgb(33,33,33)" fill="none" stroke-linecap="round"></path><path d="M 446.500,214.000 C 448.473,212.465 448.423,212.385 450.500,211.000" stroke-width="12.341" stroke="rgb(33,33,33)" fill="none" stroke-linecap="round"></path><path d="M 450.500,211.000 C 452.923,209.385 453.028,209.545 455.500,208.000" stroke-width="12.210" stroke="rgb(33,33,33)" fill="none" stroke-linecap="round"></path><path d="M 455.500,208.000 C 457.028,207.045 457.266,207.234 458.500,206.000" stroke-width="12.524" stroke="rgb(33,33,33)" fill="none" stroke-linecap="round"></path><path d="M 458.500,206.000 C 459.266,205.234 458.926,204.957 459.500,204.000" stroke-width="13.002" stroke="rgb(33,33,33)" fill="none" stroke-linecap="round"></path><path d="M 459.500,204.000 C 460.426,202.457 460.423,202.437 461.500,201.000" stroke-width="13.270" stroke="rgb(33,33,33)" fill="none" stroke-linecap="round"></path><path d="M 461.500,201.000 C 461.923,200.437 461.914,200.293 462.500,200.000" stroke-width="13.906" stroke="rgb(33,33,33)" fill="none" stroke-linecap="round"></path><path d="M 462.500,200.000 C 462.914,199.793 463.250,200.250 463.500,200.000" stroke-width="14.569" stroke="rgb(33,33,33)" fill="none" stroke-linecap="round"></path><path d="M 463.500,200.000 C 463.750,199.750 463.500,199.500 463.500,199.000" stroke-width="15.146" stroke="rgb(33,33,33)" fill="none" stroke-linecap="round"></path><path d="M 463.500,199.000 C 463.500,198.500 463.750,198.250 463.500,198.000" stroke-width="15.837" stroke="rgb(33,33,33)" fill="none" stroke-linecap="round"></path><path d="M 463.500,198.000 C 463.250,197.750 462.809,197.691 462.500,198.000" stroke-width="16.446" stroke="rgb(33,33,33)" fill="none" stroke-linecap="round"></path><path d="M 462.500,198.000 C 461.809,198.691 462.190,199.137 461.500,200.000" stroke-width="16.319" stroke="rgb(33,33,33)" fill="none" stroke-linecap="round"></path><path d="M 461.500,200.000 C 460.190,201.637 460.094,201.605 458.500,203.000" stroke-width="15.412" stroke="rgb(33,33,33)" fill="none" stroke-linecap="round"></path><path d="M 458.500,203.000 C 456.094,205.105 455.978,204.973 453.500,207.000" stroke-width="14.532" stroke="rgb(33,33,33)" fill="none" stroke-linecap="round"></path><path d="M 453.500,207.000 C 450.478,209.473 450.465,209.459 447.500,212.000" stroke-width="13.410" stroke="rgb(33,33,33)" fill="none" stroke-linecap="round"></path><path d="M 447.500,212.000 C 443.465,215.459 443.247,215.253 439.500,219.000" stroke-width="12.098" stroke="rgb(33,33,33)" fill="none" stroke-linecap="round"></path><path d="M 439.500,219.000 C 436.747,221.753 437.350,222.369 434.500,225.000" stroke-width="11.676" stroke="rgb(33,33,33)" fill="none" stroke-linecap="round"></path><path d="M 434.500,225.000 C 430.850,228.369 430.430,227.912 426.500,231.000" stroke-width="11.021" stroke="rgb(33,33,33)" fill="none" stroke-linecap="round"></path><path d="M 426.500,231.000 C 423.430,233.412 423.500,233.500 420.500,236.000" stroke-width="10.857" stroke="rgb(33,33,33)" fill="none" stroke-linecap="round"></path><path d="M 420.500,236.000 C 417.500,238.500 417.250,238.250 414.500,241.000" stroke-width="10.729" stroke="rgb(33,33,33)" fill="none" stroke-linecap="round"></path><path d="M 414.500,241.000 C 411.750,243.750 412.124,244.113 409.500,247.000" stroke-width="10.629" stroke="rgb(33,33,33)" fill="none" stroke-linecap="round"></path><path d="M 409.500,247.000 C 407.124,249.613 406.843,249.364 404.500,252.000" stroke-width="10.653" stroke="rgb(33,33,33)" fill="none" stroke-linecap="round"></path><path d="M 404.500,252.000 C 402.843,253.864 402.885,253.923 401.500,256.000" stroke-width="10.866" stroke="rgb(33,33,33)" fill="none" stroke-linecap="round"></path><path d="M 401.500,256.000 C 399.885,258.423 399.915,258.453 398.500,261.000" stroke-width="11.124" stroke="rgb(33,33,33)" fill="none" stroke-linecap="round"></path><path d="M 398.500,261.000 C 397.415,262.953 397.280,262.919 396.500,265.000" stroke-width="11.216" stroke="rgb(33,33,33)" fill="none" stroke-linecap="round"></path><path d="M 396.500,265.000 C 395.780,266.919 396.066,267.019 395.500,269.000" stroke-width="11.727" stroke="rgb(33,33,33)" fill="none" stroke-linecap="round"></path><path d="M 395.500,269.000 C 395.066,270.519 394.757,270.460 394.500,272.000" stroke-width="12.195" stroke="rgb(33,33,33)" fill="none" stroke-linecap="round"></path><path d="M 394.500,272.000 C 394.257,273.460 394.500,273.500 394.500,275.000" stroke-width="12.629" stroke="rgb(33,33,33)" fill="none" stroke-linecap="round"></path><path d="M 394.500,275.000 C 394.500,275.500 394.500,275.500 394.500,276.000" stroke-width="13.527" stroke="rgb(33,33,33)" fill="none" stroke-linecap="round"></path><path d="M 394.500,276.000 C 394.500,276.500 394.167,277.167 394.500,277.000" stroke-width="14.234" stroke="rgb(33,33,33)" fill="none" stroke-linecap="round"></path><path d="M 394.500,277.000 C 396.167,276.167 396.548,275.561 398.500,274.000" stroke-width="14.677" stroke="rgb(33,33,33)" fill="none" stroke-linecap="round"></path><path d="M 398.500,274.000 C 401.548,271.561 401.330,271.265 404.500,269.000" stroke-width="13.262" stroke="rgb(33,33,33)" fill="none" stroke-linecap="round"></path><path d="M 404.500,269.000 C 408.330,266.265 408.512,266.519 412.500,264.000" stroke-width="12.414" stroke="rgb(33,33,33)" fill="none" stroke-linecap="round"></path><path d="M 412.500,264.000 C 418.012,260.519 418.116,260.671 423.500,257.000" stroke-width="10.786" stroke="rgb(33,33,33)" fill="none" stroke-linecap="round"></path><path d="M 423.500,257.000 C 429.116,253.171 429.000,253.000 434.500,249.000" stroke-width="10.104" stroke="rgb(33,33,33)" fill="none" stroke-linecap="round"></path><path d="M 434.500,249.000 C 440.000,245.000 440.060,245.080 445.500,241.000" stroke-width="9.447" stroke="rgb(33,33,33)" fill="none" stroke-linecap="round"></path><path d="M 445.500,241.000 C 452.060,236.080 452.205,236.245 458.500,231.000" stroke-width="8.711" stroke="rgb(33,33,33)" fill="none" stroke-linecap="round"></path><path d="M 458.500,231.000 C 464.205,226.245 463.907,225.894 469.500,221.000" stroke-width="8.328" stroke="rgb(33,33,33)" fill="none" stroke-linecap="round"></path><path d="M 469.500,221.000 C 475.907,215.394 476.355,215.866 482.500,210.000" stroke-width="7.877" stroke="rgb(33,33,33)" fill="none" stroke-linecap="round"></path><path d="M 482.500,210.000 C 487.355,205.366 487.000,205.000 491.500,200.000" stroke-width="7.809" stroke="rgb(33,33,33)" fill="none" stroke-linecap="round"></path><path d="M 491.500,200.000 C 496.000,195.000 496.535,195.382 500.500,190.000" stroke-width="7.437" stroke="rgb(33,33,33)" fill="none" stroke-linecap="round"></path><path d="M 500.500,190.000 C 503.535,185.882 503.000,185.500 505.500,181.000" stroke-width="7.683" stroke="rgb(33,33,33)" fill="none" stroke-linecap="round"></path><path d="M 505.500,181.000 C 508.000,176.500 508.092,176.549 510.500,172.000" stroke-width="7.892" stroke="rgb(33,33,33)" fill="none" stroke-linecap="round"></path><path d="M 510.500,172.000 C 512.592,168.049 512.802,168.125 514.500,164.000" stroke-width="8.177" stroke="rgb(33,33,33)" fill="none" stroke-linecap="round"></path><path d="M 514.500,164.000 C 516.302,159.625 516.085,159.526 517.500,155.000" stroke-width="8.374" stroke="rgb(33,33,33)" fill="none" stroke-linecap="round"></path><path d="M 517.500,155.000 C 518.585,151.526 518.542,151.511 519.500,148.000" stroke-width="8.741" stroke="rgb(33,33,33)" fill="none" stroke-linecap="round"></path><path d="M 519.500,148.000 C 520.042,146.011 519.852,145.945 520.500,144.000" stroke-width="9.391" stroke="rgb(33,33,33)" fill="none" stroke-linecap="round"></path><path d="M 520.500,144.000 C 520.852,142.945 521.155,143.036 521.500,142.000" stroke-width="10.222" stroke="rgb(33,33,33)" fill="none" stroke-linecap="round"></path><path d="M 521.500,142.000 C 521.655,141.536 521.500,141.000 521.500,141.000" stroke-width="11.189" stroke="rgb(33,33,33)" fill="none" stroke-linecap="round"></path><path d="M 521.500,141.000 C 521.500,141.000 521.655,141.536 521.500,142.000" stroke-width="12.251" stroke="rgb(33,33,33)" fill="none" stroke-linecap="round"></path><path d="M 521.500,142.000 C 521.155,143.036 521.000,143.000 520.500,144.000" stroke-width="12.881" stroke="rgb(33,33,33)" fill="none" stroke-linecap="round"></path><path d="M 520.500,144.000 C 520.000,145.000 520.074,145.043 519.500,146.000" stroke-width="13.379" stroke="rgb(33,33,33)" fill="none" stroke-linecap="round"></path><path d="M 519.500,146.000 C 518.574,147.543 518.303,147.393 517.500,149.000" stroke-width="13.491" stroke="rgb(33,33,33)" fill="none" stroke-linecap="round"></path><path d="M 517.500,149.000 C 515.803,152.393 516.287,152.650 514.500,156.000" stroke-width="12.726" stroke="rgb(33,33,33)" fill="none" stroke-linecap="round"></path><path d="M 514.500,156.000 C 512.287,160.150 512.115,160.077 509.500,164.000" stroke-width="11.850" stroke="rgb(33,33,33)" fill="none" stroke-linecap="round"></path><path d="M 509.500,164.000 C 507.115,167.577 507.308,167.761 504.500,171.000" stroke-width="11.363" stroke="rgb(33,33,33)" fill="none" stroke-linecap="round"></path><path d="M 504.500,171.000 C 500.808,175.261 500.500,175.000 496.500,179.000" stroke-width="10.111" stroke="rgb(33,33,33)" fill="none" stroke-linecap="round"></path><path d="M 496.500,179.000 C 492.500,183.000 492.367,182.875 488.500,187.000" stroke-width="9.712" stroke="rgb(33,33,33)" fill="none" stroke-linecap="round"></path><path d="M 488.500,187.000 C 484.867,190.875 484.959,190.965 481.500,195.000" stroke-width="9.490" stroke="rgb(33,33,33)" fill="none" stroke-linecap="round"></path><path d="M 481.500,195.000 C 478.959,197.965 478.714,197.802 476.500,201.000" stroke-width="9.632" stroke="rgb(33,33,33)" fill="none" stroke-linecap="round"></path><path d="M 476.500,201.000 C 474.214,204.302 474.851,204.768 472.500,208.000" stroke-width="9.720" stroke="rgb(33,33,33)" fill="none" stroke-linecap="round"></path><path d="M 472.500,208.000 C 470.851,210.268 470.104,209.755 468.500,212.000" stroke-width="9.983" stroke="rgb(33,33,33)" fill="none" stroke-linecap="round"></path><path d="M 468.500,212.000 C 467.604,213.255 468.000,213.500 467.500,215.000" stroke-width="10.648" stroke="rgb(33,33,33)" fill="none" stroke-linecap="round"></path><path d="M 467.500,215.000 C 467.000,216.500 467.086,216.536 466.500,218.000" stroke-width="11.302" stroke="rgb(33,33,33)" fill="none" stroke-linecap="round"></path><path d="M 466.500,218.000 C 466.086,219.036 465.764,218.944 465.500,220.000" stroke-width="11.988" stroke="rgb(33,33,33)" fill="none" stroke-linecap="round"></path><path d="M 465.500,220.000 C 465.264,220.944 465.500,221.000 465.500,222.000" stroke-width="12.589" stroke="rgb(33,33,33)" fill="none" stroke-linecap="round"></path><path d="M 465.500,222.000 C 465.500,223.000 465.500,223.000 465.500,224.000" stroke-width="13.177" stroke="rgb(33,33,33)" fill="none" stroke-linecap="round"></path><path d="M 465.500,224.000 C 465.500,224.500 465.293,224.586 465.500,225.000" stroke-width="14.051" stroke="rgb(33,33,33)" fill="none" stroke-linecap="round"></path><path d="M 465.500,225.000 C 465.793,225.586 466.000,225.500 466.500,226.000" stroke-width="14.586" stroke="rgb(33,33,33)" fill="none" stroke-linecap="round"></path><path d="M 466.500,226.000 C 467.000,226.500 466.914,226.707 467.500,227.000" stroke-width="15.044" stroke="rgb(33,33,33)" fill="none" stroke-linecap="round"></path><path d="M 467.500,227.000 C 467.914,227.207 468.000,227.000 468.500,227.000" stroke-width="15.555" stroke="rgb(33,33,33)" fill="none" stroke-linecap="round"></path><path d="M 468.500,227.000 C 470.000,227.000 470.000,227.000 471.500,227.000" stroke-width="15.382" stroke="rgb(33,33,33)" fill="none" stroke-linecap="round"></path><path d="M 471.500,227.000 C 473.000,227.000 473.000,227.000 474.500,227.000" stroke-width="15.247" stroke="rgb(33,33,33)" fill="none" stroke-linecap="round"></path><path d="M 474.500,227.000 C 475.500,227.000 475.500,227.000 476.500,227.000" stroke-width="15.428" stroke="rgb(33,33,33)" fill="none" stroke-linecap="round"></path><path d="M 476.500,227.000 C 478.000,227.000 478.040,227.243 479.500,227.000" stroke-width="15.283" stroke="rgb(33,33,33)" fill="none" stroke-linecap="round"></path><path d="M 479.500,227.000 C 481.040,226.743 481.000,226.500 482.500,226.000" stroke-width="15.122" stroke="rgb(33,33,33)" fill="none" stroke-linecap="round"></path><path d="M 482.500,226.000 C 484.000,225.500 484.000,225.500 485.500,225.000" stroke-width="14.709" stroke="rgb(33,33,33)" fill="none" stroke-linecap="round"></path><path d="M 485.500,225.000 C 487.000,224.500 487.360,224.760 488.500,224.000" stroke-width="14.670" stroke="rgb(33,33,33)" fill="none" stroke-linecap="round"></path><path d="M 488.500,224.000 C 488.860,223.760 488.250,223.250 488.500,223.000" stroke-width="15.233" stroke="rgb(33,33,33)" fill="none" stroke-linecap="round"></path><path d="M 488.500,223.000 C 488.750,222.750 489.086,223.207 489.500,223.000" stroke-width="15.717" stroke="rgb(33,33,33)" fill="none" stroke-linecap="round"></path><path d="M 489.500,223.000 C 490.086,222.707 490.293,221.793 490.500,222.000" stroke-width="15.994" stroke="rgb(33,33,33)" fill="none" stroke-linecap="round"></path><path d="M 490.500,222.000 C 490.793,222.293 490.771,223.052 490.500,224.000" stroke-width="16.614" stroke="rgb(33,33,33)" fill="none" stroke-linecap="round"></path><path d="M 490.500,224.000 C 489.771,226.552 489.627,226.557 488.500,229.000" stroke-width="16.512" stroke="rgb(33,33,33)" fill="none" stroke-linecap="round"></path><path d="M 488.500,229.000 C 486.627,233.057 486.715,233.125 484.500,237.000" stroke-width="13.689" stroke="rgb(33,33,33)" fill="none" stroke-linecap="round"></path><path d="M 484.500,237.000 C 482.715,240.125 482.313,239.892 480.500,243.000" stroke-width="13.256" stroke="rgb(33,33,33)" fill="none" stroke-linecap="round"></path><path d="M 480.500,243.000 C 478.813,245.892 479.399,246.287 477.500,249.000" stroke-width="12.737" stroke="rgb(33,33,33)" fill="none" stroke-linecap="round"></path><path d="M 477.500,249.000 C 475.899,251.287 475.175,250.766 473.500,253.000" stroke-width="12.196" stroke="rgb(33,33,33)" fill="none" stroke-linecap="round"></path><path d="M 473.500,253.000 C 472.175,254.766 472.379,254.950 471.500,257.000" stroke-width="12.347" stroke="rgb(33,33,33)" fill="none" stroke-linecap="round"></path><path d="M 471.500,257.000 C 470.879,258.450 471.201,258.598 470.500,260.000" stroke-width="12.727" stroke="rgb(33,33,33)" fill="none" stroke-linecap="round"></path><path d="M 470.500,260.000 C 469.701,261.598 469.046,261.362 468.500,263.000" stroke-width="12.955" stroke="rgb(33,33,33)" fill="none" stroke-linecap="round"></path><path d="M 468.500,263.000 C 468.046,264.362 468.743,264.540 468.500,266.000" stroke-width="13.275" stroke="rgb(33,33,33)" fill="none" stroke-linecap="round"></path><path d="M 468.500,266.000 C 468.243,267.540 467.806,267.469 467.500,269.000" stroke-width="13.505" stroke="rgb(33,33,33)" fill="none" stroke-linecap="round"></path><path d="M 467.500,269.000 C 467.306,269.969 467.500,270.000 467.500,271.000" stroke-width="14.215" stroke="rgb(33,33,33)" fill="none" stroke-linecap="round"></path><path d="M 467.500,271.000 C 467.500,271.500 467.167,271.833 467.500,272.000" stroke-width="14.839" stroke="rgb(33,33,33)" fill="none" stroke-linecap="round"></path><path d="M 467.500,272.000 C 468.167,272.333 468.500,272.000 469.500,272.000" stroke-width="15.477" stroke="rgb(33,33,33)" fill="none" stroke-linecap="round"></path><path d="M 469.500,272.000 C 470.500,272.000 470.500,272.000 471.500,272.000" stroke-width="15.617" stroke="rgb(33,33,33)" fill="none" stroke-linecap="round"></path><path d="M 471.500,272.000 C 473.000,272.000 473.257,272.621 474.500,272.000" stroke-width="15.529" stroke="rgb(33,33,33)" fill="none" stroke-linecap="round"></path><path d="M 474.500,272.000 C 476.257,271.121 475.878,270.351 477.500,269.000" stroke-width="14.841" stroke="rgb(33,33,33)" fill="none" stroke-linecap="round"></path><path d="M 477.500,269.000 C 478.878,267.851 479.000,268.000 480.500,267.000" stroke-width="14.344" stroke="rgb(33,33,33)" fill="none" stroke-linecap="round"></path><path d="M 480.500,267.000 C 482.000,266.000 482.122,266.149 483.500,265.000" stroke-width="14.265" stroke="rgb(33,33,33)" fill="none" stroke-linecap="round"></path><path d="M 483.500,265.000 C 485.122,263.649 485.149,263.622 486.500,262.000" stroke-width="14.046" stroke="rgb(33,33,33)" fill="none" stroke-linecap="round"></path><path d="M 486.500,262.000 C 487.649,260.622 487.423,260.437 488.500,259.000" stroke-width="14.029" stroke="rgb(33,33,33)" fill="none" stroke-linecap="round"></path><path d="M 488.500,259.000 C 488.923,258.437 489.293,257.793 489.500,258.000" stroke-width="14.567" stroke="rgb(33,33,33)" fill="none" stroke-linecap="round"></path><path d="M 489.500,258.000 C 489.793,258.293 489.500,259.000 489.500,260.000" stroke-width="15.367" stroke="rgb(33,33,33)" fill="none" stroke-linecap="round"></path><path d="M 489.500,260.000 C 489.500,260.500 489.500,260.500 489.500,261.000" stroke-width="16.043" stroke="rgb(33,33,33)" fill="none" stroke-linecap="round"></path><path d="M 489.500,261.000 C 489.500,261.500 489.500,261.500 489.500,262.000" stroke-width="16.400" stroke="rgb(33,33,33)" fill="none" stroke-linecap="round"></path><path d="M 489.500,262.000 C 489.500,262.500 489.500,262.500 489.500,263.000" stroke-width="16.871" stroke="rgb(33,33,33)" fill="none" stroke-linecap="round"></path><path d="M 489.500,263.000 C 489.500,263.500 489.293,263.586 489.500,264.000" stroke-width="16.966" stroke="rgb(33,33,33)" fill="none" stroke-linecap="round"></path><path d="M 489.500,264.000 C 489.793,264.586 490.000,264.500 490.500,265.000" stroke-width="17.014" stroke="rgb(33,33,33)" fill="none" stroke-linecap="round"></path><path d="M 490.500,265.000 C 491.000,265.500 491.207,265.414 491.500,266.000" stroke-width="17.310" stroke="rgb(33,33,33)" fill="none" stroke-linecap="round"></path><path d="M 491.500,266.000 C 491.707,266.414 491.125,266.875 491.500,267.000" stroke-width="17.444" stroke="rgb(33,33,33)" fill="none" stroke-linecap="round"></path><path d="M 491.500,267.000 C 492.625,267.375 493.000,267.000 494.500,267.000" stroke-width="16.823" stroke="rgb(33,33,33)" fill="none" stroke-linecap="round"></path><path d="M 494.500,267.000 C 496.500,267.000 496.500,267.000 498.500,267.000" stroke-width="16.034" stroke="rgb(33,33,33)" fill="none" stroke-linecap="round"></path><path d="M 498.500,267.000 C 501.500,267.000 501.619,267.678 504.500,267.000" stroke-width="14.886" stroke="rgb(33,33,33)" fill="none" stroke-linecap="round"></path><path d="M 504.500,267.000 C 510.119,265.678 510.068,265.173 515.500,263.000" stroke-width="12.809" stroke="rgb(33,33,33)" fill="none" stroke-linecap="round"></path><path d="M 515.500,263.000 C 522.568,260.173 522.698,260.401 529.500,257.000" stroke-width="10.658" stroke="rgb(33,33,33)" fill="none" stroke-linecap="round"></path><path d="M 529.500,257.000 C 537.698,252.901 537.257,252.004 545.500,248.000" stroke-width="9.517" stroke="rgb(33,33,33)" fill="none" stroke-linecap="round"></path><path d="M 545.500,248.000 C 554.757,243.504 555.188,244.397 564.500,240.000" stroke-width="8.376" stroke="rgb(33,33,33)" fill="none" stroke-linecap="round"></path><path d="M 564.500,240.000 C 573.188,235.897 573.068,235.624 581.500,231.000" stroke-width="7.744" stroke="rgb(33,33,33)" fill="none" stroke-linecap="round"></path><path d="M 581.500,231.000 C 588.568,227.124 588.856,227.518 595.500,223.000" stroke-width="7.356" stroke="rgb(33,33,33)" fill="none" stroke-linecap="round"></path><path d="M 595.500,223.000 C 601.356,219.018 600.977,218.471 606.500,214.000" stroke-width="7.344" stroke="rgb(33,33,33)" fill="none" stroke-linecap="round"></path><path d="M 606.500,214.000 C 611.477,209.971 611.604,210.123 616.500,206.000" stroke-width="7.526" stroke="rgb(33,33,33)" fill="none" stroke-linecap="round"></path><path d="M 616.500,206.000 C 621.104,202.123 621.118,202.125 625.500,198.000" stroke-width="7.631" stroke="rgb(33,33,33)" fill="none" stroke-linecap="round"></path><path d="M 625.500,198.000 C 629.618,194.125 629.956,194.362 633.500,190.000" stroke-width="7.772" stroke="rgb(33,33,33)" fill="none" stroke-linecap="round"></path><path d="M 633.500,190.000 C 636.456,186.362 635.718,185.793 638.500,182.000" stroke-width="8.035" stroke="rgb(33,33,33)" fill="none" stroke-linecap="round"></path><path d="M 638.500,182.000 C 641.218,178.293 642.164,178.893 644.500,175.000" stroke-width="8.276" stroke="rgb(33,33,33)" fill="none" stroke-linecap="round"></path><path d="M 644.500,175.000 C 646.664,171.393 645.608,170.785 647.500,167.000" stroke-width="8.292" stroke="rgb(33,33,33)" fill="none" stroke-linecap="round"></path><path d="M 647.500,167.000 C 648.608,164.785 649.180,165.111 650.500,163.000" stroke-width="8.886" stroke="rgb(33,33,33)" fill="none" stroke-linecap="round"></path><path d="M 650.500,163.000 C 651.680,161.111 651.621,161.050 652.500,159.000" stroke-width="9.486" stroke="rgb(33,33,33)" fill="none" stroke-linecap="round"></path><path d="M 652.500,159.000 C 653.121,157.550 653.194,157.531 653.500,156.000" stroke-width="10.192" stroke="rgb(33,33,33)" fill="none" stroke-linecap="round"></path><path d="M 653.500,156.000 C 653.694,155.031 653.500,155.000 653.500,154.000" stroke-width="11.008" stroke="rgb(33,33,33)" fill="none" stroke-linecap="round"></path><path d="M 653.500,154.000 C 653.500,153.500 653.500,153.000 653.500,153.000" stroke-width="12.018" stroke="rgb(33,33,33)" fill="none" stroke-linecap="round"></path><path d="M 653.500,153.000 C 653.500,153.000 653.809,153.691 653.500,154.000" stroke-width="13.031" stroke="rgb(33,33,33)" fill="none" stroke-linecap="round"></path><path d="M 653.500,154.000 C 652.809,154.691 652.383,154.338 651.500,155.000" stroke-width="13.508" stroke="rgb(33,33,33)" fill="none" stroke-linecap="round"></path><path d="M 651.500,155.000 C 650.383,155.838 650.599,156.121 649.500,157.000" stroke-width="14.115" stroke="rgb(33,33,33)" fill="none" stroke-linecap="round"></path><path d="M 649.500,157.000 C 648.099,158.121 647.901,157.879 646.500,159.000" stroke-width="14.083" stroke="rgb(33,33,33)" fill="none" stroke-linecap="round"></path><path d="M 646.500,159.000 C 645.401,159.879 645.500,160.000 644.500,161.000" stroke-width="14.251" stroke="rgb(33,33,33)" fill="none" stroke-linecap="round"></path><path d="M 644.500,161.000 C 643.000,162.500 642.851,162.378 641.500,164.000" stroke-width="14.035" stroke="rgb(33,33,33)" fill="none" stroke-linecap="round"></path><path d="M 641.500,164.000 C 640.351,165.378 640.547,165.534 639.500,167.000" stroke-width="14.019" stroke="rgb(33,33,33)" fill="none" stroke-linecap="round"></path><path d="M 639.500,167.000 C 638.047,169.034 638.000,169.000 636.500,171.000" stroke-width="13.677" stroke="rgb(33,33,33)" fill="none" stroke-linecap="round"></path><path d="M 636.500,171.000 C 635.000,173.000 635.061,173.048 633.500,175.000" stroke-width="13.055" stroke="rgb(33,33,33)" fill="none" stroke-linecap="round"></path><path d="M 633.500,175.000 C 631.061,178.048 630.556,177.710 628.500,181.000" stroke-width="12.377" stroke="rgb(33,33,33)" fill="none" stroke-linecap="round"></path><path d="M 628.500,181.000 C 625.556,185.710 626.326,186.196 623.500,191.000" stroke-width="11.076" stroke="rgb(33,33,33)" fill="none" stroke-linecap="round"></path><path d="M 623.500,191.000 C 621.326,194.696 620.885,194.422 618.500,198.000" stroke-width="10.923" stroke="rgb(33,33,33)" fill="none" stroke-linecap="round"></path><path d="M 618.500,198.000 C 614.885,203.422 614.981,203.488 611.500,209.000" stroke-width="10.079" stroke="rgb(33,33,33)" fill="none" stroke-linecap="round"></path><path d="M 611.500,209.000 C 608.981,212.988 609.170,213.117 606.500,217.000" stroke-width="9.751" stroke="rgb(33,33,33)" fill="none" stroke-linecap="round"></path><path d="M 606.500,217.000 C 603.670,221.117 603.405,220.933 600.500,225.000" stroke-width="9.591" stroke="rgb(33,33,33)" fill="none" stroke-linecap="round"></path><path d="M 600.500,225.000 C 598.405,227.933 598.742,228.198 596.500,231.000" stroke-width="9.881" stroke="rgb(33,33,33)" fill="none" stroke-linecap="round"></path><path d="M 596.500,231.000 C 594.742,233.198 594.332,232.862 592.500,235.000" stroke-width="10.222" stroke="rgb(33,33,33)" fill="none" stroke-linecap="round"></path><path d="M 592.500,235.000 C 591.332,236.362 591.299,236.402 590.500,238.000" stroke-width="10.801" stroke="rgb(33,33,33)" fill="none" stroke-linecap="round"></path><path d="M 590.500,238.000 C 589.799,239.402 589.880,239.481 589.500,241.000" stroke-width="11.311" stroke="rgb(33,33,33)" fill="none" stroke-linecap="round"></path><path d="M 589.500,241.000 C 589.380,241.481 589.500,241.500 589.500,242.000" stroke-width="12.240" stroke="rgb(33,33,33)" fill="none" stroke-linecap="round"></path><path d="M 589.500,242.000 C 589.500,242.500 589.500,242.500 589.500,243.000" stroke-width="13.047" stroke="rgb(33,33,33)" fill="none" stroke-linecap="round"></path><path d="M 589.500,243.000 C 589.500,243.500 589.750,243.750 589.500,244.000" stroke-width="13.965" stroke="rgb(33,33,33)" fill="none" stroke-linecap="round"></path><path d="M 589.500,244.000 C 589.250,244.250 588.500,244.000 588.500,244.000" stroke-width="14.834" stroke="rgb(33,33,33)" fill="none" stroke-linecap="round"></path><path d="M 588.500,244.000 C 588.500,244.000 589.000,244.000 589.500,244.000" stroke-width="15.610" stroke="rgb(33,33,33)" fill="none" stroke-linecap="round"></path><path d="M 589.500,244.000 C 591.000,244.000 591.000,244.000 592.500,244.000" stroke-width="15.425" stroke="rgb(33,33,33)" fill="none" stroke-linecap="round"></path><path d="M 592.500,244.000 C 593.500,244.000 593.500,244.000 594.500,244.000" stroke-width="15.574" stroke="rgb(33,33,33)" fill="none" stroke-linecap="round"></path><path d="M 594.500,244.000 C 595.000,244.000 595.000,244.000 595.500,244.000" stroke-width="16.006" stroke="rgb(33,33,33)" fill="none" stroke-linecap="round"></path><path d="M 595.500,244.000 C 596.500,244.000 596.556,243.764 597.500,244.000" stroke-width="16.115" stroke="rgb(33,33,33)" fill="none" stroke-linecap="round"></path><path d="M 597.500,244.000 C 598.556,244.264 598.581,244.387 599.500,245.000" stroke-width="16.056" stroke="rgb(33,33,33)" fill="none" stroke-linecap="round"></path><path d="M 599.500,245.000 C 600.081,245.387 600.207,245.414 600.500,246.000" stroke-width="16.208" stroke="rgb(33,33,33)" fill="none" stroke-linecap="round"></path><path d="M 600.500,246.000 C 600.707,246.414 600.380,246.519 600.500,247.000" stroke-width="16.538" stroke="rgb(33,33,33)" fill="none" stroke-linecap="round"></path><path d="M 600.500,247.000 C 600.880,248.519 601.000,248.500 601.500,250.000" stroke-width="16.202" stroke="rgb(33,33,33)" fill="none" stroke-linecap="round"></path><path d="M 601.500,250.000 C 602.000,251.500 602.000,251.500 602.500,253.000" stroke-width="15.833" stroke="rgb(33,33,33)" fill="none" stroke-linecap="round"></path><path d="M 602.500,253.000 C 603.000,254.500 602.708,254.680 603.500,256.000" stroke-width="15.550" stroke="rgb(33,33,33)" fill="none" stroke-linecap="round"></path><path d="M 603.500,256.000 C 604.208,257.180 604.792,256.820 605.500,258.000" stroke-width="15.311" stroke="rgb(33,33,33)" fill="none" stroke-linecap="round"></path><path d="M 605.500,258.000 C 606.292,259.320 605.708,259.680 606.500,261.000" stroke-width="15.018" stroke="rgb(33,33,33)" fill="none" stroke-linecap="round"></path><path d="M 606.500,261.000 C 607.208,262.180 607.320,262.292 608.500,263.000" stroke-width="15.006" stroke="rgb(33,33,33)" fill="none" stroke-linecap="round"></path><path d="M 608.500,263.000 C 609.820,263.792 610.000,263.500 611.500,264.000" stroke-width="14.905" stroke="rgb(33,33,33)" fill="none" stroke-linecap="round"></path><path d="M 611.500,264.000 C 613.000,264.500 613.036,264.414 614.500,265.000" stroke-width="14.825" stroke="rgb(33,33,33)" fill="none" stroke-linecap="round"></path><path d="M 614.500,265.000 C 615.536,265.414 615.464,265.586 616.500,266.000" stroke-width="15.015" stroke="rgb(33,33,33)" fill="none" stroke-linecap="round"></path><path d="M 616.500,266.000 C 617.964,266.586 618.000,266.500 619.500,267.000" stroke-width="14.912" stroke="rgb(33,33,33)" fill="none" stroke-linecap="round"></path><path d="M 619.500,267.000 C 621.000,267.500 620.981,267.566 622.500,268.000" stroke-width="14.830" stroke="rgb(33,33,33)" fill="none" stroke-linecap="round"></path><path d="M 622.500,268.000 C 624.481,268.566 624.470,268.746 626.500,269.000" stroke-width="14.512" stroke="rgb(33,33,33)" fill="none" stroke-linecap="round"></path><path d="M 626.500,269.000 C 628.470,269.246 628.500,269.000 630.500,269.000" stroke-width="14.155" stroke="rgb(33,33,33)" fill="none" stroke-linecap="round"></path><path d="M 630.500,269.000 C 633.000,269.000 633.025,268.752 635.500,269.000" stroke-width="13.912" stroke="rgb(33,33,33)" fill="none" stroke-linecap="round"></path><path d="M 635.500,269.000 C 638.025,269.252 637.971,269.789 640.500,270.000" stroke-width="13.573" stroke="rgb(33,33,33)" fill="none" stroke-linecap="round"></path><path d="M 640.500,270.000 C 643.971,270.289 644.000,270.000 647.500,270.000" stroke-width="12.910" stroke="rgb(33,33,33)" fill="none" stroke-linecap="round"></path><path d="M 647.500,270.000 C 650.500,270.000 650.586,269.636 653.500,270.000" stroke-width="12.618" stroke="rgb(33,33,33)" fill="none" stroke-linecap="round"></path><path d="M 653.500,270.000 C 654.586,270.136 654.464,270.586 655.500,271.000" stroke-width="13.151" stroke="rgb(33,33,33)" fill="none" stroke-linecap="round"></path><path d="M 655.500,271.000 C 656.964,271.586 657.036,271.414 658.500,272.000" stroke-width="13.403" stroke="rgb(33,33,33)" fill="none" stroke-linecap="round"></path><path d="M 658.500,272.000 C 659.536,272.414 659.500,272.500 660.500,273.000" stroke-width="13.826" stroke="rgb(33,33,33)" fill="none" stroke-linecap="round"></path><path d="M 660.500,273.000 C 661.500,273.500 661.444,273.736 662.500,274.000" stroke-width="14.185" stroke="rgb(33,33,33)" fill="none" stroke-linecap="round"></path><path d="M 662.500,274.000 C 663.444,274.236 663.556,273.764 664.500,274.000" stroke-width="14.547" stroke="rgb(33,33,33)" fill="none" stroke-linecap="round"></path><path d="M 664.500,274.000 C 665.556,274.264 665.432,274.786 666.500,275.000" stroke-width="14.786" stroke="rgb(33,33,33)" fill="none" stroke-linecap="round"></path><path d="M 666.500,275.000 C 667.932,275.286 668.000,275.000 669.500,275.000" stroke-width="14.509" stroke="rgb(33,33,33)" fill="none" stroke-linecap="round"></path><path d="M 669.500,275.000 C 671.500,275.000 671.563,275.387 673.500,275.000" stroke-width="14.296" stroke="rgb(33,33,33)" fill="none" stroke-linecap="round"></path><path d="M 673.500,275.000 C 676.563,274.387 676.696,274.402 679.500,273.000" stroke-width="13.578" stroke="rgb(33,33,33)" fill="none" stroke-linecap="round"></path><path d="M 679.500,273.000 C 682.696,271.402 682.536,271.052 685.500,269.000" stroke-width="12.871" stroke="rgb(33,33,33)" fill="none" stroke-linecap="round"></path><path d="M 685.500,269.000 C 689.036,266.552 688.923,266.385 692.500,264.000" stroke-width="12.099" stroke="rgb(33,33,33)" fill="none" stroke-linecap="round"></path><path d="M 692.500,264.000 C 696.423,261.385 696.617,261.670 700.500,259.000" stroke-width="11.410" stroke="rgb(33,33,33)" fill="none" stroke-linecap="round"></path><path d="M 700.500,259.000 C 704.617,256.170 704.850,256.369 708.500,253.000" stroke-width="10.830" stroke="rgb(33,33,33)" fill="none" stroke-linecap="round"></path><path d="M 708.500,253.000 C 711.350,250.369 711.160,250.120 713.500,247.000" stroke-width="10.708" stroke="rgb(33,33,33)" fill="none" stroke-linecap="round"></path><path d="M 713.500,247.000 C 715.660,244.120 715.565,244.041 717.500,241.000" stroke-width="10.696" stroke="rgb(33,33,33)" fill="none" stroke-linecap="round"></path><path d="M 717.500,241.000 C 719.065,238.541 718.885,238.423 720.500,236.000" stroke-width="10.885" stroke="rgb(33,33,33)" fill="none" stroke-linecap="round"></path><path d="M 720.500,236.000 C 721.885,233.923 722.275,234.144 723.500,232.000" stroke-width="11.168" stroke="rgb(33,33,33)" fill="none" stroke-linecap="round"></path><path d="M 723.500,232.000 C 724.275,230.644 724.000,230.500 724.500,229.000" stroke-width="11.707" stroke="rgb(33,33,33)" fill="none" stroke-linecap="round"></path><path d="M 724.500,229.000 C 725.000,227.500 724.809,227.382 725.500,226.000" stroke-width="12.178" stroke="rgb(33,33,33)" fill="none" stroke-linecap="round"></path><path d="M 725.500,226.000 C 725.809,225.382 726.207,225.586 726.500,225.000" stroke-width="12.893" stroke="rgb(33,33,33)" fill="none" stroke-linecap="round"></path><path d="M 726.500,225.000 C 726.707,224.586 726.500,224.500 726.500,224.000" stroke-width="13.792" stroke="rgb(33,33,33)" fill="none" stroke-linecap="round"></path><path d="M 726.500,224.000 C 726.500,223.500 726.833,223.167 726.500,223.000" stroke-width="14.383" stroke="rgb(33,33,33)" fill="none" stroke-linecap="round"></path><path d="M 726.500,223.000 C 725.833,222.667 725.500,223.000 724.500,223.000" stroke-width="14.985" stroke="rgb(33,33,33)" fill="none" stroke-linecap="round"></path><path d="M 724.500,223.000 C 722.500,223.000 722.418,222.574 720.500,223.000" stroke-width="14.662" stroke="rgb(33,33,33)" fill="none" stroke-linecap="round"></path><path d="M 720.500,223.000 C 717.918,223.574 717.958,223.907 715.500,225.000" stroke-width="13.882" stroke="rgb(33,33,33)" fill="none" stroke-linecap="round"></path><path d="M 715.500,225.000 C 713.458,225.907 713.266,225.675 711.500,227.000" stroke-width="13.810" stroke="rgb(33,33,33)" fill="none" stroke-linecap="round"></path><path d="M 711.500,227.000 C 709.266,228.675 709.500,229.000 707.500,231.000" stroke-width="13.371" stroke="rgb(33,33,33)" fill="none" stroke-linecap="round"></path><path d="M 707.500,231.000 C 706.000,232.500 706.137,232.690 704.500,234.000" stroke-width="13.343" stroke="rgb(33,33,33)" fill="none" stroke-linecap="round"></path><path d="M 704.500,234.000 C 703.637,234.690 703.121,234.172 702.500,235.000" stroke-width="13.775" stroke="rgb(33,33,33)" fill="none" stroke-linecap="round"></path><path d="M 702.500,235.000 C 701.621,236.172 702.000,236.500 701.500,238.000" stroke-width="13.917" stroke="rgb(33,33,33)" fill="none" stroke-linecap="round"></path><path d="M 701.500,238.000 C 701.000,239.500 701.000,239.500 700.500,241.000" stroke-width="13.923" stroke="rgb(33,33,33)" fill="none" stroke-linecap="round"></path><path d="M 700.500,241.000 C 700.000,242.500 699.757,242.460 699.500,244.000" stroke-width="14.123" stroke="rgb(33,33,33)" fill="none" stroke-linecap="round"></path><path d="M 699.500,244.000 C 699.257,245.460 699.500,245.500 699.500,247.000" stroke-width="14.240" stroke="rgb(33,33,33)" fill="none" stroke-linecap="round"></path><path d="M 699.500,247.000 C 699.500,248.000 699.500,248.000 699.500,249.000" stroke-width="14.518" stroke="rgb(33,33,33)" fill="none" stroke-linecap="round"></path><path d="M 699.500,249.000 C 699.500,250.500 699.500,250.500 699.500,252.000" stroke-width="14.560" stroke="rgb(33,33,33)" fill="none" stroke-linecap="round"></path><path d="M 699.500,252.000 C 699.500,253.000 699.264,253.056 699.500,254.000" stroke-width="14.921" stroke="rgb(33,33,33)" fill="none" stroke-linecap="round"></path><path d="M 699.500,254.000 C 699.764,255.056 699.887,255.081 700.500,256.000" stroke-width="15.094" stroke="rgb(33,33,33)" fill="none" stroke-linecap="round"></path><path d="M 700.500,256.000 C 700.887,256.581 701.207,256.414 701.500,257.000" stroke-width="15.415" stroke="rgb(33,33,33)" fill="none" stroke-linecap="round"></path><path d="M 701.500,257.000 C 701.707,257.414 701.293,257.586 701.500,258.000" stroke-width="15.871" stroke="rgb(33,33,33)" fill="none" stroke-linecap="round"></path><path d="M 701.500,258.000 C 701.793,258.586 702.207,259.000 702.500,259.000" stroke-width="15.971" stroke="rgb(33,33,33)" fill="none" stroke-linecap="round"></path><path d="M 702.500,259.000 C 702.707,259.000 702.707,258.000 702.500,258.000" stroke-width="16.655" stroke="rgb(33,33,33)" fill="none" stroke-linecap="round"></path><path d="M 702.500,258.000 C 702.207,258.000 702.000,258.500 701.500,259.000" stroke-width="17.254" stroke="rgb(33,33,33)" fill="none" stroke-linecap="round"></path><path d="M 701.500,259.000 C 701.000,259.500 700.873,259.403 700.500,260.000" stroke-width="17.524" stroke="rgb(33,33,33)" fill="none" stroke-linecap="round"></path><path d="M 700.500,260.000 C 698.373,263.403 698.872,263.765 696.500,267.000" stroke-width="15.271" stroke="rgb(33,33,33)" fill="none" stroke-linecap="round"></path><path d="M 696.500,267.000 C 693.372,271.265 692.902,270.918 689.500,275.000" stroke-width="12.943" stroke="rgb(33,33,33)" fill="none" stroke-linecap="round"></path></svg>