<svg xmlns="http://www.w3.org/2000/svg" xmlns:xlink="http://www.w3.org/1999/xlink" viewBox="0 0 375 500"><path d="M 125.000,82.000 C 121.500,83.500 121.619,83.869 118.000,85.000" stroke-width="19.541" stroke="rgb(33,33,33)" fill="none" stroke-linecap="round"></path><path d="M 118.000,85.000 C 113.619,86.369 113.342,85.497 109.000,87.000" stroke-width="17.897" stroke="rgb(33,33,33)" fill="none" stroke-linecap="round"></path><path d="M 109.000,87.000 C 100.342,89.997 100.355,90.181 92.000,94.000" stroke-width="15.593" stroke="rgb(33,33,33)" fill="none" stroke-linecap="round"></path><path d="M 92.000,94.000 C 82.855,98.181 82.267,97.408 74.000,103.000" stroke-width="13.586" stroke="rgb(33,33,33)" fill="none" stroke-linecap="round"></path><path d="M 74.000,103.000 C 65.267,108.908 64.776,108.969 58.000,117.000" stroke-width="11.939" stroke="rgb(33,33,33)" fill="none" stroke-linecap="round"></path><path d="M 58.000,117.000 C 51.276,124.969 50.781,125.311 47.000,135.000" stroke-width="11.218" stroke="rgb(33,33,33)" fill="none" stroke-linecap="round"></path><path d="M 47.000,135.000 C 42.781,145.811 43.264,146.367 42.000,158.000" stroke-width="10.447" stroke="rgb(33,33,33)" fill="none" stroke-linecap="round"></path><path d="M 42.000,158.000 C 40.764,169.367 40.986,169.591 42.000,181.000" stroke-width="10.019" stroke="rgb(33,33,33)" fill="none" stroke-linecap="round"></path><path d="M 42.000,181.000 C 42.986,192.091 42.203,192.695 46.000,203.000" stroke-width="9.659" stroke="rgb(33,33,33)" fill="none" stroke-linecap="round"></path><path d="M 46.000,203.000 C 49.203,211.695 50.037,211.795 56.000,219.000" stroke-width="9.647" stroke="rgb(33,33,33)" fill="none" stroke-linecap="round"></path><path d="M 56.000,219.000 C 62.037,226.295 62.253,226.577 70.000,232.000" stroke-width="9.624" stroke="rgb(33,33,33)" fill="none" stroke-linecap="round"></path><path d="M 70.000,232.000 C 77.253,237.077 77.554,237.889 86.000,240.000" stroke-width="9.672" stroke="rgb(33,33,33)" fill="none" stroke-linecap="round"></path><path d="M 86.000,240.000 C 93.554,241.889 94.000,240.000 102.000,240.000" stroke-width="9.759" stroke="rgb(33,33,33)" fill="none" stroke-linecap="round"></path><path d="M 102.000,240.000 C 108.500,240.000 108.913,241.639 115.000,240.000" stroke-width="10.060" stroke="rgb(33,33,33)" fill="none" stroke-linecap="round"></path><path d="M 115.000,240.000 C 121.913,238.139 122.336,237.472 128.000,233.000" stroke-width="10.206" stroke="rgb(33,33,33)" fill="none" stroke-linecap="round"></path><path d="M 128.000,233.000 C 131.836,229.972 131.593,229.333 134.000,225.000" stroke-width="10.590" stroke="rgb(33,33,33)" fill="none" stroke-linecap="round"></path><path d="M 134.000,225.000 C 136.593,220.333 136.716,220.138 138.000,215.000" stroke-width="10.908" stroke="rgb(33,33,33)" fill="none" stroke-linecap="round"></path><path d="M 138.000,215.000 C 138.716,212.138 138.000,212.000 138.000,209.000" stroke-width="11.504" stroke="rgb(33,33,33)" fill="none" stroke-linecap="round"></path><path d="M 138.000,209.000 C 138.000,207.000 138.985,206.231 138.000,205.000" stroke-width="12.234" stroke="rgb(33,33,33)" fill="none" stroke-linecap="round"></path><path d="M 138.000,205.000 C 136.985,203.731 136.041,204.170 134.000,204.000" stroke-width="12.876" stroke="rgb(33,33,33)" fill="none" stroke-linecap="round"></path><path d="M 134.000,204.000 C 130.041,203.670 129.515,202.828 126.000,204.000" stroke-width="13.045" stroke="rgb(33,33,33)" fill="none" stroke-linecap="round"></path><path d="M 126.000,204.000 C 123.515,204.828 123.537,205.695 122.000,208.000" stroke-width="13.425" stroke="rgb(33,33,33)" fill="none" stroke-linecap="round"></path><path d="M 122.000,208.000 C 120.537,210.195 120.770,210.432 120.000,213.000" stroke-width="13.775" stroke="rgb(33,33,33)" fill="none" stroke-linecap="round"></path><path d="M 120.000,213.000 C 119.270,215.432 119.315,215.482 119.000,218.000" stroke-width="14.065" stroke="rgb(33,33,33)" fill="none" stroke-linecap="round"></path><path d="M 119.000,218.000 C 118.815,219.482 118.158,220.158 119.000,221.000" stroke-width="14.599" stroke="rgb(33,33,33)" fill="none" stroke-linecap="round"></path><path d="M 119.000,221.000 C 120.158,222.158 120.970,221.662 123.000,222.000" stroke-width="14.876" stroke="rgb(33,33,33)" fill="none" stroke-linecap="round"></path><path d="M 123.000,222.000 C 126.970,222.662 126.987,222.713 131.000,223.000" stroke-width="14.633" stroke="rgb(33,33,33)" fill="none" stroke-linecap="round"></path><path d="M 131.000,223.000 C 133.987,223.213 134.021,222.752 137.000,223.000" stroke-width="14.652" stroke="rgb(33,33,33)" fill="none" stroke-linecap="round"></path><path d="M 137.000,223.000 C 140.021,223.252 139.979,223.748 143.000,224.000" stroke-width="14.746" stroke="rgb(33,33,33)" fill="none" stroke-linecap="round"></path><path d="M 143.000,224.000 C 145.979,224.248 146.053,223.673 149.000,224.000" stroke-width="14.742" stroke="rgb(33,33,33)" fill="none" stroke-linecap="round"></path><path d="M 149.000,224.000 C 150.553,224.173 150.680,224.208 152.000,225.000" stroke-width="15.130" stroke="rgb(33,33,33)" fill="none" stroke-linecap="round"></path><path d="M 152.000,225.000 C 153.180,225.708 153.121,225.901 154.000,227.000" stroke-width="15.504" stroke="rgb(33,33,33)" fill="none" stroke-linecap="round"></path><path d="M 154.000,227.000 C 155.121,228.401 155.000,228.500 156.000,230.000" stroke-width="15.731" stroke="rgb(33,33,33)" fill="none" stroke-linecap="round"></path><path d="M 156.000,230.000 C 157.000,231.500 157.000,231.500 158.000,233.000" stroke-width="15.917" stroke="rgb(33,33,33)" fill="none" stroke-linecap="round"></path><path d="M 158.000,233.000 C 159.000,234.500 158.668,234.935 160.000,236.000" stroke-width="16.069" stroke="rgb(33,33,33)" fill="none" stroke-linecap="round"></path><path d="M 160.000,236.000 C 161.168,236.935 161.455,236.779 163.000,237.000" stroke-width="16.230" stroke="rgb(33,33,33)" fill="none" stroke-linecap="round"></path><path d="M 163.000,237.000 C 164.955,237.279 165.022,237.220 167.000,237.000" stroke-width="16.262" stroke="rgb(33,33,33)" fill="none" stroke-linecap="round"></path><path d="M 167.000,237.000 C 169.522,236.720 170.591,237.831 172.000,236.000" stroke-width="16.121" stroke="rgb(33,33,33)" fill="none" stroke-linecap="round"></path><path d="M 172.000,236.000 C 175.591,231.331 175.390,230.259 177.000,224.000" stroke-width="14.913" stroke="rgb(33,33,33)" fill="none" stroke-linecap="round"></path><path d="M 177.000,224.000 C 179.890,212.759 179.583,212.573 181.000,201.000" stroke-width="12.973" stroke="rgb(33,33,33)" fill="none" stroke-linecap="round"></path><path d="M 181.000,201.000 C 182.583,188.073 181.820,187.984 183.000,175.000" stroke-width="11.410" stroke="rgb(33,33,33)" fill="none" stroke-linecap="round"></path><path d="M 183.000,175.000 C 184.320,160.484 184.474,160.497 186.000,146.000" stroke-width="10.317" stroke="rgb(33,33,33)" fill="none" stroke-linecap="round"></path><path d="M 186.000,146.000 C 187.474,131.997 187.626,132.012 189.000,118.000" stroke-width="9.636" stroke="rgb(33,33,33)" fill="none" stroke-linecap="round"></path><path d="M 189.000,118.000 C 190.126,106.512 190.394,106.517 191.000,95.000" stroke-width="9.333" stroke="rgb(33,33,33)" fill="none" stroke-linecap="round"></path><path d="M 191.000,95.000 C 191.394,87.517 190.688,87.483 191.000,80.000" stroke-width="9.587" stroke="rgb(33,33,33)" fill="none" stroke-linecap="round"></path><path d="M 191.000,80.000 C 191.188,75.483 191.653,75.508 192.000,71.000" stroke-width="10.110" stroke="rgb(33,33,33)" fill="none" stroke-linecap="round"></path><path d="M 192.000,71.000 C 192.153,69.008 191.600,68.600 192.000,67.000" stroke-width="10.964" stroke="rgb(33,33,33)" fill="none" stroke-linecap="round"></path><path d="M 192.000,67.000 C 192.100,66.600 192.929,66.571 193.000,67.000" stroke-width="11.982" stroke="rgb(33,33,33)" fill="none" stroke-linecap="round"></path><path d="M 193.000,67.000 C 193.429,69.571 192.794,70.009 193.000,73.000" stroke-width="12.480" stroke="rgb(33,33,33)" fill="none" stroke-linecap="round"></path><path d="M 193.000,73.000 C 193.794,84.509 194.280,84.482 195.000,96.000" stroke-width="11.334" stroke="rgb(33,33,33)" fill="none" stroke-linecap="round"></path><path d="M 195.000,96.000 C 195.780,108.482 195.510,108.500 196.000,121.000" stroke-width="10.527" stroke="rgb(33,33,33)" fill="none" stroke-linecap="round"></path><path d="M 196.000,121.000 C 196.510,134.000 196.717,133.996 197.000,147.000" stroke-width="9.810" stroke="rgb(33,33,33)" fill="none" stroke-linecap="round"></path><path d="M 197.000,147.000 C 197.217,156.996 197.000,157.000 197.000,167.000" stroke-width="9.766" stroke="rgb(33,33,33)" fill="none" stroke-linecap="round"></path><path d="M 197.000,167.000 C 197.000,175.500 197.000,175.500 197.000,184.000" stroke-width="9.776" stroke="rgb(33,33,33)" fill="none" stroke-linecap="round"></path><path d="M 197.000,184.000 C 197.000,189.000 197.000,189.000 197.000,194.000" stroke-width="10.217" stroke="rgb(33,33,33)" fill="none" stroke-linecap="round"></path><path d="M 197.000,194.000 C 197.000,196.000 197.857,196.857 197.000,198.000" stroke-width="11.049" stroke="rgb(33,33,33)" fill="none" stroke-linecap="round"></path><path d="M 197.000,198.000 C 196.357,198.857 194.848,198.989 194.000,198.000" stroke-width="11.901" stroke="rgb(33,33,33)" fill="none" stroke-linecap="round"></path><path d="M 194.000,198.000 C 191.848,195.489 191.821,194.693 191.000,191.000" stroke-width="12.267" stroke="rgb(33,33,33)" fill="none" stroke-linecap="round"></path><path d="M 191.000,191.000 C 188.821,181.193 189.116,181.044 188.000,171.000" stroke-width="11.419" stroke="rgb(33,33,33)" fill="none" stroke-linecap="round"></path><path d="M 188.000,171.000 C 186.616,158.544 186.582,158.517 186.000,146.000" stroke-width="10.480" stroke="rgb(33,33,33)" fill="none" stroke-linecap="round"></path><path d="M 186.000,146.000 C 185.582,137.017 185.294,136.947 186.000,128.000" stroke-width="10.407" stroke="rgb(33,33,33)" fill="none" stroke-linecap="round"></path><path d="M 186.000,128.000 C 186.794,117.947 186.442,117.719 189.000,108.000" stroke-width="10.078" stroke="rgb(33,33,33)" fill="none" stroke-linecap="round"></path><path d="M 189.000,108.000 C 191.442,98.719 191.237,98.272 196.000,90.000" stroke-width="9.952" stroke="rgb(33,33,33)" fill="none" stroke-linecap="round"></path><path d="M 196.000,90.000 C 200.737,81.772 201.150,81.552 208.000,75.000" stroke-width="9.860" stroke="rgb(33,33,33)" fill="none" stroke-linecap="round"></path><path d="M 208.000,75.000 C 212.650,70.552 213.004,70.159 219.000,68.000" stroke-width="10.095" stroke="rgb(33,33,33)" fill="none" stroke-linecap="round"></path><path d="M 219.000,68.000 C 225.504,65.659 226.175,65.269 233.000,66.000" stroke-width="10.273" stroke="rgb(33,33,33)" fill="none" stroke-linecap="round"></path><path d="M 233.000,66.000 C 240.175,66.769 242.575,65.806 247.000,71.000" stroke-width="10.375" stroke="rgb(33,33,33)" fill="none" stroke-linecap="round"></path><path d="M 247.000,71.000 C 254.075,79.306 253.429,81.546 256.000,93.000" stroke-width="9.921" stroke="rgb(33,33,33)" fill="none" stroke-linecap="round"></path><path d="M 256.000,93.000 C 258.929,106.046 258.000,106.496 258.000,120.000" stroke-width="9.412" stroke="rgb(33,33,33)" fill="none" stroke-linecap="round"></path><path d="M 258.000,120.000 C 258.000,134.996 260.096,135.919 256.000,150.000" stroke-width="8.721" stroke="rgb(33,33,33)" fill="none" stroke-linecap="round"></path><path d="M 256.000,150.000 C 252.096,163.419 250.251,163.396 242.000,175.000" stroke-width="8.456" stroke="rgb(33,33,33)" fill="none" stroke-linecap="round"></path><path d="M 242.000,175.000 C 234.251,185.896 233.242,185.230 224.000,195.000" stroke-width="8.258" stroke="rgb(33,33,33)" fill="none" stroke-linecap="round"></path><path d="M 224.000,195.000 C 215.742,203.730 215.025,203.083 207.000,212.000" stroke-width="8.284" stroke="rgb(33,33,33)" fill="none" stroke-linecap="round"></path><path d="M 207.000,212.000 C 201.525,218.083 201.676,218.279 197.000,225.000" stroke-width="8.622" stroke="rgb(33,33,33)" fill="none" stroke-linecap="round"></path><path d="M 197.000,225.000 C 193.676,229.779 192.875,229.688 191.000,235.000" stroke-width="9.138" stroke="rgb(33,33,33)" fill="none" stroke-linecap="round"></path><path d="M 191.000,235.000 C 189.875,238.188 189.610,239.022 191.000,242.000" stroke-width="9.828" stroke="rgb(33,33,33)" fill="none" stroke-linecap="round"></path><path d="M 191.000,242.000 C 193.110,246.522 193.312,248.034 198.000,250.000" stroke-width="10.262" stroke="rgb(33,33,33)" fill="none" stroke-linecap="round"></path><path d="M 198.000,250.000 C 208.812,254.534 210.023,252.396 222.000,255.000" stroke-width="9.796" stroke="rgb(33,33,33)" fill="none" stroke-linecap="round"></path><path d="M 222.000,255.000 C 233.023,257.396 232.888,258.290 244.000,260.000" stroke-width="9.482" stroke="rgb(33,33,33)" fill="none" stroke-linecap="round"></path><path d="M 244.000,260.000 C 252.388,261.290 252.492,260.764 261.000,261.000" stroke-width="9.653" stroke="rgb(33,33,33)" fill="none" stroke-linecap="round"></path><path d="M 261.000,261.000 C 270.492,261.264 270.500,261.000 280.000,261.000" stroke-width="9.571" stroke="rgb(33,33,33)" fill="none" stroke-linecap="round"></path><path d="M 280.000,261.000 C 285.000,261.000 285.838,262.821 290.000,261.000" stroke-width="10.074" stroke="rgb(33,33,33)" fill="none" stroke-linecap="round"></path><path d="M 290.000,261.000 C 293.838,259.321 294.545,258.183 296.000,254.000" stroke-width="10.528" stroke="rgb(33,33,33)" fill="none" stroke-linecap="round"></path><path d="M 296.000,254.000 C 298.545,246.683 297.577,246.036 298.000,238.000" stroke-width="10.501" stroke="rgb(33,33,33)" fill="none" stroke-linecap="round"></path><path d="M 298.000,238.000 C 298.577,227.036 299.208,226.870 298.000,216.000" stroke-width="10.036" stroke="rgb(33,33,33)" fill="none" stroke-linecap="round"></path><path d="M 298.000,216.000 C 296.708,204.370 295.201,204.556 293.000,193.000" stroke-width="9.684" stroke="rgb(33,33,33)" fill="none" stroke-linecap="round"></path><path d="M 293.000,193.000 C 291.201,183.556 291.485,183.502 290.000,174.000" stroke-width="9.647" stroke="rgb(33,33,33)" fill="none" stroke-linecap="round"></path><path d="M 290.000,174.000 C 288.985,167.502 288.594,167.531 288.000,161.000" stroke-width="9.908" stroke="rgb(33,33,33)" fill="none" stroke-linecap="round"></path><path d="M 288.000,161.000 C 287.594,156.531 288.000,156.500 288.000,152.000" stroke-width="10.433" stroke="rgb(33,33,33)" fill="none" stroke-linecap="round"></path><path d="M 288.000,152.000 C 288.000,149.500 288.000,149.500 288.000,147.000" stroke-width="11.178" stroke="rgb(33,33,33)" fill="none" stroke-linecap="round"></path><path d="M 288.000,147.000 C 288.000,145.500 288.000,143.400 288.000,144.000" stroke-width="12.005" stroke="rgb(33,33,33)" fill="none" stroke-linecap="round"></path><path d="M 288.000,144.000 C 288.000,145.400 287.711,147.529 288.000,151.000" stroke-width="12.721" stroke="rgb(33,33,33)" fill="none" stroke-linecap="round"></path><path d="M 288.000,151.000 C 288.211,153.529 287.668,154.135 289.000,156.000" stroke-width="13.234" stroke="rgb(33,33,33)" fill="none" stroke-linecap="round"></path><path d="M 289.000,156.000 C 290.168,157.635 290.865,157.573 293.000,158.000" stroke-width="13.683" stroke="rgb(33,33,33)" fill="none" stroke-linecap="round"></path><path d="M 293.000,158.000 C 295.865,158.573 297.002,159.873 299.000,158.000" stroke-width="13.922" stroke="rgb(33,33,33)" fill="none" stroke-linecap="round"></path><path d="M 299.000,158.000 C 305.002,152.373 305.160,151.084 309.000,143.000" stroke-width="12.744" stroke="rgb(33,33,33)" fill="none" stroke-linecap="round"></path><path d="M 309.000,143.000 C 314.660,131.084 313.800,130.600 318.000,118.000" stroke-width="11.352" stroke="rgb(33,33,33)" fill="none" stroke-linecap="round"></path><path d="M 318.000,118.000 C 321.800,106.600 321.106,106.358 325.000,95.000" stroke-width="10.691" stroke="rgb(33,33,33)" fill="none" stroke-linecap="round"></path><path d="M 325.000,95.000 C 327.106,88.858 327.239,88.868 330.000,83.000" stroke-width="10.722" stroke="rgb(33,33,33)" fill="none" stroke-linecap="round"></path><path d="M 330.000,83.000 C 331.239,80.368 331.293,80.134 333.000,78.000" stroke-width="11.379" stroke="rgb(33,33,33)" fill="none" stroke-linecap="round"></path><path d="M 333.000,78.000 C 333.293,77.634 333.955,77.545 334.000,78.000" stroke-width="12.382" stroke="rgb(33,33,33)" fill="none" stroke-linecap="round"></path><path d="M 334.000,78.000 C 334.455,82.545 334.566,83.045 334.000,88.000" stroke-width="12.398" stroke="rgb(33,33,33)" fill="none" stroke-linecap="round"></path><path d="M 334.000,88.000 C 332.566,100.545 332.481,100.593 330.000,113.000" stroke-width="11.222" stroke="rgb(33,33,33)" fill="none" stroke-linecap="round"></path><path d="M 330.000,113.000 C 326.481,130.593 326.591,130.657 322.000,148.000" stroke-width="9.802" stroke="rgb(33,33,33)" fill="none" stroke-linecap="round"></path><path d="M 322.000,148.000 C 317.591,164.657 316.699,164.415 312.000,181.000" stroke-width="8.867" stroke="rgb(33,33,33)" fill="none" stroke-linecap="round"></path><path d="M 312.000,181.000 C 308.199,194.415 308.078,194.405 305.000,208.000" stroke-width="8.598" stroke="rgb(33,33,33)" fill="none" stroke-linecap="round"></path><path d="M 305.000,208.000 C 302.078,220.905 301.424,220.897 300.000,234.000" stroke-width="8.453" stroke="rgb(33,33,33)" fill="none" stroke-linecap="round"></path><path d="M 300.000,234.000 C 298.924,243.897 299.431,244.038 300.000,254.000" stroke-width="8.557" stroke="rgb(33,33,33)" fill="none" stroke-linecap="round"></path><path d="M 300.000,254.000 C 300.431,261.538 298.332,263.132 302.000,269.000" stroke-width="8.916" stroke="rgb(33,33,33)" fill="none" stroke-linecap="round"></path><path d="M 302.000,269.000 C 305.832,275.132 307.667,276.167 315.000,278.000" stroke-width="9.192" stroke="rgb(33,33,33)" fill="none" stroke-linecap="round"></path></svg>