<svg xmlns="http://www.w3.org/2000/svg" xmlns:xlink="http://www.w3.org/1999/xlink" viewBox="0 0 800 500"><path d="M 162.500,219.500 C 162.500,220.000 162.500,220.000 162.500,220.500" stroke-width="20.075" stroke="rgb(33,33,33)" fill="none" stroke-linecap="round"></path><path d="M 162.500,220.500 C 162.500,224.500 162.965,224.551 162.500,228.500" stroke-width="16.778" stroke="rgb(33,33,33)" fill="none" stroke-linecap="round"></path><path d="M 162.500,228.500 C 161.965,233.051 161.182,232.950 160.500,237.500" stroke-width="14.776" stroke="rgb(33,33,33)" fill="none" stroke-linecap="round"></path><path d="M 160.500,237.500 C 159.682,242.950 160.318,243.050 159.500,248.500" stroke-width="12.563" stroke="rgb(33,33,33)" fill="none" stroke-linecap="round"></path><path d="M 159.500,248.500 C 158.818,253.050 157.980,252.943 157.500,257.500" stroke-width="12.097" stroke="rgb(33,33,33)" fill="none" stroke-linecap="round"></path><path d="M 157.500,257.500 C 156.980,262.443 157.793,262.521 157.500,267.500" stroke-width="10.815" stroke="rgb(33,33,33)" fill="none" stroke-linecap="round"></path><path d="M 157.500,267.500 C 157.293,271.021 157.239,271.051 156.500,274.500" stroke-width="10.472" stroke="rgb(33,33,33)" fill="none" stroke-linecap="round"></path><path d="M 156.500,274.500 C 155.739,278.051 155.093,277.943 154.500,281.500" stroke-width="10.609" stroke="rgb(33,33,33)" fill="none" stroke-linecap="round"></path><path d="M 154.500,281.500 C 154.093,283.943 154.500,284.000 154.500,286.500" stroke-width="10.830" stroke="rgb(33,33,33)" fill="none" stroke-linecap="round"></path><path d="M 154.500,286.500 C 154.500,288.000 154.500,288.000 154.500,289.500" stroke-width="11.489" stroke="rgb(33,33,33)" fill="none" stroke-linecap="round"></path><path d="M 154.500,289.500 C 154.500,290.000 154.500,290.000 154.500,290.500" stroke-width="12.358" stroke="rgb(33,33,33)" fill="none" stroke-linecap="round"></path><path d="M 154.500,290.500 C 154.500,291.000 154.809,291.500 154.500,291.500" stroke-width="13.277" stroke="rgb(33,33,33)" fill="none" stroke-linecap="round"></path><path d="M 154.500,291.500 C 153.809,291.500 153.087,291.380 152.500,290.500" stroke-width="13.984" stroke="rgb(33,33,33)" fill="none" stroke-linecap="round"></path><path d="M 152.500,290.500 C 151.087,288.380 151.536,287.985 150.500,285.500" stroke-width="13.562" stroke="rgb(33,33,33)" fill="none" stroke-linecap="round"></path><path d="M 150.500,285.500 C 149.036,281.985 148.701,282.104 147.500,278.500" stroke-width="12.777" stroke="rgb(33,33,33)" fill="none" stroke-linecap="round"></path><path d="M 147.500,278.500 C 145.701,273.104 146.442,272.840 144.500,267.500" stroke-width="11.552" stroke="rgb(33,33,33)" fill="none" stroke-linecap="round"></path><path d="M 144.500,267.500 C 142.442,261.840 141.594,262.155 139.500,256.500" stroke-width="10.397" stroke="rgb(33,33,33)" fill="none" stroke-linecap="round"></path><path d="M 139.500,256.500 C 136.594,248.655 136.727,248.574 134.500,240.500" stroke-width="9.052" stroke="rgb(33,33,33)" fill="none" stroke-linecap="round"></path><path d="M 134.500,240.500 C 132.727,234.074 133.392,233.885 131.500,227.500" stroke-width="8.858" stroke="rgb(33,33,33)" fill="none" stroke-linecap="round"></path><path d="M 131.500,227.500 C 129.392,220.385 129.454,220.294 126.500,213.500" stroke-width="8.253" stroke="rgb(33,33,33)" fill="none" stroke-linecap="round"></path><path d="M 126.500,213.500 C 124.454,208.794 124.000,209.000 121.500,204.500" stroke-width="8.467" stroke="rgb(33,33,33)" fill="none" stroke-linecap="round"></path><path d="M 121.500,204.500 C 119.000,200.000 118.486,200.217 116.500,195.500" stroke-width="8.411" stroke="rgb(33,33,33)" fill="none" stroke-linecap="round"></path><path d="M 116.500,195.500 C 114.486,190.717 115.035,190.489 113.500,185.500" stroke-width="8.588" stroke="rgb(33,33,33)" fill="none" stroke-linecap="round"></path><path d="M 113.500,185.500 C 113.035,183.989 112.721,184.045 112.500,182.500" stroke-width="9.303" stroke="rgb(33,33,33)" fill="none" stroke-linecap="round"></path><path d="M 112.500,182.500 C 112.221,180.545 112.500,180.500 112.500,178.500" stroke-width="9.760" stroke="rgb(33,33,33)" fill="none" stroke-linecap="round"></path><path d="M 112.500,178.500 C 112.500,178.000 112.250,177.750 112.500,177.500" stroke-width="10.744" stroke="rgb(33,33,33)" fill="none" stroke-linecap="round"></path><path d="M 112.500,177.500 C 112.750,177.250 113.000,177.500 113.500,177.500" stroke-width="11.686" stroke="rgb(33,33,33)" fill="none" stroke-linecap="round"></path><path d="M 113.500,177.500 C 116.000,177.500 116.000,177.500 118.500,177.500" stroke-width="11.833" stroke="rgb(33,33,33)" fill="none" stroke-linecap="round"></path><path d="M 118.500,177.500 C 123.500,177.500 123.594,176.799 128.500,177.500" stroke-width="11.132" stroke="rgb(33,33,33)" fill="none" stroke-linecap="round"></path><path d="M 128.500,177.500 C 134.094,178.299 133.948,179.219 139.500,180.500" stroke-width="10.437" stroke="rgb(33,33,33)" fill="none" stroke-linecap="round"></path><path d="M 139.500,180.500 C 146.948,182.219 146.991,182.047 154.500,183.500" stroke-width="8.952" stroke="rgb(33,33,33)" fill="none" stroke-linecap="round"></path><path d="M 154.500,183.500 C 162.491,185.047 162.540,184.811 170.500,186.500" stroke-width="8.379" stroke="rgb(33,33,33)" fill="none" stroke-linecap="round"></path><path d="M 170.500,186.500 C 179.040,188.311 179.141,188.015 187.500,190.500" stroke-width="7.880" stroke="rgb(33,33,33)" fill="none" stroke-linecap="round"></path><path d="M 187.500,190.500 C 197.641,193.515 197.675,193.570 207.500,197.500" stroke-width="7.557" stroke="rgb(33,33,33)" fill="none" stroke-linecap="round"></path><path d="M 207.500,197.500 C 215.175,200.570 214.861,201.339 222.500,204.500" stroke-width="6.993" stroke="rgb(33,33,33)" fill="none" stroke-linecap="round"></path><path d="M 222.500,204.500 C 229.361,207.339 229.843,206.316 236.500,209.500" stroke-width="7.113" stroke="rgb(33,33,33)" fill="none" stroke-linecap="round"></path><path d="M 236.500,209.500 C 241.343,211.816 240.904,212.655 245.500,215.500" stroke-width="7.267" stroke="rgb(33,33,33)" fill="none" stroke-linecap="round"></path><path d="M 245.500,215.500 C 251.404,219.155 251.988,218.366 257.500,222.500" stroke-width="7.001" stroke="rgb(33,33,33)" fill="none" stroke-linecap="round"></path><path d="M 257.500,222.500 C 261.988,225.866 261.655,226.359 265.500,230.500" stroke-width="7.390" stroke="rgb(33,33,33)" fill="none" stroke-linecap="round"></path><path d="M 265.500,230.500 C 268.155,233.359 267.854,233.633 270.500,236.500" stroke-width="7.635" stroke="rgb(33,33,33)" fill="none" stroke-linecap="round"></path><path d="M 270.500,236.500 C 273.854,240.133 275.066,239.363 277.500,243.500" stroke-width="7.881" stroke="rgb(33,33,33)" fill="none" stroke-linecap="round"></path><path d="M 277.500,243.500 C 280.066,247.863 279.429,248.413 280.500,253.500" stroke-width="8.047" stroke="rgb(33,33,33)" fill="none" stroke-linecap="round"></path><path d="M 280.500,253.500 C 281.429,257.913 280.523,258.105 281.500,262.500" stroke-width="8.300" stroke="rgb(33,33,33)" fill="none" stroke-linecap="round"></path><path d="M 281.500,262.500 C 282.523,267.105 283.730,266.881 284.500,271.500" stroke-width="8.477" stroke="rgb(33,33,33)" fill="none" stroke-linecap="round"></path><path d="M 284.500,271.500 C 285.230,275.881 284.500,276.000 284.500,280.500" stroke-width="8.668" stroke="rgb(33,33,33)" fill="none" stroke-linecap="round"></path><path d="M 284.500,280.500 C 284.500,284.500 284.500,284.500 284.500,288.500" stroke-width="8.670" stroke="rgb(33,33,33)" fill="none" stroke-linecap="round"></path><path d="M 284.500,288.500 C 284.500,292.000 284.500,292.000 284.500,295.500" stroke-width="9.105" stroke="rgb(33,33,33)" fill="none" stroke-linecap="round"></path><path d="M 284.500,295.500 C 284.500,297.000 284.500,297.000 284.500,298.500" stroke-width="9.807" stroke="rgb(33,33,33)" fill="none" stroke-linecap="round"></path><path d="M 284.500,298.500 C 284.500,301.000 285.139,301.265 284.500,303.500" stroke-width="10.316" stroke="rgb(33,33,33)" fill="none" stroke-linecap="round"></path><path d="M 284.500,303.500 C 284.139,304.765 283.662,304.725 282.500,305.500" stroke-width="10.939" stroke="rgb(33,33,33)" fill="none" stroke-linecap="round"></path><path d="M 282.500,305.500 C 280.662,306.725 280.573,306.809 278.500,307.500" stroke-width="11.438" stroke="rgb(33,33,33)" fill="none" stroke-linecap="round"></path><path d="M 278.500,307.500 C 277.573,307.809 277.500,307.500 276.500,307.500" stroke-width="11.937" stroke="rgb(33,33,33)" fill="none" stroke-linecap="round"></path><path d="M 276.500,307.500 C 274.000,307.500 273.975,307.748 271.500,307.500" stroke-width="11.912" stroke="rgb(33,33,33)" fill="none" stroke-linecap="round"></path><path d="M 271.500,307.500 C 268.975,307.248 268.972,307.118 266.500,306.500" stroke-width="12.001" stroke="rgb(33,33,33)" fill="none" stroke-linecap="round"></path><path d="M 266.500,306.500 C 260.972,305.118 261.030,304.882 255.500,303.500" stroke-width="11.036" stroke="rgb(33,33,33)" fill="none" stroke-linecap="round"></path><path d="M 255.500,303.500 C 249.030,301.882 248.712,302.801 242.500,300.500" stroke-width="10.117" stroke="rgb(33,33,33)" fill="none" stroke-linecap="round"></path><path d="M 242.500,300.500 C 235.212,297.801 235.660,296.613 228.500,293.500" stroke-width="9.236" stroke="rgb(33,33,33)" fill="none" stroke-linecap="round"></path><path d="M 228.500,293.500 C 224.160,291.613 223.925,292.202 219.500,290.500" stroke-width="9.242" stroke="rgb(33,33,33)" fill="none" stroke-linecap="round"></path><path d="M 219.500,290.500 C 210.925,287.202 211.070,286.817 202.500,283.500" stroke-width="7.892" stroke="rgb(33,33,33)" fill="none" stroke-linecap="round"></path><path d="M 202.500,283.500 C 195.570,280.817 195.607,280.654 188.500,278.500" stroke-width="7.840" stroke="rgb(33,33,33)" fill="none" stroke-linecap="round"></path><path d="M 188.500,278.500 C 179.107,275.654 178.953,276.166 169.500,273.500" stroke-width="7.161" stroke="rgb(33,33,33)" fill="none" stroke-linecap="round"></path><path d="M 169.500,273.500 C 159.453,270.666 159.507,270.475 149.500,267.500" stroke-width="7.032" stroke="rgb(33,33,33)" fill="none" stroke-linecap="round"></path><path d="M 149.500,267.500 C 141.007,264.975 141.139,264.333 132.500,262.500" stroke-width="6.750" stroke="rgb(33,33,33)" fill="none" stroke-linecap="round"></path><path d="M 132.500,262.500 C 124.639,260.833 124.512,261.390 116.500,260.500" stroke-width="6.821" stroke="rgb(33,33,33)" fill="none" stroke-linecap="round"></path><path d="M 116.500,260.500 C 111.012,259.890 110.950,260.318 105.500,259.500" stroke-width="6.750" stroke="rgb(33,33,33)" fill="none" stroke-linecap="round"></path><path d="M 105.500,259.500 C 100.950,258.818 101.043,258.106 96.500,257.500" stroke-width="6.933" stroke="rgb(33,33,33)" fill="none" stroke-linecap="round"></path><path d="M 96.500,257.500 C 93.543,257.106 93.484,257.730 90.500,257.500" stroke-width="7.537" stroke="rgb(33,33,33)" fill="none" stroke-linecap="round"></path><path d="M 90.500,257.500 C 86.984,257.230 87.013,256.819 83.500,256.500" stroke-width="8.016" stroke="rgb(33,33,33)" fill="none" stroke-linecap="round"></path><path d="M 83.500,256.500 C 81.513,256.319 81.500,256.500 79.500,256.500" stroke-width="8.725" stroke="rgb(33,33,33)" fill="none" stroke-linecap="round"></path><path d="M 79.500,256.500 C 78.500,256.500 77.500,256.500 77.500,256.500" stroke-width="9.612" stroke="rgb(33,33,33)" fill="none" stroke-linecap="round"></path><path d="M 77.500,256.500 C 77.500,256.500 78.552,256.215 79.500,256.500" stroke-width="10.699" stroke="rgb(33,33,33)" fill="none" stroke-linecap="round"></path><path d="M 79.500,256.500 C 83.552,257.715 83.401,258.329 87.500,259.500" stroke-width="10.504" stroke="rgb(33,33,33)" fill="none" stroke-linecap="round"></path><path d="M 87.500,259.500 C 93.901,261.329 94.042,260.834 100.500,262.500" stroke-width="9.933" stroke="rgb(33,33,33)" fill="none" stroke-linecap="round"></path><path d="M 100.500,262.500 C 109.542,264.834 109.379,265.546 118.500,267.500" stroke-width="8.563" stroke="rgb(33,33,33)" fill="none" stroke-linecap="round"></path><path d="M 118.500,267.500 C 130.379,270.046 130.500,269.500 142.500,271.500" stroke-width="7.500" stroke="rgb(33,33,33)" fill="none" stroke-linecap="round"></path><path d="M 142.500,271.500 C 154.500,273.500 154.494,273.540 166.500,275.500" stroke-width="6.822" stroke="rgb(33,33,33)" fill="none" stroke-linecap="round"></path><path d="M 166.500,275.500 C 178.994,277.540 178.983,277.611 191.500,279.500" stroke-width="6.750" stroke="rgb(33,33,33)" fill="none" stroke-linecap="round"></path><path d="M 191.500,279.500 C 205.483,281.611 205.448,282.036 219.500,283.500" stroke-width="6.750" stroke="rgb(33,33,33)" fill="none" stroke-linecap="round"></path><path d="M 219.500,283.500 C 229.448,284.536 229.545,283.505 239.500,284.500" stroke-width="6.750" stroke="rgb(33,33,33)" fill="none" stroke-linecap="round"></path><path d="M 239.500,284.500 C 254.545,286.005 254.481,286.661 269.500,288.500" stroke-width="6.750" stroke="rgb(33,33,33)" fill="none" stroke-linecap="round"></path><path d="M 269.500,288.500 C 278.981,289.661 278.975,289.971 288.500,290.500" stroke-width="6.750" stroke="rgb(33,33,33)" fill="none" stroke-linecap="round"></path><path d="M 288.500,290.500 C 296.975,290.971 297.025,290.029 305.500,290.500" stroke-width="6.750" stroke="rgb(33,33,33)" fill="none" stroke-linecap="round"></path><path d="M 305.500,290.500 C 315.025,291.029 314.973,292.011 324.500,292.500" stroke-width="6.750" stroke="rgb(33,33,33)" fill="none" stroke-linecap="round"></path><path d="M 324.500,292.500 C 334.473,293.011 334.722,293.762 344.500,292.500" stroke-width="6.750" stroke="rgb(33,33,33)" fill="none" stroke-linecap="round"></path><path d="M 344.500,292.500 C 350.222,291.762 350.180,290.894 355.500,288.500" stroke-width="6.750" stroke="rgb(33,33,33)" fill="none" stroke-linecap="round"></path><path d="M 355.500,288.500 C 360.180,286.394 360.686,286.769 364.500,283.500" stroke-width="6.750" stroke="rgb(33,33,33)" fill="none" stroke-linecap="round"></path><path d="M 364.500,283.500 C 367.686,280.769 367.598,280.304 369.500,276.500" stroke-width="6.750" stroke="rgb(33,33,33)" fill="none" stroke-linecap="round"></path><path d="M 369.500,276.500 C 371.598,272.304 371.304,272.083 372.500,267.500" stroke-width="6.750" stroke="rgb(33,33,33)" fill="none" stroke-linecap="round"></path><path d="M 372.500,267.500 C 374.304,260.583 374.538,260.557 375.500,253.500" stroke-width="6.750" stroke="rgb(33,33,33)" fill="none" stroke-linecap="round"></path><path d="M 375.500,253.500 C 376.038,249.557 375.500,249.500 375.500,245.500" stroke-width="7.111" stroke="rgb(33,33,33)" fill="none" stroke-linecap="round"></path><path d="M 375.500,245.500 C 375.500,241.000 375.500,241.000 375.500,236.500" stroke-width="7.491" stroke="rgb(33,33,33)" fill="none" stroke-linecap="round"></path><path d="M 375.500,236.500 C 375.500,233.000 375.500,233.000 375.500,229.500" stroke-width="7.980" stroke="rgb(33,33,33)" fill="none" stroke-linecap="round"></path><path d="M 375.500,229.500 C 375.500,226.500 375.500,226.500 375.500,223.500" stroke-width="8.568" stroke="rgb(33,33,33)" fill="none" stroke-linecap="round"></path><path d="M 375.500,223.500 C 375.500,221.000 375.500,221.000 375.500,218.500" stroke-width="8.840" stroke="rgb(33,33,33)" fill="none" stroke-linecap="round"></path><path d="M 375.500,218.500 C 375.500,217.000 375.500,217.000 375.500,215.500" stroke-width="9.646" stroke="rgb(33,33,33)" fill="none" stroke-linecap="round"></path><path d="M 375.500,215.500 C 375.500,214.500 375.833,214.167 375.500,213.500" stroke-width="10.457" stroke="rgb(33,33,33)" fill="none" stroke-linecap="round"></path><path d="M 375.500,213.500 C 375.333,213.167 374.881,213.214 374.500,213.500" stroke-width="11.553" stroke="rgb(33,33,33)" fill="none" stroke-linecap="round"></path><path d="M 374.500,213.500 C 372.881,214.714 372.322,214.651 371.500,216.500" stroke-width="12.178" stroke="rgb(33,33,33)" fill="none" stroke-linecap="round"></path><path d="M 371.500,216.500 C 370.322,219.151 371.824,219.852 370.500,222.500" stroke-width="12.037" stroke="rgb(33,33,33)" fill="none" stroke-linecap="round"></path><path d="M 370.500,222.500 C 368.324,226.852 367.055,226.242 364.500,230.500" stroke-width="11.276" stroke="rgb(33,33,33)" fill="none" stroke-linecap="round"></path><path d="M 364.500,230.500 C 362.555,233.742 362.836,233.938 361.500,237.500" stroke-width="11.213" stroke="rgb(33,33,33)" fill="none" stroke-linecap="round"></path><path d="M 361.500,237.500 C 359.836,241.938 360.078,242.028 358.500,246.500" stroke-width="10.570" stroke="rgb(33,33,33)" fill="none" stroke-linecap="round"></path><path d="M 358.500,246.500 C 357.078,250.528 356.668,250.411 355.500,254.500" stroke-width="10.405" stroke="rgb(33,33,33)" fill="none" stroke-linecap="round"></path><path d="M 355.500,254.500 C 354.668,257.411 355.296,257.583 354.500,260.500" stroke-width="10.333" stroke="rgb(33,33,33)" fill="none" stroke-linecap="round"></path><path d="M 354.500,260.500 C 353.796,263.083 353.074,262.918 352.500,265.500" stroke-width="10.644" stroke="rgb(33,33,33)" fill="none" stroke-linecap="round"></path><path d="M 352.500,265.500 C 352.074,267.418 352.500,267.500 352.500,269.500" stroke-width="11.114" stroke="rgb(33,33,33)" fill="none" stroke-linecap="round"></path><path d="M 352.500,269.500 C 352.500,270.000 352.379,270.862 352.500,270.500" stroke-width="12.035" stroke="rgb(33,33,33)" fill="none" stroke-linecap="round"></path><path d="M 352.500,270.500 C 353.379,267.862 353.050,266.814 354.500,263.500" stroke-width="12.835" stroke="rgb(33,33,33)" fill="none" stroke-linecap="round"></path><path d="M 354.500,263.500 C 356.550,258.814 357.602,259.245 359.500,254.500" stroke-width="11.776" stroke="rgb(33,33,33)" fill="none" stroke-linecap="round"></path><path d="M 359.500,254.500 C 361.602,249.245 361.567,249.098 362.500,243.500" stroke-width="10.883" stroke="rgb(33,33,33)" fill="none" stroke-linecap="round"></path><path d="M 362.500,243.500 C 363.567,237.098 362.396,236.902 363.500,230.500" stroke-width="10.052" stroke="rgb(33,33,33)" fill="none" stroke-linecap="round"></path><path d="M 363.500,230.500 C 364.896,222.402 366.110,222.608 367.500,214.500" stroke-width="8.576" stroke="rgb(33,33,33)" fill="none" stroke-linecap="round"></path><path d="M 367.500,214.500 C 369.110,205.108 368.940,205.023 369.500,195.500" stroke-width="8.056" stroke="rgb(33,33,33)" fill="none" stroke-linecap="round"></path><path d="M 369.500,195.500 C 369.940,188.023 369.188,187.983 369.500,180.500" stroke-width="7.672" stroke="rgb(33,33,33)" fill="none" stroke-linecap="round"></path><path d="M 369.500,180.500 C 369.688,175.983 370.178,176.010 370.500,171.500" stroke-width="7.979" stroke="rgb(33,33,33)" fill="none" stroke-linecap="round"></path><path d="M 370.500,171.500 C 370.678,169.010 370.748,166.500 370.500,166.500" stroke-width="8.597" stroke="rgb(33,33,33)" fill="none" stroke-linecap="round"></path><path d="M 370.500,166.500 C 370.248,166.500 369.919,168.986 369.500,171.500" stroke-width="9.592" stroke="rgb(33,33,33)" fill="none" stroke-linecap="round"></path><path d="M 369.500,171.500 C 368.419,177.986 368.617,178.020 367.500,184.500" stroke-width="9.131" stroke="rgb(33,33,33)" fill="none" stroke-linecap="round"></path><path d="M 367.500,184.500 C 366.117,192.520 365.883,192.480 364.500,200.500" stroke-width="8.504" stroke="rgb(33,33,33)" fill="none" stroke-linecap="round"></path><path d="M 364.500,200.500 C 363.383,206.980 362.967,206.959 362.500,213.500" stroke-width="8.320" stroke="rgb(33,33,33)" fill="none" stroke-linecap="round"></path><path d="M 362.500,213.500 C 361.967,220.959 362.500,221.000 362.500,228.500" stroke-width="7.650" stroke="rgb(33,33,33)" fill="none" stroke-linecap="round"></path><path d="M 362.500,228.500 C 362.500,235.000 362.500,235.000 362.500,241.500" stroke-width="7.663" stroke="rgb(33,33,33)" fill="none" stroke-linecap="round"></path><path d="M 362.500,241.500 C 362.500,245.500 362.500,245.500 362.500,249.500" stroke-width="8.055" stroke="rgb(33,33,33)" fill="none" stroke-linecap="round"></path><path d="M 362.500,249.500 C 362.500,252.000 361.750,252.250 362.500,254.500" stroke-width="8.668" stroke="rgb(33,33,33)" fill="none" stroke-linecap="round"></path><path d="M 362.500,254.500 C 363.250,256.750 363.941,256.551 365.500,258.500" stroke-width="9.336" stroke="rgb(33,33,33)" fill="none" stroke-linecap="round"></path><path d="M 365.500,258.500 C 365.941,259.051 365.879,259.293 366.500,259.500" stroke-width="10.215" stroke="rgb(33,33,33)" fill="none" stroke-linecap="round"></path><path d="M 366.500,259.500 C 367.379,259.793 367.500,259.500 368.500,259.500" stroke-width="11.064" stroke="rgb(33,33,33)" fill="none" stroke-linecap="round"></path><path d="M 368.500,259.500 C 369.500,259.500 369.500,259.500 370.500,259.500" stroke-width="11.610" stroke="rgb(33,33,33)" fill="none" stroke-linecap="round"></path><path d="M 370.500,259.500 C 371.000,259.500 371.174,259.826 371.500,259.500" stroke-width="12.497" stroke="rgb(33,33,33)" fill="none" stroke-linecap="round"></path><path d="M 371.500,259.500 C 372.674,258.326 372.774,258.134 373.500,256.500" stroke-width="12.764" stroke="rgb(33,33,33)" fill="none" stroke-linecap="round"></path><path d="M 373.500,256.500 C 374.774,253.634 374.366,253.449 375.500,250.500" stroke-width="12.580" stroke="rgb(33,33,33)" fill="none" stroke-linecap="round"></path><path d="M 375.500,250.500 C 376.866,246.949 377.463,247.130 378.500,243.500" stroke-width="11.874" stroke="rgb(33,33,33)" fill="none" stroke-linecap="round"></path><path d="M 378.500,243.500 C 379.463,240.130 378.761,239.949 379.500,236.500" stroke-width="11.763" stroke="rgb(33,33,33)" fill="none" stroke-linecap="round"></path><path d="M 379.500,236.500 C 380.261,232.949 380.739,233.051 381.500,229.500" stroke-width="11.344" stroke="rgb(33,33,33)" fill="none" stroke-linecap="round"></path><path d="M 381.500,229.500 C 382.239,226.051 381.761,225.949 382.500,222.500" stroke-width="10.865" stroke="rgb(33,33,33)" fill="none" stroke-linecap="round"></path><path d="M 382.500,222.500 C 383.261,218.949 383.162,218.844 384.500,215.500" stroke-width="10.811" stroke="rgb(33,33,33)" fill="none" stroke-linecap="round"></path><path d="M 384.500,215.500 C 385.162,213.844 385.607,214.062 386.500,212.500" stroke-width="11.322" stroke="rgb(33,33,33)" fill="none" stroke-linecap="round"></path><path d="M 386.500,212.500 C 387.607,210.562 386.843,209.743 388.500,208.500" stroke-width="11.620" stroke="rgb(33,33,33)" fill="none" stroke-linecap="round"></path><path d="M 388.500,208.500 C 390.843,206.743 391.421,207.013 394.500,206.500" stroke-width="11.557" stroke="rgb(33,33,33)" fill="none" stroke-linecap="round"></path><path d="M 394.500,206.500 C 397.421,206.013 397.500,206.500 400.500,206.500" stroke-width="11.560" stroke="rgb(33,33,33)" fill="none" stroke-linecap="round"></path><path d="M 400.500,206.500 C 404.000,206.500 404.000,206.500 407.500,206.500" stroke-width="11.037" stroke="rgb(33,33,33)" fill="none" stroke-linecap="round"></path><path d="M 407.500,206.500 C 411.500,206.500 411.500,206.500 415.500,206.500" stroke-width="11.079" stroke="rgb(33,33,33)" fill="none" stroke-linecap="round"></path><path d="M 415.500,206.500 C 423.000,206.500 423.052,207.073 430.500,206.500" stroke-width="9.365" stroke="rgb(33,33,33)" fill="none" stroke-linecap="round"></path><path d="M 430.500,206.500 C 436.052,206.073 435.955,205.004 441.500,204.500" stroke-width="9.296" stroke="rgb(33,33,33)" fill="none" stroke-linecap="round"></path><path d="M 441.500,204.500 C 446.955,204.004 447.000,204.500 452.500,204.500" stroke-width="8.973" stroke="rgb(33,33,33)" fill="none" stroke-linecap="round"></path><path d="M 452.500,204.500 C 455.000,204.500 455.000,204.500 457.500,204.500" stroke-width="9.567" stroke="rgb(33,33,33)" fill="none" stroke-linecap="round"></path><path d="M 457.500,204.500 C 458.500,204.500 458.500,204.500 459.500,204.500" stroke-width="10.382" stroke="rgb(33,33,33)" fill="none" stroke-linecap="round"></path><path d="M 459.500,204.500 C 460.500,204.500 460.500,204.500 461.500,204.500" stroke-width="11.186" stroke="rgb(33,33,33)" fill="none" stroke-linecap="round"></path><path d="M 461.500,204.500 C 462.000,204.500 462.500,204.707 462.500,204.500" stroke-width="12.180" stroke="rgb(33,33,33)" fill="none" stroke-linecap="round"></path><path d="M 462.500,204.500 C 462.500,204.207 462.167,203.667 461.500,203.500" stroke-width="13.171" stroke="rgb(33,33,33)" fill="none" stroke-linecap="round"></path><path d="M 461.500,203.500 C 458.167,202.667 457.945,203.266 454.500,202.500" stroke-width="12.603" stroke="rgb(33,33,33)" fill="none" stroke-linecap="round"></path><path d="M 454.500,202.500 C 448.945,201.266 448.928,201.227 443.500,199.500" stroke-width="11.438" stroke="rgb(33,33,33)" fill="none" stroke-linecap="round"></path><path d="M 443.500,199.500 C 437.928,197.727 438.049,197.350 432.500,195.500" stroke-width="10.608" stroke="rgb(33,33,33)" fill="none" stroke-linecap="round"></path><path d="M 432.500,195.500 C 429.049,194.350 429.030,194.382 425.500,193.500" stroke-width="10.720" stroke="rgb(33,33,33)" fill="none" stroke-linecap="round"></path><path d="M 425.500,193.500 C 421.030,192.382 421.047,192.068 416.500,191.500" stroke-width="10.255" stroke="rgb(33,33,33)" fill="none" stroke-linecap="round"></path><path d="M 416.500,191.500 C 413.047,191.068 413.000,191.500 409.500,191.500" stroke-width="10.360" stroke="rgb(33,33,33)" fill="none" stroke-linecap="round"></path><path d="M 409.500,191.500 C 406.500,191.500 406.500,191.500 403.500,191.500" stroke-width="10.581" stroke="rgb(33,33,33)" fill="none" stroke-linecap="round"></path><path d="M 403.500,191.500 C 401.500,191.500 401.500,191.500 399.500,191.500" stroke-width="11.127" stroke="rgb(33,33,33)" fill="none" stroke-linecap="round"></path><path d="M 399.500,191.500 C 398.500,191.500 398.500,191.500 397.500,191.500" stroke-width="11.665" stroke="rgb(33,33,33)" fill="none" stroke-linecap="round"></path><path d="M 397.500,191.500 C 397.000,191.500 396.125,191.500 396.500,191.500" stroke-width="12.549" stroke="rgb(33,33,33)" fill="none" stroke-linecap="round"></path><path d="M 396.500,191.500 C 399.125,191.500 400.012,191.718 403.500,191.500" stroke-width="13.402" stroke="rgb(33,33,33)" fill="none" stroke-linecap="round"></path><path d="M 403.500,191.500 C 408.012,191.218 408.008,191.062 412.500,190.500" stroke-width="12.384" stroke="rgb(33,33,33)" fill="none" stroke-linecap="round"></path><path d="M 412.500,190.500 C 420.008,189.562 420.063,189.852 427.500,188.500" stroke-width="10.062" stroke="rgb(33,33,33)" fill="none" stroke-linecap="round"></path><path d="M 427.500,188.500 C 436.563,186.852 436.462,186.308 445.500,184.500" stroke-width="9.294" stroke="rgb(33,33,33)" fill="none" stroke-linecap="round"></path><path d="M 445.500,184.500 C 453.962,182.808 454.198,183.714 462.500,181.500" stroke-width="8.041" stroke="rgb(33,33,33)" fill="none" stroke-linecap="round"></path><path d="M 462.500,181.500 C 469.198,179.714 468.927,178.786 475.500,176.500" stroke-width="7.901" stroke="rgb(33,33,33)" fill="none" stroke-linecap="round"></path><path d="M 475.500,176.500 C 480.427,174.786 480.688,175.425 485.500,173.500" stroke-width="8.063" stroke="rgb(33,33,33)" fill="none" stroke-linecap="round"></path><path d="M 485.500,173.500 C 488.188,172.425 488.117,172.168 490.500,170.500" stroke-width="8.599" stroke="rgb(33,33,33)" fill="none" stroke-linecap="round"></path><path d="M 490.500,170.500 C 493.117,168.668 492.941,168.419 495.500,166.500" stroke-width="9.024" stroke="rgb(33,33,33)" fill="none" stroke-linecap="round"></path><path d="M 495.500,166.500 C 496.941,165.419 497.243,165.757 498.500,164.500" stroke-width="9.711" stroke="rgb(33,33,33)" fill="none" stroke-linecap="round"></path><path d="M 498.500,164.500 C 500.243,162.757 500.118,162.573 501.500,160.500" stroke-width="9.951" stroke="rgb(33,33,33)" fill="none" stroke-linecap="round"></path><path d="M 501.500,160.500 C 502.118,159.573 502.155,159.536 502.500,158.500" stroke-width="10.785" stroke="rgb(33,33,33)" fill="none" stroke-linecap="round"></path><path d="M 502.500,158.500 C 502.655,158.036 502.833,157.667 502.500,157.500" stroke-width="11.701" stroke="rgb(33,33,33)" fill="none" stroke-linecap="round"></path><path d="M 502.500,157.500 C 501.833,157.167 501.214,156.929 500.500,157.500" stroke-width="12.710" stroke="rgb(33,33,33)" fill="none" stroke-linecap="round"></path><path d="M 500.500,157.500 C 498.714,158.929 498.970,159.478 497.500,161.500" stroke-width="12.659" stroke="rgb(33,33,33)" fill="none" stroke-linecap="round"></path><path d="M 497.500,161.500 C 494.970,164.978 494.402,164.696 492.500,168.500" stroke-width="11.949" stroke="rgb(33,33,33)" fill="none" stroke-linecap="round"></path><path d="M 492.500,168.500 C 490.402,172.696 491.058,173.020 489.500,177.500" stroke-width="11.294" stroke="rgb(33,33,33)" fill="none" stroke-linecap="round"></path><path d="M 489.500,177.500 C 487.058,184.520 486.764,184.426 484.500,191.500" stroke-width="10.095" stroke="rgb(33,33,33)" fill="none" stroke-linecap="round"></path><path d="M 484.500,191.500 C 482.764,196.926 482.882,196.971 481.500,202.500" stroke-width="9.268" stroke="rgb(33,33,33)" fill="none" stroke-linecap="round"></path><path d="M 481.500,202.500 C 480.382,206.971 480.618,207.029 479.500,211.500" stroke-width="9.406" stroke="rgb(33,33,33)" fill="none" stroke-linecap="round"></path><path d="M 479.500,211.500 C 478.118,217.029 477.338,216.911 476.500,222.500" stroke-width="9.008" stroke="rgb(33,33,33)" fill="none" stroke-linecap="round"></path><path d="M 476.500,222.500 C 475.838,226.911 476.500,227.000 476.500,231.500" stroke-width="9.211" stroke="rgb(33,33,33)" fill="none" stroke-linecap="round"></path><path d="M 476.500,231.500 C 476.500,236.000 476.296,236.008 476.500,240.500" stroke-width="9.139" stroke="rgb(33,33,33)" fill="none" stroke-linecap="round"></path><path d="M 476.500,240.500 C 476.796,247.008 476.342,247.133 477.500,253.500" stroke-width="9.067" stroke="rgb(33,33,33)" fill="none" stroke-linecap="round"></path><path d="M 477.500,253.500 C 478.342,258.133 478.309,258.362 480.500,262.500" stroke-width="8.793" stroke="rgb(33,33,33)" fill="none" stroke-linecap="round"></path><path d="M 480.500,262.500 C 482.809,266.862 483.679,266.376 486.500,270.500" stroke-width="9.104" stroke="rgb(33,33,33)" fill="none" stroke-linecap="round"></path><path d="M 486.500,270.500 C 490.179,275.876 489.484,276.414 493.500,281.500" stroke-width="7.109" stroke="rgb(33,33,33)" fill="none" stroke-linecap="round"></path><path d="M 493.500,281.500 C 496.984,285.914 497.836,285.225 501.500,289.500" stroke-width="7.332" stroke="rgb(33,33,33)" fill="none" stroke-linecap="round"></path><path d="M 501.500,289.500 C 503.836,292.225 502.924,293.210 505.500,295.500" stroke-width="7.820" stroke="rgb(33,33,33)" fill="none" stroke-linecap="round"></path><path d="M 505.500,295.500 C 507.424,297.210 507.934,296.698 510.500,297.500" stroke-width="8.415" stroke="rgb(33,33,33)" fill="none" stroke-linecap="round"></path><path d="M 510.500,297.500 C 515.934,299.198 516.007,298.974 521.500,300.500" stroke-width="8.402" stroke="rgb(33,33,33)" fill="none" stroke-linecap="round"></path><path d="M 521.500,300.500 C 525.007,301.474 524.943,301.907 528.500,302.500" stroke-width="8.766" stroke="rgb(33,33,33)" fill="none" stroke-linecap="round"></path><path d="M 528.500,302.500 C 530.943,302.907 531.000,302.500 533.500,302.500" stroke-width="9.319" stroke="rgb(33,33,33)" fill="none" stroke-linecap="round"></path><path d="M 533.500,302.500 C 536.000,302.500 536.294,303.419 538.500,302.500" stroke-width="9.619" stroke="rgb(33,33,33)" fill="none" stroke-linecap="round"></path><path d="M 538.500,302.500 C 542.294,300.919 542.151,300.179 545.500,297.500" stroke-width="9.647" stroke="rgb(33,33,33)" fill="none" stroke-linecap="round"></path><path d="M 545.500,297.500 C 547.151,296.179 547.446,296.306 548.500,294.500" stroke-width="10.199" stroke="rgb(33,33,33)" fill="none" stroke-linecap="round"></path><path d="M 548.500,294.500 C 550.946,290.306 551.198,290.189 552.500,285.500" stroke-width="10.089" stroke="rgb(33,33,33)" fill="none" stroke-linecap="round"></path><path d="M 552.500,285.500 C 553.698,281.189 552.757,280.960 553.500,276.500" stroke-width="9.809" stroke="rgb(33,33,33)" fill="none" stroke-linecap="round"></path><path d="M 553.500,276.500 C 554.257,271.960 554.994,272.054 555.500,267.500" stroke-width="9.946" stroke="rgb(33,33,33)" fill="none" stroke-linecap="round"></path><path d="M 555.500,267.500 C 555.994,263.054 555.500,263.000 555.500,258.500" stroke-width="8.886" stroke="rgb(33,33,33)" fill="none" stroke-linecap="round"></path><path d="M 555.500,258.500 C 555.500,253.500 555.500,253.500 555.500,248.500" stroke-width="8.909" stroke="rgb(33,33,33)" fill="none" stroke-linecap="round"></path><path d="M 555.500,248.500 C 555.500,243.000 555.500,243.000 555.500,237.500" stroke-width="8.830" stroke="rgb(33,33,33)" fill="none" stroke-linecap="round"></path><path d="M 555.500,237.500 C 555.500,232.000 556.044,231.940 555.500,226.500" stroke-width="8.767" stroke="rgb(33,33,33)" fill="none" stroke-linecap="round"></path><path d="M 555.500,226.500 C 555.044,221.940 554.349,222.028 553.500,217.500" stroke-width="8.888" stroke="rgb(33,33,33)" fill="none" stroke-linecap="round"></path><path d="M 553.500,217.500 C 552.849,214.028 553.463,213.870 552.500,210.500" stroke-width="9.207" stroke="rgb(33,33,33)" fill="none" stroke-linecap="round"></path><path d="M 552.500,210.500 C 551.463,206.870 551.311,206.820 549.500,203.500" stroke-width="9.419" stroke="rgb(33,33,33)" fill="none" stroke-linecap="round"></path><path d="M 549.500,203.500 C 548.311,201.320 547.725,201.644 546.500,199.500" stroke-width="9.903" stroke="rgb(33,33,33)" fill="none" stroke-linecap="round"></path><path d="M 546.500,199.500 C 545.725,198.144 546.469,197.662 545.500,196.500" stroke-width="10.431" stroke="rgb(33,33,33)" fill="none" stroke-linecap="round"></path><path d="M 545.500,196.500 C 543.969,194.662 543.644,194.725 541.500,193.500" stroke-width="10.782" stroke="rgb(33,33,33)" fill="none" stroke-linecap="round"></path><path d="M 541.500,193.500 C 540.144,192.725 539.950,193.121 538.500,192.500" stroke-width="11.423" stroke="rgb(33,33,33)" fill="none" stroke-linecap="round"></path><path d="M 538.500,192.500 C 536.450,191.621 536.573,191.191 534.500,190.500" stroke-width="11.598" stroke="rgb(33,33,33)" fill="none" stroke-linecap="round"></path><path d="M 534.500,190.500 C 533.573,190.191 533.500,190.500 532.500,190.500" stroke-width="12.372" stroke="rgb(33,33,33)" fill="none" stroke-linecap="round"></path><path d="M 532.500,190.500 C 529.500,190.500 529.457,190.106 526.500,190.500" stroke-width="11.846" stroke="rgb(33,33,33)" fill="none" stroke-linecap="round"></path><path d="M 526.500,190.500 C 521.957,191.106 521.984,191.432 517.500,192.500" stroke-width="10.801" stroke="rgb(33,33,33)" fill="none" stroke-linecap="round"></path><path d="M 517.500,192.500 C 511.484,193.932 510.943,192.922 505.500,195.500" stroke-width="10.079" stroke="rgb(33,33,33)" fill="none" stroke-linecap="round"></path><path d="M 505.500,195.500 C 501.443,197.422 502.207,198.782 498.500,201.500" stroke-width="9.937" stroke="rgb(33,33,33)" fill="none" stroke-linecap="round"></path><path d="M 498.500,201.500 C 494.707,204.282 494.460,203.938 490.500,206.500" stroke-width="9.801" stroke="rgb(33,33,33)" fill="none" stroke-linecap="round"></path><path d="M 490.500,206.500 C 485.960,209.438 486.171,209.795 481.500,212.500" stroke-width="9.537" stroke="rgb(33,33,33)" fill="none" stroke-linecap="round"></path><path d="M 481.500,212.500 C 476.671,215.295 476.562,215.138 471.500,217.500" stroke-width="9.297" stroke="rgb(33,33,33)" fill="none" stroke-linecap="round"></path><path d="M 471.500,217.500 C 469.062,218.638 468.412,217.861 466.500,219.500" stroke-width="9.749" stroke="rgb(33,33,33)" fill="none" stroke-linecap="round"></path><path d="M 466.500,219.500 C 464.912,220.861 465.640,221.601 464.500,223.500" stroke-width="10.326" stroke="rgb(33,33,33)" fill="none" stroke-linecap="round"></path><path d="M 464.500,223.500 C 464.140,224.101 463.793,223.914 463.500,224.500" stroke-width="11.093" stroke="rgb(33,33,33)" fill="none" stroke-linecap="round"></path><path d="M 463.500,224.500 C 463.293,224.914 463.500,225.000 463.500,225.500" stroke-width="12.035" stroke="rgb(33,33,33)" fill="none" stroke-linecap="round"></path><path d="M 463.500,225.500 C 463.500,226.000 463.167,226.333 463.500,226.500" stroke-width="12.993" stroke="rgb(33,33,33)" fill="none" stroke-linecap="round"></path><path d="M 463.500,226.500 C 464.167,226.833 464.506,226.401 465.500,226.500" stroke-width="13.464" stroke="rgb(33,33,33)" fill="none" stroke-linecap="round"></path><path d="M 465.500,226.500 C 469.506,226.901 469.481,227.309 473.500,227.500" stroke-width="12.797" stroke="rgb(33,33,33)" fill="none" stroke-linecap="round"></path><path d="M 473.500,227.500 C 479.981,227.809 480.000,227.500 486.500,227.500" stroke-width="11.307" stroke="rgb(33,33,33)" fill="none" stroke-linecap="round"></path><path d="M 486.500,227.500 C 493.000,227.500 493.000,227.500 499.500,227.500" stroke-width="9.407" stroke="rgb(33,33,33)" fill="none" stroke-linecap="round"></path><path d="M 499.500,227.500 C 507.000,227.500 507.000,227.500 514.500,227.500" stroke-width="8.815" stroke="rgb(33,33,33)" fill="none" stroke-linecap="round"></path><path d="M 514.500,227.500 C 525.000,227.500 525.015,227.828 535.500,227.500" stroke-width="7.902" stroke="rgb(33,33,33)" fill="none" stroke-linecap="round"></path><path d="M 535.500,227.500 C 541.015,227.328 541.346,228.140 546.500,226.500" stroke-width="8.016" stroke="rgb(33,33,33)" fill="none" stroke-linecap="round"></path><path d="M 546.500,226.500 C 552.346,224.640 552.307,223.962 557.500,220.500" stroke-width="7.990" stroke="rgb(33,33,33)" fill="none" stroke-linecap="round"></path><path d="M 557.500,220.500 C 562.807,216.962 563.008,216.992 567.500,212.500" stroke-width="7.949" stroke="rgb(33,33,33)" fill="none" stroke-linecap="round"></path><path d="M 567.500,212.500 C 571.008,208.992 570.543,208.532 573.500,204.500" stroke-width="7.875" stroke="rgb(33,33,33)" fill="none" stroke-linecap="round"></path><path d="M 573.500,204.500 C 576.043,201.032 576.493,201.263 578.500,197.500" stroke-width="8.271" stroke="rgb(33,33,33)" fill="none" stroke-linecap="round"></path><path d="M 578.500,197.500 C 580.493,193.763 580.247,193.571 581.500,189.500" stroke-width="8.428" stroke="rgb(33,33,33)" fill="none" stroke-linecap="round"></path><path d="M 581.500,189.500 C 582.247,187.071 581.567,186.833 582.500,184.500" stroke-width="9.104" stroke="rgb(33,33,33)" fill="none" stroke-linecap="round"></path><path d="M 582.500,184.500 C 583.567,181.833 584.818,182.227 585.500,179.500" stroke-width="9.316" stroke="rgb(33,33,33)" fill="none" stroke-linecap="round"></path><path d="M 585.500,179.500 C 586.318,176.227 585.500,176.000 585.500,172.500" stroke-width="9.579" stroke="rgb(33,33,33)" fill="none" stroke-linecap="round"></path><path d="M 585.500,172.500 C 585.500,170.500 585.500,170.500 585.500,168.500" stroke-width="10.170" stroke="rgb(33,33,33)" fill="none" stroke-linecap="round"></path><path d="M 585.500,168.500 C 585.500,166.000 585.500,166.000 585.500,163.500" stroke-width="10.558" stroke="rgb(33,33,33)" fill="none" stroke-linecap="round"></path><path d="M 585.500,163.500 C 585.500,160.500 585.796,160.464 585.500,157.500" stroke-width="10.469" stroke="rgb(33,33,33)" fill="none" stroke-linecap="round"></path><path d="M 585.500,157.500 C 585.296,155.464 584.726,155.534 584.500,153.500" stroke-width="10.943" stroke="rgb(33,33,33)" fill="none" stroke-linecap="round"></path><path d="M 584.500,153.500 C 584.226,151.034 585.081,150.824 584.500,148.500" stroke-width="11.216" stroke="rgb(33,33,33)" fill="none" stroke-linecap="round"></path><path d="M 584.500,148.500 C 584.081,146.824 583.393,147.062 582.500,145.500" stroke-width="11.675" stroke="rgb(33,33,33)" fill="none" stroke-linecap="round"></path><path d="M 582.500,145.500 C 581.393,143.562 581.607,143.438 580.500,141.500" stroke-width="11.916" stroke="rgb(33,33,33)" fill="none" stroke-linecap="round"></path><path d="M 580.500,141.500 C 579.607,139.938 579.299,140.098 578.500,138.500" stroke-width="12.275" stroke="rgb(33,33,33)" fill="none" stroke-linecap="round"></path><path d="M 578.500,138.500 C 577.799,137.098 578.191,136.882 577.500,135.500" stroke-width="12.577" stroke="rgb(33,33,33)" fill="none" stroke-linecap="round"></path><path d="M 577.500,135.500 C 577.191,134.882 577.086,134.793 576.500,134.500" stroke-width="13.249" stroke="rgb(33,33,33)" fill="none" stroke-linecap="round"></path><path d="M 576.500,134.500 C 576.086,134.293 575.583,134.083 575.500,134.500" stroke-width="14.191" stroke="rgb(33,33,33)" fill="none" stroke-linecap="round"></path><path d="M 575.500,134.500 C 575.083,136.583 574.689,137.336 575.500,139.500" stroke-width="14.331" stroke="rgb(33,33,33)" fill="none" stroke-linecap="round"></path><path d="M 575.500,139.500 C 576.189,141.336 577.000,141.000 578.500,142.500" stroke-width="14.097" stroke="rgb(33,33,33)" fill="none" stroke-linecap="round"></path><path d="M 578.500,142.500 C 582.500,146.500 582.784,146.253 586.500,150.500" stroke-width="12.408" stroke="rgb(33,33,33)" fill="none" stroke-linecap="round"></path><path d="M 586.500,150.500 C 589.784,154.253 589.254,154.713 592.500,158.500" stroke-width="11.534" stroke="rgb(33,33,33)" fill="none" stroke-linecap="round"></path><path d="M 592.500,158.500 C 595.254,161.713 594.975,162.297 598.500,164.500" stroke-width="11.294" stroke="rgb(33,33,33)" fill="none" stroke-linecap="round"></path><path d="M 598.500,164.500 C 602.975,167.297 603.468,166.583 608.500,168.500" stroke-width="9.805" stroke="rgb(33,33,33)" fill="none" stroke-linecap="round"></path><path d="M 608.500,168.500 C 613.968,170.583 613.977,170.567 619.500,172.500" stroke-width="9.706" stroke="rgb(33,33,33)" fill="none" stroke-linecap="round"></path><path d="M 619.500,172.500 C 623.977,174.067 623.916,174.518 628.500,175.500" stroke-width="9.267" stroke="rgb(33,33,33)" fill="none" stroke-linecap="round"></path><path d="M 628.500,175.500 C 630.916,176.018 631.000,175.500 633.500,175.500" stroke-width="9.767" stroke="rgb(33,33,33)" fill="none" stroke-linecap="round"></path><path d="M 633.500,175.500 C 637.500,175.500 637.500,175.500 641.500,175.500" stroke-width="9.837" stroke="rgb(33,33,33)" fill="none" stroke-linecap="round"></path><path d="M 641.500,175.500 C 643.500,175.500 643.900,175.900 645.500,175.500" stroke-width="10.401" stroke="rgb(33,33,33)" fill="none" stroke-linecap="round"></path><path d="M 645.500,175.500 C 645.900,175.400 645.293,174.914 645.500,174.500" stroke-width="11.361" stroke="rgb(33,33,33)" fill="none" stroke-linecap="round"></path><path d="M 645.500,174.500 C 645.793,173.914 646.191,174.118 646.500,173.500" stroke-width="12.189" stroke="rgb(33,33,33)" fill="none" stroke-linecap="round"></path><path d="M 646.500,173.500 C 647.191,172.118 647.306,172.050 647.500,170.500" stroke-width="12.389" stroke="rgb(33,33,33)" fill="none" stroke-linecap="round"></path><path d="M 647.500,170.500 C 647.806,168.050 647.707,167.985 647.500,165.500" stroke-width="12.404" stroke="rgb(33,33,33)" fill="none" stroke-linecap="round"></path><path d="M 647.500,165.500 C 647.207,161.985 647.925,161.589 646.500,158.500" stroke-width="12.033" stroke="rgb(33,33,33)" fill="none" stroke-linecap="round"></path><path d="M 646.500,158.500 C 644.925,155.089 644.057,155.451 641.500,152.500" stroke-width="11.628" stroke="rgb(33,33,33)" fill="none" stroke-linecap="round"></path><path d="M 641.500,152.500 C 637.557,147.951 637.639,147.869 633.500,143.500" stroke-width="10.882" stroke="rgb(33,33,33)" fill="none" stroke-linecap="round"></path><path d="M 633.500,143.500 C 628.639,138.369 628.252,138.727 623.500,133.500" stroke-width="9.676" stroke="rgb(33,33,33)" fill="none" stroke-linecap="round"></path><path d="M 623.500,133.500 C 618.252,127.727 618.992,126.992 613.500,121.500" stroke-width="8.942" stroke="rgb(33,33,33)" fill="none" stroke-linecap="round"></path><path d="M 613.500,121.500 C 609.492,117.492 608.951,118.061 604.500,114.500" stroke-width="8.466" stroke="rgb(33,33,33)" fill="none" stroke-linecap="round"></path><path d="M 604.500,114.500 C 601.451,112.061 601.500,112.000 598.500,109.500" stroke-width="8.771" stroke="rgb(33,33,33)" fill="none" stroke-linecap="round"></path><path d="M 598.500,109.500 C 595.500,107.000 595.579,106.895 592.500,104.500" stroke-width="9.031" stroke="rgb(33,33,33)" fill="none" stroke-linecap="round"></path><path d="M 592.500,104.500 C 591.079,103.395 590.937,103.577 589.500,102.500" stroke-width="9.717" stroke="rgb(33,33,33)" fill="none" stroke-linecap="round"></path><path d="M 589.500,102.500 C 588.937,102.077 589.086,101.793 588.500,101.500" stroke-width="10.644" stroke="rgb(33,33,33)" fill="none" stroke-linecap="round"></path><path d="M 588.500,101.500 C 588.086,101.293 587.750,101.750 587.500,101.500" stroke-width="11.591" stroke="rgb(33,33,33)" fill="none" stroke-linecap="round"></path><path d="M 587.500,101.500 C 587.250,101.250 587.250,100.750 587.500,100.500" stroke-width="12.563" stroke="rgb(33,33,33)" fill="none" stroke-linecap="round"></path><path d="M 587.500,100.500 C 587.750,100.250 588.000,100.500 588.500,100.500" stroke-width="13.520" stroke="rgb(33,33,33)" fill="none" stroke-linecap="round"></path><path d="M 588.500,100.500 C 589.500,100.500 589.500,100.500 590.500,100.500" stroke-width="13.982" stroke="rgb(33,33,33)" fill="none" stroke-linecap="round"></path><path d="M 590.500,100.500 C 591.500,100.500 591.500,100.500 592.500,100.500" stroke-width="14.376" stroke="rgb(33,33,33)" fill="none" stroke-linecap="round"></path><path d="M 592.500,100.500 C 593.500,100.500 593.621,100.207 594.500,100.500" stroke-width="14.531" stroke="rgb(33,33,33)" fill="none" stroke-linecap="round"></path><path d="M 594.500,100.500 C 595.121,100.707 595.000,101.000 595.500,101.500" stroke-width="15.130" stroke="rgb(33,33,33)" fill="none" stroke-linecap="round"></path><path d="M 595.500,101.500 C 596.000,102.000 596.191,101.882 596.500,102.500" stroke-width="15.096" stroke="rgb(33,33,33)" fill="none" stroke-linecap="round"></path><path d="M 596.500,102.500 C 597.191,103.882 597.000,104.000 597.500,105.500" stroke-width="14.975" stroke="rgb(33,33,33)" fill="none" stroke-linecap="round"></path><path d="M 597.500,105.500 C 598.500,108.500 598.420,108.529 599.500,111.500" stroke-width="14.064" stroke="rgb(33,33,33)" fill="none" stroke-linecap="round"></path><path d="M 599.500,111.500 C 600.420,114.029 600.781,113.912 601.500,116.500" stroke-width="13.622" stroke="rgb(33,33,33)" fill="none" stroke-linecap="round"></path><path d="M 601.500,116.500 C 603.281,122.912 602.669,123.093 604.500,129.500" stroke-width="11.042" stroke="rgb(33,33,33)" fill="none" stroke-linecap="round"></path><path d="M 604.500,129.500 C 606.669,137.093 606.649,137.135 609.500,144.500" stroke-width="10.210" stroke="rgb(33,33,33)" fill="none" stroke-linecap="round"></path><path d="M 609.500,144.500 C 612.649,152.635 612.906,152.542 616.500,160.500" stroke-width="8.548" stroke="rgb(33,33,33)" fill="none" stroke-linecap="round"></path><path d="M 616.500,160.500 C 619.906,168.042 620.059,167.973 623.500,175.500" stroke-width="8.071" stroke="rgb(33,33,33)" fill="none" stroke-linecap="round"></path><path d="M 623.500,175.500 C 628.059,185.473 627.604,185.707 632.500,195.500" stroke-width="7.515" stroke="rgb(33,33,33)" fill="none" stroke-linecap="round"></path><path d="M 632.500,195.500 C 635.104,200.707 635.220,200.689 638.500,205.500" stroke-width="7.531" stroke="rgb(33,33,33)" fill="none" stroke-linecap="round"></path><path d="M 638.500,205.500 C 642.720,211.689 643.142,211.399 647.500,217.500" stroke-width="7.639" stroke="rgb(33,33,33)" fill="none" stroke-linecap="round"></path><path d="M 647.500,217.500 C 650.642,221.899 650.217,222.232 653.500,226.500" stroke-width="7.552" stroke="rgb(33,33,33)" fill="none" stroke-linecap="round"></path><path d="M 653.500,226.500 C 655.217,228.732 655.708,228.350 657.500,230.500" stroke-width="7.992" stroke="rgb(33,33,33)" fill="none" stroke-linecap="round"></path><path d="M 657.500,230.500 C 658.208,231.350 657.809,231.809 658.500,232.500" stroke-width="8.895" stroke="rgb(33,33,33)" fill="none" stroke-linecap="round"></path><path d="M 658.500,232.500 C 658.809,232.809 659.375,232.875 659.500,232.500" stroke-width="9.879" stroke="rgb(33,33,33)" fill="none" stroke-linecap="round"></path><path d="M 659.500,232.500 C 659.875,231.375 659.500,231.000 659.500,229.500" stroke-width="10.929" stroke="rgb(33,33,33)" fill="none" stroke-linecap="round"></path><path d="M 659.500,229.500 C 659.500,226.000 660.137,225.897 659.500,222.500" stroke-width="10.903" stroke="rgb(33,33,33)" fill="none" stroke-linecap="round"></path><path d="M 659.500,222.500 C 658.637,217.897 658.259,217.898 656.500,213.500" stroke-width="10.530" stroke="rgb(33,33,33)" fill="none" stroke-linecap="round"></path><path d="M 656.500,213.500 C 654.259,207.898 654.279,207.859 651.500,202.500" stroke-width="10.090" stroke="rgb(33,33,33)" fill="none" stroke-linecap="round"></path><path d="M 651.500,202.500 C 647.279,194.359 647.404,194.243 642.500,186.500" stroke-width="8.691" stroke="rgb(33,33,33)" fill="none" stroke-linecap="round"></path><path d="M 642.500,186.500 C 637.904,179.243 637.364,179.594 632.500,172.500" stroke-width="8.278" stroke="rgb(33,33,33)" fill="none" stroke-linecap="round"></path><path d="M 632.500,172.500 C 625.364,162.094 626.099,161.541 618.500,151.500" stroke-width="6.750" stroke="rgb(33,33,33)" fill="none" stroke-linecap="round"></path><path d="M 618.500,151.500 C 612.099,143.041 611.500,143.500 604.500,135.500" stroke-width="6.750" stroke="rgb(33,33,33)" fill="none" stroke-linecap="round"></path><path d="M 604.500,135.500 C 597.500,127.500 598.000,127.000 590.500,119.500" stroke-width="6.750" stroke="rgb(33,33,33)" fill="none" stroke-linecap="round"></path><path d="M 590.500,119.500 C 583.000,112.000 583.058,111.745 574.500,105.500" stroke-width="6.750" stroke="rgb(33,33,33)" fill="none" stroke-linecap="round"></path><path d="M 574.500,105.500 C 564.558,98.245 564.461,98.102 553.500,92.500" stroke-width="6.750" stroke="rgb(33,33,33)" fill="none" stroke-linecap="round"></path><path d="M 553.500,92.500 C 541.961,86.602 541.646,87.096 529.500,82.500" stroke-width="6.750" stroke="rgb(33,33,33)" fill="none" stroke-linecap="round"></path><path d="M 529.500,82.500 C 523.146,80.096 523.122,79.880 516.500,78.500" stroke-width="6.750" stroke="rgb(33,33,33)" fill="none" stroke-linecap="round"></path><path d="M 516.500,78.500 C 511.122,77.380 511.007,77.844 505.500,77.500" stroke-width="6.750" stroke="rgb(33,33,33)" fill="none" stroke-linecap="round"></path><path d="M 505.500,77.500 C 503.007,77.344 502.735,76.861 500.500,77.500" stroke-width="6.893" stroke="rgb(33,33,33)" fill="none" stroke-linecap="round"></path><path d="M 500.500,77.500 C 499.235,77.861 499.275,78.338 498.500,79.500" stroke-width="7.658" stroke="rgb(33,33,33)" fill="none" stroke-linecap="round"></path><path d="M 498.500,79.500 C 497.275,81.338 496.859,81.349 496.500,83.500" stroke-width="8.342" stroke="rgb(33,33,33)" fill="none" stroke-linecap="round"></path><path d="M 496.500,83.500 C 495.859,87.349 495.976,87.573 496.500,91.500" stroke-width="8.647" stroke="rgb(33,33,33)" fill="none" stroke-linecap="round"></path><path d="M 496.500,91.500 C 496.976,95.073 496.703,95.396 498.500,98.500" stroke-width="9.125" stroke="rgb(33,33,33)" fill="none" stroke-linecap="round"></path><path d="M 498.500,98.500 C 502.203,104.896 501.958,105.681 507.500,110.500" stroke-width="8.181" stroke="rgb(33,33,33)" fill="none" stroke-linecap="round"></path><path d="M 507.500,110.500 C 513.458,115.681 515.231,113.594 521.500,118.500" stroke-width="7.451" stroke="rgb(33,33,33)" fill="none" stroke-linecap="round"></path><path d="M 521.500,118.500 C 526.731,122.594 525.091,124.694 530.500,128.500" stroke-width="7.471" stroke="rgb(33,33,33)" fill="none" stroke-linecap="round"></path><path d="M 530.500,128.500 C 538.591,134.194 539.610,132.793 548.500,137.500" stroke-width="7.052" stroke="rgb(33,33,33)" fill="none" stroke-linecap="round"></path><path d="M 548.500,137.500 C 556.610,141.793 555.995,143.341 564.500,146.500" stroke-width="6.850" stroke="rgb(33,33,33)" fill="none" stroke-linecap="round"></path><path d="M 564.500,146.500 C 573.495,149.841 573.949,148.786 583.500,150.500" stroke-width="6.750" stroke="rgb(33,33,33)" fill="none" stroke-linecap="round"></path><path d="M 583.500,150.500 C 593.449,152.286 593.551,151.714 603.500,153.500" stroke-width="6.750" stroke="rgb(33,33,33)" fill="none" stroke-linecap="round"></path><path d="M 603.500,153.500 C 613.051,155.214 612.903,156.434 622.500,157.500" stroke-width="6.750" stroke="rgb(33,33,33)" fill="none" stroke-linecap="round"></path><path d="M 622.500,157.500 C 630.903,158.434 631.120,158.398 639.500,157.500" stroke-width="6.750" stroke="rgb(33,33,33)" fill="none" stroke-linecap="round"></path><path d="M 639.500,157.500 C 645.120,156.898 644.945,155.734 650.500,154.500" stroke-width="6.750" stroke="rgb(33,33,33)" fill="none" stroke-linecap="round"></path><path d="M 650.500,154.500 C 653.945,153.734 654.026,154.132 657.500,153.500" stroke-width="7.079" stroke="rgb(33,33,33)" fill="none" stroke-linecap="round"></path><path d="M 657.500,153.500 C 659.526,153.132 659.488,152.902 661.500,152.500" stroke-width="7.770" stroke="rgb(33,33,33)" fill="none" stroke-linecap="round"></path><path d="M 661.500,152.500 C 661.988,152.402 662.250,152.750 662.500,152.500" stroke-width="8.766" stroke="rgb(33,33,33)" fill="none" stroke-linecap="round"></path><path d="M 662.500,152.500 C 662.750,152.250 662.500,151.167 662.500,151.500" stroke-width="9.768" stroke="rgb(33,33,33)" fill="none" stroke-linecap="round"></path><path d="M 662.500,151.500 C 662.500,153.167 662.500,154.000 662.500,156.500" stroke-width="10.770" stroke="rgb(33,33,33)" fill="none" stroke-linecap="round"></path><path d="M 662.500,156.500 C 662.500,158.500 662.500,158.500 662.500,160.500" stroke-width="11.224" stroke="rgb(33,33,33)" fill="none" stroke-linecap="round"></path><path d="M 662.500,160.500 C 662.500,164.500 662.500,164.500 662.500,168.500" stroke-width="10.986" stroke="rgb(33,33,33)" fill="none" stroke-linecap="round"></path><path d="M 662.500,168.500 C 662.500,174.000 662.500,174.000 662.500,179.500" stroke-width="9.920" stroke="rgb(33,33,33)" fill="none" stroke-linecap="round"></path><path d="M 662.500,179.500 C 662.500,185.000 662.500,185.000 662.500,190.500" stroke-width="9.747" stroke="rgb(33,33,33)" fill="none" stroke-linecap="round"></path><path d="M 662.500,190.500 C 662.500,195.000 662.780,195.020 662.500,199.500" stroke-width="9.556" stroke="rgb(33,33,33)" fill="none" stroke-linecap="round"></path><path d="M 662.500,199.500 C 662.280,203.020 662.493,203.189 661.500,206.500" stroke-width="9.942" stroke="rgb(33,33,33)" fill="none" stroke-linecap="round"></path><path d="M 661.500,206.500 C 660.993,208.189 660.426,207.957 659.500,209.500" stroke-width="10.387" stroke="rgb(33,33,33)" fill="none" stroke-linecap="round"></path><path d="M 659.500,209.500 C 658.926,210.457 659.276,210.724 658.500,211.500" stroke-width="11.192" stroke="rgb(33,33,33)" fill="none" stroke-linecap="round"></path><path d="M 658.500,211.500 C 656.276,213.724 656.237,213.979 653.500,215.500" stroke-width="10.638" stroke="rgb(33,33,33)" fill="none" stroke-linecap="round"></path><path d="M 653.500,215.500 C 651.737,216.479 651.536,216.296 649.500,216.500" stroke-width="11.263" stroke="rgb(33,33,33)" fill="none" stroke-linecap="round"></path><path d="M 649.500,216.500 C 646.536,216.796 646.500,216.500 643.500,216.500" stroke-width="10.781" stroke="rgb(33,33,33)" fill="none" stroke-linecap="round"></path><path d="M 643.500,216.500 C 639.000,216.500 639.000,216.500 634.500,216.500" stroke-width="10.505" stroke="rgb(33,33,33)" fill="none" stroke-linecap="round"></path><path d="M 634.500,216.500 C 628.000,216.500 628.000,216.500 621.500,216.500" stroke-width="9.796" stroke="rgb(33,33,33)" fill="none" stroke-linecap="round"></path><path d="M 621.500,216.500 C 613.000,216.500 613.000,216.500 604.500,216.500" stroke-width="8.887" stroke="rgb(33,33,33)" fill="none" stroke-linecap="round"></path><path d="M 604.500,216.500 C 594.000,216.500 593.923,217.427 583.500,216.500" stroke-width="7.948" stroke="rgb(33,33,33)" fill="none" stroke-linecap="round"></path><path d="M 583.500,216.500 C 571.423,215.427 571.506,214.460 559.500,212.500" stroke-width="7.114" stroke="rgb(33,33,33)" fill="none" stroke-linecap="round"></path><path d="M 559.500,212.500 C 547.006,210.460 547.073,209.847 534.500,208.500" stroke-width="6.750" stroke="rgb(33,33,33)" fill="none" stroke-linecap="round"></path><path d="M 534.500,208.500 C 519.073,206.847 519.017,206.970 503.500,206.500" stroke-width="6.750" stroke="rgb(33,33,33)" fill="none" stroke-linecap="round"></path><path d="M 503.500,206.500 C 486.017,205.970 485.994,206.203 468.500,206.500" stroke-width="6.750" stroke="rgb(33,33,33)" fill="none" stroke-linecap="round"></path><path d="M 468.500,206.500 C 456.494,206.703 456.483,206.735 444.500,207.500" stroke-width="6.750" stroke="rgb(33,33,33)" fill="none" stroke-linecap="round"></path><path d="M 444.500,207.500 C 432.983,208.235 433.024,209.057 421.500,209.500" stroke-width="6.750" stroke="rgb(33,33,33)" fill="none" stroke-linecap="round"></path><path d="M 421.500,209.500 C 407.024,210.057 406.932,208.505 392.500,209.500" stroke-width="6.750" stroke="rgb(33,33,33)" fill="none" stroke-linecap="round"></path><path d="M 392.500,209.500 C 377.932,210.505 378.057,212.068 363.500,213.500" stroke-width="6.750" stroke="rgb(33,33,33)" fill="none" stroke-linecap="round"></path><path d="M 363.500,213.500 C 347.557,215.068 347.494,214.416 331.500,215.500" stroke-width="6.750" stroke="rgb(33,33,33)" fill="none" stroke-linecap="round"></path><path d="M 331.500,215.500 C 317.994,216.416 318.016,216.937 304.500,217.500" stroke-width="6.750" stroke="rgb(33,33,33)" fill="none" stroke-linecap="round"></path><path d="M 304.500,217.500 C 294.016,217.937 293.923,216.573 283.500,217.500" stroke-width="6.750" stroke="rgb(33,33,33)" fill="none" stroke-linecap="round"></path><path d="M 283.500,217.500 C 271.423,218.573 271.526,219.670 259.500,221.500" stroke-width="6.750" stroke="rgb(33,33,33)" fill="none" stroke-linecap="round"></path><path d="M 259.500,221.500 C 248.526,223.170 248.511,223.088 237.500,224.500" stroke-width="6.750" stroke="rgb(33,33,33)" fill="none" stroke-linecap="round"></path><path d="M 237.500,224.500 C 229.011,225.588 229.029,225.998 220.500,226.500" stroke-width="6.750" stroke="rgb(33,33,33)" fill="none" stroke-linecap="round"></path><path d="M 220.500,226.500 C 212.029,226.998 211.957,225.936 203.500,226.500" stroke-width="6.750" stroke="rgb(33,33,33)" fill="none" stroke-linecap="round"></path><path d="M 203.500,226.500 C 196.957,226.936 196.891,227.048 190.500,228.500" stroke-width="6.750" stroke="rgb(33,33,33)" fill="none" stroke-linecap="round"></path><path d="M 190.500,228.500 C 185.891,229.548 186.133,230.658 181.500,231.500" stroke-width="6.750" stroke="rgb(33,33,33)" fill="none" stroke-linecap="round"></path><path d="M 181.500,231.500 C 175.133,232.658 174.960,231.692 168.500,232.500" stroke-width="6.750" stroke="rgb(33,33,33)" fill="none" stroke-linecap="round"></path><path d="M 168.500,232.500 C 162.960,233.192 163.033,233.745 157.500,234.500" stroke-width="6.750" stroke="rgb(33,33,33)" fill="none" stroke-linecap="round"></path><path d="M 157.500,234.500 C 152.033,235.245 151.967,234.755 146.500,235.500" stroke-width="6.750" stroke="rgb(33,33,33)" fill="none" stroke-linecap="round"></path><path d="M 146.500,235.500 C 140.967,236.255 141.013,236.581 135.500,237.500" stroke-width="7.032" stroke="rgb(33,33,33)" fill="none" stroke-linecap="round"></path><path d="M 135.500,237.500 C 132.013,238.081 132.013,238.181 128.500,238.500" stroke-width="7.392" stroke="rgb(33,33,33)" fill="none" stroke-linecap="round"></path><path d="M 128.500,238.500 C 126.513,238.681 126.500,238.500 124.500,238.500" stroke-width="8.020" stroke="rgb(33,33,33)" fill="none" stroke-linecap="round"></path><path d="M 124.500,238.500 C 123.000,238.500 123.000,238.500 121.500,238.500" stroke-width="8.824" stroke="rgb(33,33,33)" fill="none" stroke-linecap="round"></path><path d="M 121.500,238.500 C 120.500,238.500 120.500,238.500 119.500,238.500" stroke-width="9.708" stroke="rgb(33,33,33)" fill="none" stroke-linecap="round"></path><path d="M 119.500,238.500 C 117.500,238.500 117.500,238.500 115.500,238.500" stroke-width="10.286" stroke="rgb(33,33,33)" fill="none" stroke-linecap="round"></path><path d="M 115.500,238.500 C 114.500,238.500 114.444,238.264 113.500,238.500" stroke-width="11.096" stroke="rgb(33,33,33)" fill="none" stroke-linecap="round"></path><path d="M 113.500,238.500 C 112.444,238.764 111.167,239.000 111.500,239.500" stroke-width="11.801" stroke="rgb(33,33,33)" fill="none" stroke-linecap="round"></path><path d="M 111.500,239.500 C 112.167,240.500 113.397,240.799 115.500,241.500" stroke-width="12.803" stroke="rgb(33,33,33)" fill="none" stroke-linecap="round"></path><path d="M 115.500,241.500 C 117.897,242.299 117.978,242.140 120.500,242.500" stroke-width="12.713" stroke="rgb(33,33,33)" fill="none" stroke-linecap="round"></path><path d="M 120.500,242.500 C 124.978,243.140 125.138,242.410 129.500,243.500" stroke-width="11.907" stroke="rgb(33,33,33)" fill="none" stroke-linecap="round"></path><path d="M 129.500,243.500 C 135.138,244.910 134.843,246.086 140.500,247.500" stroke-width="10.381" stroke="rgb(33,33,33)" fill="none" stroke-linecap="round"></path><path d="M 140.500,247.500 C 148.843,249.586 148.952,249.345 157.500,250.500" stroke-width="9.616" stroke="rgb(33,33,33)" fill="none" stroke-linecap="round"></path><path d="M 157.500,250.500 C 167.452,251.845 167.548,251.143 177.500,252.500" stroke-width="7.927" stroke="rgb(33,33,33)" fill="none" stroke-linecap="round"></path><path d="M 177.500,252.500 C 189.548,254.143 189.500,254.500 201.500,256.500" stroke-width="7.644" stroke="rgb(33,33,33)" fill="none" stroke-linecap="round"></path><path d="M 201.500,256.500 C 222.500,260.000 222.604,259.456 243.500,263.500" stroke-width="6.750" stroke="rgb(33,33,33)" fill="none" stroke-linecap="round"></path><path d="M 243.500,263.500 C 269.104,268.456 269.101,268.566 294.500,274.500" stroke-width="6.750" stroke="rgb(33,33,33)" fill="none" stroke-linecap="round"></path><path d="M 294.500,274.500 C 322.601,281.066 322.262,282.789 350.500,288.500" stroke-width="6.750" stroke="rgb(33,33,33)" fill="none" stroke-linecap="round"></path><path d="M 350.500,288.500 C 366.762,291.789 367.004,290.470 383.500,292.500" stroke-width="6.750" stroke="rgb(33,33,33)" fill="none" stroke-linecap="round"></path><path d="M 383.500,292.500 C 399.504,294.470 399.645,293.687 415.500,296.500" stroke-width="6.750" stroke="rgb(33,33,33)" fill="none" stroke-linecap="round"></path><path d="M 415.500,296.500 C 430.645,299.187 430.439,300.296 445.500,303.500" stroke-width="6.750" stroke="rgb(33,33,33)" fill="none" stroke-linecap="round"></path><path d="M 445.500,303.500 C 453.939,305.296 454.062,304.710 462.500,306.500" stroke-width="6.750" stroke="rgb(33,33,33)" fill="none" stroke-linecap="round"></path><path d="M 462.500,306.500 C 470.562,308.210 470.415,309.003 478.500,310.500" stroke-width="6.750" stroke="rgb(33,33,33)" fill="none" stroke-linecap="round"></path></svg>