<svg xmlns="http://www.w3.org/2000/svg" xmlns:xlink="http://www.w3.org/1999/xlink" viewBox="0 0 800 500"><path d="M 356.500,247.500 C 358.500,247.500 358.500,247.500 360.500,247.500" stroke-width="20.036" stroke="rgb(33,33,33)" fill="none" stroke-linecap="round"></path><path d="M 360.500,247.500 C 363.000,247.500 363.000,247.500 365.500,247.500" stroke-width="17.231" stroke="rgb(33,33,33)" fill="none" stroke-linecap="round"></path><path d="M 365.500,247.500 C 366.500,247.500 366.500,247.500 367.500,247.500" stroke-width="16.329" stroke="rgb(33,33,33)" fill="none" stroke-linecap="round"></path><path d="M 367.500,247.500 C 369.500,247.500 369.500,247.500 371.500,247.500" stroke-width="15.278" stroke="rgb(33,33,33)" fill="none" stroke-linecap="round"></path><path d="M 371.500,247.500 C 375.000,247.500 375.000,247.500 378.500,247.500" stroke-width="14.460" stroke="rgb(33,33,33)" fill="none" stroke-linecap="round"></path><path d="M 378.500,247.500 C 381.000,247.500 381.000,247.500 383.500,247.500" stroke-width="13.618" stroke="rgb(33,33,33)" fill="none" stroke-linecap="round"></path><path d="M 383.500,247.500 C 387.000,247.500 387.047,247.932 390.500,247.500" stroke-width="11.641" stroke="rgb(33,33,33)" fill="none" stroke-linecap="round"></path><path d="M 390.500,247.500 C 395.047,246.932 394.960,246.257 399.500,245.500" stroke-width="9.865" stroke="rgb(33,33,33)" fill="none" stroke-linecap="round"></path><path d="M 399.500,245.500 C 403.960,244.757 404.025,245.171 408.500,244.500" stroke-width="9.445" stroke="rgb(33,33,33)" fill="none" stroke-linecap="round"></path><path d="M 408.500,244.500 C 414.025,243.671 414.000,243.500 419.500,242.500" stroke-width="9.468" stroke="rgb(33,33,33)" fill="none" stroke-linecap="round"></path><path d="M 419.500,242.500 C 425.000,241.500 425.054,241.738 430.500,240.500" stroke-width="8.867" stroke="rgb(33,33,33)" fill="none" stroke-linecap="round"></path><path d="M 430.500,240.500 C 436.054,239.238 436.245,239.602 441.500,237.500" stroke-width="7.797" stroke="rgb(33,33,33)" fill="none" stroke-linecap="round"></path><path d="M 441.500,237.500 C 446.245,235.602 445.857,234.699 450.500,232.500" stroke-width="7.727" stroke="rgb(33,33,33)" fill="none" stroke-linecap="round"></path><path d="M 450.500,232.500 C 455.357,230.199 455.500,230.500 460.500,228.500" stroke-width="7.142" stroke="rgb(33,33,33)" fill="none" stroke-linecap="round"></path><path d="M 460.500,228.500 C 465.500,226.500 465.699,226.901 470.500,224.500" stroke-width="7.601" stroke="rgb(33,33,33)" fill="none" stroke-linecap="round"></path><path d="M 470.500,224.500 C 475.699,221.901 475.500,221.500 480.500,218.500" stroke-width="7.238" stroke="rgb(33,33,33)" fill="none" stroke-linecap="round"></path><path d="M 480.500,218.500 C 485.500,215.500 485.543,215.569 490.500,212.500" stroke-width="6.750" stroke="rgb(33,33,33)" fill="none" stroke-linecap="round"></path><path d="M 490.500,212.500 C 496.043,209.069 496.237,209.328 501.500,205.500" stroke-width="6.750" stroke="rgb(33,33,33)" fill="none" stroke-linecap="round"></path><path d="M 501.500,205.500 C 507.237,201.328 507.106,201.123 512.500,196.500" stroke-width="6.750" stroke="rgb(33,33,33)" fill="none" stroke-linecap="round"></path><path d="M 512.500,196.500 C 517.606,192.123 517.750,192.250 522.500,187.500" stroke-width="6.750" stroke="rgb(33,33,33)" fill="none" stroke-linecap="round"></path><path d="M 522.500,187.500 C 527.250,182.750 527.104,182.590 531.500,177.500" stroke-width="6.750" stroke="rgb(33,33,33)" fill="none" stroke-linecap="round"></path><path d="M 531.500,177.500 C 536.604,171.590 536.867,171.768 541.500,165.500" stroke-width="6.750" stroke="rgb(33,33,33)" fill="none" stroke-linecap="round"></path><path d="M 541.500,165.500 C 545.367,160.268 545.069,160.043 548.500,154.500" stroke-width="6.750" stroke="rgb(33,33,33)" fill="none" stroke-linecap="round"></path><path d="M 548.500,154.500 C 551.569,149.543 551.799,149.657 554.500,144.500" stroke-width="6.750" stroke="rgb(33,33,33)" fill="none" stroke-linecap="round"></path><path d="M 554.500,144.500 C 557.299,139.157 557.000,139.000 559.500,133.500" stroke-width="6.750" stroke="rgb(33,33,33)" fill="none" stroke-linecap="round"></path><path d="M 559.500,133.500 C 562.000,128.000 562.602,128.194 564.500,122.500" stroke-width="6.750" stroke="rgb(33,33,33)" fill="none" stroke-linecap="round"></path><path d="M 564.500,122.500 C 566.102,117.694 565.745,117.537 566.500,112.500" stroke-width="6.750" stroke="rgb(33,33,33)" fill="none" stroke-linecap="round"></path><path d="M 566.500,112.500 C 567.245,107.537 567.024,107.502 567.500,102.500" stroke-width="6.750" stroke="rgb(33,33,33)" fill="none" stroke-linecap="round"></path><path d="M 567.500,102.500 C 568.024,97.002 568.224,97.010 568.500,91.500" stroke-width="6.750" stroke="rgb(33,33,33)" fill="none" stroke-linecap="round"></path><path d="M 568.500,91.500 C 568.724,87.010 568.500,87.000 568.500,82.500" stroke-width="6.877" stroke="rgb(33,33,33)" fill="none" stroke-linecap="round"></path><path d="M 568.500,82.500 C 568.500,77.000 569.270,76.887 568.500,71.500" stroke-width="6.750" stroke="rgb(33,33,33)" fill="none" stroke-linecap="round"></path><path d="M 568.500,71.500 C 567.770,66.387 567.626,66.224 565.500,61.500" stroke-width="6.750" stroke="rgb(33,33,33)" fill="none" stroke-linecap="round"></path><path d="M 565.500,61.500 C 563.126,56.224 562.851,56.247 559.500,51.500" stroke-width="6.750" stroke="rgb(33,33,33)" fill="none" stroke-linecap="round"></path><path d="M 559.500,51.500 C 556.851,47.747 556.624,47.885 553.500,44.500" stroke-width="6.750" stroke="rgb(33,33,33)" fill="none" stroke-linecap="round"></path><path d="M 553.500,44.500 C 550.624,41.385 550.607,41.385 547.500,38.500" stroke-width="7.248" stroke="rgb(33,33,33)" fill="none" stroke-linecap="round"></path><path d="M 547.500,38.500 C 543.607,34.885 543.671,34.777 539.500,31.500" stroke-width="6.826" stroke="rgb(33,33,33)" fill="none" stroke-linecap="round"></path><path d="M 539.500,31.500 C 536.671,29.277 536.661,29.202 533.500,27.500" stroke-width="7.197" stroke="rgb(33,33,33)" fill="none" stroke-linecap="round"></path><path d="M 533.500,27.500 C 530.161,25.702 530.119,25.631 526.500,24.500" stroke-width="7.151" stroke="rgb(33,33,33)" fill="none" stroke-linecap="round"></path><path d="M 526.500,24.500 C 522.119,23.131 522.000,23.500 517.500,22.500" stroke-width="7.421" stroke="rgb(33,33,33)" fill="none" stroke-linecap="round"></path><path d="M 517.500,22.500 C 513.000,21.500 513.035,21.300 508.500,20.500" stroke-width="7.825" stroke="rgb(33,33,33)" fill="none" stroke-linecap="round"></path><path d="M 508.500,20.500 C 504.535,19.800 504.514,19.768 500.500,19.500" stroke-width="7.574" stroke="rgb(33,33,33)" fill="none" stroke-linecap="round"></path><path d="M 500.500,19.500 C 497.014,19.268 497.000,19.500 493.500,19.500" stroke-width="7.873" stroke="rgb(33,33,33)" fill="none" stroke-linecap="round"></path><path d="M 493.500,19.500 C 490.500,19.500 490.500,19.500 487.500,19.500" stroke-width="7.917" stroke="rgb(33,33,33)" fill="none" stroke-linecap="round"></path><path d="M 487.500,19.500 C 484.000,19.500 483.978,19.232 480.500,19.500" stroke-width="8.167" stroke="rgb(33,33,33)" fill="none" stroke-linecap="round"></path><path d="M 480.500,19.500 C 477.478,19.732 477.353,19.549 474.500,20.500" stroke-width="8.784" stroke="rgb(33,33,33)" fill="none" stroke-linecap="round"></path><path d="M 474.500,20.500 C 471.353,21.549 471.213,21.601 468.500,23.500" stroke-width="8.128" stroke="rgb(33,33,33)" fill="none" stroke-linecap="round"></path><path d="M 468.500,23.500 C 466.213,25.101 466.682,25.715 464.500,27.500" stroke-width="8.600" stroke="rgb(33,33,33)" fill="none" stroke-linecap="round"></path><path d="M 464.500,27.500 C 461.182,30.215 460.907,29.879 457.500,32.500" stroke-width="8.055" stroke="rgb(33,33,33)" fill="none" stroke-linecap="round"></path><path d="M 457.500,32.500 C 454.407,34.879 454.117,34.645 451.500,37.500" stroke-width="8.193" stroke="rgb(33,33,33)" fill="none" stroke-linecap="round"></path><path d="M 451.500,37.500 C 448.617,40.645 448.776,40.858 446.500,44.500" stroke-width="8.550" stroke="rgb(33,33,33)" fill="none" stroke-linecap="round"></path><path d="M 446.500,44.500 C 443.776,48.858 444.079,49.046 441.500,53.500" stroke-width="8.306" stroke="rgb(33,33,33)" fill="none" stroke-linecap="round"></path><path d="M 441.500,53.500 C 438.579,58.546 437.981,58.261 435.500,63.500" stroke-width="7.408" stroke="rgb(33,33,33)" fill="none" stroke-linecap="round"></path><path d="M 435.500,63.500 C 433.481,67.761 433.424,67.880 432.500,72.500" stroke-width="7.492" stroke="rgb(33,33,33)" fill="none" stroke-linecap="round"></path><path d="M 432.500,72.500 C 431.424,77.880 431.924,77.994 431.500,83.500" stroke-width="6.948" stroke="rgb(33,33,33)" fill="none" stroke-linecap="round"></path><path d="M 431.500,83.500 C 430.924,90.994 430.742,90.991 430.500,98.500" stroke-width="7.219" stroke="rgb(33,33,33)" fill="none" stroke-linecap="round"></path><path d="M 430.500,98.500 C 430.242,106.491 429.756,106.569 430.500,114.500" stroke-width="6.750" stroke="rgb(33,33,33)" fill="none" stroke-linecap="round"></path><path d="M 430.500,114.500 C 431.256,122.569 431.851,122.531 433.500,130.500" stroke-width="6.750" stroke="rgb(33,33,33)" fill="none" stroke-linecap="round"></path><path d="M 433.500,130.500 C 434.851,137.031 434.465,137.168 436.500,143.500" stroke-width="6.750" stroke="rgb(33,33,33)" fill="none" stroke-linecap="round"></path><path d="M 436.500,143.500 C 438.965,151.168 439.104,151.185 442.500,158.500" stroke-width="6.750" stroke="rgb(33,33,33)" fill="none" stroke-linecap="round"></path><path d="M 442.500,158.500 C 445.604,165.185 445.812,165.108 449.500,171.500" stroke-width="6.750" stroke="rgb(33,33,33)" fill="none" stroke-linecap="round"></path><path d="M 449.500,171.500 C 453.312,178.108 453.434,178.042 457.500,184.500" stroke-width="6.750" stroke="rgb(33,33,33)" fill="none" stroke-linecap="round"></path><path d="M 457.500,184.500 C 461.934,191.542 461.823,191.621 466.500,198.500" stroke-width="6.750" stroke="rgb(33,33,33)" fill="none" stroke-linecap="round"></path><path d="M 466.500,198.500 C 470.323,204.121 470.547,203.966 474.500,209.500" stroke-width="6.750" stroke="rgb(33,33,33)" fill="none" stroke-linecap="round"></path><path d="M 474.500,209.500 C 478.047,214.466 478.000,214.500 481.500,219.500" stroke-width="6.750" stroke="rgb(33,33,33)" fill="none" stroke-linecap="round"></path><path d="M 481.500,219.500 C 485.000,224.500 484.724,224.718 488.500,229.500" stroke-width="6.750" stroke="rgb(33,33,33)" fill="none" stroke-linecap="round"></path><path d="M 488.500,229.500 C 492.224,234.218 492.623,233.896 496.500,238.500" stroke-width="6.750" stroke="rgb(33,33,33)" fill="none" stroke-linecap="round"></path><path d="M 496.500,238.500 C 500.623,243.396 500.569,243.446 504.500,248.500" stroke-width="6.750" stroke="rgb(33,33,33)" fill="none" stroke-linecap="round"></path><path d="M 504.500,248.500 C 507.569,252.446 507.732,252.348 510.500,256.500" stroke-width="6.750" stroke="rgb(33,33,33)" fill="none" stroke-linecap="round"></path><path d="M 510.500,256.500 C 512.732,259.848 512.426,260.044 514.500,263.500" stroke-width="6.750" stroke="rgb(33,33,33)" fill="none" stroke-linecap="round"></path><path d="M 514.500,263.500 C 516.926,267.544 517.162,267.409 519.500,271.500" stroke-width="7.035" stroke="rgb(33,33,33)" fill="none" stroke-linecap="round"></path><path d="M 519.500,271.500 C 521.162,274.409 521.560,274.368 522.500,277.500" stroke-width="7.135" stroke="rgb(33,33,33)" fill="none" stroke-linecap="round"></path><path d="M 522.500,277.500 C 523.060,279.368 522.145,279.550 522.500,281.500" stroke-width="7.777" stroke="rgb(33,33,33)" fill="none" stroke-linecap="round"></path><path d="M 522.500,281.500 C 523.145,285.050 523.621,284.983 524.500,288.500" stroke-width="7.650" stroke="rgb(33,33,33)" fill="none" stroke-linecap="round"></path><path d="M 524.500,288.500 C 524.621,288.983 524.500,289.000 524.500,289.500" stroke-width="8.613" stroke="rgb(33,33,33)" fill="none" stroke-linecap="round"></path><path d="M 524.500,289.500 C 524.500,290.500 524.500,290.500 524.500,291.500" stroke-width="9.548" stroke="rgb(33,33,33)" fill="none" stroke-linecap="round"></path><path d="M 524.500,291.500 C 524.500,292.000 524.500,292.000 524.500,292.500" stroke-width="10.565" stroke="rgb(33,33,33)" fill="none" stroke-linecap="round"></path><path d="M 524.500,292.500 C 524.500,293.000 524.750,293.250 524.500,293.500" stroke-width="11.612" stroke="rgb(33,33,33)" fill="none" stroke-linecap="round"></path><path d="M 524.500,293.500 C 524.250,293.750 524.000,293.500 523.500,293.500" stroke-width="12.552" stroke="rgb(33,33,33)" fill="none" stroke-linecap="round"></path><path d="M 523.500,293.500 C 523.000,293.500 523.000,293.500 522.500,293.500" stroke-width="13.144" stroke="rgb(33,33,33)" fill="none" stroke-linecap="round"></path><path d="M 522.500,293.500 C 521.000,293.500 520.960,293.743 519.500,293.500" stroke-width="13.214" stroke="rgb(33,33,33)" fill="none" stroke-linecap="round"></path><path d="M 519.500,293.500 C 517.960,293.243 517.872,293.262 516.500,292.500" stroke-width="13.598" stroke="rgb(33,33,33)" fill="none" stroke-linecap="round"></path><path d="M 516.500,292.500 C 513.372,290.762 513.333,290.704 510.500,288.500" stroke-width="12.410" stroke="rgb(33,33,33)" fill="none" stroke-linecap="round"></path><path d="M 510.500,288.500 C 508.833,287.204 509.137,286.810 507.500,285.500" stroke-width="11.324" stroke="rgb(33,33,33)" fill="none" stroke-linecap="round"></path><path d="M 507.500,285.500 C 506.637,284.810 506.273,285.273 505.500,284.500" stroke-width="11.622" stroke="rgb(33,33,33)" fill="none" stroke-linecap="round"></path><path d="M 505.500,284.500 C 503.773,282.773 504.254,282.254 502.500,280.500" stroke-width="11.781" stroke="rgb(33,33,33)" fill="none" stroke-linecap="round"></path><path d="M 502.500,280.500 C 500.254,278.254 499.876,278.638 497.500,276.500" stroke-width="11.791" stroke="rgb(33,33,33)" fill="none" stroke-linecap="round"></path><path d="M 497.500,276.500 C 494.876,274.138 495.000,274.000 492.500,271.500" stroke-width="11.190" stroke="rgb(33,33,33)" fill="none" stroke-linecap="round"></path><path d="M 492.500,271.500 C 490.500,269.500 489.946,269.814 488.500,267.500" stroke-width="10.489" stroke="rgb(33,33,33)" fill="none" stroke-linecap="round"></path><path d="M 488.500,267.500 C 487.446,265.814 488.479,265.263 487.500,263.500" stroke-width="10.760" stroke="rgb(33,33,33)" fill="none" stroke-linecap="round"></path><path d="M 487.500,263.500 C 485.979,260.763 485.024,261.167 483.500,258.500" stroke-width="9.997" stroke="rgb(33,33,33)" fill="none" stroke-linecap="round"></path><path d="M 483.500,258.500 C 483.024,257.667 483.663,257.480 483.500,256.500" stroke-width="10.884" stroke="rgb(33,33,33)" fill="none" stroke-linecap="round"></path><path d="M 483.500,256.500 C 483.163,254.480 482.947,254.512 482.500,252.500" stroke-width="11.091" stroke="rgb(33,33,33)" fill="none" stroke-linecap="round"></path><path d="M 482.500,252.500 C 481.947,250.012 481.752,250.025 481.500,247.500" stroke-width="10.571" stroke="rgb(33,33,33)" fill="none" stroke-linecap="round"></path><path d="M 481.500,247.500 C 481.252,245.025 481.500,245.000 481.500,242.500" stroke-width="10.663" stroke="rgb(33,33,33)" fill="none" stroke-linecap="round"></path><path d="M 481.500,242.500 C 481.500,240.500 481.500,240.500 481.500,238.500" stroke-width="10.550" stroke="rgb(33,33,33)" fill="none" stroke-linecap="round"></path><path d="M 481.500,238.500 C 481.500,236.500 481.500,236.500 481.500,234.500" stroke-width="11.154" stroke="rgb(33,33,33)" fill="none" stroke-linecap="round"></path><path d="M 481.500,234.500 C 481.500,232.000 481.226,231.966 481.500,229.500" stroke-width="11.132" stroke="rgb(33,33,33)" fill="none" stroke-linecap="round"></path><path d="M 481.500,229.500 C 481.726,227.466 481.934,227.481 482.500,225.500" stroke-width="10.879" stroke="rgb(33,33,33)" fill="none" stroke-linecap="round"></path><path d="M 482.500,225.500 C 482.934,223.981 482.646,223.781 483.500,222.500" stroke-width="11.284" stroke="rgb(33,33,33)" fill="none" stroke-linecap="round"></path><path d="M 483.500,222.500 C 484.646,220.781 484.863,220.810 486.500,219.500" stroke-width="10.959" stroke="rgb(33,33,33)" fill="none" stroke-linecap="round"></path><path d="M 486.500,219.500 C 487.363,218.810 487.543,219.074 488.500,218.500" stroke-width="11.753" stroke="rgb(33,33,33)" fill="none" stroke-linecap="round"></path><path d="M 488.500,218.500 C 490.043,217.574 489.843,217.121 491.500,216.500" stroke-width="11.922" stroke="rgb(33,33,33)" fill="none" stroke-linecap="round"></path><path d="M 491.500,216.500 C 493.843,215.621 494.012,216.053 496.500,215.500" stroke-width="11.165" stroke="rgb(33,33,33)" fill="none" stroke-linecap="round"></path><path d="M 496.500,215.500 C 498.512,215.053 498.470,214.754 500.500,214.500" stroke-width="11.323" stroke="rgb(33,33,33)" fill="none" stroke-linecap="round"></path><path d="M 500.500,214.500 C 502.470,214.254 502.500,214.500 504.500,214.500" stroke-width="11.479" stroke="rgb(33,33,33)" fill="none" stroke-linecap="round"></path><path d="M 504.500,214.500 C 506.000,214.500 506.000,214.500 507.500,214.500" stroke-width="12.068" stroke="rgb(33,33,33)" fill="none" stroke-linecap="round"></path><path d="M 507.500,214.500 C 509.500,214.500 509.522,214.280 511.500,214.500" stroke-width="11.622" stroke="rgb(33,33,33)" fill="none" stroke-linecap="round"></path><path d="M 511.500,214.500 C 514.022,214.780 514.367,214.315 516.500,215.500" stroke-width="11.481" stroke="rgb(33,33,33)" fill="none" stroke-linecap="round"></path><path d="M 516.500,215.500 C 518.867,216.815 518.500,217.500 520.500,219.500" stroke-width="11.021" stroke="rgb(33,33,33)" fill="none" stroke-linecap="round"></path><path d="M 520.500,219.500 C 523.000,222.000 523.272,221.777 525.500,224.500" stroke-width="10.370" stroke="rgb(33,33,33)" fill="none" stroke-linecap="round"></path><path d="M 525.500,224.500 C 527.772,227.277 527.611,227.431 529.500,230.500" stroke-width="10.758" stroke="rgb(33,33,33)" fill="none" stroke-linecap="round"></path><path d="M 529.500,230.500 C 531.611,233.931 531.700,233.900 533.500,237.500" stroke-width="9.602" stroke="rgb(33,33,33)" fill="none" stroke-linecap="round"></path><path d="M 533.500,237.500 C 535.200,240.900 535.222,240.921 536.500,244.500" stroke-width="9.458" stroke="rgb(33,33,33)" fill="none" stroke-linecap="round"></path><path d="M 536.500,244.500 C 537.722,247.921 537.225,248.100 538.500,251.500" stroke-width="8.894" stroke="rgb(33,33,33)" fill="none" stroke-linecap="round"></path><path d="M 538.500,251.500 C 540.225,256.100 540.626,255.948 542.500,260.500" stroke-width="8.930" stroke="rgb(33,33,33)" fill="none" stroke-linecap="round"></path><path d="M 542.500,260.500 C 544.126,264.448 544.332,264.411 545.500,268.500" stroke-width="9.090" stroke="rgb(33,33,33)" fill="none" stroke-linecap="round"></path><path d="M 545.500,268.500 C 546.332,271.411 546.000,271.500 546.500,274.500" stroke-width="8.857" stroke="rgb(33,33,33)" fill="none" stroke-linecap="round"></path><path d="M 546.500,274.500 C 547.000,277.500 546.956,277.508 547.500,280.500" stroke-width="8.911" stroke="rgb(33,33,33)" fill="none" stroke-linecap="round"></path><path d="M 547.500,280.500 C 547.956,283.008 548.270,282.973 548.500,285.500" stroke-width="8.909" stroke="rgb(33,33,33)" fill="none" stroke-linecap="round"></path><path d="M 548.500,285.500 C 548.770,288.473 548.500,288.500 548.500,291.500" stroke-width="9.129" stroke="rgb(33,33,33)" fill="none" stroke-linecap="round"></path><path d="M 548.500,291.500 C 548.500,293.500 548.319,293.513 548.500,295.500" stroke-width="9.891" stroke="rgb(33,33,33)" fill="none" stroke-linecap="round"></path><path d="M 548.500,295.500 C 548.819,299.013 549.110,300.551 549.500,302.500" stroke-width="9.549" stroke="rgb(33,33,33)" fill="none" stroke-linecap="round"></path><path d="M 549.500,302.500 C 549.610,303.051 549.771,301.448 549.500,300.500" stroke-width="10.626" stroke="rgb(33,33,33)" fill="none" stroke-linecap="round"></path><path d="M 549.500,300.500 C 548.771,297.948 548.500,298.000 547.500,295.500" stroke-width="11.052" stroke="rgb(33,33,33)" fill="none" stroke-linecap="round"></path><path d="M 547.500,295.500 C 545.500,290.500 545.901,290.301 543.500,285.500" stroke-width="10.001" stroke="rgb(33,33,33)" fill="none" stroke-linecap="round"></path><path d="M 543.500,285.500 C 540.901,280.301 540.201,280.657 537.500,275.500" stroke-width="8.427" stroke="rgb(33,33,33)" fill="none" stroke-linecap="round"></path><path d="M 537.500,275.500 C 534.701,270.157 535.386,269.791 532.500,264.500" stroke-width="8.019" stroke="rgb(33,33,33)" fill="none" stroke-linecap="round"></path><path d="M 532.500,264.500 C 529.386,258.791 528.815,259.109 525.500,253.500" stroke-width="7.051" stroke="rgb(33,33,33)" fill="none" stroke-linecap="round"></path><path d="M 525.500,253.500 C 522.315,248.109 522.300,248.101 519.500,242.500" stroke-width="7.368" stroke="rgb(33,33,33)" fill="none" stroke-linecap="round"></path><path d="M 519.500,242.500 C 515.800,235.101 516.200,234.900 512.500,227.500" stroke-width="6.864" stroke="rgb(33,33,33)" fill="none" stroke-linecap="round"></path><path d="M 512.500,227.500 C 509.200,220.900 509.016,220.991 505.500,214.500" stroke-width="6.750" stroke="rgb(33,33,33)" fill="none" stroke-linecap="round"></path><path d="M 505.500,214.500 C 502.516,208.991 502.189,209.146 499.500,203.500" stroke-width="6.750" stroke="rgb(33,33,33)" fill="none" stroke-linecap="round"></path><path d="M 499.500,203.500 C 497.189,198.646 497.500,198.500 495.500,193.500" stroke-width="6.750" stroke="rgb(33,33,33)" fill="none" stroke-linecap="round"></path><path d="M 495.500,193.500 C 493.500,188.500 493.452,188.519 491.500,183.500" stroke-width="6.872" stroke="rgb(33,33,33)" fill="none" stroke-linecap="round"></path><path d="M 491.500,183.500 C 489.952,179.519 489.668,179.589 488.500,175.500" stroke-width="6.785" stroke="rgb(33,33,33)" fill="none" stroke-linecap="round"></path><path d="M 488.500,175.500 C 487.668,172.589 488.137,172.472 487.500,169.500" stroke-width="7.003" stroke="rgb(33,33,33)" fill="none" stroke-linecap="round"></path><path d="M 487.500,169.500 C 486.637,165.472 486.305,165.524 485.500,161.500" stroke-width="7.262" stroke="rgb(33,33,33)" fill="none" stroke-linecap="round"></path><path d="M 485.500,161.500 C 485.305,160.524 485.500,160.500 485.500,159.500" stroke-width="8.109" stroke="rgb(33,33,33)" fill="none" stroke-linecap="round"></path><path d="M 485.500,159.500 C 485.500,159.000 485.500,159.000 485.500,158.500" stroke-width="9.130" stroke="rgb(33,33,33)" fill="none" stroke-linecap="round"></path><path d="M 485.500,158.500 C 485.500,158.000 485.125,157.625 485.500,157.500" stroke-width="10.178" stroke="rgb(33,33,33)" fill="none" stroke-linecap="round"></path><path d="M 485.500,157.500 C 486.625,157.125 487.000,157.500 488.500,157.500" stroke-width="11.084" stroke="rgb(33,33,33)" fill="none" stroke-linecap="round"></path><path d="M 488.500,157.500 C 489.500,157.500 489.573,157.191 490.500,157.500" stroke-width="11.495" stroke="rgb(33,33,33)" fill="none" stroke-linecap="round"></path><path d="M 490.500,157.500 C 492.573,158.191 492.586,158.352 494.500,159.500" stroke-width="11.516" stroke="rgb(33,33,33)" fill="none" stroke-linecap="round"></path><path d="M 494.500,159.500 C 497.586,161.352 497.372,161.762 500.500,163.500" stroke-width="10.294" stroke="rgb(33,33,33)" fill="none" stroke-linecap="round"></path><path d="M 500.500,163.500 C 501.872,164.262 502.000,164.000 503.500,164.500" stroke-width="10.776" stroke="rgb(33,33,33)" fill="none" stroke-linecap="round"></path><path d="M 503.500,164.500 C 506.500,165.500 506.691,165.095 509.500,166.500" stroke-width="11.066" stroke="rgb(33,33,33)" fill="none" stroke-linecap="round"></path><path d="M 509.500,166.500 C 513.691,168.595 513.381,169.212 517.500,171.500" stroke-width="9.482" stroke="rgb(33,33,33)" fill="none" stroke-linecap="round"></path><path d="M 517.500,171.500 C 522.381,174.212 522.458,174.088 527.500,176.500" stroke-width="8.877" stroke="rgb(33,33,33)" fill="none" stroke-linecap="round"></path><path d="M 527.500,176.500 C 533.958,179.588 533.823,179.947 540.500,182.500" stroke-width="7.388" stroke="rgb(33,33,33)" fill="none" stroke-linecap="round"></path><path d="M 540.500,182.500 C 550.823,186.447 550.954,186.144 561.500,189.500" stroke-width="6.750" stroke="rgb(33,33,33)" fill="none" stroke-linecap="round"></path><path d="M 561.500,189.500 C 572.954,193.144 573.101,192.700 584.500,196.500" stroke-width="6.750" stroke="rgb(33,33,33)" fill="none" stroke-linecap="round"></path><path d="M 584.500,196.500 C 594.101,199.700 594.044,199.885 603.500,203.500" stroke-width="6.750" stroke="rgb(33,33,33)" fill="none" stroke-linecap="round"></path><path d="M 603.500,203.500 C 611.044,206.385 610.869,206.877 618.500,209.500" stroke-width="6.750" stroke="rgb(33,33,33)" fill="none" stroke-linecap="round"></path><path d="M 618.500,209.500 C 626.869,212.377 627.069,211.790 635.500,214.500" stroke-width="6.750" stroke="rgb(33,33,33)" fill="none" stroke-linecap="round"></path><path d="M 635.500,214.500 C 641.069,216.290 640.977,216.567 646.500,218.500" stroke-width="6.750" stroke="rgb(33,33,33)" fill="none" stroke-linecap="round"></path><path d="M 646.500,218.500 C 650.977,220.067 650.936,220.232 655.500,221.500" stroke-width="6.750" stroke="rgb(33,33,33)" fill="none" stroke-linecap="round"></path><path d="M 655.500,221.500 C 659.936,222.732 659.993,222.534 664.500,223.500" stroke-width="6.750" stroke="rgb(33,33,33)" fill="none" stroke-linecap="round"></path><path d="M 664.500,223.500 C 666.993,224.034 667.000,224.000 669.500,224.500" stroke-width="6.750" stroke="rgb(33,33,33)" fill="none" stroke-linecap="round"></path></svg>