<svg xmlns="http://www.w3.org/2000/svg" xmlns:xlink="http://www.w3.org/1999/xlink" viewBox="0 0 320 500"><path d="M 104.000,103.000 C 102.500,105.500 101.990,105.359 101.000,108.000" stroke-width="19.412" stroke="rgb(33,33,33)" fill="none" stroke-linecap="round"></path><path d="M 101.000,108.000 C 100.490,109.359 101.000,109.500 101.000,111.000" stroke-width="18.928" stroke="rgb(33,33,33)" fill="none" stroke-linecap="round"></path><path d="M 101.000,111.000 C 101.000,112.000 101.000,112.000 101.000,113.000" stroke-width="18.783" stroke="rgb(33,33,33)" fill="none" stroke-linecap="round"></path><path d="M 101.000,113.000 C 101.000,114.500 101.000,114.500 101.000,116.000" stroke-width="18.922" stroke="rgb(33,33,33)" fill="none" stroke-linecap="round"></path><path d="M 101.000,116.000 C 101.000,117.000 101.000,117.000 101.000,118.000" stroke-width="18.887" stroke="rgb(33,33,33)" fill="none" stroke-linecap="round"></path><path d="M 101.000,118.000 C 101.000,120.000 101.000,120.000 101.000,122.000" stroke-width="13.892" stroke="rgb(33,33,33)" fill="none" stroke-linecap="round"></path><path d="M 101.000,122.000 C 101.000,128.000 101.000,128.000 101.000,134.000" stroke-width="12.930" stroke="rgb(33,33,33)" fill="none" stroke-linecap="round"></path><path d="M 101.000,134.000 C 101.000,139.500 101.239,139.510 101.000,145.000" stroke-width="12.577" stroke="rgb(33,33,33)" fill="none" stroke-linecap="round"></path><path d="M 101.000,145.000 C 100.739,151.010 100.207,150.988 100.000,157.000" stroke-width="12.425" stroke="rgb(33,33,33)" fill="none" stroke-linecap="round"></path><path d="M 100.000,157.000 C 99.707,165.488 100.000,165.500 100.000,174.000" stroke-width="11.963" stroke="rgb(33,33,33)" fill="none" stroke-linecap="round"></path><path d="M 100.000,174.000 C 100.000,181.500 100.267,181.510 100.000,189.000" stroke-width="11.828" stroke="rgb(33,33,33)" fill="none" stroke-linecap="round"></path><path d="M 100.000,189.000 C 99.767,195.510 99.250,195.490 99.000,202.000" stroke-width="11.533" stroke="rgb(33,33,33)" fill="none" stroke-linecap="round"></path><path d="M 99.000,202.000 C 98.750,208.490 99.000,208.500 99.000,215.000" stroke-width="10.860" stroke="rgb(33,33,33)" fill="none" stroke-linecap="round"></path><path d="M 99.000,215.000 C 99.000,219.000 99.000,219.000 99.000,223.000" stroke-width="11.339" stroke="rgb(33,33,33)" fill="none" stroke-linecap="round"></path><path d="M 99.000,223.000 C 99.000,226.000 99.000,226.000 99.000,229.000" stroke-width="11.886" stroke="rgb(33,33,33)" fill="none" stroke-linecap="round"></path><path d="M 99.000,229.000 C 99.000,231.000 99.000,231.000 99.000,233.000" stroke-width="12.577" stroke="rgb(33,33,33)" fill="none" stroke-linecap="round"></path><path d="M 99.000,233.000 C 99.000,233.500 98.714,234.191 99.000,234.000" stroke-width="13.508" stroke="rgb(33,33,33)" fill="none" stroke-linecap="round"></path><path d="M 99.000,234.000 C 100.214,233.191 100.500,232.500 102.000,231.000" stroke-width="14.295" stroke="rgb(33,33,33)" fill="none" stroke-linecap="round"></path><path d="M 102.000,231.000 C 106.000,227.000 106.233,227.211 110.000,223.000" stroke-width="13.731" stroke="rgb(33,33,33)" fill="none" stroke-linecap="round"></path><path d="M 110.000,223.000 C 114.733,217.711 114.621,217.595 119.000,212.000" stroke-width="13.090" stroke="rgb(33,33,33)" fill="none" stroke-linecap="round"></path><path d="M 119.000,212.000 C 123.621,206.095 123.500,206.000 128.000,200.000" stroke-width="12.546" stroke="rgb(33,33,33)" fill="none" stroke-linecap="round"></path><path d="M 128.000,200.000 C 132.500,194.000 132.500,194.000 137.000,188.000" stroke-width="12.063" stroke="rgb(33,33,33)" fill="none" stroke-linecap="round"></path><path d="M 137.000,188.000 C 141.500,182.000 141.685,182.131 146.000,176.000" stroke-width="11.777" stroke="rgb(33,33,33)" fill="none" stroke-linecap="round"></path><path d="M 146.000,176.000 C 151.185,168.631 151.483,168.780 156.000,161.000" stroke-width="11.328" stroke="rgb(33,33,33)" fill="none" stroke-linecap="round"></path><path d="M 156.000,161.000 C 160.483,153.280 160.098,153.048 164.000,145.000" stroke-width="10.924" stroke="rgb(33,33,33)" fill="none" stroke-linecap="round"></path><path d="M 164.000,145.000 C 168.098,136.548 168.620,136.733 172.000,128.000" stroke-width="10.635" stroke="rgb(33,33,33)" fill="none" stroke-linecap="round"></path><path d="M 172.000,128.000 C 174.620,121.233 174.424,121.093 176.000,114.000" stroke-width="10.689" stroke="rgb(33,33,33)" fill="none" stroke-linecap="round"></path><path d="M 176.000,114.000 C 177.424,107.593 177.477,107.536 178.000,101.000" stroke-width="10.771" stroke="rgb(33,33,33)" fill="none" stroke-linecap="round"></path><path d="M 178.000,101.000 C 178.477,95.036 179.146,94.729 178.000,89.000" stroke-width="10.974" stroke="rgb(33,33,33)" fill="none" stroke-linecap="round"></path><path d="M 178.000,89.000 C 177.146,84.729 176.513,84.630 174.000,81.000" stroke-width="11.522" stroke="rgb(33,33,33)" fill="none" stroke-linecap="round"></path><path d="M 174.000,81.000 C 172.013,78.130 171.740,78.192 169.000,76.000" stroke-width="11.863" stroke="rgb(33,33,33)" fill="none" stroke-linecap="round"></path><path d="M 169.000,76.000 C 166.740,74.192 166.638,74.199 164.000,73.000" stroke-width="12.281" stroke="rgb(33,33,33)" fill="none" stroke-linecap="round"></path><path d="M 164.000,73.000 C 161.138,71.699 161.085,71.475 158.000,71.000" stroke-width="12.708" stroke="rgb(33,33,33)" fill="none" stroke-linecap="round"></path><path d="M 158.000,71.000 C 154.585,70.475 154.500,71.000 151.000,71.000" stroke-width="12.962" stroke="rgb(33,33,33)" fill="none" stroke-linecap="round"></path><path d="M 151.000,71.000 C 147.000,71.000 146.939,70.508 143.000,71.000" stroke-width="13.116" stroke="rgb(33,33,33)" fill="none" stroke-linecap="round"></path><path d="M 143.000,71.000 C 138.939,71.508 138.671,71.287 135.000,73.000" stroke-width="13.164" stroke="rgb(33,33,33)" fill="none" stroke-linecap="round"></path><path d="M 135.000,73.000 C 131.171,74.787 131.440,75.420 128.000,78.000" stroke-width="13.220" stroke="rgb(33,33,33)" fill="none" stroke-linecap="round"></path><path d="M 128.000,78.000 C 123.440,81.420 123.240,81.206 119.000,85.000" stroke-width="12.984" stroke="rgb(33,33,33)" fill="none" stroke-linecap="round"></path><path d="M 119.000,85.000 C 113.740,89.706 113.764,89.783 109.000,95.000" stroke-width="12.546" stroke="rgb(33,33,33)" fill="none" stroke-linecap="round"></path><path d="M 109.000,95.000 C 103.264,101.283 103.521,101.518 98.000,108.000" stroke-width="11.883" stroke="rgb(33,33,33)" fill="none" stroke-linecap="round"></path><path d="M 98.000,108.000 C 92.021,115.018 92.373,115.361 86.000,122.000" stroke-width="11.375" stroke="rgb(33,33,33)" fill="none" stroke-linecap="round"></path><path d="M 86.000,122.000 C 80.373,127.861 79.748,127.252 74.000,133.000" stroke-width="11.153" stroke="rgb(33,33,33)" fill="none" stroke-linecap="round"></path><path d="M 74.000,133.000 C 69.748,137.252 69.791,137.334 66.000,142.000" stroke-width="11.231" stroke="rgb(33,33,33)" fill="none" stroke-linecap="round"></path><path d="M 66.000,142.000 C 63.291,145.334 63.448,145.464 61.000,149.000" stroke-width="11.614" stroke="rgb(33,33,33)" fill="none" stroke-linecap="round"></path><path d="M 61.000,149.000 C 58.948,151.964 59.119,152.087 57.000,155.000" stroke-width="12.055" stroke="rgb(33,33,33)" fill="none" stroke-linecap="round"></path><path d="M 57.000,155.000 C 55.119,157.587 54.881,157.413 53.000,160.000" stroke-width="12.507" stroke="rgb(33,33,33)" fill="none" stroke-linecap="round"></path><path d="M 53.000,160.000 C 50.881,162.913 50.854,162.911 49.000,166.000" stroke-width="12.815" stroke="rgb(33,33,33)" fill="none" stroke-linecap="round"></path><path d="M 49.000,166.000 C 46.354,170.411 46.388,170.441 44.000,175.000" stroke-width="12.713" stroke="rgb(33,33,33)" fill="none" stroke-linecap="round"></path><path d="M 44.000,175.000 C 40.888,180.941 40.699,180.867 38.000,187.000" stroke-width="12.407" stroke="rgb(33,33,33)" fill="none" stroke-linecap="round"></path><path d="M 38.000,187.000 C 35.199,193.367 35.286,193.427 33.000,200.000" stroke-width="12.129" stroke="rgb(33,33,33)" fill="none" stroke-linecap="round"></path><path d="M 33.000,200.000 C 31.286,204.927 31.473,204.992 30.000,210.000" stroke-width="12.154" stroke="rgb(33,33,33)" fill="none" stroke-linecap="round"></path><path d="M 30.000,210.000 C 28.973,213.492 28.548,213.437 28.000,217.000" stroke-width="12.511" stroke="rgb(33,33,33)" fill="none" stroke-linecap="round"></path><path d="M 28.000,217.000 C 27.548,219.937 28.000,220.000 28.000,223.000" stroke-width="12.936" stroke="rgb(33,33,33)" fill="none" stroke-linecap="round"></path><path d="M 28.000,223.000 C 28.000,226.000 28.000,226.000 28.000,229.000" stroke-width="13.297" stroke="rgb(33,33,33)" fill="none" stroke-linecap="round"></path><path d="M 28.000,229.000 C 28.000,231.500 27.250,231.750 28.000,234.000" stroke-width="13.675" stroke="rgb(33,33,33)" fill="none" stroke-linecap="round"></path><path d="M 28.000,234.000 C 28.750,236.250 29.157,236.362 31.000,238.000" stroke-width="13.993" stroke="rgb(33,33,33)" fill="none" stroke-linecap="round"></path><path d="M 31.000,238.000 C 33.657,240.362 33.830,240.309 37.000,242.000" stroke-width="14.037" stroke="rgb(33,33,33)" fill="none" stroke-linecap="round"></path><path d="M 37.000,242.000 C 41.330,244.309 41.333,244.526 46.000,246.000" stroke-width="13.776" stroke="rgb(33,33,33)" fill="none" stroke-linecap="round"></path><path d="M 46.000,246.000 C 50.833,247.526 50.956,247.312 56.000,248.000" stroke-width="13.537" stroke="rgb(33,33,33)" fill="none" stroke-linecap="round"></path><path d="M 56.000,248.000 C 61.956,248.812 61.988,248.793 68.000,249.000" stroke-width="13.163" stroke="rgb(33,33,33)" fill="none" stroke-linecap="round"></path><path d="M 68.000,249.000 C 76.488,249.293 76.525,249.471 85.000,249.000" stroke-width="12.323" stroke="rgb(33,33,33)" fill="none" stroke-linecap="round"></path><path d="M 85.000,249.000 C 94.525,248.471 94.633,248.726 104.000,247.000" stroke-width="11.642" stroke="rgb(33,33,33)" fill="none" stroke-linecap="round"></path><path d="M 104.000,247.000 C 113.633,245.226 113.485,244.440 123.000,242.000" stroke-width="11.023" stroke="rgb(33,33,33)" fill="none" stroke-linecap="round"></path><path d="M 123.000,242.000 C 132.985,239.440 132.958,239.317 143.000,237.000" stroke-width="10.590" stroke="rgb(33,33,33)" fill="none" stroke-linecap="round"></path><path d="M 143.000,237.000 C 152.458,234.817 152.481,234.904 162.000,233.000" stroke-width="10.341" stroke="rgb(33,33,33)" fill="none" stroke-linecap="round"></path><path d="M 162.000,233.000 C 172.481,230.904 172.508,231.040 183.000,229.000" stroke-width="9.957" stroke="rgb(33,33,33)" fill="none" stroke-linecap="round"></path><path d="M 183.000,229.000 C 190.508,227.540 190.518,227.587 198.000,226.000" stroke-width="10.140" stroke="rgb(33,33,33)" fill="none" stroke-linecap="round"></path><path d="M 198.000,226.000 C 207.018,224.087 207.117,224.423 216.000,222.000" stroke-width="10.113" stroke="rgb(33,33,33)" fill="none" stroke-linecap="round"></path><path d="M 216.000,222.000 C 223.617,219.923 223.459,219.370 231.000,217.000" stroke-width="9.986" stroke="rgb(33,33,33)" fill="none" stroke-linecap="round"></path><path d="M 231.000,217.000 C 240.959,213.870 241.070,214.213 251.000,211.000" stroke-width="9.792" stroke="rgb(33,33,33)" fill="none" stroke-linecap="round"></path><path d="M 251.000,211.000 C 258.070,208.713 257.969,208.411 265.000,206.000" stroke-width="9.979" stroke="rgb(33,33,33)" fill="none" stroke-linecap="round"></path><path d="M 265.000,206.000 C 275.469,202.411 275.444,202.318 286.000,199.000" stroke-width="9.718" stroke="rgb(33,33,33)" fill="none" stroke-linecap="round"></path><path d="M 286.000,199.000 C 292.944,196.818 293.102,197.299 300.000,195.000" stroke-width="9.883" stroke="rgb(33,33,33)" fill="none" stroke-linecap="round"></path><path d="M 300.000,195.000 C 305.102,193.299 305.134,193.271 310.000,191.000" stroke-width="10.300" stroke="rgb(33,33,33)" fill="none" stroke-linecap="round"></path><path d="M 137.000,229.000 C 142.500,227.500 142.877,228.241 148.000,226.000" stroke-width="19.755" stroke="rgb(33,33,33)" fill="none" stroke-linecap="round"></path><path d="M 148.000,226.000 C 150.877,224.741 150.500,224.000 153.000,222.000" stroke-width="18.487" stroke="rgb(33,33,33)" fill="none" stroke-linecap="round"></path><path d="M 153.000,222.000 C 155.500,220.000 155.754,220.246 158.000,218.000" stroke-width="17.341" stroke="rgb(33,33,33)" fill="none" stroke-linecap="round"></path><path d="M 158.000,218.000 C 159.754,216.246 159.547,216.034 161.000,214.000" stroke-width="17.020" stroke="rgb(33,33,33)" fill="none" stroke-linecap="round"></path><path d="M 161.000,214.000 C 162.047,212.534 162.074,212.543 163.000,211.000" stroke-width="16.919" stroke="rgb(33,33,33)" fill="none" stroke-linecap="round"></path><path d="M 163.000,211.000 C 163.574,210.043 163.655,210.036 164.000,209.000" stroke-width="17.106" stroke="rgb(33,33,33)" fill="none" stroke-linecap="round"></path><path d="M 164.000,209.000 C 164.155,208.536 164.000,208.000 164.000,208.000" stroke-width="17.464" stroke="rgb(33,33,33)" fill="none" stroke-linecap="round"></path><path d="M 164.000,208.000 C 164.000,208.000 164.000,208.500 164.000,209.000" stroke-width="17.920" stroke="rgb(33,33,33)" fill="none" stroke-linecap="round"></path><path d="M 164.000,209.000 C 164.000,209.500 163.625,209.875 164.000,210.000" stroke-width="18.136" stroke="rgb(33,33,33)" fill="none" stroke-linecap="round"></path><path d="M 164.000,210.000 C 165.125,210.375 165.500,210.000 167.000,210.000" stroke-width="17.909" stroke="rgb(33,33,33)" fill="none" stroke-linecap="round"></path><path d="M 167.000,210.000 C 169.000,210.000 169.063,210.387 171.000,210.000" stroke-width="17.584" stroke="rgb(33,33,33)" fill="none" stroke-linecap="round"></path><path d="M 171.000,210.000 C 174.063,209.387 174.191,209.405 177.000,208.000" stroke-width="16.870" stroke="rgb(33,33,33)" fill="none" stroke-linecap="round"></path><path d="M 177.000,208.000 C 181.191,205.905 181.315,205.896 185.000,203.000" stroke-width="15.929" stroke="rgb(33,33,33)" fill="none" stroke-linecap="round"></path><path d="M 185.000,203.000 C 188.315,200.396 188.193,200.158 191.000,197.000" stroke-width="15.378" stroke="rgb(33,33,33)" fill="none" stroke-linecap="round"></path><path d="M 191.000,197.000 C 192.193,195.658 191.923,195.437 193.000,194.000" stroke-width="15.594" stroke="rgb(33,33,33)" fill="none" stroke-linecap="round"></path><path d="M 193.000,194.000 C 193.423,193.437 194.000,193.293 194.000,193.000" stroke-width="16.129" stroke="rgb(33,33,33)" fill="none" stroke-linecap="round"></path><path d="M 194.000,193.000 C 194.000,192.793 193.464,192.826 193.000,193.000" stroke-width="16.729" stroke="rgb(33,33,33)" fill="none" stroke-linecap="round"></path><path d="M 193.000,193.000 C 189.464,194.326 189.099,193.869 186.000,196.000" stroke-width="16.162" stroke="rgb(33,33,33)" fill="none" stroke-linecap="round"></path><path d="M 186.000,196.000 C 181.099,199.369 181.369,199.861 177.000,204.000" stroke-width="15.066" stroke="rgb(33,33,33)" fill="none" stroke-linecap="round"></path><path d="M 177.000,204.000 C 171.869,208.861 171.340,208.502 167.000,214.000" stroke-width="13.834" stroke="rgb(33,33,33)" fill="none" stroke-linecap="round"></path><path d="M 167.000,214.000 C 163.840,218.002 164.168,218.354 162.000,223.000" stroke-width="13.632" stroke="rgb(33,33,33)" fill="none" stroke-linecap="round"></path><path d="M 162.000,223.000 C 160.668,225.854 160.613,225.937 160.000,229.000" stroke-width="13.750" stroke="rgb(33,33,33)" fill="none" stroke-linecap="round"></path><path d="M 160.000,229.000 C 159.613,230.937 160.000,231.000 160.000,233.000" stroke-width="14.209" stroke="rgb(33,33,33)" fill="none" stroke-linecap="round"></path><path d="M 160.000,233.000 C 160.000,234.000 159.667,234.333 160.000,235.000" stroke-width="14.864" stroke="rgb(33,33,33)" fill="none" stroke-linecap="round"></path><path d="M 160.000,235.000 C 160.167,235.333 160.500,235.000 161.000,235.000" stroke-width="15.538" stroke="rgb(33,33,33)" fill="none" stroke-linecap="round"></path><path d="M 161.000,235.000 C 165.500,235.000 165.773,236.233 170.000,235.000" stroke-width="15.017" stroke="rgb(33,33,33)" fill="none" stroke-linecap="round"></path><path d="M 170.000,235.000 C 177.773,232.733 177.864,232.117 185.000,228.000" stroke-width="13.743" stroke="rgb(33,33,33)" fill="none" stroke-linecap="round"></path><path d="M 185.000,228.000 C 190.864,224.617 190.647,224.189 196.000,220.000" stroke-width="13.074" stroke="rgb(33,33,33)" fill="none" stroke-linecap="round"></path><path d="M 196.000,220.000 C 202.147,215.189 202.026,215.031 208.000,210.000" stroke-width="12.478" stroke="rgb(33,33,33)" fill="none" stroke-linecap="round"></path><path d="M 208.000,210.000 C 211.526,207.031 211.434,206.918 215.000,204.000" stroke-width="12.603" stroke="rgb(33,33,33)" fill="none" stroke-linecap="round"></path><path d="M 215.000,204.000 C 216.934,202.418 216.927,202.382 219.000,201.000" stroke-width="13.082" stroke="rgb(33,33,33)" fill="none" stroke-linecap="round"></path><path d="M 219.000,201.000 C 219.927,200.382 219.964,200.345 221.000,200.000" stroke-width="13.826" stroke="rgb(33,33,33)" fill="none" stroke-linecap="round"></path><path d="M 221.000,200.000 C 221.464,199.845 221.750,199.750 222.000,200.000" stroke-width="14.644" stroke="rgb(33,33,33)" fill="none" stroke-linecap="round"></path><path d="M 222.000,200.000 C 222.250,200.250 222.000,200.500 222.000,201.000" stroke-width="15.356" stroke="rgb(33,33,33)" fill="none" stroke-linecap="round"></path><path d="M 222.000,201.000 C 222.000,201.500 221.793,201.586 222.000,202.000" stroke-width="15.976" stroke="rgb(33,33,33)" fill="none" stroke-linecap="round"></path><path d="M 222.000,202.000 C 222.293,202.586 222.338,203.110 223.000,203.000" stroke-width="16.455" stroke="rgb(33,33,33)" fill="none" stroke-linecap="round"></path></svg>