<svg xmlns="http://www.w3.org/2000/svg" xmlns:xlink="http://www.w3.org/1999/xlink" viewBox="0 0 360 500"><path d="M 82.394,144.532 C 76.261,146.181 75.801,145.270 70.128,147.830" stroke-width="19.694" stroke="rgb(33,33,33)" fill="none" stroke-linecap="round"></path><path d="M 70.128,147.830 C 66.423,149.502 66.609,150.121 63.638,152.997" stroke-width="17.980" stroke="rgb(33,33,33)" fill="none" stroke-linecap="round"></path><path d="M 63.638,152.997 C 59.161,157.331 59.124,157.373 55.233,162.250" stroke-width="16.332" stroke="rgb(33,33,33)" fill="none" stroke-linecap="round"></path><path d="M 55.233,162.250 C 50.858,167.733 50.784,167.746 47.107,173.717" stroke-width="15.274" stroke="rgb(33,33,33)" fill="none" stroke-linecap="round"></path><path d="M 47.107,173.717 C 43.499,179.577 43.374,179.597 40.664,185.912" stroke-width="13.749" stroke="rgb(33,33,33)" fill="none" stroke-linecap="round"></path><path d="M 40.664,185.912 C 38.185,191.689 38.186,191.791 36.728,197.901" stroke-width="13.264" stroke="rgb(33,33,33)" fill="none" stroke-linecap="round"></path><path d="M 36.728,197.901 C 35.594,202.652 35.490,202.770 35.479,207.634" stroke-width="12.968" stroke="rgb(33,33,33)" fill="none" stroke-linecap="round"></path><path d="M 35.479,207.634 C 35.469,212.063 35.427,212.266 36.687,216.488" stroke-width="13.028" stroke="rgb(33,33,33)" fill="none" stroke-linecap="round"></path><path d="M 36.687,216.488 C 37.772,220.123 37.979,220.242 40.169,223.349" stroke-width="13.201" stroke="rgb(33,33,33)" fill="none" stroke-linecap="round"></path><path d="M 40.169,223.349 C 42.075,226.053 42.102,226.373 44.878,228.109" stroke-width="13.446" stroke="rgb(33,33,33)" fill="none" stroke-linecap="round"></path><path d="M 44.878,228.109 C 48.254,230.220 48.543,230.404 52.474,231.042" stroke-width="13.495" stroke="rgb(33,33,33)" fill="none" stroke-linecap="round"></path><path d="M 52.474,231.042 C 56.338,231.670 56.656,231.582 60.467,230.641" stroke-width="13.495" stroke="rgb(33,33,33)" fill="none" stroke-linecap="round"></path><path d="M 60.467,230.641 C 64.165,229.727 64.312,229.477 67.493,227.332" stroke-width="13.523" stroke="rgb(33,33,33)" fill="none" stroke-linecap="round"></path><path d="M 67.493,227.332 C 70.599,225.238 70.614,225.044 73.041,222.162" stroke-width="13.616" stroke="rgb(33,33,33)" fill="none" stroke-linecap="round"></path><path d="M 73.041,222.162 C 75.839,218.839 75.773,218.702 77.943,214.923" stroke-width="13.509" stroke="rgb(33,33,33)" fill="none" stroke-linecap="round"></path><path d="M 77.943,214.923 C 79.914,211.490 79.838,211.411 81.323,207.737" stroke-width="13.614" stroke="rgb(33,33,33)" fill="none" stroke-linecap="round"></path><path d="M 81.323,207.737 C 82.440,204.972 82.413,204.934 83.147,202.045" stroke-width="13.867" stroke="rgb(33,33,33)" fill="none" stroke-linecap="round"></path><path d="M 83.147,202.045 C 83.659,200.028 83.820,199.969 83.816,197.926" stroke-width="14.287" stroke="rgb(33,33,33)" fill="none" stroke-linecap="round"></path><path d="M 83.816,197.926 C 83.814,196.612 83.636,196.551 83.135,195.331" stroke-width="14.831" stroke="rgb(33,33,33)" fill="none" stroke-linecap="round"></path><path d="M 83.135,195.331 C 82.866,194.676 82.873,194.475 82.276,194.176" stroke-width="15.440" stroke="rgb(33,33,33)" fill="none" stroke-linecap="round"></path><path d="M 82.276,194.176 C 81.393,193.734 81.188,193.656 80.175,193.848" stroke-width="15.892" stroke="rgb(33,33,33)" fill="none" stroke-linecap="round"></path><path d="M 80.175,193.848 C 78.225,194.218 77.996,194.159 76.350,195.301" stroke-width="15.976" stroke="rgb(33,33,33)" fill="none" stroke-linecap="round"></path><path d="M 76.350,195.301 C 74.031,196.910 73.960,197.060 72.246,199.350" stroke-width="15.844" stroke="rgb(33,33,33)" fill="none" stroke-linecap="round"></path><path d="M 72.246,199.350 C 69.761,202.669 69.702,202.749 67.953,206.520" stroke-width="15.453" stroke="rgb(33,33,33)" fill="none" stroke-linecap="round"></path><path d="M 67.953,206.520 C 66.045,210.634 65.746,210.689 64.932,215.120" stroke-width="14.462" stroke="rgb(33,33,33)" fill="none" stroke-linecap="round"></path><path d="M 64.932,215.120 C 64.070,219.812 64.193,219.992 64.600,224.766" stroke-width="14.340" stroke="rgb(33,33,33)" fill="none" stroke-linecap="round"></path><path d="M 64.600,224.766 C 64.999,229.449 64.924,229.639 66.544,234.033" stroke-width="13.823" stroke="rgb(33,33,33)" fill="none" stroke-linecap="round"></path><path d="M 66.544,234.033 C 68.147,238.380 68.232,238.573 71.046,242.248" stroke-width="13.599" stroke="rgb(33,33,33)" fill="none" stroke-linecap="round"></path><path d="M 71.046,242.248 C 73.809,245.856 74.003,245.926 77.697,248.600" stroke-width="13.444" stroke="rgb(33,33,33)" fill="none" stroke-linecap="round"></path><path d="M 77.697,248.600 C 81.772,251.551 81.863,251.843 86.584,253.498" stroke-width="13.284" stroke="rgb(33,33,33)" fill="none" stroke-linecap="round"></path><path d="M 86.584,253.498 C 91.223,255.124 91.507,255.184 96.416,255.161" stroke-width="13.233" stroke="rgb(33,33,33)" fill="none" stroke-linecap="round"></path><path d="M 96.416,255.161 C 101.150,255.139 101.458,255.099 105.870,253.409" stroke-width="13.226" stroke="rgb(33,33,33)" fill="none" stroke-linecap="round"></path><path d="M 105.870,253.409 C 110.117,251.782 110.125,251.377 113.734,248.527" stroke-width="13.145" stroke="rgb(33,33,33)" fill="none" stroke-linecap="round"></path><path d="M 113.734,248.527 C 117.413,245.622 117.360,245.448 120.447,241.898" stroke-width="12.995" stroke="rgb(33,33,33)" fill="none" stroke-linecap="round"></path><path d="M 120.447,241.898 C 123.773,238.073 123.781,238.018 126.561,233.777" stroke-width="12.930" stroke="rgb(33,33,33)" fill="none" stroke-linecap="round"></path><path d="M 126.561,233.777 C 129.213,229.732 129.177,229.669 131.311,225.326" stroke-width="12.864" stroke="rgb(33,33,33)" fill="none" stroke-linecap="round"></path><path d="M 131.311,225.326 C 133.198,221.486 133.271,221.471 134.602,217.411" stroke-width="13.068" stroke="rgb(33,33,33)" fill="none" stroke-linecap="round"></path><path d="M 134.602,217.411 C 135.836,213.647 135.715,213.581 136.442,209.679" stroke-width="13.038" stroke="rgb(33,33,33)" fill="none" stroke-linecap="round"></path><path d="M 136.442,209.679 C 137.156,205.852 137.165,205.832 137.484,201.953" stroke-width="13.199" stroke="rgb(33,33,33)" fill="none" stroke-linecap="round"></path><path d="M 137.484,201.953 C 137.790,198.231 137.849,198.204 137.693,194.477" stroke-width="13.363" stroke="rgb(33,33,33)" fill="none" stroke-linecap="round"></path><path d="M 137.693,194.477 C 137.535,190.703 137.338,190.705 136.855,186.950" stroke-width="13.487" stroke="rgb(33,33,33)" fill="none" stroke-linecap="round"></path><path d="M 136.855,186.950 C 136.396,183.383 136.526,183.352 135.808,179.833" stroke-width="13.629" stroke="rgb(33,33,33)" fill="none" stroke-linecap="round"></path><path d="M 135.808,179.833 C 135.078,176.255 134.921,176.285 133.960,172.757" stroke-width="13.817" stroke="rgb(33,33,33)" fill="none" stroke-linecap="round"></path><path d="M 133.960,172.757 C 133.036,169.363 133.056,169.356 132.037,165.990" stroke-width="13.999" stroke="rgb(33,33,33)" fill="none" stroke-linecap="round"></path><path d="M 132.037,165.990 C 131.133,163.004 131.150,162.995 130.114,160.054" stroke-width="13.769" stroke="rgb(33,33,33)" fill="none" stroke-linecap="round"></path><path d="M 130.114,160.054 C 129.283,157.694 129.239,157.708 128.302,155.387" stroke-width="14.139" stroke="rgb(33,33,33)" fill="none" stroke-linecap="round"></path><path d="M 128.302,155.387 C 127.700,153.896 127.675,153.906 127.037,152.429" stroke-width="14.611" stroke="rgb(33,33,33)" fill="none" stroke-linecap="round"></path><path d="M 127.037,152.429 C 126.659,151.553 126.690,151.536 126.269,150.682" stroke-width="15.196" stroke="rgb(33,33,33)" fill="none" stroke-linecap="round"></path><path d="M 126.269,150.682 C 126.093,150.324 126.115,150.175 125.842,150.006" stroke-width="15.876" stroke="rgb(33,33,33)" fill="none" stroke-linecap="round"></path><path d="M 125.842,150.006 C 125.686,149.910 125.474,149.944 125.411,150.153" stroke-width="16.520" stroke="rgb(33,33,33)" fill="none" stroke-linecap="round"></path><path d="M 125.411,150.153 C 124.792,152.205 124.699,152.310 124.479,154.528" stroke-width="16.377" stroke="rgb(33,33,33)" fill="none" stroke-linecap="round"></path><path d="M 124.479,154.528 C 124.067,158.681 124.164,158.710 124.146,162.895" stroke-width="15.651" stroke="rgb(33,33,33)" fill="none" stroke-linecap="round"></path><path d="M 124.146,162.895 C 124.122,168.511 124.081,168.523 124.394,174.130" stroke-width="14.810" stroke="rgb(33,33,33)" fill="none" stroke-linecap="round"></path><path d="M 124.394,174.130 C 124.760,180.691 124.803,180.696 125.505,187.231" stroke-width="13.980" stroke="rgb(33,33,33)" fill="none" stroke-linecap="round"></path><path d="M 125.505,187.231 C 126.220,193.887 126.194,193.899 127.227,200.512" stroke-width="13.354" stroke="rgb(33,33,33)" fill="none" stroke-linecap="round"></path><path d="M 127.227,200.512 C 128.227,206.908 128.233,206.917 129.571,213.251" stroke-width="13.127" stroke="rgb(33,33,33)" fill="none" stroke-linecap="round"></path><path d="M 129.571,213.251 C 130.787,219.005 130.644,219.064 132.335,224.688" stroke-width="12.728" stroke="rgb(33,33,33)" fill="none" stroke-linecap="round"></path><path d="M 132.335,224.688 C 133.733,229.338 133.716,229.398 135.749,233.799" stroke-width="12.636" stroke="rgb(33,33,33)" fill="none" stroke-linecap="round"></path><path d="M 135.749,233.799 C 137.331,237.224 137.323,237.328 139.564,240.340" stroke-width="12.844" stroke="rgb(33,33,33)" fill="none" stroke-linecap="round"></path><path d="M 139.564,240.340 C 141.237,242.588 141.317,242.681 143.578,244.320" stroke-width="13.254" stroke="rgb(33,33,33)" fill="none" stroke-linecap="round"></path><path d="M 143.578,244.320 C 145.835,245.957 145.935,246.298 148.601,246.892" stroke-width="13.603" stroke="rgb(33,33,33)" fill="none" stroke-linecap="round"></path><path d="M 148.601,246.892 C 151.290,247.490 151.662,247.530 154.288,246.704" stroke-width="13.958" stroke="rgb(33,33,33)" fill="none" stroke-linecap="round"></path><path d="M 154.288,246.704 C 157.260,245.769 157.427,245.487 159.798,243.370" stroke-width="13.999" stroke="rgb(33,33,33)" fill="none" stroke-linecap="round"></path><path d="M 159.798,243.370 C 162.963,240.543 162.896,240.320 165.361,236.816" stroke-width="13.885" stroke="rgb(33,33,33)" fill="none" stroke-linecap="round"></path><path d="M 165.361,236.816 C 168.398,232.500 168.411,232.441 170.801,227.730" stroke-width="13.642" stroke="rgb(33,33,33)" fill="none" stroke-linecap="round"></path><path d="M 170.801,227.730 C 173.318,222.768 173.253,222.695 175.176,217.469" stroke-width="13.262" stroke="rgb(33,33,33)" fill="none" stroke-linecap="round"></path><path d="M 175.176,217.469 C 176.710,213.302 176.592,213.245 177.715,208.945" stroke-width="13.148" stroke="rgb(33,33,33)" fill="none" stroke-linecap="round"></path><path d="M 177.715,208.945 C 178.680,205.253 178.691,205.242 179.352,201.485" stroke-width="13.349" stroke="rgb(33,33,33)" fill="none" stroke-linecap="round"></path><path d="M 179.352,201.485 C 179.908,198.327 179.876,198.310 180.150,195.114" stroke-width="13.556" stroke="rgb(33,33,33)" fill="none" stroke-linecap="round"></path><path d="M 180.150,195.114 C 180.367,192.589 180.274,192.579 180.333,190.043" stroke-width="13.920" stroke="rgb(33,33,33)" fill="none" stroke-linecap="round"></path><path d="M 180.333,190.043 C 180.366,188.641 180.333,188.641 180.333,187.238" stroke-width="14.476" stroke="rgb(33,33,33)" fill="none" stroke-linecap="round"></path><path d="M 180.333,187.238 C 180.333,186.473 180.466,186.437 180.333,185.707" stroke-width="15.145" stroke="rgb(33,33,33)" fill="none" stroke-linecap="round"></path><path d="M 180.333,185.707 C 180.263,185.319 180.185,185.300 179.927,185.001" stroke-width="15.836" stroke="rgb(33,33,33)" fill="none" stroke-linecap="round"></path><path d="M 179.927,185.001 C 179.768,184.817 179.612,184.670 179.499,184.741" stroke-width="16.473" stroke="rgb(33,33,33)" fill="none" stroke-linecap="round"></path><path d="M 179.499,184.741 C 179.371,184.822 179.443,185.022 179.445,185.305" stroke-width="17.083" stroke="rgb(33,33,33)" fill="none" stroke-linecap="round"></path><path d="M 179.445,185.305 C 179.477,189.546 179.391,189.553 179.568,193.790" stroke-width="7.117" stroke="rgb(33,33,33)" fill="none" stroke-linecap="round"></path><path d="M 179.568,193.790 C 179.721,197.460 179.760,197.462 180.104,201.120" stroke-width="7.612" stroke="rgb(33,33,33)" fill="none" stroke-linecap="round"></path><path d="M 180.104,201.120 C 180.461,204.912 180.526,204.906 180.970,208.689" stroke-width="8.356" stroke="rgb(33,33,33)" fill="none" stroke-linecap="round"></path><path d="M 180.970,208.689 C 181.387,212.239 181.218,212.270 181.825,215.787" stroke-width="9.089" stroke="rgb(33,33,33)" fill="none" stroke-linecap="round"></path><path d="M 181.825,215.787 C 182.331,218.719 182.468,218.698 183.196,221.587" stroke-width="9.901" stroke="rgb(33,33,33)" fill="none" stroke-linecap="round"></path><path d="M 183.196,221.587 C 183.803,223.997 183.832,223.990 184.495,226.386" stroke-width="10.644" stroke="rgb(33,33,33)" fill="none" stroke-linecap="round"></path><path d="M 184.495,226.386 C 184.883,227.789 184.790,227.828 185.298,229.184" stroke-width="11.543" stroke="rgb(33,33,33)" fill="none" stroke-linecap="round"></path><path d="M 185.298,229.184 C 185.619,230.043 185.760,229.984 186.153,230.816" stroke-width="12.470" stroke="rgb(33,33,33)" fill="none" stroke-linecap="round"></path><path d="M 186.153,230.816 C 186.391,231.319 186.233,231.469 186.561,231.854" stroke-width="13.375" stroke="rgb(33,33,33)" fill="none" stroke-linecap="round"></path><path d="M 186.561,231.854 C 186.761,232.089 186.906,232.133 187.210,232.057" stroke-width="14.269" stroke="rgb(33,33,33)" fill="none" stroke-linecap="round"></path><path d="M 187.210,232.057 C 187.763,231.919 187.820,231.838 188.274,231.427" stroke-width="15.001" stroke="rgb(33,33,33)" fill="none" stroke-linecap="round"></path><path d="M 188.274,231.427 C 189.203,230.586 189.241,230.578 189.976,229.553" stroke-width="15.440" stroke="rgb(33,33,33)" fill="none" stroke-linecap="round"></path><path d="M 189.976,229.553 C 191.239,227.793 191.158,227.726 192.270,225.857" stroke-width="15.606" stroke="rgb(33,33,33)" fill="none" stroke-linecap="round"></path><path d="M 192.270,225.857 C 193.988,222.971 194.087,223.020 195.637,220.044" stroke-width="15.375" stroke="rgb(33,33,33)" fill="none" stroke-linecap="round"></path><path d="M 195.637,220.044 C 197.409,216.643 197.386,216.621 198.914,213.102" stroke-width="15.124" stroke="rgb(33,33,33)" fill="none" stroke-linecap="round"></path><path d="M 198.914,213.102 C 200.525,209.393 200.420,209.348 201.915,205.589" stroke-width="14.509" stroke="rgb(33,33,33)" fill="none" stroke-linecap="round"></path><path d="M 201.915,205.589 C 203.366,201.942 203.428,201.965 204.807,198.291" stroke-width="14.373" stroke="rgb(33,33,33)" fill="none" stroke-linecap="round"></path><path d="M 204.807,198.291 C 205.950,195.245 205.841,195.204 206.958,192.148" stroke-width="14.510" stroke="rgb(33,33,33)" fill="none" stroke-linecap="round"></path><path d="M 206.958,192.148 C 207.777,189.908 207.644,189.836 208.680,187.698" stroke-width="14.753" stroke="rgb(33,33,33)" fill="none" stroke-linecap="round"></path><path d="M 208.680,187.698 C 209.517,185.971 209.583,185.978 210.704,184.418" stroke-width="15.006" stroke="rgb(33,33,33)" fill="none" stroke-linecap="round"></path><path d="M 210.704,184.418 C 211.556,183.233 211.493,183.101 212.625,182.208" stroke-width="15.410" stroke="rgb(33,33,33)" fill="none" stroke-linecap="round"></path><path d="M 212.625,182.208 C 213.918,181.187 213.986,181.057 215.554,180.590" stroke-width="15.661" stroke="rgb(33,33,33)" fill="none" stroke-linecap="round"></path><path d="M 215.554,180.590 C 217.193,180.102 217.398,179.947 219.040,180.298" stroke-width="16.026" stroke="rgb(33,33,33)" fill="none" stroke-linecap="round"></path><path d="M 219.040,180.298 C 220.798,180.674 221.021,180.795 222.354,182.045" stroke-width="15.903" stroke="rgb(33,33,33)" fill="none" stroke-linecap="round"></path><path d="M 222.354,182.045 C 224.286,183.856 224.337,184.027 225.571,186.420" stroke-width="15.685" stroke="rgb(33,33,33)" fill="none" stroke-linecap="round"></path><path d="M 225.571,186.420 C 227.427,190.021 227.364,190.131 228.534,194.034" stroke-width="15.354" stroke="rgb(33,33,33)" fill="none" stroke-linecap="round"></path><path d="M 228.534,194.034 C 230.034,199.040 229.931,199.097 230.911,204.239" stroke-width="14.298" stroke="rgb(33,33,33)" fill="none" stroke-linecap="round"></path><path d="M 230.911,204.239 C 231.803,208.920 231.613,208.957 232.278,213.680" stroke-width="13.868" stroke="rgb(33,33,33)" fill="none" stroke-linecap="round"></path><path d="M 232.278,213.680 C 232.833,217.623 232.687,217.648 233.351,221.572" stroke-width="13.852" stroke="rgb(33,33,33)" fill="none" stroke-linecap="round"></path><path d="M 233.351,221.572 C 233.870,224.640 233.793,224.679 234.645,227.663" stroke-width="13.991" stroke="rgb(33,33,33)" fill="none" stroke-linecap="round"></path><path d="M 234.645,227.663 C 235.247,229.772 235.274,229.805 236.260,231.758" stroke-width="14.365" stroke="rgb(33,33,33)" fill="none" stroke-linecap="round"></path><path d="M 236.260,231.758 C 236.941,233.108 236.784,233.456 237.979,234.270" stroke-width="14.851" stroke="rgb(33,33,33)" fill="none" stroke-linecap="round"></path><path d="M 237.979,234.270 C 239.607,235.380 239.893,235.497 241.905,235.606" stroke-width="15.147" stroke="rgb(33,33,33)" fill="none" stroke-linecap="round"></path><path d="M 241.905,235.606 C 244.534,235.748 244.787,235.737 247.260,234.773" stroke-width="15.092" stroke="rgb(33,33,33)" fill="none" stroke-linecap="round"></path><path d="M 247.260,234.773 C 250.134,233.653 250.312,233.541 252.599,231.436" stroke-width="15.028" stroke="rgb(33,33,33)" fill="none" stroke-linecap="round"></path><path d="M 252.599,231.436 C 255.688,228.594 255.712,228.431 258.012,224.879" stroke-width="14.695" stroke="rgb(33,33,33)" fill="none" stroke-linecap="round"></path><path d="M 258.012,224.879 C 261.326,219.761 261.288,219.655 263.828,214.096" stroke-width="13.999" stroke="rgb(33,33,33)" fill="none" stroke-linecap="round"></path><path d="M 263.828,214.096 C 266.208,208.888 266.178,208.822 267.853,203.345" stroke-width="13.570" stroke="rgb(33,33,33)" fill="none" stroke-linecap="round"></path><path d="M 267.853,203.345 C 269.265,198.729 269.148,198.666 270.002,193.910" stroke-width="13.368" stroke="rgb(33,33,33)" fill="none" stroke-linecap="round"></path><path d="M 270.002,193.910 C 270.679,190.139 270.811,190.105 270.914,186.292" stroke-width="13.481" stroke="rgb(33,33,33)" fill="none" stroke-linecap="round"></path><path d="M 270.914,186.292 C 270.991,183.460 270.864,183.413 270.361,180.620" stroke-width="13.748" stroke="rgb(33,33,33)" fill="none" stroke-linecap="round"></path><path d="M 270.361,180.620 C 269.964,178.419 269.943,178.373 269.114,176.305" stroke-width="14.149" stroke="rgb(33,33,33)" fill="none" stroke-linecap="round"></path><path d="M 269.114,176.305 C 268.600,175.022 268.592,174.923 267.676,173.919" stroke-width="14.676" stroke="rgb(33,33,33)" fill="none" stroke-linecap="round"></path><path d="M 267.676,173.919 C 266.945,173.118 266.852,172.914 265.821,172.694" stroke-width="15.294" stroke="rgb(33,33,33)" fill="none" stroke-linecap="round"></path><path d="M 265.821,172.694 C 264.442,172.400 264.161,172.324 262.856,172.891" stroke-width="15.473" stroke="rgb(33,33,33)" fill="none" stroke-linecap="round"></path><path d="M 262.856,172.891 C 261.071,173.667 260.849,173.791 259.642,175.380" stroke-width="15.639" stroke="rgb(33,33,33)" fill="none" stroke-linecap="round"></path><path d="M 259.642,175.380 C 257.415,178.311 257.373,178.472 255.989,181.930" stroke-width="15.294" stroke="rgb(33,33,33)" fill="none" stroke-linecap="round"></path><path d="M 255.989,181.930 C 254.274,186.215 254.099,186.311 253.443,190.867" stroke-width="14.862" stroke="rgb(33,33,33)" fill="none" stroke-linecap="round"></path><path d="M 253.443,190.867 C 252.804,195.309 252.951,195.446 253.399,199.927" stroke-width="14.499" stroke="rgb(33,33,33)" fill="none" stroke-linecap="round"></path><path d="M 253.399,199.927 C 253.809,204.037 254.064,204.048 255.159,208.048" stroke-width="14.249" stroke="rgb(33,33,33)" fill="none" stroke-linecap="round"></path><path d="M 255.159,208.048 C 256.042,211.275 256.074,211.292 257.355,214.382" stroke-width="14.303" stroke="rgb(33,33,33)" fill="none" stroke-linecap="round"></path><path d="M 257.355,214.382 C 258.486,217.109 258.611,217.063 259.983,219.683" stroke-width="14.396" stroke="rgb(33,33,33)" fill="none" stroke-linecap="round"></path><path d="M 259.983,219.683 C 260.872,221.381 260.936,221.347 261.877,223.017" stroke-width="14.804" stroke="rgb(33,33,33)" fill="none" stroke-linecap="round"></path><path d="M 261.877,223.017 C 262.415,223.971 262.423,223.967 262.940,224.932" stroke-width="15.276" stroke="rgb(33,33,33)" fill="none" stroke-linecap="round"></path><path d="M 262.940,224.932 C 263.281,225.568 263.271,225.573 263.594,226.219" stroke-width="15.852" stroke="rgb(33,33,33)" fill="none" stroke-linecap="round"></path><path d="M 263.594,226.219 C 263.834,226.699 263.899,226.685 264.066,227.183" stroke-width="16.427" stroke="rgb(33,33,33)" fill="none" stroke-linecap="round"></path><path d="M 264.066,227.183 C 264.132,227.380 264.061,227.395 264.059,227.608" stroke-width="17.000" stroke="rgb(33,33,33)" fill="none" stroke-linecap="round"></path><path d="M 264.059,227.608 C 264.057,227.824 264.059,227.824 264.059,228.039" stroke-width="17.482" stroke="rgb(33,33,33)" fill="none" stroke-linecap="round"></path><path d="M 264.059,228.039 C 264.059,228.215 264.059,228.215 264.059,228.392" stroke-width="17.899" stroke="rgb(33,33,33)" fill="none" stroke-linecap="round"></path><path d="M 264.059,228.392 C 264.059,228.491 263.999,228.519 264.059,228.590" stroke-width="18.283" stroke="rgb(33,33,33)" fill="none" stroke-linecap="round"></path><path d="M 264.059,228.590 C 264.288,228.863 264.329,228.862 264.637,229.081" stroke-width="18.594" stroke="rgb(33,33,33)" fill="none" stroke-linecap="round"></path><path d="M 264.637,229.081 C 264.892,229.263 264.893,229.281 265.185,229.392" stroke-width="18.773" stroke="rgb(33,33,33)" fill="none" stroke-linecap="round"></path><path d="M 265.185,229.392 C 265.597,229.548 265.619,229.488 266.045,229.614" stroke-width="18.854" stroke="rgb(33,33,33)" fill="none" stroke-linecap="round"></path><path d="M 266.045,229.614 C 266.525,229.755 266.521,229.769 266.996,229.926" stroke-width="18.919" stroke="rgb(33,33,33)" fill="none" stroke-linecap="round"></path><path d="M 266.996,229.926 C 267.642,230.140 267.630,230.245 268.287,230.357" stroke-width="18.867" stroke="rgb(33,33,33)" fill="none" stroke-linecap="round"></path><path d="M 268.287,230.357 C 268.666,230.422 268.677,230.306 269.069,230.280" stroke-width="18.963" stroke="rgb(33,33,33)" fill="none" stroke-linecap="round"></path><path d="M 269.069,230.280 C 269.252,230.268 269.253,230.280 269.436,230.280" stroke-width="19.129" stroke="rgb(33,33,33)" fill="none" stroke-linecap="round"></path><path d="M 269.436,230.280 C 269.650,230.280 269.650,230.280 269.865,230.280" stroke-width="19.250" stroke="rgb(33,33,33)" fill="none" stroke-linecap="round"></path><path d="M 269.865,230.280 C 270.082,230.280 270.082,230.280 270.299,230.280" stroke-width="19.341" stroke="rgb(33,33,33)" fill="none" stroke-linecap="round"></path><path d="M 270.299,230.280 C 270.455,230.280 270.455,230.280 270.611,230.280" stroke-width="19.443" stroke="rgb(33,33,33)" fill="none" stroke-linecap="round"></path><path d="M 270.611,230.280 C 270.760,230.280 270.760,230.280 270.909,230.280" stroke-width="19.577" stroke="rgb(33,33,33)" fill="none" stroke-linecap="round"></path><path d="M 270.909,230.280 C 271.119,230.280 271.125,230.243 271.329,230.280" stroke-width="19.619" stroke="rgb(33,33,33)" fill="none" stroke-linecap="round"></path><path d="M 271.329,230.280 C 271.554,230.321 271.558,230.337 271.767,230.437" stroke-width="19.637" stroke="rgb(33,33,33)" fill="none" stroke-linecap="round"></path><path d="M 271.767,230.437 C 272.176,230.632 272.168,230.649 272.565,230.869" stroke-width="19.540" stroke="rgb(33,33,33)" fill="none" stroke-linecap="round"></path><path d="M 272.565,230.869 C 273.061,231.144 273.091,231.100 273.552,231.427" stroke-width="19.427" stroke="rgb(33,33,33)" fill="none" stroke-linecap="round"></path><path d="M 273.552,231.427 C 274.171,231.866 274.177,231.873 274.725,232.400" stroke-width="19.231" stroke="rgb(33,33,33)" fill="none" stroke-linecap="round"></path><path d="M 274.725,232.400 C 275.353,233.003 275.418,232.971 275.904,233.686" stroke-width="19.072" stroke="rgb(33,33,33)" fill="none" stroke-linecap="round"></path><path d="M 275.904,233.686 C 276.495,234.555 276.524,234.576 276.879,235.569" stroke-width="18.915" stroke="rgb(33,33,33)" fill="none" stroke-linecap="round"></path><path d="M 276.879,235.569 C 277.448,237.162 277.570,237.181 277.752,238.858" stroke-width="18.622" stroke="rgb(33,33,33)" fill="none" stroke-linecap="round"></path><path d="M 277.752,238.858 C 277.992,241.070 278.043,241.142 277.724,243.346" stroke-width="18.394" stroke="rgb(33,33,33)" fill="none" stroke-linecap="round"></path><path d="M 277.724,243.346 C 277.325,246.103 277.324,246.179 276.315,248.781" stroke-width="17.595" stroke="rgb(33,33,33)" fill="none" stroke-linecap="round"></path><path d="M 276.315,248.781 C 275.141,251.809 275.130,251.883 273.358,254.606" stroke-width="15.489" stroke="rgb(33,33,33)" fill="none" stroke-linecap="round"></path><path d="M 273.358,254.606 C 271.471,257.506 271.498,257.642 268.997,260.026" stroke-width="14.017" stroke="rgb(33,33,33)" fill="none" stroke-linecap="round"></path><path d="M 268.997,260.026 C 265.699,263.169 265.653,263.278 261.760,265.659" stroke-width="13.701" stroke="rgb(33,33,33)" fill="none" stroke-linecap="round"></path><path d="M 261.760,265.659 C 256.652,268.783 256.553,268.776 250.994,271.035" stroke-width="13.288" stroke="rgb(33,33,33)" fill="none" stroke-linecap="round"></path><path d="M 250.994,271.035 C 244.867,273.525 244.782,273.430 238.388,275.156" stroke-width="12.855" stroke="rgb(33,33,33)" fill="none" stroke-linecap="round"></path><path d="M 238.388,275.156 C 231.416,277.038 231.398,277.181 224.262,278.251" stroke-width="12.559" stroke="rgb(33,33,33)" fill="none" stroke-linecap="round"></path><path d="M 224.262,278.251 C 216.387,279.432 216.329,279.222 208.366,279.657" stroke-width="11.788" stroke="rgb(33,33,33)" fill="none" stroke-linecap="round"></path><path d="M 208.366,279.657 C 199.929,280.117 199.912,280.135 191.463,280.041" stroke-width="11.420" stroke="rgb(33,33,33)" fill="none" stroke-linecap="round"></path><path d="M 191.463,280.041 C 182.330,279.939 182.292,280.101 173.202,279.264" stroke-width="11.346" stroke="rgb(33,33,33)" fill="none" stroke-linecap="round"></path><path d="M 173.202,279.264 C 163.593,278.380 163.591,278.188 154.066,276.599" stroke-width="10.232" stroke="rgb(33,33,33)" fill="none" stroke-linecap="round"></path><path d="M 154.066,276.599 C 144.603,275.020 144.643,274.780 135.226,272.927" stroke-width="10.079" stroke="rgb(33,33,33)" fill="none" stroke-linecap="round"></path><path d="M 135.226,272.927 C 127.625,271.431 127.651,271.284 120.030,269.902" stroke-width="10.178" stroke="rgb(33,33,33)" fill="none" stroke-linecap="round"></path><path d="M 120.030,269.902 C 113.897,268.790 113.903,268.584 107.717,267.939" stroke-width="10.447" stroke="rgb(33,33,33)" fill="none" stroke-linecap="round"></path><path d="M 107.717,267.939 C 103.927,267.544 103.895,267.774 100.078,267.823" stroke-width="11.002" stroke="rgb(33,33,33)" fill="none" stroke-linecap="round"></path><path d="M 100.078,267.823 C 97.601,267.854 97.605,268.025 95.129,268.099" stroke-width="11.676" stroke="rgb(33,33,33)" fill="none" stroke-linecap="round"></path><path d="M 95.129,268.099 C 93.880,268.136 93.879,268.062 92.628,268.045" stroke-width="12.524" stroke="rgb(33,33,33)" fill="none" stroke-linecap="round"></path><path d="M 92.628,268.045 C 91.913,268.035 91.913,268.045 91.198,268.045" stroke-width="13.407" stroke="rgb(33,33,33)" fill="none" stroke-linecap="round"></path><path d="M 91.198,268.045 C 90.783,268.045 90.783,268.045 90.368,268.045" stroke-width="14.274" stroke="rgb(33,33,33)" fill="none" stroke-linecap="round"></path><path d="M 90.368,268.045 C 90.157,268.045 90.157,268.045 89.946,268.045" stroke-width="15.113" stroke="rgb(33,33,33)" fill="none" stroke-linecap="round"></path><path d="M 89.946,268.045 C 89.731,268.045 89.731,268.045 89.516,268.045" stroke-width="15.858" stroke="rgb(33,33,33)" fill="none" stroke-linecap="round"></path><path d="M 89.516,268.045 C 89.301,268.045 89.301,268.045 89.086,268.045" stroke-width="16.499" stroke="rgb(33,33,33)" fill="none" stroke-linecap="round"></path><path d="M 89.086,268.045 C 88.971,268.045 88.971,268.045 88.856,268.045" stroke-width="17.095" stroke="rgb(33,33,33)" fill="none" stroke-linecap="round"></path><path d="M 88.856,268.045 C 88.794,268.045 88.734,268.090 88.731,268.045" stroke-width="17.621" stroke="rgb(33,33,33)" fill="none" stroke-linecap="round"></path><path d="M 88.731,268.045 C 88.723,267.911 88.740,267.847 88.834,267.687" stroke-width="18.055" stroke="rgb(33,33,33)" fill="none" stroke-linecap="round"></path><path d="M 88.834,267.687 C 89.319,266.863 89.359,266.881 89.889,266.078" stroke-width="18.082" stroke="rgb(33,33,33)" fill="none" stroke-linecap="round"></path><path d="M 89.889,266.078 C 92.212,262.560 92.413,262.682 94.541,259.046" stroke-width="16.857" stroke="rgb(33,33,33)" fill="none" stroke-linecap="round"></path><path d="M 94.541,259.046 C 98.861,251.663 98.918,251.674 102.785,244.041" stroke-width="14.863" stroke="rgb(33,33,33)" fill="none" stroke-linecap="round"></path><path d="M 102.785,244.041 C 107.531,234.674 107.676,234.714 111.767,225.046" stroke-width="13.174" stroke="rgb(33,33,33)" fill="none" stroke-linecap="round"></path><path d="M 111.767,225.046 C 116.388,214.124 116.289,214.058 120.209,202.860" stroke-width="12.147" stroke="rgb(33,33,33)" fill="none" stroke-linecap="round"></path><path d="M 120.209,202.860 C 124.097,191.754 123.975,191.703 127.383,180.438" stroke-width="10.829" stroke="rgb(33,33,33)" fill="none" stroke-linecap="round"></path><path d="M 127.383,180.438 C 130.861,168.940 131.158,169.002 133.980,157.334" stroke-width="10.234" stroke="rgb(33,33,33)" fill="none" stroke-linecap="round"></path><path d="M 133.980,157.334 C 137.105,144.412 136.944,144.351 139.277,131.257" stroke-width="9.572" stroke="rgb(33,33,33)" fill="none" stroke-linecap="round"></path><path d="M 139.277,131.257 C 141.376,119.475 141.390,119.459 142.845,107.582" stroke-width="9.382" stroke="rgb(33,33,33)" fill="none" stroke-linecap="round"></path><path d="M 142.845,107.582 C 144.031,97.901 143.843,97.871 144.559,88.141" stroke-width="9.329" stroke="rgb(33,33,33)" fill="none" stroke-linecap="round"></path><path d="M 144.559,88.141 C 145.032,81.717 145.133,81.707 145.224,75.274" stroke-width="9.737" stroke="rgb(33,33,33)" fill="none" stroke-linecap="round"></path><path d="M 145.224,75.274 C 145.271,71.907 145.247,71.872 144.835,68.541" stroke-width="10.445" stroke="rgb(33,33,33)" fill="none" stroke-linecap="round"></path><path d="M 144.835,68.541 C 144.641,66.974 144.795,66.663 144.012,65.478" stroke-width="11.349" stroke="rgb(33,33,33)" fill="none" stroke-linecap="round"></path><path d="M 144.012,65.478 C 143.606,64.863 143.070,64.520 142.457,64.940" stroke-width="12.265" stroke="rgb(33,33,33)" fill="none" stroke-linecap="round"></path><path d="M 142.457,64.940 C 139.986,66.636 139.480,66.860 137.845,69.710" stroke-width="12.534" stroke="rgb(33,33,33)" fill="none" stroke-linecap="round"></path><path d="M 137.845,69.710 C 132.633,78.793 132.088,78.829 128.762,88.806" stroke-width="11.630" stroke="rgb(33,33,33)" fill="none" stroke-linecap="round"></path><path d="M 128.762,88.806 C 124.086,102.832 124.202,103.081 121.842,117.716" stroke-width="10.424" stroke="rgb(33,33,33)" fill="none" stroke-linecap="round"></path><path d="M 121.842,117.716 C 119.348,133.184 119.589,133.335 119.055,149.011" stroke-width="9.432" stroke="rgb(33,33,33)" fill="none" stroke-linecap="round"></path><path d="M 119.055,149.011 C 118.540,164.140 118.611,164.226 119.745,179.325" stroke-width="8.904" stroke="rgb(33,33,33)" fill="none" stroke-linecap="round"></path><path d="M 119.745,179.325 C 120.934,195.159 121.089,195.208 123.701,210.877" stroke-width="8.460" stroke="rgb(33,33,33)" fill="none" stroke-linecap="round"></path><path d="M 123.701,210.877 C 126.153,225.585 126.392,225.574 129.872,240.080" stroke-width="8.139" stroke="rgb(33,33,33)" fill="none" stroke-linecap="round"></path><path d="M 129.872,240.080 C 132.838,252.442 132.561,252.583 136.592,264.612" stroke-width="8.189" stroke="rgb(33,33,33)" fill="none" stroke-linecap="round"></path><path d="M 136.592,264.612 C 139.177,272.327 139.063,272.568 143.104,279.569" stroke-width="8.500" stroke="rgb(33,33,33)" fill="none" stroke-linecap="round"></path><path d="M 143.104,279.569 C 145.992,284.572 146.313,284.575 150.451,288.620" stroke-width="8.994" stroke="rgb(33,33,33)" fill="none" stroke-linecap="round"></path><path d="M 150.451,288.620 C 154.190,292.275 154.230,292.658 158.858,294.968" stroke-width="9.529" stroke="rgb(33,33,33)" fill="none" stroke-linecap="round"></path><path d="M 158.858,294.968 C 163.176,297.124 163.540,297.179 168.342,297.552" stroke-width="10.046" stroke="rgb(33,33,33)" fill="none" stroke-linecap="round"></path><path d="M 168.342,297.552 C 172.605,297.884 172.855,297.586 176.989,296.378" stroke-width="10.573" stroke="rgb(33,33,33)" fill="none" stroke-linecap="round"></path><path d="M 176.989,296.378 C 180.563,295.334 180.557,295.011 183.758,293.047" stroke-width="11.120" stroke="rgb(33,33,33)" fill="none" stroke-linecap="round"></path><path d="M 183.758,293.047 C 186.889,291.126 186.829,290.974 189.654,288.608" stroke-width="11.646" stroke="rgb(33,33,33)" fill="none" stroke-linecap="round"></path><path d="M 189.654,288.608 C 192.302,286.391 192.266,286.331 194.704,283.882" stroke-width="12.030" stroke="rgb(33,33,33)" fill="none" stroke-linecap="round"></path><path d="M 194.704,283.882 C 196.723,281.854 196.706,281.828 198.567,279.654" stroke-width="12.514" stroke="rgb(33,33,33)" fill="none" stroke-linecap="round"></path><path d="M 198.567,279.654 C 200.121,277.839 200.108,277.822 201.534,275.905" stroke-width="13.058" stroke="rgb(33,33,33)" fill="none" stroke-linecap="round"></path><path d="M 201.534,275.905 C 202.826,274.169 202.892,274.200 204.002,272.347" stroke-width="13.576" stroke="rgb(33,33,33)" fill="none" stroke-linecap="round"></path><path d="M 204.002,272.347 C 204.989,270.699 204.944,270.661 205.727,268.904" stroke-width="14.076" stroke="rgb(33,33,33)" fill="none" stroke-linecap="round"></path><path d="M 205.727,268.904 C 206.451,267.281 206.508,267.287 207.017,265.587" stroke-width="14.513" stroke="rgb(33,33,33)" fill="none" stroke-linecap="round"></path><path d="M 207.017,265.587 C 207.649,263.477 207.653,263.459 208.010,261.284" stroke-width="14.800" stroke="rgb(33,33,33)" fill="none" stroke-linecap="round"></path><path d="M 208.010,261.284 C 208.441,258.660 208.423,258.645 208.594,255.989" stroke-width="14.920" stroke="rgb(33,33,33)" fill="none" stroke-linecap="round"></path><path d="M 208.594,255.989 C 208.798,252.819 209.096,252.772 208.760,249.633" stroke-width="14.929" stroke="rgb(33,33,33)" fill="none" stroke-linecap="round"></path><path d="M 208.760,249.633 C 208.334,245.656 208.729,245.337 207.069,241.756" stroke-width="14.541" stroke="rgb(33,33,33)" fill="none" stroke-linecap="round"></path><path d="M 207.069,241.756 C 205.049,237.397 205.104,236.822 201.401,233.754" stroke-width="14.166" stroke="rgb(33,33,33)" fill="none" stroke-linecap="round"></path><path d="M 201.401,233.754 C 194.799,228.284 194.560,227.646 186.458,224.679" stroke-width="12.963" stroke="rgb(33,33,33)" fill="none" stroke-linecap="round"></path><path d="M 186.458,224.679 C 174.641,220.352 174.159,219.863 161.563,219.166" stroke-width="11.574" stroke="rgb(33,33,33)" fill="none" stroke-linecap="round"></path><path d="M 161.563,219.166 C 145.730,218.291 145.188,218.352 129.600,221.535" stroke-width="10.244" stroke="rgb(33,33,33)" fill="none" stroke-linecap="round"></path><path d="M 129.600,221.535 C 112.039,225.121 111.668,225.406 95.264,232.704" stroke-width="9.179" stroke="rgb(33,33,33)" fill="none" stroke-linecap="round"></path><path d="M 95.264,232.704 C 79.055,239.915 79.321,240.867 64.374,250.554" stroke-width="8.399" stroke="rgb(33,33,33)" fill="none" stroke-linecap="round"></path><path d="M 64.374,250.554 C 51.225,259.075 51.541,259.601 39.072,269.120" stroke-width="8.107" stroke="rgb(33,33,33)" fill="none" stroke-linecap="round"></path><path d="M 39.072,269.120 C 30.784,275.447 30.621,275.308 22.861,282.246" stroke-width="8.235" stroke="rgb(33,33,33)" fill="none" stroke-linecap="round"></path><path d="M 22.861,282.246 C 18.147,286.461 17.535,286.292 14.125,291.425" stroke-width="8.742" stroke="rgb(33,33,33)" fill="none" stroke-linecap="round"></path><path d="M 14.125,291.425 C 12.214,294.302 10.842,295.928 12.218,298.266" stroke-width="9.478" stroke="rgb(33,33,33)" fill="none" stroke-linecap="round"></path><path d="M 12.218,298.266 C 13.948,301.205 16.011,302.058 20.337,301.980" stroke-width="10.020" stroke="rgb(33,33,33)" fill="none" stroke-linecap="round"></path><path d="M 20.337,301.980 C 34.059,301.731 35.090,302.252 48.315,297.612" stroke-width="9.419" stroke="rgb(33,33,33)" fill="none" stroke-linecap="round"></path><path d="M 48.315,297.612 C 70.025,289.995 70.208,289.184 90.208,277.465" stroke-width="8.209" stroke="rgb(33,33,33)" fill="none" stroke-linecap="round"></path><path d="M 90.208,277.465 C 115.126,262.865 114.732,261.979 138.152,244.975" stroke-width="7.093" stroke="rgb(33,33,33)" fill="none" stroke-linecap="round"></path><path d="M 138.152,244.975 C 160.555,228.709 160.665,228.736 181.853,210.924" stroke-width="6.750" stroke="rgb(33,33,33)" fill="none" stroke-linecap="round"></path><path d="M 181.853,210.924 C 202.153,193.858 201.772,193.370 221.129,175.219" stroke-width="6.750" stroke="rgb(33,33,33)" fill="none" stroke-linecap="round"></path><path d="M 221.129,175.219 C 235.818,161.445 236.056,161.636 249.944,147.073" stroke-width="6.750" stroke="rgb(33,33,33)" fill="none" stroke-linecap="round"></path><path d="M 249.944,147.073 C 260.666,135.830 260.741,135.794 270.349,123.608" stroke-width="6.750" stroke="rgb(33,33,33)" fill="none" stroke-linecap="round"></path><path d="M 270.349,123.608 C 276.104,116.309 275.851,116.053 280.669,108.104" stroke-width="6.750" stroke="rgb(33,33,33)" fill="none" stroke-linecap="round"></path><path d="M 280.669,108.104 C 283.037,104.197 282.855,104.067 284.722,99.895" stroke-width="7.405" stroke="rgb(33,33,33)" fill="none" stroke-linecap="round"></path><path d="M 284.722,99.895 C 285.609,97.913 285.586,97.879 286.178,95.796" stroke-width="8.292" stroke="rgb(33,33,33)" fill="none" stroke-linecap="round"></path><path d="M 286.178,95.796 C 286.470,94.768 286.390,94.738 286.490,93.672" stroke-width="9.287" stroke="rgb(33,33,33)" fill="none" stroke-linecap="round"></path><path d="M 286.490,93.672 C 286.546,93.076 286.490,93.072 286.490,92.472" stroke-width="10.339" stroke="rgb(33,33,33)" fill="none" stroke-linecap="round"></path><path d="M 286.490,92.472 C 286.490,92.110 286.490,92.110 286.490,91.748" stroke-width="11.406" stroke="rgb(33,33,33)" fill="none" stroke-linecap="round"></path><path d="M 286.490,91.748 C 286.490,91.532 286.490,91.532 286.490,91.316" stroke-width="12.456" stroke="rgb(33,33,33)" fill="none" stroke-linecap="round"></path><path d="M 286.490,91.316 C 286.490,91.101 286.466,91.098 286.490,90.886" stroke-width="13.450" stroke="rgb(33,33,33)" fill="none" stroke-linecap="round"></path><path d="M 286.490,90.886 C 286.514,90.668 286.476,90.636 286.586,90.455" stroke-width="14.362" stroke="rgb(33,33,33)" fill="none" stroke-linecap="round"></path><path d="M 286.586,90.455 C 286.738,90.206 286.820,90.258 287.014,90.026" stroke-width="15.167" stroke="rgb(33,33,33)" fill="none" stroke-linecap="round"></path><path d="M 287.014,90.026 C 287.383,89.584 287.332,89.540 287.711,89.107" stroke-width="15.789" stroke="rgb(33,33,33)" fill="none" stroke-linecap="round"></path><path d="M 287.711,89.107 C 288.111,88.650 288.177,88.708 288.571,88.247" stroke-width="16.326" stroke="rgb(33,33,33)" fill="none" stroke-linecap="round"></path><path d="M 288.571,88.247 C 288.913,87.848 288.910,87.837 289.182,87.387" stroke-width="16.810" stroke="rgb(33,33,33)" fill="none" stroke-linecap="round"></path><path d="M 289.182,87.387 C 289.430,86.978 289.375,86.945 289.611,86.529" stroke-width="17.223" stroke="rgb(33,33,33)" fill="none" stroke-linecap="round"></path><path d="M 289.611,86.529 C 289.795,86.205 289.816,86.217 290.023,85.906" stroke-width="17.626" stroke="rgb(33,33,33)" fill="none" stroke-linecap="round"></path><path d="M 290.023,85.906 C 290.248,85.569 290.223,85.548 290.474,85.233" stroke-width="17.933" stroke="rgb(33,33,33)" fill="none" stroke-linecap="round"></path><path d="M 290.474,85.233 C 290.663,84.997 290.716,85.039 290.903,84.803" stroke-width="18.227" stroke="rgb(33,33,33)" fill="none" stroke-linecap="round"></path><path d="M 290.903,84.803 C 291.056,84.609 291.087,84.603 291.154,84.372" stroke-width="18.499" stroke="rgb(33,33,33)" fill="none" stroke-linecap="round"></path><path d="M 291.154,84.372 C 291.212,84.173 291.154,84.157 291.154,83.942" stroke-width="18.737" stroke="rgb(33,33,33)" fill="none" stroke-linecap="round"></path><path d="M 291.154,83.942 C 291.154,83.859 291.107,83.786 291.154,83.776" stroke-width="18.984" stroke="rgb(33,33,33)" fill="none" stroke-linecap="round"></path></svg>