<svg xmlns="http://www.w3.org/2000/svg" xmlns:xlink="http://www.w3.org/1999/xlink" viewBox="0 0 360 500"><path d="M 72.000,81.500 C 64.510,86.241 64.062,85.681 57.019,90.981" stroke-width="19.875" stroke="rgb(33,33,33)" fill="none" stroke-linecap="round"></path><path d="M 57.019,90.981 C 52.952,94.041 53.175,94.401 49.780,98.220" stroke-width="17.716" stroke="rgb(33,33,33)" fill="none" stroke-linecap="round"></path><path d="M 49.780,98.220 C 46.498,101.912 46.581,102.009 43.665,106.002" stroke-width="16.355" stroke="rgb(33,33,33)" fill="none" stroke-linecap="round"></path><path d="M 43.665,106.002 C 41.447,109.040 41.344,109.005 39.511,112.282" stroke-width="16.220" stroke="rgb(33,33,33)" fill="none" stroke-linecap="round"></path><path d="M 39.511,112.282 C 37.543,115.800 37.283,115.773 36.063,119.593" stroke-width="15.651" stroke="rgb(33,33,33)" fill="none" stroke-linecap="round"></path><path d="M 36.063,119.593 C 34.716,123.811 35.036,123.949 34.377,128.358" stroke-width="15.426" stroke="rgb(33,33,33)" fill="none" stroke-linecap="round"></path><path d="M 34.377,128.358 C 33.812,132.137 33.867,132.156 33.614,135.970" stroke-width="15.470" stroke="rgb(33,33,33)" fill="none" stroke-linecap="round"></path><path d="M 33.614,135.970 C 33.429,138.755 33.424,138.767 33.500,141.556" stroke-width="15.466" stroke="rgb(33,33,33)" fill="none" stroke-linecap="round"></path><path d="M 33.500,141.556 C 33.573,144.222 33.427,144.271 33.911,146.880" stroke-width="15.298" stroke="rgb(33,33,33)" fill="none" stroke-linecap="round"></path><path d="M 33.911,146.880 C 34.356,149.280 34.285,149.409 35.358,151.575" stroke-width="15.102" stroke="rgb(33,33,33)" fill="none" stroke-linecap="round"></path><path d="M 35.358,151.575 C 36.235,153.344 36.213,153.577 37.811,154.749" stroke-width="15.594" stroke="rgb(33,33,33)" fill="none" stroke-linecap="round"></path><path d="M 37.811,154.749 C 42.935,158.507 42.970,158.883 48.801,161.434" stroke-width="15.625" stroke="rgb(33,33,33)" fill="none" stroke-linecap="round"></path><path d="M 48.801,161.434 C 53.833,163.636 54.115,163.133 59.537,164.255" stroke-width="14.959" stroke="rgb(33,33,33)" fill="none" stroke-linecap="round"></path><path d="M 59.537,164.255 C 62.758,164.921 62.808,164.682 66.088,165.010" stroke-width="15.048" stroke="rgb(33,33,33)" fill="none" stroke-linecap="round"></path><path d="M 66.088,165.010 C 69.039,165.305 69.039,165.395 72.000,165.500" stroke-width="15.123" stroke="rgb(33,33,33)" fill="none" stroke-linecap="round"></path><path d="M 72.000,165.500 C 75.381,165.620 75.402,165.691 78.772,165.461" stroke-width="14.723" stroke="rgb(33,33,33)" fill="none" stroke-linecap="round"></path><path d="M 78.772,165.461 C 81.336,165.286 81.327,165.118 83.868,164.689" stroke-width="14.678" stroke="rgb(33,33,33)" fill="none" stroke-linecap="round"></path><path d="M 83.868,164.689 C 85.870,164.351 85.864,164.317 87.857,163.928" stroke-width="15.155" stroke="rgb(33,33,33)" fill="none" stroke-linecap="round"></path><path d="M 87.857,163.928 C 89.764,163.556 89.809,163.719 91.667,163.167" stroke-width="15.658" stroke="rgb(33,33,33)" fill="none" stroke-linecap="round"></path><path d="M 91.667,163.167 C 95.088,162.151 95.139,162.184 98.415,160.792" stroke-width="15.862" stroke="rgb(33,33,33)" fill="none" stroke-linecap="round"></path><path d="M 98.415,160.792 C 99.735,160.231 99.780,160.210 100.858,159.262" stroke-width="16.295" stroke="rgb(33,33,33)" fill="none" stroke-linecap="round"></path><path d="M 100.858,159.262 C 104.413,156.133 104.697,156.212 107.681,152.637" stroke-width="16.402" stroke="rgb(33,33,33)" fill="none" stroke-linecap="round"></path><path d="M 107.681,152.637 C 108.488,151.670 108.141,151.428 108.440,150.179" stroke-width="16.056" stroke="rgb(33,33,33)" fill="none" stroke-linecap="round"></path><path d="M 108.440,150.179 C 108.903,148.243 108.772,148.212 109.205,146.267" stroke-width="16.087" stroke="rgb(33,33,33)" fill="none" stroke-linecap="round"></path><path d="M 109.205,146.267 C 109.770,143.734 109.971,143.774 110.436,141.224" stroke-width="15.921" stroke="rgb(33,33,33)" fill="none" stroke-linecap="round"></path><path d="M 110.436,141.224 C 110.984,138.217 110.843,138.190 111.231,135.153" stroke-width="15.872" stroke="rgb(33,33,33)" fill="none" stroke-linecap="round"></path><path d="M 111.231,135.153 C 111.622,132.096 111.695,132.103 111.995,129.037" stroke-width="15.752" stroke="rgb(33,33,33)" fill="none" stroke-linecap="round"></path><path d="M 111.995,129.037 C 112.330,125.610 112.413,125.608 112.500,122.166" stroke-width="15.870" stroke="rgb(33,33,33)" fill="none" stroke-linecap="round"></path><path d="M 112.500,122.166 C 112.666,115.589 112.500,115.583 112.500,108.999" stroke-width="15.220" stroke="rgb(33,33,33)" fill="none" stroke-linecap="round"></path><path d="M 112.500,108.999 C 112.500,106.596 112.500,106.596 112.500,104.194" stroke-width="15.592" stroke="rgb(33,33,33)" fill="none" stroke-linecap="round"></path><path d="M 112.500,104.194 C 112.500,100.423 112.791,100.388 112.500,96.652" stroke-width="15.639" stroke="rgb(33,33,33)" fill="none" stroke-linecap="round"></path><path d="M 112.500,96.652 C 112.360,94.860 112.479,94.535 111.638,93.138" stroke-width="16.219" stroke="rgb(33,33,33)" fill="none" stroke-linecap="round"></path><path d="M 111.638,93.138 C 111.229,92.459 110.841,92.703 110.000,92.500" stroke-width="16.212" stroke="rgb(33,33,33)" fill="none" stroke-linecap="round"></path><path d="M 110.000,92.500 C 109.522,92.384 109.500,92.500 109.000,92.500" stroke-width="16.752" stroke="rgb(33,33,33)" fill="none" stroke-linecap="round"></path><path d="M 109.000,92.500 C 109.000,92.500 109.000,92.500 109.000,92.500" stroke-width="17.352" stroke="rgb(33,33,33)" fill="none" stroke-linecap="round"></path><path d="M 109.000,92.500 C 108.500,92.500 108.000,92.500 108.000,92.500" stroke-width="17.553" stroke="rgb(33,33,33)" fill="none" stroke-linecap="round"></path><path d="M 108.000,92.500 C 108.000,92.500 108.750,92.250 109.000,92.500" stroke-width="17.940" stroke="rgb(33,33,33)" fill="none" stroke-linecap="round"></path><path d="M 109.000,92.500 C 109.250,92.750 109.000,93.000 109.000,93.500" stroke-width="18.124" stroke="rgb(33,33,33)" fill="none" stroke-linecap="round"></path><path d="M 109.000,93.500 C 109.000,94.000 109.000,94.000 109.000,94.500" stroke-width="18.316" stroke="rgb(33,33,33)" fill="none" stroke-linecap="round"></path><path d="M 109.000,94.500 C 109.000,95.000 109.000,95.000 109.000,95.500" stroke-width="18.472" stroke="rgb(33,33,33)" fill="none" stroke-linecap="round"></path><path d="M 109.000,95.500 C 109.000,96.500 109.000,96.500 109.000,97.500" stroke-width="18.400" stroke="rgb(33,33,33)" fill="none" stroke-linecap="round"></path><path d="M 109.000,97.500 C 109.000,99.000 109.000,99.000 109.000,100.500" stroke-width="18.260" stroke="rgb(33,33,33)" fill="none" stroke-linecap="round"></path><path d="M 109.000,100.500 C 109.000,102.500 108.889,102.505 109.000,104.500" stroke-width="17.894" stroke="rgb(33,33,33)" fill="none" stroke-linecap="round"></path><path d="M 109.000,104.500 C 109.165,107.488 109.254,107.485 109.552,110.465" stroke-width="17.280" stroke="rgb(33,33,33)" fill="none" stroke-linecap="round"></path><path d="M 109.552,110.465 C 110.297,117.911 110.572,117.898 111.085,125.353" stroke-width="16.367" stroke="rgb(33,33,33)" fill="none" stroke-linecap="round"></path><path d="M 111.085,125.353 C 111.296,128.415 111.015,128.426 111.000,131.500" stroke-width="16.317" stroke="rgb(33,33,33)" fill="none" stroke-linecap="round"></path><path d="M 111.000,131.500 C 110.973,137.000 111.000,137.000 111.000,142.500" stroke-width="15.765" stroke="rgb(33,33,33)" fill="none" stroke-linecap="round"></path><path d="M 111.000,142.500 C 111.000,145.000 111.000,145.000 111.000,147.500" stroke-width="16.086" stroke="rgb(33,33,33)" fill="none" stroke-linecap="round"></path><path d="M 111.000,147.500 C 111.000,151.500 111.000,151.500 111.000,155.500" stroke-width="15.492" stroke="rgb(33,33,33)" fill="none" stroke-linecap="round"></path><path d="M 111.000,155.500 C 111.000,157.500 111.000,157.500 111.000,159.500" stroke-width="15.629" stroke="rgb(33,33,33)" fill="none" stroke-linecap="round"></path><path d="M 111.000,159.500 C 111.000,160.500 111.000,160.500 111.000,161.500" stroke-width="16.116" stroke="rgb(33,33,33)" fill="none" stroke-linecap="round"></path><path d="M 111.000,161.500 C 111.000,162.500 111.000,162.500 111.000,163.500" stroke-width="16.413" stroke="rgb(33,33,33)" fill="none" stroke-linecap="round"></path><path d="M 111.000,163.500 C 111.000,164.000 111.000,164.000 111.000,164.500" stroke-width="16.892" stroke="rgb(33,33,33)" fill="none" stroke-linecap="round"></path><path d="M 111.000,164.500 C 111.000,165.000 111.000,165.667 111.000,165.500" stroke-width="17.415" stroke="rgb(33,33,33)" fill="none" stroke-linecap="round"></path><path d="M 111.000,165.500 C 111.000,165.167 111.000,164.500 111.000,163.500" stroke-width="17.819" stroke="rgb(33,33,33)" fill="none" stroke-linecap="round"></path><path d="M 111.000,163.500 C 111.000,163.000 111.000,163.000 111.000,162.500" stroke-width="18.008" stroke="rgb(33,33,33)" fill="none" stroke-linecap="round"></path><path d="M 111.000,162.500 C 111.000,161.500 111.000,161.500 111.000,160.500" stroke-width="18.070" stroke="rgb(33,33,33)" fill="none" stroke-linecap="round"></path><path d="M 111.000,160.500 C 111.000,159.500 110.891,159.491 111.000,158.500" stroke-width="18.056" stroke="rgb(33,33,33)" fill="none" stroke-linecap="round"></path><path d="M 111.000,158.500 C 111.197,156.712 111.267,156.714 111.612,154.942" stroke-width="17.868" stroke="rgb(33,33,33)" fill="none" stroke-linecap="round"></path><path d="M 111.612,154.942 C 112.146,152.197 112.019,152.160 112.758,149.467" stroke-width="17.559" stroke="rgb(33,33,33)" fill="none" stroke-linecap="round"></path><path d="M 112.758,149.467 C 113.678,146.116 113.427,145.975 114.930,142.855" stroke-width="16.985" stroke="rgb(33,33,33)" fill="none" stroke-linecap="round"></path><path d="M 114.930,142.855 C 117.641,137.228 117.885,137.301 121.185,131.972" stroke-width="16.775" stroke="rgb(33,33,33)" fill="none" stroke-linecap="round"></path><path d="M 121.185,131.972 C 122.536,129.790 122.589,129.801 124.233,127.834" stroke-width="16.406" stroke="rgb(33,33,33)" fill="none" stroke-linecap="round"></path><path d="M 124.233,127.834 C 125.534,126.277 125.588,126.308 127.075,124.925" stroke-width="16.258" stroke="rgb(33,33,33)" fill="none" stroke-linecap="round"></path><path d="M 127.075,124.925 C 128.392,123.700 128.434,123.742 129.842,122.619" stroke-width="16.556" stroke="rgb(33,33,33)" fill="none" stroke-linecap="round"></path><path d="M 129.842,122.619 C 132.135,120.791 132.133,120.781 134.476,119.024" stroke-width="16.572" stroke="rgb(33,33,33)" fill="none" stroke-linecap="round"></path><path d="M 134.476,119.024 C 134.711,118.847 134.721,118.846 134.998,118.751" stroke-width="17.138" stroke="rgb(33,33,33)" fill="none" stroke-linecap="round"></path><path d="M 134.998,118.751 C 135.483,118.584 135.694,118.182 136.000,118.500" stroke-width="17.555" stroke="rgb(33,33,33)" fill="none" stroke-linecap="round"></path><path d="M 136.000,118.500 C 136.990,119.528 137.138,119.866 137.589,121.443" stroke-width="17.615" stroke="rgb(33,33,33)" fill="none" stroke-linecap="round"></path><path d="M 137.589,121.443 C 138.138,123.366 137.802,123.471 138.000,125.500" stroke-width="16.732" stroke="rgb(33,33,33)" fill="none" stroke-linecap="round"></path><path d="M 138.000,125.500 C 138.306,128.631 138.266,128.635 138.596,131.764" stroke-width="16.301" stroke="rgb(33,33,33)" fill="none" stroke-linecap="round"></path><path d="M 138.596,131.764 C 138.944,135.062 138.942,135.063 139.357,138.353" stroke-width="15.976" stroke="rgb(33,33,33)" fill="none" stroke-linecap="round"></path><path d="M 139.357,138.353 C 139.702,141.084 139.717,141.083 140.115,143.807" stroke-width="15.785" stroke="rgb(33,33,33)" fill="none" stroke-linecap="round"></path><path d="M 140.115,143.807 C 140.481,146.310 140.479,146.310 140.885,148.807" stroke-width="15.790" stroke="rgb(33,33,33)" fill="none" stroke-linecap="round"></path><path d="M 140.885,148.807 C 141.246,151.026 141.239,151.028 141.648,153.238" stroke-width="15.933" stroke="rgb(33,33,33)" fill="none" stroke-linecap="round"></path><path d="M 141.648,153.238 C 142.003,155.154 141.983,155.160 142.412,157.060" stroke-width="16.071" stroke="rgb(33,33,33)" fill="none" stroke-linecap="round"></path><path d="M 142.412,157.060 C 142.756,158.581 142.521,158.702 143.194,160.081" stroke-width="16.360" stroke="rgb(33,33,33)" fill="none" stroke-linecap="round"></path><path d="M 143.194,160.081 C 144.020,161.775 144.191,161.755 145.411,163.206" stroke-width="16.793" stroke="rgb(33,33,33)" fill="none" stroke-linecap="round"></path><path d="M 145.411,163.206 C 145.809,163.679 145.838,163.814 146.429,163.929" stroke-width="17.081" stroke="rgb(33,33,33)" fill="none" stroke-linecap="round"></path><path d="M 146.429,163.929 C 147.872,164.211 147.980,164.141 149.478,164.000" stroke-width="16.989" stroke="rgb(33,33,33)" fill="none" stroke-linecap="round"></path><path d="M 149.478,164.000 C 150.265,163.926 150.219,163.632 151.000,163.500" stroke-width="17.255" stroke="rgb(33,33,33)" fill="none" stroke-linecap="round"></path><path d="M 151.000,163.500 C 151.748,163.374 151.777,163.567 152.535,163.483" stroke-width="17.518" stroke="rgb(33,33,33)" fill="none" stroke-linecap="round"></path><path d="M 152.535,163.483 C 153.061,163.425 153.076,163.414 153.568,163.216" stroke-width="17.779" stroke="rgb(33,33,33)" fill="none" stroke-linecap="round"></path><path d="M 153.568,163.216 C 154.350,162.901 154.345,162.871 155.084,162.458" stroke-width="17.975" stroke="rgb(33,33,33)" fill="none" stroke-linecap="round"></path><path d="M 155.084,162.458 C 155.721,162.103 155.744,162.122 156.320,161.680" stroke-width="17.861" stroke="rgb(33,33,33)" fill="none" stroke-linecap="round"></path><path d="M 156.320,161.680 C 156.732,161.364 156.690,161.310 157.059,160.941" stroke-width="18.103" stroke="rgb(33,33,33)" fill="none" stroke-linecap="round"></path><path d="M 157.059,160.941 C 157.404,160.595 157.592,160.603 157.750,160.250" stroke-width="18.278" stroke="rgb(33,33,33)" fill="none" stroke-linecap="round"></path><path d="M 157.750,160.250 C 157.812,160.111 157.533,160.137 157.500,159.957" stroke-width="18.578" stroke="rgb(33,33,33)" fill="none" stroke-linecap="round"></path><path d="M 157.500,159.957 C 157.408,159.452 157.500,159.418 157.500,158.879" stroke-width="18.768" stroke="rgb(33,33,33)" fill="none" stroke-linecap="round"></path><path d="M 157.500,158.879 C 157.500,158.295 157.500,158.295 157.500,157.711" stroke-width="18.772" stroke="rgb(33,33,33)" fill="none" stroke-linecap="round"></path><path d="M 157.500,157.711 C 157.500,156.958 157.399,156.945 157.500,156.205" stroke-width="18.755" stroke="rgb(33,33,33)" fill="none" stroke-linecap="round"></path><path d="M 157.500,156.205 C 157.607,155.425 157.672,155.427 157.915,154.671" stroke-width="18.741" stroke="rgb(33,33,33)" fill="none" stroke-linecap="round"></path><path d="M 157.915,154.671 C 158.437,153.046 158.417,153.036 159.029,151.442" stroke-width="18.529" stroke="rgb(33,33,33)" fill="none" stroke-linecap="round"></path><path d="M 159.029,151.442 C 160.329,148.058 160.475,148.113 161.740,144.716" stroke-width="18.011" stroke="rgb(33,33,33)" fill="none" stroke-linecap="round"></path><path d="M 161.740,144.716 C 163.273,140.600 163.192,140.570 164.625,136.417" stroke-width="14.544" stroke="rgb(33,33,33)" fill="none" stroke-linecap="round"></path><path d="M 164.625,136.417 C 165.756,133.139 165.549,133.054 166.867,129.855" stroke-width="12.726" stroke="rgb(33,33,33)" fill="none" stroke-linecap="round"></path><path d="M 166.867,129.855 C 168.080,126.910 168.213,126.958 169.686,124.128" stroke-width="13.441" stroke="rgb(33,33,33)" fill="none" stroke-linecap="round"></path><path d="M 169.686,124.128 C 170.762,122.061 170.923,122.143 171.964,120.061" stroke-width="13.590" stroke="rgb(33,33,33)" fill="none" stroke-linecap="round"></path><path d="M 171.964,120.061 C 172.843,118.304 172.691,118.231 173.525,116.450" stroke-width="13.893" stroke="rgb(33,33,33)" fill="none" stroke-linecap="round"></path><path d="M 173.525,116.450 C 174.494,114.381 174.438,114.342 175.570,112.361" stroke-width="13.530" stroke="rgb(33,33,33)" fill="none" stroke-linecap="round"></path><path d="M 175.570,112.361 C 176.616,110.530 176.706,110.579 177.882,108.825" stroke-width="13.930" stroke="rgb(33,33,33)" fill="none" stroke-linecap="round"></path><path d="M 177.882,108.825 C 178.724,107.569 178.662,107.512 179.607,106.340" stroke-width="14.518" stroke="rgb(33,33,33)" fill="none" stroke-linecap="round"></path><path d="M 179.607,106.340 C 180.131,105.690 180.219,105.765 180.820,105.180" stroke-width="15.174" stroke="rgb(33,33,33)" fill="none" stroke-linecap="round"></path><path d="M 180.820,105.180 C 181.195,104.816 181.147,104.758 181.559,104.441" stroke-width="15.851" stroke="rgb(33,33,33)" fill="none" stroke-linecap="round"></path><path d="M 181.559,104.441 C 182.237,103.918 182.228,103.798 183.000,103.500" stroke-width="16.406" stroke="rgb(33,33,33)" fill="none" stroke-linecap="round"></path><path d="M 183.000,103.500 C 183.449,103.327 183.514,103.398 184.000,103.500" stroke-width="16.934" stroke="rgb(33,33,33)" fill="none" stroke-linecap="round"></path><path d="M 184.000,103.500 C 185.665,103.849 185.787,103.663 187.302,104.401" stroke-width="17.208" stroke="rgb(33,33,33)" fill="none" stroke-linecap="round"></path><path d="M 187.302,104.401 C 189.040,105.248 188.895,105.549 190.507,106.671" stroke-width="17.121" stroke="rgb(33,33,33)" fill="none" stroke-linecap="round"></path><path d="M 190.507,106.671 C 195.779,110.339 195.708,110.449 201.069,113.981" stroke-width="16.975" stroke="rgb(33,33,33)" fill="none" stroke-linecap="round"></path><path d="M 201.069,113.981 C 205.407,116.839 205.406,116.876 209.906,119.453" stroke-width="14.866" stroke="rgb(33,33,33)" fill="none" stroke-linecap="round"></path><path d="M 209.906,119.453 C 211.065,120.117 211.139,119.978 212.387,120.462" stroke-width="15.277" stroke="rgb(33,33,33)" fill="none" stroke-linecap="round"></path><path d="M 212.387,120.462 C 212.811,120.626 212.812,120.627 213.250,120.750" stroke-width="15.616" stroke="rgb(33,33,33)" fill="none" stroke-linecap="round"></path><path d="M 213.250,120.750 C 213.772,120.896 213.774,120.911 214.306,121.000" stroke-width="16.323" stroke="rgb(33,33,33)" fill="none" stroke-linecap="round"></path><path d="M 214.306,121.000 C 214.524,121.036 214.688,121.000 214.750,121.000" stroke-width="16.911" stroke="rgb(33,33,33)" fill="none" stroke-linecap="round"></path><path d="M 214.750,121.000 C 214.785,121.000 214.625,121.000 214.500,121.000" stroke-width="17.464" stroke="rgb(33,33,33)" fill="none" stroke-linecap="round"></path><path d="M 214.500,121.000 C 213.939,121.000 213.924,121.093 213.379,121.000" stroke-width="17.856" stroke="rgb(33,33,33)" fill="none" stroke-linecap="round"></path><path d="M 213.379,121.000 C 212.789,120.900 212.785,120.853 212.230,120.615" stroke-width="18.007" stroke="rgb(33,33,33)" fill="none" stroke-linecap="round"></path><path d="M 212.230,120.615 C 211.447,120.279 211.495,120.164 210.703,119.852" stroke-width="18.119" stroke="rgb(33,33,33)" fill="none" stroke-linecap="round"></path><path d="M 210.703,119.852 C 209.563,119.402 209.502,119.553 208.366,119.091" stroke-width="17.933" stroke="rgb(33,33,33)" fill="none" stroke-linecap="round"></path><path d="M 208.366,119.091 C 206.840,118.471 206.863,118.409 205.378,117.689" stroke-width="17.820" stroke="rgb(33,33,33)" fill="none" stroke-linecap="round"></path><path d="M 205.378,117.689 C 203.825,116.936 203.834,116.918 202.291,116.146" stroke-width="17.575" stroke="rgb(33,33,33)" fill="none" stroke-linecap="round"></path><path d="M 202.291,116.146 C 200.775,115.388 200.804,115.320 199.259,114.630" stroke-width="17.395" stroke="rgb(33,33,33)" fill="none" stroke-linecap="round"></path><path d="M 199.259,114.630 C 198.453,114.270 198.403,114.387 197.589,114.044" stroke-width="17.534" stroke="rgb(33,33,33)" fill="none" stroke-linecap="round"></path><path d="M 197.589,114.044 C 196.804,113.712 196.849,113.600 196.061,113.280" stroke-width="17.733" stroke="rgb(33,33,33)" fill="none" stroke-linecap="round"></path><path d="M 196.061,113.280 C 195.562,113.078 195.552,113.037 195.016,113.000" stroke-width="17.953" stroke="rgb(33,33,33)" fill="none" stroke-linecap="round"></path><path d="M 195.016,113.000 C 193.513,112.897 193.499,113.000 191.982,113.000" stroke-width="18.143" stroke="rgb(33,33,33)" fill="none" stroke-linecap="round"></path><path d="M 191.982,113.000 C 191.214,113.000 191.213,112.965 190.446,113.000" stroke-width="18.350" stroke="rgb(33,33,33)" fill="none" stroke-linecap="round"></path><path d="M 190.446,113.000 C 189.019,113.066 188.907,112.765 187.595,113.203" stroke-width="18.282" stroke="rgb(33,33,33)" fill="none" stroke-linecap="round"></path><path d="M 187.595,113.203 C 186.321,113.628 186.265,113.801 185.275,114.725" stroke-width="18.439" stroke="rgb(33,33,33)" fill="none" stroke-linecap="round"></path><path d="M 185.275,114.725 C 184.674,115.286 184.853,115.455 184.413,116.174" stroke-width="18.298" stroke="rgb(33,33,33)" fill="none" stroke-linecap="round"></path><path d="M 184.413,116.174 C 183.112,118.301 182.962,118.219 181.792,120.416" stroke-width="17.701" stroke="rgb(33,33,33)" fill="none" stroke-linecap="round"></path><path d="M 181.792,120.416 C 180.437,122.960 180.493,123.000 179.362,125.656" stroke-width="16.907" stroke="rgb(33,33,33)" fill="none" stroke-linecap="round"></path><path d="M 179.362,125.656 C 178.138,128.530 178.175,128.548 177.082,131.475" stroke-width="16.732" stroke="rgb(33,33,33)" fill="none" stroke-linecap="round"></path><path d="M 177.082,131.475 C 176.093,134.125 175.943,134.085 175.197,136.809" stroke-width="16.570" stroke="rgb(33,33,33)" fill="none" stroke-linecap="round"></path><path d="M 175.197,136.809 C 173.951,141.354 173.320,141.391 173.098,146.012" stroke-width="16.699" stroke="rgb(33,33,33)" fill="none" stroke-linecap="round"></path><path d="M 173.098,146.012 C 172.923,149.640 173.434,149.764 174.403,153.307" stroke-width="14.289" stroke="rgb(33,33,33)" fill="none" stroke-linecap="round"></path><path d="M 174.403,153.307 C 174.848,154.934 175.165,154.829 175.926,156.352" stroke-width="14.510" stroke="rgb(33,33,33)" fill="none" stroke-linecap="round"></path><path d="M 175.926,156.352 C 176.690,157.879 176.479,158.029 177.453,159.406" stroke-width="15.163" stroke="rgb(33,33,33)" fill="none" stroke-linecap="round"></path><path d="M 177.453,159.406 C 178.386,160.724 178.449,160.761 179.741,161.741" stroke-width="15.308" stroke="rgb(33,33,33)" fill="none" stroke-linecap="round"></path><path d="M 179.741,161.741 C 181.493,163.070 181.640,162.883 183.540,164.024" stroke-width="15.125" stroke="rgb(33,33,33)" fill="none" stroke-linecap="round"></path><path d="M 183.540,164.024 C 185.429,165.158 185.375,165.260 187.318,166.291" stroke-width="14.661" stroke="rgb(33,33,33)" fill="none" stroke-linecap="round"></path><path d="M 187.318,166.291 C 189.176,167.277 189.161,167.402 191.142,168.057" stroke-width="14.916" stroke="rgb(33,33,33)" fill="none" stroke-linecap="round"></path><path d="M 191.142,168.057 C 192.502,168.507 192.561,168.407 194.000,168.500" stroke-width="15.361" stroke="rgb(33,33,33)" fill="none" stroke-linecap="round"></path><path d="M 194.000,168.500 C 195.990,168.629 196.048,168.762 198.000,168.500" stroke-width="15.588" stroke="rgb(33,33,33)" fill="none" stroke-linecap="round"></path><path d="M 198.000,168.500 C 199.122,168.350 199.248,168.310 200.148,167.676" stroke-width="15.970" stroke="rgb(33,33,33)" fill="none" stroke-linecap="round"></path><path d="M 200.148,167.676 C 200.793,167.221 200.562,166.949 201.089,166.322" stroke-width="16.413" stroke="rgb(33,33,33)" fill="none" stroke-linecap="round"></path><path d="M 201.089,166.322 C 201.412,165.938 201.662,166.104 201.847,165.653" stroke-width="16.934" stroke="rgb(33,33,33)" fill="none" stroke-linecap="round"></path><path d="M 201.847,165.653 C 202.367,164.385 202.238,164.281 202.500,162.885" stroke-width="17.242" stroke="rgb(33,33,33)" fill="none" stroke-linecap="round"></path><path d="M 202.500,162.885 C 202.815,161.205 202.828,161.201 203.000,159.500" stroke-width="17.336" stroke="rgb(33,33,33)" fill="none" stroke-linecap="round"></path><path d="M 203.000,159.500 C 203.413,155.411 203.533,155.408 203.671,151.305" stroke-width="16.644" stroke="rgb(33,33,33)" fill="none" stroke-linecap="round"></path><path d="M 203.671,151.305 C 203.783,147.997 203.540,147.992 203.500,144.678" stroke-width="16.719" stroke="rgb(33,33,33)" fill="none" stroke-linecap="round"></path><path d="M 203.500,144.678 C 203.454,140.865 203.500,140.864 203.500,137.050" stroke-width="15.846" stroke="rgb(33,33,33)" fill="none" stroke-linecap="round"></path><path d="M 203.500,137.050 C 203.500,133.684 203.500,133.684 203.500,130.317" stroke-width="15.741" stroke="rgb(33,33,33)" fill="none" stroke-linecap="round"></path><path d="M 203.500,130.317 C 203.500,127.745 203.500,127.745 203.500,125.172" stroke-width="15.779" stroke="rgb(33,33,33)" fill="none" stroke-linecap="round"></path><path d="M 203.500,125.172 C 203.500,123.376 203.500,123.376 203.500,121.580" stroke-width="16.014" stroke="rgb(33,33,33)" fill="none" stroke-linecap="round"></path><path d="M 203.500,121.580 C 203.500,120.426 203.500,120.426 203.500,119.272" stroke-width="16.481" stroke="rgb(33,33,33)" fill="none" stroke-linecap="round"></path><path d="M 203.500,119.272 C 203.500,118.136 203.500,118.136 203.500,117.000" stroke-width="16.878" stroke="rgb(33,33,33)" fill="none" stroke-linecap="round"></path><path d="M 203.500,117.000 C 203.500,116.482 203.500,115.931 203.500,115.965" stroke-width="17.402" stroke="rgb(33,33,33)" fill="none" stroke-linecap="round"></path><path d="M 203.500,115.965 C 203.500,116.004 203.500,116.555 203.500,117.146" stroke-width="17.849" stroke="rgb(33,33,33)" fill="none" stroke-linecap="round"></path><path d="M 203.500,117.146 C 203.500,118.188 203.500,118.188 203.500,119.230" stroke-width="17.804" stroke="rgb(33,33,33)" fill="none" stroke-linecap="round"></path><path d="M 203.500,119.230 C 203.500,121.387 203.321,121.400 203.500,123.545" stroke-width="17.447" stroke="rgb(33,33,33)" fill="none" stroke-linecap="round"></path><path d="M 203.500,123.545 C 203.787,126.980 203.830,126.992 204.432,130.391" stroke-width="16.909" stroke="rgb(33,33,33)" fill="none" stroke-linecap="round"></path><path d="M 204.432,130.391 C 205.033,133.783 205.094,133.777 205.906,137.126" stroke-width="16.341" stroke="rgb(33,33,33)" fill="none" stroke-linecap="round"></path><path d="M 205.906,137.126 C 206.593,139.961 206.598,139.964 207.431,142.759" stroke-width="16.303" stroke="rgb(33,33,33)" fill="none" stroke-linecap="round"></path><path d="M 207.431,142.759 C 208.138,145.131 208.167,145.124 208.987,147.460" stroke-width="15.867" stroke="rgb(33,33,33)" fill="none" stroke-linecap="round"></path><path d="M 208.987,147.460 C 209.695,149.477 209.646,149.502 210.486,151.464" stroke-width="15.964" stroke="rgb(33,33,33)" fill="none" stroke-linecap="round"></path><path d="M 210.486,151.464 C 211.159,153.035 211.231,153.004 212.013,154.526" stroke-width="16.190" stroke="rgb(33,33,33)" fill="none" stroke-linecap="round"></path><path d="M 212.013,154.526 C 213.490,157.400 213.344,157.502 215.003,160.255" stroke-width="16.170" stroke="rgb(33,33,33)" fill="none" stroke-linecap="round"></path><path d="M 215.003,160.255 C 215.610,161.261 215.671,161.271 216.545,162.045" stroke-width="16.598" stroke="rgb(33,33,33)" fill="none" stroke-linecap="round"></path><path d="M 216.545,162.045 C 217.221,162.643 217.261,162.744 218.102,163.000" stroke-width="17.122" stroke="rgb(33,33,33)" fill="none" stroke-linecap="round"></path><path d="M 218.102,163.000 C 218.833,163.222 218.906,163.089 219.689,163.000" stroke-width="17.325" stroke="rgb(33,33,33)" fill="none" stroke-linecap="round"></path><path d="M 219.689,163.000 C 220.459,162.912 220.487,162.926 221.208,162.646" stroke-width="17.497" stroke="rgb(33,33,33)" fill="none" stroke-linecap="round"></path><path d="M 221.208,162.646 C 222.058,162.316 222.072,162.293 222.830,161.780" stroke-width="17.510" stroke="rgb(33,33,33)" fill="none" stroke-linecap="round"></path><path d="M 222.830,161.780 C 223.843,161.095 223.780,161.002 224.750,160.250" stroke-width="17.593" stroke="rgb(33,33,33)" fill="none" stroke-linecap="round"></path><path d="M 224.750,160.250 C 225.758,159.469 225.902,159.624 226.786,158.714" stroke-width="17.756" stroke="rgb(33,33,33)" fill="none" stroke-linecap="round"></path><path d="M 226.786,158.714 C 228.692,156.751 228.687,156.703 230.330,154.505" stroke-width="17.303" stroke="rgb(33,33,33)" fill="none" stroke-linecap="round"></path><path d="M 230.330,154.505 C 231.439,153.021 231.569,153.045 232.290,151.350" stroke-width="17.078" stroke="rgb(33,33,33)" fill="none" stroke-linecap="round"></path><path d="M 232.290,151.350 C 233.349,148.861 233.068,148.736 233.890,146.136" stroke-width="16.747" stroke="rgb(33,33,33)" fill="none" stroke-linecap="round"></path><path d="M 233.890,146.136 C 235.099,142.310 235.306,142.366 236.351,138.497" stroke-width="16.231" stroke="rgb(33,33,33)" fill="none" stroke-linecap="round"></path><path d="M 236.351,138.497 C 237.220,135.283 237.129,135.251 237.718,131.971" stroke-width="15.734" stroke="rgb(33,33,33)" fill="none" stroke-linecap="round"></path><path d="M 237.718,131.971 C 238.197,129.302 238.247,129.299 238.486,126.599" stroke-width="15.982" stroke="rgb(33,33,33)" fill="none" stroke-linecap="round"></path><path d="M 238.486,126.599 C 238.888,122.064 238.855,122.053 239.000,117.500" stroke-width="16.169" stroke="rgb(33,33,33)" fill="none" stroke-linecap="round"></path><path d="M 239.000,117.500 C 239.112,114.003 239.000,114.000 239.000,110.500" stroke-width="15.554" stroke="rgb(33,33,33)" fill="none" stroke-linecap="round"></path><path d="M 239.000,110.500 C 239.000,108.500 238.602,108.435 239.000,106.500" stroke-width="16.122" stroke="rgb(33,33,33)" fill="none" stroke-linecap="round"></path><path d="M 239.000,106.500 C 239.649,103.341 239.918,103.344 241.094,100.312" stroke-width="16.201" stroke="rgb(33,33,33)" fill="none" stroke-linecap="round"></path><path d="M 241.094,100.312 C 241.344,99.668 241.421,99.689 241.851,99.149" stroke-width="16.620" stroke="rgb(33,33,33)" fill="none" stroke-linecap="round"></path><path d="M 241.851,99.149 C 242.216,98.691 242.246,98.564 242.684,98.316" stroke-width="17.037" stroke="rgb(33,33,33)" fill="none" stroke-linecap="round"></path><path d="M 242.684,98.316 C 242.820,98.239 242.948,98.333 243.000,98.500" stroke-width="17.569" stroke="rgb(33,33,33)" fill="none" stroke-linecap="round"></path><path d="M 243.000,98.500 C 243.327,99.557 243.356,99.618 243.441,100.764" stroke-width="17.532" stroke="rgb(33,33,33)" fill="none" stroke-linecap="round"></path><path d="M 243.441,100.764 C 243.606,102.986 243.394,103.003 243.500,105.236" stroke-width="17.210" stroke="rgb(33,33,33)" fill="none" stroke-linecap="round"></path><path d="M 243.500,105.236 C 243.673,108.871 243.873,108.864 244.000,112.500" stroke-width="16.432" stroke="rgb(33,33,33)" fill="none" stroke-linecap="round"></path><path d="M 244.000,112.500 C 244.123,115.996 243.761,116.016 244.000,119.500" stroke-width="15.967" stroke="rgb(33,33,33)" fill="none" stroke-linecap="round"></path><path d="M 244.000,119.500 C 244.253,123.201 244.506,123.183 244.984,126.870" stroke-width="15.552" stroke="rgb(33,33,33)" fill="none" stroke-linecap="round"></path><path d="M 244.984,126.870 C 245.375,129.889 245.169,129.929 245.739,132.912" stroke-width="15.367" stroke="rgb(33,33,33)" fill="none" stroke-linecap="round"></path><path d="M 245.739,132.912 C 246.195,135.298 246.243,135.310 247.036,137.607" stroke-width="15.440" stroke="rgb(33,33,33)" fill="none" stroke-linecap="round"></path><path d="M 247.036,137.607 C 247.794,139.804 247.477,140.059 248.841,141.901" stroke-width="15.701" stroke="rgb(33,33,33)" fill="none" stroke-linecap="round"></path><path d="M 248.841,141.901 C 251.262,145.171 251.585,145.023 254.606,147.830" stroke-width="15.757" stroke="rgb(33,33,33)" fill="none" stroke-linecap="round"></path><path d="M 254.606,147.830 C 256.014,149.139 256.100,149.059 257.699,150.133" stroke-width="16.068" stroke="rgb(33,33,33)" fill="none" stroke-linecap="round"></path><path d="M 257.699,150.133 C 259.654,151.447 259.661,151.466 261.714,152.607" stroke-width="16.272" stroke="rgb(33,33,33)" fill="none" stroke-linecap="round"></path><path d="M 261.714,152.607 C 262.241,152.900 262.268,152.913 262.859,153.000" stroke-width="16.811" stroke="rgb(33,33,33)" fill="none" stroke-linecap="round"></path><path d="M 262.859,153.000 C 263.606,153.110 263.625,153.000 264.390,153.000" stroke-width="17.316" stroke="rgb(33,33,33)" fill="none" stroke-linecap="round"></path><path d="M 264.390,153.000 C 265.155,153.000 265.160,153.055 265.919,153.000" stroke-width="16.364" stroke="rgb(33,33,33)" fill="none" stroke-linecap="round"></path><path d="M 265.919,153.000 C 266.395,152.965 266.417,152.990 266.861,152.820" stroke-width="16.836" stroke="rgb(33,33,33)" fill="none" stroke-linecap="round"></path><path d="M 266.861,152.820 C 267.651,152.518 267.654,152.489 268.388,152.056" stroke-width="17.283" stroke="rgb(33,33,33)" fill="none" stroke-linecap="round"></path><path d="M 268.388,152.056 C 269.441,151.434 269.460,151.447 270.435,150.710" stroke-width="14.649" stroke="rgb(33,33,33)" fill="none" stroke-linecap="round"></path><path d="M 270.435,150.710 C 271.624,149.811 271.707,149.872 272.717,148.783" stroke-width="14.668" stroke="rgb(33,33,33)" fill="none" stroke-linecap="round"></path><path d="M 272.717,148.783 C 274.079,147.315 274.088,147.285 275.178,145.596" stroke-width="15.009" stroke="rgb(33,33,33)" fill="none" stroke-linecap="round"></path><path d="M 275.178,145.596 C 277.717,141.664 277.653,141.613 279.975,137.542" stroke-width="14.572" stroke="rgb(33,33,33)" fill="none" stroke-linecap="round"></path><path d="M 279.975,137.542 C 282.314,133.440 282.230,133.392 284.500,129.250" stroke-width="14.232" stroke="rgb(33,33,33)" fill="none" stroke-linecap="round"></path><path d="M 284.500,129.250 C 286.534,125.538 286.811,125.666 288.583,121.834" stroke-width="14.023" stroke="rgb(33,33,33)" fill="none" stroke-linecap="round"></path><path d="M 288.583,121.834 C 290.242,118.247 290.269,118.215 291.362,114.413" stroke-width="14.188" stroke="rgb(33,33,33)" fill="none" stroke-linecap="round"></path><path d="M 291.362,114.413 C 293.386,107.373 293.621,107.351 294.817,100.150" stroke-width="14.033" stroke="rgb(33,33,33)" fill="none" stroke-linecap="round"></path><path d="M 294.817,100.150 C 295.440,96.395 294.968,96.326 295.000,92.500" stroke-width="14.350" stroke="rgb(33,33,33)" fill="none" stroke-linecap="round"></path><path d="M 295.000,92.500 C 295.059,85.501 295.000,85.500 295.000,78.500" stroke-width="14.135" stroke="rgb(33,33,33)" fill="none" stroke-linecap="round"></path><path d="M 295.000,78.500 C 295.000,76.500 295.090,76.496 295.000,74.500" stroke-width="14.720" stroke="rgb(33,33,33)" fill="none" stroke-linecap="round"></path><path d="M 295.000,74.500 C 294.892,72.101 295.227,71.949 294.605,69.710" stroke-width="15.170" stroke="rgb(33,33,33)" fill="none" stroke-linecap="round"></path><path d="M 294.605,69.710 C 294.265,68.487 294.082,68.193 293.076,67.576" stroke-width="15.738" stroke="rgb(33,33,33)" fill="none" stroke-linecap="round"></path><path d="M 293.076,67.576 C 292.280,67.088 292.038,67.526 291.000,67.500" stroke-width="16.283" stroke="rgb(33,33,33)" fill="none" stroke-linecap="round"></path><path d="M 291.000,67.500 C 290.500,67.488 290.500,67.500 290.000,67.500" stroke-width="16.846" stroke="rgb(33,33,33)" fill="none" stroke-linecap="round"></path><path d="M 290.000,67.500 C 289.000,67.500 288.844,67.189 288.000,67.500" stroke-width="17.212" stroke="rgb(33,33,33)" fill="none" stroke-linecap="round"></path><path d="M 288.000,67.500 C 287.466,67.696 287.591,67.986 287.243,68.514" stroke-width="17.610" stroke="rgb(33,33,33)" fill="none" stroke-linecap="round"></path><path d="M 287.243,68.514 C 286.553,69.562 286.495,69.534 285.924,70.652" stroke-width="17.763" stroke="rgb(33,33,33)" fill="none" stroke-linecap="round"></path><path d="M 285.924,70.652 C 282.486,77.383 282.270,77.302 279.226,84.213" stroke-width="16.696" stroke="rgb(33,33,33)" fill="none" stroke-linecap="round"></path><path d="M 279.226,84.213 C 277.182,88.854 276.872,88.825 275.748,93.757" stroke-width="16.180" stroke="rgb(33,33,33)" fill="none" stroke-linecap="round"></path><path d="M 275.748,93.757 C 273.592,103.221 273.458,103.318 272.666,113.005" stroke-width="15.885" stroke="rgb(33,33,33)" fill="none" stroke-linecap="round"></path><path d="M 272.666,113.005 C 271.834,123.181 272.322,123.256 272.500,133.483" stroke-width="7.833" stroke="rgb(33,33,33)" fill="none" stroke-linecap="round"></path><path d="M 272.500,133.483 C 272.553,136.511 272.457,136.590 273.127,139.515" stroke-width="8.547" stroke="rgb(33,33,33)" fill="none" stroke-linecap="round"></path><path d="M 273.127,139.515 C 273.602,141.587 273.774,141.597 274.790,143.476" stroke-width="9.566" stroke="rgb(33,33,33)" fill="none" stroke-linecap="round"></path><path d="M 274.790,143.476 C 275.701,145.161 275.589,145.369 276.982,146.643" stroke-width="10.277" stroke="rgb(33,33,33)" fill="none" stroke-linecap="round"></path><path d="M 276.982,146.643 C 278.718,148.231 279.006,147.936 281.048,149.199" stroke-width="10.582" stroke="rgb(33,33,33)" fill="none" stroke-linecap="round"></path><path d="M 281.048,149.199 C 282.977,150.392 282.975,150.394 284.924,151.554" stroke-width="11.117" stroke="rgb(33,33,33)" fill="none" stroke-linecap="round"></path><path d="M 284.924,151.554 C 287.313,152.976 287.217,153.190 289.723,154.362" stroke-width="11.755" stroke="rgb(33,33,33)" fill="none" stroke-linecap="round"></path><path d="M 289.723,154.362 C 291.890,155.375 291.947,155.327 294.271,155.924" stroke-width="12.361" stroke="rgb(33,33,33)" fill="none" stroke-linecap="round"></path><path d="M 294.271,155.924 C 297.976,156.876 298.000,156.864 301.781,157.460" stroke-width="12.690" stroke="rgb(33,33,33)" fill="none" stroke-linecap="round"></path><path d="M 301.781,157.460 C 304.581,157.902 304.645,158.312 307.432,158.000" stroke-width="13.305" stroke="rgb(33,33,33)" fill="none" stroke-linecap="round"></path><path d="M 307.432,158.000 C 312.402,157.444 312.636,157.454 317.295,155.723" stroke-width="13.541" stroke="rgb(33,33,33)" fill="none" stroke-linecap="round"></path><path d="M 317.295,155.723 C 319.475,154.913 319.417,154.555 321.111,152.917" stroke-width="14.146" stroke="rgb(33,33,33)" fill="none" stroke-linecap="round"></path><path d="M 321.111,152.917 C 324.134,149.994 324.626,150.204 326.728,146.601" stroke-width="14.705" stroke="rgb(33,33,33)" fill="none" stroke-linecap="round"></path><path d="M 326.728,146.601 C 329.906,141.154 329.517,140.810 331.671,134.817" stroke-width="12.771" stroke="rgb(33,33,33)" fill="none" stroke-linecap="round"></path><path d="M 331.671,134.817 C 332.575,132.301 332.334,132.215 332.845,129.583" stroke-width="12.754" stroke="rgb(33,33,33)" fill="none" stroke-linecap="round"></path><path d="M 332.845,129.583 C 333.304,127.223 333.545,127.219 333.611,124.833" stroke-width="13.263" stroke="rgb(33,33,33)" fill="none" stroke-linecap="round"></path><path d="M 333.611,124.833 C 333.686,122.126 333.791,122.028 333.128,119.396" stroke-width="13.822" stroke="rgb(33,33,33)" fill="none" stroke-linecap="round"></path><path d="M 333.128,119.396 C 331.633,113.455 331.635,113.342 329.295,107.687" stroke-width="13.869" stroke="rgb(33,33,33)" fill="none" stroke-linecap="round"></path><path d="M 329.295,107.687 C 328.249,105.161 327.996,105.236 326.356,103.033" stroke-width="14.389" stroke="rgb(33,33,33)" fill="none" stroke-linecap="round"></path><path d="M 326.356,103.033 C 324.062,99.951 324.195,99.706 321.427,97.118" stroke-width="14.933" stroke="rgb(33,33,33)" fill="none" stroke-linecap="round"></path><path d="M 321.427,97.118 C 320.049,95.830 319.824,95.806 318.063,95.281" stroke-width="15.194" stroke="rgb(33,33,33)" fill="none" stroke-linecap="round"></path><path d="M 318.063,95.281 C 317.110,94.997 317.033,95.426 316.000,95.500" stroke-width="15.363" stroke="rgb(33,33,33)" fill="none" stroke-linecap="round"></path><path d="M 316.000,95.500 C 315.502,95.536 315.400,95.260 315.000,95.500" stroke-width="15.912" stroke="rgb(33,33,33)" fill="none" stroke-linecap="round"></path><path d="M 315.000,95.500 C 314.149,96.011 314.249,96.251 313.497,97.003" stroke-width="16.269" stroke="rgb(33,33,33)" fill="none" stroke-linecap="round"></path><path d="M 313.497,97.003 C 311.624,98.876 311.222,98.582 309.750,100.750" stroke-width="16.096" stroke="rgb(33,33,33)" fill="none" stroke-linecap="round"></path><path d="M 309.750,100.750 C 307.404,104.206 307.614,104.412 305.861,108.250" stroke-width="15.632" stroke="rgb(33,33,33)" fill="none" stroke-linecap="round"></path><path d="M 305.861,108.250 C 303.911,112.519 303.441,112.424 302.345,116.964" stroke-width="15.506" stroke="rgb(33,33,33)" fill="none" stroke-linecap="round"></path><path d="M 302.345,116.964 C 300.354,125.212 300.380,125.362 299.686,133.826" stroke-width="15.468" stroke="rgb(33,33,33)" fill="none" stroke-linecap="round"></path><path d="M 299.686,133.826 C 299.303,138.495 299.488,138.628 300.192,143.230" stroke-width="13.657" stroke="rgb(33,33,33)" fill="none" stroke-linecap="round"></path><path d="M 300.192,143.230 C 300.497,145.220 300.575,145.374 301.704,147.011" stroke-width="13.867" stroke="rgb(33,33,33)" fill="none" stroke-linecap="round"></path><path d="M 301.704,147.011 C 302.903,148.749 303.087,148.756 304.849,149.979" stroke-width="14.161" stroke="rgb(33,33,33)" fill="none" stroke-linecap="round"></path><path d="M 304.849,149.979 C 307.321,151.696 307.334,151.879 310.172,152.891" stroke-width="14.654" stroke="rgb(33,33,33)" fill="none" stroke-linecap="round"></path><path d="M 310.172,152.891 C 315.294,154.717 315.415,154.570 320.769,155.654" stroke-width="14.634" stroke="rgb(33,33,33)" fill="none" stroke-linecap="round"></path><path d="M 320.769,155.654 C 324.329,156.375 324.383,156.373 328.000,156.500" stroke-width="14.806" stroke="rgb(33,33,33)" fill="none" stroke-linecap="round"></path><path d="M 328.000,156.500 C 330.108,156.574 330.131,156.401 332.219,156.056" stroke-width="15.032" stroke="rgb(33,33,33)" fill="none" stroke-linecap="round"></path><path d="M 332.219,156.056 C 333.809,155.794 333.874,155.887 335.356,155.286" stroke-width="15.415" stroke="rgb(33,33,33)" fill="none" stroke-linecap="round"></path><path d="M 335.356,155.286 C 336.960,154.636 337.091,154.688 338.392,153.554" stroke-width="15.882" stroke="rgb(33,33,33)" fill="none" stroke-linecap="round"></path><path d="M 338.392,153.554 C 340.414,151.792 341.281,152.006 342.003,149.494" stroke-width="16.308" stroke="rgb(33,33,33)" fill="none" stroke-linecap="round"></path><path d="M 342.003,149.494 C 343.850,143.064 343.039,142.596 343.530,135.669" stroke-width="13.478" stroke="rgb(33,33,33)" fill="none" stroke-linecap="round"></path><path d="M 343.530,135.669 C 343.787,132.045 343.656,132.024 343.500,128.392" stroke-width="13.198" stroke="rgb(33,33,33)" fill="none" stroke-linecap="round"></path><path d="M 343.500,128.392 C 343.364,125.224 343.330,125.216 342.946,122.068" stroke-width="13.481" stroke="rgb(33,33,33)" fill="none" stroke-linecap="round"></path><path d="M 342.946,122.068 C 342.671,119.814 342.450,119.842 342.181,117.587" stroke-width="14.067" stroke="rgb(33,33,33)" fill="none" stroke-linecap="round"></path><path d="M 342.181,117.587 C 341.727,113.787 341.780,113.775 341.500,109.958" stroke-width="14.356" stroke="rgb(33,33,33)" fill="none" stroke-linecap="round"></path><path d="M 341.500,109.958 C 341.439,109.128 341.570,109.120 341.500,108.292" stroke-width="15.108" stroke="rgb(33,33,33)" fill="none" stroke-linecap="round"></path><path d="M 341.500,108.292 C 341.410,107.231 341.456,107.178 341.181,106.181" stroke-width="15.721" stroke="rgb(33,33,33)" fill="none" stroke-linecap="round"></path><path d="M 341.181,106.181 C 341.114,105.940 340.841,106.051 340.816,105.816" stroke-width="16.408" stroke="rgb(33,33,33)" fill="none" stroke-linecap="round"></path><path d="M 340.816,105.816 C 340.751,105.211 340.908,105.158 341.000,104.500" stroke-width="16.985" stroke="rgb(33,33,33)" fill="none" stroke-linecap="round"></path><path d="M 341.000,104.500 C 341.000,104.500 341.000,104.500 341.000,104.500" stroke-width="17.551" stroke="rgb(33,33,33)" fill="none" stroke-linecap="round"></path><path d="M 341.000,104.500 C 341.736,105.728 341.786,105.700 342.471,106.956" stroke-width="17.475" stroke="rgb(33,33,33)" fill="none" stroke-linecap="round"></path><path d="M 342.471,106.956 C 343.281,108.440 343.323,108.426 343.990,109.979" stroke-width="17.387" stroke="rgb(33,33,33)" fill="none" stroke-linecap="round"></path><path d="M 343.990,109.979 C 345.613,113.761 345.901,113.689 347.051,117.627" stroke-width="16.401" stroke="rgb(33,33,33)" fill="none" stroke-linecap="round"></path><path d="M 347.051,117.627 C 348.431,122.352 348.088,122.459 349.051,127.306" stroke-width="15.606" stroke="rgb(33,33,33)" fill="none" stroke-linecap="round"></path><path d="M 349.051,127.306 C 349.853,131.347 349.919,131.338 350.581,135.403" stroke-width="15.100" stroke="rgb(33,33,33)" fill="none" stroke-linecap="round"></path><path d="M 350.581,135.403 C 351.045,138.247 351.061,138.254 351.303,141.124" stroke-width="15.104" stroke="rgb(33,33,33)" fill="none" stroke-linecap="round"></path><path d="M 351.303,141.124 C 351.521,143.714 351.458,143.723 351.500,146.324" stroke-width="15.504" stroke="rgb(33,33,33)" fill="none" stroke-linecap="round"></path><path d="M 351.500,146.324 C 351.556,149.815 351.500,149.816 351.500,153.308" stroke-width="15.909" stroke="rgb(33,33,33)" fill="none" stroke-linecap="round"></path><path d="M 351.500,153.308 C 351.500,154.444 351.634,154.462 351.500,155.581" stroke-width="14.783" stroke="rgb(33,33,33)" fill="none" stroke-linecap="round"></path><path d="M 351.500,155.581 C 351.384,156.558 351.000,156.714 351.000,157.500" stroke-width="15.293" stroke="rgb(33,33,33)" fill="none" stroke-linecap="round"></path><path d="M 351.000,157.500 C 351.000,157.699 351.408,157.383 351.500,157.551" stroke-width="16.044" stroke="rgb(33,33,33)" fill="none" stroke-linecap="round"></path><path d="M 351.500,157.551 C 351.658,157.837 351.500,157.979 351.500,158.407" stroke-width="16.583" stroke="rgb(33,33,33)" fill="none" stroke-linecap="round"></path><path d="M 351.500,158.407 C 351.500,158.578 351.589,158.630 351.500,158.750" stroke-width="16.959" stroke="rgb(33,33,33)" fill="none" stroke-linecap="round"></path><path d="M 351.500,158.750 C 351.370,158.926 351.294,158.923 351.063,159.000" stroke-width="17.402" stroke="rgb(33,33,33)" fill="none" stroke-linecap="round"></path><path d="M 351.063,159.000 C 350.919,159.048 350.906,159.000 350.750,159.000" stroke-width="17.844" stroke="rgb(33,33,33)" fill="none" stroke-linecap="round"></path><path d="M 350.750,159.000 C 350.391,159.000 350.391,159.000 350.032,159.000" stroke-width="18.140" stroke="rgb(33,33,33)" fill="none" stroke-linecap="round"></path></svg>