<svg xmlns="http://www.w3.org/2000/svg" xmlns:xlink="http://www.w3.org/1999/xlink" viewBox="0 0 800 500"><path d="M 392.500,72.000 C 392.500,72.500 392.500,72.500 392.500,73.000" stroke-width="20.000" stroke="rgb(33,33,33)" fill="none" stroke-linecap="round"></path><path d="M 392.500,73.000 C 392.500,73.500 392.500,73.500 392.500,74.000" stroke-width="19.804" stroke="rgb(33,33,33)" fill="none" stroke-linecap="round"></path><path d="M 392.500,74.000 C 392.500,74.500 392.500,74.500 392.500,75.000" stroke-width="19.596" stroke="rgb(33,33,33)" fill="none" stroke-linecap="round"></path><path d="M 392.500,75.000 C 392.500,76.000 392.500,76.000 392.500,77.000" stroke-width="18.683" stroke="rgb(33,33,33)" fill="none" stroke-linecap="round"></path><path d="M 392.500,77.000 C 392.500,78.500 392.500,78.500 392.500,80.000" stroke-width="17.731" stroke="rgb(33,33,33)" fill="none" stroke-linecap="round"></path><path d="M 392.500,80.000 C 392.500,80.500 392.500,80.500 392.500,81.000" stroke-width="17.784" stroke="rgb(33,33,33)" fill="none" stroke-linecap="round"></path><path d="M 392.500,81.000 C 392.500,82.500 392.500,82.500 392.500,84.000" stroke-width="17.196" stroke="rgb(33,33,33)" fill="none" stroke-linecap="round"></path><path d="M 392.500,84.000 C 392.500,85.000 392.500,85.000 392.500,86.000" stroke-width="16.987" stroke="rgb(33,33,33)" fill="none" stroke-linecap="round"></path><path d="M 392.500,86.000 C 392.500,87.000 392.694,87.031 392.500,88.000" stroke-width="16.724" stroke="rgb(33,33,33)" fill="none" stroke-linecap="round"></path><path d="M 392.500,88.000 C 392.194,89.531 391.757,89.460 391.500,91.000" stroke-width="16.230" stroke="rgb(33,33,33)" fill="none" stroke-linecap="round"></path><path d="M 391.500,91.000 C 391.257,92.460 391.500,92.500 391.500,94.000" stroke-width="15.905" stroke="rgb(33,33,33)" fill="none" stroke-linecap="round"></path><path d="M 391.500,94.000 C 391.500,95.500 391.500,95.500 391.500,97.000" stroke-width="15.655" stroke="rgb(33,33,33)" fill="none" stroke-linecap="round"></path><path d="M 391.500,97.000 C 391.500,98.000 391.500,98.000 391.500,99.000" stroke-width="15.761" stroke="rgb(33,33,33)" fill="none" stroke-linecap="round"></path><path d="M 391.500,99.000 C 391.500,101.000 391.500,101.000 391.500,103.000" stroke-width="15.250" stroke="rgb(33,33,33)" fill="none" stroke-linecap="round"></path><path d="M 391.500,103.000 C 391.500,105.000 391.500,105.000 391.500,107.000" stroke-width="14.987" stroke="rgb(33,33,33)" fill="none" stroke-linecap="round"></path><path d="M 391.500,107.000 C 391.500,109.000 391.500,109.000 391.500,111.000" stroke-width="14.664" stroke="rgb(33,33,33)" fill="none" stroke-linecap="round"></path><path d="M 391.500,111.000 C 391.500,113.000 391.500,113.000 391.500,115.000" stroke-width="14.270" stroke="rgb(33,33,33)" fill="none" stroke-linecap="round"></path><path d="M 391.500,115.000 C 391.500,117.000 391.720,117.022 391.500,119.000" stroke-width="14.109" stroke="rgb(33,33,33)" fill="none" stroke-linecap="round"></path><path d="M 391.500,119.000 C 391.220,121.522 390.752,121.475 390.500,124.000" stroke-width="13.856" stroke="rgb(33,33,33)" fill="none" stroke-linecap="round"></path><path d="M 390.500,124.000 C 390.252,126.475 390.500,126.500 390.500,129.000" stroke-width="13.392" stroke="rgb(33,33,33)" fill="none" stroke-linecap="round"></path><path d="M 390.500,129.000 C 390.500,131.000 390.681,131.013 390.500,133.000" stroke-width="13.414" stroke="rgb(33,33,33)" fill="none" stroke-linecap="round"></path><path d="M 390.500,133.000 C 390.181,136.513 389.851,136.489 389.500,140.000" stroke-width="12.780" stroke="rgb(33,33,33)" fill="none" stroke-linecap="round"></path><path d="M 389.500,140.000 C 389.351,141.489 389.500,141.500 389.500,143.000" stroke-width="13.127" stroke="rgb(33,33,33)" fill="none" stroke-linecap="round"></path><path d="M 389.500,143.000 C 389.500,146.500 389.500,146.500 389.500,150.000" stroke-width="12.585" stroke="rgb(33,33,33)" fill="none" stroke-linecap="round"></path><path d="M 389.500,150.000 C 389.500,152.500 389.500,152.500 389.500,155.000" stroke-width="12.560" stroke="rgb(33,33,33)" fill="none" stroke-linecap="round"></path><path d="M 389.500,155.000 C 389.500,158.500 389.768,158.522 389.500,162.000" stroke-width="12.164" stroke="rgb(33,33,33)" fill="none" stroke-linecap="round"></path><path d="M 389.500,162.000 C 389.268,165.022 388.774,164.981 388.500,168.000" stroke-width="12.026" stroke="rgb(33,33,33)" fill="none" stroke-linecap="round"></path><path d="M 388.500,168.000 C 388.274,170.481 388.726,170.519 388.500,173.000" stroke-width="12.212" stroke="rgb(33,33,33)" fill="none" stroke-linecap="round"></path><path d="M 388.500,173.000 C 388.226,176.019 387.774,175.981 387.500,179.000" stroke-width="12.063" stroke="rgb(33,33,33)" fill="none" stroke-linecap="round"></path><path d="M 387.500,179.000 C 387.274,181.481 387.500,181.500 387.500,184.000" stroke-width="12.012" stroke="rgb(33,33,33)" fill="none" stroke-linecap="round"></path><path d="M 387.500,184.000 C 387.500,186.000 387.720,186.022 387.500,188.000" stroke-width="12.283" stroke="rgb(33,33,33)" fill="none" stroke-linecap="round"></path><path d="M 387.500,188.000 C 387.220,190.522 386.815,190.482 386.500,193.000" stroke-width="12.300" stroke="rgb(33,33,33)" fill="none" stroke-linecap="round"></path><path d="M 386.500,193.000 C 386.315,194.482 386.500,194.500 386.500,196.000" stroke-width="12.786" stroke="rgb(33,33,33)" fill="none" stroke-linecap="round"></path><path d="M 386.500,196.000 C 386.500,197.500 386.711,197.526 386.500,199.000" stroke-width="13.042" stroke="rgb(33,33,33)" fill="none" stroke-linecap="round"></path><path d="M 386.500,199.000 C 386.211,201.026 385.754,200.970 385.500,203.000" stroke-width="13.202" stroke="rgb(33,33,33)" fill="none" stroke-linecap="round"></path><path d="M 385.500,203.000 C 385.254,204.970 385.500,205.000 385.500,207.000" stroke-width="13.261" stroke="rgb(33,33,33)" fill="none" stroke-linecap="round"></path><path d="M 385.500,207.000 C 385.500,209.000 385.500,209.000 385.500,211.000" stroke-width="13.184" stroke="rgb(33,33,33)" fill="none" stroke-linecap="round"></path><path d="M 385.500,211.000 C 385.500,213.000 385.500,213.000 385.500,215.000" stroke-width="13.246" stroke="rgb(33,33,33)" fill="none" stroke-linecap="round"></path><path d="M 385.500,215.000 C 385.500,217.500 385.500,217.500 385.500,220.000" stroke-width="13.081" stroke="rgb(33,33,33)" fill="none" stroke-linecap="round"></path><path d="M 385.500,220.000 C 385.500,222.500 385.500,222.500 385.500,225.000" stroke-width="13.069" stroke="rgb(33,33,33)" fill="none" stroke-linecap="round"></path><path d="M 385.500,225.000 C 385.500,228.000 385.500,228.000 385.500,231.000" stroke-width="12.739" stroke="rgb(33,33,33)" fill="none" stroke-linecap="round"></path><path d="M 385.500,231.000 C 385.500,233.500 385.500,233.500 385.500,236.000" stroke-width="12.542" stroke="rgb(33,33,33)" fill="none" stroke-linecap="round"></path><path d="M 385.500,236.000 C 385.500,238.500 385.500,238.500 385.500,241.000" stroke-width="12.526" stroke="rgb(33,33,33)" fill="none" stroke-linecap="round"></path><path d="M 385.500,241.000 C 385.500,243.500 385.500,243.500 385.500,246.000" stroke-width="12.513" stroke="rgb(33,33,33)" fill="none" stroke-linecap="round"></path><path d="M 385.500,246.000 C 385.500,249.000 385.500,249.000 385.500,252.000" stroke-width="12.313" stroke="rgb(33,33,33)" fill="none" stroke-linecap="round"></path><path d="M 385.500,252.000 C 385.500,254.500 385.500,254.500 385.500,257.000" stroke-width="12.342" stroke="rgb(33,33,33)" fill="none" stroke-linecap="round"></path><path d="M 385.500,257.000 C 385.500,259.500 385.500,259.500 385.500,262.000" stroke-width="12.366" stroke="rgb(33,33,33)" fill="none" stroke-linecap="round"></path><path d="M 385.500,262.000 C 385.500,264.000 385.500,264.000 385.500,266.000" stroke-width="12.665" stroke="rgb(33,33,33)" fill="none" stroke-linecap="round"></path><path d="M 385.500,266.000 C 385.500,267.500 385.500,267.500 385.500,269.000" stroke-width="12.940" stroke="rgb(33,33,33)" fill="none" stroke-linecap="round"></path><path d="M 385.500,269.000 C 385.500,271.000 385.500,271.000 385.500,273.000" stroke-width="13.049" stroke="rgb(33,33,33)" fill="none" stroke-linecap="round"></path><path d="M 385.500,273.000 C 385.500,274.000 385.500,274.000 385.500,275.000" stroke-width="13.628" stroke="rgb(33,33,33)" fill="none" stroke-linecap="round"></path><path d="M 385.500,275.000 C 385.500,276.500 385.500,276.500 385.500,278.000" stroke-width="13.734" stroke="rgb(33,33,33)" fill="none" stroke-linecap="round"></path><path d="M 385.500,278.000 C 385.500,279.500 385.500,279.500 385.500,281.000" stroke-width="14.002" stroke="rgb(33,33,33)" fill="none" stroke-linecap="round"></path><path d="M 385.500,281.000 C 385.500,281.500 385.500,281.500 385.500,282.000" stroke-width="14.615" stroke="rgb(33,33,33)" fill="none" stroke-linecap="round"></path><path d="M 385.500,282.000 C 385.500,283.000 385.500,283.000 385.500,284.000" stroke-width="14.907" stroke="rgb(33,33,33)" fill="none" stroke-linecap="round"></path><path d="M 385.500,284.000 C 385.500,285.500 385.500,285.500 385.500,287.000" stroke-width="14.962" stroke="rgb(33,33,33)" fill="none" stroke-linecap="round"></path><path d="M 385.500,287.000 C 385.500,287.500 385.500,287.500 385.500,288.000" stroke-width="15.485" stroke="rgb(33,33,33)" fill="none" stroke-linecap="round"></path><path d="M 385.500,288.000 C 385.500,289.000 385.500,289.000 385.500,290.000" stroke-width="15.623" stroke="rgb(33,33,33)" fill="none" stroke-linecap="round"></path><path d="M 385.500,290.000 C 385.500,291.000 385.500,291.000 385.500,292.000" stroke-width="15.648" stroke="rgb(33,33,33)" fill="none" stroke-linecap="round"></path><path d="M 385.500,292.000 C 385.500,292.500 385.500,292.500 385.500,293.000" stroke-width="16.068" stroke="rgb(33,33,33)" fill="none" stroke-linecap="round"></path><path d="M 385.500,293.000 C 385.500,294.500 385.500,294.500 385.500,296.000" stroke-width="15.781" stroke="rgb(33,33,33)" fill="none" stroke-linecap="round"></path><path d="M 385.500,296.000 C 385.500,297.000 385.500,297.000 385.500,298.000" stroke-width="15.863" stroke="rgb(33,33,33)" fill="none" stroke-linecap="round"></path><path d="M 385.500,298.000 C 385.500,298.500 385.500,298.500 385.500,299.000" stroke-width="16.249" stroke="rgb(33,33,33)" fill="none" stroke-linecap="round"></path><path d="M 385.500,299.000 C 385.500,300.000 385.500,300.000 385.500,301.000" stroke-width="16.311" stroke="rgb(33,33,33)" fill="none" stroke-linecap="round"></path><path d="M 385.500,301.000 C 385.500,301.500 385.500,301.500 385.500,302.000" stroke-width="16.623" stroke="rgb(33,33,33)" fill="none" stroke-linecap="round"></path><path d="M 385.500,302.000 C 385.500,302.500 385.500,302.500 385.500,303.000" stroke-width="16.882" stroke="rgb(33,33,33)" fill="none" stroke-linecap="round"></path><path d="M 385.500,303.000 C 385.500,303.500 385.500,303.500 385.500,304.000" stroke-width="17.264" stroke="rgb(33,33,33)" fill="none" stroke-linecap="round"></path><path d="M 385.500,304.000 C 385.500,304.500 385.500,304.500 385.500,305.000" stroke-width="17.406" stroke="rgb(33,33,33)" fill="none" stroke-linecap="round"></path><path d="M 385.500,305.000 C 385.500,305.500 385.500,305.500 385.500,306.000" stroke-width="17.522" stroke="rgb(33,33,33)" fill="none" stroke-linecap="round"></path><path d="M 385.500,306.000 C 385.500,306.500 385.250,306.750 385.500,307.000" stroke-width="17.809" stroke="rgb(33,33,33)" fill="none" stroke-linecap="round"></path><path d="M 385.500,307.000 C 385.750,307.250 386.000,307.000 386.500,307.000" stroke-width="18.233" stroke="rgb(33,33,33)" fill="none" stroke-linecap="round"></path><path d="M 386.500,307.000 C 387.000,307.000 387.000,307.000 387.500,307.000" stroke-width="18.537" stroke="rgb(33,33,33)" fill="none" stroke-linecap="round"></path><path d="M 387.500,307.000 C 388.000,307.000 388.333,307.333 388.500,307.000" stroke-width="18.783" stroke="rgb(33,33,33)" fill="none" stroke-linecap="round"></path><path d="M 388.500,307.000 C 388.833,306.333 388.500,306.000 388.500,305.000" stroke-width="18.621" stroke="rgb(33,33,33)" fill="none" stroke-linecap="round"></path><path d="M 388.500,305.000 C 388.500,304.500 388.500,304.500 388.500,304.000" stroke-width="18.493" stroke="rgb(33,33,33)" fill="none" stroke-linecap="round"></path><path d="M 388.500,304.000 C 388.500,303.500 388.500,303.500 388.500,303.000" stroke-width="18.333" stroke="rgb(33,33,33)" fill="none" stroke-linecap="round"></path><path d="M 388.500,303.000 C 388.500,302.000 388.500,302.000 388.500,301.000" stroke-width="17.951" stroke="rgb(33,33,33)" fill="none" stroke-linecap="round"></path><path d="M 388.500,301.000 C 388.500,300.500 388.345,300.464 388.500,300.000" stroke-width="17.961" stroke="rgb(33,33,33)" fill="none" stroke-linecap="round"></path><path d="M 388.500,300.000 C 388.845,298.964 389.000,299.000 389.500,298.000" stroke-width="17.369" stroke="rgb(33,33,33)" fill="none" stroke-linecap="round"></path><path d="M 389.500,298.000 C 390.000,297.000 390.086,297.036 390.500,296.000" stroke-width="17.037" stroke="rgb(33,33,33)" fill="none" stroke-linecap="round"></path><path d="M 390.500,296.000 C 391.086,294.536 391.120,294.519 391.500,293.000" stroke-width="16.464" stroke="rgb(33,33,33)" fill="none" stroke-linecap="round"></path><path d="M 391.500,293.000 C 391.620,292.519 391.345,292.464 391.500,292.000" stroke-width="16.750" stroke="rgb(33,33,33)" fill="none" stroke-linecap="round"></path><path d="M 391.500,292.000 C 391.845,290.964 392.155,291.036 392.500,290.000" stroke-width="16.557" stroke="rgb(33,33,33)" fill="none" stroke-linecap="round"></path><path d="M 392.500,290.000 C 392.655,289.536 392.293,289.414 392.500,289.000" stroke-width="16.827" stroke="rgb(33,33,33)" fill="none" stroke-linecap="round"></path><path d="M 392.500,289.000 C 392.793,288.414 393.207,288.586 393.500,288.000" stroke-width="16.902" stroke="rgb(33,33,33)" fill="none" stroke-linecap="round"></path><path d="M 393.500,288.000 C 393.707,287.586 393.500,287.500 393.500,287.000" stroke-width="17.293" stroke="rgb(33,33,33)" fill="none" stroke-linecap="round"></path><path d="M 393.500,287.000 C 393.500,286.500 393.500,286.500 393.500,286.000" stroke-width="17.430" stroke="rgb(33,33,33)" fill="none" stroke-linecap="round"></path><path d="M 393.500,286.000 C 393.500,285.500 393.250,285.250 393.500,285.000" stroke-width="17.541" stroke="rgb(33,33,33)" fill="none" stroke-linecap="round"></path><path d="M 393.500,285.000 C 393.750,284.750 394.086,285.207 394.500,285.000" stroke-width="17.631" stroke="rgb(33,33,33)" fill="none" stroke-linecap="round"></path><path d="M 394.500,285.000 C 395.086,284.707 395.293,284.621 395.500,284.000" stroke-width="17.834" stroke="rgb(33,33,33)" fill="none" stroke-linecap="round"></path><path d="M 395.500,284.000 C 395.793,283.121 395.167,282.667 395.500,282.000" stroke-width="17.374" stroke="rgb(33,33,33)" fill="none" stroke-linecap="round"></path><path d="M 395.500,282.000 C 395.667,281.667 396.086,282.207 396.500,282.000" stroke-width="17.496" stroke="rgb(33,33,33)" fill="none" stroke-linecap="round"></path><path d="M 396.500,282.000 C 397.086,281.707 397.293,281.621 397.500,281.000" stroke-width="17.438" stroke="rgb(33,33,33)" fill="none" stroke-linecap="round"></path><path d="M 397.500,281.000 C 397.793,280.121 397.028,279.708 397.500,279.000" stroke-width="17.175" stroke="rgb(33,33,33)" fill="none" stroke-linecap="round"></path><path d="M 397.500,279.000 C 398.028,278.208 398.581,278.613 399.500,278.000" stroke-width="16.975" stroke="rgb(33,33,33)" fill="none" stroke-linecap="round"></path><path d="M 399.500,278.000 C 400.081,277.613 400.113,277.581 400.500,277.000" stroke-width="17.021" stroke="rgb(33,33,33)" fill="none" stroke-linecap="round"></path><path d="M 400.500,277.000 C 401.113,276.081 401.000,276.000 401.500,275.000" stroke-width="16.658" stroke="rgb(33,33,33)" fill="none" stroke-linecap="round"></path><path d="M 401.500,275.000 C 402.000,274.000 401.887,273.919 402.500,273.000" stroke-width="16.485" stroke="rgb(33,33,33)" fill="none" stroke-linecap="round"></path><path d="M 402.500,273.000 C 402.887,272.419 403.000,272.500 403.500,272.000" stroke-width="16.678" stroke="rgb(33,33,33)" fill="none" stroke-linecap="round"></path><path d="M 403.500,272.000 C 404.500,271.000 404.500,271.000 405.500,270.000" stroke-width="16.304" stroke="rgb(33,33,33)" fill="none" stroke-linecap="round"></path><path d="M 405.500,270.000 C 406.000,269.500 406.000,269.500 406.500,269.000" stroke-width="16.477" stroke="rgb(33,33,33)" fill="none" stroke-linecap="round"></path><path d="M 406.500,269.000 C 407.500,268.000 407.621,268.099 408.500,267.000" stroke-width="16.021" stroke="rgb(33,33,33)" fill="none" stroke-linecap="round"></path><path d="M 408.500,267.000 C 409.621,265.599 409.453,265.466 410.500,264.000" stroke-width="15.682" stroke="rgb(33,33,33)" fill="none" stroke-linecap="round"></path><path d="M 410.500,264.000 C 411.953,261.966 411.877,261.893 413.500,260.000" stroke-width="14.717" stroke="rgb(33,33,33)" fill="none" stroke-linecap="round"></path><path d="M 413.500,260.000 C 414.877,258.393 415.237,258.685 416.500,257.000" stroke-width="14.394" stroke="rgb(33,33,33)" fill="none" stroke-linecap="round"></path><path d="M 416.500,257.000 C 418.237,254.685 417.885,254.423 419.500,252.000" stroke-width="13.764" stroke="rgb(33,33,33)" fill="none" stroke-linecap="round"></path><path d="M 419.500,252.000 C 420.885,249.923 420.858,249.877 422.500,248.000" stroke-width="13.482" stroke="rgb(33,33,33)" fill="none" stroke-linecap="round"></path><path d="M 422.500,248.000 C 424.358,245.877 424.715,246.182 426.500,244.000" stroke-width="13.259" stroke="rgb(33,33,33)" fill="none" stroke-linecap="round"></path><path d="M 426.500,244.000 C 429.215,240.682 429.253,240.652 431.500,237.000" stroke-width="12.143" stroke="rgb(33,33,33)" fill="none" stroke-linecap="round"></path><path d="M 431.500,237.000 C 433.253,234.152 432.813,233.892 434.500,231.000" stroke-width="11.899" stroke="rgb(33,33,33)" fill="none" stroke-linecap="round"></path><path d="M 434.500,231.000 C 436.313,227.892 436.340,227.880 438.500,225.000" stroke-width="11.627" stroke="rgb(33,33,33)" fill="none" stroke-linecap="round"></path><path d="M 438.500,225.000 C 440.840,221.880 441.566,222.315 443.500,219.000" stroke-width="11.322" stroke="rgb(33,33,33)" fill="none" stroke-linecap="round"></path><path d="M 443.500,219.000 C 445.066,216.315 444.328,215.929 445.500,213.000" stroke-width="11.431" stroke="rgb(33,33,33)" fill="none" stroke-linecap="round"></path><path d="M 445.500,213.000 C 446.328,210.929 446.500,211.000 447.500,209.000" stroke-width="11.605" stroke="rgb(33,33,33)" fill="none" stroke-linecap="round"></path><path d="M 447.500,209.000 C 448.500,207.000 448.500,207.000 449.500,205.000" stroke-width="11.858" stroke="rgb(33,33,33)" fill="none" stroke-linecap="round"></path><path d="M 449.500,205.000 C 450.500,203.000 450.393,202.938 451.500,201.000" stroke-width="12.068" stroke="rgb(33,33,33)" fill="none" stroke-linecap="round"></path><path d="M 451.500,201.000 C 452.393,199.438 452.800,199.633 453.500,198.000" stroke-width="12.481" stroke="rgb(33,33,33)" fill="none" stroke-linecap="round"></path><path d="M 453.500,198.000 C 454.300,196.133 453.852,195.945 454.500,194.000" stroke-width="12.532" stroke="rgb(33,33,33)" fill="none" stroke-linecap="round"></path><path d="M 454.500,194.000 C 454.852,192.945 455.148,193.055 455.500,192.000" stroke-width="13.077" stroke="rgb(33,33,33)" fill="none" stroke-linecap="round"></path><path d="M 455.500,192.000 C 456.148,190.055 456.163,190.020 456.500,188.000" stroke-width="13.133" stroke="rgb(33,33,33)" fill="none" stroke-linecap="round"></path><path d="M 456.500,188.000 C 456.663,187.020 456.500,187.000 456.500,186.000" stroke-width="13.650" stroke="rgb(33,33,33)" fill="none" stroke-linecap="round"></path><path d="M 456.500,186.000 C 456.500,184.500 456.289,184.474 456.500,183.000" stroke-width="13.852" stroke="rgb(33,33,33)" fill="none" stroke-linecap="round"></path><path d="M 456.500,183.000 C 456.789,180.974 457.274,181.034 457.500,179.000" stroke-width="13.752" stroke="rgb(33,33,33)" fill="none" stroke-linecap="round"></path><path d="M 457.500,179.000 C 457.774,176.534 457.500,176.500 457.500,174.000" stroke-width="13.473" stroke="rgb(33,33,33)" fill="none" stroke-linecap="round"></path><path d="M 457.500,174.000 C 457.500,172.000 457.500,172.000 457.500,170.000" stroke-width="13.478" stroke="rgb(33,33,33)" fill="none" stroke-linecap="round"></path><path d="M 457.500,170.000 C 457.500,168.000 457.500,168.000 457.500,166.000" stroke-width="13.483" stroke="rgb(33,33,33)" fill="none" stroke-linecap="round"></path><path d="M 457.500,166.000 C 457.500,163.500 457.500,163.500 457.500,161.000" stroke-width="13.387" stroke="rgb(33,33,33)" fill="none" stroke-linecap="round"></path><path d="M 457.500,161.000 C 457.500,158.500 457.500,158.500 457.500,156.000" stroke-width="13.039" stroke="rgb(33,33,33)" fill="none" stroke-linecap="round"></path><path d="M 457.500,156.000 C 457.500,154.000 457.500,154.000 457.500,152.000" stroke-width="13.129" stroke="rgb(33,33,33)" fill="none" stroke-linecap="round"></path><path d="M 457.500,152.000 C 457.500,150.000 457.500,150.000 457.500,148.000" stroke-width="13.202" stroke="rgb(33,33,33)" fill="none" stroke-linecap="round"></path><path d="M 457.500,148.000 C 457.500,146.500 457.500,146.500 457.500,145.000" stroke-width="13.481" stroke="rgb(33,33,33)" fill="none" stroke-linecap="round"></path><path d="M 457.500,145.000 C 457.500,143.000 457.821,142.924 457.500,141.000" stroke-width="13.485" stroke="rgb(33,33,33)" fill="none" stroke-linecap="round"></path><path d="M 457.500,141.000 C 457.321,139.924 456.914,140.036 456.500,139.000" stroke-width="13.896" stroke="rgb(33,33,33)" fill="none" stroke-linecap="round"></path><path d="M 456.500,139.000 C 455.914,137.536 455.806,137.531 455.500,136.000" stroke-width="14.015" stroke="rgb(33,33,33)" fill="none" stroke-linecap="round"></path><path d="M 455.500,136.000 C 455.306,135.031 455.914,134.828 455.500,134.000" stroke-width="14.404" stroke="rgb(33,33,33)" fill="none" stroke-linecap="round"></path><path d="M 455.500,134.000 C 454.914,132.828 454.500,133.000 453.500,132.000" stroke-width="14.512" stroke="rgb(33,33,33)" fill="none" stroke-linecap="round"></path><path d="M 453.500,132.000 C 452.000,130.500 452.204,130.217 450.500,129.000" stroke-width="14.236" stroke="rgb(33,33,33)" fill="none" stroke-linecap="round"></path><path d="M 450.500,129.000 C 448.704,127.717 448.542,127.907 446.500,127.000" stroke-width="14.089" stroke="rgb(33,33,33)" fill="none" stroke-linecap="round"></path><path d="M 446.500,127.000 C 444.042,125.907 444.000,126.000 441.500,125.000" stroke-width="13.641" stroke="rgb(33,33,33)" fill="none" stroke-linecap="round"></path><path d="M 441.500,125.000 C 439.000,124.000 439.101,123.650 436.500,123.000" stroke-width="13.137" stroke="rgb(33,33,33)" fill="none" stroke-linecap="round"></path><path d="M 436.500,123.000 C 431.101,121.650 431.043,121.528 425.500,121.000" stroke-width="12.042" stroke="rgb(33,33,33)" fill="none" stroke-linecap="round"></path><path d="M 425.500,121.000 C 420.543,120.528 420.500,121.000 415.500,121.000" stroke-width="11.280" stroke="rgb(33,33,33)" fill="none" stroke-linecap="round"></path><path d="M 415.500,121.000 C 408.500,121.000 408.493,120.774 401.500,121.000" stroke-width="9.945" stroke="rgb(33,33,33)" fill="none" stroke-linecap="round"></path><path d="M 401.500,121.000 C 392.993,121.274 392.942,121.007 384.500,122.000" stroke-width="8.981" stroke="rgb(33,33,33)" fill="none" stroke-linecap="round"></path><path d="M 384.500,122.000 C 375.942,123.007 376.063,124.049 367.500,125.000" stroke-width="8.482" stroke="rgb(33,33,33)" fill="none" stroke-linecap="round"></path><path d="M 367.500,125.000 C 358.063,126.049 357.797,124.331 348.500,126.000" stroke-width="7.832" stroke="rgb(33,33,33)" fill="none" stroke-linecap="round"></path><path d="M 348.500,126.000 C 338.297,127.831 338.609,129.419 328.500,132.000" stroke-width="7.068" stroke="rgb(33,33,33)" fill="none" stroke-linecap="round"></path><path d="M 328.500,132.000 C 315.109,135.419 315.097,135.552 301.500,138.000" stroke-width="6.750" stroke="rgb(33,33,33)" fill="none" stroke-linecap="round"></path><path d="M 301.500,138.000 C 290.097,140.052 289.948,139.168 278.500,141.000" stroke-width="6.750" stroke="rgb(33,33,33)" fill="none" stroke-linecap="round"></path><path d="M 278.500,141.000 C 264.948,143.168 265.034,143.702 251.500,146.000" stroke-width="6.750" stroke="rgb(33,33,33)" fill="none" stroke-linecap="round"></path><path d="M 251.500,146.000 C 238.534,148.202 238.466,147.798 225.500,150.000" stroke-width="6.750" stroke="rgb(33,33,33)" fill="none" stroke-linecap="round"></path><path d="M 225.500,150.000 C 211.966,152.298 211.864,151.916 198.500,155.000" stroke-width="6.750" stroke="rgb(33,33,33)" fill="none" stroke-linecap="round"></path><path d="M 198.500,155.000 C 185.864,157.916 185.981,158.434 173.500,162.000" stroke-width="6.750" stroke="rgb(33,33,33)" fill="none" stroke-linecap="round"></path><path d="M 173.500,162.000 C 164.981,164.434 165.062,164.734 156.500,167.000" stroke-width="6.750" stroke="rgb(33,33,33)" fill="none" stroke-linecap="round"></path><path d="M 156.500,167.000 C 148.062,169.234 147.779,168.329 139.500,171.000" stroke-width="6.750" stroke="rgb(33,33,33)" fill="none" stroke-linecap="round"></path><path d="M 139.500,171.000 C 132.279,173.329 132.568,174.173 125.500,177.000" stroke-width="6.750" stroke="rgb(33,33,33)" fill="none" stroke-linecap="round"></path><path d="M 125.500,177.000 C 120.068,179.173 119.991,178.977 114.500,181.000" stroke-width="6.750" stroke="rgb(33,33,33)" fill="none" stroke-linecap="round"></path><path d="M 114.500,181.000 C 110.491,182.477 110.215,181.999 106.500,184.000" stroke-width="6.750" stroke="rgb(33,33,33)" fill="none" stroke-linecap="round"></path><path d="M 106.500,184.000 C 103.715,185.499 103.739,185.761 101.500,188.000" stroke-width="7.172" stroke="rgb(33,33,33)" fill="none" stroke-linecap="round"></path><path d="M 101.500,188.000 C 100.239,189.261 100.426,189.457 99.500,191.000" stroke-width="7.945" stroke="rgb(33,33,33)" fill="none" stroke-linecap="round"></path><path d="M 99.500,191.000 C 98.926,191.957 98.845,191.964 98.500,193.000" stroke-width="8.824" stroke="rgb(33,33,33)" fill="none" stroke-linecap="round"></path><path d="M 98.500,193.000 C 98.345,193.464 98.500,193.500 98.500,194.000" stroke-width="9.826" stroke="rgb(33,33,33)" fill="none" stroke-linecap="round"></path><path d="M 98.500,194.000 C 98.500,195.000 98.500,195.000 98.500,196.000" stroke-width="10.696" stroke="rgb(33,33,33)" fill="none" stroke-linecap="round"></path><path d="M 98.500,196.000 C 98.500,197.000 98.143,197.108 98.500,198.000" stroke-width="11.476" stroke="rgb(33,33,33)" fill="none" stroke-linecap="round"></path><path d="M 98.500,198.000 C 99.143,199.608 99.163,199.854 100.500,201.000" stroke-width="11.810" stroke="rgb(33,33,33)" fill="none" stroke-linecap="round"></path><path d="M 100.500,201.000 C 102.663,202.854 103.363,202.076 105.500,204.000" stroke-width="11.790" stroke="rgb(33,33,33)" fill="none" stroke-linecap="round"></path><path d="M 105.500,204.000 C 108.363,206.576 107.637,207.424 110.500,210.000" stroke-width="11.588" stroke="rgb(33,33,33)" fill="none" stroke-linecap="round"></path><path d="M 110.500,210.000 C 112.637,211.924 113.106,211.343 115.500,213.000" stroke-width="11.475" stroke="rgb(33,33,33)" fill="none" stroke-linecap="round"></path><path d="M 115.500,213.000 C 119.606,215.843 119.123,216.696 123.500,219.000" stroke-width="10.877" stroke="rgb(33,33,33)" fill="none" stroke-linecap="round"></path><path d="M 123.500,219.000 C 128.623,221.696 128.973,221.078 134.500,223.000" stroke-width="10.217" stroke="rgb(33,33,33)" fill="none" stroke-linecap="round"></path><path d="M 134.500,223.000 C 140.473,225.078 140.372,225.529 146.500,227.000" stroke-width="9.634" stroke="rgb(33,33,33)" fill="none" stroke-linecap="round"></path><path d="M 146.500,227.000 C 152.872,228.529 152.990,228.070 159.500,229.000" stroke-width="9.162" stroke="rgb(33,33,33)" fill="none" stroke-linecap="round"></path><path d="M 159.500,229.000 C 166.990,230.070 166.975,230.248 174.500,231.000" stroke-width="8.630" stroke="rgb(33,33,33)" fill="none" stroke-linecap="round"></path><path d="M 174.500,231.000 C 181.975,231.748 182.014,231.339 189.500,232.000" stroke-width="8.255" stroke="rgb(33,33,33)" fill="none" stroke-linecap="round"></path><path d="M 189.500,232.000 C 199.014,232.839 198.973,233.524 208.500,234.000" stroke-width="7.670" stroke="rgb(33,33,33)" fill="none" stroke-linecap="round"></path><path d="M 208.500,234.000 C 218.973,234.524 219.000,234.000 229.500,234.000" stroke-width="7.288" stroke="rgb(33,33,33)" fill="none" stroke-linecap="round"></path><path d="M 229.500,234.000 C 241.500,234.000 241.500,234.000 253.500,234.000" stroke-width="6.750" stroke="rgb(33,33,33)" fill="none" stroke-linecap="round"></path><path d="M 253.500,234.000 C 267.500,234.000 267.500,234.000 281.500,234.000" stroke-width="6.750" stroke="rgb(33,33,33)" fill="none" stroke-linecap="round"></path><path d="M 281.500,234.000 C 295.500,234.000 295.500,234.000 309.500,234.000" stroke-width="6.750" stroke="rgb(33,33,33)" fill="none" stroke-linecap="round"></path><path d="M 309.500,234.000 C 325.500,234.000 325.503,234.239 341.500,234.000" stroke-width="6.750" stroke="rgb(33,33,33)" fill="none" stroke-linecap="round"></path><path d="M 341.500,234.000 C 359.003,233.739 359.010,233.739 376.500,233.000" stroke-width="6.750" stroke="rgb(33,33,33)" fill="none" stroke-linecap="round"></path><path d="M 376.500,233.000 C 394.510,232.239 394.503,232.059 412.500,231.000" stroke-width="6.750" stroke="rgb(33,33,33)" fill="none" stroke-linecap="round"></path><path d="M 412.500,231.000 C 428.503,230.059 428.553,230.543 444.500,229.000" stroke-width="6.750" stroke="rgb(33,33,33)" fill="none" stroke-linecap="round"></path><path d="M 444.500,229.000 C 459.553,227.543 459.462,226.641 474.500,225.000" stroke-width="6.750" stroke="rgb(33,33,33)" fill="none" stroke-linecap="round"></path><path d="M 474.500,225.000 C 486.962,223.641 487.044,224.384 499.500,223.000" stroke-width="6.750" stroke="rgb(33,33,33)" fill="none" stroke-linecap="round"></path><path d="M 499.500,223.000 C 509.544,221.884 509.616,222.035 519.500,220.000" stroke-width="6.750" stroke="rgb(33,33,33)" fill="none" stroke-linecap="round"></path><path d="M 519.500,220.000 C 526.616,218.535 526.459,217.837 533.500,216.000" stroke-width="6.750" stroke="rgb(33,33,33)" fill="none" stroke-linecap="round"></path><path d="M 533.500,216.000 C 537.959,214.837 537.993,214.966 542.500,214.000" stroke-width="6.750" stroke="rgb(33,33,33)" fill="none" stroke-linecap="round"></path><path d="M 542.500,214.000 C 544.993,213.466 545.151,213.783 547.500,213.000" stroke-width="6.750" stroke="rgb(33,33,33)" fill="none" stroke-linecap="round"></path><path d="M 547.500,213.000 C 548.151,212.783 548.000,212.500 548.500,212.000" stroke-width="7.168" stroke="rgb(33,33,33)" fill="none" stroke-linecap="round"></path><path d="M 548.500,212.000 C 549.000,211.500 549.707,211.207 549.500,211.000" stroke-width="8.099" stroke="rgb(33,33,33)" fill="none" stroke-linecap="round"></path><path d="M 549.500,211.000 C 549.207,210.707 548.480,211.163 547.500,211.000" stroke-width="9.180" stroke="rgb(33,33,33)" fill="none" stroke-linecap="round"></path><path d="M 547.500,211.000 C 545.480,210.663 545.451,210.650 543.500,210.000" stroke-width="9.793" stroke="rgb(33,33,33)" fill="none" stroke-linecap="round"></path><path d="M 543.500,210.000 C 540.951,209.150 541.129,208.329 538.500,208.000" stroke-width="10.084" stroke="rgb(33,33,33)" fill="none" stroke-linecap="round"></path><path d="M 538.500,208.000 C 533.129,207.329 532.965,208.455 527.500,208.000" stroke-width="9.729" stroke="rgb(33,33,33)" fill="none" stroke-linecap="round"></path><path d="M 527.500,208.000 C 520.965,207.455 521.044,206.561 514.500,206.000" stroke-width="9.230" stroke="rgb(33,33,33)" fill="none" stroke-linecap="round"></path><path d="M 514.500,206.000 C 503.544,205.061 503.506,205.256 492.500,205.000" stroke-width="8.284" stroke="rgb(33,33,33)" fill="none" stroke-linecap="round"></path><path d="M 492.500,205.000 C 482.006,204.756 482.000,205.000 471.500,205.000" stroke-width="7.554" stroke="rgb(33,33,33)" fill="none" stroke-linecap="round"></path><path d="M 471.500,205.000 C 456.000,205.000 456.000,205.000 440.500,205.000" stroke-width="6.750" stroke="rgb(33,33,33)" fill="none" stroke-linecap="round"></path><path d="M 440.500,205.000 C 423.000,205.000 423.000,205.000 405.500,205.000" stroke-width="6.750" stroke="rgb(33,33,33)" fill="none" stroke-linecap="round"></path><path d="M 405.500,205.000 C 388.000,205.000 388.000,205.000 370.500,205.000" stroke-width="6.750" stroke="rgb(33,33,33)" fill="none" stroke-linecap="round"></path><path d="M 370.500,205.000 C 351.500,205.000 351.500,205.000 332.500,205.000" stroke-width="6.750" stroke="rgb(33,33,33)" fill="none" stroke-linecap="round"></path><path d="M 332.500,205.000 C 318.500,205.000 318.494,204.720 304.500,205.000" stroke-width="6.750" stroke="rgb(33,33,33)" fill="none" stroke-linecap="round"></path><path d="M 304.500,205.000 C 293.494,205.220 293.497,205.436 282.500,206.000" stroke-width="6.750" stroke="rgb(33,33,33)" fill="none" stroke-linecap="round"></path><path d="M 282.500,206.000 C 273.997,206.436 273.992,206.393 265.500,207.000" stroke-width="6.750" stroke="rgb(33,33,33)" fill="none" stroke-linecap="round"></path><path d="M 265.500,207.000 C 259.992,207.393 259.961,207.272 254.500,208.000" stroke-width="6.750" stroke="rgb(33,33,33)" fill="none" stroke-linecap="round"></path></svg>