<svg xmlns="http://www.w3.org/2000/svg" xmlns:xlink="http://www.w3.org/1999/xlink" viewBox="0 0 375 500"><path d="M 134.000,143.500 C 131.500,141.500 131.389,141.624 129.000,139.500" stroke-width="19.364" stroke="rgb(33,33,33)" fill="none" stroke-linecap="round"></path><path d="M 129.000,139.500 C 126.889,137.624 127.499,136.461 125.000,135.500" stroke-width="18.357" stroke="rgb(33,33,33)" fill="none" stroke-linecap="round"></path><path d="M 125.000,135.500 C 120.999,133.961 120.515,134.726 116.000,134.500" stroke-width="17.116" stroke="rgb(33,33,33)" fill="none" stroke-linecap="round"></path><path d="M 116.000,134.500 C 110.515,134.226 109.888,132.478 105.000,134.500" stroke-width="15.659" stroke="rgb(33,33,33)" fill="none" stroke-linecap="round"></path><path d="M 105.000,134.500 C 95.388,138.478 94.218,138.801 87.000,146.500" stroke-width="13.730" stroke="rgb(33,33,33)" fill="none" stroke-linecap="round"></path><path d="M 87.000,146.500 C 79.218,154.801 80.066,156.070 75.000,166.500" stroke-width="12.115" stroke="rgb(33,33,33)" fill="none" stroke-linecap="round"></path><path d="M 75.000,166.500 C 71.566,173.570 71.169,173.784 70.000,181.500" stroke-width="11.751" stroke="rgb(33,33,33)" fill="none" stroke-linecap="round"></path><path d="M 70.000,181.500 C 68.669,190.284 68.631,190.737 70.000,199.500" stroke-width="11.311" stroke="rgb(33,33,33)" fill="none" stroke-linecap="round"></path><path d="M 70.000,199.500 C 71.131,206.737 70.760,207.697 75.000,213.500" stroke-width="11.138" stroke="rgb(33,33,33)" fill="none" stroke-linecap="round"></path><path d="M 75.000,213.500 C 80.260,220.697 81.239,220.743 89.000,225.500" stroke-width="10.821" stroke="rgb(33,33,33)" fill="none" stroke-linecap="round"></path><path d="M 89.000,225.500 C 96.739,230.243 97.217,229.991 106.000,232.500" stroke-width="10.583" stroke="rgb(33,33,33)" fill="none" stroke-linecap="round"></path><path d="M 106.000,232.500 C 114.717,234.991 114.937,234.765 124.000,235.500" stroke-width="10.409" stroke="rgb(33,33,33)" fill="none" stroke-linecap="round"></path><path d="M 124.000,235.500 C 133.437,236.265 133.675,236.666 143.000,235.500" stroke-width="10.156" stroke="rgb(33,33,33)" fill="none" stroke-linecap="round"></path><path d="M 143.000,235.500 C 149.675,234.666 150.219,234.768 156.000,231.500" stroke-width="10.358" stroke="rgb(33,33,33)" fill="none" stroke-linecap="round"></path><path d="M 156.000,231.500 C 161.719,228.268 161.959,227.696 166.000,222.500" stroke-width="10.480" stroke="rgb(33,33,33)" fill="none" stroke-linecap="round"></path><path d="M 166.000,222.500 C 168.959,218.696 168.301,218.112 170.000,213.500" stroke-width="10.877" stroke="rgb(33,33,33)" fill="none" stroke-linecap="round"></path><path d="M 170.000,213.500 C 171.801,208.612 172.332,208.622 173.000,203.500" stroke-width="11.217" stroke="rgb(33,33,33)" fill="none" stroke-linecap="round"></path><path d="M 173.000,203.500 C 173.832,197.122 173.000,197.000 173.000,190.500" stroke-width="11.141" stroke="rgb(33,33,33)" fill="none" stroke-linecap="round"></path><path d="M 173.000,190.500 C 173.000,186.000 173.000,186.000 173.000,181.500" stroke-width="11.506" stroke="rgb(33,33,33)" fill="none" stroke-linecap="round"></path><path d="M 173.000,181.500 C 173.000,177.000 173.000,177.000 173.000,172.500" stroke-width="11.816" stroke="rgb(33,33,33)" fill="none" stroke-linecap="round"></path><path d="M 173.000,172.500 C 173.000,169.500 173.000,169.500 173.000,166.500" stroke-width="12.302" stroke="rgb(33,33,33)" fill="none" stroke-linecap="round"></path><path d="M 173.000,166.500 C 173.000,165.000 173.000,163.800 173.000,163.500" stroke-width="13.046" stroke="rgb(33,33,33)" fill="none" stroke-linecap="round"></path><path d="M 173.000,163.500 C 173.000,163.300 172.686,164.557 173.000,165.500" stroke-width="13.929" stroke="rgb(33,33,33)" fill="none" stroke-linecap="round"></path><path d="M 173.000,165.500 C 175.686,173.557 175.286,173.841 179.000,181.500" stroke-width="12.947" stroke="rgb(33,33,33)" fill="none" stroke-linecap="round"></path><path d="M 179.000,181.500 C 183.286,190.341 184.108,189.939 189.000,198.500" stroke-width="11.927" stroke="rgb(33,33,33)" fill="none" stroke-linecap="round"></path><path d="M 189.000,198.500 C 192.108,203.939 191.663,204.217 195.000,209.500" stroke-width="11.872" stroke="rgb(33,33,33)" fill="none" stroke-linecap="round"></path><path d="M 195.000,209.500 C 197.663,213.717 197.840,213.638 201.000,217.500" stroke-width="12.038" stroke="rgb(33,33,33)" fill="none" stroke-linecap="round"></path><path d="M 201.000,217.500 C 202.340,219.138 202.500,219.000 204.000,220.500" stroke-width="12.691" stroke="rgb(33,33,33)" fill="none" stroke-linecap="round"></path><path d="M 204.000,220.500 C 204.500,221.000 204.869,221.892 205.000,221.500" stroke-width="13.552" stroke="rgb(33,33,33)" fill="none" stroke-linecap="round"></path><path d="M 205.000,221.500 C 205.369,220.392 205.460,219.434 205.000,217.500" stroke-width="14.039" stroke="rgb(33,33,33)" fill="none" stroke-linecap="round"></path><path d="M 205.000,217.500 C 202.960,208.934 202.098,209.101 200.000,200.500" stroke-width="12.961" stroke="rgb(33,33,33)" fill="none" stroke-linecap="round"></path><path d="M 200.000,200.500 C 197.098,188.601 196.515,188.622 195.000,176.500" stroke-width="11.529" stroke="rgb(33,33,33)" fill="none" stroke-linecap="round"></path><path d="M 195.000,176.500 C 193.515,164.622 194.245,164.505 194.000,152.500" stroke-width="10.727" stroke="rgb(33,33,33)" fill="none" stroke-linecap="round"></path><path d="M 194.000,152.500 C 193.745,140.005 193.377,139.959 194.000,127.500" stroke-width="10.103" stroke="rgb(33,33,33)" fill="none" stroke-linecap="round"></path><path d="M 194.000,127.500 C 194.377,119.959 193.509,119.419 196.000,112.500" stroke-width="10.163" stroke="rgb(33,33,33)" fill="none" stroke-linecap="round"></path><path d="M 196.000,112.500 C 198.009,106.919 199.036,107.074 203.000,102.500" stroke-width="10.494" stroke="rgb(33,33,33)" fill="none" stroke-linecap="round"></path><path d="M 203.000,102.500 C 205.536,99.574 205.728,99.463 209.000,97.500" stroke-width="10.997" stroke="rgb(33,33,33)" fill="none" stroke-linecap="round"></path><path d="M 209.000,97.500 C 210.728,96.463 210.980,96.837 213.000,96.500" stroke-width="11.762" stroke="rgb(33,33,33)" fill="none" stroke-linecap="round"></path><path d="M 213.000,96.500 C 213.980,96.337 214.669,95.728 215.000,96.500" stroke-width="12.650" stroke="rgb(33,33,33)" fill="none" stroke-linecap="round"></path><path d="M 215.000,96.500 C 216.169,99.228 215.840,99.976 216.000,103.500" stroke-width="12.906" stroke="rgb(33,33,33)" fill="none" stroke-linecap="round"></path><path d="M 216.000,103.500 C 216.340,110.976 216.595,111.059 216.000,118.500" stroke-width="12.327" stroke="rgb(33,33,33)" fill="none" stroke-linecap="round"></path><path d="M 216.000,118.500 C 215.595,123.559 214.531,123.454 214.000,128.500" stroke-width="12.392" stroke="rgb(33,33,33)" fill="none" stroke-linecap="round"></path><path d="M 214.000,128.500 C 213.531,132.954 213.554,133.040 214.000,137.500" stroke-width="12.553" stroke="rgb(33,33,33)" fill="none" stroke-linecap="round"></path><path d="M 214.000,137.500 C 214.554,143.040 213.063,144.340 216.000,148.500" stroke-width="12.421" stroke="rgb(33,33,33)" fill="none" stroke-linecap="round"></path><path d="M 216.000,148.500 C 219.063,152.840 220.798,151.899 226.000,154.500" stroke-width="12.337" stroke="rgb(33,33,33)" fill="none" stroke-linecap="round"></path><path d="M 226.000,154.500 C 231.798,157.399 232.378,156.377 238.000,159.500" stroke-width="12.154" stroke="rgb(33,33,33)" fill="none" stroke-linecap="round"></path><path d="M 238.000,159.500 C 241.378,161.377 241.540,161.548 244.000,164.500" stroke-width="12.463" stroke="rgb(33,33,33)" fill="none" stroke-linecap="round"></path><path d="M 244.000,164.500 C 246.540,167.548 247.107,167.706 248.000,171.500" stroke-width="12.652" stroke="rgb(33,33,33)" fill="none" stroke-linecap="round"></path><path d="M 248.000,171.500 C 249.107,176.206 250.070,177.201 248.000,181.500" stroke-width="12.671" stroke="rgb(33,33,33)" fill="none" stroke-linecap="round"></path><path d="M 248.000,181.500 C 243.570,190.701 242.239,190.704 235.000,198.500" stroke-width="11.598" stroke="rgb(33,33,33)" fill="none" stroke-linecap="round"></path><path d="M 235.000,198.500 C 229.239,204.704 228.140,203.627 222.000,209.500" stroke-width="11.268" stroke="rgb(33,33,33)" fill="none" stroke-linecap="round"></path><path d="M 222.000,209.500 C 216.640,214.627 216.404,214.627 212.000,220.500" stroke-width="11.172" stroke="rgb(33,33,33)" fill="none" stroke-linecap="round"></path><path d="M 212.000,220.500 C 210.404,222.627 210.235,222.917 210.000,225.500" stroke-width="11.791" stroke="rgb(33,33,33)" fill="none" stroke-linecap="round"></path><path d="M 210.000,225.500 C 209.735,228.417 208.456,230.913 211.000,231.500" stroke-width="12.306" stroke="rgb(33,33,33)" fill="none" stroke-linecap="round"></path><path d="M 211.000,231.500 C 221.456,233.913 223.723,233.311 236.000,231.500" stroke-width="11.185" stroke="rgb(33,33,33)" fill="none" stroke-linecap="round"></path><path d="M 236.000,231.500 C 254.223,228.811 254.242,227.801 272.000,222.500" stroke-width="9.712" stroke="rgb(33,33,33)" fill="none" stroke-linecap="round"></path><path d="M 272.000,222.500 C 287.742,217.801 287.603,217.274 303.000,211.500" stroke-width="8.885" stroke="rgb(33,33,33)" fill="none" stroke-linecap="round"></path><path d="M 303.000,211.500 C 315.603,206.774 315.518,206.546 328.000,201.500" stroke-width="8.653" stroke="rgb(33,33,33)" fill="none" stroke-linecap="round"></path><path d="M 328.000,201.500 C 339.018,197.046 338.989,196.973 350.000,192.500" stroke-width="8.547" stroke="rgb(33,33,33)" fill="none" stroke-linecap="round"></path><path d="M 350.000,192.500 C 354.989,190.473 355.054,190.620 360.000,188.500" stroke-width="9.113" stroke="rgb(33,33,33)" fill="none" stroke-linecap="round"></path><path d="M 360.000,188.500 C 362.054,187.620 362.774,187.317 364.000,186.500" stroke-width="9.974" stroke="rgb(33,33,33)" fill="none" stroke-linecap="round"></path><path d="M 364.000,186.500 C 364.274,186.317 363.500,186.500 363.000,186.500" stroke-width="11.082" stroke="rgb(33,33,33)" fill="none" stroke-linecap="round"></path></svg>