<svg xmlns="http://www.w3.org/2000/svg" xmlns:xlink="http://www.w3.org/1999/xlink" viewBox="0 0 360 500"><path d="M 270.500,431.000 C 270.350,425.904 270.355,425.904 270.201,420.808" stroke-width="19.441" stroke="rgb(33,33,33)" fill="none" stroke-linecap="round"></path><path d="M 270.201,420.808 C 270.105,417.654 270.369,417.623 270.000,414.500" stroke-width="18.284" stroke="rgb(33,33,33)" fill="none" stroke-linecap="round"></path><path d="M 270.000,414.500 C 269.625,411.325 269.287,411.369 268.714,408.213" stroke-width="17.554" stroke="rgb(33,33,33)" fill="none" stroke-linecap="round"></path><path d="M 268.714,408.213 C 268.268,405.757 268.360,405.741 267.963,403.275" stroke-width="16.957" stroke="rgb(33,33,33)" fill="none" stroke-linecap="round"></path><path d="M 267.963,403.275 C 267.471,400.221 267.546,400.205 266.935,397.174" stroke-width="16.488" stroke="rgb(33,33,33)" fill="none" stroke-linecap="round"></path><path d="M 266.935,397.174 C 266.287,393.960 266.085,394.001 265.446,390.785" stroke-width="16.130" stroke="rgb(33,33,33)" fill="none" stroke-linecap="round"></path><path d="M 265.446,390.785 C 264.732,387.193 264.690,387.191 264.229,383.558" stroke-width="15.552" stroke="rgb(33,33,33)" fill="none" stroke-linecap="round"></path><path d="M 264.229,383.558 C 263.713,379.499 263.656,379.489 263.492,375.402" stroke-width="15.135" stroke="rgb(33,33,33)" fill="none" stroke-linecap="round"></path><path d="M 263.492,375.402 C 263.291,370.378 263.230,370.353 263.500,365.335" stroke-width="14.650" stroke="rgb(33,33,33)" fill="none" stroke-linecap="round"></path><path d="M 263.500,365.335 C 263.739,360.876 263.937,360.882 264.510,356.447" stroke-width="14.411" stroke="rgb(33,33,33)" fill="none" stroke-linecap="round"></path><path d="M 264.510,356.447 C 265.076,352.068 265.154,352.078 265.779,347.706" stroke-width="14.180" stroke="rgb(33,33,33)" fill="none" stroke-linecap="round"></path><path d="M 265.779,347.706 C 266.159,345.045 266.085,345.033 266.520,342.382" stroke-width="14.781" stroke="rgb(33,33,33)" fill="none" stroke-linecap="round"></path><path d="M 266.520,342.382 C 266.820,340.555 267.089,340.592 267.250,338.750" stroke-width="15.289" stroke="rgb(33,33,33)" fill="none" stroke-linecap="round"></path><path d="M 267.250,338.750 C 267.829,332.151 267.401,332.093 268.000,325.500" stroke-width="14.779" stroke="rgb(33,33,33)" fill="none" stroke-linecap="round"></path><path d="M 268.000,325.500 C 268.151,323.843 268.515,323.896 268.750,322.250" stroke-width="14.679" stroke="rgb(33,33,33)" fill="none" stroke-linecap="round"></path><path d="M 268.750,322.250 C 269.015,320.396 268.706,320.344 269.000,318.500" stroke-width="15.024" stroke="rgb(33,33,33)" fill="none" stroke-linecap="round"></path><path d="M 269.000,318.500 C 269.202,317.235 269.335,317.254 269.742,316.032" stroke-width="15.624" stroke="rgb(33,33,33)" fill="none" stroke-linecap="round"></path><path d="M 269.742,316.032 C 270.077,315.026 270.133,315.045 270.485,314.044" stroke-width="16.141" stroke="rgb(33,33,33)" fill="none" stroke-linecap="round"></path><path d="M 270.485,314.044 C 270.886,312.906 270.725,312.812 271.248,311.755" stroke-width="15.770" stroke="rgb(33,33,33)" fill="none" stroke-linecap="round"></path></svg>