<svg xmlns="http://www.w3.org/2000/svg" xmlns:xlink="http://www.w3.org/1999/xlink" viewBox="0 0 360 500"><path d="M 107.000,97.500 C 101.096,90.397 101.559,89.855 95.192,83.294" stroke-width="19.549" stroke="rgb(33,33,33)" fill="none" stroke-linecap="round"></path><path d="M 95.192,83.294 C 93.310,81.355 92.956,81.674 90.501,80.500" stroke-width="18.528" stroke="rgb(33,33,33)" fill="none" stroke-linecap="round"></path><path d="M 90.501,80.500 C 87.101,78.874 87.120,78.341 83.482,77.693" stroke-width="17.408" stroke="rgb(33,33,33)" fill="none" stroke-linecap="round"></path><path d="M 83.482,77.693 C 80.105,77.091 79.972,77.772 76.471,78.000" stroke-width="16.692" stroke="rgb(33,33,33)" fill="none" stroke-linecap="round"></path><path d="M 76.471,78.000 C 72.917,78.232 72.678,77.509 69.373,78.613" stroke-width="16.204" stroke="rgb(33,33,33)" fill="none" stroke-linecap="round"></path><path d="M 69.373,78.613 C 65.192,80.009 64.638,79.980 61.500,83.000" stroke-width="15.751" stroke="rgb(33,33,33)" fill="none" stroke-linecap="round"></path><path d="M 61.500,83.000 C 58.410,85.974 58.649,86.551 56.917,90.602" stroke-width="14.835" stroke="rgb(33,33,33)" fill="none" stroke-linecap="round"></path><path d="M 56.917,90.602 C 54.640,95.927 54.104,96.031 53.483,101.753" stroke-width="14.083" stroke="rgb(33,33,33)" fill="none" stroke-linecap="round"></path><path d="M 53.483,101.753 C 52.645,109.480 53.612,109.633 54.000,117.500" stroke-width="13.186" stroke="rgb(33,33,33)" fill="none" stroke-linecap="round"></path><path d="M 54.000,117.500 C 54.410,125.817 53.456,125.991 55.079,134.121" stroke-width="12.920" stroke="rgb(33,33,33)" fill="none" stroke-linecap="round"></path><path d="M 55.079,134.121 C 58.173,149.620 58.688,149.640 63.434,164.757" stroke-width="12.105" stroke="rgb(33,33,33)" fill="none" stroke-linecap="round"></path><path d="M 63.434,164.757 C 65.079,169.997 64.754,170.372 67.861,174.834" stroke-width="12.451" stroke="rgb(33,33,33)" fill="none" stroke-linecap="round"></path><path d="M 67.861,174.834 C 72.749,181.853 72.744,182.979 79.424,187.719" stroke-width="12.859" stroke="rgb(33,33,33)" fill="none" stroke-linecap="round"></path><path d="M 79.424,187.719 C 82.582,189.960 83.463,188.488 87.537,188.795" stroke-width="11.331" stroke="rgb(33,33,33)" fill="none" stroke-linecap="round"></path><path d="M 87.537,188.795 C 91.973,189.129 92.274,190.087 96.444,189.000" stroke-width="11.461" stroke="rgb(33,33,33)" fill="none" stroke-linecap="round"></path><path d="M 96.444,189.000 C 101.330,187.726 101.893,187.529 105.649,184.074" stroke-width="10.803" stroke="rgb(33,33,33)" fill="none" stroke-linecap="round"></path><path d="M 105.649,184.074 C 110.971,179.179 110.485,178.430 114.601,172.299" stroke-width="10.676" stroke="rgb(33,33,33)" fill="none" stroke-linecap="round"></path><path d="M 114.601,172.299 C 119.201,165.447 119.459,165.509 123.081,158.108" stroke-width="11.141" stroke="rgb(33,33,33)" fill="none" stroke-linecap="round"></path><path d="M 123.081,158.108 C 127.116,149.862 126.730,149.643 129.915,141.004" stroke-width="11.369" stroke="rgb(33,33,33)" fill="none" stroke-linecap="round"></path><path d="M 129.915,141.004 C 135.226,126.597 135.235,126.584 140.073,112.015" stroke-width="10.080" stroke="rgb(33,33,33)" fill="none" stroke-linecap="round"></path><path d="M 140.073,112.015 C 141.360,108.138 141.166,108.076 142.166,104.113" stroke-width="9.923" stroke="rgb(33,33,33)" fill="none" stroke-linecap="round"></path><path d="M 142.166,104.113 C 142.671,102.112 142.545,102.077 143.082,100.088" stroke-width="10.838" stroke="rgb(33,33,33)" fill="none" stroke-linecap="round"></path><path d="M 143.082,100.088 C 143.337,99.146 143.293,99.090 143.750,98.250" stroke-width="11.830" stroke="rgb(33,33,33)" fill="none" stroke-linecap="round"></path><path d="M 143.750,98.250 C 143.991,97.807 144.115,97.885 144.479,97.521" stroke-width="12.833" stroke="rgb(33,33,33)" fill="none" stroke-linecap="round"></path><path d="M 144.479,97.521 C 144.615,97.385 144.737,97.072 144.750,97.250" stroke-width="13.609" stroke="rgb(33,33,33)" fill="none" stroke-linecap="round"></path><path d="M 144.750,97.250 C 145.041,101.287 144.857,101.604 145.086,105.951" stroke-width="13.919" stroke="rgb(33,33,33)" fill="none" stroke-linecap="round"></path><path d="M 145.086,105.951 C 145.357,111.104 145.359,111.105 145.750,116.250" stroke-width="13.634" stroke="rgb(33,33,33)" fill="none" stroke-linecap="round"></path><path d="M 145.750,116.250 C 146.293,123.399 146.264,123.404 146.954,130.540" stroke-width="12.919" stroke="rgb(33,33,33)" fill="none" stroke-linecap="round"></path><path d="M 146.954,130.540 C 147.564,136.854 147.637,136.847 148.350,143.151" stroke-width="12.696" stroke="rgb(33,33,33)" fill="none" stroke-linecap="round"></path><path d="M 148.350,143.151 C 149.047,149.312 148.771,149.358 149.774,155.470" stroke-width="12.486" stroke="rgb(33,33,33)" fill="none" stroke-linecap="round"></path><path d="M 149.774,155.470 C 150.761,161.486 151.359,161.393 152.331,167.407" stroke-width="12.399" stroke="rgb(33,33,33)" fill="none" stroke-linecap="round"></path><path d="M 152.331,167.407 C 152.999,171.543 152.545,171.609 153.054,175.771" stroke-width="12.512" stroke="rgb(33,33,33)" fill="none" stroke-linecap="round"></path><path d="M 153.054,175.771 C 153.368,178.340 153.608,178.309 153.978,180.870" stroke-width="13.070" stroke="rgb(33,33,33)" fill="none" stroke-linecap="round"></path><path d="M 153.978,180.870 C 154.168,182.186 154.017,182.206 154.175,183.526" stroke-width="13.845" stroke="rgb(33,33,33)" fill="none" stroke-linecap="round"></path><path d="M 154.175,183.526 C 154.278,184.393 154.101,184.500 154.500,185.244" stroke-width="14.611" stroke="rgb(33,33,33)" fill="none" stroke-linecap="round"></path><path d="M 154.500,185.244 C 155.033,186.237 155.222,187.343 156.040,187.000" stroke-width="15.371" stroke="rgb(33,33,33)" fill="none" stroke-linecap="round"></path><path d="M 156.040,187.000 C 158.156,186.113 158.307,184.988 160.369,182.784" stroke-width="14.848" stroke="rgb(33,33,33)" fill="none" stroke-linecap="round"></path><path d="M 160.369,182.784 C 162.232,180.793 162.048,180.623 163.889,178.611" stroke-width="14.727" stroke="rgb(33,33,33)" fill="none" stroke-linecap="round"></path><path d="M 163.889,178.611 C 165.546,176.799 165.488,176.697 167.365,175.135" stroke-width="14.369" stroke="rgb(33,33,33)" fill="none" stroke-linecap="round"></path><path d="M 167.365,175.135 C 168.580,174.123 168.754,174.350 170.073,173.463" stroke-width="14.989" stroke="rgb(33,33,33)" fill="none" stroke-linecap="round"></path><path d="M 170.073,173.463 C 171.044,172.810 170.886,172.476 171.946,172.054" stroke-width="15.563" stroke="rgb(33,33,33)" fill="none" stroke-linecap="round"></path><path d="M 171.946,172.054 C 173.350,171.495 173.804,170.813 175.000,171.500" stroke-width="16.010" stroke="rgb(33,33,33)" fill="none" stroke-linecap="round"></path><path d="M 175.000,171.500 C 177.456,172.911 176.943,174.072 179.250,176.250" stroke-width="16.083" stroke="rgb(33,33,33)" fill="none" stroke-linecap="round"></path><path d="M 179.250,176.250 C 181.111,178.007 181.294,177.808 183.336,179.369" stroke-width="16.221" stroke="rgb(33,33,33)" fill="none" stroke-linecap="round"></path><path d="M 183.336,179.369 C 186.735,181.966 186.493,182.473 190.133,184.566" stroke-width="16.415" stroke="rgb(33,33,33)" fill="none" stroke-linecap="round"></path><path d="M 190.133,184.566 C 191.825,185.539 192.039,185.267 194.000,185.500" stroke-width="16.081" stroke="rgb(33,33,33)" fill="none" stroke-linecap="round"></path><path d="M 194.000,185.500 C 195.972,185.734 196.067,185.891 198.000,185.500" stroke-width="16.014" stroke="rgb(33,33,33)" fill="none" stroke-linecap="round"></path><path d="M 198.000,185.500 C 200.713,184.951 200.840,184.913 203.291,183.620" stroke-width="15.515" stroke="rgb(33,33,33)" fill="none" stroke-linecap="round"></path><path d="M 203.291,183.620 C 205.245,182.589 205.073,182.264 206.809,180.853" stroke-width="15.737" stroke="rgb(33,33,33)" fill="none" stroke-linecap="round"></path><path d="M 206.809,180.853 C 207.978,179.903 207.929,179.844 209.101,178.899" stroke-width="16.112" stroke="rgb(33,33,33)" fill="none" stroke-linecap="round"></path><path d="M 209.101,178.899 C 210.091,178.101 210.187,178.215 211.132,177.368" stroke-width="16.540" stroke="rgb(33,33,33)" fill="none" stroke-linecap="round"></path><path d="M 211.132,177.368 C 212.592,176.060 212.636,176.073 213.910,174.590" stroke-width="16.724" stroke="rgb(33,33,33)" fill="none" stroke-linecap="round"></path><path d="M 213.910,174.590 C 214.651,173.728 214.501,173.609 215.161,172.678" stroke-width="17.070" stroke="rgb(33,33,33)" fill="none" stroke-linecap="round"></path><path d="M 215.161,172.678 C 215.796,171.783 215.727,171.652 216.500,170.938" stroke-width="17.348" stroke="rgb(33,33,33)" fill="none" stroke-linecap="round"></path><path d="M 216.500,170.938 C 216.778,170.681 216.870,170.743 217.263,170.737" stroke-width="17.736" stroke="rgb(33,33,33)" fill="none" stroke-linecap="round"></path><path d="M 217.263,170.737 C 219.574,170.700 219.681,170.368 221.907,170.852" stroke-width="17.877" stroke="rgb(33,33,33)" fill="none" stroke-linecap="round"></path><path d="M 221.907,170.852 C 223.989,171.304 223.839,171.882 225.880,172.609" stroke-width="15.301" stroke="rgb(33,33,33)" fill="none" stroke-linecap="round"></path><path d="M 225.880,172.609 C 228.257,173.455 228.262,173.576 230.743,173.998" stroke-width="15.078" stroke="rgb(33,33,33)" fill="none" stroke-linecap="round"></path><path d="M 230.743,173.998 C 233.822,174.522 233.867,174.372 237.000,174.500" stroke-width="14.465" stroke="rgb(33,33,33)" fill="none" stroke-linecap="round"></path><path d="M 237.000,174.500 C 239.995,174.623 240.211,175.340 243.000,174.500" stroke-width="14.563" stroke="rgb(33,33,33)" fill="none" stroke-linecap="round"></path><path d="M 243.000,174.500 C 247.050,173.281 246.984,172.671 250.677,170.382" stroke-width="14.369" stroke="rgb(33,33,33)" fill="none" stroke-linecap="round"></path><path d="M 250.677,170.382 C 253.705,168.505 253.814,168.553 256.442,166.168" stroke-width="14.574" stroke="rgb(33,33,33)" fill="none" stroke-linecap="round"></path><path d="M 256.442,166.168 C 258.862,163.972 259.105,164.020 260.772,161.219" stroke-width="14.820" stroke="rgb(33,33,33)" fill="none" stroke-linecap="round"></path><path d="M 260.772,161.219 C 263.954,155.875 264.047,155.706 266.140,149.878" stroke-width="15.063" stroke="rgb(33,33,33)" fill="none" stroke-linecap="round"></path><path d="M 266.140,149.878 C 266.911,147.731 266.289,147.571 266.500,145.270" stroke-width="15.038" stroke="rgb(33,33,33)" fill="none" stroke-linecap="round"></path><path d="M 266.500,145.270 C 266.719,142.882 266.750,142.885 267.000,140.500" stroke-width="15.184" stroke="rgb(33,33,33)" fill="none" stroke-linecap="round"></path><path d="M 267.000,140.500 C 267.844,141.612 268.217,141.438 268.689,142.723" stroke-width="16.725" stroke="rgb(33,33,33)" fill="none" stroke-linecap="round"></path><path d="M 268.689,142.723 C 269.752,145.615 269.369,145.791 270.071,148.853" stroke-width="16.298" stroke="rgb(33,33,33)" fill="none" stroke-linecap="round"></path><path d="M 270.071,148.853 C 271.149,153.554 271.248,153.533 272.250,158.250" stroke-width="15.563" stroke="rgb(33,33,33)" fill="none" stroke-linecap="round"></path><path d="M 272.250,158.250 C 273.155,162.511 273.201,162.510 273.885,166.810" stroke-width="14.830" stroke="rgb(33,33,33)" fill="none" stroke-linecap="round"></path><path d="M 273.885,166.810 C 274.397,170.025 274.551,170.049 274.642,173.281" stroke-width="14.838" stroke="rgb(33,33,33)" fill="none" stroke-linecap="round"></path><path d="M 274.642,173.281 C 274.690,174.989 274.828,175.167 274.162,176.691" stroke-width="15.199" stroke="rgb(33,33,33)" fill="none" stroke-linecap="round"></path><path d="M 274.162,176.691 C 273.440,178.343 273.424,178.729 271.866,179.634" stroke-width="15.516" stroke="rgb(33,33,33)" fill="none" stroke-linecap="round"></path><path d="M 271.866,179.634 C 268.674,181.488 268.350,181.254 264.662,182.209" stroke-width="15.287" stroke="rgb(33,33,33)" fill="none" stroke-linecap="round"></path><path d="M 264.662,182.209 C 261.020,183.152 260.958,183.285 257.206,183.429" stroke-width="15.278" stroke="rgb(33,33,33)" fill="none" stroke-linecap="round"></path><path d="M 257.206,183.429 C 252.424,183.613 251.991,184.093 247.593,182.864" stroke-width="15.655" stroke="rgb(33,33,33)" fill="none" stroke-linecap="round"></path><path d="M 247.593,182.864 C 245.588,182.304 245.402,181.740 244.400,179.851" stroke-width="13.924" stroke="rgb(33,33,33)" fill="none" stroke-linecap="round"></path><path d="M 244.400,179.851 C 242.356,175.998 242.548,175.682 241.500,171.379" stroke-width="13.387" stroke="rgb(33,33,33)" fill="none" stroke-linecap="round"></path><path d="M 241.500,171.379 C 241.098,169.728 240.535,169.140 241.500,167.943" stroke-width="14.151" stroke="rgb(33,33,33)" fill="none" stroke-linecap="round"></path><path d="M 241.500,167.943 C 243.480,165.487 244.432,165.987 247.390,164.073" stroke-width="13.630" stroke="rgb(33,33,33)" fill="none" stroke-linecap="round"></path><path d="M 247.390,164.073 C 250.246,162.225 250.221,162.181 253.129,160.419" stroke-width="12.536" stroke="rgb(33,33,33)" fill="none" stroke-linecap="round"></path><path d="M 253.129,160.419 C 255.533,158.962 255.693,159.206 258.014,157.635" stroke-width="13.077" stroke="rgb(33,33,33)" fill="none" stroke-linecap="round"></path><path d="M 258.014,157.635 C 260.135,156.199 260.102,156.120 262.013,154.406" stroke-width="13.391" stroke="rgb(33,33,33)" fill="none" stroke-linecap="round"></path><path d="M 262.013,154.406 C 264.214,152.433 264.436,152.562 266.239,150.261" stroke-width="13.756" stroke="rgb(33,33,33)" fill="none" stroke-linecap="round"></path><path d="M 266.239,150.261 C 267.497,148.656 267.791,148.580 268.136,146.593" stroke-width="14.225" stroke="rgb(33,33,33)" fill="none" stroke-linecap="round"></path><path d="M 268.136,146.593 C 268.817,142.676 268.623,142.464 268.291,138.453" stroke-width="14.602" stroke="rgb(33,33,33)" fill="none" stroke-linecap="round"></path><path d="M 268.291,138.453 C 268.140,136.630 267.781,136.672 267.171,134.926" stroke-width="15.094" stroke="rgb(33,33,33)" fill="none" stroke-linecap="round"></path><path d="M 267.171,134.926 C 266.232,132.235 266.219,132.237 265.193,129.579" stroke-width="15.374" stroke="rgb(33,33,33)" fill="none" stroke-linecap="round"></path><path d="M 265.193,129.579 C 264.877,128.761 264.853,128.770 264.487,127.973" stroke-width="15.992" stroke="rgb(33,33,33)" fill="none" stroke-linecap="round"></path><path d="M 137.500,249.000 C 137.500,257.253 138.016,257.325 137.500,265.506" stroke-width="19.763" stroke="rgb(33,33,33)" fill="none" stroke-linecap="round"></path><path d="M 137.500,265.506 C 137.346,267.944 136.785,267.860 136.161,270.238" stroke-width="18.792" stroke="rgb(33,33,33)" fill="none" stroke-linecap="round"></path><path d="M 136.161,270.238 C 135.308,273.490 134.995,273.457 134.547,276.766" stroke-width="17.668" stroke="rgb(33,33,33)" fill="none" stroke-linecap="round"></path><path d="M 134.547,276.766 C 134.165,279.585 134.679,279.643 134.500,282.494" stroke-width="17.099" stroke="rgb(33,33,33)" fill="none" stroke-linecap="round"></path><path d="M 134.500,282.494 C 134.405,284.010 134.151,283.989 134.000,285.500" stroke-width="17.192" stroke="rgb(33,33,33)" fill="none" stroke-linecap="round"></path><path d="M 134.000,285.500 C 133.901,286.492 134.000,286.500 134.000,287.500" stroke-width="17.449" stroke="rgb(33,33,33)" fill="none" stroke-linecap="round"></path><path d="M 134.000,287.500 C 134.000,287.500 134.000,287.500 134.000,287.500" stroke-width="17.946" stroke="rgb(33,33,33)" fill="none" stroke-linecap="round"></path><path d="M 134.000,287.500 C 133.524,284.181 133.194,284.209 133.048,280.862" stroke-width="17.599" stroke="rgb(33,33,33)" fill="none" stroke-linecap="round"></path><path d="M 133.048,280.862 C 132.194,261.209 132.316,261.184 132.000,241.500" stroke-width="13.373" stroke="rgb(33,33,33)" fill="none" stroke-linecap="round"></path><path d="M 132.000,241.500 C 131.792,228.503 132.000,228.500 132.000,215.500" stroke-width="11.518" stroke="rgb(33,33,33)" fill="none" stroke-linecap="round"></path><path d="M 132.000,215.500 C 132.000,206.000 131.621,205.965 132.000,196.500" stroke-width="10.888" stroke="rgb(33,33,33)" fill="none" stroke-linecap="round"></path><path d="M 132.000,196.500 C 132.108,193.818 132.240,193.773 132.974,191.206" stroke-width="11.564" stroke="rgb(33,33,33)" fill="none" stroke-linecap="round"></path><path d="M 132.974,191.206 C 133.407,189.691 133.186,189.172 134.333,188.335" stroke-width="12.343" stroke="rgb(33,33,33)" fill="none" stroke-linecap="round"></path><path d="M 134.333,188.335 C 135.642,187.380 136.089,187.796 137.886,187.623" stroke-width="12.999" stroke="rgb(33,33,33)" fill="none" stroke-linecap="round"></path><path d="M 137.886,187.623 C 140.423,187.379 140.492,187.143 143.000,187.500" stroke-width="13.584" stroke="rgb(33,33,33)" fill="none" stroke-linecap="round"></path><path d="M 143.000,187.500 C 146.527,188.003 147.008,187.404 149.955,189.343" stroke-width="14.024" stroke="rgb(33,33,33)" fill="none" stroke-linecap="round"></path><path d="M 149.955,189.343 C 157.743,194.467 159.817,193.683 164.470,201.626" stroke-width="13.318" stroke="rgb(33,33,33)" fill="none" stroke-linecap="round"></path><path d="M 164.470,201.626 C 172.734,215.734 171.882,217.222 175.789,233.446" stroke-width="12.151" stroke="rgb(33,33,33)" fill="none" stroke-linecap="round"></path><path d="M 175.789,233.446 C 177.647,241.159 176.706,241.542 176.000,249.500" stroke-width="12.147" stroke="rgb(33,33,33)" fill="none" stroke-linecap="round"></path><path d="M 176.000,249.500 C 175.234,258.138 175.903,258.899 172.844,266.639" stroke-width="12.213" stroke="rgb(33,33,33)" fill="none" stroke-linecap="round"></path><path d="M 172.844,266.639 C 171.521,269.987 170.297,269.502 167.236,271.676" stroke-width="12.741" stroke="rgb(33,33,33)" fill="none" stroke-linecap="round"></path><path d="M 167.236,271.676 C 162.117,275.312 161.919,275.074 156.484,278.258" stroke-width="12.941" stroke="rgb(33,33,33)" fill="none" stroke-linecap="round"></path><path d="M 156.484,278.258 C 154.886,279.194 154.903,279.316 153.169,279.916" stroke-width="13.668" stroke="rgb(33,33,33)" fill="none" stroke-linecap="round"></path><path d="M 153.169,279.916 C 151.661,280.437 151.595,280.320 150.000,280.500" stroke-width="14.484" stroke="rgb(33,33,33)" fill="none" stroke-linecap="round"></path><path d="M 150.000,280.500 C 149.010,280.612 147.861,280.617 148.000,280.500" stroke-width="15.150" stroke="rgb(33,33,33)" fill="none" stroke-linecap="round"></path><path d="M 148.000,280.500 C 148.188,280.341 149.310,280.093 150.654,279.949" stroke-width="15.562" stroke="rgb(33,33,33)" fill="none" stroke-linecap="round"></path><path d="M 150.654,279.949 C 153.317,279.664 153.333,279.770 156.015,279.641" stroke-width="15.480" stroke="rgb(33,33,33)" fill="none" stroke-linecap="round"></path><path d="M 156.015,279.641 C 158.006,279.545 158.007,279.523 160.000,279.500" stroke-width="15.688" stroke="rgb(33,33,33)" fill="none" stroke-linecap="round"></path><path d="M 160.000,279.500 C 163.999,279.453 164.096,278.891 168.000,279.500" stroke-width="15.263" stroke="rgb(33,33,33)" fill="none" stroke-linecap="round"></path><path d="M 168.000,279.500 C 171.836,280.098 171.664,281.043 175.481,281.914" stroke-width="14.893" stroke="rgb(33,33,33)" fill="none" stroke-linecap="round"></path><path d="M 175.481,281.914 C 179.335,282.793 179.480,283.522 183.342,283.000" stroke-width="14.987" stroke="rgb(33,33,33)" fill="none" stroke-linecap="round"></path><path d="M 183.342,283.000 C 191.200,281.939 191.878,282.171 198.920,278.748" stroke-width="14.411" stroke="rgb(33,33,33)" fill="none" stroke-linecap="round"></path><path d="M 198.920,278.748 C 202.982,276.773 202.457,275.679 205.550,272.205" stroke-width="14.561" stroke="rgb(33,33,33)" fill="none" stroke-linecap="round"></path><path d="M 205.550,272.205 C 210.453,266.698 210.515,266.680 214.911,260.785" stroke-width="14.737" stroke="rgb(33,33,33)" fill="none" stroke-linecap="round"></path><path d="M 214.911,260.785 C 216.089,259.205 215.693,258.950 216.698,257.255" stroke-width="14.888" stroke="rgb(33,33,33)" fill="none" stroke-linecap="round"></path><path d="M 216.698,257.255 C 217.291,256.254 217.488,256.375 218.108,255.392" stroke-width="15.324" stroke="rgb(33,33,33)" fill="none" stroke-linecap="round"></path><path d="M 218.108,255.392 C 218.514,254.749 218.423,254.695 218.749,254.003" stroke-width="15.759" stroke="rgb(33,33,33)" fill="none" stroke-linecap="round"></path><path d="M 218.749,254.003 C 218.869,253.749 218.874,253.751 219.000,253.500" stroke-width="16.411" stroke="rgb(33,33,33)" fill="none" stroke-linecap="round"></path><path d="M 219.000,253.500 C 219.000,253.500 219.000,253.500 219.000,253.500" stroke-width="17.058" stroke="rgb(33,33,33)" fill="none" stroke-linecap="round"></path><path d="M 219.000,253.500 C 218.877,255.992 218.906,255.994 218.754,258.485" stroke-width="17.101" stroke="rgb(33,33,33)" fill="none" stroke-linecap="round"></path><path d="M 218.754,258.485 C 218.656,260.102 218.567,260.098 218.500,261.716" stroke-width="16.965" stroke="rgb(33,33,33)" fill="none" stroke-linecap="round"></path><path d="M 218.500,261.716 C 218.440,263.166 217.897,263.399 218.500,264.621" stroke-width="17.058" stroke="rgb(33,33,33)" fill="none" stroke-linecap="round"></path><path d="M 218.500,264.621 C 219.498,266.642 219.835,266.739 221.702,268.202" stroke-width="16.739" stroke="rgb(33,33,33)" fill="none" stroke-linecap="round"></path><path d="M 221.702,268.202 C 224.023,270.022 224.154,269.997 226.875,271.187" stroke-width="16.408" stroke="rgb(33,33,33)" fill="none" stroke-linecap="round"></path><path d="M 226.875,271.187 C 229.916,272.517 229.954,272.876 233.226,273.242" stroke-width="16.147" stroke="rgb(33,33,33)" fill="none" stroke-linecap="round"></path><path d="M 233.226,273.242 C 238.053,273.782 238.247,273.736 243.073,273.000" stroke-width="15.351" stroke="rgb(33,33,33)" fill="none" stroke-linecap="round"></path><path d="M 243.073,273.000 C 247.511,272.323 247.968,272.636 251.755,270.415" stroke-width="14.797" stroke="rgb(33,33,33)" fill="none" stroke-linecap="round"></path><path d="M 251.755,270.415 C 255.321,268.323 255.305,267.803 257.779,264.374" stroke-width="14.716" stroke="rgb(33,33,33)" fill="none" stroke-linecap="round"></path><path d="M 257.779,264.374 C 261.297,259.499 261.296,259.255 263.738,253.808" stroke-width="14.709" stroke="rgb(33,33,33)" fill="none" stroke-linecap="round"></path><path d="M 263.738,253.808 C 264.406,252.318 264.213,252.093 264.000,250.500" stroke-width="15.374" stroke="rgb(33,33,33)" fill="none" stroke-linecap="round"></path><path d="M 264.000,250.500 C 263.848,249.359 263.881,248.975 263.008,248.339" stroke-width="15.726" stroke="rgb(33,33,33)" fill="none" stroke-linecap="round"></path><path d="M 263.008,248.339 C 261.800,247.459 261.456,247.723 259.837,247.467" stroke-width="15.929" stroke="rgb(33,33,33)" fill="none" stroke-linecap="round"></path><path d="M 259.837,247.467 C 256.702,246.971 255.975,246.385 253.500,246.835" stroke-width="16.334" stroke="rgb(33,33,33)" fill="none" stroke-linecap="round"></path><path d="M 253.500,246.835 C 252.806,246.961 253.500,247.727 253.500,248.620" stroke-width="16.713" stroke="rgb(33,33,33)" fill="none" stroke-linecap="round"></path><path d="M 253.500,248.620 C 253.500,251.136 252.694,251.349 253.500,253.652" stroke-width="16.434" stroke="rgb(33,33,33)" fill="none" stroke-linecap="round"></path><path d="M 253.500,253.652 C 254.994,257.921 255.666,257.791 258.099,261.766" stroke-width="15.705" stroke="rgb(33,33,33)" fill="none" stroke-linecap="round"></path><path d="M 258.099,261.766 C 260.699,266.014 260.410,266.301 263.566,270.099" stroke-width="15.087" stroke="rgb(33,33,33)" fill="none" stroke-linecap="round"></path><path d="M 263.566,270.099 C 265.759,272.739 265.888,272.875 268.797,274.641" stroke-width="14.822" stroke="rgb(33,33,33)" fill="none" stroke-linecap="round"></path><path d="M 268.797,274.641 C 271.197,276.098 271.693,276.961 274.185,276.546" stroke-width="14.999" stroke="rgb(33,33,33)" fill="none" stroke-linecap="round"></path><path d="M 274.185,276.546 C 276.853,276.102 277.476,275.435 279.117,272.922" stroke-width="15.130" stroke="rgb(33,33,33)" fill="none" stroke-linecap="round"></path><path d="M 279.117,272.922 C 284.494,264.690 283.432,263.849 288.221,255.057" stroke-width="14.268" stroke="rgb(33,33,33)" fill="none" stroke-linecap="round"></path><path d="M 288.221,255.057 C 289.528,252.657 289.729,252.772 291.308,250.538" stroke-width="14.620" stroke="rgb(33,33,33)" fill="none" stroke-linecap="round"></path><path d="M 291.308,250.538 C 292.417,248.969 292.003,248.378 293.597,247.451" stroke-width="15.314" stroke="rgb(33,33,33)" fill="none" stroke-linecap="round"></path><path d="M 293.597,247.451 C 296.761,245.609 297.182,245.660 300.823,245.000" stroke-width="14.964" stroke="rgb(33,33,33)" fill="none" stroke-linecap="round"></path><path d="M 300.823,245.000 C 302.182,244.754 302.236,245.230 303.597,245.639" stroke-width="14.847" stroke="rgb(33,33,33)" fill="none" stroke-linecap="round"></path><path d="M 303.597,245.639 C 305.645,246.254 305.556,246.728 307.642,247.047" stroke-width="15.203" stroke="rgb(33,33,33)" fill="none" stroke-linecap="round"></path><path d="M 307.642,247.047 C 310.009,247.409 310.090,246.794 312.502,247.000" stroke-width="15.169" stroke="rgb(33,33,33)" fill="none" stroke-linecap="round"></path><circle r="6" cx="288" cy="225.5" fill="rgb(33,33,33)"></circle></svg>