<svg xmlns="http://www.w3.org/2000/svg" xmlns:xlink="http://www.w3.org/1999/xlink" viewBox="0 0 800 500"><path d="M 216.400,152.000 C 216.400,151.500 216.091,151.309 216.400,151.000" stroke-width="16.875" stroke="rgb(33,33,33)" fill="none" stroke-linecap="round"></path><path d="M 216.400,151.000 C 217.091,150.309 217.400,150.500 218.400,150.000" stroke-width="17.351" stroke="rgb(33,33,33)" fill="none" stroke-linecap="round"></path><path d="M 218.400,150.000 C 218.400,150.000 218.400,150.000 218.400,150.000" stroke-width="17.862" stroke="rgb(33,33,33)" fill="none" stroke-linecap="round"></path><path d="M 218.400,150.000 C 218.400,149.000 218.400,149.000 218.400,148.000" stroke-width="15.494" stroke="rgb(33,33,33)" fill="none" stroke-linecap="round"></path><path d="M 218.400,148.000 C 218.400,147.000 218.400,147.000 218.400,146.000" stroke-width="15.956" stroke="rgb(33,33,33)" fill="none" stroke-linecap="round"></path><path d="M 218.400,146.000 C 218.400,144.000 218.400,144.000 218.400,142.000" stroke-width="15.634" stroke="rgb(33,33,33)" fill="none" stroke-linecap="round"></path><path d="M 218.400,142.000 C 218.400,141.000 218.400,141.000 218.400,140.000" stroke-width="15.812" stroke="rgb(33,33,33)" fill="none" stroke-linecap="round"></path><path d="M 218.400,140.000 C 218.400,138.000 218.400,138.000 218.400,136.000" stroke-width="15.125" stroke="rgb(33,33,33)" fill="none" stroke-linecap="round"></path><path d="M 218.400,136.000 C 218.400,135.000 218.400,135.000 218.400,134.000" stroke-width="15.246" stroke="rgb(33,33,33)" fill="none" stroke-linecap="round"></path><path d="M 218.400,134.000 C 218.400,133.000 218.400,133.000 218.400,132.000" stroke-width="15.344" stroke="rgb(33,33,33)" fill="none" stroke-linecap="round"></path><path d="M 218.400,132.000 C 218.400,131.000 218.400,131.000 218.400,130.000" stroke-width="15.508" stroke="rgb(33,33,33)" fill="none" stroke-linecap="round"></path><path d="M 218.400,130.000 C 218.400,130.000 218.400,130.000 218.400,130.000" stroke-width="16.270" stroke="rgb(33,33,33)" fill="none" stroke-linecap="round"></path><path d="M 218.400,130.000 C 218.400,129.000 218.733,128.667 218.400,128.000" stroke-width="16.256" stroke="rgb(33,33,33)" fill="none" stroke-linecap="round"></path><path d="M 218.400,128.000 C 218.233,127.667 217.709,127.691 217.400,128.000" stroke-width="16.868" stroke="rgb(33,33,33)" fill="none" stroke-linecap="round"></path><path d="M 217.400,128.000 C 216.709,128.691 217.228,129.290 216.400,130.000" stroke-width="14.886" stroke="rgb(33,33,33)" fill="none" stroke-linecap="round"></path><path d="M 216.400,130.000 C 213.728,132.290 213.273,131.845 210.400,134.000" stroke-width="15.093" stroke="rgb(33,33,33)" fill="none" stroke-linecap="round"></path><path d="M 210.400,134.000 C 209.273,134.845 209.141,134.814 208.400,136.000" stroke-width="14.313" stroke="rgb(33,33,33)" fill="none" stroke-linecap="round"></path><path d="M 208.400,136.000 C 206.641,138.814 207.191,139.186 205.400,142.000" stroke-width="13.929" stroke="rgb(33,33,33)" fill="none" stroke-linecap="round"></path><path d="M 205.400,142.000 C 203.691,144.686 203.171,144.344 201.400,147.000" stroke-width="12.506" stroke="rgb(33,33,33)" fill="none" stroke-linecap="round"></path><path d="M 201.400,147.000 C 199.171,150.344 199.629,150.656 197.400,154.000" stroke-width="11.734" stroke="rgb(33,33,33)" fill="none" stroke-linecap="round"></path><path d="M 197.400,154.000 C 195.629,156.656 195.171,156.344 193.400,159.000" stroke-width="11.483" stroke="rgb(33,33,33)" fill="none" stroke-linecap="round"></path><path d="M 193.400,159.000 C 191.171,162.344 191.310,162.452 189.400,166.000" stroke-width="11.173" stroke="rgb(33,33,33)" fill="none" stroke-linecap="round"></path><path d="M 189.400,166.000 C 187.810,168.952 187.900,169.000 186.400,172.000" stroke-width="11.141" stroke="rgb(33,33,33)" fill="none" stroke-linecap="round"></path><path d="M 186.400,172.000 C 185.400,174.000 184.827,173.865 184.400,176.000" stroke-width="11.467" stroke="rgb(33,33,33)" fill="none" stroke-linecap="round"></path><path d="M 184.400,176.000 C 183.827,178.865 184.400,179.000 184.400,182.000" stroke-width="11.488" stroke="rgb(33,33,33)" fill="none" stroke-linecap="round"></path><path d="M 184.400,182.000 C 184.400,183.000 184.814,183.172 184.400,184.000" stroke-width="12.239" stroke="rgb(33,33,33)" fill="none" stroke-linecap="round"></path><path d="M 184.400,184.000 C 183.814,185.172 182.814,184.757 182.400,186.000" stroke-width="12.621" stroke="rgb(33,33,33)" fill="none" stroke-linecap="round"></path><path d="M 182.400,186.000 C 181.814,187.757 182.400,188.000 182.400,190.000" stroke-width="12.787" stroke="rgb(33,33,33)" fill="none" stroke-linecap="round"></path><path d="M 182.400,190.000 C 182.400,191.000 182.400,191.000 182.400,192.000" stroke-width="13.350" stroke="rgb(33,33,33)" fill="none" stroke-linecap="round"></path><path d="M 182.400,192.000 C 182.400,194.000 182.400,194.000 182.400,196.000" stroke-width="13.380" stroke="rgb(33,33,33)" fill="none" stroke-linecap="round"></path><path d="M 182.400,196.000 C 182.400,197.000 182.400,197.000 182.400,198.000" stroke-width="13.862" stroke="rgb(33,33,33)" fill="none" stroke-linecap="round"></path><path d="M 182.400,198.000 C 182.400,199.000 182.400,199.000 182.400,200.000" stroke-width="14.274" stroke="rgb(33,33,33)" fill="none" stroke-linecap="round"></path><path d="M 182.400,200.000 C 182.400,201.500 182.400,201.500 182.400,203.000" stroke-width="14.363" stroke="rgb(33,33,33)" fill="none" stroke-linecap="round"></path><path d="M 182.400,203.000 C 182.400,203.500 182.400,203.500 182.400,204.000" stroke-width="14.968" stroke="rgb(33,33,33)" fill="none" stroke-linecap="round"></path><path d="M 182.400,204.000 C 182.400,205.500 182.400,205.500 182.400,207.000" stroke-width="14.919" stroke="rgb(33,33,33)" fill="none" stroke-linecap="round"></path><path d="M 182.400,207.000 C 182.400,207.500 182.400,207.500 182.400,208.000" stroke-width="15.448" stroke="rgb(33,33,33)" fill="none" stroke-linecap="round"></path><path d="M 182.400,208.000 C 182.400,209.000 182.400,209.000 182.400,210.000" stroke-width="15.593" stroke="rgb(33,33,33)" fill="none" stroke-linecap="round"></path><path d="M 182.400,210.000 C 182.400,210.500 182.091,210.691 182.400,211.000" stroke-width="16.021" stroke="rgb(33,33,33)" fill="none" stroke-linecap="round"></path><path d="M 182.400,211.000 C 183.091,211.691 183.872,211.208 184.400,212.000" stroke-width="15.982" stroke="rgb(33,33,33)" fill="none" stroke-linecap="round"></path><path d="M 184.400,212.000 C 184.872,212.708 184.164,213.056 184.400,214.000" stroke-width="16.025" stroke="rgb(33,33,33)" fill="none" stroke-linecap="round"></path><path d="M 184.400,214.000 C 184.664,215.056 184.634,215.234 185.400,216.000" stroke-width="16.345" stroke="rgb(33,33,33)" fill="none" stroke-linecap="round"></path><path d="M 185.400,216.000 C 186.634,217.234 186.857,217.074 188.400,218.000" stroke-width="15.930" stroke="rgb(33,33,33)" fill="none" stroke-linecap="round"></path><path d="M 188.400,218.000 C 189.357,218.574 189.364,218.586 190.400,219.000" stroke-width="16.242" stroke="rgb(33,33,33)" fill="none" stroke-linecap="round"></path><path d="M 190.400,219.000 C 191.864,219.586 191.933,219.413 193.400,220.000" stroke-width="15.864" stroke="rgb(33,33,33)" fill="none" stroke-linecap="round"></path><path d="M 193.400,220.000 C 196.933,221.413 196.794,222.017 200.400,223.000" stroke-width="14.346" stroke="rgb(33,33,33)" fill="none" stroke-linecap="round"></path><path d="M 200.400,223.000 C 202.294,223.517 202.430,222.754 204.400,223.000" stroke-width="14.168" stroke="rgb(33,33,33)" fill="none" stroke-linecap="round"></path><path d="M 204.400,223.000 C 206.430,223.254 206.380,223.663 208.400,224.000" stroke-width="13.999" stroke="rgb(33,33,33)" fill="none" stroke-linecap="round"></path><path d="M 208.400,224.000 C 209.380,224.163 209.400,224.000 210.400,224.000" stroke-width="14.318" stroke="rgb(33,33,33)" fill="none" stroke-linecap="round"></path><path d="M 210.400,224.000 C 211.900,224.000 211.900,224.000 213.400,224.000" stroke-width="14.484" stroke="rgb(33,33,33)" fill="none" stroke-linecap="round"></path><path d="M 213.400,224.000 C 215.400,224.000 215.400,224.000 217.400,224.000" stroke-width="14.133" stroke="rgb(33,33,33)" fill="none" stroke-linecap="round"></path><path d="M 217.400,224.000 C 218.900,224.000 218.995,224.401 220.400,224.000" stroke-width="14.248" stroke="rgb(33,33,33)" fill="none" stroke-linecap="round"></path><path d="M 220.400,224.000 C 222.495,223.401 222.447,223.085 224.400,222.000" stroke-width="14.098" stroke="rgb(33,33,33)" fill="none" stroke-linecap="round"></path><path d="M 224.400,222.000 C 226.947,220.585 226.900,220.500 229.400,219.000" stroke-width="13.546" stroke="rgb(33,33,33)" fill="none" stroke-linecap="round"></path><path d="M 229.400,219.000 C 231.900,217.500 231.941,217.565 234.400,216.000" stroke-width="13.135" stroke="rgb(33,33,33)" fill="none" stroke-linecap="round"></path><path d="M 234.400,216.000 C 237.441,214.065 237.474,214.090 240.400,212.000" stroke-width="12.352" stroke="rgb(33,33,33)" fill="none" stroke-linecap="round"></path><path d="M 240.400,212.000 C 240.974,211.590 240.900,211.500 241.400,211.000" stroke-width="13.124" stroke="rgb(33,33,33)" fill="none" stroke-linecap="round"></path><path d="M 241.400,211.000 C 243.400,209.000 243.524,209.111 245.400,207.000" stroke-width="12.851" stroke="rgb(33,33,33)" fill="none" stroke-linecap="round"></path><path d="M 245.400,207.000 C 247.524,204.611 247.691,204.686 249.400,202.000" stroke-width="12.321" stroke="rgb(33,33,33)" fill="none" stroke-linecap="round"></path><path d="M 249.400,202.000 C 251.191,199.186 250.300,198.400 252.400,196.000" stroke-width="12.035" stroke="rgb(33,33,33)" fill="none" stroke-linecap="round"></path><path d="M 252.400,196.000 C 253.800,194.400 255.157,195.657 256.400,194.000" stroke-width="12.307" stroke="rgb(33,33,33)" fill="none" stroke-linecap="round"></path><path d="M 256.400,194.000 C 258.157,191.657 257.228,190.929 258.400,188.000" stroke-width="11.933" stroke="rgb(33,33,33)" fill="none" stroke-linecap="round"></path><path d="M 258.400,188.000 C 259.228,185.929 259.872,186.111 260.400,184.000" stroke-width="12.130" stroke="rgb(33,33,33)" fill="none" stroke-linecap="round"></path><path d="M 260.400,184.000 C 260.872,182.111 260.400,182.000 260.400,180.000" stroke-width="12.381" stroke="rgb(33,33,33)" fill="none" stroke-linecap="round"></path><path d="M 260.400,180.000 C 260.400,177.000 260.400,177.000 260.400,174.000" stroke-width="12.334" stroke="rgb(33,33,33)" fill="none" stroke-linecap="round"></path><path d="M 260.400,174.000 C 260.400,172.000 260.400,172.000 260.400,170.000" stroke-width="12.441" stroke="rgb(33,33,33)" fill="none" stroke-linecap="round"></path><path d="M 260.400,170.000 C 260.400,168.500 260.400,168.500 260.400,167.000" stroke-width="12.908" stroke="rgb(33,33,33)" fill="none" stroke-linecap="round"></path><path d="M 260.400,167.000 C 260.400,165.000 260.400,165.000 260.400,163.000" stroke-width="12.903" stroke="rgb(33,33,33)" fill="none" stroke-linecap="round"></path><path d="M 260.400,163.000 C 260.400,161.500 260.400,161.500 260.400,160.000" stroke-width="13.231" stroke="rgb(33,33,33)" fill="none" stroke-linecap="round"></path><path d="M 260.400,160.000 C 260.400,159.500 260.400,159.500 260.400,159.000" stroke-width="13.998" stroke="rgb(33,33,33)" fill="none" stroke-linecap="round"></path><path d="M 260.400,159.000 C 260.400,157.500 260.400,157.500 260.400,156.000" stroke-width="14.138" stroke="rgb(33,33,33)" fill="none" stroke-linecap="round"></path><path d="M 260.400,156.000 C 260.400,156.000 260.400,156.000 260.400,156.000" stroke-width="15.047" stroke="rgb(33,33,33)" fill="none" stroke-linecap="round"></path><path d="M 260.400,156.000 C 260.400,155.500 260.400,155.500 260.400,155.000" stroke-width="15.590" stroke="rgb(33,33,33)" fill="none" stroke-linecap="round"></path><path d="M 260.400,155.000 C 260.400,154.500 260.400,154.500 260.400,154.000" stroke-width="16.168" stroke="rgb(33,33,33)" fill="none" stroke-linecap="round"></path><path d="M 260.400,154.000 C 260.400,154.000 260.400,154.000 260.400,154.000" stroke-width="16.848" stroke="rgb(33,33,33)" fill="none" stroke-linecap="round"></path><path d="M 260.400,154.000 C 259.400,154.000 259.400,154.000 258.400,154.000" stroke-width="17.332" stroke="rgb(33,33,33)" fill="none" stroke-linecap="round"></path><path d="M 258.400,154.000 C 257.900,154.000 257.900,154.000 257.400,154.000" stroke-width="17.652" stroke="rgb(33,33,33)" fill="none" stroke-linecap="round"></path><path d="M 257.400,154.000 C 256.900,154.000 256.567,153.667 256.400,154.000" stroke-width="17.971" stroke="rgb(33,33,33)" fill="none" stroke-linecap="round"></path><path d="M 256.400,154.000 C 256.067,154.667 256.400,155.000 256.400,156.000" stroke-width="17.586" stroke="rgb(33,33,33)" fill="none" stroke-linecap="round"></path><path d="M 256.400,156.000 C 256.400,159.500 256.400,159.500 256.400,163.000" stroke-width="15.623" stroke="rgb(33,33,33)" fill="none" stroke-linecap="round"></path><path d="M 256.400,163.000 C 256.400,165.000 256.978,165.123 256.400,167.000" stroke-width="15.147" stroke="rgb(33,33,33)" fill="none" stroke-linecap="round"></path><path d="M 256.400,167.000 C 254.978,171.623 253.643,171.339 252.400,176.000" stroke-width="13.605" stroke="rgb(33,33,33)" fill="none" stroke-linecap="round"></path><path d="M 252.400,176.000 C 251.643,178.839 253.203,179.190 252.400,182.000" stroke-width="13.143" stroke="rgb(33,33,33)" fill="none" stroke-linecap="round"></path><path d="M 252.400,182.000 C 251.203,186.190 250.519,186.065 248.400,190.000" stroke-width="12.227" stroke="rgb(33,33,33)" fill="none" stroke-linecap="round"></path><path d="M 248.400,190.000 C 247.019,192.565 246.304,192.288 245.400,195.000" stroke-width="12.120" stroke="rgb(33,33,33)" fill="none" stroke-linecap="round"></path><path d="M 245.400,195.000 C 244.304,198.288 244.719,198.487 244.400,202.000" stroke-width="11.956" stroke="rgb(33,33,33)" fill="none" stroke-linecap="round"></path><path d="M 244.400,202.000 C 244.219,203.987 245.114,204.216 244.400,206.000" stroke-width="11.994" stroke="rgb(33,33,33)" fill="none" stroke-linecap="round"></path><path d="M 244.400,206.000 C 243.114,209.216 241.812,208.822 240.400,212.000" stroke-width="11.836" stroke="rgb(33,33,33)" fill="none" stroke-linecap="round"></path><path d="M 240.400,212.000 C 239.812,213.322 240.400,213.500 240.400,215.000" stroke-width="12.240" stroke="rgb(33,33,33)" fill="none" stroke-linecap="round"></path><path d="M 240.400,215.000 C 240.400,216.500 240.400,216.500 240.400,218.000" stroke-width="12.668" stroke="rgb(33,33,33)" fill="none" stroke-linecap="round"></path><path d="M 240.400,218.000 C 240.400,220.000 240.400,220.000 240.400,222.000" stroke-width="12.826" stroke="rgb(33,33,33)" fill="none" stroke-linecap="round"></path><path d="M 240.400,222.000 C 240.400,222.500 240.400,222.500 240.400,223.000" stroke-width="13.634" stroke="rgb(33,33,33)" fill="none" stroke-linecap="round"></path><path d="M 240.400,223.000 C 240.400,223.500 240.400,223.500 240.400,224.000" stroke-width="14.293" stroke="rgb(33,33,33)" fill="none" stroke-linecap="round"></path><path d="M 240.400,224.000 C 240.400,225.000 240.400,225.000 240.400,226.000" stroke-width="14.637" stroke="rgb(33,33,33)" fill="none" stroke-linecap="round"></path><path d="M 240.400,226.000 C 240.400,226.000 240.400,226.000 240.400,226.000" stroke-width="15.496" stroke="rgb(33,33,33)" fill="none" stroke-linecap="round"></path><path d="M 240.400,226.000 C 241.400,225.000 241.659,225.186 242.400,224.000" stroke-width="16.161" stroke="rgb(33,33,33)" fill="none" stroke-linecap="round"></path><path d="M 242.400,224.000 C 244.159,221.186 243.681,220.865 245.400,218.000" stroke-width="14.439" stroke="rgb(33,33,33)" fill="none" stroke-linecap="round"></path><path d="M 245.400,218.000 C 246.681,215.865 247.382,216.239 248.400,214.000" stroke-width="14.786" stroke="rgb(33,33,33)" fill="none" stroke-linecap="round"></path><path d="M 248.400,214.000 C 249.882,210.739 249.400,210.500 250.400,207.000" stroke-width="13.467" stroke="rgb(33,33,33)" fill="none" stroke-linecap="round"></path><path d="M 250.400,207.000 C 251.400,203.500 250.893,203.265 252.400,200.000" stroke-width="12.942" stroke="rgb(33,33,33)" fill="none" stroke-linecap="round"></path><path d="M 252.400,200.000 C 253.893,196.765 255.000,197.266 256.400,194.000" stroke-width="12.408" stroke="rgb(33,33,33)" fill="none" stroke-linecap="round"></path><path d="M 256.400,194.000 C 258.000,190.266 257.268,189.962 258.400,186.000" stroke-width="11.830" stroke="rgb(33,33,33)" fill="none" stroke-linecap="round"></path><path d="M 258.400,186.000 C 259.268,182.962 259.570,183.045 260.400,180.000" stroke-width="11.571" stroke="rgb(33,33,33)" fill="none" stroke-linecap="round"></path><path d="M 260.400,180.000 C 261.070,177.545 260.783,177.469 261.400,175.000" stroke-width="11.722" stroke="rgb(33,33,33)" fill="none" stroke-linecap="round"></path><path d="M 261.400,175.000 C 261.783,173.469 262.179,173.545 262.400,172.000" stroke-width="12.255" stroke="rgb(33,33,33)" fill="none" stroke-linecap="round"></path><path d="M 262.400,172.000 C 262.679,170.045 262.400,170.000 262.400,168.000" stroke-width="12.486" stroke="rgb(33,33,33)" fill="none" stroke-linecap="round"></path><path d="M 262.400,168.000 C 262.400,167.000 262.160,166.961 262.400,166.000" stroke-width="13.086" stroke="rgb(33,33,33)" fill="none" stroke-linecap="round"></path><path d="M 262.400,166.000 C 263.160,162.961 263.537,163.022 264.400,160.000" stroke-width="12.510" stroke="rgb(33,33,33)" fill="none" stroke-linecap="round"></path><path d="M 264.400,160.000 C 264.537,159.522 264.400,159.500 264.400,159.000" stroke-width="13.347" stroke="rgb(33,33,33)" fill="none" stroke-linecap="round"></path><path d="M 264.400,159.000 C 264.400,157.500 264.400,157.500 264.400,156.000" stroke-width="13.602" stroke="rgb(33,33,33)" fill="none" stroke-linecap="round"></path><path d="M 264.400,156.000 C 264.400,155.500 264.400,155.500 264.400,155.000" stroke-width="14.301" stroke="rgb(33,33,33)" fill="none" stroke-linecap="round"></path><path d="M 264.400,155.000 C 264.400,154.500 264.400,154.500 264.400,154.000" stroke-width="14.914" stroke="rgb(33,33,33)" fill="none" stroke-linecap="round"></path><path d="M 264.400,154.000 C 266.400,157.000 267.385,156.702 268.400,160.000" stroke-width="16.132" stroke="rgb(33,33,33)" fill="none" stroke-linecap="round"></path><path d="M 268.400,160.000 C 269.385,163.202 268.111,163.529 268.400,167.000" stroke-width="14.086" stroke="rgb(33,33,33)" fill="none" stroke-linecap="round"></path><path d="M 268.400,167.000 C 268.611,169.529 268.653,169.571 269.400,172.000" stroke-width="13.064" stroke="rgb(33,33,33)" fill="none" stroke-linecap="round"></path><path d="M 269.400,172.000 C 270.653,176.071 271.306,175.896 272.400,180.000" stroke-width="13.145" stroke="rgb(33,33,33)" fill="none" stroke-linecap="round"></path><path d="M 272.400,180.000 C 273.306,183.396 273.149,183.482 273.400,187.000" stroke-width="12.584" stroke="rgb(33,33,33)" fill="none" stroke-linecap="round"></path><path d="M 273.400,187.000 C 273.649,190.482 272.634,190.681 273.400,194.000" stroke-width="12.181" stroke="rgb(33,33,33)" fill="none" stroke-linecap="round"></path><path d="M 273.400,194.000 C 274.134,197.181 275.608,196.833 276.400,200.000" stroke-width="11.929" stroke="rgb(33,33,33)" fill="none" stroke-linecap="round"></path><path d="M 276.400,200.000 C 277.108,202.833 275.432,203.339 276.400,206.000" stroke-width="11.855" stroke="rgb(33,33,33)" fill="none" stroke-linecap="round"></path><path d="M 276.400,206.000 C 277.432,208.839 279.038,208.276 280.400,211.000" stroke-width="11.729" stroke="rgb(33,33,33)" fill="none" stroke-linecap="round"></path><path d="M 280.400,211.000 C 281.038,212.276 279.999,212.595 280.400,214.000" stroke-width="12.226" stroke="rgb(33,33,33)" fill="none" stroke-linecap="round"></path><path d="M 280.400,214.000 C 280.999,216.095 281.175,216.162 282.400,218.000" stroke-width="12.372" stroke="rgb(33,33,33)" fill="none" stroke-linecap="round"></path><path d="M 282.400,218.000 C 283.175,219.162 283.915,218.787 284.400,220.000" stroke-width="12.815" stroke="rgb(33,33,33)" fill="none" stroke-linecap="round"></path><path d="M 284.400,220.000 C 284.915,221.287 283.827,221.854 284.400,223.000" stroke-width="13.157" stroke="rgb(33,33,33)" fill="none" stroke-linecap="round"></path><path d="M 284.400,223.000 C 284.827,223.854 285.517,223.338 286.400,224.000" stroke-width="13.616" stroke="rgb(33,33,33)" fill="none" stroke-linecap="round"></path><path d="M 286.400,224.000 C 287.517,224.838 287.400,225.000 288.400,226.000" stroke-width="13.770" stroke="rgb(33,33,33)" fill="none" stroke-linecap="round"></path><path d="M 288.400,226.000 C 288.900,226.000 288.900,226.000 289.400,226.000" stroke-width="16.145" stroke="rgb(33,33,33)" fill="none" stroke-linecap="round"></path><path d="M 289.400,226.000 C 290.900,226.000 291.396,226.803 292.400,226.000" stroke-width="15.944" stroke="rgb(33,33,33)" fill="none" stroke-linecap="round"></path><path d="M 292.400,226.000 C 293.896,224.803 293.175,223.838 294.400,222.000" stroke-width="15.250" stroke="rgb(33,33,33)" fill="none" stroke-linecap="round"></path><path d="M 294.400,222.000 C 295.175,220.838 295.625,221.162 296.400,220.000" stroke-width="15.191" stroke="rgb(33,33,33)" fill="none" stroke-linecap="round"></path><path d="M 296.400,220.000 C 297.625,218.162 297.572,218.071 298.400,216.000" stroke-width="14.693" stroke="rgb(33,33,33)" fill="none" stroke-linecap="round"></path><path d="M 298.400,216.000 C 299.572,213.071 299.400,213.000 300.400,210.000" stroke-width="13.863" stroke="rgb(33,33,33)" fill="none" stroke-linecap="round"></path><path d="M 300.400,210.000 C 301.400,207.000 301.400,207.000 302.400,204.000" stroke-width="13.419" stroke="rgb(33,33,33)" fill="none" stroke-linecap="round"></path><path d="M 302.400,204.000 C 303.900,199.500 303.508,199.325 305.400,195.000" stroke-width="12.066" stroke="rgb(33,33,33)" fill="none" stroke-linecap="round"></path><path d="M 305.400,195.000 C 307.008,191.325 307.875,191.704 309.400,188.000" stroke-width="11.761" stroke="rgb(33,33,33)" fill="none" stroke-linecap="round"></path><path d="M 309.400,188.000 C 311.375,183.204 310.515,182.847 312.400,178.000" stroke-width="10.796" stroke="rgb(33,33,33)" fill="none" stroke-linecap="round"></path><path d="M 312.400,178.000 C 314.015,173.847 315.278,174.207 316.400,170.000" stroke-width="10.524" stroke="rgb(33,33,33)" fill="none" stroke-linecap="round"></path><path d="M 316.400,170.000 C 317.278,166.707 315.968,166.453 316.400,163.000" stroke-width="10.578" stroke="rgb(33,33,33)" fill="none" stroke-linecap="round"></path><path d="M 316.400,163.000 C 316.968,158.453 317.214,158.448 318.400,154.000" stroke-width="10.321" stroke="rgb(33,33,33)" fill="none" stroke-linecap="round"></path><path d="M 318.400,154.000 C 319.214,150.948 319.842,151.072 320.400,148.000" stroke-width="10.505" stroke="rgb(33,33,33)" fill="none" stroke-linecap="round"></path><path d="M 320.400,148.000 C 320.842,145.572 320.400,145.500 320.400,143.000" stroke-width="10.845" stroke="rgb(33,33,33)" fill="none" stroke-linecap="round"></path><path d="M 320.400,143.000 C 320.400,141.000 320.400,141.000 320.400,139.000" stroke-width="11.289" stroke="rgb(33,33,33)" fill="none" stroke-linecap="round"></path><path d="M 320.400,139.000 C 320.400,137.000 320.400,137.000 320.400,135.000" stroke-width="11.672" stroke="rgb(33,33,33)" fill="none" stroke-linecap="round"></path><path d="M 320.400,135.000 C 320.400,133.500 320.400,133.500 320.400,132.000" stroke-width="12.177" stroke="rgb(33,33,33)" fill="none" stroke-linecap="round"></path><path d="M 320.400,132.000 C 320.400,131.000 320.400,131.000 320.400,130.000" stroke-width="12.756" stroke="rgb(33,33,33)" fill="none" stroke-linecap="round"></path><path d="M 320.400,130.000 C 320.400,129.000 320.107,128.879 320.400,128.000" stroke-width="13.371" stroke="rgb(33,33,33)" fill="none" stroke-linecap="round"></path><path d="M 320.400,128.000 C 320.607,127.379 320.900,127.500 321.400,127.000" stroke-width="13.946" stroke="rgb(33,33,33)" fill="none" stroke-linecap="round"></path><path d="M 314.400,196.000 C 314.400,197.000 314.400,197.000 314.400,198.000" stroke-width="16.875" stroke="rgb(33,33,33)" fill="none" stroke-linecap="round"></path><path d="M 314.400,198.000 C 314.400,198.500 314.183,198.566 314.400,199.000" stroke-width="17.271" stroke="rgb(33,33,33)" fill="none" stroke-linecap="round"></path><path d="M 314.400,199.000 C 315.183,200.566 315.617,200.434 316.400,202.000" stroke-width="15.135" stroke="rgb(33,33,33)" fill="none" stroke-linecap="round"></path><path d="M 316.400,202.000 C 316.617,202.434 316.400,202.500 316.400,203.000" stroke-width="15.821" stroke="rgb(33,33,33)" fill="none" stroke-linecap="round"></path><path d="M 316.400,203.000 C 316.400,203.500 316.400,203.500 316.400,204.000" stroke-width="16.168" stroke="rgb(33,33,33)" fill="none" stroke-linecap="round"></path><path d="M 316.400,204.000 C 316.400,205.500 316.400,205.500 316.400,207.000" stroke-width="15.962" stroke="rgb(33,33,33)" fill="none" stroke-linecap="round"></path><path d="M 316.400,207.000 C 316.400,207.500 316.400,207.500 316.400,208.000" stroke-width="16.285" stroke="rgb(33,33,33)" fill="none" stroke-linecap="round"></path><path d="M 316.400,208.000 C 316.400,210.000 316.400,210.000 316.400,212.000" stroke-width="15.775" stroke="rgb(33,33,33)" fill="none" stroke-linecap="round"></path><path d="M 316.400,212.000 C 316.400,213.000 316.400,213.000 316.400,214.000" stroke-width="15.770" stroke="rgb(33,33,33)" fill="none" stroke-linecap="round"></path><path d="M 316.400,214.000 C 316.400,214.500 316.400,214.500 316.400,215.000" stroke-width="16.206" stroke="rgb(33,33,33)" fill="none" stroke-linecap="round"></path><path d="M 316.400,215.000 C 316.400,215.500 316.400,215.500 316.400,216.000" stroke-width="16.488" stroke="rgb(33,33,33)" fill="none" stroke-linecap="round"></path><path d="M 316.400,216.000 C 316.400,217.000 316.400,217.000 316.400,218.000" stroke-width="16.429" stroke="rgb(33,33,33)" fill="none" stroke-linecap="round"></path><path d="M 316.400,218.000 C 316.400,218.500 316.193,218.586 316.400,219.000" stroke-width="16.791" stroke="rgb(33,33,33)" fill="none" stroke-linecap="round"></path><path d="M 316.400,219.000 C 316.693,219.586 317.013,219.419 317.400,220.000" stroke-width="16.708" stroke="rgb(33,33,33)" fill="none" stroke-linecap="round"></path><path d="M 317.400,220.000 C 318.013,220.919 317.608,221.472 318.400,222.000" stroke-width="16.608" stroke="rgb(33,33,33)" fill="none" stroke-linecap="round"></path><path d="M 318.400,222.000 C 319.108,222.472 319.733,221.667 320.400,222.000" stroke-width="16.869" stroke="rgb(33,33,33)" fill="none" stroke-linecap="round"></path><path d="M 320.400,222.000 C 320.733,222.167 320.150,222.750 320.400,223.000" stroke-width="17.084" stroke="rgb(33,33,33)" fill="none" stroke-linecap="round"></path><path d="M 320.400,223.000 C 320.650,223.250 320.900,223.000 321.400,223.000" stroke-width="17.260" stroke="rgb(33,33,33)" fill="none" stroke-linecap="round"></path><path d="M 321.400,223.000 C 321.900,223.000 321.900,223.000 322.400,223.000" stroke-width="17.403" stroke="rgb(33,33,33)" fill="none" stroke-linecap="round"></path><path d="M 322.400,223.000 C 323.400,223.000 323.400,223.000 324.400,223.000" stroke-width="17.045" stroke="rgb(33,33,33)" fill="none" stroke-linecap="round"></path><path d="M 324.400,223.000 C 326.400,223.000 326.400,223.000 328.400,223.000" stroke-width="16.340" stroke="rgb(33,33,33)" fill="none" stroke-linecap="round"></path><path d="M 328.400,223.000 C 328.900,223.000 328.936,223.174 329.400,223.000" stroke-width="16.598" stroke="rgb(33,33,33)" fill="none" stroke-linecap="round"></path><path d="M 329.400,223.000 C 332.936,221.674 333.805,222.271 336.400,220.000" stroke-width="15.053" stroke="rgb(33,33,33)" fill="none" stroke-linecap="round"></path><path d="M 336.400,220.000 C 337.805,218.771 336.496,217.808 337.400,216.000" stroke-width="14.682" stroke="rgb(33,33,33)" fill="none" stroke-linecap="round"></path><path d="M 337.400,216.000 C 338.496,213.808 338.967,214.047 340.400,212.000" stroke-width="14.001" stroke="rgb(33,33,33)" fill="none" stroke-linecap="round"></path><path d="M 340.400,212.000 C 342.467,209.047 342.988,209.178 344.400,206.000" stroke-width="13.346" stroke="rgb(33,33,33)" fill="none" stroke-linecap="round"></path><path d="M 344.400,206.000 C 344.988,204.678 344.400,204.500 344.400,203.000" stroke-width="13.504" stroke="rgb(33,33,33)" fill="none" stroke-linecap="round"></path><path d="M 344.400,203.000 C 344.400,201.000 344.121,200.955 344.400,199.000" stroke-width="13.604" stroke="rgb(33,33,33)" fill="none" stroke-linecap="round"></path><path d="M 344.400,199.000 C 344.621,197.455 345.179,197.545 345.400,196.000" stroke-width="13.672" stroke="rgb(33,33,33)" fill="none" stroke-linecap="round"></path><path d="M 345.400,196.000 C 345.679,194.045 345.400,194.000 345.400,192.000" stroke-width="13.637" stroke="rgb(33,33,33)" fill="none" stroke-linecap="round"></path><path d="M 345.400,192.000 C 345.400,192.000 345.400,192.000 345.400,192.000" stroke-width="14.590" stroke="rgb(33,33,33)" fill="none" stroke-linecap="round"></path><path d="M 345.400,192.000 C 345.400,191.000 345.400,191.000 345.400,190.000" stroke-width="14.947" stroke="rgb(33,33,33)" fill="none" stroke-linecap="round"></path><path d="M 345.400,190.000 C 345.400,189.000 345.563,188.980 345.400,188.000" stroke-width="15.182" stroke="rgb(33,33,33)" fill="none" stroke-linecap="round"></path><path d="M 345.400,188.000 C 345.063,185.980 344.802,186.012 344.400,184.000" stroke-width="14.622" stroke="rgb(33,33,33)" fill="none" stroke-linecap="round"></path><path d="M 344.400,184.000 C 344.302,183.512 344.733,183.333 344.400,183.000" stroke-width="15.224" stroke="rgb(33,33,33)" fill="none" stroke-linecap="round"></path><path d="M 344.400,183.000 C 342.733,181.333 342.587,180.938 340.400,180.000" stroke-width="14.393" stroke="rgb(33,33,33)" fill="none" stroke-linecap="round"></path><path d="M 340.400,180.000 C 339.087,179.438 338.874,180.211 337.400,180.000" stroke-width="14.545" stroke="rgb(33,33,33)" fill="none" stroke-linecap="round"></path><path d="M 337.400,180.000 C 335.374,179.711 335.262,179.745 333.400,179.000" stroke-width="14.145" stroke="rgb(33,33,33)" fill="none" stroke-linecap="round"></path><path d="M 333.400,179.000 C 332.762,178.745 333.053,178.131 332.400,178.000" stroke-width="14.667" stroke="rgb(33,33,33)" fill="none" stroke-linecap="round"></path><path d="M 332.400,178.000 C 330.553,177.631 330.400,178.000 328.400,178.000" stroke-width="14.418" stroke="rgb(33,33,33)" fill="none" stroke-linecap="round"></path><path d="M 328.400,178.000 C 328.400,178.000 328.400,178.000 328.400,178.000" stroke-width="15.299" stroke="rgb(33,33,33)" fill="none" stroke-linecap="round"></path><path d="M 328.400,178.000 C 326.900,178.000 326.900,178.000 325.400,178.000" stroke-width="15.181" stroke="rgb(33,33,33)" fill="none" stroke-linecap="round"></path><path d="M 325.400,178.000 C 324.900,178.000 324.888,177.902 324.400,178.000" stroke-width="15.706" stroke="rgb(33,33,33)" fill="none" stroke-linecap="round"></path><path d="M 324.400,178.000 C 322.388,178.402 322.400,178.500 320.400,179.000" stroke-width="15.008" stroke="rgb(33,33,33)" fill="none" stroke-linecap="round"></path><path d="M 320.400,179.000 C 320.400,179.000 320.400,179.000 320.400,179.000" stroke-width="15.828" stroke="rgb(33,33,33)" fill="none" stroke-linecap="round"></path><path d="M 320.400,179.000 C 320.400,180.500 320.915,180.713 320.400,182.000" stroke-width="15.595" stroke="rgb(33,33,33)" fill="none" stroke-linecap="round"></path><path d="M 320.400,182.000 C 319.915,183.213 319.508,183.261 318.400,184.000" stroke-width="15.464" stroke="rgb(33,33,33)" fill="none" stroke-linecap="round"></path><path d="M 318.400,184.000 C 318.008,184.261 317.595,183.610 317.400,184.000" stroke-width="15.975" stroke="rgb(33,33,33)" fill="none" stroke-linecap="round"></path><path d="M 317.400,184.000 C 316.595,185.610 316.654,185.970 316.400,188.000" stroke-width="14.983" stroke="rgb(33,33,33)" fill="none" stroke-linecap="round"></path><path d="M 316.400,188.000 C 316.154,189.970 316.400,190.000 316.400,192.000" stroke-width="14.661" stroke="rgb(33,33,33)" fill="none" stroke-linecap="round"></path><path d="M 316.400,192.000 C 316.400,193.000 316.400,193.000 316.400,194.000" stroke-width="14.945" stroke="rgb(33,33,33)" fill="none" stroke-linecap="round"></path><path d="M 316.400,194.000 C 316.400,195.000 316.400,195.000 316.400,196.000" stroke-width="15.180" stroke="rgb(33,33,33)" fill="none" stroke-linecap="round"></path><path d="M 316.400,196.000 C 316.400,197.000 316.400,197.000 316.400,198.000" stroke-width="15.374" stroke="rgb(33,33,33)" fill="none" stroke-linecap="round"></path><path d="M 316.400,198.000 C 316.400,199.000 316.400,199.000 316.400,200.000" stroke-width="15.532" stroke="rgb(33,33,33)" fill="none" stroke-linecap="round"></path><path d="M 316.400,200.000 C 316.400,201.000 316.400,201.000 316.400,202.000" stroke-width="15.661" stroke="rgb(33,33,33)" fill="none" stroke-linecap="round"></path><path d="M 316.400,202.000 C 316.400,202.500 316.400,202.500 316.400,203.000" stroke-width="16.079" stroke="rgb(33,33,33)" fill="none" stroke-linecap="round"></path><path d="M 316.400,203.000 C 316.400,204.500 316.060,204.641 316.400,206.000" stroke-width="16.265" stroke="rgb(33,33,33)" fill="none" stroke-linecap="round"></path><path d="M 316.400,206.000 C 316.560,206.641 317.107,206.414 317.400,207.000" stroke-width="16.445" stroke="rgb(33,33,33)" fill="none" stroke-linecap="round"></path><path d="M 317.400,207.000 C 317.607,207.414 317.025,207.875 317.400,208.000" stroke-width="16.773" stroke="rgb(33,33,33)" fill="none" stroke-linecap="round"></path><path d="M 317.400,208.000 C 318.525,208.375 318.900,208.000 320.400,208.000" stroke-width="16.180" stroke="rgb(33,33,33)" fill="none" stroke-linecap="round"></path><path d="M 320.400,208.000 C 320.900,208.000 320.900,208.000 321.400,208.000" stroke-width="16.551" stroke="rgb(33,33,33)" fill="none" stroke-linecap="round"></path><path d="M 321.400,208.000 C 322.900,208.000 322.900,208.000 324.400,208.000" stroke-width="16.014" stroke="rgb(33,33,33)" fill="none" stroke-linecap="round"></path><path d="M 324.400,208.000 C 326.400,208.000 326.400,208.000 328.400,208.000" stroke-width="15.439" stroke="rgb(33,33,33)" fill="none" stroke-linecap="round"></path><path d="M 328.400,208.000 C 328.400,208.000 328.400,208.000 328.400,208.000" stroke-width="16.209" stroke="rgb(33,33,33)" fill="none" stroke-linecap="round"></path><path d="M 328.400,208.000 C 330.400,207.000 330.447,207.085 332.400,206.000" stroke-width="15.444" stroke="rgb(33,33,33)" fill="none" stroke-linecap="round"></path><path d="M 332.400,206.000 C 334.947,204.585 335.247,204.884 337.400,203.000" stroke-width="14.519" stroke="rgb(33,33,33)" fill="none" stroke-linecap="round"></path><path d="M 337.400,203.000 C 339.247,201.384 338.650,200.750 340.400,199.000" stroke-width="14.191" stroke="rgb(33,33,33)" fill="none" stroke-linecap="round"></path><path d="M 340.400,199.000 C 342.150,197.250 342.289,197.320 344.400,196.000" stroke-width="13.642" stroke="rgb(33,33,33)" fill="none" stroke-linecap="round"></path><path d="M 344.400,196.000 C 346.289,194.820 346.400,195.000 348.400,194.000" stroke-width="13.506" stroke="rgb(33,33,33)" fill="none" stroke-linecap="round"></path><path d="M 348.400,194.000 C 350.400,193.000 350.634,193.325 352.400,192.000" stroke-width="13.511" stroke="rgb(33,33,33)" fill="none" stroke-linecap="round"></path><path d="M 352.400,192.000 C 354.634,190.325 354.700,190.124 356.400,188.000" stroke-width="13.145" stroke="rgb(33,33,33)" fill="none" stroke-linecap="round"></path><path d="M 356.400,188.000 C 356.700,187.624 356.091,187.309 356.400,187.000" stroke-width="13.895" stroke="rgb(33,33,33)" fill="none" stroke-linecap="round"></path><path d="M 356.400,187.000 C 357.091,186.309 357.517,186.662 358.400,186.000" stroke-width="14.242" stroke="rgb(33,33,33)" fill="none" stroke-linecap="round"></path><path d="M 358.400,186.000 C 359.517,185.162 359.814,185.172 360.400,184.000" stroke-width="14.278" stroke="rgb(33,33,33)" fill="none" stroke-linecap="round"></path><path d="M 360.400,184.000 C 360.814,183.172 360.164,182.944 360.400,182.000" stroke-width="14.684" stroke="rgb(33,33,33)" fill="none" stroke-linecap="round"></path><path d="M 360.400,182.000 C 360.664,180.944 361.055,181.036 361.400,180.000" stroke-width="14.812" stroke="rgb(33,33,33)" fill="none" stroke-linecap="round"></path><path d="M 361.400,180.000 C 361.555,179.536 361.400,179.500 361.400,179.000" stroke-width="15.388" stroke="rgb(33,33,33)" fill="none" stroke-linecap="round"></path><path d="M 361.400,179.000 C 361.400,178.500 361.400,178.500 361.400,178.000" stroke-width="15.804" stroke="rgb(33,33,33)" fill="none" stroke-linecap="round"></path><path d="M 361.400,178.000 C 361.400,178.000 361.400,178.000 361.400,178.000" stroke-width="16.530" stroke="rgb(33,33,33)" fill="none" stroke-linecap="round"></path><path d="M 361.400,178.000 C 361.900,177.000 362.221,175.641 362.400,176.000" stroke-width="16.763" stroke="rgb(33,33,33)" fill="none" stroke-linecap="round"></path><path d="M 362.400,176.000 C 362.721,176.641 362.646,178.030 362.400,180.000" stroke-width="17.135" stroke="rgb(33,33,33)" fill="none" stroke-linecap="round"></path><path d="M 362.400,180.000 C 362.146,182.030 361.900,182.000 361.400,184.000" stroke-width="17.034" stroke="rgb(33,33,33)" fill="none" stroke-linecap="round"></path><path d="M 361.400,184.000 C 360.900,186.000 360.689,185.974 360.400,188.000" stroke-width="16.147" stroke="rgb(33,33,33)" fill="none" stroke-linecap="round"></path><path d="M 360.400,188.000 C 360.189,189.474 360.824,189.587 360.400,191.000" stroke-width="15.945" stroke="rgb(33,33,33)" fill="none" stroke-linecap="round"></path><path d="M 360.400,191.000 C 359.324,194.587 358.946,194.521 357.400,198.000" stroke-width="14.126" stroke="rgb(33,33,33)" fill="none" stroke-linecap="round"></path><path d="M 357.400,198.000 C 356.946,199.021 356.579,198.924 356.400,200.000" stroke-width="14.500" stroke="rgb(33,33,33)" fill="none" stroke-linecap="round"></path><path d="M 356.400,200.000 C 356.079,201.924 356.400,202.000 356.400,204.000" stroke-width="14.288" stroke="rgb(33,33,33)" fill="none" stroke-linecap="round"></path><path d="M 356.400,204.000 C 356.400,206.000 356.400,206.000 356.400,208.000" stroke-width="14.123" stroke="rgb(33,33,33)" fill="none" stroke-linecap="round"></path><path d="M 356.400,208.000 C 356.400,209.000 356.400,209.000 356.400,210.000" stroke-width="14.421" stroke="rgb(33,33,33)" fill="none" stroke-linecap="round"></path><path d="M 356.400,210.000 C 356.400,211.000 356.400,211.000 356.400,212.000" stroke-width="14.745" stroke="rgb(33,33,33)" fill="none" stroke-linecap="round"></path><path d="M 356.400,212.000 C 356.400,213.000 356.400,213.000 356.400,214.000" stroke-width="15.077" stroke="rgb(33,33,33)" fill="none" stroke-linecap="round"></path><path d="M 356.400,214.000 C 356.400,215.000 356.400,215.000 356.400,216.000" stroke-width="15.583" stroke="rgb(33,33,33)" fill="none" stroke-linecap="round"></path><path d="M 356.400,216.000 C 356.400,217.000 356.067,217.333 356.400,218.000" stroke-width="16.013" stroke="rgb(33,33,33)" fill="none" stroke-linecap="round"></path><path d="M 356.400,218.000 C 356.567,218.333 356.900,218.000 357.400,218.000" stroke-width="16.375" stroke="rgb(33,33,33)" fill="none" stroke-linecap="round"></path><path d="M 357.400,218.000 C 357.400,218.000 357.400,218.000 357.400,218.000" stroke-width="17.026" stroke="rgb(33,33,33)" fill="none" stroke-linecap="round"></path><path d="M 357.400,218.000 C 357.900,218.500 357.779,218.793 358.400,219.000" stroke-width="17.062" stroke="rgb(33,33,33)" fill="none" stroke-linecap="round"></path><path d="M 358.400,219.000 C 359.279,219.293 359.400,219.000 360.400,219.000" stroke-width="16.883" stroke="rgb(33,33,33)" fill="none" stroke-linecap="round"></path><path d="M 360.400,219.000 C 361.400,219.000 361.400,219.000 362.400,219.000" stroke-width="16.741" stroke="rgb(33,33,33)" fill="none" stroke-linecap="round"></path><path d="M 362.400,219.000 C 363.400,219.000 363.400,219.000 364.400,219.000" stroke-width="16.707" stroke="rgb(33,33,33)" fill="none" stroke-linecap="round"></path><path d="M 364.400,219.000 C 366.400,219.000 366.400,219.000 368.400,219.000" stroke-width="15.771" stroke="rgb(33,33,33)" fill="none" stroke-linecap="round"></path><path d="M 368.400,219.000 C 370.400,219.000 370.400,219.000 372.400,219.000" stroke-width="15.258" stroke="rgb(33,33,33)" fill="none" stroke-linecap="round"></path><path d="M 372.400,219.000 C 372.400,219.000 372.400,219.000 372.400,219.000" stroke-width="16.049" stroke="rgb(33,33,33)" fill="none" stroke-linecap="round"></path><path d="M 372.400,219.000 C 374.400,217.500 374.289,217.320 376.400,216.000" stroke-width="15.335" stroke="rgb(33,33,33)" fill="none" stroke-linecap="round"></path><path d="M 376.400,216.000 C 378.289,214.820 379.341,215.695 380.400,214.000" stroke-width="14.800" stroke="rgb(33,33,33)" fill="none" stroke-linecap="round"></path><path d="M 380.400,214.000 C 381.841,211.695 380.302,210.744 381.400,208.000" stroke-width="13.998" stroke="rgb(33,33,33)" fill="none" stroke-linecap="round"></path><path d="M 381.400,208.000 C 382.302,205.744 383.498,206.256 384.400,204.000" stroke-width="13.790" stroke="rgb(33,33,33)" fill="none" stroke-linecap="round"></path><path d="M 384.400,204.000 C 385.498,201.256 384.669,200.925 385.400,198.000" stroke-width="13.077" stroke="rgb(33,33,33)" fill="none" stroke-linecap="round"></path><path d="M 385.400,198.000 C 385.669,196.925 386.008,197.045 386.400,196.000" stroke-width="13.548" stroke="rgb(33,33,33)" fill="none" stroke-linecap="round"></path><path d="M 386.400,196.000 C 387.508,193.045 387.640,193.039 388.400,190.000" stroke-width="12.845" stroke="rgb(33,33,33)" fill="none" stroke-linecap="round"></path><path d="M 388.400,190.000 C 388.640,189.039 388.400,189.000 388.400,188.000" stroke-width="13.450" stroke="rgb(33,33,33)" fill="none" stroke-linecap="round"></path><path d="M 388.400,188.000 C 388.400,187.000 388.400,187.000 388.400,186.000" stroke-width="13.854" stroke="rgb(33,33,33)" fill="none" stroke-linecap="round"></path><path d="M 388.400,186.000 C 388.400,185.000 388.400,185.000 388.400,184.000" stroke-width="14.267" stroke="rgb(33,33,33)" fill="none" stroke-linecap="round"></path><path d="M 388.400,184.000 C 388.400,183.000 388.400,182.333 388.400,182.000" stroke-width="14.885" stroke="rgb(33,33,33)" fill="none" stroke-linecap="round"></path><path d="M 388.400,182.000 C 388.400,181.833 388.400,182.500 388.400,183.000" stroke-width="15.688" stroke="rgb(33,33,33)" fill="none" stroke-linecap="round"></path><path d="M 388.400,183.000 C 388.400,185.000 388.400,185.000 388.400,187.000" stroke-width="14.135" stroke="rgb(33,33,33)" fill="none" stroke-linecap="round"></path><path d="M 388.400,187.000 C 388.400,188.500 388.400,188.500 388.400,190.000" stroke-width="14.745" stroke="rgb(33,33,33)" fill="none" stroke-linecap="round"></path><path d="M 388.400,190.000 C 388.400,192.000 388.400,192.000 388.400,194.000" stroke-width="14.478" stroke="rgb(33,33,33)" fill="none" stroke-linecap="round"></path><path d="M 388.400,194.000 C 388.400,195.000 388.400,195.000 388.400,196.000" stroke-width="14.853" stroke="rgb(33,33,33)" fill="none" stroke-linecap="round"></path><path d="M 388.400,196.000 C 388.400,198.000 389.128,198.302 388.400,200.000" stroke-width="14.413" stroke="rgb(33,33,33)" fill="none" stroke-linecap="round"></path><path d="M 388.400,200.000 C 387.628,201.802 386.279,201.243 385.400,203.000" stroke-width="14.278" stroke="rgb(33,33,33)" fill="none" stroke-linecap="round"></path><path d="M 385.400,203.000 C 384.779,204.243 385.400,204.500 385.400,206.000" stroke-width="14.115" stroke="rgb(33,33,33)" fill="none" stroke-linecap="round"></path><path d="M 385.400,206.000 C 385.400,207.000 385.594,207.031 385.400,208.000" stroke-width="14.546" stroke="rgb(33,33,33)" fill="none" stroke-linecap="round"></path><path d="M 385.400,208.000 C 385.094,209.531 384.780,209.481 384.400,211.000" stroke-width="14.632" stroke="rgb(33,33,33)" fill="none" stroke-linecap="round"></path><path d="M 384.400,211.000 C 384.280,211.481 384.400,211.500 384.400,212.000" stroke-width="15.201" stroke="rgb(33,33,33)" fill="none" stroke-linecap="round"></path><path d="M 384.400,212.000 C 384.400,213.000 384.400,213.000 384.400,214.000" stroke-width="15.390" stroke="rgb(33,33,33)" fill="none" stroke-linecap="round"></path><path d="M 384.400,214.000 C 384.400,214.000 384.400,214.000 384.400,214.000" stroke-width="16.166" stroke="rgb(33,33,33)" fill="none" stroke-linecap="round"></path><path d="M 384.400,214.000 C 384.400,215.000 384.400,215.000 384.400,216.000" stroke-width="16.173" stroke="rgb(33,33,33)" fill="none" stroke-linecap="round"></path><path d="M 384.400,216.000 C 384.400,216.000 384.400,216.000 384.400,216.000" stroke-width="16.852" stroke="rgb(33,33,33)" fill="none" stroke-linecap="round"></path><path d="M 384.400,216.000 C 384.400,217.000 384.067,217.333 384.400,218.000" stroke-width="16.794" stroke="rgb(33,33,33)" fill="none" stroke-linecap="round"></path><path d="M 384.400,218.000 C 384.567,218.333 384.900,218.000 385.400,218.000" stroke-width="17.259" stroke="rgb(33,33,33)" fill="none" stroke-linecap="round"></path><path d="M 385.400,218.000 C 385.900,218.000 385.900,218.000 386.400,218.000" stroke-width="17.402" stroke="rgb(33,33,33)" fill="none" stroke-linecap="round"></path><path d="M 386.400,218.000 C 387.400,218.000 387.400,218.000 388.400,218.000" stroke-width="17.229" stroke="rgb(33,33,33)" fill="none" stroke-linecap="round"></path><path d="M 388.400,218.000 C 390.400,218.000 390.643,218.586 392.400,218.000" stroke-width="16.141" stroke="rgb(33,33,33)" fill="none" stroke-linecap="round"></path><path d="M 392.400,218.000 C 393.643,217.586 393.497,217.084 394.400,216.000" stroke-width="15.989" stroke="rgb(33,33,33)" fill="none" stroke-linecap="round"></path><path d="M 394.400,216.000 C 395.997,214.084 395.758,213.877 397.400,212.000" stroke-width="15.132" stroke="rgb(33,33,33)" fill="none" stroke-linecap="round"></path><path d="M 397.400,212.000 C 399.258,209.877 399.642,210.198 401.400,208.000" stroke-width="14.139" stroke="rgb(33,33,33)" fill="none" stroke-linecap="round"></path><path d="M 401.400,208.000 C 403.642,205.198 403.240,204.880 405.400,202.000" stroke-width="13.270" stroke="rgb(33,33,33)" fill="none" stroke-linecap="round"></path><path d="M 405.400,202.000 C 407.740,198.880 407.831,198.937 410.400,196.000" stroke-width="12.530" stroke="rgb(33,33,33)" fill="none" stroke-linecap="round"></path><path d="M 410.400,196.000 C 411.331,194.937 411.621,195.169 412.400,194.000" stroke-width="13.016" stroke="rgb(33,33,33)" fill="none" stroke-linecap="round"></path><path d="M 412.400,194.000 C 414.621,190.669 414.942,190.644 416.400,187.000" stroke-width="12.302" stroke="rgb(33,33,33)" fill="none" stroke-linecap="round"></path><path d="M 416.400,187.000 C 416.942,185.644 415.885,185.287 416.400,184.000" stroke-width="12.721" stroke="rgb(33,33,33)" fill="none" stroke-linecap="round"></path><path d="M 416.400,184.000 C 416.885,182.787 417.400,183.000 418.400,182.000" stroke-width="13.028" stroke="rgb(33,33,33)" fill="none" stroke-linecap="round"></path><path d="M 418.400,182.000 C 419.400,181.000 419.986,181.243 420.400,180.000" stroke-width="13.374" stroke="rgb(33,33,33)" fill="none" stroke-linecap="round"></path><path d="M 420.400,180.000 C 420.986,178.243 420.400,178.000 420.400,176.000" stroke-width="13.498" stroke="rgb(33,33,33)" fill="none" stroke-linecap="round"></path><path d="M 420.400,176.000 C 420.400,176.000 420.400,176.000 420.400,176.000" stroke-width="14.462" stroke="rgb(33,33,33)" fill="none" stroke-linecap="round"></path><path d="M 420.400,176.000 C 420.400,175.500 420.400,175.500 420.400,175.000" stroke-width="15.054" stroke="rgb(33,33,33)" fill="none" stroke-linecap="round"></path><path d="M 420.400,175.000 C 420.400,174.500 420.400,174.500 420.400,174.000" stroke-width="15.597" stroke="rgb(33,33,33)" fill="none" stroke-linecap="round"></path><path d="M 420.400,174.000 C 420.400,173.000 420.400,171.667 420.400,172.000" stroke-width="16.004" stroke="rgb(33,33,33)" fill="none" stroke-linecap="round"></path><path d="M 420.400,172.000 C 420.400,172.667 420.400,174.000 420.400,176.000" stroke-width="16.519" stroke="rgb(33,33,33)" fill="none" stroke-linecap="round"></path><path d="M 420.400,176.000 C 420.400,179.000 420.400,179.000 420.400,182.000" stroke-width="16.360" stroke="rgb(33,33,33)" fill="none" stroke-linecap="round"></path><path d="M 420.400,182.000 C 420.400,184.000 420.400,184.000 420.400,186.000" stroke-width="15.831" stroke="rgb(33,33,33)" fill="none" stroke-linecap="round"></path><path d="M 420.400,186.000 C 420.400,188.500 420.400,188.500 420.400,191.000" stroke-width="14.823" stroke="rgb(33,33,33)" fill="none" stroke-linecap="round"></path><path d="M 420.400,191.000 C 420.400,193.500 420.400,193.500 420.400,196.000" stroke-width="14.104" stroke="rgb(33,33,33)" fill="none" stroke-linecap="round"></path><path d="M 420.400,196.000 C 420.400,198.000 420.400,198.000 420.400,200.000" stroke-width="14.087" stroke="rgb(33,33,33)" fill="none" stroke-linecap="round"></path><path d="M 420.400,200.000 C 420.400,203.000 420.400,203.000 420.400,206.000" stroke-width="13.310" stroke="rgb(33,33,33)" fill="none" stroke-linecap="round"></path><path d="M 420.400,206.000 C 420.400,208.000 420.400,208.000 420.400,210.000" stroke-width="13.347" stroke="rgb(33,33,33)" fill="none" stroke-linecap="round"></path><path d="M 420.400,210.000 C 420.400,212.000 420.400,212.000 420.400,214.000" stroke-width="13.477" stroke="rgb(33,33,33)" fill="none" stroke-linecap="round"></path><path d="M 420.400,214.000 C 420.400,215.000 420.709,215.073 420.400,216.000" stroke-width="13.945" stroke="rgb(33,33,33)" fill="none" stroke-linecap="round"></path><path d="M 420.400,216.000 C 419.709,218.073 419.091,217.927 418.400,220.000" stroke-width="13.596" stroke="rgb(33,33,33)" fill="none" stroke-linecap="round"></path><path d="M 418.400,220.000 C 418.091,220.927 418.400,221.000 418.400,222.000" stroke-width="14.102" stroke="rgb(33,33,33)" fill="none" stroke-linecap="round"></path><path d="M 418.400,222.000 C 418.400,222.500 418.400,222.500 418.400,223.000" stroke-width="14.702" stroke="rgb(33,33,33)" fill="none" stroke-linecap="round"></path><path d="M 418.400,223.000 C 418.400,223.500 418.400,223.500 418.400,224.000" stroke-width="15.293" stroke="rgb(33,33,33)" fill="none" stroke-linecap="round"></path><path d="M 418.400,224.000 C 418.400,225.000 417.986,226.000 418.400,226.000" stroke-width="15.990" stroke="rgb(33,33,33)" fill="none" stroke-linecap="round"></path><path d="M 418.400,226.000 C 418.986,226.000 419.400,225.000 420.400,224.000" stroke-width="16.246" stroke="rgb(33,33,33)" fill="none" stroke-linecap="round"></path><path d="M 420.400,224.000 C 422.400,222.000 422.642,222.198 424.400,220.000" stroke-width="15.128" stroke="rgb(33,33,33)" fill="none" stroke-linecap="round"></path><path d="M 424.400,220.000 C 426.642,217.198 426.400,217.000 428.400,214.000" stroke-width="13.711" stroke="rgb(33,33,33)" fill="none" stroke-linecap="round"></path><path d="M 428.400,214.000 C 430.400,211.000 430.615,211.125 432.400,208.000" stroke-width="12.966" stroke="rgb(33,33,33)" fill="none" stroke-linecap="round"></path><path d="M 432.400,208.000 C 434.615,204.125 433.950,203.675 436.400,200.000" stroke-width="12.104" stroke="rgb(33,33,33)" fill="none" stroke-linecap="round"></path><path d="M 436.400,200.000 C 437.950,197.675 438.642,198.198 440.400,196.000" stroke-width="12.168" stroke="rgb(33,33,33)" fill="none" stroke-linecap="round"></path><path d="M 440.400,196.000 C 442.642,193.198 442.802,193.196 444.400,190.000" stroke-width="11.656" stroke="rgb(33,33,33)" fill="none" stroke-linecap="round"></path><path d="M 444.400,190.000 C 445.802,187.196 445.018,186.764 446.400,184.000" stroke-width="11.585" stroke="rgb(33,33,33)" fill="none" stroke-linecap="round"></path><path d="M 446.400,184.000 C 447.018,182.764 447.625,183.162 448.400,182.000" stroke-width="12.132" stroke="rgb(33,33,33)" fill="none" stroke-linecap="round"></path><path d="M 448.400,182.000 C 449.625,180.162 449.293,179.938 450.400,178.000" stroke-width="12.388" stroke="rgb(33,33,33)" fill="none" stroke-linecap="round"></path><path d="M 450.400,178.000 C 451.293,176.438 451.617,176.566 452.400,175.000" stroke-width="12.572" stroke="rgb(33,33,33)" fill="none" stroke-linecap="round"></path><path d="M 452.400,175.000 C 452.617,174.566 452.400,174.500 452.400,174.000" stroke-width="13.403" stroke="rgb(33,33,33)" fill="none" stroke-linecap="round"></path><path d="M 452.400,174.000 C 452.400,173.000 452.107,172.879 452.400,172.000" stroke-width="13.883" stroke="rgb(33,33,33)" fill="none" stroke-linecap="round"></path><path d="M 452.400,172.000 C 452.607,171.379 452.900,171.500 453.400,171.000" stroke-width="14.441" stroke="rgb(33,33,33)" fill="none" stroke-linecap="round"></path><path d="M 453.400,171.000 C 453.900,170.500 454.193,169.793 454.400,170.000" stroke-width="15.104" stroke="rgb(33,33,33)" fill="none" stroke-linecap="round"></path><path d="M 454.400,170.000 C 454.693,170.293 454.400,171.000 454.400,172.000" stroke-width="15.846" stroke="rgb(33,33,33)" fill="none" stroke-linecap="round"></path><path d="M 454.400,172.000 C 454.400,174.000 454.400,174.000 454.400,176.000" stroke-width="16.088" stroke="rgb(33,33,33)" fill="none" stroke-linecap="round"></path><path d="M 454.400,176.000 C 454.400,178.000 454.400,178.000 454.400,180.000" stroke-width="15.494" stroke="rgb(33,33,33)" fill="none" stroke-linecap="round"></path><path d="M 454.400,180.000 C 454.400,182.000 454.400,182.000 454.400,184.000" stroke-width="15.049" stroke="rgb(33,33,33)" fill="none" stroke-linecap="round"></path><path d="M 454.400,184.000 C 454.400,185.500 454.400,185.500 454.400,187.000" stroke-width="14.984" stroke="rgb(33,33,33)" fill="none" stroke-linecap="round"></path><path d="M 454.400,187.000 C 454.400,189.000 454.400,189.000 454.400,191.000" stroke-width="14.661" stroke="rgb(33,33,33)" fill="none" stroke-linecap="round"></path><path d="M 454.400,191.000 C 454.400,192.500 454.400,192.500 454.400,194.000" stroke-width="14.675" stroke="rgb(33,33,33)" fill="none" stroke-linecap="round"></path><path d="M 454.400,194.000 C 454.400,196.000 454.400,196.000 454.400,198.000" stroke-width="14.424" stroke="rgb(33,33,33)" fill="none" stroke-linecap="round"></path><path d="M 454.400,198.000 C 454.400,198.500 454.400,198.500 454.400,199.000" stroke-width="15.020" stroke="rgb(33,33,33)" fill="none" stroke-linecap="round"></path><path d="M 454.400,199.000 C 454.400,200.500 454.400,200.500 454.400,202.000" stroke-width="15.054" stroke="rgb(33,33,33)" fill="none" stroke-linecap="round"></path><path d="M 454.400,202.000 C 454.400,203.000 454.400,203.000 454.400,204.000" stroke-width="15.188" stroke="rgb(33,33,33)" fill="none" stroke-linecap="round"></path><path d="M 454.400,204.000 C 454.400,205.000 454.400,205.000 454.400,206.000" stroke-width="15.678" stroke="rgb(33,33,33)" fill="none" stroke-linecap="round"></path><path d="M 454.400,206.000 C 454.400,206.500 454.400,206.500 454.400,207.000" stroke-width="16.129" stroke="rgb(33,33,33)" fill="none" stroke-linecap="round"></path><path d="M 454.400,207.000 C 454.400,207.500 454.067,207.833 454.400,208.000" stroke-width="16.423" stroke="rgb(33,33,33)" fill="none" stroke-linecap="round"></path><path d="M 454.400,208.000 C 455.067,208.333 455.900,207.500 456.400,208.000" stroke-width="16.378" stroke="rgb(33,33,33)" fill="none" stroke-linecap="round"></path><path d="M 456.400,208.000 C 456.900,208.500 456.400,209.000 456.400,210.000" stroke-width="16.679" stroke="rgb(33,33,33)" fill="none" stroke-linecap="round"></path><path d="M 456.400,210.000 C 456.400,210.500 456.193,210.586 456.400,211.000" stroke-width="16.927" stroke="rgb(33,33,33)" fill="none" stroke-linecap="round"></path><path d="M 456.400,211.000 C 456.693,211.586 456.759,211.840 457.400,212.000" stroke-width="16.911" stroke="rgb(33,33,33)" fill="none" stroke-linecap="round"></path><path d="M 457.400,212.000 C 458.759,212.340 458.900,212.000 460.400,212.000" stroke-width="16.970" stroke="rgb(33,33,33)" fill="none" stroke-linecap="round"></path><path d="M 460.400,212.000 C 460.400,212.000 460.400,212.000 460.400,212.000" stroke-width="17.539" stroke="rgb(33,33,33)" fill="none" stroke-linecap="round"></path><path d="M 460.400,212.000 C 462.400,212.000 462.400,212.000 464.400,212.000" stroke-width="16.357" stroke="rgb(33,33,33)" fill="none" stroke-linecap="round"></path><path d="M 464.400,212.000 C 464.900,212.000 464.900,212.000 465.400,212.000" stroke-width="16.700" stroke="rgb(33,33,33)" fill="none" stroke-linecap="round"></path><path d="M 465.400,212.000 C 466.900,212.000 466.900,212.000 468.400,212.000" stroke-width="16.264" stroke="rgb(33,33,33)" fill="none" stroke-linecap="round"></path><path d="M 468.400,212.000 C 470.400,212.000 470.400,212.000 472.400,212.000" stroke-width="15.624" stroke="rgb(33,33,33)" fill="none" stroke-linecap="round"></path><path d="M 472.400,212.000 C 474.400,212.000 474.511,212.472 476.400,212.000" stroke-width="15.148" stroke="rgb(33,33,33)" fill="none" stroke-linecap="round"></path><path d="M 476.400,212.000 C 478.511,211.472 478.327,210.691 480.400,210.000" stroke-width="14.660" stroke="rgb(33,33,33)" fill="none" stroke-linecap="round"></path><path d="M 480.400,210.000 C 481.327,209.691 481.531,210.434 482.400,210.000" stroke-width="14.944" stroke="rgb(33,33,33)" fill="none" stroke-linecap="round"></path><path d="M 482.400,210.000 C 485.531,208.434 486.051,208.349 488.400,206.000" stroke-width="13.829" stroke="rgb(33,33,33)" fill="none" stroke-linecap="round"></path><path d="M 488.400,206.000 C 489.051,205.349 487.782,204.618 488.400,204.000" stroke-width="14.246" stroke="rgb(33,33,33)" fill="none" stroke-linecap="round"></path><path d="M 488.400,204.000 C 489.782,202.618 491.018,203.382 492.400,202.000" stroke-width="13.976" stroke="rgb(33,33,33)" fill="none" stroke-linecap="round"></path><path d="M 492.400,202.000 C 493.018,201.382 492.067,200.667 492.400,200.000" stroke-width="14.370" stroke="rgb(33,33,33)" fill="none" stroke-linecap="round"></path><path d="M 492.400,200.000 C 492.567,199.667 493.091,200.309 493.400,200.000" stroke-width="15.030" stroke="rgb(33,33,33)" fill="none" stroke-linecap="round"></path><path d="M 493.400,200.000 C 494.091,199.309 493.826,198.957 494.400,198.000" stroke-width="14.973" stroke="rgb(33,33,33)" fill="none" stroke-linecap="round"></path><path d="M 494.400,198.000 C 495.326,196.457 495.617,196.566 496.400,195.000" stroke-width="14.759" stroke="rgb(33,33,33)" fill="none" stroke-linecap="round"></path><path d="M 496.400,195.000 C 496.617,194.566 496.400,194.500 496.400,194.000" stroke-width="15.310" stroke="rgb(33,33,33)" fill="none" stroke-linecap="round"></path><path d="M 496.400,194.000 C 496.400,192.500 496.157,192.460 496.400,191.000" stroke-width="15.190" stroke="rgb(33,33,33)" fill="none" stroke-linecap="round"></path><path d="M 496.400,191.000 C 496.657,189.460 496.465,189.168 497.400,188.000" stroke-width="15.050" stroke="rgb(33,33,33)" fill="none" stroke-linecap="round"></path><path d="M 497.400,188.000 C 498.465,186.668 499.435,187.286 500.400,186.000" stroke-width="14.927" stroke="rgb(33,33,33)" fill="none" stroke-linecap="round"></path><path d="M 500.400,186.000 C 500.935,185.286 500.164,184.944 500.400,184.000" stroke-width="15.085" stroke="rgb(33,33,33)" fill="none" stroke-linecap="round"></path><path d="M 500.400,184.000 C 500.664,182.944 500.634,182.766 501.400,182.000" stroke-width="15.228" stroke="rgb(33,33,33)" fill="none" stroke-linecap="round"></path><path d="M 501.400,182.000 C 502.634,180.766 503.435,181.286 504.400,180.000" stroke-width="14.956" stroke="rgb(33,33,33)" fill="none" stroke-linecap="round"></path><path d="M 504.400,180.000 C 504.935,179.286 504.400,179.000 504.400,178.000" stroke-width="15.189" stroke="rgb(33,33,33)" fill="none" stroke-linecap="round"></path><path d="M 504.400,178.000 C 504.400,177.000 504.400,177.000 504.400,176.000" stroke-width="15.381" stroke="rgb(33,33,33)" fill="none" stroke-linecap="round"></path><path d="M 504.400,176.000 C 504.400,176.000 504.400,176.000 504.400,176.000" stroke-width="16.158" stroke="rgb(33,33,33)" fill="none" stroke-linecap="round"></path><path d="M 504.400,176.000 C 504.400,175.000 504.400,175.000 504.400,174.000" stroke-width="16.166" stroke="rgb(33,33,33)" fill="none" stroke-linecap="round"></path><path d="M 504.400,174.000 C 504.400,173.000 504.400,173.000 504.400,172.000" stroke-width="16.173" stroke="rgb(33,33,33)" fill="none" stroke-linecap="round"></path><path d="M 504.400,172.000 C 504.400,172.000 504.400,172.000 504.400,172.000" stroke-width="16.852" stroke="rgb(33,33,33)" fill="none" stroke-linecap="round"></path><path d="M 504.400,172.000 C 504.400,171.000 504.400,171.000 504.400,170.000" stroke-width="16.717" stroke="rgb(33,33,33)" fill="none" stroke-linecap="round"></path><path d="M 504.400,170.000 C 504.400,170.000 504.400,170.000 504.400,170.000" stroke-width="17.322" stroke="rgb(33,33,33)" fill="none" stroke-linecap="round"></path><path d="M 504.400,170.000 C 504.400,169.000 504.400,169.000 504.400,168.000" stroke-width="17.085" stroke="rgb(33,33,33)" fill="none" stroke-linecap="round"></path><path d="M 504.400,168.000 C 504.400,168.000 504.400,168.000 504.400,168.000" stroke-width="17.636" stroke="rgb(33,33,33)" fill="none" stroke-linecap="round"></path><path d="M 504.400,168.000 C 504.400,167.000 504.400,167.000 504.400,166.000" stroke-width="17.412" stroke="rgb(33,33,33)" fill="none" stroke-linecap="round"></path><path d="M 504.400,166.000 C 504.400,165.000 504.400,165.000 504.400,164.000" stroke-width="17.052" stroke="rgb(33,33,33)" fill="none" stroke-linecap="round"></path><path d="M 504.400,164.000 C 504.400,164.000 504.400,164.000 504.400,164.000" stroke-width="17.608" stroke="rgb(33,33,33)" fill="none" stroke-linecap="round"></path><path d="M 504.400,164.000 C 502.900,164.000 502.900,164.000 501.400,164.000" stroke-width="16.945" stroke="rgb(33,33,33)" fill="none" stroke-linecap="round"></path><path d="M 501.400,164.000 C 500.900,164.000 500.900,164.000 500.400,164.000" stroke-width="17.146" stroke="rgb(33,33,33)" fill="none" stroke-linecap="round"></path><path d="M 500.400,164.000 C 498.900,164.000 498.762,163.546 497.400,164.000" stroke-width="16.601" stroke="rgb(33,33,33)" fill="none" stroke-linecap="round"></path><path d="M 497.400,164.000 C 495.762,164.546 495.801,164.879 494.400,166.000" stroke-width="15.995" stroke="rgb(33,33,33)" fill="none" stroke-linecap="round"></path><path d="M 494.400,166.000 C 493.301,166.879 493.499,167.121 492.400,168.000" stroke-width="15.777" stroke="rgb(33,33,33)" fill="none" stroke-linecap="round"></path><path d="M 492.400,168.000 C 490.999,169.121 490.333,168.600 489.400,170.000" stroke-width="15.377" stroke="rgb(33,33,33)" fill="none" stroke-linecap="round"></path><path d="M 489.400,170.000 C 488.333,171.600 489.309,172.181 488.400,174.000" stroke-width="14.927" stroke="rgb(33,33,33)" fill="none" stroke-linecap="round"></path><path d="M 488.400,174.000 C 486.809,177.181 485.492,176.725 484.400,180.000" stroke-width="13.817" stroke="rgb(33,33,33)" fill="none" stroke-linecap="round"></path><path d="M 484.400,180.000 C 483.492,182.725 485.367,183.339 484.400,186.000" stroke-width="13.301" stroke="rgb(33,33,33)" fill="none" stroke-linecap="round"></path><path d="M 484.400,186.000 C 483.367,188.839 482.030,188.284 480.400,191.000" stroke-width="12.832" stroke="rgb(33,33,33)" fill="none" stroke-linecap="round"></path><path d="M 480.400,191.000 C 479.030,193.284 479.104,193.417 478.400,196.000" stroke-width="12.679" stroke="rgb(33,33,33)" fill="none" stroke-linecap="round"></path><path d="M 478.400,196.000 C 477.604,198.917 477.944,199.008 477.400,202.000" stroke-width="12.425" stroke="rgb(33,33,33)" fill="none" stroke-linecap="round"></path><path d="M 477.400,202.000 C 476.944,204.508 476.652,204.475 476.400,207.000" stroke-width="12.414" stroke="rgb(33,33,33)" fill="none" stroke-linecap="round"></path><path d="M 476.400,207.000 C 476.152,209.475 476.400,209.500 476.400,212.000" stroke-width="12.289" stroke="rgb(33,33,33)" fill="none" stroke-linecap="round"></path><path d="M 476.400,212.000 C 476.400,213.500 476.400,213.500 476.400,215.000" stroke-width="12.776" stroke="rgb(33,33,33)" fill="none" stroke-linecap="round"></path><path d="M 476.400,215.000 C 476.400,216.500 476.400,216.500 476.400,218.000" stroke-width="13.124" stroke="rgb(33,33,33)" fill="none" stroke-linecap="round"></path><path d="M 476.400,218.000 C 476.400,218.000 476.400,218.000 476.400,218.000" stroke-width="14.118" stroke="rgb(33,33,33)" fill="none" stroke-linecap="round"></path><path d="M 476.400,218.000 C 476.400,219.000 476.400,219.000 476.400,220.000" stroke-width="14.490" stroke="rgb(33,33,33)" fill="none" stroke-linecap="round"></path><path d="M 476.400,220.000 C 476.400,221.000 476.400,221.000 476.400,222.000" stroke-width="15.078" stroke="rgb(33,33,33)" fill="none" stroke-linecap="round"></path><path d="M 476.400,222.000 C 476.400,222.000 476.400,222.000 476.400,222.000" stroke-width="15.890" stroke="rgb(33,33,33)" fill="none" stroke-linecap="round"></path><path d="M 476.400,222.000 C 477.400,222.000 477.400,222.000 478.400,222.000" stroke-width="16.470" stroke="rgb(33,33,33)" fill="none" stroke-linecap="round"></path><path d="M 478.400,222.000 C 479.900,222.000 480.038,222.454 481.400,222.000" stroke-width="16.089" stroke="rgb(33,33,33)" fill="none" stroke-linecap="round"></path><path d="M 481.400,222.000 C 483.038,221.454 483.038,221.168 484.400,220.000" stroke-width="15.613" stroke="rgb(33,33,33)" fill="none" stroke-linecap="round"></path><path d="M 484.400,220.000 C 486.538,218.168 486.400,218.000 488.400,216.000" stroke-width="14.684" stroke="rgb(33,33,33)" fill="none" stroke-linecap="round"></path><path d="M 488.400,216.000 C 490.900,213.500 490.900,213.500 493.400,211.000" stroke-width="13.866" stroke="rgb(33,33,33)" fill="none" stroke-linecap="round"></path><path d="M 493.400,211.000 C 495.900,208.500 496.297,208.804 498.400,206.000" stroke-width="12.895" stroke="rgb(33,33,33)" fill="none" stroke-linecap="round"></path><path d="M 498.400,206.000 C 500.797,202.804 500.369,202.482 502.400,199.000" stroke-width="12.215" stroke="rgb(33,33,33)" fill="none" stroke-linecap="round"></path><path d="M 502.400,199.000 C 503.869,196.482 503.785,196.423 505.400,194.000" stroke-width="12.111" stroke="rgb(33,33,33)" fill="none" stroke-linecap="round"></path><path d="M 505.400,194.000 C 506.785,191.923 507.462,192.188 508.400,190.000" stroke-width="12.050" stroke="rgb(33,33,33)" fill="none" stroke-linecap="round"></path><path d="M 508.400,190.000 C 508.962,188.688 508.400,188.500 508.400,187.000" stroke-width="12.569" stroke="rgb(33,33,33)" fill="none" stroke-linecap="round"></path><path d="M 508.400,187.000 C 508.400,185.500 508.400,185.500 508.400,184.000" stroke-width="12.949" stroke="rgb(33,33,33)" fill="none" stroke-linecap="round"></path><path d="M 508.400,184.000 C 508.400,183.000 508.400,183.000 508.400,182.000" stroke-width="13.490" stroke="rgb(33,33,33)" fill="none" stroke-linecap="round"></path><path d="M 508.400,182.000 C 508.400,181.000 508.400,181.000 508.400,180.000" stroke-width="13.889" stroke="rgb(33,33,33)" fill="none" stroke-linecap="round"></path><path d="M 508.400,180.000 C 508.400,179.000 508.400,177.667 508.400,178.000" stroke-width="14.353" stroke="rgb(33,33,33)" fill="none" stroke-linecap="round"></path><path d="M 508.400,178.000 C 508.400,178.667 508.400,180.000 508.400,182.000" stroke-width="15.156" stroke="rgb(33,33,33)" fill="none" stroke-linecap="round"></path><path d="M 508.400,182.000 C 508.400,183.000 508.400,183.000 508.400,184.000" stroke-width="15.711" stroke="rgb(33,33,33)" fill="none" stroke-linecap="round"></path><path d="M 508.400,184.000 C 508.400,186.000 508.400,186.000 508.400,188.000" stroke-width="15.213" stroke="rgb(33,33,33)" fill="none" stroke-linecap="round"></path><path d="M 508.400,188.000 C 508.400,190.000 508.400,190.000 508.400,192.000" stroke-width="14.958" stroke="rgb(33,33,33)" fill="none" stroke-linecap="round"></path><path d="M 508.400,192.000 C 508.400,194.000 508.400,194.000 508.400,196.000" stroke-width="14.492" stroke="rgb(33,33,33)" fill="none" stroke-linecap="round"></path><path d="M 508.400,196.000 C 508.400,198.000 508.400,198.000 508.400,200.000" stroke-width="14.282" stroke="rgb(33,33,33)" fill="none" stroke-linecap="round"></path><path d="M 508.400,200.000 C 508.400,201.500 508.400,201.500 508.400,203.000" stroke-width="14.369" stroke="rgb(33,33,33)" fill="none" stroke-linecap="round"></path><path d="M 508.400,203.000 C 508.400,203.500 508.400,203.500 508.400,204.000" stroke-width="14.973" stroke="rgb(33,33,33)" fill="none" stroke-linecap="round"></path><path d="M 508.400,204.000 C 508.400,205.000 508.400,205.000 508.400,206.000" stroke-width="15.203" stroke="rgb(33,33,33)" fill="none" stroke-linecap="round"></path><path d="M 508.400,206.000 C 508.400,206.500 508.400,206.500 508.400,207.000" stroke-width="15.691" stroke="rgb(33,33,33)" fill="none" stroke-linecap="round"></path><path d="M 508.400,207.000 C 508.400,207.500 508.400,207.500 508.400,208.000" stroke-width="16.104" stroke="rgb(33,33,33)" fill="none" stroke-linecap="round"></path><path d="M 508.400,208.000 C 508.400,209.000 508.400,209.000 508.400,210.000" stroke-width="16.123" stroke="rgb(33,33,33)" fill="none" stroke-linecap="round"></path><path d="M 508.400,210.000 C 508.400,210.000 508.400,210.000 508.400,210.000" stroke-width="16.808" stroke="rgb(33,33,33)" fill="none" stroke-linecap="round"></path><path d="M 508.400,210.000 C 509.400,210.000 509.616,210.522 510.400,210.000" stroke-width="14.848" stroke="rgb(33,33,33)" fill="none" stroke-linecap="round"></path><path d="M 510.400,210.000 C 512.616,208.522 513.093,208.287 514.400,206.000" stroke-width="15.057" stroke="rgb(33,33,33)" fill="none" stroke-linecap="round"></path><path d="M 514.400,206.000 C 515.093,204.787 513.567,204.110 514.400,203.000" stroke-width="14.872" stroke="rgb(33,33,33)" fill="none" stroke-linecap="round"></path><path d="M 514.400,203.000 C 516.567,200.110 517.940,200.952 520.400,198.000" stroke-width="13.843" stroke="rgb(33,33,33)" fill="none" stroke-linecap="round"></path><path d="M 520.400,198.000 C 522.940,194.952 522.869,194.675 524.400,191.000" stroke-width="12.651" stroke="rgb(33,33,33)" fill="none" stroke-linecap="round"></path><path d="M 524.400,191.000 C 525.369,188.675 524.390,188.272 525.400,186.000" stroke-width="12.705" stroke="rgb(33,33,33)" fill="none" stroke-linecap="round"></path><path d="M 525.400,186.000 C 526.390,183.772 526.967,184.047 528.400,182.000" stroke-width="12.516" stroke="rgb(33,33,33)" fill="none" stroke-linecap="round"></path><path d="M 528.400,182.000 C 530.467,179.047 530.809,179.181 532.400,176.000" stroke-width="12.239" stroke="rgb(33,33,33)" fill="none" stroke-linecap="round"></path><path d="M 532.400,176.000 C 533.309,174.181 532.752,173.945 533.400,172.000" stroke-width="12.336" stroke="rgb(33,33,33)" fill="none" stroke-linecap="round"></path><path d="M 533.400,172.000 C 533.752,170.945 533.900,171.000 534.400,170.000" stroke-width="12.906" stroke="rgb(33,33,33)" fill="none" stroke-linecap="round"></path><path d="M 534.400,170.000 C 534.400,170.000 534.400,170.000 534.400,170.000" stroke-width="13.915" stroke="rgb(33,33,33)" fill="none" stroke-linecap="round"></path><path d="M 534.400,170.000 C 534.400,168.500 533.827,168.146 534.400,167.000" stroke-width="14.070" stroke="rgb(33,33,33)" fill="none" stroke-linecap="round"></path><path d="M 534.400,167.000 C 534.827,166.146 535.400,166.500 536.400,166.000" stroke-width="14.390" stroke="rgb(33,33,33)" fill="none" stroke-linecap="round"></path><path d="M 536.400,166.000 C 536.400,166.000 536.400,166.000 536.400,166.000" stroke-width="15.274" stroke="rgb(33,33,33)" fill="none" stroke-linecap="round"></path><path d="M 536.400,166.000 C 536.900,166.000 536.900,166.000 537.400,166.000" stroke-width="15.984" stroke="rgb(33,33,33)" fill="none" stroke-linecap="round"></path><path d="M 537.400,166.000 C 538.900,166.000 538.900,166.000 540.400,166.000" stroke-width="15.716" stroke="rgb(33,33,33)" fill="none" stroke-linecap="round"></path><path d="M 540.400,166.000 C 541.400,167.000 541.521,166.901 542.400,168.000" stroke-width="16.620" stroke="rgb(33,33,33)" fill="none" stroke-linecap="round"></path><path d="M 542.400,168.000 C 543.521,169.401 543.926,169.341 544.400,171.000" stroke-width="16.009" stroke="rgb(33,33,33)" fill="none" stroke-linecap="round"></path><path d="M 544.400,171.000 C 544.926,172.841 544.400,173.000 544.400,175.000" stroke-width="15.436" stroke="rgb(33,33,33)" fill="none" stroke-linecap="round"></path><path d="M 544.400,175.000 C 544.400,177.000 544.400,177.000 544.400,179.000" stroke-width="14.848" stroke="rgb(33,33,33)" fill="none" stroke-linecap="round"></path><path d="M 544.400,179.000 C 544.400,181.000 544.400,181.000 544.400,183.000" stroke-width="14.675" stroke="rgb(33,33,33)" fill="none" stroke-linecap="round"></path><path d="M 544.400,183.000 C 544.400,186.500 544.400,186.500 544.400,190.000" stroke-width="13.465" stroke="rgb(33,33,33)" fill="none" stroke-linecap="round"></path><path d="M 544.400,190.000 C 544.400,192.000 544.400,192.000 544.400,194.000" stroke-width="13.572" stroke="rgb(33,33,33)" fill="none" stroke-linecap="round"></path><path d="M 544.400,194.000 C 544.400,196.000 545.010,196.169 544.400,198.000" stroke-width="13.429" stroke="rgb(33,33,33)" fill="none" stroke-linecap="round"></path><path d="M 544.400,198.000 C 543.510,200.669 542.900,200.500 541.400,203.000" stroke-width="13.184" stroke="rgb(33,33,33)" fill="none" stroke-linecap="round"></path><path d="M 541.400,203.000 C 539.900,205.500 539.572,205.364 538.400,208.000" stroke-width="12.693" stroke="rgb(33,33,33)" fill="none" stroke-linecap="round"></path><path d="M 538.400,208.000 C 537.572,209.864 538.048,210.055 537.400,212.000" stroke-width="12.991" stroke="rgb(33,33,33)" fill="none" stroke-linecap="round"></path><path d="M 537.400,212.000 C 537.048,213.055 536.664,212.944 536.400,214.000" stroke-width="13.309" stroke="rgb(33,33,33)" fill="none" stroke-linecap="round"></path><path d="M 536.400,214.000 C 536.164,214.944 536.400,215.000 536.400,216.000" stroke-width="13.854" stroke="rgb(33,33,33)" fill="none" stroke-linecap="round"></path><path d="M 536.400,216.000 C 536.400,217.000 536.400,217.000 536.400,218.000" stroke-width="14.196" stroke="rgb(33,33,33)" fill="none" stroke-linecap="round"></path><path d="M 536.400,218.000 C 536.400,215.000 536.400,215.000 536.400,212.000" stroke-width="15.657" stroke="rgb(33,33,33)" fill="none" stroke-linecap="round"></path><path d="M 536.400,212.000 C 536.400,209.000 535.597,208.810 536.400,206.000" stroke-width="14.115" stroke="rgb(33,33,33)" fill="none" stroke-linecap="round"></path><path d="M 536.400,206.000 C 537.597,201.810 538.400,202.000 540.400,198.000" stroke-width="14.170" stroke="rgb(33,33,33)" fill="none" stroke-linecap="round"></path><path d="M 540.400,198.000 C 541.400,196.000 541.697,196.110 542.400,194.000" stroke-width="13.766" stroke="rgb(33,33,33)" fill="none" stroke-linecap="round"></path><path d="M 542.400,194.000 C 543.697,190.110 543.400,190.000 544.400,186.000" stroke-width="13.135" stroke="rgb(33,33,33)" fill="none" stroke-linecap="round"></path><path d="M 544.400,186.000 C 544.900,184.000 544.496,183.808 545.400,182.000" stroke-width="13.054" stroke="rgb(33,33,33)" fill="none" stroke-linecap="round"></path><path d="M 545.400,182.000 C 546.496,179.808 547.462,180.188 548.400,178.000" stroke-width="12.931" stroke="rgb(33,33,33)" fill="none" stroke-linecap="round"></path><path d="M 548.400,178.000 C 548.962,176.688 548.157,176.460 548.400,175.000" stroke-width="13.327" stroke="rgb(33,33,33)" fill="none" stroke-linecap="round"></path><path d="M 548.400,175.000 C 548.657,173.460 549.020,173.519 549.400,172.000" stroke-width="13.549" stroke="rgb(33,33,33)" fill="none" stroke-linecap="round"></path><path d="M 549.400,172.000 C 549.520,171.519 549.280,171.481 549.400,171.000" stroke-width="14.254" stroke="rgb(33,33,33)" fill="none" stroke-linecap="round"></path><path d="M 549.400,171.000 C 549.780,169.481 550.020,169.519 550.400,168.000" stroke-width="14.305" stroke="rgb(33,33,33)" fill="none" stroke-linecap="round"></path><path d="M 550.400,168.000 C 550.520,167.519 550.091,167.309 550.400,167.000" stroke-width="14.878" stroke="rgb(33,33,33)" fill="none" stroke-linecap="round"></path><path d="M 550.400,167.000 C 551.091,166.309 551.400,166.500 552.400,166.000" stroke-width="15.129" stroke="rgb(33,33,33)" fill="none" stroke-linecap="round"></path><path d="M 552.400,166.000 C 552.400,166.000 552.400,166.000 552.400,166.000" stroke-width="15.935" stroke="rgb(33,33,33)" fill="none" stroke-linecap="round"></path><path d="M 552.400,166.000 C 552.400,165.000 551.900,164.500 552.400,164.000" stroke-width="16.114" stroke="rgb(33,33,33)" fill="none" stroke-linecap="round"></path><path d="M 552.400,164.000 C 552.900,163.500 553.400,164.000 554.400,164.000" stroke-width="16.622" stroke="rgb(33,33,33)" fill="none" stroke-linecap="round"></path><path d="M 554.400,164.000 C 555.400,164.000 555.400,164.000 556.400,164.000" stroke-width="16.536" stroke="rgb(33,33,33)" fill="none" stroke-linecap="round"></path><path d="M 556.400,164.000 C 557.400,164.000 557.572,163.586 558.400,164.000" stroke-width="16.786" stroke="rgb(33,33,33)" fill="none" stroke-linecap="round"></path><path d="M 558.400,164.000 C 559.572,164.586 559.400,165.000 560.400,166.000" stroke-width="16.386" stroke="rgb(33,33,33)" fill="none" stroke-linecap="round"></path><path d="M 560.400,166.000 C 561.400,167.000 561.625,166.838 562.400,168.000" stroke-width="16.080" stroke="rgb(33,33,33)" fill="none" stroke-linecap="round"></path><path d="M 562.400,168.000 C 563.625,169.838 563.801,169.905 564.400,172.000" stroke-width="15.349" stroke="rgb(33,33,33)" fill="none" stroke-linecap="round"></path><path d="M 564.400,172.000 C 564.801,173.405 563.762,173.724 564.400,175.000" stroke-width="15.221" stroke="rgb(33,33,33)" fill="none" stroke-linecap="round"></path><path d="M 564.400,175.000 C 565.762,177.724 567.169,177.230 568.400,180.000" stroke-width="14.216" stroke="rgb(33,33,33)" fill="none" stroke-linecap="round"></path><path d="M 568.400,180.000 C 569.169,181.730 568.400,182.000 568.400,184.000" stroke-width="14.067" stroke="rgb(33,33,33)" fill="none" stroke-linecap="round"></path><path d="M 568.400,184.000 C 568.400,186.000 568.400,186.000 568.400,188.000" stroke-width="13.950" stroke="rgb(33,33,33)" fill="none" stroke-linecap="round"></path><path d="M 568.400,188.000 C 568.400,189.000 567.924,189.167 568.400,190.000" stroke-width="14.348" stroke="rgb(33,33,33)" fill="none" stroke-linecap="round"></path><path d="M 568.400,190.000 C 569.924,192.667 571.038,192.276 572.400,195.000" stroke-width="13.599" stroke="rgb(33,33,33)" fill="none" stroke-linecap="round"></path><path d="M 572.400,195.000 C 573.038,196.276 572.400,196.500 572.400,198.000" stroke-width="13.810" stroke="rgb(33,33,33)" fill="none" stroke-linecap="round"></path><path d="M 572.400,198.000 C 572.400,199.000 572.400,199.000 572.400,200.000" stroke-width="14.286" stroke="rgb(33,33,33)" fill="none" stroke-linecap="round"></path><path d="M 572.400,200.000 C 572.400,201.000 572.400,201.000 572.400,202.000" stroke-width="14.557" stroke="rgb(33,33,33)" fill="none" stroke-linecap="round"></path><path d="M 572.400,202.000 C 572.400,202.500 572.193,202.586 572.400,203.000" stroke-width="15.167" stroke="rgb(33,33,33)" fill="none" stroke-linecap="round"></path><path d="M 572.400,203.000 C 572.693,203.586 573.013,203.419 573.400,204.000" stroke-width="15.536" stroke="rgb(33,33,33)" fill="none" stroke-linecap="round"></path><path d="M 573.400,204.000 C 574.013,204.919 573.608,205.472 574.400,206.000" stroke-width="15.593" stroke="rgb(33,33,33)" fill="none" stroke-linecap="round"></path><path d="M 574.400,206.000 C 575.108,206.472 575.400,206.000 576.400,206.000" stroke-width="16.214" stroke="rgb(33,33,33)" fill="none" stroke-linecap="round"></path><path d="M 576.400,206.000 C 576.400,206.000 576.400,206.000 576.400,206.000" stroke-width="16.887" stroke="rgb(33,33,33)" fill="none" stroke-linecap="round"></path><circle r="6" cx="460.3999938964844" cy="140" fill="rgb(33,33,33)"></circle><path d="M 374.400,127.000 C 375.400,127.000 375.400,127.000 376.400,127.000" stroke-width="19.918" stroke="rgb(33,33,33)" fill="none" stroke-linecap="round"></path><path d="M 376.400,127.000 C 376.400,127.000 376.400,127.000 376.400,127.000" stroke-width="19.984" stroke="rgb(33,33,33)" fill="none" stroke-linecap="round"></path><path d="M 376.400,127.000 C 376.900,127.000 376.900,127.000 377.400,127.000" stroke-width="19.818" stroke="rgb(33,33,33)" fill="none" stroke-linecap="round"></path><path d="M 377.400,127.000 C 378.900,127.000 378.900,127.000 380.400,127.000" stroke-width="18.537" stroke="rgb(33,33,33)" fill="none" stroke-linecap="round"></path><path d="M 380.400,127.000 C 381.400,127.000 381.400,127.000 382.400,127.000" stroke-width="18.427" stroke="rgb(33,33,33)" fill="none" stroke-linecap="round"></path><path d="M 382.400,127.000 C 383.400,127.000 383.400,127.000 384.400,127.000" stroke-width="17.934" stroke="rgb(33,33,33)" fill="none" stroke-linecap="round"></path><path d="M 384.400,127.000 C 387.400,127.000 387.400,127.000 390.400,127.000" stroke-width="16.375" stroke="rgb(33,33,33)" fill="none" stroke-linecap="round"></path><path d="M 390.400,127.000 C 395.400,127.000 395.400,127.000 400.400,127.000" stroke-width="14.069" stroke="rgb(33,33,33)" fill="none" stroke-linecap="round"></path><path d="M 400.400,127.000 C 406.400,127.000 406.400,127.000 412.400,127.000" stroke-width="11.952" stroke="rgb(33,33,33)" fill="none" stroke-linecap="round"></path><path d="M 412.400,127.000 C 418.900,127.000 418.900,127.000 425.400,127.000" stroke-width="10.769" stroke="rgb(33,33,33)" fill="none" stroke-linecap="round"></path><path d="M 425.400,127.000 C 435.400,127.000 435.400,127.000 445.400,127.000" stroke-width="9.186" stroke="rgb(33,33,33)" fill="none" stroke-linecap="round"></path><path d="M 445.400,127.000 C 459.400,127.000 459.400,127.000 473.400,127.000" stroke-width="7.603" stroke="rgb(33,33,33)" fill="none" stroke-linecap="round"></path><path d="M 473.400,127.000 C 493.400,127.000 493.400,127.000 513.400,127.000" stroke-width="6.750" stroke="rgb(33,33,33)" fill="none" stroke-linecap="round"></path><path d="M 513.400,127.000 C 529.900,127.000 529.900,127.000 546.400,127.000" stroke-width="6.750" stroke="rgb(33,33,33)" fill="none" stroke-linecap="round"></path><path d="M 546.400,127.000 C 567.400,127.000 567.429,126.233 588.400,127.000" stroke-width="6.750" stroke="rgb(33,33,33)" fill="none" stroke-linecap="round"></path><path d="M 588.400,127.000 C 608.429,127.733 608.422,128.252 628.400,130.000" stroke-width="6.750" stroke="rgb(33,33,33)" fill="none" stroke-linecap="round"></path><path d="M 628.400,130.000 C 648.422,131.752 648.495,131.310 668.400,134.000" stroke-width="6.750" stroke="rgb(33,33,33)" fill="none" stroke-linecap="round"></path><path d="M 668.400,134.000 C 685.495,136.310 685.400,137.000 702.400,140.000" stroke-width="6.750" stroke="rgb(33,33,33)" fill="none" stroke-linecap="round"></path><path d="M 702.400,140.000 C 719.400,143.000 719.359,143.273 736.400,146.000" stroke-width="6.750" stroke="rgb(33,33,33)" fill="none" stroke-linecap="round"></path><path d="M 736.400,146.000 C 744.359,147.273 744.632,146.058 752.400,148.000" stroke-width="6.750" stroke="rgb(33,33,33)" fill="none" stroke-linecap="round"></path><path d="M 752.400,148.000 C 760.632,150.058 760.510,150.735 768.400,154.000" stroke-width="6.750" stroke="rgb(33,33,33)" fill="none" stroke-linecap="round"></path><path d="M 768.400,154.000 C 775.010,156.735 775.005,156.802 781.400,160.000" stroke-width="6.750" stroke="rgb(33,33,33)" fill="none" stroke-linecap="round"></path><path d="M 781.400,160.000 C 784.005,161.302 784.247,161.116 786.400,163.000" stroke-width="6.750" stroke="rgb(33,33,33)" fill="none" stroke-linecap="round"></path><path d="M 786.400,163.000 C 788.247,164.616 787.865,165.027 789.400,167.000" stroke-width="6.750" stroke="rgb(33,33,33)" fill="none" stroke-linecap="round"></path><path d="M 789.400,167.000 C 791.365,169.527 791.295,169.594 793.400,172.000" stroke-width="6.890" stroke="rgb(33,33,33)" fill="none" stroke-linecap="round"></path><path d="M 793.400,172.000 C 794.795,173.594 795.711,173.164 796.400,175.000" stroke-width="7.654" stroke="rgb(33,33,33)" fill="none" stroke-linecap="round"></path><path d="M 796.400,175.000 C 797.211,177.164 796.400,177.500 796.400,180.000" stroke-width="8.294" stroke="rgb(33,33,33)" fill="none" stroke-linecap="round"></path><path d="M 796.400,180.000 C 796.400,182.000 796.400,182.000 796.400,184.000" stroke-width="8.987" stroke="rgb(33,33,33)" fill="none" stroke-linecap="round"></path><path d="M 796.400,184.000 C 796.400,187.000 796.400,187.000 796.400,190.000" stroke-width="9.407" stroke="rgb(33,33,33)" fill="none" stroke-linecap="round"></path><path d="M 796.400,190.000 C 796.400,193.000 796.400,193.000 796.400,196.000" stroke-width="9.773" stroke="rgb(33,33,33)" fill="none" stroke-linecap="round"></path><path d="M 796.400,196.000 C 796.400,198.000 796.400,198.000 796.400,200.000" stroke-width="10.344" stroke="rgb(33,33,33)" fill="none" stroke-linecap="round"></path><path d="M 796.400,200.000 C 796.400,203.000 797.080,203.282 796.400,206.000" stroke-width="10.568" stroke="rgb(33,33,33)" fill="none" stroke-linecap="round"></path><path d="M 796.400,206.000 C 796.080,207.282 795.245,206.873 794.400,208.000" stroke-width="11.228" stroke="rgb(33,33,33)" fill="none" stroke-linecap="round"></path><path d="M 794.400,208.000 C 792.245,210.873 792.784,211.352 790.400,214.000" stroke-width="11.107" stroke="rgb(33,33,33)" fill="none" stroke-linecap="round"></path><path d="M 790.400,214.000 C 788.284,216.352 788.158,216.424 785.400,218.000" stroke-width="11.135" stroke="rgb(33,33,33)" fill="none" stroke-linecap="round"></path><path d="M 785.400,218.000 C 781.158,220.424 781.040,220.386 776.400,222.000" stroke-width="10.652" stroke="rgb(33,33,33)" fill="none" stroke-linecap="round"></path><path d="M 776.400,222.000 C 769.540,224.386 769.528,224.727 762.400,226.000" stroke-width="9.476" stroke="rgb(33,33,33)" fill="none" stroke-linecap="round"></path><path d="M 762.400,226.000 C 755.528,227.227 755.400,226.500 748.400,227.000" stroke-width="9.116" stroke="rgb(33,33,33)" fill="none" stroke-linecap="round"></path><path d="M 748.400,227.000 C 741.400,227.500 741.409,227.766 734.400,228.000" stroke-width="8.698" stroke="rgb(33,33,33)" fill="none" stroke-linecap="round"></path><path d="M 734.400,228.000 C 726.409,228.266 726.374,227.531 718.400,228.000" stroke-width="8.224" stroke="rgb(33,33,33)" fill="none" stroke-linecap="round"></path><path d="M 718.400,228.000 C 709.374,228.531 709.295,228.383 700.400,230.000" stroke-width="7.721" stroke="rgb(33,33,33)" fill="none" stroke-linecap="round"></path><path d="M 700.400,230.000 C 687.295,232.383 687.505,233.617 674.400,236.000" stroke-width="6.750" stroke="rgb(33,33,33)" fill="none" stroke-linecap="round"></path><path d="M 674.400,236.000 C 665.505,237.617 665.336,236.589 656.400,238.000" stroke-width="6.750" stroke="rgb(33,33,33)" fill="none" stroke-linecap="round"></path><path d="M 656.400,238.000 C 646.336,239.589 646.473,240.489 636.400,242.000" stroke-width="6.750" stroke="rgb(33,33,33)" fill="none" stroke-linecap="round"></path><path d="M 636.400,242.000 C 626.473,243.489 626.408,243.090 616.400,244.000" stroke-width="6.750" stroke="rgb(33,33,33)" fill="none" stroke-linecap="round"></path><path d="M 616.400,244.000 C 604.408,245.090 604.357,244.620 592.400,246.000" stroke-width="6.750" stroke="rgb(33,33,33)" fill="none" stroke-linecap="round"></path><path d="M 592.400,246.000 C 578.357,247.620 578.377,247.850 564.400,250.000" stroke-width="6.750" stroke="rgb(33,33,33)" fill="none" stroke-linecap="round"></path><path d="M 564.400,250.000 C 552.377,251.850 552.437,252.249 540.400,254.000" stroke-width="6.750" stroke="rgb(33,33,33)" fill="none" stroke-linecap="round"></path><path d="M 540.400,254.000 C 524.937,256.249 524.870,255.790 509.400,258.000" stroke-width="6.750" stroke="rgb(33,33,33)" fill="none" stroke-linecap="round"></path><path d="M 509.400,258.000 C 496.870,259.790 496.912,260.075 484.400,262.000" stroke-width="6.750" stroke="rgb(33,33,33)" fill="none" stroke-linecap="round"></path><path d="M 484.400,262.000 C 470.912,264.075 470.939,264.308 457.400,266.000" stroke-width="6.750" stroke="rgb(33,33,33)" fill="none" stroke-linecap="round"></path><path d="M 457.400,266.000 C 438.939,268.308 438.926,268.290 420.400,270.000" stroke-width="6.750" stroke="rgb(33,33,33)" fill="none" stroke-linecap="round"></path><path d="M 420.400,270.000 C 406.426,271.290 406.358,270.581 392.400,272.000" stroke-width="6.750" stroke="rgb(33,33,33)" fill="none" stroke-linecap="round"></path><path d="M 392.400,272.000 C 376.858,273.581 376.960,274.927 361.400,276.000" stroke-width="6.750" stroke="rgb(33,33,33)" fill="none" stroke-linecap="round"></path><path d="M 361.400,276.000 C 347.960,276.927 347.900,276.000 334.400,276.000" stroke-width="6.750" stroke="rgb(33,33,33)" fill="none" stroke-linecap="round"></path><path d="M 334.400,276.000 C 317.900,276.000 317.900,276.000 301.400,276.000" stroke-width="6.750" stroke="rgb(33,33,33)" fill="none" stroke-linecap="round"></path><path d="M 301.400,276.000 C 287.900,276.000 287.880,275.491 274.400,276.000" stroke-width="6.750" stroke="rgb(33,33,33)" fill="none" stroke-linecap="round"></path><path d="M 274.400,276.000 C 261.380,276.491 261.393,276.917 248.400,278.000" stroke-width="6.750" stroke="rgb(33,33,33)" fill="none" stroke-linecap="round"></path><path d="M 248.400,278.000 C 237.393,278.917 237.418,279.388 226.400,280.000" stroke-width="6.750" stroke="rgb(33,33,33)" fill="none" stroke-linecap="round"></path><path d="M 226.400,280.000 C 219.418,280.388 219.365,279.503 212.400,280.000" stroke-width="6.750" stroke="rgb(33,33,33)" fill="none" stroke-linecap="round"></path><path d="M 212.400,280.000 C 205.365,280.503 205.433,281.459 198.400,282.000" stroke-width="6.750" stroke="rgb(33,33,33)" fill="none" stroke-linecap="round"></path><path d="M 198.400,282.000 C 192.433,282.459 192.400,282.000 186.400,282.000" stroke-width="6.750" stroke="rgb(33,33,33)" fill="none" stroke-linecap="round"></path><path d="M 186.400,282.000 C 181.900,282.000 181.900,282.000 177.400,282.000" stroke-width="6.750" stroke="rgb(33,33,33)" fill="none" stroke-linecap="round"></path><path d="M 177.400,282.000 C 174.900,282.000 174.900,282.000 172.400,282.000" stroke-width="6.902" stroke="rgb(33,33,33)" fill="none" stroke-linecap="round"></path><path d="M 172.400,282.000 C 171.400,282.000 171.400,282.000 170.400,282.000" stroke-width="7.797" stroke="rgb(33,33,33)" fill="none" stroke-linecap="round"></path><path d="M 170.400,282.000 C 169.900,282.000 169.567,282.333 169.400,282.000" stroke-width="8.875" stroke="rgb(33,33,33)" fill="none" stroke-linecap="round"></path><path d="M 169.400,282.000 C 169.067,281.333 169.067,280.667 169.400,280.000" stroke-width="9.100" stroke="rgb(33,33,33)" fill="none" stroke-linecap="round"></path><path d="M 169.400,280.000 C 169.567,279.667 169.936,280.155 170.400,280.000" stroke-width="10.214" stroke="rgb(33,33,33)" fill="none" stroke-linecap="round"></path><path d="M 170.400,280.000 C 171.436,279.655 171.709,279.691 172.400,279.000" stroke-width="11.182" stroke="rgb(33,33,33)" fill="none" stroke-linecap="round"></path><path d="M 172.400,279.000 C 172.709,278.691 172.400,278.500 172.400,278.000" stroke-width="12.099" stroke="rgb(33,33,33)" fill="none" stroke-linecap="round"></path></svg>