<svg xmlns="http://www.w3.org/2000/svg" xmlns:xlink="http://www.w3.org/1999/xlink" viewBox="0 0 800 500"><path d="M 400.500,130.000 C 400.000,130.000 400.000,130.000 399.500,130.000" stroke-width="20.039" stroke="rgb(33,33,33)" fill="none" stroke-linecap="round"></path><path d="M 399.500,130.000 C 398.500,130.000 398.301,129.519 397.500,130.000" stroke-width="19.382" stroke="rgb(33,33,33)" fill="none" stroke-linecap="round"></path><path d="M 397.500,130.000 C 395.801,131.019 396.122,131.649 394.500,133.000" stroke-width="17.919" stroke="rgb(33,33,33)" fill="none" stroke-linecap="round"></path><path d="M 394.500,133.000 C 393.122,134.149 392.851,133.818 391.500,135.000" stroke-width="17.313" stroke="rgb(33,33,33)" fill="none" stroke-linecap="round"></path><path d="M 391.500,135.000 C 388.851,137.318 389.113,137.624 386.500,140.000" stroke-width="15.856" stroke="rgb(33,33,33)" fill="none" stroke-linecap="round"></path><path d="M 386.500,140.000 C 383.613,142.624 383.036,142.074 380.500,145.000" stroke-width="14.513" stroke="rgb(33,33,33)" fill="none" stroke-linecap="round"></path><path d="M 380.500,145.000 C 376.536,149.574 377.101,150.073 373.500,155.000" stroke-width="13.165" stroke="rgb(33,33,33)" fill="none" stroke-linecap="round"></path><path d="M 373.500,155.000 C 367.601,163.073 367.325,162.873 361.500,171.000" stroke-width="11.062" stroke="rgb(33,33,33)" fill="none" stroke-linecap="round"></path><path d="M 361.500,171.000 C 345.825,192.873 345.421,192.618 330.500,215.000" stroke-width="9.193" stroke="rgb(33,33,33)" fill="none" stroke-linecap="round"></path><path d="M 330.500,215.000 C 319.421,231.618 319.108,231.509 309.500,249.000" stroke-width="7.333" stroke="rgb(33,33,33)" fill="none" stroke-linecap="round"></path><path d="M 309.500,249.000 C 299.608,267.009 300.389,267.448 291.500,286.000" stroke-width="6.750" stroke="rgb(33,33,33)" fill="none" stroke-linecap="round"></path><path d="M 291.500,286.000 C 288.889,291.448 289.199,291.602 286.500,297.000" stroke-width="6.800" stroke="rgb(33,33,33)" fill="none" stroke-linecap="round"></path><path d="M 286.500,297.000 C 284.699,300.602 283.647,300.273 282.500,304.000" stroke-width="7.381" stroke="rgb(33,33,33)" fill="none" stroke-linecap="round"></path><path d="M 282.500,304.000 C 281.647,306.773 282.796,307.036 282.500,310.000" stroke-width="8.052" stroke="rgb(33,33,33)" fill="none" stroke-linecap="round"></path><path d="M 282.500,310.000 C 282.296,312.036 281.726,311.966 281.500,314.000" stroke-width="8.826" stroke="rgb(33,33,33)" fill="none" stroke-linecap="round"></path><path d="M 281.500,314.000 C 281.226,316.466 281.500,316.500 281.500,319.000" stroke-width="9.483" stroke="rgb(33,33,33)" fill="none" stroke-linecap="round"></path><path d="M 281.500,319.000 C 281.500,321.000 281.500,321.000 281.500,323.000" stroke-width="10.221" stroke="rgb(33,33,33)" fill="none" stroke-linecap="round"></path><path d="M 281.500,323.000 C 281.500,324.000 281.500,324.000 281.500,325.000" stroke-width="11.070" stroke="rgb(33,33,33)" fill="none" stroke-linecap="round"></path><path d="M 281.500,325.000 C 281.500,326.000 281.500,326.000 281.500,327.000" stroke-width="11.913" stroke="rgb(33,33,33)" fill="none" stroke-linecap="round"></path><path d="M 281.500,327.000 C 281.500,328.000 281.500,328.000 281.500,329.000" stroke-width="12.622" stroke="rgb(33,33,33)" fill="none" stroke-linecap="round"></path><path d="M 281.500,329.000 C 281.500,330.000 281.264,330.056 281.500,331.000" stroke-width="13.351" stroke="rgb(33,33,33)" fill="none" stroke-linecap="round"></path><path d="M 281.500,331.000 C 281.764,332.056 282.155,331.964 282.500,333.000" stroke-width="13.840" stroke="rgb(33,33,33)" fill="none" stroke-linecap="round"></path><path d="M 282.500,333.000 C 282.655,333.464 282.191,333.691 282.500,334.000" stroke-width="14.540" stroke="rgb(33,33,33)" fill="none" stroke-linecap="round"></path><path d="M 282.500,334.000 C 283.191,334.691 283.809,334.309 284.500,335.000" stroke-width="14.947" stroke="rgb(33,33,33)" fill="none" stroke-linecap="round"></path><path d="M 284.500,335.000 C 284.809,335.309 284.191,335.691 284.500,336.000" stroke-width="15.504" stroke="rgb(33,33,33)" fill="none" stroke-linecap="round"></path><path d="M 284.500,336.000 C 285.191,336.691 285.581,336.387 286.500,337.000" stroke-width="15.752" stroke="rgb(33,33,33)" fill="none" stroke-linecap="round"></path><path d="M 286.500,337.000 C 287.081,337.387 286.919,337.613 287.500,338.000" stroke-width="16.114" stroke="rgb(33,33,33)" fill="none" stroke-linecap="round"></path><path d="M 287.500,338.000 C 288.419,338.613 288.445,338.648 289.500,339.000" stroke-width="16.135" stroke="rgb(33,33,33)" fill="none" stroke-linecap="round"></path><path d="M 289.500,339.000 C 291.445,339.648 291.519,339.434 293.500,340.000" stroke-width="15.833" stroke="rgb(33,33,33)" fill="none" stroke-linecap="round"></path><path d="M 293.500,340.000 C 295.019,340.434 294.981,340.566 296.500,341.000" stroke-width="15.741" stroke="rgb(33,33,33)" fill="none" stroke-linecap="round"></path><path d="M 296.500,341.000 C 298.481,341.566 298.480,341.596 300.500,342.000" stroke-width="15.528" stroke="rgb(33,33,33)" fill="none" stroke-linecap="round"></path><path d="M 300.500,342.000 C 303.480,342.596 303.478,342.682 306.500,343.000" stroke-width="14.690" stroke="rgb(33,33,33)" fill="none" stroke-linecap="round"></path><path d="M 306.500,343.000 C 312.978,343.682 312.992,343.704 319.500,344.000" stroke-width="12.951" stroke="rgb(33,33,33)" fill="none" stroke-linecap="round"></path><path d="M 319.500,344.000 C 323.992,344.204 324.016,343.736 328.500,344.000" stroke-width="12.417" stroke="rgb(33,33,33)" fill="none" stroke-linecap="round"></path><path d="M 328.500,344.000 C 332.516,344.236 332.484,344.749 336.500,345.000" stroke-width="12.155" stroke="rgb(33,33,33)" fill="none" stroke-linecap="round"></path><path d="M 336.500,345.000 C 340.484,345.249 340.500,345.000 344.500,345.000" stroke-width="12.067" stroke="rgb(33,33,33)" fill="none" stroke-linecap="round"></path><path d="M 344.500,345.000 C 347.500,345.000 347.500,345.000 350.500,345.000" stroke-width="12.083" stroke="rgb(33,33,33)" fill="none" stroke-linecap="round"></path><path d="M 350.500,345.000 C 352.500,345.000 352.500,345.000 354.500,345.000" stroke-width="12.495" stroke="rgb(33,33,33)" fill="none" stroke-linecap="round"></path><path d="M 354.500,345.000 C 355.000,345.000 355.000,345.000 355.500,345.000" stroke-width="13.369" stroke="rgb(33,33,33)" fill="none" stroke-linecap="round"></path><path d="M 355.500,345.000 C 356.000,345.000 356.000,345.000 356.500,345.000" stroke-width="14.121" stroke="rgb(33,33,33)" fill="none" stroke-linecap="round"></path><path d="M 356.500,345.000 C 357.000,345.000 357.000,345.000 357.500,345.000" stroke-width="14.811" stroke="rgb(33,33,33)" fill="none" stroke-linecap="round"></path><path d="M 357.500,345.000 C 358.000,345.000 358.086,345.207 358.500,345.000" stroke-width="15.435" stroke="rgb(33,33,33)" fill="none" stroke-linecap="round"></path><path d="M 358.500,345.000 C 359.086,344.707 359.245,344.638 359.500,344.000" stroke-width="15.847" stroke="rgb(33,33,33)" fill="none" stroke-linecap="round"></path><path d="M 359.500,344.000 C 360.245,342.138 360.096,342.020 360.500,340.000" stroke-width="15.412" stroke="rgb(33,33,33)" fill="none" stroke-linecap="round"></path><path d="M 360.500,340.000 C 361.096,337.020 361.226,337.019 361.500,334.000" stroke-width="14.751" stroke="rgb(33,33,33)" fill="none" stroke-linecap="round"></path><path d="M 361.500,334.000 C 361.726,331.519 361.500,331.500 361.500,329.000" stroke-width="14.657" stroke="rgb(33,33,33)" fill="none" stroke-linecap="round"></path><path d="M 361.500,329.000 C 361.500,326.000 361.500,326.000 361.500,323.000" stroke-width="14.076" stroke="rgb(33,33,33)" fill="none" stroke-linecap="round"></path><path d="M 361.500,323.000 C 361.500,318.000 361.500,318.000 361.500,313.000" stroke-width="13.057" stroke="rgb(33,33,33)" fill="none" stroke-linecap="round"></path><path d="M 361.500,313.000 C 361.500,308.500 361.500,308.500 361.500,304.000" stroke-width="12.495" stroke="rgb(33,33,33)" fill="none" stroke-linecap="round"></path><path d="M 361.500,304.000 C 361.500,299.500 361.500,299.500 361.500,295.000" stroke-width="12.078" stroke="rgb(33,33,33)" fill="none" stroke-linecap="round"></path><path d="M 361.500,295.000 C 361.500,292.500 361.500,292.500 361.500,290.000" stroke-width="12.407" stroke="rgb(33,33,33)" fill="none" stroke-linecap="round"></path><path d="M 361.500,290.000 C 361.500,288.000 361.500,288.000 361.500,286.000" stroke-width="12.770" stroke="rgb(33,33,33)" fill="none" stroke-linecap="round"></path><path d="M 361.500,286.000 C 361.500,284.500 361.500,284.500 361.500,283.000" stroke-width="13.190" stroke="rgb(33,33,33)" fill="none" stroke-linecap="round"></path><path d="M 361.500,283.000 C 361.500,281.000 361.500,281.000 361.500,279.000" stroke-width="13.492" stroke="rgb(33,33,33)" fill="none" stroke-linecap="round"></path><path d="M 361.500,279.000 C 361.500,278.000 361.500,278.000 361.500,277.000" stroke-width="14.012" stroke="rgb(33,33,33)" fill="none" stroke-linecap="round"></path><path d="M 361.500,277.000 C 361.500,276.000 361.500,276.000 361.500,275.000" stroke-width="14.504" stroke="rgb(33,33,33)" fill="none" stroke-linecap="round"></path><path d="M 361.500,275.000 C 361.500,274.500 361.250,274.250 361.500,274.000" stroke-width="15.266" stroke="rgb(33,33,33)" fill="none" stroke-linecap="round"></path><path d="M 361.500,274.000 C 361.750,273.750 362.250,274.250 362.500,274.000" stroke-width="15.930" stroke="rgb(33,33,33)" fill="none" stroke-linecap="round"></path><path d="M 362.500,274.000 C 362.750,273.750 362.663,273.472 362.500,273.000" stroke-width="16.550" stroke="rgb(33,33,33)" fill="none" stroke-linecap="round"></path><path d="M 362.500,273.000 C 358.163,260.472 356.569,254.521 353.500,248.000" stroke-width="17.015" stroke="rgb(33,33,33)" fill="none" stroke-linecap="round"></path><path d="M 353.500,248.000 C 352.569,246.021 353.782,252.050 354.500,256.000" stroke-width="15.419" stroke="rgb(33,33,33)" fill="none" stroke-linecap="round"></path><path d="M 354.500,256.000 C 354.782,257.550 355.120,258.240 355.500,259.000" stroke-width="15.412" stroke="rgb(33,33,33)" fill="none" stroke-linecap="round"></path><path d="M 355.500,259.000 C 355.620,259.240 355.500,258.500 355.500,258.000" stroke-width="16.134" stroke="rgb(33,33,33)" fill="none" stroke-linecap="round"></path><path d="M 355.500,258.000 C 355.500,257.500 355.380,257.481 355.500,257.000" stroke-width="16.543" stroke="rgb(33,33,33)" fill="none" stroke-linecap="round"></path><path d="M 355.500,257.000 C 355.880,255.481 356.000,255.500 356.500,254.000" stroke-width="16.297" stroke="rgb(33,33,33)" fill="none" stroke-linecap="round"></path><path d="M 356.500,254.000 C 357.000,252.500 357.066,252.519 357.500,251.000" stroke-width="16.106" stroke="rgb(33,33,33)" fill="none" stroke-linecap="round"></path><path d="M 357.500,251.000 C 358.066,249.019 357.672,248.864 358.500,247.000" stroke-width="15.719" stroke="rgb(33,33,33)" fill="none" stroke-linecap="round"></path><path d="M 358.500,247.000 C 359.672,244.364 359.935,244.459 361.500,242.000" stroke-width="15.031" stroke="rgb(33,33,33)" fill="none" stroke-linecap="round"></path><path d="M 361.500,242.000 C 363.435,238.959 363.448,238.964 365.500,236.000" stroke-width="14.240" stroke="rgb(33,33,33)" fill="none" stroke-linecap="round"></path><path d="M 365.500,236.000 C 367.948,232.464 367.920,232.440 370.500,229.000" stroke-width="13.414" stroke="rgb(33,33,33)" fill="none" stroke-linecap="round"></path><path d="M 370.500,229.000 C 373.920,224.440 374.037,224.528 377.500,220.000" stroke-width="12.380" stroke="rgb(33,33,33)" fill="none" stroke-linecap="round"></path><path d="M 377.500,220.000 C 380.537,216.028 380.463,215.972 383.500,212.000" stroke-width="11.979" stroke="rgb(33,33,33)" fill="none" stroke-linecap="round"></path><path d="M 383.500,212.000 C 386.963,207.472 386.753,207.282 390.500,203.000" stroke-width="11.508" stroke="rgb(33,33,33)" fill="none" stroke-linecap="round"></path><path d="M 390.500,203.000 C 393.753,199.282 394.000,199.500 397.500,196.000" stroke-width="11.079" stroke="rgb(33,33,33)" fill="none" stroke-linecap="round"></path><path d="M 397.500,196.000 C 400.000,193.500 399.760,193.192 402.500,191.000" stroke-width="11.228" stroke="rgb(33,33,33)" fill="none" stroke-linecap="round"></path><path d="M 402.500,191.000 C 404.760,189.192 405.077,189.615 407.500,188.000" stroke-width="11.425" stroke="rgb(33,33,33)" fill="none" stroke-linecap="round"></path><path d="M 407.500,188.000 C 409.577,186.615 409.427,186.382 411.500,185.000" stroke-width="11.787" stroke="rgb(33,33,33)" fill="none" stroke-linecap="round"></path><path d="M 411.500,185.000 C 412.427,184.382 412.617,184.662 413.500,184.000" stroke-width="12.539" stroke="rgb(33,33,33)" fill="none" stroke-linecap="round"></path><path d="M 413.500,184.000 C 414.617,183.162 414.383,182.838 415.500,182.000" stroke-width="13.076" stroke="rgb(33,33,33)" fill="none" stroke-linecap="round"></path><path d="M 415.500,182.000 C 416.383,181.338 416.464,181.345 417.500,181.000" stroke-width="13.649" stroke="rgb(33,33,33)" fill="none" stroke-linecap="round"></path><path d="M 417.500,181.000 C 417.964,180.845 418.000,181.000 418.500,181.000" stroke-width="14.394" stroke="rgb(33,33,33)" fill="none" stroke-linecap="round"></path><path d="M 418.500,181.000 C 419.500,181.000 419.500,181.000 420.500,181.000" stroke-width="14.830" stroke="rgb(33,33,33)" fill="none" stroke-linecap="round"></path><path d="M 420.500,181.000 C 421.000,181.000 421.000,181.000 421.500,181.000" stroke-width="15.451" stroke="rgb(33,33,33)" fill="none" stroke-linecap="round"></path><path d="M 421.500,181.000 C 422.500,181.000 422.500,181.000 423.500,181.000" stroke-width="15.716" stroke="rgb(33,33,33)" fill="none" stroke-linecap="round"></path><path d="M 423.500,181.000 C 424.500,181.000 424.500,181.000 425.500,181.000" stroke-width="15.935" stroke="rgb(33,33,33)" fill="none" stroke-linecap="round"></path><path d="M 425.500,181.000 C 427.500,181.000 427.500,181.000 429.500,181.000" stroke-width="15.511" stroke="rgb(33,33,33)" fill="none" stroke-linecap="round"></path><path d="M 429.500,181.000 C 431.000,181.000 431.040,181.243 432.500,181.000" stroke-width="15.590" stroke="rgb(33,33,33)" fill="none" stroke-linecap="round"></path><path d="M 432.500,181.000 C 434.040,180.743 433.960,180.257 435.500,180.000" stroke-width="15.548" stroke="rgb(33,33,33)" fill="none" stroke-linecap="round"></path><path d="M 435.500,180.000 C 436.960,179.757 437.000,180.000 438.500,180.000" stroke-width="15.475" stroke="rgb(33,33,33)" fill="none" stroke-linecap="round"></path><path d="M 438.500,180.000 C 439.500,180.000 439.500,180.000 440.500,180.000" stroke-width="15.736" stroke="rgb(33,33,33)" fill="none" stroke-linecap="round"></path><path d="M 440.500,180.000 C 442.000,180.000 442.000,180.000 443.500,180.000" stroke-width="15.704" stroke="rgb(33,33,33)" fill="none" stroke-linecap="round"></path><path d="M 443.500,180.000 C 445.500,180.000 445.500,180.000 447.500,180.000" stroke-width="15.525" stroke="rgb(33,33,33)" fill="none" stroke-linecap="round"></path><path d="M 447.500,180.000 C 449.000,180.000 449.000,180.000 450.500,180.000" stroke-width="15.536" stroke="rgb(33,33,33)" fill="none" stroke-linecap="round"></path><path d="M 450.500,180.000 C 452.500,180.000 452.500,180.000 454.500,180.000" stroke-width="15.309" stroke="rgb(33,33,33)" fill="none" stroke-linecap="round"></path><path d="M 454.500,180.000 C 456.500,180.000 456.500,180.000 458.500,180.000" stroke-width="15.132" stroke="rgb(33,33,33)" fill="none" stroke-linecap="round"></path><path d="M 458.500,180.000 C 460.000,180.000 460.000,180.000 461.500,180.000" stroke-width="15.143" stroke="rgb(33,33,33)" fill="none" stroke-linecap="round"></path><path d="M 461.500,180.000 C 462.500,180.000 462.500,180.000 463.500,180.000" stroke-width="15.460" stroke="rgb(33,33,33)" fill="none" stroke-linecap="round"></path><path d="M 463.500,180.000 C 465.000,180.000 465.000,180.000 466.500,180.000" stroke-width="15.603" stroke="rgb(33,33,33)" fill="none" stroke-linecap="round"></path><path d="M 466.500,180.000 C 467.500,180.000 467.500,180.000 468.500,180.000" stroke-width="15.787" stroke="rgb(33,33,33)" fill="none" stroke-linecap="round"></path><path d="M 468.500,180.000 C 469.500,180.000 469.500,180.000 470.500,180.000" stroke-width="15.993" stroke="rgb(33,33,33)" fill="none" stroke-linecap="round"></path><path d="M 470.500,180.000 C 471.000,180.000 471.000,180.000 471.500,180.000" stroke-width="16.448" stroke="rgb(33,33,33)" fill="none" stroke-linecap="round"></path><path d="M 471.500,180.000 C 472.500,180.000 472.500,180.000 473.500,180.000" stroke-width="16.472" stroke="rgb(33,33,33)" fill="none" stroke-linecap="round"></path><path d="M 473.500,180.000 C 474.000,180.000 474.000,180.000 474.500,180.000" stroke-width="16.826" stroke="rgb(33,33,33)" fill="none" stroke-linecap="round"></path><path d="M 474.500,180.000 C 475.000,180.000 475.000,180.000 475.500,180.000" stroke-width="17.121" stroke="rgb(33,33,33)" fill="none" stroke-linecap="round"></path><path d="M 475.500,180.000 C 476.000,180.000 476.250,179.750 476.500,180.000" stroke-width="17.391" stroke="rgb(33,33,33)" fill="none" stroke-linecap="round"></path><path d="M 476.500,180.000 C 476.750,180.250 476.250,180.750 476.500,181.000" stroke-width="17.731" stroke="rgb(33,33,33)" fill="none" stroke-linecap="round"></path><path d="M 476.500,181.000 C 476.750,181.250 477.000,181.000 477.500,181.000" stroke-width="17.892" stroke="rgb(33,33,33)" fill="none" stroke-linecap="round"></path><path d="M 477.500,181.000 C 478.000,181.000 478.250,180.750 478.500,181.000" stroke-width="18.154" stroke="rgb(33,33,33)" fill="none" stroke-linecap="round"></path><path d="M 478.500,181.000 C 478.750,181.250 478.293,181.586 478.500,182.000" stroke-width="18.204" stroke="rgb(33,33,33)" fill="none" stroke-linecap="round"></path><path d="M 478.500,182.000 C 478.793,182.586 479.207,182.414 479.500,183.000" stroke-width="18.420" stroke="rgb(33,33,33)" fill="none" stroke-linecap="round"></path><path d="M 479.500,183.000 C 479.707,183.414 479.500,183.500 479.500,184.000" stroke-width="18.644" stroke="rgb(33,33,33)" fill="none" stroke-linecap="round"></path><path d="M 479.500,184.000 C 479.500,184.500 479.500,184.500 479.500,185.000" stroke-width="18.597" stroke="rgb(33,33,33)" fill="none" stroke-linecap="round"></path><path d="M 479.500,185.000 C 479.500,185.500 479.500,185.500 479.500,186.000" stroke-width="18.559" stroke="rgb(33,33,33)" fill="none" stroke-linecap="round"></path><path d="M 479.500,186.000 C 479.500,186.500 479.250,186.750 479.500,187.000" stroke-width="18.708" stroke="rgb(33,33,33)" fill="none" stroke-linecap="round"></path><path d="M 479.500,187.000 C 479.750,187.250 480.250,186.750 480.500,187.000" stroke-width="18.609" stroke="rgb(33,33,33)" fill="none" stroke-linecap="round"></path><path d="M 480.500,187.000 C 480.750,187.250 480.500,187.500 480.500,188.000" stroke-width="18.569" stroke="rgb(33,33,33)" fill="none" stroke-linecap="round"></path><path d="M 480.500,188.000 C 480.500,188.500 480.500,188.500 480.500,189.000" stroke-width="18.708" stroke="rgb(33,33,33)" fill="none" stroke-linecap="round"></path><path d="M 480.500,189.000 C 480.500,189.500 480.250,189.750 480.500,190.000" stroke-width="18.821" stroke="rgb(33,33,33)" fill="none" stroke-linecap="round"></path><path d="M 480.500,190.000 C 480.750,190.250 481.250,189.750 481.500,190.000" stroke-width="19.003" stroke="rgb(33,33,33)" fill="none" stroke-linecap="round"></path><path d="M 481.500,190.000 C 481.750,190.250 481.500,190.500 481.500,191.000" stroke-width="19.119" stroke="rgb(33,33,33)" fill="none" stroke-linecap="round"></path><path d="M 481.500,191.000 C 481.500,191.500 481.500,191.500 481.500,192.000" stroke-width="19.308" stroke="rgb(33,33,33)" fill="none" stroke-linecap="round"></path><path d="M 481.500,192.000 C 481.500,192.500 481.500,192.500 481.500,193.000" stroke-width="19.461" stroke="rgb(33,33,33)" fill="none" stroke-linecap="round"></path><path d="M 481.500,193.000 C 481.500,193.500 481.250,193.750 481.500,194.000" stroke-width="19.607" stroke="rgb(33,33,33)" fill="none" stroke-linecap="round"></path><path d="M 481.500,194.000 C 481.750,194.250 482.000,194.000 482.500,194.000" stroke-width="19.725" stroke="rgb(33,33,33)" fill="none" stroke-linecap="round"></path><path d="M 482.500,194.000 C 483.000,194.000 483.086,194.207 483.500,194.000" stroke-width="19.645" stroke="rgb(33,33,33)" fill="none" stroke-linecap="round"></path><path d="M 483.500,194.000 C 484.086,193.707 483.914,193.293 484.500,193.000" stroke-width="19.494" stroke="rgb(33,33,33)" fill="none" stroke-linecap="round"></path><path d="M 484.500,193.000 C 484.914,192.793 485.086,193.207 485.500,193.000" stroke-width="19.267" stroke="rgb(33,33,33)" fill="none" stroke-linecap="round"></path><path d="M 485.500,193.000 C 486.086,192.707 485.919,192.387 486.500,192.000" stroke-width="19.195" stroke="rgb(33,33,33)" fill="none" stroke-linecap="round"></path><path d="M 486.500,192.000 C 487.419,191.387 487.750,191.750 488.500,191.000" stroke-width="18.600" stroke="rgb(33,33,33)" fill="none" stroke-linecap="round"></path><path d="M 488.500,191.000 C 489.250,190.250 488.750,189.750 489.500,189.000" stroke-width="18.150" stroke="rgb(33,33,33)" fill="none" stroke-linecap="round"></path><path d="M 489.500,189.000 C 490.250,188.250 490.581,188.613 491.500,188.000" stroke-width="17.806" stroke="rgb(33,33,33)" fill="none" stroke-linecap="round"></path><path d="M 491.500,188.000 C 492.081,187.613 491.914,187.293 492.500,187.000" stroke-width="17.793" stroke="rgb(33,33,33)" fill="none" stroke-linecap="round"></path><path d="M 492.500,187.000 C 492.914,186.793 493.191,187.309 493.500,187.000" stroke-width="17.913" stroke="rgb(33,33,33)" fill="none" stroke-linecap="round"></path><path d="M 493.500,187.000 C 494.191,186.309 493.809,185.691 494.500,185.000" stroke-width="17.685" stroke="rgb(33,33,33)" fill="none" stroke-linecap="round"></path><path d="M 494.500,185.000 C 494.809,184.691 495.108,185.261 495.500,185.000" stroke-width="17.825" stroke="rgb(33,33,33)" fill="none" stroke-linecap="round"></path><path d="M 495.500,185.000 C 496.608,184.261 496.761,184.108 497.500,183.000" stroke-width="17.376" stroke="rgb(33,33,33)" fill="none" stroke-linecap="round"></path><path d="M 497.500,183.000 C 497.761,182.608 497.191,182.309 497.500,182.000" stroke-width="17.573" stroke="rgb(33,33,33)" fill="none" stroke-linecap="round"></path><path d="M 497.500,182.000 C 498.191,181.309 498.809,181.691 499.500,181.000" stroke-width="17.359" stroke="rgb(33,33,33)" fill="none" stroke-linecap="round"></path><path d="M 499.500,181.000 C 499.809,180.691 499.293,180.414 499.500,180.000" stroke-width="17.713" stroke="rgb(33,33,33)" fill="none" stroke-linecap="round"></path><path d="M 499.500,180.000 C 499.793,179.414 499.914,179.293 500.500,179.000" stroke-width="17.718" stroke="rgb(33,33,33)" fill="none" stroke-linecap="round"></path><path d="M 500.500,179.000 C 500.914,178.793 501.250,179.250 501.500,179.000" stroke-width="17.852" stroke="rgb(33,33,33)" fill="none" stroke-linecap="round"></path><path d="M 501.500,179.000 C 501.750,178.750 501.500,178.500 501.500,178.000" stroke-width="17.961" stroke="rgb(33,33,33)" fill="none" stroke-linecap="round"></path><path d="M 501.500,178.000 C 501.500,177.000 501.207,176.879 501.500,176.000" stroke-width="18.064" stroke="rgb(33,33,33)" fill="none" stroke-linecap="round"></path><path d="M 501.500,176.000 C 501.707,175.379 502.207,175.586 502.500,175.000" stroke-width="18.215" stroke="rgb(33,33,33)" fill="none" stroke-linecap="round"></path><path d="M 502.500,175.000 C 502.707,174.586 502.500,174.500 502.500,174.000" stroke-width="18.420" stroke="rgb(33,33,33)" fill="none" stroke-linecap="round"></path><path d="M 502.500,174.000 C 502.500,173.000 502.500,173.000 502.500,172.000" stroke-width="18.148" stroke="rgb(33,33,33)" fill="none" stroke-linecap="round"></path><path d="M 502.500,172.000 C 502.500,171.500 502.500,171.500 502.500,171.000" stroke-width="18.199" stroke="rgb(33,33,33)" fill="none" stroke-linecap="round"></path><path d="M 502.500,171.000 C 502.500,170.500 502.500,170.500 502.500,170.000" stroke-width="18.241" stroke="rgb(33,33,33)" fill="none" stroke-linecap="round"></path><path d="M 502.500,170.000 C 502.500,169.000 502.500,169.000 502.500,168.000" stroke-width="17.950" stroke="rgb(33,33,33)" fill="none" stroke-linecap="round"></path><path d="M 502.500,168.000 C 502.500,167.500 502.655,167.464 502.500,167.000" stroke-width="18.202" stroke="rgb(33,33,33)" fill="none" stroke-linecap="round"></path><path d="M 502.500,167.000 C 502.155,165.964 501.764,166.056 501.500,165.000" stroke-width="17.846" stroke="rgb(33,33,33)" fill="none" stroke-linecap="round"></path><path d="M 501.500,165.000 C 501.264,164.056 501.793,163.879 501.500,163.000" stroke-width="17.643" stroke="rgb(33,33,33)" fill="none" stroke-linecap="round"></path><path d="M 501.500,163.000 C 501.293,162.379 500.707,162.621 500.500,162.000" stroke-width="17.662" stroke="rgb(33,33,33)" fill="none" stroke-linecap="round"></path><path d="M 500.500,162.000 C 500.207,161.121 500.694,160.969 500.500,160.000" stroke-width="17.499" stroke="rgb(33,33,33)" fill="none" stroke-linecap="round"></path><path d="M 500.500,160.000 C 500.194,158.469 500.086,158.464 499.500,157.000" stroke-width="17.114" stroke="rgb(33,33,33)" fill="none" stroke-linecap="round"></path><path d="M 499.500,157.000 C 499.086,155.964 498.764,156.056 498.500,155.000" stroke-width="16.927" stroke="rgb(33,33,33)" fill="none" stroke-linecap="round"></path><path d="M 498.500,155.000 C 498.264,154.056 498.500,154.000 498.500,153.000" stroke-width="16.917" stroke="rgb(33,33,33)" fill="none" stroke-linecap="round"></path><path d="M 498.500,153.000 C 498.500,152.500 498.500,152.500 498.500,152.000" stroke-width="17.222" stroke="rgb(33,33,33)" fill="none" stroke-linecap="round"></path><path d="M 498.500,152.000 C 498.500,150.500 498.840,150.359 498.500,149.000" stroke-width="16.866" stroke="rgb(33,33,33)" fill="none" stroke-linecap="round"></path><path d="M 498.500,149.000 C 498.340,148.359 497.793,148.586 497.500,148.000" stroke-width="17.034" stroke="rgb(33,33,33)" fill="none" stroke-linecap="round"></path><path d="M 497.500,148.000 C 497.293,147.586 497.500,147.500 497.500,147.000" stroke-width="17.292" stroke="rgb(33,33,33)" fill="none" stroke-linecap="round"></path><path d="M 497.500,147.000 C 497.500,146.500 497.655,146.464 497.500,146.000" stroke-width="17.505" stroke="rgb(33,33,33)" fill="none" stroke-linecap="round"></path><path d="M 497.500,146.000 C 497.155,144.964 496.845,145.036 496.500,144.000" stroke-width="17.305" stroke="rgb(33,33,33)" fill="none" stroke-linecap="round"></path><path d="M 496.500,144.000 C 496.345,143.536 496.500,143.500 496.500,143.000" stroke-width="17.515" stroke="rgb(33,33,33)" fill="none" stroke-linecap="round"></path><path d="M 496.500,143.000 C 496.500,142.500 496.500,142.500 496.500,142.000" stroke-width="17.687" stroke="rgb(33,33,33)" fill="none" stroke-linecap="round"></path><path d="M 496.500,142.000 C 496.500,141.000 496.500,141.000 496.500,140.000" stroke-width="17.518" stroke="rgb(33,33,33)" fill="none" stroke-linecap="round"></path><path d="M 496.500,140.000 C 496.500,139.500 496.500,139.500 496.500,139.000" stroke-width="17.689" stroke="rgb(33,33,33)" fill="none" stroke-linecap="round"></path><path d="M 496.500,139.000 C 496.500,138.000 496.500,138.000 496.500,137.000" stroke-width="17.520" stroke="rgb(33,33,33)" fill="none" stroke-linecap="round"></path><path d="M 496.500,137.000 C 496.500,136.500 496.500,136.500 496.500,136.000" stroke-width="17.691" stroke="rgb(33,33,33)" fill="none" stroke-linecap="round"></path><path d="M 496.500,136.000 C 496.500,135.500 496.500,135.500 496.500,135.000" stroke-width="17.830" stroke="rgb(33,33,33)" fill="none" stroke-linecap="round"></path><path d="M 496.500,135.000 C 496.500,134.500 496.500,134.500 496.500,134.000" stroke-width="17.908" stroke="rgb(33,33,33)" fill="none" stroke-linecap="round"></path><path d="M 496.500,134.000 C 496.500,133.500 496.500,133.500 496.500,133.000" stroke-width="18.006" stroke="rgb(33,33,33)" fill="none" stroke-linecap="round"></path><path d="M 496.500,133.000 C 496.500,132.500 496.500,132.500 496.500,132.000" stroke-width="18.115" stroke="rgb(33,33,33)" fill="none" stroke-linecap="round"></path><path d="M 496.500,132.000 C 496.500,131.500 496.500,131.500 496.500,131.000" stroke-width="18.173" stroke="rgb(33,33,33)" fill="none" stroke-linecap="round"></path><path d="M 496.500,131.000 C 496.500,130.500 496.500,130.500 496.500,130.000" stroke-width="18.219" stroke="rgb(33,33,33)" fill="none" stroke-linecap="round"></path><path d="M 496.500,130.000 C 496.500,129.500 496.500,129.500 496.500,129.000" stroke-width="18.257" stroke="rgb(33,33,33)" fill="none" stroke-linecap="round"></path><path d="M 496.500,129.000 C 496.500,128.500 496.500,128.500 496.500,128.000" stroke-width="18.287" stroke="rgb(33,33,33)" fill="none" stroke-linecap="round"></path><path d="M 496.500,128.000 C 496.500,127.500 496.500,127.500 496.500,127.000" stroke-width="18.312" stroke="rgb(33,33,33)" fill="none" stroke-linecap="round"></path><path d="M 496.500,127.000 C 496.500,126.500 496.500,126.500 496.500,126.000" stroke-width="18.361" stroke="rgb(33,33,33)" fill="none" stroke-linecap="round"></path><path d="M 496.500,126.000 C 496.500,125.500 496.500,125.500 496.500,125.000" stroke-width="18.371" stroke="rgb(33,33,33)" fill="none" stroke-linecap="round"></path><path d="M 496.500,125.000 C 496.500,124.500 496.500,124.500 496.500,124.000" stroke-width="18.538" stroke="rgb(33,33,33)" fill="none" stroke-linecap="round"></path><path d="M 496.500,124.000 C 496.500,123.500 496.293,123.414 496.500,123.000" stroke-width="18.740" stroke="rgb(33,33,33)" fill="none" stroke-linecap="round"></path><path d="M 496.500,123.000 C 496.793,122.414 497.000,122.500 497.500,122.000" stroke-width="18.532" stroke="rgb(33,33,33)" fill="none" stroke-linecap="round"></path><path d="M 497.500,122.000 C 498.000,121.500 498.000,121.500 498.500,121.000" stroke-width="18.368" stroke="rgb(33,33,33)" fill="none" stroke-linecap="round"></path><path d="M 498.500,121.000 C 499.000,120.500 499.000,120.500 499.500,120.000" stroke-width="18.486" stroke="rgb(33,33,33)" fill="none" stroke-linecap="round"></path><path d="M 499.500,120.000 C 500.000,119.500 499.914,119.293 500.500,119.000" stroke-width="18.332" stroke="rgb(33,33,33)" fill="none" stroke-linecap="round"></path><path d="M 500.500,119.000 C 500.914,118.793 501.000,119.000 501.500,119.000" stroke-width="18.347" stroke="rgb(33,33,33)" fill="none" stroke-linecap="round"></path><path d="M 501.500,119.000 C 502.000,119.000 502.086,119.207 502.500,119.000" stroke-width="18.528" stroke="rgb(33,33,33)" fill="none" stroke-linecap="round"></path><path d="M 502.500,119.000 C 503.086,118.707 502.914,118.293 503.500,118.000" stroke-width="18.365" stroke="rgb(33,33,33)" fill="none" stroke-linecap="round"></path><path d="M 503.500,118.000 C 503.914,117.793 504.000,118.000 504.500,118.000" stroke-width="18.404" stroke="rgb(33,33,33)" fill="none" stroke-linecap="round"></path><path d="M 504.500,118.000 C 505.000,118.000 505.086,118.207 505.500,118.000" stroke-width="18.565" stroke="rgb(33,33,33)" fill="none" stroke-linecap="round"></path><path d="M 505.500,118.000 C 506.086,117.707 505.914,117.293 506.500,117.000" stroke-width="18.645" stroke="rgb(33,33,33)" fill="none" stroke-linecap="round"></path><path d="M 506.500,117.000 C 506.914,116.793 507.000,117.000 507.500,117.000" stroke-width="18.597" stroke="rgb(33,33,33)" fill="none" stroke-linecap="round"></path><path d="M 507.500,117.000 C 508.000,117.000 508.000,117.000 508.500,117.000" stroke-width="18.731" stroke="rgb(33,33,33)" fill="none" stroke-linecap="round"></path><path d="M 508.500,117.000 C 509.500,117.000 509.500,117.000 510.500,117.000" stroke-width="18.666" stroke="rgb(33,33,33)" fill="none" stroke-linecap="round"></path><path d="M 510.500,117.000 C 511.000,117.000 511.000,117.000 511.500,117.000" stroke-width="18.787" stroke="rgb(33,33,33)" fill="none" stroke-linecap="round"></path><path d="M 511.500,117.000 C 512.000,117.000 512.000,117.000 512.500,117.000" stroke-width="18.710" stroke="rgb(33,33,33)" fill="none" stroke-linecap="round"></path><path d="M 512.500,117.000 C 513.500,117.000 513.500,117.000 514.500,117.000" stroke-width="18.649" stroke="rgb(33,33,33)" fill="none" stroke-linecap="round"></path><path d="M 514.500,117.000 C 515.000,117.000 515.000,117.000 515.500,117.000" stroke-width="18.773" stroke="rgb(33,33,33)" fill="none" stroke-linecap="round"></path><path d="M 515.500,117.000 C 516.500,117.000 516.500,117.000 517.500,117.000" stroke-width="18.360" stroke="rgb(33,33,33)" fill="none" stroke-linecap="round"></path><path d="M 517.500,117.000 C 518.000,117.000 518.000,117.000 518.500,117.000" stroke-width="18.400" stroke="rgb(33,33,33)" fill="none" stroke-linecap="round"></path><path d="M 518.500,117.000 C 519.000,117.000 519.000,117.000 519.500,117.000" stroke-width="18.365" stroke="rgb(33,33,33)" fill="none" stroke-linecap="round"></path><path d="M 519.500,117.000 C 520.000,117.000 520.000,117.000 520.500,117.000" stroke-width="18.374" stroke="rgb(33,33,33)" fill="none" stroke-linecap="round"></path><path d="M 520.500,117.000 C 521.500,117.000 521.621,116.707 522.500,117.000" stroke-width="18.397" stroke="rgb(33,33,33)" fill="none" stroke-linecap="round"></path><path d="M 522.500,117.000 C 523.121,117.207 522.914,117.707 523.500,118.000" stroke-width="18.485" stroke="rgb(33,33,33)" fill="none" stroke-linecap="round"></path><path d="M 523.500,118.000 C 523.914,118.207 524.086,117.793 524.500,118.000" stroke-width="18.500" stroke="rgb(33,33,33)" fill="none" stroke-linecap="round"></path><path d="M 524.500,118.000 C 525.086,118.293 524.914,118.707 525.500,119.000" stroke-width="18.343" stroke="rgb(33,33,33)" fill="none" stroke-linecap="round"></path><path d="M 525.500,119.000 C 525.914,119.207 526.086,118.793 526.500,119.000" stroke-width="18.357" stroke="rgb(33,33,33)" fill="none" stroke-linecap="round"></path><path d="M 526.500,119.000 C 527.086,119.293 526.914,119.707 527.500,120.000" stroke-width="18.272" stroke="rgb(33,33,33)" fill="none" stroke-linecap="round"></path><path d="M 527.500,120.000 C 527.914,120.207 528.086,119.793 528.500,120.000" stroke-width="18.263" stroke="rgb(33,33,33)" fill="none" stroke-linecap="round"></path><path d="M 528.500,120.000 C 529.086,120.293 529.000,120.500 529.500,121.000" stroke-width="18.389" stroke="rgb(33,33,33)" fill="none" stroke-linecap="round"></path><path d="M 529.500,121.000 C 530.000,121.500 530.207,121.414 530.500,122.000" stroke-width="18.503" stroke="rgb(33,33,33)" fill="none" stroke-linecap="round"></path><path d="M 530.500,122.000 C 530.707,122.414 530.250,122.750 530.500,123.000" stroke-width="18.645" stroke="rgb(33,33,33)" fill="none" stroke-linecap="round"></path><path d="M 530.500,123.000 C 530.750,123.250 531.250,122.750 531.500,123.000" stroke-width="18.598" stroke="rgb(33,33,33)" fill="none" stroke-linecap="round"></path><path d="M 531.500,123.000 C 531.750,123.250 531.250,123.750 531.500,124.000" stroke-width="18.560" stroke="rgb(33,33,33)" fill="none" stroke-linecap="round"></path><path d="M 531.500,124.000 C 531.750,124.250 532.250,123.750 532.500,124.000" stroke-width="18.529" stroke="rgb(33,33,33)" fill="none" stroke-linecap="round"></path><path d="M 532.500,124.000 C 532.750,124.250 532.500,124.500 532.500,125.000" stroke-width="18.536" stroke="rgb(33,33,33)" fill="none" stroke-linecap="round"></path><path d="M 532.500,125.000 C 532.500,125.500 532.500,125.500 532.500,126.000" stroke-width="18.510" stroke="rgb(33,33,33)" fill="none" stroke-linecap="round"></path><path d="M 532.500,126.000 C 532.500,126.500 532.250,126.750 532.500,127.000" stroke-width="18.718" stroke="rgb(33,33,33)" fill="none" stroke-linecap="round"></path><path d="M 532.500,127.000 C 532.750,127.250 533.250,126.750 533.500,127.000" stroke-width="18.655" stroke="rgb(33,33,33)" fill="none" stroke-linecap="round"></path><path d="M 533.500,127.000 C 533.750,127.250 533.500,127.500 533.500,128.000" stroke-width="18.915" stroke="rgb(33,33,33)" fill="none" stroke-linecap="round"></path><path d="M 533.500,128.000 C 533.500,128.500 533.500,128.500 533.500,129.000" stroke-width="19.123" stroke="rgb(33,33,33)" fill="none" stroke-linecap="round"></path><path d="M 533.500,129.000 C 533.500,129.500 533.500,129.500 533.500,130.000" stroke-width="18.976" stroke="rgb(33,33,33)" fill="none" stroke-linecap="round"></path><path d="M 533.500,130.000 C 533.500,130.500 533.707,130.586 533.500,131.000" stroke-width="18.859" stroke="rgb(33,33,33)" fill="none" stroke-linecap="round"></path><path d="M 533.500,131.000 C 533.207,131.586 532.941,131.449 532.500,132.000" stroke-width="18.625" stroke="rgb(33,33,33)" fill="none" stroke-linecap="round"></path><path d="M 532.500,132.000 C 530.941,133.949 531.397,134.419 529.500,136.000" stroke-width="17.310" stroke="rgb(33,33,33)" fill="none" stroke-linecap="round"></path><path d="M 529.500,136.000 C 525.397,139.419 524.850,138.795 520.500,142.000" stroke-width="15.197" stroke="rgb(33,33,33)" fill="none" stroke-linecap="round"></path><path d="M 520.500,142.000 C 515.350,145.795 515.477,145.971 510.500,150.000" stroke-width="13.059" stroke="rgb(33,33,33)" fill="none" stroke-linecap="round"></path><path d="M 510.500,150.000 C 504.977,154.471 505.095,154.621 499.500,159.000" stroke-width="11.741" stroke="rgb(33,33,33)" fill="none" stroke-linecap="round"></path><path d="M 499.500,159.000 C 493.595,163.621 493.372,163.337 487.500,168.000" stroke-width="10.773" stroke="rgb(33,33,33)" fill="none" stroke-linecap="round"></path><path d="M 487.500,168.000 C 476.372,176.837 476.862,177.478 465.500,186.000" stroke-width="9.119" stroke="rgb(33,33,33)" fill="none" stroke-linecap="round"></path><path d="M 465.500,186.000 C 450.862,196.978 450.027,195.878 435.500,207.000" stroke-width="7.475" stroke="rgb(33,33,33)" fill="none" stroke-linecap="round"></path><path d="M 435.500,207.000 C 418.027,220.378 419.032,221.693 401.500,235.000" stroke-width="6.750" stroke="rgb(33,33,33)" fill="none" stroke-linecap="round"></path><path d="M 401.500,235.000 C 377.532,253.193 376.158,251.429 352.500,270.000" stroke-width="6.750" stroke="rgb(33,33,33)" fill="none" stroke-linecap="round"></path><path d="M 352.500,270.000 C 329.658,287.929 330.849,289.421 308.500,308.000" stroke-width="6.750" stroke="rgb(33,33,33)" fill="none" stroke-linecap="round"></path><path d="M 308.500,308.000 C 289.349,323.921 289.273,323.861 269.500,339.000" stroke-width="6.750" stroke="rgb(33,33,33)" fill="none" stroke-linecap="round"></path><path d="M 269.500,339.000 C 257.273,348.361 256.861,347.817 244.500,357.000" stroke-width="6.750" stroke="rgb(33,33,33)" fill="none" stroke-linecap="round"></path><path d="M 244.500,357.000 C 239.361,360.817 239.618,361.161 234.500,365.000" stroke-width="6.750" stroke="rgb(33,33,33)" fill="none" stroke-linecap="round"></path><path d="M 234.500,365.000 C 231.618,367.161 231.500,367.000 228.500,369.000" stroke-width="6.750" stroke="rgb(33,33,33)" fill="none" stroke-linecap="round"></path><path d="M 228.500,369.000 C 225.500,371.000 225.302,370.758 222.500,373.000" stroke-width="6.750" stroke="rgb(33,33,33)" fill="none" stroke-linecap="round"></path><path d="M 222.500,373.000 C 220.302,374.758 220.623,375.142 218.500,377.000" stroke-width="6.798" stroke="rgb(33,33,33)" fill="none" stroke-linecap="round"></path><path d="M 218.500,377.000 C 216.623,378.642 216.692,378.904 214.500,380.000" stroke-width="7.573" stroke="rgb(33,33,33)" fill="none" stroke-linecap="round"></path><path d="M 214.500,380.000 C 212.692,380.904 212.308,380.096 210.500,381.000" stroke-width="8.330" stroke="rgb(33,33,33)" fill="none" stroke-linecap="round"></path><path d="M 210.500,381.000 C 208.308,382.096 208.611,382.680 206.500,384.000" stroke-width="9.021" stroke="rgb(33,33,33)" fill="none" stroke-linecap="round"></path><path d="M 206.500,384.000 C 204.611,385.180 204.550,385.121 202.500,386.000" stroke-width="9.711" stroke="rgb(33,33,33)" fill="none" stroke-linecap="round"></path><path d="M 202.500,386.000 C 201.050,386.621 200.781,386.146 199.500,387.000" stroke-width="10.484" stroke="rgb(33,33,33)" fill="none" stroke-linecap="round"></path><path d="M 199.500,387.000 C 197.781,388.146 198.219,388.854 196.500,390.000" stroke-width="11.066" stroke="rgb(33,33,33)" fill="none" stroke-linecap="round"></path><path d="M 196.500,390.000 C 195.219,390.854 194.964,390.414 193.500,391.000" stroke-width="11.724" stroke="rgb(33,33,33)" fill="none" stroke-linecap="round"></path><path d="M 193.500,391.000 C 192.464,391.414 192.383,391.338 191.500,392.000" stroke-width="12.450" stroke="rgb(33,33,33)" fill="none" stroke-linecap="round"></path></svg>