<svg xmlns="http://www.w3.org/2000/svg" xmlns:xlink="http://www.w3.org/1999/xlink" viewBox="0 0 360 500"><path d="M 271.082,421.238 C 269.855,417.289 269.664,417.335 268.628,413.339" stroke-width="19.747" stroke="rgb(33,33,33)" fill="none" stroke-linecap="round"></path><path d="M 268.628,413.339 C 267.970,410.798 267.862,410.773 267.694,408.163" stroke-width="19.187" stroke="rgb(33,33,33)" fill="none" stroke-linecap="round"></path><path d="M 267.694,408.163 C 267.486,404.941 267.530,404.880 267.876,401.674" stroke-width="18.743" stroke="rgb(33,33,33)" fill="none" stroke-linecap="round"></path><path d="M 267.876,401.674 C 268.048,400.082 268.300,400.119 268.731,398.567" stroke-width="18.728" stroke="rgb(33,33,33)" fill="none" stroke-linecap="round"></path><path d="M 268.731,398.567 C 269.474,395.893 269.904,395.955 270.224,393.222" stroke-width="18.432" stroke="rgb(33,33,33)" fill="none" stroke-linecap="round"></path><path d="M 270.224,393.222 C 270.684,389.299 270.302,389.239 270.292,385.256" stroke-width="17.415" stroke="rgb(33,33,33)" fill="none" stroke-linecap="round"></path><path d="M 270.292,385.256 C 270.283,382.024 270.273,382.024 270.186,378.793" stroke-width="17.365" stroke="rgb(33,33,33)" fill="none" stroke-linecap="round"></path><path d="M 270.186,378.793 C 270.029,372.994 270.244,372.969 269.803,367.196" stroke-width="16.048" stroke="rgb(33,33,33)" fill="none" stroke-linecap="round"></path><path d="M 269.803,367.196 C 269.597,364.495 269.577,364.457 268.891,361.845" stroke-width="16.057" stroke="rgb(33,33,33)" fill="none" stroke-linecap="round"></path><path d="M 268.891,361.845 C 268.359,359.818 267.997,359.926 267.366,357.919" stroke-width="16.382" stroke="rgb(33,33,33)" fill="none" stroke-linecap="round"></path><path d="M 267.366,357.919 C 266.235,354.321 265.730,354.350 265.367,350.636" stroke-width="16.293" stroke="rgb(33,33,33)" fill="none" stroke-linecap="round"></path><path d="M 265.367,350.636 C 264.923,346.101 265.550,346.029 265.752,341.422" stroke-width="16.294" stroke="rgb(33,33,33)" fill="none" stroke-linecap="round"></path><path d="M 265.752,341.422 C 265.888,338.314 265.924,338.315 266.042,335.207" stroke-width="16.155" stroke="rgb(33,33,33)" fill="none" stroke-linecap="round"></path><path d="M 266.042,335.207 C 266.087,334.019 265.962,334.011 266.077,332.830" stroke-width="16.373" stroke="rgb(33,33,33)" fill="none" stroke-linecap="round"></path><path d="M 266.077,332.830 C 266.368,329.850 266.419,329.851 266.855,326.885" stroke-width="15.953" stroke="rgb(33,33,33)" fill="none" stroke-linecap="round"></path><path d="M 266.855,326.885 C 267.327,323.669 267.369,323.675 267.893,320.467" stroke-width="15.616" stroke="rgb(33,33,33)" fill="none" stroke-linecap="round"></path></svg>