<svg xmlns="http://www.w3.org/2000/svg" xmlns:xlink="http://www.w3.org/1999/xlink" viewBox="0 0 360 500"><path d="M 178.418,250.813 C 168.445,244.552 169.103,243.111 158.472,238.290" stroke-width="19.284" stroke="rgb(33,33,33)" fill="none" stroke-linecap="round"></path><path d="M 158.472,238.290 C 147.446,233.290 146.627,235.198 135.105,231.172" stroke-width="15.255" stroke="rgb(33,33,33)" fill="none" stroke-linecap="round"></path><path d="M 135.105,231.172 C 121.766,226.510 121.749,226.459 108.750,220.914" stroke-width="12.698" stroke="rgb(33,33,33)" fill="none" stroke-linecap="round"></path><path d="M 108.750,220.914 C 96.966,215.887 97.047,215.669 85.538,210.027" stroke-width="12.104" stroke="rgb(33,33,33)" fill="none" stroke-linecap="round"></path><path d="M 85.538,210.027 C 75.188,204.953 75.281,204.762 65.032,199.482" stroke-width="10.532" stroke="rgb(33,33,33)" fill="none" stroke-linecap="round"></path><path d="M 65.032,199.482 C 57.058,195.374 56.897,195.652 49.091,191.252" stroke-width="9.940" stroke="rgb(33,33,33)" fill="none" stroke-linecap="round"></path><path d="M 49.091,191.252 C 43.850,188.297 43.194,188.816 38.937,184.772" stroke-width="10.350" stroke="rgb(33,33,33)" fill="none" stroke-linecap="round"></path><path d="M 38.937,184.772 C 35.813,181.804 34.682,181.150 34.330,177.227" stroke-width="10.833" stroke="rgb(33,33,33)" fill="none" stroke-linecap="round"></path><path d="M 34.330,177.227 C 33.994,173.490 34.992,172.658 37.561,169.451" stroke-width="11.202" stroke="rgb(33,33,33)" fill="none" stroke-linecap="round"></path><path d="M 37.561,169.451 C 41.743,164.230 42.190,164.194 47.832,160.372" stroke-width="11.204" stroke="rgb(33,33,33)" fill="none" stroke-linecap="round"></path><path d="M 47.832,160.372 C 55.965,154.863 56.192,154.990 65.112,150.789" stroke-width="10.606" stroke="rgb(33,33,33)" fill="none" stroke-linecap="round"></path><path d="M 65.112,150.789 C 74.857,146.200 74.997,146.394 85.163,142.792" stroke-width="10.220" stroke="rgb(33,33,33)" fill="none" stroke-linecap="round"></path><path d="M 85.163,142.792 C 95.682,139.066 95.761,139.249 106.483,136.133" stroke-width="9.809" stroke="rgb(33,33,33)" fill="none" stroke-linecap="round"></path><path d="M 106.483,136.133 C 116.366,133.261 116.402,133.375 126.372,130.815" stroke-width="9.602" stroke="rgb(33,33,33)" fill="none" stroke-linecap="round"></path><path d="M 126.372,130.815 C 135.023,128.593 134.943,128.048 143.725,126.569" stroke-width="9.758" stroke="rgb(33,33,33)" fill="none" stroke-linecap="round"></path><path d="M 143.725,126.569 C 151.580,125.246 151.673,125.595 159.646,125.211" stroke-width="9.938" stroke="rgb(33,33,33)" fill="none" stroke-linecap="round"></path><path d="M 159.646,125.211 C 166.153,124.897 166.259,124.570 172.685,125.173" stroke-width="10.160" stroke="rgb(33,33,33)" fill="none" stroke-linecap="round"></path><path d="M 172.685,125.173 C 175.670,125.453 176.986,125.671 178.467,126.978" stroke-width="10.828" stroke="rgb(33,33,33)" fill="none" stroke-linecap="round"></path><path d="M 178.467,126.978 C 179.071,127.511 177.852,128.132 176.856,128.853" stroke-width="11.738" stroke="rgb(33,33,33)" fill="none" stroke-linecap="round"></path><path d="M 176.856,128.853 C 171.173,132.967 170.925,132.666 165.109,136.648" stroke-width="11.453" stroke="rgb(33,33,33)" fill="none" stroke-linecap="round"></path><path d="M 165.109,136.648 C 156.235,142.724 156.043,142.477 147.476,148.970" stroke-width="10.925" stroke="rgb(33,33,33)" fill="none" stroke-linecap="round"></path><path d="M 147.476,148.970 C 136.353,157.401 136.207,157.282 125.730,166.496" stroke-width="9.853" stroke="rgb(33,33,33)" fill="none" stroke-linecap="round"></path><path d="M 125.730,166.496 C 114.645,176.245 114.877,176.530 104.352,186.897" stroke-width="9.239" stroke="rgb(33,33,33)" fill="none" stroke-linecap="round"></path><path d="M 104.352,186.897 C 94.705,196.399 94.876,196.572 85.387,206.235" stroke-width="8.982" stroke="rgb(33,33,33)" fill="none" stroke-linecap="round"></path><path d="M 109.688,165.500 C 114.128,165.137 114.227,165.729 118.568,164.774" stroke-width="19.995" stroke="rgb(33,33,33)" fill="none" stroke-linecap="round"></path><path d="M 118.568,164.774 C 136.142,160.908 136.052,160.348 153.519,155.859" stroke-width="15.296" stroke="rgb(33,33,33)" fill="none" stroke-linecap="round"></path><path d="M 153.519,155.859 C 159.497,154.322 159.496,154.317 165.459,152.723" stroke-width="14.224" stroke="rgb(33,33,33)" fill="none" stroke-linecap="round"></path><path d="M 165.459,152.723 C 173.560,150.557 173.612,150.721 181.647,148.340" stroke-width="13.512" stroke="rgb(33,33,33)" fill="none" stroke-linecap="round"></path><path d="M 181.647,148.340 C 185.568,147.178 187.088,146.200 189.372,145.636" stroke-width="13.489" stroke="rgb(33,33,33)" fill="none" stroke-linecap="round"></path><path d="M 189.372,145.636 C 190.006,145.479 188.433,146.275 187.483,146.898" stroke-width="14.148" stroke="rgb(33,33,33)" fill="none" stroke-linecap="round"></path><path d="M 187.483,146.898 C 183.546,149.480 183.550,149.487 179.599,152.047" stroke-width="13.969" stroke="rgb(33,33,33)" fill="none" stroke-linecap="round"></path><path d="M 179.599,152.047 C 174.003,155.672 174.010,155.684 168.388,159.269" stroke-width="13.170" stroke="rgb(33,33,33)" fill="none" stroke-linecap="round"></path><path d="M 168.388,159.269 C 160.538,164.274 160.529,164.260 152.655,169.227" stroke-width="12.066" stroke="rgb(33,33,33)" fill="none" stroke-linecap="round"></path><path d="M 152.655,169.227 C 144.875,174.134 144.926,174.219 137.080,179.017" stroke-width="11.512" stroke="rgb(33,33,33)" fill="none" stroke-linecap="round"></path><path d="M 137.080,179.017 C 130.162,183.248 130.134,183.206 123.126,187.286" stroke-width="11.329" stroke="rgb(33,33,33)" fill="none" stroke-linecap="round"></path><path d="M 123.126,187.286 C 119.044,189.662 119.041,189.662 114.899,191.930" stroke-width="11.474" stroke="rgb(33,33,33)" fill="none" stroke-linecap="round"></path><path d="M 114.899,191.930 C 113.465,192.715 111.468,193.601 111.973,193.391" stroke-width="12.270" stroke="rgb(33,33,33)" fill="none" stroke-linecap="round"></path><path d="M 111.973,193.391 C 112.986,192.971 114.916,191.941 117.936,190.670" stroke-width="12.638" stroke="rgb(33,33,33)" fill="none" stroke-linecap="round"></path><path d="M 117.936,190.670 C 124.146,188.056 124.192,188.162 130.433,185.620" stroke-width="12.345" stroke="rgb(33,33,33)" fill="none" stroke-linecap="round"></path><path d="M 130.433,185.620 C 141.695,181.033 141.583,180.744 152.943,176.411" stroke-width="11.360" stroke="rgb(33,33,33)" fill="none" stroke-linecap="round"></path><path d="M 152.943,176.411 C 171.228,169.437 171.113,168.997 189.724,163.007" stroke-width="9.825" stroke="rgb(33,33,33)" fill="none" stroke-linecap="round"></path><path d="M 189.724,163.007 C 201.680,159.159 201.815,159.478 214.077,156.736" stroke-width="9.515" stroke="rgb(33,33,33)" fill="none" stroke-linecap="round"></path><path d="M 214.077,156.736 C 222.952,154.752 223.007,154.694 231.999,153.555" stroke-width="9.439" stroke="rgb(33,33,33)" fill="none" stroke-linecap="round"></path><path d="M 231.999,153.555 C 234.761,153.205 238.208,152.922 237.586,153.759" stroke-width="10.172" stroke="rgb(33,33,33)" fill="none" stroke-linecap="round"></path><path d="M 237.586,153.759 C 236.458,155.276 233.177,156.314 228.500,158.263" stroke-width="10.550" stroke="rgb(33,33,33)" fill="none" stroke-linecap="round"></path><path d="M 228.500,158.263 C 215.374,163.734 215.295,163.575 201.981,168.599" stroke-width="9.781" stroke="rgb(33,33,33)" fill="none" stroke-linecap="round"></path><path d="M 201.981,168.599 C 180.411,176.738 180.375,176.645 158.731,184.588" stroke-width="8.442" stroke="rgb(33,33,33)" fill="none" stroke-linecap="round"></path><path d="M 158.731,184.588 C 132.582,194.183 132.052,192.921 106.395,203.675" stroke-width="7.299" stroke="rgb(33,33,33)" fill="none" stroke-linecap="round"></path><path d="M 106.395,203.675 C 83.002,213.480 82.399,212.826 60.631,225.707" stroke-width="6.750" stroke="rgb(33,33,33)" fill="none" stroke-linecap="round"></path></svg>