<svg xmlns="http://www.w3.org/2000/svg" xmlns:xlink="http://www.w3.org/1999/xlink" viewBox="0 0 360 500"><path d="M 111.533,180.469 C 115.463,189.193 115.699,189.094 119.394,197.916" stroke-width="18.933" stroke="rgb(33,33,33)" fill="none" stroke-linecap="round"></path><path d="M 119.394,197.916 C 123.323,207.297 123.674,207.201 126.782,216.875" stroke-width="15.636" stroke="rgb(33,33,33)" fill="none" stroke-linecap="round"></path><path d="M 126.782,216.875 C 131.217,230.678 130.560,230.892 134.480,244.869" stroke-width="12.836" stroke="rgb(33,33,33)" fill="none" stroke-linecap="round"></path><path d="M 134.480,244.869 C 138.075,257.689 139.798,257.482 141.812,270.469" stroke-width="11.406" stroke="rgb(33,33,33)" fill="none" stroke-linecap="round"></path><path d="M 141.812,270.469 C 143.033,278.344 142.055,278.654 140.950,286.594" stroke-width="11.501" stroke="rgb(33,33,33)" fill="none" stroke-linecap="round"></path><path d="M 140.950,286.594 C 140.387,290.637 140.494,291.085 138.477,294.435" stroke-width="12.030" stroke="rgb(33,33,33)" fill="none" stroke-linecap="round"></path><path d="M 138.477,294.435 C 137.309,296.376 136.770,296.737 134.580,297.175" stroke-width="12.751" stroke="rgb(33,33,33)" fill="none" stroke-linecap="round"></path><path d="M 134.580,297.175 C 131.621,297.766 131.109,297.635 128.179,296.493" stroke-width="12.018" stroke="rgb(33,33,33)" fill="none" stroke-linecap="round"></path><path d="M 128.179,296.493 C 123.695,294.745 123.638,294.388 119.751,291.394" stroke-width="11.725" stroke="rgb(33,33,33)" fill="none" stroke-linecap="round"></path><path d="M 119.751,291.394 C 113.355,286.469 113.469,286.248 107.612,280.655" stroke-width="11.613" stroke="rgb(33,33,33)" fill="none" stroke-linecap="round"></path><path d="M 107.612,280.655 C 101.110,274.446 100.500,274.850 95.032,267.790" stroke-width="10.934" stroke="rgb(33,33,33)" fill="none" stroke-linecap="round"></path><path d="M 95.032,267.790 C 90.135,261.468 90.055,261.226 86.882,253.891" stroke-width="10.939" stroke="rgb(33,33,33)" fill="none" stroke-linecap="round"></path><path d="M 86.882,253.891 C 83.909,247.018 83.572,246.776 82.741,239.374" stroke-width="10.758" stroke="rgb(33,33,33)" fill="none" stroke-linecap="round"></path><path d="M 82.741,239.374 C 81.878,231.690 81.616,231.170 83.493,223.719" stroke-width="10.824" stroke="rgb(33,33,33)" fill="none" stroke-linecap="round"></path><path d="M 83.493,223.719 C 85.391,216.185 86.437,216.307 90.292,209.404" stroke-width="10.436" stroke="rgb(33,33,33)" fill="none" stroke-linecap="round"></path><path d="M 90.292,209.404 C 94.164,202.469 93.565,201.721 98.947,196.043" stroke-width="10.593" stroke="rgb(33,33,33)" fill="none" stroke-linecap="round"></path><path d="M 98.947,196.043 C 104.225,190.474 104.791,190.584 111.612,186.911" stroke-width="10.452" stroke="rgb(33,33,33)" fill="none" stroke-linecap="round"></path><path d="M 111.612,186.911 C 119.180,182.835 119.360,182.346 127.724,180.545" stroke-width="10.480" stroke="rgb(33,33,33)" fill="none" stroke-linecap="round"></path><path d="M 127.724,180.545 C 136.916,178.566 137.408,178.300 146.724,179.352" stroke-width="10.208" stroke="rgb(33,33,33)" fill="none" stroke-linecap="round"></path><path d="M 146.724,179.352 C 156.213,180.424 157.037,180.216 165.334,184.794" stroke-width="9.899" stroke="rgb(33,33,33)" fill="none" stroke-linecap="round"></path><path d="M 165.334,184.794 C 174.155,189.661 173.750,190.920 180.960,198.242" stroke-width="9.670" stroke="rgb(33,33,33)" fill="none" stroke-linecap="round"></path><path d="M 180.960,198.242 C 188.911,206.316 189.044,206.386 195.657,215.586" stroke-width="9.516" stroke="rgb(33,33,33)" fill="none" stroke-linecap="round"></path><path d="M 195.657,215.586 C 202.219,224.714 202.387,224.821 207.310,234.898" stroke-width="9.342" stroke="rgb(33,33,33)" fill="none" stroke-linecap="round"></path><path d="M 207.310,234.898 C 210.817,242.076 212.834,242.776 212.517,250.098" stroke-width="9.538" stroke="rgb(33,33,33)" fill="none" stroke-linecap="round"></path><path d="M 212.517,250.098 C 212.265,255.917 210.336,256.473 206.173,261.181" stroke-width="9.839" stroke="rgb(33,33,33)" fill="none" stroke-linecap="round"></path><path d="M 206.173,261.181 C 200.716,267.352 200.352,267.518 193.277,271.856" stroke-width="9.910" stroke="rgb(33,33,33)" fill="none" stroke-linecap="round"></path><path d="M 193.277,271.856 C 185.030,276.912 184.750,276.943 175.530,279.969" stroke-width="9.926" stroke="rgb(33,33,33)" fill="none" stroke-linecap="round"></path><path d="M 175.530,279.969 C 165.024,283.417 164.831,283.931 153.826,284.804" stroke-width="9.672" stroke="rgb(33,33,33)" fill="none" stroke-linecap="round"></path><path d="M 153.826,284.804 C 138.501,286.019 138.334,284.801 122.870,284.145" stroke-width="8.952" stroke="rgb(33,33,33)" fill="none" stroke-linecap="round"></path><path d="M 122.870,284.145 C 106.321,283.443 106.309,283.427 89.800,282.087" stroke-width="8.355" stroke="rgb(33,33,33)" fill="none" stroke-linecap="round"></path><path d="M 89.800,282.087 C 76.299,280.991 76.207,281.375 62.849,279.272" stroke-width="8.239" stroke="rgb(33,33,33)" fill="none" stroke-linecap="round"></path><path d="M 62.849,279.272 C 53.359,277.778 52.791,278.372 44.104,274.892" stroke-width="8.413" stroke="rgb(33,33,33)" fill="none" stroke-linecap="round"></path><path d="M 44.104,274.892 C 40.439,273.424 38.076,272.543 38.145,269.375" stroke-width="9.159" stroke="rgb(33,33,33)" fill="none" stroke-linecap="round"></path><path d="M 38.145,269.375 C 38.247,264.727 40.463,263.621 44.446,259.262" stroke-width="9.562" stroke="rgb(33,33,33)" fill="none" stroke-linecap="round"></path><path d="M 44.446,259.262 C 51.971,251.026 52.255,251.026 61.161,244.185" stroke-width="9.308" stroke="rgb(33,33,33)" fill="none" stroke-linecap="round"></path><path d="M 61.161,244.185 C 73.994,234.328 74.128,234.359 87.924,225.865" stroke-width="8.721" stroke="rgb(33,33,33)" fill="none" stroke-linecap="round"></path><path d="M 87.924,225.865 C 105.816,214.849 106.035,215.154 124.537,205.165" stroke-width="7.734" stroke="rgb(33,33,33)" fill="none" stroke-linecap="round"></path><path d="M 124.537,205.165 C 145.110,194.058 145.576,194.909 166.075,183.674" stroke-width="7.331" stroke="rgb(33,33,33)" fill="none" stroke-linecap="round"></path><path d="M 166.075,183.674 C 183.904,173.902 183.807,173.696 201.193,163.151" stroke-width="6.939" stroke="rgb(33,33,33)" fill="none" stroke-linecap="round"></path><path d="M 201.193,163.151 C 216.163,154.072 215.992,153.792 230.787,144.425" stroke-width="6.813" stroke="rgb(33,33,33)" fill="none" stroke-linecap="round"></path><path d="M 230.787,144.425 C 243.080,136.642 243.230,136.863 255.369,128.851" stroke-width="6.980" stroke="rgb(33,33,33)" fill="none" stroke-linecap="round"></path><path d="M 255.369,128.851 C 260.577,125.413 260.478,125.254 265.481,121.526" stroke-width="7.590" stroke="rgb(33,33,33)" fill="none" stroke-linecap="round"></path><path d="M 265.481,121.526 C 266.244,120.957 267.391,120.091 266.902,120.257" stroke-width="8.592" stroke="rgb(33,33,33)" fill="none" stroke-linecap="round"></path><path d="M 266.902,120.257 C 265.312,120.797 264.140,121.660 261.322,122.939" stroke-width="9.286" stroke="rgb(33,33,33)" fill="none" stroke-linecap="round"></path><path d="M 261.322,122.939 C 253.087,126.677 252.794,126.090 244.796,130.292" stroke-width="9.438" stroke="rgb(33,33,33)" fill="none" stroke-linecap="round"></path><path d="M 244.796,130.292 C 228.819,138.685 228.741,138.652 213.372,148.128" stroke-width="8.551" stroke="rgb(33,33,33)" fill="none" stroke-linecap="round"></path><path d="M 213.372,148.128 C 196.919,158.272 197.001,158.456 181.153,169.533" stroke-width="8.095" stroke="rgb(33,33,33)" fill="none" stroke-linecap="round"></path><path d="M 181.153,169.533 C 164.922,180.877 165.171,181.234 149.214,192.969" stroke-width="7.419" stroke="rgb(33,33,33)" fill="none" stroke-linecap="round"></path><path d="M 149.214,192.969 C 135.947,202.726 135.162,201.923 122.704,212.516" stroke-width="7.244" stroke="rgb(33,33,33)" fill="none" stroke-linecap="round"></path><path d="M 122.704,212.516 C 118.412,216.166 115.116,218.033 115.714,221.455" stroke-width="7.880" stroke="rgb(33,33,33)" fill="none" stroke-linecap="round"></path><path d="M 115.714,221.455 C 116.244,224.491 120.032,225.156 124.960,225.432" stroke-width="8.593" stroke="rgb(33,33,33)" fill="none" stroke-linecap="round"></path><path d="M 124.960,225.432 C 140.381,226.296 140.697,224.764 156.411,223.736" stroke-width="7.988" stroke="rgb(33,33,33)" fill="none" stroke-linecap="round"></path><path d="M 156.411,223.736 C 175.125,222.512 175.123,222.446 193.816,220.930" stroke-width="7.586" stroke="rgb(33,33,33)" fill="none" stroke-linecap="round"></path><path d="M 193.816,220.930 C 211.656,219.483 211.634,219.216 229.477,217.811" stroke-width="7.346" stroke="rgb(33,33,33)" fill="none" stroke-linecap="round"></path><path d="M 229.477,217.811 C 245.440,216.554 245.436,216.259 261.428,215.608" stroke-width="7.334" stroke="rgb(33,33,33)" fill="none" stroke-linecap="round"></path><path d="M 261.428,215.608 C 273.405,215.120 273.451,215.052 285.415,215.534" stroke-width="7.569" stroke="rgb(33,33,33)" fill="none" stroke-linecap="round"></path><path d="M 285.415,215.534 C 292.325,215.813 292.854,215.342 299.177,217.130" stroke-width="8.118" stroke="rgb(33,33,33)" fill="none" stroke-linecap="round"></path><path d="M 299.177,217.130 C 300.873,217.609 301.895,218.772 301.452,220.068" stroke-width="9.006" stroke="rgb(33,33,33)" fill="none" stroke-linecap="round"></path><path d="M 301.452,220.068 C 300.741,222.148 299.407,222.339 296.868,223.882" stroke-width="9.767" stroke="rgb(33,33,33)" fill="none" stroke-linecap="round"></path><path d="M 296.868,223.882 C 289.422,228.407 289.298,228.284 281.483,232.204" stroke-width="9.809" stroke="rgb(33,33,33)" fill="none" stroke-linecap="round"></path><path d="M 281.483,232.204 C 270.165,237.881 270.298,238.250 258.603,243.076" stroke-width="9.420" stroke="rgb(33,33,33)" fill="none" stroke-linecap="round"></path><path d="M 258.603,243.076 C 244.080,249.069 243.836,248.488 229.047,253.842" stroke-width="8.997" stroke="rgb(33,33,33)" fill="none" stroke-linecap="round"></path><path d="M 229.047,253.842 C 214.358,259.160 214.326,259.072 199.648,264.419" stroke-width="8.377" stroke="rgb(33,33,33)" fill="none" stroke-linecap="round"></path><path d="M 199.648,264.419 C 188.567,268.455 187.992,267.552 177.528,272.608" stroke-width="8.452" stroke="rgb(33,33,33)" fill="none" stroke-linecap="round"></path><path d="M 177.528,272.608 C 174.212,274.210 174.632,275.010 172.089,277.735" stroke-width="9.137" stroke="rgb(33,33,33)" fill="none" stroke-linecap="round"></path><path d="M 172.089,277.735 C 170.139,279.824 169.220,280.007 168.541,282.236" stroke-width="9.924" stroke="rgb(33,33,33)" fill="none" stroke-linecap="round"></path><path d="M 168.541,282.236 C 168.248,283.199 169.212,283.319 170.146,284.119" stroke-width="10.868" stroke="rgb(33,33,33)" fill="none" stroke-linecap="round"></path><path d="M 170.146,284.119 C 172.026,285.728 171.894,286.104 174.170,287.054" stroke-width="11.598" stroke="rgb(33,33,33)" fill="none" stroke-linecap="round"></path><path d="M 174.170,287.054 C 180.643,289.757 180.793,290.007 187.643,291.425" stroke-width="11.416" stroke="rgb(33,33,33)" fill="none" stroke-linecap="round"></path><circle r="6" cx="292.0610046386719" cy="283.906005859375" fill="rgb(33,33,33)"></circle></svg>