<svg xmlns="http://www.w3.org/2000/svg" xmlns:xlink="http://www.w3.org/1999/xlink" viewBox="0 0 360 500"><path d="M 99.574,121.548 C 104.507,135.118 103.811,135.422 109.441,148.688" stroke-width="18.962" stroke="rgb(33,33,33)" fill="none" stroke-linecap="round"></path><path d="M 109.441,148.688 C 113.526,158.312 114.034,158.110 119.004,167.327" stroke-width="15.567" stroke="rgb(33,33,33)" fill="none" stroke-linecap="round"></path><path d="M 119.004,167.327 C 122.832,174.426 122.855,174.427 127.038,181.319" stroke-width="14.156" stroke="rgb(33,33,33)" fill="none" stroke-linecap="round"></path><path d="M 127.038,181.319 C 128.856,184.315 129.175,185.138 131.006,187.102" stroke-width="14.141" stroke="rgb(33,33,33)" fill="none" stroke-linecap="round"></path><path d="M 68.603,134.875 C 78.492,129.809 78.163,129.007 88.381,124.743" stroke-width="18.935" stroke="rgb(33,33,33)" fill="none" stroke-linecap="round"></path><path d="M 88.381,124.743 C 97.356,120.997 97.544,121.237 106.990,118.855" stroke-width="15.757" stroke="rgb(33,33,33)" fill="none" stroke-linecap="round"></path><path d="M 106.990,118.855 C 116.223,116.527 116.300,116.613 125.739,115.324" stroke-width="13.807" stroke="rgb(33,33,33)" fill="none" stroke-linecap="round"></path><path d="M 125.739,115.324 C 134.430,114.137 134.547,113.655 143.249,113.904" stroke-width="12.817" stroke="rgb(33,33,33)" fill="none" stroke-linecap="round"></path><path d="M 143.249,113.904 C 149.086,114.071 149.373,114.192 154.817,116.157" stroke-width="12.635" stroke="rgb(33,33,33)" fill="none" stroke-linecap="round"></path><path d="M 154.817,116.157 C 158.451,117.469 158.366,118.028 161.405,120.459" stroke-width="12.860" stroke="rgb(33,33,33)" fill="none" stroke-linecap="round"></path><path d="M 161.405,120.459 C 162.715,121.507 163.405,121.773 163.515,123.115" stroke-width="13.503" stroke="rgb(33,33,33)" fill="none" stroke-linecap="round"></path><path d="M 163.515,123.115 C 163.607,124.242 162.794,124.369 161.808,125.396" stroke-width="14.179" stroke="rgb(33,33,33)" fill="none" stroke-linecap="round"></path><path d="M 161.808,125.396 C 152.839,134.742 153.211,135.203 143.606,143.861" stroke-width="13.459" stroke="rgb(33,33,33)" fill="none" stroke-linecap="round"></path><path d="M 143.606,143.861 C 136.952,149.858 136.720,149.677 129.290,154.706" stroke-width="13.256" stroke="rgb(33,33,33)" fill="none" stroke-linecap="round"></path><path d="M 129.290,154.706 C 117.535,162.663 116.949,162.533 105.236,169.834" stroke-width="13.337" stroke="rgb(33,33,33)" fill="none" stroke-linecap="round"></path><path d="M 105.236,169.834 C 105.063,169.942 105.326,169.600 105.518,169.523" stroke-width="14.174" stroke="rgb(33,33,33)" fill="none" stroke-linecap="round"></path><path d="M 105.518,169.523 C 106.778,169.016 106.885,169.235 108.140,168.666" stroke-width="14.243" stroke="rgb(33,33,33)" fill="none" stroke-linecap="round"></path><path d="M 108.140,168.666 C 114.299,165.873 114.250,165.748 120.346,162.800" stroke-width="13.529" stroke="rgb(33,33,33)" fill="none" stroke-linecap="round"></path><path d="M 120.346,162.800 C 130.144,158.062 130.066,157.895 139.928,153.294" stroke-width="11.999" stroke="rgb(33,33,33)" fill="none" stroke-linecap="round"></path><path d="M 139.928,153.294 C 150.796,148.223 150.625,147.745 161.805,143.456" stroke-width="11.052" stroke="rgb(33,33,33)" fill="none" stroke-linecap="round"></path><path d="M 161.805,143.456 C 172.567,139.328 172.598,139.005 183.811,136.460" stroke-width="10.452" stroke="rgb(33,33,33)" fill="none" stroke-linecap="round"></path><path d="M 183.811,136.460 C 193.566,134.246 193.759,134.179 203.740,133.938" stroke-width="10.380" stroke="rgb(33,33,33)" fill="none" stroke-linecap="round"></path><path d="M 203.740,133.938 C 212.301,133.731 212.844,132.946 220.894,135.563" stroke-width="10.634" stroke="rgb(33,33,33)" fill="none" stroke-linecap="round"></path><path d="M 220.894,135.563 C 231.932,139.151 236.841,139.176 241.916,146.347" stroke-width="10.766" stroke="rgb(33,33,33)" fill="none" stroke-linecap="round"></path><path d="M 241.916,146.347 C 244.578,150.108 239.847,152.319 236.367,157.428" stroke-width="11.377" stroke="rgb(33,33,33)" fill="none" stroke-linecap="round"></path><path d="M 236.367,157.428 C 223.342,176.550 224.381,177.760 208.907,194.809" stroke-width="10.475" stroke="rgb(33,33,33)" fill="none" stroke-linecap="round"></path><path d="M 208.907,194.809 C 197.440,207.443 196.978,207.688 182.486,216.794" stroke-width="10.250" stroke="rgb(33,33,33)" fill="none" stroke-linecap="round"></path><path d="M 182.486,216.794 C 151.115,236.507 150.633,236.385 117.180,252.447" stroke-width="8.895" stroke="rgb(33,33,33)" fill="none" stroke-linecap="round"></path><path d="M 117.180,252.447 C 99.005,261.173 96.363,261.311 79.229,266.370" stroke-width="8.936" stroke="rgb(33,33,33)" fill="none" stroke-linecap="round"></path><path d="M 79.229,266.370 C 77.885,266.767 79.002,264.145 80.224,263.359" stroke-width="9.944" stroke="rgb(33,33,33)" fill="none" stroke-linecap="round"></path><path d="M 80.224,263.359 C 83.379,261.329 84.449,262.784 87.983,260.739" stroke-width="10.715" stroke="rgb(33,33,33)" fill="none" stroke-linecap="round"></path><path d="M 87.983,260.739 C 112.004,246.837 112.351,247.134 135.334,231.465" stroke-width="9.882" stroke="rgb(33,33,33)" fill="none" stroke-linecap="round"></path><path d="M 135.334,231.465 C 169.796,207.970 169.087,206.915 202.873,182.410" stroke-width="8.314" stroke="rgb(33,33,33)" fill="none" stroke-linecap="round"></path><path d="M 202.873,182.410 C 242.513,153.658 243.376,154.782 282.186,124.951" stroke-width="7.385" stroke="rgb(33,33,33)" fill="none" stroke-linecap="round"></path></svg>