<svg xmlns="http://www.w3.org/2000/svg" xmlns:xlink="http://www.w3.org/1999/xlink" viewBox="0 0 360 500"><path d="M 105.469,306.031 C 101.306,289.465 101.052,289.523 97.143,272.899" stroke-width="19.013" stroke="rgb(33,33,33)" fill="none" stroke-linecap="round"></path><path d="M 97.143,272.899 C 94.908,263.395 94.695,263.406 93.182,253.774" stroke-width="15.798" stroke="rgb(33,33,33)" fill="none" stroke-linecap="round"></path><path d="M 93.182,253.774 C 92.042,246.511 91.354,246.272 91.837,239.109" stroke-width="14.478" stroke="rgb(33,33,33)" fill="none" stroke-linecap="round"></path><path d="M 91.837,239.109 C 92.083,235.452 92.235,234.281 94.640,232.134" stroke-width="14.388" stroke="rgb(33,33,33)" fill="none" stroke-linecap="round"></path><path d="M 94.640,232.134 C 96.447,230.521 97.536,231.154 100.261,231.589" stroke-width="14.582" stroke="rgb(33,33,33)" fill="none" stroke-linecap="round"></path><path d="M 100.261,231.589 C 104.102,232.203 104.184,232.534 107.771,234.232" stroke-width="14.357" stroke="rgb(33,33,33)" fill="none" stroke-linecap="round"></path><path d="M 107.771,234.232 C 113.901,237.134 113.957,237.150 119.694,240.789" stroke-width="13.687" stroke="rgb(33,33,33)" fill="none" stroke-linecap="round"></path><path d="M 119.694,240.789 C 127.550,245.773 127.437,245.980 134.957,251.478" stroke-width="12.818" stroke="rgb(33,33,33)" fill="none" stroke-linecap="round"></path><path d="M 134.957,251.478 C 143.540,257.752 143.466,257.856 151.899,264.333" stroke-width="11.589" stroke="rgb(33,33,33)" fill="none" stroke-linecap="round"></path><path d="M 151.899,264.333 C 160.057,270.599 159.865,270.859 168.139,276.963" stroke-width="10.816" stroke="rgb(33,33,33)" fill="none" stroke-linecap="round"></path><path d="M 168.139,276.963 C 174.476,281.638 174.360,281.914 181.122,285.892" stroke-width="10.753" stroke="rgb(33,33,33)" fill="none" stroke-linecap="round"></path><path d="M 181.122,285.892 C 185.137,288.253 185.637,289.401 189.693,289.641" stroke-width="11.105" stroke="rgb(33,33,33)" fill="none" stroke-linecap="round"></path><path d="M 189.693,289.641 C 191.748,289.763 192.833,288.720 193.344,286.616" stroke-width="11.851" stroke="rgb(33,33,33)" fill="none" stroke-linecap="round"></path><path d="M 193.344,286.616 C 194.482,281.932 193.694,281.279 192.992,276.066" stroke-width="11.920" stroke="rgb(33,33,33)" fill="none" stroke-linecap="round"></path><path d="M 192.992,276.066 C 191.947,268.305 191.574,268.333 189.851,260.668" stroke-width="11.449" stroke="rgb(33,33,33)" fill="none" stroke-linecap="round"></path><path d="M 189.851,260.668 C 187.975,252.319 187.364,252.434 185.794,244.038" stroke-width="11.218" stroke="rgb(33,33,33)" fill="none" stroke-linecap="round"></path><path d="M 185.794,244.038 C 184.624,237.778 183.755,237.407 184.371,231.355" stroke-width="11.286" stroke="rgb(33,33,33)" fill="none" stroke-linecap="round"></path><path d="M 184.371,231.355 C 184.677,228.349 185.195,226.232 187.639,225.922" stroke-width="11.842" stroke="rgb(33,33,33)" fill="none" stroke-linecap="round"></path><path d="M 187.639,225.922 C 191.601,225.420 192.950,226.924 197.184,229.731" stroke-width="11.990" stroke="rgb(33,33,33)" fill="none" stroke-linecap="round"></path><path d="M 197.184,229.731 C 205.012,234.921 204.847,235.422 211.762,241.916" stroke-width="11.322" stroke="rgb(33,33,33)" fill="none" stroke-linecap="round"></path><path d="M 211.762,241.916 C 219.613,249.290 219.281,249.651 226.716,257.466" stroke-width="10.899" stroke="rgb(33,33,33)" fill="none" stroke-linecap="round"></path><path d="M 226.716,257.466 C 233.470,264.565 233.251,264.782 240.139,271.744" stroke-width="10.298" stroke="rgb(33,33,33)" fill="none" stroke-linecap="round"></path><path d="M 240.139,271.744 C 244.481,276.133 244.266,276.963 249.175,280.168" stroke-width="10.506" stroke="rgb(33,33,33)" fill="none" stroke-linecap="round"></path><path d="M 249.175,280.168 C 250.688,281.156 252.634,281.519 252.983,280.130" stroke-width="11.349" stroke="rgb(33,33,33)" fill="none" stroke-linecap="round"></path><path d="M 252.983,280.130 C 253.936,276.335 252.943,274.852 251.778,269.800" stroke-width="11.573" stroke="rgb(33,33,33)" fill="none" stroke-linecap="round"></path><path d="M 251.778,269.800 C 249.418,259.567 249.088,259.608 245.932,249.560" stroke-width="11.185" stroke="rgb(33,33,33)" fill="none" stroke-linecap="round"></path><path d="M 245.932,249.560 C 241.639,235.893 241.831,235.810 236.879,222.371" stroke-width="9.973" stroke="rgb(33,33,33)" fill="none" stroke-linecap="round"></path><path d="M 236.879,222.371 C 231.342,207.343 231.504,207.235 224.955,192.627" stroke-width="8.993" stroke="rgb(33,33,33)" fill="none" stroke-linecap="round"></path><path d="M 224.955,192.627 C 218.664,178.595 218.822,178.424 211.200,165.091" stroke-width="8.642" stroke="rgb(33,33,33)" fill="none" stroke-linecap="round"></path><path d="M 211.200,165.091 C 205.487,155.097 205.759,154.535 198.285,145.972" stroke-width="8.500" stroke="rgb(33,33,33)" fill="none" stroke-linecap="round"></path><path d="M 198.285,145.972 C 194.399,141.520 192.613,138.164 188.481,139.059" stroke-width="9.012" stroke="rgb(33,33,33)" fill="none" stroke-linecap="round"></path><path d="M 188.481,139.059 C 184.022,140.025 181.825,143.484 181.102,149.694" stroke-width="9.378" stroke="rgb(33,33,33)" fill="none" stroke-linecap="round"></path><path d="M 181.102,149.694 C 178.627,170.961 179.837,172.020 182.085,194.013" stroke-width="8.368" stroke="rgb(33,33,33)" fill="none" stroke-linecap="round"></path><path d="M 182.085,194.013 C 184.838,220.955 186.956,220.733 191.104,247.564" stroke-width="7.392" stroke="rgb(33,33,33)" fill="none" stroke-linecap="round"></path><path d="M 191.104,247.564 C 194.528,269.708 195.265,269.686 197.229,291.963" stroke-width="6.775" stroke="rgb(33,33,33)" fill="none" stroke-linecap="round"></path><path d="M 197.229,291.963 C 198.388,305.106 199.457,306.015 197.350,318.404" stroke-width="7.057" stroke="rgb(33,33,33)" fill="none" stroke-linecap="round"></path><path d="M 197.350,318.404 C 196.676,322.365 195.118,324.559 191.668,324.664" stroke-width="7.784" stroke="rgb(33,33,33)" fill="none" stroke-linecap="round"></path><path d="M 191.668,324.664 C 186.149,324.832 184.359,323.376 179.411,318.951" stroke-width="8.298" stroke="rgb(33,33,33)" fill="none" stroke-linecap="round"></path><path d="M 179.411,318.951 C 167.883,308.639 168.103,307.807 158.717,295.190" stroke-width="7.872" stroke="rgb(33,33,33)" fill="none" stroke-linecap="round"></path><path d="M 158.717,295.190 C 143.992,275.396 144.380,275.023 131.189,254.130" stroke-width="7.132" stroke="rgb(33,33,33)" fill="none" stroke-linecap="round"></path><path d="M 131.189,254.130 C 115.820,229.787 116.231,229.519 101.596,204.717" stroke-width="6.750" stroke="rgb(33,33,33)" fill="none" stroke-linecap="round"></path><path d="M 101.596,204.717 C 88.155,181.937 88.394,181.797 75.037,158.967" stroke-width="6.750" stroke="rgb(33,33,33)" fill="none" stroke-linecap="round"></path><path d="M 75.037,158.967 C 66.488,144.355 66.594,144.286 57.783,129.833" stroke-width="6.750" stroke="rgb(33,33,33)" fill="none" stroke-linecap="round"></path><path d="M 57.783,129.833 C 54.129,123.839 52.738,120.594 50.107,118.074" stroke-width="6.970" stroke="rgb(33,33,33)" fill="none" stroke-linecap="round"></path><path d="M 50.107,118.074 C 49.177,117.183 49.800,120.692 50.661,123.010" stroke-width="7.718" stroke="rgb(33,33,33)" fill="none" stroke-linecap="round"></path><path d="M 50.661,123.010 C 56.655,139.146 56.832,139.173 63.817,154.982" stroke-width="7.657" stroke="rgb(33,33,33)" fill="none" stroke-linecap="round"></path><path d="M 63.817,154.982 C 78.137,187.395 78.944,187.042 93.271,219.454" stroke-width="6.967" stroke="rgb(33,33,33)" fill="none" stroke-linecap="round"></path><path d="M 93.271,219.454 C 106.482,249.342 106.939,249.182 118.894,279.583" stroke-width="6.872" stroke="rgb(33,33,33)" fill="none" stroke-linecap="round"></path><path d="M 118.894,279.583 C 130.735,309.692 131.355,309.587 140.863,340.475" stroke-width="6.750" stroke="rgb(33,33,33)" fill="none" stroke-linecap="round"></path></svg>