<svg xmlns="http://www.w3.org/2000/svg" xmlns:xlink="http://www.w3.org/1999/xlink" viewBox="0 0 414 500"><path d="M 101.000,146.000 C 101.000,150.500 101.000,150.500 101.000,155.000" stroke-width="19.311" stroke="rgb(33,33,33)" fill="none" stroke-linecap="round"></path><path d="M 101.000,155.000 C 101.000,159.000 101.000,159.000 101.000,163.000" stroke-width="17.872" stroke="rgb(33,33,33)" fill="none" stroke-linecap="round"></path><path d="M 101.000,163.000 C 101.000,167.000 101.000,167.000 101.000,171.000" stroke-width="17.008" stroke="rgb(33,33,33)" fill="none" stroke-linecap="round"></path><path d="M 101.000,171.000 C 101.000,175.000 101.000,175.000 101.000,179.000" stroke-width="15.875" stroke="rgb(33,33,33)" fill="none" stroke-linecap="round"></path><path d="M 101.000,179.000 C 101.000,183.500 101.000,183.500 101.000,188.000" stroke-width="15.335" stroke="rgb(33,33,33)" fill="none" stroke-linecap="round"></path><path d="M 101.000,188.000 C 101.000,190.500 101.000,190.500 101.000,193.000" stroke-width="15.306" stroke="rgb(33,33,33)" fill="none" stroke-linecap="round"></path><path d="M 101.000,193.000 C 101.000,195.000 101.000,195.000 101.000,197.000" stroke-width="15.542" stroke="rgb(33,33,33)" fill="none" stroke-linecap="round"></path><path d="M 101.000,197.000 C 101.000,197.500 101.071,198.353 101.000,198.000" stroke-width="16.115" stroke="rgb(33,33,33)" fill="none" stroke-linecap="round"></path><path d="M 101.000,198.000 C 100.571,195.853 101.012,194.834 100.000,192.000" stroke-width="16.303" stroke="rgb(33,33,33)" fill="none" stroke-linecap="round"></path><path d="M 100.000,192.000 C 98.512,187.834 97.698,188.125 96.000,184.000" stroke-width="15.660" stroke="rgb(33,33,33)" fill="none" stroke-linecap="round"></path><path d="M 96.000,184.000 C 94.198,179.625 94.428,179.523 93.000,175.000" stroke-width="14.966" stroke="rgb(33,33,33)" fill="none" stroke-linecap="round"></path><path d="M 93.000,175.000 C 91.428,170.023 91.265,170.059 90.000,165.000" stroke-width="14.332" stroke="rgb(33,33,33)" fill="none" stroke-linecap="round"></path><path d="M 90.000,165.000 C 88.765,160.059 88.459,160.054 88.000,155.000" stroke-width="13.962" stroke="rgb(33,33,33)" fill="none" stroke-linecap="round"></path><path d="M 88.000,155.000 C 87.459,149.054 87.459,148.946 88.000,143.000" stroke-width="13.487" stroke="rgb(33,33,33)" fill="none" stroke-linecap="round"></path><path d="M 88.000,143.000 C 88.459,137.946 87.797,137.407 90.000,133.000" stroke-width="13.247" stroke="rgb(33,33,33)" fill="none" stroke-linecap="round"></path><path d="M 90.000,133.000 C 92.297,128.407 93.140,128.619 97.000,125.000" stroke-width="13.082" stroke="rgb(33,33,33)" fill="none" stroke-linecap="round"></path><path d="M 97.000,125.000 C 101.140,121.119 101.041,120.610 106.000,118.000" stroke-width="12.877" stroke="rgb(33,33,33)" fill="none" stroke-linecap="round"></path><path d="M 106.000,118.000 C 110.541,115.610 110.887,115.730 116.000,115.000" stroke-width="12.748" stroke="rgb(33,33,33)" fill="none" stroke-linecap="round"></path><path d="M 116.000,115.000 C 121.387,114.230 121.500,115.000 127.000,115.000" stroke-width="12.712" stroke="rgb(33,33,33)" fill="none" stroke-linecap="round"></path><path d="M 127.000,115.000 C 132.000,115.000 132.561,113.365 137.000,115.000" stroke-width="12.661" stroke="rgb(33,33,33)" fill="none" stroke-linecap="round"></path><path d="M 137.000,115.000 C 142.061,116.865 142.292,117.798 146.000,122.000" stroke-width="12.549" stroke="rgb(33,33,33)" fill="none" stroke-linecap="round"></path><path d="M 146.000,122.000 C 149.792,126.298 149.725,126.691 152.000,132.000" stroke-width="12.372" stroke="rgb(33,33,33)" fill="none" stroke-linecap="round"></path><path d="M 152.000,132.000 C 154.225,137.191 154.237,137.401 155.000,143.000" stroke-width="12.377" stroke="rgb(33,33,33)" fill="none" stroke-linecap="round"></path><path d="M 155.000,143.000 C 155.737,148.401 155.261,148.513 155.000,154.000" stroke-width="12.232" stroke="rgb(33,33,33)" fill="none" stroke-linecap="round"></path><path d="M 155.000,154.000 C 154.761,159.013 155.806,159.485 154.000,164.000" stroke-width="12.328" stroke="rgb(33,33,33)" fill="none" stroke-linecap="round"></path><path d="M 154.000,164.000 C 151.806,169.485 151.083,169.509 147.000,174.000" stroke-width="12.216" stroke="rgb(33,33,33)" fill="none" stroke-linecap="round"></path><path d="M 147.000,174.000 C 141.083,180.509 140.956,180.590 134.000,186.000" stroke-width="11.676" stroke="rgb(33,33,33)" fill="none" stroke-linecap="round"></path><path d="M 134.000,186.000 C 127.456,191.090 127.131,190.721 120.000,195.000" stroke-width="11.278" stroke="rgb(33,33,33)" fill="none" stroke-linecap="round"></path><path d="M 120.000,195.000 C 114.631,198.221 114.729,198.588 109.000,201.000" stroke-width="11.352" stroke="rgb(33,33,33)" fill="none" stroke-linecap="round"></path><path d="M 109.000,201.000 C 105.229,202.588 105.016,202.073 101.000,203.000" stroke-width="11.704" stroke="rgb(33,33,33)" fill="none" stroke-linecap="round"></path><path d="M 101.000,203.000 C 98.516,203.573 98.518,203.685 96.000,204.000" stroke-width="12.317" stroke="rgb(33,33,33)" fill="none" stroke-linecap="round"></path><path d="M 96.000,204.000 C 94.518,204.185 93.750,204.750 93.000,204.000" stroke-width="13.060" stroke="rgb(33,33,33)" fill="none" stroke-linecap="round"></path><path d="M 93.000,204.000 C 92.250,203.250 92.277,202.265 93.000,201.000" stroke-width="13.701" stroke="rgb(33,33,33)" fill="none" stroke-linecap="round"></path><path d="M 93.000,201.000 C 96.277,195.265 96.535,195.103 101.000,190.000" stroke-width="13.129" stroke="rgb(33,33,33)" fill="none" stroke-linecap="round"></path><path d="M 101.000,190.000 C 107.035,183.103 107.500,183.500 114.000,177.000" stroke-width="12.271" stroke="rgb(33,33,33)" fill="none" stroke-linecap="round"></path><path d="M 114.000,177.000 C 123.000,168.000 123.264,168.249 132.000,159.000" stroke-width="11.015" stroke="rgb(33,33,33)" fill="none" stroke-linecap="round"></path><path d="M 132.000,159.000 C 140.264,150.249 139.876,149.886 148.000,141.000" stroke-width="10.270" stroke="rgb(33,33,33)" fill="none" stroke-linecap="round"></path><path d="M 148.000,141.000 C 155.876,132.386 155.888,132.392 164.000,124.000" stroke-width="9.868" stroke="rgb(33,33,33)" fill="none" stroke-linecap="round"></path><path d="M 164.000,124.000 C 170.388,117.392 170.011,116.914 177.000,111.000" stroke-width="9.840" stroke="rgb(33,33,33)" fill="none" stroke-linecap="round"></path><path d="M 177.000,111.000 C 183.011,105.914 183.198,105.968 190.000,102.000" stroke-width="9.964" stroke="rgb(33,33,33)" fill="none" stroke-linecap="round"></path><path d="M 190.000,102.000 C 195.198,98.968 195.354,99.080 201.000,97.000" stroke-width="10.289" stroke="rgb(33,33,33)" fill="none" stroke-linecap="round"></path><path d="M 201.000,97.000 C 204.854,95.580 204.954,95.623 209.000,95.000" stroke-width="10.821" stroke="rgb(33,33,33)" fill="none" stroke-linecap="round"></path><path d="M 209.000,95.000 C 211.454,94.623 211.661,94.610 214.000,95.000" stroke-width="11.508" stroke="rgb(33,33,33)" fill="none" stroke-linecap="round"></path><path d="M 214.000,95.000 C 214.661,95.110 215.096,95.329 215.000,96.000" stroke-width="12.474" stroke="rgb(33,33,33)" fill="none" stroke-linecap="round"></path><path d="M 215.000,96.000 C 214.096,102.329 214.839,103.104 212.000,109.000" stroke-width="12.158" stroke="rgb(33,33,33)" fill="none" stroke-linecap="round"></path><path d="M 212.000,109.000 C 208.339,116.604 206.919,115.943 202.000,123.000" stroke-width="11.588" stroke="rgb(33,33,33)" fill="none" stroke-linecap="round"></path><path d="M 202.000,123.000 C 195.419,132.443 195.450,132.466 189.000,142.000" stroke-width="10.836" stroke="rgb(33,33,33)" fill="none" stroke-linecap="round"></path><path d="M 189.000,142.000 C 183.950,149.466 183.104,149.034 179.000,157.000" stroke-width="10.618" stroke="rgb(33,33,33)" fill="none" stroke-linecap="round"></path><path d="M 179.000,157.000 C 174.604,165.534 174.598,165.763 172.000,175.000" stroke-width="10.294" stroke="rgb(33,33,33)" fill="none" stroke-linecap="round"></path><path d="M 172.000,175.000 C 170.098,181.763 170.611,181.972 170.000,189.000" stroke-width="10.438" stroke="rgb(33,33,33)" fill="none" stroke-linecap="round"></path><path d="M 170.000,189.000 C 169.611,193.472 168.722,193.910 170.000,198.000" stroke-width="10.899" stroke="rgb(33,33,33)" fill="none" stroke-linecap="round"></path><path d="M 170.000,198.000 C 171.222,201.910 171.422,203.410 175.000,205.000" stroke-width="11.288" stroke="rgb(33,33,33)" fill="none" stroke-linecap="round"></path><path d="M 175.000,205.000 C 180.422,207.410 181.546,206.430 188.000,206.000" stroke-width="11.262" stroke="rgb(33,33,33)" fill="none" stroke-linecap="round"></path><path d="M 188.000,206.000 C 196.546,205.430 197.427,206.550 205.000,203.000" stroke-width="11.064" stroke="rgb(33,33,33)" fill="none" stroke-linecap="round"></path><path d="M 205.000,203.000 C 213.427,199.050 213.109,197.626 220.000,191.000" stroke-width="10.713" stroke="rgb(33,33,33)" fill="none" stroke-linecap="round"></path><path d="M 220.000,191.000 C 226.109,185.126 226.320,185.019 231.000,178.000" stroke-width="10.519" stroke="rgb(33,33,33)" fill="none" stroke-linecap="round"></path><path d="M 231.000,178.000 C 234.320,173.019 234.496,172.716 236.000,167.000" stroke-width="10.759" stroke="rgb(33,33,33)" fill="none" stroke-linecap="round"></path><path d="M 236.000,167.000 C 236.996,163.216 236.868,162.760 236.000,159.000" stroke-width="11.214" stroke="rgb(33,33,33)" fill="none" stroke-linecap="round"></path><path d="M 236.000,159.000 C 235.368,156.260 235.554,154.638 233.000,154.000" stroke-width="11.820" stroke="rgb(33,33,33)" fill="none" stroke-linecap="round"></path><path d="M 233.000,154.000 C 225.554,152.138 224.429,153.234 216.000,154.000" stroke-width="11.437" stroke="rgb(33,33,33)" fill="none" stroke-linecap="round"></path><path d="M 216.000,154.000 C 207.929,154.734 207.749,154.704 200.000,157.000" stroke-width="11.127" stroke="rgb(33,33,33)" fill="none" stroke-linecap="round"></path><path d="M 200.000,157.000 C 194.249,158.704 194.396,159.302 189.000,162.000" stroke-width="11.312" stroke="rgb(33,33,33)" fill="none" stroke-linecap="round"></path><path d="M 189.000,162.000 C 186.396,163.302 186.530,163.554 184.000,165.000" stroke-width="11.843" stroke="rgb(33,33,33)" fill="none" stroke-linecap="round"></path><path d="M 184.000,165.000 C 183.030,165.554 182.691,165.309 182.000,166.000" stroke-width="12.702" stroke="rgb(33,33,33)" fill="none" stroke-linecap="round"></path><path d="M 182.000,166.000 C 181.691,166.309 181.532,167.000 182.000,167.000" stroke-width="13.610" stroke="rgb(33,33,33)" fill="none" stroke-linecap="round"></path><path d="M 182.000,167.000 C 189.032,167.000 189.773,167.807 197.000,166.000" stroke-width="12.831" stroke="rgb(33,33,33)" fill="none" stroke-linecap="round"></path><path d="M 197.000,166.000 C 209.773,162.807 209.562,161.664 222.000,157.000" stroke-width="11.407" stroke="rgb(33,33,33)" fill="none" stroke-linecap="round"></path><path d="M 222.000,157.000 C 233.562,152.664 233.557,152.639 245.000,148.000" stroke-width="10.598" stroke="rgb(33,33,33)" fill="none" stroke-linecap="round"></path><path d="M 245.000,148.000 C 252.057,145.139 252.138,145.282 259.000,142.000" stroke-width="10.553" stroke="rgb(33,33,33)" fill="none" stroke-linecap="round"></path></svg>