<svg xmlns="http://www.w3.org/2000/svg" xmlns:xlink="http://www.w3.org/1999/xlink" viewBox="0 0 800 500"><path d="M 398.000,45.000 C 397.000,45.000 397.000,45.000 396.000,45.000" stroke-width="19.286" stroke="rgb(33,33,33)" fill="none" stroke-linecap="round"></path><path d="M 396.000,45.000 C 395.000,45.000 395.000,45.000 394.000,45.000" stroke-width="18.578" stroke="rgb(33,33,33)" fill="none" stroke-linecap="round"></path><path d="M 394.000,45.000 C 390.500,45.000 390.500,45.000 387.000,45.000" stroke-width="16.239" stroke="rgb(33,33,33)" fill="none" stroke-linecap="round"></path><path d="M 387.000,45.000 C 384.000,45.000 384.000,45.000 381.000,45.000" stroke-width="15.215" stroke="rgb(33,33,33)" fill="none" stroke-linecap="round"></path><path d="M 381.000,45.000 C 378.500,45.000 378.500,45.000 376.000,45.000" stroke-width="14.718" stroke="rgb(33,33,33)" fill="none" stroke-linecap="round"></path><path d="M 376.000,45.000 C 372.500,45.000 372.500,45.000 369.000,45.000" stroke-width="13.494" stroke="rgb(33,33,33)" fill="none" stroke-linecap="round"></path><path d="M 369.000,45.000 C 365.000,45.000 365.000,45.000 361.000,45.000" stroke-width="12.652" stroke="rgb(33,33,33)" fill="none" stroke-linecap="round"></path><path d="M 361.000,45.000 C 357.000,45.000 357.000,45.000 353.000,45.000" stroke-width="12.050" stroke="rgb(33,33,33)" fill="none" stroke-linecap="round"></path><path d="M 353.000,45.000 C 349.500,45.000 349.411,44.621 346.000,45.000" stroke-width="11.778" stroke="rgb(33,33,33)" fill="none" stroke-linecap="round"></path><path d="M 346.000,45.000 C 344.911,45.121 345.067,45.695 344.000,46.000" stroke-width="12.413" stroke="rgb(33,33,33)" fill="none" stroke-linecap="round"></path><path d="M 344.000,46.000 C 341.567,46.695 341.469,46.383 339.000,47.000" stroke-width="12.404" stroke="rgb(33,33,33)" fill="none" stroke-linecap="round"></path><path d="M 339.000,47.000 C 337.469,47.383 337.500,47.500 336.000,48.000" stroke-width="12.775" stroke="rgb(33,33,33)" fill="none" stroke-linecap="round"></path><path d="M 336.000,48.000 C 334.500,48.500 334.382,48.309 333.000,49.000" stroke-width="13.163" stroke="rgb(33,33,33)" fill="none" stroke-linecap="round"></path><path d="M 333.000,49.000 C 332.382,49.309 332.581,49.613 332.000,50.000" stroke-width="13.765" stroke="rgb(33,33,33)" fill="none" stroke-linecap="round"></path><path d="M 332.000,50.000 C 331.081,50.613 331.000,50.500 330.000,51.000" stroke-width="14.244" stroke="rgb(33,33,33)" fill="none" stroke-linecap="round"></path><path d="M 330.000,51.000 C 330.000,51.000 330.000,51.000 330.000,51.000" stroke-width="15.143" stroke="rgb(33,33,33)" fill="none" stroke-linecap="round"></path><path d="M 330.000,51.000 C 329.500,51.500 329.207,51.379 329.000,52.000" stroke-width="15.600" stroke="rgb(33,33,33)" fill="none" stroke-linecap="round"></path><path d="M 329.000,52.000 C 328.707,52.879 329.000,53.000 329.000,54.000" stroke-width="15.629" stroke="rgb(33,33,33)" fill="none" stroke-linecap="round"></path><path d="M 329.000,54.000 C 329.000,55.000 329.000,55.000 329.000,56.000" stroke-width="15.809" stroke="rgb(33,33,33)" fill="none" stroke-linecap="round"></path><path d="M 329.000,56.000 C 329.000,57.500 329.000,57.500 329.000,59.000" stroke-width="15.286" stroke="rgb(33,33,33)" fill="none" stroke-linecap="round"></path><path d="M 329.000,59.000 C 329.000,60.500 329.000,60.500 329.000,62.000" stroke-width="15.407" stroke="rgb(33,33,33)" fill="none" stroke-linecap="round"></path><path d="M 329.000,62.000 C 329.000,64.500 329.000,64.500 329.000,67.000" stroke-width="13.951" stroke="rgb(33,33,33)" fill="none" stroke-linecap="round"></path><path d="M 329.000,67.000 C 329.000,69.500 329.000,69.500 329.000,72.000" stroke-width="13.945" stroke="rgb(33,33,33)" fill="none" stroke-linecap="round"></path><path d="M 329.000,72.000 C 329.000,75.500 328.732,75.522 329.000,79.000" stroke-width="12.335" stroke="rgb(33,33,33)" fill="none" stroke-linecap="round"></path><path d="M 329.000,79.000 C 329.232,82.022 329.265,82.058 330.000,85.000" stroke-width="12.470" stroke="rgb(33,33,33)" fill="none" stroke-linecap="round"></path><path d="M 330.000,85.000 C 330.765,88.058 330.920,88.029 332.000,91.000" stroke-width="11.557" stroke="rgb(33,33,33)" fill="none" stroke-linecap="round"></path><path d="M 332.000,91.000 C 332.920,93.529 332.800,93.599 334.000,96.000" stroke-width="11.764" stroke="rgb(33,33,33)" fill="none" stroke-linecap="round"></path><path d="M 334.000,96.000 C 335.300,98.599 335.385,98.577 337.000,101.000" stroke-width="11.754" stroke="rgb(33,33,33)" fill="none" stroke-linecap="round"></path><path d="M 337.000,101.000 C 338.385,103.077 338.547,102.966 340.000,105.000" stroke-width="11.986" stroke="rgb(33,33,33)" fill="none" stroke-linecap="round"></path><path d="M 340.000,105.000 C 341.047,106.466 340.661,106.884 342.000,108.000" stroke-width="12.472" stroke="rgb(33,33,33)" fill="none" stroke-linecap="round"></path><path d="M 342.000,108.000 C 343.661,109.384 344.204,108.717 346.000,110.000" stroke-width="12.288" stroke="rgb(33,33,33)" fill="none" stroke-linecap="round"></path><path d="M 346.000,110.000 C 347.704,111.217 347.393,111.623 349.000,113.000" stroke-width="12.351" stroke="rgb(33,33,33)" fill="none" stroke-linecap="round"></path><path d="M 349.000,113.000 C 350.893,114.623 350.966,114.547 353.000,116.000" stroke-width="12.478" stroke="rgb(33,33,33)" fill="none" stroke-linecap="round"></path><path d="M 353.000,116.000 C 354.466,117.047 354.438,117.107 356.000,118.000" stroke-width="12.646" stroke="rgb(33,33,33)" fill="none" stroke-linecap="round"></path><path d="M 356.000,118.000 C 357.938,119.107 358.000,119.000 360.000,120.000" stroke-width="12.813" stroke="rgb(33,33,33)" fill="none" stroke-linecap="round"></path><path d="M 360.000,120.000 C 361.000,120.500 361.043,120.426 362.000,121.000" stroke-width="13.321" stroke="rgb(33,33,33)" fill="none" stroke-linecap="round"></path><path d="M 362.000,121.000 C 363.543,121.926 363.402,122.201 365.000,123.000" stroke-width="13.443" stroke="rgb(33,33,33)" fill="none" stroke-linecap="round"></path><path d="M 365.000,123.000 C 366.402,123.701 366.680,123.208 368.000,124.000" stroke-width="13.645" stroke="rgb(33,33,33)" fill="none" stroke-linecap="round"></path><path d="M 368.000,124.000 C 369.180,124.708 368.820,125.292 370.000,126.000" stroke-width="13.889" stroke="rgb(33,33,33)" fill="none" stroke-linecap="round"></path><path d="M 370.000,126.000 C 371.320,126.792 371.536,126.414 373.000,127.000" stroke-width="14.095" stroke="rgb(33,33,33)" fill="none" stroke-linecap="round"></path><path d="M 373.000,127.000 C 374.036,127.414 374.250,127.250 375.000,128.000" stroke-width="14.410" stroke="rgb(33,33,33)" fill="none" stroke-linecap="round"></path><path d="M 375.000,128.000 C 375.750,128.750 375.208,129.472 376.000,130.000" stroke-width="14.673" stroke="rgb(33,33,33)" fill="none" stroke-linecap="round"></path><path d="M 376.000,130.000 C 376.708,130.472 377.333,129.667 378.000,130.000" stroke-width="14.955" stroke="rgb(33,33,33)" fill="none" stroke-linecap="round"></path><path d="M 378.000,130.000 C 378.333,130.167 377.750,130.750 378.000,131.000" stroke-width="15.512" stroke="rgb(33,33,33)" fill="none" stroke-linecap="round"></path><path d="M 378.000,131.000 C 378.250,131.250 378.500,131.000 379.000,131.000" stroke-width="15.849" stroke="rgb(33,33,33)" fill="none" stroke-linecap="round"></path><path d="M 379.000,131.000 C 379.000,131.000 379.000,131.000 379.000,131.000" stroke-width="16.569" stroke="rgb(33,33,33)" fill="none" stroke-linecap="round"></path><path d="M 379.000,131.000 C 379.000,131.500 378.750,131.750 379.000,132.000" stroke-width="17.073" stroke="rgb(33,33,33)" fill="none" stroke-linecap="round"></path><path d="M 379.000,132.000 C 379.250,132.250 379.500,132.000 380.000,132.000" stroke-width="17.517" stroke="rgb(33,33,33)" fill="none" stroke-linecap="round"></path><path d="M 380.000,132.000 C 380.000,132.000 380.000,132.000 380.000,132.000" stroke-width="18.003" stroke="rgb(33,33,33)" fill="none" stroke-linecap="round"></path><path d="M 380.000,132.000 C 380.000,133.000 380.000,133.000 380.000,134.000" stroke-width="17.611" stroke="rgb(33,33,33)" fill="none" stroke-linecap="round"></path><path d="M 380.000,134.000 C 380.000,135.500 379.546,135.638 380.000,137.000" stroke-width="16.947" stroke="rgb(33,33,33)" fill="none" stroke-linecap="round"></path><path d="M 380.000,137.000 C 380.546,138.638 381.107,138.438 382.000,140.000" stroke-width="16.252" stroke="rgb(33,33,33)" fill="none" stroke-linecap="round"></path><path d="M 382.000,140.000 C 383.107,141.938 383.000,142.000 384.000,144.000" stroke-width="15.474" stroke="rgb(33,33,33)" fill="none" stroke-linecap="round"></path><path d="M 384.000,144.000 C 385.000,146.000 385.063,145.970 386.000,148.000" stroke-width="14.904" stroke="rgb(33,33,33)" fill="none" stroke-linecap="round"></path><path d="M 386.000,148.000 C 388.063,152.470 388.126,152.448 390.000,157.000" stroke-width="13.208" stroke="rgb(33,33,33)" fill="none" stroke-linecap="round"></path><path d="M 390.000,157.000 C 391.626,160.948 391.452,161.019 393.000,165.000" stroke-width="12.346" stroke="rgb(33,33,33)" fill="none" stroke-linecap="round"></path><path d="M 393.000,165.000 C 394.952,170.019 395.000,170.000 397.000,175.000" stroke-width="11.562" stroke="rgb(33,33,33)" fill="none" stroke-linecap="round"></path><path d="M 397.000,175.000 C 398.000,177.500 397.940,177.526 399.000,180.000" stroke-width="11.538" stroke="rgb(33,33,33)" fill="none" stroke-linecap="round"></path><path d="M 399.000,180.000 C 400.940,184.526 400.904,184.545 403.000,189.000" stroke-width="11.109" stroke="rgb(33,33,33)" fill="none" stroke-linecap="round"></path><path d="M 403.000,189.000 C 404.904,193.045 405.110,192.949 407.000,197.000" stroke-width="10.760" stroke="rgb(33,33,33)" fill="none" stroke-linecap="round"></path><path d="M 407.000,197.000 C 408.610,200.449 408.500,200.500 410.000,204.000" stroke-width="10.900" stroke="rgb(33,33,33)" fill="none" stroke-linecap="round"></path><path d="M 410.000,204.000 C 411.500,207.500 411.587,207.467 413.000,211.000" stroke-width="10.171" stroke="rgb(33,33,33)" fill="none" stroke-linecap="round"></path><path d="M 413.000,211.000 C 413.587,212.467 413.299,212.598 414.000,214.000" stroke-width="10.911" stroke="rgb(33,33,33)" fill="none" stroke-linecap="round"></path><path d="M 414.000,214.000 C 414.799,215.598 415.300,215.367 416.000,217.000" stroke-width="11.219" stroke="rgb(33,33,33)" fill="none" stroke-linecap="round"></path><path d="M 416.000,217.000 C 416.800,218.867 416.434,219.019 417.000,221.000" stroke-width="11.781" stroke="rgb(33,33,33)" fill="none" stroke-linecap="round"></path><path d="M 417.000,221.000 C 417.434,222.519 417.414,222.536 418.000,224.000" stroke-width="12.050" stroke="rgb(33,33,33)" fill="none" stroke-linecap="round"></path><path d="M 418.000,224.000 C 418.414,225.036 418.387,225.081 419.000,226.000" stroke-width="12.743" stroke="rgb(33,33,33)" fill="none" stroke-linecap="round"></path><path d="M 419.000,226.000 C 419.387,226.581 419.500,226.500 420.000,227.000" stroke-width="13.336" stroke="rgb(33,33,33)" fill="none" stroke-linecap="round"></path><path d="M 420.000,227.000 C 420.000,227.000 420.000,227.000 420.000,227.000" stroke-width="14.313" stroke="rgb(33,33,33)" fill="none" stroke-linecap="round"></path><path d="M 420.000,227.000 C 420.000,227.500 419.793,227.586 420.000,228.000" stroke-width="14.833" stroke="rgb(33,33,33)" fill="none" stroke-linecap="round"></path><path d="M 420.000,228.000 C 420.293,228.586 420.500,228.500 421.000,229.000" stroke-width="15.300" stroke="rgb(33,33,33)" fill="none" stroke-linecap="round"></path><path d="M 421.000,229.000 C 421.000,229.500 421.000,229.500 421.000,230.000" stroke-width="17.904" stroke="rgb(33,33,33)" fill="none" stroke-linecap="round"></path><path d="M 421.000,230.000 C 420.500,230.000 420.414,229.793 420.000,230.000" stroke-width="18.952" stroke="rgb(33,33,33)" fill="none" stroke-linecap="round"></path><path d="M 420.000,230.000 C 419.414,230.293 419.500,230.500 419.000,231.000" stroke-width="18.490" stroke="rgb(33,33,33)" fill="none" stroke-linecap="round"></path><path d="M 419.000,231.000 C 418.500,231.500 418.387,231.419 418.000,232.000" stroke-width="18.283" stroke="rgb(33,33,33)" fill="none" stroke-linecap="round"></path><path d="M 418.000,232.000 C 417.387,232.919 417.750,233.250 417.000,234.000" stroke-width="17.733" stroke="rgb(33,33,33)" fill="none" stroke-linecap="round"></path><path d="M 417.000,234.000 C 416.250,234.750 415.750,234.250 415.000,235.000" stroke-width="17.198" stroke="rgb(33,33,33)" fill="none" stroke-linecap="round"></path><path d="M 415.000,235.000 C 414.250,235.750 414.750,236.250 414.000,237.000" stroke-width="16.993" stroke="rgb(33,33,33)" fill="none" stroke-linecap="round"></path><path d="M 414.000,237.000 C 413.250,237.750 412.919,237.387 412.000,238.000" stroke-width="16.636" stroke="rgb(33,33,33)" fill="none" stroke-linecap="round"></path><path d="M 412.000,238.000 C 411.419,238.387 411.581,238.613 411.000,239.000" stroke-width="16.802" stroke="rgb(33,33,33)" fill="none" stroke-linecap="round"></path><path d="M 411.000,239.000 C 410.081,239.613 409.919,239.387 409.000,240.000" stroke-width="16.598" stroke="rgb(33,33,33)" fill="none" stroke-linecap="round"></path><path d="M 409.000,240.000 C 408.419,240.387 408.621,240.793 408.000,241.000" stroke-width="16.716" stroke="rgb(33,33,33)" fill="none" stroke-linecap="round"></path><path d="M 408.000,241.000 C 407.121,241.293 407.000,241.000 406.000,241.000" stroke-width="16.610" stroke="rgb(33,33,33)" fill="none" stroke-linecap="round"></path><path d="M 406.000,241.000 C 404.500,241.000 404.500,241.000 403.000,241.000" stroke-width="16.305" stroke="rgb(33,33,33)" fill="none" stroke-linecap="round"></path><path d="M 403.000,241.000 C 401.500,241.000 401.500,241.000 400.000,241.000" stroke-width="15.963" stroke="rgb(33,33,33)" fill="none" stroke-linecap="round"></path><path d="M 400.000,241.000 C 398.500,241.000 398.460,241.243 397.000,241.000" stroke-width="15.570" stroke="rgb(33,33,33)" fill="none" stroke-linecap="round"></path><path d="M 397.000,241.000 C 395.460,240.743 395.407,240.703 394.000,240.000" stroke-width="15.449" stroke="rgb(33,33,33)" fill="none" stroke-linecap="round"></path><path d="M 394.000,240.000 C 391.407,238.703 391.606,238.117 389.000,237.000" stroke-width="14.523" stroke="rgb(33,33,33)" fill="none" stroke-linecap="round"></path><path d="M 389.000,237.000 C 388.106,236.617 388.000,237.000 387.000,237.000" stroke-width="14.830" stroke="rgb(33,33,33)" fill="none" stroke-linecap="round"></path><path d="M 387.000,237.000 C 385.500,237.000 385.500,237.000 384.000,237.000" stroke-width="14.694" stroke="rgb(33,33,33)" fill="none" stroke-linecap="round"></path><path d="M 384.000,237.000 C 382.500,237.000 382.500,237.000 381.000,237.000" stroke-width="14.922" stroke="rgb(33,33,33)" fill="none" stroke-linecap="round"></path><path d="M 381.000,237.000 C 378.500,237.000 378.213,237.948 376.000,237.000" stroke-width="13.944" stroke="rgb(33,33,33)" fill="none" stroke-linecap="round"></path><path d="M 376.000,237.000 C 371.213,234.948 371.143,234.315 367.000,231.000" stroke-width="12.831" stroke="rgb(33,33,33)" fill="none" stroke-linecap="round"></path><path d="M 367.000,231.000 C 366.143,230.315 366.500,230.000 366.000,229.000" stroke-width="13.174" stroke="rgb(33,33,33)" fill="none" stroke-linecap="round"></path><path d="M 366.000,229.000 C 365.500,228.000 365.613,227.919 365.000,227.000" stroke-width="13.735" stroke="rgb(33,33,33)" fill="none" stroke-linecap="round"></path><path d="M 365.000,227.000 C 364.613,226.419 364.423,226.563 364.000,226.000" stroke-width="14.194" stroke="rgb(33,33,33)" fill="none" stroke-linecap="round"></path><path d="M 364.000,226.000 C 362.923,224.563 362.926,224.543 362.000,223.000" stroke-width="14.450" stroke="rgb(33,33,33)" fill="none" stroke-linecap="round"></path><path d="M 362.000,223.000 C 361.426,222.043 361.500,222.000 361.000,221.000" stroke-width="14.356" stroke="rgb(33,33,33)" fill="none" stroke-linecap="round"></path><path d="M 361.000,221.000 C 360.500,220.000 360.264,220.056 360.000,219.000" stroke-width="14.747" stroke="rgb(33,33,33)" fill="none" stroke-linecap="round"></path><path d="M 360.000,219.000 C 359.764,218.056 360.236,217.944 360.000,217.000" stroke-width="14.833" stroke="rgb(33,33,33)" fill="none" stroke-linecap="round"></path><path d="M 360.000,217.000 C 359.736,215.944 359.264,216.056 359.000,215.000" stroke-width="15.232" stroke="rgb(33,33,33)" fill="none" stroke-linecap="round"></path><path d="M 359.000,215.000 C 358.764,214.056 359.000,214.000 359.000,213.000" stroke-width="14.851" stroke="rgb(33,33,33)" fill="none" stroke-linecap="round"></path><path d="M 359.000,213.000 C 359.000,211.500 359.000,211.500 359.000,210.000" stroke-width="15.051" stroke="rgb(33,33,33)" fill="none" stroke-linecap="round"></path><path d="M 359.000,210.000 C 359.000,208.500 359.000,208.500 359.000,207.000" stroke-width="14.503" stroke="rgb(33,33,33)" fill="none" stroke-linecap="round"></path><path d="M 359.000,207.000 C 359.000,206.000 359.000,206.000 359.000,205.000" stroke-width="15.024" stroke="rgb(33,33,33)" fill="none" stroke-linecap="round"></path><path d="M 359.000,205.000 C 359.000,203.000 358.721,202.955 359.000,201.000" stroke-width="13.107" stroke="rgb(33,33,33)" fill="none" stroke-linecap="round"></path><path d="M 359.000,201.000 C 359.221,199.455 359.566,199.519 360.000,198.000" stroke-width="13.700" stroke="rgb(33,33,33)" fill="none" stroke-linecap="round"></path><path d="M 360.000,198.000 C 360.566,196.019 360.500,196.000 361.000,194.000" stroke-width="11.283" stroke="rgb(33,33,33)" fill="none" stroke-linecap="round"></path><path d="M 361.000,194.000 C 361.500,192.000 361.500,192.000 362.000,190.000" stroke-width="11.917" stroke="rgb(33,33,33)" fill="none" stroke-linecap="round"></path><path d="M 362.000,190.000 C 362.500,188.000 362.596,188.020 363.000,186.000" stroke-width="11.040" stroke="rgb(33,33,33)" fill="none" stroke-linecap="round"></path><path d="M 363.000,186.000 C 363.596,183.020 363.136,182.881 364.000,180.000" stroke-width="11.499" stroke="rgb(33,33,33)" fill="none" stroke-linecap="round"></path><path d="M 364.000,180.000 C 364.636,177.881 365.121,178.050 366.000,176.000" stroke-width="10.619" stroke="rgb(33,33,33)" fill="none" stroke-linecap="round"></path><path d="M 366.000,176.000 C 366.621,174.550 366.806,174.550 367.000,173.000" stroke-width="11.436" stroke="rgb(33,33,33)" fill="none" stroke-linecap="round"></path><path d="M 367.000,173.000 C 367.306,170.550 366.655,170.418 367.000,168.000" stroke-width="9.567" stroke="rgb(33,33,33)" fill="none" stroke-linecap="round"></path><path d="M 367.000,168.000 C 367.155,166.918 367.586,167.036 368.000,166.000" stroke-width="10.530" stroke="rgb(33,33,33)" fill="none" stroke-linecap="round"></path><path d="M 368.000,166.000 C 368.586,164.536 368.500,164.500 369.000,163.000" stroke-width="10.677" stroke="rgb(33,33,33)" fill="none" stroke-linecap="round"></path><path d="M 369.000,163.000 C 369.500,161.500 369.500,161.500 370.000,160.000" stroke-width="11.467" stroke="rgb(33,33,33)" fill="none" stroke-linecap="round"></path><path d="M 370.000,160.000 C 370.500,158.500 370.500,158.500 371.000,157.000" stroke-width="11.105" stroke="rgb(33,33,33)" fill="none" stroke-linecap="round"></path><path d="M 371.000,157.000 C 371.500,155.500 371.743,155.540 372.000,154.000" stroke-width="11.884" stroke="rgb(33,33,33)" fill="none" stroke-linecap="round"></path><path d="M 372.000,154.000 C 372.243,152.540 371.660,152.359 372.000,151.000" stroke-width="11.485" stroke="rgb(33,33,33)" fill="none" stroke-linecap="round"></path><path d="M 372.000,151.000 C 372.160,150.359 372.707,150.586 373.000,150.000" stroke-width="12.392" stroke="rgb(33,33,33)" fill="none" stroke-linecap="round"></path><path d="M 373.000,150.000 C 373.207,149.586 373.000,149.500 373.000,149.000" stroke-width="13.425" stroke="rgb(33,33,33)" fill="none" stroke-linecap="round"></path><path d="M 373.000,149.000 C 373.000,147.500 373.000,147.500 373.000,146.000" stroke-width="13.667" stroke="rgb(33,33,33)" fill="none" stroke-linecap="round"></path><path d="M 373.000,146.000 C 373.000,145.000 372.837,144.980 373.000,144.000" stroke-width="14.163" stroke="rgb(33,33,33)" fill="none" stroke-linecap="round"></path><path d="M 373.000,144.000 C 373.337,141.980 373.500,142.000 374.000,140.000" stroke-width="13.854" stroke="rgb(33,33,33)" fill="none" stroke-linecap="round"></path><path d="M 374.000,140.000 C 374.500,138.000 374.553,138.012 375.000,136.000" stroke-width="13.753" stroke="rgb(33,33,33)" fill="none" stroke-linecap="round"></path><path d="M 375.000,136.000 C 375.553,133.512 375.427,133.484 376.000,131.000" stroke-width="13.452" stroke="rgb(33,33,33)" fill="none" stroke-linecap="round"></path><path d="M 376.000,131.000 C 376.927,126.984 376.897,126.972 378.000,123.000" stroke-width="12.755" stroke="rgb(33,33,33)" fill="none" stroke-linecap="round"></path><path d="M 378.000,123.000 C 379.397,117.972 379.656,118.039 381.000,113.000" stroke-width="11.698" stroke="rgb(33,33,33)" fill="none" stroke-linecap="round"></path><path d="M 381.000,113.000 C 381.656,110.539 381.301,110.447 382.000,108.000" stroke-width="11.826" stroke="rgb(33,33,33)" fill="none" stroke-linecap="round"></path><path d="M 382.000,108.000 C 383.301,103.447 383.663,103.547 385.000,99.000" stroke-width="11.206" stroke="rgb(33,33,33)" fill="none" stroke-linecap="round"></path><path d="M 385.000,99.000 C 386.163,95.047 385.938,94.983 387.000,91.000" stroke-width="10.935" stroke="rgb(33,33,33)" fill="none" stroke-linecap="round"></path><path d="M 387.000,91.000 C 387.938,87.483 387.930,87.478 389.000,84.000" stroke-width="10.986" stroke="rgb(33,33,33)" fill="none" stroke-linecap="round"></path><path d="M 389.000,84.000 C 389.930,80.978 390.322,81.052 391.000,78.000" stroke-width="10.915" stroke="rgb(33,33,33)" fill="none" stroke-linecap="round"></path><path d="M 391.000,78.000 C 391.322,76.552 390.815,76.482 391.000,75.000" stroke-width="11.566" stroke="rgb(33,33,33)" fill="none" stroke-linecap="round"></path><path d="M 391.000,75.000 C 391.315,72.482 391.121,72.343 392.000,70.000" stroke-width="11.436" stroke="rgb(33,33,33)" fill="none" stroke-linecap="round"></path><path d="M 392.000,70.000 C 392.621,68.343 393.454,68.638 394.000,67.000" stroke-width="12.111" stroke="rgb(33,33,33)" fill="none" stroke-linecap="round"></path><path d="M 394.000,67.000 C 394.454,65.638 393.714,65.432 394.000,64.000" stroke-width="11.654" stroke="rgb(33,33,33)" fill="none" stroke-linecap="round"></path><path d="M 394.000,64.000 C 394.214,62.932 394.736,63.056 395.000,62.000" stroke-width="12.444" stroke="rgb(33,33,33)" fill="none" stroke-linecap="round"></path><path d="M 395.000,62.000 C 395.236,61.056 394.764,60.944 395.000,60.000" stroke-width="12.801" stroke="rgb(33,33,33)" fill="none" stroke-linecap="round"></path><path d="M 395.000,60.000 C 395.264,58.944 395.655,59.036 396.000,58.000" stroke-width="13.501" stroke="rgb(33,33,33)" fill="none" stroke-linecap="round"></path><path d="M 396.000,58.000 C 396.155,57.536 396.000,57.500 396.000,57.000" stroke-width="13.808" stroke="rgb(33,33,33)" fill="none" stroke-linecap="round"></path><path d="M 396.000,57.000 C 396.000,56.500 396.000,56.500 396.000,56.000" stroke-width="14.569" stroke="rgb(33,33,33)" fill="none" stroke-linecap="round"></path><path d="M 396.000,56.000 C 396.000,55.500 396.000,55.500 396.000,55.000" stroke-width="14.868" stroke="rgb(33,33,33)" fill="none" stroke-linecap="round"></path><path d="M 396.000,55.000 C 396.000,54.500 396.000,54.500 396.000,54.000" stroke-width="15.531" stroke="rgb(33,33,33)" fill="none" stroke-linecap="round"></path><path d="M 396.000,54.000 C 396.000,53.000 396.000,53.000 396.000,52.000" stroke-width="14.033" stroke="rgb(33,33,33)" fill="none" stroke-linecap="round"></path><path d="M 396.000,52.000 C 396.000,51.500 396.000,51.500 396.000,51.000" stroke-width="14.769" stroke="rgb(33,33,33)" fill="none" stroke-linecap="round"></path><path d="M 396.000,51.000 C 396.000,50.500 396.000,50.500 396.000,50.000" stroke-width="15.034" stroke="rgb(33,33,33)" fill="none" stroke-linecap="round"></path><path d="M 396.000,50.000 C 396.000,49.000 396.000,49.000 396.000,48.000" stroke-width="15.527" stroke="rgb(33,33,33)" fill="none" stroke-linecap="round"></path><path d="M 396.000,48.000 C 396.000,46.500 396.000,46.500 396.000,45.000" stroke-width="14.030" stroke="rgb(33,33,33)" fill="none" stroke-linecap="round"></path><path d="M 396.000,45.000 C 396.000,44.000 396.000,44.000 396.000,43.000" stroke-width="14.589" stroke="rgb(33,33,33)" fill="none" stroke-linecap="round"></path><path d="M 396.000,43.000 C 396.000,42.000 396.000,42.000 396.000,41.000" stroke-width="14.026" stroke="rgb(33,33,33)" fill="none" stroke-linecap="round"></path><path d="M 396.000,41.000 C 396.000,39.500 396.000,39.500 396.000,38.000" stroke-width="14.516" stroke="rgb(33,33,33)" fill="none" stroke-linecap="round"></path><path d="M 396.000,38.000 C 396.000,36.000 396.000,36.000 396.000,34.000" stroke-width="13.358" stroke="rgb(33,33,33)" fill="none" stroke-linecap="round"></path><path d="M 396.000,34.000 C 396.000,33.500 396.000,33.500 396.000,33.000" stroke-width="14.166" stroke="rgb(33,33,33)" fill="none" stroke-linecap="round"></path><path d="M 396.000,33.000 C 396.000,31.500 396.000,31.500 396.000,30.000" stroke-width="13.119" stroke="rgb(33,33,33)" fill="none" stroke-linecap="round"></path><path d="M 396.000,30.000 C 396.000,28.500 396.286,28.432 396.000,27.000" stroke-width="13.753" stroke="rgb(33,33,33)" fill="none" stroke-linecap="round"></path><path d="M 396.000,27.000 C 395.786,25.932 395.345,26.036 395.000,25.000" stroke-width="12.644" stroke="rgb(33,33,33)" fill="none" stroke-linecap="round"></path><path d="M 395.000,25.000 C 394.845,24.536 395.207,24.414 395.000,24.000" stroke-width="13.519" stroke="rgb(33,33,33)" fill="none" stroke-linecap="round"></path><path d="M 395.000,24.000 C 394.707,23.414 394.500,23.500 394.000,23.000" stroke-width="13.567" stroke="rgb(33,33,33)" fill="none" stroke-linecap="round"></path><path d="M 394.000,23.000 C 393.500,22.500 393.586,22.293 393.000,22.000" stroke-width="14.332" stroke="rgb(33,33,33)" fill="none" stroke-linecap="round"></path><path d="M 393.000,22.000 C 392.586,21.793 392.500,22.000 392.000,22.000" stroke-width="14.495" stroke="rgb(33,33,33)" fill="none" stroke-linecap="round"></path><path d="M 392.000,22.000 C 391.500,22.000 391.500,22.000 391.000,22.000" stroke-width="15.192" stroke="rgb(33,33,33)" fill="none" stroke-linecap="round"></path><path d="M 391.000,22.000 C 389.500,22.000 389.500,22.000 388.000,22.000" stroke-width="13.809" stroke="rgb(33,33,33)" fill="none" stroke-linecap="round"></path><path d="M 388.000,22.000 C 387.500,22.000 387.500,22.000 387.000,22.000" stroke-width="14.584" stroke="rgb(33,33,33)" fill="none" stroke-linecap="round"></path><path d="M 387.000,22.000 C 386.000,22.000 386.000,22.000 385.000,22.000" stroke-width="14.022" stroke="rgb(33,33,33)" fill="none" stroke-linecap="round"></path><path d="M 385.000,22.000 C 384.500,22.000 384.500,22.000 384.000,22.000" stroke-width="14.785" stroke="rgb(33,33,33)" fill="none" stroke-linecap="round"></path><path d="M 384.000,22.000 C 383.000,22.000 382.879,21.707 382.000,22.000" stroke-width="14.171" stroke="rgb(33,33,33)" fill="none" stroke-linecap="round"></path><path d="M 382.000,22.000 C 381.379,22.207 381.500,22.500 381.000,23.000" stroke-width="14.853" stroke="rgb(33,33,33)" fill="none" stroke-linecap="round"></path><path d="M 381.000,23.000 C 380.000,24.000 380.108,24.261 379.000,25.000" stroke-width="12.869" stroke="rgb(33,33,33)" fill="none" stroke-linecap="round"></path><path d="M 379.000,25.000 C 378.608,25.261 378.414,24.793 378.000,25.000" stroke-width="13.770" stroke="rgb(33,33,33)" fill="none" stroke-linecap="round"></path><path d="M 378.000,25.000 C 377.414,25.293 377.500,25.500 377.000,26.000" stroke-width="13.768" stroke="rgb(33,33,33)" fill="none" stroke-linecap="round"></path><path d="M 377.000,26.000 C 376.500,26.500 376.293,26.414 376.000,27.000" stroke-width="14.440" stroke="rgb(33,33,33)" fill="none" stroke-linecap="round"></path><path d="M 376.000,27.000 C 375.793,27.414 376.207,27.586 376.000,28.000" stroke-width="14.584" stroke="rgb(33,33,33)" fill="none" stroke-linecap="round"></path><path d="M 376.000,28.000 C 375.707,28.586 375.500,28.500 375.000,29.000" stroke-width="15.265" stroke="rgb(33,33,33)" fill="none" stroke-linecap="round"></path><path d="M 375.000,29.000 C 374.500,29.500 374.309,29.382 374.000,30.000" stroke-width="14.437" stroke="rgb(33,33,33)" fill="none" stroke-linecap="round"></path><path d="M 374.000,30.000 C 373.309,31.382 373.221,31.455 373.000,33.000" stroke-width="14.617" stroke="rgb(33,33,33)" fill="none" stroke-linecap="round"></path><path d="M 373.000,33.000 C 372.721,34.955 373.387,35.063 373.000,37.000" stroke-width="11.854" stroke="rgb(33,33,33)" fill="none" stroke-linecap="round"></path><path d="M 373.000,37.000 C 372.387,40.063 371.360,39.880 371.000,43.000" stroke-width="12.399" stroke="rgb(33,33,33)" fill="none" stroke-linecap="round"></path><path d="M 371.000,43.000 C 369.860,52.880 370.624,53.008 370.000,63.000" stroke-width="6.750" stroke="rgb(33,33,33)" fill="none" stroke-linecap="round"></path><path d="M 370.000,63.000 C 369.624,69.008 369.240,68.989 369.000,75.000" stroke-width="6.750" stroke="rgb(33,33,33)" fill="none" stroke-linecap="round"></path><path d="M 369.000,75.000 C 368.740,81.489 369.000,81.500 369.000,88.000" stroke-width="6.750" stroke="rgb(33,33,33)" fill="none" stroke-linecap="round"></path><path d="M 369.000,88.000 C 369.000,94.500 369.000,94.500 369.000,101.000" stroke-width="6.750" stroke="rgb(33,33,33)" fill="none" stroke-linecap="round"></path><path d="M 369.000,101.000 C 369.000,108.500 369.000,108.500 369.000,116.000" stroke-width="6.750" stroke="rgb(33,33,33)" fill="none" stroke-linecap="round"></path><path d="M 369.000,116.000 C 369.000,118.500 369.000,118.500 369.000,121.000" stroke-width="6.750" stroke="rgb(33,33,33)" fill="none" stroke-linecap="round"></path><path d="M 369.000,121.000 C 369.000,126.500 369.000,126.500 369.000,132.000" stroke-width="6.750" stroke="rgb(33,33,33)" fill="none" stroke-linecap="round"></path><path d="M 369.000,132.000 C 369.000,137.000 369.000,137.000 369.000,142.000" stroke-width="6.750" stroke="rgb(33,33,33)" fill="none" stroke-linecap="round"></path><path d="M 369.000,142.000 C 369.000,146.000 368.609,146.092 369.000,150.000" stroke-width="6.750" stroke="rgb(33,33,33)" fill="none" stroke-linecap="round"></path><path d="M 369.000,150.000 C 369.109,151.092 369.864,150.914 370.000,152.000" stroke-width="6.750" stroke="rgb(33,33,33)" fill="none" stroke-linecap="round"></path><path d="M 370.000,152.000 C 370.364,154.914 369.704,155.036 370.000,158.000" stroke-width="6.750" stroke="rgb(33,33,33)" fill="none" stroke-linecap="round"></path><path d="M 370.000,158.000 C 370.204,160.036 370.500,160.000 371.000,162.000" stroke-width="7.324" stroke="rgb(33,33,33)" fill="none" stroke-linecap="round"></path><path d="M 371.000,162.000 C 371.500,164.000 371.434,164.019 372.000,166.000" stroke-width="7.170" stroke="rgb(33,33,33)" fill="none" stroke-linecap="round"></path><path d="M 372.000,166.000 C 372.434,167.519 372.743,167.460 373.000,169.000" stroke-width="8.074" stroke="rgb(33,33,33)" fill="none" stroke-linecap="round"></path><path d="M 373.000,169.000 C 373.243,170.460 372.485,170.713 373.000,172.000" stroke-width="8.079" stroke="rgb(33,33,33)" fill="none" stroke-linecap="round"></path><path d="M 373.000,172.000 C 373.485,173.213 374.414,172.828 375.000,174.000" stroke-width="9.038" stroke="rgb(33,33,33)" fill="none" stroke-linecap="round"></path><path d="M 375.000,174.000 C 375.414,174.828 374.586,175.172 375.000,176.000" stroke-width="9.236" stroke="rgb(33,33,33)" fill="none" stroke-linecap="round"></path><path d="M 375.000,176.000 C 375.586,177.172 375.828,177.414 377.000,178.000" stroke-width="10.138" stroke="rgb(33,33,33)" fill="none" stroke-linecap="round"></path><path d="M 377.000,178.000 C 377.828,178.414 378.333,177.667 379.000,178.000" stroke-width="10.135" stroke="rgb(33,33,33)" fill="none" stroke-linecap="round"></path><path d="M 379.000,178.000 C 379.333,178.167 379.000,178.500 379.000,179.000" stroke-width="11.254" stroke="rgb(33,33,33)" fill="none" stroke-linecap="round"></path><path d="M 379.000,179.000 C 379.000,180.500 379.000,180.500 379.000,182.000" stroke-width="11.811" stroke="rgb(33,33,33)" fill="none" stroke-linecap="round"></path><path d="M 379.000,182.000 C 379.000,184.000 378.802,184.016 379.000,186.000" stroke-width="12.114" stroke="rgb(33,33,33)" fill="none" stroke-linecap="round"></path><path d="M 379.000,186.000 C 379.302,189.016 379.500,189.000 380.000,192.000" stroke-width="11.987" stroke="rgb(33,33,33)" fill="none" stroke-linecap="round"></path><path d="M 380.000,192.000 C 380.500,195.000 380.317,195.041 381.000,198.000" stroke-width="11.887" stroke="rgb(33,33,33)" fill="none" stroke-linecap="round"></path><path d="M 381.000,198.000 C 381.817,201.541 382.211,201.451 383.000,205.000" stroke-width="11.606" stroke="rgb(33,33,33)" fill="none" stroke-linecap="round"></path><path d="M 383.000,205.000 C 384.211,210.451 384.029,210.495 385.000,216.000" stroke-width="10.798" stroke="rgb(33,33,33)" fill="none" stroke-linecap="round"></path><path d="M 385.000,216.000 C 385.529,218.995 385.363,219.028 386.000,222.000" stroke-width="10.932" stroke="rgb(33,33,33)" fill="none" stroke-linecap="round"></path><path d="M 386.000,222.000 C 386.863,226.028 387.000,226.000 388.000,230.000" stroke-width="10.725" stroke="rgb(33,33,33)" fill="none" stroke-linecap="round"></path><path d="M 388.000,230.000 C 388.500,232.000 388.596,231.980 389.000,234.000" stroke-width="11.166" stroke="rgb(33,33,33)" fill="none" stroke-linecap="round"></path><path d="M 389.000,234.000 C 389.596,236.980 389.404,237.020 390.000,240.000" stroke-width="11.338" stroke="rgb(33,33,33)" fill="none" stroke-linecap="round"></path><path d="M 390.000,240.000 C 390.404,242.020 390.711,241.974 391.000,244.000" stroke-width="11.693" stroke="rgb(33,33,33)" fill="none" stroke-linecap="round"></path><path d="M 391.000,244.000 C 391.211,245.474 390.714,245.568 391.000,247.000" stroke-width="12.257" stroke="rgb(33,33,33)" fill="none" stroke-linecap="round"></path><path d="M 391.000,247.000 C 391.214,248.068 391.736,247.944 392.000,249.000" stroke-width="12.686" stroke="rgb(33,33,33)" fill="none" stroke-linecap="round"></path><path d="M 392.000,249.000 C 392.236,249.944 392.000,250.000 392.000,251.000" stroke-width="13.310" stroke="rgb(33,33,33)" fill="none" stroke-linecap="round"></path><path d="M 392.000,251.000 C 392.000,251.000 392.000,251.000 392.000,251.000" stroke-width="14.289" stroke="rgb(33,33,33)" fill="none" stroke-linecap="round"></path><path d="M 392.000,251.000 C 392.000,251.500 392.000,251.500 392.000,252.000" stroke-width="14.934" stroke="rgb(33,33,33)" fill="none" stroke-linecap="round"></path><path d="M 392.000,252.000 C 391.000,252.500 391.036,252.655 390.000,253.000" stroke-width="16.851" stroke="rgb(33,33,33)" fill="none" stroke-linecap="round"></path><path d="M 390.000,253.000 C 389.536,253.155 389.500,253.000 389.000,253.000" stroke-width="17.069" stroke="rgb(33,33,33)" fill="none" stroke-linecap="round"></path><path d="M 389.000,253.000 C 388.000,253.000 388.000,253.000 387.000,253.000" stroke-width="16.966" stroke="rgb(33,33,33)" fill="none" stroke-linecap="round"></path><path d="M 387.000,253.000 C 386.500,253.000 386.500,253.000 386.000,253.000" stroke-width="17.164" stroke="rgb(33,33,33)" fill="none" stroke-linecap="round"></path><path d="M 386.000,253.000 C 385.000,253.000 385.000,253.000 384.000,253.000" stroke-width="16.861" stroke="rgb(33,33,33)" fill="none" stroke-linecap="round"></path><path d="M 384.000,253.000 C 382.500,253.000 382.432,253.286 381.000,253.000" stroke-width="16.497" stroke="rgb(33,33,33)" fill="none" stroke-linecap="round"></path><path d="M 381.000,253.000 C 379.932,252.786 380.056,252.264 379.000,252.000" stroke-width="16.359" stroke="rgb(33,33,33)" fill="none" stroke-linecap="round"></path><path d="M 379.000,252.000 C 378.056,251.764 377.892,252.357 377.000,252.000" stroke-width="16.327" stroke="rgb(33,33,33)" fill="none" stroke-linecap="round"></path><path d="M 377.000,252.000 C 375.392,251.357 375.598,250.799 374.000,250.000" stroke-width="15.634" stroke="rgb(33,33,33)" fill="none" stroke-linecap="round"></path><path d="M 374.000,250.000 C 372.598,249.299 372.500,249.500 371.000,249.000" stroke-width="15.500" stroke="rgb(33,33,33)" fill="none" stroke-linecap="round"></path><path d="M 371.000,249.000 C 369.500,248.500 369.450,248.621 368.000,248.000" stroke-width="15.292" stroke="rgb(33,33,33)" fill="none" stroke-linecap="round"></path><path d="M 368.000,248.000 C 365.950,247.121 366.081,246.780 364.000,246.000" stroke-width="14.768" stroke="rgb(33,33,33)" fill="none" stroke-linecap="round"></path><path d="M 364.000,246.000 C 362.081,245.280 362.000,245.500 360.000,245.000" stroke-width="14.583" stroke="rgb(33,33,33)" fill="none" stroke-linecap="round"></path><path d="M 360.000,245.000 C 358.000,244.500 357.919,244.720 356.000,244.000" stroke-width="14.174" stroke="rgb(33,33,33)" fill="none" stroke-linecap="round"></path><path d="M 356.000,244.000 C 353.919,243.220 354.081,242.780 352.000,242.000" stroke-width="13.920" stroke="rgb(33,33,33)" fill="none" stroke-linecap="round"></path><path d="M 352.000,242.000 C 350.081,241.280 349.945,241.648 348.000,241.000" stroke-width="13.914" stroke="rgb(33,33,33)" fill="none" stroke-linecap="round"></path><path d="M 348.000,241.000 C 346.945,240.648 347.036,240.414 346.000,240.000" stroke-width="14.258" stroke="rgb(33,33,33)" fill="none" stroke-linecap="round"></path><path d="M 346.000,240.000 C 344.536,239.414 344.402,239.701 343.000,239.000" stroke-width="14.308" stroke="rgb(33,33,33)" fill="none" stroke-linecap="round"></path><path d="M 343.000,239.000 C 341.402,238.201 341.543,237.926 340.000,237.000" stroke-width="14.237" stroke="rgb(33,33,33)" fill="none" stroke-linecap="round"></path><path d="M 340.000,237.000 C 339.043,236.426 338.919,236.613 338.000,236.000" stroke-width="14.529" stroke="rgb(33,33,33)" fill="none" stroke-linecap="round"></path><path d="M 338.000,236.000 C 337.419,235.613 337.586,235.293 337.000,235.000" stroke-width="14.996" stroke="rgb(33,33,33)" fill="none" stroke-linecap="round"></path><path d="M 337.000,235.000 C 336.586,234.793 336.414,235.207 336.000,235.000" stroke-width="15.514" stroke="rgb(33,33,33)" fill="none" stroke-linecap="round"></path><path d="M 336.000,235.000 C 335.414,234.707 335.500,234.500 335.000,234.000" stroke-width="15.874" stroke="rgb(33,33,33)" fill="none" stroke-linecap="round"></path><path d="M 335.000,234.000 C 334.500,233.500 334.207,233.621 334.000,233.000" stroke-width="16.059" stroke="rgb(33,33,33)" fill="none" stroke-linecap="round"></path><path d="M 334.000,233.000 C 333.707,232.121 334.000,232.000 334.000,231.000" stroke-width="16.216" stroke="rgb(33,33,33)" fill="none" stroke-linecap="round"></path><path d="M 334.000,231.000 C 334.000,230.500 334.000,230.500 334.000,230.000" stroke-width="16.432" stroke="rgb(33,33,33)" fill="none" stroke-linecap="round"></path><path d="M 334.000,230.000 C 334.000,229.000 334.000,229.000 334.000,228.000" stroke-width="16.568" stroke="rgb(33,33,33)" fill="none" stroke-linecap="round"></path><path d="M 334.000,228.000 C 334.000,227.000 334.000,227.000 334.000,226.000" stroke-width="16.100" stroke="rgb(33,33,33)" fill="none" stroke-linecap="round"></path><path d="M 334.000,226.000 C 334.000,225.000 334.000,225.000 334.000,224.000" stroke-width="16.336" stroke="rgb(33,33,33)" fill="none" stroke-linecap="round"></path><path d="M 334.000,224.000 C 334.000,222.500 333.599,222.405 334.000,221.000" stroke-width="15.093" stroke="rgb(33,33,33)" fill="none" stroke-linecap="round"></path><path d="M 334.000,221.000 C 334.599,218.905 335.000,219.000 336.000,217.000" stroke-width="15.024" stroke="rgb(33,33,33)" fill="none" stroke-linecap="round"></path><path d="M 336.000,217.000 C 336.000,217.000 336.000,217.000 336.000,217.000" stroke-width="15.842" stroke="rgb(33,33,33)" fill="none" stroke-linecap="round"></path><path d="M 336.000,217.000 C 338.000,215.500 338.136,215.657 340.000,214.000" stroke-width="14.830" stroke="rgb(33,33,33)" fill="none" stroke-linecap="round"></path><path d="M 340.000,214.000 C 342.636,211.657 342.293,211.256 345.000,209.000" stroke-width="14.452" stroke="rgb(33,33,33)" fill="none" stroke-linecap="round"></path><path d="M 345.000,209.000 C 348.293,206.256 348.532,206.543 352.000,204.000" stroke-width="11.564" stroke="rgb(33,33,33)" fill="none" stroke-linecap="round"></path><path d="M 352.000,204.000 C 356.032,201.043 355.975,200.966 360.000,198.000" stroke-width="11.108" stroke="rgb(33,33,33)" fill="none" stroke-linecap="round"></path><path d="M 360.000,198.000 C 365.475,193.966 365.384,193.829 371.000,190.000" stroke-width="9.892" stroke="rgb(33,33,33)" fill="none" stroke-linecap="round"></path><path d="M 371.000,190.000 C 376.384,186.329 376.373,186.283 382.000,183.000" stroke-width="9.519" stroke="rgb(33,33,33)" fill="none" stroke-linecap="round"></path><path d="M 382.000,183.000 C 388.373,179.283 388.509,179.516 395.000,176.000" stroke-width="8.714" stroke="rgb(33,33,33)" fill="none" stroke-linecap="round"></path><path d="M 395.000,176.000 C 400.509,173.016 400.402,172.799 406.000,170.000" stroke-width="8.663" stroke="rgb(33,33,33)" fill="none" stroke-linecap="round"></path><path d="M 406.000,170.000 C 409.402,168.299 409.479,168.450 413.000,167.000" stroke-width="8.852" stroke="rgb(33,33,33)" fill="none" stroke-linecap="round"></path><path d="M 413.000,167.000 C 417.979,164.950 417.949,164.861 423.000,163.000" stroke-width="8.807" stroke="rgb(33,33,33)" fill="none" stroke-linecap="round"></path><path d="M 423.000,163.000 C 427.449,161.361 427.562,161.664 432.000,160.000" stroke-width="8.999" stroke="rgb(33,33,33)" fill="none" stroke-linecap="round"></path><path d="M 432.000,160.000 C 435.562,158.664 435.413,158.076 439.000,157.000" stroke-width="9.244" stroke="rgb(33,33,33)" fill="none" stroke-linecap="round"></path><path d="M 439.000,157.000 C 440.413,156.576 440.552,157.322 442.000,157.000" stroke-width="9.988" stroke="rgb(33,33,33)" fill="none" stroke-linecap="round"></path><path d="M 442.000,157.000 C 445.052,156.322 444.973,155.908 448.000,155.000" stroke-width="10.227" stroke="rgb(33,33,33)" fill="none" stroke-linecap="round"></path><path d="M 448.000,155.000 C 449.973,154.408 449.970,154.254 452.000,154.000" stroke-width="10.796" stroke="rgb(33,33,33)" fill="none" stroke-linecap="round"></path><path d="M 452.000,154.000 C 453.970,153.754 454.045,154.279 456.000,154.000" stroke-width="11.158" stroke="rgb(33,33,33)" fill="none" stroke-linecap="round"></path><path d="M 456.000,154.000 C 457.545,153.779 457.469,153.306 459.000,153.000" stroke-width="11.759" stroke="rgb(33,33,33)" fill="none" stroke-linecap="round"></path><path d="M 459.000,153.000 C 459.969,152.806 460.000,153.000 461.000,153.000" stroke-width="12.441" stroke="rgb(33,33,33)" fill="none" stroke-linecap="round"></path><path d="M 461.000,153.000 C 462.000,153.000 462.121,153.293 463.000,153.000" stroke-width="13.046" stroke="rgb(33,33,33)" fill="none" stroke-linecap="round"></path><path d="M 463.000,153.000 C 463.621,152.793 463.414,152.293 464.000,152.000" stroke-width="13.709" stroke="rgb(33,33,33)" fill="none" stroke-linecap="round"></path><path d="M 464.000,152.000 C 464.414,151.793 464.500,152.000 465.000,152.000" stroke-width="14.466" stroke="rgb(33,33,33)" fill="none" stroke-linecap="round"></path><path d="M 465.000,152.000 C 465.500,152.000 465.586,152.207 466.000,152.000" stroke-width="14.782" stroke="rgb(33,33,33)" fill="none" stroke-linecap="round"></path><path d="M 466.000,152.000 C 466.586,151.707 466.414,151.293 467.000,151.000" stroke-width="15.322" stroke="rgb(33,33,33)" fill="none" stroke-linecap="round"></path><path d="M 467.000,151.000 C 467.414,150.793 467.500,151.000 468.000,151.000" stroke-width="15.690" stroke="rgb(33,33,33)" fill="none" stroke-linecap="round"></path><path d="M 468.000,151.000 C 468.500,151.000 468.500,151.000 469.000,151.000" stroke-width="16.168" stroke="rgb(33,33,33)" fill="none" stroke-linecap="round"></path><path d="M 469.000,151.000 C 469.500,151.000 469.750,151.250 470.000,151.000" stroke-width="16.392" stroke="rgb(33,33,33)" fill="none" stroke-linecap="round"></path><path d="M 470.000,151.000 C 470.250,150.750 469.750,150.250 470.000,150.000" stroke-width="16.824" stroke="rgb(33,33,33)" fill="none" stroke-linecap="round"></path><path d="M 470.000,150.000 C 470.250,149.750 470.500,150.000 471.000,150.000" stroke-width="16.469" stroke="rgb(33,33,33)" fill="none" stroke-linecap="round"></path><path d="M 471.000,150.000 C 471.500,149.500 471.500,149.500 472.000,149.000" stroke-width="17.673" stroke="rgb(33,33,33)" fill="none" stroke-linecap="round"></path></svg>