<svg xmlns="http://www.w3.org/2000/svg" xmlns:xlink="http://www.w3.org/1999/xlink" viewBox="0 0 360 500"><path d="M 79.000,182.000 C 79.167,190.079 79.070,190.083 79.333,198.159" stroke-width="15.651" stroke="rgb(33,33,33)" fill="none" stroke-linecap="round"></path><path d="M 79.333,198.159 C 79.627,207.179 79.758,207.175 80.115,216.193" stroke-width="13.184" stroke="rgb(33,33,33)" fill="none" stroke-linecap="round"></path><path d="M 80.115,216.193 C 80.356,222.263 80.356,222.264 80.529,228.336" stroke-width="12.950" stroke="rgb(33,33,33)" fill="none" stroke-linecap="round"></path><path d="M 80.529,228.336 C 80.733,235.527 80.621,235.530 80.869,242.720" stroke-width="12.417" stroke="rgb(33,33,33)" fill="none" stroke-linecap="round"></path><path d="M 80.869,242.720 C 81.569,263.018 80.488,263.117 82.426,283.311" stroke-width="11.614" stroke="rgb(33,33,33)" fill="none" stroke-linecap="round"></path><path d="M 82.426,283.311 C 85.188,312.094 85.696,312.110 90.268,340.675" stroke-width="9.546" stroke="rgb(33,33,33)" fill="none" stroke-linecap="round"></path><path d="M 90.268,340.675 C 91.967,351.288 92.645,351.165 94.968,361.667" stroke-width="6.812" stroke="rgb(33,33,33)" fill="none" stroke-linecap="round"></path><path d="M 94.968,361.667 C 96.634,369.200 96.436,369.250 98.245,376.746" stroke-width="7.015" stroke="rgb(33,33,33)" fill="none" stroke-linecap="round"></path><path d="M 98.245,376.746 C 99.181,380.625 99.344,380.584 100.459,384.417" stroke-width="7.946" stroke="rgb(33,33,33)" fill="none" stroke-linecap="round"></path><path d="M 100.459,384.417 C 100.918,385.995 100.851,386.025 101.392,387.568" stroke-width="8.811" stroke="rgb(33,33,33)" fill="none" stroke-linecap="round"></path><path d="M 101.392,387.568 C 101.538,387.983 101.775,388.628 101.833,388.333" stroke-width="9.885" stroke="rgb(33,33,33)" fill="none" stroke-linecap="round"></path><path d="M 101.833,388.333 C 102.103,386.956 102.035,386.281 102.049,384.224" stroke-width="10.351" stroke="rgb(33,33,33)" fill="none" stroke-linecap="round"></path><path d="M 102.049,384.224 C 102.118,374.114 101.924,374.111 102.000,364.000" stroke-width="7.867" stroke="rgb(33,33,33)" fill="none" stroke-linecap="round"></path><path d="M 102.000,364.000 C 102.104,350.175 102.231,350.176 102.408,336.352" stroke-width="7.774" stroke="rgb(33,33,33)" fill="none" stroke-linecap="round"></path><path d="M 102.408,336.352 C 102.565,324.124 102.389,324.120 102.667,311.895" stroke-width="7.820" stroke="rgb(33,33,33)" fill="none" stroke-linecap="round"></path><path d="M 102.667,311.895 C 102.926,300.486 102.488,300.438 103.481,289.083" stroke-width="7.972" stroke="rgb(33,33,33)" fill="none" stroke-linecap="round"></path><path d="M 103.481,289.083 C 104.505,277.375 104.766,277.371 106.700,265.768" stroke-width="8.415" stroke="rgb(33,33,33)" fill="none" stroke-linecap="round"></path><path d="M 106.700,265.768 C 108.406,255.534 108.637,255.569 110.761,245.410" stroke-width="8.546" stroke="rgb(33,33,33)" fill="none" stroke-linecap="round"></path><path d="M 110.761,245.410 C 112.637,236.435 112.813,236.472 114.700,227.500" stroke-width="8.090" stroke="rgb(33,33,33)" fill="none" stroke-linecap="round"></path><path d="M 114.700,227.500 C 116.445,219.204 116.161,219.141 118.025,210.874" stroke-width="8.338" stroke="rgb(33,33,33)" fill="none" stroke-linecap="round"></path><path d="M 118.025,210.874 C 119.494,204.360 119.755,204.421 121.367,197.939" stroke-width="8.767" stroke="rgb(33,33,33)" fill="none" stroke-linecap="round"></path><path d="M 121.367,197.939 C 122.310,194.146 122.422,194.157 123.135,190.325" stroke-width="9.463" stroke="rgb(33,33,33)" fill="none" stroke-linecap="round"></path><path d="M 123.135,190.325 C 123.405,188.876 123.255,188.852 123.333,187.377" stroke-width="10.391" stroke="rgb(33,33,33)" fill="none" stroke-linecap="round"></path><path d="M 123.333,187.377 C 123.354,186.988 123.272,186.473 123.333,186.598" stroke-width="11.449" stroke="rgb(33,33,33)" fill="none" stroke-linecap="round"></path><path d="M 123.333,186.598 C 123.456,186.852 123.625,187.349 123.700,188.135" stroke-width="12.404" stroke="rgb(33,33,33)" fill="none" stroke-linecap="round"></path><path d="M 123.700,188.135 C 124.366,195.115 124.555,195.119 124.816,202.129" stroke-width="12.043" stroke="rgb(33,33,33)" fill="none" stroke-linecap="round"></path><path d="M 124.816,202.129 C 125.205,212.551 124.791,212.567 125.000,223.000" stroke-width="11.212" stroke="rgb(33,33,33)" fill="none" stroke-linecap="round"></path><path d="M 125.000,223.000 C 125.250,235.461 125.583,235.456 125.735,247.917" stroke-width="10.537" stroke="rgb(33,33,33)" fill="none" stroke-linecap="round"></path><path d="M 125.735,247.917 C 125.916,262.741 125.686,262.744 125.667,277.571" stroke-width="9.706" stroke="rgb(33,33,33)" fill="none" stroke-linecap="round"></path><path d="M 125.667,277.571 C 125.652,289.543 125.983,289.552 125.667,301.515" stroke-width="9.415" stroke="rgb(33,33,33)" fill="none" stroke-linecap="round"></path><path d="M 125.667,301.515 C 125.413,311.141 125.276,311.147 124.528,320.749" stroke-width="9.369" stroke="rgb(33,33,33)" fill="none" stroke-linecap="round"></path><path d="M 124.528,320.749 C 124.041,327.006 124.228,327.059 123.196,333.234" stroke-width="9.750" stroke="rgb(33,33,33)" fill="none" stroke-linecap="round"></path><path d="M 123.196,333.234 C 122.528,337.227 122.802,337.476 121.128,341.085" stroke-width="10.347" stroke="rgb(33,33,33)" fill="none" stroke-linecap="round"></path><path d="M 121.128,341.085 C 119.816,343.913 119.740,344.292 117.224,346.109" stroke-width="11.003" stroke="rgb(33,33,33)" fill="none" stroke-linecap="round"></path><path d="M 117.224,346.109 C 113.082,349.100 112.823,349.503 107.811,350.700" stroke-width="11.229" stroke="rgb(33,33,33)" fill="none" stroke-linecap="round"></path><path d="M 107.811,350.700 C 100.342,352.484 99.852,352.958 92.262,352.070" stroke-width="11.150" stroke="rgb(33,33,33)" fill="none" stroke-linecap="round"></path><path d="M 92.262,352.070 C 84.710,351.186 84.578,350.318 77.528,347.157" stroke-width="10.964" stroke="rgb(33,33,33)" fill="none" stroke-linecap="round"></path><path d="M 77.528,347.157 C 70.701,344.096 70.780,343.756 64.509,339.626" stroke-width="10.919" stroke="rgb(33,33,33)" fill="none" stroke-linecap="round"></path><path d="M 64.509,339.626 C 57.541,335.037 57.734,334.732 51.049,329.720" stroke-width="10.700" stroke="rgb(33,33,33)" fill="none" stroke-linecap="round"></path><path d="M 51.049,329.720 C 46.962,326.656 47.117,326.440 42.965,323.474" stroke-width="10.995" stroke="rgb(33,33,33)" fill="none" stroke-linecap="round"></path><path d="M 42.965,323.474 C 40.361,321.614 40.159,321.893 37.538,320.069" stroke-width="11.694" stroke="rgb(33,33,33)" fill="none" stroke-linecap="round"></path><path d="M 37.538,320.069 C 36.613,319.425 36.744,319.254 35.872,318.539" stroke-width="12.518" stroke="rgb(33,33,33)" fill="none" stroke-linecap="round"></path><path d="M 35.872,318.539 C 35.441,318.185 35.034,318.365 34.932,317.932" stroke-width="13.419" stroke="rgb(33,33,33)" fill="none" stroke-linecap="round"></path><path d="M 34.932,317.932 C 34.797,317.364 34.939,317.076 35.398,316.537" stroke-width="14.205" stroke="rgb(33,33,33)" fill="none" stroke-linecap="round"></path><path d="M 35.398,316.537 C 36.270,315.512 36.317,315.342 37.593,314.805" stroke-width="14.764" stroke="rgb(33,33,33)" fill="none" stroke-linecap="round"></path><path d="M 37.593,314.805 C 42.452,312.760 42.568,312.880 47.669,311.372" stroke-width="14.158" stroke="rgb(33,33,33)" fill="none" stroke-linecap="round"></path><path d="M 47.669,311.372 C 55.948,308.925 55.974,308.986 64.353,306.896" stroke-width="13.349" stroke="rgb(33,33,33)" fill="none" stroke-linecap="round"></path><path d="M 64.353,306.896 C 76.718,303.812 76.721,303.809 89.157,301.025" stroke-width="11.391" stroke="rgb(33,33,33)" fill="none" stroke-linecap="round"></path><path d="M 89.157,301.025 C 103.065,297.911 103.277,298.748 117.041,295.100" stroke-width="10.764" stroke="rgb(33,33,33)" fill="none" stroke-linecap="round"></path><path d="M 117.041,295.100 C 134.287,290.529 134.151,289.976 151.177,284.587" stroke-width="8.803" stroke="rgb(33,33,33)" fill="none" stroke-linecap="round"></path><path d="M 151.177,284.587 C 166.564,279.717 166.656,279.964 181.867,274.583" stroke-width="8.196" stroke="rgb(33,33,33)" fill="none" stroke-linecap="round"></path><path d="M 181.867,274.583 C 196.682,269.342 196.444,268.675 211.229,263.343" stroke-width="7.952" stroke="rgb(33,33,33)" fill="none" stroke-linecap="round"></path><path d="M 211.229,263.343 C 225.512,258.191 225.803,258.977 240.003,253.615" stroke-width="8.096" stroke="rgb(33,33,33)" fill="none" stroke-linecap="round"></path><path d="M 240.003,253.615 C 255.067,247.926 254.843,247.338 269.757,241.242" stroke-width="7.117" stroke="rgb(33,33,33)" fill="none" stroke-linecap="round"></path><path d="M 269.757,241.242 C 280.592,236.813 280.685,237.037 291.501,232.564" stroke-width="7.400" stroke="rgb(33,33,33)" fill="none" stroke-linecap="round"></path><path d="M 291.501,232.564 C 301.563,228.403 301.476,228.194 311.514,223.973" stroke-width="7.557" stroke="rgb(33,33,33)" fill="none" stroke-linecap="round"></path><path d="M 311.514,223.973 C 319.452,220.635 319.465,220.664 327.452,217.447" stroke-width="7.953" stroke="rgb(33,33,33)" fill="none" stroke-linecap="round"></path><path d="M 327.452,217.447 C 331.878,215.665 331.727,214.943 336.340,213.974" stroke-width="8.594" stroke="rgb(33,33,33)" fill="none" stroke-linecap="round"></path><path d="M 141.000,261.000 C 140.771,255.224 139.980,255.095 140.541,249.449" stroke-width="18.536" stroke="rgb(33,33,33)" fill="none" stroke-linecap="round"></path><path d="M 140.541,249.449 C 140.837,246.476 141.290,246.433 142.714,243.763" stroke-width="16.515" stroke="rgb(33,33,33)" fill="none" stroke-linecap="round"></path><path d="M 142.714,243.763 C 144.578,240.267 144.787,240.348 147.117,237.117" stroke-width="15.273" stroke="rgb(33,33,33)" fill="none" stroke-linecap="round"></path><path d="M 147.117,237.117 C 150.103,232.977 149.821,232.706 153.345,229.020" stroke-width="14.282" stroke="rgb(33,33,33)" fill="none" stroke-linecap="round"></path><path d="M 153.345,229.020 C 165.655,216.144 165.530,215.908 178.785,203.993" stroke-width="11.544" stroke="rgb(33,33,33)" fill="none" stroke-linecap="round"></path><path d="M 178.785,203.993 C 190.508,193.455 190.904,193.878 203.300,184.114" stroke-width="10.255" stroke="rgb(33,33,33)" fill="none" stroke-linecap="round"></path><path d="M 203.300,184.114 C 214.613,175.204 214.312,174.726 226.202,166.645" stroke-width="9.644" stroke="rgb(33,33,33)" fill="none" stroke-linecap="round"></path><path d="M 226.202,166.645 C 235.993,159.991 236.064,159.897 246.661,154.645" stroke-width="9.448" stroke="rgb(33,33,33)" fill="none" stroke-linecap="round"></path><path d="M 246.661,154.645 C 256.404,149.816 256.438,149.113 266.883,146.484" stroke-width="9.327" stroke="rgb(33,33,33)" fill="none" stroke-linecap="round"></path><path d="M 266.883,146.484 C 274.934,144.457 275.559,144.203 283.653,145.333" stroke-width="9.370" stroke="rgb(33,33,33)" fill="none" stroke-linecap="round"></path><path d="M 283.653,145.333 C 289.956,146.213 290.448,146.765 295.677,150.505" stroke-width="9.571" stroke="rgb(33,33,33)" fill="none" stroke-linecap="round"></path><path d="M 295.677,150.505 C 302.451,155.349 303.278,155.411 307.659,162.501" stroke-width="9.731" stroke="rgb(33,33,33)" fill="none" stroke-linecap="round"></path><path d="M 307.659,162.501 C 314.556,173.661 314.129,174.360 318.233,187.006" stroke-width="9.211" stroke="rgb(33,33,33)" fill="none" stroke-linecap="round"></path><path d="M 318.233,187.006 C 323.108,202.027 322.164,202.367 325.616,217.835" stroke-width="8.503" stroke="rgb(33,33,33)" fill="none" stroke-linecap="round"></path><path d="M 325.616,217.835 C 328.810,232.143 328.851,232.145 331.525,246.557" stroke-width="8.330" stroke="rgb(33,33,33)" fill="none" stroke-linecap="round"></path><path d="M 331.525,246.557 C 333.711,258.340 333.470,258.385 335.337,270.226" stroke-width="8.344" stroke="rgb(33,33,33)" fill="none" stroke-linecap="round"></path><path d="M 335.337,270.226 C 336.475,277.441 336.516,277.436 337.534,284.668" stroke-width="8.823" stroke="rgb(33,33,33)" fill="none" stroke-linecap="round"></path><path d="M 337.534,284.668 C 338.045,288.298 338.005,288.304 338.395,291.949" stroke-width="9.489" stroke="rgb(33,33,33)" fill="none" stroke-linecap="round"></path><path d="M 265.667,178.333 C 272.596,174.854 272.297,174.100 279.525,171.376" stroke-width="18.684" stroke="rgb(33,33,33)" fill="none" stroke-linecap="round"></path><path d="M 279.525,171.376 C 290.315,167.309 290.616,168.072 301.703,164.751" stroke-width="15.119" stroke="rgb(33,33,33)" fill="none" stroke-linecap="round"></path><circle r="6" cx="327" cy="91" fill="rgb(33,33,33)"></circle></svg>