<svg xmlns="http://www.w3.org/2000/svg" xmlns:xlink="http://www.w3.org/1999/xlink" viewBox="0 0 800 500"><path d="M 281.000,138.500 C 281.500,138.500 281.500,138.500 282.000,138.500" stroke-width="20.231" stroke="rgb(33,33,33)" fill="none" stroke-linecap="round"></path><path d="M 282.000,138.500 C 282.500,138.500 282.500,138.500 283.000,138.500" stroke-width="20.000" stroke="rgb(33,33,33)" fill="none" stroke-linecap="round"></path><path d="M 283.000,138.500 C 284.000,138.500 284.000,138.500 285.000,138.500" stroke-width="19.618" stroke="rgb(33,33,33)" fill="none" stroke-linecap="round"></path><path d="M 285.000,138.500 C 287.500,138.500 287.500,138.500 290.000,138.500" stroke-width="18.727" stroke="rgb(33,33,33)" fill="none" stroke-linecap="round"></path><path d="M 290.000,138.500 C 291.500,138.500 291.500,138.500 293.000,138.500" stroke-width="18.366" stroke="rgb(33,33,33)" fill="none" stroke-linecap="round"></path><path d="M 293.000,138.500 C 295.500,138.500 295.500,138.500 298.000,138.500" stroke-width="17.800" stroke="rgb(33,33,33)" fill="none" stroke-linecap="round"></path><path d="M 298.000,138.500 C 300.500,138.500 300.500,138.500 303.000,138.500" stroke-width="17.324" stroke="rgb(33,33,33)" fill="none" stroke-linecap="round"></path><path d="M 303.000,138.500 C 306.000,138.500 306.063,138.048 309.000,138.500" stroke-width="16.795" stroke="rgb(33,33,33)" fill="none" stroke-linecap="round"></path><path d="M 309.000,138.500 C 312.563,139.048 312.450,139.855 316.000,140.500" stroke-width="16.197" stroke="rgb(33,33,33)" fill="none" stroke-linecap="round"></path><path d="M 316.000,140.500 C 317.950,140.855 318.045,140.221 320.000,140.500" stroke-width="16.328" stroke="rgb(33,33,33)" fill="none" stroke-linecap="round"></path><path d="M 320.000,140.500 C 321.545,140.721 321.481,141.120 323.000,141.500" stroke-width="16.500" stroke="rgb(33,33,33)" fill="none" stroke-linecap="round"></path><path d="M 323.000,141.500 C 323.481,141.620 323.500,141.500 324.000,141.500" stroke-width="17.094" stroke="rgb(33,33,33)" fill="none" stroke-linecap="round"></path><path d="M 324.000,141.500 C 324.500,141.500 324.691,141.809 325.000,141.500" stroke-width="17.517" stroke="rgb(33,33,33)" fill="none" stroke-linecap="round"></path><path d="M 325.000,141.500 C 325.691,140.809 325.250,140.250 326.000,139.500" stroke-width="17.591" stroke="rgb(33,33,33)" fill="none" stroke-linecap="round"></path><path d="M 326.000,139.500 C 326.750,138.750 326.964,138.845 328.000,138.500" stroke-width="17.651" stroke="rgb(33,33,33)" fill="none" stroke-linecap="round"></path><path d="M 328.000,138.500 C 328.464,138.345 328.608,138.761 329.000,138.500" stroke-width="17.938" stroke="rgb(33,33,33)" fill="none" stroke-linecap="round"></path><path d="M 329.000,138.500 C 330.108,137.761 330.261,137.608 331.000,136.500" stroke-width="17.820" stroke="rgb(33,33,33)" fill="none" stroke-linecap="round"></path><path d="M 331.000,136.500 C 331.261,136.108 331.000,136.000 331.000,135.500" stroke-width="18.102" stroke="rgb(33,33,33)" fill="none" stroke-linecap="round"></path><path d="M 331.000,135.500 C 331.000,135.500 331.000,135.500 331.000,135.500" stroke-width="18.495" stroke="rgb(33,33,33)" fill="none" stroke-linecap="round"></path><path d="M 331.000,135.500 C 331.000,135.000 331.207,134.914 331.000,134.500" stroke-width="18.742" stroke="rgb(33,33,33)" fill="none" stroke-linecap="round"></path><path d="M 331.000,134.500 C 330.707,133.914 330.586,133.793 330.000,133.500" stroke-width="18.935" stroke="rgb(33,33,33)" fill="none" stroke-linecap="round"></path><path d="M 330.000,133.500 C 329.586,133.293 329.500,133.500 329.000,133.500" stroke-width="19.078" stroke="rgb(33,33,33)" fill="none" stroke-linecap="round"></path><path d="M 329.000,133.500 C 328.500,133.500 328.500,133.500 328.000,133.500" stroke-width="19.220" stroke="rgb(33,33,33)" fill="none" stroke-linecap="round"></path><path d="M 328.000,133.500 C 328.000,133.500 328.000,133.500 328.000,133.500" stroke-width="19.418" stroke="rgb(33,33,33)" fill="none" stroke-linecap="round"></path><path d="M 328.000,133.500 C 327.500,133.500 327.500,133.500 327.000,133.500" stroke-width="19.408" stroke="rgb(33,33,33)" fill="none" stroke-linecap="round"></path><path d="M 327.000,133.500 C 326.500,133.500 326.500,133.500 326.000,133.500" stroke-width="19.351" stroke="rgb(33,33,33)" fill="none" stroke-linecap="round"></path><path d="M 326.000,133.500 C 325.000,133.500 325.000,133.500 324.000,133.500" stroke-width="19.115" stroke="rgb(33,33,33)" fill="none" stroke-linecap="round"></path><path d="M 324.000,133.500 C 323.500,133.500 323.500,133.500 323.000,133.500" stroke-width="19.117" stroke="rgb(33,33,33)" fill="none" stroke-linecap="round"></path><path d="M 323.000,133.500 C 321.500,133.500 321.500,133.500 320.000,133.500" stroke-width="18.703" stroke="rgb(33,33,33)" fill="none" stroke-linecap="round"></path><path d="M 320.000,133.500 C 319.500,133.500 319.500,133.500 319.000,133.500" stroke-width="18.786" stroke="rgb(33,33,33)" fill="none" stroke-linecap="round"></path><path d="M 319.000,133.500 C 318.500,133.500 318.500,133.500 318.000,133.500" stroke-width="18.853" stroke="rgb(33,33,33)" fill="none" stroke-linecap="round"></path><path d="M 318.000,133.500 C 317.500,133.500 317.414,133.293 317.000,133.500" stroke-width="18.918" stroke="rgb(33,33,33)" fill="none" stroke-linecap="round"></path><path d="M 317.000,133.500 C 316.414,133.793 316.621,134.293 316.000,134.500" stroke-width="18.873" stroke="rgb(33,33,33)" fill="none" stroke-linecap="round"></path><path d="M 316.000,134.500 C 315.121,134.793 314.667,134.167 314.000,134.500" stroke-width="18.717" stroke="rgb(33,33,33)" fill="none" stroke-linecap="round"></path><path d="M 314.000,134.500 C 313.667,134.667 314.000,135.000 314.000,135.500" stroke-width="18.797" stroke="rgb(33,33,33)" fill="none" stroke-linecap="round"></path><path d="M 314.000,135.500 C 314.000,136.000 314.000,136.000 314.000,136.500" stroke-width="18.862" stroke="rgb(33,33,33)" fill="none" stroke-linecap="round"></path><path d="M 314.000,136.500 C 314.000,137.000 314.261,137.108 314.000,137.500" stroke-width="18.926" stroke="rgb(33,33,33)" fill="none" stroke-linecap="round"></path><path d="M 314.000,137.500 C 313.261,138.608 313.108,138.761 312.000,139.500" stroke-width="18.591" stroke="rgb(33,33,33)" fill="none" stroke-linecap="round"></path><path d="M 312.000,139.500 C 311.608,139.761 311.250,139.250 311.000,139.500" stroke-width="18.706" stroke="rgb(33,33,33)" fill="none" stroke-linecap="round"></path><path d="M 311.000,139.500 C 310.750,139.750 311.000,140.000 311.000,140.500" stroke-width="18.789" stroke="rgb(33,33,33)" fill="none" stroke-linecap="round"></path><path d="M 311.000,140.500 C 311.000,140.500 311.000,140.500 311.000,140.500" stroke-width="19.064" stroke="rgb(33,33,33)" fill="none" stroke-linecap="round"></path><path d="M 311.000,140.500 C 311.000,141.500 311.333,141.833 311.000,142.500" stroke-width="18.867" stroke="rgb(33,33,33)" fill="none" stroke-linecap="round"></path><path d="M 311.000,142.500 C 310.833,142.833 310.392,142.239 310.000,142.500" stroke-width="18.918" stroke="rgb(33,33,33)" fill="none" stroke-linecap="round"></path><path d="M 310.000,142.500 C 308.892,143.239 308.739,143.392 308.000,144.500" stroke-width="18.616" stroke="rgb(33,33,33)" fill="none" stroke-linecap="round"></path><path d="M 308.000,144.500 C 307.739,144.892 308.000,145.000 308.000,145.500" stroke-width="18.716" stroke="rgb(33,33,33)" fill="none" stroke-linecap="round"></path><path d="M 308.000,145.500 C 308.000,146.500 308.472,146.792 308.000,147.500" stroke-width="18.593" stroke="rgb(33,33,33)" fill="none" stroke-linecap="round"></path><path d="M 308.000,147.500 C 307.472,148.292 306.528,147.708 306.000,148.500" stroke-width="18.449" stroke="rgb(33,33,33)" fill="none" stroke-linecap="round"></path><path d="M 306.000,148.500 C 305.528,149.208 306.000,149.500 306.000,150.500" stroke-width="18.382" stroke="rgb(33,33,33)" fill="none" stroke-linecap="round"></path><path d="M 306.000,150.500 C 306.000,151.000 306.000,151.000 306.000,151.500" stroke-width="18.526" stroke="rgb(33,33,33)" fill="none" stroke-linecap="round"></path><path d="M 306.000,151.500 C 306.000,152.500 306.000,152.500 306.000,153.500" stroke-width="18.465" stroke="rgb(33,33,33)" fill="none" stroke-linecap="round"></path><path d="M 306.000,153.500 C 306.000,153.500 306.000,153.500 306.000,153.500" stroke-width="18.797" stroke="rgb(33,33,33)" fill="none" stroke-linecap="round"></path><path d="M 306.000,153.500 C 306.000,154.500 306.293,154.621 306.000,155.500" stroke-width="18.679" stroke="rgb(33,33,33)" fill="none" stroke-linecap="round"></path><path d="M 306.000,155.500 C 305.793,156.121 305.500,156.000 305.000,156.500" stroke-width="18.682" stroke="rgb(33,33,33)" fill="none" stroke-linecap="round"></path><path d="M 305.000,156.500 C 305.000,156.500 305.000,156.500 305.000,156.500" stroke-width="18.976" stroke="rgb(33,33,33)" fill="none" stroke-linecap="round"></path><path d="M 305.000,156.500 C 305.000,157.000 305.000,157.000 305.000,157.500" stroke-width="19.054" stroke="rgb(33,33,33)" fill="none" stroke-linecap="round"></path><path d="M 305.000,157.500 C 305.000,158.500 305.000,158.500 305.000,159.500" stroke-width="18.859" stroke="rgb(33,33,33)" fill="none" stroke-linecap="round"></path><path d="M 305.000,159.500 C 305.000,159.500 305.000,159.500 305.000,159.500" stroke-width="19.122" stroke="rgb(33,33,33)" fill="none" stroke-linecap="round"></path><path d="M 305.000,159.500 C 305.000,160.000 305.000,160.000 305.000,160.500" stroke-width="19.178" stroke="rgb(33,33,33)" fill="none" stroke-linecap="round"></path><path d="M 305.000,160.500 C 305.000,161.500 305.000,161.500 305.000,162.500" stroke-width="18.956" stroke="rgb(33,33,33)" fill="none" stroke-linecap="round"></path><path d="M 305.000,162.500 C 305.000,162.500 305.000,162.500 305.000,162.500" stroke-width="19.202" stroke="rgb(33,33,33)" fill="none" stroke-linecap="round"></path><path d="M 305.000,162.500 C 305.000,163.500 305.000,163.500 305.000,164.500" stroke-width="18.998" stroke="rgb(33,33,33)" fill="none" stroke-linecap="round"></path><path d="M 305.000,164.500 C 305.000,165.000 305.000,165.000 305.000,165.500" stroke-width="19.010" stroke="rgb(33,33,33)" fill="none" stroke-linecap="round"></path><path d="M 305.000,165.500 C 305.000,166.000 305.000,166.000 305.000,166.500" stroke-width="19.073" stroke="rgb(33,33,33)" fill="none" stroke-linecap="round"></path><path d="M 305.000,166.500 C 305.000,167.000 305.000,167.000 305.000,167.500" stroke-width="19.095" stroke="rgb(33,33,33)" fill="none" stroke-linecap="round"></path><path d="M 305.000,167.500 C 305.000,168.500 305.000,168.500 305.000,169.500" stroke-width="18.892" stroke="rgb(33,33,33)" fill="none" stroke-linecap="round"></path><path d="M 305.000,169.500 C 305.000,170.000 304.750,170.250 305.000,170.500" stroke-width="18.938" stroke="rgb(33,33,33)" fill="none" stroke-linecap="round"></path><path d="M 305.000,170.500 C 305.250,170.750 305.586,170.293 306.000,170.500" stroke-width="19.111" stroke="rgb(33,33,33)" fill="none" stroke-linecap="round"></path><path d="M 306.000,170.500 C 306.586,170.793 306.379,171.293 307.000,171.500" stroke-width="19.113" stroke="rgb(33,33,33)" fill="none" stroke-linecap="round"></path><path d="M 307.000,171.500 C 307.879,171.793 308.000,171.500 309.000,171.500" stroke-width="18.929" stroke="rgb(33,33,33)" fill="none" stroke-linecap="round"></path><path d="M 309.000,171.500 C 310.000,171.500 310.000,171.500 311.000,171.500" stroke-width="18.761" stroke="rgb(33,33,33)" fill="none" stroke-linecap="round"></path><path d="M 311.000,171.500 C 311.500,171.500 311.500,171.500 312.000,171.500" stroke-width="18.880" stroke="rgb(33,33,33)" fill="none" stroke-linecap="round"></path><path d="M 312.000,171.500 C 312.500,171.500 312.536,171.345 313.000,171.500" stroke-width="18.928" stroke="rgb(33,33,33)" fill="none" stroke-linecap="round"></path><path d="M 313.000,171.500 C 314.036,171.845 313.964,172.155 315.000,172.500" stroke-width="18.712" stroke="rgb(33,33,33)" fill="none" stroke-linecap="round"></path><path d="M 315.000,172.500 C 315.464,172.655 315.500,172.500 316.000,172.500" stroke-width="18.893" stroke="rgb(33,33,33)" fill="none" stroke-linecap="round"></path><path d="M 316.000,172.500 C 316.500,172.500 316.500,172.500 317.000,172.500" stroke-width="19.044" stroke="rgb(33,33,33)" fill="none" stroke-linecap="round"></path><path d="M 317.000,172.500 C 317.500,172.500 317.586,172.293 318.000,172.500" stroke-width="19.060" stroke="rgb(33,33,33)" fill="none" stroke-linecap="round"></path><path d="M 318.000,172.500 C 318.586,172.793 318.414,173.207 319.000,173.500" stroke-width="18.986" stroke="rgb(33,33,33)" fill="none" stroke-linecap="round"></path><path d="M 319.000,173.500 C 319.414,173.707 320.000,173.500 320.000,173.500" stroke-width="19.062" stroke="rgb(33,33,33)" fill="none" stroke-linecap="round"></path><path d="M 320.000,173.500 C 320.000,173.500 319.500,173.500 319.000,173.500" stroke-width="19.266" stroke="rgb(33,33,33)" fill="none" stroke-linecap="round"></path><path d="M 319.000,173.500 C 318.000,173.500 318.000,173.500 317.000,173.500" stroke-width="19.025" stroke="rgb(33,33,33)" fill="none" stroke-linecap="round"></path><path d="M 317.000,173.500 C 314.500,173.500 314.500,173.500 312.000,173.500" stroke-width="18.238" stroke="rgb(33,33,33)" fill="none" stroke-linecap="round"></path><path d="M 312.000,173.500 C 309.000,173.500 309.000,173.500 306.000,173.500" stroke-width="17.534" stroke="rgb(33,33,33)" fill="none" stroke-linecap="round"></path><path d="M 306.000,173.500 C 303.000,173.500 302.811,172.875 300.000,173.500" stroke-width="16.952" stroke="rgb(33,33,33)" fill="none" stroke-linecap="round"></path><path d="M 300.000,173.500 C 298.311,173.875 298.543,174.574 297.000,175.500" stroke-width="16.936" stroke="rgb(33,33,33)" fill="none" stroke-linecap="round"></path><path d="M 297.000,175.500 C 296.043,176.074 295.691,175.809 295.000,176.500" stroke-width="17.120" stroke="rgb(33,33,33)" fill="none" stroke-linecap="round"></path><path d="M 295.000,176.500 C 294.691,176.809 295.207,177.086 295.000,177.500" stroke-width="17.475" stroke="rgb(33,33,33)" fill="none" stroke-linecap="round"></path><path d="M 295.000,177.500 C 294.707,178.086 294.293,177.914 294.000,178.500" stroke-width="17.706" stroke="rgb(33,33,33)" fill="none" stroke-linecap="round"></path><path d="M 294.000,178.500 C 293.793,178.914 294.207,179.086 294.000,179.500" stroke-width="17.973" stroke="rgb(33,33,33)" fill="none" stroke-linecap="round"></path><path d="M 294.000,179.500 C 293.707,180.086 293.207,179.879 293.000,180.500" stroke-width="18.113" stroke="rgb(33,33,33)" fill="none" stroke-linecap="round"></path><path d="M 293.000,180.500 C 292.707,181.379 293.000,181.500 293.000,182.500" stroke-width="18.114" stroke="rgb(33,33,33)" fill="none" stroke-linecap="round"></path><path d="M 293.000,182.500 C 293.000,183.500 293.000,183.500 293.000,184.500" stroke-width="18.115" stroke="rgb(33,33,33)" fill="none" stroke-linecap="round"></path><path d="M 293.000,184.500 C 293.000,185.000 292.845,185.036 293.000,185.500" stroke-width="18.308" stroke="rgb(33,33,33)" fill="none" stroke-linecap="round"></path><path d="M 293.000,185.500 C 293.345,186.536 293.655,186.464 294.000,187.500" stroke-width="18.248" stroke="rgb(33,33,33)" fill="none" stroke-linecap="round"></path><path d="M 294.000,187.500 C 294.155,187.964 293.674,188.174 294.000,188.500" stroke-width="18.417" stroke="rgb(33,33,33)" fill="none" stroke-linecap="round"></path><path d="M 294.000,188.500 C 295.174,189.674 295.367,189.800 297.000,190.500" stroke-width="18.086" stroke="rgb(33,33,33)" fill="none" stroke-linecap="round"></path><path d="M 297.000,190.500 C 298.867,191.300 299.081,190.780 301.000,191.500" stroke-width="17.697" stroke="rgb(33,33,33)" fill="none" stroke-linecap="round"></path><path d="M 301.000,191.500 C 303.081,192.280 302.950,192.621 305.000,193.500" stroke-width="17.381" stroke="rgb(33,33,33)" fill="none" stroke-linecap="round"></path><path d="M 305.000,193.500 C 306.450,194.121 306.460,194.243 308.000,194.500" stroke-width="17.318" stroke="rgb(33,33,33)" fill="none" stroke-linecap="round"></path><path d="M 308.000,194.500 C 309.460,194.743 309.638,194.046 311.000,194.500" stroke-width="17.297" stroke="rgb(33,33,33)" fill="none" stroke-linecap="round"></path><path d="M 311.000,194.500 C 312.638,195.046 312.362,195.954 314.000,196.500" stroke-width="17.176" stroke="rgb(33,33,33)" fill="none" stroke-linecap="round"></path><path d="M 314.000,196.500 C 315.362,196.954 315.500,196.500 317.000,196.500" stroke-width="17.212" stroke="rgb(33,33,33)" fill="none" stroke-linecap="round"></path><path d="M 317.000,196.500 C 318.500,196.500 318.638,196.046 320.000,196.500" stroke-width="17.212" stroke="rgb(33,33,33)" fill="none" stroke-linecap="round"></path><path d="M 320.000,196.500 C 321.638,197.046 321.392,197.857 323.000,198.500" stroke-width="17.143" stroke="rgb(33,33,33)" fill="none" stroke-linecap="round"></path><path d="M 323.000,198.500 C 323.892,198.857 324.121,198.207 325.000,198.500" stroke-width="17.329" stroke="rgb(33,33,33)" fill="none" stroke-linecap="round"></path><path d="M 325.000,198.500 C 325.621,198.707 325.359,199.340 326.000,199.500" stroke-width="17.613" stroke="rgb(33,33,33)" fill="none" stroke-linecap="round"></path><path d="M 326.000,199.500 C 327.359,199.840 327.500,199.500 329.000,199.500" stroke-width="17.531" stroke="rgb(33,33,33)" fill="none" stroke-linecap="round"></path><path d="M 329.000,199.500 C 329.500,199.500 329.500,199.500 330.000,199.500" stroke-width="17.828" stroke="rgb(33,33,33)" fill="none" stroke-linecap="round"></path><path d="M 330.000,199.500 C 330.500,199.500 330.500,199.500 331.000,199.500" stroke-width="18.084" stroke="rgb(33,33,33)" fill="none" stroke-linecap="round"></path><path d="M 331.000,199.500 C 332.000,199.500 332.000,199.500 333.000,199.500" stroke-width="18.091" stroke="rgb(33,33,33)" fill="none" stroke-linecap="round"></path><path d="M 333.000,199.500 C 333.500,199.500 333.500,199.500 334.000,199.500" stroke-width="18.289" stroke="rgb(33,33,33)" fill="none" stroke-linecap="round"></path><path d="M 334.000,199.500 C 334.500,199.500 334.500,199.500 335.000,199.500" stroke-width="18.461" stroke="rgb(33,33,33)" fill="none" stroke-linecap="round"></path><path d="M 335.000,199.500 C 335.500,199.500 335.500,199.500 336.000,199.500" stroke-width="18.590" stroke="rgb(33,33,33)" fill="none" stroke-linecap="round"></path><path d="M 336.000,199.500 C 336.500,199.500 336.500,199.500 337.000,199.500" stroke-width="18.695" stroke="rgb(33,33,33)" fill="none" stroke-linecap="round"></path><path d="M 337.000,199.500 C 338.000,199.500 338.000,199.500 339.000,199.500" stroke-width="18.599" stroke="rgb(33,33,33)" fill="none" stroke-linecap="round"></path><path d="M 339.000,199.500 C 339.500,199.500 339.500,199.500 340.000,199.500" stroke-width="18.702" stroke="rgb(33,33,33)" fill="none" stroke-linecap="round"></path><path d="M 340.000,199.500 C 340.500,199.500 340.500,199.500 341.000,199.500" stroke-width="18.796" stroke="rgb(33,33,33)" fill="none" stroke-linecap="round"></path><path d="M 341.000,199.500 C 341.500,199.500 341.500,199.500 342.000,199.500" stroke-width="18.861" stroke="rgb(33,33,33)" fill="none" stroke-linecap="round"></path><path d="M 342.000,199.500 C 342.500,199.500 342.500,199.500 343.000,199.500" stroke-width="18.913" stroke="rgb(33,33,33)" fill="none" stroke-linecap="round"></path><path d="M 343.000,199.500 C 343.500,199.500 343.500,199.500 344.000,199.500" stroke-width="19.159" stroke="rgb(33,33,33)" fill="none" stroke-linecap="round"></path><path d="M 344.000,199.500 C 344.500,199.500 344.536,199.655 345.000,199.500" stroke-width="19.259" stroke="rgb(33,33,33)" fill="none" stroke-linecap="round"></path><path d="M 345.000,199.500 C 346.036,199.155 346.000,199.000 347.000,198.500" stroke-width="18.996" stroke="rgb(33,33,33)" fill="none" stroke-linecap="round"></path><path d="M 347.000,198.500 C 347.000,198.500 347.000,198.500 347.000,198.500" stroke-width="19.234" stroke="rgb(33,33,33)" fill="none" stroke-linecap="round"></path><path d="M 347.000,198.500 C 347.500,198.500 347.500,198.500 348.000,198.500" stroke-width="19.269" stroke="rgb(33,33,33)" fill="none" stroke-linecap="round"></path><path d="M 348.000,198.500 C 348.500,198.500 348.750,198.750 349.000,198.500" stroke-width="19.389" stroke="rgb(33,33,33)" fill="none" stroke-linecap="round"></path><path d="M 349.000,198.500 C 349.250,198.250 349.000,198.000 349.000,197.500" stroke-width="19.533" stroke="rgb(33,33,33)" fill="none" stroke-linecap="round"></path><path d="M 349.000,197.500 C 349.000,197.000 349.000,197.000 349.000,196.500" stroke-width="19.635" stroke="rgb(33,33,33)" fill="none" stroke-linecap="round"></path><path d="M 349.000,196.500 C 349.000,196.000 349.000,196.000 349.000,195.500" stroke-width="19.712" stroke="rgb(33,33,33)" fill="none" stroke-linecap="round"></path><path d="M 349.000,195.500 C 349.000,194.500 349.293,194.379 349.000,193.500" stroke-width="19.371" stroke="rgb(33,33,33)" fill="none" stroke-linecap="round"></path><path d="M 349.000,193.500 C 348.793,192.879 348.207,193.121 348.000,192.500" stroke-width="19.249" stroke="rgb(33,33,33)" fill="none" stroke-linecap="round"></path><path d="M 348.000,192.500 C 347.707,191.621 348.000,191.500 348.000,190.500" stroke-width="19.012" stroke="rgb(33,33,33)" fill="none" stroke-linecap="round"></path><path d="M 348.000,190.500 C 348.000,190.500 348.000,190.500 348.000,190.500" stroke-width="19.247" stroke="rgb(33,33,33)" fill="none" stroke-linecap="round"></path><path d="M 348.000,190.500 C 348.000,189.500 348.000,189.500 348.000,188.500" stroke-width="19.034" stroke="rgb(33,33,33)" fill="none" stroke-linecap="round"></path><path d="M 348.000,188.500 C 348.000,187.500 348.000,187.500 348.000,186.500" stroke-width="18.843" stroke="rgb(33,33,33)" fill="none" stroke-linecap="round"></path><path d="M 348.000,186.500 C 348.000,185.500 348.000,185.500 348.000,184.500" stroke-width="18.694" stroke="rgb(33,33,33)" fill="none" stroke-linecap="round"></path><path d="M 348.000,184.500 C 348.000,183.500 348.000,183.500 348.000,182.500" stroke-width="18.576" stroke="rgb(33,33,33)" fill="none" stroke-linecap="round"></path><path d="M 348.000,182.500 C 348.000,182.000 348.000,182.000 348.000,181.500" stroke-width="18.694" stroke="rgb(33,33,33)" fill="none" stroke-linecap="round"></path><path d="M 348.000,181.500 C 348.000,180.000 348.000,180.000 348.000,178.500" stroke-width="18.378" stroke="rgb(33,33,33)" fill="none" stroke-linecap="round"></path><path d="M 348.000,178.500 C 348.000,177.000 348.000,177.000 348.000,175.500" stroke-width="18.132" stroke="rgb(33,33,33)" fill="none" stroke-linecap="round"></path><path d="M 348.000,175.500 C 348.000,173.500 348.526,173.341 348.000,171.500" stroke-width="17.756" stroke="rgb(33,33,33)" fill="none" stroke-linecap="round"></path><path d="M 348.000,171.500 C 347.526,169.841 346.474,170.159 346.000,168.500" stroke-width="17.571" stroke="rgb(33,33,33)" fill="none" stroke-linecap="round"></path><path d="M 346.000,168.500 C 345.474,166.659 346.000,166.500 346.000,164.500" stroke-width="17.322" stroke="rgb(33,33,33)" fill="none" stroke-linecap="round"></path><path d="M 346.000,164.500 C 346.000,164.000 346.000,164.000 346.000,163.500" stroke-width="17.665" stroke="rgb(33,33,33)" fill="none" stroke-linecap="round"></path><path d="M 346.000,163.500 C 346.000,162.000 346.000,162.000 346.000,160.500" stroke-width="17.573" stroke="rgb(33,33,33)" fill="none" stroke-linecap="round"></path><path d="M 346.000,160.500 C 346.000,160.000 346.000,160.000 346.000,159.500" stroke-width="17.863" stroke="rgb(33,33,33)" fill="none" stroke-linecap="round"></path><path d="M 346.000,159.500 C 346.000,158.500 346.000,158.500 346.000,157.500" stroke-width="17.934" stroke="rgb(33,33,33)" fill="none" stroke-linecap="round"></path><path d="M 346.000,157.500 C 346.000,157.000 346.000,157.000 346.000,156.500" stroke-width="18.160" stroke="rgb(33,33,33)" fill="none" stroke-linecap="round"></path><path d="M 346.000,156.500 C 346.000,156.000 346.000,156.000 346.000,155.500" stroke-width="18.383" stroke="rgb(33,33,33)" fill="none" stroke-linecap="round"></path><path d="M 346.000,155.500 C 346.000,154.500 346.000,154.500 346.000,153.500" stroke-width="18.329" stroke="rgb(33,33,33)" fill="none" stroke-linecap="round"></path><path d="M 346.000,153.500 C 346.000,153.500 346.000,153.500 346.000,153.500" stroke-width="18.684" stroke="rgb(33,33,33)" fill="none" stroke-linecap="round"></path><path d="M 346.000,153.500 C 346.000,152.500 345.707,152.379 346.000,151.500" stroke-width="18.590" stroke="rgb(33,33,33)" fill="none" stroke-linecap="round"></path><path d="M 346.000,151.500 C 346.207,150.879 346.382,150.809 347.000,150.500" stroke-width="18.593" stroke="rgb(33,33,33)" fill="none" stroke-linecap="round"></path><path d="M 347.000,150.500 C 348.382,149.809 348.536,150.086 350.000,149.500" stroke-width="18.302" stroke="rgb(33,33,33)" fill="none" stroke-linecap="round"></path><path d="M 350.000,149.500 C 351.036,149.086 350.932,148.714 352.000,148.500" stroke-width="18.219" stroke="rgb(33,33,33)" fill="none" stroke-linecap="round"></path><path d="M 352.000,148.500 C 353.432,148.214 353.526,148.711 355.000,148.500" stroke-width="18.009" stroke="rgb(33,33,33)" fill="none" stroke-linecap="round"></path><path d="M 355.000,148.500 C 357.026,148.211 356.964,147.704 359.000,147.500" stroke-width="17.680" stroke="rgb(33,33,33)" fill="none" stroke-linecap="round"></path><path d="M 359.000,147.500 C 361.964,147.204 362.000,147.500 365.000,147.500" stroke-width="17.061" stroke="rgb(33,33,33)" fill="none" stroke-linecap="round"></path><path d="M 365.000,147.500 C 368.000,147.500 368.000,147.500 371.000,147.500" stroke-width="16.537" stroke="rgb(33,33,33)" fill="none" stroke-linecap="round"></path><path d="M 371.000,147.500 C 373.500,147.500 373.500,147.500 376.000,147.500" stroke-width="16.351" stroke="rgb(33,33,33)" fill="none" stroke-linecap="round"></path><path d="M 376.000,147.500 C 378.000,147.500 378.000,147.500 380.000,147.500" stroke-width="16.360" stroke="rgb(33,33,33)" fill="none" stroke-linecap="round"></path><path d="M 380.000,147.500 C 381.500,147.500 381.568,147.786 383.000,147.500" stroke-width="16.523" stroke="rgb(33,33,33)" fill="none" stroke-linecap="round"></path><path d="M 383.000,147.500 C 384.068,147.286 384.472,147.292 385.000,146.500" stroke-width="16.801" stroke="rgb(33,33,33)" fill="none" stroke-linecap="round"></path><path d="M 385.000,146.500 C 385.472,145.792 384.528,145.208 385.000,144.500" stroke-width="17.049" stroke="rgb(33,33,33)" fill="none" stroke-linecap="round"></path><path d="M 385.000,144.500 C 385.528,143.708 386.309,144.191 387.000,143.500" stroke-width="17.233" stroke="rgb(33,33,33)" fill="none" stroke-linecap="round"></path><path d="M 387.000,143.500 C 387.309,143.191 387.250,142.750 387.000,142.500" stroke-width="17.581" stroke="rgb(33,33,33)" fill="none" stroke-linecap="round"></path><path d="M 387.000,142.500 C 386.750,142.250 386.500,142.500 386.000,142.500" stroke-width="18.033" stroke="rgb(33,33,33)" fill="none" stroke-linecap="round"></path><path d="M 386.000,142.500 C 384.500,142.500 384.500,142.500 383.000,142.500" stroke-width="17.863" stroke="rgb(33,33,33)" fill="none" stroke-linecap="round"></path><path d="M 383.000,142.500 C 380.500,142.500 380.500,142.500 378.000,142.500" stroke-width="17.420" stroke="rgb(33,33,33)" fill="none" stroke-linecap="round"></path><path d="M 378.000,142.500 C 375.000,142.500 375.000,142.500 372.000,142.500" stroke-width="16.922" stroke="rgb(33,33,33)" fill="none" stroke-linecap="round"></path><path d="M 372.000,142.500 C 369.000,142.500 368.899,141.973 366.000,142.500" stroke-width="16.491" stroke="rgb(33,33,33)" fill="none" stroke-linecap="round"></path><path d="M 366.000,142.500 C 363.399,142.973 363.449,143.387 361.000,144.500" stroke-width="16.256" stroke="rgb(33,33,33)" fill="none" stroke-linecap="round"></path><path d="M 361.000,144.500 C 357.949,145.887 357.814,145.709 355.000,147.500" stroke-width="15.877" stroke="rgb(33,33,33)" fill="none" stroke-linecap="round"></path><path d="M 355.000,147.500 C 352.314,149.209 352.239,149.261 350.000,151.500" stroke-width="15.679" stroke="rgb(33,33,33)" fill="none" stroke-linecap="round"></path><path d="M 350.000,151.500 C 348.739,152.761 348.783,152.934 348.000,154.500" stroke-width="15.874" stroke="rgb(33,33,33)" fill="none" stroke-linecap="round"></path><path d="M 348.000,154.500 C 347.783,154.934 348.000,155.000 348.000,155.500" stroke-width="16.457" stroke="rgb(33,33,33)" fill="none" stroke-linecap="round"></path><path d="M 348.000,155.500 C 348.000,156.000 348.000,156.000 348.000,156.500" stroke-width="16.929" stroke="rgb(33,33,33)" fill="none" stroke-linecap="round"></path><path d="M 348.000,156.500 C 348.000,158.000 348.000,158.000 348.000,159.500" stroke-width="16.985" stroke="rgb(33,33,33)" fill="none" stroke-linecap="round"></path><path d="M 348.000,159.500 C 348.000,160.000 348.000,160.000 348.000,160.500" stroke-width="17.384" stroke="rgb(33,33,33)" fill="none" stroke-linecap="round"></path><path d="M 348.000,160.500 C 348.000,161.500 348.000,161.500 348.000,162.500" stroke-width="17.526" stroke="rgb(33,33,33)" fill="none" stroke-linecap="round"></path><path d="M 348.000,162.500 C 348.000,163.500 348.000,163.500 348.000,164.500" stroke-width="17.619" stroke="rgb(33,33,33)" fill="none" stroke-linecap="round"></path><path d="M 348.000,164.500 C 348.000,166.000 348.000,166.000 348.000,167.500" stroke-width="17.566" stroke="rgb(33,33,33)" fill="none" stroke-linecap="round"></path><path d="M 348.000,167.500 C 348.000,169.000 347.757,169.040 348.000,170.500" stroke-width="17.494" stroke="rgb(33,33,33)" fill="none" stroke-linecap="round"></path><path d="M 348.000,170.500 C 348.257,172.040 348.806,171.950 349.000,173.500" stroke-width="17.408" stroke="rgb(33,33,33)" fill="none" stroke-linecap="round"></path><path d="M 349.000,173.500 C 349.306,175.950 349.000,176.000 349.000,178.500" stroke-width="17.025" stroke="rgb(33,33,33)" fill="none" stroke-linecap="round"></path><path d="M 349.000,178.500 C 349.000,179.500 349.000,179.500 349.000,180.500" stroke-width="17.252" stroke="rgb(33,33,33)" fill="none" stroke-linecap="round"></path><path d="M 349.000,180.500 C 349.000,182.000 349.000,182.000 349.000,183.500" stroke-width="17.244" stroke="rgb(33,33,33)" fill="none" stroke-linecap="round"></path><path d="M 349.000,183.500 C 349.000,184.000 349.000,184.000 349.000,184.500" stroke-width="17.590" stroke="rgb(33,33,33)" fill="none" stroke-linecap="round"></path><path d="M 349.000,184.500 C 349.000,185.500 349.000,185.500 349.000,186.500" stroke-width="17.714" stroke="rgb(33,33,33)" fill="none" stroke-linecap="round"></path><path d="M 349.000,186.500 C 349.000,187.000 348.880,187.019 349.000,187.500" stroke-width="17.979" stroke="rgb(33,33,33)" fill="none" stroke-linecap="round"></path><path d="M 349.000,187.500 C 349.380,189.019 349.500,189.000 350.000,190.500" stroke-width="17.790" stroke="rgb(33,33,33)" fill="none" stroke-linecap="round"></path><path d="M 350.000,190.500 C 350.500,192.000 350.299,192.098 351.000,193.500" stroke-width="17.674" stroke="rgb(33,33,33)" fill="none" stroke-linecap="round"></path><path d="M 351.000,193.500 C 351.799,195.098 351.766,195.266 353.000,196.500" stroke-width="17.472" stroke="rgb(33,33,33)" fill="none" stroke-linecap="round"></path><path d="M 353.000,196.500 C 353.766,197.266 354.117,196.838 355.000,197.500" stroke-width="17.577" stroke="rgb(33,33,33)" fill="none" stroke-linecap="round"></path><path d="M 355.000,197.500 C 356.117,198.338 355.901,198.621 357.000,199.500" stroke-width="17.534" stroke="rgb(33,33,33)" fill="none" stroke-linecap="round"></path><path d="M 357.000,199.500 C 358.401,200.621 358.457,200.574 360.000,201.500" stroke-width="17.362" stroke="rgb(33,33,33)" fill="none" stroke-linecap="round"></path><path d="M 360.000,201.500 C 360.957,202.074 360.933,202.195 362.000,202.500" stroke-width="17.466" stroke="rgb(33,33,33)" fill="none" stroke-linecap="round"></path><path d="M 362.000,202.500 C 364.433,203.195 364.478,203.220 367.000,203.500" stroke-width="17.101" stroke="rgb(33,33,33)" fill="none" stroke-linecap="round"></path><path d="M 367.000,203.500 C 368.978,203.720 369.000,203.500 371.000,203.500" stroke-width="16.954" stroke="rgb(33,33,33)" fill="none" stroke-linecap="round"></path><path d="M 371.000,203.500 C 372.500,203.500 372.526,203.711 374.000,203.500" stroke-width="16.974" stroke="rgb(33,33,33)" fill="none" stroke-linecap="round"></path><path d="M 374.000,203.500 C 376.026,203.211 376.019,203.066 378.000,202.500" stroke-width="16.834" stroke="rgb(33,33,33)" fill="none" stroke-linecap="round"></path><path d="M 378.000,202.500 C 379.519,202.066 379.828,202.379 381.000,201.500" stroke-width="16.882" stroke="rgb(33,33,33)" fill="none" stroke-linecap="round"></path><path d="M 381.000,201.500 C 381.828,200.879 381.655,200.536 382.000,199.500" stroke-width="17.075" stroke="rgb(33,33,33)" fill="none" stroke-linecap="round"></path><path d="M 382.000,199.500 C 382.155,199.036 382.000,199.000 382.000,198.500" stroke-width="17.459" stroke="rgb(33,33,33)" fill="none" stroke-linecap="round"></path><path d="M 382.000,198.500 C 382.000,197.000 382.621,196.743 382.000,195.500" stroke-width="17.409" stroke="rgb(33,33,33)" fill="none" stroke-linecap="round"></path><path d="M 382.000,195.500 C 381.121,193.743 379.908,194.317 379.000,192.500" stroke-width="17.154" stroke="rgb(33,33,33)" fill="none" stroke-linecap="round"></path><path d="M 379.000,192.500 C 377.908,190.317 379.092,189.683 378.000,187.500" stroke-width="16.861" stroke="rgb(33,33,33)" fill="none" stroke-linecap="round"></path><path d="M 378.000,187.500 C 377.092,185.683 376.637,185.810 375.000,184.500" stroke-width="16.725" stroke="rgb(33,33,33)" fill="none" stroke-linecap="round"></path><path d="M 375.000,184.500 C 374.137,183.810 373.919,184.113 373.000,183.500" stroke-width="16.968" stroke="rgb(33,33,33)" fill="none" stroke-linecap="round"></path><path d="M 373.000,183.500 C 372.419,183.113 372.000,182.793 372.000,182.500" stroke-width="17.287" stroke="rgb(33,33,33)" fill="none" stroke-linecap="round"></path><path d="M 372.000,182.500 C 372.000,182.293 372.500,182.500 373.000,182.500" stroke-width="17.768" stroke="rgb(33,33,33)" fill="none" stroke-linecap="round"></path><path d="M 373.000,182.500 C 374.000,182.500 374.000,182.500 375.000,182.500" stroke-width="17.837" stroke="rgb(33,33,33)" fill="none" stroke-linecap="round"></path><path d="M 375.000,182.500 C 376.000,182.500 376.000,182.500 377.000,182.500" stroke-width="17.892" stroke="rgb(33,33,33)" fill="none" stroke-linecap="round"></path><path d="M 377.000,182.500 C 378.500,182.500 378.500,182.500 380.000,182.500" stroke-width="17.752" stroke="rgb(33,33,33)" fill="none" stroke-linecap="round"></path><path d="M 380.000,182.500 C 382.000,182.500 382.000,182.500 384.000,182.500" stroke-width="17.502" stroke="rgb(33,33,33)" fill="none" stroke-linecap="round"></path><path d="M 384.000,182.500 C 384.500,182.500 384.536,182.655 385.000,182.500" stroke-width="17.793" stroke="rgb(33,33,33)" fill="none" stroke-linecap="round"></path><path d="M 385.000,182.500 C 386.036,182.155 386.309,182.191 387.000,181.500" stroke-width="17.836" stroke="rgb(33,33,33)" fill="none" stroke-linecap="round"></path><path d="M 387.000,181.500 C 387.309,181.191 387.000,181.000 387.000,180.500" stroke-width="18.116" stroke="rgb(33,33,33)" fill="none" stroke-linecap="round"></path><path d="M 387.000,180.500 C 387.000,180.000 387.155,179.964 387.000,179.500" stroke-width="18.309" stroke="rgb(33,33,33)" fill="none" stroke-linecap="round"></path></svg>