<svg xmlns="http://www.w3.org/2000/svg" xmlns:xlink="http://www.w3.org/1999/xlink" viewBox="0 0 800 500"><path d="M 305.500,138.000 C 306.500,139.500 306.574,139.457 307.500,141.000" stroke-width="20.138" stroke="rgb(33,33,33)" fill="none" stroke-linecap="round"></path><path d="M 307.500,141.000 C 308.074,141.957 307.838,142.117 308.500,143.000" stroke-width="19.376" stroke="rgb(33,33,33)" fill="none" stroke-linecap="round"></path><path d="M 308.500,143.000 C 309.338,144.117 309.581,143.928 310.500,145.000" stroke-width="18.621" stroke="rgb(33,33,33)" fill="none" stroke-linecap="round"></path><path d="M 310.500,145.000 C 312.581,147.428 312.647,147.406 314.500,150.000" stroke-width="16.902" stroke="rgb(33,33,33)" fill="none" stroke-linecap="round"></path><path d="M 314.500,150.000 C 315.147,150.906 315.086,150.964 315.500,152.000" stroke-width="16.831" stroke="rgb(33,33,33)" fill="none" stroke-linecap="round"></path><path d="M 315.500,152.000 C 316.086,153.464 315.809,153.618 316.500,155.000" stroke-width="16.663" stroke="rgb(33,33,33)" fill="none" stroke-linecap="round"></path><path d="M 316.500,155.000 C 316.809,155.618 317.191,155.382 317.500,156.000" stroke-width="17.207" stroke="rgb(33,33,33)" fill="none" stroke-linecap="round"></path><path d="M 317.500,156.000 C 318.191,157.382 317.708,157.680 318.500,159.000" stroke-width="16.890" stroke="rgb(33,33,33)" fill="none" stroke-linecap="round"></path><path d="M 318.500,159.000 C 319.208,160.180 319.792,159.820 320.500,161.000" stroke-width="16.657" stroke="rgb(33,33,33)" fill="none" stroke-linecap="round"></path><path d="M 320.500,161.000 C 321.292,162.320 320.945,162.520 321.500,164.000" stroke-width="16.462" stroke="rgb(33,33,33)" fill="none" stroke-linecap="round"></path><path d="M 321.500,164.000 C 322.445,166.520 322.189,166.705 323.500,169.000" stroke-width="15.796" stroke="rgb(33,33,33)" fill="none" stroke-linecap="round"></path><path d="M 323.500,169.000 C 324.189,170.205 324.662,169.883 325.500,171.000" stroke-width="15.857" stroke="rgb(33,33,33)" fill="none" stroke-linecap="round"></path><path d="M 325.500,171.000 C 326.162,171.883 326.236,171.944 326.500,173.000" stroke-width="16.043" stroke="rgb(33,33,33)" fill="none" stroke-linecap="round"></path><path d="M 326.500,173.000 C 326.736,173.944 326.500,174.000 326.500,175.000" stroke-width="16.202" stroke="rgb(33,33,33)" fill="none" stroke-linecap="round"></path><path d="M 326.500,175.000 C 326.500,175.500 326.500,175.500 326.500,176.000" stroke-width="16.625" stroke="rgb(33,33,33)" fill="none" stroke-linecap="round"></path><path d="M 326.500,176.000 C 326.500,176.500 326.293,176.586 326.500,177.000" stroke-width="16.980" stroke="rgb(33,33,33)" fill="none" stroke-linecap="round"></path><path d="M 326.500,177.000 C 326.793,177.586 327.207,177.414 327.500,178.000" stroke-width="17.127" stroke="rgb(33,33,33)" fill="none" stroke-linecap="round"></path><path d="M 327.500,178.000 C 327.707,178.414 327.283,178.566 327.500,179.000" stroke-width="17.396" stroke="rgb(33,33,33)" fill="none" stroke-linecap="round"></path><path d="M 327.500,179.000 C 328.283,180.566 328.800,180.367 329.500,182.000" stroke-width="16.920" stroke="rgb(33,33,33)" fill="none" stroke-linecap="round"></path><path d="M 329.500,182.000 C 330.300,183.867 329.588,184.175 330.500,186.000" stroke-width="16.431" stroke="rgb(33,33,33)" fill="none" stroke-linecap="round"></path><path d="M 330.500,186.000 C 332.588,190.175 332.950,190.033 335.500,194.000" stroke-width="14.731" stroke="rgb(33,33,33)" fill="none" stroke-linecap="round"></path><path d="M 335.500,194.000 C 337.450,197.033 337.687,196.892 339.500,200.000" stroke-width="14.153" stroke="rgb(33,33,33)" fill="none" stroke-linecap="round"></path><path d="M 339.500,200.000 C 341.187,202.892 341.000,203.000 342.500,206.000" stroke-width="13.693" stroke="rgb(33,33,33)" fill="none" stroke-linecap="round"></path><path d="M 342.500,206.000 C 343.500,208.000 343.393,208.062 344.500,210.000" stroke-width="13.829" stroke="rgb(33,33,33)" fill="none" stroke-linecap="round"></path><path d="M 344.500,210.000 C 345.393,211.562 346.500,213.000 346.500,213.000" stroke-width="14.091" stroke="rgb(33,33,33)" fill="none" stroke-linecap="round"></path><path d="M 346.500,213.000 C 346.500,213.000 345.500,211.500 344.500,210.000" stroke-width="14.972" stroke="rgb(33,33,33)" fill="none" stroke-linecap="round"></path><path d="M 344.500,210.000 C 343.500,208.500 343.668,208.362 342.500,207.000" stroke-width="14.954" stroke="rgb(33,33,33)" fill="none" stroke-linecap="round"></path><path d="M 342.500,207.000 C 340.668,204.862 340.500,205.000 338.500,203.000" stroke-width="14.609" stroke="rgb(33,33,33)" fill="none" stroke-linecap="round"></path><path d="M 338.500,203.000 C 336.000,200.500 336.000,200.500 333.500,198.000" stroke-width="14.087" stroke="rgb(33,33,33)" fill="none" stroke-linecap="round"></path><path d="M 333.500,198.000 C 330.500,195.000 330.797,194.638 327.500,192.000" stroke-width="13.325" stroke="rgb(33,33,33)" fill="none" stroke-linecap="round"></path><path d="M 327.500,192.000 C 323.297,188.638 323.000,189.000 318.500,186.000" stroke-width="12.559" stroke="rgb(33,33,33)" fill="none" stroke-linecap="round"></path><path d="M 318.500,186.000 C 312.500,182.000 312.626,181.793 306.500,178.000" stroke-width="11.557" stroke="rgb(33,33,33)" fill="none" stroke-linecap="round"></path><path d="M 306.500,178.000 C 302.126,175.293 302.011,175.481 297.500,173.000" stroke-width="11.202" stroke="rgb(33,33,33)" fill="none" stroke-linecap="round"></path><path d="M 297.500,173.000 C 292.011,169.981 291.729,170.362 286.500,167.000" stroke-width="10.806" stroke="rgb(33,33,33)" fill="none" stroke-linecap="round"></path><path d="M 286.500,167.000 C 284.729,165.862 285.204,165.217 283.500,164.000" stroke-width="11.400" stroke="rgb(33,33,33)" fill="none" stroke-linecap="round"></path><path d="M 283.500,164.000 C 281.704,162.717 281.430,163.126 279.500,162.000" stroke-width="11.839" stroke="rgb(33,33,33)" fill="none" stroke-linecap="round"></path><path d="M 279.500,162.000 C 275.430,159.626 275.733,158.976 271.500,157.000" stroke-width="11.639" stroke="rgb(33,33,33)" fill="none" stroke-linecap="round"></path><path d="M 271.500,157.000 C 268.233,155.476 268.017,155.879 264.500,155.000" stroke-width="11.820" stroke="rgb(33,33,33)" fill="none" stroke-linecap="round"></path><path d="M 264.500,155.000 C 264.017,154.879 263.750,155.250 263.500,155.000" stroke-width="12.731" stroke="rgb(33,33,33)" fill="none" stroke-linecap="round"></path><path d="M 263.500,155.000 C 263.250,154.750 263.500,154.500 263.500,154.000" stroke-width="13.585" stroke="rgb(33,33,33)" fill="none" stroke-linecap="round"></path><path d="M 263.500,154.000 C 263.500,153.500 263.500,153.500 263.500,153.000" stroke-width="14.354" stroke="rgb(33,33,33)" fill="none" stroke-linecap="round"></path><path d="M 263.500,153.000 C 263.500,152.500 263.761,152.392 263.500,152.000" stroke-width="15.016" stroke="rgb(33,33,33)" fill="none" stroke-linecap="round"></path><path d="M 263.500,152.000 C 262.761,150.892 262.239,151.108 261.500,150.000" stroke-width="15.222" stroke="rgb(33,33,33)" fill="none" stroke-linecap="round"></path><path d="M 261.500,150.000 C 261.239,149.608 261.809,149.309 261.500,149.000" stroke-width="15.791" stroke="rgb(33,33,33)" fill="none" stroke-linecap="round"></path><path d="M 261.500,149.000 C 260.809,148.309 260.191,148.691 259.500,148.000" stroke-width="15.988" stroke="rgb(33,33,33)" fill="none" stroke-linecap="round"></path><path d="M 259.500,148.000 C 259.191,147.691 259.655,147.464 259.500,147.000" stroke-width="16.420" stroke="rgb(33,33,33)" fill="none" stroke-linecap="round"></path><path d="M 259.500,147.000 C 259.155,145.964 258.845,146.036 258.500,145.000" stroke-width="16.446" stroke="rgb(33,33,33)" fill="none" stroke-linecap="round"></path><path d="M 258.500,145.000 C 258.345,144.536 258.500,144.500 258.500,144.000" stroke-width="16.995" stroke="rgb(33,33,33)" fill="none" stroke-linecap="round"></path><path d="M 258.500,144.000 C 258.500,143.500 258.500,143.500 258.500,143.000" stroke-width="17.462" stroke="rgb(33,33,33)" fill="none" stroke-linecap="round"></path><path d="M 258.500,143.000 C 258.500,142.000 258.500,142.000 258.500,141.000" stroke-width="17.341" stroke="rgb(33,33,33)" fill="none" stroke-linecap="round"></path><path d="M 258.500,141.000 C 258.500,140.500 258.500,140.500 258.500,140.000" stroke-width="17.712" stroke="rgb(33,33,33)" fill="none" stroke-linecap="round"></path><path d="M 258.500,140.000 C 258.500,139.500 258.500,139.500 258.500,139.000" stroke-width="17.876" stroke="rgb(33,33,33)" fill="none" stroke-linecap="round"></path><path d="M 258.500,139.000 C 258.500,138.500 258.191,138.309 258.500,138.000" stroke-width="17.980" stroke="rgb(33,33,33)" fill="none" stroke-linecap="round"></path><path d="M 258.500,138.000 C 259.191,137.309 259.432,137.214 260.500,137.000" stroke-width="17.737" stroke="rgb(33,33,33)" fill="none" stroke-linecap="round"></path><path d="M 260.500,137.000 C 261.932,136.714 262.141,137.340 263.500,137.000" stroke-width="17.339" stroke="rgb(33,33,33)" fill="none" stroke-linecap="round"></path><path d="M 263.500,137.000 C 264.141,136.840 263.879,136.207 264.500,136.000" stroke-width="17.418" stroke="rgb(33,33,33)" fill="none" stroke-linecap="round"></path><path d="M 264.500,136.000 C 265.379,135.707 265.556,136.236 266.500,136.000" stroke-width="17.361" stroke="rgb(33,33,33)" fill="none" stroke-linecap="round"></path><path d="M 266.500,136.000 C 267.556,135.736 267.445,135.352 268.500,135.000" stroke-width="17.192" stroke="rgb(33,33,33)" fill="none" stroke-linecap="round"></path><path d="M 268.500,135.000 C 270.445,134.352 270.466,134.226 272.500,134.000" stroke-width="16.722" stroke="rgb(33,33,33)" fill="none" stroke-linecap="round"></path><path d="M 272.500,134.000 C 274.966,133.726 275.000,134.000 277.500,134.000" stroke-width="15.960" stroke="rgb(33,33,33)" fill="none" stroke-linecap="round"></path><path d="M 277.500,134.000 C 282.000,134.000 282.000,134.000 286.500,134.000" stroke-width="14.516" stroke="rgb(33,33,33)" fill="none" stroke-linecap="round"></path><path d="M 286.500,134.000 C 293.000,134.000 293.000,134.000 299.500,134.000" stroke-width="13.212" stroke="rgb(33,33,33)" fill="none" stroke-linecap="round"></path><path d="M 299.500,134.000 C 304.500,134.000 304.500,134.000 309.500,134.000" stroke-width="12.453" stroke="rgb(33,33,33)" fill="none" stroke-linecap="round"></path><path d="M 309.500,134.000 C 315.500,134.000 315.500,134.000 321.500,134.000" stroke-width="11.779" stroke="rgb(33,33,33)" fill="none" stroke-linecap="round"></path><path d="M 321.500,134.000 C 331.000,134.000 331.000,134.000 340.500,134.000" stroke-width="10.357" stroke="rgb(33,33,33)" fill="none" stroke-linecap="round"></path><path d="M 340.500,134.000 C 349.000,134.000 349.000,134.000 357.500,134.000" stroke-width="9.767" stroke="rgb(33,33,33)" fill="none" stroke-linecap="round"></path><path d="M 357.500,134.000 C 365.000,134.000 365.052,133.427 372.500,134.000" stroke-width="9.501" stroke="rgb(33,33,33)" fill="none" stroke-linecap="round"></path><path d="M 372.500,134.000 C 378.052,134.427 377.980,135.128 383.500,136.000" stroke-width="9.604" stroke="rgb(33,33,33)" fill="none" stroke-linecap="round"></path><path d="M 383.500,136.000 C 387.480,136.628 387.577,136.159 391.500,137.000" stroke-width="9.959" stroke="rgb(33,33,33)" fill="none" stroke-linecap="round"></path><path d="M 391.500,137.000 C 394.577,137.659 394.601,137.757 397.500,139.000" stroke-width="10.368" stroke="rgb(33,33,33)" fill="none" stroke-linecap="round"></path><path d="M 397.500,139.000 C 401.601,140.757 401.455,141.096 405.500,143.000" stroke-width="10.519" stroke="rgb(33,33,33)" fill="none" stroke-linecap="round"></path><path d="M 405.500,143.000 C 409.955,145.096 410.189,144.679 414.500,147.000" stroke-width="10.551" stroke="rgb(33,33,33)" fill="none" stroke-linecap="round"></path><path d="M 414.500,147.000 C 416.689,148.179 416.349,148.745 418.500,150.000" stroke-width="11.033" stroke="rgb(33,33,33)" fill="none" stroke-linecap="round"></path><path d="M 418.500,150.000 C 422.349,152.245 422.500,152.000 426.500,154.000" stroke-width="11.060" stroke="rgb(33,33,33)" fill="none" stroke-linecap="round"></path><path d="M 426.500,154.000 C 428.500,155.000 428.679,154.726 430.500,156.000" stroke-width="11.544" stroke="rgb(33,33,33)" fill="none" stroke-linecap="round"></path><path d="M 430.500,156.000 C 433.679,158.226 433.537,158.460 436.500,161.000" stroke-width="11.602" stroke="rgb(33,33,33)" fill="none" stroke-linecap="round"></path><path d="M 436.500,161.000 C 437.037,161.460 436.937,161.577 437.500,162.000" stroke-width="12.465" stroke="rgb(33,33,33)" fill="none" stroke-linecap="round"></path><path d="M 437.500,162.000 C 438.937,163.077 438.957,163.074 440.500,164.000" stroke-width="12.983" stroke="rgb(33,33,33)" fill="none" stroke-linecap="round"></path><path d="M 440.500,164.000 C 441.457,164.574 441.750,164.250 442.500,165.000" stroke-width="13.568" stroke="rgb(33,33,33)" fill="none" stroke-linecap="round"></path><path d="M 442.500,165.000 C 443.250,165.750 443.000,166.000 443.500,167.000" stroke-width="14.115" stroke="rgb(33,33,33)" fill="none" stroke-linecap="round"></path><path d="M 443.500,167.000 C 444.000,168.000 444.286,167.932 444.500,169.000" stroke-width="14.585" stroke="rgb(33,33,33)" fill="none" stroke-linecap="round"></path><path d="M 444.500,169.000 C 444.786,170.432 444.500,170.500 444.500,172.000" stroke-width="14.773" stroke="rgb(33,33,33)" fill="none" stroke-linecap="round"></path><path d="M 444.500,172.000 C 444.500,173.000 444.500,173.000 444.500,174.000" stroke-width="15.402" stroke="rgb(33,33,33)" fill="none" stroke-linecap="round"></path><path d="M 444.500,174.000 C 444.500,175.000 444.809,175.073 444.500,176.000" stroke-width="15.676" stroke="rgb(33,33,33)" fill="none" stroke-linecap="round"></path><path d="M 444.500,176.000 C 443.809,178.073 443.328,177.929 442.500,180.000" stroke-width="15.402" stroke="rgb(33,33,33)" fill="none" stroke-linecap="round"></path><path d="M 442.500,180.000 C 441.328,182.929 441.726,183.140 440.500,186.000" stroke-width="14.692" stroke="rgb(33,33,33)" fill="none" stroke-linecap="round"></path><path d="M 440.500,186.000 C 440.226,186.640 439.923,186.437 439.500,187.000" stroke-width="15.245" stroke="rgb(33,33,33)" fill="none" stroke-linecap="round"></path><path d="M 439.500,187.000 C 438.423,188.437 438.393,188.438 437.500,190.000" stroke-width="15.246" stroke="rgb(33,33,33)" fill="none" stroke-linecap="round"></path><path d="M 437.500,190.000 C 436.393,191.938 436.585,192.047 435.500,194.000" stroke-width="15.068" stroke="rgb(33,33,33)" fill="none" stroke-linecap="round"></path><path d="M 435.500,194.000 C 434.085,196.547 434.406,196.855 432.500,199.000" stroke-width="14.550" stroke="rgb(33,33,33)" fill="none" stroke-linecap="round"></path><path d="M 432.500,199.000 C 430.406,201.355 430.017,201.022 427.500,203.000" stroke-width="14.163" stroke="rgb(33,33,33)" fill="none" stroke-linecap="round"></path><path d="M 427.500,203.000 C 423.017,206.522 423.329,207.049 418.500,210.000" stroke-width="13.055" stroke="rgb(33,33,33)" fill="none" stroke-linecap="round"></path><path d="M 418.500,210.000 C 414.329,212.549 414.069,212.172 409.500,214.000" stroke-width="12.500" stroke="rgb(33,33,33)" fill="none" stroke-linecap="round"></path><path d="M 409.500,214.000 C 404.069,216.172 403.931,215.828 398.500,218.000" stroke-width="11.705" stroke="rgb(33,33,33)" fill="none" stroke-linecap="round"></path><path d="M 398.500,218.000 C 393.931,219.828 394.000,220.000 389.500,222.000" stroke-width="11.485" stroke="rgb(33,33,33)" fill="none" stroke-linecap="round"></path><path d="M 389.500,222.000 C 385.000,224.000 385.120,224.320 380.500,226.000" stroke-width="11.411" stroke="rgb(33,33,33)" fill="none" stroke-linecap="round"></path><path d="M 380.500,226.000 C 374.120,228.320 373.977,227.927 367.500,230.000" stroke-width="10.536" stroke="rgb(33,33,33)" fill="none" stroke-linecap="round"></path><path d="M 367.500,230.000 C 361.477,231.927 361.500,232.000 355.500,234.000" stroke-width="10.292" stroke="rgb(33,33,33)" fill="none" stroke-linecap="round"></path><path d="M 355.500,234.000 C 351.000,235.500 351.127,236.119 346.500,237.000" stroke-width="10.312" stroke="rgb(33,33,33)" fill="none" stroke-linecap="round"></path><path d="M 346.500,237.000 C 340.627,238.119 340.500,237.500 334.500,238.000" stroke-width="10.176" stroke="rgb(33,33,33)" fill="none" stroke-linecap="round"></path><path d="M 334.500,238.000 C 328.500,238.500 328.513,238.818 322.500,239.000" stroke-width="10.070" stroke="rgb(33,33,33)" fill="none" stroke-linecap="round"></path><path d="M 322.500,239.000 C 312.013,239.318 312.000,239.000 301.500,239.000" stroke-width="9.086" stroke="rgb(33,33,33)" fill="none" stroke-linecap="round"></path><path d="M 301.500,239.000 C 292.000,239.000 292.000,239.000 282.500,239.000" stroke-width="8.697" stroke="rgb(33,33,33)" fill="none" stroke-linecap="round"></path><path d="M 282.500,239.000 C 273.500,239.000 273.303,240.433 264.500,239.000" stroke-width="8.473" stroke="rgb(33,33,33)" fill="none" stroke-linecap="round"></path><path d="M 264.500,239.000 C 251.803,236.933 252.136,234.916 239.500,232.000" stroke-width="7.837" stroke="rgb(33,33,33)" fill="none" stroke-linecap="round"></path><path d="M 239.500,232.000 C 226.136,228.916 225.944,229.758 212.500,227.000" stroke-width="7.190" stroke="rgb(33,33,33)" fill="none" stroke-linecap="round"></path><path d="M 212.500,227.000 C 206.444,225.758 206.379,225.890 200.500,224.000" stroke-width="7.615" stroke="rgb(33,33,33)" fill="none" stroke-linecap="round"></path><path d="M 200.500,224.000 C 192.379,221.390 192.661,220.418 184.500,218.000" stroke-width="7.480" stroke="rgb(33,33,33)" fill="none" stroke-linecap="round"></path><path d="M 184.500,218.000 C 179.161,216.418 178.981,217.096 173.500,216.000" stroke-width="7.882" stroke="rgb(33,33,33)" fill="none" stroke-linecap="round"></path><path d="M 173.500,216.000 C 166.481,214.596 166.475,214.610 159.500,213.000" stroke-width="7.968" stroke="rgb(33,33,33)" fill="none" stroke-linecap="round"></path><path d="M 159.500,213.000 C 153.475,211.610 153.433,211.730 147.500,210.000" stroke-width="8.301" stroke="rgb(33,33,33)" fill="none" stroke-linecap="round"></path><path d="M 147.500,210.000 C 141.433,208.230 141.598,207.642 135.500,206.000" stroke-width="8.503" stroke="rgb(33,33,33)" fill="none" stroke-linecap="round"></path><path d="M 135.500,206.000 C 128.598,204.142 128.378,204.926 121.500,203.000" stroke-width="8.467" stroke="rgb(33,33,33)" fill="none" stroke-linecap="round"></path><path d="M 121.500,203.000 C 115.878,201.426 115.903,201.225 110.500,199.000" stroke-width="8.706" stroke="rgb(33,33,33)" fill="none" stroke-linecap="round"></path><path d="M 110.500,199.000 C 107.403,197.725 106.907,198.140 104.500,196.000" stroke-width="9.225" stroke="rgb(33,33,33)" fill="none" stroke-linecap="round"></path><path d="M 104.500,196.000 C 102.407,194.140 102.946,193.530 101.500,191.000" stroke-width="9.820" stroke="rgb(33,33,33)" fill="none" stroke-linecap="round"></path><path d="M 101.500,191.000 C 100.946,190.030 101.162,189.883 100.500,189.000" stroke-width="10.713" stroke="rgb(33,33,33)" fill="none" stroke-linecap="round"></path><path d="M 100.500,189.000 C 99.662,187.883 99.500,188.000 98.500,187.000" stroke-width="11.482" stroke="rgb(33,33,33)" fill="none" stroke-linecap="round"></path><path d="M 98.500,187.000 C 97.500,186.000 96.264,185.236 96.500,185.000" stroke-width="12.144" stroke="rgb(33,33,33)" fill="none" stroke-linecap="round"></path><path d="M 96.500,185.000 C 96.764,184.736 98.063,185.347 99.500,186.000" stroke-width="13.111" stroke="rgb(33,33,33)" fill="none" stroke-linecap="round"></path><path d="M 99.500,186.000 C 103.563,187.847 103.358,188.343 107.500,190.000" stroke-width="12.670" stroke="rgb(33,33,33)" fill="none" stroke-linecap="round"></path><path d="M 107.500,190.000 C 113.358,192.343 113.479,192.065 119.500,194.000" stroke-width="11.852" stroke="rgb(33,33,33)" fill="none" stroke-linecap="round"></path><path d="M 119.500,194.000 C 127.479,196.565 127.333,197.592 135.500,199.000" stroke-width="10.819" stroke="rgb(33,33,33)" fill="none" stroke-linecap="round"></path><path d="M 135.500,199.000 C 141.833,200.092 142.000,199.000 148.500,199.000" stroke-width="10.346" stroke="rgb(33,33,33)" fill="none" stroke-linecap="round"></path><path d="M 148.500,199.000 C 159.000,199.000 159.000,199.000 169.500,199.000" stroke-width="9.429" stroke="rgb(33,33,33)" fill="none" stroke-linecap="round"></path><path d="M 169.500,199.000 C 179.000,199.000 179.000,199.000 188.500,199.000" stroke-width="8.946" stroke="rgb(33,33,33)" fill="none" stroke-linecap="round"></path><path d="M 188.500,199.000 C 195.000,199.000 195.000,199.000 201.500,199.000" stroke-width="9.011" stroke="rgb(33,33,33)" fill="none" stroke-linecap="round"></path><path d="M 201.500,199.000 C 214.500,199.000 214.500,199.000 227.500,199.000" stroke-width="8.043" stroke="rgb(33,33,33)" fill="none" stroke-linecap="round"></path><path d="M 227.500,199.000 C 238.000,199.000 238.000,199.000 248.500,199.000" stroke-width="7.800" stroke="rgb(33,33,33)" fill="none" stroke-linecap="round"></path><path d="M 248.500,199.000 C 259.000,199.000 259.000,199.000 269.500,199.000" stroke-width="7.509" stroke="rgb(33,33,33)" fill="none" stroke-linecap="round"></path><path d="M 269.500,199.000 C 280.500,199.000 280.500,199.000 291.500,199.000" stroke-width="7.344" stroke="rgb(33,33,33)" fill="none" stroke-linecap="round"></path><path d="M 291.500,199.000 C 299.000,199.000 299.000,199.000 306.500,199.000" stroke-width="7.560" stroke="rgb(33,33,33)" fill="none" stroke-linecap="round"></path><path d="M 306.500,199.000 C 315.000,199.000 315.086,199.814 323.500,199.000" stroke-width="7.636" stroke="rgb(33,33,33)" fill="none" stroke-linecap="round"></path><path d="M 323.500,199.000 C 330.586,198.314 330.472,197.352 337.500,196.000" stroke-width="7.765" stroke="rgb(33,33,33)" fill="none" stroke-linecap="round"></path><path d="M 337.500,196.000 C 343.472,194.852 343.516,195.088 349.500,194.000" stroke-width="8.075" stroke="rgb(33,33,33)" fill="none" stroke-linecap="round"></path><path d="M 349.500,194.000 C 354.516,193.088 354.459,192.720 359.500,192.000" stroke-width="8.402" stroke="rgb(33,33,33)" fill="none" stroke-linecap="round"></path><path d="M 359.500,192.000 C 364.959,191.220 364.993,191.344 370.500,191.000" stroke-width="8.695" stroke="rgb(33,33,33)" fill="none" stroke-linecap="round"></path><path d="M 370.500,191.000 C 372.993,190.844 373.050,191.306 375.500,191.000" stroke-width="9.362" stroke="rgb(33,33,33)" fill="none" stroke-linecap="round"></path><path d="M 375.500,191.000 C 377.050,190.806 376.950,190.282 378.500,190.000" stroke-width="10.211" stroke="rgb(33,33,33)" fill="none" stroke-linecap="round"></path><path d="M 378.500,190.000 C 382.450,189.282 382.530,189.662 386.500,189.000" stroke-width="10.475" stroke="rgb(33,33,33)" fill="none" stroke-linecap="round"></path><path d="M 386.500,189.000 C 388.530,188.662 388.488,188.447 390.500,188.000" stroke-width="11.072" stroke="rgb(33,33,33)" fill="none" stroke-linecap="round"></path><path d="M 390.500,188.000 C 392.988,187.447 392.973,187.230 395.500,187.000" stroke-width="11.533" stroke="rgb(33,33,33)" fill="none" stroke-linecap="round"></path><path d="M 395.500,187.000 C 398.473,186.730 398.500,187.000 401.500,187.000" stroke-width="11.816" stroke="rgb(33,33,33)" fill="none" stroke-linecap="round"></path><path d="M 401.500,187.000 C 404.000,187.000 404.000,187.000 406.500,187.000" stroke-width="12.118" stroke="rgb(33,33,33)" fill="none" stroke-linecap="round"></path><path d="M 406.500,187.000 C 411.000,187.000 411.000,187.000 415.500,187.000" stroke-width="11.909" stroke="rgb(33,33,33)" fill="none" stroke-linecap="round"></path><path d="M 415.500,187.000 C 419.000,187.000 419.000,187.000 422.500,187.000" stroke-width="12.075" stroke="rgb(33,33,33)" fill="none" stroke-linecap="round"></path><path d="M 422.500,187.000 C 430.500,187.000 430.500,187.000 438.500,187.000" stroke-width="10.674" stroke="rgb(33,33,33)" fill="none" stroke-linecap="round"></path><path d="M 438.500,187.000 C 452.000,187.000 452.077,185.987 465.500,187.000" stroke-width="9.168" stroke="rgb(33,33,33)" fill="none" stroke-linecap="round"></path><path d="M 465.500,187.000 C 478.577,187.987 478.467,189.246 491.500,191.000" stroke-width="8.123" stroke="rgb(33,33,33)" fill="none" stroke-linecap="round"></path><path d="M 491.500,191.000 C 504.467,192.746 504.515,192.377 517.500,194.000" stroke-width="7.583" stroke="rgb(33,33,33)" fill="none" stroke-linecap="round"></path><path d="M 517.500,194.000 C 532.515,195.877 532.446,196.819 547.500,198.000" stroke-width="6.884" stroke="rgb(33,33,33)" fill="none" stroke-linecap="round"></path><path d="M 547.500,198.000 C 557.946,198.819 558.000,198.000 568.500,198.000" stroke-width="6.975" stroke="rgb(33,33,33)" fill="none" stroke-linecap="round"></path><path d="M 568.500,198.000 C 578.000,198.000 578.000,198.000 587.500,198.000" stroke-width="7.061" stroke="rgb(33,33,33)" fill="none" stroke-linecap="round"></path><path d="M 587.500,198.000 C 590.500,198.000 590.500,198.000 593.500,198.000" stroke-width="7.745" stroke="rgb(33,33,33)" fill="none" stroke-linecap="round"></path><path d="M 593.500,198.000 C 596.500,198.000 596.516,198.230 599.500,198.000" stroke-width="8.435" stroke="rgb(33,33,33)" fill="none" stroke-linecap="round"></path><path d="M 599.500,198.000 C 603.016,197.730 603.286,198.071 606.500,197.000" stroke-width="8.953" stroke="rgb(33,33,33)" fill="none" stroke-linecap="round"></path><path d="M 606.500,197.000 C 607.786,196.571 607.621,196.099 608.500,195.000" stroke-width="9.825" stroke="rgb(33,33,33)" fill="none" stroke-linecap="round"></path><path d="M 608.500,195.000 C 609.621,193.599 609.800,193.633 610.500,192.000" stroke-width="10.578" stroke="rgb(33,33,33)" fill="none" stroke-linecap="round"></path><path d="M 610.500,192.000 C 611.300,190.133 610.908,189.973 611.500,188.000" stroke-width="11.210" stroke="rgb(33,33,33)" fill="none" stroke-linecap="round"></path><path d="M 611.500,188.000 C 612.408,184.973 612.366,184.949 613.500,182.000" stroke-width="11.505" stroke="rgb(33,33,33)" fill="none" stroke-linecap="round"></path><path d="M 613.500,182.000 C 614.866,178.449 614.801,178.398 616.500,175.000" stroke-width="11.503" stroke="rgb(33,33,33)" fill="none" stroke-linecap="round"></path><path d="M 616.500,175.000 C 617.801,172.398 617.935,172.459 619.500,170.000" stroke-width="11.812" stroke="rgb(33,33,33)" fill="none" stroke-linecap="round"></path><path d="M 619.500,170.000 C 621.435,166.959 621.448,166.964 623.500,164.000" stroke-width="11.803" stroke="rgb(33,33,33)" fill="none" stroke-linecap="round"></path><path d="M 623.500,164.000 C 625.948,160.464 626.483,160.746 628.500,157.000" stroke-width="11.712" stroke="rgb(33,33,33)" fill="none" stroke-linecap="round"></path><path d="M 628.500,157.000 C 629.983,154.246 629.500,154.000 630.500,151.000" stroke-width="11.925" stroke="rgb(33,33,33)" fill="none" stroke-linecap="round"></path><path d="M 630.500,151.000 C 631.500,148.000 631.887,148.063 632.500,145.000" stroke-width="12.018" stroke="rgb(33,33,33)" fill="none" stroke-linecap="round"></path><path d="M 632.500,145.000 C 632.887,143.063 632.500,143.000 632.500,141.000" stroke-width="12.494" stroke="rgb(33,33,33)" fill="none" stroke-linecap="round"></path><path d="M 632.500,141.000 C 632.500,138.500 632.500,138.500 632.500,136.000" stroke-width="12.683" stroke="rgb(33,33,33)" fill="none" stroke-linecap="round"></path><path d="M 632.500,136.000 C 632.500,134.000 632.698,133.984 632.500,132.000" stroke-width="13.116" stroke="rgb(33,33,33)" fill="none" stroke-linecap="round"></path><path d="M 632.500,132.000 C 632.198,128.984 632.235,128.942 631.500,126.000" stroke-width="13.100" stroke="rgb(33,33,33)" fill="none" stroke-linecap="round"></path><path d="M 631.500,126.000 C 630.735,122.942 630.774,122.866 629.500,120.000" stroke-width="13.051" stroke="rgb(33,33,33)" fill="none" stroke-linecap="round"></path><path d="M 629.500,120.000 C 628.774,118.366 628.283,118.566 627.500,117.000" stroke-width="13.310" stroke="rgb(33,33,33)" fill="none" stroke-linecap="round"></path><path d="M 627.500,117.000 C 627.283,116.566 627.707,116.414 627.500,116.000" stroke-width="14.109" stroke="rgb(33,33,33)" fill="none" stroke-linecap="round"></path><path d="M 627.500,116.000 C 627.207,115.414 627.141,115.160 626.500,115.000" stroke-width="14.968" stroke="rgb(33,33,33)" fill="none" stroke-linecap="round"></path><path d="M 626.500,115.000 C 625.141,114.660 625.000,115.000 623.500,115.000" stroke-width="15.086" stroke="rgb(33,33,33)" fill="none" stroke-linecap="round"></path><path d="M 623.500,115.000 C 620.500,115.000 620.500,115.000 617.500,115.000" stroke-width="14.643" stroke="rgb(33,33,33)" fill="none" stroke-linecap="round"></path><path d="M 617.500,115.000 C 614.000,115.000 613.953,114.568 610.500,115.000" stroke-width="14.125" stroke="rgb(33,33,33)" fill="none" stroke-linecap="round"></path><path d="M 610.500,115.000 C 605.953,115.568 605.936,115.768 601.500,117.000" stroke-width="13.224" stroke="rgb(33,33,33)" fill="none" stroke-linecap="round"></path><path d="M 601.500,117.000 C 596.936,118.268 596.875,118.198 592.500,120.000" stroke-width="12.676" stroke="rgb(33,33,33)" fill="none" stroke-linecap="round"></path><path d="M 592.500,120.000 C 588.375,121.698 588.451,121.908 584.500,124.000" stroke-width="12.222" stroke="rgb(33,33,33)" fill="none" stroke-linecap="round"></path><path d="M 584.500,124.000 C 579.951,126.408 579.911,126.354 575.500,129.000" stroke-width="11.823" stroke="rgb(33,33,33)" fill="none" stroke-linecap="round"></path><path d="M 575.500,129.000 C 572.411,130.854 572.413,130.881 569.500,133.000" stroke-width="11.903" stroke="rgb(33,33,33)" fill="none" stroke-linecap="round"></path><path d="M 569.500,133.000 C 566.913,134.881 567.060,135.080 564.500,137.000" stroke-width="12.072" stroke="rgb(33,33,33)" fill="none" stroke-linecap="round"></path><path d="M 564.500,137.000 C 561.060,139.580 561.036,139.552 557.500,142.000" stroke-width="11.923" stroke="rgb(33,33,33)" fill="none" stroke-linecap="round"></path><path d="M 557.500,142.000 C 554.536,144.052 554.464,143.948 551.500,146.000" stroke-width="11.984" stroke="rgb(33,33,33)" fill="none" stroke-linecap="round"></path><path d="M 551.500,146.000 C 547.964,148.448 547.309,147.910 544.500,151.000" stroke-width="11.747" stroke="rgb(33,33,33)" fill="none" stroke-linecap="round"></path><path d="M 544.500,151.000 C 542.309,153.410 542.905,153.956 541.500,157.000" stroke-width="11.904" stroke="rgb(33,33,33)" fill="none" stroke-linecap="round"></path><path d="M 541.500,157.000 C 539.905,160.456 539.414,160.345 538.500,164.000" stroke-width="11.820" stroke="rgb(33,33,33)" fill="none" stroke-linecap="round"></path><path d="M 538.500,164.000 C 537.414,168.345 537.751,168.486 537.500,173.000" stroke-width="11.670" stroke="rgb(33,33,33)" fill="none" stroke-linecap="round"></path><path d="M 537.500,173.000 C 537.251,177.486 537.500,177.500 537.500,182.000" stroke-width="11.560" stroke="rgb(33,33,33)" fill="none" stroke-linecap="round"></path><path d="M 537.500,182.000 C 537.500,186.000 537.083,186.038 537.500,190.000" stroke-width="11.496" stroke="rgb(33,33,33)" fill="none" stroke-linecap="round"></path><path d="M 537.500,190.000 C 538.083,195.538 538.712,195.481 539.500,201.000" stroke-width="11.173" stroke="rgb(33,33,33)" fill="none" stroke-linecap="round"></path><path d="M 539.500,201.000 C 539.712,202.481 539.099,202.595 539.500,204.000" stroke-width="11.843" stroke="rgb(33,33,33)" fill="none" stroke-linecap="round"></path><path d="M 539.500,204.000 C 540.099,206.095 540.720,205.919 541.500,208.000" stroke-width="12.278" stroke="rgb(33,33,33)" fill="none" stroke-linecap="round"></path><path d="M 541.500,208.000 C 542.220,209.919 541.850,210.049 542.500,212.000" stroke-width="12.701" stroke="rgb(33,33,33)" fill="none" stroke-linecap="round"></path><path d="M 542.500,212.000 C 543.350,214.549 543.302,214.604 544.500,217.000" stroke-width="12.870" stroke="rgb(33,33,33)" fill="none" stroke-linecap="round"></path><path d="M 544.500,217.000 C 545.302,218.604 545.423,218.563 546.500,220.000" stroke-width="13.285" stroke="rgb(33,33,33)" fill="none" stroke-linecap="round"></path><path d="M 546.500,220.000 C 546.923,220.563 547.207,220.414 547.500,221.000" stroke-width="13.988" stroke="rgb(33,33,33)" fill="none" stroke-linecap="round"></path><path d="M 547.500,221.000 C 547.707,221.414 547.500,221.500 547.500,222.000" stroke-width="14.839" stroke="rgb(33,33,33)" fill="none" stroke-linecap="round"></path><path d="M 547.500,222.000 C 547.500,222.500 547.875,222.875 547.500,223.000" stroke-width="15.557" stroke="rgb(33,33,33)" fill="none" stroke-linecap="round"></path><path d="M 547.500,223.000 C 546.375,223.375 545.728,223.737 544.500,223.000" stroke-width="16.123" stroke="rgb(33,33,33)" fill="none" stroke-linecap="round"></path><path d="M 544.500,223.000 C 540.728,220.737 541.290,219.593 537.500,217.000" stroke-width="14.755" stroke="rgb(33,33,33)" fill="none" stroke-linecap="round"></path><path d="M 537.500,217.000 C 531.790,213.093 531.667,213.183 525.500,210.000" stroke-width="12.851" stroke="rgb(33,33,33)" fill="none" stroke-linecap="round"></path><path d="M 525.500,210.000 C 516.167,205.183 516.218,204.976 506.500,201.000" stroke-width="10.988" stroke="rgb(33,33,33)" fill="none" stroke-linecap="round"></path><path d="M 506.500,201.000 C 494.218,195.976 494.095,196.198 481.500,192.000" stroke-width="9.386" stroke="rgb(33,33,33)" fill="none" stroke-linecap="round"></path><path d="M 481.500,192.000 C 476.095,190.198 476.098,189.933 470.500,189.000" stroke-width="9.493" stroke="rgb(33,33,33)" fill="none" stroke-linecap="round"></path><path d="M 470.500,189.000 C 464.098,187.933 463.986,188.649 457.500,188.000" stroke-width="9.343" stroke="rgb(33,33,33)" fill="none" stroke-linecap="round"></path><path d="M 457.500,188.000 C 448.986,187.149 449.034,186.416 440.500,186.000" stroke-width="9.020" stroke="rgb(33,33,33)" fill="none" stroke-linecap="round"></path><path d="M 440.500,186.000 C 428.534,185.416 428.500,186.000 416.500,186.000" stroke-width="8.325" stroke="rgb(33,33,33)" fill="none" stroke-linecap="round"></path><path d="M 416.500,186.000 C 402.500,186.000 402.500,186.000 388.500,186.000" stroke-width="7.627" stroke="rgb(33,33,33)" fill="none" stroke-linecap="round"></path><path d="M 388.500,186.000 C 369.500,186.000 369.500,186.000 350.500,186.000" stroke-width="6.750" stroke="rgb(33,33,33)" fill="none" stroke-linecap="round"></path><path d="M 350.500,186.000 C 326.000,186.000 326.000,186.000 301.500,186.000" stroke-width="6.750" stroke="rgb(33,33,33)" fill="none" stroke-linecap="round"></path><path d="M 301.500,186.000 C 274.000,186.000 274.000,186.000 246.500,186.000" stroke-width="6.750" stroke="rgb(33,33,33)" fill="none" stroke-linecap="round"></path><path d="M 246.500,186.000 C 222.000,186.000 222.000,186.000 197.500,186.000" stroke-width="6.750" stroke="rgb(33,33,33)" fill="none" stroke-linecap="round"></path><path d="M 197.500,186.000 C 180.000,186.000 179.919,184.790 162.500,186.000" stroke-width="6.750" stroke="rgb(33,33,33)" fill="none" stroke-linecap="round"></path><path d="M 162.500,186.000 C 143.919,187.290 144.011,188.586 125.500,191.000" stroke-width="6.750" stroke="rgb(33,33,33)" fill="none" stroke-linecap="round"></path><path d="M 125.500,191.000 C 109.511,193.086 109.492,192.937 93.500,195.000" stroke-width="6.750" stroke="rgb(33,33,33)" fill="none" stroke-linecap="round"></path><path d="M 93.500,195.000 C 78.492,196.937 78.533,197.282 63.500,199.000" stroke-width="6.750" stroke="rgb(33,33,33)" fill="none" stroke-linecap="round"></path><path d="M 63.500,199.000 C 43.533,201.282 42.776,198.604 23.500,203.000" stroke-width="6.750" stroke="rgb(33,33,33)" fill="none" stroke-linecap="round"></path><path d="M 23.500,203.000 C 14.276,205.104 0.971,210.984 6.500,212.000" stroke-width="6.750" stroke="rgb(33,33,33)" fill="none" stroke-linecap="round"></path><path d="M 6.500,212.000 C 25.471,215.484 39.500,212.000 72.500,212.000" stroke-width="6.750" stroke="rgb(33,33,33)" fill="none" stroke-linecap="round"></path><path d="M 72.500,212.000 C 110.500,212.000 110.500,212.000 148.500,212.000" stroke-width="6.750" stroke="rgb(33,33,33)" fill="none" stroke-linecap="round"></path><path d="M 148.500,212.000 C 192.000,212.000 192.000,212.000 235.500,212.000" stroke-width="6.750" stroke="rgb(33,33,33)" fill="none" stroke-linecap="round"></path><path d="M 235.500,212.000 C 287.000,212.000 287.000,212.000 338.500,212.000" stroke-width="6.750" stroke="rgb(33,33,33)" fill="none" stroke-linecap="round"></path><path d="M 338.500,212.000 C 382.000,212.000 382.000,212.000 425.500,212.000" stroke-width="6.750" stroke="rgb(33,33,33)" fill="none" stroke-linecap="round"></path><path d="M 425.500,212.000 C 456.500,212.000 456.528,212.860 487.500,212.000" stroke-width="6.750" stroke="rgb(33,33,33)" fill="none" stroke-linecap="round"></path><path d="M 487.500,212.000 C 510.528,211.360 510.560,211.134 533.500,209.000" stroke-width="6.750" stroke="rgb(33,33,33)" fill="none" stroke-linecap="round"></path><path d="M 533.500,209.000 C 553.560,207.134 553.550,206.850 573.500,204.000" stroke-width="6.750" stroke="rgb(33,33,33)" fill="none" stroke-linecap="round"></path><path d="M 573.500,204.000 C 592.050,201.350 591.951,200.650 610.500,198.000" stroke-width="6.750" stroke="rgb(33,33,33)" fill="none" stroke-linecap="round"></path><path d="M 610.500,198.000 C 623.451,196.150 623.528,196.713 636.500,195.000" stroke-width="6.750" stroke="rgb(33,33,33)" fill="none" stroke-linecap="round"></path><path d="M 636.500,195.000 C 650.028,193.213 650.008,193.053 663.500,191.000" stroke-width="6.750" stroke="rgb(33,33,33)" fill="none" stroke-linecap="round"></path><path d="M 663.500,191.000 C 673.008,189.553 672.967,189.230 682.500,188.000" stroke-width="6.750" stroke="rgb(33,33,33)" fill="none" stroke-linecap="round"></path></svg>