<svg xmlns="http://www.w3.org/2000/svg" xmlns:xlink="http://www.w3.org/1999/xlink" viewBox="0 0 360 500"><path d="M 209.000,381.500 C 207.254,369.974 206.843,370.009 205.508,358.448" stroke-width="19.283" stroke="rgb(33,33,33)" fill="none" stroke-linecap="round"></path><path d="M 205.508,358.448 C 205.009,354.128 205.415,354.093 205.333,349.738" stroke-width="17.247" stroke="rgb(33,33,33)" fill="none" stroke-linecap="round"></path><path d="M 205.333,349.738 C 205.235,344.517 205.233,344.517 205.147,339.296" stroke-width="16.717" stroke="rgb(33,33,33)" fill="none" stroke-linecap="round"></path><path d="M 205.147,339.296 C 205.066,334.398 205.205,334.393 205.000,329.500" stroke-width="16.641" stroke="rgb(33,33,33)" fill="none" stroke-linecap="round"></path><path d="M 205.000,329.500 C 204.600,319.961 203.886,319.942 203.937,310.432" stroke-width="14.841" stroke="rgb(33,33,33)" fill="none" stroke-linecap="round"></path><path d="M 203.937,310.432 C 203.961,306.054 204.458,306.064 205.150,301.724" stroke-width="14.081" stroke="rgb(33,33,33)" fill="none" stroke-linecap="round"></path><path d="M 205.150,301.724 C 205.751,297.955 205.858,297.973 206.524,294.214" stroke-width="12.909" stroke="rgb(33,33,33)" fill="none" stroke-linecap="round"></path><path d="M 206.524,294.214 C 207.187,290.472 207.091,290.454 207.809,286.723" stroke-width="12.602" stroke="rgb(33,33,33)" fill="none" stroke-linecap="round"></path><path d="M 207.809,286.723 C 208.506,283.102 208.401,283.068 209.355,279.510" stroke-width="12.729" stroke="rgb(33,33,33)" fill="none" stroke-linecap="round"></path><path d="M 209.355,279.510 C 210.242,276.203 210.395,276.242 211.491,272.993" stroke-width="13.074" stroke="rgb(33,33,33)" fill="none" stroke-linecap="round"></path><path d="M 211.491,272.993 C 212.969,268.608 213.091,268.648 214.503,264.242" stroke-width="13.221" stroke="rgb(33,33,33)" fill="none" stroke-linecap="round"></path></svg>