<svg xmlns="http://www.w3.org/2000/svg" xmlns:xlink="http://www.w3.org/1999/xlink" viewBox="0 0 800 500"><path d="M 384.500,116.500 C 385.500,116.500 385.643,116.071 386.500,116.500" stroke-width="20.120" stroke="rgb(33,33,33)" fill="none" stroke-linecap="round"></path><path d="M 386.500,116.500 C 388.643,117.571 388.356,118.275 390.500,119.500" stroke-width="18.967" stroke="rgb(33,33,33)" fill="none" stroke-linecap="round"></path><path d="M 390.500,119.500 C 391.856,120.275 392.020,119.945 393.500,120.500" stroke-width="16.147" stroke="rgb(33,33,33)" fill="none" stroke-linecap="round"></path><path d="M 393.500,120.500 C 396.020,121.445 395.951,121.650 398.500,122.500" stroke-width="16.072" stroke="rgb(33,33,33)" fill="none" stroke-linecap="round"></path><path d="M 398.500,122.500 C 400.451,123.150 400.500,123.000 402.500,123.500" stroke-width="15.445" stroke="rgb(33,33,33)" fill="none" stroke-linecap="round"></path><path d="M 402.500,123.500 C 404.500,124.000 404.488,124.053 406.500,124.500" stroke-width="14.817" stroke="rgb(33,33,33)" fill="none" stroke-linecap="round"></path><path d="M 406.500,124.500 C 408.988,125.053 409.031,124.883 411.500,125.500" stroke-width="14.253" stroke="rgb(33,33,33)" fill="none" stroke-linecap="round"></path><path d="M 411.500,125.500 C 413.031,125.883 412.960,126.243 414.500,126.500" stroke-width="14.393" stroke="rgb(33,33,33)" fill="none" stroke-linecap="round"></path><path d="M 414.500,126.500 C 415.960,126.743 416.000,126.500 417.500,126.500" stroke-width="14.459" stroke="rgb(33,33,33)" fill="none" stroke-linecap="round"></path><path d="M 417.500,126.500 C 419.000,126.500 419.000,126.500 420.500,126.500" stroke-width="14.512" stroke="rgb(33,33,33)" fill="none" stroke-linecap="round"></path><path d="M 420.500,126.500 C 422.000,126.500 422.040,126.743 423.500,126.500" stroke-width="14.297" stroke="rgb(33,33,33)" fill="none" stroke-linecap="round"></path><path d="M 423.500,126.500 C 425.040,126.243 425.000,126.000 426.500,125.500" stroke-width="14.340" stroke="rgb(33,33,33)" fill="none" stroke-linecap="round"></path><path d="M 426.500,125.500 C 428.000,125.000 428.000,125.000 429.500,124.500" stroke-width="14.374" stroke="rgb(33,33,33)" fill="none" stroke-linecap="round"></path><path d="M 429.500,124.500 C 431.000,124.000 431.144,124.275 432.500,123.500" stroke-width="14.402" stroke="rgb(33,33,33)" fill="none" stroke-linecap="round"></path><path d="M 432.500,123.500 C 434.644,122.275 434.607,122.123 436.500,120.500" stroke-width="14.102" stroke="rgb(33,33,33)" fill="none" stroke-linecap="round"></path><path d="M 436.500,120.500 C 438.107,119.123 437.796,118.717 439.500,117.500" stroke-width="13.776" stroke="rgb(33,33,33)" fill="none" stroke-linecap="round"></path><path d="M 439.500,117.500 C 441.296,116.217 441.704,116.783 443.500,115.500" stroke-width="13.725" stroke="rgb(33,33,33)" fill="none" stroke-linecap="round"></path><path d="M 443.500,115.500 C 445.204,114.283 445.000,114.000 446.500,112.500" stroke-width="13.486" stroke="rgb(33,33,33)" fill="none" stroke-linecap="round"></path><path d="M 446.500,112.500 C 447.500,111.500 447.401,111.379 448.500,110.500" stroke-width="13.831" stroke="rgb(33,33,33)" fill="none" stroke-linecap="round"></path><path d="M 448.500,110.500 C 449.901,109.379 450.250,109.750 451.500,108.500" stroke-width="13.736" stroke="rgb(33,33,33)" fill="none" stroke-linecap="round"></path><path d="M 451.500,108.500 C 452.750,107.250 452.379,106.901 453.500,105.500" stroke-width="13.874" stroke="rgb(33,33,33)" fill="none" stroke-linecap="round"></path><path d="M 453.500,105.500 C 454.379,104.401 454.662,104.617 455.500,103.500" stroke-width="13.675" stroke="rgb(33,33,33)" fill="none" stroke-linecap="round"></path><path d="M 455.500,103.500 C 456.162,102.617 456.000,102.500 456.500,101.500" stroke-width="14.057" stroke="rgb(33,33,33)" fill="none" stroke-linecap="round"></path><path d="M 456.500,101.500 C 457.000,100.500 457.086,100.536 457.500,99.500" stroke-width="14.379" stroke="rgb(33,33,33)" fill="none" stroke-linecap="round"></path><path d="M 457.500,99.500 C 458.086,98.036 458.279,98.045 458.500,96.500" stroke-width="14.406" stroke="rgb(33,33,33)" fill="none" stroke-linecap="round"></path><path d="M 458.500,96.500 C 458.779,94.545 458.254,94.470 458.500,92.500" stroke-width="14.215" stroke="rgb(33,33,33)" fill="none" stroke-linecap="round"></path><path d="M 458.500,92.500 C 458.754,90.470 459.246,90.530 459.500,88.500" stroke-width="14.148" stroke="rgb(33,33,33)" fill="none" stroke-linecap="round"></path><path d="M 459.500,88.500 C 459.746,86.530 459.500,86.500 459.500,84.500" stroke-width="13.876" stroke="rgb(33,33,33)" fill="none" stroke-linecap="round"></path><path d="M 459.500,84.500 C 459.500,82.000 459.500,82.000 459.500,79.500" stroke-width="13.696" stroke="rgb(33,33,33)" fill="none" stroke-linecap="round"></path><path d="M 459.500,79.500 C 459.500,76.500 459.500,76.500 459.500,73.500" stroke-width="13.029" stroke="rgb(33,33,33)" fill="none" stroke-linecap="round"></path><path d="M 459.500,73.500 C 459.500,71.000 459.726,70.981 459.500,68.500" stroke-width="12.911" stroke="rgb(33,33,33)" fill="none" stroke-linecap="round"></path><path d="M 459.500,68.500 C 459.226,65.481 459.364,65.381 458.500,62.500" stroke-width="12.435" stroke="rgb(33,33,33)" fill="none" stroke-linecap="round"></path><path d="M 458.500,62.500 C 457.864,60.381 457.783,60.296 456.500,58.500" stroke-width="12.419" stroke="rgb(33,33,33)" fill="none" stroke-linecap="round"></path><path d="M 456.500,58.500 C 455.283,56.796 454.851,57.122 453.500,55.500" stroke-width="12.573" stroke="rgb(33,33,33)" fill="none" stroke-linecap="round"></path><path d="M 453.500,55.500 C 452.351,54.122 452.757,53.757 451.500,52.500" stroke-width="12.828" stroke="rgb(33,33,33)" fill="none" stroke-linecap="round"></path><path d="M 451.500,52.500 C 449.757,50.757 449.393,51.123 447.500,49.500" stroke-width="12.753" stroke="rgb(33,33,33)" fill="none" stroke-linecap="round"></path><path d="M 447.500,49.500 C 445.893,48.123 446.204,47.717 444.500,46.500" stroke-width="12.846" stroke="rgb(33,33,33)" fill="none" stroke-linecap="round"></path><path d="M 444.500,46.500 C 442.704,45.217 442.453,45.585 440.500,44.500" stroke-width="12.874" stroke="rgb(33,33,33)" fill="none" stroke-linecap="round"></path><path d="M 440.500,44.500 C 437.953,43.085 438.047,42.915 435.500,41.500" stroke-width="12.624" stroke="rgb(33,33,33)" fill="none" stroke-linecap="round"></path><path d="M 435.500,41.500 C 433.547,40.415 433.619,40.136 431.500,39.500" stroke-width="12.695" stroke="rgb(33,33,33)" fill="none" stroke-linecap="round"></path><path d="M 431.500,39.500 C 428.619,38.636 428.480,39.096 425.500,38.500" stroke-width="12.438" stroke="rgb(33,33,33)" fill="none" stroke-linecap="round"></path><path d="M 425.500,38.500 C 423.480,38.096 423.520,37.904 421.500,37.500" stroke-width="12.612" stroke="rgb(33,33,33)" fill="none" stroke-linecap="round"></path><path d="M 421.500,37.500 C 418.520,36.904 418.514,36.835 415.500,36.500" stroke-width="12.374" stroke="rgb(33,33,33)" fill="none" stroke-linecap="round"></path><path d="M 415.500,36.500 C 414.014,36.335 414.000,36.500 412.500,36.500" stroke-width="12.584" stroke="rgb(33,33,33)" fill="none" stroke-linecap="round"></path><path d="M 412.500,36.500 C 411.000,36.500 411.000,36.500 409.500,36.500" stroke-width="12.961" stroke="rgb(33,33,33)" fill="none" stroke-linecap="round"></path><path d="M 409.500,36.500 C 408.500,36.500 408.444,36.264 407.500,36.500" stroke-width="13.501" stroke="rgb(33,33,33)" fill="none" stroke-linecap="round"></path><path d="M 407.500,36.500 C 406.444,36.764 406.419,36.887 405.500,37.500" stroke-width="13.910" stroke="rgb(33,33,33)" fill="none" stroke-linecap="round"></path><path d="M 405.500,37.500 C 404.919,37.887 404.707,37.879 404.500,38.500" stroke-width="14.464" stroke="rgb(33,33,33)" fill="none" stroke-linecap="round"></path><path d="M 404.500,38.500 C 404.207,39.379 404.929,39.643 404.500,40.500" stroke-width="14.781" stroke="rgb(33,33,33)" fill="none" stroke-linecap="round"></path><path d="M 404.500,40.500 C 403.429,42.643 402.953,42.466 401.500,44.500" stroke-width="14.250" stroke="rgb(33,33,33)" fill="none" stroke-linecap="round"></path><path d="M 401.500,44.500 C 400.453,45.966 400.302,45.896 399.500,47.500" stroke-width="14.291" stroke="rgb(33,33,33)" fill="none" stroke-linecap="round"></path><path d="M 399.500,47.500 C 398.302,49.896 398.350,49.951 397.500,52.500" stroke-width="13.614" stroke="rgb(33,33,33)" fill="none" stroke-linecap="round"></path><path d="M 397.500,52.500 C 396.850,54.451 397.150,54.549 396.500,56.500" stroke-width="13.258" stroke="rgb(33,33,33)" fill="none" stroke-linecap="round"></path><path d="M 396.500,56.500 C 395.650,59.049 395.270,58.932 394.500,61.500" stroke-width="13.010" stroke="rgb(33,33,33)" fill="none" stroke-linecap="round"></path><path d="M 394.500,61.500 C 393.770,63.932 394.170,64.045 393.500,66.500" stroke-width="12.876" stroke="rgb(33,33,33)" fill="none" stroke-linecap="round"></path><path d="M 393.500,66.500 C 392.670,69.545 392.265,69.442 391.500,72.500" stroke-width="12.667" stroke="rgb(33,33,33)" fill="none" stroke-linecap="round"></path><path d="M 391.500,72.500 C 390.765,75.442 391.044,75.508 390.500,78.500" stroke-width="12.041" stroke="rgb(33,33,33)" fill="none" stroke-linecap="round"></path><path d="M 390.500,78.500 C 390.044,81.008 389.730,80.973 389.500,83.500" stroke-width="12.208" stroke="rgb(33,33,33)" fill="none" stroke-linecap="round"></path><path d="M 389.500,83.500 C 389.230,86.473 389.770,86.527 389.500,89.500" stroke-width="12.076" stroke="rgb(33,33,33)" fill="none" stroke-linecap="round"></path><path d="M 389.500,89.500 C 389.270,92.027 388.730,91.973 388.500,94.500" stroke-width="12.133" stroke="rgb(33,33,33)" fill="none" stroke-linecap="round"></path><path d="M 388.500,94.500 C 388.230,97.473 388.500,97.500 388.500,100.500" stroke-width="12.016" stroke="rgb(33,33,33)" fill="none" stroke-linecap="round"></path><path d="M 388.500,100.500 C 388.500,103.000 388.500,103.000 388.500,105.500" stroke-width="12.204" stroke="rgb(33,33,33)" fill="none" stroke-linecap="round"></path><path d="M 388.500,105.500 C 388.500,108.000 388.500,108.000 388.500,110.500" stroke-width="12.124" stroke="rgb(33,33,33)" fill="none" stroke-linecap="round"></path><path d="M 388.500,110.500 C 388.500,113.500 388.013,113.579 388.500,116.500" stroke-width="12.009" stroke="rgb(33,33,33)" fill="none" stroke-linecap="round"></path><path d="M 388.500,116.500 C 389.013,119.579 389.570,119.478 390.500,122.500" stroke-width="11.507" stroke="rgb(33,33,33)" fill="none" stroke-linecap="round"></path><path d="M 390.500,122.500 C 391.570,125.978 391.199,126.117 392.500,129.500" stroke-width="11.443" stroke="rgb(33,33,33)" fill="none" stroke-linecap="round"></path><path d="M 392.500,129.500 C 393.699,132.617 394.113,132.449 395.500,135.500" stroke-width="11.204" stroke="rgb(33,33,33)" fill="none" stroke-linecap="round"></path><path d="M 395.500,135.500 C 396.613,137.949 396.580,137.971 397.500,140.500" stroke-width="11.373" stroke="rgb(33,33,33)" fill="none" stroke-linecap="round"></path><path d="M 397.500,140.500 C 398.580,143.471 398.500,143.500 399.500,146.500" stroke-width="11.360" stroke="rgb(33,33,33)" fill="none" stroke-linecap="round"></path><path d="M 399.500,146.500 C 400.500,149.500 400.500,149.500 401.500,152.500" stroke-width="11.350" stroke="rgb(33,33,33)" fill="none" stroke-linecap="round"></path><path d="M 401.500,152.500 C 402.500,155.500 402.500,155.500 403.500,158.500" stroke-width="11.342" stroke="rgb(33,33,33)" fill="none" stroke-linecap="round"></path><path d="M 403.500,158.500 C 404.500,161.500 404.420,161.529 405.500,164.500" stroke-width="11.335" stroke="rgb(33,33,33)" fill="none" stroke-linecap="round"></path><path d="M 405.500,164.500 C 406.420,167.029 406.387,167.051 407.500,169.500" stroke-width="11.481" stroke="rgb(33,33,33)" fill="none" stroke-linecap="round"></path><path d="M 407.500,169.500 C 408.887,172.551 409.000,172.500 410.500,175.500" stroke-width="11.038" stroke="rgb(33,33,33)" fill="none" stroke-linecap="round"></path><path d="M 410.500,175.500 C 412.000,178.500 412.213,178.412 413.500,181.500" stroke-width="11.033" stroke="rgb(33,33,33)" fill="none" stroke-linecap="round"></path><path d="M 413.500,181.500 C 414.713,184.412 414.942,184.428 415.500,187.500" stroke-width="11.087" stroke="rgb(33,33,33)" fill="none" stroke-linecap="round"></path><path d="M 415.500,187.500 C 415.942,189.928 414.982,190.084 415.500,192.500" stroke-width="11.337" stroke="rgb(33,33,33)" fill="none" stroke-linecap="round"></path><path d="M 415.500,192.500 C 416.482,197.084 417.518,196.916 418.500,201.500" stroke-width="10.852" stroke="rgb(33,33,33)" fill="none" stroke-linecap="round"></path><path d="M 418.500,201.500 C 419.018,203.916 418.058,204.072 418.500,206.500" stroke-width="11.139" stroke="rgb(33,33,33)" fill="none" stroke-linecap="round"></path><path d="M 418.500,206.500 C 419.058,209.572 419.592,209.473 420.500,212.500" stroke-width="11.173" stroke="rgb(33,33,33)" fill="none" stroke-linecap="round"></path><path d="M 420.500,212.500 C 421.092,214.473 421.096,214.480 421.500,216.500" stroke-width="11.552" stroke="rgb(33,33,33)" fill="none" stroke-linecap="round"></path><path d="M 421.500,216.500 C 422.096,219.480 422.248,219.479 422.500,222.500" stroke-width="11.542" stroke="rgb(33,33,33)" fill="none" stroke-linecap="round"></path><path d="M 422.500,222.500 C 422.748,225.479 422.500,225.500 422.500,228.500" stroke-width="11.659" stroke="rgb(33,33,33)" fill="none" stroke-linecap="round"></path><path d="M 422.500,228.500 C 422.500,231.000 422.500,231.000 422.500,233.500" stroke-width="11.689" stroke="rgb(33,33,33)" fill="none" stroke-linecap="round"></path><path d="M 422.500,233.500 C 422.500,236.000 422.500,236.000 422.500,238.500" stroke-width="11.836" stroke="rgb(33,33,33)" fill="none" stroke-linecap="round"></path><path d="M 422.500,238.500 C 422.500,240.000 422.500,240.000 422.500,241.500" stroke-width="12.135" stroke="rgb(33,33,33)" fill="none" stroke-linecap="round"></path><path d="M 422.500,241.500 C 422.500,243.500 423.026,243.659 422.500,245.500" stroke-width="12.385" stroke="rgb(33,33,33)" fill="none" stroke-linecap="round"></path><path d="M 422.500,245.500 C 422.026,247.159 421.621,247.099 420.500,248.500" stroke-width="12.671" stroke="rgb(33,33,33)" fill="none" stroke-linecap="round"></path><path d="M 420.500,248.500 C 419.621,249.599 419.500,249.500 418.500,250.500" stroke-width="13.071" stroke="rgb(33,33,33)" fill="none" stroke-linecap="round"></path><path d="M 418.500,250.500 C 417.500,251.500 417.599,251.621 416.500,252.500" stroke-width="13.410" stroke="rgb(33,33,33)" fill="none" stroke-linecap="round"></path><path d="M 416.500,252.500 C 415.099,253.621 415.134,253.774 413.500,254.500" stroke-width="13.516" stroke="rgb(33,33,33)" fill="none" stroke-linecap="round"></path><path d="M 413.500,254.500 C 410.634,255.774 410.572,255.942 407.500,256.500" stroke-width="13.008" stroke="rgb(33,33,33)" fill="none" stroke-linecap="round"></path><path d="M 407.500,256.500 C 405.072,256.942 405.000,256.500 402.500,256.500" stroke-width="12.895" stroke="rgb(33,33,33)" fill="none" stroke-linecap="round"></path><path d="M 402.500,256.500 C 398.500,256.500 398.500,256.500 394.500,256.500" stroke-width="12.226" stroke="rgb(33,33,33)" fill="none" stroke-linecap="round"></path><path d="M 394.500,256.500 C 389.500,256.500 389.443,257.020 384.500,256.500" stroke-width="11.408" stroke="rgb(33,33,33)" fill="none" stroke-linecap="round"></path><path d="M 384.500,256.500 C 379.943,256.020 380.000,255.500 375.500,254.500" stroke-width="10.752" stroke="rgb(33,33,33)" fill="none" stroke-linecap="round"></path><path d="M 375.500,254.500 C 371.000,253.500 371.000,253.500 366.500,252.500" stroke-width="10.278" stroke="rgb(33,33,33)" fill="none" stroke-linecap="round"></path><path d="M 366.500,252.500 C 362.000,251.500 361.882,251.884 357.500,250.500" stroke-width="10.329" stroke="rgb(33,33,33)" fill="none" stroke-linecap="round"></path><path d="M 357.500,250.500 C 352.382,248.884 352.500,248.500 347.500,246.500" stroke-width="9.519" stroke="rgb(33,33,33)" fill="none" stroke-linecap="round"></path><path d="M 347.500,246.500 C 342.500,244.500 342.462,244.589 337.500,242.500" stroke-width="9.327" stroke="rgb(33,33,33)" fill="none" stroke-linecap="round"></path><path d="M 337.500,242.500 C 332.962,240.589 332.671,241.049 328.500,238.500" stroke-width="9.275" stroke="rgb(33,33,33)" fill="none" stroke-linecap="round"></path><path d="M 328.500,238.500 C 323.671,235.549 323.753,235.280 319.500,231.500" stroke-width="9.074" stroke="rgb(33,33,33)" fill="none" stroke-linecap="round"></path><path d="M 319.500,231.500 C 314.753,227.280 315.000,227.000 310.500,222.500" stroke-width="8.791" stroke="rgb(33,33,33)" fill="none" stroke-linecap="round"></path><path d="M 310.500,222.500 C 306.500,218.500 306.079,218.845 302.500,214.500" stroke-width="8.707" stroke="rgb(33,33,33)" fill="none" stroke-linecap="round"></path><path d="M 302.500,214.500 C 299.079,210.345 299.318,210.111 296.500,205.500" stroke-width="8.688" stroke="rgb(33,33,33)" fill="none" stroke-linecap="round"></path><path d="M 296.500,205.500 C 293.818,201.111 294.224,200.858 291.500,196.500" stroke-width="8.585" stroke="rgb(33,33,33)" fill="none" stroke-linecap="round"></path><path d="M 291.500,196.500 C 289.224,192.858 288.517,193.246 286.500,189.500" stroke-width="8.680" stroke="rgb(33,33,33)" fill="none" stroke-linecap="round"></path><path d="M 286.500,189.500 C 285.017,186.746 285.500,186.500 284.500,183.500" stroke-width="9.103" stroke="rgb(33,33,33)" fill="none" stroke-linecap="round"></path><path d="M 284.500,183.500 C 283.500,180.500 283.500,180.500 282.500,177.500" stroke-width="9.551" stroke="rgb(33,33,33)" fill="none" stroke-linecap="round"></path><path d="M 282.500,177.500 C 282.000,176.000 282.000,176.000 281.500,174.500" stroke-width="10.194" stroke="rgb(33,33,33)" fill="none" stroke-linecap="round"></path><path d="M 281.500,174.500 C 281.000,173.000 280.880,173.019 280.500,171.500" stroke-width="10.839" stroke="rgb(33,33,33)" fill="none" stroke-linecap="round"></path><path d="M 280.500,171.500 C 280.380,171.019 280.500,171.000 280.500,170.500" stroke-width="11.776" stroke="rgb(33,33,33)" fill="none" stroke-linecap="round"></path><path d="M 280.500,170.500 C 280.500,169.500 280.500,169.500 280.500,168.500" stroke-width="12.457" stroke="rgb(33,33,33)" fill="none" stroke-linecap="round"></path><path d="M 280.500,168.500 C 280.500,167.500 280.500,167.500 280.500,166.500" stroke-width="13.060" stroke="rgb(33,33,33)" fill="none" stroke-linecap="round"></path><path d="M 280.500,166.500 C 280.500,165.500 280.500,165.500 280.500,164.500" stroke-width="13.587" stroke="rgb(33,33,33)" fill="none" stroke-linecap="round"></path><path d="M 280.500,164.500 C 280.500,164.000 280.500,164.000 280.500,163.500" stroke-width="14.287" stroke="rgb(33,33,33)" fill="none" stroke-linecap="round"></path><path d="M 280.500,163.500 C 280.500,162.500 280.207,162.379 280.500,161.500" stroke-width="14.459" stroke="rgb(33,33,33)" fill="none" stroke-linecap="round"></path><path d="M 280.500,161.500 C 280.707,160.879 281.113,161.081 281.500,160.500" stroke-width="14.936" stroke="rgb(33,33,33)" fill="none" stroke-linecap="round"></path><path d="M 281.500,160.500 C 282.113,159.581 281.887,159.419 282.500,158.500" stroke-width="15.106" stroke="rgb(33,33,33)" fill="none" stroke-linecap="round"></path><path d="M 282.500,158.500 C 282.887,157.919 282.919,157.887 283.500,157.500" stroke-width="15.484" stroke="rgb(33,33,33)" fill="none" stroke-linecap="round"></path><path d="M 283.500,157.500 C 284.419,156.887 284.500,157.000 285.500,156.500" stroke-width="15.552" stroke="rgb(33,33,33)" fill="none" stroke-linecap="round"></path><path d="M 285.500,156.500 C 286.500,156.000 286.464,155.845 287.500,155.500" stroke-width="15.606" stroke="rgb(33,33,33)" fill="none" stroke-linecap="round"></path><path d="M 287.500,155.500 C 287.964,155.345 288.000,155.500 288.500,155.500" stroke-width="16.032" stroke="rgb(33,33,33)" fill="none" stroke-linecap="round"></path><path d="M 288.500,155.500 C 289.000,155.500 289.000,155.500 289.500,155.500" stroke-width="16.391" stroke="rgb(33,33,33)" fill="none" stroke-linecap="round"></path><path d="M 289.500,155.500 C 290.500,155.500 290.500,155.500 291.500,155.500" stroke-width="16.352" stroke="rgb(33,33,33)" fill="none" stroke-linecap="round"></path><path d="M 291.500,155.500 C 293.000,155.500 293.069,155.142 294.500,155.500" stroke-width="15.999" stroke="rgb(33,33,33)" fill="none" stroke-linecap="round"></path><path d="M 294.500,155.500 C 297.069,156.142 297.051,156.387 299.500,157.500" stroke-width="15.031" stroke="rgb(33,33,33)" fill="none" stroke-linecap="round"></path><path d="M 299.500,157.500 C 302.551,158.887 302.393,159.257 305.500,160.500" stroke-width="13.488" stroke="rgb(33,33,33)" fill="none" stroke-linecap="round"></path><path d="M 305.500,160.500 C 309.893,162.257 310.028,161.922 314.500,163.500" stroke-width="12.361" stroke="rgb(33,33,33)" fill="none" stroke-linecap="round"></path><path d="M 314.500,163.500 C 318.528,164.922 318.552,164.874 322.500,166.500" stroke-width="11.908" stroke="rgb(33,33,33)" fill="none" stroke-linecap="round"></path><path d="M 322.500,166.500 C 327.052,168.374 327.100,168.300 331.500,170.500" stroke-width="10.995" stroke="rgb(33,33,33)" fill="none" stroke-linecap="round"></path><path d="M 331.500,170.500 C 336.100,172.800 335.857,173.301 340.500,175.500" stroke-width="10.488" stroke="rgb(33,33,33)" fill="none" stroke-linecap="round"></path><path d="M 340.500,175.500 C 345.357,177.801 345.422,177.723 350.500,179.500" stroke-width="10.055" stroke="rgb(33,33,33)" fill="none" stroke-linecap="round"></path><path d="M 350.500,179.500 C 355.422,181.223 355.612,180.699 360.500,182.500" stroke-width="9.773" stroke="rgb(33,33,33)" fill="none" stroke-linecap="round"></path><path d="M 360.500,182.500 C 365.112,184.199 364.888,184.801 369.500,186.500" stroke-width="9.625" stroke="rgb(33,33,33)" fill="none" stroke-linecap="round"></path><path d="M 369.500,186.500 C 374.388,188.301 374.422,188.371 379.500,189.500" stroke-width="9.444" stroke="rgb(33,33,33)" fill="none" stroke-linecap="round"></path><path d="M 379.500,189.500 C 383.422,190.371 383.510,189.930 387.500,190.500" stroke-width="9.566" stroke="rgb(33,33,33)" fill="none" stroke-linecap="round"></path><path d="M 387.500,190.500 C 390.510,190.930 390.481,191.226 393.500,191.500" stroke-width="9.660" stroke="rgb(33,33,33)" fill="none" stroke-linecap="round"></path><path d="M 393.500,191.500 C 395.981,191.726 396.025,191.252 398.500,191.500" stroke-width="10.115" stroke="rgb(33,33,33)" fill="none" stroke-linecap="round"></path><path d="M 398.500,191.500 C 401.025,191.752 401.000,192.000 403.500,192.500" stroke-width="10.497" stroke="rgb(33,33,33)" fill="none" stroke-linecap="round"></path><path d="M 403.500,192.500 C 406.000,193.000 405.982,193.185 408.500,193.500" stroke-width="10.825" stroke="rgb(33,33,33)" fill="none" stroke-linecap="round"></path><path d="M 408.500,193.500 C 409.982,193.685 410.000,193.500 411.500,193.500" stroke-width="11.430" stroke="rgb(33,33,33)" fill="none" stroke-linecap="round"></path><path d="M 411.500,193.500 C 413.000,193.500 413.000,193.500 414.500,193.500" stroke-width="11.966" stroke="rgb(33,33,33)" fill="none" stroke-linecap="round"></path><path d="M 414.500,193.500 C 415.500,193.500 415.500,193.500 416.500,193.500" stroke-width="12.626" stroke="rgb(33,33,33)" fill="none" stroke-linecap="round"></path><path d="M 416.500,193.500 C 418.000,193.500 418.040,193.257 419.500,193.500" stroke-width="12.997" stroke="rgb(33,33,33)" fill="none" stroke-linecap="round"></path><path d="M 419.500,193.500 C 421.040,193.757 421.000,194.000 422.500,194.500" stroke-width="13.274" stroke="rgb(33,33,33)" fill="none" stroke-linecap="round"></path><path d="M 422.500,194.500 C 424.000,195.000 424.050,194.879 425.500,195.500" stroke-width="13.505" stroke="rgb(33,33,33)" fill="none" stroke-linecap="round"></path><path d="M 425.500,195.500 C 427.550,196.379 427.397,196.799 429.500,197.500" stroke-width="13.398" stroke="rgb(33,33,33)" fill="none" stroke-linecap="round"></path><path d="M 429.500,197.500 C 431.897,198.299 432.125,197.636 434.500,198.500" stroke-width="12.824" stroke="rgb(33,33,33)" fill="none" stroke-linecap="round"></path><path d="M 434.500,198.500 C 437.625,199.636 437.456,200.095 440.500,201.500" stroke-width="12.416" stroke="rgb(33,33,33)" fill="none" stroke-linecap="round"></path><path d="M 440.500,201.500 C 443.956,203.095 444.100,202.800 447.500,204.500" stroke-width="11.946" stroke="rgb(33,33,33)" fill="none" stroke-linecap="round"></path><path d="M 447.500,204.500 C 451.100,206.300 450.796,206.975 454.500,208.500" stroke-width="11.521" stroke="rgb(33,33,33)" fill="none" stroke-linecap="round"></path><path d="M 454.500,208.500 C 459.296,210.475 459.551,209.850 464.500,211.500" stroke-width="10.845" stroke="rgb(33,33,33)" fill="none" stroke-linecap="round"></path><path d="M 464.500,211.500 C 468.551,212.850 468.449,213.150 472.500,214.500" stroke-width="10.617" stroke="rgb(33,33,33)" fill="none" stroke-linecap="round"></path><path d="M 472.500,214.500 C 477.449,216.150 477.551,215.850 482.500,217.500" stroke-width="10.004" stroke="rgb(33,33,33)" fill="none" stroke-linecap="round"></path><path d="M 482.500,217.500 C 486.551,218.850 486.519,218.952 490.500,220.500" stroke-width="10.381" stroke="rgb(33,33,33)" fill="none" stroke-linecap="round"></path><path d="M 490.500,220.500 C 495.519,222.452 495.353,223.070 500.500,224.500" stroke-width="8.808" stroke="rgb(33,33,33)" fill="none" stroke-linecap="round"></path><path d="M 500.500,224.500 C 504.353,225.570 504.504,224.967 508.500,225.500" stroke-width="9.037" stroke="rgb(33,33,33)" fill="none" stroke-linecap="round"></path><path d="M 508.500,225.500 C 512.004,225.967 511.985,226.207 515.500,226.500" stroke-width="9.087" stroke="rgb(33,33,33)" fill="none" stroke-linecap="round"></path><path d="M 515.500,226.500 C 517.985,226.707 518.000,226.500 520.500,226.500" stroke-width="9.608" stroke="rgb(33,33,33)" fill="none" stroke-linecap="round"></path><path d="M 520.500,226.500 C 522.500,226.500 522.500,226.500 524.500,226.500" stroke-width="10.195" stroke="rgb(33,33,33)" fill="none" stroke-linecap="round"></path><path d="M 524.500,226.500 C 526.000,226.500 526.138,226.954 527.500,226.500" stroke-width="10.913" stroke="rgb(33,33,33)" fill="none" stroke-linecap="round"></path><path d="M 527.500,226.500 C 529.138,225.954 529.266,225.734 530.500,224.500" stroke-width="11.329" stroke="rgb(33,33,33)" fill="none" stroke-linecap="round"></path><path d="M 530.500,224.500 C 531.266,223.734 530.810,223.363 531.500,222.500" stroke-width="12.056" stroke="rgb(33,33,33)" fill="none" stroke-linecap="round"></path><path d="M 531.500,222.500 C 532.810,220.863 533.486,221.275 534.500,219.500" stroke-width="12.162" stroke="rgb(33,33,33)" fill="none" stroke-linecap="round"></path><path d="M 534.500,219.500 C 535.486,217.775 535.000,217.500 535.500,215.500" stroke-width="12.385" stroke="rgb(33,33,33)" fill="none" stroke-linecap="round"></path><path d="M 535.500,215.500 C 536.000,213.500 536.211,213.526 536.500,211.500" stroke-width="12.569" stroke="rgb(33,33,33)" fill="none" stroke-linecap="round"></path><path d="M 536.500,211.500 C 536.711,210.026 536.500,210.000 536.500,208.500" stroke-width="12.948" stroke="rgb(33,33,33)" fill="none" stroke-linecap="round"></path><path d="M 536.500,208.500 C 536.500,206.500 536.500,206.500 536.500,204.500" stroke-width="12.780" stroke="rgb(33,33,33)" fill="none" stroke-linecap="round"></path><path d="M 536.500,204.500 C 536.500,203.000 536.500,203.000 536.500,201.500" stroke-width="13.256" stroke="rgb(33,33,33)" fill="none" stroke-linecap="round"></path><path d="M 536.500,201.500 C 536.500,200.500 536.736,200.444 536.500,199.500" stroke-width="13.602" stroke="rgb(33,33,33)" fill="none" stroke-linecap="round"></path><path d="M 536.500,199.500 C 536.236,198.444 535.914,198.536 535.500,197.500" stroke-width="13.996" stroke="rgb(33,33,33)" fill="none" stroke-linecap="round"></path><path d="M 535.500,197.500 C 534.914,196.036 534.880,196.019 534.500,194.500" stroke-width="14.096" stroke="rgb(33,33,33)" fill="none" stroke-linecap="round"></path><path d="M 534.500,194.500 C 534.380,194.019 534.655,193.964 534.500,193.500" stroke-width="14.735" stroke="rgb(33,33,33)" fill="none" stroke-linecap="round"></path><path d="M 534.500,193.500 C 534.155,192.464 534.000,192.500 533.500,191.500" stroke-width="14.941" stroke="rgb(33,33,33)" fill="none" stroke-linecap="round"></path><path d="M 533.500,191.500 C 533.000,190.500 533.162,190.383 532.500,189.500" stroke-width="15.110" stroke="rgb(33,33,33)" fill="none" stroke-linecap="round"></path><path d="M 532.500,189.500 C 531.662,188.383 531.599,188.379 530.500,187.500" stroke-width="15.080" stroke="rgb(33,33,33)" fill="none" stroke-linecap="round"></path><path d="M 530.500,187.500 C 529.099,186.379 528.878,186.649 527.500,185.500" stroke-width="14.842" stroke="rgb(33,33,33)" fill="none" stroke-linecap="round"></path><path d="M 527.500,185.500 C 525.878,184.149 526.122,183.851 524.500,182.500" stroke-width="14.489" stroke="rgb(33,33,33)" fill="none" stroke-linecap="round"></path><path d="M 524.500,182.500 C 523.122,181.351 523.073,181.374 521.500,180.500" stroke-width="14.380" stroke="rgb(33,33,33)" fill="none" stroke-linecap="round"></path><path d="M 521.500,180.500 C 518.573,178.874 518.500,179.000 515.500,177.500" stroke-width="13.063" stroke="rgb(33,33,33)" fill="none" stroke-linecap="round"></path><path d="M 515.500,177.500 C 512.500,176.000 512.588,175.787 509.500,174.500" stroke-width="12.595" stroke="rgb(33,33,33)" fill="none" stroke-linecap="round"></path><path d="M 509.500,174.500 C 506.588,173.287 506.500,173.500 503.500,172.500" stroke-width="12.315" stroke="rgb(33,33,33)" fill="none" stroke-linecap="round"></path><path d="M 503.500,172.500 C 500.500,171.500 500.500,171.500 497.500,170.500" stroke-width="12.099" stroke="rgb(33,33,33)" fill="none" stroke-linecap="round"></path><path d="M 497.500,170.500 C 494.500,169.500 494.471,169.580 491.500,168.500" stroke-width="11.933" stroke="rgb(33,33,33)" fill="none" stroke-linecap="round"></path><path d="M 491.500,168.500 C 488.971,167.580 489.083,167.204 486.500,166.500" stroke-width="11.966" stroke="rgb(33,33,33)" fill="none" stroke-linecap="round"></path><path d="M 486.500,166.500 C 483.583,165.704 483.500,166.000 480.500,165.500" stroke-width="11.871" stroke="rgb(33,33,33)" fill="none" stroke-linecap="round"></path><path d="M 480.500,165.500 C 477.500,165.000 477.492,165.044 474.500,164.500" stroke-width="11.795" stroke="rgb(33,33,33)" fill="none" stroke-linecap="round"></path><path d="M 474.500,164.500 C 471.992,164.044 472.008,163.956 469.500,163.500" stroke-width="11.906" stroke="rgb(33,33,33)" fill="none" stroke-linecap="round"></path><path d="M 469.500,163.500 C 466.508,162.956 466.480,163.096 463.500,162.500" stroke-width="11.483" stroke="rgb(33,33,33)" fill="none" stroke-linecap="round"></path><path d="M 463.500,162.500 C 461.480,162.096 461.530,161.754 459.500,161.500" stroke-width="11.816" stroke="rgb(33,33,33)" fill="none" stroke-linecap="round"></path><path d="M 459.500,161.500 C 457.530,161.254 457.470,161.746 455.500,161.500" stroke-width="12.118" stroke="rgb(33,33,33)" fill="none" stroke-linecap="round"></path><path d="M 455.500,161.500 C 453.470,161.246 453.445,161.148 451.500,160.500" stroke-width="12.348" stroke="rgb(33,33,33)" fill="none" stroke-linecap="round"></path><path d="M 451.500,160.500 C 450.445,160.148 450.582,159.655 449.500,159.500" stroke-width="12.967" stroke="rgb(33,33,33)" fill="none" stroke-linecap="round"></path><path d="M 449.500,159.500 C 447.082,159.155 447.000,159.500 444.500,159.500" stroke-width="13.853" stroke="rgb(33,33,33)" fill="none" stroke-linecap="round"></path><path d="M 444.500,159.500 C 440.000,159.500 440.000,159.500 435.500,159.500" stroke-width="12.903" stroke="rgb(33,33,33)" fill="none" stroke-linecap="round"></path><path d="M 435.500,159.500 C 431.000,159.500 431.000,159.500 426.500,159.500" stroke-width="13.138" stroke="rgb(33,33,33)" fill="none" stroke-linecap="round"></path><path d="M 426.500,159.500 C 422.500,159.500 422.500,159.500 418.500,159.500" stroke-width="12.571" stroke="rgb(33,33,33)" fill="none" stroke-linecap="round"></path><path d="M 418.500,159.500 C 417.000,159.500 416.960,159.257 415.500,159.500" stroke-width="12.951" stroke="rgb(33,33,33)" fill="none" stroke-linecap="round"></path></svg>