<svg xmlns="http://www.w3.org/2000/svg" xmlns:xlink="http://www.w3.org/1999/xlink" viewBox="0 0 800 500"><path d="M 214.000,247.500 C 213.500,246.500 213.214,246.568 213.000,245.500" stroke-width="20.160" stroke="rgb(33,33,33)" fill="none" stroke-linecap="round"></path><path d="M 213.000,245.500 C 212.714,244.068 213.322,243.948 213.000,242.500" stroke-width="19.492" stroke="rgb(33,33,33)" fill="none" stroke-linecap="round"></path><path d="M 213.000,242.500 C 212.322,239.448 211.814,239.552 211.000,236.500" stroke-width="18.317" stroke="rgb(33,33,33)" fill="none" stroke-linecap="round"></path><path d="M 211.000,236.500 C 209.814,232.052 209.849,232.028 209.000,227.500" stroke-width="17.062" stroke="rgb(33,33,33)" fill="none" stroke-linecap="round"></path><path d="M 209.000,227.500 C 208.349,224.028 208.235,224.019 208.000,220.500" stroke-width="16.359" stroke="rgb(33,33,33)" fill="none" stroke-linecap="round"></path><path d="M 208.000,220.500 C 207.735,216.519 208.000,216.500 208.000,212.500" stroke-width="15.766" stroke="rgb(33,33,33)" fill="none" stroke-linecap="round"></path><path d="M 208.000,212.500 C 208.000,206.500 208.000,206.500 208.000,200.500" stroke-width="14.795" stroke="rgb(33,33,33)" fill="none" stroke-linecap="round"></path><path d="M 208.000,200.500 C 208.000,194.000 207.740,193.989 208.000,187.500" stroke-width="13.986" stroke="rgb(33,33,33)" fill="none" stroke-linecap="round"></path><path d="M 208.000,187.500 C 208.240,181.489 208.150,181.447 209.000,175.500" stroke-width="13.500" stroke="rgb(33,33,33)" fill="none" stroke-linecap="round"></path><path d="M 209.000,175.500 C 209.650,170.947 210.000,171.000 211.000,166.500" stroke-width="13.424" stroke="rgb(33,33,33)" fill="none" stroke-linecap="round"></path><path d="M 211.000,166.500 C 212.000,162.000 211.304,161.739 213.000,157.500" stroke-width="13.305" stroke="rgb(33,33,33)" fill="none" stroke-linecap="round"></path><path d="M 213.000,157.500 C 215.304,151.739 215.780,151.867 219.000,146.500" stroke-width="12.939" stroke="rgb(33,33,33)" fill="none" stroke-linecap="round"></path><path d="M 219.000,146.500 C 221.780,141.867 221.882,141.917 225.000,137.500" stroke-width="12.822" stroke="rgb(33,33,33)" fill="none" stroke-linecap="round"></path><path d="M 225.000,137.500 C 227.882,133.417 227.912,133.430 231.000,129.500" stroke-width="13.061" stroke="rgb(33,33,33)" fill="none" stroke-linecap="round"></path><path d="M 231.000,129.500 C 233.412,126.430 233.364,126.376 236.000,123.500" stroke-width="13.216" stroke="rgb(33,33,33)" fill="none" stroke-linecap="round"></path><path d="M 236.000,123.500 C 238.864,120.376 238.685,120.104 242.000,117.500" stroke-width="13.405" stroke="rgb(33,33,33)" fill="none" stroke-linecap="round"></path><path d="M 242.000,117.500 C 245.685,114.604 245.798,114.601 250.000,112.500" stroke-width="13.266" stroke="rgb(33,33,33)" fill="none" stroke-linecap="round"></path><path d="M 250.000,112.500 C 254.798,110.101 255.000,110.500 260.000,108.500" stroke-width="13.143" stroke="rgb(33,33,33)" fill="none" stroke-linecap="round"></path><path d="M 260.000,108.500 C 265.000,106.500 264.922,106.277 270.000,104.500" stroke-width="12.986" stroke="rgb(33,33,33)" fill="none" stroke-linecap="round"></path><path d="M 270.000,104.500 C 274.922,102.777 274.922,102.629 280.000,101.500" stroke-width="12.683" stroke="rgb(33,33,33)" fill="none" stroke-linecap="round"></path><path d="M 280.000,101.500 C 283.922,100.629 283.984,100.751 288.000,100.500" stroke-width="13.086" stroke="rgb(33,33,33)" fill="none" stroke-linecap="round"></path><path d="M 288.000,100.500 C 291.984,100.251 292.000,100.500 296.000,100.500" stroke-width="13.218" stroke="rgb(33,33,33)" fill="none" stroke-linecap="round"></path><path d="M 296.000,100.500 C 301.500,100.500 301.539,100.975 307.000,100.500" stroke-width="13.083" stroke="rgb(33,33,33)" fill="none" stroke-linecap="round"></path><path d="M 307.000,100.500 C 313.039,99.975 312.961,99.025 319.000,98.500" stroke-width="12.805" stroke="rgb(33,33,33)" fill="none" stroke-linecap="round"></path><path d="M 319.000,98.500 C 324.461,98.025 324.584,97.898 330.000,98.500" stroke-width="12.636" stroke="rgb(33,33,33)" fill="none" stroke-linecap="round"></path><path d="M 330.000,98.500 C 333.584,98.898 333.435,99.787 337.000,100.500" stroke-width="12.917" stroke="rgb(33,33,33)" fill="none" stroke-linecap="round"></path><path d="M 337.000,100.500 C 345.935,102.287 346.076,101.654 355.000,103.500" stroke-width="12.134" stroke="rgb(33,33,33)" fill="none" stroke-linecap="round"></path><path d="M 355.000,103.500 C 360.576,104.654 360.542,104.862 366.000,106.500" stroke-width="12.131" stroke="rgb(33,33,33)" fill="none" stroke-linecap="round"></path><path d="M 366.000,106.500 C 370.542,107.862 370.562,107.836 375.000,109.500" stroke-width="12.295" stroke="rgb(33,33,33)" fill="none" stroke-linecap="round"></path><path d="M 375.000,109.500 C 378.562,110.836 378.421,111.222 382.000,112.500" stroke-width="12.600" stroke="rgb(33,33,33)" fill="none" stroke-linecap="round"></path><path d="M 382.000,112.500 C 385.421,113.722 385.864,112.811 389.000,114.500" stroke-width="12.887" stroke="rgb(33,33,33)" fill="none" stroke-linecap="round"></path><path d="M 389.000,114.500 C 392.364,116.311 391.978,117.027 395.000,119.500" stroke-width="13.278" stroke="rgb(33,33,33)" fill="none" stroke-linecap="round"></path><path d="M 395.000,119.500 C 397.478,121.527 397.463,121.548 400.000,123.500" stroke-width="13.580" stroke="rgb(33,33,33)" fill="none" stroke-linecap="round"></path><path d="M 400.000,123.500 C 403.963,126.548 404.333,126.167 408.000,129.500" stroke-width="13.340" stroke="rgb(33,33,33)" fill="none" stroke-linecap="round"></path><path d="M 408.000,129.500 C 409.833,131.167 409.615,131.423 411.000,133.500" stroke-width="13.776" stroke="rgb(33,33,33)" fill="none" stroke-linecap="round"></path><path d="M 411.000,133.500 C 412.615,135.923 412.257,136.175 414.000,138.500" stroke-width="14.018" stroke="rgb(33,33,33)" fill="none" stroke-linecap="round"></path><path d="M 414.000,138.500 C 416.757,142.175 417.194,141.853 420.000,145.500" stroke-width="13.888" stroke="rgb(33,33,33)" fill="none" stroke-linecap="round"></path><path d="M 420.000,145.500 C 422.194,148.353 421.840,148.620 424.000,151.500" stroke-width="13.999" stroke="rgb(33,33,33)" fill="none" stroke-linecap="round"></path><path d="M 424.000,151.500 C 426.340,154.620 427.066,154.185 429.000,157.500" stroke-width="13.919" stroke="rgb(33,33,33)" fill="none" stroke-linecap="round"></path><path d="M 429.000,157.500 C 430.566,160.185 429.866,160.551 431.000,163.500" stroke-width="14.120" stroke="rgb(33,33,33)" fill="none" stroke-linecap="round"></path><path d="M 431.000,163.500 C 432.366,167.051 432.303,167.107 434.000,170.500" stroke-width="14.092" stroke="rgb(33,33,33)" fill="none" stroke-linecap="round"></path><path d="M 434.000,170.500 C 434.803,172.107 435.454,171.862 436.000,173.500" stroke-width="14.548" stroke="rgb(33,33,33)" fill="none" stroke-linecap="round"></path><path d="M 436.000,173.500 C 436.454,174.862 435.757,175.040 436.000,176.500" stroke-width="15.013" stroke="rgb(33,33,33)" fill="none" stroke-linecap="round"></path><path d="M 436.000,176.500 C 436.257,178.040 436.806,177.950 437.000,179.500" stroke-width="15.384" stroke="rgb(33,33,33)" fill="none" stroke-linecap="round"></path><path d="M 437.000,179.500 C 437.306,181.950 436.694,182.050 437.000,184.500" stroke-width="15.436" stroke="rgb(33,33,33)" fill="none" stroke-linecap="round"></path><path d="M 437.000,184.500 C 437.194,186.050 437.779,185.955 438.000,187.500" stroke-width="16.018" stroke="rgb(33,33,33)" fill="none" stroke-linecap="round"></path><path d="M 438.000,187.500 C 438.279,189.455 438.000,189.500 438.000,191.500" stroke-width="16.125" stroke="rgb(33,33,33)" fill="none" stroke-linecap="round"></path><path d="M 438.000,191.500 C 438.000,193.000 438.243,193.040 438.000,194.500" stroke-width="16.331" stroke="rgb(33,33,33)" fill="none" stroke-linecap="round"></path><path d="M 438.000,194.500 C 437.743,196.040 437.621,196.050 437.000,197.500" stroke-width="16.735" stroke="rgb(33,33,33)" fill="none" stroke-linecap="round"></path><path d="M 437.000,197.500 C 436.121,199.550 436.000,199.500 435.000,201.500" stroke-width="16.590" stroke="rgb(33,33,33)" fill="none" stroke-linecap="round"></path><path d="M 435.000,201.500 C 434.500,202.500 434.662,202.617 434.000,203.500" stroke-width="16.813" stroke="rgb(33,33,33)" fill="none" stroke-linecap="round"></path><path d="M 434.000,203.500 C 433.162,204.617 433.000,204.500 432.000,205.500" stroke-width="16.890" stroke="rgb(33,33,33)" fill="none" stroke-linecap="round"></path><path d="M 432.000,205.500 C 429.500,208.000 429.649,208.182 427.000,210.500" stroke-width="16.416" stroke="rgb(33,33,33)" fill="none" stroke-linecap="round"></path><path d="M 427.000,210.500 C 425.649,211.682 425.556,211.592 424.000,212.500" stroke-width="16.398" stroke="rgb(33,33,33)" fill="none" stroke-linecap="round"></path><path d="M 424.000,212.500 C 419.556,215.092 419.469,214.946 415.000,217.500" stroke-width="15.469" stroke="rgb(33,33,33)" fill="none" stroke-linecap="round"></path><path d="M 415.000,217.500 C 412.469,218.946 412.599,219.200 410.000,220.500" stroke-width="15.389" stroke="rgb(33,33,33)" fill="none" stroke-linecap="round"></path><path d="M 410.000,220.500 C 407.599,221.700 407.401,221.300 405.000,222.500" stroke-width="15.387" stroke="rgb(33,33,33)" fill="none" stroke-linecap="round"></path><path d="M 405.000,222.500 C 402.401,223.800 402.547,224.085 400.000,225.500" stroke-width="15.324" stroke="rgb(33,33,33)" fill="none" stroke-linecap="round"></path><path d="M 400.000,225.500 C 398.047,226.585 398.000,226.500 396.000,227.500" stroke-width="15.461" stroke="rgb(33,33,33)" fill="none" stroke-linecap="round"></path><path d="M 396.000,227.500 C 394.000,228.500 394.119,228.864 392.000,229.500" stroke-width="15.572" stroke="rgb(33,33,33)" fill="none" stroke-linecap="round"></path><path d="M 392.000,229.500 C 389.119,230.364 388.961,229.842 386.000,230.500" stroke-width="15.383" stroke="rgb(33,33,33)" fill="none" stroke-linecap="round"></path><path d="M 386.000,230.500 C 384.461,230.842 384.464,230.914 383.000,231.500" stroke-width="15.694" stroke="rgb(33,33,33)" fill="none" stroke-linecap="round"></path><path d="M 383.000,231.500 C 381.964,231.914 382.068,232.286 381.000,232.500" stroke-width="16.109" stroke="rgb(33,33,33)" fill="none" stroke-linecap="round"></path><path d="M 381.000,232.500 C 379.568,232.786 379.432,232.214 378.000,232.500" stroke-width="16.289" stroke="rgb(33,33,33)" fill="none" stroke-linecap="round"></path><path d="M 378.000,232.500 C 376.932,232.714 377.056,233.236 376.000,233.500" stroke-width="16.565" stroke="rgb(33,33,33)" fill="none" stroke-linecap="round"></path><path d="M 376.000,233.500 C 375.056,233.736 375.000,233.500 374.000,233.500" stroke-width="16.940" stroke="rgb(33,33,33)" fill="none" stroke-linecap="round"></path><path d="M 374.000,233.500 C 372.500,233.500 372.500,233.500 371.000,233.500" stroke-width="16.963" stroke="rgb(33,33,33)" fill="none" stroke-linecap="round"></path><path d="M 371.000,233.500 C 370.000,233.500 370.000,233.500 369.000,233.500" stroke-width="17.182" stroke="rgb(33,33,33)" fill="none" stroke-linecap="round"></path><path d="M 369.000,233.500 C 368.500,233.500 368.500,233.500 368.000,233.500" stroke-width="17.628" stroke="rgb(33,33,33)" fill="none" stroke-linecap="round"></path><path d="M 368.000,233.500 C 367.000,233.500 366.969,233.306 366.000,233.500" stroke-width="17.724" stroke="rgb(33,33,33)" fill="none" stroke-linecap="round"></path><path d="M 366.000,233.500 C 364.469,233.806 364.519,234.120 363.000,234.500" stroke-width="17.590" stroke="rgb(33,33,33)" fill="none" stroke-linecap="round"></path><path d="M 363.000,234.500 C 362.519,234.620 362.500,234.500 362.000,234.500" stroke-width="17.877" stroke="rgb(33,33,33)" fill="none" stroke-linecap="round"></path><path d="M 362.000,234.500 C 361.000,234.500 360.879,234.207 360.000,234.500" stroke-width="17.925" stroke="rgb(33,33,33)" fill="none" stroke-linecap="round"></path><path d="M 360.000,234.500 C 359.379,234.707 359.000,235.207 359.000,235.500" stroke-width="18.293" stroke="rgb(33,33,33)" fill="none" stroke-linecap="round"></path><path d="M 359.000,235.500 C 359.000,235.707 359.500,235.500 360.000,235.500" stroke-width="18.623" stroke="rgb(33,33,33)" fill="none" stroke-linecap="round"></path><path d="M 360.000,235.500 C 361.500,235.500 361.513,235.314 363.000,235.500" stroke-width="18.611" stroke="rgb(33,33,33)" fill="none" stroke-linecap="round"></path><path d="M 363.000,235.500 C 373.513,236.814 373.500,237.000 384.000,238.500" stroke-width="15.504" stroke="rgb(33,33,33)" fill="none" stroke-linecap="round"></path><path d="M 384.000,238.500 C 391.000,239.500 390.971,239.773 398.000,240.500" stroke-width="14.244" stroke="rgb(33,33,33)" fill="none" stroke-linecap="round"></path><path d="M 398.000,240.500 C 405.471,241.273 405.489,241.344 413.000,241.500" stroke-width="13.461" stroke="rgb(33,33,33)" fill="none" stroke-linecap="round"></path><path d="M 413.000,241.500 C 429.489,241.844 429.500,241.500 446.000,241.500" stroke-width="12.719" stroke="rgb(33,33,33)" fill="none" stroke-linecap="round"></path><path d="M 446.000,241.500 C 454.500,241.500 454.500,241.500 463.000,241.500" stroke-width="12.253" stroke="rgb(33,33,33)" fill="none" stroke-linecap="round"></path><path d="M 463.000,241.500 C 471.500,241.500 471.500,241.500 480.000,241.500" stroke-width="11.759" stroke="rgb(33,33,33)" fill="none" stroke-linecap="round"></path><path d="M 480.000,241.500 C 487.000,241.500 487.000,241.500 494.000,241.500" stroke-width="11.391" stroke="rgb(33,33,33)" fill="none" stroke-linecap="round"></path><path d="M 494.000,241.500 C 499.500,241.500 499.577,242.178 505.000,241.500" stroke-width="11.508" stroke="rgb(33,33,33)" fill="none" stroke-linecap="round"></path><path d="M 505.000,241.500 C 511.577,240.678 511.421,239.475 518.000,238.500" stroke-width="11.532" stroke="rgb(33,33,33)" fill="none" stroke-linecap="round"></path><path d="M 518.000,238.500 C 524.921,237.475 524.993,237.792 532.000,237.500" stroke-width="11.501" stroke="rgb(33,33,33)" fill="none" stroke-linecap="round"></path><path d="M 532.000,237.500 C 536.993,237.292 537.000,237.500 542.000,237.500" stroke-width="11.731" stroke="rgb(33,33,33)" fill="none" stroke-linecap="round"></path><path d="M 542.000,237.500 C 546.500,237.500 546.514,237.251 551.000,237.500" stroke-width="12.047" stroke="rgb(33,33,33)" fill="none" stroke-linecap="round"></path><path d="M 551.000,237.500 C 555.514,237.751 555.487,238.235 560.000,238.500" stroke-width="12.263" stroke="rgb(33,33,33)" fill="none" stroke-linecap="round"></path><path d="M 560.000,238.500 C 563.987,238.735 564.041,238.170 568.000,238.500" stroke-width="12.441" stroke="rgb(33,33,33)" fill="none" stroke-linecap="round"></path><path d="M 568.000,238.500 C 570.041,238.670 570.221,238.610 572.000,239.500" stroke-width="13.059" stroke="rgb(33,33,33)" fill="none" stroke-linecap="round"></path><path d="M 572.000,239.500 C 573.221,240.110 572.892,240.761 574.000,241.500" stroke-width="13.740" stroke="rgb(33,33,33)" fill="none" stroke-linecap="round"></path><path d="M 574.000,241.500 C 574.392,241.761 575.167,241.500 575.000,241.500" stroke-width="14.567" stroke="rgb(33,33,33)" fill="none" stroke-linecap="round"></path><path d="M 575.000,241.500 C 574.667,241.500 574.000,241.500 573.000,241.500" stroke-width="15.426" stroke="rgb(33,33,33)" fill="none" stroke-linecap="round"></path><path d="M 573.000,241.500 C 572.000,241.500 572.000,241.500 571.000,241.500" stroke-width="15.880" stroke="rgb(33,33,33)" fill="none" stroke-linecap="round"></path><path d="M 571.000,241.500 C 569.500,241.500 569.500,241.500 568.000,241.500" stroke-width="16.130" stroke="rgb(33,33,33)" fill="none" stroke-linecap="round"></path><path d="M 568.000,241.500 C 566.000,241.500 566.000,241.500 564.000,241.500" stroke-width="16.182" stroke="rgb(33,33,33)" fill="none" stroke-linecap="round"></path><path d="M 564.000,241.500 C 560.000,241.500 560.000,241.500 556.000,241.500" stroke-width="15.563" stroke="rgb(33,33,33)" fill="none" stroke-linecap="round"></path><path d="M 556.000,241.500 C 551.500,241.500 551.500,241.500 547.000,241.500" stroke-width="15.036" stroke="rgb(33,33,33)" fill="none" stroke-linecap="round"></path><path d="M 547.000,241.500 C 542.000,241.500 541.995,241.685 537.000,241.500" stroke-width="14.515" stroke="rgb(33,33,33)" fill="none" stroke-linecap="round"></path><path d="M 537.000,241.500 C 528.495,241.185 528.504,240.870 520.000,240.500" stroke-width="13.354" stroke="rgb(33,33,33)" fill="none" stroke-linecap="round"></path><path d="M 520.000,240.500 C 517.004,240.370 517.000,240.500 514.000,240.500" stroke-width="13.648" stroke="rgb(33,33,33)" fill="none" stroke-linecap="round"></path><path d="M 514.000,240.500 C 512.000,240.500 512.000,240.500 510.000,240.500" stroke-width="14.121" stroke="rgb(33,33,33)" fill="none" stroke-linecap="round"></path><path d="M 510.000,240.500 C 508.500,240.500 508.500,240.500 507.000,240.500" stroke-width="14.647" stroke="rgb(33,33,33)" fill="none" stroke-linecap="round"></path><path d="M 507.000,240.500 C 504.500,240.500 504.500,240.500 502.000,240.500" stroke-width="14.837" stroke="rgb(33,33,33)" fill="none" stroke-linecap="round"></path><path d="M 502.000,240.500 C 500.500,240.500 500.500,240.500 499.000,240.500" stroke-width="15.258" stroke="rgb(33,33,33)" fill="none" stroke-linecap="round"></path><path d="M 499.000,240.500 C 498.000,240.500 498.000,240.500 497.000,240.500" stroke-width="15.756" stroke="rgb(33,33,33)" fill="none" stroke-linecap="round"></path><path d="M 497.000,240.500 C 496.500,240.500 496.000,240.890 496.000,240.500" stroke-width="16.331" stroke="rgb(33,33,33)" fill="none" stroke-linecap="round"></path><path d="M 496.000,240.500 C 496.000,238.890 496.262,238.418 497.000,236.500" stroke-width="16.843" stroke="rgb(33,33,33)" fill="none" stroke-linecap="round"></path><path d="M 497.000,236.500 C 498.762,231.918 499.355,232.135 501.000,227.500" stroke-width="15.759" stroke="rgb(33,33,33)" fill="none" stroke-linecap="round"></path><path d="M 501.000,227.500 C 504.855,216.635 505.222,216.612 508.000,205.500" stroke-width="13.504" stroke="rgb(33,33,33)" fill="none" stroke-linecap="round"></path><path d="M 508.000,205.500 C 508.722,202.612 508.000,202.500 508.000,199.500" stroke-width="13.969" stroke="rgb(33,33,33)" fill="none" stroke-linecap="round"></path><path d="M 508.000,199.500 C 508.000,198.500 508.000,198.500 508.000,197.500" stroke-width="14.624" stroke="rgb(33,33,33)" fill="none" stroke-linecap="round"></path><path d="M 508.000,197.500 C 508.000,197.500 508.000,197.500 508.000,197.500" stroke-width="15.484" stroke="rgb(33,33,33)" fill="none" stroke-linecap="round"></path><path d="M 508.000,197.500 C 505.000,198.000 504.634,197.073 502.000,198.500" stroke-width="15.027" stroke="rgb(33,33,33)" fill="none" stroke-linecap="round"></path><path d="M 502.000,198.500 C 492.634,203.573 492.641,204.019 484.000,210.500" stroke-width="13.336" stroke="rgb(33,33,33)" fill="none" stroke-linecap="round"></path><path d="M 484.000,210.500 C 474.641,217.519 475.165,218.205 466.000,225.500" stroke-width="12.089" stroke="rgb(33,33,33)" fill="none" stroke-linecap="round"></path><path d="M 466.000,225.500 C 450.665,237.705 450.759,237.888 435.000,249.500" stroke-width="9.975" stroke="rgb(33,33,33)" fill="none" stroke-linecap="round"></path><path d="M 435.000,249.500 C 431.759,251.888 431.276,251.207 428.000,253.500" stroke-width="10.553" stroke="rgb(33,33,33)" fill="none" stroke-linecap="round"></path><path d="M 428.000,253.500 C 426.276,254.707 426.500,255.000 425.000,256.500" stroke-width="11.362" stroke="rgb(33,33,33)" fill="none" stroke-linecap="round"></path><path d="M 425.000,256.500 C 424.500,257.000 424.293,257.500 424.000,257.500" stroke-width="12.357" stroke="rgb(33,33,33)" fill="none" stroke-linecap="round"></path><path d="M 424.000,257.500 C 423.793,257.500 424.000,257.000 424.000,256.500" stroke-width="13.368" stroke="rgb(33,33,33)" fill="none" stroke-linecap="round"></path><path d="M 424.000,256.500 C 424.000,254.500 423.440,254.368 424.000,252.500" stroke-width="13.998" stroke="rgb(33,33,33)" fill="none" stroke-linecap="round"></path><path d="M 424.000,252.500 C 424.940,249.368 425.801,249.617 427.000,246.500" stroke-width="14.181" stroke="rgb(33,33,33)" fill="none" stroke-linecap="round"></path><path d="M 427.000,246.500 C 428.301,243.117 428.292,243.041 429.000,239.500" stroke-width="14.128" stroke="rgb(33,33,33)" fill="none" stroke-linecap="round"></path><path d="M 429.000,239.500 C 429.292,238.041 429.938,237.063 429.000,236.500" stroke-width="14.709" stroke="rgb(33,33,33)" fill="none" stroke-linecap="round"></path><path d="M 429.000,236.500 C 427.438,235.563 426.329,235.724 424.000,236.500" stroke-width="15.097" stroke="rgb(33,33,33)" fill="none" stroke-linecap="round"></path><path d="M 424.000,236.500 C 417.329,238.724 417.552,239.617 411.000,242.500" stroke-width="13.946" stroke="rgb(33,33,33)" fill="none" stroke-linecap="round"></path><path d="M 411.000,242.500 C 405.052,245.117 405.153,245.557 399.000,247.500" stroke-width="13.370" stroke="rgb(33,33,33)" fill="none" stroke-linecap="round"></path><path d="M 399.000,247.500 C 395.653,248.557 395.455,247.809 392.000,248.500" stroke-width="13.589" stroke="rgb(33,33,33)" fill="none" stroke-linecap="round"></path><path d="M 392.000,248.500 C 390.455,248.809 389.500,250.000 389.000,249.500" stroke-width="14.144" stroke="rgb(33,33,33)" fill="none" stroke-linecap="round"></path><path d="M 389.000,249.500 C 388.500,249.000 389.295,247.911 390.000,246.500" stroke-width="14.893" stroke="rgb(33,33,33)" fill="none" stroke-linecap="round"></path><path d="M 390.000,246.500 C 392.795,240.911 392.784,240.861 396.000,235.500" stroke-width="14.109" stroke="rgb(33,33,33)" fill="none" stroke-linecap="round"></path><path d="M 396.000,235.500 C 397.284,233.361 398.063,233.688 399.000,231.500" stroke-width="14.392" stroke="rgb(33,33,33)" fill="none" stroke-linecap="round"></path><path d="M 399.000,231.500 C 399.563,230.188 399.000,230.000 399.000,228.500" stroke-width="14.856" stroke="rgb(33,33,33)" fill="none" stroke-linecap="round"></path><path d="M 399.000,228.500 C 399.000,228.000 399.326,227.826 399.000,227.500" stroke-width="15.565" stroke="rgb(33,33,33)" fill="none" stroke-linecap="round"></path><path d="M 399.000,227.500 C 397.826,226.326 397.709,225.927 396.000,225.500" stroke-width="15.781" stroke="rgb(33,33,33)" fill="none" stroke-linecap="round"></path><path d="M 396.000,225.500 C 391.709,224.427 391.427,224.057 387.000,224.500" stroke-width="15.190" stroke="rgb(33,33,33)" fill="none" stroke-linecap="round"></path><path d="M 387.000,224.500 C 381.427,225.057 381.426,225.764 376.000,227.500" stroke-width="14.458" stroke="rgb(33,33,33)" fill="none" stroke-linecap="round"></path><path d="M 376.000,227.500 C 368.926,229.764 368.519,229.458 362.000,232.500" stroke-width="13.542" stroke="rgb(33,33,33)" fill="none" stroke-linecap="round"></path><path d="M 362.000,232.500 C 361.019,232.958 361.691,233.809 361.000,234.500" stroke-width="14.218" stroke="rgb(33,33,33)" fill="none" stroke-linecap="round"></path><path d="M 361.000,234.500 C 360.691,234.809 359.750,234.500 360.000,234.500" stroke-width="14.987" stroke="rgb(33,33,33)" fill="none" stroke-linecap="round"></path><path d="M 360.000,234.500 C 360.750,234.500 361.500,234.500 363.000,234.500" stroke-width="15.801" stroke="rgb(33,33,33)" fill="none" stroke-linecap="round"></path><path d="M 363.000,234.500 C 365.500,234.500 365.500,234.500 368.000,234.500" stroke-width="15.846" stroke="rgb(33,33,33)" fill="none" stroke-linecap="round"></path><path d="M 368.000,234.500 C 372.000,234.500 372.000,234.500 376.000,234.500" stroke-width="15.382" stroke="rgb(33,33,33)" fill="none" stroke-linecap="round"></path><path d="M 376.000,234.500 C 381.000,234.500 381.000,234.500 386.000,234.500" stroke-width="14.694" stroke="rgb(33,33,33)" fill="none" stroke-linecap="round"></path><path d="M 386.000,234.500 C 389.000,234.500 389.000,234.500 392.000,234.500" stroke-width="14.700" stroke="rgb(33,33,33)" fill="none" stroke-linecap="round"></path><path d="M 392.000,234.500 C 394.000,234.500 394.000,234.500 396.000,234.500" stroke-width="14.978" stroke="rgb(33,33,33)" fill="none" stroke-linecap="round"></path><path d="M 396.000,234.500 C 396.500,234.500 396.500,234.500 397.000,234.500" stroke-width="15.678" stroke="rgb(33,33,33)" fill="none" stroke-linecap="round"></path><path d="M 397.000,234.500 C 398.500,234.500 398.500,234.500 400.000,234.500" stroke-width="15.935" stroke="rgb(33,33,33)" fill="none" stroke-linecap="round"></path><path d="M 400.000,234.500 C 401.500,234.500 401.500,234.500 403.000,234.500" stroke-width="16.175" stroke="rgb(33,33,33)" fill="none" stroke-linecap="round"></path><circle r="6" cx="499" cy="267.5" fill="rgb(33,33,33)"></circle></svg>