<svg xmlns="http://www.w3.org/2000/svg" xmlns:xlink="http://www.w3.org/1999/xlink" viewBox="0 0 375 500"><path d="M 154.000,133.500 C 157.000,139.500 156.898,139.554 160.000,145.500" stroke-width="17.177" stroke="rgb(33,33,33)" fill="none" stroke-linecap="round"></path><path d="M 160.000,145.500 C 162.898,151.054 163.016,150.991 166.000,156.500" stroke-width="15.580" stroke="rgb(33,33,33)" fill="none" stroke-linecap="round"></path><path d="M 166.000,156.500 C 169.516,162.991 169.793,162.857 173.000,169.500" stroke-width="14.217" stroke="rgb(33,33,33)" fill="none" stroke-linecap="round"></path><path d="M 173.000,169.500 C 176.793,177.357 176.623,177.448 180.000,185.500" stroke-width="13.205" stroke="rgb(33,33,33)" fill="none" stroke-linecap="round"></path><path d="M 180.000,185.500 C 183.123,192.948 183.867,192.768 186.000,200.500" stroke-width="12.433" stroke="rgb(33,33,33)" fill="none" stroke-linecap="round"></path><path d="M 186.000,200.500 C 187.867,207.268 187.247,207.474 188.000,214.500" stroke-width="12.198" stroke="rgb(33,33,33)" fill="none" stroke-linecap="round"></path><path d="M 188.000,214.500 C 188.747,221.474 188.730,221.492 189.000,228.500" stroke-width="11.806" stroke="rgb(33,33,33)" fill="none" stroke-linecap="round"></path><path d="M 189.000,228.500 C 189.230,234.492 189.518,234.547 189.000,240.500" stroke-width="11.819" stroke="rgb(33,33,33)" fill="none" stroke-linecap="round"></path><path d="M 189.000,240.500 C 188.518,246.047 188.667,246.222 187.000,251.500" stroke-width="11.896" stroke="rgb(33,33,33)" fill="none" stroke-linecap="round"></path><path d="M 187.000,251.500 C 185.667,255.722 185.119,255.565 183.000,259.500" stroke-width="12.190" stroke="rgb(33,33,33)" fill="none" stroke-linecap="round"></path><path d="M 183.000,259.500 C 181.619,262.065 181.854,262.337 180.000,264.500" stroke-width="12.676" stroke="rgb(33,33,33)" fill="none" stroke-linecap="round"></path><path d="M 180.000,264.500 C 178.854,265.837 178.608,265.857 177.000,266.500" stroke-width="13.318" stroke="rgb(33,33,33)" fill="none" stroke-linecap="round"></path><path d="M 177.000,266.500 C 176.108,266.857 175.333,267.167 175.000,266.500" stroke-width="14.033" stroke="rgb(33,33,33)" fill="none" stroke-linecap="round"></path><path d="M 175.000,266.500 C 174.333,265.167 174.811,264.489 175.000,262.500" stroke-width="14.419" stroke="rgb(33,33,33)" fill="none" stroke-linecap="round"></path><path d="M 175.000,262.500 C 175.811,253.989 174.618,253.638 177.000,245.500" stroke-width="13.279" stroke="rgb(33,33,33)" fill="none" stroke-linecap="round"></path><path d="M 177.000,245.500 C 180.618,233.138 181.677,233.355 187.000,221.500" stroke-width="11.605" stroke="rgb(33,33,33)" fill="none" stroke-linecap="round"></path><path d="M 187.000,221.500 C 192.677,208.855 192.404,208.677 199.000,196.500" stroke-width="10.726" stroke="rgb(33,33,33)" fill="none" stroke-linecap="round"></path><path d="M 199.000,196.500 C 205.404,184.677 206.467,185.259 213.000,173.500" stroke-width="9.786" stroke="rgb(33,33,33)" fill="none" stroke-linecap="round"></path><path d="M 213.000,173.500 C 218.967,162.759 218.959,162.703 224.000,151.500" stroke-width="9.441" stroke="rgb(33,33,33)" fill="none" stroke-linecap="round"></path><path d="M 224.000,151.500 C 227.959,142.703 228.033,142.670 231.000,133.500" stroke-width="9.387" stroke="rgb(33,33,33)" fill="none" stroke-linecap="round"></path><path d="M 231.000,133.500 C 233.533,125.670 233.503,125.585 235.000,117.500" stroke-width="9.553" stroke="rgb(33,33,33)" fill="none" stroke-linecap="round"></path><path d="M 235.000,117.500 C 236.003,112.085 235.710,112.010 236.000,106.500" stroke-width="9.956" stroke="rgb(33,33,33)" fill="none" stroke-linecap="round"></path><path d="M 236.000,106.500 C 236.210,102.510 237.389,101.833 236.000,98.500" stroke-width="10.540" stroke="rgb(33,33,33)" fill="none" stroke-linecap="round"></path><path d="M 236.000,98.500 C 234.889,95.833 233.910,95.331 231.000,94.500" stroke-width="11.173" stroke="rgb(33,33,33)" fill="none" stroke-linecap="round"></path><path d="M 231.000,94.500 C 226.910,93.331 226.365,93.669 222.000,94.500" stroke-width="11.533" stroke="rgb(33,33,33)" fill="none" stroke-linecap="round"></path><path d="M 222.000,94.500 C 215.865,95.669 215.003,94.956 210.000,98.500" stroke-width="11.488" stroke="rgb(33,33,33)" fill="none" stroke-linecap="round"></path><path d="M 210.000,98.500 C 203.003,103.456 203.280,104.460 198.000,111.500" stroke-width="11.137" stroke="rgb(33,33,33)" fill="none" stroke-linecap="round"></path><path d="M 198.000,111.500 C 192.780,118.460 192.369,118.498 189.000,126.500" stroke-width="10.884" stroke="rgb(33,33,33)" fill="none" stroke-linecap="round"></path><path d="M 189.000,126.500 C 184.369,137.498 184.286,137.785 182.000,149.500" stroke-width="10.182" stroke="rgb(33,33,33)" fill="none" stroke-linecap="round"></path><path d="M 182.000,149.500 C 180.286,158.285 181.225,158.492 181.000,167.500" stroke-width="10.109" stroke="rgb(33,33,33)" fill="none" stroke-linecap="round"></path><path d="M 181.000,167.500 C 180.725,178.492 179.648,178.684 181.000,189.500" stroke-width="9.824" stroke="rgb(33,33,33)" fill="none" stroke-linecap="round"></path><path d="M 181.000,189.500 C 182.148,198.684 182.077,199.164 186.000,207.500" stroke-width="9.723" stroke="rgb(33,33,33)" fill="none" stroke-linecap="round"></path><path d="M 186.000,207.500 C 190.077,216.164 190.373,216.607 197.000,223.500" stroke-width="9.668" stroke="rgb(33,33,33)" fill="none" stroke-linecap="round"></path><path d="M 197.000,223.500 C 202.873,229.607 203.522,229.374 211.000,233.500" stroke-width="9.686" stroke="rgb(33,33,33)" fill="none" stroke-linecap="round"></path><path d="M 211.000,233.500 C 218.022,237.374 218.222,237.944 226.000,239.500" stroke-width="9.818" stroke="rgb(33,33,33)" fill="none" stroke-linecap="round"></path><path d="M 226.000,239.500 C 233.222,240.944 233.567,240.219 241.000,239.500" stroke-width="9.992" stroke="rgb(33,33,33)" fill="none" stroke-linecap="round"></path><path d="M 241.000,239.500 C 249.067,238.719 249.583,239.467 257.000,236.500" stroke-width="10.001" stroke="rgb(33,33,33)" fill="none" stroke-linecap="round"></path><path d="M 257.000,236.500 C 264.583,233.467 264.452,232.560 271.000,227.500" stroke-width="10.101" stroke="rgb(33,33,33)" fill="none" stroke-linecap="round"></path><path d="M 271.000,227.500 C 275.452,224.060 275.284,223.747 279.000,219.500" stroke-width="10.410" stroke="rgb(33,33,33)" fill="none" stroke-linecap="round"></path><path d="M 279.000,219.500 C 282.284,215.747 282.095,215.567 285.000,211.500" stroke-width="10.807" stroke="rgb(33,33,33)" fill="none" stroke-linecap="round"></path><path d="M 285.000,211.500 C 287.095,208.567 287.187,208.608 289.000,205.500" stroke-width="11.318" stroke="rgb(33,33,33)" fill="none" stroke-linecap="round"></path><path d="M 289.000,205.500 C 290.687,202.608 290.641,202.558 292.000,199.500" stroke-width="11.840" stroke="rgb(33,33,33)" fill="none" stroke-linecap="round"></path><path d="M 292.000,199.500 C 292.641,198.058 292.743,198.040 293.000,196.500" stroke-width="12.630" stroke="rgb(33,33,33)" fill="none" stroke-linecap="round"></path><path d="M 293.000,196.500 C 293.243,195.040 292.660,194.859 293.000,193.500" stroke-width="13.321" stroke="rgb(33,33,33)" fill="none" stroke-linecap="round"></path><path d="M 293.000,193.500 C 293.160,192.859 293.707,193.086 294.000,192.500" stroke-width="14.123" stroke="rgb(33,33,33)" fill="none" stroke-linecap="round"></path><path d="M 294.000,192.500 C 294.207,192.086 294.000,192.000 294.000,191.500" stroke-width="14.903" stroke="rgb(33,33,33)" fill="none" stroke-linecap="round"></path><path d="M 294.000,191.500 C 294.000,191.000 294.000,191.000 294.000,190.500" stroke-width="15.658" stroke="rgb(33,33,33)" fill="none" stroke-linecap="round"></path><path d="M 294.000,190.500 C 294.000,190.000 294.392,189.735 294.000,189.500" stroke-width="16.255" stroke="rgb(33,33,33)" fill="none" stroke-linecap="round"></path><path d="M 294.000,189.500 C 291.892,188.235 291.608,188.114 289.000,187.500" stroke-width="16.072" stroke="rgb(33,33,33)" fill="none" stroke-linecap="round"></path><path d="M 289.000,187.500 C 283.108,186.114 283.051,186.004 277.000,185.500" stroke-width="14.889" stroke="rgb(33,33,33)" fill="none" stroke-linecap="round"></path><path d="M 277.000,185.500 C 265.051,184.504 265.003,184.500 253.000,184.500" stroke-width="12.893" stroke="rgb(33,33,33)" fill="none" stroke-linecap="round"></path><path d="M 253.000,184.500 C 236.003,184.500 235.561,182.468 219.000,185.500" stroke-width="10.762" stroke="rgb(33,33,33)" fill="none" stroke-linecap="round"></path><path d="M 219.000,185.500 C 200.061,188.968 200.111,190.482 182.000,197.500" stroke-width="9.362" stroke="rgb(33,33,33)" fill="none" stroke-linecap="round"></path><path d="M 182.000,197.500 C 160.111,205.982 160.338,206.651 139.000,216.500" stroke-width="8.042" stroke="rgb(33,33,33)" fill="none" stroke-linecap="round"></path><path d="M 139.000,216.500 C 121.338,224.651 121.048,224.201 104.000,233.500" stroke-width="7.651" stroke="rgb(33,33,33)" fill="none" stroke-linecap="round"></path><path d="M 104.000,233.500 C 93.548,239.201 93.510,239.368 84.000,246.500" stroke-width="7.742" stroke="rgb(33,33,33)" fill="none" stroke-linecap="round"></path><path d="M 84.000,246.500 C 77.510,251.368 77.744,251.756 72.000,257.500" stroke-width="8.152" stroke="rgb(33,33,33)" fill="none" stroke-linecap="round"></path><path d="M 72.000,257.500 C 69.244,260.256 68.653,260.193 67.000,263.500" stroke-width="8.863" stroke="rgb(33,33,33)" fill="none" stroke-linecap="round"></path><path d="M 67.000,263.500 C 66.153,265.193 65.571,266.929 67.000,267.500" stroke-width="9.772" stroke="rgb(33,33,33)" fill="none" stroke-linecap="round"></path><path d="M 67.000,267.500 C 70.571,268.929 72.103,268.390 77.000,267.500" stroke-width="10.213" stroke="rgb(33,33,33)" fill="none" stroke-linecap="round"></path><path d="M 77.000,267.500 C 94.103,264.390 94.983,266.071 111.000,259.500" stroke-width="9.110" stroke="rgb(33,33,33)" fill="none" stroke-linecap="round"></path><path d="M 111.000,259.500 C 133.983,250.071 132.950,247.407 155.000,235.500" stroke-width="7.886" stroke="rgb(33,33,33)" fill="none" stroke-linecap="round"></path><path d="M 155.000,235.500 C 182.950,220.407 182.933,220.373 211.000,205.500" stroke-width="6.750" stroke="rgb(33,33,33)" fill="none" stroke-linecap="round"></path><path d="M 211.000,205.500 C 241.433,189.373 241.312,189.128 272.000,173.500" stroke-width="6.750" stroke="rgb(33,33,33)" fill="none" stroke-linecap="round"></path></svg>