<svg xmlns="http://www.w3.org/2000/svg" xmlns:xlink="http://www.w3.org/1999/xlink" viewBox="0 0 800 500"><path stroke-linecap="round" fill="none" stroke="rgb(33,33,33)" stroke-width="20.178" d="M 173.500,85.000 C 173.500,85.500 173.500,85.500 173.500,86.000"></path><path stroke-linecap="round" fill="none" stroke="rgb(33,33,33)" stroke-width="19.633" d="M 173.500,86.000 C 173.500,86.500 173.500,86.500 173.500,87.000"></path><path stroke-linecap="round" fill="none" stroke="rgb(33,33,33)" stroke-width="17.480" d="M 173.500,87.000 C 173.500,90.000 173.500,90.000 173.500,93.000"></path><path stroke-linecap="round" fill="none" stroke="rgb(33,33,33)" stroke-width="17.455" d="M 173.500,93.000 C 173.500,94.500 173.624,94.507 173.500,96.000"></path><path stroke-linecap="round" fill="none" stroke="rgb(33,33,33)" stroke-width="13.588" d="M 173.500,96.000 C 173.124,100.507 172.876,100.493 172.500,105.000"></path><path stroke-linecap="round" fill="none" stroke="rgb(33,33,33)" stroke-width="13.944" d="M 172.500,105.000 C 172.376,106.493 172.500,106.500 172.500,108.000"></path><path stroke-linecap="round" fill="none" stroke="rgb(33,33,33)" stroke-width="13.990" d="M 172.500,108.000 C 172.500,109.500 172.500,109.500 172.500,111.000"></path><path stroke-linecap="round" fill="none" stroke="rgb(33,33,33)" stroke-width="13.492" d="M 172.500,111.000 C 172.500,113.500 172.500,113.500 172.500,116.000"></path><path stroke-linecap="round" fill="none" stroke="rgb(33,33,33)" stroke-width="13.201" d="M 172.500,116.000 C 172.500,119.000 172.500,119.000 172.500,122.000"></path><path stroke-linecap="round" fill="none" stroke="rgb(33,33,33)" stroke-width="12.897" d="M 172.500,122.000 C 172.500,124.500 172.500,124.500 172.500,127.000"></path><path stroke-linecap="round" fill="none" stroke="rgb(33,33,33)" stroke-width="13.298" d="M 172.500,127.000 C 172.500,128.500 172.315,128.518 172.500,130.000"></path><path stroke-linecap="round" fill="none" stroke="rgb(33,33,33)" stroke-width="12.949" d="M 172.500,130.000 C 172.815,132.518 173.185,132.482 173.500,135.000"></path><path stroke-linecap="round" fill="none" stroke="rgb(33,33,33)" stroke-width="13.342" d="M 173.500,135.000 C 173.685,136.482 173.257,136.540 173.500,138.000"></path><path stroke-linecap="round" fill="none" stroke="rgb(33,33,33)" stroke-width="13.459" d="M 173.500,138.000 C 173.757,139.540 174.243,139.460 174.500,141.000"></path><path stroke-linecap="round" fill="none" stroke="rgb(33,33,33)" stroke-width="13.695" d="M 174.500,141.000 C 174.743,142.460 174.500,142.500 174.500,144.000"></path><path stroke-linecap="round" fill="none" stroke="rgb(33,33,33)" stroke-width="14.383" d="M 174.500,144.000 C 174.500,144.500 174.500,145.000 174.500,145.000"></path><path stroke-linecap="round" fill="none" stroke="rgb(33,33,33)" stroke-width="15.236" d="M 174.500,145.000 C 174.500,145.000 174.655,144.464 174.500,144.000"></path><path stroke-linecap="round" fill="none" stroke="rgb(33,33,33)" stroke-width="15.258" d="M 174.500,144.000 C 174.155,142.964 173.845,143.036 173.500,142.000"></path><path stroke-linecap="round" fill="none" stroke="rgb(33,33,33)" stroke-width="15.772" d="M 173.500,142.000 C 173.345,141.536 173.809,141.309 173.500,141.000"></path><path stroke-linecap="round" fill="none" stroke="rgb(33,33,33)" stroke-width="15.685" d="M 173.500,141.000 C 172.809,140.309 172.250,140.750 171.500,140.000"></path><path stroke-linecap="round" fill="none" stroke="rgb(33,33,33)" stroke-width="15.901" d="M 171.500,140.000 C 170.750,139.250 171.162,138.883 170.500,138.000"></path><path stroke-linecap="round" fill="none" stroke="rgb(33,33,33)" stroke-width="15.204" d="M 170.500,138.000 C 169.662,136.883 169.317,137.143 168.500,136.000"></path><path stroke-linecap="round" fill="none" stroke="rgb(33,33,33)" stroke-width="14.651" d="M 168.500,136.000 C 166.817,133.643 167.115,133.423 165.500,131.000"></path><path stroke-linecap="round" fill="none" stroke="rgb(33,33,33)" stroke-width="13.753" d="M 165.500,131.000 C 164.115,128.923 164.142,128.877 162.500,127.000"></path><path stroke-linecap="round" fill="none" stroke="rgb(33,33,33)" stroke-width="13.328" d="M 162.500,127.000 C 160.642,124.877 160.285,125.182 158.500,123.000"></path><path stroke-linecap="round" fill="none" stroke="rgb(33,33,33)" stroke-width="12.604" d="M 158.500,123.000 C 155.785,119.682 156.396,119.137 153.500,116.000"></path><path stroke-linecap="round" fill="none" stroke="rgb(33,33,33)" stroke-width="11.580" d="M 153.500,116.000 C 150.396,112.637 149.292,113.553 146.500,110.000"></path><path stroke-linecap="round" fill="none" stroke="rgb(33,33,33)" stroke-width="11.264" d="M 146.500,110.000 C 143.792,106.553 145.013,105.630 142.500,102.000"></path><path stroke-linecap="round" fill="none" stroke="rgb(33,33,33)" stroke-width="11.004" d="M 142.500,102.000 C 140.513,99.130 140.240,99.192 137.500,97.000"></path><path stroke-linecap="round" fill="none" stroke="rgb(33,33,33)" stroke-width="11.139" d="M 137.500,97.000 C 135.240,95.192 135.000,95.500 132.500,94.000"></path><path stroke-linecap="round" fill="none" stroke="rgb(33,33,33)" stroke-width="11.249" d="M 132.500,94.000 C 130.000,92.500 129.668,92.807 127.500,91.000"></path><path stroke-linecap="round" fill="none" stroke="rgb(33,33,33)" stroke-width="11.984" d="M 127.500,91.000 C 126.668,90.307 127.250,89.750 126.500,89.000"></path><path stroke-linecap="round" fill="none" stroke="rgb(33,33,33)" stroke-width="12.533" d="M 126.500,89.000 C 125.750,88.250 125.556,88.264 124.500,88.000"></path><path stroke-linecap="round" fill="none" stroke="rgb(33,33,33)" stroke-width="13.547" d="M 124.500,88.000 C 123.556,87.764 123.500,88.000 122.500,88.000"></path><path stroke-linecap="round" fill="none" stroke="rgb(33,33,33)" stroke-width="14.253" d="M 122.500,88.000 C 122.000,88.000 121.981,88.120 121.500,88.000"></path><path stroke-linecap="round" fill="none" stroke="rgb(33,33,33)" stroke-width="14.191" d="M 121.500,88.000 C 119.981,87.620 120.031,87.383 118.500,87.000"></path><path stroke-linecap="round" fill="none" stroke="rgb(33,33,33)" stroke-width="13.918" d="M 118.500,87.000 C 116.031,86.383 116.022,86.360 113.500,86.000"></path><path stroke-linecap="round" fill="none" stroke="rgb(33,33,33)" stroke-width="12.938" d="M 113.500,86.000 C 109.022,85.360 109.008,85.347 104.500,85.000"></path><path stroke-linecap="round" fill="none" stroke="rgb(33,33,33)" stroke-width="12.772" d="M 104.500,85.000 C 102.508,84.847 102.500,85.000 100.500,85.000"></path><path stroke-linecap="round" fill="none" stroke="rgb(33,33,33)" stroke-width="12.709" d="M 100.500,85.000 C 98.000,85.000 97.966,85.274 95.500,85.000"></path><path stroke-linecap="round" fill="none" stroke="rgb(33,33,33)" stroke-width="12.928" d="M 95.500,85.000 C 93.466,84.774 93.526,84.289 91.500,84.000"></path><path stroke-linecap="round" fill="none" stroke="rgb(33,33,33)" stroke-width="13.160" d="M 91.500,84.000 C 90.026,83.789 90.000,84.000 88.500,84.000"></path><path stroke-linecap="round" fill="none" stroke="rgb(33,33,33)" stroke-width="13.725" d="M 88.500,84.000 C 87.500,84.000 86.500,84.000 86.500,84.000"></path><path stroke-linecap="round" fill="none" stroke="rgb(33,33,33)" stroke-width="14.538" d="M 86.500,84.000 C 86.500,84.000 87.500,84.000 88.500,84.000"></path><path stroke-linecap="round" fill="none" stroke="rgb(33,33,33)" stroke-width="14.175" d="M 88.500,84.000 C 90.500,84.000 90.500,84.000 92.500,84.000"></path><path stroke-linecap="round" fill="none" stroke="rgb(33,33,33)" stroke-width="13.774" d="M 92.500,84.000 C 96.000,84.000 96.000,84.000 99.500,84.000"></path><path stroke-linecap="round" fill="none" stroke="rgb(33,33,33)" stroke-width="11.664" d="M 99.500,84.000 C 104.000,84.000 104.000,84.000 108.500,84.000"></path><path stroke-linecap="round" fill="none" stroke="rgb(33,33,33)" stroke-width="10.953" d="M 108.500,84.000 C 115.000,84.000 115.010,83.750 121.500,84.000"></path><path stroke-linecap="round" fill="none" stroke="rgb(33,33,33)" stroke-width="9.870" d="M 121.500,84.000 C 128.010,84.250 128.024,84.280 134.500,85.000"></path><path stroke-linecap="round" fill="none" stroke="rgb(33,33,33)" stroke-width="9.019" d="M 134.500,85.000 C 141.524,85.780 141.474,86.247 148.500,87.000"></path><path stroke-linecap="round" fill="none" stroke="rgb(33,33,33)" stroke-width="8.627" d="M 148.500,87.000 C 155.474,87.747 155.499,87.517 162.500,88.000"></path><path stroke-linecap="round" fill="none" stroke="rgb(33,33,33)" stroke-width="8.253" d="M 162.500,88.000 C 169.999,88.517 170.000,88.500 177.500,89.000"></path><path stroke-linecap="round" fill="none" stroke="rgb(33,33,33)" stroke-width="8.110" d="M 177.500,89.000 C 185.000,89.500 184.991,89.687 192.500,90.000"></path><path stroke-linecap="round" fill="none" stroke="rgb(33,33,33)" stroke-width="7.758" d="M 192.500,90.000 C 208.991,90.687 208.998,90.656 225.500,91.000"></path><path stroke-linecap="round" fill="none" stroke="rgb(33,33,33)" stroke-width="7.604" d="M 225.500,91.000 C 232.998,91.156 233.000,91.000 240.500,91.000"></path><path stroke-linecap="round" fill="none" stroke="rgb(33,33,33)" stroke-width="6.750" d="M 240.500,91.000 C 258.000,91.000 258.000,91.000 275.500,91.000"></path><path stroke-linecap="round" fill="none" stroke="rgb(33,33,33)" stroke-width="6.750" d="M 275.500,91.000 C 279.000,91.000 279.000,91.000 282.500,91.000"></path><path stroke-linecap="round" fill="none" stroke="rgb(33,33,33)" stroke-width="7.324" d="M 282.500,91.000 C 285.500,91.000 285.929,90.571 288.500,91.000"></path><path stroke-linecap="round" fill="none" stroke="rgb(33,33,33)" stroke-width="8.386" d="M 288.500,91.000 C 288.929,91.071 288.860,91.760 288.500,92.000"></path><path stroke-linecap="round" fill="none" stroke="rgb(33,33,33)" stroke-width="9.442" d="M 288.500,92.000 C 287.360,92.760 287.040,92.743 285.500,93.000"></path><path stroke-linecap="round" fill="none" stroke="rgb(33,33,33)" stroke-width="10.354" d="M 285.500,93.000 C 284.040,93.243 284.000,93.000 282.500,93.000"></path><path stroke-linecap="round" fill="none" stroke="rgb(33,33,33)" stroke-width="11.008" d="M 282.500,93.000 C 281.000,93.000 280.986,92.835 279.500,93.000"></path><path stroke-linecap="round" fill="none" stroke="rgb(33,33,33)" stroke-width="11.207" d="M 279.500,93.000 C 276.486,93.335 276.529,93.776 273.500,94.000"></path><path stroke-linecap="round" fill="none" stroke="rgb(33,33,33)" stroke-width="9.015" d="M 273.500,94.000 C 263.029,94.776 262.945,94.021 252.500,95.000"></path><path stroke-linecap="round" fill="none" stroke="rgb(33,33,33)" stroke-width="8.895" d="M 252.500,95.000 C 246.945,95.521 247.007,96.042 241.500,97.000"></path><path stroke-linecap="round" fill="none" stroke="rgb(33,33,33)" stroke-width="8.709" d="M 241.500,97.000 C 235.507,98.042 235.450,97.760 229.500,99.000"></path><path stroke-linecap="round" fill="none" stroke="rgb(33,33,33)" stroke-width="8.672" d="M 229.500,99.000 C 223.450,100.260 223.540,100.687 217.500,102.000"></path><path stroke-linecap="round" fill="none" stroke="rgb(33,33,33)" stroke-width="8.482" d="M 217.500,102.000 C 212.040,103.187 212.014,103.081 206.500,104.000"></path><path stroke-linecap="round" fill="none" stroke="rgb(33,33,33)" stroke-width="8.429" d="M 206.500,104.000 C 200.014,105.081 199.967,104.824 193.500,106.000"></path><path stroke-linecap="round" fill="none" stroke="rgb(33,33,33)" stroke-width="8.490" d="M 193.500,106.000 C 188.967,106.824 188.927,106.735 184.500,108.000"></path><path stroke-linecap="round" fill="none" stroke="rgb(33,33,33)" stroke-width="8.475" d="M 184.500,108.000 C 178.427,109.735 178.469,109.911 172.500,112.000"></path><path stroke-linecap="round" fill="none" stroke="rgb(33,33,33)" stroke-width="8.597" d="M 172.500,112.000 C 168.469,113.411 168.528,113.578 164.500,115.000"></path><path stroke-linecap="round" fill="none" stroke="rgb(33,33,33)" stroke-width="8.823" d="M 164.500,115.000 C 160.028,116.578 159.938,116.336 155.500,118.000"></path><path stroke-linecap="round" fill="none" stroke="rgb(33,33,33)" stroke-width="8.985" d="M 155.500,118.000 C 151.938,119.336 152.000,119.500 148.500,121.000"></path><path stroke-linecap="round" fill="none" stroke="rgb(33,33,33)" stroke-width="9.322" d="M 148.500,121.000 C 145.000,122.500 144.949,122.390 141.500,124.000"></path><path stroke-linecap="round" fill="none" stroke="rgb(33,33,33)" stroke-width="9.232" d="M 141.500,124.000 C 137.449,125.890 137.323,125.706 133.500,128.000"></path><path stroke-linecap="round" fill="none" stroke="rgb(33,33,33)" stroke-width="9.522" d="M 133.500,128.000 C 129.823,130.206 130.152,130.753 126.500,133.000"></path><path stroke-linecap="round" fill="none" stroke="rgb(33,33,33)" stroke-width="9.529" d="M 126.500,133.000 C 123.652,134.753 123.392,134.313 120.500,136.000"></path><path stroke-linecap="round" fill="none" stroke="rgb(33,33,33)" stroke-width="9.970" d="M 120.500,136.000 C 117.392,137.813 117.541,138.065 114.500,140.000"></path><path stroke-linecap="round" fill="none" stroke="rgb(33,33,33)" stroke-width="9.839" d="M 114.500,140.000 C 112.041,141.565 112.047,141.585 109.500,143.000"></path><path stroke-linecap="round" fill="none" stroke="rgb(33,33,33)" stroke-width="10.341" d="M 109.500,143.000 C 107.547,144.085 107.161,143.616 105.500,145.000"></path><path stroke-linecap="round" fill="none" stroke="rgb(33,33,33)" stroke-width="10.906" d="M 105.500,145.000 C 104.161,146.116 103.500,147.035 103.500,148.000"></path><path stroke-linecap="round" fill="none" stroke="rgb(33,33,33)" stroke-width="11.849" d="M 103.500,148.000 C 103.500,148.535 104.520,147.837 105.500,148.000"></path><path stroke-linecap="round" fill="none" stroke="rgb(33,33,33)" stroke-width="12.018" d="M 105.500,148.000 C 107.520,148.337 107.511,148.458 109.500,149.000"></path><path stroke-linecap="round" fill="none" stroke="rgb(33,33,33)" stroke-width="11.705" d="M 109.500,149.000 C 113.011,149.958 112.893,150.576 116.500,151.000"></path><path stroke-linecap="round" fill="none" stroke="rgb(33,33,33)" stroke-width="7.532" d="M 116.500,151.000 C 138.393,153.576 138.466,153.569 160.500,155.000"></path><path stroke-linecap="round" fill="none" stroke="rgb(33,33,33)" stroke-width="6.750" d="M 160.500,155.000 C 176.966,156.069 177.007,155.322 193.500,156.000"></path><path stroke-linecap="round" fill="none" stroke="rgb(33,33,33)" stroke-width="6.750" d="M 193.500,156.000 C 213.507,156.822 213.496,157.080 233.500,158.000"></path><path stroke-linecap="round" fill="none" stroke="rgb(33,33,33)" stroke-width="6.750" d="M 233.500,158.000 C 256.996,159.080 257.000,159.011 280.500,160.000"></path><path stroke-linecap="round" fill="none" stroke="rgb(33,33,33)" stroke-width="6.750" d="M 280.500,160.000 C 304.500,161.011 304.527,160.547 328.500,162.000"></path><path stroke-linecap="round" fill="none" stroke="rgb(33,33,33)" stroke-width="6.750" d="M 328.500,162.000 C 354.027,163.547 353.971,164.483 379.500,166.000"></path><path stroke-linecap="round" fill="none" stroke="rgb(33,33,33)" stroke-width="6.750" d="M 379.500,166.000 C 404.471,167.483 404.529,166.517 429.500,168.000"></path><path stroke-linecap="round" fill="none" stroke="rgb(33,33,33)" stroke-width="6.750" d="M 429.500,168.000 C 455.029,169.517 455.002,169.980 480.500,172.000"></path><path stroke-linecap="round" fill="none" stroke="rgb(33,33,33)" stroke-width="6.750" d="M 480.500,172.000 C 505.502,173.980 505.465,174.682 530.500,176.000"></path><path stroke-linecap="round" fill="none" stroke="rgb(33,33,33)" stroke-width="6.750" d="M 530.500,176.000 C 552.965,177.182 553.045,175.724 575.500,177.000"></path><path stroke-linecap="round" fill="none" stroke="rgb(33,33,33)" stroke-width="6.750" d="M 575.500,177.000 C 597.045,178.224 596.958,179.909 618.500,181.000"></path><path stroke-linecap="round" fill="none" stroke="rgb(33,33,33)" stroke-width="6.750" d="M 618.500,181.000 C 636.458,181.909 636.519,180.447 654.500,181.000"></path><path stroke-linecap="round" fill="none" stroke="rgb(33,33,33)" stroke-width="6.750" d="M 654.500,181.000 C 669.019,181.447 668.988,182.355 683.500,183.000"></path><path stroke-linecap="round" fill="none" stroke="rgb(33,33,33)" stroke-width="6.750" d="M 683.500,183.000 C 691.488,183.355 691.500,183.000 699.500,183.000"></path><path stroke-linecap="round" fill="none" stroke="rgb(33,33,33)" stroke-width="6.750" d="M 699.500,183.000 C 706.000,183.000 706.464,183.464 712.500,183.000"></path><path stroke-linecap="round" fill="none" stroke="rgb(33,33,33)" stroke-width="6.750" d="M 712.500,183.000 C 712.964,182.964 712.916,182.243 712.500,182.000"></path><path stroke-linecap="round" fill="none" stroke="rgb(33,33,33)" stroke-width="6.750" d="M 712.500,182.000 C 706.916,178.743 706.883,177.702 700.500,176.000"></path><path stroke-linecap="round" fill="none" stroke="rgb(33,33,33)" stroke-width="6.750" d="M 700.500,176.000 C 691.883,173.702 691.536,174.348 682.500,174.000"></path><path stroke-linecap="round" fill="none" stroke="rgb(33,33,33)" stroke-width="6.750" d="M 682.500,174.000 C 665.536,173.348 665.496,174.323 648.500,174.000"></path><path stroke-linecap="round" fill="none" stroke="rgb(33,33,33)" stroke-width="6.750" d="M 648.500,174.000 C 586.496,172.823 586.506,171.964 524.500,171.000"></path><path stroke-linecap="round" fill="none" stroke="rgb(33,33,33)" stroke-width="6.750" d="M 524.500,171.000 C 490.006,170.464 489.998,170.700 455.500,171.000"></path><path stroke-linecap="round" fill="none" stroke="rgb(33,33,33)" stroke-width="6.750" d="M 455.500,171.000 C 374.998,171.700 375.002,172.271 294.500,173.000"></path><path stroke-linecap="round" fill="none" stroke="rgb(33,33,33)" stroke-width="6.750" d="M 294.500,173.000 C 264.502,173.271 264.500,173.000 234.500,173.000"></path><path stroke-linecap="round" fill="none" stroke="rgb(33,33,33)" stroke-width="6.750" d="M 234.500,173.000 C 209.500,173.000 209.500,173.000 184.500,173.000"></path><path stroke-linecap="round" fill="none" stroke="rgb(33,33,33)" stroke-width="6.750" d="M 184.500,173.000 C 169.000,173.000 169.000,173.000 153.500,173.000"></path><path stroke-linecap="round" fill="none" stroke="rgb(33,33,33)" stroke-width="6.750" d="M 153.500,173.000 C 143.500,173.000 143.500,173.000 133.500,173.000"></path><path stroke-linecap="round" fill="none" stroke="rgb(33,33,33)" stroke-width="6.750" d="M 133.500,173.000 C 132.000,173.000 131.974,173.211 130.500,173.000"></path><path stroke-linecap="round" fill="none" stroke="rgb(33,33,33)" stroke-width="6.750" d="M 130.500,173.000 C 128.474,172.711 128.110,172.805 126.500,172.000"></path><path stroke-linecap="round" fill="none" stroke="rgb(33,33,33)" stroke-width="6.750" d="M 126.500,172.000 C 126.110,171.805 126.052,171.099 126.500,171.000"></path><path stroke-linecap="round" fill="none" stroke="rgb(33,33,33)" stroke-width="6.750" d="M 126.500,171.000 C 130.552,170.099 131.008,170.562 135.500,170.000"></path><path stroke-linecap="round" fill="none" stroke="rgb(33,33,33)" stroke-width="6.750" d="M 135.500,170.000 C 143.008,169.062 142.965,168.641 150.500,168.000"></path><path stroke-linecap="round" fill="none" stroke="rgb(33,33,33)" stroke-width="6.750" d="M 150.500,168.000 C 166.465,166.641 166.505,167.081 182.500,166.000"></path><path stroke-linecap="round" fill="none" stroke="rgb(33,33,33)" stroke-width="6.750" d="M 182.500,166.000 C 203.505,164.581 203.502,164.531 224.500,163.000"></path><path stroke-linecap="round" fill="none" stroke="rgb(33,33,33)" stroke-width="6.750" d="M 224.500,163.000 C 251.502,161.031 251.495,160.929 278.500,159.000"></path><path stroke-linecap="round" fill="none" stroke="rgb(33,33,33)" stroke-width="6.750" d="M 278.500,159.000 C 307.495,156.929 307.534,157.414 336.500,155.000"></path><path stroke-linecap="round" fill="none" stroke="rgb(33,33,33)" stroke-width="6.750" d="M 336.500,155.000 C 367.534,152.414 367.532,152.300 398.500,149.000"></path><path stroke-linecap="round" fill="none" stroke="rgb(33,33,33)" stroke-width="6.750" d="M 398.500,149.000 C 428.532,145.800 428.558,145.940 458.500,142.000"></path><path stroke-linecap="round" fill="none" stroke="rgb(33,33,33)" stroke-width="6.750" d="M 458.500,142.000 C 485.558,138.440 485.450,137.625 512.500,134.000"></path><path stroke-linecap="round" fill="none" stroke="rgb(33,33,33)" stroke-width="6.750" d="M 512.500,134.000 C 533.950,131.125 534.049,131.860 555.500,129.000"></path><path stroke-linecap="round" fill="none" stroke="rgb(33,33,33)" stroke-width="6.750" d="M 555.500,129.000 C 571.549,126.860 571.488,126.417 587.500,124.000"></path><path stroke-linecap="round" fill="none" stroke="rgb(33,33,33)" stroke-width="6.750" d="M 587.500,124.000 C 597.988,122.417 598.014,122.589 608.500,121.000"></path><path stroke-linecap="round" fill="none" stroke="rgb(33,33,33)" stroke-width="6.750" d="M 608.500,121.000 C 614.514,120.089 615.573,120.344 620.500,119.000"></path><path stroke-linecap="round" fill="none" stroke="rgb(33,33,33)" stroke-width="6.750" d="M 620.500,119.000 C 621.073,118.844 620.086,118.293 619.500,118.000"></path><path stroke-linecap="round" fill="none" stroke="rgb(33,33,33)" stroke-width="6.750" d="M 619.500,118.000 C 619.086,117.793 619.000,118.000 618.500,118.000"></path><path stroke-linecap="round" fill="none" stroke="rgb(33,33,33)" stroke-width="6.750" d="M 618.500,118.000 C 617.000,118.000 616.997,118.083 615.500,118.000"></path><path stroke-linecap="round" fill="none" stroke="rgb(33,33,33)" stroke-width="6.750" d="M 615.500,118.000 C 607.997,117.583 608.007,117.278 600.500,117.000"></path><path stroke-linecap="round" fill="none" stroke="rgb(33,33,33)" stroke-width="6.750" d="M 600.500,117.000 C 594.507,116.778 594.500,117.000 588.500,117.000"></path><path stroke-linecap="round" fill="none" stroke="rgb(33,33,33)" stroke-width="6.750" d="M 588.500,117.000 C 581.000,117.000 581.000,117.000 573.500,117.000"></path><path stroke-linecap="round" fill="none" stroke="rgb(33,33,33)" stroke-width="6.750" d="M 573.500,117.000 C 563.000,117.000 562.982,116.544 552.500,117.000"></path><path stroke-linecap="round" fill="none" stroke="rgb(33,33,33)" stroke-width="6.750" d="M 552.500,117.000 C 539.982,117.544 540.017,118.305 527.500,119.000"></path><path stroke-linecap="round" fill="none" stroke="rgb(33,33,33)" stroke-width="6.750" d="M 527.500,119.000 C 513.017,119.805 513.004,119.758 498.500,120.000"></path><path stroke-linecap="round" fill="none" stroke="rgb(33,33,33)" stroke-width="6.750" d="M 498.500,120.000 C 483.004,120.258 482.981,119.475 467.500,120.000"></path><path stroke-linecap="round" fill="none" stroke="rgb(33,33,33)" stroke-width="6.750" d="M 467.500,120.000 C 453.481,120.475 453.512,121.222 439.500,122.000"></path><path stroke-linecap="round" fill="none" stroke="rgb(33,33,33)" stroke-width="6.750" d="M 439.500,122.000 C 426.512,122.722 426.476,122.154 413.500,123.000"></path><path stroke-linecap="round" fill="none" stroke="rgb(33,33,33)" stroke-width="6.750" d="M 413.500,123.000 C 403.476,123.654 403.510,124.117 393.500,125.000"></path><path stroke-linecap="round" fill="none" stroke="rgb(33,33,33)" stroke-width="6.750" d="M 393.500,125.000 C 386.510,125.617 386.507,125.695 379.500,126.000"></path><path stroke-linecap="round" fill="none" stroke="rgb(33,33,33)" stroke-width="6.750" d="M 379.500,126.000 C 375.007,126.195 375.000,126.000 370.500,126.000"></path><path stroke-linecap="round" fill="none" stroke="rgb(33,33,33)" stroke-width="6.750" d="M 370.500,126.000 C 367.000,126.000 362.922,126.963 363.500,126.000"></path><path stroke-linecap="round" fill="none" stroke="rgb(33,33,33)" stroke-width="7.197" d="M 363.500,126.000 C 364.422,124.463 368.561,123.615 373.500,121.000"></path><path stroke-linecap="round" fill="none" stroke="rgb(33,33,33)" stroke-width="7.553" d="M 373.500,121.000 C 377.061,119.115 376.859,118.699 380.500,117.000"></path><path stroke-linecap="round" fill="none" stroke="rgb(33,33,33)" stroke-width="7.989" d="M 380.500,117.000 C 384.359,115.199 384.535,115.586 388.500,114.000"></path><path stroke-linecap="round" fill="none" stroke="rgb(33,33,33)" stroke-width="8.281" d="M 388.500,114.000 C 392.035,112.586 392.102,112.699 395.500,111.000"></path><path stroke-linecap="round" fill="none" stroke="rgb(33,33,33)" stroke-width="8.796" d="M 395.500,111.000 C 398.102,109.699 398.028,109.545 400.500,108.000"></path><path stroke-linecap="round" fill="none" stroke="rgb(33,33,33)" stroke-width="9.499" d="M 400.500,108.000 C 402.028,107.045 401.892,106.804 403.500,106.000"></path><path stroke-linecap="round" fill="none" stroke="rgb(33,33,33)" stroke-width="9.532" d="M 403.500,106.000 C 407.892,103.804 408.227,104.331 412.500,102.000"></path></svg>