<svg xmlns="http://www.w3.org/2000/svg" xmlns:xlink="http://www.w3.org/1999/xlink" viewBox="0 0 800 500"><path d="M 371.500,146.000 C 371.500,146.500 371.750,146.750 371.500,147.000" stroke-width="19.688" stroke="rgb(33,33,33)" fill="none" stroke-linecap="round"></path><path d="M 371.500,147.000 C 371.250,147.250 371.000,147.000 370.500,147.000" stroke-width="19.377" stroke="rgb(33,33,33)" fill="none" stroke-linecap="round"></path><path d="M 370.500,147.000 C 370.500,147.000 370.500,147.000 370.500,147.000" stroke-width="19.545" stroke="rgb(33,33,33)" fill="none" stroke-linecap="round"></path><path d="M 370.500,147.000 C 370.000,147.500 370.000,147.500 369.500,148.000" stroke-width="19.099" stroke="rgb(33,33,33)" fill="none" stroke-linecap="round"></path><path d="M 369.500,148.000 C 369.500,148.000 369.500,148.000 369.500,148.000" stroke-width="19.318" stroke="rgb(33,33,33)" fill="none" stroke-linecap="round"></path><path d="M 369.500,148.000 C 369.000,148.500 369.000,148.500 368.500,149.000" stroke-width="18.768" stroke="rgb(33,33,33)" fill="none" stroke-linecap="round"></path><path d="M 368.500,149.000 C 368.000,149.500 368.000,149.500 367.500,150.000" stroke-width="18.500" stroke="rgb(33,33,33)" fill="none" stroke-linecap="round"></path><path d="M 367.500,150.000 C 367.000,150.500 367.000,150.500 366.500,151.000" stroke-width="18.226" stroke="rgb(33,33,33)" fill="none" stroke-linecap="round"></path><path d="M 366.500,151.000 C 366.000,151.500 366.081,151.613 365.500,152.000" stroke-width="18.076" stroke="rgb(33,33,33)" fill="none" stroke-linecap="round"></path><path d="M 365.500,152.000 C 364.581,152.613 364.383,152.338 363.500,153.000" stroke-width="17.455" stroke="rgb(33,33,33)" fill="none" stroke-linecap="round"></path><path d="M 363.500,153.000 C 362.383,153.838 362.338,153.883 361.500,155.000" stroke-width="16.892" stroke="rgb(33,33,33)" fill="none" stroke-linecap="round"></path><path d="M 361.500,155.000 C 360.838,155.883 361.328,156.379 360.500,157.000" stroke-width="16.668" stroke="rgb(33,33,33)" fill="none" stroke-linecap="round"></path><path d="M 360.500,157.000 C 359.328,157.879 358.820,157.208 357.500,158.000" stroke-width="16.187" stroke="rgb(33,33,33)" fill="none" stroke-linecap="round"></path><path d="M 357.500,158.000 C 356.320,158.708 356.599,159.121 355.500,160.000" stroke-width="15.926" stroke="rgb(33,33,33)" fill="none" stroke-linecap="round"></path><path d="M 355.500,160.000 C 354.099,161.121 353.966,160.953 352.500,162.000" stroke-width="15.489" stroke="rgb(33,33,33)" fill="none" stroke-linecap="round"></path><path d="M 352.500,162.000 C 350.466,163.453 350.611,163.680 348.500,165.000" stroke-width="14.336" stroke="rgb(33,33,33)" fill="none" stroke-linecap="round"></path><path d="M 348.500,165.000 C 346.611,166.180 346.389,165.820 344.500,167.000" stroke-width="14.167" stroke="rgb(33,33,33)" fill="none" stroke-linecap="round"></path><path d="M 344.500,167.000 C 342.389,168.320 342.500,168.500 340.500,170.000" stroke-width="13.624" stroke="rgb(33,33,33)" fill="none" stroke-linecap="round"></path><path d="M 340.500,170.000 C 338.500,171.500 338.667,171.796 336.500,173.000" stroke-width="13.498" stroke="rgb(33,33,33)" fill="none" stroke-linecap="round"></path><path d="M 336.500,173.000 C 334.167,174.296 333.901,173.800 331.500,175.000" stroke-width="13.194" stroke="rgb(33,33,33)" fill="none" stroke-linecap="round"></path><path d="M 331.500,175.000 C 328.901,176.300 329.058,176.605 326.500,178.000" stroke-width="12.700" stroke="rgb(33,33,33)" fill="none" stroke-linecap="round"></path><path d="M 326.500,178.000 C 323.558,179.605 323.427,179.374 320.500,181.000" stroke-width="12.323" stroke="rgb(33,33,33)" fill="none" stroke-linecap="round"></path><path d="M 320.500,181.000 C 318.927,181.874 319.073,182.126 317.500,183.000" stroke-width="12.619" stroke="rgb(33,33,33)" fill="none" stroke-linecap="round"></path><path d="M 317.500,183.000 C 314.573,184.626 314.558,184.641 311.500,186.000" stroke-width="12.262" stroke="rgb(33,33,33)" fill="none" stroke-linecap="round"></path><path d="M 311.500,186.000 C 310.058,186.641 310.019,186.566 308.500,187.000" stroke-width="12.654" stroke="rgb(33,33,33)" fill="none" stroke-linecap="round"></path><path d="M 308.500,187.000 C 306.519,187.566 306.451,187.350 304.500,188.000" stroke-width="12.883" stroke="rgb(33,33,33)" fill="none" stroke-linecap="round"></path><path d="M 304.500,188.000 C 301.951,188.850 302.020,189.055 299.500,190.000" stroke-width="12.567" stroke="rgb(33,33,33)" fill="none" stroke-linecap="round"></path><path d="M 299.500,190.000 C 298.020,190.555 298.040,190.743 296.500,191.000" stroke-width="12.986" stroke="rgb(33,33,33)" fill="none" stroke-linecap="round"></path><path d="M 296.500,191.000 C 295.040,191.243 295.000,191.000 293.500,191.000" stroke-width="13.208" stroke="rgb(33,33,33)" fill="none" stroke-linecap="round"></path><path d="M 293.500,191.000 C 291.500,191.000 291.500,191.000 289.500,191.000" stroke-width="13.441" stroke="rgb(33,33,33)" fill="none" stroke-linecap="round"></path><path d="M 289.500,191.000 C 287.500,191.000 287.500,191.000 285.500,191.000" stroke-width="13.162" stroke="rgb(33,33,33)" fill="none" stroke-linecap="round"></path><path d="M 285.500,191.000 C 284.000,191.000 284.000,191.000 282.500,191.000" stroke-width="13.633" stroke="rgb(33,33,33)" fill="none" stroke-linecap="round"></path><path d="M 282.500,191.000 C 280.500,191.000 280.500,191.000 278.500,191.000" stroke-width="13.308" stroke="rgb(33,33,33)" fill="none" stroke-linecap="round"></path><path d="M 278.500,191.000 C 275.500,191.000 275.500,191.000 272.500,191.000" stroke-width="13.059" stroke="rgb(33,33,33)" fill="none" stroke-linecap="round"></path><path d="M 272.500,191.000 C 270.000,191.000 269.990,191.178 267.500,191.000" stroke-width="12.935" stroke="rgb(33,33,33)" fill="none" stroke-linecap="round"></path><path d="M 267.500,191.000 C 262.990,190.678 263.011,190.301 258.500,190.000" stroke-width="12.062" stroke="rgb(33,33,33)" fill="none" stroke-linecap="round"></path><path d="M 258.500,190.000 C 255.511,189.801 255.500,190.000 252.500,190.000" stroke-width="11.961" stroke="rgb(33,33,33)" fill="none" stroke-linecap="round"></path><path d="M 252.500,190.000 C 248.000,190.000 248.000,190.000 243.500,190.000" stroke-width="11.542" stroke="rgb(33,33,33)" fill="none" stroke-linecap="round"></path><path d="M 243.500,190.000 C 240.500,190.000 240.489,190.199 237.500,190.000" stroke-width="11.409" stroke="rgb(33,33,33)" fill="none" stroke-linecap="round"></path><path d="M 237.500,190.000 C 232.989,189.699 233.011,189.301 228.500,189.000" stroke-width="10.779" stroke="rgb(33,33,33)" fill="none" stroke-linecap="round"></path><path d="M 228.500,189.000 C 225.511,188.801 225.500,189.000 222.500,189.000" stroke-width="10.928" stroke="rgb(33,33,33)" fill="none" stroke-linecap="round"></path><path d="M 222.500,189.000 C 219.500,189.000 219.500,189.000 216.500,189.000" stroke-width="11.051" stroke="rgb(33,33,33)" fill="none" stroke-linecap="round"></path><path d="M 216.500,189.000 C 214.500,189.000 214.500,189.000 212.500,189.000" stroke-width="11.467" stroke="rgb(33,33,33)" fill="none" stroke-linecap="round"></path><path d="M 212.500,189.000 C 210.500,189.000 210.500,189.000 208.500,189.000" stroke-width="11.726" stroke="rgb(33,33,33)" fill="none" stroke-linecap="round"></path><path d="M 208.500,189.000 C 207.500,189.000 207.500,189.000 206.500,189.000" stroke-width="12.411" stroke="rgb(33,33,33)" fill="none" stroke-linecap="round"></path><path d="M 206.500,189.000 C 205.500,189.000 205.500,189.000 204.500,189.000" stroke-width="13.020" stroke="rgb(33,33,33)" fill="none" stroke-linecap="round"></path><path d="M 204.500,189.000 C 203.500,189.000 203.500,189.000 202.500,189.000" stroke-width="13.552" stroke="rgb(33,33,33)" fill="none" stroke-linecap="round"></path><path d="M 202.500,189.000 C 202.000,189.000 202.000,189.000 201.500,189.000" stroke-width="14.257" stroke="rgb(33,33,33)" fill="none" stroke-linecap="round"></path><path d="M 201.500,189.000 C 201.000,189.000 200.914,189.207 200.500,189.000" stroke-width="14.906" stroke="rgb(33,33,33)" fill="none" stroke-linecap="round"></path><path d="M 200.500,189.000 C 199.914,188.707 200.121,188.207 199.500,188.000" stroke-width="15.257" stroke="rgb(33,33,33)" fill="none" stroke-linecap="round"></path><path d="M 199.500,188.000 C 198.621,187.707 198.167,188.333 197.500,188.000" stroke-width="15.503" stroke="rgb(33,33,33)" fill="none" stroke-linecap="round"></path><path d="M 197.500,188.000 C 197.167,187.833 197.750,187.250 197.500,187.000" stroke-width="15.900" stroke="rgb(33,33,33)" fill="none" stroke-linecap="round"></path><path d="M 197.500,187.000 C 197.250,186.750 196.750,187.250 196.500,187.000" stroke-width="16.346" stroke="rgb(33,33,33)" fill="none" stroke-linecap="round"></path><path d="M 196.500,187.000 C 196.250,186.750 196.707,186.414 196.500,186.000" stroke-width="16.603" stroke="rgb(33,33,33)" fill="none" stroke-linecap="round"></path><path d="M 196.500,186.000 C 196.207,185.414 195.707,185.621 195.500,185.000" stroke-width="16.775" stroke="rgb(33,33,33)" fill="none" stroke-linecap="round"></path><path d="M 195.500,185.000 C 195.207,184.121 195.500,184.000 195.500,183.000" stroke-width="16.560" stroke="rgb(33,33,33)" fill="none" stroke-linecap="round"></path><path d="M 195.500,183.000 C 195.500,182.000 195.500,182.000 195.500,181.000" stroke-width="16.622" stroke="rgb(33,33,33)" fill="none" stroke-linecap="round"></path><path d="M 195.500,181.000 C 195.500,180.000 195.500,180.000 195.500,179.000" stroke-width="16.314" stroke="rgb(33,33,33)" fill="none" stroke-linecap="round"></path><path d="M 195.500,179.000 C 195.500,178.000 195.264,177.944 195.500,177.000" stroke-width="16.423" stroke="rgb(33,33,33)" fill="none" stroke-linecap="round"></path><path d="M 195.500,177.000 C 195.764,175.944 195.926,175.957 196.500,175.000" stroke-width="16.196" stroke="rgb(33,33,33)" fill="none" stroke-linecap="round"></path><path d="M 196.500,175.000 C 197.426,173.457 197.379,173.401 198.500,172.000" stroke-width="15.693" stroke="rgb(33,33,33)" fill="none" stroke-linecap="round"></path><path d="M 198.500,172.000 C 199.379,170.901 199.357,170.817 200.500,170.000" stroke-width="15.541" stroke="rgb(33,33,33)" fill="none" stroke-linecap="round"></path><path d="M 200.500,170.000 C 202.857,168.317 203.117,168.668 205.500,167.000" stroke-width="14.587" stroke="rgb(33,33,33)" fill="none" stroke-linecap="round"></path><path d="M 205.500,167.000 C 208.117,165.168 207.692,164.404 210.500,163.000" stroke-width="13.770" stroke="rgb(33,33,33)" fill="none" stroke-linecap="round"></path><path d="M 210.500,163.000 C 213.692,161.404 214.000,162.000 217.500,161.000" stroke-width="12.780" stroke="rgb(33,33,33)" fill="none" stroke-linecap="round"></path><path d="M 217.500,161.000 C 221.000,160.000 221.000,160.000 224.500,159.000" stroke-width="12.085" stroke="rgb(33,33,33)" fill="none" stroke-linecap="round"></path><path d="M 224.500,159.000 C 228.000,158.000 227.960,157.833 231.500,157.000" stroke-width="11.896" stroke="rgb(33,33,33)" fill="none" stroke-linecap="round"></path><path d="M 231.500,157.000 C 236.460,155.833 236.474,155.838 241.500,155.000" stroke-width="10.927" stroke="rgb(33,33,33)" fill="none" stroke-linecap="round"></path><path d="M 241.500,155.000 C 245.474,154.338 245.500,154.500 249.500,154.000" stroke-width="10.748" stroke="rgb(33,33,33)" fill="none" stroke-linecap="round"></path><path d="M 249.500,154.000 C 253.500,153.500 253.484,153.251 257.500,153.000" stroke-width="10.609" stroke="rgb(33,33,33)" fill="none" stroke-linecap="round"></path><path d="M 257.500,153.000 C 261.484,152.751 261.500,153.000 265.500,153.000" stroke-width="10.508" stroke="rgb(33,33,33)" fill="none" stroke-linecap="round"></path><path d="M 265.500,153.000 C 269.500,153.000 269.500,153.000 273.500,153.000" stroke-width="10.429" stroke="rgb(33,33,33)" fill="none" stroke-linecap="round"></path><path d="M 273.500,153.000 C 276.500,153.000 276.500,153.000 279.500,153.000" stroke-width="10.639" stroke="rgb(33,33,33)" fill="none" stroke-linecap="round"></path><path d="M 279.500,153.000 C 282.000,153.000 282.093,152.519 284.500,153.000" stroke-width="11.043" stroke="rgb(33,33,33)" fill="none" stroke-linecap="round"></path><path d="M 284.500,153.000 C 287.093,153.519 286.932,154.230 289.500,155.000" stroke-width="11.121" stroke="rgb(33,33,33)" fill="none" stroke-linecap="round"></path><path d="M 289.500,155.000 C 291.932,155.730 292.012,155.447 294.500,156.000" stroke-width="11.441" stroke="rgb(33,33,33)" fill="none" stroke-linecap="round"></path><path d="M 294.500,156.000 C 296.512,156.447 296.549,156.350 298.500,157.000" stroke-width="11.679" stroke="rgb(33,33,33)" fill="none" stroke-linecap="round"></path><path d="M 298.500,157.000 C 301.049,157.850 300.918,158.426 303.500,159.000" stroke-width="11.949" stroke="rgb(33,33,33)" fill="none" stroke-linecap="round"></path><path d="M 303.500,159.000 C 305.418,159.426 305.611,158.528 307.500,159.000" stroke-width="12.125" stroke="rgb(33,33,33)" fill="none" stroke-linecap="round"></path><path d="M 307.500,159.000 C 309.611,159.528 309.429,160.172 311.500,161.000" stroke-width="12.382" stroke="rgb(33,33,33)" fill="none" stroke-linecap="round"></path><path d="M 311.500,161.000 C 314.429,162.172 314.571,161.828 317.500,163.000" stroke-width="11.989" stroke="rgb(33,33,33)" fill="none" stroke-linecap="round"></path><path d="M 317.500,163.000 C 319.571,163.828 319.397,164.299 321.500,165.000" stroke-width="12.342" stroke="rgb(33,33,33)" fill="none" stroke-linecap="round"></path><path d="M 321.500,165.000 C 323.897,165.799 324.012,165.447 326.500,166.000" stroke-width="12.036" stroke="rgb(33,33,33)" fill="none" stroke-linecap="round"></path><path d="M 326.500,166.000 C 328.512,166.447 328.549,166.350 330.500,167.000" stroke-width="12.365" stroke="rgb(33,33,33)" fill="none" stroke-linecap="round"></path><path d="M 330.500,167.000 C 333.049,167.850 332.932,168.230 335.500,169.000" stroke-width="12.312" stroke="rgb(33,33,33)" fill="none" stroke-linecap="round"></path><path d="M 335.500,169.000 C 337.932,169.730 338.045,169.330 340.500,170.000" stroke-width="12.323" stroke="rgb(33,33,33)" fill="none" stroke-linecap="round"></path><path d="M 340.500,170.000 C 343.545,170.830 343.478,171.070 346.500,172.000" stroke-width="12.106" stroke="rgb(33,33,33)" fill="none" stroke-linecap="round"></path><path d="M 346.500,172.000 C 349.978,173.070 349.941,173.288 353.500,174.000" stroke-width="11.772" stroke="rgb(33,33,33)" fill="none" stroke-linecap="round"></path><path d="M 353.500,174.000 C 357.441,174.788 357.504,174.467 361.500,175.000" stroke-width="11.210" stroke="rgb(33,33,33)" fill="none" stroke-linecap="round"></path><path d="M 361.500,175.000 C 365.004,175.467 364.989,175.587 368.500,176.000" stroke-width="11.114" stroke="rgb(33,33,33)" fill="none" stroke-linecap="round"></path><path d="M 368.500,176.000 C 373.489,176.587 373.506,176.445 378.500,177.000" stroke-width="10.609" stroke="rgb(33,33,33)" fill="none" stroke-linecap="round"></path><path d="M 378.500,177.000 C 382.506,177.445 382.490,177.599 386.500,178.000" stroke-width="10.345" stroke="rgb(33,33,33)" fill="none" stroke-linecap="round"></path><path d="M 386.500,178.000 C 392.490,178.599 392.502,178.478 398.500,179.000" stroke-width="9.958" stroke="rgb(33,33,33)" fill="none" stroke-linecap="round"></path><path d="M 398.500,179.000 C 404.002,179.478 403.997,179.541 409.500,180.000" stroke-width="9.452" stroke="rgb(33,33,33)" fill="none" stroke-linecap="round"></path><path d="M 409.500,180.000 C 415.997,180.541 416.024,180.280 422.500,181.000" stroke-width="9.041" stroke="rgb(33,33,33)" fill="none" stroke-linecap="round"></path><path d="M 422.500,181.000 C 429.524,181.780 429.469,182.438 436.500,183.000" stroke-width="8.634" stroke="rgb(33,33,33)" fill="none" stroke-linecap="round"></path><path d="M 436.500,183.000 C 441.969,183.438 442.011,182.751 447.500,183.000" stroke-width="8.725" stroke="rgb(33,33,33)" fill="none" stroke-linecap="round"></path><path d="M 447.500,183.000 C 453.011,183.251 452.989,183.738 458.500,184.000" stroke-width="8.681" stroke="rgb(33,33,33)" fill="none" stroke-linecap="round"></path><path d="M 458.500,184.000 C 463.489,184.238 463.512,183.751 468.500,184.000" stroke-width="8.743" stroke="rgb(33,33,33)" fill="none" stroke-linecap="round"></path><path d="M 468.500,184.000 C 473.512,184.251 473.488,184.749 478.500,185.000" stroke-width="8.653" stroke="rgb(33,33,33)" fill="none" stroke-linecap="round"></path><path d="M 478.500,185.000 C 483.488,185.249 483.500,185.000 488.500,185.000" stroke-width="8.912" stroke="rgb(33,33,33)" fill="none" stroke-linecap="round"></path><path d="M 488.500,185.000 C 492.500,185.000 492.500,185.000 496.500,185.000" stroke-width="8.865" stroke="rgb(33,33,33)" fill="none" stroke-linecap="round"></path><path d="M 496.500,185.000 C 500.500,185.000 500.524,184.716 504.500,185.000" stroke-width="9.257" stroke="rgb(33,33,33)" fill="none" stroke-linecap="round"></path><path d="M 504.500,185.000 C 507.524,185.216 507.484,185.698 510.500,186.000" stroke-width="9.407" stroke="rgb(33,33,33)" fill="none" stroke-linecap="round"></path><path d="M 510.500,186.000 C 512.484,186.198 512.545,185.721 514.500,186.000" stroke-width="10.151" stroke="rgb(33,33,33)" fill="none" stroke-linecap="round"></path><path d="M 514.500,186.000 C 516.045,186.221 515.960,186.743 517.500,187.000" stroke-width="10.650" stroke="rgb(33,33,33)" fill="none" stroke-linecap="round"></path><path d="M 517.500,187.000 C 518.960,187.243 519.000,187.000 520.500,187.000" stroke-width="11.327" stroke="rgb(33,33,33)" fill="none" stroke-linecap="round"></path><path d="M 520.500,187.000 C 521.000,187.000 521.000,187.000 521.500,187.000" stroke-width="12.234" stroke="rgb(33,33,33)" fill="none" stroke-linecap="round"></path><path d="M 521.500,187.000 C 522.500,187.000 522.500,187.000 523.500,187.000" stroke-width="12.864" stroke="rgb(33,33,33)" fill="none" stroke-linecap="round"></path><path d="M 523.500,187.000 C 523.500,187.000 523.500,187.000 523.500,187.000" stroke-width="13.876" stroke="rgb(33,33,33)" fill="none" stroke-linecap="round"></path><path d="M 523.500,187.000 C 524.000,187.000 524.500,187.000 524.500,187.000" stroke-width="14.456" stroke="rgb(33,33,33)" fill="none" stroke-linecap="round"></path><path d="M 524.500,187.000 C 524.500,187.000 524.000,187.000 523.500,187.000" stroke-width="15.329" stroke="rgb(33,33,33)" fill="none" stroke-linecap="round"></path><path d="M 523.500,187.000 C 523.500,187.000 523.500,187.000 523.500,187.000" stroke-width="16.112" stroke="rgb(33,33,33)" fill="none" stroke-linecap="round"></path><path d="M 523.500,187.000 C 523.000,187.000 523.000,187.000 522.500,187.000" stroke-width="16.494" stroke="rgb(33,33,33)" fill="none" stroke-linecap="round"></path></svg>