<svg xmlns="http://www.w3.org/2000/svg" xmlns:xlink="http://www.w3.org/1999/xlink" viewBox="0 0 360 500"><path d="M 82.090,140.094 C 82.591,144.594 82.533,144.602 83.092,149.095" stroke-width="19.967" stroke="rgb(33,33,33)" fill="none" stroke-linecap="round"></path><path d="M 83.092,149.095 C 83.580,153.017 83.686,153.003 84.183,156.924" stroke-width="18.241" stroke="rgb(33,33,33)" fill="none" stroke-linecap="round"></path><path d="M 84.183,156.924 C 84.664,160.719 84.583,160.730 85.049,164.527" stroke-width="17.107" stroke="rgb(33,33,33)" fill="none" stroke-linecap="round"></path><path d="M 85.049,164.527 C 85.546,168.579 85.534,168.581 86.108,172.623" stroke-width="16.361" stroke="rgb(33,33,33)" fill="none" stroke-linecap="round"></path><path d="M 86.108,172.623 C 86.700,176.789 86.702,176.790 87.380,180.943" stroke-width="15.775" stroke="rgb(33,33,33)" fill="none" stroke-linecap="round"></path><path d="M 87.380,180.943 C 88.043,185.001 88.216,184.976 88.791,189.046" stroke-width="15.228" stroke="rgb(33,33,33)" fill="none" stroke-linecap="round"></path><path d="M 88.791,189.046 C 89.328,192.847 89.199,192.865 89.604,196.685" stroke-width="14.954" stroke="rgb(33,33,33)" fill="none" stroke-linecap="round"></path><path d="M 89.604,196.685 C 89.981,200.235 89.983,200.235 90.355,203.786" stroke-width="14.810" stroke="rgb(33,33,33)" fill="none" stroke-linecap="round"></path><path d="M 90.355,203.786 C 90.714,207.208 90.659,207.214 91.066,210.630" stroke-width="14.986" stroke="rgb(33,33,33)" fill="none" stroke-linecap="round"></path><path d="M 91.066,210.630 C 91.466,213.990 91.480,213.989 91.968,217.338" stroke-width="14.829" stroke="rgb(33,33,33)" fill="none" stroke-linecap="round"></path><path d="M 91.968,217.338 C 92.404,220.330 92.451,220.323 92.915,223.311" stroke-width="14.748" stroke="rgb(33,33,33)" fill="none" stroke-linecap="round"></path><path d="M 92.915,223.311 C 93.245,225.431 93.295,225.425 93.556,227.554" stroke-width="14.937" stroke="rgb(33,33,33)" fill="none" stroke-linecap="round"></path><path d="M 93.556,227.554 C 93.747,229.112 93.692,229.119 93.818,230.684" stroke-width="15.232" stroke="rgb(33,33,33)" fill="none" stroke-linecap="round"></path><path d="M 93.818,230.684 C 93.901,231.722 93.857,231.727 93.974,232.760" stroke-width="15.738" stroke="rgb(33,33,33)" fill="none" stroke-linecap="round"></path><path d="M 93.974,232.760 C 94.058,233.504 94.138,233.496 94.219,234.239" stroke-width="16.239" stroke="rgb(33,33,33)" fill="none" stroke-linecap="round"></path><path d="M 94.219,234.239 C 94.260,234.613 94.283,234.631 94.219,234.994" stroke-width="16.785" stroke="rgb(33,33,33)" fill="none" stroke-linecap="round"></path><path d="M 94.219,234.994 C 94.177,235.230 94.060,235.408 94.008,235.437" stroke-width="17.288" stroke="rgb(33,33,33)" fill="none" stroke-linecap="round"></path><path d="M 94.008,235.437 C 93.972,235.458 94.070,235.256 94.043,235.094" stroke-width="17.792" stroke="rgb(33,33,33)" fill="none" stroke-linecap="round"></path><path d="M 94.043,235.094 C 94.022,234.967 93.955,234.985 93.911,234.859" stroke-width="18.182" stroke="rgb(33,33,33)" fill="none" stroke-linecap="round"></path><path d="M 93.911,234.859 C 93.847,234.677 93.811,234.557 93.826,234.479" stroke-width="18.479" stroke="rgb(33,33,33)" fill="none" stroke-linecap="round"></path><path d="M 93.826,234.479 C 93.833,234.440 93.878,234.567 93.955,234.625" stroke-width="18.789" stroke="rgb(33,33,33)" fill="none" stroke-linecap="round"></path><path d="M 93.955,234.625 C 94.081,234.722 94.160,234.661 94.232,234.789" stroke-width="18.996" stroke="rgb(33,33,33)" fill="none" stroke-linecap="round"></path><path d="M 94.232,234.789 C 94.338,234.978 94.418,235.150 94.311,235.259" stroke-width="19.179" stroke="rgb(33,33,33)" fill="none" stroke-linecap="round"></path><path d="M 94.311,235.259 C 94.192,235.381 93.907,235.097 93.779,235.250" stroke-width="19.360" stroke="rgb(33,33,33)" fill="none" stroke-linecap="round"></path><path d="M 93.779,235.250 C 93.597,235.467 93.790,235.640 93.691,236.000" stroke-width="19.515" stroke="rgb(33,33,33)" fill="none" stroke-linecap="round"></path><path d="M 93.691,236.000 C 93.587,236.377 93.479,236.346 93.373,236.724" stroke-width="19.458" stroke="rgb(33,33,33)" fill="none" stroke-linecap="round"></path><path d="M 93.373,236.724 C 93.220,237.269 93.252,237.282 93.173,237.846" stroke-width="19.374" stroke="rgb(33,33,33)" fill="none" stroke-linecap="round"></path><path d="M 93.173,237.846 C 93.065,238.608 93.075,238.610 92.999,239.377" stroke-width="19.163" stroke="rgb(33,33,33)" fill="none" stroke-linecap="round"></path><path d="M 92.999,239.377 C 92.901,240.368 92.918,240.370 92.824,241.361" stroke-width="18.920" stroke="rgb(33,33,33)" fill="none" stroke-linecap="round"></path><path d="M 92.824,241.361 C 92.699,242.673 92.661,242.670 92.560,243.983" stroke-width="18.682" stroke="rgb(33,33,33)" fill="none" stroke-linecap="round"></path><path d="M 92.560,243.983 C 92.443,245.497 92.468,245.499 92.388,247.016" stroke-width="18.282" stroke="rgb(33,33,33)" fill="none" stroke-linecap="round"></path><path d="M 92.388,247.016 C 92.302,248.648 92.280,248.647 92.229,250.280" stroke-width="18.007" stroke="rgb(33,33,33)" fill="none" stroke-linecap="round"></path><path d="M 92.229,250.280 C 92.184,251.722 92.225,251.723 92.197,253.166" stroke-width="17.944" stroke="rgb(33,33,33)" fill="none" stroke-linecap="round"></path><path d="M 92.197,253.166 C 92.174,254.341 92.150,254.341 92.126,255.516" stroke-width="17.937" stroke="rgb(33,33,33)" fill="none" stroke-linecap="round"></path><path d="M 92.126,255.516 C 92.106,256.539 92.114,256.540 92.109,257.563" stroke-width="17.882" stroke="rgb(33,33,33)" fill="none" stroke-linecap="round"></path><path d="M 92.109,257.563 C 92.105,258.346 92.109,258.346 92.109,259.130" stroke-width="17.971" stroke="rgb(33,33,33)" fill="none" stroke-linecap="round"></path><path d="M 92.109,259.130 C 92.109,259.908 92.109,259.908 92.109,260.686" stroke-width="18.066" stroke="rgb(33,33,33)" fill="none" stroke-linecap="round"></path><path d="M 92.109,260.686 C 92.109,261.338 92.109,261.338 92.109,261.990" stroke-width="18.290" stroke="rgb(33,33,33)" fill="none" stroke-linecap="round"></path><path d="M 92.109,261.990 C 92.109,262.558 92.109,262.558 92.109,263.127" stroke-width="18.227" stroke="rgb(33,33,33)" fill="none" stroke-linecap="round"></path><path d="M 149.063,128.688 C 146.060,134.044 145.948,133.984 143.056,139.400" stroke-width="19.647" stroke="rgb(33,33,33)" fill="none" stroke-linecap="round"></path><path d="M 143.056,139.400 C 138.480,147.968 138.680,148.076 134.127,156.657" stroke-width="16.159" stroke="rgb(33,33,33)" fill="none" stroke-linecap="round"></path><path d="M 134.127,156.657 C 129.813,164.787 129.531,164.640 125.322,172.822" stroke-width="14.270" stroke="rgb(33,33,33)" fill="none" stroke-linecap="round"></path><path d="M 125.322,172.822 C 121.759,179.748 121.895,179.820 118.583,186.872" stroke-width="13.335" stroke="rgb(33,33,33)" fill="none" stroke-linecap="round"></path><path d="M 118.583,186.872 C 115.724,192.959 115.995,193.094 112.980,199.099" stroke-width="13.010" stroke="rgb(33,33,33)" fill="none" stroke-linecap="round"></path><path d="M 112.980,199.099 C 110.597,203.845 110.424,203.760 107.787,208.374" stroke-width="13.052" stroke="rgb(33,33,33)" fill="none" stroke-linecap="round"></path><path d="M 107.787,208.374 C 105.366,212.610 105.313,212.579 102.865,216.800" stroke-width="12.812" stroke="rgb(33,33,33)" fill="none" stroke-linecap="round"></path><path d="M 102.865,216.800 C 100.827,220.315 101.226,220.607 98.815,223.845" stroke-width="12.812" stroke="rgb(33,33,33)" fill="none" stroke-linecap="round"></path><path d="M 98.815,223.845 C 96.160,227.411 95.799,227.152 92.732,230.408" stroke-width="12.900" stroke="rgb(33,33,33)" fill="none" stroke-linecap="round"></path><path d="M 92.732,230.408 C 92.057,231.124 92.171,231.390 91.331,231.790" stroke-width="13.692" stroke="rgb(33,33,33)" fill="none" stroke-linecap="round"></path><path d="M 91.331,231.790 C 90.487,232.192 90.345,232.016 89.365,232.011" stroke-width="14.398" stroke="rgb(33,33,33)" fill="none" stroke-linecap="round"></path><path d="M 89.365,232.011 C 88.680,232.008 88.616,232.021 88.002,231.774" stroke-width="15.085" stroke="rgb(33,33,33)" fill="none" stroke-linecap="round"></path><path d="M 88.002,231.774 C 87.679,231.644 87.497,231.572 87.491,231.258" stroke-width="15.776" stroke="rgb(33,33,33)" fill="none" stroke-linecap="round"></path><path d="M 87.491,231.258 C 87.479,230.646 87.607,230.527 87.967,229.923" stroke-width="16.284" stroke="rgb(33,33,33)" fill="none" stroke-linecap="round"></path><path d="M 87.967,229.923 C 88.807,228.515 88.869,228.532 89.891,227.234" stroke-width="16.413" stroke="rgb(33,33,33)" fill="none" stroke-linecap="round"></path><path d="M 89.891,227.234 C 91.640,225.013 91.599,224.967 93.510,222.885" stroke-width="16.100" stroke="rgb(33,33,33)" fill="none" stroke-linecap="round"></path><path d="M 93.510,222.885 C 95.915,220.265 95.912,220.245 98.522,217.829" stroke-width="15.698" stroke="rgb(33,33,33)" fill="none" stroke-linecap="round"></path><path d="M 98.522,217.829 C 101.514,215.060 101.496,215.015 104.714,212.516" stroke-width="15.311" stroke="rgb(33,33,33)" fill="none" stroke-linecap="round"></path><path d="M 104.714,212.516 C 107.610,210.268 107.556,210.103 110.749,208.335" stroke-width="15.002" stroke="rgb(33,33,33)" fill="none" stroke-linecap="round"></path><path d="M 110.749,208.335 C 113.573,206.772 113.666,206.818 116.749,205.854" stroke-width="15.020" stroke="rgb(33,33,33)" fill="none" stroke-linecap="round"></path><path d="M 116.749,205.854 C 119.182,205.093 119.264,204.947 121.780,204.886" stroke-width="15.035" stroke="rgb(33,33,33)" fill="none" stroke-linecap="round"></path><path d="M 121.780,204.886 C 123.755,204.838 123.899,204.904 125.730,205.638" stroke-width="15.251" stroke="rgb(33,33,33)" fill="none" stroke-linecap="round"></path><path d="M 125.730,205.638 C 127.539,206.364 127.586,206.504 129.060,207.806" stroke-width="15.501" stroke="rgb(33,33,33)" fill="none" stroke-linecap="round"></path><path d="M 129.060,207.806 C 130.599,209.164 130.548,209.280 131.756,210.958" stroke-width="15.614" stroke="rgb(33,33,33)" fill="none" stroke-linecap="round"></path><path d="M 131.756,210.958 C 133.154,212.902 133.142,212.935 134.272,215.050" stroke-width="15.558" stroke="rgb(33,33,33)" fill="none" stroke-linecap="round"></path><path d="M 134.272,215.050 C 135.616,217.566 135.532,217.616 136.705,220.220" stroke-width="15.520" stroke="rgb(33,33,33)" fill="none" stroke-linecap="round"></path><path d="M 136.705,220.220 C 138.064,223.237 138.055,223.242 139.337,226.293" stroke-width="15.265" stroke="rgb(33,33,33)" fill="none" stroke-linecap="round"></path><path d="M 139.337,226.293 C 140.689,229.508 140.572,229.559 141.973,232.752" stroke-width="15.172" stroke="rgb(33,33,33)" fill="none" stroke-linecap="round"></path><path d="M 141.973,232.752 C 143.379,235.954 143.439,235.928 144.951,239.083" stroke-width="14.878" stroke="rgb(33,33,33)" fill="none" stroke-linecap="round"></path><path d="M 144.951,239.083 C 146.355,242.013 146.359,242.012 147.805,244.922" stroke-width="14.878" stroke="rgb(33,33,33)" fill="none" stroke-linecap="round"></path><path d="M 147.805,244.922 C 148.962,247.250 149.020,247.222 150.158,249.558" stroke-width="15.072" stroke="rgb(33,33,33)" fill="none" stroke-linecap="round"></path><path d="M 150.158,249.558 C 151.005,251.296 151.008,251.297 151.775,253.071" stroke-width="15.120" stroke="rgb(33,33,33)" fill="none" stroke-linecap="round"></path><path d="M 151.775,253.071 C 152.329,254.353 152.291,254.369 152.799,255.670" stroke-width="15.526" stroke="rgb(33,33,33)" fill="none" stroke-linecap="round"></path><path d="M 152.799,255.670 C 153.182,256.652 153.202,256.646 153.557,257.638" stroke-width="15.984" stroke="rgb(33,33,33)" fill="none" stroke-linecap="round"></path><path d="M 153.557,257.638 C 153.804,258.327 153.707,258.371 154.003,259.033" stroke-width="16.498" stroke="rgb(33,33,33)" fill="none" stroke-linecap="round"></path><path d="M 154.003,259.033 C 154.189,259.449 154.240,259.431 154.522,259.793" stroke-width="16.944" stroke="rgb(33,33,33)" fill="none" stroke-linecap="round"></path><path d="M 202.939,178.219 C 199.197,182.328 198.852,182.054 195.455,186.436" stroke-width="19.740" stroke="rgb(33,33,33)" fill="none" stroke-linecap="round"></path><path d="M 195.455,186.436 C 190.836,192.396 190.998,192.551 186.907,198.902" stroke-width="17.164" stroke="rgb(33,33,33)" fill="none" stroke-linecap="round"></path><path d="M 186.907,198.902 C 182.018,206.492 181.854,206.427 177.495,214.319" stroke-width="14.624" stroke="rgb(33,33,33)" fill="none" stroke-linecap="round"></path><path d="M 177.495,214.319 C 175.085,218.682 175.498,218.897 173.369,223.413" stroke-width="14.208" stroke="rgb(33,33,33)" fill="none" stroke-linecap="round"></path><path d="M 173.369,223.413 C 171.848,226.638 171.648,226.548 170.196,229.801" stroke-width="14.266" stroke="rgb(33,33,33)" fill="none" stroke-linecap="round"></path><path d="M 170.196,229.801 C 169.011,232.456 169.231,232.555 168.096,235.229" stroke-width="14.609" stroke="rgb(33,33,33)" fill="none" stroke-linecap="round"></path><path d="M 168.096,235.229 C 167.778,235.979 167.637,235.912 167.289,236.648" stroke-width="15.128" stroke="rgb(33,33,33)" fill="none" stroke-linecap="round"></path><path d="M 167.289,236.648 C 166.901,237.468 166.937,237.489 166.624,238.341" stroke-width="15.654" stroke="rgb(33,33,33)" fill="none" stroke-linecap="round"></path><path d="M 166.624,238.341 C 166.591,238.431 166.594,238.554 166.597,238.531" stroke-width="16.366" stroke="rgb(33,33,33)" fill="none" stroke-linecap="round"></path><path d="M 166.597,238.531 C 166.602,238.493 166.631,238.376 166.641,238.219" stroke-width="16.966" stroke="rgb(33,33,33)" fill="none" stroke-linecap="round"></path><path d="M 166.641,238.219 C 166.653,238.041 166.641,238.040 166.641,237.861" stroke-width="17.475" stroke="rgb(33,33,33)" fill="none" stroke-linecap="round"></path><path d="M 166.641,237.861 C 166.641,237.708 166.641,237.708 166.641,237.555" stroke-width="17.906" stroke="rgb(33,33,33)" fill="none" stroke-linecap="round"></path><path d="M 158.643,194.156 C 161.457,197.204 161.346,197.315 164.270,200.252" stroke-width="19.967" stroke="rgb(33,33,33)" fill="none" stroke-linecap="round"></path><path d="M 164.270,200.252 C 166.699,202.692 166.846,202.543 169.348,204.910" stroke-width="18.537" stroke="rgb(33,33,33)" fill="none" stroke-linecap="round"></path><path d="M 169.348,204.910 C 171.318,206.774 171.246,206.849 173.215,208.714" stroke-width="17.798" stroke="rgb(33,33,33)" fill="none" stroke-linecap="round"></path><path d="M 212.607,187.438 C 214.043,199.292 213.821,199.324 215.480,211.147" stroke-width="19.261" stroke="rgb(33,33,33)" fill="none" stroke-linecap="round"></path><path d="M 215.480,211.147 C 216.859,220.972 217.032,220.949 218.684,230.734" stroke-width="15.708" stroke="rgb(33,33,33)" fill="none" stroke-linecap="round"></path><path d="M 218.684,230.734 C 219.815,237.429 219.542,237.497 221.046,244.107" stroke-width="14.557" stroke="rgb(33,33,33)" fill="none" stroke-linecap="round"></path><path d="M 221.046,244.107 C 222.151,248.967 222.465,248.893 223.902,253.674" stroke-width="14.085" stroke="rgb(33,33,33)" fill="none" stroke-linecap="round"></path><path d="M 223.902,253.674 C 224.867,256.887 224.770,256.923 225.850,260.094" stroke-width="14.170" stroke="rgb(33,33,33)" fill="none" stroke-linecap="round"></path><path d="M 225.850,260.094 C 226.318,261.467 226.468,261.414 226.998,262.763" stroke-width="14.701" stroke="rgb(33,33,33)" fill="none" stroke-linecap="round"></path><path d="M 226.998,262.763 C 227.113,263.055 227.140,263.373 227.140,263.375" stroke-width="15.471" stroke="rgb(33,33,33)" fill="none" stroke-linecap="round"></path><path d="M 227.140,263.375 C 227.140,263.377 227.113,263.056 226.999,262.769" stroke-width="16.136" stroke="rgb(33,33,33)" fill="none" stroke-linecap="round"></path><path d="M 226.999,262.769 C 226.835,262.356 226.804,262.365 226.585,261.975" stroke-width="16.674" stroke="rgb(33,33,33)" fill="none" stroke-linecap="round"></path><path d="M 226.585,261.975 C 226.096,261.105 226.014,261.147 225.582,260.248" stroke-width="16.900" stroke="rgb(33,33,33)" fill="none" stroke-linecap="round"></path><path d="M 225.582,260.248 C 224.744,258.504 224.672,258.520 224.045,256.690" stroke-width="16.777" stroke="rgb(33,33,33)" fill="none" stroke-linecap="round"></path><path d="M 224.045,256.690 C 222.962,253.533 222.834,253.543 222.162,250.274" stroke-width="16.274" stroke="rgb(33,33,33)" fill="none" stroke-linecap="round"></path><path d="M 222.162,250.274 C 220.760,243.450 220.743,243.425 219.897,236.503" stroke-width="14.894" stroke="rgb(33,33,33)" fill="none" stroke-linecap="round"></path><path d="M 219.897,236.503 C 218.813,227.631 218.711,227.607 218.301,218.687" stroke-width="13.623" stroke="rgb(33,33,33)" fill="none" stroke-linecap="round"></path><path d="M 218.301,218.687 C 218.050,213.229 218.204,213.194 218.576,207.745" stroke-width="13.560" stroke="rgb(33,33,33)" fill="none" stroke-linecap="round"></path><path d="M 218.576,207.745 C 218.751,205.182 218.901,205.186 219.394,202.663" stroke-width="13.678" stroke="rgb(33,33,33)" fill="none" stroke-linecap="round"></path><path d="M 219.394,202.663 C 219.612,201.545 219.562,201.477 219.998,200.464" stroke-width="14.349" stroke="rgb(33,33,33)" fill="none" stroke-linecap="round"></path><path d="M 219.998,200.464 C 220.131,200.156 220.256,199.928 220.532,200.020" stroke-width="15.138" stroke="rgb(33,33,33)" fill="none" stroke-linecap="round"></path><path d="M 220.532,200.020 C 221.281,200.269 221.395,200.471 222.047,201.146" stroke-width="15.669" stroke="rgb(33,33,33)" fill="none" stroke-linecap="round"></path><path d="M 222.047,201.146 C 223.605,202.761 223.663,202.755 224.952,204.600" stroke-width="15.694" stroke="rgb(33,33,33)" fill="none" stroke-linecap="round"></path><path d="M 224.952,204.600 C 226.896,207.382 226.775,207.474 228.512,210.400" stroke-width="15.431" stroke="rgb(33,33,33)" fill="none" stroke-linecap="round"></path><path d="M 228.512,210.400 C 230.420,213.613 230.162,213.785 232.242,216.877" stroke-width="15.075" stroke="rgb(33,33,33)" fill="none" stroke-linecap="round"></path><path d="M 232.242,216.877 C 233.923,219.375 233.865,219.536 236.032,221.580" stroke-width="15.132" stroke="rgb(33,33,33)" fill="none" stroke-linecap="round"></path><path d="M 236.032,221.580 C 237.509,222.973 237.639,223.135 239.530,223.750" stroke-width="15.278" stroke="rgb(33,33,33)" fill="none" stroke-linecap="round"></path><path d="M 239.530,223.750 C 241.138,224.273 241.361,224.203 243.030,223.857" stroke-width="15.558" stroke="rgb(33,33,33)" fill="none" stroke-linecap="round"></path><path d="M 243.030,223.857 C 244.784,223.493 244.972,223.456 246.376,222.330" stroke-width="15.794" stroke="rgb(33,33,33)" fill="none" stroke-linecap="round"></path><path d="M 246.376,222.330 C 248.397,220.708 248.535,220.606 249.881,218.361" stroke-width="15.675" stroke="rgb(33,33,33)" fill="none" stroke-linecap="round"></path><path d="M 249.881,218.361 C 251.904,214.987 251.849,214.849 253.114,211.092" stroke-width="15.192" stroke="rgb(33,33,33)" fill="none" stroke-linecap="round"></path><path d="M 253.114,211.092 C 254.717,206.333 254.697,206.274 255.617,201.329" stroke-width="14.622" stroke="rgb(33,33,33)" fill="none" stroke-linecap="round"></path><path d="M 255.617,201.329 C 256.692,195.554 256.475,195.503 257.105,189.653" stroke-width="13.917" stroke="rgb(33,33,33)" fill="none" stroke-linecap="round"></path><path d="M 257.105,189.653 C 257.702,184.105 257.451,184.076 258.071,178.532" stroke-width="13.608" stroke="rgb(33,33,33)" fill="none" stroke-linecap="round"></path><path d="M 258.071,178.532 C 258.460,175.057 258.432,175.034 259.124,171.614" stroke-width="13.749" stroke="rgb(33,33,33)" fill="none" stroke-linecap="round"></path><path d="M 259.124,171.614 C 259.418,170.158 259.309,169.147 260.043,168.781" stroke-width="14.253" stroke="rgb(33,33,33)" fill="none" stroke-linecap="round"></path><path d="M 260.043,168.781 C 260.603,168.502 261.236,169.326 261.712,170.323" stroke-width="14.884" stroke="rgb(33,33,33)" fill="none" stroke-linecap="round"></path><path d="M 261.712,170.323 C 262.917,172.844 262.677,173.037 263.405,175.816" stroke-width="14.887" stroke="rgb(33,33,33)" fill="none" stroke-linecap="round"></path><path d="M 263.405,175.816 C 264.521,180.073 264.516,180.082 265.399,184.395" stroke-width="14.549" stroke="rgb(33,33,33)" fill="none" stroke-linecap="round"></path><path d="M 265.399,184.395 C 266.304,188.816 266.112,188.855 266.981,193.283" stroke-width="14.264" stroke="rgb(33,33,33)" fill="none" stroke-linecap="round"></path><path d="M 266.981,193.283 C 267.582,196.347 267.577,196.353 268.340,199.379" stroke-width="14.323" stroke="rgb(33,33,33)" fill="none" stroke-linecap="round"></path><path d="M 268.340,199.379 C 268.698,200.799 268.691,200.863 269.223,202.175" stroke-width="14.806" stroke="rgb(33,33,33)" fill="none" stroke-linecap="round"></path><path d="M 269.223,202.175 C 269.279,202.314 269.467,202.390 269.516,202.281" stroke-width="15.603" stroke="rgb(33,33,33)" fill="none" stroke-linecap="round"></path><path d="M 269.516,202.281 C 269.691,201.891 269.640,201.733 269.672,201.178" stroke-width="16.200" stroke="rgb(33,33,33)" fill="none" stroke-linecap="round"></path><path d="M 269.672,201.178 C 269.750,199.815 269.633,199.805 269.736,198.444" stroke-width="16.458" stroke="rgb(33,33,33)" fill="none" stroke-linecap="round"></path><path d="M 269.736,198.444 C 269.824,197.278 269.935,197.287 270.053,196.124" stroke-width="16.553" stroke="rgb(33,33,33)" fill="none" stroke-linecap="round"></path><path d="M 270.053,196.124 C 270.111,195.554 270.130,195.525 270.088,194.977" stroke-width="16.997" stroke="rgb(33,33,33)" fill="none" stroke-linecap="round"></path><path d="M 270.088,194.977 C 270.082,194.892 269.927,194.789 269.956,194.859" stroke-width="17.527" stroke="rgb(33,33,33)" fill="none" stroke-linecap="round"></path><path d="M 269.956,194.859 C 270.298,195.682 270.445,195.789 270.830,196.763" stroke-width="17.602" stroke="rgb(33,33,33)" fill="none" stroke-linecap="round"></path><path d="M 270.830,196.763 C 271.603,198.720 271.471,198.774 272.272,200.721" stroke-width="17.309" stroke="rgb(33,33,33)" fill="none" stroke-linecap="round"></path><path d="M 272.272,200.721 C 273.279,203.170 273.320,203.156 274.446,205.555" stroke-width="16.782" stroke="rgb(33,33,33)" fill="none" stroke-linecap="round"></path><path d="M 274.446,205.555 C 275.545,207.896 275.692,207.832 276.723,210.201" stroke-width="16.561" stroke="rgb(33,33,33)" fill="none" stroke-linecap="round"></path><path d="M 276.723,210.201 C 277.489,211.962 276.984,212.286 278.041,213.814" stroke-width="16.513" stroke="rgb(33,33,33)" fill="none" stroke-linecap="round"></path><path d="M 278.041,213.814 C 279.063,215.292 279.312,215.276 280.882,216.213" stroke-width="16.534" stroke="rgb(33,33,33)" fill="none" stroke-linecap="round"></path><path d="M 280.882,216.213 C 282.131,216.959 282.312,217.200 283.679,217.180" stroke-width="16.672" stroke="rgb(33,33,33)" fill="none" stroke-linecap="round"></path><path d="M 283.679,217.180 C 284.764,217.164 285.030,216.972 285.786,216.142" stroke-width="16.925" stroke="rgb(33,33,33)" fill="none" stroke-linecap="round"></path><path d="M 285.786,216.142 C 286.952,214.862 286.884,214.646 287.523,212.961" stroke-width="16.798" stroke="rgb(33,33,33)" fill="none" stroke-linecap="round"></path><path d="M 287.523,212.961 C 288.570,210.202 288.633,210.165 289.158,207.254" stroke-width="16.349" stroke="rgb(33,33,33)" fill="none" stroke-linecap="round"></path><path d="M 289.158,207.254 C 289.910,203.087 289.811,203.043 290.078,198.806" stroke-width="15.527" stroke="rgb(33,33,33)" fill="none" stroke-linecap="round"></path><path d="M 290.078,198.806 C 290.428,193.256 290.530,193.237 290.391,187.680" stroke-width="14.884" stroke="rgb(33,33,33)" fill="none" stroke-linecap="round"></path><path d="M 290.391,187.680 C 290.226,181.064 289.925,181.071 289.471,174.461" stroke-width="13.822" stroke="rgb(33,33,33)" fill="none" stroke-linecap="round"></path><path d="M 289.471,174.461 C 288.987,167.414 289.152,167.399 288.515,160.366" stroke-width="13.164" stroke="rgb(33,33,33)" fill="none" stroke-linecap="round"></path><path d="M 288.515,160.366 C 287.877,153.319 287.635,153.341 286.922,146.300" stroke-width="12.753" stroke="rgb(33,33,33)" fill="none" stroke-linecap="round"></path><path d="M 286.922,146.300 C 286.285,140.015 286.181,140.018 285.815,133.714" stroke-width="12.775" stroke="rgb(33,33,33)" fill="none" stroke-linecap="round"></path><path d="M 285.815,133.714 C 285.453,127.481 285.306,127.462 285.467,121.226" stroke-width="12.196" stroke="rgb(33,33,33)" fill="none" stroke-linecap="round"></path><path d="M 285.467,121.226 C 285.630,114.900 285.766,114.886 286.464,108.591" stroke-width="11.751" stroke="rgb(33,33,33)" fill="none" stroke-linecap="round"></path><path d="M 286.464,108.591 C 287.082,103.018 287.255,103.037 288.098,97.490" stroke-width="11.838" stroke="rgb(33,33,33)" fill="none" stroke-linecap="round"></path><path d="M 288.098,97.490 C 288.653,93.841 288.482,93.791 289.259,90.199" stroke-width="12.193" stroke="rgb(33,33,33)" fill="none" stroke-linecap="round"></path><path d="M 289.259,90.199 C 289.534,88.930 289.598,88.037 290.202,87.768" stroke-width="13.001" stroke="rgb(33,33,33)" fill="none" stroke-linecap="round"></path><path d="M 290.202,87.768 C 290.639,87.574 291.069,88.385 291.340,89.272" stroke-width="13.792" stroke="rgb(33,33,33)" fill="none" stroke-linecap="round"></path><path d="M 291.340,89.272 C 292.340,92.544 292.140,92.662 292.745,96.087" stroke-width="13.855" stroke="rgb(33,33,33)" fill="none" stroke-linecap="round"></path><path d="M 292.745,96.087 C 293.838,102.280 293.626,102.318 294.735,108.509" stroke-width="13.265" stroke="rgb(33,33,33)" fill="none" stroke-linecap="round"></path><path d="M 294.735,108.509 C 296.757,119.798 296.468,119.869 299.007,131.047" stroke-width="11.974" stroke="rgb(33,33,33)" fill="none" stroke-linecap="round"></path><path d="M 299.007,131.047 C 301.733,143.051 301.808,143.060 305.265,154.873" stroke-width="10.989" stroke="rgb(33,33,33)" fill="none" stroke-linecap="round"></path><path d="M 305.265,154.873 C 307.210,161.522 307.403,161.472 309.811,167.971" stroke-width="10.961" stroke="rgb(33,33,33)" fill="none" stroke-linecap="round"></path><path d="M 309.811,167.971 C 311.915,173.651 312.048,173.601 314.289,179.230" stroke-width="11.172" stroke="rgb(33,33,33)" fill="none" stroke-linecap="round"></path><path d="M 314.289,179.230 C 316.069,183.700 316.173,183.662 317.852,188.169" stroke-width="11.438" stroke="rgb(33,33,33)" fill="none" stroke-linecap="round"></path><path d="M 317.852,188.169 C 319.003,191.257 319.028,191.260 319.949,194.420" stroke-width="11.955" stroke="rgb(33,33,33)" fill="none" stroke-linecap="round"></path><path d="M 319.949,194.420 C 320.406,195.986 320.698,196.099 320.607,197.621" stroke-width="12.740" stroke="rgb(33,33,33)" fill="none" stroke-linecap="round"></path><path d="M 320.607,197.621 C 320.559,198.427 320.367,198.622 319.672,199.076" stroke-width="13.548" stroke="rgb(33,33,33)" fill="none" stroke-linecap="round"></path><path d="M 319.672,199.076 C 318.196,200.040 317.992,199.828 316.266,200.456" stroke-width="14.017" stroke="rgb(33,33,33)" fill="none" stroke-linecap="round"></path><path d="M 316.266,200.456 C 312.730,201.742 312.743,201.796 309.147,202.904" stroke-width="13.967" stroke="rgb(33,33,33)" fill="none" stroke-linecap="round"></path><path d="M 309.147,202.904 C 303.574,204.621 303.605,204.787 297.929,206.107" stroke-width="13.526" stroke="rgb(33,33,33)" fill="none" stroke-linecap="round"></path><path d="M 297.929,206.107 C 290.251,207.893 290.245,208.034 282.439,209.116" stroke-width="12.696" stroke="rgb(33,33,33)" fill="none" stroke-linecap="round"></path><path d="M 282.439,209.116 C 272.416,210.506 272.374,210.358 262.270,211.051" stroke-width="11.988" stroke="rgb(33,33,33)" fill="none" stroke-linecap="round"></path><path d="M 262.270,211.051 C 249.845,211.904 249.828,211.717 237.380,212.208" stroke-width="10.751" stroke="rgb(33,33,33)" fill="none" stroke-linecap="round"></path><path d="M 237.380,212.208 C 223.309,212.763 223.296,212.460 209.232,213.144" stroke-width="9.935" stroke="rgb(33,33,33)" fill="none" stroke-linecap="round"></path><path d="M 209.232,213.144 C 194.266,213.872 194.215,213.490 179.321,215.033" stroke-width="9.359" stroke="rgb(33,33,33)" fill="none" stroke-linecap="round"></path><path d="M 179.321,215.033 C 164.130,216.606 164.038,216.425 149.062,219.376" stroke-width="8.660" stroke="rgb(33,33,33)" fill="none" stroke-linecap="round"></path><path d="M 149.062,219.376 C 133.944,222.355 133.852,222.344 119.132,226.891" stroke-width="8.320" stroke="rgb(33,33,33)" fill="none" stroke-linecap="round"></path><path d="M 119.132,226.891 C 104.767,231.329 104.854,231.728 90.892,237.346" stroke-width="8.025" stroke="rgb(33,33,33)" fill="none" stroke-linecap="round"></path><path d="M 90.892,237.346 C 78.333,242.399 78.454,242.707 66.090,248.233" stroke-width="7.918" stroke="rgb(33,33,33)" fill="none" stroke-linecap="round"></path><path d="M 66.090,248.233 C 55.158,253.118 55.130,253.064 44.299,258.168" stroke-width="8.011" stroke="rgb(33,33,33)" fill="none" stroke-linecap="round"></path><path d="M 44.299,258.168 C 36.167,262.000 36.186,262.047 28.165,266.106" stroke-width="8.398" stroke="rgb(33,33,33)" fill="none" stroke-linecap="round"></path><path d="M 28.165,266.106 C 23.381,268.527 23.382,268.538 18.689,271.129" stroke-width="8.912" stroke="rgb(33,33,33)" fill="none" stroke-linecap="round"></path><path d="M 18.689,271.129 C 16.820,272.161 16.796,272.165 15.042,273.353" stroke-width="9.806" stroke="rgb(33,33,33)" fill="none" stroke-linecap="round"></path><path d="M 15.042,273.353 C 14.791,273.523 14.486,273.825 14.678,273.844" stroke-width="10.886" stroke="rgb(33,33,33)" fill="none" stroke-linecap="round"></path><path d="M 14.678,273.844 C 15.335,273.908 15.751,273.838 16.741,273.519" stroke-width="11.832" stroke="rgb(33,33,33)" fill="none" stroke-linecap="round"></path><path d="M 16.741,273.519 C 19.868,272.513 19.851,272.419 22.912,271.195" stroke-width="12.261" stroke="rgb(33,33,33)" fill="none" stroke-linecap="round"></path><path d="M 22.912,271.195 C 29.735,268.468 29.688,268.350 36.510,265.618" stroke-width="11.792" stroke="rgb(33,33,33)" fill="none" stroke-linecap="round"></path><path d="M 36.510,265.618 C 49.891,260.259 49.892,260.260 63.317,255.013" stroke-width="10.470" stroke="rgb(33,33,33)" fill="none" stroke-linecap="round"></path><path d="M 63.317,255.013 C 81.906,247.749 81.971,247.915 100.538,240.596" stroke-width="9.243" stroke="rgb(33,33,33)" fill="none" stroke-linecap="round"></path><path d="M 100.538,240.596 C 114.853,234.953 114.803,234.826 129.080,229.088" stroke-width="8.748" stroke="rgb(33,33,33)" fill="none" stroke-linecap="round"></path><path d="M 129.080,229.088 C 143.639,223.237 143.622,223.195 158.210,217.418" stroke-width="8.286" stroke="rgb(33,33,33)" fill="none" stroke-linecap="round"></path><path d="M 158.210,217.418 C 172.796,211.642 172.752,211.523 187.427,205.982" stroke-width="8.252" stroke="rgb(33,33,33)" fill="none" stroke-linecap="round"></path><path d="M 187.427,205.982 C 201.593,200.633 201.714,200.954 215.892,195.638" stroke-width="7.888" stroke="rgb(33,33,33)" fill="none" stroke-linecap="round"></path><path d="M 215.892,195.638 C 228.830,190.787 228.805,190.717 241.659,185.648" stroke-width="7.791" stroke="rgb(33,33,33)" fill="none" stroke-linecap="round"></path><path d="M 241.659,185.648 C 252.734,181.280 252.685,181.158 263.750,176.764" stroke-width="8.454" stroke="rgb(33,33,33)" fill="none" stroke-linecap="round"></path><path d="M 263.750,176.764 C 270.719,173.996 270.772,174.127 277.726,171.325" stroke-width="8.558" stroke="rgb(33,33,33)" fill="none" stroke-linecap="round"></path><path d="M 277.726,171.325 C 283.353,169.058 283.348,169.042 288.912,166.624" stroke-width="7.854" stroke="rgb(33,33,33)" fill="none" stroke-linecap="round"></path><path d="M 288.912,166.624 C 294.412,164.234 294.349,164.087 299.854,161.708" stroke-width="7.384" stroke="rgb(33,33,33)" fill="none" stroke-linecap="round"></path><path d="M 299.854,161.708 C 305.194,159.400 305.198,159.405 310.601,157.250" stroke-width="8.025" stroke="rgb(33,33,33)" fill="none" stroke-linecap="round"></path><path d="M 310.601,157.250 C 315.154,155.434 315.323,155.803 319.766,153.765" stroke-width="8.676" stroke="rgb(33,33,33)" fill="none" stroke-linecap="round"></path><path d="M 319.766,153.765 C 323.022,152.272 323.225,152.397 325.998,150.188" stroke-width="9.388" stroke="rgb(33,33,33)" fill="none" stroke-linecap="round"></path><path d="M 325.998,150.188 C 328.422,148.257 328.168,147.908 330.161,145.485" stroke-width="10.128" stroke="rgb(33,33,33)" fill="none" stroke-linecap="round"></path><path d="M 330.161,145.485 C 331.611,143.722 331.577,143.687 332.884,141.815" stroke-width="10.906" stroke="rgb(33,33,33)" fill="none" stroke-linecap="round"></path><path d="M 332.884,141.815 C 333.950,140.289 333.893,140.250 334.907,138.688" stroke-width="11.742" stroke="rgb(33,33,33)" fill="none" stroke-linecap="round"></path></svg>