<svg xmlns="http://www.w3.org/2000/svg" xmlns:xlink="http://www.w3.org/1999/xlink" viewBox="0 0 800 500"><path d="M 254.500,96.000 C 254.500,96.500 254.655,96.536 254.500,97.000" stroke-width="20.180" stroke="rgb(33,33,33)" fill="none" stroke-linecap="round"></path><path d="M 254.500,97.000 C 254.155,98.036 253.845,97.964 253.500,99.000" stroke-width="19.647" stroke="rgb(33,33,33)" fill="none" stroke-linecap="round"></path><path d="M 253.500,99.000 C 253.345,99.464 253.500,99.500 253.500,100.000" stroke-width="19.472" stroke="rgb(33,33,33)" fill="none" stroke-linecap="round"></path><path d="M 253.500,100.000 C 253.500,101.000 253.736,101.056 253.500,102.000" stroke-width="18.716" stroke="rgb(33,33,33)" fill="none" stroke-linecap="round"></path><path d="M 253.500,102.000 C 253.236,103.056 252.845,102.964 252.500,104.000" stroke-width="18.057" stroke="rgb(33,33,33)" fill="none" stroke-linecap="round"></path><path d="M 252.500,104.000 C 252.345,104.464 252.750,104.583 252.500,105.000" stroke-width="18.045" stroke="rgb(33,33,33)" fill="none" stroke-linecap="round"></path><path d="M 252.500,105.000 C 251.250,107.083 250.438,106.813 249.500,109.000" stroke-width="16.561" stroke="rgb(33,33,33)" fill="none" stroke-linecap="round"></path><path d="M 249.500,109.000 C 248.938,110.313 249.500,110.500 249.500,112.000" stroke-width="16.267" stroke="rgb(33,33,33)" fill="none" stroke-linecap="round"></path><path d="M 249.500,112.000 C 249.500,114.000 249.926,114.082 249.500,116.000" stroke-width="15.456" stroke="rgb(33,33,33)" fill="none" stroke-linecap="round"></path><path d="M 249.500,116.000 C 248.926,118.582 248.536,118.515 247.500,121.000" stroke-width="14.645" stroke="rgb(33,33,33)" fill="none" stroke-linecap="round"></path><path d="M 247.500,121.000 C 246.036,124.515 245.339,124.364 244.500,128.000" stroke-width="13.531" stroke="rgb(33,33,33)" fill="none" stroke-linecap="round"></path><path d="M 244.500,128.000 C 243.839,130.864 244.796,131.036 244.500,134.000" stroke-width="13.087" stroke="rgb(33,33,33)" fill="none" stroke-linecap="round"></path><path d="M 244.500,134.000 C 244.296,136.036 243.868,135.974 243.500,138.000" stroke-width="13.142" stroke="rgb(33,33,33)" fill="none" stroke-linecap="round"></path><path d="M 243.500,138.000 C 242.868,141.474 242.735,141.481 242.500,145.000" stroke-width="12.582" stroke="rgb(33,33,33)" fill="none" stroke-linecap="round"></path><path d="M 242.500,145.000 C 242.235,148.981 242.500,149.000 242.500,153.000" stroke-width="11.999" stroke="rgb(33,33,33)" fill="none" stroke-linecap="round"></path><path d="M 242.500,153.000 C 242.500,156.500 242.732,156.514 242.500,160.000" stroke-width="11.739" stroke="rgb(33,33,33)" fill="none" stroke-linecap="round"></path><path d="M 242.500,160.000 C 242.232,164.014 241.809,163.988 241.500,168.000" stroke-width="11.366" stroke="rgb(33,33,33)" fill="none" stroke-linecap="round"></path><path d="M 241.500,168.000 C 241.309,170.488 241.500,170.500 241.500,173.000" stroke-width="11.569" stroke="rgb(33,33,33)" fill="none" stroke-linecap="round"></path><path d="M 241.500,173.000 C 241.500,176.000 241.500,176.000 241.500,179.000" stroke-width="11.570" stroke="rgb(33,33,33)" fill="none" stroke-linecap="round"></path><path d="M 241.500,179.000 C 241.500,181.500 241.500,181.500 241.500,184.000" stroke-width="11.738" stroke="rgb(33,33,33)" fill="none" stroke-linecap="round"></path><path d="M 241.500,184.000 C 241.500,187.500 241.500,187.500 241.500,191.000" stroke-width="11.537" stroke="rgb(33,33,33)" fill="none" stroke-linecap="round"></path><path d="M 241.500,191.000 C 241.500,192.500 241.099,192.595 241.500,194.000" stroke-width="12.060" stroke="rgb(33,33,33)" fill="none" stroke-linecap="round"></path><path d="M 241.500,194.000 C 242.099,196.095 242.972,195.889 243.500,198.000" stroke-width="12.118" stroke="rgb(33,33,33)" fill="none" stroke-linecap="round"></path><path d="M 243.500,198.000 C 243.972,199.889 243.221,200.045 243.500,202.000" stroke-width="12.456" stroke="rgb(33,33,33)" fill="none" stroke-linecap="round"></path><path d="M 243.500,202.000 C 243.721,203.545 244.194,203.469 244.500,205.000" stroke-width="12.819" stroke="rgb(33,33,33)" fill="none" stroke-linecap="round"></path><path d="M 244.500,205.000 C 244.694,205.969 244.500,206.000 244.500,207.000" stroke-width="13.378" stroke="rgb(33,33,33)" fill="none" stroke-linecap="round"></path><path d="M 244.500,207.000 C 244.500,207.500 244.500,207.500 244.500,208.000" stroke-width="14.102" stroke="rgb(33,33,33)" fill="none" stroke-linecap="round"></path><path d="M 244.500,208.000 C 244.500,208.500 244.750,208.750 244.500,209.000" stroke-width="14.740" stroke="rgb(33,33,33)" fill="none" stroke-linecap="round"></path><path d="M 244.500,209.000 C 244.250,209.250 243.826,209.326 243.500,209.000" stroke-width="15.565" stroke="rgb(33,33,33)" fill="none" stroke-linecap="round"></path><path d="M 243.500,209.000 C 242.326,207.826 242.299,207.598 241.500,206.000" stroke-width="15.836" stroke="rgb(33,33,33)" fill="none" stroke-linecap="round"></path><path d="M 241.500,206.000 C 240.799,204.598 240.934,204.519 240.500,203.000" stroke-width="15.552" stroke="rgb(33,33,33)" fill="none" stroke-linecap="round"></path><path d="M 240.500,203.000 C 239.934,201.019 240.404,200.808 239.500,199.000" stroke-width="15.059" stroke="rgb(33,33,33)" fill="none" stroke-linecap="round"></path><path d="M 239.500,199.000 C 238.404,196.808 237.820,197.111 236.500,195.000" stroke-width="14.456" stroke="rgb(33,33,33)" fill="none" stroke-linecap="round"></path><path d="M 236.500,195.000 C 235.320,193.111 235.500,193.000 234.500,191.000" stroke-width="14.137" stroke="rgb(33,33,33)" fill="none" stroke-linecap="round"></path><path d="M 234.500,191.000 C 233.500,189.000 233.607,188.938 232.500,187.000" stroke-width="13.741" stroke="rgb(33,33,33)" fill="none" stroke-linecap="round"></path><path d="M 232.500,187.000 C 231.607,185.438 231.455,185.528 230.500,184.000" stroke-width="13.878" stroke="rgb(33,33,33)" fill="none" stroke-linecap="round"></path><path d="M 230.500,184.000 C 228.955,181.528 229.045,181.472 227.500,179.000" stroke-width="13.384" stroke="rgb(33,33,33)" fill="none" stroke-linecap="round"></path><path d="M 227.500,179.000 C 226.545,177.472 226.299,177.598 225.500,176.000" stroke-width="13.495" stroke="rgb(33,33,33)" fill="none" stroke-linecap="round"></path><path d="M 225.500,176.000 C 224.799,174.598 225.292,174.320 224.500,173.000" stroke-width="13.687" stroke="rgb(33,33,33)" fill="none" stroke-linecap="round"></path><path d="M 224.500,173.000 C 223.792,171.820 223.584,171.903 222.500,171.000" stroke-width="13.924" stroke="rgb(33,33,33)" fill="none" stroke-linecap="round"></path><path d="M 222.500,171.000 C 220.584,169.403 219.929,169.786 218.500,168.000" stroke-width="13.605" stroke="rgb(33,33,33)" fill="none" stroke-linecap="round"></path><path d="M 218.500,168.000 C 217.929,167.286 219.035,166.714 218.500,166.000" stroke-width="14.055" stroke="rgb(33,33,33)" fill="none" stroke-linecap="round"></path><path d="M 218.500,166.000 C 217.535,164.714 216.734,165.234 215.500,164.000" stroke-width="14.036" stroke="rgb(33,33,33)" fill="none" stroke-linecap="round"></path><path d="M 215.500,164.000 C 214.734,163.234 215.113,162.919 214.500,162.000" stroke-width="14.361" stroke="rgb(33,33,33)" fill="none" stroke-linecap="round"></path><path d="M 214.500,162.000 C 214.113,161.419 213.941,161.551 213.500,161.000" stroke-width="14.852" stroke="rgb(33,33,33)" fill="none" stroke-linecap="round"></path><path d="M 213.500,161.000 C 211.941,159.051 212.227,158.727 210.500,157.000" stroke-width="14.303" stroke="rgb(33,33,33)" fill="none" stroke-linecap="round"></path><path d="M 210.500,157.000 C 209.727,156.227 209.527,156.440 208.500,156.000" stroke-width="14.650" stroke="rgb(33,33,33)" fill="none" stroke-linecap="round"></path><path d="M 208.500,156.000 C 206.027,154.940 205.896,155.198 203.500,154.000" stroke-width="13.873" stroke="rgb(33,33,33)" fill="none" stroke-linecap="round"></path><path d="M 203.500,154.000 C 201.896,153.198 202.159,152.474 200.500,152.000" stroke-width="13.890" stroke="rgb(33,33,33)" fill="none" stroke-linecap="round"></path><path d="M 200.500,152.000 C 198.659,151.474 198.418,152.426 196.500,152.000" stroke-width="13.810" stroke="rgb(33,33,33)" fill="none" stroke-linecap="round"></path><path d="M 196.500,152.000 C 193.918,151.426 194.029,150.920 191.500,150.000" stroke-width="13.431" stroke="rgb(33,33,33)" fill="none" stroke-linecap="round"></path><path d="M 191.500,150.000 C 188.529,148.920 188.545,148.830 185.500,148.000" stroke-width="12.945" stroke="rgb(33,33,33)" fill="none" stroke-linecap="round"></path><path d="M 185.500,148.000 C 183.045,147.330 182.875,147.864 180.500,147.000" stroke-width="12.826" stroke="rgb(33,33,33)" fill="none" stroke-linecap="round"></path><path d="M 180.500,147.000 C 177.375,145.864 177.640,145.121 174.500,144.000" stroke-width="12.237" stroke="rgb(33,33,33)" fill="none" stroke-linecap="round"></path><path d="M 174.500,144.000 C 170.640,142.621 170.552,142.579 166.500,142.000" stroke-width="11.705" stroke="rgb(33,33,33)" fill="none" stroke-linecap="round"></path><path d="M 166.500,142.000 C 163.552,141.579 163.421,142.487 160.500,142.000" stroke-width="11.678" stroke="rgb(33,33,33)" fill="none" stroke-linecap="round"></path><path d="M 160.500,142.000 C 157.421,141.487 157.539,140.760 154.500,140.000" stroke-width="11.721" stroke="rgb(33,33,33)" fill="none" stroke-linecap="round"></path><path d="M 154.500,140.000 C 153.539,139.760 153.379,140.293 152.500,140.000" stroke-width="12.407" stroke="rgb(33,33,33)" fill="none" stroke-linecap="round"></path><path d="M 152.500,140.000 C 151.879,139.793 152.121,139.207 151.500,139.000" stroke-width="13.140" stroke="rgb(33,33,33)" fill="none" stroke-linecap="round"></path><path d="M 151.500,139.000 C 150.621,138.707 150.500,139.000 149.500,139.000" stroke-width="13.590" stroke="rgb(33,33,33)" fill="none" stroke-linecap="round"></path><path d="M 149.500,139.000 C 148.500,139.000 148.500,139.000 147.500,139.000" stroke-width="14.097" stroke="rgb(33,33,33)" fill="none" stroke-linecap="round"></path><path d="M 147.500,139.000 C 146.500,139.000 146.500,139.000 145.500,139.000" stroke-width="14.473" stroke="rgb(33,33,33)" fill="none" stroke-linecap="round"></path><path d="M 145.500,139.000 C 144.000,139.000 144.000,139.000 142.500,139.000" stroke-width="14.523" stroke="rgb(33,33,33)" fill="none" stroke-linecap="round"></path><path d="M 142.500,139.000 C 142.000,139.000 142.000,139.000 141.500,139.000" stroke-width="15.107" stroke="rgb(33,33,33)" fill="none" stroke-linecap="round"></path><path d="M 141.500,139.000 C 140.500,139.000 139.300,139.000 139.500,139.000" stroke-width="15.313" stroke="rgb(33,33,33)" fill="none" stroke-linecap="round"></path><path d="M 139.500,139.000 C 139.800,139.000 141.000,139.000 142.500,139.000" stroke-width="16.008" stroke="rgb(33,33,33)" fill="none" stroke-linecap="round"></path><path d="M 142.500,139.000 C 145.500,139.000 145.601,138.473 148.500,139.000" stroke-width="15.881" stroke="rgb(33,33,33)" fill="none" stroke-linecap="round"></path><path d="M 148.500,139.000 C 151.101,139.473 150.873,140.536 153.500,141.000" stroke-width="14.948" stroke="rgb(33,33,33)" fill="none" stroke-linecap="round"></path><path d="M 153.500,141.000 C 159.373,142.036 159.488,141.777 165.500,142.000" stroke-width="12.777" stroke="rgb(33,33,33)" fill="none" stroke-linecap="round"></path><path d="M 165.500,142.000 C 172.988,142.277 173.000,142.000 180.500,142.000" stroke-width="10.988" stroke="rgb(33,33,33)" fill="none" stroke-linecap="round"></path><path d="M 180.500,142.000 C 188.500,142.000 188.590,141.058 196.500,142.000" stroke-width="9.762" stroke="rgb(33,33,33)" fill="none" stroke-linecap="round"></path><path d="M 196.500,142.000 C 209.590,143.558 209.384,145.714 222.500,147.000" stroke-width="8.031" stroke="rgb(33,33,33)" fill="none" stroke-linecap="round"></path><path d="M 222.500,147.000 C 234.884,148.214 235.005,146.750 247.500,147.000" stroke-width="7.125" stroke="rgb(33,33,33)" fill="none" stroke-linecap="round"></path><path d="M 247.500,147.000 C 260.005,147.250 260.023,147.168 272.500,148.000" stroke-width="6.750" stroke="rgb(33,33,33)" fill="none" stroke-linecap="round"></path><path d="M 272.500,148.000 C 282.523,148.668 282.538,148.701 292.500,150.000" stroke-width="6.750" stroke="rgb(33,33,33)" fill="none" stroke-linecap="round"></path><path d="M 292.500,150.000 C 305.538,151.701 305.456,152.340 318.500,154.000" stroke-width="6.750" stroke="rgb(33,33,33)" fill="none" stroke-linecap="round"></path><path d="M 318.500,154.000 C 332.956,155.840 333.129,154.765 347.500,157.000" stroke-width="6.750" stroke="rgb(33,33,33)" fill="none" stroke-linecap="round"></path><path d="M 347.500,157.000 C 355.629,158.265 355.402,159.604 363.500,161.000" stroke-width="6.750" stroke="rgb(33,33,33)" fill="none" stroke-linecap="round"></path><path d="M 363.500,161.000 C 369.902,162.104 369.995,161.580 376.500,162.000" stroke-width="6.750" stroke="rgb(33,33,33)" fill="none" stroke-linecap="round"></path><path d="M 376.500,162.000 C 385.495,162.580 385.555,162.006 394.500,163.000" stroke-width="6.750" stroke="rgb(33,33,33)" fill="none" stroke-linecap="round"></path><path d="M 394.500,163.000 C 403.555,164.006 403.467,164.754 412.500,166.000" stroke-width="6.750" stroke="rgb(33,33,33)" fill="none" stroke-linecap="round"></path><path d="M 412.500,166.000 C 417.967,166.754 417.997,166.541 423.500,167.000" stroke-width="6.750" stroke="rgb(33,33,33)" fill="none" stroke-linecap="round"></path><path d="M 423.500,167.000 C 429.997,167.541 429.991,167.740 436.500,168.000" stroke-width="6.750" stroke="rgb(33,33,33)" fill="none" stroke-linecap="round"></path><path d="M 436.500,168.000 C 442.491,168.240 442.500,168.000 448.500,168.000" stroke-width="6.926" stroke="rgb(33,33,33)" fill="none" stroke-linecap="round"></path><path d="M 448.500,168.000 C 452.000,168.000 452.000,168.000 455.500,168.000" stroke-width="7.462" stroke="rgb(33,33,33)" fill="none" stroke-linecap="round"></path><path d="M 455.500,168.000 C 460.000,168.000 460.032,167.681 464.500,168.000" stroke-width="7.876" stroke="rgb(33,33,33)" fill="none" stroke-linecap="round"></path><path d="M 464.500,168.000 C 467.032,168.181 466.978,168.720 469.500,169.000" stroke-width="8.428" stroke="rgb(33,33,33)" fill="none" stroke-linecap="round"></path><path d="M 469.500,169.000 C 471.478,169.220 471.500,169.000 473.500,169.000" stroke-width="9.113" stroke="rgb(33,33,33)" fill="none" stroke-linecap="round"></path></svg>