<svg xmlns="http://www.w3.org/2000/svg" xmlns:xlink="http://www.w3.org/1999/xlink" viewBox="0 0 768 500"><path d="M 271.000,288.000 C 275.000,291.500 274.640,292.457 279.000,295.000" stroke-width="19.496" stroke="rgb(33,33,33)" fill="none" stroke-linecap="round"></path><path d="M 279.000,295.000 C 280.640,295.957 281.476,296.016 283.000,295.000" stroke-width="18.909" stroke="rgb(33,33,33)" fill="none" stroke-linecap="round"></path><path d="M 283.000,295.000 C 285.976,293.016 285.944,292.290 288.000,289.000" stroke-width="17.779" stroke="rgb(33,33,33)" fill="none" stroke-linecap="round"></path><path d="M 288.000,289.000 C 290.944,284.290 290.895,284.168 293.000,279.000" stroke-width="15.934" stroke="rgb(33,33,33)" fill="none" stroke-linecap="round"></path><path d="M 293.000,279.000 C 296.395,270.668 295.947,270.481 299.000,262.000" stroke-width="14.496" stroke="rgb(33,33,33)" fill="none" stroke-linecap="round"></path><path d="M 299.000,262.000 C 304.947,245.481 305.557,245.670 311.000,229.000" stroke-width="12.983" stroke="rgb(33,33,33)" fill="none" stroke-linecap="round"></path><path d="M 311.000,229.000 C 313.557,221.170 313.274,221.057 315.000,213.000" stroke-width="12.142" stroke="rgb(33,33,33)" fill="none" stroke-linecap="round"></path><path d="M 315.000,213.000 C 316.274,207.057 315.862,206.973 317.000,201.000" stroke-width="12.073" stroke="rgb(33,33,33)" fill="none" stroke-linecap="round"></path><path d="M 317.000,201.000 C 317.862,196.473 317.964,196.491 319.000,192.000" stroke-width="12.220" stroke="rgb(33,33,33)" fill="none" stroke-linecap="round"></path><path d="M 319.000,192.000 C 319.464,189.991 319.027,189.621 320.000,188.000" stroke-width="12.886" stroke="rgb(33,33,33)" fill="none" stroke-linecap="round"></path><path d="M 320.000,188.000 C 320.527,187.121 321.043,186.809 322.000,187.000" stroke-width="13.599" stroke="rgb(33,33,33)" fill="none" stroke-linecap="round"></path><path d="M 322.000,187.000 C 323.543,187.309 324.340,187.398 325.000,189.000" stroke-width="14.147" stroke="rgb(33,33,33)" fill="none" stroke-linecap="round"></path><path d="M 325.000,189.000 C 327.840,195.898 327.437,196.408 329.000,204.000" stroke-width="13.157" stroke="rgb(33,33,33)" fill="none" stroke-linecap="round"></path><path d="M 329.000,204.000 C 330.937,213.408 330.677,213.476 332.000,223.000" stroke-width="12.216" stroke="rgb(33,33,33)" fill="none" stroke-linecap="round"></path><path d="M 332.000,223.000 C 333.177,231.476 332.869,231.518 334.000,240.000" stroke-width="11.638" stroke="rgb(33,33,33)" fill="none" stroke-linecap="round"></path><path d="M 334.000,240.000 C 334.869,246.518 335.217,246.474 336.000,253.000" stroke-width="11.650" stroke="rgb(33,33,33)" fill="none" stroke-linecap="round"></path><path d="M 336.000,253.000 C 336.717,258.974 336.150,259.053 337.000,265.000" stroke-width="11.631" stroke="rgb(33,33,33)" fill="none" stroke-linecap="round"></path><path d="M 337.000,265.000 C 337.650,269.553 338.000,269.500 339.000,274.000" stroke-width="11.945" stroke="rgb(33,33,33)" fill="none" stroke-linecap="round"></path><path d="M 339.000,274.000 C 340.000,278.500 340.394,278.457 341.000,283.000" stroke-width="12.060" stroke="rgb(33,33,33)" fill="none" stroke-linecap="round"></path><path d="M 341.000,283.000 C 341.394,285.957 340.730,286.027 341.000,289.000" stroke-width="12.547" stroke="rgb(33,33,33)" fill="none" stroke-linecap="round"></path><path d="M 341.000,289.000 C 341.230,291.527 341.685,291.482 342.000,294.000" stroke-width="13.024" stroke="rgb(33,33,33)" fill="none" stroke-linecap="round"></path><path d="M 342.000,294.000 C 342.185,295.482 342.000,297.682 342.000,297.000" stroke-width="13.724" stroke="rgb(33,33,33)" fill="none" stroke-linecap="round"></path><path d="M 342.000,297.000 C 342.000,295.182 341.818,292.994 342.000,289.000" stroke-width="14.141" stroke="rgb(33,33,33)" fill="none" stroke-linecap="round"></path><path d="M 342.000,289.000 C 342.318,281.994 342.181,281.965 343.000,275.000" stroke-width="13.404" stroke="rgb(33,33,33)" fill="none" stroke-linecap="round"></path><path d="M 343.000,275.000 C 344.181,264.965 343.921,264.877 346.000,255.000" stroke-width="12.299" stroke="rgb(33,33,33)" fill="none" stroke-linecap="round"></path><path d="M 346.000,255.000 C 347.921,245.877 348.610,246.029 351.000,237.000" stroke-width="11.567" stroke="rgb(33,33,33)" fill="none" stroke-linecap="round"></path><path d="M 351.000,237.000 C 353.110,229.029 353.000,229.000 355.000,221.000" stroke-width="11.352" stroke="rgb(33,33,33)" fill="none" stroke-linecap="round"></path><path d="M 355.000,221.000 C 357.000,213.000 356.580,212.864 359.000,205.000" stroke-width="11.046" stroke="rgb(33,33,33)" fill="none" stroke-linecap="round"></path><path d="M 359.000,205.000 C 360.580,199.864 361.048,200.019 363.000,195.000" stroke-width="11.242" stroke="rgb(33,33,33)" fill="none" stroke-linecap="round"></path><path d="M 363.000,195.000 C 364.548,191.019 364.359,190.938 366.000,187.000" stroke-width="11.665" stroke="rgb(33,33,33)" fill="none" stroke-linecap="round"></path><path d="M 366.000,187.000 C 366.859,184.938 366.348,183.944 368.000,183.000" stroke-width="12.313" stroke="rgb(33,33,33)" fill="none" stroke-linecap="round"></path><path d="M 368.000,183.000 C 369.848,181.944 370.625,182.472 373.000,183.000" stroke-width="12.831" stroke="rgb(33,33,33)" fill="none" stroke-linecap="round"></path><path d="M 373.000,183.000 C 375.125,183.472 375.757,183.343 377.000,185.000" stroke-width="13.365" stroke="rgb(33,33,33)" fill="none" stroke-linecap="round"></path><path d="M 377.000,185.000 C 378.757,187.343 378.558,187.909 379.000,191.000" stroke-width="13.622" stroke="rgb(33,33,33)" fill="none" stroke-linecap="round"></path><path d="M 392.000,196.000 C 392.000,190.500 392.000,190.500 392.000,185.000" stroke-width="17.113" stroke="rgb(33,33,33)" fill="none" stroke-linecap="round"></path><path d="M 392.000,185.000 C 392.000,178.500 392.605,178.453 392.000,172.000" stroke-width="15.468" stroke="rgb(33,33,33)" fill="none" stroke-linecap="round"></path><path d="M 392.000,172.000 C 391.105,162.453 390.699,162.464 389.000,153.000" stroke-width="13.860" stroke="rgb(33,33,33)" fill="none" stroke-linecap="round"></path><path d="M 389.000,153.000 C 387.199,142.964 386.440,143.081 385.000,133.000" stroke-width="12.587" stroke="rgb(33,33,33)" fill="none" stroke-linecap="round"></path><path d="M 385.000,133.000 C 383.440,122.081 384.000,122.000 383.000,111.000" stroke-width="11.592" stroke="rgb(33,33,33)" fill="none" stroke-linecap="round"></path><path d="M 383.000,111.000 C 382.000,100.000 381.826,100.013 381.000,89.000" stroke-width="10.702" stroke="rgb(33,33,33)" fill="none" stroke-linecap="round"></path><path d="M 381.000,89.000 C 380.326,80.013 380.334,80.005 380.000,71.000" stroke-width="10.515" stroke="rgb(33,33,33)" fill="none" stroke-linecap="round"></path><path d="M 380.000,71.000 C 379.834,66.505 379.600,66.405 380.000,62.000" stroke-width="10.967" stroke="rgb(33,33,33)" fill="none" stroke-linecap="round"></path><path d="M 380.000,62.000 C 380.100,60.905 380.241,59.404 381.000,60.000" stroke-width="11.876" stroke="rgb(33,33,33)" fill="none" stroke-linecap="round"></path><path d="M 381.000,60.000 C 387.241,64.904 389.236,65.304 394.000,73.000" stroke-width="11.451" stroke="rgb(33,33,33)" fill="none" stroke-linecap="round"></path><path d="M 394.000,73.000 C 402.236,86.304 401.924,87.013 407.000,102.000" stroke-width="9.934" stroke="rgb(33,33,33)" fill="none" stroke-linecap="round"></path><path d="M 407.000,102.000 C 412.424,118.013 411.000,118.500 415.000,135.000" stroke-width="8.979" stroke="rgb(33,33,33)" fill="none" stroke-linecap="round"></path><path d="M 415.000,135.000 C 419.000,151.500 419.876,151.338 423.000,168.000" stroke-width="8.425" stroke="rgb(33,33,33)" fill="none" stroke-linecap="round"></path><path d="M 423.000,168.000 C 425.876,183.338 425.963,183.438 427.000,199.000" stroke-width="8.130" stroke="rgb(33,33,33)" fill="none" stroke-linecap="round"></path><path d="M 427.000,199.000 C 427.963,213.438 427.902,213.571 427.000,228.000" stroke-width="7.926" stroke="rgb(33,33,33)" fill="none" stroke-linecap="round"></path><path d="M 461.000,180.000 C 462.000,177.500 462.650,177.625 463.000,175.000" stroke-width="19.164" stroke="rgb(33,33,33)" fill="none" stroke-linecap="round"></path><path d="M 463.000,175.000 C 463.650,170.125 463.000,170.000 463.000,165.000" stroke-width="17.754" stroke="rgb(33,33,33)" fill="none" stroke-linecap="round"></path><path d="M 463.000,165.000 C 463.000,159.000 463.615,158.946 463.000,153.000" stroke-width="15.914" stroke="rgb(33,33,33)" fill="none" stroke-linecap="round"></path><path d="M 463.000,153.000 C 462.115,144.446 460.978,144.560 460.000,136.000" stroke-width="14.250" stroke="rgb(33,33,33)" fill="none" stroke-linecap="round"></path><path d="M 460.000,136.000 C 458.978,127.060 459.792,126.974 459.000,118.000" stroke-width="13.073" stroke="rgb(33,33,33)" fill="none" stroke-linecap="round"></path><path d="M 459.000,118.000 C 458.292,109.974 458.065,109.991 457.000,102.000" stroke-width="12.242" stroke="rgb(33,33,33)" fill="none" stroke-linecap="round"></path><path d="M 457.000,102.000 C 456.065,94.991 456.036,94.995 455.000,88.000" stroke-width="12.164" stroke="rgb(33,33,33)" fill="none" stroke-linecap="round"></path><path d="M 455.000,88.000 C 454.036,81.495 454.026,81.496 453.000,75.000" stroke-width="11.775" stroke="rgb(33,33,33)" fill="none" stroke-linecap="round"></path><path d="M 453.000,75.000 C 452.526,71.996 452.429,72.006 452.000,69.000" stroke-width="12.293" stroke="rgb(33,33,33)" fill="none" stroke-linecap="round"></path><path d="M 452.000,69.000 C 451.929,68.506 451.874,67.559 452.000,68.000" stroke-width="13.239" stroke="rgb(33,33,33)" fill="none" stroke-linecap="round"></path><path d="M 452.000,68.000 C 454.874,78.059 455.669,78.862 458.000,90.000" stroke-width="12.851" stroke="rgb(33,33,33)" fill="none" stroke-linecap="round"></path><path d="M 458.000,90.000 C 460.169,100.362 459.775,100.468 461.000,111.000" stroke-width="11.841" stroke="rgb(33,33,33)" fill="none" stroke-linecap="round"></path><path d="M 461.000,111.000 C 462.275,121.968 461.953,122.005 463.000,133.000" stroke-width="11.078" stroke="rgb(33,33,33)" fill="none" stroke-linecap="round"></path><path d="M 463.000,133.000 C 463.953,143.005 463.540,143.072 465.000,153.000" stroke-width="10.582" stroke="rgb(33,33,33)" fill="none" stroke-linecap="round"></path><path d="M 465.000,153.000 C 466.040,160.072 466.720,159.963 468.000,167.000" stroke-width="10.661" stroke="rgb(33,33,33)" fill="none" stroke-linecap="round"></path><path d="M 468.000,167.000 C 468.720,170.963 467.908,171.179 469.000,175.000" stroke-width="11.161" stroke="rgb(33,33,33)" fill="none" stroke-linecap="round"></path><path d="M 469.000,175.000 C 469.908,178.179 470.125,178.375 472.000,181.000" stroke-width="11.703" stroke="rgb(33,33,33)" fill="none" stroke-linecap="round"></path><path d="M 472.000,181.000 C 472.625,181.875 472.924,181.821 474.000,182.000" stroke-width="12.560" stroke="rgb(33,33,33)" fill="none" stroke-linecap="round"></path><path d="M 474.000,182.000 C 475.924,182.321 476.462,182.961 478.000,182.000" stroke-width="13.176" stroke="rgb(33,33,33)" fill="none" stroke-linecap="round"></path><path d="M 478.000,182.000 C 480.462,180.461 480.229,179.656 482.000,177.000" stroke-width="13.415" stroke="rgb(33,33,33)" fill="none" stroke-linecap="round"></path><path d="M 482.000,177.000 C 484.229,173.656 484.600,173.732 486.000,170.000" stroke-width="13.478" stroke="rgb(33,33,33)" fill="none" stroke-linecap="round"></path><path d="M 486.000,170.000 C 487.600,165.732 487.096,165.519 488.000,161.000" stroke-width="13.407" stroke="rgb(33,33,33)" fill="none" stroke-linecap="round"></path><path d="M 488.000,161.000 C 488.596,158.019 488.500,158.000 489.000,155.000" stroke-width="13.683" stroke="rgb(33,33,33)" fill="none" stroke-linecap="round"></path><path d="M 489.000,155.000 C 489.500,152.000 489.811,152.026 490.000,149.000" stroke-width="13.870" stroke="rgb(33,33,33)" fill="none" stroke-linecap="round"></path><path d="M 490.000,149.000 C 490.311,144.026 489.299,143.906 490.000,139.000" stroke-width="13.691" stroke="rgb(33,33,33)" fill="none" stroke-linecap="round"></path><path d="M 490.000,139.000 C 490.799,133.406 491.500,133.500 493.000,128.000" stroke-width="13.190" stroke="rgb(33,33,33)" fill="none" stroke-linecap="round"></path><path d="M 493.000,128.000 C 494.500,122.500 494.618,122.530 496.000,117.000" stroke-width="12.961" stroke="rgb(33,33,33)" fill="none" stroke-linecap="round"></path><path d="M 496.000,117.000 C 497.618,110.530 497.247,110.429 499.000,104.000" stroke-width="12.602" stroke="rgb(33,33,33)" fill="none" stroke-linecap="round"></path><path d="M 499.000,104.000 C 500.247,99.429 501.029,99.613 502.000,95.000" stroke-width="12.624" stroke="rgb(33,33,33)" fill="none" stroke-linecap="round"></path><path d="M 502.000,95.000 C 503.029,90.113 502.413,89.989 503.000,85.000" stroke-width="12.644" stroke="rgb(33,33,33)" fill="none" stroke-linecap="round"></path><path d="M 503.000,85.000 C 503.413,81.489 503.681,81.513 504.000,78.000" stroke-width="12.944" stroke="rgb(33,33,33)" fill="none" stroke-linecap="round"></path><path d="M 504.000,78.000 C 504.181,76.013 504.000,76.000 504.000,74.000" stroke-width="13.486" stroke="rgb(33,33,33)" fill="none" stroke-linecap="round"></path><path d="M 504.000,74.000 C 504.000,72.000 504.000,72.000 504.000,70.000" stroke-width="13.982" stroke="rgb(33,33,33)" fill="none" stroke-linecap="round"></path><path d="M 504.000,70.000 C 504.000,69.500 503.667,69.167 504.000,69.000" stroke-width="14.777" stroke="rgb(33,33,33)" fill="none" stroke-linecap="round"></path><path d="M 504.000,69.000 C 504.667,68.667 505.000,69.000 506.000,69.000" stroke-width="15.526" stroke="rgb(33,33,33)" fill="none" stroke-linecap="round"></path><path d="M 506.000,69.000 C 510.000,69.000 510.000,69.000 514.000,69.000" stroke-width="15.140" stroke="rgb(33,33,33)" fill="none" stroke-linecap="round"></path><path d="M 514.000,69.000 C 517.000,69.000 517.052,69.421 520.000,69.000" stroke-width="15.055" stroke="rgb(33,33,33)" fill="none" stroke-linecap="round"></path><path d="M 520.000,69.000 C 524.052,68.421 523.976,67.894 528.000,67.000" stroke-width="14.748" stroke="rgb(33,33,33)" fill="none" stroke-linecap="round"></path><path d="M 528.000,67.000 C 532.976,65.894 533.062,66.234 538.000,65.000" stroke-width="14.201" stroke="rgb(33,33,33)" fill="none" stroke-linecap="round"></path><path d="M 538.000,65.000 C 541.062,64.234 540.955,63.830 544.000,63.000" stroke-width="14.310" stroke="rgb(33,33,33)" fill="none" stroke-linecap="round"></path><path d="M 544.000,63.000 C 546.455,62.330 546.471,62.211 549.000,62.000" stroke-width="14.867" stroke="rgb(33,33,33)" fill="none" stroke-linecap="round"></path><path d="M 549.000,62.000 C 552.471,61.711 552.518,61.751 556.000,62.000" stroke-width="7.529" stroke="rgb(33,33,33)" fill="none" stroke-linecap="round"></path><path d="M 556.000,62.000 C 559.518,62.251 559.911,61.575 563.000,63.000" stroke-width="8.299" stroke="rgb(33,33,33)" fill="none" stroke-linecap="round"></path><path d="M 563.000,63.000 C 566.411,64.575 566.000,65.500 569.000,68.000" stroke-width="9.001" stroke="rgb(33,33,33)" fill="none" stroke-linecap="round"></path><path d="M 569.000,68.000 C 572.000,70.500 572.019,70.478 575.000,73.000" stroke-width="9.655" stroke="rgb(33,33,33)" fill="none" stroke-linecap="round"></path><path d="M 575.000,73.000 C 578.519,75.978 578.379,76.155 582.000,79.000" stroke-width="10.194" stroke="rgb(33,33,33)" fill="none" stroke-linecap="round"></path><path d="M 582.000,79.000 C 585.379,81.655 585.287,81.878 589.000,84.000" stroke-width="10.712" stroke="rgb(33,33,33)" fill="none" stroke-linecap="round"></path><path d="M 589.000,84.000 C 592.287,85.878 592.680,85.189 596.000,87.000" stroke-width="11.204" stroke="rgb(33,33,33)" fill="none" stroke-linecap="round"></path><path d="M 596.000,87.000 C 598.180,88.189 597.927,88.618 600.000,90.000" stroke-width="11.878" stroke="rgb(33,33,33)" fill="none" stroke-linecap="round"></path><path d="M 600.000,90.000 C 600.927,90.618 601.117,90.338 602.000,91.000" stroke-width="12.735" stroke="rgb(33,33,33)" fill="none" stroke-linecap="round"></path><path d="M 602.000,91.000 C 603.117,91.838 603.515,91.787 604.000,93.000" stroke-width="13.433" stroke="rgb(33,33,33)" fill="none" stroke-linecap="round"></path><path d="M 604.000,93.000 C 604.515,94.287 605.098,95.156 604.000,96.000" stroke-width="14.069" stroke="rgb(33,33,33)" fill="none" stroke-linecap="round"></path><path d="M 604.000,96.000 C 598.598,100.156 597.360,99.259 591.000,103.000" stroke-width="13.184" stroke="rgb(33,33,33)" fill="none" stroke-linecap="round"></path><path d="M 591.000,103.000 C 580.360,109.259 580.510,109.515 570.000,116.000" stroke-width="11.654" stroke="rgb(33,33,33)" fill="none" stroke-linecap="round"></path><path d="M 570.000,116.000 C 557.010,124.015 557.108,124.181 544.000,132.000" stroke-width="10.389" stroke="rgb(33,33,33)" fill="none" stroke-linecap="round"></path><path d="M 544.000,132.000 C 528.608,141.181 528.430,140.882 513.000,150.000" stroke-width="9.477" stroke="rgb(33,33,33)" fill="none" stroke-linecap="round"></path><path d="M 513.000,150.000 C 495.430,160.382 495.565,160.610 478.000,171.000" stroke-width="8.125" stroke="rgb(33,33,33)" fill="none" stroke-linecap="round"></path><path d="M 478.000,171.000 C 460.065,181.610 459.723,181.053 442.000,192.000" stroke-width="7.544" stroke="rgb(33,33,33)" fill="none" stroke-linecap="round"></path><path d="M 442.000,192.000 C 425.723,202.053 426.238,202.884 410.000,213.000" stroke-width="7.303" stroke="rgb(33,33,33)" fill="none" stroke-linecap="round"></path><path d="M 410.000,213.000 C 395.738,221.884 395.700,221.862 381.000,230.000" stroke-width="7.065" stroke="rgb(33,33,33)" fill="none" stroke-linecap="round"></path><path d="M 381.000,230.000 C 367.700,237.362 367.600,237.200 354.000,244.000" stroke-width="7.103" stroke="rgb(33,33,33)" fill="none" stroke-linecap="round"></path><path d="M 354.000,244.000 C 343.600,249.200 343.335,248.685 333.000,254.000" stroke-width="7.352" stroke="rgb(33,33,33)" fill="none" stroke-linecap="round"></path><path d="M 333.000,254.000 C 325.835,257.685 326.139,258.275 319.000,262.000" stroke-width="7.841" stroke="rgb(33,33,33)" fill="none" stroke-linecap="round"></path><path d="M 319.000,262.000 C 314.639,264.275 314.461,263.918 310.000,266.000" stroke-width="8.501" stroke="rgb(33,33,33)" fill="none" stroke-linecap="round"></path><path d="M 310.000,266.000 C 306.961,267.418 307.000,267.500 304.000,269.000" stroke-width="9.225" stroke="rgb(33,33,33)" fill="none" stroke-linecap="round"></path><path d="M 304.000,269.000 C 303.000,269.500 301.297,270.312 302.000,270.000" stroke-width="10.207" stroke="rgb(33,33,33)" fill="none" stroke-linecap="round"></path><path d="M 302.000,270.000 C 305.797,268.312 307.792,268.038 313.000,265.000" stroke-width="10.897" stroke="rgb(33,33,33)" fill="none" stroke-linecap="round"></path><path d="M 313.000,265.000 C 325.792,257.538 325.746,257.364 338.000,249.000" stroke-width="10.043" stroke="rgb(33,33,33)" fill="none" stroke-linecap="round"></path><path d="M 338.000,249.000 C 357.246,235.864 356.814,235.232 376.000,222.000" stroke-width="8.317" stroke="rgb(33,33,33)" fill="none" stroke-linecap="round"></path><path d="M 376.000,222.000 C 400.314,205.232 400.689,205.774 425.000,189.000" stroke-width="7.123" stroke="rgb(33,33,33)" fill="none" stroke-linecap="round"></path></svg>