<svg xmlns="http://www.w3.org/2000/svg" xmlns:xlink="http://www.w3.org/1999/xlink" viewBox="0 0 412 500"><path d="M 287.679,452.107 C 281.130,437.312 279.300,437.875 274.581,422.516" stroke-width="18.308" stroke="rgb(33,33,33)" fill="none" stroke-linecap="round"></path><path d="M 274.581,422.516 C 269.796,406.945 270.022,406.498 268.671,390.247" stroke-width="13.768" stroke="rgb(33,33,33)" fill="none" stroke-linecap="round"></path><path d="M 268.671,390.247 C 267.552,376.792 268.248,376.585 269.641,363.103" stroke-width="11.799" stroke="rgb(33,33,33)" fill="none" stroke-linecap="round"></path><path d="M 269.641,363.103 C 271.230,347.720 271.416,347.656 274.636,332.516" stroke-width="10.195" stroke="rgb(33,33,33)" fill="none" stroke-linecap="round"></path><path d="M 274.636,332.516 C 277.891,317.211 277.670,317.047 282.590,302.213" stroke-width="9.476" stroke="rgb(33,33,33)" fill="none" stroke-linecap="round"></path><path d="M 282.590,302.213 C 286.933,289.119 287.460,289.245 293.162,276.660" stroke-width="9.503" stroke="rgb(33,33,33)" fill="none" stroke-linecap="round"></path><path d="M 293.162,276.660 C 297.201,267.744 297.327,267.772 302.072,259.212" stroke-width="9.179" stroke="rgb(33,33,33)" fill="none" stroke-linecap="round"></path><path d="M 302.072,259.212 C 305.334,253.327 305.329,253.281 309.176,247.769" stroke-width="9.577" stroke="rgb(33,33,33)" fill="none" stroke-linecap="round"></path><path d="M 309.176,247.769 C 312.105,243.573 312.496,243.856 315.624,239.797" stroke-width="9.984" stroke="rgb(33,33,33)" fill="none" stroke-linecap="round"></path><path d="M 315.624,239.797 C 317.753,237.034 317.683,236.980 319.690,234.126" stroke-width="10.492" stroke="rgb(33,33,33)" fill="none" stroke-linecap="round"></path><path d="M 319.690,234.126 C 321.348,231.768 321.067,231.513 322.955,229.374" stroke-width="11.176" stroke="rgb(33,33,33)" fill="none" stroke-linecap="round"></path><path d="M 322.955,229.374 C 324.287,227.865 324.533,228.091 326.129,226.831" stroke-width="11.910" stroke="rgb(33,33,33)" fill="none" stroke-linecap="round"></path><path d="M 326.129,226.831 C 326.839,226.270 326.770,226.119 327.566,225.732" stroke-width="12.830" stroke="rgb(33,33,33)" fill="none" stroke-linecap="round"></path><path d="M 327.566,225.732 C 328.308,225.371 328.391,225.358 329.204,225.335" stroke-width="13.659" stroke="rgb(33,33,33)" fill="none" stroke-linecap="round"></path><path d="M 329.204,225.335 C 329.727,225.320 329.758,225.430 330.238,225.657" stroke-width="14.491" stroke="rgb(33,33,33)" fill="none" stroke-linecap="round"></path><path d="M 330.238,225.657 C 330.483,225.773 330.446,225.838 330.653,226.021" stroke-width="15.237" stroke="rgb(33,33,33)" fill="none" stroke-linecap="round"></path><path d="M 330.653,226.021 C 330.857,226.201 330.813,226.291 331.060,226.383" stroke-width="15.966" stroke="rgb(33,33,33)" fill="none" stroke-linecap="round"></path></svg>