<svg xmlns="http://www.w3.org/2000/svg" xmlns:xlink="http://www.w3.org/1999/xlink" viewBox="0 0 360 500"><path d="M 258.000,63.000 C 253.851,69.132 253.834,69.122 249.701,75.265" stroke-width="19.656" stroke="rgb(33,33,33)" fill="none" stroke-linecap="round"></path><path d="M 249.701,75.265 C 244.761,82.606 244.667,82.545 239.854,89.969" stroke-width="16.070" stroke="rgb(33,33,33)" fill="none" stroke-linecap="round"></path><path d="M 239.854,89.969 C 233.664,99.517 234.022,99.754 227.694,109.209" stroke-width="13.721" stroke="rgb(33,33,33)" fill="none" stroke-linecap="round"></path><path d="M 227.694,109.209 C 220.481,119.987 220.438,119.971 212.773,130.434" stroke-width="12.133" stroke="rgb(33,33,33)" fill="none" stroke-linecap="round"></path><path d="M 212.773,130.434 C 203.530,143.051 203.340,142.913 193.879,155.370" stroke-width="10.216" stroke="rgb(33,33,33)" fill="none" stroke-linecap="round"></path><path d="M 193.879,155.370 C 182.933,169.784 183.092,169.908 171.959,184.176" stroke-width="9.156" stroke="rgb(33,33,33)" fill="none" stroke-linecap="round"></path><path d="M 171.959,184.176 C 160.885,198.369 160.693,198.219 149.466,212.292" stroke-width="8.463" stroke="rgb(33,33,33)" fill="none" stroke-linecap="round"></path><path d="M 149.466,212.292 C 139.887,224.300 139.754,224.198 130.346,236.339" stroke-width="8.106" stroke="rgb(33,33,33)" fill="none" stroke-linecap="round"></path><path d="M 130.346,236.339 C 122.748,246.144 122.886,246.251 115.454,256.183" stroke-width="8.419" stroke="rgb(33,33,33)" fill="none" stroke-linecap="round"></path><path d="M 115.454,256.183 C 110.704,262.531 110.676,262.511 105.981,268.899" stroke-width="8.614" stroke="rgb(33,33,33)" fill="none" stroke-linecap="round"></path><path d="M 105.981,268.899 C 102.809,273.215 102.847,273.243 99.720,277.592" stroke-width="9.066" stroke="rgb(33,33,33)" fill="none" stroke-linecap="round"></path><path d="M 99.720,277.592 C 98.219,279.681 98.208,279.674 96.725,281.775" stroke-width="9.946" stroke="rgb(33,33,33)" fill="none" stroke-linecap="round"></path><path d="M 96.725,281.775 C 96.038,282.748 96.062,282.765 95.379,283.741" stroke-width="10.949" stroke="rgb(33,33,33)" fill="none" stroke-linecap="round"></path><path d="M 95.379,283.741 C 94.897,284.430 94.484,285.174 94.395,285.105" stroke-width="11.993" stroke="rgb(33,33,33)" fill="none" stroke-linecap="round"></path><path d="M 94.395,285.105 C 94.302,285.033 94.526,284.186 95.014,283.458" stroke-width="11.728" stroke="rgb(33,33,33)" fill="none" stroke-linecap="round"></path><path d="M 95.014,283.458 C 98.774,277.850 98.978,277.963 102.892,272.433" stroke-width="11.492" stroke="rgb(33,33,33)" fill="none" stroke-linecap="round"></path><path d="M 102.892,272.433 C 109.370,263.282 109.257,263.201 115.798,254.096" stroke-width="11.221" stroke="rgb(33,33,33)" fill="none" stroke-linecap="round"></path><path d="M 115.798,254.096 C 123.070,243.972 123.202,244.067 130.519,233.975" stroke-width="9.214" stroke="rgb(33,33,33)" fill="none" stroke-linecap="round"></path><path d="M 130.519,233.975 C 139.290,221.879 139.028,221.684 147.974,209.720" stroke-width="8.685" stroke="rgb(33,33,33)" fill="none" stroke-linecap="round"></path><path d="M 147.974,209.720 C 157.784,196.601 158.213,196.922 168.031,183.808" stroke-width="8.262" stroke="rgb(33,33,33)" fill="none" stroke-linecap="round"></path><path d="M 168.031,183.808 C 177.799,170.760 177.795,170.746 187.146,157.396" stroke-width="7.885" stroke="rgb(33,33,33)" fill="none" stroke-linecap="round"></path><path d="M 187.146,157.396 C 194.973,146.222 194.927,146.181 202.388,134.760" stroke-width="7.917" stroke="rgb(33,33,33)" fill="none" stroke-linecap="round"></path><path d="M 202.388,134.760 C 207.154,127.464 207.012,127.371 211.601,119.961" stroke-width="8.170" stroke="rgb(33,33,33)" fill="none" stroke-linecap="round"></path><path d="M 211.601,119.961 C 214.104,115.919 214.105,115.919 216.573,111.855" stroke-width="8.824" stroke="rgb(33,33,33)" fill="none" stroke-linecap="round"></path><path d="M 216.573,111.855 C 217.900,109.669 217.915,109.677 219.192,107.462" stroke-width="9.661" stroke="rgb(33,33,33)" fill="none" stroke-linecap="round"></path><path d="M 219.192,107.462 C 219.792,106.421 219.741,106.392 220.328,105.344" stroke-width="10.629" stroke="rgb(33,33,33)" fill="none" stroke-linecap="round"></path><path d="M 220.328,105.344 C 220.795,104.511 220.874,104.552 221.300,103.700" stroke-width="11.585" stroke="rgb(33,33,33)" fill="none" stroke-linecap="round"></path><path d="M 221.300,103.700 C 221.710,102.880 221.512,102.402 222.000,102.000" stroke-width="12.500" stroke="rgb(33,33,33)" fill="none" stroke-linecap="round"></path><path d="M 222.000,102.000 C 222.241,101.802 222.348,102.351 222.757,102.500" stroke-width="13.434" stroke="rgb(33,33,33)" fill="none" stroke-linecap="round"></path><path d="M 222.757,102.500 C 223.032,102.601 223.063,102.500 223.368,102.500" stroke-width="14.326" stroke="rgb(33,33,33)" fill="none" stroke-linecap="round"></path><path d="M 223.368,102.500 C 223.786,102.500 223.786,102.500 224.204,102.500" stroke-width="15.111" stroke="rgb(33,33,33)" fill="none" stroke-linecap="round"></path><path d="M 224.204,102.500 C 224.701,102.500 224.721,102.376 225.198,102.500" stroke-width="15.765" stroke="rgb(33,33,33)" fill="none" stroke-linecap="round"></path><path d="M 225.198,102.500 C 227.286,103.043 227.198,103.483 229.334,103.834" stroke-width="15.797" stroke="rgb(33,33,33)" fill="none" stroke-linecap="round"></path><path d="M 229.334,103.834 C 235.291,104.812 235.345,104.657 241.383,105.157" stroke-width="14.887" stroke="rgb(33,33,33)" fill="none" stroke-linecap="round"></path><path d="M 241.383,105.157 C 249.186,105.803 249.193,105.917 257.017,106.126" stroke-width="13.646" stroke="rgb(33,33,33)" fill="none" stroke-linecap="round"></path><path d="M 257.017,106.126 C 265.001,106.339 265.067,106.717 273.000,106.000" stroke-width="12.855" stroke="rgb(33,33,33)" fill="none" stroke-linecap="round"></path><path d="M 273.000,106.000 C 280.964,105.281 280.919,104.702 288.811,103.254" stroke-width="12.280" stroke="rgb(33,33,33)" fill="none" stroke-linecap="round"></path><path d="M 288.811,103.254 C 296.418,101.858 296.457,102.011 303.998,100.313" stroke-width="11.825" stroke="rgb(33,33,33)" fill="none" stroke-linecap="round"></path><path d="M 303.998,100.313 C 309.506,99.073 309.418,98.691 314.909,97.377" stroke-width="11.943" stroke="rgb(33,33,33)" fill="none" stroke-linecap="round"></path><path d="M 314.909,97.377 C 318.460,96.527 318.532,96.831 322.082,95.986" stroke-width="12.329" stroke="rgb(33,33,33)" fill="none" stroke-linecap="round"></path><path d="M 322.082,95.986 C 324.568,95.394 324.555,95.314 326.980,94.504" stroke-width="12.799" stroke="rgb(33,33,33)" fill="none" stroke-linecap="round"></path><path d="M 326.980,94.504 C 328.239,94.083 328.204,93.983 329.450,93.525" stroke-width="13.527" stroke="rgb(33,33,33)" fill="none" stroke-linecap="round"></path><path d="M 329.450,93.525 C 330.193,93.252 330.190,93.199 330.959,93.041" stroke-width="14.334" stroke="rgb(33,33,33)" fill="none" stroke-linecap="round"></path><path d="M 330.959,93.041 C 331.465,92.937 331.497,93.111 332.000,93.000" stroke-width="15.085" stroke="rgb(33,33,33)" fill="none" stroke-linecap="round"></path><path d="M 332.000,93.000 C 332.723,92.840 332.690,92.660 333.411,92.500" stroke-width="15.651" stroke="rgb(33,33,33)" fill="none" stroke-linecap="round"></path><path d="M 333.411,92.500 C 333.815,92.410 334.599,92.406 334.250,92.500" stroke-width="16.279" stroke="rgb(33,33,33)" fill="none" stroke-linecap="round"></path><path d="M 334.250,92.500 C 329.688,93.725 328.901,93.749 323.589,95.137" stroke-width="16.279" stroke="rgb(33,33,33)" fill="none" stroke-linecap="round"></path><path d="M 323.589,95.137 C 313.953,97.655 313.953,97.657 304.354,100.313" stroke-width="13.863" stroke="rgb(33,33,33)" fill="none" stroke-linecap="round"></path><path d="M 304.354,100.313 C 293.974,103.186 293.956,103.129 283.632,106.195" stroke-width="12.484" stroke="rgb(33,33,33)" fill="none" stroke-linecap="round"></path><path d="M 283.632,106.195 C 274.182,109.002 274.254,109.246 264.806,112.058" stroke-width="11.611" stroke="rgb(33,33,33)" fill="none" stroke-linecap="round"></path><path d="M 264.806,112.058 C 255.771,114.747 255.719,114.569 246.666,117.198" stroke-width="11.144" stroke="rgb(33,33,33)" fill="none" stroke-linecap="round"></path><path d="M 246.666,117.198 C 238.809,119.480 238.821,119.521 230.986,121.879" stroke-width="10.898" stroke="rgb(33,33,33)" fill="none" stroke-linecap="round"></path><path d="M 230.986,121.879 C 224.597,123.802 224.549,123.662 218.219,125.760" stroke-width="11.036" stroke="rgb(33,33,33)" fill="none" stroke-linecap="round"></path><path d="M 218.219,125.760 C 213.791,127.228 213.875,127.475 209.469,129.010" stroke-width="11.430" stroke="rgb(33,33,33)" fill="none" stroke-linecap="round"></path><path d="M 209.469,129.010 C 206.635,129.997 206.604,129.909 203.739,130.804" stroke-width="11.931" stroke="rgb(33,33,33)" fill="none" stroke-linecap="round"></path><path d="M 203.739,130.804 C 201.622,131.466 201.572,131.338 199.503,132.124" stroke-width="12.600" stroke="rgb(33,33,33)" fill="none" stroke-linecap="round"></path><path d="M 199.503,132.124 C 197.731,132.797 197.737,132.841 196.057,133.722" stroke-width="13.253" stroke="rgb(33,33,33)" fill="none" stroke-linecap="round"></path><path d="M 196.057,133.722 C 194.362,134.611 194.405,134.694 192.753,135.665" stroke-width="13.800" stroke="rgb(33,33,33)" fill="none" stroke-linecap="round"></path><path d="M 192.753,135.665 C 191.565,136.364 191.374,136.141 190.377,137.062" stroke-width="14.378" stroke="rgb(33,33,33)" fill="none" stroke-linecap="round"></path><path d="M 190.377,137.062 C 188.913,138.414 188.973,138.543 187.831,140.211" stroke-width="14.869" stroke="rgb(33,33,33)" fill="none" stroke-linecap="round"></path><path d="M 187.831,140.211 C 185.480,143.644 185.006,143.455 183.390,147.263" stroke-width="14.750" stroke="rgb(33,33,33)" fill="none" stroke-linecap="round"></path><path d="M 183.390,147.263 C 180.585,153.873 180.422,153.970 178.990,161.046" stroke-width="14.688" stroke="rgb(33,33,33)" fill="none" stroke-linecap="round"></path><path d="M 178.990,161.046 C 174.786,181.826 175.748,182.045 172.118,202.976" stroke-width="8.562" stroke="rgb(33,33,33)" fill="none" stroke-linecap="round"></path><path d="M 172.118,202.976 C 169.916,215.671 169.995,215.695 167.327,228.298" stroke-width="7.766" stroke="rgb(33,33,33)" fill="none" stroke-linecap="round"></path><path d="M 167.327,228.298 C 164.727,240.584 164.621,240.568 161.582,252.755" stroke-width="7.788" stroke="rgb(33,33,33)" fill="none" stroke-linecap="round"></path><path d="M 161.582,252.755 C 159.220,262.226 158.920,262.151 156.524,271.614" stroke-width="8.068" stroke="rgb(33,33,33)" fill="none" stroke-linecap="round"></path><path d="M 156.524,271.614 C 154.377,280.093 154.611,280.152 152.496,288.639" stroke-width="8.466" stroke="rgb(33,33,33)" fill="none" stroke-linecap="round"></path><path d="M 152.496,288.639 C 151.077,294.332 150.938,294.297 149.457,299.975" stroke-width="9.100" stroke="rgb(33,33,33)" fill="none" stroke-linecap="round"></path><path d="M 149.457,299.975 C 148.528,303.538 148.661,303.575 147.676,307.120" stroke-width="9.876" stroke="rgb(33,33,33)" fill="none" stroke-linecap="round"></path><path d="M 147.676,307.120 C 147.030,309.445 146.873,309.400 146.196,311.715" stroke-width="10.692" stroke="rgb(33,33,33)" fill="none" stroke-linecap="round"></path><path d="M 146.196,311.715 C 145.785,313.121 145.897,313.152 145.500,314.562" stroke-width="11.633" stroke="rgb(33,33,33)" fill="none" stroke-linecap="round"></path><path d="M 145.500,314.562 C 145.049,316.163 144.967,316.140 144.500,317.736" stroke-width="12.442" stroke="rgb(33,33,33)" fill="none" stroke-linecap="round"></path><path d="M 144.500,317.736 C 144.359,318.218 144.462,318.265 144.283,318.717" stroke-width="13.354" stroke="rgb(33,33,33)" fill="none" stroke-linecap="round"></path><path d="M 144.283,318.717 C 144.212,318.897 144.142,318.859 144.000,319.000" stroke-width="14.279" stroke="rgb(33,33,33)" fill="none" stroke-linecap="round"></path><path d="M 144.000,319.000 C 144.000,319.000 144.000,319.000 144.000,319.000" stroke-width="15.174" stroke="rgb(33,33,33)" fill="none" stroke-linecap="round"></path><path d="M 144.000,319.000 C 144.000,318.500 144.000,318.000 144.000,318.000" stroke-width="15.956" stroke="rgb(33,33,33)" fill="none" stroke-linecap="round"></path><path d="M 144.000,318.000 C 144.000,318.000 143.750,318.750 144.000,319.000" stroke-width="16.647" stroke="rgb(33,33,33)" fill="none" stroke-linecap="round"></path><path d="M 144.000,319.000 C 144.250,319.250 144.500,319.000 145.000,319.000" stroke-width="17.173" stroke="rgb(33,33,33)" fill="none" stroke-linecap="round"></path><path d="M 145.000,319.000 C 145.000,319.000 145.000,319.000 145.000,319.000" stroke-width="17.711" stroke="rgb(33,33,33)" fill="none" stroke-linecap="round"></path><path d="M 145.000,319.000 C 145.580,318.420 145.779,318.552 146.160,317.840" stroke-width="17.839" stroke="rgb(33,33,33)" fill="none" stroke-linecap="round"></path><path d="M 146.160,317.840 C 147.166,315.959 147.086,315.870 147.774,313.815" stroke-width="17.469" stroke="rgb(33,33,33)" fill="none" stroke-linecap="round"></path><path d="M 147.774,313.815 C 150.528,305.587 150.541,305.584 153.045,297.273" stroke-width="15.207" stroke="rgb(33,33,33)" fill="none" stroke-linecap="round"></path><path d="M 153.045,297.273 C 156.183,286.857 156.186,286.854 159.058,276.362" stroke-width="13.311" stroke="rgb(33,33,33)" fill="none" stroke-linecap="round"></path><path d="M 159.058,276.362 C 162.126,265.152 161.989,265.115 164.925,253.869" stroke-width="11.859" stroke="rgb(33,33,33)" fill="none" stroke-linecap="round"></path><path d="M 164.925,253.869 C 167.591,243.660 167.676,243.682 170.262,233.453" stroke-width="11.247" stroke="rgb(33,33,33)" fill="none" stroke-linecap="round"></path><path d="M 170.262,233.453 C 172.772,223.526 173.043,223.577 175.116,213.558" stroke-width="10.583" stroke="rgb(33,33,33)" fill="none" stroke-linecap="round"></path><path d="M 175.116,213.558 C 176.668,206.056 176.380,205.994 177.512,198.411" stroke-width="10.595" stroke="rgb(33,33,33)" fill="none" stroke-linecap="round"></path><path d="M 177.512,198.411 C 178.316,193.024 178.426,193.031 178.987,187.617" stroke-width="10.904" stroke="rgb(33,33,33)" fill="none" stroke-linecap="round"></path><path d="M 178.987,187.617 C 179.420,183.445 179.333,183.431 179.500,179.239" stroke-width="11.443" stroke="rgb(33,33,33)" fill="none" stroke-linecap="round"></path><path d="M 179.500,179.239 C 179.589,176.995 179.500,176.993 179.500,174.746" stroke-width="12.136" stroke="rgb(33,33,33)" fill="none" stroke-linecap="round"></path><path d="M 179.500,174.746 C 179.500,173.453 179.500,173.453 179.500,172.161" stroke-width="12.904" stroke="rgb(33,33,33)" fill="none" stroke-linecap="round"></path><path d="M 179.500,172.161 C 179.500,171.181 179.500,171.181 179.500,170.201" stroke-width="13.737" stroke="rgb(33,33,33)" fill="none" stroke-linecap="round"></path><path d="M 179.500,170.201 C 179.500,169.412 179.500,169.412 179.500,168.624" stroke-width="14.523" stroke="rgb(33,33,33)" fill="none" stroke-linecap="round"></path><path d="M 179.500,168.624 C 179.500,167.395 179.500,167.395 179.500,166.165" stroke-width="15.137" stroke="rgb(33,33,33)" fill="none" stroke-linecap="round"></path><path d="M 179.500,166.165 C 179.500,165.677 179.500,165.677 179.500,165.188" stroke-width="15.840" stroke="rgb(33,33,33)" fill="none" stroke-linecap="round"></path><path d="M 179.500,165.188 C 179.500,164.702 179.606,164.681 179.500,164.216" stroke-width="16.448" stroke="rgb(33,33,33)" fill="none" stroke-linecap="round"></path><path d="M 179.500,164.216 C 179.356,163.587 179.142,163.629 179.000,163.000" stroke-width="16.803" stroke="rgb(33,33,33)" fill="none" stroke-linecap="round"></path><path d="M 179.000,163.000 C 178.892,162.521 179.000,162.500 179.000,162.000" stroke-width="16.911" stroke="rgb(33,33,33)" fill="none" stroke-linecap="round"></path><path d="M 179.000,162.000 C 179.000,161.500 178.854,161.473 179.000,161.000" stroke-width="17.301" stroke="rgb(33,33,33)" fill="none" stroke-linecap="round"></path><path d="M 179.000,161.000 C 179.612,159.012 179.502,158.911 180.516,157.078" stroke-width="17.076" stroke="rgb(33,33,33)" fill="none" stroke-linecap="round"></path><path d="M 180.516,157.078 C 183.044,152.507 183.103,152.502 186.084,148.193" stroke-width="15.919" stroke="rgb(33,33,33)" fill="none" stroke-linecap="round"></path><path d="M 186.084,148.193 C 191.209,140.784 191.299,140.837 196.729,133.643" stroke-width="14.033" stroke="rgb(33,33,33)" fill="none" stroke-linecap="round"></path><path d="M 196.729,133.643 C 202.578,125.895 202.752,126.026 208.643,118.309" stroke-width="12.794" stroke="rgb(33,33,33)" fill="none" stroke-linecap="round"></path><path d="M 208.643,118.309 C 214.581,110.530 214.616,110.553 220.387,102.651" stroke-width="12.027" stroke="rgb(33,33,33)" fill="none" stroke-linecap="round"></path><path d="M 220.387,102.651 C 225.236,96.010 225.428,96.125 229.884,89.223" stroke-width="11.554" stroke="rgb(33,33,33)" fill="none" stroke-linecap="round"></path><path d="M 229.884,89.223 C 233.984,82.872 233.772,82.728 237.499,76.144" stroke-width="11.305" stroke="rgb(33,33,33)" fill="none" stroke-linecap="round"></path><path d="M 237.499,76.144 C 239.148,73.230 238.976,73.133 240.636,70.227" stroke-width="11.830" stroke="rgb(33,33,33)" fill="none" stroke-linecap="round"></path><path d="M 240.636,70.227 C 241.756,68.266 241.989,68.391 243.059,66.411" stroke-width="12.523" stroke="rgb(33,33,33)" fill="none" stroke-linecap="round"></path><path d="M 243.059,66.411 C 243.671,65.278 243.430,65.155 243.999,64.002" stroke-width="13.287" stroke="rgb(33,33,33)" fill="none" stroke-linecap="round"></path><path d="M 243.999,64.002 C 244.391,63.208 244.630,63.323 244.982,62.518" stroke-width="14.034" stroke="rgb(33,33,33)" fill="none" stroke-linecap="round"></path><path d="M 244.982,62.518 C 245.380,61.607 245.067,61.449 245.500,60.571" stroke-width="14.743" stroke="rgb(33,33,33)" fill="none" stroke-linecap="round"></path><path d="M 245.500,60.571 C 245.796,59.970 246.107,60.146 246.440,59.560" stroke-width="15.442" stroke="rgb(33,33,33)" fill="none" stroke-linecap="round"></path><path d="M 246.440,59.560 C 246.815,58.902 246.606,58.792 246.916,58.084" stroke-width="16.022" stroke="rgb(33,33,33)" fill="none" stroke-linecap="round"></path><path d="M 246.916,58.084 C 247.386,57.012 247.368,56.976 248.000,56.000" stroke-width="16.367" stroke="rgb(33,33,33)" fill="none" stroke-linecap="round"></path><path d="M 248.000,56.000 C 248.285,55.559 248.482,55.679 248.750,55.250" stroke-width="16.877" stroke="rgb(33,33,33)" fill="none" stroke-linecap="round"></path><path d="M 248.750,55.250 C 248.899,55.012 248.775,54.955 248.833,54.667" stroke-width="17.361" stroke="rgb(33,33,33)" fill="none" stroke-linecap="round"></path><path d="M 248.833,54.667 C 248.900,54.330 248.966,54.340 249.000,54.000" stroke-width="17.763" stroke="rgb(33,33,33)" fill="none" stroke-linecap="round"></path><path d="M 249.000,54.000 C 249.049,53.506 248.793,53.414 249.000,53.000" stroke-width="18.075" stroke="rgb(33,33,33)" fill="none" stroke-linecap="round"></path><path d="M 249.000,53.000 C 249.293,52.414 249.465,52.338 250.000,52.000" stroke-width="18.178" stroke="rgb(33,33,33)" fill="none" stroke-linecap="round"></path><path d="M 250.000,52.000 C 250.146,51.907 250.206,52.188 250.362,52.138" stroke-width="18.476" stroke="rgb(33,33,33)" fill="none" stroke-linecap="round"></path><path d="M 250.362,52.138 C 250.574,52.070 250.610,51.989 250.736,51.764" stroke-width="18.698" stroke="rgb(33,33,33)" fill="none" stroke-linecap="round"></path><path d="M 250.736,51.764 C 250.929,51.420 250.781,51.067 251.000,51.000" stroke-width="18.902" stroke="rgb(33,33,33)" fill="none" stroke-linecap="round"></path><path d="M 251.000,51.000 C 251.210,50.935 251.443,51.198 251.594,51.500" stroke-width="19.101" stroke="rgb(33,33,33)" fill="none" stroke-linecap="round"></path><path d="M 251.594,51.500 C 251.693,51.700 251.523,51.750 251.500,52.004" stroke-width="19.314" stroke="rgb(33,33,33)" fill="none" stroke-linecap="round"></path><path d="M 251.500,52.004 C 251.476,52.268 251.324,52.362 251.500,52.537" stroke-width="19.435" stroke="rgb(33,33,33)" fill="none" stroke-linecap="round"></path><path d="M 251.500,52.537 C 252.238,53.274 252.372,53.249 253.328,53.828" stroke-width="19.077" stroke="rgb(33,33,33)" fill="none" stroke-linecap="round"></path><path d="M 253.328,53.828 C 256.046,55.473 256.047,55.481 258.848,56.984" stroke-width="17.941" stroke="rgb(33,33,33)" fill="none" stroke-linecap="round"></path><path d="M 258.848,56.984 C 264.817,60.186 264.893,60.046 270.869,63.237" stroke-width="16.041" stroke="rgb(33,33,33)" fill="none" stroke-linecap="round"></path><path d="M 270.869,63.237 C 276.047,66.002 276.067,65.971 281.157,68.894" stroke-width="15.022" stroke="rgb(33,33,33)" fill="none" stroke-linecap="round"></path><path d="M 281.157,68.894 C 286.084,71.723 286.081,71.734 290.902,74.741" stroke-width="14.256" stroke="rgb(33,33,33)" fill="none" stroke-linecap="round"></path><path d="M 290.902,74.741 C 295.125,77.375 295.133,77.372 299.245,80.175" stroke-width="13.932" stroke="rgb(33,33,33)" fill="none" stroke-linecap="round"></path><path d="M 299.245,80.175 C 301.969,82.032 301.937,82.081 304.574,84.060" stroke-width="14.059" stroke="rgb(33,33,33)" fill="none" stroke-linecap="round"></path><path d="M 304.574,84.060 C 305.805,84.984 305.763,85.038 306.980,85.980" stroke-width="14.560" stroke="rgb(33,33,33)" fill="none" stroke-linecap="round"></path><path d="M 306.980,85.980 C 307.940,86.722 308.007,86.642 308.928,87.428" stroke-width="15.099" stroke="rgb(33,33,33)" fill="none" stroke-linecap="round"></path><path d="M 308.928,87.428 C 309.717,88.102 309.598,88.292 310.400,88.900" stroke-width="15.589" stroke="rgb(33,33,33)" fill="none" stroke-linecap="round"></path><path d="M 310.400,88.900 C 310.634,89.078 310.870,88.763 311.000,89.000" stroke-width="16.253" stroke="rgb(33,33,33)" fill="none" stroke-linecap="round"></path><path d="M 311.000,89.000 C 311.420,89.766 311.304,89.946 311.500,90.905" stroke-width="16.633" stroke="rgb(33,33,33)" fill="none" stroke-linecap="round"></path><path d="M 311.500,90.905 C 311.554,91.168 311.500,91.175 311.500,91.444" stroke-width="17.144" stroke="rgb(33,33,33)" fill="none" stroke-linecap="round"></path><path d="M 311.500,91.444 C 311.500,91.591 311.628,91.764 311.500,91.737" stroke-width="17.626" stroke="rgb(33,33,33)" fill="none" stroke-linecap="round"></path><path d="M 311.500,91.737 C 310.101,91.449 309.921,91.416 308.445,90.815" stroke-width="17.472" stroke="rgb(33,33,33)" fill="none" stroke-linecap="round"></path><path d="M 308.445,90.815 C 303.623,88.852 303.673,88.717 298.905,86.610" stroke-width="16.202" stroke="rgb(33,33,33)" fill="none" stroke-linecap="round"></path><path d="M 298.905,86.610 C 291.549,83.359 291.497,83.470 284.197,80.098" stroke-width="14.455" stroke="rgb(33,33,33)" fill="none" stroke-linecap="round"></path><path d="M 284.197,80.098 C 277.135,76.835 277.193,76.711 270.181,73.340" stroke-width="13.466" stroke="rgb(33,33,33)" fill="none" stroke-linecap="round"></path><path d="M 270.181,73.340 C 264.187,70.458 264.173,70.487 258.185,67.593" stroke-width="12.985" stroke="rgb(33,33,33)" fill="none" stroke-linecap="round"></path><path d="M 258.185,67.593 C 253.290,65.227 253.263,65.278 248.415,62.821" stroke-width="12.788" stroke="rgb(33,33,33)" fill="none" stroke-linecap="round"></path><path d="M 248.415,62.821 C 245.651,61.420 245.654,61.407 242.960,59.876" stroke-width="13.151" stroke="rgb(33,33,33)" fill="none" stroke-linecap="round"></path><path d="M 242.960,59.876 C 240.476,58.464 240.519,58.391 238.059,56.936" stroke-width="13.509" stroke="rgb(33,33,33)" fill="none" stroke-linecap="round"></path><path d="M 238.059,56.936 C 236.553,56.046 236.604,55.927 235.029,55.186" stroke-width="14.033" stroke="rgb(33,33,33)" fill="none" stroke-linecap="round"></path><path d="M 235.029,55.186 C 233.875,54.643 233.693,54.989 232.600,54.367" stroke-width="14.626" stroke="rgb(33,33,33)" fill="none" stroke-linecap="round"></path><path d="M 232.600,54.367 C 231.555,53.772 231.731,53.484 230.753,52.753" stroke-width="15.152" stroke="rgb(33,33,33)" fill="none" stroke-linecap="round"></path><path d="M 230.753,52.753 C 230.082,52.251 230.066,52.238 229.303,51.901" stroke-width="15.746" stroke="rgb(33,33,33)" fill="none" stroke-linecap="round"></path><path d="M 229.303,51.901 C 228.649,51.612 228.510,51.865 227.919,51.500" stroke-width="16.187" stroke="rgb(33,33,33)" fill="none" stroke-linecap="round"></path><path d="M 227.919,51.500 C 227.330,51.136 227.440,50.964 226.944,50.444" stroke-width="16.665" stroke="rgb(33,33,33)" fill="none" stroke-linecap="round"></path><path d="M 226.944,50.444 C 226.605,50.089 226.221,49.865 226.250,49.750" stroke-width="17.151" stroke="rgb(33,33,33)" fill="none" stroke-linecap="round"></path><path d="M 226.250,49.750 C 226.275,49.651 226.675,49.825 227.051,50.017" stroke-width="17.563" stroke="rgb(33,33,33)" fill="none" stroke-linecap="round"></path><path d="M 227.051,50.017 C 232.718,52.909 232.646,53.063 238.336,55.918" stroke-width="16.484" stroke="rgb(33,33,33)" fill="none" stroke-linecap="round"></path><path d="M 238.336,55.918 C 241.958,57.735 242.052,57.549 245.676,59.361" stroke-width="15.365" stroke="rgb(33,33,33)" fill="none" stroke-linecap="round"></path><path d="M 245.676,59.361 C 247.999,60.522 248.000,60.537 250.229,61.865" stroke-width="15.349" stroke="rgb(33,33,33)" fill="none" stroke-linecap="round"></path><path d="M 250.229,61.865 C 251.320,62.515 251.281,62.579 252.317,63.317" stroke-width="15.754" stroke="rgb(33,33,33)" fill="none" stroke-linecap="round"></path><path d="M 252.317,63.317 C 253.048,63.838 253.135,63.753 253.763,64.381" stroke-width="16.208" stroke="rgb(33,33,33)" fill="none" stroke-linecap="round"></path><path d="M 253.763,64.381 C 254.410,65.028 254.418,65.069 254.867,65.867" stroke-width="16.562" stroke="rgb(33,33,33)" fill="none" stroke-linecap="round"></path><path d="M 254.867,65.867 C 255.208,66.472 255.169,66.512 255.344,67.188" stroke-width="16.951" stroke="rgb(33,33,33)" fill="none" stroke-linecap="round"></path><path d="M 255.344,67.188 C 255.485,67.732 255.466,67.745 255.500,68.308" stroke-width="17.322" stroke="rgb(33,33,33)" fill="none" stroke-linecap="round"></path><path d="M 255.500,68.308 C 255.544,69.047 255.500,69.051 255.500,69.793" stroke-width="17.551" stroke="rgb(33,33,33)" fill="none" stroke-linecap="round"></path><path d="M 255.500,69.793 C 255.500,70.665 255.836,70.782 255.500,71.537" stroke-width="17.708" stroke="rgb(33,33,33)" fill="none" stroke-linecap="round"></path><path d="M 255.500,71.537 C 254.954,72.767 254.680,72.703 253.736,73.764" stroke-width="17.635" stroke="rgb(33,33,33)" fill="none" stroke-linecap="round"></path><path d="M 253.736,73.764 C 250.803,77.062 250.944,77.216 247.746,80.254" stroke-width="16.477" stroke="rgb(33,33,33)" fill="none" stroke-linecap="round"></path><path d="M 247.746,80.254 C 241.763,85.938 241.591,85.767 235.374,91.209" stroke-width="14.699" stroke="rgb(33,33,33)" fill="none" stroke-linecap="round"></path><path d="M 235.374,91.209 C 228.088,97.587 228.048,97.542 220.739,103.893" stroke-width="13.236" stroke="rgb(33,33,33)" fill="none" stroke-linecap="round"></path><path d="M 220.739,103.893 C 213.060,110.565 213.005,110.504 205.397,117.256" stroke-width="12.066" stroke="rgb(33,33,33)" fill="none" stroke-linecap="round"></path><path d="M 205.397,117.256 C 198.424,123.445 198.236,123.262 191.576,129.776" stroke-width="11.493" stroke="rgb(33,33,33)" fill="none" stroke-linecap="round"></path><path d="M 191.576,129.776 C 185.907,135.321 186.053,135.480 180.740,141.374" stroke-width="11.200" stroke="rgb(33,33,33)" fill="none" stroke-linecap="round"></path><path d="M 180.740,141.374 C 175.221,147.495 175.312,147.578 169.912,153.806" stroke-width="11.003" stroke="rgb(33,33,33)" fill="none" stroke-linecap="round"></path><path d="M 169.912,153.806 C 165.373,159.040 165.277,158.961 160.861,164.298" stroke-width="11.034" stroke="rgb(33,33,33)" fill="none" stroke-linecap="round"></path><path d="M 160.861,164.298 C 155.769,170.452 155.883,170.547 150.895,176.787" stroke-width="10.909" stroke="rgb(33,33,33)" fill="none" stroke-linecap="round"></path><path d="M 150.895,176.787 C 145.991,182.923 145.739,182.737 141.076,189.051" stroke-width="10.763" stroke="rgb(33,33,33)" fill="none" stroke-linecap="round"></path><path d="M 141.076,189.051 C 136.731,194.934 136.703,194.949 132.880,201.181" stroke-width="10.725" stroke="rgb(33,33,33)" fill="none" stroke-linecap="round"></path><path d="M 132.880,201.181 C 129.671,206.412 129.812,206.512 127.012,211.978" stroke-width="10.916" stroke="rgb(33,33,33)" fill="none" stroke-linecap="round"></path><path d="M 127.012,211.978 C 124.915,216.071 124.923,216.084 123.086,220.299" stroke-width="11.371" stroke="rgb(33,33,33)" fill="none" stroke-linecap="round"></path><path d="M 123.086,220.299 C 121.723,223.427 121.732,223.442 120.612,226.664" stroke-width="11.908" stroke="rgb(33,33,33)" fill="none" stroke-linecap="round"></path><path d="M 120.612,226.664 C 119.758,229.121 119.740,229.130 119.137,231.657" stroke-width="12.537" stroke="rgb(33,33,33)" fill="none" stroke-linecap="round"></path><path d="M 119.137,231.657 C 118.730,233.364 118.906,233.402 118.592,235.131" stroke-width="13.182" stroke="rgb(33,33,33)" fill="none" stroke-linecap="round"></path><path d="M 118.592,235.131 C 118.396,236.207 118.388,236.207 118.117,237.266" stroke-width="13.968" stroke="rgb(33,33,33)" fill="none" stroke-linecap="round"></path><path d="M 118.117,237.266 C 117.910,238.074 117.827,238.053 117.636,238.864" stroke-width="14.702" stroke="rgb(33,33,33)" fill="none" stroke-linecap="round"></path><path d="M 117.636,238.864 C 117.269,240.420 117.282,240.426 117.000,242.000" stroke-width="15.242" stroke="rgb(33,33,33)" fill="none" stroke-linecap="round"></path><path d="M 117.000,242.000 C 116.813,243.046 116.898,243.062 116.698,244.104" stroke-width="15.630" stroke="rgb(33,33,33)" fill="none" stroke-linecap="round"></path><path d="M 116.698,244.104 C 116.508,245.093 116.608,245.149 116.219,246.062" stroke-width="16.069" stroke="rgb(33,33,33)" fill="none" stroke-linecap="round"></path><path d="M 116.219,246.062 C 115.880,246.855 115.716,246.780 115.242,247.516" stroke-width="16.480" stroke="rgb(33,33,33)" fill="none" stroke-linecap="round"></path><path d="M 115.242,247.516 C 114.617,248.488 114.760,248.606 114.022,249.478" stroke-width="16.710" stroke="rgb(33,33,33)" fill="none" stroke-linecap="round"></path><path d="M 114.022,249.478 C 113.311,250.317 113.236,250.277 112.344,250.938" stroke-width="16.936" stroke="rgb(33,33,33)" fill="none" stroke-linecap="round"></path><path d="M 112.344,250.938 C 110.945,251.975 110.869,251.873 109.440,252.874" stroke-width="16.909" stroke="rgb(33,33,33)" fill="none" stroke-linecap="round"></path><path d="M 109.440,252.874 C 106.777,254.740 107.060,255.270 104.160,256.672" stroke-width="16.339" stroke="rgb(33,33,33)" fill="none" stroke-linecap="round"></path><path d="M 104.160,256.672 C 99.574,258.889 99.400,258.695 94.467,260.113" stroke-width="15.428" stroke="rgb(33,33,33)" fill="none" stroke-linecap="round"></path><path d="M 94.467,260.113 C 89.699,261.484 89.643,261.349 84.758,262.249" stroke-width="14.814" stroke="rgb(33,33,33)" fill="none" stroke-linecap="round"></path><path d="M 84.758,262.249 C 79.920,263.140 79.892,262.992 75.021,263.696" stroke-width="14.493" stroke="rgb(33,33,33)" fill="none" stroke-linecap="round"></path><path d="M 75.021,263.696 C 70.084,264.410 70.100,264.572 65.142,265.086" stroke-width="14.233" stroke="rgb(33,33,33)" fill="none" stroke-linecap="round"></path><path d="M 65.142,265.086 C 61.101,265.505 61.083,265.330 57.023,265.560" stroke-width="14.265" stroke="rgb(33,33,33)" fill="none" stroke-linecap="round"></path><path d="M 57.023,265.560 C 53.012,265.787 53.014,265.874 49.000,266.000" stroke-width="14.036" stroke="rgb(33,33,33)" fill="none" stroke-linecap="round"></path><path d="M 49.000,266.000 C 46.003,266.094 46.000,266.000 43.000,266.000" stroke-width="13.613" stroke="rgb(33,33,33)" fill="none" stroke-linecap="round"></path><path d="M 43.000,266.000 C 40.500,266.000 40.500,266.000 38.000,266.000" stroke-width="13.977" stroke="rgb(33,33,33)" fill="none" stroke-linecap="round"></path><path d="M 38.000,266.000 C 36.500,266.000 36.500,266.000 35.000,266.000" stroke-width="14.523" stroke="rgb(33,33,33)" fill="none" stroke-linecap="round"></path><path d="M 35.000,266.000 C 33.500,266.000 33.472,266.166 32.000,266.000" stroke-width="15.013" stroke="rgb(33,33,33)" fill="none" stroke-linecap="round"></path><path d="M 32.000,266.000 C 31.254,265.916 31.290,265.727 30.565,265.500" stroke-width="15.655" stroke="rgb(33,33,33)" fill="none" stroke-linecap="round"></path><path d="M 30.565,265.500 C 29.834,265.271 29.843,265.195 29.089,265.089" stroke-width="16.216" stroke="rgb(33,33,33)" fill="none" stroke-linecap="round"></path><path d="M 29.089,265.089 C 28.060,264.945 27.946,265.227 27.000,265.000" stroke-width="16.549" stroke="rgb(33,33,33)" fill="none" stroke-linecap="round"></path><path d="M 27.000,265.000 C 26.721,264.933 26.904,264.632 26.639,264.500" stroke-width="17.131" stroke="rgb(33,33,33)" fill="none" stroke-linecap="round"></path><path d="M 26.639,264.500 C 25.904,264.132 25.517,264.474 25.000,264.000" stroke-width="17.039" stroke="rgb(33,33,33)" fill="none" stroke-linecap="round"></path><path d="M 25.000,264.000 C 24.698,263.724 25.000,263.500 25.000,263.000" stroke-width="17.223" stroke="rgb(33,33,33)" fill="none" stroke-linecap="round"></path><path d="M 25.000,263.000 C 25.000,262.500 24.634,262.280 25.000,262.000" stroke-width="17.599" stroke="rgb(33,33,33)" fill="none" stroke-linecap="round"></path><path d="M 25.000,262.000 C 26.762,260.652 27.218,261.025 29.256,259.745" stroke-width="16.864" stroke="rgb(33,33,33)" fill="none" stroke-linecap="round"></path><path d="M 29.256,259.745 C 35.863,255.595 35.875,255.590 42.290,251.140" stroke-width="15.063" stroke="rgb(33,33,33)" fill="none" stroke-linecap="round"></path><path d="M 42.290,251.140 C 50.701,245.306 50.642,245.218 58.908,239.178" stroke-width="13.354" stroke="rgb(33,33,33)" fill="none" stroke-linecap="round"></path><path d="M 58.908,239.178 C 67.989,232.543 68.070,232.645 76.984,225.790" stroke-width="12.070" stroke="rgb(33,33,33)" fill="none" stroke-linecap="round"></path><path d="M 76.984,225.790 C 85.222,219.455 85.493,219.735 93.211,212.797" stroke-width="11.237" stroke="rgb(33,33,33)" fill="none" stroke-linecap="round"></path><path d="M 93.211,212.797 C 101.465,205.376 101.236,205.094 108.928,197.072" stroke-width="10.722" stroke="rgb(33,33,33)" fill="none" stroke-linecap="round"></path><path d="M 108.928,197.072 C 116.043,189.653 115.920,189.533 122.825,181.915" stroke-width="10.201" stroke="rgb(33,33,33)" fill="none" stroke-linecap="round"></path><path d="M 122.825,181.915 C 128.557,175.591 128.676,175.688 134.202,169.188" stroke-width="10.239" stroke="rgb(33,33,33)" fill="none" stroke-linecap="round"></path><path d="M 134.202,169.188 C 138.103,164.599 137.896,164.427 141.678,159.737" stroke-width="10.525" stroke="rgb(33,33,33)" fill="none" stroke-linecap="round"></path><path d="M 141.678,159.737 C 144.172,156.644 144.157,156.628 146.753,153.621" stroke-width="11.049" stroke="rgb(33,33,33)" fill="none" stroke-linecap="round"></path><path d="M 146.753,153.621 C 148.627,151.451 148.646,151.463 150.618,149.382" stroke-width="11.729" stroke="rgb(33,33,33)" fill="none" stroke-linecap="round"></path><path d="M 150.618,149.382 C 152.033,147.889 152.156,148.000 153.527,146.473" stroke-width="12.426" stroke="rgb(33,33,33)" fill="none" stroke-linecap="round"></path><path d="M 153.527,146.473 C 154.345,145.562 154.191,145.429 154.996,144.507" stroke-width="13.213" stroke="rgb(33,33,33)" fill="none" stroke-linecap="round"></path><path d="M 154.996,144.507 C 155.901,143.470 155.971,143.530 156.946,142.554" stroke-width="13.901" stroke="rgb(33,33,33)" fill="none" stroke-linecap="round"></path><path d="M 156.946,142.554 C 157.670,141.830 157.617,141.768 158.394,141.106" stroke-width="14.612" stroke="rgb(33,33,33)" fill="none" stroke-linecap="round"></path><path d="M 158.394,141.106 C 159.076,140.525 159.144,140.608 159.863,140.069" stroke-width="15.283" stroke="rgb(33,33,33)" fill="none" stroke-linecap="round"></path><path d="M 159.863,140.069 C 161.142,139.110 161.167,139.135 162.391,138.109" stroke-width="15.859" stroke="rgb(33,33,33)" fill="none" stroke-linecap="round"></path><path d="M 162.391,138.109 C 162.921,137.665 162.822,137.538 163.370,137.130" stroke-width="16.058" stroke="rgb(33,33,33)" fill="none" stroke-linecap="round"></path><path d="M 163.370,137.130 C 163.800,136.810 163.858,136.892 164.346,136.654" stroke-width="16.332" stroke="rgb(33,33,33)" fill="none" stroke-linecap="round"></path><path d="M 164.346,136.654 C 164.836,136.415 164.857,136.452 165.325,136.175" stroke-width="16.798" stroke="rgb(33,33,33)" fill="none" stroke-linecap="round"></path><path d="M 165.325,136.175 C 165.832,135.875 165.811,135.839 166.295,135.500" stroke-width="17.186" stroke="rgb(33,33,33)" fill="none" stroke-linecap="round"></path><path d="M 166.295,135.500 C 166.649,135.252 166.605,135.152 167.000,135.000" stroke-width="17.595" stroke="rgb(33,33,33)" fill="none" stroke-linecap="round"></path><path d="M 167.000,135.000 C 167.587,134.773 167.653,134.941 168.258,134.742" stroke-width="17.854" stroke="rgb(33,33,33)" fill="none" stroke-linecap="round"></path><path d="M 168.258,134.742 C 168.772,134.572 168.737,134.475 169.238,134.262" stroke-width="18.099" stroke="rgb(33,33,33)" fill="none" stroke-linecap="round"></path><path d="M 169.238,134.262 C 169.608,134.104 169.625,134.146 170.000,134.000" stroke-width="18.111" stroke="rgb(33,33,33)" fill="none" stroke-linecap="round"></path><path d="M 170.000,134.000 C 170.855,133.666 170.819,133.433 171.698,133.302" stroke-width="18.122" stroke="rgb(33,33,33)" fill="none" stroke-linecap="round"></path><path d="M 171.698,133.302 C 172.497,133.183 172.597,133.642 173.355,133.500" stroke-width="18.202" stroke="rgb(33,33,33)" fill="none" stroke-linecap="round"></path><path d="M 173.355,133.500 C 173.827,133.412 173.707,132.979 174.158,132.842" stroke-width="18.345" stroke="rgb(33,33,33)" fill="none" stroke-linecap="round"></path><path d="M 174.158,132.842 C 174.530,132.729 174.587,133.058 175.000,133.000" stroke-width="18.524" stroke="rgb(33,33,33)" fill="none" stroke-linecap="round"></path><path d="M 175.000,133.000 C 175.813,132.887 175.791,132.659 176.610,132.500" stroke-width="18.504" stroke="rgb(33,33,33)" fill="none" stroke-linecap="round"></path><path d="M 176.610,132.500 C 177.080,132.409 177.163,132.649 177.578,132.500" stroke-width="18.619" stroke="rgb(33,33,33)" fill="none" stroke-linecap="round"></path><path d="M 177.578,132.500 C 177.858,132.399 177.719,132.099 178.000,132.000" stroke-width="18.781" stroke="rgb(33,33,33)" fill="none" stroke-linecap="round"></path><path d="M 178.000,132.000 C 178.430,131.849 178.515,132.096 179.000,132.000" stroke-width="18.848" stroke="rgb(33,33,33)" fill="none" stroke-linecap="round"></path><path d="M 179.000,132.000 C 179.773,131.846 179.742,131.654 180.514,131.500" stroke-width="18.781" stroke="rgb(33,33,33)" fill="none" stroke-linecap="round"></path><path d="M 180.514,131.500 C 180.992,131.404 181.007,131.500 181.500,131.500" stroke-width="18.839" stroke="rgb(33,33,33)" fill="none" stroke-linecap="round"></path><path d="M 181.500,131.500 C 181.875,131.500 182.107,131.643 182.250,131.500" stroke-width="18.947" stroke="rgb(33,33,33)" fill="none" stroke-linecap="round"></path><path d="M 182.250,131.500 C 182.357,131.393 181.866,131.090 182.000,131.000" stroke-width="19.075" stroke="rgb(33,33,33)" fill="none" stroke-linecap="round"></path><path d="M 182.000,131.000 C 182.241,130.840 182.525,131.111 183.000,131.000" stroke-width="19.072" stroke="rgb(33,33,33)" fill="none" stroke-linecap="round"></path><path d="M 183.000,131.000 C 183.503,130.883 183.463,130.716 183.956,130.544" stroke-width="19.070" stroke="rgb(33,33,33)" fill="none" stroke-linecap="round"></path><path d="M 183.956,130.544 C 184.181,130.466 184.230,130.601 184.437,130.500" stroke-width="19.185" stroke="rgb(33,33,33)" fill="none" stroke-linecap="round"></path><path d="M 184.437,130.500 C 184.719,130.362 184.687,130.285 184.933,130.067" stroke-width="19.246" stroke="rgb(33,33,33)" fill="none" stroke-linecap="round"></path><path d="M 184.933,130.067 C 184.968,130.035 184.966,130.033 185.000,130.000" stroke-width="19.418" stroke="rgb(33,33,33)" fill="none" stroke-linecap="round"></path><path d="M 185.000,130.000 C 185.000,130.000 185.000,130.000 185.000,130.000" stroke-width="19.579" stroke="rgb(33,33,33)" fill="none" stroke-linecap="round"></path><path d="M 185.000,130.000 C 185.500,129.500 185.459,129.283 186.000,129.000" stroke-width="19.395" stroke="rgb(33,33,33)" fill="none" stroke-linecap="round"></path><path d="M 186.000,129.000 C 186.209,128.891 186.250,129.217 186.500,129.217" stroke-width="19.433" stroke="rgb(33,33,33)" fill="none" stroke-linecap="round"></path><path d="M 186.500,129.217 C 186.750,129.217 186.751,129.112 187.000,129.000" stroke-width="19.470" stroke="rgb(33,33,33)" fill="none" stroke-linecap="round"></path><path d="M 187.000,129.000 C 187.251,128.887 187.263,128.906 187.500,128.768" stroke-width="19.499" stroke="rgb(33,33,33)" fill="none" stroke-linecap="round"></path><path d="M 187.500,128.768 C 187.692,128.656 187.800,128.702 187.857,128.500" stroke-width="19.545" stroke="rgb(33,33,33)" fill="none" stroke-linecap="round"></path><path d="M 187.857,128.500 C 188.050,127.818 187.752,127.368 188.000,127.000" stroke-width="19.328" stroke="rgb(33,33,33)" fill="none" stroke-linecap="round"></path><path d="M 188.000,127.000 C 188.118,126.824 188.424,127.597 188.588,127.412" stroke-width="19.338" stroke="rgb(33,33,33)" fill="none" stroke-linecap="round"></path><path d="M 188.588,127.412 C 188.998,126.950 188.914,126.572 189.148,125.705" stroke-width="19.125" stroke="rgb(33,33,33)" fill="none" stroke-linecap="round"></path><path d="M 189.148,125.705 C 189.745,123.491 189.533,123.427 190.250,121.251" stroke-width="18.391" stroke="rgb(33,33,33)" fill="none" stroke-linecap="round"></path><path d="M 190.250,121.251 C 191.616,117.105 191.852,117.181 193.313,113.061" stroke-width="17.107" stroke="rgb(33,33,33)" fill="none" stroke-linecap="round"></path><path d="M 193.313,113.061 C 194.854,108.717 194.888,108.723 196.254,104.322" stroke-width="16.130" stroke="rgb(33,33,33)" fill="none" stroke-linecap="round"></path><path d="M 196.254,104.322 C 197.296,100.965 197.206,100.937 198.130,97.545" stroke-width="15.733" stroke="rgb(33,33,33)" fill="none" stroke-linecap="round"></path><path d="M 198.130,97.545 C 198.850,94.900 198.810,94.889 199.542,92.247" stroke-width="15.598" stroke="rgb(33,33,33)" fill="none" stroke-linecap="round"></path><path d="M 199.542,92.247 C 200.003,90.584 199.915,90.546 200.516,88.935" stroke-width="15.799" stroke="rgb(33,33,33)" fill="none" stroke-linecap="round"></path><path d="M 200.516,88.935 C 200.892,87.927 201.011,87.975 201.496,87.009" stroke-width="16.190" stroke="rgb(33,33,33)" fill="none" stroke-linecap="round"></path><path d="M 201.496,87.009 C 201.743,86.518 201.589,86.283 201.979,86.021" stroke-width="16.705" stroke="rgb(33,33,33)" fill="none" stroke-linecap="round"></path><path d="M 201.979,86.021 C 202.341,85.778 202.546,85.793 203.000,86.000" stroke-width="17.153" stroke="rgb(33,33,33)" fill="none" stroke-linecap="round"></path><path d="M 203.000,86.000 C 204.883,86.859 205.229,86.613 206.652,88.152" stroke-width="17.031" stroke="rgb(33,33,33)" fill="none" stroke-linecap="round"></path><path d="M 206.652,88.152 C 212.187,94.141 212.045,94.411 216.917,101.056" stroke-width="15.053" stroke="rgb(33,33,33)" fill="none" stroke-linecap="round"></path><path d="M 216.917,101.056 C 223.508,110.045 223.232,110.248 229.577,119.420" stroke-width="12.869" stroke="rgb(33,33,33)" fill="none" stroke-linecap="round"></path><path d="M 229.577,119.420 C 236.998,130.148 237.229,129.994 244.449,140.855" stroke-width="12.143" stroke="rgb(33,33,33)" fill="none" stroke-linecap="round"></path><path d="M 244.449,140.855 C 252.335,152.717 252.383,152.699 259.789,164.867" stroke-width="11.900" stroke="rgb(33,33,33)" fill="none" stroke-linecap="round"></path><path d="M 259.789,164.867 C 273.485,187.371 273.213,187.538 286.654,210.199" stroke-width="7.034" stroke="rgb(33,33,33)" fill="none" stroke-linecap="round"></path><path d="M 286.654,210.199 C 292.077,219.342 292.169,219.289 297.517,228.475" stroke-width="7.008" stroke="rgb(33,33,33)" fill="none" stroke-linecap="round"></path><path d="M 297.517,228.475 C 301.752,235.749 301.648,235.809 305.820,243.120" stroke-width="7.401" stroke="rgb(33,33,33)" fill="none" stroke-linecap="round"></path><path d="M 305.820,243.120 C 308.123,247.156 308.227,247.099 310.467,251.168" stroke-width="8.126" stroke="rgb(33,33,33)" fill="none" stroke-linecap="round"></path><path d="M 310.467,251.168 C 311.675,253.363 311.686,253.368 312.716,255.649" stroke-width="8.989" stroke="rgb(33,33,33)" fill="none" stroke-linecap="round"></path><path d="M 312.716,255.649 C 313.202,256.725 313.276,256.737 313.500,257.882" stroke-width="9.983" stroke="rgb(33,33,33)" fill="none" stroke-linecap="round"></path><path d="M 313.500,257.882 C 313.668,258.744 313.500,258.773 313.500,259.663" stroke-width="11.002" stroke="rgb(33,33,33)" fill="none" stroke-linecap="round"></path><path d="M 313.500,259.663 C 313.500,260.403 313.790,260.606 313.500,261.142" stroke-width="12.007" stroke="rgb(33,33,33)" fill="none" stroke-linecap="round"></path><path d="M 313.500,261.142 C 313.293,261.525 313.015,261.630 312.507,261.500" stroke-width="12.983" stroke="rgb(33,33,33)" fill="none" stroke-linecap="round"></path><path d="M 312.507,261.500 C 300.657,258.475 300.271,259.154 288.784,254.833" stroke-width="12.938" stroke="rgb(33,33,33)" fill="none" stroke-linecap="round"></path><path d="M 288.784,254.833 C 278.053,250.797 278.443,249.778 268.072,244.786" stroke-width="10.312" stroke="rgb(33,33,33)" fill="none" stroke-linecap="round"></path><path d="M 268.072,244.786 C 255.799,238.879 255.646,239.183 243.495,233.036" stroke-width="9.101" stroke="rgb(33,33,33)" fill="none" stroke-linecap="round"></path><path d="M 243.495,233.036 C 231.336,226.885 231.423,226.707 219.452,220.191" stroke-width="7.831" stroke="rgb(33,33,33)" fill="none" stroke-linecap="round"></path><path d="M 219.452,220.191 C 208.434,214.194 208.470,214.128 197.518,208.010" stroke-width="7.842" stroke="rgb(33,33,33)" fill="none" stroke-linecap="round"></path><path d="M 197.518,208.010 C 189.667,203.625 189.620,203.705 181.847,199.185" stroke-width="8.174" stroke="rgb(33,33,33)" fill="none" stroke-linecap="round"></path><path d="M 181.847,199.185 C 176.078,195.830 176.136,195.730 170.434,192.260" stroke-width="8.535" stroke="rgb(33,33,33)" fill="none" stroke-linecap="round"></path><path d="M 170.434,192.260 C 167.150,190.262 167.211,190.153 163.875,188.250" stroke-width="9.229" stroke="rgb(33,33,33)" fill="none" stroke-linecap="round"></path><path d="M 163.875,188.250 C 161.871,187.107 161.839,187.155 159.753,186.169" stroke-width="10.117" stroke="rgb(33,33,33)" fill="none" stroke-linecap="round"></path><path d="M 159.753,186.169 C 158.402,185.530 158.283,185.723 157.000,185.000" stroke-width="11.049" stroke="rgb(33,33,33)" fill="none" stroke-linecap="round"></path><path d="M 157.000,185.000 C 156.470,184.701 156.648,184.387 156.126,184.126" stroke-width="12.068" stroke="rgb(33,33,33)" fill="none" stroke-linecap="round"></path><path d="M 156.126,184.126 C 155.648,183.887 155.015,183.575 155.000,184.000" stroke-width="13.034" stroke="rgb(33,33,33)" fill="none" stroke-linecap="round"></path><path d="M 155.000,184.000 C 154.941,185.639 155.080,186.276 155.977,188.255" stroke-width="13.360" stroke="rgb(33,33,33)" fill="none" stroke-linecap="round"></path><path d="M 155.977,188.255 C 159.661,196.383 159.381,196.641 164.162,204.213" stroke-width="12.964" stroke="rgb(33,33,33)" fill="none" stroke-linecap="round"></path><path d="M 164.162,204.213 C 177.801,225.813 178.651,225.299 192.817,246.598" stroke-width="10.034" stroke="rgb(33,33,33)" fill="none" stroke-linecap="round"></path><path d="M 192.817,246.598 C 198.402,254.996 198.485,254.959 203.664,263.606" stroke-width="9.799" stroke="rgb(33,33,33)" fill="none" stroke-linecap="round"></path><path d="M 203.664,263.606 C 206.757,268.770 206.658,268.843 209.361,274.221" stroke-width="10.150" stroke="rgb(33,33,33)" fill="none" stroke-linecap="round"></path><path d="M 209.361,274.221 C 210.769,277.023 210.696,277.065 211.886,279.966" stroke-width="10.803" stroke="rgb(33,33,33)" fill="none" stroke-linecap="round"></path><path d="M 211.886,279.966 C 212.598,281.701 212.768,281.701 213.165,283.494" stroke-width="11.613" stroke="rgb(33,33,33)" fill="none" stroke-linecap="round"></path><path d="M 213.165,283.494 C 213.325,284.218 213.437,284.494 213.000,285.000" stroke-width="12.564" stroke="rgb(33,33,33)" fill="none" stroke-linecap="round"></path><path d="M 213.000,285.000 C 212.355,285.747 212.099,285.921 211.000,286.000" stroke-width="13.360" stroke="rgb(33,33,33)" fill="none" stroke-linecap="round"></path><path d="M 211.000,286.000 C 205.099,286.421 204.758,287.391 199.000,286.000" stroke-width="12.877" stroke="rgb(33,33,33)" fill="none" stroke-linecap="round"></path><path d="M 199.000,286.000 C 186.330,282.938 186.488,281.768 174.143,277.094" stroke-width="11.759" stroke="rgb(33,33,33)" fill="none" stroke-linecap="round"></path><path d="M 174.143,277.094 C 161.121,272.164 161.203,271.948 148.266,266.793" stroke-width="10.988" stroke="rgb(33,33,33)" fill="none" stroke-linecap="round"></path><path d="M 148.266,266.793 C 134.842,261.444 134.892,261.314 121.421,256.085" stroke-width="10.387" stroke="rgb(33,33,33)" fill="none" stroke-linecap="round"></path><path d="M 121.421,256.085 C 108.542,251.086 108.525,251.127 95.566,246.337" stroke-width="9.875" stroke="rgb(33,33,33)" fill="none" stroke-linecap="round"></path><path d="M 95.566,246.337 C 74.754,238.644 74.751,238.648 53.880,231.119" stroke-width="9.792" stroke="rgb(33,33,33)" fill="none" stroke-linecap="round"></path><path d="M 53.880,231.119 C 47.478,228.810 47.406,229.008 41.020,226.660" stroke-width="9.027" stroke="rgb(33,33,33)" fill="none" stroke-linecap="round"></path></svg>