<svg xmlns="http://www.w3.org/2000/svg" xmlns:xlink="http://www.w3.org/1999/xlink" viewBox="0 0 800 500"><path d="M 167.500,192.500 C 167.500,191.500 167.359,191.486 167.500,190.500" stroke-width="20.039" stroke="rgb(33,33,33)" fill="none" stroke-linecap="round"></path><path d="M 167.500,190.500 C 167.859,187.986 167.567,187.833 168.500,185.500" stroke-width="18.237" stroke="rgb(33,33,33)" fill="none" stroke-linecap="round"></path><path d="M 168.500,185.500 C 169.567,182.833 169.924,182.952 171.500,180.500" stroke-width="16.806" stroke="rgb(33,33,33)" fill="none" stroke-linecap="round"></path><path d="M 171.500,180.500 C 174.424,175.952 174.795,176.171 177.500,171.500" stroke-width="14.671" stroke="rgb(33,33,33)" fill="none" stroke-linecap="round"></path><path d="M 177.500,171.500 C 180.295,166.671 180.000,166.500 182.500,161.500" stroke-width="13.717" stroke="rgb(33,33,33)" fill="none" stroke-linecap="round"></path><path d="M 182.500,161.500 C 185.000,156.500 184.808,156.395 187.500,151.500" stroke-width="11.547" stroke="rgb(33,33,33)" fill="none" stroke-linecap="round"></path><path d="M 187.500,151.500 C 190.308,146.395 190.579,146.546 193.500,141.500" stroke-width="11.267" stroke="rgb(33,33,33)" fill="none" stroke-linecap="round"></path><path d="M 193.500,141.500 C 196.079,137.046 195.710,136.812 198.500,132.500" stroke-width="10.685" stroke="rgb(33,33,33)" fill="none" stroke-linecap="round"></path><path d="M 198.500,132.500 C 201.210,128.312 201.595,128.567 204.500,124.500" stroke-width="10.568" stroke="rgb(33,33,33)" fill="none" stroke-linecap="round"></path><path d="M 204.500,124.500 C 206.595,121.567 206.500,121.500 208.500,118.500" stroke-width="10.788" stroke="rgb(33,33,33)" fill="none" stroke-linecap="round"></path><path d="M 208.500,118.500 C 210.500,115.500 210.296,115.333 212.500,112.500" stroke-width="10.876" stroke="rgb(33,33,33)" fill="none" stroke-linecap="round"></path><path d="M 212.500,112.500 C 213.796,110.833 214.123,111.107 215.500,109.500" stroke-width="11.570" stroke="rgb(33,33,33)" fill="none" stroke-linecap="round"></path><path d="M 215.500,109.500 C 217.123,107.607 216.877,107.393 218.500,105.500" stroke-width="11.461" stroke="rgb(33,33,33)" fill="none" stroke-linecap="round"></path><path d="M 218.500,105.500 C 219.877,103.893 220.149,104.122 221.500,102.500" stroke-width="11.924" stroke="rgb(33,33,33)" fill="none" stroke-linecap="round"></path><path d="M 221.500,102.500 C 222.649,101.122 222.379,100.901 223.500,99.500" stroke-width="12.357" stroke="rgb(33,33,33)" fill="none" stroke-linecap="round"></path><path d="M 223.500,99.500 C 224.379,98.401 224.416,98.403 225.500,97.500" stroke-width="12.960" stroke="rgb(33,33,33)" fill="none" stroke-linecap="round"></path><path d="M 225.500,97.500 C 227.416,95.903 227.356,95.725 229.500,94.500" stroke-width="13.262" stroke="rgb(33,33,33)" fill="none" stroke-linecap="round"></path><path d="M 229.500,94.500 C 230.856,93.725 231.180,94.292 232.500,93.500" stroke-width="13.262" stroke="rgb(33,33,33)" fill="none" stroke-linecap="round"></path><path d="M 232.500,93.500 C 233.680,92.792 233.401,92.379 234.500,91.500" stroke-width="13.748" stroke="rgb(33,33,33)" fill="none" stroke-linecap="round"></path><path d="M 234.500,91.500 C 235.901,90.379 235.867,90.200 237.500,89.500" stroke-width="13.790" stroke="rgb(33,33,33)" fill="none" stroke-linecap="round"></path><path d="M 237.500,89.500 C 239.367,88.700 239.633,89.300 241.500,88.500" stroke-width="13.968" stroke="rgb(33,33,33)" fill="none" stroke-linecap="round"></path><path d="M 241.500,88.500 C 243.133,87.800 242.892,87.143 244.500,86.500" stroke-width="14.142" stroke="rgb(33,33,33)" fill="none" stroke-linecap="round"></path><path d="M 244.500,86.500 C 245.392,86.143 245.531,86.694 246.500,86.500" stroke-width="14.569" stroke="rgb(33,33,33)" fill="none" stroke-linecap="round"></path><path d="M 246.500,86.500 C 248.031,86.194 248.036,86.086 249.500,85.500" stroke-width="14.787" stroke="rgb(33,33,33)" fill="none" stroke-linecap="round"></path><path d="M 249.500,85.500 C 250.536,85.086 250.444,84.764 251.500,84.500" stroke-width="15.053" stroke="rgb(33,33,33)" fill="none" stroke-linecap="round"></path><path d="M 251.500,84.500 C 252.444,84.264 252.556,84.736 253.500,84.500" stroke-width="15.385" stroke="rgb(33,33,33)" fill="none" stroke-linecap="round"></path><path d="M 253.500,84.500 C 254.556,84.236 254.444,83.764 255.500,83.500" stroke-width="15.545" stroke="rgb(33,33,33)" fill="none" stroke-linecap="round"></path><path d="M 255.500,83.500 C 256.444,83.264 256.500,83.500 257.500,83.500" stroke-width="15.794" stroke="rgb(33,33,33)" fill="none" stroke-linecap="round"></path><path d="M 257.500,83.500 C 258.000,83.500 258.000,83.500 258.500,83.500" stroke-width="16.299" stroke="rgb(33,33,33)" fill="none" stroke-linecap="round"></path><path d="M 258.500,83.500 C 259.500,83.500 259.500,83.500 260.500,83.500" stroke-width="16.279" stroke="rgb(33,33,33)" fill="none" stroke-linecap="round"></path><path d="M 260.500,83.500 C 261.000,83.500 261.036,83.345 261.500,83.500" stroke-width="16.665" stroke="rgb(33,33,33)" fill="none" stroke-linecap="round"></path><path d="M 261.500,83.500 C 262.536,83.845 262.879,83.672 263.500,84.500" stroke-width="16.953" stroke="rgb(33,33,33)" fill="none" stroke-linecap="round"></path><path d="M 263.500,84.500 C 264.379,85.672 264.000,86.000 264.500,87.500" stroke-width="16.816" stroke="rgb(33,33,33)" fill="none" stroke-linecap="round"></path><path d="M 264.500,87.500 C 265.000,89.000 264.799,89.098 265.500,90.500" stroke-width="15.960" stroke="rgb(33,33,33)" fill="none" stroke-linecap="round"></path><path d="M 265.500,90.500 C 266.299,92.098 267.125,91.811 267.500,93.500" stroke-width="15.813" stroke="rgb(33,33,33)" fill="none" stroke-linecap="round"></path><path d="M 267.500,93.500 C 268.125,96.311 267.500,96.500 267.500,99.500" stroke-width="14.733" stroke="rgb(33,33,33)" fill="none" stroke-linecap="round"></path><path d="M 267.500,99.500 C 267.500,102.000 267.500,102.000 267.500,104.500" stroke-width="14.469" stroke="rgb(33,33,33)" fill="none" stroke-linecap="round"></path><path d="M 267.500,104.500 C 267.500,108.000 267.500,108.000 267.500,111.500" stroke-width="13.995" stroke="rgb(33,33,33)" fill="none" stroke-linecap="round"></path><path d="M 267.500,111.500 C 267.500,114.500 267.500,114.500 267.500,117.500" stroke-width="13.583" stroke="rgb(33,33,33)" fill="none" stroke-linecap="round"></path><path d="M 267.500,117.500 C 267.500,122.500 267.738,122.511 267.500,127.500" stroke-width="12.986" stroke="rgb(33,33,33)" fill="none" stroke-linecap="round"></path><path d="M 267.500,127.500 C 267.238,133.011 267.280,133.041 266.500,138.500" stroke-width="11.486" stroke="rgb(33,33,33)" fill="none" stroke-linecap="round"></path><path d="M 266.500,138.500 C 265.780,143.541 265.373,143.478 264.500,148.500" stroke-width="11.276" stroke="rgb(33,33,33)" fill="none" stroke-linecap="round"></path><path d="M 264.500,148.500 C 263.373,154.978 263.894,155.089 262.500,161.500" stroke-width="10.498" stroke="rgb(33,33,33)" fill="none" stroke-linecap="round"></path><path d="M 262.500,161.500 C 261.394,166.589 260.765,166.441 259.500,171.500" stroke-width="10.374" stroke="rgb(33,33,33)" fill="none" stroke-linecap="round"></path><path d="M 259.500,171.500 C 258.265,176.441 258.897,176.611 257.500,181.500" stroke-width="10.484" stroke="rgb(33,33,33)" fill="none" stroke-linecap="round"></path><path d="M 257.500,181.500 C 255.897,187.111 255.523,187.009 253.500,192.500" stroke-width="9.937" stroke="rgb(33,33,33)" fill="none" stroke-linecap="round"></path><path d="M 253.500,192.500 C 252.023,196.509 251.702,196.412 250.500,200.500" stroke-width="10.119" stroke="rgb(33,33,33)" fill="none" stroke-linecap="round"></path><path d="M 250.500,200.500 C 249.202,204.912 249.869,205.119 248.500,209.500" stroke-width="10.096" stroke="rgb(33,33,33)" fill="none" stroke-linecap="round"></path><path d="M 248.500,209.500 C 247.369,213.119 247.000,213.000 245.500,216.500" stroke-width="10.348" stroke="rgb(33,33,33)" fill="none" stroke-linecap="round"></path><path d="M 245.500,216.500 C 244.000,220.000 243.942,219.976 242.500,223.500" stroke-width="10.846" stroke="rgb(33,33,33)" fill="none" stroke-linecap="round"></path><path d="M 242.500,223.500 C 234.942,241.976 235.144,242.065 227.500,260.500" stroke-width="11.221" stroke="rgb(33,33,33)" fill="none" stroke-linecap="round"></path><path d="M 227.500,260.500 C 226.644,262.565 226.500,262.500 225.500,264.500" stroke-width="9.685" stroke="rgb(33,33,33)" fill="none" stroke-linecap="round"></path><path d="M 225.500,264.500 C 224.500,266.500 224.725,266.662 223.500,268.500" stroke-width="10.430" stroke="rgb(33,33,33)" fill="none" stroke-linecap="round"></path><path d="M 223.500,268.500 C 222.725,269.662 222.379,269.401 221.500,270.500" stroke-width="10.961" stroke="rgb(33,33,33)" fill="none" stroke-linecap="round"></path><path d="M 221.500,270.500 C 220.379,271.901 220.299,271.902 219.500,273.500" stroke-width="11.571" stroke="rgb(33,33,33)" fill="none" stroke-linecap="round"></path><path d="M 219.500,273.500 C 218.799,274.902 219.191,275.118 218.500,276.500" stroke-width="12.252" stroke="rgb(33,33,33)" fill="none" stroke-linecap="round"></path><path d="M 218.500,276.500 C 218.191,277.118 218.081,277.113 217.500,277.500" stroke-width="12.959" stroke="rgb(33,33,33)" fill="none" stroke-linecap="round"></path><path d="M 217.500,277.500 C 216.581,278.113 216.121,277.672 215.500,278.500" stroke-width="13.547" stroke="rgb(33,33,33)" fill="none" stroke-linecap="round"></path><path d="M 215.500,278.500 C 214.621,279.672 215.379,280.328 214.500,281.500" stroke-width="13.878" stroke="rgb(33,33,33)" fill="none" stroke-linecap="round"></path><path d="M 214.500,281.500 C 213.879,282.328 213.383,281.838 212.500,282.500" stroke-width="14.341" stroke="rgb(33,33,33)" fill="none" stroke-linecap="round"></path><path d="M 212.500,282.500 C 211.383,283.338 211.500,283.500 210.500,284.500" stroke-width="14.747" stroke="rgb(33,33,33)" fill="none" stroke-linecap="round"></path><path d="M 210.500,284.500 C 210.000,285.000 210.081,285.113 209.500,285.500" stroke-width="15.049" stroke="rgb(33,33,33)" fill="none" stroke-linecap="round"></path><path d="M 209.500,285.500 C 208.581,286.113 208.536,286.155 207.500,286.500" stroke-width="15.374" stroke="rgb(33,33,33)" fill="none" stroke-linecap="round"></path><path d="M 207.500,286.500 C 207.036,286.655 206.892,286.239 206.500,286.500" stroke-width="15.870" stroke="rgb(33,33,33)" fill="none" stroke-linecap="round"></path><path d="M 206.500,286.500 C 205.392,287.239 205.672,287.914 204.500,288.500" stroke-width="15.853" stroke="rgb(33,33,33)" fill="none" stroke-linecap="round"></path><path d="M 204.500,288.500 C 203.672,288.914 203.379,288.207 202.500,288.500" stroke-width="16.292" stroke="rgb(33,33,33)" fill="none" stroke-linecap="round"></path><path d="M 202.500,288.500 C 201.879,288.707 202.121,289.293 201.500,289.500" stroke-width="16.627" stroke="rgb(33,33,33)" fill="none" stroke-linecap="round"></path><path d="M 201.500,289.500 C 200.621,289.793 200.500,289.500 199.500,289.500" stroke-width="16.540" stroke="rgb(33,33,33)" fill="none" stroke-linecap="round"></path><path d="M 199.500,289.500 C 199.000,289.500 198.914,289.293 198.500,289.500" stroke-width="16.883" stroke="rgb(33,33,33)" fill="none" stroke-linecap="round"></path><path d="M 198.500,289.500 C 197.914,289.793 198.086,290.207 197.500,290.500" stroke-width="17.048" stroke="rgb(33,33,33)" fill="none" stroke-linecap="round"></path><path d="M 197.500,290.500 C 197.086,290.707 197.000,290.500 196.500,290.500" stroke-width="17.304" stroke="rgb(33,33,33)" fill="none" stroke-linecap="round"></path><path d="M 196.500,290.500 C 196.000,290.500 196.000,290.500 195.500,290.500" stroke-width="17.565" stroke="rgb(33,33,33)" fill="none" stroke-linecap="round"></path><path d="M 195.500,290.500 C 195.000,290.500 195.000,290.500 194.500,290.500" stroke-width="17.595" stroke="rgb(33,33,33)" fill="none" stroke-linecap="round"></path><path d="M 194.500,290.500 C 194.000,290.500 194.000,290.500 193.500,290.500" stroke-width="17.752" stroke="rgb(33,33,33)" fill="none" stroke-linecap="round"></path><path d="M 193.500,290.500 C 193.000,290.500 192.750,290.750 192.500,290.500" stroke-width="18.039" stroke="rgb(33,33,33)" fill="none" stroke-linecap="round"></path><path d="M 192.500,290.500 C 192.250,290.250 192.655,289.964 192.500,289.500" stroke-width="18.166" stroke="rgb(33,33,33)" fill="none" stroke-linecap="round"></path><path d="M 192.500,289.500 C 192.155,288.464 191.714,288.568 191.500,287.500" stroke-width="17.522" stroke="rgb(33,33,33)" fill="none" stroke-linecap="round"></path><path d="M 191.500,287.500 C 191.214,286.068 191.500,286.000 191.500,284.500" stroke-width="17.095" stroke="rgb(33,33,33)" fill="none" stroke-linecap="round"></path><path d="M 191.500,284.500 C 191.500,283.000 191.500,283.000 191.500,281.500" stroke-width="16.768" stroke="rgb(33,33,33)" fill="none" stroke-linecap="round"></path><path d="M 191.500,281.500 C 191.500,280.000 191.500,280.000 191.500,278.500" stroke-width="16.426" stroke="rgb(33,33,33)" fill="none" stroke-linecap="round"></path><path d="M 191.500,278.500 C 191.500,275.500 191.500,275.500 191.500,272.500" stroke-width="15.921" stroke="rgb(33,33,33)" fill="none" stroke-linecap="round"></path><path d="M 191.500,272.500 C 191.500,269.500 191.048,269.437 191.500,266.500" stroke-width="14.285" stroke="rgb(33,33,33)" fill="none" stroke-linecap="round"></path><path d="M 191.500,266.500 C 192.048,262.937 192.415,262.974 193.500,259.500" stroke-width="13.809" stroke="rgb(33,33,33)" fill="none" stroke-linecap="round"></path><path d="M 193.500,259.500 C 194.915,254.974 194.664,254.861 196.500,250.500" stroke-width="12.785" stroke="rgb(33,33,33)" fill="none" stroke-linecap="round"></path><path d="M 196.500,250.500 C 198.664,245.361 199.108,245.551 201.500,240.500" stroke-width="11.977" stroke="rgb(33,33,33)" fill="none" stroke-linecap="round"></path><path d="M 201.500,240.500 C 203.608,236.051 203.479,235.991 205.500,231.500" stroke-width="11.574" stroke="rgb(33,33,33)" fill="none" stroke-linecap="round"></path><path d="M 205.500,231.500 C 207.979,225.991 207.903,225.954 210.500,220.500" stroke-width="10.839" stroke="rgb(33,33,33)" fill="none" stroke-linecap="round"></path><path d="M 210.500,220.500 C 212.903,215.454 212.907,215.451 215.500,210.500" stroke-width="10.766" stroke="rgb(33,33,33)" fill="none" stroke-linecap="round"></path><path d="M 215.500,210.500 C 218.407,204.951 218.811,205.146 221.500,199.500" stroke-width="10.035" stroke="rgb(33,33,33)" fill="none" stroke-linecap="round"></path><path d="M 221.500,199.500 C 223.811,194.646 222.922,194.187 225.500,189.500" stroke-width="9.976" stroke="rgb(33,33,33)" fill="none" stroke-linecap="round"></path><path d="M 225.500,189.500 C 228.422,184.187 229.326,184.694 232.500,179.500" stroke-width="9.792" stroke="rgb(33,33,33)" fill="none" stroke-linecap="round"></path><path d="M 232.500,179.500 C 234.826,175.694 234.408,175.451 236.500,171.500" stroke-width="9.959" stroke="rgb(33,33,33)" fill="none" stroke-linecap="round"></path><path d="M 236.500,171.500 C 238.908,166.951 238.776,166.858 241.500,162.500" stroke-width="10.134" stroke="rgb(33,33,33)" fill="none" stroke-linecap="round"></path><path d="M 241.500,162.500 C 243.776,158.858 244.253,159.152 246.500,155.500" stroke-width="9.905" stroke="rgb(33,33,33)" fill="none" stroke-linecap="round"></path><path d="M 246.500,155.500 C 248.253,152.652 247.813,152.392 249.500,149.500" stroke-width="10.281" stroke="rgb(33,33,33)" fill="none" stroke-linecap="round"></path><path d="M 249.500,149.500 C 251.313,146.392 251.381,146.413 253.500,143.500" stroke-width="10.460" stroke="rgb(33,33,33)" fill="none" stroke-linecap="round"></path><path d="M 253.500,143.500 C 255.381,140.913 255.500,141.000 257.500,138.500" stroke-width="10.857" stroke="rgb(33,33,33)" fill="none" stroke-linecap="round"></path><path d="M 257.500,138.500 C 259.500,136.000 259.668,136.117 261.500,133.500" stroke-width="11.309" stroke="rgb(33,33,33)" fill="none" stroke-linecap="round"></path><path d="M 261.500,133.500 C 263.168,131.117 262.955,130.972 264.500,128.500" stroke-width="11.084" stroke="rgb(33,33,33)" fill="none" stroke-linecap="round"></path><path d="M 264.500,128.500 C 265.455,126.972 265.332,126.862 266.500,125.500" stroke-width="11.794" stroke="rgb(33,33,33)" fill="none" stroke-linecap="round"></path><path d="M 266.500,125.500 C 268.332,123.362 268.624,123.611 270.500,121.500" stroke-width="11.670" stroke="rgb(33,33,33)" fill="none" stroke-linecap="round"></path><path d="M 270.500,121.500 C 272.624,119.111 272.535,119.027 274.500,116.500" stroke-width="11.799" stroke="rgb(33,33,33)" fill="none" stroke-linecap="round"></path><path d="M 274.500,116.500 C 276.035,114.527 276.180,114.611 277.500,112.500" stroke-width="12.104" stroke="rgb(33,33,33)" fill="none" stroke-linecap="round"></path><path d="M 277.500,112.500 C 278.680,110.611 278.175,110.266 279.500,108.500" stroke-width="12.364" stroke="rgb(33,33,33)" fill="none" stroke-linecap="round"></path><path d="M 279.500,108.500 C 281.175,106.266 281.642,106.623 283.500,104.500" stroke-width="12.621" stroke="rgb(33,33,33)" fill="none" stroke-linecap="round"></path><path d="M 283.500,104.500 C 285.142,102.623 285.047,102.534 286.500,100.500" stroke-width="12.589" stroke="rgb(33,33,33)" fill="none" stroke-linecap="round"></path><path d="M 286.500,100.500 C 287.547,99.034 287.453,98.966 288.500,97.500" stroke-width="12.989" stroke="rgb(33,33,33)" fill="none" stroke-linecap="round"></path><path d="M 288.500,97.500 C 289.953,95.466 290.047,95.534 291.500,93.500" stroke-width="12.995" stroke="rgb(33,33,33)" fill="none" stroke-linecap="round"></path><path d="M 291.500,93.500 C 292.547,92.034 292.379,91.901 293.500,90.500" stroke-width="13.333" stroke="rgb(33,33,33)" fill="none" stroke-linecap="round"></path><path d="M 293.500,90.500 C 294.379,89.401 294.725,89.662 295.500,88.500" stroke-width="13.884" stroke="rgb(33,33,33)" fill="none" stroke-linecap="round"></path><path d="M 295.500,88.500 C 296.725,86.662 296.167,86.167 297.500,84.500" stroke-width="13.549" stroke="rgb(33,33,33)" fill="none" stroke-linecap="round"></path><path d="M 297.500,84.500 C 298.167,83.667 298.879,84.328 299.500,83.500" stroke-width="14.059" stroke="rgb(33,33,33)" fill="none" stroke-linecap="round"></path><path d="M 299.500,83.500 C 300.379,82.328 299.500,81.500 300.500,80.500" stroke-width="14.235" stroke="rgb(33,33,33)" fill="none" stroke-linecap="round"></path><path d="M 300.500,80.500 C 301.500,79.500 302.118,80.191 303.500,79.500" stroke-width="14.451" stroke="rgb(33,33,33)" fill="none" stroke-linecap="round"></path><path d="M 303.500,79.500 C 304.118,79.191 304.000,79.000 304.500,78.500" stroke-width="15.098" stroke="rgb(33,33,33)" fill="none" stroke-linecap="round"></path><path d="M 304.500,78.500 C 305.500,77.500 305.383,77.338 306.500,76.500" stroke-width="14.810" stroke="rgb(33,33,33)" fill="none" stroke-linecap="round"></path><path d="M 306.500,76.500 C 307.383,75.838 307.581,76.113 308.500,75.500" stroke-width="15.174" stroke="rgb(33,33,33)" fill="none" stroke-linecap="round"></path><path d="M 308.500,75.500 C 309.081,75.113 308.919,74.887 309.500,74.500" stroke-width="15.542" stroke="rgb(33,33,33)" fill="none" stroke-linecap="round"></path><path d="M 309.500,74.500 C 310.419,73.887 310.444,73.764 311.500,73.500" stroke-width="15.783" stroke="rgb(33,33,33)" fill="none" stroke-linecap="round"></path><path d="M 311.500,73.500 C 312.444,73.264 312.621,73.793 313.500,73.500" stroke-width="16.108" stroke="rgb(33,33,33)" fill="none" stroke-linecap="round"></path><path d="M 313.500,73.500 C 314.121,73.293 314.000,73.000 314.500,72.500" stroke-width="16.163" stroke="rgb(33,33,33)" fill="none" stroke-linecap="round"></path><path d="M 314.500,72.500 C 315.000,72.000 314.919,71.887 315.500,71.500" stroke-width="16.519" stroke="rgb(33,33,33)" fill="none" stroke-linecap="round"></path><path d="M 315.500,71.500 C 316.419,70.887 316.444,70.764 317.500,70.500" stroke-width="16.270" stroke="rgb(33,33,33)" fill="none" stroke-linecap="round"></path><path d="M 317.500,70.500 C 318.444,70.264 318.500,70.500 319.500,70.500" stroke-width="16.657" stroke="rgb(33,33,33)" fill="none" stroke-linecap="round"></path><path d="M 319.500,70.500 C 320.000,70.500 320.000,70.500 320.500,70.500" stroke-width="17.137" stroke="rgb(33,33,33)" fill="none" stroke-linecap="round"></path><path d="M 320.500,70.500 C 321.000,70.500 321.000,70.500 321.500,70.500" stroke-width="17.251" stroke="rgb(33,33,33)" fill="none" stroke-linecap="round"></path><path d="M 321.500,70.500 C 322.000,70.500 322.000,70.500 322.500,70.500" stroke-width="17.623" stroke="rgb(33,33,33)" fill="none" stroke-linecap="round"></path><path d="M 322.500,70.500 C 323.000,70.500 323.086,70.293 323.500,70.500" stroke-width="17.774" stroke="rgb(33,33,33)" fill="none" stroke-linecap="round"></path><path d="M 323.500,70.500 C 324.086,70.793 324.293,70.879 324.500,71.500" stroke-width="17.991" stroke="rgb(33,33,33)" fill="none" stroke-linecap="round"></path><path d="M 324.500,71.500 C 324.793,72.379 324.264,72.556 324.500,73.500" stroke-width="17.756" stroke="rgb(33,33,33)" fill="none" stroke-linecap="round"></path><path d="M 324.500,73.500 C 324.764,74.556 325.321,74.424 325.500,75.500" stroke-width="17.426" stroke="rgb(33,33,33)" fill="none" stroke-linecap="round"></path><path d="M 325.500,75.500 C 325.821,77.424 325.500,77.500 325.500,79.500" stroke-width="16.740" stroke="rgb(33,33,33)" fill="none" stroke-linecap="round"></path><path d="M 325.500,79.500 C 325.500,81.000 325.500,81.000 325.500,82.500" stroke-width="16.728" stroke="rgb(33,33,33)" fill="none" stroke-linecap="round"></path><path d="M 325.500,82.500 C 325.500,84.500 325.500,84.500 325.500,86.500" stroke-width="15.556" stroke="rgb(33,33,33)" fill="none" stroke-linecap="round"></path><path d="M 325.500,86.500 C 325.500,90.000 325.500,90.000 325.500,93.500" stroke-width="14.795" stroke="rgb(33,33,33)" fill="none" stroke-linecap="round"></path><path d="M 325.500,93.500 C 325.500,96.000 325.726,96.019 325.500,98.500" stroke-width="14.261" stroke="rgb(33,33,33)" fill="none" stroke-linecap="round"></path><path d="M 325.500,98.500 C 325.226,101.519 325.000,101.500 324.500,104.500" stroke-width="13.999" stroke="rgb(33,33,33)" fill="none" stroke-linecap="round"></path><path d="M 324.500,104.500 C 324.000,107.500 324.183,107.541 323.500,110.500" stroke-width="13.569" stroke="rgb(33,33,33)" fill="none" stroke-linecap="round"></path><path d="M 323.500,110.500 C 322.683,114.041 322.093,113.943 321.500,117.500" stroke-width="13.153" stroke="rgb(33,33,33)" fill="none" stroke-linecap="round"></path><path d="M 321.500,117.500 C 321.093,119.943 321.942,120.072 321.500,122.500" stroke-width="13.367" stroke="rgb(33,33,33)" fill="none" stroke-linecap="round"></path><path d="M 321.500,122.500 C 320.942,125.572 320.408,125.473 319.500,128.500" stroke-width="12.714" stroke="rgb(33,33,33)" fill="none" stroke-linecap="round"></path><path d="M 319.500,128.500 C 318.908,130.473 319.150,130.549 318.500,132.500" stroke-width="13.009" stroke="rgb(33,33,33)" fill="none" stroke-linecap="round"></path><path d="M 318.500,132.500 C 317.650,135.049 317.593,135.042 316.500,137.500" stroke-width="13.039" stroke="rgb(33,33,33)" fill="none" stroke-linecap="round"></path><path d="M 316.500,137.500 C 315.593,139.542 315.407,139.458 314.500,141.500" stroke-width="13.219" stroke="rgb(33,33,33)" fill="none" stroke-linecap="round"></path><path d="M 314.500,141.500 C 313.407,143.958 313.500,144.000 312.500,146.500" stroke-width="13.426" stroke="rgb(33,33,33)" fill="none" stroke-linecap="round"></path><path d="M 312.500,146.500 C 311.500,149.000 311.593,149.042 310.500,151.500" stroke-width="12.977" stroke="rgb(33,33,33)" fill="none" stroke-linecap="round"></path><path d="M 310.500,151.500 C 309.593,153.542 309.407,153.458 308.500,155.500" stroke-width="13.168" stroke="rgb(33,33,33)" fill="none" stroke-linecap="round"></path><path d="M 308.500,155.500 C 307.407,157.958 307.593,158.042 306.500,160.500" stroke-width="13.065" stroke="rgb(33,33,33)" fill="none" stroke-linecap="round"></path><path d="M 306.500,160.500 C 305.593,162.542 305.407,162.458 304.500,164.500" stroke-width="13.240" stroke="rgb(33,33,33)" fill="none" stroke-linecap="round"></path><path d="M 304.500,164.500 C 303.407,166.958 303.698,167.104 302.500,169.500" stroke-width="13.443" stroke="rgb(33,33,33)" fill="none" stroke-linecap="round"></path><path d="M 302.500,169.500 C 301.698,171.104 301.302,170.896 300.500,172.500" stroke-width="13.276" stroke="rgb(33,33,33)" fill="none" stroke-linecap="round"></path><path d="M 300.500,172.500 C 299.302,174.896 299.811,175.205 298.500,177.500" stroke-width="13.472" stroke="rgb(33,33,33)" fill="none" stroke-linecap="round"></path><path d="M 298.500,177.500 C 297.811,178.705 297.208,178.320 296.500,179.500" stroke-width="13.746" stroke="rgb(33,33,33)" fill="none" stroke-linecap="round"></path><path d="M 296.500,179.500 C 295.708,180.820 296.191,181.118 295.500,182.500" stroke-width="14.045" stroke="rgb(33,33,33)" fill="none" stroke-linecap="round"></path><path d="M 295.500,182.500 C 295.191,183.118 294.887,182.919 294.500,183.500" stroke-width="14.622" stroke="rgb(33,33,33)" fill="none" stroke-linecap="round"></path><path d="M 294.500,183.500 C 293.887,184.419 294.113,184.581 293.500,185.500" stroke-width="14.971" stroke="rgb(33,33,33)" fill="none" stroke-linecap="round"></path><path d="M 293.500,185.500 C 293.113,186.081 292.793,185.914 292.500,186.500" stroke-width="15.613" stroke="rgb(33,33,33)" fill="none" stroke-linecap="round"></path><path d="M 292.500,186.500 C 292.293,186.914 292.500,187.000 292.500,187.500" stroke-width="16.126" stroke="rgb(33,33,33)" fill="none" stroke-linecap="round"></path><path d="M 292.500,187.500 C 292.500,188.000 292.750,188.250 292.500,188.500" stroke-width="16.737" stroke="rgb(33,33,33)" fill="none" stroke-linecap="round"></path><path d="M 292.500,188.500 C 292.250,188.750 291.750,188.750 291.500,188.500" stroke-width="17.047" stroke="rgb(33,33,33)" fill="none" stroke-linecap="round"></path><path d="M 291.500,188.500 C 291.250,188.250 291.500,188.000 291.500,187.500" stroke-width="17.552" stroke="rgb(33,33,33)" fill="none" stroke-linecap="round"></path><path d="M 291.500,187.500 C 291.500,186.500 291.500,186.500 291.500,185.500" stroke-width="17.412" stroke="rgb(33,33,33)" fill="none" stroke-linecap="round"></path><path d="M 291.500,185.500 C 291.500,184.500 291.500,184.500 291.500,183.500" stroke-width="17.440" stroke="rgb(33,33,33)" fill="none" stroke-linecap="round"></path><path d="M 291.500,183.500 C 291.500,182.000 291.500,182.000 291.500,180.500" stroke-width="16.478" stroke="rgb(33,33,33)" fill="none" stroke-linecap="round"></path><path d="M 291.500,180.500 C 291.500,179.500 291.337,179.480 291.500,178.500" stroke-width="16.682" stroke="rgb(33,33,33)" fill="none" stroke-linecap="round"></path><path d="M 291.500,178.500 C 291.837,176.480 292.000,176.500 292.500,174.500" stroke-width="15.711" stroke="rgb(33,33,33)" fill="none" stroke-linecap="round"></path><path d="M 292.500,174.500 C 293.000,172.500 293.053,172.512 293.500,170.500" stroke-width="15.416" stroke="rgb(33,33,33)" fill="none" stroke-linecap="round"></path><path d="M 293.500,170.500 C 294.053,168.012 293.947,167.988 294.500,165.500" stroke-width="14.968" stroke="rgb(33,33,33)" fill="none" stroke-linecap="round"></path><path d="M 294.500,165.500 C 294.947,163.488 294.739,163.403 295.500,161.500" stroke-width="14.838" stroke="rgb(33,33,33)" fill="none" stroke-linecap="round"></path><path d="M 295.500,161.500 C 296.739,158.403 297.113,158.551 298.500,155.500" stroke-width="14.427" stroke="rgb(33,33,33)" fill="none" stroke-linecap="round"></path><path d="M 298.500,155.500 C 299.613,153.051 299.407,152.958 300.500,150.500" stroke-width="13.713" stroke="rgb(33,33,33)" fill="none" stroke-linecap="round"></path><path d="M 300.500,150.500 C 301.407,148.458 301.672,148.571 302.500,146.500" stroke-width="13.844" stroke="rgb(33,33,33)" fill="none" stroke-linecap="round"></path><path d="M 302.500,146.500 C 303.672,143.571 303.199,143.362 304.500,140.500" stroke-width="13.404" stroke="rgb(33,33,33)" fill="none" stroke-linecap="round"></path><path d="M 304.500,140.500 C 305.699,137.862 306.328,138.136 307.500,135.500" stroke-width="13.277" stroke="rgb(33,33,33)" fill="none" stroke-linecap="round"></path><path d="M 307.500,135.500 C 308.328,133.636 307.850,133.451 308.500,131.500" stroke-width="13.649" stroke="rgb(33,33,33)" fill="none" stroke-linecap="round"></path><path d="M 308.500,131.500 C 309.350,128.951 309.387,128.949 310.500,126.500" stroke-width="12.928" stroke="rgb(33,33,33)" fill="none" stroke-linecap="round"></path><path d="M 310.500,126.500 C 311.887,123.449 312.000,123.500 313.500,120.500" stroke-width="12.857" stroke="rgb(33,33,33)" fill="none" stroke-linecap="round"></path><path d="M 313.500,120.500 C 314.500,118.500 314.593,118.542 315.500,116.500" stroke-width="12.985" stroke="rgb(33,33,33)" fill="none" stroke-linecap="round"></path><path d="M 315.500,116.500 C 316.593,114.042 316.407,113.958 317.500,111.500" stroke-width="13.020" stroke="rgb(33,33,33)" fill="none" stroke-linecap="round"></path><path d="M 317.500,111.500 C 318.407,109.458 318.720,109.581 319.500,107.500" stroke-width="13.204" stroke="rgb(33,33,33)" fill="none" stroke-linecap="round"></path><path d="M 319.500,107.500 C 320.220,105.581 319.610,105.279 320.500,103.500" stroke-width="13.335" stroke="rgb(33,33,33)" fill="none" stroke-linecap="round"></path><path d="M 320.500,103.500 C 321.110,102.279 321.662,102.617 322.500,101.500" stroke-width="13.851" stroke="rgb(33,33,33)" fill="none" stroke-linecap="round"></path><path d="M 322.500,101.500 C 323.162,100.617 323.000,100.500 323.500,99.500" stroke-width="14.206" stroke="rgb(33,33,33)" fill="none" stroke-linecap="round"></path><path d="M 323.500,99.500 C 324.000,98.500 324.000,98.500 324.500,97.500" stroke-width="14.620" stroke="rgb(33,33,33)" fill="none" stroke-linecap="round"></path><path d="M 324.500,97.500 C 325.000,96.500 324.750,96.250 325.500,95.500" stroke-width="14.969" stroke="rgb(33,33,33)" fill="none" stroke-linecap="round"></path><path d="M 325.500,95.500 C 326.250,94.750 326.809,95.191 327.500,94.500" stroke-width="15.535" stroke="rgb(33,33,33)" fill="none" stroke-linecap="round"></path><path d="M 327.500,94.500 C 327.809,94.191 327.293,93.914 327.500,93.500" stroke-width="15.972" stroke="rgb(33,33,33)" fill="none" stroke-linecap="round"></path><path d="M 327.500,93.500 C 327.793,92.914 328.207,93.086 328.500,92.500" stroke-width="16.297" stroke="rgb(33,33,33)" fill="none" stroke-linecap="round"></path><path d="M 328.500,92.500 C 328.707,92.086 328.191,91.809 328.500,91.500" stroke-width="16.649" stroke="rgb(33,33,33)" fill="none" stroke-linecap="round"></path><path d="M 328.500,91.500 C 329.191,90.809 329.500,91.000 330.500,90.500" stroke-width="16.685" stroke="rgb(33,33,33)" fill="none" stroke-linecap="round"></path><path d="M 330.500,90.500 C 331.500,90.000 331.581,90.113 332.500,89.500" stroke-width="16.953" stroke="rgb(33,33,33)" fill="none" stroke-linecap="round"></path><path d="M 332.500,89.500 C 333.081,89.113 332.914,88.793 333.500,88.500" stroke-width="17.173" stroke="rgb(33,33,33)" fill="none" stroke-linecap="round"></path><path d="M 333.500,88.500 C 333.914,88.293 334.000,88.500 334.500,88.500" stroke-width="17.333" stroke="rgb(33,33,33)" fill="none" stroke-linecap="round"></path><path d="M 334.500,88.500 C 335.000,88.500 335.086,88.707 335.500,88.500" stroke-width="17.504" stroke="rgb(33,33,33)" fill="none" stroke-linecap="round"></path><path d="M 335.500,88.500 C 336.086,88.207 335.919,87.887 336.500,87.500" stroke-width="17.696" stroke="rgb(33,33,33)" fill="none" stroke-linecap="round"></path><path d="M 336.500,87.500 C 337.419,86.887 337.464,86.845 338.500,86.500" stroke-width="16.806" stroke="rgb(33,33,33)" fill="none" stroke-linecap="round"></path><path d="M 338.500,86.500 C 338.964,86.345 339.000,86.500 339.500,86.500" stroke-width="17.250" stroke="rgb(33,33,33)" fill="none" stroke-linecap="round"></path><path d="M 339.500,86.500 C 340.500,86.500 340.500,86.500 341.500,86.500" stroke-width="17.470" stroke="rgb(33,33,33)" fill="none" stroke-linecap="round"></path><path d="M 341.500,86.500 C 342.000,86.500 342.333,86.167 342.500,86.500" stroke-width="17.812" stroke="rgb(33,33,33)" fill="none" stroke-linecap="round"></path><path d="M 342.500,86.500 C 342.833,87.167 342.086,87.672 342.500,88.500" stroke-width="17.465" stroke="rgb(33,33,33)" fill="none" stroke-linecap="round"></path><path d="M 342.500,88.500 C 343.086,89.672 343.792,89.320 344.500,90.500" stroke-width="17.101" stroke="rgb(33,33,33)" fill="none" stroke-linecap="round"></path><path d="M 344.500,90.500 C 345.292,91.820 345.243,91.960 345.500,93.500" stroke-width="16.631" stroke="rgb(33,33,33)" fill="none" stroke-linecap="round"></path><path d="M 345.500,93.500 C 345.743,94.960 345.500,95.000 345.500,96.500" stroke-width="16.409" stroke="rgb(33,33,33)" fill="none" stroke-linecap="round"></path><path d="M 345.500,96.500 C 345.500,98.500 345.500,98.500 345.500,100.500" stroke-width="16.216" stroke="rgb(33,33,33)" fill="none" stroke-linecap="round"></path><path d="M 345.500,100.500 C 345.500,102.000 345.500,102.000 345.500,103.500" stroke-width="15.762" stroke="rgb(33,33,33)" fill="none" stroke-linecap="round"></path><path d="M 345.500,103.500 C 345.500,105.500 345.500,105.500 345.500,107.500" stroke-width="15.484" stroke="rgb(33,33,33)" fill="none" stroke-linecap="round"></path><path d="M 345.500,107.500 C 345.500,110.500 345.500,110.500 345.500,113.500" stroke-width="14.678" stroke="rgb(33,33,33)" fill="none" stroke-linecap="round"></path><path d="M 345.500,113.500 C 345.500,116.000 345.500,116.000 345.500,118.500" stroke-width="14.427" stroke="rgb(33,33,33)" fill="none" stroke-linecap="round"></path><path d="M 345.500,118.500 C 345.500,121.000 345.748,121.025 345.500,123.500" stroke-width="14.523" stroke="rgb(33,33,33)" fill="none" stroke-linecap="round"></path><path d="M 345.500,123.500 C 345.248,126.025 345.000,126.000 344.500,128.500" stroke-width="13.632" stroke="rgb(33,33,33)" fill="none" stroke-linecap="round"></path><path d="M 344.500,128.500 C 344.000,131.000 344.299,131.103 343.500,133.500" stroke-width="13.673" stroke="rgb(33,33,33)" fill="none" stroke-linecap="round"></path><path d="M 343.500,133.500 C 342.799,135.603 342.201,135.397 341.500,137.500" stroke-width="13.643" stroke="rgb(33,33,33)" fill="none" stroke-linecap="round"></path><path d="M 341.500,137.500 C 340.701,139.897 341.117,140.031 340.500,142.500" stroke-width="13.494" stroke="rgb(33,33,33)" fill="none" stroke-linecap="round"></path><path d="M 340.500,142.500 C 340.117,144.031 339.806,143.969 339.500,145.500" stroke-width="13.888" stroke="rgb(33,33,33)" fill="none" stroke-linecap="round"></path><path d="M 339.500,145.500 C 339.306,146.469 339.736,146.556 339.500,147.500" stroke-width="14.353" stroke="rgb(33,33,33)" fill="none" stroke-linecap="round"></path><path d="M 339.500,147.500 C 339.236,148.556 339.113,148.581 338.500,149.500" stroke-width="14.825" stroke="rgb(33,33,33)" fill="none" stroke-linecap="round"></path><path d="M 338.500,149.500 C 338.113,150.081 337.887,149.919 337.500,150.500" stroke-width="15.189" stroke="rgb(33,33,33)" fill="none" stroke-linecap="round"></path><path d="M 337.500,150.500 C 336.887,151.419 336.845,151.464 336.500,152.500" stroke-width="15.491" stroke="rgb(33,33,33)" fill="none" stroke-linecap="round"></path><path d="M 336.500,152.500 C 336.345,152.964 336.500,153.000 336.500,153.500" stroke-width="15.970" stroke="rgb(33,33,33)" fill="none" stroke-linecap="round"></path><path d="M 336.500,153.500 C 336.500,154.000 336.500,154.000 336.500,154.500" stroke-width="16.405" stroke="rgb(33,33,33)" fill="none" stroke-linecap="round"></path><path d="M 336.500,154.500 C 336.500,155.000 336.750,155.250 336.500,155.500" stroke-width="16.834" stroke="rgb(33,33,33)" fill="none" stroke-linecap="round"></path><path d="M 336.500,155.500 C 336.250,155.750 335.750,155.250 335.500,155.500" stroke-width="16.936" stroke="rgb(33,33,33)" fill="none" stroke-linecap="round"></path><path d="M 335.500,155.500 C 335.250,155.750 335.500,156.000 335.500,156.500" stroke-width="17.238" stroke="rgb(33,33,33)" fill="none" stroke-linecap="round"></path><path d="M 335.500,156.500 C 335.500,157.000 335.500,157.000 335.500,157.500" stroke-width="17.687" stroke="rgb(33,33,33)" fill="none" stroke-linecap="round"></path><path d="M 335.500,157.500 C 335.500,158.000 335.500,158.500 335.500,158.500" stroke-width="18.080" stroke="rgb(33,33,33)" fill="none" stroke-linecap="round"></path><path d="M 335.500,158.500 C 335.500,158.500 335.500,158.000 335.500,157.500" stroke-width="18.455" stroke="rgb(33,33,33)" fill="none" stroke-linecap="round"></path><path d="M 335.500,157.500 C 335.500,157.000 335.500,157.000 335.500,156.500" stroke-width="18.446" stroke="rgb(33,33,33)" fill="none" stroke-linecap="round"></path><path d="M 335.500,156.500 C 335.500,155.500 335.500,155.500 335.500,154.500" stroke-width="18.109" stroke="rgb(33,33,33)" fill="none" stroke-linecap="round"></path><path d="M 335.500,154.500 C 335.500,153.000 335.500,153.000 335.500,151.500" stroke-width="17.438" stroke="rgb(33,33,33)" fill="none" stroke-linecap="round"></path><path d="M 335.500,151.500 C 335.500,149.500 335.500,149.500 335.500,147.500" stroke-width="16.749" stroke="rgb(33,33,33)" fill="none" stroke-linecap="round"></path><path d="M 335.500,147.500 C 335.500,144.500 335.252,144.479 335.500,141.500" stroke-width="15.732" stroke="rgb(33,33,33)" fill="none" stroke-linecap="round"></path><path d="M 335.500,141.500 C 335.752,138.479 335.817,138.459 336.500,135.500" stroke-width="14.984" stroke="rgb(33,33,33)" fill="none" stroke-linecap="round"></path><path d="M 336.500,135.500 C 337.317,131.959 337.683,132.041 338.500,128.500" stroke-width="14.535" stroke="rgb(33,33,33)" fill="none" stroke-linecap="round"></path><path d="M 338.500,128.500 C 339.183,125.541 338.765,125.442 339.500,122.500" stroke-width="13.346" stroke="rgb(33,33,33)" fill="none" stroke-linecap="round"></path><path d="M 339.500,122.500 C 340.265,119.442 340.670,119.545 341.500,116.500" stroke-width="13.147" stroke="rgb(33,33,33)" fill="none" stroke-linecap="round"></path><path d="M 341.500,116.500 C 342.170,114.045 342.000,114.000 342.500,111.500" stroke-width="13.199" stroke="rgb(33,33,33)" fill="none" stroke-linecap="round"></path><path d="M 342.500,111.500 C 343.000,109.000 342.883,108.969 343.500,106.500" stroke-width="13.241" stroke="rgb(33,33,33)" fill="none" stroke-linecap="round"></path><path d="M 343.500,106.500 C 343.883,104.969 343.799,104.902 344.500,103.500" stroke-width="13.755" stroke="rgb(33,33,33)" fill="none" stroke-linecap="round"></path><path d="M 344.500,103.500 C 345.299,101.902 345.857,102.108 346.500,100.500" stroke-width="13.519" stroke="rgb(33,33,33)" fill="none" stroke-linecap="round"></path><path d="M 346.500,100.500 C 346.857,99.608 346.264,99.444 346.500,98.500" stroke-width="14.115" stroke="rgb(33,33,33)" fill="none" stroke-linecap="round"></path><path d="M 346.500,98.500 C 346.764,97.444 346.887,97.419 347.500,96.500" stroke-width="14.491" stroke="rgb(33,33,33)" fill="none" stroke-linecap="round"></path><path d="M 347.500,96.500 C 347.887,95.919 348.113,96.081 348.500,95.500" stroke-width="15.042" stroke="rgb(33,33,33)" fill="none" stroke-linecap="round"></path><path d="M 348.500,95.500 C 349.113,94.581 348.750,94.250 349.500,93.500" stroke-width="15.471" stroke="rgb(33,33,33)" fill="none" stroke-linecap="round"></path><path d="M 349.500,93.500 C 350.250,92.750 350.581,93.113 351.500,92.500" stroke-width="15.151" stroke="rgb(33,33,33)" fill="none" stroke-linecap="round"></path><path d="M 351.500,92.500 C 352.081,92.113 352.000,92.000 352.500,91.500" stroke-width="15.663" stroke="rgb(33,33,33)" fill="none" stroke-linecap="round"></path><path d="M 352.500,91.500 C 353.000,91.000 352.919,90.887 353.500,90.500" stroke-width="15.950" stroke="rgb(33,33,33)" fill="none" stroke-linecap="round"></path><path d="M 353.500,90.500 C 354.419,89.887 354.500,90.000 355.500,89.500" stroke-width="16.066" stroke="rgb(33,33,33)" fill="none" stroke-linecap="round"></path><path d="M 355.500,89.500 C 356.500,89.000 356.750,89.250 357.500,88.500" stroke-width="16.160" stroke="rgb(33,33,33)" fill="none" stroke-linecap="round"></path><path d="M 357.500,88.500 C 358.250,87.750 357.646,86.927 358.500,86.500" stroke-width="16.237" stroke="rgb(33,33,33)" fill="none" stroke-linecap="round"></path><path d="M 358.500,86.500 C 359.646,85.927 360.141,86.840 361.500,86.500" stroke-width="16.229" stroke="rgb(33,33,33)" fill="none" stroke-linecap="round"></path><path d="M 361.500,86.500 C 362.141,86.340 362.000,86.000 362.500,85.500" stroke-width="16.349" stroke="rgb(33,33,33)" fill="none" stroke-linecap="round"></path><path d="M 362.500,85.500 C 363.000,85.000 362.879,84.707 363.500,84.500" stroke-width="16.610" stroke="rgb(33,33,33)" fill="none" stroke-linecap="round"></path><path d="M 363.500,84.500 C 364.379,84.207 364.833,84.833 365.500,84.500" stroke-width="16.662" stroke="rgb(33,33,33)" fill="none" stroke-linecap="round"></path><path d="M 365.500,84.500 C 365.833,84.333 365.293,83.914 365.500,83.500" stroke-width="16.985" stroke="rgb(33,33,33)" fill="none" stroke-linecap="round"></path><path d="M 365.500,83.500 C 365.793,82.914 365.914,82.793 366.500,82.500" stroke-width="17.199" stroke="rgb(33,33,33)" fill="none" stroke-linecap="round"></path><path d="M 366.500,82.500 C 366.914,82.293 367.000,82.500 367.500,82.500" stroke-width="17.301" stroke="rgb(33,33,33)" fill="none" stroke-linecap="round"></path><path d="M 367.500,82.500 C 368.000,82.500 368.489,82.011 368.500,82.500" stroke-width="17.539" stroke="rgb(33,33,33)" fill="none" stroke-linecap="round"></path><path d="M 368.500,82.500 C 368.989,103.511 369.969,104.193 368.500,125.500" stroke-width="17.429" stroke="rgb(33,33,33)" fill="none" stroke-linecap="round"></path><path d="M 368.500,125.500 C 367.969,133.193 366.848,133.120 364.500,140.500" stroke-width="16.827" stroke="rgb(33,33,33)" fill="none" stroke-linecap="round"></path><path d="M 364.500,140.500 C 363.348,144.120 362.826,143.964 361.500,147.500" stroke-width="16.923" stroke="rgb(33,33,33)" fill="none" stroke-linecap="round"></path><path d="M 361.500,147.500 C 361.326,147.964 361.620,148.019 361.500,148.500" stroke-width="17.077" stroke="rgb(33,33,33)" fill="none" stroke-linecap="round"></path><path d="M 361.500,148.500 C 361.120,150.019 361.260,150.360 360.500,151.500" stroke-width="15.496" stroke="rgb(33,33,33)" fill="none" stroke-linecap="round"></path><path d="M 360.500,151.500 C 360.260,151.860 359.667,151.167 359.500,151.500" stroke-width="16.002" stroke="rgb(33,33,33)" fill="none" stroke-linecap="round"></path><path d="M 359.500,151.500 C 359.167,152.167 359.500,152.500 359.500,153.500" stroke-width="16.366" stroke="rgb(33,33,33)" fill="none" stroke-linecap="round"></path><path d="M 359.500,153.500 C 359.500,154.000 359.500,154.000 359.500,154.500" stroke-width="16.332" stroke="rgb(33,33,33)" fill="none" stroke-linecap="round"></path><path d="M 359.500,154.500 C 359.500,155.500 359.500,155.500 359.500,156.500" stroke-width="16.527" stroke="rgb(33,33,33)" fill="none" stroke-linecap="round"></path><path d="M 359.500,156.500 C 359.500,157.000 359.707,157.086 359.500,157.500" stroke-width="16.753" stroke="rgb(33,33,33)" fill="none" stroke-linecap="round"></path><path d="M 359.500,157.500 C 359.207,158.086 358.793,157.914 358.500,158.500" stroke-width="16.978" stroke="rgb(33,33,33)" fill="none" stroke-linecap="round"></path><path d="M 358.500,158.500 C 358.293,158.914 358.500,159.000 358.500,159.500" stroke-width="17.214" stroke="rgb(33,33,33)" fill="none" stroke-linecap="round"></path><path d="M 358.500,159.500 C 358.500,160.000 358.500,160.000 358.500,160.500" stroke-width="17.592" stroke="rgb(33,33,33)" fill="none" stroke-linecap="round"></path><path d="M 358.500,160.500 C 358.500,161.000 358.707,161.086 358.500,161.500" stroke-width="17.715" stroke="rgb(33,33,33)" fill="none" stroke-linecap="round"></path><path d="M 358.500,161.500 C 358.207,162.086 357.707,161.879 357.500,162.500" stroke-width="17.942" stroke="rgb(33,33,33)" fill="none" stroke-linecap="round"></path><path d="M 357.500,162.500 C 357.207,163.379 357.500,163.500 357.500,164.500" stroke-width="18.346" stroke="rgb(33,33,33)" fill="none" stroke-linecap="round"></path><path d="M 357.500,164.500 C 357.500,165.000 357.500,165.000 357.500,165.500" stroke-width="18.389" stroke="rgb(33,33,33)" fill="none" stroke-linecap="round"></path><path d="M 357.500,165.500 C 357.500,166.500 357.500,166.500 357.500,167.500" stroke-width="17.994" stroke="rgb(33,33,33)" fill="none" stroke-linecap="round"></path><path d="M 357.500,167.500 C 357.500,168.500 357.500,168.500 357.500,169.500" stroke-width="17.758" stroke="rgb(33,33,33)" fill="none" stroke-linecap="round"></path><path d="M 357.500,169.500 C 357.500,170.500 357.500,170.500 357.500,171.500" stroke-width="17.574" stroke="rgb(33,33,33)" fill="none" stroke-linecap="round"></path><path d="M 357.500,171.500 C 357.500,172.000 357.500,172.000 357.500,172.500" stroke-width="17.735" stroke="rgb(33,33,33)" fill="none" stroke-linecap="round"></path><path d="M 357.500,172.500 C 357.500,173.000 357.500,173.000 357.500,173.500" stroke-width="17.866" stroke="rgb(33,33,33)" fill="none" stroke-linecap="round"></path><path d="M 357.500,173.500 C 357.500,174.000 357.500,174.000 357.500,174.500" stroke-width="18.001" stroke="rgb(33,33,33)" fill="none" stroke-linecap="round"></path><path d="M 357.500,174.500 C 357.500,175.500 357.500,175.500 357.500,176.500" stroke-width="17.609" stroke="rgb(33,33,33)" fill="none" stroke-linecap="round"></path><path d="M 357.500,176.500 C 357.500,177.000 357.500,177.000 357.500,177.500" stroke-width="17.921" stroke="rgb(33,33,33)" fill="none" stroke-linecap="round"></path><path d="M 357.500,177.500 C 357.500,178.000 357.500,178.000 357.500,178.500" stroke-width="17.981" stroke="rgb(33,33,33)" fill="none" stroke-linecap="round"></path><path d="M 357.500,178.500 C 357.500,179.000 357.500,179.000 357.500,179.500" stroke-width="18.140" stroke="rgb(33,33,33)" fill="none" stroke-linecap="round"></path><path d="M 357.500,179.500 C 357.500,180.000 357.500,180.000 357.500,180.500" stroke-width="18.329" stroke="rgb(33,33,33)" fill="none" stroke-linecap="round"></path><path d="M 357.500,180.500 C 357.500,181.000 357.500,181.667 357.500,181.500" stroke-width="18.569" stroke="rgb(33,33,33)" fill="none" stroke-linecap="round"></path><path d="M 357.500,181.500 C 357.500,181.167 357.500,180.500 357.500,179.500" stroke-width="18.831" stroke="rgb(33,33,33)" fill="none" stroke-linecap="round"></path><path d="M 357.500,179.500 C 357.500,178.000 357.500,178.000 357.500,176.500" stroke-width="18.076" stroke="rgb(33,33,33)" fill="none" stroke-linecap="round"></path><path d="M 357.500,176.500 C 357.500,175.000 357.500,175.000 357.500,173.500" stroke-width="17.414" stroke="rgb(33,33,33)" fill="none" stroke-linecap="round"></path><path d="M 357.500,173.500 C 357.500,171.000 357.500,171.000 357.500,168.500" stroke-width="16.685" stroke="rgb(33,33,33)" fill="none" stroke-linecap="round"></path><path d="M 357.500,168.500 C 357.500,165.000 357.251,164.982 357.500,161.500" stroke-width="15.046" stroke="rgb(33,33,33)" fill="none" stroke-linecap="round"></path><path d="M 357.500,161.500 C 357.751,157.982 358.265,158.019 358.500,154.500" stroke-width="14.410" stroke="rgb(33,33,33)" fill="none" stroke-linecap="round"></path><path d="M 358.500,154.500 C 358.765,150.519 358.251,150.484 358.500,146.500" stroke-width="13.482" stroke="rgb(33,33,33)" fill="none" stroke-linecap="round"></path><path d="M 358.500,146.500 C 358.751,142.484 359.249,142.516 359.500,138.500" stroke-width="12.957" stroke="rgb(33,33,33)" fill="none" stroke-linecap="round"></path><path d="M 359.500,138.500 C 359.749,134.516 359.251,134.484 359.500,130.500" stroke-width="12.871" stroke="rgb(33,33,33)" fill="none" stroke-linecap="round"></path><path d="M 359.500,130.500 C 359.751,126.484 360.232,126.514 360.500,122.500" stroke-width="11.723" stroke="rgb(33,33,33)" fill="none" stroke-linecap="round"></path><path d="M 360.500,122.500 C 360.732,119.014 360.268,118.986 360.500,115.500" stroke-width="11.921" stroke="rgb(33,33,33)" fill="none" stroke-linecap="round"></path><path d="M 360.500,115.500 C 360.768,111.486 360.967,111.496 361.500,107.500" stroke-width="11.503" stroke="rgb(33,33,33)" fill="none" stroke-linecap="round"></path><path d="M 361.500,107.500 C 361.967,103.996 362.230,104.016 362.500,100.500" stroke-width="11.573" stroke="rgb(33,33,33)" fill="none" stroke-linecap="round"></path><path d="M 362.500,100.500 C 362.730,97.516 362.204,97.464 362.500,94.500" stroke-width="11.774" stroke="rgb(33,33,33)" fill="none" stroke-linecap="round"></path><path d="M 362.500,94.500 C 362.704,92.464 362.908,92.473 363.500,90.500" stroke-width="12.144" stroke="rgb(33,33,33)" fill="none" stroke-linecap="round"></path><path d="M 363.500,90.500 C 364.408,87.473 364.592,87.527 365.500,84.500" stroke-width="12.352" stroke="rgb(33,33,33)" fill="none" stroke-linecap="round"></path><path d="M 365.500,84.500 C 366.092,82.527 365.934,82.481 366.500,80.500" stroke-width="12.542" stroke="rgb(33,33,33)" fill="none" stroke-linecap="round"></path><path d="M 366.500,80.500 C 366.934,78.981 366.879,78.950 367.500,77.500" stroke-width="13.023" stroke="rgb(33,33,33)" fill="none" stroke-linecap="round"></path><path d="M 367.500,77.500 C 368.379,75.450 368.901,75.595 369.500,73.500" stroke-width="13.121" stroke="rgb(33,33,33)" fill="none" stroke-linecap="round"></path><path d="M 369.500,73.500 C 369.901,72.095 368.985,71.787 369.500,70.500" stroke-width="13.548" stroke="rgb(33,33,33)" fill="none" stroke-linecap="round"></path><path d="M 369.500,70.500 C 369.985,69.287 370.500,69.500 371.500,68.500" stroke-width="14.100" stroke="rgb(33,33,33)" fill="none" stroke-linecap="round"></path><path d="M 371.500,68.500 C 372.000,68.000 372.077,68.063 372.500,67.500" stroke-width="14.505" stroke="rgb(33,33,33)" fill="none" stroke-linecap="round"></path><path d="M 372.500,67.500 C 373.577,66.063 373.423,65.937 374.500,64.500" stroke-width="14.649" stroke="rgb(33,33,33)" fill="none" stroke-linecap="round"></path><path d="M 374.500,64.500 C 374.923,63.937 375.000,64.000 375.500,63.500" stroke-width="15.098" stroke="rgb(33,33,33)" fill="none" stroke-linecap="round"></path><path d="M 375.500,63.500 C 376.500,62.500 376.662,62.617 377.500,61.500" stroke-width="15.230" stroke="rgb(33,33,33)" fill="none" stroke-linecap="round"></path><path d="M 377.500,61.500 C 378.162,60.617 377.809,60.191 378.500,59.500" stroke-width="15.630" stroke="rgb(33,33,33)" fill="none" stroke-linecap="round"></path><path d="M 378.500,59.500 C 378.809,59.191 379.108,59.761 379.500,59.500" stroke-width="15.947" stroke="rgb(33,33,33)" fill="none" stroke-linecap="round"></path><path d="M 379.500,59.500 C 380.608,58.761 380.383,58.338 381.500,57.500" stroke-width="15.979" stroke="rgb(33,33,33)" fill="none" stroke-linecap="round"></path><path d="M 381.500,57.500 C 382.383,56.838 382.500,57.000 383.500,56.500" stroke-width="15.948" stroke="rgb(33,33,33)" fill="none" stroke-linecap="round"></path><path d="M 383.500,56.500 C 384.500,56.000 384.464,55.914 385.500,55.500" stroke-width="16.117" stroke="rgb(33,33,33)" fill="none" stroke-linecap="round"></path><path d="M 385.500,55.500 C 386.964,54.914 386.969,54.806 388.500,54.500" stroke-width="15.965" stroke="rgb(33,33,33)" fill="none" stroke-linecap="round"></path><path d="M 388.500,54.500 C 389.469,54.306 389.531,54.694 390.500,54.500" stroke-width="16.082" stroke="rgb(33,33,33)" fill="none" stroke-linecap="round"></path><path d="M 390.500,54.500 C 392.031,54.194 391.960,53.757 393.500,53.500" stroke-width="16.071" stroke="rgb(33,33,33)" fill="none" stroke-linecap="round"></path><path d="M 393.500,53.500 C 394.960,53.257 395.068,53.786 396.500,53.500" stroke-width="15.783" stroke="rgb(33,33,33)" fill="none" stroke-linecap="round"></path><path d="M 396.500,53.500 C 397.568,53.286 397.444,52.764 398.500,52.500" stroke-width="15.931" stroke="rgb(33,33,33)" fill="none" stroke-linecap="round"></path><path d="M 398.500,52.500 C 399.444,52.264 399.500,52.500 400.500,52.500" stroke-width="16.054" stroke="rgb(33,33,33)" fill="none" stroke-linecap="round"></path><path d="M 400.500,52.500 C 401.500,52.500 401.500,52.500 402.500,52.500" stroke-width="16.212" stroke="rgb(33,33,33)" fill="none" stroke-linecap="round"></path><path d="M 402.500,52.500 C 403.500,52.500 403.500,52.500 404.500,52.500" stroke-width="16.463" stroke="rgb(33,33,33)" fill="none" stroke-linecap="round"></path><path d="M 404.500,52.500 C 405.000,52.500 405.000,52.500 405.500,52.500" stroke-width="16.634" stroke="rgb(33,33,33)" fill="none" stroke-linecap="round"></path><path d="M 405.500,52.500 C 406.500,52.500 406.500,52.500 407.500,52.500" stroke-width="16.732" stroke="rgb(33,33,33)" fill="none" stroke-linecap="round"></path><path d="M 407.500,52.500 C 408.000,52.500 408.000,52.500 408.500,52.500" stroke-width="17.011" stroke="rgb(33,33,33)" fill="none" stroke-linecap="round"></path><path d="M 408.500,52.500 C 409.500,52.500 409.621,52.207 410.500,52.500" stroke-width="16.983" stroke="rgb(33,33,33)" fill="none" stroke-linecap="round"></path><path d="M 410.500,52.500 C 411.121,52.707 410.914,53.207 411.500,53.500" stroke-width="17.337" stroke="rgb(33,33,33)" fill="none" stroke-linecap="round"></path><path d="M 411.500,53.500 C 411.914,53.707 412.086,53.293 412.500,53.500" stroke-width="17.569" stroke="rgb(33,33,33)" fill="none" stroke-linecap="round"></path><path d="M 412.500,53.500 C 413.086,53.793 413.000,54.000 413.500,54.500" stroke-width="17.496" stroke="rgb(33,33,33)" fill="none" stroke-linecap="round"></path><path d="M 413.500,54.500 C 414.000,55.000 414.113,54.919 414.500,55.500" stroke-width="17.544" stroke="rgb(33,33,33)" fill="none" stroke-linecap="round"></path><path d="M 414.500,55.500 C 415.113,56.419 415.286,56.432 415.500,57.500" stroke-width="17.396" stroke="rgb(33,33,33)" fill="none" stroke-linecap="round"></path><path d="M 415.500,57.500 C 415.786,58.932 414.985,59.213 415.500,60.500" stroke-width="16.905" stroke="rgb(33,33,33)" fill="none" stroke-linecap="round"></path><path d="M 415.500,60.500 C 415.985,61.713 416.890,61.279 417.500,62.500" stroke-width="16.739" stroke="rgb(33,33,33)" fill="none" stroke-linecap="round"></path><path d="M 417.500,62.500 C 418.390,64.279 418.246,64.470 418.500,66.500" stroke-width="15.934" stroke="rgb(33,33,33)" fill="none" stroke-linecap="round"></path><path d="M 418.500,66.500 C 418.746,68.470 418.254,68.530 418.500,70.500" stroke-width="15.617" stroke="rgb(33,33,33)" fill="none" stroke-linecap="round"></path><path d="M 418.500,70.500 C 418.754,72.530 419.000,72.500 419.500,74.500" stroke-width="15.343" stroke="rgb(33,33,33)" fill="none" stroke-linecap="round"></path><path d="M 419.500,74.500 C 420.000,76.500 420.211,76.474 420.500,78.500" stroke-width="15.131" stroke="rgb(33,33,33)" fill="none" stroke-linecap="round"></path><path d="M 420.500,78.500 C 420.711,79.974 420.500,80.000 420.500,81.500" stroke-width="15.378" stroke="rgb(33,33,33)" fill="none" stroke-linecap="round"></path><path d="M 420.500,81.500 C 420.500,83.000 420.500,83.000 420.500,84.500" stroke-width="14.962" stroke="rgb(33,33,33)" fill="none" stroke-linecap="round"></path><path d="M 420.500,84.500 C 420.500,86.000 420.500,86.000 420.500,87.500" stroke-width="15.142" stroke="rgb(33,33,33)" fill="none" stroke-linecap="round"></path><path d="M 420.500,87.500 C 420.500,88.500 420.500,88.500 420.500,89.500" stroke-width="15.408" stroke="rgb(33,33,33)" fill="none" stroke-linecap="round"></path><path d="M 420.500,89.500 C 420.500,91.000 420.500,91.000 420.500,92.500" stroke-width="15.441" stroke="rgb(33,33,33)" fill="none" stroke-linecap="round"></path><path d="M 420.500,92.500 C 420.500,94.000 420.500,94.000 420.500,95.500" stroke-width="15.633" stroke="rgb(33,33,33)" fill="none" stroke-linecap="round"></path><path d="M 420.500,95.500 C 420.500,96.500 420.694,96.531 420.500,97.500" stroke-width="15.657" stroke="rgb(33,33,33)" fill="none" stroke-linecap="round"></path><path d="M 420.500,97.500 C 420.194,99.031 420.292,99.180 419.500,100.500" stroke-width="15.671" stroke="rgb(33,33,33)" fill="none" stroke-linecap="round"></path><path d="M 419.500,100.500 C 418.792,101.680 418.086,101.328 417.500,102.500" stroke-width="15.524" stroke="rgb(33,33,33)" fill="none" stroke-linecap="round"></path><path d="M 417.500,102.500 C 417.086,103.328 418.035,103.786 417.500,104.500" stroke-width="15.776" stroke="rgb(33,33,33)" fill="none" stroke-linecap="round"></path><path d="M 417.500,104.500 C 416.535,105.786 415.734,105.266 414.500,106.500" stroke-width="15.589" stroke="rgb(33,33,33)" fill="none" stroke-linecap="round"></path><path d="M 414.500,106.500 C 413.734,107.266 414.190,107.637 413.500,108.500" stroke-width="15.772" stroke="rgb(33,33,33)" fill="none" stroke-linecap="round"></path><path d="M 413.500,108.500 C 412.190,110.137 412.107,110.123 410.500,111.500" stroke-width="15.526" stroke="rgb(33,33,33)" fill="none" stroke-linecap="round"></path><path d="M 410.500,111.500 C 408.607,113.123 408.534,113.047 406.500,114.500" stroke-width="14.798" stroke="rgb(33,33,33)" fill="none" stroke-linecap="round"></path><path d="M 406.500,114.500 C 405.034,115.547 405.104,115.698 403.500,116.500" stroke-width="14.887" stroke="rgb(33,33,33)" fill="none" stroke-linecap="round"></path><path d="M 403.500,116.500 C 401.104,117.698 400.958,117.407 398.500,118.500" stroke-width="14.383" stroke="rgb(33,33,33)" fill="none" stroke-linecap="round"></path><path d="M 398.500,118.500 C 396.458,119.407 396.550,119.621 394.500,120.500" stroke-width="14.303" stroke="rgb(33,33,33)" fill="none" stroke-linecap="round"></path><path d="M 394.500,120.500 C 393.050,121.121 393.050,121.306 391.500,121.500" stroke-width="14.618" stroke="rgb(33,33,33)" fill="none" stroke-linecap="round"></path><path d="M 391.500,121.500 C 389.050,121.806 388.950,121.194 386.500,121.500" stroke-width="13.955" stroke="rgb(33,33,33)" fill="none" stroke-linecap="round"></path><path d="M 386.500,121.500 C 384.950,121.694 385.045,122.279 383.500,122.500" stroke-width="14.219" stroke="rgb(33,33,33)" fill="none" stroke-linecap="round"></path><path d="M 383.500,122.500 C 381.545,122.779 381.500,122.500 379.500,122.500" stroke-width="14.268" stroke="rgb(33,33,33)" fill="none" stroke-linecap="round"></path><path d="M 379.500,122.500 C 378.000,122.500 378.000,122.500 376.500,122.500" stroke-width="14.512" stroke="rgb(33,33,33)" fill="none" stroke-linecap="round"></path><path d="M 376.500,122.500 C 375.000,122.500 375.000,122.500 373.500,122.500" stroke-width="14.862" stroke="rgb(33,33,33)" fill="none" stroke-linecap="round"></path><path d="M 373.500,122.500 C 372.000,122.500 372.000,122.500 370.500,122.500" stroke-width="14.720" stroke="rgb(33,33,33)" fill="none" stroke-linecap="round"></path><path d="M 370.500,122.500 C 369.500,122.500 369.500,122.500 368.500,122.500" stroke-width="15.105" stroke="rgb(33,33,33)" fill="none" stroke-linecap="round"></path><path d="M 368.500,122.500 C 367.500,122.500 367.500,122.500 366.500,122.500" stroke-width="15.377" stroke="rgb(33,33,33)" fill="none" stroke-linecap="round"></path><path d="M 366.500,122.500 C 365.500,122.500 365.500,122.500 364.500,122.500" stroke-width="15.655" stroke="rgb(33,33,33)" fill="none" stroke-linecap="round"></path><path d="M 364.500,122.500 C 363.500,122.500 363.500,122.500 362.500,122.500" stroke-width="16.000" stroke="rgb(33,33,33)" fill="none" stroke-linecap="round"></path><path d="M 362.500,122.500 C 362.000,122.500 362.000,122.500 361.500,122.500" stroke-width="16.255" stroke="rgb(33,33,33)" fill="none" stroke-linecap="round"></path><path d="M 361.500,122.500 C 361.000,122.500 361.000,122.500 360.500,122.500" stroke-width="16.708" stroke="rgb(33,33,33)" fill="none" stroke-linecap="round"></path><path d="M 360.500,122.500 C 360.000,122.500 359.750,122.750 359.500,122.500" stroke-width="17.141" stroke="rgb(33,33,33)" fill="none" stroke-linecap="round"></path><path d="M 359.500,122.500 C 359.250,122.250 359.750,121.750 359.500,121.500" stroke-width="17.380" stroke="rgb(33,33,33)" fill="none" stroke-linecap="round"></path><path d="M 359.500,121.500 C 359.250,121.250 358.500,121.500 358.500,121.500" stroke-width="17.779" stroke="rgb(33,33,33)" fill="none" stroke-linecap="round"></path><path d="M 358.500,121.500 C 358.500,121.500 359.000,121.500 359.500,121.500" stroke-width="18.187" stroke="rgb(33,33,33)" fill="none" stroke-linecap="round"></path><path d="M 359.500,121.500 C 360.000,121.500 360.000,121.500 360.500,121.500" stroke-width="18.231" stroke="rgb(33,33,33)" fill="none" stroke-linecap="round"></path><path d="M 360.500,121.500 C 361.000,121.500 361.086,121.293 361.500,121.500" stroke-width="18.266" stroke="rgb(33,33,33)" fill="none" stroke-linecap="round"></path><path d="M 361.500,121.500 C 362.086,121.793 361.914,122.207 362.500,122.500" stroke-width="18.159" stroke="rgb(33,33,33)" fill="none" stroke-linecap="round"></path><path d="M 362.500,122.500 C 362.914,122.707 363.191,122.191 363.500,122.500" stroke-width="18.208" stroke="rgb(33,33,33)" fill="none" stroke-linecap="round"></path><path d="M 363.500,122.500 C 364.191,123.191 363.887,123.581 364.500,124.500" stroke-width="17.850" stroke="rgb(33,33,33)" fill="none" stroke-linecap="round"></path><path d="M 364.500,124.500 C 364.887,125.081 364.919,125.113 365.500,125.500" stroke-width="17.779" stroke="rgb(33,33,33)" fill="none" stroke-linecap="round"></path><path d="M 365.500,125.500 C 366.419,126.113 367.073,125.646 367.500,126.500" stroke-width="17.633" stroke="rgb(33,33,33)" fill="none" stroke-linecap="round"></path><path d="M 367.500,126.500 C 368.073,127.646 366.985,128.213 367.500,129.500" stroke-width="16.963" stroke="rgb(33,33,33)" fill="none" stroke-linecap="round"></path><path d="M 367.500,129.500 C 367.985,130.713 368.662,130.383 369.500,131.500" stroke-width="16.714" stroke="rgb(33,33,33)" fill="none" stroke-linecap="round"></path><path d="M 369.500,131.500 C 370.162,132.383 370.000,132.500 370.500,133.500" stroke-width="16.681" stroke="rgb(33,33,33)" fill="none" stroke-linecap="round"></path><path d="M 370.500,133.500 C 371.000,134.500 370.838,134.617 371.500,135.500" stroke-width="16.586" stroke="rgb(33,33,33)" fill="none" stroke-linecap="round"></path><path d="M 371.500,135.500 C 372.338,136.617 372.890,136.279 373.500,137.500" stroke-width="16.595" stroke="rgb(33,33,33)" fill="none" stroke-linecap="round"></path><path d="M 373.500,137.500 C 374.390,139.279 373.934,139.519 374.500,141.500" stroke-width="15.649" stroke="rgb(33,33,33)" fill="none" stroke-linecap="round"></path><path d="M 374.500,141.500 C 374.934,143.019 374.914,143.036 375.500,144.500" stroke-width="15.596" stroke="rgb(33,33,33)" fill="none" stroke-linecap="round"></path><path d="M 375.500,144.500 C 375.914,145.536 375.838,145.617 376.500,146.500" stroke-width="15.717" stroke="rgb(33,33,33)" fill="none" stroke-linecap="round"></path><path d="M 376.500,146.500 C 377.338,147.617 377.662,147.383 378.500,148.500" stroke-width="15.794" stroke="rgb(33,33,33)" fill="none" stroke-linecap="round"></path><path d="M 378.500,148.500 C 379.162,149.383 378.926,149.543 379.500,150.500" stroke-width="16.070" stroke="rgb(33,33,33)" fill="none" stroke-linecap="round"></path><path d="M 379.500,150.500 C 380.426,152.043 380.574,151.957 381.500,153.500" stroke-width="15.245" stroke="rgb(33,33,33)" fill="none" stroke-linecap="round"></path><path d="M 381.500,153.500 C 382.074,154.457 381.672,154.879 382.500,155.500" stroke-width="15.538" stroke="rgb(33,33,33)" fill="none" stroke-linecap="round"></path><path d="M 382.500,155.500 C 383.672,156.379 384.332,155.565 385.500,156.500" stroke-width="15.424" stroke="rgb(33,33,33)" fill="none" stroke-linecap="round"></path><path d="M 385.500,156.500 C 386.832,157.565 386.168,158.435 387.500,159.500" stroke-width="15.220" stroke="rgb(33,33,33)" fill="none" stroke-linecap="round"></path><path d="M 387.500,159.500 C 388.668,160.435 389.020,159.945 390.500,160.500" stroke-width="15.319" stroke="rgb(33,33,33)" fill="none" stroke-linecap="round"></path><path d="M 390.500,160.500 C 393.020,161.445 393.042,161.407 395.500,162.500" stroke-width="14.704" stroke="rgb(33,33,33)" fill="none" stroke-linecap="round"></path><path d="M 395.500,162.500 C 397.542,163.407 397.429,163.672 399.500,164.500" stroke-width="14.714" stroke="rgb(33,33,33)" fill="none" stroke-linecap="round"></path><path d="M 399.500,164.500 C 402.429,165.672 402.421,165.987 405.500,166.500" stroke-width="13.878" stroke="rgb(33,33,33)" fill="none" stroke-linecap="round"></path><path d="M 405.500,166.500 C 408.421,166.987 408.500,166.500 411.500,166.500" stroke-width="13.615" stroke="rgb(33,33,33)" fill="none" stroke-linecap="round"></path><path d="M 411.500,166.500 C 414.500,166.500 414.500,166.500 417.500,166.500" stroke-width="13.295" stroke="rgb(33,33,33)" fill="none" stroke-linecap="round"></path><path d="M 417.500,166.500 C 425.000,166.500 425.020,166.825 432.500,166.500" stroke-width="13.273" stroke="rgb(33,33,33)" fill="none" stroke-linecap="round"></path><path d="M 432.500,166.500 C 436.520,166.325 436.578,166.371 440.500,165.500" stroke-width="9.094" stroke="rgb(33,33,33)" fill="none" stroke-linecap="round"></path><path d="M 440.500,165.500 C 445.578,164.371 445.551,164.150 450.500,162.500" stroke-width="9.246" stroke="rgb(33,33,33)" fill="none" stroke-linecap="round"></path><path d="M 450.500,162.500 C 454.551,161.150 454.645,161.314 458.500,159.500" stroke-width="9.454" stroke="rgb(33,33,33)" fill="none" stroke-linecap="round"></path><path d="M 458.500,159.500 C 463.145,157.314 463.013,157.024 467.500,154.500" stroke-width="9.554" stroke="rgb(33,33,33)" fill="none" stroke-linecap="round"></path><path d="M 467.500,154.500 C 471.013,152.524 471.113,152.677 474.500,150.500" stroke-width="10.071" stroke="rgb(33,33,33)" fill="none" stroke-linecap="round"></path><path d="M 474.500,150.500 C 478.113,148.177 477.977,147.966 481.500,145.500" stroke-width="9.664" stroke="rgb(33,33,33)" fill="none" stroke-linecap="round"></path><path d="M 481.500,145.500 C 482.977,144.466 483.250,144.750 484.500,143.500" stroke-width="10.578" stroke="rgb(33,33,33)" fill="none" stroke-linecap="round"></path></svg>