<svg xmlns="http://www.w3.org/2000/svg" xmlns:xlink="http://www.w3.org/1999/xlink" viewBox="0 0 800 500"><path d="M 576.000,146.500 C 574.500,146.500 574.486,146.665 573.000,146.500" stroke-width="19.203" stroke="rgb(33,33,33)" fill="none" stroke-linecap="round"></path><path d="M 573.000,146.500 C 569.986,146.165 570.000,146.000 567.000,145.500" stroke-width="17.544" stroke="rgb(33,33,33)" fill="none" stroke-linecap="round"></path><path d="M 567.000,145.500 C 564.000,145.000 564.019,144.855 561.000,144.500" stroke-width="16.534" stroke="rgb(33,33,33)" fill="none" stroke-linecap="round"></path><path d="M 561.000,144.500 C 555.519,143.855 555.506,143.924 550.000,143.500" stroke-width="14.667" stroke="rgb(33,33,33)" fill="none" stroke-linecap="round"></path><path d="M 550.000,143.500 C 542.506,142.924 542.509,142.728 535.000,142.500" stroke-width="12.834" stroke="rgb(33,33,33)" fill="none" stroke-linecap="round"></path><path d="M 535.000,142.500 C 526.009,142.228 525.988,142.800 517.000,142.500" stroke-width="11.316" stroke="rgb(33,33,33)" fill="none" stroke-linecap="round"></path><path d="M 517.000,142.500 C 510.988,142.300 511.013,141.694 505.000,141.500" stroke-width="10.943" stroke="rgb(33,33,33)" fill="none" stroke-linecap="round"></path><path d="M 505.000,141.500 C 495.513,141.194 495.500,141.500 486.000,141.500" stroke-width="10.140" stroke="rgb(33,33,33)" fill="none" stroke-linecap="round"></path><path d="M 486.000,141.500 C 479.500,141.500 479.500,141.500 473.000,141.500" stroke-width="9.955" stroke="rgb(33,33,33)" fill="none" stroke-linecap="round"></path><path d="M 473.000,141.500 C 464.500,141.500 464.500,141.500 456.000,141.500" stroke-width="9.479" stroke="rgb(33,33,33)" fill="none" stroke-linecap="round"></path><path d="M 456.000,141.500 C 449.000,141.500 449.000,141.500 442.000,141.500" stroke-width="9.359" stroke="rgb(33,33,33)" fill="none" stroke-linecap="round"></path><path d="M 442.000,141.500 C 433.000,141.500 433.000,141.500 424.000,141.500" stroke-width="9.172" stroke="rgb(33,33,33)" fill="none" stroke-linecap="round"></path><path d="M 424.000,141.500 C 415.000,141.500 415.000,141.500 406.000,141.500" stroke-width="8.705" stroke="rgb(33,33,33)" fill="none" stroke-linecap="round"></path><path d="M 406.000,141.500 C 399.500,141.500 399.500,141.500 393.000,141.500" stroke-width="8.814" stroke="rgb(33,33,33)" fill="none" stroke-linecap="round"></path><path d="M 393.000,141.500 C 385.000,141.500 385.000,141.500 377.000,141.500" stroke-width="8.787" stroke="rgb(33,33,33)" fill="none" stroke-linecap="round"></path><path d="M 377.000,141.500 C 371.000,141.500 371.000,141.500 365.000,141.500" stroke-width="8.953" stroke="rgb(33,33,33)" fill="none" stroke-linecap="round"></path><path d="M 365.000,141.500 C 357.500,141.500 357.500,141.500 350.000,141.500" stroke-width="8.873" stroke="rgb(33,33,33)" fill="none" stroke-linecap="round"></path><path d="M 350.000,141.500 C 343.000,141.500 343.000,141.500 336.000,141.500" stroke-width="8.964" stroke="rgb(33,33,33)" fill="none" stroke-linecap="round"></path><path d="M 336.000,141.500 C 331.000,141.500 331.000,141.500 326.000,141.500" stroke-width="9.174" stroke="rgb(33,33,33)" fill="none" stroke-linecap="round"></path><path d="M 326.000,141.500 C 318.500,141.500 318.500,141.500 311.000,141.500" stroke-width="9.139" stroke="rgb(33,33,33)" fill="none" stroke-linecap="round"></path><path d="M 311.000,141.500 C 306.000,141.500 305.993,141.292 301.000,141.500" stroke-width="9.399" stroke="rgb(33,33,33)" fill="none" stroke-linecap="round"></path><path d="M 301.000,141.500 C 293.993,141.792 294.000,142.000 287.000,142.500" stroke-width="9.294" stroke="rgb(33,33,33)" fill="none" stroke-linecap="round"></path><path d="M 287.000,142.500 C 280.000,143.000 279.993,142.917 273.000,143.500" stroke-width="9.212" stroke="rgb(33,33,33)" fill="none" stroke-linecap="round"></path><path d="M 273.000,143.500 C 267.993,143.917 267.991,143.924 263.000,144.500" stroke-width="9.583" stroke="rgb(33,33,33)" fill="none" stroke-linecap="round"></path><path d="M 263.000,144.500 C 254.991,145.424 255.025,145.906 247.000,146.500" stroke-width="9.150" stroke="rgb(33,33,33)" fill="none" stroke-linecap="round"></path><path d="M 247.000,146.500 C 241.525,146.906 241.469,146.062 236.000,146.500" stroke-width="9.330" stroke="rgb(33,33,33)" fill="none" stroke-linecap="round"></path><path d="M 236.000,146.500 C 228.969,147.062 229.018,147.658 222.000,148.500" stroke-width="9.232" stroke="rgb(33,33,33)" fill="none" stroke-linecap="round"></path><path d="M 222.000,148.500 C 216.518,149.158 216.509,149.194 211.000,149.500" stroke-width="9.468" stroke="rgb(33,33,33)" fill="none" stroke-linecap="round"></path><path d="M 211.000,149.500 C 207.509,149.694 207.490,149.295 204.000,149.500" stroke-width="9.934" stroke="rgb(33,33,33)" fill="none" stroke-linecap="round"></path><path d="M 204.000,149.500 C 198.990,149.795 198.984,149.877 194.000,150.500" stroke-width="10.058" stroke="rgb(33,33,33)" fill="none" stroke-linecap="round"></path><path d="M 194.000,150.500 C 190.984,150.877 191.006,151.038 188.000,151.500" stroke-width="10.540" stroke="rgb(33,33,33)" fill="none" stroke-linecap="round"></path><path d="M 188.000,151.500 C 184.506,152.038 184.449,151.761 181.000,152.500" stroke-width="10.917" stroke="rgb(33,33,33)" fill="none" stroke-linecap="round"></path><path d="M 181.000,152.500 C 177.449,153.261 177.529,153.618 174.000,154.500" stroke-width="11.149" stroke="rgb(33,33,33)" fill="none" stroke-linecap="round"></path><path d="M 174.000,154.500 C 171.529,155.118 171.432,154.770 169.000,155.500" stroke-width="11.600" stroke="rgb(33,33,33)" fill="none" stroke-linecap="round"></path><path d="M 169.000,155.500 C 166.432,156.270 166.520,156.555 164.000,157.500" stroke-width="11.950" stroke="rgb(33,33,33)" fill="none" stroke-linecap="round"></path><path d="M 164.000,157.500 C 162.520,158.055 162.500,158.000 161.000,158.500" stroke-width="12.591" stroke="rgb(33,33,33)" fill="none" stroke-linecap="round"></path><path d="M 161.000,158.500 C 159.500,159.000 159.450,158.879 158.000,159.500" stroke-width="13.114" stroke="rgb(33,33,33)" fill="none" stroke-linecap="round"></path><path d="M 158.000,159.500 C 155.950,160.379 156.000,160.500 154.000,161.500" stroke-width="13.352" stroke="rgb(33,33,33)" fill="none" stroke-linecap="round"></path><path d="M 154.000,161.500 C 153.000,162.000 152.883,161.838 152.000,162.500" stroke-width="13.927" stroke="rgb(33,33,33)" fill="none" stroke-linecap="round"></path><path d="M 152.000,162.500 C 150.883,163.338 151.000,163.500 150.000,164.500" stroke-width="14.359" stroke="rgb(33,33,33)" fill="none" stroke-linecap="round"></path><path d="M 150.000,164.500 C 149.500,165.000 149.423,164.937 149.000,165.500" stroke-width="14.956" stroke="rgb(33,33,33)" fill="none" stroke-linecap="round"></path><path d="M 149.000,165.500 C 147.923,166.937 147.893,166.938 147.000,168.500" stroke-width="15.014" stroke="rgb(33,33,33)" fill="none" stroke-linecap="round"></path><path d="M 147.000,168.500 C 145.893,170.438 146.000,170.500 145.000,172.500" stroke-width="14.887" stroke="rgb(33,33,33)" fill="none" stroke-linecap="round"></path><path d="M 145.000,172.500 C 144.500,173.500 144.414,173.464 144.000,174.500" stroke-width="15.277" stroke="rgb(33,33,33)" fill="none" stroke-linecap="round"></path><path d="M 144.000,174.500 C 143.414,175.964 143.257,175.960 143.000,177.500" stroke-width="15.365" stroke="rgb(33,33,33)" fill="none" stroke-linecap="round"></path><path d="M 143.000,177.500 C 142.757,178.960 143.000,179.000 143.000,180.500" stroke-width="15.471" stroke="rgb(33,33,33)" fill="none" stroke-linecap="round"></path><path d="M 143.000,180.500 C 143.000,182.500 143.000,182.500 143.000,184.500" stroke-width="15.343" stroke="rgb(33,33,33)" fill="none" stroke-linecap="round"></path><path d="M 143.000,184.500 C 143.000,186.500 142.721,186.545 143.000,188.500" stroke-width="15.312" stroke="rgb(33,33,33)" fill="none" stroke-linecap="round"></path><path d="M 143.000,188.500 C 143.221,190.045 143.379,190.050 144.000,191.500" stroke-width="15.393" stroke="rgb(33,33,33)" fill="none" stroke-linecap="round"></path><path d="M 144.000,191.500 C 144.879,193.550 144.717,193.704 146.000,195.500" stroke-width="15.183" stroke="rgb(33,33,33)" fill="none" stroke-linecap="round"></path><path d="M 146.000,195.500 C 147.217,197.204 147.500,197.000 149.000,198.500" stroke-width="15.066" stroke="rgb(33,33,33)" fill="none" stroke-linecap="round"></path><path d="M 149.000,198.500 C 151.000,200.500 150.675,200.950 153.000,202.500" stroke-width="14.786" stroke="rgb(33,33,33)" fill="none" stroke-linecap="round"></path><path d="M 153.000,202.500 C 156.675,204.950 156.949,204.610 161.000,206.500" stroke-width="13.886" stroke="rgb(33,33,33)" fill="none" stroke-linecap="round"></path><path d="M 161.000,206.500 C 164.449,208.110 164.394,208.298 168.000,209.500" stroke-width="13.454" stroke="rgb(33,33,33)" fill="none" stroke-linecap="round"></path><path d="M 168.000,209.500 C 174.894,211.798 174.900,212.021 182.000,213.500" stroke-width="12.134" stroke="rgb(33,33,33)" fill="none" stroke-linecap="round"></path><path d="M 182.000,213.500 C 186.900,214.521 186.994,214.065 192.000,214.500" stroke-width="11.894" stroke="rgb(33,33,33)" fill="none" stroke-linecap="round"></path><path d="M 192.000,214.500 C 198.494,215.065 198.547,215.781 205.000,215.500" stroke-width="11.256" stroke="rgb(33,33,33)" fill="none" stroke-linecap="round"></path><path d="M 205.000,215.500 C 210.047,215.281 209.980,214.386 215.000,213.500" stroke-width="11.098" stroke="rgb(33,33,33)" fill="none" stroke-linecap="round"></path><path d="M 215.000,213.500 C 218.480,212.886 218.743,213.721 222.000,212.500" stroke-width="11.323" stroke="rgb(33,33,33)" fill="none" stroke-linecap="round"></path><path d="M 222.000,212.500 C 226.743,210.721 226.805,210.404 231.000,207.500" stroke-width="11.236" stroke="rgb(33,33,33)" fill="none" stroke-linecap="round"></path><path d="M 231.000,207.500 C 233.305,205.904 233.399,205.787 235.000,203.500" stroke-width="11.607" stroke="rgb(33,33,33)" fill="none" stroke-linecap="round"></path><path d="M 235.000,203.500 C 236.899,200.787 236.951,200.647 238.000,197.500" stroke-width="11.789" stroke="rgb(33,33,33)" fill="none" stroke-linecap="round"></path><path d="M 238.000,197.500 C 238.951,194.647 238.404,194.480 239.000,191.500" stroke-width="12.020" stroke="rgb(33,33,33)" fill="none" stroke-linecap="round"></path><path d="M 239.000,191.500 C 239.404,189.480 240.000,189.520 240.000,187.500" stroke-width="12.568" stroke="rgb(33,33,33)" fill="none" stroke-linecap="round"></path><path d="M 240.000,187.500 C 240.000,184.520 239.302,184.516 239.000,181.500" stroke-width="12.573" stroke="rgb(33,33,33)" fill="none" stroke-linecap="round"></path><path d="M 239.000,181.500 C 238.802,179.516 239.198,179.484 239.000,177.500" stroke-width="12.970" stroke="rgb(33,33,33)" fill="none" stroke-linecap="round"></path><path d="M 239.000,177.500 C 238.698,174.484 238.500,174.500 238.000,171.500" stroke-width="13.061" stroke="rgb(33,33,33)" fill="none" stroke-linecap="round"></path><path d="M 238.000,171.500 C 237.500,168.500 237.544,168.492 237.000,165.500" stroke-width="13.057" stroke="rgb(33,33,33)" fill="none" stroke-linecap="round"></path><path d="M 237.000,165.500 C 236.544,162.992 236.419,163.014 236.000,160.500" stroke-width="13.206" stroke="rgb(33,33,33)" fill="none" stroke-linecap="round"></path><path d="M 236.000,160.500 C 235.419,157.014 235.500,157.000 235.000,153.500" stroke-width="13.110" stroke="rgb(33,33,33)" fill="none" stroke-linecap="round"></path><path d="M 235.000,153.500 C 234.500,150.000 234.438,150.008 234.000,146.500" stroke-width="12.840" stroke="rgb(33,33,33)" fill="none" stroke-linecap="round"></path><path d="M 234.000,146.500 C 233.438,142.008 233.450,142.005 233.000,137.500" stroke-width="12.557" stroke="rgb(33,33,33)" fill="none" stroke-linecap="round"></path><path d="M 233.000,137.500 C 232.450,132.005 232.550,131.995 232.000,126.500" stroke-width="11.976" stroke="rgb(33,33,33)" fill="none" stroke-linecap="round"></path><path d="M 232.000,126.500 C 231.550,121.995 231.215,122.016 231.000,117.500" stroke-width="11.791" stroke="rgb(33,33,33)" fill="none" stroke-linecap="round"></path><path d="M 231.000,117.500 C 230.715,111.516 231.000,111.500 231.000,105.500" stroke-width="11.416" stroke="rgb(33,33,33)" fill="none" stroke-linecap="round"></path><path d="M 231.000,105.500 C 231.000,101.000 231.224,100.990 231.000,96.500" stroke-width="11.359" stroke="rgb(33,33,33)" fill="none" stroke-linecap="round"></path><path d="M 231.000,96.500 C 230.724,90.990 230.251,91.011 230.000,85.500" stroke-width="11.084" stroke="rgb(33,33,33)" fill="none" stroke-linecap="round"></path><path d="M 230.000,85.500 C 229.751,80.011 230.000,80.000 230.000,74.500" stroke-width="10.878" stroke="rgb(33,33,33)" fill="none" stroke-linecap="round"></path><path d="M 230.000,74.500 C 230.000,71.500 230.000,71.500 230.000,68.500" stroke-width="11.260" stroke="rgb(33,33,33)" fill="none" stroke-linecap="round"></path><path d="M 230.000,68.500 C 230.000,63.500 230.000,63.500 230.000,58.500" stroke-width="11.216" stroke="rgb(33,33,33)" fill="none" stroke-linecap="round"></path><path d="M 230.000,58.500 C 230.000,55.500 230.000,55.500 230.000,52.500" stroke-width="11.549" stroke="rgb(33,33,33)" fill="none" stroke-linecap="round"></path><path d="M 230.000,52.500 C 230.000,49.000 230.000,49.000 230.000,45.500" stroke-width="11.705" stroke="rgb(33,33,33)" fill="none" stroke-linecap="round"></path><path d="M 230.000,45.500 C 230.000,42.500 230.000,42.500 230.000,39.500" stroke-width="11.960" stroke="rgb(33,33,33)" fill="none" stroke-linecap="round"></path><path d="M 230.000,39.500 C 230.000,37.000 230.000,37.000 230.000,34.500" stroke-width="12.364" stroke="rgb(33,33,33)" fill="none" stroke-linecap="round"></path><path d="M 230.000,34.500 C 230.000,32.000 230.000,32.000 230.000,29.500" stroke-width="12.647" stroke="rgb(33,33,33)" fill="none" stroke-linecap="round"></path><path d="M 230.000,29.500 C 230.000,27.500 230.000,27.500 230.000,25.500" stroke-width="13.034" stroke="rgb(33,33,33)" fill="none" stroke-linecap="round"></path><path d="M 230.000,25.500 C 230.000,23.000 229.694,22.950 230.000,20.500" stroke-width="13.268" stroke="rgb(33,33,33)" fill="none" stroke-linecap="round"></path><path d="M 230.000,20.500 C 230.194,18.950 230.414,18.964 231.000,17.500" stroke-width="13.696" stroke="rgb(33,33,33)" fill="none" stroke-linecap="round"></path><path d="M 231.000,17.500 C 231.414,16.464 231.786,16.568 232.000,15.500" stroke-width="14.226" stroke="rgb(33,33,33)" fill="none" stroke-linecap="round"></path><path d="M 232.000,15.500 C 232.286,14.068 232.000,14.000 232.000,12.500" stroke-width="14.534" stroke="rgb(33,33,33)" fill="none" stroke-linecap="round"></path><path d="M 232.000,12.500 C 232.000,11.500 231.764,11.444 232.000,10.500" stroke-width="14.989" stroke="rgb(33,33,33)" fill="none" stroke-linecap="round"></path><path d="M 232.000,10.500 C 232.264,9.444 232.655,9.536 233.000,8.500" stroke-width="15.363" stroke="rgb(33,33,33)" fill="none" stroke-linecap="round"></path><path d="M 233.000,8.500 C 233.155,8.036 233.000,8.000 233.000,7.500" stroke-width="15.912" stroke="rgb(33,33,33)" fill="none" stroke-linecap="round"></path><path d="M 233.000,7.500 C 232.500,7.500 232.500,7.500 232.000,7.500" stroke-width="17.702" stroke="rgb(33,33,33)" fill="none" stroke-linecap="round"></path><path d="M 232.000,7.500 C 232.500,7.500 232.500,7.500 233.000,7.500" stroke-width="19.008" stroke="rgb(33,33,33)" fill="none" stroke-linecap="round"></path><path d="M 233.000,7.500 C 233.000,8.000 233.000,8.000 233.000,8.500" stroke-width="19.283" stroke="rgb(33,33,33)" fill="none" stroke-linecap="round"></path><path d="M 233.000,8.500 C 233.000,8.500 233.000,8.500 233.000,8.500" stroke-width="19.469" stroke="rgb(33,33,33)" fill="none" stroke-linecap="round"></path><path d="M 233.000,8.500 C 233.500,9.000 233.500,9.000 234.000,9.500" stroke-width="19.144" stroke="rgb(33,33,33)" fill="none" stroke-linecap="round"></path><path d="M 234.000,9.500 C 235.000,10.500 235.000,10.500 236.000,11.500" stroke-width="18.448" stroke="rgb(33,33,33)" fill="none" stroke-linecap="round"></path><path d="M 236.000,11.500 C 237.000,12.500 236.916,12.597 238.000,13.500" stroke-width="17.996" stroke="rgb(33,33,33)" fill="none" stroke-linecap="round"></path><path d="M 238.000,13.500 C 239.916,15.097 240.027,14.965 242.000,16.500" stroke-width="17.001" stroke="rgb(33,33,33)" fill="none" stroke-linecap="round"></path><path d="M 242.000,16.500 C 244.527,18.465 244.372,18.681 247.000,20.500" stroke-width="16.076" stroke="rgb(33,33,33)" fill="none" stroke-linecap="round"></path><path d="M 247.000,20.500 C 250.872,23.181 250.909,23.162 255.000,25.500" stroke-width="14.502" stroke="rgb(33,33,33)" fill="none" stroke-linecap="round"></path><path d="M 255.000,25.500 C 257.909,27.162 258.048,26.910 261.000,28.500" stroke-width="14.172" stroke="rgb(33,33,33)" fill="none" stroke-linecap="round"></path><path d="M 261.000,28.500 C 264.548,30.410 264.400,30.700 268.000,32.500" stroke-width="13.706" stroke="rgb(33,33,33)" fill="none" stroke-linecap="round"></path><path d="M 268.000,32.500 C 271.400,34.200 271.430,34.185 275.000,35.500" stroke-width="13.198" stroke="rgb(33,33,33)" fill="none" stroke-linecap="round"></path><path d="M 275.000,35.500 C 280.930,37.685 281.000,37.500 287.000,39.500" stroke-width="12.218" stroke="rgb(33,33,33)" fill="none" stroke-linecap="round"></path><path d="M 287.000,39.500 C 294.500,42.000 294.420,42.289 302.000,44.500" stroke-width="11.316" stroke="rgb(33,33,33)" fill="none" stroke-linecap="round"></path><path d="M 302.000,44.500 C 306.420,45.789 306.487,45.560 311.000,46.500" stroke-width="11.255" stroke="rgb(33,33,33)" fill="none" stroke-linecap="round"></path><path d="M 311.000,46.500 C 318.487,48.060 318.489,48.056 326.000,49.500" stroke-width="10.561" stroke="rgb(33,33,33)" fill="none" stroke-linecap="round"></path><path d="M 326.000,49.500 C 331.489,50.556 331.460,50.785 337.000,51.500" stroke-width="10.545" stroke="rgb(33,33,33)" fill="none" stroke-linecap="round"></path><path d="M 337.000,51.500 C 346.960,52.785 346.978,52.817 357.000,53.500" stroke-width="9.635" stroke="rgb(33,33,33)" fill="none" stroke-linecap="round"></path><path d="M 357.000,53.500 C 368.978,54.317 369.027,53.645 381.000,54.500" stroke-width="8.736" stroke="rgb(33,33,33)" fill="none" stroke-linecap="round"></path><path d="M 381.000,54.500 C 390.027,55.145 390.007,55.442 399.000,56.500" stroke-width="8.495" stroke="rgb(33,33,33)" fill="none" stroke-linecap="round"></path><path d="M 399.000,56.500 C 415.507,58.442 415.504,58.466 432.000,60.500" stroke-width="7.610" stroke="rgb(33,33,33)" fill="none" stroke-linecap="round"></path><path d="M 432.000,60.500 C 452.004,62.966 452.058,62.610 472.000,65.500" stroke-width="6.750" stroke="rgb(33,33,33)" fill="none" stroke-linecap="round"></path><path d="M 472.000,65.500 C 486.558,67.610 486.655,67.312 501.000,70.500" stroke-width="6.750" stroke="rgb(33,33,33)" fill="none" stroke-linecap="round"></path><path d="M 501.000,70.500 C 513.655,73.312 513.415,74.354 526.000,77.500" stroke-width="6.750" stroke="rgb(33,33,33)" fill="none" stroke-linecap="round"></path><path d="M 526.000,77.500 C 533.415,79.354 533.432,79.444 541.000,80.500" stroke-width="6.750" stroke="rgb(33,33,33)" fill="none" stroke-linecap="round"></path><path d="M 541.000,80.500 C 554.932,82.444 554.999,82.011 569.000,83.500" stroke-width="6.750" stroke="rgb(33,33,33)" fill="none" stroke-linecap="round"></path><path d="M 569.000,83.500 C 578.499,84.511 578.495,84.550 588.000,85.500" stroke-width="6.750" stroke="rgb(33,33,33)" fill="none" stroke-linecap="round"></path><path d="M 588.000,85.500 C 598.495,86.550 598.523,86.303 609.000,87.500" stroke-width="6.750" stroke="rgb(33,33,33)" fill="none" stroke-linecap="round"></path><path d="M 609.000,87.500 C 616.023,88.303 616.018,88.398 623.000,89.500" stroke-width="7.012" stroke="rgb(33,33,33)" fill="none" stroke-linecap="round"></path><path d="M 623.000,89.500 C 625.518,89.898 625.567,89.805 628.000,90.500" stroke-width="7.803" stroke="rgb(33,33,33)" fill="none" stroke-linecap="round"></path><path d="M 628.000,90.500 C 629.067,90.805 629.000,91.000 630.000,91.500" stroke-width="8.740" stroke="rgb(33,33,33)" fill="none" stroke-linecap="round"></path><path d="M 630.000,91.500 C 630.000,91.500 630.000,91.500 630.000,91.500" stroke-width="9.861" stroke="rgb(33,33,33)" fill="none" stroke-linecap="round"></path><path d="M 630.000,91.500 C 629.500,91.500 629.500,91.500 629.000,91.500" stroke-width="10.890" stroke="rgb(33,33,33)" fill="none" stroke-linecap="round"></path><path d="M 629.000,91.500 C 628.000,91.500 627.994,91.599 627.000,91.500" stroke-width="11.746" stroke="rgb(33,33,33)" fill="none" stroke-linecap="round"></path><path d="M 627.000,91.500 C 622.994,91.099 622.980,91.128 619.000,90.500" stroke-width="11.734" stroke="rgb(33,33,33)" fill="none" stroke-linecap="round"></path><path d="M 619.000,90.500 C 613.480,89.628 613.548,89.134 608.000,88.500" stroke-width="11.352" stroke="rgb(33,33,33)" fill="none" stroke-linecap="round"></path><path d="M 608.000,88.500 C 596.048,87.134 595.992,87.590 584.000,86.500" stroke-width="9.983" stroke="rgb(33,33,33)" fill="none" stroke-linecap="round"></path><path d="M 584.000,86.500 C 568.492,85.090 568.508,84.910 553.000,83.500" stroke-width="8.476" stroke="rgb(33,33,33)" fill="none" stroke-linecap="round"></path><path d="M 553.000,83.500 C 541.008,82.410 540.964,82.829 529.000,81.500" stroke-width="7.944" stroke="rgb(33,33,33)" fill="none" stroke-linecap="round"></path><path d="M 529.000,81.500 C 513.964,79.829 514.036,79.171 499.000,77.500" stroke-width="7.259" stroke="rgb(33,33,33)" fill="none" stroke-linecap="round"></path><path d="M 499.000,77.500 C 487.036,76.171 486.970,76.789 475.000,75.500" stroke-width="7.057" stroke="rgb(33,33,33)" fill="none" stroke-linecap="round"></path><path d="M 475.000,75.500 C 454.470,73.289 454.559,72.369 434.000,70.500" stroke-width="6.750" stroke="rgb(33,33,33)" fill="none" stroke-linecap="round"></path><path d="M 434.000,70.500 C 410.559,68.369 410.438,69.631 387.000,67.500" stroke-width="6.750" stroke="rgb(33,33,33)" fill="none" stroke-linecap="round"></path><path d="M 387.000,67.500 C 371.938,66.131 372.042,65.126 357.000,63.500" stroke-width="6.750" stroke="rgb(33,33,33)" fill="none" stroke-linecap="round"></path><path d="M 357.000,63.500 C 335.042,61.126 334.992,61.580 313.000,59.500" stroke-width="6.750" stroke="rgb(33,33,33)" fill="none" stroke-linecap="round"></path><path d="M 313.000,59.500 C 297.992,58.080 298.040,57.194 283.000,56.500" stroke-width="6.750" stroke="rgb(33,33,33)" fill="none" stroke-linecap="round"></path><path d="M 283.000,56.500 C 265.540,55.694 265.496,56.243 248.000,56.500" stroke-width="6.750" stroke="rgb(33,33,33)" fill="none" stroke-linecap="round"></path><path d="M 248.000,56.500 C 231.496,56.743 231.503,57.189 215.000,57.500" stroke-width="6.750" stroke="rgb(33,33,33)" fill="none" stroke-linecap="round"></path><path d="M 215.000,57.500 C 205.003,57.689 204.981,57.046 195.000,57.500" stroke-width="6.750" stroke="rgb(33,33,33)" fill="none" stroke-linecap="round"></path><path d="M 195.000,57.500 C 182.981,58.046 183.000,58.500 171.000,59.500" stroke-width="6.750" stroke="rgb(33,33,33)" fill="none" stroke-linecap="round"></path><path d="M 171.000,59.500 C 165.000,60.000 165.003,60.038 159.000,60.500" stroke-width="6.750" stroke="rgb(33,33,33)" fill="none" stroke-linecap="round"></path><path d="M 159.000,60.500 C 152.003,61.038 151.974,60.753 145.000,61.500" stroke-width="6.750" stroke="rgb(33,33,33)" fill="none" stroke-linecap="round"></path><path d="M 145.000,61.500 C 137.974,62.253 137.988,62.425 131.000,63.500" stroke-width="6.941" stroke="rgb(33,33,33)" fill="none" stroke-linecap="round"></path><path d="M 131.000,63.500 C 124.988,64.425 125.016,64.609 119.000,65.500" stroke-width="7.399" stroke="rgb(33,33,33)" fill="none" stroke-linecap="round"></path><path d="M 119.000,65.500 C 111.516,66.609 111.512,66.599 104.000,67.500" stroke-width="7.600" stroke="rgb(33,33,33)" fill="none" stroke-linecap="round"></path><path d="M 104.000,67.500 C 99.012,68.099 98.985,67.877 94.000,68.500" stroke-width="8.054" stroke="rgb(33,33,33)" fill="none" stroke-linecap="round"></path><path d="M 94.000,68.500 C 86.985,69.377 86.988,69.425 80.000,70.500" stroke-width="8.275" stroke="rgb(33,33,33)" fill="none" stroke-linecap="round"></path><path d="M 80.000,70.500 C 73.988,71.425 73.943,71.249 68.000,72.500" stroke-width="8.512" stroke="rgb(33,33,33)" fill="none" stroke-linecap="round"></path><path d="M 68.000,72.500 C 64.443,73.249 64.517,73.562 61.000,74.500" stroke-width="9.058" stroke="rgb(33,33,33)" fill="none" stroke-linecap="round"></path><path d="M 61.000,74.500 C 57.017,75.562 56.890,75.203 53.000,76.500" stroke-width="9.526" stroke="rgb(33,33,33)" fill="none" stroke-linecap="round"></path><path d="M 53.000,76.500 C 50.890,77.203 51.000,77.500 49.000,78.500" stroke-width="10.175" stroke="rgb(33,33,33)" fill="none" stroke-linecap="round"></path><path d="M 49.000,78.500 C 47.000,79.500 46.661,79.116 45.000,80.500" stroke-width="10.848" stroke="rgb(33,33,33)" fill="none" stroke-linecap="round"></path><path d="M 45.000,80.500 C 43.661,81.616 43.643,81.892 43.000,83.500" stroke-width="11.513" stroke="rgb(33,33,33)" fill="none" stroke-linecap="round"></path><path d="M 43.000,83.500 C 42.643,84.392 43.000,84.500 43.000,85.500" stroke-width="12.322" stroke="rgb(33,33,33)" fill="none" stroke-linecap="round"></path><path d="M 43.000,85.500 C 43.000,87.000 43.000,87.000 43.000,88.500" stroke-width="12.904" stroke="rgb(33,33,33)" fill="none" stroke-linecap="round"></path><path d="M 43.000,88.500 C 43.000,89.500 43.000,89.500 43.000,90.500" stroke-width="13.602" stroke="rgb(33,33,33)" fill="none" stroke-linecap="round"></path><path d="M 43.000,90.500 C 43.000,91.500 42.806,91.531 43.000,92.500" stroke-width="14.187" stroke="rgb(33,33,33)" fill="none" stroke-linecap="round"></path><path d="M 43.000,92.500 C 43.306,94.031 43.065,94.332 44.000,95.500" stroke-width="14.470" stroke="rgb(33,33,33)" fill="none" stroke-linecap="round"></path><path d="M 44.000,95.500 C 45.065,96.832 45.472,96.545 47.000,97.500" stroke-width="14.620" stroke="rgb(33,33,33)" fill="none" stroke-linecap="round"></path><path d="M 47.000,97.500 C 49.472,99.045 49.332,99.388 52.000,100.500" stroke-width="14.410" stroke="rgb(33,33,33)" fill="none" stroke-linecap="round"></path><path d="M 52.000,100.500 C 55.332,101.888 55.493,101.526 59.000,102.500" stroke-width="13.903" stroke="rgb(33,33,33)" fill="none" stroke-linecap="round"></path><path d="M 59.000,102.500 C 64.493,104.026 64.471,104.118 70.000,105.500" stroke-width="12.877" stroke="rgb(33,33,33)" fill="none" stroke-linecap="round"></path><path d="M 70.000,105.500 C 74.471,106.618 74.495,106.521 79.000,107.500" stroke-width="12.564" stroke="rgb(33,33,33)" fill="none" stroke-linecap="round"></path><path d="M 79.000,107.500 C 85.995,109.021 86.000,109.000 93.000,110.500" stroke-width="11.573" stroke="rgb(33,33,33)" fill="none" stroke-linecap="round"></path><path d="M 93.000,110.500 C 100.000,112.000 100.005,111.979 107.000,113.500" stroke-width="10.887" stroke="rgb(33,33,33)" fill="none" stroke-linecap="round"></path><path d="M 107.000,113.500 C 111.505,114.479 111.467,114.676 116.000,115.500" stroke-width="10.912" stroke="rgb(33,33,33)" fill="none" stroke-linecap="round"></path><path d="M 116.000,115.500 C 122.467,116.676 122.471,116.878 129.000,117.500" stroke-width="10.527" stroke="rgb(33,33,33)" fill="none" stroke-linecap="round"></path><path d="M 129.000,117.500 C 132.971,117.878 133.000,117.500 137.000,117.500" stroke-width="10.816" stroke="rgb(33,33,33)" fill="none" stroke-linecap="round"></path><path d="M 137.000,117.500 C 142.500,117.500 142.500,117.500 148.000,117.500" stroke-width="10.670" stroke="rgb(33,33,33)" fill="none" stroke-linecap="round"></path><path d="M 148.000,117.500 C 152.000,117.500 152.320,118.780 156.000,117.500" stroke-width="11.570" stroke="rgb(33,33,33)" fill="none" stroke-linecap="round"></path><path d="M 156.000,117.500 C 163.820,114.780 164.556,114.587 171.000,109.500" stroke-width="7.408" stroke="rgb(33,33,33)" fill="none" stroke-linecap="round"></path><path d="M 171.000,109.500 C 174.056,107.087 173.301,106.141 175.000,102.500" stroke-width="6.925" stroke="rgb(33,33,33)" fill="none" stroke-linecap="round"></path><path d="M 175.000,102.500 C 176.801,98.641 176.832,98.589 178.000,94.500" stroke-width="7.551" stroke="rgb(33,33,33)" fill="none" stroke-linecap="round"></path><path d="M 178.000,94.500 C 178.832,91.589 178.265,91.442 179.000,88.500" stroke-width="8.245" stroke="rgb(33,33,33)" fill="none" stroke-linecap="round"></path><path d="M 179.000,88.500 C 179.765,85.442 179.892,85.455 181.000,82.500" stroke-width="8.882" stroke="rgb(33,33,33)" fill="none" stroke-linecap="round"></path><path d="M 181.000,82.500 C 181.392,81.455 181.500,81.500 182.000,80.500" stroke-width="9.808" stroke="rgb(33,33,33)" fill="none" stroke-linecap="round"></path><path d="M 182.000,80.500 C 182.500,79.500 182.338,79.383 183.000,78.500" stroke-width="10.721" stroke="rgb(33,33,33)" fill="none" stroke-linecap="round"></path><path d="M 183.000,78.500 C 183.838,77.383 184.000,77.500 185.000,76.500" stroke-width="11.489" stroke="rgb(33,33,33)" fill="none" stroke-linecap="round"></path><path d="M 185.000,76.500 C 185.000,76.500 185.000,76.500 185.000,76.500" stroke-width="12.577" stroke="rgb(33,33,33)" fill="none" stroke-linecap="round"></path><path d="M 185.000,76.500 C 185.500,76.000 185.414,75.793 186.000,75.500" stroke-width="13.377" stroke="rgb(33,33,33)" fill="none" stroke-linecap="round"></path><path d="M 186.000,75.500 C 186.414,75.293 186.500,75.500 187.000,75.500" stroke-width="14.169" stroke="rgb(33,33,33)" fill="none" stroke-linecap="round"></path><path d="M 187.000,75.500 C 187.000,75.500 187.000,75.500 187.000,75.500" stroke-width="15.074" stroke="rgb(33,33,33)" fill="none" stroke-linecap="round"></path><path d="M 187.000,75.500 C 187.500,76.000 187.500,76.000 188.000,76.500" stroke-width="15.572" stroke="rgb(33,33,33)" fill="none" stroke-linecap="round"></path><path d="M 188.000,76.500 C 188.500,77.000 188.691,76.882 189.000,77.500" stroke-width="15.995" stroke="rgb(33,33,33)" fill="none" stroke-linecap="round"></path><path d="M 189.000,77.500 C 189.691,78.882 189.779,78.955 190.000,80.500" stroke-width="15.941" stroke="rgb(33,33,33)" fill="none" stroke-linecap="round"></path><path d="M 190.000,80.500 C 190.279,82.455 189.754,82.530 190.000,84.500" stroke-width="15.784" stroke="rgb(33,33,33)" fill="none" stroke-linecap="round"></path><path d="M 190.000,84.500 C 190.254,86.530 190.632,86.474 191.000,88.500" stroke-width="15.561" stroke="rgb(33,33,33)" fill="none" stroke-linecap="round"></path><path d="M 191.000,88.500 C 191.632,91.974 191.419,92.013 192.000,95.500" stroke-width="14.785" stroke="rgb(33,33,33)" fill="none" stroke-linecap="round"></path><path d="M 192.000,95.500 C 192.919,101.013 192.954,101.009 194.000,106.500" stroke-width="13.664" stroke="rgb(33,33,33)" fill="none" stroke-linecap="round"></path><path d="M 194.000,106.500 C 194.954,111.509 195.046,111.491 196.000,116.500" stroke-width="12.890" stroke="rgb(33,33,33)" fill="none" stroke-linecap="round"></path><path d="M 196.000,116.500 C 197.046,121.991 196.405,122.183 198.000,127.500" stroke-width="12.198" stroke="rgb(33,33,33)" fill="none" stroke-linecap="round"></path><path d="M 198.000,127.500 C 199.405,132.183 200.060,131.974 202.000,136.500" stroke-width="11.862" stroke="rgb(33,33,33)" fill="none" stroke-linecap="round"></path><path d="M 202.000,136.500 C 203.060,138.974 202.940,139.027 204.000,141.500" stroke-width="12.172" stroke="rgb(33,33,33)" fill="none" stroke-linecap="round"></path><path d="M 204.000,141.500 C 204.440,142.527 204.387,142.581 205.000,143.500" stroke-width="12.913" stroke="rgb(33,33,33)" fill="none" stroke-linecap="round"></path><path d="M 205.000,143.500 C 205.387,144.081 205.419,144.113 206.000,144.500" stroke-width="13.680" stroke="rgb(33,33,33)" fill="none" stroke-linecap="round"></path><path d="M 206.000,144.500 C 206.919,145.113 206.944,145.236 208.000,145.500" stroke-width="14.212" stroke="rgb(33,33,33)" fill="none" stroke-linecap="round"></path><path d="M 208.000,145.500 C 208.944,145.736 209.000,145.500 210.000,145.500" stroke-width="14.746" stroke="rgb(33,33,33)" fill="none" stroke-linecap="round"></path><path d="M 210.000,145.500 C 211.000,145.500 211.052,145.771 212.000,145.500" stroke-width="15.169" stroke="rgb(33,33,33)" fill="none" stroke-linecap="round"></path><path d="M 212.000,145.500 C 214.552,144.771 214.515,144.536 217.000,143.500" stroke-width="14.826" stroke="rgb(33,33,33)" fill="none" stroke-linecap="round"></path><path d="M 217.000,143.500 C 220.515,142.036 220.650,142.287 224.000,140.500" stroke-width="14.264" stroke="rgb(33,33,33)" fill="none" stroke-linecap="round"></path><path d="M 224.000,140.500 C 228.150,138.287 228.000,138.000 232.000,135.500" stroke-width="13.284" stroke="rgb(33,33,33)" fill="none" stroke-linecap="round"></path><path d="M 232.000,135.500 C 236.000,133.000 236.210,133.293 240.000,130.500" stroke-width="12.843" stroke="rgb(33,33,33)" fill="none" stroke-linecap="round"></path><path d="M 240.000,130.500 C 245.710,126.293 245.724,126.248 251.000,121.500" stroke-width="11.775" stroke="rgb(33,33,33)" fill="none" stroke-linecap="round"></path><path d="M 251.000,121.500 C 255.724,117.248 255.651,117.139 260.000,112.500" stroke-width="11.205" stroke="rgb(33,33,33)" fill="none" stroke-linecap="round"></path><path d="M 260.000,112.500 C 263.151,109.139 263.082,109.066 266.000,105.500" stroke-width="11.167" stroke="rgb(33,33,33)" fill="none" stroke-linecap="round"></path><path d="M 266.000,105.500 C 267.582,103.566 267.358,103.377 269.000,101.500" stroke-width="11.678" stroke="rgb(33,33,33)" fill="none" stroke-linecap="round"></path><path d="M 269.000,101.500 C 270.858,99.377 271.168,99.638 273.000,97.500" stroke-width="11.981" stroke="rgb(33,33,33)" fill="none" stroke-linecap="round"></path><path d="M 273.000,97.500 C 274.168,96.138 273.879,95.901 275.000,94.500" stroke-width="12.561" stroke="rgb(33,33,33)" fill="none" stroke-linecap="round"></path><path d="M 275.000,94.500 C 275.879,93.401 276.000,93.500 277.000,92.500" stroke-width="13.096" stroke="rgb(33,33,33)" fill="none" stroke-linecap="round"></path><path d="M 277.000,92.500 C 277.000,92.500 277.000,92.500 277.000,92.500" stroke-width="14.091" stroke="rgb(33,33,33)" fill="none" stroke-linecap="round"></path><path d="M 277.000,92.500 C 277.000,92.000 277.000,91.500 277.000,91.500" stroke-width="14.805" stroke="rgb(33,33,33)" fill="none" stroke-linecap="round"></path><path d="M 277.000,91.500 C 277.000,91.500 277.000,92.000 277.000,92.500" stroke-width="15.537" stroke="rgb(33,33,33)" fill="none" stroke-linecap="round"></path><path d="M 277.000,92.500 C 277.000,93.000 277.000,93.000 277.000,93.500" stroke-width="16.080" stroke="rgb(33,33,33)" fill="none" stroke-linecap="round"></path><path d="M 277.000,93.500 C 277.000,94.500 277.141,94.514 277.000,95.500" stroke-width="16.280" stroke="rgb(33,33,33)" fill="none" stroke-linecap="round"></path><path d="M 277.000,95.500 C 276.641,98.014 276.456,97.992 276.000,100.500" stroke-width="15.725" stroke="rgb(33,33,33)" fill="none" stroke-linecap="round"></path><path d="M 276.000,100.500 C 275.456,103.492 275.302,103.484 275.000,106.500" stroke-width="15.207" stroke="rgb(33,33,33)" fill="none" stroke-linecap="round"></path><path d="M 275.000,106.500 C 274.802,108.484 275.000,108.500 275.000,110.500" stroke-width="15.134" stroke="rgb(33,33,33)" fill="none" stroke-linecap="round"></path><path d="M 275.000,110.500 C 275.000,112.000 275.000,112.000 275.000,113.500" stroke-width="15.284" stroke="rgb(33,33,33)" fill="none" stroke-linecap="round"></path><path d="M 275.000,113.500 C 275.000,114.000 275.000,114.000 275.000,114.500" stroke-width="15.843" stroke="rgb(33,33,33)" fill="none" stroke-linecap="round"></path><path d="M 275.000,114.500 C 275.000,115.000 275.000,115.000 275.000,115.500" stroke-width="16.321" stroke="rgb(33,33,33)" fill="none" stroke-linecap="round"></path><path d="M 275.000,115.500 C 275.000,115.500 275.000,115.500 275.000,115.500" stroke-width="16.980" stroke="rgb(33,33,33)" fill="none" stroke-linecap="round"></path><path d="M 275.000,115.500 C 275.000,116.000 275.000,116.000 275.000,116.500" stroke-width="17.275" stroke="rgb(33,33,33)" fill="none" stroke-linecap="round"></path><path d="M 275.000,116.500 C 275.000,116.500 275.000,116.500 275.000,116.500" stroke-width="17.798" stroke="rgb(33,33,33)" fill="none" stroke-linecap="round"></path><path d="M 275.000,116.500 C 275.500,116.500 275.500,116.500 276.000,116.500" stroke-width="17.946" stroke="rgb(33,33,33)" fill="none" stroke-linecap="round"></path><path d="M 276.000,116.500 C 276.000,117.000 276.000,117.000 276.000,117.500" stroke-width="19.476" stroke="rgb(33,33,33)" fill="none" stroke-linecap="round"></path><path d="M 276.000,117.500 C 276.000,117.500 276.000,117.500 276.000,117.500" stroke-width="19.626" stroke="rgb(33,33,33)" fill="none" stroke-linecap="round"></path><path d="M 276.000,117.500 C 276.000,118.000 276.000,118.000 276.000,118.500" stroke-width="19.432" stroke="rgb(33,33,33)" fill="none" stroke-linecap="round"></path><path d="M 276.000,118.500 C 276.000,119.000 275.750,119.250 276.000,119.500" stroke-width="19.252" stroke="rgb(33,33,33)" fill="none" stroke-linecap="round"></path><path d="M 276.000,119.500 C 276.250,119.750 276.750,119.250 277.000,119.500" stroke-width="19.110" stroke="rgb(33,33,33)" fill="none" stroke-linecap="round"></path><path d="M 277.000,119.500 C 277.250,119.750 277.000,120.000 277.000,120.500" stroke-width="18.998" stroke="rgb(33,33,33)" fill="none" stroke-linecap="round"></path><path d="M 277.000,120.500 C 277.000,121.000 276.793,121.086 277.000,121.500" stroke-width="18.936" stroke="rgb(33,33,33)" fill="none" stroke-linecap="round"></path><path d="M 277.000,121.500 C 277.293,122.086 277.500,122.000 278.000,122.500" stroke-width="18.729" stroke="rgb(33,33,33)" fill="none" stroke-linecap="round"></path><path d="M 278.000,122.500 C 278.500,123.000 278.414,123.207 279.000,123.500" stroke-width="18.566" stroke="rgb(33,33,33)" fill="none" stroke-linecap="round"></path><path d="M 279.000,123.500 C 279.414,123.707 279.586,123.293 280.000,123.500" stroke-width="18.591" stroke="rgb(33,33,33)" fill="none" stroke-linecap="round"></path><path d="M 280.000,123.500 C 280.586,123.793 280.379,124.293 281.000,124.500" stroke-width="18.458" stroke="rgb(33,33,33)" fill="none" stroke-linecap="round"></path><path d="M 281.000,124.500 C 281.879,124.793 282.000,124.500 283.000,124.500" stroke-width="18.177" stroke="rgb(33,33,33)" fill="none" stroke-linecap="round"></path><path d="M 283.000,124.500 C 284.000,124.500 284.000,124.500 285.000,124.500" stroke-width="17.959" stroke="rgb(33,33,33)" fill="none" stroke-linecap="round"></path><path d="M 285.000,124.500 C 285.000,124.500 285.000,124.500 285.000,124.500" stroke-width="18.374" stroke="rgb(33,33,33)" fill="none" stroke-linecap="round"></path><path d="M 285.000,124.500 C 286.000,124.500 286.056,124.736 287.000,124.500" stroke-width="18.162" stroke="rgb(33,33,33)" fill="none" stroke-linecap="round"></path><path d="M 287.000,124.500 C 288.056,124.236 288.043,124.074 289.000,123.500" stroke-width="17.878" stroke="rgb(33,33,33)" fill="none" stroke-linecap="round"></path><path d="M 289.000,123.500 C 290.543,122.574 290.563,122.577 292.000,121.500" stroke-width="17.283" stroke="rgb(33,33,33)" fill="none" stroke-linecap="round"></path><path d="M 292.000,121.500 C 292.563,121.077 292.362,120.755 293.000,120.500" stroke-width="17.411" stroke="rgb(33,33,33)" fill="none" stroke-linecap="round"></path><path d="M 293.000,120.500 C 294.862,119.755 295.081,120.220 297.000,119.500" stroke-width="16.887" stroke="rgb(33,33,33)" fill="none" stroke-linecap="round"></path><path d="M 297.000,119.500 C 299.081,118.720 299.000,118.500 301.000,117.500" stroke-width="16.322" stroke="rgb(33,33,33)" fill="none" stroke-linecap="round"></path><path d="M 301.000,117.500 C 303.000,116.500 303.111,116.680 305.000,115.500" stroke-width="15.897" stroke="rgb(33,33,33)" fill="none" stroke-linecap="round"></path><path d="M 305.000,115.500 C 307.111,114.180 306.953,113.933 309.000,112.500" stroke-width="15.458" stroke="rgb(33,33,33)" fill="none" stroke-linecap="round"></path><path d="M 309.000,112.500 C 311.953,110.433 312.087,110.619 315.000,108.500" stroke-width="14.801" stroke="rgb(33,33,33)" fill="none" stroke-linecap="round"></path><path d="M 315.000,108.500 C 317.587,106.619 317.572,106.581 320.000,104.500" stroke-width="14.352" stroke="rgb(33,33,33)" fill="none" stroke-linecap="round"></path><path d="M 320.000,104.500 C 321.072,103.581 321.162,103.617 322.000,102.500" stroke-width="14.672" stroke="rgb(33,33,33)" fill="none" stroke-linecap="round"></path><path d="M 322.000,102.500 C 322.662,101.617 322.387,101.419 323.000,100.500" stroke-width="15.058" stroke="rgb(33,33,33)" fill="none" stroke-linecap="round"></path><path d="M 323.000,100.500 C 323.387,99.919 323.500,100.000 324.000,99.500" stroke-width="15.584" stroke="rgb(33,33,33)" fill="none" stroke-linecap="round"></path><path d="M 324.000,99.500 C 323.500,99.500 323.414,99.293 323.000,99.500" stroke-width="18.465" stroke="rgb(33,33,33)" fill="none" stroke-linecap="round"></path><path d="M 323.000,99.500 C 322.414,99.793 322.309,99.882 322.000,100.500" stroke-width="18.358" stroke="rgb(33,33,33)" fill="none" stroke-linecap="round"></path><path d="M 322.000,100.500 C 321.309,101.882 321.621,102.050 321.000,103.500" stroke-width="17.839" stroke="rgb(33,33,33)" fill="none" stroke-linecap="round"></path><path d="M 321.000,103.500 C 320.121,105.550 320.085,105.547 319.000,107.500" stroke-width="17.025" stroke="rgb(33,33,33)" fill="none" stroke-linecap="round"></path><path d="M 319.000,107.500 C 317.585,110.047 317.172,109.864 316.000,112.500" stroke-width="16.103" stroke="rgb(33,33,33)" fill="none" stroke-linecap="round"></path><path d="M 316.000,112.500 C 315.172,114.364 315.447,114.488 315.000,116.500" stroke-width="15.808" stroke="rgb(33,33,33)" fill="none" stroke-linecap="round"></path><path d="M 315.000,116.500 C 314.447,118.988 314.315,118.982 314.000,121.500" stroke-width="15.460" stroke="rgb(33,33,33)" fill="none" stroke-linecap="round"></path><path d="M 314.000,121.500 C 313.815,122.982 313.757,123.040 314.000,124.500" stroke-width="15.548" stroke="rgb(33,33,33)" fill="none" stroke-linecap="round"></path><path d="M 314.000,124.500 C 314.257,126.040 314.743,125.960 315.000,127.500" stroke-width="15.584" stroke="rgb(33,33,33)" fill="none" stroke-linecap="round"></path><path d="M 315.000,127.500 C 315.243,128.960 314.485,129.213 315.000,130.500" stroke-width="15.648" stroke="rgb(33,33,33)" fill="none" stroke-linecap="round"></path><path d="M 315.000,130.500 C 315.485,131.713 316.000,131.500 317.000,132.500" stroke-width="15.791" stroke="rgb(33,33,33)" fill="none" stroke-linecap="round"></path><path d="M 317.000,132.500 C 318.000,133.500 317.779,133.890 319.000,134.500" stroke-width="15.853" stroke="rgb(33,33,33)" fill="none" stroke-linecap="round"></path><path d="M 319.000,134.500 C 320.779,135.390 321.019,134.934 323.000,135.500" stroke-width="15.615" stroke="rgb(33,33,33)" fill="none" stroke-linecap="round"></path><path d="M 323.000,135.500 C 324.519,135.934 324.460,136.243 326.000,136.500" stroke-width="15.637" stroke="rgb(33,33,33)" fill="none" stroke-linecap="round"></path><path d="M 326.000,136.500 C 327.460,136.743 327.569,136.858 329.000,136.500" stroke-width="15.747" stroke="rgb(33,33,33)" fill="none" stroke-linecap="round"></path><path d="M 329.000,136.500 C 331.569,135.858 331.599,135.700 334.000,134.500" stroke-width="15.264" stroke="rgb(33,33,33)" fill="none" stroke-linecap="round"></path><path d="M 334.000,134.500 C 336.599,133.200 336.577,133.115 339.000,131.500" stroke-width="14.809" stroke="rgb(33,33,33)" fill="none" stroke-linecap="round"></path><path d="M 339.000,131.500 C 341.077,130.115 341.123,130.142 343.000,128.500" stroke-width="14.703" stroke="rgb(33,33,33)" fill="none" stroke-linecap="round"></path><path d="M 343.000,128.500 C 345.123,126.642 345.277,126.716 347.000,124.500" stroke-width="14.417" stroke="rgb(33,33,33)" fill="none" stroke-linecap="round"></path><path d="M 347.000,124.500 C 348.777,122.216 348.455,121.972 350.000,119.500" stroke-width="14.164" stroke="rgb(33,33,33)" fill="none" stroke-linecap="round"></path><path d="M 350.000,119.500 C 350.955,117.972 351.074,118.043 352.000,116.500" stroke-width="14.368" stroke="rgb(33,33,33)" fill="none" stroke-linecap="round"></path><path d="M 352.000,116.500 C 352.574,115.543 352.586,115.536 353.000,114.500" stroke-width="14.838" stroke="rgb(33,33,33)" fill="none" stroke-linecap="round"></path><path d="M 353.000,114.500 C 353.586,113.036 353.414,112.964 354.000,111.500" stroke-width="15.008" stroke="rgb(33,33,33)" fill="none" stroke-linecap="round"></path><path d="M 354.000,111.500 C 354.414,110.464 354.736,110.556 355.000,109.500" stroke-width="15.379" stroke="rgb(33,33,33)" fill="none" stroke-linecap="round"></path><path d="M 355.000,109.500 C 355.236,108.556 355.000,108.500 355.000,107.500" stroke-width="15.657" stroke="rgb(33,33,33)" fill="none" stroke-linecap="round"></path><path d="M 355.000,107.500 C 355.000,107.000 355.000,107.000 355.000,106.500" stroke-width="16.163" stroke="rgb(33,33,33)" fill="none" stroke-linecap="round"></path><path d="M 355.000,106.500 C 355.000,105.500 355.000,105.500 355.000,104.500" stroke-width="16.423" stroke="rgb(33,33,33)" fill="none" stroke-linecap="round"></path><path d="M 355.000,104.500 C 355.000,104.000 355.250,103.750 355.000,103.500" stroke-width="16.785" stroke="rgb(33,33,33)" fill="none" stroke-linecap="round"></path><path d="M 355.000,103.500 C 354.750,103.250 354.500,103.500 354.000,103.500" stroke-width="17.113" stroke="rgb(33,33,33)" fill="none" stroke-linecap="round"></path><path d="M 354.000,103.500 C 353.500,104.000 353.387,103.919 353.000,104.500" stroke-width="18.087" stroke="rgb(33,33,33)" fill="none" stroke-linecap="round"></path><path d="M 353.000,104.500 C 352.387,105.419 352.574,105.543 352.000,106.500" stroke-width="17.821" stroke="rgb(33,33,33)" fill="none" stroke-linecap="round"></path><path d="M 352.000,106.500 C 351.074,108.043 350.802,107.896 350.000,109.500" stroke-width="17.320" stroke="rgb(33,33,33)" fill="none" stroke-linecap="round"></path><path d="M 350.000,109.500 C 348.802,111.896 348.704,111.917 348.000,114.500" stroke-width="16.420" stroke="rgb(33,33,33)" fill="none" stroke-linecap="round"></path><path d="M 348.000,114.500 C 347.204,117.417 347.544,117.508 347.000,120.500" stroke-width="15.611" stroke="rgb(33,33,33)" fill="none" stroke-linecap="round"></path><path d="M 347.000,120.500 C 346.544,123.008 346.280,122.978 346.000,125.500" stroke-width="15.220" stroke="rgb(33,33,33)" fill="none" stroke-linecap="round"></path><path d="M 346.000,125.500 C 345.780,127.478 345.721,127.545 346.000,129.500" stroke-width="15.145" stroke="rgb(33,33,33)" fill="none" stroke-linecap="round"></path><path d="M 346.000,129.500 C 346.221,131.045 346.299,131.098 347.000,132.500" stroke-width="15.258" stroke="rgb(33,33,33)" fill="none" stroke-linecap="round"></path><path d="M 347.000,132.500 C 347.799,134.098 348.074,133.957 349.000,135.500" stroke-width="15.320" stroke="rgb(33,33,33)" fill="none" stroke-linecap="round"></path><path d="M 349.000,135.500 C 349.574,136.457 349.250,136.750 350.000,137.500" stroke-width="15.600" stroke="rgb(33,33,33)" fill="none" stroke-linecap="round"></path><path d="M 350.000,137.500 C 350.750,138.250 350.944,138.236 352.000,138.500" stroke-width="15.873" stroke="rgb(33,33,33)" fill="none" stroke-linecap="round"></path><path d="M 352.000,138.500 C 352.944,138.736 353.000,138.500 354.000,138.500" stroke-width="16.110" stroke="rgb(33,33,33)" fill="none" stroke-linecap="round"></path><path d="M 354.000,138.500 C 356.000,138.500 356.111,138.972 358.000,138.500" stroke-width="15.841" stroke="rgb(33,33,33)" fill="none" stroke-linecap="round"></path><path d="M 358.000,138.500 C 360.111,137.972 360.047,137.585 362.000,136.500" stroke-width="15.530" stroke="rgb(33,33,33)" fill="none" stroke-linecap="round"></path><path d="M 362.000,136.500 C 364.547,135.085 364.675,135.243 367.000,133.500" stroke-width="15.009" stroke="rgb(33,33,33)" fill="none" stroke-linecap="round"></path><path d="M 367.000,133.500 C 370.675,130.743 370.750,130.750 374.000,127.500" stroke-width="14.131" stroke="rgb(33,33,33)" fill="none" stroke-linecap="round"></path><path d="M 374.000,127.500 C 377.250,124.250 377.194,124.147 380.000,120.500" stroke-width="13.375" stroke="rgb(33,33,33)" fill="none" stroke-linecap="round"></path><path d="M 380.000,120.500 C 382.194,117.647 381.806,117.353 384.000,114.500" stroke-width="13.129" stroke="rgb(33,33,33)" fill="none" stroke-linecap="round"></path><path d="M 384.000,114.500 C 386.806,110.853 387.243,111.175 390.000,107.500" stroke-width="12.644" stroke="rgb(33,33,33)" fill="none" stroke-linecap="round"></path><path d="M 390.000,107.500 C 391.743,105.175 391.317,104.857 393.000,102.500" stroke-width="12.830" stroke="rgb(33,33,33)" fill="none" stroke-linecap="round"></path><path d="M 393.000,102.500 C 393.817,101.357 394.000,101.500 395.000,100.500" stroke-width="13.374" stroke="rgb(33,33,33)" fill="none" stroke-linecap="round"></path><path d="M 395.000,100.500 C 395.500,100.000 395.707,100.086 396.000,99.500" stroke-width="14.092" stroke="rgb(33,33,33)" fill="none" stroke-linecap="round"></path><path d="M 396.000,99.500 C 396.207,99.086 396.000,99.000 396.000,98.500" stroke-width="14.805" stroke="rgb(33,33,33)" fill="none" stroke-linecap="round"></path><path d="M 396.000,98.500 C 395.500,100.000 395.434,99.981 395.000,101.500" stroke-width="17.190" stroke="rgb(33,33,33)" fill="none" stroke-linecap="round"></path><path d="M 395.000,101.500 C 394.434,103.481 394.447,103.488 394.000,105.500" stroke-width="16.634" stroke="rgb(33,33,33)" fill="none" stroke-linecap="round"></path><path d="M 394.000,105.500 C 393.447,107.988 393.500,108.000 393.000,110.500" stroke-width="15.988" stroke="rgb(33,33,33)" fill="none" stroke-linecap="round"></path><path d="M 393.000,110.500 C 392.500,113.000 392.280,112.978 392.000,115.500" stroke-width="15.598" stroke="rgb(33,33,33)" fill="none" stroke-linecap="round"></path><path d="M 392.000,115.500 C 391.780,117.478 391.754,117.530 392.000,119.500" stroke-width="15.442" stroke="rgb(33,33,33)" fill="none" stroke-linecap="round"></path><path d="M 392.000,119.500 C 392.254,121.530 392.434,121.519 393.000,123.500" stroke-width="15.294" stroke="rgb(33,33,33)" fill="none" stroke-linecap="round"></path><path d="M 393.000,123.500 C 393.434,125.019 393.299,125.098 394.000,126.500" stroke-width="15.379" stroke="rgb(33,33,33)" fill="none" stroke-linecap="round"></path><path d="M 394.000,126.500 C 394.799,128.098 394.879,128.099 396.000,129.500" stroke-width="15.353" stroke="rgb(33,33,33)" fill="none" stroke-linecap="round"></path><path d="M 396.000,129.500 C 396.879,130.599 397.000,130.500 398.000,131.500" stroke-width="15.550" stroke="rgb(33,33,33)" fill="none" stroke-linecap="round"></path><path d="M 398.000,131.500 C 398.500,132.000 398.379,132.293 399.000,132.500" stroke-width="15.976" stroke="rgb(33,33,33)" fill="none" stroke-linecap="round"></path><path d="M 399.000,132.500 C 399.879,132.793 400.056,132.736 401.000,132.500" stroke-width="16.195" stroke="rgb(33,33,33)" fill="none" stroke-linecap="round"></path><path d="M 401.000,132.500 C 402.056,132.236 402.043,132.074 403.000,131.500" stroke-width="16.318" stroke="rgb(33,33,33)" fill="none" stroke-linecap="round"></path><path d="M 403.000,131.500 C 404.543,130.574 404.638,130.668 406.000,129.500" stroke-width="16.163" stroke="rgb(33,33,33)" fill="none" stroke-linecap="round"></path><path d="M 406.000,129.500 C 408.138,127.668 408.142,127.623 410.000,125.500" stroke-width="15.515" stroke="rgb(33,33,33)" fill="none" stroke-linecap="round"></path><path d="M 410.000,125.500 C 411.642,123.623 411.719,123.635 413.000,121.500" stroke-width="15.168" stroke="rgb(33,33,33)" fill="none" stroke-linecap="round"></path><path d="M 413.000,121.500 C 414.719,118.635 414.281,118.365 416.000,115.500" stroke-width="14.568" stroke="rgb(33,33,33)" fill="none" stroke-linecap="round"></path><path d="M 416.000,115.500 C 417.281,113.365 417.775,113.644 419.000,111.500" stroke-width="14.513" stroke="rgb(33,33,33)" fill="none" stroke-linecap="round"></path><path d="M 419.000,111.500 C 419.775,110.144 419.240,109.640 420.000,108.500" stroke-width="14.741" stroke="rgb(33,33,33)" fill="none" stroke-linecap="round"></path><path d="M 420.000,108.500 C 420.240,108.140 420.750,108.750 421.000,108.500" stroke-width="15.374" stroke="rgb(33,33,33)" fill="none" stroke-linecap="round"></path><path d="M 421.000,108.500 C 421.250,108.250 421.000,107.500 421.000,107.500" stroke-width="15.921" stroke="rgb(33,33,33)" fill="none" stroke-linecap="round"></path><path d="M 421.000,107.500 C 421.000,107.500 421.207,108.086 421.000,108.500" stroke-width="16.514" stroke="rgb(33,33,33)" fill="none" stroke-linecap="round"></path><path d="M 421.000,108.500 C 420.707,109.086 420.131,108.847 420.000,109.500" stroke-width="16.781" stroke="rgb(33,33,33)" fill="none" stroke-linecap="round"></path><path d="M 420.000,109.500 C 419.631,111.347 420.000,111.500 420.000,113.500" stroke-width="16.436" stroke="rgb(33,33,33)" fill="none" stroke-linecap="round"></path><path d="M 420.000,113.500 C 420.000,116.000 420.000,116.000 420.000,118.500" stroke-width="15.863" stroke="rgb(33,33,33)" fill="none" stroke-linecap="round"></path><path d="M 420.000,118.500 C 420.000,121.000 419.726,121.034 420.000,123.500" stroke-width="15.433" stroke="rgb(33,33,33)" fill="none" stroke-linecap="round"></path><path d="M 420.000,123.500 C 420.226,125.534 420.200,125.633 421.000,127.500" stroke-width="15.287" stroke="rgb(33,33,33)" fill="none" stroke-linecap="round"></path><path d="M 421.000,127.500 C 421.700,129.133 421.851,129.122 423.000,130.500" stroke-width="15.280" stroke="rgb(33,33,33)" fill="none" stroke-linecap="round"></path><path d="M 423.000,130.500 C 424.351,132.122 424.281,132.354 426.000,133.500" stroke-width="15.215" stroke="rgb(33,33,33)" fill="none" stroke-linecap="round"></path><path d="M 426.000,133.500 C 427.281,134.354 427.460,134.243 429.000,134.500" stroke-width="15.315" stroke="rgb(33,33,33)" fill="none" stroke-linecap="round"></path><path d="M 429.000,134.500 C 430.460,134.743 430.500,134.500 432.000,134.500" stroke-width="15.430" stroke="rgb(33,33,33)" fill="none" stroke-linecap="round"></path><path d="M 432.000,134.500 C 434.000,134.500 434.159,135.026 436.000,134.500" stroke-width="15.381" stroke="rgb(33,33,33)" fill="none" stroke-linecap="round"></path><path d="M 436.000,134.500 C 437.659,134.026 437.534,133.547 439.000,132.500" stroke-width="15.279" stroke="rgb(33,33,33)" fill="none" stroke-linecap="round"></path><path d="M 439.000,132.500 C 441.034,131.047 441.246,131.254 443.000,129.500" stroke-width="15.071" stroke="rgb(33,33,33)" fill="none" stroke-linecap="round"></path><path d="M 443.000,129.500 C 445.246,127.254 445.119,127.087 447.000,124.500" stroke-width="14.555" stroke="rgb(33,33,33)" fill="none" stroke-linecap="round"></path><path d="M 447.000,124.500 C 449.119,121.587 449.111,121.569 451.000,118.500" stroke-width="14.022" stroke="rgb(33,33,33)" fill="none" stroke-linecap="round"></path><path d="M 451.000,118.500 C 453.111,115.069 452.707,114.776 455.000,111.500" stroke-width="13.593" stroke="rgb(33,33,33)" fill="none" stroke-linecap="round"></path><path d="M 455.000,111.500 C 456.207,109.776 456.500,110.000 458.000,108.500" stroke-width="13.786" stroke="rgb(33,33,33)" fill="none" stroke-linecap="round"></path><path d="M 458.000,108.500 C 458.500,108.000 458.379,107.707 459.000,107.500" stroke-width="14.456" stroke="rgb(33,33,33)" fill="none" stroke-linecap="round"></path><path d="M 459.000,107.500 C 459.879,107.207 460.056,107.264 461.000,107.500" stroke-width="14.922" stroke="rgb(33,33,33)" fill="none" stroke-linecap="round"></path><path d="M 461.000,107.500 C 462.056,107.764 461.964,108.086 463.000,108.500" stroke-width="15.307" stroke="rgb(33,33,33)" fill="none" stroke-linecap="round"></path><path d="M 463.000,108.500 C 464.464,109.086 464.598,108.799 466.000,109.500" stroke-width="15.390" stroke="rgb(33,33,33)" fill="none" stroke-linecap="round"></path><path d="M 466.000,109.500 C 467.598,110.299 467.500,110.500 469.000,111.500" stroke-width="15.362" stroke="rgb(33,33,33)" fill="none" stroke-linecap="round"></path><path d="M 469.000,111.500 C 470.500,112.500 470.750,112.250 472.000,113.500" stroke-width="15.403" stroke="rgb(33,33,33)" fill="none" stroke-linecap="round"></path><path d="M 472.000,113.500 C 473.250,114.750 472.766,115.266 474.000,116.500" stroke-width="15.373" stroke="rgb(33,33,33)" fill="none" stroke-linecap="round"></path><path d="M 474.000,116.500 C 474.766,117.266 475.081,116.887 476.000,117.500" stroke-width="15.643" stroke="rgb(33,33,33)" fill="none" stroke-linecap="round"></path><path d="M 476.000,117.500 C 476.581,117.887 476.500,118.000 477.000,118.500" stroke-width="16.055" stroke="rgb(33,33,33)" fill="none" stroke-linecap="round"></path><path d="M 477.000,118.500 C 477.500,119.000 477.500,119.000 478.000,119.500" stroke-width="16.400" stroke="rgb(33,33,33)" fill="none" stroke-linecap="round"></path><path d="M 478.000,119.500 C 478.500,120.000 478.500,120.000 479.000,120.500" stroke-width="16.717" stroke="rgb(33,33,33)" fill="none" stroke-linecap="round"></path><path d="M 479.000,120.500 C 479.000,120.500 479.000,120.500 479.000,120.500" stroke-width="17.321" stroke="rgb(33,33,33)" fill="none" stroke-linecap="round"></path><path d="M 479.000,120.500 C 479.000,121.000 479.000,121.000 479.000,121.500" stroke-width="17.556" stroke="rgb(33,33,33)" fill="none" stroke-linecap="round"></path><path d="M 479.000,121.500 C 479.000,122.000 479.000,122.000 479.000,122.500" stroke-width="17.772" stroke="rgb(33,33,33)" fill="none" stroke-linecap="round"></path><path d="M 479.000,122.500 C 479.000,123.000 479.000,123.000 479.000,123.500" stroke-width="17.925" stroke="rgb(33,33,33)" fill="none" stroke-linecap="round"></path><path d="M 479.000,123.500 C 479.000,123.500 479.000,123.500 479.000,123.500" stroke-width="18.346" stroke="rgb(33,33,33)" fill="none" stroke-linecap="round"></path><path d="M 479.000,123.500 C 478.500,124.000 478.586,124.207 478.000,124.500" stroke-width="18.264" stroke="rgb(33,33,33)" fill="none" stroke-linecap="round"></path><path d="M 478.000,124.500 C 477.586,124.707 477.500,124.500 477.000,124.500" stroke-width="18.323" stroke="rgb(33,33,33)" fill="none" stroke-linecap="round"></path><path d="M 477.000,124.500 C 477.000,124.000 477.000,124.000 477.000,123.500" stroke-width="19.392" stroke="rgb(33,33,33)" fill="none" stroke-linecap="round"></path><path d="M 477.000,123.500 C 477.000,123.000 476.880,122.981 477.000,122.500" stroke-width="19.220" stroke="rgb(33,33,33)" fill="none" stroke-linecap="round"></path><path d="M 477.000,122.500 C 477.380,120.981 477.065,120.668 478.000,119.500" stroke-width="18.403" stroke="rgb(33,33,33)" fill="none" stroke-linecap="round"></path><path d="M 478.000,119.500 C 479.065,118.168 479.457,118.426 481.000,117.500" stroke-width="17.830" stroke="rgb(33,33,33)" fill="none" stroke-linecap="round"></path><path d="M 481.000,117.500 C 481.957,116.926 481.964,116.500 483.000,116.500" stroke-width="17.558" stroke="rgb(33,33,33)" fill="none" stroke-linecap="round"></path><path d="M 483.000,116.500 C 484.464,116.500 484.719,116.646 486.000,117.500" stroke-width="17.159" stroke="rgb(33,33,33)" fill="none" stroke-linecap="round"></path><path d="M 486.000,117.500 C 487.719,118.646 487.416,119.092 489.000,120.500" stroke-width="16.669" stroke="rgb(33,33,33)" fill="none" stroke-linecap="round"></path><path d="M 489.000,120.500 C 491.916,123.092 491.978,123.027 495.000,125.500" stroke-width="15.412" stroke="rgb(33,33,33)" fill="none" stroke-linecap="round"></path><path d="M 495.000,125.500 C 497.478,127.527 497.744,127.244 500.000,129.500" stroke-width="14.914" stroke="rgb(33,33,33)" fill="none" stroke-linecap="round"></path><path d="M 500.000,129.500 C 503.744,133.244 503.140,133.881 507.000,137.500" stroke-width="13.510" stroke="rgb(33,33,33)" fill="none" stroke-linecap="round"></path><path d="M 507.000,137.500 C 511.140,141.381 511.278,141.352 516.000,144.500" stroke-width="12.606" stroke="rgb(33,33,33)" fill="none" stroke-linecap="round"></path><path d="M 516.000,144.500 C 518.778,146.352 518.813,146.563 522.000,147.500" stroke-width="12.749" stroke="rgb(33,33,33)" fill="none" stroke-linecap="round"></path><path d="M 522.000,147.500 C 527.313,149.063 527.462,148.917 533.000,149.500" stroke-width="11.952" stroke="rgb(33,33,33)" fill="none" stroke-linecap="round"></path><path d="M 533.000,149.500 C 536.962,149.917 537.029,149.878 541.000,149.500" stroke-width="11.906" stroke="rgb(33,33,33)" fill="none" stroke-linecap="round"></path><path d="M 541.000,149.500 C 547.529,148.878 547.642,149.089 554.000,147.500" stroke-width="11.377" stroke="rgb(33,33,33)" fill="none" stroke-linecap="round"></path><path d="M 554.000,147.500 C 561.642,145.589 561.678,145.429 569.000,142.500" stroke-width="10.594" stroke="rgb(33,33,33)" fill="none" stroke-linecap="round"></path><path d="M 569.000,142.500 C 574.178,140.429 574.631,140.876 579.000,137.500" stroke-width="10.479" stroke="rgb(33,33,33)" fill="none" stroke-linecap="round"></path><path d="M 579.000,137.500 C 585.631,132.376 585.537,131.927 591.000,125.500" stroke-width="9.857" stroke="rgb(33,33,33)" fill="none" stroke-linecap="round"></path><path d="M 591.000,125.500 C 594.037,121.927 593.896,121.709 596.000,117.500" stroke-width="10.049" stroke="rgb(33,33,33)" fill="none" stroke-linecap="round"></path><path d="M 596.000,117.500 C 599.896,109.709 600.040,109.698 603.000,101.500" stroke-width="9.628" stroke="rgb(33,33,33)" fill="none" stroke-linecap="round"></path><path d="M 603.000,101.500 C 606.540,91.698 606.615,91.635 609.000,81.500" stroke-width="8.952" stroke="rgb(33,33,33)" fill="none" stroke-linecap="round"></path><path d="M 609.000,81.500 C 610.615,74.635 610.598,74.542 611.000,67.500" stroke-width="8.933" stroke="rgb(33,33,33)" fill="none" stroke-linecap="round"></path><path d="M 611.000,67.500 C 611.598,57.042 611.633,56.948 611.000,46.500" stroke-width="8.454" stroke="rgb(33,33,33)" fill="none" stroke-linecap="round"></path><path d="M 611.000,46.500 C 610.633,40.448 610.739,40.297 609.000,34.500" stroke-width="8.732" stroke="rgb(33,33,33)" fill="none" stroke-linecap="round"></path><path d="M 609.000,34.500 C 606.239,25.297 606.101,25.216 602.000,16.500" stroke-width="8.415" stroke="rgb(33,33,33)" fill="none" stroke-linecap="round"></path><path d="M 602.000,16.500 C 598.101,8.216 600.718,2.165 593.000,0.500" stroke-width="8.236" stroke="rgb(33,33,33)" fill="none" stroke-linecap="round"></path><path d="M 593.000,0.500 C 575.218,-3.335 566.466,-2.749 551.000,5.500" stroke-width="8.956" stroke="rgb(33,33,33)" fill="none" stroke-linecap="round"></path><path d="M 551.000,5.500 C 543.966,9.251 549.447,14.992 548.000,24.500" stroke-width="8.693" stroke="rgb(33,33,33)" fill="none" stroke-linecap="round"></path><path d="M 548.000,24.500 C 545.947,37.992 545.692,37.963 544.000,51.500" stroke-width="7.911" stroke="rgb(33,33,33)" fill="none" stroke-linecap="round"></path><path d="M 544.000,51.500 C 542.692,61.963 542.210,61.976 542.000,72.500" stroke-width="7.695" stroke="rgb(33,33,33)" fill="none" stroke-linecap="round"></path><path d="M 542.000,72.500 C 541.710,86.976 542.408,87.004 543.000,101.500" stroke-width="7.149" stroke="rgb(33,33,33)" fill="none" stroke-linecap="round"></path><path d="M 543.000,101.500 C 543.408,111.504 542.588,111.616 544.000,121.500" stroke-width="7.155" stroke="rgb(33,33,33)" fill="none" stroke-linecap="round"></path><path d="M 544.000,121.500 C 546.088,136.116 546.070,136.255 550.000,150.500" stroke-width="6.846" stroke="rgb(33,33,33)" fill="none" stroke-linecap="round"></path><path d="M 550.000,150.500 C 554.070,165.255 554.685,165.119 560.000,179.500" stroke-width="6.750" stroke="rgb(33,33,33)" fill="none" stroke-linecap="round"></path><path d="M 560.000,179.500 C 563.185,188.119 562.898,188.296 567.000,196.500" stroke-width="6.750" stroke="rgb(33,33,33)" fill="none" stroke-linecap="round"></path><path d="M 567.000,196.500 C 571.898,206.296 571.930,206.395 578.000,215.500" stroke-width="6.767" stroke="rgb(33,33,33)" fill="none" stroke-linecap="round"></path><path d="M 578.000,215.500 C 581.930,221.395 582.112,221.368 587.000,226.500" stroke-width="7.099" stroke="rgb(33,33,33)" fill="none" stroke-linecap="round"></path><path d="M 587.000,226.500 C 592.112,231.868 592.116,232.017 598.000,236.500" stroke-width="7.357" stroke="rgb(33,33,33)" fill="none" stroke-linecap="round"></path><path d="M 598.000,236.500 C 602.616,240.017 603.000,239.500 608.000,242.500" stroke-width="7.747" stroke="rgb(33,33,33)" fill="none" stroke-linecap="round"></path><path d="M 608.000,242.500 C 610.500,244.000 610.364,244.328 613.000,245.500" stroke-width="8.479" stroke="rgb(33,33,33)" fill="none" stroke-linecap="round"></path><path d="M 613.000,245.500 C 614.864,246.328 615.000,246.000 617.000,246.500" stroke-width="9.265" stroke="rgb(33,33,33)" fill="none" stroke-linecap="round"></path><path d="M 617.000,246.500 C 615.500,246.500 615.416,246.936 614.000,246.500" stroke-width="12.187" stroke="rgb(33,33,33)" fill="none" stroke-linecap="round"></path><path d="M 614.000,246.500 C 608.916,244.936 609.152,244.003 604.000,242.500" stroke-width="11.851" stroke="rgb(33,33,33)" fill="none" stroke-linecap="round"></path><path d="M 604.000,242.500 C 597.152,240.503 597.077,240.532 590.000,239.500" stroke-width="11.082" stroke="rgb(33,33,33)" fill="none" stroke-linecap="round"></path><path d="M 590.000,239.500 C 573.077,237.032 573.056,236.812 556.000,235.500" stroke-width="8.865" stroke="rgb(33,33,33)" fill="none" stroke-linecap="round"></path><path d="M 556.000,235.500 C 534.056,233.812 533.974,234.891 512.000,233.500" stroke-width="7.333" stroke="rgb(33,33,33)" fill="none" stroke-linecap="round"></path><path d="M 512.000,233.500 C 494.474,232.391 494.519,231.739 477.000,230.500" stroke-width="6.750" stroke="rgb(33,33,33)" fill="none" stroke-linecap="round"></path><path d="M 477.000,230.500 C 445.019,228.239 444.998,228.536 413.000,226.500" stroke-width="6.750" stroke="rgb(33,33,33)" fill="none" stroke-linecap="round"></path><path d="M 413.000,226.500 C 389.998,225.036 390.009,224.853 367.000,223.500" stroke-width="6.750" stroke="rgb(33,33,33)" fill="none" stroke-linecap="round"></path><path d="M 367.000,223.500 C 330.509,221.353 330.471,221.946 294.000,219.500" stroke-width="6.750" stroke="rgb(33,33,33)" fill="none" stroke-linecap="round"></path><path d="M 294.000,219.500 C 248.471,216.446 248.420,216.797 203.000,212.500" stroke-width="6.750" stroke="rgb(33,33,33)" fill="none" stroke-linecap="round"></path><path d="M 203.000,212.500 C 174.420,209.797 174.505,208.955 146.000,205.500" stroke-width="6.750" stroke="rgb(33,33,33)" fill="none" stroke-linecap="round"></path></svg>