<svg xmlns="http://www.w3.org/2000/svg" xmlns:xlink="http://www.w3.org/1999/xlink" viewBox="0 0 320 500"><path d="M 65.000,384.500 C 66.000,378.500 66.451,378.537 67.000,372.500" stroke-width="19.273" stroke="rgb(33,33,33)" fill="none" stroke-linecap="round"></path><path d="M 67.000,372.500 C 67.451,367.537 67.227,367.491 67.000,362.500" stroke-width="17.112" stroke="rgb(33,33,33)" fill="none" stroke-linecap="round"></path><path d="M 67.000,362.500 C 66.727,356.491 66.500,356.500 66.000,350.500" stroke-width="15.717" stroke="rgb(33,33,33)" fill="none" stroke-linecap="round"></path><path d="M 66.000,350.500 C 65.500,344.500 65.200,344.512 65.000,338.500" stroke-width="14.840" stroke="rgb(33,33,33)" fill="none" stroke-linecap="round"></path><path d="M 65.000,338.500 C 64.700,329.512 65.000,329.500 65.000,320.500" stroke-width="13.221" stroke="rgb(33,33,33)" fill="none" stroke-linecap="round"></path><path d="M 65.000,320.500 C 65.000,312.500 65.000,312.500 65.000,304.500" stroke-width="12.632" stroke="rgb(33,33,33)" fill="none" stroke-linecap="round"></path><path d="M 65.000,304.500 C 65.000,298.500 65.000,298.500 65.000,292.500" stroke-width="12.405" stroke="rgb(33,33,33)" fill="none" stroke-linecap="round"></path><path d="M 65.000,292.500 C 65.000,286.500 65.000,286.500 65.000,280.500" stroke-width="12.294" stroke="rgb(33,33,33)" fill="none" stroke-linecap="round"></path><path d="M 65.000,280.500 C 65.000,274.500 65.000,274.500 65.000,268.500" stroke-width="12.142" stroke="rgb(33,33,33)" fill="none" stroke-linecap="round"></path><path d="M 65.000,268.500 C 65.000,262.500 65.000,262.500 65.000,256.500" stroke-width="12.144" stroke="rgb(33,33,33)" fill="none" stroke-linecap="round"></path><path d="M 65.000,256.500 C 65.000,250.500 65.260,250.488 65.000,244.500" stroke-width="11.954" stroke="rgb(33,33,33)" fill="none" stroke-linecap="round"></path><path d="M 65.000,244.500 C 64.760,238.988 64.745,238.967 64.000,233.500" stroke-width="12.068" stroke="rgb(33,33,33)" fill="none" stroke-linecap="round"></path><path d="M 64.000,233.500 C 63.245,227.967 63.096,227.981 62.000,222.500" stroke-width="11.897" stroke="rgb(33,33,33)" fill="none" stroke-linecap="round"></path><path d="M 62.000,222.500 C 61.096,217.981 60.800,218.035 60.000,213.500" stroke-width="12.244" stroke="rgb(33,33,33)" fill="none" stroke-linecap="round"></path><path d="M 60.000,213.500 C 59.300,209.535 59.613,209.482 59.000,205.500" stroke-width="12.419" stroke="rgb(33,33,33)" fill="none" stroke-linecap="round"></path><path d="M 59.000,205.500 C 58.613,202.982 58.553,202.988 58.000,200.500" stroke-width="12.913" stroke="rgb(33,33,33)" fill="none" stroke-linecap="round"></path><path d="M 58.000,200.500 C 57.553,198.488 57.337,198.520 57.000,196.500" stroke-width="13.497" stroke="rgb(33,33,33)" fill="none" stroke-linecap="round"></path><path d="M 57.000,196.500 C 56.837,195.520 57.293,195.379 57.000,194.500" stroke-width="14.208" stroke="rgb(33,33,33)" fill="none" stroke-linecap="round"></path><path d="M 57.000,194.500 C 56.793,193.879 56.586,193.793 56.000,193.500" stroke-width="14.943" stroke="rgb(33,33,33)" fill="none" stroke-linecap="round"></path><path d="M 56.000,193.500 C 55.586,193.293 55.250,193.750 55.000,193.500" stroke-width="15.740" stroke="rgb(33,33,33)" fill="none" stroke-linecap="round"></path><path d="M 55.000,193.500 C 54.750,193.250 55.000,193.000 55.000,192.500" stroke-width="16.326" stroke="rgb(33,33,33)" fill="none" stroke-linecap="round"></path><path d="M 55.000,192.500 C 55.000,192.000 55.250,191.750 55.000,191.500" stroke-width="16.940" stroke="rgb(33,33,33)" fill="none" stroke-linecap="round"></path></svg>