<svg xmlns="http://www.w3.org/2000/svg" xmlns:xlink="http://www.w3.org/1999/xlink" viewBox="0 0 800 500"><path d="M 358.000,97.000 C 358.000,104.500 358.000,104.500 358.000,112.000" stroke-width="17.053" stroke="rgb(33,33,33)" fill="none" stroke-linecap="round"></path><path d="M 358.000,112.000 C 358.000,122.000 358.746,122.056 358.000,132.000" stroke-width="13.892" stroke="rgb(33,33,33)" fill="none" stroke-linecap="round"></path><path d="M 358.000,132.000 C 357.246,142.056 356.459,141.994 355.000,152.000" stroke-width="12.624" stroke="rgb(33,33,33)" fill="none" stroke-linecap="round"></path><path d="M 355.000,152.000 C 352.959,165.994 353.205,166.032 351.000,180.000" stroke-width="11.025" stroke="rgb(33,33,33)" fill="none" stroke-linecap="round"></path><path d="M 351.000,180.000 C 348.705,194.532 348.500,194.500 346.000,209.000" stroke-width="10.046" stroke="rgb(33,33,33)" fill="none" stroke-linecap="round"></path><path d="M 346.000,209.000 C 343.500,223.500 343.728,223.543 341.000,238.000" stroke-width="9.287" stroke="rgb(33,33,33)" fill="none" stroke-linecap="round"></path><path d="M 341.000,238.000 C 338.728,250.043 338.755,250.061 336.000,262.000" stroke-width="9.070" stroke="rgb(33,33,33)" fill="none" stroke-linecap="round"></path><path d="M 336.000,262.000 C 334.255,269.561 334.093,269.526 332.000,277.000" stroke-width="9.233" stroke="rgb(33,33,33)" fill="none" stroke-linecap="round"></path><path d="M 332.000,277.000 C 330.593,282.026 330.750,282.099 329.000,287.000" stroke-width="9.748" stroke="rgb(33,33,33)" fill="none" stroke-linecap="round"></path><path d="M 329.000,287.000 C 328.250,289.099 328.140,289.101 327.000,291.000" stroke-width="10.515" stroke="rgb(33,33,33)" fill="none" stroke-linecap="round"></path><path d="M 327.000,291.000 C 326.640,291.601 326.123,292.555 326.000,292.000" stroke-width="11.524" stroke="rgb(33,33,33)" fill="none" stroke-linecap="round"></path><path d="M 326.000,292.000 C 325.123,288.055 325.346,287.012 325.000,282.000" stroke-width="11.639" stroke="rgb(33,33,33)" fill="none" stroke-linecap="round"></path><path d="M 325.000,282.000 C 324.346,272.512 324.221,272.507 324.000,263.000" stroke-width="11.299" stroke="rgb(33,33,33)" fill="none" stroke-linecap="round"></path><path d="M 324.000,263.000 C 323.721,251.007 323.511,250.980 324.000,239.000" stroke-width="10.365" stroke="rgb(33,33,33)" fill="none" stroke-linecap="round"></path><path d="M 324.000,239.000 C 324.511,226.480 323.902,226.287 326.000,214.000" stroke-width="9.655" stroke="rgb(33,33,33)" fill="none" stroke-linecap="round"></path><path d="M 326.000,214.000 C 327.402,205.787 327.487,205.527 331.000,198.000" stroke-width="9.900" stroke="rgb(33,33,33)" fill="none" stroke-linecap="round"></path><path d="M 331.000,198.000 C 334.487,190.527 334.606,190.203 340.000,184.000" stroke-width="9.838" stroke="rgb(33,33,33)" fill="none" stroke-linecap="round"></path><path d="M 340.000,184.000 C 344.606,178.703 345.184,179.046 351.000,175.000" stroke-width="10.102" stroke="rgb(33,33,33)" fill="none" stroke-linecap="round"></path><path d="M 351.000,175.000 C 356.684,171.046 357.096,171.655 363.000,168.000" stroke-width="10.038" stroke="rgb(33,33,33)" fill="none" stroke-linecap="round"></path><path d="M 363.000,168.000 C 367.596,165.155 367.583,165.118 372.000,162.000" stroke-width="10.504" stroke="rgb(33,33,33)" fill="none" stroke-linecap="round"></path><path d="M 372.000,162.000 C 376.083,159.118 376.370,159.403 380.000,156.000" stroke-width="10.797" stroke="rgb(33,33,33)" fill="none" stroke-linecap="round"></path><path d="M 380.000,156.000 C 384.370,151.903 384.739,152.000 388.000,147.000" stroke-width="10.940" stroke="rgb(33,33,33)" fill="none" stroke-linecap="round"></path><path d="M 388.000,147.000 C 392.239,140.500 392.103,140.243 395.000,133.000" stroke-width="10.429" stroke="rgb(33,33,33)" fill="none" stroke-linecap="round"></path><path d="M 395.000,133.000 C 398.103,125.243 397.970,125.120 400.000,117.000" stroke-width="10.244" stroke="rgb(33,33,33)" fill="none" stroke-linecap="round"></path><path d="M 400.000,117.000 C 402.470,107.120 402.199,107.036 404.000,97.000" stroke-width="9.862" stroke="rgb(33,33,33)" fill="none" stroke-linecap="round"></path><path d="M 404.000,97.000 C 405.699,87.536 405.419,87.486 407.000,78.000" stroke-width="9.721" stroke="rgb(33,33,33)" fill="none" stroke-linecap="round"></path><path d="M 407.000,78.000 C 407.919,72.486 408.417,72.538 409.000,67.000" stroke-width="10.172" stroke="rgb(33,33,33)" fill="none" stroke-linecap="round"></path><path d="M 409.000,67.000 C 409.417,63.038 409.000,63.000 409.000,59.000" stroke-width="10.700" stroke="rgb(33,33,33)" fill="none" stroke-linecap="round"></path><path d="M 409.000,59.000 C 409.000,57.000 409.000,57.000 409.000,55.000" stroke-width="11.498" stroke="rgb(33,33,33)" fill="none" stroke-linecap="round"></path><path d="M 409.000,55.000 C 409.000,54.000 409.704,53.141 409.000,53.000" stroke-width="12.381" stroke="rgb(33,33,33)" fill="none" stroke-linecap="round"></path><path d="M 409.000,53.000 C 407.204,52.641 405.687,52.313 404.000,54.000" stroke-width="12.845" stroke="rgb(33,33,33)" fill="none" stroke-linecap="round"></path><path d="M 404.000,54.000 C 399.687,58.313 399.471,59.069 397.000,65.000" stroke-width="12.468" stroke="rgb(33,33,33)" fill="none" stroke-linecap="round"></path><path d="M 397.000,65.000 C 394.471,71.069 394.619,71.400 394.000,78.000" stroke-width="12.226" stroke="rgb(33,33,33)" fill="none" stroke-linecap="round"></path><path d="M 394.000,78.000 C 393.119,87.400 394.000,87.500 394.000,97.000" stroke-width="11.387" stroke="rgb(33,33,33)" fill="none" stroke-linecap="round"></path><path d="M 394.000,97.000 C 394.000,107.000 394.000,107.000 394.000,117.000" stroke-width="10.813" stroke="rgb(33,33,33)" fill="none" stroke-linecap="round"></path><path d="M 394.000,117.000 C 394.000,127.000 394.000,127.000 394.000,137.000" stroke-width="10.545" stroke="rgb(33,33,33)" fill="none" stroke-linecap="round"></path><path d="M 394.000,137.000 C 394.000,149.000 394.000,149.000 394.000,161.000" stroke-width="9.740" stroke="rgb(33,33,33)" fill="none" stroke-linecap="round"></path><path d="M 394.000,161.000 C 394.000,173.500 394.000,173.500 394.000,186.000" stroke-width="9.458" stroke="rgb(33,33,33)" fill="none" stroke-linecap="round"></path><path d="M 394.000,186.000 C 394.000,196.000 394.285,196.010 394.000,206.000" stroke-width="9.210" stroke="rgb(33,33,33)" fill="none" stroke-linecap="round"></path><path d="M 394.000,206.000 C 393.785,213.510 393.576,213.506 393.000,221.000" stroke-width="9.601" stroke="rgb(33,33,33)" fill="none" stroke-linecap="round"></path><path d="M 393.000,221.000 C 392.576,226.506 392.550,226.505 392.000,232.000" stroke-width="9.776" stroke="rgb(33,33,33)" fill="none" stroke-linecap="round"></path><path d="M 392.000,232.000 C 391.550,236.505 391.301,236.489 391.000,241.000" stroke-width="10.397" stroke="rgb(33,33,33)" fill="none" stroke-linecap="round"></path><path d="M 391.000,241.000 C 390.801,243.989 390.704,244.036 391.000,247.000" stroke-width="10.943" stroke="rgb(33,33,33)" fill="none" stroke-linecap="round"></path><path d="M 391.000,247.000 C 391.204,249.036 391.200,249.133 392.000,251.000" stroke-width="11.762" stroke="rgb(33,33,33)" fill="none" stroke-linecap="round"></path><path d="M 392.000,251.000 C 392.700,252.633 393.217,252.434 394.000,254.000" stroke-width="12.402" stroke="rgb(33,33,33)" fill="none" stroke-linecap="round"></path><path d="M 394.000,254.000 C 394.217,254.434 393.691,254.691 394.000,255.000" stroke-width="13.351" stroke="rgb(33,33,33)" fill="none" stroke-linecap="round"></path><path d="M 394.000,255.000 C 394.691,255.691 395.309,255.309 396.000,256.000" stroke-width="14.011" stroke="rgb(33,33,33)" fill="none" stroke-linecap="round"></path><path d="M 396.000,256.000 C 396.309,256.309 396.000,256.500 396.000,257.000" stroke-width="14.794" stroke="rgb(33,33,33)" fill="none" stroke-linecap="round"></path><path d="M 396.000,257.000 C 396.000,257.500 395.750,257.750 396.000,258.000" stroke-width="15.624" stroke="rgb(33,33,33)" fill="none" stroke-linecap="round"></path><path d="M 396.000,258.000 C 396.250,258.250 396.859,258.424 397.000,258.000" stroke-width="16.339" stroke="rgb(33,33,33)" fill="none" stroke-linecap="round"></path><path d="M 397.000,258.000 C 397.859,255.424 397.607,255.015 398.000,252.000" stroke-width="16.732" stroke="rgb(33,33,33)" fill="none" stroke-linecap="round"></path><path d="M 398.000,252.000 C 399.107,243.515 398.325,243.373 400.000,235.000" stroke-width="15.018" stroke="rgb(33,33,33)" fill="none" stroke-linecap="round"></path><path d="M 400.000,235.000 C 402.325,223.373 402.893,223.471 406.000,212.000" stroke-width="13.633" stroke="rgb(33,33,33)" fill="none" stroke-linecap="round"></path><path d="M 406.000,212.000 C 409.393,199.471 409.295,199.439 413.000,187.000" stroke-width="8.985" stroke="rgb(33,33,33)" fill="none" stroke-linecap="round"></path><path d="M 413.000,187.000 C 416.295,175.939 415.584,175.598 420.000,165.000" stroke-width="8.962" stroke="rgb(33,33,33)" fill="none" stroke-linecap="round"></path><path d="M 420.000,165.000 C 423.084,157.598 423.480,157.629 428.000,151.000" stroke-width="8.896" stroke="rgb(33,33,33)" fill="none" stroke-linecap="round"></path><path d="M 428.000,151.000 C 430.980,146.629 431.019,146.412 435.000,143.000" stroke-width="9.494" stroke="rgb(33,33,33)" fill="none" stroke-linecap="round"></path><path d="M 435.000,143.000 C 438.019,140.412 438.297,140.234 442.000,139.000" stroke-width="10.089" stroke="rgb(33,33,33)" fill="none" stroke-linecap="round"></path><path d="M 442.000,139.000 C 444.297,138.234 444.889,138.062 447.000,139.000" stroke-width="10.815" stroke="rgb(33,33,33)" fill="none" stroke-linecap="round"></path><path d="M 447.000,139.000 C 449.389,140.062 449.930,140.502 451.000,143.000" stroke-width="11.450" stroke="rgb(33,33,33)" fill="none" stroke-linecap="round"></path><path d="M 451.000,143.000 C 452.930,147.502 452.519,147.949 453.000,153.000" stroke-width="11.502" stroke="rgb(33,33,33)" fill="none" stroke-linecap="round"></path><path d="M 453.000,153.000 C 453.519,158.449 453.000,158.500 453.000,164.000" stroke-width="11.701" stroke="rgb(33,33,33)" fill="none" stroke-linecap="round"></path><path d="M 453.000,164.000 C 453.000,168.500 453.000,168.500 453.000,173.000" stroke-width="11.880" stroke="rgb(33,33,33)" fill="none" stroke-linecap="round"></path><path d="M 453.000,173.000 C 453.000,175.500 453.000,175.500 453.000,178.000" stroke-width="12.481" stroke="rgb(33,33,33)" fill="none" stroke-linecap="round"></path><path d="M 453.000,178.000 C 453.000,179.000 453.000,179.000 453.000,180.000" stroke-width="13.282" stroke="rgb(33,33,33)" fill="none" stroke-linecap="round"></path><path d="M 453.000,180.000 C 453.000,180.500 452.625,180.875 453.000,181.000" stroke-width="14.146" stroke="rgb(33,33,33)" fill="none" stroke-linecap="round"></path><path d="M 453.000,181.000 C 454.125,181.375 454.595,181.401 456.000,181.000" stroke-width="14.669" stroke="rgb(33,33,33)" fill="none" stroke-linecap="round"></path><path d="M 456.000,181.000 C 458.095,180.401 458.362,180.456 460.000,179.000" stroke-width="14.800" stroke="rgb(33,33,33)" fill="none" stroke-linecap="round"></path><path d="M 460.000,179.000 C 462.862,176.456 462.376,175.887 465.000,173.000" stroke-width="14.545" stroke="rgb(33,33,33)" fill="none" stroke-linecap="round"></path><path d="M 465.000,173.000 C 467.376,170.387 467.500,170.500 470.000,168.000" stroke-width="14.544" stroke="rgb(33,33,33)" fill="none" stroke-linecap="round"></path><path d="M 470.000,168.000 C 471.500,166.500 471.393,166.377 473.000,165.000" stroke-width="14.776" stroke="rgb(33,33,33)" fill="none" stroke-linecap="round"></path><path d="M 473.000,165.000 C 474.893,163.377 474.927,163.382 477.000,162.000" stroke-width="14.979" stroke="rgb(33,33,33)" fill="none" stroke-linecap="round"></path><path d="M 477.000,162.000 C 477.927,161.382 477.932,161.214 479.000,161.000" stroke-width="15.388" stroke="rgb(33,33,33)" fill="none" stroke-linecap="round"></path><path d="M 479.000,161.000 C 480.432,160.714 480.500,161.000 482.000,161.000" stroke-width="15.786" stroke="rgb(33,33,33)" fill="none" stroke-linecap="round"></path><path d="M 482.000,161.000 C 483.500,161.000 483.526,160.789 485.000,161.000" stroke-width="15.915" stroke="rgb(33,33,33)" fill="none" stroke-linecap="round"></path><path d="M 485.000,161.000 C 487.026,161.289 486.961,161.815 489.000,162.000" stroke-width="16.108" stroke="rgb(33,33,33)" fill="none" stroke-linecap="round"></path><path d="M 489.000,162.000 C 492.461,162.315 492.500,162.000 496.000,162.000" stroke-width="15.313" stroke="rgb(33,33,33)" fill="none" stroke-linecap="round"></path><path d="M 496.000,162.000 C 501.000,162.000 501.221,163.147 506.000,162.000" stroke-width="14.913" stroke="rgb(33,33,33)" fill="none" stroke-linecap="round"></path><path d="M 506.000,162.000 C 513.721,160.147 513.946,159.848 521.000,156.000" stroke-width="13.484" stroke="rgb(33,33,33)" fill="none" stroke-linecap="round"></path><path d="M 521.000,156.000 C 530.446,150.848 530.041,150.061 539.000,144.000" stroke-width="11.283" stroke="rgb(33,33,33)" fill="none" stroke-linecap="round"></path><path d="M 539.000,144.000 C 547.041,138.561 546.633,137.858 555.000,133.000" stroke-width="11.122" stroke="rgb(33,33,33)" fill="none" stroke-linecap="round"></path><path d="M 555.000,133.000 C 562.133,128.858 562.458,129.406 570.000,126.000" stroke-width="10.188" stroke="rgb(33,33,33)" fill="none" stroke-linecap="round"></path><path d="M 570.000,126.000 C 577.958,122.406 577.794,121.912 586.000,119.000" stroke-width="10.391" stroke="rgb(33,33,33)" fill="none" stroke-linecap="round"></path><path d="M 586.000,119.000 C 593.294,116.412 593.561,117.204 601.000,115.000" stroke-width="9.920" stroke="rgb(33,33,33)" fill="none" stroke-linecap="round"></path><path d="M 601.000,115.000 C 607.061,113.204 606.927,112.735 613.000,111.000" stroke-width="10.218" stroke="rgb(33,33,33)" fill="none" stroke-linecap="round"></path><path d="M 613.000,111.000 C 617.427,109.735 617.513,110.056 622.000,109.000" stroke-width="10.562" stroke="rgb(33,33,33)" fill="none" stroke-linecap="round"></path><path d="M 622.000,109.000 C 626.013,108.056 625.948,107.579 630.000,107.000" stroke-width="11.093" stroke="rgb(33,33,33)" fill="none" stroke-linecap="round"></path><path d="M 630.000,107.000 C 632.948,106.579 633.000,107.000 636.000,107.000" stroke-width="11.636" stroke="rgb(33,33,33)" fill="none" stroke-linecap="round"></path><path d="M 636.000,107.000 C 637.500,107.000 637.500,107.000 639.000,107.000" stroke-width="12.425" stroke="rgb(33,33,33)" fill="none" stroke-linecap="round"></path><path d="M 639.000,107.000 C 640.000,107.000 640.000,107.000 641.000,107.000" stroke-width="13.258" stroke="rgb(33,33,33)" fill="none" stroke-linecap="round"></path><path d="M 641.000,107.000 C 641.500,107.000 641.750,107.250 642.000,107.000" stroke-width="14.180" stroke="rgb(33,33,33)" fill="none" stroke-linecap="round"></path><path d="M 642.000,107.000 C 642.250,106.750 642.000,106.500 642.000,106.000" stroke-width="15.012" stroke="rgb(33,33,33)" fill="none" stroke-linecap="round"></path><path d="M 642.000,106.000 C 642.000,105.500 641.793,105.414 642.000,105.000" stroke-width="15.779" stroke="rgb(33,33,33)" fill="none" stroke-linecap="round"></path><path d="M 642.000,105.000 C 642.293,104.414 642.414,104.293 643.000,104.000" stroke-width="16.449" stroke="rgb(33,33,33)" fill="none" stroke-linecap="round"></path><path d="M 643.000,104.000 C 643.414,103.793 643.750,104.250 644.000,104.000" stroke-width="16.948" stroke="rgb(33,33,33)" fill="none" stroke-linecap="round"></path><path d="M 644.000,104.000 C 644.250,103.750 643.750,103.250 644.000,103.000" stroke-width="17.415" stroke="rgb(33,33,33)" fill="none" stroke-linecap="round"></path></svg>