<svg xmlns="http://www.w3.org/2000/svg" xmlns:xlink="http://www.w3.org/1999/xlink" viewBox="0 0 800 500"><path d="M 192.500,136.500 C 193.000,136.500 193.086,136.293 193.500,136.500" stroke-width="20.207" stroke="rgb(33,33,33)" fill="none" stroke-linecap="round"></path><path d="M 193.500,136.500 C 194.086,136.793 193.914,137.207 194.500,137.500" stroke-width="19.980" stroke="rgb(33,33,33)" fill="none" stroke-linecap="round"></path><path d="M 194.500,137.500 C 194.914,137.707 195.250,137.250 195.500,137.500" stroke-width="19.483" stroke="rgb(33,33,33)" fill="none" stroke-linecap="round"></path><path d="M 195.500,137.500 C 195.750,137.750 195.250,138.250 195.500,138.500" stroke-width="19.167" stroke="rgb(33,33,33)" fill="none" stroke-linecap="round"></path><path d="M 195.500,138.500 C 195.750,138.750 196.250,138.250 196.500,138.500" stroke-width="18.922" stroke="rgb(33,33,33)" fill="none" stroke-linecap="round"></path><path d="M 196.500,138.500 C 196.750,138.750 196.250,139.250 196.500,139.500" stroke-width="18.817" stroke="rgb(33,33,33)" fill="none" stroke-linecap="round"></path><path d="M 196.500,139.500 C 196.750,139.750 197.191,139.191 197.500,139.500" stroke-width="18.506" stroke="rgb(33,33,33)" fill="none" stroke-linecap="round"></path><path d="M 197.500,139.500 C 198.191,140.191 197.887,140.581 198.500,141.500" stroke-width="18.603" stroke="rgb(33,33,33)" fill="none" stroke-linecap="round"></path><path d="M 198.500,141.500 C 198.887,142.081 199.000,142.000 199.500,142.500" stroke-width="18.467" stroke="rgb(33,33,33)" fill="none" stroke-linecap="round"></path><path d="M 199.500,142.500 C 200.000,143.000 200.000,143.000 200.500,143.500" stroke-width="18.494" stroke="rgb(33,33,33)" fill="none" stroke-linecap="round"></path><path d="M 200.500,143.500 C 201.000,144.000 201.207,143.914 201.500,144.500" stroke-width="18.534" stroke="rgb(33,33,33)" fill="none" stroke-linecap="round"></path><path d="M 201.500,144.500 C 201.707,144.914 201.345,145.036 201.500,145.500" stroke-width="18.425" stroke="rgb(33,33,33)" fill="none" stroke-linecap="round"></path><path d="M 201.500,145.500 C 201.845,146.536 201.750,146.750 202.500,147.500" stroke-width="17.714" stroke="rgb(33,33,33)" fill="none" stroke-linecap="round"></path><path d="M 202.500,147.500 C 203.250,148.250 203.581,147.887 204.500,148.500" stroke-width="17.302" stroke="rgb(33,33,33)" fill="none" stroke-linecap="round"></path><path d="M 204.500,148.500 C 205.081,148.887 205.140,148.899 205.500,149.500" stroke-width="17.283" stroke="rgb(33,33,33)" fill="none" stroke-linecap="round"></path><path d="M 205.500,149.500 C 206.640,151.399 206.621,151.450 207.500,153.500" stroke-width="16.211" stroke="rgb(33,33,33)" fill="none" stroke-linecap="round"></path><path d="M 207.500,153.500 C 208.121,154.950 207.809,155.118 208.500,156.500" stroke-width="15.840" stroke="rgb(33,33,33)" fill="none" stroke-linecap="round"></path><path d="M 208.500,156.500 C 208.809,157.118 209.191,156.882 209.500,157.500" stroke-width="16.032" stroke="rgb(33,33,33)" fill="none" stroke-linecap="round"></path><path d="M 209.500,157.500 C 210.191,158.882 209.708,159.180 210.500,160.500" stroke-width="15.703" stroke="rgb(33,33,33)" fill="none" stroke-linecap="round"></path><path d="M 210.500,160.500 C 211.208,161.680 211.792,161.320 212.500,162.500" stroke-width="15.549" stroke="rgb(33,33,33)" fill="none" stroke-linecap="round"></path><path d="M 212.500,162.500 C 213.292,163.820 213.243,163.960 213.500,165.500" stroke-width="15.330" stroke="rgb(33,33,33)" fill="none" stroke-linecap="round"></path><path d="M 213.500,165.500 C 213.743,166.960 213.214,167.068 213.500,168.500" stroke-width="15.084" stroke="rgb(33,33,33)" fill="none" stroke-linecap="round"></path><path d="M 213.500,168.500 C 213.714,169.568 214.286,169.432 214.500,170.500" stroke-width="15.227" stroke="rgb(33,33,33)" fill="none" stroke-linecap="round"></path><path d="M 214.500,170.500 C 214.786,171.932 214.257,172.040 214.500,173.500" stroke-width="15.124" stroke="rgb(33,33,33)" fill="none" stroke-linecap="round"></path><path d="M 214.500,173.500 C 214.757,175.040 214.914,175.036 215.500,176.500" stroke-width="14.998" stroke="rgb(33,33,33)" fill="none" stroke-linecap="round"></path><path d="M 215.500,176.500 C 215.914,177.536 216.155,177.464 216.500,178.500" stroke-width="15.157" stroke="rgb(33,33,33)" fill="none" stroke-linecap="round"></path><path d="M 216.500,178.500 C 216.655,178.964 216.500,179.000 216.500,179.500" stroke-width="15.651" stroke="rgb(33,33,33)" fill="none" stroke-linecap="round"></path><path d="M 216.500,179.500 C 216.500,181.000 216.500,181.000 216.500,182.500" stroke-width="15.556" stroke="rgb(33,33,33)" fill="none" stroke-linecap="round"></path><path d="M 216.500,182.500 C 216.500,183.000 216.500,183.000 216.500,183.500" stroke-width="15.886" stroke="rgb(33,33,33)" fill="none" stroke-linecap="round"></path><path d="M 216.500,183.500 C 216.500,184.000 216.500,184.000 216.500,184.500" stroke-width="16.268" stroke="rgb(33,33,33)" fill="none" stroke-linecap="round"></path><path d="M 216.500,184.500 C 216.500,185.000 216.500,185.000 216.500,185.500" stroke-width="16.587" stroke="rgb(33,33,33)" fill="none" stroke-linecap="round"></path><path d="M 216.500,185.500 C 216.500,186.000 216.500,186.000 216.500,186.500" stroke-width="16.852" stroke="rgb(33,33,33)" fill="none" stroke-linecap="round"></path><path d="M 216.500,186.500 C 216.500,187.000 216.500,187.000 216.500,187.500" stroke-width="17.239" stroke="rgb(33,33,33)" fill="none" stroke-linecap="round"></path><path d="M 216.500,187.500 C 216.500,188.000 216.500,188.000 216.500,188.500" stroke-width="17.638" stroke="rgb(33,33,33)" fill="none" stroke-linecap="round"></path><path d="M 216.500,188.500 C 216.500,189.000 216.500,189.000 216.500,189.500" stroke-width="17.877" stroke="rgb(33,33,33)" fill="none" stroke-linecap="round"></path><path d="M 216.500,189.500 C 216.500,190.000 216.500,190.000 216.500,190.500" stroke-width="18.102" stroke="rgb(33,33,33)" fill="none" stroke-linecap="round"></path><path d="M 216.500,190.500 C 216.500,191.500 216.500,191.500 216.500,192.500" stroke-width="17.686" stroke="rgb(33,33,33)" fill="none" stroke-linecap="round"></path><path d="M 216.500,192.500 C 216.500,193.000 216.500,193.000 216.500,193.500" stroke-width="17.748" stroke="rgb(33,33,33)" fill="none" stroke-linecap="round"></path><path d="M 216.500,193.500 C 216.500,194.000 216.500,194.000 216.500,194.500" stroke-width="17.798" stroke="rgb(33,33,33)" fill="none" stroke-linecap="round"></path><path d="M 216.500,194.500 C 216.500,195.000 216.500,195.000 216.500,195.500" stroke-width="17.882" stroke="rgb(33,33,33)" fill="none" stroke-linecap="round"></path><path d="M 216.500,195.500 C 216.500,196.000 216.707,196.086 216.500,196.500" stroke-width="17.849" stroke="rgb(33,33,33)" fill="none" stroke-linecap="round"></path><path d="M 216.500,196.500 C 216.207,197.086 215.707,196.879 215.500,197.500" stroke-width="17.717" stroke="rgb(33,33,33)" fill="none" stroke-linecap="round"></path><path d="M 215.500,197.500 C 215.207,198.379 215.500,198.500 215.500,199.500" stroke-width="17.391" stroke="rgb(33,33,33)" fill="none" stroke-linecap="round"></path><path d="M 215.500,199.500 C 215.500,200.000 215.500,200.000 215.500,200.500" stroke-width="17.673" stroke="rgb(33,33,33)" fill="none" stroke-linecap="round"></path><path d="M 215.500,200.500 C 215.500,201.500 215.793,201.621 215.500,202.500" stroke-width="17.441" stroke="rgb(33,33,33)" fill="none" stroke-linecap="round"></path><path d="M 215.500,202.500 C 215.293,203.121 214.793,202.914 214.500,203.500" stroke-width="17.394" stroke="rgb(33,33,33)" fill="none" stroke-linecap="round"></path><path d="M 214.500,203.500 C 214.293,203.914 214.500,204.000 214.500,204.500" stroke-width="17.512" stroke="rgb(33,33,33)" fill="none" stroke-linecap="round"></path><path d="M 214.500,204.500 C 214.500,205.000 214.500,205.000 214.500,205.500" stroke-width="17.607" stroke="rgb(33,33,33)" fill="none" stroke-linecap="round"></path><path d="M 214.500,205.500 C 214.500,206.500 214.500,206.500 214.500,207.500" stroke-width="17.684" stroke="rgb(33,33,33)" fill="none" stroke-linecap="round"></path><path d="M 214.500,207.500 C 214.500,208.500 214.500,208.500 214.500,209.500" stroke-width="17.260" stroke="rgb(33,33,33)" fill="none" stroke-linecap="round"></path><path d="M 214.500,209.500 C 214.500,210.500 214.500,210.500 214.500,211.500" stroke-width="17.037" stroke="rgb(33,33,33)" fill="none" stroke-linecap="round"></path><path d="M 214.500,211.500 C 214.500,212.000 214.500,212.000 214.500,212.500" stroke-width="17.222" stroke="rgb(33,33,33)" fill="none" stroke-linecap="round"></path><path d="M 214.500,212.500 C 214.500,213.000 214.500,213.000 214.500,213.500" stroke-width="17.413" stroke="rgb(33,33,33)" fill="none" stroke-linecap="round"></path><path d="M 214.500,213.500 C 214.500,214.500 214.500,214.500 214.500,215.500" stroke-width="16.917" stroke="rgb(33,33,33)" fill="none" stroke-linecap="round"></path><path d="M 214.500,215.500 C 214.500,216.500 214.500,216.500 214.500,217.500" stroke-width="16.769" stroke="rgb(33,33,33)" fill="none" stroke-linecap="round"></path><path d="M 214.500,217.500 C 214.500,218.500 214.500,218.500 214.500,219.500" stroke-width="16.652" stroke="rgb(33,33,33)" fill="none" stroke-linecap="round"></path><path d="M 214.500,219.500 C 214.500,221.000 214.500,221.000 214.500,222.500" stroke-width="16.228" stroke="rgb(33,33,33)" fill="none" stroke-linecap="round"></path><path d="M 214.500,222.500 C 214.500,224.000 214.743,224.040 214.500,225.500" stroke-width="15.904" stroke="rgb(33,33,33)" fill="none" stroke-linecap="round"></path><path d="M 214.500,225.500 C 214.243,227.040 213.757,226.960 213.500,228.500" stroke-width="15.470" stroke="rgb(33,33,33)" fill="none" stroke-linecap="round"></path><path d="M 213.500,228.500 C 213.257,229.960 213.500,230.000 213.500,231.500" stroke-width="15.316" stroke="rgb(33,33,33)" fill="none" stroke-linecap="round"></path><path d="M 213.500,231.500 C 213.500,232.500 213.500,232.500 213.500,233.500" stroke-width="15.485" stroke="rgb(33,33,33)" fill="none" stroke-linecap="round"></path><path d="M 213.500,233.500 C 213.500,236.000 213.500,236.000 213.500,238.500" stroke-width="14.768" stroke="rgb(33,33,33)" fill="none" stroke-linecap="round"></path><path d="M 213.500,238.500 C 213.500,239.500 213.500,239.500 213.500,240.500" stroke-width="15.034" stroke="rgb(33,33,33)" fill="none" stroke-linecap="round"></path><path d="M 213.500,240.500 C 213.500,242.000 213.500,242.000 213.500,243.500" stroke-width="14.854" stroke="rgb(33,33,33)" fill="none" stroke-linecap="round"></path><path d="M 213.500,243.500 C 213.500,245.500 213.500,245.500 213.500,247.500" stroke-width="14.562" stroke="rgb(33,33,33)" fill="none" stroke-linecap="round"></path><path d="M 213.500,247.500 C 213.500,249.500 213.500,249.500 213.500,251.500" stroke-width="14.450" stroke="rgb(33,33,33)" fill="none" stroke-linecap="round"></path><path d="M 213.500,251.500 C 213.500,253.500 213.500,253.500 213.500,255.500" stroke-width="14.108" stroke="rgb(33,33,33)" fill="none" stroke-linecap="round"></path><path d="M 213.500,255.500 C 213.500,257.000 213.500,257.000 213.500,258.500" stroke-width="14.379" stroke="rgb(33,33,33)" fill="none" stroke-linecap="round"></path><path d="M 213.500,258.500 C 213.500,259.500 213.500,259.500 213.500,260.500" stroke-width="14.534" stroke="rgb(33,33,33)" fill="none" stroke-linecap="round"></path><path d="M 213.500,260.500 C 213.500,263.500 213.500,263.500 213.500,266.500" stroke-width="13.626" stroke="rgb(33,33,33)" fill="none" stroke-linecap="round"></path><path d="M 213.500,266.500 C 213.500,267.500 213.500,267.500 213.500,268.500" stroke-width="14.074" stroke="rgb(33,33,33)" fill="none" stroke-linecap="round"></path><path d="M 213.500,268.500 C 213.500,270.000 213.500,270.000 213.500,271.500" stroke-width="14.094" stroke="rgb(33,33,33)" fill="none" stroke-linecap="round"></path><path d="M 213.500,271.500 C 213.500,275.000 213.789,275.029 213.500,278.500" stroke-width="13.455" stroke="rgb(33,33,33)" fill="none" stroke-linecap="round"></path><path d="M 213.500,278.500 C 213.289,281.029 213.117,281.031 212.500,283.500" stroke-width="13.223" stroke="rgb(33,33,33)" fill="none" stroke-linecap="round"></path><path d="M 212.500,283.500 C 212.117,285.031 211.721,284.955 211.500,286.500" stroke-width="13.230" stroke="rgb(33,33,33)" fill="none" stroke-linecap="round"></path><path d="M 211.500,286.500 C 211.221,288.455 211.779,288.545 211.500,290.500" stroke-width="13.381" stroke="rgb(33,33,33)" fill="none" stroke-linecap="round"></path><path d="M 211.500,290.500 C 211.279,292.045 211.191,292.118 210.500,293.500" stroke-width="13.491" stroke="rgb(33,33,33)" fill="none" stroke-linecap="round"></path><path d="M 210.500,293.500 C 210.191,294.118 209.660,293.859 209.500,294.500" stroke-width="14.139" stroke="rgb(33,33,33)" fill="none" stroke-linecap="round"></path><path d="M 209.500,294.500 C 209.160,295.859 209.786,296.068 209.500,297.500" stroke-width="14.252" stroke="rgb(33,33,33)" fill="none" stroke-linecap="round"></path><path d="M 209.500,297.500 C 209.286,298.568 208.845,298.464 208.500,299.500" stroke-width="14.542" stroke="rgb(33,33,33)" fill="none" stroke-linecap="round"></path><path d="M 208.500,299.500 C 208.345,299.964 208.707,300.086 208.500,300.500" stroke-width="15.123" stroke="rgb(33,33,33)" fill="none" stroke-linecap="round"></path><path d="M 208.500,300.500 C 208.207,301.086 207.793,300.914 207.500,301.500" stroke-width="15.439" stroke="rgb(33,33,33)" fill="none" stroke-linecap="round"></path><path d="M 207.500,301.500 C 207.293,301.914 207.707,302.086 207.500,302.500" stroke-width="15.954" stroke="rgb(33,33,33)" fill="none" stroke-linecap="round"></path><path d="M 207.500,302.500 C 207.207,303.086 206.793,302.914 206.500,303.500" stroke-width="16.038" stroke="rgb(33,33,33)" fill="none" stroke-linecap="round"></path><path d="M 206.500,303.500 C 206.293,303.914 206.500,304.000 206.500,304.500" stroke-width="16.462" stroke="rgb(33,33,33)" fill="none" stroke-linecap="round"></path><path d="M 206.500,304.500 C 206.500,305.000 206.500,305.000 206.500,305.500" stroke-width="16.883" stroke="rgb(33,33,33)" fill="none" stroke-linecap="round"></path><path d="M 206.500,305.500 C 206.500,306.000 206.750,306.250 206.500,306.500" stroke-width="17.432" stroke="rgb(33,33,33)" fill="none" stroke-linecap="round"></path><path d="M 206.500,306.500 C 206.250,306.750 205.914,306.707 205.500,306.500" stroke-width="17.913" stroke="rgb(33,33,33)" fill="none" stroke-linecap="round"></path><path d="M 205.500,306.500 C 204.914,306.207 205.000,306.000 204.500,305.500" stroke-width="18.134" stroke="rgb(33,33,33)" fill="none" stroke-linecap="round"></path><path d="M 204.500,305.500 C 204.000,305.000 204.086,304.793 203.500,304.500" stroke-width="17.941" stroke="rgb(33,33,33)" fill="none" stroke-linecap="round"></path><path d="M 203.500,304.500 C 203.086,304.293 202.934,304.717 202.500,304.500" stroke-width="17.997" stroke="rgb(33,33,33)" fill="none" stroke-linecap="round"></path><path d="M 202.500,304.500 C 200.934,303.717 200.901,303.621 199.500,302.500" stroke-width="16.831" stroke="rgb(33,33,33)" fill="none" stroke-linecap="round"></path><path d="M 199.500,302.500 C 198.401,301.621 198.721,301.110 197.500,300.500" stroke-width="16.287" stroke="rgb(33,33,33)" fill="none" stroke-linecap="round"></path><path d="M 197.500,300.500 C 195.721,299.610 195.445,300.148 193.500,299.500" stroke-width="15.856" stroke="rgb(33,33,33)" fill="none" stroke-linecap="round"></path><path d="M 193.500,299.500 C 192.445,299.148 192.457,299.074 191.500,298.500" stroke-width="15.622" stroke="rgb(33,33,33)" fill="none" stroke-linecap="round"></path><path d="M 191.500,298.500 C 189.957,297.574 190.200,296.964 188.500,296.500" stroke-width="15.258" stroke="rgb(33,33,33)" fill="none" stroke-linecap="round"></path><path d="M 188.500,296.500 C 184.700,295.464 184.510,295.834 180.500,295.500" stroke-width="13.839" stroke="rgb(33,33,33)" fill="none" stroke-linecap="round"></path><path d="M 180.500,295.500 C 178.510,295.334 178.490,295.666 176.500,295.500" stroke-width="13.770" stroke="rgb(33,33,33)" fill="none" stroke-linecap="round"></path><path d="M 176.500,295.500 C 172.490,295.166 172.474,295.162 168.500,294.500" stroke-width="12.602" stroke="rgb(33,33,33)" fill="none" stroke-linecap="round"></path><path d="M 168.500,294.500 C 163.474,293.662 163.482,293.583 158.500,292.500" stroke-width="11.397" stroke="rgb(33,33,33)" fill="none" stroke-linecap="round"></path><path d="M 158.500,292.500 C 151.982,291.083 152.038,290.808 145.500,289.500" stroke-width="10.358" stroke="rgb(33,33,33)" fill="none" stroke-linecap="round"></path><path d="M 145.500,289.500 C 139.538,288.308 139.335,289.091 133.500,287.500" stroke-width="9.954" stroke="rgb(33,33,33)" fill="none" stroke-linecap="round"></path><path d="M 133.500,287.500 C 128.335,286.091 128.684,284.734 123.500,283.500" stroke-width="9.484" stroke="rgb(33,33,33)" fill="none" stroke-linecap="round"></path><path d="M 123.500,283.500 C 118.184,282.234 117.880,283.576 112.500,282.500" stroke-width="9.271" stroke="rgb(33,33,33)" fill="none" stroke-linecap="round"></path><path d="M 112.500,282.500 C 107.880,281.576 108.078,280.705 103.500,279.500" stroke-width="9.269" stroke="rgb(33,33,33)" fill="none" stroke-linecap="round"></path><path d="M 103.500,279.500 C 98.578,278.205 98.460,278.667 93.500,277.500" stroke-width="9.194" stroke="rgb(33,33,33)" fill="none" stroke-linecap="round"></path><path d="M 93.500,277.500 C 89.960,276.667 90.073,275.976 86.500,275.500" stroke-width="9.444" stroke="rgb(33,33,33)" fill="none" stroke-linecap="round"></path><path d="M 86.500,275.500 C 82.573,274.976 82.476,275.784 78.500,275.500" stroke-width="9.573" stroke="rgb(33,33,33)" fill="none" stroke-linecap="round"></path><path d="M 78.500,275.500 C 75.476,275.284 75.308,275.521 72.500,274.500" stroke-width="9.906" stroke="rgb(33,33,33)" fill="none" stroke-linecap="round"></path><path d="M 72.500,274.500 C 69.808,273.521 70.169,272.390 67.500,271.500" stroke-width="10.115" stroke="rgb(33,33,33)" fill="none" stroke-linecap="round"></path><path d="M 67.500,271.500 C 65.669,270.890 65.389,271.972 63.500,271.500" stroke-width="10.762" stroke="rgb(33,33,33)" fill="none" stroke-linecap="round"></path><path d="M 63.500,271.500 C 61.389,270.972 61.581,270.280 59.500,269.500" stroke-width="10.920" stroke="rgb(33,33,33)" fill="none" stroke-linecap="round"></path><path d="M 59.500,269.500 C 57.581,268.780 57.520,268.837 55.500,268.500" stroke-width="11.335" stroke="rgb(33,33,33)" fill="none" stroke-linecap="round"></path><path d="M 55.500,268.500 C 54.520,268.337 54.470,268.716 53.500,268.500" stroke-width="11.940" stroke="rgb(33,33,33)" fill="none" stroke-linecap="round"></path><path d="M 53.500,268.500 C 49.970,267.716 49.978,267.570 46.500,266.500" stroke-width="11.783" stroke="rgb(33,33,33)" fill="none" stroke-linecap="round"></path><path d="M 46.500,266.500 C 43.478,265.570 43.545,265.330 40.500,264.500" stroke-width="11.535" stroke="rgb(33,33,33)" fill="none" stroke-linecap="round"></path><path d="M 40.500,264.500 C 38.045,263.830 37.897,264.299 35.500,263.500" stroke-width="11.789" stroke="rgb(33,33,33)" fill="none" stroke-linecap="round"></path><path d="M 35.500,263.500 C 33.397,262.799 33.414,262.648 31.500,261.500" stroke-width="11.898" stroke="rgb(33,33,33)" fill="none" stroke-linecap="round"></path><path d="M 31.500,261.500 C 28.414,259.648 28.553,259.408 25.500,257.500" stroke-width="11.626" stroke="rgb(33,33,33)" fill="none" stroke-linecap="round"></path><path d="M 25.500,257.500 C 24.553,256.908 24.457,257.074 23.500,256.500" stroke-width="12.277" stroke="rgb(33,33,33)" fill="none" stroke-linecap="round"></path><path d="M 23.500,256.500 C 21.957,255.574 22.043,255.426 20.500,254.500" stroke-width="12.580" stroke="rgb(33,33,33)" fill="none" stroke-linecap="round"></path><path d="M 20.500,254.500 C 19.543,253.926 19.536,253.914 18.500,253.500" stroke-width="13.119" stroke="rgb(33,33,33)" fill="none" stroke-linecap="round"></path><path d="M 18.500,253.500 C 17.036,252.914 16.755,253.396 15.500,252.500" stroke-width="13.376" stroke="rgb(33,33,33)" fill="none" stroke-linecap="round"></path><path d="M 15.500,252.500 C 13.255,250.896 13.500,250.500 11.500,248.500" stroke-width="13.043" stroke="rgb(33,33,33)" fill="none" stroke-linecap="round"></path><path d="M 11.500,248.500 C 11.000,248.000 11.000,248.000 10.500,247.500" stroke-width="13.660" stroke="rgb(33,33,33)" fill="none" stroke-linecap="round"></path><path d="M 10.500,247.500 C 9.500,246.500 9.086,246.672 8.500,245.500" stroke-width="14.038" stroke="rgb(33,33,33)" fill="none" stroke-linecap="round"></path><path d="M 8.500,245.500 C 8.086,244.672 8.914,244.328 8.500,243.500" stroke-width="14.254" stroke="rgb(33,33,33)" fill="none" stroke-linecap="round"></path><path d="M 8.500,243.500 C 7.914,242.328 7.338,242.617 6.500,241.500" stroke-width="14.287" stroke="rgb(33,33,33)" fill="none" stroke-linecap="round"></path><path d="M 6.500,241.500 C 5.838,240.617 5.845,240.536 5.500,239.500" stroke-width="14.636" stroke="rgb(33,33,33)" fill="none" stroke-linecap="round"></path><path d="M 5.500,239.500 C 5.345,239.036 5.500,239.000 5.500,238.500" stroke-width="15.164" stroke="rgb(33,33,33)" fill="none" stroke-linecap="round"></path><path d="M 5.500,238.500 C 5.500,238.000 5.500,238.000 5.500,237.500" stroke-width="15.614" stroke="rgb(33,33,33)" fill="none" stroke-linecap="round"></path><path d="M 5.500,237.500 C 5.500,236.500 5.207,236.379 5.500,235.500" stroke-width="15.728" stroke="rgb(33,33,33)" fill="none" stroke-linecap="round"></path><path d="M 5.500,235.500 C 5.707,234.879 6.000,235.000 6.500,234.500" stroke-width="16.003" stroke="rgb(33,33,33)" fill="none" stroke-linecap="round"></path><path d="M 6.500,234.500 C 7.000,234.000 6.914,233.793 7.500,233.500" stroke-width="16.282" stroke="rgb(33,33,33)" fill="none" stroke-linecap="round"></path><path d="M 7.500,233.500 C 7.914,233.293 8.086,233.707 8.500,233.500" stroke-width="16.550" stroke="rgb(33,33,33)" fill="none" stroke-linecap="round"></path><path d="M 8.500,233.500 C 9.086,233.207 8.914,232.793 9.500,232.500" stroke-width="16.924" stroke="rgb(33,33,33)" fill="none" stroke-linecap="round"></path><path d="M 9.500,232.500 C 9.914,232.293 10.250,232.750 10.500,232.500" stroke-width="17.129" stroke="rgb(33,33,33)" fill="none" stroke-linecap="round"></path><path d="M 10.500,232.500 C 10.750,232.250 10.250,231.750 10.500,231.500" stroke-width="17.608" stroke="rgb(33,33,33)" fill="none" stroke-linecap="round"></path><path d="M 10.500,231.500 C 10.750,231.250 11.000,231.500 11.500,231.500" stroke-width="17.941" stroke="rgb(33,33,33)" fill="none" stroke-linecap="round"></path><path d="M 11.500,231.500 C 12.000,231.500 12.250,231.750 12.500,231.500" stroke-width="18.154" stroke="rgb(33,33,33)" fill="none" stroke-linecap="round"></path><path d="M 12.500,231.500 C 12.750,231.250 12.250,230.750 12.500,230.500" stroke-width="18.065" stroke="rgb(33,33,33)" fill="none" stroke-linecap="round"></path><path d="M 12.500,230.500 C 12.750,230.250 13.000,230.500 13.500,230.500" stroke-width="18.052" stroke="rgb(33,33,33)" fill="none" stroke-linecap="round"></path><path d="M 13.500,230.500 C 14.000,230.500 14.000,230.500 14.500,230.500" stroke-width="18.381" stroke="rgb(33,33,33)" fill="none" stroke-linecap="round"></path><path d="M 14.500,230.500 C 15.000,230.500 15.000,230.500 15.500,230.500" stroke-width="18.584" stroke="rgb(33,33,33)" fill="none" stroke-linecap="round"></path><path d="M 15.500,230.500 C 16.000,230.500 16.000,230.500 16.500,230.500" stroke-width="18.662" stroke="rgb(33,33,33)" fill="none" stroke-linecap="round"></path><path d="M 16.500,230.500 C 17.000,230.500 17.000,230.500 17.500,230.500" stroke-width="18.904" stroke="rgb(33,33,33)" fill="none" stroke-linecap="round"></path><path d="M 17.500,230.500 C 18.000,230.500 18.000,230.500 18.500,230.500" stroke-width="18.995" stroke="rgb(33,33,33)" fill="none" stroke-linecap="round"></path><path d="M 18.500,230.500 C 19.000,230.500 19.000,230.500 19.500,230.500" stroke-width="19.021" stroke="rgb(33,33,33)" fill="none" stroke-linecap="round"></path><path d="M 19.500,230.500 C 20.000,230.500 20.000,230.500 20.500,230.500" stroke-width="19.097" stroke="rgb(33,33,33)" fill="none" stroke-linecap="round"></path><path d="M 20.500,230.500 C 21.000,230.500 21.000,230.500 21.500,230.500" stroke-width="18.867" stroke="rgb(33,33,33)" fill="none" stroke-linecap="round"></path><path d="M 21.500,230.500 C 22.000,230.500 22.000,230.500 22.500,230.500" stroke-width="18.687" stroke="rgb(33,33,33)" fill="none" stroke-linecap="round"></path><path d="M 22.500,230.500 C 23.000,230.500 23.000,230.500 23.500,230.500" stroke-width="18.545" stroke="rgb(33,33,33)" fill="none" stroke-linecap="round"></path><path d="M 23.500,230.500 C 24.000,230.500 24.000,230.500 24.500,230.500" stroke-width="18.434" stroke="rgb(33,33,33)" fill="none" stroke-linecap="round"></path><path d="M 24.500,230.500 C 25.000,230.500 25.000,230.500 25.500,230.500" stroke-width="18.345" stroke="rgb(33,33,33)" fill="none" stroke-linecap="round"></path><path d="M 25.500,230.500 C 26.000,230.500 26.000,230.500 26.500,230.500" stroke-width="18.216" stroke="rgb(33,33,33)" fill="none" stroke-linecap="round"></path><path d="M 26.500,230.500 C 27.000,230.500 27.000,230.500 27.500,230.500" stroke-width="18.173" stroke="rgb(33,33,33)" fill="none" stroke-linecap="round"></path><path d="M 27.500,230.500 C 28.000,230.500 28.036,230.345 28.500,230.500" stroke-width="18.138" stroke="rgb(33,33,33)" fill="none" stroke-linecap="round"></path><path d="M 28.500,230.500 C 29.536,230.845 29.464,231.155 30.500,231.500" stroke-width="17.623" stroke="rgb(33,33,33)" fill="none" stroke-linecap="round"></path><path d="M 30.500,231.500 C 30.964,231.655 31.000,231.500 31.500,231.500" stroke-width="17.740" stroke="rgb(33,33,33)" fill="none" stroke-linecap="round"></path><path d="M 31.500,231.500 C 32.000,231.500 32.000,231.500 32.500,231.500" stroke-width="17.662" stroke="rgb(33,33,33)" fill="none" stroke-linecap="round"></path><path d="M 32.500,231.500 C 33.500,231.500 33.500,231.500 34.500,231.500" stroke-width="17.349" stroke="rgb(33,33,33)" fill="none" stroke-linecap="round"></path><path d="M 34.500,231.500 C 36.000,231.500 36.000,231.500 37.500,231.500" stroke-width="16.753" stroke="rgb(33,33,33)" fill="none" stroke-linecap="round"></path><path d="M 37.500,231.500 C 39.500,231.500 39.522,231.280 41.500,231.500" stroke-width="15.804" stroke="rgb(33,33,33)" fill="none" stroke-linecap="round"></path><path d="M 41.500,231.500 C 44.022,231.780 43.967,232.331 46.500,232.500" stroke-width="14.972" stroke="rgb(33,33,33)" fill="none" stroke-linecap="round"></path><path d="M 46.500,232.500 C 51.467,232.831 51.500,232.500 56.500,232.500" stroke-width="13.218" stroke="rgb(33,33,33)" fill="none" stroke-linecap="round"></path><path d="M 56.500,232.500 C 63.500,232.500 63.510,232.759 70.500,232.500" stroke-width="11.405" stroke="rgb(33,33,33)" fill="none" stroke-linecap="round"></path><path d="M 70.500,232.500 C 77.010,232.259 77.024,232.220 83.500,231.500" stroke-width="10.404" stroke="rgb(33,33,33)" fill="none" stroke-linecap="round"></path><path d="M 83.500,231.500 C 90.524,230.720 90.467,230.041 97.500,229.500" stroke-width="9.594" stroke="rgb(33,33,33)" fill="none" stroke-linecap="round"></path><path d="M 97.500,229.500 C 103.467,229.041 103.500,229.500 109.500,229.500" stroke-width="9.253" stroke="rgb(33,33,33)" fill="none" stroke-linecap="round"></path><path d="M 109.500,229.500 C 115.500,229.500 115.509,229.740 121.500,229.500" stroke-width="8.997" stroke="rgb(33,33,33)" fill="none" stroke-linecap="round"></path><path d="M 121.500,229.500 C 128.009,229.240 128.000,229.000 134.500,228.500" stroke-width="8.533" stroke="rgb(33,33,33)" fill="none" stroke-linecap="round"></path><path d="M 134.500,228.500 C 141.000,228.000 141.085,228.526 147.500,227.500" stroke-width="8.479" stroke="rgb(33,33,33)" fill="none" stroke-linecap="round"></path><path d="M 147.500,227.500 C 153.585,226.526 153.410,225.437 159.500,224.500" stroke-width="8.218" stroke="rgb(33,33,33)" fill="none" stroke-linecap="round"></path><path d="M 159.500,224.500 C 166.410,223.437 166.531,224.274 173.500,223.500" stroke-width="8.155" stroke="rgb(33,33,33)" fill="none" stroke-linecap="round"></path><path d="M 173.500,223.500 C 180.031,222.774 179.961,221.984 186.500,221.500" stroke-width="7.903" stroke="rgb(33,33,33)" fill="none" stroke-linecap="round"></path><path d="M 186.500,221.500 C 193.461,220.984 193.500,221.500 200.500,221.500" stroke-width="7.642" stroke="rgb(33,33,33)" fill="none" stroke-linecap="round"></path><path d="M 200.500,221.500 C 207.500,221.500 207.500,221.500 214.500,221.500" stroke-width="7.585" stroke="rgb(33,33,33)" fill="none" stroke-linecap="round"></path><path d="M 214.500,221.500 C 220.500,221.500 220.500,221.500 226.500,221.500" stroke-width="7.682" stroke="rgb(33,33,33)" fill="none" stroke-linecap="round"></path><path d="M 226.500,221.500 C 232.500,221.500 232.500,221.500 238.500,221.500" stroke-width="7.637" stroke="rgb(33,33,33)" fill="none" stroke-linecap="round"></path><path d="M 238.500,221.500 C 246.000,221.500 246.000,221.500 253.500,221.500" stroke-width="7.628" stroke="rgb(33,33,33)" fill="none" stroke-linecap="round"></path><path d="M 253.500,221.500 C 260.000,221.500 260.000,221.500 266.500,221.500" stroke-width="7.514" stroke="rgb(33,33,33)" fill="none" stroke-linecap="round"></path><path d="M 266.500,221.500 C 274.500,221.500 274.576,220.733 282.500,221.500" stroke-width="7.347" stroke="rgb(33,33,33)" fill="none" stroke-linecap="round"></path><path d="M 282.500,221.500 C 290.076,222.233 289.922,223.790 297.500,224.500" stroke-width="7.265" stroke="rgb(33,33,33)" fill="none" stroke-linecap="round"></path><path d="M 297.500,224.500 C 305.922,225.290 306.035,223.971 314.500,224.500" stroke-width="7.093" stroke="rgb(33,33,33)" fill="none" stroke-linecap="round"></path><path d="M 314.500,224.500 C 322.035,224.971 321.972,225.794 329.500,226.500" stroke-width="7.075" stroke="rgb(33,33,33)" fill="none" stroke-linecap="round"></path><path d="M 329.500,226.500 C 337.972,227.294 338.089,226.379 346.500,227.500" stroke-width="6.946" stroke="rgb(33,33,33)" fill="none" stroke-linecap="round"></path><path d="M 346.500,227.500 C 353.089,228.379 352.930,229.449 359.500,230.500" stroke-width="6.950" stroke="rgb(33,33,33)" fill="none" stroke-linecap="round"></path><path d="M 359.500,230.500 C 365.430,231.449 365.529,230.797 371.500,231.500" stroke-width="7.151" stroke="rgb(33,33,33)" fill="none" stroke-linecap="round"></path><path d="M 371.500,231.500 C 374.029,231.797 373.986,232.081 376.500,232.500" stroke-width="7.852" stroke="rgb(33,33,33)" fill="none" stroke-linecap="round"></path><path d="M 376.500,232.500 C 379.986,233.081 380.026,232.868 383.500,233.500" stroke-width="8.215" stroke="rgb(33,33,33)" fill="none" stroke-linecap="round"></path><path d="M 383.500,233.500 C 385.526,233.868 385.488,234.053 387.500,234.500" stroke-width="8.982" stroke="rgb(33,33,33)" fill="none" stroke-linecap="round"></path><path d="M 387.500,234.500 C 389.988,235.053 390.016,234.927 392.500,235.500" stroke-width="9.660" stroke="rgb(33,33,33)" fill="none" stroke-linecap="round"></path><path d="M 392.500,235.500 C 396.516,236.427 396.472,236.637 400.500,237.500" stroke-width="9.917" stroke="rgb(33,33,33)" fill="none" stroke-linecap="round"></path><path d="M 400.500,237.500 C 403.472,238.137 403.539,237.842 406.500,238.500" stroke-width="8.293" stroke="rgb(33,33,33)" fill="none" stroke-linecap="round"></path><path d="M 406.500,238.500 C 408.039,238.842 407.960,239.243 409.500,239.500" stroke-width="9.179" stroke="rgb(33,33,33)" fill="none" stroke-linecap="round"></path><path d="M 409.500,239.500 C 410.960,239.743 411.000,239.500 412.500,239.500" stroke-width="9.712" stroke="rgb(33,33,33)" fill="none" stroke-linecap="round"></path><path d="M 412.500,239.500 C 413.500,239.500 413.500,239.500 414.500,239.500" stroke-width="10.395" stroke="rgb(33,33,33)" fill="none" stroke-linecap="round"></path><path d="M 414.500,239.500 C 415.000,239.500 415.000,239.500 415.500,239.500" stroke-width="11.430" stroke="rgb(33,33,33)" fill="none" stroke-linecap="round"></path><path d="M 415.500,239.500 C 416.000,239.500 416.000,239.500 416.500,239.500" stroke-width="12.471" stroke="rgb(33,33,33)" fill="none" stroke-linecap="round"></path><path d="M 416.500,239.500 C 417.000,239.500 417.086,239.293 417.500,239.500" stroke-width="13.311" stroke="rgb(33,33,33)" fill="none" stroke-linecap="round"></path><path d="M 417.500,239.500 C 418.086,239.793 417.879,240.293 418.500,240.500" stroke-width="13.894" stroke="rgb(33,33,33)" fill="none" stroke-linecap="round"></path><path d="M 418.500,240.500 C 419.379,240.793 419.520,240.337 420.500,240.500" stroke-width="14.301" stroke="rgb(33,33,33)" fill="none" stroke-linecap="round"></path><path d="M 420.500,240.500 C 422.520,240.837 422.555,240.852 424.500,241.500" stroke-width="14.103" stroke="rgb(33,33,33)" fill="none" stroke-linecap="round"></path><path d="M 424.500,241.500 C 425.555,241.852 425.500,242.000 426.500,242.500" stroke-width="14.336" stroke="rgb(33,33,33)" fill="none" stroke-linecap="round"></path><path d="M 426.500,242.500 C 427.500,243.000 427.444,243.236 428.500,243.500" stroke-width="14.611" stroke="rgb(33,33,33)" fill="none" stroke-linecap="round"></path><path d="M 428.500,243.500 C 429.444,243.736 429.500,243.500 430.500,243.500" stroke-width="14.903" stroke="rgb(33,33,33)" fill="none" stroke-linecap="round"></path><path d="M 430.500,243.500 C 431.000,243.500 431.036,243.345 431.500,243.500" stroke-width="15.434" stroke="rgb(33,33,33)" fill="none" stroke-linecap="round"></path><path d="M 431.500,243.500 C 432.536,243.845 433.155,244.155 433.500,244.500" stroke-width="15.511" stroke="rgb(33,33,33)" fill="none" stroke-linecap="round"></path><path d="M 433.500,244.500 C 433.655,244.655 433.000,244.500 432.500,244.500" stroke-width="16.257" stroke="rgb(33,33,33)" fill="none" stroke-linecap="round"></path><path d="M 432.500,244.500 C 432.000,244.500 432.000,244.500 431.500,244.500" stroke-width="16.738" stroke="rgb(33,33,33)" fill="none" stroke-linecap="round"></path></svg>