<svg xmlns="http://www.w3.org/2000/svg" xmlns:xlink="http://www.w3.org/1999/xlink" viewBox="0 0 375 500"><path d="M 131.000,222.500 C 131.500,204.000 126.938,202.551 132.000,185.500" stroke-width="14.972" stroke="rgb(33,33,33)" fill="none" stroke-linecap="round"></path><path d="M 132.000,185.500 C 136.438,170.551 139.870,171.107 150.000,158.500" stroke-width="11.109" stroke="rgb(33,33,33)" fill="none" stroke-linecap="round"></path><path d="M 150.000,158.500 C 162.370,143.107 162.651,143.106 177.000,129.500" stroke-width="9.104" stroke="rgb(33,33,33)" fill="none" stroke-linecap="round"></path><path d="M 177.000,129.500 C 191.651,115.606 191.332,114.612 208.000,103.500" stroke-width="8.563" stroke="rgb(33,33,33)" fill="none" stroke-linecap="round"></path><path d="M 208.000,103.500 C 218.332,96.612 219.065,96.411 231.000,93.500" stroke-width="8.484" stroke="rgb(33,33,33)" fill="none" stroke-linecap="round"></path><path d="M 231.000,93.500 C 239.565,91.411 241.255,90.181 249.000,93.500" stroke-width="8.310" stroke="rgb(33,33,33)" fill="none" stroke-linecap="round"></path><path d="M 249.000,93.500 C 258.755,97.681 260.603,99.178 266.000,108.500" stroke-width="8.260" stroke="rgb(33,33,33)" fill="none" stroke-linecap="round"></path><path d="M 266.000,108.500 C 271.603,118.178 270.545,119.890 271.000,131.500" stroke-width="8.305" stroke="rgb(33,33,33)" fill="none" stroke-linecap="round"></path><path d="M 271.000,131.500 C 271.545,145.390 272.769,146.528 268.000,159.500" stroke-width="8.159" stroke="rgb(33,33,33)" fill="none" stroke-linecap="round"></path><path d="M 268.000,159.500 C 260.269,180.528 258.995,180.900 246.000,199.500" stroke-width="7.438" stroke="rgb(33,33,33)" fill="none" stroke-linecap="round"></path><path d="M 246.000,199.500 C 233.495,217.400 232.856,217.450 217.000,232.500" stroke-width="6.918" stroke="rgb(33,33,33)" fill="none" stroke-linecap="round"></path><path d="M 217.000,232.500 C 203.356,245.450 202.997,245.724 187.000,255.500" stroke-width="6.780" stroke="rgb(33,33,33)" fill="none" stroke-linecap="round"></path><path d="M 187.000,255.500 C 175.997,262.224 175.393,262.041 163.000,265.500" stroke-width="7.036" stroke="rgb(33,33,33)" fill="none" stroke-linecap="round"></path><path d="M 163.000,265.500 C 153.893,268.041 153.498,267.161 144.000,267.500" stroke-width="7.344" stroke="rgb(33,33,33)" fill="none" stroke-linecap="round"></path><path d="M 144.000,267.500 C 139.498,267.661 136.130,270.016 135.000,266.500" stroke-width="8.060" stroke="rgb(33,33,33)" fill="none" stroke-linecap="round"></path><path d="M 135.000,266.500 C 131.630,256.016 130.546,251.699 135.000,239.500" stroke-width="7.949" stroke="rgb(33,33,33)" fill="none" stroke-linecap="round"></path><path d="M 135.000,239.500 C 142.046,220.199 144.341,219.618 158.000,203.500" stroke-width="7.465" stroke="rgb(33,33,33)" fill="none" stroke-linecap="round"></path><path d="M 158.000,203.500 C 169.341,190.118 170.355,190.165 185.000,180.500" stroke-width="7.198" stroke="rgb(33,33,33)" fill="none" stroke-linecap="round"></path><path d="M 185.000,180.500 C 195.355,173.665 196.012,173.561 208.000,170.500" stroke-width="7.375" stroke="rgb(33,33,33)" fill="none" stroke-linecap="round"></path><path d="M 208.000,170.500 C 219.512,167.561 219.983,169.101 232.000,168.500" stroke-width="7.507" stroke="rgb(33,33,33)" fill="none" stroke-linecap="round"></path><path d="M 232.000,168.500 C 239.983,168.101 240.851,166.117 248.000,168.500" stroke-width="7.953" stroke="rgb(33,33,33)" fill="none" stroke-linecap="round"></path><path d="M 248.000,168.500 C 254.351,170.617 256.588,171.376 259.000,177.500" stroke-width="8.422" stroke="rgb(33,33,33)" fill="none" stroke-linecap="round"></path><path d="M 259.000,177.500 C 263.088,187.876 260.803,189.477 261.000,201.500" stroke-width="8.414" stroke="rgb(33,33,33)" fill="none" stroke-linecap="round"></path><path d="M 261.000,201.500 C 261.303,219.977 262.036,220.173 260.000,238.500" stroke-width="7.907" stroke="rgb(33,33,33)" fill="none" stroke-linecap="round"></path><path d="M 260.000,238.500 C 258.036,256.173 256.898,256.089 253.000,273.500" stroke-width="7.823" stroke="rgb(33,33,33)" fill="none" stroke-linecap="round"></path><path d="M 253.000,273.500 C 249.398,289.589 250.433,290.017 245.000,305.500" stroke-width="7.288" stroke="rgb(33,33,33)" fill="none" stroke-linecap="round"></path><path d="M 245.000,305.500 C 240.433,318.517 240.385,318.895 233.000,330.500" stroke-width="7.366" stroke="rgb(33,33,33)" fill="none" stroke-linecap="round"></path><path d="M 233.000,330.500 C 226.385,340.895 226.095,341.285 217.000,349.500" stroke-width="7.417" stroke="rgb(33,33,33)" fill="none" stroke-linecap="round"></path><path d="M 217.000,349.500 C 210.595,355.285 209.996,355.539 202.000,358.500" stroke-width="7.780" stroke="rgb(33,33,33)" fill="none" stroke-linecap="round"></path><path d="M 202.000,358.500 C 196.496,360.539 195.404,361.229 190.000,359.500" stroke-width="8.354" stroke="rgb(33,33,33)" fill="none" stroke-linecap="round"></path><path d="M 190.000,359.500 C 182.904,357.229 179.443,357.398 177.000,350.500" stroke-width="8.666" stroke="rgb(33,33,33)" fill="none" stroke-linecap="round"></path><path d="M 177.000,350.500 C 170.943,333.398 173.000,331.021 173.000,311.500" stroke-width="8.002" stroke="rgb(33,33,33)" fill="none" stroke-linecap="round"></path><path d="M 173.000,311.500 C 173.000,287.021 172.347,286.385 177.000,262.500" stroke-width="7.225" stroke="rgb(33,33,33)" fill="none" stroke-linecap="round"></path><path d="M 177.000,262.500 C 179.847,247.885 180.430,247.006 188.000,234.500" stroke-width="7.185" stroke="rgb(33,33,33)" fill="none" stroke-linecap="round"></path><path d="M 188.000,234.500 C 191.930,228.006 193.111,227.452 200.000,224.500" stroke-width="7.675" stroke="rgb(33,33,33)" fill="none" stroke-linecap="round"></path><path d="M 200.000,224.500 C 207.111,221.452 207.973,223.073 216.000,222.500" stroke-width="8.060" stroke="rgb(33,33,33)" fill="none" stroke-linecap="round"></path><path d="M 216.000,222.500 C 221.973,222.073 222.547,220.765 228.000,222.500" stroke-width="8.642" stroke="rgb(33,33,33)" fill="none" stroke-linecap="round"></path><path d="M 228.000,222.500 C 233.547,224.265 233.281,225.666 238.000,229.500" stroke-width="9.162" stroke="rgb(33,33,33)" fill="none" stroke-linecap="round"></path><path d="M 238.000,229.500 C 241.281,232.166 241.333,232.240 244.000,235.500" stroke-width="9.730" stroke="rgb(33,33,33)" fill="none" stroke-linecap="round"></path><path d="M 244.000,235.500 C 245.833,237.740 245.883,237.894 247.000,240.500" stroke-width="10.472" stroke="rgb(33,33,33)" fill="none" stroke-linecap="round"></path><path d="M 247.000,240.500 C 247.383,241.394 247.414,242.500 247.000,242.500" stroke-width="11.428" stroke="rgb(33,33,33)" fill="none" stroke-linecap="round"></path><path d="M 247.000,242.500 C 246.414,242.500 245.441,241.824 245.000,240.500" stroke-width="12.267" stroke="rgb(33,33,33)" fill="none" stroke-linecap="round"></path><path d="M 245.000,240.500 C 241.441,229.824 240.866,229.696 239.000,218.500" stroke-width="11.320" stroke="rgb(33,33,33)" fill="none" stroke-linecap="round"></path><path d="M 239.000,218.500 C 236.866,205.696 238.272,205.473 237.000,192.500" stroke-width="10.542" stroke="rgb(33,33,33)" fill="none" stroke-linecap="round"></path><path d="M 237.000,192.500 C 235.772,179.973 236.804,179.650 234.000,167.500" stroke-width="9.961" stroke="rgb(33,33,33)" fill="none" stroke-linecap="round"></path><path d="M 234.000,167.500 C 232.304,160.150 231.698,160.103 228.000,153.500" stroke-width="10.097" stroke="rgb(33,33,33)" fill="none" stroke-linecap="round"></path><path d="M 228.000,153.500 C 224.698,147.603 224.341,147.709 220.000,142.500" stroke-width="10.308" stroke="rgb(33,33,33)" fill="none" stroke-linecap="round"></path><path d="M 220.000,142.500 C 216.841,138.709 216.234,139.231 213.000,135.500" stroke-width="10.684" stroke="rgb(33,33,33)" fill="none" stroke-linecap="round"></path><path d="M 213.000,135.500 C 209.734,131.731 209.957,131.532 207.000,127.500" stroke-width="10.998" stroke="rgb(33,33,33)" fill="none" stroke-linecap="round"></path><path d="M 207.000,127.500 C 204.457,124.032 203.462,124.397 202.000,120.500" stroke-width="11.373" stroke="rgb(33,33,33)" fill="none" stroke-linecap="round"></path><path d="M 202.000,120.500 C 200.462,116.397 201.410,116.005 201.000,111.500" stroke-width="11.699" stroke="rgb(33,33,33)" fill="none" stroke-linecap="round"></path><path d="M 201.000,111.500 C 200.910,110.505 200.876,109.005 201.000,109.500" stroke-width="12.580" stroke="rgb(33,33,33)" fill="none" stroke-linecap="round"></path><path d="M 201.000,109.500 C 201.376,111.005 201.552,112.492 202.000,115.500" stroke-width="12.986" stroke="rgb(33,33,33)" fill="none" stroke-linecap="round"></path><path d="M 202.000,115.500 C 205.052,135.992 203.862,136.223 208.000,156.500" stroke-width="10.303" stroke="rgb(33,33,33)" fill="none" stroke-linecap="round"></path></svg>