<svg xmlns="http://www.w3.org/2000/svg" xmlns:xlink="http://www.w3.org/1999/xlink" viewBox="0 0 800 500"><path d="M 256.500,167.500 C 256.000,167.500 255.964,167.345 255.500,167.500" stroke-width="20.120" stroke="rgb(33,33,33)" fill="none" stroke-linecap="round"></path><path d="M 255.500,167.500 C 254.464,167.845 254.500,168.000 253.500,168.500" stroke-width="19.085" stroke="rgb(33,33,33)" fill="none" stroke-linecap="round"></path><path d="M 253.500,168.500 C 252.500,169.000 252.429,168.881 251.500,169.500" stroke-width="18.330" stroke="rgb(33,33,33)" fill="none" stroke-linecap="round"></path><path d="M 251.500,169.500 C 246.429,172.881 246.257,172.694 241.500,176.500" stroke-width="17.338" stroke="rgb(33,33,33)" fill="none" stroke-linecap="round"></path><path d="M 241.500,176.500 C 236.257,180.694 235.953,180.642 231.500,185.500" stroke-width="16.359" stroke="rgb(33,33,33)" fill="none" stroke-linecap="round"></path><path d="M 231.500,185.500 C 230.453,186.642 231.379,187.328 230.500,188.500" stroke-width="13.441" stroke="rgb(33,33,33)" fill="none" stroke-linecap="round"></path><path d="M 230.500,188.500 C 229.879,189.328 229.027,188.621 228.500,189.500" stroke-width="13.784" stroke="rgb(33,33,33)" fill="none" stroke-linecap="round"></path><path d="M 228.500,189.500 C 227.527,191.121 227.902,191.488 227.500,193.500" stroke-width="14.445" stroke="rgb(33,33,33)" fill="none" stroke-linecap="round"></path><path d="M 227.500,193.500 C 227.402,193.988 227.500,194.000 227.500,194.500" stroke-width="14.245" stroke="rgb(33,33,33)" fill="none" stroke-linecap="round"></path><path d="M 227.500,194.500 C 227.500,195.000 227.134,195.207 227.500,195.500" stroke-width="15.053" stroke="rgb(33,33,33)" fill="none" stroke-linecap="round"></path><path d="M 227.500,195.500 C 229.634,197.207 229.689,198.011 232.500,198.500" stroke-width="15.348" stroke="rgb(33,33,33)" fill="none" stroke-linecap="round"></path><path d="M 232.500,198.500 C 241.189,200.011 241.492,199.286 250.500,199.500" stroke-width="14.467" stroke="rgb(33,33,33)" fill="none" stroke-linecap="round"></path><path d="M 250.500,199.500 C 262.492,199.786 262.500,199.500 274.500,199.500" stroke-width="13.522" stroke="rgb(33,33,33)" fill="none" stroke-linecap="round"></path><path d="M 274.500,199.500 C 278.500,199.500 278.561,200.084 282.500,199.500" stroke-width="6.754" stroke="rgb(33,33,33)" fill="none" stroke-linecap="round"></path><path d="M 282.500,199.500 C 292.061,198.084 292.890,199.143 301.500,195.500" stroke-width="7.398" stroke="rgb(33,33,33)" fill="none" stroke-linecap="round"></path><path d="M 301.500,195.500 C 305.890,193.643 305.814,192.337 308.500,188.500" stroke-width="8.222" stroke="rgb(33,33,33)" fill="none" stroke-linecap="round"></path><path d="M 308.500,188.500 C 309.314,187.337 309.121,186.743 308.500,185.500" stroke-width="9.239" stroke="rgb(33,33,33)" fill="none" stroke-linecap="round"></path><path d="M 308.500,185.500 C 307.621,183.743 307.167,183.796 305.500,182.500" stroke-width="10.174" stroke="rgb(33,33,33)" fill="none" stroke-linecap="round"></path><path d="M 305.500,182.500 C 302.667,180.296 302.553,180.408 299.500,178.500" stroke-width="10.959" stroke="rgb(33,33,33)" fill="none" stroke-linecap="round"></path><path d="M 299.500,178.500 C 298.553,177.908 298.442,178.100 297.500,177.500" stroke-width="11.082" stroke="rgb(33,33,33)" fill="none" stroke-linecap="round"></path><path d="M 297.500,177.500 C 292.942,174.600 293.338,173.616 288.500,171.500" stroke-width="11.709" stroke="rgb(33,33,33)" fill="none" stroke-linecap="round"></path><path d="M 288.500,171.500 C 285.338,170.116 285.011,170.851 281.500,170.500" stroke-width="12.363" stroke="rgb(33,33,33)" fill="none" stroke-linecap="round"></path><path d="M 281.500,170.500 C 280.011,170.351 280.000,170.500 278.500,170.500" stroke-width="13.206" stroke="rgb(33,33,33)" fill="none" stroke-linecap="round"></path><path d="M 278.500,170.500 C 278.000,170.500 277.500,170.500 277.500,170.500" stroke-width="14.117" stroke="rgb(33,33,33)" fill="none" stroke-linecap="round"></path><path d="M 277.500,170.500 C 277.500,170.500 278.000,170.500 278.500,170.500" stroke-width="14.989" stroke="rgb(33,33,33)" fill="none" stroke-linecap="round"></path><path d="M 278.500,170.500 C 280.000,170.500 280.006,170.630 281.500,170.500" stroke-width="14.819" stroke="rgb(33,33,33)" fill="none" stroke-linecap="round"></path><path d="M 281.500,170.500 C 291.506,169.630 291.512,169.610 301.500,168.500" stroke-width="14.189" stroke="rgb(33,33,33)" fill="none" stroke-linecap="round"></path><path d="M 301.500,168.500 C 318.512,166.610 318.479,166.273 335.500,164.500" stroke-width="12.616" stroke="rgb(33,33,33)" fill="none" stroke-linecap="round"></path><path d="M 335.500,164.500 C 342.479,163.773 342.506,164.071 349.500,163.500" stroke-width="6.750" stroke="rgb(33,33,33)" fill="none" stroke-linecap="round"></path><path d="M 349.500,163.500 C 367.006,162.071 366.978,161.492 384.500,160.500" stroke-width="6.750" stroke="rgb(33,33,33)" fill="none" stroke-linecap="round"></path><path d="M 384.500,160.500 C 393.478,159.992 393.500,160.500 402.500,160.500" stroke-width="6.750" stroke="rgb(33,33,33)" fill="none" stroke-linecap="round"></path><path d="M 402.500,160.500 C 405.000,160.500 405.000,160.500 407.500,160.500" stroke-width="6.750" stroke="rgb(33,33,33)" fill="none" stroke-linecap="round"></path><path d="M 407.500,160.500 C 408.000,160.500 408.036,160.345 408.500,160.500" stroke-width="7.226" stroke="rgb(33,33,33)" fill="none" stroke-linecap="round"></path><path d="M 408.500,160.500 C 409.536,160.845 409.809,160.809 410.500,161.500" stroke-width="8.234" stroke="rgb(33,33,33)" fill="none" stroke-linecap="round"></path><path d="M 410.500,161.500 C 410.809,161.809 410.500,162.000 410.500,162.500" stroke-width="9.324" stroke="rgb(33,33,33)" fill="none" stroke-linecap="round"></path><path d="M 410.500,162.500 C 410.500,163.000 410.926,163.254 410.500,163.500" stroke-width="10.319" stroke="rgb(33,33,33)" fill="none" stroke-linecap="round"></path><path d="M 410.500,163.500 C 397.926,170.754 397.961,171.471 384.500,177.500" stroke-width="10.390" stroke="rgb(33,33,33)" fill="none" stroke-linecap="round"></path><path d="M 384.500,177.500 C 349.961,192.971 349.856,192.918 314.500,206.500" stroke-width="8.646" stroke="rgb(33,33,33)" fill="none" stroke-linecap="round"></path><path d="M 314.500,206.500 C 267.856,224.418 268.045,225.170 220.500,240.500" stroke-width="7.196" stroke="rgb(33,33,33)" fill="none" stroke-linecap="round"></path><path d="M 220.500,240.500 C 161.045,259.670 152.917,260.524 100.500,275.500" stroke-width="7.647" stroke="rgb(33,33,33)" fill="none" stroke-linecap="round"></path><path d="M 100.500,275.500 C 96.917,276.524 104.373,273.471 108.500,272.500" stroke-width="8.510" stroke="rgb(33,33,33)" fill="none" stroke-linecap="round"></path><path d="M 108.500,272.500 C 112.873,271.471 112.981,271.656 117.500,271.500" stroke-width="9.339" stroke="rgb(33,33,33)" fill="none" stroke-linecap="round"></path><path d="M 117.500,271.500 C 127.481,271.156 127.500,271.500 137.500,271.500" stroke-width="9.747" stroke="rgb(33,33,33)" fill="none" stroke-linecap="round"></path><circle r="6" cx="286.5" cy="237.5" fill="rgb(33,33,33)"></circle></svg>