<svg xmlns="http://www.w3.org/2000/svg" xmlns:xlink="http://www.w3.org/1999/xlink" viewBox="0 0 800 500"><path d="M 336.500,203.000 C 336.500,202.000 336.500,202.000 336.500,201.000" stroke-width="20.192" stroke="rgb(33,33,33)" fill="none" stroke-linecap="round"></path><path d="M 336.500,201.000 C 336.500,200.500 336.500,200.500 336.500,200.000" stroke-width="20.044" stroke="rgb(33,33,33)" fill="none" stroke-linecap="round"></path><path d="M 336.500,200.000 C 336.500,199.500 336.500,199.500 336.500,199.000" stroke-width="19.783" stroke="rgb(33,33,33)" fill="none" stroke-linecap="round"></path><path d="M 336.500,199.000 C 336.500,198.500 336.500,198.500 336.500,198.000" stroke-width="19.660" stroke="rgb(33,33,33)" fill="none" stroke-linecap="round"></path><path d="M 336.500,198.000 C 336.500,197.500 336.239,197.392 336.500,197.000" stroke-width="19.584" stroke="rgb(33,33,33)" fill="none" stroke-linecap="round"></path><path d="M 336.500,197.000 C 337.239,195.892 337.500,196.000 338.500,195.000" stroke-width="18.968" stroke="rgb(33,33,33)" fill="none" stroke-linecap="round"></path><path d="M 338.500,195.000 C 339.000,194.500 338.919,194.387 339.500,194.000" stroke-width="18.791" stroke="rgb(33,33,33)" fill="none" stroke-linecap="round"></path><path d="M 339.500,194.000 C 340.419,193.387 340.543,193.574 341.500,193.000" stroke-width="18.605" stroke="rgb(33,33,33)" fill="none" stroke-linecap="round"></path><path d="M 341.500,193.000 C 343.043,192.074 342.825,191.558 344.500,191.000" stroke-width="17.595" stroke="rgb(33,33,33)" fill="none" stroke-linecap="round"></path><path d="M 344.500,191.000 C 347.325,190.058 347.520,190.596 350.500,190.000" stroke-width="16.677" stroke="rgb(33,33,33)" fill="none" stroke-linecap="round"></path><path d="M 350.500,190.000 C 352.520,189.596 352.466,189.226 354.500,189.000" stroke-width="16.669" stroke="rgb(33,33,33)" fill="none" stroke-linecap="round"></path><path d="M 354.500,189.000 C 356.966,188.726 357.000,189.000 359.500,189.000" stroke-width="16.454" stroke="rgb(33,33,33)" fill="none" stroke-linecap="round"></path><path d="M 359.500,189.000 C 364.500,189.000 364.500,189.000 369.500,189.000" stroke-width="15.255" stroke="rgb(33,33,33)" fill="none" stroke-linecap="round"></path><path d="M 369.500,189.000 C 371.000,189.000 371.000,189.000 372.500,189.000" stroke-width="15.520" stroke="rgb(33,33,33)" fill="none" stroke-linecap="round"></path><path d="M 372.500,189.000 C 374.000,189.000 374.026,188.789 375.500,189.000" stroke-width="15.596" stroke="rgb(33,33,33)" fill="none" stroke-linecap="round"></path><path d="M 375.500,189.000 C 377.526,189.289 377.633,189.200 379.500,190.000" stroke-width="15.765" stroke="rgb(33,33,33)" fill="none" stroke-linecap="round"></path><path d="M 379.500,190.000 C 381.133,190.700 380.902,191.201 382.500,192.000" stroke-width="15.218" stroke="rgb(33,33,33)" fill="none" stroke-linecap="round"></path><path d="M 382.500,192.000 C 383.902,192.701 384.180,192.208 385.500,193.000" stroke-width="15.462" stroke="rgb(33,33,33)" fill="none" stroke-linecap="round"></path><path d="M 385.500,193.000 C 386.680,193.708 386.320,194.292 387.500,195.000" stroke-width="15.808" stroke="rgb(33,33,33)" fill="none" stroke-linecap="round"></path><path d="M 387.500,195.000 C 388.820,195.792 389.118,195.309 390.500,196.000" stroke-width="15.792" stroke="rgb(33,33,33)" fill="none" stroke-linecap="round"></path><path d="M 390.500,196.000 C 391.118,196.309 390.882,196.691 391.500,197.000" stroke-width="16.208" stroke="rgb(33,33,33)" fill="none" stroke-linecap="round"></path><path d="M 391.500,197.000 C 392.882,197.691 392.969,197.694 394.500,198.000" stroke-width="16.109" stroke="rgb(33,33,33)" fill="none" stroke-linecap="round"></path><path d="M 394.500,198.000 C 395.469,198.194 395.500,198.000 396.500,198.000" stroke-width="16.305" stroke="rgb(33,33,33)" fill="none" stroke-linecap="round"></path><path d="M 396.500,198.000 C 398.000,198.000 398.000,198.000 399.500,198.000" stroke-width="16.378" stroke="rgb(33,33,33)" fill="none" stroke-linecap="round"></path><path d="M 399.500,198.000 C 400.500,198.000 400.500,198.000 401.500,198.000" stroke-width="16.698" stroke="rgb(33,33,33)" fill="none" stroke-linecap="round"></path><path d="M 401.500,198.000 C 402.500,198.000 402.500,198.000 403.500,198.000" stroke-width="16.672" stroke="rgb(33,33,33)" fill="none" stroke-linecap="round"></path><path d="M 403.500,198.000 C 404.500,198.000 404.500,198.000 405.500,198.000" stroke-width="16.943" stroke="rgb(33,33,33)" fill="none" stroke-linecap="round"></path><path d="M 405.500,198.000 C 406.500,198.000 406.833,198.333 407.500,198.000" stroke-width="17.315" stroke="rgb(33,33,33)" fill="none" stroke-linecap="round"></path><path d="M 407.500,198.000 C 407.833,197.833 407.500,197.500 407.500,197.000" stroke-width="17.625" stroke="rgb(33,33,33)" fill="none" stroke-linecap="round"></path><path d="M 407.500,197.000 C 407.500,196.500 407.500,196.500 407.500,196.000" stroke-width="17.805" stroke="rgb(33,33,33)" fill="none" stroke-linecap="round"></path><path d="M 407.500,196.000 C 407.500,195.500 407.500,195.500 407.500,195.000" stroke-width="17.996" stroke="rgb(33,33,33)" fill="none" stroke-linecap="round"></path><path d="M 407.500,195.000 C 407.500,194.500 407.500,194.500 407.500,194.000" stroke-width="18.152" stroke="rgb(33,33,33)" fill="none" stroke-linecap="round"></path><path d="M 407.500,194.000 C 407.500,193.000 407.500,193.000 407.500,192.000" stroke-width="18.203" stroke="rgb(33,33,33)" fill="none" stroke-linecap="round"></path><path d="M 407.500,192.000 C 407.500,191.000 407.663,190.980 407.500,190.000" stroke-width="18.244" stroke="rgb(33,33,33)" fill="none" stroke-linecap="round"></path><path d="M 407.500,190.000 C 407.163,187.980 407.510,187.347 406.500,186.000" stroke-width="17.507" stroke="rgb(33,33,33)" fill="none" stroke-linecap="round"></path><path d="M 406.500,186.000 C 406.010,185.347 405.167,186.333 404.500,186.000" stroke-width="17.549" stroke="rgb(33,33,33)" fill="none" stroke-linecap="round"></path><path d="M 404.500,186.000 C 404.167,185.833 404.750,185.250 404.500,185.000" stroke-width="17.714" stroke="rgb(33,33,33)" fill="none" stroke-linecap="round"></path><path d="M 404.500,185.000 C 404.250,184.750 404.000,185.000 403.500,185.000" stroke-width="17.939" stroke="rgb(33,33,33)" fill="none" stroke-linecap="round"></path><path d="M 403.500,185.000 C 403.000,185.000 402.914,185.207 402.500,185.000" stroke-width="18.106" stroke="rgb(33,33,33)" fill="none" stroke-linecap="round"></path><path d="M 402.500,185.000 C 401.914,184.707 402.081,184.387 401.500,184.000" stroke-width="18.108" stroke="rgb(33,33,33)" fill="none" stroke-linecap="round"></path><path d="M 401.500,184.000 C 400.581,183.387 400.536,183.345 399.500,183.000" stroke-width="18.065" stroke="rgb(33,33,33)" fill="none" stroke-linecap="round"></path><path d="M 399.500,183.000 C 399.036,182.845 399.000,183.000 398.500,183.000" stroke-width="18.304" stroke="rgb(33,33,33)" fill="none" stroke-linecap="round"></path><path d="M 398.500,183.000 C 398.000,183.000 398.000,183.000 397.500,183.000" stroke-width="18.532" stroke="rgb(33,33,33)" fill="none" stroke-linecap="round"></path><path d="M 397.500,183.000 C 397.000,183.000 397.000,183.000 396.500,183.000" stroke-width="18.585" stroke="rgb(33,33,33)" fill="none" stroke-linecap="round"></path><path d="M 396.500,183.000 C 396.000,183.000 396.000,183.000 395.500,183.000" stroke-width="18.629" stroke="rgb(33,33,33)" fill="none" stroke-linecap="round"></path><path d="M 395.500,183.000 C 395.000,183.000 395.000,183.000 394.500,183.000" stroke-width="18.641" stroke="rgb(33,33,33)" fill="none" stroke-linecap="round"></path><path d="M 394.500,183.000 C 393.500,183.000 393.500,183.000 392.500,183.000" stroke-width="18.557" stroke="rgb(33,33,33)" fill="none" stroke-linecap="round"></path><path d="M 392.500,183.000 C 392.000,183.000 392.000,183.000 391.500,183.000" stroke-width="18.698" stroke="rgb(33,33,33)" fill="none" stroke-linecap="round"></path><path d="M 391.500,183.000 C 390.000,183.000 390.000,183.000 388.500,183.000" stroke-width="18.139" stroke="rgb(33,33,33)" fill="none" stroke-linecap="round"></path><path d="M 388.500,183.000 C 388.000,183.000 387.914,182.793 387.500,183.000" stroke-width="18.302" stroke="rgb(33,33,33)" fill="none" stroke-linecap="round"></path><path d="M 387.500,183.000 C 386.914,183.293 386.923,183.437 386.500,184.000" stroke-width="18.229" stroke="rgb(33,33,33)" fill="none" stroke-linecap="round"></path><path d="M 386.500,184.000 C 385.423,185.437 385.500,185.500 384.500,187.000" stroke-width="17.698" stroke="rgb(33,33,33)" fill="none" stroke-linecap="round"></path><path d="M 384.500,187.000 C 382.500,190.000 382.202,189.839 380.500,193.000" stroke-width="16.390" stroke="rgb(33,33,33)" fill="none" stroke-linecap="round"></path><path d="M 380.500,193.000 C 378.702,196.339 379.202,196.597 377.500,200.000" stroke-width="15.963" stroke="rgb(33,33,33)" fill="none" stroke-linecap="round"></path><path d="M 377.500,200.000 C 373.702,207.597 373.093,207.300 369.500,215.000" stroke-width="14.622" stroke="rgb(33,33,33)" fill="none" stroke-linecap="round"></path><path d="M 369.500,215.000 C 355.593,244.800 356.018,245.008 342.500,275.000" stroke-width="8.422" stroke="rgb(33,33,33)" fill="none" stroke-linecap="round"></path><path d="M 342.500,275.000 C 340.018,280.508 340.072,280.534 337.500,286.000" stroke-width="8.863" stroke="rgb(33,33,33)" fill="none" stroke-linecap="round"></path><path d="M 337.500,286.000 C 336.072,289.034 336.000,289.000 334.500,292.000" stroke-width="9.367" stroke="rgb(33,33,33)" fill="none" stroke-linecap="round"></path><path d="M 334.500,292.000 C 333.500,294.000 333.640,294.101 332.500,296.000" stroke-width="10.158" stroke="rgb(33,33,33)" fill="none" stroke-linecap="round"></path><path d="M 332.500,296.000 C 332.140,296.601 331.793,296.414 331.500,297.000" stroke-width="11.148" stroke="rgb(33,33,33)" fill="none" stroke-linecap="round"></path><path d="M 331.500,297.000 C 331.293,297.414 331.500,297.500 331.500,298.000" stroke-width="12.194" stroke="rgb(33,33,33)" fill="none" stroke-linecap="round"></path><path d="M 331.500,298.000 C 331.500,298.500 331.293,298.586 331.500,299.000" stroke-width="13.173" stroke="rgb(33,33,33)" fill="none" stroke-linecap="round"></path><path d="M 331.500,299.000 C 331.793,299.586 331.919,299.613 332.500,300.000" stroke-width="14.052" stroke="rgb(33,33,33)" fill="none" stroke-linecap="round"></path><path d="M 332.500,300.000 C 333.419,300.613 333.444,300.736 334.500,301.000" stroke-width="14.597" stroke="rgb(33,33,33)" fill="none" stroke-linecap="round"></path><path d="M 334.500,301.000 C 335.444,301.236 335.608,300.643 336.500,301.000" stroke-width="15.106" stroke="rgb(33,33,33)" fill="none" stroke-linecap="round"></path><path d="M 336.500,301.000 C 338.108,301.643 337.902,302.201 339.500,303.000" stroke-width="15.249" stroke="rgb(33,33,33)" fill="none" stroke-linecap="round"></path><path d="M 339.500,303.000 C 340.902,303.701 340.960,303.743 342.500,304.000" stroke-width="15.630" stroke="rgb(33,33,33)" fill="none" stroke-linecap="round"></path><path d="M 342.500,304.000 C 343.960,304.243 344.005,304.107 345.500,304.000" stroke-width="15.969" stroke="rgb(33,33,33)" fill="none" stroke-linecap="round"></path><path d="M 345.500,304.000 C 351.005,303.607 351.161,304.068 356.500,303.000" stroke-width="14.479" stroke="rgb(33,33,33)" fill="none" stroke-linecap="round"></path><path d="M 356.500,303.000 C 358.661,302.568 358.562,302.107 360.500,301.000" stroke-width="14.645" stroke="rgb(33,33,33)" fill="none" stroke-linecap="round"></path><path d="M 360.500,301.000 C 362.062,300.107 361.902,299.799 363.500,299.000" stroke-width="14.986" stroke="rgb(33,33,33)" fill="none" stroke-linecap="round"></path><path d="M 363.500,299.000 C 364.902,298.299 365.500,299.000 366.500,298.000" stroke-width="14.986" stroke="rgb(33,33,33)" fill="none" stroke-linecap="round"></path><path d="M 366.500,298.000 C 367.500,297.000 366.708,296.320 367.500,295.000" stroke-width="15.129" stroke="rgb(33,33,33)" fill="none" stroke-linecap="round"></path><path d="M 367.500,295.000 C 368.208,293.820 369.015,294.213 369.500,293.000" stroke-width="15.604" stroke="rgb(33,33,33)" fill="none" stroke-linecap="round"></path><path d="M 369.500,293.000 C 370.015,291.713 369.500,291.500 369.500,290.000" stroke-width="15.948" stroke="rgb(33,33,33)" fill="none" stroke-linecap="round"></path><path d="M 369.500,290.000 C 369.500,285.000 369.500,285.000 369.500,280.000" stroke-width="14.904" stroke="rgb(33,33,33)" fill="none" stroke-linecap="round"></path><path d="M 369.500,280.000 C 369.500,277.500 369.500,277.500 369.500,275.000" stroke-width="14.778" stroke="rgb(33,33,33)" fill="none" stroke-linecap="round"></path><path d="M 369.500,275.000 C 369.500,273.500 369.786,273.432 369.500,272.000" stroke-width="15.122" stroke="rgb(33,33,33)" fill="none" stroke-linecap="round"></path><path d="M 369.500,272.000 C 369.286,270.932 369.113,270.919 368.500,270.000" stroke-width="15.330" stroke="rgb(33,33,33)" fill="none" stroke-linecap="round"></path><path d="M 368.500,270.000 C 368.113,269.419 367.707,269.621 367.500,269.000" stroke-width="15.858" stroke="rgb(33,33,33)" fill="none" stroke-linecap="round"></path><path d="M 367.500,269.000 C 367.207,268.121 367.833,267.667 367.500,267.000" stroke-width="16.137" stroke="rgb(33,33,33)" fill="none" stroke-linecap="round"></path><path d="M 367.500,267.000 C 367.333,266.667 366.750,267.250 366.500,267.000" stroke-width="16.657" stroke="rgb(33,33,33)" fill="none" stroke-linecap="round"></path><path d="M 366.500,267.000 C 366.250,266.750 366.750,266.250 366.500,266.000" stroke-width="17.181" stroke="rgb(33,33,33)" fill="none" stroke-linecap="round"></path><path d="M 366.500,266.000 C 366.250,265.750 365.500,266.207 365.500,266.000" stroke-width="17.500" stroke="rgb(33,33,33)" fill="none" stroke-linecap="round"></path><path d="M 365.500,266.000 C 365.500,265.707 365.859,265.160 366.500,265.000" stroke-width="17.944" stroke="rgb(33,33,33)" fill="none" stroke-linecap="round"></path><path d="M 366.500,265.000 C 367.859,264.660 368.000,265.000 369.500,265.000" stroke-width="17.566" stroke="rgb(33,33,33)" fill="none" stroke-linecap="round"></path><path d="M 369.500,265.000 C 371.000,265.000 371.000,265.000 372.500,265.000" stroke-width="17.331" stroke="rgb(33,33,33)" fill="none" stroke-linecap="round"></path><path d="M 372.500,265.000 C 374.500,265.000 374.500,265.000 376.500,265.000" stroke-width="16.855" stroke="rgb(33,33,33)" fill="none" stroke-linecap="round"></path><path d="M 376.500,265.000 C 378.000,265.000 378.000,265.000 379.500,265.000" stroke-width="16.720" stroke="rgb(33,33,33)" fill="none" stroke-linecap="round"></path><path d="M 379.500,265.000 C 381.000,265.000 381.000,265.000 382.500,265.000" stroke-width="16.711" stroke="rgb(33,33,33)" fill="none" stroke-linecap="round"></path><path d="M 382.500,265.000 C 384.000,265.000 384.000,265.000 385.500,265.000" stroke-width="16.607" stroke="rgb(33,33,33)" fill="none" stroke-linecap="round"></path><path d="M 385.500,265.000 C 386.500,265.000 386.500,265.000 387.500,265.000" stroke-width="16.751" stroke="rgb(33,33,33)" fill="none" stroke-linecap="round"></path><path d="M 387.500,265.000 C 388.000,265.000 388.000,265.000 388.500,265.000" stroke-width="17.237" stroke="rgb(33,33,33)" fill="none" stroke-linecap="round"></path><path d="M 388.500,265.000 C 389.000,265.000 389.725,264.700 389.500,265.000" stroke-width="17.510" stroke="rgb(33,33,33)" fill="none" stroke-linecap="round"></path><path d="M 389.500,265.000 C 388.225,266.700 387.500,267.000 385.500,269.000" stroke-width="17.841" stroke="rgb(33,33,33)" fill="none" stroke-linecap="round"></path><path d="M 385.500,269.000 C 381.000,273.500 381.000,273.500 376.500,278.000" stroke-width="15.700" stroke="rgb(33,33,33)" fill="none" stroke-linecap="round"></path><path d="M 376.500,278.000 C 365.500,289.000 366.270,289.843 354.500,300.000" stroke-width="12.836" stroke="rgb(33,33,33)" fill="none" stroke-linecap="round"></path><path d="M 354.500,300.000 C 304.270,343.343 303.750,342.821 252.500,385.000" stroke-width="8.835" stroke="rgb(33,33,33)" fill="none" stroke-linecap="round"></path><path d="M 252.500,385.000 C 247.250,389.321 247.151,389.233 241.500,393.000" stroke-width="8.959" stroke="rgb(33,33,33)" fill="none" stroke-linecap="round"></path><path d="M 241.500,393.000 C 238.151,395.233 238.097,395.201 234.500,397.000" stroke-width="9.537" stroke="rgb(33,33,33)" fill="none" stroke-linecap="round"></path><path d="M 234.500,397.000 C 232.097,398.201 231.876,397.812 229.500,399.000" stroke-width="10.184" stroke="rgb(33,33,33)" fill="none" stroke-linecap="round"></path><path d="M 229.500,399.000 C 228.876,399.312 229.121,399.793 228.500,400.000" stroke-width="11.161" stroke="rgb(33,33,33)" fill="none" stroke-linecap="round"></path><path d="M 228.500,400.000 C 227.621,400.293 227.167,400.333 226.500,400.000" stroke-width="12.115" stroke="rgb(33,33,33)" fill="none" stroke-linecap="round"></path><path d="M 226.500,400.000 C 226.167,399.833 226.380,399.481 226.500,399.000" stroke-width="13.161" stroke="rgb(33,33,33)" fill="none" stroke-linecap="round"></path><path d="M 226.500,399.000 C 226.880,397.481 226.797,397.407 227.500,396.000" stroke-width="13.686" stroke="rgb(33,33,33)" fill="none" stroke-linecap="round"></path><path d="M 227.500,396.000 C 228.797,393.407 228.602,393.190 230.500,391.000" stroke-width="13.744" stroke="rgb(33,33,33)" fill="none" stroke-linecap="round"></path><path d="M 230.500,391.000 C 235.102,385.690 235.183,385.653 240.500,381.000" stroke-width="12.686" stroke="rgb(33,33,33)" fill="none" stroke-linecap="round"></path><path d="M 240.500,381.000 C 255.183,368.153 254.705,367.443 270.500,356.000" stroke-width="9.517" stroke="rgb(33,33,33)" fill="none" stroke-linecap="round"></path><path d="M 270.500,356.000 C 303.705,331.943 304.024,332.260 338.500,310.000" stroke-width="6.750" stroke="rgb(33,33,33)" fill="none" stroke-linecap="round"></path><path d="M 338.500,310.000 C 367.524,291.260 368.078,292.126 397.500,274.000" stroke-width="6.750" stroke="rgb(33,33,33)" fill="none" stroke-linecap="round"></path><path d="M 397.500,274.000 C 424.078,257.626 423.617,256.854 450.500,241.000" stroke-width="6.750" stroke="rgb(33,33,33)" fill="none" stroke-linecap="round"></path><path d="M 450.500,241.000 C 482.117,222.354 482.317,222.635 514.500,205.000" stroke-width="6.750" stroke="rgb(33,33,33)" fill="none" stroke-linecap="round"></path><path d="M 514.500,205.000 C 518.817,202.635 519.108,203.196 523.500,201.000" stroke-width="6.750" stroke="rgb(33,33,33)" fill="none" stroke-linecap="round"></path><path d="M 523.500,201.000 C 525.108,200.196 524.957,199.926 526.500,199.000" stroke-width="6.750" stroke="rgb(33,33,33)" fill="none" stroke-linecap="round"></path></svg>