<svg xmlns="http://www.w3.org/2000/svg" xmlns:xlink="http://www.w3.org/1999/xlink" viewBox="0 0 800 500"><circle r="6" cx="84.5" cy="305.5" fill="rgb(33,33,33)"></circle><path d="M 158.500,127.500 C 158.000,129.000 158.260,129.360 157.500,130.500" stroke-width="19.375" stroke="rgb(33,33,33)" fill="none" stroke-linecap="round"></path><path d="M 157.500,130.500 C 157.260,130.860 156.914,130.293 156.500,130.500" stroke-width="19.083" stroke="rgb(33,33,33)" fill="none" stroke-linecap="round"></path><path d="M 136.500,145.500 C 133.000,148.000 133.263,148.493 129.500,150.500" stroke-width="15.737" stroke="rgb(33,33,33)" fill="none" stroke-linecap="round"></path><path d="M 129.500,150.500 C 125.763,152.493 125.175,151.495 121.500,153.500" stroke-width="14.033" stroke="rgb(33,33,33)" fill="none" stroke-linecap="round"></path><path d="M 121.500,153.500 C 119.675,154.495 120.204,155.283 118.500,156.500" stroke-width="13.865" stroke="rgb(33,33,33)" fill="none" stroke-linecap="round"></path><path d="M 118.500,156.500 C 116.704,157.783 116.266,157.175 114.500,158.500" stroke-width="13.797" stroke="rgb(33,33,33)" fill="none" stroke-linecap="round"></path><path d="M 114.500,158.500 C 112.266,160.175 112.332,160.362 110.500,162.500" stroke-width="13.185" stroke="rgb(33,33,33)" fill="none" stroke-linecap="round"></path><path d="M 110.500,162.500 C 109.332,163.862 109.750,164.250 108.500,165.500" stroke-width="13.333" stroke="rgb(33,33,33)" fill="none" stroke-linecap="round"></path><path d="M 108.500,165.500 C 107.250,166.750 107.043,166.574 105.500,167.500" stroke-width="13.728" stroke="rgb(33,33,33)" fill="none" stroke-linecap="round"></path><path d="M 102.500,176.500 C 102.500,177.500 102.500,177.500 102.500,178.500" stroke-width="18.984" stroke="rgb(33,33,33)" fill="none" stroke-linecap="round"></path><path d="M 102.500,178.500 C 102.500,180.000 102.500,180.000 102.500,181.500" stroke-width="17.947" stroke="rgb(33,33,33)" fill="none" stroke-linecap="round"></path><path d="M 102.500,181.500 C 102.500,183.000 102.214,183.068 102.500,184.500" stroke-width="17.195" stroke="rgb(33,33,33)" fill="none" stroke-linecap="round"></path><path d="M 102.500,184.500 C 102.714,185.568 102.734,185.734 103.500,186.500" stroke-width="16.903" stroke="rgb(33,33,33)" fill="none" stroke-linecap="round"></path><path d="M 103.500,186.500 C 104.734,187.734 105.063,187.423 106.500,188.500" stroke-width="16.219" stroke="rgb(33,33,33)" fill="none" stroke-linecap="round"></path><path d="M 106.500,188.500 C 107.063,188.923 107.077,188.937 107.500,189.500" stroke-width="16.646" stroke="rgb(33,33,33)" fill="none" stroke-linecap="round"></path><path d="M 107.500,189.500 C 108.577,190.937 108.243,191.243 109.500,192.500" stroke-width="16.029" stroke="rgb(33,33,33)" fill="none" stroke-linecap="round"></path><path d="M 109.500,192.500 C 111.243,194.243 111.884,193.653 113.500,195.500" stroke-width="15.161" stroke="rgb(33,33,33)" fill="none" stroke-linecap="round"></path><path d="M 113.500,195.500 C 115.384,197.653 114.890,198.086 116.500,200.500" stroke-width="14.318" stroke="rgb(33,33,33)" fill="none" stroke-linecap="round"></path><path d="M 116.500,200.500 C 116.890,201.086 117.113,200.919 117.500,201.500" stroke-width="14.815" stroke="rgb(33,33,33)" fill="none" stroke-linecap="round"></path><path d="M 117.500,201.500 C 118.113,202.419 118.086,202.464 118.500,203.500" stroke-width="15.077" stroke="rgb(33,33,33)" fill="none" stroke-linecap="round"></path><path d="M 118.500,203.500 C 119.086,204.964 118.914,205.036 119.500,206.500" stroke-width="14.837" stroke="rgb(33,33,33)" fill="none" stroke-linecap="round"></path><path d="M 119.500,206.500 C 119.914,207.536 120.086,207.464 120.500,208.500" stroke-width="15.025" stroke="rgb(33,33,33)" fill="none" stroke-linecap="round"></path><path d="M 120.500,208.500 C 121.086,209.964 121.194,209.969 121.500,211.500" stroke-width="15.095" stroke="rgb(33,33,33)" fill="none" stroke-linecap="round"></path><path d="M 121.500,211.500 C 121.694,212.469 121.191,212.573 121.500,213.500" stroke-width="15.114" stroke="rgb(33,33,33)" fill="none" stroke-linecap="round"></path><path d="M 121.500,213.500 C 122.191,215.573 122.500,215.500 123.500,217.500" stroke-width="14.635" stroke="rgb(33,33,33)" fill="none" stroke-linecap="round"></path><path d="M 123.500,217.500 C 125.000,220.500 125.181,220.421 126.500,223.500" stroke-width="14.172" stroke="rgb(33,33,33)" fill="none" stroke-linecap="round"></path><path d="M 126.500,223.500 C 128.181,227.421 127.843,227.565 129.500,231.500" stroke-width="12.019" stroke="rgb(33,33,33)" fill="none" stroke-linecap="round"></path><path d="M 129.500,231.500 C 131.843,237.065 131.598,237.223 134.500,242.500" stroke-width="10.946" stroke="rgb(33,33,33)" fill="none" stroke-linecap="round"></path><path d="M 134.500,242.500 C 137.098,247.223 138.109,246.718 140.500,251.500" stroke-width="10.382" stroke="rgb(33,33,33)" fill="none" stroke-linecap="round"></path><path d="M 140.500,251.500 C 142.109,254.718 140.373,255.663 142.500,258.500" stroke-width="10.426" stroke="rgb(33,33,33)" fill="none" stroke-linecap="round"></path><path d="M 142.500,258.500 C 147.873,265.663 149.782,264.436 155.500,271.500" stroke-width="9.148" stroke="rgb(33,33,33)" fill="none" stroke-linecap="round"></path><path d="M 155.500,271.500 C 158.282,274.936 156.500,276.324 159.500,279.500" stroke-width="9.228" stroke="rgb(33,33,33)" fill="none" stroke-linecap="round"></path><path d="M 159.500,279.500 C 165.000,285.324 166.098,284.378 172.500,289.500" stroke-width="8.560" stroke="rgb(33,33,33)" fill="none" stroke-linecap="round"></path><path d="M 172.500,289.500 C 178.598,294.378 178.178,294.948 184.500,299.500" stroke-width="8.156" stroke="rgb(33,33,33)" fill="none" stroke-linecap="round"></path><path d="M 184.500,299.500 C 190.678,303.948 191.246,303.150 197.500,307.500" stroke-width="7.886" stroke="rgb(33,33,33)" fill="none" stroke-linecap="round"></path><path d="M 197.500,307.500 C 202.746,311.150 202.833,311.167 207.500,315.500" stroke-width="7.866" stroke="rgb(33,33,33)" fill="none" stroke-linecap="round"></path><path d="M 207.500,315.500 C 209.833,317.667 209.145,318.406 211.500,320.500" stroke-width="8.369" stroke="rgb(33,33,33)" fill="none" stroke-linecap="round"></path><path d="M 211.500,320.500 C 213.645,322.406 214.366,321.793 216.500,323.500" stroke-width="8.876" stroke="rgb(33,33,33)" fill="none" stroke-linecap="round"></path></svg>