<svg xmlns="http://www.w3.org/2000/svg" xmlns:xlink="http://www.w3.org/1999/xlink" viewBox="0 0 360 500"><path d="M 180.527,111.969 C 177.065,131.910 177.117,131.919 173.603,151.850" stroke-width="18.800" stroke="rgb(33,33,33)" fill="none" stroke-linecap="round"></path><path d="M 173.603,151.850 C 170.937,166.974 170.672,166.930 168.166,182.080" stroke-width="14.230" stroke="rgb(33,33,33)" fill="none" stroke-linecap="round"></path><path d="M 168.166,182.080 C 165.784,196.475 165.409,196.443 163.827,210.940" stroke-width="12.041" stroke="rgb(33,33,33)" fill="none" stroke-linecap="round"></path><path d="M 163.827,210.940 C 161.696,230.459 161.547,230.497 160.740,250.112" stroke-width="10.086" stroke="rgb(33,33,33)" fill="none" stroke-linecap="round"></path><path d="M 160.740,250.112 C 160.003,268.041 159.527,268.179 160.739,286.029" stroke-width="9.086" stroke="rgb(33,33,33)" fill="none" stroke-linecap="round"></path><path d="M 160.739,286.029 C 161.486,297.023 162.465,296.969 164.658,307.801" stroke-width="9.027" stroke="rgb(33,33,33)" fill="none" stroke-linecap="round"></path><path d="M 164.658,307.801 C 165.281,310.876 165.514,313.645 166.370,313.844" stroke-width="9.843" stroke="rgb(33,33,33)" fill="none" stroke-linecap="round"></path><path d="M 166.370,313.844 C 167.121,314.019 167.728,311.250 167.872,308.549" stroke-width="10.551" stroke="rgb(33,33,33)" fill="none" stroke-linecap="round"></path><path d="M 167.872,308.549 C 168.078,304.679 167.633,304.605 167.071,300.702" stroke-width="10.906" stroke="rgb(33,33,33)" fill="none" stroke-linecap="round"></path><path d="M 167.071,300.702 C 165.228,287.894 165.310,287.872 163.062,275.127" stroke-width="9.853" stroke="rgb(33,33,33)" fill="none" stroke-linecap="round"></path><path d="M 163.062,275.127 C 160.282,259.367 160.720,259.242 157.015,243.692" stroke-width="8.917" stroke="rgb(33,33,33)" fill="none" stroke-linecap="round"></path><path d="M 157.015,243.692 C 154.259,232.127 155.370,231.256 150.141,220.897" stroke-width="8.749" stroke="rgb(33,33,33)" fill="none" stroke-linecap="round"></path><path d="M 150.141,220.897 C 146.966,214.607 146.259,212.754 140.207,210.394" stroke-width="9.115" stroke="rgb(33,33,33)" fill="none" stroke-linecap="round"></path><path d="M 140.207,210.394 C 134.461,208.153 132.796,209.330 126.544,211.696" stroke-width="9.424" stroke="rgb(33,33,33)" fill="none" stroke-linecap="round"></path><path d="M 126.544,211.696 C 118.029,214.918 117.445,215.322 110.672,221.570" stroke-width="9.467" stroke="rgb(33,33,33)" fill="none" stroke-linecap="round"></path><path d="M 110.672,221.570 C 102.143,229.437 101.529,229.716 95.940,239.927" stroke-width="9.320" stroke="rgb(33,33,33)" fill="none" stroke-linecap="round"></path><path d="M 95.940,239.927 C 88.060,254.323 88.066,254.854 83.735,270.785" stroke-width="8.606" stroke="rgb(33,33,33)" fill="none" stroke-linecap="round"></path><path d="M 83.735,270.785 C 78.359,290.562 78.659,290.919 76.527,311.344" stroke-width="7.889" stroke="rgb(33,33,33)" fill="none" stroke-linecap="round"></path><path d="M 76.527,311.344 C 74.663,329.208 75.329,329.378 75.743,347.363" stroke-width="7.489" stroke="rgb(33,33,33)" fill="none" stroke-linecap="round"></path><path d="M 75.743,347.363 C 76.059,361.114 75.227,361.609 77.987,374.817" stroke-width="7.674" stroke="rgb(33,33,33)" fill="none" stroke-linecap="round"></path><path d="M 77.987,374.817 C 79.057,379.935 80.325,382.681 83.403,384.015" stroke-width="8.311" stroke="rgb(33,33,33)" fill="none" stroke-linecap="round"></path><path d="M 83.403,384.015 C 85.332,384.851 86.567,382.127 88.002,379.156" stroke-width="9.021" stroke="rgb(33,33,33)" fill="none" stroke-linecap="round"></path><path d="M 88.002,379.156 C 92.886,369.049 93.071,368.815 96.042,357.859" stroke-width="8.880" stroke="rgb(33,33,33)" fill="none" stroke-linecap="round"></path><path d="M 96.042,357.859 C 101.171,338.943 98.988,338.331 104.201,319.412" stroke-width="8.143" stroke="rgb(33,33,33)" fill="none" stroke-linecap="round"></path><path d="M 104.201,319.412 C 110.894,295.123 109.925,294.521 119.853,271.442" stroke-width="7.276" stroke="rgb(33,33,33)" fill="none" stroke-linecap="round"></path><path d="M 119.853,271.442 C 129.602,248.779 129.688,248.281 143.555,227.929" stroke-width="6.750" stroke="rgb(33,33,33)" fill="none" stroke-linecap="round"></path><path d="M 143.555,227.929 C 155.027,211.092 155.191,210.261 170.532,197.064" stroke-width="6.750" stroke="rgb(33,33,33)" fill="none" stroke-linecap="round"></path><path d="M 170.532,197.064 C 182.720,186.580 183.767,186.766 198.612,180.567" stroke-width="6.750" stroke="rgb(33,33,33)" fill="none" stroke-linecap="round"></path><path d="M 198.612,180.567 C 209.919,175.845 210.912,174.851 222.836,175.223" stroke-width="6.925" stroke="rgb(33,33,33)" fill="none" stroke-linecap="round"></path><path d="M 222.836,175.223 C 232.470,175.524 235.166,175.489 241.729,181.914" stroke-width="7.215" stroke="rgb(33,33,33)" fill="none" stroke-linecap="round"></path><path d="M 241.729,181.914 C 248.997,189.029 248.831,191.610 250.497,202.303" stroke-width="7.482" stroke="rgb(33,33,33)" fill="none" stroke-linecap="round"></path><path d="M 250.497,202.303 C 252.605,215.829 252.243,216.854 249.278,230.352" stroke-width="7.456" stroke="rgb(33,33,33)" fill="none" stroke-linecap="round"></path><path d="M 249.278,230.352 C 246.436,243.293 246.220,244.192 238.883,255.180" stroke-width="7.529" stroke="rgb(33,33,33)" fill="none" stroke-linecap="round"></path><path d="M 238.883,255.180 C 231.478,266.271 230.647,266.665 219.794,274.511" stroke-width="7.525" stroke="rgb(33,33,33)" fill="none" stroke-linecap="round"></path><path d="M 219.794,274.511 C 209.270,282.119 208.375,281.414 196.129,286.087" stroke-width="7.654" stroke="rgb(33,33,33)" fill="none" stroke-linecap="round"></path><path d="M 196.129,286.087 C 185.954,289.970 185.645,289.340 174.951,291.623" stroke-width="7.867" stroke="rgb(33,33,33)" fill="none" stroke-linecap="round"></path><path d="M 174.951,291.623 C 162.401,294.303 162.381,295.147 149.641,296.013" stroke-width="7.848" stroke="rgb(33,33,33)" fill="none" stroke-linecap="round"></path><path d="M 149.641,296.013 C 137.739,296.822 137.650,295.569 125.666,294.973" stroke-width="8.001" stroke="rgb(33,33,33)" fill="none" stroke-linecap="round"></path><path d="M 125.666,294.973 C 116.396,294.512 116.390,294.556 107.133,293.900" stroke-width="8.242" stroke="rgb(33,33,33)" fill="none" stroke-linecap="round"></path><path d="M 107.133,293.900 C 104.003,293.678 103.936,293.841 100.892,293.218" stroke-width="9.024" stroke="rgb(33,33,33)" fill="none" stroke-linecap="round"></path><path d="M 100.892,293.218 C 99.584,292.950 99.074,292.752 98.429,292.119" stroke-width="9.991" stroke="rgb(33,33,33)" fill="none" stroke-linecap="round"></path><path d="M 98.429,292.119 C 98.203,291.897 98.707,291.657 99.151,291.509" stroke-width="11.054" stroke="rgb(33,33,33)" fill="none" stroke-linecap="round"></path><path d="M 99.151,291.509 C 102.646,290.348 102.917,290.983 106.307,289.502" stroke-width="11.551" stroke="rgb(33,33,33)" fill="none" stroke-linecap="round"></path><path d="M 106.307,289.502 C 113.376,286.413 113.340,286.207 120.069,282.370" stroke-width="11.193" stroke="rgb(33,33,33)" fill="none" stroke-linecap="round"></path><path d="M 120.069,282.370 C 130.835,276.231 130.762,276.087 141.298,269.549" stroke-width="10.611" stroke="rgb(33,33,33)" fill="none" stroke-linecap="round"></path><path d="M 141.298,269.549 C 156.577,260.069 156.218,259.466 171.699,250.334" stroke-width="9.420" stroke="rgb(33,33,33)" fill="none" stroke-linecap="round"></path><path d="M 171.699,250.334 C 187.105,241.246 187.238,241.442 203.071,233.110" stroke-width="8.554" stroke="rgb(33,33,33)" fill="none" stroke-linecap="round"></path><path d="M 203.071,233.110 C 220.563,223.905 220.504,223.746 238.350,215.259" stroke-width="7.914" stroke="rgb(33,33,33)" fill="none" stroke-linecap="round"></path><path d="M 238.350,215.259 C 252.009,208.763 251.865,208.171 266.081,203.145" stroke-width="7.640" stroke="rgb(33,33,33)" fill="none" stroke-linecap="round"></path><path d="M 266.081,203.145 C 276.790,199.359 277.019,199.553 288.201,197.634" stroke-width="7.946" stroke="rgb(33,33,33)" fill="none" stroke-linecap="round"></path><path d="M 288.201,197.634 C 294.903,196.484 295.466,196.261 301.849,197.007" stroke-width="8.320" stroke="rgb(33,33,33)" fill="none" stroke-linecap="round"></path><path d="M 301.849,197.007 C 303.417,197.190 304.656,198.138 304.103,199.492" stroke-width="9.250" stroke="rgb(33,33,33)" fill="none" stroke-linecap="round"></path><path d="M 304.103,199.492 C 301.770,205.200 301.179,206.361 296.077,211.131" stroke-width="9.605" stroke="rgb(33,33,33)" fill="none" stroke-linecap="round"></path><path d="M 296.077,211.131 C 286.252,220.316 285.090,219.170 274.250,227.403" stroke-width="9.175" stroke="rgb(33,33,33)" fill="none" stroke-linecap="round"></path><path d="M 274.250,227.403 C 257.844,239.865 257.833,239.853 241.585,252.521" stroke-width="8.264" stroke="rgb(33,33,33)" fill="none" stroke-linecap="round"></path><path d="M 241.585,252.521 C 222.453,267.437 222.648,267.688 203.490,282.570" stroke-width="7.502" stroke="rgb(33,33,33)" fill="none" stroke-linecap="round"></path><path d="M 203.490,282.570 C 188.258,294.403 189.397,296.539 172.805,305.951" stroke-width="7.046" stroke="rgb(33,33,33)" fill="none" stroke-linecap="round"></path><path d="M 172.805,305.951 C 159.113,313.718 158.307,313.593 142.922,316.927" stroke-width="6.990" stroke="rgb(33,33,33)" fill="none" stroke-linecap="round"></path><path d="M 142.922,316.927 C 129.488,319.838 128.462,320.273 115.166,318.441" stroke-width="7.164" stroke="rgb(33,33,33)" fill="none" stroke-linecap="round"></path><path d="M 115.166,318.441 C 107.978,317.451 106.423,316.519 101.954,311.284" stroke-width="7.644" stroke="rgb(33,33,33)" fill="none" stroke-linecap="round"></path><path d="M 101.954,311.284 C 98.353,307.066 97.503,304.839 99.025,299.536" stroke-width="8.226" stroke="rgb(33,33,33)" fill="none" stroke-linecap="round"></path><path d="M 99.025,299.536 C 101.294,291.633 102.673,290.406 109.536,284.872" stroke-width="8.456" stroke="rgb(33,33,33)" fill="none" stroke-linecap="round"></path><path d="M 109.536,284.872 C 120.446,276.075 121.691,277.137 134.571,270.875" stroke-width="8.428" stroke="rgb(33,33,33)" fill="none" stroke-linecap="round"></path><path d="M 134.571,270.875 C 150.382,263.188 150.385,262.937 166.918,256.973" stroke-width="7.903" stroke="rgb(33,33,33)" fill="none" stroke-linecap="round"></path><path d="M 166.918,256.973 C 185.662,250.211 185.719,249.882 205.126,245.422" stroke-width="7.367" stroke="rgb(33,33,33)" fill="none" stroke-linecap="round"></path><path d="M 205.126,245.422 C 224.629,240.940 224.948,242.353 244.738,239.088" stroke-width="6.982" stroke="rgb(33,33,33)" fill="none" stroke-linecap="round"></path><path d="M 244.738,239.088 C 259.816,236.600 259.808,236.546 274.862,233.915" stroke-width="7.125" stroke="rgb(33,33,33)" fill="none" stroke-linecap="round"></path><path d="M 274.862,233.915 C 288.255,231.575 288.351,231.996 301.632,229.146" stroke-width="7.197" stroke="rgb(33,33,33)" fill="none" stroke-linecap="round"></path><path d="M 301.632,229.146 C 310.589,227.224 311.234,228.128 319.337,224.370" stroke-width="7.513" stroke="rgb(33,33,33)" fill="none" stroke-linecap="round"></path><path d="M 319.337,224.370 C 323.941,222.235 324.800,220.443 327.045,217.359" stroke-width="8.144" stroke="rgb(33,33,33)" fill="none" stroke-linecap="round"></path><path d="M 327.045,217.359 C 327.538,216.682 325.895,217.214 324.814,216.848" stroke-width="9.137" stroke="rgb(33,33,33)" fill="none" stroke-linecap="round"></path><path d="M 324.814,216.848 C 322.645,216.113 322.668,216.029 320.544,215.157" stroke-width="9.990" stroke="rgb(33,33,33)" fill="none" stroke-linecap="round"></path><path d="M 320.544,215.157 C 317.605,213.950 317.584,213.992 314.687,212.689" stroke-width="10.652" stroke="rgb(33,33,33)" fill="none" stroke-linecap="round"></path><path d="M 314.687,212.689 C 312.494,211.703 312.567,211.538 310.363,210.579" stroke-width="11.413" stroke="rgb(33,33,33)" fill="none" stroke-linecap="round"></path><path d="M 310.363,210.579 C 308.415,209.732 308.331,209.924 306.384,209.077" stroke-width="12.185" stroke="rgb(33,33,33)" fill="none" stroke-linecap="round"></path></svg>