<svg xmlns="http://www.w3.org/2000/svg" xmlns:xlink="http://www.w3.org/1999/xlink" viewBox="0 0 360 500"><circle r="6" cx="122" cy="235" fill="rgb(33,33,33)"></circle><path d="M 106.523,245.031 C 107.094,238.044 105.429,237.600 107.665,231.058" stroke-width="19.132" stroke="rgb(33,33,33)" fill="none" stroke-linecap="round"></path><path d="M 107.665,231.058 C 112.635,216.520 112.684,215.981 120.935,202.870" stroke-width="14.731" stroke="rgb(33,33,33)" fill="none" stroke-linecap="round"></path><path d="M 120.935,202.870 C 131.886,185.469 132.886,185.941 146.068,170.034" stroke-width="10.940" stroke="rgb(33,33,33)" fill="none" stroke-linecap="round"></path><path d="M 146.068,170.034 C 158.782,154.691 159.036,154.862 172.727,140.369" stroke-width="9.291" stroke="rgb(33,33,33)" fill="none" stroke-linecap="round"></path><path d="M 172.727,140.369 C 190.035,122.048 189.490,121.398 208.065,104.406" stroke-width="7.983" stroke="rgb(33,33,33)" fill="none" stroke-linecap="round"></path><path d="M 208.065,104.406 C 226.777,87.289 226.771,86.997 247.300,72.152" stroke-width="7.248" stroke="rgb(33,33,33)" fill="none" stroke-linecap="round"></path><path d="M 247.300,72.152 C 263.561,60.393 263.747,60.112 281.645,51.197" stroke-width="7.026" stroke="rgb(33,33,33)" fill="none" stroke-linecap="round"></path><path d="M 281.645,51.197 C 292.546,45.767 293.298,46.070 304.897,43.462" stroke-width="7.328" stroke="rgb(33,33,33)" fill="none" stroke-linecap="round"></path><path d="M 304.897,43.462 C 306.990,42.991 309.457,43.380 309.028,45.039" stroke-width="8.222" stroke="rgb(33,33,33)" fill="none" stroke-linecap="round"></path><path d="M 309.028,45.039 C 307.493,50.973 305.957,52.569 300.969,58.648" stroke-width="8.504" stroke="rgb(33,33,33)" fill="none" stroke-linecap="round"></path><path d="M 300.969,58.648 C 290.706,71.156 289.980,70.659 278.526,82.213" stroke-width="8.210" stroke="rgb(33,33,33)" fill="none" stroke-linecap="round"></path><path d="M 278.526,82.213 C 262.459,98.421 262.125,98.090 245.927,114.172" stroke-width="7.042" stroke="rgb(33,33,33)" fill="none" stroke-linecap="round"></path><path d="M 245.927,114.172 C 224.826,135.122 224.303,134.634 203.929,156.277" stroke-width="6.750" stroke="rgb(33,33,33)" fill="none" stroke-linecap="round"></path><path d="M 203.929,156.277 C 180.172,181.514 180.178,181.576 157.664,207.932" stroke-width="6.750" stroke="rgb(33,33,33)" fill="none" stroke-linecap="round"></path><path d="M 157.664,207.932 C 135.454,233.932 135.212,233.811 114.481,260.989" stroke-width="6.750" stroke="rgb(33,33,33)" fill="none" stroke-linecap="round"></path><path d="M 114.481,260.989 C 99.038,281.234 99.479,281.617 85.316,302.778" stroke-width="6.750" stroke="rgb(33,33,33)" fill="none" stroke-linecap="round"></path><path d="M 85.316,302.778 C 81.245,308.861 76.808,314.857 78.013,315.478" stroke-width="6.750" stroke="rgb(33,33,33)" fill="none" stroke-linecap="round"></path><path d="M 78.013,315.478 C 79.325,316.154 84.519,310.802 90.350,305.371" stroke-width="6.750" stroke="rgb(33,33,33)" fill="none" stroke-linecap="round"></path><path d="M 90.350,305.371 C 105.238,291.503 104.817,291.040 119.451,276.881" stroke-width="6.750" stroke="rgb(33,33,33)" fill="none" stroke-linecap="round"></path><path d="M 119.451,276.881 C 139.774,257.217 139.624,257.054 160.263,237.724" stroke-width="6.750" stroke="rgb(33,33,33)" fill="none" stroke-linecap="round"></path><path d="M 160.263,237.724 C 183.082,216.351 183.976,217.277 206.366,195.475" stroke-width="6.750" stroke="rgb(33,33,33)" fill="none" stroke-linecap="round"></path><path d="M 206.366,195.475 C 227.285,175.106 227.852,175.471 246.881,153.382" stroke-width="6.750" stroke="rgb(33,33,33)" fill="none" stroke-linecap="round"></path><path d="M 246.881,153.382 C 261.842,136.015 260.731,135.059 274.346,116.562" stroke-width="6.750" stroke="rgb(33,33,33)" fill="none" stroke-linecap="round"></path><path d="M 274.346,116.562 C 284.764,102.408 283.353,101.127 294.947,88.080" stroke-width="6.750" stroke="rgb(33,33,33)" fill="none" stroke-linecap="round"></path><path d="M 294.947,88.080 C 303.376,78.595 303.552,77.531 314.392,71.498" stroke-width="6.750" stroke="rgb(33,33,33)" fill="none" stroke-linecap="round"></path><path d="M 228.428,129.719 C 225.449,132.880 224.396,132.189 222.470,136.041" stroke-width="19.607" stroke="rgb(33,33,33)" fill="none" stroke-linecap="round"></path><path d="M 222.470,136.041 C 212.794,155.388 211.255,155.379 205.224,176.118" stroke-width="13.153" stroke="rgb(33,33,33)" fill="none" stroke-linecap="round"></path><path d="M 205.224,176.118 C 200.599,192.023 200.115,194.255 201.157,209.330" stroke-width="11.094" stroke="rgb(33,33,33)" fill="none" stroke-linecap="round"></path><path d="M 201.157,209.330 C 201.396,212.781 204.225,212.943 207.785,213.171" stroke-width="11.602" stroke="rgb(33,33,33)" fill="none" stroke-linecap="round"></path><path d="M 207.785,213.171 C 213.143,213.515 214.045,213.189 218.994,210.474" stroke-width="11.635" stroke="rgb(33,33,33)" fill="none" stroke-linecap="round"></path><path d="M 218.994,210.474 C 227.325,205.904 227.399,205.308 234.344,198.600" stroke-width="11.123" stroke="rgb(33,33,33)" fill="none" stroke-linecap="round"></path><path d="M 234.344,198.600 C 242.819,190.415 242.334,189.843 249.835,180.688" stroke-width="10.268" stroke="rgb(33,33,33)" fill="none" stroke-linecap="round"></path><path d="M 249.835,180.688 C 255.840,173.359 255.675,173.219 261.356,165.632" stroke-width="10.241" stroke="rgb(33,33,33)" fill="none" stroke-linecap="round"></path><path d="M 261.356,165.632 C 264.080,161.994 264.028,161.954 266.644,158.238" stroke-width="10.882" stroke="rgb(33,33,33)" fill="none" stroke-linecap="round"></path><path d="M 266.644,158.238 C 267.139,157.535 267.888,156.687 267.577,156.794" stroke-width="11.752" stroke="rgb(33,33,33)" fill="none" stroke-linecap="round"></path><circle r="6" cx="255.32200622558594" cy="162.218994140625" fill="rgb(33,33,33)"></circle></svg>