<svg xmlns="http://www.w3.org/2000/svg" xmlns:xlink="http://www.w3.org/1999/xlink" viewBox="0 0 800 500"><path d="M 179.500,258.000 C 180.000,259.000 179.881,259.072 180.500,260.000" stroke-width="20.217" stroke="rgb(33,33,33)" fill="none" stroke-linecap="round"></path><path d="M 180.500,260.000 C 182.881,263.572 182.593,263.869 185.500,267.000" stroke-width="18.367" stroke="rgb(33,33,33)" fill="none" stroke-linecap="round"></path><path d="M 185.500,267.000 C 189.093,270.869 189.528,270.469 193.500,274.000" stroke-width="16.776" stroke="rgb(33,33,33)" fill="none" stroke-linecap="round"></path><path d="M 193.500,274.000 C 198.528,278.469 198.750,278.250 203.500,283.000" stroke-width="15.295" stroke="rgb(33,33,33)" fill="none" stroke-linecap="round"></path><path d="M 203.500,283.000 C 208.250,287.750 207.637,288.380 212.500,293.000" stroke-width="14.286" stroke="rgb(33,33,33)" fill="none" stroke-linecap="round"></path><path d="M 212.500,293.000 C 217.637,297.880 218.195,297.284 223.500,302.000" stroke-width="13.574" stroke="rgb(33,33,33)" fill="none" stroke-linecap="round"></path><path d="M 223.500,302.000 C 227.195,305.284 227.000,305.500 230.500,309.000" stroke-width="13.411" stroke="rgb(33,33,33)" fill="none" stroke-linecap="round"></path><path d="M 230.500,309.000 C 235.500,314.000 235.500,314.000 240.500,319.000" stroke-width="12.938" stroke="rgb(33,33,33)" fill="none" stroke-linecap="round"></path><path d="M 240.500,319.000 C 244.000,322.500 244.266,322.269 247.500,326.000" stroke-width="12.850" stroke="rgb(33,33,33)" fill="none" stroke-linecap="round"></path><path d="M 247.500,326.000 C 250.766,329.769 250.841,329.821 253.500,334.000" stroke-width="13.342" stroke="rgb(33,33,33)" fill="none" stroke-linecap="round"></path><path d="M 253.500,334.000 C 254.341,335.321 253.809,335.618 254.500,337.000" stroke-width="13.929" stroke="rgb(33,33,33)" fill="none" stroke-linecap="round"></path><path d="M 254.500,337.000 C 254.809,337.618 254.914,337.707 255.500,338.000" stroke-width="14.687" stroke="rgb(33,33,33)" fill="none" stroke-linecap="round"></path><path d="M 255.500,338.000 C 255.914,338.207 256.250,337.750 256.500,338.000" stroke-width="15.410" stroke="rgb(33,33,33)" fill="none" stroke-linecap="round"></path><path d="M 256.500,338.000 C 256.750,338.250 256.500,339.167 256.500,339.000" stroke-width="16.055" stroke="rgb(33,33,33)" fill="none" stroke-linecap="round"></path><path d="M 256.500,339.000 C 256.500,338.667 256.694,337.969 256.500,337.000" stroke-width="16.627" stroke="rgb(33,33,33)" fill="none" stroke-linecap="round"></path><path d="M 256.500,337.000 C 256.194,335.469 255.883,335.532 255.500,334.000" stroke-width="16.682" stroke="rgb(33,33,33)" fill="none" stroke-linecap="round"></path><path d="M 255.500,334.000 C 254.383,329.532 254.479,329.505 253.500,325.000" stroke-width="15.826" stroke="rgb(33,33,33)" fill="none" stroke-linecap="round"></path><path d="M 253.500,325.000 C 251.979,318.005 251.676,318.057 250.500,311.000" stroke-width="14.547" stroke="rgb(33,33,33)" fill="none" stroke-linecap="round"></path><path d="M 250.500,311.000 C 248.676,300.057 249.170,299.974 247.500,289.000" stroke-width="12.978" stroke="rgb(33,33,33)" fill="none" stroke-linecap="round"></path><path d="M 247.500,289.000 C 245.670,276.974 245.304,277.029 243.500,265.000" stroke-width="12.053" stroke="rgb(33,33,33)" fill="none" stroke-linecap="round"></path><path d="M 243.500,265.000 C 242.304,257.029 242.565,256.991 241.500,249.000" stroke-width="11.680" stroke="rgb(33,33,33)" fill="none" stroke-linecap="round"></path><path d="M 241.500,249.000 C 240.565,241.991 240.662,241.972 239.500,235.000" stroke-width="11.481" stroke="rgb(33,33,33)" fill="none" stroke-linecap="round"></path><path d="M 239.500,235.000 C 238.662,229.972 238.568,229.985 237.500,225.000" stroke-width="11.699" stroke="rgb(33,33,33)" fill="none" stroke-linecap="round"></path><path d="M 237.500,225.000 C 237.068,222.985 236.902,223.012 236.500,221.000" stroke-width="12.398" stroke="rgb(33,33,33)" fill="none" stroke-linecap="round"></path><path d="M 236.500,221.000 C 236.402,220.512 236.500,220.000 236.500,220.000" stroke-width="13.347" stroke="rgb(33,33,33)" fill="none" stroke-linecap="round"></path><path d="M 236.500,220.000 C 236.500,220.000 236.500,220.500 236.500,221.000" stroke-width="14.299" stroke="rgb(33,33,33)" fill="none" stroke-linecap="round"></path><path d="M 236.500,221.000 C 236.500,221.500 236.293,221.586 236.500,222.000" stroke-width="15.098" stroke="rgb(33,33,33)" fill="none" stroke-linecap="round"></path><path d="M 236.500,222.000 C 236.793,222.586 236.914,222.707 237.500,223.000" stroke-width="15.767" stroke="rgb(33,33,33)" fill="none" stroke-linecap="round"></path><path d="M 237.500,223.000 C 237.914,223.207 238.000,223.000 238.500,223.000" stroke-width="16.381" stroke="rgb(33,33,33)" fill="none" stroke-linecap="round"></path><path d="M 238.500,223.000 C 239.000,223.000 239.000,223.000 239.500,223.000" stroke-width="16.961" stroke="rgb(33,33,33)" fill="none" stroke-linecap="round"></path><path d="M 239.500,223.000 C 240.000,223.000 240.000,223.000 240.500,223.000" stroke-width="17.405" stroke="rgb(33,33,33)" fill="none" stroke-linecap="round"></path><path d="M 240.500,223.000 C 242.000,223.000 242.049,223.335 243.500,223.000" stroke-width="17.366" stroke="rgb(33,33,33)" fill="none" stroke-linecap="round"></path><path d="M 243.500,223.000 C 248.549,221.835 248.699,222.001 253.500,220.000" stroke-width="16.127" stroke="rgb(33,33,33)" fill="none" stroke-linecap="round"></path><path d="M 253.500,220.000 C 260.699,217.001 260.346,216.156 267.500,213.000" stroke-width="14.690" stroke="rgb(33,33,33)" fill="none" stroke-linecap="round"></path><path d="M 267.500,213.000 C 277.346,208.656 277.426,208.806 287.500,205.000" stroke-width="13.013" stroke="rgb(33,33,33)" fill="none" stroke-linecap="round"></path><path d="M 287.500,205.000 C 299.926,200.306 300.022,200.559 312.500,196.000" stroke-width="11.637" stroke="rgb(33,33,33)" fill="none" stroke-linecap="round"></path><path d="M 312.500,196.000 C 326.022,191.059 325.807,190.401 339.500,186.000" stroke-width="10.374" stroke="rgb(33,33,33)" fill="none" stroke-linecap="round"></path><path d="M 339.500,186.000 C 353.807,181.401 353.971,181.892 368.500,178.000" stroke-width="9.572" stroke="rgb(33,33,33)" fill="none" stroke-linecap="round"></path><path d="M 368.500,178.000 C 381.971,174.392 382.047,174.669 395.500,171.000" stroke-width="9.119" stroke="rgb(33,33,33)" fill="none" stroke-linecap="round"></path><path d="M 395.500,171.000 C 404.047,168.669 404.039,168.626 412.500,166.000" stroke-width="9.268" stroke="rgb(33,33,33)" fill="none" stroke-linecap="round"></path><path d="M 412.500,166.000 C 418.539,164.126 418.446,163.816 424.500,162.000" stroke-width="9.658" stroke="rgb(33,33,33)" fill="none" stroke-linecap="round"></path><path d="M 424.500,162.000 C 428.446,160.816 428.525,161.084 432.500,160.000" stroke-width="10.284" stroke="rgb(33,33,33)" fill="none" stroke-linecap="round"></path><path d="M 432.500,160.000 C 434.025,159.584 434.118,159.691 435.500,159.000" stroke-width="11.173" stroke="rgb(33,33,33)" fill="none" stroke-linecap="round"></path><path d="M 435.500,159.000 C 436.118,158.691 436.207,158.586 436.500,158.000" stroke-width="12.151" stroke="rgb(33,33,33)" fill="none" stroke-linecap="round"></path><path d="M 436.500,158.000 C 436.707,157.586 436.809,157.309 436.500,157.000" stroke-width="13.112" stroke="rgb(33,33,33)" fill="none" stroke-linecap="round"></path><path d="M 436.500,157.000 C 435.809,156.309 435.589,156.198 434.500,156.000" stroke-width="13.837" stroke="rgb(33,33,33)" fill="none" stroke-linecap="round"></path><path d="M 434.500,156.000 C 430.089,155.198 429.995,155.539 425.500,155.000" stroke-width="13.707" stroke="rgb(33,33,33)" fill="none" stroke-linecap="round"></path><path d="M 425.500,155.000 C 417.495,154.039 417.493,154.052 409.500,153.000" stroke-width="12.972" stroke="rgb(33,33,33)" fill="none" stroke-linecap="round"></path><path d="M 409.500,153.000 C 398.493,151.552 398.461,151.744 387.500,150.000" stroke-width="11.842" stroke="rgb(33,33,33)" fill="none" stroke-linecap="round"></path><path d="M 387.500,150.000 C 376.461,148.244 376.553,147.646 365.500,146.000" stroke-width="11.370" stroke="rgb(33,33,33)" fill="none" stroke-linecap="round"></path><path d="M 365.500,146.000 C 353.053,144.146 352.922,144.988 340.500,143.000" stroke-width="10.541" stroke="rgb(33,33,33)" fill="none" stroke-linecap="round"></path><path d="M 340.500,143.000 C 327.922,140.988 327.991,140.544 315.500,138.000" stroke-width="9.852" stroke="rgb(33,33,33)" fill="none" stroke-linecap="round"></path><path d="M 315.500,138.000 C 300.991,135.044 300.869,135.525 286.500,132.000" stroke-width="9.144" stroke="rgb(33,33,33)" fill="none" stroke-linecap="round"></path><path d="M 286.500,132.000 C 274.369,129.025 274.298,129.045 262.500,125.000" stroke-width="9.002" stroke="rgb(33,33,33)" fill="none" stroke-linecap="round"></path><path d="M 262.500,125.000 C 256.798,123.045 256.898,122.699 251.500,120.000" stroke-width="9.416" stroke="rgb(33,33,33)" fill="none" stroke-linecap="round"></path><path d="M 251.500,120.000 C 247.898,118.199 248.139,117.654 244.500,116.000" stroke-width="10.019" stroke="rgb(33,33,33)" fill="none" stroke-linecap="round"></path><path d="M 244.500,116.000 C 242.639,115.154 242.110,115.805 240.500,115.000" stroke-width="10.855" stroke="rgb(33,33,33)" fill="none" stroke-linecap="round"></path><path d="M 240.500,115.000 C 240.110,114.805 240.500,114.000 240.500,114.000" stroke-width="11.883" stroke="rgb(33,33,33)" fill="none" stroke-linecap="round"></path><path d="M 240.500,114.000 C 240.500,114.000 240.500,114.500 240.500,115.000" stroke-width="12.890" stroke="rgb(33,33,33)" fill="none" stroke-linecap="round"></path><path d="M 240.500,115.000 C 240.500,119.000 239.847,119.080 240.500,123.000" stroke-width="13.101" stroke="rgb(33,33,33)" fill="none" stroke-linecap="round"></path><path d="M 240.500,123.000 C 241.847,131.080 242.385,131.030 244.500,139.000" stroke-width="12.419" stroke="rgb(33,33,33)" fill="none" stroke-linecap="round"></path><path d="M 244.500,139.000 C 248.885,155.530 249.124,155.467 253.500,172.000" stroke-width="10.619" stroke="rgb(33,33,33)" fill="none" stroke-linecap="round"></path><path d="M 253.500,172.000 C 258.124,189.467 257.985,189.504 262.500,207.000" stroke-width="9.520" stroke="rgb(33,33,33)" fill="none" stroke-linecap="round"></path><path d="M 262.500,207.000 C 265.985,220.504 265.522,220.645 269.500,234.000" stroke-width="9.287" stroke="rgb(33,33,33)" fill="none" stroke-linecap="round"></path><path d="M 269.500,234.000 C 272.522,244.145 272.880,244.044 276.500,254.000" stroke-width="9.231" stroke="rgb(33,33,33)" fill="none" stroke-linecap="round"></path><path d="M 276.500,254.000 C 278.880,260.544 278.699,260.633 281.500,267.000" stroke-width="9.557" stroke="rgb(33,33,33)" fill="none" stroke-linecap="round"></path><path d="M 281.500,267.000 C 284.199,273.133 283.857,273.536 287.500,279.000" stroke-width="9.864" stroke="rgb(33,33,33)" fill="none" stroke-linecap="round"></path><path d="M 287.500,279.000 C 288.857,281.036 289.757,280.257 291.500,282.000" stroke-width="10.631" stroke="rgb(33,33,33)" fill="none" stroke-linecap="round"></path><path d="M 291.500,282.000 C 292.757,283.257 292.423,283.563 293.500,285.000" stroke-width="11.448" stroke="rgb(33,33,33)" fill="none" stroke-linecap="round"></path><path d="M 293.500,285.000 C 293.923,285.563 293.914,285.707 294.500,286.000" stroke-width="12.417" stroke="rgb(33,33,33)" fill="none" stroke-linecap="round"></path><path d="M 294.500,286.000 C 294.914,286.207 295.500,286.000 295.500,286.000" stroke-width="13.347" stroke="rgb(33,33,33)" fill="none" stroke-linecap="round"></path><path d="M 295.500,286.000 C 295.500,286.000 294.934,286.217 294.500,286.000" stroke-width="14.289" stroke="rgb(33,33,33)" fill="none" stroke-linecap="round"></path><path d="M 294.500,286.000 C 292.934,285.217 293.104,284.802 291.500,284.000" stroke-width="14.715" stroke="rgb(33,33,33)" fill="none" stroke-linecap="round"></path><path d="M 291.500,284.000 C 289.104,282.802 289.049,282.850 286.500,282.000" stroke-width="14.843" stroke="rgb(33,33,33)" fill="none" stroke-linecap="round"></path><path d="M 286.500,282.000 C 284.549,281.350 284.512,281.447 282.500,281.000" stroke-width="15.078" stroke="rgb(33,33,33)" fill="none" stroke-linecap="round"></path><path d="M 282.500,281.000 C 280.012,280.447 280.027,280.230 277.500,280.000" stroke-width="15.176" stroke="rgb(33,33,33)" fill="none" stroke-linecap="round"></path><path d="M 277.500,280.000 C 274.527,279.730 274.500,280.000 271.500,280.000" stroke-width="15.134" stroke="rgb(33,33,33)" fill="none" stroke-linecap="round"></path><path d="M 271.500,280.000 C 269.500,280.000 269.500,280.000 267.500,280.000" stroke-width="15.400" stroke="rgb(33,33,33)" fill="none" stroke-linecap="round"></path><path d="M 267.500,280.000 C 265.000,280.000 265.000,280.000 262.500,280.000" stroke-width="15.449" stroke="rgb(33,33,33)" fill="none" stroke-linecap="round"></path><path d="M 262.500,280.000 C 261.500,280.000 261.208,279.528 260.500,280.000" stroke-width="15.918" stroke="rgb(33,33,33)" fill="none" stroke-linecap="round"></path><path d="M 260.500,280.000 C 259.708,280.528 259.764,280.944 259.500,282.000" stroke-width="16.256" stroke="rgb(33,33,33)" fill="none" stroke-linecap="round"></path><path d="M 259.500,282.000 C 259.264,282.944 259.500,283.000 259.500,284.000" stroke-width="16.598" stroke="rgb(33,33,33)" fill="none" stroke-linecap="round"></path><path d="M 259.500,284.000 C 259.500,285.000 259.500,285.000 259.500,286.000" stroke-width="16.881" stroke="rgb(33,33,33)" fill="none" stroke-linecap="round"></path><path d="M 259.500,286.000 C 259.500,286.500 259.500,286.500 259.500,287.000" stroke-width="17.287" stroke="rgb(33,33,33)" fill="none" stroke-linecap="round"></path><path d="M 259.500,287.000 C 259.500,287.500 259.140,287.760 259.500,288.000" stroke-width="17.636" stroke="rgb(33,33,33)" fill="none" stroke-linecap="round"></path><path d="M 259.500,288.000 C 260.640,288.760 260.955,288.779 262.500,289.000" stroke-width="17.485" stroke="rgb(33,33,33)" fill="none" stroke-linecap="round"></path><path d="M 262.500,289.000 C 264.455,289.279 264.500,289.000 266.500,289.000" stroke-width="17.255" stroke="rgb(33,33,33)" fill="none" stroke-linecap="round"></path><path d="M 266.500,289.000 C 268.500,289.000 268.722,289.667 270.500,289.000" stroke-width="17.113" stroke="rgb(33,33,33)" fill="none" stroke-linecap="round"></path><path d="M 270.500,289.000 C 272.722,288.167 272.757,287.743 274.500,286.000" stroke-width="16.885" stroke="rgb(33,33,33)" fill="none" stroke-linecap="round"></path><path d="M 274.500,286.000 C 275.757,284.743 275.574,284.543 276.500,283.000" stroke-width="16.849" stroke="rgb(33,33,33)" fill="none" stroke-linecap="round"></path><path d="M 276.500,283.000 C 277.074,282.043 277.236,282.056 277.500,281.000" stroke-width="17.070" stroke="rgb(33,33,33)" fill="none" stroke-linecap="round"></path><path d="M 277.500,281.000 C 277.736,280.056 277.500,280.000 277.500,279.000" stroke-width="17.248" stroke="rgb(33,33,33)" fill="none" stroke-linecap="round"></path><path d="M 277.500,279.000 C 277.500,278.500 277.500,278.500 277.500,278.000" stroke-width="17.582" stroke="rgb(33,33,33)" fill="none" stroke-linecap="round"></path><path d="M 277.500,278.000 C 277.500,277.000 277.500,277.000 277.500,276.000" stroke-width="17.707" stroke="rgb(33,33,33)" fill="none" stroke-linecap="round"></path><path d="M 277.500,276.000 C 277.500,275.000 277.500,275.000 277.500,274.000" stroke-width="17.788" stroke="rgb(33,33,33)" fill="none" stroke-linecap="round"></path><path d="M 277.500,274.000 C 277.500,273.500 277.125,273.125 277.500,273.000" stroke-width="18.040" stroke="rgb(33,33,33)" fill="none" stroke-linecap="round"></path><path d="M 277.500,273.000 C 278.625,272.625 279.141,272.490 280.500,273.000" stroke-width="18.302" stroke="rgb(33,33,33)" fill="none" stroke-linecap="round"></path><path d="M 280.500,273.000 C 283.141,273.990 282.863,274.783 285.500,276.000" stroke-width="17.551" stroke="rgb(33,33,33)" fill="none" stroke-linecap="round"></path><path d="M 285.500,276.000 C 289.363,277.783 289.562,277.359 293.500,279.000" stroke-width="16.551" stroke="rgb(33,33,33)" fill="none" stroke-linecap="round"></path><path d="M 293.500,279.000 C 295.562,279.859 295.419,280.220 297.500,281.000" stroke-width="16.444" stroke="rgb(33,33,33)" fill="none" stroke-linecap="round"></path><path d="M 297.500,281.000 C 299.419,281.720 299.555,281.352 301.500,282.000" stroke-width="16.415" stroke="rgb(33,33,33)" fill="none" stroke-linecap="round"></path><path d="M 301.500,282.000 C 302.555,282.352 302.464,282.655 303.500,283.000" stroke-width="16.691" stroke="rgb(33,33,33)" fill="none" stroke-linecap="round"></path><path d="M 303.500,283.000 C 303.964,283.155 304.000,283.000 304.500,283.000" stroke-width="17.145" stroke="rgb(33,33,33)" fill="none" stroke-linecap="round"></path><path d="M 304.500,283.000 C 305.000,283.000 305.250,283.250 305.500,283.000" stroke-width="17.507" stroke="rgb(33,33,33)" fill="none" stroke-linecap="round"></path><path d="M 305.500,283.000 C 305.750,282.750 305.500,282.500 305.500,282.000" stroke-width="17.797" stroke="rgb(33,33,33)" fill="none" stroke-linecap="round"></path><path d="M 305.500,282.000 C 305.500,281.000 305.500,281.000 305.500,280.000" stroke-width="17.860" stroke="rgb(33,33,33)" fill="none" stroke-linecap="round"></path><path d="M 305.500,280.000 C 305.500,277.500 305.500,277.500 305.500,275.000" stroke-width="17.418" stroke="rgb(33,33,33)" fill="none" stroke-linecap="round"></path><path d="M 305.500,275.000 C 305.500,271.500 306.248,271.368 305.500,268.000" stroke-width="16.632" stroke="rgb(33,33,33)" fill="none" stroke-linecap="round"></path><path d="M 305.500,268.000 C 304.248,262.368 303.673,262.432 301.500,257.000" stroke-width="15.437" stroke="rgb(33,33,33)" fill="none" stroke-linecap="round"></path><path d="M 301.500,257.000 C 298.673,249.932 298.412,250.037 295.500,243.000" stroke-width="14.274" stroke="rgb(33,33,33)" fill="none" stroke-linecap="round"></path><path d="M 295.500,243.000 C 292.412,235.537 292.647,235.437 289.500,228.000" stroke-width="13.371" stroke="rgb(33,33,33)" fill="none" stroke-linecap="round"></path><path d="M 289.500,228.000 C 287.147,222.437 287.299,222.343 284.500,217.000" stroke-width="12.959" stroke="rgb(33,33,33)" fill="none" stroke-linecap="round"></path><path d="M 284.500,217.000 C 281.799,211.843 281.500,212.000 278.500,207.000" stroke-width="12.925" stroke="rgb(33,33,33)" fill="none" stroke-linecap="round"></path><path d="M 278.500,207.000 C 277.000,204.500 276.915,204.547 275.500,202.000" stroke-width="13.369" stroke="rgb(33,33,33)" fill="none" stroke-linecap="round"></path><path d="M 275.500,202.000 C 274.415,200.047 274.640,199.899 273.500,198.000" stroke-width="13.762" stroke="rgb(33,33,33)" fill="none" stroke-linecap="round"></path><path d="M 273.500,198.000 C 273.140,197.399 272.793,197.586 272.500,197.000" stroke-width="14.518" stroke="rgb(33,33,33)" fill="none" stroke-linecap="round"></path><path d="M 272.500,197.000 C 272.293,196.586 272.500,196.000 272.500,196.000" stroke-width="15.261" stroke="rgb(33,33,33)" fill="none" stroke-linecap="round"></path><path d="M 272.500,196.000 C 272.500,196.000 272.445,196.503 272.500,197.000" stroke-width="15.972" stroke="rgb(33,33,33)" fill="none" stroke-linecap="round"></path><path d="M 272.500,197.000 C 272.945,201.003 271.999,201.315 273.500,205.000" stroke-width="15.531" stroke="rgb(33,33,33)" fill="none" stroke-linecap="round"></path><path d="M 273.500,205.000 C 277.499,214.815 278.199,214.670 283.500,224.000" stroke-width="13.398" stroke="rgb(33,33,33)" fill="none" stroke-linecap="round"></path><path d="M 283.500,224.000 C 290.699,236.670 290.029,237.185 298.500,249.000" stroke-width="11.557" stroke="rgb(33,33,33)" fill="none" stroke-linecap="round"></path><path d="M 298.500,249.000 C 309.029,263.685 309.760,263.206 321.500,277.000" stroke-width="9.985" stroke="rgb(33,33,33)" fill="none" stroke-linecap="round"></path><path d="M 321.500,277.000 C 329.760,286.706 329.640,286.854 338.500,296.000" stroke-width="9.541" stroke="rgb(33,33,33)" fill="none" stroke-linecap="round"></path><path d="M 338.500,296.000 C 345.140,302.854 345.298,302.737 352.500,309.000" stroke-width="9.477" stroke="rgb(33,33,33)" fill="none" stroke-linecap="round"></path><path d="M 352.500,309.000 C 356.798,312.737 356.940,312.580 361.500,316.000" stroke-width="9.909" stroke="rgb(33,33,33)" fill="none" stroke-linecap="round"></path><path d="M 361.500,316.000 C 364.940,318.580 364.793,319.146 368.500,321.000" stroke-width="10.460" stroke="rgb(33,33,33)" fill="none" stroke-linecap="round"></path><path d="M 368.500,321.000 C 369.793,321.646 370.000,321.000 371.500,321.000" stroke-width="11.350" stroke="rgb(33,33,33)" fill="none" stroke-linecap="round"></path><path d="M 371.500,321.000 C 372.000,321.000 372.086,321.207 372.500,321.000" stroke-width="12.355" stroke="rgb(33,33,33)" fill="none" stroke-linecap="round"></path><path d="M 372.500,321.000 C 373.086,320.707 373.390,320.661 373.500,320.000" stroke-width="13.254" stroke="rgb(33,33,33)" fill="none" stroke-linecap="round"></path><path d="M 373.500,320.000 C 373.890,317.661 373.500,317.500 373.500,315.000" stroke-width="13.672" stroke="rgb(33,33,33)" fill="none" stroke-linecap="round"></path><path d="M 373.500,315.000 C 373.500,311.500 373.500,311.500 373.500,308.000" stroke-width="13.801" stroke="rgb(33,33,33)" fill="none" stroke-linecap="round"></path><path d="M 373.500,308.000 C 373.500,302.000 373.500,302.000 373.500,296.000" stroke-width="13.367" stroke="rgb(33,33,33)" fill="none" stroke-linecap="round"></path><path d="M 373.500,296.000 C 373.500,291.500 374.269,291.360 373.500,287.000" stroke-width="13.341" stroke="rgb(33,33,33)" fill="none" stroke-linecap="round"></path><path d="M 373.500,287.000 C 372.769,282.860 372.181,282.921 370.500,279.000" stroke-width="13.417" stroke="rgb(33,33,33)" fill="none" stroke-linecap="round"></path><path d="M 370.500,279.000 C 369.181,275.921 369.338,275.757 367.500,273.000" stroke-width="13.624" stroke="rgb(33,33,33)" fill="none" stroke-linecap="round"></path><path d="M 367.500,273.000 C 366.338,271.257 366.185,271.263 364.500,270.000" stroke-width="14.008" stroke="rgb(33,33,33)" fill="none" stroke-linecap="round"></path><path d="M 364.500,270.000 C 362.185,268.263 362.058,268.395 359.500,267.000" stroke-width="14.210" stroke="rgb(33,33,33)" fill="none" stroke-linecap="round"></path><path d="M 359.500,267.000 C 356.558,265.395 356.427,265.626 353.500,264.000" stroke-width="14.271" stroke="rgb(33,33,33)" fill="none" stroke-linecap="round"></path><path d="M 353.500,264.000 C 351.927,263.126 352.098,262.799 350.500,262.000" stroke-width="14.699" stroke="rgb(33,33,33)" fill="none" stroke-linecap="round"></path><path d="M 350.500,262.000 C 349.098,261.299 348.820,261.792 347.500,261.000" stroke-width="15.120" stroke="rgb(33,33,33)" fill="none" stroke-linecap="round"></path><path d="M 347.500,261.000 C 346.320,260.292 346.672,259.586 345.500,259.000" stroke-width="15.562" stroke="rgb(33,33,33)" fill="none" stroke-linecap="round"></path><path d="M 345.500,259.000 C 344.672,258.586 344.167,258.667 343.500,259.000" stroke-width="16.014" stroke="rgb(33,33,33)" fill="none" stroke-linecap="round"></path><path d="M 343.500,259.000 C 343.167,259.167 343.500,259.500 343.500,260.000" stroke-width="16.633" stroke="rgb(33,33,33)" fill="none" stroke-linecap="round"></path><path d="M 343.500,260.000 C 343.500,261.500 343.046,261.638 343.500,263.000" stroke-width="16.746" stroke="rgb(33,33,33)" fill="none" stroke-linecap="round"></path><path d="M 343.500,263.000 C 344.046,264.638 344.701,264.402 345.500,266.000" stroke-width="16.738" stroke="rgb(33,33,33)" fill="none" stroke-linecap="round"></path><path d="M 345.500,266.000 C 346.201,267.402 345.565,267.832 346.500,269.000" stroke-width="16.804" stroke="rgb(33,33,33)" fill="none" stroke-linecap="round"></path><path d="M 346.500,269.000 C 347.565,270.332 348.000,270.000 349.500,271.000" stroke-width="16.784" stroke="rgb(33,33,33)" fill="none" stroke-linecap="round"></path><path d="M 349.500,271.000 C 351.000,272.000 350.841,272.526 352.500,273.000" stroke-width="16.802" stroke="rgb(33,33,33)" fill="none" stroke-linecap="round"></path><path d="M 352.500,273.000 C 354.341,273.526 354.500,273.000 356.500,273.000" stroke-width="16.678" stroke="rgb(33,33,33)" fill="none" stroke-linecap="round"></path><path d="M 356.500,273.000 C 360.000,273.000 360.274,274.075 363.500,273.000" stroke-width="16.211" stroke="rgb(33,33,33)" fill="none" stroke-linecap="round"></path><path d="M 363.500,273.000 C 369.274,271.075 369.315,270.457 374.500,267.000" stroke-width="15.037" stroke="rgb(33,33,33)" fill="none" stroke-linecap="round"></path><path d="M 374.500,267.000 C 378.315,264.457 378.509,264.451 381.500,261.000" stroke-width="14.612" stroke="rgb(33,33,33)" fill="none" stroke-linecap="round"></path><path d="M 381.500,261.000 C 385.009,256.951 384.562,256.540 387.500,252.000" stroke-width="14.102" stroke="rgb(33,33,33)" fill="none" stroke-linecap="round"></path><path d="M 387.500,252.000 C 390.062,248.040 391.118,248.376 392.500,244.000" stroke-width="13.931" stroke="rgb(33,33,33)" fill="none" stroke-linecap="round"></path><path d="M 392.500,244.000 C 394.118,238.876 393.210,238.510 393.500,233.000" stroke-width="13.631" stroke="rgb(33,33,33)" fill="none" stroke-linecap="round"></path><path d="M 393.500,233.000 C 393.710,229.010 394.496,228.784 393.500,225.000" stroke-width="13.790" stroke="rgb(33,33,33)" fill="none" stroke-linecap="round"></path><path d="M 393.500,225.000 C 391.996,219.284 391.386,219.291 388.500,214.000" stroke-width="13.185" stroke="rgb(33,33,33)" fill="none" stroke-linecap="round"></path><path d="M 388.500,214.000 C 385.386,208.291 384.981,208.512 381.500,203.000" stroke-width="12.869" stroke="rgb(33,33,33)" fill="none" stroke-linecap="round"></path><path d="M 381.500,203.000 C 378.981,199.012 378.972,199.017 376.500,195.000" stroke-width="12.843" stroke="rgb(33,33,33)" fill="none" stroke-linecap="round"></path><path d="M 376.500,195.000 C 374.972,192.517 375.115,192.423 373.500,190.000" stroke-width="13.198" stroke="rgb(33,33,33)" fill="none" stroke-linecap="round"></path><path d="M 373.500,190.000 C 372.115,187.923 371.882,188.073 370.500,186.000" stroke-width="13.655" stroke="rgb(33,33,33)" fill="none" stroke-linecap="round"></path><path d="M 370.500,186.000 C 369.882,185.073 369.714,183.786 369.500,184.000" stroke-width="14.317" stroke="rgb(33,33,33)" fill="none" stroke-linecap="round"></path><path d="M 369.500,184.000 C 369.214,184.286 369.140,185.558 369.500,187.000" stroke-width="15.015" stroke="rgb(33,33,33)" fill="none" stroke-linecap="round"></path><path d="M 369.500,187.000 C 370.640,191.558 370.392,191.784 372.500,196.000" stroke-width="14.563" stroke="rgb(33,33,33)" fill="none" stroke-linecap="round"></path><path d="M 372.500,196.000 C 375.892,202.784 376.374,202.581 380.500,209.000" stroke-width="13.471" stroke="rgb(33,33,33)" fill="none" stroke-linecap="round"></path><path d="M 380.500,209.000 C 385.374,216.581 384.970,216.934 390.500,224.000" stroke-width="12.541" stroke="rgb(33,33,33)" fill="none" stroke-linecap="round"></path><path d="M 390.500,224.000 C 393.970,228.434 394.643,227.868 398.500,232.000" stroke-width="12.463" stroke="rgb(33,33,33)" fill="none" stroke-linecap="round"></path><path d="M 398.500,232.000 C 401.643,235.368 401.254,235.754 404.500,239.000" stroke-width="12.591" stroke="rgb(33,33,33)" fill="none" stroke-linecap="round"></path><path d="M 404.500,239.000 C 406.754,241.254 406.941,241.081 409.500,243.000" stroke-width="12.925" stroke="rgb(33,33,33)" fill="none" stroke-linecap="round"></path><path d="M 409.500,243.000 C 410.941,244.081 410.892,244.357 412.500,245.000" stroke-width="13.559" stroke="rgb(33,33,33)" fill="none" stroke-linecap="round"></path><path d="M 412.500,245.000 C 413.392,245.357 413.556,245.236 414.500,245.000" stroke-width="14.278" stroke="rgb(33,33,33)" fill="none" stroke-linecap="round"></path><path d="M 414.500,245.000 C 415.556,244.736 416.191,244.927 416.500,244.000" stroke-width="14.880" stroke="rgb(33,33,33)" fill="none" stroke-linecap="round"></path><path d="M 416.500,244.000 C 417.191,241.927 416.656,241.493 416.500,239.000" stroke-width="14.986" stroke="rgb(33,33,33)" fill="none" stroke-linecap="round"></path><path d="M 416.500,239.000 C 416.156,233.493 417.225,233.176 415.500,228.000" stroke-width="14.352" stroke="rgb(33,33,33)" fill="none" stroke-linecap="round"></path><path d="M 415.500,228.000 C 411.725,216.676 410.484,217.007 405.500,206.000" stroke-width="12.554" stroke="rgb(33,33,33)" fill="none" stroke-linecap="round"></path><path d="M 405.500,206.000 C 398.484,190.507 399.425,190.000 391.500,175.000" stroke-width="10.711" stroke="rgb(33,33,33)" fill="none" stroke-linecap="round"></path><path d="M 391.500,175.000 C 385.425,163.500 384.670,163.888 377.500,153.000" stroke-width="10.114" stroke="rgb(33,33,33)" fill="none" stroke-linecap="round"></path><path d="M 377.500,153.000 C 371.170,143.388 371.443,143.152 364.500,134.000" stroke-width="9.842" stroke="rgb(33,33,33)" fill="none" stroke-linecap="round"></path><path d="M 364.500,134.000 C 360.443,128.652 360.088,128.916 355.500,124.000" stroke-width="10.053" stroke="rgb(33,33,33)" fill="none" stroke-linecap="round"></path><path d="M 355.500,124.000 C 353.088,121.416 353.228,120.949 350.500,119.000" stroke-width="10.659" stroke="rgb(33,33,33)" fill="none" stroke-linecap="round"></path><path d="M 350.500,119.000 C 349.728,118.449 349.167,118.667 348.500,119.000" stroke-width="11.624" stroke="rgb(33,33,33)" fill="none" stroke-linecap="round"></path><path d="M 348.500,119.000 C 348.167,119.167 348.259,119.566 348.500,120.000" stroke-width="12.608" stroke="rgb(33,33,33)" fill="none" stroke-linecap="round"></path><path d="M 348.500,120.000 C 353.259,128.566 352.990,128.837 358.500,137.000" stroke-width="11.883" stroke="rgb(33,33,33)" fill="none" stroke-linecap="round"></path><path d="M 358.500,137.000 C 366.490,148.837 367.266,148.313 375.500,160.000" stroke-width="10.659" stroke="rgb(33,33,33)" fill="none" stroke-linecap="round"></path><path d="M 375.500,160.000 C 382.766,170.313 381.988,170.888 389.500,181.000" stroke-width="10.124" stroke="rgb(33,33,33)" fill="none" stroke-linecap="round"></path><path d="M 389.500,181.000 C 394.988,188.388 395.303,188.183 401.500,195.000" stroke-width="10.039" stroke="rgb(33,33,33)" fill="none" stroke-linecap="round"></path><path d="M 401.500,195.000 C 405.303,199.183 405.500,199.000 409.500,203.000" stroke-width="10.402" stroke="rgb(33,33,33)" fill="none" stroke-linecap="round"></path><path d="M 409.500,203.000 C 412.000,205.500 411.657,206.105 414.500,208.000" stroke-width="11.002" stroke="rgb(33,33,33)" fill="none" stroke-linecap="round"></path><path d="M 414.500,208.000 C 416.157,209.105 416.480,208.596 418.500,209.000" stroke-width="11.766" stroke="rgb(33,33,33)" fill="none" stroke-linecap="round"></path><path d="M 418.500,209.000 C 421.480,209.596 421.481,209.726 424.500,210.000" stroke-width="12.285" stroke="rgb(33,33,33)" fill="none" stroke-linecap="round"></path><path d="M 424.500,210.000 C 426.981,210.226 427.015,210.207 429.500,210.000" stroke-width="12.807" stroke="rgb(33,33,33)" fill="none" stroke-linecap="round"></path><path d="M 429.500,210.000 C 433.015,209.707 433.375,210.250 436.500,209.000" stroke-width="13.119" stroke="rgb(33,33,33)" fill="none" stroke-linecap="round"></path><path d="M 436.500,209.000 C 438.375,208.250 438.283,207.704 439.500,206.000" stroke-width="13.639" stroke="rgb(33,33,33)" fill="none" stroke-linecap="round"></path><path d="M 439.500,206.000 C 440.783,204.204 440.621,204.050 441.500,202.000" stroke-width="14.059" stroke="rgb(33,33,33)" fill="none" stroke-linecap="round"></path><path d="M 441.500,202.000 C 442.121,200.550 442.279,200.545 442.500,199.000" stroke-width="14.573" stroke="rgb(33,33,33)" fill="none" stroke-linecap="round"></path><path d="M 442.500,199.000 C 442.779,197.045 443.269,196.730 442.500,195.000" stroke-width="14.872" stroke="rgb(33,33,33)" fill="none" stroke-linecap="round"></path><path d="M 442.500,195.000 C 441.269,192.230 440.465,192.527 438.500,190.000" stroke-width="14.839" stroke="rgb(33,33,33)" fill="none" stroke-linecap="round"></path><path d="M 438.500,190.000 C 436.965,188.027 437.035,187.973 435.500,186.000" stroke-width="14.994" stroke="rgb(33,33,33)" fill="none" stroke-linecap="round"></path><path d="M 435.500,186.000 C 433.535,183.473 433.419,183.559 431.500,181.000" stroke-width="14.936" stroke="rgb(33,33,33)" fill="none" stroke-linecap="round"></path><path d="M 431.500,181.000 C 430.419,179.559 430.577,179.437 429.500,178.000" stroke-width="15.260" stroke="rgb(33,33,33)" fill="none" stroke-linecap="round"></path><path d="M 429.500,178.000 C 429.077,177.437 429.081,177.387 428.500,177.000" stroke-width="15.873" stroke="rgb(33,33,33)" fill="none" stroke-linecap="round"></path><path d="M 428.500,177.000 C 427.581,176.387 427.536,176.345 426.500,176.000" stroke-width="16.240" stroke="rgb(33,33,33)" fill="none" stroke-linecap="round"></path><path d="M 426.500,176.000 C 426.036,175.845 426.000,176.000 425.500,176.000" stroke-width="16.793" stroke="rgb(33,33,33)" fill="none" stroke-linecap="round"></path><path d="M 425.500,176.000 C 425.500,176.000 425.500,176.000 425.500,176.000" stroke-width="17.387" stroke="rgb(33,33,33)" fill="none" stroke-linecap="round"></path><path d="M 425.500,176.000 C 425.500,177.500 425.500,177.500 425.500,179.000" stroke-width="17.407" stroke="rgb(33,33,33)" fill="none" stroke-linecap="round"></path><path d="M 425.500,179.000 C 425.500,180.500 425.500,180.500 425.500,182.000" stroke-width="17.298" stroke="rgb(33,33,33)" fill="none" stroke-linecap="round"></path><path d="M 425.500,182.000 C 425.500,184.500 425.019,184.593 425.500,187.000" stroke-width="16.987" stroke="rgb(33,33,33)" fill="none" stroke-linecap="round"></path><path d="M 425.500,187.000 C 426.019,189.593 425.901,189.944 427.500,192.000" stroke-width="16.585" stroke="rgb(33,33,33)" fill="none" stroke-linecap="round"></path><path d="M 427.500,192.000 C 429.401,194.444 429.913,194.119 432.500,196.000" stroke-width="16.173" stroke="rgb(33,33,33)" fill="none" stroke-linecap="round"></path><path d="M 432.500,196.000 C 435.413,198.119 435.151,198.884 438.500,200.000" stroke-width="15.740" stroke="rgb(33,33,33)" fill="none" stroke-linecap="round"></path><path d="M 438.500,200.000 C 444.151,201.884 444.452,201.583 450.500,202.000" stroke-width="14.756" stroke="rgb(33,33,33)" fill="none" stroke-linecap="round"></path><path d="M 450.500,202.000 C 458.952,202.583 459.027,202.484 467.500,202.000" stroke-width="13.407" stroke="rgb(33,33,33)" fill="none" stroke-linecap="round"></path><path d="M 467.500,202.000 C 476.527,201.484 476.883,202.298 485.500,200.000" stroke-width="12.489" stroke="rgb(33,33,33)" fill="none" stroke-linecap="round"></path><path d="M 485.500,200.000 C 491.883,198.298 491.500,197.000 497.500,194.000" stroke-width="12.236" stroke="rgb(33,33,33)" fill="none" stroke-linecap="round"></path><path d="M 497.500,194.000 C 503.500,191.000 503.873,191.517 509.500,188.000" stroke-width="11.971" stroke="rgb(33,33,33)" fill="none" stroke-linecap="round"></path><path d="M 509.500,188.000 C 511.873,186.517 511.500,186.000 513.500,184.000" stroke-width="12.501" stroke="rgb(33,33,33)" fill="none" stroke-linecap="round"></path><path d="M 513.500,184.000 C 514.500,183.000 514.662,183.117 515.500,182.000" stroke-width="13.224" stroke="rgb(33,33,33)" fill="none" stroke-linecap="round"></path><path d="M 515.500,182.000 C 516.162,181.117 516.155,181.036 516.500,180.000" stroke-width="13.953" stroke="rgb(33,33,33)" fill="none" stroke-linecap="round"></path><path d="M 516.500,180.000 C 516.655,179.536 516.500,179.500 516.500,179.000" stroke-width="14.751" stroke="rgb(33,33,33)" fill="none" stroke-linecap="round"></path><path d="M 516.500,179.000 C 516.500,178.000 516.833,177.667 516.500,177.000" stroke-width="15.335" stroke="rgb(33,33,33)" fill="none" stroke-linecap="round"></path><path d="M 516.500,177.000 C 516.333,176.667 516.000,177.000 515.500,177.000" stroke-width="15.959" stroke="rgb(33,33,33)" fill="none" stroke-linecap="round"></path></svg>