<svg xmlns="http://www.w3.org/2000/svg" xmlns:xlink="http://www.w3.org/1999/xlink" viewBox="0 0 320 500"><path d="M 99.000,196.000 C 100.000,198.000 100.504,197.851 101.000,200.000" stroke-width="20.017" stroke="rgb(33,33,33)" fill="none" stroke-linecap="round"></path><path d="M 101.000,200.000 C 102.004,204.351 101.155,204.562 102.000,209.000" stroke-width="18.040" stroke="rgb(33,33,33)" fill="none" stroke-linecap="round"></path><path d="M 102.000,209.000 C 103.155,215.062 103.659,214.964 105.000,221.000" stroke-width="16.488" stroke="rgb(33,33,33)" fill="none" stroke-linecap="round"></path><path d="M 105.000,221.000 C 106.659,228.464 106.743,228.460 108.000,236.000" stroke-width="14.453" stroke="rgb(33,33,33)" fill="none" stroke-linecap="round"></path><path d="M 108.000,236.000 C 109.243,243.460 108.574,243.586 110.000,251.000" stroke-width="13.410" stroke="rgb(33,33,33)" fill="none" stroke-linecap="round"></path><path d="M 110.000,251.000 C 111.074,256.586 111.738,256.446 113.000,262.000" stroke-width="13.131" stroke="rgb(33,33,33)" fill="none" stroke-linecap="round"></path><path d="M 113.000,262.000 C 114.238,267.446 113.723,267.571 115.000,273.000" stroke-width="12.937" stroke="rgb(33,33,33)" fill="none" stroke-linecap="round"></path><path d="M 115.000,273.000 C 115.723,276.071 116.170,275.955 117.000,279.000" stroke-width="13.265" stroke="rgb(33,33,33)" fill="none" stroke-linecap="round"></path><path d="M 117.000,279.000 C 117.670,281.455 117.383,281.531 118.000,284.000" stroke-width="13.597" stroke="rgb(33,33,33)" fill="none" stroke-linecap="round"></path><path d="M 118.000,284.000 C 118.383,285.531 118.309,285.618 119.000,287.000" stroke-width="14.195" stroke="rgb(33,33,33)" fill="none" stroke-linecap="round"></path><path d="M 119.000,287.000 C 119.309,287.618 119.890,288.441 120.000,288.000" stroke-width="14.913" stroke="rgb(33,33,33)" fill="none" stroke-linecap="round"></path><path d="M 120.000,288.000 C 120.390,286.441 120.634,285.378 120.000,283.000" stroke-width="15.380" stroke="rgb(33,33,33)" fill="none" stroke-linecap="round"></path><path d="M 120.000,283.000 C 118.634,277.878 118.768,277.529 116.000,273.000" stroke-width="14.590" stroke="rgb(33,33,33)" fill="none" stroke-linecap="round"></path><path d="M 116.000,273.000 C 113.268,268.529 112.865,268.607 109.000,265.000" stroke-width="14.108" stroke="rgb(33,33,33)" fill="none" stroke-linecap="round"></path><path d="M 109.000,265.000 C 105.365,261.607 105.258,261.555 101.000,259.000" stroke-width="13.745" stroke="rgb(33,33,33)" fill="none" stroke-linecap="round"></path><path d="M 101.000,259.000 C 97.758,257.055 97.614,257.112 94.000,256.000" stroke-width="13.792" stroke="rgb(33,33,33)" fill="none" stroke-linecap="round"></path><path d="M 94.000,256.000 C 91.114,255.112 91.021,255.252 88.000,255.000" stroke-width="14.041" stroke="rgb(33,33,33)" fill="none" stroke-linecap="round"></path><path d="M 88.000,255.000 C 85.021,254.752 85.000,255.000 82.000,255.000" stroke-width="14.217" stroke="rgb(33,33,33)" fill="none" stroke-linecap="round"></path><path d="M 82.000,255.000 C 79.500,255.000 79.500,255.000 77.000,255.000" stroke-width="14.482" stroke="rgb(33,33,33)" fill="none" stroke-linecap="round"></path><path d="M 77.000,255.000 C 76.000,255.000 76.000,255.000 75.000,255.000" stroke-width="15.071" stroke="rgb(33,33,33)" fill="none" stroke-linecap="round"></path><path d="M 75.000,255.000 C 74.500,255.000 73.591,255.000 74.000,255.000" stroke-width="15.719" stroke="rgb(33,33,33)" fill="none" stroke-linecap="round"></path><path d="M 74.000,255.000 C 78.091,255.000 79.103,255.784 84.000,255.000" stroke-width="15.705" stroke="rgb(33,33,33)" fill="none" stroke-linecap="round"></path><path d="M 84.000,255.000 C 91.603,253.784 91.603,253.336 99.000,251.000" stroke-width="14.319" stroke="rgb(33,33,33)" fill="none" stroke-linecap="round"></path><path d="M 99.000,251.000 C 110.603,247.336 110.622,247.324 122.000,243.000" stroke-width="12.517" stroke="rgb(33,33,33)" fill="none" stroke-linecap="round"></path><path d="M 122.000,243.000 C 135.622,237.824 135.576,237.679 149.000,232.000" stroke-width="11.022" stroke="rgb(33,33,33)" fill="none" stroke-linecap="round"></path><path d="M 149.000,232.000 C 161.576,226.679 161.476,226.445 174.000,221.000" stroke-width="10.069" stroke="rgb(33,33,33)" fill="none" stroke-linecap="round"></path><path d="M 174.000,221.000 C 184.476,216.445 184.351,216.115 195.000,212.000" stroke-width="9.746" stroke="rgb(33,33,33)" fill="none" stroke-linecap="round"></path><path d="M 195.000,212.000 C 206.351,207.615 206.478,207.934 218.000,204.000" stroke-width="9.260" stroke="rgb(33,33,33)" fill="none" stroke-linecap="round"></path><path d="M 218.000,204.000 C 226.978,200.934 227.000,201.000 236.000,198.000" stroke-width="9.374" stroke="rgb(33,33,33)" fill="none" stroke-linecap="round"></path><path d="M 236.000,198.000 C 242.000,196.000 241.970,195.904 248.000,194.000" stroke-width="9.749" stroke="rgb(33,33,33)" fill="none" stroke-linecap="round"></path><path d="M 248.000,194.000 C 251.470,192.904 251.514,193.046 255.000,192.000" stroke-width="10.370" stroke="rgb(33,33,33)" fill="none" stroke-linecap="round"></path><path d="M 255.000,192.000 C 256.514,191.546 256.481,191.380 258.000,191.000" stroke-width="11.240" stroke="rgb(33,33,33)" fill="none" stroke-linecap="round"></path><path d="M 258.000,191.000 C 258.481,190.880 259.000,191.000 259.000,191.000" stroke-width="12.250" stroke="rgb(33,33,33)" fill="none" stroke-linecap="round"></path><path d="M 259.000,191.000 C 259.000,191.000 258.486,190.888 258.000,191.000" stroke-width="13.248" stroke="rgb(33,33,33)" fill="none" stroke-linecap="round"></path><path d="M 258.000,191.000 C 251.986,192.388 251.879,192.119 246.000,194.000" stroke-width="12.979" stroke="rgb(33,33,33)" fill="none" stroke-linecap="round"></path><path d="M 246.000,194.000 C 239.379,196.119 239.397,196.258 233.000,199.000" stroke-width="12.633" stroke="rgb(33,33,33)" fill="none" stroke-linecap="round"></path><path d="M 233.000,199.000 C 225.397,202.258 225.489,202.476 218.000,206.000" stroke-width="11.890" stroke="rgb(33,33,33)" fill="none" stroke-linecap="round"></path><path d="M 218.000,206.000 C 208.489,210.476 208.223,209.993 199.000,215.000" stroke-width="11.189" stroke="rgb(33,33,33)" fill="none" stroke-linecap="round"></path><path d="M 199.000,215.000 C 190.723,219.493 190.717,219.598 183.000,225.000" stroke-width="10.750" stroke="rgb(33,33,33)" fill="none" stroke-linecap="round"></path><path d="M 183.000,225.000 C 175.717,230.098 175.550,230.019 169.000,236.000" stroke-width="10.567" stroke="rgb(33,33,33)" fill="none" stroke-linecap="round"></path><path d="M 169.000,236.000 C 164.050,240.519 164.227,240.779 160.000,246.000" stroke-width="10.651" stroke="rgb(33,33,33)" fill="none" stroke-linecap="round"></path><path d="M 160.000,246.000 C 155.727,251.279 155.348,251.140 152.000,257.000" stroke-width="10.765" stroke="rgb(33,33,33)" fill="none" stroke-linecap="round"></path><path d="M 152.000,257.000 C 149.348,261.640 149.699,261.903 148.000,267.000" stroke-width="11.056" stroke="rgb(33,33,33)" fill="none" stroke-linecap="round"></path><path d="M 148.000,267.000 C 146.699,270.903 147.000,271.000 146.000,275.000" stroke-width="11.491" stroke="rgb(33,33,33)" fill="none" stroke-linecap="round"></path><path d="M 146.000,275.000 C 145.500,277.000 145.337,276.980 145.000,279.000" stroke-width="12.189" stroke="rgb(33,33,33)" fill="none" stroke-linecap="round"></path><path d="M 145.000,279.000 C 144.837,279.980 144.528,280.764 145.000,281.000" stroke-width="13.043" stroke="rgb(33,33,33)" fill="none" stroke-linecap="round"></path><path d="M 145.000,281.000 C 145.528,281.264 146.519,280.962 147.000,280.000" stroke-width="13.911" stroke="rgb(33,33,33)" fill="none" stroke-linecap="round"></path><path d="M 147.000,280.000 C 149.519,274.962 148.880,274.452 151.000,269.000" stroke-width="13.480" stroke="rgb(33,33,33)" fill="none" stroke-linecap="round"></path><path d="M 151.000,269.000 C 152.380,265.452 152.303,265.393 154.000,262.000" stroke-width="13.578" stroke="rgb(33,33,33)" fill="none" stroke-linecap="round"></path><path d="M 154.000,262.000 C 154.803,260.393 154.826,260.174 156.000,259.000" stroke-width="14.080" stroke="rgb(33,33,33)" fill="none" stroke-linecap="round"></path><path d="M 156.000,259.000 C 156.326,258.674 156.500,259.000 157.000,259.000" stroke-width="14.865" stroke="rgb(33,33,33)" fill="none" stroke-linecap="round"></path><path d="M 157.000,259.000 C 159.000,259.000 159.030,258.754 161.000,259.000" stroke-width="15.147" stroke="rgb(33,33,33)" fill="none" stroke-linecap="round"></path><path d="M 161.000,259.000 C 163.030,259.254 163.081,259.280 165.000,260.000" stroke-width="15.395" stroke="rgb(33,33,33)" fill="none" stroke-linecap="round"></path><path d="M 165.000,260.000 C 167.081,260.780 166.919,261.220 169.000,262.000" stroke-width="15.386" stroke="rgb(33,33,33)" fill="none" stroke-linecap="round"></path><path d="M 169.000,262.000 C 170.919,262.720 170.964,262.796 173.000,263.000" stroke-width="15.592" stroke="rgb(33,33,33)" fill="none" stroke-linecap="round"></path><path d="M 173.000,263.000 C 175.964,263.296 176.275,263.908 179.000,263.000" stroke-width="15.509" stroke="rgb(33,33,33)" fill="none" stroke-linecap="round"></path><path d="M 179.000,263.000 C 182.275,261.908 182.244,261.297 185.000,259.000" stroke-width="15.104" stroke="rgb(33,33,33)" fill="none" stroke-linecap="round"></path><path d="M 185.000,259.000 C 188.244,256.297 187.562,255.292 191.000,253.000" stroke-width="14.689" stroke="rgb(33,33,33)" fill="none" stroke-linecap="round"></path><path d="M 191.000,253.000 C 193.562,251.292 193.901,251.517 197.000,251.000" stroke-width="14.703" stroke="rgb(33,33,33)" fill="none" stroke-linecap="round"></path><path d="M 197.000,251.000 C 202.901,250.017 202.988,250.223 209.000,250.000" stroke-width="14.028" stroke="rgb(33,33,33)" fill="none" stroke-linecap="round"></path></svg>