<svg xmlns="http://www.w3.org/2000/svg" xmlns:xlink="http://www.w3.org/1999/xlink" viewBox="0 0 360 500"><path d="M 97.295,183.469 C 101.823,192.609 101.559,192.748 106.352,201.749" stroke-width="19.088" stroke="rgb(33,33,33)" fill="none" stroke-linecap="round"></path><path d="M 106.352,201.749 C 114.030,216.168 114.168,216.101 122.236,230.309" stroke-width="13.896" stroke="rgb(33,33,33)" fill="none" stroke-linecap="round"></path><path d="M 122.236,230.309 C 128.373,241.117 128.052,241.341 134.761,251.781" stroke-width="12.212" stroke="rgb(33,33,33)" fill="none" stroke-linecap="round"></path><path d="M 134.761,251.781 C 138.883,258.195 139.516,257.772 143.898,264.018" stroke-width="11.606" stroke="rgb(33,33,33)" fill="none" stroke-linecap="round"></path><path d="M 143.898,264.018 C 146.241,267.358 145.675,267.946 148.211,270.954" stroke-width="12.242" stroke="rgb(33,33,33)" fill="none" stroke-linecap="round"></path><path d="M 148.211,270.954 C 148.961,271.844 149.640,271.830 150.469,271.813" stroke-width="12.626" stroke="rgb(33,33,33)" fill="none" stroke-linecap="round"></path><path d="M 150.469,271.813 C 150.780,271.807 150.742,271.248 150.491,270.907" stroke-width="13.544" stroke="rgb(33,33,33)" fill="none" stroke-linecap="round"></path><path d="M 150.491,270.907 C 149.701,269.837 149.495,269.882 148.387,268.991" stroke-width="14.165" stroke="rgb(33,33,33)" fill="none" stroke-linecap="round"></path><path d="M 148.387,268.991 C 145.574,266.728 145.694,266.529 142.650,264.599" stroke-width="14.062" stroke="rgb(33,33,33)" fill="none" stroke-linecap="round"></path><path d="M 142.650,264.599 C 137.101,261.081 137.106,260.989 131.200,258.094" stroke-width="13.515" stroke="rgb(33,33,33)" fill="none" stroke-linecap="round"></path><path d="M 131.200,258.094 C 120.770,252.981 120.996,252.153 109.977,248.582" stroke-width="12.109" stroke="rgb(33,33,33)" fill="none" stroke-linecap="round"></path><path d="M 109.977,248.582 C 93.605,243.276 93.319,243.632 76.418,240.340" stroke-width="10.537" stroke="rgb(33,33,33)" fill="none" stroke-linecap="round"></path><path d="M 76.418,240.340 C 70.648,239.216 70.526,240.064 64.635,239.751" stroke-width="10.743" stroke="rgb(33,33,33)" fill="none" stroke-linecap="round"></path><path d="M 64.635,239.751 C 59.841,239.497 59.831,239.265 55.049,239.206" stroke-width="10.975" stroke="rgb(33,33,33)" fill="none" stroke-linecap="round"></path><path d="M 55.049,239.206 C 53.822,239.191 52.796,239.710 52.618,239.602" stroke-width="11.877" stroke="rgb(33,33,33)" fill="none" stroke-linecap="round"></path><path d="M 52.618,239.602 C 52.477,239.516 53.548,239.275 54.411,238.817" stroke-width="12.795" stroke="rgb(33,33,33)" fill="none" stroke-linecap="round"></path><path d="M 54.411,238.817 C 56.030,237.958 56.122,238.075 57.582,236.969" stroke-width="13.259" stroke="rgb(33,33,33)" fill="none" stroke-linecap="round"></path><path d="M 57.582,236.969 C 62.916,232.928 62.690,232.616 67.999,228.523" stroke-width="12.740" stroke="rgb(33,33,33)" fill="none" stroke-linecap="round"></path><path d="M 67.999,228.523 C 75.521,222.724 75.721,222.983 83.245,217.185" stroke-width="12.034" stroke="rgb(33,33,33)" fill="none" stroke-linecap="round"></path><path d="M 83.245,217.185 C 93.215,209.501 93.604,209.922 102.987,201.558" stroke-width="11.090" stroke="rgb(33,33,33)" fill="none" stroke-linecap="round"></path><path d="M 102.987,201.558 C 113.197,192.458 114.576,193.221 122.431,182.257" stroke-width="9.868" stroke="rgb(33,33,33)" fill="none" stroke-linecap="round"></path><path d="M 122.431,182.257 C 129.559,172.307 128.930,171.421 132.953,159.730" stroke-width="9.488" stroke="rgb(33,33,33)" fill="none" stroke-linecap="round"></path><path d="M 132.953,159.730 C 137.041,147.849 137.790,147.558 138.653,135.113" stroke-width="9.185" stroke="rgb(33,33,33)" fill="none" stroke-linecap="round"></path><path d="M 138.653,135.113 C 139.508,122.789 138.926,122.342 136.388,110.193" stroke-width="8.895" stroke="rgb(33,33,33)" fill="none" stroke-linecap="round"></path><path d="M 136.388,110.193 C 134.274,100.072 134.398,99.465 129.350,90.572" stroke-width="9.038" stroke="rgb(33,33,33)" fill="none" stroke-linecap="round"></path><path d="M 129.350,90.572 C 125.390,83.597 125.200,82.046 118.372,78.456" stroke-width="9.161" stroke="rgb(33,33,33)" fill="none" stroke-linecap="round"></path><path d="M 118.372,78.456 C 111.016,74.588 109.551,74.857 100.981,75.656" stroke-width="9.253" stroke="rgb(33,33,33)" fill="none" stroke-linecap="round"></path><path d="M 158.203,205.344 C 164.639,219.188 164.012,219.534 171.075,233.033" stroke-width="19.073" stroke="rgb(33,33,33)" fill="none" stroke-linecap="round"></path><path d="M 171.075,233.033 C 174.755,240.068 175.069,239.955 179.689,246.412" stroke-width="16.223" stroke="rgb(33,33,33)" fill="none" stroke-linecap="round"></path><path d="M 179.689,246.412 C 182.409,250.214 182.734,249.972 185.755,253.551" stroke-width="15.820" stroke="rgb(33,33,33)" fill="none" stroke-linecap="round"></path><circle r="6" cx="151.875" cy="182.843994140625" fill="rgb(33,33,33)"></circle><path d="M 205.576,197.219 C 201.741,212.548 199.345,212.446 197.906,227.878" stroke-width="18.801" stroke="rgb(33,33,33)" fill="none" stroke-linecap="round"></path><path d="M 197.906,227.878 C 197.035,237.225 198.053,237.866 200.956,246.776" stroke-width="14.666" stroke="rgb(33,33,33)" fill="none" stroke-linecap="round"></path><path d="M 200.956,246.776 C 202.631,251.916 203.492,251.853 207.061,255.977" stroke-width="13.734" stroke="rgb(33,33,33)" fill="none" stroke-linecap="round"></path><path d="M 207.061,255.977 C 209.435,258.720 209.636,259.008 212.841,260.510" stroke-width="13.706" stroke="rgb(33,33,33)" fill="none" stroke-linecap="round"></path><path d="M 212.841,260.510 C 215.128,261.582 215.486,261.387 218.045,261.125" stroke-width="14.027" stroke="rgb(33,33,33)" fill="none" stroke-linecap="round"></path><path d="M 218.045,261.125 C 221.426,260.779 221.670,260.823 224.722,259.295" stroke-width="13.992" stroke="rgb(33,33,33)" fill="none" stroke-linecap="round"></path><path d="M 224.722,259.295 C 228.925,257.192 229.560,257.393 232.555,253.863" stroke-width="13.979" stroke="rgb(33,33,33)" fill="none" stroke-linecap="round"></path><path d="M 232.555,253.863 C 236.077,249.714 236.494,249.257 237.756,243.937" stroke-width="13.510" stroke="rgb(33,33,33)" fill="none" stroke-linecap="round"></path><path d="M 237.756,243.937 C 239.372,237.125 239.317,236.605 238.310,229.599" stroke-width="12.915" stroke="rgb(33,33,33)" fill="none" stroke-linecap="round"></path><path d="M 238.310,229.599 C 237.080,221.042 236.793,220.768 233.281,212.810" stroke-width="11.996" stroke="rgb(33,33,33)" fill="none" stroke-linecap="round"></path><path d="M 233.281,212.810 C 229.577,204.417 229.609,204.004 223.879,196.896" stroke-width="11.160" stroke="rgb(33,33,33)" fill="none" stroke-linecap="round"></path><path d="M 223.879,196.896 C 218.918,190.742 218.585,190.385 211.899,186.287" stroke-width="11.126" stroke="rgb(33,33,33)" fill="none" stroke-linecap="round"></path><path d="M 211.899,186.287 C 206.745,183.128 206.118,182.958 200.198,182.381" stroke-width="11.052" stroke="rgb(33,33,33)" fill="none" stroke-linecap="round"></path><path d="M 200.198,182.381 C 195.983,181.970 195.313,182.303 191.629,184.312" stroke-width="11.483" stroke="rgb(33,33,33)" fill="none" stroke-linecap="round"></path><path d="M 191.629,184.312 C 188.457,186.041 188.104,186.615 186.486,189.857" stroke-width="11.831" stroke="rgb(33,33,33)" fill="none" stroke-linecap="round"></path><path d="M 186.486,189.857 C 184.926,192.984 184.675,193.650 185.272,197.049" stroke-width="12.235" stroke="rgb(33,33,33)" fill="none" stroke-linecap="round"></path><path d="M 185.272,197.049 C 185.913,200.699 186.276,201.331 188.963,203.955" stroke-width="12.605" stroke="rgb(33,33,33)" fill="none" stroke-linecap="round"></path><path d="M 188.963,203.955 C 192.025,206.946 192.579,207.191 196.769,208.279" stroke-width="12.557" stroke="rgb(33,33,33)" fill="none" stroke-linecap="round"></path><path d="M 196.769,208.279 C 201.203,209.430 201.838,209.651 206.211,208.433" stroke-width="13.087" stroke="rgb(33,33,33)" fill="none" stroke-linecap="round"></path><path d="M 206.211,208.433 C 210.873,207.134 211.700,206.875 214.839,203.245" stroke-width="12.187" stroke="rgb(33,33,33)" fill="none" stroke-linecap="round"></path><path d="M 214.839,203.245 C 218.174,199.388 218.269,198.611 219.159,193.460" stroke-width="11.616" stroke="rgb(33,33,33)" fill="none" stroke-linecap="round"></path><path d="M 219.159,193.460 C 220.332,186.669 219.731,186.343 218.966,179.360" stroke-width="11.503" stroke="rgb(33,33,33)" fill="none" stroke-linecap="round"></path><path d="M 218.966,179.360 C 218.020,170.722 217.875,170.658 215.736,162.218" stroke-width="11.358" stroke="rgb(33,33,33)" fill="none" stroke-linecap="round"></path><path d="M 215.736,162.218 C 213.311,152.651 213.256,152.609 209.838,143.345" stroke-width="10.354" stroke="rgb(33,33,33)" fill="none" stroke-linecap="round"></path><path d="M 209.838,143.345 C 206.364,133.931 206.205,133.958 201.951,124.862" stroke-width="10.045" stroke="rgb(33,33,33)" fill="none" stroke-linecap="round"></path><path d="M 201.951,124.862 C 198.199,116.840 198.411,116.666 193.827,109.109" stroke-width="10.176" stroke="rgb(33,33,33)" fill="none" stroke-linecap="round"></path><path d="M 193.827,109.109 C 189.707,102.318 189.627,102.261 184.543,96.166" stroke-width="10.285" stroke="rgb(33,33,33)" fill="none" stroke-linecap="round"></path><path d="M 184.543,96.166 C 180.564,91.396 180.529,91.234 175.700,87.380" stroke-width="10.295" stroke="rgb(33,33,33)" fill="none" stroke-linecap="round"></path><path d="M 175.700,87.380 C 172.448,84.785 172.216,84.826 168.382,83.268" stroke-width="10.740" stroke="rgb(33,33,33)" fill="none" stroke-linecap="round"></path><path d="M 168.382,83.268 C 166.191,82.378 165.384,81.945 163.650,82.483" stroke-width="11.474" stroke="rgb(33,33,33)" fill="none" stroke-linecap="round"></path><path d="M 163.650,82.483 C 162.756,82.760 162.725,83.788 163.125,84.899" stroke-width="12.341" stroke="rgb(33,33,33)" fill="none" stroke-linecap="round"></path><path d="M 163.125,84.899 C 164.466,88.626 164.918,88.659 167.131,92.160" stroke-width="12.656" stroke="rgb(33,33,33)" fill="none" stroke-linecap="round"></path><path d="M 167.131,92.160 C 170.604,97.657 170.755,97.569 174.497,102.895" stroke-width="12.155" stroke="rgb(33,33,33)" fill="none" stroke-linecap="round"></path><path d="M 174.497,102.895 C 181.049,112.222 181.085,112.197 187.718,121.467" stroke-width="11.244" stroke="rgb(33,33,33)" fill="none" stroke-linecap="round"></path><path d="M 187.718,121.467 C 199.750,138.283 199.706,138.315 211.826,155.067" stroke-width="9.519" stroke="rgb(33,33,33)" fill="none" stroke-linecap="round"></path><path d="M 211.826,155.067 C 224.314,172.327 224.458,172.222 236.934,189.490" stroke-width="8.318" stroke="rgb(33,33,33)" fill="none" stroke-linecap="round"></path><path d="M 236.934,189.490 C 245.815,201.783 245.413,202.086 254.540,214.188" stroke-width="8.150" stroke="rgb(33,33,33)" fill="none" stroke-linecap="round"></path><path d="M 254.540,214.188 C 260.677,222.326 260.989,222.089 267.462,229.970" stroke-width="8.233" stroke="rgb(33,33,33)" fill="none" stroke-linecap="round"></path><path d="M 267.462,229.970 C 271.321,234.667 271.082,234.895 275.204,239.344" stroke-width="8.730" stroke="rgb(33,33,33)" fill="none" stroke-linecap="round"></path><path d="M 275.204,239.344 C 278.125,242.496 278.255,242.404 281.548,245.172" stroke-width="9.434" stroke="rgb(33,33,33)" fill="none" stroke-linecap="round"></path><path d="M 281.548,245.172 C 283.931,247.175 283.940,247.236 286.555,248.887" stroke-width="10.124" stroke="rgb(33,33,33)" fill="none" stroke-linecap="round"></path><path d="M 286.555,248.887 C 287.489,249.477 288.454,250.009 288.645,249.654" stroke-width="11.087" stroke="rgb(33,33,33)" fill="none" stroke-linecap="round"></path><path d="M 288.645,249.654 C 288.871,249.235 288.180,248.387 287.389,247.339" stroke-width="11.980" stroke="rgb(33,33,33)" fill="none" stroke-linecap="round"></path><path d="M 287.389,247.339 C 284.536,243.558 284.211,243.792 281.357,239.996" stroke-width="11.922" stroke="rgb(33,33,33)" fill="none" stroke-linecap="round"></path><path d="M 281.357,239.996 C 275.943,232.794 276.131,232.650 270.854,225.342" stroke-width="11.435" stroke="rgb(33,33,33)" fill="none" stroke-linecap="round"></path><path d="M 270.854,225.342 C 264.098,215.986 264.213,215.899 257.291,206.667" stroke-width="10.810" stroke="rgb(33,33,33)" fill="none" stroke-linecap="round"></path><path d="M 257.291,206.667 C 249.865,196.762 249.770,196.831 242.157,187.068" stroke-width="9.982" stroke="rgb(33,33,33)" fill="none" stroke-linecap="round"></path><path d="M 242.157,187.068 C 236.197,179.425 236.316,179.323 230.144,171.855" stroke-width="9.805" stroke="rgb(33,33,33)" fill="none" stroke-linecap="round"></path><path d="M 230.144,171.855 C 226.114,166.979 225.981,167.089 221.753,162.380" stroke-width="10.073" stroke="rgb(33,33,33)" fill="none" stroke-linecap="round"></path><path d="M 221.753,162.380 C 219.784,160.187 219.715,160.248 217.751,158.052" stroke-width="10.827" stroke="rgb(33,33,33)" fill="none" stroke-linecap="round"></path><path d="M 217.751,158.052 C 217.007,157.220 216.932,157.246 216.336,156.325" stroke-width="11.766" stroke="rgb(33,33,33)" fill="none" stroke-linecap="round"></path><path d="M 216.336,156.325 C 216.118,155.987 215.796,155.643 216.123,155.535" stroke-width="12.747" stroke="rgb(33,33,33)" fill="none" stroke-linecap="round"></path><path d="M 216.123,155.535 C 217.939,154.932 218.365,155.146 220.623,154.903" stroke-width="13.334" stroke="rgb(33,33,33)" fill="none" stroke-linecap="round"></path><path d="M 220.623,154.903 C 224.787,154.455 224.827,154.754 228.968,154.152" stroke-width="13.325" stroke="rgb(33,33,33)" fill="none" stroke-linecap="round"></path><path d="M 228.968,154.152 C 234.417,153.360 234.662,153.916 239.804,152.116" stroke-width="12.958" stroke="rgb(33,33,33)" fill="none" stroke-linecap="round"></path><path d="M 239.804,152.116 C 244.795,150.369 245.413,150.567 249.235,147.057" stroke-width="12.957" stroke="rgb(33,33,33)" fill="none" stroke-linecap="round"></path><path d="M 249.235,147.057 C 253.167,143.446 253.727,142.959 255.311,137.874" stroke-width="12.929" stroke="rgb(33,33,33)" fill="none" stroke-linecap="round"></path><path d="M 255.311,137.874 C 257.230,131.712 256.818,131.141 256.241,124.563" stroke-width="12.321" stroke="rgb(33,33,33)" fill="none" stroke-linecap="round"></path><path d="M 256.241,124.563 C 255.545,116.630 255.078,116.535 252.765,108.851" stroke-width="11.883" stroke="rgb(33,33,33)" fill="none" stroke-linecap="round"></path><path d="M 252.765,108.851 C 250.383,100.937 250.222,100.922 246.850,93.368" stroke-width="11.249" stroke="rgb(33,33,33)" fill="none" stroke-linecap="round"></path><path d="M 246.850,93.368 C 244.050,87.096 243.903,87.123 240.422,81.199" stroke-width="11.237" stroke="rgb(33,33,33)" fill="none" stroke-linecap="round"></path><path d="M 240.422,81.199 C 238.129,77.296 238.104,77.254 235.302,73.714" stroke-width="11.770" stroke="rgb(33,33,33)" fill="none" stroke-linecap="round"></path><path d="M 235.302,73.714 C 233.725,71.722 233.490,71.918 231.663,70.136" stroke-width="12.188" stroke="rgb(33,33,33)" fill="none" stroke-linecap="round"></path><path d="M 231.663,70.136 C 231.041,69.530 230.526,68.946 230.405,68.938" stroke-width="13.015" stroke="rgb(33,33,33)" fill="none" stroke-linecap="round"></path><path d="M 230.405,68.938 C 230.305,68.931 230.941,69.457 231.221,70.106" stroke-width="13.880" stroke="rgb(33,33,33)" fill="none" stroke-linecap="round"></path><path d="M 231.221,70.106 C 231.998,71.908 231.813,71.994 232.520,73.840" stroke-width="14.262" stroke="rgb(33,33,33)" fill="none" stroke-linecap="round"></path><path d="M 232.520,73.840 C 234.269,78.405 234.211,78.432 236.134,82.927" stroke-width="13.810" stroke="rgb(33,33,33)" fill="none" stroke-linecap="round"></path><path d="M 236.134,82.927 C 240.540,93.226 240.164,93.418 245.179,103.428" stroke-width="12.485" stroke="rgb(33,33,33)" fill="none" stroke-linecap="round"></path><path d="M 245.179,103.428 C 253.938,120.912 253.706,121.108 263.682,137.915" stroke-width="10.604" stroke="rgb(33,33,33)" fill="none" stroke-linecap="round"></path><path d="M 263.682,137.915 C 271.350,150.833 271.750,150.632 280.466,162.878" stroke-width="9.386" stroke="rgb(33,33,33)" fill="none" stroke-linecap="round"></path><path d="M 280.466,162.878 C 285.267,169.622 285.453,169.500 290.715,175.895" stroke-width="9.641" stroke="rgb(33,33,33)" fill="none" stroke-linecap="round"></path><path d="M 290.715,175.895 C 295.080,181.200 295.067,181.225 299.721,186.278" stroke-width="9.681" stroke="rgb(33,33,33)" fill="none" stroke-linecap="round"></path><path d="M 299.721,186.278 C 304.702,191.686 304.813,191.586 309.984,196.816" stroke-width="10.288" stroke="rgb(33,33,33)" fill="none" stroke-linecap="round"></path><path d="M 309.984,196.816 C 315.393,202.288 315.412,202.270 320.881,207.683" stroke-width="9.567" stroke="rgb(33,33,33)" fill="none" stroke-linecap="round"></path><path d="M 320.881,207.683 C 325.365,212.121 325.354,212.133 329.889,216.518" stroke-width="9.540" stroke="rgb(33,33,33)" fill="none" stroke-linecap="round"></path><path d="M 329.889,216.518 C 332.596,219.136 332.560,219.183 335.366,221.689" stroke-width="10.164" stroke="rgb(33,33,33)" fill="none" stroke-linecap="round"></path><path d="M 217.705,186.438 C 232.270,178.090 232.900,179.023 246.835,169.742" stroke-width="18.799" stroke="rgb(33,33,33)" fill="none" stroke-linecap="round"></path><path d="M 246.835,169.742 C 258.597,161.908 258.043,161.069 269.100,152.209" stroke-width="14.301" stroke="rgb(33,33,33)" fill="none" stroke-linecap="round"></path><path d="M 299.531,153.781 C 305.965,162.064 305.368,162.630 312.398,170.346" stroke-width="19.276" stroke="rgb(33,33,33)" fill="none" stroke-linecap="round"></path><path d="M 292.500,134.094 C 301.212,143.237 300.516,144.280 309.925,152.380" stroke-width="19.151" stroke="rgb(33,33,33)" fill="none" stroke-linecap="round"></path><path d="M 309.925,152.380 C 312.686,154.757 313.282,154.214 316.839,155.048" stroke-width="17.458" stroke="rgb(33,33,33)" fill="none" stroke-linecap="round"></path><path d="M 316.839,155.048 C 319.272,155.619 319.491,155.628 321.905,155.190" stroke-width="17.142" stroke="rgb(33,33,33)" fill="none" stroke-linecap="round"></path><path d="M 321.905,155.190 C 323.552,154.891 323.959,154.756 324.961,153.573" stroke-width="17.111" stroke="rgb(33,33,33)" fill="none" stroke-linecap="round"></path><path d="M 324.961,153.573 C 325.676,152.729 325.768,152.180 325.340,151.135" stroke-width="17.166" stroke="rgb(33,33,33)" fill="none" stroke-linecap="round"></path><path d="M 325.340,151.135 C 324.629,149.398 324.375,149.075 322.683,148.010" stroke-width="16.897" stroke="rgb(33,33,33)" fill="none" stroke-linecap="round"></path><path d="M 322.683,148.010 C 319.584,146.060 319.389,145.888 315.756,145.104" stroke-width="16.086" stroke="rgb(33,33,33)" fill="none" stroke-linecap="round"></path><path d="M 315.756,145.104 C 309.933,143.847 309.744,143.585 303.772,143.928" stroke-width="15.320" stroke="rgb(33,33,33)" fill="none" stroke-linecap="round"></path><path d="M 303.772,143.928 C 292.596,144.569 292.278,144.083 281.460,147.071" stroke-width="12.624" stroke="rgb(33,33,33)" fill="none" stroke-linecap="round"></path><path d="M 281.460,147.071 C 257.789,153.610 257.230,153.045 234.794,162.983" stroke-width="9.814" stroke="rgb(33,33,33)" fill="none" stroke-linecap="round"></path><path d="M 234.794,162.983 C 215.707,171.437 215.726,172.121 198.414,183.856" stroke-width="8.639" stroke="rgb(33,33,33)" fill="none" stroke-linecap="round"></path><path d="M 198.414,183.856 C 180.480,196.013 180.791,196.653 164.302,210.768" stroke-width="7.734" stroke="rgb(33,33,33)" fill="none" stroke-linecap="round"></path><path d="M 164.302,210.768 C 149.529,223.414 149.138,223.202 135.889,237.378" stroke-width="7.488" stroke="rgb(33,33,33)" fill="none" stroke-linecap="round"></path><path d="M 135.889,237.378 C 126.450,247.478 126.491,247.789 118.926,259.321" stroke-width="7.408" stroke="rgb(33,33,33)" fill="none" stroke-linecap="round"></path><path d="M 118.926,259.321 C 114.764,265.666 112.959,266.626 112.434,273.131" stroke-width="7.891" stroke="rgb(33,33,33)" fill="none" stroke-linecap="round"></path><path d="M 112.434,273.131 C 112.180,276.280 114.176,278.307 117.368,278.629" stroke-width="8.612" stroke="rgb(33,33,33)" fill="none" stroke-linecap="round"></path><path d="M 117.368,278.629 C 123.488,279.246 124.662,277.938 131.058,275.009" stroke-width="9.080" stroke="rgb(33,33,33)" fill="none" stroke-linecap="round"></path><path d="M 131.058,275.009 C 145.621,268.341 145.391,267.599 159.287,259.436" stroke-width="8.388" stroke="rgb(33,33,33)" fill="none" stroke-linecap="round"></path><path d="M 159.287,259.436 C 180.140,247.187 179.999,246.936 200.555,234.185" stroke-width="7.744" stroke="rgb(33,33,33)" fill="none" stroke-linecap="round"></path><path d="M 200.555,234.185 C 223.565,219.911 223.576,219.924 246.420,205.386" stroke-width="6.750" stroke="rgb(33,33,33)" fill="none" stroke-linecap="round"></path><path d="M 246.420,205.386 C 270.003,190.377 269.963,190.313 293.410,175.091" stroke-width="6.750" stroke="rgb(33,33,33)" fill="none" stroke-linecap="round"></path></svg>