<svg xmlns="http://www.w3.org/2000/svg" xmlns:xlink="http://www.w3.org/1999/xlink" viewBox="0 0 360 500"><path d="M 84.667,315.333 C 87.270,309.206 87.402,309.259 89.873,303.079" stroke-width="19.226" stroke="rgb(33,33,33)" fill="none" stroke-linecap="round"></path><path d="M 89.873,303.079 C 92.089,297.537 92.220,297.571 94.040,291.889" stroke-width="16.990" stroke="rgb(33,33,33)" fill="none" stroke-linecap="round"></path><path d="M 94.040,291.889 C 96.670,283.679 96.464,283.608 98.773,275.295" stroke-width="14.790" stroke="rgb(33,33,33)" fill="none" stroke-linecap="round"></path><path d="M 98.773,275.295 C 101.179,266.635 101.671,266.732 103.470,257.944" stroke-width="13.439" stroke="rgb(33,33,33)" fill="none" stroke-linecap="round"></path><path d="M 103.470,257.944 C 105.284,249.085 104.802,248.981 106.000,240.000" stroke-width="12.408" stroke="rgb(33,33,33)" fill="none" stroke-linecap="round"></path><path d="M 106.000,240.000 C 107.818,226.371 107.962,226.384 109.503,212.724" stroke-width="11.071" stroke="rgb(33,33,33)" fill="none" stroke-linecap="round"></path><path d="M 109.503,212.724 C 110.296,205.696 110.218,205.679 110.667,198.623" stroke-width="11.067" stroke="rgb(33,33,33)" fill="none" stroke-linecap="round"></path><path d="M 110.667,198.623 C 110.800,196.530 111.001,196.352 110.667,194.426" stroke-width="11.820" stroke="rgb(33,33,33)" fill="none" stroke-linecap="round"></path><path d="M 110.667,194.426 C 110.586,193.959 110.047,193.483 109.837,193.837" stroke-width="12.790" stroke="rgb(33,33,33)" fill="none" stroke-linecap="round"></path><path d="M 109.837,193.837 C 108.760,195.655 108.562,196.208 108.093,198.769" stroke-width="13.218" stroke="rgb(33,33,33)" fill="none" stroke-linecap="round"></path><path d="M 108.093,198.769 C 106.770,205.998 106.470,206.053 106.254,213.417" stroke-width="11.954" stroke="rgb(33,33,33)" fill="none" stroke-linecap="round"></path><path d="M 106.254,213.417 C 105.757,230.339 105.006,230.527 106.667,247.341" stroke-width="10.361" stroke="rgb(33,33,33)" fill="none" stroke-linecap="round"></path><path d="M 106.667,247.341 C 108.213,262.985 108.601,263.574 112.667,278.333" stroke-width="9.383" stroke="rgb(33,33,33)" fill="none" stroke-linecap="round"></path><path d="M 112.667,278.333 C 113.130,280.013 114.630,278.862 115.725,280.219" stroke-width="10.319" stroke="rgb(33,33,33)" fill="none" stroke-linecap="round"></path><path d="M 115.725,280.219 C 117.827,282.824 116.941,283.678 119.060,286.257" stroke-width="10.876" stroke="rgb(33,33,33)" fill="none" stroke-linecap="round"></path><path d="M 119.060,286.257 C 120.178,287.618 120.508,288.089 122.199,288.100" stroke-width="11.689" stroke="rgb(33,33,33)" fill="none" stroke-linecap="round"></path><path d="M 122.199,288.100 C 125.341,288.120 126.412,288.476 128.726,286.318" stroke-width="12.036" stroke="rgb(33,33,33)" fill="none" stroke-linecap="round"></path><path d="M 128.726,286.318 C 132.773,282.544 132.520,281.610 134.920,276.235" stroke-width="12.016" stroke="rgb(33,33,33)" fill="none" stroke-linecap="round"></path><path d="M 134.920,276.235 C 138.990,267.118 139.362,267.049 141.667,257.333" stroke-width="11.256" stroke="rgb(33,33,33)" fill="none" stroke-linecap="round"></path><path d="M 141.667,257.333 C 144.491,245.429 143.896,245.201 145.178,232.995" stroke-width="10.669" stroke="rgb(33,33,33)" fill="none" stroke-linecap="round"></path><path d="M 145.178,232.995 C 145.729,227.747 145.280,227.710 145.333,222.424" stroke-width="11.067" stroke="rgb(33,33,33)" fill="none" stroke-linecap="round"></path><path d="M 145.333,222.424 C 145.357,220.026 145.054,219.973 145.333,217.627" stroke-width="11.613" stroke="rgb(33,33,33)" fill="none" stroke-linecap="round"></path><path d="M 145.333,217.627 C 145.463,216.533 145.667,215.294 146.152,215.544" stroke-width="12.490" stroke="rgb(33,33,33)" fill="none" stroke-linecap="round"></path><path d="M 146.152,215.544 C 147.001,215.981 147.508,217.110 148.000,219.000" stroke-width="13.122" stroke="rgb(33,33,33)" fill="none" stroke-linecap="round"></path><path d="M 148.000,219.000 C 151.925,234.079 151.659,234.205 154.985,249.481" stroke-width="11.235" stroke="rgb(33,33,33)" fill="none" stroke-linecap="round"></path><path d="M 154.985,249.481 C 157.364,260.410 156.852,260.533 159.411,271.410" stroke-width="10.538" stroke="rgb(33,33,33)" fill="none" stroke-linecap="round"></path><path d="M 159.411,271.410 C 160.643,276.643 160.144,277.052 162.567,281.701" stroke-width="10.818" stroke="rgb(33,33,33)" fill="none" stroke-linecap="round"></path><path d="M 162.567,281.701 C 164.137,284.713 164.836,284.390 167.398,286.732" stroke-width="11.380" stroke="rgb(33,33,33)" fill="none" stroke-linecap="round"></path><path d="M 167.398,286.732 C 168.567,287.801 168.820,289.048 170.030,288.523" stroke-width="12.191" stroke="rgb(33,33,33)" fill="none" stroke-linecap="round"></path><path d="M 170.030,288.523 C 173.121,287.182 174.460,286.634 176.000,283.000" stroke-width="12.419" stroke="rgb(33,33,33)" fill="none" stroke-linecap="round"></path><path d="M 176.000,283.000 C 180.563,272.230 179.938,271.523 182.235,259.716" stroke-width="11.326" stroke="rgb(33,33,33)" fill="none" stroke-linecap="round"></path><path d="M 182.235,259.716 C 185.090,245.038 184.763,244.913 186.303,230.029" stroke-width="10.100" stroke="rgb(33,33,33)" fill="none" stroke-linecap="round"></path><path d="M 186.303,230.029 C 186.979,223.494 186.551,223.454 186.667,216.878" stroke-width="10.287" stroke="rgb(33,33,33)" fill="none" stroke-linecap="round"></path><path d="M 186.667,216.878 C 186.733,213.146 186.318,213.083 186.667,209.413" stroke-width="10.872" stroke="rgb(33,33,33)" fill="none" stroke-linecap="round"></path><path d="M 186.667,209.413 C 186.794,208.072 186.853,206.952 187.619,206.857" stroke-width="11.759" stroke="rgb(33,33,33)" fill="none" stroke-linecap="round"></path><path d="M 187.619,206.857 C 188.519,206.745 189.229,207.605 190.000,209.000" stroke-width="12.536" stroke="rgb(33,33,33)" fill="none" stroke-linecap="round"></path><path d="M 190.000,209.000 C 198.720,224.788 198.066,225.237 206.600,241.223" stroke-width="10.409" stroke="rgb(33,33,33)" fill="none" stroke-linecap="round"></path><path d="M 255.333,300.667 C 256.187,294.172 256.558,294.204 257.040,287.677" stroke-width="18.572" stroke="rgb(33,33,33)" fill="none" stroke-linecap="round"></path><path d="M 257.040,287.677 C 257.875,276.376 257.918,276.347 257.968,265.012" stroke-width="14.935" stroke="rgb(33,33,33)" fill="none" stroke-linecap="round"></path><path d="M 257.968,265.012 C 258.025,252.200 257.441,252.199 257.254,239.382" stroke-width="12.765" stroke="rgb(33,33,33)" fill="none" stroke-linecap="round"></path><path d="M 257.254,239.382 C 257.123,230.417 257.106,230.410 257.333,221.449" stroke-width="11.959" stroke="rgb(33,33,33)" fill="none" stroke-linecap="round"></path><path d="M 257.333,221.449 C 257.479,215.719 257.113,215.546 258.000,210.000" stroke-width="12.039" stroke="rgb(33,33,33)" fill="none" stroke-linecap="round"></path><path d="M 258.000,210.000 C 258.224,208.601 258.610,208.366 259.554,207.559" stroke-width="12.783" stroke="rgb(33,33,33)" fill="none" stroke-linecap="round"></path><path d="M 259.554,207.559 C 259.894,207.268 260.414,207.355 260.568,207.803" stroke-width="13.692" stroke="rgb(33,33,33)" fill="none" stroke-linecap="round"></path><path d="M 260.568,207.803 C 261.313,209.970 261.226,210.275 261.351,212.788" stroke-width="14.002" stroke="rgb(33,33,33)" fill="none" stroke-linecap="round"></path><path d="M 261.351,212.788 C 261.609,217.973 261.775,218.031 261.333,223.200" stroke-width="13.687" stroke="rgb(33,33,33)" fill="none" stroke-linecap="round"></path><path d="M 261.333,223.200 C 260.878,228.523 261.243,228.765 259.556,233.772" stroke-width="13.344" stroke="rgb(33,33,33)" fill="none" stroke-linecap="round"></path><path d="M 259.556,233.772 C 258.076,238.165 257.874,238.432 255.000,242.000" stroke-width="13.221" stroke="rgb(33,33,33)" fill="none" stroke-linecap="round"></path><path d="M 255.000,242.000 C 253.328,244.076 252.737,243.538 250.463,245.059" stroke-width="13.626" stroke="rgb(33,33,33)" fill="none" stroke-linecap="round"></path><path d="M 250.463,245.059 C 248.380,246.452 248.535,247.631 246.286,247.828" stroke-width="13.951" stroke="rgb(33,33,33)" fill="none" stroke-linecap="round"></path><path d="M 246.286,247.828 C 243.549,248.068 243.276,247.154 240.490,245.934" stroke-width="14.088" stroke="rgb(33,33,33)" fill="none" stroke-linecap="round"></path><path d="M 240.490,245.934 C 235.361,243.687 235.327,243.670 230.456,240.895" stroke-width="13.793" stroke="rgb(33,33,33)" fill="none" stroke-linecap="round"></path><path d="M 230.456,240.895 C 225.712,238.193 225.617,238.261 221.260,234.981" stroke-width="13.229" stroke="rgb(33,33,33)" fill="none" stroke-linecap="round"></path><path d="M 221.260,234.981 C 216.389,231.314 217.279,229.749 212.000,227.000" stroke-width="12.911" stroke="rgb(33,33,33)" fill="none" stroke-linecap="round"></path><path d="M 212.000,227.000 C 206.637,224.208 206.054,225.135 199.976,223.898" stroke-width="12.650" stroke="rgb(33,33,33)" fill="none" stroke-linecap="round"></path><path d="M 199.976,223.898 C 192.317,222.339 192.267,221.475 184.527,221.409" stroke-width="12.081" stroke="rgb(33,33,33)" fill="none" stroke-linecap="round"></path><path d="M 184.527,221.409 C 176.259,221.338 176.125,221.935 167.960,223.625" stroke-width="11.572" stroke="rgb(33,33,33)" fill="none" stroke-linecap="round"></path><path d="M 167.960,223.625 C 158.822,225.516 158.622,225.220 149.921,228.571" stroke-width="11.270" stroke="rgb(33,33,33)" fill="none" stroke-linecap="round"></path><path d="M 149.921,228.571 C 135.724,234.039 134.903,233.190 122.164,241.263" stroke-width="9.905" stroke="rgb(33,33,33)" fill="none" stroke-linecap="round"></path><path d="M 122.164,241.263 C 112.151,247.608 113.141,249.176 104.417,257.407" stroke-width="9.562" stroke="rgb(33,33,33)" fill="none" stroke-linecap="round"></path><path d="M 104.417,257.407 C 92.800,268.366 92.853,268.427 81.482,279.643" stroke-width="9.003" stroke="rgb(33,33,33)" fill="none" stroke-linecap="round"></path><path d="M 81.482,279.643 C 74.858,286.176 74.425,285.814 68.428,292.905" stroke-width="8.940" stroke="rgb(33,33,33)" fill="none" stroke-linecap="round"></path><path d="M 68.428,292.905 C 59.285,303.716 59.665,304.069 51.202,315.447" stroke-width="8.632" stroke="rgb(33,33,33)" fill="none" stroke-linecap="round"></path><path d="M 51.202,315.447 C 48.953,318.471 49.322,318.753 47.003,321.710" stroke-width="9.328" stroke="rgb(33,33,33)" fill="none" stroke-linecap="round"></path><path d="M 47.003,321.710 C 45.054,324.196 44.507,323.802 42.667,326.333" stroke-width="10.124" stroke="rgb(33,33,33)" fill="none" stroke-linecap="round"></path><path d="M 42.667,326.333 C 41.531,327.896 41.651,328.054 41.051,329.898" stroke-width="10.910" stroke="rgb(33,33,33)" fill="none" stroke-linecap="round"></path><path d="M 41.051,329.898 C 40.651,331.127 40.006,331.885 40.667,332.479" stroke-width="11.804" stroke="rgb(33,33,33)" fill="none" stroke-linecap="round"></path><path d="M 40.667,332.479 C 41.546,333.269 42.597,333.381 44.131,332.667" stroke-width="12.533" stroke="rgb(33,33,33)" fill="none" stroke-linecap="round"></path><path d="M 44.131,332.667 C 51.362,329.300 51.362,328.802 58.197,324.316" stroke-width="11.932" stroke="rgb(33,33,33)" fill="none" stroke-linecap="round"></path><path d="M 58.197,324.316 C 75.301,313.090 75.379,313.164 92.010,301.243" stroke-width="10.062" stroke="rgb(33,33,33)" fill="none" stroke-linecap="round"></path><path d="M 92.010,301.243 C 109.780,288.506 109.839,288.545 127.000,275.000" stroke-width="8.592" stroke="rgb(33,33,33)" fill="none" stroke-linecap="round"></path><path d="M 127.000,275.000 C 146.219,259.831 145.342,258.696 164.771,243.814" stroke-width="7.608" stroke="rgb(33,33,33)" fill="none" stroke-linecap="round"></path><path d="M 164.771,243.814 C 182.709,230.074 183.475,231.091 201.733,217.756" stroke-width="6.996" stroke="rgb(33,33,33)" fill="none" stroke-linecap="round"></path><path d="M 201.733,217.756 C 219.403,204.851 218.940,204.215 236.627,191.334" stroke-width="6.750" stroke="rgb(33,33,33)" fill="none" stroke-linecap="round"></path><path d="M 236.627,191.334 C 254.522,178.301 254.358,178.007 272.897,165.928" stroke-width="6.750" stroke="rgb(33,33,33)" fill="none" stroke-linecap="round"></path><path d="M 272.897,165.928 C 289.304,155.238 289.110,154.614 306.520,145.795" stroke-width="6.750" stroke="rgb(33,33,33)" fill="none" stroke-linecap="round"></path><path d="M 306.520,145.795 C 317.314,140.327 318.720,142.845 329.305,137.355" stroke-width="6.750" stroke="rgb(33,33,33)" fill="none" stroke-linecap="round"></path></svg>