<svg xmlns="http://www.w3.org/2000/svg" xmlns:xlink="http://www.w3.org/1999/xlink" viewBox="0 0 360 500"><path d="M 125.000,104.500 C 125.932,113.342 125.536,113.403 126.864,122.183" stroke-width="19.627" stroke="rgb(33,33,33)" fill="none" stroke-linecap="round"></path><path d="M 126.864,122.183 C 128.002,129.709 128.314,129.666 129.932,137.112" stroke-width="16.809" stroke="rgb(33,33,33)" fill="none" stroke-linecap="round"></path><path d="M 129.932,137.112 C 131.594,144.759 131.253,144.863 133.425,152.370" stroke-width="14.896" stroke="rgb(33,33,33)" fill="none" stroke-linecap="round"></path><path d="M 133.425,152.370 C 135.865,160.804 136.218,160.708 139.157,168.994" stroke-width="13.655" stroke="rgb(33,33,33)" fill="none" stroke-linecap="round"></path><path d="M 139.157,168.994 C 141.997,177.000 142.076,176.972 144.984,184.953" stroke-width="12.766" stroke="rgb(33,33,33)" fill="none" stroke-linecap="round"></path><path d="M 144.984,184.953 C 147.755,192.558 147.636,192.603 150.515,200.166" stroke-width="12.203" stroke="rgb(33,33,33)" fill="none" stroke-linecap="round"></path><path d="M 150.515,200.166 C 152.597,205.635 152.490,205.693 154.907,211.017" stroke-width="12.216" stroke="rgb(33,33,33)" fill="none" stroke-linecap="round"></path><path d="M 154.907,211.017 C 156.811,215.213 157.012,215.122 159.157,219.205" stroke-width="12.337" stroke="rgb(33,33,33)" fill="none" stroke-linecap="round"></path><path d="M 159.157,219.205 C 160.671,222.087 160.725,222.059 162.224,224.948" stroke-width="12.831" stroke="rgb(33,33,33)" fill="none" stroke-linecap="round"></path><path d="M 162.224,224.948 C 163.413,227.241 163.379,227.259 164.534,229.569" stroke-width="13.180" stroke="rgb(33,33,33)" fill="none" stroke-linecap="round"></path><path d="M 164.534,229.569 C 165.229,230.959 165.186,230.982 165.924,232.348" stroke-width="13.960" stroke="rgb(33,33,33)" fill="none" stroke-linecap="round"></path><path d="M 165.924,232.348 C 166.585,233.571 166.621,233.552 167.332,234.748" stroke-width="14.697" stroke="rgb(33,33,33)" fill="none" stroke-linecap="round"></path><path d="M 167.332,234.748 C 167.778,235.497 167.786,235.492 168.238,236.238" stroke-width="15.397" stroke="rgb(33,33,33)" fill="none" stroke-linecap="round"></path><path d="M 168.238,236.238 C 168.620,236.868 169.161,237.948 169.000,237.500" stroke-width="16.037" stroke="rgb(33,33,33)" fill="none" stroke-linecap="round"></path><path d="M 169.000,237.500 C 168.257,235.437 167.969,234.231 166.430,231.216" stroke-width="10.720" stroke="rgb(33,33,33)" fill="none" stroke-linecap="round"></path><path d="M 166.430,231.216 C 164.551,227.534 164.305,227.657 162.164,224.107" stroke-width="11.115" stroke="rgb(33,33,33)" fill="none" stroke-linecap="round"></path><path d="M 162.164,224.107 C 159.886,220.329 160.029,220.234 157.593,216.561" stroke-width="11.456" stroke="rgb(33,33,33)" fill="none" stroke-linecap="round"></path><path d="M 157.593,216.561 C 155.577,213.521 155.725,213.340 153.260,210.681" stroke-width="11.911" stroke="rgb(33,33,33)" fill="none" stroke-linecap="round"></path><path d="M 153.260,210.681 C 151.090,208.340 151.029,208.257 148.322,206.562" stroke-width="12.466" stroke="rgb(33,33,33)" fill="none" stroke-linecap="round"></path><path d="M 148.322,206.562 C 144.631,204.251 144.595,203.991 140.465,202.669" stroke-width="12.585" stroke="rgb(33,33,33)" fill="none" stroke-linecap="round"></path><path d="M 140.465,202.669 C 136.228,201.313 136.020,200.804 131.589,201.206" stroke-width="12.599" stroke="rgb(33,33,33)" fill="none" stroke-linecap="round"></path><path d="M 131.589,201.206 C 118.405,202.401 118.204,202.787 105.234,205.862" stroke-width="12.357" stroke="rgb(33,33,33)" fill="none" stroke-linecap="round"></path><path d="M 105.234,205.862 C 99.659,207.184 99.905,208.036 94.500,210.000" stroke-width="12.300" stroke="rgb(33,33,33)" fill="none" stroke-linecap="round"></path><path d="M 94.500,210.000 C 88.222,212.281 88.047,211.849 81.868,214.353" stroke-width="11.945" stroke="rgb(33,33,33)" fill="none" stroke-linecap="round"></path><path d="M 81.868,214.353 C 77.500,216.123 77.613,216.405 73.405,218.548" stroke-width="12.432" stroke="rgb(33,33,33)" fill="none" stroke-linecap="round"></path><path d="M 73.405,218.548 C 69.317,220.630 69.312,220.624 65.276,222.804" stroke-width="12.697" stroke="rgb(33,33,33)" fill="none" stroke-linecap="round"></path><path d="M 65.276,222.804 C 62.581,224.259 62.466,224.097 59.943,225.818" stroke-width="13.461" stroke="rgb(33,33,33)" fill="none" stroke-linecap="round"></path><path d="M 59.943,225.818 C 56.836,227.937 56.918,228.082 54.015,230.485" stroke-width="13.399" stroke="rgb(33,33,33)" fill="none" stroke-linecap="round"></path><path d="M 54.015,230.485 C 53.260,231.110 53.322,231.179 52.628,231.872" stroke-width="14.017" stroke="rgb(33,33,33)" fill="none" stroke-linecap="round"></path><path d="M 52.628,231.872 C 52.115,232.386 52.114,232.385 51.601,232.899" stroke-width="14.840" stroke="rgb(33,33,33)" fill="none" stroke-linecap="round"></path><path d="M 51.601,232.899 C 51.300,233.199 50.913,233.263 51.000,233.500" stroke-width="15.589" stroke="rgb(33,33,33)" fill="none" stroke-linecap="round"></path><path d="M 51.000,233.500 C 51.116,233.814 51.460,234.020 52.007,234.000" stroke-width="16.146" stroke="rgb(33,33,33)" fill="none" stroke-linecap="round"></path><path d="M 52.007,234.000 C 54.470,233.911 54.715,234.266 57.019,233.283" stroke-width="16.114" stroke="rgb(33,33,33)" fill="none" stroke-linecap="round"></path><path d="M 57.019,233.283 C 64.394,230.137 64.038,229.189 71.365,225.743" stroke-width="7.166" stroke="rgb(33,33,33)" fill="none" stroke-linecap="round"></path><path d="M 71.365,225.743 C 80.106,221.631 80.305,222.059 89.154,218.166" stroke-width="7.276" stroke="rgb(33,33,33)" fill="none" stroke-linecap="round"></path><path d="M 89.154,218.166 C 100.859,213.017 100.803,212.889 112.473,207.659" stroke-width="7.512" stroke="rgb(33,33,33)" fill="none" stroke-linecap="round"></path><path d="M 112.473,207.659 C 125.634,201.761 125.469,201.353 138.817,195.911" stroke-width="7.314" stroke="rgb(33,33,33)" fill="none" stroke-linecap="round"></path><path d="M 138.817,195.911 C 152.707,190.248 152.836,190.550 166.949,185.447" stroke-width="7.568" stroke="rgb(33,33,33)" fill="none" stroke-linecap="round"></path><path d="M 166.949,185.447 C 181.936,180.028 182.012,180.238 197.017,174.866" stroke-width="7.051" stroke="rgb(33,33,33)" fill="none" stroke-linecap="round"></path><path d="M 197.017,174.866 C 211.503,169.680 211.366,169.282 225.930,164.330" stroke-width="7.026" stroke="rgb(33,33,33)" fill="none" stroke-linecap="round"></path><path d="M 225.930,164.330 C 239.249,159.802 239.422,160.317 252.783,155.906" stroke-width="7.580" stroke="rgb(33,33,33)" fill="none" stroke-linecap="round"></path><path d="M 252.783,155.906 C 264.250,152.120 264.078,151.578 275.586,147.937" stroke-width="7.978" stroke="rgb(33,33,33)" fill="none" stroke-linecap="round"></path><path d="M 275.586,147.937 C 284.142,145.231 284.314,145.792 292.911,143.212" stroke-width="8.507" stroke="rgb(33,33,33)" fill="none" stroke-linecap="round"></path><path d="M 292.911,143.212 C 300.814,140.841 300.809,140.778 308.586,138.035" stroke-width="9.232" stroke="rgb(33,33,33)" fill="none" stroke-linecap="round"></path><path d="M 308.586,138.035 C 310.424,137.387 310.373,137.251 312.142,136.429" stroke-width="10.107" stroke="rgb(33,33,33)" fill="none" stroke-linecap="round"></path><path d="M 312.142,136.429 C 312.830,136.109 312.819,136.086 313.500,135.750" stroke-width="11.063" stroke="rgb(33,33,33)" fill="none" stroke-linecap="round"></path><path d="M 313.500,135.750 C 313.736,135.633 313.741,135.641 313.976,135.524" stroke-width="12.040" stroke="rgb(33,33,33)" fill="none" stroke-linecap="round"></path><path d="M 313.976,135.524 C 313.991,135.516 313.983,135.500 314.000,135.500" stroke-width="13.100" stroke="rgb(33,33,33)" fill="none" stroke-linecap="round"></path><path d="M 314.000,135.500 C 314.495,135.488 314.856,135.353 315.000,135.500" stroke-width="14.045" stroke="rgb(33,33,33)" fill="none" stroke-linecap="round"></path><path d="M 315.000,135.500 C 315.103,135.605 314.792,135.822 314.495,136.005" stroke-width="14.956" stroke="rgb(33,33,33)" fill="none" stroke-linecap="round"></path><path d="M 314.495,136.005 C 314.140,136.224 314.112,136.221 313.696,136.304" stroke-width="15.651" stroke="rgb(33,33,33)" fill="none" stroke-linecap="round"></path><path d="M 313.696,136.304 C 312.864,136.469 312.665,136.183 312.000,136.500" stroke-width="16.134" stroke="rgb(33,33,33)" fill="none" stroke-linecap="round"></path><path d="M 312.000,136.500 C 311.710,136.638 312.097,137.070 311.787,137.213" stroke-width="16.719" stroke="rgb(33,33,33)" fill="none" stroke-linecap="round"></path><path d="M 311.787,137.213 C 310.572,137.775 310.381,137.622 308.950,137.910" stroke-width="16.630" stroke="rgb(33,33,33)" fill="none" stroke-linecap="round"></path><path d="M 308.950,137.910 C 306.884,138.325 306.849,138.160 304.792,138.618" stroke-width="16.548" stroke="rgb(33,33,33)" fill="none" stroke-linecap="round"></path><path d="M 304.792,138.618 C 301.825,139.279 301.826,139.308 298.903,140.149" stroke-width="16.291" stroke="rgb(33,33,33)" fill="none" stroke-linecap="round"></path><path d="M 298.903,140.149 C 295.833,141.032 295.892,141.242 292.806,142.065" stroke-width="16.370" stroke="rgb(33,33,33)" fill="none" stroke-linecap="round"></path><path d="M 292.806,142.065 C 288.326,143.259 288.281,143.091 283.772,144.182" stroke-width="13.510" stroke="rgb(33,33,33)" fill="none" stroke-linecap="round"></path><path d="M 283.772,144.182 C 279.501,145.216 279.452,145.057 275.246,146.314" stroke-width="13.102" stroke="rgb(33,33,33)" fill="none" stroke-linecap="round"></path><path d="M 275.246,146.314 C 271.319,147.488 271.374,147.674 267.506,149.043" stroke-width="13.255" stroke="rgb(33,33,33)" fill="none" stroke-linecap="round"></path><path d="M 267.506,149.043 C 263.525,150.452 263.487,150.351 259.548,151.870" stroke-width="13.255" stroke="rgb(33,33,33)" fill="none" stroke-linecap="round"></path><path d="M 259.548,151.870 C 255.547,153.413 255.573,153.484 251.626,155.166" stroke-width="13.705" stroke="rgb(33,33,33)" fill="none" stroke-linecap="round"></path><path d="M 251.626,155.166 C 248.660,156.430 248.679,156.476 245.722,157.762" stroke-width="14.318" stroke="rgb(33,33,33)" fill="none" stroke-linecap="round"></path><path d="M 245.722,157.762 C 243.282,158.822 243.213,158.677 240.832,159.858" stroke-width="14.440" stroke="rgb(33,33,33)" fill="none" stroke-linecap="round"></path><path d="M 240.832,159.858 C 236.691,161.911 236.817,162.184 232.678,164.229" stroke-width="14.268" stroke="rgb(33,33,33)" fill="none" stroke-linecap="round"></path><path d="M 232.678,164.229 C 231.534,164.794 231.410,164.523 230.267,165.078" stroke-width="14.760" stroke="rgb(33,33,33)" fill="none" stroke-linecap="round"></path><path d="M 230.267,165.078 C 229.071,165.659 229.152,165.821 228.000,166.500" stroke-width="14.988" stroke="rgb(33,33,33)" fill="none" stroke-linecap="round"></path><path d="M 228.000,166.500 C 227.538,166.773 227.520,166.741 227.039,166.981" stroke-width="15.380" stroke="rgb(33,33,33)" fill="none" stroke-linecap="round"></path><path d="M 227.039,166.981 C 226.520,167.241 226.485,167.192 226.000,167.500" stroke-width="16.069" stroke="rgb(33,33,33)" fill="none" stroke-linecap="round"></path><path d="M 226.000,167.500 C 225.771,167.646 225.805,167.694 225.611,167.889" stroke-width="16.692" stroke="rgb(33,33,33)" fill="none" stroke-linecap="round"></path><path d="M 225.611,167.889 C 225.430,168.069 225.448,168.221 225.250,168.250" stroke-width="17.164" stroke="rgb(33,33,33)" fill="none" stroke-linecap="round"></path><path d="M 225.250,168.250 C 225.067,168.277 224.908,167.941 224.849,168.000" stroke-width="17.583" stroke="rgb(33,33,33)" fill="none" stroke-linecap="round"></path><path d="M 224.849,168.000 C 224.783,168.066 224.924,168.250 225.000,168.500" stroke-width="17.647" stroke="rgb(33,33,33)" fill="none" stroke-linecap="round"></path><path d="M 225.000,168.500 C 225.000,168.500 225.000,168.500 225.000,168.500" stroke-width="18.113" stroke="rgb(33,33,33)" fill="none" stroke-linecap="round"></path><path d="M 225.000,168.500 C 225.518,169.009 225.522,169.005 226.035,169.518" stroke-width="18.219" stroke="rgb(33,33,33)" fill="none" stroke-linecap="round"></path><path d="M 226.035,169.518 C 226.761,170.244 226.629,170.440 227.478,170.978" stroke-width="18.189" stroke="rgb(33,33,33)" fill="none" stroke-linecap="round"></path><path d="M 227.478,170.978 C 228.499,171.625 228.685,171.320 229.775,171.887" stroke-width="18.056" stroke="rgb(33,33,33)" fill="none" stroke-linecap="round"></path><path d="M 229.775,171.887 C 230.934,172.490 230.828,172.688 231.976,173.318" stroke-width="18.002" stroke="rgb(33,33,33)" fill="none" stroke-linecap="round"></path><path d="M 231.976,173.318 C 233.396,174.097 233.451,173.996 234.911,174.706" stroke-width="17.826" stroke="rgb(33,33,33)" fill="none" stroke-linecap="round"></path><path d="M 234.911,174.706 C 236.329,175.395 236.376,175.318 237.732,176.116" stroke-width="17.733" stroke="rgb(33,33,33)" fill="none" stroke-linecap="round"></path><path d="M 237.732,176.116 C 239.191,176.975 239.113,177.104 240.540,178.020" stroke-width="17.620" stroke="rgb(33,33,33)" fill="none" stroke-linecap="round"></path><path d="M 240.540,178.020 C 241.696,178.762 241.761,178.662 242.897,179.432" stroke-width="17.379" stroke="rgb(33,33,33)" fill="none" stroke-linecap="round"></path><path d="M 242.897,179.432 C 244.297,180.382 244.171,180.584 245.612,181.459" stroke-width="17.310" stroke="rgb(33,33,33)" fill="none" stroke-linecap="round"></path><path d="M 245.612,181.459 C 246.888,182.234 246.946,182.158 248.331,182.732" stroke-width="17.221" stroke="rgb(33,33,33)" fill="none" stroke-linecap="round"></path><path d="M 248.331,182.732 C 249.498,183.215 249.586,183.025 250.716,183.572" stroke-width="17.454" stroke="rgb(33,33,33)" fill="none" stroke-linecap="round"></path><path d="M 250.716,183.572 C 251.686,184.042 251.570,184.273 252.530,184.765" stroke-width="17.641" stroke="rgb(33,33,33)" fill="none" stroke-linecap="round"></path><path d="M 252.530,184.765 C 253.430,185.226 253.552,184.990 254.437,185.479" stroke-width="17.963" stroke="rgb(33,33,33)" fill="none" stroke-linecap="round"></path><path d="M 254.437,185.479 C 255.923,186.301 255.807,186.555 257.273,187.387" stroke-width="17.765" stroke="rgb(33,33,33)" fill="none" stroke-linecap="round"></path><path d="M 257.273,187.387 C 257.589,187.566 257.677,187.339 258.000,187.500" stroke-width="18.132" stroke="rgb(33,33,33)" fill="none" stroke-linecap="round"></path><path d="M 258.000,187.500 C 258.791,187.894 258.963,187.885 259.500,188.498" stroke-width="17.981" stroke="rgb(33,33,33)" fill="none" stroke-linecap="round"></path><path d="M 259.500,188.498 C 259.713,188.741 259.724,188.951 259.500,189.213" stroke-width="18.254" stroke="rgb(33,33,33)" fill="none" stroke-linecap="round"></path><path d="M 259.500,189.213 C 257.980,190.989 257.848,190.999 256.011,192.574" stroke-width="16.518" stroke="rgb(33,33,33)" fill="none" stroke-linecap="round"></path><path d="M 256.011,192.574 C 252.744,195.375 252.732,195.376 249.292,197.966" stroke-width="14.192" stroke="rgb(33,33,33)" fill="none" stroke-linecap="round"></path><path d="M 249.292,197.966 C 244.871,201.296 244.876,201.317 240.289,204.415" stroke-width="13.944" stroke="rgb(33,33,33)" fill="none" stroke-linecap="round"></path><path d="M 240.289,204.415 C 235.822,207.431 235.775,207.367 231.184,210.194" stroke-width="13.359" stroke="rgb(33,33,33)" fill="none" stroke-linecap="round"></path></svg>