<svg xmlns="http://www.w3.org/2000/svg" xmlns:xlink="http://www.w3.org/1999/xlink" viewBox="0 0 800 500"><path d="M 93.000,353.000 C 93.500,350.500 92.743,350.095 94.000,348.000" stroke-width="19.456" stroke="rgb(33,33,33)" fill="none" stroke-linecap="round"></path><path d="M 94.000,348.000 C 95.743,345.095 96.858,345.785 99.000,343.000" stroke-width="17.969" stroke="rgb(33,33,33)" fill="none" stroke-linecap="round"></path><path d="M 99.000,343.000 C 101.858,339.285 100.980,338.586 104.000,335.000" stroke-width="16.997" stroke="rgb(33,33,33)" fill="none" stroke-linecap="round"></path><path d="M 104.000,335.000 C 108.980,329.086 109.718,329.704 115.000,324.000" stroke-width="13.511" stroke="rgb(33,33,33)" fill="none" stroke-linecap="round"></path><path d="M 115.000,324.000 C 122.218,316.204 122.123,316.105 129.000,308.000" stroke-width="13.010" stroke="rgb(33,33,33)" fill="none" stroke-linecap="round"></path><path d="M 129.000,308.000 C 136.123,299.605 135.782,299.312 143.000,291.000" stroke-width="9.292" stroke="rgb(33,33,33)" fill="none" stroke-linecap="round"></path><path d="M 143.000,291.000 C 152.282,280.312 152.624,280.610 162.000,270.000" stroke-width="9.291" stroke="rgb(33,33,33)" fill="none" stroke-linecap="round"></path><path d="M 162.000,270.000 C 171.624,259.110 171.345,258.862 181.000,248.000" stroke-width="7.820" stroke="rgb(33,33,33)" fill="none" stroke-linecap="round"></path><path d="M 181.000,248.000 C 191.345,236.362 191.785,236.747 202.000,225.000" stroke-width="7.736" stroke="rgb(33,33,33)" fill="none" stroke-linecap="round"></path><path d="M 202.000,225.000 C 211.785,213.747 210.622,212.638 221.000,202.000" stroke-width="7.444" stroke="rgb(33,33,33)" fill="none" stroke-linecap="round"></path><path d="M 221.000,202.000 C 230.622,192.138 231.576,193.087 242.000,184.000" stroke-width="7.377" stroke="rgb(33,33,33)" fill="none" stroke-linecap="round"></path><path d="M 242.000,184.000 C 251.076,176.087 250.667,175.583 260.000,168.000" stroke-width="7.508" stroke="rgb(33,33,33)" fill="none" stroke-linecap="round"></path><path d="M 260.000,168.000 C 266.667,162.583 266.687,162.452 274.000,158.000" stroke-width="7.871" stroke="rgb(33,33,33)" fill="none" stroke-linecap="round"></path><path d="M 274.000,158.000 C 278.187,155.452 278.458,155.892 283.000,154.000" stroke-width="8.475" stroke="rgb(33,33,33)" fill="none" stroke-linecap="round"></path><path d="M 283.000,154.000 C 284.458,153.392 285.081,152.694 286.000,153.000" stroke-width="9.433" stroke="rgb(33,33,33)" fill="none" stroke-linecap="round"></path><path d="M 286.000,153.000 C 286.581,153.194 286.443,154.115 286.000,155.000" stroke-width="10.416" stroke="rgb(33,33,33)" fill="none" stroke-linecap="round"></path><path d="M 286.000,155.000 C 281.443,164.115 282.138,164.816 276.000,173.000" stroke-width="9.976" stroke="rgb(33,33,33)" fill="none" stroke-linecap="round"></path><path d="M 276.000,173.000 C 267.138,184.816 265.651,183.701 256.000,195.000" stroke-width="9.316" stroke="rgb(33,33,33)" fill="none" stroke-linecap="round"></path><path d="M 256.000,195.000 C 245.151,207.701 245.312,207.853 235.000,221.000" stroke-width="8.492" stroke="rgb(33,33,33)" fill="none" stroke-linecap="round"></path><path d="M 235.000,221.000 C 225.312,233.353 225.217,233.295 216.000,246.000" stroke-width="8.175" stroke="rgb(33,33,33)" fill="none" stroke-linecap="round"></path><path d="M 216.000,246.000 C 206.717,258.795 206.499,258.684 198.000,272.000" stroke-width="7.858" stroke="rgb(33,33,33)" fill="none" stroke-linecap="round"></path><path d="M 198.000,272.000 C 191.499,282.184 191.872,282.430 186.000,293.000" stroke-width="7.837" stroke="rgb(33,33,33)" fill="none" stroke-linecap="round"></path><path d="M 186.000,293.000 C 181.872,300.430 181.292,300.219 178.000,308.000" stroke-width="8.245" stroke="rgb(33,33,33)" fill="none" stroke-linecap="round"></path><path d="M 178.000,308.000 C 175.792,313.219 176.451,313.487 175.000,319.000" stroke-width="8.699" stroke="rgb(33,33,33)" fill="none" stroke-linecap="round"></path><path d="M 175.000,319.000 C 173.951,322.987 173.673,322.960 173.000,327.000" stroke-width="9.423" stroke="rgb(33,33,33)" fill="none" stroke-linecap="round"></path><path d="M 173.000,327.000 C 172.673,328.960 171.674,330.503 173.000,331.000" stroke-width="10.223" stroke="rgb(33,33,33)" fill="none" stroke-linecap="round"></path><path d="M 173.000,331.000 C 175.674,332.003 177.596,331.872 181.000,330.000" stroke-width="10.857" stroke="rgb(33,33,33)" fill="none" stroke-linecap="round"></path><path d="M 181.000,330.000 C 187.596,326.372 187.491,325.509 193.000,320.000" stroke-width="10.479" stroke="rgb(33,33,33)" fill="none" stroke-linecap="round"></path><path d="M 193.000,320.000 C 201.991,311.009 201.922,310.846 210.000,301.000" stroke-width="10.182" stroke="rgb(33,33,33)" fill="none" stroke-linecap="round"></path><path d="M 210.000,301.000 C 217.922,291.346 217.344,290.879 225.000,281.000" stroke-width="9.308" stroke="rgb(33,33,33)" fill="none" stroke-linecap="round"></path><path d="M 225.000,281.000 C 232.844,270.879 232.877,270.899 241.000,261.000" stroke-width="9.219" stroke="rgb(33,33,33)" fill="none" stroke-linecap="round"></path><path d="M 241.000,261.000 C 248.877,251.399 249.076,251.563 257.000,242.000" stroke-width="8.656" stroke="rgb(33,33,33)" fill="none" stroke-linecap="round"></path><path d="M 257.000,242.000 C 263.576,234.063 263.056,233.575 270.000,226.000" stroke-width="8.848" stroke="rgb(33,33,33)" fill="none" stroke-linecap="round"></path><path d="M 270.000,226.000 C 274.056,221.575 274.183,221.532 279.000,218.000" stroke-width="8.914" stroke="rgb(33,33,33)" fill="none" stroke-linecap="round"></path><path d="M 279.000,218.000 C 281.683,216.032 282.109,216.652 285.000,215.000" stroke-width="9.612" stroke="rgb(33,33,33)" fill="none" stroke-linecap="round"></path><path d="M 285.000,215.000 C 285.609,214.652 285.500,214.000 286.000,214.000" stroke-width="10.646" stroke="rgb(33,33,33)" fill="none" stroke-linecap="round"></path><path d="M 286.000,214.000 C 286.500,214.000 287.212,214.363 287.000,215.000" stroke-width="11.634" stroke="rgb(33,33,33)" fill="none" stroke-linecap="round"></path><path d="M 287.000,215.000 C 284.712,221.863 284.482,222.242 281.000,229.000" stroke-width="11.430" stroke="rgb(33,33,33)" fill="none" stroke-linecap="round"></path><path d="M 281.000,229.000 C 275.982,238.742 276.183,238.964 270.000,248.000" stroke-width="10.705" stroke="rgb(33,33,33)" fill="none" stroke-linecap="round"></path><path d="M 270.000,248.000 C 263.183,257.964 261.753,256.996 255.000,267.000" stroke-width="10.045" stroke="rgb(33,33,33)" fill="none" stroke-linecap="round"></path><path d="M 255.000,267.000 C 248.253,276.996 249.220,277.633 243.000,288.000" stroke-width="9.484" stroke="rgb(33,33,33)" fill="none" stroke-linecap="round"></path><path d="M 243.000,288.000 C 237.220,297.633 236.904,297.441 231.000,307.000" stroke-width="9.384" stroke="rgb(33,33,33)" fill="none" stroke-linecap="round"></path><path d="M 231.000,307.000 C 226.404,314.441 226.110,314.293 222.000,322.000" stroke-width="9.377" stroke="rgb(33,33,33)" fill="none" stroke-linecap="round"></path><path d="M 222.000,322.000 C 218.110,329.293 218.424,329.466 215.000,337.000" stroke-width="9.487" stroke="rgb(33,33,33)" fill="none" stroke-linecap="round"></path><path d="M 215.000,337.000 C 213.424,340.466 212.983,340.394 212.000,344.000" stroke-width="10.079" stroke="rgb(33,33,33)" fill="none" stroke-linecap="round"></path><path d="M 212.000,344.000 C 211.483,345.894 212.000,346.000 212.000,348.000" stroke-width="10.920" stroke="rgb(33,33,33)" fill="none" stroke-linecap="round"></path><path d="M 212.000,348.000 C 212.000,348.500 211.590,349.164 212.000,349.000" stroke-width="11.934" stroke="rgb(33,33,33)" fill="none" stroke-linecap="round"></path><path d="M 212.000,349.000 C 216.590,347.164 217.628,347.400 222.000,344.000" stroke-width="11.989" stroke="rgb(33,33,33)" fill="none" stroke-linecap="round"></path><path d="M 222.000,344.000 C 231.128,336.900 230.870,336.362 239.000,328.000" stroke-width="11.091" stroke="rgb(33,33,33)" fill="none" stroke-linecap="round"></path><path d="M 239.000,328.000 C 248.370,318.362 248.142,318.124 257.000,308.000" stroke-width="10.241" stroke="rgb(33,33,33)" fill="none" stroke-linecap="round"></path><path d="M 257.000,308.000 C 265.642,298.124 265.342,297.861 274.000,288.000" stroke-width="9.265" stroke="rgb(33,33,33)" fill="none" stroke-linecap="round"></path><path d="M 274.000,288.000 C 283.342,277.361 283.835,277.783 293.000,267.000" stroke-width="9.129" stroke="rgb(33,33,33)" fill="none" stroke-linecap="round"></path><path d="M 293.000,267.000 C 300.835,257.783 300.402,257.421 308.000,248.000" stroke-width="8.727" stroke="rgb(33,33,33)" fill="none" stroke-linecap="round"></path><path d="M 308.000,248.000 C 312.902,241.921 312.797,241.815 318.000,236.000" stroke-width="9.119" stroke="rgb(33,33,33)" fill="none" stroke-linecap="round"></path><path d="M 318.000,236.000 C 321.297,232.315 321.701,232.665 325.000,229.000" stroke-width="9.641" stroke="rgb(33,33,33)" fill="none" stroke-linecap="round"></path><path d="M 325.000,229.000 C 326.201,227.665 325.826,227.174 327.000,226.000" stroke-width="10.372" stroke="rgb(33,33,33)" fill="none" stroke-linecap="round"></path><path d="M 327.000,226.000 C 327.326,225.674 328.075,225.551 328.000,226.000" stroke-width="11.428" stroke="rgb(33,33,33)" fill="none" stroke-linecap="round"></path><path d="M 328.000,226.000 C 327.075,231.551 327.523,232.414 325.000,238.000" stroke-width="11.892" stroke="rgb(33,33,33)" fill="none" stroke-linecap="round"></path><path d="M 325.000,238.000 C 320.523,247.914 319.576,247.545 314.000,257.000" stroke-width="10.795" stroke="rgb(33,33,33)" fill="none" stroke-linecap="round"></path><path d="M 314.000,257.000 C 308.076,267.045 308.112,267.069 302.000,277.000" stroke-width="10.164" stroke="rgb(33,33,33)" fill="none" stroke-linecap="round"></path><path d="M 302.000,277.000 C 296.112,286.569 295.932,286.458 290.000,296.000" stroke-width="9.909" stroke="rgb(33,33,33)" fill="none" stroke-linecap="round"></path><path d="M 290.000,296.000 C 284.432,304.958 284.294,304.882 279.000,314.000" stroke-width="9.786" stroke="rgb(33,33,33)" fill="none" stroke-linecap="round"></path><path d="M 279.000,314.000 C 275.294,320.382 275.068,320.306 272.000,327.000" stroke-width="9.724" stroke="rgb(33,33,33)" fill="none" stroke-linecap="round"></path><path d="M 272.000,327.000 C 269.568,332.306 269.850,332.451 268.000,338.000" stroke-width="10.015" stroke="rgb(33,33,33)" fill="none" stroke-linecap="round"></path><path d="M 268.000,338.000 C 266.850,341.451 266.708,341.459 266.000,345.000" stroke-width="10.690" stroke="rgb(33,33,33)" fill="none" stroke-linecap="round"></path><path d="M 266.000,345.000 C 265.708,346.459 265.400,347.100 266.000,348.000" stroke-width="11.517" stroke="rgb(33,33,33)" fill="none" stroke-linecap="round"></path><path d="M 266.000,348.000 C 266.400,348.600 267.067,348.333 268.000,348.000" stroke-width="12.411" stroke="rgb(33,33,33)" fill="none" stroke-linecap="round"></path><path d="M 268.000,348.000 C 274.067,345.833 274.790,346.722 280.000,343.000" stroke-width="12.142" stroke="rgb(33,33,33)" fill="none" stroke-linecap="round"></path><path d="M 280.000,343.000 C 288.790,336.722 288.250,335.750 296.000,328.000" stroke-width="11.299" stroke="rgb(33,33,33)" fill="none" stroke-linecap="round"></path><path d="M 296.000,328.000 C 304.750,319.250 304.480,318.981 313.000,310.000" stroke-width="10.420" stroke="rgb(33,33,33)" fill="none" stroke-linecap="round"></path><path d="M 313.000,310.000 C 322.980,299.481 323.661,300.059 333.000,289.000" stroke-width="9.457" stroke="rgb(33,33,33)" fill="none" stroke-linecap="round"></path><path d="M 333.000,289.000 C 342.661,277.559 342.333,277.236 351.000,265.000" stroke-width="9.015" stroke="rgb(33,33,33)" fill="none" stroke-linecap="round"></path><path d="M 351.000,265.000 C 359.333,253.236 358.766,252.837 367.000,241.000" stroke-width="8.405" stroke="rgb(33,33,33)" fill="none" stroke-linecap="round"></path><path d="M 367.000,241.000 C 374.766,229.837 375.146,230.103 383.000,219.000" stroke-width="8.390" stroke="rgb(33,33,33)" fill="none" stroke-linecap="round"></path><path d="M 383.000,219.000 C 389.646,209.603 389.686,209.621 396.000,200.000" stroke-width="8.148" stroke="rgb(33,33,33)" fill="none" stroke-linecap="round"></path><path d="M 396.000,200.000 C 400.186,193.621 399.955,193.472 404.000,187.000" stroke-width="8.678" stroke="rgb(33,33,33)" fill="none" stroke-linecap="round"></path><path d="M 404.000,187.000 C 407.455,181.472 407.164,181.231 411.000,176.000" stroke-width="8.931" stroke="rgb(33,33,33)" fill="none" stroke-linecap="round"></path><path d="M 411.000,176.000 C 412.664,173.731 413.522,174.216 415.000,172.000" stroke-width="9.793" stroke="rgb(33,33,33)" fill="none" stroke-linecap="round"></path><path d="M 415.000,172.000 C 415.522,171.216 415.593,169.466 415.000,170.000" stroke-width="10.728" stroke="rgb(33,33,33)" fill="none" stroke-linecap="round"></path><path d="M 415.000,170.000 C 410.593,173.966 410.429,175.945 405.000,181.000" stroke-width="11.213" stroke="rgb(33,33,33)" fill="none" stroke-linecap="round"></path><path d="M 405.000,181.000 C 395.929,189.445 395.021,188.494 386.000,197.000" stroke-width="10.127" stroke="rgb(33,33,33)" fill="none" stroke-linecap="round"></path><path d="M 386.000,197.000 C 377.521,204.994 377.485,205.067 370.000,214.000" stroke-width="9.834" stroke="rgb(33,33,33)" fill="none" stroke-linecap="round"></path><path d="M 370.000,214.000 C 361.985,223.567 362.124,223.742 355.000,234.000" stroke-width="9.286" stroke="rgb(33,33,33)" fill="none" stroke-linecap="round"></path><path d="M 355.000,234.000 C 349.624,241.742 349.081,241.567 345.000,250.000" stroke-width="9.146" stroke="rgb(33,33,33)" fill="none" stroke-linecap="round"></path><path d="M 345.000,250.000 C 341.581,257.067 342.050,257.385 340.000,265.000" stroke-width="9.387" stroke="rgb(33,33,33)" fill="none" stroke-linecap="round"></path><path d="M 340.000,265.000 C 338.550,270.385 338.504,270.455 338.000,276.000" stroke-width="9.804" stroke="rgb(33,33,33)" fill="none" stroke-linecap="round"></path><path d="M 338.000,276.000 C 337.504,281.455 336.760,281.793 338.000,287.000" stroke-width="10.218" stroke="rgb(33,33,33)" fill="none" stroke-linecap="round"></path><path d="M 338.000,287.000 C 339.260,292.293 340.288,292.119 343.000,297.000" stroke-width="10.468" stroke="rgb(33,33,33)" fill="none" stroke-linecap="round"></path><path d="M 343.000,297.000 C 345.288,301.119 345.319,301.128 348.000,305.000" stroke-width="10.809" stroke="rgb(33,33,33)" fill="none" stroke-linecap="round"></path><path d="M 348.000,305.000 C 349.819,307.628 350.877,307.192 352.000,310.000" stroke-width="11.414" stroke="rgb(33,33,33)" fill="none" stroke-linecap="round"></path><path d="M 352.000,310.000 C 352.877,312.192 352.000,312.500 352.000,315.000" stroke-width="12.091" stroke="rgb(33,33,33)" fill="none" stroke-linecap="round"></path><path d="M 352.000,315.000 C 352.000,317.000 352.667,317.222 352.000,319.000" stroke-width="12.737" stroke="rgb(33,33,33)" fill="none" stroke-linecap="round"></path><path d="M 352.000,319.000 C 351.167,321.222 350.961,321.529 349.000,323.000" stroke-width="13.162" stroke="rgb(33,33,33)" fill="none" stroke-linecap="round"></path><path d="M 349.000,323.000 C 344.961,326.029 344.554,325.603 340.000,328.000" stroke-width="12.914" stroke="rgb(33,33,33)" fill="none" stroke-linecap="round"></path><path d="M 340.000,328.000 C 335.054,330.603 334.946,330.397 330.000,333.000" stroke-width="12.827" stroke="rgb(33,33,33)" fill="none" stroke-linecap="round"></path><path d="M 330.000,333.000 C 325.446,335.397 325.541,335.578 321.000,338.000" stroke-width="12.489" stroke="rgb(33,33,33)" fill="none" stroke-linecap="round"></path><path d="M 321.000,338.000 C 318.041,339.578 318.081,339.845 315.000,341.000" stroke-width="12.917" stroke="rgb(33,33,33)" fill="none" stroke-linecap="round"></path><path d="M 315.000,341.000 C 314.081,341.345 313.667,341.333 313.000,341.000" stroke-width="13.637" stroke="rgb(33,33,33)" fill="none" stroke-linecap="round"></path><path d="M 313.000,341.000 C 312.667,340.833 312.788,340.450 313.000,340.000" stroke-width="14.486" stroke="rgb(33,33,33)" fill="none" stroke-linecap="round"></path><path d="M 313.000,340.000 C 316.788,331.950 315.846,331.216 321.000,324.000" stroke-width="12.707" stroke="rgb(33,33,33)" fill="none" stroke-linecap="round"></path><path d="M 321.000,324.000 C 328.346,313.716 329.589,314.579 338.000,305.000" stroke-width="12.172" stroke="rgb(33,33,33)" fill="none" stroke-linecap="round"></path><path d="M 338.000,305.000 C 347.589,294.079 347.376,293.890 357.000,283.000" stroke-width="8.575" stroke="rgb(33,33,33)" fill="none" stroke-linecap="round"></path><path d="M 357.000,283.000 C 366.376,272.390 366.513,272.512 376.000,262.000" stroke-width="8.584" stroke="rgb(33,33,33)" fill="none" stroke-linecap="round"></path><path d="M 376.000,262.000 C 385.013,252.012 384.766,251.778 394.000,242.000" stroke-width="8.356" stroke="rgb(33,33,33)" fill="none" stroke-linecap="round"></path><path d="M 394.000,242.000 C 401.766,233.778 402.000,234.000 410.000,226.000" stroke-width="7.815" stroke="rgb(33,33,33)" fill="none" stroke-linecap="round"></path><path d="M 410.000,226.000 C 416.000,220.000 415.875,219.870 422.000,214.000" stroke-width="8.148" stroke="rgb(33,33,33)" fill="none" stroke-linecap="round"></path><path d="M 422.000,214.000 C 427.875,208.370 428.413,208.881 434.000,203.000" stroke-width="8.419" stroke="rgb(33,33,33)" fill="none" stroke-linecap="round"></path><path d="M 434.000,203.000 C 437.913,198.881 437.324,198.345 441.000,194.000" stroke-width="8.896" stroke="rgb(33,33,33)" fill="none" stroke-linecap="round"></path><path d="M 441.000,194.000 C 442.824,191.845 443.522,192.216 445.000,190.000" stroke-width="9.681" stroke="rgb(33,33,33)" fill="none" stroke-linecap="round"></path><path d="M 445.000,190.000 C 445.522,189.216 444.667,188.667 445.000,188.000" stroke-width="10.667" stroke="rgb(33,33,33)" fill="none" stroke-linecap="round"></path><path d="M 445.000,188.000 C 445.167,187.667 446.304,187.756 446.000,188.000" stroke-width="11.707" stroke="rgb(33,33,33)" fill="none" stroke-linecap="round"></path><path d="M 446.000,188.000 C 443.804,189.756 442.798,189.735 440.000,192.000" stroke-width="12.054" stroke="rgb(33,33,33)" fill="none" stroke-linecap="round"></path><path d="M 440.000,192.000 C 432.298,198.235 432.484,198.482 425.000,205.000" stroke-width="11.196" stroke="rgb(33,33,33)" fill="none" stroke-linecap="round"></path><path d="M 425.000,205.000 C 416.984,211.982 416.499,211.501 409.000,219.000" stroke-width="10.675" stroke="rgb(33,33,33)" fill="none" stroke-linecap="round"></path><path d="M 409.000,219.000 C 401.999,226.001 402.123,226.207 396.000,234.000" stroke-width="10.301" stroke="rgb(33,33,33)" fill="none" stroke-linecap="round"></path><path d="M 396.000,234.000 C 391.123,240.207 391.101,240.263 387.000,247.000" stroke-width="10.339" stroke="rgb(33,33,33)" fill="none" stroke-linecap="round"></path><path d="M 387.000,247.000 C 384.101,251.763 383.457,251.754 382.000,257.000" stroke-width="10.569" stroke="rgb(33,33,33)" fill="none" stroke-linecap="round"></path><path d="M 382.000,257.000 C 380.957,260.754 381.402,261.115 382.000,265.000" stroke-width="11.049" stroke="rgb(33,33,33)" fill="none" stroke-linecap="round"></path><path d="M 382.000,265.000 C 382.402,267.615 382.087,268.512 384.000,270.000" stroke-width="11.708" stroke="rgb(33,33,33)" fill="none" stroke-linecap="round"></path><path d="M 384.000,270.000 C 386.587,272.012 387.460,271.167 391.000,272.000" stroke-width="11.999" stroke="rgb(33,33,33)" fill="none" stroke-linecap="round"></path><path d="M 391.000,272.000 C 395.960,273.167 395.991,273.046 401.000,274.000" stroke-width="12.257" stroke="rgb(33,33,33)" fill="none" stroke-linecap="round"></path><path d="M 401.000,274.000 C 406.491,275.046 406.914,274.022 412.000,276.000" stroke-width="11.856" stroke="rgb(33,33,33)" fill="none" stroke-linecap="round"></path><path d="M 412.000,276.000 C 415.914,277.522 416.000,278.000 419.000,281.000" stroke-width="12.285" stroke="rgb(33,33,33)" fill="none" stroke-linecap="round"></path><path d="M 419.000,281.000 C 422.000,284.000 422.616,284.080 424.000,288.000" stroke-width="12.184" stroke="rgb(33,33,33)" fill="none" stroke-linecap="round"></path><path d="M 424.000,288.000 C 425.616,292.580 424.799,292.985 425.000,298.000" stroke-width="12.459" stroke="rgb(33,33,33)" fill="none" stroke-linecap="round"></path><path d="M 425.000,298.000 C 425.299,305.485 427.191,306.184 425.000,313.000" stroke-width="11.570" stroke="rgb(33,33,33)" fill="none" stroke-linecap="round"></path><path d="M 425.000,313.000 C 422.691,320.184 420.896,319.815 416.000,326.000" stroke-width="11.566" stroke="rgb(33,33,33)" fill="none" stroke-linecap="round"></path><path d="M 416.000,326.000 C 411.396,331.815 411.381,331.918 406.000,337.000" stroke-width="11.069" stroke="rgb(33,33,33)" fill="none" stroke-linecap="round"></path><path d="M 406.000,337.000 C 402.381,340.418 402.225,340.400 398.000,343.000" stroke-width="11.411" stroke="rgb(33,33,33)" fill="none" stroke-linecap="round"></path><path d="M 398.000,343.000 C 395.725,344.400 395.473,343.940 393.000,345.000" stroke-width="11.936" stroke="rgb(33,33,33)" fill="none" stroke-linecap="round"></path><path d="M 393.000,345.000 C 391.973,345.440 392.036,345.655 391.000,346.000" stroke-width="12.774" stroke="rgb(33,33,33)" fill="none" stroke-linecap="round"></path><path d="M 391.000,346.000 C 390.536,346.155 389.854,346.366 390.000,346.000" stroke-width="13.728" stroke="rgb(33,33,33)" fill="none" stroke-linecap="round"></path><path d="M 390.000,346.000 C 390.854,343.866 391.186,343.268 393.000,341.000" stroke-width="13.937" stroke="rgb(33,33,33)" fill="none" stroke-linecap="round"></path><path d="M 393.000,341.000 C 397.186,335.768 397.248,335.752 402.000,331.000" stroke-width="13.134" stroke="rgb(33,33,33)" fill="none" stroke-linecap="round"></path><path d="M 402.000,331.000 C 408.248,324.752 408.634,325.139 415.000,319.000" stroke-width="12.503" stroke="rgb(33,33,33)" fill="none" stroke-linecap="round"></path><path d="M 415.000,319.000 C 422.634,311.639 422.645,311.638 430.000,304.000" stroke-width="10.950" stroke="rgb(33,33,33)" fill="none" stroke-linecap="round"></path><path d="M 430.000,304.000 C 435.645,298.138 435.370,297.875 441.000,292.000" stroke-width="10.824" stroke="rgb(33,33,33)" fill="none" stroke-linecap="round"></path><path d="M 441.000,292.000 C 446.870,285.875 447.136,286.130 453.000,280.000" stroke-width="10.608" stroke="rgb(33,33,33)" fill="none" stroke-linecap="round"></path><path d="M 453.000,280.000 C 458.136,274.630 458.189,274.659 463.000,269.000" stroke-width="10.751" stroke="rgb(33,33,33)" fill="none" stroke-linecap="round"></path><path d="M 463.000,269.000 C 466.689,264.659 466.500,264.500 470.000,260.000" stroke-width="10.830" stroke="rgb(33,33,33)" fill="none" stroke-linecap="round"></path><path d="M 470.000,260.000 C 473.500,255.500 473.581,255.558 477.000,251.000" stroke-width="11.066" stroke="rgb(33,33,33)" fill="none" stroke-linecap="round"></path><path d="M 477.000,251.000 C 478.081,249.558 477.923,249.437 479.000,248.000" stroke-width="11.828" stroke="rgb(33,33,33)" fill="none" stroke-linecap="round"></path><path d="M 479.000,248.000 C 479.423,247.437 480.238,246.476 480.000,247.000" stroke-width="12.748" stroke="rgb(33,33,33)" fill="none" stroke-linecap="round"></path><path d="M 480.000,247.000 C 477.738,251.976 477.505,253.304 474.000,259.000" stroke-width="13.047" stroke="rgb(33,33,33)" fill="none" stroke-linecap="round"></path><path d="M 474.000,259.000 C 469.505,266.304 469.000,266.000 464.000,273.000" stroke-width="12.000" stroke="rgb(33,33,33)" fill="none" stroke-linecap="round"></path><path d="M 464.000,273.000 C 459.000,280.000 458.896,279.928 454.000,287.000" stroke-width="11.630" stroke="rgb(33,33,33)" fill="none" stroke-linecap="round"></path><path d="M 454.000,287.000 C 449.896,292.928 449.703,292.828 446.000,299.000" stroke-width="11.343" stroke="rgb(33,33,33)" fill="none" stroke-linecap="round"></path><path d="M 446.000,299.000 C 443.703,302.828 443.382,302.854 442.000,307.000" stroke-width="11.757" stroke="rgb(33,33,33)" fill="none" stroke-linecap="round"></path><path d="M 442.000,307.000 C 441.382,308.854 442.000,309.000 442.000,311.000" stroke-width="12.385" stroke="rgb(33,33,33)" fill="none" stroke-linecap="round"></path><path d="M 442.000,311.000 C 442.000,311.500 441.560,312.110 442.000,312.000" stroke-width="13.335" stroke="rgb(33,33,33)" fill="none" stroke-linecap="round"></path><path d="M 442.000,312.000 C 447.560,310.610 448.648,311.211 454.000,308.000" stroke-width="12.457" stroke="rgb(33,33,33)" fill="none" stroke-linecap="round"></path><path d="M 454.000,308.000 C 463.648,302.211 462.952,300.937 472.000,294.000" stroke-width="11.920" stroke="rgb(33,33,33)" fill="none" stroke-linecap="round"></path><path d="M 472.000,294.000 C 477.952,289.437 478.224,289.771 484.000,285.000" stroke-width="10.893" stroke="rgb(33,33,33)" fill="none" stroke-linecap="round"></path><path d="M 484.000,285.000 C 489.724,280.271 489.049,279.298 495.000,275.000" stroke-width="10.660" stroke="rgb(33,33,33)" fill="none" stroke-linecap="round"></path><path d="M 495.000,275.000 C 498.049,272.798 498.432,273.298 502.000,272.000" stroke-width="11.299" stroke="rgb(33,33,33)" fill="none" stroke-linecap="round"></path><path d="M 502.000,272.000 C 503.932,271.298 504.055,271.000 506.000,271.000" stroke-width="11.963" stroke="rgb(33,33,33)" fill="none" stroke-linecap="round"></path><path d="M 506.000,271.000 C 507.055,271.000 507.817,270.995 508.000,272.000" stroke-width="12.784" stroke="rgb(33,33,33)" fill="none" stroke-linecap="round"></path><path d="M 508.000,272.000 C 508.817,276.495 509.364,277.322 508.000,282.000" stroke-width="12.719" stroke="rgb(33,33,33)" fill="none" stroke-linecap="round"></path><path d="M 508.000,282.000 C 505.864,289.322 504.980,289.284 501.000,296.000" stroke-width="12.214" stroke="rgb(33,33,33)" fill="none" stroke-linecap="round"></path><path d="M 501.000,296.000 C 496.980,302.784 496.316,302.382 492.000,309.000" stroke-width="11.557" stroke="rgb(33,33,33)" fill="none" stroke-linecap="round"></path><path d="M 492.000,309.000 C 488.816,313.882 489.000,314.000 486.000,319.000" stroke-width="11.890" stroke="rgb(33,33,33)" fill="none" stroke-linecap="round"></path><path d="M 486.000,319.000 C 484.500,321.500 484.707,321.866 483.000,324.000" stroke-width="12.256" stroke="rgb(33,33,33)" fill="none" stroke-linecap="round"></path><path d="M 483.000,324.000 C 482.707,324.366 482.000,324.000 482.000,324.000" stroke-width="13.163" stroke="rgb(33,33,33)" fill="none" stroke-linecap="round"></path><path d="M 482.000,324.000 C 482.000,324.000 482.624,324.318 483.000,324.000" stroke-width="14.038" stroke="rgb(33,33,33)" fill="none" stroke-linecap="round"></path><path d="M 483.000,324.000 C 489.124,318.818 489.130,318.635 495.000,313.000" stroke-width="13.002" stroke="rgb(33,33,33)" fill="none" stroke-linecap="round"></path><path d="M 495.000,313.000 C 501.630,306.635 501.500,306.500 508.000,300.000" stroke-width="11.974" stroke="rgb(33,33,33)" fill="none" stroke-linecap="round"></path><path d="M 508.000,300.000 C 513.000,295.000 513.000,295.000 518.000,290.000" stroke-width="11.778" stroke="rgb(33,33,33)" fill="none" stroke-linecap="round"></path><path d="M 518.000,290.000 C 520.500,287.500 520.157,286.895 523.000,285.000" stroke-width="12.209" stroke="rgb(33,33,33)" fill="none" stroke-linecap="round"></path><path d="M 523.000,285.000 C 524.657,283.895 524.988,284.402 527.000,284.000" stroke-width="12.770" stroke="rgb(33,33,33)" fill="none" stroke-linecap="round"></path><path d="M 527.000,284.000 C 527.488,283.902 527.805,283.610 528.000,284.000" stroke-width="13.695" stroke="rgb(33,33,33)" fill="none" stroke-linecap="round"></path><path d="M 528.000,284.000 C 528.805,285.610 528.854,285.956 529.000,288.000" stroke-width="13.950" stroke="rgb(33,33,33)" fill="none" stroke-linecap="round"></path><path d="M 529.000,288.000 C 529.354,292.956 529.262,293.015 529.000,298.000" stroke-width="13.858" stroke="rgb(33,33,33)" fill="none" stroke-linecap="round"></path><path d="M 529.000,298.000 C 528.762,302.515 528.282,302.488 528.000,307.000" stroke-width="13.425" stroke="rgb(33,33,33)" fill="none" stroke-linecap="round"></path><path d="M 528.000,307.000 C 527.782,310.488 528.000,310.500 528.000,314.000" stroke-width="13.744" stroke="rgb(33,33,33)" fill="none" stroke-linecap="round"></path><path d="M 528.000,314.000 C 528.000,316.500 527.419,316.676 528.000,319.000" stroke-width="13.912" stroke="rgb(33,33,33)" fill="none" stroke-linecap="round"></path><path d="M 528.000,319.000 C 528.419,320.676 528.410,321.602 530.000,322.000" stroke-width="14.459" stroke="rgb(33,33,33)" fill="none" stroke-linecap="round"></path><path d="M 530.000,322.000 C 534.410,323.102 535.322,323.364 540.000,322.000" stroke-width="13.736" stroke="rgb(33,33,33)" fill="none" stroke-linecap="round"></path><path d="M 540.000,322.000 C 547.322,319.864 547.450,319.211 554.000,315.000" stroke-width="12.632" stroke="rgb(33,33,33)" fill="none" stroke-linecap="round"></path><path d="M 554.000,315.000 C 561.450,310.211 561.229,309.768 568.000,304.000" stroke-width="11.660" stroke="rgb(33,33,33)" fill="none" stroke-linecap="round"></path><path d="M 568.000,304.000 C 574.729,298.268 575.332,298.698 581.000,292.000" stroke-width="11.094" stroke="rgb(33,33,33)" fill="none" stroke-linecap="round"></path><path d="M 581.000,292.000 C 586.332,285.698 585.640,285.086 590.000,278.000" stroke-width="11.033" stroke="rgb(33,33,33)" fill="none" stroke-linecap="round"></path><path d="M 590.000,278.000 C 593.640,272.086 594.145,272.280 597.000,266.000" stroke-width="10.759" stroke="rgb(33,33,33)" fill="none" stroke-linecap="round"></path><path d="M 597.000,266.000 C 599.145,261.280 598.735,261.059 600.000,256.000" stroke-width="11.116" stroke="rgb(33,33,33)" fill="none" stroke-linecap="round"></path><path d="M 600.000,256.000 C 601.235,251.059 601.114,251.020 602.000,246.000" stroke-width="11.346" stroke="rgb(33,33,33)" fill="none" stroke-linecap="round"></path><path d="M 602.000,246.000 C 602.614,242.520 602.681,242.513 603.000,239.000" stroke-width="11.799" stroke="rgb(33,33,33)" fill="none" stroke-linecap="round"></path><path d="M 603.000,239.000 C 603.181,237.013 603.789,236.578 603.000,235.000" stroke-width="12.451" stroke="rgb(33,33,33)" fill="none" stroke-linecap="round"></path><path d="M 603.000,235.000 C 602.289,233.578 601.728,233.115 600.000,233.000" stroke-width="13.120" stroke="rgb(33,33,33)" fill="none" stroke-linecap="round"></path><path d="M 600.000,233.000 C 594.228,232.615 593.460,231.952 588.000,234.000" stroke-width="12.774" stroke="rgb(33,33,33)" fill="none" stroke-linecap="round"></path><path d="M 588.000,234.000 C 581.460,236.452 581.792,237.719 576.000,242.000" stroke-width="12.195" stroke="rgb(33,33,33)" fill="none" stroke-linecap="round"></path><path d="M 576.000,242.000 C 570.292,246.219 569.827,245.889 565.000,251.000" stroke-width="11.869" stroke="rgb(33,33,33)" fill="none" stroke-linecap="round"></path><path d="M 565.000,251.000 C 561.327,254.889 561.641,255.305 559.000,260.000" stroke-width="11.967" stroke="rgb(33,33,33)" fill="none" stroke-linecap="round"></path><path d="M 559.000,260.000 C 557.141,263.305 556.914,263.345 556.000,267.000" stroke-width="12.360" stroke="rgb(33,33,33)" fill="none" stroke-linecap="round"></path><path d="M 556.000,267.000 C 554.914,271.345 555.265,271.487 555.000,276.000" stroke-width="12.273" stroke="rgb(33,33,33)" fill="none" stroke-linecap="round"></path><path d="M 555.000,276.000 C 554.765,279.987 553.735,280.458 555.000,284.000" stroke-width="12.623" stroke="rgb(33,33,33)" fill="none" stroke-linecap="round"></path><path d="M 555.000,284.000 C 556.235,287.458 556.904,287.789 560.000,290.000" stroke-width="12.809" stroke="rgb(33,33,33)" fill="none" stroke-linecap="round"></path><path d="M 560.000,290.000 C 563.904,292.789 564.298,292.763 569.000,294.000" stroke-width="12.613" stroke="rgb(33,33,33)" fill="none" stroke-linecap="round"></path><path d="M 569.000,294.000 C 573.798,295.263 573.986,294.772 579.000,295.000" stroke-width="12.777" stroke="rgb(33,33,33)" fill="none" stroke-linecap="round"></path><path d="M 579.000,295.000 C 584.986,295.272 585.019,295.299 591.000,295.000" stroke-width="12.141" stroke="rgb(33,33,33)" fill="none" stroke-linecap="round"></path><path d="M 591.000,295.000 C 595.019,294.799 594.987,294.287 599.000,294.000" stroke-width="12.569" stroke="rgb(33,33,33)" fill="none" stroke-linecap="round"></path><path d="M 599.000,294.000 C 601.987,293.787 602.036,294.296 605.000,294.000" stroke-width="12.807" stroke="rgb(33,33,33)" fill="none" stroke-linecap="round"></path><path d="M 605.000,294.000 C 607.036,293.796 607.055,293.648 609.000,293.000" stroke-width="13.445" stroke="rgb(33,33,33)" fill="none" stroke-linecap="round"></path><path d="M 609.000,293.000 C 610.055,292.648 610.081,292.613 611.000,292.000" stroke-width="14.041" stroke="rgb(33,33,33)" fill="none" stroke-linecap="round"></path><path d="M 611.000,292.000 C 611.581,291.613 611.840,290.680 612.000,291.000" stroke-width="14.765" stroke="rgb(33,33,33)" fill="none" stroke-linecap="round"></path><path d="M 612.000,291.000 C 612.340,291.680 612.638,292.724 612.000,294.000" stroke-width="15.374" stroke="rgb(33,33,33)" fill="none" stroke-linecap="round"></path><path d="M 612.000,294.000 C 610.638,296.724 609.965,296.473 608.000,299.000" stroke-width="15.183" stroke="rgb(33,33,33)" fill="none" stroke-linecap="round"></path><path d="M 608.000,299.000 C 606.465,300.973 606.597,301.084 605.000,303.000" stroke-width="15.130" stroke="rgb(33,33,33)" fill="none" stroke-linecap="round"></path><path d="M 367.000,386.000 C 360.000,387.000 360.031,387.438 353.000,388.000" stroke-width="17.741" stroke="rgb(33,33,33)" fill="none" stroke-linecap="round"></path><path d="M 353.000,388.000 C 347.531,388.438 347.482,387.711 342.000,388.000" stroke-width="14.916" stroke="rgb(33,33,33)" fill="none" stroke-linecap="round"></path><path d="M 342.000,388.000 C 337.982,388.211 337.950,388.282 334.000,389.000" stroke-width="13.991" stroke="rgb(33,33,33)" fill="none" stroke-linecap="round"></path><path d="M 334.000,389.000 C 332.450,389.282 332.519,389.620 331.000,390.000" stroke-width="14.604" stroke="rgb(33,33,33)" fill="none" stroke-linecap="round"></path><path d="M 331.000,390.000 C 330.519,390.120 330.250,389.750 330.000,390.000" stroke-width="15.234" stroke="rgb(33,33,33)" fill="none" stroke-linecap="round"></path><path d="M 330.000,390.000 C 329.750,390.250 329.550,390.950 330.000,391.000" stroke-width="15.880" stroke="rgb(33,33,33)" fill="none" stroke-linecap="round"></path><path d="M 330.000,391.000 C 334.050,391.450 334.500,391.000 339.000,391.000" stroke-width="15.110" stroke="rgb(33,33,33)" fill="none" stroke-linecap="round"></path><path d="M 339.000,391.000 C 348.000,391.000 348.037,391.625 357.000,391.000" stroke-width="13.526" stroke="rgb(33,33,33)" fill="none" stroke-linecap="round"></path><path d="M 357.000,391.000 C 369.537,390.125 369.665,390.372 382.000,388.000" stroke-width="11.682" stroke="rgb(33,33,33)" fill="none" stroke-linecap="round"></path><path d="M 382.000,388.000 C 395.665,385.372 395.575,384.768 409.000,381.000" stroke-width="10.463" stroke="rgb(33,33,33)" fill="none" stroke-linecap="round"></path><path d="M 409.000,381.000 C 424.075,376.768 424.233,377.168 439.000,372.000" stroke-width="9.463" stroke="rgb(33,33,33)" fill="none" stroke-linecap="round"></path><path d="M 439.000,372.000 C 454.233,366.668 454.201,366.458 469.000,360.000" stroke-width="8.744" stroke="rgb(33,33,33)" fill="none" stroke-linecap="round"></path><path d="M 469.000,360.000 C 481.701,354.458 481.295,353.524 494.000,348.000" stroke-width="8.578" stroke="rgb(33,33,33)" fill="none" stroke-linecap="round"></path><path d="M 494.000,348.000 C 504.295,343.524 504.570,344.172 515.000,340.000" stroke-width="8.479" stroke="rgb(33,33,33)" fill="none" stroke-linecap="round"></path><path d="M 515.000,340.000 C 522.070,337.172 521.953,336.883 529.000,334.000" stroke-width="8.752" stroke="rgb(33,33,33)" fill="none" stroke-linecap="round"></path><path d="M 529.000,334.000 C 532.953,332.383 532.953,332.349 537.000,331.000" stroke-width="9.412" stroke="rgb(33,33,33)" fill="none" stroke-linecap="round"></path><path d="M 537.000,331.000 C 538.953,330.349 539.138,330.745 541.000,330.000" stroke-width="10.247" stroke="rgb(33,33,33)" fill="none" stroke-linecap="round"></path></svg>