<svg xmlns="http://www.w3.org/2000/svg" xmlns:xlink="http://www.w3.org/1999/xlink" viewBox="0 0 800 500"><path d="M 147.000,209.000 C 147.000,208.500 147.000,208.500 147.000,208.000" stroke-width="20.226" stroke="rgb(33,33,33)" fill="none" stroke-linecap="round"></path><path d="M 147.000,208.000 C 147.000,208.000 147.000,208.000 147.000,208.000" stroke-width="20.231" stroke="rgb(33,33,33)" fill="none" stroke-linecap="round"></path><path d="M 147.000,208.000 C 147.000,207.000 147.000,207.000 147.000,206.000" stroke-width="19.142" stroke="rgb(33,33,33)" fill="none" stroke-linecap="round"></path><path d="M 147.000,206.000 C 147.000,204.000 147.000,204.000 147.000,202.000" stroke-width="17.979" stroke="rgb(33,33,33)" fill="none" stroke-linecap="round"></path><path d="M 147.000,202.000 C 147.000,200.500 147.000,200.500 147.000,199.000" stroke-width="17.063" stroke="rgb(33,33,33)" fill="none" stroke-linecap="round"></path><path d="M 147.000,199.000 C 147.000,197.000 147.000,197.000 147.000,195.000" stroke-width="16.208" stroke="rgb(33,33,33)" fill="none" stroke-linecap="round"></path><path d="M 147.000,195.000 C 147.000,192.500 147.000,192.500 147.000,190.000" stroke-width="15.288" stroke="rgb(33,33,33)" fill="none" stroke-linecap="round"></path><path d="M 147.000,190.000 C 147.000,188.000 147.000,188.000 147.000,186.000" stroke-width="15.199" stroke="rgb(33,33,33)" fill="none" stroke-linecap="round"></path><path d="M 147.000,186.000 C 147.000,183.000 147.000,183.000 147.000,180.000" stroke-width="13.447" stroke="rgb(33,33,33)" fill="none" stroke-linecap="round"></path><path d="M 147.000,180.000 C 147.000,177.000 147.000,177.000 147.000,174.000" stroke-width="13.166" stroke="rgb(33,33,33)" fill="none" stroke-linecap="round"></path><path d="M 147.000,174.000 C 147.000,171.000 147.000,171.000 147.000,168.000" stroke-width="12.420" stroke="rgb(33,33,33)" fill="none" stroke-linecap="round"></path><path d="M 147.000,168.000 C 147.000,164.500 147.000,164.500 147.000,161.000" stroke-width="12.200" stroke="rgb(33,33,33)" fill="none" stroke-linecap="round"></path><path d="M 147.000,161.000 C 147.000,157.000 146.442,156.909 147.000,153.000" stroke-width="11.529" stroke="rgb(33,33,33)" fill="none" stroke-linecap="round"></path><path d="M 147.000,153.000 C 147.442,149.909 148.240,150.039 149.000,147.000" stroke-width="11.600" stroke="rgb(33,33,33)" fill="none" stroke-linecap="round"></path><path d="M 149.000,147.000 C 149.240,146.039 148.729,145.948 149.000,145.000" stroke-width="12.298" stroke="rgb(33,33,33)" fill="none" stroke-linecap="round"></path><path d="M 149.000,145.000 C 149.729,142.448 150.055,142.520 151.000,140.000" stroke-width="12.259" stroke="rgb(33,33,33)" fill="none" stroke-linecap="round"></path><path d="M 151.000,140.000 C 151.555,138.520 151.694,138.531 152.000,137.000" stroke-width="12.563" stroke="rgb(33,33,33)" fill="none" stroke-linecap="round"></path><path d="M 152.000,137.000 C 152.194,136.031 151.707,135.879 152.000,135.000" stroke-width="13.201" stroke="rgb(33,33,33)" fill="none" stroke-linecap="round"></path><path d="M 152.000,135.000 C 152.207,134.379 152.707,134.586 153.000,134.000" stroke-width="13.846" stroke="rgb(33,33,33)" fill="none" stroke-linecap="round"></path><path d="M 153.000,134.000 C 153.207,133.586 153.000,133.500 153.000,133.000" stroke-width="14.479" stroke="rgb(33,33,33)" fill="none" stroke-linecap="round"></path><path d="M 153.000,133.000 C 153.000,132.500 152.750,132.250 153.000,132.000" stroke-width="15.145" stroke="rgb(33,33,33)" fill="none" stroke-linecap="round"></path><path d="M 153.000,132.000 C 153.250,131.750 153.500,132.000 154.000,132.000" stroke-width="15.541" stroke="rgb(33,33,33)" fill="none" stroke-linecap="round"></path><path d="M 154.000,132.000 C 154.500,132.000 154.760,131.640 155.000,132.000" stroke-width="17.259" stroke="rgb(33,33,33)" fill="none" stroke-linecap="round"></path><path d="M 155.000,132.000 C 155.760,133.140 155.500,133.500 156.000,135.000" stroke-width="16.006" stroke="rgb(33,33,33)" fill="none" stroke-linecap="round"></path><path d="M 156.000,135.000 C 156.500,136.500 156.208,136.680 157.000,138.000" stroke-width="15.950" stroke="rgb(33,33,33)" fill="none" stroke-linecap="round"></path><path d="M 157.000,138.000 C 157.708,139.180 158.390,138.779 159.000,140.000" stroke-width="15.239" stroke="rgb(33,33,33)" fill="none" stroke-linecap="round"></path><path d="M 159.000,140.000 C 159.890,141.779 159.200,142.133 160.000,144.000" stroke-width="14.823" stroke="rgb(33,33,33)" fill="none" stroke-linecap="round"></path><path d="M 160.000,144.000 C 160.700,145.633 161.107,145.438 162.000,147.000" stroke-width="14.642" stroke="rgb(33,33,33)" fill="none" stroke-linecap="round"></path><path d="M 162.000,147.000 C 163.107,148.938 162.717,149.204 164.000,151.000" stroke-width="14.278" stroke="rgb(33,33,33)" fill="none" stroke-linecap="round"></path><path d="M 164.000,151.000 C 165.217,152.704 165.737,152.315 167.000,154.000" stroke-width="14.056" stroke="rgb(33,33,33)" fill="none" stroke-linecap="round"></path><path d="M 167.000,154.000 C 168.737,156.315 168.455,156.528 170.000,159.000" stroke-width="13.663" stroke="rgb(33,33,33)" fill="none" stroke-linecap="round"></path><path d="M 170.000,159.000 C 170.955,160.528 171.107,160.438 172.000,162.000" stroke-width="13.602" stroke="rgb(33,33,33)" fill="none" stroke-linecap="round"></path><path d="M 172.000,162.000 C 173.107,163.938 172.820,164.111 174.000,166.000" stroke-width="13.588" stroke="rgb(33,33,33)" fill="none" stroke-linecap="round"></path><path d="M 174.000,166.000 C 175.320,168.111 175.377,168.107 177.000,170.000" stroke-width="13.191" stroke="rgb(33,33,33)" fill="none" stroke-linecap="round"></path><path d="M 177.000,170.000 C 178.377,171.607 178.690,171.363 180.000,173.000" stroke-width="13.199" stroke="rgb(33,33,33)" fill="none" stroke-linecap="round"></path><path d="M 180.000,173.000 C 180.690,173.863 180.426,174.043 181.000,175.000" stroke-width="13.653" stroke="rgb(33,33,33)" fill="none" stroke-linecap="round"></path><path d="M 181.000,175.000 C 181.926,176.543 181.879,176.599 183.000,178.000" stroke-width="13.713" stroke="rgb(33,33,33)" fill="none" stroke-linecap="round"></path><path d="M 183.000,178.000 C 183.879,179.099 184.121,178.901 185.000,180.000" stroke-width="13.849" stroke="rgb(33,33,33)" fill="none" stroke-linecap="round"></path><path d="M 185.000,180.000 C 186.121,181.401 185.923,181.563 187.000,183.000" stroke-width="14.044" stroke="rgb(33,33,33)" fill="none" stroke-linecap="round"></path><path d="M 187.000,183.000 C 187.423,183.563 187.500,183.500 188.000,184.000" stroke-width="14.528" stroke="rgb(33,33,33)" fill="none" stroke-linecap="round"></path><path d="M 188.000,184.000 C 188.500,184.500 188.707,184.414 189.000,185.000" stroke-width="14.939" stroke="rgb(33,33,33)" fill="none" stroke-linecap="round"></path><path d="M 189.000,185.000 C 189.207,185.414 188.750,185.750 189.000,186.000" stroke-width="15.524" stroke="rgb(33,33,33)" fill="none" stroke-linecap="round"></path><path d="M 189.000,186.000 C 189.250,186.250 189.500,186.000 190.000,186.000" stroke-width="15.918" stroke="rgb(33,33,33)" fill="none" stroke-linecap="round"></path><path d="M 190.000,186.000 C 190.000,186.000 190.000,186.000 190.000,186.000" stroke-width="16.630" stroke="rgb(33,33,33)" fill="none" stroke-linecap="round"></path><path d="M 190.000,186.000 C 190.500,186.500 190.793,187.207 191.000,187.000" stroke-width="16.454" stroke="rgb(33,33,33)" fill="none" stroke-linecap="round"></path><path d="M 191.000,187.000 C 191.293,186.707 191.000,186.000 191.000,185.000" stroke-width="16.952" stroke="rgb(33,33,33)" fill="none" stroke-linecap="round"></path><path d="M 191.000,185.000 C 191.000,183.500 191.000,183.500 191.000,182.000" stroke-width="16.455" stroke="rgb(33,33,33)" fill="none" stroke-linecap="round"></path><path d="M 191.000,182.000 C 191.000,180.000 191.000,180.000 191.000,178.000" stroke-width="15.902" stroke="rgb(33,33,33)" fill="none" stroke-linecap="round"></path><path d="M 191.000,178.000 C 191.000,176.000 191.000,176.000 191.000,174.000" stroke-width="14.977" stroke="rgb(33,33,33)" fill="none" stroke-linecap="round"></path><path d="M 191.000,174.000 C 191.000,171.500 190.752,171.475 191.000,169.000" stroke-width="14.539" stroke="rgb(33,33,33)" fill="none" stroke-linecap="round"></path><path d="M 191.000,169.000 C 191.252,166.475 191.544,166.508 192.000,164.000" stroke-width="14.046" stroke="rgb(33,33,33)" fill="none" stroke-linecap="round"></path><path d="M 192.000,164.000 C 192.544,161.008 192.726,161.019 193.000,158.000" stroke-width="13.604" stroke="rgb(33,33,33)" fill="none" stroke-linecap="round"></path><path d="M 193.000,158.000 C 193.226,155.519 192.694,155.450 193.000,153.000" stroke-width="13.204" stroke="rgb(33,33,33)" fill="none" stroke-linecap="round"></path><path d="M 193.000,153.000 C 193.194,151.450 193.566,151.519 194.000,150.000" stroke-width="13.446" stroke="rgb(33,33,33)" fill="none" stroke-linecap="round"></path><path d="M 194.000,150.000 C 194.566,148.019 194.711,148.026 195.000,146.000" stroke-width="13.300" stroke="rgb(33,33,33)" fill="none" stroke-linecap="round"></path><path d="M 195.000,146.000 C 195.211,144.526 194.757,144.460 195.000,143.000" stroke-width="13.639" stroke="rgb(33,33,33)" fill="none" stroke-linecap="round"></path><path d="M 195.000,143.000 C 195.257,141.460 195.694,141.531 196.000,140.000" stroke-width="13.700" stroke="rgb(33,33,33)" fill="none" stroke-linecap="round"></path><path d="M 196.000,140.000 C 196.194,139.031 195.707,138.879 196.000,138.000" stroke-width="14.136" stroke="rgb(33,33,33)" fill="none" stroke-linecap="round"></path><path d="M 196.000,138.000 C 196.207,137.379 196.707,137.586 197.000,137.000" stroke-width="14.735" stroke="rgb(33,33,33)" fill="none" stroke-linecap="round"></path><path d="M 197.000,137.000 C 197.207,136.586 196.793,136.414 197.000,136.000" stroke-width="15.248" stroke="rgb(33,33,33)" fill="none" stroke-linecap="round"></path><path d="M 197.000,136.000 C 197.293,135.414 197.500,135.500 198.000,135.000" stroke-width="15.721" stroke="rgb(33,33,33)" fill="none" stroke-linecap="round"></path><path d="M 198.000,135.000 C 198.500,135.000 198.500,135.000 199.000,135.000" stroke-width="17.052" stroke="rgb(33,33,33)" fill="none" stroke-linecap="round"></path><path d="M 199.000,135.000 C 199.500,135.000 199.500,135.000 200.000,135.000" stroke-width="17.307" stroke="rgb(33,33,33)" fill="none" stroke-linecap="round"></path><path d="M 200.000,135.000 C 200.500,135.000 200.586,134.793 201.000,135.000" stroke-width="17.317" stroke="rgb(33,33,33)" fill="none" stroke-linecap="round"></path><path d="M 201.000,135.000 C 201.586,135.293 201.613,135.419 202.000,136.000" stroke-width="17.439" stroke="rgb(33,33,33)" fill="none" stroke-linecap="round"></path><path d="M 202.000,136.000 C 202.613,136.919 202.387,137.081 203.000,138.000" stroke-width="16.620" stroke="rgb(33,33,33)" fill="none" stroke-linecap="round"></path><path d="M 203.000,138.000 C 203.387,138.581 203.691,138.382 204.000,139.000" stroke-width="16.735" stroke="rgb(33,33,33)" fill="none" stroke-linecap="round"></path><path d="M 204.000,139.000 C 204.691,140.382 204.414,140.536 205.000,142.000" stroke-width="16.237" stroke="rgb(33,33,33)" fill="none" stroke-linecap="round"></path><path d="M 205.000,142.000 C 205.414,143.036 205.500,143.000 206.000,144.000" stroke-width="16.154" stroke="rgb(33,33,33)" fill="none" stroke-linecap="round"></path><path d="M 206.000,144.000 C 206.500,145.000 206.426,145.043 207.000,146.000" stroke-width="16.087" stroke="rgb(33,33,33)" fill="none" stroke-linecap="round"></path><path d="M 207.000,146.000 C 207.926,147.543 207.923,147.563 209.000,149.000" stroke-width="15.458" stroke="rgb(33,33,33)" fill="none" stroke-linecap="round"></path><path d="M 209.000,149.000 C 209.423,149.563 209.840,149.359 210.000,150.000" stroke-width="15.827" stroke="rgb(33,33,33)" fill="none" stroke-linecap="round"></path><path d="M 210.000,150.000 C 210.340,151.359 209.660,151.641 210.000,153.000" stroke-width="15.594" stroke="rgb(33,33,33)" fill="none" stroke-linecap="round"></path><path d="M 210.000,153.000 C 210.160,153.641 210.500,153.500 211.000,154.000" stroke-width="15.892" stroke="rgb(33,33,33)" fill="none" stroke-linecap="round"></path><path d="M 211.000,154.000 C 211.500,154.500 211.500,154.500 212.000,155.000" stroke-width="16.139" stroke="rgb(33,33,33)" fill="none" stroke-linecap="round"></path><path d="M 212.000,155.000 C 212.000,155.000 212.000,155.000 212.000,155.000" stroke-width="16.822" stroke="rgb(33,33,33)" fill="none" stroke-linecap="round"></path><path d="M 212.000,155.000 C 212.000,155.500 211.793,155.586 212.000,156.000" stroke-width="17.045" stroke="rgb(33,33,33)" fill="none" stroke-linecap="round"></path><path d="M 212.000,156.000 C 212.293,156.586 212.500,156.500 213.000,157.000" stroke-width="17.077" stroke="rgb(33,33,33)" fill="none" stroke-linecap="round"></path><path d="M 213.000,157.000 C 213.000,157.000 213.000,157.000 213.000,157.000" stroke-width="17.630" stroke="rgb(33,33,33)" fill="none" stroke-linecap="round"></path><path d="M 213.000,157.000 C 213.500,157.000 213.750,157.250 214.000,157.000" stroke-width="17.970" stroke="rgb(33,33,33)" fill="none" stroke-linecap="round"></path><path d="M 214.000,157.000 C 214.250,156.750 214.000,156.500 214.000,156.000" stroke-width="18.177" stroke="rgb(33,33,33)" fill="none" stroke-linecap="round"></path><path d="M 214.000,156.000 C 214.000,156.000 214.000,156.000 214.000,156.000" stroke-width="18.557" stroke="rgb(33,33,33)" fill="none" stroke-linecap="round"></path><path d="M 214.000,156.000 C 214.500,156.000 214.500,156.000 215.000,156.000" stroke-width="18.490" stroke="rgb(33,33,33)" fill="none" stroke-linecap="round"></path><path d="M 215.000,156.000 C 215.000,156.000 215.000,156.000 215.000,156.000" stroke-width="18.817" stroke="rgb(33,33,33)" fill="none" stroke-linecap="round"></path><path d="M 215.000,156.000 C 215.500,156.000 215.500,156.000 216.000,156.000" stroke-width="18.587" stroke="rgb(33,33,33)" fill="none" stroke-linecap="round"></path><path d="M 216.000,156.000 C 216.000,156.000 216.000,156.000 216.000,156.000" stroke-width="18.897" stroke="rgb(33,33,33)" fill="none" stroke-linecap="round"></path><path d="M 216.000,156.000 C 216.500,156.000 216.875,155.625 217.000,156.000" stroke-width="18.568" stroke="rgb(33,33,33)" fill="none" stroke-linecap="round"></path><path d="M 217.000,156.000 C 217.375,157.125 216.789,157.526 217.000,159.000" stroke-width="17.968" stroke="rgb(33,33,33)" fill="none" stroke-linecap="round"></path><path d="M 217.000,159.000 C 217.289,161.026 217.553,160.988 218.000,163.000" stroke-width="15.988" stroke="rgb(33,33,33)" fill="none" stroke-linecap="round"></path><path d="M 218.000,163.000 C 218.553,165.488 218.500,165.500 219.000,168.000" stroke-width="15.506" stroke="rgb(33,33,33)" fill="none" stroke-linecap="round"></path><path d="M 219.000,168.000 C 219.500,170.500 219.383,170.531 220.000,173.000" stroke-width="13.978" stroke="rgb(33,33,33)" fill="none" stroke-linecap="round"></path><path d="M 220.000,173.000 C 220.383,174.531 220.566,174.481 221.000,176.000" stroke-width="14.082" stroke="rgb(33,33,33)" fill="none" stroke-linecap="round"></path><path d="M 221.000,176.000 C 221.566,177.981 221.434,178.019 222.000,180.000" stroke-width="13.932" stroke="rgb(33,33,33)" fill="none" stroke-linecap="round"></path><path d="M 222.000,180.000 C 222.434,181.519 222.309,181.618 223.000,183.000" stroke-width="14.044" stroke="rgb(33,33,33)" fill="none" stroke-linecap="round"></path><path d="M 223.000,183.000 C 223.309,183.618 223.577,183.437 224.000,184.000" stroke-width="14.528" stroke="rgb(33,33,33)" fill="none" stroke-linecap="round"></path><path d="M 224.000,184.000 C 225.077,185.437 225.000,185.500 226.000,187.000" stroke-width="14.514" stroke="rgb(33,33,33)" fill="none" stroke-linecap="round"></path><path d="M 226.000,187.000 C 226.000,187.000 226.000,187.000 226.000,187.000" stroke-width="15.385" stroke="rgb(33,33,33)" fill="none" stroke-linecap="round"></path><path d="M 226.000,187.000 C 226.500,186.500 226.437,186.423 227.000,186.000" stroke-width="16.157" stroke="rgb(33,33,33)" fill="none" stroke-linecap="round"></path><path d="M 227.000,186.000 C 228.437,184.923 228.638,185.168 230.000,184.000" stroke-width="15.308" stroke="rgb(33,33,33)" fill="none" stroke-linecap="round"></path><path d="M 230.000,184.000 C 232.138,182.168 231.877,181.858 234.000,180.000" stroke-width="14.467" stroke="rgb(33,33,33)" fill="none" stroke-linecap="round"></path><path d="M 234.000,180.000 C 235.877,178.358 236.123,178.642 238.000,177.000" stroke-width="14.016" stroke="rgb(33,33,33)" fill="none" stroke-linecap="round"></path><path d="M 238.000,177.000 C 240.123,175.142 240.000,175.000 242.000,173.000" stroke-width="13.525" stroke="rgb(33,33,33)" fill="none" stroke-linecap="round"></path><path d="M 242.000,173.000 C 243.500,171.500 243.257,171.162 245.000,170.000" stroke-width="13.465" stroke="rgb(33,33,33)" fill="none" stroke-linecap="round"></path><path d="M 245.000,170.000 C 247.757,168.162 248.228,168.848 251.000,167.000" stroke-width="12.892" stroke="rgb(33,33,33)" fill="none" stroke-linecap="round"></path><path d="M 251.000,167.000 C 254.228,164.848 253.978,164.473 257.000,162.000" stroke-width="12.259" stroke="rgb(33,33,33)" fill="none" stroke-linecap="round"></path><path d="M 257.000,162.000 C 259.478,159.973 259.522,160.027 262.000,158.000" stroke-width="12.042" stroke="rgb(33,33,33)" fill="none" stroke-linecap="round"></path><path d="M 262.000,158.000 C 265.022,155.527 265.100,155.610 268.000,153.000" stroke-width="11.781" stroke="rgb(33,33,33)" fill="none" stroke-linecap="round"></path><path d="M 268.000,153.000 C 270.100,151.110 269.850,150.792 272.000,149.000" stroke-width="11.660" stroke="rgb(33,33,33)" fill="none" stroke-linecap="round"></path><path d="M 272.000,149.000 C 272.850,148.292 273.073,148.618 274.000,148.000" stroke-width="12.308" stroke="rgb(33,33,33)" fill="none" stroke-linecap="round"></path><path d="M 274.000,148.000 C 276.073,146.618 276.107,146.623 278.000,145.000" stroke-width="12.529" stroke="rgb(33,33,33)" fill="none" stroke-linecap="round"></path><path d="M 278.000,145.000 C 279.607,143.623 279.500,143.500 281.000,142.000" stroke-width="12.390" stroke="rgb(33,33,33)" fill="none" stroke-linecap="round"></path><path d="M 281.000,142.000 C 282.000,141.000 282.121,141.099 283.000,140.000" stroke-width="12.990" stroke="rgb(33,33,33)" fill="none" stroke-linecap="round"></path><path d="M 283.000,140.000 C 284.121,138.599 283.923,138.437 285.000,137.000" stroke-width="12.725" stroke="rgb(33,33,33)" fill="none" stroke-linecap="round"></path><path d="M 285.000,137.000 C 285.423,136.437 285.500,136.500 286.000,136.000" stroke-width="13.424" stroke="rgb(33,33,33)" fill="none" stroke-linecap="round"></path><path d="M 286.000,136.000 C 286.500,135.500 286.707,135.586 287.000,135.000" stroke-width="14.042" stroke="rgb(33,33,33)" fill="none" stroke-linecap="round"></path><path d="M 287.000,135.000 C 287.207,134.586 286.793,134.414 287.000,134.000" stroke-width="14.688" stroke="rgb(33,33,33)" fill="none" stroke-linecap="round"></path><path d="M 287.000,134.000 C 287.293,133.414 287.500,133.500 288.000,133.000" stroke-width="15.131" stroke="rgb(33,33,33)" fill="none" stroke-linecap="round"></path><path d="M 288.000,133.000 C 288.000,132.500 288.000,132.500 288.000,132.000" stroke-width="16.900" stroke="rgb(33,33,33)" fill="none" stroke-linecap="round"></path><path d="M 288.000,132.000 C 288.000,132.000 288.000,132.000 288.000,132.000" stroke-width="17.478" stroke="rgb(33,33,33)" fill="none" stroke-linecap="round"></path><path d="M 288.000,132.000 C 288.000,131.500 288.250,131.250 288.000,131.000" stroke-width="17.773" stroke="rgb(33,33,33)" fill="none" stroke-linecap="round"></path><path d="M 288.000,131.000 C 287.750,130.750 287.500,131.000 287.000,131.000" stroke-width="18.089" stroke="rgb(33,33,33)" fill="none" stroke-linecap="round"></path><path d="M 287.000,131.000 C 286.500,131.000 286.500,131.000 286.000,131.000" stroke-width="18.013" stroke="rgb(33,33,33)" fill="none" stroke-linecap="round"></path><path d="M 286.000,131.000 C 285.500,131.000 285.500,131.000 285.000,131.000" stroke-width="18.011" stroke="rgb(33,33,33)" fill="none" stroke-linecap="round"></path><path d="M 285.000,131.000 C 284.500,131.000 284.500,131.000 284.000,131.000" stroke-width="18.009" stroke="rgb(33,33,33)" fill="none" stroke-linecap="round"></path><path d="M 284.000,131.000 C 283.500,131.000 283.500,131.000 283.000,131.000" stroke-width="18.051" stroke="rgb(33,33,33)" fill="none" stroke-linecap="round"></path><path d="M 283.000,131.000 C 282.000,131.000 281.879,131.293 281.000,131.000" stroke-width="17.648" stroke="rgb(33,33,33)" fill="none" stroke-linecap="round"></path><path d="M 281.000,131.000 C 280.379,130.793 280.586,130.293 280.000,130.000" stroke-width="17.482" stroke="rgb(33,33,33)" fill="none" stroke-linecap="round"></path><path d="M 280.000,130.000 C 279.586,129.793 279.500,130.000 279.000,130.000" stroke-width="17.660" stroke="rgb(33,33,33)" fill="none" stroke-linecap="round"></path><path d="M 279.000,130.000 C 278.500,130.000 278.500,130.000 278.000,130.000" stroke-width="17.598" stroke="rgb(33,33,33)" fill="none" stroke-linecap="round"></path><path d="M 278.000,130.000 C 277.000,130.000 276.879,130.293 276.000,130.000" stroke-width="17.504" stroke="rgb(33,33,33)" fill="none" stroke-linecap="round"></path><path d="M 276.000,130.000 C 275.379,129.793 275.586,129.293 275.000,129.000" stroke-width="17.131" stroke="rgb(33,33,33)" fill="none" stroke-linecap="round"></path><path d="M 275.000,129.000 C 274.586,128.793 274.500,129.000 274.000,129.000" stroke-width="17.298" stroke="rgb(33,33,33)" fill="none" stroke-linecap="round"></path><path d="M 274.000,129.000 C 273.500,129.000 273.500,129.000 273.000,129.000" stroke-width="17.434" stroke="rgb(33,33,33)" fill="none" stroke-linecap="round"></path><path d="M 273.000,129.000 C 272.000,129.000 271.944,129.236 271.000,129.000" stroke-width="17.253" stroke="rgb(33,33,33)" fill="none" stroke-linecap="round"></path><path d="M 271.000,129.000 C 269.944,128.736 270.036,128.345 269.000,128.000" stroke-width="16.688" stroke="rgb(33,33,33)" fill="none" stroke-linecap="round"></path><path d="M 269.000,128.000 C 268.536,127.845 268.500,128.000 268.000,128.000" stroke-width="16.974" stroke="rgb(33,33,33)" fill="none" stroke-linecap="round"></path><path d="M 268.000,128.000 C 267.000,128.000 267.000,128.000 266.000,128.000" stroke-width="16.714" stroke="rgb(33,33,33)" fill="none" stroke-linecap="round"></path><path d="M 266.000,128.000 C 265.000,128.000 265.000,128.000 264.000,128.000" stroke-width="16.685" stroke="rgb(33,33,33)" fill="none" stroke-linecap="round"></path><path d="M 264.000,128.000 C 263.000,128.000 263.000,128.000 262.000,128.000" stroke-width="16.586" stroke="rgb(33,33,33)" fill="none" stroke-linecap="round"></path><path d="M 262.000,128.000 C 261.000,128.000 261.000,128.000 260.000,128.000" stroke-width="16.507" stroke="rgb(33,33,33)" fill="none" stroke-linecap="round"></path><path d="M 260.000,128.000 C 259.500,128.000 259.500,128.000 259.000,128.000" stroke-width="16.785" stroke="rgb(33,33,33)" fill="none" stroke-linecap="round"></path><path d="M 259.000,128.000 C 258.500,128.000 258.500,128.000 258.000,128.000" stroke-width="17.015" stroke="rgb(33,33,33)" fill="none" stroke-linecap="round"></path><path d="M 258.000,128.000 C 257.000,128.000 257.000,128.000 256.000,128.000" stroke-width="16.746" stroke="rgb(33,33,33)" fill="none" stroke-linecap="round"></path><path d="M 256.000,128.000 C 255.500,128.000 255.500,128.000 255.000,128.000" stroke-width="17.022" stroke="rgb(33,33,33)" fill="none" stroke-linecap="round"></path><path d="M 255.000,128.000 C 254.500,128.000 254.500,128.000 254.000,128.000" stroke-width="17.209" stroke="rgb(33,33,33)" fill="none" stroke-linecap="round"></path><path d="M 254.000,128.000 C 253.500,128.000 253.500,128.000 253.000,128.000" stroke-width="17.362" stroke="rgb(33,33,33)" fill="none" stroke-linecap="round"></path><path d="M 253.000,128.000 C 252.500,128.000 252.500,128.000 252.000,128.000" stroke-width="17.589" stroke="rgb(33,33,33)" fill="none" stroke-linecap="round"></path><path d="M 252.000,128.000 C 252.000,128.000 252.000,128.000 252.000,128.000" stroke-width="18.064" stroke="rgb(33,33,33)" fill="none" stroke-linecap="round"></path><path d="M 252.000,128.000 C 251.500,128.000 251.414,127.793 251.000,128.000" stroke-width="18.186" stroke="rgb(33,33,33)" fill="none" stroke-linecap="round"></path><path d="M 251.000,128.000 C 250.414,128.293 250.500,128.500 250.000,129.000" stroke-width="17.649" stroke="rgb(33,33,33)" fill="none" stroke-linecap="round"></path><path d="M 250.000,129.000 C 250.000,129.000 250.000,129.000 250.000,129.000" stroke-width="18.115" stroke="rgb(33,33,33)" fill="none" stroke-linecap="round"></path><path d="M 250.000,129.000 C 249.500,129.500 249.387,129.419 249.000,130.000" stroke-width="17.595" stroke="rgb(33,33,33)" fill="none" stroke-linecap="round"></path><path d="M 249.000,130.000 C 248.387,130.919 248.345,130.964 248.000,132.000" stroke-width="17.376" stroke="rgb(33,33,33)" fill="none" stroke-linecap="round"></path><path d="M 248.000,132.000 C 247.845,132.464 248.120,132.519 248.000,133.000" stroke-width="17.372" stroke="rgb(33,33,33)" fill="none" stroke-linecap="round"></path><path d="M 248.000,133.000 C 247.620,134.519 247.221,134.455 247.000,136.000" stroke-width="16.714" stroke="rgb(33,33,33)" fill="none" stroke-linecap="round"></path><path d="M 247.000,136.000 C 246.721,137.955 247.000,138.000 247.000,140.000" stroke-width="15.954" stroke="rgb(33,33,33)" fill="none" stroke-linecap="round"></path><path d="M 247.000,140.000 C 247.000,142.000 247.000,142.000 247.000,144.000" stroke-width="15.394" stroke="rgb(33,33,33)" fill="none" stroke-linecap="round"></path><path d="M 247.000,144.000 C 247.000,146.500 247.000,146.500 247.000,149.000" stroke-width="14.514" stroke="rgb(33,33,33)" fill="none" stroke-linecap="round"></path><path d="M 247.000,149.000 C 247.000,152.000 247.000,152.000 247.000,155.000" stroke-width="13.970" stroke="rgb(33,33,33)" fill="none" stroke-linecap="round"></path><path d="M 247.000,155.000 C 247.000,158.000 246.292,158.167 247.000,161.000" stroke-width="13.226" stroke="rgb(33,33,33)" fill="none" stroke-linecap="round"></path><path d="M 247.000,161.000 C 247.792,164.167 248.595,163.956 250.000,167.000" stroke-width="12.866" stroke="rgb(33,33,33)" fill="none" stroke-linecap="round"></path><path d="M 250.000,167.000 C 251.595,170.456 251.202,170.661 253.000,174.000" stroke-width="12.276" stroke="rgb(33,33,33)" fill="none" stroke-linecap="round"></path><path d="M 253.000,174.000 C 254.702,177.161 254.840,177.120 257.000,180.000" stroke-width="11.913" stroke="rgb(33,33,33)" fill="none" stroke-linecap="round"></path><path d="M 257.000,180.000 C 259.340,183.120 259.263,183.263 262.000,186.000" stroke-width="11.537" stroke="rgb(33,33,33)" fill="none" stroke-linecap="round"></path><path d="M 262.000,186.000 C 263.263,187.263 263.534,186.953 265.000,188.000" stroke-width="11.952" stroke="rgb(33,33,33)" fill="none" stroke-linecap="round"></path><path d="M 265.000,188.000 C 267.034,189.453 266.953,189.567 269.000,191.000" stroke-width="12.051" stroke="rgb(33,33,33)" fill="none" stroke-linecap="round"></path><path d="M 269.000,191.000 C 271.953,193.067 271.851,193.283 275.000,195.000" stroke-width="11.742" stroke="rgb(33,33,33)" fill="none" stroke-linecap="round"></path><path d="M 275.000,195.000 C 277.351,196.283 277.407,196.481 280.000,197.000" stroke-width="11.812" stroke="rgb(33,33,33)" fill="none" stroke-linecap="round"></path><path d="M 280.000,197.000 C 282.407,197.481 282.500,197.000 285.000,197.000" stroke-width="11.937" stroke="rgb(33,33,33)" fill="none" stroke-linecap="round"></path><path d="M 285.000,197.000 C 290.500,197.000 290.634,197.894 296.000,197.000" stroke-width="11.240" stroke="rgb(33,33,33)" fill="none" stroke-linecap="round"></path><path d="M 296.000,197.000 C 302.634,195.894 303.153,196.248 309.000,193.000" stroke-width="9.976" stroke="rgb(33,33,33)" fill="none" stroke-linecap="round"></path><path d="M 309.000,193.000 C 316.653,188.748 316.230,187.774 323.000,182.000" stroke-width="9.429" stroke="rgb(33,33,33)" fill="none" stroke-linecap="round"></path><path d="M 323.000,182.000 C 333.230,173.274 332.992,172.991 343.000,164.000" stroke-width="6.763" stroke="rgb(33,33,33)" fill="none" stroke-linecap="round"></path><path d="M 343.000,164.000 C 362.492,146.491 362.142,146.071 382.000,129.000" stroke-width="6.750" stroke="rgb(33,33,33)" fill="none" stroke-linecap="round"></path><path d="M 382.000,129.000 C 390.642,121.571 391.212,122.260 400.000,115.000" stroke-width="6.750" stroke="rgb(33,33,33)" fill="none" stroke-linecap="round"></path><path d="M 400.000,115.000 C 414.212,103.260 413.701,102.633 428.000,91.000" stroke-width="6.750" stroke="rgb(33,33,33)" fill="none" stroke-linecap="round"></path><path d="M 428.000,91.000 C 443.201,78.633 443.409,78.879 459.000,67.000" stroke-width="6.750" stroke="rgb(33,33,33)" fill="none" stroke-linecap="round"></path><path d="M 459.000,67.000 C 464.409,62.879 464.676,63.228 470.000,59.000" stroke-width="6.750" stroke="rgb(33,33,33)" fill="none" stroke-linecap="round"></path><path d="M 470.000,59.000 C 481.676,49.728 481.117,48.985 493.000,40.000" stroke-width="6.750" stroke="rgb(33,33,33)" fill="none" stroke-linecap="round"></path><path d="M 493.000,40.000 C 501.617,33.485 502.000,34.000 511.000,28.000" stroke-width="6.750" stroke="rgb(33,33,33)" fill="none" stroke-linecap="round"></path><path d="M 511.000,28.000 C 514.000,26.000 514.000,26.000 517.000,24.000" stroke-width="6.750" stroke="rgb(33,33,33)" fill="none" stroke-linecap="round"></path><path d="M 517.000,24.000 C 524.500,19.000 524.260,18.587 532.000,14.000" stroke-width="6.750" stroke="rgb(33,33,33)" fill="none" stroke-linecap="round"></path></svg>