<svg xmlns="http://www.w3.org/2000/svg" xmlns:xlink="http://www.w3.org/1999/xlink" viewBox="0 0 414 500"><path d="M 110.000,311.000 C 111.000,307.500 111.407,307.557 112.000,304.000" stroke-width="19.176" stroke="rgb(33,33,33)" fill="none" stroke-linecap="round"></path><path d="M 112.000,304.000 C 112.407,301.557 112.000,301.500 112.000,299.000" stroke-width="18.403" stroke="rgb(33,33,33)" fill="none" stroke-linecap="round"></path><path d="M 112.000,299.000 C 112.000,295.000 112.000,295.000 112.000,291.000" stroke-width="17.510" stroke="rgb(33,33,33)" fill="none" stroke-linecap="round"></path><path d="M 112.000,291.000 C 112.000,286.500 112.000,286.500 112.000,282.000" stroke-width="16.263" stroke="rgb(33,33,33)" fill="none" stroke-linecap="round"></path><path d="M 112.000,282.000 C 112.000,275.500 112.000,275.500 112.000,269.000" stroke-width="14.905" stroke="rgb(33,33,33)" fill="none" stroke-linecap="round"></path><path d="M 112.000,269.000 C 112.000,261.500 111.750,261.492 112.000,254.000" stroke-width="13.176" stroke="rgb(33,33,33)" fill="none" stroke-linecap="round"></path><path d="M 112.000,254.000 C 112.250,246.492 112.483,246.499 113.000,239.000" stroke-width="12.606" stroke="rgb(33,33,33)" fill="none" stroke-linecap="round"></path><path d="M 113.000,239.000 C 113.483,231.999 113.482,231.999 114.000,225.000" stroke-width="12.195" stroke="rgb(33,33,33)" fill="none" stroke-linecap="round"></path><path d="M 114.000,225.000 C 114.482,218.499 114.253,218.472 115.000,212.000" stroke-width="12.102" stroke="rgb(33,33,33)" fill="none" stroke-linecap="round"></path><path d="M 115.000,212.000 C 115.753,205.472 116.112,205.515 117.000,199.000" stroke-width="11.890" stroke="rgb(33,33,33)" fill="none" stroke-linecap="round"></path><path d="M 117.000,199.000 C 117.612,194.515 117.215,194.449 118.000,190.000" stroke-width="12.133" stroke="rgb(33,33,33)" fill="none" stroke-linecap="round"></path><path d="M 118.000,190.000 C 118.715,185.949 118.790,185.932 120.000,182.000" stroke-width="12.407" stroke="rgb(33,33,33)" fill="none" stroke-linecap="round"></path><path d="M 120.000,182.000 C 120.790,179.432 121.055,179.520 122.000,177.000" stroke-width="12.873" stroke="rgb(33,33,33)" fill="none" stroke-linecap="round"></path><path d="M 122.000,177.000 C 122.555,175.520 122.081,174.919 123.000,174.000" stroke-width="13.518" stroke="rgb(33,33,33)" fill="none" stroke-linecap="round"></path><path d="M 123.000,174.000 C 123.581,173.419 124.000,174.000 125.000,174.000" stroke-width="14.254" stroke="rgb(33,33,33)" fill="none" stroke-linecap="round"></path><path d="M 125.000,174.000 C 126.000,174.000 126.286,173.465 127.000,174.000" stroke-width="14.889" stroke="rgb(33,33,33)" fill="none" stroke-linecap="round"></path><path d="M 127.000,174.000 C 128.286,174.965 128.258,175.368 129.000,177.000" stroke-width="15.190" stroke="rgb(33,33,33)" fill="none" stroke-linecap="round"></path><path d="M 129.000,177.000 C 130.758,180.868 130.267,181.101 132.000,185.000" stroke-width="14.814" stroke="rgb(33,33,33)" fill="none" stroke-linecap="round"></path><path d="M 132.000,185.000 C 134.267,190.101 134.597,189.954 137.000,195.000" stroke-width="14.128" stroke="rgb(33,33,33)" fill="none" stroke-linecap="round"></path><path d="M 137.000,195.000 C 139.597,200.454 139.500,200.500 142.000,206.000" stroke-width="13.601" stroke="rgb(33,33,33)" fill="none" stroke-linecap="round"></path><path d="M 142.000,206.000 C 144.500,211.500 144.403,211.546 147.000,217.000" stroke-width="13.208" stroke="rgb(33,33,33)" fill="none" stroke-linecap="round"></path><path d="M 147.000,217.000 C 149.403,222.046 149.621,221.944 152.000,227.000" stroke-width="12.928" stroke="rgb(33,33,33)" fill="none" stroke-linecap="round"></path><path d="M 152.000,227.000 C 153.621,230.444 153.405,230.544 155.000,234.000" stroke-width="13.127" stroke="rgb(33,33,33)" fill="none" stroke-linecap="round"></path><path d="M 155.000,234.000 C 156.405,237.044 156.281,237.135 158.000,240.000" stroke-width="13.384" stroke="rgb(33,33,33)" fill="none" stroke-linecap="round"></path><path d="M 158.000,240.000 C 159.281,242.135 159.547,241.966 161.000,244.000" stroke-width="13.782" stroke="rgb(33,33,33)" fill="none" stroke-linecap="round"></path><path d="M 161.000,244.000 C 162.047,245.466 161.923,245.563 163.000,247.000" stroke-width="14.226" stroke="rgb(33,33,33)" fill="none" stroke-linecap="round"></path><path d="M 163.000,247.000 C 163.423,247.563 163.500,247.500 164.000,248.000" stroke-width="14.950" stroke="rgb(33,33,33)" fill="none" stroke-linecap="round"></path><path d="M 164.000,248.000 C 164.500,248.500 164.379,248.793 165.000,249.000" stroke-width="15.612" stroke="rgb(33,33,33)" fill="none" stroke-linecap="round"></path><path d="M 165.000,249.000 C 165.879,249.293 166.382,249.618 167.000,249.000" stroke-width="15.932" stroke="rgb(33,33,33)" fill="none" stroke-linecap="round"></path><path d="M 167.000,249.000 C 168.382,247.618 168.297,247.110 169.000,245.000" stroke-width="15.989" stroke="rgb(33,33,33)" fill="none" stroke-linecap="round"></path><path d="M 169.000,245.000 C 170.297,241.110 170.106,241.024 171.000,237.000" stroke-width="15.305" stroke="rgb(33,33,33)" fill="none" stroke-linecap="round"></path><path d="M 171.000,237.000 C 172.106,232.024 172.046,232.009 173.000,227.000" stroke-width="14.690" stroke="rgb(33,33,33)" fill="none" stroke-linecap="round"></path><path d="M 173.000,227.000 C 174.046,221.509 174.171,221.525 175.000,216.000" stroke-width="14.038" stroke="rgb(33,33,33)" fill="none" stroke-linecap="round"></path><path d="M 175.000,216.000 C 175.671,211.525 175.295,211.468 176.000,207.000" stroke-width="13.864" stroke="rgb(33,33,33)" fill="none" stroke-linecap="round"></path><path d="M 176.000,207.000 C 176.795,201.968 176.950,201.989 178.000,197.000" stroke-width="13.605" stroke="rgb(33,33,33)" fill="none" stroke-linecap="round"></path><path d="M 178.000,197.000 C 178.950,192.489 178.737,192.419 180.000,188.000" stroke-width="13.446" stroke="rgb(33,33,33)" fill="none" stroke-linecap="round"></path><path d="M 180.000,188.000 C 180.737,185.419 181.055,185.520 182.000,183.000" stroke-width="13.793" stroke="rgb(33,33,33)" fill="none" stroke-linecap="round"></path><path d="M 182.000,183.000 C 182.555,181.520 182.414,181.464 183.000,180.000" stroke-width="14.344" stroke="rgb(33,33,33)" fill="none" stroke-linecap="round"></path><path d="M 183.000,180.000 C 183.414,178.964 183.208,178.528 184.000,178.000" stroke-width="14.937" stroke="rgb(33,33,33)" fill="none" stroke-linecap="round"></path><path d="M 184.000,178.000 C 184.708,177.528 185.121,177.707 186.000,178.000" stroke-width="15.463" stroke="rgb(33,33,33)" fill="none" stroke-linecap="round"></path><path d="M 186.000,178.000 C 186.621,178.207 186.886,178.319 187.000,179.000" stroke-width="16.017" stroke="rgb(33,33,33)" fill="none" stroke-linecap="round"></path><path d="M 187.000,179.000 C 187.886,184.319 187.255,184.533 188.000,190.000" stroke-width="15.097" stroke="rgb(33,33,33)" fill="none" stroke-linecap="round"></path><path d="M 188.000,190.000 C 188.755,195.533 188.829,195.536 190.000,201.000" stroke-width="14.333" stroke="rgb(33,33,33)" fill="none" stroke-linecap="round"></path><path d="M 190.000,201.000 C 191.829,209.536 192.289,209.444 194.000,218.000" stroke-width="13.186" stroke="rgb(33,33,33)" fill="none" stroke-linecap="round"></path><path d="M 194.000,218.000 C 195.289,224.444 195.036,224.495 196.000,231.000" stroke-width="12.789" stroke="rgb(33,33,33)" fill="none" stroke-linecap="round"></path><path d="M 196.000,231.000 C 197.036,237.995 196.666,238.065 198.000,245.000" stroke-width="12.322" stroke="rgb(33,33,33)" fill="none" stroke-linecap="round"></path><path d="M 198.000,245.000 C 199.166,251.065 199.568,250.984 201.000,257.000" stroke-width="12.197" stroke="rgb(33,33,33)" fill="none" stroke-linecap="round"></path><path d="M 201.000,257.000 C 202.068,261.484 201.631,261.619 203.000,266.000" stroke-width="12.373" stroke="rgb(33,33,33)" fill="none" stroke-linecap="round"></path><path d="M 203.000,266.000 C 204.131,269.619 204.405,269.544 206.000,273.000" stroke-width="12.620" stroke="rgb(33,33,33)" fill="none" stroke-linecap="round"></path><path d="M 206.000,273.000 C 207.405,276.044 207.049,276.398 209.000,279.000" stroke-width="12.960" stroke="rgb(33,33,33)" fill="none" stroke-linecap="round"></path><path d="M 260.000,187.000 C 260.000,185.000 258.889,183.889 260.000,183.000" stroke-width="19.862" stroke="rgb(33,33,33)" fill="none" stroke-linecap="round"></path><path d="M 260.000,183.000 C 261.389,181.889 262.557,183.407 265.000,183.000" stroke-width="18.847" stroke="rgb(33,33,33)" fill="none" stroke-linecap="round"></path><path d="M 265.000,183.000 C 268.557,182.407 268.635,182.346 272.000,181.000" stroke-width="17.683" stroke="rgb(33,33,33)" fill="none" stroke-linecap="round"></path><path d="M 272.000,181.000 C 276.135,179.346 276.000,179.000 280.000,177.000" stroke-width="16.659" stroke="rgb(33,33,33)" fill="none" stroke-linecap="round"></path><path d="M 280.000,177.000 C 285.000,174.500 285.000,174.500 290.000,172.000" stroke-width="15.323" stroke="rgb(33,33,33)" fill="none" stroke-linecap="round"></path><path d="M 290.000,172.000 C 294.000,170.000 294.000,170.000 298.000,168.000" stroke-width="14.863" stroke="rgb(33,33,33)" fill="none" stroke-linecap="round"></path><path d="M 296.000,175.000 C 296.500,176.000 296.821,175.924 297.000,177.000" stroke-width="20.092" stroke="rgb(33,33,33)" fill="none" stroke-linecap="round"></path><path d="M 297.000,177.000 C 297.321,178.924 297.000,179.000 297.000,181.000" stroke-width="19.171" stroke="rgb(33,33,33)" fill="none" stroke-linecap="round"></path><path d="M 297.000,181.000 C 297.000,183.500 296.558,183.572 297.000,186.000" stroke-width="18.493" stroke="rgb(33,33,33)" fill="none" stroke-linecap="round"></path><path d="M 297.000,186.000 C 297.558,189.072 298.000,189.000 299.000,192.000" stroke-width="17.602" stroke="rgb(33,33,33)" fill="none" stroke-linecap="round"></path><path d="M 299.000,192.000 C 300.000,195.000 300.132,194.962 301.000,198.000" stroke-width="16.631" stroke="rgb(33,33,33)" fill="none" stroke-linecap="round"></path><path d="M 301.000,198.000 C 302.132,201.962 302.000,202.000 303.000,206.000" stroke-width="15.931" stroke="rgb(33,33,33)" fill="none" stroke-linecap="round"></path><path d="M 303.000,206.000 C 304.000,210.000 304.000,210.000 305.000,214.000" stroke-width="15.412" stroke="rgb(33,33,33)" fill="none" stroke-linecap="round"></path><path d="M 305.000,214.000 C 306.000,218.000 306.056,217.987 307.000,222.000" stroke-width="14.953" stroke="rgb(33,33,33)" fill="none" stroke-linecap="round"></path><path d="M 307.000,222.000 C 308.056,226.487 308.200,226.465 309.000,231.000" stroke-width="14.549" stroke="rgb(33,33,33)" fill="none" stroke-linecap="round"></path><path d="M 309.000,231.000 C 309.700,234.965 309.764,234.984 310.000,239.000" stroke-width="14.379" stroke="rgb(33,33,33)" fill="none" stroke-linecap="round"></path><path d="M 310.000,239.000 C 310.264,243.484 310.000,243.500 310.000,248.000" stroke-width="14.071" stroke="rgb(33,33,33)" fill="none" stroke-linecap="round"></path><path d="M 310.000,248.000 C 310.000,251.000 310.000,251.000 310.000,254.000" stroke-width="14.241" stroke="rgb(33,33,33)" fill="none" stroke-linecap="round"></path><path d="M 310.000,254.000 C 310.000,256.500 310.000,256.500 310.000,259.000" stroke-width="14.502" stroke="rgb(33,33,33)" fill="none" stroke-linecap="round"></path><path d="M 310.000,259.000 C 310.000,261.500 310.877,261.808 310.000,264.000" stroke-width="14.678" stroke="rgb(33,33,33)" fill="none" stroke-linecap="round"></path><path d="M 310.000,264.000 C 308.877,266.808 308.105,266.594 306.000,269.000" stroke-width="14.685" stroke="rgb(33,33,33)" fill="none" stroke-linecap="round"></path><path d="M 306.000,269.000 C 304.605,270.594 304.763,270.898 303.000,272.000" stroke-width="14.931" stroke="rgb(33,33,33)" fill="none" stroke-linecap="round"></path><path d="M 303.000,272.000 C 300.763,273.398 300.568,273.230 298.000,274.000" stroke-width="15.018" stroke="rgb(33,33,33)" fill="none" stroke-linecap="round"></path><path d="M 298.000,274.000 C 295.568,274.730 295.527,274.770 293.000,275.000" stroke-width="15.127" stroke="rgb(33,33,33)" fill="none" stroke-linecap="round"></path><path d="M 293.000,275.000 C 290.027,275.270 289.984,275.230 287.000,275.000" stroke-width="15.045" stroke="rgb(33,33,33)" fill="none" stroke-linecap="round"></path><path d="M 287.000,275.000 C 283.484,274.730 283.288,275.096 280.000,274.000" stroke-width="14.890" stroke="rgb(33,33,33)" fill="none" stroke-linecap="round"></path><path d="M 280.000,274.000 C 277.288,273.096 277.500,272.500 275.000,271.000" stroke-width="14.970" stroke="rgb(33,33,33)" fill="none" stroke-linecap="round"></path><path d="M 275.000,271.000 C 272.500,269.500 272.547,269.415 270.000,268.000" stroke-width="14.944" stroke="rgb(33,33,33)" fill="none" stroke-linecap="round"></path><path d="M 270.000,268.000 C 268.047,266.915 267.667,267.333 266.000,266.000" stroke-width="15.213" stroke="rgb(33,33,33)" fill="none" stroke-linecap="round"></path><path d="M 365.000,170.000 C 366.000,166.000 366.108,166.013 367.000,162.000" stroke-width="19.681" stroke="rgb(33,33,33)" fill="none" stroke-linecap="round"></path><path d="M 367.000,162.000 C 367.108,161.513 367.250,161.250 367.000,161.000" stroke-width="19.553" stroke="rgb(33,33,33)" fill="none" stroke-linecap="round"></path><path d="M 367.000,161.000 C 366.750,160.750 366.470,160.843 366.000,161.000" stroke-width="19.580" stroke="rgb(33,33,33)" fill="none" stroke-linecap="round"></path><path d="M 366.000,161.000 C 363.470,161.843 363.041,161.368 361.000,163.000" stroke-width="18.625" stroke="rgb(33,33,33)" fill="none" stroke-linecap="round"></path><path d="M 361.000,163.000 C 358.041,165.368 358.557,166.049 356.000,169.000" stroke-width="17.250" stroke="rgb(33,33,33)" fill="none" stroke-linecap="round"></path><path d="M 356.000,169.000 C 352.057,173.549 351.556,173.174 348.000,178.000" stroke-width="15.702" stroke="rgb(33,33,33)" fill="none" stroke-linecap="round"></path><path d="M 348.000,178.000 C 344.556,182.674 344.808,182.895 342.000,188.000" stroke-width="14.793" stroke="rgb(33,33,33)" fill="none" stroke-linecap="round"></path><path d="M 342.000,188.000 C 339.308,192.895 339.615,193.061 337.000,198.000" stroke-width="14.113" stroke="rgb(33,33,33)" fill="none" stroke-linecap="round"></path><path d="M 337.000,198.000 C 335.115,201.561 334.450,201.272 333.000,205.000" stroke-width="14.036" stroke="rgb(33,33,33)" fill="none" stroke-linecap="round"></path><path d="M 333.000,205.000 C 330.950,210.272 331.451,210.487 330.000,216.000" stroke-width="13.606" stroke="rgb(33,33,33)" fill="none" stroke-linecap="round"></path><path d="M 330.000,216.000 C 328.951,219.987 328.808,219.962 328.000,224.000" stroke-width="13.556" stroke="rgb(33,33,33)" fill="none" stroke-linecap="round"></path><path d="M 328.000,224.000 C 327.308,227.462 327.235,227.481 327.000,231.000" stroke-width="13.699" stroke="rgb(33,33,33)" fill="none" stroke-linecap="round"></path><path d="M 327.000,231.000 C 326.735,234.981 327.000,235.000 327.000,239.000" stroke-width="13.713" stroke="rgb(33,33,33)" fill="none" stroke-linecap="round"></path><path d="M 327.000,239.000 C 327.000,243.000 327.000,243.000 327.000,247.000" stroke-width="13.670" stroke="rgb(33,33,33)" fill="none" stroke-linecap="round"></path><path d="M 327.000,247.000 C 327.000,249.500 326.519,249.593 327.000,252.000" stroke-width="14.025" stroke="rgb(33,33,33)" fill="none" stroke-linecap="round"></path><path d="M 327.000,252.000 C 327.519,254.593 327.444,254.926 329.000,257.000" stroke-width="14.276" stroke="rgb(33,33,33)" fill="none" stroke-linecap="round"></path><path d="M 329.000,257.000 C 330.444,258.926 330.833,258.796 333.000,260.000" stroke-width="14.492" stroke="rgb(33,33,33)" fill="none" stroke-linecap="round"></path><path d="M 333.000,260.000 C 335.333,261.296 335.399,261.527 338.000,262.000" stroke-width="14.620" stroke="rgb(33,33,33)" fill="none" stroke-linecap="round"></path><path d="M 338.000,262.000 C 340.899,262.527 341.000,262.000 344.000,262.000" stroke-width="14.688" stroke="rgb(33,33,33)" fill="none" stroke-linecap="round"></path><path d="M 344.000,262.000 C 346.500,262.000 346.676,262.581 349.000,262.000" stroke-width="14.906" stroke="rgb(33,33,33)" fill="none" stroke-linecap="round"></path><path d="M 349.000,262.000 C 350.676,261.581 350.743,261.257 352.000,260.000" stroke-width="15.204" stroke="rgb(33,33,33)" fill="none" stroke-linecap="round"></path><path d="M 352.000,260.000 C 353.743,258.257 353.796,258.167 355.000,256.000" stroke-width="15.291" stroke="rgb(33,33,33)" fill="none" stroke-linecap="round"></path><path d="M 355.000,256.000 C 356.296,253.667 355.802,253.396 357.000,251.000" stroke-width="15.349" stroke="rgb(33,33,33)" fill="none" stroke-linecap="round"></path><path d="M 357.000,251.000 C 357.802,249.396 358.379,249.657 359.000,248.000" stroke-width="15.535" stroke="rgb(33,33,33)" fill="none" stroke-linecap="round"></path><path d="M 359.000,248.000 C 359.879,245.657 359.685,245.518 360.000,243.000" stroke-width="15.499" stroke="rgb(33,33,33)" fill="none" stroke-linecap="round"></path><path d="M 360.000,243.000 C 360.185,241.518 360.000,241.500 360.000,240.000" stroke-width="15.814" stroke="rgb(33,33,33)" fill="none" stroke-linecap="round"></path><path d="M 360.000,240.000 C 360.000,238.500 360.000,238.500 360.000,237.000" stroke-width="16.075" stroke="rgb(33,33,33)" fill="none" stroke-linecap="round"></path><path d="M 360.000,237.000 C 360.000,236.000 360.000,236.000 360.000,235.000" stroke-width="16.446" stroke="rgb(33,33,33)" fill="none" stroke-linecap="round"></path><path d="M 360.000,235.000 C 360.000,234.500 360.000,234.500 360.000,234.000" stroke-width="16.910" stroke="rgb(33,33,33)" fill="none" stroke-linecap="round"></path><path d="M 360.000,234.000 C 360.000,233.500 360.309,233.309 360.000,233.000" stroke-width="17.311" stroke="rgb(33,33,33)" fill="none" stroke-linecap="round"></path><path d="M 360.000,233.000 C 359.309,232.309 359.056,232.264 358.000,232.000" stroke-width="17.425" stroke="rgb(33,33,33)" fill="none" stroke-linecap="round"></path><path d="M 358.000,232.000 C 357.056,231.764 356.944,232.236 356.000,232.000" stroke-width="17.537" stroke="rgb(33,33,33)" fill="none" stroke-linecap="round"></path><path d="M 356.000,232.000 C 354.944,231.736 355.036,231.345 354.000,231.000" stroke-width="17.607" stroke="rgb(33,33,33)" fill="none" stroke-linecap="round"></path><path d="M 354.000,231.000 C 353.536,230.845 353.500,231.000 353.000,231.000" stroke-width="17.891" stroke="rgb(33,33,33)" fill="none" stroke-linecap="round"></path><path d="M 353.000,231.000 C 352.500,231.000 352.500,231.000 352.000,231.000" stroke-width="18.113" stroke="rgb(33,33,33)" fill="none" stroke-linecap="round"></path><path d="M 352.000,231.000 C 351.500,231.000 351.000,231.309 351.000,231.000" stroke-width="18.307" stroke="rgb(33,33,33)" fill="none" stroke-linecap="round"></path><path d="M 351.000,231.000 C 351.000,230.309 351.168,229.693 352.000,229.000" stroke-width="18.513" stroke="rgb(33,33,33)" fill="none" stroke-linecap="round"></path><path d="M 352.000,229.000 C 354.168,227.193 354.541,227.565 357.000,226.000" stroke-width="17.706" stroke="rgb(33,33,33)" fill="none" stroke-linecap="round"></path><path d="M 357.000,226.000 C 360.041,224.065 359.959,223.935 363.000,222.000" stroke-width="16.878" stroke="rgb(33,33,33)" fill="none" stroke-linecap="round"></path></svg>