<svg xmlns="http://www.w3.org/2000/svg" xmlns:xlink="http://www.w3.org/1999/xlink" viewBox="0 0 800 500"><path d="M 321.500,92.500 C 321.500,93.000 321.500,93.000 321.500,93.500" stroke-width="20.138" stroke="rgb(33,33,33)" fill="none" stroke-linecap="round"></path><path d="M 321.500,93.500 C 321.500,94.500 321.500,94.500 321.500,95.500" stroke-width="19.561" stroke="rgb(33,33,33)" fill="none" stroke-linecap="round"></path><path d="M 321.500,95.500 C 321.500,97.500 321.280,97.522 321.500,99.500" stroke-width="18.782" stroke="rgb(33,33,33)" fill="none" stroke-linecap="round"></path><path d="M 321.500,99.500 C 321.780,102.022 321.927,102.016 322.500,104.500" stroke-width="17.389" stroke="rgb(33,33,33)" fill="none" stroke-linecap="round"></path><path d="M 322.500,104.500 C 323.427,108.516 323.260,108.573 324.500,112.500" stroke-width="15.957" stroke="rgb(33,33,33)" fill="none" stroke-linecap="round"></path><path d="M 324.500,112.500 C 326.260,118.073 326.467,118.012 328.500,123.500" stroke-width="15.052" stroke="rgb(33,33,33)" fill="none" stroke-linecap="round"></path><path d="M 328.500,123.500 C 331.467,131.512 331.444,131.521 334.500,139.500" stroke-width="13.319" stroke="rgb(33,33,33)" fill="none" stroke-linecap="round"></path><path d="M 334.500,139.500 C 340.444,155.021 340.664,154.938 346.500,170.500" stroke-width="8.559" stroke="rgb(33,33,33)" fill="none" stroke-linecap="round"></path><path d="M 346.500,170.500 C 352.664,186.938 352.239,187.101 358.500,203.500" stroke-width="7.907" stroke="rgb(33,33,33)" fill="none" stroke-linecap="round"></path><path d="M 358.500,203.500 C 362.739,214.601 363.086,214.466 367.500,225.500" stroke-width="7.745" stroke="rgb(33,33,33)" fill="none" stroke-linecap="round"></path><path d="M 367.500,225.500 C 372.086,236.966 372.194,236.928 376.500,248.500" stroke-width="7.491" stroke="rgb(33,33,33)" fill="none" stroke-linecap="round"></path><path d="M 376.500,248.500 C 380.194,258.428 379.752,258.594 383.500,268.500" stroke-width="7.532" stroke="rgb(33,33,33)" fill="none" stroke-linecap="round"></path><path d="M 383.500,268.500 C 386.752,277.094 387.248,276.906 390.500,285.500" stroke-width="7.621" stroke="rgb(33,33,33)" fill="none" stroke-linecap="round"></path><path d="M 390.500,285.500 C 394.248,295.406 394.056,295.481 397.500,305.500" stroke-width="7.636" stroke="rgb(33,33,33)" fill="none" stroke-linecap="round"></path><path d="M 397.500,305.500 C 399.556,311.481 399.340,311.559 401.500,317.500" stroke-width="8.048" stroke="rgb(33,33,33)" fill="none" stroke-linecap="round"></path><path d="M 401.500,317.500 C 403.340,322.559 403.450,322.521 405.500,327.500" stroke-width="8.593" stroke="rgb(33,33,33)" fill="none" stroke-linecap="round"></path><path d="M 405.500,327.500 C 406.950,331.021 407.036,330.985 408.500,334.500" stroke-width="9.050" stroke="rgb(33,33,33)" fill="none" stroke-linecap="round"></path><path d="M 408.500,334.500 C 409.536,336.985 409.407,337.042 410.500,339.500" stroke-width="9.797" stroke="rgb(33,33,33)" fill="none" stroke-linecap="round"></path><path d="M 410.500,339.500 C 411.407,341.542 411.500,341.500 412.500,343.500" stroke-width="10.534" stroke="rgb(33,33,33)" fill="none" stroke-linecap="round"></path><path d="M 412.500,343.500 C 413.000,344.500 413.236,344.444 413.500,345.500" stroke-width="11.426" stroke="rgb(33,33,33)" fill="none" stroke-linecap="round"></path><path d="M 413.500,345.500 C 413.736,346.444 413.167,346.833 413.500,347.500" stroke-width="12.326" stroke="rgb(33,33,33)" fill="none" stroke-linecap="round"></path><path d="M 413.500,347.500 C 413.667,347.833 414.250,347.250 414.500,347.500" stroke-width="13.248" stroke="rgb(33,33,33)" fill="none" stroke-linecap="round"></path><path d="M 414.500,347.500 C 414.750,347.750 414.833,348.333 414.500,348.500" stroke-width="14.100" stroke="rgb(33,33,33)" fill="none" stroke-linecap="round"></path><path d="M 414.500,348.500 C 413.833,348.833 413.461,348.260 412.500,348.500" stroke-width="14.677" stroke="rgb(33,33,33)" fill="none" stroke-linecap="round"></path><path d="M 412.500,348.500 C 409.461,349.260 409.590,349.921 406.500,350.500" stroke-width="14.588" stroke="rgb(33,33,33)" fill="none" stroke-linecap="round"></path><path d="M 406.500,350.500 C 401.590,351.421 401.514,351.272 396.500,351.500" stroke-width="14.019" stroke="rgb(33,33,33)" fill="none" stroke-linecap="round"></path><path d="M 396.500,351.500 C 390.514,351.772 390.500,351.500 384.500,351.500" stroke-width="13.018" stroke="rgb(33,33,33)" fill="none" stroke-linecap="round"></path><path d="M 384.500,351.500 C 378.500,351.500 378.464,351.977 372.500,351.500" stroke-width="12.179" stroke="rgb(33,33,33)" fill="none" stroke-linecap="round"></path><path d="M 372.500,351.500 C 365.964,350.977 365.837,351.143 359.500,349.500" stroke-width="11.445" stroke="rgb(33,33,33)" fill="none" stroke-linecap="round"></path><path d="M 359.500,349.500 C 352.337,347.643 352.494,347.018 345.500,344.500" stroke-width="10.869" stroke="rgb(33,33,33)" fill="none" stroke-linecap="round"></path><path d="M 345.500,344.500 C 339.994,342.518 339.711,343.106 334.500,340.500" stroke-width="10.639" stroke="rgb(33,33,33)" fill="none" stroke-linecap="round"></path><path d="M 334.500,340.500 C 326.711,336.606 326.717,336.407 319.500,331.500" stroke-width="9.923" stroke="rgb(33,33,33)" fill="none" stroke-linecap="round"></path><path d="M 319.500,331.500 C 314.217,327.907 314.396,327.623 309.500,323.500" stroke-width="9.897" stroke="rgb(33,33,33)" fill="none" stroke-linecap="round"></path><path d="M 309.500,323.500 C 304.896,319.623 304.248,320.130 300.500,315.500" stroke-width="9.939" stroke="rgb(33,33,33)" fill="none" stroke-linecap="round"></path><path d="M 300.500,315.500 C 295.748,309.630 296.128,309.198 292.500,302.500" stroke-width="9.715" stroke="rgb(33,33,33)" fill="none" stroke-linecap="round"></path><path d="M 292.500,302.500 C 289.628,297.198 289.742,297.105 287.500,291.500" stroke-width="9.862" stroke="rgb(33,33,33)" fill="none" stroke-linecap="round"></path><path d="M 287.500,291.500 C 284.742,284.605 284.043,284.701 282.500,277.500" stroke-width="9.776" stroke="rgb(33,33,33)" fill="none" stroke-linecap="round"></path><path d="M 282.500,277.500 C 281.043,270.701 281.792,270.507 281.500,263.500" stroke-width="9.906" stroke="rgb(33,33,33)" fill="none" stroke-linecap="round"></path><path d="M 281.500,263.500 C 281.292,258.507 281.028,258.457 281.500,253.500" stroke-width="10.038" stroke="rgb(33,33,33)" fill="none" stroke-linecap="round"></path><path d="M 281.500,253.500 C 282.028,247.957 281.757,247.729 283.500,242.500" stroke-width="10.197" stroke="rgb(33,33,33)" fill="none" stroke-linecap="round"></path><path d="M 283.500,242.500 C 284.757,238.729 285.064,238.667 287.500,235.500" stroke-width="10.530" stroke="rgb(33,33,33)" fill="none" stroke-linecap="round"></path><path d="M 287.500,235.500 C 290.064,232.167 290.029,231.814 293.500,229.500" stroke-width="10.889" stroke="rgb(33,33,33)" fill="none" stroke-linecap="round"></path><path d="M 293.500,229.500 C 297.529,226.814 297.865,227.122 302.500,225.500" stroke-width="11.010" stroke="rgb(33,33,33)" fill="none" stroke-linecap="round"></path><path d="M 302.500,225.500 C 307.865,223.622 307.928,223.661 313.500,222.500" stroke-width="10.879" stroke="rgb(33,33,33)" fill="none" stroke-linecap="round"></path><path d="M 313.500,222.500 C 319.928,221.161 319.982,221.369 326.500,220.500" stroke-width="10.706" stroke="rgb(33,33,33)" fill="none" stroke-linecap="round"></path><path d="M 326.500,220.500 C 334.982,219.369 334.975,219.068 343.500,218.500" stroke-width="10.245" stroke="rgb(33,33,33)" fill="none" stroke-linecap="round"></path><path d="M 343.500,218.500 C 349.975,218.068 350.010,218.750 356.500,218.500" stroke-width="10.360" stroke="rgb(33,33,33)" fill="none" stroke-linecap="round"></path><path d="M 356.500,218.500 C 363.010,218.250 362.990,217.733 369.500,217.500" stroke-width="10.121" stroke="rgb(33,33,33)" fill="none" stroke-linecap="round"></path><path d="M 369.500,217.500 C 376.990,217.233 377.000,217.500 384.500,217.500" stroke-width="9.969" stroke="rgb(33,33,33)" fill="none" stroke-linecap="round"></path><path d="M 384.500,217.500 C 391.500,217.500 391.500,217.500 398.500,217.500" stroke-width="9.838" stroke="rgb(33,33,33)" fill="none" stroke-linecap="round"></path><path d="M 398.500,217.500 C 408.000,217.500 408.011,217.797 417.500,217.500" stroke-width="9.560" stroke="rgb(33,33,33)" fill="none" stroke-linecap="round"></path><path d="M 417.500,217.500 C 424.011,217.297 424.002,217.020 430.500,216.500" stroke-width="9.665" stroke="rgb(33,33,33)" fill="none" stroke-linecap="round"></path><path d="M 430.500,216.500 C 436.502,216.020 436.537,216.278 442.500,215.500" stroke-width="9.751" stroke="rgb(33,33,33)" fill="none" stroke-linecap="round"></path><path d="M 442.500,215.500 C 448.037,214.778 448.115,214.917 453.500,213.500" stroke-width="9.959" stroke="rgb(33,33,33)" fill="none" stroke-linecap="round"></path><path d="M 453.500,213.500 C 457.615,212.417 457.472,211.922 461.500,210.500" stroke-width="10.341" stroke="rgb(33,33,33)" fill="none" stroke-linecap="round"></path><path d="M 461.500,210.500 C 465.972,208.922 466.165,209.358 470.500,207.500" stroke-width="10.588" stroke="rgb(33,33,33)" fill="none" stroke-linecap="round"></path><path d="M 470.500,207.500 C 473.165,206.358 473.077,206.115 475.500,204.500" stroke-width="11.128" stroke="rgb(33,33,33)" fill="none" stroke-linecap="round"></path><path d="M 475.500,204.500 C 477.577,203.115 477.427,202.882 479.500,201.500" stroke-width="11.687" stroke="rgb(33,33,33)" fill="none" stroke-linecap="round"></path><path d="M 479.500,201.500 C 480.427,200.882 480.750,201.250 481.500,200.500" stroke-width="12.496" stroke="rgb(33,33,33)" fill="none" stroke-linecap="round"></path><path d="M 481.500,200.500 C 482.250,199.750 481.887,199.419 482.500,198.500" stroke-width="13.249" stroke="rgb(33,33,33)" fill="none" stroke-linecap="round"></path><path d="M 482.500,198.500 C 482.887,197.919 483.207,198.086 483.500,197.500" stroke-width="14.001" stroke="rgb(33,33,33)" fill="none" stroke-linecap="round"></path><path d="M 483.500,197.500 C 483.707,197.086 483.761,196.892 483.500,196.500" stroke-width="14.741" stroke="rgb(33,33,33)" fill="none" stroke-linecap="round"></path><path d="M 483.500,196.500 C 482.761,195.392 482.719,195.177 481.500,194.500" stroke-width="15.084" stroke="rgb(33,33,33)" fill="none" stroke-linecap="round"></path><path d="M 481.500,194.500 C 478.219,192.677 478.157,192.462 474.500,191.500" stroke-width="14.645" stroke="rgb(33,33,33)" fill="none" stroke-linecap="round"></path><path d="M 474.500,191.500 C 468.657,189.962 468.549,189.903 462.500,189.500" stroke-width="13.420" stroke="rgb(33,33,33)" fill="none" stroke-linecap="round"></path><path d="M 462.500,189.500 C 453.549,188.903 453.498,189.342 444.500,189.500" stroke-width="12.024" stroke="rgb(33,33,33)" fill="none" stroke-linecap="round"></path><path d="M 444.500,189.500 C 424.998,189.842 424.879,188.654 405.500,190.500" stroke-width="9.430" stroke="rgb(33,33,33)" fill="none" stroke-linecap="round"></path><path d="M 405.500,190.500 C 382.879,192.654 382.865,193.290 360.500,197.500" stroke-width="7.733" stroke="rgb(33,33,33)" fill="none" stroke-linecap="round"></path><path d="M 360.500,197.500 C 340.365,201.290 340.201,200.943 320.500,206.500" stroke-width="7.030" stroke="rgb(33,33,33)" fill="none" stroke-linecap="round"></path><path d="M 320.500,206.500 C 301.201,211.943 301.440,212.831 282.500,219.500" stroke-width="6.750" stroke="rgb(33,33,33)" fill="none" stroke-linecap="round"></path><path d="M 282.500,219.500 C 265.940,225.331 265.722,224.837 249.500,231.500" stroke-width="6.750" stroke="rgb(33,33,33)" fill="none" stroke-linecap="round"></path><path d="M 249.500,231.500 C 237.722,236.337 237.849,236.705 226.500,242.500" stroke-width="6.750" stroke="rgb(33,33,33)" fill="none" stroke-linecap="round"></path><path d="M 226.500,242.500 C 214.349,248.705 214.506,249.010 202.500,255.500" stroke-width="6.750" stroke="rgb(33,33,33)" fill="none" stroke-linecap="round"></path><path d="M 202.500,255.500 C 196.006,259.010 195.849,258.748 189.500,262.500" stroke-width="6.750" stroke="rgb(33,33,33)" fill="none" stroke-linecap="round"></path><path d="M 189.500,262.500 C 184.849,265.248 184.733,265.174 180.500,268.500" stroke-width="7.309" stroke="rgb(33,33,33)" fill="none" stroke-linecap="round"></path><path d="M 180.500,268.500 C 177.733,270.674 177.487,270.662 175.500,273.500" stroke-width="8.019" stroke="rgb(33,33,33)" fill="none" stroke-linecap="round"></path><path d="M 175.500,273.500 C 173.987,275.662 174.700,276.099 173.500,278.500" stroke-width="8.793" stroke="rgb(33,33,33)" fill="none" stroke-linecap="round"></path><path d="M 173.500,278.500 C 172.200,281.099 171.946,280.970 170.500,283.500" stroke-width="9.551" stroke="rgb(33,33,33)" fill="none" stroke-linecap="round"></path><path d="M 170.500,283.500 C 169.946,284.470 169.764,284.444 169.500,285.500" stroke-width="10.455" stroke="rgb(33,33,33)" fill="none" stroke-linecap="round"></path><path d="M 169.500,285.500 C 169.264,286.444 169.500,286.500 169.500,287.500" stroke-width="11.359" stroke="rgb(33,33,33)" fill="none" stroke-linecap="round"></path><path d="M 169.500,287.500 C 169.500,288.000 169.125,288.375 169.500,288.500" stroke-width="12.344" stroke="rgb(33,33,33)" fill="none" stroke-linecap="round"></path><path d="M 169.500,288.500 C 170.625,288.875 171.000,288.500 172.500,288.500" stroke-width="12.993" stroke="rgb(33,33,33)" fill="none" stroke-linecap="round"></path><path d="M 172.500,288.500 C 176.000,288.500 176.067,289.042 179.500,288.500" stroke-width="12.952" stroke="rgb(33,33,33)" fill="none" stroke-linecap="round"></path><path d="M 179.500,288.500 C 185.567,287.542 185.623,287.401 191.500,285.500" stroke-width="12.339" stroke="rgb(33,33,33)" fill="none" stroke-linecap="round"></path><path d="M 191.500,285.500 C 202.623,281.901 202.448,281.352 213.500,277.500" stroke-width="10.811" stroke="rgb(33,33,33)" fill="none" stroke-linecap="round"></path><path d="M 213.500,277.500 C 235.448,269.852 235.536,270.103 257.500,262.500" stroke-width="8.390" stroke="rgb(33,33,33)" fill="none" stroke-linecap="round"></path><path d="M 257.500,262.500 C 287.536,252.103 287.409,251.735 317.500,241.500" stroke-width="6.799" stroke="rgb(33,33,33)" fill="none" stroke-linecap="round"></path><path d="M 317.500,241.500 C 360.909,226.735 361.101,227.295 404.500,212.500" stroke-width="6.750" stroke="rgb(33,33,33)" fill="none" stroke-linecap="round"></path><path d="M 404.500,212.500 C 449.101,197.295 449.032,197.093 493.500,181.500" stroke-width="6.750" stroke="rgb(33,33,33)" fill="none" stroke-linecap="round"></path><path d="M 493.500,181.500 C 526.032,170.093 526.322,170.835 558.500,158.500" stroke-width="6.750" stroke="rgb(33,33,33)" fill="none" stroke-linecap="round"></path><path d="M 558.500,158.500 C 586.322,147.835 586.018,147.042 613.500,135.500" stroke-width="6.750" stroke="rgb(33,33,33)" fill="none" stroke-linecap="round"></path><path d="M 613.500,135.500 C 636.018,126.042 636.099,126.227 658.500,116.500" stroke-width="6.750" stroke="rgb(33,33,33)" fill="none" stroke-linecap="round"></path><path d="M 658.500,116.500 C 674.099,109.727 674.133,109.779 689.500,102.500" stroke-width="6.750" stroke="rgb(33,33,33)" fill="none" stroke-linecap="round"></path><path d="M 689.500,102.500 C 702.633,96.279 702.565,96.125 715.500,89.500" stroke-width="6.750" stroke="rgb(33,33,33)" fill="none" stroke-linecap="round"></path><path d="M 715.500,89.500 C 723.065,85.625 722.801,85.053 730.500,81.500" stroke-width="6.750" stroke="rgb(33,33,33)" fill="none" stroke-linecap="round"></path><path d="M 730.500,81.500 C 735.801,79.053 735.977,79.433 741.500,77.500" stroke-width="6.750" stroke="rgb(33,33,33)" fill="none" stroke-linecap="round"></path><path d="M 741.500,77.500 C 745.977,75.933 746.000,76.000 750.500,74.500" stroke-width="6.750" stroke="rgb(33,33,33)" fill="none" stroke-linecap="round"></path><path d="M 750.500,74.500 C 753.500,73.500 753.473,73.408 756.500,72.500" stroke-width="6.818" stroke="rgb(33,33,33)" fill="none" stroke-linecap="round"></path><path d="M 756.500,72.500 C 758.473,71.908 758.500,72.000 760.500,71.500" stroke-width="7.685" stroke="rgb(33,33,33)" fill="none" stroke-linecap="round"></path><path d="M 760.500,71.500 C 762.500,71.000 762.519,71.066 764.500,70.500" stroke-width="8.555" stroke="rgb(33,33,33)" fill="none" stroke-linecap="round"></path><path d="M 764.500,70.500 C 766.019,70.066 765.981,69.880 767.500,69.500" stroke-width="9.435" stroke="rgb(33,33,33)" fill="none" stroke-linecap="round"></path></svg>