<svg xmlns="http://www.w3.org/2000/svg" xmlns:xlink="http://www.w3.org/1999/xlink" viewBox="0 0 360 500"><path d="M 86.000,78.000 C 85.000,87.000 84.668,86.982 84.000,96.000" stroke-width="19.305" stroke="rgb(33,33,33)" fill="none" stroke-linecap="round"></path><path d="M 84.000,96.000 C 83.668,100.482 84.000,100.500 84.000,105.000" stroke-width="17.583" stroke="rgb(33,33,33)" fill="none" stroke-linecap="round"></path><path d="M 84.000,105.000 C 84.000,111.000 84.000,111.000 84.000,117.000" stroke-width="16.140" stroke="rgb(33,33,33)" fill="none" stroke-linecap="round"></path><path d="M 84.000,117.000 C 84.000,124.000 83.824,124.004 84.000,131.000" stroke-width="14.798" stroke="rgb(33,33,33)" fill="none" stroke-linecap="round"></path><path d="M 84.000,131.000 C 84.249,140.917 84.386,140.915 84.851,150.827" stroke-width="13.364" stroke="rgb(33,33,33)" fill="none" stroke-linecap="round"></path><path d="M 84.851,150.827 C 85.474,164.100 85.651,164.092 86.177,177.369" stroke-width="12.068" stroke="rgb(33,33,33)" fill="none" stroke-linecap="round"></path><path d="M 86.177,177.369 C 86.849,194.324 86.544,194.337 87.246,211.291" stroke-width="9.809" stroke="rgb(33,33,33)" fill="none" stroke-linecap="round"></path><path d="M 87.246,211.291 C 87.829,225.372 87.621,225.395 88.747,239.438" stroke-width="9.275" stroke="rgb(33,33,33)" fill="none" stroke-linecap="round"></path><path d="M 88.747,239.438 C 89.727,251.649 90.101,251.619 91.458,263.799" stroke-width="9.239" stroke="rgb(33,33,33)" fill="none" stroke-linecap="round"></path><path d="M 91.458,263.799 C 92.637,274.387 92.576,274.394 93.819,284.975" stroke-width="8.969" stroke="rgb(33,33,33)" fill="none" stroke-linecap="round"></path><path d="M 93.819,284.975 C 94.897,294.148 94.786,294.166 96.101,303.306" stroke-width="9.052" stroke="rgb(33,33,33)" fill="none" stroke-linecap="round"></path><path d="M 96.101,303.306 C 97.336,311.887 97.740,311.832 98.920,320.418" stroke-width="9.178" stroke="rgb(33,33,33)" fill="none" stroke-linecap="round"></path><path d="M 98.920,320.418 C 99.804,326.846 99.733,326.865 100.229,333.334" stroke-width="9.561" stroke="rgb(33,33,33)" fill="none" stroke-linecap="round"></path><path d="M 100.229,333.334 C 100.523,337.175 100.401,337.185 100.500,341.038" stroke-width="10.272" stroke="rgb(33,33,33)" fill="none" stroke-linecap="round"></path><path d="M 100.500,341.038 C 100.536,342.448 100.500,343.732 100.500,343.859" stroke-width="11.123" stroke="rgb(33,33,33)" fill="none" stroke-linecap="round"></path><path d="M 100.500,343.859 C 100.500,343.965 100.221,342.642 100.500,341.503" stroke-width="12.035" stroke="rgb(33,33,33)" fill="none" stroke-linecap="round"></path><path d="M 100.500,341.503 C 102.320,334.068 102.766,334.150 104.697,326.710" stroke-width="11.649" stroke="rgb(33,33,33)" fill="none" stroke-linecap="round"></path><path d="M 104.697,326.710 C 107.433,316.172 107.365,316.151 109.834,305.546" stroke-width="10.965" stroke="rgb(33,33,33)" fill="none" stroke-linecap="round"></path><path d="M 109.834,305.546 C 112.342,294.777 112.500,294.805 114.651,283.962" stroke-width="10.451" stroke="rgb(33,33,33)" fill="none" stroke-linecap="round"></path><path d="M 114.651,283.962 C 116.572,274.276 116.283,274.220 117.978,264.489" stroke-width="10.397" stroke="rgb(33,33,33)" fill="none" stroke-linecap="round"></path><path d="M 117.978,264.489 C 119.448,256.048 119.575,256.069 120.981,247.617" stroke-width="10.016" stroke="rgb(33,33,33)" fill="none" stroke-linecap="round"></path><path d="M 120.981,247.617 C 122.556,238.145 122.577,238.146 123.940,228.641" stroke-width="9.910" stroke="rgb(33,33,33)" fill="none" stroke-linecap="round"></path><path d="M 123.940,228.641 C 125.552,217.401 125.053,217.320 126.931,206.128" stroke-width="9.634" stroke="rgb(33,33,33)" fill="none" stroke-linecap="round"></path><path d="M 126.931,206.128 C 128.693,195.629 128.848,195.641 131.220,185.260" stroke-width="9.616" stroke="rgb(33,33,33)" fill="none" stroke-linecap="round"></path><path d="M 131.220,185.260 C 133.206,176.570 133.509,176.641 135.647,167.985" stroke-width="9.379" stroke="rgb(33,33,33)" fill="none" stroke-linecap="round"></path><path d="M 135.647,167.985 C 137.390,160.927 137.489,160.944 138.982,153.831" stroke-width="9.695" stroke="rgb(33,33,33)" fill="none" stroke-linecap="round"></path><path d="M 138.982,153.831 C 140.029,148.842 139.876,148.810 140.726,143.782" stroke-width="10.133" stroke="rgb(33,33,33)" fill="none" stroke-linecap="round"></path><path d="M 140.726,143.782 C 141.480,139.321 141.447,139.316 142.191,134.853" stroke-width="10.629" stroke="rgb(33,33,33)" fill="none" stroke-linecap="round"></path><path d="M 142.191,134.853 C 142.518,132.892 142.580,132.901 142.867,130.934" stroke-width="11.415" stroke="rgb(33,33,33)" fill="none" stroke-linecap="round"></path><path d="M 142.867,130.934 C 143.284,128.073 143.061,128.030 143.600,125.197" stroke-width="12.002" stroke="rgb(33,33,33)" fill="none" stroke-linecap="round"></path><path d="M 143.600,125.197 C 143.988,123.162 144.158,123.196 144.721,121.197" stroke-width="12.667" stroke="rgb(33,33,33)" fill="none" stroke-linecap="round"></path><path d="M 144.721,121.197 C 145.165,119.621 145.139,119.613 145.614,118.046" stroke-width="13.364" stroke="rgb(33,33,33)" fill="none" stroke-linecap="round"></path><path d="M 145.614,118.046 C 145.962,116.898 145.859,116.834 146.366,115.768" stroke-width="13.999" stroke="rgb(33,33,33)" fill="none" stroke-linecap="round"></path><path d="M 146.366,115.768 C 146.611,115.252 147.047,114.429 147.118,114.882" stroke-width="14.780" stroke="rgb(33,33,33)" fill="none" stroke-linecap="round"></path><path d="M 147.118,114.882 C 147.614,118.051 147.428,118.944 147.500,123.012" stroke-width="15.067" stroke="rgb(33,33,33)" fill="none" stroke-linecap="round"></path><path d="M 147.500,123.012 C 147.619,129.767 147.639,129.773 147.500,136.528" stroke-width="14.286" stroke="rgb(33,33,33)" fill="none" stroke-linecap="round"></path><path d="M 147.500,136.528 C 147.331,144.793 147.195,144.791 146.884,153.053" stroke-width="12.897" stroke="rgb(33,33,33)" fill="none" stroke-linecap="round"></path><path d="M 146.884,153.053 C 146.514,162.895 146.481,162.894 146.139,172.737" stroke-width="11.895" stroke="rgb(33,33,33)" fill="none" stroke-linecap="round"></path><path d="M 146.139,172.737 C 145.732,184.437 145.952,184.447 145.386,196.139" stroke-width="11.114" stroke="rgb(33,33,33)" fill="none" stroke-linecap="round"></path><path d="M 145.386,196.139 C 144.764,208.974 144.389,208.955 143.763,221.790" stroke-width="10.233" stroke="rgb(33,33,33)" fill="none" stroke-linecap="round"></path><path d="M 143.763,221.790 C 143.142,234.516 143.083,234.521 142.893,247.260" stroke-width="9.936" stroke="rgb(33,33,33)" fill="none" stroke-linecap="round"></path><path d="M 142.893,247.260 C 142.701,260.126 142.973,260.130 143.000,273.000" stroke-width="9.212" stroke="rgb(33,33,33)" fill="none" stroke-linecap="round"></path><path d="M 143.000,273.000 C 143.026,285.500 143.200,285.504 143.000,298.000" stroke-width="8.990" stroke="rgb(33,33,33)" fill="none" stroke-linecap="round"></path><path d="M 143.000,298.000 C 142.833,308.462 143.070,308.495 142.265,318.916" stroke-width="9.007" stroke="rgb(33,33,33)" fill="none" stroke-linecap="round"></path><path d="M 142.265,318.916 C 141.650,326.883 141.117,326.835 140.159,334.776" stroke-width="9.155" stroke="rgb(33,33,33)" fill="none" stroke-linecap="round"></path><path d="M 140.159,334.776 C 139.552,339.809 139.976,339.879 139.136,344.865" stroke-width="9.694" stroke="rgb(33,33,33)" fill="none" stroke-linecap="round"></path><path d="M 139.136,344.865 C 138.466,348.845 138.195,348.804 137.138,352.708" stroke-width="10.267" stroke="rgb(33,33,33)" fill="none" stroke-linecap="round"></path><path d="M 137.138,352.708 C 136.947,353.413 136.919,353.408 136.639,354.083" stroke-width="11.274" stroke="rgb(33,33,33)" fill="none" stroke-linecap="round"></path><path d="M 136.639,354.083 C 136.290,354.923 136.069,354.879 135.881,355.739" stroke-width="12.211" stroke="rgb(33,33,33)" fill="none" stroke-linecap="round"></path><path d="M 135.881,355.739 C 135.750,356.337 135.967,356.927 136.000,357.000" stroke-width="13.136" stroke="rgb(33,33,33)" fill="none" stroke-linecap="round"></path><path d="M 136.000,357.000 C 136.026,357.058 135.755,356.407 136.000,356.000" stroke-width="14.014" stroke="rgb(33,33,33)" fill="none" stroke-linecap="round"></path><path d="M 136.000,356.000 C 136.690,354.854 137.157,355.075 137.869,353.893" stroke-width="14.556" stroke="rgb(33,33,33)" fill="none" stroke-linecap="round"></path><path d="M 137.869,353.893 C 138.465,352.903 138.389,352.808 138.615,351.655" stroke-width="15.121" stroke="rgb(33,33,33)" fill="none" stroke-linecap="round"></path><path d="M 138.615,351.655 C 139.134,348.998 139.189,348.980 139.359,346.273" stroke-width="15.120" stroke="rgb(33,33,33)" fill="none" stroke-linecap="round"></path><path d="M 139.359,346.273 C 139.631,341.952 139.473,341.936 139.500,337.599" stroke-width="14.744" stroke="rgb(33,33,33)" fill="none" stroke-linecap="round"></path><path d="M 139.500,337.599 C 139.544,330.489 139.635,330.487 139.500,323.379" stroke-width="13.715" stroke="rgb(33,33,33)" fill="none" stroke-linecap="round"></path><path d="M 139.500,323.379 C 139.337,314.777 139.728,314.730 138.903,306.180" stroke-width="12.787" stroke="rgb(33,33,33)" fill="none" stroke-linecap="round"></path><path d="M 138.903,306.180 C 138.008,296.905 137.773,296.899 136.061,287.728" stroke-width="12.006" stroke="rgb(33,33,33)" fill="none" stroke-linecap="round"></path><path d="M 136.061,287.728 C 134.585,279.817 135.226,279.526 132.527,272.015" stroke-width="11.568" stroke="rgb(33,33,33)" fill="none" stroke-linecap="round"></path><path d="M 132.527,272.015 C 130.205,265.552 129.926,265.448 126.020,259.780" stroke-width="11.417" stroke="rgb(33,33,33)" fill="none" stroke-linecap="round"></path><path d="M 126.020,259.780 C 122.079,254.062 121.943,253.955 116.833,249.243" stroke-width="11.413" stroke="rgb(33,33,33)" fill="none" stroke-linecap="round"></path><path d="M 116.833,249.243 C 111.363,244.199 110.773,244.850 104.859,240.269" stroke-width="11.340" stroke="rgb(33,33,33)" fill="none" stroke-linecap="round"></path><path d="M 104.859,240.269 C 98.849,235.613 98.716,235.756 92.985,230.769" stroke-width="11.058" stroke="rgb(33,33,33)" fill="none" stroke-linecap="round"></path><path d="M 92.985,230.769 C 87.382,225.894 87.544,225.703 82.192,220.546" stroke-width="10.868" stroke="rgb(33,33,33)" fill="none" stroke-linecap="round"></path><path d="M 82.192,220.546 C 77.734,216.251 77.834,216.148 73.365,211.865" stroke-width="11.161" stroke="rgb(33,33,33)" fill="none" stroke-linecap="round"></path><path d="M 73.365,211.865 C 70.074,208.711 70.098,208.678 66.672,205.672" stroke-width="11.421" stroke="rgb(33,33,33)" fill="none" stroke-linecap="round"></path><path d="M 66.672,205.672 C 63.151,202.584 63.246,202.430 59.471,199.677" stroke-width="11.827" stroke="rgb(33,33,33)" fill="none" stroke-linecap="round"></path><path d="M 59.471,199.677 C 56.676,197.639 56.612,197.659 53.532,196.090" stroke-width="12.079" stroke="rgb(33,33,33)" fill="none" stroke-linecap="round"></path><path d="M 53.532,196.090 C 51.349,194.978 51.281,194.568 48.945,194.315" stroke-width="12.664" stroke="rgb(33,33,33)" fill="none" stroke-linecap="round"></path><path d="M 48.945,194.315 C 47.148,194.120 46.848,194.306 45.265,195.194" stroke-width="13.290" stroke="rgb(33,33,33)" fill="none" stroke-linecap="round"></path><path d="M 45.265,195.194 C 43.778,196.028 43.507,196.189 42.806,197.759" stroke-width="13.922" stroke="rgb(33,33,33)" fill="none" stroke-linecap="round"></path><path d="M 42.806,197.759 C 41.542,200.590 41.492,200.848 41.335,203.995" stroke-width="14.026" stroke="rgb(33,33,33)" fill="none" stroke-linecap="round"></path><path d="M 41.335,203.995 C 41.179,207.127 40.884,207.516 42.181,210.316" stroke-width="14.003" stroke="rgb(33,33,33)" fill="none" stroke-linecap="round"></path><path d="M 42.181,210.316 C 43.981,214.202 44.766,213.914 47.530,217.368" stroke-width="13.860" stroke="rgb(33,33,33)" fill="none" stroke-linecap="round"></path><path d="M 47.530,217.368 C 49.661,220.031 49.453,220.270 51.971,222.550" stroke-width="13.926" stroke="rgb(33,33,33)" fill="none" stroke-linecap="round"></path><path d="M 51.971,222.550 C 56.515,226.665 56.627,226.621 61.654,230.158" stroke-width="13.347" stroke="rgb(33,33,33)" fill="none" stroke-linecap="round"></path><path d="M 61.654,230.158 C 65.878,233.130 65.963,233.042 70.473,235.568" stroke-width="13.246" stroke="rgb(33,33,33)" fill="none" stroke-linecap="round"></path><path d="M 70.473,235.568 C 74.913,238.054 74.963,237.978 79.553,240.182" stroke-width="13.062" stroke="rgb(33,33,33)" fill="none" stroke-linecap="round"></path><path d="M 79.553,240.182 C 85.354,242.968 85.164,243.597 91.255,245.549" stroke-width="12.851" stroke="rgb(33,33,33)" fill="none" stroke-linecap="round"></path><path d="M 91.255,245.549 C 98.073,247.734 98.241,247.600 105.371,248.456" stroke-width="12.037" stroke="rgb(33,33,33)" fill="none" stroke-linecap="round"></path><path d="M 105.371,248.456 C 112.613,249.325 112.699,249.218 120.000,249.000" stroke-width="11.852" stroke="rgb(33,33,33)" fill="none" stroke-linecap="round"></path><path d="M 120.000,249.000 C 127.946,248.763 127.963,248.511 135.866,247.545" stroke-width="11.731" stroke="rgb(33,33,33)" fill="none" stroke-linecap="round"></path><path d="M 135.866,247.545 C 143.103,246.660 143.054,246.276 150.281,245.298" stroke-width="11.317" stroke="rgb(33,33,33)" fill="none" stroke-linecap="round"></path><path d="M 150.281,245.298 C 156.514,244.454 156.564,244.821 162.785,243.902" stroke-width="12.033" stroke="rgb(33,33,33)" fill="none" stroke-linecap="round"></path><path d="M 162.785,243.902 C 174.212,242.214 174.268,242.361 185.578,240.084" stroke-width="10.298" stroke="rgb(33,33,33)" fill="none" stroke-linecap="round"></path><path d="M 185.578,240.084 C 189.357,239.323 189.420,239.325 192.962,237.827" stroke-width="10.299" stroke="rgb(33,33,33)" fill="none" stroke-linecap="round"></path><path d="M 192.962,237.827 C 197.968,235.711 197.864,235.426 202.675,232.856" stroke-width="10.555" stroke="rgb(33,33,33)" fill="none" stroke-linecap="round"></path><path d="M 202.675,232.856 C 206.338,230.899 206.280,230.791 209.910,228.772" stroke-width="11.014" stroke="rgb(33,33,33)" fill="none" stroke-linecap="round"></path><path d="M 209.910,228.772 C 212.901,227.108 213.004,227.277 215.918,225.489" stroke-width="11.562" stroke="rgb(33,33,33)" fill="none" stroke-linecap="round"></path><path d="M 215.918,225.489 C 218.722,223.768 218.695,223.705 221.346,221.753" stroke-width="12.028" stroke="rgb(33,33,33)" fill="none" stroke-linecap="round"></path><path d="M 221.346,221.753 C 223.227,220.368 223.080,220.163 224.982,218.814" stroke-width="12.615" stroke="rgb(33,33,33)" fill="none" stroke-linecap="round"></path><path d="M 224.982,218.814 C 226.493,217.743 226.638,217.949 228.172,216.914" stroke-width="13.254" stroke="rgb(33,33,33)" fill="none" stroke-linecap="round"></path><path d="M 228.172,216.914 C 228.937,216.397 228.866,216.299 229.580,215.710" stroke-width="14.054" stroke="rgb(33,33,33)" fill="none" stroke-linecap="round"></path><path d="M 229.580,215.710 C 230.049,215.323 230.082,215.361 230.539,214.961" stroke-width="14.781" stroke="rgb(33,33,33)" fill="none" stroke-linecap="round"></path><path d="M 230.539,214.961 C 230.917,214.631 230.901,214.612 231.250,214.250" stroke-width="15.483" stroke="rgb(33,33,33)" fill="none" stroke-linecap="round"></path><path d="M 231.250,214.250 C 231.382,214.114 231.486,213.812 231.500,213.965" stroke-width="16.228" stroke="rgb(33,33,33)" fill="none" stroke-linecap="round"></path><path d="M 231.500,213.965 C 231.611,215.177 231.636,215.481 231.500,216.980" stroke-width="16.769" stroke="rgb(33,33,33)" fill="none" stroke-linecap="round"></path><path d="M 231.500,216.980 C 231.136,220.999 231.001,220.991 230.500,225.002" stroke-width="16.124" stroke="rgb(33,33,33)" fill="none" stroke-linecap="round"></path><path d="M 230.500,225.002 C 229.749,231.014 229.838,231.026 228.997,237.026" stroke-width="15.031" stroke="rgb(33,33,33)" fill="none" stroke-linecap="round"></path><path d="M 228.997,237.026 C 227.942,244.552 227.937,244.553 226.707,252.053" stroke-width="13.902" stroke="rgb(33,33,33)" fill="none" stroke-linecap="round"></path><path d="M 226.707,252.053 C 225.430,259.835 225.370,259.826 223.983,267.590" stroke-width="12.852" stroke="rgb(33,33,33)" fill="none" stroke-linecap="round"></path><path d="M 223.983,267.590 C 222.516,275.799 222.212,275.753 221.000,284.000" stroke-width="12.223" stroke="rgb(33,33,33)" fill="none" stroke-linecap="round"></path><path d="M 221.000,284.000 C 219.485,294.312 219.453,294.326 218.530,304.708" stroke-width="11.338" stroke="rgb(33,33,33)" fill="none" stroke-linecap="round"></path><path d="M 218.530,304.708 C 217.453,316.826 217.228,316.839 217.000,329.000" stroke-width="11.851" stroke="rgb(33,33,33)" fill="none" stroke-linecap="round"></path><path d="M 217.000,329.000 C 216.583,351.241 216.841,351.266 217.239,373.512" stroke-width="7.557" stroke="rgb(33,33,33)" fill="none" stroke-linecap="round"></path><path d="M 217.239,373.512 C 217.342,379.276 217.425,379.293 218.002,385.020" stroke-width="7.866" stroke="rgb(33,33,33)" fill="none" stroke-linecap="round"></path><path d="M 218.002,385.020 C 218.180,386.785 218.274,386.793 218.748,388.495" stroke-width="8.799" stroke="rgb(33,33,33)" fill="none" stroke-linecap="round"></path><path d="M 218.748,388.495 C 218.898,389.033 219.211,389.731 219.250,389.500" stroke-width="9.823" stroke="rgb(33,33,33)" fill="none" stroke-linecap="round"></path><path d="M 219.250,389.500 C 219.337,388.983 219.070,388.253 219.000,387.000" stroke-width="10.726" stroke="rgb(33,33,33)" fill="none" stroke-linecap="round"></path><path d="M 219.000,387.000 C 218.945,386.003 219.000,386.000 219.000,385.000" stroke-width="11.658" stroke="rgb(33,33,33)" fill="none" stroke-linecap="round"></path><path d="M 219.000,385.000 C 219.000,383.500 219.160,383.474 219.000,382.000" stroke-width="12.463" stroke="rgb(33,33,33)" fill="none" stroke-linecap="round"></path><path d="M 219.000,382.000 C 218.918,381.241 218.683,381.279 218.516,380.533" stroke-width="13.339" stroke="rgb(33,33,33)" fill="none" stroke-linecap="round"></path><path d="M 218.516,380.533 C 218.433,380.164 218.714,379.990 218.500,379.769" stroke-width="14.231" stroke="rgb(33,33,33)" fill="none" stroke-linecap="round"></path></svg>