<svg xmlns="http://www.w3.org/2000/svg" xmlns:xlink="http://www.w3.org/1999/xlink" viewBox="0 0 800 500"><path d="M 247.500,96.500 C 247.500,97.000 247.500,97.000 247.500,97.500" stroke-width="16.875" stroke="rgb(33,33,33)" fill="none" stroke-linecap="round"></path><path d="M 247.500,97.500 C 247.500,98.000 247.655,98.036 247.500,98.500" stroke-width="17.259" stroke="rgb(33,33,33)" fill="none" stroke-linecap="round"></path><path d="M 247.500,98.500 C 247.155,99.536 246.914,99.464 246.500,100.500" stroke-width="17.404" stroke="rgb(33,33,33)" fill="none" stroke-linecap="round"></path><path d="M 246.500,100.500 C 245.914,101.964 246.086,102.036 245.500,103.500" stroke-width="17.368" stroke="rgb(33,33,33)" fill="none" stroke-linecap="round"></path><path d="M 245.500,103.500 C 245.086,104.536 245.113,104.581 244.500,105.500" stroke-width="17.471" stroke="rgb(33,33,33)" fill="none" stroke-linecap="round"></path><path d="M 244.500,105.500 C 244.113,106.081 243.860,105.899 243.500,106.500" stroke-width="17.703" stroke="rgb(33,33,33)" fill="none" stroke-linecap="round"></path><path d="M 243.500,106.500 C 242.360,108.399 242.201,108.397 241.500,110.500" stroke-width="17.385" stroke="rgb(33,33,33)" fill="none" stroke-linecap="round"></path><path d="M 241.500,110.500 C 240.701,112.897 241.299,113.103 240.500,115.500" stroke-width="16.991" stroke="rgb(33,33,33)" fill="none" stroke-linecap="round"></path><path d="M 240.500,115.500 C 239.799,117.603 239.500,117.500 238.500,119.500" stroke-width="16.790" stroke="rgb(33,33,33)" fill="none" stroke-linecap="round"></path><path d="M 238.500,119.500 C 237.000,122.500 236.549,122.353 235.500,125.500" stroke-width="16.339" stroke="rgb(33,33,33)" fill="none" stroke-linecap="round"></path><path d="M 235.500,125.500 C 234.549,128.353 235.451,128.647 234.500,131.500" stroke-width="16.083" stroke="rgb(33,33,33)" fill="none" stroke-linecap="round"></path><path d="M 234.500,131.500 C 233.451,134.647 232.699,134.383 231.500,137.500" stroke-width="15.684" stroke="rgb(33,33,33)" fill="none" stroke-linecap="round"></path><path d="M 231.500,137.500 C 230.199,140.883 230.801,141.117 229.500,144.500" stroke-width="15.413" stroke="rgb(33,33,33)" fill="none" stroke-linecap="round"></path><path d="M 229.500,144.500 C 228.301,147.617 227.819,147.421 226.500,150.500" stroke-width="15.276" stroke="rgb(33,33,33)" fill="none" stroke-linecap="round"></path><path d="M 226.500,150.500 C 224.819,154.421 224.753,154.429 223.500,158.500" stroke-width="14.879" stroke="rgb(33,33,33)" fill="none" stroke-linecap="round"></path><path d="M 223.500,158.500 C 222.753,160.929 223.073,161.016 222.500,163.500" stroke-width="15.014" stroke="rgb(33,33,33)" fill="none" stroke-linecap="round"></path><path d="M 222.500,163.500 C 221.573,167.516 221.041,167.443 220.500,171.500" stroke-width="14.774" stroke="rgb(33,33,33)" fill="none" stroke-linecap="round"></path><path d="M 220.500,171.500 C 220.041,174.943 220.990,175.069 220.500,178.500" stroke-width="14.686" stroke="rgb(33,33,33)" fill="none" stroke-linecap="round"></path><path d="M 220.500,178.500 C 219.990,182.069 219.168,181.935 218.500,185.500" stroke-width="14.677" stroke="rgb(33,33,33)" fill="none" stroke-linecap="round"></path><path d="M 218.500,185.500 C 217.668,189.935 217.738,189.985 217.500,194.500" stroke-width="14.359" stroke="rgb(33,33,33)" fill="none" stroke-linecap="round"></path><path d="M 217.500,194.500 C 217.238,199.485 217.500,199.500 217.500,204.500" stroke-width="13.934" stroke="rgb(33,33,33)" fill="none" stroke-linecap="round"></path><path d="M 217.500,204.500 C 217.500,209.500 217.005,209.549 217.500,214.500" stroke-width="13.680" stroke="rgb(33,33,33)" fill="none" stroke-linecap="round"></path><path d="M 217.500,214.500 C 218.005,219.549 218.745,219.463 219.500,224.500" stroke-width="13.463" stroke="rgb(33,33,33)" fill="none" stroke-linecap="round"></path><path d="M 219.500,224.500 C 220.245,229.463 219.519,229.595 220.500,234.500" stroke-width="13.309" stroke="rgb(33,33,33)" fill="none" stroke-linecap="round"></path><path d="M 220.500,234.500 C 221.519,239.595 221.699,239.612 223.500,244.500" stroke-width="13.149" stroke="rgb(33,33,33)" fill="none" stroke-linecap="round"></path><path d="M 223.500,244.500 C 225.199,249.112 224.814,249.471 227.500,253.500" stroke-width="13.082" stroke="rgb(33,33,33)" fill="none" stroke-linecap="round"></path><path d="M 227.500,253.500 C 229.814,256.971 230.203,256.862 233.500,259.500" stroke-width="13.165" stroke="rgb(33,33,33)" fill="none" stroke-linecap="round"></path><path d="M 233.500,259.500 C 237.703,262.862 237.740,262.995 242.500,265.500" stroke-width="13.058" stroke="rgb(33,33,33)" fill="none" stroke-linecap="round"></path><path d="M 242.500,265.500 C 247.240,267.995 247.282,268.630 252.500,269.500" stroke-width="12.920" stroke="rgb(33,33,33)" fill="none" stroke-linecap="round"></path><path d="M 252.500,269.500 C 259.282,270.630 259.500,269.500 266.500,269.500" stroke-width="12.582" stroke="rgb(33,33,33)" fill="none" stroke-linecap="round"></path><path d="M 266.500,269.500 C 273.500,269.500 273.598,270.296 280.500,269.500" stroke-width="12.256" stroke="rgb(33,33,33)" fill="none" stroke-linecap="round"></path><path d="M 280.500,269.500 C 286.598,268.796 286.770,268.683 292.500,266.500" stroke-width="12.205" stroke="rgb(33,33,33)" fill="none" stroke-linecap="round"></path><path d="M 292.500,266.500 C 297.270,264.683 297.188,264.290 301.500,261.500" stroke-width="12.284" stroke="rgb(33,33,33)" fill="none" stroke-linecap="round"></path><path d="M 301.500,261.500 C 305.688,258.790 306.208,259.091 309.500,255.500" stroke-width="12.374" stroke="rgb(33,33,33)" fill="none" stroke-linecap="round"></path><path d="M 309.500,255.500 C 311.708,253.091 311.095,252.544 312.500,249.500" stroke-width="12.787" stroke="rgb(33,33,33)" fill="none" stroke-linecap="round"></path><path d="M 312.500,249.500 C 314.095,246.044 314.718,246.147 315.500,242.500" stroke-width="13.010" stroke="rgb(33,33,33)" fill="none" stroke-linecap="round"></path><path d="M 315.500,242.500 C 316.218,239.147 315.500,239.000 315.500,235.500" stroke-width="13.296" stroke="rgb(33,33,33)" fill="none" stroke-linecap="round"></path><path d="M 315.500,235.500 C 315.500,232.500 315.730,232.484 315.500,229.500" stroke-width="13.600" stroke="rgb(33,33,33)" fill="none" stroke-linecap="round"></path><path d="M 315.500,229.500 C 315.230,225.984 315.352,225.906 314.500,222.500" stroke-width="13.734" stroke="rgb(33,33,33)" fill="none" stroke-linecap="round"></path><path d="M 314.500,222.500 C 313.852,219.906 313.613,219.949 312.500,217.500" stroke-width="14.069" stroke="rgb(33,33,33)" fill="none" stroke-linecap="round"></path><path d="M 312.500,217.500 C 311.113,214.449 311.105,214.442 309.500,211.500" stroke-width="14.157" stroke="rgb(33,33,33)" fill="none" stroke-linecap="round"></path><path d="M 309.500,211.500 C 308.105,208.942 308.308,208.760 306.500,206.500" stroke-width="14.332" stroke="rgb(33,33,33)" fill="none" stroke-linecap="round"></path><path d="M 306.500,206.500 C 304.308,203.760 304.389,203.426 301.500,201.500" stroke-width="14.373" stroke="rgb(33,33,33)" fill="none" stroke-linecap="round"></path><path d="M 301.500,201.500 C 298.389,199.426 297.850,200.287 294.500,198.500" stroke-width="14.237" stroke="rgb(33,33,33)" fill="none" stroke-linecap="round"></path><path d="M 294.500,198.500 C 290.350,196.287 290.740,195.508 286.500,193.500" stroke-width="14.036" stroke="rgb(33,33,33)" fill="none" stroke-linecap="round"></path><path d="M 286.500,193.500 C 281.240,191.008 281.091,191.202 275.500,189.500" stroke-width="13.574" stroke="rgb(33,33,33)" fill="none" stroke-linecap="round"></path><path d="M 275.500,189.500 C 269.591,187.702 269.471,188.108 263.500,186.500" stroke-width="13.227" stroke="rgb(33,33,33)" fill="none" stroke-linecap="round"></path><path d="M 263.500,186.500 C 256.471,184.608 256.559,184.265 249.500,182.500" stroke-width="12.764" stroke="rgb(33,33,33)" fill="none" stroke-linecap="round"></path><path d="M 249.500,182.500 C 242.559,180.765 242.549,180.715 235.500,179.500" stroke-width="12.286" stroke="rgb(33,33,33)" fill="none" stroke-linecap="round"></path><path d="M 235.500,179.500 C 228.049,178.215 228.000,178.500 220.500,177.500" stroke-width="12.006" stroke="rgb(33,33,33)" fill="none" stroke-linecap="round"></path><path d="M 220.500,177.500 C 213.000,176.500 213.027,176.228 205.500,175.500" stroke-width="11.648" stroke="rgb(33,33,33)" fill="none" stroke-linecap="round"></path><path d="M 205.500,175.500 C 197.527,174.728 197.496,175.051 189.500,174.500" stroke-width="11.448" stroke="rgb(33,33,33)" fill="none" stroke-linecap="round"></path><path d="M 189.500,174.500 C 182.996,174.051 183.009,173.760 176.500,173.500" stroke-width="11.506" stroke="rgb(33,33,33)" fill="none" stroke-linecap="round"></path><path d="M 176.500,173.500 C 170.509,173.260 170.500,173.500 164.500,173.500" stroke-width="11.577" stroke="rgb(33,33,33)" fill="none" stroke-linecap="round"></path><path d="M 164.500,173.500 C 158.500,173.500 158.464,173.023 152.500,173.500" stroke-width="11.634" stroke="rgb(33,33,33)" fill="none" stroke-linecap="round"></path><path d="M 152.500,173.500 C 145.964,174.023 145.986,174.419 139.500,175.500" stroke-width="11.648" stroke="rgb(33,33,33)" fill="none" stroke-linecap="round"></path><path d="M 139.500,175.500 C 133.986,176.419 134.020,176.628 128.500,177.500" stroke-width="11.757" stroke="rgb(33,33,33)" fill="none" stroke-linecap="round"></path><path d="M 128.500,177.500 C 124.520,178.128 124.422,177.629 120.500,178.500" stroke-width="12.144" stroke="rgb(33,33,33)" fill="none" stroke-linecap="round"></path><path d="M 120.500,178.500 C 115.422,179.629 115.555,180.236 110.500,181.500" stroke-width="12.222" stroke="rgb(33,33,33)" fill="none" stroke-linecap="round"></path><path d="M 110.500,181.500 C 107.555,182.236 107.417,181.704 104.500,182.500" stroke-width="12.712" stroke="rgb(33,33,33)" fill="none" stroke-linecap="round"></path><path d="M 104.500,182.500 C 101.917,183.204 102.000,183.500 99.500,184.500" stroke-width="13.168" stroke="rgb(33,33,33)" fill="none" stroke-linecap="round"></path><path d="M 99.500,184.500 C 97.000,185.500 96.896,185.302 94.500,186.500" stroke-width="13.558" stroke="rgb(33,33,33)" fill="none" stroke-linecap="round"></path><path d="M 94.500,186.500 C 92.896,187.302 92.674,187.326 91.500,188.500" stroke-width="14.089" stroke="rgb(33,33,33)" fill="none" stroke-linecap="round"></path><path d="M 91.500,188.500 C 91.174,188.826 91.833,189.333 91.500,189.500" stroke-width="14.879" stroke="rgb(33,33,33)" fill="none" stroke-linecap="round"></path><path d="M 91.500,189.500 C 90.833,189.833 90.000,189.000 89.500,189.500" stroke-width="15.431" stroke="rgb(33,33,33)" fill="none" stroke-linecap="round"></path><path d="M 89.500,189.500 C 89.000,190.000 89.500,190.500 89.500,191.500" stroke-width="15.903" stroke="rgb(33,33,33)" fill="none" stroke-linecap="round"></path><path d="M 89.500,191.500 C 89.500,192.000 89.500,192.000 89.500,192.500" stroke-width="16.493" stroke="rgb(33,33,33)" fill="none" stroke-linecap="round"></path><path d="M 89.500,192.500 C 89.500,193.000 89.174,193.174 89.500,193.500" stroke-width="16.969" stroke="rgb(33,33,33)" fill="none" stroke-linecap="round"></path><path d="M 89.500,193.500 C 90.674,194.674 90.972,194.545 92.500,195.500" stroke-width="16.879" stroke="rgb(33,33,33)" fill="none" stroke-linecap="round"></path><path d="M 92.500,195.500 C 94.972,197.045 94.812,197.425 97.500,198.500" stroke-width="16.536" stroke="rgb(33,33,33)" fill="none" stroke-linecap="round"></path><path d="M 97.500,198.500 C 102.312,200.425 102.405,200.408 107.500,201.500" stroke-width="15.547" stroke="rgb(33,33,33)" fill="none" stroke-linecap="round"></path><path d="M 107.500,201.500 C 116.405,203.408 116.466,203.245 125.500,204.500" stroke-width="14.016" stroke="rgb(33,33,33)" fill="none" stroke-linecap="round"></path><path d="M 125.500,204.500 C 134.466,205.745 134.519,205.349 143.500,206.500" stroke-width="12.907" stroke="rgb(33,33,33)" fill="none" stroke-linecap="round"></path><path d="M 143.500,206.500 C 154.019,207.849 153.995,208.034 164.500,209.500" stroke-width="11.977" stroke="rgb(33,33,33)" fill="none" stroke-linecap="round"></path><path d="M 164.500,209.500 C 175.495,211.034 175.465,211.326 186.500,212.500" stroke-width="11.164" stroke="rgb(33,33,33)" fill="none" stroke-linecap="round"></path><path d="M 186.500,212.500 C 198.965,213.826 198.998,213.519 211.500,214.500" stroke-width="10.405" stroke="rgb(33,33,33)" fill="none" stroke-linecap="round"></path><path d="M 211.500,214.500 C 224.498,215.519 224.479,216.051 237.500,216.500" stroke-width="9.894" stroke="rgb(33,33,33)" fill="none" stroke-linecap="round"></path><path d="M 237.500,216.500 C 253.479,217.051 253.500,216.500 269.500,216.500" stroke-width="9.147" stroke="rgb(33,33,33)" fill="none" stroke-linecap="round"></path><path d="M 269.500,216.500 C 283.500,216.500 283.538,217.235 297.500,216.500" stroke-width="8.873" stroke="rgb(33,33,33)" fill="none" stroke-linecap="round"></path><path d="M 297.500,216.500 C 312.038,215.735 311.965,214.323 326.500,213.500" stroke-width="8.549" stroke="rgb(33,33,33)" fill="none" stroke-linecap="round"></path><path d="M 326.500,213.500 C 338.465,212.823 338.506,213.767 350.500,213.500" stroke-width="8.575" stroke="rgb(33,33,33)" fill="none" stroke-linecap="round"></path><path d="M 350.500,213.500 C 361.006,213.267 361.018,213.249 371.500,212.500" stroke-width="8.666" stroke="rgb(33,33,33)" fill="none" stroke-linecap="round"></path><path d="M 371.500,212.500 C 382.018,211.749 381.981,211.234 392.500,210.500" stroke-width="8.738" stroke="rgb(33,33,33)" fill="none" stroke-linecap="round"></path><path d="M 392.500,210.500 C 403.481,209.734 403.497,209.915 414.500,209.500" stroke-width="8.755" stroke="rgb(33,33,33)" fill="none" stroke-linecap="round"></path><path d="M 414.500,209.500 C 429.997,208.915 430.007,209.164 445.500,208.500" stroke-width="8.384" stroke="rgb(33,33,33)" fill="none" stroke-linecap="round"></path><path d="M 445.500,208.500 C 465.007,207.664 464.990,207.110 484.500,206.500" stroke-width="7.813" stroke="rgb(33,33,33)" fill="none" stroke-linecap="round"></path><path d="M 484.500,206.500 C 496.990,206.110 497.000,206.500 509.500,206.500" stroke-width="7.938" stroke="rgb(33,33,33)" fill="none" stroke-linecap="round"></path><path d="M 509.500,206.500 C 527.000,206.500 527.000,206.500 544.500,206.500" stroke-width="7.634" stroke="rgb(33,33,33)" fill="none" stroke-linecap="round"></path><path d="M 544.500,206.500 C 562.000,206.500 562.010,206.948 579.500,206.500" stroke-width="7.407" stroke="rgb(33,33,33)" fill="none" stroke-linecap="round"></path><path d="M 579.500,206.500 C 601.010,205.948 600.988,204.973 622.500,204.500" stroke-width="7.067" stroke="rgb(33,33,33)" fill="none" stroke-linecap="round"></path><path d="M 622.500,204.500 C 646.488,203.973 646.540,205.226 670.500,204.500" stroke-width="6.750" stroke="rgb(33,33,33)" fill="none" stroke-linecap="round"></path><path d="M 670.500,204.500 C 679.540,204.226 679.482,203.168 688.500,202.500" stroke-width="7.146" stroke="rgb(33,33,33)" fill="none" stroke-linecap="round"></path><path d="M 688.500,202.500 C 692.982,202.168 693.179,202.932 697.500,202.500" stroke-width="7.871" stroke="rgb(33,33,33)" fill="none" stroke-linecap="round"></path><path d="M 697.500,202.500 C 698.179,202.432 697.914,201.793 698.500,201.500" stroke-width="8.902" stroke="rgb(33,33,33)" fill="none" stroke-linecap="round"></path><path d="M 698.500,201.500 C 698.914,201.293 699.500,201.500 699.500,201.500" stroke-width="9.989" stroke="rgb(33,33,33)" fill="none" stroke-linecap="round"></path><path d="M 699.500,201.500 C 699.500,201.500 699.000,201.500 698.500,201.500" stroke-width="11.112" stroke="rgb(33,33,33)" fill="none" stroke-linecap="round"></path><path d="M 698.500,201.500 C 698.000,201.500 698.000,201.500 697.500,201.500" stroke-width="12.123" stroke="rgb(33,33,33)" fill="none" stroke-linecap="round"></path><path d="M 697.500,201.500 C 696.000,201.500 696.000,201.500 694.500,201.500" stroke-width="12.901" stroke="rgb(33,33,33)" fill="none" stroke-linecap="round"></path><path d="M 694.500,201.500 C 693.000,201.500 693.000,201.500 691.500,201.500" stroke-width="13.599" stroke="rgb(33,33,33)" fill="none" stroke-linecap="round"></path><path d="M 691.500,201.500 C 690.500,201.500 690.500,201.500 689.500,201.500" stroke-width="14.327" stroke="rgb(33,33,33)" fill="none" stroke-linecap="round"></path><path d="M 689.500,201.500 C 689.000,201.500 689.000,201.500 688.500,201.500" stroke-width="15.075" stroke="rgb(33,33,33)" fill="none" stroke-linecap="round"></path><path d="M 688.500,201.500 C 687.000,201.500 687.000,201.500 685.500,201.500" stroke-width="15.459" stroke="rgb(33,33,33)" fill="none" stroke-linecap="round"></path><path d="M 685.500,201.500 C 684.500,201.500 684.469,201.306 683.500,201.500" stroke-width="15.943" stroke="rgb(33,33,33)" fill="none" stroke-linecap="round"></path><path d="M 683.500,201.500 C 681.969,201.806 682.040,202.243 680.500,202.500" stroke-width="16.157" stroke="rgb(33,33,33)" fill="none" stroke-linecap="round"></path><path d="M 680.500,202.500 C 679.040,202.743 679.000,202.500 677.500,202.500" stroke-width="16.384" stroke="rgb(33,33,33)" fill="none" stroke-linecap="round"></path><path d="M 677.500,202.500 C 676.000,202.500 676.000,202.500 674.500,202.500" stroke-width="16.513" stroke="rgb(33,33,33)" fill="none" stroke-linecap="round"></path><path d="M 674.500,202.500 C 673.000,202.500 673.000,202.500 671.500,202.500" stroke-width="16.675" stroke="rgb(33,33,33)" fill="none" stroke-linecap="round"></path><path d="M 671.500,202.500 C 670.000,202.500 670.000,202.500 668.500,202.500" stroke-width="16.807" stroke="rgb(33,33,33)" fill="none" stroke-linecap="round"></path><path d="M 668.500,202.500 C 667.000,202.500 667.000,202.500 665.500,202.500" stroke-width="16.887" stroke="rgb(33,33,33)" fill="none" stroke-linecap="round"></path><path d="M 665.500,202.500 C 664.000,202.500 664.000,202.500 662.500,202.500" stroke-width="16.920" stroke="rgb(33,33,33)" fill="none" stroke-linecap="round"></path><path d="M 662.500,202.500 C 661.000,202.500 660.932,202.214 659.500,202.500" stroke-width="17.005" stroke="rgb(33,33,33)" fill="none" stroke-linecap="round"></path><path d="M 659.500,202.500 C 658.432,202.714 658.556,203.236 657.500,203.500" stroke-width="17.176" stroke="rgb(33,33,33)" fill="none" stroke-linecap="round"></path><path d="M 657.500,203.500 C 656.556,203.736 656.500,203.500 655.500,203.500" stroke-width="17.357" stroke="rgb(33,33,33)" fill="none" stroke-linecap="round"></path><path d="M 655.500,203.500 C 654.000,203.500 654.000,203.500 652.500,203.500" stroke-width="17.357" stroke="rgb(33,33,33)" fill="none" stroke-linecap="round"></path><path d="M 652.500,203.500 C 651.500,203.500 651.500,203.500 650.500,203.500" stroke-width="17.504" stroke="rgb(33,33,33)" fill="none" stroke-linecap="round"></path><path d="M 650.500,203.500 C 649.500,203.500 649.500,203.500 648.500,203.500" stroke-width="17.644" stroke="rgb(33,33,33)" fill="none" stroke-linecap="round"></path><path d="M 648.500,203.500 C 647.500,203.500 647.500,203.500 646.500,203.500" stroke-width="17.737" stroke="rgb(33,33,33)" fill="none" stroke-linecap="round"></path><path d="M 646.500,203.500 C 645.000,203.500 645.000,203.500 643.500,203.500" stroke-width="17.659" stroke="rgb(33,33,33)" fill="none" stroke-linecap="round"></path><path d="M 643.500,203.500 C 642.500,203.500 642.500,203.500 641.500,203.500" stroke-width="17.749" stroke="rgb(33,33,33)" fill="none" stroke-linecap="round"></path><path d="M 641.500,203.500 C 640.500,203.500 640.500,203.500 639.500,203.500" stroke-width="17.842" stroke="rgb(33,33,33)" fill="none" stroke-linecap="round"></path><path d="M 639.500,203.500 C 638.500,203.500 638.500,203.500 637.500,203.500" stroke-width="17.897" stroke="rgb(33,33,33)" fill="none" stroke-linecap="round"></path><path d="M 637.500,203.500 C 636.000,203.500 636.000,203.500 634.500,203.500" stroke-width="17.756" stroke="rgb(33,33,33)" fill="none" stroke-linecap="round"></path><path d="M 634.500,203.500 C 633.500,203.500 633.500,203.500 632.500,203.500" stroke-width="17.827" stroke="rgb(33,33,33)" fill="none" stroke-linecap="round"></path><path d="M 632.500,203.500 C 631.000,203.500 631.000,203.500 629.500,203.500" stroke-width="17.731" stroke="rgb(33,33,33)" fill="none" stroke-linecap="round"></path><path d="M 629.500,203.500 C 627.500,203.500 627.500,203.500 625.500,203.500" stroke-width="17.486" stroke="rgb(33,33,33)" fill="none" stroke-linecap="round"></path><path d="M 625.500,203.500 C 624.000,203.500 624.000,203.500 622.500,203.500" stroke-width="17.430" stroke="rgb(33,33,33)" fill="none" stroke-linecap="round"></path><path d="M 622.500,203.500 C 621.000,203.500 621.000,203.500 619.500,203.500" stroke-width="17.386" stroke="rgb(33,33,33)" fill="none" stroke-linecap="round"></path><path d="M 619.500,203.500 C 618.000,203.500 618.000,203.500 616.500,203.500" stroke-width="17.351" stroke="rgb(33,33,33)" fill="none" stroke-linecap="round"></path><path d="M 616.500,203.500 C 615.000,203.500 615.000,203.500 613.500,203.500" stroke-width="17.323" stroke="rgb(33,33,33)" fill="none" stroke-linecap="round"></path><path d="M 613.500,203.500 C 612.000,203.500 612.000,203.500 610.500,203.500" stroke-width="17.301" stroke="rgb(33,33,33)" fill="none" stroke-linecap="round"></path><path d="M 610.500,203.500 C 609.000,203.500 609.000,203.500 607.500,203.500" stroke-width="17.312" stroke="rgb(33,33,33)" fill="none" stroke-linecap="round"></path><path d="M 607.500,203.500 C 605.000,203.500 605.000,203.500 602.500,203.500" stroke-width="16.952" stroke="rgb(33,33,33)" fill="none" stroke-linecap="round"></path><path d="M 602.500,203.500 C 601.000,203.500 601.000,203.500 599.500,203.500" stroke-width="17.003" stroke="rgb(33,33,33)" fill="none" stroke-linecap="round"></path><path d="M 599.500,203.500 C 598.000,203.500 598.000,203.500 596.500,203.500" stroke-width="17.073" stroke="rgb(33,33,33)" fill="none" stroke-linecap="round"></path><path d="M 596.500,203.500 C 595.000,203.500 595.000,203.500 593.500,203.500" stroke-width="17.101" stroke="rgb(33,33,33)" fill="none" stroke-linecap="round"></path><path d="M 593.500,203.500 C 592.000,203.500 592.000,203.500 590.500,203.500" stroke-width="17.123" stroke="rgb(33,33,33)" fill="none" stroke-linecap="round"></path><path d="M 590.500,203.500 C 588.500,203.500 588.500,203.500 586.500,203.500" stroke-width="17.009" stroke="rgb(33,33,33)" fill="none" stroke-linecap="round"></path><path d="M 586.500,203.500 C 584.500,203.500 584.500,203.500 582.500,203.500" stroke-width="16.882" stroke="rgb(33,33,33)" fill="none" stroke-linecap="round"></path><path d="M 582.500,203.500 C 580.500,203.500 580.500,203.500 578.500,203.500" stroke-width="16.782" stroke="rgb(33,33,33)" fill="none" stroke-linecap="round"></path><path d="M 578.500,203.500 C 577.000,203.500 577.000,203.500 575.500,203.500" stroke-width="16.894" stroke="rgb(33,33,33)" fill="none" stroke-linecap="round"></path><path d="M 575.500,203.500 C 573.500,203.500 573.500,203.500 571.500,203.500" stroke-width="16.791" stroke="rgb(33,33,33)" fill="none" stroke-linecap="round"></path><path d="M 571.500,203.500 C 570.000,203.500 570.000,203.500 568.500,203.500" stroke-width="16.901" stroke="rgb(33,33,33)" fill="none" stroke-linecap="round"></path><path d="M 568.500,203.500 C 567.000,203.500 567.000,203.500 565.500,203.500" stroke-width="16.963" stroke="rgb(33,33,33)" fill="none" stroke-linecap="round"></path><path d="M 565.500,203.500 C 563.000,203.500 563.000,203.500 560.500,203.500" stroke-width="16.727" stroke="rgb(33,33,33)" fill="none" stroke-linecap="round"></path><path d="M 560.500,203.500 C 558.000,203.500 558.000,203.500 555.500,203.500" stroke-width="16.500" stroke="rgb(33,33,33)" fill="none" stroke-linecap="round"></path><path d="M 555.500,203.500 C 554.000,203.500 554.000,203.500 552.500,203.500" stroke-width="16.637" stroke="rgb(33,33,33)" fill="none" stroke-linecap="round"></path><path d="M 552.500,203.500 C 550.000,203.500 550.000,203.500 547.500,203.500" stroke-width="16.430" stroke="rgb(33,33,33)" fill="none" stroke-linecap="round"></path><path d="M 547.500,203.500 C 546.000,203.500 546.000,203.500 544.500,203.500" stroke-width="16.607" stroke="rgb(33,33,33)" fill="none" stroke-linecap="round"></path><path d="M 544.500,203.500 C 543.000,203.500 543.000,203.500 541.500,203.500" stroke-width="16.776" stroke="rgb(33,33,33)" fill="none" stroke-linecap="round"></path><path d="M 541.500,203.500 C 539.500,203.500 539.500,203.500 537.500,203.500" stroke-width="16.698" stroke="rgb(33,33,33)" fill="none" stroke-linecap="round"></path><path d="M 537.500,203.500 C 536.000,203.500 536.000,203.500 534.500,203.500" stroke-width="16.799" stroke="rgb(33,33,33)" fill="none" stroke-linecap="round"></path><path d="M 534.500,203.500 C 532.500,203.500 532.500,203.500 530.500,203.500" stroke-width="16.675" stroke="rgb(33,33,33)" fill="none" stroke-linecap="round"></path><path d="M 530.500,203.500 C 528.500,203.500 528.500,203.500 526.500,203.500" stroke-width="16.654" stroke="rgb(33,33,33)" fill="none" stroke-linecap="round"></path><path d="M 526.500,203.500 C 524.500,203.500 524.500,203.500 522.500,203.500" stroke-width="16.601" stroke="rgb(33,33,33)" fill="none" stroke-linecap="round"></path><path d="M 522.500,203.500 C 520.500,203.500 520.500,203.500 518.500,203.500" stroke-width="16.559" stroke="rgb(33,33,33)" fill="none" stroke-linecap="round"></path><path d="M 518.500,203.500 C 516.000,203.500 516.000,203.500 513.500,203.500" stroke-width="16.368" stroke="rgb(33,33,33)" fill="none" stroke-linecap="round"></path><path d="M 513.500,203.500 C 511.500,203.500 511.500,203.500 509.500,203.500" stroke-width="16.373" stroke="rgb(33,33,33)" fill="none" stroke-linecap="round"></path><path d="M 509.500,203.500 C 507.500,203.500 507.500,203.500 505.500,203.500" stroke-width="16.377" stroke="rgb(33,33,33)" fill="none" stroke-linecap="round"></path><path d="M 505.500,203.500 C 502.500,203.500 502.500,203.500 499.500,203.500" stroke-width="16.125" stroke="rgb(33,33,33)" fill="none" stroke-linecap="round"></path><path d="M 499.500,203.500 C 497.500,203.500 497.500,203.500 495.500,203.500" stroke-width="16.177" stroke="rgb(33,33,33)" fill="none" stroke-linecap="round"></path><path d="M 495.500,203.500 C 493.000,203.500 493.000,203.500 490.500,203.500" stroke-width="16.069" stroke="rgb(33,33,33)" fill="none" stroke-linecap="round"></path><path d="M 490.500,203.500 C 488.500,203.500 488.500,203.500 486.500,203.500" stroke-width="16.132" stroke="rgb(33,33,33)" fill="none" stroke-linecap="round"></path><path d="M 486.500,203.500 C 484.500,203.500 484.500,203.500 482.500,203.500" stroke-width="16.146" stroke="rgb(33,33,33)" fill="none" stroke-linecap="round"></path><path d="M 482.500,203.500 C 480.500,203.500 480.500,203.500 478.500,203.500" stroke-width="16.229" stroke="rgb(33,33,33)" fill="none" stroke-linecap="round"></path><path d="M 478.500,203.500 C 476.000,203.500 476.000,203.500 473.500,203.500" stroke-width="16.151" stroke="rgb(33,33,33)" fill="none" stroke-linecap="round"></path><path d="M 473.500,203.500 C 472.000,203.500 472.000,203.500 470.500,203.500" stroke-width="16.353" stroke="rgb(33,33,33)" fill="none" stroke-linecap="round"></path><path d="M 470.500,203.500 C 469.000,203.500 469.000,203.500 467.500,203.500" stroke-width="16.518" stroke="rgb(33,33,33)" fill="none" stroke-linecap="round"></path><path d="M 467.500,203.500 C 466.500,203.500 466.500,203.500 465.500,203.500" stroke-width="16.833" stroke="rgb(33,33,33)" fill="none" stroke-linecap="round"></path><path d="M 465.500,203.500 C 464.000,203.500 464.000,203.500 462.500,203.500" stroke-width="16.908" stroke="rgb(33,33,33)" fill="none" stroke-linecap="round"></path><path d="M 462.500,203.500 C 460.500,203.500 460.500,203.500 458.500,203.500" stroke-width="16.839" stroke="rgb(33,33,33)" fill="none" stroke-linecap="round"></path><path d="M 458.500,203.500 C 456.500,203.500 456.500,203.500 454.500,203.500" stroke-width="16.748" stroke="rgb(33,33,33)" fill="none" stroke-linecap="round"></path><path d="M 454.500,203.500 C 452.500,203.500 452.500,203.500 450.500,203.500" stroke-width="16.711" stroke="rgb(33,33,33)" fill="none" stroke-linecap="round"></path><path d="M 450.500,203.500 C 449.000,203.500 449.000,203.500 447.500,203.500" stroke-width="16.809" stroke="rgb(33,33,33)" fill="none" stroke-linecap="round"></path><path d="M 447.500,203.500 C 446.000,203.500 446.000,203.500 444.500,203.500" stroke-width="16.888" stroke="rgb(33,33,33)" fill="none" stroke-linecap="round"></path><path d="M 444.500,203.500 C 443.500,203.500 443.480,203.663 442.500,203.500" stroke-width="17.121" stroke="rgb(33,33,33)" fill="none" stroke-linecap="round"></path><path d="M 442.500,203.500 C 440.480,203.163 440.526,202.789 438.500,202.500" stroke-width="16.988" stroke="rgb(33,33,33)" fill="none" stroke-linecap="round"></path><path d="M 438.500,202.500 C 437.026,202.289 437.000,202.500 435.500,202.500" stroke-width="17.086" stroke="rgb(33,33,33)" fill="none" stroke-linecap="round"></path><path d="M 435.500,202.500 C 433.000,202.500 433.000,202.500 430.500,202.500" stroke-width="16.726" stroke="rgb(33,33,33)" fill="none" stroke-linecap="round"></path><path d="M 430.500,202.500 C 428.500,202.500 428.500,202.500 426.500,202.500" stroke-width="16.659" stroke="rgb(33,33,33)" fill="none" stroke-linecap="round"></path><path d="M 426.500,202.500 C 425.000,202.500 425.000,202.500 423.500,202.500" stroke-width="16.767" stroke="rgb(33,33,33)" fill="none" stroke-linecap="round"></path><path d="M 423.500,202.500 C 422.500,202.500 422.500,202.500 421.500,202.500" stroke-width="17.021" stroke="rgb(33,33,33)" fill="none" stroke-linecap="round"></path><path d="M 421.500,202.500 C 420.000,202.500 420.000,202.500 418.500,202.500" stroke-width="17.059" stroke="rgb(33,33,33)" fill="none" stroke-linecap="round"></path><path d="M 418.500,202.500 C 417.000,202.500 417.000,202.500 415.500,202.500" stroke-width="17.089" stroke="rgb(33,33,33)" fill="none" stroke-linecap="round"></path><path d="M 415.500,202.500 C 413.500,202.500 413.500,202.500 411.500,202.500" stroke-width="16.945" stroke="rgb(33,33,33)" fill="none" stroke-linecap="round"></path><path d="M 411.500,202.500 C 408.500,202.500 408.500,202.500 405.500,202.500" stroke-width="16.562" stroke="rgb(33,33,33)" fill="none" stroke-linecap="round"></path><path d="M 405.500,202.500 C 403.500,202.500 403.500,202.500 401.500,202.500" stroke-width="16.563" stroke="rgb(33,33,33)" fill="none" stroke-linecap="round"></path><path d="M 401.500,202.500 C 400.000,202.500 400.000,202.500 398.500,202.500" stroke-width="16.689" stroke="rgb(33,33,33)" fill="none" stroke-linecap="round"></path><path d="M 398.500,202.500 C 397.000,202.500 397.000,202.500 395.500,202.500" stroke-width="16.791" stroke="rgb(33,33,33)" fill="none" stroke-linecap="round"></path><path d="M 395.500,202.500 C 393.000,202.500 393.000,202.500 390.500,202.500" stroke-width="16.594" stroke="rgb(33,33,33)" fill="none" stroke-linecap="round"></path><path d="M 390.500,202.500 C 388.500,202.500 388.500,202.500 386.500,202.500" stroke-width="16.553" stroke="rgb(33,33,33)" fill="none" stroke-linecap="round"></path><path d="M 386.500,202.500 C 384.000,202.500 384.000,202.500 381.500,202.500" stroke-width="16.364" stroke="rgb(33,33,33)" fill="none" stroke-linecap="round"></path><path d="M 381.500,202.500 C 378.500,202.500 378.500,202.500 375.500,202.500" stroke-width="16.114" stroke="rgb(33,33,33)" fill="none" stroke-linecap="round"></path><path d="M 375.500,202.500 C 372.500,202.500 372.500,202.500 369.500,202.500" stroke-width="15.871" stroke="rgb(33,33,33)" fill="none" stroke-linecap="round"></path><path d="M 369.500,202.500 C 366.500,202.500 366.500,202.500 363.500,202.500" stroke-width="15.729" stroke="rgb(33,33,33)" fill="none" stroke-linecap="round"></path><path d="M 363.500,202.500 C 361.000,202.500 361.000,202.500 358.500,202.500" stroke-width="15.713" stroke="rgb(33,33,33)" fill="none" stroke-linecap="round"></path><path d="M 358.500,202.500 C 356.000,202.500 356.000,202.500 353.500,202.500" stroke-width="15.700" stroke="rgb(33,33,33)" fill="none" stroke-linecap="round"></path><path d="M 353.500,202.500 C 351.500,202.500 351.500,202.500 349.500,202.500" stroke-width="15.834" stroke="rgb(33,33,33)" fill="none" stroke-linecap="round"></path><path d="M 349.500,202.500 C 346.500,202.500 346.500,202.500 343.500,202.500" stroke-width="15.700" stroke="rgb(33,33,33)" fill="none" stroke-linecap="round"></path><path d="M 343.500,202.500 C 341.000,202.500 341.000,202.500 338.500,202.500" stroke-width="15.690" stroke="rgb(33,33,33)" fill="none" stroke-linecap="round"></path><path d="M 338.500,202.500 C 336.000,202.500 336.000,202.500 333.500,202.500" stroke-width="15.721" stroke="rgb(33,33,33)" fill="none" stroke-linecap="round"></path><path d="M 333.500,202.500 C 330.500,202.500 330.500,202.500 327.500,202.500" stroke-width="15.611" stroke="rgb(33,33,33)" fill="none" stroke-linecap="round"></path><path d="M 327.500,202.500 C 325.500,202.500 325.500,202.500 323.500,202.500" stroke-width="15.762" stroke="rgb(33,33,33)" fill="none" stroke-linecap="round"></path><path d="M 323.500,202.500 C 321.000,202.500 320.981,202.274 318.500,202.500" stroke-width="15.779" stroke="rgb(33,33,33)" fill="none" stroke-linecap="round"></path><path d="M 318.500,202.500 C 315.481,202.774 315.521,203.248 312.500,203.500" stroke-width="15.598" stroke="rgb(33,33,33)" fill="none" stroke-linecap="round"></path><path d="M 312.500,203.500 C 309.521,203.748 309.500,203.500 306.500,203.500" stroke-width="15.468" stroke="rgb(33,33,33)" fill="none" stroke-linecap="round"></path><path d="M 306.500,203.500 C 305.000,203.500 305.000,203.500 303.500,203.500" stroke-width="15.788" stroke="rgb(33,33,33)" fill="none" stroke-linecap="round"></path><path d="M 303.500,203.500 C 302.000,203.500 302.000,203.500 300.500,203.500" stroke-width="16.053" stroke="rgb(33,33,33)" fill="none" stroke-linecap="round"></path><path d="M 300.500,203.500 C 300.000,203.500 299.333,203.500 299.500,203.500" stroke-width="16.586" stroke="rgb(33,33,33)" fill="none" stroke-linecap="round"></path><path d="M 299.500,203.500 C 299.833,203.500 300.500,203.500 301.500,203.500" stroke-width="17.155" stroke="rgb(33,33,33)" fill="none" stroke-linecap="round"></path><path d="M 301.500,203.500 C 303.500,203.500 303.500,203.500 305.500,203.500" stroke-width="17.034" stroke="rgb(33,33,33)" fill="none" stroke-linecap="round"></path><path d="M 305.500,203.500 C 310.000,203.500 310.012,203.264 314.500,203.500" stroke-width="16.111" stroke="rgb(33,33,33)" fill="none" stroke-linecap="round"></path><path d="M 314.500,203.500 C 319.512,203.764 319.488,204.236 324.500,204.500" stroke-width="15.374" stroke="rgb(33,33,33)" fill="none" stroke-linecap="round"></path><path d="M 324.500,204.500 C 328.988,204.736 329.000,204.500 333.500,204.500" stroke-width="14.894" stroke="rgb(33,33,33)" fill="none" stroke-linecap="round"></path><path d="M 333.500,204.500 C 337.000,204.500 337.000,204.500 340.500,204.500" stroke-width="14.780" stroke="rgb(33,33,33)" fill="none" stroke-linecap="round"></path><path d="M 340.500,204.500 C 344.500,204.500 344.829,205.647 348.500,204.500" stroke-width="14.567" stroke="rgb(33,33,33)" fill="none" stroke-linecap="round"></path><path d="M 348.500,204.500 C 352.829,203.147 352.577,202.115 356.500,199.500" stroke-width="14.291" stroke="rgb(33,33,33)" fill="none" stroke-linecap="round"></path><path d="M 356.500,199.500 C 360.077,197.115 360.494,197.506 363.500,194.500" stroke-width="14.114" stroke="rgb(33,33,33)" fill="none" stroke-linecap="round"></path><path d="M 363.500,194.500 C 366.994,191.006 366.278,190.308 369.500,186.500" stroke-width="13.936" stroke="rgb(33,33,33)" fill="none" stroke-linecap="round"></path><path d="M 369.500,186.500 C 371.778,183.808 372.113,184.104 374.500,181.500" stroke-width="13.957" stroke="rgb(33,33,33)" fill="none" stroke-linecap="round"></path><path d="M 374.500,181.500 C 377.613,178.104 377.522,178.019 380.500,174.500" stroke-width="13.840" stroke="rgb(33,33,33)" fill="none" stroke-linecap="round"></path><path d="M 380.500,174.500 C 383.022,171.519 383.027,171.522 385.500,168.500" stroke-width="13.847" stroke="rgb(33,33,33)" fill="none" stroke-linecap="round"></path><path d="M 385.500,168.500 C 387.527,166.022 387.647,166.094 389.500,163.500" stroke-width="13.966" stroke="rgb(33,33,33)" fill="none" stroke-linecap="round"></path><path d="M 389.500,163.500 C 390.147,162.594 390.000,162.500 390.500,161.500" stroke-width="14.623" stroke="rgb(33,33,33)" fill="none" stroke-linecap="round"></path><path d="M 390.500,161.500 C 391.000,160.500 391.500,159.148 391.500,159.500" stroke-width="15.178" stroke="rgb(33,33,33)" fill="none" stroke-linecap="round"></path><path d="M 391.500,159.500 C 391.500,160.148 391.066,161.518 390.500,163.500" stroke-width="15.792" stroke="rgb(33,33,33)" fill="none" stroke-linecap="round"></path><path d="M 390.500,163.500 C 389.066,168.518 388.655,168.420 387.500,173.500" stroke-width="15.015" stroke="rgb(33,33,33)" fill="none" stroke-linecap="round"></path><path d="M 387.500,173.500 C 386.155,179.420 386.003,179.459 385.500,185.500" stroke-width="14.240" stroke="rgb(33,33,33)" fill="none" stroke-linecap="round"></path><path d="M 385.500,185.500 C 385.003,191.459 383.864,192.045 385.500,197.500" stroke-width="13.766" stroke="rgb(33,33,33)" fill="none" stroke-linecap="round"></path><path d="M 385.500,197.500 C 386.864,202.045 387.584,202.736 391.500,205.500" stroke-width="13.550" stroke="rgb(33,33,33)" fill="none" stroke-linecap="round"></path><path d="M 391.500,205.500 C 396.084,208.736 396.778,208.606 402.500,209.500" stroke-width="13.273" stroke="rgb(33,33,33)" fill="none" stroke-linecap="round"></path><path d="M 402.500,209.500 C 412.778,211.106 413.024,210.911 423.500,210.500" stroke-width="12.142" stroke="rgb(33,33,33)" fill="none" stroke-linecap="round"></path><path d="M 423.500,210.500 C 438.524,209.911 438.685,210.087 453.500,207.500" stroke-width="10.833" stroke="rgb(33,33,33)" fill="none" stroke-linecap="round"></path><path d="M 453.500,207.500 C 470.185,204.587 470.149,204.042 486.500,199.500" stroke-width="9.666" stroke="rgb(33,33,33)" fill="none" stroke-linecap="round"></path><path d="M 486.500,199.500 C 506.149,194.042 506.186,194.037 525.500,187.500" stroke-width="8.595" stroke="rgb(33,33,33)" fill="none" stroke-linecap="round"></path><path d="M 525.500,187.500 C 538.686,183.037 538.908,183.336 551.500,177.500" stroke-width="8.458" stroke="rgb(33,33,33)" fill="none" stroke-linecap="round"></path><path d="M 551.500,177.500 C 559.408,173.836 559.052,173.084 566.500,168.500" stroke-width="8.806" stroke="rgb(33,33,33)" fill="none" stroke-linecap="round"></path><path d="M 566.500,168.500 C 572.052,165.084 572.351,165.438 577.500,161.500" stroke-width="9.234" stroke="rgb(33,33,33)" fill="none" stroke-linecap="round"></path><path d="M 577.500,161.500 C 580.851,158.938 580.272,158.231 583.500,155.500" stroke-width="9.828" stroke="rgb(33,33,33)" fill="none" stroke-linecap="round"></path><path d="M 583.500,155.500 C 586.772,152.731 586.977,152.966 590.500,150.500" stroke-width="10.417" stroke="rgb(33,33,33)" fill="none" stroke-linecap="round"></path><path d="M 590.500,150.500 C 591.977,149.466 592.326,149.674 593.500,148.500" stroke-width="11.248" stroke="rgb(33,33,33)" fill="none" stroke-linecap="round"></path><path d="M 593.500,148.500 C 593.826,148.174 593.500,147.500 593.500,147.500" stroke-width="12.258" stroke="rgb(33,33,33)" fill="none" stroke-linecap="round"></path><path d="M 593.500,147.500 C 593.500,147.500 593.721,148.057 593.500,148.500" stroke-width="13.246" stroke="rgb(33,33,33)" fill="none" stroke-linecap="round"></path><path d="M 593.500,148.500 C 591.221,153.057 590.874,152.934 588.500,157.500" stroke-width="13.172" stroke="rgb(33,33,33)" fill="none" stroke-linecap="round"></path><path d="M 588.500,157.500 C 584.374,165.434 584.765,165.643 580.500,173.500" stroke-width="12.345" stroke="rgb(33,33,33)" fill="none" stroke-linecap="round"></path><path d="M 580.500,173.500 C 575.265,183.143 574.397,182.707 569.500,192.500" stroke-width="11.437" stroke="rgb(33,33,33)" fill="none" stroke-linecap="round"></path><path d="M 569.500,192.500 C 565.897,199.707 565.593,199.825 563.500,207.500" stroke-width="11.209" stroke="rgb(33,33,33)" fill="none" stroke-linecap="round"></path><path d="M 563.500,207.500 C 562.593,210.825 562.625,211.292 563.500,214.500" stroke-width="11.781" stroke="rgb(33,33,33)" fill="none" stroke-linecap="round"></path><path d="M 563.500,214.500 C 564.125,216.792 564.220,217.957 566.500,218.500" stroke-width="12.393" stroke="rgb(33,33,33)" fill="none" stroke-linecap="round"></path><path d="M 566.500,218.500 C 574.720,220.457 575.493,219.178 584.500,219.500" stroke-width="11.778" stroke="rgb(33,33,33)" fill="none" stroke-linecap="round"></path><path d="M 584.500,219.500 C 603.493,220.178 603.655,221.988 622.500,220.500" stroke-width="10.012" stroke="rgb(33,33,33)" fill="none" stroke-linecap="round"></path><path d="M 622.500,220.500 C 641.655,218.988 641.674,217.767 660.500,213.500" stroke-width="8.910" stroke="rgb(33,33,33)" fill="none" stroke-linecap="round"></path><path d="M 660.500,213.500 C 679.174,209.267 679.741,210.307 697.500,203.500" stroke-width="8.286" stroke="rgb(33,33,33)" fill="none" stroke-linecap="round"></path><path d="M 697.500,203.500 C 709.741,198.807 710.710,198.891 720.500,190.500" stroke-width="8.147" stroke="rgb(33,33,33)" fill="none" stroke-linecap="round"></path><path d="M 720.500,190.500 C 728.210,183.891 729.119,182.722 732.500,173.500" stroke-width="8.369" stroke="rgb(33,33,33)" fill="none" stroke-linecap="round"></path><path d="M 732.500,173.500 C 734.619,167.722 733.168,166.696 731.500,160.500" stroke-width="8.846" stroke="rgb(33,33,33)" fill="none" stroke-linecap="round"></path><path d="M 731.500,160.500 C 729.668,153.696 729.264,153.522 725.500,147.500" stroke-width="9.245" stroke="rgb(33,33,33)" fill="none" stroke-linecap="round"></path><path d="M 725.500,147.500 C 721.764,141.522 721.380,141.637 716.500,136.500" stroke-width="9.554" stroke="rgb(33,33,33)" fill="none" stroke-linecap="round"></path><path d="M 716.500,136.500 C 711.880,131.637 711.958,131.366 706.500,127.500" stroke-width="9.860" stroke="rgb(33,33,33)" fill="none" stroke-linecap="round"></path><path d="M 706.500,127.500 C 699.958,122.866 699.784,122.838 692.500,119.500" stroke-width="9.962" stroke="rgb(33,33,33)" fill="none" stroke-linecap="round"></path><path d="M 692.500,119.500 C 687.784,117.338 687.608,117.429 682.500,116.500" stroke-width="10.426" stroke="rgb(33,33,33)" fill="none" stroke-linecap="round"></path><path d="M 682.500,116.500 C 676.608,115.429 676.088,114.230 670.500,115.500" stroke-width="10.683" stroke="rgb(33,33,33)" fill="none" stroke-linecap="round"></path><path d="M 670.500,115.500 C 665.088,116.730 664.839,117.681 660.500,121.500" stroke-width="10.925" stroke="rgb(33,33,33)" fill="none" stroke-linecap="round"></path><path d="M 660.500,121.500 C 652.339,128.681 651.858,128.638 645.500,137.500" stroke-width="10.511" stroke="rgb(33,33,33)" fill="none" stroke-linecap="round"></path><path d="M 645.500,137.500 C 635.358,151.638 635.088,151.819 627.500,167.500" stroke-width="9.406" stroke="rgb(33,33,33)" fill="none" stroke-linecap="round"></path><path d="M 627.500,167.500 C 620.088,182.819 619.977,183.084 615.500,199.500" stroke-width="8.797" stroke="rgb(33,33,33)" fill="none" stroke-linecap="round"></path><path d="M 615.500,199.500 C 610.977,216.084 611.897,216.421 609.500,233.500" stroke-width="8.350" stroke="rgb(33,33,33)" fill="none" stroke-linecap="round"></path><path d="M 609.500,233.500 C 607.897,244.921 608.076,244.982 607.500,256.500" stroke-width="8.396" stroke="rgb(33,33,33)" fill="none" stroke-linecap="round"></path><path d="M 607.500,256.500 C 607.076,264.982 607.500,265.000 607.500,273.500" stroke-width="8.693" stroke="rgb(33,33,33)" fill="none" stroke-linecap="round"></path><path d="M 607.500,273.500 C 607.500,278.000 607.500,278.000 607.500,282.500" stroke-width="9.360" stroke="rgb(33,33,33)" fill="none" stroke-linecap="round"></path><path d="M 607.500,282.500 C 607.500,285.500 607.500,285.500 607.500,288.500" stroke-width="10.118" stroke="rgb(33,33,33)" fill="none" stroke-linecap="round"></path></svg>