<svg xmlns="http://www.w3.org/2000/svg" xmlns:xlink="http://www.w3.org/1999/xlink" viewBox="0 0 800 500"><path d="M 310.500,207.500 C 312.500,207.000 312.546,207.151 314.500,206.500" stroke-width="19.124" stroke="rgb(33,33,33)" fill="none" stroke-linecap="round"></path><path d="M 314.500,206.500 C 321.546,204.151 321.167,202.187 328.500,201.500" stroke-width="11.310" stroke="rgb(33,33,33)" fill="none" stroke-linecap="round"></path><path d="M 328.500,201.500 C 353.167,199.187 353.498,200.816 378.500,200.500" stroke-width="10.643" stroke="rgb(33,33,33)" fill="none" stroke-linecap="round"></path><path d="M 378.500,200.500 C 392.998,200.316 393.007,200.210 407.500,200.500" stroke-width="7.939" stroke="rgb(33,33,33)" fill="none" stroke-linecap="round"></path><path d="M 407.500,200.500 C 418.007,200.710 418.078,200.274 428.500,201.500" stroke-width="7.127" stroke="rgb(33,33,33)" fill="none" stroke-linecap="round"></path><path d="M 428.500,201.500 C 443.578,203.274 443.426,204.896 458.500,206.500" stroke-width="6.750" stroke="rgb(33,33,33)" fill="none" stroke-linecap="round"></path><path d="M 458.500,206.500 C 466.926,207.396 467.064,207.303 475.500,206.500" stroke-width="6.750" stroke="rgb(33,33,33)" fill="none" stroke-linecap="round"></path><path d="M 475.500,206.500 C 488.064,205.303 487.928,203.593 500.500,202.500" stroke-width="6.750" stroke="rgb(33,33,33)" fill="none" stroke-linecap="round"></path><path d="M 500.500,202.500 C 510.928,201.593 511.000,202.500 521.500,202.500" stroke-width="6.750" stroke="rgb(33,33,33)" fill="none" stroke-linecap="round"></path><path d="M 521.500,202.500 C 530.000,202.500 530.078,203.290 538.500,202.500" stroke-width="6.760" stroke="rgb(33,33,33)" fill="none" stroke-linecap="round"></path><path d="M 538.500,202.500 C 546.078,201.790 545.924,200.233 553.500,199.500" stroke-width="6.977" stroke="rgb(33,33,33)" fill="none" stroke-linecap="round"></path><path d="M 553.500,199.500 C 561.424,198.733 561.500,199.500 569.500,199.500" stroke-width="7.261" stroke="rgb(33,33,33)" fill="none" stroke-linecap="round"></path><path d="M 569.500,199.500 C 573.000,199.500 573.103,200.137 576.500,199.500" stroke-width="7.697" stroke="rgb(33,33,33)" fill="none" stroke-linecap="round"></path><path d="M 576.500,199.500 C 581.103,198.637 580.905,197.581 585.500,196.500" stroke-width="8.222" stroke="rgb(33,33,33)" fill="none" stroke-linecap="round"></path><path d="M 585.500,196.500 C 589.405,195.581 589.530,196.162 593.500,195.500" stroke-width="8.538" stroke="rgb(33,33,33)" fill="none" stroke-linecap="round"></path><path d="M 593.500,195.500 C 595.530,195.162 595.638,195.245 597.500,194.500" stroke-width="9.289" stroke="rgb(33,33,33)" fill="none" stroke-linecap="round"></path><path d="M 597.500,194.500 C 598.138,194.245 598.000,194.000 598.500,193.500" stroke-width="10.302" stroke="rgb(33,33,33)" fill="none" stroke-linecap="round"></path><path d="M 598.500,193.500 C 599.000,193.000 599.500,192.793 599.500,192.500" stroke-width="11.169" stroke="rgb(33,33,33)" fill="none" stroke-linecap="round"></path><path d="M 599.500,192.500 C 599.500,192.293 598.934,192.717 598.500,192.500" stroke-width="12.240" stroke="rgb(33,33,33)" fill="none" stroke-linecap="round"></path><path d="M 598.500,192.500 C 596.934,191.717 597.062,191.393 595.500,190.500" stroke-width="12.743" stroke="rgb(33,33,33)" fill="none" stroke-linecap="round"></path><path d="M 595.500,190.500 C 593.562,189.393 593.211,189.900 591.500,188.500" stroke-width="12.893" stroke="rgb(33,33,33)" fill="none" stroke-linecap="round"></path><path d="M 591.500,188.500 C 587.711,185.400 588.000,185.000 584.500,181.500" stroke-width="12.374" stroke="rgb(33,33,33)" fill="none" stroke-linecap="round"></path><path d="M 584.500,181.500 C 577.000,174.000 577.000,174.000 569.500,166.500" stroke-width="11.032" stroke="rgb(33,33,33)" fill="none" stroke-linecap="round"></path><path d="M 569.500,166.500 C 565.000,162.000 565.450,161.460 560.500,157.500" stroke-width="9.965" stroke="rgb(33,33,33)" fill="none" stroke-linecap="round"></path><path d="M 560.500,157.500 C 552.950,151.460 552.179,152.407 544.500,146.500" stroke-width="8.971" stroke="rgb(33,33,33)" fill="none" stroke-linecap="round"></path><path d="M 544.500,146.500 C 539.179,142.407 540.071,141.019 534.500,137.500" stroke-width="9.152" stroke="rgb(33,33,33)" fill="none" stroke-linecap="round"></path><path d="M 534.500,137.500 C 530.571,135.019 529.511,136.792 525.500,134.500" stroke-width="9.174" stroke="rgb(33,33,33)" fill="none" stroke-linecap="round"></path><path d="M 525.500,134.500 C 522.511,132.792 523.149,131.818 520.500,129.500" stroke-width="9.718" stroke="rgb(33,33,33)" fill="none" stroke-linecap="round"></path><path d="M 520.500,129.500 C 519.149,128.318 518.652,128.862 517.500,127.500" stroke-width="10.279" stroke="rgb(33,33,33)" fill="none" stroke-linecap="round"></path><path d="M 517.500,127.500 C 513.152,122.362 513.919,121.599 509.500,116.500" stroke-width="10.111" stroke="rgb(33,33,33)" fill="none" stroke-linecap="round"></path><path d="M 509.500,116.500 C 507.419,114.099 507.060,114.420 504.500,112.500" stroke-width="10.414" stroke="rgb(33,33,33)" fill="none" stroke-linecap="round"></path><path d="M 504.500,112.500 C 501.060,109.920 500.516,110.516 497.500,107.500" stroke-width="10.591" stroke="rgb(33,33,33)" fill="none" stroke-linecap="round"></path><path d="M 497.500,107.500 C 492.516,102.516 492.759,102.178 488.500,96.500" stroke-width="10.056" stroke="rgb(33,33,33)" fill="none" stroke-linecap="round"></path><path d="M 488.500,96.500 C 485.259,92.178 485.732,91.810 482.500,87.500" stroke-width="9.988" stroke="rgb(33,33,33)" fill="none" stroke-linecap="round"></path><path d="M 482.500,87.500 C 481.232,85.810 481.084,85.908 479.500,84.500" stroke-width="10.568" stroke="rgb(33,33,33)" fill="none" stroke-linecap="round"></path><path d="M 479.500,84.500 C 476.584,81.908 476.610,81.832 473.500,79.500" stroke-width="10.869" stroke="rgb(33,33,33)" fill="none" stroke-linecap="round"></path><path d="M 473.500,79.500 C 472.610,78.832 472.121,79.328 471.500,78.500" stroke-width="11.637" stroke="rgb(33,33,33)" fill="none" stroke-linecap="round"></path><path d="M 471.500,78.500 C 470.621,77.328 471.379,76.672 470.500,75.500" stroke-width="12.275" stroke="rgb(33,33,33)" fill="none" stroke-linecap="round"></path><path d="M 470.500,75.500 C 469.879,74.672 469.536,74.845 468.500,74.500" stroke-width="12.852" stroke="rgb(33,33,33)" fill="none" stroke-linecap="round"></path><path d="M 468.500,74.500 C 468.036,74.345 467.750,74.250 467.500,74.500" stroke-width="13.775" stroke="rgb(33,33,33)" fill="none" stroke-linecap="round"></path><path d="M 467.500,74.500 C 467.250,74.750 467.500,75.000 467.500,75.500" stroke-width="14.674" stroke="rgb(33,33,33)" fill="none" stroke-linecap="round"></path><path d="M 467.500,75.500 C 467.500,76.500 467.678,76.520 467.500,77.500" stroke-width="15.067" stroke="rgb(33,33,33)" fill="none" stroke-linecap="round"></path><path d="M 467.500,77.500 C 466.678,82.020 466.568,82.016 465.500,86.500" stroke-width="14.035" stroke="rgb(33,33,33)" fill="none" stroke-linecap="round"></path><path d="M 465.500,86.500 C 464.068,92.516 463.341,92.399 462.500,98.500" stroke-width="12.643" stroke="rgb(33,33,33)" fill="none" stroke-linecap="round"></path><path d="M 462.500,98.500 C 461.341,106.899 461.774,106.993 461.500,115.500" stroke-width="11.115" stroke="rgb(33,33,33)" fill="none" stroke-linecap="round"></path><path d="M 461.500,115.500 C 461.274,122.493 461.500,122.500 461.500,129.500" stroke-width="10.451" stroke="rgb(33,33,33)" fill="none" stroke-linecap="round"></path><path d="M 461.500,129.500 C 461.500,143.500 462.657,143.615 461.500,157.500" stroke-width="8.766" stroke="rgb(33,33,33)" fill="none" stroke-linecap="round"></path><path d="M 461.500,157.500 C 460.657,167.615 458.440,167.395 457.500,177.500" stroke-width="8.096" stroke="rgb(33,33,33)" fill="none" stroke-linecap="round"></path><path d="M 457.500,177.500 C 456.440,188.895 457.500,189.000 457.500,200.500" stroke-width="7.731" stroke="rgb(33,33,33)" fill="none" stroke-linecap="round"></path><path d="M 457.500,200.500 C 457.500,210.000 457.500,210.000 457.500,219.500" stroke-width="7.451" stroke="rgb(33,33,33)" fill="none" stroke-linecap="round"></path><path d="M 457.500,219.500 C 457.500,230.000 457.500,230.000 457.500,240.500" stroke-width="7.573" stroke="rgb(33,33,33)" fill="none" stroke-linecap="round"></path><path d="M 457.500,240.500 C 457.500,248.000 457.500,248.000 457.500,255.500" stroke-width="7.132" stroke="rgb(33,33,33)" fill="none" stroke-linecap="round"></path><path d="M 457.500,255.500 C 457.500,264.000 458.515,264.125 457.500,272.500" stroke-width="7.351" stroke="rgb(33,33,33)" fill="none" stroke-linecap="round"></path><path d="M 457.500,272.500 C 456.515,280.625 454.547,280.383 453.500,288.500" stroke-width="7.310" stroke="rgb(33,33,33)" fill="none" stroke-linecap="round"></path><path d="M 453.500,288.500 C 452.547,295.883 453.500,296.000 453.500,303.500" stroke-width="7.531" stroke="rgb(33,33,33)" fill="none" stroke-linecap="round"></path><path d="M 453.500,303.500 C 453.500,313.000 452.669,313.082 453.500,322.500" stroke-width="7.302" stroke="rgb(33,33,33)" fill="none" stroke-linecap="round"></path><path d="M 453.500,322.500 C 454.169,330.082 455.659,329.935 456.500,337.500" stroke-width="7.509" stroke="rgb(33,33,33)" fill="none" stroke-linecap="round"></path><path d="M 456.500,337.500 C 457.159,343.435 456.500,343.500 456.500,349.500" stroke-width="7.796" stroke="rgb(33,33,33)" fill="none" stroke-linecap="round"></path><path d="M 456.500,349.500 C 456.500,355.000 455.695,355.131 456.500,360.500" stroke-width="8.107" stroke="rgb(33,33,33)" fill="none" stroke-linecap="round"></path><path d="M 456.500,360.500 C 457.195,365.131 458.000,365.000 459.500,369.500" stroke-width="8.479" stroke="rgb(33,33,33)" fill="none" stroke-linecap="round"></path><path d="M 459.500,369.500 C 460.000,371.000 460.120,370.981 460.500,372.500" stroke-width="9.340" stroke="rgb(33,33,33)" fill="none" stroke-linecap="round"></path><path d="M 460.500,372.500 C 460.620,372.981 460.750,373.250 460.500,373.500" stroke-width="10.335" stroke="rgb(33,33,33)" fill="none" stroke-linecap="round"></path><path d="M 460.500,373.500 C 460.250,373.750 460.000,373.500 459.500,373.500" stroke-width="11.398" stroke="rgb(33,33,33)" fill="none" stroke-linecap="round"></path><path d="M 459.500,373.500 C 458.000,373.500 457.465,374.465 456.500,373.500" stroke-width="11.997" stroke="rgb(33,33,33)" fill="none" stroke-linecap="round"></path><path d="M 456.500,373.500 C 453.465,370.465 454.259,369.294 451.500,365.500" stroke-width="11.760" stroke="rgb(33,33,33)" fill="none" stroke-linecap="round"></path><path d="M 451.500,365.500 C 450.259,363.794 450.000,364.000 448.500,362.500" stroke-width="12.028" stroke="rgb(33,33,33)" fill="none" stroke-linecap="round"></path><path d="M 448.500,362.500 C 446.500,360.500 446.223,360.716 444.500,358.500" stroke-width="12.275" stroke="rgb(33,33,33)" fill="none" stroke-linecap="round"></path><path d="M 444.500,358.500 C 442.723,356.216 442.268,356.264 441.500,353.500" stroke-width="12.278" stroke="rgb(33,33,33)" fill="none" stroke-linecap="round"></path><path d="M 441.500,353.500 C 439.768,347.264 441.029,346.872 439.500,340.500" stroke-width="11.647" stroke="rgb(33,33,33)" fill="none" stroke-linecap="round"></path><path d="M 439.500,340.500 C 438.029,334.372 436.933,334.592 435.500,328.500" stroke-width="10.982" stroke="rgb(33,33,33)" fill="none" stroke-linecap="round"></path><path d="M 435.500,328.500 C 434.933,326.092 435.500,326.000 435.500,323.500" stroke-width="11.337" stroke="rgb(33,33,33)" fill="none" stroke-linecap="round"></path><path d="M 435.500,323.500 C 435.500,321.000 435.748,320.975 435.500,318.500" stroke-width="11.637" stroke="rgb(33,33,33)" fill="none" stroke-linecap="round"></path><path d="M 435.500,318.500 C 435.248,315.975 435.364,315.875 434.500,313.500" stroke-width="12.163" stroke="rgb(33,33,33)" fill="none" stroke-linecap="round"></path><path d="M 434.500,313.500 C 433.364,310.375 433.000,310.500 431.500,307.500" stroke-width="11.749" stroke="rgb(33,33,33)" fill="none" stroke-linecap="round"></path><path d="M 431.500,307.500 C 427.500,299.500 427.500,299.500 423.500,291.500" stroke-width="10.788" stroke="rgb(33,33,33)" fill="none" stroke-linecap="round"></path><path d="M 423.500,291.500 C 419.500,283.500 419.880,283.287 415.500,275.500" stroke-width="9.424" stroke="rgb(33,33,33)" fill="none" stroke-linecap="round"></path><path d="M 415.500,275.500 C 410.880,267.287 410.444,267.534 405.500,259.500" stroke-width="8.952" stroke="rgb(33,33,33)" fill="none" stroke-linecap="round"></path><path d="M 405.500,259.500 C 402.444,254.534 402.211,254.650 399.500,249.500" stroke-width="9.114" stroke="rgb(33,33,33)" fill="none" stroke-linecap="round"></path><path d="M 399.500,249.500 C 397.211,245.150 397.700,244.900 395.500,240.500" stroke-width="9.220" stroke="rgb(33,33,33)" fill="none" stroke-linecap="round"></path><path d="M 395.500,240.500 C 393.200,235.900 393.109,235.936 390.500,231.500" stroke-width="9.444" stroke="rgb(33,33,33)" fill="none" stroke-linecap="round"></path><path d="M 390.500,231.500 C 388.109,227.436 388.032,227.479 385.500,223.500" stroke-width="9.529" stroke="rgb(33,33,33)" fill="none" stroke-linecap="round"></path><path d="M 385.500,223.500 C 381.032,216.479 381.432,216.172 376.500,209.500" stroke-width="8.921" stroke="rgb(33,33,33)" fill="none" stroke-linecap="round"></path><path d="M 376.500,209.500 C 372.932,204.672 372.399,205.087 368.500,200.500" stroke-width="9.255" stroke="rgb(33,33,33)" fill="none" stroke-linecap="round"></path><path d="M 368.500,200.500 C 363.899,195.087 363.861,195.107 359.500,189.500" stroke-width="8.594" stroke="rgb(33,33,33)" fill="none" stroke-linecap="round"></path><path d="M 359.500,189.500 C 356.861,186.107 357.722,184.843 354.500,182.500" stroke-width="9.034" stroke="rgb(33,33,33)" fill="none" stroke-linecap="round"></path><path d="M 354.500,182.500 C 352.222,180.843 351.244,182.598 348.500,181.500" stroke-width="9.439" stroke="rgb(33,33,33)" fill="none" stroke-linecap="round"></path><path d="M 348.500,181.500 C 346.244,180.598 346.688,179.438 344.500,178.500" stroke-width="10.089" stroke="rgb(33,33,33)" fill="none" stroke-linecap="round"></path><path d="M 344.500,178.500 C 343.188,177.938 342.913,178.924 341.500,178.500" stroke-width="10.854" stroke="rgb(33,33,33)" fill="none" stroke-linecap="round"></path><path d="M 341.500,178.500 C 337.913,177.424 338.136,176.339 334.500,175.500" stroke-width="11.059" stroke="rgb(33,33,33)" fill="none" stroke-linecap="round"></path><path d="M 334.500,175.500 C 331.636,174.839 331.479,175.748 328.500,175.500" stroke-width="11.346" stroke="rgb(33,33,33)" fill="none" stroke-linecap="round"></path><path d="M 328.500,175.500 C 325.479,175.248 325.524,174.716 322.500,174.500" stroke-width="11.575" stroke="rgb(33,33,33)" fill="none" stroke-linecap="round"></path><path d="M 322.500,174.500 C 318.524,174.216 318.442,174.858 314.500,174.500" stroke-width="11.393" stroke="rgb(33,33,33)" fill="none" stroke-linecap="round"></path><path d="M 314.500,174.500 C 312.942,174.358 313.031,173.806 311.500,173.500" stroke-width="12.147" stroke="rgb(33,33,33)" fill="none" stroke-linecap="round"></path><path d="M 311.500,173.500 C 310.531,173.306 310.500,173.500 309.500,173.500" stroke-width="12.787" stroke="rgb(33,33,33)" fill="none" stroke-linecap="round"></path><path d="M 309.500,173.500 C 309.000,173.500 309.000,173.500 308.500,173.500" stroke-width="13.619" stroke="rgb(33,33,33)" fill="none" stroke-linecap="round"></path><path d="M 308.500,173.500 C 307.500,173.500 307.379,173.793 306.500,173.500" stroke-width="14.067" stroke="rgb(33,33,33)" fill="none" stroke-linecap="round"></path><path d="M 306.500,173.500 C 305.879,173.293 305.793,173.086 305.500,172.500" stroke-width="14.725" stroke="rgb(33,33,33)" fill="none" stroke-linecap="round"></path><path d="M 305.500,172.500 C 305.293,172.086 305.809,171.809 305.500,171.500" stroke-width="15.360" stroke="rgb(33,33,33)" fill="none" stroke-linecap="round"></path><path d="M 305.500,171.500 C 304.809,170.809 304.250,171.250 303.500,170.500" stroke-width="15.525" stroke="rgb(33,33,33)" fill="none" stroke-linecap="round"></path><path d="M 303.500,170.500 C 302.750,169.750 303.000,169.500 302.500,168.500" stroke-width="15.584" stroke="rgb(33,33,33)" fill="none" stroke-linecap="round"></path><path d="M 302.500,168.500 C 302.000,167.500 301.845,167.536 301.500,166.500" stroke-width="15.896" stroke="rgb(33,33,33)" fill="none" stroke-linecap="round"></path><path d="M 301.500,166.500 C 301.345,166.036 301.717,165.934 301.500,165.500" stroke-width="16.313" stroke="rgb(33,33,33)" fill="none" stroke-linecap="round"></path><path d="M 301.500,165.500 C 300.717,163.934 300.426,164.043 299.500,162.500" stroke-width="16.270" stroke="rgb(33,33,33)" fill="none" stroke-linecap="round"></path><path d="M 299.500,162.500 C 298.926,161.543 299.191,161.191 298.500,160.500" stroke-width="15.757" stroke="rgb(33,33,33)" fill="none" stroke-linecap="round"></path><path d="M 298.500,160.500 C 298.191,160.191 297.681,160.923 297.500,160.500" stroke-width="16.248" stroke="rgb(33,33,33)" fill="none" stroke-linecap="round"></path><path d="M 297.500,160.500 C 296.181,157.423 296.819,156.577 295.500,153.500" stroke-width="14.903" stroke="rgb(33,33,33)" fill="none" stroke-linecap="round"></path><path d="M 295.500,153.500 C 295.319,153.077 295.000,153.500 294.500,153.500" stroke-width="15.548" stroke="rgb(33,33,33)" fill="none" stroke-linecap="round"></path><path d="M 294.500,153.500 C 294.000,153.500 294.000,153.500 293.500,153.500" stroke-width="15.983" stroke="rgb(33,33,33)" fill="none" stroke-linecap="round"></path><path d="M 293.500,153.500 C 293.000,153.500 292.750,153.750 292.500,153.500" stroke-width="16.416" stroke="rgb(33,33,33)" fill="none" stroke-linecap="round"></path><path d="M 292.500,153.500 C 292.250,153.250 292.500,153.000 292.500,152.500" stroke-width="16.748" stroke="rgb(33,33,33)" fill="none" stroke-linecap="round"></path><path d="M 292.500,152.500 C 292.500,152.000 292.695,151.954 292.500,151.500" stroke-width="17.104" stroke="rgb(33,33,33)" fill="none" stroke-linecap="round"></path><path d="M 292.500,151.500 C 291.195,148.454 290.655,148.581 289.500,145.500" stroke-width="17.310" stroke="rgb(33,33,33)" fill="none" stroke-linecap="round"></path><path d="M 289.500,145.500 C 289.155,144.581 289.500,144.500 289.500,143.500" stroke-width="13.184" stroke="rgb(33,33,33)" fill="none" stroke-linecap="round"></path><path d="M 289.500,143.500 C 289.500,143.000 289.500,143.000 289.500,142.500" stroke-width="13.995" stroke="rgb(33,33,33)" fill="none" stroke-linecap="round"></path><path d="M 289.500,142.500 C 289.500,142.000 289.500,142.000 289.500,141.500" stroke-width="14.839" stroke="rgb(33,33,33)" fill="none" stroke-linecap="round"></path><path d="M 289.500,141.500 C 289.500,141.000 289.125,140.625 289.500,140.500" stroke-width="15.653" stroke="rgb(33,33,33)" fill="none" stroke-linecap="round"></path><path d="M 289.500,140.500 C 290.625,140.125 291.178,141.088 292.500,140.500" stroke-width="16.308" stroke="rgb(33,33,33)" fill="none" stroke-linecap="round"></path><path d="M 292.500,140.500 C 295.678,139.088 295.395,138.326 298.500,136.500" stroke-width="15.416" stroke="rgb(33,33,33)" fill="none" stroke-linecap="round"></path><path d="M 298.500,136.500 C 303.895,133.326 303.741,132.856 309.500,130.500" stroke-width="12.947" stroke="rgb(33,33,33)" fill="none" stroke-linecap="round"></path><path d="M 309.500,130.500 C 314.741,128.356 315.149,129.426 320.500,127.500" stroke-width="12.209" stroke="rgb(33,33,33)" fill="none" stroke-linecap="round"></path><path d="M 320.500,127.500 C 327.649,124.926 327.176,123.331 334.500,121.500" stroke-width="10.856" stroke="rgb(33,33,33)" fill="none" stroke-linecap="round"></path><path d="M 334.500,121.500 C 345.176,118.831 345.459,119.395 356.500,118.500" stroke-width="9.819" stroke="rgb(33,33,33)" fill="none" stroke-linecap="round"></path><path d="M 356.500,118.500 C 363.959,117.895 364.000,118.500 371.500,118.500" stroke-width="9.643" stroke="rgb(33,33,33)" fill="none" stroke-linecap="round"></path><path d="M 371.500,118.500 C 379.000,118.500 379.000,118.500 386.500,118.500" stroke-width="8.772" stroke="rgb(33,33,33)" fill="none" stroke-linecap="round"></path><path d="M 386.500,118.500 C 396.000,118.500 396.075,117.692 405.500,118.500" stroke-width="8.344" stroke="rgb(33,33,33)" fill="none" stroke-linecap="round"></path><path d="M 405.500,118.500 C 413.575,119.192 413.425,120.808 421.500,121.500" stroke-width="8.208" stroke="rgb(33,33,33)" fill="none" stroke-linecap="round"></path><path d="M 421.500,121.500 C 430.925,122.308 431.000,121.500 440.500,121.500" stroke-width="7.930" stroke="rgb(33,33,33)" fill="none" stroke-linecap="round"></path><path d="M 440.500,121.500 C 453.500,121.500 453.500,121.500 466.500,121.500" stroke-width="7.662" stroke="rgb(33,33,33)" fill="none" stroke-linecap="round"></path><path d="M 466.500,121.500 C 474.000,121.500 474.000,121.500 481.500,121.500" stroke-width="7.195" stroke="rgb(33,33,33)" fill="none" stroke-linecap="round"></path><path d="M 481.500,121.500 C 496.000,121.500 496.134,120.277 510.500,121.500" stroke-width="6.900" stroke="rgb(33,33,33)" fill="none" stroke-linecap="round"></path><path d="M 510.500,121.500 C 519.634,122.277 519.420,124.036 528.500,125.500" stroke-width="6.847" stroke="rgb(33,33,33)" fill="none" stroke-linecap="round"></path><path d="M 528.500,125.500 C 534.920,126.536 534.988,126.319 541.500,126.500" stroke-width="7.275" stroke="rgb(33,33,33)" fill="none" stroke-linecap="round"></path><path d="M 541.500,126.500 C 552.988,126.819 553.000,126.500 564.500,126.500" stroke-width="7.206" stroke="rgb(33,33,33)" fill="none" stroke-linecap="round"></path><path d="M 564.500,126.500 C 569.500,126.500 569.500,126.500 574.500,126.500" stroke-width="7.407" stroke="rgb(33,33,33)" fill="none" stroke-linecap="round"></path><path d="M 574.500,126.500 C 579.500,126.500 579.884,127.885 584.500,126.500" stroke-width="7.828" stroke="rgb(33,33,33)" fill="none" stroke-linecap="round"></path><path d="M 584.500,126.500 C 589.884,124.885 589.571,123.613 594.500,120.500" stroke-width="8.160" stroke="rgb(33,33,33)" fill="none" stroke-linecap="round"></path><path d="M 594.500,120.500 C 599.071,117.613 599.055,117.577 603.500,114.500" stroke-width="8.432" stroke="rgb(33,33,33)" fill="none" stroke-linecap="round"></path><path d="M 603.500,114.500 C 605.555,113.077 605.357,112.571 607.500,111.500" stroke-width="9.154" stroke="rgb(33,33,33)" fill="none" stroke-linecap="round"></path><path d="M 607.500,111.500 C 608.357,111.071 608.500,111.500 609.500,111.500" stroke-width="9.991" stroke="rgb(33,33,33)" fill="none" stroke-linecap="round"></path><path d="M 609.500,111.500 C 611.000,111.500 611.000,111.500 612.500,111.500" stroke-width="10.794" stroke="rgb(33,33,33)" fill="none" stroke-linecap="round"></path><path d="M 612.500,111.500 C 613.000,111.500 613.250,111.250 613.500,111.500" stroke-width="11.752" stroke="rgb(33,33,33)" fill="none" stroke-linecap="round"></path><path d="M 613.500,111.500 C 613.750,111.750 613.707,112.086 613.500,112.500" stroke-width="12.814" stroke="rgb(33,33,33)" fill="none" stroke-linecap="round"></path><path d="M 613.500,112.500 C 613.207,113.086 612.707,112.879 612.500,113.500" stroke-width="13.813" stroke="rgb(33,33,33)" fill="none" stroke-linecap="round"></path><path d="M 612.500,113.500 C 612.207,114.379 612.833,114.833 612.500,115.500" stroke-width="14.232" stroke="rgb(33,33,33)" fill="none" stroke-linecap="round"></path><path d="M 612.500,115.500 C 612.333,115.833 611.826,115.826 611.500,115.500" stroke-width="15.019" stroke="rgb(33,33,33)" fill="none" stroke-linecap="round"></path><path d="M 611.500,115.500 C 610.326,114.326 610.283,114.066 609.500,112.500" stroke-width="15.798" stroke="rgb(33,33,33)" fill="none" stroke-linecap="round"></path></svg>