<svg xmlns="http://www.w3.org/2000/svg" xmlns:xlink="http://www.w3.org/1999/xlink" viewBox="0 0 375 500"><path d="M 175.000,144.000 C 174.500,148.000 174.401,147.990 174.000,152.000" stroke-width="19.929" stroke="rgb(33,33,33)" fill="none" stroke-linecap="round"></path><path d="M 174.000,152.000 C 173.401,157.990 173.770,158.033 173.000,164.000" stroke-width="17.539" stroke="rgb(33,33,33)" fill="none" stroke-linecap="round"></path><path d="M 173.000,164.000 C 171.770,173.533 171.329,173.476 170.000,183.000" stroke-width="15.142" stroke="rgb(33,33,33)" fill="none" stroke-linecap="round"></path><path d="M 170.000,183.000 C 168.329,194.976 168.710,195.030 167.000,207.000" stroke-width="12.717" stroke="rgb(33,33,33)" fill="none" stroke-linecap="round"></path><path d="M 167.000,207.000 C 165.210,219.530 164.537,219.444 163.000,232.000" stroke-width="11.429" stroke="rgb(33,33,33)" fill="none" stroke-linecap="round"></path><path d="M 163.000,232.000 C 161.537,243.944 161.838,243.989 161.000,256.000" stroke-width="10.654" stroke="rgb(33,33,33)" fill="none" stroke-linecap="round"></path><path d="M 161.000,256.000 C 160.338,265.489 160.528,265.502 160.000,275.000" stroke-width="10.340" stroke="rgb(33,33,33)" fill="none" stroke-linecap="round"></path><path d="M 160.000,275.000 C 159.528,283.502 159.629,283.510 159.000,292.000" stroke-width="10.229" stroke="rgb(33,33,33)" fill="none" stroke-linecap="round"></path><path d="M 159.000,292.000 C 158.629,297.010 158.334,296.992 158.000,302.000" stroke-width="10.684" stroke="rgb(33,33,33)" fill="none" stroke-linecap="round"></path><path d="M 158.000,302.000 C 157.834,304.492 158.000,304.500 158.000,307.000" stroke-width="11.384" stroke="rgb(33,33,33)" fill="none" stroke-linecap="round"></path><path d="M 158.000,307.000 C 158.000,308.000 158.000,309.556 158.000,309.000" stroke-width="12.308" stroke="rgb(33,33,33)" fill="none" stroke-linecap="round"></path><path d="M 158.000,309.000 C 158.000,307.056 158.000,305.500 158.000,302.000" stroke-width="12.969" stroke="rgb(33,33,33)" fill="none" stroke-linecap="round"></path><path d="M 158.000,302.000 C 158.000,291.000 157.780,290.996 158.000,280.000" stroke-width="12.049" stroke="rgb(33,33,33)" fill="none" stroke-linecap="round"></path><path d="M 158.000,280.000 C 158.280,265.996 158.569,266.002 159.000,252.000" stroke-width="10.687" stroke="rgb(33,33,33)" fill="none" stroke-linecap="round"></path><path d="M 159.000,252.000 C 159.569,233.502 159.106,233.479 160.000,215.000" stroke-width="9.413" stroke="rgb(33,33,33)" fill="none" stroke-linecap="round"></path><path d="M 160.000,215.000 C 160.606,202.479 160.616,202.456 162.000,190.000" stroke-width="9.062" stroke="rgb(33,33,33)" fill="none" stroke-linecap="round"></path><path d="M 162.000,190.000 C 163.116,179.956 163.192,179.942 165.000,170.000" stroke-width="9.039" stroke="rgb(33,33,33)" fill="none" stroke-linecap="round"></path><path d="M 165.000,170.000 C 166.192,163.442 166.693,163.536 168.000,157.000" stroke-width="9.422" stroke="rgb(33,33,33)" fill="none" stroke-linecap="round"></path><path d="M 168.000,157.000 C 168.693,153.536 168.309,153.455 169.000,150.000" stroke-width="10.112" stroke="rgb(33,33,33)" fill="none" stroke-linecap="round"></path><path d="M 169.000,150.000 C 169.309,148.455 169.240,148.140 170.000,147.000" stroke-width="11.010" stroke="rgb(33,33,33)" fill="none" stroke-linecap="round"></path><path d="M 170.000,147.000 C 170.240,146.640 170.500,147.000 171.000,147.000" stroke-width="12.031" stroke="rgb(33,33,33)" fill="none" stroke-linecap="round"></path><path d="M 171.000,147.000 C 172.000,147.000 172.770,146.157 173.000,147.000" stroke-width="12.885" stroke="rgb(33,33,33)" fill="none" stroke-linecap="round"></path><path d="M 173.000,147.000 C 174.270,151.657 173.057,152.575 174.000,158.000" stroke-width="12.758" stroke="rgb(33,33,33)" fill="none" stroke-linecap="round"></path><path d="M 174.000,158.000 C 175.057,164.075 175.356,164.039 177.000,170.000" stroke-width="12.466" stroke="rgb(33,33,33)" fill="none" stroke-linecap="round"></path><path d="M 177.000,170.000 C 179.356,178.539 179.123,178.631 182.000,187.000" stroke-width="11.856" stroke="rgb(33,33,33)" fill="none" stroke-linecap="round"></path><path d="M 182.000,187.000 C 184.623,194.631 184.678,194.645 188.000,202.000" stroke-width="11.529" stroke="rgb(33,33,33)" fill="none" stroke-linecap="round"></path><path d="M 188.000,202.000 C 191.678,210.145 191.683,210.176 196.000,218.000" stroke-width="11.073" stroke="rgb(33,33,33)" fill="none" stroke-linecap="round"></path><path d="M 196.000,218.000 C 199.683,224.676 199.707,224.703 204.000,231.000" stroke-width="10.990" stroke="rgb(33,33,33)" fill="none" stroke-linecap="round"></path><path d="M 204.000,231.000 C 207.207,235.703 207.018,236.018 211.000,240.000" stroke-width="11.199" stroke="rgb(33,33,33)" fill="none" stroke-linecap="round"></path><path d="M 211.000,240.000 C 213.518,242.518 213.851,242.283 217.000,244.000" stroke-width="11.728" stroke="rgb(33,33,33)" fill="none" stroke-linecap="round"></path><path d="M 217.000,244.000 C 219.351,245.283 219.399,245.527 222.000,246.000" stroke-width="12.211" stroke="rgb(33,33,33)" fill="none" stroke-linecap="round"></path><path d="M 222.000,246.000 C 224.899,246.527 225.862,247.555 228.000,246.000" stroke-width="12.678" stroke="rgb(33,33,33)" fill="none" stroke-linecap="round"></path><path d="M 228.000,246.000 C 231.362,243.555 231.843,242.463 233.000,238.000" stroke-width="12.746" stroke="rgb(33,33,33)" fill="none" stroke-linecap="round"></path><path d="M 233.000,238.000 C 235.343,228.963 234.365,228.526 235.000,219.000" stroke-width="11.941" stroke="rgb(33,33,33)" fill="none" stroke-linecap="round"></path><path d="M 235.000,219.000 C 235.865,206.026 235.750,206.005 236.000,193.000" stroke-width="10.871" stroke="rgb(33,33,33)" fill="none" stroke-linecap="round"></path><path d="M 236.000,193.000 C 236.250,180.005 236.317,179.989 236.000,167.000" stroke-width="10.145" stroke="rgb(33,33,33)" fill="none" stroke-linecap="round"></path><path d="M 236.000,167.000 C 235.817,159.489 235.624,159.489 235.000,152.000" stroke-width="10.203" stroke="rgb(33,33,33)" fill="none" stroke-linecap="round"></path><path d="M 235.000,152.000 C 234.624,147.489 234.640,147.478 234.000,143.000" stroke-width="10.690" stroke="rgb(33,33,33)" fill="none" stroke-linecap="round"></path><path d="M 234.000,143.000 C 233.640,140.478 233.783,140.349 233.000,138.000" stroke-width="11.405" stroke="rgb(33,33,33)" fill="none" stroke-linecap="round"></path><path d="M 233.000,138.000 C 232.783,137.349 232.293,137.586 232.000,137.000" stroke-width="12.362" stroke="rgb(33,33,33)" fill="none" stroke-linecap="round"></path><path d="M 232.000,137.000 C 231.793,136.586 232.000,135.611 232.000,136.000" stroke-width="13.309" stroke="rgb(33,33,33)" fill="none" stroke-linecap="round"></path><path d="M 232.000,136.000 C 232.000,139.111 231.800,140.008 232.000,144.000" stroke-width="13.786" stroke="rgb(33,33,33)" fill="none" stroke-linecap="round"></path><path d="M 232.000,144.000 C 232.300,150.008 231.786,150.133 233.000,156.000" stroke-width="13.421" stroke="rgb(33,33,33)" fill="none" stroke-linecap="round"></path><path d="M 233.000,156.000 C 234.786,164.633 235.200,164.599 238.000,173.000" stroke-width="12.434" stroke="rgb(33,33,33)" fill="none" stroke-linecap="round"></path><path d="M 238.000,173.000 C 241.700,184.099 241.954,184.017 246.000,195.000" stroke-width="11.486" stroke="rgb(33,33,33)" fill="none" stroke-linecap="round"></path><path d="M 246.000,195.000 C 248.954,203.017 249.080,202.971 252.000,211.000" stroke-width="11.102" stroke="rgb(33,33,33)" fill="none" stroke-linecap="round"></path><path d="M 252.000,211.000 C 255.080,219.471 254.870,219.549 258.000,228.000" stroke-width="10.821" stroke="rgb(33,33,33)" fill="none" stroke-linecap="round"></path><path d="M 258.000,228.000 C 259.870,233.049 259.815,233.083 262.000,238.000" stroke-width="11.056" stroke="rgb(33,33,33)" fill="none" stroke-linecap="round"></path><path d="M 262.000,238.000 C 263.815,242.083 264.000,242.000 266.000,246.000" stroke-width="11.475" stroke="rgb(33,33,33)" fill="none" stroke-linecap="round"></path><path d="M 266.000,246.000 C 267.500,249.000 267.500,249.000 269.000,252.000" stroke-width="11.903" stroke="rgb(33,33,33)" fill="none" stroke-linecap="round"></path><path d="M 269.000,252.000 C 270.000,254.000 270.183,253.957 271.000,256.000" stroke-width="12.524" stroke="rgb(33,33,33)" fill="none" stroke-linecap="round"></path><path d="M 271.000,256.000 C 271.183,256.457 271.000,256.500 271.000,257.000" stroke-width="13.453" stroke="rgb(33,33,33)" fill="none" stroke-linecap="round"></path><path d="M 271.000,257.000 C 271.000,257.500 271.415,258.138 271.000,258.000" stroke-width="14.301" stroke="rgb(33,33,33)" fill="none" stroke-linecap="round"></path><path d="M 271.000,258.000 C 266.915,256.638 266.330,256.331 262.000,254.000" stroke-width="14.523" stroke="rgb(33,33,33)" fill="none" stroke-linecap="round"></path><path d="M 262.000,254.000 C 253.330,249.331 253.912,248.145 245.000,244.000" stroke-width="13.295" stroke="rgb(33,33,33)" fill="none" stroke-linecap="round"></path><path d="M 245.000,244.000 C 232.412,238.145 232.447,237.122 219.000,234.000" stroke-width="11.462" stroke="rgb(33,33,33)" fill="none" stroke-linecap="round"></path><path d="M 219.000,234.000 C 204.447,230.622 204.030,231.221 189.000,231.000" stroke-width="10.289" stroke="rgb(33,33,33)" fill="none" stroke-linecap="round"></path><path d="M 189.000,231.000 C 170.030,230.721 169.640,229.893 151.000,233.000" stroke-width="9.000" stroke="rgb(33,33,33)" fill="none" stroke-linecap="round"></path><path d="M 151.000,233.000 C 133.640,235.893 133.633,237.001 117.000,243.000" stroke-width="8.378" stroke="rgb(33,33,33)" fill="none" stroke-linecap="round"></path><path d="M 117.000,243.000 C 103.133,248.001 103.522,249.050 90.000,255.000" stroke-width="8.090" stroke="rgb(33,33,33)" fill="none" stroke-linecap="round"></path><path d="M 90.000,255.000 C 78.522,260.050 78.262,259.530 67.000,265.000" stroke-width="8.108" stroke="rgb(33,33,33)" fill="none" stroke-linecap="round"></path><path d="M 67.000,265.000 C 60.762,268.030 60.987,268.478 55.000,272.000" stroke-width="8.539" stroke="rgb(33,33,33)" fill="none" stroke-linecap="round"></path><path d="M 55.000,272.000 C 52.487,273.478 48.820,275.295 50.000,275.000" stroke-width="9.366" stroke="rgb(33,33,33)" fill="none" stroke-linecap="round"></path><path d="M 50.000,275.000 C 52.820,274.295 56.750,273.045 63.000,270.000" stroke-width="10.054" stroke="rgb(33,33,33)" fill="none" stroke-linecap="round"></path><path d="M 63.000,270.000 C 76.250,263.545 75.930,262.867 89.000,256.000" stroke-width="9.381" stroke="rgb(33,33,33)" fill="none" stroke-linecap="round"></path><path d="M 89.000,256.000 C 105.430,247.367 105.500,247.500 122.000,239.000" stroke-width="8.469" stroke="rgb(33,33,33)" fill="none" stroke-linecap="round"></path><path d="M 122.000,239.000 C 138.500,230.500 138.559,230.612 155.000,222.000" stroke-width="7.943" stroke="rgb(33,33,33)" fill="none" stroke-linecap="round"></path><path d="M 155.000,222.000 C 170.059,214.112 169.909,213.825 185.000,206.000" stroke-width="7.672" stroke="rgb(33,33,33)" fill="none" stroke-linecap="round"></path><path d="M 185.000,206.000 C 196.909,199.825 197.054,200.106 209.000,194.000" stroke-width="7.707" stroke="rgb(33,33,33)" fill="none" stroke-linecap="round"></path><path d="M 209.000,194.000 C 219.554,188.606 219.346,188.175 230.000,183.000" stroke-width="7.794" stroke="rgb(33,33,33)" fill="none" stroke-linecap="round"></path><path d="M 230.000,183.000 C 236.846,179.675 237.070,180.150 244.000,177.000" stroke-width="8.273" stroke="rgb(33,33,33)" fill="none" stroke-linecap="round"></path><path d="M 244.000,177.000 C 248.070,175.150 247.893,174.711 252.000,173.000" stroke-width="8.946" stroke="rgb(33,33,33)" fill="none" stroke-linecap="round"></path><path d="M 252.000,173.000 C 253.893,172.211 256.000,171.548 256.000,172.000" stroke-width="9.834" stroke="rgb(33,33,33)" fill="none" stroke-linecap="round"></path><path d="M 256.000,172.000 C 256.000,172.548 253.978,173.471 252.000,175.000" stroke-width="10.773" stroke="rgb(33,33,33)" fill="none" stroke-linecap="round"></path><path d="M 252.000,175.000 C 242.978,181.971 242.988,181.985 234.000,189.000" stroke-width="10.269" stroke="rgb(33,33,33)" fill="none" stroke-linecap="round"></path><path d="M 234.000,189.000 C 222.488,197.985 222.445,197.930 211.000,207.000" stroke-width="9.546" stroke="rgb(33,33,33)" fill="none" stroke-linecap="round"></path><path d="M 211.000,207.000 C 195.945,218.930 195.709,218.655 181.000,231.000" stroke-width="8.518" stroke="rgb(33,33,33)" fill="none" stroke-linecap="round"></path><path d="M 181.000,231.000 C 167.709,242.155 167.957,242.452 155.000,254.000" stroke-width="8.067" stroke="rgb(33,33,33)" fill="none" stroke-linecap="round"></path><path d="M 155.000,254.000 C 144.957,262.952 144.632,262.622 135.000,272.000" stroke-width="8.021" stroke="rgb(33,33,33)" fill="none" stroke-linecap="round"></path><path d="M 135.000,272.000 C 125.632,281.122 125.630,281.180 117.000,291.000" stroke-width="8.011" stroke="rgb(33,33,33)" fill="none" stroke-linecap="round"></path><path d="M 117.000,291.000 C 111.130,297.680 111.162,297.773 106.000,305.000" stroke-width="8.283" stroke="rgb(33,33,33)" fill="none" stroke-linecap="round"></path><path d="M 106.000,305.000 C 103.662,308.273 103.458,308.356 102.000,312.000" stroke-width="9.019" stroke="rgb(33,33,33)" fill="none" stroke-linecap="round"></path><path d="M 102.000,312.000 C 101.458,313.356 100.821,314.679 102.000,315.000" stroke-width="9.957" stroke="rgb(33,33,33)" fill="none" stroke-linecap="round"></path><path d="M 102.000,315.000 C 106.321,316.179 107.888,316.704 113.000,315.000" stroke-width="10.351" stroke="rgb(33,33,33)" fill="none" stroke-linecap="round"></path><path d="M 113.000,315.000 C 125.888,310.704 125.864,309.675 138.000,303.000" stroke-width="9.485" stroke="rgb(33,33,33)" fill="none" stroke-linecap="round"></path><path d="M 138.000,303.000 C 155.864,293.175 155.841,293.031 173.000,282.000" stroke-width="8.480" stroke="rgb(33,33,33)" fill="none" stroke-linecap="round"></path><path d="M 173.000,282.000 C 190.841,270.531 190.346,269.769 208.000,258.000" stroke-width="7.759" stroke="rgb(33,33,33)" fill="none" stroke-linecap="round"></path><path d="M 208.000,258.000 C 224.846,246.769 224.697,246.495 242.000,236.000" stroke-width="7.248" stroke="rgb(33,33,33)" fill="none" stroke-linecap="round"></path><path d="M 242.000,236.000 C 255.197,227.995 255.422,228.355 269.000,221.000" stroke-width="7.288" stroke="rgb(33,33,33)" fill="none" stroke-linecap="round"></path><path d="M 269.000,221.000 C 279.422,215.355 279.241,214.891 290.000,210.000" stroke-width="7.447" stroke="rgb(33,33,33)" fill="none" stroke-linecap="round"></path></svg>