<svg xmlns="http://www.w3.org/2000/svg" xmlns:xlink="http://www.w3.org/1999/xlink" viewBox="0 0 375 500"><path d="M 85.000,211.500 C 85.500,209.000 85.122,208.883 86.000,206.500" stroke-width="20.001" stroke="rgb(33,33,33)" fill="none" stroke-linecap="round"></path><path d="M 86.000,206.500 C 88.622,199.383 88.692,199.352 92.000,192.500" stroke-width="16.870" stroke="rgb(33,33,33)" fill="none" stroke-linecap="round"></path><path d="M 92.000,192.500 C 95.692,184.852 96.068,185.035 100.000,177.500" stroke-width="14.887" stroke="rgb(33,33,33)" fill="none" stroke-linecap="round"></path><path d="M 100.000,177.500 C 102.068,173.535 102.243,173.601 104.000,169.500" stroke-width="14.594" stroke="rgb(33,33,33)" fill="none" stroke-linecap="round"></path><path d="M 104.000,169.500 C 105.243,166.601 104.892,166.455 106.000,163.500" stroke-width="14.577" stroke="rgb(33,33,33)" fill="none" stroke-linecap="round"></path><path d="M 106.000,163.500 C 106.392,162.455 107.578,161.005 107.000,161.500" stroke-width="15.120" stroke="rgb(33,33,33)" fill="none" stroke-linecap="round"></path><path d="M 107.000,161.500 C 104.078,164.005 102.470,165.066 99.000,169.500" stroke-width="15.369" stroke="rgb(33,33,33)" fill="none" stroke-linecap="round"></path><path d="M 99.000,169.500 C 93.470,176.566 93.720,176.831 89.000,184.500" stroke-width="13.923" stroke="rgb(33,33,33)" fill="none" stroke-linecap="round"></path><path d="M 89.000,184.500 C 85.720,189.831 86.309,190.206 83.000,195.500" stroke-width="13.321" stroke="rgb(33,33,33)" fill="none" stroke-linecap="round"></path><path d="M 83.000,195.500 C 81.309,198.206 81.048,198.043 79.000,200.500" stroke-width="13.616" stroke="rgb(33,33,33)" fill="none" stroke-linecap="round"></path><path d="M 79.000,200.500 C 78.548,201.043 78.586,201.207 78.000,201.500" stroke-width="14.375" stroke="rgb(33,33,33)" fill="none" stroke-linecap="round"></path><path d="M 78.000,201.500 C 77.586,201.707 76.845,201.938 77.000,201.500" stroke-width="15.127" stroke="rgb(33,33,33)" fill="none" stroke-linecap="round"></path><path d="M 77.000,201.500 C 79.845,193.438 79.689,192.547 84.000,184.500" stroke-width="14.649" stroke="rgb(33,33,33)" fill="none" stroke-linecap="round"></path><path d="M 84.000,184.500 C 87.189,178.547 87.652,178.638 92.000,173.500" stroke-width="13.814" stroke="rgb(33,33,33)" fill="none" stroke-linecap="round"></path><path d="M 92.000,173.500 C 93.152,172.138 93.935,172.832 95.000,171.500" stroke-width="14.309" stroke="rgb(33,33,33)" fill="none" stroke-linecap="round"></path><path d="M 95.000,171.500 C 95.935,170.332 95.414,169.964 96.000,168.500" stroke-width="14.788" stroke="rgb(33,33,33)" fill="none" stroke-linecap="round"></path><path d="M 96.000,168.500 C 96.414,167.464 96.309,167.191 97.000,166.500" stroke-width="15.320" stroke="rgb(33,33,33)" fill="none" stroke-linecap="round"></path><path d="M 97.000,166.500 C 97.309,166.191 97.900,166.100 98.000,166.500" stroke-width="15.946" stroke="rgb(33,33,33)" fill="none" stroke-linecap="round"></path><path d="M 98.000,166.500 C 98.400,168.100 97.834,168.510 98.000,170.500" stroke-width="16.433" stroke="rgb(33,33,33)" fill="none" stroke-linecap="round"></path><path d="M 98.000,170.500 C 98.334,174.510 98.789,174.482 99.000,178.500" stroke-width="15.878" stroke="rgb(33,33,33)" fill="none" stroke-linecap="round"></path><path d="M 99.000,178.500 C 99.289,183.982 98.711,184.018 99.000,189.500" stroke-width="14.914" stroke="rgb(33,33,33)" fill="none" stroke-linecap="round"></path><path d="M 99.000,189.500 C 99.211,193.518 99.387,193.518 100.000,197.500" stroke-width="14.662" stroke="rgb(33,33,33)" fill="none" stroke-linecap="round"></path><path d="M 100.000,197.500 C 100.387,200.018 100.500,200.000 101.000,202.500" stroke-width="14.837" stroke="rgb(33,33,33)" fill="none" stroke-linecap="round"></path><path d="M 101.000,202.500 C 101.500,205.000 100.957,205.415 102.000,207.500" stroke-width="14.979" stroke="rgb(33,33,33)" fill="none" stroke-linecap="round"></path><path d="M 102.000,207.500 C 102.457,208.415 102.945,208.148 104.000,208.500" stroke-width="15.464" stroke="rgb(33,33,33)" fill="none" stroke-linecap="round"></path><path d="M 104.000,208.500 C 105.945,209.148 105.966,209.274 108.000,209.500" stroke-width="15.624" stroke="rgb(33,33,33)" fill="none" stroke-linecap="round"></path><path d="M 108.000,209.500 C 110.466,209.774 110.550,209.806 113.000,209.500" stroke-width="15.629" stroke="rgb(33,33,33)" fill="none" stroke-linecap="round"></path><path d="M 113.000,209.500 C 114.550,209.306 114.680,209.292 116.000,208.500" stroke-width="15.869" stroke="rgb(33,33,33)" fill="none" stroke-linecap="round"></path><path d="M 116.000,208.500 C 117.180,207.792 117.000,207.500 118.000,206.500" stroke-width="16.120" stroke="rgb(33,33,33)" fill="none" stroke-linecap="round"></path><path d="M 118.000,206.500 C 118.500,206.000 118.414,205.793 119.000,205.500" stroke-width="16.562" stroke="rgb(33,33,33)" fill="none" stroke-linecap="round"></path><path d="M 119.000,205.500 C 119.414,205.293 119.500,205.500 120.000,205.500" stroke-width="17.100" stroke="rgb(33,33,33)" fill="none" stroke-linecap="round"></path><path d="M 120.000,205.500 C 120.500,205.500 120.500,205.500 121.000,205.500" stroke-width="17.557" stroke="rgb(33,33,33)" fill="none" stroke-linecap="round"></path><path d="M 121.000,205.500 C 122.500,205.500 122.500,205.500 124.000,205.500" stroke-width="17.516" stroke="rgb(33,33,33)" fill="none" stroke-linecap="round"></path><path d="M 124.000,205.500 C 126.500,205.500 126.500,205.500 129.000,205.500" stroke-width="17.055" stroke="rgb(33,33,33)" fill="none" stroke-linecap="round"></path><path d="M 129.000,205.500 C 131.000,205.500 131.000,205.500 133.000,205.500" stroke-width="16.918" stroke="rgb(33,33,33)" fill="none" stroke-linecap="round"></path><path d="M 133.000,205.500 C 134.500,205.500 134.500,205.500 136.000,205.500" stroke-width="16.976" stroke="rgb(33,33,33)" fill="none" stroke-linecap="round"></path><path d="M 136.000,205.500 C 137.000,205.500 137.000,205.500 138.000,205.500" stroke-width="17.193" stroke="rgb(33,33,33)" fill="none" stroke-linecap="round"></path><path d="M 138.000,205.500 C 139.000,205.500 139.000,205.500 140.000,205.500" stroke-width="17.349" stroke="rgb(33,33,33)" fill="none" stroke-linecap="round"></path><path d="M 140.000,205.500 C 141.000,205.500 141.000,205.500 142.000,205.500" stroke-width="17.517" stroke="rgb(33,33,33)" fill="none" stroke-linecap="round"></path><path d="M 142.000,205.500 C 146.500,205.500 146.545,206.014 151.000,205.500" stroke-width="16.366" stroke="rgb(33,33,33)" fill="none" stroke-linecap="round"></path><path d="M 151.000,205.500 C 159.545,204.514 159.467,203.764 168.000,202.500" stroke-width="14.538" stroke="rgb(33,33,33)" fill="none" stroke-linecap="round"></path><path d="M 168.000,202.500 C 172.967,201.764 173.036,202.209 178.000,201.500" stroke-width="14.063" stroke="rgb(33,33,33)" fill="none" stroke-linecap="round"></path><path d="M 178.000,201.500 C 180.036,201.209 180.055,201.148 182.000,200.500" stroke-width="14.459" stroke="rgb(33,33,33)" fill="none" stroke-linecap="round"></path><path d="M 182.000,200.500 C 183.055,200.148 182.944,199.764 184.000,199.500" stroke-width="15.037" stroke="rgb(33,33,33)" fill="none" stroke-linecap="round"></path><path d="M 184.000,199.500 C 184.944,199.264 185.000,199.500 186.000,199.500" stroke-width="15.566" stroke="rgb(33,33,33)" fill="none" stroke-linecap="round"></path><path d="M 186.000,199.500 C 187.000,199.500 187.020,199.663 188.000,199.500" stroke-width="15.999" stroke="rgb(33,33,33)" fill="none" stroke-linecap="round"></path><path d="M 188.000,199.500 C 190.020,199.163 189.954,198.628 192.000,198.500" stroke-width="16.058" stroke="rgb(33,33,33)" fill="none" stroke-linecap="round"></path><path d="M 192.000,198.500 C 197.954,198.128 198.000,198.500 204.000,198.500" stroke-width="14.902" stroke="rgb(33,33,33)" fill="none" stroke-linecap="round"></path><path d="M 204.000,198.500 C 210.000,198.500 210.000,198.500 216.000,198.500" stroke-width="14.178" stroke="rgb(33,33,33)" fill="none" stroke-linecap="round"></path><path d="M 216.000,198.500 C 219.500,198.500 219.500,198.500 223.000,198.500" stroke-width="14.211" stroke="rgb(33,33,33)" fill="none" stroke-linecap="round"></path><path d="M 223.000,198.500 C 224.500,198.500 224.500,198.500 226.000,198.500" stroke-width="14.724" stroke="rgb(33,33,33)" fill="none" stroke-linecap="round"></path><path d="M 226.000,198.500 C 227.000,198.500 227.056,198.264 228.000,198.500" stroke-width="15.281" stroke="rgb(33,33,33)" fill="none" stroke-linecap="round"></path><path d="M 228.000,198.500 C 229.056,198.764 228.944,199.236 230.000,199.500" stroke-width="15.741" stroke="rgb(33,33,33)" fill="none" stroke-linecap="round"></path><path d="M 230.000,199.500 C 230.944,199.736 231.064,199.188 232.000,199.500" stroke-width="16.323" stroke="rgb(33,33,33)" fill="none" stroke-linecap="round"></path><path d="M 232.000,199.500 C 235.564,200.688 235.319,201.725 239.000,202.500" stroke-width="15.795" stroke="rgb(33,33,33)" fill="none" stroke-linecap="round"></path><path d="M 239.000,202.500 C 244.819,203.725 245.065,202.610 251.000,203.500" stroke-width="15.167" stroke="rgb(33,33,33)" fill="none" stroke-linecap="round"></path><path d="M 251.000,203.500 C 255.065,204.110 254.948,204.921 259.000,205.500" stroke-width="13.952" stroke="rgb(33,33,33)" fill="none" stroke-linecap="round"></path><path d="M 259.000,205.500 C 261.948,205.921 262.036,205.204 265.000,205.500" stroke-width="14.101" stroke="rgb(33,33,33)" fill="none" stroke-linecap="round"></path><path d="M 242.000,210.500 C 247.500,206.000 247.225,205.576 253.000,201.500" stroke-width="16.372" stroke="rgb(33,33,33)" fill="none" stroke-linecap="round"></path><path d="M 253.000,201.500 C 255.725,199.576 256.058,200.105 259.000,198.500" stroke-width="15.903" stroke="rgb(33,33,33)" fill="none" stroke-linecap="round"></path><path d="M 259.000,198.500 C 261.558,197.105 261.577,197.115 264.000,195.500" stroke-width="15.778" stroke="rgb(33,33,33)" fill="none" stroke-linecap="round"></path><path d="M 264.000,195.500 C 266.077,194.115 265.889,193.820 268.000,192.500" stroke-width="15.706" stroke="rgb(33,33,33)" fill="none" stroke-linecap="round"></path><path d="M 268.000,192.500 C 269.889,191.320 270.362,191.956 272.000,190.500" stroke-width="15.771" stroke="rgb(33,33,33)" fill="none" stroke-linecap="round"></path><path d="M 272.000,190.500 C 274.862,187.956 274.975,187.791 277.000,184.500" stroke-width="15.351" stroke="rgb(33,33,33)" fill="none" stroke-linecap="round"></path><path d="M 277.000,184.500 C 278.975,181.291 278.812,181.064 280.000,177.500" stroke-width="14.995" stroke="rgb(33,33,33)" fill="none" stroke-linecap="round"></path><path d="M 280.000,177.500 C 280.312,176.564 280.000,176.500 280.000,175.500" stroke-width="15.530" stroke="rgb(33,33,33)" fill="none" stroke-linecap="round"></path><path d="M 280.000,175.500 C 280.000,174.000 280.000,174.000 280.000,172.500" stroke-width="15.840" stroke="rgb(33,33,33)" fill="none" stroke-linecap="round"></path><path d="M 280.000,172.500 C 280.000,172.000 280.000,172.000 280.000,171.500" stroke-width="16.403" stroke="rgb(33,33,33)" fill="none" stroke-linecap="round"></path><path d="M 280.000,171.500 C 280.000,171.000 280.000,171.000 280.000,170.500" stroke-width="16.873" stroke="rgb(33,33,33)" fill="none" stroke-linecap="round"></path><path d="M 280.000,170.500 C 280.000,169.500 280.000,169.500 280.000,168.500" stroke-width="17.334" stroke="rgb(33,33,33)" fill="none" stroke-linecap="round"></path><path d="M 280.000,168.500 C 280.000,167.000 280.000,167.000 280.000,165.500" stroke-width="17.338" stroke="rgb(33,33,33)" fill="none" stroke-linecap="round"></path><path d="M 280.000,165.500 C 280.000,163.500 279.679,163.424 280.000,161.500" stroke-width="17.098" stroke="rgb(33,33,33)" fill="none" stroke-linecap="round"></path><path d="M 280.000,161.500 C 280.179,160.424 280.655,160.536 281.000,159.500" stroke-width="17.252" stroke="rgb(33,33,33)" fill="none" stroke-linecap="round"></path><path d="M 281.000,159.500 C 281.155,159.036 281.309,158.500 281.000,158.500" stroke-width="17.597" stroke="rgb(33,33,33)" fill="none" stroke-linecap="round"></path><path d="M 281.000,158.500 C 280.309,158.500 279.547,158.563 279.000,159.500" stroke-width="17.656" stroke="rgb(33,33,33)" fill="none" stroke-linecap="round"></path><path d="M 279.000,159.500 C 276.047,164.563 276.500,165.000 274.000,170.500" stroke-width="15.963" stroke="rgb(33,33,33)" fill="none" stroke-linecap="round"></path><path d="M 274.000,170.500 C 271.500,176.000 271.586,176.041 269.000,181.500" stroke-width="14.922" stroke="rgb(33,33,33)" fill="none" stroke-linecap="round"></path><path d="M 269.000,181.500 C 267.086,185.541 267.000,185.500 265.000,189.500" stroke-width="14.621" stroke="rgb(33,33,33)" fill="none" stroke-linecap="round"></path><path d="M 265.000,189.500 C 264.000,191.500 264.416,191.848 263.000,193.500" stroke-width="14.761" stroke="rgb(33,33,33)" fill="none" stroke-linecap="round"></path><path d="M 263.000,193.500 C 261.416,195.348 261.292,195.875 259.000,196.500" stroke-width="14.890" stroke="rgb(33,33,33)" fill="none" stroke-linecap="round"></path><path d="M 259.000,196.500 C 255.792,197.375 255.238,197.512 252.000,196.500" stroke-width="14.777" stroke="rgb(33,33,33)" fill="none" stroke-linecap="round"></path><path d="M 252.000,196.500 C 247.238,195.012 247.315,194.246 243.000,191.500" stroke-width="14.287" stroke="rgb(33,33,33)" fill="none" stroke-linecap="round"></path><path d="M 243.000,191.500 C 241.815,190.746 241.369,190.239 241.000,189.500" stroke-width="14.811" stroke="rgb(33,33,33)" fill="none" stroke-linecap="round"></path><path d="M 241.000,189.500 C 240.869,189.239 241.583,189.240 242.000,189.500" stroke-width="15.579" stroke="rgb(33,33,33)" fill="none" stroke-linecap="round"></path><path d="M 242.000,189.500 C 245.583,191.740 245.367,192.206 249.000,194.500" stroke-width="15.100" stroke="rgb(33,33,33)" fill="none" stroke-linecap="round"></path><path d="M 249.000,194.500 C 254.867,198.206 254.844,198.299 261.000,201.500" stroke-width="13.999" stroke="rgb(33,33,33)" fill="none" stroke-linecap="round"></path><path d="M 261.000,201.500 C 267.344,204.799 267.333,204.936 274.000,207.500" stroke-width="13.273" stroke="rgb(33,33,33)" fill="none" stroke-linecap="round"></path><path d="M 274.000,207.500 C 280.333,209.936 280.463,209.632 287.000,211.500" stroke-width="12.812" stroke="rgb(33,33,33)" fill="none" stroke-linecap="round"></path><path d="M 287.000,211.500 C 290.963,212.632 291.038,212.368 295.000,213.500" stroke-width="12.969" stroke="rgb(33,33,33)" fill="none" stroke-linecap="round"></path><circle r="6" cx="317" cy="190.5" fill="rgb(33,33,33)"></circle></svg>