<svg xmlns="http://www.w3.org/2000/svg" xmlns:xlink="http://www.w3.org/1999/xlink" viewBox="0 0 412 500"><path d="M 92.190,118.476 C 88.034,123.368 86.162,122.640 83.877,128.260" stroke-width="19.771" stroke="rgb(33,33,33)" fill="none" stroke-linecap="round"></path><path d="M 83.877,128.260 C 81.782,133.413 83.129,134.168 83.429,140.022" stroke-width="17.489" stroke="rgb(33,33,33)" fill="none" stroke-linecap="round"></path><path d="M 83.429,140.022 C 83.729,145.874 83.720,145.986 85.076,151.672" stroke-width="16.110" stroke="rgb(33,33,33)" fill="none" stroke-linecap="round"></path><path d="M 85.076,151.672 C 86.018,155.621 86.254,155.617 88.024,159.293" stroke-width="15.092" stroke="rgb(33,33,33)" fill="none" stroke-linecap="round"></path><path d="M 88.024,159.293 C 91.783,167.102 91.796,167.130 96.134,174.642" stroke-width="13.704" stroke="rgb(33,33,33)" fill="none" stroke-linecap="round"></path><path d="M 96.134,174.642 C 100.941,182.966 100.682,183.193 106.314,190.965" stroke-width="12.779" stroke="rgb(33,33,33)" fill="none" stroke-linecap="round"></path><path d="M 106.314,190.965 C 112.500,199.502 112.791,199.334 119.770,207.259" stroke-width="11.798" stroke="rgb(33,33,33)" fill="none" stroke-linecap="round"></path><path d="M 119.770,207.259 C 125.892,214.211 125.682,214.498 132.516,220.720" stroke-width="11.306" stroke="rgb(33,33,33)" fill="none" stroke-linecap="round"></path><path d="M 132.516,220.720 C 138.871,226.505 138.917,226.657 146.147,231.273" stroke-width="10.955" stroke="rgb(33,33,33)" fill="none" stroke-linecap="round"></path><path d="M 146.147,231.273 C 152.278,235.187 152.396,235.405 159.237,237.781" stroke-width="10.942" stroke="rgb(33,33,33)" fill="none" stroke-linecap="round"></path><path d="M 159.237,237.781 C 165.233,239.864 165.518,240.198 171.822,240.190" stroke-width="11.058" stroke="rgb(33,33,33)" fill="none" stroke-linecap="round"></path><path d="M 171.822,240.190 C 178.913,240.181 179.277,240.055 186.026,237.748" stroke-width="10.974" stroke="rgb(33,33,33)" fill="none" stroke-linecap="round"></path><path d="M 186.026,237.748 C 194.319,234.913 194.799,235.027 201.905,229.905" stroke-width="10.745" stroke="rgb(33,33,33)" fill="none" stroke-linecap="round"></path><path d="M 201.905,229.905 C 210.929,223.400 210.432,222.529 218.286,214.494" stroke-width="10.182" stroke="rgb(33,33,33)" fill="none" stroke-linecap="round"></path><path d="M 218.286,214.494 C 226.431,206.162 226.248,205.966 233.904,197.171" stroke-width="9.877" stroke="rgb(33,33,33)" fill="none" stroke-linecap="round"></path><path d="M 233.904,197.171 C 241.675,188.245 241.580,188.160 249.140,179.052" stroke-width="9.480" stroke="rgb(33,33,33)" fill="none" stroke-linecap="round"></path><path d="M 249.140,179.052 C 255.598,171.272 254.880,170.559 261.940,163.395" stroke-width="9.295" stroke="rgb(33,33,33)" fill="none" stroke-linecap="round"></path><path d="M 261.940,163.395 C 267.653,157.598 267.915,157.651 274.685,153.130" stroke-width="9.483" stroke="rgb(33,33,33)" fill="none" stroke-linecap="round"></path><path d="M 274.685,153.130 C 279.939,149.622 280.010,149.128 285.988,147.337" stroke-width="9.881" stroke="rgb(33,33,33)" fill="none" stroke-linecap="round"></path><path d="M 285.988,147.337 C 291.727,145.618 292.090,145.884 298.119,146.111" stroke-width="10.056" stroke="rgb(33,33,33)" fill="none" stroke-linecap="round"></path><path d="M 298.119,146.111 C 303.722,146.322 303.719,147.009 309.252,148.213" stroke-width="10.415" stroke="rgb(33,33,33)" fill="none" stroke-linecap="round"></path><path d="M 309.252,148.213 C 315.826,149.644 315.794,149.791 322.334,151.381" stroke-width="10.630" stroke="rgb(33,33,33)" fill="none" stroke-linecap="round"></path><path d="M 322.334,151.381 C 328.653,152.917 328.594,153.213 334.970,154.464" stroke-width="10.838" stroke="rgb(33,33,33)" fill="none" stroke-linecap="round"></path><path d="M 334.970,154.464 C 341.851,155.814 341.927,155.414 348.847,156.583" stroke-width="10.684" stroke="rgb(33,33,33)" fill="none" stroke-linecap="round"></path><path d="M 348.847,156.583 C 354.265,157.499 354.261,157.536 359.645,158.634" stroke-width="11.121" stroke="rgb(33,33,33)" fill="none" stroke-linecap="round"></path><path d="M 359.645,158.634 C 364.519,159.628 364.458,160.044 369.363,160.767" stroke-width="11.189" stroke="rgb(33,33,33)" fill="none" stroke-linecap="round"></path><path d="M 369.363,160.767 C 372.968,161.298 373.025,161.247 376.666,161.143" stroke-width="11.602" stroke="rgb(33,33,33)" fill="none" stroke-linecap="round"></path><path d="M 376.666,161.143 C 379.774,161.054 379.859,161.134 382.862,160.380" stroke-width="12.157" stroke="rgb(33,33,33)" fill="none" stroke-linecap="round"></path><path d="M 382.862,160.380 C 385.692,159.669 385.692,159.486 388.333,158.214" stroke-width="12.608" stroke="rgb(33,33,33)" fill="none" stroke-linecap="round"></path><path d="M 388.333,158.214 C 390.301,157.266 390.412,157.316 392.081,155.939" stroke-width="13.152" stroke="rgb(33,33,33)" fill="none" stroke-linecap="round"></path><path d="M 392.081,155.939 C 393.408,154.845 393.304,154.675 394.326,153.272" stroke-width="13.771" stroke="rgb(33,33,33)" fill="none" stroke-linecap="round"></path><path d="M 394.326,153.272 C 394.894,152.492 394.783,152.417 395.261,151.574" stroke-width="14.422" stroke="rgb(33,33,33)" fill="none" stroke-linecap="round"></path><path d="M 395.261,151.574 C 395.525,151.110 395.650,151.148 395.810,150.658" stroke-width="15.181" stroke="rgb(33,33,33)" fill="none" stroke-linecap="round"></path><path d="M 395.810,150.658 C 395.924,150.310 395.851,150.275 395.810,149.899" stroke-width="15.854" stroke="rgb(33,33,33)" fill="none" stroke-linecap="round"></path><path d="M 395.810,149.899 C 395.746,149.317 395.852,149.244 395.600,148.743" stroke-width="16.377" stroke="rgb(33,33,33)" fill="none" stroke-linecap="round"></path><path d="M 395.600,148.743 C 395.372,148.291 395.180,148.405 394.850,147.993" stroke-width="16.851" stroke="rgb(33,33,33)" fill="none" stroke-linecap="round"></path><path d="M 394.850,147.993 C 394.421,147.456 394.466,147.418 394.082,146.844" stroke-width="17.164" stroke="rgb(33,33,33)" fill="none" stroke-linecap="round"></path><path d="M 394.082,146.844 C 393.697,146.268 393.741,146.231 393.311,145.692" stroke-width="17.455" stroke="rgb(33,33,33)" fill="none" stroke-linecap="round"></path><path d="M 393.311,145.692 C 392.988,145.288 392.943,145.325 392.576,144.957" stroke-width="17.769" stroke="rgb(33,33,33)" fill="none" stroke-linecap="round"></path><path d="M 392.576,144.957 C 392.195,144.576 392.195,144.576 391.814,144.195" stroke-width="18.010" stroke="rgb(33,33,33)" fill="none" stroke-linecap="round"></path><path d="M 391.814,144.195 C 391.428,143.810 391.428,143.810 391.043,143.424" stroke-width="18.192" stroke="rgb(33,33,33)" fill="none" stroke-linecap="round"></path><path d="M 391.043,143.424 C 390.654,143.035 390.654,143.035 390.265,142.646" stroke-width="18.351" stroke="rgb(33,33,33)" fill="none" stroke-linecap="round"></path><path d="M 390.265,142.646 C 389.895,142.275 389.955,142.168 389.524,141.905" stroke-width="18.478" stroke="rgb(33,33,33)" fill="none" stroke-linecap="round"></path><path d="M 389.524,141.905 C 389.193,141.702 389.138,141.763 388.741,141.714" stroke-width="18.652" stroke="rgb(33,33,33)" fill="none" stroke-linecap="round"></path><path d="M 388.741,141.714 C 388.369,141.668 388.351,141.778 387.986,141.714" stroke-width="18.786" stroke="rgb(33,33,33)" fill="none" stroke-linecap="round"></path><path d="M 387.986,141.714 C 387.695,141.663 387.714,141.580 387.429,141.484" stroke-width="18.935" stroke="rgb(33,33,33)" fill="none" stroke-linecap="round"></path><path d="M 387.429,141.484 C 387.149,141.390 387.149,141.366 386.857,141.333" stroke-width="19.020" stroke="rgb(33,33,33)" fill="none" stroke-linecap="round"></path><path d="M 386.857,141.333 C 386.480,141.290 386.468,141.286 386.091,141.333" stroke-width="19.212" stroke="rgb(33,33,33)" fill="none" stroke-linecap="round"></path><path d="M 386.091,141.333 C 385.708,141.380 385.654,141.321 385.336,141.521" stroke-width="19.232" stroke="rgb(33,33,33)" fill="none" stroke-linecap="round"></path><path d="M 385.336,141.521 C 384.891,141.800 385.012,142.014 384.566,142.291" stroke-width="19.191" stroke="rgb(33,33,33)" fill="none" stroke-linecap="round"></path><path d="M 384.566,142.291 C 384.243,142.492 384.188,142.429 383.799,142.476" stroke-width="19.223" stroke="rgb(33,33,33)" fill="none" stroke-linecap="round"></path><path d="M 383.799,142.476 C 383.418,142.522 383.413,142.476 383.026,142.476" stroke-width="19.242" stroke="rgb(33,33,33)" fill="none" stroke-linecap="round"></path><path d="M 383.026,142.476 C 382.644,142.476 382.644,142.476 382.262,142.476" stroke-width="19.278" stroke="rgb(33,33,33)" fill="none" stroke-linecap="round"></path><path d="M 382.262,142.476 C 381.882,142.476 381.861,142.386 381.503,142.476" stroke-width="19.278" stroke="rgb(33,33,33)" fill="none" stroke-linecap="round"></path><path d="M 381.503,142.476 C 381.100,142.577 381.135,142.704 380.739,142.857" stroke-width="19.278" stroke="rgb(33,33,33)" fill="none" stroke-linecap="round"></path><path d="M 380.739,142.857 C 380.376,142.998 380.329,142.892 379.984,143.064" stroke-width="19.294" stroke="rgb(33,33,33)" fill="none" stroke-linecap="round"></path><path d="M 379.984,143.064 C 379.563,143.273 379.627,143.407 379.206,143.619" stroke-width="19.257" stroke="rgb(33,33,33)" fill="none" stroke-linecap="round"></path><path d="M 379.206,143.619 C 378.858,143.795 378.835,143.773 378.446,143.840" stroke-width="19.275" stroke="rgb(33,33,33)" fill="none" stroke-linecap="round"></path><path d="M 378.446,143.840 C 377.732,143.963 377.725,143.953 377.000,144.000" stroke-width="19.128" stroke="rgb(33,33,33)" fill="none" stroke-linecap="round"></path><path d="M 377.000,144.000 C 376.502,144.033 376.258,143.815 376.000,144.000" stroke-width="19.128" stroke="rgb(33,33,33)" fill="none" stroke-linecap="round"></path><path d="M 376.000,144.000 C 375.839,144.115 376.331,144.405 376.162,144.600" stroke-width="19.200" stroke="rgb(33,33,33)" fill="none" stroke-linecap="round"></path><path d="M 376.162,144.600 C 375.745,145.079 375.545,145.097 374.828,145.348" stroke-width="19.090" stroke="rgb(33,33,33)" fill="none" stroke-linecap="round"></path><path d="M 374.828,145.348 C 373.336,145.870 373.309,145.864 371.745,146.146" stroke-width="18.605" stroke="rgb(33,33,33)" fill="none" stroke-linecap="round"></path><path d="M 371.745,146.146 C 369.645,146.524 369.626,146.432 367.501,146.667" stroke-width="18.013" stroke="rgb(33,33,33)" fill="none" stroke-linecap="round"></path><path d="M 367.501,146.667 C 364.433,147.006 364.433,147.012 361.359,147.293" stroke-width="17.212" stroke="rgb(33,33,33)" fill="none" stroke-linecap="round"></path><path d="M 361.359,147.293 C 356.090,147.774 356.091,147.792 350.815,148.190" stroke-width="16.087" stroke="rgb(33,33,33)" fill="none" stroke-linecap="round"></path><path d="M 350.815,148.190 C 345.187,148.614 345.167,148.385 339.552,148.937" stroke-width="15.021" stroke="rgb(33,33,33)" fill="none" stroke-linecap="round"></path><path d="M 339.552,148.937 C 330.511,149.826 330.482,149.704 321.502,151.071" stroke-width="13.569" stroke="rgb(33,33,33)" fill="none" stroke-linecap="round"></path><path d="M 321.502,151.071 C 311.179,152.643 311.150,152.598 300.947,154.815" stroke-width="12.108" stroke="rgb(33,33,33)" fill="none" stroke-linecap="round"></path><path d="M 300.947,154.815 C 289.753,157.248 289.776,157.401 278.708,160.371" stroke-width="11.296" stroke="rgb(33,33,33)" fill="none" stroke-linecap="round"></path><path d="M 278.708,160.371 C 266.723,163.587 266.764,163.744 254.841,167.188" stroke-width="10.415" stroke="rgb(33,33,33)" fill="none" stroke-linecap="round"></path><path d="M 254.841,167.188 C 244.549,170.160 244.585,170.288 234.277,173.203" stroke-width="10.087" stroke="rgb(33,33,33)" fill="none" stroke-linecap="round"></path><path d="M 234.277,173.203 C 226.313,175.455 226.288,175.368 218.296,177.521" stroke-width="10.121" stroke="rgb(33,33,33)" fill="none" stroke-linecap="round"></path><path d="M 218.296,177.521 C 212.948,178.961 212.857,178.680 207.596,180.389" stroke-width="10.443" stroke="rgb(33,33,33)" fill="none" stroke-linecap="round"></path><path d="M 207.596,180.389 C 201.902,182.238 201.926,182.358 196.386,184.638" stroke-width="10.746" stroke="rgb(33,33,33)" fill="none" stroke-linecap="round"></path><path d="M 196.386,184.638 C 192.258,186.337 192.086,186.118 188.260,188.346" stroke-width="11.207" stroke="rgb(33,33,33)" fill="none" stroke-linecap="round"></path><path d="M 188.260,188.346 C 186.074,189.619 186.245,189.921 184.361,191.639" stroke-width="11.847" stroke="rgb(33,33,33)" fill="none" stroke-linecap="round"></path><path d="M 184.361,191.639 C 182.797,193.065 182.811,193.089 181.365,194.635" stroke-width="12.543" stroke="rgb(33,33,33)" fill="none" stroke-linecap="round"></path><path d="M 181.365,194.635 C 180.048,196.042 180.162,196.152 178.835,197.546" stroke-width="13.057" stroke="rgb(33,33,33)" fill="none" stroke-linecap="round"></path><path d="M 178.835,197.546 C 178.073,198.347 178.028,198.306 177.186,199.026" stroke-width="13.805" stroke="rgb(33,33,33)" fill="none" stroke-linecap="round"></path><path d="M 177.186,199.026 C 176.711,199.432 176.754,199.634 176.202,199.798" stroke-width="14.588" stroke="rgb(33,33,33)" fill="none" stroke-linecap="round"></path><path d="M 176.202,199.798 C 175.708,199.945 175.542,199.948 175.093,199.649" stroke-width="15.289" stroke="rgb(33,33,33)" fill="none" stroke-linecap="round"></path><path d="M 175.093,199.649 C 173.870,198.835 174.061,198.502 172.858,197.573" stroke-width="15.655" stroke="rgb(33,33,33)" fill="none" stroke-linecap="round"></path><path d="M 172.858,197.573 C 171.445,196.482 171.481,196.289 169.861,195.608" stroke-width="15.858" stroke="rgb(33,33,33)" fill="none" stroke-linecap="round"></path><path d="M 169.861,195.608 C 168.480,195.027 167.870,194.193 166.857,195.048" stroke-width="16.416" stroke="rgb(33,33,33)" fill="none" stroke-linecap="round"></path><path d="M 166.857,195.048 C 164.171,197.316 163.429,198.118 162.463,201.856" stroke-width="12.720" stroke="rgb(33,33,33)" fill="none" stroke-linecap="round"></path><path d="M 162.463,201.856 C 161.421,205.887 161.998,206.338 162.840,210.586" stroke-width="11.968" stroke="rgb(33,33,33)" fill="none" stroke-linecap="round"></path><path d="M 162.840,210.586 C 163.951,216.192 164.229,216.235 166.368,221.564" stroke-width="12.173" stroke="rgb(33,33,33)" fill="none" stroke-linecap="round"></path><path d="M 166.368,221.564 C 167.704,224.892 167.813,224.912 169.790,227.900" stroke-width="12.267" stroke="rgb(33,33,33)" fill="none" stroke-linecap="round"></path><path d="M 169.790,227.900 C 171.391,230.320 171.405,230.415 173.524,232.381" stroke-width="12.773" stroke="rgb(33,33,33)" fill="none" stroke-linecap="round"></path><path d="M 173.524,232.381 C 175.463,234.180 175.478,234.577 177.905,235.429" stroke-width="13.225" stroke="rgb(33,33,33)" fill="none" stroke-linecap="round"></path><path d="M 177.905,235.429 C 180.349,236.287 180.939,236.643 183.267,235.800" stroke-width="13.608" stroke="rgb(33,33,33)" fill="none" stroke-linecap="round"></path><path d="M 183.267,235.800 C 185.793,234.885 186.152,234.355 187.614,231.913" stroke-width="13.838" stroke="rgb(33,33,33)" fill="none" stroke-linecap="round"></path><path d="M 187.614,231.913 C 190.382,227.288 190.159,226.936 191.726,221.666" stroke-width="13.494" stroke="rgb(33,33,33)" fill="none" stroke-linecap="round"></path><path d="M 191.726,221.666 C 193.345,216.221 193.080,216.109 193.985,210.483" stroke-width="13.259" stroke="rgb(33,33,33)" fill="none" stroke-linecap="round"></path><path d="M 193.985,210.483 C 194.672,206.207 194.559,206.180 194.910,201.862" stroke-width="13.289" stroke="rgb(33,33,33)" fill="none" stroke-linecap="round"></path><path d="M 194.910,201.862 C 195.091,199.635 195.003,199.627 195.048,197.392" stroke-width="13.729" stroke="rgb(33,33,33)" fill="none" stroke-linecap="round"></path><path d="M 195.048,197.392 C 195.072,196.213 194.982,196.206 195.048,195.033" stroke-width="14.367" stroke="rgb(33,33,33)" fill="none" stroke-linecap="round"></path><path d="M 195.048,195.033 C 195.074,194.561 194.874,194.313 195.232,194.101" stroke-width="15.133" stroke="rgb(33,33,33)" fill="none" stroke-linecap="round"></path><path d="M 195.232,194.101 C 196.150,193.558 196.416,193.454 197.600,193.524" stroke-width="15.514" stroke="rgb(33,33,33)" fill="none" stroke-linecap="round"></path><path d="M 197.600,193.524 C 199.557,193.639 199.731,193.601 201.514,194.471" stroke-width="15.710" stroke="rgb(33,33,33)" fill="none" stroke-linecap="round"></path><path d="M 201.514,194.471 C 204.360,195.860 204.234,196.188 206.858,198.041" stroke-width="15.440" stroke="rgb(33,33,33)" fill="none" stroke-linecap="round"></path><path d="M 206.858,198.041 C 209.062,199.598 208.935,199.785 211.170,201.292" stroke-width="15.327" stroke="rgb(33,33,33)" fill="none" stroke-linecap="round"></path><path d="M 211.170,201.292 C 212.921,202.472 212.917,202.537 214.829,203.414" stroke-width="15.418" stroke="rgb(33,33,33)" fill="none" stroke-linecap="round"></path><path d="M 214.829,203.414 C 216.491,204.176 216.542,204.473 218.318,204.571" stroke-width="15.729" stroke="rgb(33,33,33)" fill="none" stroke-linecap="round"></path><path d="M 218.318,204.571 C 220.253,204.678 220.460,204.614 222.252,203.823" stroke-width="15.820" stroke="rgb(33,33,33)" fill="none" stroke-linecap="round"></path><path d="M 222.252,203.823 C 224.353,202.896 224.380,202.699 226.103,201.136" stroke-width="15.787" stroke="rgb(33,33,33)" fill="none" stroke-linecap="round"></path><path d="M 226.103,201.136 C 227.624,199.757 227.569,199.639 228.741,197.939" stroke-width="15.845" stroke="rgb(33,33,33)" fill="none" stroke-linecap="round"></path><path d="M 228.741,197.939 C 229.987,196.132 229.891,196.058 230.939,194.122" stroke-width="15.892" stroke="rgb(33,33,33)" fill="none" stroke-linecap="round"></path><path d="M 230.939,194.122 C 231.789,192.551 231.830,192.557 232.537,190.926" stroke-width="16.020" stroke="rgb(33,33,33)" fill="none" stroke-linecap="round"></path><path d="M 232.537,190.926 C 232.741,190.455 232.698,190.427 232.762,189.918" stroke-width="16.562" stroke="rgb(33,33,33)" fill="none" stroke-linecap="round"></path><path d="M 232.762,189.918 C 232.810,189.537 232.762,188.904 232.762,189.145" stroke-width="17.039" stroke="rgb(33,33,33)" fill="none" stroke-linecap="round"></path><path d="M 232.762,189.145 C 232.762,190.187 232.804,190.816 232.762,192.485" stroke-width="17.310" stroke="rgb(33,33,33)" fill="none" stroke-linecap="round"></path><path d="M 232.762,192.485 C 232.705,194.744 232.666,194.744 232.563,197.002" stroke-width="17.111" stroke="rgb(33,33,33)" fill="none" stroke-linecap="round"></path><path d="M 232.563,197.002 C 232.476,198.911 232.443,198.910 232.381,200.819" stroke-width="16.729" stroke="rgb(33,33,33)" fill="none" stroke-linecap="round"></path><path d="M 232.381,200.819 C 232.352,201.717 232.053,201.913 232.381,202.617" stroke-width="17.005" stroke="rgb(33,33,33)" fill="none" stroke-linecap="round"></path><path d="M 232.381,202.617 C 232.614,203.117 232.880,203.277 233.502,203.227" stroke-width="17.342" stroke="rgb(33,33,33)" fill="none" stroke-linecap="round"></path><path d="M 233.502,203.227 C 238.113,202.855 238.309,203.017 242.847,201.773" stroke-width="16.169" stroke="rgb(33,33,33)" fill="none" stroke-linecap="round"></path><path d="M 242.847,201.773 C 248.665,200.178 248.504,199.587 254.213,197.548" stroke-width="15.150" stroke="rgb(33,33,33)" fill="none" stroke-linecap="round"></path><path d="M 254.213,197.548 C 260.364,195.352 260.353,195.312 266.567,193.303" stroke-width="14.317" stroke="rgb(33,33,33)" fill="none" stroke-linecap="round"></path><path d="M 266.567,193.303 C 272.702,191.320 272.780,191.560 278.910,189.564" stroke-width="13.359" stroke="rgb(33,33,33)" fill="none" stroke-linecap="round"></path><path d="M 278.910,189.564 C 284.880,187.620 284.853,187.532 290.768,185.421" stroke-width="13.046" stroke="rgb(33,33,33)" fill="none" stroke-linecap="round"></path><path d="M 290.768,185.421 C 296.279,183.454 296.248,183.366 301.761,181.407" stroke-width="12.940" stroke="rgb(33,33,33)" fill="none" stroke-linecap="round"></path><path d="M 301.761,181.407 C 307.641,179.317 307.654,179.356 313.554,177.323" stroke-width="12.513" stroke="rgb(33,33,33)" fill="none" stroke-linecap="round"></path><path d="M 313.554,177.323 C 317.213,176.062 317.252,176.161 320.879,174.818" stroke-width="12.673" stroke="rgb(33,33,33)" fill="none" stroke-linecap="round"></path><path d="M 320.879,174.818 C 322.372,174.265 322.485,174.313 323.795,173.531" stroke-width="13.359" stroke="rgb(33,33,33)" fill="none" stroke-linecap="round"></path><path d="M 323.795,173.531 C 324.048,173.380 324.200,172.957 324.004,172.952" stroke-width="14.252" stroke="rgb(33,33,33)" fill="none" stroke-linecap="round"></path><path d="M 324.004,172.952 C 323.405,172.935 323.088,173.171 322.205,173.487" stroke-width="14.917" stroke="rgb(33,33,33)" fill="none" stroke-linecap="round"></path><path d="M 322.205,173.487 C 313.355,176.655 313.320,176.571 304.537,179.921" stroke-width="13.646" stroke="rgb(33,33,33)" fill="none" stroke-linecap="round"></path><path d="M 304.537,179.921 C 294.093,183.905 294.293,184.450 283.751,188.155" stroke-width="11.698" stroke="rgb(33,33,33)" fill="none" stroke-linecap="round"></path><path d="M 283.751,188.155 C 264.968,194.756 264.880,194.538 245.887,200.532" stroke-width="9.861" stroke="rgb(33,33,33)" fill="none" stroke-linecap="round"></path><path d="M 245.887,200.532 C 225.490,206.969 225.258,206.263 204.971,213.018" stroke-width="8.631" stroke="rgb(33,33,33)" fill="none" stroke-linecap="round"></path><path d="M 204.971,213.018 C 185.268,219.578 185.494,220.245 165.907,227.163" stroke-width="7.893" stroke="rgb(33,33,33)" fill="none" stroke-linecap="round"></path><path d="M 165.907,227.163 C 146.542,234.003 146.416,233.648 127.068,240.533" stroke-width="7.402" stroke="rgb(33,33,33)" fill="none" stroke-linecap="round"></path><path d="M 127.068,240.533 C 111.851,245.948 112.063,246.571 96.777,251.764" stroke-width="7.314" stroke="rgb(33,33,33)" fill="none" stroke-linecap="round"></path><path d="M 96.777,251.764 C 86.904,255.118 86.882,255.263 76.751,257.626" stroke-width="7.568" stroke="rgb(33,33,33)" fill="none" stroke-linecap="round"></path><path d="M 76.751,257.626 C 71.267,258.905 71.150,258.714 65.546,259.048" stroke-width="8.253" stroke="rgb(33,33,33)" fill="none" stroke-linecap="round"></path><path d="M 65.546,259.048 C 63.447,259.173 62.637,259.537 61.345,258.544" stroke-width="9.067" stroke="rgb(33,33,33)" fill="none" stroke-linecap="round"></path><path d="M 61.345,258.544 C 60.491,257.888 60.358,256.771 61.254,255.751" stroke-width="10.017" stroke="rgb(33,33,33)" fill="none" stroke-linecap="round"></path><path d="M 61.254,255.751 C 69.733,246.102 69.777,245.404 80.096,237.207" stroke-width="9.592" stroke="rgb(33,33,33)" fill="none" stroke-linecap="round"></path><path d="M 80.096,237.207 C 99.316,221.940 99.468,221.830 120.332,208.823" stroke-width="7.956" stroke="rgb(33,33,33)" fill="none" stroke-linecap="round"></path><path d="M 120.332,208.823 C 145.495,193.136 145.699,193.258 172.150,179.818" stroke-width="6.799" stroke="rgb(33,33,33)" fill="none" stroke-linecap="round"></path><path d="M 172.150,179.818 C 200.676,165.323 200.659,165.015 230.286,152.952" stroke-width="6.750" stroke="rgb(33,33,33)" fill="none" stroke-linecap="round"></path><path d="M 230.286,152.952 C 261.250,140.344 261.601,141.091 293.333,130.476" stroke-width="6.750" stroke="rgb(33,33,33)" fill="none" stroke-linecap="round"></path></svg>