<svg xmlns="http://www.w3.org/2000/svg" xmlns:xlink="http://www.w3.org/1999/xlink" viewBox="0 0 360 500"><path d="M 46.626,205.405 C 45.632,214.690 43.913,214.814 44.637,223.975" stroke-width="17.939" stroke="rgb(33,33,33)" fill="none" stroke-linecap="round"></path><path d="M 44.637,223.975 C 45.418,233.844 46.702,233.850 49.636,243.464" stroke-width="14.950" stroke="rgb(33,33,33)" fill="none" stroke-linecap="round"></path><path d="M 49.636,243.464 C 53.435,255.914 53.496,255.926 58.104,268.104" stroke-width="12.998" stroke="rgb(33,33,33)" fill="none" stroke-linecap="round"></path><path d="M 58.104,268.104 C 62.704,280.260 63.125,280.099 68.052,292.133" stroke-width="12.300" stroke="rgb(33,33,33)" fill="none" stroke-linecap="round"></path><path d="M 68.052,292.133 C 71.542,300.659 72.198,300.482 74.938,309.224" stroke-width="10.739" stroke="rgb(33,33,33)" fill="none" stroke-linecap="round"></path><path d="M 74.938,309.224 C 76.483,314.154 77.472,314.689 76.622,319.478" stroke-width="10.963" stroke="rgb(33,33,33)" fill="none" stroke-linecap="round"></path><path d="M 76.622,319.478 C 75.865,323.744 75.107,325.031 71.725,327.334" stroke-width="11.243" stroke="rgb(33,33,33)" fill="none" stroke-linecap="round"></path><path d="M 71.725,327.334 C 69.189,329.061 68.076,328.334 64.787,327.538" stroke-width="11.815" stroke="rgb(33,33,33)" fill="none" stroke-linecap="round"></path><path d="M 64.787,327.538 C 60.168,326.421 59.780,326.386 55.910,323.508" stroke-width="12.057" stroke="rgb(33,33,33)" fill="none" stroke-linecap="round"></path><path d="M 55.910,323.508 C 47.639,317.357 47.429,317.187 40.504,309.479" stroke-width="10.863" stroke="rgb(33,33,33)" fill="none" stroke-linecap="round"></path><path d="M 40.504,309.479 C 34.115,302.367 34.234,302.073 29.282,293.868" stroke-width="10.630" stroke="rgb(33,33,33)" fill="none" stroke-linecap="round"></path><path d="M 29.282,293.868 C 24.057,285.212 23.785,285.165 20.150,275.757" stroke-width="10.388" stroke="rgb(33,33,33)" fill="none" stroke-linecap="round"></path><path d="M 20.150,275.757 C 16.974,267.538 16.529,267.312 15.661,258.615" stroke-width="10.222" stroke="rgb(33,33,33)" fill="none" stroke-linecap="round"></path><path d="M 15.661,258.615 C 14.871,250.706 15.105,250.331 16.834,242.545" stroke-width="10.257" stroke="rgb(33,33,33)" fill="none" stroke-linecap="round"></path><path d="M 16.834,242.545 C 18.651,234.363 18.990,234.226 22.752,226.679" stroke-width="10.099" stroke="rgb(33,33,33)" fill="none" stroke-linecap="round"></path><path d="M 22.752,226.679 C 27.892,216.370 27.344,215.461 34.638,206.834" stroke-width="9.753" stroke="rgb(33,33,33)" fill="none" stroke-linecap="round"></path><path d="M 34.638,206.834 C 38.796,201.916 39.620,198.342 45.657,199.589" stroke-width="10.641" stroke="rgb(33,33,33)" fill="none" stroke-linecap="round"></path><path d="M 45.657,199.589 C 72.090,205.050 73.128,209.006 99.578,220.251" stroke-width="7.950" stroke="rgb(33,33,33)" fill="none" stroke-linecap="round"></path><path d="M 99.578,220.251 C 103.429,221.888 104.705,222.504 106.260,225.353" stroke-width="8.352" stroke="rgb(33,33,33)" fill="none" stroke-linecap="round"></path><path d="M 106.260,225.353 C 106.975,226.662 105.696,227.547 104.118,228.567" stroke-width="9.278" stroke="rgb(33,33,33)" fill="none" stroke-linecap="round"></path><path d="M 104.118,228.567 C 99.345,231.653 98.905,231.215 93.558,233.566" stroke-width="9.584" stroke="rgb(33,33,33)" fill="none" stroke-linecap="round"></path><path d="M 93.558,233.566 C 80.923,239.122 80.882,239.035 68.154,244.382" stroke-width="9.058" stroke="rgb(33,33,33)" fill="none" stroke-linecap="round"></path><path d="M 68.154,244.382 C 60.298,247.683 60.288,247.660 52.391,250.861" stroke-width="9.198" stroke="rgb(33,33,33)" fill="none" stroke-linecap="round"></path><path d="M 52.391,250.861 C 47.075,253.016 46.239,251.898 41.729,255.095" stroke-width="9.622" stroke="rgb(33,33,33)" fill="none" stroke-linecap="round"></path><path d="M 41.729,255.095 C 38.179,257.612 36.927,258.429 36.270,262.289" stroke-width="10.176" stroke="rgb(33,33,33)" fill="none" stroke-linecap="round"></path><path d="M 36.270,262.289 C 35.703,265.622 37.103,266.331 39.280,269.482" stroke-width="10.750" stroke="rgb(33,33,33)" fill="none" stroke-linecap="round"></path><path d="M 39.280,269.482 C 41.949,273.345 42.004,273.866 45.963,276.318" stroke-width="11.130" stroke="rgb(33,33,33)" fill="none" stroke-linecap="round"></path><path d="M 45.963,276.318 C 50.447,279.095 50.900,279.375 56.166,279.940" stroke-width="11.307" stroke="rgb(33,33,33)" fill="none" stroke-linecap="round"></path><path d="M 56.166,279.940 C 62.786,280.650 63.173,280.411 69.735,278.869" stroke-width="11.402" stroke="rgb(33,33,33)" fill="none" stroke-linecap="round"></path><path d="M 69.735,278.869 C 77.610,277.018 77.964,277.120 85.039,273.155" stroke-width="11.096" stroke="rgb(33,33,33)" fill="none" stroke-linecap="round"></path><path d="M 85.039,273.155 C 96.763,266.585 96.810,266.237 107.332,257.799" stroke-width="10.133" stroke="rgb(33,33,33)" fill="none" stroke-linecap="round"></path><path d="M 107.332,257.799 C 115.226,251.468 115.083,251.145 121.870,243.617" stroke-width="9.938" stroke="rgb(33,33,33)" fill="none" stroke-linecap="round"></path><path d="M 121.870,243.617 C 129.341,235.330 129.768,235.507 135.848,226.169" stroke-width="9.743" stroke="rgb(33,33,33)" fill="none" stroke-linecap="round"></path><path d="M 135.848,226.169 C 145.148,211.886 145.489,211.800 152.631,196.375" stroke-width="8.733" stroke="rgb(33,33,33)" fill="none" stroke-linecap="round"></path><path d="M 152.631,196.375 C 156.508,188.001 156.688,187.598 157.886,178.571" stroke-width="8.854" stroke="rgb(33,33,33)" fill="none" stroke-linecap="round"></path><path d="M 157.886,178.571 C 158.652,172.804 159.376,170.990 156.559,166.786" stroke-width="9.426" stroke="rgb(33,33,33)" fill="none" stroke-linecap="round"></path><path d="M 156.559,166.786 C 154.351,163.490 152.128,162.991 147.836,163.572" stroke-width="10.128" stroke="rgb(33,33,33)" fill="none" stroke-linecap="round"></path><path d="M 147.836,163.572 C 140.625,164.548 139.877,165.492 133.553,169.898" stroke-width="9.719" stroke="rgb(33,33,33)" fill="none" stroke-linecap="round"></path><path d="M 133.553,169.898 C 124.828,175.976 124.162,176.011 117.738,184.540" stroke-width="9.400" stroke="rgb(33,33,33)" fill="none" stroke-linecap="round"></path><path d="M 117.738,184.540 C 106.639,199.275 106.439,199.728 98.506,216.425" stroke-width="8.575" stroke="rgb(33,33,33)" fill="none" stroke-linecap="round"></path><path d="M 98.506,216.425 C 93.023,227.966 93.578,228.484 90.905,241.015" stroke-width="8.325" stroke="rgb(33,33,33)" fill="none" stroke-linecap="round"></path><path d="M 90.905,241.015 C 88.452,252.513 87.585,252.865 88.253,264.482" stroke-width="8.355" stroke="rgb(33,33,33)" fill="none" stroke-linecap="round"></path><path d="M 88.253,264.482 C 88.912,275.950 88.959,276.973 93.558,287.185" stroke-width="8.391" stroke="rgb(33,33,33)" fill="none" stroke-linecap="round"></path><path d="M 93.558,287.185 C 95.794,292.151 97.486,291.340 101.924,294.837" stroke-width="8.912" stroke="rgb(33,33,33)" fill="none" stroke-linecap="round"></path><path d="M 101.924,294.837 C 105.546,297.691 106.249,296.904 109.678,299.888" stroke-width="9.615" stroke="rgb(33,33,33)" fill="none" stroke-linecap="round"></path><path d="M 109.678,299.888 C 111.555,301.521 112.570,301.919 112.535,304.071" stroke-width="10.395" stroke="rgb(33,33,33)" fill="none" stroke-linecap="round"></path><path d="M 112.535,304.071 C 112.493,306.663 111.580,307.191 109.525,309.377" stroke-width="11.006" stroke="rgb(33,33,33)" fill="none" stroke-linecap="round"></path><path d="M 109.525,309.377 C 105.969,313.160 105.861,313.396 101.312,316.009" stroke-width="11.318" stroke="rgb(33,33,33)" fill="none" stroke-linecap="round"></path><path d="M 101.312,316.009 C 92.138,321.278 91.855,320.956 82.080,325.141" stroke-width="10.573" stroke="rgb(33,33,33)" fill="none" stroke-linecap="round"></path><path d="M 82.080,325.141 C 75.174,328.098 74.862,327.352 67.950,330.293" stroke-width="10.662" stroke="rgb(33,33,33)" fill="none" stroke-linecap="round"></path><path d="M 67.950,330.293 C 59.813,333.755 59.724,333.732 51.982,337.946" stroke-width="10.434" stroke="rgb(33,33,33)" fill="none" stroke-linecap="round"></path><path d="M 51.982,337.946 C 49.648,339.216 48.223,340.512 47.799,341.262" stroke-width="11.176" stroke="rgb(33,33,33)" fill="none" stroke-linecap="round"></path><path d="M 47.799,341.262 C 47.560,341.686 49.293,340.934 50.656,340.293" stroke-width="11.984" stroke="rgb(33,33,33)" fill="none" stroke-linecap="round"></path><path d="M 50.656,340.293 C 56.078,337.745 56.023,337.610 61.369,334.885" stroke-width="11.899" stroke="rgb(33,33,33)" fill="none" stroke-linecap="round"></path><path d="M 61.369,334.885 C 70.435,330.264 70.583,330.533 79.479,325.600" stroke-width="11.404" stroke="rgb(33,33,33)" fill="none" stroke-linecap="round"></path><path d="M 79.479,325.600 C 91.193,319.105 91.961,320.102 102.588,312.030" stroke-width="10.355" stroke="rgb(33,33,33)" fill="none" stroke-linecap="round"></path><path d="M 102.588,312.030 C 120.809,298.190 121.430,298.309 137.174,281.777" stroke-width="8.519" stroke="rgb(33,33,33)" fill="none" stroke-linecap="round"></path><path d="M 137.174,281.777 C 147.472,270.964 147.378,270.358 154.672,257.340" stroke-width="8.430" stroke="rgb(33,33,33)" fill="none" stroke-linecap="round"></path><path d="M 154.672,257.340 C 160.999,246.048 162.089,245.756 164.415,233.158" stroke-width="8.119" stroke="rgb(33,33,33)" fill="none" stroke-linecap="round"></path><path d="M 164.415,233.158 C 167.114,218.539 167.077,217.337 164.722,202.906" stroke-width="7.937" stroke="rgb(33,33,33)" fill="none" stroke-linecap="round"></path><path d="M 164.722,202.906 C 163.659,196.395 162.686,194.089 157.580,191.274" stroke-width="8.397" stroke="rgb(33,33,33)" fill="none" stroke-linecap="round"></path><path d="M 157.580,191.274 C 152.968,188.732 150.171,189.090 145.286,192.192" stroke-width="8.935" stroke="rgb(33,33,33)" fill="none" stroke-linecap="round"></path><path d="M 145.286,192.192 C 135.989,198.095 135.722,199.650 129.216,209.283" stroke-width="9.334" stroke="rgb(33,33,33)" fill="none" stroke-linecap="round"></path><path d="M 129.216,209.283 C 119.958,222.990 119.963,223.462 113.759,238.872" stroke-width="7.008" stroke="rgb(33,33,33)" fill="none" stroke-linecap="round"></path><path d="M 113.759,238.872 C 107.465,254.505 107.099,254.791 104.220,271.369" stroke-width="6.750" stroke="rgb(33,33,33)" fill="none" stroke-linecap="round"></path><path d="M 104.220,271.369 C 101.309,288.130 102.283,288.541 102.179,305.550" stroke-width="6.750" stroke="rgb(33,33,33)" fill="none" stroke-linecap="round"></path><path d="M 102.179,305.550 C 102.156,309.330 102.482,311.499 103.965,312.948" stroke-width="7.374" stroke="rgb(33,33,33)" fill="none" stroke-linecap="round"></path><path d="M 103.965,312.948 C 104.753,313.718 105.900,311.817 106.720,309.989" stroke-width="8.284" stroke="rgb(33,33,33)" fill="none" stroke-linecap="round"></path><path d="M 106.720,309.989 C 111.588,299.139 110.839,298.713 115.341,287.593" stroke-width="8.531" stroke="rgb(33,33,33)" fill="none" stroke-linecap="round"></path><path d="M 115.341,287.593 C 119.741,276.725 119.733,276.714 124.523,266.013" stroke-width="8.320" stroke="rgb(33,33,33)" fill="none" stroke-linecap="round"></path><path d="M 124.523,266.013 C 128.456,257.225 128.224,257.050 132.787,248.616" stroke-width="8.655" stroke="rgb(33,33,33)" fill="none" stroke-linecap="round"></path><path d="M 132.787,248.616 C 134.269,245.877 136.094,242.621 136.613,243.668" stroke-width="9.370" stroke="rgb(33,33,33)" fill="none" stroke-linecap="round"></path><path d="M 136.613,243.668 C 137.497,245.452 136.352,249.007 135.593,254.279" stroke-width="9.778" stroke="rgb(33,33,33)" fill="none" stroke-linecap="round"></path><path d="M 135.593,254.279 C 134.133,264.413 133.595,264.339 132.175,274.481" stroke-width="9.715" stroke="rgb(33,33,33)" fill="none" stroke-linecap="round"></path><path d="M 132.175,274.481 C 130.330,287.653 130.443,287.679 129.063,300.908" stroke-width="9.009" stroke="rgb(33,33,33)" fill="none" stroke-linecap="round"></path><path d="M 129.063,300.908 C 128.708,304.311 128.646,305.788 128.706,307.744" stroke-width="9.798" stroke="rgb(33,33,33)" fill="none" stroke-linecap="round"></path><path d="M 128.706,307.744 C 128.723,308.288 129.025,306.841 129.216,305.908" stroke-width="10.768" stroke="rgb(33,33,33)" fill="none" stroke-linecap="round"></path><path d="M 129.216,305.908 C 130.861,297.888 130.616,297.832 132.379,289.837" stroke-width="10.674" stroke="rgb(33,33,33)" fill="none" stroke-linecap="round"></path><path d="M 132.379,289.837 C 133.805,283.369 133.780,283.348 135.593,276.981" stroke-width="10.752" stroke="rgb(33,33,33)" fill="none" stroke-linecap="round"></path><path d="M 135.593,276.981 C 136.765,272.865 136.544,272.391 138.348,268.870" stroke-width="11.165" stroke="rgb(33,33,33)" fill="none" stroke-linecap="round"></path><path d="M 138.348,268.870 C 138.661,268.259 139.700,268.087 139.827,268.717" stroke-width="12.137" stroke="rgb(33,33,33)" fill="none" stroke-linecap="round"></path><path d="M 139.827,268.717 C 140.618,272.653 140.014,273.359 140.184,278.002" stroke-width="12.403" stroke="rgb(33,33,33)" fill="none" stroke-linecap="round"></path><path d="M 140.184,278.002 C 140.447,285.169 139.794,285.250 140.694,292.337" stroke-width="12.015" stroke="rgb(33,33,33)" fill="none" stroke-linecap="round"></path><path d="M 140.694,292.337 C 141.631,299.713 141.180,300.971 143.857,306.928" stroke-width="11.589" stroke="rgb(33,33,33)" fill="none" stroke-linecap="round"></path><path d="M 143.857,306.928 C 144.470,308.292 146.380,308.250 147.275,306.979" stroke-width="12.394" stroke="rgb(33,33,33)" fill="none" stroke-linecap="round"></path><path d="M 147.275,306.979 C 151.430,301.082 151.140,299.982 153.958,292.592" stroke-width="11.956" stroke="rgb(33,33,33)" fill="none" stroke-linecap="round"></path><path d="M 153.958,292.592 C 156.471,286.004 156.172,285.864 157.937,279.022" stroke-width="11.827" stroke="rgb(33,33,33)" fill="none" stroke-linecap="round"></path><path d="M 157.937,279.022 C 159.436,273.212 159.363,273.181 160.487,267.288" stroke-width="11.775" stroke="rgb(33,33,33)" fill="none" stroke-linecap="round"></path><path d="M 160.487,267.288 C 160.944,264.891 161.309,262.144 161.100,262.442" stroke-width="12.371" stroke="rgb(33,33,33)" fill="none" stroke-linecap="round"></path><path d="M 161.100,262.442 C 160.825,262.833 160.150,265.520 159.518,268.666" stroke-width="12.809" stroke="rgb(33,33,33)" fill="none" stroke-linecap="round"></path><path d="M 159.518,268.666 C 158.033,276.054 157.625,276.024 156.866,283.511" stroke-width="12.332" stroke="rgb(33,33,33)" fill="none" stroke-linecap="round"></path><path d="M 156.866,283.511 C 155.763,294.390 155.734,294.499 155.794,305.397" stroke-width="11.882" stroke="rgb(33,33,33)" fill="none" stroke-linecap="round"></path><path d="M 155.794,305.397 C 155.811,308.477 155.801,309.972 157.019,311.468" stroke-width="12.082" stroke="rgb(33,33,33)" fill="none" stroke-linecap="round"></path><path d="M 157.019,311.468 C 157.587,312.166 158.792,311.063 159.365,309.785" stroke-width="12.800" stroke="rgb(33,33,33)" fill="none" stroke-linecap="round"></path><path d="M 159.365,309.785 C 161.929,304.074 161.695,303.725 163.293,297.490" stroke-width="12.365" stroke="rgb(33,33,33)" fill="none" stroke-linecap="round"></path><path d="M 163.293,297.490 C 164.323,293.471 164.154,293.399 164.620,289.276" stroke-width="12.709" stroke="rgb(33,33,33)" fill="none" stroke-linecap="round"></path><path d="M 164.620,289.276 C 164.817,287.532 164.925,285.732 164.620,285.756" stroke-width="13.308" stroke="rgb(33,33,33)" fill="none" stroke-linecap="round"></path><path d="M 164.620,285.756 C 164.287,285.783 163.789,287.514 163.344,289.378" stroke-width="13.846" stroke="rgb(33,33,33)" fill="none" stroke-linecap="round"></path><path d="M 163.344,289.378 C 162.054,294.784 161.992,294.797 161.151,300.296" stroke-width="13.418" stroke="rgb(33,33,33)" fill="none" stroke-linecap="round"></path><path d="M 161.151,300.296 C 160.155,306.811 159.699,306.857 159.671,313.407" stroke-width="12.959" stroke="rgb(33,33,33)" fill="none" stroke-linecap="round"></path><path d="M 159.671,313.407 C 159.648,318.744 159.269,320.918 161.049,324.069" stroke-width="13.263" stroke="rgb(33,33,33)" fill="none" stroke-linecap="round"></path><path d="M 161.049,324.069 C 161.718,325.254 163.309,323.594 164.569,322.080" stroke-width="13.012" stroke="rgb(33,33,33)" fill="none" stroke-linecap="round"></path><path d="M 164.569,322.080 C 167.747,318.263 167.566,317.918 169.925,313.407" stroke-width="12.940" stroke="rgb(33,33,33)" fill="none" stroke-linecap="round"></path><path d="M 169.925,313.407 C 174.835,304.016 174.760,303.949 179.107,294.276" stroke-width="11.672" stroke="rgb(33,33,33)" fill="none" stroke-linecap="round"></path><path d="M 179.107,294.276 C 182.004,287.828 181.656,287.676 184.413,281.165" stroke-width="11.604" stroke="rgb(33,33,33)" fill="none" stroke-linecap="round"></path><path d="M 184.413,281.165 C 186.171,277.013 186.096,275.392 188.137,272.951" stroke-width="11.851" stroke="rgb(33,33,33)" fill="none" stroke-linecap="round"></path><path d="M 188.137,272.951 C 188.698,272.280 189.579,273.743 189.616,274.941" stroke-width="12.711" stroke="rgb(33,33,33)" fill="none" stroke-linecap="round"></path><path d="M 189.616,274.941 C 189.809,281.243 189.517,281.500 188.596,287.950" stroke-width="12.284" stroke="rgb(33,33,33)" fill="none" stroke-linecap="round"></path><path d="M 188.596,287.950 C 187.196,297.748 187.569,297.896 184.974,307.438" stroke-width="11.723" stroke="rgb(33,33,33)" fill="none" stroke-linecap="round"></path><path d="M 184.974,307.438 C 181.166,321.440 181.737,321.935 175.791,335.038" stroke-width="10.967" stroke="rgb(33,33,33)" fill="none" stroke-linecap="round"></path><path d="M 175.791,335.038 C 172.708,341.832 172.212,342.029 166.915,347.231" stroke-width="10.234" stroke="rgb(33,33,33)" fill="none" stroke-linecap="round"></path><path d="M 166.915,347.231 C 162.239,351.824 161.901,352.100 155.845,354.628" stroke-width="10.440" stroke="rgb(33,33,33)" fill="none" stroke-linecap="round"></path><path d="M 155.845,354.628 C 147.847,357.967 147.396,357.211 138.807,358.965" stroke-width="10.111" stroke="rgb(33,33,33)" fill="none" stroke-linecap="round"></path><path d="M 138.807,358.965 C 135.280,359.685 135.205,359.459 131.614,359.577" stroke-width="10.781" stroke="rgb(33,33,33)" fill="none" stroke-linecap="round"></path><path d="M 131.614,359.577 C 130.537,359.612 129.535,359.615 129.471,359.271" stroke-width="11.707" stroke="rgb(33,33,33)" fill="none" stroke-linecap="round"></path><path d="M 129.471,359.271 C 129.407,358.926 130.431,358.763 131.359,358.199" stroke-width="12.613" stroke="rgb(33,33,33)" fill="none" stroke-linecap="round"></path><path d="M 131.359,358.199 C 133.875,356.670 134.105,356.961 136.358,355.087" stroke-width="12.911" stroke="rgb(33,33,33)" fill="none" stroke-linecap="round"></path><path d="M 136.358,355.087 C 140.915,351.298 141.346,351.560 144.979,346.874" stroke-width="12.628" stroke="rgb(33,33,33)" fill="none" stroke-linecap="round"></path><path d="M 144.979,346.874 C 154.992,333.959 154.870,333.731 163.650,319.886" stroke-width="10.961" stroke="rgb(33,33,33)" fill="none" stroke-linecap="round"></path><path d="M 163.650,319.886 C 171.807,307.024 171.679,306.905 178.852,293.460" stroke-width="9.834" stroke="rgb(33,33,33)" fill="none" stroke-linecap="round"></path><path d="M 178.852,293.460 C 190.732,271.193 190.364,270.991 201.757,248.463" stroke-width="8.295" stroke="rgb(33,33,33)" fill="none" stroke-linecap="round"></path><path d="M 201.757,248.463 C 207.224,237.652 207.106,237.592 212.572,226.781" stroke-width="8.454" stroke="rgb(33,33,33)" fill="none" stroke-linecap="round"></path><path d="M 212.572,226.781 C 214.044,223.869 216.031,220.039 215.633,221.016" stroke-width="9.268" stroke="rgb(33,33,33)" fill="none" stroke-linecap="round"></path><path d="M 215.633,221.016 C 214.857,222.922 212.883,226.760 210.225,232.546" stroke-width="9.507" stroke="rgb(33,33,33)" fill="none" stroke-linecap="round"></path><path d="M 210.225,232.546 C 203.497,247.192 203.517,247.201 196.860,261.880" stroke-width="8.778" stroke="rgb(33,33,33)" fill="none" stroke-linecap="round"></path><path d="M 196.860,261.880 C 187.091,283.423 186.963,283.366 177.373,304.989" stroke-width="8.300" stroke="rgb(33,33,33)" fill="none" stroke-linecap="round"></path><path d="M 177.373,304.989 C 167.221,327.878 167.611,328.053 157.376,350.904" stroke-width="6.750" stroke="rgb(33,33,33)" fill="none" stroke-linecap="round"></path><path d="M 157.376,350.904 C 148.863,369.912 149.375,370.458 139.878,388.707" stroke-width="6.750" stroke="rgb(33,33,33)" fill="none" stroke-linecap="round"></path><path d="M 139.878,388.707 C 138.994,390.406 136.329,392.145 136.613,390.799" stroke-width="6.912" stroke="rgb(33,33,33)" fill="none" stroke-linecap="round"></path><path d="M 136.613,390.799 C 138.038,384.033 138.832,381.079 143.296,372.484" stroke-width="7.442" stroke="rgb(33,33,33)" fill="none" stroke-linecap="round"></path><path d="M 143.296,372.484 C 149.086,361.336 149.794,361.606 157.121,351.312" stroke-width="7.025" stroke="rgb(33,33,33)" fill="none" stroke-linecap="round"></path><path d="M 157.121,351.312 C 166.425,338.240 166.803,338.505 176.557,325.753" stroke-width="6.965" stroke="rgb(33,33,33)" fill="none" stroke-linecap="round"></path><path d="M 176.557,325.753 C 188.050,310.727 188.474,311.038 199.615,295.755" stroke-width="6.973" stroke="rgb(33,33,33)" fill="none" stroke-linecap="round"></path><path d="M 199.615,295.755 C 211.940,278.846 212.350,279.065 223.489,261.370" stroke-width="6.750" stroke="rgb(33,33,33)" fill="none" stroke-linecap="round"></path><path d="M 223.489,261.370 C 234.541,243.813 234.774,243.823 243.996,225.251" stroke-width="6.750" stroke="rgb(33,33,33)" fill="none" stroke-linecap="round"></path><path d="M 243.996,225.251 C 253.393,206.326 252.514,205.872 260.728,186.376" stroke-width="6.750" stroke="rgb(33,33,33)" fill="none" stroke-linecap="round"></path><path d="M 260.728,186.376 C 261.671,184.139 262.751,180.603 262.310,181.785" stroke-width="7.122" stroke="rgb(33,33,33)" fill="none" stroke-linecap="round"></path><path d="M 262.310,181.785 C 260.915,185.526 259.760,189.032 257.055,196.222" stroke-width="7.415" stroke="rgb(33,33,33)" fill="none" stroke-linecap="round"></path><path d="M 257.055,196.222 C 248.129,219.948 248.001,219.901 239.048,243.617" stroke-width="6.793" stroke="rgb(33,33,33)" fill="none" stroke-linecap="round"></path><path d="M 239.048,243.617 C 231.448,263.749 231.333,263.707 223.948,283.919" stroke-width="6.750" stroke="rgb(33,33,33)" fill="none" stroke-linecap="round"></path><path d="M 223.948,283.919 C 215.927,305.873 216.699,306.170 208.236,327.947" stroke-width="6.750" stroke="rgb(33,33,33)" fill="none" stroke-linecap="round"></path><path d="M 208.236,327.947 C 200.630,347.519 201.292,347.946 191.810,366.617" stroke-width="6.750" stroke="rgb(33,33,33)" fill="none" stroke-linecap="round"></path><path d="M 191.810,366.617 C 184.840,380.341 184.332,380.243 175.332,392.737" stroke-width="6.750" stroke="rgb(33,33,33)" fill="none" stroke-linecap="round"></path><path d="M 175.332,392.737 C 169.283,401.134 168.829,400.871 161.712,408.399" stroke-width="6.750" stroke="rgb(33,33,33)" fill="none" stroke-linecap="round"></path><path d="M 161.712,408.399 C 158.218,412.095 155.069,415.379 154.111,415.185" stroke-width="7.255" stroke="rgb(33,33,33)" fill="none" stroke-linecap="round"></path><path d="M 154.111,415.185 C 153.309,415.022 155.879,411.266 158.192,407.685" stroke-width="7.994" stroke="rgb(33,33,33)" fill="none" stroke-linecap="round"></path><path d="M 158.192,407.685 C 162.816,400.527 162.545,400.263 167.986,393.707" stroke-width="8.299" stroke="rgb(33,33,33)" fill="none" stroke-linecap="round"></path><path d="M 167.986,393.707 C 178.869,380.596 178.754,380.346 190.840,368.352" stroke-width="8.064" stroke="rgb(33,33,33)" fill="none" stroke-linecap="round"></path><path d="M 190.840,368.352 C 198.777,360.475 199.050,360.635 208.032,353.965" stroke-width="8.359" stroke="rgb(33,33,33)" fill="none" stroke-linecap="round"></path><path d="M 208.032,353.965 C 215.986,348.059 216.203,348.298 224.713,343.200" stroke-width="8.287" stroke="rgb(33,33,33)" fill="none" stroke-linecap="round"></path><path d="M 224.713,343.200 C 232.043,338.809 232.043,338.740 239.711,334.987" stroke-width="8.441" stroke="rgb(33,33,33)" fill="none" stroke-linecap="round"></path><path d="M 239.711,334.987 C 245.332,332.236 245.362,332.114 251.291,330.191" stroke-width="9.022" stroke="rgb(33,33,33)" fill="none" stroke-linecap="round"></path><path d="M 251.291,330.191 C 254.723,329.078 254.843,329.333 258.433,328.916" stroke-width="9.678" stroke="rgb(33,33,33)" fill="none" stroke-linecap="round"></path><path d="M 258.433,328.916 C 260.327,328.696 260.728,329.732 262.259,328.916" stroke-width="10.537" stroke="rgb(33,33,33)" fill="none" stroke-linecap="round"></path><path d="M 262.259,328.916 C 264.172,327.896 264.071,327.277 265.320,325.243" stroke-width="11.290" stroke="rgb(33,33,33)" fill="none" stroke-linecap="round"></path><path d="M 265.320,325.243 C 273.075,312.610 273.227,312.648 280.266,299.582" stroke-width="10.205" stroke="rgb(33,33,33)" fill="none" stroke-linecap="round"></path></svg>