<svg xmlns="http://www.w3.org/2000/svg" xmlns:xlink="http://www.w3.org/1999/xlink" viewBox="0 0 800 500"><path d="M 346.000,203.500 C 346.000,208.500 346.000,208.500 346.000,213.500" stroke-width="18.321" stroke="rgb(33,33,33)" fill="none" stroke-linecap="round"></path><path d="M 346.000,213.500 C 346.000,215.000 346.000,215.000 346.000,216.500" stroke-width="17.469" stroke="rgb(33,33,33)" fill="none" stroke-linecap="round"></path><path d="M 346.000,216.500 C 346.000,219.500 346.000,219.500 346.000,222.500" stroke-width="16.842" stroke="rgb(33,33,33)" fill="none" stroke-linecap="round"></path><path d="M 346.000,222.500 C 346.000,226.000 345.795,226.010 346.000,229.500" stroke-width="16.335" stroke="rgb(33,33,33)" fill="none" stroke-linecap="round"></path><path d="M 346.000,229.500 C 346.295,234.510 346.524,234.498 347.000,239.500" stroke-width="15.372" stroke="rgb(33,33,33)" fill="none" stroke-linecap="round"></path><path d="M 347.000,239.500 C 347.524,244.998 347.450,245.005 348.000,250.500" stroke-width="14.548" stroke="rgb(33,33,33)" fill="none" stroke-linecap="round"></path><path d="M 348.000,250.500 C 348.450,255.005 348.438,255.008 349.000,259.500" stroke-width="14.260" stroke="rgb(33,33,33)" fill="none" stroke-linecap="round"></path><path d="M 349.000,259.500 C 349.438,263.008 349.707,262.985 350.000,266.500" stroke-width="14.315" stroke="rgb(33,33,33)" fill="none" stroke-linecap="round"></path><path d="M 350.000,266.500 C 350.207,268.985 350.000,269.000 350.000,271.500" stroke-width="14.524" stroke="rgb(33,33,33)" fill="none" stroke-linecap="round"></path><path d="M 350.000,271.500 C 350.000,274.000 350.000,274.000 350.000,276.500" stroke-width="14.736" stroke="rgb(33,33,33)" fill="none" stroke-linecap="round"></path><path d="M 350.000,276.500 C 350.000,279.000 350.528,279.125 350.000,281.500" stroke-width="14.869" stroke="rgb(33,33,33)" fill="none" stroke-linecap="round"></path><path d="M 350.000,281.500 C 349.528,283.625 349.416,283.848 348.000,285.500" stroke-width="15.051" stroke="rgb(33,33,33)" fill="none" stroke-linecap="round"></path><path d="M 348.000,285.500 C 346.416,287.348 346.167,287.296 344.000,288.500" stroke-width="15.167" stroke="rgb(33,33,33)" fill="none" stroke-linecap="round"></path><path d="M 344.000,288.500 C 341.667,289.796 341.551,289.650 339.000,290.500" stroke-width="15.209" stroke="rgb(33,33,33)" fill="none" stroke-linecap="round"></path><path d="M 339.000,290.500 C 335.551,291.650 335.573,292.024 332.000,292.500" stroke-width="14.932" stroke="rgb(33,33,33)" fill="none" stroke-linecap="round"></path><path d="M 332.000,292.500 C 328.073,293.024 327.984,292.251 324.000,292.500" stroke-width="14.684" stroke="rgb(33,33,33)" fill="none" stroke-linecap="round"></path><path d="M 324.000,292.500 C 319.984,292.751 320.003,293.029 316.000,293.500" stroke-width="14.484" stroke="rgb(33,33,33)" fill="none" stroke-linecap="round"></path><path d="M 316.000,293.500 C 311.503,294.029 311.515,294.262 307.000,294.500" stroke-width="14.144" stroke="rgb(33,33,33)" fill="none" stroke-linecap="round"></path><path d="M 307.000,294.500 C 302.015,294.762 302.000,294.500 297.000,294.500" stroke-width="13.842" stroke="rgb(33,33,33)" fill="none" stroke-linecap="round"></path><path d="M 297.000,294.500 C 292.000,294.500 292.000,294.500 287.000,294.500" stroke-width="13.609" stroke="rgb(33,33,33)" fill="none" stroke-linecap="round"></path><path d="M 287.000,294.500 C 281.500,294.500 281.500,294.500 276.000,294.500" stroke-width="13.253" stroke="rgb(33,33,33)" fill="none" stroke-linecap="round"></path><path d="M 276.000,294.500 C 271.000,294.500 271.000,294.500 266.000,294.500" stroke-width="13.149" stroke="rgb(33,33,33)" fill="none" stroke-linecap="round"></path><path d="M 266.000,294.500 C 261.500,294.500 261.436,295.022 257.000,294.500" stroke-width="13.168" stroke="rgb(33,33,33)" fill="none" stroke-linecap="round"></path><path d="M 257.000,294.500 C 252.936,294.022 252.860,293.879 249.000,292.500" stroke-width="13.206" stroke="rgb(33,33,33)" fill="none" stroke-linecap="round"></path><path d="M 249.000,292.500 C 245.860,291.379 245.772,291.348 243.000,289.500" stroke-width="13.450" stroke="rgb(33,33,33)" fill="none" stroke-linecap="round"></path><path d="M 243.000,289.500 C 239.772,287.348 239.331,287.530 237.000,284.500" stroke-width="13.533" stroke="rgb(33,33,33)" fill="none" stroke-linecap="round"></path><path d="M 237.000,284.500 C 234.331,281.030 234.402,280.705 233.000,276.500" stroke-width="13.420" stroke="rgb(33,33,33)" fill="none" stroke-linecap="round"></path><path d="M 233.000,276.500 C 231.402,271.705 231.459,271.554 231.000,266.500" stroke-width="13.260" stroke="rgb(33,33,33)" fill="none" stroke-linecap="round"></path><path d="M 231.000,266.500 C 230.459,260.554 231.000,260.500 231.000,254.500" stroke-width="12.957" stroke="rgb(33,33,33)" fill="none" stroke-linecap="round"></path><path d="M 231.000,254.500 C 231.000,248.000 230.260,247.916 231.000,241.500" stroke-width="12.556" stroke="rgb(33,33,33)" fill="none" stroke-linecap="round"></path><path d="M 231.000,241.500 C 231.760,234.916 232.108,234.885 234.000,228.500" stroke-width="12.294" stroke="rgb(33,33,33)" fill="none" stroke-linecap="round"></path><path d="M 234.000,228.500 C 236.108,221.385 236.077,221.320 239.000,214.500" stroke-width="11.964" stroke="rgb(33,33,33)" fill="none" stroke-linecap="round"></path><path d="M 239.000,214.500 C 242.077,207.320 242.020,207.216 246.000,200.500" stroke-width="11.650" stroke="rgb(33,33,33)" fill="none" stroke-linecap="round"></path><path d="M 246.000,200.500 C 250.020,193.716 250.337,193.881 255.000,187.500" stroke-width="11.324" stroke="rgb(33,33,33)" fill="none" stroke-linecap="round"></path><path d="M 255.000,187.500 C 259.837,180.881 259.492,180.532 265.000,174.500" stroke-width="11.105" stroke="rgb(33,33,33)" fill="none" stroke-linecap="round"></path><path d="M 265.000,174.500 C 269.992,169.032 270.206,169.135 276.000,164.500" stroke-width="11.043" stroke="rgb(33,33,33)" fill="none" stroke-linecap="round"></path><path d="M 276.000,164.500 C 282.706,159.135 282.682,158.985 290.000,154.500" stroke-width="10.832" stroke="rgb(33,33,33)" fill="none" stroke-linecap="round"></path><path d="M 290.000,154.500 C 298.182,149.485 298.400,149.800 307.000,145.500" stroke-width="10.460" stroke="rgb(33,33,33)" fill="none" stroke-linecap="round"></path><path d="M 307.000,145.500 C 315.400,141.300 315.214,140.737 324.000,137.500" stroke-width="10.280" stroke="rgb(33,33,33)" fill="none" stroke-linecap="round"></path><path d="M 324.000,137.500 C 334.214,133.737 334.388,134.027 345.000,131.500" stroke-width="9.884" stroke="rgb(33,33,33)" fill="none" stroke-linecap="round"></path><path d="M 345.000,131.500 C 355.388,129.027 355.423,128.942 366.000,127.500" stroke-width="9.686" stroke="rgb(33,33,33)" fill="none" stroke-linecap="round"></path><path d="M 366.000,127.500 C 377.423,125.942 377.479,126.012 389.000,125.500" stroke-width="9.445" stroke="rgb(33,33,33)" fill="none" stroke-linecap="round"></path><path d="M 389.000,125.500 C 399.979,125.012 400.325,123.677 411.000,125.500" stroke-width="9.314" stroke="rgb(33,33,33)" fill="none" stroke-linecap="round"></path><path d="M 411.000,125.500 C 420.825,127.177 421.599,127.219 430.000,132.500" stroke-width="9.237" stroke="rgb(33,33,33)" fill="none" stroke-linecap="round"></path><path d="M 430.000,132.500 C 439.099,138.219 439.654,138.747 446.000,147.500" stroke-width="9.089" stroke="rgb(33,33,33)" fill="none" stroke-linecap="round"></path><path d="M 446.000,147.500 C 454.154,158.747 454.212,159.334 459.000,172.500" stroke-width="8.751" stroke="rgb(33,33,33)" fill="none" stroke-linecap="round"></path><path d="M 459.000,172.500 C 466.212,192.334 465.350,192.807 470.000,213.500" stroke-width="7.939" stroke="rgb(33,33,33)" fill="none" stroke-linecap="round"></path><path d="M 470.000,213.500 C 475.350,237.307 475.143,237.396 479.000,261.500" stroke-width="7.194" stroke="rgb(33,33,33)" fill="none" stroke-linecap="round"></path><path d="M 210.000,295.500 C 215.500,295.000 215.497,294.959 221.000,294.500" stroke-width="15.868" stroke="rgb(33,33,33)" fill="none" stroke-linecap="round"></path><path d="M 221.000,294.500 C 227.497,293.959 227.656,294.813 234.000,293.500" stroke-width="12.232" stroke="rgb(33,33,33)" fill="none" stroke-linecap="round"></path><path d="M 234.000,293.500 C 242.156,291.813 242.029,291.091 250.000,288.500" stroke-width="11.837" stroke="rgb(33,33,33)" fill="none" stroke-linecap="round"></path><path d="M 250.000,288.500 C 262.029,284.591 262.095,284.768 274.000,280.500" stroke-width="10.851" stroke="rgb(33,33,33)" fill="none" stroke-linecap="round"></path><path d="M 274.000,280.500 C 288.595,275.268 288.433,274.818 303.000,269.500" stroke-width="9.733" stroke="rgb(33,33,33)" fill="none" stroke-linecap="round"></path><path d="M 303.000,269.500 C 319.933,263.318 320.102,263.776 337.000,257.500" stroke-width="8.747" stroke="rgb(33,33,33)" fill="none" stroke-linecap="round"></path><path d="M 337.000,257.500 C 355.102,250.776 354.697,249.601 373.000,243.500" stroke-width="7.988" stroke="rgb(33,33,33)" fill="none" stroke-linecap="round"></path><path d="M 373.000,243.500 C 393.697,236.601 394.068,237.730 415.000,231.500" stroke-width="7.385" stroke="rgb(33,33,33)" fill="none" stroke-linecap="round"></path><path d="M 415.000,231.500 C 436.068,225.230 435.851,224.472 457.000,218.500" stroke-width="6.957" stroke="rgb(33,33,33)" fill="none" stroke-linecap="round"></path><path d="M 457.000,218.500 C 478.351,212.472 478.378,212.471 500.000,207.500" stroke-width="6.750" stroke="rgb(33,33,33)" fill="none" stroke-linecap="round"></path><path d="M 500.000,207.500 C 521.878,202.471 522.167,203.698 544.000,198.500" stroke-width="6.750" stroke="rgb(33,33,33)" fill="none" stroke-linecap="round"></path><path d="M 544.000,198.500 C 564.167,193.698 563.844,192.348 584.000,187.500" stroke-width="6.750" stroke="rgb(33,33,33)" fill="none" stroke-linecap="round"></path><path d="M 584.000,187.500 C 603.344,182.848 603.481,183.404 623.000,179.500" stroke-width="6.750" stroke="rgb(33,33,33)" fill="none" stroke-linecap="round"></path><path d="M 623.000,179.500 C 638.481,176.404 638.498,176.492 654.000,173.500" stroke-width="6.750" stroke="rgb(33,33,33)" fill="none" stroke-linecap="round"></path><path d="M 654.000,173.500 C 666.998,170.992 666.953,170.721 680.000,168.500" stroke-width="6.750" stroke="rgb(33,33,33)" fill="none" stroke-linecap="round"></path><path d="M 680.000,168.500 C 690.453,166.721 690.577,167.395 701.000,165.500" stroke-width="6.953" stroke="rgb(33,33,33)" fill="none" stroke-linecap="round"></path><path d="M 701.000,165.500 C 707.077,164.395 706.984,163.932 713.000,162.500" stroke-width="7.514" stroke="rgb(33,33,33)" fill="none" stroke-linecap="round"></path><path d="M 713.000,162.500 C 717.484,161.432 717.687,161.938 722.000,160.500" stroke-width="8.217" stroke="rgb(33,33,33)" fill="none" stroke-linecap="round"></path><path d="M 497.000,174.500 C 492.000,177.000 492.067,177.161 487.000,179.500" stroke-width="17.767" stroke="rgb(33,33,33)" fill="none" stroke-linecap="round"></path><path d="M 487.000,179.500 C 485.567,180.161 485.146,179.468 484.000,180.500" stroke-width="17.005" stroke="rgb(33,33,33)" fill="none" stroke-linecap="round"></path><path d="M 484.000,180.500 C 480.146,183.968 480.100,184.208 477.000,188.500" stroke-width="15.523" stroke="rgb(33,33,33)" fill="none" stroke-linecap="round"></path><path d="M 477.000,188.500 C 473.600,193.208 474.113,193.571 471.000,198.500" stroke-width="14.746" stroke="rgb(33,33,33)" fill="none" stroke-linecap="round"></path><path d="M 471.000,198.500 C 468.113,203.071 467.505,202.740 465.000,207.500" stroke-width="14.202" stroke="rgb(33,33,33)" fill="none" stroke-linecap="round"></path><path d="M 465.000,207.500 C 462.505,212.240 462.699,212.403 461.000,217.500" stroke-width="13.726" stroke="rgb(33,33,33)" fill="none" stroke-linecap="round"></path><path d="M 461.000,217.500 C 459.699,221.403 459.508,221.439 459.000,225.500" stroke-width="13.652" stroke="rgb(33,33,33)" fill="none" stroke-linecap="round"></path><path d="M 459.000,225.500 C 458.508,229.439 459.000,229.500 459.000,233.500" stroke-width="13.675" stroke="rgb(33,33,33)" fill="none" stroke-linecap="round"></path><path d="M 459.000,233.500 C 459.000,237.500 459.000,237.500 459.000,241.500" stroke-width="13.694" stroke="rgb(33,33,33)" fill="none" stroke-linecap="round"></path><path d="M 459.000,241.500 C 459.000,247.500 458.750,247.510 459.000,253.500" stroke-width="13.286" stroke="rgb(33,33,33)" fill="none" stroke-linecap="round"></path><path d="M 459.000,253.500 C 459.250,259.510 459.310,259.521 460.000,265.500" stroke-width="12.817" stroke="rgb(33,33,33)" fill="none" stroke-linecap="round"></path><path d="M 460.000,265.500 C 460.810,272.521 461.438,272.469 462.000,279.500" stroke-width="12.492" stroke="rgb(33,33,33)" fill="none" stroke-linecap="round"></path><path d="M 462.000,279.500 C 462.438,284.969 462.572,285.070 462.000,290.500" stroke-width="12.390" stroke="rgb(33,33,33)" fill="none" stroke-linecap="round"></path><path d="M 462.000,290.500 C 461.572,294.570 461.808,294.884 460.000,298.500" stroke-width="12.621" stroke="rgb(33,33,33)" fill="none" stroke-linecap="round"></path><path d="M 460.000,298.500 C 457.808,302.884 457.603,303.123 454.000,306.500" stroke-width="12.589" stroke="rgb(33,33,33)" fill="none" stroke-linecap="round"></path><path d="M 454.000,306.500 C 449.603,310.623 449.339,310.608 444.000,313.500" stroke-width="12.420" stroke="rgb(33,33,33)" fill="none" stroke-linecap="round"></path><path d="M 444.000,313.500 C 437.339,317.108 436.852,316.192 430.000,319.500" stroke-width="12.028" stroke="rgb(33,33,33)" fill="none" stroke-linecap="round"></path><path d="M 430.000,319.500 C 422.352,323.192 422.648,323.808 415.000,327.500" stroke-width="11.592" stroke="rgb(33,33,33)" fill="none" stroke-linecap="round"></path><path d="M 415.000,327.500 C 408.148,330.808 408.149,330.926 401.000,333.500" stroke-width="11.398" stroke="rgb(33,33,33)" fill="none" stroke-linecap="round"></path><path d="M 401.000,333.500 C 395.649,335.426 395.573,335.385 390.000,336.500" stroke-width="11.419" stroke="rgb(33,33,33)" fill="none" stroke-linecap="round"></path><path d="M 390.000,336.500 C 385.573,337.385 385.508,337.153 381.000,337.500" stroke-width="11.778" stroke="rgb(33,33,33)" fill="none" stroke-linecap="round"></path><path d="M 381.000,337.500 C 379.008,337.653 377.980,338.807 377.000,337.500" stroke-width="12.458" stroke="rgb(33,33,33)" fill="none" stroke-linecap="round"></path><path d="M 377.000,337.500 C 374.980,334.807 375.371,333.577 375.000,329.500" stroke-width="12.677" stroke="rgb(33,33,33)" fill="none" stroke-linecap="round"></path><path d="M 375.000,329.500 C 374.371,322.577 373.989,322.376 375.000,315.500" stroke-width="12.328" stroke="rgb(33,33,33)" fill="none" stroke-linecap="round"></path><path d="M 375.000,315.500 C 376.489,305.376 375.981,304.877 380.000,295.500" stroke-width="11.429" stroke="rgb(33,33,33)" fill="none" stroke-linecap="round"></path><path d="M 380.000,295.500 C 384.981,283.877 385.811,284.027 393.000,273.500" stroke-width="10.558" stroke="rgb(33,33,33)" fill="none" stroke-linecap="round"></path><path d="M 393.000,273.500 C 399.811,263.527 399.615,263.139 408.000,254.500" stroke-width="10.029" stroke="rgb(33,33,33)" fill="none" stroke-linecap="round"></path><path d="M 408.000,254.500 C 416.115,246.139 416.853,246.817 426.000,239.500" stroke-width="9.684" stroke="rgb(33,33,33)" fill="none" stroke-linecap="round"></path><path d="M 426.000,239.500 C 436.853,230.817 436.545,230.323 448.000,222.500" stroke-width="9.026" stroke="rgb(33,33,33)" fill="none" stroke-linecap="round"></path><path d="M 448.000,222.500 C 457.045,216.323 457.199,216.400 467.000,211.500" stroke-width="9.045" stroke="rgb(33,33,33)" fill="none" stroke-linecap="round"></path><path d="M 467.000,211.500 C 477.199,206.400 477.169,205.934 488.000,202.500" stroke-width="8.895" stroke="rgb(33,33,33)" fill="none" stroke-linecap="round"></path><path d="M 488.000,202.500 C 497.669,199.434 497.916,199.652 508.000,198.500" stroke-width="8.896" stroke="rgb(33,33,33)" fill="none" stroke-linecap="round"></path><path d="M 508.000,198.500 C 515.416,197.652 515.642,197.485 523.000,198.500" stroke-width="9.215" stroke="rgb(33,33,33)" fill="none" stroke-linecap="round"></path><path d="M 523.000,198.500 C 530.142,199.485 530.931,199.032 537.000,202.500" stroke-width="9.510" stroke="rgb(33,33,33)" fill="none" stroke-linecap="round"></path><path d="M 537.000,202.500 C 541.431,205.032 541.087,206.130 544.000,210.500" stroke-width="9.945" stroke="rgb(33,33,33)" fill="none" stroke-linecap="round"></path><path d="M 544.000,210.500 C 546.087,213.630 546.218,213.853 547.000,217.500" stroke-width="10.554" stroke="rgb(33,33,33)" fill="none" stroke-linecap="round"></path><path d="M 547.000,217.500 C 547.718,220.853 547.818,221.227 547.000,224.500" stroke-width="11.143" stroke="rgb(33,33,33)" fill="none" stroke-linecap="round"></path><path d="M 547.000,224.500 C 546.318,227.227 546.171,227.724 544.000,229.500" stroke-width="11.728" stroke="rgb(33,33,33)" fill="none" stroke-linecap="round"></path><path d="M 544.000,229.500 C 540.671,232.224 540.207,232.185 536.000,233.500" stroke-width="12.007" stroke="rgb(33,33,33)" fill="none" stroke-linecap="round"></path><path d="M 536.000,233.500 C 532.207,234.685 532.014,234.232 528.000,234.500" stroke-width="12.317" stroke="rgb(33,33,33)" fill="none" stroke-linecap="round"></path><path d="M 528.000,234.500 C 524.514,234.732 524.471,234.789 521.000,234.500" stroke-width="12.634" stroke="rgb(33,33,33)" fill="none" stroke-linecap="round"></path><path d="M 521.000,234.500 C 518.471,234.289 517.727,235.011 516.000,233.500" stroke-width="13.130" stroke="rgb(33,33,33)" fill="none" stroke-linecap="round"></path><path d="M 516.000,233.500 C 513.727,231.511 513.851,230.692 513.000,227.500" stroke-width="13.387" stroke="rgb(33,33,33)" fill="none" stroke-linecap="round"></path><path d="M 513.000,227.500 C 511.851,223.192 511.787,222.981 512.000,218.500" stroke-width="13.293" stroke="rgb(33,33,33)" fill="none" stroke-linecap="round"></path><path d="M 512.000,218.500 C 512.287,212.481 512.094,212.219 514.000,206.500" stroke-width="12.966" stroke="rgb(33,33,33)" fill="none" stroke-linecap="round"></path><path d="M 514.000,206.500 C 516.594,198.719 516.931,198.680 521.000,191.500" stroke-width="12.316" stroke="rgb(33,33,33)" fill="none" stroke-linecap="round"></path><path d="M 521.000,191.500 C 525.431,183.680 525.642,183.733 531.000,176.500" stroke-width="11.723" stroke="rgb(33,33,33)" fill="none" stroke-linecap="round"></path><path d="M 531.000,176.500 C 535.642,170.233 535.387,169.845 541.000,164.500" stroke-width="11.394" stroke="rgb(33,33,33)" fill="none" stroke-linecap="round"></path><path d="M 541.000,164.500 C 545.887,159.845 546.060,159.612 552.000,156.500" stroke-width="11.365" stroke="rgb(33,33,33)" fill="none" stroke-linecap="round"></path><path d="M 552.000,156.500 C 556.560,154.112 556.922,154.629 562.000,153.500" stroke-width="11.532" stroke="rgb(33,33,33)" fill="none" stroke-linecap="round"></path><path d="M 562.000,153.500 C 565.922,152.629 566.077,152.220 570.000,152.500" stroke-width="11.915" stroke="rgb(33,33,33)" fill="none" stroke-linecap="round"></path><path d="M 570.000,152.500 C 573.077,152.720 573.659,152.679 576.000,154.500" stroke-width="12.392" stroke="rgb(33,33,33)" fill="none" stroke-linecap="round"></path><path d="M 576.000,154.500 C 578.159,156.179 577.828,156.864 579.000,159.500" stroke-width="12.850" stroke="rgb(33,33,33)" fill="none" stroke-linecap="round"></path><path d="M 579.000,159.500 C 579.828,161.364 579.711,161.474 580.000,163.500" stroke-width="13.391" stroke="rgb(33,33,33)" fill="none" stroke-linecap="round"></path><path d="M 580.000,163.500 C 580.211,164.974 580.000,165.000 580.000,166.500" stroke-width="14.013" stroke="rgb(33,33,33)" fill="none" stroke-linecap="round"></path><path d="M 580.000,166.500 C 580.000,168.000 580.286,168.068 580.000,169.500" stroke-width="14.531" stroke="rgb(33,33,33)" fill="none" stroke-linecap="round"></path><path d="M 580.000,169.500 C 579.786,170.568 579.613,170.581 579.000,171.500" stroke-width="15.099" stroke="rgb(33,33,33)" fill="none" stroke-linecap="round"></path><path d="M 579.000,171.500 C 578.613,172.081 578.586,172.207 578.000,172.500" stroke-width="15.690" stroke="rgb(33,33,33)" fill="none" stroke-linecap="round"></path><path d="M 578.000,172.500 C 577.586,172.707 577.167,172.833 577.000,172.500" stroke-width="16.283" stroke="rgb(33,33,33)" fill="none" stroke-linecap="round"></path><path d="M 577.000,172.500 C 576.667,171.833 576.876,171.490 577.000,170.500" stroke-width="16.772" stroke="rgb(33,33,33)" fill="none" stroke-linecap="round"></path><path d="M 577.000,170.500 C 577.376,167.490 576.782,167.179 578.000,164.500" stroke-width="16.417" stroke="rgb(33,33,33)" fill="none" stroke-linecap="round"></path><path d="M 578.000,164.500 C 579.282,161.679 579.653,161.634 582.000,159.500" stroke-width="15.985" stroke="rgb(33,33,33)" fill="none" stroke-linecap="round"></path><path d="M 582.000,159.500 C 585.153,156.634 585.287,156.622 589.000,154.500" stroke-width="15.403" stroke="rgb(33,33,33)" fill="none" stroke-linecap="round"></path><path d="M 589.000,154.500 C 592.287,152.622 592.357,152.472 596.000,151.500" stroke-width="15.097" stroke="rgb(33,33,33)" fill="none" stroke-linecap="round"></path><path d="M 596.000,151.500 C 599.857,150.472 599.987,150.787 604.000,150.500" stroke-width="14.740" stroke="rgb(33,33,33)" fill="none" stroke-linecap="round"></path><path d="M 604.000,150.500 C 606.987,150.287 607.000,150.500 610.000,150.500" stroke-width="14.785" stroke="rgb(33,33,33)" fill="none" stroke-linecap="round"></path><path d="M 610.000,150.500 C 612.000,150.500 612.302,149.772 614.000,150.500" stroke-width="15.048" stroke="rgb(33,33,33)" fill="none" stroke-linecap="round"></path><path d="M 614.000,150.500 C 615.802,151.272 615.854,151.781 617.000,153.500" stroke-width="15.266" stroke="rgb(33,33,33)" fill="none" stroke-linecap="round"></path><path d="M 617.000,153.500 C 617.854,154.781 617.779,154.955 618.000,156.500" stroke-width="15.596" stroke="rgb(33,33,33)" fill="none" stroke-linecap="round"></path><path d="M 618.000,156.500 C 618.279,158.455 618.472,158.611 618.000,160.500" stroke-width="15.749" stroke="rgb(33,33,33)" fill="none" stroke-linecap="round"></path><path d="M 618.000,160.500 C 617.472,162.611 617.225,162.662 616.000,164.500" stroke-width="15.805" stroke="rgb(33,33,33)" fill="none" stroke-linecap="round"></path><path d="M 616.000,164.500 C 615.225,165.662 615.108,165.761 614.000,166.500" stroke-width="16.067" stroke="rgb(33,33,33)" fill="none" stroke-linecap="round"></path><path d="M 614.000,166.500 C 613.608,166.761 613.250,166.750 613.000,166.500" stroke-width="16.661" stroke="rgb(33,33,33)" fill="none" stroke-linecap="round"></path><path d="M 613.000,166.500 C 612.750,166.250 612.690,165.872 613.000,165.500" stroke-width="17.198" stroke="rgb(33,33,33)" fill="none" stroke-linecap="round"></path><path d="M 613.000,165.500 C 615.190,162.872 615.308,162.778 618.000,160.500" stroke-width="16.591" stroke="rgb(33,33,33)" fill="none" stroke-linecap="round"></path><path d="M 618.000,160.500 C 621.808,157.278 621.812,157.210 626.000,154.500" stroke-width="15.461" stroke="rgb(33,33,33)" fill="none" stroke-linecap="round"></path><path d="M 626.000,154.500 C 630.312,151.710 630.357,151.699 635.000,149.500" stroke-width="14.793" stroke="rgb(33,33,33)" fill="none" stroke-linecap="round"></path><path d="M 635.000,149.500 C 639.857,147.199 639.827,146.793 645.000,145.500" stroke-width="14.242" stroke="rgb(33,33,33)" fill="none" stroke-linecap="round"></path><path d="M 645.000,145.500 C 649.827,144.293 649.988,144.751 655.000,144.500" stroke-width="13.840" stroke="rgb(33,33,33)" fill="none" stroke-linecap="round"></path><path d="M 655.000,144.500 C 659.988,144.251 660.108,143.766 665.000,144.500" stroke-width="13.608" stroke="rgb(33,33,33)" fill="none" stroke-linecap="round"></path><path d="M 665.000,144.500 C 670.108,145.266 670.153,145.615 675.000,147.500" stroke-width="13.381" stroke="rgb(33,33,33)" fill="none" stroke-linecap="round"></path><path d="M 675.000,147.500 C 679.153,149.115 679.263,149.098 683.000,151.500" stroke-width="13.301" stroke="rgb(33,33,33)" fill="none" stroke-linecap="round"></path><path d="M 683.000,151.500 C 686.263,153.598 686.084,153.908 689.000,156.500" stroke-width="13.412" stroke="rgb(33,33,33)" fill="none" stroke-linecap="round"></path><path d="M 689.000,156.500 C 690.584,157.908 690.225,158.486 692.000,159.500" stroke-width="13.891" stroke="rgb(33,33,33)" fill="none" stroke-linecap="round"></path><path d="M 692.000,159.500 C 693.725,160.486 694.081,159.780 696.000,160.500" stroke-width="14.313" stroke="rgb(33,33,33)" fill="none" stroke-linecap="round"></path><path d="M 696.000,160.500 C 698.081,161.280 697.897,161.799 700.000,162.500" stroke-width="14.592" stroke="rgb(33,33,33)" fill="none" stroke-linecap="round"></path><path d="M 700.000,162.500 C 702.397,163.299 702.512,162.947 705.000,163.500" stroke-width="14.739" stroke="rgb(33,33,33)" fill="none" stroke-linecap="round"></path><path d="M 705.000,163.500 C 707.012,163.947 707.019,163.934 709.000,164.500" stroke-width="15.026" stroke="rgb(33,33,33)" fill="none" stroke-linecap="round"></path><path d="M 709.000,164.500 C 710.519,164.934 710.469,165.194 712.000,165.500" stroke-width="15.396" stroke="rgb(33,33,33)" fill="none" stroke-linecap="round"></path><path d="M 712.000,165.500 C 712.969,165.694 713.000,165.500 714.000,165.500" stroke-width="15.854" stroke="rgb(33,33,33)" fill="none" stroke-linecap="round"></path><path d="M 714.000,165.500 C 714.500,165.500 714.750,165.750 715.000,165.500" stroke-width="16.416" stroke="rgb(33,33,33)" fill="none" stroke-linecap="round"></path></svg>