<svg xmlns="http://www.w3.org/2000/svg" xmlns:xlink="http://www.w3.org/1999/xlink" viewBox="0 0 320 500"><path d="M 39.000,294.500 C 35.000,294.000 32.214,295.685 31.000,293.500" stroke-width="19.729" stroke="rgb(33,33,33)" fill="none" stroke-linecap="round"></path><path d="M 31.000,293.500 C 29.714,291.185 32.318,289.424 34.000,285.500" stroke-width="17.953" stroke="rgb(33,33,33)" fill="none" stroke-linecap="round"></path><path d="M 34.000,285.500 C 36.818,278.924 37.386,279.153 40.000,272.500" stroke-width="15.935" stroke="rgb(33,33,33)" fill="none" stroke-linecap="round"></path><path d="M 40.000,272.500 C 42.886,265.153 42.573,265.024 45.000,257.500" stroke-width="14.544" stroke="rgb(33,33,33)" fill="none" stroke-linecap="round"></path><path d="M 45.000,257.500 C 47.573,249.524 47.165,249.374 50.000,241.500" stroke-width="13.293" stroke="rgb(33,33,33)" fill="none" stroke-linecap="round"></path><path d="M 50.000,241.500 C 51.665,236.874 51.691,236.830 54.000,232.500" stroke-width="13.134" stroke="rgb(33,33,33)" fill="none" stroke-linecap="round"></path><path d="M 54.000,232.500 C 55.691,229.330 55.343,228.272 58.000,226.500" stroke-width="13.337" stroke="rgb(33,33,33)" fill="none" stroke-linecap="round"></path><path d="M 58.000,226.500 C 59.843,225.272 61.167,225.167 63.000,226.500" stroke-width="13.709" stroke="rgb(33,33,33)" fill="none" stroke-linecap="round"></path><path d="M 63.000,226.500 C 66.667,229.167 67.407,229.864 69.000,234.500" stroke-width="13.440" stroke="rgb(33,33,33)" fill="none" stroke-linecap="round"></path><path d="M 69.000,234.500 C 72.907,245.864 72.122,246.399 74.000,258.500" stroke-width="11.955" stroke="rgb(33,33,33)" fill="none" stroke-linecap="round"></path><path d="M 74.000,258.500 C 76.622,275.399 76.239,275.476 78.000,292.500" stroke-width="10.343" stroke="rgb(33,33,33)" fill="none" stroke-linecap="round"></path><path d="M 78.000,292.500 C 79.239,304.476 79.441,304.482 80.000,316.500" stroke-width="9.880" stroke="rgb(33,33,33)" fill="none" stroke-linecap="round"></path><path d="M 80.000,316.500 C 80.441,325.982 80.000,326.000 80.000,335.500" stroke-width="9.749" stroke="rgb(33,33,33)" fill="none" stroke-linecap="round"></path><path d="M 80.000,335.500 C 80.000,344.500 81.409,344.762 80.000,353.500" stroke-width="9.766" stroke="rgb(33,33,33)" fill="none" stroke-linecap="round"></path><path d="M 80.000,353.500 C 78.909,360.262 77.636,360.056 75.000,366.500" stroke-width="10.012" stroke="rgb(33,33,33)" fill="none" stroke-linecap="round"></path><path d="M 75.000,366.500 C 73.136,371.056 72.974,370.989 71.000,375.500" stroke-width="10.432" stroke="rgb(33,33,33)" fill="none" stroke-linecap="round"></path><path d="M 71.000,375.500 C 69.474,378.989 69.575,379.035 68.000,382.500" stroke-width="10.990" stroke="rgb(33,33,33)" fill="none" stroke-linecap="round"></path><path d="M 108.000,343.500 C 109.000,336.500 108.504,336.383 110.000,329.500" stroke-width="18.392" stroke="rgb(33,33,33)" fill="none" stroke-linecap="round"></path><path d="M 110.000,329.500 C 111.004,324.883 111.619,325.037 113.000,320.500" stroke-width="16.883" stroke="rgb(33,33,33)" fill="none" stroke-linecap="round"></path><path d="M 113.000,320.500 C 115.119,313.537 115.037,313.510 117.000,306.500" stroke-width="15.326" stroke="rgb(33,33,33)" fill="none" stroke-linecap="round"></path><path d="M 117.000,306.500 C 118.537,301.010 118.200,300.900 120.000,295.500" stroke-width="14.469" stroke="rgb(33,33,33)" fill="none" stroke-linecap="round"></path><path d="M 120.000,295.500 C 121.700,290.400 122.570,290.647 124.000,285.500" stroke-width="14.001" stroke="rgb(33,33,33)" fill="none" stroke-linecap="round"></path><path d="M 124.000,285.500 C 125.070,281.647 124.691,281.512 125.000,277.500" stroke-width="13.890" stroke="rgb(33,33,33)" fill="none" stroke-linecap="round"></path><path d="M 125.000,277.500 C 125.191,275.012 125.000,275.000 125.000,272.500" stroke-width="14.173" stroke="rgb(33,33,33)" fill="none" stroke-linecap="round"></path><path d="M 125.000,272.500 C 125.000,271.000 125.408,268.684 125.000,269.500" stroke-width="14.692" stroke="rgb(33,33,33)" fill="none" stroke-linecap="round"></path><path d="M 125.000,269.500 C 123.408,272.684 122.286,274.841 121.000,280.500" stroke-width="14.742" stroke="rgb(33,33,33)" fill="none" stroke-linecap="round"></path><path d="M 121.000,280.500 C 119.786,285.841 120.204,285.987 120.000,291.500" stroke-width="14.092" stroke="rgb(33,33,33)" fill="none" stroke-linecap="round"></path><path d="M 120.000,291.500 C 119.704,299.487 119.058,299.653 120.000,307.500" stroke-width="13.168" stroke="rgb(33,33,33)" fill="none" stroke-linecap="round"></path><path d="M 120.000,307.500 C 120.558,312.153 120.708,312.489 123.000,316.500" stroke-width="13.134" stroke="rgb(33,33,33)" fill="none" stroke-linecap="round"></path><path d="M 123.000,316.500 C 124.708,319.489 124.963,320.098 128.000,321.500" stroke-width="13.306" stroke="rgb(33,33,33)" fill="none" stroke-linecap="round"></path><path d="M 128.000,321.500 C 131.463,323.098 132.004,322.500 136.000,322.500" stroke-width="13.390" stroke="rgb(33,33,33)" fill="none" stroke-linecap="round"></path><path d="M 136.000,322.500 C 139.504,322.500 140.929,323.760 143.000,321.500" stroke-width="13.563" stroke="rgb(33,33,33)" fill="none" stroke-linecap="round"></path><path d="M 143.000,321.500 C 146.429,317.760 145.590,316.138 147.000,310.500" stroke-width="13.143" stroke="rgb(33,33,33)" fill="none" stroke-linecap="round"></path><path d="M 147.000,310.500 C 148.090,306.138 147.360,305.978 148.000,301.500" stroke-width="13.157" stroke="rgb(33,33,33)" fill="none" stroke-linecap="round"></path><path d="M 148.000,301.500 C 148.360,298.978 148.500,299.000 149.000,296.500" stroke-width="13.579" stroke="rgb(33,33,33)" fill="none" stroke-linecap="round"></path><path d="M 149.000,296.500 C 149.500,294.000 149.582,294.008 150.000,291.500" stroke-width="13.901" stroke="rgb(33,33,33)" fill="none" stroke-linecap="round"></path><path d="M 150.000,291.500 C 150.082,291.008 149.880,290.260 150.000,290.500" stroke-width="14.704" stroke="rgb(33,33,33)" fill="none" stroke-linecap="round"></path><path d="M 150.000,290.500 C 150.380,291.260 150.638,291.962 151.000,293.500" stroke-width="15.124" stroke="rgb(33,33,33)" fill="none" stroke-linecap="round"></path><path d="M 151.000,293.500 C 152.638,300.462 152.500,300.500 154.000,307.500" stroke-width="13.964" stroke="rgb(33,33,33)" fill="none" stroke-linecap="round"></path><path d="M 154.000,307.500 C 155.500,314.500 155.121,314.611 157.000,321.500" stroke-width="13.248" stroke="rgb(33,33,33)" fill="none" stroke-linecap="round"></path><path d="M 157.000,321.500 C 158.121,325.611 158.242,325.632 160.000,329.500" stroke-width="13.293" stroke="rgb(33,33,33)" fill="none" stroke-linecap="round"></path><path d="M 160.000,329.500 C 160.742,331.132 160.826,331.326 162.000,332.500" stroke-width="13.834" stroke="rgb(33,33,33)" fill="none" stroke-linecap="round"></path><path d="M 162.000,332.500 C 162.326,332.826 162.950,332.950 163.000,332.500" stroke-width="14.645" stroke="rgb(33,33,33)" fill="none" stroke-linecap="round"></path><path d="M 163.000,332.500 C 163.450,328.450 162.796,327.992 163.000,323.500" stroke-width="14.340" stroke="rgb(33,33,33)" fill="none" stroke-linecap="round"></path><path d="M 163.000,323.500 C 163.296,316.992 163.675,317.007 164.000,310.500" stroke-width="13.566" stroke="rgb(33,33,33)" fill="none" stroke-linecap="round"></path><path d="M 164.000,310.500 C 164.175,307.007 163.340,306.800 164.000,303.500" stroke-width="13.715" stroke="rgb(33,33,33)" fill="none" stroke-linecap="round"></path><path d="M 164.000,303.500 C 164.340,301.800 164.750,301.750 166.000,300.500" stroke-width="14.224" stroke="rgb(33,33,33)" fill="none" stroke-linecap="round"></path><path d="M 166.000,300.500 C 167.250,299.250 167.534,298.291 169.000,298.500" stroke-width="14.632" stroke="rgb(33,33,33)" fill="none" stroke-linecap="round"></path><path d="M 169.000,298.500 C 171.034,298.791 171.609,299.476 173.000,301.500" stroke-width="14.824" stroke="rgb(33,33,33)" fill="none" stroke-linecap="round"></path><path d="M 173.000,301.500 C 177.109,307.476 176.833,307.849 180.000,314.500" stroke-width="13.808" stroke="rgb(33,33,33)" fill="none" stroke-linecap="round"></path><path d="M 180.000,314.500 C 181.833,318.349 181.467,318.513 183.000,322.500" stroke-width="13.682" stroke="rgb(33,33,33)" fill="none" stroke-linecap="round"></path><path d="M 183.000,322.500 C 183.967,325.013 183.940,325.027 185.000,327.500" stroke-width="13.991" stroke="rgb(33,33,33)" fill="none" stroke-linecap="round"></path><path d="M 185.000,327.500 C 185.440,328.527 185.208,328.972 186.000,329.500" stroke-width="14.630" stroke="rgb(33,33,33)" fill="none" stroke-linecap="round"></path><path d="M 186.000,329.500 C 186.708,329.972 187.702,330.295 188.000,329.500" stroke-width="15.199" stroke="rgb(33,33,33)" fill="none" stroke-linecap="round"></path><path d="M 188.000,329.500 C 189.202,326.295 188.372,325.480 189.000,321.500" stroke-width="14.882" stroke="rgb(33,33,33)" fill="none" stroke-linecap="round"></path><path d="M 189.000,321.500 C 189.872,315.980 189.970,315.994 191.000,310.500" stroke-width="14.259" stroke="rgb(33,33,33)" fill="none" stroke-linecap="round"></path><path d="M 191.000,310.500 C 191.470,307.994 190.923,307.296 192.000,305.500" stroke-width="14.466" stroke="rgb(33,33,33)" fill="none" stroke-linecap="round"></path><path d="M 192.000,305.500 C 192.423,304.796 193.000,305.500 194.000,305.500" stroke-width="15.088" stroke="rgb(33,33,33)" fill="none" stroke-linecap="round"></path><path d="M 194.000,305.500 C 195.500,305.500 196.279,304.419 197.000,305.500" stroke-width="15.470" stroke="rgb(33,33,33)" fill="none" stroke-linecap="round"></path><path d="M 197.000,305.500 C 199.279,308.919 198.572,309.977 200.000,314.500" stroke-width="14.827" stroke="rgb(33,33,33)" fill="none" stroke-linecap="round"></path><path d="M 200.000,314.500 C 201.572,319.477 201.351,319.552 203.000,324.500" stroke-width="14.307" stroke="rgb(33,33,33)" fill="none" stroke-linecap="round"></path><path d="M 203.000,324.500 C 203.851,327.052 203.361,327.588 205.000,329.500" stroke-width="14.468" stroke="rgb(33,33,33)" fill="none" stroke-linecap="round"></path><path d="M 205.000,329.500 C 206.361,331.088 206.881,331.288 209.000,331.500" stroke-width="14.756" stroke="rgb(33,33,33)" fill="none" stroke-linecap="round"></path><path d="M 209.000,331.500 C 211.881,331.788 213.328,332.628 215.000,330.500" stroke-width="14.787" stroke="rgb(33,33,33)" fill="none" stroke-linecap="round"></path><path d="M 215.000,330.500 C 218.828,325.628 217.373,323.948 220.000,317.500" stroke-width="13.779" stroke="rgb(33,33,33)" fill="none" stroke-linecap="round"></path><path d="M 220.000,317.500 C 222.873,310.448 222.262,310.041 226.000,303.500" stroke-width="13.107" stroke="rgb(33,33,33)" fill="none" stroke-linecap="round"></path><path d="M 226.000,303.500 C 228.262,299.541 228.633,299.530 232.000,296.500" stroke-width="13.054" stroke="rgb(33,33,33)" fill="none" stroke-linecap="round"></path><path d="M 232.000,296.500 C 233.633,295.030 233.875,294.972 236.000,294.500" stroke-width="13.558" stroke="rgb(33,33,33)" fill="none" stroke-linecap="round"></path><path d="M 236.000,294.500 C 238.375,293.972 239.152,293.444 241.000,294.500" stroke-width="13.895" stroke="rgb(33,33,33)" fill="none" stroke-linecap="round"></path><path d="M 241.000,294.500 C 242.652,295.444 242.504,296.351 243.000,298.500" stroke-width="14.243" stroke="rgb(33,33,33)" fill="none" stroke-linecap="round"></path><path d="M 243.000,298.500 C 244.004,302.851 243.749,302.986 244.000,307.500" stroke-width="14.024" stroke="rgb(33,33,33)" fill="none" stroke-linecap="round"></path><path d="M 244.000,307.500 C 244.249,311.986 244.000,312.000 244.000,316.500" stroke-width="13.860" stroke="rgb(33,33,33)" fill="none" stroke-linecap="round"></path><path d="M 244.000,316.500 C 244.000,319.500 243.730,319.527 244.000,322.500" stroke-width="14.025" stroke="rgb(33,33,33)" fill="none" stroke-linecap="round"></path><path d="M 244.000,322.500 C 244.230,325.027 243.600,325.634 245.000,327.500" stroke-width="14.344" stroke="rgb(33,33,33)" fill="none" stroke-linecap="round"></path><path d="M 245.000,327.500 C 246.600,329.634 247.248,329.910 250.000,330.500" stroke-width="14.441" stroke="rgb(33,33,33)" fill="none" stroke-linecap="round"></path><path d="M 250.000,330.500 C 254.248,331.410 254.620,331.296 259.000,330.500" stroke-width="14.184" stroke="rgb(33,33,33)" fill="none" stroke-linecap="round"></path><path d="M 259.000,330.500 C 265.620,329.296 266.472,330.114 272.000,326.500" stroke-width="13.480" stroke="rgb(33,33,33)" fill="none" stroke-linecap="round"></path><path d="M 272.000,326.500 C 279.472,321.614 280.325,321.128 285.000,313.500" stroke-width="12.411" stroke="rgb(33,33,33)" fill="none" stroke-linecap="round"></path><path d="M 285.000,313.500 C 289.825,305.628 289.706,304.777 291.000,295.500" stroke-width="11.716" stroke="rgb(33,33,33)" fill="none" stroke-linecap="round"></path><path d="M 291.000,295.500 C 292.706,283.277 293.036,282.715 291.000,270.500" stroke-width="10.789" stroke="rgb(33,33,33)" fill="none" stroke-linecap="round"></path><path d="M 291.000,270.500 C 288.036,252.715 287.223,252.545 281.000,235.500" stroke-width="9.390" stroke="rgb(33,33,33)" fill="none" stroke-linecap="round"></path></svg>