<svg xmlns="http://www.w3.org/2000/svg" xmlns:xlink="http://www.w3.org/1999/xlink" viewBox="0 0 800 500"><path stroke-linecap="round" fill="none" stroke="rgb(33,33,33)" stroke-width="19.858" d="M 148.500,126.500 C 149.000,128.000 148.859,128.058 149.500,129.500"></path><path stroke-linecap="round" fill="none" stroke="rgb(33,33,33)" stroke-width="16.771" d="M 149.500,129.500 C 150.859,132.558 151.326,132.371 152.500,135.500"></path><path stroke-linecap="round" fill="none" stroke="rgb(33,33,33)" stroke-width="14.485" d="M 152.500,135.500 C 154.326,140.371 153.531,140.686 155.500,145.500"></path><path stroke-linecap="round" fill="none" stroke="rgb(33,33,33)" stroke-width="11.900" d="M 155.500,145.500 C 158.031,151.686 158.707,151.405 161.500,157.500"></path><path stroke-linecap="round" fill="none" stroke="rgb(33,33,33)" stroke-width="10.944" d="M 161.500,157.500 C 164.207,163.405 164.526,163.331 166.500,169.500"></path><path stroke-linecap="round" fill="none" stroke="rgb(33,33,33)" stroke-width="9.823" d="M 166.500,169.500 C 168.526,175.831 167.727,176.074 169.500,182.500"></path><path stroke-linecap="round" fill="none" stroke="rgb(33,33,33)" stroke-width="9.402" d="M 169.500,182.500 C 171.727,190.574 171.987,190.504 174.500,198.500"></path><path stroke-linecap="round" fill="none" stroke="rgb(33,33,33)" stroke-width="7.445" d="M 174.500,198.500 C 177.487,208.004 177.797,207.916 180.500,217.500"></path><path stroke-linecap="round" fill="none" stroke="rgb(33,33,33)" stroke-width="7.361" d="M 180.500,217.500 C 183.297,227.416 182.863,227.537 185.500,237.500"></path><path stroke-linecap="round" fill="none" stroke="rgb(33,33,33)" stroke-width="6.788" d="M 185.500,237.500 C 187.363,244.537 187.735,244.441 189.500,251.500"></path><path stroke-linecap="round" fill="none" stroke="rgb(33,33,33)" stroke-width="6.877" d="M 189.500,251.500 C 191.235,258.441 191.096,258.481 192.500,265.500"></path><path stroke-linecap="round" fill="none" stroke="rgb(33,33,33)" stroke-width="7.222" d="M 192.500,265.500 C 193.596,270.981 193.628,270.980 194.500,276.500"></path><path stroke-linecap="round" fill="none" stroke="rgb(33,33,33)" stroke-width="7.574" d="M 194.500,276.500 C 195.128,280.480 195.000,280.500 195.500,284.500"></path><path stroke-linecap="round" fill="none" stroke="rgb(33,33,33)" stroke-width="8.042" d="M 195.500,284.500 C 196.000,288.500 195.838,288.530 196.500,292.500"></path><path stroke-linecap="round" fill="none" stroke="rgb(33,33,33)" stroke-width="8.683" d="M 196.500,292.500 C 196.838,294.530 196.852,294.555 197.500,296.500"></path><path stroke-linecap="round" fill="none" stroke="rgb(33,33,33)" stroke-width="9.572" d="M 197.500,296.500 C 197.852,297.555 198.155,298.155 198.500,298.500"></path><path stroke-linecap="round" fill="none" stroke="rgb(33,33,33)" stroke-width="10.677" d="M 198.500,298.500 C 198.655,298.655 198.500,298.000 198.500,297.500"></path><path stroke-linecap="round" fill="none" stroke="rgb(33,33,33)" stroke-width="10.722" d="M 198.500,297.500 C 198.500,294.500 198.500,294.500 198.500,291.500"></path><path stroke-linecap="round" fill="none" stroke="rgb(33,33,33)" stroke-width="10.356" d="M 198.500,291.500 C 198.500,286.000 198.938,285.969 198.500,280.500"></path><path stroke-linecap="round" fill="none" stroke="rgb(33,33,33)" stroke-width="9.339" d="M 198.500,280.500 C 197.938,273.469 197.802,273.445 196.500,266.500"></path><path stroke-linecap="round" fill="none" stroke="rgb(33,33,33)" stroke-width="8.637" d="M 196.500,266.500 C 194.802,257.445 194.432,257.515 192.500,248.500"></path><path stroke-linecap="round" fill="none" stroke="rgb(33,33,33)" stroke-width="7.295" d="M 192.500,248.500 C 189.932,236.515 189.144,236.625 187.500,224.500"></path><path stroke-linecap="round" fill="none" stroke="rgb(33,33,33)" stroke-width="6.750" d="M 187.500,224.500 C 185.144,207.125 185.734,207.019 184.500,189.500"></path><path stroke-linecap="round" fill="none" stroke="rgb(33,33,33)" stroke-width="6.750" d="M 184.500,189.500 C 183.234,171.519 183.063,171.512 182.500,153.500"></path><path stroke-linecap="round" fill="none" stroke="rgb(33,33,33)" stroke-width="6.750" d="M 182.500,153.500 C 182.063,139.512 182.500,139.500 182.500,125.500"></path><path stroke-linecap="round" fill="none" stroke="rgb(33,33,33)" stroke-width="6.750" d="M 182.500,125.500 C 182.500,110.000 182.500,110.000 182.500,94.500"></path><path stroke-linecap="round" fill="none" stroke="rgb(33,33,33)" stroke-width="6.750" d="M 182.500,94.500 C 182.500,83.500 182.500,83.500 182.500,72.500"></path><path stroke-linecap="round" fill="none" stroke="rgb(33,33,33)" stroke-width="6.750" d="M 182.500,72.500 C 182.500,66.500 181.771,66.328 182.500,60.500"></path><path stroke-linecap="round" fill="none" stroke="rgb(33,33,33)" stroke-width="6.750" d="M 182.500,60.500 C 182.771,58.328 183.683,58.543 184.500,56.500"></path><path stroke-linecap="round" fill="none" stroke="rgb(33,33,33)" stroke-width="6.852" d="M 184.500,56.500 C 184.683,56.043 184.167,55.667 184.500,55.500"></path><path stroke-linecap="round" fill="none" stroke="rgb(33,33,33)" stroke-width="7.835" d="M 184.500,55.500 C 185.167,55.167 185.672,55.086 186.500,55.500"></path><path stroke-linecap="round" fill="none" stroke="rgb(33,33,33)" stroke-width="8.406" d="M 186.500,55.500 C 187.672,56.086 187.561,56.444 188.500,57.500"></path><path stroke-linecap="round" fill="none" stroke="rgb(33,33,33)" stroke-width="8.683" d="M 188.500,57.500 C 191.561,60.944 192.390,60.514 194.500,64.500"></path><path stroke-linecap="round" fill="none" stroke="rgb(33,33,33)" stroke-width="8.704" d="M 194.500,64.500 C 196.890,69.014 195.980,69.506 197.500,74.500"></path><path stroke-linecap="round" fill="none" stroke="rgb(33,33,33)" stroke-width="8.433" d="M 197.500,74.500 C 199.480,81.006 199.568,80.980 201.500,87.500"></path><path stroke-linecap="round" fill="none" stroke="rgb(33,33,33)" stroke-width="7.982" d="M 201.500,87.500 C 203.568,94.480 204.181,94.378 205.500,101.500"></path><path stroke-linecap="round" fill="none" stroke="rgb(33,33,33)" stroke-width="8.038" d="M 205.500,101.500 C 206.681,107.878 206.259,107.990 206.500,114.500"></path><path stroke-linecap="round" fill="none" stroke="rgb(33,33,33)" stroke-width="7.742" d="M 206.500,114.500 C 206.759,121.490 206.741,121.508 206.500,128.500"></path><path stroke-linecap="round" fill="none" stroke="rgb(33,33,33)" stroke-width="7.710" d="M 206.500,128.500 C 206.241,136.008 207.091,136.225 205.500,143.500"></path><path stroke-linecap="round" fill="none" stroke="rgb(33,33,33)" stroke-width="7.190" d="M 205.500,143.500 C 203.591,152.225 202.733,152.093 199.500,160.500"></path><path stroke-linecap="round" fill="none" stroke="rgb(33,33,33)" stroke-width="7.642" d="M 199.500,160.500 C 197.733,165.093 197.902,165.230 195.500,169.500"></path><path stroke-linecap="round" fill="none" stroke="rgb(33,33,33)" stroke-width="7.768" d="M 195.500,169.500 C 193.402,173.230 193.244,173.207 190.500,176.500"></path><path stroke-linecap="round" fill="none" stroke="rgb(33,33,33)" stroke-width="8.291" d="M 190.500,176.500 C 188.244,179.207 188.124,179.138 185.500,181.500"></path><path stroke-linecap="round" fill="none" stroke="rgb(33,33,33)" stroke-width="8.665" d="M 185.500,181.500 C 183.124,183.638 183.216,183.870 180.500,185.500"></path><path stroke-linecap="round" fill="none" stroke="rgb(33,33,33)" stroke-width="9.250" d="M 180.500,185.500 C 178.216,186.870 177.896,186.302 175.500,187.500"></path><path stroke-linecap="round" fill="none" stroke="rgb(33,33,33)" stroke-width="9.857" d="M 175.500,187.500 C 173.896,188.302 174.098,188.701 172.500,189.500"></path><path stroke-linecap="round" fill="none" stroke="rgb(33,33,33)" stroke-width="10.581" d="M 172.500,189.500 C 171.098,190.201 171.040,190.243 169.500,190.500"></path><path stroke-linecap="round" fill="none" stroke="rgb(33,33,33)" stroke-width="11.146" d="M 169.500,190.500 C 168.040,190.743 167.960,190.257 166.500,190.500"></path><path stroke-linecap="round" fill="none" stroke="rgb(33,33,33)" stroke-width="11.796" d="M 166.500,190.500 C 164.960,190.757 165.031,191.194 163.500,191.500"></path><path stroke-linecap="round" fill="none" stroke="rgb(33,33,33)" stroke-width="12.348" d="M 163.500,191.500 C 162.531,191.694 162.500,191.500 161.500,191.500"></path><path stroke-linecap="round" fill="none" stroke="rgb(33,33,33)" stroke-width="13.048" d="M 161.500,191.500 C 160.500,191.500 160.500,191.500 159.500,191.500"></path><path stroke-linecap="round" fill="none" stroke="rgb(33,33,33)" stroke-width="13.426" d="M 159.500,191.500 C 158.500,191.500 158.167,191.167 157.500,191.500"></path><path stroke-linecap="round" fill="none" stroke="rgb(33,33,33)" stroke-width="14.347" d="M 157.500,191.500 C 157.167,191.667 157.239,192.108 157.500,192.500"></path><path stroke-linecap="round" fill="none" stroke="rgb(33,33,33)" stroke-width="14.465" d="M 157.500,192.500 C 158.239,193.608 158.581,193.428 159.500,194.500"></path><path stroke-linecap="round" fill="none" stroke="rgb(33,33,33)" stroke-width="13.474" d="M 159.500,194.500 C 161.581,196.928 161.248,197.248 163.500,199.500"></path><path stroke-linecap="round" fill="none" stroke="rgb(33,33,33)" stroke-width="12.850" d="M 163.500,199.500 C 166.248,202.248 166.633,201.854 169.500,204.500"></path><path stroke-linecap="round" fill="none" stroke="rgb(33,33,33)" stroke-width="11.614" d="M 169.500,204.500 C 173.133,207.854 173.428,207.660 176.500,211.500"></path><path stroke-linecap="round" fill="none" stroke="rgb(33,33,33)" stroke-width="11.354" d="M 176.500,211.500 C 179.428,215.160 178.572,215.840 181.500,219.500"></path><path stroke-linecap="round" fill="none" stroke="rgb(33,33,33)" stroke-width="10.349" d="M 181.500,219.500 C 184.572,223.340 185.134,222.876 188.500,226.500"></path><path stroke-linecap="round" fill="none" stroke="rgb(33,33,33)" stroke-width="10.386" d="M 188.500,226.500 C 191.634,229.876 191.252,230.252 194.500,233.500"></path><path stroke-linecap="round" fill="none" stroke="rgb(33,33,33)" stroke-width="10.024" d="M 194.500,233.500 C 197.252,236.252 197.272,236.348 200.500,238.500"></path><path stroke-linecap="round" fill="none" stroke="rgb(33,33,33)" stroke-width="10.304" d="M 200.500,238.500 C 203.272,240.348 203.500,240.000 206.500,241.500"></path><path stroke-linecap="round" fill="none" stroke="rgb(33,33,33)" stroke-width="10.311" d="M 206.500,241.500 C 209.500,243.000 209.375,243.364 212.500,244.500"></path><path stroke-linecap="round" fill="none" stroke="rgb(33,33,33)" stroke-width="10.746" d="M 212.500,244.500 C 214.875,245.364 214.982,245.185 217.500,245.500"></path><path stroke-linecap="round" fill="none" stroke="rgb(33,33,33)" stroke-width="11.293" d="M 217.500,245.500 C 218.982,245.685 219.000,245.500 220.500,245.500"></path><path stroke-linecap="round" fill="none" stroke="rgb(33,33,33)" stroke-width="12.061" d="M 220.500,245.500 C 221.500,245.500 221.500,245.500 222.500,245.500"></path><path stroke-linecap="round" fill="none" stroke="rgb(33,33,33)" stroke-width="12.653" d="M 222.500,245.500 C 223.500,245.500 224.214,246.214 224.500,245.500"></path><path stroke-linecap="round" fill="none" stroke="rgb(33,33,33)" stroke-width="12.725" d="M 224.500,245.500 C 225.214,243.714 223.906,242.878 224.500,240.500"></path><path stroke-linecap="round" fill="none" stroke="rgb(33,33,33)" stroke-width="11.977" d="M 224.500,240.500 C 225.406,236.878 226.528,237.143 227.500,233.500"></path><path stroke-linecap="round" fill="none" stroke="rgb(33,33,33)" stroke-width="11.693" d="M 227.500,233.500 C 228.528,229.643 228.078,229.508 228.500,225.500"></path><path stroke-linecap="round" fill="none" stroke="rgb(33,33,33)" stroke-width="10.652" d="M 228.500,225.500 C 229.078,220.008 229.076,220.006 229.500,214.500"></path><path stroke-linecap="round" fill="none" stroke="rgb(33,33,33)" stroke-width="9.855" d="M 229.500,214.500 C 230.076,207.006 230.241,207.008 230.500,199.500"></path><path stroke-linecap="round" fill="none" stroke="rgb(33,33,33)" stroke-width="9.025" d="M 230.500,199.500 C 230.741,192.508 230.500,192.500 230.500,185.500"></path><path stroke-linecap="round" fill="none" stroke="rgb(33,33,33)" stroke-width="8.747" d="M 230.500,185.500 C 230.500,177.500 230.500,177.500 230.500,169.500"></path><path stroke-linecap="round" fill="none" stroke="rgb(33,33,33)" stroke-width="7.448" d="M 230.500,169.500 C 230.500,159.500 230.500,159.500 230.500,149.500"></path><path stroke-linecap="round" fill="none" stroke="rgb(33,33,33)" stroke-width="7.500" d="M 230.500,149.500 C 230.500,143.000 230.500,143.000 230.500,136.500"></path><path stroke-linecap="round" fill="none" stroke="rgb(33,33,33)" stroke-width="7.519" d="M 230.500,136.500 C 230.500,129.000 231.294,128.910 230.500,121.500"></path><path stroke-linecap="round" fill="none" stroke="rgb(33,33,33)" stroke-width="7.402" d="M 230.500,121.500 C 229.794,114.910 228.594,115.065 227.500,108.500"></path><path stroke-linecap="round" fill="none" stroke="rgb(33,33,33)" stroke-width="7.688" d="M 227.500,108.500 C 226.594,103.065 227.145,102.981 226.500,97.500"></path><path stroke-linecap="round" fill="none" stroke="rgb(33,33,33)" stroke-width="8.162" d="M 226.500,97.500 C 226.145,94.481 225.835,94.514 225.500,91.500"></path><path stroke-linecap="round" fill="none" stroke="rgb(33,33,33)" stroke-width="8.994" d="M 225.500,91.500 C 225.335,90.014 225.500,90.000 225.500,88.500"></path><path stroke-linecap="round" fill="none" stroke="rgb(33,33,33)" stroke-width="9.976" d="M 225.500,88.500 C 225.500,88.000 225.750,87.750 225.500,87.500"></path><path stroke-linecap="round" fill="none" stroke="rgb(33,33,33)" stroke-width="11.054" d="M 225.500,87.500 C 225.250,87.250 224.750,87.250 224.500,87.500"></path><path stroke-linecap="round" fill="none" stroke="rgb(33,33,33)" stroke-width="11.954" d="M 224.500,87.500 C 224.250,87.750 224.500,88.000 224.500,88.500"></path><path stroke-linecap="round" fill="none" stroke="rgb(33,33,33)" stroke-width="12.152" d="M 224.500,88.500 C 224.500,91.000 224.500,91.000 224.500,93.500"></path><path stroke-linecap="round" fill="none" stroke="rgb(33,33,33)" stroke-width="11.495" d="M 224.500,93.500 C 224.500,97.500 224.500,97.500 224.500,101.500"></path><path stroke-linecap="round" fill="none" stroke="rgb(33,33,33)" stroke-width="10.924" d="M 224.500,101.500 C 224.500,107.000 224.094,107.025 224.500,112.500"></path><path stroke-linecap="round" fill="none" stroke="rgb(33,33,33)" stroke-width="9.446" d="M 224.500,112.500 C 225.094,120.525 225.468,120.504 226.500,128.500"></path><path stroke-linecap="round" fill="none" stroke="rgb(33,33,33)" stroke-width="9.131" d="M 226.500,128.500 C 227.468,136.004 228.043,135.964 228.500,143.500"></path><path stroke-linecap="round" fill="none" stroke="rgb(33,33,33)" stroke-width="8.138" d="M 228.500,143.500 C 229.043,152.464 227.860,152.540 228.500,161.500"></path><path stroke-linecap="round" fill="none" stroke="rgb(33,33,33)" stroke-width="7.244" d="M 228.500,161.500 C 229.360,173.540 230.326,173.470 231.500,185.500"></path><path stroke-linecap="round" fill="none" stroke="rgb(33,33,33)" stroke-width="6.928" d="M 231.500,185.500 C 232.326,193.970 231.609,194.039 232.500,202.500"></path><path stroke-linecap="round" fill="none" stroke="rgb(33,33,33)" stroke-width="6.835" d="M 232.500,202.500 C 233.609,213.039 234.080,212.989 235.500,223.500"></path><path stroke-linecap="round" fill="none" stroke="rgb(33,33,33)" stroke-width="6.750" d="M 235.500,223.500 C 236.580,231.489 236.399,231.514 237.500,239.500"></path><path stroke-linecap="round" fill="none" stroke="rgb(33,33,33)" stroke-width="6.923" d="M 237.500,239.500 C 238.399,246.014 238.612,245.985 239.500,252.500"></path><path stroke-linecap="round" fill="none" stroke="rgb(33,33,33)" stroke-width="6.977" d="M 239.500,252.500 C 240.112,256.985 239.617,257.084 240.500,261.500"></path><path stroke-linecap="round" fill="none" stroke="rgb(33,33,33)" stroke-width="7.680" d="M 240.500,261.500 C 241.117,264.584 241.822,264.448 242.500,267.500"></path><path stroke-linecap="round" fill="none" stroke="rgb(33,33,33)" stroke-width="8.335" d="M 242.500,267.500 C 242.822,268.948 242.500,269.000 242.500,270.500"></path><path stroke-linecap="round" fill="none" stroke="rgb(33,33,33)" stroke-width="9.374" d="M 242.500,270.500 C 242.500,271.000 242.250,271.250 242.500,271.500"></path><path stroke-linecap="round" fill="none" stroke="rgb(33,33,33)" stroke-width="10.237" d="M 242.500,271.500 C 242.750,271.750 243.417,271.917 243.500,271.500"></path><path stroke-linecap="round" fill="none" stroke="rgb(33,33,33)" stroke-width="11.170" d="M 243.500,271.500 C 243.917,269.417 243.691,268.988 243.500,266.500"></path><path stroke-linecap="round" fill="none" stroke="rgb(33,33,33)" stroke-width="11.069" d="M 243.500,266.500 C 243.191,262.488 242.701,262.519 242.500,258.500"></path><path stroke-linecap="round" fill="none" stroke="rgb(33,33,33)" stroke-width="10.093" d="M 242.500,258.500 C 242.201,252.519 243.137,252.441 242.500,246.500"></path><path stroke-linecap="round" fill="none" stroke="rgb(33,33,33)" stroke-width="8.920" d="M 242.500,246.500 C 241.637,238.441 240.477,238.564 239.500,230.500"></path><path stroke-linecap="round" fill="none" stroke="rgb(33,33,33)" stroke-width="8.456" d="M 239.500,230.500 C 238.477,222.064 238.750,222.007 238.500,213.500"></path><path stroke-linecap="round" fill="none" stroke="rgb(33,33,33)" stroke-width="7.784" d="M 238.500,213.500 C 238.250,205.007 238.743,204.993 238.500,196.500"></path><path stroke-linecap="round" fill="none" stroke="rgb(33,33,33)" stroke-width="7.551" d="M 238.500,196.500 C 238.243,187.493 237.791,187.506 237.500,178.500"></path><path stroke-linecap="round" fill="none" stroke="rgb(33,33,33)" stroke-width="7.454" d="M 237.500,178.500 C 237.291,172.006 237.500,172.000 237.500,165.500"></path><path stroke-linecap="round" fill="none" stroke="rgb(33,33,33)" stroke-width="7.869" d="M 237.500,165.500 C 237.500,161.000 237.500,161.000 237.500,156.500"></path><path stroke-linecap="round" fill="none" stroke="rgb(33,33,33)" stroke-width="8.533" d="M 237.500,156.500 C 237.500,154.500 237.500,154.500 237.500,152.500"></path><path stroke-linecap="round" fill="none" stroke="rgb(33,33,33)" stroke-width="9.549" d="M 237.500,152.500 C 237.500,152.000 237.418,151.172 237.500,151.500"></path><path stroke-linecap="round" fill="none" stroke="rgb(33,33,33)" stroke-width="10.443" d="M 237.500,151.500 C 237.918,153.172 237.655,154.105 238.500,156.500"></path><path stroke-linecap="round" fill="none" stroke="rgb(33,33,33)" stroke-width="9.753" d="M 238.500,156.500 C 240.655,162.605 241.124,162.451 243.500,168.500"></path><path stroke-linecap="round" fill="none" stroke="rgb(33,33,33)" stroke-width="8.620" d="M 243.500,168.500 C 246.624,176.451 246.449,176.520 249.500,184.500"></path><path stroke-linecap="round" fill="none" stroke="rgb(33,33,33)" stroke-width="8.213" d="M 249.500,184.500 C 252.949,193.520 252.835,193.567 256.500,202.500"></path><path stroke-linecap="round" fill="none" stroke="rgb(33,33,33)" stroke-width="6.902" d="M 256.500,202.500 C 260.835,213.067 260.935,213.028 265.500,223.500"></path><path stroke-linecap="round" fill="none" stroke="rgb(33,33,33)" stroke-width="6.970" d="M 265.500,223.500 C 269.435,232.528 269.336,232.577 273.500,241.500"></path><path stroke-linecap="round" fill="none" stroke="rgb(33,33,33)" stroke-width="6.750" d="M 273.500,241.500 C 276.336,247.577 276.500,247.500 279.500,253.500"></path><path stroke-linecap="round" fill="none" stroke="rgb(33,33,33)" stroke-width="7.050" d="M 279.500,253.500 C 281.500,257.500 281.381,257.565 283.500,261.500"></path><path stroke-linecap="round" fill="none" stroke="rgb(33,33,33)" stroke-width="7.707" d="M 283.500,261.500 C 284.881,264.065 284.955,264.028 286.500,266.500"></path><path stroke-linecap="round" fill="none" stroke="rgb(33,33,33)" stroke-width="8.420" d="M 286.500,266.500 C 287.455,268.028 287.857,269.178 288.500,269.500"></path><path stroke-linecap="round" fill="none" stroke="rgb(33,33,33)" stroke-width="9.480" d="M 288.500,269.500 C 288.857,269.678 288.500,268.500 288.500,267.500"></path><path stroke-linecap="round" fill="none" stroke="rgb(33,33,33)" stroke-width="9.956" d="M 288.500,267.500 C 288.500,265.000 288.500,265.000 288.500,262.500"></path><path stroke-linecap="round" fill="none" stroke="rgb(33,33,33)" stroke-width="9.716" d="M 288.500,262.500 C 288.500,258.000 288.500,258.000 288.500,253.500"></path><path stroke-linecap="round" fill="none" stroke="rgb(33,33,33)" stroke-width="9.795" d="M 288.500,253.500 C 288.500,249.000 288.500,249.000 288.500,244.500"></path><path stroke-linecap="round" fill="none" stroke="rgb(33,33,33)" stroke-width="9.100" d="M 288.500,244.500 C 288.500,238.000 288.997,237.962 288.500,231.500"></path><path stroke-linecap="round" fill="none" stroke="rgb(33,33,33)" stroke-width="8.911" d="M 288.500,231.500 C 287.997,224.962 286.984,225.039 286.500,218.500"></path><path stroke-linecap="round" fill="none" stroke="rgb(33,33,33)" stroke-width="8.374" d="M 286.500,218.500 C 285.984,211.539 286.779,211.487 286.500,204.500"></path><path stroke-linecap="round" fill="none" stroke="rgb(33,33,33)" stroke-width="8.597" d="M 286.500,204.500 C 286.279,198.987 286.110,198.987 285.500,193.500"></path><path stroke-linecap="round" fill="none" stroke="rgb(33,33,33)" stroke-width="8.729" d="M 285.500,193.500 C 285.110,189.987 284.819,190.013 284.500,186.500"></path><path stroke-linecap="round" fill="none" stroke="rgb(33,33,33)" stroke-width="9.563" d="M 284.500,186.500 C 284.319,184.513 284.500,184.500 284.500,182.500"></path><path stroke-linecap="round" fill="none" stroke="rgb(33,33,33)" stroke-width="10.328" d="M 284.500,182.500 C 284.500,182.000 284.500,181.333 284.500,181.500"></path><path stroke-linecap="round" fill="none" stroke="rgb(33,33,33)" stroke-width="11.347" d="M 284.500,181.500 C 284.500,181.833 284.376,182.510 284.500,183.500"></path><path stroke-linecap="round" fill="none" stroke="rgb(33,33,33)" stroke-width="11.241" d="M 284.500,183.500 C 284.876,186.510 284.598,186.613 285.500,189.500"></path><path stroke-linecap="round" fill="none" stroke="rgb(33,33,33)" stroke-width="10.907" d="M 285.500,189.500 C 287.098,194.613 287.800,194.400 289.500,199.500"></path><path stroke-linecap="round" fill="none" stroke="rgb(33,33,33)" stroke-width="9.805" d="M 289.500,199.500 C 291.300,204.900 290.275,205.309 292.500,210.500"></path><path stroke-linecap="round" fill="none" stroke="rgb(33,33,33)" stroke-width="9.710" d="M 292.500,210.500 C 294.775,215.809 295.387,215.571 298.500,220.500"></path><path stroke-linecap="round" fill="none" stroke="rgb(33,33,33)" stroke-width="9.085" d="M 298.500,220.500 C 301.387,225.071 301.682,224.889 304.500,229.500"></path><path stroke-linecap="round" fill="none" stroke="rgb(33,33,33)" stroke-width="9.038" d="M 304.500,229.500 C 307.182,233.889 306.485,234.389 309.500,238.500"></path><path stroke-linecap="round" fill="none" stroke="rgb(33,33,33)" stroke-width="9.679" d="M 309.500,238.500 C 311.985,241.889 312.240,241.833 315.500,244.500"></path><path stroke-linecap="round" fill="none" stroke="rgb(33,33,33)" stroke-width="8.242" d="M 315.500,244.500 C 317.740,246.333 317.953,246.085 320.500,247.500"></path><path stroke-linecap="round" fill="none" stroke="rgb(33,33,33)" stroke-width="8.830" d="M 320.500,247.500 C 322.453,248.585 322.405,248.901 324.500,249.500"></path><path stroke-linecap="round" fill="none" stroke="rgb(33,33,33)" stroke-width="9.486" d="M 324.500,249.500 C 325.905,249.901 326.000,249.500 327.500,249.500"></path><path stroke-linecap="round" fill="none" stroke="rgb(33,33,33)" stroke-width="10.493" d="M 327.500,249.500 C 328.000,249.500 328.086,249.707 328.500,249.500"></path><path stroke-linecap="round" fill="none" stroke="rgb(33,33,33)" stroke-width="11.349" d="M 328.500,249.500 C 329.086,249.207 329.340,249.141 329.500,248.500"></path><path stroke-linecap="round" fill="none" stroke="rgb(33,33,33)" stroke-width="11.953" d="M 329.500,248.500 C 329.840,247.141 329.500,247.000 329.500,245.500"></path><path stroke-linecap="round" fill="none" stroke="rgb(33,33,33)" stroke-width="11.536" d="M 329.500,245.500 C 329.500,242.000 329.500,242.000 329.500,238.500"></path><path stroke-linecap="round" fill="none" stroke="rgb(33,33,33)" stroke-width="11.363" d="M 329.500,238.500 C 329.500,234.500 329.500,234.500 329.500,230.500"></path><path stroke-linecap="round" fill="none" stroke="rgb(33,33,33)" stroke-width="10.439" d="M 329.500,230.500 C 329.500,225.000 329.996,224.955 329.500,219.500"></path><path stroke-linecap="round" fill="none" stroke="rgb(33,33,33)" stroke-width="10.123" d="M 329.500,219.500 C 328.996,213.955 328.803,213.929 327.500,208.500"></path><path stroke-linecap="round" fill="none" stroke="rgb(33,33,33)" stroke-width="9.137" d="M 327.500,208.500 C 325.803,201.429 326.429,201.091 323.500,194.500"></path><path stroke-linecap="round" fill="none" stroke="rgb(33,33,33)" stroke-width="8.758" d="M 323.500,194.500 C 320.429,187.591 319.203,188.165 315.500,181.500"></path><path stroke-linecap="round" fill="none" stroke="rgb(33,33,33)" stroke-width="8.110" d="M 315.500,181.500 C 311.703,174.665 312.591,174.108 308.500,167.500"></path><path stroke-linecap="round" fill="none" stroke="rgb(33,33,33)" stroke-width="8.429" d="M 308.500,167.500 C 306.091,163.608 306.043,163.335 302.500,160.500"></path><path stroke-linecap="round" fill="none" stroke="rgb(33,33,33)" stroke-width="8.381" d="M 302.500,160.500 C 298.543,157.335 298.041,157.922 293.500,155.500"></path><path stroke-linecap="round" fill="none" stroke="rgb(33,33,33)" stroke-width="8.874" d="M 293.500,155.500 C 290.541,153.922 290.632,153.440 287.500,152.500"></path><path stroke-linecap="round" fill="none" stroke="rgb(33,33,33)" stroke-width="9.463" d="M 287.500,152.500 C 285.632,151.940 285.500,152.500 283.500,152.500"></path><path stroke-linecap="round" fill="none" stroke="rgb(33,33,33)" stroke-width="10.166" d="M 283.500,152.500 C 281.500,152.500 281.078,151.711 279.500,152.500"></path><path stroke-linecap="round" fill="none" stroke="rgb(33,33,33)" stroke-width="10.677" d="M 279.500,152.500 C 278.078,153.211 278.226,153.866 277.500,155.500"></path><path stroke-linecap="round" fill="none" stroke="rgb(33,33,33)" stroke-width="10.900" d="M 277.500,155.500 C 276.226,158.366 276.159,158.423 275.500,161.500"></path><path stroke-linecap="round" fill="none" stroke="rgb(33,33,33)" stroke-width="10.358" d="M 275.500,161.500 C 274.659,165.423 274.701,165.481 274.500,169.500"></path><path stroke-linecap="round" fill="none" stroke="rgb(33,33,33)" stroke-width="10.216" d="M 274.500,169.500 C 274.201,175.481 274.500,175.500 274.500,181.500"></path><path stroke-linecap="round" fill="none" stroke="rgb(33,33,33)" stroke-width="8.782" d="M 274.500,181.500 C 274.500,188.000 274.250,188.010 274.500,194.500"></path><path stroke-linecap="round" fill="none" stroke="rgb(33,33,33)" stroke-width="8.542" d="M 274.500,194.500 C 274.750,201.010 274.511,201.075 275.500,207.500"></path><path stroke-linecap="round" fill="none" stroke="rgb(33,33,33)" stroke-width="8.462" d="M 275.500,207.500 C 276.511,214.075 276.324,214.243 278.500,220.500"></path><path stroke-linecap="round" fill="none" stroke="rgb(33,33,33)" stroke-width="8.320" d="M 278.500,220.500 C 280.324,225.743 281.208,225.407 283.500,230.500"></path><path stroke-linecap="round" fill="none" stroke="rgb(33,33,33)" stroke-width="8.486" d="M 283.500,230.500 C 285.708,235.407 284.892,235.863 287.500,240.500"></path><path stroke-linecap="round" fill="none" stroke="rgb(33,33,33)" stroke-width="8.683" d="M 287.500,240.500 C 289.392,243.863 290.027,243.478 292.500,246.500"></path><path stroke-linecap="round" fill="none" stroke="rgb(33,33,33)" stroke-width="9.171" d="M 292.500,246.500 C 294.527,248.978 294.145,249.439 296.500,251.500"></path><path stroke-linecap="round" fill="none" stroke="rgb(33,33,33)" stroke-width="9.669" d="M 296.500,251.500 C 298.145,252.939 298.405,252.901 300.500,253.500"></path><path stroke-linecap="round" fill="none" stroke="rgb(33,33,33)" stroke-width="10.427" d="M 300.500,253.500 C 301.905,253.901 302.000,253.500 303.500,253.500"></path><path stroke-linecap="round" fill="none" stroke="rgb(33,33,33)" stroke-width="11.183" d="M 303.500,253.500 C 304.500,253.500 304.672,253.914 305.500,253.500"></path><path stroke-linecap="round" fill="none" stroke="rgb(33,33,33)" stroke-width="11.875" d="M 305.500,253.500 C 306.672,252.914 306.779,252.701 307.500,251.500"></path><path stroke-linecap="round" fill="none" stroke="rgb(33,33,33)" stroke-width="11.128" d="M 307.500,251.500 C 309.779,247.701 309.610,247.551 311.500,243.500"></path><path stroke-linecap="round" fill="none" stroke="rgb(33,33,33)" stroke-width="10.969" d="M 311.500,243.500 C 313.110,240.051 313.120,240.048 314.500,236.500"></path><path stroke-linecap="round" fill="none" stroke="rgb(33,33,33)" stroke-width="10.068" d="M 314.500,236.500 C 316.620,231.048 316.897,231.111 318.500,225.500"></path><path stroke-linecap="round" fill="none" stroke="rgb(33,33,33)" stroke-width="9.947" d="M 318.500,225.500 C 319.897,220.611 319.662,220.528 320.500,215.500"></path><path stroke-linecap="round" fill="none" stroke="rgb(33,33,33)" stroke-width="9.070" d="M 320.500,215.500 C 321.662,208.528 321.979,208.534 322.500,201.500"></path><path stroke-linecap="round" fill="none" stroke="rgb(33,33,33)" stroke-width="8.901" d="M 322.500,201.500 C 322.979,195.034 322.500,195.000 322.500,188.500"></path><path stroke-linecap="round" fill="none" stroke="rgb(33,33,33)" stroke-width="8.368" d="M 322.500,188.500 C 322.500,181.500 322.500,181.500 322.500,174.500"></path><path stroke-linecap="round" fill="none" stroke="rgb(33,33,33)" stroke-width="8.428" d="M 322.500,174.500 C 322.500,168.500 322.500,168.500 322.500,162.500"></path><path stroke-linecap="round" fill="none" stroke="rgb(33,33,33)" stroke-width="8.311" d="M 322.500,162.500 C 322.500,157.000 322.500,157.000 322.500,151.500"></path><path stroke-linecap="round" fill="none" stroke="rgb(33,33,33)" stroke-width="8.924" d="M 322.500,151.500 C 322.500,148.500 322.827,148.447 322.500,145.500"></path><path stroke-linecap="round" fill="none" stroke="rgb(33,33,33)" stroke-width="9.549" d="M 322.500,145.500 C 322.327,143.947 321.880,144.019 321.500,142.500"></path><path stroke-linecap="round" fill="none" stroke="rgb(33,33,33)" stroke-width="10.566" d="M 321.500,142.500 C 321.380,142.019 321.500,141.250 321.500,141.500"></path><path stroke-linecap="round" fill="none" stroke="rgb(33,33,33)" stroke-width="11.558" d="M 321.500,141.500 C 321.500,142.250 321.500,143.000 321.500,144.500"></path><path stroke-linecap="round" fill="none" stroke="rgb(33,33,33)" stroke-width="11.065" d="M 321.500,144.500 C 321.500,148.500 320.814,148.611 321.500,152.500"></path><path stroke-linecap="round" fill="none" stroke="rgb(33,33,33)" stroke-width="10.464" d="M 321.500,152.500 C 322.314,157.111 323.496,156.883 324.500,161.500"></path><path stroke-linecap="round" fill="none" stroke="rgb(33,33,33)" stroke-width="9.819" d="M 324.500,161.500 C 325.996,168.383 324.447,168.829 326.500,175.500"></path><path stroke-linecap="round" fill="none" stroke="rgb(33,33,33)" stroke-width="9.067" d="M 326.500,175.500 C 328.447,181.829 329.801,181.367 332.500,187.500"></path><path stroke-linecap="round" fill="none" stroke="rgb(33,33,33)" stroke-width="8.819" d="M 332.500,187.500 C 335.301,193.867 335.000,194.000 337.500,200.500"></path><path stroke-linecap="round" fill="none" stroke="rgb(33,33,33)" stroke-width="8.317" d="M 337.500,200.500 C 340.000,207.000 339.726,207.121 342.500,213.500"></path><path stroke-linecap="round" fill="none" stroke="rgb(33,33,33)" stroke-width="8.450" d="M 342.500,213.500 C 344.726,218.621 345.233,218.399 347.500,223.500"></path><path stroke-linecap="round" fill="none" stroke="rgb(33,33,33)" stroke-width="8.576" d="M 347.500,223.500 C 349.233,227.399 348.717,227.637 350.500,231.500"></path><path stroke-linecap="round" fill="none" stroke="rgb(33,33,33)" stroke-width="9.128" d="M 350.500,231.500 C 351.717,234.137 352.510,233.859 353.500,236.500"></path><path stroke-linecap="round" fill="none" stroke="rgb(33,33,33)" stroke-width="9.828" d="M 353.500,236.500 C 354.010,237.859 353.160,238.141 353.500,239.500"></path><path stroke-linecap="round" fill="none" stroke="rgb(33,33,33)" stroke-width="10.772" d="M 353.500,239.500 C 353.660,240.141 354.207,240.500 354.500,240.500"></path><path stroke-linecap="round" fill="none" stroke="rgb(33,33,33)" stroke-width="11.827" d="M 354.500,240.500 C 354.707,240.500 354.500,240.000 354.500,239.500"></path><path stroke-linecap="round" fill="none" stroke="rgb(33,33,33)" stroke-width="12.502" d="M 354.500,239.500 C 354.500,238.500 354.929,238.357 354.500,237.500"></path><path stroke-linecap="round" fill="none" stroke="rgb(33,33,33)" stroke-width="12.358" d="M 354.500,237.500 C 353.429,235.357 352.402,235.756 351.500,233.500"></path><path stroke-linecap="round" fill="none" stroke="rgb(33,33,33)" stroke-width="12.302" d="M 351.500,233.500 C 350.402,230.756 351.096,230.481 350.500,227.500"></path><path stroke-linecap="round" fill="none" stroke="rgb(33,33,33)" stroke-width="11.374" d="M 350.500,227.500 C 349.596,222.981 349.732,222.936 348.500,218.500"></path><path stroke-linecap="round" fill="none" stroke="rgb(33,33,33)" stroke-width="11.163" d="M 348.500,218.500 C 347.232,213.936 346.548,214.109 345.500,209.500"></path><path stroke-linecap="round" fill="none" stroke="rgb(33,33,33)" stroke-width="9.691" d="M 345.500,209.500 C 344.048,203.109 344.788,202.942 343.500,196.500"></path><path stroke-linecap="round" fill="none" stroke="rgb(33,33,33)" stroke-width="9.556" d="M 343.500,196.500 C 342.288,190.442 341.204,190.598 340.500,184.500"></path><path stroke-linecap="round" fill="none" stroke="rgb(33,33,33)" stroke-width="8.573" d="M 340.500,184.500 C 339.704,177.598 340.500,177.500 340.500,170.500"></path><path stroke-linecap="round" fill="none" stroke="rgb(33,33,33)" stroke-width="8.845" d="M 340.500,170.500 C 340.500,165.000 340.500,165.000 340.500,159.500"></path><path stroke-linecap="round" fill="none" stroke="rgb(33,33,33)" stroke-width="8.467" d="M 340.500,159.500 C 340.500,155.000 340.500,155.000 340.500,150.500"></path><path stroke-linecap="round" fill="none" stroke="rgb(33,33,33)" stroke-width="9.149" d="M 340.500,150.500 C 340.500,148.500 340.500,148.500 340.500,146.500"></path><path stroke-linecap="round" fill="none" stroke="rgb(33,33,33)" stroke-width="10.049" d="M 340.500,146.500 C 340.500,145.500 340.028,144.736 340.500,144.500"></path><path stroke-linecap="round" fill="none" stroke="rgb(33,33,33)" stroke-width="11.061" d="M 340.500,144.500 C 341.028,144.236 342.097,144.559 342.500,145.500"></path><path stroke-linecap="round" fill="none" stroke="rgb(33,33,33)" stroke-width="11.147" d="M 342.500,145.500 C 343.597,148.059 342.488,148.666 343.500,151.500"></path><path stroke-linecap="round" fill="none" stroke="rgb(33,33,33)" stroke-width="10.608" d="M 343.500,151.500 C 344.988,155.666 345.666,155.424 347.500,159.500"></path><path stroke-linecap="round" fill="none" stroke="rgb(33,33,33)" stroke-width="10.191" d="M 347.500,159.500 C 350.166,165.424 349.909,165.540 352.500,171.500"></path><path stroke-linecap="round" fill="none" stroke="rgb(33,33,33)" stroke-width="9.236" d="M 352.500,171.500 C 354.909,177.040 355.214,176.913 357.500,182.500"></path><path stroke-linecap="round" fill="none" stroke="rgb(33,33,33)" stroke-width="9.255" d="M 357.500,182.500 C 359.714,187.913 358.995,188.240 361.500,193.500"></path><path stroke-linecap="round" fill="none" stroke="rgb(33,33,33)" stroke-width="8.657" d="M 361.500,193.500 C 363.995,198.740 364.608,198.438 367.500,203.500"></path><path stroke-linecap="round" fill="none" stroke="rgb(33,33,33)" stroke-width="8.618" d="M 367.500,203.500 C 370.608,208.938 370.701,208.902 373.500,214.500"></path><path stroke-linecap="round" fill="none" stroke="rgb(33,33,33)" stroke-width="8.814" d="M 373.500,214.500 C 375.201,217.902 374.925,218.035 376.500,221.500"></path><path stroke-linecap="round" fill="none" stroke="rgb(33,33,33)" stroke-width="9.475" d="M 376.500,221.500 C 377.425,223.535 377.621,223.450 378.500,225.500"></path><path stroke-linecap="round" fill="none" stroke="rgb(33,33,33)" stroke-width="10.124" d="M 378.500,225.500 C 379.121,226.950 379.500,228.717 379.500,228.500"></path><path stroke-linecap="round" fill="none" stroke="rgb(33,33,33)" stroke-width="11.125" d="M 379.500,228.500 C 379.500,228.217 378.947,226.512 378.500,224.500"></path><path stroke-linecap="round" fill="none" stroke="rgb(33,33,33)" stroke-width="11.238" d="M 378.500,224.500 C 377.947,222.012 377.695,222.030 377.500,219.500"></path><path stroke-linecap="round" fill="none" stroke="rgb(33,33,33)" stroke-width="11.131" d="M 377.500,219.500 C 377.195,215.530 377.500,215.500 377.500,211.500"></path><path stroke-linecap="round" fill="none" stroke="rgb(33,33,33)" stroke-width="10.281" d="M 377.500,211.500 C 377.500,206.000 377.739,205.990 377.500,200.500"></path><path stroke-linecap="round" fill="none" stroke="rgb(33,33,33)" stroke-width="10.042" d="M 377.500,200.500 C 377.239,194.490 376.750,194.510 376.500,188.500"></path><path stroke-linecap="round" fill="none" stroke="rgb(33,33,33)" stroke-width="9.149" d="M 376.500,188.500 C 376.250,182.510 376.500,182.500 376.500,176.500"></path><path stroke-linecap="round" fill="none" stroke="rgb(33,33,33)" stroke-width="9.051" d="M 376.500,176.500 C 376.500,170.500 376.500,170.500 376.500,164.500"></path><path stroke-linecap="round" fill="none" stroke="rgb(33,33,33)" stroke-width="8.941" d="M 376.500,164.500 C 376.500,159.000 376.500,159.000 376.500,153.500"></path><path stroke-linecap="round" fill="none" stroke="rgb(33,33,33)" stroke-width="9.155" d="M 376.500,153.500 C 376.500,150.000 376.500,150.000 376.500,146.500"></path><path stroke-linecap="round" fill="none" stroke="rgb(33,33,33)" stroke-width="9.945" d="M 376.500,146.500 C 376.500,145.000 376.046,143.500 376.500,143.500"></path><path stroke-linecap="round" fill="none" stroke="rgb(33,33,33)" stroke-width="10.937" d="M 376.500,143.500 C 377.046,143.500 377.638,144.920 378.500,146.500"></path><path stroke-linecap="round" fill="none" stroke="rgb(33,33,33)" stroke-width="10.456" d="M 378.500,146.500 C 380.638,150.420 380.396,150.556 382.500,154.500"></path><path stroke-linecap="round" fill="none" stroke="rgb(33,33,33)" stroke-width="10.500" d="M 382.500,154.500 C 384.396,158.056 384.312,158.119 386.500,161.500"></path><path stroke-linecap="round" fill="none" stroke="rgb(33,33,33)" stroke-width="9.682" d="M 386.500,161.500 C 389.812,166.619 390.054,166.463 393.500,171.500"></path><path stroke-linecap="round" fill="none" stroke="rgb(33,33,33)" stroke-width="9.581" d="M 393.500,171.500 C 396.554,175.963 396.562,175.960 399.500,180.500"></path><path stroke-linecap="round" fill="none" stroke="rgb(33,33,33)" stroke-width="9.373" d="M 399.500,180.500 C 402.062,184.460 401.718,184.707 404.500,188.500"></path><path stroke-linecap="round" fill="none" stroke="rgb(33,33,33)" stroke-width="9.661" d="M 404.500,188.500 C 407.218,192.207 407.522,191.981 410.500,195.500"></path><path stroke-linecap="round" fill="none" stroke="rgb(33,33,33)" stroke-width="9.250" d="M 410.500,195.500 C 413.022,198.481 412.908,198.584 415.500,201.500"></path><path stroke-linecap="round" fill="none" stroke="rgb(33,33,33)" stroke-width="9.945" d="M 415.500,201.500 C 416.908,203.084 417.000,203.000 418.500,204.500"></path><path stroke-linecap="round" fill="none" stroke="rgb(33,33,33)" stroke-width="10.529" d="M 418.500,204.500 C 419.500,205.500 419.328,205.914 420.500,206.500"></path><path stroke-linecap="round" fill="none" stroke="rgb(33,33,33)" stroke-width="11.357" d="M 420.500,206.500 C 421.328,206.914 421.500,206.500 422.500,206.500"></path><path stroke-linecap="round" fill="none" stroke="rgb(33,33,33)" stroke-width="12.356" d="M 422.500,206.500 C 423.000,206.500 423.375,206.875 423.500,206.500"></path><path stroke-linecap="round" fill="none" stroke="rgb(33,33,33)" stroke-width="12.681" d="M 423.500,206.500 C 423.875,205.375 423.099,204.905 423.500,203.500"></path><path stroke-linecap="round" fill="none" stroke="rgb(33,33,33)" stroke-width="12.923" d="M 423.500,203.500 C 424.099,201.405 425.110,201.644 425.500,199.500"></path><path stroke-linecap="round" fill="none" stroke="rgb(33,33,33)" stroke-width="12.004" d="M 425.500,199.500 C 426.110,196.144 425.500,196.000 425.500,192.500"></path><path stroke-linecap="round" fill="none" stroke="rgb(33,33,33)" stroke-width="11.947" d="M 425.500,192.500 C 425.500,188.500 425.500,188.500 425.500,184.500"></path><path stroke-linecap="round" fill="none" stroke="rgb(33,33,33)" stroke-width="10.569" d="M 425.500,184.500 C 425.500,180.000 425.500,180.000 425.500,175.500"></path><path stroke-linecap="round" fill="none" stroke="rgb(33,33,33)" stroke-width="10.086" d="M 425.500,175.500 C 425.500,170.000 426.469,169.829 425.500,164.500"></path><path stroke-linecap="round" fill="none" stroke="rgb(33,33,33)" stroke-width="10.030" d="M 425.500,164.500 C 424.469,158.829 423.523,158.991 421.500,153.500"></path><path stroke-linecap="round" fill="none" stroke="rgb(33,33,33)" stroke-width="9.388" d="M 421.500,153.500 C 420.023,149.491 420.126,149.448 418.500,145.500"></path><path stroke-linecap="round" fill="none" stroke="rgb(33,33,33)" stroke-width="9.443" d="M 418.500,145.500 C 416.626,140.948 416.809,140.830 414.500,136.500"></path><path stroke-linecap="round" fill="none" stroke="rgb(33,33,33)" stroke-width="9.545" d="M 414.500,136.500 C 412.809,133.330 412.884,133.148 410.500,130.500"></path><path stroke-linecap="round" fill="none" stroke="rgb(33,33,33)" stroke-width="9.929" d="M 410.500,130.500 C 408.384,128.148 408.059,128.419 405.500,126.500"></path><path stroke-linecap="round" fill="none" stroke="rgb(33,33,33)" stroke-width="10.467" d="M 405.500,126.500 C 404.059,125.419 404.066,125.283 402.500,124.500"></path><path stroke-linecap="round" fill="none" stroke="rgb(33,33,33)" stroke-width="11.441" d="M 402.500,124.500 C 402.066,124.283 401.914,124.293 401.500,124.500"></path><path stroke-linecap="round" fill="none" stroke="rgb(33,33,33)" stroke-width="12.396" d="M 401.500,124.500 C 400.914,124.793 400.660,124.859 400.500,125.500"></path><path stroke-linecap="round" fill="none" stroke="rgb(33,33,33)" stroke-width="12.715" d="M 400.500,125.500 C 400.160,126.859 400.636,127.008 400.500,128.500"></path><path stroke-linecap="round" fill="none" stroke="rgb(33,33,33)" stroke-width="12.248" d="M 400.500,128.500 C 400.136,132.508 399.711,132.482 399.500,136.500"></path><path stroke-linecap="round" fill="none" stroke="rgb(33,33,33)" stroke-width="11.265" d="M 399.500,136.500 C 399.211,141.982 399.251,142.011 399.500,147.500"></path><path stroke-linecap="round" fill="none" stroke="rgb(33,33,33)" stroke-width="10.579" d="M 399.500,147.500 C 399.751,153.011 399.335,153.139 400.500,158.500"></path><path stroke-linecap="round" fill="none" stroke="rgb(33,33,33)" stroke-width="9.676" d="M 400.500,158.500 C 401.835,164.639 402.358,164.551 404.500,170.500"></path><path stroke-linecap="round" fill="none" stroke="rgb(33,33,33)" stroke-width="9.273" d="M 404.500,170.500 C 406.858,177.051 406.211,177.429 409.500,183.500"></path><path stroke-linecap="round" fill="none" stroke="rgb(33,33,33)" stroke-width="8.670" d="M 409.500,183.500 C 412.711,189.429 413.547,188.966 417.500,194.500"></path><path stroke-linecap="round" fill="none" stroke="rgb(33,33,33)" stroke-width="8.655" d="M 417.500,194.500 C 421.047,199.466 420.758,199.689 424.500,204.500"></path><path stroke-linecap="round" fill="none" stroke="rgb(33,33,33)" stroke-width="8.524" d="M 424.500,204.500 C 427.758,208.689 427.627,208.925 431.500,212.500"></path><path stroke-linecap="round" fill="none" stroke="rgb(33,33,33)" stroke-width="9.022" d="M 431.500,212.500 C 434.127,214.925 434.319,214.909 437.500,216.500"></path><path stroke-linecap="round" fill="none" stroke="rgb(33,33,33)" stroke-width="9.493" d="M 437.500,216.500 C 439.319,217.409 439.474,217.211 441.500,217.500"></path><path stroke-linecap="round" fill="none" stroke="rgb(33,33,33)" stroke-width="10.326" d="M 441.500,217.500 C 442.974,217.711 443.000,217.500 444.500,217.500"></path><path stroke-linecap="round" fill="none" stroke="rgb(33,33,33)" stroke-width="11.195" d="M 444.500,217.500 C 445.000,217.500 445.226,217.865 445.500,217.500"></path><path stroke-linecap="round" fill="none" stroke="rgb(33,33,33)" stroke-width="11.716" d="M 445.500,217.500 C 446.726,215.865 446.739,215.593 447.500,213.500"></path><path stroke-linecap="round" fill="none" stroke="rgb(33,33,33)" stroke-width="10.806" d="M 447.500,213.500 C 448.739,210.093 448.473,209.992 449.500,206.500"></path><path stroke-linecap="round" fill="none" stroke="rgb(33,33,33)" stroke-width="10.331" d="M 449.500,206.500 C 450.973,201.492 451.734,201.608 452.500,196.500"></path><path stroke-linecap="round" fill="none" stroke="rgb(33,33,33)" stroke-width="10.174" d="M 452.500,196.500 C 453.234,191.608 452.273,191.491 452.500,186.500"></path><path stroke-linecap="round" fill="none" stroke="rgb(33,33,33)" stroke-width="9.479" d="M 452.500,186.500 C 452.773,180.491 453.000,180.500 453.500,174.500"></path><path stroke-linecap="round" fill="none" stroke="rgb(33,33,33)" stroke-width="9.303" d="M 453.500,174.500 C 454.000,168.500 454.250,168.510 454.500,162.500"></path><path stroke-linecap="round" fill="none" stroke="rgb(33,33,33)" stroke-width="8.865" d="M 454.500,162.500 C 454.750,156.510 454.500,156.500 454.500,150.500"></path><path stroke-linecap="round" fill="none" stroke="rgb(33,33,33)" stroke-width="9.002" d="M 454.500,150.500 C 454.500,145.500 454.749,145.488 454.500,140.500"></path><path stroke-linecap="round" fill="none" stroke="rgb(33,33,33)" stroke-width="8.996" d="M 454.500,140.500 C 454.249,135.488 454.956,135.158 453.500,130.500"></path><path stroke-linecap="round" fill="none" stroke="rgb(33,33,33)" stroke-width="9.285" d="M 453.500,130.500 C 452.456,127.158 451.217,127.649 449.500,124.500"></path><path stroke-linecap="round" fill="none" stroke="rgb(33,33,33)" stroke-width="9.649" d="M 449.500,124.500 C 448.217,122.149 448.688,121.876 447.500,119.500"></path><path stroke-linecap="round" fill="none" stroke="rgb(33,33,33)" stroke-width="10.600" d="M 447.500,119.500 C 447.188,118.876 446.793,118.500 446.500,118.500"></path><path stroke-linecap="round" fill="none" stroke="rgb(33,33,33)" stroke-width="11.680" d="M 446.500,118.500 C 446.293,118.500 446.500,119.000 446.500,119.500"></path><path stroke-linecap="round" fill="none" stroke="rgb(33,33,33)" stroke-width="10.925" d="M 446.500,119.500 C 446.500,121.500 446.500,121.500 446.500,123.500"></path><path stroke-linecap="round" fill="none" stroke="rgb(33,33,33)" stroke-width="11.048" d="M 446.500,123.500 C 446.500,126.500 446.106,126.543 446.500,129.500"></path><path stroke-linecap="round" fill="none" stroke="rgb(33,33,33)" stroke-width="10.494" d="M 446.500,129.500 C 447.106,134.043 447.202,134.088 448.500,138.500"></path><path stroke-linecap="round" fill="none" stroke="rgb(33,33,33)" stroke-width="10.472" d="M 448.500,138.500 C 449.702,142.588 450.150,142.449 451.500,146.500"></path><path stroke-linecap="round" fill="none" stroke="rgb(33,33,33)" stroke-width="9.901" d="M 451.500,146.500 C 453.150,151.449 453.293,151.430 454.500,156.500"></path><path stroke-linecap="round" fill="none" stroke="rgb(33,33,33)" stroke-width="9.831" d="M 454.500,156.500 C 455.793,161.930 455.778,161.963 456.500,167.500"></path><path stroke-linecap="round" fill="none" stroke="rgb(33,33,33)" stroke-width="9.003" d="M 456.500,167.500 C 457.278,173.463 456.929,173.507 457.500,179.500"></path><path stroke-linecap="round" fill="none" stroke="rgb(33,33,33)" stroke-width="9.202" d="M 457.500,179.500 C 457.929,184.007 458.218,183.988 458.500,188.500"></path><path stroke-linecap="round" fill="none" stroke="rgb(33,33,33)" stroke-width="9.373" d="M 458.500,188.500 C 458.718,191.988 458.121,192.089 458.500,195.500"></path><path stroke-linecap="round" fill="none" stroke="rgb(33,33,33)" stroke-width="10.263" d="M 458.500,195.500 C 458.621,196.589 459.155,196.464 459.500,197.500"></path><path stroke-linecap="round" fill="none" stroke="rgb(33,33,33)" stroke-width="11.177" d="M 459.500,197.500 C 459.655,197.964 459.500,198.500 459.500,198.500"></path><path stroke-linecap="round" fill="none" stroke="rgb(33,33,33)" stroke-width="12.232" d="M 459.500,198.500 C 459.500,198.500 459.598,197.988 459.500,197.500"></path><path stroke-linecap="round" fill="none" stroke="rgb(33,33,33)" stroke-width="12.331" d="M 459.500,197.500 C 459.098,195.488 459.042,195.489 458.500,193.500"></path><path stroke-linecap="round" fill="none" stroke="rgb(33,33,33)" stroke-width="11.941" d="M 458.500,193.500 C 457.542,189.989 457.650,189.950 456.500,186.500"></path><path stroke-linecap="round" fill="none" stroke="rgb(33,33,33)" stroke-width="11.439" d="M 456.500,186.500 C 455.150,182.450 454.850,182.551 453.500,178.500"></path><path stroke-linecap="round" fill="none" stroke="rgb(33,33,33)" stroke-width="10.957" d="M 453.500,178.500 C 451.850,173.551 451.707,173.570 450.500,168.500"></path><path stroke-linecap="round" fill="none" stroke="rgb(33,33,33)" stroke-width="10.135" d="M 450.500,168.500 C 449.207,163.070 449.329,163.025 448.500,157.500"></path><path stroke-linecap="round" fill="none" stroke="rgb(33,33,33)" stroke-width="10.127" d="M 448.500,157.500 C 447.829,153.025 448.345,152.938 447.500,148.500"></path><path stroke-linecap="round" fill="none" stroke="rgb(33,33,33)" stroke-width="9.405" d="M 447.500,148.500 C 446.345,142.438 445.368,142.578 444.500,136.500"></path><path stroke-linecap="round" fill="none" stroke="rgb(33,33,33)" stroke-width="9.541" d="M 444.500,136.500 C 443.868,132.078 444.500,132.000 444.500,127.500"></path><path stroke-linecap="round" fill="none" stroke="rgb(33,33,33)" stroke-width="9.652" d="M 444.500,127.500 C 444.500,124.000 444.500,124.000 444.500,120.500"></path><path stroke-linecap="round" fill="none" stroke="rgb(33,33,33)" stroke-width="10.411" d="M 444.500,120.500 C 444.500,119.000 444.500,119.000 444.500,117.500"></path><path stroke-linecap="round" fill="none" stroke="rgb(33,33,33)" stroke-width="11.347" d="M 444.500,117.500 C 444.500,117.000 444.250,116.750 444.500,116.500"></path><path stroke-linecap="round" fill="none" stroke="rgb(33,33,33)" stroke-width="12.273" d="M 444.500,116.500 C 444.750,116.250 445.191,116.191 445.500,116.500"></path><path stroke-linecap="round" fill="none" stroke="rgb(33,33,33)" stroke-width="13.155" d="M 445.500,116.500 C 446.191,117.191 446.000,117.500 446.500,118.500"></path><path stroke-linecap="round" fill="none" stroke="rgb(33,33,33)" stroke-width="12.812" d="M 446.500,118.500 C 448.000,121.500 448.000,121.500 449.500,124.500"></path><path stroke-linecap="round" fill="none" stroke="rgb(33,33,33)" stroke-width="12.227" d="M 449.500,124.500 C 451.000,127.500 451.082,127.461 452.500,130.500"></path><path stroke-linecap="round" fill="none" stroke="rgb(33,33,33)" stroke-width="11.613" d="M 452.500,130.500 C 454.582,134.961 454.202,135.159 456.500,139.500"></path><path stroke-linecap="round" fill="none" stroke="rgb(33,33,33)" stroke-width="10.861" d="M 456.500,139.500 C 458.702,143.659 459.298,143.341 461.500,147.500"></path><path stroke-linecap="round" fill="none" stroke="rgb(33,33,33)" stroke-width="10.722" d="M 461.500,147.500 C 463.798,151.841 463.479,152.009 465.500,156.500"></path><path stroke-linecap="round" fill="none" stroke="rgb(33,33,33)" stroke-width="9.581" d="M 465.500,156.500 C 467.979,162.009 468.121,161.948 470.500,167.500"></path><path stroke-linecap="round" fill="none" stroke="rgb(33,33,33)" stroke-width="9.374" d="M 470.500,167.500 C 472.621,172.448 472.292,172.593 474.500,177.500"></path><path stroke-linecap="round" fill="none" stroke="rgb(33,33,33)" stroke-width="9.303" d="M 474.500,177.500 C 476.792,182.593 477.138,182.438 479.500,187.500"></path><path stroke-linecap="round" fill="none" stroke="rgb(33,33,33)" stroke-width="9.665" d="M 479.500,187.500 C 480.638,189.938 480.302,190.104 481.500,192.500"></path><path stroke-linecap="round" fill="none" stroke="rgb(33,33,33)" stroke-width="10.299" d="M 481.500,192.500 C 482.302,194.104 482.574,193.957 483.500,195.500"></path><path stroke-linecap="round" fill="none" stroke="rgb(33,33,33)" stroke-width="11.072" d="M 483.500,195.500 C 484.074,196.457 484.000,197.500 484.500,197.500"></path><path stroke-linecap="round" fill="none" stroke="rgb(33,33,33)" stroke-width="12.074" d="M 484.500,197.500 C 485.000,197.500 485.231,196.575 485.500,195.500"></path><path stroke-linecap="round" fill="none" stroke="rgb(33,33,33)" stroke-width="11.956" d="M 485.500,195.500 C 486.231,192.575 486.098,192.514 486.500,189.500"></path><path stroke-linecap="round" fill="none" stroke="rgb(33,33,33)" stroke-width="11.368" d="M 486.500,189.500 C 487.098,185.014 487.235,185.013 487.500,180.500"></path><path stroke-linecap="round" fill="none" stroke="rgb(33,33,33)" stroke-width="11.344" d="M 487.500,180.500 C 487.735,176.513 487.500,176.500 487.500,172.500"></path><path stroke-linecap="round" fill="none" stroke="rgb(33,33,33)" stroke-width="10.503" d="M 487.500,172.500 C 487.500,168.000 487.500,168.000 487.500,163.500"></path><path stroke-linecap="round" fill="none" stroke="rgb(33,33,33)" stroke-width="10.192" d="M 487.500,163.500 C 487.500,158.000 487.500,158.000 487.500,152.500"></path><path stroke-linecap="round" fill="none" stroke="rgb(33,33,33)" stroke-width="9.249" d="M 487.500,152.500 C 487.500,145.500 488.056,145.450 487.500,138.500"></path><path stroke-linecap="round" fill="none" stroke="rgb(33,33,33)" stroke-width="9.204" d="M 487.500,138.500 C 487.056,132.950 486.803,132.929 485.500,127.500"></path><path stroke-linecap="round" fill="none" stroke="rgb(33,33,33)" stroke-width="8.522" d="M 485.500,127.500 C 483.803,120.429 483.463,120.510 481.500,113.500"></path><path stroke-linecap="round" fill="none" stroke="rgb(33,33,33)" stroke-width="8.602" d="M 481.500,113.500 C 479.963,108.010 480.000,108.000 478.500,102.500"></path><path stroke-linecap="round" fill="none" stroke="rgb(33,33,33)" stroke-width="16.389" d="M 466.500,76.500 C 467.500,80.500 467.451,80.513 468.500,84.500"></path><path stroke-linecap="round" fill="none" stroke="rgb(33,33,33)" stroke-width="13.373" d="M 468.500,84.500 C 469.951,90.013 470.118,89.970 471.500,95.500"></path><path stroke-linecap="round" fill="none" stroke="rgb(33,33,33)" stroke-width="11.857" d="M 471.500,95.500 C 473.118,101.970 472.608,102.115 474.500,108.500"></path><path stroke-linecap="round" fill="none" stroke="rgb(33,33,33)" stroke-width="10.171" d="M 474.500,108.500 C 476.608,115.615 476.890,115.541 479.500,122.500"></path><path stroke-linecap="round" fill="none" stroke="rgb(33,33,33)" stroke-width="9.113" d="M 479.500,122.500 C 482.890,131.541 483.110,131.459 486.500,140.500"></path><path stroke-linecap="round" fill="none" stroke="rgb(33,33,33)" stroke-width="8.429" d="M 486.500,140.500 C 489.110,147.459 488.546,147.706 491.500,154.500"></path><path stroke-linecap="round" fill="none" stroke="rgb(33,33,33)" stroke-width="8.615" d="M 491.500,154.500 C 493.546,159.206 493.854,159.089 496.500,163.500"></path><path stroke-linecap="round" fill="none" stroke="rgb(33,33,33)" stroke-width="8.856" d="M 496.500,163.500 C 498.354,166.589 498.783,166.351 500.500,169.500"></path><path stroke-linecap="round" fill="none" stroke="rgb(33,33,33)" stroke-width="9.476" d="M 500.500,169.500 C 501.783,171.851 501.235,172.392 502.500,174.500"></path><path stroke-linecap="round" fill="none" stroke="rgb(33,33,33)" stroke-width="10.448" d="M 502.500,174.500 C 502.735,174.892 503.250,174.250 503.500,174.500"></path><path stroke-linecap="round" fill="none" stroke="rgb(33,33,33)" stroke-width="11.405" d="M 503.500,174.500 C 503.750,174.750 503.500,175.667 503.500,175.500"></path><path stroke-linecap="round" fill="none" stroke="rgb(33,33,33)" stroke-width="12.420" d="M 503.500,175.500 C 503.500,175.167 503.500,174.500 503.500,173.500"></path><path stroke-linecap="round" fill="none" stroke="rgb(33,33,33)" stroke-width="12.890" d="M 503.500,173.500 C 503.500,172.000 504.015,171.787 503.500,170.500"></path><path stroke-linecap="round" fill="none" stroke="rgb(33,33,33)" stroke-width="13.055" d="M 503.500,170.500 C 503.015,169.287 502.110,169.721 501.500,168.500"></path><path stroke-linecap="round" fill="none" stroke="rgb(33,33,33)" stroke-width="13.293" d="M 501.500,168.500 C 500.610,166.721 500.754,166.530 500.500,164.500"></path><path stroke-linecap="round" fill="none" stroke="rgb(33,33,33)" stroke-width="13.048" d="M 500.500,164.500 C 500.254,162.530 500.779,162.455 500.500,160.500"></path><path stroke-linecap="round" fill="none" stroke="rgb(33,33,33)" stroke-width="13.508" d="M 500.500,160.500 C 500.279,158.955 499.806,159.031 499.500,157.500"></path><path stroke-linecap="round" fill="none" stroke="rgb(33,33,33)" stroke-width="13.689" d="M 499.500,157.500 C 499.306,156.531 499.500,156.500 499.500,155.500"></path><path stroke-linecap="round" fill="none" stroke="rgb(33,33,33)" stroke-width="13.885" d="M 499.500,155.500 C 499.500,154.000 499.500,154.000 499.500,152.500"></path><path stroke-linecap="round" fill="none" stroke="rgb(33,33,33)" stroke-width="14.622" d="M 499.500,152.500 C 499.500,152.000 499.500,152.000 499.500,151.500"></path><path stroke-linecap="round" fill="none" stroke="rgb(33,33,33)" stroke-width="14.590" d="M 499.500,151.500 C 499.500,150.500 499.500,150.500 499.500,149.500"></path><path stroke-linecap="round" fill="none" stroke="rgb(33,33,33)" stroke-width="14.706" d="M 499.500,149.500 C 499.500,148.000 499.500,148.000 499.500,146.500"></path><path stroke-linecap="round" fill="none" stroke="rgb(33,33,33)" stroke-width="15.223" d="M 499.500,146.500 C 499.500,146.000 499.500,146.000 499.500,145.500"></path><path stroke-linecap="round" fill="none" stroke="rgb(33,33,33)" stroke-width="15.475" d="M 499.500,145.500 C 499.500,144.500 499.306,144.469 499.500,143.500"></path><path stroke-linecap="round" fill="none" stroke="rgb(33,33,33)" stroke-width="15.143" d="M 499.500,143.500 C 499.806,141.969 500.000,142.000 500.500,140.500"></path><path stroke-linecap="round" fill="none" stroke="rgb(33,33,33)" stroke-width="15.111" d="M 500.500,140.500 C 501.000,139.000 500.914,138.964 501.500,137.500"></path><path stroke-linecap="round" fill="none" stroke="rgb(33,33,33)" stroke-width="15.158" d="M 501.500,137.500 C 501.914,136.464 502.236,136.556 502.500,135.500"></path><path stroke-linecap="round" fill="none" stroke="rgb(33,33,33)" stroke-width="15.420" d="M 502.500,135.500 C 502.736,134.556 502.500,134.500 502.500,133.500"></path><path stroke-linecap="round" fill="none" stroke="rgb(33,33,33)" stroke-width="15.831" d="M 502.500,133.500 C 502.500,133.000 502.293,132.914 502.500,132.500"></path><path stroke-linecap="round" fill="none" stroke="rgb(33,33,33)" stroke-width="16.180" d="M 502.500,132.500 C 502.793,131.914 503.207,132.086 503.500,131.500"></path><path stroke-linecap="round" fill="none" stroke="rgb(33,33,33)" stroke-width="16.466" d="M 503.500,131.500 C 503.707,131.086 503.293,130.914 503.500,130.500"></path><path stroke-linecap="round" fill="none" stroke="rgb(33,33,33)" stroke-width="16.853" d="M 503.500,130.500 C 503.793,129.914 503.914,129.793 504.500,129.500"></path><path stroke-linecap="round" fill="none" stroke="rgb(33,33,33)" stroke-width="17.253" d="M 504.500,129.500 C 504.914,129.293 505.191,129.191 505.500,129.500"></path><path stroke-linecap="round" fill="none" stroke="rgb(33,33,33)" stroke-width="17.606" d="M 505.500,129.500 C 506.191,130.191 505.926,130.543 506.500,131.500"></path><path stroke-linecap="round" fill="none" stroke="rgb(33,33,33)" stroke-width="16.556" d="M 506.500,131.500 C 507.426,133.043 507.500,133.000 508.500,134.500"></path><path stroke-linecap="round" fill="none" stroke="rgb(33,33,33)" stroke-width="15.126" d="M 508.500,134.500 C 510.500,137.500 510.433,137.547 512.500,140.500"></path><path stroke-linecap="round" fill="none" stroke="rgb(33,33,33)" stroke-width="14.322" d="M 512.500,140.500 C 513.933,142.547 514.219,142.365 515.500,144.500"></path><path stroke-linecap="round" fill="none" stroke="rgb(33,33,33)" stroke-width="13.936" d="M 515.500,144.500 C 517.219,147.365 516.781,147.635 518.500,150.500"></path><path stroke-linecap="round" fill="none" stroke="rgb(33,33,33)" stroke-width="12.960" d="M 518.500,150.500 C 519.781,152.635 519.877,152.607 521.500,154.500"></path><path stroke-linecap="round" fill="none" stroke="rgb(33,33,33)" stroke-width="13.014" d="M 521.500,154.500 C 522.877,156.107 523.190,155.863 524.500,157.500"></path><path stroke-linecap="round" fill="none" stroke="rgb(33,33,33)" stroke-width="13.550" d="M 524.500,157.500 C 525.190,158.363 524.887,158.581 525.500,159.500"></path><path stroke-linecap="round" fill="none" stroke="rgb(33,33,33)" stroke-width="14.102" d="M 525.500,159.500 C 525.887,160.081 526.207,159.914 526.500,160.500"></path><path stroke-linecap="round" fill="none" stroke="rgb(33,33,33)" stroke-width="14.770" d="M 526.500,160.500 C 526.707,160.914 526.250,161.250 526.500,161.500"></path><path stroke-linecap="round" fill="none" stroke="rgb(33,33,33)" stroke-width="15.278" d="M 526.500,161.500 C 526.750,161.750 527.250,161.750 527.500,161.500"></path><path stroke-linecap="round" fill="none" stroke="rgb(33,33,33)" stroke-width="15.966" d="M 527.500,161.500 C 527.750,161.250 527.380,160.981 527.500,160.500"></path><path stroke-linecap="round" fill="none" stroke="rgb(33,33,33)" stroke-width="15.653" d="M 527.500,160.500 C 527.880,158.981 528.279,159.045 528.500,157.500"></path><path stroke-linecap="round" fill="none" stroke="rgb(33,33,33)" stroke-width="15.169" d="M 528.500,157.500 C 528.779,155.545 528.500,155.500 528.500,153.500"></path><path stroke-linecap="round" fill="none" stroke="rgb(33,33,33)" stroke-width="14.650" d="M 528.500,153.500 C 528.500,151.500 528.500,151.500 528.500,149.500"></path><path stroke-linecap="round" fill="none" stroke="rgb(33,33,33)" stroke-width="14.071" d="M 528.500,149.500 C 528.500,146.500 528.500,146.500 528.500,143.500"></path><path stroke-linecap="round" fill="none" stroke="rgb(33,33,33)" stroke-width="13.053" d="M 528.500,143.500 C 528.500,140.000 528.500,140.000 528.500,136.500"></path><path stroke-linecap="round" fill="none" stroke="rgb(33,33,33)" stroke-width="13.236" d="M 528.500,136.500 C 528.500,134.500 528.500,134.500 528.500,132.500"></path><path stroke-linecap="round" fill="none" stroke="rgb(33,33,33)" stroke-width="12.693" d="M 528.500,132.500 C 528.500,129.500 528.500,129.500 528.500,126.500"></path><path stroke-linecap="round" fill="none" stroke="rgb(33,33,33)" stroke-width="13.316" d="M 528.500,126.500 C 528.500,125.500 528.500,125.500 528.500,124.500"></path><path stroke-linecap="round" fill="none" stroke="rgb(33,33,33)" stroke-width="14.012" d="M 528.500,124.500 C 528.500,124.000 528.345,123.345 528.500,123.500"></path><path stroke-linecap="round" fill="none" stroke="rgb(33,33,33)" stroke-width="14.784" d="M 528.500,123.500 C 528.845,123.845 529.000,124.500 529.500,125.500"></path><path stroke-linecap="round" fill="none" stroke="rgb(33,33,33)" stroke-width="14.016" d="M 529.500,125.500 C 531.000,128.500 530.813,128.608 532.500,131.500"></path><path stroke-linecap="round" fill="none" stroke="rgb(33,33,33)" stroke-width="12.686" d="M 532.500,131.500 C 534.313,134.608 534.448,134.536 536.500,137.500"></path><path stroke-linecap="round" fill="none" stroke="rgb(33,33,33)" stroke-width="12.398" d="M 536.500,137.500 C 538.948,141.036 538.756,141.207 541.500,144.500"></path><path stroke-linecap="round" fill="none" stroke="rgb(33,33,33)" stroke-width="11.316" d="M 541.500,144.500 C 543.756,147.207 543.876,147.138 546.500,149.500"></path><path stroke-linecap="round" fill="none" stroke="rgb(33,33,33)" stroke-width="11.302" d="M 546.500,149.500 C 548.876,151.638 548.763,151.979 551.500,153.500"></path><path stroke-linecap="round" fill="none" stroke="rgb(33,33,33)" stroke-width="11.739" d="M 551.500,153.500 C 553.263,154.479 553.480,154.163 555.500,154.500"></path><path stroke-linecap="round" fill="none" stroke="rgb(33,33,33)" stroke-width="12.369" d="M 555.500,154.500 C 556.480,154.663 556.500,154.500 557.500,154.500"></path><path stroke-linecap="round" fill="none" stroke="rgb(33,33,33)" stroke-width="13.309" d="M 557.500,154.500 C 558.000,154.500 558.333,154.833 558.500,154.500"></path><path stroke-linecap="round" fill="none" stroke="rgb(33,33,33)" stroke-width="14.041" d="M 558.500,154.500 C 558.833,153.833 558.500,153.500 558.500,152.500"></path><path stroke-linecap="round" fill="none" stroke="rgb(33,33,33)" stroke-width="13.824" d="M 558.500,152.500 C 558.500,150.000 558.500,150.000 558.500,147.500"></path><path stroke-linecap="round" fill="none" stroke="rgb(33,33,33)" stroke-width="12.883" d="M 558.500,147.500 C 558.500,144.500 558.500,144.500 558.500,141.500"></path><path stroke-linecap="round" fill="none" stroke="rgb(33,33,33)" stroke-width="12.909" d="M 558.500,141.500 C 558.500,139.000 558.707,138.985 558.500,136.500"></path><path stroke-linecap="round" fill="none" stroke="rgb(33,33,33)" stroke-width="12.221" d="M 558.500,136.500 C 558.207,132.985 558.596,132.788 557.500,129.500"></path><path stroke-linecap="round" fill="none" stroke="rgb(33,33,33)" stroke-width="12.235" d="M 557.500,129.500 C 556.596,126.788 556.000,127.000 554.500,124.500"></path><path stroke-linecap="round" fill="none" stroke="rgb(33,33,33)" stroke-width="11.977" d="M 554.500,124.500 C 553.000,122.000 553.000,122.000 551.500,119.500"></path><path stroke-linecap="round" fill="none" stroke="rgb(33,33,33)" stroke-width="12.038" d="M 551.500,119.500 C 550.000,117.000 550.045,116.972 548.500,114.500"></path><path stroke-linecap="round" fill="none" stroke="rgb(33,33,33)" stroke-width="12.282" d="M 548.500,114.500 C 547.545,112.972 547.832,112.565 546.500,111.500"></path><path stroke-linecap="round" fill="none" stroke="rgb(33,33,33)" stroke-width="12.798" d="M 546.500,111.500 C 545.332,110.565 544.640,110.500 543.500,110.500"></path><path stroke-linecap="round" fill="none" stroke="rgb(33,33,33)" stroke-width="13.767" d="M 543.500,110.500 C 543.140,110.500 543.500,111.000 543.500,111.500"></path><path stroke-linecap="round" fill="none" stroke="rgb(33,33,33)" stroke-width="14.029" d="M 543.500,111.500 C 543.500,113.000 543.500,113.000 543.500,114.500"></path><path stroke-linecap="round" fill="none" stroke="rgb(33,33,33)" stroke-width="14.589" d="M 543.500,114.500 C 543.500,115.000 543.345,115.036 543.500,115.500"></path><path stroke-linecap="round" fill="none" stroke="rgb(33,33,33)" stroke-width="14.988" d="M 543.500,115.500 C 543.845,116.536 543.809,116.809 544.500,117.500"></path><path stroke-linecap="round" fill="none" stroke="rgb(33,33,33)" stroke-width="15.588" d="M 544.500,117.500 C 544.809,117.809 545.000,117.500 545.500,117.500"></path><path stroke-linecap="round" fill="none" stroke="rgb(33,33,33)" stroke-width="16.268" d="M 545.500,117.500 C 546.000,117.500 546.086,117.707 546.500,117.500"></path><path stroke-linecap="round" fill="none" stroke="rgb(33,33,33)" stroke-width="16.380" d="M 546.500,117.500 C 547.086,117.207 547.113,117.081 547.500,116.500"></path><path stroke-linecap="round" fill="none" stroke="rgb(33,33,33)" stroke-width="16.163" d="M 547.500,116.500 C 548.113,115.581 547.926,115.457 548.500,114.500"></path><path stroke-linecap="round" fill="none" stroke="rgb(33,33,33)" stroke-width="15.790" d="M 548.500,114.500 C 549.426,112.957 549.395,112.921 550.500,111.500"></path><path stroke-linecap="round" fill="none" stroke="rgb(33,33,33)" stroke-width="13.974" d="M 550.500,111.500 C 552.895,108.421 552.890,108.400 555.500,105.500"></path><path stroke-linecap="round" fill="none" stroke="rgb(33,33,33)" stroke-width="13.637" d="M 555.500,105.500 C 557.390,103.400 557.610,103.600 559.500,101.500"></path><path stroke-linecap="round" fill="none" stroke="rgb(33,33,33)" stroke-width="12.569" d="M 559.500,101.500 C 562.110,98.600 561.461,97.710 564.500,95.500"></path><path stroke-linecap="round" fill="none" stroke="rgb(33,33,33)" stroke-width="12.427" d="M 564.500,95.500 C 566.961,93.710 567.708,94.896 570.500,93.500"></path><path stroke-linecap="round" fill="none" stroke="rgb(33,33,33)" stroke-width="12.299" d="M 570.500,93.500 C 572.708,92.396 572.427,91.882 574.500,90.500"></path></svg>