<svg xmlns="http://www.w3.org/2000/svg" xmlns:xlink="http://www.w3.org/1999/xlink" viewBox="0 0 800 500"><path d="M 391.000,302.500 C 391.000,301.500 391.000,301.500 391.000,300.500" stroke-width="19.286" stroke="rgb(33,33,33)" fill="none" stroke-linecap="round"></path><path d="M 391.000,300.500 C 391.000,299.000 391.000,299.000 391.000,297.500" stroke-width="17.989" stroke="rgb(33,33,33)" fill="none" stroke-linecap="round"></path><path d="M 391.000,297.500 C 391.000,295.500 391.000,295.500 391.000,293.500" stroke-width="16.669" stroke="rgb(33,33,33)" fill="none" stroke-linecap="round"></path><path d="M 391.000,293.500 C 391.000,290.500 391.000,290.500 391.000,287.500" stroke-width="15.515" stroke="rgb(33,33,33)" fill="none" stroke-linecap="round"></path><path d="M 391.000,287.500 C 391.000,281.000 391.000,281.000 391.000,274.500" stroke-width="12.905" stroke="rgb(33,33,33)" fill="none" stroke-linecap="round"></path><path d="M 391.000,274.500 C 391.000,268.500 391.000,268.500 391.000,262.500" stroke-width="11.536" stroke="rgb(33,33,33)" fill="none" stroke-linecap="round"></path><path d="M 391.000,262.500 C 391.000,259.500 391.000,259.500 391.000,256.500" stroke-width="11.404" stroke="rgb(33,33,33)" fill="none" stroke-linecap="round"></path><path d="M 391.000,256.500 C 391.000,245.000 391.000,245.000 391.000,233.500" stroke-width="9.500" stroke="rgb(33,33,33)" fill="none" stroke-linecap="round"></path><path d="M 391.000,233.500 C 391.000,225.500 391.000,225.500 391.000,217.500" stroke-width="8.784" stroke="rgb(33,33,33)" fill="none" stroke-linecap="round"></path><path d="M 391.000,217.500 C 391.000,209.000 391.000,209.000 391.000,200.500" stroke-width="8.201" stroke="rgb(33,33,33)" fill="none" stroke-linecap="round"></path><path d="M 391.000,200.500 C 391.000,191.000 391.000,191.000 391.000,181.500" stroke-width="7.640" stroke="rgb(33,33,33)" fill="none" stroke-linecap="round"></path><path d="M 391.000,181.500 C 391.000,173.000 391.000,173.000 391.000,164.500" stroke-width="7.376" stroke="rgb(33,33,33)" fill="none" stroke-linecap="round"></path><path d="M 391.000,164.500 C 391.000,160.000 391.000,160.000 391.000,155.500" stroke-width="7.725" stroke="rgb(33,33,33)" fill="none" stroke-linecap="round"></path><path d="M 391.000,155.500 C 391.000,148.000 391.000,148.000 391.000,140.500" stroke-width="7.579" stroke="rgb(33,33,33)" fill="none" stroke-linecap="round"></path><path d="M 391.000,140.500 C 391.000,133.500 391.000,133.500 391.000,126.500" stroke-width="7.535" stroke="rgb(33,33,33)" fill="none" stroke-linecap="round"></path><path d="M 391.000,126.500 C 391.000,121.000 391.000,121.000 391.000,115.500" stroke-width="7.714" stroke="rgb(33,33,33)" fill="none" stroke-linecap="round"></path><path d="M 391.000,115.500 C 391.000,111.000 391.000,111.000 391.000,106.500" stroke-width="8.219" stroke="rgb(33,33,33)" fill="none" stroke-linecap="round"></path><path d="M 391.000,106.500 C 391.000,101.500 391.000,101.500 391.000,96.500" stroke-width="7.876" stroke="rgb(33,33,33)" fill="none" stroke-linecap="round"></path><path d="M 391.000,96.500 C 391.000,95.500 391.124,95.490 391.000,94.500" stroke-width="8.778" stroke="rgb(33,33,33)" fill="none" stroke-linecap="round"></path><path d="M 391.000,94.500 C 390.624,91.490 390.302,91.516 390.000,88.500" stroke-width="9.286" stroke="rgb(33,33,33)" fill="none" stroke-linecap="round"></path><path d="M 390.000,88.500 C 389.802,86.516 390.472,86.389 390.000,84.500" stroke-width="9.836" stroke="rgb(33,33,33)" fill="none" stroke-linecap="round"></path><path d="M 390.000,84.500 C 389.472,82.389 388.528,82.611 388.000,80.500" stroke-width="10.404" stroke="rgb(33,33,33)" fill="none" stroke-linecap="round"></path><path d="M 388.000,80.500 C 387.528,78.611 388.279,78.455 388.000,76.500" stroke-width="10.821" stroke="rgb(33,33,33)" fill="none" stroke-linecap="round"></path><path d="M 388.000,76.500 C 387.779,74.955 387.586,74.964 387.000,73.500" stroke-width="11.329" stroke="rgb(33,33,33)" fill="none" stroke-linecap="round"></path><path d="M 387.000,73.500 C 386.586,72.464 386.500,72.500 386.000,71.500" stroke-width="12.056" stroke="rgb(33,33,33)" fill="none" stroke-linecap="round"></path><path d="M 386.000,71.500 C 385.500,70.500 385.662,70.383 385.000,69.500" stroke-width="12.659" stroke="rgb(33,33,33)" fill="none" stroke-linecap="round"></path><path d="M 385.000,69.500 C 384.162,68.383 383.838,68.617 383.000,67.500" stroke-width="13.061" stroke="rgb(33,33,33)" fill="none" stroke-linecap="round"></path><path d="M 383.000,67.500 C 382.338,66.617 382.750,66.250 382.000,65.500" stroke-width="13.534" stroke="rgb(33,33,33)" fill="none" stroke-linecap="round"></path><path d="M 382.000,65.500 C 381.250,64.750 380.919,65.113 380.000,64.500" stroke-width="13.862" stroke="rgb(33,33,33)" fill="none" stroke-linecap="round"></path><path d="M 380.000,64.500 C 379.419,64.113 379.581,63.887 379.000,63.500" stroke-width="14.463" stroke="rgb(33,33,33)" fill="none" stroke-linecap="round"></path><path d="M 379.000,63.500 C 378.081,62.887 377.919,63.113 377.000,62.500" stroke-width="14.717" stroke="rgb(33,33,33)" fill="none" stroke-linecap="round"></path><path d="M 377.000,62.500 C 376.419,62.113 376.500,62.000 376.000,61.500" stroke-width="15.155" stroke="rgb(33,33,33)" fill="none" stroke-linecap="round"></path><path d="M 376.000,61.500 C 375.500,61.000 375.563,60.923 375.000,60.500" stroke-width="15.526" stroke="rgb(33,33,33)" fill="none" stroke-linecap="round"></path><path d="M 375.000,60.500 C 373.563,59.423 373.543,59.426 372.000,58.500" stroke-width="15.185" stroke="rgb(33,33,33)" fill="none" stroke-linecap="round"></path><path d="M 372.000,58.500 C 371.043,57.926 371.036,57.914 370.000,57.500" stroke-width="15.309" stroke="rgb(33,33,33)" fill="none" stroke-linecap="round"></path><path d="M 370.000,57.500 C 368.536,56.914 368.382,57.191 367.000,56.500" stroke-width="15.143" stroke="rgb(33,33,33)" fill="none" stroke-linecap="round"></path><path d="M 367.000,56.500 C 366.382,56.191 366.563,55.923 366.000,55.500" stroke-width="15.515" stroke="rgb(33,33,33)" fill="none" stroke-linecap="round"></path><path d="M 366.000,55.500 C 364.563,54.423 364.437,54.577 363.000,53.500" stroke-width="15.177" stroke="rgb(33,33,33)" fill="none" stroke-linecap="round"></path><path d="M 363.000,53.500 C 362.437,53.077 362.581,52.887 362.000,52.500" stroke-width="15.544" stroke="rgb(33,33,33)" fill="none" stroke-linecap="round"></path><path d="M 362.000,52.500 C 361.081,51.887 361.055,51.852 360.000,51.500" stroke-width="15.600" stroke="rgb(33,33,33)" fill="none" stroke-linecap="round"></path><path d="M 360.000,51.500 C 358.055,50.852 357.945,51.148 356.000,50.500" stroke-width="15.094" stroke="rgb(33,33,33)" fill="none" stroke-linecap="round"></path><path d="M 356.000,50.500 C 354.945,50.148 355.067,49.805 354.000,49.500" stroke-width="15.235" stroke="rgb(33,33,33)" fill="none" stroke-linecap="round"></path><path d="M 354.000,49.500 C 351.567,48.805 351.508,48.918 349.000,48.500" stroke-width="14.710" stroke="rgb(33,33,33)" fill="none" stroke-linecap="round"></path><path d="M 349.000,48.500 C 348.508,48.418 348.500,48.500 348.000,48.500" stroke-width="15.227" stroke="rgb(33,33,33)" fill="none" stroke-linecap="round"></path><path d="M 348.000,48.500 C 347.000,48.500 347.000,48.500 346.000,48.500" stroke-width="15.478" stroke="rgb(33,33,33)" fill="none" stroke-linecap="round"></path><path d="M 346.000,48.500 C 344.500,48.500 344.500,48.500 343.000,48.500" stroke-width="15.198" stroke="rgb(33,33,33)" fill="none" stroke-linecap="round"></path><path d="M 343.000,48.500 C 342.000,48.500 342.000,48.500 341.000,48.500" stroke-width="15.305" stroke="rgb(33,33,33)" fill="none" stroke-linecap="round"></path><path d="M 341.000,48.500 C 340.000,48.500 339.944,48.264 339.000,48.500" stroke-width="15.542" stroke="rgb(33,33,33)" fill="none" stroke-linecap="round"></path><path d="M 339.000,48.500 C 337.944,48.764 338.000,49.000 337.000,49.500" stroke-width="15.784" stroke="rgb(33,33,33)" fill="none" stroke-linecap="round"></path><path d="M 337.000,49.500 C 337.000,49.500 337.000,49.500 337.000,49.500" stroke-width="16.512" stroke="rgb(33,33,33)" fill="none" stroke-linecap="round"></path><path d="M 337.000,49.500 C 336.500,50.000 336.500,50.000 336.000,50.500" stroke-width="16.701" stroke="rgb(33,33,33)" fill="none" stroke-linecap="round"></path><path d="M 336.000,50.500 C 335.500,51.000 335.500,51.000 335.000,51.500" stroke-width="16.730" stroke="rgb(33,33,33)" fill="none" stroke-linecap="round"></path><path d="M 335.000,51.500 C 334.500,52.000 334.160,51.859 334.000,52.500" stroke-width="16.753" stroke="rgb(33,33,33)" fill="none" stroke-linecap="round"></path><path d="M 334.000,52.500 C 333.660,53.859 334.286,54.068 334.000,55.500" stroke-width="16.415" stroke="rgb(33,33,33)" fill="none" stroke-linecap="round"></path><path d="M 334.000,55.500 C 333.786,56.568 333.179,56.424 333.000,57.500" stroke-width="16.293" stroke="rgb(33,33,33)" fill="none" stroke-linecap="round"></path><path d="M 333.000,57.500 C 332.679,59.424 333.000,59.500 333.000,61.500" stroke-width="15.646" stroke="rgb(33,33,33)" fill="none" stroke-linecap="round"></path><path d="M 333.000,61.500 C 333.000,63.000 333.000,63.000 333.000,64.500" stroke-width="15.328" stroke="rgb(33,33,33)" fill="none" stroke-linecap="round"></path><path d="M 333.000,64.500 C 333.000,67.000 333.000,67.000 333.000,69.500" stroke-width="14.654" stroke="rgb(33,33,33)" fill="none" stroke-linecap="round"></path><path d="M 333.000,69.500 C 333.000,71.500 333.000,71.500 333.000,73.500" stroke-width="14.522" stroke="rgb(33,33,33)" fill="none" stroke-linecap="round"></path><path d="M 333.000,73.500 C 333.000,76.500 333.000,76.500 333.000,79.500" stroke-width="13.818" stroke="rgb(33,33,33)" fill="none" stroke-linecap="round"></path><path d="M 333.000,79.500 C 333.000,82.500 333.000,82.500 333.000,85.500" stroke-width="13.301" stroke="rgb(33,33,33)" fill="none" stroke-linecap="round"></path><path d="M 333.000,85.500 C 333.000,89.000 332.541,89.057 333.000,92.500" stroke-width="12.712" stroke="rgb(33,33,33)" fill="none" stroke-linecap="round"></path><path d="M 333.000,92.500 C 333.541,96.557 334.192,96.462 335.000,100.500" stroke-width="12.050" stroke="rgb(33,33,33)" fill="none" stroke-linecap="round"></path><path d="M 335.000,100.500 C 335.692,103.962 335.500,104.000 336.000,107.500" stroke-width="11.765" stroke="rgb(33,33,33)" fill="none" stroke-linecap="round"></path><path d="M 336.000,107.500 C 336.500,111.000 336.308,111.038 337.000,114.500" stroke-width="11.784" stroke="rgb(33,33,33)" fill="none" stroke-linecap="round"></path><path d="M 337.000,114.500 C 337.808,118.538 338.137,118.472 339.000,122.500" stroke-width="10.949" stroke="rgb(33,33,33)" fill="none" stroke-linecap="round"></path><path d="M 339.000,122.500 C 339.637,125.472 339.317,125.541 340.000,128.500" stroke-width="11.055" stroke="rgb(33,33,33)" fill="none" stroke-linecap="round"></path><path d="M 340.000,128.500 C 340.817,132.041 340.930,132.022 342.000,135.500" stroke-width="10.961" stroke="rgb(33,33,33)" fill="none" stroke-linecap="round"></path><path d="M 342.000,135.500 C 342.930,138.522 343.292,138.431 344.000,141.500" stroke-width="11.029" stroke="rgb(33,33,33)" fill="none" stroke-linecap="round"></path><path d="M 344.000,141.500 C 344.792,144.931 344.368,145.026 345.000,148.500" stroke-width="10.972" stroke="rgb(33,33,33)" fill="none" stroke-linecap="round"></path><path d="M 345.000,148.500 C 345.368,150.526 345.172,150.636 346.000,152.500" stroke-width="11.379" stroke="rgb(33,33,33)" fill="none" stroke-linecap="round"></path><path d="M 346.000,152.500 C 347.172,155.136 347.585,154.953 349.000,157.500" stroke-width="11.550" stroke="rgb(33,33,33)" fill="none" stroke-linecap="round"></path><path d="M 349.000,157.500 C 350.085,159.453 350.093,159.458 351.000,161.500" stroke-width="11.703" stroke="rgb(33,33,33)" fill="none" stroke-linecap="round"></path><path d="M 351.000,161.500 C 352.093,163.958 351.802,164.104 353.000,166.500" stroke-width="11.884" stroke="rgb(33,33,33)" fill="none" stroke-linecap="round"></path><path d="M 353.000,166.500 C 353.802,168.104 353.851,168.122 355.000,169.500" stroke-width="12.154" stroke="rgb(33,33,33)" fill="none" stroke-linecap="round"></path><path d="M 355.000,169.500 C 356.351,171.122 356.649,170.878 358.000,172.500" stroke-width="12.242" stroke="rgb(33,33,33)" fill="none" stroke-linecap="round"></path><path d="M 358.000,172.500 C 359.149,173.878 358.953,174.034 360.000,175.500" stroke-width="12.629" stroke="rgb(33,33,33)" fill="none" stroke-linecap="round"></path><path d="M 360.000,175.500 C 361.453,177.534 361.500,177.500 363.000,179.500" stroke-width="12.595" stroke="rgb(33,33,33)" fill="none" stroke-linecap="round"></path><path d="M 363.000,179.500 C 364.500,181.500 364.500,181.500 366.000,183.500" stroke-width="12.568" stroke="rgb(33,33,33)" fill="none" stroke-linecap="round"></path><path d="M 366.000,183.500 C 367.500,185.500 367.500,185.500 369.000,187.500" stroke-width="12.547" stroke="rgb(33,33,33)" fill="none" stroke-linecap="round"></path><path d="M 369.000,187.500 C 370.500,189.500 370.719,189.365 372.000,191.500" stroke-width="12.393" stroke="rgb(33,33,33)" fill="none" stroke-linecap="round"></path><path d="M 372.000,191.500 C 373.719,194.365 373.281,194.635 375.000,197.500" stroke-width="12.226" stroke="rgb(33,33,33)" fill="none" stroke-linecap="round"></path><path d="M 375.000,197.500 C 376.281,199.635 376.618,199.427 378.000,201.500" stroke-width="12.272" stroke="rgb(33,33,33)" fill="none" stroke-linecap="round"></path><path d="M 378.000,201.500 C 378.618,202.427 378.546,202.479 379.000,203.500" stroke-width="12.850" stroke="rgb(33,33,33)" fill="none" stroke-linecap="round"></path><path d="M 379.000,203.500 C 380.546,206.979 380.454,207.021 382.000,210.500" stroke-width="12.264" stroke="rgb(33,33,33)" fill="none" stroke-linecap="round"></path><path d="M 382.000,210.500 C 382.454,211.521 382.586,211.464 383.000,212.500" stroke-width="12.842" stroke="rgb(33,33,33)" fill="none" stroke-linecap="round"></path><path d="M 383.000,212.500 C 383.586,213.964 383.414,214.036 384.000,215.500" stroke-width="13.145" stroke="rgb(33,33,33)" fill="none" stroke-linecap="round"></path><path d="M 384.000,215.500 C 384.414,216.536 384.500,216.500 385.000,217.500" stroke-width="13.606" stroke="rgb(33,33,33)" fill="none" stroke-linecap="round"></path><path d="M 385.000,217.500 C 385.500,218.500 385.387,218.581 386.000,219.500" stroke-width="13.999" stroke="rgb(33,33,33)" fill="none" stroke-linecap="round"></path><path d="M 386.000,219.500 C 386.387,220.081 386.707,219.914 387.000,220.500" stroke-width="14.541" stroke="rgb(33,33,33)" fill="none" stroke-linecap="round"></path><path d="M 387.000,220.500 C 387.207,220.914 387.000,221.000 387.000,221.500" stroke-width="15.122" stroke="rgb(33,33,33)" fill="none" stroke-linecap="round"></path><path d="M 387.000,221.500 C 387.000,221.500 387.000,221.500 387.000,221.500" stroke-width="15.929" stroke="rgb(33,33,33)" fill="none" stroke-linecap="round"></path><path d="M 387.000,221.500 C 387.500,222.000 387.500,222.000 388.000,222.500" stroke-width="16.220" stroke="rgb(33,33,33)" fill="none" stroke-linecap="round"></path><path d="M 388.000,222.500 C 388.000,222.500 388.000,222.500 388.000,222.500" stroke-width="16.893" stroke="rgb(33,33,33)" fill="none" stroke-linecap="round"></path><path d="M 388.000,222.500 C 387.500,222.500 387.500,222.500 387.000,222.500" stroke-width="17.438" stroke="rgb(33,33,33)" fill="none" stroke-linecap="round"></path><path d="M 387.000,222.500 C 387.000,222.500 387.000,222.500 387.000,222.500" stroke-width="17.936" stroke="rgb(33,33,33)" fill="none" stroke-linecap="round"></path><path d="M 387.000,222.500 C 386.000,222.000 385.883,222.162 385.000,221.500" stroke-width="17.470" stroke="rgb(33,33,33)" fill="none" stroke-linecap="round"></path><path d="M 385.000,221.500 C 383.883,220.662 384.180,220.208 383.000,219.500" stroke-width="16.903" stroke="rgb(33,33,33)" fill="none" stroke-linecap="round"></path><path d="M 383.000,219.500 C 381.680,218.708 381.320,219.292 380.000,218.500" stroke-width="16.364" stroke="rgb(33,33,33)" fill="none" stroke-linecap="round"></path><path d="M 380.000,218.500 C 378.820,217.792 379.099,217.379 378.000,216.500" stroke-width="16.063" stroke="rgb(33,33,33)" fill="none" stroke-linecap="round"></path><path d="M 378.000,216.500 C 376.599,215.379 376.466,215.547 375.000,214.500" stroke-width="15.593" stroke="rgb(33,33,33)" fill="none" stroke-linecap="round"></path><path d="M 375.000,214.500 C 372.966,213.047 373.000,213.000 371.000,211.500" stroke-width="14.847" stroke="rgb(33,33,33)" fill="none" stroke-linecap="round"></path><path d="M 371.000,211.500 C 369.000,210.000 369.111,209.820 367.000,208.500" stroke-width="14.299" stroke="rgb(33,33,33)" fill="none" stroke-linecap="round"></path><path d="M 367.000,208.500 C 365.111,207.320 364.889,207.680 363.000,206.500" stroke-width="14.017" stroke="rgb(33,33,33)" fill="none" stroke-linecap="round"></path><path d="M 363.000,206.500 C 360.889,205.180 361.077,204.885 359.000,203.500" stroke-width="13.805" stroke="rgb(33,33,33)" fill="none" stroke-linecap="round"></path><path d="M 359.000,203.500 C 356.577,201.885 356.472,202.045 354.000,200.500" stroke-width="13.148" stroke="rgb(33,33,33)" fill="none" stroke-linecap="round"></path><path d="M 354.000,200.500 C 352.472,199.545 352.528,199.455 351.000,198.500" stroke-width="13.303" stroke="rgb(33,33,33)" fill="none" stroke-linecap="round"></path><path d="M 351.000,198.500 C 348.528,196.955 348.599,196.800 346.000,195.500" stroke-width="13.087" stroke="rgb(33,33,33)" fill="none" stroke-linecap="round"></path><path d="M 346.000,195.500 C 343.599,194.300 343.458,194.593 341.000,193.500" stroke-width="12.722" stroke="rgb(33,33,33)" fill="none" stroke-linecap="round"></path><path d="M 341.000,193.500 C 338.958,192.593 338.889,192.680 337.000,191.500" stroke-width="12.875" stroke="rgb(33,33,33)" fill="none" stroke-linecap="round"></path><path d="M 337.000,191.500 C 334.889,190.180 335.228,189.490 333.000,188.500" stroke-width="12.648" stroke="rgb(33,33,33)" fill="none" stroke-linecap="round"></path><path d="M 333.000,188.500 C 330.728,187.490 330.397,188.299 328.000,187.500" stroke-width="12.702" stroke="rgb(33,33,33)" fill="none" stroke-linecap="round"></path><path d="M 328.000,187.500 C 325.897,186.799 326.042,186.407 324.000,185.500" stroke-width="12.632" stroke="rgb(33,33,33)" fill="none" stroke-linecap="round"></path><path d="M 324.000,185.500 C 321.542,184.407 321.568,184.270 319.000,183.500" stroke-width="12.813" stroke="rgb(33,33,33)" fill="none" stroke-linecap="round"></path><path d="M 319.000,183.500 C 316.568,182.770 316.433,183.195 314.000,182.500" stroke-width="12.578" stroke="rgb(33,33,33)" fill="none" stroke-linecap="round"></path><path d="M 314.000,182.500 C 312.933,182.195 313.082,181.655 312.000,181.500" stroke-width="13.169" stroke="rgb(33,33,33)" fill="none" stroke-linecap="round"></path><path d="M 312.000,181.500 C 309.582,181.155 309.500,181.500 307.000,181.500" stroke-width="12.873" stroke="rgb(33,33,33)" fill="none" stroke-linecap="round"></path><path d="M 307.000,181.500 C 305.000,181.500 304.970,181.746 303.000,181.500" stroke-width="12.994" stroke="rgb(33,33,33)" fill="none" stroke-linecap="round"></path><path d="M 303.000,181.500 C 300.970,181.246 301.030,180.754 299.000,180.500" stroke-width="13.066" stroke="rgb(33,33,33)" fill="none" stroke-linecap="round"></path><path d="M 299.000,180.500 C 297.030,180.254 297.000,180.500 295.000,180.500" stroke-width="13.151" stroke="rgb(33,33,33)" fill="none" stroke-linecap="round"></path><path d="M 295.000,180.500 C 293.500,180.500 293.500,180.500 292.000,180.500" stroke-width="13.438" stroke="rgb(33,33,33)" fill="none" stroke-linecap="round"></path><path d="M 292.000,180.500 C 290.500,180.500 290.500,180.500 289.000,180.500" stroke-width="13.678" stroke="rgb(33,33,33)" fill="none" stroke-linecap="round"></path><path d="M 289.000,180.500 C 288.000,180.500 288.000,180.500 287.000,180.500" stroke-width="14.117" stroke="rgb(33,33,33)" fill="none" stroke-linecap="round"></path><path d="M 287.000,180.500 C 285.500,180.500 285.500,180.500 284.000,180.500" stroke-width="14.129" stroke="rgb(33,33,33)" fill="none" stroke-linecap="round"></path><path d="M 284.000,180.500 C 283.500,180.500 283.464,180.345 283.000,180.500" stroke-width="14.794" stroke="rgb(33,33,33)" fill="none" stroke-linecap="round"></path><path d="M 283.000,180.500 C 281.964,180.845 282.000,181.000 281.000,181.500" stroke-width="14.901" stroke="rgb(33,33,33)" fill="none" stroke-linecap="round"></path><path d="M 281.000,181.500 C 280.000,182.000 279.919,181.887 279.000,182.500" stroke-width="15.148" stroke="rgb(33,33,33)" fill="none" stroke-linecap="round"></path><path d="M 279.000,182.500 C 278.419,182.887 278.581,183.113 278.000,183.500" stroke-width="15.519" stroke="rgb(33,33,33)" fill="none" stroke-linecap="round"></path><path d="M 278.000,183.500 C 277.081,184.113 276.750,183.750 276.000,184.500" stroke-width="15.580" stroke="rgb(33,33,33)" fill="none" stroke-linecap="round"></path><path d="M 276.000,184.500 C 275.250,185.250 275.500,185.500 275.000,186.500" stroke-width="15.764" stroke="rgb(33,33,33)" fill="none" stroke-linecap="round"></path><path d="M 275.000,186.500 C 274.500,187.500 274.662,187.617 274.000,188.500" stroke-width="15.551" stroke="rgb(33,33,33)" fill="none" stroke-linecap="round"></path><path d="M 274.000,188.500 C 273.162,189.617 273.000,189.500 272.000,190.500" stroke-width="15.429" stroke="rgb(33,33,33)" fill="none" stroke-linecap="round"></path><path d="M 272.000,190.500 C 271.500,191.000 271.500,191.000 271.000,191.500" stroke-width="15.693" stroke="rgb(33,33,33)" fill="none" stroke-linecap="round"></path><path d="M 271.000,191.500 C 269.500,193.000 269.500,193.000 268.000,194.500" stroke-width="15.265" stroke="rgb(33,33,33)" fill="none" stroke-linecap="round"></path><path d="M 268.000,194.500 C 267.500,195.000 267.309,194.882 267.000,195.500" stroke-width="15.618" stroke="rgb(33,33,33)" fill="none" stroke-linecap="round"></path><path d="M 267.000,195.500 C 266.309,196.882 266.691,197.118 266.000,198.500" stroke-width="15.384" stroke="rgb(33,33,33)" fill="none" stroke-linecap="round"></path><path d="M 266.000,198.500 C 265.691,199.118 265.387,198.919 265.000,199.500" stroke-width="15.765" stroke="rgb(33,33,33)" fill="none" stroke-linecap="round"></path><path d="M 265.000,199.500 C 264.387,200.419 264.500,200.500 264.000,201.500" stroke-width="15.680" stroke="rgb(33,33,33)" fill="none" stroke-linecap="round"></path><path d="M 264.000,201.500 C 263.500,202.500 263.613,202.581 263.000,203.500" stroke-width="15.785" stroke="rgb(33,33,33)" fill="none" stroke-linecap="round"></path><path d="M 263.000,203.500 C 262.613,204.081 262.207,203.879 262.000,204.500" stroke-width="15.986" stroke="rgb(33,33,33)" fill="none" stroke-linecap="round"></path><path d="M 262.000,204.500 C 261.707,205.379 262.236,205.556 262.000,206.500" stroke-width="16.029" stroke="rgb(33,33,33)" fill="none" stroke-linecap="round"></path><path d="M 262.000,206.500 C 261.736,207.556 261.264,207.444 261.000,208.500" stroke-width="15.988" stroke="rgb(33,33,33)" fill="none" stroke-linecap="round"></path><path d="M 261.000,208.500 C 260.764,209.444 261.194,209.531 261.000,210.500" stroke-width="15.940" stroke="rgb(33,33,33)" fill="none" stroke-linecap="round"></path><path d="M 261.000,210.500 C 260.694,212.031 260.306,211.969 260.000,213.500" stroke-width="15.739" stroke="rgb(33,33,33)" fill="none" stroke-linecap="round"></path><path d="M 260.000,213.500 C 259.806,214.469 260.000,214.500 260.000,215.500" stroke-width="15.829" stroke="rgb(33,33,33)" fill="none" stroke-linecap="round"></path><path d="M 260.000,215.500 C 260.000,216.000 260.000,216.000 260.000,216.500" stroke-width="16.220" stroke="rgb(33,33,33)" fill="none" stroke-linecap="round"></path><path d="M 260.000,216.500 C 260.000,217.000 259.793,217.086 260.000,217.500" stroke-width="16.548" stroke="rgb(33,33,33)" fill="none" stroke-linecap="round"></path><path d="M 260.000,217.500 C 260.293,218.086 260.500,218.000 261.000,218.500" stroke-width="16.676" stroke="rgb(33,33,33)" fill="none" stroke-linecap="round"></path><path d="M 261.000,218.500 C 262.000,219.500 262.000,219.500 263.000,220.500" stroke-width="16.302" stroke="rgb(33,33,33)" fill="none" stroke-linecap="round"></path><path d="M 263.000,220.500 C 263.500,221.000 263.500,221.000 264.000,221.500" stroke-width="16.475" stroke="rgb(33,33,33)" fill="none" stroke-linecap="round"></path><path d="M 264.000,221.500 C 264.500,222.000 264.707,221.914 265.000,222.500" stroke-width="16.617" stroke="rgb(33,33,33)" fill="none" stroke-linecap="round"></path><path d="M 265.000,222.500 C 265.207,222.914 264.845,223.036 265.000,223.500" stroke-width="17.114" stroke="rgb(33,33,33)" fill="none" stroke-linecap="round"></path><path d="M 265.000,223.500 C 265.345,224.536 265.655,224.464 266.000,225.500" stroke-width="16.998" stroke="rgb(33,33,33)" fill="none" stroke-linecap="round"></path><path d="M 266.000,225.500 C 266.155,225.964 266.000,226.000 266.000,226.500" stroke-width="17.361" stroke="rgb(33,33,33)" fill="none" stroke-linecap="round"></path><path d="M 266.000,226.500 C 266.000,228.000 266.000,228.000 266.000,229.500" stroke-width="16.614" stroke="rgb(33,33,33)" fill="none" stroke-linecap="round"></path><path d="M 266.000,229.500 C 266.000,230.500 266.000,230.500 266.000,231.500" stroke-width="16.530" stroke="rgb(33,33,33)" fill="none" stroke-linecap="round"></path><path d="M 266.000,231.500 C 266.000,232.500 266.000,232.500 266.000,233.500" stroke-width="16.537" stroke="rgb(33,33,33)" fill="none" stroke-linecap="round"></path><path d="M 266.000,233.500 C 266.000,234.000 266.000,234.000 266.000,234.500" stroke-width="16.761" stroke="rgb(33,33,33)" fill="none" stroke-linecap="round"></path><path d="M 266.000,234.500 C 266.000,236.000 265.757,236.040 266.000,237.500" stroke-width="16.421" stroke="rgb(33,33,33)" fill="none" stroke-linecap="round"></path><path d="M 266.000,237.500 C 266.257,239.040 266.299,239.098 267.000,240.500" stroke-width="15.859" stroke="rgb(33,33,33)" fill="none" stroke-linecap="round"></path><path d="M 267.000,240.500 C 267.799,242.098 268.000,242.000 269.000,243.500" stroke-width="15.438" stroke="rgb(33,33,33)" fill="none" stroke-linecap="round"></path><path d="M 269.000,243.500 C 270.000,245.000 269.879,245.099 271.000,246.500" stroke-width="15.118" stroke="rgb(33,33,33)" fill="none" stroke-linecap="round"></path><path d="M 271.000,246.500 C 271.879,247.599 272.000,247.500 273.000,248.500" stroke-width="15.086" stroke="rgb(33,33,33)" fill="none" stroke-linecap="round"></path><path d="M 273.000,248.500 C 273.500,249.000 273.449,249.059 274.000,249.500" stroke-width="15.468" stroke="rgb(33,33,33)" fill="none" stroke-linecap="round"></path><path d="M 274.000,249.500 C 275.949,251.059 276.051,250.941 278.000,252.500" stroke-width="14.756" stroke="rgb(33,33,33)" fill="none" stroke-linecap="round"></path><path d="M 278.000,252.500 C 278.551,252.941 278.449,253.059 279.000,253.500" stroke-width="15.189" stroke="rgb(33,33,33)" fill="none" stroke-linecap="round"></path><path d="M 279.000,253.500 C 280.949,255.059 280.966,255.047 283.000,256.500" stroke-width="14.552" stroke="rgb(33,33,33)" fill="none" stroke-linecap="round"></path><path d="M 283.000,256.500 C 284.466,257.547 284.402,257.701 286.000,258.500" stroke-width="14.429" stroke="rgb(33,33,33)" fill="none" stroke-linecap="round"></path><path d="M 286.000,258.500 C 287.402,259.201 287.680,258.708 289.000,259.500" stroke-width="14.446" stroke="rgb(33,33,33)" fill="none" stroke-linecap="round"></path><path d="M 289.000,259.500 C 290.180,260.208 289.901,260.621 291.000,261.500" stroke-width="14.546" stroke="rgb(33,33,33)" fill="none" stroke-linecap="round"></path><path d="M 291.000,261.500 C 292.401,262.621 292.599,262.379 294.000,263.500" stroke-width="14.294" stroke="rgb(33,33,33)" fill="none" stroke-linecap="round"></path><path d="M 294.000,263.500 C 295.099,264.379 294.820,264.792 296.000,265.500" stroke-width="14.503" stroke="rgb(33,33,33)" fill="none" stroke-linecap="round"></path><path d="M 296.000,265.500 C 297.320,266.292 297.680,265.708 299.000,266.500" stroke-width="14.505" stroke="rgb(33,33,33)" fill="none" stroke-linecap="round"></path><path d="M 299.000,266.500 C 300.180,267.208 300.162,267.383 301.000,268.500" stroke-width="14.677" stroke="rgb(33,33,33)" fill="none" stroke-linecap="round"></path><path d="M 301.000,268.500 C 301.662,269.383 301.172,269.879 302.000,270.500" stroke-width="14.807" stroke="rgb(33,33,33)" fill="none" stroke-linecap="round"></path><path d="M 302.000,270.500 C 303.172,271.379 303.828,270.621 305.000,271.500" stroke-width="14.747" stroke="rgb(33,33,33)" fill="none" stroke-linecap="round"></path><path d="M 305.000,271.500 C 305.828,272.121 305.338,272.617 306.000,273.500" stroke-width="14.951" stroke="rgb(33,33,33)" fill="none" stroke-linecap="round"></path><path d="M 306.000,273.500 C 306.838,274.617 307.000,274.500 308.000,275.500" stroke-width="14.953" stroke="rgb(33,33,33)" fill="none" stroke-linecap="round"></path><path d="M 308.000,275.500 C 308.500,276.000 308.419,276.113 309.000,276.500" stroke-width="15.355" stroke="rgb(33,33,33)" fill="none" stroke-linecap="round"></path><path d="M 309.000,276.500 C 309.919,277.113 310.000,277.000 311.000,277.500" stroke-width="15.521" stroke="rgb(33,33,33)" fill="none" stroke-linecap="round"></path><path d="M 311.000,277.500 C 312.000,278.000 312.081,277.887 313.000,278.500" stroke-width="15.486" stroke="rgb(33,33,33)" fill="none" stroke-linecap="round"></path><path d="M 313.000,278.500 C 313.581,278.887 313.500,279.000 314.000,279.500" stroke-width="15.851" stroke="rgb(33,33,33)" fill="none" stroke-linecap="round"></path><path d="M 314.000,279.500 C 315.000,280.500 314.883,280.662 316.000,281.500" stroke-width="15.543" stroke="rgb(33,33,33)" fill="none" stroke-linecap="round"></path><path d="M 316.000,281.500 C 316.883,282.162 317.081,281.887 318.000,282.500" stroke-width="15.674" stroke="rgb(33,33,33)" fill="none" stroke-linecap="round"></path><path d="M 318.000,282.500 C 318.581,282.887 318.359,283.340 319.000,283.500" stroke-width="15.895" stroke="rgb(33,33,33)" fill="none" stroke-linecap="round"></path><path d="M 319.000,283.500 C 320.359,283.840 320.641,283.160 322.000,283.500" stroke-width="15.898" stroke="rgb(33,33,33)" fill="none" stroke-linecap="round"></path><path d="M 322.000,283.500 C 322.641,283.660 322.419,284.113 323.000,284.500" stroke-width="16.079" stroke="rgb(33,33,33)" fill="none" stroke-linecap="round"></path><path d="M 323.000,284.500 C 323.919,285.113 323.964,285.155 325.000,285.500" stroke-width="16.107" stroke="rgb(33,33,33)" fill="none" stroke-linecap="round"></path><path d="M 325.000,285.500 C 325.464,285.655 325.519,285.380 326.000,285.500" stroke-width="16.406" stroke="rgb(33,33,33)" fill="none" stroke-linecap="round"></path><path d="M 326.000,285.500 C 327.519,285.880 327.618,285.809 329.000,286.500" stroke-width="15.847" stroke="rgb(33,33,33)" fill="none" stroke-linecap="round"></path><path d="M 329.000,286.500 C 329.618,286.809 329.419,287.113 330.000,287.500" stroke-width="16.152" stroke="rgb(33,33,33)" fill="none" stroke-linecap="round"></path><path d="M 330.000,287.500 C 330.919,288.113 330.964,288.086 332.000,288.500" stroke-width="16.086" stroke="rgb(33,33,33)" fill="none" stroke-linecap="round"></path><path d="M 332.000,288.500 C 333.464,289.086 333.536,288.914 335.000,289.500" stroke-width="15.745" stroke="rgb(33,33,33)" fill="none" stroke-linecap="round"></path><path d="M 335.000,289.500 C 336.036,289.914 336.000,290.000 337.000,290.500" stroke-width="15.761" stroke="rgb(33,33,33)" fill="none" stroke-linecap="round"></path><path d="M 337.000,290.500 C 338.000,291.000 338.081,290.887 339.000,291.500" stroke-width="15.677" stroke="rgb(33,33,33)" fill="none" stroke-linecap="round"></path><path d="M 339.000,291.500 C 339.581,291.887 339.379,292.293 340.000,292.500" stroke-width="16.010" stroke="rgb(33,33,33)" fill="none" stroke-linecap="round"></path><path d="M 340.000,292.500 C 340.879,292.793 341.056,292.264 342.000,292.500" stroke-width="15.958" stroke="rgb(33,33,33)" fill="none" stroke-linecap="round"></path><path d="M 342.000,292.500 C 343.056,292.764 343.081,292.887 344.000,293.500" stroke-width="16.009" stroke="rgb(33,33,33)" fill="none" stroke-linecap="round"></path><path d="M 344.000,293.500 C 344.581,293.887 344.379,294.293 345.000,294.500" stroke-width="16.236" stroke="rgb(33,33,33)" fill="none" stroke-linecap="round"></path><path d="M 345.000,294.500 C 345.879,294.793 346.121,294.207 347.000,294.500" stroke-width="16.136" stroke="rgb(33,33,33)" fill="none" stroke-linecap="round"></path><path d="M 347.000,294.500 C 347.621,294.707 347.414,295.207 348.000,295.500" stroke-width="16.392" stroke="rgb(33,33,33)" fill="none" stroke-linecap="round"></path><path d="M 348.000,295.500 C 348.414,295.707 348.586,295.293 349.000,295.500" stroke-width="16.690" stroke="rgb(33,33,33)" fill="none" stroke-linecap="round"></path><path d="M 349.000,295.500 C 349.586,295.793 349.414,296.207 350.000,296.500" stroke-width="16.791" stroke="rgb(33,33,33)" fill="none" stroke-linecap="round"></path><path d="M 350.000,296.500 C 350.414,296.707 350.500,296.500 351.000,296.500" stroke-width="17.059" stroke="rgb(33,33,33)" fill="none" stroke-linecap="round"></path><path d="M 351.000,296.500 C 351.500,296.500 351.500,296.500 352.000,296.500" stroke-width="17.118" stroke="rgb(33,33,33)" fill="none" stroke-linecap="round"></path><path d="M 352.000,296.500 C 352.500,296.500 352.500,296.500 353.000,296.500" stroke-width="17.329" stroke="rgb(33,33,33)" fill="none" stroke-linecap="round"></path><path d="M 353.000,296.500 C 354.000,296.500 354.000,296.500 355.000,296.500" stroke-width="17.091" stroke="rgb(33,33,33)" fill="none" stroke-linecap="round"></path><path d="M 355.000,296.500 C 355.500,296.500 355.500,296.500 356.000,296.500" stroke-width="17.306" stroke="rgb(33,33,33)" fill="none" stroke-linecap="round"></path><path d="M 356.000,296.500 C 356.500,296.500 356.536,296.345 357.000,296.500" stroke-width="17.387" stroke="rgb(33,33,33)" fill="none" stroke-linecap="round"></path><path d="M 357.000,296.500 C 358.036,296.845 357.964,297.155 359.000,297.500" stroke-width="17.051" stroke="rgb(33,33,33)" fill="none" stroke-linecap="round"></path><path d="M 359.000,297.500 C 359.464,297.655 359.500,297.500 360.000,297.500" stroke-width="17.273" stroke="rgb(33,33,33)" fill="none" stroke-linecap="round"></path><path d="M 360.000,297.500 C 360.500,297.500 360.500,297.500 361.000,297.500" stroke-width="17.361" stroke="rgb(33,33,33)" fill="none" stroke-linecap="round"></path><path d="M 361.000,297.500 C 361.500,297.500 361.500,297.500 362.000,297.500" stroke-width="17.431" stroke="rgb(33,33,33)" fill="none" stroke-linecap="round"></path><path d="M 362.000,297.500 C 362.500,297.500 362.500,297.500 363.000,297.500" stroke-width="17.584" stroke="rgb(33,33,33)" fill="none" stroke-linecap="round"></path><path d="M 363.000,297.500 C 363.500,297.500 363.750,297.750 364.000,297.500" stroke-width="17.611" stroke="rgb(33,33,33)" fill="none" stroke-linecap="round"></path><path d="M 364.000,297.500 C 364.250,297.250 363.739,296.892 364.000,296.500" stroke-width="17.730" stroke="rgb(33,33,33)" fill="none" stroke-linecap="round"></path><path d="M 364.000,296.500 C 364.739,295.392 365.292,295.680 366.000,294.500" stroke-width="17.097" stroke="rgb(33,33,33)" fill="none" stroke-linecap="round"></path><path d="M 366.000,294.500 C 366.792,293.180 366.414,292.964 367.000,291.500" stroke-width="16.359" stroke="rgb(33,33,33)" fill="none" stroke-linecap="round"></path><path d="M 367.000,291.500 C 367.414,290.464 367.500,290.500 368.000,289.500" stroke-width="16.331" stroke="rgb(33,33,33)" fill="none" stroke-linecap="round"></path><path d="M 368.000,289.500 C 369.000,287.500 369.220,287.581 370.000,285.500" stroke-width="15.532" stroke="rgb(33,33,33)" fill="none" stroke-linecap="round"></path><path d="M 370.000,285.500 C 370.720,283.581 370.553,283.512 371.000,281.500" stroke-width="15.043" stroke="rgb(33,33,33)" fill="none" stroke-linecap="round"></path><path d="M 371.000,281.500 C 371.553,279.012 371.544,279.008 372.000,276.500" stroke-width="14.419" stroke="rgb(33,33,33)" fill="none" stroke-linecap="round"></path><path d="M 372.000,276.500 C 372.544,273.508 372.265,273.442 373.000,270.500" stroke-width="13.724" stroke="rgb(33,33,33)" fill="none" stroke-linecap="round"></path><path d="M 373.000,270.500 C 373.765,267.442 374.525,267.585 375.000,264.500" stroke-width="13.162" stroke="rgb(33,33,33)" fill="none" stroke-linecap="round"></path><path d="M 375.000,264.500 C 375.525,261.085 374.568,260.953 375.000,257.500" stroke-width="12.610" stroke="rgb(33,33,33)" fill="none" stroke-linecap="round"></path><path d="M 375.000,257.500 C 375.568,252.953 376.243,253.040 377.000,248.500" stroke-width="11.806" stroke="rgb(33,33,33)" fill="none" stroke-linecap="round"></path><path d="M 377.000,248.500 C 377.743,244.040 377.471,243.997 378.000,239.500" stroke-width="11.259" stroke="rgb(33,33,33)" fill="none" stroke-linecap="round"></path><path d="M 378.000,239.500 C 378.471,235.497 378.578,235.508 379.000,231.500" stroke-width="11.003" stroke="rgb(33,33,33)" fill="none" stroke-linecap="round"></path><path d="M 379.000,231.500 C 379.578,226.008 379.476,225.998 380.000,220.500" stroke-width="10.393" stroke="rgb(33,33,33)" fill="none" stroke-linecap="round"></path><path d="M 380.000,220.500 C 380.476,215.498 380.500,215.500 381.000,210.500" stroke-width="10.075" stroke="rgb(33,33,33)" fill="none" stroke-linecap="round"></path><path d="M 381.000,210.500 C 381.500,205.500 381.500,205.500 382.000,200.500" stroke-width="9.834" stroke="rgb(33,33,33)" fill="none" stroke-linecap="round"></path><path d="M 382.000,200.500 C 382.500,195.500 382.749,195.512 383.000,190.500" stroke-width="9.649" stroke="rgb(33,33,33)" fill="none" stroke-linecap="round"></path><path d="M 383.000,190.500 C 383.249,185.512 382.773,185.491 383.000,180.500" stroke-width="9.512" stroke="rgb(33,33,33)" fill="none" stroke-linecap="round"></path><path d="M 383.000,180.500 C 383.273,174.491 383.714,174.509 384.000,168.500" stroke-width="9.329" stroke="rgb(33,33,33)" fill="none" stroke-linecap="round"></path><path d="M 384.000,168.500 C 384.214,164.009 383.736,163.984 384.000,159.500" stroke-width="9.231" stroke="rgb(33,33,33)" fill="none" stroke-linecap="round"></path><path d="M 384.000,159.500 C 384.236,155.484 384.764,155.516 385.000,151.500" stroke-width="9.489" stroke="rgb(33,33,33)" fill="none" stroke-linecap="round"></path><path d="M 385.000,151.500 C 385.264,147.016 384.736,146.984 385.000,142.500" stroke-width="9.356" stroke="rgb(33,33,33)" fill="none" stroke-linecap="round"></path><path d="M 385.000,142.500 C 385.236,138.484 385.666,138.510 386.000,134.500" stroke-width="9.493" stroke="rgb(33,33,33)" fill="none" stroke-linecap="round"></path><path d="M 386.000,134.500 C 386.166,132.510 386.000,132.500 386.000,130.500" stroke-width="10.092" stroke="rgb(33,33,33)" fill="none" stroke-linecap="round"></path><path d="M 386.000,130.500 C 386.000,125.500 386.000,125.500 386.000,120.500" stroke-width="9.853" stroke="rgb(33,33,33)" fill="none" stroke-linecap="round"></path><path d="M 386.000,120.500 C 386.000,119.500 385.859,119.486 386.000,118.500" stroke-width="10.691" stroke="rgb(33,33,33)" fill="none" stroke-linecap="round"></path><path d="M 386.000,118.500 C 386.359,115.986 386.748,116.025 387.000,113.500" stroke-width="10.989" stroke="rgb(33,33,33)" fill="none" stroke-linecap="round"></path><path d="M 387.000,113.500 C 387.248,111.025 386.726,110.966 387.000,108.500" stroke-width="11.144" stroke="rgb(33,33,33)" fill="none" stroke-linecap="round"></path><path d="M 387.000,108.500 C 387.226,106.466 387.796,106.536 388.000,104.500" stroke-width="11.603" stroke="rgb(33,33,33)" fill="none" stroke-linecap="round"></path><path d="M 388.000,104.500 C 388.296,101.536 388.000,101.500 388.000,98.500" stroke-width="11.596" stroke="rgb(33,33,33)" fill="none" stroke-linecap="round"></path><path d="M 388.000,98.500 C 388.000,97.000 387.789,96.974 388.000,95.500" stroke-width="12.111" stroke="rgb(33,33,33)" fill="none" stroke-linecap="round"></path><path d="M 388.000,95.500 C 388.289,93.474 388.500,93.500 389.000,91.500" stroke-width="12.342" stroke="rgb(33,33,33)" fill="none" stroke-linecap="round"></path><path d="M 389.000,91.500 C 389.500,89.500 389.255,89.362 390.000,87.500" stroke-width="12.534" stroke="rgb(33,33,33)" fill="none" stroke-linecap="round"></path><path d="M 390.000,87.500 C 390.255,86.862 390.691,87.118 391.000,86.500" stroke-width="13.254" stroke="rgb(33,33,33)" fill="none" stroke-linecap="round"></path><path d="M 391.000,86.500 C 391.691,85.118 391.414,84.964 392.000,83.500" stroke-width="13.488" stroke="rgb(33,33,33)" fill="none" stroke-linecap="round"></path><path d="M 392.000,83.500 C 392.414,82.464 392.500,82.500 393.000,81.500" stroke-width="13.823" stroke="rgb(33,33,33)" fill="none" stroke-linecap="round"></path><path d="M 393.000,81.500 C 394.000,79.500 394.000,79.500 395.000,77.500" stroke-width="13.763" stroke="rgb(33,33,33)" fill="none" stroke-linecap="round"></path><path d="M 395.000,77.500 C 395.500,76.500 395.500,76.500 396.000,75.500" stroke-width="14.131" stroke="rgb(33,33,33)" fill="none" stroke-linecap="round"></path><path d="M 396.000,75.500 C 396.500,74.500 396.338,74.383 397.000,73.500" stroke-width="14.441" stroke="rgb(33,33,33)" fill="none" stroke-linecap="round"></path><path d="M 397.000,73.500 C 397.838,72.383 398.292,72.680 399.000,71.500" stroke-width="14.624" stroke="rgb(33,33,33)" fill="none" stroke-linecap="round"></path><path d="M 399.000,71.500 C 399.792,70.180 399.414,69.964 400.000,68.500" stroke-width="14.695" stroke="rgb(33,33,33)" fill="none" stroke-linecap="round"></path><path d="M 400.000,68.500 C 400.414,67.464 400.387,67.419 401.000,66.500" stroke-width="14.908" stroke="rgb(33,33,33)" fill="none" stroke-linecap="round"></path><path d="M 401.000,66.500 C 401.387,65.919 401.613,66.081 402.000,65.500" stroke-width="15.400" stroke="rgb(33,33,33)" fill="none" stroke-linecap="round"></path><path d="M 402.000,65.500 C 402.613,64.581 402.500,64.500 403.000,63.500" stroke-width="15.266" stroke="rgb(33,33,33)" fill="none" stroke-linecap="round"></path><path d="M 403.000,63.500 C 403.500,62.500 403.387,62.419 404.000,61.500" stroke-width="15.375" stroke="rgb(33,33,33)" fill="none" stroke-linecap="round"></path><path d="M 404.000,61.500 C 404.387,60.919 404.613,61.081 405.000,60.500" stroke-width="15.758" stroke="rgb(33,33,33)" fill="none" stroke-linecap="round"></path><path d="M 405.000,60.500 C 405.613,59.581 405.500,59.500 406.000,58.500" stroke-width="15.674" stroke="rgb(33,33,33)" fill="none" stroke-linecap="round"></path><path d="M 406.000,58.500 C 406.500,57.500 406.250,57.250 407.000,56.500" stroke-width="15.780" stroke="rgb(33,33,33)" fill="none" stroke-linecap="round"></path><path d="M 407.000,56.500 C 407.750,55.750 408.250,56.250 409.000,55.500" stroke-width="15.692" stroke="rgb(33,33,33)" fill="none" stroke-linecap="round"></path><path d="M 409.000,55.500 C 409.750,54.750 409.250,54.250 410.000,53.500" stroke-width="15.795" stroke="rgb(33,33,33)" fill="none" stroke-linecap="round"></path><path d="M 410.000,53.500 C 410.750,52.750 411.081,53.113 412.000,52.500" stroke-width="15.703" stroke="rgb(33,33,33)" fill="none" stroke-linecap="round"></path><path d="M 412.000,52.500 C 412.581,52.113 412.500,52.000 413.000,51.500" stroke-width="15.919" stroke="rgb(33,33,33)" fill="none" stroke-linecap="round"></path><path d="M 413.000,51.500 C 413.500,51.000 413.500,51.000 414.000,50.500" stroke-width="16.212" stroke="rgb(33,33,33)" fill="none" stroke-linecap="round"></path><path d="M 414.000,50.500 C 414.500,50.000 414.500,50.000 415.000,49.500" stroke-width="16.402" stroke="rgb(33,33,33)" fill="none" stroke-linecap="round"></path><path d="M 415.000,49.500 C 415.500,49.000 415.382,48.809 416.000,48.500" stroke-width="16.557" stroke="rgb(33,33,33)" fill="none" stroke-linecap="round"></path><path d="M 416.000,48.500 C 417.382,47.809 417.618,48.191 419.000,47.500" stroke-width="16.103" stroke="rgb(33,33,33)" fill="none" stroke-linecap="round"></path><path d="M 419.000,47.500 C 419.618,47.191 419.379,46.707 420.000,46.500" stroke-width="16.247" stroke="rgb(33,33,33)" fill="none" stroke-linecap="round"></path><path d="M 420.000,46.500 C 420.879,46.207 421.000,46.500 422.000,46.500" stroke-width="16.237" stroke="rgb(33,33,33)" fill="none" stroke-linecap="round"></path><path d="M 422.000,46.500 C 423.000,46.500 423.000,46.500 424.000,46.500" stroke-width="16.230" stroke="rgb(33,33,33)" fill="none" stroke-linecap="round"></path><path d="M 424.000,46.500 C 425.500,46.500 425.500,46.500 427.000,46.500" stroke-width="16.010" stroke="rgb(33,33,33)" fill="none" stroke-linecap="round"></path><path d="M 427.000,46.500 C 428.000,46.500 428.000,46.500 429.000,46.500" stroke-width="16.048" stroke="rgb(33,33,33)" fill="none" stroke-linecap="round"></path><path d="M 429.000,46.500 C 429.500,46.500 429.500,46.500 430.000,46.500" stroke-width="16.356" stroke="rgb(33,33,33)" fill="none" stroke-linecap="round"></path><path d="M 430.000,46.500 C 431.500,46.500 431.713,45.985 433.000,46.500" stroke-width="16.108" stroke="rgb(33,33,33)" fill="none" stroke-linecap="round"></path><path d="M 433.000,46.500 C 434.213,46.985 434.000,47.500 435.000,48.500" stroke-width="16.043" stroke="rgb(33,33,33)" fill="none" stroke-linecap="round"></path><path d="M 435.000,48.500 C 435.500,49.000 435.577,48.937 436.000,49.500" stroke-width="15.991" stroke="rgb(33,33,33)" fill="none" stroke-linecap="round"></path><path d="M 436.000,49.500 C 437.077,50.937 436.879,51.099 438.000,52.500" stroke-width="15.659" stroke="rgb(33,33,33)" fill="none" stroke-linecap="round"></path><path d="M 438.000,52.500 C 438.879,53.599 439.121,53.401 440.000,54.500" stroke-width="15.514" stroke="rgb(33,33,33)" fill="none" stroke-linecap="round"></path><path d="M 440.000,54.500 C 441.121,55.901 441.000,56.000 442.000,57.500" stroke-width="15.176" stroke="rgb(33,33,33)" fill="none" stroke-linecap="round"></path><path d="M 442.000,57.500 C 443.000,59.000 443.300,58.867 444.000,60.500" stroke-width="15.026" stroke="rgb(33,33,33)" fill="none" stroke-linecap="round"></path><path d="M 444.000,60.500 C 444.800,62.367 444.280,62.581 445.000,64.500" stroke-width="14.507" stroke="rgb(33,33,33)" fill="none" stroke-linecap="round"></path><path d="M 445.000,64.500 C 445.780,66.581 446.299,66.397 447.000,68.500" stroke-width="14.300" stroke="rgb(33,33,33)" fill="none" stroke-linecap="round"></path><path d="M 447.000,68.500 C 447.799,70.897 447.500,71.000 448.000,73.500" stroke-width="13.696" stroke="rgb(33,33,33)" fill="none" stroke-linecap="round"></path><path d="M 448.000,73.500 C 448.500,76.000 448.500,76.000 449.000,78.500" stroke-width="13.535" stroke="rgb(33,33,33)" fill="none" stroke-linecap="round"></path><path d="M 449.000,78.500 C 449.500,81.000 449.544,80.992 450.000,83.500" stroke-width="13.127" stroke="rgb(33,33,33)" fill="none" stroke-linecap="round"></path><path d="M 450.000,83.500 C 450.544,86.492 450.500,86.500 451.000,89.500" stroke-width="12.594" stroke="rgb(33,33,33)" fill="none" stroke-linecap="round"></path><path d="M 451.000,89.500 C 451.500,92.500 451.748,92.479 452.000,95.500" stroke-width="12.489" stroke="rgb(33,33,33)" fill="none" stroke-linecap="round"></path><path d="M 452.000,95.500 C 452.248,98.479 452.000,98.500 452.000,101.500" stroke-width="12.136" stroke="rgb(33,33,33)" fill="none" stroke-linecap="round"></path><path d="M 452.000,101.500 C 452.000,104.500 452.000,104.500 452.000,107.500" stroke-width="12.139" stroke="rgb(33,33,33)" fill="none" stroke-linecap="round"></path><path d="M 452.000,107.500 C 452.000,110.000 452.000,110.000 452.000,112.500" stroke-width="12.072" stroke="rgb(33,33,33)" fill="none" stroke-linecap="round"></path><path d="M 452.000,112.500 C 452.000,116.000 452.000,116.000 452.000,119.500" stroke-width="11.794" stroke="rgb(33,33,33)" fill="none" stroke-linecap="round"></path><path d="M 452.000,119.500 C 452.000,122.000 452.345,122.082 452.000,124.500" stroke-width="12.020" stroke="rgb(33,33,33)" fill="none" stroke-linecap="round"></path><path d="M 452.000,124.500 C 451.845,125.582 451.392,125.455 451.000,126.500" stroke-width="12.628" stroke="rgb(33,33,33)" fill="none" stroke-linecap="round"></path><path d="M 451.000,126.500 C 449.892,129.455 449.830,129.455 449.000,132.500" stroke-width="12.172" stroke="rgb(33,33,33)" fill="none" stroke-linecap="round"></path><path d="M 449.000,132.500 C 448.330,134.955 448.553,135.012 448.000,137.500" stroke-width="12.316" stroke="rgb(33,33,33)" fill="none" stroke-linecap="round"></path><path d="M 448.000,137.500 C 447.553,139.512 447.745,139.638 447.000,141.500" stroke-width="12.512" stroke="rgb(33,33,33)" fill="none" stroke-linecap="round"></path><path d="M 447.000,141.500 C 446.745,142.138 446.274,141.860 446.000,142.500" stroke-width="13.234" stroke="rgb(33,33,33)" fill="none" stroke-linecap="round"></path><path d="M 446.000,142.500 C 444.774,145.360 444.908,145.473 444.000,148.500" stroke-width="12.942" stroke="rgb(33,33,33)" fill="none" stroke-linecap="round"></path><path d="M 444.000,148.500 C 443.408,150.473 443.648,150.555 443.000,152.500" stroke-width="12.902" stroke="rgb(33,33,33)" fill="none" stroke-linecap="round"></path><path d="M 443.000,152.500 C 442.648,153.555 442.440,153.473 442.000,154.500" stroke-width="13.397" stroke="rgb(33,33,33)" fill="none" stroke-linecap="round"></path><path d="M 442.000,154.500 C 440.940,156.973 441.188,157.124 440.000,159.500" stroke-width="12.955" stroke="rgb(33,33,33)" fill="none" stroke-linecap="round"></path><path d="M 440.000,159.500 C 439.688,160.124 439.500,160.000 439.000,160.500" stroke-width="13.665" stroke="rgb(33,33,33)" fill="none" stroke-linecap="round"></path><path d="M 439.000,160.500 C 438.000,161.500 437.708,161.320 437.000,162.500" stroke-width="13.981" stroke="rgb(33,33,33)" fill="none" stroke-linecap="round"></path><path d="M 437.000,162.500 C 436.208,163.820 436.701,164.098 436.000,165.500" stroke-width="14.085" stroke="rgb(33,33,33)" fill="none" stroke-linecap="round"></path><path d="M 436.000,165.500 C 435.201,167.098 435.121,167.099 434.000,168.500" stroke-width="14.059" stroke="rgb(33,33,33)" fill="none" stroke-linecap="round"></path><path d="M 434.000,168.500 C 433.121,169.599 433.000,169.500 432.000,170.500" stroke-width="14.130" stroke="rgb(33,33,33)" fill="none" stroke-linecap="round"></path><path d="M 432.000,170.500 C 431.000,171.500 431.000,171.500 430.000,172.500" stroke-width="14.369" stroke="rgb(33,33,33)" fill="none" stroke-linecap="round"></path><path d="M 430.000,172.500 C 429.000,173.500 428.879,173.401 428.000,174.500" stroke-width="14.379" stroke="rgb(33,33,33)" fill="none" stroke-linecap="round"></path><path d="M 428.000,174.500 C 426.879,175.901 427.250,176.250 426.000,177.500" stroke-width="14.293" stroke="rgb(33,33,33)" fill="none" stroke-linecap="round"></path><path d="M 426.000,177.500 C 424.750,178.750 424.378,178.351 423.000,179.500" stroke-width="14.225" stroke="rgb(33,33,33)" fill="none" stroke-linecap="round"></path><path d="M 423.000,179.500 C 421.378,180.851 421.622,181.149 420.000,182.500" stroke-width="13.869" stroke="rgb(33,33,33)" fill="none" stroke-linecap="round"></path><path d="M 420.000,182.500 C 418.622,183.649 418.378,183.351 417.000,184.500" stroke-width="13.887" stroke="rgb(33,33,33)" fill="none" stroke-linecap="round"></path><path d="M 417.000,184.500 C 415.378,185.851 415.622,186.149 414.000,187.500" stroke-width="13.862" stroke="rgb(33,33,33)" fill="none" stroke-linecap="round"></path><path d="M 414.000,187.500 C 412.622,188.649 412.543,188.574 411.000,189.500" stroke-width="13.881" stroke="rgb(33,33,33)" fill="none" stroke-linecap="round"></path><path d="M 411.000,189.500 C 410.043,190.074 409.766,189.734 409.000,190.500" stroke-width="14.231" stroke="rgb(33,33,33)" fill="none" stroke-linecap="round"></path><path d="M 409.000,190.500 C 407.766,191.734 408.234,192.266 407.000,193.500" stroke-width="14.176" stroke="rgb(33,33,33)" fill="none" stroke-linecap="round"></path><path d="M 407.000,193.500 C 406.234,194.266 406.000,194.000 405.000,194.500" stroke-width="14.478" stroke="rgb(33,33,33)" fill="none" stroke-linecap="round"></path><path d="M 405.000,194.500 C 404.000,195.000 403.919,194.887 403.000,195.500" stroke-width="14.729" stroke="rgb(33,33,33)" fill="none" stroke-linecap="round"></path><path d="M 403.000,195.500 C 402.419,195.887 402.500,196.000 402.000,196.500" stroke-width="15.166" stroke="rgb(33,33,33)" fill="none" stroke-linecap="round"></path><path d="M 402.000,196.500 C 401.500,197.000 401.586,197.207 401.000,197.500" stroke-width="15.535" stroke="rgb(33,33,33)" fill="none" stroke-linecap="round"></path><path d="M 401.000,197.500 C 400.586,197.707 400.414,197.293 400.000,197.500" stroke-width="16.007" stroke="rgb(33,33,33)" fill="none" stroke-linecap="round"></path><path d="M 400.000,197.500 C 399.414,197.793 399.500,198.000 399.000,198.500" stroke-width="16.168" stroke="rgb(33,33,33)" fill="none" stroke-linecap="round"></path><path d="M 399.000,198.500 C 399.000,198.500 399.000,198.500 399.000,198.500" stroke-width="16.847" stroke="rgb(33,33,33)" fill="none" stroke-linecap="round"></path><path d="M 399.000,198.500 C 398.500,199.000 398.586,199.207 398.000,199.500" stroke-width="16.918" stroke="rgb(33,33,33)" fill="none" stroke-linecap="round"></path><path d="M 398.000,199.500 C 397.586,199.707 397.250,199.250 397.000,199.500" stroke-width="17.164" stroke="rgb(33,33,33)" fill="none" stroke-linecap="round"></path><path d="M 397.000,199.500 C 396.750,199.750 397.000,200.000 397.000,200.500" stroke-width="17.273" stroke="rgb(33,33,33)" fill="none" stroke-linecap="round"></path><path d="M 397.000,200.500 C 396.500,201.000 396.500,201.000 396.000,201.500" stroke-width="18.022" stroke="rgb(33,33,33)" fill="none" stroke-linecap="round"></path><path d="M 396.000,201.500 C 396.000,201.500 396.000,201.500 396.000,201.500" stroke-width="18.428" stroke="rgb(33,33,33)" fill="none" stroke-linecap="round"></path><path d="M 396.000,201.500 C 395.500,201.500 394.750,201.500 395.000,201.500" stroke-width="18.551" stroke="rgb(33,33,33)" fill="none" stroke-linecap="round"></path><path d="M 395.000,201.500 C 395.750,201.500 396.641,201.840 398.000,201.500" stroke-width="18.724" stroke="rgb(33,33,33)" fill="none" stroke-linecap="round"></path><path d="M 398.000,201.500 C 398.641,201.340 398.437,200.923 399.000,200.500" stroke-width="18.205" stroke="rgb(33,33,33)" fill="none" stroke-linecap="round"></path><path d="M 399.000,200.500 C 400.437,199.423 400.362,199.046 402.000,198.500" stroke-width="17.308" stroke="rgb(33,33,33)" fill="none" stroke-linecap="round"></path><path d="M 402.000,198.500 C 403.362,198.046 403.540,198.743 405.000,198.500" stroke-width="16.722" stroke="rgb(33,33,33)" fill="none" stroke-linecap="round"></path><path d="M 405.000,198.500 C 406.540,198.243 406.469,197.806 408.000,197.500" stroke-width="16.228" stroke="rgb(33,33,33)" fill="none" stroke-linecap="round"></path><path d="M 408.000,197.500 C 408.969,197.306 409.000,197.500 410.000,197.500" stroke-width="16.222" stroke="rgb(33,33,33)" fill="none" stroke-linecap="round"></path><path d="M 410.000,197.500 C 412.000,197.500 412.000,197.500 414.000,197.500" stroke-width="15.593" stroke="rgb(33,33,33)" fill="none" stroke-linecap="round"></path><path d="M 414.000,197.500 C 416.500,197.500 416.500,197.500 419.000,197.500" stroke-width="14.847" stroke="rgb(33,33,33)" fill="none" stroke-linecap="round"></path><path d="M 419.000,197.500 C 420.000,197.500 420.000,197.500 421.000,197.500" stroke-width="15.099" stroke="rgb(33,33,33)" fill="none" stroke-linecap="round"></path><path d="M 421.000,197.500 C 423.000,197.500 423.000,197.500 425.000,197.500" stroke-width="14.870" stroke="rgb(33,33,33)" fill="none" stroke-linecap="round"></path><path d="M 425.000,197.500 C 426.000,197.500 426.292,197.028 427.000,197.500" stroke-width="14.933" stroke="rgb(33,33,33)" fill="none" stroke-linecap="round"></path><path d="M 427.000,197.500 C 427.792,198.028 427.338,198.617 428.000,199.500" stroke-width="15.173" stroke="rgb(33,33,33)" fill="none" stroke-linecap="round"></path><path d="M 428.000,199.500 C 428.838,200.617 429.162,200.383 430.000,201.500" stroke-width="15.017" stroke="rgb(33,33,33)" fill="none" stroke-linecap="round"></path><path d="M 430.000,201.500 C 430.662,202.383 430.426,202.543 431.000,203.500" stroke-width="15.243" stroke="rgb(33,33,33)" fill="none" stroke-linecap="round"></path><path d="M 431.000,203.500 C 431.926,205.043 432.074,204.957 433.000,206.500" stroke-width="15.079" stroke="rgb(33,33,33)" fill="none" stroke-linecap="round"></path><path d="M 433.000,206.500 C 433.574,207.457 433.786,207.432 434.000,208.500" stroke-width="15.132" stroke="rgb(33,33,33)" fill="none" stroke-linecap="round"></path><path d="M 434.000,208.500 C 434.286,209.932 433.642,210.069 434.000,211.500" stroke-width="15.143" stroke="rgb(33,33,33)" fill="none" stroke-linecap="round"></path><path d="M 434.000,211.500 C 434.642,214.069 435.426,213.918 436.000,216.500" stroke-width="14.224" stroke="rgb(33,33,33)" fill="none" stroke-linecap="round"></path><path d="M 436.000,216.500 C 436.426,218.418 435.679,218.576 436.000,220.500" stroke-width="14.183" stroke="rgb(33,33,33)" fill="none" stroke-linecap="round"></path><path d="M 436.000,220.500 C 436.179,221.576 436.731,221.425 437.000,222.500" stroke-width="14.401" stroke="rgb(33,33,33)" fill="none" stroke-linecap="round"></path><path d="M 437.000,222.500 C 437.731,225.425 437.624,225.490 438.000,228.500" stroke-width="13.710" stroke="rgb(33,33,33)" fill="none" stroke-linecap="round"></path><path d="M 438.000,228.500 C 438.124,229.490 437.837,229.520 438.000,230.500" stroke-width="14.145" stroke="rgb(33,33,33)" fill="none" stroke-linecap="round"></path><path d="M 438.000,230.500 C 438.337,232.520 438.746,232.470 439.000,234.500" stroke-width="13.841" stroke="rgb(33,33,33)" fill="none" stroke-linecap="round"></path><path d="M 439.000,234.500 C 439.246,236.470 438.721,236.545 439.000,238.500" stroke-width="13.876" stroke="rgb(33,33,33)" fill="none" stroke-linecap="round"></path><path d="M 439.000,238.500 C 439.221,240.045 439.743,239.960 440.000,241.500" stroke-width="13.999" stroke="rgb(33,33,33)" fill="none" stroke-linecap="round"></path><path d="M 440.000,241.500 C 440.243,242.960 440.000,243.000 440.000,244.500" stroke-width="14.034" stroke="rgb(33,33,33)" fill="none" stroke-linecap="round"></path><path d="M 440.000,244.500 C 440.000,246.000 439.815,246.018 440.000,247.500" stroke-width="14.250" stroke="rgb(33,33,33)" fill="none" stroke-linecap="round"></path><path d="M 440.000,247.500 C 440.315,250.018 440.641,249.986 441.000,252.500" stroke-width="13.829" stroke="rgb(33,33,33)" fill="none" stroke-linecap="round"></path><path d="M 441.000,252.500 C 441.141,253.486 440.729,253.552 441.000,254.500" stroke-width="14.175" stroke="rgb(33,33,33)" fill="none" stroke-linecap="round"></path><path d="M 441.000,254.500 C 441.729,257.052 441.802,257.104 443.000,259.500" stroke-width="13.846" stroke="rgb(33,33,33)" fill="none" stroke-linecap="round"></path><path d="M 443.000,259.500 C 443.802,261.104 443.923,261.063 445.000,262.500" stroke-width="13.747" stroke="rgb(33,33,33)" fill="none" stroke-linecap="round"></path><path d="M 445.000,262.500 C 445.423,263.063 445.559,262.949 446.000,263.500" stroke-width="14.363" stroke="rgb(33,33,33)" fill="none" stroke-linecap="round"></path><path d="M 446.000,263.500 C 447.559,265.449 447.377,265.607 449.000,267.500" stroke-width="13.938" stroke="rgb(33,33,33)" fill="none" stroke-linecap="round"></path><path d="M 449.000,267.500 C 450.377,269.107 450.690,268.863 452.000,270.500" stroke-width="13.791" stroke="rgb(33,33,33)" fill="none" stroke-linecap="round"></path><path d="M 452.000,270.500 C 452.690,271.363 452.353,271.594 453.000,272.500" stroke-width="14.155" stroke="rgb(33,33,33)" fill="none" stroke-linecap="round"></path><path d="M 453.000,272.500 C 454.853,275.094 455.035,274.973 457.000,277.500" stroke-width="13.459" stroke="rgb(33,33,33)" fill="none" stroke-linecap="round"></path><path d="M 457.000,277.500 C 458.535,279.473 458.273,279.773 460.000,281.500" stroke-width="13.247" stroke="rgb(33,33,33)" fill="none" stroke-linecap="round"></path><path d="M 460.000,281.500 C 460.773,282.273 461.307,281.668 462.000,282.500" stroke-width="13.693" stroke="rgb(33,33,33)" fill="none" stroke-linecap="round"></path><path d="M 462.000,282.500 C 463.807,284.668 463.193,285.332 465.000,287.500" stroke-width="13.245" stroke="rgb(33,33,33)" fill="none" stroke-linecap="round"></path><path d="M 465.000,287.500 C 465.693,288.332 466.117,287.838 467.000,288.500" stroke-width="13.750" stroke="rgb(33,33,33)" fill="none" stroke-linecap="round"></path><path d="M 467.000,288.500 C 468.117,289.338 468.000,289.500 469.000,290.500" stroke-width="13.879" stroke="rgb(33,33,33)" fill="none" stroke-linecap="round"></path><path d="M 469.000,290.500 C 470.000,291.500 470.000,291.500 471.000,292.500" stroke-width="14.160" stroke="rgb(33,33,33)" fill="none" stroke-linecap="round"></path><path d="M 471.000,292.500 C 471.500,293.000 471.500,293.000 472.000,293.500" stroke-width="14.627" stroke="rgb(33,33,33)" fill="none" stroke-linecap="round"></path><path d="M 472.000,293.500 C 472.500,294.000 472.382,294.191 473.000,294.500" stroke-width="15.023" stroke="rgb(33,33,33)" fill="none" stroke-linecap="round"></path><path d="M 473.000,294.500 C 474.382,295.191 474.481,295.120 476.000,295.500" stroke-width="15.015" stroke="rgb(33,33,33)" fill="none" stroke-linecap="round"></path><path d="M 476.000,295.500 C 476.481,295.620 476.500,295.500 477.000,295.500" stroke-width="15.530" stroke="rgb(33,33,33)" fill="none" stroke-linecap="round"></path><path d="M 477.000,295.500 C 478.000,295.500 478.000,295.500 479.000,295.500" stroke-width="15.660" stroke="rgb(33,33,33)" fill="none" stroke-linecap="round"></path><path d="M 479.000,295.500 C 481.000,295.500 481.000,295.500 483.000,295.500" stroke-width="15.174" stroke="rgb(33,33,33)" fill="none" stroke-linecap="round"></path><path d="M 483.000,295.500 C 484.500,295.500 484.500,295.500 486.000,295.500" stroke-width="15.083" stroke="rgb(33,33,33)" fill="none" stroke-linecap="round"></path><path d="M 486.000,295.500 C 487.500,295.500 487.500,295.500 489.000,295.500" stroke-width="15.010" stroke="rgb(33,33,33)" fill="none" stroke-linecap="round"></path><path d="M 489.000,295.500 C 491.000,295.500 491.111,295.972 493.000,295.500" stroke-width="14.682" stroke="rgb(33,33,33)" fill="none" stroke-linecap="round"></path><path d="M 493.000,295.500 C 495.111,294.972 494.958,294.407 497.000,293.500" stroke-width="14.538" stroke="rgb(33,33,33)" fill="none" stroke-linecap="round"></path><path d="M 497.000,293.500 C 499.458,292.407 499.596,292.702 502.000,291.500" stroke-width="13.976" stroke="rgb(33,33,33)" fill="none" stroke-linecap="round"></path><path d="M 502.000,291.500 C 506.596,289.202 506.513,289.024 511.000,286.500" stroke-width="12.527" stroke="rgb(33,33,33)" fill="none" stroke-linecap="round"></path><path d="M 511.000,286.500 C 514.513,284.524 514.409,284.296 518.000,282.500" stroke-width="11.948" stroke="rgb(33,33,33)" fill="none" stroke-linecap="round"></path><path d="M 518.000,282.500 C 519.409,281.796 519.713,282.391 521.000,281.500" stroke-width="12.386" stroke="rgb(33,33,33)" fill="none" stroke-linecap="round"></path><path d="M 521.000,281.500 C 526.213,277.891 526.325,277.815 531.000,273.500" stroke-width="11.077" stroke="rgb(33,33,33)" fill="none" stroke-linecap="round"></path><path d="M 531.000,273.500 C 532.825,271.815 532.244,271.256 534.000,269.500" stroke-width="11.217" stroke="rgb(33,33,33)" fill="none" stroke-linecap="round"></path><path d="M 534.000,269.500 C 536.744,266.756 537.000,267.000 540.000,264.500" stroke-width="11.140" stroke="rgb(33,33,33)" fill="none" stroke-linecap="round"></path><path d="M 540.000,264.500 C 543.000,262.000 543.424,262.363 546.000,259.500" stroke-width="10.786" stroke="rgb(33,33,33)" fill="none" stroke-linecap="round"></path><path d="M 546.000,259.500 C 547.924,257.363 547.332,256.883 549.000,254.500" stroke-width="11.057" stroke="rgb(33,33,33)" fill="none" stroke-linecap="round"></path><path d="M 549.000,254.500 C 550.832,251.883 551.326,252.178 553.000,249.500" stroke-width="11.094" stroke="rgb(33,33,33)" fill="none" stroke-linecap="round"></path><path d="M 553.000,249.500 C 553.826,248.178 553.296,247.909 554.000,246.500" stroke-width="11.643" stroke="rgb(33,33,33)" fill="none" stroke-linecap="round"></path><path d="M 554.000,246.500 C 555.796,242.909 556.346,243.139 558.000,239.500" stroke-width="11.437" stroke="rgb(33,33,33)" fill="none" stroke-linecap="round"></path><path d="M 558.000,239.500 C 558.846,237.639 558.663,237.520 559.000,235.500" stroke-width="11.676" stroke="rgb(33,33,33)" fill="none" stroke-linecap="round"></path><path d="M 559.000,235.500 C 559.163,234.520 559.000,234.500 559.000,233.500" stroke-width="12.367" stroke="rgb(33,33,33)" fill="none" stroke-linecap="round"></path><path d="M 559.000,233.500 C 559.000,232.000 559.000,232.000 559.000,230.500" stroke-width="12.899" stroke="rgb(33,33,33)" fill="none" stroke-linecap="round"></path><path d="M 559.000,230.500 C 559.000,229.000 559.000,229.000 559.000,227.500" stroke-width="13.015" stroke="rgb(33,33,33)" fill="none" stroke-linecap="round"></path><path d="M 559.000,227.500 C 559.000,224.500 559.000,224.500 559.000,221.500" stroke-width="12.941" stroke="rgb(33,33,33)" fill="none" stroke-linecap="round"></path><path d="M 559.000,221.500 C 559.000,219.500 559.000,219.500 559.000,217.500" stroke-width="12.775" stroke="rgb(33,33,33)" fill="none" stroke-linecap="round"></path><path d="M 559.000,217.500 C 559.000,216.500 559.194,216.469 559.000,215.500" stroke-width="13.427" stroke="rgb(33,33,33)" fill="none" stroke-linecap="round"></path><path d="M 559.000,215.500 C 558.694,213.969 558.792,213.820 558.000,212.500" stroke-width="13.210" stroke="rgb(33,33,33)" fill="none" stroke-linecap="round"></path><path d="M 558.000,212.500 C 557.292,211.320 556.838,211.617 556.000,210.500" stroke-width="13.655" stroke="rgb(33,33,33)" fill="none" stroke-linecap="round"></path><path d="M 556.000,210.500 C 555.338,209.617 555.750,209.250 555.000,208.500" stroke-width="13.861" stroke="rgb(33,33,33)" fill="none" stroke-linecap="round"></path><path d="M 555.000,208.500 C 554.250,207.750 553.750,208.250 553.000,207.500" stroke-width="14.277" stroke="rgb(33,33,33)" fill="none" stroke-linecap="round"></path><path d="M 553.000,207.500 C 552.250,206.750 552.792,206.028 552.000,205.500" stroke-width="14.562" stroke="rgb(33,33,33)" fill="none" stroke-linecap="round"></path><path d="M 552.000,205.500 C 551.292,205.028 550.879,205.793 550.000,205.500" stroke-width="14.923" stroke="rgb(33,33,33)" fill="none" stroke-linecap="round"></path><path d="M 550.000,205.500 C 549.379,205.293 549.500,205.000 549.000,204.500" stroke-width="15.272" stroke="rgb(33,33,33)" fill="none" stroke-linecap="round"></path><path d="M 549.000,204.500 C 548.500,204.000 548.621,203.707 548.000,203.500" stroke-width="15.671" stroke="rgb(33,33,33)" fill="none" stroke-linecap="round"></path><path d="M 548.000,203.500 C 547.121,203.207 547.000,203.500 546.000,203.500" stroke-width="15.687" stroke="rgb(33,33,33)" fill="none" stroke-linecap="round"></path><path d="M 546.000,203.500 C 545.500,203.500 545.500,203.500 545.000,203.500" stroke-width="16.101" stroke="rgb(33,33,33)" fill="none" stroke-linecap="round"></path><path d="M 545.000,203.500 C 544.500,203.500 544.500,203.500 544.000,203.500" stroke-width="16.448" stroke="rgb(33,33,33)" fill="none" stroke-linecap="round"></path><path d="M 544.000,203.500 C 543.500,203.500 543.500,203.500 543.000,203.500" stroke-width="16.736" stroke="rgb(33,33,33)" fill="none" stroke-linecap="round"></path><path d="M 543.000,203.500 C 542.500,203.500 542.250,203.250 542.000,203.500" stroke-width="16.975" stroke="rgb(33,33,33)" fill="none" stroke-linecap="round"></path><path d="M 542.000,203.500 C 541.750,203.750 542.120,204.019 542.000,204.500" stroke-width="17.170" stroke="rgb(33,33,33)" fill="none" stroke-linecap="round"></path><path d="M 542.000,204.500 C 541.620,206.019 541.500,206.000 541.000,207.500" stroke-width="16.564" stroke="rgb(33,33,33)" fill="none" stroke-linecap="round"></path><path d="M 541.000,207.500 C 541.000,207.500 541.000,207.500 541.000,207.500" stroke-width="17.190" stroke="rgb(33,33,33)" fill="none" stroke-linecap="round"></path><path d="M 541.000,207.500 C 541.000,208.000 541.000,208.000 541.000,208.500" stroke-width="17.387" stroke="rgb(33,33,33)" fill="none" stroke-linecap="round"></path><path d="M 541.000,208.500 C 541.000,209.000 541.000,209.000 541.000,209.500" stroke-width="17.452" stroke="rgb(33,33,33)" fill="none" stroke-linecap="round"></path></svg>