<svg xmlns="http://www.w3.org/2000/svg" xmlns:xlink="http://www.w3.org/1999/xlink" viewBox="0 0 320 500"><path d="M 22.000,265.000 C 27.500,265.000 27.500,265.000 33.000,265.000" stroke-width="19.777" stroke="rgb(33,33,33)" fill="none" stroke-linecap="round"></path><path d="M 33.000,265.000 C 35.000,265.000 35.151,265.599 37.000,265.000" stroke-width="18.941" stroke="rgb(33,33,33)" fill="none" stroke-linecap="round"></path><path d="M 37.000,265.000 C 40.155,263.978 40.223,263.693 43.008,261.758" stroke-width="17.832" stroke="rgb(33,33,33)" fill="none" stroke-linecap="round"></path><path d="M 43.008,261.758 C 45.632,259.935 45.563,259.773 47.818,257.485" stroke-width="17.765" stroke="rgb(33,33,33)" fill="none" stroke-linecap="round"></path><path d="M 47.818,257.485 C 51.745,253.500 52.413,253.930 55.373,249.211" stroke-width="17.493" stroke="rgb(33,33,33)" fill="none" stroke-linecap="round"></path><path d="M 55.373,249.211 C 63.761,235.840 62.983,235.279 70.514,221.305" stroke-width="15.761" stroke="rgb(33,33,33)" fill="none" stroke-linecap="round"></path><path d="M 70.514,221.305 C 72.741,217.172 72.605,217.094 74.890,212.998" stroke-width="15.576" stroke="rgb(33,33,33)" fill="none" stroke-linecap="round"></path><path d="M 74.890,212.998 C 75.583,211.756 75.727,211.842 76.469,210.629" stroke-width="15.324" stroke="rgb(33,33,33)" fill="none" stroke-linecap="round"></path><path d="M 76.469,210.629 C 76.949,209.844 76.914,209.822 77.333,209.001" stroke-width="15.981" stroke="rgb(33,33,33)" fill="none" stroke-linecap="round"></path><path d="M 77.333,209.001 C 78.119,207.461 78.636,207.372 78.880,205.907" stroke-width="16.444" stroke="rgb(33,33,33)" fill="none" stroke-linecap="round"></path><path d="M 78.880,205.907 C 78.969,205.372 78.121,204.669 78.000,205.000" stroke-width="16.691" stroke="rgb(33,33,33)" fill="none" stroke-linecap="round"></path><path d="M 78.000,205.000 C 77.685,205.863 78.403,206.703 78.008,208.295" stroke-width="16.991" stroke="rgb(33,33,33)" fill="none" stroke-linecap="round"></path><path d="M 78.008,208.295 C 75.150,219.814 74.850,219.787 71.494,231.222" stroke-width="15.912" stroke="rgb(33,33,33)" fill="none" stroke-linecap="round"></path><path d="M 71.494,231.222 C 65.949,250.113 65.644,250.026 60.206,268.946" stroke-width="8.002" stroke="rgb(33,33,33)" fill="none" stroke-linecap="round"></path><path d="M 60.206,268.946 C 57.768,277.431 57.797,277.446 55.742,286.031" stroke-width="7.420" stroke="rgb(33,33,33)" fill="none" stroke-linecap="round"></path><path d="M 55.742,286.031 C 53.926,293.618 54.282,293.703 52.465,301.289" stroke-width="8.163" stroke="rgb(33,33,33)" fill="none" stroke-linecap="round"></path><path d="M 52.465,301.289 C 51.029,307.287 50.882,307.253 49.236,313.199" stroke-width="8.987" stroke="rgb(33,33,33)" fill="none" stroke-linecap="round"></path><path d="M 49.236,313.199 C 46.816,321.942 46.731,321.921 44.333,330.667" stroke-width="8.033" stroke="rgb(33,33,33)" fill="none" stroke-linecap="round"></path><path d="M 44.333,330.667 C 44.168,331.268 44.250,331.287 44.110,331.894" stroke-width="9.008" stroke="rgb(33,33,33)" fill="none" stroke-linecap="round"></path><path d="M 44.110,331.894 C 43.740,333.494 43.749,333.499 43.313,335.082" stroke-width="10.016" stroke="rgb(33,33,33)" fill="none" stroke-linecap="round"></path><path d="M 43.313,335.082 C 43.027,336.120 42.404,337.926 42.667,337.137" stroke-width="11.102" stroke="rgb(33,33,33)" fill="none" stroke-linecap="round"></path><path d="M 42.667,337.137 C 44.712,330.999 45.800,329.328 47.929,321.229" stroke-width="11.749" stroke="rgb(33,33,33)" fill="none" stroke-linecap="round"></path><path d="M 47.929,321.229 C 56.466,288.759 55.948,288.610 64.000,256.000" stroke-width="11.134" stroke="rgb(33,33,33)" fill="none" stroke-linecap="round"></path><path d="M 64.000,256.000 C 68.386,238.238 67.945,238.104 72.804,220.485" stroke-width="7.880" stroke="rgb(33,33,33)" fill="none" stroke-linecap="round"></path><path d="M 72.804,220.485 C 74.442,214.545 75.277,214.794 76.994,208.882" stroke-width="7.764" stroke="rgb(33,33,33)" fill="none" stroke-linecap="round"></path><path d="M 76.994,208.882 C 78.832,202.556 78.129,202.354 79.914,196.009" stroke-width="8.588" stroke="rgb(33,33,33)" fill="none" stroke-linecap="round"></path><path d="M 79.914,196.009 C 81.698,189.668 81.893,189.712 84.133,183.509" stroke-width="8.510" stroke="rgb(33,33,33)" fill="none" stroke-linecap="round"></path><path d="M 84.133,183.509 C 86.562,176.782 86.232,176.625 89.252,170.149" stroke-width="9.355" stroke="rgb(33,33,33)" fill="none" stroke-linecap="round"></path><path d="M 89.252,170.149 C 95.830,156.041 95.406,155.633 103.329,142.340" stroke-width="9.682" stroke="rgb(33,33,33)" fill="none" stroke-linecap="round"></path><path d="M 103.329,142.340 C 106.031,137.808 106.756,138.253 110.502,134.498" stroke-width="9.303" stroke="rgb(33,33,33)" fill="none" stroke-linecap="round"></path><path d="M 110.502,134.498 C 112.365,132.631 112.504,132.772 114.546,131.096" stroke-width="9.835" stroke="rgb(33,33,33)" fill="none" stroke-linecap="round"></path><path d="M 114.546,131.096 C 116.520,129.476 116.311,129.055 118.534,127.906" stroke-width="10.735" stroke="rgb(33,33,33)" fill="none" stroke-linecap="round"></path><path d="M 118.534,127.906 C 120.701,126.786 120.896,127.083 123.326,126.558" stroke-width="11.714" stroke="rgb(33,33,33)" fill="none" stroke-linecap="round"></path><path d="M 123.326,126.558 C 127.629,125.630 127.641,125.536 132.000,125.000" stroke-width="10.790" stroke="rgb(33,33,33)" fill="none" stroke-linecap="round"></path><path d="M 132.000,125.000 C 133.978,124.757 134.015,124.826 136.000,125.000" stroke-width="11.653" stroke="rgb(33,33,33)" fill="none" stroke-linecap="round"></path><path d="M 136.000,125.000 C 138.165,125.190 138.217,125.134 140.301,125.727" stroke-width="11.809" stroke="rgb(33,33,33)" fill="none" stroke-linecap="round"></path><path d="M 140.301,125.727 C 142.266,126.287 142.400,126.195 144.099,127.306" stroke-width="11.662" stroke="rgb(33,33,33)" fill="none" stroke-linecap="round"></path><path d="M 144.099,127.306 C 146.345,128.774 146.529,128.795 148.190,130.886" stroke-width="12.322" stroke="rgb(33,33,33)" fill="none" stroke-linecap="round"></path><path d="M 148.190,130.886 C 149.750,132.850 149.517,133.083 150.542,135.417" stroke-width="12.709" stroke="rgb(33,33,33)" fill="none" stroke-linecap="round"></path><path d="M 150.542,135.417 C 152.189,139.167 152.316,139.148 153.535,143.055" stroke-width="13.009" stroke="rgb(33,33,33)" fill="none" stroke-linecap="round"></path><path d="M 153.535,143.055 C 155.005,147.768 155.170,147.785 155.921,152.658" stroke-width="12.675" stroke="rgb(33,33,33)" fill="none" stroke-linecap="round"></path><path d="M 155.921,152.658 C 156.804,158.386 156.585,158.450 156.804,164.256" stroke-width="12.599" stroke="rgb(33,33,33)" fill="none" stroke-linecap="round"></path><path d="M 156.804,164.256 C 156.958,168.352 156.699,168.359 156.667,172.462" stroke-width="12.694" stroke="rgb(33,33,33)" fill="none" stroke-linecap="round"></path><path d="M 156.667,172.462 C 156.631,177.064 157.096,177.107 156.667,181.667" stroke-width="12.829" stroke="rgb(33,33,33)" fill="none" stroke-linecap="round"></path><path d="M 156.667,181.667 C 156.279,185.790 156.236,185.856 155.034,189.828" stroke-width="13.609" stroke="rgb(33,33,33)" fill="none" stroke-linecap="round"></path><path d="M 155.034,189.828 C 152.982,196.612 153.431,196.922 150.159,203.179" stroke-width="13.957" stroke="rgb(33,33,33)" fill="none" stroke-linecap="round"></path><path d="M 150.159,203.179 C 145.808,211.501 145.375,211.390 139.788,218.985" stroke-width="13.868" stroke="rgb(33,33,33)" fill="none" stroke-linecap="round"></path><path d="M 139.788,218.985 C 136.573,223.356 136.393,223.281 132.555,227.112" stroke-width="12.578" stroke="rgb(33,33,33)" fill="none" stroke-linecap="round"></path><path d="M 132.555,227.112 C 130.421,229.242 130.184,228.990 127.845,230.907" stroke-width="11.985" stroke="rgb(33,33,33)" fill="none" stroke-linecap="round"></path><path d="M 127.845,230.907 C 125.573,232.768 125.720,232.972 123.333,234.667" stroke-width="12.681" stroke="rgb(33,33,33)" fill="none" stroke-linecap="round"></path><path d="M 123.333,234.667 C 120.912,236.386 120.697,236.073 118.229,237.736" stroke-width="13.435" stroke="rgb(33,33,33)" fill="none" stroke-linecap="round"></path><path d="M 118.229,237.736 C 112.854,241.358 112.696,241.203 107.647,245.236" stroke-width="11.017" stroke="rgb(33,33,33)" fill="none" stroke-linecap="round"></path><path d="M 107.647,245.236 C 105.327,247.090 105.711,247.535 103.491,249.509" stroke-width="11.384" stroke="rgb(33,33,33)" fill="none" stroke-linecap="round"></path><path d="M 103.491,249.509 C 101.721,251.083 101.621,250.981 99.667,252.333" stroke-width="12.152" stroke="rgb(33,33,33)" fill="none" stroke-linecap="round"></path><path d="M 99.667,252.333 C 97.939,253.528 97.979,253.622 96.128,254.603" stroke-width="12.581" stroke="rgb(33,33,33)" fill="none" stroke-linecap="round"></path><path d="M 96.128,254.603 C 94.388,255.525 94.346,255.487 92.485,256.139" stroke-width="13.390" stroke="rgb(33,33,33)" fill="none" stroke-linecap="round"></path><path d="M 92.485,256.139 C 90.872,256.704 90.865,256.844 89.180,257.038" stroke-width="14.078" stroke="rgb(33,33,33)" fill="none" stroke-linecap="round"></path><path d="M 89.180,257.038 C 87.123,257.275 86.966,257.360 85.000,257.000" stroke-width="13.915" stroke="rgb(33,33,33)" fill="none" stroke-linecap="round"></path><path d="M 85.000,257.000 C 84.307,256.873 84.369,256.596 83.861,256.065" stroke-width="14.750" stroke="rgb(33,33,33)" fill="none" stroke-linecap="round"></path><path d="M 83.861,256.065 C 82.274,254.405 81.674,254.648 80.809,252.618" stroke-width="15.332" stroke="rgb(33,33,33)" fill="none" stroke-linecap="round"></path><path d="M 80.809,252.618 C 79.743,250.115 80.299,249.817 80.000,247.000" stroke-width="14.780" stroke="rgb(33,33,33)" fill="none" stroke-linecap="round"></path><path d="M 80.000,247.000 C 79.895,246.008 79.530,245.829 80.000,245.000" stroke-width="15.483" stroke="rgb(33,33,33)" fill="none" stroke-linecap="round"></path><path d="M 80.000,245.000 C 81.273,242.753 81.676,242.863 83.485,240.848" stroke-width="15.058" stroke="rgb(33,33,33)" fill="none" stroke-linecap="round"></path><path d="M 83.485,240.848 C 84.611,239.594 84.524,239.445 85.871,238.462" stroke-width="14.353" stroke="rgb(33,33,33)" fill="none" stroke-linecap="round"></path><path d="M 85.871,238.462 C 87.254,237.452 87.401,237.648 88.944,236.861" stroke-width="14.962" stroke="rgb(33,33,33)" fill="none" stroke-linecap="round"></path><path d="M 88.944,236.861 C 90.516,236.059 90.415,235.731 92.101,235.283" stroke-width="15.592" stroke="rgb(33,33,33)" fill="none" stroke-linecap="round"></path><path d="M 92.101,235.283 C 95.171,234.467 95.267,234.652 98.457,234.333" stroke-width="14.234" stroke="rgb(33,33,33)" fill="none" stroke-linecap="round"></path><path d="M 98.457,234.333 C 100.019,234.177 100.031,234.333 101.605,234.333" stroke-width="14.033" stroke="rgb(33,33,33)" fill="none" stroke-linecap="round"></path><path d="M 101.605,234.333 C 103.183,234.333 103.183,234.333 104.761,234.333" stroke-width="14.688" stroke="rgb(33,33,33)" fill="none" stroke-linecap="round"></path><path d="M 104.761,234.333 C 106.358,234.333 106.360,234.397 107.955,234.333" stroke-width="15.381" stroke="rgb(33,33,33)" fill="none" stroke-linecap="round"></path><path d="M 107.955,234.333 C 110.480,234.231 110.693,233.479 113.000,234.000" stroke-width="14.678" stroke="rgb(33,33,33)" fill="none" stroke-linecap="round"></path><path d="M 113.000,234.000 C 114.506,234.340 114.240,235.098 115.582,236.055" stroke-width="15.305" stroke="rgb(33,33,33)" fill="none" stroke-linecap="round"></path><path d="M 115.582,236.055 C 117.826,237.655 118.173,237.296 120.172,239.114" stroke-width="14.039" stroke="rgb(33,33,33)" fill="none" stroke-linecap="round"></path><path d="M 120.172,239.114 C 121.289,240.130 121.044,240.389 121.815,241.722" stroke-width="14.305" stroke="rgb(33,33,33)" fill="none" stroke-linecap="round"></path><path d="M 121.815,241.722 C 122.458,242.832 122.393,242.869 123.000,244.000" stroke-width="14.991" stroke="rgb(33,33,33)" fill="none" stroke-linecap="round"></path><path d="M 123.000,244.000 C 123.955,245.781 124.001,245.757 124.940,247.546" stroke-width="14.656" stroke="rgb(33,33,33)" fill="none" stroke-linecap="round"></path><path d="M 124.940,247.546 C 125.760,249.108 125.885,249.065 126.518,250.703" stroke-width="15.255" stroke="rgb(33,33,33)" fill="none" stroke-linecap="round"></path><path d="M 126.518,250.703 C 127.108,252.229 127.016,252.273 127.385,253.874" stroke-width="15.252" stroke="rgb(33,33,33)" fill="none" stroke-linecap="round"></path><path d="M 127.385,253.874 C 127.850,255.890 127.731,255.918 128.187,257.937" stroke-width="14.462" stroke="rgb(33,33,33)" fill="none" stroke-linecap="round"></path><path d="M 128.187,257.937 C 128.518,259.400 128.585,259.384 128.959,260.837" stroke-width="15.065" stroke="rgb(33,33,33)" fill="none" stroke-linecap="round"></path><path d="M 128.959,260.837 C 129.377,262.458 129.329,262.471 129.771,264.085" stroke-width="15.003" stroke="rgb(33,33,33)" fill="none" stroke-linecap="round"></path><path d="M 129.771,264.085 C 130.126,265.380 130.341,265.340 130.552,266.656" stroke-width="15.597" stroke="rgb(33,33,33)" fill="none" stroke-linecap="round"></path><path d="M 130.552,266.656 C 130.789,268.136 130.554,268.170 130.667,269.676" stroke-width="16.151" stroke="rgb(33,33,33)" fill="none" stroke-linecap="round"></path><path d="M 130.667,269.676 C 130.944,273.353 131.088,273.346 131.333,277.023" stroke-width="14.814" stroke="rgb(33,33,33)" fill="none" stroke-linecap="round"></path><path d="M 131.333,277.023 C 131.421,278.341 131.222,278.353 131.333,279.667" stroke-width="14.471" stroke="rgb(33,33,33)" fill="none" stroke-linecap="round"></path><path d="M 131.333,279.667 C 131.474,281.349 131.660,281.333 131.837,283.015" stroke-width="15.050" stroke="rgb(33,33,33)" fill="none" stroke-linecap="round"></path><path d="M 131.837,283.015 C 131.993,284.500 131.959,284.506 132.000,286.000" stroke-width="15.217" stroke="rgb(33,33,33)" fill="none" stroke-linecap="round"></path><path d="M 132.000,286.000 C 132.041,287.499 132.000,287.500 132.000,289.000" stroke-width="15.764" stroke="rgb(33,33,33)" fill="none" stroke-linecap="round"></path><path d="M 132.000,289.000 C 132.000,290.500 131.744,290.546 132.000,292.000" stroke-width="15.252" stroke="rgb(33,33,33)" fill="none" stroke-linecap="round"></path><path d="M 132.000,292.000 C 132.240,293.368 132.813,293.286 132.992,294.643" stroke-width="15.357" stroke="rgb(33,33,33)" fill="none" stroke-linecap="round"></path><path d="M 132.992,294.643 C 133.146,295.813 132.750,295.844 132.667,297.055" stroke-width="15.857" stroke="rgb(33,33,33)" fill="none" stroke-linecap="round"></path><path d="M 132.667,297.055 C 132.587,298.216 132.667,298.221 132.667,299.388" stroke-width="16.424" stroke="rgb(33,33,33)" fill="none" stroke-linecap="round"></path><path d="M 132.667,299.388 C 132.667,301.766 132.253,301.840 132.667,304.144" stroke-width="16.741" stroke="rgb(33,33,33)" fill="none" stroke-linecap="round"></path><path d="M 132.667,304.144 C 133.086,306.479 133.811,306.341 134.333,308.667" stroke-width="15.245" stroke="rgb(33,33,33)" fill="none" stroke-linecap="round"></path><path d="M 134.333,308.667 C 134.745,310.506 134.268,310.595 134.535,312.474" stroke-width="14.764" stroke="rgb(33,33,33)" fill="none" stroke-linecap="round"></path><path d="M 134.535,312.474 C 134.760,314.062 134.926,314.038 135.317,315.601" stroke-width="15.337" stroke="rgb(33,33,33)" fill="none" stroke-linecap="round"></path><path d="M 135.317,315.601 C 135.710,317.174 135.632,317.197 136.103,318.746" stroke-width="15.914" stroke="rgb(33,33,33)" fill="none" stroke-linecap="round"></path><path d="M 136.103,318.746 C 136.807,321.063 136.704,321.129 137.667,323.333" stroke-width="15.401" stroke="rgb(33,33,33)" fill="none" stroke-linecap="round"></path><path d="M 137.667,323.333 C 138.136,324.406 138.228,324.390 138.968,325.301" stroke-width="14.782" stroke="rgb(33,33,33)" fill="none" stroke-linecap="round"></path><path d="M 138.968,325.301 C 139.664,326.159 139.753,326.086 140.538,326.871" stroke-width="15.423" stroke="rgb(33,33,33)" fill="none" stroke-linecap="round"></path><path d="M 140.538,326.871 C 141.339,327.672 141.339,327.672 142.140,328.473" stroke-width="15.493" stroke="rgb(33,33,33)" fill="none" stroke-linecap="round"></path><path d="M 142.140,328.473 C 142.924,329.257 142.924,329.257 143.708,330.041" stroke-width="16.060" stroke="rgb(33,33,33)" fill="none" stroke-linecap="round"></path><path d="M 143.708,330.041 C 144.486,330.819 144.274,331.195 145.263,331.597" stroke-width="16.665" stroke="rgb(33,33,33)" fill="none" stroke-linecap="round"></path><path d="M 145.263,331.597 C 147.920,332.675 148.093,332.620 151.000,333.000" stroke-width="16.987" stroke="rgb(33,33,33)" fill="none" stroke-linecap="round"></path><path d="M 151.000,333.000 C 153.461,333.322 153.500,333.000 156.000,333.000" stroke-width="15.619" stroke="rgb(33,33,33)" fill="none" stroke-linecap="round"></path><path d="M 156.000,333.000 C 156.500,333.000 156.500,333.000 157.000,333.000" stroke-width="16.316" stroke="rgb(33,33,33)" fill="none" stroke-linecap="round"></path><path d="M 157.000,333.000 C 159.500,333.000 159.500,333.000 162.000,333.000" stroke-width="16.746" stroke="rgb(33,33,33)" fill="none" stroke-linecap="round"></path><path d="M 162.000,333.000 C 166.500,333.000 166.913,334.196 171.000,333.000" stroke-width="16.925" stroke="rgb(33,33,33)" fill="none" stroke-linecap="round"></path><path d="M 171.000,333.000 C 174.092,332.095 174.207,331.265 176.357,328.798" stroke-width="14.631" stroke="rgb(33,33,33)" fill="none" stroke-linecap="round"></path><path d="M 176.357,328.798 C 177.362,327.645 176.864,327.288 177.310,325.760" stroke-width="15.324" stroke="rgb(33,33,33)" fill="none" stroke-linecap="round"></path><path d="M 177.310,325.760 C 178.121,322.982 178.089,322.972 178.870,320.185" stroke-width="15.176" stroke="rgb(33,33,33)" fill="none" stroke-linecap="round"></path><path d="M 178.870,320.185 C 179.277,318.732 179.329,318.745 179.685,317.279" stroke-width="15.913" stroke="rgb(33,33,33)" fill="none" stroke-linecap="round"></path><path d="M 179.685,317.279 C 180.727,312.986 181.061,312.484 181.667,308.667" stroke-width="14.317" stroke="rgb(33,33,33)" fill="none" stroke-linecap="round"></path><path d="M 181.667,308.667 C 181.718,308.345 181.334,308.833 181.000,309.000" stroke-width="15.190" stroke="rgb(33,33,33)" fill="none" stroke-linecap="round"></path><path d="M 181.000,309.000 C 181.000,309.000 181.000,309.000 181.000,309.000" stroke-width="15.989" stroke="rgb(33,33,33)" fill="none" stroke-linecap="round"></path><path d="M 181.000,309.000 C 181.500,308.500 181.500,308.500 182.000,308.000" stroke-width="16.067" stroke="rgb(33,33,33)" fill="none" stroke-linecap="round"></path><path d="M 265.000,143.000 C 263.480,147.738 263.373,147.706 261.959,152.476" stroke-width="19.933" stroke="rgb(33,33,33)" fill="none" stroke-linecap="round"></path><path d="M 261.959,152.476 C 260.518,157.339 260.625,157.371 259.291,162.265" stroke-width="17.770" stroke="rgb(33,33,33)" fill="none" stroke-linecap="round"></path><path d="M 259.291,162.265 C 258.167,166.388 258.140,166.381 257.042,170.511" stroke-width="16.705" stroke="rgb(33,33,33)" fill="none" stroke-linecap="round"></path><path d="M 257.042,170.511 C 255.445,176.518 255.273,176.482 253.901,182.540" stroke-width="16.346" stroke="rgb(33,33,33)" fill="none" stroke-linecap="round"></path><path d="M 253.901,182.540 C 252.826,187.286 252.946,187.316 252.147,192.119" stroke-width="16.634" stroke="rgb(33,33,33)" fill="none" stroke-linecap="round"></path><path d="M 252.147,192.119 C 250.995,199.046 251.002,199.054 250.000,206.000" stroke-width="16.431" stroke="rgb(33,33,33)" fill="none" stroke-linecap="round"></path><path d="M 250.000,206.000 C 249.929,206.495 249.975,207.457 250.000,207.000" stroke-width="17.014" stroke="rgb(33,33,33)" fill="none" stroke-linecap="round"></path><path d="M 250.000,207.000 C 250.565,196.687 250.555,195.728 251.181,184.461" stroke-width="11.269" stroke="rgb(33,33,33)" fill="none" stroke-linecap="round"></path><path d="M 251.181,184.461 C 251.546,177.880 251.770,177.888 251.982,171.303" stroke-width="8.817" stroke="rgb(33,33,33)" fill="none" stroke-linecap="round"></path><path d="M 251.982,171.303 C 252.180,165.157 251.995,165.151 252.000,159.000" stroke-width="9.463" stroke="rgb(33,33,33)" fill="none" stroke-linecap="round"></path><path d="M 252.000,159.000 C 252.004,154.000 252.000,154.000 252.000,149.000" stroke-width="9.672" stroke="rgb(33,33,33)" fill="none" stroke-linecap="round"></path><path d="M 252.000,149.000 C 252.000,147.000 252.104,146.995 252.000,145.000" stroke-width="10.649" stroke="rgb(33,33,33)" fill="none" stroke-linecap="round"></path><path d="M 252.000,145.000 C 251.876,142.622 252.638,142.297 251.543,140.255" stroke-width="11.630" stroke="rgb(33,33,33)" fill="none" stroke-linecap="round"></path><path d="M 251.543,140.255 C 248.507,134.592 248.644,133.398 243.738,129.590" stroke-width="12.260" stroke="rgb(33,33,33)" fill="none" stroke-linecap="round"></path><path d="M 243.738,129.590 C 240.535,127.104 239.569,128.292 235.325,127.667" stroke-width="11.454" stroke="rgb(33,33,33)" fill="none" stroke-linecap="round"></path><path d="M 235.325,127.667 C 233.041,127.331 232.840,126.946 230.682,127.667" stroke-width="12.291" stroke="rgb(33,33,33)" fill="none" stroke-linecap="round"></path><path d="M 230.682,127.667 C 225.163,129.511 224.761,129.445 219.972,132.796" stroke-width="12.699" stroke="rgb(33,33,33)" fill="none" stroke-linecap="round"></path><path d="M 219.972,132.796 C 215.854,135.678 216.034,136.157 212.868,140.132" stroke-width="10.747" stroke="rgb(33,33,33)" fill="none" stroke-linecap="round"></path><path d="M 212.868,140.132 C 209.714,144.092 209.593,144.137 207.333,148.667" stroke-width="11.300" stroke="rgb(33,33,33)" fill="none" stroke-linecap="round"></path><path d="M 207.333,148.667 C 204.249,154.847 204.608,155.055 202.179,161.553" stroke-width="9.974" stroke="rgb(33,33,33)" fill="none" stroke-linecap="round"></path><path d="M 202.179,161.553 C 199.986,167.422 199.925,167.413 198.089,173.401" stroke-width="9.032" stroke="rgb(33,33,33)" fill="none" stroke-linecap="round"></path><path d="M 198.089,173.401 C 196.282,179.294 196.095,179.281 194.893,185.316" stroke-width="9.504" stroke="rgb(33,33,33)" fill="none" stroke-linecap="round"></path><path d="M 194.893,185.316 C 193.817,190.720 194.155,190.791 193.532,196.278" stroke-width="9.869" stroke="rgb(33,33,33)" fill="none" stroke-linecap="round"></path><path d="M 193.532,196.278 C 193.208,199.133 193.154,199.132 193.000,202.000" stroke-width="10.861" stroke="rgb(33,33,33)" fill="none" stroke-linecap="round"></path><path d="M 193.000,202.000 C 192.721,207.189 192.765,207.194 192.667,212.391" stroke-width="9.936" stroke="rgb(33,33,33)" fill="none" stroke-linecap="round"></path><path d="M 192.667,212.391 C 192.598,216.047 192.667,216.048 192.667,219.704" stroke-width="10.244" stroke="rgb(33,33,33)" fill="none" stroke-linecap="round"></path><path d="M 192.667,219.704 C 192.667,222.364 192.667,222.364 192.667,225.024" stroke-width="11.165" stroke="rgb(33,33,33)" fill="none" stroke-linecap="round"></path><path d="M 192.667,225.024 C 192.667,227.307 192.667,227.307 192.667,229.590" stroke-width="12.110" stroke="rgb(33,33,33)" fill="none" stroke-linecap="round"></path><path d="M 192.667,229.590 C 192.667,234.477 192.667,234.477 192.667,239.364" stroke-width="10.867" stroke="rgb(33,33,33)" fill="none" stroke-linecap="round"></path><path d="M 192.667,239.364 C 192.667,243.563 192.470,243.571 192.667,247.763" stroke-width="11.616" stroke="rgb(33,33,33)" fill="none" stroke-linecap="round"></path><path d="M 192.667,247.763 C 192.939,253.542 192.854,253.571 193.606,259.305" stroke-width="12.219" stroke="rgb(33,33,33)" fill="none" stroke-linecap="round"></path><path d="M 193.606,259.305 C 194.383,265.237 194.501,265.235 195.725,271.096" stroke-width="10.840" stroke="rgb(33,33,33)" fill="none" stroke-linecap="round"></path><path d="M 195.725,271.096 C 196.689,275.714 196.791,275.696 197.982,280.263" stroke-width="10.634" stroke="rgb(33,33,33)" fill="none" stroke-linecap="round"></path><path d="M 197.982,280.263 C 198.702,283.022 198.874,282.979 199.547,285.747" stroke-width="11.391" stroke="rgb(33,33,33)" fill="none" stroke-linecap="round"></path><path d="M 199.547,285.747 C 200.008,287.642 199.632,287.759 200.251,289.589" stroke-width="12.037" stroke="rgb(33,33,33)" fill="none" stroke-linecap="round"></path><path d="M 200.251,289.589 C 200.859,291.385 201.199,291.261 202.000,293.000" stroke-width="12.845" stroke="rgb(33,33,33)" fill="none" stroke-linecap="round"></path><path d="M 202.000,293.000 C 202.899,294.951 202.765,295.013 203.651,296.970" stroke-width="12.784" stroke="rgb(33,33,33)" fill="none" stroke-linecap="round"></path><path d="M 203.651,296.970 C 204.365,298.547 204.348,298.564 205.201,300.069" stroke-width="13.601" stroke="rgb(33,33,33)" fill="none" stroke-linecap="round"></path><path d="M 205.201,300.069 C 205.934,301.362 205.837,301.460 206.822,302.566" stroke-width="14.381" stroke="rgb(33,33,33)" fill="none" stroke-linecap="round"></path><path d="M 206.822,302.566 C 209.070,305.092 209.169,305.038 211.667,307.333" stroke-width="13.039" stroke="rgb(33,33,33)" fill="none" stroke-linecap="round"></path><path d="M 211.667,307.333 C 212.436,308.040 212.553,307.901 213.356,308.570" stroke-width="13.643" stroke="rgb(33,33,33)" fill="none" stroke-linecap="round"></path><path d="M 213.356,308.570 C 214.558,309.573 214.628,309.520 215.677,310.677" stroke-width="14.363" stroke="rgb(33,33,33)" fill="none" stroke-linecap="round"></path><path d="M 215.677,310.677 C 217.011,312.149 216.836,312.305 218.121,313.828" stroke-width="15.013" stroke="rgb(33,33,33)" fill="none" stroke-linecap="round"></path><path d="M 218.121,313.828 C 220.436,316.571 220.353,316.665 222.877,319.210" stroke-width="15.377" stroke="rgb(33,33,33)" fill="none" stroke-linecap="round"></path><path d="M 222.877,319.210 C 225.111,321.463 225.174,321.424 227.636,323.424" stroke-width="14.337" stroke="rgb(33,33,33)" fill="none" stroke-linecap="round"></path><path d="M 227.636,323.424 C 228.739,324.320 228.743,324.374 230.006,325.004" stroke-width="14.025" stroke="rgb(33,33,33)" fill="none" stroke-linecap="round"></path><path d="M 230.006,325.004 C 231.126,325.563 231.205,325.402 232.403,325.801" stroke-width="14.760" stroke="rgb(33,33,33)" fill="none" stroke-linecap="round"></path><path d="M 232.403,325.801 C 233.491,326.163 233.453,326.435 234.579,326.526" stroke-width="15.466" stroke="rgb(33,33,33)" fill="none" stroke-linecap="round"></path><path d="M 234.579,326.526 C 236.745,326.701 236.782,326.404 238.986,326.333" stroke-width="14.521" stroke="rgb(33,33,33)" fill="none" stroke-linecap="round"></path><path d="M 238.986,326.333 C 239.784,326.307 239.784,326.333 240.583,326.333" stroke-width="14.876" stroke="rgb(33,33,33)" fill="none" stroke-linecap="round"></path><path d="M 240.583,326.333 C 241.369,326.333 241.369,326.333 242.156,326.333" stroke-width="15.545" stroke="rgb(33,33,33)" fill="none" stroke-linecap="round"></path><path d="M 242.156,326.333 C 243.391,326.333 243.391,326.333 244.626,326.333" stroke-width="15.780" stroke="rgb(33,33,33)" fill="none" stroke-linecap="round"></path><path d="M 244.626,326.333 C 245.313,326.333 245.313,326.333 245.999,326.333" stroke-width="16.442" stroke="rgb(33,33,33)" fill="none" stroke-linecap="round"></path><path d="M 245.999,326.333 C 248.192,326.333 248.192,326.333 250.385,326.333" stroke-width="15.638" stroke="rgb(33,33,33)" fill="none" stroke-linecap="round"></path><path d="M 250.385,326.333 C 251.553,326.333 251.733,326.854 252.721,326.333" stroke-width="16.253" stroke="rgb(33,33,33)" fill="none" stroke-linecap="round"></path><path d="M 252.721,326.333 C 255.281,324.984 255.195,324.572 257.480,322.593" stroke-width="16.631" stroke="rgb(33,33,33)" fill="none" stroke-linecap="round"></path><path d="M 257.480,322.593 C 259.556,320.796 259.647,320.823 261.443,318.781" stroke-width="14.919" stroke="rgb(33,33,33)" fill="none" stroke-linecap="round"></path><path d="M 261.443,318.781 C 262.031,318.113 261.746,317.913 262.247,317.172" stroke-width="15.216" stroke="rgb(33,33,33)" fill="none" stroke-linecap="round"></path><path d="M 262.247,317.172 C 263.024,316.022 262.992,315.934 264.000,315.000" stroke-width="15.823" stroke="rgb(33,33,33)" fill="none" stroke-linecap="round"></path><path d="M 264.000,315.000 C 264.692,314.359 264.902,314.612 265.646,314.021" stroke-width="15.838" stroke="rgb(33,33,33)" fill="none" stroke-linecap="round"></path><path d="M 265.646,314.021 C 266.516,313.331 266.437,313.230 267.228,312.439" stroke-width="15.737" stroke="rgb(33,33,33)" fill="none" stroke-linecap="round"></path><path d="M 267.228,312.439 C 268.010,311.657 268.150,311.755 268.792,310.875" stroke-width="16.325" stroke="rgb(33,33,33)" fill="none" stroke-linecap="round"></path><path d="M 268.792,310.875 C 269.295,310.184 268.991,309.966 269.518,309.298" stroke-width="16.502" stroke="rgb(33,33,33)" fill="none" stroke-linecap="round"></path><path d="M 269.518,309.298 C 270.240,308.383 270.665,308.687 271.290,307.710" stroke-width="16.894" stroke="rgb(33,33,33)" fill="none" stroke-linecap="round"></path><path d="M 271.290,307.710 C 272.187,306.308 271.862,306.096 272.563,304.541" stroke-width="17.213" stroke="rgb(33,33,33)" fill="none" stroke-linecap="round"></path><path d="M 272.563,304.541 C 273.286,302.937 273.220,302.863 274.138,301.391" stroke-width="16.307" stroke="rgb(33,33,33)" fill="none" stroke-linecap="round"></path><path d="M 274.138,301.391 C 274.410,300.955 274.688,301.135 274.942,300.725" stroke-width="16.605" stroke="rgb(33,33,33)" fill="none" stroke-linecap="round"></path><path d="M 274.942,300.725 C 275.119,300.439 274.829,300.297 275.000,300.000" stroke-width="17.124" stroke="rgb(33,33,33)" fill="none" stroke-linecap="round"></path><path d="M 275.000,300.000 C 275.285,299.507 275.428,299.573 275.855,299.145" stroke-width="17.387" stroke="rgb(33,33,33)" fill="none" stroke-linecap="round"></path><path d="M 275.855,299.145 C 276.094,298.906 276.290,298.710 276.333,298.667" stroke-width="17.811" stroke="rgb(33,33,33)" fill="none" stroke-linecap="round"></path><path d="M 276.333,298.667 C 276.363,298.637 276.053,299.107 276.000,299.000" stroke-width="18.238" stroke="rgb(33,33,33)" fill="none" stroke-linecap="round"></path><path d="M 276.000,299.000 C 275.887,298.773 275.816,298.403 276.000,298.000" stroke-width="18.397" stroke="rgb(33,33,33)" fill="none" stroke-linecap="round"></path><path d="M 276.000,298.000 C 276.149,297.674 276.378,297.685 276.667,297.541" stroke-width="18.685" stroke="rgb(33,33,33)" fill="none" stroke-linecap="round"></path><path d="M 276.667,297.541 C 276.712,297.519 276.667,297.604 276.667,297.667" stroke-width="18.953" stroke="rgb(33,33,33)" fill="none" stroke-linecap="round"></path></svg>