<svg xmlns="http://www.w3.org/2000/svg" xmlns:xlink="http://www.w3.org/1999/xlink" viewBox="0 0 800 500"><path d="M 274.000,184.500 C 276.000,184.500 276.000,184.500 278.000,184.500" stroke-width="19.904" stroke="rgb(33,33,33)" fill="none" stroke-linecap="round"></path><path d="M 278.000,184.500 C 280.500,184.500 280.500,184.500 283.000,184.500" stroke-width="18.179" stroke="rgb(33,33,33)" fill="none" stroke-linecap="round"></path><path d="M 283.000,184.500 C 286.000,184.500 286.000,184.500 289.000,184.500" stroke-width="16.316" stroke="rgb(33,33,33)" fill="none" stroke-linecap="round"></path><path d="M 289.000,184.500 C 292.000,184.500 292.000,184.500 295.000,184.500" stroke-width="15.079" stroke="rgb(33,33,33)" fill="none" stroke-linecap="round"></path><path d="M 295.000,184.500 C 299.000,184.500 299.000,184.500 303.000,184.500" stroke-width="13.945" stroke="rgb(33,33,33)" fill="none" stroke-linecap="round"></path><path d="M 303.000,184.500 C 307.000,184.500 307.000,184.500 311.000,184.500" stroke-width="12.734" stroke="rgb(33,33,33)" fill="none" stroke-linecap="round"></path><path d="M 311.000,184.500 C 315.000,184.500 315.000,184.500 319.000,184.500" stroke-width="12.110" stroke="rgb(33,33,33)" fill="none" stroke-linecap="round"></path><path d="M 319.000,184.500 C 324.000,184.500 324.015,184.762 329.000,184.500" stroke-width="11.327" stroke="rgb(33,33,33)" fill="none" stroke-linecap="round"></path><path d="M 329.000,184.500 C 333.515,184.262 333.495,183.950 338.000,183.500" stroke-width="11.057" stroke="rgb(33,33,33)" fill="none" stroke-linecap="round"></path><path d="M 338.000,183.500 C 343.495,182.950 343.502,183.024 349.000,182.500" stroke-width="10.223" stroke="rgb(33,33,33)" fill="none" stroke-linecap="round"></path><path d="M 349.000,182.500 C 354.002,182.024 353.998,181.976 359.000,181.500" stroke-width="10.085" stroke="rgb(33,33,33)" fill="none" stroke-linecap="round"></path><path d="M 359.000,181.500 C 364.498,180.976 364.533,181.245 370.000,180.500" stroke-width="9.543" stroke="rgb(33,33,33)" fill="none" stroke-linecap="round"></path><path d="M 370.000,180.500 C 375.533,179.745 375.463,179.222 381.000,178.500" stroke-width="9.302" stroke="rgb(33,33,33)" fill="none" stroke-linecap="round"></path><path d="M 381.000,178.500 C 386.963,177.722 387.031,178.246 393.000,177.500" stroke-width="9.166" stroke="rgb(33,33,33)" fill="none" stroke-linecap="round"></path><path d="M 393.000,177.500 C 399.031,176.746 398.994,176.461 405.000,175.500" stroke-width="8.915" stroke="rgb(33,33,33)" fill="none" stroke-linecap="round"></path><path d="M 405.000,175.500 C 411.494,174.461 411.474,174.283 418.000,173.500" stroke-width="8.462" stroke="rgb(33,33,33)" fill="none" stroke-linecap="round"></path><path d="M 418.000,173.500 C 423.974,172.783 424.093,173.527 430.000,172.500" stroke-width="8.384" stroke="rgb(33,33,33)" fill="none" stroke-linecap="round"></path><path d="M 430.000,172.500 C 435.593,171.527 435.457,170.820 441.000,169.500" stroke-width="8.377" stroke="rgb(33,33,33)" fill="none" stroke-linecap="round"></path><path d="M 441.000,169.500 C 445.957,168.320 445.968,168.295 451.000,167.500" stroke-width="8.579" stroke="rgb(33,33,33)" fill="none" stroke-linecap="round"></path><path d="M 451.000,167.500 C 455.468,166.795 455.540,167.243 460.000,166.500" stroke-width="8.748" stroke="rgb(33,33,33)" fill="none" stroke-linecap="round"></path><path d="M 460.000,166.500 C 464.540,165.743 464.530,165.618 469.000,164.500" stroke-width="8.872" stroke="rgb(33,33,33)" fill="none" stroke-linecap="round"></path><path d="M 469.000,164.500 C 472.530,163.618 472.551,163.650 476.000,162.500" stroke-width="9.172" stroke="rgb(33,33,33)" fill="none" stroke-linecap="round"></path><path d="M 476.000,162.500 C 478.551,161.650 478.432,161.270 481.000,160.500" stroke-width="9.639" stroke="rgb(33,33,33)" fill="none" stroke-linecap="round"></path><path d="M 481.000,160.500 C 483.432,159.770 483.567,160.195 486.000,159.500" stroke-width="10.084" stroke="rgb(33,33,33)" fill="none" stroke-linecap="round"></path><path d="M 486.000,159.500 C 487.067,159.195 486.964,158.845 488.000,158.500" stroke-width="10.873" stroke="rgb(33,33,33)" fill="none" stroke-linecap="round"></path><path d="M 488.000,158.500 C 488.464,158.345 488.750,158.750 489.000,158.500" stroke-width="11.894" stroke="rgb(33,33,33)" fill="none" stroke-linecap="round"></path><path d="M 489.000,158.500 C 489.250,158.250 489.333,157.667 489.000,157.500" stroke-width="12.935" stroke="rgb(33,33,33)" fill="none" stroke-linecap="round"></path><path d="M 489.000,157.500 C 488.333,157.167 487.980,157.663 487.000,157.500" stroke-width="13.528" stroke="rgb(33,33,33)" fill="none" stroke-linecap="round"></path><path d="M 487.000,157.500 C 484.980,157.163 484.919,157.220 483.000,156.500" stroke-width="13.193" stroke="rgb(33,33,33)" fill="none" stroke-linecap="round"></path><path d="M 483.000,156.500 C 480.919,155.720 481.144,154.890 479.000,154.500" stroke-width="13.345" stroke="rgb(33,33,33)" fill="none" stroke-linecap="round"></path><path d="M 479.000,154.500 C 475.644,153.890 475.486,154.732 472.000,154.500" stroke-width="12.745" stroke="rgb(33,33,33)" fill="none" stroke-linecap="round"></path><path d="M 472.000,154.500 C 467.986,154.232 468.018,153.711 464.000,153.500" stroke-width="11.901" stroke="rgb(33,33,33)" fill="none" stroke-linecap="round"></path><path d="M 464.000,153.500 C 458.518,153.211 458.500,153.500 453.000,153.500" stroke-width="11.028" stroke="rgb(33,33,33)" fill="none" stroke-linecap="round"></path><path d="M 453.000,153.500 C 447.000,153.500 447.000,153.500 441.000,153.500" stroke-width="10.285" stroke="rgb(33,33,33)" fill="none" stroke-linecap="round"></path><path d="M 441.000,153.500 C 432.500,153.500 432.500,153.500 424.000,153.500" stroke-width="9.406" stroke="rgb(33,33,33)" fill="none" stroke-linecap="round"></path><path d="M 424.000,153.500 C 415.000,153.500 415.000,153.500 406.000,153.500" stroke-width="8.311" stroke="rgb(33,33,33)" fill="none" stroke-linecap="round"></path><path d="M 406.000,153.500 C 395.500,153.500 395.447,152.754 385.000,153.500" stroke-width="7.882" stroke="rgb(33,33,33)" fill="none" stroke-linecap="round"></path><path d="M 385.000,153.500 C 374.447,154.254 374.509,155.067 364.000,156.500" stroke-width="7.077" stroke="rgb(33,33,33)" fill="none" stroke-linecap="round"></path><path d="M 364.000,156.500 C 352.509,158.067 352.504,158.031 341.000,159.500" stroke-width="6.750" stroke="rgb(33,33,33)" fill="none" stroke-linecap="round"></path><path d="M 341.000,159.500 C 329.004,161.031 328.996,160.969 317.000,162.500" stroke-width="6.750" stroke="rgb(33,33,33)" fill="none" stroke-linecap="round"></path><path d="M 317.000,162.500 C 305.496,163.969 305.406,163.472 294.000,165.500" stroke-width="6.750" stroke="rgb(33,33,33)" fill="none" stroke-linecap="round"></path><path d="M 294.000,165.500 C 282.906,167.472 283.088,168.484 272.000,170.500" stroke-width="6.750" stroke="rgb(33,33,33)" fill="none" stroke-linecap="round"></path><path d="M 272.000,170.500 C 261.088,172.484 260.954,171.717 250.000,173.500" stroke-width="6.750" stroke="rgb(33,33,33)" fill="none" stroke-linecap="round"></path><path d="M 250.000,173.500 C 239.454,175.217 239.470,175.352 229.000,177.500" stroke-width="6.750" stroke="rgb(33,33,33)" fill="none" stroke-linecap="round"></path><path d="M 229.000,177.500 C 219.970,179.352 219.974,179.389 211.000,181.500" stroke-width="6.750" stroke="rgb(33,33,33)" fill="none" stroke-linecap="round"></path><path d="M 211.000,181.500 C 202.974,183.389 202.946,183.308 195.000,185.500" stroke-width="6.750" stroke="rgb(33,33,33)" fill="none" stroke-linecap="round"></path><path d="M 195.000,185.500 C 188.446,187.308 188.506,187.520 182.000,189.500" stroke-width="6.750" stroke="rgb(33,33,33)" fill="none" stroke-linecap="round"></path><path d="M 182.000,189.500 C 177.006,191.020 176.977,190.928 172.000,192.500" stroke-width="6.750" stroke="rgb(33,33,33)" fill="none" stroke-linecap="round"></path><path d="M 172.000,192.500 C 167.477,193.928 167.500,194.000 163.000,195.500" stroke-width="6.898" stroke="rgb(33,33,33)" fill="none" stroke-linecap="round"></path><path d="M 163.000,195.500 C 160.000,196.500 159.792,196.104 157.000,197.500" stroke-width="7.482" stroke="rgb(33,33,33)" fill="none" stroke-linecap="round"></path><path d="M 157.000,197.500 C 154.792,198.604 155.144,199.275 153.000,200.500" stroke-width="8.132" stroke="rgb(33,33,33)" fill="none" stroke-linecap="round"></path><path d="M 153.000,200.500 C 151.644,201.275 151.382,200.809 150.000,201.500" stroke-width="8.916" stroke="rgb(33,33,33)" fill="none" stroke-linecap="round"></path><path d="M 150.000,201.500 C 149.382,201.809 149.586,202.207 149.000,202.500" stroke-width="9.842" stroke="rgb(33,33,33)" fill="none" stroke-linecap="round"></path><path d="M 149.000,202.500 C 148.586,202.707 148.250,202.250 148.000,202.500" stroke-width="10.823" stroke="rgb(33,33,33)" fill="none" stroke-linecap="round"></path><path d="M 148.000,202.500 C 147.750,202.750 147.640,203.260 148.000,203.500" stroke-width="11.905" stroke="rgb(33,33,33)" fill="none" stroke-linecap="round"></path><path d="M 148.000,203.500 C 149.140,204.260 149.455,204.279 151.000,204.500" stroke-width="12.469" stroke="rgb(33,33,33)" fill="none" stroke-linecap="round"></path><path d="M 151.000,204.500 C 152.955,204.779 153.016,204.302 155.000,204.500" stroke-width="12.404" stroke="rgb(33,33,33)" fill="none" stroke-linecap="round"></path><path d="M 155.000,204.500 C 158.016,204.802 157.978,205.268 161.000,205.500" stroke-width="12.213" stroke="rgb(33,33,33)" fill="none" stroke-linecap="round"></path><path d="M 161.000,205.500 C 164.478,205.768 164.500,205.500 168.000,205.500" stroke-width="12.151" stroke="rgb(33,33,33)" fill="none" stroke-linecap="round"></path><path d="M 168.000,205.500 C 172.500,205.500 172.500,205.500 177.000,205.500" stroke-width="11.518" stroke="rgb(33,33,33)" fill="none" stroke-linecap="round"></path><path d="M 177.000,205.500 C 182.500,205.500 182.500,205.500 188.000,205.500" stroke-width="10.762" stroke="rgb(33,33,33)" fill="none" stroke-linecap="round"></path><path d="M 188.000,205.500 C 194.500,205.500 194.500,205.500 201.000,205.500" stroke-width="9.974" stroke="rgb(33,33,33)" fill="none" stroke-linecap="round"></path><path d="M 201.000,205.500 C 208.000,205.500 208.000,205.500 215.000,205.500" stroke-width="9.314" stroke="rgb(33,33,33)" fill="none" stroke-linecap="round"></path><path d="M 215.000,205.500 C 222.500,205.500 222.508,205.742 230.000,205.500" stroke-width="8.750" stroke="rgb(33,33,33)" fill="none" stroke-linecap="round"></path><path d="M 230.000,205.500 C 238.008,205.242 238.020,205.225 246.000,204.500" stroke-width="8.258" stroke="rgb(33,33,33)" fill="none" stroke-linecap="round"></path><path d="M 246.000,204.500 C 254.520,203.725 254.478,203.252 263.000,202.500" stroke-width="7.819" stroke="rgb(33,33,33)" fill="none" stroke-linecap="round"></path><path d="M 263.000,202.500 C 271.478,201.752 271.519,202.227 280.000,201.500" stroke-width="7.641" stroke="rgb(33,33,33)" fill="none" stroke-linecap="round"></path><path d="M 280.000,201.500 C 289.019,200.727 289.003,200.528 298.000,199.500" stroke-width="7.303" stroke="rgb(33,33,33)" fill="none" stroke-linecap="round"></path><path d="M 298.000,199.500 C 306.503,198.528 306.536,198.745 315.000,197.500" stroke-width="7.115" stroke="rgb(33,33,33)" fill="none" stroke-linecap="round"></path><path d="M 315.000,197.500 C 323.536,196.245 323.464,195.755 332.000,194.500" stroke-width="6.962" stroke="rgb(33,33,33)" fill="none" stroke-linecap="round"></path><path d="M 332.000,194.500 C 340.464,193.255 340.481,193.299 349.000,192.500" stroke-width="6.853" stroke="rgb(33,33,33)" fill="none" stroke-linecap="round"></path><path d="M 349.000,192.500 C 356.481,191.799 356.521,192.224 364.000,191.500" stroke-width="6.889" stroke="rgb(33,33,33)" fill="none" stroke-linecap="round"></path><path d="M 364.000,191.500 C 372.021,190.724 372.014,190.601 380.000,189.500" stroke-width="6.853" stroke="rgb(33,33,33)" fill="none" stroke-linecap="round"></path><path d="M 380.000,189.500 C 386.514,188.601 386.546,188.741 393.000,187.500" stroke-width="7.000" stroke="rgb(33,33,33)" fill="none" stroke-linecap="round"></path><path d="M 393.000,187.500 C 399.546,186.241 399.430,185.551 406.000,184.500" stroke-width="7.111" stroke="rgb(33,33,33)" fill="none" stroke-linecap="round"></path><path d="M 406.000,184.500 C 411.930,183.551 412.093,184.527 418.000,183.500" stroke-width="7.286" stroke="rgb(33,33,33)" fill="none" stroke-linecap="round"></path><path d="M 418.000,183.500 C 423.593,182.527 423.457,181.820 429.000,180.500" stroke-width="7.477" stroke="rgb(33,33,33)" fill="none" stroke-linecap="round"></path><path d="M 429.000,180.500 C 433.957,179.320 433.991,179.454 439.000,178.500" stroke-width="7.724" stroke="rgb(33,33,33)" fill="none" stroke-linecap="round"></path><path d="M 439.000,178.500 C 444.491,177.454 444.519,177.596 450.000,176.500" stroke-width="7.858" stroke="rgb(33,33,33)" fill="none" stroke-linecap="round"></path><path d="M 450.000,176.500 C 454.519,175.596 454.460,175.257 459.000,174.500" stroke-width="8.126" stroke="rgb(33,33,33)" fill="none" stroke-linecap="round"></path><path d="M 459.000,174.500 C 463.460,173.757 463.540,174.243 468.000,173.500" stroke-width="8.368" stroke="rgb(33,33,33)" fill="none" stroke-linecap="round"></path><path d="M 468.000,173.500 C 472.540,172.743 472.500,172.500 477.000,171.500" stroke-width="8.557" stroke="rgb(33,33,33)" fill="none" stroke-linecap="round"></path><path d="M 477.000,171.500 C 481.500,170.500 481.513,170.556 486.000,169.500" stroke-width="8.715" stroke="rgb(33,33,33)" fill="none" stroke-linecap="round"></path><path d="M 486.000,169.500 C 490.013,168.556 490.017,168.562 494.000,167.500" stroke-width="8.940" stroke="rgb(33,33,33)" fill="none" stroke-linecap="round"></path><path d="M 494.000,167.500 C 497.517,166.562 497.449,166.261 501.000,165.500" stroke-width="9.229" stroke="rgb(33,33,33)" fill="none" stroke-linecap="round"></path><path d="M 501.000,165.500 C 504.449,164.761 504.594,165.352 508.000,164.500" stroke-width="9.586" stroke="rgb(33,33,33)" fill="none" stroke-linecap="round"></path><path d="M 508.000,164.500 C 510.594,163.852 510.604,163.698 513.000,162.500" stroke-width="10.002" stroke="rgb(33,33,33)" fill="none" stroke-linecap="round"></path><path d="M 513.000,162.500 C 514.604,161.698 514.367,161.200 516.000,160.500" stroke-width="10.603" stroke="rgb(33,33,33)" fill="none" stroke-linecap="round"></path><path d="M 516.000,160.500 C 517.867,159.700 518.055,160.148 520.000,159.500" stroke-width="10.856" stroke="rgb(33,33,33)" fill="none" stroke-linecap="round"></path><path d="M 520.000,159.500 C 521.055,159.148 521.000,159.000 522.000,158.500" stroke-width="11.584" stroke="rgb(33,33,33)" fill="none" stroke-linecap="round"></path><path d="M 522.000,158.500 C 523.000,158.000 523.081,158.113 524.000,157.500" stroke-width="12.240" stroke="rgb(33,33,33)" fill="none" stroke-linecap="round"></path><path d="M 524.000,157.500 C 524.581,157.113 524.500,157.000 525.000,156.500" stroke-width="13.071" stroke="rgb(33,33,33)" fill="none" stroke-linecap="round"></path><path d="M 525.000,156.500 C 525.500,156.000 525.707,156.086 526.000,155.500" stroke-width="13.887" stroke="rgb(33,33,33)" fill="none" stroke-linecap="round"></path><path d="M 526.000,155.500 C 526.207,155.086 526.000,155.000 526.000,154.500" stroke-width="14.691" stroke="rgb(33,33,33)" fill="none" stroke-linecap="round"></path><path d="M 526.000,154.500 C 526.000,153.500 526.000,153.500 526.000,152.500" stroke-width="15.252" stroke="rgb(33,33,33)" fill="none" stroke-linecap="round"></path><path d="M 526.000,152.500 C 526.000,152.000 526.000,152.000 526.000,151.500" stroke-width="15.732" stroke="rgb(33,33,33)" fill="none" stroke-linecap="round"></path><path d="M 526.000,151.500 C 526.000,151.000 526.000,151.000 526.000,150.500" stroke-width="16.139" stroke="rgb(33,33,33)" fill="none" stroke-linecap="round"></path><path d="M 526.000,150.500 C 526.000,149.500 526.000,149.500 526.000,148.500" stroke-width="16.151" stroke="rgb(33,33,33)" fill="none" stroke-linecap="round"></path><path d="M 526.000,148.500 C 526.000,147.500 526.481,147.301 526.000,146.500" stroke-width="16.161" stroke="rgb(33,33,33)" fill="none" stroke-linecap="round"></path><path d="M 526.000,146.500 C 524.981,144.801 524.685,144.763 523.000,143.500" stroke-width="15.476" stroke="rgb(33,33,33)" fill="none" stroke-linecap="round"></path><path d="M 523.000,143.500 C 520.685,141.763 520.638,141.699 518.000,140.500" stroke-width="14.542" stroke="rgb(33,33,33)" fill="none" stroke-linecap="round"></path><path d="M 518.000,140.500 C 515.138,139.199 515.052,139.314 512.000,138.500" stroke-width="13.755" stroke="rgb(33,33,33)" fill="none" stroke-linecap="round"></path><path d="M 512.000,138.500 C 507.552,137.314 507.519,137.404 503.000,136.500" stroke-width="12.339" stroke="rgb(33,33,33)" fill="none" stroke-linecap="round"></path><path d="M 503.000,136.500 C 497.519,135.404 497.514,135.419 492.000,134.500" stroke-width="11.497" stroke="rgb(33,33,33)" fill="none" stroke-linecap="round"></path><path d="M 492.000,134.500 C 485.514,133.419 485.535,133.176 479.000,132.500" stroke-width="10.449" stroke="rgb(33,33,33)" fill="none" stroke-linecap="round"></path><path d="M 479.000,132.500 C 471.035,131.676 471.008,131.736 463.000,131.500" stroke-width="9.414" stroke="rgb(33,33,33)" fill="none" stroke-linecap="round"></path><path d="M 463.000,131.500 C 454.008,131.236 453.994,131.743 445.000,131.500" stroke-width="8.541" stroke="rgb(33,33,33)" fill="none" stroke-linecap="round"></path><path d="M 445.000,131.500 C 435.494,131.243 435.507,130.750 426.000,130.500" stroke-width="7.872" stroke="rgb(33,33,33)" fill="none" stroke-linecap="round"></path><path d="M 426.000,130.500 C 416.507,130.250 416.500,130.500 407.000,130.500" stroke-width="7.410" stroke="rgb(33,33,33)" fill="none" stroke-linecap="round"></path><path d="M 407.000,130.500 C 397.500,130.500 397.500,130.500 388.000,130.500" stroke-width="7.210" stroke="rgb(33,33,33)" fill="none" stroke-linecap="round"></path><path d="M 388.000,130.500 C 379.000,130.500 379.000,130.500 370.000,130.500" stroke-width="6.839" stroke="rgb(33,33,33)" fill="none" stroke-linecap="round"></path><path d="M 370.000,130.500 C 361.000,130.500 360.967,129.973 352.000,130.500" stroke-width="6.750" stroke="rgb(33,33,33)" fill="none" stroke-linecap="round"></path><path d="M 352.000,130.500 C 343.967,130.973 344.030,131.982 336.000,132.500" stroke-width="6.750" stroke="rgb(33,33,33)" fill="none" stroke-linecap="round"></path><path d="M 336.000,132.500 C 328.530,132.982 328.490,132.233 321.000,132.500" stroke-width="6.750" stroke="rgb(33,33,33)" fill="none" stroke-linecap="round"></path><path d="M 321.000,132.500 C 314.490,132.733 314.497,132.959 308.000,133.500" stroke-width="6.863" stroke="rgb(33,33,33)" fill="none" stroke-linecap="round"></path><path d="M 308.000,133.500 C 302.497,133.959 302.495,133.950 297.000,134.500" stroke-width="7.139" stroke="rgb(33,33,33)" fill="none" stroke-linecap="round"></path><path d="M 297.000,134.500 C 292.495,134.950 292.492,134.938 288.000,135.500" stroke-width="7.512" stroke="rgb(33,33,33)" fill="none" stroke-linecap="round"></path><path d="M 288.000,135.500 C 284.492,135.938 284.474,135.868 281.000,136.500" stroke-width="7.994" stroke="rgb(33,33,33)" fill="none" stroke-linecap="round"></path><path d="M 281.000,136.500 C 278.974,136.868 279.026,137.211 277.000,137.500" stroke-width="8.692" stroke="rgb(33,33,33)" fill="none" stroke-linecap="round"></path><path d="M 277.000,137.500 C 275.526,137.711 275.359,137.160 274.000,137.500" stroke-width="9.505" stroke="rgb(33,33,33)" fill="none" stroke-linecap="round"></path><path d="M 274.000,137.500 C 273.359,137.660 273.586,138.207 273.000,138.500" stroke-width="10.413" stroke="rgb(33,33,33)" fill="none" stroke-linecap="round"></path><path d="M 273.000,138.500 C 272.586,138.707 272.167,138.167 272.000,138.500" stroke-width="11.371" stroke="rgb(33,33,33)" fill="none" stroke-linecap="round"></path><path d="M 272.000,138.500 C 271.667,139.167 271.528,139.792 272.000,140.500" stroke-width="12.424" stroke="rgb(33,33,33)" fill="none" stroke-linecap="round"></path><path d="M 272.000,140.500 C 272.528,141.292 273.137,140.810 274.000,141.500" stroke-width="12.982" stroke="rgb(33,33,33)" fill="none" stroke-linecap="round"></path><path d="M 274.000,141.500 C 275.637,142.810 275.296,143.283 277.000,144.500" stroke-width="13.031" stroke="rgb(33,33,33)" fill="none" stroke-linecap="round"></path><path d="M 277.000,144.500 C 278.796,145.783 279.000,145.500 281.000,146.500" stroke-width="12.890" stroke="rgb(33,33,33)" fill="none" stroke-linecap="round"></path><path d="M 281.000,146.500 C 283.000,147.500 283.047,147.415 285.000,148.500" stroke-width="12.910" stroke="rgb(33,33,33)" fill="none" stroke-linecap="round"></path><path d="M 285.000,148.500 C 287.547,149.915 287.541,149.935 290.000,151.500" stroke-width="12.781" stroke="rgb(33,33,33)" fill="none" stroke-linecap="round"></path><path d="M 290.000,151.500 C 293.041,153.435 293.000,153.500 296.000,155.500" stroke-width="12.289" stroke="rgb(33,33,33)" fill="none" stroke-linecap="round"></path><path d="M 296.000,155.500 C 299.000,157.500 299.000,157.500 302.000,159.500" stroke-width="11.744" stroke="rgb(33,33,33)" fill="none" stroke-linecap="round"></path><path d="M 302.000,159.500 C 305.000,161.500 305.000,161.500 308.000,163.500" stroke-width="11.508" stroke="rgb(33,33,33)" fill="none" stroke-linecap="round"></path><path d="M 308.000,163.500 C 311.000,165.500 310.931,165.611 314.000,167.500" stroke-width="11.325" stroke="rgb(33,33,33)" fill="none" stroke-linecap="round"></path><path d="M 314.000,167.500 C 317.431,169.611 317.698,169.214 321.000,171.500" stroke-width="11.054" stroke="rgb(33,33,33)" fill="none" stroke-linecap="round"></path><path d="M 321.000,171.500 C 324.198,173.714 323.907,174.121 327.000,176.500" stroke-width="10.882" stroke="rgb(33,33,33)" fill="none" stroke-linecap="round"></path><path d="M 327.000,176.500 C 330.407,179.121 330.464,179.052 334.000,181.500" stroke-width="10.637" stroke="rgb(33,33,33)" fill="none" stroke-linecap="round"></path><path d="M 334.000,181.500 C 336.964,183.552 336.892,183.687 340.000,185.500" stroke-width="10.640" stroke="rgb(33,33,33)" fill="none" stroke-linecap="round"></path><path d="M 340.000,185.500 C 342.892,187.187 343.186,186.709 346.000,188.500" stroke-width="10.906" stroke="rgb(33,33,33)" fill="none" stroke-linecap="round"></path><path d="M 346.000,188.500 C 348.686,190.209 348.594,190.395 351.000,192.500" stroke-width="10.838" stroke="rgb(33,33,33)" fill="none" stroke-linecap="round"></path><path d="M 351.000,192.500 C 352.594,193.895 352.363,194.190 354.000,195.500" stroke-width="11.245" stroke="rgb(33,33,33)" fill="none" stroke-linecap="round"></path><path d="M 354.000,195.500 C 354.863,196.190 355.250,195.750 356.000,196.500" stroke-width="11.936" stroke="rgb(33,33,33)" fill="none" stroke-linecap="round"></path><path d="M 356.000,196.500 C 356.750,197.250 356.387,197.581 357.000,198.500" stroke-width="12.602" stroke="rgb(33,33,33)" fill="none" stroke-linecap="round"></path><path d="M 357.000,198.500 C 357.387,199.081 357.500,199.000 358.000,199.500" stroke-width="13.271" stroke="rgb(33,33,33)" fill="none" stroke-linecap="round"></path><path d="M 358.000,199.500 C 358.500,200.000 358.707,199.914 359.000,200.500" stroke-width="14.078" stroke="rgb(33,33,33)" fill="none" stroke-linecap="round"></path><path d="M 359.000,200.500 C 359.207,200.914 358.793,201.086 359.000,201.500" stroke-width="14.719" stroke="rgb(33,33,33)" fill="none" stroke-linecap="round"></path><path d="M 359.000,201.500 C 359.293,202.086 359.500,202.000 360.000,202.500" stroke-width="15.158" stroke="rgb(33,33,33)" fill="none" stroke-linecap="round"></path><path d="M 360.000,202.500 C 360.500,203.000 360.707,202.914 361.000,203.500" stroke-width="15.528" stroke="rgb(33,33,33)" fill="none" stroke-linecap="round"></path><path d="M 361.000,203.500 C 361.207,203.914 360.845,204.036 361.000,204.500" stroke-width="15.966" stroke="rgb(33,33,33)" fill="none" stroke-linecap="round"></path><path d="M 361.000,204.500 C 361.345,205.536 361.387,205.581 362.000,206.500" stroke-width="16.080" stroke="rgb(33,33,33)" fill="none" stroke-linecap="round"></path><path d="M 362.000,206.500 C 362.387,207.081 362.500,207.000 363.000,207.500" stroke-width="16.140" stroke="rgb(33,33,33)" fill="none" stroke-linecap="round"></path><path d="M 363.000,207.500 C 363.500,208.000 363.707,207.914 364.000,208.500" stroke-width="16.437" stroke="rgb(33,33,33)" fill="none" stroke-linecap="round"></path><path d="M 364.000,208.500 C 364.207,208.914 363.750,209.250 364.000,209.500" stroke-width="16.727" stroke="rgb(33,33,33)" fill="none" stroke-linecap="round"></path><path d="M 364.000,209.500 C 364.250,209.750 364.750,209.250 365.000,209.500" stroke-width="16.967" stroke="rgb(33,33,33)" fill="none" stroke-linecap="round"></path><path d="M 365.000,209.500 C 365.250,209.750 364.750,210.250 365.000,210.500" stroke-width="17.164" stroke="rgb(33,33,33)" fill="none" stroke-linecap="round"></path><path d="M 365.000,210.500 C 365.250,210.750 365.750,210.250 366.000,210.500" stroke-width="17.325" stroke="rgb(33,33,33)" fill="none" stroke-linecap="round"></path><path d="M 366.000,210.500 C 366.250,210.750 365.750,211.250 366.000,211.500" stroke-width="17.498" stroke="rgb(33,33,33)" fill="none" stroke-linecap="round"></path><path d="M 366.000,211.500 C 366.250,211.750 366.750,211.250 367.000,211.500" stroke-width="17.776" stroke="rgb(33,33,33)" fill="none" stroke-linecap="round"></path><path d="M 367.000,211.500 C 367.250,211.750 367.000,212.000 367.000,212.500" stroke-width="17.821" stroke="rgb(33,33,33)" fill="none" stroke-linecap="round"></path><path d="M 367.000,212.500 C 367.000,213.000 366.793,213.086 367.000,213.500" stroke-width="17.856" stroke="rgb(33,33,33)" fill="none" stroke-linecap="round"></path><path d="M 367.000,213.500 C 367.293,214.086 367.414,214.207 368.000,214.500" stroke-width="17.723" stroke="rgb(33,33,33)" fill="none" stroke-linecap="round"></path><path d="M 368.000,214.500 C 368.414,214.707 368.750,214.250 369.000,214.500" stroke-width="17.975" stroke="rgb(33,33,33)" fill="none" stroke-linecap="round"></path></svg>