<svg xmlns="http://www.w3.org/2000/svg" xmlns:xlink="http://www.w3.org/1999/xlink" viewBox="0 0 800 500"><path d="M 349.000,109.000 C 349.000,109.500 349.310,109.628 349.000,110.000" stroke-width="17.393" stroke="rgb(33,33,33)" fill="none" stroke-linecap="round"></path><path d="M 349.000,110.000 C 346.810,112.628 346.278,112.308 344.000,115.000" stroke-width="15.480" stroke="rgb(33,33,33)" fill="none" stroke-linecap="round"></path><path d="M 344.000,115.000 C 340.778,118.808 341.235,119.195 338.000,123.000" stroke-width="13.787" stroke="rgb(33,33,33)" fill="none" stroke-linecap="round"></path><path d="M 338.000,123.000 C 332.735,129.195 332.421,128.929 327.000,135.000" stroke-width="11.364" stroke="rgb(33,33,33)" fill="none" stroke-linecap="round"></path><path d="M 327.000,135.000 C 319.921,142.929 320.288,143.270 313.000,151.000" stroke-width="10.064" stroke="rgb(33,33,33)" fill="none" stroke-linecap="round"></path><path d="M 313.000,151.000 C 303.788,160.770 303.280,160.289 294.000,170.000" stroke-width="6.750" stroke="rgb(33,33,33)" fill="none" stroke-linecap="round"></path><path d="M 294.000,170.000 C 281.780,182.789 281.989,182.990 270.000,196.000" stroke-width="6.750" stroke="rgb(33,33,33)" fill="none" stroke-linecap="round"></path><path d="M 270.000,196.000 C 258.489,208.490 258.765,208.754 247.000,221.000" stroke-width="6.750" stroke="rgb(33,33,33)" fill="none" stroke-linecap="round"></path><path d="M 247.000,221.000 C 234.265,234.254 234.245,234.255 221.000,247.000" stroke-width="6.750" stroke="rgb(33,33,33)" fill="none" stroke-linecap="round"></path><path d="M 221.000,247.000 C 207.745,259.755 207.776,259.813 194.000,272.000" stroke-width="6.750" stroke="rgb(33,33,33)" fill="none" stroke-linecap="round"></path><path d="M 194.000,272.000 C 181.776,282.813 181.420,282.407 169.000,293.000" stroke-width="6.750" stroke="rgb(33,33,33)" fill="none" stroke-linecap="round"></path><path d="M 169.000,293.000 C 164.420,296.907 164.651,297.180 160.000,301.000" stroke-width="6.750" stroke="rgb(33,33,33)" fill="none" stroke-linecap="round"></path><path d="M 160.000,301.000 C 150.651,308.680 150.631,308.680 141.000,316.000" stroke-width="6.750" stroke="rgb(33,33,33)" fill="none" stroke-linecap="round"></path><path d="M 141.000,316.000 C 138.131,318.180 138.041,318.065 135.000,320.000" stroke-width="6.750" stroke="rgb(33,33,33)" fill="none" stroke-linecap="round"></path><path d="M 135.000,320.000 C 132.541,321.565 132.483,321.472 130.000,323.000" stroke-width="6.750" stroke="rgb(33,33,33)" fill="none" stroke-linecap="round"></path><path d="M 130.000,323.000 C 125.983,325.472 126.091,325.662 122.000,328.000" stroke-width="6.750" stroke="rgb(33,33,33)" fill="none" stroke-linecap="round"></path><path d="M 122.000,328.000 C 119.091,329.662 119.058,329.641 116.000,331.000" stroke-width="6.995" stroke="rgb(33,33,33)" fill="none" stroke-linecap="round"></path><path d="M 116.000,331.000 C 114.558,331.641 114.531,331.694 113.000,332.000" stroke-width="7.830" stroke="rgb(33,33,33)" fill="none" stroke-linecap="round"></path><path d="M 113.000,332.000 C 112.031,332.194 112.000,332.000 111.000,332.000" stroke-width="8.705" stroke="rgb(33,33,33)" fill="none" stroke-linecap="round"></path><path d="M 111.000,332.000 C 110.000,332.000 109.667,332.333 109.000,332.000" stroke-width="9.618" stroke="rgb(33,33,33)" fill="none" stroke-linecap="round"></path><path d="M 109.000,332.000 C 108.667,331.833 109.000,331.500 109.000,331.000" stroke-width="10.586" stroke="rgb(33,33,33)" fill="none" stroke-linecap="round"></path><path d="M 109.000,331.000 C 109.000,326.000 108.407,325.941 109.000,321.000" stroke-width="10.371" stroke="rgb(33,33,33)" fill="none" stroke-linecap="round"></path><path d="M 109.000,321.000 C 109.907,313.441 109.126,312.981 112.000,306.000" stroke-width="9.443" stroke="rgb(33,33,33)" fill="none" stroke-linecap="round"></path><path d="M 112.000,306.000 C 116.126,295.981 117.396,296.439 123.000,287.000" stroke-width="8.217" stroke="rgb(33,33,33)" fill="none" stroke-linecap="round"></path><path d="M 123.000,287.000 C 136.396,264.439 135.278,263.650 150.000,242.000" stroke-width="6.750" stroke="rgb(33,33,33)" fill="none" stroke-linecap="round"></path><path d="M 150.000,242.000 C 160.778,226.150 161.092,226.138 174.000,212.000" stroke-width="6.750" stroke="rgb(33,33,33)" fill="none" stroke-linecap="round"></path><path d="M 174.000,212.000 C 182.092,203.138 183.132,204.144 192.000,196.000" stroke-width="6.750" stroke="rgb(33,33,33)" fill="none" stroke-linecap="round"></path><path d="M 192.000,196.000 C 207.632,181.644 206.726,180.561 223.000,167.000" stroke-width="6.750" stroke="rgb(33,33,33)" fill="none" stroke-linecap="round"></path><path d="M 223.000,167.000 C 236.726,155.561 237.277,156.166 252.000,146.000" stroke-width="6.750" stroke="rgb(33,33,33)" fill="none" stroke-linecap="round"></path><path d="M 252.000,146.000 C 258.277,141.666 258.365,141.766 265.000,138.000" stroke-width="6.750" stroke="rgb(33,33,33)" fill="none" stroke-linecap="round"></path><path d="M 265.000,138.000 C 276.865,131.266 276.814,131.093 289.000,125.000" stroke-width="6.750" stroke="rgb(33,33,33)" fill="none" stroke-linecap="round"></path><path d="M 289.000,125.000 C 292.814,123.093 293.000,123.500 297.000,122.000" stroke-width="6.750" stroke="rgb(33,33,33)" fill="none" stroke-linecap="round"></path><path d="M 297.000,122.000 C 305.000,119.000 304.839,118.418 313.000,116.000" stroke-width="6.750" stroke="rgb(33,33,33)" fill="none" stroke-linecap="round"></path><path d="M 313.000,116.000 C 318.339,114.418 318.481,114.788 324.000,114.000" stroke-width="6.750" stroke="rgb(33,33,33)" fill="none" stroke-linecap="round"></path><path d="M 324.000,114.000 C 325.481,113.788 325.500,114.000 327.000,114.000" stroke-width="6.750" stroke="rgb(33,33,33)" fill="none" stroke-linecap="round"></path><path d="M 327.000,114.000 C 330.000,114.000 330.000,114.000 333.000,114.000" stroke-width="6.983" stroke="rgb(33,33,33)" fill="none" stroke-linecap="round"></path><path d="M 333.000,114.000 C 334.500,114.000 334.500,114.000 336.000,114.000" stroke-width="7.804" stroke="rgb(33,33,33)" fill="none" stroke-linecap="round"></path><path d="M 336.000,114.000 C 338.000,114.000 338.604,113.162 340.000,114.000" stroke-width="8.523" stroke="rgb(33,33,33)" fill="none" stroke-linecap="round"></path><path d="M 340.000,114.000 C 341.104,114.662 340.827,115.447 341.000,117.000" stroke-width="9.290" stroke="rgb(33,33,33)" fill="none" stroke-linecap="round"></path><path d="M 341.000,117.000 C 341.327,119.947 341.465,120.053 341.000,123.000" stroke-width="9.671" stroke="rgb(33,33,33)" fill="none" stroke-linecap="round"></path><path d="M 341.000,123.000 C 339.965,129.553 340.165,129.720 338.000,136.000" stroke-width="9.325" stroke="rgb(33,33,33)" fill="none" stroke-linecap="round"></path><path d="M 338.000,136.000 C 335.165,144.220 334.645,144.066 331.000,152.000" stroke-width="8.312" stroke="rgb(33,33,33)" fill="none" stroke-linecap="round"></path><path d="M 331.000,152.000 C 326.145,162.566 326.009,162.504 321.000,173.000" stroke-width="7.596" stroke="rgb(33,33,33)" fill="none" stroke-linecap="round"></path><path d="M 321.000,173.000 C 315.509,184.504 315.298,184.410 310.000,196.000" stroke-width="6.750" stroke="rgb(33,33,33)" fill="none" stroke-linecap="round"></path><path d="M 310.000,196.000 C 307.298,201.910 307.790,202.141 305.000,208.000" stroke-width="6.893" stroke="rgb(33,33,33)" fill="none" stroke-linecap="round"></path><path d="M 305.000,208.000 C 302.790,212.641 302.422,212.459 300.000,217.000" stroke-width="7.119" stroke="rgb(33,33,33)" fill="none" stroke-linecap="round"></path><path d="M 300.000,217.000 C 298.422,219.959 298.343,219.930 297.000,223.000" stroke-width="7.716" stroke="rgb(33,33,33)" fill="none" stroke-linecap="round"></path><path d="M 297.000,223.000 C 294.843,227.930 295.050,228.021 293.000,233.000" stroke-width="7.883" stroke="rgb(33,33,33)" fill="none" stroke-linecap="round"></path><path d="M 293.000,233.000 C 291.550,236.521 291.575,236.535 290.000,240.000" stroke-width="8.353" stroke="rgb(33,33,33)" fill="none" stroke-linecap="round"></path><path d="M 290.000,240.000 C 289.075,242.035 289.107,242.062 288.000,244.000" stroke-width="8.931" stroke="rgb(33,33,33)" fill="none" stroke-linecap="round"></path><path d="M 288.000,244.000 C 287.107,245.562 286.783,245.434 286.000,247.000" stroke-width="9.671" stroke="rgb(33,33,33)" fill="none" stroke-linecap="round"></path><path d="M 286.000,247.000 C 285.783,247.434 286.000,247.500 286.000,248.000" stroke-width="10.637" stroke="rgb(33,33,33)" fill="none" stroke-linecap="round"></path><path d="M 286.000,248.000 C 286.000,248.500 285.674,249.109 286.000,249.000" stroke-width="11.603" stroke="rgb(33,33,33)" fill="none" stroke-linecap="round"></path><path d="M 286.000,249.000 C 287.174,248.609 287.617,248.152 289.000,247.000" stroke-width="12.338" stroke="rgb(33,33,33)" fill="none" stroke-linecap="round"></path><path d="M 289.000,247.000 C 293.617,243.152 293.334,242.791 298.000,239.000" stroke-width="11.163" stroke="rgb(33,33,33)" fill="none" stroke-linecap="round"></path><path d="M 298.000,239.000 C 301.334,236.291 301.513,236.518 305.000,234.000" stroke-width="10.850" stroke="rgb(33,33,33)" fill="none" stroke-linecap="round"></path><path d="M 305.000,234.000 C 310.513,230.018 310.311,229.710 316.000,226.000" stroke-width="9.728" stroke="rgb(33,33,33)" fill="none" stroke-linecap="round"></path><path d="M 316.000,226.000 C 321.811,222.210 322.268,222.898 328.000,219.000" stroke-width="9.449" stroke="rgb(33,33,33)" fill="none" stroke-linecap="round"></path><path d="M 328.000,219.000 C 334.768,214.398 334.360,213.795 341.000,209.000" stroke-width="8.228" stroke="rgb(33,33,33)" fill="none" stroke-linecap="round"></path><path d="M 341.000,209.000 C 343.360,207.295 343.716,207.777 346.000,206.000" stroke-width="8.860" stroke="rgb(33,33,33)" fill="none" stroke-linecap="round"></path><path d="M 346.000,206.000 C 348.216,204.277 347.732,203.649 350.000,202.000" stroke-width="9.134" stroke="rgb(33,33,33)" fill="none" stroke-linecap="round"></path><path d="M 350.000,202.000 C 353.232,199.649 353.656,200.229 357.000,198.000" stroke-width="9.188" stroke="rgb(33,33,33)" fill="none" stroke-linecap="round"></path><path d="M 357.000,198.000 C 359.656,196.229 359.761,196.239 362.000,194.000" stroke-width="9.618" stroke="rgb(33,33,33)" fill="none" stroke-linecap="round"></path><path d="M 362.000,194.000 C 363.261,192.739 362.923,192.437 364.000,191.000" stroke-width="10.256" stroke="rgb(33,33,33)" fill="none" stroke-linecap="round"></path><path d="M 364.000,191.000 C 364.423,190.437 364.613,190.581 365.000,190.000" stroke-width="11.181" stroke="rgb(33,33,33)" fill="none" stroke-linecap="round"></path><path d="M 365.000,190.000 C 365.613,189.081 365.655,189.036 366.000,188.000" stroke-width="11.823" stroke="rgb(33,33,33)" fill="none" stroke-linecap="round"></path><path d="M 366.000,188.000 C 366.155,187.536 366.450,187.050 366.000,187.000" stroke-width="12.694" stroke="rgb(33,33,33)" fill="none" stroke-linecap="round"></path><path d="M 366.000,187.000 C 361.950,186.550 361.500,187.000 357.000,187.000" stroke-width="11.904" stroke="rgb(33,33,33)" fill="none" stroke-linecap="round"></path><path d="M 357.000,187.000 C 345.500,187.000 345.401,185.882 334.000,187.000" stroke-width="9.481" stroke="rgb(33,33,33)" fill="none" stroke-linecap="round"></path><path d="M 334.000,187.000 C 319.901,188.382 319.857,188.851 306.000,192.000" stroke-width="7.730" stroke="rgb(33,33,33)" fill="none" stroke-linecap="round"></path><path d="M 306.000,192.000 C 286.857,196.351 286.976,196.909 268.000,202.000" stroke-width="6.750" stroke="rgb(33,33,33)" fill="none" stroke-linecap="round"></path><path d="M 268.000,202.000 C 245.976,207.909 245.909,207.693 224.000,214.000" stroke-width="6.750" stroke="rgb(33,33,33)" fill="none" stroke-linecap="round"></path><path d="M 224.000,214.000 C 212.909,217.193 213.065,217.715 202.000,221.000" stroke-width="6.750" stroke="rgb(33,33,33)" fill="none" stroke-linecap="round"></path><path d="M 202.000,221.000 C 181.065,227.215 180.970,226.900 160.000,233.000" stroke-width="6.750" stroke="rgb(33,33,33)" fill="none" stroke-linecap="round"></path><path d="M 160.000,233.000 C 153.470,234.900 153.528,235.096 147.000,237.000" stroke-width="6.750" stroke="rgb(33,33,33)" fill="none" stroke-linecap="round"></path><path d="M 147.000,237.000 C 141.528,238.596 141.467,238.392 136.000,240.000" stroke-width="6.750" stroke="rgb(33,33,33)" fill="none" stroke-linecap="round"></path><path d="M 136.000,240.000 C 132.967,240.892 133.039,241.132 130.000,242.000" stroke-width="6.750" stroke="rgb(33,33,33)" fill="none" stroke-linecap="round"></path><path d="M 130.000,242.000 C 122.539,244.132 122.511,244.041 115.000,246.000" stroke-width="6.750" stroke="rgb(33,33,33)" fill="none" stroke-linecap="round"></path><path d="M 115.000,246.000 C 111.011,247.041 111.016,247.073 107.000,248.000" stroke-width="6.750" stroke="rgb(33,33,33)" fill="none" stroke-linecap="round"></path><path d="M 107.000,248.000 C 104.516,248.573 104.433,248.305 102.000,249.000" stroke-width="7.332" stroke="rgb(33,33,33)" fill="none" stroke-linecap="round"></path><path d="M 102.000,249.000 C 100.933,249.305 100.919,249.387 100.000,250.000" stroke-width="8.235" stroke="rgb(33,33,33)" fill="none" stroke-linecap="round"></path><path d="M 100.000,250.000 C 99.419,250.387 99.000,250.707 99.000,251.000" stroke-width="9.173" stroke="rgb(33,33,33)" fill="none" stroke-linecap="round"></path><path d="M 99.000,251.000 C 99.000,251.207 99.516,251.121 100.000,251.000" stroke-width="10.230" stroke="rgb(33,33,33)" fill="none" stroke-linecap="round"></path><path d="M 100.000,251.000 C 105.516,249.621 105.595,249.802 111.000,248.000" stroke-width="10.067" stroke="rgb(33,33,33)" fill="none" stroke-linecap="round"></path><path d="M 111.000,248.000 C 123.595,243.802 123.399,243.200 136.000,239.000" stroke-width="7.514" stroke="rgb(33,33,33)" fill="none" stroke-linecap="round"></path><path d="M 136.000,239.000 C 153.399,233.200 153.642,233.922 171.000,228.000" stroke-width="6.750" stroke="rgb(33,33,33)" fill="none" stroke-linecap="round"></path><path d="M 171.000,228.000 C 196.142,219.422 195.911,218.746 221.000,210.000" stroke-width="6.750" stroke="rgb(33,33,33)" fill="none" stroke-linecap="round"></path><path d="M 221.000,210.000 C 250.411,199.746 250.450,199.850 280.000,190.000" stroke-width="6.750" stroke="rgb(33,33,33)" fill="none" stroke-linecap="round"></path><path d="M 280.000,190.000 C 311.950,179.350 312.129,179.877 344.000,169.000" stroke-width="6.750" stroke="rgb(33,33,33)" fill="none" stroke-linecap="round"></path><path d="M 344.000,169.000 C 375.129,158.377 374.910,157.733 406.000,147.000" stroke-width="6.750" stroke="rgb(33,33,33)" fill="none" stroke-linecap="round"></path><path d="M 406.000,147.000 C 416.910,143.233 417.110,143.811 428.000,140.000" stroke-width="6.750" stroke="rgb(33,33,33)" fill="none" stroke-linecap="round"></path><path d="M 428.000,140.000 C 437.110,136.811 436.972,136.425 446.000,133.000" stroke-width="6.750" stroke="rgb(33,33,33)" fill="none" stroke-linecap="round"></path><path d="M 446.000,133.000 C 451.472,130.925 451.548,131.120 457.000,129.000" stroke-width="6.750" stroke="rgb(33,33,33)" fill="none" stroke-linecap="round"></path><path d="M 457.000,129.000 C 460.548,127.620 460.476,127.442 464.000,126.000" stroke-width="6.750" stroke="rgb(33,33,33)" fill="none" stroke-linecap="round"></path><path d="M 464.000,126.000 C 471.476,122.942 471.598,123.218 479.000,120.000" stroke-width="6.750" stroke="rgb(33,33,33)" fill="none" stroke-linecap="round"></path><path d="M 479.000,120.000 C 483.098,118.218 483.065,118.119 487.000,116.000" stroke-width="6.750" stroke="rgb(33,33,33)" fill="none" stroke-linecap="round"></path><path d="M 487.000,116.000 C 489.565,114.619 489.577,114.615 492.000,113.000" stroke-width="6.750" stroke="rgb(33,33,33)" fill="none" stroke-linecap="round"></path><path d="M 492.000,113.000 C 494.077,111.615 494.000,111.500 496.000,110.000" stroke-width="6.757" stroke="rgb(33,33,33)" fill="none" stroke-linecap="round"></path><path d="M 496.000,110.000 C 496.000,110.000 496.000,110.000 496.000,110.000" stroke-width="7.796" stroke="rgb(33,33,33)" fill="none" stroke-linecap="round"></path><path d="M 496.000,110.000 C 490.000,110.000 490.000,110.000 484.000,110.000" stroke-width="7.855" stroke="rgb(33,33,33)" fill="none" stroke-linecap="round"></path><path d="M 484.000,110.000 C 473.000,110.000 472.812,108.427 462.000,110.000" stroke-width="7.360" stroke="rgb(33,33,33)" fill="none" stroke-linecap="round"></path><path d="M 462.000,110.000 C 445.312,112.427 445.358,113.480 429.000,118.000" stroke-width="6.750" stroke="rgb(33,33,33)" fill="none" stroke-linecap="round"></path><path d="M 429.000,118.000 C 407.358,123.980 407.277,123.833 386.000,131.000" stroke-width="6.750" stroke="rgb(33,33,33)" fill="none" stroke-linecap="round"></path><path d="M 386.000,131.000 C 359.777,139.833 359.897,140.227 334.000,150.000" stroke-width="6.750" stroke="rgb(33,33,33)" fill="none" stroke-linecap="round"></path><path d="M 334.000,150.000 C 306.897,160.227 306.895,160.242 280.000,171.000" stroke-width="6.750" stroke="rgb(33,33,33)" fill="none" stroke-linecap="round"></path><path d="M 280.000,171.000 C 266.895,176.242 267.175,176.947 254.000,182.000" stroke-width="6.750" stroke="rgb(33,33,33)" fill="none" stroke-linecap="round"></path><path d="M 254.000,182.000 C 230.675,190.947 230.557,190.664 207.000,199.000" stroke-width="6.750" stroke="rgb(33,33,33)" fill="none" stroke-linecap="round"></path><path d="M 207.000,199.000 C 198.057,202.164 197.965,201.897 189.000,205.000" stroke-width="6.750" stroke="rgb(33,33,33)" fill="none" stroke-linecap="round"></path><path d="M 189.000,205.000 C 171.965,210.897 172.091,211.303 155.000,217.000" stroke-width="6.750" stroke="rgb(33,33,33)" fill="none" stroke-linecap="round"></path><path d="M 155.000,217.000 C 151.091,218.303 150.962,217.868 147.000,219.000" stroke-width="6.750" stroke="rgb(33,33,33)" fill="none" stroke-linecap="round"></path><path d="M 147.000,219.000 C 143.962,219.868 144.028,220.092 141.000,221.000" stroke-width="6.750" stroke="rgb(33,33,33)" fill="none" stroke-linecap="round"></path><path d="M 141.000,221.000 C 134.028,223.092 134.000,223.000 127.000,225.000" stroke-width="6.750" stroke="rgb(33,33,33)" fill="none" stroke-linecap="round"></path><path d="M 127.000,225.000 C 123.500,226.000 123.449,225.850 120.000,227.000" stroke-width="6.750" stroke="rgb(33,33,33)" fill="none" stroke-linecap="round"></path><path d="M 120.000,227.000 C 117.449,227.850 117.473,227.940 115.000,229.000" stroke-width="6.750" stroke="rgb(33,33,33)" fill="none" stroke-linecap="round"></path><path d="M 115.000,229.000 C 113.973,229.440 114.000,229.500 113.000,230.000" stroke-width="7.363" stroke="rgb(33,33,33)" fill="none" stroke-linecap="round"></path><path d="M 113.000,230.000 C 115.000,230.000 115.000,230.000 117.000,230.000" stroke-width="12.100" stroke="rgb(33,33,33)" fill="none" stroke-linecap="round"></path><path d="M 117.000,230.000 C 123.000,230.000 123.000,230.000 129.000,230.000" stroke-width="11.216" stroke="rgb(33,33,33)" fill="none" stroke-linecap="round"></path><path d="M 129.000,230.000 C 137.000,230.000 137.058,230.794 145.000,230.000" stroke-width="9.636" stroke="rgb(33,33,33)" fill="none" stroke-linecap="round"></path><path d="M 145.000,230.000 C 162.058,228.294 162.127,228.179 179.000,225.000" stroke-width="7.390" stroke="rgb(33,33,33)" fill="none" stroke-linecap="round"></path><path d="M 179.000,225.000 C 196.627,221.679 196.425,220.644 214.000,217.000" stroke-width="6.750" stroke="rgb(33,33,33)" fill="none" stroke-linecap="round"></path><path d="M 214.000,217.000 C 237.425,212.144 237.609,213.012 261.000,208.000" stroke-width="6.750" stroke="rgb(33,33,33)" fill="none" stroke-linecap="round"></path><path d="M 261.000,208.000 C 286.609,202.512 286.439,201.718 312.000,196.000" stroke-width="6.750" stroke="rgb(33,33,33)" fill="none" stroke-linecap="round"></path><path d="M 312.000,196.000 C 324.439,193.218 324.557,193.765 337.000,191.000" stroke-width="6.750" stroke="rgb(33,33,33)" fill="none" stroke-linecap="round"></path><path d="M 337.000,191.000 C 360.557,185.765 360.556,185.731 384.000,180.000" stroke-width="6.750" stroke="rgb(33,33,33)" fill="none" stroke-linecap="round"></path><path d="M 384.000,180.000 C 405.556,174.731 405.486,174.446 427.000,169.000" stroke-width="6.750" stroke="rgb(33,33,33)" fill="none" stroke-linecap="round"></path><path d="M 427.000,169.000 C 444.986,164.446 444.960,164.329 463.000,160.000" stroke-width="6.750" stroke="rgb(33,33,33)" fill="none" stroke-linecap="round"></path><path d="M 463.000,160.000 C 469.960,158.329 470.037,158.658 477.000,157.000" stroke-width="6.750" stroke="rgb(33,33,33)" fill="none" stroke-linecap="round"></path><path d="M 477.000,157.000 C 491.037,153.658 490.954,153.305 505.000,150.000" stroke-width="6.750" stroke="rgb(33,33,33)" fill="none" stroke-linecap="round"></path><path d="M 505.000,150.000 C 516.454,147.305 516.607,147.914 528.000,145.000" stroke-width="6.750" stroke="rgb(33,33,33)" fill="none" stroke-linecap="round"></path><path d="M 528.000,145.000 C 538.107,142.414 537.915,141.615 548.000,139.000" stroke-width="6.750" stroke="rgb(33,33,33)" fill="none" stroke-linecap="round"></path><path d="M 548.000,139.000 C 551.415,138.115 551.558,138.782 555.000,138.000" stroke-width="6.750" stroke="rgb(33,33,33)" fill="none" stroke-linecap="round"></path></svg>