<svg xmlns="http://www.w3.org/2000/svg" xmlns:xlink="http://www.w3.org/1999/xlink" viewBox="0 0 320 500"><path d="M 81.000,192.500 C 78.500,192.000 78.525,191.752 76.000,191.500" stroke-width="19.982" stroke="rgb(33,33,33)" fill="none" stroke-linecap="round"></path><path d="M 76.000,191.500 C 73.525,191.252 73.481,191.274 71.000,191.500" stroke-width="18.991" stroke="rgb(33,33,33)" fill="none" stroke-linecap="round"></path><path d="M 71.000,191.500 C 67.981,191.774 67.834,191.488 65.000,192.500" stroke-width="18.128" stroke="rgb(33,33,33)" fill="none" stroke-linecap="round"></path><path d="M 65.000,192.500 C 60.834,193.988 60.823,194.206 57.000,196.500" stroke-width="16.295" stroke="rgb(33,33,33)" fill="none" stroke-linecap="round"></path><path d="M 57.000,196.500 C 53.323,198.706 53.577,199.115 50.000,201.500" stroke-width="15.762" stroke="rgb(33,33,33)" fill="none" stroke-linecap="round"></path><path d="M 50.000,201.500 C 46.077,204.115 45.967,203.950 42.000,206.500" stroke-width="14.960" stroke="rgb(33,33,33)" fill="none" stroke-linecap="round"></path><path d="M 42.000,206.500 C 38.967,208.450 38.500,208.000 36.000,210.500" stroke-width="14.857" stroke="rgb(33,33,33)" fill="none" stroke-linecap="round"></path><path d="M 36.000,210.500 C 33.500,213.000 33.702,213.339 32.000,216.500" stroke-width="14.725" stroke="rgb(33,33,33)" fill="none" stroke-linecap="round"></path><path d="M 32.000,216.500 C 30.202,219.839 29.782,219.853 29.000,223.500" stroke-width="14.571" stroke="rgb(33,33,33)" fill="none" stroke-linecap="round"></path><path d="M 29.000,223.500 C 28.282,226.853 29.000,227.000 29.000,230.500" stroke-width="14.471" stroke="rgb(33,33,33)" fill="none" stroke-linecap="round"></path><path d="M 29.000,230.500 C 29.000,235.000 28.231,235.140 29.000,239.500" stroke-width="14.207" stroke="rgb(33,33,33)" fill="none" stroke-linecap="round"></path><path d="M 29.000,239.500 C 29.731,243.640 29.858,243.859 32.000,247.500" stroke-width="13.994" stroke="rgb(33,33,33)" fill="none" stroke-linecap="round"></path><path d="M 32.000,247.500 C 34.858,252.359 35.253,252.218 39.000,256.500" stroke-width="13.574" stroke="rgb(33,33,33)" fill="none" stroke-linecap="round"></path><path d="M 39.000,256.500 C 42.253,260.218 41.990,260.743 46.000,263.500" stroke-width="13.411" stroke="rgb(33,33,33)" fill="none" stroke-linecap="round"></path><path d="M 46.000,263.500 C 49.990,266.243 50.388,265.801 55.000,267.500" stroke-width="13.289" stroke="rgb(33,33,33)" fill="none" stroke-linecap="round"></path><path d="M 55.000,267.500 C 59.888,269.301 59.930,269.293 65.000,270.500" stroke-width="13.068" stroke="rgb(33,33,33)" fill="none" stroke-linecap="round"></path><path d="M 65.000,270.500 C 70.430,271.793 70.467,271.745 76.000,272.500" stroke-width="12.746" stroke="rgb(33,33,33)" fill="none" stroke-linecap="round"></path><path d="M 76.000,272.500 C 81.467,273.245 81.502,272.976 87.000,273.500" stroke-width="12.706" stroke="rgb(33,33,33)" fill="none" stroke-linecap="round"></path><path d="M 87.000,273.500 C 92.002,273.976 92.003,273.974 97.000,274.500" stroke-width="12.710" stroke="rgb(33,33,33)" fill="none" stroke-linecap="round"></path><path d="M 97.000,274.500 C 101.503,274.974 101.500,275.000 106.000,275.500" stroke-width="12.808" stroke="rgb(33,33,33)" fill="none" stroke-linecap="round"></path><path d="M 106.000,275.500 C 110.500,276.000 110.584,275.617 115.000,276.500" stroke-width="12.832" stroke="rgb(33,33,33)" fill="none" stroke-linecap="round"></path><path d="M 115.000,276.500 C 118.084,277.117 117.942,277.735 121.000,278.500" stroke-width="13.176" stroke="rgb(33,33,33)" fill="none" stroke-linecap="round"></path><path d="M 121.000,278.500 C 123.942,279.235 124.083,278.704 127.000,279.500" stroke-width="13.491" stroke="rgb(33,33,33)" fill="none" stroke-linecap="round"></path><path d="M 127.000,279.500 C 129.583,280.204 129.926,279.944 132.000,281.500" stroke-width="14.024" stroke="rgb(33,33,33)" fill="none" stroke-linecap="round"></path><path d="M 132.000,281.500 C 133.926,282.944 133.904,283.308 135.000,285.500" stroke-width="13.916" stroke="rgb(33,33,33)" fill="none" stroke-linecap="round"></path><path d="M 135.000,285.500 C 135.904,287.308 135.830,287.459 136.000,289.500" stroke-width="14.270" stroke="rgb(33,33,33)" fill="none" stroke-linecap="round"></path><path d="M 136.000,289.500 C 136.330,293.459 136.768,293.658 136.000,297.500" stroke-width="14.167" stroke="rgb(33,33,33)" fill="none" stroke-linecap="round"></path><path d="M 136.000,297.500 C 135.268,301.158 135.246,301.505 133.000,304.500" stroke-width="14.130" stroke="rgb(33,33,33)" fill="none" stroke-linecap="round"></path><path d="M 133.000,304.500 C 129.246,309.505 128.958,309.586 124.000,313.500" stroke-width="13.356" stroke="rgb(33,33,33)" fill="none" stroke-linecap="round"></path><path d="M 124.000,313.500 C 119.458,317.086 119.199,316.901 114.000,319.500" stroke-width="13.128" stroke="rgb(33,33,33)" fill="none" stroke-linecap="round"></path><path d="M 114.000,319.500 C 109.199,321.901 109.000,321.500 104.000,323.500" stroke-width="12.836" stroke="rgb(33,33,33)" fill="none" stroke-linecap="round"></path><path d="M 104.000,323.500 C 99.000,325.500 99.147,326.070 94.000,327.500" stroke-width="12.802" stroke="rgb(33,33,33)" fill="none" stroke-linecap="round"></path><path d="M 94.000,327.500 C 90.147,328.570 90.013,328.213 86.000,328.500" stroke-width="12.874" stroke="rgb(33,33,33)" fill="none" stroke-linecap="round"></path><path d="M 86.000,328.500 C 83.013,328.713 83.000,328.500 80.000,328.500" stroke-width="13.279" stroke="rgb(33,33,33)" fill="none" stroke-linecap="round"></path><path d="M 80.000,328.500 C 77.000,328.500 76.455,329.591 74.000,328.500" stroke-width="13.585" stroke="rgb(33,33,33)" fill="none" stroke-linecap="round"></path><path d="M 74.000,328.500 C 71.955,327.591 71.469,326.844 71.000,324.500" stroke-width="13.953" stroke="rgb(33,33,33)" fill="none" stroke-linecap="round"></path><path d="M 71.000,324.500 C 69.969,319.344 71.000,319.000 71.000,313.500" stroke-width="13.513" stroke="rgb(33,33,33)" fill="none" stroke-linecap="round"></path><path d="M 71.000,313.500 C 71.000,307.000 70.057,306.868 71.000,300.500" stroke-width="13.050" stroke="rgb(33,33,33)" fill="none" stroke-linecap="round"></path><path d="M 71.000,300.500 C 72.057,293.368 72.349,293.247 75.000,286.500" stroke-width="12.474" stroke="rgb(33,33,33)" fill="none" stroke-linecap="round"></path><path d="M 75.000,286.500 C 77.849,279.247 78.222,279.347 82.000,272.500" stroke-width="12.033" stroke="rgb(33,33,33)" fill="none" stroke-linecap="round"></path><path d="M 82.000,272.500 C 86.222,264.847 86.034,264.672 91.000,257.500" stroke-width="11.558" stroke="rgb(33,33,33)" fill="none" stroke-linecap="round"></path><path d="M 91.000,257.500 C 95.034,251.672 95.430,251.941 100.000,246.500" stroke-width="11.381" stroke="rgb(33,33,33)" fill="none" stroke-linecap="round"></path><path d="M 100.000,246.500 C 105.930,239.441 106.000,239.500 112.000,232.500" stroke-width="11.003" stroke="rgb(33,33,33)" fill="none" stroke-linecap="round"></path><path d="M 112.000,232.500 C 118.000,225.500 117.980,225.483 124.000,218.500" stroke-width="10.719" stroke="rgb(33,33,33)" fill="none" stroke-linecap="round"></path><path d="M 124.000,218.500 C 130.480,210.983 130.099,210.617 137.000,203.500" stroke-width="10.412" stroke="rgb(33,33,33)" fill="none" stroke-linecap="round"></path><path d="M 137.000,203.500 C 146.099,194.117 146.512,194.513 156.000,185.500" stroke-width="9.721" stroke="rgb(33,33,33)" fill="none" stroke-linecap="round"></path><path d="M 156.000,185.500 C 166.512,175.513 166.375,175.366 177.000,165.500" stroke-width="8.987" stroke="rgb(33,33,33)" fill="none" stroke-linecap="round"></path><path d="M 177.000,165.500 C 187.375,155.866 187.616,156.125 198.000,146.500" stroke-width="8.802" stroke="rgb(33,33,33)" fill="none" stroke-linecap="round"></path><path d="M 198.000,146.500 C 208.116,137.125 207.582,136.510 218.000,127.500" stroke-width="8.489" stroke="rgb(33,33,33)" fill="none" stroke-linecap="round"></path><path d="M 218.000,127.500 C 226.082,120.510 226.646,121.183 235.000,114.500" stroke-width="8.580" stroke="rgb(33,33,33)" fill="none" stroke-linecap="round"></path><path d="M 235.000,114.500 C 244.146,107.183 243.774,106.708 253.000,99.500" stroke-width="8.505" stroke="rgb(33,33,33)" fill="none" stroke-linecap="round"></path><path d="M 253.000,99.500 C 259.774,94.208 259.896,94.344 267.000,89.500" stroke-width="8.820" stroke="rgb(33,33,33)" fill="none" stroke-linecap="round"></path><path d="M 267.000,89.500 C 270.896,86.844 271.021,87.032 275.000,84.500" stroke-width="9.364" stroke="rgb(33,33,33)" fill="none" stroke-linecap="round"></path><path d="M 275.000,84.500 C 276.521,83.532 276.826,83.674 278.000,82.500" stroke-width="10.253" stroke="rgb(33,33,33)" fill="none" stroke-linecap="round"></path><path d="M 278.000,82.500 C 278.326,82.174 278.250,81.750 278.000,81.500" stroke-width="11.313" stroke="rgb(33,33,33)" fill="none" stroke-linecap="round"></path><path d="M 278.000,81.500 C 277.750,81.250 277.500,81.500 277.000,81.500" stroke-width="12.379" stroke="rgb(33,33,33)" fill="none" stroke-linecap="round"></path><path d="M 277.000,81.500 C 276.500,81.500 276.500,81.500 276.000,81.500" stroke-width="13.296" stroke="rgb(33,33,33)" fill="none" stroke-linecap="round"></path><path d="M 276.000,81.500 C 275.500,81.500 275.500,81.500 275.000,81.500" stroke-width="14.190" stroke="rgb(33,33,33)" fill="none" stroke-linecap="round"></path><path d="M 104.000,184.500 C 102.500,186.500 101.944,186.235 101.000,188.500" stroke-width="19.370" stroke="rgb(33,33,33)" fill="none" stroke-linecap="round"></path><path d="M 101.000,188.500 C 99.444,192.235 99.641,192.439 99.000,196.500" stroke-width="17.070" stroke="rgb(33,33,33)" fill="none" stroke-linecap="round"></path><path d="M 99.000,196.500 C 98.141,201.939 98.459,201.997 98.000,207.500" stroke-width="16.264" stroke="rgb(33,33,33)" fill="none" stroke-linecap="round"></path><path d="M 98.000,207.500 C 97.459,213.997 97.217,213.989 97.000,220.500" stroke-width="15.006" stroke="rgb(33,33,33)" fill="none" stroke-linecap="round"></path><path d="M 97.000,220.500 C 96.717,228.989 97.000,229.000 97.000,237.500" stroke-width="13.301" stroke="rgb(33,33,33)" fill="none" stroke-linecap="round"></path><path d="M 97.000,237.500 C 97.000,244.000 97.000,244.000 97.000,250.500" stroke-width="13.227" stroke="rgb(33,33,33)" fill="none" stroke-linecap="round"></path><path d="M 97.000,250.500 C 97.000,257.000 97.000,257.000 97.000,263.500" stroke-width="13.168" stroke="rgb(33,33,33)" fill="none" stroke-linecap="round"></path><path d="M 97.000,263.500 C 97.000,267.500 97.305,267.530 97.000,271.500" stroke-width="9.080" stroke="rgb(33,33,33)" fill="none" stroke-linecap="round"></path><path d="M 97.000,271.500 C 96.805,274.030 96.359,273.986 96.000,276.500" stroke-width="9.867" stroke="rgb(33,33,33)" fill="none" stroke-linecap="round"></path><path d="M 96.000,276.500 C 95.859,277.486 96.333,277.833 96.000,278.500" stroke-width="10.892" stroke="rgb(33,33,33)" fill="none" stroke-linecap="round"></path><path d="M 96.000,278.500 C 95.833,278.833 95.309,278.809 95.000,278.500" stroke-width="11.884" stroke="rgb(33,33,33)" fill="none" stroke-linecap="round"></path><path d="M 95.000,278.500 C 94.309,277.809 94.157,277.596 94.000,276.500" stroke-width="12.712" stroke="rgb(33,33,33)" fill="none" stroke-linecap="round"></path><path d="M 94.000,276.500 C 93.157,270.596 93.194,270.513 93.000,264.500" stroke-width="12.592" stroke="rgb(33,33,33)" fill="none" stroke-linecap="round"></path><path d="M 93.000,264.500 C 92.694,255.013 93.000,255.000 93.000,245.500" stroke-width="11.746" stroke="rgb(33,33,33)" fill="none" stroke-linecap="round"></path><path d="M 93.000,245.500 C 93.000,233.500 92.733,233.494 93.000,221.500" stroke-width="10.970" stroke="rgb(33,33,33)" fill="none" stroke-linecap="round"></path><path d="M 93.000,221.500 C 93.233,210.994 92.810,210.910 94.000,200.500" stroke-width="10.347" stroke="rgb(33,33,33)" fill="none" stroke-linecap="round"></path><path d="M 94.000,200.500 C 94.810,193.410 95.479,193.495 97.000,186.500" stroke-width="10.470" stroke="rgb(33,33,33)" fill="none" stroke-linecap="round"></path><path d="M 97.000,186.500 C 97.979,181.995 97.553,181.841 99.000,177.500" stroke-width="10.912" stroke="rgb(33,33,33)" fill="none" stroke-linecap="round"></path><path d="M 99.000,177.500 C 100.053,174.341 100.500,174.500 102.000,171.500" stroke-width="11.451" stroke="rgb(33,33,33)" fill="none" stroke-linecap="round"></path><path d="M 102.000,171.500 C 103.000,169.500 102.893,169.438 104.000,167.500" stroke-width="12.166" stroke="rgb(33,33,33)" fill="none" stroke-linecap="round"></path><path d="M 104.000,167.500 C 104.893,165.938 104.923,165.937 106.000,164.500" stroke-width="12.866" stroke="rgb(33,33,33)" fill="none" stroke-linecap="round"></path><path d="M 106.000,164.500 C 106.423,163.937 106.414,163.793 107.000,163.500" stroke-width="13.701" stroke="rgb(33,33,33)" fill="none" stroke-linecap="round"></path><path d="M 107.000,163.500 C 107.414,163.293 107.566,163.283 108.000,163.500" stroke-width="14.531" stroke="rgb(33,33,33)" fill="none" stroke-linecap="round"></path><path d="M 108.000,163.500 C 109.566,164.283 110.110,164.016 111.000,165.500" stroke-width="14.920" stroke="rgb(33,33,33)" fill="none" stroke-linecap="round"></path><path d="M 111.000,165.500 C 113.110,169.016 112.650,169.449 114.000,173.500" stroke-width="14.541" stroke="rgb(33,33,33)" fill="none" stroke-linecap="round"></path><path d="M 114.000,173.500 C 116.150,179.949 115.397,180.254 118.000,186.500" stroke-width="13.821" stroke="rgb(33,33,33)" fill="none" stroke-linecap="round"></path><path d="M 118.000,186.500 C 120.397,192.254 121.200,191.900 124.000,197.500" stroke-width="13.246" stroke="rgb(33,33,33)" fill="none" stroke-linecap="round"></path><path d="M 124.000,197.500 C 126.700,202.900 126.079,203.243 129.000,208.500" stroke-width="12.865" stroke="rgb(33,33,33)" fill="none" stroke-linecap="round"></path><path d="M 129.000,208.500 C 131.079,212.243 131.420,212.060 134.000,215.500" stroke-width="12.925" stroke="rgb(33,33,33)" fill="none" stroke-linecap="round"></path><path d="M 134.000,215.500 C 135.920,218.060 135.776,218.276 138.000,220.500" stroke-width="13.282" stroke="rgb(33,33,33)" fill="none" stroke-linecap="round"></path><path d="M 138.000,220.500 C 138.776,221.276 139.117,220.838 140.000,221.500" stroke-width="14.004" stroke="rgb(33,33,33)" fill="none" stroke-linecap="round"></path><path d="M 140.000,221.500 C 141.117,222.338 140.892,222.761 142.000,223.500" stroke-width="14.521" stroke="rgb(33,33,33)" fill="none" stroke-linecap="round"></path><path d="M 142.000,223.500 C 142.392,223.761 142.500,223.500 143.000,223.500" stroke-width="15.256" stroke="rgb(33,33,33)" fill="none" stroke-linecap="round"></path><path d="M 143.000,223.500 C 143.500,223.500 143.944,223.944 144.000,223.500" stroke-width="15.907" stroke="rgb(33,33,33)" fill="none" stroke-linecap="round"></path><path d="M 144.000,223.500 C 144.444,219.944 144.000,219.500 144.000,215.500" stroke-width="15.965" stroke="rgb(33,33,33)" fill="none" stroke-linecap="round"></path><path d="M 144.000,215.500 C 144.000,211.000 144.000,211.000 144.000,206.500" stroke-width="15.403" stroke="rgb(33,33,33)" fill="none" stroke-linecap="round"></path><path d="M 144.000,206.500 C 144.000,200.500 144.477,200.464 144.000,194.500" stroke-width="14.344" stroke="rgb(33,33,33)" fill="none" stroke-linecap="round"></path><path d="M 144.000,194.500 C 143.477,187.964 142.726,188.031 142.000,181.500" stroke-width="13.644" stroke="rgb(33,33,33)" fill="none" stroke-linecap="round"></path><path d="M 142.000,181.500 C 141.226,174.531 141.538,174.497 141.000,167.500" stroke-width="13.121" stroke="rgb(33,33,33)" fill="none" stroke-linecap="round"></path><path d="M 141.000,167.500 C 140.538,161.497 140.571,161.493 140.000,155.500" stroke-width="12.695" stroke="rgb(33,33,33)" fill="none" stroke-linecap="round"></path><path d="M 140.000,155.500 C 139.571,150.993 139.785,150.949 139.000,146.500" stroke-width="12.843" stroke="rgb(33,33,33)" fill="none" stroke-linecap="round"></path><path d="M 139.000,146.500 C 138.285,142.449 137.863,142.528 137.000,138.500" stroke-width="12.994" stroke="rgb(33,33,33)" fill="none" stroke-linecap="round"></path><path d="M 137.000,138.500 C 136.363,135.528 136.544,135.492 136.000,132.500" stroke-width="13.254" stroke="rgb(33,33,33)" fill="none" stroke-linecap="round"></path><path d="M 136.000,132.500 C 135.544,129.992 135.617,129.969 135.000,127.500" stroke-width="13.692" stroke="rgb(33,33,33)" fill="none" stroke-linecap="round"></path><path d="M 135.000,127.500 C 134.617,125.969 134.257,126.040 134.000,124.500" stroke-width="14.378" stroke="rgb(33,33,33)" fill="none" stroke-linecap="round"></path><path d="M 134.000,124.500 C 133.757,123.040 134.000,123.000 134.000,121.500" stroke-width="14.533" stroke="rgb(33,33,33)" fill="none" stroke-linecap="round"></path><path d="M 134.000,121.500 C 134.000,120.000 133.789,119.974 134.000,118.500" stroke-width="15.041" stroke="rgb(33,33,33)" fill="none" stroke-linecap="round"></path><path d="M 154.000,135.500 C 149.500,139.500 149.042,139.121 145.000,143.500" stroke-width="19.127" stroke="rgb(33,33,33)" fill="none" stroke-linecap="round"></path><path d="M 145.000,143.500 C 143.042,145.621 142.739,145.789 142.000,148.500" stroke-width="18.152" stroke="rgb(33,33,33)" fill="none" stroke-linecap="round"></path><path d="M 142.000,148.500 C 141.239,151.289 142.000,151.500 142.000,154.500" stroke-width="17.470" stroke="rgb(33,33,33)" fill="none" stroke-linecap="round"></path><path d="M 142.000,154.500 C 142.000,158.500 142.000,158.500 142.000,162.500" stroke-width="16.310" stroke="rgb(33,33,33)" fill="none" stroke-linecap="round"></path><path d="M 142.000,162.500 C 142.000,167.500 141.452,167.567 142.000,172.500" stroke-width="15.525" stroke="rgb(33,33,33)" fill="none" stroke-linecap="round"></path><path d="M 142.000,172.500 C 142.452,176.567 142.400,176.766 144.000,180.500" stroke-width="15.038" stroke="rgb(33,33,33)" fill="none" stroke-linecap="round"></path><path d="M 144.000,180.500 C 145.400,183.766 145.638,183.843 148.000,186.500" stroke-width="14.918" stroke="rgb(33,33,33)" fill="none" stroke-linecap="round"></path><path d="M 148.000,186.500 C 149.638,188.343 149.808,188.404 152.000,189.500" stroke-width="14.971" stroke="rgb(33,33,33)" fill="none" stroke-linecap="round"></path><path d="M 152.000,189.500 C 153.808,190.404 153.970,190.246 156.000,190.500" stroke-width="15.184" stroke="rgb(33,33,33)" fill="none" stroke-linecap="round"></path><path d="M 156.000,190.500 C 157.970,190.746 158.132,191.060 160.000,190.500" stroke-width="15.412" stroke="rgb(33,33,33)" fill="none" stroke-linecap="round"></path><path d="M 160.000,190.500 C 163.132,189.560 163.857,189.857 166.000,187.500" stroke-width="15.225" stroke="rgb(33,33,33)" fill="none" stroke-linecap="round"></path><path d="M 166.000,187.500 C 168.857,184.357 167.737,183.347 170.000,179.500" stroke-width="14.789" stroke="rgb(33,33,33)" fill="none" stroke-linecap="round"></path><path d="M 170.000,179.500 C 172.737,174.847 173.869,175.402 176.000,170.500" stroke-width="14.155" stroke="rgb(33,33,33)" fill="none" stroke-linecap="round"></path><path d="M 176.000,170.500 C 178.869,163.902 178.064,163.518 180.000,156.500" stroke-width="13.359" stroke="rgb(33,33,33)" fill="none" stroke-linecap="round"></path><path d="M 180.000,156.500 C 182.064,149.018 182.784,149.103 184.000,141.500" stroke-width="12.603" stroke="rgb(33,33,33)" fill="none" stroke-linecap="round"></path><path d="M 184.000,141.500 C 184.784,136.603 184.000,136.500 184.000,131.500" stroke-width="12.731" stroke="rgb(33,33,33)" fill="none" stroke-linecap="round"></path><path d="M 184.000,131.500 C 184.000,128.000 185.045,127.634 184.000,124.500" stroke-width="12.981" stroke="rgb(33,33,33)" fill="none" stroke-linecap="round"></path><path d="M 184.000,124.500 C 183.045,121.634 182.759,120.420 180.000,119.500" stroke-width="13.252" stroke="rgb(33,33,33)" fill="none" stroke-linecap="round"></path><path d="M 180.000,119.500 C 175.259,117.920 174.500,119.500 169.000,119.500" stroke-width="13.165" stroke="rgb(33,33,33)" fill="none" stroke-linecap="round"></path><path d="M 169.000,119.500 C 164.000,119.500 163.892,118.766 159.000,119.500" stroke-width="13.080" stroke="rgb(33,33,33)" fill="none" stroke-linecap="round"></path><path d="M 159.000,119.500 C 153.892,120.266 153.666,120.290 149.000,122.500" stroke-width="12.754" stroke="rgb(33,33,33)" fill="none" stroke-linecap="round"></path><path d="M 149.000,122.500 C 144.166,124.790 144.268,125.217 140.000,128.500" stroke-width="12.677" stroke="rgb(33,33,33)" fill="none" stroke-linecap="round"></path><path d="M 140.000,128.500 C 137.768,130.217 137.062,130.111 136.000,132.500" stroke-width="13.036" stroke="rgb(33,33,33)" fill="none" stroke-linecap="round"></path><path d="M 136.000,132.500 C 135.062,134.611 135.809,135.012 136.000,137.500" stroke-width="13.542" stroke="rgb(33,33,33)" fill="none" stroke-linecap="round"></path><path d="M 136.000,137.500 C 136.309,141.512 134.645,142.931 137.000,145.500" stroke-width="13.580" stroke="rgb(33,33,33)" fill="none" stroke-linecap="round"></path><path d="M 137.000,145.500 C 140.145,148.931 141.807,148.320 147.000,149.500" stroke-width="13.326" stroke="rgb(33,33,33)" fill="none" stroke-linecap="round"></path><path d="M 147.000,149.500 C 152.807,150.820 152.990,150.250 159.000,150.500" stroke-width="12.847" stroke="rgb(33,33,33)" fill="none" stroke-linecap="round"></path><path d="M 159.000,150.500 C 164.990,150.750 165.033,150.959 171.000,150.500" stroke-width="12.570" stroke="rgb(33,33,33)" fill="none" stroke-linecap="round"></path><path d="M 171.000,150.500 C 178.033,149.959 178.644,150.921 185.000,148.500" stroke-width="12.303" stroke="rgb(33,33,33)" fill="none" stroke-linecap="round"></path><path d="M 185.000,148.500 C 189.144,146.921 188.882,145.858 192.000,142.500" stroke-width="12.460" stroke="rgb(33,33,33)" fill="none" stroke-linecap="round"></path><path d="M 192.000,142.500 C 195.382,138.858 195.157,138.606 198.000,134.500" stroke-width="12.397" stroke="rgb(33,33,33)" fill="none" stroke-linecap="round"></path><path d="M 198.000,134.500 C 199.657,132.106 200.021,132.192 201.000,129.500" stroke-width="12.885" stroke="rgb(33,33,33)" fill="none" stroke-linecap="round"></path><path d="M 201.000,129.500 C 202.021,126.692 201.768,126.522 202.000,123.500" stroke-width="13.207" stroke="rgb(33,33,33)" fill="none" stroke-linecap="round"></path><path d="M 202.000,123.500 C 202.268,120.022 203.532,119.053 202.000,116.500" stroke-width="13.420" stroke="rgb(33,33,33)" fill="none" stroke-linecap="round"></path><path d="M 202.000,116.500 C 200.532,114.053 199.192,114.351 196.000,113.500" stroke-width="13.666" stroke="rgb(33,33,33)" fill="none" stroke-linecap="round"></path><path d="M 196.000,113.500 C 191.692,112.351 191.511,112.801 187.000,112.500" stroke-width="13.513" stroke="rgb(33,33,33)" fill="none" stroke-linecap="round"></path><path d="M 187.000,112.500 C 184.011,112.301 184.000,112.500 181.000,112.500" stroke-width="13.818" stroke="rgb(33,33,33)" fill="none" stroke-linecap="round"></path><path d="M 181.000,112.500 C 177.500,112.500 177.461,112.185 174.000,112.500" stroke-width="13.753" stroke="rgb(33,33,33)" fill="none" stroke-linecap="round"></path><path d="M 174.000,112.500 C 171.961,112.685 171.439,112.301 170.000,113.500" stroke-width="14.196" stroke="rgb(33,33,33)" fill="none" stroke-linecap="round"></path><path d="M 170.000,113.500 C 168.439,114.801 168.472,115.375 168.000,117.500" stroke-width="14.559" stroke="rgb(33,33,33)" fill="none" stroke-linecap="round"></path><path d="M 168.000,117.500 C 167.472,119.875 167.283,120.169 168.000,122.500" stroke-width="14.725" stroke="rgb(33,33,33)" fill="none" stroke-linecap="round"></path><path d="M 168.000,122.500 C 169.283,126.669 169.404,126.906 172.000,130.500" stroke-width="14.409" stroke="rgb(33,33,33)" fill="none" stroke-linecap="round"></path><path d="M 172.000,130.500 C 175.904,135.906 176.773,135.279 181.000,140.500" stroke-width="13.568" stroke="rgb(33,33,33)" fill="none" stroke-linecap="round"></path><path d="M 181.000,140.500 C 185.273,145.779 185.290,145.811 189.000,151.500" stroke-width="13.031" stroke="rgb(33,33,33)" fill="none" stroke-linecap="round"></path><path d="M 189.000,151.500 C 192.790,157.311 193.121,157.219 196.000,163.500" stroke-width="12.524" stroke="rgb(33,33,33)" fill="none" stroke-linecap="round"></path><path d="M 196.000,163.500 C 198.621,169.219 198.471,169.383 200.000,175.500" stroke-width="12.449" stroke="rgb(33,33,33)" fill="none" stroke-linecap="round"></path><path d="M 200.000,175.500 C 201.471,181.383 201.497,181.459 202.000,187.500" stroke-width="12.173" stroke="rgb(33,33,33)" fill="none" stroke-linecap="round"></path><path d="M 202.000,187.500 C 202.497,193.459 202.000,193.500 202.000,199.500" stroke-width="12.111" stroke="rgb(33,33,33)" fill="none" stroke-linecap="round"></path><path d="M 202.000,199.500 C 202.000,204.000 202.000,204.000 202.000,208.500" stroke-width="12.272" stroke="rgb(33,33,33)" fill="none" stroke-linecap="round"></path><path d="M 202.000,208.500 C 202.000,212.000 202.000,212.000 202.000,215.500" stroke-width="12.597" stroke="rgb(33,33,33)" fill="none" stroke-linecap="round"></path><path d="M 202.000,215.500 C 202.000,218.000 202.306,218.050 202.000,220.500" stroke-width="13.161" stroke="rgb(33,33,33)" fill="none" stroke-linecap="round"></path><path d="M 202.000,220.500 C 201.806,222.050 201.919,222.581 201.000,223.500" stroke-width="13.793" stroke="rgb(33,33,33)" fill="none" stroke-linecap="round"></path><path d="M 201.000,223.500 C 200.419,224.081 200.000,223.500 199.000,223.500" stroke-width="14.484" stroke="rgb(33,33,33)" fill="none" stroke-linecap="round"></path><path d="M 199.000,223.500 C 198.500,223.500 198.434,223.717 198.000,223.500" stroke-width="15.194" stroke="rgb(33,33,33)" fill="none" stroke-linecap="round"></path><path d="M 198.000,223.500 C 196.434,222.717 195.570,223.066 195.000,221.500" stroke-width="15.475" stroke="rgb(33,33,33)" fill="none" stroke-linecap="round"></path><path d="M 195.000,221.500 C 193.570,217.566 194.181,217.018 194.000,212.500" stroke-width="14.962" stroke="rgb(33,33,33)" fill="none" stroke-linecap="round"></path><path d="M 194.000,212.500 C 193.681,204.518 194.000,204.500 194.000,196.500" stroke-width="13.536" stroke="rgb(33,33,33)" fill="none" stroke-linecap="round"></path><path d="M 194.000,196.500 C 194.000,187.000 193.774,186.995 194.000,177.500" stroke-width="12.681" stroke="rgb(33,33,33)" fill="none" stroke-linecap="round"></path><path d="M 194.000,177.500 C 194.274,165.995 193.857,165.930 195.000,154.500" stroke-width="11.471" stroke="rgb(33,33,33)" fill="none" stroke-linecap="round"></path><path d="M 195.000,154.500 C 195.857,145.930 196.822,146.042 198.000,137.500" stroke-width="11.155" stroke="rgb(33,33,33)" fill="none" stroke-linecap="round"></path><path d="M 198.000,137.500 C 198.822,131.542 198.401,131.490 199.000,125.500" stroke-width="11.171" stroke="rgb(33,33,33)" fill="none" stroke-linecap="round"></path><path d="M 199.000,125.500 C 199.401,121.490 199.430,121.490 200.000,117.500" stroke-width="11.639" stroke="rgb(33,33,33)" fill="none" stroke-linecap="round"></path><path d="M 200.000,117.500 C 200.430,114.490 200.404,114.480 201.000,111.500" stroke-width="12.174" stroke="rgb(33,33,33)" fill="none" stroke-linecap="round"></path><path d="M 201.000,111.500 C 201.404,109.480 201.598,109.512 202.000,107.500" stroke-width="12.798" stroke="rgb(33,33,33)" fill="none" stroke-linecap="round"></path><path d="M 202.000,107.500 C 202.098,107.012 202.000,106.167 202.000,106.500" stroke-width="13.716" stroke="rgb(33,33,33)" fill="none" stroke-linecap="round"></path><path d="M 202.000,106.500 C 202.000,108.167 202.000,109.000 202.000,111.500" stroke-width="14.328" stroke="rgb(33,33,33)" fill="none" stroke-linecap="round"></path><path d="M 202.000,111.500 C 202.000,115.500 202.000,115.500 202.000,119.500" stroke-width="14.213" stroke="rgb(33,33,33)" fill="none" stroke-linecap="round"></path><path d="M 202.000,119.500 C 202.000,124.500 200.377,125.172 202.000,129.500" stroke-width="13.894" stroke="rgb(33,33,33)" fill="none" stroke-linecap="round"></path><path d="M 202.000,129.500 C 203.377,133.172 204.756,132.797 208.000,135.500" stroke-width="13.815" stroke="rgb(33,33,33)" fill="none" stroke-linecap="round"></path><path d="M 208.000,135.500 C 210.756,137.797 210.702,138.485 214.000,139.500" stroke-width="13.787" stroke="rgb(33,33,33)" fill="none" stroke-linecap="round"></path><path d="M 214.000,139.500 C 217.202,140.485 217.514,139.732 221.000,139.500" stroke-width="13.938" stroke="rgb(33,33,33)" fill="none" stroke-linecap="round"></path><path d="M 221.000,139.500 C 225.014,139.232 225.656,140.172 229.000,138.500" stroke-width="13.841" stroke="rgb(33,33,33)" fill="none" stroke-linecap="round"></path><path d="M 229.000,138.500 C 231.656,137.172 231.370,136.216 233.000,133.500" stroke-width="14.047" stroke="rgb(33,33,33)" fill="none" stroke-linecap="round"></path><path d="M 233.000,133.500 C 234.370,131.216 234.230,131.068 235.000,128.500" stroke-width="14.210" stroke="rgb(33,33,33)" fill="none" stroke-linecap="round"></path><path d="M 235.000,128.500 C 235.730,126.068 235.685,126.018 236.000,123.500" stroke-width="14.498" stroke="rgb(33,33,33)" fill="none" stroke-linecap="round"></path><path d="M 236.000,123.500 C 236.185,122.018 236.000,122.000 236.000,120.500" stroke-width="14.946" stroke="rgb(33,33,33)" fill="none" stroke-linecap="round"></path><path d="M 236.000,120.500 C 236.000,119.500 236.000,119.500 236.000,118.500" stroke-width="15.451" stroke="rgb(33,33,33)" fill="none" stroke-linecap="round"></path><path d="M 236.000,118.500 C 236.000,118.000 236.000,118.000 236.000,117.500" stroke-width="16.085" stroke="rgb(33,33,33)" fill="none" stroke-linecap="round"></path><path d="M 236.000,117.500 C 236.000,117.000 235.691,116.809 236.000,116.500" stroke-width="16.630" stroke="rgb(33,33,33)" fill="none" stroke-linecap="round"></path><path d="M 236.000,116.500 C 236.691,115.809 236.955,115.892 238.000,115.500" stroke-width="16.755" stroke="rgb(33,33,33)" fill="none" stroke-linecap="round"></path><path d="M 238.000,115.500 C 240.955,114.392 241.088,114.713 244.000,113.500" stroke-width="16.369" stroke="rgb(33,33,33)" fill="none" stroke-linecap="round"></path><path d="M 244.000,113.500 C 247.088,112.213 246.949,111.887 250.000,110.500" stroke-width="15.900" stroke="rgb(33,33,33)" fill="none" stroke-linecap="round"></path><path d="M 250.000,110.500 C 252.449,109.387 252.500,109.500 255.000,108.500" stroke-width="15.690" stroke="rgb(33,33,33)" fill="none" stroke-linecap="round"></path><path d="M 255.000,108.500 C 257.500,107.500 257.763,107.898 260.000,106.500" stroke-width="15.669" stroke="rgb(33,33,33)" fill="none" stroke-linecap="round"></path><path d="M 260.000,106.500 C 261.763,105.398 261.649,105.122 263.000,103.500" stroke-width="15.808" stroke="rgb(33,33,33)" fill="none" stroke-linecap="round"></path><path d="M 263.000,103.500 C 264.149,102.122 264.201,102.098 265.000,100.500" stroke-width="15.909" stroke="rgb(33,33,33)" fill="none" stroke-linecap="round"></path><path d="M 265.000,100.500 C 265.701,99.098 265.445,98.980 266.000,97.500" stroke-width="16.201" stroke="rgb(33,33,33)" fill="none" stroke-linecap="round"></path><path d="M 266.000,97.500 C 266.945,94.980 267.080,95.029 268.000,92.500" stroke-width="15.859" stroke="rgb(33,33,33)" fill="none" stroke-linecap="round"></path><path d="M 268.000,92.500 C 269.080,89.529 269.170,89.545 270.000,86.500" stroke-width="15.676" stroke="rgb(33,33,33)" fill="none" stroke-linecap="round"></path><path d="M 270.000,86.500 C 270.670,84.045 270.447,83.988 271.000,81.500" stroke-width="15.502" stroke="rgb(33,33,33)" fill="none" stroke-linecap="round"></path><path d="M 271.000,81.500 C 271.447,79.488 271.746,79.530 272.000,77.500" stroke-width="15.688" stroke="rgb(33,33,33)" fill="none" stroke-linecap="round"></path><path d="M 272.000,77.500 C 272.246,75.530 273.190,74.492 272.000,73.500" stroke-width="15.824" stroke="rgb(33,33,33)" fill="none" stroke-linecap="round"></path><path d="M 272.000,73.500 C 270.190,71.992 269.027,72.500 266.000,72.500" stroke-width="15.633" stroke="rgb(33,33,33)" fill="none" stroke-linecap="round"></path><path d="M 266.000,72.500 C 257.027,72.500 256.664,71.520 248.000,73.500" stroke-width="13.981" stroke="rgb(33,33,33)" fill="none" stroke-linecap="round"></path><path d="M 248.000,73.500 C 239.164,75.520 239.191,76.405 231.000,80.500" stroke-width="12.748" stroke="rgb(33,33,33)" fill="none" stroke-linecap="round"></path><path d="M 231.000,80.500 C 225.191,83.405 224.811,83.255 220.000,87.500" stroke-width="12.395" stroke="rgb(33,33,33)" fill="none" stroke-linecap="round"></path><path d="M 220.000,87.500 C 216.311,90.755 216.192,91.116 214.000,95.500" stroke-width="12.464" stroke="rgb(33,33,33)" fill="none" stroke-linecap="round"></path><path d="M 214.000,95.500 C 212.192,99.116 212.452,99.433 212.000,103.500" stroke-width="12.682" stroke="rgb(33,33,33)" fill="none" stroke-linecap="round"></path><path d="M 212.000,103.500 C 211.452,108.433 209.748,109.672 212.000,113.500" stroke-width="12.696" stroke="rgb(33,33,33)" fill="none" stroke-linecap="round"></path><path d="M 212.000,113.500 C 214.748,118.172 216.554,117.886 222.000,120.500" stroke-width="12.434" stroke="rgb(33,33,33)" fill="none" stroke-linecap="round"></path><path d="M 222.000,120.500 C 229.054,123.886 229.383,123.423 237.000,125.500" stroke-width="11.816" stroke="rgb(33,33,33)" fill="none" stroke-linecap="round"></path><path d="M 237.000,125.500 C 245.883,127.923 246.042,127.328 255.000,129.500" stroke-width="11.326" stroke="rgb(33,33,33)" fill="none" stroke-linecap="round"></path><path d="M 255.000,129.500 C 262.542,131.328 262.785,130.794 270.000,133.500" stroke-width="11.232" stroke="rgb(33,33,33)" fill="none" stroke-linecap="round"></path><path d="M 270.000,133.500 C 274.785,135.294 275.177,135.265 279.000,138.500" stroke-width="11.484" stroke="rgb(33,33,33)" fill="none" stroke-linecap="round"></path><path d="M 279.000,138.500 C 281.677,140.765 282.162,141.148 283.000,144.500" stroke-width="11.976" stroke="rgb(33,33,33)" fill="none" stroke-linecap="round"></path><path d="M 283.000,144.500 C 284.162,149.148 285.110,150.280 283.000,154.500" stroke-width="12.171" stroke="rgb(33,33,33)" fill="none" stroke-linecap="round"></path><path d="M 283.000,154.500 C 279.110,162.280 277.504,161.996 271.000,168.500" stroke-width="11.585" stroke="rgb(33,33,33)" fill="none" stroke-linecap="round"></path><path d="M 271.000,168.500 C 263.004,176.496 262.805,176.372 254.000,183.500" stroke-width="10.857" stroke="rgb(33,33,33)" fill="none" stroke-linecap="round"></path><path d="M 254.000,183.500 C 241.805,193.372 241.832,193.470 229.000,202.500" stroke-width="9.310" stroke="rgb(33,33,33)" fill="none" stroke-linecap="round"></path><path d="M 229.000,202.500 C 214.832,212.470 214.384,211.828 200.000,221.500" stroke-width="8.624" stroke="rgb(33,33,33)" fill="none" stroke-linecap="round"></path><path d="M 200.000,221.500 C 185.384,231.328 185.515,231.521 171.000,241.500" stroke-width="7.947" stroke="rgb(33,33,33)" fill="none" stroke-linecap="round"></path><path d="M 171.000,241.500 C 161.515,248.021 161.267,247.686 152.000,254.500" stroke-width="8.119" stroke="rgb(33,33,33)" fill="none" stroke-linecap="round"></path><path d="M 152.000,254.500 C 144.267,260.186 144.283,260.257 137.000,266.500" stroke-width="8.314" stroke="rgb(33,33,33)" fill="none" stroke-linecap="round"></path><path d="M 137.000,266.500 C 133.783,269.257 133.216,269.175 131.000,272.500" stroke-width="8.982" stroke="rgb(33,33,33)" fill="none" stroke-linecap="round"></path><path d="M 131.000,272.500 C 130.216,273.675 130.063,274.938 131.000,275.500" stroke-width="9.941" stroke="rgb(33,33,33)" fill="none" stroke-linecap="round"></path></svg>