<svg xmlns="http://www.w3.org/2000/svg" xmlns:xlink="http://www.w3.org/1999/xlink" viewBox="0 0 375 500"><path d="M 111.000,69.000 C 110.500,70.500 110.156,70.444 110.000,72.000" stroke-width="20.020" stroke="rgb(33,33,33)" fill="none" stroke-linecap="round"></path><path d="M 110.000,72.000 C 109.656,75.444 110.000,75.500 110.000,79.000" stroke-width="19.049" stroke="rgb(33,33,33)" fill="none" stroke-linecap="round"></path><path d="M 110.000,79.000 C 110.000,85.000 110.193,85.005 110.000,91.000" stroke-width="15.692" stroke="rgb(33,33,33)" fill="none" stroke-linecap="round"></path><path d="M 110.000,91.000 C 109.693,100.505 109.257,100.494 109.000,110.000" stroke-width="13.278" stroke="rgb(33,33,33)" fill="none" stroke-linecap="round"></path><path d="M 109.000,110.000 C 108.757,118.994 109.000,119.000 109.000,128.000" stroke-width="12.656" stroke="rgb(33,33,33)" fill="none" stroke-linecap="round"></path><path d="M 109.000,128.000 C 109.000,137.500 109.000,137.500 109.000,147.000" stroke-width="11.682" stroke="rgb(33,33,33)" fill="none" stroke-linecap="round"></path><path d="M 109.000,147.000 C 109.000,156.000 109.000,156.000 109.000,165.000" stroke-width="10.983" stroke="rgb(33,33,33)" fill="none" stroke-linecap="round"></path><path d="M 109.000,165.000 C 109.000,174.000 109.000,174.000 109.000,183.000" stroke-width="10.732" stroke="rgb(33,33,33)" fill="none" stroke-linecap="round"></path><path d="M 109.000,183.000 C 109.000,191.500 109.000,191.500 109.000,200.000" stroke-width="10.536" stroke="rgb(33,33,33)" fill="none" stroke-linecap="round"></path><path d="M 109.000,200.000 C 109.000,208.000 109.000,208.000 109.000,216.000" stroke-width="10.572" stroke="rgb(33,33,33)" fill="none" stroke-linecap="round"></path><path d="M 109.000,216.000 C 109.000,222.500 109.000,222.500 109.000,229.000" stroke-width="10.687" stroke="rgb(33,33,33)" fill="none" stroke-linecap="round"></path><path d="M 109.000,229.000 C 109.000,233.000 109.000,233.000 109.000,237.000" stroke-width="11.188" stroke="rgb(33,33,33)" fill="none" stroke-linecap="round"></path><path d="M 109.000,237.000 C 109.000,239.500 109.306,239.550 109.000,242.000" stroke-width="11.864" stroke="rgb(33,33,33)" fill="none" stroke-linecap="round"></path><path d="M 109.000,242.000 C 108.806,243.550 108.760,243.860 108.000,245.000" stroke-width="12.636" stroke="rgb(33,33,33)" fill="none" stroke-linecap="round"></path><path d="M 108.000,245.000 C 107.760,245.360 107.071,245.429 107.000,245.000" stroke-width="13.541" stroke="rgb(33,33,33)" fill="none" stroke-linecap="round"></path><path d="M 107.000,245.000 C 106.571,242.429 107.000,242.000 107.000,239.000" stroke-width="13.804" stroke="rgb(33,33,33)" fill="none" stroke-linecap="round"></path><path d="M 107.000,239.000 C 107.000,231.000 106.778,230.994 107.000,223.000" stroke-width="12.966" stroke="rgb(33,33,33)" fill="none" stroke-linecap="round"></path><path d="M 107.000,223.000 C 107.278,212.994 106.468,212.852 108.000,203.000" stroke-width="12.112" stroke="rgb(33,33,33)" fill="none" stroke-linecap="round"></path><path d="M 108.000,203.000 C 109.968,190.352 111.379,190.578 114.000,178.000" stroke-width="10.769" stroke="rgb(33,33,33)" fill="none" stroke-linecap="round"></path><path d="M 114.000,178.000 C 116.379,166.578 116.206,166.532 118.000,155.000" stroke-width="10.233" stroke="rgb(33,33,33)" fill="none" stroke-linecap="round"></path><path d="M 118.000,155.000 C 119.706,144.032 119.868,144.036 121.000,133.000" stroke-width="9.905" stroke="rgb(33,33,33)" fill="none" stroke-linecap="round"></path><path d="M 121.000,133.000 C 121.868,124.536 121.434,124.495 122.000,116.000" stroke-width="9.947" stroke="rgb(33,33,33)" fill="none" stroke-linecap="round"></path><path d="M 122.000,116.000 C 122.434,109.495 122.717,109.508 123.000,103.000" stroke-width="10.167" stroke="rgb(33,33,33)" fill="none" stroke-linecap="round"></path><path d="M 123.000,103.000 C 123.217,98.008 123.650,97.875 123.000,93.000" stroke-width="10.597" stroke="rgb(33,33,33)" fill="none" stroke-linecap="round"></path><path d="M 123.000,93.000 C 122.650,90.375 122.913,89.488 121.000,88.000" stroke-width="11.275" stroke="rgb(33,33,33)" fill="none" stroke-linecap="round"></path><path d="M 121.000,88.000 C 118.413,85.988 117.575,86.199 114.000,86.000" stroke-width="11.756" stroke="rgb(33,33,33)" fill="none" stroke-linecap="round"></path><path d="M 114.000,86.000 C 108.575,85.699 107.396,84.252 103.000,87.000" stroke-width="11.856" stroke="rgb(33,33,33)" fill="none" stroke-linecap="round"></path><path d="M 103.000,87.000 C 95.396,91.752 95.927,93.537 90.000,101.000" stroke-width="11.306" stroke="rgb(33,33,33)" fill="none" stroke-linecap="round"></path><path d="M 90.000,101.000 C 82.427,110.537 82.530,110.702 76.000,121.000" stroke-width="10.449" stroke="rgb(33,33,33)" fill="none" stroke-linecap="round"></path><path d="M 76.000,121.000 C 69.530,131.202 69.082,131.074 64.000,142.000" stroke-width="9.951" stroke="rgb(33,33,33)" fill="none" stroke-linecap="round"></path><path d="M 64.000,142.000 C 59.082,152.574 59.700,152.901 56.000,164.000" stroke-width="9.549" stroke="rgb(33,33,33)" fill="none" stroke-linecap="round"></path><path d="M 56.000,164.000 C 53.200,172.401 52.397,172.341 51.000,181.000" stroke-width="9.620" stroke="rgb(33,33,33)" fill="none" stroke-linecap="round"></path><path d="M 51.000,181.000 C 49.897,187.841 51.000,188.000 51.000,195.000" stroke-width="9.884" stroke="rgb(33,33,33)" fill="none" stroke-linecap="round"></path><path d="M 51.000,195.000 C 51.000,201.500 49.195,202.069 51.000,208.000" stroke-width="10.166" stroke="rgb(33,33,33)" fill="none" stroke-linecap="round"></path><path d="M 51.000,208.000 C 52.695,213.569 53.484,214.281 58.000,218.000" stroke-width="10.497" stroke="rgb(33,33,33)" fill="none" stroke-linecap="round"></path><path d="M 58.000,218.000 C 61.984,221.281 62.770,221.195 68.000,222.000" stroke-width="10.732" stroke="rgb(33,33,33)" fill="none" stroke-linecap="round"></path><path d="M 68.000,222.000 C 75.770,223.195 76.058,222.701 84.000,222.000" stroke-width="10.605" stroke="rgb(33,33,33)" fill="none" stroke-linecap="round"></path><path d="M 84.000,222.000 C 93.058,221.201 93.668,222.333 102.000,219.000" stroke-width="10.426" stroke="rgb(33,33,33)" fill="none" stroke-linecap="round"></path><path d="M 102.000,219.000 C 113.668,214.333 113.831,213.627 124.000,206.000" stroke-width="9.767" stroke="rgb(33,33,33)" fill="none" stroke-linecap="round"></path><path d="M 124.000,206.000 C 135.831,197.127 135.767,196.732 146.000,186.000" stroke-width="9.325" stroke="rgb(33,33,33)" fill="none" stroke-linecap="round"></path><path d="M 146.000,186.000 C 156.267,175.232 156.708,175.313 165.000,163.000" stroke-width="8.672" stroke="rgb(33,33,33)" fill="none" stroke-linecap="round"></path><path d="M 165.000,163.000 C 173.208,150.813 172.400,150.199 179.000,137.000" stroke-width="8.384" stroke="rgb(33,33,33)" fill="none" stroke-linecap="round"></path><path d="M 179.000,137.000 C 184.900,125.199 185.213,125.267 190.000,113.000" stroke-width="8.289" stroke="rgb(33,33,33)" fill="none" stroke-linecap="round"></path><path d="M 190.000,113.000 C 193.213,104.767 192.925,104.597 195.000,96.000" stroke-width="8.523" stroke="rgb(33,33,33)" fill="none" stroke-linecap="round"></path><path d="M 195.000,96.000 C 196.425,90.097 196.365,90.030 197.000,84.000" stroke-width="8.989" stroke="rgb(33,33,33)" fill="none" stroke-linecap="round"></path><path d="M 197.000,84.000 C 197.365,80.530 197.610,80.356 197.000,77.000" stroke-width="9.714" stroke="rgb(33,33,33)" fill="none" stroke-linecap="round"></path><path d="M 197.000,77.000 C 196.610,74.856 196.793,73.717 195.000,73.000" stroke-width="10.545" stroke="rgb(33,33,33)" fill="none" stroke-linecap="round"></path><path d="M 195.000,73.000 C 191.793,71.717 190.777,72.056 187.000,73.000" stroke-width="11.064" stroke="rgb(33,33,33)" fill="none" stroke-linecap="round"></path><path d="M 187.000,73.000 C 182.777,74.056 182.174,74.025 179.000,77.000" stroke-width="11.444" stroke="rgb(33,33,33)" fill="none" stroke-linecap="round"></path><path d="M 179.000,77.000 C 174.174,81.525 173.777,81.942 171.000,88.000" stroke-width="11.341" stroke="rgb(33,33,33)" fill="none" stroke-linecap="round"></path><path d="M 171.000,88.000 C 168.277,93.942 168.824,94.405 168.000,101.000" stroke-width="11.280" stroke="rgb(33,33,33)" fill="none" stroke-linecap="round"></path><path d="M 168.000,101.000 C 166.824,110.405 167.257,110.494 167.000,120.000" stroke-width="10.887" stroke="rgb(33,33,33)" fill="none" stroke-linecap="round"></path><path d="M 167.000,120.000 C 166.757,128.994 166.710,129.011 167.000,138.000" stroke-width="10.659" stroke="rgb(33,33,33)" fill="none" stroke-linecap="round"></path><path d="M 167.000,138.000 C 167.210,144.511 166.631,144.702 168.000,151.000" stroke-width="10.810" stroke="rgb(33,33,33)" fill="none" stroke-linecap="round"></path><path d="M 168.000,151.000 C 169.131,156.202 169.102,156.653 172.000,161.000" stroke-width="11.094" stroke="rgb(33,33,33)" fill="none" stroke-linecap="round"></path><path d="M 172.000,161.000 C 174.102,164.153 174.657,164.090 178.000,166.000" stroke-width="11.520" stroke="rgb(33,33,33)" fill="none" stroke-linecap="round"></path><path d="M 178.000,166.000 C 181.657,168.090 181.853,168.309 186.000,169.000" stroke-width="11.864" stroke="rgb(33,33,33)" fill="none" stroke-linecap="round"></path><path d="M 186.000,169.000 C 190.853,169.809 191.057,169.520 196.000,169.000" stroke-width="12.031" stroke="rgb(33,33,33)" fill="none" stroke-linecap="round"></path><path d="M 196.000,169.000 C 200.557,168.520 200.859,168.841 205.000,167.000" stroke-width="12.186" stroke="rgb(33,33,33)" fill="none" stroke-linecap="round"></path><path d="M 205.000,167.000 C 209.859,164.841 209.570,164.101 214.000,161.000" stroke-width="12.165" stroke="rgb(33,33,33)" fill="none" stroke-linecap="round"></path><path d="M 214.000,161.000 C 219.570,157.101 219.466,156.953 225.000,153.000" stroke-width="12.034" stroke="rgb(33,33,33)" fill="none" stroke-linecap="round"></path><path d="M 225.000,153.000 C 229.966,149.453 230.120,149.660 235.000,146.000" stroke-width="11.920" stroke="rgb(33,33,33)" fill="none" stroke-linecap="round"></path><path d="M 235.000,146.000 C 240.120,142.160 239.946,141.931 245.000,138.000" stroke-width="11.844" stroke="rgb(33,33,33)" fill="none" stroke-linecap="round"></path><path d="M 245.000,138.000 C 248.946,134.931 248.933,134.905 253.000,132.000" stroke-width="12.015" stroke="rgb(33,33,33)" fill="none" stroke-linecap="round"></path><path d="M 253.000,132.000 C 255.933,129.905 255.892,129.813 259.000,128.000" stroke-width="12.359" stroke="rgb(33,33,33)" fill="none" stroke-linecap="round"></path><path d="M 259.000,128.000 C 261.892,126.313 261.903,126.239 265.000,125.000" stroke-width="12.738" stroke="rgb(33,33,33)" fill="none" stroke-linecap="round"></path><path d="M 265.000,125.000 C 266.903,124.239 267.019,124.566 269.000,124.000" stroke-width="13.294" stroke="rgb(33,33,33)" fill="none" stroke-linecap="round"></path><path d="M 269.000,124.000 C 270.519,123.566 270.460,123.257 272.000,123.000" stroke-width="13.887" stroke="rgb(33,33,33)" fill="none" stroke-linecap="round"></path><path d="M 272.000,123.000 C 273.460,122.757 273.500,123.000 275.000,123.000" stroke-width="14.445" stroke="rgb(33,33,33)" fill="none" stroke-linecap="round"></path><path d="M 275.000,123.000 C 275.500,123.000 275.833,122.667 276.000,123.000" stroke-width="15.203" stroke="rgb(33,33,33)" fill="none" stroke-linecap="round"></path><path d="M 276.000,123.000 C 276.333,123.667 276.529,124.176 276.000,125.000" stroke-width="15.839" stroke="rgb(33,33,33)" fill="none" stroke-linecap="round"></path><path d="M 276.000,125.000 C 272.029,131.176 271.500,131.000 267.000,137.000" stroke-width="14.574" stroke="rgb(33,33,33)" fill="none" stroke-linecap="round"></path><path d="M 267.000,137.000 C 259.500,147.000 259.423,146.943 252.000,157.000" stroke-width="12.611" stroke="rgb(33,33,33)" fill="none" stroke-linecap="round"></path><path d="M 252.000,157.000 C 243.923,167.943 243.882,167.916 236.000,179.000" stroke-width="10.962" stroke="rgb(33,33,33)" fill="none" stroke-linecap="round"></path><path d="M 236.000,179.000 C 227.882,190.416 227.711,190.309 220.000,202.000" stroke-width="10.088" stroke="rgb(33,33,33)" fill="none" stroke-linecap="round"></path><path d="M 220.000,202.000 C 212.211,213.809 212.160,213.801 205.000,226.000" stroke-width="9.376" stroke="rgb(33,33,33)" fill="none" stroke-linecap="round"></path><path d="M 205.000,226.000 C 198.660,236.801 198.472,236.752 193.000,248.000" stroke-width="9.179" stroke="rgb(33,33,33)" fill="none" stroke-linecap="round"></path><path d="M 193.000,248.000 C 189.472,255.252 189.386,255.313 187.000,263.000" stroke-width="9.443" stroke="rgb(33,33,33)" fill="none" stroke-linecap="round"></path><path d="M 187.000,263.000 C 184.886,269.813 185.352,269.972 184.000,277.000" stroke-width="9.668" stroke="rgb(33,33,33)" fill="none" stroke-linecap="round"></path><path d="M 105.000,263.000 C 108.500,261.500 108.301,260.528 112.000,260.000" stroke-width="19.489" stroke="rgb(33,33,33)" fill="none" stroke-linecap="round"></path><path d="M 112.000,260.000 C 118.801,259.028 119.053,260.695 126.000,260.000" stroke-width="17.479" stroke="rgb(33,33,33)" fill="none" stroke-linecap="round"></path><path d="M 126.000,260.000 C 139.053,258.695 139.393,259.513 152.000,256.000" stroke-width="13.222" stroke="rgb(33,33,33)" fill="none" stroke-linecap="round"></path></svg>