<svg xmlns="http://www.w3.org/2000/svg" xmlns:xlink="http://www.w3.org/1999/xlink" viewBox="0 0 360 500"><path d="M 93.913,198.366 C 98.267,200.212 98.394,199.957 102.620,202.058" stroke-width="19.914" stroke="rgb(33,33,33)" fill="none" stroke-linecap="round"></path><path d="M 102.620,202.058 C 106.636,204.054 106.713,204.017 110.398,206.559" stroke-width="18.188" stroke="rgb(33,33,33)" fill="none" stroke-linecap="round"></path><path d="M 110.398,206.559 C 113.652,208.804 113.610,208.922 116.499,211.633" stroke-width="17.679" stroke="rgb(33,33,33)" fill="none" stroke-linecap="round"></path><path d="M 116.499,211.633 C 120.014,214.930 120.007,214.965 123.206,218.574" stroke-width="16.146" stroke="rgb(33,33,33)" fill="none" stroke-linecap="round"></path><path d="M 123.206,218.574 C 127.557,223.483 127.502,223.542 131.599,228.669" stroke-width="15.008" stroke="rgb(33,33,33)" fill="none" stroke-linecap="round"></path><path d="M 131.599,228.669 C 135.981,234.153 136.011,234.138 140.165,239.797" stroke-width="13.807" stroke="rgb(33,33,33)" fill="none" stroke-linecap="round"></path><path d="M 140.165,239.797 C 144.181,245.268 143.922,245.459 147.940,250.928" stroke-width="13.623" stroke="rgb(33,33,33)" fill="none" stroke-linecap="round"></path><path d="M 147.940,250.928 C 152.086,256.572 152.163,256.518 156.494,262.023" stroke-width="13.031" stroke="rgb(33,33,33)" fill="none" stroke-linecap="round"></path><path d="M 156.494,262.023 C 160.636,267.289 160.817,267.149 164.885,272.470" stroke-width="12.839" stroke="rgb(33,33,33)" fill="none" stroke-linecap="round"></path><path d="M 164.885,272.470 C 168.392,277.056 168.227,277.181 171.644,281.837" stroke-width="12.789" stroke="rgb(33,33,33)" fill="none" stroke-linecap="round"></path><path d="M 171.644,281.837 C 174.759,286.080 174.878,285.994 177.949,290.267" stroke-width="12.923" stroke="rgb(33,33,33)" fill="none" stroke-linecap="round"></path><path d="M 177.949,290.267 C 180.692,294.082 180.535,294.195 183.272,298.014" stroke-width="12.947" stroke="rgb(33,33,33)" fill="none" stroke-linecap="round"></path><path d="M 183.272,298.014 C 185.030,300.468 185.090,300.426 186.939,302.813" stroke-width="13.113" stroke="rgb(33,33,33)" fill="none" stroke-linecap="round"></path><path d="M 97.243,210.360 C 106.066,209.067 106.154,209.517 114.889,207.775" stroke-width="19.566" stroke="rgb(33,33,33)" fill="none" stroke-linecap="round"></path><path d="M 114.889,207.775 C 124.979,205.763 124.996,205.677 134.892,202.852" stroke-width="15.941" stroke="rgb(33,33,33)" fill="none" stroke-linecap="round"></path><path d="M 134.892,202.852 C 142.701,200.622 142.546,200.100 150.298,197.665" stroke-width="14.497" stroke="rgb(33,33,33)" fill="none" stroke-linecap="round"></path><path d="M 150.298,197.665 C 156.866,195.602 156.820,195.321 163.532,193.855" stroke-width="13.915" stroke="rgb(33,33,33)" fill="none" stroke-linecap="round"></path><path d="M 163.532,193.855 C 169.866,192.472 169.930,192.546 176.391,191.967" stroke-width="13.553" stroke="rgb(33,33,33)" fill="none" stroke-linecap="round"></path><path d="M 176.391,191.967 C 181.946,191.470 182.007,191.392 187.563,191.703" stroke-width="13.263" stroke="rgb(33,33,33)" fill="none" stroke-linecap="round"></path><path d="M 187.563,191.703 C 191.784,191.939 191.866,191.987 195.945,193.061" stroke-width="13.571" stroke="rgb(33,33,33)" fill="none" stroke-linecap="round"></path><path d="M 195.945,193.061 C 198.899,193.839 199.192,193.658 201.630,195.406" stroke-width="13.884" stroke="rgb(33,33,33)" fill="none" stroke-linecap="round"></path><path d="M 201.630,195.406 C 204.296,197.317 204.602,197.481 206.153,200.379" stroke-width="13.958" stroke="rgb(33,33,33)" fill="none" stroke-linecap="round"></path><path d="M 206.153,200.379 C 208.268,204.331 208.235,204.624 208.961,209.105" stroke-width="13.985" stroke="rgb(33,33,33)" fill="none" stroke-linecap="round"></path><path d="M 208.961,209.105 C 209.820,214.406 209.608,214.548 209.323,219.943" stroke-width="13.806" stroke="rgb(33,33,33)" fill="none" stroke-linecap="round"></path><path d="M 209.323,219.943 C 209.025,225.585 208.790,225.603 207.796,231.179" stroke-width="13.365" stroke="rgb(33,33,33)" fill="none" stroke-linecap="round"></path><path d="M 207.796,231.179 C 206.919,236.096 207.002,236.147 205.580,240.930" stroke-width="13.103" stroke="rgb(33,33,33)" fill="none" stroke-linecap="round"></path><path d="M 205.580,240.930 C 204.077,245.987 203.820,245.916 201.946,250.859" stroke-width="13.214" stroke="rgb(33,33,33)" fill="none" stroke-linecap="round"></path><path d="M 201.946,250.859 C 199.560,257.151 199.577,257.159 197.059,263.399" stroke-width="13.165" stroke="rgb(33,33,33)" fill="none" stroke-linecap="round"></path><path d="M 197.059,263.399 C 194.281,270.285 194.334,270.310 191.355,277.111" stroke-width="12.327" stroke="rgb(33,33,33)" fill="none" stroke-linecap="round"></path><path d="M 191.355,277.111 C 188.228,284.250 188.240,284.262 184.848,291.279" stroke-width="11.849" stroke="rgb(33,33,33)" fill="none" stroke-linecap="round"></path><path d="M 184.848,291.279 C 182.296,296.557 182.006,296.419 179.468,301.701" stroke-width="12.021" stroke="rgb(33,33,33)" fill="none" stroke-linecap="round"></path><path d="M 179.468,301.701 C 177.846,305.075 177.987,305.142 176.528,308.592" stroke-width="12.533" stroke="rgb(33,33,33)" fill="none" stroke-linecap="round"></path><path d="M 176.528,308.592 C 175.438,311.168 175.477,311.185 174.370,313.754" stroke-width="13.025" stroke="rgb(33,33,33)" fill="none" stroke-linecap="round"></path><path d="M 174.370,313.754 C 173.741,315.213 173.745,315.217 173.055,316.648" stroke-width="13.671" stroke="rgb(33,33,33)" fill="none" stroke-linecap="round"></path><path d="M 173.055,316.648 C 172.661,317.465 172.619,317.444 172.201,318.249" stroke-width="14.449" stroke="rgb(33,33,33)" fill="none" stroke-linecap="round"></path><path d="M 172.201,318.249 C 172.012,318.614 172.130,318.754 171.841,318.989" stroke-width="15.222" stroke="rgb(33,33,33)" fill="none" stroke-linecap="round"></path><path d="M 171.841,318.989 C 171.557,319.221 171.365,319.375 171.055,319.183" stroke-width="15.898" stroke="rgb(33,33,33)" fill="none" stroke-linecap="round"></path><path d="M 171.055,319.183 C 170.148,318.621 170.003,318.496 169.406,317.482" stroke-width="16.261" stroke="rgb(33,33,33)" fill="none" stroke-linecap="round"></path><path d="M 169.406,317.482 C 166.756,312.979 166.336,313.071 164.562,308.149" stroke-width="15.341" stroke="rgb(33,33,33)" fill="none" stroke-linecap="round"></path><path d="M 164.562,308.149 C 161.407,299.397 161.376,299.279 159.548,290.135" stroke-width="14.201" stroke="rgb(33,33,33)" fill="none" stroke-linecap="round"></path><path d="M 159.548,290.135 C 157.627,280.525 158.268,280.392 157.063,270.640" stroke-width="12.988" stroke="rgb(33,33,33)" fill="none" stroke-linecap="round"></path><path d="M 157.063,270.640 C 155.646,259.172 155.697,259.166 154.304,247.695" stroke-width="12.145" stroke="rgb(33,33,33)" fill="none" stroke-linecap="round"></path><path d="M 154.304,247.695 C 152.657,234.133 152.698,234.128 150.983,220.574" stroke-width="11.287" stroke="rgb(33,33,33)" fill="none" stroke-linecap="round"></path><path d="M 150.983,220.574 C 149.521,209.019 149.468,209.026 147.949,197.478" stroke-width="10.511" stroke="rgb(33,33,33)" fill="none" stroke-linecap="round"></path><path d="M 147.949,197.478 C 147.217,191.917 147.271,191.909 146.481,186.357" stroke-width="10.958" stroke="rgb(33,33,33)" fill="none" stroke-linecap="round"></path><path d="M 146.481,186.357 C 146.172,184.181 146.135,184.186 145.751,182.022" stroke-width="11.682" stroke="rgb(33,33,33)" fill="none" stroke-linecap="round"></path><path d="M 145.751,182.022 C 145.494,180.576 145.385,180.588 145.199,179.136" stroke-width="12.541" stroke="rgb(33,33,33)" fill="none" stroke-linecap="round"></path><path d="M 145.199,179.136 C 145.109,178.432 145.199,178.423 145.199,177.710" stroke-width="13.439" stroke="rgb(33,33,33)" fill="none" stroke-linecap="round"></path><path d="M 145.199,177.710 C 145.199,177.534 145.199,177.534 145.199,177.357" stroke-width="14.364" stroke="rgb(33,33,33)" fill="none" stroke-linecap="round"></path><path d="M 145.199,177.357 C 145.199,177.117 145.081,176.952 145.199,176.877" stroke-width="15.195" stroke="rgb(33,33,33)" fill="none" stroke-linecap="round"></path><path d="M 145.199,176.877 C 145.327,176.796 145.441,176.974 145.690,177.044" stroke-width="15.921" stroke="rgb(33,33,33)" fill="none" stroke-linecap="round"></path><path d="M 145.690,177.044 C 146.751,177.343 146.891,177.042 147.820,177.616" stroke-width="16.321" stroke="rgb(33,33,33)" fill="none" stroke-linecap="round"></path><path d="M 147.820,177.616 C 151.824,180.089 151.967,180.039 155.556,183.138" stroke-width="15.599" stroke="rgb(33,33,33)" fill="none" stroke-linecap="round"></path><path d="M 155.556,183.138 C 162.487,189.123 162.455,189.223 168.860,195.785" stroke-width="14.483" stroke="rgb(33,33,33)" fill="none" stroke-linecap="round"></path><path d="M 168.860,195.785 C 173.946,200.996 173.788,201.159 178.539,206.684" stroke-width="13.590" stroke="rgb(33,33,33)" fill="none" stroke-linecap="round"></path><path d="M 178.539,206.684 C 183.017,211.893 182.915,211.980 187.319,217.253" stroke-width="13.297" stroke="rgb(33,33,33)" fill="none" stroke-linecap="round"></path><path d="M 187.319,217.253 C 192.060,222.931 192.110,222.890 196.829,228.586" stroke-width="13.254" stroke="rgb(33,33,33)" fill="none" stroke-linecap="round"></path><path d="M 196.829,228.586 C 200.146,232.590 200.098,232.630 203.391,236.654" stroke-width="13.420" stroke="rgb(33,33,33)" fill="none" stroke-linecap="round"></path><path d="M 203.391,236.654 C 205.821,239.624 205.808,239.635 208.276,242.573" stroke-width="13.415" stroke="rgb(33,33,33)" fill="none" stroke-linecap="round"></path><path d="M 208.276,242.573 C 210.020,244.650 210.081,244.599 211.814,246.684" stroke-width="13.636" stroke="rgb(33,33,33)" fill="none" stroke-linecap="round"></path><path d="M 211.814,246.684 C 212.927,248.023 212.905,248.042 213.967,249.421" stroke-width="13.892" stroke="rgb(33,33,33)" fill="none" stroke-linecap="round"></path><path d="M 213.967,249.421 C 214.557,250.187 214.702,250.124 215.118,250.974" stroke-width="14.634" stroke="rgb(33,33,33)" fill="none" stroke-linecap="round"></path><path d="M 215.118,250.974 C 215.452,251.657 215.377,251.721 215.467,252.488" stroke-width="15.302" stroke="rgb(33,33,33)" fill="none" stroke-linecap="round"></path><path d="M 215.467,252.488 C 215.551,253.201 215.820,253.343 215.467,253.934" stroke-width="15.874" stroke="rgb(33,33,33)" fill="none" stroke-linecap="round"></path><path d="M 215.467,253.934 C 214.449,255.640 214.188,255.596 212.725,257.081" stroke-width="15.983" stroke="rgb(33,33,33)" fill="none" stroke-linecap="round"></path><path d="M 212.725,257.081 C 210.350,259.493 210.500,259.737 207.791,261.728" stroke-width="15.880" stroke="rgb(33,33,33)" fill="none" stroke-linecap="round"></path><path d="M 207.791,261.728 C 205.291,263.566 205.160,263.495 202.307,264.739" stroke-width="15.597" stroke="rgb(33,33,33)" fill="none" stroke-linecap="round"></path><path d="M 202.307,264.739 C 200.022,265.736 199.916,265.489 197.516,266.209" stroke-width="15.680" stroke="rgb(33,33,33)" fill="none" stroke-linecap="round"></path><path d="M 197.516,266.209 C 195.291,266.876 195.300,266.913 193.056,267.513" stroke-width="15.878" stroke="rgb(33,33,33)" fill="none" stroke-linecap="round"></path><path d="M 193.056,267.513 C 190.853,268.102 190.835,268.031 188.623,268.586" stroke-width="15.933" stroke="rgb(33,33,33)" fill="none" stroke-linecap="round"></path><path d="M 188.623,268.586 C 186.545,269.107 186.567,269.205 184.477,269.666" stroke-width="15.896" stroke="rgb(33,33,33)" fill="none" stroke-linecap="round"></path><path d="M 184.477,269.666 C 182.452,270.113 182.433,270.025 180.393,270.402" stroke-width="16.063" stroke="rgb(33,33,33)" fill="none" stroke-linecap="round"></path><path d="M 180.393,270.402 C 178.837,270.690 178.839,270.702 177.284,270.995" stroke-width="16.367" stroke="rgb(33,33,33)" fill="none" stroke-linecap="round"></path><path d="M 177.284,270.995 C 175.777,271.278 175.747,271.162 174.269,271.554" stroke-width="16.546" stroke="rgb(33,33,33)" fill="none" stroke-linecap="round"></path><path d="M 174.269,271.554 C 172.786,271.948 172.789,271.992 171.363,272.567" stroke-width="16.715" stroke="rgb(33,33,33)" fill="none" stroke-linecap="round"></path><path d="M 171.363,272.567 C 169.701,273.237 169.645,273.154 168.094,274.044" stroke-width="16.778" stroke="rgb(33,33,33)" fill="none" stroke-linecap="round"></path><path d="M 168.094,274.044 C 165.889,275.310 165.897,275.359 163.851,276.878" stroke-width="16.568" stroke="rgb(33,33,33)" fill="none" stroke-linecap="round"></path><path d="M 163.851,276.878 C 161.742,278.444 161.806,278.532 159.784,280.214" stroke-width="16.522" stroke="rgb(33,33,33)" fill="none" stroke-linecap="round"></path><path d="M 159.784,280.214 C 158.432,281.338 158.417,281.323 157.102,282.490" stroke-width="16.498" stroke="rgb(33,33,33)" fill="none" stroke-linecap="round"></path><path d="M 157.102,282.490 C 156.284,283.215 156.351,283.295 155.518,283.998" stroke-width="16.788" stroke="rgb(33,33,33)" fill="none" stroke-linecap="round"></path><path d="M 155.518,283.998 C 155.029,284.411 154.953,284.318 154.457,284.721" stroke-width="17.193" stroke="rgb(33,33,33)" fill="none" stroke-linecap="round"></path><path d="M 154.457,284.721 C 154.049,285.053 154.036,285.062 153.710,285.469" stroke-width="17.566" stroke="rgb(33,33,33)" fill="none" stroke-linecap="round"></path><path d="M 153.710,285.469 C 153.570,285.645 153.645,285.694 153.525,285.886" stroke-width="17.958" stroke="rgb(33,33,33)" fill="none" stroke-linecap="round"></path><path d="M 153.525,285.886 C 153.386,286.108 153.367,286.099 153.191,286.296" stroke-width="18.290" stroke="rgb(33,33,33)" fill="none" stroke-linecap="round"></path><path d="M 153.191,286.296 C 152.950,286.566 152.922,286.543 152.692,286.820" stroke-width="18.497" stroke="rgb(33,33,33)" fill="none" stroke-linecap="round"></path><path d="M 152.692,286.820 C 152.589,286.943 152.654,287.064 152.525,287.096" stroke-width="18.757" stroke="rgb(33,33,33)" fill="none" stroke-linecap="round"></path><path d="M 152.525,287.096 C 152.321,287.147 152.122,286.922 152.026,286.987" stroke-width="18.947" stroke="rgb(33,33,33)" fill="none" stroke-linecap="round"></path><path d="M 152.026,286.987 C 151.956,287.034 152.148,287.144 152.192,287.320" stroke-width="19.114" stroke="rgb(33,33,33)" fill="none" stroke-linecap="round"></path><path d="M 152.192,287.320 C 152.231,287.477 152.093,287.725 152.192,287.653" stroke-width="19.301" stroke="rgb(33,33,33)" fill="none" stroke-linecap="round"></path><path d="M 152.192,287.653 C 152.708,287.277 152.820,287.051 153.422,286.423" stroke-width="19.386" stroke="rgb(33,33,33)" fill="none" stroke-linecap="round"></path><path d="M 153.422,286.423 C 157.438,282.234 157.478,282.271 161.428,278.020" stroke-width="16.476" stroke="rgb(33,33,33)" fill="none" stroke-linecap="round"></path><path d="M 161.428,278.020 C 169.349,269.494 169.081,269.237 177.163,260.868" stroke-width="13.897" stroke="rgb(33,33,33)" fill="none" stroke-linecap="round"></path><path d="M 177.163,260.868 C 185.329,252.412 185.352,252.414 193.924,244.370" stroke-width="12.739" stroke="rgb(33,33,33)" fill="none" stroke-linecap="round"></path><path d="M 193.924,244.370 C 201.940,236.847 202.026,236.930 210.340,229.734" stroke-width="11.702" stroke="rgb(33,33,33)" fill="none" stroke-linecap="round"></path><path d="M 210.340,229.734 C 218.176,222.952 218.380,223.188 226.224,216.414" stroke-width="11.524" stroke="rgb(33,33,33)" fill="none" stroke-linecap="round"></path><path d="M 226.224,216.414 C 233.757,209.909 233.709,209.851 241.093,203.176" stroke-width="10.591" stroke="rgb(33,33,33)" fill="none" stroke-linecap="round"></path><path d="M 241.093,203.176 C 246.704,198.104 246.695,198.092 252.215,192.920" stroke-width="10.766" stroke="rgb(33,33,33)" fill="none" stroke-linecap="round"></path><path d="M 252.215,192.920 C 256.193,189.192 256.048,189.032 260.089,185.376" stroke-width="11.253" stroke="rgb(33,33,33)" fill="none" stroke-linecap="round"></path><path d="M 260.089,185.376 C 263.237,182.528 263.252,182.526 266.593,179.913" stroke-width="11.499" stroke="rgb(33,33,33)" fill="none" stroke-linecap="round"></path><path d="M 266.593,179.913 C 268.070,178.758 268.110,178.790 269.724,177.839" stroke-width="12.269" stroke="rgb(33,33,33)" fill="none" stroke-linecap="round"></path><path d="M 269.724,177.839 C 270.683,177.274 270.759,177.409 271.740,176.882" stroke-width="13.135" stroke="rgb(33,33,33)" fill="none" stroke-linecap="round"></path><path d="M 271.740,176.882 C 272.349,176.555 272.336,176.526 272.905,176.132" stroke-width="13.969" stroke="rgb(33,33,33)" fill="none" stroke-linecap="round"></path><path d="M 272.905,176.132 C 273.173,175.946 273.128,175.841 273.414,175.722" stroke-width="14.836" stroke="rgb(33,33,33)" fill="none" stroke-linecap="round"></path><path d="M 273.414,175.722 C 273.632,175.631 273.663,175.715 273.913,175.711" stroke-width="15.603" stroke="rgb(33,33,33)" fill="none" stroke-linecap="round"></path><path d="M 200.148,195.701 C 206.625,197.223 207.022,196.339 213.103,198.746" stroke-width="19.675" stroke="rgb(33,33,33)" fill="none" stroke-linecap="round"></path><path d="M 213.103,198.746 C 216.901,200.249 216.640,200.964 219.905,203.522" stroke-width="18.301" stroke="rgb(33,33,33)" fill="none" stroke-linecap="round"></path><path d="M 219.905,203.522 C 222.196,205.316 222.091,205.453 224.214,207.450" stroke-width="17.752" stroke="rgb(33,33,33)" fill="none" stroke-linecap="round"></path><path d="M 224.214,207.450 C 225.298,208.470 225.217,208.560 226.319,209.556" stroke-width="17.702" stroke="rgb(33,33,33)" fill="none" stroke-linecap="round"></path><path d="M 226.319,209.556 C 226.934,210.111 226.936,210.160 227.648,210.552" stroke-width="17.879" stroke="rgb(33,33,33)" fill="none" stroke-linecap="round"></path><path d="M 227.648,210.552 C 227.969,210.729 228.031,210.742 228.385,210.693" stroke-width="18.143" stroke="rgb(33,33,33)" fill="none" stroke-linecap="round"></path><path d="M 228.385,210.693 C 228.776,210.639 228.817,210.599 229.137,210.345" stroke-width="18.429" stroke="rgb(33,33,33)" fill="none" stroke-linecap="round"></path><path d="M 229.137,210.345 C 229.787,209.829 229.772,209.786 230.326,209.154" stroke-width="18.384" stroke="rgb(33,33,33)" fill="none" stroke-linecap="round"></path><path d="M 230.326,209.154 C 231.486,207.830 231.493,207.830 232.565,206.433" stroke-width="17.996" stroke="rgb(33,33,33)" fill="none" stroke-linecap="round"></path><path d="M 232.565,206.433 C 233.902,204.689 233.792,204.603 235.144,202.871" stroke-width="17.623" stroke="rgb(33,33,33)" fill="none" stroke-linecap="round"></path><path d="M 235.144,202.871 C 236.499,201.136 236.493,201.123 237.979,199.500" stroke-width="17.408" stroke="rgb(33,33,33)" fill="none" stroke-linecap="round"></path><path d="M 237.979,199.500 C 239.403,197.944 239.337,197.843 240.964,196.514" stroke-width="17.233" stroke="rgb(33,33,33)" fill="none" stroke-linecap="round"></path><path d="M 240.964,196.514 C 242.689,195.104 242.777,195.193 244.684,194.022" stroke-width="17.020" stroke="rgb(33,33,33)" fill="none" stroke-linecap="round"></path><path d="M 244.684,194.022 C 247.160,192.502 247.240,192.633 249.729,191.133" stroke-width="16.694" stroke="rgb(33,33,33)" fill="none" stroke-linecap="round"></path><path d="M 249.729,191.133 C 252.975,189.178 253.063,189.297 256.154,187.112" stroke-width="16.140" stroke="rgb(33,33,33)" fill="none" stroke-linecap="round"></path><path d="M 256.154,187.112 C 259.797,184.537 259.773,184.480 263.196,181.614" stroke-width="15.712" stroke="rgb(33,33,33)" fill="none" stroke-linecap="round"></path><path d="M 263.196,181.614 C 267.282,178.193 267.320,178.218 271.172,174.538" stroke-width="15.138" stroke="rgb(33,33,33)" fill="none" stroke-linecap="round"></path><path d="M 271.172,174.538 C 274.551,171.310 274.343,171.096 277.659,167.799" stroke-width="14.796" stroke="rgb(33,33,33)" fill="none" stroke-linecap="round"></path><path d="M 277.659,167.799 C 281.029,164.449 281.102,164.522 284.545,161.244" stroke-width="14.154" stroke="rgb(33,33,33)" fill="none" stroke-linecap="round"></path><path d="M 284.545,161.244 C 287.679,158.260 287.660,158.240 290.812,155.276" stroke-width="14.191" stroke="rgb(33,33,33)" fill="none" stroke-linecap="round"></path><path d="M 290.812,155.276 C 293.606,152.649 293.586,152.626 296.437,150.061" stroke-width="14.278" stroke="rgb(33,33,33)" fill="none" stroke-linecap="round"></path><path d="M 296.437,150.061 C 299.300,147.486 299.246,147.413 302.240,144.996" stroke-width="14.304" stroke="rgb(33,33,33)" fill="none" stroke-linecap="round"></path><path d="M 302.240,144.996 C 304.820,142.913 304.890,142.997 307.585,141.060" stroke-width="14.565" stroke="rgb(33,33,33)" fill="none" stroke-linecap="round"></path><path d="M 307.585,141.060 C 309.770,139.490 309.796,139.527 311.999,137.983" stroke-width="14.516" stroke="rgb(33,33,33)" fill="none" stroke-linecap="round"></path><path d="M 311.999,137.983 C 313.376,137.018 313.378,137.020 314.745,136.041" stroke-width="14.963" stroke="rgb(33,33,33)" fill="none" stroke-linecap="round"></path><path d="M 314.745,136.041 C 315.452,135.535 315.433,135.507 316.148,135.012" stroke-width="15.586" stroke="rgb(33,33,33)" fill="none" stroke-linecap="round"></path><path d="M 316.148,135.012 C 316.496,134.771 316.504,134.781 316.871,134.568" stroke-width="16.227" stroke="rgb(33,33,33)" fill="none" stroke-linecap="round"></path><path d="M 316.871,134.568 C 317.237,134.355 317.222,134.307 317.613,134.160" stroke-width="16.759" stroke="rgb(33,33,33)" fill="none" stroke-linecap="round"></path><path d="M 317.613,134.160 C 317.889,134.056 317.971,134.198 318.205,134.066" stroke-width="17.269" stroke="rgb(33,33,33)" fill="none" stroke-linecap="round"></path></svg>