<svg xmlns="http://www.w3.org/2000/svg" xmlns:xlink="http://www.w3.org/1999/xlink" viewBox="0 0 320 500"><path d="M 86.000,158.000 C 81.500,156.500 81.553,155.650 77.000,155.000" stroke-width="19.495" stroke="rgb(33,33,33)" fill="none" stroke-linecap="round"></path><path d="M 77.000,155.000 C 74.553,154.650 74.278,154.964 72.000,156.000" stroke-width="18.498" stroke="rgb(33,33,33)" fill="none" stroke-linecap="round"></path><path d="M 72.000,156.000 C 68.778,157.464 68.809,157.753 66.000,160.000" stroke-width="17.448" stroke="rgb(33,33,33)" fill="none" stroke-linecap="round"></path><path d="M 66.000,160.000 C 61.309,163.753 60.930,163.481 57.000,168.000" stroke-width="15.833" stroke="rgb(33,33,33)" fill="none" stroke-linecap="round"></path><path d="M 57.000,168.000 C 50.930,174.981 51.154,175.268 46.000,183.000" stroke-width="14.043" stroke="rgb(33,33,33)" fill="none" stroke-linecap="round"></path><path d="M 46.000,183.000 C 40.154,191.768 40.678,192.113 35.000,201.000" stroke-width="12.386" stroke="rgb(33,33,33)" fill="none" stroke-linecap="round"></path><path d="M 35.000,201.000 C 29.178,210.113 28.120,209.527 23.000,219.000" stroke-width="11.583" stroke="rgb(33,33,33)" fill="none" stroke-linecap="round"></path><path d="M 23.000,219.000 C 18.120,228.027 18.423,228.303 15.000,238.000" stroke-width="10.909" stroke="rgb(33,33,33)" fill="none" stroke-linecap="round"></path><path d="M 15.000,238.000 C 12.423,245.303 12.157,245.366 11.000,253.000" stroke-width="10.842" stroke="rgb(33,33,33)" fill="none" stroke-linecap="round"></path><path d="M 11.000,253.000 C 9.657,261.866 10.000,262.004 10.000,271.000" stroke-width="10.623" stroke="rgb(33,33,33)" fill="none" stroke-linecap="round"></path><path d="M 10.000,271.000 C 10.000,278.004 8.516,278.789 11.000,285.000" stroke-width="10.714" stroke="rgb(33,33,33)" fill="none" stroke-linecap="round"></path><path d="M 11.000,285.000 C 13.516,291.289 14.782,291.331 20.000,296.000" stroke-width="10.775" stroke="rgb(33,33,33)" fill="none" stroke-linecap="round"></path><path d="M 20.000,296.000 C 24.282,299.831 24.761,299.519 30.000,302.000" stroke-width="10.951" stroke="rgb(33,33,33)" fill="none" stroke-linecap="round"></path><path d="M 30.000,302.000 C 34.261,304.019 34.369,304.305 39.000,305.000" stroke-width="11.307" stroke="rgb(33,33,33)" fill="none" stroke-linecap="round"></path><path d="M 39.000,305.000 C 44.369,305.805 44.671,305.969 50.000,305.000" stroke-width="11.491" stroke="rgb(33,33,33)" fill="none" stroke-linecap="round"></path><path d="M 50.000,305.000 C 55.671,303.969 55.934,303.786 61.000,301.000" stroke-width="11.468" stroke="rgb(33,33,33)" fill="none" stroke-linecap="round"></path><path d="M 61.000,301.000 C 65.934,298.286 65.734,297.765 70.000,294.000" stroke-width="11.593" stroke="rgb(33,33,33)" fill="none" stroke-linecap="round"></path><path d="M 70.000,294.000 C 74.234,290.265 74.284,290.247 78.000,286.000" stroke-width="11.702" stroke="rgb(33,33,33)" fill="none" stroke-linecap="round"></path><path d="M 78.000,286.000 C 81.284,282.247 81.550,282.288 84.000,278.000" stroke-width="11.897" stroke="rgb(33,33,33)" fill="none" stroke-linecap="round"></path><path d="M 84.000,278.000 C 85.550,275.288 85.235,275.058 86.000,272.000" stroke-width="12.342" stroke="rgb(33,33,33)" fill="none" stroke-linecap="round"></path><path d="M 86.000,272.000 C 86.735,269.058 86.726,269.019 87.000,266.000" stroke-width="12.783" stroke="rgb(33,33,33)" fill="none" stroke-linecap="round"></path><path d="M 87.000,266.000 C 87.226,263.519 87.306,263.450 87.000,261.000" stroke-width="13.237" stroke="rgb(33,33,33)" fill="none" stroke-linecap="round"></path><path d="M 87.000,261.000 C 86.806,259.450 87.197,258.684 86.000,258.000" stroke-width="13.880" stroke="rgb(33,33,33)" fill="none" stroke-linecap="round"></path><path d="M 86.000,258.000 C 83.697,256.684 83.022,257.232 80.000,257.000" stroke-width="14.075" stroke="rgb(33,33,33)" fill="none" stroke-linecap="round"></path><path d="M 80.000,257.000 C 76.522,256.732 76.415,256.475 73.000,257.000" stroke-width="14.077" stroke="rgb(33,33,33)" fill="none" stroke-linecap="round"></path><path d="M 73.000,257.000 C 69.915,257.475 69.597,257.348 67.000,259.000" stroke-width="14.208" stroke="rgb(33,33,33)" fill="none" stroke-linecap="round"></path><path d="M 67.000,259.000 C 64.097,260.848 63.895,261.157 62.000,264.000" stroke-width="14.227" stroke="rgb(33,33,33)" fill="none" stroke-linecap="round"></path><path d="M 62.000,264.000 C 60.895,265.657 61.566,266.019 61.000,268.000" stroke-width="14.566" stroke="rgb(33,33,33)" fill="none" stroke-linecap="round"></path><path d="M 61.000,268.000 C 60.566,269.519 60.380,269.481 60.000,271.000" stroke-width="15.007" stroke="rgb(33,33,33)" fill="none" stroke-linecap="round"></path><path d="M 60.000,271.000 C 59.880,271.481 59.600,271.900 60.000,272.000" stroke-width="15.682" stroke="rgb(33,33,33)" fill="none" stroke-linecap="round"></path><path d="M 60.000,272.000 C 61.600,272.400 62.000,272.000 64.000,272.000" stroke-width="15.783" stroke="rgb(33,33,33)" fill="none" stroke-linecap="round"></path><path d="M 64.000,272.000 C 67.500,272.000 67.979,273.295 71.000,272.000" stroke-width="15.473" stroke="rgb(33,33,33)" fill="none" stroke-linecap="round"></path><path d="M 71.000,272.000 C 74.979,270.295 74.402,268.878 78.000,266.000" stroke-width="14.939" stroke="rgb(33,33,33)" fill="none" stroke-linecap="round"></path><path d="M 78.000,266.000 C 81.902,262.878 82.514,263.486 86.000,260.000" stroke-width="14.368" stroke="rgb(33,33,33)" fill="none" stroke-linecap="round"></path><path d="M 86.000,260.000 C 88.514,257.486 88.000,257.000 90.000,254.000" stroke-width="14.338" stroke="rgb(33,33,33)" fill="none" stroke-linecap="round"></path><path d="M 90.000,254.000 C 92.000,251.000 92.187,251.108 94.000,248.000" stroke-width="14.314" stroke="rgb(33,33,33)" fill="none" stroke-linecap="round"></path><path d="M 94.000,248.000 C 95.687,245.108 95.500,245.000 97.000,242.000" stroke-width="14.305" stroke="rgb(33,33,33)" fill="none" stroke-linecap="round"></path><path d="M 97.000,242.000 C 98.000,240.000 98.093,240.042 99.000,238.000" stroke-width="14.620" stroke="rgb(33,33,33)" fill="none" stroke-linecap="round"></path><path d="M 99.000,238.000 C 100.093,235.542 99.940,235.473 101.000,233.000" stroke-width="14.803" stroke="rgb(33,33,33)" fill="none" stroke-linecap="round"></path><path d="M 101.000,233.000 C 101.440,231.973 101.338,231.883 102.000,231.000" stroke-width="15.314" stroke="rgb(33,33,33)" fill="none" stroke-linecap="round"></path><path d="M 102.000,231.000 C 102.838,229.883 103.121,230.099 104.000,229.000" stroke-width="15.659" stroke="rgb(33,33,33)" fill="none" stroke-linecap="round"></path><path d="M 104.000,229.000 C 105.121,227.599 104.953,227.466 106.000,226.000" stroke-width="15.858" stroke="rgb(33,33,33)" fill="none" stroke-linecap="round"></path><path d="M 106.000,226.000 C 107.453,223.966 107.439,223.952 109.000,222.000" stroke-width="15.856" stroke="rgb(33,33,33)" fill="none" stroke-linecap="round"></path><path d="M 109.000,222.000 C 111.439,218.952 111.902,219.263 114.000,216.000" stroke-width="15.273" stroke="rgb(33,33,33)" fill="none" stroke-linecap="round"></path><path d="M 114.000,216.000 C 116.402,212.263 116.185,212.083 118.000,208.000" stroke-width="14.889" stroke="rgb(33,33,33)" fill="none" stroke-linecap="round"></path><path d="M 118.000,208.000 C 120.185,203.083 120.528,203.152 122.000,198.000" stroke-width="14.234" stroke="rgb(33,33,33)" fill="none" stroke-linecap="round"></path><path d="M 122.000,198.000 C 123.528,192.652 123.000,192.500 124.000,187.000" stroke-width="13.702" stroke="rgb(33,33,33)" fill="none" stroke-linecap="round"></path><path d="M 124.000,187.000 C 125.000,181.500 125.245,181.533 126.000,176.000" stroke-width="13.377" stroke="rgb(33,33,33)" fill="none" stroke-linecap="round"></path><path d="M 126.000,176.000 C 126.745,170.533 126.355,170.481 127.000,165.000" stroke-width="13.072" stroke="rgb(33,33,33)" fill="none" stroke-linecap="round"></path><path d="M 127.000,165.000 C 127.355,161.981 127.665,162.014 128.000,159.000" stroke-width="13.438" stroke="rgb(33,33,33)" fill="none" stroke-linecap="round"></path><path d="M 128.000,159.000 C 128.165,157.514 128.000,155.029 128.000,156.000" stroke-width="14.033" stroke="rgb(33,33,33)" fill="none" stroke-linecap="round"></path><path d="M 128.000,156.000 C 128.000,160.529 128.481,163.032 128.000,170.000" stroke-width="14.346" stroke="rgb(33,33,33)" fill="none" stroke-linecap="round"></path><path d="M 128.000,170.000 C 127.481,177.532 126.443,177.463 126.000,185.000" stroke-width="13.435" stroke="rgb(33,33,33)" fill="none" stroke-linecap="round"></path><path d="M 126.000,185.000 C 125.443,194.463 126.000,194.500 126.000,204.000" stroke-width="12.323" stroke="rgb(33,33,33)" fill="none" stroke-linecap="round"></path><path d="M 126.000,204.000 C 126.000,213.000 126.000,213.000 126.000,222.000" stroke-width="11.729" stroke="rgb(33,33,33)" fill="none" stroke-linecap="round"></path><path d="M 126.000,222.000 C 126.000,230.500 125.454,230.539 126.000,239.000" stroke-width="11.290" stroke="rgb(33,33,33)" fill="none" stroke-linecap="round"></path><path d="M 126.000,239.000 C 126.454,246.039 126.089,246.312 128.000,253.000" stroke-width="11.300" stroke="rgb(33,33,33)" fill="none" stroke-linecap="round"></path><path d="M 128.000,253.000 C 129.089,256.812 129.649,256.768 132.000,260.000" stroke-width="11.675" stroke="rgb(33,33,33)" fill="none" stroke-linecap="round"></path><path d="M 132.000,260.000 C 133.649,262.268 133.686,262.554 136.000,264.000" stroke-width="12.242" stroke="rgb(33,33,33)" fill="none" stroke-linecap="round"></path><path d="M 136.000,264.000 C 137.686,265.054 137.964,264.796 140.000,265.000" stroke-width="12.859" stroke="rgb(33,33,33)" fill="none" stroke-linecap="round"></path><path d="M 140.000,265.000 C 142.964,265.296 143.975,266.657 146.000,265.000" stroke-width="13.232" stroke="rgb(33,33,33)" fill="none" stroke-linecap="round"></path><path d="M 146.000,265.000 C 149.475,262.157 148.700,260.600 151.000,256.000" stroke-width="13.039" stroke="rgb(33,33,33)" fill="none" stroke-linecap="round"></path><path d="M 151.000,256.000 C 153.200,251.600 153.450,251.649 155.000,247.000" stroke-width="13.049" stroke="rgb(33,33,33)" fill="none" stroke-linecap="round"></path><path d="M 155.000,247.000 C 156.450,242.649 155.882,242.470 157.000,238.000" stroke-width="13.008" stroke="rgb(33,33,33)" fill="none" stroke-linecap="round"></path><path d="M 157.000,238.000 C 157.882,234.470 158.183,234.541 159.000,231.000" stroke-width="13.226" stroke="rgb(33,33,33)" fill="none" stroke-linecap="round"></path><path d="M 159.000,231.000 C 159.683,228.041 159.404,227.980 160.000,225.000" stroke-width="13.533" stroke="rgb(33,33,33)" fill="none" stroke-linecap="round"></path><path d="M 160.000,225.000 C 160.404,222.980 160.598,223.012 161.000,221.000" stroke-width="13.979" stroke="rgb(33,33,33)" fill="none" stroke-linecap="round"></path><path d="M 161.000,221.000 C 161.098,220.512 161.155,219.845 161.000,220.000" stroke-width="14.766" stroke="rgb(33,33,33)" fill="none" stroke-linecap="round"></path><path d="M 161.000,220.000 C 160.655,220.345 160.352,220.943 160.000,222.000" stroke-width="15.455" stroke="rgb(33,33,33)" fill="none" stroke-linecap="round"></path><path d="M 160.000,222.000 C 158.852,225.443 158.593,225.443 158.000,229.000" stroke-width="15.121" stroke="rgb(33,33,33)" fill="none" stroke-linecap="round"></path><path d="M 158.000,229.000 C 157.593,231.443 158.000,231.500 158.000,234.000" stroke-width="15.223" stroke="rgb(33,33,33)" fill="none" stroke-linecap="round"></path><path d="M 158.000,234.000 C 158.000,236.500 158.000,236.500 158.000,239.000" stroke-width="15.344" stroke="rgb(33,33,33)" fill="none" stroke-linecap="round"></path><path d="M 158.000,239.000 C 158.000,240.500 157.270,241.026 158.000,242.000" stroke-width="15.658" stroke="rgb(33,33,33)" fill="none" stroke-linecap="round"></path><path d="M 158.000,242.000 C 158.770,243.026 159.447,242.827 161.000,243.000" stroke-width="15.893" stroke="rgb(33,33,33)" fill="none" stroke-linecap="round"></path><path d="M 161.000,243.000 C 163.947,243.327 164.635,244.380 167.000,243.000" stroke-width="15.699" stroke="rgb(33,33,33)" fill="none" stroke-linecap="round"></path><path d="M 167.000,243.000 C 170.635,240.880 170.514,239.841 173.000,236.000" stroke-width="15.031" stroke="rgb(33,33,33)" fill="none" stroke-linecap="round"></path><path d="M 173.000,236.000 C 176.014,231.341 175.621,231.056 178.000,226.000" stroke-width="14.369" stroke="rgb(33,33,33)" fill="none" stroke-linecap="round"></path><path d="M 178.000,226.000 C 179.621,222.556 179.888,222.614 181.000,219.000" stroke-width="14.341" stroke="rgb(33,33,33)" fill="none" stroke-linecap="round"></path><path d="M 181.000,219.000 C 181.888,216.114 181.456,215.992 182.000,213.000" stroke-width="14.406" stroke="rgb(33,33,33)" fill="none" stroke-linecap="round"></path><path d="M 182.000,213.000 C 182.456,210.492 182.305,210.433 183.000,208.000" stroke-width="14.626" stroke="rgb(33,33,33)" fill="none" stroke-linecap="round"></path><path d="M 183.000,208.000 C 183.305,206.933 183.309,206.691 184.000,206.000" stroke-width="15.162" stroke="rgb(33,33,33)" fill="none" stroke-linecap="round"></path><path d="M 184.000,206.000 C 184.309,205.691 184.760,205.640 185.000,206.000" stroke-width="15.891" stroke="rgb(33,33,33)" fill="none" stroke-linecap="round"></path><path d="M 185.000,206.000 C 185.760,207.140 185.299,207.598 186.000,209.000" stroke-width="16.114" stroke="rgb(33,33,33)" fill="none" stroke-linecap="round"></path><path d="M 186.000,209.000 C 186.799,210.598 186.750,210.750 188.000,212.000" stroke-width="16.195" stroke="rgb(33,33,33)" fill="none" stroke-linecap="round"></path><path d="M 188.000,212.000 C 189.250,213.250 189.402,213.201 191.000,214.000" stroke-width="16.295" stroke="rgb(33,33,33)" fill="none" stroke-linecap="round"></path><path d="M 191.000,214.000 C 192.402,214.701 192.455,214.779 194.000,215.000" stroke-width="16.414" stroke="rgb(33,33,33)" fill="none" stroke-linecap="round"></path><path d="M 194.000,215.000 C 195.955,215.279 196.111,215.472 198.000,215.000" stroke-width="16.410" stroke="rgb(33,33,33)" fill="none" stroke-linecap="round"></path><path d="M 198.000,215.000 C 200.111,214.472 200.150,214.234 202.000,213.000" stroke-width="16.333" stroke="rgb(33,33,33)" fill="none" stroke-linecap="round"></path><path d="M 202.000,213.000 C 204.650,211.234 204.754,211.246 207.000,209.000" stroke-width="15.921" stroke="rgb(33,33,33)" fill="none" stroke-linecap="round"></path><path d="M 207.000,209.000 C 208.754,207.246 208.377,206.893 210.000,205.000" stroke-width="15.865" stroke="rgb(33,33,33)" fill="none" stroke-linecap="round"></path><path d="M 210.000,205.000 C 211.377,203.393 211.500,203.500 213.000,202.000" stroke-width="15.932" stroke="rgb(33,33,33)" fill="none" stroke-linecap="round"></path><path d="M 213.000,202.000 C 214.000,201.000 214.162,201.117 215.000,200.000" stroke-width="16.172" stroke="rgb(33,33,33)" fill="none" stroke-linecap="round"></path><path d="M 215.000,200.000 C 215.662,199.117 215.387,198.919 216.000,198.000" stroke-width="16.490" stroke="rgb(33,33,33)" fill="none" stroke-linecap="round"></path><path d="M 216.000,198.000 C 216.387,197.419 216.500,197.500 217.000,197.000" stroke-width="16.888" stroke="rgb(33,33,33)" fill="none" stroke-linecap="round"></path><path d="M 217.000,197.000 C 217.500,196.500 217.419,196.387 218.000,196.000" stroke-width="17.340" stroke="rgb(33,33,33)" fill="none" stroke-linecap="round"></path><path d="M 218.000,196.000 C 218.919,195.387 219.117,195.662 220.000,195.000" stroke-width="17.448" stroke="rgb(33,33,33)" fill="none" stroke-linecap="round"></path><path d="M 220.000,195.000 C 221.117,194.162 221.000,194.000 222.000,193.000" stroke-width="17.400" stroke="rgb(33,33,33)" fill="none" stroke-linecap="round"></path><path d="M 222.000,193.000 C 224.000,191.000 224.215,191.182 226.000,189.000" stroke-width="16.909" stroke="rgb(33,33,33)" fill="none" stroke-linecap="round"></path><path d="M 226.000,189.000 C 228.715,185.682 228.794,185.677 231.000,182.000" stroke-width="16.081" stroke="rgb(33,33,33)" fill="none" stroke-linecap="round"></path><path d="M 231.000,182.000 C 233.294,178.177 233.881,178.251 235.000,174.000" stroke-width="15.350" stroke="rgb(33,33,33)" fill="none" stroke-linecap="round"></path><path d="M 235.000,174.000 C 236.381,168.751 235.724,168.510 236.000,163.000" stroke-width="14.617" stroke="rgb(33,33,33)" fill="none" stroke-linecap="round"></path><path d="M 236.000,163.000 C 236.224,158.510 236.000,158.500 236.000,154.000" stroke-width="14.253" stroke="rgb(33,33,33)" fill="none" stroke-linecap="round"></path><path d="M 236.000,154.000 C 236.000,150.500 236.000,150.500 236.000,147.000" stroke-width="14.271" stroke="rgb(33,33,33)" fill="none" stroke-linecap="round"></path><path d="M 236.000,147.000 C 236.000,145.000 236.000,145.000 236.000,143.000" stroke-width="14.650" stroke="rgb(33,33,33)" fill="none" stroke-linecap="round"></path><path d="M 236.000,143.000 C 236.000,141.500 236.000,141.500 236.000,140.000" stroke-width="15.075" stroke="rgb(33,33,33)" fill="none" stroke-linecap="round"></path><path d="M 236.000,140.000 C 236.000,139.500 235.950,138.602 236.000,139.000" stroke-width="15.742" stroke="rgb(33,33,33)" fill="none" stroke-linecap="round"></path><path d="M 236.000,139.000 C 236.450,142.602 236.215,143.551 237.000,148.000" stroke-width="15.791" stroke="rgb(33,33,33)" fill="none" stroke-linecap="round"></path><path d="M 237.000,148.000 C 237.715,152.051 238.548,151.933 239.000,156.000" stroke-width="15.237" stroke="rgb(33,33,33)" fill="none" stroke-linecap="round"></path><path d="M 239.000,156.000 C 239.548,160.933 238.738,161.015 239.000,166.000" stroke-width="14.665" stroke="rgb(33,33,33)" fill="none" stroke-linecap="round"></path><path d="M 239.000,166.000 C 239.238,170.515 239.678,170.490 240.000,175.000" stroke-width="14.349" stroke="rgb(33,33,33)" fill="none" stroke-linecap="round"></path><path d="M 240.000,175.000 C 240.178,177.490 240.000,177.500 240.000,180.000" stroke-width="14.553" stroke="rgb(33,33,33)" fill="none" stroke-linecap="round"></path><path d="M 240.000,180.000 C 240.000,182.500 240.000,182.500 240.000,185.000" stroke-width="14.720" stroke="rgb(33,33,33)" fill="none" stroke-linecap="round"></path><path d="M 240.000,185.000 C 240.000,186.000 239.667,186.333 240.000,187.000" stroke-width="15.294" stroke="rgb(33,33,33)" fill="none" stroke-linecap="round"></path><path d="M 240.000,187.000 C 240.167,187.333 240.624,187.300 241.000,187.000" stroke-width="16.008" stroke="rgb(33,33,33)" fill="none" stroke-linecap="round"></path><path d="M 241.000,187.000 C 243.124,185.300 243.000,185.000 245.000,183.000" stroke-width="15.787" stroke="rgb(33,33,33)" fill="none" stroke-linecap="round"></path><path d="M 245.000,183.000 C 247.500,180.500 247.772,180.723 250.000,178.000" stroke-width="15.405" stroke="rgb(33,33,33)" fill="none" stroke-linecap="round"></path><path d="M 250.000,178.000 C 252.272,175.223 251.638,174.657 254.000,172.000" stroke-width="15.152" stroke="rgb(33,33,33)" fill="none" stroke-linecap="round"></path><path d="M 254.000,172.000 C 255.638,170.157 255.856,170.225 258.000,169.000" stroke-width="15.206" stroke="rgb(33,33,33)" fill="none" stroke-linecap="round"></path><path d="M 258.000,169.000 C 259.356,168.225 259.481,168.380 261.000,168.000" stroke-width="15.571" stroke="rgb(33,33,33)" fill="none" stroke-linecap="round"></path><path d="M 261.000,168.000 C 261.481,167.880 261.917,167.583 262.000,168.000" stroke-width="16.163" stroke="rgb(33,33,33)" fill="none" stroke-linecap="round"></path><path d="M 262.000,168.000 C 262.417,170.083 262.248,170.525 262.000,173.000" stroke-width="16.057" stroke="rgb(33,33,33)" fill="none" stroke-linecap="round"></path><path d="M 262.000,173.000 C 261.748,175.525 262.010,175.728 261.000,178.000" stroke-width="15.912" stroke="rgb(33,33,33)" fill="none" stroke-linecap="round"></path><path d="M 261.000,178.000 C 260.010,180.228 259.535,180.027 258.000,182.000" stroke-width="15.858" stroke="rgb(33,33,33)" fill="none" stroke-linecap="round"></path><path d="M 258.000,182.000 C 256.035,184.527 256.239,184.761 254.000,187.000" stroke-width="15.558" stroke="rgb(33,33,33)" fill="none" stroke-linecap="round"></path><path d="M 254.000,187.000 C 252.739,188.261 252.437,187.923 251.000,189.000" stroke-width="15.775" stroke="rgb(33,33,33)" fill="none" stroke-linecap="round"></path><path d="M 251.000,189.000 C 250.437,189.423 249.729,190.362 250.000,190.000" stroke-width="16.284" stroke="rgb(33,33,33)" fill="none" stroke-linecap="round"></path><path d="M 250.000,190.000 C 251.229,188.362 251.746,187.254 254.000,185.000" stroke-width="16.414" stroke="rgb(33,33,33)" fill="none" stroke-linecap="round"></path><path d="M 254.000,185.000 C 257.246,181.754 257.752,182.248 261.000,179.000" stroke-width="15.632" stroke="rgb(33,33,33)" fill="none" stroke-linecap="round"></path><path d="M 261.000,179.000 C 263.752,176.248 263.928,176.255 266.000,173.000" stroke-width="15.246" stroke="rgb(33,33,33)" fill="none" stroke-linecap="round"></path><path d="M 266.000,173.000 C 267.428,170.755 266.887,170.449 268.000,168.000" stroke-width="15.227" stroke="rgb(33,33,33)" fill="none" stroke-linecap="round"></path><path d="M 268.000,168.000 C 269.387,164.949 269.761,165.097 271.000,162.000" stroke-width="15.080" stroke="rgb(33,33,33)" fill="none" stroke-linecap="round"></path><path d="M 271.000,162.000 C 271.761,160.097 271.280,159.919 272.000,158.000" stroke-width="15.274" stroke="rgb(33,33,33)" fill="none" stroke-linecap="round"></path><path d="M 272.000,158.000 C 272.780,155.919 272.860,155.899 274.000,154.000" stroke-width="15.420" stroke="rgb(33,33,33)" fill="none" stroke-linecap="round"></path><path d="M 274.000,154.000 C 274.360,153.399 274.379,153.207 275.000,153.000" stroke-width="15.980" stroke="rgb(33,33,33)" fill="none" stroke-linecap="round"></path><path d="M 275.000,153.000 C 275.879,152.707 276.000,153.000 277.000,153.000" stroke-width="16.366" stroke="rgb(33,33,33)" fill="none" stroke-linecap="round"></path><path d="M 277.000,153.000 C 278.000,153.000 278.000,153.000 279.000,153.000" stroke-width="16.669" stroke="rgb(33,33,33)" fill="none" stroke-linecap="round"></path><path d="M 279.000,153.000 C 280.000,153.000 280.000,153.000 281.000,153.000" stroke-width="16.940" stroke="rgb(33,33,33)" fill="none" stroke-linecap="round"></path><path d="M 281.000,153.000 C 282.000,153.000 282.056,152.764 283.000,153.000" stroke-width="17.163" stroke="rgb(33,33,33)" fill="none" stroke-linecap="round"></path><path d="M 283.000,153.000 C 284.056,153.264 283.944,153.736 285.000,154.000" stroke-width="17.305" stroke="rgb(33,33,33)" fill="none" stroke-linecap="round"></path><path d="M 285.000,154.000 C 285.944,154.236 286.031,153.806 287.000,154.000" stroke-width="17.440" stroke="rgb(33,33,33)" fill="none" stroke-linecap="round"></path><path d="M 287.000,154.000 C 288.531,154.306 288.444,154.844 290.000,155.000" stroke-width="17.365" stroke="rgb(33,33,33)" fill="none" stroke-linecap="round"></path><path d="M 290.000,155.000 C 293.444,155.344 293.632,155.748 297.000,155.000" stroke-width="16.593" stroke="rgb(33,33,33)" fill="none" stroke-linecap="round"></path><path d="M 297.000,155.000 C 302.632,153.748 303.202,153.999 308.000,151.000" stroke-width="15.411" stroke="rgb(33,33,33)" fill="none" stroke-linecap="round"></path><path d="M 308.000,151.000 C 311.202,148.999 310.408,147.916 313.000,145.000" stroke-width="15.077" stroke="rgb(33,33,33)" fill="none" stroke-linecap="round"></path><path d="M 313.000,145.000 C 314.408,143.416 314.690,143.637 316.000,142.000" stroke-width="15.254" stroke="rgb(33,33,33)" fill="none" stroke-linecap="round"></path><path d="M 316.000,142.000 C 316.690,141.137 316.736,141.056 317.000,140.000" stroke-width="15.698" stroke="rgb(33,33,33)" fill="none" stroke-linecap="round"></path><path d="M 317.000,140.000 C 317.236,139.056 317.000,139.000 317.000,138.000" stroke-width="16.129" stroke="rgb(33,33,33)" fill="none" stroke-linecap="round"></path><path d="M 317.000,138.000 C 317.000,137.500 317.250,137.250 317.000,137.000" stroke-width="16.660" stroke="rgb(33,33,33)" fill="none" stroke-linecap="round"></path><path d="M 317.000,137.000 C 316.750,136.750 316.500,137.000 316.000,137.000" stroke-width="17.090" stroke="rgb(33,33,33)" fill="none" stroke-linecap="round"></path><path d="M 316.000,137.000 C 314.500,137.000 314.362,136.546 313.000,137.000" stroke-width="17.114" stroke="rgb(33,33,33)" fill="none" stroke-linecap="round"></path><path d="M 313.000,137.000 C 311.362,137.546 311.250,137.750 310.000,139.000" stroke-width="16.993" stroke="rgb(33,33,33)" fill="none" stroke-linecap="round"></path><path d="M 310.000,139.000 C 308.750,140.250 308.546,140.362 308.000,142.000" stroke-width="16.935" stroke="rgb(33,33,33)" fill="none" stroke-linecap="round"></path><path d="M 308.000,142.000 C 307.546,143.362 308.000,143.500 308.000,145.000" stroke-width="16.990" stroke="rgb(33,33,33)" fill="none" stroke-linecap="round"></path><path d="M 308.000,145.000 C 308.000,146.000 307.528,146.292 308.000,147.000" stroke-width="17.183" stroke="rgb(33,33,33)" fill="none" stroke-linecap="round"></path><path d="M 308.000,147.000 C 308.528,147.792 309.000,147.500 310.000,148.000" stroke-width="17.321" stroke="rgb(33,33,33)" fill="none" stroke-linecap="round"></path><path d="M 310.000,148.000 C 312.000,149.000 311.927,149.309 314.000,150.000" stroke-width="17.000" stroke="rgb(33,33,33)" fill="none" stroke-linecap="round"></path><path d="M 314.000,150.000 C 314.927,150.309 315.121,149.707 316.000,150.000" stroke-width="17.212" stroke="rgb(33,33,33)" fill="none" stroke-linecap="round"></path><path d="M 316.000,150.000 C 316.621,150.207 316.500,150.500 317.000,151.000" stroke-width="17.490" stroke="rgb(33,33,33)" fill="none" stroke-linecap="round"></path><path d="M 317.000,151.000 C 317.500,151.500 317.707,151.414 318.000,152.000" stroke-width="17.702" stroke="rgb(33,33,33)" fill="none" stroke-linecap="round"></path><path d="M 318.000,152.000 C 318.207,152.414 318.062,152.504 318.000,153.000" stroke-width="17.969" stroke="rgb(33,33,33)" fill="none" stroke-linecap="round"></path><path d="M 318.000,153.000 C 317.562,156.504 318.760,157.066 317.000,160.000" stroke-width="17.093" stroke="rgb(33,33,33)" fill="none" stroke-linecap="round"></path><path d="M 317.000,160.000 C 312.760,167.066 312.174,167.179 306.000,173.000" stroke-width="15.146" stroke="rgb(33,33,33)" fill="none" stroke-linecap="round"></path><path d="M 306.000,173.000 C 294.674,183.679 294.078,183.096 282.000,193.000" stroke-width="12.198" stroke="rgb(33,33,33)" fill="none" stroke-linecap="round"></path><path d="M 282.000,193.000 C 269.078,203.596 269.334,203.941 256.000,214.000" stroke-width="10.407" stroke="rgb(33,33,33)" fill="none" stroke-linecap="round"></path><path d="M 256.000,214.000 C 240.834,225.441 240.771,225.404 225.000,236.000" stroke-width="9.188" stroke="rgb(33,33,33)" fill="none" stroke-linecap="round"></path><path d="M 225.000,236.000 C 208.771,246.904 208.871,247.137 192.000,257.000" stroke-width="8.258" stroke="rgb(33,33,33)" fill="none" stroke-linecap="round"></path><path d="M 192.000,257.000 C 176.371,266.137 176.091,265.677 160.000,274.000" stroke-width="7.825" stroke="rgb(33,33,33)" fill="none" stroke-linecap="round"></path><path d="M 160.000,274.000 C 147.091,280.677 146.653,279.902 134.000,287.000" stroke-width="7.689" stroke="rgb(33,33,33)" fill="none" stroke-linecap="round"></path><path d="M 134.000,287.000 C 126.153,291.402 126.308,291.738 119.000,297.000" stroke-width="8.039" stroke="rgb(33,33,33)" fill="none" stroke-linecap="round"></path><path d="M 119.000,297.000 C 113.808,300.738 113.675,300.685 109.000,305.000" stroke-width="8.559" stroke="rgb(33,33,33)" fill="none" stroke-linecap="round"></path><path d="M 109.000,305.000 C 107.175,306.685 107.071,306.857 106.000,309.000" stroke-width="9.396" stroke="rgb(33,33,33)" fill="none" stroke-linecap="round"></path><path d="M 106.000,309.000 C 105.571,309.857 105.500,310.500 106.000,311.000" stroke-width="10.397" stroke="rgb(33,33,33)" fill="none" stroke-linecap="round"></path><path d="M 106.000,311.000 C 106.500,311.500 107.010,311.132 108.000,311.000" stroke-width="11.366" stroke="rgb(33,33,33)" fill="none" stroke-linecap="round"></path></svg>