<svg xmlns="http://www.w3.org/2000/svg" xmlns:xlink="http://www.w3.org/1999/xlink" viewBox="0 0 800 500"><path d="M 260.500,47.000 C 259.000,47.500 258.950,47.379 257.500,48.000" stroke-width="12.405" stroke="rgb(33,33,33)" fill="none" stroke-linecap="round"></path><path d="M 257.500,48.000 C 255.450,48.879 255.542,49.093 253.500,50.000" stroke-width="10.368" stroke="rgb(33,33,33)" fill="none" stroke-linecap="round"></path><path d="M 253.500,50.000 C 251.042,51.093 250.574,50.444 248.500,52.000" stroke-width="10.827" stroke="rgb(33,33,33)" fill="none" stroke-linecap="round"></path><path d="M 248.500,52.000 C 246.574,53.444 247.487,54.675 245.500,56.000" stroke-width="11.627" stroke="rgb(33,33,33)" fill="none" stroke-linecap="round"></path><path d="M 245.500,56.000 C 242.987,57.675 242.193,56.504 239.500,58.000" stroke-width="11.292" stroke="rgb(33,33,33)" fill="none" stroke-linecap="round"></path><path d="M 239.500,58.000 C 237.693,59.004 238.107,59.623 236.500,61.000" stroke-width="11.633" stroke="rgb(33,33,33)" fill="none" stroke-linecap="round"></path><path d="M 236.500,61.000 C 234.607,62.623 234.416,62.403 232.500,64.000" stroke-width="11.964" stroke="rgb(33,33,33)" fill="none" stroke-linecap="round"></path><path d="M 232.500,64.000 C 231.416,64.903 231.599,65.121 230.500,66.000" stroke-width="12.613" stroke="rgb(33,33,33)" fill="none" stroke-linecap="round"></path><path d="M 230.500,66.000 C 229.099,67.121 228.674,66.826 227.500,68.000" stroke-width="12.943" stroke="rgb(33,33,33)" fill="none" stroke-linecap="round"></path><path d="M 227.500,68.000 C 227.174,68.326 227.707,68.586 227.500,69.000" stroke-width="13.760" stroke="rgb(33,33,33)" fill="none" stroke-linecap="round"></path><path d="M 227.500,69.000 C 227.207,69.586 227.000,69.500 226.500,70.000" stroke-width="14.560" stroke="rgb(33,33,33)" fill="none" stroke-linecap="round"></path><path d="M 226.500,70.000 C 226.000,70.500 225.707,70.379 225.500,71.000" stroke-width="15.102" stroke="rgb(33,33,33)" fill="none" stroke-linecap="round"></path><path d="M 225.500,71.000 C 225.207,71.879 225.500,72.000 225.500,73.000" stroke-width="15.665" stroke="rgb(33,33,33)" fill="none" stroke-linecap="round"></path><path d="M 225.500,73.000 C 225.500,74.000 225.500,74.000 225.500,75.000" stroke-width="16.158" stroke="rgb(33,33,33)" fill="none" stroke-linecap="round"></path><path d="M 225.500,75.000 C 225.500,77.000 225.179,77.076 225.500,79.000" stroke-width="15.954" stroke="rgb(33,33,33)" fill="none" stroke-linecap="round"></path><path d="M 225.500,79.000 C 225.679,80.076 226.000,80.000 226.500,81.000" stroke-width="15.929" stroke="rgb(33,33,33)" fill="none" stroke-linecap="round"></path><path d="M 226.500,81.000 C 227.000,82.000 226.926,82.043 227.500,83.000" stroke-width="16.101" stroke="rgb(33,33,33)" fill="none" stroke-linecap="round"></path><path d="M 227.500,83.000 C 228.426,84.543 228.161,84.884 229.500,86.000" stroke-width="15.923" stroke="rgb(33,33,33)" fill="none" stroke-linecap="round"></path><path d="M 229.500,86.000 C 231.161,87.384 231.458,87.093 233.500,88.000" stroke-width="15.379" stroke="rgb(33,33,33)" fill="none" stroke-linecap="round"></path><path d="M 233.500,88.000 C 235.958,89.093 236.042,88.907 238.500,90.000" stroke-width="14.878" stroke="rgb(33,33,33)" fill="none" stroke-linecap="round"></path><path d="M 238.500,90.000 C 240.542,90.907 240.397,91.299 242.500,92.000" stroke-width="14.692" stroke="rgb(33,33,33)" fill="none" stroke-linecap="round"></path><path d="M 242.500,92.000 C 244.897,92.799 245.031,92.383 247.500,93.000" stroke-width="14.417" stroke="rgb(33,33,33)" fill="none" stroke-linecap="round"></path><path d="M 247.500,93.000 C 249.031,93.383 248.969,93.617 250.500,94.000" stroke-width="14.600" stroke="rgb(33,33,33)" fill="none" stroke-linecap="round"></path><path d="M 250.500,94.000 C 252.969,94.617 252.986,94.641 255.500,95.000" stroke-width="14.441" stroke="rgb(33,33,33)" fill="none" stroke-linecap="round"></path><path d="M 255.500,95.000 C 256.486,95.141 256.556,94.764 257.500,95.000" stroke-width="14.821" stroke="rgb(33,33,33)" fill="none" stroke-linecap="round"></path><path d="M 257.500,95.000 C 258.556,95.264 258.500,95.500 259.500,96.000" stroke-width="15.082" stroke="rgb(33,33,33)" fill="none" stroke-linecap="round"></path><path d="M 259.500,96.000 C 260.500,96.500 260.581,96.387 261.500,97.000" stroke-width="15.529" stroke="rgb(33,33,33)" fill="none" stroke-linecap="round"></path><path d="M 261.500,97.000 C 262.081,97.387 262.113,97.419 262.500,98.000" stroke-width="16.074" stroke="rgb(33,33,33)" fill="none" stroke-linecap="round"></path><path d="M 262.500,98.000 C 263.113,98.919 263.321,98.924 263.500,100.000" stroke-width="16.024" stroke="rgb(33,33,33)" fill="none" stroke-linecap="round"></path><path d="M 263.500,100.000 C 263.821,101.924 263.500,102.000 263.500,104.000" stroke-width="15.685" stroke="rgb(33,33,33)" fill="none" stroke-linecap="round"></path><path d="M 263.500,104.000 C 263.500,106.500 263.726,106.519 263.500,109.000" stroke-width="15.298" stroke="rgb(33,33,33)" fill="none" stroke-linecap="round"></path><path d="M 263.500,109.000 C 263.226,112.019 263.943,112.403 262.500,115.000" stroke-width="14.525" stroke="rgb(33,33,33)" fill="none" stroke-linecap="round"></path><path d="M 262.500,115.000 C 258.943,121.403 257.925,120.945 253.500,127.000" stroke-width="12.752" stroke="rgb(33,33,33)" fill="none" stroke-linecap="round"></path><path d="M 253.500,127.000 C 248.425,133.945 248.741,134.186 243.500,141.000" stroke-width="10.930" stroke="rgb(33,33,33)" fill="none" stroke-linecap="round"></path><path d="M 243.500,141.000 C 238.741,147.186 238.604,147.090 233.500,153.000" stroke-width="10.299" stroke="rgb(33,33,33)" fill="none" stroke-linecap="round"></path><path d="M 233.500,153.000 C 229.104,158.090 229.247,158.253 224.500,163.000" stroke-width="9.917" stroke="rgb(33,33,33)" fill="none" stroke-linecap="round"></path><path d="M 224.500,163.000 C 221.247,166.253 221.147,166.194 217.500,169.000" stroke-width="10.035" stroke="rgb(33,33,33)" fill="none" stroke-linecap="round"></path><path d="M 217.500,169.000 C 214.647,171.194 214.500,171.000 211.500,173.000" stroke-width="10.339" stroke="rgb(33,33,33)" fill="none" stroke-linecap="round"></path><path d="M 211.500,173.000 C 210.000,174.000 210.098,174.201 208.500,175.000" stroke-width="11.011" stroke="rgb(33,33,33)" fill="none" stroke-linecap="round"></path><path d="M 208.500,175.000 C 207.098,175.701 206.882,175.309 205.500,176.000" stroke-width="11.675" stroke="rgb(33,33,33)" fill="none" stroke-linecap="round"></path><path d="M 205.500,176.000 C 204.882,176.309 204.108,176.869 204.500,177.000" stroke-width="12.552" stroke="rgb(33,33,33)" fill="none" stroke-linecap="round"></path><path d="M 204.500,177.000 C 205.608,177.369 206.582,177.426 208.500,177.000" stroke-width="13.549" stroke="rgb(33,33,33)" fill="none" stroke-linecap="round"></path><path d="M 208.500,177.000 C 211.082,176.426 211.015,176.036 213.500,175.000" stroke-width="13.363" stroke="rgb(33,33,33)" fill="none" stroke-linecap="round"></path><path d="M 213.500,175.000 C 217.015,173.536 217.258,173.945 220.500,172.000" stroke-width="12.943" stroke="rgb(33,33,33)" fill="none" stroke-linecap="round"></path><path d="M 220.500,172.000 C 224.758,169.445 224.312,168.710 228.500,166.000" stroke-width="12.397" stroke="rgb(33,33,33)" fill="none" stroke-linecap="round"></path><path d="M 228.500,166.000 C 232.812,163.210 233.188,163.790 237.500,161.000" stroke-width="11.823" stroke="rgb(33,33,33)" fill="none" stroke-linecap="round"></path><path d="M 237.500,161.000 C 241.688,158.290 241.500,158.000 245.500,155.000" stroke-width="11.298" stroke="rgb(33,33,33)" fill="none" stroke-linecap="round"></path><path d="M 245.500,155.000 C 249.500,152.000 249.468,151.957 253.500,149.000" stroke-width="11.153" stroke="rgb(33,33,33)" fill="none" stroke-linecap="round"></path><path d="M 253.500,149.000 C 256.968,146.457 256.823,146.206 260.500,144.000" stroke-width="11.098" stroke="rgb(33,33,33)" fill="none" stroke-linecap="round"></path><path d="M 260.500,144.000 C 264.323,141.706 264.825,142.450 268.500,140.000" stroke-width="11.014" stroke="rgb(33,33,33)" fill="none" stroke-linecap="round"></path><path d="M 268.500,140.000 C 270.825,138.450 270.500,138.000 272.500,136.000" stroke-width="11.351" stroke="rgb(33,33,33)" fill="none" stroke-linecap="round"></path><path d="M 272.500,136.000 C 274.000,134.500 273.863,134.310 275.500,133.000" stroke-width="11.828" stroke="rgb(33,33,33)" fill="none" stroke-linecap="round"></path><path d="M 275.500,133.000 C 276.363,132.310 276.500,132.500 277.500,132.000" stroke-width="12.575" stroke="rgb(33,33,33)" fill="none" stroke-linecap="round"></path><path d="M 277.500,132.000 C 278.500,131.500 278.581,131.613 279.500,131.000" stroke-width="13.274" stroke="rgb(33,33,33)" fill="none" stroke-linecap="round"></path><path d="M 279.500,131.000 C 280.081,130.613 279.914,130.293 280.500,130.000" stroke-width="13.948" stroke="rgb(33,33,33)" fill="none" stroke-linecap="round"></path><path d="M 280.500,130.000 C 280.914,129.793 281.000,130.000 281.500,130.000" stroke-width="14.760" stroke="rgb(33,33,33)" fill="none" stroke-linecap="round"></path><path d="M 281.500,130.000 C 282.000,130.000 282.500,130.000 282.500,130.000" stroke-width="15.486" stroke="rgb(33,33,33)" fill="none" stroke-linecap="round"></path><path d="M 282.500,130.000 C 282.500,130.000 282.000,130.000 281.500,130.000" stroke-width="16.237" stroke="rgb(33,33,33)" fill="none" stroke-linecap="round"></path><path d="M 281.500,130.000 C 281.000,130.000 280.981,129.880 280.500,130.000" stroke-width="16.600" stroke="rgb(33,33,33)" fill="none" stroke-linecap="round"></path><path d="M 280.500,130.000 C 278.981,130.380 278.820,130.208 277.500,131.000" stroke-width="16.907" stroke="rgb(33,33,33)" fill="none" stroke-linecap="round"></path><path d="M 277.500,131.000 C 276.320,131.708 276.208,131.820 275.500,133.000" stroke-width="15.928" stroke="rgb(33,33,33)" fill="none" stroke-linecap="round"></path><path d="M 275.500,133.000 C 274.708,134.320 275.191,134.618 274.500,136.000" stroke-width="15.624" stroke="rgb(33,33,33)" fill="none" stroke-linecap="round"></path><path d="M 274.500,136.000 C 274.191,136.618 273.707,136.379 273.500,137.000" stroke-width="16.187" stroke="rgb(33,33,33)" fill="none" stroke-linecap="round"></path><path d="M 273.500,137.000 C 273.207,137.879 273.500,138.000 273.500,139.000" stroke-width="16.261" stroke="rgb(33,33,33)" fill="none" stroke-linecap="round"></path><path d="M 273.500,139.000 C 273.500,140.000 272.688,140.469 273.500,141.000" stroke-width="16.381" stroke="rgb(33,33,33)" fill="none" stroke-linecap="round"></path><path d="M 273.500,141.000 C 285.688,148.969 290.061,158.427 299.500,156.000" stroke-width="16.250" stroke="rgb(33,33,33)" fill="none" stroke-linecap="round"></path><path d="M 299.500,156.000 C 307.561,153.927 309.517,140.816 308.500,132.000" stroke-width="15.887" stroke="rgb(33,33,33)" fill="none" stroke-linecap="round"></path><path d="M 308.500,132.000 C 308.017,127.816 300.110,130.802 296.500,130.000" stroke-width="16.346" stroke="rgb(33,33,33)" fill="none" stroke-linecap="round"></path><path d="M 296.500,130.000 C 295.610,129.802 298.052,130.322 299.500,130.000" stroke-width="16.966" stroke="rgb(33,33,33)" fill="none" stroke-linecap="round"></path><path d="M 299.500,130.000 C 302.552,129.322 303.969,126.469 305.500,128.000" stroke-width="14.946" stroke="rgb(33,33,33)" fill="none" stroke-linecap="round"></path><path d="M 305.500,128.000 C 307.969,130.469 306.614,132.980 307.500,138.000" stroke-width="13.928" stroke="rgb(33,33,33)" fill="none" stroke-linecap="round"></path><path d="M 307.500,138.000 C 308.114,141.480 306.650,142.225 308.500,145.000" stroke-width="12.955" stroke="rgb(33,33,33)" fill="none" stroke-linecap="round"></path><path d="M 308.500,145.000 C 311.650,149.725 312.783,149.570 317.500,153.000" stroke-width="6.750" stroke="rgb(33,33,33)" fill="none" stroke-linecap="round"></path><path d="M 317.500,153.000 C 318.283,153.570 318.844,153.707 319.500,153.000" stroke-width="6.750" stroke="rgb(33,33,33)" fill="none" stroke-linecap="round"></path><path d="M 319.500,153.000 C 325.344,146.707 325.975,146.542 330.500,139.000" stroke-width="6.750" stroke="rgb(33,33,33)" fill="none" stroke-linecap="round"></path><path d="M 330.500,139.000 C 333.475,134.042 332.822,133.594 334.500,128.000" stroke-width="6.750" stroke="rgb(33,33,33)" fill="none" stroke-linecap="round"></path><path d="M 334.500,128.000 C 335.822,123.594 335.534,123.507 336.500,119.000" stroke-width="6.750" stroke="rgb(33,33,33)" fill="none" stroke-linecap="round"></path><path d="M 336.500,119.000 C 337.034,116.507 336.947,116.488 337.500,114.000" stroke-width="6.750" stroke="rgb(33,33,33)" fill="none" stroke-linecap="round"></path><path d="M 337.500,114.000 C 337.947,111.988 338.163,112.020 338.500,110.000" stroke-width="6.750" stroke="rgb(33,33,33)" fill="none" stroke-linecap="round"></path><path d="M 338.500,110.000 C 338.663,109.020 338.500,109.000 338.500,108.000" stroke-width="6.750" stroke="rgb(33,33,33)" fill="none" stroke-linecap="round"></path><path d="M 338.500,108.000 C 338.500,107.500 338.500,107.500 338.500,107.000" stroke-width="6.865" stroke="rgb(33,33,33)" fill="none" stroke-linecap="round"></path><path d="M 338.500,107.000 C 338.500,106.500 338.500,105.833 338.500,106.000" stroke-width="7.850" stroke="rgb(33,33,33)" fill="none" stroke-linecap="round"></path><path d="M 338.500,106.000 C 338.500,106.333 338.191,107.073 338.500,108.000" stroke-width="8.929" stroke="rgb(33,33,33)" fill="none" stroke-linecap="round"></path><path d="M 338.500,108.000 C 339.191,110.073 339.864,109.881 340.500,112.000" stroke-width="9.233" stroke="rgb(33,33,33)" fill="none" stroke-linecap="round"></path><path d="M 340.500,112.000 C 341.364,114.881 341.038,114.994 341.500,118.000" stroke-width="9.805" stroke="rgb(33,33,33)" fill="none" stroke-linecap="round"></path><path d="M 341.500,118.000 C 342.038,121.494 341.474,121.664 342.500,125.000" stroke-width="10.078" stroke="rgb(33,33,33)" fill="none" stroke-linecap="round"></path><path d="M 342.500,125.000 C 343.474,128.164 344.141,127.942 345.500,131.000" stroke-width="10.496" stroke="rgb(33,33,33)" fill="none" stroke-linecap="round"></path><path d="M 345.500,131.000 C 346.141,132.442 346.066,132.481 346.500,134.000" stroke-width="11.244" stroke="rgb(33,33,33)" fill="none" stroke-linecap="round"></path><path d="M 346.500,134.000 C 347.066,135.981 346.527,136.379 347.500,138.000" stroke-width="11.987" stroke="rgb(33,33,33)" fill="none" stroke-linecap="round"></path><path d="M 347.500,138.000 C 348.027,138.879 348.809,138.309 349.500,139.000" stroke-width="11.908" stroke="rgb(33,33,33)" fill="none" stroke-linecap="round"></path><path d="M 349.500,139.000 C 349.809,139.309 349.293,139.586 349.500,140.000" stroke-width="12.813" stroke="rgb(33,33,33)" fill="none" stroke-linecap="round"></path><path d="M 349.500,140.000 C 349.793,140.586 350.000,140.500 350.500,141.000" stroke-width="13.708" stroke="rgb(33,33,33)" fill="none" stroke-linecap="round"></path><path d="M 350.500,141.000 C 351.000,141.500 350.879,141.793 351.500,142.000" stroke-width="13.295" stroke="rgb(33,33,33)" fill="none" stroke-linecap="round"></path><path d="M 351.500,142.000 C 352.379,142.293 352.749,142.601 353.500,142.000" stroke-width="14.237" stroke="rgb(33,33,33)" fill="none" stroke-linecap="round"></path><path d="M 353.500,142.000 C 357.749,138.601 358.366,138.558 361.500,134.000" stroke-width="8.201" stroke="rgb(33,33,33)" fill="none" stroke-linecap="round"></path><path d="M 361.500,134.000 C 363.866,130.558 363.438,130.130 364.500,126.000" stroke-width="8.919" stroke="rgb(33,33,33)" fill="none" stroke-linecap="round"></path><path d="M 364.500,126.000 C 367.938,112.630 367.959,112.550 370.500,99.000" stroke-width="6.750" stroke="rgb(33,33,33)" fill="none" stroke-linecap="round"></path><path d="M 370.500,99.000 C 370.959,96.550 370.500,95.667 370.500,94.000" stroke-width="6.750" stroke="rgb(33,33,33)" fill="none" stroke-linecap="round"></path><path d="M 370.500,94.000 C 370.500,93.667 370.317,94.543 370.500,95.000" stroke-width="6.750" stroke="rgb(33,33,33)" fill="none" stroke-linecap="round"></path><path d="M 370.500,95.000 C 371.317,97.043 371.593,96.958 372.500,99.000" stroke-width="6.750" stroke="rgb(33,33,33)" fill="none" stroke-linecap="round"></path><path d="M 372.500,99.000 C 373.593,101.458 373.595,101.465 374.500,104.000" stroke-width="7.510" stroke="rgb(33,33,33)" fill="none" stroke-linecap="round"></path><path d="M 374.500,104.000 C 376.095,108.465 375.836,108.562 377.500,113.000" stroke-width="6.773" stroke="rgb(33,33,33)" fill="none" stroke-linecap="round"></path><path d="M 377.500,113.000 C 378.836,116.562 379.463,116.370 380.500,120.000" stroke-width="7.417" stroke="rgb(33,33,33)" fill="none" stroke-linecap="round"></path><path d="M 380.500,120.000 C 381.463,123.370 380.581,123.631 381.500,127.000" stroke-width="8.018" stroke="rgb(33,33,33)" fill="none" stroke-linecap="round"></path><path d="M 381.500,127.000 C 382.081,129.131 382.275,129.162 383.500,131.000" stroke-width="8.767" stroke="rgb(33,33,33)" fill="none" stroke-linecap="round"></path><path d="M 383.500,131.000 C 384.275,132.162 384.914,131.828 385.500,133.000" stroke-width="9.682" stroke="rgb(33,33,33)" fill="none" stroke-linecap="round"></path><path d="M 385.500,133.000 C 385.914,133.828 385.500,134.000 385.500,135.000" stroke-width="10.491" stroke="rgb(33,33,33)" fill="none" stroke-linecap="round"></path><path d="M 385.500,135.000 C 385.500,135.500 385.500,135.500 385.500,136.000" stroke-width="11.508" stroke="rgb(33,33,33)" fill="none" stroke-linecap="round"></path><path d="M 385.500,136.000 C 385.500,136.500 385.250,136.750 385.500,137.000" stroke-width="12.504" stroke="rgb(33,33,33)" fill="none" stroke-linecap="round"></path><path d="M 385.500,137.000 C 385.750,137.250 386.000,137.000 386.500,137.000" stroke-width="13.508" stroke="rgb(33,33,33)" fill="none" stroke-linecap="round"></path><path d="M 386.500,137.000 C 387.000,137.000 387.375,137.375 387.500,137.000" stroke-width="14.335" stroke="rgb(33,33,33)" fill="none" stroke-linecap="round"></path><path d="M 387.500,137.000 C 387.875,135.875 387.214,135.432 387.500,134.000" stroke-width="14.673" stroke="rgb(33,33,33)" fill="none" stroke-linecap="round"></path><path d="M 387.500,134.000 C 387.714,132.932 388.155,133.036 388.500,132.000" stroke-width="14.890" stroke="rgb(33,33,33)" fill="none" stroke-linecap="round"></path><path d="M 388.500,132.000 C 388.655,131.536 388.500,131.500 388.500,131.000" stroke-width="15.482" stroke="rgb(33,33,33)" fill="none" stroke-linecap="round"></path><path d="M 388.500,131.000 C 388.500,130.000 388.207,129.879 388.500,129.000" stroke-width="15.907" stroke="rgb(33,33,33)" fill="none" stroke-linecap="round"></path><path d="M 388.500,129.000 C 388.707,128.379 389.207,128.586 389.500,128.000" stroke-width="16.366" stroke="rgb(33,33,33)" fill="none" stroke-linecap="round"></path><path d="M 389.500,128.000 C 389.707,127.586 389.250,127.250 389.500,127.000" stroke-width="16.738" stroke="rgb(33,33,33)" fill="none" stroke-linecap="round"></path><path d="M 389.500,127.000 C 389.750,126.750 390.000,127.000 390.500,127.000" stroke-width="17.291" stroke="rgb(33,33,33)" fill="none" stroke-linecap="round"></path><path d="M 390.500,127.000 C 391.000,127.000 391.000,127.000 391.500,127.000" stroke-width="17.503" stroke="rgb(33,33,33)" fill="none" stroke-linecap="round"></path><path d="M 391.500,127.000 C 392.000,127.000 392.000,127.000 392.500,127.000" stroke-width="17.729" stroke="rgb(33,33,33)" fill="none" stroke-linecap="round"></path><path d="M 392.500,127.000 C 393.500,127.000 393.556,126.764 394.500,127.000" stroke-width="17.484" stroke="rgb(33,33,33)" fill="none" stroke-linecap="round"></path><path d="M 394.500,127.000 C 395.556,127.264 395.500,127.500 396.500,128.000" stroke-width="17.216" stroke="rgb(33,33,33)" fill="none" stroke-linecap="round"></path><path d="M 396.500,128.000 C 398.500,129.000 398.500,129.000 400.500,130.000" stroke-width="16.457" stroke="rgb(33,33,33)" fill="none" stroke-linecap="round"></path><path d="M 400.500,130.000 C 401.500,130.500 401.464,130.586 402.500,131.000" stroke-width="16.649" stroke="rgb(33,33,33)" fill="none" stroke-linecap="round"></path><path d="M 402.500,131.000 C 403.964,131.586 404.000,131.500 405.500,132.000" stroke-width="16.028" stroke="rgb(33,33,33)" fill="none" stroke-linecap="round"></path><path d="M 405.500,132.000 C 407.000,132.500 406.969,132.694 408.500,133.000" stroke-width="16.254" stroke="rgb(33,33,33)" fill="none" stroke-linecap="round"></path><path d="M 408.500,133.000 C 409.469,133.194 409.621,132.707 410.500,133.000" stroke-width="16.613" stroke="rgb(33,33,33)" fill="none" stroke-linecap="round"></path><path d="M 410.500,133.000 C 411.121,133.207 410.882,134.000 411.500,134.000" stroke-width="15.381" stroke="rgb(33,33,33)" fill="none" stroke-linecap="round"></path><path d="M 411.500,134.000 C 412.882,134.000 413.575,134.110 414.500,133.000" stroke-width="15.718" stroke="rgb(33,33,33)" fill="none" stroke-linecap="round"></path><path d="M 414.500,133.000 C 416.075,131.110 416.171,130.629 416.500,128.000" stroke-width="15.336" stroke="rgb(33,33,33)" fill="none" stroke-linecap="round"></path><path d="M 416.500,128.000 C 417.171,122.629 416.500,122.500 416.500,117.000" stroke-width="12.893" stroke="rgb(33,33,33)" fill="none" stroke-linecap="round"></path><path d="M 416.500,117.000 C 416.500,110.500 416.500,110.500 416.500,104.000" stroke-width="11.078" stroke="rgb(33,33,33)" fill="none" stroke-linecap="round"></path><path d="M 416.500,104.000 C 416.500,97.500 416.500,97.500 416.500,91.000" stroke-width="11.406" stroke="rgb(33,33,33)" fill="none" stroke-linecap="round"></path><path d="M 416.500,91.000 C 416.500,89.000 416.500,89.000 416.500,87.000" stroke-width="12.281" stroke="rgb(33,33,33)" fill="none" stroke-linecap="round"></path><path d="M 416.500,87.000 C 416.500,86.000 416.500,84.667 416.500,85.000" stroke-width="13.148" stroke="rgb(33,33,33)" fill="none" stroke-linecap="round"></path><path d="M 416.500,85.000 C 416.500,85.667 416.069,87.060 416.500,89.000" stroke-width="13.950" stroke="rgb(33,33,33)" fill="none" stroke-linecap="round"></path><path d="M 416.500,89.000 C 418.069,96.060 417.685,96.347 420.500,103.000" stroke-width="14.083" stroke="rgb(33,33,33)" fill="none" stroke-linecap="round"></path><path d="M 420.500,103.000 C 423.185,109.347 423.823,109.117 427.500,115.000" stroke-width="8.895" stroke="rgb(33,33,33)" fill="none" stroke-linecap="round"></path><path d="M 427.500,115.000 C 428.823,117.117 429.118,116.927 430.500,119.000" stroke-width="9.677" stroke="rgb(33,33,33)" fill="none" stroke-linecap="round"></path><path d="M 430.500,119.000 C 431.118,119.927 430.838,120.117 431.500,121.000" stroke-width="10.392" stroke="rgb(33,33,33)" fill="none" stroke-linecap="round"></path><path d="M 431.500,121.000 C 432.338,122.117 432.500,122.000 433.500,123.000" stroke-width="11.116" stroke="rgb(33,33,33)" fill="none" stroke-linecap="round"></path><path d="M 433.500,123.000 C 434.500,124.000 434.392,124.261 435.500,125.000" stroke-width="11.963" stroke="rgb(33,33,33)" fill="none" stroke-linecap="round"></path><path d="M 435.500,125.000 C 435.892,125.261 436.000,125.000 436.500,125.000" stroke-width="12.702" stroke="rgb(33,33,33)" fill="none" stroke-linecap="round"></path><path d="M 436.500,125.000 C 437.500,125.000 437.500,125.000 438.500,125.000" stroke-width="13.363" stroke="rgb(33,33,33)" fill="none" stroke-linecap="round"></path><path d="M 438.500,125.000 C 439.500,125.000 439.500,125.000 440.500,125.000" stroke-width="13.901" stroke="rgb(33,33,33)" fill="none" stroke-linecap="round"></path><path d="M 440.500,125.000 C 441.000,125.000 441.000,125.000 441.500,125.000" stroke-width="14.666" stroke="rgb(33,33,33)" fill="none" stroke-linecap="round"></path><path d="M 441.500,125.000 C 442.000,125.000 442.000,125.000 442.500,125.000" stroke-width="15.287" stroke="rgb(33,33,33)" fill="none" stroke-linecap="round"></path><path d="M 442.500,125.000 C 443.000,125.000 443.000,125.000 443.500,125.000" stroke-width="15.917" stroke="rgb(33,33,33)" fill="none" stroke-linecap="round"></path><path d="M 443.500,125.000 C 444.000,125.000 444.000,125.000 444.500,125.000" stroke-width="16.613" stroke="rgb(33,33,33)" fill="none" stroke-linecap="round"></path><path d="M 444.500,125.000 C 445.500,125.000 445.500,125.000 446.500,125.000" stroke-width="16.665" stroke="rgb(33,33,33)" fill="none" stroke-linecap="round"></path><path d="M 446.500,125.000 C 449.000,125.000 449.000,125.000 451.500,125.000" stroke-width="16.033" stroke="rgb(33,33,33)" fill="none" stroke-linecap="round"></path><path d="M 451.500,125.000 C 453.500,125.000 453.500,125.000 455.500,125.000" stroke-width="15.693" stroke="rgb(33,33,33)" fill="none" stroke-linecap="round"></path><path d="M 455.500,125.000 C 458.000,125.000 458.000,125.000 460.500,125.000" stroke-width="15.073" stroke="rgb(33,33,33)" fill="none" stroke-linecap="round"></path><path d="M 460.500,125.000 C 464.000,125.000 464.056,125.344 467.500,125.000" stroke-width="14.158" stroke="rgb(33,33,33)" fill="none" stroke-linecap="round"></path><path d="M 467.500,125.000 C 469.056,124.844 469.365,125.068 470.500,124.000" stroke-width="14.634" stroke="rgb(33,33,33)" fill="none" stroke-linecap="round"></path><path d="M 470.500,124.000 C 477.865,117.068 478.419,117.108 484.500,109.000" stroke-width="15.139" stroke="rgb(33,33,33)" fill="none" stroke-linecap="round"></path><path d="M 484.500,109.000 C 487.419,105.108 490.148,96.303 488.500,100.000" stroke-width="11.489" stroke="rgb(33,33,33)" fill="none" stroke-linecap="round"></path><path d="M 488.500,100.000 C 471.648,137.803 468.413,146.284 447.500,192.000" stroke-width="12.030" stroke="rgb(33,33,33)" fill="none" stroke-linecap="round"></path><path d="M 447.500,192.000 C 446.913,193.284 446.500,193.000 445.500,194.000" stroke-width="12.935" stroke="rgb(33,33,33)" fill="none" stroke-linecap="round"></path><path d="M 445.500,194.000 C 445.000,194.500 444.500,194.707 444.500,195.000" stroke-width="13.909" stroke="rgb(33,33,33)" fill="none" stroke-linecap="round"></path><path d="M 444.500,195.000 C 444.500,195.207 445.197,195.379 445.500,195.000" stroke-width="14.771" stroke="rgb(33,33,33)" fill="none" stroke-linecap="round"></path><path d="M 445.500,195.000 C 449.197,190.379 449.179,190.119 452.500,185.000" stroke-width="8.044" stroke="rgb(33,33,33)" fill="none" stroke-linecap="round"></path><path d="M 452.500,185.000 C 461.179,171.619 461.353,171.712 469.500,158.000" stroke-width="6.928" stroke="rgb(33,33,33)" fill="none" stroke-linecap="round"></path><path d="M 469.500,158.000 C 481.853,137.212 481.755,137.141 493.500,116.000" stroke-width="6.750" stroke="rgb(33,33,33)" fill="none" stroke-linecap="round"></path><path d="M 493.500,116.000 C 501.755,101.141 501.675,101.091 509.500,86.000" stroke-width="6.750" stroke="rgb(33,33,33)" fill="none" stroke-linecap="round"></path><path d="M 509.500,86.000 C 515.675,74.091 515.500,74.000 521.500,62.000" stroke-width="6.750" stroke="rgb(33,33,33)" fill="none" stroke-linecap="round"></path><path d="M 521.500,62.000 C 526.000,53.000 526.422,53.175 530.500,44.000" stroke-width="6.750" stroke="rgb(33,33,33)" fill="none" stroke-linecap="round"></path><path d="M 530.500,44.000 C 532.422,39.675 531.905,39.465 533.500,35.000" stroke-width="6.750" stroke="rgb(33,33,33)" fill="none" stroke-linecap="round"></path><path d="M 533.500,35.000 C 534.405,32.465 534.302,32.396 535.500,30.000" stroke-width="7.144" stroke="rgb(33,33,33)" fill="none" stroke-linecap="round"></path><path d="M 535.500,30.000 C 536.302,28.396 536.717,28.566 537.500,27.000" stroke-width="7.973" stroke="rgb(33,33,33)" fill="none" stroke-linecap="round"></path><path d="M 537.500,27.000 C 537.717,26.566 537.598,25.707 537.500,26.000" stroke-width="8.993" stroke="rgb(33,33,33)" fill="none" stroke-linecap="round"></path><path d="M 537.500,26.000 C 537.098,27.207 537.202,28.068 536.500,30.000" stroke-width="10.048" stroke="rgb(33,33,33)" fill="none" stroke-linecap="round"></path><path d="M 536.500,30.000 C 535.202,33.568 535.110,33.551 533.500,37.000" stroke-width="10.443" stroke="rgb(33,33,33)" fill="none" stroke-linecap="round"></path><path d="M 533.500,37.000 C 531.610,41.051 531.390,40.949 529.500,45.000" stroke-width="10.254" stroke="rgb(33,33,33)" fill="none" stroke-linecap="round"></path><path d="M 529.500,45.000 C 527.890,48.449 528.378,48.713 526.500,52.000" stroke-width="10.674" stroke="rgb(33,33,33)" fill="none" stroke-linecap="round"></path><path d="M 526.500,52.000 C 524.378,55.713 523.517,55.254 521.500,59.000" stroke-width="10.477" stroke="rgb(33,33,33)" fill="none" stroke-linecap="round"></path><path d="M 521.500,59.000 C 520.017,61.754 520.500,62.000 519.500,65.000" stroke-width="10.813" stroke="rgb(33,33,33)" fill="none" stroke-linecap="round"></path><path d="M 519.500,65.000 C 518.000,69.500 518.418,69.684 516.500,74.000" stroke-width="10.825" stroke="rgb(33,33,33)" fill="none" stroke-linecap="round"></path><path d="M 516.500,74.000 C 514.418,78.684 513.317,78.230 511.500,83.000" stroke-width="10.518" stroke="rgb(33,33,33)" fill="none" stroke-linecap="round"></path><path d="M 511.500,83.000 C 509.317,88.730 510.061,89.016 508.500,95.000" stroke-width="10.404" stroke="rgb(33,33,33)" fill="none" stroke-linecap="round"></path><path d="M 508.500,95.000 C 507.061,100.516 507.442,100.660 505.500,106.000" stroke-width="10.308" stroke="rgb(33,33,33)" fill="none" stroke-linecap="round"></path><path d="M 505.500,106.000 C 503.442,111.660 502.485,111.328 500.500,117.000" stroke-width="9.926" stroke="rgb(33,33,33)" fill="none" stroke-linecap="round"></path><path d="M 500.500,117.000 C 498.985,121.328 499.869,121.619 498.500,126.000" stroke-width="10.312" stroke="rgb(33,33,33)" fill="none" stroke-linecap="round"></path><path d="M 498.500,126.000 C 497.369,129.619 496.700,129.399 495.500,133.000" stroke-width="10.529" stroke="rgb(33,33,33)" fill="none" stroke-linecap="round"></path><path d="M 495.500,133.000 C 494.200,136.899 491.765,140.133 493.500,141.000" stroke-width="11.559" stroke="rgb(33,33,33)" fill="none" stroke-linecap="round"></path><path d="M 493.500,141.000 C 495.765,142.133 500.083,140.951 503.500,137.000" stroke-width="11.370" stroke="rgb(33,33,33)" fill="none" stroke-linecap="round"></path><path d="M 503.500,137.000 C 516.083,122.451 514.808,120.679 525.500,104.000" stroke-width="11.894" stroke="rgb(33,33,33)" fill="none" stroke-linecap="round"></path><path d="M 525.500,104.000 C 527.308,101.179 528.500,100.073 528.500,98.000" stroke-width="9.069" stroke="rgb(33,33,33)" fill="none" stroke-linecap="round"></path><path d="M 528.500,98.000 C 528.500,97.073 527.000,98.000 525.500,98.000" stroke-width="10.090" stroke="rgb(33,33,33)" fill="none" stroke-linecap="round"></path><path d="M 525.500,98.000 C 523.000,98.000 522.950,97.694 520.500,98.000" stroke-width="10.489" stroke="rgb(33,33,33)" fill="none" stroke-linecap="round"></path><path d="M 520.500,98.000 C 518.950,98.194 518.980,98.445 517.500,99.000" stroke-width="11.105" stroke="rgb(33,33,33)" fill="none" stroke-linecap="round"></path><path d="M 517.500,99.000 C 514.980,99.945 514.737,99.602 512.500,101.000" stroke-width="11.463" stroke="rgb(33,33,33)" fill="none" stroke-linecap="round"></path><path d="M 512.500,101.000 C 510.737,102.102 511.000,102.500 509.500,104.000" stroke-width="11.980" stroke="rgb(33,33,33)" fill="none" stroke-linecap="round"></path><path d="M 509.500,104.000 C 509.000,104.500 509.081,104.613 508.500,105.000" stroke-width="12.786" stroke="rgb(33,33,33)" fill="none" stroke-linecap="round"></path><path d="M 508.500,105.000 C 507.581,105.613 507.028,105.208 506.500,106.000" stroke-width="13.396" stroke="rgb(33,33,33)" fill="none" stroke-linecap="round"></path><path d="M 506.500,106.000 C 506.028,106.708 506.500,107.000 506.500,108.000" stroke-width="14.036" stroke="rgb(33,33,33)" fill="none" stroke-linecap="round"></path><path d="M 506.500,108.000 C 506.500,108.500 506.500,108.500 506.500,109.000" stroke-width="14.713" stroke="rgb(33,33,33)" fill="none" stroke-linecap="round"></path><path d="M 506.500,109.000 C 506.500,109.500 506.500,109.500 506.500,110.000" stroke-width="15.328" stroke="rgb(33,33,33)" fill="none" stroke-linecap="round"></path><path d="M 506.500,110.000 C 506.500,110.500 506.500,110.500 506.500,111.000" stroke-width="15.859" stroke="rgb(33,33,33)" fill="none" stroke-linecap="round"></path><path d="M 506.500,111.000 C 506.500,111.500 506.500,111.500 506.500,112.000" stroke-width="16.311" stroke="rgb(33,33,33)" fill="none" stroke-linecap="round"></path><path d="M 506.500,112.000 C 506.500,112.500 506.500,112.500 506.500,113.000" stroke-width="16.716" stroke="rgb(33,33,33)" fill="none" stroke-linecap="round"></path><path d="M 506.500,113.000 C 506.500,113.500 506.500,113.500 506.500,114.000" stroke-width="16.998" stroke="rgb(33,33,33)" fill="none" stroke-linecap="round"></path><path d="M 506.500,114.000 C 506.500,114.500 506.293,114.586 506.500,115.000" stroke-width="17.262" stroke="rgb(33,33,33)" fill="none" stroke-linecap="round"></path><path d="M 506.500,115.000 C 506.793,115.586 506.879,115.793 507.500,116.000" stroke-width="17.356" stroke="rgb(33,33,33)" fill="none" stroke-linecap="round"></path><path d="M 507.500,116.000 C 508.379,116.293 508.833,115.667 509.500,116.000" stroke-width="17.311" stroke="rgb(33,33,33)" fill="none" stroke-linecap="round"></path><path d="M 509.500,116.000 C 509.833,116.167 509.167,116.833 509.500,117.000" stroke-width="17.520" stroke="rgb(33,33,33)" fill="none" stroke-linecap="round"></path><path d="M 509.500,117.000 C 510.167,117.333 510.500,117.000 511.500,117.000" stroke-width="17.387" stroke="rgb(33,33,33)" fill="none" stroke-linecap="round"></path><path d="M 511.500,117.000 C 512.500,117.000 512.500,117.000 513.500,117.000" stroke-width="17.507" stroke="rgb(33,33,33)" fill="none" stroke-linecap="round"></path><path d="M 513.500,117.000 C 515.000,117.000 515.000,117.000 516.500,117.000" stroke-width="16.260" stroke="rgb(33,33,33)" fill="none" stroke-linecap="round"></path><path d="M 516.500,117.000 C 517.000,117.000 517.000,117.000 517.500,117.000" stroke-width="16.787" stroke="rgb(33,33,33)" fill="none" stroke-linecap="round"></path><path d="M 517.500,117.000 C 518.000,117.000 518.000,117.000 518.500,117.000" stroke-width="17.136" stroke="rgb(33,33,33)" fill="none" stroke-linecap="round"></path><path d="M 518.500,117.000 C 519.000,117.000 519.000,117.000 519.500,117.000" stroke-width="17.302" stroke="rgb(33,33,33)" fill="none" stroke-linecap="round"></path><path d="M 519.500,117.000 C 520.000,117.000 520.000,117.000 520.500,117.000" stroke-width="17.787" stroke="rgb(33,33,33)" fill="none" stroke-linecap="round"></path><path d="M 520.500,117.000 C 521.500,117.000 521.500,117.000 522.500,117.000" stroke-width="17.700" stroke="rgb(33,33,33)" fill="none" stroke-linecap="round"></path><path d="M 522.500,117.000 C 523.000,117.000 523.000,117.000 523.500,117.000" stroke-width="17.866" stroke="rgb(33,33,33)" fill="none" stroke-linecap="round"></path><path d="M 523.500,117.000 C 524.000,117.000 524.036,117.155 524.500,117.000" stroke-width="17.658" stroke="rgb(33,33,33)" fill="none" stroke-linecap="round"></path><path d="M 524.500,117.000 C 525.536,116.655 525.617,116.662 526.500,116.000" stroke-width="17.425" stroke="rgb(33,33,33)" fill="none" stroke-linecap="round"></path><path d="M 526.500,116.000 C 527.617,115.162 527.683,115.143 528.500,114.000" stroke-width="17.070" stroke="rgb(33,33,33)" fill="none" stroke-linecap="round"></path><path d="M 528.500,114.000 C 530.183,111.643 530.433,111.667 531.500,109.000" stroke-width="16.000" stroke="rgb(33,33,33)" fill="none" stroke-linecap="round"></path><path d="M 531.500,109.000 C 532.433,106.667 532.000,106.500 532.500,104.000" stroke-width="15.515" stroke="rgb(33,33,33)" fill="none" stroke-linecap="round"></path><path d="M 532.500,104.000 C 533.000,101.500 533.220,101.522 533.500,99.000" stroke-width="14.917" stroke="rgb(33,33,33)" fill="none" stroke-linecap="round"></path><path d="M 533.500,99.000 C 533.720,97.022 533.500,97.000 533.500,95.000" stroke-width="14.904" stroke="rgb(33,33,33)" fill="none" stroke-linecap="round"></path><path d="M 533.500,95.000 C 533.500,93.500 533.786,93.432 533.500,92.000" stroke-width="15.146" stroke="rgb(33,33,33)" fill="none" stroke-linecap="round"></path><path d="M 533.500,92.000 C 533.286,90.932 533.385,90.644 532.500,90.000" stroke-width="15.277" stroke="rgb(33,33,33)" fill="none" stroke-linecap="round"></path><path d="M 532.500,90.000 C 527.885,86.644 527.954,85.948 522.500,84.000" stroke-width="14.191" stroke="rgb(33,33,33)" fill="none" stroke-linecap="round"></path><path d="M 522.500,84.000 C 506.954,78.448 506.745,78.420 490.500,75.000" stroke-width="10.683" stroke="rgb(33,33,33)" fill="none" stroke-linecap="round"></path><path d="M 490.500,75.000 C 459.245,68.420 459.251,67.130 427.500,64.000" stroke-width="6.750" stroke="rgb(33,33,33)" fill="none" stroke-linecap="round"></path><path d="M 427.500,64.000 C 388.251,60.130 388.015,61.714 348.500,61.000" stroke-width="6.750" stroke="rgb(33,33,33)" fill="none" stroke-linecap="round"></path><path d="M 348.500,61.000 C 305.015,60.214 304.916,59.060 261.500,61.000" stroke-width="6.750" stroke="rgb(33,33,33)" fill="none" stroke-linecap="round"></path><path d="M 261.500,61.000 C 215.416,63.060 215.054,62.090 169.500,69.000" stroke-width="6.750" stroke="rgb(33,33,33)" fill="none" stroke-linecap="round"></path><path d="M 169.500,69.000 C 126.054,75.590 126.326,77.777 83.500,88.000" stroke-width="6.750" stroke="rgb(33,33,33)" fill="none" stroke-linecap="round"></path><path d="M 83.500,88.000 C 48.826,96.277 25.454,94.402 14.500,106.000" stroke-width="6.750" stroke="rgb(33,33,33)" fill="none" stroke-linecap="round"></path><path d="M 14.500,106.000 C 8.454,112.402 30.758,122.949 49.500,124.000" stroke-width="6.750" stroke="rgb(33,33,33)" fill="none" stroke-linecap="round"></path><path d="M 49.500,124.000 C 84.258,125.949 85.561,118.342 121.500,112.000" stroke-width="6.750" stroke="rgb(33,33,33)" fill="none" stroke-linecap="round"></path><path d="M 121.500,112.000 C 153.561,106.342 153.523,106.117 185.500,100.000" stroke-width="6.750" stroke="rgb(33,33,33)" fill="none" stroke-linecap="round"></path><path d="M 185.500,100.000 C 211.023,95.117 210.976,94.875 236.500,90.000" stroke-width="6.750" stroke="rgb(33,33,33)" fill="none" stroke-linecap="round"></path><path d="M 236.500,90.000 C 255.476,86.375 255.508,86.541 274.500,83.000" stroke-width="6.750" stroke="rgb(33,33,33)" fill="none" stroke-linecap="round"></path><path d="M 274.500,83.000 C 285.008,81.041 284.961,80.757 295.500,79.000" stroke-width="6.750" stroke="rgb(33,33,33)" fill="none" stroke-linecap="round"></path><path d="M 295.500,79.000 C 302.961,77.757 303.003,78.022 310.500,77.000" stroke-width="6.750" stroke="rgb(33,33,33)" fill="none" stroke-linecap="round"></path><path d="M 310.500,77.000 C 314.003,76.522 313.987,76.319 317.500,76.000" stroke-width="6.750" stroke="rgb(33,33,33)" fill="none" stroke-linecap="round"></path><path d="M 317.500,76.000 C 319.487,75.819 319.500,76.000 321.500,76.000" stroke-width="6.750" stroke="rgb(33,33,33)" fill="none" stroke-linecap="round"></path><path d="M 321.500,76.000 C 322.500,76.000 323.833,75.333 323.500,76.000" stroke-width="6.750" stroke="rgb(33,33,33)" fill="none" stroke-linecap="round"></path><path d="M 323.500,76.000 C 321.833,79.333 320.788,80.242 317.500,84.000" stroke-width="6.963" stroke="rgb(33,33,33)" fill="none" stroke-linecap="round"></path><path d="M 317.500,84.000 C 310.288,92.242 310.536,92.566 302.500,100.000" stroke-width="6.750" stroke="rgb(33,33,33)" fill="none" stroke-linecap="round"></path><path d="M 302.500,100.000 C 290.536,111.066 289.767,110.235 277.500,121.000" stroke-width="6.750" stroke="rgb(33,33,33)" fill="none" stroke-linecap="round"></path><path d="M 277.500,121.000 C 265.267,131.735 265.889,132.469 253.500,143.000" stroke-width="6.750" stroke="rgb(33,33,33)" fill="none" stroke-linecap="round"></path><path d="M 253.500,143.000 C 245.889,149.469 245.672,149.249 237.500,155.000" stroke-width="6.750" stroke="rgb(33,33,33)" fill="none" stroke-linecap="round"></path><path d="M 237.500,155.000 C 232.172,158.749 231.816,158.248 226.500,162.000" stroke-width="6.750" stroke="rgb(33,33,33)" fill="none" stroke-linecap="round"></path><path d="M 226.500,162.000 C 223.316,164.248 223.548,164.561 220.500,167.000" stroke-width="6.750" stroke="rgb(33,33,33)" fill="none" stroke-linecap="round"></path><path d="M 220.500,167.000 C 218.548,168.561 218.573,168.618 216.500,170.000" stroke-width="7.364" stroke="rgb(33,33,33)" fill="none" stroke-linecap="round"></path><path d="M 216.500,170.000 C 215.573,170.618 215.536,170.655 214.500,171.000" stroke-width="8.267" stroke="rgb(33,33,33)" fill="none" stroke-linecap="round"></path><path d="M 214.500,171.000 C 214.036,171.155 213.500,171.000 213.500,171.000" stroke-width="9.333" stroke="rgb(33,33,33)" fill="none" stroke-linecap="round"></path><path d="M 213.500,171.000 C 213.500,171.000 214.000,171.000 214.500,171.000" stroke-width="10.449" stroke="rgb(33,33,33)" fill="none" stroke-linecap="round"></path><path d="M 214.500,171.000 C 215.000,171.000 215.250,170.750 215.500,171.000" stroke-width="11.468" stroke="rgb(33,33,33)" fill="none" stroke-linecap="round"></path><path d="M 215.500,171.000 C 215.750,171.250 215.500,171.500 215.500,172.000" stroke-width="12.500" stroke="rgb(33,33,33)" fill="none" stroke-linecap="round"></path><path d="M 215.500,172.000 C 215.500,173.000 215.939,173.122 215.500,174.000" stroke-width="13.358" stroke="rgb(33,33,33)" fill="none" stroke-linecap="round"></path><path d="M 215.500,174.000 C 212.939,179.122 212.263,178.934 209.500,184.000" stroke-width="14.135" stroke="rgb(33,33,33)" fill="none" stroke-linecap="round"></path><path d="M 209.500,184.000 C 209.263,184.434 209.500,184.500 209.500,185.000" stroke-width="15.007" stroke="rgb(33,33,33)" fill="none" stroke-linecap="round"></path><path d="M 209.500,185.000 C 209.500,185.500 209.749,185.573 209.500,186.000" stroke-width="15.784" stroke="rgb(33,33,33)" fill="none" stroke-linecap="round"></path><path d="M 209.500,186.000 C 206.249,191.573 206.215,191.892 202.500,197.000" stroke-width="8.003" stroke="rgb(33,33,33)" fill="none" stroke-linecap="round"></path><path d="M 202.500,197.000 C 202.215,197.392 201.809,196.691 201.500,197.000" stroke-width="9.091" stroke="rgb(33,33,33)" fill="none" stroke-linecap="round"></path><path d="M 201.500,197.000 C 200.809,197.691 199.587,199.000 200.500,199.000" stroke-width="9.181" stroke="rgb(33,33,33)" fill="none" stroke-linecap="round"></path><path d="M 200.500,199.000 C 207.087,199.000 208.720,198.878 216.500,197.000" stroke-width="10.004" stroke="rgb(33,33,33)" fill="none" stroke-linecap="round"></path><path d="M 216.500,197.000 C 223.220,195.378 222.920,194.269 229.500,192.000" stroke-width="9.133" stroke="rgb(33,33,33)" fill="none" stroke-linecap="round"></path><path d="M 229.500,192.000 C 237.420,189.269 237.580,189.731 245.500,187.000" stroke-width="8.770" stroke="rgb(33,33,33)" fill="none" stroke-linecap="round"></path><path d="M 245.500,187.000 C 252.080,184.731 252.121,184.774 258.500,182.000" stroke-width="8.707" stroke="rgb(33,33,33)" fill="none" stroke-linecap="round"></path><path d="M 258.500,182.000 C 263.621,179.774 263.251,178.658 268.500,177.000" stroke-width="8.865" stroke="rgb(33,33,33)" fill="none" stroke-linecap="round"></path><path d="M 268.500,177.000 C 272.751,175.658 273.242,177.217 277.500,176.000" stroke-width="9.169" stroke="rgb(33,33,33)" fill="none" stroke-linecap="round"></path><path d="M 277.500,176.000 C 280.242,175.217 279.894,174.117 282.500,173.000" stroke-width="9.769" stroke="rgb(33,33,33)" fill="none" stroke-linecap="round"></path><path d="M 282.500,173.000 C 283.394,172.617 283.556,173.236 284.500,173.000" stroke-width="10.643" stroke="rgb(33,33,33)" fill="none" stroke-linecap="round"></path><path d="M 284.500,173.000 C 285.556,172.736 285.464,172.345 286.500,172.000" stroke-width="11.461" stroke="rgb(33,33,33)" fill="none" stroke-linecap="round"></path><path d="M 286.500,172.000 C 286.964,171.845 287.000,172.000 287.500,172.000" stroke-width="12.410" stroke="rgb(33,33,33)" fill="none" stroke-linecap="round"></path><path d="M 287.500,172.000 C 288.000,172.000 288.000,172.000 288.500,172.000" stroke-width="13.276" stroke="rgb(33,33,33)" fill="none" stroke-linecap="round"></path><path d="M 288.500,172.000 C 290.000,172.000 290.141,172.510 291.500,172.000" stroke-width="14.231" stroke="rgb(33,33,33)" fill="none" stroke-linecap="round"></path><path d="M 291.500,172.000 C 294.141,171.010 293.761,169.948 296.500,169.000" stroke-width="13.212" stroke="rgb(33,33,33)" fill="none" stroke-linecap="round"></path><path d="M 296.500,169.000 C 306.761,165.448 307.042,166.137 317.500,163.000" stroke-width="12.464" stroke="rgb(33,33,33)" fill="none" stroke-linecap="round"></path><path d="M 317.500,163.000 C 322.042,161.637 321.947,161.301 326.500,160.000" stroke-width="11.838" stroke="rgb(33,33,33)" fill="none" stroke-linecap="round"></path><path d="M 326.500,160.000 C 328.947,159.301 329.031,159.617 331.500,159.000" stroke-width="12.247" stroke="rgb(33,33,33)" fill="none" stroke-linecap="round"></path><path d="M 331.500,159.000 C 333.031,158.617 333.000,158.500 334.500,158.000" stroke-width="12.642" stroke="rgb(33,33,33)" fill="none" stroke-linecap="round"></path><path d="M 334.500,158.000 C 336.000,157.500 336.118,157.691 337.500,157.000" stroke-width="13.050" stroke="rgb(33,33,33)" fill="none" stroke-linecap="round"></path><path d="M 337.500,157.000 C 338.118,156.691 338.977,156.095 338.500,156.000" stroke-width="13.823" stroke="rgb(33,33,33)" fill="none" stroke-linecap="round"></path><path d="M 338.500,156.000 C 336.477,155.595 334.903,157.442 332.500,156.000" stroke-width="14.688" stroke="rgb(33,33,33)" fill="none" stroke-linecap="round"></path><path d="M 332.500,156.000 C 327.403,152.942 328.000,151.500 323.500,147.000" stroke-width="15.018" stroke="rgb(33,33,33)" fill="none" stroke-linecap="round"></path><path d="M 323.500,147.000 C 323.000,146.500 323.000,146.500 322.500,146.000" stroke-width="15.351" stroke="rgb(33,33,33)" fill="none" stroke-linecap="round"></path><path d="M 322.500,146.000 C 322.000,145.500 322.086,145.293 321.500,145.000" stroke-width="15.808" stroke="rgb(33,33,33)" fill="none" stroke-linecap="round"></path><path d="M 321.500,145.000 C 321.086,144.793 320.750,145.250 320.500,145.000" stroke-width="16.203" stroke="rgb(33,33,33)" fill="none" stroke-linecap="round"></path><path d="M 320.500,145.000 C 320.250,144.750 320.707,144.414 320.500,144.000" stroke-width="16.625" stroke="rgb(33,33,33)" fill="none" stroke-linecap="round"></path><path d="M 320.500,144.000 C 320.207,143.414 319.793,143.586 319.500,143.000" stroke-width="17.027" stroke="rgb(33,33,33)" fill="none" stroke-linecap="round"></path><path d="M 319.500,143.000 C 319.293,142.586 319.750,142.250 319.500,142.000" stroke-width="17.511" stroke="rgb(33,33,33)" fill="none" stroke-linecap="round"></path><path d="M 319.500,142.000 C 319.250,141.750 318.542,141.542 318.500,142.000" stroke-width="17.935" stroke="rgb(33,33,33)" fill="none" stroke-linecap="round"></path><path d="M 318.500,142.000 C 318.042,147.042 318.500,147.500 318.500,153.000" stroke-width="17.416" stroke="rgb(33,33,33)" fill="none" stroke-linecap="round"></path><path d="M 318.500,153.000 C 318.500,155.500 318.500,155.500 318.500,158.000" stroke-width="13.837" stroke="rgb(33,33,33)" fill="none" stroke-linecap="round"></path><path d="M 318.500,158.000 C 318.500,160.500 318.252,160.525 318.500,163.000" stroke-width="13.854" stroke="rgb(33,33,33)" fill="none" stroke-linecap="round"></path><path d="M 318.500,163.000 C 318.752,165.525 318.883,165.531 319.500,168.000" stroke-width="13.763" stroke="rgb(33,33,33)" fill="none" stroke-linecap="round"></path><path d="M 319.500,168.000 C 319.883,169.531 320.194,169.469 320.500,171.000" stroke-width="14.116" stroke="rgb(33,33,33)" fill="none" stroke-linecap="round"></path><path d="M 320.500,171.000 C 320.694,171.969 320.207,172.121 320.500,173.000" stroke-width="14.546" stroke="rgb(33,33,33)" fill="none" stroke-linecap="round"></path><path d="M 320.500,173.000 C 320.707,173.621 321.207,173.414 321.500,174.000" stroke-width="15.090" stroke="rgb(33,33,33)" fill="none" stroke-linecap="round"></path><path d="M 321.500,174.000 C 321.707,174.414 321.250,174.750 321.500,175.000" stroke-width="15.787" stroke="rgb(33,33,33)" fill="none" stroke-linecap="round"></path><path d="M 321.500,175.000 C 321.750,175.250 322.487,175.487 322.500,175.000" stroke-width="16.221" stroke="rgb(33,33,33)" fill="none" stroke-linecap="round"></path><path d="M 322.500,175.000 C 322.987,156.987 322.500,156.500 322.500,138.000" stroke-width="15.216" stroke="rgb(33,33,33)" fill="none" stroke-linecap="round"></path><path d="M 322.500,138.000 C 322.500,135.000 322.500,135.000 322.500,132.000" stroke-width="12.165" stroke="rgb(33,33,33)" fill="none" stroke-linecap="round"></path><path d="M 322.500,132.000 C 322.500,130.000 322.500,130.000 322.500,128.000" stroke-width="12.745" stroke="rgb(33,33,33)" fill="none" stroke-linecap="round"></path><path d="M 322.500,128.000 C 322.500,127.000 322.500,127.000 322.500,126.000" stroke-width="13.055" stroke="rgb(33,33,33)" fill="none" stroke-linecap="round"></path><path d="M 322.500,126.000 C 322.500,125.500 322.500,125.500 322.500,125.000" stroke-width="13.879" stroke="rgb(33,33,33)" fill="none" stroke-linecap="round"></path><path d="M 322.500,125.000 C 322.500,124.500 322.500,124.500 322.500,124.000" stroke-width="14.597" stroke="rgb(33,33,33)" fill="none" stroke-linecap="round"></path><path d="M 322.500,124.000 C 322.500,123.500 322.500,123.000 322.500,123.000" stroke-width="15.395" stroke="rgb(33,33,33)" fill="none" stroke-linecap="round"></path><path d="M 322.500,123.000 C 322.500,123.000 322.354,123.522 322.500,124.000" stroke-width="16.113" stroke="rgb(33,33,33)" fill="none" stroke-linecap="round"></path><path d="M 322.500,124.000 C 327.854,141.522 327.582,141.700 333.500,159.000" stroke-width="12.370" stroke="rgb(33,33,33)" fill="none" stroke-linecap="round"></path><path d="M 333.500,159.000 C 334.082,160.700 334.800,160.367 335.500,162.000" stroke-width="11.572" stroke="rgb(33,33,33)" fill="none" stroke-linecap="round"></path><path d="M 335.500,162.000 C 336.300,163.867 335.852,164.055 336.500,166.000" stroke-width="12.036" stroke="rgb(33,33,33)" fill="none" stroke-linecap="round"></path><path d="M 336.500,166.000 C 336.852,167.055 336.887,167.081 337.500,168.000" stroke-width="12.730" stroke="rgb(33,33,33)" fill="none" stroke-linecap="round"></path><path d="M 337.500,168.000 C 337.887,168.581 338.113,169.194 338.500,169.000" stroke-width="13.552" stroke="rgb(33,33,33)" fill="none" stroke-linecap="round"></path><path d="M 338.500,169.000 C 339.113,168.694 339.148,168.055 339.500,167.000" stroke-width="14.417" stroke="rgb(33,33,33)" fill="none" stroke-linecap="round"></path><path d="M 339.500,167.000 C 340.148,165.055 339.958,164.989 340.500,163.000" stroke-width="14.401" stroke="rgb(33,33,33)" fill="none" stroke-linecap="round"></path><path d="M 340.500,163.000 C 341.458,159.489 341.352,157.913 342.500,156.000" stroke-width="14.935" stroke="rgb(33,33,33)" fill="none" stroke-linecap="round"></path><path d="M 342.500,156.000 C 342.852,155.413 342.838,157.117 343.500,158.000" stroke-width="15.677" stroke="rgb(33,33,33)" fill="none" stroke-linecap="round"></path><path d="M 343.500,158.000 C 344.338,159.117 344.761,158.892 345.500,160.000" stroke-width="15.699" stroke="rgb(33,33,33)" fill="none" stroke-linecap="round"></path><path d="M 345.500,160.000 C 345.761,160.392 345.500,160.500 345.500,161.000" stroke-width="16.175" stroke="rgb(33,33,33)" fill="none" stroke-linecap="round"></path><path d="M 345.500,161.000 C 345.500,161.500 345.500,161.500 345.500,162.000" stroke-width="16.721" stroke="rgb(33,33,33)" fill="none" stroke-linecap="round"></path><path d="M 345.500,162.000 C 345.500,162.500 345.174,163.109 345.500,163.000" stroke-width="17.235" stroke="rgb(33,33,33)" fill="none" stroke-linecap="round"></path><path d="M 345.500,163.000 C 346.674,162.609 347.567,162.400 348.500,161.000" stroke-width="17.326" stroke="rgb(33,33,33)" fill="none" stroke-linecap="round"></path><path d="M 348.500,161.000 C 349.567,159.400 348.610,158.779 349.500,157.000" stroke-width="16.633" stroke="rgb(33,33,33)" fill="none" stroke-linecap="round"></path><path d="M 349.500,157.000 C 350.110,155.779 350.662,156.117 351.500,155.000" stroke-width="16.456" stroke="rgb(33,33,33)" fill="none" stroke-linecap="round"></path><path d="M 351.500,155.000 C 352.162,154.117 352.155,154.036 352.500,153.000" stroke-width="16.529" stroke="rgb(33,33,33)" fill="none" stroke-linecap="round"></path><path d="M 352.500,153.000 C 352.655,152.536 352.293,152.414 352.500,152.000" stroke-width="16.874" stroke="rgb(33,33,33)" fill="none" stroke-linecap="round"></path><path d="M 352.500,152.000 C 352.793,151.414 353.077,150.718 353.500,151.000" stroke-width="17.040" stroke="rgb(33,33,33)" fill="none" stroke-linecap="round"></path><path d="M 353.500,151.000 C 354.577,151.718 354.800,152.367 355.500,154.000" stroke-width="17.389" stroke="rgb(33,33,33)" fill="none" stroke-linecap="round"></path><path d="M 355.500,154.000 C 356.300,155.867 355.695,156.390 356.500,158.000" stroke-width="16.679" stroke="rgb(33,33,33)" fill="none" stroke-linecap="round"></path><path d="M 356.500,158.000 C 356.695,158.390 357.333,157.667 357.500,158.000" stroke-width="16.967" stroke="rgb(33,33,33)" fill="none" stroke-linecap="round"></path><path d="M 357.500,158.000 C 357.833,158.667 357.500,160.000 357.500,160.000" stroke-width="16.948" stroke="rgb(33,33,33)" fill="none" stroke-linecap="round"></path><path d="M 357.500,160.000 C 357.500,160.000 357.401,158.994 357.500,158.000" stroke-width="17.399" stroke="rgb(33,33,33)" fill="none" stroke-linecap="round"></path><path d="M 357.500,158.000 C 357.901,153.994 357.408,153.821 358.500,150.000" stroke-width="17.116" stroke="rgb(33,33,33)" fill="none" stroke-linecap="round"></path><path d="M 358.500,150.000 C 359.408,146.821 359.759,146.611 361.500,144.000" stroke-width="17.195" stroke="rgb(33,33,33)" fill="none" stroke-linecap="round"></path><path d="M 361.500,144.000 C 361.759,143.611 362.108,143.739 362.500,144.000" stroke-width="17.616" stroke="rgb(33,33,33)" fill="none" stroke-linecap="round"></path><path d="M 362.500,144.000 C 363.608,144.739 363.500,145.000 364.500,146.000" stroke-width="17.292" stroke="rgb(33,33,33)" fill="none" stroke-linecap="round"></path><path d="M 364.500,146.000 C 366.000,147.500 366.000,147.500 367.500,149.000" stroke-width="16.575" stroke="rgb(33,33,33)" fill="none" stroke-linecap="round"></path><path d="M 367.500,149.000 C 368.000,149.500 368.113,149.419 368.500,150.000" stroke-width="16.796" stroke="rgb(33,33,33)" fill="none" stroke-linecap="round"></path><path d="M 368.500,150.000 C 369.113,150.919 368.708,151.472 369.500,152.000" stroke-width="16.746" stroke="rgb(33,33,33)" fill="none" stroke-linecap="round"></path><path d="M 369.500,152.000 C 370.208,152.472 370.500,152.000 371.500,152.000" stroke-width="16.772" stroke="rgb(33,33,33)" fill="none" stroke-linecap="round"></path><path d="M 371.500,152.000 C 372.000,152.000 372.000,152.000 372.500,152.000" stroke-width="17.142" stroke="rgb(33,33,33)" fill="none" stroke-linecap="round"></path><path d="M 372.500,152.000 C 373.000,152.000 373.074,152.244 373.500,152.000" stroke-width="17.254" stroke="rgb(33,33,33)" fill="none" stroke-linecap="round"></path><path d="M 373.500,152.000 C 376.574,150.244 376.111,148.714 379.500,148.000" stroke-width="17.628" stroke="rgb(33,33,33)" fill="none" stroke-linecap="round"></path><path d="M 379.500,148.000 C 385.611,146.714 386.003,148.162 392.500,148.000" stroke-width="17.807" stroke="rgb(33,33,33)" fill="none" stroke-linecap="round"></path><path d="M 392.500,148.000 C 406.003,147.662 406.282,148.602 419.500,147.000" stroke-width="12.648" stroke="rgb(33,33,33)" fill="none" stroke-linecap="round"></path><path d="M 419.500,147.000 C 422.782,146.602 422.609,145.652 425.500,144.000" stroke-width="13.518" stroke="rgb(33,33,33)" fill="none" stroke-linecap="round"></path><path d="M 425.500,144.000 C 426.109,143.652 426.667,142.833 426.500,143.000" stroke-width="14.400" stroke="rgb(33,33,33)" fill="none" stroke-linecap="round"></path><path d="M 426.500,143.000 C 426.167,143.333 425.727,144.331 424.500,145.000" stroke-width="13.809" stroke="rgb(33,33,33)" fill="none" stroke-linecap="round"></path><path d="M 424.500,145.000 C 420.227,147.331 419.526,146.438 415.500,149.000" stroke-width="6.750" stroke="rgb(33,33,33)" fill="none" stroke-linecap="round"></path><path d="M 415.500,149.000 C 414.026,149.938 414.621,150.599 413.500,152.000" stroke-width="6.750" stroke="rgb(33,33,33)" fill="none" stroke-linecap="round"></path><path d="M 413.500,152.000 C 412.621,153.099 412.208,152.820 411.500,154.000" stroke-width="6.750" stroke="rgb(33,33,33)" fill="none" stroke-linecap="round"></path><path d="M 411.500,154.000 C 410.708,155.320 410.806,155.469 410.500,157.000" stroke-width="6.770" stroke="rgb(33,33,33)" fill="none" stroke-linecap="round"></path><path d="M 410.500,157.000 C 410.306,157.969 410.500,158.000 410.500,159.000" stroke-width="7.679" stroke="rgb(33,33,33)" fill="none" stroke-linecap="round"></path><path d="M 410.500,159.000 C 410.500,161.000 410.500,161.000 410.500,163.000" stroke-width="8.474" stroke="rgb(33,33,33)" fill="none" stroke-linecap="round"></path><path d="M 410.500,163.000 C 410.500,163.500 410.293,163.586 410.500,164.000" stroke-width="9.507" stroke="rgb(33,33,33)" fill="none" stroke-linecap="round"></path><path d="M 410.500,164.000 C 410.793,164.586 410.839,164.890 411.500,165.000" stroke-width="10.463" stroke="rgb(33,33,33)" fill="none" stroke-linecap="round"></path><path d="M 411.500,165.000 C 413.839,165.390 414.000,165.000 416.500,165.000" stroke-width="11.010" stroke="rgb(33,33,33)" fill="none" stroke-linecap="round"></path><path d="M 416.500,165.000 C 419.500,165.000 419.635,165.573 422.500,165.000" stroke-width="11.304" stroke="rgb(33,33,33)" fill="none" stroke-linecap="round"></path><path d="M 422.500,165.000 C 424.635,164.573 424.500,164.000 426.500,163.000" stroke-width="11.756" stroke="rgb(33,33,33)" fill="none" stroke-linecap="round"></path><path d="M 426.500,163.000 C 428.500,162.000 429.139,162.588 430.500,161.000" stroke-width="12.144" stroke="rgb(33,33,33)" fill="none" stroke-linecap="round"></path><path d="M 430.500,161.000 C 432.139,159.088 431.657,157.687 432.500,156.000" stroke-width="12.335" stroke="rgb(33,33,33)" fill="none" stroke-linecap="round"></path><path d="M 432.500,156.000 C 432.657,155.687 432.500,156.500 432.500,157.000" stroke-width="13.365" stroke="rgb(33,33,33)" fill="none" stroke-linecap="round"></path><path d="M 432.500,157.000 C 432.500,157.500 432.500,157.500 432.500,158.000" stroke-width="14.158" stroke="rgb(33,33,33)" fill="none" stroke-linecap="round"></path><path d="M 432.500,158.000 C 432.500,158.500 432.239,158.608 432.500,159.000" stroke-width="14.843" stroke="rgb(33,33,33)" fill="none" stroke-linecap="round"></path><path d="M 432.500,159.000 C 433.239,160.108 433.235,160.639 434.500,161.000" stroke-width="15.128" stroke="rgb(33,33,33)" fill="none" stroke-linecap="round"></path><path d="M 434.500,161.000 C 436.735,161.639 437.000,161.000 439.500,161.000" stroke-width="14.507" stroke="rgb(33,33,33)" fill="none" stroke-linecap="round"></path><path d="M 439.500,161.000 C 442.000,161.000 442.000,161.000 444.500,161.000" stroke-width="14.757" stroke="rgb(33,33,33)" fill="none" stroke-linecap="round"></path><path d="M 444.500,161.000 C 447.500,161.000 447.601,161.527 450.500,161.000" stroke-width="11.927" stroke="rgb(33,33,33)" fill="none" stroke-linecap="round"></path><path d="M 450.500,161.000 C 453.101,160.527 453.305,160.463 455.500,159.000" stroke-width="12.069" stroke="rgb(33,33,33)" fill="none" stroke-linecap="round"></path><path d="M 455.500,159.000 C 457.805,157.463 457.377,156.858 459.500,155.000" stroke-width="12.232" stroke="rgb(33,33,33)" fill="none" stroke-linecap="round"></path><path d="M 459.500,155.000 C 461.377,153.358 461.584,153.597 463.500,152.000" stroke-width="12.466" stroke="rgb(33,33,33)" fill="none" stroke-linecap="round"></path><path d="M 463.500,152.000 C 464.584,151.097 464.792,151.180 465.500,150.000" stroke-width="13.057" stroke="rgb(33,33,33)" fill="none" stroke-linecap="round"></path><path d="M 465.500,150.000 C 466.292,148.680 465.809,148.382 466.500,147.000" stroke-width="13.596" stroke="rgb(33,33,33)" fill="none" stroke-linecap="round"></path><path d="M 466.500,147.000 C 466.809,146.382 467.187,145.530 467.500,146.000" stroke-width="14.192" stroke="rgb(33,33,33)" fill="none" stroke-linecap="round"></path><path d="M 467.500,146.000 C 469.187,148.530 468.387,149.982 470.500,153.000" stroke-width="15.007" stroke="rgb(33,33,33)" fill="none" stroke-linecap="round"></path><path d="M 470.500,153.000 C 471.887,154.982 472.278,155.167 474.500,156.000" stroke-width="13.240" stroke="rgb(33,33,33)" fill="none" stroke-linecap="round"></path><path d="M 474.500,156.000 C 476.278,156.667 477.218,157.436 478.500,156.000" stroke-width="12.472" stroke="rgb(33,33,33)" fill="none" stroke-linecap="round"></path><path d="M 478.500,156.000 C 489.718,143.436 491.252,143.208 499.500,128.000" stroke-width="6.750" stroke="rgb(33,33,33)" fill="none" stroke-linecap="round"></path><path d="M 499.500,128.000 C 507.252,113.708 504.816,112.428 510.500,97.000" stroke-width="6.750" stroke="rgb(33,33,33)" fill="none" stroke-linecap="round"></path><path d="M 510.500,97.000 C 511.816,93.428 512.302,93.594 513.500,90.000" stroke-width="6.750" stroke="rgb(33,33,33)" fill="none" stroke-linecap="round"></path><path d="M 513.500,90.000 C 514.302,87.594 514.248,87.525 514.500,85.000" stroke-width="6.750" stroke="rgb(33,33,33)" fill="none" stroke-linecap="round"></path><path d="M 514.500,85.000 C 514.748,82.525 514.890,81.559 514.500,80.000" stroke-width="6.750" stroke="rgb(33,33,33)" fill="none" stroke-linecap="round"></path><path d="M 514.500,80.000 C 514.390,79.559 513.717,80.349 513.500,81.000" stroke-width="6.750" stroke="rgb(33,33,33)" fill="none" stroke-linecap="round"></path><path d="M 513.500,81.000 C 512.717,83.349 513.433,83.667 512.500,86.000" stroke-width="6.750" stroke="rgb(33,33,33)" fill="none" stroke-linecap="round"></path><path d="M 512.500,86.000 C 511.433,88.667 510.532,88.290 509.500,91.000" stroke-width="6.750" stroke="rgb(33,33,33)" fill="none" stroke-linecap="round"></path><path d="M 509.500,91.000 C 506.532,98.790 507.363,99.128 504.500,107.000" stroke-width="6.750" stroke="rgb(33,33,33)" fill="none" stroke-linecap="round"></path><path d="M 504.500,107.000 C 499.363,121.128 499.256,121.105 493.500,135.000" stroke-width="6.750" stroke="rgb(33,33,33)" fill="none" stroke-linecap="round"></path><path d="M 493.500,135.000 C 484.756,156.105 484.235,155.890 475.500,177.000" stroke-width="6.750" stroke="rgb(33,33,33)" fill="none" stroke-linecap="round"></path><path d="M 475.500,177.000 C 466.235,199.390 466.799,199.625 457.500,222.000" stroke-width="6.750" stroke="rgb(33,33,33)" fill="none" stroke-linecap="round"></path><path d="M 457.500,222.000 C 450.799,238.125 450.379,237.948 443.500,254.000" stroke-width="6.750" stroke="rgb(33,33,33)" fill="none" stroke-linecap="round"></path><path d="M 443.500,254.000 C 438.379,265.948 438.479,265.991 433.500,278.000" stroke-width="6.750" stroke="rgb(33,33,33)" fill="none" stroke-linecap="round"></path><path d="M 433.500,278.000 C 429.979,286.491 430.281,286.628 426.500,295.000" stroke-width="6.750" stroke="rgb(33,33,33)" fill="none" stroke-linecap="round"></path><path d="M 426.500,295.000 C 423.281,302.128 423.344,302.199 419.500,309.000" stroke-width="6.750" stroke="rgb(33,33,33)" fill="none" stroke-linecap="round"></path><path d="M 419.500,309.000 C 416.844,313.699 416.438,313.460 413.500,318.000" stroke-width="6.750" stroke="rgb(33,33,33)" fill="none" stroke-linecap="round"></path><path d="M 413.500,318.000 C 410.938,321.960 411.050,322.033 408.500,326.000" stroke-width="6.750" stroke="rgb(33,33,33)" fill="none" stroke-linecap="round"></path><path d="M 408.500,326.000 C 406.550,329.033 406.590,329.074 404.500,332.000" stroke-width="7.483" stroke="rgb(33,33,33)" fill="none" stroke-linecap="round"></path></svg>