<svg xmlns="http://www.w3.org/2000/svg" xmlns:xlink="http://www.w3.org/1999/xlink" viewBox="0 0 800 500"><path d="M 114.500,173.000 C 115.000,173.000 115.000,173.000 115.500,173.000" stroke-width="20.243" stroke="rgb(33,33,33)" fill="none" stroke-linecap="round"></path><path d="M 115.500,173.000 C 117.000,173.000 117.095,172.599 118.500,173.000" stroke-width="16.871" stroke="rgb(33,33,33)" fill="none" stroke-linecap="round"></path><path d="M 118.500,173.000 C 120.595,173.599 120.397,174.299 122.500,175.000" stroke-width="16.651" stroke="rgb(33,33,33)" fill="none" stroke-linecap="round"></path><path d="M 122.500,175.000 C 124.897,175.799 125.012,175.447 127.500,176.000" stroke-width="14.182" stroke="rgb(33,33,33)" fill="none" stroke-linecap="round"></path><path d="M 127.500,176.000 C 129.512,176.447 129.527,176.408 131.500,177.000" stroke-width="14.010" stroke="rgb(33,33,33)" fill="none" stroke-linecap="round"></path><path d="M 131.500,177.000 C 134.527,177.908 134.437,178.387 137.500,179.000" stroke-width="11.390" stroke="rgb(33,33,33)" fill="none" stroke-linecap="round"></path><path d="M 137.500,179.000 C 139.437,179.387 139.522,178.780 141.500,179.000" stroke-width="11.112" stroke="rgb(33,33,33)" fill="none" stroke-linecap="round"></path><path d="M 141.500,179.000 C 144.022,179.280 143.982,179.685 146.500,180.000" stroke-width="11.762" stroke="rgb(33,33,33)" fill="none" stroke-linecap="round"></path><path d="M 146.500,180.000 C 147.982,180.185 148.000,180.000 149.500,180.000" stroke-width="11.394" stroke="rgb(33,33,33)" fill="none" stroke-linecap="round"></path><path d="M 149.500,180.000 C 151.000,180.000 151.040,179.757 152.500,180.000" stroke-width="12.247" stroke="rgb(33,33,33)" fill="none" stroke-linecap="round"></path><path d="M 152.500,180.000 C 154.040,180.257 154.036,180.414 155.500,181.000" stroke-width="12.048" stroke="rgb(33,33,33)" fill="none" stroke-linecap="round"></path><path d="M 155.500,181.000 C 156.536,181.414 156.432,181.786 157.500,182.000" stroke-width="12.652" stroke="rgb(33,33,33)" fill="none" stroke-linecap="round"></path><path d="M 157.500,182.000 C 158.932,182.286 159.068,181.714 160.500,182.000" stroke-width="13.019" stroke="rgb(33,33,33)" fill="none" stroke-linecap="round"></path><path d="M 160.500,182.000 C 161.568,182.214 161.444,182.736 162.500,183.000" stroke-width="13.636" stroke="rgb(33,33,33)" fill="none" stroke-linecap="round"></path><path d="M 162.500,183.000 C 163.444,183.236 163.500,183.000 164.500,183.000" stroke-width="12.752" stroke="rgb(33,33,33)" fill="none" stroke-linecap="round"></path><path d="M 164.500,183.000 C 166.000,183.000 166.000,183.000 167.500,183.000" stroke-width="12.123" stroke="rgb(33,33,33)" fill="none" stroke-linecap="round"></path><path d="M 167.500,183.000 C 169.000,183.000 169.000,183.000 170.500,183.000" stroke-width="12.885" stroke="rgb(33,33,33)" fill="none" stroke-linecap="round"></path><path d="M 170.500,183.000 C 171.500,183.000 171.500,183.000 172.500,183.000" stroke-width="13.435" stroke="rgb(33,33,33)" fill="none" stroke-linecap="round"></path><path d="M 172.500,183.000 C 175.000,183.000 175.000,183.000 177.500,183.000" stroke-width="13.598" stroke="rgb(33,33,33)" fill="none" stroke-linecap="round"></path><path d="M 177.500,183.000 C 180.000,183.000 180.019,182.774 182.500,183.000" stroke-width="12.337" stroke="rgb(33,33,33)" fill="none" stroke-linecap="round"></path><path d="M 182.500,183.000 C 185.519,183.274 185.508,183.456 188.500,184.000" stroke-width="12.161" stroke="rgb(33,33,33)" fill="none" stroke-linecap="round"></path><path d="M 188.500,184.000 C 191.008,184.456 190.973,184.770 193.500,185.000" stroke-width="12.202" stroke="rgb(33,33,33)" fill="none" stroke-linecap="round"></path><path d="M 193.500,185.000 C 196.473,185.270 196.536,184.704 199.500,185.000" stroke-width="12.070" stroke="rgb(33,33,33)" fill="none" stroke-linecap="round"></path><path d="M 199.500,185.000 C 201.536,185.204 201.470,185.746 203.500,186.000" stroke-width="10.361" stroke="rgb(33,33,33)" fill="none" stroke-linecap="round"></path><path d="M 203.500,186.000 C 205.470,186.246 205.500,186.000 207.500,186.000" stroke-width="10.313" stroke="rgb(33,33,33)" fill="none" stroke-linecap="round"></path><path d="M 207.500,186.000 C 209.000,186.000 209.000,186.000 210.500,186.000" stroke-width="11.198" stroke="rgb(33,33,33)" fill="none" stroke-linecap="round"></path><path d="M 210.500,186.000 C 212.000,186.000 212.000,186.000 213.500,186.000" stroke-width="10.966" stroke="rgb(33,33,33)" fill="none" stroke-linecap="round"></path><path d="M 213.500,186.000 C 214.500,186.000 214.500,186.000 215.500,186.000" stroke-width="11.915" stroke="rgb(33,33,33)" fill="none" stroke-linecap="round"></path><path d="M 215.500,186.000 C 216.500,186.000 216.500,186.000 217.500,186.000" stroke-width="12.580" stroke="rgb(33,33,33)" fill="none" stroke-linecap="round"></path><path d="M 217.500,186.000 C 219.000,186.000 219.000,186.000 220.500,186.000" stroke-width="12.958" stroke="rgb(33,33,33)" fill="none" stroke-linecap="round"></path><path d="M 220.500,186.000 C 222.000,186.000 222.000,186.000 223.500,186.000" stroke-width="13.277" stroke="rgb(33,33,33)" fill="none" stroke-linecap="round"></path><path d="M 223.500,186.000 C 225.000,186.000 225.000,186.000 226.500,186.000" stroke-width="13.544" stroke="rgb(33,33,33)" fill="none" stroke-linecap="round"></path><path d="M 226.500,186.000 C 228.000,186.000 228.000,186.000 229.500,186.000" stroke-width="12.687" stroke="rgb(33,33,33)" fill="none" stroke-linecap="round"></path><path d="M 229.500,186.000 C 231.000,186.000 231.000,186.000 232.500,186.000" stroke-width="12.076" stroke="rgb(33,33,33)" fill="none" stroke-linecap="round"></path><path d="M 232.500,186.000 C 234.000,186.000 234.000,186.000 235.500,186.000" stroke-width="12.858" stroke="rgb(33,33,33)" fill="none" stroke-linecap="round"></path><path d="M 235.500,186.000 C 237.000,186.000 237.014,186.165 238.500,186.000" stroke-width="13.193" stroke="rgb(33,33,33)" fill="none" stroke-linecap="round"></path><path d="M 238.500,186.000 C 241.514,185.665 241.583,185.796 244.500,185.000" stroke-width="13.242" stroke="rgb(33,33,33)" fill="none" stroke-linecap="round"></path><path d="M 244.500,185.000 C 247.083,184.296 247.000,184.000 249.500,183.000" stroke-width="11.963" stroke="rgb(33,33,33)" fill="none" stroke-linecap="round"></path><path d="M 249.500,183.000 C 252.000,182.000 252.149,182.283 254.500,181.000" stroke-width="11.991" stroke="rgb(33,33,33)" fill="none" stroke-linecap="round"></path><path d="M 254.500,181.000 C 257.649,179.283 257.296,178.602 260.500,177.000" stroke-width="11.696" stroke="rgb(33,33,33)" fill="none" stroke-linecap="round"></path><path d="M 260.500,177.000 C 264.296,175.102 264.637,175.783 268.500,174.000" stroke-width="10.063" stroke="rgb(33,33,33)" fill="none" stroke-linecap="round"></path><path d="M 268.500,174.000 C 271.137,172.783 270.969,172.446 273.500,171.000" stroke-width="10.355" stroke="rgb(33,33,33)" fill="none" stroke-linecap="round"></path><path d="M 273.500,171.000 C 277.969,168.446 278.279,168.902 282.500,166.000" stroke-width="10.016" stroke="rgb(33,33,33)" fill="none" stroke-linecap="round"></path><path d="M 282.500,166.000 C 286.279,163.402 285.793,162.718 289.500,160.000" stroke-width="9.888" stroke="rgb(33,33,33)" fill="none" stroke-linecap="round"></path><path d="M 289.500,160.000 C 293.293,157.218 293.628,157.681 297.500,155.000" stroke-width="9.763" stroke="rgb(33,33,33)" fill="none" stroke-linecap="round"></path><path d="M 297.500,155.000 C 300.128,153.181 300.111,153.124 302.500,151.000" stroke-width="10.027" stroke="rgb(33,33,33)" fill="none" stroke-linecap="round"></path><path d="M 302.500,151.000 C 304.611,149.124 304.266,148.675 306.500,147.000" stroke-width="10.047" stroke="rgb(33,33,33)" fill="none" stroke-linecap="round"></path><path d="M 306.500,147.000 C 308.266,145.675 308.662,146.225 310.500,145.000" stroke-width="10.062" stroke="rgb(33,33,33)" fill="none" stroke-linecap="round"></path><path d="M 310.500,145.000 C 311.662,144.225 311.392,143.739 312.500,143.000" stroke-width="11.031" stroke="rgb(33,33,33)" fill="none" stroke-linecap="round"></path><path d="M 312.500,143.000 C 312.892,142.739 313.086,143.207 313.500,143.000" stroke-width="11.957" stroke="rgb(33,33,33)" fill="none" stroke-linecap="round"></path><path d="M 313.500,143.000 C 314.086,142.707 314.000,142.500 314.500,142.000" stroke-width="12.734" stroke="rgb(33,33,33)" fill="none" stroke-linecap="round"></path><path d="M 314.500,142.000 C 315.000,141.500 315.000,141.500 315.500,141.000" stroke-width="13.125" stroke="rgb(33,33,33)" fill="none" stroke-linecap="round"></path><path d="M 315.500,141.000 C 316.000,140.500 316.000,140.500 316.500,140.000" stroke-width="13.779" stroke="rgb(33,33,33)" fill="none" stroke-linecap="round"></path><path d="M 316.500,140.000 C 317.000,139.500 317.207,139.586 317.500,139.000" stroke-width="14.616" stroke="rgb(33,33,33)" fill="none" stroke-linecap="round"></path><path d="M 317.500,139.000 C 317.707,138.586 317.500,138.500 317.500,138.000" stroke-width="15.187" stroke="rgb(33,33,33)" fill="none" stroke-linecap="round"></path><path d="M 317.500,138.000 C 317.500,137.500 317.500,137.500 317.500,137.000" stroke-width="15.882" stroke="rgb(33,33,33)" fill="none" stroke-linecap="round"></path><path d="M 317.500,137.000 C 317.500,136.500 317.500,136.500 317.500,136.000" stroke-width="16.374" stroke="rgb(33,33,33)" fill="none" stroke-linecap="round"></path><path d="M 317.500,136.000 C 317.500,135.000 317.500,135.000 317.500,134.000" stroke-width="16.472" stroke="rgb(33,33,33)" fill="none" stroke-linecap="round"></path><path d="M 317.500,134.000 C 317.500,133.000 317.694,132.969 317.500,132.000" stroke-width="14.637" stroke="rgb(33,33,33)" fill="none" stroke-linecap="round"></path><path d="M 317.500,132.000 C 317.194,130.469 316.934,130.519 316.500,129.000" stroke-width="13.439" stroke="rgb(33,33,33)" fill="none" stroke-linecap="round"></path><path d="M 316.500,129.000 C 315.934,127.019 316.220,126.919 315.500,125.000" stroke-width="13.899" stroke="rgb(33,33,33)" fill="none" stroke-linecap="round"></path><path d="M 315.500,125.000 C 314.720,122.919 314.407,123.042 313.500,121.000" stroke-width="12.935" stroke="rgb(33,33,33)" fill="none" stroke-linecap="round"></path><path d="M 313.500,121.000 C 312.407,118.542 312.698,118.396 311.500,116.000" stroke-width="13.324" stroke="rgb(33,33,33)" fill="none" stroke-linecap="round"></path><path d="M 311.500,116.000 C 310.698,114.396 310.500,114.500 309.500,113.000" stroke-width="12.532" stroke="rgb(33,33,33)" fill="none" stroke-linecap="round"></path><path d="M 309.500,113.000 C 308.500,111.500 308.668,111.362 307.500,110.000" stroke-width="13.192" stroke="rgb(33,33,33)" fill="none" stroke-linecap="round"></path><path d="M 307.500,110.000 C 305.668,107.862 305.500,108.000 303.500,106.000" stroke-width="12.902" stroke="rgb(33,33,33)" fill="none" stroke-linecap="round"></path><path d="M 303.500,106.000 C 302.500,105.000 302.500,105.000 301.500,104.000" stroke-width="13.476" stroke="rgb(33,33,33)" fill="none" stroke-linecap="round"></path><path d="M 301.500,104.000 C 300.000,102.500 300.204,102.217 298.500,101.000" stroke-width="12.544" stroke="rgb(33,33,33)" fill="none" stroke-linecap="round"></path><path d="M 298.500,101.000 C 296.704,99.717 296.581,99.780 294.500,99.000" stroke-width="12.631" stroke="rgb(33,33,33)" fill="none" stroke-linecap="round"></path><path d="M 294.500,99.000 C 292.581,98.280 292.526,98.289 290.500,98.000" stroke-width="12.771" stroke="rgb(33,33,33)" fill="none" stroke-linecap="round"></path><path d="M 290.500,98.000 C 289.026,97.789 289.000,98.000 287.500,98.000" stroke-width="13.119" stroke="rgb(33,33,33)" fill="none" stroke-linecap="round"></path><path d="M 287.500,98.000 C 285.000,98.000 285.000,98.000 282.500,98.000" stroke-width="8.317" stroke="rgb(33,33,33)" fill="none" stroke-linecap="round"></path><path d="M 282.500,98.000 C 278.500,98.000 278.409,97.442 274.500,98.000" stroke-width="8.625" stroke="rgb(33,33,33)" fill="none" stroke-linecap="round"></path><path d="M 274.500,98.000 C 271.409,98.442 271.500,99.000 268.500,100.000" stroke-width="9.387" stroke="rgb(33,33,33)" fill="none" stroke-linecap="round"></path><path d="M 268.500,100.000 C 264.000,101.500 263.875,101.198 259.500,103.000" stroke-width="9.905" stroke="rgb(33,33,33)" fill="none" stroke-linecap="round"></path><path d="M 259.500,103.000 C 255.375,104.698 255.545,105.096 251.500,107.000" stroke-width="7.418" stroke="rgb(33,33,33)" fill="none" stroke-linecap="round"></path><path d="M 251.500,107.000 C 247.045,109.096 246.830,108.691 242.500,111.000" stroke-width="7.699" stroke="rgb(33,33,33)" fill="none" stroke-linecap="round"></path><path d="M 242.500,111.000 C 239.330,112.691 239.500,113.000 236.500,115.000" stroke-width="8.151" stroke="rgb(33,33,33)" fill="none" stroke-linecap="round"></path><path d="M 236.500,115.000 C 233.500,117.000 233.500,117.000 230.500,119.000" stroke-width="8.552" stroke="rgb(33,33,33)" fill="none" stroke-linecap="round"></path><path d="M 230.500,119.000 C 227.500,121.000 227.500,121.000 224.500,123.000" stroke-width="8.903" stroke="rgb(33,33,33)" fill="none" stroke-linecap="round"></path><path d="M 224.500,123.000 C 221.500,125.000 221.333,124.796 218.500,127.000" stroke-width="8.099" stroke="rgb(33,33,33)" fill="none" stroke-linecap="round"></path><path d="M 218.500,127.000 C 216.833,128.296 217.094,128.605 215.500,130.000" stroke-width="8.436" stroke="rgb(33,33,33)" fill="none" stroke-linecap="round"></path><path d="M 215.500,130.000 C 213.094,132.105 213.027,132.035 210.500,134.000" stroke-width="9.257" stroke="rgb(33,33,33)" fill="none" stroke-linecap="round"></path><path d="M 210.500,134.000 C 208.527,135.535 208.254,135.246 206.500,137.000" stroke-width="9.758" stroke="rgb(33,33,33)" fill="none" stroke-linecap="round"></path><path d="M 206.500,137.000 C 204.254,139.246 204.527,139.522 202.500,142.000" stroke-width="9.288" stroke="rgb(33,33,33)" fill="none" stroke-linecap="round"></path><path d="M 202.500,142.000 C 200.027,145.022 199.572,144.745 197.500,148.000" stroke-width="9.465" stroke="rgb(33,33,33)" fill="none" stroke-linecap="round"></path><path d="M 197.500,148.000 C 196.072,150.245 196.700,150.599 195.500,153.000" stroke-width="9.896" stroke="rgb(33,33,33)" fill="none" stroke-linecap="round"></path><path d="M 195.500,153.000 C 194.200,155.599 193.895,155.442 192.500,158.000" stroke-width="10.213" stroke="rgb(33,33,33)" fill="none" stroke-linecap="round"></path><path d="M 192.500,158.000 C 190.895,160.942 191.126,161.073 189.500,164.000" stroke-width="10.364" stroke="rgb(33,33,33)" fill="none" stroke-linecap="round"></path><path d="M 189.500,164.000 C 188.626,165.573 188.299,165.402 187.500,167.000" stroke-width="10.927" stroke="rgb(33,33,33)" fill="none" stroke-linecap="round"></path><path d="M 187.500,167.000 C 186.799,168.402 187.000,168.500 186.500,170.000" stroke-width="11.495" stroke="rgb(33,33,33)" fill="none" stroke-linecap="round"></path><path d="M 186.500,170.000 C 186.000,171.500 186.121,171.550 185.500,173.000" stroke-width="11.457" stroke="rgb(33,33,33)" fill="none" stroke-linecap="round"></path><path d="M 185.500,173.000 C 184.621,175.050 184.379,174.950 183.500,177.000" stroke-width="11.163" stroke="rgb(33,33,33)" fill="none" stroke-linecap="round"></path><path d="M 183.500,177.000 C 182.879,178.450 182.721,178.455 182.500,180.000" stroke-width="11.977" stroke="rgb(33,33,33)" fill="none" stroke-linecap="round"></path><path d="M 182.500,180.000 C 182.221,181.955 182.681,182.013 182.500,184.000" stroke-width="11.555" stroke="rgb(33,33,33)" fill="none" stroke-linecap="round"></path><path d="M 182.500,184.000 C 182.181,187.513 181.890,187.487 181.500,191.000" stroke-width="12.016" stroke="rgb(33,33,33)" fill="none" stroke-linecap="round"></path><path d="M 181.500,191.000 C 180.890,196.487 180.762,196.489 180.500,202.000" stroke-width="9.641" stroke="rgb(33,33,33)" fill="none" stroke-linecap="round"></path><path d="M 180.500,202.000 C 180.262,206.989 180.951,207.037 180.500,212.000" stroke-width="9.505" stroke="rgb(33,33,33)" fill="none" stroke-linecap="round"></path><path d="M 180.500,212.000 C 179.951,218.037 179.049,217.963 178.500,224.000" stroke-width="9.169" stroke="rgb(33,33,33)" fill="none" stroke-linecap="round"></path><path d="M 178.500,224.000 C 178.049,228.963 178.500,229.000 178.500,234.000" stroke-width="9.135" stroke="rgb(33,33,33)" fill="none" stroke-linecap="round"></path><path d="M 178.500,234.000 C 178.500,238.000 178.500,238.000 178.500,242.000" stroke-width="9.040" stroke="rgb(33,33,33)" fill="none" stroke-linecap="round"></path><path d="M 178.500,242.000 C 178.500,245.000 178.500,245.000 178.500,248.000" stroke-width="9.238" stroke="rgb(33,33,33)" fill="none" stroke-linecap="round"></path><path d="M 178.500,248.000 C 178.500,252.000 178.500,252.000 178.500,256.000" stroke-width="9.889" stroke="rgb(33,33,33)" fill="none" stroke-linecap="round"></path><path d="M 178.500,256.000 C 178.500,259.500 178.500,259.500 178.500,263.000" stroke-width="9.254" stroke="rgb(33,33,33)" fill="none" stroke-linecap="round"></path><path d="M 178.500,263.000 C 178.500,267.000 178.500,267.000 178.500,271.000" stroke-width="9.416" stroke="rgb(33,33,33)" fill="none" stroke-linecap="round"></path><path d="M 178.500,271.000 C 178.500,273.000 178.500,273.000 178.500,275.000" stroke-width="10.023" stroke="rgb(33,33,33)" fill="none" stroke-linecap="round"></path><path d="M 178.500,275.000 C 178.500,278.000 178.796,278.036 178.500,281.000" stroke-width="10.298" stroke="rgb(33,33,33)" fill="none" stroke-linecap="round"></path><path d="M 178.500,281.000 C 178.296,283.036 178.066,283.019 177.500,285.000" stroke-width="10.793" stroke="rgb(33,33,33)" fill="none" stroke-linecap="round"></path><path d="M 177.500,285.000 C 177.066,286.519 176.806,286.469 176.500,288.000" stroke-width="11.376" stroke="rgb(33,33,33)" fill="none" stroke-linecap="round"></path><path d="M 176.500,288.000 C 176.306,288.969 176.809,289.073 176.500,290.000" stroke-width="12.097" stroke="rgb(33,33,33)" fill="none" stroke-linecap="round"></path><path d="M 176.500,290.000 C 175.809,292.073 175.099,291.905 174.500,294.000" stroke-width="11.487" stroke="rgb(33,33,33)" fill="none" stroke-linecap="round"></path><path d="M 174.500,294.000 C 174.099,295.405 174.786,295.568 174.500,297.000" stroke-width="12.016" stroke="rgb(33,33,33)" fill="none" stroke-linecap="round"></path><path d="M 174.500,297.000 C 174.286,298.068 174.162,298.117 173.500,299.000" stroke-width="12.624" stroke="rgb(33,33,33)" fill="none" stroke-linecap="round"></path><path d="M 173.500,299.000 C 172.662,300.117 172.379,299.901 171.500,301.000" stroke-width="13.031" stroke="rgb(33,33,33)" fill="none" stroke-linecap="round"></path><path d="M 171.500,301.000 C 170.379,302.401 170.455,302.472 169.500,304.000" stroke-width="13.207" stroke="rgb(33,33,33)" fill="none" stroke-linecap="round"></path><path d="M 169.500,304.000 C 167.955,306.472 168.065,306.541 166.500,309.000" stroke-width="12.878" stroke="rgb(33,33,33)" fill="none" stroke-linecap="round"></path><path d="M 166.500,309.000 C 164.565,312.041 164.595,312.067 162.500,315.000" stroke-width="11.136" stroke="rgb(33,33,33)" fill="none" stroke-linecap="round"></path><path d="M 162.500,315.000 C 159.595,319.067 159.537,319.028 156.500,323.000" stroke-width="10.631" stroke="rgb(33,33,33)" fill="none" stroke-linecap="round"></path><path d="M 156.500,323.000 C 153.037,327.528 152.836,327.381 149.500,332.000" stroke-width="10.375" stroke="rgb(33,33,33)" fill="none" stroke-linecap="round"></path><path d="M 149.500,332.000 C 146.336,336.381 146.946,336.865 143.500,341.000" stroke-width="10.324" stroke="rgb(33,33,33)" fill="none" stroke-linecap="round"></path><path d="M 143.500,341.000 C 139.446,345.865 139.132,345.641 134.500,350.000" stroke-width="10.444" stroke="rgb(33,33,33)" fill="none" stroke-linecap="round"></path><path d="M 134.500,350.000 C 130.632,353.641 130.383,353.375 126.500,357.000" stroke-width="10.502" stroke="rgb(33,33,33)" fill="none" stroke-linecap="round"></path><path d="M 126.500,357.000 C 122.883,360.375 123.323,360.894 119.500,364.000" stroke-width="10.424" stroke="rgb(33,33,33)" fill="none" stroke-linecap="round"></path><path d="M 119.500,364.000 C 115.323,367.394 114.819,366.761 110.500,370.000" stroke-width="10.002" stroke="rgb(33,33,33)" fill="none" stroke-linecap="round"></path><path d="M 110.500,370.000 C 106.819,372.761 107.333,373.536 103.500,376.000" stroke-width="9.878" stroke="rgb(33,33,33)" fill="none" stroke-linecap="round"></path><path d="M 103.500,376.000 C 100.333,378.036 100.015,377.536 96.500,379.000" stroke-width="9.973" stroke="rgb(33,33,33)" fill="none" stroke-linecap="round"></path><path d="M 96.500,379.000 C 94.015,380.036 94.029,380.080 91.500,381.000" stroke-width="10.337" stroke="rgb(33,33,33)" fill="none" stroke-linecap="round"></path><path d="M 91.500,381.000 C 88.529,382.080 88.545,382.170 85.500,383.000" stroke-width="9.720" stroke="rgb(33,33,33)" fill="none" stroke-linecap="round"></path><path d="M 85.500,383.000 C 83.045,383.670 82.988,383.447 80.500,384.000" stroke-width="9.798" stroke="rgb(33,33,33)" fill="none" stroke-linecap="round"></path><path d="M 80.500,384.000 C 78.488,384.447 78.512,384.553 76.500,385.000" stroke-width="10.630" stroke="rgb(33,33,33)" fill="none" stroke-linecap="round"></path><path d="M 76.500,385.000 C 74.012,385.553 74.018,385.685 71.500,386.000" stroke-width="10.525" stroke="rgb(33,33,33)" fill="none" stroke-linecap="round"></path><path d="M 71.500,386.000 C 70.018,386.185 70.000,386.000 68.500,386.000" stroke-width="11.398" stroke="rgb(33,33,33)" fill="none" stroke-linecap="round"></path><path d="M 68.500,386.000 C 66.500,386.000 66.500,386.000 64.500,386.000" stroke-width="11.118" stroke="rgb(33,33,33)" fill="none" stroke-linecap="round"></path><path d="M 64.500,386.000 C 63.000,386.000 62.960,386.243 61.500,386.000" stroke-width="11.932" stroke="rgb(33,33,33)" fill="none" stroke-linecap="round"></path><path d="M 61.500,386.000 C 59.960,385.743 60.031,385.306 58.500,385.000" stroke-width="11.521" stroke="rgb(33,33,33)" fill="none" stroke-linecap="round"></path><path d="M 58.500,385.000 C 57.531,384.806 57.480,385.163 56.500,385.000" stroke-width="12.415" stroke="rgb(33,33,33)" fill="none" stroke-linecap="round"></path><path d="M 56.500,385.000 C 54.480,384.663 54.362,384.745 52.500,384.000" stroke-width="12.684" stroke="rgb(33,33,33)" fill="none" stroke-linecap="round"></path><path d="M 52.500,384.000 C 51.862,383.745 52.081,383.387 51.500,383.000" stroke-width="13.082" stroke="rgb(33,33,33)" fill="none" stroke-linecap="round"></path><path d="M 51.500,383.000 C 50.581,382.387 50.383,382.662 49.500,382.000" stroke-width="13.552" stroke="rgb(33,33,33)" fill="none" stroke-linecap="round"></path><path d="M 49.500,382.000 C 48.383,381.162 48.500,381.000 47.500,380.000" stroke-width="13.812" stroke="rgb(33,33,33)" fill="none" stroke-linecap="round"></path><path d="M 47.500,380.000 C 46.500,379.000 46.500,379.000 45.500,378.000" stroke-width="14.027" stroke="rgb(33,33,33)" fill="none" stroke-linecap="round"></path><path d="M 45.500,378.000 C 44.500,377.000 44.500,377.000 43.500,376.000" stroke-width="13.024" stroke="rgb(33,33,33)" fill="none" stroke-linecap="round"></path><path d="M 43.500,376.000 C 42.000,374.500 41.646,374.719 40.500,373.000" stroke-width="12.318" stroke="rgb(33,33,33)" fill="none" stroke-linecap="round"></path><path d="M 40.500,373.000 C 39.646,371.719 40.201,371.402 39.500,370.000" stroke-width="13.116" stroke="rgb(33,33,33)" fill="none" stroke-linecap="round"></path><path d="M 39.500,370.000 C 38.701,368.402 38.299,368.598 37.500,367.000" stroke-width="13.277" stroke="rgb(33,33,33)" fill="none" stroke-linecap="round"></path><path d="M 37.500,367.000 C 36.799,365.598 36.806,365.531 36.500,364.000" stroke-width="13.507" stroke="rgb(33,33,33)" fill="none" stroke-linecap="round"></path><path d="M 36.500,364.000 C 36.306,363.031 36.500,363.000 36.500,362.000" stroke-width="13.505" stroke="rgb(33,33,33)" fill="none" stroke-linecap="round"></path><path d="M 36.500,362.000 C 36.500,361.500 36.655,361.464 36.500,361.000" stroke-width="14.243" stroke="rgb(33,33,33)" fill="none" stroke-linecap="round"></path><path d="M 36.500,361.000 C 36.155,359.964 35.764,360.056 35.500,359.000" stroke-width="14.534" stroke="rgb(33,33,33)" fill="none" stroke-linecap="round"></path><path d="M 35.500,359.000 C 35.264,358.056 35.500,358.000 35.500,357.000" stroke-width="14.315" stroke="rgb(33,33,33)" fill="none" stroke-linecap="round"></path><path d="M 35.500,357.000 C 35.500,356.000 35.500,356.000 35.500,355.000" stroke-width="14.656" stroke="rgb(33,33,33)" fill="none" stroke-linecap="round"></path><path d="M 35.500,355.000 C 35.500,354.000 35.086,353.828 35.500,353.000" stroke-width="14.941" stroke="rgb(33,33,33)" fill="none" stroke-linecap="round"></path><path d="M 35.500,353.000 C 36.086,351.828 36.500,352.000 37.500,351.000" stroke-width="14.689" stroke="rgb(33,33,33)" fill="none" stroke-linecap="round"></path><path d="M 37.500,351.000 C 38.500,350.000 38.357,349.817 39.500,349.000" stroke-width="13.474" stroke="rgb(33,33,33)" fill="none" stroke-linecap="round"></path><path d="M 39.500,349.000 C 41.857,347.317 42.175,347.743 44.500,346.000" stroke-width="13.803" stroke="rgb(33,33,33)" fill="none" stroke-linecap="round"></path><path d="M 44.500,346.000 C 48.175,343.243 47.902,342.878 51.500,340.000" stroke-width="12.624" stroke="rgb(33,33,33)" fill="none" stroke-linecap="round"></path><path d="M 51.500,340.000 C 55.402,336.878 55.447,336.927 59.500,334.000" stroke-width="11.683" stroke="rgb(33,33,33)" fill="none" stroke-linecap="round"></path><path d="M 59.500,334.000 C 64.447,330.427 64.500,330.500 69.500,327.000" stroke-width="9.217" stroke="rgb(33,33,33)" fill="none" stroke-linecap="round"></path><path d="M 69.500,327.000 C 74.500,323.500 74.423,323.385 79.500,320.000" stroke-width="9.371" stroke="rgb(33,33,33)" fill="none" stroke-linecap="round"></path><path d="M 79.500,320.000 C 84.923,316.385 85.203,316.784 90.500,313.000" stroke-width="7.847" stroke="rgb(33,33,33)" fill="none" stroke-linecap="round"></path><path d="M 90.500,313.000 C 95.703,309.284 95.326,308.763 100.500,305.000" stroke-width="7.834" stroke="rgb(33,33,33)" fill="none" stroke-linecap="round"></path><path d="M 100.500,305.000 C 106.326,300.763 106.374,300.793 112.500,297.000" stroke-width="6.775" stroke="rgb(33,33,33)" fill="none" stroke-linecap="round"></path><path d="M 112.500,297.000 C 116.874,294.293 116.941,294.388 121.500,292.000" stroke-width="7.255" stroke="rgb(33,33,33)" fill="none" stroke-linecap="round"></path><path d="M 121.500,292.000 C 127.441,288.888 127.445,288.883 133.500,286.000" stroke-width="7.753" stroke="rgb(33,33,33)" fill="none" stroke-linecap="round"></path><path d="M 133.500,286.000 C 137.945,283.883 137.865,283.622 142.500,282.000" stroke-width="8.134" stroke="rgb(33,33,33)" fill="none" stroke-linecap="round"></path><path d="M 142.500,282.000 C 147.865,280.122 148.048,280.659 153.500,279.000" stroke-width="8.760" stroke="rgb(33,33,33)" fill="none" stroke-linecap="round"></path><path d="M 153.500,279.000 C 159.548,277.159 159.372,276.471 165.500,275.000" stroke-width="8.561" stroke="rgb(33,33,33)" fill="none" stroke-linecap="round"></path><path d="M 165.500,275.000 C 171.872,273.471 172.006,274.039 178.500,273.000" stroke-width="7.364" stroke="rgb(33,33,33)" fill="none" stroke-linecap="round"></path><path d="M 178.500,273.000 C 184.506,272.039 184.481,271.860 190.500,271.000" stroke-width="7.488" stroke="rgb(33,33,33)" fill="none" stroke-linecap="round"></path><path d="M 190.500,271.000 C 194.981,270.360 195.051,270.785 199.500,270.000" stroke-width="7.819" stroke="rgb(33,33,33)" fill="none" stroke-linecap="round"></path><path d="M 199.500,270.000 C 203.551,269.285 203.448,268.579 207.500,268.000" stroke-width="7.544" stroke="rgb(33,33,33)" fill="none" stroke-linecap="round"></path><path d="M 207.500,268.000 C 210.448,267.579 210.527,268.270 213.500,268.000" stroke-width="7.950" stroke="rgb(33,33,33)" fill="none" stroke-linecap="round"></path><path d="M 213.500,268.000 C 216.027,267.770 216.000,267.500 218.500,267.000" stroke-width="8.826" stroke="rgb(33,33,33)" fill="none" stroke-linecap="round"></path><path d="M 218.500,267.000 C 221.000,266.500 220.978,266.280 223.500,266.000" stroke-width="9.362" stroke="rgb(33,33,33)" fill="none" stroke-linecap="round"></path><path d="M 223.500,266.000 C 225.478,265.780 225.545,266.279 227.500,266.000" stroke-width="9.973" stroke="rgb(33,33,33)" fill="none" stroke-linecap="round"></path><path d="M 227.500,266.000 C 229.045,265.779 229.000,265.500 230.500,265.000" stroke-width="10.639" stroke="rgb(33,33,33)" fill="none" stroke-linecap="round"></path><path d="M 230.500,265.000 C 232.000,264.500 231.960,264.257 233.500,264.000" stroke-width="11.239" stroke="rgb(33,33,33)" fill="none" stroke-linecap="round"></path><path d="M 233.500,264.000 C 234.960,263.757 235.000,264.000 236.500,264.000" stroke-width="11.798" stroke="rgb(33,33,33)" fill="none" stroke-linecap="round"></path><path d="M 236.500,264.000 C 238.500,264.000 238.545,264.279 240.500,264.000" stroke-width="12.103" stroke="rgb(33,33,33)" fill="none" stroke-linecap="round"></path><path d="M 240.500,264.000 C 242.045,263.779 241.960,263.257 243.500,263.000" stroke-width="9.328" stroke="rgb(33,33,33)" fill="none" stroke-linecap="round"></path><path d="M 243.500,263.000 C 244.960,262.757 245.000,263.000 246.500,263.000" stroke-width="9.477" stroke="rgb(33,33,33)" fill="none" stroke-linecap="round"></path><path d="M 246.500,263.000 C 248.000,263.000 248.000,263.000 249.500,263.000" stroke-width="10.401" stroke="rgb(33,33,33)" fill="none" stroke-linecap="round"></path><path d="M 249.500,263.000 C 251.000,263.000 251.000,263.000 252.500,263.000" stroke-width="10.345" stroke="rgb(33,33,33)" fill="none" stroke-linecap="round"></path><path d="M 252.500,263.000 C 253.500,263.000 253.531,263.194 254.500,263.000" stroke-width="11.296" stroke="rgb(33,33,33)" fill="none" stroke-linecap="round"></path><path d="M 254.500,263.000 C 256.031,262.694 255.960,262.257 257.500,262.000" stroke-width="11.040" stroke="rgb(33,33,33)" fill="none" stroke-linecap="round"></path><path d="M 257.500,262.000 C 258.960,261.757 259.000,262.000 260.500,262.000" stroke-width="11.878" stroke="rgb(33,33,33)" fill="none" stroke-linecap="round"></path><path d="M 260.500,262.000 C 261.500,262.000 261.500,262.000 262.500,262.000" stroke-width="11.481" stroke="rgb(33,33,33)" fill="none" stroke-linecap="round"></path><path d="M 262.500,262.000 C 263.000,262.000 263.000,262.000 263.500,262.000" stroke-width="12.472" stroke="rgb(33,33,33)" fill="none" stroke-linecap="round"></path><path d="M 263.500,262.000 C 264.000,262.000 264.000,262.000 264.500,262.000" stroke-width="13.289" stroke="rgb(33,33,33)" fill="none" stroke-linecap="round"></path><path d="M 264.500,262.000 C 265.000,262.000 265.000,262.000 265.500,262.000" stroke-width="14.023" stroke="rgb(33,33,33)" fill="none" stroke-linecap="round"></path><path d="M 265.500,262.000 C 266.000,262.000 266.086,262.207 266.500,262.000" stroke-width="14.805" stroke="rgb(33,33,33)" fill="none" stroke-linecap="round"></path><path d="M 266.500,262.000 C 267.086,261.707 266.919,261.387 267.500,261.000" stroke-width="14.836" stroke="rgb(33,33,33)" fill="none" stroke-linecap="round"></path><path d="M 267.500,261.000 C 268.419,260.387 268.637,260.690 269.500,260.000" stroke-width="15.024" stroke="rgb(33,33,33)" fill="none" stroke-linecap="round"></path><path d="M 269.500,260.000 C 271.137,258.690 271.400,258.788 272.500,257.000" stroke-width="14.856" stroke="rgb(33,33,33)" fill="none" stroke-linecap="round"></path><path d="M 272.500,257.000 C 275.400,252.288 274.529,251.703 277.500,247.000" stroke-width="13.586" stroke="rgb(33,33,33)" fill="none" stroke-linecap="round"></path><path d="M 277.500,247.000 C 280.529,242.203 281.287,242.696 284.500,238.000" stroke-width="13.112" stroke="rgb(33,33,33)" fill="none" stroke-linecap="round"></path><path d="M 284.500,238.000 C 287.787,233.196 287.100,232.708 290.500,228.000" stroke-width="12.381" stroke="rgb(33,33,33)" fill="none" stroke-linecap="round"></path><path d="M 290.500,228.000 C 293.600,223.708 294.452,224.318 297.500,220.000" stroke-width="11.853" stroke="rgb(33,33,33)" fill="none" stroke-linecap="round"></path><path d="M 297.500,220.000 C 300.452,215.818 299.653,215.271 302.500,211.000" stroke-width="12.164" stroke="rgb(33,33,33)" fill="none" stroke-linecap="round"></path><path d="M 302.500,211.000 C 305.653,206.271 305.968,206.474 309.500,202.000" stroke-width="11.145" stroke="rgb(33,33,33)" fill="none" stroke-linecap="round"></path><path d="M 309.500,202.000 C 313.468,196.974 313.660,197.120 317.500,192.000" stroke-width="9.734" stroke="rgb(33,33,33)" fill="none" stroke-linecap="round"></path><path d="M 317.500,192.000 C 321.160,187.120 320.840,186.880 324.500,182.000" stroke-width="9.810" stroke="rgb(33,33,33)" fill="none" stroke-linecap="round"></path><path d="M 324.500,182.000 C 328.340,176.880 328.569,177.054 332.500,172.000" stroke-width="10.014" stroke="rgb(33,33,33)" fill="none" stroke-linecap="round"></path><path d="M 332.500,172.000 C 335.569,168.054 335.543,168.032 338.500,164.000" stroke-width="10.036" stroke="rgb(33,33,33)" fill="none" stroke-linecap="round"></path><path d="M 338.500,164.000 C 341.043,160.532 340.756,160.293 343.500,157.000" stroke-width="10.537" stroke="rgb(33,33,33)" fill="none" stroke-linecap="round"></path><path d="M 343.500,157.000 C 345.756,154.293 346.138,154.624 348.500,152.000" stroke-width="10.452" stroke="rgb(33,33,33)" fill="none" stroke-linecap="round"></path><path d="M 348.500,152.000 C 350.638,149.624 350.376,149.389 352.500,147.000" stroke-width="10.385" stroke="rgb(33,33,33)" fill="none" stroke-linecap="round"></path><path d="M 352.500,147.000 C 354.376,144.889 354.400,144.890 356.500,143.000" stroke-width="11.062" stroke="rgb(33,33,33)" fill="none" stroke-linecap="round"></path><path d="M 356.500,143.000 C 359.400,140.390 359.613,140.624 362.500,138.000" stroke-width="10.861" stroke="rgb(33,33,33)" fill="none" stroke-linecap="round"></path><path d="M 362.500,138.000 C 365.113,135.624 364.777,135.228 367.500,133.000" stroke-width="11.513" stroke="rgb(33,33,33)" fill="none" stroke-linecap="round"></path><path d="M 367.500,133.000 C 370.277,130.728 370.500,131.000 373.500,129.000" stroke-width="10.291" stroke="rgb(33,33,33)" fill="none" stroke-linecap="round"></path><path d="M 373.500,129.000 C 376.500,127.000 376.500,127.000 379.500,125.000" stroke-width="10.690" stroke="rgb(33,33,33)" fill="none" stroke-linecap="round"></path><path d="M 379.500,125.000 C 382.500,123.000 382.587,123.119 385.500,121.000" stroke-width="9.754" stroke="rgb(33,33,33)" fill="none" stroke-linecap="round"></path><path d="M 385.500,121.000 C 388.087,119.119 388.022,119.027 390.500,117.000" stroke-width="10.020" stroke="rgb(33,33,33)" fill="none" stroke-linecap="round"></path><path d="M 390.500,117.000 C 393.522,114.527 393.613,114.624 396.500,112.000" stroke-width="9.511" stroke="rgb(33,33,33)" fill="none" stroke-linecap="round"></path><path d="M 396.500,112.000 C 399.113,109.624 398.876,109.362 401.500,107.000" stroke-width="9.628" stroke="rgb(33,33,33)" fill="none" stroke-linecap="round"></path><path d="M 401.500,107.000 C 403.876,104.862 403.973,104.965 406.500,103.000" stroke-width="10.342" stroke="rgb(33,33,33)" fill="none" stroke-linecap="round"></path><path d="M 406.500,103.000 C 408.473,101.465 408.916,101.848 410.500,100.000" stroke-width="10.706" stroke="rgb(33,33,33)" fill="none" stroke-linecap="round"></path><path d="M 410.500,100.000 C 411.916,98.348 411.217,97.796 412.500,96.000" stroke-width="11.096" stroke="rgb(33,33,33)" fill="none" stroke-linecap="round"></path><path d="M 412.500,96.000 C 413.717,94.296 414.354,94.719 415.500,93.000" stroke-width="11.467" stroke="rgb(33,33,33)" fill="none" stroke-linecap="round"></path><path d="M 415.500,93.000 C 416.354,91.719 415.708,91.320 416.500,90.000" stroke-width="11.435" stroke="rgb(33,33,33)" fill="none" stroke-linecap="round"></path><path d="M 416.500,90.000 C 417.208,88.820 417.500,89.000 418.500,88.000" stroke-width="12.000" stroke="rgb(33,33,33)" fill="none" stroke-linecap="round"></path><path d="M 418.500,88.000 C 419.000,87.500 419.000,87.500 419.500,87.000" stroke-width="12.774" stroke="rgb(33,33,33)" fill="none" stroke-linecap="round"></path><path d="M 419.500,87.000 C 420.500,86.000 420.761,86.108 421.500,85.000" stroke-width="12.805" stroke="rgb(33,33,33)" fill="none" stroke-linecap="round"></path><path d="M 421.500,85.000 C 421.761,84.608 421.250,84.250 421.500,84.000" stroke-width="13.652" stroke="rgb(33,33,33)" fill="none" stroke-linecap="round"></path><path d="M 421.500,84.000 C 421.750,83.750 422.250,84.250 422.500,84.000" stroke-width="14.473" stroke="rgb(33,33,33)" fill="none" stroke-linecap="round"></path><path d="M 422.500,84.000 C 422.750,83.750 422.833,83.167 422.500,83.000" stroke-width="15.195" stroke="rgb(33,33,33)" fill="none" stroke-linecap="round"></path><path d="M 422.500,83.000 C 421.833,82.667 421.500,83.000 420.500,83.000" stroke-width="15.897" stroke="rgb(33,33,33)" fill="none" stroke-linecap="round"></path><path d="M 420.500,83.000 C 420.000,83.000 419.957,82.817 419.500,83.000" stroke-width="16.231" stroke="rgb(33,33,33)" fill="none" stroke-linecap="round"></path><path d="M 419.500,83.000 C 417.457,83.817 417.350,83.766 415.500,85.000" stroke-width="14.484" stroke="rgb(33,33,33)" fill="none" stroke-linecap="round"></path><path d="M 415.500,85.000 C 412.850,86.766 413.060,87.080 410.500,89.000" stroke-width="13.336" stroke="rgb(33,33,33)" fill="none" stroke-linecap="round"></path><path d="M 410.500,89.000 C 407.060,91.580 407.077,91.615 403.500,94.000" stroke-width="13.302" stroke="rgb(33,33,33)" fill="none" stroke-linecap="round"></path><path d="M 403.500,94.000 C 399.577,96.615 399.293,96.218 395.500,99.000" stroke-width="12.517" stroke="rgb(33,33,33)" fill="none" stroke-linecap="round"></path><path d="M 395.500,99.000 C 391.793,101.718 392.121,102.155 388.500,105.000" stroke-width="12.522" stroke="rgb(33,33,33)" fill="none" stroke-linecap="round"></path><path d="M 388.500,105.000 C 385.121,107.655 385.044,107.564 381.500,110.000" stroke-width="11.956" stroke="rgb(33,33,33)" fill="none" stroke-linecap="round"></path><path d="M 381.500,110.000 C 377.044,113.064 376.930,112.899 372.500,116.000" stroke-width="12.134" stroke="rgb(33,33,33)" fill="none" stroke-linecap="round"></path><path d="M 372.500,116.000 C 366.930,119.899 367.082,120.117 361.500,124.000" stroke-width="10.799" stroke="rgb(33,33,33)" fill="none" stroke-linecap="round"></path><path d="M 361.500,124.000 C 355.582,128.117 355.013,127.406 349.500,132.000" stroke-width="9.827" stroke="rgb(33,33,33)" fill="none" stroke-linecap="round"></path><path d="M 349.500,132.000 C 343.013,137.406 343.375,137.880 337.500,144.000" stroke-width="8.910" stroke="rgb(33,33,33)" fill="none" stroke-linecap="round"></path><path d="M 337.500,144.000 C 331.375,150.380 331.630,150.625 325.500,157.000" stroke-width="8.230" stroke="rgb(33,33,33)" fill="none" stroke-linecap="round"></path><path d="M 325.500,157.000 C 319.130,163.625 318.865,163.370 312.500,170.000" stroke-width="7.705" stroke="rgb(33,33,33)" fill="none" stroke-linecap="round"></path><path d="M 312.500,170.000 C 306.865,175.870 307.249,176.251 301.500,182.000" stroke-width="6.750" stroke="rgb(33,33,33)" fill="none" stroke-linecap="round"></path><path d="M 301.500,182.000 C 296.749,186.751 296.382,186.375 291.500,191.000" stroke-width="6.750" stroke="rgb(33,33,33)" fill="none" stroke-linecap="round"></path><path d="M 291.500,191.000 C 286.882,195.375 286.875,195.382 282.500,200.000" stroke-width="6.750" stroke="rgb(33,33,33)" fill="none" stroke-linecap="round"></path><path d="M 282.500,200.000 C 277.875,204.882 277.855,204.877 273.500,210.000" stroke-width="6.750" stroke="rgb(33,33,33)" fill="none" stroke-linecap="round"></path><path d="M 273.500,210.000 C 269.355,214.877 269.570,215.058 265.500,220.000" stroke-width="6.870" stroke="rgb(33,33,33)" fill="none" stroke-linecap="round"></path><path d="M 265.500,220.000 C 262.570,223.558 262.378,223.402 259.500,227.000" stroke-width="7.067" stroke="rgb(33,33,33)" fill="none" stroke-linecap="round"></path><path d="M 259.500,227.000 C 256.378,230.902 256.457,230.968 253.500,235.000" stroke-width="7.384" stroke="rgb(33,33,33)" fill="none" stroke-linecap="round"></path><path d="M 253.500,235.000 C 250.957,238.468 250.884,238.424 248.500,242.000" stroke-width="7.762" stroke="rgb(33,33,33)" fill="none" stroke-linecap="round"></path><path d="M 248.500,242.000 C 246.884,244.424 247.000,244.500 245.500,247.000" stroke-width="7.853" stroke="rgb(33,33,33)" fill="none" stroke-linecap="round"></path><path d="M 245.500,247.000 C 244.000,249.500 244.045,249.528 242.500,252.000" stroke-width="8.548" stroke="rgb(33,33,33)" fill="none" stroke-linecap="round"></path><path d="M 242.500,252.000 C 241.545,253.528 241.649,253.622 240.500,255.000" stroke-width="8.823" stroke="rgb(33,33,33)" fill="none" stroke-linecap="round"></path><path d="M 240.500,255.000 C 239.149,256.622 238.717,256.296 237.500,258.000" stroke-width="9.056" stroke="rgb(33,33,33)" fill="none" stroke-linecap="round"></path><path d="M 237.500,258.000 C 236.217,259.796 236.725,260.162 235.500,262.000" stroke-width="9.968" stroke="rgb(33,33,33)" fill="none" stroke-linecap="round"></path><path d="M 235.500,262.000 C 234.725,263.162 234.379,262.901 233.500,264.000" stroke-width="10.681" stroke="rgb(33,33,33)" fill="none" stroke-linecap="round"></path><path d="M 233.500,264.000 C 232.379,265.401 232.393,265.438 231.500,267.000" stroke-width="11.207" stroke="rgb(33,33,33)" fill="none" stroke-linecap="round"></path><path d="M 231.500,267.000 C 230.393,268.938 230.607,269.062 229.500,271.000" stroke-width="10.834" stroke="rgb(33,33,33)" fill="none" stroke-linecap="round"></path><path d="M 229.500,271.000 C 228.607,272.562 228.374,272.427 227.500,274.000" stroke-width="11.342" stroke="rgb(33,33,33)" fill="none" stroke-linecap="round"></path><path d="M 227.500,274.000 C 225.874,276.927 225.739,276.903 224.500,280.000" stroke-width="11.637" stroke="rgb(33,33,33)" fill="none" stroke-linecap="round"></path><path d="M 224.500,280.000 C 223.739,281.903 224.328,282.136 223.500,284.000" stroke-width="11.261" stroke="rgb(33,33,33)" fill="none" stroke-linecap="round"></path><path d="M 223.500,284.000 C 222.328,286.636 221.895,286.442 220.500,289.000" stroke-width="11.348" stroke="rgb(33,33,33)" fill="none" stroke-linecap="round"></path><path d="M 220.500,289.000 C 218.895,291.942 218.905,291.956 217.500,295.000" stroke-width="11.280" stroke="rgb(33,33,33)" fill="none" stroke-linecap="round"></path><path d="M 217.500,295.000 C 215.905,298.456 216.095,298.544 214.500,302.000" stroke-width="10.040" stroke="rgb(33,33,33)" fill="none" stroke-linecap="round"></path><path d="M 214.500,302.000 C 213.095,305.044 212.887,304.949 211.500,308.000" stroke-width="10.221" stroke="rgb(33,33,33)" fill="none" stroke-linecap="round"></path><path d="M 211.500,308.000 C 210.387,310.449 210.796,310.667 209.500,313.000" stroke-width="10.549" stroke="rgb(33,33,33)" fill="none" stroke-linecap="round"></path><path d="M 209.500,313.000 C 208.296,315.167 207.885,314.923 206.500,317.000" stroke-width="10.883" stroke="rgb(33,33,33)" fill="none" stroke-linecap="round"></path><path d="M 206.500,317.000 C 204.885,319.423 204.672,319.364 203.500,322.000" stroke-width="11.039" stroke="rgb(33,33,33)" fill="none" stroke-linecap="round"></path><path d="M 203.500,322.000 C 202.672,323.864 203.150,324.049 202.500,326.000" stroke-width="10.843" stroke="rgb(33,33,33)" fill="none" stroke-linecap="round"></path><path d="M 202.500,326.000 C 201.650,328.549 201.593,328.542 200.500,331.000" stroke-width="10.692" stroke="rgb(33,33,33)" fill="none" stroke-linecap="round"></path><path d="M 200.500,331.000 C 199.593,333.042 199.328,332.929 198.500,335.000" stroke-width="11.410" stroke="rgb(33,33,33)" fill="none" stroke-linecap="round"></path><path d="M 198.500,335.000 C 197.328,337.929 197.330,337.955 196.500,341.000" stroke-width="11.127" stroke="rgb(33,33,33)" fill="none" stroke-linecap="round"></path><path d="M 196.500,341.000 C 195.830,343.455 196.117,343.531 195.500,346.000" stroke-width="11.776" stroke="rgb(33,33,33)" fill="none" stroke-linecap="round"></path><path d="M 195.500,346.000 C 195.117,347.531 194.806,347.469 194.500,349.000" stroke-width="11.404" stroke="rgb(33,33,33)" fill="none" stroke-linecap="round"></path><path d="M 194.500,349.000 C 194.306,349.969 194.793,350.121 194.500,351.000" stroke-width="12.293" stroke="rgb(33,33,33)" fill="none" stroke-linecap="round"></path><path d="M 194.500,351.000 C 194.293,351.621 193.707,351.379 193.500,352.000" stroke-width="11.788" stroke="rgb(33,33,33)" fill="none" stroke-linecap="round"></path><path d="M 193.500,352.000 C 193.207,352.879 193.500,353.000 193.500,354.000" stroke-width="12.702" stroke="rgb(33,33,33)" fill="none" stroke-linecap="round"></path><path d="M 193.500,354.000 C 193.500,354.500 193.500,354.500 193.500,355.000" stroke-width="13.572" stroke="rgb(33,33,33)" fill="none" stroke-linecap="round"></path><path d="M 193.500,355.000 C 193.500,355.500 193.167,355.833 193.500,356.000" stroke-width="14.427" stroke="rgb(33,33,33)" fill="none" stroke-linecap="round"></path><path d="M 193.500,356.000 C 194.167,356.333 194.520,355.837 195.500,356.000" stroke-width="13.297" stroke="rgb(33,33,33)" fill="none" stroke-linecap="round"></path><path d="M 195.500,356.000 C 197.520,356.337 197.549,356.350 199.500,357.000" stroke-width="13.874" stroke="rgb(33,33,33)" fill="none" stroke-linecap="round"></path><path d="M 199.500,357.000 C 202.049,357.850 202.042,357.907 204.500,359.000" stroke-width="13.480" stroke="rgb(33,33,33)" fill="none" stroke-linecap="round"></path><path d="M 204.500,359.000 C 206.542,359.907 206.429,360.172 208.500,361.000" stroke-width="12.458" stroke="rgb(33,33,33)" fill="none" stroke-linecap="round"></path><path d="M 208.500,361.000 C 211.429,362.172 211.500,362.000 214.500,363.000" stroke-width="12.210" stroke="rgb(33,33,33)" fill="none" stroke-linecap="round"></path><path d="M 214.500,363.000 C 217.500,364.000 217.473,364.092 220.500,365.000" stroke-width="12.407" stroke="rgb(33,33,33)" fill="none" stroke-linecap="round"></path><path d="M 220.500,365.000 C 222.473,365.592 222.466,365.774 224.500,366.000" stroke-width="11.829" stroke="rgb(33,33,33)" fill="none" stroke-linecap="round"></path><path d="M 224.500,366.000 C 226.966,366.274 227.025,365.752 229.500,366.000" stroke-width="11.950" stroke="rgb(33,33,33)" fill="none" stroke-linecap="round"></path><path d="M 229.500,366.000 C 232.025,366.252 231.973,366.770 234.500,367.000" stroke-width="11.184" stroke="rgb(33,33,33)" fill="none" stroke-linecap="round"></path><path d="M 234.500,367.000 C 237.473,367.270 237.612,367.619 240.500,367.000" stroke-width="10.955" stroke="rgb(33,33,33)" fill="none" stroke-linecap="round"></path><path d="M 240.500,367.000 C 244.612,366.119 244.645,365.814 248.500,364.000" stroke-width="11.296" stroke="rgb(33,33,33)" fill="none" stroke-linecap="round"></path><path d="M 248.500,364.000 C 253.145,361.814 253.318,361.952 257.500,359.000" stroke-width="11.041" stroke="rgb(33,33,33)" fill="none" stroke-linecap="round"></path><path d="M 257.500,359.000 C 261.818,355.952 261.165,355.034 265.500,352.000" stroke-width="11.417" stroke="rgb(33,33,33)" fill="none" stroke-linecap="round"></path><path d="M 265.500,352.000 C 271.165,348.034 271.776,348.903 277.500,345.000" stroke-width="11.133" stroke="rgb(33,33,33)" fill="none" stroke-linecap="round"></path><path d="M 277.500,345.000 C 282.776,341.403 282.623,341.145 287.500,337.000" stroke-width="10.916" stroke="rgb(33,33,33)" fill="none" stroke-linecap="round"></path><path d="M 287.500,337.000 C 292.623,332.645 293.008,332.965 297.500,328.000" stroke-width="10.933" stroke="rgb(33,33,33)" fill="none" stroke-linecap="round"></path><path d="M 297.500,328.000 C 302.508,322.465 301.790,321.831 306.500,316.000" stroke-width="10.761" stroke="rgb(33,33,33)" fill="none" stroke-linecap="round"></path><path d="M 306.500,316.000 C 312.290,308.831 312.630,309.106 318.500,302.000" stroke-width="10.460" stroke="rgb(33,33,33)" fill="none" stroke-linecap="round"></path><path d="M 318.500,302.000 C 322.130,297.606 322.080,297.560 325.500,293.000" stroke-width="9.957" stroke="rgb(33,33,33)" fill="none" stroke-linecap="round"></path><path d="M 325.500,293.000 C 328.080,289.560 328.116,289.576 330.500,286.000" stroke-width="10.130" stroke="rgb(33,33,33)" fill="none" stroke-linecap="round"></path><path d="M 330.500,286.000 C 332.116,283.576 331.723,283.284 333.500,281.000" stroke-width="10.129" stroke="rgb(33,33,33)" fill="none" stroke-linecap="round"></path><path d="M 333.500,281.000 C 335.223,278.784 335.500,279.000 337.500,277.000" stroke-width="10.801" stroke="rgb(33,33,33)" fill="none" stroke-linecap="round"></path><path d="M 337.500,277.000 C 338.500,276.000 338.662,276.117 339.500,275.000" stroke-width="10.659" stroke="rgb(33,33,33)" fill="none" stroke-linecap="round"></path><path d="M 339.500,275.000 C 340.162,274.117 339.838,273.883 340.500,273.000" stroke-width="11.586" stroke="rgb(33,33,33)" fill="none" stroke-linecap="round"></path><path d="M 340.500,273.000 C 341.338,271.883 341.761,272.108 342.500,271.000" stroke-width="11.964" stroke="rgb(33,33,33)" fill="none" stroke-linecap="round"></path><path d="M 342.500,271.000 C 342.761,270.608 342.250,270.250 342.500,270.000" stroke-width="12.927" stroke="rgb(33,33,33)" fill="none" stroke-linecap="round"></path><path d="M 342.500,270.000 C 342.750,269.750 343.250,270.250 343.500,270.000" stroke-width="13.699" stroke="rgb(33,33,33)" fill="none" stroke-linecap="round"></path><path d="M 343.500,270.000 C 343.750,269.750 343.750,269.250 343.500,269.000" stroke-width="14.472" stroke="rgb(33,33,33)" fill="none" stroke-linecap="round"></path><path d="M 343.500,269.000 C 343.250,268.750 343.000,269.000 342.500,269.000" stroke-width="15.265" stroke="rgb(33,33,33)" fill="none" stroke-linecap="round"></path><path d="M 342.500,269.000 C 341.500,269.000 341.480,268.837 340.500,269.000" stroke-width="15.792" stroke="rgb(33,33,33)" fill="none" stroke-linecap="round"></path><path d="M 340.500,269.000 C 338.480,269.337 338.419,269.280 336.500,270.000" stroke-width="14.141" stroke="rgb(33,33,33)" fill="none" stroke-linecap="round"></path><path d="M 336.500,270.000 C 334.419,270.780 334.571,271.172 332.500,272.000" stroke-width="13.895" stroke="rgb(33,33,33)" fill="none" stroke-linecap="round"></path><path d="M 332.500,272.000 C 329.571,273.172 329.309,272.595 326.500,274.000" stroke-width="13.287" stroke="rgb(33,33,33)" fill="none" stroke-linecap="round"></path><path d="M 326.500,274.000 C 322.309,276.095 322.500,276.500 318.500,279.000" stroke-width="12.235" stroke="rgb(33,33,33)" fill="none" stroke-linecap="round"></path><path d="M 318.500,279.000 C 314.500,281.500 314.330,281.265 310.500,284.000" stroke-width="11.506" stroke="rgb(33,33,33)" fill="none" stroke-linecap="round"></path><path d="M 310.500,284.000 C 307.330,286.265 307.500,286.500 304.500,289.000" stroke-width="10.133" stroke="rgb(33,33,33)" fill="none" stroke-linecap="round"></path><path d="M 304.500,289.000 C 301.500,291.500 301.500,291.500 298.500,294.000" stroke-width="9.592" stroke="rgb(33,33,33)" fill="none" stroke-linecap="round"></path><path d="M 298.500,294.000 C 295.500,296.500 295.400,296.390 292.500,299.000" stroke-width="9.694" stroke="rgb(33,33,33)" fill="none" stroke-linecap="round"></path><path d="M 292.500,299.000 C 290.400,300.890 290.500,301.000 288.500,303.000" stroke-width="10.428" stroke="rgb(33,33,33)" fill="none" stroke-linecap="round"></path><path d="M 288.500,303.000 C 286.000,305.500 286.000,305.500 283.500,308.000" stroke-width="10.366" stroke="rgb(33,33,33)" fill="none" stroke-linecap="round"></path><path d="M 283.500,308.000 C 281.000,310.500 280.876,310.387 278.500,313.000" stroke-width="11.022" stroke="rgb(33,33,33)" fill="none" stroke-linecap="round"></path><path d="M 278.500,313.000 C 275.876,315.887 275.765,315.830 273.500,319.000" stroke-width="10.858" stroke="rgb(33,33,33)" fill="none" stroke-linecap="round"></path><path d="M 273.500,319.000 C 270.765,322.830 271.062,323.040 268.500,327.000" stroke-width="9.359" stroke="rgb(33,33,33)" fill="none" stroke-linecap="round"></path><path d="M 268.500,327.000 C 265.562,331.540 265.014,331.251 262.500,336.000" stroke-width="9.591" stroke="rgb(33,33,33)" fill="none" stroke-linecap="round"></path><path d="M 262.500,336.000 C 260.514,339.751 261.210,340.092 259.500,344.000" stroke-width="8.743" stroke="rgb(33,33,33)" fill="none" stroke-linecap="round"></path><path d="M 259.500,344.000 C 257.710,348.092 257.373,347.943 255.500,352.000" stroke-width="8.099" stroke="rgb(33,33,33)" fill="none" stroke-linecap="round"></path><path d="M 255.500,352.000 C 254.373,354.443 254.500,354.500 253.500,357.000" stroke-width="8.437" stroke="rgb(33,33,33)" fill="none" stroke-linecap="round"></path><path d="M 253.500,357.000 C 252.500,359.500 252.560,359.527 251.500,362.000" stroke-width="9.257" stroke="rgb(33,33,33)" fill="none" stroke-linecap="round"></path><path d="M 251.500,362.000 C 251.060,363.027 250.764,362.944 250.500,364.000" stroke-width="9.419" stroke="rgb(33,33,33)" fill="none" stroke-linecap="round"></path><path d="M 250.500,364.000 C 250.264,364.944 250.500,365.000 250.500,366.000" stroke-width="10.412" stroke="rgb(33,33,33)" fill="none" stroke-linecap="round"></path><path d="M 250.500,366.000 C 250.500,366.500 250.750,366.750 250.500,367.000" stroke-width="10.353" stroke="rgb(33,33,33)" fill="none" stroke-linecap="round"></path><path d="M 250.500,367.000 C 250.250,367.250 249.667,366.667 249.500,367.000" stroke-width="11.403" stroke="rgb(33,33,33)" fill="none" stroke-linecap="round"></path><path d="M 249.500,367.000 C 249.167,367.667 249.500,368.000 249.500,369.000" stroke-width="11.768" stroke="rgb(33,33,33)" fill="none" stroke-linecap="round"></path><path d="M 249.500,369.000 C 249.500,369.500 249.500,369.500 249.500,370.000" stroke-width="12.743" stroke="rgb(33,33,33)" fill="none" stroke-linecap="round"></path><path d="M 249.500,370.000 C 249.500,370.500 249.500,370.500 249.500,371.000" stroke-width="13.686" stroke="rgb(33,33,33)" fill="none" stroke-linecap="round"></path><path d="M 249.500,371.000 C 249.500,371.500 249.500,371.500 249.500,372.000" stroke-width="14.530" stroke="rgb(33,33,33)" fill="none" stroke-linecap="round"></path><path d="M 249.500,372.000 C 249.500,372.500 249.250,372.750 249.500,373.000" stroke-width="15.255" stroke="rgb(33,33,33)" fill="none" stroke-linecap="round"></path><path d="M 249.500,373.000 C 249.750,373.250 250.086,372.793 250.500,373.000" stroke-width="15.735" stroke="rgb(33,33,33)" fill="none" stroke-linecap="round"></path><path d="M 250.500,373.000 C 251.086,373.293 250.879,373.793 251.500,374.000" stroke-width="16.009" stroke="rgb(33,33,33)" fill="none" stroke-linecap="round"></path><path d="M 251.500,374.000 C 252.379,374.293 252.556,373.764 253.500,374.000" stroke-width="15.053" stroke="rgb(33,33,33)" fill="none" stroke-linecap="round"></path><path d="M 253.500,374.000 C 254.556,374.264 254.432,374.786 255.500,375.000" stroke-width="13.718" stroke="rgb(33,33,33)" fill="none" stroke-linecap="round"></path><path d="M 255.500,375.000 C 256.932,375.286 257.000,375.000 258.500,375.000" stroke-width="14.251" stroke="rgb(33,33,33)" fill="none" stroke-linecap="round"></path><path d="M 258.500,375.000 C 260.500,375.000 260.522,375.220 262.500,375.000" stroke-width="13.177" stroke="rgb(33,33,33)" fill="none" stroke-linecap="round"></path><path d="M 262.500,375.000 C 265.022,374.720 265.045,374.670 267.500,374.000" stroke-width="13.758" stroke="rgb(33,33,33)" fill="none" stroke-linecap="round"></path><path d="M 267.500,374.000 C 270.545,373.170 270.646,373.332 273.500,372.000" stroke-width="13.187" stroke="rgb(33,33,33)" fill="none" stroke-linecap="round"></path><path d="M 273.500,372.000 C 278.146,369.832 278.142,369.724 282.500,367.000" stroke-width="10.420" stroke="rgb(33,33,33)" fill="none" stroke-linecap="round"></path><path d="M 282.500,367.000 C 286.142,364.724 285.956,364.436 289.500,362.000" stroke-width="10.281" stroke="rgb(33,33,33)" fill="none" stroke-linecap="round"></path><path d="M 289.500,362.000 C 293.956,358.936 294.323,359.394 298.500,356.000" stroke-width="9.897" stroke="rgb(33,33,33)" fill="none" stroke-linecap="round"></path><path d="M 298.500,356.000 C 302.323,352.894 302.134,352.624 305.500,349.000" stroke-width="9.553" stroke="rgb(33,33,33)" fill="none" stroke-linecap="round"></path><path d="M 305.500,349.000 C 308.634,345.624 308.357,345.368 311.500,342.000" stroke-width="8.592" stroke="rgb(33,33,33)" fill="none" stroke-linecap="round"></path><path d="M 311.500,342.000 C 315.357,337.868 315.643,338.132 319.500,334.000" stroke-width="8.550" stroke="rgb(33,33,33)" fill="none" stroke-linecap="round"></path><path d="M 319.500,334.000 C 322.643,330.632 322.739,330.681 325.500,327.000" stroke-width="8.709" stroke="rgb(33,33,33)" fill="none" stroke-linecap="round"></path><path d="M 325.500,327.000 C 328.739,322.681 328.844,322.699 331.500,318.000" stroke-width="8.689" stroke="rgb(33,33,33)" fill="none" stroke-linecap="round"></path><path d="M 331.500,318.000 C 335.344,311.199 335.765,311.294 338.500,304.000" stroke-width="7.113" stroke="rgb(33,33,33)" fill="none" stroke-linecap="round"></path><path d="M 338.500,304.000 C 341.765,295.294 341.143,295.034 343.500,286.000" stroke-width="7.188" stroke="rgb(33,33,33)" fill="none" stroke-linecap="round"></path><path d="M 343.500,286.000 C 344.143,283.534 343.621,283.343 344.500,281.000" stroke-width="7.630" stroke="rgb(33,33,33)" fill="none" stroke-linecap="round"></path><path d="M 344.500,281.000 C 345.121,279.343 345.954,279.638 346.500,278.000" stroke-width="8.540" stroke="rgb(33,33,33)" fill="none" stroke-linecap="round"></path><path d="M 346.500,278.000 C 346.954,276.638 346.500,276.500 346.500,275.000" stroke-width="8.816" stroke="rgb(33,33,33)" fill="none" stroke-linecap="round"></path><path d="M 346.500,275.000 C 346.500,274.500 346.345,274.464 346.500,274.000" stroke-width="9.892" stroke="rgb(33,33,33)" fill="none" stroke-linecap="round"></path><path d="M 346.500,274.000 C 346.845,272.964 347.155,273.036 347.500,272.000" stroke-width="10.694" stroke="rgb(33,33,33)" fill="none" stroke-linecap="round"></path><path d="M 347.500,272.000 C 347.655,271.536 347.345,271.464 347.500,271.000" stroke-width="11.474" stroke="rgb(33,33,33)" fill="none" stroke-linecap="round"></path><path d="M 347.500,271.000 C 347.845,269.964 348.236,270.056 348.500,269.000" stroke-width="12.142" stroke="rgb(33,33,33)" fill="none" stroke-linecap="round"></path><path d="M 348.500,269.000 C 348.736,268.056 348.500,268.000 348.500,267.000" stroke-width="12.782" stroke="rgb(33,33,33)" fill="none" stroke-linecap="round"></path><path d="M 348.500,267.000 C 348.500,266.500 348.250,266.250 348.500,266.000" stroke-width="13.345" stroke="rgb(33,33,33)" fill="none" stroke-linecap="round"></path><path d="M 348.500,266.000 C 348.750,265.750 349.086,266.207 349.500,266.000" stroke-width="14.122" stroke="rgb(33,33,33)" fill="none" stroke-linecap="round"></path><path d="M 349.500,266.000 C 350.086,265.707 350.207,265.586 350.500,265.000" stroke-width="14.648" stroke="rgb(33,33,33)" fill="none" stroke-linecap="round"></path><path d="M 350.500,265.000 C 350.707,264.586 350.500,264.500 350.500,264.000" stroke-width="15.359" stroke="rgb(33,33,33)" fill="none" stroke-linecap="round"></path><path d="M 350.500,264.000 C 350.500,263.500 350.500,263.500 350.500,263.000" stroke-width="15.969" stroke="rgb(33,33,33)" fill="none" stroke-linecap="round"></path><path d="M 350.500,263.000 C 350.500,262.500 350.707,262.000 350.500,262.000" stroke-width="16.560" stroke="rgb(33,33,33)" fill="none" stroke-linecap="round"></path><path d="M 350.500,262.000 C 350.207,262.000 350.000,262.500 349.500,263.000" stroke-width="17.106" stroke="rgb(33,33,33)" fill="none" stroke-linecap="round"></path><path d="M 349.500,263.000 C 348.500,264.000 348.241,263.814 347.500,265.000" stroke-width="16.629" stroke="rgb(33,33,33)" fill="none" stroke-linecap="round"></path><path d="M 347.500,265.000 C 345.741,267.814 346.078,268.041 344.500,271.000" stroke-width="15.090" stroke="rgb(33,33,33)" fill="none" stroke-linecap="round"></path><path d="M 344.500,271.000 C 342.078,275.541 342.024,275.513 339.500,280.000" stroke-width="11.324" stroke="rgb(33,33,33)" fill="none" stroke-linecap="round"></path><path d="M 339.500,280.000 C 337.524,283.513 337.833,283.734 335.500,287.000" stroke-width="11.052" stroke="rgb(33,33,33)" fill="none" stroke-linecap="round"></path><path d="M 335.500,287.000 C 332.833,290.734 332.306,290.353 329.500,294.000" stroke-width="10.679" stroke="rgb(33,33,33)" fill="none" stroke-linecap="round"></path><path d="M 329.500,294.000 C 327.306,296.853 327.285,296.875 325.500,300.000" stroke-width="10.673" stroke="rgb(33,33,33)" fill="none" stroke-linecap="round"></path><path d="M 325.500,300.000 C 323.285,303.875 323.604,304.056 321.500,308.000" stroke-width="10.430" stroke="rgb(33,33,33)" fill="none" stroke-linecap="round"></path><path d="M 321.500,308.000 C 319.604,311.556 319.611,311.569 317.500,315.000" stroke-width="10.360" stroke="rgb(33,33,33)" fill="none" stroke-linecap="round"></path><path d="M 317.500,315.000 C 315.611,318.069 315.102,317.796 313.500,321.000" stroke-width="10.416" stroke="rgb(33,33,33)" fill="none" stroke-linecap="round"></path><path d="M 313.500,321.000 C 311.602,324.796 312.033,325.013 310.500,329.000" stroke-width="9.279" stroke="rgb(33,33,33)" fill="none" stroke-linecap="round"></path><path d="M 310.500,329.000 C 309.533,331.513 309.698,331.604 308.500,334.000" stroke-width="9.733" stroke="rgb(33,33,33)" fill="none" stroke-linecap="round"></path><path d="M 308.500,334.000 C 307.698,335.604 307.143,335.392 306.500,337.000" stroke-width="10.360" stroke="rgb(33,33,33)" fill="none" stroke-linecap="round"></path><path d="M 306.500,337.000 C 306.143,337.892 306.736,338.056 306.500,339.000" stroke-width="10.866" stroke="rgb(33,33,33)" fill="none" stroke-linecap="round"></path><path d="M 306.500,339.000 C 306.236,340.056 306.113,340.081 305.500,341.000" stroke-width="10.709" stroke="rgb(33,33,33)" fill="none" stroke-linecap="round"></path><path d="M 305.500,341.000 C 305.113,341.581 304.793,341.414 304.500,342.000" stroke-width="11.739" stroke="rgb(33,33,33)" fill="none" stroke-linecap="round"></path><path d="M 304.500,342.000 C 304.293,342.414 304.500,342.500 304.500,343.000" stroke-width="12.423" stroke="rgb(33,33,33)" fill="none" stroke-linecap="round"></path><path d="M 304.500,343.000 C 304.500,343.500 304.500,343.500 304.500,344.000" stroke-width="13.244" stroke="rgb(33,33,33)" fill="none" stroke-linecap="round"></path><path d="M 304.500,344.000 C 304.500,345.500 304.500,345.500 304.500,347.000" stroke-width="12.872" stroke="rgb(33,33,33)" fill="none" stroke-linecap="round"></path><path d="M 304.500,347.000 C 304.500,348.500 304.500,348.500 304.500,350.000" stroke-width="13.204" stroke="rgb(33,33,33)" fill="none" stroke-linecap="round"></path><path d="M 304.500,350.000 C 304.500,351.500 304.500,351.500 304.500,353.000" stroke-width="13.483" stroke="rgb(33,33,33)" fill="none" stroke-linecap="round"></path><path d="M 304.500,353.000 C 304.500,355.000 304.500,355.000 304.500,357.000" stroke-width="13.487" stroke="rgb(33,33,33)" fill="none" stroke-linecap="round"></path><path d="M 304.500,357.000 C 304.500,358.500 304.500,358.500 304.500,360.000" stroke-width="13.718" stroke="rgb(33,33,33)" fill="none" stroke-linecap="round"></path><path d="M 304.500,360.000 C 304.500,361.500 304.257,361.540 304.500,363.000" stroke-width="13.908" stroke="rgb(33,33,33)" fill="none" stroke-linecap="round"></path><path d="M 304.500,363.000 C 304.757,364.540 305.194,364.469 305.500,366.000" stroke-width="13.297" stroke="rgb(33,33,33)" fill="none" stroke-linecap="round"></path><path d="M 305.500,366.000 C 305.694,366.969 305.500,367.000 305.500,368.000" stroke-width="13.791" stroke="rgb(33,33,33)" fill="none" stroke-linecap="round"></path><path d="M 305.500,368.000 C 305.500,369.000 305.500,369.000 305.500,370.000" stroke-width="14.214" stroke="rgb(33,33,33)" fill="none" stroke-linecap="round"></path><path d="M 305.500,370.000 C 305.500,370.500 305.500,370.500 305.500,371.000" stroke-width="14.929" stroke="rgb(33,33,33)" fill="none" stroke-linecap="round"></path><path d="M 305.500,371.000 C 305.500,371.500 305.500,371.500 305.500,372.000" stroke-width="15.606" stroke="rgb(33,33,33)" fill="none" stroke-linecap="round"></path><path d="M 305.500,372.000 C 305.500,372.500 305.500,372.500 305.500,373.000" stroke-width="16.032" stroke="rgb(33,33,33)" fill="none" stroke-linecap="round"></path><path d="M 305.500,373.000 C 305.500,373.500 305.250,373.750 305.500,374.000" stroke-width="16.619" stroke="rgb(33,33,33)" fill="none" stroke-linecap="round"></path><path d="M 305.500,374.000 C 305.750,374.250 306.000,374.000 306.500,374.000" stroke-width="16.534" stroke="rgb(33,33,33)" fill="none" stroke-linecap="round"></path><path d="M 306.500,374.000 C 307.500,374.000 307.500,374.000 308.500,374.000" stroke-width="16.466" stroke="rgb(33,33,33)" fill="none" stroke-linecap="round"></path><path d="M 308.500,374.000 C 309.000,374.000 309.000,374.000 309.500,374.000" stroke-width="16.751" stroke="rgb(33,33,33)" fill="none" stroke-linecap="round"></path><path d="M 309.500,374.000 C 310.500,374.000 310.500,374.000 311.500,374.000" stroke-width="16.638" stroke="rgb(33,33,33)" fill="none" stroke-linecap="round"></path><path d="M 311.500,374.000 C 312.500,374.000 312.500,374.000 313.500,374.000" stroke-width="16.549" stroke="rgb(33,33,33)" fill="none" stroke-linecap="round"></path><path d="M 313.500,374.000 C 315.000,374.000 315.040,374.243 316.500,374.000" stroke-width="16.149" stroke="rgb(33,33,33)" fill="none" stroke-linecap="round"></path><path d="M 316.500,374.000 C 318.040,373.743 317.969,373.383 319.500,373.000" stroke-width="14.876" stroke="rgb(33,33,33)" fill="none" stroke-linecap="round"></path><path d="M 319.500,373.000 C 321.969,372.383 322.103,372.799 324.500,372.000" stroke-width="14.738" stroke="rgb(33,33,33)" fill="none" stroke-linecap="round"></path><path d="M 324.500,372.000 C 326.603,371.299 326.500,371.000 328.500,370.000" stroke-width="14.352" stroke="rgb(33,33,33)" fill="none" stroke-linecap="round"></path><path d="M 328.500,370.000 C 331.500,368.500 331.449,368.387 334.500,367.000" stroke-width="12.679" stroke="rgb(33,33,33)" fill="none" stroke-linecap="round"></path><path d="M 334.500,367.000 C 336.949,365.887 337.216,366.370 339.500,365.000" stroke-width="12.559" stroke="rgb(33,33,33)" fill="none" stroke-linecap="round"></path><path d="M 339.500,365.000 C 342.216,363.370 342.111,363.124 344.500,361.000" stroke-width="11.188" stroke="rgb(33,33,33)" fill="none" stroke-linecap="round"></path><path d="M 344.500,361.000 C 346.611,359.124 346.500,359.000 348.500,357.000" stroke-width="11.623" stroke="rgb(33,33,33)" fill="none" stroke-linecap="round"></path><path d="M 348.500,357.000 C 351.000,354.500 351.000,354.500 353.500,352.000" stroke-width="11.437" stroke="rgb(33,33,33)" fill="none" stroke-linecap="round"></path><path d="M 353.500,352.000 C 356.500,349.000 356.797,349.244 359.500,346.000" stroke-width="10.893" stroke="rgb(33,33,33)" fill="none" stroke-linecap="round"></path><path d="M 359.500,346.000 C 361.797,343.244 361.228,342.777 363.500,340.000" stroke-width="9.889" stroke="rgb(33,33,33)" fill="none" stroke-linecap="round"></path><path d="M 363.500,340.000 C 365.728,337.277 366.390,337.813 368.500,335.000" stroke-width="10.050" stroke="rgb(33,33,33)" fill="none" stroke-linecap="round"></path><path d="M 368.500,335.000 C 372.390,329.813 371.525,329.060 375.500,324.000" stroke-width="10.426" stroke="rgb(33,33,33)" fill="none" stroke-linecap="round"></path><path d="M 375.500,324.000 C 377.025,322.060 377.916,322.848 379.500,321.000" stroke-width="10.105" stroke="rgb(33,33,33)" fill="none" stroke-linecap="round"></path><path d="M 379.500,321.000 C 380.916,319.348 380.217,318.796 381.500,317.000" stroke-width="10.575" stroke="rgb(33,33,33)" fill="none" stroke-linecap="round"></path><path d="M 381.500,317.000 C 382.717,315.296 383.283,315.704 384.500,314.000" stroke-width="10.482" stroke="rgb(33,33,33)" fill="none" stroke-linecap="round"></path><path d="M 384.500,314.000 C 385.783,312.204 385.500,312.000 386.500,310.000" stroke-width="10.408" stroke="rgb(33,33,33)" fill="none" stroke-linecap="round"></path><path d="M 386.500,310.000 C 387.000,309.000 386.838,308.883 387.500,308.000" stroke-width="11.348" stroke="rgb(33,33,33)" fill="none" stroke-linecap="round"></path><path d="M 387.500,308.000 C 388.338,306.883 388.792,307.180 389.500,306.000" stroke-width="11.081" stroke="rgb(33,33,33)" fill="none" stroke-linecap="round"></path><path d="M 389.500,306.000 C 390.292,304.680 389.879,304.450 390.500,303.000" stroke-width="11.957" stroke="rgb(33,33,33)" fill="none" stroke-linecap="round"></path><path d="M 390.500,303.000 C 391.379,300.950 391.500,301.000 392.500,299.000" stroke-width="12.150" stroke="rgb(33,33,33)" fill="none" stroke-linecap="round"></path><path d="M 392.500,299.000 C 393.500,297.000 393.621,297.050 394.500,295.000" stroke-width="11.526" stroke="rgb(33,33,33)" fill="none" stroke-linecap="round"></path><path d="M 394.500,295.000 C 395.121,293.550 395.000,293.500 395.500,292.000" stroke-width="12.020" stroke="rgb(33,33,33)" fill="none" stroke-linecap="round"></path><path d="M 395.500,292.000 C 396.000,290.500 395.809,290.382 396.500,289.000" stroke-width="12.685" stroke="rgb(33,33,33)" fill="none" stroke-linecap="round"></path><path d="M 396.500,289.000 C 396.809,288.382 397.207,288.586 397.500,288.000" stroke-width="12.075" stroke="rgb(33,33,33)" fill="none" stroke-linecap="round"></path><path d="M 397.500,288.000 C 397.707,287.586 397.293,287.414 397.500,287.000" stroke-width="11.627" stroke="rgb(33,33,33)" fill="none" stroke-linecap="round"></path><path d="M 397.500,287.000 C 397.793,286.414 398.207,286.586 398.500,286.000" stroke-width="12.620" stroke="rgb(33,33,33)" fill="none" stroke-linecap="round"></path><path d="M 398.500,286.000 C 398.707,285.586 398.500,285.000 398.500,285.000" stroke-width="13.557" stroke="rgb(33,33,33)" fill="none" stroke-linecap="round"></path><path d="M 398.500,285.000 C 398.500,285.000 398.761,285.608 398.500,286.000" stroke-width="14.498" stroke="rgb(33,33,33)" fill="none" stroke-linecap="round"></path><path d="M 398.500,286.000 C 397.761,287.108 397.208,286.820 396.500,288.000" stroke-width="13.881" stroke="rgb(33,33,33)" fill="none" stroke-linecap="round"></path><path d="M 396.500,288.000 C 395.708,289.320 396.396,289.745 395.500,291.000" stroke-width="14.003" stroke="rgb(33,33,33)" fill="none" stroke-linecap="round"></path><path d="M 395.500,291.000 C 393.896,293.245 393.223,292.784 391.500,295.000" stroke-width="13.515" stroke="rgb(33,33,33)" fill="none" stroke-linecap="round"></path><path d="M 391.500,295.000 C 389.723,297.284 390.065,297.541 388.500,300.000" stroke-width="13.112" stroke="rgb(33,33,33)" fill="none" stroke-linecap="round"></path><path d="M 388.500,300.000 C 386.565,303.041 386.500,303.000 384.500,306.000" stroke-width="13.017" stroke="rgb(33,33,33)" fill="none" stroke-linecap="round"></path><path d="M 384.500,306.000 C 382.500,309.000 382.450,308.967 380.500,312.000" stroke-width="11.218" stroke="rgb(33,33,33)" fill="none" stroke-linecap="round"></path><path d="M 380.500,312.000 C 377.950,315.967 377.702,315.841 375.500,320.000" stroke-width="9.571" stroke="rgb(33,33,33)" fill="none" stroke-linecap="round"></path><path d="M 375.500,320.000 C 373.202,324.341 373.699,324.601 371.500,329.000" stroke-width="8.856" stroke="rgb(33,33,33)" fill="none" stroke-linecap="round"></path><path d="M 371.500,329.000 C 369.699,332.601 369.181,332.357 367.500,336.000" stroke-width="9.084" stroke="rgb(33,33,33)" fill="none" stroke-linecap="round"></path><path d="M 367.500,336.000 C 366.181,338.857 366.774,339.134 365.500,342.000" stroke-width="9.793" stroke="rgb(33,33,33)" fill="none" stroke-linecap="round"></path><path d="M 365.500,342.000 C 364.774,343.634 364.426,343.457 363.500,345.000" stroke-width="9.858" stroke="rgb(33,33,33)" fill="none" stroke-linecap="round"></path><path d="M 363.500,345.000 C 362.926,345.957 362.914,345.964 362.500,347.000" stroke-width="10.847" stroke="rgb(33,33,33)" fill="none" stroke-linecap="round"></path><path d="M 362.500,347.000 C 361.914,348.464 361.880,348.481 361.500,350.000" stroke-width="11.424" stroke="rgb(33,33,33)" fill="none" stroke-linecap="round"></path><path d="M 361.500,350.000 C 361.380,350.481 361.655,350.536 361.500,351.000" stroke-width="12.325" stroke="rgb(33,33,33)" fill="none" stroke-linecap="round"></path><path d="M 361.500,351.000 C 361.155,352.036 360.845,351.964 360.500,353.000" stroke-width="13.129" stroke="rgb(33,33,33)" fill="none" stroke-linecap="round"></path><path d="M 360.500,353.000 C 360.345,353.464 360.500,353.500 360.500,354.000" stroke-width="14.037" stroke="rgb(33,33,33)" fill="none" stroke-linecap="round"></path><path d="M 360.500,354.000 C 360.500,354.500 360.500,355.300 360.500,355.000" stroke-width="14.845" stroke="rgb(33,33,33)" fill="none" stroke-linecap="round"></path><path d="M 360.500,355.000 C 360.500,353.800 360.280,352.978 360.500,351.000" stroke-width="15.557" stroke="rgb(33,33,33)" fill="none" stroke-linecap="round"></path><path d="M 360.500,351.000 C 360.780,348.478 360.947,348.488 361.500,346.000" stroke-width="14.949" stroke="rgb(33,33,33)" fill="none" stroke-linecap="round"></path><path d="M 361.500,346.000 C 361.947,343.988 362.000,344.000 362.500,342.000" stroke-width="14.249" stroke="rgb(33,33,33)" fill="none" stroke-linecap="round"></path><path d="M 362.500,342.000 C 363.000,340.000 363.053,340.012 363.500,338.000" stroke-width="13.176" stroke="rgb(33,33,33)" fill="none" stroke-linecap="round"></path><path d="M 363.500,338.000 C 364.053,335.512 363.701,335.397 364.500,333.000" stroke-width="13.653" stroke="rgb(33,33,33)" fill="none" stroke-linecap="round"></path><path d="M 364.500,333.000 C 365.201,330.897 365.593,331.042 366.500,329.000" stroke-width="12.763" stroke="rgb(33,33,33)" fill="none" stroke-linecap="round"></path><path d="M 366.500,329.000 C 367.593,326.542 367.130,326.284 368.500,324.000" stroke-width="13.097" stroke="rgb(33,33,33)" fill="none" stroke-linecap="round"></path><path d="M 368.500,324.000 C 370.130,321.284 370.619,321.587 372.500,319.000" stroke-width="12.680" stroke="rgb(33,33,33)" fill="none" stroke-linecap="round"></path><path d="M 372.500,319.000 C 374.619,316.087 374.448,315.964 376.500,313.000" stroke-width="12.588" stroke="rgb(33,33,33)" fill="none" stroke-linecap="round"></path><path d="M 376.500,313.000 C 378.948,309.464 378.920,309.440 381.500,306.000" stroke-width="12.004" stroke="rgb(33,33,33)" fill="none" stroke-linecap="round"></path><path d="M 381.500,306.000 C 384.920,301.440 384.939,301.451 388.500,297.000" stroke-width="11.574" stroke="rgb(33,33,33)" fill="none" stroke-linecap="round"></path><path d="M 388.500,297.000 C 390.939,293.951 390.750,293.750 393.500,291.000" stroke-width="11.885" stroke="rgb(33,33,33)" fill="none" stroke-linecap="round"></path><path d="M 393.500,291.000 C 396.250,288.250 396.750,288.750 399.500,286.000" stroke-width="11.486" stroke="rgb(33,33,33)" fill="none" stroke-linecap="round"></path><path d="M 399.500,286.000 C 402.250,283.250 401.752,282.748 404.500,280.000" stroke-width="11.963" stroke="rgb(33,33,33)" fill="none" stroke-linecap="round"></path><path d="M 404.500,280.000 C 406.752,277.748 407.000,278.000 409.500,276.000" stroke-width="11.813" stroke="rgb(33,33,33)" fill="none" stroke-linecap="round"></path><path d="M 409.500,276.000 C 412.000,274.000 412.111,274.124 414.500,272.000" stroke-width="11.695" stroke="rgb(33,33,33)" fill="none" stroke-linecap="round"></path><path d="M 414.500,272.000 C 416.611,270.124 416.255,269.604 418.500,268.000" stroke-width="10.841" stroke="rgb(33,33,33)" fill="none" stroke-linecap="round"></path><path d="M 418.500,268.000 C 419.755,267.104 420.180,267.792 421.500,267.000" stroke-width="11.418" stroke="rgb(33,33,33)" fill="none" stroke-linecap="round"></path><path d="M 421.500,267.000 C 422.680,266.292 422.383,265.838 423.500,265.000" stroke-width="11.986" stroke="rgb(33,33,33)" fill="none" stroke-linecap="round"></path><path d="M 423.500,265.000 C 424.383,264.338 424.617,264.662 425.500,264.000" stroke-width="12.597" stroke="rgb(33,33,33)" fill="none" stroke-linecap="round"></path><path d="M 425.500,264.000 C 426.617,263.162 426.392,262.739 427.500,262.000" stroke-width="12.093" stroke="rgb(33,33,33)" fill="none" stroke-linecap="round"></path><path d="M 427.500,262.000 C 427.892,261.739 428.000,262.000 428.500,262.000" stroke-width="13.040" stroke="rgb(33,33,33)" fill="none" stroke-linecap="round"></path><path d="M 428.500,262.000 C 429.000,262.000 429.086,262.207 429.500,262.000" stroke-width="12.330" stroke="rgb(33,33,33)" fill="none" stroke-linecap="round"></path><path d="M 429.500,262.000 C 430.086,261.707 429.914,261.293 430.500,261.000" stroke-width="13.246" stroke="rgb(33,33,33)" fill="none" stroke-linecap="round"></path><path d="M 430.500,261.000 C 430.914,260.793 431.000,261.000 431.500,261.000" stroke-width="14.106" stroke="rgb(33,33,33)" fill="none" stroke-linecap="round"></path><path d="M 431.500,261.000 C 432.000,261.000 432.000,261.000 432.500,261.000" stroke-width="14.907" stroke="rgb(33,33,33)" fill="none" stroke-linecap="round"></path><path d="M 432.500,261.000 C 433.000,261.000 433.000,261.000 433.500,261.000" stroke-width="15.636" stroke="rgb(33,33,33)" fill="none" stroke-linecap="round"></path><path d="M 433.500,261.000 C 434.000,261.000 434.191,260.691 434.500,261.000" stroke-width="16.122" stroke="rgb(33,33,33)" fill="none" stroke-linecap="round"></path><path d="M 434.500,261.000 C 435.191,261.691 435.195,261.933 435.500,263.000" stroke-width="16.485" stroke="rgb(33,33,33)" fill="none" stroke-linecap="round"></path><path d="M 435.500,263.000 C 436.195,265.433 435.947,265.512 436.500,268.000" stroke-width="15.456" stroke="rgb(33,33,33)" fill="none" stroke-linecap="round"></path><path d="M 436.500,268.000 C 436.947,270.012 437.296,269.964 437.500,272.000" stroke-width="13.924" stroke="rgb(33,33,33)" fill="none" stroke-linecap="round"></path><path d="M 437.500,272.000 C 437.796,274.964 437.500,275.000 437.500,278.000" stroke-width="13.380" stroke="rgb(33,33,33)" fill="none" stroke-linecap="round"></path><path d="M 437.500,278.000 C 437.500,281.500 438.065,281.609 437.500,285.000" stroke-width="12.770" stroke="rgb(33,33,33)" fill="none" stroke-linecap="round"></path><path d="M 437.500,285.000 C 437.065,287.609 436.467,287.487 435.500,290.000" stroke-width="12.631" stroke="rgb(33,33,33)" fill="none" stroke-linecap="round"></path><path d="M 435.500,290.000 C 433.967,293.987 434.301,294.141 432.500,298.000" stroke-width="11.939" stroke="rgb(33,33,33)" fill="none" stroke-linecap="round"></path><path d="M 432.500,298.000 C 430.801,301.641 430.500,301.500 428.500,305.000" stroke-width="11.515" stroke="rgb(33,33,33)" fill="none" stroke-linecap="round"></path><path d="M 428.500,305.000 C 426.500,308.500 426.688,308.619 424.500,312.000" stroke-width="10.075" stroke="rgb(33,33,33)" fill="none" stroke-linecap="round"></path><path d="M 424.500,312.000 C 421.188,317.119 420.632,316.781 417.500,322.000" stroke-width="8.374" stroke="rgb(33,33,33)" fill="none" stroke-linecap="round"></path><path d="M 417.500,322.000 C 414.632,326.781 415.326,327.196 412.500,332.000" stroke-width="8.674" stroke="rgb(33,33,33)" fill="none" stroke-linecap="round"></path><path d="M 412.500,332.000 C 410.326,335.696 409.948,335.464 407.500,339.000" stroke-width="9.279" stroke="rgb(33,33,33)" fill="none" stroke-linecap="round"></path><path d="M 407.500,339.000 C 405.448,341.964 405.217,341.851 403.500,345.000" stroke-width="9.437" stroke="rgb(33,33,33)" fill="none" stroke-linecap="round"></path><path d="M 403.500,345.000 C 402.217,347.351 402.811,347.705 401.500,350.000" stroke-width="10.206" stroke="rgb(33,33,33)" fill="none" stroke-linecap="round"></path><path d="M 401.500,350.000 C 400.811,351.205 400.500,351.000 399.500,352.000" stroke-width="10.190" stroke="rgb(33,33,33)" fill="none" stroke-linecap="round"></path><path d="M 399.500,352.000 C 399.000,352.500 398.887,352.419 398.500,353.000" stroke-width="11.221" stroke="rgb(33,33,33)" fill="none" stroke-linecap="round"></path><path d="M 398.500,353.000 C 397.887,353.919 398.113,354.081 397.500,355.000" stroke-width="11.914" stroke="rgb(33,33,33)" fill="none" stroke-linecap="round"></path><path d="M 397.500,355.000 C 397.113,355.581 396.793,355.414 396.500,356.000" stroke-width="12.695" stroke="rgb(33,33,33)" fill="none" stroke-linecap="round"></path><path d="M 396.500,356.000 C 396.293,356.414 396.500,356.500 396.500,357.000" stroke-width="13.491" stroke="rgb(33,33,33)" fill="none" stroke-linecap="round"></path><path d="M 396.500,357.000 C 396.500,357.500 396.500,357.500 396.500,358.000" stroke-width="14.353" stroke="rgb(33,33,33)" fill="none" stroke-linecap="round"></path><path d="M 396.500,358.000 C 396.500,358.500 396.500,358.500 396.500,359.000" stroke-width="15.177" stroke="rgb(33,33,33)" fill="none" stroke-linecap="round"></path><path d="M 396.500,359.000 C 396.500,359.500 396.500,359.500 396.500,360.000" stroke-width="15.669" stroke="rgb(33,33,33)" fill="none" stroke-linecap="round"></path><path d="M 396.500,360.000 C 396.500,360.500 396.293,360.586 396.500,361.000" stroke-width="16.193" stroke="rgb(33,33,33)" fill="none" stroke-linecap="round"></path><path d="M 396.500,361.000 C 396.793,361.586 396.914,361.707 397.500,362.000" stroke-width="16.752" stroke="rgb(33,33,33)" fill="none" stroke-linecap="round"></path><path d="M 397.500,362.000 C 397.914,362.207 398.036,361.845 398.500,362.000" stroke-width="16.639" stroke="rgb(33,33,33)" fill="none" stroke-linecap="round"></path><path d="M 398.500,362.000 C 399.536,362.345 399.424,362.821 400.500,363.000" stroke-width="16.723" stroke="rgb(33,33,33)" fill="none" stroke-linecap="round"></path><path d="M 400.500,363.000 C 402.424,363.321 402.500,363.000 404.500,363.000" stroke-width="14.795" stroke="rgb(33,33,33)" fill="none" stroke-linecap="round"></path><path d="M 404.500,363.000 C 406.000,363.000 406.000,363.000 407.500,363.000" stroke-width="15.056" stroke="rgb(33,33,33)" fill="none" stroke-linecap="round"></path><path d="M 407.500,363.000 C 410.000,363.000 410.000,363.000 412.500,363.000" stroke-width="13.270" stroke="rgb(33,33,33)" fill="none" stroke-linecap="round"></path><path d="M 412.500,363.000 C 415.500,363.000 415.500,363.000 418.500,363.000" stroke-width="12.892" stroke="rgb(33,33,33)" fill="none" stroke-linecap="round"></path><path d="M 418.500,363.000 C 421.500,363.000 421.601,363.527 424.500,363.000" stroke-width="12.604" stroke="rgb(33,33,33)" fill="none" stroke-linecap="round"></path><path d="M 424.500,363.000 C 427.101,362.527 426.971,361.920 429.500,361.000" stroke-width="12.857" stroke="rgb(33,33,33)" fill="none" stroke-linecap="round"></path><path d="M 429.500,361.000 C 432.471,359.920 432.529,360.080 435.500,359.000" stroke-width="11.400" stroke="rgb(33,33,33)" fill="none" stroke-linecap="round"></path><path d="M 435.500,359.000 C 438.029,358.080 438.167,358.296 440.500,357.000" stroke-width="10.713" stroke="rgb(33,33,33)" fill="none" stroke-linecap="round"></path><path d="M 440.500,357.000 C 442.667,355.796 442.423,355.385 444.500,354.000" stroke-width="11.022" stroke="rgb(33,33,33)" fill="none" stroke-linecap="round"></path><path d="M 444.500,354.000 C 446.923,352.385 447.117,352.668 449.500,351.000" stroke-width="11.154" stroke="rgb(33,33,33)" fill="none" stroke-linecap="round"></path><path d="M 449.500,351.000 C 452.117,349.168 451.941,348.919 454.500,347.000" stroke-width="11.172" stroke="rgb(33,33,33)" fill="none" stroke-linecap="round"></path><path d="M 454.500,347.000 C 455.941,345.919 456.059,346.081 457.500,345.000" stroke-width="11.637" stroke="rgb(33,33,33)" fill="none" stroke-linecap="round"></path><path d="M 457.500,345.000 C 460.059,343.081 459.883,342.832 462.500,341.000" stroke-width="11.557" stroke="rgb(33,33,33)" fill="none" stroke-linecap="round"></path><path d="M 462.500,341.000 C 464.883,339.332 465.185,339.737 467.500,338.000" stroke-width="11.588" stroke="rgb(33,33,33)" fill="none" stroke-linecap="round"></path><path d="M 467.500,338.000 C 469.185,336.737 468.893,336.377 470.500,335.000" stroke-width="11.187" stroke="rgb(33,33,33)" fill="none" stroke-linecap="round"></path><path d="M 470.500,335.000 C 472.393,333.377 472.750,333.750 474.500,332.000" stroke-width="11.695" stroke="rgb(33,33,33)" fill="none" stroke-linecap="round"></path><path d="M 474.500,332.000 C 476.250,330.250 475.757,329.743 477.500,328.000" stroke-width="11.841" stroke="rgb(33,33,33)" fill="none" stroke-linecap="round"></path><path d="M 477.500,328.000 C 478.757,326.743 479.250,327.250 480.500,326.000" stroke-width="12.211" stroke="rgb(33,33,33)" fill="none" stroke-linecap="round"></path><path d="M 480.500,326.000 C 481.750,324.750 481.453,324.466 482.500,323.000" stroke-width="11.864" stroke="rgb(33,33,33)" fill="none" stroke-linecap="round"></path><path d="M 482.500,323.000 C 483.953,320.966 483.877,320.893 485.500,319.000" stroke-width="11.979" stroke="rgb(33,33,33)" fill="none" stroke-linecap="round"></path><path d="M 485.500,319.000 C 486.877,317.393 487.486,317.775 488.500,316.000" stroke-width="12.210" stroke="rgb(33,33,33)" fill="none" stroke-linecap="round"></path><path d="M 488.500,316.000 C 489.486,314.275 488.596,313.808 489.500,312.000" stroke-width="11.685" stroke="rgb(33,33,33)" fill="none" stroke-linecap="round"></path><path d="M 489.500,312.000 C 490.596,309.808 491.115,310.077 492.500,308.000" stroke-width="11.833" stroke="rgb(33,33,33)" fill="none" stroke-linecap="round"></path><path d="M 492.500,308.000 C 494.115,305.577 494.105,305.558 495.500,303.000" stroke-width="11.809" stroke="rgb(33,33,33)" fill="none" stroke-linecap="round"></path><path d="M 495.500,303.000 C 497.105,300.058 497.141,300.058 498.500,297.000" stroke-width="11.641" stroke="rgb(33,33,33)" fill="none" stroke-linecap="round"></path><path d="M 498.500,297.000 C 499.141,295.558 498.914,295.464 499.500,294.000" stroke-width="12.120" stroke="rgb(33,33,33)" fill="none" stroke-linecap="round"></path><path d="M 499.500,294.000 C 499.914,292.964 499.926,292.957 500.500,292.000" stroke-width="12.716" stroke="rgb(33,33,33)" fill="none" stroke-linecap="round"></path><path d="M 500.500,292.000 C 501.426,290.457 501.717,290.566 502.500,289.000" stroke-width="12.241" stroke="rgb(33,33,33)" fill="none" stroke-linecap="round"></path><path d="M 502.500,289.000 C 502.717,288.566 502.345,288.464 502.500,288.000" stroke-width="13.078" stroke="rgb(33,33,33)" fill="none" stroke-linecap="round"></path><path d="M 502.500,288.000 C 502.845,286.964 503.000,287.000 503.500,286.000" stroke-width="13.060" stroke="rgb(33,33,33)" fill="none" stroke-linecap="round"></path><path d="M 503.500,286.000 C 504.000,285.000 503.887,284.919 504.500,284.000" stroke-width="12.344" stroke="rgb(33,33,33)" fill="none" stroke-linecap="round"></path><path d="M 504.500,284.000 C 504.887,283.419 505.000,283.500 505.500,283.000" stroke-width="13.252" stroke="rgb(33,33,33)" fill="none" stroke-linecap="round"></path><path d="M 505.500,283.000 C 506.000,282.500 506.207,282.586 506.500,282.000" stroke-width="13.891" stroke="rgb(33,33,33)" fill="none" stroke-linecap="round"></path><path d="M 506.500,282.000 C 506.707,281.586 506.293,281.414 506.500,281.000" stroke-width="14.555" stroke="rgb(33,33,33)" fill="none" stroke-linecap="round"></path><path d="M 506.500,281.000 C 506.793,280.414 507.207,280.586 507.500,280.000" stroke-width="15.018" stroke="rgb(33,33,33)" fill="none" stroke-linecap="round"></path><path d="M 507.500,280.000 C 507.707,279.586 507.250,279.250 507.500,279.000" stroke-width="15.241" stroke="rgb(33,33,33)" fill="none" stroke-linecap="round"></path></svg>