<svg xmlns="http://www.w3.org/2000/svg" xmlns:xlink="http://www.w3.org/1999/xlink" viewBox="0 0 800 500"><path d="M 120.333,258.333 C 119.333,258.333 119.162,258.748 118.333,258.333" stroke-width="16.875" stroke="rgb(33,33,33)" fill="none" stroke-linecap="round"></path><path d="M 118.333,258.333 C 117.162,257.748 117.496,257.108 116.333,256.333" stroke-width="16.941" stroke="rgb(33,33,33)" fill="none" stroke-linecap="round"></path><path d="M 116.333,256.333 C 114.496,255.108 114.333,255.333 112.333,254.333" stroke-width="16.452" stroke="rgb(33,33,33)" fill="none" stroke-linecap="round"></path><path d="M 112.333,254.333 C 112.333,254.333 112.333,254.333 112.333,254.333" stroke-width="17.094" stroke="rgb(33,33,33)" fill="none" stroke-linecap="round"></path><path d="M 112.333,254.333 C 111.333,253.333 111.505,252.919 110.333,252.333" stroke-width="16.620" stroke="rgb(33,33,33)" fill="none" stroke-linecap="round"></path><path d="M 110.333,252.333 C 109.505,251.919 109.333,252.333 108.333,252.333" stroke-width="16.534" stroke="rgb(33,33,33)" fill="none" stroke-linecap="round"></path><path d="M 108.333,252.333 C 107.333,252.333 107.333,252.333 106.333,252.333" stroke-width="16.371" stroke="rgb(33,33,33)" fill="none" stroke-linecap="round"></path><path d="M 106.333,252.333 C 106.333,252.333 106.333,252.333 106.333,252.333" stroke-width="17.023" stroke="rgb(33,33,33)" fill="none" stroke-linecap="round"></path><path d="M 106.333,252.333 C 105.333,253.333 105.333,253.333 104.333,254.333" stroke-width="16.566" stroke="rgb(33,33,33)" fill="none" stroke-linecap="round"></path><path d="M 104.333,254.333 C 104.333,254.333 104.333,254.333 104.333,254.333" stroke-width="17.192" stroke="rgb(33,33,33)" fill="none" stroke-linecap="round"></path><path d="M 104.333,254.333 C 104.333,255.333 104.333,255.333 104.333,256.333" stroke-width="16.984" stroke="rgb(33,33,33)" fill="none" stroke-linecap="round"></path><path d="M 104.333,256.333 C 104.333,257.333 104.333,257.333 104.333,258.333" stroke-width="18.025" stroke="rgb(33,33,33)" fill="none" stroke-linecap="round"></path><path d="M 104.333,258.333 C 104.333,259.333 103.833,259.833 104.333,260.333" stroke-width="17.713" stroke="rgb(33,33,33)" fill="none" stroke-linecap="round"></path><path d="M 104.333,260.333 C 104.833,260.833 105.833,259.833 106.333,260.333" stroke-width="17.744" stroke="rgb(33,33,33)" fill="none" stroke-linecap="round"></path><path d="M 106.333,260.333 C 106.833,260.833 105.919,261.505 106.333,262.333" stroke-width="17.412" stroke="rgb(33,33,33)" fill="none" stroke-linecap="round"></path><path d="M 106.333,262.333 C 106.919,263.505 107.162,263.748 108.333,264.333" stroke-width="16.719" stroke="rgb(33,33,33)" fill="none" stroke-linecap="round"></path><path d="M 108.333,264.333 C 109.162,264.748 109.505,263.919 110.333,264.333" stroke-width="16.750" stroke="rgb(33,33,33)" fill="none" stroke-linecap="round"></path><path d="M 110.333,264.333 C 111.505,264.919 111.171,265.558 112.333,266.333" stroke-width="16.226" stroke="rgb(33,33,33)" fill="none" stroke-linecap="round"></path><path d="M 112.333,266.333 C 114.171,267.558 114.419,267.185 116.333,268.333" stroke-width="15.604" stroke="rgb(33,33,33)" fill="none" stroke-linecap="round"></path><path d="M 116.333,268.333 C 119.419,270.185 119.137,270.735 122.333,272.333" stroke-width="14.276" stroke="rgb(33,33,33)" fill="none" stroke-linecap="round"></path><path d="M 122.333,272.333 C 125.137,273.735 125.621,272.784 128.333,274.333" stroke-width="13.362" stroke="rgb(33,33,33)" fill="none" stroke-linecap="round"></path><path d="M 128.333,274.333 C 132.621,276.784 132.333,277.333 136.333,280.333" stroke-width="12.181" stroke="rgb(33,33,33)" fill="none" stroke-linecap="round"></path><path d="M 136.333,280.333 C 140.333,283.333 139.918,284.126 144.333,286.333" stroke-width="11.706" stroke="rgb(33,33,33)" fill="none" stroke-linecap="round"></path><path d="M 144.333,286.333 C 149.918,289.126 150.748,287.541 156.333,290.333" stroke-width="10.097" stroke="rgb(33,33,33)" fill="none" stroke-linecap="round"></path><path d="M 156.333,290.333 C 160.748,292.541 160.110,293.694 164.333,296.333" stroke-width="9.857" stroke="rgb(33,33,33)" fill="none" stroke-linecap="round"></path><path d="M 164.333,296.333 C 168.110,298.694 168.333,298.333 172.333,300.333" stroke-width="9.796" stroke="rgb(33,33,33)" fill="none" stroke-linecap="round"></path><path d="M 172.333,300.333 C 176.333,302.333 176.535,302.054 180.333,304.333" stroke-width="9.866" stroke="rgb(33,33,33)" fill="none" stroke-linecap="round"></path><path d="M 180.333,304.333 C 181.535,305.054 181.162,305.748 182.333,306.333" stroke-width="10.587" stroke="rgb(33,33,33)" fill="none" stroke-linecap="round"></path><path d="M 182.333,306.333 C 183.162,306.748 183.505,305.919 184.333,306.333" stroke-width="11.330" stroke="rgb(33,33,33)" fill="none" stroke-linecap="round"></path><path d="M 184.333,306.333 C 185.505,306.919 185.333,307.333 186.333,308.333" stroke-width="11.908" stroke="rgb(33,33,33)" fill="none" stroke-linecap="round"></path><path d="M 186.333,308.333 C 186.333,309.333 186.333,309.333 186.333,310.333" stroke-width="14.688" stroke="rgb(33,33,33)" fill="none" stroke-linecap="round"></path><path d="M 186.333,310.333 C 186.333,310.333 186.333,310.333 186.333,310.333" stroke-width="15.542" stroke="rgb(33,33,33)" fill="none" stroke-linecap="round"></path><path d="M 186.333,310.333 C 186.333,311.333 186.333,311.333 186.333,312.333" stroke-width="15.583" stroke="rgb(33,33,33)" fill="none" stroke-linecap="round"></path><path d="M 186.333,312.333 C 186.333,313.333 186.333,313.333 186.333,314.333" stroke-width="15.616" stroke="rgb(33,33,33)" fill="none" stroke-linecap="round"></path><path d="M 186.333,314.333 C 186.333,315.333 186.333,315.333 186.333,316.333" stroke-width="15.798" stroke="rgb(33,33,33)" fill="none" stroke-linecap="round"></path><path d="M 186.333,316.333 C 186.333,317.333 186.333,317.333 186.333,318.333" stroke-width="15.788" stroke="rgb(33,33,33)" fill="none" stroke-linecap="round"></path><path d="M 186.333,318.333 C 186.333,319.333 186.333,319.333 186.333,320.333" stroke-width="15.938" stroke="rgb(33,33,33)" fill="none" stroke-linecap="round"></path><path d="M 186.333,320.333 C 186.333,321.333 186.333,321.333 186.333,322.333" stroke-width="16.060" stroke="rgb(33,33,33)" fill="none" stroke-linecap="round"></path><path d="M 186.333,322.333 C 186.333,323.333 186.748,323.505 186.333,324.333" stroke-width="16.088" stroke="rgb(33,33,33)" fill="none" stroke-linecap="round"></path><path d="M 186.333,324.333 C 185.748,325.505 185.333,325.333 184.333,326.333" stroke-width="15.725" stroke="rgb(33,33,33)" fill="none" stroke-linecap="round"></path><path d="M 184.333,326.333 C 183.333,327.333 183.496,327.558 182.333,328.333" stroke-width="15.566" stroke="rgb(33,33,33)" fill="none" stroke-linecap="round"></path><path d="M 182.333,328.333 C 180.496,329.558 179.715,328.951 178.333,330.333" stroke-width="15.617" stroke="rgb(33,33,33)" fill="none" stroke-linecap="round"></path><path d="M 178.333,330.333 C 177.715,330.951 179.000,332.000 178.333,332.333" stroke-width="15.730" stroke="rgb(33,33,33)" fill="none" stroke-linecap="round"></path><path d="M 178.333,332.333 C 177.000,333.000 176.091,331.748 174.333,332.333" stroke-width="15.227" stroke="rgb(33,33,33)" fill="none" stroke-linecap="round"></path><path d="M 174.333,332.333 C 173.091,332.748 173.505,333.748 172.333,334.333" stroke-width="15.059" stroke="rgb(33,33,33)" fill="none" stroke-linecap="round"></path><path d="M 172.333,334.333 C 171.505,334.748 171.333,334.333 170.333,334.333" stroke-width="15.390" stroke="rgb(33,33,33)" fill="none" stroke-linecap="round"></path><path d="M 170.333,334.333 C 168.333,334.333 168.333,334.333 166.333,334.333" stroke-width="14.815" stroke="rgb(33,33,33)" fill="none" stroke-linecap="round"></path><path d="M 166.333,334.333 C 165.333,334.333 165.333,334.333 164.333,334.333" stroke-width="15.072" stroke="rgb(33,33,33)" fill="none" stroke-linecap="round"></path><path d="M 164.333,334.333 C 162.333,334.333 162.091,334.919 160.333,334.333" stroke-width="14.729" stroke="rgb(33,33,33)" fill="none" stroke-linecap="round"></path><path d="M 160.333,334.333 C 159.091,333.919 159.505,332.919 158.333,332.333" stroke-width="14.775" stroke="rgb(33,33,33)" fill="none" stroke-linecap="round"></path><path d="M 158.333,332.333 C 157.505,331.919 157.333,332.333 156.333,332.333" stroke-width="15.040" stroke="rgb(33,33,33)" fill="none" stroke-linecap="round"></path><path d="M 156.333,332.333 C 155.333,332.333 155.260,332.642 154.333,332.333" stroke-width="15.258" stroke="rgb(33,33,33)" fill="none" stroke-linecap="round"></path><path d="M 154.333,332.333 C 152.260,331.642 152.333,331.333 150.333,330.333" stroke-width="14.878" stroke="rgb(33,33,33)" fill="none" stroke-linecap="round"></path><path d="M 150.333,330.333 C 148.333,329.333 148.406,329.024 146.333,328.333" stroke-width="15.017" stroke="rgb(33,33,33)" fill="none" stroke-linecap="round"></path><path d="M 146.333,328.333 C 145.406,328.024 145.333,328.333 144.333,328.333" stroke-width="15.158" stroke="rgb(33,33,33)" fill="none" stroke-linecap="round"></path><path d="M 144.333,328.333 C 144.333,328.333 144.333,328.333 144.333,328.333" stroke-width="15.960" stroke="rgb(33,33,33)" fill="none" stroke-linecap="round"></path><path d="M 144.333,328.333 C 143.333,328.333 143.333,328.333 142.333,328.333" stroke-width="16.008" stroke="rgb(33,33,33)" fill="none" stroke-linecap="round"></path><path d="M 142.333,328.333 C 141.333,328.333 141.333,328.333 140.333,328.333" stroke-width="17.447" stroke="rgb(33,33,33)" fill="none" stroke-linecap="round"></path><path d="M 140.333,328.333 C 140.333,328.333 140.333,328.333 140.333,328.333" stroke-width="17.943" stroke="rgb(33,33,33)" fill="none" stroke-linecap="round"></path><path d="M 140.333,328.333 C 139.333,328.333 139.333,328.333 138.333,328.333" stroke-width="18.099" stroke="rgb(33,33,33)" fill="none" stroke-linecap="round"></path><path d="M 138.333,328.333 C 137.333,328.333 137.333,328.333 136.333,328.333" stroke-width="18.052" stroke="rgb(33,33,33)" fill="none" stroke-linecap="round"></path><path d="M 136.333,328.333 C 136.333,328.333 136.333,328.333 136.333,328.333" stroke-width="18.453" stroke="rgb(33,33,33)" fill="none" stroke-linecap="round"></path><path d="M 136.333,328.333 C 135.333,328.333 135.162,328.748 134.333,328.333" stroke-width="17.954" stroke="rgb(33,33,33)" fill="none" stroke-linecap="round"></path><path d="M 134.333,328.333 C 133.162,327.748 133.333,327.333 132.333,326.333" stroke-width="17.263" stroke="rgb(33,33,33)" fill="none" stroke-linecap="round"></path><path d="M 132.333,326.333 C 132.333,326.333 132.333,326.333 132.333,326.333" stroke-width="17.788" stroke="rgb(33,33,33)" fill="none" stroke-linecap="round"></path><path d="M 132.333,326.333 C 131.333,326.333 131.162,326.748 130.333,326.333" stroke-width="17.446" stroke="rgb(33,33,33)" fill="none" stroke-linecap="round"></path><path d="M 130.333,326.333 C 129.162,325.748 129.505,324.919 128.333,324.333" stroke-width="16.996" stroke="rgb(33,33,33)" fill="none" stroke-linecap="round"></path><path d="M 128.333,324.333 C 127.505,323.919 127.162,324.748 126.333,324.333" stroke-width="16.731" stroke="rgb(33,33,33)" fill="none" stroke-linecap="round"></path><path d="M 126.333,324.333 C 125.162,323.748 125.505,322.919 124.333,322.333" stroke-width="16.212" stroke="rgb(33,33,33)" fill="none" stroke-linecap="round"></path><path d="M 124.333,322.333 C 123.505,321.919 123.333,322.333 122.333,322.333" stroke-width="16.118" stroke="rgb(33,33,33)" fill="none" stroke-linecap="round"></path></svg>