<svg xmlns="http://www.w3.org/2000/svg" xmlns:xlink="http://www.w3.org/1999/xlink" viewBox="0 0 800 500"><path d="M 116.500,421.500 C 117.500,420.500 117.401,420.379 118.500,419.500" stroke-width="20.161" stroke="rgb(33,33,33)" fill="none" stroke-linecap="round"></path><path d="M 118.500,419.500 C 119.901,418.379 120.000,418.500 121.500,417.500" stroke-width="18.516" stroke="rgb(33,33,33)" fill="none" stroke-linecap="round"></path><path d="M 121.500,417.500 C 124.500,415.500 124.800,415.876 127.500,413.500" stroke-width="16.133" stroke="rgb(33,33,33)" fill="none" stroke-linecap="round"></path><path d="M 127.500,413.500 C 137.300,404.876 137.068,404.570 146.500,395.500" stroke-width="14.485" stroke="rgb(33,33,33)" fill="none" stroke-linecap="round"></path><path d="M 146.500,395.500 C 150.068,392.070 150.318,392.261 153.500,388.500" stroke-width="11.812" stroke="rgb(33,33,33)" fill="none" stroke-linecap="round"></path><path d="M 153.500,388.500 C 155.818,385.761 155.448,385.464 157.500,382.500" stroke-width="11.559" stroke="rgb(33,33,33)" fill="none" stroke-linecap="round"></path><path d="M 157.500,382.500 C 159.948,378.964 159.785,378.818 162.500,375.500" stroke-width="11.148" stroke="rgb(33,33,33)" fill="none" stroke-linecap="round"></path><path d="M 162.500,375.500 C 164.285,373.318 164.963,373.805 166.500,371.500" stroke-width="11.284" stroke="rgb(33,33,33)" fill="none" stroke-linecap="round"></path><path d="M 166.500,371.500 C 167.963,369.305 167.387,368.949 168.500,366.500" stroke-width="11.439" stroke="rgb(33,33,33)" fill="none" stroke-linecap="round"></path><path d="M 168.500,366.500 C 169.887,363.449 169.741,363.314 171.500,360.500" stroke-width="11.471" stroke="rgb(33,33,33)" fill="none" stroke-linecap="round"></path><path d="M 171.500,360.500 C 172.241,359.314 173.086,359.743 173.500,358.500" stroke-width="11.960" stroke="rgb(33,33,33)" fill="none" stroke-linecap="round"></path><path d="M 173.500,358.500 C 174.086,356.743 172.914,356.257 173.500,354.500" stroke-width="12.322" stroke="rgb(33,33,33)" fill="none" stroke-linecap="round"></path><path d="M 173.500,354.500 C 173.914,353.257 174.792,353.680 175.500,352.500" stroke-width="12.692" stroke="rgb(33,33,33)" fill="none" stroke-linecap="round"></path><path d="M 175.500,352.500 C 176.292,351.180 175.914,350.964 176.500,349.500" stroke-width="13.093" stroke="rgb(33,33,33)" fill="none" stroke-linecap="round"></path><path d="M 176.500,349.500 C 176.914,348.464 176.838,348.383 177.500,347.500" stroke-width="13.489" stroke="rgb(33,33,33)" fill="none" stroke-linecap="round"></path><path d="M 177.500,347.500 C 178.338,346.383 178.662,346.617 179.500,345.500" stroke-width="13.893" stroke="rgb(33,33,33)" fill="none" stroke-linecap="round"></path><path d="M 179.500,345.500 C 180.162,344.617 180.000,344.500 180.500,343.500" stroke-width="14.057" stroke="rgb(33,33,33)" fill="none" stroke-linecap="round"></path><path d="M 180.500,343.500 C 181.000,342.500 180.750,342.250 181.500,341.500" stroke-width="14.536" stroke="rgb(33,33,33)" fill="none" stroke-linecap="round"></path><path d="M 181.500,341.500 C 182.250,340.750 182.500,341.000 183.500,340.500" stroke-width="14.424" stroke="rgb(33,33,33)" fill="none" stroke-linecap="round"></path><path d="M 183.500,340.500 C 184.500,340.000 184.500,340.000 185.500,339.500" stroke-width="14.848" stroke="rgb(33,33,33)" fill="none" stroke-linecap="round"></path><path d="M 185.500,339.500 C 186.500,339.000 186.432,338.714 187.500,338.500" stroke-width="14.669" stroke="rgb(33,33,33)" fill="none" stroke-linecap="round"></path><path d="M 187.500,338.500 C 188.932,338.214 189.000,338.500 190.500,338.500" stroke-width="14.901" stroke="rgb(33,33,33)" fill="none" stroke-linecap="round"></path><path d="M 190.500,338.500 C 191.000,338.500 191.019,338.620 191.500,338.500" stroke-width="15.258" stroke="rgb(33,33,33)" fill="none" stroke-linecap="round"></path><path d="M 191.500,338.500 C 193.019,338.120 192.969,337.806 194.500,337.500" stroke-width="15.203" stroke="rgb(33,33,33)" fill="none" stroke-linecap="round"></path><path d="M 194.500,337.500 C 195.469,337.306 195.500,337.500 196.500,337.500" stroke-width="15.309" stroke="rgb(33,33,33)" fill="none" stroke-linecap="round"></path><path d="M 196.500,337.500 C 198.000,337.500 198.000,337.500 199.500,337.500" stroke-width="15.189" stroke="rgb(33,33,33)" fill="none" stroke-linecap="round"></path><path d="M 199.500,337.500 C 200.500,337.500 200.500,337.500 201.500,337.500" stroke-width="15.381" stroke="rgb(33,33,33)" fill="none" stroke-linecap="round"></path><path d="M 201.500,337.500 C 202.500,337.500 202.510,337.376 203.500,337.500" stroke-width="15.538" stroke="rgb(33,33,33)" fill="none" stroke-linecap="round"></path><path d="M 203.500,337.500 C 206.510,337.876 206.770,337.476 209.500,338.500" stroke-width="14.520" stroke="rgb(33,33,33)" fill="none" stroke-linecap="round"></path><path d="M 209.500,338.500 C 210.770,338.976 210.500,339.500 211.500,340.500" stroke-width="14.606" stroke="rgb(33,33,33)" fill="none" stroke-linecap="round"></path><path d="M 211.500,340.500 C 212.500,341.500 212.357,341.683 213.500,342.500" stroke-width="14.675" stroke="rgb(33,33,33)" fill="none" stroke-linecap="round"></path><path d="M 213.500,342.500 C 215.857,344.183 216.143,343.817 218.500,345.500" stroke-width="13.969" stroke="rgb(33,33,33)" fill="none" stroke-linecap="round"></path><path d="M 218.500,345.500 C 219.643,346.317 219.581,346.428 220.500,347.500" stroke-width="14.156" stroke="rgb(33,33,33)" fill="none" stroke-linecap="round"></path><path d="M 220.500,347.500 C 222.581,349.928 222.535,349.973 224.500,352.500" stroke-width="13.460" stroke="rgb(33,33,33)" fill="none" stroke-linecap="round"></path><path d="M 224.500,352.500 C 226.035,354.473 226.404,354.308 227.500,356.500" stroke-width="13.248" stroke="rgb(33,33,33)" fill="none" stroke-linecap="round"></path><path d="M 227.500,356.500 C 228.404,358.308 227.780,358.581 228.500,360.500" stroke-width="13.271" stroke="rgb(33,33,33)" fill="none" stroke-linecap="round"></path><path d="M 228.500,360.500 C 229.280,362.581 229.864,362.381 230.500,364.500" stroke-width="13.409" stroke="rgb(33,33,33)" fill="none" stroke-linecap="round"></path><path d="M 230.500,364.500 C 231.364,367.381 230.558,367.675 231.500,370.500" stroke-width="12.571" stroke="rgb(33,33,33)" fill="none" stroke-linecap="round"></path><path d="M 231.500,370.500 C 232.058,372.175 233.081,371.824 233.500,373.500" stroke-width="12.826" stroke="rgb(33,33,33)" fill="none" stroke-linecap="round"></path><path d="M 233.500,373.500 C 234.081,375.824 233.500,376.000 233.500,378.500" stroke-width="12.751" stroke="rgb(33,33,33)" fill="none" stroke-linecap="round"></path><path d="M 233.500,378.500 C 233.500,380.000 233.500,380.000 233.500,381.500" stroke-width="13.231" stroke="rgb(33,33,33)" fill="none" stroke-linecap="round"></path><path d="M 233.500,381.500 C 233.500,383.500 233.779,383.545 233.500,385.500" stroke-width="13.000" stroke="rgb(33,33,33)" fill="none" stroke-linecap="round"></path><path d="M 233.500,385.500 C 233.279,387.045 233.201,387.098 232.500,388.500" stroke-width="13.467" stroke="rgb(33,33,33)" fill="none" stroke-linecap="round"></path><path d="M 232.500,388.500 C 231.701,390.098 231.302,389.896 230.500,391.500" stroke-width="13.089" stroke="rgb(33,33,33)" fill="none" stroke-linecap="round"></path><path d="M 230.500,391.500 C 229.302,393.896 229.698,394.104 228.500,396.500" stroke-width="13.257" stroke="rgb(33,33,33)" fill="none" stroke-linecap="round"></path><path d="M 228.500,396.500 C 227.698,398.104 227.547,398.034 226.500,399.500" stroke-width="12.638" stroke="rgb(33,33,33)" fill="none" stroke-linecap="round"></path><path d="M 226.500,399.500 C 225.047,401.534 224.953,401.466 223.500,403.500" stroke-width="12.876" stroke="rgb(33,33,33)" fill="none" stroke-linecap="round"></path><path d="M 223.500,403.500 C 222.453,404.966 222.757,405.243 221.500,406.500" stroke-width="12.637" stroke="rgb(33,33,33)" fill="none" stroke-linecap="round"></path><path d="M 221.500,406.500 C 219.757,408.243 219.500,408.000 217.500,409.500" stroke-width="12.875" stroke="rgb(33,33,33)" fill="none" stroke-linecap="round"></path><path d="M 217.500,409.500 C 215.500,411.000 215.667,411.296 213.500,412.500" stroke-width="12.212" stroke="rgb(33,33,33)" fill="none" stroke-linecap="round"></path><path d="M 213.500,412.500 C 211.167,413.796 211.029,413.580 208.500,414.500" stroke-width="12.190" stroke="rgb(33,33,33)" fill="none" stroke-linecap="round"></path><path d="M 208.500,414.500 C 205.529,415.580 205.558,415.735 202.500,416.500" stroke-width="12.003" stroke="rgb(33,33,33)" fill="none" stroke-linecap="round"></path><path d="M 202.500,416.500 C 199.558,417.235 199.417,416.704 196.500,417.500" stroke-width="11.900" stroke="rgb(33,33,33)" fill="none" stroke-linecap="round"></path><path d="M 196.500,417.500 C 193.917,418.204 194.083,418.796 191.500,419.500" stroke-width="11.940" stroke="rgb(33,33,33)" fill="none" stroke-linecap="round"></path><path d="M 191.500,419.500 C 188.583,420.296 188.514,420.165 185.500,420.500" stroke-width="11.850" stroke="rgb(33,33,33)" fill="none" stroke-linecap="round"></path><path d="M 185.500,420.500 C 184.014,420.665 184.000,420.500 182.500,420.500" stroke-width="12.332" stroke="rgb(33,33,33)" fill="none" stroke-linecap="round"></path><path d="M 182.500,420.500 C 181.500,420.500 181.500,420.500 180.500,420.500" stroke-width="12.950" stroke="rgb(33,33,33)" fill="none" stroke-linecap="round"></path><path d="M 180.500,420.500 C 180.000,420.500 179.750,420.750 179.500,420.500" stroke-width="13.720" stroke="rgb(33,33,33)" fill="none" stroke-linecap="round"></path><path d="M 179.500,420.500 C 179.250,420.250 179.500,420.000 179.500,419.500" stroke-width="14.405" stroke="rgb(33,33,33)" fill="none" stroke-linecap="round"></path><path d="M 179.500,419.500 C 179.500,419.000 179.500,419.000 179.500,418.500" stroke-width="15.145" stroke="rgb(33,33,33)" fill="none" stroke-linecap="round"></path><path d="M 179.500,418.500 C 179.500,418.000 179.500,418.000 179.500,417.500" stroke-width="15.793" stroke="rgb(33,33,33)" fill="none" stroke-linecap="round"></path><path d="M 265.500,347.500 C 266.000,347.500 266.250,347.250 266.500,347.500" stroke-width="20.083" stroke="rgb(33,33,33)" fill="none" stroke-linecap="round"></path><path d="M 266.500,347.500 C 266.750,347.750 266.293,348.086 266.500,348.500" stroke-width="19.628" stroke="rgb(33,33,33)" fill="none" stroke-linecap="round"></path><path d="M 266.500,348.500 C 266.793,349.086 267.000,349.000 267.500,349.500" stroke-width="19.091" stroke="rgb(33,33,33)" fill="none" stroke-linecap="round"></path><path d="M 268.500,347.500 C 268.500,348.500 268.500,348.500 268.500,349.500" stroke-width="20.104" stroke="rgb(33,33,33)" fill="none" stroke-linecap="round"></path><path d="M 268.500,349.500 C 268.500,352.000 268.726,352.019 268.500,354.500" stroke-width="17.907" stroke="rgb(33,33,33)" fill="none" stroke-linecap="round"></path><path d="M 268.500,354.500 C 268.226,357.519 268.000,357.500 267.500,360.500" stroke-width="16.113" stroke="rgb(33,33,33)" fill="none" stroke-linecap="round"></path><path d="M 267.500,360.500 C 267.000,363.500 267.183,363.541 266.500,366.500" stroke-width="14.918" stroke="rgb(33,33,33)" fill="none" stroke-linecap="round"></path><path d="M 266.500,366.500 C 265.683,370.041 265.458,369.989 264.500,373.500" stroke-width="13.795" stroke="rgb(33,33,33)" fill="none" stroke-linecap="round"></path><path d="M 264.500,373.500 C 263.958,375.489 263.947,375.488 263.500,377.500" stroke-width="13.706" stroke="rgb(33,33,33)" fill="none" stroke-linecap="round"></path><path d="M 263.500,377.500 C 262.947,379.988 263.299,380.103 262.500,382.500" stroke-width="13.416" stroke="rgb(33,33,33)" fill="none" stroke-linecap="round"></path><path d="M 262.500,382.500 C 261.799,384.603 261.407,384.458 260.500,386.500" stroke-width="13.328" stroke="rgb(33,33,33)" fill="none" stroke-linecap="round"></path><path d="M 260.500,386.500 C 259.407,388.958 259.350,388.951 258.500,391.500" stroke-width="13.064" stroke="rgb(33,33,33)" fill="none" stroke-linecap="round"></path><path d="M 258.500,391.500 C 257.850,393.451 257.789,393.474 257.500,395.500" stroke-width="13.221" stroke="rgb(33,33,33)" fill="none" stroke-linecap="round"></path><path d="M 257.500,395.500 C 257.289,396.974 257.685,397.018 257.500,398.500" stroke-width="13.401" stroke="rgb(33,33,33)" fill="none" stroke-linecap="round"></path><path d="M 257.500,398.500 C 257.185,401.018 257.053,401.012 256.500,403.500" stroke-width="13.403" stroke="rgb(33,33,33)" fill="none" stroke-linecap="round"></path><path d="M 256.500,403.500 C 256.053,405.512 256.066,405.519 255.500,407.500" stroke-width="13.097" stroke="rgb(33,33,33)" fill="none" stroke-linecap="round"></path><path d="M 255.500,407.500 C 255.066,409.019 255.000,409.000 254.500,410.500" stroke-width="13.499" stroke="rgb(33,33,33)" fill="none" stroke-linecap="round"></path><path d="M 254.500,410.500 C 254.000,412.000 253.842,411.961 253.500,413.500" stroke-width="13.451" stroke="rgb(33,33,33)" fill="none" stroke-linecap="round"></path><path d="M 253.500,413.500 C 252.842,416.461 252.774,416.481 252.500,419.500" stroke-width="13.366" stroke="rgb(33,33,33)" fill="none" stroke-linecap="round"></path><path d="M 252.500,419.500 C 252.274,421.981 252.726,422.019 252.500,424.500" stroke-width="12.562" stroke="rgb(33,33,33)" fill="none" stroke-linecap="round"></path><path d="M 252.500,424.500 C 252.226,427.519 251.716,427.476 251.500,430.500" stroke-width="12.655" stroke="rgb(33,33,33)" fill="none" stroke-linecap="round"></path><path d="M 251.500,430.500 C 251.216,434.476 251.500,434.500 251.500,438.500" stroke-width="10.770" stroke="rgb(33,33,33)" fill="none" stroke-linecap="round"></path><path d="M 251.500,438.500 C 251.500,442.500 251.500,442.500 251.500,446.500" stroke-width="11.021" stroke="rgb(33,33,33)" fill="none" stroke-linecap="round"></path><path d="M 251.500,446.500 C 251.500,450.500 251.500,450.500 251.500,454.500" stroke-width="10.176" stroke="rgb(33,33,33)" fill="none" stroke-linecap="round"></path><path d="M 251.500,454.500 C 251.500,458.500 252.058,458.591 251.500,462.500" stroke-width="10.280" stroke="rgb(33,33,33)" fill="none" stroke-linecap="round"></path><path d="M 251.500,462.500 C 251.058,465.591 249.932,465.910 249.500,468.500" stroke-width="11.355" stroke="rgb(33,33,33)" fill="none" stroke-linecap="round"></path><path d="M 249.500,468.500 C 249.432,468.910 250.000,468.500 250.500,468.500" stroke-width="12.411" stroke="rgb(33,33,33)" fill="none" stroke-linecap="round"></path><path d="M 250.500,468.500 C 251.000,468.500 251.000,468.500 251.500,468.500" stroke-width="13.335" stroke="rgb(33,33,33)" fill="none" stroke-linecap="round"></path><path d="M 251.500,468.500 C 252.000,468.500 252.000,468.500 252.500,468.500" stroke-width="14.091" stroke="rgb(33,33,33)" fill="none" stroke-linecap="round"></path><path d="M 252.500,468.500 C 253.000,468.500 253.036,468.655 253.500,468.500" stroke-width="14.731" stroke="rgb(33,33,33)" fill="none" stroke-linecap="round"></path><path d="M 253.500,468.500 C 254.536,468.155 254.464,467.914 255.500,467.500" stroke-width="14.850" stroke="rgb(33,33,33)" fill="none" stroke-linecap="round"></path><path d="M 255.500,467.500 C 256.964,466.914 256.960,466.757 258.500,466.500" stroke-width="14.877" stroke="rgb(33,33,33)" fill="none" stroke-linecap="round"></path><path d="M 258.500,466.500 C 259.960,466.257 260.000,466.500 261.500,466.500" stroke-width="14.731" stroke="rgb(33,33,33)" fill="none" stroke-linecap="round"></path><path d="M 261.500,466.500 C 263.500,466.500 263.545,466.779 265.500,466.500" stroke-width="14.677" stroke="rgb(33,33,33)" fill="none" stroke-linecap="round"></path><path d="M 265.500,466.500 C 267.045,466.279 267.000,466.000 268.500,465.500" stroke-width="14.370" stroke="rgb(33,33,33)" fill="none" stroke-linecap="round"></path><path d="M 268.500,465.500 C 270.000,465.000 270.036,465.086 271.500,464.500" stroke-width="14.398" stroke="rgb(33,33,33)" fill="none" stroke-linecap="round"></path><path d="M 271.500,464.500 C 272.536,464.086 272.432,463.714 273.500,463.500" stroke-width="14.663" stroke="rgb(33,33,33)" fill="none" stroke-linecap="round"></path><path d="M 273.500,463.500 C 274.932,463.214 275.040,463.743 276.500,463.500" stroke-width="14.765" stroke="rgb(33,33,33)" fill="none" stroke-linecap="round"></path><path d="M 276.500,463.500 C 278.040,463.243 278.000,463.000 279.500,462.500" stroke-width="14.594" stroke="rgb(33,33,33)" fill="none" stroke-linecap="round"></path><path d="M 279.500,462.500 C 281.000,462.000 281.000,462.000 282.500,461.500" stroke-width="14.746" stroke="rgb(33,33,33)" fill="none" stroke-linecap="round"></path><path d="M 282.500,461.500 C 284.000,461.000 283.969,460.806 285.500,460.500" stroke-width="14.423" stroke="rgb(33,33,33)" fill="none" stroke-linecap="round"></path><path d="M 285.500,460.500 C 286.469,460.306 286.531,460.694 287.500,460.500" stroke-width="14.854" stroke="rgb(33,33,33)" fill="none" stroke-linecap="round"></path><path d="M 287.500,460.500 C 289.031,460.194 289.118,460.191 290.500,459.500" stroke-width="14.506" stroke="rgb(33,33,33)" fill="none" stroke-linecap="round"></path><path d="M 290.500,459.500 C 291.118,459.191 290.914,458.793 291.500,458.500" stroke-width="15.175" stroke="rgb(33,33,33)" fill="none" stroke-linecap="round"></path><path d="M 291.500,458.500 C 291.914,458.293 292.000,458.500 292.500,458.500" stroke-width="15.749" stroke="rgb(33,33,33)" fill="none" stroke-linecap="round"></path><path d="M 292.500,458.500 C 293.000,458.500 293.250,458.750 293.500,458.500" stroke-width="15.962" stroke="rgb(33,33,33)" fill="none" stroke-linecap="round"></path><path d="M 293.500,458.500 C 293.750,458.250 293.250,457.750 293.500,457.500" stroke-width="16.583" stroke="rgb(33,33,33)" fill="none" stroke-linecap="round"></path><path d="M 293.500,457.500 C 293.750,457.250 294.250,457.750 294.500,457.500" stroke-width="16.848" stroke="rgb(33,33,33)" fill="none" stroke-linecap="round"></path><path d="M 294.500,457.500 C 294.750,457.250 294.345,456.964 294.500,456.500" stroke-width="17.067" stroke="rgb(33,33,33)" fill="none" stroke-linecap="round"></path><path d="M 294.500,456.500 C 294.845,455.464 295.000,455.500 295.500,454.500" stroke-width="16.803" stroke="rgb(33,33,33)" fill="none" stroke-linecap="round"></path><path d="M 295.500,454.500 C 296.000,453.500 296.155,453.536 296.500,452.500" stroke-width="16.598" stroke="rgb(33,33,33)" fill="none" stroke-linecap="round"></path><path d="M 296.500,452.500 C 296.655,452.036 296.500,452.000 296.500,451.500" stroke-width="16.861" stroke="rgb(33,33,33)" fill="none" stroke-linecap="round"></path><path d="M 296.500,451.500 C 296.500,451.000 296.250,450.750 296.500,450.500" stroke-width="17.077" stroke="rgb(33,33,33)" fill="none" stroke-linecap="round"></path><path d="M 296.500,450.500 C 296.750,450.250 297.250,450.750 297.500,450.500" stroke-width="17.440" stroke="rgb(33,33,33)" fill="none" stroke-linecap="round"></path><path d="M 297.500,450.500 C 297.750,450.250 297.345,449.964 297.500,449.500" stroke-width="17.905" stroke="rgb(33,33,33)" fill="none" stroke-linecap="round"></path><path d="M 297.500,449.500 C 297.845,448.464 298.236,448.556 298.500,447.500" stroke-width="17.877" stroke="rgb(33,33,33)" fill="none" stroke-linecap="round"></path><path d="M 298.500,447.500 C 298.736,446.556 298.500,446.500 298.500,445.500" stroke-width="17.407" stroke="rgb(33,33,33)" fill="none" stroke-linecap="round"></path><path d="M 298.500,445.500 C 298.500,444.500 298.500,444.500 298.500,443.500" stroke-width="17.522" stroke="rgb(33,33,33)" fill="none" stroke-linecap="round"></path><path d="M 298.500,443.500 C 298.500,443.000 298.250,442.750 298.500,442.500" stroke-width="17.782" stroke="rgb(33,33,33)" fill="none" stroke-linecap="round"></path><path d="M 298.500,442.500 C 298.750,442.250 299.250,442.250 299.500,442.500" stroke-width="18.046" stroke="rgb(33,33,33)" fill="none" stroke-linecap="round"></path><path d="M 299.500,442.500 C 299.750,442.750 299.500,443.000 299.500,443.500" stroke-width="18.387" stroke="rgb(33,33,33)" fill="none" stroke-linecap="round"></path><path d="M 299.500,443.500 C 299.500,444.000 299.500,444.000 299.500,444.500" stroke-width="18.309" stroke="rgb(33,33,33)" fill="none" stroke-linecap="round"></path><path d="M 299.500,444.500 C 299.500,445.000 299.500,445.000 299.500,445.500" stroke-width="18.246" stroke="rgb(33,33,33)" fill="none" stroke-linecap="round"></path><path d="M 299.500,445.500 C 299.500,446.000 299.500,446.000 299.500,446.500" stroke-width="18.308" stroke="rgb(33,33,33)" fill="none" stroke-linecap="round"></path><path d="M 299.500,446.500 C 299.500,447.000 299.250,447.250 299.500,447.500" stroke-width="18.003" stroke="rgb(33,33,33)" fill="none" stroke-linecap="round"></path><path d="M 299.500,447.500 C 299.750,447.750 300.000,447.500 300.500,447.500" stroke-width="18.374" stroke="rgb(33,33,33)" fill="none" stroke-linecap="round"></path><path d="M 300.500,447.500 C 301.000,447.500 301.086,447.293 301.500,447.500" stroke-width="18.239" stroke="rgb(33,33,33)" fill="none" stroke-linecap="round"></path><path d="M 301.500,447.500 C 302.086,447.793 301.879,448.293 302.500,448.500" stroke-width="18.409" stroke="rgb(33,33,33)" fill="none" stroke-linecap="round"></path><path d="M 302.500,448.500 C 303.379,448.793 303.500,448.500 304.500,448.500" stroke-width="18.009" stroke="rgb(33,33,33)" fill="none" stroke-linecap="round"></path><path d="M 304.500,448.500 C 305.000,448.500 305.000,448.500 305.500,448.500" stroke-width="17.950" stroke="rgb(33,33,33)" fill="none" stroke-linecap="round"></path><path d="M 305.500,448.500 C 306.000,448.500 306.000,448.500 306.500,448.500" stroke-width="18.004" stroke="rgb(33,33,33)" fill="none" stroke-linecap="round"></path><path d="M 306.500,448.500 C 307.000,448.500 307.086,448.293 307.500,448.500" stroke-width="17.947" stroke="rgb(33,33,33)" fill="none" stroke-linecap="round"></path><path d="M 307.500,448.500 C 308.086,448.793 307.914,449.207 308.500,449.500" stroke-width="18.170" stroke="rgb(33,33,33)" fill="none" stroke-linecap="round"></path><path d="M 308.500,449.500 C 308.914,449.707 309.000,449.500 309.500,449.500" stroke-width="18.411" stroke="rgb(33,33,33)" fill="none" stroke-linecap="round"></path><path d="M 309.500,449.500 C 310.000,449.500 310.086,449.707 310.500,449.500" stroke-width="18.643" stroke="rgb(33,33,33)" fill="none" stroke-linecap="round"></path><path d="M 310.500,449.500 C 311.086,449.207 311.293,449.121 311.500,448.500" stroke-width="18.746" stroke="rgb(33,33,33)" fill="none" stroke-linecap="round"></path><path d="M 311.500,448.500 C 311.793,447.621 311.207,447.379 311.500,446.500" stroke-width="18.059" stroke="rgb(33,33,33)" fill="none" stroke-linecap="round"></path><path d="M 311.500,446.500 C 311.707,445.879 312.113,446.081 312.500,445.500" stroke-width="17.994" stroke="rgb(33,33,33)" fill="none" stroke-linecap="round"></path><path d="M 312.500,445.500 C 313.113,444.581 312.926,444.457 313.500,443.500" stroke-width="17.237" stroke="rgb(33,33,33)" fill="none" stroke-linecap="round"></path><path d="M 313.500,443.500 C 314.426,441.957 314.607,442.062 315.500,440.500" stroke-width="16.463" stroke="rgb(33,33,33)" fill="none" stroke-linecap="round"></path><path d="M 315.500,440.500 C 316.607,438.562 316.720,438.581 317.500,436.500" stroke-width="15.627" stroke="rgb(33,33,33)" fill="none" stroke-linecap="round"></path><path d="M 317.500,436.500 C 318.220,434.581 318.000,434.500 318.500,432.500" stroke-width="15.115" stroke="rgb(33,33,33)" fill="none" stroke-linecap="round"></path><path d="M 318.500,432.500 C 319.500,428.500 319.438,428.483 320.500,424.500" stroke-width="13.702" stroke="rgb(33,33,33)" fill="none" stroke-linecap="round"></path><path d="M 320.500,424.500 C 321.438,420.983 321.350,420.950 322.500,417.500" stroke-width="12.945" stroke="rgb(33,33,33)" fill="none" stroke-linecap="round"></path><path d="M 322.500,417.500 C 323.850,413.450 324.529,413.627 325.500,409.500" stroke-width="12.162" stroke="rgb(33,33,33)" fill="none" stroke-linecap="round"></path><path d="M 325.500,409.500 C 326.529,405.127 325.757,404.960 326.500,400.500" stroke-width="11.516" stroke="rgb(33,33,33)" fill="none" stroke-linecap="round"></path><path d="M 326.500,400.500 C 327.257,395.960 327.500,396.000 328.500,391.500" stroke-width="11.022" stroke="rgb(33,33,33)" fill="none" stroke-linecap="round"></path><path d="M 328.500,391.500 C 329.500,387.000 329.382,386.970 330.500,382.500" stroke-width="10.656" stroke="rgb(33,33,33)" fill="none" stroke-linecap="round"></path><path d="M 330.500,382.500 C 331.382,378.970 331.618,379.030 332.500,375.500" stroke-width="10.760" stroke="rgb(33,33,33)" fill="none" stroke-linecap="round"></path><path d="M 332.500,375.500 C 333.618,371.030 333.596,371.019 334.500,366.500" stroke-width="10.284" stroke="rgb(33,33,33)" fill="none" stroke-linecap="round"></path><path d="M 334.500,366.500 C 335.096,363.519 335.284,363.524 335.500,360.500" stroke-width="10.507" stroke="rgb(33,33,33)" fill="none" stroke-linecap="round"></path><path d="M 335.500,360.500 C 335.784,356.524 335.278,356.489 335.500,352.500" stroke-width="10.428" stroke="rgb(33,33,33)" fill="none" stroke-linecap="round"></path><path d="M 335.500,352.500 C 335.778,347.489 336.024,347.502 336.500,342.500" stroke-width="10.361" stroke="rgb(33,33,33)" fill="none" stroke-linecap="round"></path><path d="M 336.500,342.500 C 337.024,337.002 336.922,336.992 337.500,331.500" stroke-width="9.499" stroke="rgb(33,33,33)" fill="none" stroke-linecap="round"></path><path d="M 337.500,331.500 C 337.922,327.492 338.000,327.500 338.500,323.500" stroke-width="9.798" stroke="rgb(33,33,33)" fill="none" stroke-linecap="round"></path><path d="M 338.500,323.500 C 339.000,319.500 338.967,319.496 339.500,315.500" stroke-width="9.543" stroke="rgb(33,33,33)" fill="none" stroke-linecap="round"></path><path d="M 339.500,315.500 C 339.967,311.996 340.265,312.019 340.500,308.500" stroke-width="9.994" stroke="rgb(33,33,33)" fill="none" stroke-linecap="round"></path><path d="M 340.500,308.500 C 340.765,304.519 339.942,304.409 340.500,300.500" stroke-width="9.458" stroke="rgb(33,33,33)" fill="none" stroke-linecap="round"></path><path d="M 340.500,300.500 C 340.942,297.409 341.887,297.563 342.500,294.500" stroke-width="10.034" stroke="rgb(33,33,33)" fill="none" stroke-linecap="round"></path><path d="M 342.500,294.500 C 342.887,292.563 342.221,292.455 342.500,290.500" stroke-width="10.052" stroke="rgb(33,33,33)" fill="none" stroke-linecap="round"></path><path d="M 342.500,290.500 C 342.721,288.955 343.194,289.031 343.500,287.500" stroke-width="10.862" stroke="rgb(33,33,33)" fill="none" stroke-linecap="round"></path><path d="M 343.500,287.500 C 343.694,286.531 343.207,286.379 343.500,285.500" stroke-width="11.304" stroke="rgb(33,33,33)" fill="none" stroke-linecap="round"></path><path d="M 343.500,285.500 C 343.707,284.879 344.207,285.086 344.500,284.500" stroke-width="12.207" stroke="rgb(33,33,33)" fill="none" stroke-linecap="round"></path><path d="M 344.500,284.500 C 344.707,284.086 344.500,284.000 344.500,283.500" stroke-width="12.922" stroke="rgb(33,33,33)" fill="none" stroke-linecap="round"></path><path d="M 344.500,283.500 C 344.500,283.000 344.500,282.500 344.500,282.500" stroke-width="13.695" stroke="rgb(33,33,33)" fill="none" stroke-linecap="round"></path><path d="M 344.500,282.500 C 344.500,282.500 344.500,283.000 344.500,283.500" stroke-width="14.599" stroke="rgb(33,33,33)" fill="none" stroke-linecap="round"></path><path d="M 344.500,283.500 C 344.500,285.000 344.685,285.018 344.500,286.500" stroke-width="14.624" stroke="rgb(33,33,33)" fill="none" stroke-linecap="round"></path><path d="M 344.500,286.500 C 344.185,289.018 343.887,288.982 343.500,291.500" stroke-width="14.109" stroke="rgb(33,33,33)" fill="none" stroke-linecap="round"></path><path d="M 343.500,291.500 C 342.887,295.482 342.751,295.484 342.500,299.500" stroke-width="13.067" stroke="rgb(33,33,33)" fill="none" stroke-linecap="round"></path><path d="M 342.500,299.500 C 342.251,303.484 342.749,303.516 342.500,307.500" stroke-width="12.519" stroke="rgb(33,33,33)" fill="none" stroke-linecap="round"></path><path d="M 342.500,307.500 C 342.249,311.516 341.901,311.490 341.500,315.500" stroke-width="11.743" stroke="rgb(33,33,33)" fill="none" stroke-linecap="round"></path><path d="M 341.500,315.500 C 340.901,321.490 341.045,321.504 340.500,327.500" stroke-width="10.768" stroke="rgb(33,33,33)" fill="none" stroke-linecap="round"></path><path d="M 340.500,327.500 C 340.045,332.504 339.764,332.488 339.500,337.500" stroke-width="10.627" stroke="rgb(33,33,33)" fill="none" stroke-linecap="round"></path><path d="M 339.500,337.500 C 339.264,341.988 339.736,342.012 339.500,346.500" stroke-width="10.003" stroke="rgb(33,33,33)" fill="none" stroke-linecap="round"></path><path d="M 339.500,346.500 C 339.236,351.512 338.751,351.488 338.500,356.500" stroke-width="10.022" stroke="rgb(33,33,33)" fill="none" stroke-linecap="round"></path><path d="M 338.500,356.500 C 338.251,361.488 338.500,361.500 338.500,366.500" stroke-width="9.420" stroke="rgb(33,33,33)" fill="none" stroke-linecap="round"></path><path d="M 338.500,366.500 C 338.500,370.500 338.500,370.500 338.500,374.500" stroke-width="9.805" stroke="rgb(33,33,33)" fill="none" stroke-linecap="round"></path><path d="M 338.500,374.500 C 338.500,379.500 338.811,379.526 338.500,384.500" stroke-width="8.991" stroke="rgb(33,33,33)" fill="none" stroke-linecap="round"></path><path d="M 338.500,384.500 C 338.311,387.526 337.689,387.474 337.500,390.500" stroke-width="9.587" stroke="rgb(33,33,33)" fill="none" stroke-linecap="round"></path><path d="M 337.500,390.500 C 337.189,395.474 337.500,395.500 337.500,400.500" stroke-width="8.843" stroke="rgb(33,33,33)" fill="none" stroke-linecap="round"></path><path d="M 337.500,400.500 C 337.500,403.500 337.500,403.500 337.500,406.500" stroke-width="9.499" stroke="rgb(33,33,33)" fill="none" stroke-linecap="round"></path><path d="M 337.500,406.500 C 337.500,410.000 337.500,410.000 337.500,413.500" stroke-width="8.978" stroke="rgb(33,33,33)" fill="none" stroke-linecap="round"></path><path d="M 337.500,413.500 C 337.500,415.500 337.500,415.500 337.500,417.500" stroke-width="9.749" stroke="rgb(33,33,33)" fill="none" stroke-linecap="round"></path><path d="M 337.500,417.500 C 337.500,419.000 337.500,419.000 337.500,420.500" stroke-width="10.218" stroke="rgb(33,33,33)" fill="none" stroke-linecap="round"></path><path d="M 337.500,420.500 C 337.500,422.000 337.500,422.000 337.500,423.500" stroke-width="10.885" stroke="rgb(33,33,33)" fill="none" stroke-linecap="round"></path><path d="M 337.500,423.500 C 337.500,425.000 337.500,425.000 337.500,426.500" stroke-width="11.484" stroke="rgb(33,33,33)" fill="none" stroke-linecap="round"></path><path d="M 337.500,426.500 C 337.500,427.500 337.500,427.500 337.500,428.500" stroke-width="12.194" stroke="rgb(33,33,33)" fill="none" stroke-linecap="round"></path><path d="M 337.500,428.500 C 337.500,429.000 337.500,429.000 337.500,429.500" stroke-width="13.035" stroke="rgb(33,33,33)" fill="none" stroke-linecap="round"></path><path d="M 337.500,429.500 C 337.500,430.000 337.500,430.000 337.500,430.500" stroke-width="13.796" stroke="rgb(33,33,33)" fill="none" stroke-linecap="round"></path><path d="M 337.500,430.500 C 337.500,431.500 337.500,431.500 337.500,432.500" stroke-width="14.218" stroke="rgb(33,33,33)" fill="none" stroke-linecap="round"></path><path d="M 337.500,432.500 C 337.500,433.000 337.250,433.250 337.500,433.500" stroke-width="15.049" stroke="rgb(33,33,33)" fill="none" stroke-linecap="round"></path><path d="M 337.500,433.500 C 337.750,433.750 338.250,433.250 338.500,433.500" stroke-width="15.802" stroke="rgb(33,33,33)" fill="none" stroke-linecap="round"></path><path d="M 338.500,433.500 C 338.750,433.750 338.250,434.250 338.500,434.500" stroke-width="16.197" stroke="rgb(33,33,33)" fill="none" stroke-linecap="round"></path><path d="M 338.500,434.500 C 338.750,434.750 339.000,434.500 339.500,434.500" stroke-width="16.528" stroke="rgb(33,33,33)" fill="none" stroke-linecap="round"></path><path d="M 339.500,434.500 C 340.000,434.500 340.000,434.500 340.500,434.500" stroke-width="16.873" stroke="rgb(33,33,33)" fill="none" stroke-linecap="round"></path><path d="M 340.500,434.500 C 341.000,434.500 341.000,434.500 341.500,434.500" stroke-width="16.968" stroke="rgb(33,33,33)" fill="none" stroke-linecap="round"></path><path d="M 341.500,434.500 C 342.000,434.500 342.000,434.500 342.500,434.500" stroke-width="17.348" stroke="rgb(33,33,33)" fill="none" stroke-linecap="round"></path><path d="M 342.500,434.500 C 343.000,434.500 343.000,434.500 343.500,434.500" stroke-width="17.578" stroke="rgb(33,33,33)" fill="none" stroke-linecap="round"></path><path d="M 343.500,434.500 C 344.000,434.500 344.305,434.890 344.500,434.500" stroke-width="17.856" stroke="rgb(33,33,33)" fill="none" stroke-linecap="round"></path><path d="M 344.500,434.500 C 345.305,432.890 344.596,432.308 345.500,430.500" stroke-width="15.917" stroke="rgb(33,33,33)" fill="none" stroke-linecap="round"></path><path d="M 345.500,430.500 C 346.596,428.308 347.311,428.680 348.500,426.500" stroke-width="15.081" stroke="rgb(33,33,33)" fill="none" stroke-linecap="round"></path><path d="M 348.500,426.500 C 350.311,423.180 350.300,423.101 351.500,419.500" stroke-width="13.826" stroke="rgb(33,33,33)" fill="none" stroke-linecap="round"></path><path d="M 351.500,419.500 C 352.800,415.601 352.337,415.453 353.500,411.500" stroke-width="12.834" stroke="rgb(33,33,33)" fill="none" stroke-linecap="round"></path><path d="M 353.500,411.500 C 354.837,406.953 354.933,406.977 356.500,402.500" stroke-width="11.916" stroke="rgb(33,33,33)" fill="none" stroke-linecap="round"></path><path d="M 356.500,402.500 C 358.433,396.977 359.029,397.139 360.500,391.500" stroke-width="10.933" stroke="rgb(33,33,33)" fill="none" stroke-linecap="round"></path><path d="M 360.500,391.500 C 362.029,385.639 361.260,385.450 362.500,379.500" stroke-width="10.197" stroke="rgb(33,33,33)" fill="none" stroke-linecap="round"></path><path d="M 362.500,379.500 C 363.760,373.450 364.288,373.558 365.500,367.500" stroke-width="9.652" stroke="rgb(33,33,33)" fill="none" stroke-linecap="round"></path><path d="M 365.500,367.500 C 366.788,361.058 366.344,360.972 367.500,354.500" stroke-width="9.175" stroke="rgb(33,33,33)" fill="none" stroke-linecap="round"></path><path d="M 367.500,354.500 C 368.844,346.972 369.293,347.044 370.500,339.500" stroke-width="8.624" stroke="rgb(33,33,33)" fill="none" stroke-linecap="round"></path><path d="M 370.500,339.500 C 371.293,334.544 370.821,334.476 371.500,329.500" stroke-width="8.692" stroke="rgb(33,33,33)" fill="none" stroke-linecap="round"></path><path d="M 371.500,329.500 C 372.321,323.476 372.640,323.519 373.500,317.500" stroke-width="8.552" stroke="rgb(33,33,33)" fill="none" stroke-linecap="round"></path><path d="M 373.500,317.500 C 374.140,313.019 374.235,313.013 374.500,308.500" stroke-width="8.821" stroke="rgb(33,33,33)" fill="none" stroke-linecap="round"></path><path d="M 374.500,308.500 C 374.735,304.513 374.251,304.484 374.500,300.500" stroke-width="8.940" stroke="rgb(33,33,33)" fill="none" stroke-linecap="round"></path><path d="M 374.500,300.500 C 374.751,296.484 375.232,296.514 375.500,292.500" stroke-width="9.242" stroke="rgb(33,33,33)" fill="none" stroke-linecap="round"></path><path d="M 375.500,292.500 C 375.732,289.014 375.500,289.000 375.500,285.500" stroke-width="9.406" stroke="rgb(33,33,33)" fill="none" stroke-linecap="round"></path><path d="M 375.500,285.500 C 375.500,283.000 375.500,283.000 375.500,280.500" stroke-width="10.013" stroke="rgb(33,33,33)" fill="none" stroke-linecap="round"></path><path d="M 375.500,280.500 C 375.500,279.000 375.500,279.000 375.500,277.500" stroke-width="10.558" stroke="rgb(33,33,33)" fill="none" stroke-linecap="round"></path><path d="M 375.500,277.500 C 375.500,276.000 375.500,276.000 375.500,274.500" stroke-width="11.320" stroke="rgb(33,33,33)" fill="none" stroke-linecap="round"></path><path d="M 375.500,274.500 C 375.500,273.000 375.500,273.000 375.500,271.500" stroke-width="11.564" stroke="rgb(33,33,33)" fill="none" stroke-linecap="round"></path><path d="M 375.500,271.500 C 375.500,270.500 375.500,270.500 375.500,269.500" stroke-width="12.391" stroke="rgb(33,33,33)" fill="none" stroke-linecap="round"></path><path d="M 375.500,269.500 C 375.500,269.000 375.500,268.333 375.500,268.500" stroke-width="13.003" stroke="rgb(33,33,33)" fill="none" stroke-linecap="round"></path><path d="M 375.500,268.500 C 375.500,268.833 375.663,269.520 375.500,270.500" stroke-width="13.945" stroke="rgb(33,33,33)" fill="none" stroke-linecap="round"></path><path d="M 375.500,270.500 C 375.163,272.520 374.904,272.480 374.500,274.500" stroke-width="13.825" stroke="rgb(33,33,33)" fill="none" stroke-linecap="round"></path><path d="M 374.500,274.500 C 373.904,277.480 374.137,277.528 373.500,280.500" stroke-width="13.288" stroke="rgb(33,33,33)" fill="none" stroke-linecap="round"></path><path d="M 373.500,280.500 C 372.637,284.528 372.562,284.517 371.500,288.500" stroke-width="12.459" stroke="rgb(33,33,33)" fill="none" stroke-linecap="round"></path><path d="M 371.500,288.500 C 370.562,292.017 370.382,291.970 369.500,295.500" stroke-width="12.038" stroke="rgb(33,33,33)" fill="none" stroke-linecap="round"></path><path d="M 369.500,295.500 C 368.382,299.970 368.556,300.013 367.500,304.500" stroke-width="11.400" stroke="rgb(33,33,33)" fill="none" stroke-linecap="round"></path><path d="M 367.500,304.500 C 366.556,308.513 366.258,308.455 365.500,312.500" stroke-width="11.083" stroke="rgb(33,33,33)" fill="none" stroke-linecap="round"></path><path d="M 365.500,312.500 C 364.758,316.455 365.000,316.500 364.500,320.500" stroke-width="10.868" stroke="rgb(33,33,33)" fill="none" stroke-linecap="round"></path><path d="M 364.500,320.500 C 364.000,324.500 363.945,324.494 363.500,328.500" stroke-width="10.702" stroke="rgb(33,33,33)" fill="none" stroke-linecap="round"></path><path d="M 363.500,328.500 C 362.945,333.494 362.751,333.488 362.500,338.500" stroke-width="10.305" stroke="rgb(33,33,33)" fill="none" stroke-linecap="round"></path><path d="M 362.500,338.500 C 362.251,343.488 362.749,343.512 362.500,348.500" stroke-width="10.154" stroke="rgb(33,33,33)" fill="none" stroke-linecap="round"></path><path d="M 362.500,348.500 C 362.249,353.512 362.026,353.503 361.500,358.500" stroke-width="9.724" stroke="rgb(33,33,33)" fill="none" stroke-linecap="round"></path><path d="M 361.500,358.500 C 361.026,363.003 360.765,362.987 360.500,367.500" stroke-width="9.892" stroke="rgb(33,33,33)" fill="none" stroke-linecap="round"></path><path d="M 360.500,367.500 C 360.265,371.487 360.500,371.500 360.500,375.500" stroke-width="9.623" stroke="rgb(33,33,33)" fill="none" stroke-linecap="round"></path><path d="M 360.500,375.500 C 360.500,380.500 360.500,380.500 360.500,385.500" stroke-width="9.805" stroke="rgb(33,33,33)" fill="none" stroke-linecap="round"></path><path d="M 360.500,385.500 C 360.500,389.500 360.500,389.500 360.500,393.500" stroke-width="9.322" stroke="rgb(33,33,33)" fill="none" stroke-linecap="round"></path><path d="M 360.500,393.500 C 360.500,397.500 359.976,397.573 360.500,401.500" stroke-width="9.720" stroke="rgb(33,33,33)" fill="none" stroke-linecap="round"></path><path d="M 360.500,401.500 C 360.976,405.073 361.739,404.949 362.500,408.500" stroke-width="9.385" stroke="rgb(33,33,33)" fill="none" stroke-linecap="round"></path><path d="M 362.500,408.500 C 363.239,411.949 362.919,412.014 363.500,415.500" stroke-width="9.855" stroke="rgb(33,33,33)" fill="none" stroke-linecap="round"></path><path d="M 363.500,415.500 C 363.919,418.014 364.185,417.982 364.500,420.500" stroke-width="9.889" stroke="rgb(33,33,33)" fill="none" stroke-linecap="round"></path><path d="M 364.500,420.500 C 364.685,421.982 364.289,422.026 364.500,423.500" stroke-width="10.698" stroke="rgb(33,33,33)" fill="none" stroke-linecap="round"></path><path d="M 364.500,423.500 C 364.789,425.526 364.934,425.519 365.500,427.500" stroke-width="10.776" stroke="rgb(33,33,33)" fill="none" stroke-linecap="round"></path><path d="M 365.500,427.500 C 365.934,429.019 366.194,428.969 366.500,430.500" stroke-width="11.417" stroke="rgb(33,33,33)" fill="none" stroke-linecap="round"></path><path d="M 366.500,430.500 C 366.694,431.469 366.167,431.833 366.500,432.500" stroke-width="12.082" stroke="rgb(33,33,33)" fill="none" stroke-linecap="round"></path><path d="M 366.500,432.500 C 366.667,432.833 367.250,432.250 367.500,432.500" stroke-width="12.989" stroke="rgb(33,33,33)" fill="none" stroke-linecap="round"></path><path d="M 367.500,432.500 C 367.750,432.750 367.293,433.086 367.500,433.500" stroke-width="13.755" stroke="rgb(33,33,33)" fill="none" stroke-linecap="round"></path><path d="M 367.500,433.500 C 367.793,434.086 367.914,434.207 368.500,434.500" stroke-width="14.641" stroke="rgb(33,33,33)" fill="none" stroke-linecap="round"></path><path d="M 368.500,434.500 C 368.914,434.707 369.000,434.500 369.500,434.500" stroke-width="15.240" stroke="rgb(33,33,33)" fill="none" stroke-linecap="round"></path><path d="M 369.500,434.500 C 370.000,434.500 370.000,434.500 370.500,434.500" stroke-width="15.877" stroke="rgb(33,33,33)" fill="none" stroke-linecap="round"></path><path d="M 370.500,434.500 C 371.000,434.500 371.036,434.345 371.500,434.500" stroke-width="16.214" stroke="rgb(33,33,33)" fill="none" stroke-linecap="round"></path><path d="M 371.500,434.500 C 372.536,434.845 372.464,435.155 373.500,435.500" stroke-width="16.215" stroke="rgb(33,33,33)" fill="none" stroke-linecap="round"></path><path d="M 373.500,435.500 C 373.964,435.655 374.000,435.500 374.500,435.500" stroke-width="16.495" stroke="rgb(33,33,33)" fill="none" stroke-linecap="round"></path><path d="M 374.500,435.500 C 376.000,435.500 376.000,435.500 377.500,435.500" stroke-width="16.303" stroke="rgb(33,33,33)" fill="none" stroke-linecap="round"></path><path d="M 377.500,435.500 C 379.000,435.500 379.040,435.257 380.500,435.500" stroke-width="15.653" stroke="rgb(33,33,33)" fill="none" stroke-linecap="round"></path><path d="M 380.500,435.500 C 382.040,435.757 382.036,435.914 383.500,436.500" stroke-width="15.668" stroke="rgb(33,33,33)" fill="none" stroke-linecap="round"></path><path d="M 383.500,436.500 C 384.536,436.914 384.464,437.155 385.500,437.500" stroke-width="15.301" stroke="rgb(33,33,33)" fill="none" stroke-linecap="round"></path><path d="M 385.500,437.500 C 385.964,437.655 386.086,437.293 386.500,437.500" stroke-width="15.859" stroke="rgb(33,33,33)" fill="none" stroke-linecap="round"></path><path d="M 386.500,437.500 C 387.086,437.793 386.879,438.293 387.500,438.500" stroke-width="15.844" stroke="rgb(33,33,33)" fill="none" stroke-linecap="round"></path><path d="M 387.500,438.500 C 388.379,438.793 388.500,438.500 389.500,438.500" stroke-width="16.125" stroke="rgb(33,33,33)" fill="none" stroke-linecap="round"></path><path d="M 389.500,438.500 C 390.000,438.500 390.036,438.655 390.500,438.500" stroke-width="16.598" stroke="rgb(33,33,33)" fill="none" stroke-linecap="round"></path><path d="M 390.500,438.500 C 391.536,438.155 391.972,438.292 392.500,437.500" stroke-width="16.819" stroke="rgb(33,33,33)" fill="none" stroke-linecap="round"></path><path d="M 392.500,437.500 C 392.972,436.792 392.143,436.392 392.500,435.500" stroke-width="16.594" stroke="rgb(33,33,33)" fill="none" stroke-linecap="round"></path><path d="M 392.500,435.500 C 393.143,433.892 393.379,433.901 394.500,432.500" stroke-width="15.990" stroke="rgb(33,33,33)" fill="none" stroke-linecap="round"></path><path d="M 394.500,432.500 C 395.379,431.401 395.792,431.680 396.500,430.500" stroke-width="15.870" stroke="rgb(33,33,33)" fill="none" stroke-linecap="round"></path><path d="M 396.500,430.500 C 397.292,429.180 397.000,429.000 397.500,427.500" stroke-width="15.445" stroke="rgb(33,33,33)" fill="none" stroke-linecap="round"></path><path d="M 397.500,427.500 C 398.000,426.000 398.000,426.000 398.500,424.500" stroke-width="15.351" stroke="rgb(33,33,33)" fill="none" stroke-linecap="round"></path><path d="M 398.500,424.500 C 399.000,423.000 399.194,423.031 399.500,421.500" stroke-width="15.048" stroke="rgb(33,33,33)" fill="none" stroke-linecap="round"></path><path d="M 399.500,421.500 C 399.694,420.531 399.207,420.379 399.500,419.500" stroke-width="15.265" stroke="rgb(33,33,33)" fill="none" stroke-linecap="round"></path><path d="M 399.500,419.500 C 399.707,418.879 400.293,419.121 400.500,418.500" stroke-width="15.618" stroke="rgb(33,33,33)" fill="none" stroke-linecap="round"></path><path d="M 400.500,418.500 C 400.793,417.621 400.500,417.500 400.500,416.500" stroke-width="15.799" stroke="rgb(33,33,33)" fill="none" stroke-linecap="round"></path><path d="M 400.500,416.500 C 400.500,416.000 400.500,416.000 400.500,415.500" stroke-width="16.359" stroke="rgb(33,33,33)" fill="none" stroke-linecap="round"></path><path d="M 400.500,415.500 C 400.500,415.000 400.500,415.000 400.500,414.500" stroke-width="16.940" stroke="rgb(33,33,33)" fill="none" stroke-linecap="round"></path><path d="M 400.500,414.500 C 400.500,414.000 400.500,414.000 400.500,413.500" stroke-width="17.392" stroke="rgb(33,33,33)" fill="none" stroke-linecap="round"></path><path d="M 400.500,413.500 C 400.500,413.000 400.500,413.000 400.500,412.500" stroke-width="17.701" stroke="rgb(33,33,33)" fill="none" stroke-linecap="round"></path><path d="M 400.500,412.500 C 400.500,412.000 400.750,411.750 400.500,411.500" stroke-width="17.944" stroke="rgb(33,33,33)" fill="none" stroke-linecap="round"></path><path d="M 400.500,411.500 C 400.250,411.250 400.000,411.500 399.500,411.500" stroke-width="18.310" stroke="rgb(33,33,33)" fill="none" stroke-linecap="round"></path><path d="M 399.500,411.500 C 399.000,411.500 398.914,411.293 398.500,411.500" stroke-width="18.531" stroke="rgb(33,33,33)" fill="none" stroke-linecap="round"></path><path d="M 398.500,411.500 C 397.914,411.793 398.000,412.000 397.500,412.500" stroke-width="18.526" stroke="rgb(33,33,33)" fill="none" stroke-linecap="round"></path><path d="M 397.500,412.500 C 397.000,413.000 396.707,412.879 396.500,413.500" stroke-width="18.575" stroke="rgb(33,33,33)" fill="none" stroke-linecap="round"></path><path d="M 396.500,413.500 C 396.207,414.379 396.500,414.500 396.500,415.500" stroke-width="18.482" stroke="rgb(33,33,33)" fill="none" stroke-linecap="round"></path><path d="M 396.500,415.500 C 396.500,416.000 396.655,416.036 396.500,416.500" stroke-width="18.137" stroke="rgb(33,33,33)" fill="none" stroke-linecap="round"></path><path d="M 396.500,416.500 C 396.155,417.536 395.764,417.444 395.500,418.500" stroke-width="17.859" stroke="rgb(33,33,33)" fill="none" stroke-linecap="round"></path><path d="M 395.500,418.500 C 395.264,419.444 395.694,419.531 395.500,420.500" stroke-width="17.058" stroke="rgb(33,33,33)" fill="none" stroke-linecap="round"></path><path d="M 395.500,420.500 C 395.194,422.031 394.757,421.960 394.500,423.500" stroke-width="16.775" stroke="rgb(33,33,33)" fill="none" stroke-linecap="round"></path><path d="M 394.500,423.500 C 394.257,424.960 394.500,425.000 394.500,426.500" stroke-width="15.750" stroke="rgb(33,33,33)" fill="none" stroke-linecap="round"></path><path d="M 394.500,426.500 C 394.500,427.500 394.500,427.500 394.500,428.500" stroke-width="16.047" stroke="rgb(33,33,33)" fill="none" stroke-linecap="round"></path><path d="M 394.500,428.500 C 394.500,429.500 394.500,429.500 394.500,430.500" stroke-width="15.463" stroke="rgb(33,33,33)" fill="none" stroke-linecap="round"></path><path d="M 394.500,430.500 C 394.500,431.500 394.500,431.500 394.500,432.500" stroke-width="15.672" stroke="rgb(33,33,33)" fill="none" stroke-linecap="round"></path><path d="M 394.500,432.500 C 394.500,433.000 394.655,433.036 394.500,433.500" stroke-width="16.043" stroke="rgb(33,33,33)" fill="none" stroke-linecap="round"></path><path d="M 394.500,433.500 C 394.155,434.536 393.764,434.444 393.500,435.500" stroke-width="16.078" stroke="rgb(33,33,33)" fill="none" stroke-linecap="round"></path><path d="M 393.500,435.500 C 393.264,436.444 393.500,436.500 393.500,437.500" stroke-width="16.102" stroke="rgb(33,33,33)" fill="none" stroke-linecap="round"></path><path d="M 393.500,437.500 C 393.500,438.000 393.500,438.000 393.500,438.500" stroke-width="16.402" stroke="rgb(33,33,33)" fill="none" stroke-linecap="round"></path><path d="M 393.500,438.500 C 393.500,439.000 393.500,439.000 393.500,439.500" stroke-width="16.698" stroke="rgb(33,33,33)" fill="none" stroke-linecap="round"></path><path d="M 393.500,439.500 C 393.500,440.000 393.500,440.000 393.500,440.500" stroke-width="16.943" stroke="rgb(33,33,33)" fill="none" stroke-linecap="round"></path><path d="M 393.500,440.500 C 393.500,441.000 393.750,441.250 393.500,441.500" stroke-width="17.328" stroke="rgb(33,33,33)" fill="none" stroke-linecap="round"></path><path d="M 393.500,441.500 C 393.250,441.750 392.750,441.250 392.500,441.500" stroke-width="17.765" stroke="rgb(33,33,33)" fill="none" stroke-linecap="round"></path><path d="M 392.500,441.500 C 392.250,441.750 392.250,442.250 392.500,442.500" stroke-width="18.009" stroke="rgb(33,33,33)" fill="none" stroke-linecap="round"></path><path d="M 392.500,442.500 C 392.750,442.750 393.086,442.707 393.500,442.500" stroke-width="18.007" stroke="rgb(33,33,33)" fill="none" stroke-linecap="round"></path><path d="M 393.500,442.500 C 394.086,442.207 393.919,441.887 394.500,441.500" stroke-width="18.124" stroke="rgb(33,33,33)" fill="none" stroke-linecap="round"></path><path d="M 394.500,441.500 C 395.419,440.887 395.500,441.000 396.500,440.500" stroke-width="17.785" stroke="rgb(33,33,33)" fill="none" stroke-linecap="round"></path><path d="M 396.500,440.500 C 397.500,440.000 397.659,440.221 398.500,439.500" stroke-width="17.083" stroke="rgb(33,33,33)" fill="none" stroke-linecap="round"></path><path d="M 398.500,439.500 C 401.159,437.221 401.000,437.000 403.500,434.500" stroke-width="16.981" stroke="rgb(33,33,33)" fill="none" stroke-linecap="round"></path><path d="M 403.500,434.500 C 406.500,431.500 406.500,431.500 409.500,428.500" stroke-width="10.112" stroke="rgb(33,33,33)" fill="none" stroke-linecap="round"></path><path d="M 409.500,428.500 C 411.000,427.000 410.878,426.851 412.500,425.500" stroke-width="10.529" stroke="rgb(33,33,33)" fill="none" stroke-linecap="round"></path><path d="M 412.500,425.500 C 413.878,424.351 414.535,424.786 415.500,423.500" stroke-width="10.996" stroke="rgb(33,33,33)" fill="none" stroke-linecap="round"></path><path d="M 415.500,423.500 C 416.035,422.786 415.086,422.328 415.500,421.500" stroke-width="11.751" stroke="rgb(33,33,33)" fill="none" stroke-linecap="round"></path><path d="M 415.500,421.500 C 416.086,420.328 416.500,420.500 417.500,419.500" stroke-width="12.336" stroke="rgb(33,33,33)" fill="none" stroke-linecap="round"></path><path d="M 417.500,419.500 C 418.000,419.000 418.293,419.121 418.500,418.500" stroke-width="13.034" stroke="rgb(33,33,33)" fill="none" stroke-linecap="round"></path><path d="M 418.500,418.500 C 418.793,417.621 418.207,417.379 418.500,416.500" stroke-width="13.564" stroke="rgb(33,33,33)" fill="none" stroke-linecap="round"></path><path d="M 418.500,416.500 C 418.707,415.879 419.293,416.121 419.500,415.500" stroke-width="14.164" stroke="rgb(33,33,33)" fill="none" stroke-linecap="round"></path><path d="M 419.500,415.500 C 419.793,414.621 419.500,414.500 419.500,413.500" stroke-width="14.529" stroke="rgb(33,33,33)" fill="none" stroke-linecap="round"></path><path d="M 419.500,413.500 C 419.500,413.000 419.500,413.000 419.500,412.500" stroke-width="15.112" stroke="rgb(33,33,33)" fill="none" stroke-linecap="round"></path><path d="M 419.500,412.500 C 419.500,411.500 419.500,411.500 419.500,410.500" stroke-width="15.383" stroke="rgb(33,33,33)" fill="none" stroke-linecap="round"></path><path d="M 419.500,410.500 C 419.500,410.000 419.500,410.000 419.500,409.500" stroke-width="15.799" stroke="rgb(33,33,33)" fill="none" stroke-linecap="round"></path><path d="M 419.500,409.500 C 419.500,409.000 419.345,408.964 419.500,408.500" stroke-width="16.231" stroke="rgb(33,33,33)" fill="none" stroke-linecap="round"></path><path d="M 419.500,408.500 C 419.845,407.464 420.286,407.568 420.500,406.500" stroke-width="16.046" stroke="rgb(33,33,33)" fill="none" stroke-linecap="round"></path><path d="M 420.500,406.500 C 420.786,405.068 420.500,405.000 420.500,403.500" stroke-width="15.867" stroke="rgb(33,33,33)" fill="none" stroke-linecap="round"></path><path d="M 420.500,403.500 C 420.500,403.000 420.500,403.000 420.500,402.500" stroke-width="16.206" stroke="rgb(33,33,33)" fill="none" stroke-linecap="round"></path><path d="M 420.500,402.500 C 420.500,401.500 420.500,401.500 420.500,400.500" stroke-width="16.277" stroke="rgb(33,33,33)" fill="none" stroke-linecap="round"></path><path d="M 420.500,400.500 C 420.500,399.500 420.500,399.500 420.500,398.500" stroke-width="16.169" stroke="rgb(33,33,33)" fill="none" stroke-linecap="round"></path><path d="M 420.500,398.500 C 420.500,398.000 420.500,398.000 420.500,397.500" stroke-width="16.572" stroke="rgb(33,33,33)" fill="none" stroke-linecap="round"></path><path d="M 420.500,397.500 C 420.500,397.000 420.500,397.000 420.500,396.500" stroke-width="16.723" stroke="rgb(33,33,33)" fill="none" stroke-linecap="round"></path><path d="M 420.500,396.500 C 420.500,396.000 420.250,395.750 420.500,395.500" stroke-width="17.061" stroke="rgb(33,33,33)" fill="none" stroke-linecap="round"></path><path d="M 420.500,395.500 C 420.750,395.250 421.250,395.250 421.500,395.500" stroke-width="17.534" stroke="rgb(33,33,33)" fill="none" stroke-linecap="round"></path><path d="M 421.500,395.500 C 421.750,395.750 421.500,396.000 421.500,396.500" stroke-width="17.917" stroke="rgb(33,33,33)" fill="none" stroke-linecap="round"></path><path d="M 421.500,396.500 C 421.500,397.000 421.293,397.086 421.500,397.500" stroke-width="18.135" stroke="rgb(33,33,33)" fill="none" stroke-linecap="round"></path><path d="M 421.500,397.500 C 421.793,398.086 422.293,397.879 422.500,398.500" stroke-width="17.941" stroke="rgb(33,33,33)" fill="none" stroke-linecap="round"></path><path d="M 422.500,398.500 C 422.793,399.379 422.500,399.500 422.500,400.500" stroke-width="17.649" stroke="rgb(33,33,33)" fill="none" stroke-linecap="round"></path><path d="M 422.500,400.500 C 422.500,401.000 422.500,401.000 422.500,401.500" stroke-width="17.663" stroke="rgb(33,33,33)" fill="none" stroke-linecap="round"></path><path d="M 422.500,401.500 C 422.500,402.000 422.500,402.000 422.500,402.500" stroke-width="17.772" stroke="rgb(33,33,33)" fill="none" stroke-linecap="round"></path><path d="M 422.500,402.500 C 422.500,403.500 422.500,403.500 422.500,404.500" stroke-width="17.327" stroke="rgb(33,33,33)" fill="none" stroke-linecap="round"></path><path d="M 422.500,404.500 C 422.500,405.000 422.345,405.036 422.500,405.500" stroke-width="17.500" stroke="rgb(33,33,33)" fill="none" stroke-linecap="round"></path><path d="M 422.500,405.500 C 422.845,406.536 423.155,406.464 423.500,407.500" stroke-width="17.022" stroke="rgb(33,33,33)" fill="none" stroke-linecap="round"></path><path d="M 423.500,407.500 C 423.655,407.964 423.293,408.086 423.500,408.500" stroke-width="17.250" stroke="rgb(33,33,33)" fill="none" stroke-linecap="round"></path><path d="M 423.500,408.500 C 423.793,409.086 424.113,408.919 424.500,409.500" stroke-width="17.168" stroke="rgb(33,33,33)" fill="none" stroke-linecap="round"></path><path d="M 424.500,409.500 C 425.113,410.419 425.000,410.500 425.500,411.500" stroke-width="17.040" stroke="rgb(33,33,33)" fill="none" stroke-linecap="round"></path><path d="M 425.500,411.500 C 426.000,412.500 425.750,412.750 426.500,413.500" stroke-width="16.528" stroke="rgb(33,33,33)" fill="none" stroke-linecap="round"></path><path d="M 426.500,413.500 C 427.250,414.250 427.750,413.750 428.500,414.500" stroke-width="16.587" stroke="rgb(33,33,33)" fill="none" stroke-linecap="round"></path><path d="M 428.500,414.500 C 429.250,415.250 428.708,415.972 429.500,416.500" stroke-width="15.994" stroke="rgb(33,33,33)" fill="none" stroke-linecap="round"></path><path d="M 429.500,416.500 C 430.208,416.972 430.500,416.500 431.500,416.500" stroke-width="16.210" stroke="rgb(33,33,33)" fill="none" stroke-linecap="round"></path><path d="M 431.500,416.500 C 432.500,416.500 432.500,416.500 433.500,416.500" stroke-width="15.828" stroke="rgb(33,33,33)" fill="none" stroke-linecap="round"></path><path d="M 433.500,416.500 C 434.000,416.500 434.000,416.500 434.500,416.500" stroke-width="16.308" stroke="rgb(33,33,33)" fill="none" stroke-linecap="round"></path><path d="M 434.500,416.500 C 435.500,416.500 435.500,416.500 436.500,416.500" stroke-width="15.903" stroke="rgb(33,33,33)" fill="none" stroke-linecap="round"></path><path d="M 436.500,416.500 C 437.000,416.500 437.108,416.761 437.500,416.500" stroke-width="16.392" stroke="rgb(33,33,33)" fill="none" stroke-linecap="round"></path><path d="M 437.500,416.500 C 438.608,415.761 438.621,415.599 439.500,414.500" stroke-width="15.229" stroke="rgb(33,33,33)" fill="none" stroke-linecap="round"></path><path d="M 439.500,414.500 C 440.621,413.099 440.774,413.134 441.500,411.500" stroke-width="15.296" stroke="rgb(33,33,33)" fill="none" stroke-linecap="round"></path><path d="M 441.500,411.500 C 442.774,408.634 442.500,408.500 443.500,405.500" stroke-width="13.392" stroke="rgb(33,33,33)" fill="none" stroke-linecap="round"></path><path d="M 443.500,405.500 C 444.500,402.500 444.670,402.545 445.500,399.500" stroke-width="13.182" stroke="rgb(33,33,33)" fill="none" stroke-linecap="round"></path><path d="M 445.500,399.500 C 446.170,397.045 446.000,397.000 446.500,394.500" stroke-width="12.665" stroke="rgb(33,33,33)" fill="none" stroke-linecap="round"></path><path d="M 446.500,394.500 C 447.000,392.000 446.883,391.969 447.500,389.500" stroke-width="12.717" stroke="rgb(33,33,33)" fill="none" stroke-linecap="round"></path><path d="M 447.500,389.500 C 447.883,387.969 448.000,388.000 448.500,386.500" stroke-width="12.945" stroke="rgb(33,33,33)" fill="none" stroke-linecap="round"></path><path d="M 448.500,386.500 C 449.000,385.000 449.120,385.019 449.500,383.500" stroke-width="13.134" stroke="rgb(33,33,33)" fill="none" stroke-linecap="round"></path><path d="M 449.500,383.500 C 449.620,383.019 449.345,382.964 449.500,382.500" stroke-width="13.885" stroke="rgb(33,33,33)" fill="none" stroke-linecap="round"></path><path d="M 449.500,382.500 C 449.845,381.464 450.155,381.536 450.500,380.500" stroke-width="14.234" stroke="rgb(33,33,33)" fill="none" stroke-linecap="round"></path><path d="M 450.500,380.500 C 450.655,380.036 450.250,379.750 450.500,379.500" stroke-width="14.984" stroke="rgb(33,33,33)" fill="none" stroke-linecap="round"></path><path d="M 450.500,379.500 C 450.750,379.250 451.000,379.500 451.500,379.500" stroke-width="15.732" stroke="rgb(33,33,33)" fill="none" stroke-linecap="round"></path><path d="M 451.500,379.500 C 452.000,379.500 452.086,379.293 452.500,379.500" stroke-width="16.360" stroke="rgb(33,33,33)" fill="none" stroke-linecap="round"></path><path d="M 452.500,379.500 C 453.086,379.793 453.207,379.914 453.500,380.500" stroke-width="16.455" stroke="rgb(33,33,33)" fill="none" stroke-linecap="round"></path><path d="M 453.500,380.500 C 453.707,380.914 453.283,381.066 453.500,381.500" stroke-width="16.742" stroke="rgb(33,33,33)" fill="none" stroke-linecap="round"></path><path d="M 453.500,381.500 C 454.283,383.066 454.574,382.957 455.500,384.500" stroke-width="16.100" stroke="rgb(33,33,33)" fill="none" stroke-linecap="round"></path><path d="M 455.500,384.500 C 456.074,385.457 456.000,385.500 456.500,386.500" stroke-width="16.188" stroke="rgb(33,33,33)" fill="none" stroke-linecap="round"></path><path d="M 456.500,386.500 C 457.000,387.500 457.000,387.500 457.500,388.500" stroke-width="15.879" stroke="rgb(33,33,33)" fill="none" stroke-linecap="round"></path><path d="M 457.500,388.500 C 458.000,389.500 457.810,389.637 458.500,390.500" stroke-width="16.060" stroke="rgb(33,33,33)" fill="none" stroke-linecap="round"></path><path d="M 458.500,390.500 C 459.810,392.137 460.000,392.000 461.500,393.500" stroke-width="14.691" stroke="rgb(33,33,33)" fill="none" stroke-linecap="round"></path><path d="M 461.500,393.500 C 462.000,394.000 462.000,394.000 462.500,394.500" stroke-width="15.268" stroke="rgb(33,33,33)" fill="none" stroke-linecap="round"></path><path d="M 462.500,394.500 C 463.500,395.500 463.621,395.401 464.500,396.500" stroke-width="14.736" stroke="rgb(33,33,33)" fill="none" stroke-linecap="round"></path><path d="M 464.500,396.500 C 465.621,397.901 465.266,398.266 466.500,399.500" stroke-width="14.680" stroke="rgb(33,33,33)" fill="none" stroke-linecap="round"></path><path d="M 466.500,399.500 C 467.266,400.266 467.750,399.750 468.500,400.500" stroke-width="14.694" stroke="rgb(33,33,33)" fill="none" stroke-linecap="round"></path><path d="M 468.500,400.500 C 469.250,401.250 468.887,401.581 469.500,402.500" stroke-width="14.907" stroke="rgb(33,33,33)" fill="none" stroke-linecap="round"></path><path d="M 469.500,402.500 C 469.887,403.081 469.937,403.077 470.500,403.500" stroke-width="15.317" stroke="rgb(33,33,33)" fill="none" stroke-linecap="round"></path><path d="M 470.500,403.500 C 471.937,404.577 472.535,404.214 473.500,405.500" stroke-width="15.025" stroke="rgb(33,33,33)" fill="none" stroke-linecap="round"></path><path d="M 473.500,405.500 C 474.035,406.214 473.167,406.833 473.500,407.500" stroke-width="15.246" stroke="rgb(33,33,33)" fill="none" stroke-linecap="round"></path><path d="M 473.500,407.500 C 473.667,407.833 474.250,407.250 474.500,407.500" stroke-width="15.727" stroke="rgb(33,33,33)" fill="none" stroke-linecap="round"></path><path d="M 474.500,407.500 C 474.750,407.750 474.500,408.000 474.500,408.500" stroke-width="16.135" stroke="rgb(33,33,33)" fill="none" stroke-linecap="round"></path><path d="M 474.500,408.500 C 474.500,409.000 474.380,409.019 474.500,409.500" stroke-width="16.476" stroke="rgb(33,33,33)" fill="none" stroke-linecap="round"></path><path d="M 474.500,409.500 C 474.880,411.019 475.279,410.955 475.500,412.500" stroke-width="16.042" stroke="rgb(33,33,33)" fill="none" stroke-linecap="round"></path><path d="M 475.500,412.500 C 475.779,414.455 475.500,414.500 475.500,416.500" stroke-width="15.460" stroke="rgb(33,33,33)" fill="none" stroke-linecap="round"></path><path d="M 475.500,416.500 C 475.500,420.000 475.500,420.000 475.500,423.500" stroke-width="14.429" stroke="rgb(33,33,33)" fill="none" stroke-linecap="round"></path><path d="M 475.500,423.500 C 475.500,426.000 475.500,426.000 475.500,428.500" stroke-width="13.817" stroke="rgb(33,33,33)" fill="none" stroke-linecap="round"></path><path d="M 475.500,428.500 C 475.500,433.500 475.811,433.526 475.500,438.500" stroke-width="12.698" stroke="rgb(33,33,33)" fill="none" stroke-linecap="round"></path><path d="M 475.500,438.500 C 475.311,441.526 474.877,441.484 474.500,444.500" stroke-width="12.276" stroke="rgb(33,33,33)" fill="none" stroke-linecap="round"></path></svg>