<svg xmlns="http://www.w3.org/2000/svg" xmlns:xlink="http://www.w3.org/1999/xlink" viewBox="0 0 360 500"><path d="M 219.000,134.000 C 212.500,135.500 212.470,135.383 206.000,137.000" stroke-width="19.162" stroke="rgb(33,33,33)" fill="none" stroke-linecap="round"></path><path d="M 206.000,137.000 C 202.470,137.883 202.573,138.524 199.000,139.000" stroke-width="17.193" stroke="rgb(33,33,33)" fill="none" stroke-linecap="round"></path><path d="M 199.000,139.000 C 195.073,139.524 194.868,138.275 191.000,139.000" stroke-width="15.341" stroke="rgb(33,33,33)" fill="none" stroke-linecap="round"></path><path d="M 191.000,139.000 C 186.868,139.775 187.011,140.529 183.000,142.000" stroke-width="14.348" stroke="rgb(33,33,33)" fill="none" stroke-linecap="round"></path><path d="M 183.000,142.000 C 157.011,151.529 156.894,151.237 131.000,161.000" stroke-width="13.097" stroke="rgb(33,33,33)" fill="none" stroke-linecap="round"></path><path d="M 131.000,161.000 C 126.394,162.737 126.400,162.800 122.000,165.000" stroke-width="12.230" stroke="rgb(33,33,33)" fill="none" stroke-linecap="round"></path><path d="M 122.000,165.000 C 117.400,167.300 117.643,167.801 113.000,170.000" stroke-width="11.363" stroke="rgb(33,33,33)" fill="none" stroke-linecap="round"></path><path d="M 113.000,170.000 C 108.143,172.301 107.937,171.854 103.000,174.000" stroke-width="9.847" stroke="rgb(33,33,33)" fill="none" stroke-linecap="round"></path><path d="M 103.000,174.000 C 96.437,176.854 96.458,176.912 90.000,180.000" stroke-width="10.281" stroke="rgb(33,33,33)" fill="none" stroke-linecap="round"></path><path d="M 90.000,180.000 C 84.958,182.412 84.882,182.337 80.000,185.000" stroke-width="10.913" stroke="rgb(33,33,33)" fill="none" stroke-linecap="round"></path><path d="M 80.000,185.000 C 79.382,185.337 79.390,185.414 79.000,186.000" stroke-width="11.537" stroke="rgb(33,33,33)" fill="none" stroke-linecap="round"></path><path d="M 79.000,186.000 C 77.390,188.414 76.309,188.528 76.000,191.000" stroke-width="12.334" stroke="rgb(33,33,33)" fill="none" stroke-linecap="round"></path><path d="M 76.000,191.000 C 75.809,192.528 76.420,193.323 78.000,194.000" stroke-width="13.084" stroke="rgb(33,33,33)" fill="none" stroke-linecap="round"></path><path d="M 78.000,194.000 C 83.420,196.323 83.922,196.132 90.000,197.000" stroke-width="13.100" stroke="rgb(33,33,33)" fill="none" stroke-linecap="round"></path><path d="M 90.000,197.000 C 94.422,197.632 94.503,196.855 99.000,197.000" stroke-width="9.943" stroke="rgb(33,33,33)" fill="none" stroke-linecap="round"></path><path d="M 99.000,197.000 C 110.003,197.355 110.056,198.332 121.000,198.000" stroke-width="10.021" stroke="rgb(33,33,33)" fill="none" stroke-linecap="round"></path><path d="M 121.000,198.000 C 126.556,197.832 126.448,196.600 132.000,196.000" stroke-width="8.524" stroke="rgb(33,33,33)" fill="none" stroke-linecap="round"></path><path d="M 132.000,196.000 C 144.948,194.600 145.011,195.113 158.000,194.000" stroke-width="8.800" stroke="rgb(33,33,33)" fill="none" stroke-linecap="round"></path><path d="M 158.000,194.000 C 162.511,193.613 162.490,193.398 167.000,193.000" stroke-width="7.657" stroke="rgb(33,33,33)" fill="none" stroke-linecap="round"></path><path d="M 167.000,193.000 C 179.490,191.898 179.543,192.347 192.000,191.000" stroke-width="8.021" stroke="rgb(33,33,33)" fill="none" stroke-linecap="round"></path><path d="M 192.000,191.000 C 198.043,190.347 197.963,189.710 204.000,189.000" stroke-width="6.750" stroke="rgb(33,33,33)" fill="none" stroke-linecap="round"></path><path d="M 204.000,189.000 C 214.963,187.710 215.000,188.000 226.000,187.000" stroke-width="7.210" stroke="rgb(33,33,33)" fill="none" stroke-linecap="round"></path><path d="M 226.000,187.000 C 231.500,186.500 231.493,186.408 237.000,186.000" stroke-width="7.010" stroke="rgb(33,33,33)" fill="none" stroke-linecap="round"></path><path d="M 237.000,186.000 C 244.993,185.408 244.995,185.348 253.000,185.000" stroke-width="7.657" stroke="rgb(33,33,33)" fill="none" stroke-linecap="round"></path><path d="M 253.000,185.000 C 256.495,184.848 256.500,185.000 260.000,185.000" stroke-width="7.597" stroke="rgb(33,33,33)" fill="none" stroke-linecap="round"></path><path d="M 260.000,185.000 C 263.000,185.000 263.009,185.187 266.000,185.000" stroke-width="8.157" stroke="rgb(33,33,33)" fill="none" stroke-linecap="round"></path><path d="M 266.000,185.000 C 271.009,184.687 271.016,184.623 276.000,184.000" stroke-width="8.875" stroke="rgb(33,33,33)" fill="none" stroke-linecap="round"></path><path d="M 276.000,184.000 C 279.016,183.623 279.160,183.811 282.000,183.000" stroke-width="9.720" stroke="rgb(33,33,33)" fill="none" stroke-linecap="round"></path><path d="M 282.000,183.000 C 282.660,182.811 282.379,182.207 283.000,182.000" stroke-width="10.618" stroke="rgb(33,33,33)" fill="none" stroke-linecap="round"></path><path d="M 283.000,182.000 C 283.879,181.707 284.121,182.293 285.000,182.000" stroke-width="11.612" stroke="rgb(33,33,33)" fill="none" stroke-linecap="round"></path><path d="M 116.000,106.000 C 117.500,112.500 117.455,112.511 119.000,119.000" stroke-width="19.627" stroke="rgb(33,33,33)" fill="none" stroke-linecap="round"></path><path d="M 119.000,119.000 C 119.955,123.011 120.577,122.915 121.000,127.000" stroke-width="18.128" stroke="rgb(33,33,33)" fill="none" stroke-linecap="round"></path><path d="M 121.000,127.000 C 122.077,137.415 121.682,137.496 122.000,148.000" stroke-width="10.467" stroke="rgb(33,33,33)" fill="none" stroke-linecap="round"></path><path d="M 122.000,148.000 C 122.182,153.996 122.000,154.000 122.000,160.000" stroke-width="9.090" stroke="rgb(33,33,33)" fill="none" stroke-linecap="round"></path><path d="M 122.000,160.000 C 122.000,166.000 122.245,166.007 122.000,172.000" stroke-width="9.005" stroke="rgb(33,33,33)" fill="none" stroke-linecap="round"></path><path d="M 122.000,172.000 C 121.245,190.507 120.925,190.496 120.000,209.000" stroke-width="8.982" stroke="rgb(33,33,33)" fill="none" stroke-linecap="round"></path><path d="M 120.000,209.000 C 119.425,220.496 119.359,220.497 119.000,232.000" stroke-width="9.286" stroke="rgb(33,33,33)" fill="none" stroke-linecap="round"></path><path d="M 119.000,232.000 C 118.859,236.497 119.000,236.500 119.000,241.000" stroke-width="10.068" stroke="rgb(33,33,33)" fill="none" stroke-linecap="round"></path><path d="M 119.000,241.000 C 119.000,242.500 119.000,242.500 119.000,244.000" stroke-width="10.337" stroke="rgb(33,33,33)" fill="none" stroke-linecap="round"></path><path d="M 119.000,244.000 C 119.000,245.500 119.000,245.500 119.000,247.000" stroke-width="11.305" stroke="rgb(33,33,33)" fill="none" stroke-linecap="round"></path><path d="M 119.000,247.000 C 119.000,247.000 119.000,247.000 119.000,247.000" stroke-width="12.401" stroke="rgb(33,33,33)" fill="none" stroke-linecap="round"></path><path d="M 119.000,247.000 C 118.500,247.000 118.500,247.000 118.000,247.000" stroke-width="13.350" stroke="rgb(33,33,33)" fill="none" stroke-linecap="round"></path><path d="M 118.000,247.000 C 118.000,247.000 118.000,247.000 118.000,247.000" stroke-width="14.326" stroke="rgb(33,33,33)" fill="none" stroke-linecap="round"></path><path d="M 118.000,247.000 C 117.500,246.500 117.452,246.543 117.000,246.000" stroke-width="14.900" stroke="rgb(33,33,33)" fill="none" stroke-linecap="round"></path><path d="M 117.000,246.000 C 114.952,243.543 114.766,243.650 113.000,241.000" stroke-width="15.172" stroke="rgb(33,33,33)" fill="none" stroke-linecap="round"></path><path d="M 113.000,241.000 C 111.766,239.150 112.183,238.894 111.000,237.000" stroke-width="13.578" stroke="rgb(33,33,33)" fill="none" stroke-linecap="round"></path><path d="M 111.000,237.000 C 107.183,230.894 106.703,231.172 103.000,225.000" stroke-width="13.286" stroke="rgb(33,33,33)" fill="none" stroke-linecap="round"></path><path d="M 103.000,225.000 C 100.703,221.172 101.380,220.769 99.000,217.000" stroke-width="10.849" stroke="rgb(33,33,33)" fill="none" stroke-linecap="round"></path><path d="M 99.000,217.000 C 95.380,211.269 94.763,211.644 91.000,206.000" stroke-width="11.237" stroke="rgb(33,33,33)" fill="none" stroke-linecap="round"></path><path d="M 91.000,206.000 C 89.763,204.144 90.085,203.953 89.000,202.000" stroke-width="10.439" stroke="rgb(33,33,33)" fill="none" stroke-linecap="round"></path><path d="M 89.000,202.000 C 87.585,199.453 87.280,199.561 86.000,197.000" stroke-width="11.234" stroke="rgb(33,33,33)" fill="none" stroke-linecap="round"></path><path d="M 86.000,197.000 C 85.780,196.561 86.120,196.481 86.000,196.000" stroke-width="12.121" stroke="rgb(33,33,33)" fill="none" stroke-linecap="round"></path><path d="M 86.000,196.000 C 85.620,194.481 85.000,194.382 85.000,193.000" stroke-width="12.937" stroke="rgb(33,33,33)" fill="none" stroke-linecap="round"></path><path d="M 85.000,193.000 C 85.000,192.382 85.347,192.131 86.000,192.000" stroke-width="13.816" stroke="rgb(33,33,33)" fill="none" stroke-linecap="round"></path><path d="M 86.000,192.000 C 87.847,191.631 88.005,191.875 90.000,192.000" stroke-width="12.877" stroke="rgb(33,33,33)" fill="none" stroke-linecap="round"></path><path d="M 90.000,192.000 C 96.005,192.375 96.065,192.110 102.000,193.000" stroke-width="12.958" stroke="rgb(33,33,33)" fill="none" stroke-linecap="round"></path><path d="M 102.000,193.000 C 106.065,193.610 106.043,193.846 110.000,195.000" stroke-width="10.125" stroke="rgb(33,33,33)" fill="none" stroke-linecap="round"></path><path d="M 110.000,195.000 C 118.043,197.346 117.929,197.799 126.000,200.000" stroke-width="10.470" stroke="rgb(33,33,33)" fill="none" stroke-linecap="round"></path><path d="M 126.000,200.000 C 128.929,200.799 129.005,200.471 132.000,201.000" stroke-width="9.871" stroke="rgb(33,33,33)" fill="none" stroke-linecap="round"></path><path d="M 132.000,201.000 C 137.505,201.971 137.509,201.954 143.000,203.000" stroke-width="10.447" stroke="rgb(33,33,33)" fill="none" stroke-linecap="round"></path><path d="M 143.000,203.000 C 148.009,203.954 147.984,204.164 153.000,205.000" stroke-width="11.009" stroke="rgb(33,33,33)" fill="none" stroke-linecap="round"></path><path d="M 153.000,205.000 C 153.984,205.164 154.000,205.000 155.000,205.000" stroke-width="11.990" stroke="rgb(33,33,33)" fill="none" stroke-linecap="round"></path><path d="M 155.000,205.000 C 155.500,205.000 155.500,205.000 156.000,205.000" stroke-width="12.648" stroke="rgb(33,33,33)" fill="none" stroke-linecap="round"></path><path d="M 156.000,205.000 C 156.000,205.000 156.000,205.000 156.000,205.000" stroke-width="13.674" stroke="rgb(33,33,33)" fill="none" stroke-linecap="round"></path><path d="M 156.000,205.000 C 156.000,204.000 156.236,203.944 156.000,203.000" stroke-width="14.426" stroke="rgb(33,33,33)" fill="none" stroke-linecap="round"></path><path d="M 156.000,203.000 C 155.736,201.944 155.352,202.055 155.000,201.000" stroke-width="14.601" stroke="rgb(33,33,33)" fill="none" stroke-linecap="round"></path><path d="M 155.000,201.000 C 154.352,199.055 154.500,199.000 154.000,197.000" stroke-width="14.548" stroke="rgb(33,33,33)" fill="none" stroke-linecap="round"></path><path d="M 154.000,197.000 C 153.500,195.000 153.566,194.982 153.000,193.000" stroke-width="14.411" stroke="rgb(33,33,33)" fill="none" stroke-linecap="round"></path><path d="M 153.000,193.000 C 151.566,187.982 150.802,188.135 150.000,183.000" stroke-width="14.225" stroke="rgb(33,33,33)" fill="none" stroke-linecap="round"></path><path d="M 150.000,183.000 C 148.302,172.135 148.262,172.015 148.000,161.000" stroke-width="13.421" stroke="rgb(33,33,33)" fill="none" stroke-linecap="round"></path><path d="M 148.000,161.000 C 147.762,151.015 147.938,150.916 149.000,141.000" stroke-width="12.674" stroke="rgb(33,33,33)" fill="none" stroke-linecap="round"></path><path d="M 149.000,141.000 C 149.438,136.916 149.580,136.854 151.000,133.000" stroke-width="12.022" stroke="rgb(33,33,33)" fill="none" stroke-linecap="round"></path><path d="M 151.000,133.000 C 153.080,127.354 153.428,127.466 156.000,122.000" stroke-width="12.286" stroke="rgb(33,33,33)" fill="none" stroke-linecap="round"></path><path d="M 156.000,122.000 C 157.428,118.966 157.500,119.000 159.000,116.000" stroke-width="11.624" stroke="rgb(33,33,33)" fill="none" stroke-linecap="round"></path><path d="M 159.000,116.000 C 161.500,111.000 161.500,111.000 164.000,106.000" stroke-width="11.976" stroke="rgb(33,33,33)" fill="none" stroke-linecap="round"></path><path d="M 164.000,106.000 C 164.500,105.000 164.292,104.850 165.000,104.000" stroke-width="11.899" stroke="rgb(33,33,33)" fill="none" stroke-linecap="round"></path><path d="M 165.000,104.000 C 166.792,101.850 166.850,101.792 169.000,100.000" stroke-width="12.603" stroke="rgb(33,33,33)" fill="none" stroke-linecap="round"></path><path d="M 169.000,100.000 C 169.850,99.292 170.000,99.500 171.000,99.000" stroke-width="12.679" stroke="rgb(33,33,33)" fill="none" stroke-linecap="round"></path><path d="M 171.000,99.000 C 173.000,98.000 172.897,97.234 175.000,97.000" stroke-width="13.301" stroke="rgb(33,33,33)" fill="none" stroke-linecap="round"></path><path d="M 175.000,97.000 C 177.397,96.734 177.651,97.217 180.000,98.000" stroke-width="13.865" stroke="rgb(33,33,33)" fill="none" stroke-linecap="round"></path><path d="M 180.000,98.000 C 180.651,98.217 180.540,98.463 181.000,99.000" stroke-width="14.071" stroke="rgb(33,33,33)" fill="none" stroke-linecap="round"></path><path d="M 181.000,99.000 C 183.540,101.963 184.037,101.728 186.000,105.000" stroke-width="14.269" stroke="rgb(33,33,33)" fill="none" stroke-linecap="round"></path><path d="M 186.000,105.000 C 187.037,106.728 186.864,106.955 187.000,109.000" stroke-width="12.576" stroke="rgb(33,33,33)" fill="none" stroke-linecap="round"></path><path d="M 187.000,109.000 C 187.364,114.455 188.069,114.653 187.000,120.000" stroke-width="12.786" stroke="rgb(33,33,33)" fill="none" stroke-linecap="round"></path><path d="M 187.000,120.000 C 184.569,132.153 183.393,131.970 180.000,144.000" stroke-width="12.022" stroke="rgb(33,33,33)" fill="none" stroke-linecap="round"></path><path d="M 180.000,144.000 C 177.893,151.470 178.444,151.668 176.000,159.000" stroke-width="12.035" stroke="rgb(33,33,33)" fill="none" stroke-linecap="round"></path><path d="M 176.000,159.000 C 174.944,162.168 174.418,161.961 173.000,165.000" stroke-width="11.443" stroke="rgb(33,33,33)" fill="none" stroke-linecap="round"></path><path d="M 173.000,165.000 C 170.918,169.461 171.198,169.603 169.000,174.000" stroke-width="11.972" stroke="rgb(33,33,33)" fill="none" stroke-linecap="round"></path><path d="M 169.000,174.000 C 167.698,176.603 167.229,176.366 166.000,179.000" stroke-width="11.336" stroke="rgb(33,33,33)" fill="none" stroke-linecap="round"></path><path d="M 166.000,179.000 C 163.729,183.866 164.706,184.748 162.000,189.000" stroke-width="11.694" stroke="rgb(33,33,33)" fill="none" stroke-linecap="round"></path><path d="M 162.000,189.000 C 161.206,190.248 160.519,189.620 159.000,190.000" stroke-width="12.700" stroke="rgb(33,33,33)" fill="none" stroke-linecap="round"></path><path d="M 159.000,190.000 C 158.519,190.120 158.500,190.000 158.000,190.000" stroke-width="13.539" stroke="rgb(33,33,33)" fill="none" stroke-linecap="round"></path><path d="M 158.000,190.000 C 157.500,190.000 157.250,190.250 157.000,190.000" stroke-width="14.273" stroke="rgb(33,33,33)" fill="none" stroke-linecap="round"></path><path d="M 157.000,190.000 C 156.750,189.750 157.000,189.500 157.000,189.000" stroke-width="15.082" stroke="rgb(33,33,33)" fill="none" stroke-linecap="round"></path><path d="M 157.000,189.000 C 157.000,188.500 157.000,188.500 157.000,188.000" stroke-width="15.775" stroke="rgb(33,33,33)" fill="none" stroke-linecap="round"></path><path d="M 157.000,188.000 C 157.000,188.000 157.000,188.000 157.000,188.000" stroke-width="16.505" stroke="rgb(33,33,33)" fill="none" stroke-linecap="round"></path><path d="M 157.000,188.000 C 157.500,188.000 157.500,188.000 158.000,188.000" stroke-width="16.223" stroke="rgb(33,33,33)" fill="none" stroke-linecap="round"></path><path d="M 158.000,188.000 C 158.500,188.000 158.750,187.750 159.000,188.000" stroke-width="16.748" stroke="rgb(33,33,33)" fill="none" stroke-linecap="round"></path><path d="M 159.000,188.000 C 159.250,188.250 158.739,188.608 159.000,189.000" stroke-width="17.056" stroke="rgb(33,33,33)" fill="none" stroke-linecap="round"></path><path d="M 159.000,189.000 C 159.739,190.108 160.311,189.795 161.000,191.000" stroke-width="16.591" stroke="rgb(33,33,33)" fill="none" stroke-linecap="round"></path><path d="M 161.000,191.000 C 162.311,193.295 161.940,193.527 163.000,196.000" stroke-width="16.581" stroke="rgb(33,33,33)" fill="none" stroke-linecap="round"></path><path d="M 163.000,196.000 C 163.440,197.027 163.426,197.043 164.000,198.000" stroke-width="15.270" stroke="rgb(33,33,33)" fill="none" stroke-linecap="round"></path><path d="M 164.000,198.000 C 164.926,199.543 164.851,199.622 166.000,201.000" stroke-width="15.634" stroke="rgb(33,33,33)" fill="none" stroke-linecap="round"></path><path d="M 166.000,201.000 C 167.351,202.622 167.257,202.838 169.000,204.000" stroke-width="15.863" stroke="rgb(33,33,33)" fill="none" stroke-linecap="round"></path><path d="M 169.000,204.000 C 171.757,205.838 171.853,206.476 175.000,207.000" stroke-width="15.855" stroke="rgb(33,33,33)" fill="none" stroke-linecap="round"></path><path d="M 175.000,207.000 C 177.853,207.476 178.000,206.500 181.000,206.000" stroke-width="15.824" stroke="rgb(33,33,33)" fill="none" stroke-linecap="round"></path><path d="M 181.000,206.000 C 184.000,205.500 184.175,205.942 187.000,205.000" stroke-width="15.832" stroke="rgb(33,33,33)" fill="none" stroke-linecap="round"></path><path d="M 187.000,205.000 C 188.675,204.442 188.649,204.182 190.000,203.000" stroke-width="15.074" stroke="rgb(33,33,33)" fill="none" stroke-linecap="round"></path><path d="M 190.000,203.000 C 192.649,200.682 193.154,200.953 195.000,198.000" stroke-width="15.089" stroke="rgb(33,33,33)" fill="none" stroke-linecap="round"></path><path d="M 195.000,198.000 C 198.154,192.953 197.703,192.580 200.000,187.000" stroke-width="14.687" stroke="rgb(33,33,33)" fill="none" stroke-linecap="round"></path><path d="M 200.000,187.000 C 201.203,184.080 201.092,184.027 202.000,181.000" stroke-width="14.884" stroke="rgb(33,33,33)" fill="none" stroke-linecap="round"></path><path d="M 202.000,181.000 C 202.592,179.027 202.255,178.862 203.000,177.000" stroke-width="15.325" stroke="rgb(33,33,33)" fill="none" stroke-linecap="round"></path><path d="M 203.000,177.000 C 203.255,176.362 203.707,176.586 204.000,176.000" stroke-width="14.985" stroke="rgb(33,33,33)" fill="none" stroke-linecap="round"></path><path d="M 204.000,176.000 C 204.207,175.586 204.000,175.500 204.000,175.000" stroke-width="15.705" stroke="rgb(33,33,33)" fill="none" stroke-linecap="round"></path><path d="M 204.000,175.000 C 204.000,174.500 204.000,174.000 204.000,174.000" stroke-width="15.598" stroke="rgb(33,33,33)" fill="none" stroke-linecap="round"></path><path d="M 204.000,174.000 C 204.000,174.000 204.000,174.500 204.000,175.000" stroke-width="16.262" stroke="rgb(33,33,33)" fill="none" stroke-linecap="round"></path><path d="M 204.000,175.000 C 204.000,175.500 204.000,175.500 204.000,176.000" stroke-width="16.470" stroke="rgb(33,33,33)" fill="none" stroke-linecap="round"></path><path d="M 204.000,176.000 C 204.000,177.500 204.149,177.511 204.000,179.000" stroke-width="16.283" stroke="rgb(33,33,33)" fill="none" stroke-linecap="round"></path><path d="M 204.000,179.000 C 203.649,182.511 203.390,182.487 203.000,186.000" stroke-width="16.547" stroke="rgb(33,33,33)" fill="none" stroke-linecap="round"></path><path d="M 203.000,186.000 C 202.390,191.487 202.423,191.497 202.000,197.000" stroke-width="12.494" stroke="rgb(33,33,33)" fill="none" stroke-linecap="round"></path><path d="M 202.000,197.000 C 201.923,197.997 202.000,198.000 202.000,199.000" stroke-width="12.423" stroke="rgb(33,33,33)" fill="none" stroke-linecap="round"></path><path d="M 202.000,199.000 C 202.000,200.500 202.000,200.500 202.000,202.000" stroke-width="13.253" stroke="rgb(33,33,33)" fill="none" stroke-linecap="round"></path><path d="M 202.000,202.000 C 202.000,202.000 202.000,202.000 202.000,202.000" stroke-width="14.237" stroke="rgb(33,33,33)" fill="none" stroke-linecap="round"></path><path d="M 202.000,202.000 C 202.000,202.500 201.793,203.000 202.000,203.000" stroke-width="15.017" stroke="rgb(33,33,33)" fill="none" stroke-linecap="round"></path><path d="M 202.000,203.000 C 202.293,203.000 202.707,202.586 203.000,202.000" stroke-width="15.644" stroke="rgb(33,33,33)" fill="none" stroke-linecap="round"></path><path d="M 203.000,202.000 C 203.207,201.586 202.880,201.481 203.000,201.000" stroke-width="16.151" stroke="rgb(33,33,33)" fill="none" stroke-linecap="round"></path><path d="M 203.000,201.000 C 203.380,199.481 203.339,199.433 204.000,198.000" stroke-width="15.795" stroke="rgb(33,33,33)" fill="none" stroke-linecap="round"></path><path d="M 204.000,198.000 C 206.339,192.933 206.765,193.110 209.000,188.000" stroke-width="15.511" stroke="rgb(33,33,33)" fill="none" stroke-linecap="round"></path><path d="M 209.000,188.000 C 210.265,185.110 209.892,184.955 211.000,182.000" stroke-width="15.584" stroke="rgb(33,33,33)" fill="none" stroke-linecap="round"></path><path d="M 211.000,182.000 C 211.392,180.955 211.500,181.000 212.000,180.000" stroke-width="15.237" stroke="rgb(33,33,33)" fill="none" stroke-linecap="round"></path><path d="M 212.000,180.000 C 212.500,179.000 212.500,179.000 213.000,178.000" stroke-width="15.777" stroke="rgb(33,33,33)" fill="none" stroke-linecap="round"></path><path d="M 213.000,178.000 C 213.500,177.000 213.655,176.345 214.000,176.000" stroke-width="16.237" stroke="rgb(33,33,33)" fill="none" stroke-linecap="round"></path><path d="M 214.000,176.000 C 214.155,175.845 214.000,176.500 214.000,177.000" stroke-width="16.817" stroke="rgb(33,33,33)" fill="none" stroke-linecap="round"></path><path d="M 214.000,177.000 C 214.000,177.500 214.000,177.500 214.000,178.000" stroke-width="17.113" stroke="rgb(33,33,33)" fill="none" stroke-linecap="round"></path><path d="M 214.000,178.000 C 214.000,179.000 214.141,179.014 214.000,180.000" stroke-width="16.822" stroke="rgb(33,33,33)" fill="none" stroke-linecap="round"></path><path d="M 214.000,180.000 C 213.641,182.514 213.359,182.486 213.000,185.000" stroke-width="16.821" stroke="rgb(33,33,33)" fill="none" stroke-linecap="round"></path><path d="M 213.000,185.000 C 212.859,185.986 213.000,186.000 213.000,187.000" stroke-width="15.620" stroke="rgb(33,33,33)" fill="none" stroke-linecap="round"></path><path d="M 213.000,187.000 C 213.000,189.000 212.721,189.045 213.000,191.000" stroke-width="15.880" stroke="rgb(33,33,33)" fill="none" stroke-linecap="round"></path><path d="M 213.000,191.000 C 213.221,192.545 213.240,192.860 214.000,194.000" stroke-width="16.196" stroke="rgb(33,33,33)" fill="none" stroke-linecap="round"></path><path d="M 214.000,194.000 C 214.240,194.360 214.586,193.793 215.000,194.000" stroke-width="16.479" stroke="rgb(33,33,33)" fill="none" stroke-linecap="round"></path><path d="M 215.000,194.000 C 215.586,194.293 215.399,195.120 216.000,195.000" stroke-width="16.915" stroke="rgb(33,33,33)" fill="none" stroke-linecap="round"></path><path d="M 216.000,195.000 C 217.899,194.620 218.355,194.439 220.000,193.000" stroke-width="16.870" stroke="rgb(33,33,33)" fill="none" stroke-linecap="round"></path><path d="M 220.000,193.000 C 222.355,190.939 222.147,190.594 224.000,188.000" stroke-width="16.619" stroke="rgb(33,33,33)" fill="none" stroke-linecap="round"></path><path d="M 224.000,188.000 C 224.647,187.094 224.500,187.000 225.000,186.000" stroke-width="15.739" stroke="rgb(33,33,33)" fill="none" stroke-linecap="round"></path><path d="M 225.000,186.000 C 226.500,183.000 226.500,183.000 228.000,180.000" stroke-width="15.659" stroke="rgb(33,33,33)" fill="none" stroke-linecap="round"></path><path d="M 228.000,180.000 C 229.000,178.000 229.000,178.000 230.000,176.000" stroke-width="15.856" stroke="rgb(33,33,33)" fill="none" stroke-linecap="round"></path><path d="M 230.000,176.000 C 230.500,175.000 230.387,174.919 231.000,174.000" stroke-width="15.186" stroke="rgb(33,33,33)" fill="none" stroke-linecap="round"></path><path d="M 231.000,174.000 C 231.387,173.419 231.707,173.586 232.000,173.000" stroke-width="15.817" stroke="rgb(33,33,33)" fill="none" stroke-linecap="round"></path><path d="M 232.000,173.000 C 232.207,172.586 232.000,172.000 232.000,172.000" stroke-width="16.400" stroke="rgb(33,33,33)" fill="none" stroke-linecap="round"></path><path d="M 232.000,172.000 C 232.000,172.000 232.000,172.500 232.000,173.000" stroke-width="16.913" stroke="rgb(33,33,33)" fill="none" stroke-linecap="round"></path><path d="M 232.000,173.000 C 232.000,173.500 232.098,173.512 232.000,174.000" stroke-width="16.537" stroke="rgb(33,33,33)" fill="none" stroke-linecap="round"></path><path d="M 232.000,174.000 C 231.598,176.012 231.226,175.966 231.000,178.000" stroke-width="16.587" stroke="rgb(33,33,33)" fill="none" stroke-linecap="round"></path><path d="M 231.000,178.000 C 230.726,180.466 231.000,180.500 231.000,183.000" stroke-width="16.508" stroke="rgb(33,33,33)" fill="none" stroke-linecap="round"></path><path d="M 231.000,183.000 C 231.000,184.500 231.000,184.500 231.000,186.000" stroke-width="16.786" stroke="rgb(33,33,33)" fill="none" stroke-linecap="round"></path><path d="M 231.000,186.000 C 231.000,186.500 230.845,186.536 231.000,187.000" stroke-width="16.440" stroke="rgb(33,33,33)" fill="none" stroke-linecap="round"></path><path d="M 231.000,187.000 C 231.345,188.036 231.309,188.309 232.000,189.000" stroke-width="16.795" stroke="rgb(33,33,33)" fill="none" stroke-linecap="round"></path><path d="M 232.000,189.000 C 232.309,189.309 232.586,189.207 233.000,189.000" stroke-width="17.247" stroke="rgb(33,33,33)" fill="none" stroke-linecap="round"></path><path d="M 233.000,189.000 C 233.586,188.707 233.500,188.500 234.000,188.000" stroke-width="16.416" stroke="rgb(33,33,33)" fill="none" stroke-linecap="round"></path><path d="M 234.000,188.000 C 236.000,186.000 236.000,186.000 238.000,184.000" stroke-width="16.353" stroke="rgb(33,33,33)" fill="none" stroke-linecap="round"></path><path d="M 238.000,184.000 C 239.000,183.000 239.134,183.113 240.000,182.000" stroke-width="15.760" stroke="rgb(33,33,33)" fill="none" stroke-linecap="round"></path><path d="M 240.000,182.000 C 242.634,178.613 242.697,178.619 245.000,175.000" stroke-width="15.359" stroke="rgb(33,33,33)" fill="none" stroke-linecap="round"></path><path d="M 245.000,175.000 C 246.197,173.119 245.775,172.838 247.000,171.000" stroke-width="15.583" stroke="rgb(33,33,33)" fill="none" stroke-linecap="round"></path><path d="M 247.000,171.000 C 247.775,169.838 248.261,170.108 249.000,169.000" stroke-width="16.031" stroke="rgb(33,33,33)" fill="none" stroke-linecap="round"></path><path d="M 249.000,169.000 C 249.261,168.608 249.000,168.500 249.000,168.000" stroke-width="15.855" stroke="rgb(33,33,33)" fill="none" stroke-linecap="round"></path><path d="M 249.000,168.000 C 249.000,169.000 249.000,169.000 249.000,170.000" stroke-width="17.069" stroke="rgb(33,33,33)" fill="none" stroke-linecap="round"></path><path d="M 249.000,170.000 C 249.000,171.000 249.236,171.056 249.000,172.000" stroke-width="16.888" stroke="rgb(33,33,33)" fill="none" stroke-linecap="round"></path><path d="M 249.000,172.000 C 248.736,173.056 248.264,172.944 248.000,174.000" stroke-width="16.750" stroke="rgb(33,33,33)" fill="none" stroke-linecap="round"></path><path d="M 248.000,174.000 C 247.764,174.944 248.163,175.020 248.000,176.000" stroke-width="16.775" stroke="rgb(33,33,33)" fill="none" stroke-linecap="round"></path><path d="M 248.000,176.000 C 247.663,178.020 247.402,177.988 247.000,180.000" stroke-width="16.893" stroke="rgb(33,33,33)" fill="none" stroke-linecap="round"></path><path d="M 247.000,180.000 C 246.902,180.488 246.793,180.586 247.000,181.000" stroke-width="16.522" stroke="rgb(33,33,33)" fill="none" stroke-linecap="round"></path><path d="M 247.000,181.000 C 247.293,181.586 247.414,181.707 248.000,182.000" stroke-width="16.960" stroke="rgb(33,33,33)" fill="none" stroke-linecap="round"></path><path d="M 248.000,182.000 C 248.414,182.207 248.500,182.000 249.000,182.000" stroke-width="17.399" stroke="rgb(33,33,33)" fill="none" stroke-linecap="round"></path><path d="M 249.000,182.000 C 249.500,182.000 249.536,182.155 250.000,182.000" stroke-width="16.906" stroke="rgb(33,33,33)" fill="none" stroke-linecap="round"></path><path d="M 250.000,182.000 C 251.036,181.655 251.234,181.766 252.000,181.000" stroke-width="17.168" stroke="rgb(33,33,33)" fill="none" stroke-linecap="round"></path><path d="M 252.000,181.000 C 253.234,179.766 252.923,179.437 254.000,178.000" stroke-width="17.191" stroke="rgb(33,33,33)" fill="none" stroke-linecap="round"></path><path d="M 254.000,178.000 C 254.423,177.437 254.577,177.563 255.000,177.000" stroke-width="17.024" stroke="rgb(33,33,33)" fill="none" stroke-linecap="round"></path><path d="M 255.000,177.000 C 256.077,175.563 255.879,175.401 257.000,174.000" stroke-width="17.023" stroke="rgb(33,33,33)" fill="none" stroke-linecap="round"></path><path d="M 257.000,174.000 C 257.879,172.901 258.000,173.000 259.000,172.000" stroke-width="17.216" stroke="rgb(33,33,33)" fill="none" stroke-linecap="round"></path><path d="M 259.000,172.000 C 259.000,172.500 259.000,172.500 259.000,173.000" stroke-width="17.917" stroke="rgb(33,33,33)" fill="none" stroke-linecap="round"></path><path d="M 259.000,173.000 C 259.000,173.000 259.000,173.000 259.000,173.000" stroke-width="18.339" stroke="rgb(33,33,33)" fill="none" stroke-linecap="round"></path><path d="M 259.000,173.000 C 259.000,173.500 259.000,173.500 259.000,174.000" stroke-width="18.409" stroke="rgb(33,33,33)" fill="none" stroke-linecap="round"></path><path d="M 259.000,174.000 C 259.000,174.500 259.000,174.500 259.000,175.000" stroke-width="18.080" stroke="rgb(33,33,33)" fill="none" stroke-linecap="round"></path><path d="M 259.000,175.000 C 259.000,175.500 259.000,175.500 259.000,176.000" stroke-width="18.300" stroke="rgb(33,33,33)" fill="none" stroke-linecap="round"></path><path d="M 259.000,176.000 C 259.000,176.000 259.000,176.000 259.000,176.000" stroke-width="18.660" stroke="rgb(33,33,33)" fill="none" stroke-linecap="round"></path><path d="M 259.000,176.000 C 259.000,176.500 258.750,176.750 259.000,177.000" stroke-width="18.797" stroke="rgb(33,33,33)" fill="none" stroke-linecap="round"></path><path d="M 259.000,177.000 C 259.250,177.250 259.500,177.000 260.000,177.000" stroke-width="18.799" stroke="rgb(33,33,33)" fill="none" stroke-linecap="round"></path><path d="M 260.000,177.000 C 260.000,177.000 260.000,177.000 260.000,177.000" stroke-width="19.072" stroke="rgb(33,33,33)" fill="none" stroke-linecap="round"></path><path d="M 260.000,177.000 C 260.500,177.000 260.500,177.000 261.000,177.000" stroke-width="18.936" stroke="rgb(33,33,33)" fill="none" stroke-linecap="round"></path><path d="M 261.000,177.000 C 262.000,177.000 262.121,177.293 263.000,177.000" stroke-width="18.845" stroke="rgb(33,33,33)" fill="none" stroke-linecap="round"></path><path d="M 263.000,177.000 C 263.621,176.793 263.500,176.500 264.000,176.000" stroke-width="18.408" stroke="rgb(33,33,33)" fill="none" stroke-linecap="round"></path><path d="M 264.000,176.000 C 265.000,175.000 265.000,175.000 266.000,174.000" stroke-width="18.405" stroke="rgb(33,33,33)" fill="none" stroke-linecap="round"></path><path d="M 266.000,174.000 C 266.500,173.500 266.613,173.581 267.000,173.000" stroke-width="17.242" stroke="rgb(33,33,33)" fill="none" stroke-linecap="round"></path><path d="M 267.000,173.000 C 267.613,172.081 267.500,172.000 268.000,171.000" stroke-width="17.444" stroke="rgb(33,33,33)" fill="none" stroke-linecap="round"></path><path d="M 268.000,171.000 C 268.500,170.000 268.500,170.000 269.000,169.000" stroke-width="17.649" stroke="rgb(33,33,33)" fill="none" stroke-linecap="round"></path><path d="M 269.000,169.000 C 269.000,169.500 269.000,169.500 269.000,170.000" stroke-width="18.486" stroke="rgb(33,33,33)" fill="none" stroke-linecap="round"></path><path d="M 269.000,170.000 C 269.000,171.000 269.000,171.000 269.000,172.000" stroke-width="17.978" stroke="rgb(33,33,33)" fill="none" stroke-linecap="round"></path><path d="M 269.000,172.000 C 269.000,172.500 269.000,172.500 269.000,173.000" stroke-width="18.063" stroke="rgb(33,33,33)" fill="none" stroke-linecap="round"></path><path d="M 269.000,173.000 C 269.000,174.000 269.000,174.000 269.000,175.000" stroke-width="17.993" stroke="rgb(33,33,33)" fill="none" stroke-linecap="round"></path><path d="M 269.000,175.000 C 269.000,176.500 268.642,176.569 269.000,178.000" stroke-width="17.073" stroke="rgb(33,33,33)" fill="none" stroke-linecap="round"></path><path d="M 269.000,178.000 C 269.642,180.569 269.361,181.088 271.000,183.000" stroke-width="17.092" stroke="rgb(33,33,33)" fill="none" stroke-linecap="round"></path><path d="M 271.000,183.000 C 272.361,184.588 272.950,184.121 275.000,185.000" stroke-width="17.088" stroke="rgb(33,33,33)" fill="none" stroke-linecap="round"></path><path d="M 287.000,101.000 C 288.000,107.000 287.377,107.320 289.000,113.000" stroke-width="19.485" stroke="rgb(33,33,33)" fill="none" stroke-linecap="round"></path><path d="M 289.000,113.000 C 289.377,114.320 290.000,114.000 291.000,115.000" stroke-width="18.613" stroke="rgb(33,33,33)" fill="none" stroke-linecap="round"></path><path d="M 291.000,115.000 C 292.000,116.000 291.883,116.162 293.000,117.000" stroke-width="18.121" stroke="rgb(33,33,33)" fill="none" stroke-linecap="round"></path><path d="M 293.000,117.000 C 293.883,117.662 294.000,117.500 295.000,118.000" stroke-width="17.489" stroke="rgb(33,33,33)" fill="none" stroke-linecap="round"></path><path d="M 295.000,118.000 C 299.000,120.000 298.893,120.289 303.000,122.000" stroke-width="17.045" stroke="rgb(33,33,33)" fill="none" stroke-linecap="round"></path><path d="M 303.000,122.000 C 304.893,122.789 304.966,122.774 307.000,123.000" stroke-width="15.724" stroke="rgb(33,33,33)" fill="none" stroke-linecap="round"></path><path d="M 307.000,123.000 C 309.466,123.274 309.515,123.207 312.000,123.000" stroke-width="13.680" stroke="rgb(33,33,33)" fill="none" stroke-linecap="round"></path><path d="M 312.000,123.000 C 315.515,122.707 315.545,122.691 319.000,122.000" stroke-width="14.032" stroke="rgb(33,33,33)" fill="none" stroke-linecap="round"></path><path d="M 319.000,122.000 C 320.545,121.691 320.644,121.775 322.000,121.000" stroke-width="12.937" stroke="rgb(33,33,33)" fill="none" stroke-linecap="round"></path><path d="M 322.000,121.000 C 324.144,119.775 324.084,119.597 326.000,118.000" stroke-width="13.584" stroke="rgb(33,33,33)" fill="none" stroke-linecap="round"></path><path d="M 326.000,118.000 C 327.084,117.097 327.323,117.219 328.000,116.000" stroke-width="13.201" stroke="rgb(33,33,33)" fill="none" stroke-linecap="round"></path><path d="M 328.000,116.000 C 329.823,112.719 329.869,112.619 331.000,109.000" stroke-width="13.470" stroke="rgb(33,33,33)" fill="none" stroke-linecap="round"></path><path d="M 331.000,109.000 C 332.369,104.619 331.964,104.491 333.000,100.000" stroke-width="13.687" stroke="rgb(33,33,33)" fill="none" stroke-linecap="round"></path><path d="M 333.000,100.000 C 333.464,97.991 333.796,98.036 334.000,96.000" stroke-width="12.738" stroke="rgb(33,33,33)" fill="none" stroke-linecap="round"></path><path d="M 334.000,96.000 C 334.296,93.036 334.364,92.914 334.000,90.000" stroke-width="13.244" stroke="rgb(33,33,33)" fill="none" stroke-linecap="round"></path><path d="M 334.000,90.000 C 333.864,88.914 333.414,89.036 333.000,88.000" stroke-width="13.192" stroke="rgb(33,33,33)" fill="none" stroke-linecap="round"></path><path d="M 333.000,88.000 C 332.414,86.536 332.306,86.531 332.000,85.000" stroke-width="13.913" stroke="rgb(33,33,33)" fill="none" stroke-linecap="round"></path><path d="M 332.000,85.000 C 331.806,84.031 332.472,83.236 332.000,83.000" stroke-width="14.663" stroke="rgb(33,33,33)" fill="none" stroke-linecap="round"></path><path d="M 332.000,83.000 C 331.472,82.736 330.883,83.338 330.000,84.000" stroke-width="15.309" stroke="rgb(33,33,33)" fill="none" stroke-linecap="round"></path><path d="M 330.000,84.000 C 328.883,84.838 328.761,84.816 328.000,86.000" stroke-width="13.997" stroke="rgb(33,33,33)" fill="none" stroke-linecap="round"></path><path d="M 328.000,86.000 C 324.261,91.816 323.898,91.720 321.000,98.000" stroke-width="13.593" stroke="rgb(33,33,33)" fill="none" stroke-linecap="round"></path><path d="M 321.000,98.000 C 317.898,104.720 318.183,104.904 316.000,112.000" stroke-width="13.206" stroke="rgb(33,33,33)" fill="none" stroke-linecap="round"></path><path d="M 316.000,112.000 C 314.183,117.904 314.457,117.990 313.000,124.000" stroke-width="11.376" stroke="rgb(33,33,33)" fill="none" stroke-linecap="round"></path><path d="M 313.000,124.000 C 310.457,134.490 310.238,134.447 308.000,145.000" stroke-width="11.177" stroke="rgb(33,33,33)" fill="none" stroke-linecap="round"></path><path d="M 308.000,145.000 C 306.738,150.947 307.156,151.029 306.000,157.000" stroke-width="8.969" stroke="rgb(33,33,33)" fill="none" stroke-linecap="round"></path><path d="M 306.000,157.000 C 304.156,166.529 303.594,166.439 302.000,176.000" stroke-width="9.394" stroke="rgb(33,33,33)" fill="none" stroke-linecap="round"></path><path d="M 302.000,176.000 C 301.094,181.439 302.039,181.596 301.000,187.000" stroke-width="7.611" stroke="rgb(33,33,33)" fill="none" stroke-linecap="round"></path><path d="M 301.000,187.000 C 299.539,194.596 299.132,194.539 297.000,202.000" stroke-width="8.256" stroke="rgb(33,33,33)" fill="none" stroke-linecap="round"></path><path d="M 297.000,202.000 C 296.132,205.039 296.409,205.183 295.000,208.000" stroke-width="7.837" stroke="rgb(33,33,33)" fill="none" stroke-linecap="round"></path><path d="M 295.000,208.000 C 291.409,215.183 291.716,215.600 287.000,222.000" stroke-width="8.469" stroke="rgb(33,33,33)" fill="none" stroke-linecap="round"></path><path d="M 287.000,222.000 C 284.716,225.100 284.239,224.841 281.000,227.000" stroke-width="9.272" stroke="rgb(33,33,33)" fill="none" stroke-linecap="round"></path><path d="M 281.000,227.000 C 275.239,230.841 275.275,231.176 269.000,234.000" stroke-width="9.838" stroke="rgb(33,33,33)" fill="none" stroke-linecap="round"></path><path d="M 269.000,234.000 C 265.275,235.676 265.000,235.000 261.000,236.000" stroke-width="10.573" stroke="rgb(33,33,33)" fill="none" stroke-linecap="round"></path><path d="M 261.000,236.000 C 259.000,236.500 259.012,237.000 257.000,237.000" stroke-width="10.447" stroke="rgb(33,33,33)" fill="none" stroke-linecap="round"></path><path d="M 257.000,237.000 C 254.512,237.000 254.514,236.359 252.000,236.000" stroke-width="11.313" stroke="rgb(33,33,33)" fill="none" stroke-linecap="round"></path><path d="M 252.000,236.000 C 251.014,235.859 250.828,236.414 250.000,236.000" stroke-width="11.692" stroke="rgb(33,33,33)" fill="none" stroke-linecap="round"></path><path d="M 250.000,236.000 C 248.828,235.414 248.476,235.270 248.000,234.000" stroke-width="12.558" stroke="rgb(33,33,33)" fill="none" stroke-linecap="round"></path><path d="M 248.000,234.000 C 246.976,231.270 246.735,230.917 247.000,228.000" stroke-width="13.104" stroke="rgb(33,33,33)" fill="none" stroke-linecap="round"></path><path d="M 247.000,228.000 C 247.235,225.417 247.696,225.347 249.000,223.000" stroke-width="11.873" stroke="rgb(33,33,33)" fill="none" stroke-linecap="round"></path><path d="M 249.000,223.000 C 252.696,216.347 252.843,216.396 257.000,210.000" stroke-width="11.890" stroke="rgb(33,33,33)" fill="none" stroke-linecap="round"></path><path d="M 257.000,210.000 C 259.343,206.396 258.984,206.016 262.000,203.000" stroke-width="10.162" stroke="rgb(33,33,33)" fill="none" stroke-linecap="round"></path><path d="M 262.000,203.000 C 266.984,198.016 267.485,198.481 273.000,194.000" stroke-width="10.639" stroke="rgb(33,33,33)" fill="none" stroke-linecap="round"></path><path d="M 273.000,194.000 C 275.485,191.981 275.288,191.669 278.000,190.000" stroke-width="9.420" stroke="rgb(33,33,33)" fill="none" stroke-linecap="round"></path><path d="M 278.000,190.000 C 281.788,187.669 281.937,187.847 286.000,186.000" stroke-width="10.138" stroke="rgb(33,33,33)" fill="none" stroke-linecap="round"></path><path d="M 286.000,186.000 C 287.437,185.347 287.469,185.383 289.000,185.000" stroke-width="10.352" stroke="rgb(33,33,33)" fill="none" stroke-linecap="round"></path><path d="M 289.000,185.000 C 291.469,184.383 291.492,184.418 294.000,184.000" stroke-width="11.204" stroke="rgb(33,33,33)" fill="none" stroke-linecap="round"></path><path d="M 294.000,184.000 C 294.492,183.918 294.566,183.783 295.000,184.000" stroke-width="11.824" stroke="rgb(33,33,33)" fill="none" stroke-linecap="round"></path><path d="M 295.000,184.000 C 296.566,184.783 296.739,184.739 298.000,186.000" stroke-width="12.634" stroke="rgb(33,33,33)" fill="none" stroke-linecap="round"></path><path d="M 298.000,186.000 C 300.239,188.239 299.919,188.572 302.000,191.000" stroke-width="13.187" stroke="rgb(33,33,33)" fill="none" stroke-linecap="round"></path><path d="M 302.000,191.000 C 302.919,192.072 303.081,191.928 304.000,193.000" stroke-width="12.523" stroke="rgb(33,33,33)" fill="none" stroke-linecap="round"></path><path d="M 304.000,193.000 C 306.081,195.428 305.754,195.754 308.000,198.000" stroke-width="13.000" stroke="rgb(33,33,33)" fill="none" stroke-linecap="round"></path><path d="M 308.000,198.000 C 309.754,199.754 309.808,199.904 312.000,201.000" stroke-width="13.653" stroke="rgb(33,33,33)" fill="none" stroke-linecap="round"></path><path d="M 312.000,201.000 C 313.808,201.904 314.206,202.690 316.000,202.000" stroke-width="14.220" stroke="rgb(33,33,33)" fill="none" stroke-linecap="round"></path></svg>