<svg xmlns="http://www.w3.org/2000/svg" xmlns:xlink="http://www.w3.org/1999/xlink" viewBox="0 0 320 500"><path d="M 158.000,160.000 C 159.000,162.500 158.887,162.551 160.000,165.000" stroke-width="19.939" stroke="rgb(33,33,33)" fill="none" stroke-linecap="round"></path><path d="M 160.000,165.000 C 161.387,168.051 161.109,168.250 163.000,171.000" stroke-width="18.554" stroke="rgb(33,33,33)" fill="none" stroke-linecap="round"></path><path d="M 163.000,171.000 C 166.609,176.250 167.403,175.724 171.000,181.000" stroke-width="17.226" stroke="rgb(33,33,33)" fill="none" stroke-linecap="round"></path><path d="M 171.000,181.000 C 174.903,186.724 174.995,186.758 178.000,193.000" stroke-width="13.973" stroke="rgb(33,33,33)" fill="none" stroke-linecap="round"></path><path d="M 178.000,193.000 C 181.495,200.258 181.449,200.347 184.000,208.000" stroke-width="13.554" stroke="rgb(33,33,33)" fill="none" stroke-linecap="round"></path><path d="M 184.000,208.000 C 187.449,218.347 187.065,218.482 190.000,229.000" stroke-width="10.768" stroke="rgb(33,33,33)" fill="none" stroke-linecap="round"></path><path d="M 190.000,229.000 C 193.065,239.982 193.349,239.916 196.000,251.000" stroke-width="10.414" stroke="rgb(33,33,33)" fill="none" stroke-linecap="round"></path><path d="M 196.000,251.000 C 198.849,262.916 198.742,262.955 201.000,275.000" stroke-width="9.495" stroke="rgb(33,33,33)" fill="none" stroke-linecap="round"></path><path d="M 201.000,275.000 C 203.242,286.955 203.130,286.980 205.000,299.000" stroke-width="9.236" stroke="rgb(33,33,33)" fill="none" stroke-linecap="round"></path><path d="M 205.000,299.000 C 206.630,309.480 206.830,309.466 208.000,320.000" stroke-width="9.190" stroke="rgb(33,33,33)" fill="none" stroke-linecap="round"></path><path d="M 208.000,320.000 C 208.830,327.466 208.711,327.493 209.000,335.000" stroke-width="9.361" stroke="rgb(33,33,33)" fill="none" stroke-linecap="round"></path><path d="M 209.000,335.000 C 209.211,340.493 208.696,340.522 209.000,346.000" stroke-width="9.830" stroke="rgb(33,33,33)" fill="none" stroke-linecap="round"></path><path d="M 209.000,346.000 C 209.196,349.522 209.240,349.581 210.000,353.000" stroke-width="10.458" stroke="rgb(33,33,33)" fill="none" stroke-linecap="round"></path><path d="M 210.000,353.000 C 210.240,354.081 210.655,354.655 211.000,355.000" stroke-width="11.406" stroke="rgb(33,33,33)" fill="none" stroke-linecap="round"></path><path d="M 211.000,355.000 C 211.155,355.155 211.259,354.421 211.000,354.000" stroke-width="12.407" stroke="rgb(33,33,33)" fill="none" stroke-linecap="round"></path><path d="M 211.000,354.000 C 207.259,347.921 207.055,347.963 203.000,342.000" stroke-width="12.011" stroke="rgb(33,33,33)" fill="none" stroke-linecap="round"></path><path d="M 203.000,342.000 C 198.555,335.463 198.500,335.500 194.000,329.000" stroke-width="11.673" stroke="rgb(33,33,33)" fill="none" stroke-linecap="round"></path><path d="M 194.000,329.000 C 189.500,322.500 189.614,322.419 185.000,316.000" stroke-width="11.416" stroke="rgb(33,33,33)" fill="none" stroke-linecap="round"></path><path d="M 185.000,316.000 C 178.114,306.419 178.258,306.299 171.000,297.000" stroke-width="10.676" stroke="rgb(33,33,33)" fill="none" stroke-linecap="round"></path><path d="M 171.000,297.000 C 162.258,285.799 162.287,285.753 153.000,275.000" stroke-width="9.869" stroke="rgb(33,33,33)" fill="none" stroke-linecap="round"></path><path d="M 153.000,275.000 C 143.287,263.753 143.501,263.501 133.000,253.000" stroke-width="9.150" stroke="rgb(33,33,33)" fill="none" stroke-linecap="round"></path><path d="M 133.000,253.000 C 121.001,241.001 120.955,240.962 108.000,230.000" stroke-width="8.544" stroke="rgb(33,33,33)" fill="none" stroke-linecap="round"></path><path d="M 108.000,230.000 C 94.955,218.962 94.834,219.036 81.000,209.000" stroke-width="8.024" stroke="rgb(33,33,33)" fill="none" stroke-linecap="round"></path><path d="M 81.000,209.000 C 69.334,200.536 69.000,201.000 57.000,193.000" stroke-width="7.915" stroke="rgb(33,33,33)" fill="none" stroke-linecap="round"></path><path d="M 57.000,193.000 C 48.000,187.000 48.366,186.352 39.000,181.000" stroke-width="8.142" stroke="rgb(33,33,33)" fill="none" stroke-linecap="round"></path><path d="M 39.000,181.000 C 30.866,176.352 30.050,177.696 22.000,173.000" stroke-width="8.352" stroke="rgb(33,33,33)" fill="none" stroke-linecap="round"></path><path d="M 22.000,173.000 C 18.050,170.696 18.444,170.061 15.000,167.000" stroke-width="9.008" stroke="rgb(33,33,33)" fill="none" stroke-linecap="round"></path><path d="M 15.000,167.000 C 13.944,166.061 12.000,165.333 13.000,165.000" stroke-width="9.992" stroke="rgb(33,33,33)" fill="none" stroke-linecap="round"></path><path d="M 13.000,165.000 C 18.000,163.333 19.963,163.655 27.000,163.000" stroke-width="9.932" stroke="rgb(33,33,33)" fill="none" stroke-linecap="round"></path><path d="M 27.000,163.000 C 41.463,161.655 41.480,161.415 56.000,161.000" stroke-width="9.401" stroke="rgb(33,33,33)" fill="none" stroke-linecap="round"></path><path d="M 56.000,161.000 C 76.480,160.415 76.503,160.750 97.000,161.000" stroke-width="8.198" stroke="rgb(33,33,33)" fill="none" stroke-linecap="round"></path><path d="M 97.000,161.000 C 117.503,161.250 117.711,159.689 138.000,162.000" stroke-width="7.617" stroke="rgb(33,33,33)" fill="none" stroke-linecap="round"></path><path d="M 138.000,162.000 C 157.211,164.189 157.270,165.025 176.000,170.000" stroke-width="7.275" stroke="rgb(33,33,33)" fill="none" stroke-linecap="round"></path><path d="M 176.000,170.000 C 189.270,173.525 188.981,174.555 202.000,179.000" stroke-width="7.410" stroke="rgb(33,33,33)" fill="none" stroke-linecap="round"></path><path d="M 202.000,179.000 C 209.481,181.555 209.370,182.022 217.000,184.000" stroke-width="7.798" stroke="rgb(33,33,33)" fill="none" stroke-linecap="round"></path><path d="M 217.000,184.000 C 222.870,185.522 222.969,185.246 229.000,186.000" stroke-width="8.335" stroke="rgb(33,33,33)" fill="none" stroke-linecap="round"></path><path d="M 229.000,186.000 C 234.969,186.746 234.992,186.700 241.000,187.000" stroke-width="8.861" stroke="rgb(33,33,33)" fill="none" stroke-linecap="round"></path><path d="M 241.000,187.000 C 244.992,187.200 245.000,187.000 249.000,187.000" stroke-width="9.515" stroke="rgb(33,33,33)" fill="none" stroke-linecap="round"></path><path d="M 249.000,187.000 C 251.500,187.000 251.765,187.639 254.000,187.000" stroke-width="10.341" stroke="rgb(33,33,33)" fill="none" stroke-linecap="round"></path><path d="M 254.000,187.000 C 255.265,186.639 255.000,186.000 256.000,185.000" stroke-width="11.251" stroke="rgb(33,33,33)" fill="none" stroke-linecap="round"></path><path d="M 256.000,185.000 C 256.500,184.500 257.220,184.551 257.000,184.000" stroke-width="12.217" stroke="rgb(33,33,33)" fill="none" stroke-linecap="round"></path><path d="M 257.000,184.000 C 256.220,182.051 256.284,180.731 254.000,180.000" stroke-width="12.777" stroke="rgb(33,33,33)" fill="none" stroke-linecap="round"></path><path d="M 254.000,180.000 C 243.784,176.731 243.064,177.581 232.000,176.000" stroke-width="11.589" stroke="rgb(33,33,33)" fill="none" stroke-linecap="round"></path><path d="M 232.000,176.000 C 211.564,173.081 211.585,172.095 191.000,171.000" stroke-width="9.845" stroke="rgb(33,33,33)" fill="none" stroke-linecap="round"></path><path d="M 191.000,171.000 C 164.585,169.595 164.491,170.509 138.000,171.000" stroke-width="8.074" stroke="rgb(33,33,33)" fill="none" stroke-linecap="round"></path><path d="M 138.000,171.000 C 110.491,171.509 110.322,170.295 83.000,173.000" stroke-width="6.996" stroke="rgb(33,33,33)" fill="none" stroke-linecap="round"></path><path d="M 83.000,173.000 C 59.822,175.295 59.743,175.913 37.000,181.000" stroke-width="6.750" stroke="rgb(33,33,33)" fill="none" stroke-linecap="round"></path><path d="M 37.000,181.000 C 21.743,184.413 21.407,184.397 7.000,190.000" stroke-width="6.750" stroke="rgb(33,33,33)" fill="none" stroke-linecap="round"></path><path d="M 7.000,190.000 C 3.407,191.397 3.388,192.214 1.000,195.000" stroke-width="7.417" stroke="rgb(33,33,33)" fill="none" stroke-linecap="round"></path><path d="M 1.000,195.000 C 0.388,195.714 0.806,197.194 1.000,197.000" stroke-width="8.406" stroke="rgb(33,33,33)" fill="none" stroke-linecap="round"></path><path d="M 1.000,197.000 C 1.306,196.694 0.519,194.224 2.000,194.000" stroke-width="9.434" stroke="rgb(33,33,33)" fill="none" stroke-linecap="round"></path><path d="M 2.000,194.000 C 17.019,191.724 17.985,192.658 34.000,192.000" stroke-width="8.826" stroke="rgb(33,33,33)" fill="none" stroke-linecap="round"></path><path d="M 34.000,192.000 C 54.485,191.158 54.497,191.230 75.000,191.000" stroke-width="8.042" stroke="rgb(33,33,33)" fill="none" stroke-linecap="round"></path><path d="M 75.000,191.000 C 98.997,190.730 99.170,188.993 123.000,191.000" stroke-width="7.195" stroke="rgb(33,33,33)" fill="none" stroke-linecap="round"></path><path d="M 123.000,191.000 C 146.670,192.993 146.830,193.631 170.000,199.000" stroke-width="6.792" stroke="rgb(33,33,33)" fill="none" stroke-linecap="round"></path><path d="M 170.000,199.000 C 187.830,203.131 187.570,204.290 205.000,210.000" stroke-width="6.750" stroke="rgb(33,33,33)" fill="none" stroke-linecap="round"></path><path d="M 205.000,210.000 C 216.570,213.790 216.730,213.438 228.000,218.000" stroke-width="6.874" stroke="rgb(33,33,33)" fill="none" stroke-linecap="round"></path><path d="M 228.000,218.000 C 237.730,221.938 237.602,222.301 247.000,227.000" stroke-width="7.222" stroke="rgb(33,33,33)" fill="none" stroke-linecap="round"></path><path d="M 247.000,227.000 C 251.602,229.301 251.556,229.408 256.000,232.000" stroke-width="7.874" stroke="rgb(33,33,33)" fill="none" stroke-linecap="round"></path><path d="M 256.000,232.000 C 257.556,232.908 257.826,232.826 259.000,234.000" stroke-width="8.805" stroke="rgb(33,33,33)" fill="none" stroke-linecap="round"></path><path d="M 259.000,234.000 C 259.326,234.326 259.470,235.000 259.000,235.000" stroke-width="9.873" stroke="rgb(33,33,33)" fill="none" stroke-linecap="round"></path><path d="M 259.000,235.000 C 251.470,235.000 250.972,234.797 243.000,234.000" stroke-width="9.920" stroke="rgb(33,33,33)" fill="none" stroke-linecap="round"></path><path d="M 243.000,234.000 C 230.972,232.797 231.054,231.790 219.000,231.000" stroke-width="9.563" stroke="rgb(33,33,33)" fill="none" stroke-linecap="round"></path><path d="M 219.000,231.000 C 200.554,229.790 200.503,230.243 182.000,230.000" stroke-width="8.593" stroke="rgb(33,33,33)" fill="none" stroke-linecap="round"></path><path d="M 182.000,230.000 C 162.503,229.743 162.453,229.027 143.000,230.000" stroke-width="7.871" stroke="rgb(33,33,33)" fill="none" stroke-linecap="round"></path><path d="M 143.000,230.000 C 122.453,231.027 122.318,230.804 102.000,234.000" stroke-width="7.383" stroke="rgb(33,33,33)" fill="none" stroke-linecap="round"></path></svg>