<svg xmlns="http://www.w3.org/2000/svg" xmlns:xlink="http://www.w3.org/1999/xlink" viewBox="0 0 320 500"><path d="M 33.000,138.000 C 32.000,139.000 31.485,138.787 31.000,140.000" stroke-width="20.159" stroke="rgb(33,33,33)" fill="none" stroke-linecap="round"></path><path d="M 31.000,140.000 C 30.485,141.287 31.000,141.500 31.000,143.000" stroke-width="19.492" stroke="rgb(33,33,33)" fill="none" stroke-linecap="round"></path><path d="M 31.000,143.000 C 31.000,144.000 30.806,144.031 31.000,145.000" stroke-width="19.265" stroke="rgb(33,33,33)" fill="none" stroke-linecap="round"></path><path d="M 31.000,145.000 C 31.306,146.531 31.566,146.481 32.000,148.000" stroke-width="18.907" stroke="rgb(33,33,33)" fill="none" stroke-linecap="round"></path><path d="M 32.000,148.000 C 32.566,149.981 32.280,150.081 33.000,152.000" stroke-width="17.892" stroke="rgb(33,33,33)" fill="none" stroke-linecap="round"></path><path d="M 33.000,152.000 C 33.780,154.081 34.220,153.919 35.000,156.000" stroke-width="17.437" stroke="rgb(33,33,33)" fill="none" stroke-linecap="round"></path><path d="M 35.000,156.000 C 35.720,157.919 35.350,158.049 36.000,160.000" stroke-width="17.046" stroke="rgb(33,33,33)" fill="none" stroke-linecap="round"></path><path d="M 36.000,160.000 C 36.850,162.549 37.230,162.432 38.000,165.000" stroke-width="16.630" stroke="rgb(33,33,33)" fill="none" stroke-linecap="round"></path><path d="M 38.000,165.000 C 38.730,167.432 38.270,167.568 39.000,170.000" stroke-width="16.408" stroke="rgb(33,33,33)" fill="none" stroke-linecap="round"></path><path d="M 39.000,170.000 C 39.770,172.568 40.000,172.500 41.000,175.000" stroke-width="16.140" stroke="rgb(33,33,33)" fill="none" stroke-linecap="round"></path><path d="M 41.000,175.000 C 42.000,177.500 42.150,177.449 43.000,180.000" stroke-width="15.982" stroke="rgb(33,33,33)" fill="none" stroke-linecap="round"></path><path d="M 43.000,180.000 C 44.150,183.449 44.000,183.500 45.000,187.000" stroke-width="15.585" stroke="rgb(33,33,33)" fill="none" stroke-linecap="round"></path><path d="M 45.000,187.000 C 46.000,190.500 45.930,190.522 47.000,194.000" stroke-width="15.282" stroke="rgb(33,33,33)" fill="none" stroke-linecap="round"></path><path d="M 47.000,194.000 C 47.930,197.022 48.235,196.942 49.000,200.000" stroke-width="15.175" stroke="rgb(33,33,33)" fill="none" stroke-linecap="round"></path><path d="M 49.000,200.000 C 49.735,202.942 49.500,203.000 50.000,206.000" stroke-width="15.071" stroke="rgb(33,33,33)" fill="none" stroke-linecap="round"></path><path d="M 50.000,206.000 C 50.500,209.000 50.363,209.028 51.000,212.000" stroke-width="15.084" stroke="rgb(33,33,33)" fill="none" stroke-linecap="round"></path><path d="M 51.000,212.000 C 51.863,216.028 51.868,216.038 53.000,220.000" stroke-width="14.705" stroke="rgb(33,33,33)" fill="none" stroke-linecap="round"></path><path d="M 53.000,220.000 C 53.868,223.038 54.235,222.942 55.000,226.000" stroke-width="14.666" stroke="rgb(33,33,33)" fill="none" stroke-linecap="round"></path><path d="M 55.000,226.000 C 55.735,228.942 55.363,229.028 56.000,232.000" stroke-width="14.715" stroke="rgb(33,33,33)" fill="none" stroke-linecap="round"></path><path d="M 56.000,232.000 C 56.863,236.028 56.868,236.038 58.000,240.000" stroke-width="14.486" stroke="rgb(33,33,33)" fill="none" stroke-linecap="round"></path><path d="M 58.000,240.000 C 58.868,243.038 59.070,242.978 60.000,246.000" stroke-width="14.491" stroke="rgb(33,33,33)" fill="none" stroke-linecap="round"></path><path d="M 60.000,246.000 C 61.070,249.478 60.930,249.522 62.000,253.000" stroke-width="14.428" stroke="rgb(33,33,33)" fill="none" stroke-linecap="round"></path><path d="M 62.000,253.000 C 62.930,256.022 63.070,255.978 64.000,259.000" stroke-width="14.493" stroke="rgb(33,33,33)" fill="none" stroke-linecap="round"></path><path d="M 64.000,259.000 C 65.070,262.478 64.850,262.551 66.000,266.000" stroke-width="14.374" stroke="rgb(33,33,33)" fill="none" stroke-linecap="round"></path><path d="M 66.000,266.000 C 66.850,268.551 67.080,268.471 68.000,271.000" stroke-width="14.564" stroke="rgb(33,33,33)" fill="none" stroke-linecap="round"></path><path d="M 68.000,271.000 C 69.080,273.971 68.828,274.071 70.000,277.000" stroke-width="14.603" stroke="rgb(33,33,33)" fill="none" stroke-linecap="round"></path><path d="M 70.000,277.000 C 70.828,279.071 71.000,279.000 72.000,281.000" stroke-width="14.868" stroke="rgb(33,33,33)" fill="none" stroke-linecap="round"></path><path d="M 72.000,281.000 C 73.000,283.000 73.121,282.950 74.000,285.000" stroke-width="15.050" stroke="rgb(33,33,33)" fill="none" stroke-linecap="round"></path><path d="M 74.000,285.000 C 74.621,286.450 74.309,286.618 75.000,288.000" stroke-width="15.416" stroke="rgb(33,33,33)" fill="none" stroke-linecap="round"></path><path d="M 75.000,288.000 C 75.309,288.618 75.500,288.500 76.000,289.000" stroke-width="15.976" stroke="rgb(33,33,33)" fill="none" stroke-linecap="round"></path><path d="M 76.000,289.000 C 76.500,289.500 77.220,290.331 77.000,290.000" stroke-width="16.455" stroke="rgb(33,33,33)" fill="none" stroke-linecap="round"></path><path d="M 77.000,290.000 C 76.220,288.831 75.754,287.754 74.000,286.000" stroke-width="16.880" stroke="rgb(33,33,33)" fill="none" stroke-linecap="round"></path><path d="M 74.000,286.000 C 71.754,283.754 71.459,284.049 69.000,282.000" stroke-width="16.396" stroke="rgb(33,33,33)" fill="none" stroke-linecap="round"></path><path d="M 69.000,282.000 C 65.459,279.049 65.762,278.605 62.000,276.000" stroke-width="15.537" stroke="rgb(33,33,33)" fill="none" stroke-linecap="round"></path><path d="M 62.000,276.000 C 59.262,274.105 59.044,274.405 56.000,273.000" stroke-width="15.323" stroke="rgb(33,33,33)" fill="none" stroke-linecap="round"></path><path d="M 56.000,273.000 C 52.544,271.405 52.601,271.200 49.000,270.000" stroke-width="15.035" stroke="rgb(33,33,33)" fill="none" stroke-linecap="round"></path><path d="M 49.000,270.000 C 45.101,268.700 44.932,269.210 41.000,268.000" stroke-width="14.668" stroke="rgb(33,33,33)" fill="none" stroke-linecap="round"></path><path d="M 41.000,268.000 C 38.432,267.210 38.583,266.704 36.000,266.000" stroke-width="14.805" stroke="rgb(33,33,33)" fill="none" stroke-linecap="round"></path><path d="M 36.000,266.000 C 33.083,265.204 32.961,265.658 30.000,265.000" stroke-width="14.909" stroke="rgb(33,33,33)" fill="none" stroke-linecap="round"></path><path d="M 30.000,265.000 C 28.461,264.658 28.540,264.257 27.000,264.000" stroke-width="15.240" stroke="rgb(33,33,33)" fill="none" stroke-linecap="round"></path><path d="M 27.000,264.000 C 25.540,263.757 25.125,264.375 24.000,264.000" stroke-width="15.571" stroke="rgb(33,33,33)" fill="none" stroke-linecap="round"></path><path d="M 24.000,264.000 C 23.625,263.875 24.000,263.500 24.000,263.000" stroke-width="16.246" stroke="rgb(33,33,33)" fill="none" stroke-linecap="round"></path><path d="M 24.000,263.000 C 24.000,262.000 23.643,261.892 24.000,261.000" stroke-width="16.606" stroke="rgb(33,33,33)" fill="none" stroke-linecap="round"></path><path d="M 24.000,261.000 C 24.643,259.392 24.737,259.263 26.000,258.000" stroke-width="16.590" stroke="rgb(33,33,33)" fill="none" stroke-linecap="round"></path><path d="M 26.000,258.000 C 28.737,255.263 29.133,255.646 32.000,253.000" stroke-width="15.965" stroke="rgb(33,33,33)" fill="none" stroke-linecap="round"></path><path d="M 32.000,253.000 C 35.633,249.646 35.500,249.500 39.000,246.000" stroke-width="15.130" stroke="rgb(33,33,33)" fill="none" stroke-linecap="round"></path><path d="M 39.000,246.000 C 43.500,241.500 43.500,241.500 48.000,237.000" stroke-width="14.256" stroke="rgb(33,33,33)" fill="none" stroke-linecap="round"></path><path d="M 48.000,237.000 C 51.500,233.500 51.841,233.791 55.000,230.000" stroke-width="13.869" stroke="rgb(33,33,33)" fill="none" stroke-linecap="round"></path><path d="M 55.000,230.000 C 59.341,224.791 58.757,224.304 63.000,219.000" stroke-width="13.252" stroke="rgb(33,33,33)" fill="none" stroke-linecap="round"></path><path d="M 63.000,219.000 C 66.757,214.304 66.875,214.382 71.000,210.000" stroke-width="12.946" stroke="rgb(33,33,33)" fill="none" stroke-linecap="round"></path><path d="M 71.000,210.000 C 74.875,205.882 75.143,206.132 79.000,202.000" stroke-width="12.714" stroke="rgb(33,33,33)" fill="none" stroke-linecap="round"></path><path d="M 79.000,202.000 C 82.143,198.632 81.981,198.484 85.000,195.000" stroke-width="12.795" stroke="rgb(33,33,33)" fill="none" stroke-linecap="round"></path><path d="M 85.000,195.000 C 88.481,190.984 88.519,191.016 92.000,187.000" stroke-width="12.664" stroke="rgb(33,33,33)" fill="none" stroke-linecap="round"></path><path d="M 92.000,187.000 C 95.019,183.516 95.000,183.500 98.000,180.000" stroke-width="12.755" stroke="rgb(33,33,33)" fill="none" stroke-linecap="round"></path><path d="M 98.000,180.000 C 101.000,176.500 101.000,176.500 104.000,173.000" stroke-width="12.828" stroke="rgb(33,33,33)" fill="none" stroke-linecap="round"></path><path d="M 104.000,173.000 C 107.000,169.500 107.000,169.500 110.000,166.000" stroke-width="12.832" stroke="rgb(33,33,33)" fill="none" stroke-linecap="round"></path><path d="M 110.000,166.000 C 113.000,162.500 113.022,162.519 116.000,159.000" stroke-width="12.890" stroke="rgb(33,33,33)" fill="none" stroke-linecap="round"></path><path d="M 116.000,159.000 C 118.522,156.019 118.660,156.120 121.000,153.000" stroke-width="13.076" stroke="rgb(33,33,33)" fill="none" stroke-linecap="round"></path><path d="M 121.000,153.000 C 123.160,150.120 122.728,149.777 125.000,147.000" stroke-width="13.243" stroke="rgb(33,33,33)" fill="none" stroke-linecap="round"></path><path d="M 125.000,147.000 C 127.228,144.277 127.624,144.613 130.000,142.000" stroke-width="13.442" stroke="rgb(33,33,33)" fill="none" stroke-linecap="round"></path><path d="M 130.000,142.000 C 132.624,139.113 132.390,138.900 135.000,136.000" stroke-width="13.527" stroke="rgb(33,33,33)" fill="none" stroke-linecap="round"></path><path d="M 135.000,136.000 C 136.890,133.900 137.142,134.123 139.000,132.000" stroke-width="13.791" stroke="rgb(33,33,33)" fill="none" stroke-linecap="round"></path><path d="M 139.000,132.000 C 140.642,130.123 140.358,129.877 142.000,128.000" stroke-width="14.126" stroke="rgb(33,33,33)" fill="none" stroke-linecap="round"></path><path d="M 142.000,128.000 C 143.858,125.877 144.142,126.123 146.000,124.000" stroke-width="14.328" stroke="rgb(33,33,33)" fill="none" stroke-linecap="round"></path><path d="M 146.000,124.000 C 147.642,122.123 147.377,121.893 149.000,120.000" stroke-width="14.535" stroke="rgb(33,33,33)" fill="none" stroke-linecap="round"></path><path d="M 149.000,120.000 C 150.377,118.393 150.649,118.622 152.000,117.000" stroke-width="14.841" stroke="rgb(33,33,33)" fill="none" stroke-linecap="round"></path><path d="M 152.000,117.000 C 153.149,115.622 153.074,115.543 154.000,114.000" stroke-width="15.180" stroke="rgb(33,33,33)" fill="none" stroke-linecap="round"></path><path d="M 154.000,114.000 C 154.574,113.043 154.500,113.000 155.000,112.000" stroke-width="15.635" stroke="rgb(33,33,33)" fill="none" stroke-linecap="round"></path><path d="M 155.000,112.000 C 155.500,111.000 155.500,111.000 156.000,110.000" stroke-width="16.041" stroke="rgb(33,33,33)" fill="none" stroke-linecap="round"></path><path d="M 156.000,110.000 C 156.500,109.000 156.387,108.919 157.000,108.000" stroke-width="16.380" stroke="rgb(33,33,33)" fill="none" stroke-linecap="round"></path><path d="M 157.000,108.000 C 157.387,107.419 157.613,107.581 158.000,107.000" stroke-width="16.796" stroke="rgb(33,33,33)" fill="none" stroke-linecap="round"></path><path d="M 158.000,107.000 C 158.613,106.081 158.655,106.036 159.000,105.000" stroke-width="16.982" stroke="rgb(33,33,33)" fill="none" stroke-linecap="round"></path><path d="M 159.000,105.000 C 159.155,104.536 158.845,104.464 159.000,104.000" stroke-width="17.371" stroke="rgb(33,33,33)" fill="none" stroke-linecap="round"></path><path d="M 159.000,104.000 C 159.345,102.964 159.387,102.919 160.000,102.000" stroke-width="17.474" stroke="rgb(33,33,33)" fill="none" stroke-linecap="round"></path><path d="M 160.000,102.000 C 160.387,101.419 160.500,101.500 161.000,101.000" stroke-width="17.705" stroke="rgb(33,33,33)" fill="none" stroke-linecap="round"></path><path d="M 161.000,101.000 C 162.000,100.000 162.162,100.117 163.000,99.000" stroke-width="17.603" stroke="rgb(33,33,33)" fill="none" stroke-linecap="round"></path><path d="M 163.000,99.000 C 163.662,98.117 163.387,97.919 164.000,97.000" stroke-width="17.636" stroke="rgb(33,33,33)" fill="none" stroke-linecap="round"></path><path d="M 164.000,97.000 C 164.387,96.419 164.500,96.500 165.000,96.000" stroke-width="17.838" stroke="rgb(33,33,33)" fill="none" stroke-linecap="round"></path><path d="M 165.000,96.000 C 165.500,95.500 165.707,95.586 166.000,95.000" stroke-width="18.003" stroke="rgb(33,33,33)" fill="none" stroke-linecap="round"></path><path d="M 166.000,95.000 C 166.207,94.586 165.750,94.250 166.000,94.000" stroke-width="18.205" stroke="rgb(33,33,33)" fill="none" stroke-linecap="round"></path><path d="M 106.000,272.000 C 107.000,271.000 107.586,271.243 108.000,270.000" stroke-width="20.161" stroke="rgb(33,33,33)" fill="none" stroke-linecap="round"></path><path d="M 108.000,270.000 C 108.586,268.243 108.000,268.000 108.000,266.000" stroke-width="19.221" stroke="rgb(33,33,33)" fill="none" stroke-linecap="round"></path><path d="M 108.000,266.000 C 108.000,263.500 108.000,263.500 108.000,261.000" stroke-width="18.485" stroke="rgb(33,33,33)" fill="none" stroke-linecap="round"></path><path d="M 108.000,261.000 C 108.000,258.000 108.000,258.000 108.000,255.000" stroke-width="17.655" stroke="rgb(33,33,33)" fill="none" stroke-linecap="round"></path><path d="M 108.000,255.000 C 108.000,251.500 108.000,251.500 108.000,248.000" stroke-width="16.804" stroke="rgb(33,33,33)" fill="none" stroke-linecap="round"></path><path d="M 108.000,248.000 C 108.000,244.500 108.000,244.500 108.000,241.000" stroke-width="16.105" stroke="rgb(33,33,33)" fill="none" stroke-linecap="round"></path><path d="M 108.000,241.000 C 108.000,238.000 108.248,237.979 108.000,235.000" stroke-width="15.809" stroke="rgb(33,33,33)" fill="none" stroke-linecap="round"></path><path d="M 108.000,235.000 C 107.748,231.979 107.735,231.942 107.000,229.000" stroke-width="15.622" stroke="rgb(33,33,33)" fill="none" stroke-linecap="round"></path><path d="M 107.000,229.000 C 106.235,225.942 105.908,226.027 105.000,223.000" stroke-width="15.441" stroke="rgb(33,33,33)" fill="none" stroke-linecap="round"></path><path d="M 105.000,223.000 C 104.408,221.027 104.648,220.945 104.000,219.000" stroke-width="15.569" stroke="rgb(33,33,33)" fill="none" stroke-linecap="round"></path><path d="M 104.000,219.000 C 103.648,217.945 103.613,217.919 103.000,217.000" stroke-width="15.964" stroke="rgb(33,33,33)" fill="none" stroke-linecap="round"></path><path d="M 103.000,217.000 C 102.613,216.419 102.293,216.586 102.000,216.000" stroke-width="16.444" stroke="rgb(33,33,33)" fill="none" stroke-linecap="round"></path><path d="M 102.000,216.000 C 101.793,215.586 102.250,215.250 102.000,215.000" stroke-width="16.918" stroke="rgb(33,33,33)" fill="none" stroke-linecap="round"></path><path d="M 102.000,215.000 C 101.750,214.750 101.167,214.667 101.000,215.000" stroke-width="17.307" stroke="rgb(33,33,33)" fill="none" stroke-linecap="round"></path><path d="M 101.000,215.000 C 100.667,215.667 101.000,216.000 101.000,217.000" stroke-width="17.751" stroke="rgb(33,33,33)" fill="none" stroke-linecap="round"></path><path d="M 101.000,217.000 C 101.000,218.000 100.764,218.056 101.000,219.000" stroke-width="17.823" stroke="rgb(33,33,33)" fill="none" stroke-linecap="round"></path><path d="M 101.000,219.000 C 101.264,220.056 101.426,220.043 102.000,221.000" stroke-width="17.838" stroke="rgb(33,33,33)" fill="none" stroke-linecap="round"></path><path d="M 102.000,221.000 C 102.926,222.543 103.201,222.402 104.000,224.000" stroke-width="17.559" stroke="rgb(33,33,33)" fill="none" stroke-linecap="round"></path><path d="M 104.000,224.000 C 104.701,225.402 104.225,225.644 105.000,227.000" stroke-width="17.460" stroke="rgb(33,33,33)" fill="none" stroke-linecap="round"></path><path d="M 105.000,227.000 C 106.225,229.144 106.547,228.966 108.000,231.000" stroke-width="17.065" stroke="rgb(33,33,33)" fill="none" stroke-linecap="round"></path><path d="M 108.000,231.000 C 109.047,232.466 108.851,232.622 110.000,234.000" stroke-width="16.954" stroke="rgb(33,33,33)" fill="none" stroke-linecap="round"></path><path d="M 110.000,234.000 C 111.351,235.622 111.649,235.378 113.000,237.000" stroke-width="16.756" stroke="rgb(33,33,33)" fill="none" stroke-linecap="round"></path><path d="M 113.000,237.000 C 114.149,238.378 113.750,238.750 115.000,240.000" stroke-width="16.778" stroke="rgb(33,33,33)" fill="none" stroke-linecap="round"></path><path d="M 115.000,240.000 C 116.250,241.250 116.500,241.000 118.000,242.000" stroke-width="16.727" stroke="rgb(33,33,33)" fill="none" stroke-linecap="round"></path><path d="M 118.000,242.000 C 119.500,243.000 119.599,242.879 121.000,244.000" stroke-width="16.723" stroke="rgb(33,33,33)" fill="none" stroke-linecap="round"></path><path d="M 121.000,244.000 C 122.099,244.879 121.787,245.515 123.000,246.000" stroke-width="16.818" stroke="rgb(33,33,33)" fill="none" stroke-linecap="round"></path><path d="M 123.000,246.000 C 124.287,246.515 124.568,245.714 126.000,246.000" stroke-width="16.923" stroke="rgb(33,33,33)" fill="none" stroke-linecap="round"></path><path d="M 126.000,246.000 C 127.068,246.214 127.000,246.500 128.000,247.000" stroke-width="17.085" stroke="rgb(33,33,33)" fill="none" stroke-linecap="round"></path><path d="M 128.000,247.000 C 129.000,247.500 128.964,247.655 130.000,248.000" stroke-width="17.242" stroke="rgb(33,33,33)" fill="none" stroke-linecap="round"></path><path d="M 130.000,248.000 C 130.464,248.155 130.500,248.000 131.000,248.000" stroke-width="17.588" stroke="rgb(33,33,33)" fill="none" stroke-linecap="round"></path><path d="M 131.000,248.000 C 132.000,248.000 132.000,248.000 133.000,248.000" stroke-width="17.669" stroke="rgb(33,33,33)" fill="none" stroke-linecap="round"></path><path d="M 133.000,248.000 C 133.500,248.000 133.833,248.333 134.000,248.000" stroke-width="17.942" stroke="rgb(33,33,33)" fill="none" stroke-linecap="round"></path><path d="M 134.000,248.000 C 134.333,247.333 133.764,246.944 134.000,246.000" stroke-width="17.954" stroke="rgb(33,33,33)" fill="none" stroke-linecap="round"></path><path d="M 134.000,246.000 C 134.264,244.944 134.786,245.068 135.000,244.000" stroke-width="17.916" stroke="rgb(33,33,33)" fill="none" stroke-linecap="round"></path><path d="M 135.000,244.000 C 135.286,242.568 135.000,242.500 135.000,241.000" stroke-width="17.771" stroke="rgb(33,33,33)" fill="none" stroke-linecap="round"></path><path d="M 135.000,241.000 C 135.000,239.500 135.000,239.500 135.000,238.000" stroke-width="17.656" stroke="rgb(33,33,33)" fill="none" stroke-linecap="round"></path><path d="M 135.000,238.000 C 135.000,236.000 135.000,236.000 135.000,234.000" stroke-width="17.344" stroke="rgb(33,33,33)" fill="none" stroke-linecap="round"></path><path d="M 135.000,234.000 C 135.000,232.000 135.000,232.000 135.000,230.000" stroke-width="17.145" stroke="rgb(33,33,33)" fill="none" stroke-linecap="round"></path><path d="M 135.000,230.000 C 135.000,227.000 135.000,227.000 135.000,224.000" stroke-width="16.660" stroke="rgb(33,33,33)" fill="none" stroke-linecap="round"></path><path d="M 135.000,224.000 C 135.000,221.500 135.000,221.500 135.000,219.000" stroke-width="16.448" stroke="rgb(33,33,33)" fill="none" stroke-linecap="round"></path><path d="M 135.000,219.000 C 135.000,216.500 135.248,216.475 135.000,214.000" stroke-width="16.233" stroke="rgb(33,33,33)" fill="none" stroke-linecap="round"></path><path d="M 135.000,214.000 C 134.748,211.475 134.799,211.397 134.000,209.000" stroke-width="16.098" stroke="rgb(33,33,33)" fill="none" stroke-linecap="round"></path><path d="M 134.000,209.000 C 133.299,206.897 132.780,207.081 132.000,205.000" stroke-width="16.085" stroke="rgb(33,33,33)" fill="none" stroke-linecap="round"></path><path d="M 132.000,205.000 C 131.280,203.081 131.720,202.919 131.000,201.000" stroke-width="16.088" stroke="rgb(33,33,33)" fill="none" stroke-linecap="round"></path><path d="M 131.000,201.000 C 130.220,198.919 130.000,199.000 129.000,197.000" stroke-width="16.077" stroke="rgb(33,33,33)" fill="none" stroke-linecap="round"></path><path d="M 129.000,197.000 C 128.500,196.000 128.264,196.056 128.000,195.000" stroke-width="16.389" stroke="rgb(33,33,33)" fill="none" stroke-linecap="round"></path><path d="M 128.000,195.000 C 127.764,194.056 128.293,193.879 128.000,193.000" stroke-width="16.708" stroke="rgb(33,33,33)" fill="none" stroke-linecap="round"></path><path d="M 128.000,193.000 C 127.793,192.379 127.293,192.586 127.000,192.000" stroke-width="17.070" stroke="rgb(33,33,33)" fill="none" stroke-linecap="round"></path><path d="M 127.000,192.000 C 126.793,191.586 127.000,191.000 127.000,191.000" stroke-width="17.434" stroke="rgb(33,33,33)" fill="none" stroke-linecap="round"></path><path d="M 127.000,191.000 C 127.000,191.000 126.845,191.536 127.000,192.000" stroke-width="17.895" stroke="rgb(33,33,33)" fill="none" stroke-linecap="round"></path><path d="M 127.000,192.000 C 127.345,193.036 127.426,193.043 128.000,194.000" stroke-width="17.869" stroke="rgb(33,33,33)" fill="none" stroke-linecap="round"></path><path d="M 128.000,194.000 C 128.926,195.543 129.000,195.500 130.000,197.000" stroke-width="17.624" stroke="rgb(33,33,33)" fill="none" stroke-linecap="round"></path><path d="M 130.000,197.000 C 131.000,198.500 131.107,198.438 132.000,200.000" stroke-width="17.433" stroke="rgb(33,33,33)" fill="none" stroke-linecap="round"></path><path d="M 132.000,200.000 C 133.107,201.938 132.717,202.204 134.000,204.000" stroke-width="17.133" stroke="rgb(33,33,33)" fill="none" stroke-linecap="round"></path><path d="M 134.000,204.000 C 135.217,205.704 135.649,205.378 137.000,207.000" stroke-width="16.939" stroke="rgb(33,33,33)" fill="none" stroke-linecap="round"></path><path d="M 137.000,207.000 C 138.149,208.378 137.832,208.638 139.000,210.000" stroke-width="16.855" stroke="rgb(33,33,33)" fill="none" stroke-linecap="round"></path><path d="M 139.000,210.000 C 140.832,212.138 140.862,212.168 143.000,214.000" stroke-width="16.439" stroke="rgb(33,33,33)" fill="none" stroke-linecap="round"></path><path d="M 143.000,214.000 C 144.362,215.168 144.534,214.953 146.000,216.000" stroke-width="16.523" stroke="rgb(33,33,33)" fill="none" stroke-linecap="round"></path><path d="M 146.000,216.000 C 148.034,217.453 147.966,217.547 150.000,219.000" stroke-width="16.292" stroke="rgb(33,33,33)" fill="none" stroke-linecap="round"></path><path d="M 150.000,219.000 C 151.466,220.047 151.402,220.201 153.000,221.000" stroke-width="16.373" stroke="rgb(33,33,33)" fill="none" stroke-linecap="round"></path><path d="M 153.000,221.000 C 154.402,221.701 154.536,221.414 156.000,222.000" stroke-width="16.478" stroke="rgb(33,33,33)" fill="none" stroke-linecap="round"></path><path d="M 156.000,222.000 C 157.036,222.414 157.000,222.500 158.000,223.000" stroke-width="16.743" stroke="rgb(33,33,33)" fill="none" stroke-linecap="round"></path><path d="M 158.000,223.000 C 159.000,223.500 158.944,223.736 160.000,224.000" stroke-width="16.962" stroke="rgb(33,33,33)" fill="none" stroke-linecap="round"></path><path d="M 160.000,224.000 C 160.944,224.236 161.000,224.000 162.000,224.000" stroke-width="17.181" stroke="rgb(33,33,33)" fill="none" stroke-linecap="round"></path><path d="M 162.000,224.000 C 163.000,224.000 163.000,224.000 164.000,224.000" stroke-width="17.339" stroke="rgb(33,33,33)" fill="none" stroke-linecap="round"></path><path d="M 164.000,224.000 C 164.500,224.000 164.500,224.000 165.000,224.000" stroke-width="17.669" stroke="rgb(33,33,33)" fill="none" stroke-linecap="round"></path><path d="M 165.000,224.000 C 165.500,224.000 165.586,224.207 166.000,224.000" stroke-width="17.942" stroke="rgb(33,33,33)" fill="none" stroke-linecap="round"></path><path d="M 166.000,224.000 C 166.586,223.707 166.613,223.581 167.000,223.000" stroke-width="18.088" stroke="rgb(33,33,33)" fill="none" stroke-linecap="round"></path><path d="M 167.000,223.000 C 167.613,222.081 167.736,222.056 168.000,221.000" stroke-width="18.023" stroke="rgb(33,33,33)" fill="none" stroke-linecap="round"></path><path d="M 168.000,221.000 C 168.236,220.056 168.000,220.000 168.000,219.000" stroke-width="18.042" stroke="rgb(33,33,33)" fill="none" stroke-linecap="round"></path><path d="M 168.000,219.000 C 168.000,217.500 168.000,217.500 168.000,216.000" stroke-width="17.835" stroke="rgb(33,33,33)" fill="none" stroke-linecap="round"></path><path d="M 168.000,216.000 C 168.000,214.500 168.000,214.500 168.000,213.000" stroke-width="17.707" stroke="rgb(33,33,33)" fill="none" stroke-linecap="round"></path><path d="M 168.000,213.000 C 168.000,211.000 168.000,211.000 168.000,209.000" stroke-width="17.427" stroke="rgb(33,33,33)" fill="none" stroke-linecap="round"></path><path d="M 168.000,209.000 C 168.000,207.000 168.000,207.000 168.000,205.000" stroke-width="17.210" stroke="rgb(33,33,33)" fill="none" stroke-linecap="round"></path><path d="M 168.000,205.000 C 168.000,203.000 168.220,202.978 168.000,201.000" stroke-width="16.998" stroke="rgb(33,33,33)" fill="none" stroke-linecap="round"></path><path d="M 168.000,201.000 C 167.720,198.478 167.730,198.432 167.000,196.000" stroke-width="16.694" stroke="rgb(33,33,33)" fill="none" stroke-linecap="round"></path><path d="M 167.000,196.000 C 166.230,193.432 165.770,193.568 165.000,191.000" stroke-width="16.360" stroke="rgb(33,33,33)" fill="none" stroke-linecap="round"></path><path d="M 165.000,191.000 C 164.270,188.568 164.730,188.432 164.000,186.000" stroke-width="16.198" stroke="rgb(33,33,33)" fill="none" stroke-linecap="round"></path><path d="M 164.000,186.000 C 163.230,183.432 162.850,183.549 162.000,181.000" stroke-width="16.027" stroke="rgb(33,33,33)" fill="none" stroke-linecap="round"></path><path d="M 162.000,181.000 C 161.350,179.049 161.500,179.000 161.000,177.000" stroke-width="16.042" stroke="rgb(33,33,33)" fill="none" stroke-linecap="round"></path><path d="M 161.000,177.000 C 160.500,175.000 160.566,174.981 160.000,173.000" stroke-width="16.092" stroke="rgb(33,33,33)" fill="none" stroke-linecap="round"></path><path d="M 160.000,173.000 C 159.566,171.481 159.306,171.531 159.000,170.000" stroke-width="16.279" stroke="rgb(33,33,33)" fill="none" stroke-linecap="round"></path><path d="M 159.000,170.000 C 158.806,169.031 159.000,169.000 159.000,168.000" stroke-width="16.635" stroke="rgb(33,33,33)" fill="none" stroke-linecap="round"></path><path d="M 159.000,168.000 C 159.000,167.000 159.000,166.000 159.000,166.000" stroke-width="16.867" stroke="rgb(33,33,33)" fill="none" stroke-linecap="round"></path><path d="M 159.000,166.000 C 159.000,166.000 158.764,167.056 159.000,168.000" stroke-width="17.390" stroke="rgb(33,33,33)" fill="none" stroke-linecap="round"></path><path d="M 159.000,168.000 C 159.264,169.056 159.426,169.043 160.000,170.000" stroke-width="17.489" stroke="rgb(33,33,33)" fill="none" stroke-linecap="round"></path><path d="M 160.000,170.000 C 160.926,171.543 160.953,171.534 162.000,173.000" stroke-width="17.327" stroke="rgb(33,33,33)" fill="none" stroke-linecap="round"></path><path d="M 162.000,173.000 C 163.453,175.034 163.500,175.000 165.000,177.000" stroke-width="16.911" stroke="rgb(33,33,33)" fill="none" stroke-linecap="round"></path><path d="M 165.000,177.000 C 166.500,179.000 166.500,179.000 168.000,181.000" stroke-width="16.642" stroke="rgb(33,33,33)" fill="none" stroke-linecap="round"></path><path d="M 168.000,181.000 C 169.500,183.000 169.680,182.889 171.000,185.000" stroke-width="16.477" stroke="rgb(33,33,33)" fill="none" stroke-linecap="round"></path><path d="M 171.000,185.000 C 172.180,186.889 171.675,187.234 173.000,189.000" stroke-width="16.294" stroke="rgb(33,33,33)" fill="none" stroke-linecap="round"></path><path d="M 173.000,189.000 C 174.675,191.234 174.862,191.168 177.000,193.000" stroke-width="16.061" stroke="rgb(33,33,33)" fill="none" stroke-linecap="round"></path><path d="M 177.000,193.000 C 178.362,194.168 178.500,194.000 180.000,195.000" stroke-width="16.152" stroke="rgb(33,33,33)" fill="none" stroke-linecap="round"></path><path d="M 180.000,195.000 C 181.500,196.000 181.402,196.201 183.000,197.000" stroke-width="16.260" stroke="rgb(33,33,33)" fill="none" stroke-linecap="round"></path><path d="M 183.000,197.000 C 184.402,197.701 184.536,197.414 186.000,198.000" stroke-width="16.416" stroke="rgb(33,33,33)" fill="none" stroke-linecap="round"></path><path d="M 186.000,198.000 C 187.036,198.414 186.944,198.736 188.000,199.000" stroke-width="16.670" stroke="rgb(33,33,33)" fill="none" stroke-linecap="round"></path><path d="M 188.000,199.000 C 188.944,199.236 189.000,199.000 190.000,199.000" stroke-width="16.941" stroke="rgb(33,33,33)" fill="none" stroke-linecap="round"></path><path d="M 190.000,199.000 C 190.500,199.000 190.500,199.000 191.000,199.000" stroke-width="17.337" stroke="rgb(33,33,33)" fill="none" stroke-linecap="round"></path><path d="M 191.000,199.000 C 192.000,199.000 192.121,199.293 193.000,199.000" stroke-width="17.488" stroke="rgb(33,33,33)" fill="none" stroke-linecap="round"></path><path d="M 193.000,199.000 C 193.621,198.793 193.840,198.641 194.000,198.000" stroke-width="17.700" stroke="rgb(33,33,33)" fill="none" stroke-linecap="round"></path><path d="M 194.000,198.000 C 194.340,196.641 193.757,196.460 194.000,195.000" stroke-width="17.601" stroke="rgb(33,33,33)" fill="none" stroke-linecap="round"></path><path d="M 194.000,195.000 C 194.257,193.460 194.779,193.545 195.000,192.000" stroke-width="17.493" stroke="rgb(33,33,33)" fill="none" stroke-linecap="round"></path><path d="M 195.000,192.000 C 195.279,190.045 195.000,190.000 195.000,188.000" stroke-width="17.218" stroke="rgb(33,33,33)" fill="none" stroke-linecap="round"></path><path d="M 195.000,188.000 C 195.000,186.500 195.000,186.500 195.000,185.000" stroke-width="17.217" stroke="rgb(33,33,33)" fill="none" stroke-linecap="round"></path><path d="M 195.000,185.000 C 195.000,183.000 195.000,183.000 195.000,181.000" stroke-width="17.045" stroke="rgb(33,33,33)" fill="none" stroke-linecap="round"></path><path d="M 195.000,181.000 C 195.000,178.500 195.000,178.500 195.000,176.000" stroke-width="16.696" stroke="rgb(33,33,33)" fill="none" stroke-linecap="round"></path><path d="M 195.000,176.000 C 195.000,174.000 195.000,174.000 195.000,172.000" stroke-width="16.634" stroke="rgb(33,33,33)" fill="none" stroke-linecap="round"></path><path d="M 195.000,172.000 C 195.000,170.000 195.000,170.000 195.000,168.000" stroke-width="16.545" stroke="rgb(33,33,33)" fill="none" stroke-linecap="round"></path><path d="M 195.000,168.000 C 195.000,166.000 195.246,165.970 195.000,164.000" stroke-width="16.515" stroke="rgb(33,33,33)" fill="none" stroke-linecap="round"></path><path d="M 195.000,164.000 C 194.746,161.970 194.500,162.000 194.000,160.000" stroke-width="16.471" stroke="rgb(33,33,33)" fill="none" stroke-linecap="round"></path><path d="M 194.000,160.000 C 193.500,158.000 193.500,158.000 193.000,156.000" stroke-width="16.436" stroke="rgb(33,33,33)" fill="none" stroke-linecap="round"></path><path d="M 193.000,156.000 C 192.500,154.000 192.566,153.981 192.000,152.000" stroke-width="16.368" stroke="rgb(33,33,33)" fill="none" stroke-linecap="round"></path><path d="M 192.000,152.000 C 191.566,150.481 191.257,150.540 191.000,149.000" stroke-width="16.473" stroke="rgb(33,33,33)" fill="none" stroke-linecap="round"></path><path d="M 191.000,149.000 C 190.757,147.540 191.286,147.432 191.000,146.000" stroke-width="16.643" stroke="rgb(33,33,33)" fill="none" stroke-linecap="round"></path><path d="M 191.000,146.000 C 190.786,144.932 190.345,145.036 190.000,144.000" stroke-width="16.856" stroke="rgb(33,33,33)" fill="none" stroke-linecap="round"></path><path d="M 190.000,144.000 C 189.845,143.536 190.207,143.414 190.000,143.000" stroke-width="17.266" stroke="rgb(33,33,33)" fill="none" stroke-linecap="round"></path><path d="M 190.000,143.000 C 189.707,142.414 189.293,142.000 189.000,142.000" stroke-width="17.518" stroke="rgb(33,33,33)" fill="none" stroke-linecap="round"></path><path d="M 189.000,142.000 C 188.793,142.000 188.793,142.586 189.000,143.000" stroke-width="17.966" stroke="rgb(33,33,33)" fill="none" stroke-linecap="round"></path><path d="M 189.000,143.000 C 189.293,143.586 189.577,143.437 190.000,144.000" stroke-width="18.107" stroke="rgb(33,33,33)" fill="none" stroke-linecap="round"></path><path d="M 190.000,144.000 C 191.077,145.437 191.000,145.500 192.000,147.000" stroke-width="17.767" stroke="rgb(33,33,33)" fill="none" stroke-linecap="round"></path><path d="M 192.000,147.000 C 193.000,148.500 193.045,148.472 194.000,150.000" stroke-width="17.544" stroke="rgb(33,33,33)" fill="none" stroke-linecap="round"></path><path d="M 194.000,150.000 C 195.545,152.472 195.585,152.453 197.000,155.000" stroke-width="16.989" stroke="rgb(33,33,33)" fill="none" stroke-linecap="round"></path><path d="M 197.000,155.000 C 198.085,156.953 197.820,157.111 199.000,159.000" stroke-width="16.743" stroke="rgb(33,33,33)" fill="none" stroke-linecap="round"></path><path d="M 199.000,159.000 C 200.320,161.111 200.500,161.000 202.000,163.000" stroke-width="16.512" stroke="rgb(33,33,33)" fill="none" stroke-linecap="round"></path><path d="M 202.000,163.000 C 203.500,165.000 203.250,165.250 205.000,167.000" stroke-width="16.283" stroke="rgb(33,33,33)" fill="none" stroke-linecap="round"></path><path d="M 205.000,167.000 C 206.750,168.750 206.966,168.547 209.000,170.000" stroke-width="16.152" stroke="rgb(33,33,33)" fill="none" stroke-linecap="round"></path><path d="M 209.000,170.000 C 210.466,171.047 210.500,171.000 212.000,172.000" stroke-width="16.225" stroke="rgb(33,33,33)" fill="none" stroke-linecap="round"></path><path d="M 212.000,172.000 C 213.500,173.000 213.457,173.074 215.000,174.000" stroke-width="16.319" stroke="rgb(33,33,33)" fill="none" stroke-linecap="round"></path><path d="M 215.000,174.000 C 215.957,174.574 215.964,174.586 217.000,175.000" stroke-width="16.612" stroke="rgb(33,33,33)" fill="none" stroke-linecap="round"></path><path d="M 217.000,175.000 C 218.464,175.586 218.469,175.694 220.000,176.000" stroke-width="16.702" stroke="rgb(33,33,33)" fill="none" stroke-linecap="round"></path><path d="M 220.000,176.000 C 220.969,176.194 221.000,176.000 222.000,176.000" stroke-width="16.947" stroke="rgb(33,33,33)" fill="none" stroke-linecap="round"></path><path d="M 222.000,176.000 C 222.500,176.000 222.500,176.000 223.000,176.000" stroke-width="17.342" stroke="rgb(33,33,33)" fill="none" stroke-linecap="round"></path><path d="M 223.000,176.000 C 223.500,176.000 223.500,176.000 224.000,176.000" stroke-width="17.671" stroke="rgb(33,33,33)" fill="none" stroke-linecap="round"></path><path d="M 224.000,176.000 C 224.500,176.000 224.586,176.207 225.000,176.000" stroke-width="17.932" stroke="rgb(33,33,33)" fill="none" stroke-linecap="round"></path><path d="M 225.000,176.000 C 225.586,175.707 225.793,175.621 226.000,175.000" stroke-width="18.063" stroke="rgb(33,33,33)" fill="none" stroke-linecap="round"></path><path d="M 226.000,175.000 C 226.293,174.121 225.837,173.980 226.000,173.000" stroke-width="18.074" stroke="rgb(33,33,33)" fill="none" stroke-linecap="round"></path><path d="M 226.000,173.000 C 226.337,170.980 226.746,171.030 227.000,169.000" stroke-width="17.688" stroke="rgb(33,33,33)" fill="none" stroke-linecap="round"></path><path d="M 227.000,169.000 C 227.246,167.030 227.000,167.000 227.000,165.000" stroke-width="17.413" stroke="rgb(33,33,33)" fill="none" stroke-linecap="round"></path><path d="M 227.000,165.000 C 227.000,162.000 227.000,162.000 227.000,159.000" stroke-width="16.862" stroke="rgb(33,33,33)" fill="none" stroke-linecap="round"></path><path d="M 227.000,159.000 C 227.000,156.500 227.000,156.500 227.000,154.000" stroke-width="16.554" stroke="rgb(33,33,33)" fill="none" stroke-linecap="round"></path><path d="M 227.000,154.000 C 227.000,151.000 227.000,151.000 227.000,148.000" stroke-width="16.211" stroke="rgb(33,33,33)" fill="none" stroke-linecap="round"></path><path d="M 227.000,148.000 C 227.000,145.000 227.000,145.000 227.000,142.000" stroke-width="15.946" stroke="rgb(33,33,33)" fill="none" stroke-linecap="round"></path><path d="M 227.000,142.000 C 227.000,139.500 227.248,139.475 227.000,137.000" stroke-width="15.840" stroke="rgb(33,33,33)" fill="none" stroke-linecap="round"></path><path d="M 227.000,137.000 C 226.748,134.475 226.553,134.488 226.000,132.000" stroke-width="15.786" stroke="rgb(33,33,33)" fill="none" stroke-linecap="round"></path><path d="M 226.000,132.000 C 225.553,129.988 225.500,130.000 225.000,128.000" stroke-width="15.886" stroke="rgb(33,33,33)" fill="none" stroke-linecap="round"></path><path d="M 225.000,128.000 C 224.500,126.000 224.337,126.020 224.000,124.000" stroke-width="15.929" stroke="rgb(33,33,33)" fill="none" stroke-linecap="round"></path><path d="M 224.000,124.000 C 223.837,123.020 224.000,123.000 224.000,122.000" stroke-width="16.304" stroke="rgb(33,33,33)" fill="none" stroke-linecap="round"></path><path d="M 224.000,122.000 C 224.000,121.000 224.000,121.000 224.000,120.000" stroke-width="16.637" stroke="rgb(33,33,33)" fill="none" stroke-linecap="round"></path><path d="M 224.000,120.000 C 224.000,119.000 224.333,118.667 224.000,118.000" stroke-width="16.893" stroke="rgb(33,33,33)" fill="none" stroke-linecap="round"></path><path d="M 224.000,118.000 C 223.833,117.667 223.250,118.250 223.000,118.000" stroke-width="17.297" stroke="rgb(33,33,33)" fill="none" stroke-linecap="round"></path><path d="M 223.000,118.000 C 222.750,117.750 223.000,117.000 223.000,117.000" stroke-width="17.634" stroke="rgb(33,33,33)" fill="none" stroke-linecap="round"></path><path d="M 223.000,117.000 C 223.000,117.000 223.000,117.500 223.000,118.000" stroke-width="18.069" stroke="rgb(33,33,33)" fill="none" stroke-linecap="round"></path><path d="M 223.000,118.000 C 223.000,119.000 222.806,119.031 223.000,120.000" stroke-width="18.079" stroke="rgb(33,33,33)" fill="none" stroke-linecap="round"></path><path d="M 223.000,120.000 C 223.306,121.531 223.299,121.598 224.000,123.000" stroke-width="17.869" stroke="rgb(33,33,33)" fill="none" stroke-linecap="round"></path><path d="M 224.000,123.000 C 224.799,124.598 225.300,124.367 226.000,126.000" stroke-width="17.624" stroke="rgb(33,33,33)" fill="none" stroke-linecap="round"></path><path d="M 226.000,126.000 C 226.800,127.867 226.280,128.081 227.000,130.000" stroke-width="17.381" stroke="rgb(33,33,33)" fill="none" stroke-linecap="round"></path><path d="M 227.000,130.000 C 227.780,132.081 228.093,131.958 229.000,134.000" stroke-width="16.993" stroke="rgb(33,33,33)" fill="none" stroke-linecap="round"></path><path d="M 229.000,134.000 C 230.093,136.458 229.602,136.763 231.000,139.000" stroke-width="16.644" stroke="rgb(33,33,33)" fill="none" stroke-linecap="round"></path><path d="M 231.000,139.000 C 232.102,140.763 232.783,140.296 234.000,142.000" stroke-width="16.554" stroke="rgb(33,33,33)" fill="none" stroke-linecap="round"></path><path d="M 234.000,142.000 C 235.283,143.796 234.616,144.339 236.000,146.000" stroke-width="16.403" stroke="rgb(33,33,33)" fill="none" stroke-linecap="round"></path><path d="M 236.000,146.000 C 237.116,147.339 237.500,147.000 239.000,148.000" stroke-width="16.463" stroke="rgb(33,33,33)" fill="none" stroke-linecap="round"></path><path d="M 239.000,148.000 C 240.500,149.000 240.457,149.074 242.000,150.000" stroke-width="16.511" stroke="rgb(33,33,33)" fill="none" stroke-linecap="round"></path><path d="M 242.000,150.000 C 242.957,150.574 243.000,150.500 244.000,151.000" stroke-width="16.791" stroke="rgb(33,33,33)" fill="none" stroke-linecap="round"></path><path d="M 244.000,151.000 C 245.000,151.500 244.944,151.736 246.000,152.000" stroke-width="17.001" stroke="rgb(33,33,33)" fill="none" stroke-linecap="round"></path><path d="M 246.000,152.000 C 246.944,152.236 247.000,152.000 248.000,152.000" stroke-width="17.213" stroke="rgb(33,33,33)" fill="none" stroke-linecap="round"></path><path d="M 248.000,152.000 C 249.000,152.000 249.000,152.000 250.000,152.000" stroke-width="17.312" stroke="rgb(33,33,33)" fill="none" stroke-linecap="round"></path><path d="M 250.000,152.000 C 251.000,152.000 251.510,152.653 252.000,152.000" stroke-width="17.445" stroke="rgb(33,33,33)" fill="none" stroke-linecap="round"></path><path d="M 252.000,152.000 C 253.010,150.653 252.434,149.981 253.000,148.000" stroke-width="17.243" stroke="rgb(33,33,33)" fill="none" stroke-linecap="round"></path><path d="M 253.000,148.000 C 253.434,146.481 253.566,146.519 254.000,145.000" stroke-width="17.175" stroke="rgb(33,33,33)" fill="none" stroke-linecap="round"></path><path d="M 254.000,145.000 C 254.566,143.019 254.774,143.034 255.000,141.000" stroke-width="16.992" stroke="rgb(33,33,33)" fill="none" stroke-linecap="round"></path><path d="M 255.000,141.000 C 255.274,138.534 255.000,138.500 255.000,136.000" stroke-width="16.705" stroke="rgb(33,33,33)" fill="none" stroke-linecap="round"></path><path d="M 255.000,136.000 C 255.000,133.500 255.000,133.500 255.000,131.000" stroke-width="16.601" stroke="rgb(33,33,33)" fill="none" stroke-linecap="round"></path><path d="M 255.000,131.000 C 255.000,129.000 255.000,129.000 255.000,127.000" stroke-width="16.365" stroke="rgb(33,33,33)" fill="none" stroke-linecap="round"></path><path d="M 255.000,127.000 C 255.000,124.500 255.000,124.500 255.000,122.000" stroke-width="16.169" stroke="rgb(33,33,33)" fill="none" stroke-linecap="round"></path><path d="M 255.000,122.000 C 255.000,119.500 255.528,119.375 255.000,117.000" stroke-width="16.062" stroke="rgb(33,33,33)" fill="none" stroke-linecap="round"></path><path d="M 255.000,117.000 C 254.528,114.875 253.828,115.071 253.000,113.000" stroke-width="16.056" stroke="rgb(33,33,33)" fill="none" stroke-linecap="round"></path><path d="M 253.000,113.000 C 251.828,110.071 252.172,109.929 251.000,107.000" stroke-width="15.722" stroke="rgb(33,33,33)" fill="none" stroke-linecap="round"></path><path d="M 251.000,107.000 C 250.172,104.929 250.000,105.000 249.000,103.000" stroke-width="15.783" stroke="rgb(33,33,33)" fill="none" stroke-linecap="round"></path><path d="M 249.000,103.000 C 248.000,101.000 248.325,100.766 247.000,99.000" stroke-width="15.792" stroke="rgb(33,33,33)" fill="none" stroke-linecap="round"></path><path d="M 247.000,99.000 C 245.325,96.766 245.000,97.000 243.000,95.000" stroke-width="15.668" stroke="rgb(33,33,33)" fill="none" stroke-linecap="round"></path><path d="M 243.000,95.000 C 241.000,93.000 241.123,92.858 239.000,91.000" stroke-width="15.616" stroke="rgb(33,33,33)" fill="none" stroke-linecap="round"></path><path d="M 239.000,91.000 C 237.123,89.358 237.000,89.500 235.000,88.000" stroke-width="15.578" stroke="rgb(33,33,33)" fill="none" stroke-linecap="round"></path><path d="M 235.000,88.000 C 233.000,86.500 233.000,86.500 231.000,85.000" stroke-width="15.592" stroke="rgb(33,33,33)" fill="none" stroke-linecap="round"></path><path d="M 231.000,85.000 C 229.000,83.500 229.135,83.281 227.000,82.000" stroke-width="15.559" stroke="rgb(33,33,33)" fill="none" stroke-linecap="round"></path><path d="M 227.000,82.000 C 224.135,80.281 224.088,80.287 221.000,79.000" stroke-width="15.339" stroke="rgb(33,33,33)" fill="none" stroke-linecap="round"></path><path d="M 221.000,79.000 C 218.088,77.787 218.000,78.000 215.000,77.000" stroke-width="15.220" stroke="rgb(33,33,33)" fill="none" stroke-linecap="round"></path><path d="M 215.000,77.000 C 212.000,76.000 212.038,75.868 209.000,75.000" stroke-width="15.073" stroke="rgb(33,33,33)" fill="none" stroke-linecap="round"></path><path d="M 209.000,75.000 C 205.038,73.868 204.983,74.062 201.000,73.000" stroke-width="14.762" stroke="rgb(33,33,33)" fill="none" stroke-linecap="round"></path><path d="M 201.000,73.000 C 197.483,72.062 197.559,71.712 194.000,71.000" stroke-width="14.641" stroke="rgb(33,33,33)" fill="none" stroke-linecap="round"></path><path d="M 194.000,71.000 C 190.059,70.212 190.016,70.236 186.000,70.000" stroke-width="14.390" stroke="rgb(33,33,33)" fill="none" stroke-linecap="round"></path><path d="M 186.000,70.000 C 181.516,69.736 181.500,70.000 177.000,70.000" stroke-width="14.144" stroke="rgb(33,33,33)" fill="none" stroke-linecap="round"></path><path d="M 177.000,70.000 C 172.500,70.000 172.500,70.000 168.000,70.000" stroke-width="13.954" stroke="rgb(33,33,33)" fill="none" stroke-linecap="round"></path><path d="M 168.000,70.000 C 162.500,70.000 162.500,70.000 157.000,70.000" stroke-width="13.514" stroke="rgb(33,33,33)" fill="none" stroke-linecap="round"></path><path d="M 157.000,70.000 C 152.500,70.000 152.398,69.306 148.000,70.000" stroke-width="13.458" stroke="rgb(33,33,33)" fill="none" stroke-linecap="round"></path><path d="M 148.000,70.000 C 142.898,70.806 142.783,70.986 138.000,73.000" stroke-width="13.199" stroke="rgb(33,33,33)" fill="none" stroke-linecap="round"></path><path d="M 138.000,73.000 C 133.283,74.986 133.487,75.476 129.000,78.000" stroke-width="13.077" stroke="rgb(33,33,33)" fill="none" stroke-linecap="round"></path><path d="M 129.000,78.000 C 125.487,79.976 125.348,79.768 122.000,82.000" stroke-width="13.204" stroke="rgb(33,33,33)" fill="none" stroke-linecap="round"></path><path d="M 122.000,82.000 C 117.848,84.768 118.000,85.000 114.000,88.000" stroke-width="13.048" stroke="rgb(33,33,33)" fill="none" stroke-linecap="round"></path><path d="M 114.000,88.000 C 110.000,91.000 109.902,90.878 106.000,94.000" stroke-width="12.988" stroke="rgb(33,33,33)" fill="none" stroke-linecap="round"></path><path d="M 106.000,94.000 C 102.402,96.878 102.104,96.637 99.000,100.000" stroke-width="13.016" stroke="rgb(33,33,33)" fill="none" stroke-linecap="round"></path><path d="M 99.000,100.000 C 96.104,103.137 96.500,103.500 94.000,107.000" stroke-width="13.046" stroke="rgb(33,33,33)" fill="none" stroke-linecap="round"></path><path d="M 94.000,107.000 C 91.500,110.500 91.500,110.500 89.000,114.000" stroke-width="13.124" stroke="rgb(33,33,33)" fill="none" stroke-linecap="round"></path><path d="M 89.000,114.000 C 86.500,117.500 86.543,117.532 84.000,121.000" stroke-width="13.133" stroke="rgb(33,33,33)" fill="none" stroke-linecap="round"></path><path d="M 84.000,121.000 C 81.043,125.032 80.639,124.777 78.000,129.000" stroke-width="13.055" stroke="rgb(33,33,33)" fill="none" stroke-linecap="round"></path><path d="M 78.000,129.000 C 75.639,132.777 76.000,133.000 74.000,137.000" stroke-width="13.042" stroke="rgb(33,33,33)" fill="none" stroke-linecap="round"></path><path d="M 74.000,137.000 C 72.000,141.000 72.000,141.000 70.000,145.000" stroke-width="13.086" stroke="rgb(33,33,33)" fill="none" stroke-linecap="round"></path><path d="M 70.000,145.000 C 68.000,149.000 67.698,148.875 66.000,153.000" stroke-width="13.122" stroke="rgb(33,33,33)" fill="none" stroke-linecap="round"></path><path d="M 66.000,153.000 C 64.198,157.375 64.337,157.453 63.000,162.000" stroke-width="13.097" stroke="rgb(33,33,33)" fill="none" stroke-linecap="round"></path><path d="M 63.000,162.000 C 61.837,165.953 61.894,165.976 61.000,170.000" stroke-width="13.149" stroke="rgb(33,33,33)" fill="none" stroke-linecap="round"></path><path d="M 61.000,170.000 C 59.894,174.976 59.954,174.991 59.000,180.000" stroke-width="13.048" stroke="rgb(33,33,33)" fill="none" stroke-linecap="round"></path><path d="M 59.000,180.000 C 57.954,185.491 57.872,185.480 57.000,191.000" stroke-width="12.873" stroke="rgb(33,33,33)" fill="none" stroke-linecap="round"></path><path d="M 57.000,191.000 C 56.372,194.980 56.401,194.990 56.000,199.000" stroke-width="13.036" stroke="rgb(33,33,33)" fill="none" stroke-linecap="round"></path><path d="M 56.000,199.000 C 55.401,204.990 55.261,204.990 55.000,211.000" stroke-width="12.710" stroke="rgb(33,33,33)" fill="none" stroke-linecap="round"></path><path d="M 55.000,211.000 C 54.761,216.490 55.000,216.500 55.000,222.000" stroke-width="12.625" stroke="rgb(33,33,33)" fill="none" stroke-linecap="round"></path><path d="M 55.000,222.000 C 55.000,226.500 54.764,226.512 55.000,231.000" stroke-width="12.743" stroke="rgb(33,33,33)" fill="none" stroke-linecap="round"></path><path d="M 55.000,231.000 C 55.264,236.012 55.255,236.037 56.000,241.000" stroke-width="12.681" stroke="rgb(33,33,33)" fill="none" stroke-linecap="round"></path><path d="M 56.000,241.000 C 56.755,246.037 56.402,246.205 58.000,251.000" stroke-width="12.676" stroke="rgb(33,33,33)" fill="none" stroke-linecap="round"></path><path d="M 58.000,251.000 C 59.402,255.205 59.706,255.177 62.000,259.000" stroke-width="12.738" stroke="rgb(33,33,33)" fill="none" stroke-linecap="round"></path><path d="M 62.000,259.000 C 64.206,262.677 64.500,262.500 67.000,266.000" stroke-width="12.873" stroke="rgb(33,33,33)" fill="none" stroke-linecap="round"></path><path d="M 67.000,266.000 C 69.500,269.500 69.256,269.707 72.000,273.000" stroke-width="13.031" stroke="rgb(33,33,33)" fill="none" stroke-linecap="round"></path><path d="M 72.000,273.000 C 74.256,275.707 74.196,275.897 77.000,278.000" stroke-width="13.222" stroke="rgb(33,33,33)" fill="none" stroke-linecap="round"></path><path d="M 77.000,278.000 C 80.196,280.397 80.605,279.840 84.000,282.000" stroke-width="13.321" stroke="rgb(33,33,33)" fill="none" stroke-linecap="round"></path><path d="M 84.000,282.000 C 86.105,283.340 85.792,283.896 88.000,285.000" stroke-width="13.695" stroke="rgb(33,33,33)" fill="none" stroke-linecap="round"></path><path d="M 88.000,285.000 C 90.792,286.396 90.921,286.487 94.000,287.000" stroke-width="13.896" stroke="rgb(33,33,33)" fill="none" stroke-linecap="round"></path><path d="M 94.000,287.000 C 96.921,287.487 97.000,287.000 100.000,287.000" stroke-width="14.098" stroke="rgb(33,33,33)" fill="none" stroke-linecap="round"></path><path d="M 100.000,287.000 C 103.500,287.000 103.500,287.000 107.000,287.000" stroke-width="14.095" stroke="rgb(33,33,33)" fill="none" stroke-linecap="round"></path><path d="M 107.000,287.000 C 110.500,287.000 110.727,287.818 114.000,287.000" stroke-width="14.144" stroke="rgb(33,33,33)" fill="none" stroke-linecap="round"></path><path d="M 114.000,287.000 C 116.727,286.318 116.760,285.833 119.000,284.000" stroke-width="14.322" stroke="rgb(33,33,33)" fill="none" stroke-linecap="round"></path><path d="M 119.000,284.000 C 122.260,281.333 122.150,281.135 125.000,278.000" stroke-width="14.151" stroke="rgb(33,33,33)" fill="none" stroke-linecap="round"></path><path d="M 125.000,278.000 C 127.150,275.635 127.401,275.740 129.000,273.000" stroke-width="14.212" stroke="rgb(33,33,33)" fill="none" stroke-linecap="round"></path><path d="M 129.000,273.000 C 130.901,269.740 130.500,269.500 132.000,266.000" stroke-width="14.166" stroke="rgb(33,33,33)" fill="none" stroke-linecap="round"></path><path d="M 132.000,266.000 C 133.500,262.500 133.888,262.614 135.000,259.000" stroke-width="14.075" stroke="rgb(33,33,33)" fill="none" stroke-linecap="round"></path><path d="M 135.000,259.000 C 135.888,256.114 135.598,256.014 136.000,253.000" stroke-width="14.235" stroke="rgb(33,33,33)" fill="none" stroke-linecap="round"></path><path d="M 136.000,253.000 C 136.598,248.514 136.735,248.513 137.000,244.000" stroke-width="14.018" stroke="rgb(33,33,33)" fill="none" stroke-linecap="round"></path><path d="M 137.000,244.000 C 137.235,240.013 137.000,240.000 137.000,236.000" stroke-width="13.911" stroke="rgb(33,33,33)" fill="none" stroke-linecap="round"></path><path d="M 137.000,236.000 C 137.000,231.000 137.770,230.875 137.000,226.000" stroke-width="13.662" stroke="rgb(33,33,33)" fill="none" stroke-linecap="round"></path><path d="M 137.000,226.000 C 136.270,221.375 135.717,221.416 134.000,217.000" stroke-width="13.524" stroke="rgb(33,33,33)" fill="none" stroke-linecap="round"></path><path d="M 134.000,217.000 C 132.217,212.416 132.200,212.400 130.000,208.000" stroke-width="13.314" stroke="rgb(33,33,33)" fill="none" stroke-linecap="round"></path><path d="M 130.000,208.000 C 127.700,203.400 127.647,203.412 125.000,199.000" stroke-width="13.167" stroke="rgb(33,33,33)" fill="none" stroke-linecap="round"></path><path d="M 125.000,199.000 C 121.647,193.412 121.808,193.272 118.000,188.000" stroke-width="12.709" stroke="rgb(33,33,33)" fill="none" stroke-linecap="round"></path><path d="M 118.000,188.000 C 115.308,184.272 115.134,184.376 112.000,181.000" stroke-width="12.840" stroke="rgb(33,33,33)" fill="none" stroke-linecap="round"></path><path d="M 112.000,181.000 C 108.634,177.376 108.643,177.340 105.000,174.000" stroke-width="12.773" stroke="rgb(33,33,33)" fill="none" stroke-linecap="round"></path><path d="M 105.000,174.000 C 102.643,171.840 102.389,172.124 100.000,170.000" stroke-width="13.078" stroke="rgb(33,33,33)" fill="none" stroke-linecap="round"></path><path d="M 100.000,170.000 C 97.889,168.124 98.234,167.675 96.000,166.000" stroke-width="13.453" stroke="rgb(33,33,33)" fill="none" stroke-linecap="round"></path><path d="M 96.000,166.000 C 94.234,164.675 94.000,165.000 92.000,164.000" stroke-width="13.900" stroke="rgb(33,33,33)" fill="none" stroke-linecap="round"></path><path d="M 92.000,164.000 C 91.000,163.500 91.036,163.345 90.000,163.000" stroke-width="14.550" stroke="rgb(33,33,33)" fill="none" stroke-linecap="round"></path><path d="M 90.000,163.000 C 89.536,162.845 89.250,162.750 89.000,163.000" stroke-width="15.281" stroke="rgb(33,33,33)" fill="none" stroke-linecap="round"></path><path d="M 89.000,163.000 C 88.750,163.250 89.000,163.500 89.000,164.000" stroke-width="15.993" stroke="rgb(33,33,33)" fill="none" stroke-linecap="round"></path><path d="M 89.000,164.000 C 89.000,166.500 88.234,166.703 89.000,169.000" stroke-width="15.877" stroke="rgb(33,33,33)" fill="none" stroke-linecap="round"></path><path d="M 89.000,169.000 C 90.234,172.703 90.926,172.544 93.000,176.000" stroke-width="15.397" stroke="rgb(33,33,33)" fill="none" stroke-linecap="round"></path><path d="M 93.000,176.000 C 95.426,180.044 95.438,180.040 98.000,184.000" stroke-width="14.855" stroke="rgb(33,33,33)" fill="none" stroke-linecap="round"></path><path d="M 98.000,184.000 C 100.938,188.540 101.053,188.466 104.000,193.000" stroke-width="14.203" stroke="rgb(33,33,33)" fill="none" stroke-linecap="round"></path><path d="M 104.000,193.000 C 107.553,198.466 107.500,198.500 111.000,204.000" stroke-width="13.554" stroke="rgb(33,33,33)" fill="none" stroke-linecap="round"></path><path d="M 111.000,204.000 C 114.500,209.500 114.886,209.291 118.000,215.000" stroke-width="12.996" stroke="rgb(33,33,33)" fill="none" stroke-linecap="round"></path><path d="M 118.000,215.000 C 120.886,220.291 120.300,220.601 123.000,226.000" stroke-width="12.810" stroke="rgb(33,33,33)" fill="none" stroke-linecap="round"></path><path d="M 123.000,226.000 C 125.300,230.601 125.700,230.400 128.000,235.000" stroke-width="12.709" stroke="rgb(33,33,33)" fill="none" stroke-linecap="round"></path><path d="M 128.000,235.000 C 130.200,239.400 129.904,239.545 132.000,244.000" stroke-width="12.674" stroke="rgb(33,33,33)" fill="none" stroke-linecap="round"></path><path d="M 132.000,244.000 C 133.904,248.045 133.785,248.125 136.000,252.000" stroke-width="12.789" stroke="rgb(33,33,33)" fill="none" stroke-linecap="round"></path><path d="M 136.000,252.000 C 137.785,255.125 138.283,254.851 140.000,258.000" stroke-width="13.007" stroke="rgb(33,33,33)" fill="none" stroke-linecap="round"></path><path d="M 140.000,258.000 C 141.283,260.351 140.800,260.599 142.000,263.000" stroke-width="13.452" stroke="rgb(33,33,33)" fill="none" stroke-linecap="round"></path><path d="M 142.000,263.000 C 143.300,265.599 143.703,265.407 145.000,268.000" stroke-width="13.709" stroke="rgb(33,33,33)" fill="none" stroke-linecap="round"></path><path d="M 145.000,268.000 C 145.703,269.407 145.743,269.460 146.000,271.000" stroke-width="14.271" stroke="rgb(33,33,33)" fill="none" stroke-linecap="round"></path><path d="M 146.000,271.000 C 146.243,272.460 146.000,272.500 146.000,274.000" stroke-width="14.776" stroke="rgb(33,33,33)" fill="none" stroke-linecap="round"></path><path d="M 146.000,274.000 C 146.000,276.000 146.000,276.000 146.000,278.000" stroke-width="15.041" stroke="rgb(33,33,33)" fill="none" stroke-linecap="round"></path><path d="M 146.000,278.000 C 146.000,279.500 146.798,279.883 146.000,281.000" stroke-width="15.430" stroke="rgb(33,33,33)" fill="none" stroke-linecap="round"></path><path d="M 146.000,281.000 C 144.298,283.383 143.246,282.754 141.000,285.000" stroke-width="15.226" stroke="rgb(33,33,33)" fill="none" stroke-linecap="round"></path><path d="M 141.000,285.000 C 139.246,286.754 139.623,287.107 138.000,289.000" stroke-width="15.309" stroke="rgb(33,33,33)" fill="none" stroke-linecap="round"></path><path d="M 138.000,289.000 C 136.623,290.607 136.622,290.649 135.000,292.000" stroke-width="15.480" stroke="rgb(33,33,33)" fill="none" stroke-linecap="round"></path><path d="M 135.000,292.000 C 133.622,293.149 133.401,292.879 132.000,294.000" stroke-width="15.711" stroke="rgb(33,33,33)" fill="none" stroke-linecap="round"></path><path d="M 132.000,294.000 C 130.901,294.879 129.613,296.000 130.000,296.000" stroke-width="15.989" stroke="rgb(33,33,33)" fill="none" stroke-linecap="round"></path><path d="M 130.000,296.000 C 130.613,296.000 132.070,295.126 134.000,294.000" stroke-width="16.510" stroke="rgb(33,33,33)" fill="none" stroke-linecap="round"></path><path d="M 134.000,294.000 C 138.070,291.626 138.182,291.757 142.000,289.000" stroke-width="15.671" stroke="rgb(33,33,33)" fill="none" stroke-linecap="round"></path><path d="M 142.000,289.000 C 147.182,285.257 147.123,285.145 152.000,281.000" stroke-width="14.528" stroke="rgb(33,33,33)" fill="none" stroke-linecap="round"></path><path d="M 152.000,281.000 C 157.123,276.645 157.012,276.513 162.000,272.000" stroke-width="13.744" stroke="rgb(33,33,33)" fill="none" stroke-linecap="round"></path><path d="M 162.000,272.000 C 167.512,267.013 167.521,267.023 173.000,262.000" stroke-width="13.034" stroke="rgb(33,33,33)" fill="none" stroke-linecap="round"></path><path d="M 173.000,262.000 C 179.521,256.023 179.750,256.250 186.000,250.000" stroke-width="12.265" stroke="rgb(33,33,33)" fill="none" stroke-linecap="round"></path><path d="M 186.000,250.000 C 191.750,244.250 191.479,243.981 197.000,238.000" stroke-width="11.744" stroke="rgb(33,33,33)" fill="none" stroke-linecap="round"></path><path d="M 197.000,238.000 C 203.479,230.981 203.510,231.009 210.000,224.000" stroke-width="11.224" stroke="rgb(33,33,33)" fill="none" stroke-linecap="round"></path><path d="M 210.000,224.000 C 216.010,217.509 216.011,217.510 222.000,211.000" stroke-width="10.861" stroke="rgb(33,33,33)" fill="none" stroke-linecap="round"></path><path d="M 222.000,211.000 C 227.511,205.010 227.489,204.990 233.000,199.000" stroke-width="10.753" stroke="rgb(33,33,33)" fill="none" stroke-linecap="round"></path><path d="M 233.000,199.000 C 238.989,192.490 239.050,192.545 245.000,186.000" stroke-width="10.576" stroke="rgb(33,33,33)" fill="none" stroke-linecap="round"></path><path d="M 245.000,186.000 C 249.050,181.545 249.176,181.644 253.000,177.000" stroke-width="10.809" stroke="rgb(33,33,33)" fill="none" stroke-linecap="round"></path><path d="M 253.000,177.000 C 256.176,173.144 255.878,172.902 259.000,169.000" stroke-width="11.104" stroke="rgb(33,33,33)" fill="none" stroke-linecap="round"></path><path d="M 259.000,169.000 C 261.878,165.402 261.876,165.385 265.000,162.000" stroke-width="11.414" stroke="rgb(33,33,33)" fill="none" stroke-linecap="round"></path><path d="M 265.000,162.000 C 267.876,158.885 268.297,159.244 271.000,156.000" stroke-width="11.779" stroke="rgb(33,33,33)" fill="none" stroke-linecap="round"></path><path d="M 271.000,156.000 C 273.297,153.244 272.796,152.833 275.000,150.000" stroke-width="12.197" stroke="rgb(33,33,33)" fill="none" stroke-linecap="round"></path><path d="M 275.000,150.000 C 276.296,148.333 276.500,148.500 278.000,147.000" stroke-width="12.807" stroke="rgb(33,33,33)" fill="none" stroke-linecap="round"></path><circle r="6" cx="125" cy="163" fill="rgb(33,33,33)"></circle></svg>