<svg xmlns="http://www.w3.org/2000/svg" xmlns:xlink="http://www.w3.org/1999/xlink" viewBox="0 0 667 500"><path d="M 39.000,177.000 C 38.500,180.000 38.151,179.971 38.000,183.000" stroke-width="20.011" stroke="rgb(33,33,33)" fill="none" stroke-linecap="round"></path><path d="M 38.000,183.000 C 37.651,189.971 37.535,190.029 38.000,197.000" stroke-width="16.928" stroke="rgb(33,33,33)" fill="none" stroke-linecap="round"></path><path d="M 38.000,197.000 C 38.535,205.029 38.793,205.031 40.000,213.000" stroke-width="15.156" stroke="rgb(33,33,33)" fill="none" stroke-linecap="round"></path><path d="M 40.000,213.000 C 41.293,221.531 41.581,221.487 43.000,230.000" stroke-width="13.639" stroke="rgb(33,33,33)" fill="none" stroke-linecap="round"></path><path d="M 43.000,230.000 C 44.081,236.487 43.712,236.558 45.000,243.000" stroke-width="13.046" stroke="rgb(33,33,33)" fill="none" stroke-linecap="round"></path><path d="M 45.000,243.000 C 46.212,249.058 46.226,249.085 48.000,255.000" stroke-width="12.758" stroke="rgb(33,33,33)" fill="none" stroke-linecap="round"></path><path d="M 48.000,255.000 C 49.226,259.085 49.747,258.929 51.000,263.000" stroke-width="12.844" stroke="rgb(33,33,33)" fill="none" stroke-linecap="round"></path><path d="M 51.000,263.000 C 51.747,265.429 51.121,265.657 52.000,268.000" stroke-width="13.311" stroke="rgb(33,33,33)" fill="none" stroke-linecap="round"></path><path d="M 52.000,268.000 C 52.621,269.657 53.217,269.434 54.000,271.000" stroke-width="13.875" stroke="rgb(33,33,33)" fill="none" stroke-linecap="round"></path><path d="M 54.000,271.000 C 54.217,271.434 53.793,271.586 54.000,272.000" stroke-width="14.673" stroke="rgb(33,33,33)" fill="none" stroke-linecap="round"></path><path d="M 54.000,272.000 C 54.293,272.586 54.414,272.707 55.000,273.000" stroke-width="15.333" stroke="rgb(33,33,33)" fill="none" stroke-linecap="round"></path><path d="M 55.000,273.000 C 55.414,273.207 55.586,273.207 56.000,273.000" stroke-width="16.038" stroke="rgb(33,33,33)" fill="none" stroke-linecap="round"></path><path d="M 56.000,273.000 C 56.586,272.707 56.869,272.653 57.000,272.000" stroke-width="16.675" stroke="rgb(33,33,33)" fill="none" stroke-linecap="round"></path><path d="M 57.000,272.000 C 57.369,270.153 56.390,269.831 57.000,268.000" stroke-width="16.654" stroke="rgb(33,33,33)" fill="none" stroke-linecap="round"></path><path d="M 57.000,268.000 C 57.890,265.331 58.619,265.565 60.000,263.000" stroke-width="16.313" stroke="rgb(33,33,33)" fill="none" stroke-linecap="round"></path><path d="M 60.000,263.000 C 62.119,259.065 62.000,259.000 64.000,255.000" stroke-width="15.597" stroke="rgb(33,33,33)" fill="none" stroke-linecap="round"></path><path d="M 64.000,255.000 C 67.500,248.000 67.390,247.942 71.000,241.000" stroke-width="13.991" stroke="rgb(33,33,33)" fill="none" stroke-linecap="round"></path><path d="M 71.000,241.000 C 73.890,235.442 74.200,235.600 77.000,230.000" stroke-width="13.453" stroke="rgb(33,33,33)" fill="none" stroke-linecap="round"></path><path d="M 77.000,230.000 C 80.200,223.600 79.902,223.453 83.000,217.000" stroke-width="12.876" stroke="rgb(33,33,33)" fill="none" stroke-linecap="round"></path><path d="M 83.000,217.000 C 85.902,210.953 85.562,210.729 89.000,205.000" stroke-width="12.531" stroke="rgb(33,33,33)" fill="none" stroke-linecap="round"></path><path d="M 89.000,205.000 C 91.562,200.729 92.095,201.067 95.000,197.000" stroke-width="12.517" stroke="rgb(33,33,33)" fill="none" stroke-linecap="round"></path><path d="M 95.000,197.000 C 97.095,194.067 97.148,194.086 99.000,191.000" stroke-width="12.862" stroke="rgb(33,33,33)" fill="none" stroke-linecap="round"></path><path d="M 99.000,191.000 C 100.148,189.086 99.775,188.838 101.000,187.000" stroke-width="13.363" stroke="rgb(33,33,33)" fill="none" stroke-linecap="round"></path><path d="M 101.000,187.000 C 101.775,185.838 102.261,186.108 103.000,185.000" stroke-width="13.988" stroke="rgb(33,33,33)" fill="none" stroke-linecap="round"></path><path d="M 103.000,248.000 C 102.500,250.500 102.230,250.473 102.000,253.000" stroke-width="20.010" stroke="rgb(33,33,33)" fill="none" stroke-linecap="round"></path><path d="M 102.000,253.000 C 101.730,255.973 102.000,256.000 102.000,259.000" stroke-width="18.877" stroke="rgb(33,33,33)" fill="none" stroke-linecap="round"></path><path d="M 102.000,259.000 C 102.000,263.000 102.000,263.000 102.000,267.000" stroke-width="17.791" stroke="rgb(33,33,33)" fill="none" stroke-linecap="round"></path><path d="M 102.000,267.000 C 102.000,269.000 102.000,269.000 102.000,271.000" stroke-width="17.448" stroke="rgb(33,33,33)" fill="none" stroke-linecap="round"></path><path d="M 102.000,271.000 C 102.000,272.500 102.000,272.500 102.000,274.000" stroke-width="17.118" stroke="rgb(33,33,33)" fill="none" stroke-linecap="round"></path><circle r="6" cx="118" cy="232" fill="rgb(33,33,33)"></circle><path d="M 163.000,255.000 C 161.000,253.000 161.287,252.307 159.000,251.000" stroke-width="20.004" stroke="rgb(33,33,33)" fill="none" stroke-linecap="round"></path><path d="M 159.000,251.000 C 157.787,250.307 157.500,251.000 156.000,251.000" stroke-width="19.335" stroke="rgb(33,33,33)" fill="none" stroke-linecap="round"></path><path d="M 156.000,251.000 C 154.000,251.000 154.000,251.000 152.000,251.000" stroke-width="18.710" stroke="rgb(33,33,33)" fill="none" stroke-linecap="round"></path><path d="M 152.000,251.000 C 150.000,251.000 150.000,251.000 148.000,251.000" stroke-width="18.238" stroke="rgb(33,33,33)" fill="none" stroke-linecap="round"></path><path d="M 148.000,251.000 C 146.500,251.000 146.460,250.757 145.000,251.000" stroke-width="17.851" stroke="rgb(33,33,33)" fill="none" stroke-linecap="round"></path><path d="M 145.000,251.000 C 143.460,251.257 143.281,251.146 142.000,252.000" stroke-width="17.690" stroke="rgb(33,33,33)" fill="none" stroke-linecap="round"></path><path d="M 142.000,252.000 C 140.281,253.146 140.351,253.378 139.000,255.000" stroke-width="17.372" stroke="rgb(33,33,33)" fill="none" stroke-linecap="round"></path><path d="M 139.000,255.000 C 137.851,256.378 138.121,256.599 137.000,258.000" stroke-width="17.235" stroke="rgb(33,33,33)" fill="none" stroke-linecap="round"></path><path d="M 137.000,258.000 C 136.121,259.099 135.708,258.820 135.000,260.000" stroke-width="17.260" stroke="rgb(33,33,33)" fill="none" stroke-linecap="round"></path><path d="M 135.000,260.000 C 134.208,261.320 134.306,261.469 134.000,263.000" stroke-width="17.188" stroke="rgb(33,33,33)" fill="none" stroke-linecap="round"></path><path d="M 134.000,263.000 C 133.806,263.969 134.000,264.000 134.000,265.000" stroke-width="17.367" stroke="rgb(33,33,33)" fill="none" stroke-linecap="round"></path><path d="M 134.000,265.000 C 134.000,265.500 134.000,265.500 134.000,266.000" stroke-width="17.692" stroke="rgb(33,33,33)" fill="none" stroke-linecap="round"></path><path d="M 134.000,266.000 C 134.000,266.500 133.739,266.608 134.000,267.000" stroke-width="17.949" stroke="rgb(33,33,33)" fill="none" stroke-linecap="round"></path><path d="M 134.000,267.000 C 134.739,268.108 134.873,268.155 136.000,269.000" stroke-width="17.796" stroke="rgb(33,33,33)" fill="none" stroke-linecap="round"></path><path d="M 136.000,269.000 C 138.873,271.155 138.875,271.215 142.000,273.000" stroke-width="16.943" stroke="rgb(33,33,33)" fill="none" stroke-linecap="round"></path><path d="M 142.000,273.000 C 145.875,275.215 145.955,275.096 150.000,277.000" stroke-width="16.054" stroke="rgb(33,33,33)" fill="none" stroke-linecap="round"></path><path d="M 150.000,277.000 C 154.455,279.096 154.298,279.763 159.000,281.000" stroke-width="15.284" stroke="rgb(33,33,33)" fill="none" stroke-linecap="round"></path><path d="M 159.000,281.000 C 163.798,282.263 163.988,281.736 169.000,282.000" stroke-width="14.693" stroke="rgb(33,33,33)" fill="none" stroke-linecap="round"></path><path d="M 201.000,218.000 C 200.500,224.000 200.286,223.991 200.000,230.000" stroke-width="19.301" stroke="rgb(33,33,33)" fill="none" stroke-linecap="round"></path><path d="M 200.000,230.000 C 199.786,234.491 200.224,234.510 200.000,239.000" stroke-width="17.682" stroke="rgb(33,33,33)" fill="none" stroke-linecap="round"></path><path d="M 200.000,239.000 C 199.724,244.510 199.685,244.523 199.000,250.000" stroke-width="16.251" stroke="rgb(33,33,33)" fill="none" stroke-linecap="round"></path><path d="M 199.000,250.000 C 198.185,256.523 197.888,256.485 197.000,263.000" stroke-width="15.244" stroke="rgb(33,33,33)" fill="none" stroke-linecap="round"></path><path d="M 197.000,263.000 C 196.388,267.485 196.562,267.508 196.000,272.000" stroke-width="14.546" stroke="rgb(33,33,33)" fill="none" stroke-linecap="round"></path><path d="M 196.000,272.000 C 195.562,275.508 195.319,275.487 195.000,279.000" stroke-width="14.383" stroke="rgb(33,33,33)" fill="none" stroke-linecap="round"></path><path d="M 175.000,254.000 C 179.500,253.500 179.486,253.251 184.000,253.000" stroke-width="17.774" stroke="rgb(33,33,33)" fill="none" stroke-linecap="round"></path><path d="M 184.000,253.000 C 188.486,252.751 188.500,253.000 193.000,253.000" stroke-width="16.545" stroke="rgb(33,33,33)" fill="none" stroke-linecap="round"></path><path d="M 193.000,253.000 C 197.500,253.000 197.500,253.000 202.000,253.000" stroke-width="15.955" stroke="rgb(33,33,33)" fill="none" stroke-linecap="round"></path><path d="M 202.000,253.000 C 205.000,253.000 205.000,253.000 208.000,253.000" stroke-width="15.748" stroke="rgb(33,33,33)" fill="none" stroke-linecap="round"></path><path d="M 208.000,253.000 C 211.000,253.000 211.000,253.000 214.000,253.000" stroke-width="15.473" stroke="rgb(33,33,33)" fill="none" stroke-linecap="round"></path><path d="M 214.000,253.000 C 216.500,253.000 216.550,252.694 219.000,253.000" stroke-width="15.464" stroke="rgb(33,33,33)" fill="none" stroke-linecap="round"></path><path d="M 238.000,255.000 C 234.500,254.500 234.511,254.351 231.000,254.000" stroke-width="19.693" stroke="rgb(33,33,33)" fill="none" stroke-linecap="round"></path><path d="M 231.000,254.000 C 229.511,253.851 229.405,253.599 228.000,254.000" stroke-width="19.101" stroke="rgb(33,33,33)" fill="none" stroke-linecap="round"></path><path d="M 228.000,254.000 C 225.905,254.599 225.766,254.675 224.000,256.000" stroke-width="18.397" stroke="rgb(33,33,33)" fill="none" stroke-linecap="round"></path><path d="M 224.000,256.000 C 221.766,257.675 221.675,257.766 220.000,260.000" stroke-width="17.653" stroke="rgb(33,33,33)" fill="none" stroke-linecap="round"></path><path d="M 220.000,260.000 C 218.675,261.766 219.000,262.000 218.000,264.000" stroke-width="17.255" stroke="rgb(33,33,33)" fill="none" stroke-linecap="round"></path><path d="M 218.000,264.000 C 217.000,266.000 216.691,265.927 216.000,268.000" stroke-width="16.995" stroke="rgb(33,33,33)" fill="none" stroke-linecap="round"></path><path d="M 216.000,268.000 C 215.691,268.927 216.000,269.000 216.000,270.000" stroke-width="17.209" stroke="rgb(33,33,33)" fill="none" stroke-linecap="round"></path><path d="M 216.000,270.000 C 216.000,271.000 216.000,271.000 216.000,272.000" stroke-width="17.361" stroke="rgb(33,33,33)" fill="none" stroke-linecap="round"></path><path d="M 216.000,272.000 C 216.000,272.500 215.590,272.836 216.000,273.000" stroke-width="17.698" stroke="rgb(33,33,33)" fill="none" stroke-linecap="round"></path><path d="M 216.000,273.000 C 218.090,273.836 218.475,273.748 221.000,274.000" stroke-width="17.278" stroke="rgb(33,33,33)" fill="none" stroke-linecap="round"></path><path d="M 221.000,274.000 C 223.475,274.248 223.500,274.000 226.000,274.000" stroke-width="16.749" stroke="rgb(33,33,33)" fill="none" stroke-linecap="round"></path><path d="M 226.000,274.000 C 228.500,274.000 228.808,274.877 231.000,274.000" stroke-width="16.467" stroke="rgb(33,33,33)" fill="none" stroke-linecap="round"></path><path d="M 231.000,274.000 C 233.808,272.877 233.939,272.355 236.000,270.000" stroke-width="16.083" stroke="rgb(33,33,33)" fill="none" stroke-linecap="round"></path><path d="M 236.000,270.000 C 237.439,268.355 237.220,268.081 238.000,266.000" stroke-width="16.073" stroke="rgb(33,33,33)" fill="none" stroke-linecap="round"></path><path d="M 238.000,266.000 C 238.720,264.081 238.711,264.026 239.000,262.000" stroke-width="16.117" stroke="rgb(33,33,33)" fill="none" stroke-linecap="round"></path><path d="M 239.000,262.000 C 239.211,260.526 239.000,260.500 239.000,259.000" stroke-width="16.325" stroke="rgb(33,33,33)" fill="none" stroke-linecap="round"></path><path d="M 239.000,259.000 C 239.000,258.500 239.309,258.309 239.000,258.000" stroke-width="16.817" stroke="rgb(33,33,33)" fill="none" stroke-linecap="round"></path><path d="M 239.000,258.000 C 238.309,257.309 238.036,257.345 237.000,257.000" stroke-width="16.999" stroke="rgb(33,33,33)" fill="none" stroke-linecap="round"></path><path d="M 263.000,258.000 C 264.000,261.500 264.292,261.459 265.000,265.000" stroke-width="19.897" stroke="rgb(33,33,33)" fill="none" stroke-linecap="round"></path><path d="M 265.000,265.000 C 265.292,266.459 265.000,266.500 265.000,268.000" stroke-width="19.295" stroke="rgb(33,33,33)" fill="none" stroke-linecap="round"></path><path d="M 265.000,268.000 C 265.000,269.000 265.000,269.000 265.000,270.000" stroke-width="19.092" stroke="rgb(33,33,33)" fill="none" stroke-linecap="round"></path><path d="M 265.000,270.000 C 265.000,271.000 265.000,271.000 265.000,272.000" stroke-width="18.863" stroke="rgb(33,33,33)" fill="none" stroke-linecap="round"></path><path d="M 265.000,272.000 C 265.000,272.500 265.000,272.500 265.000,273.000" stroke-width="18.887" stroke="rgb(33,33,33)" fill="none" stroke-linecap="round"></path><path d="M 265.000,273.000 C 265.000,273.500 265.000,274.000 265.000,274.000" stroke-width="18.921" stroke="rgb(33,33,33)" fill="none" stroke-linecap="round"></path><path d="M 265.000,274.000 C 265.000,274.000 265.000,273.500 265.000,273.000" stroke-width="19.099" stroke="rgb(33,33,33)" fill="none" stroke-linecap="round"></path><path d="M 265.000,273.000 C 265.000,272.000 265.000,272.000 265.000,271.000" stroke-width="18.918" stroke="rgb(33,33,33)" fill="none" stroke-linecap="round"></path><path d="M 265.000,271.000 C 265.000,269.500 264.546,269.362 265.000,268.000" stroke-width="18.513" stroke="rgb(33,33,33)" fill="none" stroke-linecap="round"></path><path d="M 265.000,268.000 C 265.546,266.362 266.107,266.562 267.000,265.000" stroke-width="18.121" stroke="rgb(33,33,33)" fill="none" stroke-linecap="round"></path><path d="M 267.000,265.000 C 268.107,263.062 267.820,262.889 269.000,261.000" stroke-width="17.661" stroke="rgb(33,33,33)" fill="none" stroke-linecap="round"></path><path d="M 269.000,261.000 C 270.320,258.889 270.250,258.750 272.000,257.000" stroke-width="17.164" stroke="rgb(33,33,33)" fill="none" stroke-linecap="round"></path><path d="M 272.000,257.000 C 273.750,255.250 273.889,255.320 276.000,254.000" stroke-width="16.838" stroke="rgb(33,33,33)" fill="none" stroke-linecap="round"></path><path d="M 276.000,254.000 C 277.889,252.820 277.958,252.907 280.000,252.000" stroke-width="16.670" stroke="rgb(33,33,33)" fill="none" stroke-linecap="round"></path><path d="M 280.000,252.000 C 282.458,250.907 282.432,250.790 285.000,250.000" stroke-width="16.342" stroke="rgb(33,33,33)" fill="none" stroke-linecap="round"></path><path d="M 360.000,220.000 C 358.000,227.000 357.057,226.868 356.000,234.000" stroke-width="19.418" stroke="rgb(33,33,33)" fill="none" stroke-linecap="round"></path><path d="M 356.000,234.000 C 355.057,240.368 356.000,240.500 356.000,247.000" stroke-width="16.921" stroke="rgb(33,33,33)" fill="none" stroke-linecap="round"></path><path d="M 356.000,247.000 C 356.000,251.500 356.000,251.500 356.000,256.000" stroke-width="16.105" stroke="rgb(33,33,33)" fill="none" stroke-linecap="round"></path><path d="M 356.000,256.000 C 356.000,260.000 356.000,260.000 356.000,264.000" stroke-width="15.639" stroke="rgb(33,33,33)" fill="none" stroke-linecap="round"></path><path d="M 356.000,264.000 C 356.000,267.000 356.000,267.000 356.000,270.000" stroke-width="15.323" stroke="rgb(33,33,33)" fill="none" stroke-linecap="round"></path><path d="M 334.000,225.000 C 332.500,221.500 332.188,221.564 331.000,218.000" stroke-width="19.651" stroke="rgb(33,33,33)" fill="none" stroke-linecap="round"></path><path d="M 331.000,218.000 C 330.688,217.064 330.586,216.828 331.000,216.000" stroke-width="19.297" stroke="rgb(33,33,33)" fill="none" stroke-linecap="round"></path><path d="M 331.000,216.000 C 331.586,214.828 331.857,214.817 333.000,214.000" stroke-width="18.876" stroke="rgb(33,33,33)" fill="none" stroke-linecap="round"></path><path d="M 333.000,214.000 C 335.357,212.317 335.363,212.217 338.000,211.000" stroke-width="17.971" stroke="rgb(33,33,33)" fill="none" stroke-linecap="round"></path><path d="M 338.000,211.000 C 341.863,209.217 341.912,209.202 346.000,208.000" stroke-width="16.760" stroke="rgb(33,33,33)" fill="none" stroke-linecap="round"></path><path d="M 346.000,208.000 C 350.412,206.702 350.473,206.862 355.000,206.000" stroke-width="15.882" stroke="rgb(33,33,33)" fill="none" stroke-linecap="round"></path><path d="M 355.000,206.000 C 360.973,204.862 360.961,204.525 367.000,204.000" stroke-width="14.855" stroke="rgb(33,33,33)" fill="none" stroke-linecap="round"></path><path d="M 367.000,204.000 C 372.461,203.525 372.500,204.000 378.000,204.000" stroke-width="14.180" stroke="rgb(33,33,33)" fill="none" stroke-linecap="round"></path><path d="M 378.000,204.000 C 382.500,204.000 382.500,204.000 387.000,204.000" stroke-width="13.982" stroke="rgb(33,33,33)" fill="none" stroke-linecap="round"></path><path d="M 387.000,204.000 C 390.000,204.000 390.000,204.000 393.000,204.000" stroke-width="14.207" stroke="rgb(33,33,33)" fill="none" stroke-linecap="round"></path><path d="M 393.000,204.000 C 395.000,204.000 395.000,204.000 397.000,204.000" stroke-width="14.566" stroke="rgb(33,33,33)" fill="none" stroke-linecap="round"></path><path d="M 397.000,204.000 C 397.500,204.000 398.274,203.817 398.000,204.000" stroke-width="15.286" stroke="rgb(33,33,33)" fill="none" stroke-linecap="round"></path><path d="M 398.000,204.000 C 396.774,204.817 396.054,205.120 394.000,206.000" stroke-width="15.746" stroke="rgb(33,33,33)" fill="none" stroke-linecap="round"></path><path d="M 394.000,206.000 C 389.054,208.120 388.979,207.950 384.000,210.000" stroke-width="14.852" stroke="rgb(33,33,33)" fill="none" stroke-linecap="round"></path><path d="M 384.000,210.000 C 380.479,211.450 380.320,211.189 377.000,213.000" stroke-width="14.670" stroke="rgb(33,33,33)" fill="none" stroke-linecap="round"></path><path d="M 377.000,213.000 C 374.820,214.189 375.111,214.680 373.000,216.000" stroke-width="14.816" stroke="rgb(33,33,33)" fill="none" stroke-linecap="round"></path><path d="M 373.000,216.000 C 371.111,217.180 370.899,216.860 369.000,218.000" stroke-width="15.077" stroke="rgb(33,33,33)" fill="none" stroke-linecap="round"></path><path d="M 369.000,218.000 C 368.399,218.360 367.584,218.688 368.000,219.000" stroke-width="15.657" stroke="rgb(33,33,33)" fill="none" stroke-linecap="round"></path><path d="M 368.000,219.000 C 369.584,220.188 370.500,220.000 373.000,221.000" stroke-width="15.991" stroke="rgb(33,33,33)" fill="none" stroke-linecap="round"></path><path d="M 373.000,221.000 C 378.000,223.000 378.139,222.712 383.000,225.000" stroke-width="15.114" stroke="rgb(33,33,33)" fill="none" stroke-linecap="round"></path><path d="M 383.000,225.000 C 386.639,226.712 386.399,227.199 390.000,229.000" stroke-width="14.817" stroke="rgb(33,33,33)" fill="none" stroke-linecap="round"></path><path d="M 390.000,229.000 C 394.399,231.199 394.730,230.598 399.000,233.000" stroke-width="14.296" stroke="rgb(33,33,33)" fill="none" stroke-linecap="round"></path><path d="M 399.000,233.000 C 402.730,235.098 403.008,235.008 406.000,238.000" stroke-width="14.118" stroke="rgb(33,33,33)" fill="none" stroke-linecap="round"></path><path d="M 406.000,238.000 C 408.508,240.508 408.600,240.734 410.000,244.000" stroke-width="14.086" stroke="rgb(33,33,33)" fill="none" stroke-linecap="round"></path><path d="M 410.000,244.000 C 411.600,247.734 411.459,247.943 412.000,252.000" stroke-width="13.993" stroke="rgb(33,33,33)" fill="none" stroke-linecap="round"></path><path d="M 412.000,252.000 C 412.459,255.443 413.182,255.928 412.000,259.000" stroke-width="14.062" stroke="rgb(33,33,33)" fill="none" stroke-linecap="round"></path><path d="M 412.000,259.000 C 410.682,262.428 410.008,262.593 407.000,265.000" stroke-width="13.969" stroke="rgb(33,33,33)" fill="none" stroke-linecap="round"></path><path d="M 407.000,265.000 C 402.508,268.593 402.384,269.042 397.000,271.000" stroke-width="13.528" stroke="rgb(33,33,33)" fill="none" stroke-linecap="round"></path><path d="M 397.000,271.000 C 391.384,273.042 391.049,272.597 385.000,273.000" stroke-width="13.144" stroke="rgb(33,33,33)" fill="none" stroke-linecap="round"></path><path d="M 385.000,273.000 C 376.049,273.597 375.989,273.290 367.000,273.000" stroke-width="12.217" stroke="rgb(33,33,33)" fill="none" stroke-linecap="round"></path><path d="M 367.000,273.000 C 360.489,272.790 360.444,272.879 354.000,272.000" stroke-width="12.058" stroke="rgb(33,33,33)" fill="none" stroke-linecap="round"></path><path d="M 354.000,272.000 C 349.444,271.379 349.470,271.118 345.000,270.000" stroke-width="12.258" stroke="rgb(33,33,33)" fill="none" stroke-linecap="round"></path><path d="M 345.000,270.000 C 341.470,269.118 341.407,269.239 338.000,268.000" stroke-width="12.557" stroke="rgb(33,33,33)" fill="none" stroke-linecap="round"></path><path d="M 338.000,268.000 C 335.907,267.239 335.899,267.140 334.000,266.000" stroke-width="13.126" stroke="rgb(33,33,33)" fill="none" stroke-linecap="round"></path><path d="M 334.000,266.000 C 333.399,265.640 333.293,265.586 333.000,265.000" stroke-width="13.958" stroke="rgb(33,33,33)" fill="none" stroke-linecap="round"></path><path d="M 454.000,258.000 C 451.000,255.500 451.203,255.135 448.000,253.000" stroke-width="19.637" stroke="rgb(33,33,33)" fill="none" stroke-linecap="round"></path><path d="M 448.000,253.000 C 446.703,252.135 446.519,252.434 445.000,252.000" stroke-width="19.064" stroke="rgb(33,33,33)" fill="none" stroke-linecap="round"></path><path d="M 445.000,252.000 C 443.019,251.434 443.030,251.254 441.000,251.000" stroke-width="18.438" stroke="rgb(33,33,33)" fill="none" stroke-linecap="round"></path><path d="M 441.000,251.000 C 439.030,250.754 439.000,251.000 437.000,251.000" stroke-width="17.989" stroke="rgb(33,33,33)" fill="none" stroke-linecap="round"></path><path d="M 437.000,251.000 C 434.000,251.000 433.899,250.473 431.000,251.000" stroke-width="17.226" stroke="rgb(33,33,33)" fill="none" stroke-linecap="round"></path><path d="M 431.000,251.000 C 428.399,251.473 428.401,251.800 426.000,253.000" stroke-width="16.871" stroke="rgb(33,33,33)" fill="none" stroke-linecap="round"></path><path d="M 426.000,253.000 C 423.401,254.300 423.163,254.146 421.000,256.000" stroke-width="16.422" stroke="rgb(33,33,33)" fill="none" stroke-linecap="round"></path><path d="M 421.000,256.000 C 419.663,257.146 420.121,257.599 419.000,259.000" stroke-width="16.443" stroke="rgb(33,33,33)" fill="none" stroke-linecap="round"></path><path d="M 419.000,259.000 C 418.121,260.099 417.414,259.757 417.000,261.000" stroke-width="16.590" stroke="rgb(33,33,33)" fill="none" stroke-linecap="round"></path><path d="M 417.000,261.000 C 416.414,262.757 416.721,263.045 417.000,265.000" stroke-width="16.550" stroke="rgb(33,33,33)" fill="none" stroke-linecap="round"></path><path d="M 417.000,265.000 C 417.221,266.545 416.945,266.945 418.000,268.000" stroke-width="16.653" stroke="rgb(33,33,33)" fill="none" stroke-linecap="round"></path><path d="M 418.000,268.000 C 419.945,269.945 420.289,270.261 423.000,271.000" stroke-width="16.312" stroke="rgb(33,33,33)" fill="none" stroke-linecap="round"></path><path d="M 423.000,271.000 C 425.789,271.761 426.000,271.000 429.000,271.000" stroke-width="15.968" stroke="rgb(33,33,33)" fill="none" stroke-linecap="round"></path><path d="M 429.000,271.000 C 431.000,271.000 431.022,271.220 433.000,271.000" stroke-width="16.051" stroke="rgb(33,33,33)" fill="none" stroke-linecap="round"></path><path d="M 433.000,271.000 C 435.522,270.720 435.950,271.172 438.000,270.000" stroke-width="15.954" stroke="rgb(33,33,33)" fill="none" stroke-linecap="round"></path><path d="M 438.000,270.000 C 439.450,269.172 439.442,268.675 440.000,267.000" stroke-width="16.066" stroke="rgb(33,33,33)" fill="none" stroke-linecap="round"></path><path d="M 440.000,267.000 C 440.942,264.175 440.698,264.016 441.000,261.000" stroke-width="15.821" stroke="rgb(33,33,33)" fill="none" stroke-linecap="round"></path><path d="M 441.000,261.000 C 441.198,259.016 441.000,259.000 441.000,257.000" stroke-width="15.895" stroke="rgb(33,33,33)" fill="none" stroke-linecap="round"></path><path d="M 441.000,257.000 C 441.000,255.000 441.369,254.847 441.000,253.000" stroke-width="15.993" stroke="rgb(33,33,33)" fill="none" stroke-linecap="round"></path><path d="M 477.000,249.000 C 476.500,254.000 476.334,253.992 476.000,259.000" stroke-width="19.536" stroke="rgb(33,33,33)" fill="none" stroke-linecap="round"></path><path d="M 476.000,259.000 C 475.834,261.492 476.000,261.500 476.000,264.000" stroke-width="18.611" stroke="rgb(33,33,33)" fill="none" stroke-linecap="round"></path><path d="M 476.000,264.000 C 476.000,265.500 476.000,265.500 476.000,267.000" stroke-width="18.346" stroke="rgb(33,33,33)" fill="none" stroke-linecap="round"></path><path d="M 476.000,267.000 C 476.000,268.000 475.400,268.600 476.000,269.000" stroke-width="18.322" stroke="rgb(33,33,33)" fill="none" stroke-linecap="round"></path><path d="M 476.000,269.000 C 476.900,269.600 477.500,269.000 479.000,269.000" stroke-width="18.013" stroke="rgb(33,33,33)" fill="none" stroke-linecap="round"></path><path d="M 479.000,269.000 C 481.500,269.000 481.500,269.000 484.000,269.000" stroke-width="17.367" stroke="rgb(33,33,33)" fill="none" stroke-linecap="round"></path><path d="M 484.000,269.000 C 486.500,269.000 486.593,269.481 489.000,269.000" stroke-width="17.040" stroke="rgb(33,33,33)" fill="none" stroke-linecap="round"></path><path d="M 489.000,269.000 C 491.593,268.481 491.667,268.296 494.000,267.000" stroke-width="16.564" stroke="rgb(33,33,33)" fill="none" stroke-linecap="round"></path><path d="M 494.000,267.000 C 496.167,265.796 496.084,265.597 498.000,264.000" stroke-width="16.373" stroke="rgb(33,33,33)" fill="none" stroke-linecap="round"></path><path d="M 498.000,264.000 C 499.084,263.097 499.162,263.117 500.000,262.000" stroke-width="16.609" stroke="rgb(33,33,33)" fill="none" stroke-linecap="round"></path><path d="M 500.000,262.000 C 500.662,261.117 500.309,260.691 501.000,260.000" stroke-width="16.773" stroke="rgb(33,33,33)" fill="none" stroke-linecap="round"></path><path d="M 501.000,260.000 C 501.309,259.691 501.750,260.250 502.000,260.000" stroke-width="17.196" stroke="rgb(33,33,33)" fill="none" stroke-linecap="round"></path><path d="M 502.000,260.000 C 502.250,259.750 502.000,258.833 502.000,259.000" stroke-width="17.550" stroke="rgb(33,33,33)" fill="none" stroke-linecap="round"></path><path d="M 502.000,259.000 C 502.000,259.333 502.000,260.000 502.000,261.000" stroke-width="17.934" stroke="rgb(33,33,33)" fill="none" stroke-linecap="round"></path><path d="M 502.000,261.000 C 502.000,262.500 502.000,262.500 502.000,264.000" stroke-width="17.785" stroke="rgb(33,33,33)" fill="none" stroke-linecap="round"></path><path d="M 502.000,264.000 C 502.000,266.000 502.000,266.000 502.000,268.000" stroke-width="17.563" stroke="rgb(33,33,33)" fill="none" stroke-linecap="round"></path><path d="M 502.000,268.000 C 502.000,270.000 502.000,270.000 502.000,272.000" stroke-width="17.223" stroke="rgb(33,33,33)" fill="none" stroke-linecap="round"></path><path d="M 502.000,272.000 C 502.000,274.000 502.667,274.222 502.000,276.000" stroke-width="17.051" stroke="rgb(33,33,33)" fill="none" stroke-linecap="round"></path><path d="M 502.000,276.000 C 501.167,278.222 500.754,278.246 499.000,280.000" stroke-width="16.699" stroke="rgb(33,33,33)" fill="none" stroke-linecap="round"></path><path d="M 499.000,280.000 C 496.754,282.246 496.684,282.274 494.000,284.000" stroke-width="16.198" stroke="rgb(33,33,33)" fill="none" stroke-linecap="round"></path><path d="M 494.000,284.000 C 489.684,286.774 489.549,286.592 485.000,289.000" stroke-width="15.327" stroke="rgb(33,33,33)" fill="none" stroke-linecap="round"></path><path d="M 485.000,289.000 C 481.049,291.092 481.214,291.595 477.000,293.000" stroke-width="14.794" stroke="rgb(33,33,33)" fill="none" stroke-linecap="round"></path><path d="M 477.000,293.000 C 470.714,295.095 470.587,295.268 464.000,296.000" stroke-width="14.031" stroke="rgb(33,33,33)" fill="none" stroke-linecap="round"></path><path d="M 464.000,296.000 C 457.087,296.768 457.000,296.000 450.000,296.000" stroke-width="13.239" stroke="rgb(33,33,33)" fill="none" stroke-linecap="round"></path><path d="M 450.000,296.000 C 443.000,296.000 442.934,296.603 436.000,296.000" stroke-width="12.749" stroke="rgb(33,33,33)" fill="none" stroke-linecap="round"></path><path d="M 436.000,296.000 C 431.434,295.603 431.377,295.347 427.000,294.000" stroke-width="12.823" stroke="rgb(33,33,33)" fill="none" stroke-linecap="round"></path><path d="M 534.000,261.000 C 535.500,259.500 535.243,258.879 537.000,258.000" stroke-width="19.742" stroke="rgb(33,33,33)" fill="none" stroke-linecap="round"></path><path d="M 537.000,258.000 C 538.243,257.379 538.641,258.340 540.000,258.000" stroke-width="19.179" stroke="rgb(33,33,33)" fill="none" stroke-linecap="round"></path><path d="M 540.000,258.000 C 540.641,257.840 540.707,257.586 541.000,257.000" stroke-width="19.061" stroke="rgb(33,33,33)" fill="none" stroke-linecap="round"></path><path d="M 541.000,257.000 C 541.207,256.586 541.441,256.110 541.000,256.000" stroke-width="19.183" stroke="rgb(33,33,33)" fill="none" stroke-linecap="round"></path><path d="M 541.000,256.000 C 537.441,255.110 537.013,255.287 533.000,255.000" stroke-width="17.856" stroke="rgb(33,33,33)" fill="none" stroke-linecap="round"></path><path d="M 533.000,255.000 C 530.013,254.787 530.000,255.000 527.000,255.000" stroke-width="17.056" stroke="rgb(33,33,33)" fill="none" stroke-linecap="round"></path><path d="M 527.000,255.000 C 524.500,255.000 524.192,254.123 522.000,255.000" stroke-width="16.755" stroke="rgb(33,33,33)" fill="none" stroke-linecap="round"></path><path d="M 522.000,255.000 C 519.192,256.123 517.920,256.241 517.000,259.000" stroke-width="16.240" stroke="rgb(33,33,33)" fill="none" stroke-linecap="round"></path><path d="M 517.000,259.000 C 515.420,263.741 516.031,264.671 517.000,270.000" stroke-width="15.168" stroke="rgb(33,33,33)" fill="none" stroke-linecap="round"></path><path d="M 517.000,270.000 C 518.031,275.671 517.657,276.463 521.000,281.000" stroke-width="14.405" stroke="rgb(33,33,33)" fill="none" stroke-linecap="round"></path><path d="M 521.000,281.000 C 524.657,285.963 525.880,285.160 531.000,289.000" stroke-width="13.639" stroke="rgb(33,33,33)" fill="none" stroke-linecap="round"></path><path d="M 531.000,289.000 C 535.880,292.660 535.588,293.436 541.000,296.000" stroke-width="13.293" stroke="rgb(33,33,33)" fill="none" stroke-linecap="round"></path><path d="M 541.000,296.000 C 545.088,297.936 545.687,296.562 550.000,298.000" stroke-width="13.201" stroke="rgb(33,33,33)" fill="none" stroke-linecap="round"></path><path d="M 550.000,298.000 C 551.687,298.562 551.392,299.357 553.000,300.000" stroke-width="13.755" stroke="rgb(33,33,33)" fill="none" stroke-linecap="round"></path><path d="M 553.000,300.000 C 553.892,300.357 555.200,300.000 555.000,300.000" stroke-width="14.451" stroke="rgb(33,33,33)" fill="none" stroke-linecap="round"></path><path d="M 555.000,300.000 C 554.700,300.000 553.481,300.222 552.000,300.000" stroke-width="14.906" stroke="rgb(33,33,33)" fill="none" stroke-linecap="round"></path><path d="M 552.000,300.000 C 543.481,298.722 543.506,298.467 535.000,297.000" stroke-width="13.591" stroke="rgb(33,33,33)" fill="none" stroke-linecap="round"></path><path d="M 535.000,297.000 C 529.006,295.967 529.035,295.575 523.000,295.000" stroke-width="13.322" stroke="rgb(33,33,33)" fill="none" stroke-linecap="round"></path><path d="M 523.000,295.000 C 518.535,294.575 518.500,295.000 514.000,295.000" stroke-width="13.184" stroke="rgb(33,33,33)" fill="none" stroke-linecap="round"></path><path d="M 556.000,283.000 C 555.500,282.000 554.382,281.309 555.000,281.000" stroke-width="20.114" stroke="rgb(33,33,33)" fill="none" stroke-linecap="round"></path><path d="M 555.000,281.000 C 556.382,280.309 557.519,281.226 560.000,281.000" stroke-width="19.028" stroke="rgb(33,33,33)" fill="none" stroke-linecap="round"></path><path d="M 560.000,281.000 C 563.019,280.726 563.192,281.021 566.000,280.000" stroke-width="18.155" stroke="rgb(33,33,33)" fill="none" stroke-linecap="round"></path><path d="M 566.000,280.000 C 568.692,279.021 568.401,278.300 571.000,277.000" stroke-width="17.131" stroke="rgb(33,33,33)" fill="none" stroke-linecap="round"></path><path d="M 571.000,277.000 C 573.401,275.800 573.431,275.642 576.000,275.000" stroke-width="16.695" stroke="rgb(33,33,33)" fill="none" stroke-linecap="round"></path><path d="M 576.000,275.000 C 577.431,274.642 577.641,275.340 579.000,275.000" stroke-width="16.796" stroke="rgb(33,33,33)" fill="none" stroke-linecap="round"></path><path d="M 579.000,275.000 C 579.641,274.840 579.707,274.000 580.000,274.000" stroke-width="17.144" stroke="rgb(33,33,33)" fill="none" stroke-linecap="round"></path><path d="M 580.000,274.000 C 580.207,274.000 580.217,274.566 580.000,275.000" stroke-width="17.594" stroke="rgb(33,33,33)" fill="none" stroke-linecap="round"></path><path d="M 580.000,275.000 C 579.217,276.566 579.000,276.500 578.000,278.000" stroke-width="17.409" stroke="rgb(33,33,33)" fill="none" stroke-linecap="round"></path><path d="M 578.000,278.000 C 577.000,279.500 576.926,279.457 576.000,281.000" stroke-width="17.225" stroke="rgb(33,33,33)" fill="none" stroke-linecap="round"></path><path d="M 576.000,281.000 C 575.426,281.957 575.264,281.944 575.000,283.000" stroke-width="17.355" stroke="rgb(33,33,33)" fill="none" stroke-linecap="round"></path><path d="M 575.000,283.000 C 574.764,283.944 575.000,284.000 575.000,285.000" stroke-width="17.502" stroke="rgb(33,33,33)" fill="none" stroke-linecap="round"></path><path d="M 575.000,285.000 C 575.000,285.500 574.610,285.805 575.000,286.000" stroke-width="17.793" stroke="rgb(33,33,33)" fill="none" stroke-linecap="round"></path><path d="M 575.000,286.000 C 576.610,286.805 576.966,286.774 579.000,287.000" stroke-width="17.472" stroke="rgb(33,33,33)" fill="none" stroke-linecap="round"></path><path d="M 579.000,287.000 C 581.466,287.274 581.500,287.000 584.000,287.000" stroke-width="17.021" stroke="rgb(33,33,33)" fill="none" stroke-linecap="round"></path><path d="M 584.000,287.000 C 587.000,287.000 587.000,287.000 590.000,287.000" stroke-width="16.567" stroke="rgb(33,33,33)" fill="none" stroke-linecap="round"></path><path d="M 590.000,287.000 C 592.500,287.000 592.500,287.000 595.000,287.000" stroke-width="16.374" stroke="rgb(33,33,33)" fill="none" stroke-linecap="round"></path><path d="M 595.000,287.000 C 597.500,287.000 597.557,286.593 600.000,287.000" stroke-width="16.224" stroke="rgb(33,33,33)" fill="none" stroke-linecap="round"></path><path d="M 600.000,287.000 C 603.557,287.593 603.471,288.118 607.000,289.000" stroke-width="15.703" stroke="rgb(33,33,33)" fill="none" stroke-linecap="round"></path><path d="M 607.000,289.000 C 609.471,289.618 609.486,289.581 612.000,290.000" stroke-width="15.678" stroke="rgb(33,33,33)" fill="none" stroke-linecap="round"></path></svg>