<svg xmlns="http://www.w3.org/2000/svg" xmlns:xlink="http://www.w3.org/1999/xlink" viewBox="0 0 360 500"><path d="M 91.934,373.938 C 93.955,382.986 94.932,382.993 95.977,392.034" stroke-width="19.173" stroke="rgb(33,33,33)" fill="none" stroke-linecap="round"></path><path d="M 95.977,392.034 C 96.297,394.804 95.836,395.220 94.663,397.560" stroke-width="18.214" stroke="rgb(33,33,33)" fill="none" stroke-linecap="round"></path><path d="M 94.663,397.560 C 94.232,398.419 93.733,398.308 92.769,398.433" stroke-width="18.153" stroke="rgb(33,33,33)" fill="none" stroke-linecap="round"></path><path d="M 92.769,398.433 C 92.108,398.519 91.879,398.463 91.413,397.983" stroke-width="18.256" stroke="rgb(33,33,33)" fill="none" stroke-linecap="round"></path><path d="M 91.413,397.983 C 90.593,397.138 90.634,396.953 90.198,395.783" stroke-width="18.130" stroke="rgb(33,33,33)" fill="none" stroke-linecap="round"></path><path d="M 90.198,395.783 C 89.425,393.707 89.518,393.656 88.996,391.491" stroke-width="17.793" stroke="rgb(33,33,33)" fill="none" stroke-linecap="round"></path><path d="M 88.996,391.491 C 88.433,389.155 88.557,389.126 88.027,386.781" stroke-width="16.904" stroke="rgb(33,33,33)" fill="none" stroke-linecap="round"></path><path d="M 88.027,386.781 C 87.247,383.331 87.039,383.373 86.376,379.902" stroke-width="16.242" stroke="rgb(33,33,33)" fill="none" stroke-linecap="round"></path><path d="M 86.376,379.902 C 85.583,375.749 85.514,375.740 85.114,371.533" stroke-width="15.613" stroke="rgb(33,33,33)" fill="none" stroke-linecap="round"></path><path d="M 85.114,371.533 C 84.687,367.045 84.553,367.007 84.723,362.512" stroke-width="15.135" stroke="rgb(33,33,33)" fill="none" stroke-linecap="round"></path><path d="M 84.723,362.512 C 84.875,358.511 85.023,358.485 85.758,354.541" stroke-width="14.836" stroke="rgb(33,33,33)" fill="none" stroke-linecap="round"></path><path d="M 85.758,354.541 C 86.396,351.116 86.239,351.008 87.470,347.775" stroke-width="14.738" stroke="rgb(33,33,33)" fill="none" stroke-linecap="round"></path><path d="M 87.470,347.775 C 88.438,345.233 88.138,344.587 90.156,342.990" stroke-width="14.805" stroke="rgb(33,33,33)" fill="none" stroke-linecap="round"></path><path d="M 90.156,342.990 C 92.579,341.072 93.146,341.304 96.352,340.744" stroke-width="14.762" stroke="rgb(33,33,33)" fill="none" stroke-linecap="round"></path><path d="M 96.352,340.744 C 100.272,340.059 100.412,340.168 104.408,340.500" stroke-width="14.483" stroke="rgb(33,33,33)" fill="none" stroke-linecap="round"></path><path d="M 104.408,340.500 C 109.666,340.937 109.696,341.112 114.861,342.283" stroke-width="14.098" stroke="rgb(33,33,33)" fill="none" stroke-linecap="round"></path><path d="M 114.861,342.283 C 121.248,343.730 121.277,343.725 127.511,345.736" stroke-width="13.470" stroke="rgb(33,33,33)" fill="none" stroke-linecap="round"></path><path d="M 127.511,345.736 C 134.529,348.000 134.674,347.766 141.366,350.832" stroke-width="12.118" stroke="rgb(33,33,33)" fill="none" stroke-linecap="round"></path><path d="M 141.366,350.832 C 148.545,354.121 148.725,354.025 155.253,358.445" stroke-width="11.887" stroke="rgb(33,33,33)" fill="none" stroke-linecap="round"></path><path d="M 155.253,358.445 C 161.838,362.904 161.930,363.010 167.592,368.591" stroke-width="11.489" stroke="rgb(33,33,33)" fill="none" stroke-linecap="round"></path><path d="M 167.592,368.591 C 172.516,373.444 172.596,373.569 176.425,379.313" stroke-width="11.622" stroke="rgb(33,33,33)" fill="none" stroke-linecap="round"></path><path d="M 176.425,379.313 C 179.578,384.043 179.841,384.168 181.556,389.539" stroke-width="11.347" stroke="rgb(33,33,33)" fill="none" stroke-linecap="round"></path><path d="M 181.556,389.539 C 183.001,394.064 183.371,394.486 182.746,399.104" stroke-width="11.631" stroke="rgb(33,33,33)" fill="none" stroke-linecap="round"></path><path d="M 182.746,399.104 C 182.121,403.728 181.741,404.126 179.056,408.022" stroke-width="11.818" stroke="rgb(33,33,33)" fill="none" stroke-linecap="round"></path><path d="M 179.056,408.022 C 176.001,412.455 175.817,412.851 171.267,415.763" stroke-width="11.962" stroke="rgb(33,33,33)" fill="none" stroke-linecap="round"></path><path d="M 171.267,415.763 C 164.955,419.803 164.542,419.562 157.332,421.924" stroke-width="11.682" stroke="rgb(33,33,33)" fill="none" stroke-linecap="round"></path><path d="M 157.332,421.924 C 148.534,424.806 148.405,424.762 139.251,426.252" stroke-width="11.131" stroke="rgb(33,33,33)" fill="none" stroke-linecap="round"></path><path d="M 139.251,426.252 C 128.696,427.970 128.606,427.662 117.914,428.341" stroke-width="10.616" stroke="rgb(33,33,33)" fill="none" stroke-linecap="round"></path><path d="M 117.914,428.341 C 106.508,429.066 106.480,429.140 95.054,429.059" stroke-width="10.150" stroke="rgb(33,33,33)" fill="none" stroke-linecap="round"></path><path d="M 95.054,429.059 C 84.560,428.985 84.528,428.934 74.073,428.031" stroke-width="9.836" stroke="rgb(33,33,33)" fill="none" stroke-linecap="round"></path><path d="M 74.073,428.031 C 65.606,427.299 65.520,427.472 57.209,425.789" stroke-width="9.689" stroke="rgb(33,33,33)" fill="none" stroke-linecap="round"></path><path d="M 57.209,425.789 C 51.114,424.555 50.798,424.781 45.262,422.196" stroke-width="10.072" stroke="rgb(33,33,33)" fill="none" stroke-linecap="round"></path><path d="M 45.262,422.196 C 42.425,420.871 41.210,420.429 40.464,417.970" stroke-width="10.750" stroke="rgb(33,33,33)" fill="none" stroke-linecap="round"></path><path d="M 40.464,417.970 C 39.876,416.032 40.705,414.874 42.594,413.402" stroke-width="11.441" stroke="rgb(33,33,33)" fill="none" stroke-linecap="round"></path><path d="M 42.594,413.402 C 46.699,410.205 47.250,410.255 52.452,408.633" stroke-width="11.606" stroke="rgb(33,33,33)" fill="none" stroke-linecap="round"></path><path d="M 52.452,408.633 C 64.233,404.961 64.400,405.210 76.561,402.814" stroke-width="10.625" stroke="rgb(33,33,33)" fill="none" stroke-linecap="round"></path><path d="M 76.561,402.814 C 100.701,398.059 100.845,398.774 125.054,394.331" stroke-width="8.914" stroke="rgb(33,33,33)" fill="none" stroke-linecap="round"></path><path d="M 125.054,394.331 C 144.614,390.741 144.558,390.440 164.099,386.748" stroke-width="7.948" stroke="rgb(33,33,33)" fill="none" stroke-linecap="round"></path><path d="M 164.099,386.748 C 186.313,382.551 186.315,382.556 208.564,378.552" stroke-width="7.224" stroke="rgb(33,33,33)" fill="none" stroke-linecap="round"></path><path d="M 208.564,378.552 C 232.536,374.238 232.527,374.184 256.541,370.111" stroke-width="6.750" stroke="rgb(33,33,33)" fill="none" stroke-linecap="round"></path></svg>