<?xml version="1.0" encoding="UTF-8"?>
<!DOCTYPE svg PUBLIC "-//W3C//DTD SVG 1.1//EN" "http://www.w3.org/Graphics/SVG/1.1/DTD/svg11.dtd">
<svg version="1.1" xmlns="http://www.w3.org/2000/svg" xmlns:xlink="http://www.w3.org/1999/xlink" x="0" y="0" width="3000" height="3000" viewBox="0, 0, 3000, 3000">
  <g id="logo">
    <path d="M-0,-0 L3000,-0 L3000,3000 L-0,3000 L-0,-0 z" fill="#003377" id="back"/>
    <g id="text">
      <path d="M595.143,1541.258 C529.368,1556.292 433.524,1582.602 383.723,1599.516 L293.517,1629.584 L287.879,1695.359 C264.388,1976.313 259.69,2059.941 262.509,2176.457 C265.328,2293.912 267.207,2312.705 285.061,2335.257 C311.371,2370.963 339.56,2376.601 425.067,2361.566 C464.532,2354.989 529.368,2346.532 566.954,2342.774 C606.419,2339.015 641.185,2330.558 646.823,2323.981 C665.616,2301.429 637.427,2301.429 495.541,2323.981 C420.369,2336.196 350.836,2342.774 340.499,2339.015 C300.095,2324.92 292.578,2275.119 296.336,2060.881 L298.216,1946.244 L366.809,1921.813 C403.456,1908.658 452.317,1893.624 474.868,1887.986 C522.79,1875.771 523.73,1853.219 475.808,1857.918 C458.895,1859.797 410.973,1873.892 370.568,1888.926 L297.276,1915.236 L301.974,1889.866 C304.793,1875.771 309.491,1828.789 313.25,1784.625 C317.008,1740.462 320.767,1692.54 321.707,1677.506 C322.646,1662.472 329.224,1647.438 336.741,1643.679 C365.87,1627.705 600.781,1567.568 691.926,1551.594 C749.244,1542.198 791.528,1530.922 794.347,1523.405 C799.985,1504.612 727.633,1511.189 595.143,1541.258 z" fill="#FFFFFF"/>
      <path d="M1200.98,971.528 L1203.277,971.625 C1212.779,972.457 1224.619,979.099 1209.313,1036.939 C1171.56,1179.599 1178.947,1194.138 1243.815,1153.025 C1288.799,1124.003 1314.538,1100.02 1329.514,1038.753 C1340.353,994.415 1343.542,987.965 1357.246,987.965 C1371.757,987.965 1377.44,972.447 1354.438,1076.44 C1340.876,1138.514 1348.755,1160.274 1353.756,1160.814 C1373.459,1162.943 1390.944,1158.676 1405.777,1144.165 C1409.342,1140.993 1407.659,1142.382 1410.779,1139.938 C1425.267,1121.237 1432.763,1098.323 1440.035,1076.112 C1443.902,1064.219 1453.15,1039.547 1443.887,1026.702 C1439.112,1021.928 1437.202,1012.377 1440.067,1004.736 C1445.827,996.536 1461.062,997.815 1468.657,996.997 C1497.069,996.715 1524.57,1001.895 1550.852,1012.377 C1568.999,1021.928 1572.819,1063.95 1558.493,1113.612 C1556.584,1120.844 1553.827,1127.963 1552.88,1135.424 C1552.642,1137.299 1552.275,1140.192 1553.733,1141.781 C1557.317,1145.685 1574.261,1136.243 1577.608,1134.589 C1593.358,1124.348 1602.071,1107.757 1607.955,1090.418 C1623.974,1043.163 1668.757,1012.516 1729.629,1034.528 C1735.436,1036.467 1741.197,1038.566 1746.779,1041.086 L1747.922,1040.839 L1747.915,1040.823 L1747.956,1040.832 C1750.869,1039.935 1753.851,1040.259 1756.83,1040.46 L1757.784,1040.595 C1760.782,1039.73 1763.667,1038.544 1766.647,1037.612 C1783.042,1033.005 1793.207,1040.738 1802.347,1028.55 C1806.802,1022.61 1814.418,1007.444 1823.991,1007.445 C1837.817,1007.444 1839.945,1014.889 1834.627,1047.862 L1827.183,1087.217 L1854.837,1052.118 L1859.694,1046.88 C1859.81,1046.704 1859.74,1046.778 1859.902,1046.656 L1863.145,1043.158 C1868.92,1039.201 1867.329,1038.564 1875.605,1038.682 L1875.806,1038.94 C1879.722,1038.845 1882.808,1044.612 1884.921,1047.579 C1890.241,1056.09 1898.75,1081.617 1901.941,1103.951 C1906.195,1126.288 1914.704,1142.242 1921.086,1140.114 C1927.467,1137.988 1931.722,1127.352 1929.594,1117.778 C1924.277,1091.189 1957.248,1030.564 1985.965,1015.672 C1998.452,1008.789 2000.61,1007.446 2014.581,1007.446 L2014.579,1007.444 C2025.455,1012.745 2020.951,1009.781 2028.509,1015.672 C2050.845,1033.755 2051.529,1054.31 2020.684,1100.044 L1992.344,1132.667 L2018.934,1139.048 C2043.792,1146.499 2071.074,1143.289 2133.031,1119.779 C2204.74,1092.57 2188.946,1112.798 2181.803,1120.02 C2138.228,1164.074 2027.446,1195.422 1972.139,1165.64 C1957.248,1158.196 1947.676,1157.133 1943.421,1164.577 C1933.849,1179.468 1889.178,1177.341 1876.414,1161.386 C1871.096,1155.005 1863.651,1139.051 1861.524,1127.351 L1861.279,1126.538 L1861.259,1124.231 C1859.637,1113.235 1854.873,1103.038 1850.299,1093.009 C1833.525,1108.791 1841.6,1100.455 1826.118,1118.059 C1822.927,1124.441 1809.1,1189.32 1796.338,1262.71 C1783.574,1336.098 1767.62,1402.041 1761.239,1409.487 C1755.179,1416.735 1754.211,1418.884 1744.62,1419.047 L1744.621,1419.048 C1743.16,1417.631 1741.263,1416.557 1740.24,1414.8 C1731.267,1399.39 1739.162,1371.992 1743.158,1356.307 C1750.602,1330.78 1760.174,1281.854 1764.43,1246.756 C1768.683,1211.656 1777.899,1169.439 1780.384,1151.031 C1785.893,1110.224 1785.748,1111.678 1784.247,1089.166 C1784.486,1086.096 1781.676,1076.535 1777.315,1081.306 C1776.844,1081.822 1776.543,1082.47 1776.157,1083.052 L1776.245,1083.487 L1774.998,1085.357 C1774.223,1087.461 1773.157,1088.983 1771.559,1090.516 L1768.277,1095.438 L1748.117,1121.648 C1723.29,1152.089 1665.623,1187.331 1641.594,1187.33 C1631.984,1187.331 1618.368,1178.52 1611.159,1167.307 C1607.954,1162.755 1605.21,1157.552 1600.764,1154.062 C1598.009,1156.33 1599.365,1155.17 1596.694,1157.543 C1588.1,1165.184 1569.954,1174.735 1555.627,1177.6 C1520.291,1186.195 1515.516,1170.915 1527.931,1100.241 C1533.662,1070.635 1537.482,1043.894 1535.572,1042.938 C1534.617,1041.984 1523.156,1038.163 1509.785,1034.343 C1486.865,1028.613 1484,1031.478 1473.494,1074.455 C1465.024,1104.579 1462.211,1126.319 1437.2,1147.513 C1428.961,1157.956 1417.784,1165.731 1406.327,1172.243 C1347.939,1204.402 1319.851,1183.932 1315.61,1148.572 C1313.788,1133.38 1289.465,1146.214 1278.196,1156.819 C1257.729,1176.08 1196.951,1206.231 1174.379,1206.231 C1152.613,1206.231 1149.483,1181.338 1175.992,1061.123 C1180.334,1042.512 1181.71,1023.437 1183.535,1004.472 C1184.385,995.643 1184.898,978.548 1193.691,973.343 C1196.46,971.703 1197.802,971.904 1200.98,971.528 z M1687.618,1054.406 C1676.262,1054.541 1663.099,1054.708 1654.424,1063.193 C1634.401,1084.017 1631.984,1090.418 1631.983,1119.251 C1631.984,1151.289 1633.585,1155.293 1650.405,1155.293 C1660.016,1155.293 1677.637,1148.886 1688.049,1141.677 C1702.509,1132.156 1715.96,1121.222 1729.349,1110.275 C1725.1,1109.908 1721.193,1107.765 1717.453,1105.86 C1714.589,1104.373 1712.735,1099.115 1711.909,1095.551 L1710.9,1092.566 L1710.901,1092.567 C1711.651,1083.448 1710.982,1081.727 1715.689,1073.878 C1719.315,1066.406 1717.108,1070.707 1722.536,1061.091 C1713.287,1055.747 1697.711,1055.092 1687.618,1054.406 z M2001.075,1047.928 C1987.108,1055.464 1993.07,1051.128 1982.775,1060.344 C1967.884,1075.235 1965.757,1105.016 1980.647,1095.443 C1985.966,1092.253 2002.087,1085.186 2007.404,1073.485 C2009.562,1069.041 2008.791,1055.719 2006.798,1050.289 C2006.088,1048.353 2002.985,1048.717 2001.078,1047.93 L2001.075,1047.928 z M1736.327,1078.303 C1734.437,1079.171 1733.114,1080.495 1732.121,1081.818 C1729.428,1085.409 1731.68,1088.545 1733.334,1089.759 L1736.643,1090.641 C1739.541,1090.158 1741.882,1090.38 1742.365,1086.515 L1743.15,1082.811 C1742.709,1080.384 1741.841,1078.788 1740.259,1078.345 L1736.327,1078.303 z" fill="#FFFFFF"/>
      <path d="M998.473,389.155 C924.021,406.173 909.511,408.595 853.14,427.74 C853.14,427.74 757.063,464.073 742.775,474.789 C728.486,485.506 725.283,534.303 725.283,534.303 C698.693,852.32 694.111,880.034 697.302,1011.92 C700.493,1144.871 702.62,1166.143 722.829,1191.669 C752.61,1232.086 771.424,1229.152 868.212,1212.134 C912.883,1204.689 955.929,1198.06 998.473,1193.806 C1043.145,1189.552 1094.177,1192.981 1100.559,1185.536 C1121.831,1160.01 1110,1140.377 949.396,1165.904 C864.308,1179.731 797.281,1200.178 785.581,1195.924 C739.846,1179.97 727.031,1187.557 731.285,945.056 L736.982,818.285 L814.626,790.631 C856.106,775.741 902.885,767.137 928.412,760.755 C982.655,746.928 984.625,725.735 930.382,731.053 C911.237,733.18 864.615,736.388 818.88,753.405 C818.88,753.405 731.328,780.853 735.919,783.186 C740.51,785.52 741.237,754.469 741.237,754.469 C744.428,738.515 749.746,685.335 754,635.345 C758.255,585.356 762.509,531.112 763.573,514.095 C764.636,497.077 769.274,494.164 777.783,489.91 C810.755,471.828 942.953,430.623 1046.123,412.542 C1111.002,401.905 1125.542,386.743 1128.733,378.235 C1135.114,356.963 1148.441,355.12 998.473,389.155 z" fill="#FFFFFF"/>
      <path d="M548.683,622.378 Q571.603,622.059 572.492,644.991 L572.581,647.285 Q573.152,662.027 540.265,760.164 L533.231,815.329 L528.647,815.393 Q518.497,815.534 513.295,774.306 L512.939,765.133 C512.939,765.133 525.223,634.34 531.531,626.23 C537.839,618.119 548.683,622.378 548.683,622.378 z" fill="#FFFFFF"/>
      <path d="M428.666,643.853 L431.393,644.276 C444.965,647.896 451.007,660.039 455.833,672.166 C476.56,731.643 417.499,948.526 375.725,1041.509 C340.893,1119.04 340.42,1118.148 327.22,1141.614 C314.023,1165.075 324.234,1189.109 324.234,1189.109 Q352.736,1225.039 388.318,1223.178 L415.167,1221.458 Q457.686,1218.762 516.51,1198.728 Q575.335,1178.694 551.371,1210.28 Q456.259,1261.31 408.599,1264.224 C408.599,1264.224 308.993,1279.502 299.173,1200.315 C298.666,1196.129 299.254,1196.378 298.84,1192.182 L291.371,1204.704 C289.504,1207.505 276.557,1213.913 268.155,1206.755 C259.812,1199.649 261.182,1188.29 265.591,1179.266 L274.738,1162.835 C285.358,1147.087 285.203,1141.223 293.583,1124.214 Q318.814,1006.511 336.655,848.532 Q354.495,690.554 415.419,646.982 C419.415,644.47 424.071,644.046 428.666,643.853 z M422.529,685.606 C407.776,688.98 400.828,708.977 396.424,721.685 C391.555,735.735 387.771,750.099 384.481,764.593 C377.134,796.967 371.912,829.967 368.172,862.961 C368.172,862.961 353.021,969.237 346.316,1009.223 C339.611,1049.209 340.12,1041.509 340.12,1041.509 C340.12,1041.509 391.899,944.564 406.268,872.226 C420.638,799.887 460.325,689.18 424.21,685.639 L422.529,685.606 z" fill="#FFFFFF"/>
      <path d="M2368.25,1842.883 C2362.612,1849.461 2348.517,1907.719 2337.242,1972.554 C2325.966,2037.389 2313.75,2094.708 2310.932,2100.345 C2303.415,2112.561 2247.976,2160.483 2215.088,2182.094 C2202.873,2190.551 2182.2,2198.068 2170.925,2198.068 C2151.192,2198.068 2149.313,2193.37 2149.313,2155.784 C2149.313,2121.957 2154.951,2107.863 2178.442,2083.432 C2195.355,2064.639 2208.51,2057.122 2211.329,2062.76 C2217.907,2079.673 2253.613,2066.518 2250.794,2048.665 C2248.915,2039.269 2236.7,2032.691 2218.846,2030.812 C2181.261,2027.053 2139.917,2066.518 2121.124,2121.957 C2112.667,2148.267 2099.512,2166.121 2082.598,2175.517 C2046.892,2193.37 2045.952,2193.37 2056.288,2158.603 C2070.383,2109.742 2066.624,2068.398 2048.771,2059.001 C2016.823,2043.027 1944.471,2038.329 1939.772,2051.484 C1936.953,2059.001 1938.833,2068.398 1943.531,2073.096 C1964.203,2093.768 1890.911,2245.051 1866.48,2230.956 C1861.782,2227.197 1858.023,2198.068 1858.023,2165.181 C1858.023,2092.828 1845.808,2057.122 1822.317,2057.122 C1797.886,2057.122 1778.154,2081.553 1755.602,2139.811 C1732.111,2198.068 1729.292,2263.844 1749.025,2263.844 C1763.12,2263.844 1811.041,2212.163 1811.041,2197.129 C1811.041,2192.431 1813.86,2188.672 1818.558,2188.672 C1822.317,2188.672 1826.076,2201.827 1826.076,2217.801 C1827.015,2233.775 1834.532,2253.507 1842.989,2261.964 C1856.144,2276.059 1859.903,2275.119 1883.394,2258.206 C1921.919,2230.016 1958.565,2171.758 1972.66,2120.078 C1982.996,2077.794 1985.815,2074.975 2008.366,2080.613 C2021.521,2084.372 2032.797,2088.13 2033.737,2089.07 C2035.616,2090.01 2031.858,2116.319 2026.22,2145.448 C2014.004,2214.982 2018.703,2230.016 2053.469,2221.56 C2067.564,2218.74 2085.417,2209.344 2093.874,2201.827 C2107.029,2189.612 2110.788,2190.551 2124.882,2212.163 C2133.339,2225.318 2149.313,2235.654 2160.589,2235.654 C2188.778,2235.654 2256.432,2194.31 2285.561,2158.603 L2309.992,2127.595 L2303.415,2162.362 C2298.716,2191.491 2300.595,2198.068 2312.811,2198.068 C2321.268,2198.068 2334.423,2182.094 2342.879,2162.362 C2356.034,2134.173 2359.793,2131.354 2363.552,2146.388 C2365.431,2156.724 2372.009,2170.819 2376.707,2176.457 C2387.982,2190.551 2427.448,2192.431 2435.904,2179.276 C2439.663,2172.698 2448.12,2173.638 2461.275,2180.215 C2510.136,2206.525 2698.065,2168.939 2732.832,2126.656 C2746.926,2108.802 2735.65,2109.742 2671.755,2132.293 C2605.98,2154.845 2534.567,2165.181 2502.619,2156.724 L2479.128,2151.086 L2501.679,2117.259 C2528.929,2076.854 2530.808,2063.699 2511.076,2047.725 C2498.86,2037.389 2492.283,2037.389 2473.49,2047.725 C2448.12,2060.88 2418.99,2114.44 2423.689,2137.931 C2425.568,2146.388 2421.81,2155.784 2416.172,2157.664 C2410.534,2159.543 2403.017,2145.448 2399.258,2125.716 C2396.439,2105.983 2388.922,2083.432 2384.224,2075.915 C2375.767,2063.699 2372.009,2064.639 2359.793,2080.613 C2344.759,2098.466 2344.759,2098.466 2351.336,2071.217 C2355.095,2055.243 2361.672,2017.657 2365.431,1986.649 C2369.189,1955.64 2377.646,1912.417 2384.224,1889.865 C2397.379,1847.581 2387.043,1818.453 2368.25,1842.883 z M2487.584,2093.768 C2482.886,2104.104 2473.49,2115.38 2468.792,2118.199 C2455.637,2126.656 2457.516,2100.345 2470.671,2087.19 C2488.524,2069.337 2498.86,2074.035 2487.584,2093.768 z M1811.041,2145.448 C1805.403,2162.362 1792.248,2184.913 1780.973,2194.31 C1762.18,2212.163 1761.24,2212.163 1768.757,2188.672 C1772.516,2175.517 1783.792,2146.388 1795.067,2122.897 C1816.679,2074.975 1828.895,2091.889 1811.041,2145.448 z" fill="#FFFFFF"/>
      <path d="M1645.664,1598.576 C1624.992,1621.127 1595.863,1657.774 1581.768,1681.265 C1545.122,1738.583 1510.355,1775.229 1490.623,1775.229 C1468.071,1775.229 1447.399,1743.281 1429.546,1683.144 C1421.089,1654.015 1409.813,1634.282 1401.357,1634.282 C1393.84,1634.282 1387.262,1638.041 1387.262,1643.679 C1385.383,1655.894 1383.503,1663.411 1375.986,1681.265 C1373.167,1688.782 1366.59,1775.229 1360.012,1873.891 C1337.461,2264.783 1330.883,2354.049 1326.185,2378.48 C1321.487,2400.092 1324.306,2404.79 1340.28,2404.79 C1352.495,2404.79 1360.012,2399.152 1360.012,2387.876 C1360.012,2379.42 1363.771,2336.196 1369.409,2292.972 C1374.107,2249.749 1380.685,2150.147 1384.443,2072.156 C1388.202,1994.166 1392.9,1886.107 1396.658,1831.608 L1402.296,1732.945 L1422.969,1767.712 C1461.494,1833.487 1515.993,1822.211 1576.13,1736.704 C1641.905,1642.739 1671.974,1605.154 1676.672,1609.852 C1679.491,1612.671 1675.733,1664.351 1669.155,1725.428 C1654.121,1857.918 1654.121,2144.509 1669.155,2250.688 C1674.793,2292.972 1686.069,2410.428 1692.646,2512.849 C1700.163,2614.331 1709.56,2701.717 1714.258,2706.416 C1718.016,2710.174 1727.413,2710.174 1734.93,2706.416 C1744.327,2699.838 1745.266,2684.804 1736.809,2629.365 C1731.172,2590.839 1724.594,2507.211 1721.775,2442.376 C1719.896,2377.54 1710.499,2277.938 1702.982,2221.56 C1685.129,2086.251 1685.129,1894.564 1703.922,1732.945 C1724.594,1548.775 1715.198,1526.224 1645.664,1598.576 z" fill="#FFFFFF"/>
      <path d="M724.814,2089.07 C695.685,2118.199 682.53,2151.086 700.383,2151.086 C704.141,2151.086 718.236,2137.931 732.331,2121.018 C745.486,2104.104 760.52,2093.768 765.218,2097.527 C768.977,2102.225 773.675,2164.241 775.554,2236.594 C778.373,2357.808 780.253,2367.204 797.166,2367.204 C813.14,2367.204 815.019,2359.687 815.019,2308.007 C815.019,2236.594 838.51,2181.155 882.674,2147.328 C946.569,2099.406 955.966,2116.32 955.966,2282.636 C955.966,2371.902 975.698,2534.461 989.793,2556.073 C992.612,2560.771 1002.948,2559.831 1013.284,2555.133 C1026.439,2547.616 1029.258,2541.038 1022.68,2528.823 C1008.586,2502.513 994.491,2389.756 987.914,2254.447 C981.336,2114.44 973.819,2085.311 948.449,2085.311 C922.139,2085.311 844.148,2138.871 831.933,2165.181 C815.959,2200.887 805.623,2193.37 805.623,2145.448 C805.623,2062.76 773.675,2040.208 724.814,2089.07 z" fill="#FFFFFF"/>
    </g>
    <g id="stars">
      <path d="M1593.626,400.718 C1593.372,401.853 1592.855,402.666 1592.38,403.212 C1591.767,403.919 1590.9,404.301 1589.982,404.271 C1589.058,404.243 1588.172,403.802 1587.53,403.056 C1587.483,403 1586.785,402.192 1585.51,400.721 C1585.386,401.173 1585.168,401.601 1584.863,401.97 C1584.129,402.862 1583.045,403.224 1581.993,403.053 C1581.885,405.032 1581.106,406.365 1580.402,407.171 C1579.831,407.827 1579.01,408.221 1578.16,408.241 C1579.215,409.292 1579.251,409.682 1579.342,410.638 C1579.434,411.646 1579.13,412.623 1578.511,413.338 C1577.983,413.943 1577.182,414.622 1576.041,415.007 C1576.189,415.423 1576.255,415.785 1576.282,416.139 C1576.364,417.214 1576.047,418.215 1575.394,418.966 C1574.196,420.339 1572.148,420.382 1570.777,419.058 L1567.465,415.861 C1568.067,417.286 1568.416,418.553 1568.507,419.658 C1568.704,422.065 1567.857,423.585 1567.11,424.443 C1566.52,425.118 1565.695,425.507 1564.812,425.505 C1563.928,425.511 1563.067,425.127 1562.407,424.45 C1559.907,421.879 1557.314,419.211 1554.654,416.479 C1554.698,416.686 1554.723,416.892 1554.741,417.087 C1554.838,418.36 1554.477,419.553 1553.721,420.42 C1553.336,420.852 1552.797,421.337 1552.062,421.693 C1555.988,425.255 1555.987,425.32 1556.11,426.818 C1556.192,427.802 1555.891,428.772 1555.274,429.474 C1555.134,429.638 1554.988,429.78 1554.843,429.907 C1555.952,431.86 1556.555,433.517 1556.67,434.899 C1556.842,436.976 1556.09,438.327 1555.429,439.081 C1554.628,440.006 1553.156,441.092 1550.698,441.005 C1549.267,440.954 1547.365,440.512 1544.544,439.071 C1544.387,439.079 1544.236,439.086 1544.072,439.09 C1543.274,439.088 1542.203,439.078 1539.993,438.019 C1546.816,444.067 1551.018,447.742 1551.133,447.85 C1551.872,448.49 1552.341,449.423 1552.435,450.431 C1552.525,451.426 1552.216,452.405 1551.595,453.114 C1551.007,453.795 1549.94,454.605 1548.193,454.629 C1554.791,461.502 1557.299,465.198 1557.486,467.619 C1557.578,468.854 1557.235,469.997 1556.496,470.846 C1555.821,471.63 1554.864,471.98 1553.917,471.895 C1559.7,477.757 1561.824,480.882 1562.018,483.088 C1562.123,484.292 1561.782,485.423 1561.057,486.254 C1560.714,486.647 1560.366,486.927 1560.027,487.111 C1561.34,488.311 1562.066,488.961 1562.116,489.01 C1562.843,489.667 1563.293,490.599 1563.381,491.584 C1563.451,492.553 1563.171,493.491 1562.589,494.189 C1570.605,504.702 1570.887,508.079 1571.05,510.029 C1571.255,512.413 1570.435,513.914 1569.703,514.747 C1569.292,515.225 1568.778,515.541 1568.224,515.7 C1571.91,519.742 1573.053,521.79 1573.173,523.319 C1573.171,523.332 1573.173,523.338 1573.176,523.35 C1577.91,530.088 1580.624,535.436 1580.922,539.1 C1581.146,541.932 1580.176,543.703 1579.32,544.69 C1578.676,545.419 1577.513,546.29 1575.585,546.272 C1574.345,546.254 1572.473,546.244 1567.318,542.995 C1567.12,543.358 1566.903,543.663 1566.693,543.907 C1566.075,544.608 1565.213,544.996 1564.301,544.964 C1563.377,544.936 1562.497,544.5 1561.853,543.766 C1560.83,542.59 1559.791,541.407 1558.757,540.215 C1563.268,546.152 1563.373,547.745 1563.451,548.898 C1563.531,550.117 1563.176,551.239 1562.466,552.06 C1561.847,552.774 1560.958,553.156 1560.028,553.124 C1559.105,553.082 1558.214,552.623 1557.572,551.858 C1546.914,539.055 1532.451,522.011 1515.966,503.016 C1469.5,454.971 1393.138,380.441 1338.468,328.128 C1338.218,328.061 1337.957,327.996 1337.716,327.942 L1387.799,379.083 C1399.59,389.811 1412.257,401.474 1424.907,413.34 C1492.413,476.66 1513.366,502.609 1520.005,514.07 L1544.623,539.21 C1545.983,540.602 1546.1,542.87 1544.879,544.275 C1544.253,544.986 1543.131,545.833 1541.281,545.803 C1539.028,545.771 1534.551,545.698 1509.699,523.133 C1505.996,520.001 1500.721,515.262 1493.075,508.061 C1492.047,508.924 1490.493,509.706 1488.253,509.657 C1482.626,509.527 1473.875,503.743 1462.242,493.308 C1461.305,493.231 1460.199,492.909 1458.903,492.326 C1458.876,493.557 1458.464,494.669 1457.736,495.514 C1456.511,496.923 1454.412,496.934 1453.045,495.537 C1452.737,495.223 1452.492,494.864 1452.312,494.48 C1451.243,494.967 1449.947,494.805 1448.935,493.958 L1441.852,488.025 C1449.509,495.405 1449.958,496.473 1450.09,498.2 C1450.154,499.184 1449.835,500.23 1449.223,500.93 C1448.09,502.232 1446.177,502.346 1444.798,501.191 C1443.097,499.765 1441.313,498.278 1439.47,496.726 C1442.726,500.774 1442.826,501.994 1442.909,503.023 C1442.999,504.174 1442.665,505.251 1441.974,506.039 C1440.83,507.363 1438.888,507.459 1437.506,506.273 C1434.886,504.002 1432.231,501.728 1429.564,499.459 C1430.022,500.422 1430.296,501.298 1430.382,502.061 C1430.553,503.66 1430.14,505.122 1429.211,506.183 C1427.018,508.7 1424.691,506.918 1419.084,502.589 C1415.674,499.965 1411.102,496.296 1406.265,492.43 C1404.612,491.106 1402.814,489.669 1400.953,488.181 C1407.164,494.134 1414.919,501.368 1424.209,509.85 C1430.794,515.873 1430.806,515.869 1430.937,517.513 C1431.016,518.511 1430.712,519.469 1430.096,520.171 C1427.78,522.83 1425.451,521.06 1418.237,514.907 C1418.167,515.012 1418.09,515.107 1418.008,515.209 C1417.462,515.832 1416.854,516.285 1416.111,516.481 C1417.339,517.769 1417.384,518.255 1417.471,519.239 C1417.558,520.241 1417.256,521.242 1416.638,521.958 C1415.366,523.412 1413.82,523.848 1411.207,522.745 C1411.101,523.12 1410.93,523.476 1410.691,523.8 C1409.621,525.297 1407.598,525.539 1406.125,524.341 C1404.142,522.74 1402.108,521.064 1400.067,519.35 C1401.189,520.794 1401.386,521.552 1401.444,522.459 C1401.513,523.44 1401.183,524.491 1400.577,525.189 C1399.547,526.364 1397.872,526.586 1396.524,525.727 C1393.936,524.074 1391.039,522.221 1388.085,520.334 C1389.454,521.479 1390.826,522.596 1392.168,523.67 C1393.642,524.854 1394.04,527.032 1393.065,528.611 C1392.669,529.259 1392.085,529.699 1391.448,529.934 C1397.533,536.456 1397.644,537.873 1397.72,538.801 C1397.802,539.883 1397.483,540.89 1396.833,541.64 C1394.767,544.024 1391.825,542.794 1386.726,538.979 C1385.78,540.019 1384.299,540.28 1383.022,539.639 L1380.385,538.298 C1380.381,539.172 1380.07,540.029 1379.529,540.65 C1378.238,542.135 1377.36,542.146 1374.522,540.742 C1374.379,541.212 1374.144,541.651 1373.834,542.016 C1372.608,543.423 1370.507,543.442 1369.139,542.046 C1369.047,541.951 1368.957,541.849 1368.87,541.738 C1368.57,541.466 1368.07,541.033 1367.452,540.506 C1362.548,536.256 1360.688,534.437 1360.135,532.585 C1360.044,532.281 1359.987,531.97 1359.964,531.659 C1359.866,530.582 1360.183,529.524 1360.843,528.77 C1361.59,527.912 1362.169,527.48 1363.283,527.614 C1363.284,527.601 1363.279,527.583 1363.277,527.557 C1363.211,526.587 1363.526,525.606 1364.13,524.916 C1365.072,523.839 1366.566,523.547 1367.87,524.2 C1366.371,522.719 1365.057,521.443 1364.168,520.563 C1360.296,516.763 1360.294,516.759 1360.207,515.225 C1360.145,514.267 1360.453,513.341 1361.048,512.664 C1361.613,512.011 1362.195,511.687 1362.793,511.593 C1362.45,511.274 1362.107,510.957 1361.765,510.645 C1360.394,509.391 1360.118,507.261 1361.111,505.767 C1361.793,504.748 1362.912,504.266 1364.03,504.397 C1364.013,504.318 1364.006,504.237 1363.998,504.167 C1363.86,502.837 1364.208,501.614 1364.996,500.712 C1366.745,498.707 1368.751,499.945 1370.359,500.948 C1371.201,501.473 1372.407,502.231 1373.849,503.147 C1366.048,495.643 1365.651,494.771 1365.531,492.983 C1365.46,492.014 1365.787,490.978 1366.383,490.283 C1367.188,489.363 1368.283,488.111 1372.089,489.53 C1371.948,488.129 1372.32,486.841 1373.146,485.896 C1373.24,485.777 1373.345,485.675 1373.45,485.571 C1371.636,483.131 1370.806,481.282 1370.668,479.732 C1370.545,478.352 1370.928,477.066 1371.746,476.13 C1372.347,475.434 1373.164,475.086 1373.996,475.064 C1372.781,473.685 1372.692,471.571 1373.82,470.206 C1374.407,469.486 1375.233,469.11 1376.079,469.077 C1376.011,467.901 1376.354,466.815 1377.051,466.011 C1379.473,463.23 1382.586,465.354 1391.221,471.897 C1396.631,476 1403.338,481.367 1409.83,486.563 C1401.54,478.707 1390.675,469.336 1380.394,461.098 C1379.603,460.467 1379.095,459.519 1378.98,458.499 C1378.868,457.471 1379.169,456.464 1379.806,455.73 C1382.196,452.984 1385.391,454.987 1393.901,461.432 C1395.229,462.438 1396.692,463.561 1398.28,464.809 C1393.203,460.023 1387.973,455.159 1382.826,450.454 C1382.112,449.8 1381.67,448.872 1381.593,447.886 C1381.517,446.899 1381.815,445.943 1382.427,445.243 C1384.395,442.98 1386.469,444.469 1389.309,446.648 C1386.189,443.019 1385.088,440.954 1384.976,439.332 C1384.888,438.167 1385.226,437.09 1385.921,436.292 C1387.033,435.016 1388.891,434.875 1390.253,435.957 C1387.349,432.476 1386.474,430.654 1386.371,429.203 C1386.335,428.672 1386.39,428.159 1386.529,427.682 C1385.158,426.457 1383.798,425.242 1382.453,424.04 C1330.999,378.108 1305.276,354.228 1302.04,343.411 C1301.863,342.819 1301.758,342.269 1301.715,341.751 C1301.537,339.634 1302.298,338.271 1302.972,337.501 C1303.623,336.756 1304.517,336.351 1305.514,336.35 C1306.088,336.354 1306.767,336.536 1307.669,337.023 C1302.121,331.055 1300.047,327.907 1299.896,325.937 C1299.813,324.79 1300.149,323.723 1300.834,322.933 C1301.493,322.174 1302.689,321.279 1304.625,321.318 C1307.301,321.386 1311.225,323.659 1316.76,328.34 C1317.002,327.943 1317.256,327.606 1317.502,327.323 C1318.091,326.645 1318.92,326.265 1319.794,326.266 C1320.678,326.26 1321.546,326.635 1322.196,327.311 C1322.874,328.004 1323.548,328.699 1324.228,329.395 C1324.27,328.649 1324.53,327.917 1325.023,327.334 C1325.712,326.501 1326.705,326.126 1327.697,326.228 C1327.675,326.118 1327.666,326.008 1327.662,325.896 C1327.607,324.945 1327.914,324.031 1328.508,323.356 C1329.706,321.976 1331.933,320.362 1335.739,320.516 C1336.863,320.562 1338.094,320.77 1339.437,321.139 C1340.424,320.593 1341.744,320.191 1343.448,320.245 C1346.15,320.322 1351.662,320.48 1370.149,335.189 C1356.19,322.479 1356.143,322.008 1356.005,320.237 C1355.927,319.245 1356.239,318.252 1356.847,317.547 C1357.513,316.789 1358.428,316.379 1359.444,316.396 C1361.439,316.421 1364.477,318.547 1373.53,327.814 C1373.789,326.432 1374.391,325.46 1374.94,324.83 C1376.145,323.448 1378.198,323.408 1379.572,324.747 L1382.194,327.302 C1382.15,327.118 1382.122,326.926 1382.106,326.733 C1382.021,325.736 1382.327,324.768 1382.938,324.065 C1383.065,323.914 1383.213,323.76 1383.381,323.612 C1382.636,322.243 1382.259,321.14 1382.195,320.269 C1382.107,319.008 1382.472,317.841 1383.217,316.991 C1384.107,315.965 1385.665,314.777 1388.162,314.617 C1389.264,314.023 1390.644,314.158 1391.708,315.026 C1396.589,316.338 1403.19,320.59 1411.211,327.232 C1411.225,325.542 1411.87,324.421 1412.439,323.76 C1413.038,323.076 1413.874,322.694 1414.766,322.699 C1415.66,322.704 1416.526,323.095 1417.18,323.786 C1417.354,323.974 1417.542,324.167 1417.717,324.357 C1417.213,323.007 1417.141,322.155 1417.087,321.499 C1416.888,319.271 1417.67,317.859 1418.36,317.069 C1418.958,316.385 1419.794,316 1420.688,316.008 C1421.137,316.01 1421.574,316.113 1421.984,316.298 C1418.716,312.312 1417.434,310.016 1417.347,308.56 C1417.276,307.448 1417.604,306.416 1418.273,305.651 C1418.395,305.507 1418.533,305.375 1418.68,305.257 C1418.498,304.725 1418.391,304.25 1418.358,303.803 C1418.242,302.427 1418.623,301.156 1419.426,300.227 C1420.029,299.539 1420.694,299.176 1421.417,299.069 C1421.268,298.473 1421.237,298.033 1421.198,297.666 C1421.051,295.714 1421.747,294.465 1422.363,293.76 C1422.577,293.509 1422.828,293.301 1423.103,293.135 C1422.701,292.246 1422.491,291.481 1422.437,290.808 C1422.343,289.506 1422.712,288.309 1423.471,287.432 C1424.166,286.635 1425.145,286.198 1426.241,286.193 C1426.613,286.193 1427.032,286.191 1427.653,286.377 C1427.591,286.104 1427.572,285.847 1427.548,285.566 C1427.47,284.574 1427.795,283.526 1428.403,282.817 C1428.624,282.567 1428.873,282.356 1429.138,282.196 C1429.415,280.733 1430.041,279.707 1430.624,279.032 C1431.031,278.574 1431.511,278.268 1432.04,278.104 C1432.009,277.919 1431.989,277.734 1431.978,277.556 C1431.884,276.294 1432.16,275.124 1432.763,274.197 C1432.294,272.946 1432.014,271.829 1431.92,270.842 C1431.663,268.023 1432.635,266.258 1433.49,265.272 C1433.758,264.962 1434.134,264.623 1434.633,264.354 C1434.196,263.466 1433.966,262.693 1433.905,261.996 C1433.791,260.704 1434.153,259.506 1434.912,258.632 C1436.112,257.254 1438.146,257.206 1439.523,258.517 L1440.623,259.576 C1440.081,258.648 1440.056,258.206 1440.032,257.753 C1439.987,256.952 1440.209,256.109 1440.626,255.457 C1439.85,254.043 1439.431,252.838 1439.346,251.819 C1439.223,250.383 1439.618,249.058 1440.463,248.091 C1440.937,247.545 1441.544,247.205 1442.192,247.083 C1441.836,245.892 1442.054,244.566 1442.87,243.622 C1444.405,241.847 1445.992,242.46 1447.556,243.604 L1447.56,243.597 L1447.615,243.645 C1448.064,243.983 1448.526,244.363 1448.976,244.74 L1449.931,245.548 C1449.174,244.316 1448.857,243.375 1448.794,242.513 C1448.705,241.36 1449.044,240.288 1449.733,239.49 C1450.108,239.061 1450.502,238.727 1450.928,238.512 C1450.885,238.23 1450.855,237.991 1450.836,237.769 C1450.69,236.309 1451.083,234.959 1451.936,233.982 C1453.039,232.715 1454.871,232.569 1456.251,233.628 C1458.37,235.269 1460.575,236.94 1462.779,238.588 C1449.549,225.197 1449.521,224.672 1449.443,223.223 C1449.388,222.268 1449.694,221.336 1450.282,220.656 C1451.406,219.363 1452.433,218.888 1455.582,220.302 C1453.189,217.824 1452.324,216.29 1452.173,214.698 C1452.06,213.506 1452.395,212.397 1453.121,211.566 C1454.109,210.429 1455.71,210.178 1457.038,210.946 C1458.719,211.915 1460.638,213.021 1462.625,214.159 C1462.728,213.459 1463.017,212.79 1463.448,212.292 C1464.673,210.885 1466.777,210.874 1468.145,212.271 C1468.486,212.625 1468.75,213.034 1468.933,213.471 C1469.906,214.572 1472.758,217.227 1474.533,218.879 C1479.721,223.722 1480.395,224.339 1480.533,226.207 C1480.597,227.187 1480.287,228.166 1479.685,228.86 C1478.714,229.975 1477.871,230.214 1476.524,229.756 C1483.171,235.587 1485.077,237.899 1485.319,240.351 C1485.426,241.539 1485.091,242.648 1484.37,243.479 C1483.32,244.685 1481.591,244.881 1480.228,243.955 C1477.679,242.216 1475.036,240.444 1472.448,238.732 C1477.76,244.091 1483.4,249.756 1487.935,254.286 C1488.6,254.952 1489.009,255.867 1489.065,256.824 C1489.114,257.78 1488.817,258.703 1488.219,259.386 C1486.935,260.86 1485.616,262.37 1475.715,256.134 C1481.749,261.675 1488.047,267.642 1493.402,272.709 C1496.659,275.792 1499.986,278.946 1502.111,280.9 C1502.969,281.621 1503.817,282.334 1504.668,283.041 C1505.428,283.679 1505.931,284.621 1506.026,285.638 C1506.125,286.65 1505.822,287.643 1505.191,288.366 C1504.713,288.919 1504.236,289.259 1503.747,289.418 C1504.354,290.385 1504.509,291.046 1504.563,291.778 C1504.644,292.838 1504.326,293.829 1503.68,294.572 C1501.704,296.847 1499.306,295.063 1497.726,293.882 C1496.807,293.192 1495.506,292.181 1493.877,290.875 L1506.335,303.601 C1506.599,303.872 1506.819,304.175 1506.984,304.504 C1511.448,309.107 1516.245,314.127 1521.4,319.599 C1521.604,319.567 1521.813,319.551 1522.026,319.552 C1522.491,319.548 1523.022,319.549 1523.911,319.878 C1524.045,319.654 1524.2,319.442 1524.374,319.244 C1524.949,318.584 1525.994,317.793 1527.678,317.799 C1529.146,317.803 1531.168,318.622 1533.749,320.242 C1534.418,319.638 1535.458,319.058 1536.978,319.061 C1539.351,319.061 1542.916,320.882 1547.602,324.309 C1548.816,323.312 1550.515,323.066 1554.177,324.984 C1553.438,323.727 1553.434,322.091 1554.28,320.901 C1555.35,319.387 1557.391,319.137 1558.87,320.344 L1567.94,327.731 C1567.507,326.913 1567.292,326.194 1567.236,325.509 C1567.131,324.318 1567.469,323.208 1568.187,322.388 C1570.893,319.277 1574.605,321.015 1586.117,331.668 C1586.272,331.279 1586.494,330.914 1586.769,330.6 C1588.491,328.627 1590.27,329.288 1594.034,331.865 C1593.98,331.623 1593.947,331.386 1593.923,331.139 C1593.834,330.081 1594.155,329.051 1594.801,328.307 C1596.25,326.646 1598.141,326.449 1601.576,328.199 C1601.494,326.985 1601.848,325.857 1602.59,325.005 C1603.664,323.769 1605.453,323.594 1606.822,324.591 C1609.287,326.384 1614.683,331.9 1617.734,334.121 C1616.23,332.597 1614.774,331.12 1613.402,329.726 C1612.077,328.391 1611.914,326.216 1613.022,324.79 C1614.13,323.359 1616.128,323.179 1617.559,324.38 L1627.171,331.093 C1627.616,330.668 1628.159,330.4 1628.736,330.295 C1627.366,328.899 1627.254,326.626 1628.478,325.223 C1630.179,323.271 1630.494,322.864 1635.505,326.648 C1635.62,326.054 1638.507,325.611 1641.316,332.058 C1644.124,338.505 1638.617,337.067 1638.617,337.067 C1638.267,337.256 1643.962,345.535 1643.571,345.568 C1643.623,346.562 1643.335,347.456 1642.764,348.131 C1640.91,350.348 1638.984,348.95 1636.746,347.328 L1635.722,354.053 C1635.78,354.288 1635.823,354.528 1635.846,354.766 C1635.968,355.986 1635.626,357.129 1634.884,357.984 C1633.139,359.988 1631.049,359.04 1628.806,357.445 C1629.219,358.247 1629.43,358.961 1629.488,359.661 C1629.59,360.835 1629.253,361.938 1628.54,362.76 C1628.081,363.278 1627.501,363.621 1626.881,363.753 C1630.519,367.526 1632.31,370.264 1632.534,372.584 C1632.667,373.969 1632.284,375.266 1631.451,376.22 C1629.273,378.727 1626.32,378.089 1619.553,372.554 C1619.385,373.095 1619.113,373.591 1618.744,374.011 C1617.622,375.303 1615.74,375.432 1614.36,374.312 L1610.043,370.794 C1611.208,372.711 1611.29,373.638 1611.356,374.387 C1611.467,375.661 1611.113,376.835 1610.362,377.692 C1609.169,379.07 1607.13,379.11 1605.76,377.804 C1597.525,369.944 1588.835,361.923 1580.815,354.788 C1586.85,360.869 1593.419,367.626 1600.483,374.974 C1603.558,378.177 1606.507,381.243 1608.122,382.856 C1608.622,383.303 1609.118,383.75 1609.614,384.197 C1610.345,384.846 1610.802,385.782 1610.884,386.768 C1610.968,387.772 1610.661,388.73 1610.049,389.437 C1609.454,390.113 1608.614,390.501 1607.729,390.499 C1608.139,391.567 1608.191,392.225 1608.238,392.786 C1608.338,394.05 1607.987,395.217 1607.245,396.08 C1606.65,396.756 1605.794,397.14 1604.913,397.144 C1603.274,397.143 1603.135,397.138 1592.551,386.086 C1592.441,386.798 1592.15,387.461 1591.694,387.978 C1591.356,388.377 1590.943,388.663 1590.481,388.846 C1592.445,390.828 1594.36,392.753 1596.211,394.614 C1597.582,396.003 1597.712,398.267 1596.499,399.691 C1595.752,400.56 1594.669,400.905 1593.626,400.718 z" fill="#FFCC00" id="star"/>
      <path d="M2175.959,567.171 C2175.705,568.306 2175.188,569.119 2174.713,569.665 C2174.1,570.372 2173.232,570.754 2172.315,570.724 C2171.391,570.696 2170.505,570.255 2169.863,569.509 C2169.816,569.453 2169.118,568.645 2167.844,567.174 C2167.719,567.627 2167.501,568.054 2167.196,568.423 C2166.462,569.315 2165.378,569.677 2164.326,569.506 C2164.218,571.486 2163.439,572.818 2162.735,573.624 C2162.164,574.28 2161.344,574.674 2160.493,574.694 C2161.548,575.745 2161.584,576.135 2161.675,577.091 C2161.767,578.099 2161.462,579.077 2160.844,579.792 C2160.316,580.396 2159.515,581.075 2158.374,581.461 C2158.522,581.876 2158.588,582.238 2158.615,582.592 C2158.697,583.668 2158.38,584.668 2157.727,585.419 C2156.529,586.792 2154.481,586.835 2153.11,585.511 L2149.798,582.314 C2150.4,583.739 2150.749,585.007 2150.84,586.111 C2151.037,588.518 2150.19,590.038 2149.443,590.896 C2148.853,591.571 2148.028,591.96 2147.145,591.958 C2146.261,591.964 2145.4,591.58 2144.74,590.903 C2142.24,588.332 2139.647,585.664 2136.987,582.932 C2137.031,583.139 2137.056,583.345 2137.074,583.54 C2137.171,584.813 2136.81,586.007 2136.054,586.874 C2135.669,587.305 2135.13,587.79 2134.395,588.146 C2138.321,591.708 2138.32,591.773 2138.443,593.271 C2138.525,594.255 2138.224,595.226 2137.607,595.927 C2137.467,596.092 2137.321,596.233 2137.176,596.36 C2138.284,598.313 2138.888,599.97 2139.003,601.352 C2139.175,603.429 2138.423,604.781 2137.762,605.534 C2136.961,606.459 2135.489,607.545 2133.031,607.458 C2131.6,607.407 2129.698,606.965 2126.877,605.524 C2126.72,605.532 2126.569,605.539 2126.405,605.543 C2125.607,605.541 2124.536,605.531 2122.326,604.472 C2129.149,610.521 2133.351,614.195 2133.466,614.303 C2134.205,614.943 2134.674,615.877 2134.768,616.884 C2134.858,617.879 2134.549,618.858 2133.928,619.568 C2133.34,620.248 2132.273,621.058 2130.526,621.082 C2137.124,627.955 2139.632,631.651 2139.819,634.072 C2139.911,635.307 2139.568,636.451 2138.829,637.299 C2138.154,638.083 2137.197,638.434 2136.25,638.348 C2142.032,644.21 2144.157,647.335 2144.351,649.541 C2144.456,650.745 2144.115,651.876 2143.39,652.707 C2143.047,653.1 2142.699,653.38 2142.36,653.565 C2143.673,654.764 2144.399,655.414 2144.449,655.464 C2145.176,656.12 2145.626,657.053 2145.714,658.037 C2145.784,659.006 2145.504,659.944 2144.922,660.642 C2152.938,671.155 2153.22,674.532 2153.383,676.482 C2153.588,678.866 2152.768,680.367 2152.036,681.2 C2151.625,681.678 2151.111,681.994 2150.557,682.153 C2154.243,686.195 2155.386,688.243 2155.506,689.772 C2155.504,689.785 2155.506,689.791 2155.509,689.803 C2160.243,696.541 2162.957,701.889 2163.255,705.553 C2163.479,708.385 2162.509,710.156 2161.653,711.143 C2161.009,711.872 2159.846,712.743 2157.918,712.725 C2156.678,712.707 2154.806,712.698 2149.651,709.448 C2149.453,709.811 2149.236,710.116 2149.026,710.36 C2148.408,711.061 2147.546,711.449 2146.634,711.417 C2145.71,711.389 2144.83,710.953 2144.186,710.219 C2143.163,709.043 2142.124,707.86 2141.09,706.668 C2145.601,712.605 2145.706,714.198 2145.784,715.352 C2145.864,716.571 2145.51,717.692 2144.799,718.513 C2144.18,719.228 2143.291,719.609 2142.361,719.577 C2141.438,719.536 2140.547,719.076 2139.905,718.311 C2129.248,705.508 2114.784,688.465 2098.299,669.469 C2051.833,621.424 1975.471,546.894 1920.801,494.582 C1920.551,494.514 1920.29,494.449 1920.049,494.395 L1970.132,545.536 C1981.923,556.264 1994.59,567.927 2007.24,579.793 C2074.746,643.114 2095.698,669.062 2102.338,680.523 L2126.956,705.663 C2128.316,707.055 2128.433,709.323 2127.212,710.729 C2126.586,711.439 2125.464,712.286 2123.614,712.257 C2121.361,712.224 2116.884,712.151 2092.032,689.586 C2088.329,686.454 2083.054,681.715 2075.408,674.514 C2074.38,675.377 2072.826,676.159 2070.586,676.11 C2064.959,675.98 2056.208,670.196 2044.575,659.761 C2043.638,659.684 2042.531,659.362 2041.236,658.779 C2041.209,660.01 2040.797,661.122 2040.069,661.967 C2038.844,663.376 2036.745,663.387 2035.378,661.99 C2035.07,661.676 2034.825,661.317 2034.645,660.933 C2033.576,661.421 2032.28,661.258 2031.268,660.411 L2024.185,654.478 C2031.842,661.858 2032.291,662.926 2032.423,664.653 C2032.487,665.637 2032.168,666.683 2031.556,667.383 C2030.423,668.685 2028.51,668.799 2027.131,667.644 C2025.43,666.218 2023.646,664.731 2021.803,663.179 C2025.059,667.227 2025.159,668.447 2025.242,669.476 C2025.332,670.627 2024.998,671.704 2024.307,672.492 C2023.163,673.816 2021.221,673.912 2019.839,672.726 C2017.219,670.455 2014.564,668.181 2011.897,665.912 C2012.355,666.875 2012.629,667.751 2012.715,668.514 C2012.886,670.113 2012.473,671.575 2011.544,672.636 C2009.351,675.154 2007.024,673.371 2001.417,669.042 C1998.007,666.418 1993.435,662.749 1988.598,658.883 C1986.945,657.559 1985.147,656.122 1983.286,654.634 C1989.497,660.587 1997.252,667.821 2006.542,676.303 C2013.127,682.326 2013.139,682.322 2013.27,683.966 C2013.349,684.964 2013.045,685.922 2012.429,686.624 C2010.113,689.283 2007.784,687.513 2000.57,681.36 C2000.5,681.465 2000.422,681.56 2000.341,681.662 C1999.795,682.285 1999.187,682.738 1998.444,682.934 C1999.672,684.223 1999.717,684.708 1999.804,685.692 C1999.891,686.694 1999.589,687.696 1998.97,688.412 C1997.699,689.865 1996.153,690.301 1993.54,689.198 C1993.434,689.573 1993.263,689.929 1993.024,690.253 C1991.954,691.75 1989.931,691.992 1988.458,690.794 C1986.475,689.193 1984.441,687.517 1982.4,685.803 C1983.522,687.248 1983.719,688.005 1983.777,688.912 C1983.846,689.894 1983.516,690.944 1982.91,691.642 C1981.88,692.817 1980.205,693.039 1978.857,692.18 C1976.269,690.527 1973.372,688.675 1970.418,686.787 C1971.787,687.932 1973.159,689.049 1974.501,690.123 C1975.975,691.307 1976.373,693.485 1975.398,695.064 C1975.002,695.712 1974.418,696.152 1973.781,696.387 C1979.866,702.91 1979.977,704.326 1980.053,705.254 C1980.135,706.336 1979.816,707.343 1979.166,708.093 C1977.1,710.477 1974.158,709.247 1969.059,705.432 C1968.113,706.472 1966.632,706.733 1965.355,706.093 L1962.718,704.751 C1962.714,705.626 1962.403,706.482 1961.862,707.103 C1960.571,708.588 1959.693,708.599 1956.855,707.195 C1956.712,707.665 1956.477,708.104 1956.167,708.469 C1954.941,709.876 1952.84,709.896 1951.472,708.499 C1951.38,708.404 1951.29,708.302 1951.203,708.191 C1950.903,707.919 1950.403,707.486 1949.785,706.959 C1944.881,702.709 1943.021,700.89 1942.468,699.038 C1942.377,698.734 1942.32,698.423 1942.297,698.112 C1942.199,697.035 1942.516,695.977 1943.176,695.223 C1943.923,694.365 1944.502,693.934 1945.616,694.067 C1945.617,694.054 1945.612,694.036 1945.61,694.01 C1945.544,693.04 1945.859,692.059 1946.463,691.369 C1947.405,690.292 1948.899,690 1950.203,690.653 C1948.704,689.172 1947.391,687.896 1946.501,687.017 C1942.629,683.217 1942.627,683.212 1942.54,681.678 C1942.478,680.72 1942.786,679.794 1943.381,679.117 C1943.946,678.464 1944.528,678.141 1945.126,678.046 C1944.783,677.728 1944.44,677.41 1944.098,677.098 C1942.727,675.844 1942.451,673.714 1943.444,672.22 C1944.126,671.201 1945.245,670.719 1946.363,670.85 C1946.346,670.771 1946.339,670.69 1946.33,670.62 C1946.193,669.29 1946.541,668.067 1947.329,667.165 C1949.078,665.16 1951.084,666.398 1952.692,667.401 C1953.534,667.926 1954.74,668.684 1956.182,669.6 C1948.381,662.096 1947.984,661.224 1947.864,659.436 C1947.793,658.467 1948.12,657.431 1948.716,656.736 C1949.521,655.816 1950.616,654.564 1954.422,655.983 C1954.281,654.582 1954.653,653.294 1955.479,652.349 C1955.573,652.23 1955.678,652.128 1955.783,652.024 C1953.969,649.584 1953.139,647.736 1953.001,646.185 C1952.878,644.805 1953.261,643.519 1954.079,642.584 C1954.68,641.887 1955.497,641.539 1956.329,641.517 C1955.114,640.139 1955.025,638.024 1956.153,636.659 C1956.74,635.939 1957.566,635.563 1958.412,635.531 C1958.344,634.354 1958.687,633.268 1959.384,632.464 C1961.806,629.683 1964.919,631.808 1973.554,638.35 C1978.964,642.454 1985.671,647.82 1992.163,653.016 C1983.873,645.16 1973.008,635.789 1962.727,627.551 C1961.936,626.92 1961.428,625.972 1961.313,624.952 C1961.201,623.924 1961.502,622.917 1962.139,622.183 C1964.529,619.438 1967.724,621.44 1976.234,627.885 C1977.562,628.891 1979.025,630.014 1980.613,631.262 C1975.536,626.476 1970.306,621.612 1965.159,616.908 C1964.445,616.253 1964.003,615.325 1963.926,614.339 C1963.85,613.352 1964.148,612.396 1964.76,611.696 C1966.728,609.433 1968.802,610.922 1971.642,613.101 C1968.522,609.472 1967.421,607.407 1967.309,605.785 C1967.221,604.62 1967.559,603.543 1968.254,602.746 C1969.366,601.469 1971.224,601.328 1972.586,602.41 C1969.682,598.929 1968.807,597.108 1968.704,595.656 C1968.668,595.126 1968.723,594.612 1968.862,594.135 C1967.491,592.91 1966.131,591.695 1964.786,590.493 C1913.332,544.561 1887.609,520.681 1884.373,509.864 C1884.196,509.272 1884.091,508.722 1884.048,508.204 C1883.87,506.087 1884.631,504.724 1885.305,503.954 C1885.956,503.209 1886.85,502.804 1887.847,502.804 C1888.421,502.807 1889.1,502.989 1890.002,503.476 C1884.454,497.509 1882.38,494.36 1882.229,492.39 C1882.146,491.243 1882.482,490.176 1883.167,489.386 C1883.826,488.627 1885.022,487.732 1886.958,487.771 C1889.634,487.84 1893.558,490.112 1899.093,494.793 C1899.335,494.397 1899.589,494.059 1899.835,493.776 C1900.424,493.098 1901.253,492.718 1902.127,492.719 C1903.011,492.713 1903.879,493.088 1904.529,493.764 C1905.207,494.457 1905.881,495.152 1906.561,495.848 C1906.603,495.102 1906.863,494.37 1907.356,493.787 C1908.045,492.954 1909.038,492.579 1910.03,492.681 C1910.008,492.571 1909.999,492.461 1909.995,492.349 C1909.94,491.399 1910.246,490.485 1910.841,489.809 C1912.039,488.429 1914.266,486.815 1918.072,486.97 C1919.196,487.015 1920.427,487.223 1921.77,487.592 C1922.757,487.046 1924.077,486.644 1925.781,486.698 C1928.483,486.775 1933.995,486.933 1952.482,501.642 C1938.523,488.932 1938.476,488.461 1938.337,486.69 C1938.26,485.698 1938.572,484.706 1939.18,484 C1939.846,483.242 1940.761,482.832 1941.777,482.849 C1943.772,482.874 1946.81,485.001 1955.863,494.267 C1956.122,492.886 1956.724,491.913 1957.273,491.283 C1958.478,489.901 1960.531,489.861 1961.905,491.2 L1964.527,493.755 C1964.483,493.571 1964.455,493.379 1964.439,493.186 C1964.354,492.189 1964.66,491.221 1965.271,490.518 C1965.398,490.367 1965.546,490.213 1965.714,490.065 C1964.969,488.696 1964.592,487.593 1964.528,486.722 C1964.44,485.461 1964.805,484.294 1965.55,483.444 C1966.44,482.418 1967.998,481.231 1970.495,481.07 C1971.597,480.476 1972.977,480.611 1974.041,481.479 C1978.922,482.791 1985.523,487.044 1993.544,493.685 C1993.558,491.995 1994.203,490.874 1994.772,490.213 C1995.371,489.529 1996.207,489.147 1997.099,489.152 C1997.992,489.157 1998.859,489.548 1999.513,490.239 C1999.688,490.427 1999.875,490.62 2000.05,490.81 C1999.546,489.46 1999.474,488.608 1999.42,487.952 C1999.221,485.724 2000.003,484.312 2000.693,483.522 C2001.291,482.838 2002.127,482.453 2003.021,482.462 C2003.47,482.463 2003.907,482.566 2004.317,482.751 C2001.049,478.765 1999.767,476.469 1999.68,475.013 C1999.609,473.901 1999.937,472.869 2000.606,472.104 C2000.728,471.96 2000.866,471.829 2001.013,471.71 C2000.831,471.179 2000.724,470.703 2000.691,470.256 C2000.575,468.88 2000.956,467.609 2001.759,466.68 C2002.362,465.992 2003.027,465.629 2003.75,465.522 C2003.601,464.926 2003.57,464.486 2003.531,464.119 C2003.384,462.167 2004.08,460.918 2004.696,460.213 C2004.91,459.962 2005.161,459.755 2005.436,459.588 C2005.034,458.699 2004.824,457.934 2004.77,457.261 C2004.676,455.959 2005.045,454.762 2005.804,453.885 C2006.499,453.088 2007.478,452.651 2008.574,452.647 C2008.946,452.646 2009.365,452.644 2009.986,452.83 C2009.923,452.557 2009.905,452.3 2009.881,452.019 C2009.803,451.027 2010.128,449.979 2010.736,449.27 C2010.957,449.02 2011.206,448.809 2011.471,448.649 C2011.748,447.186 2012.374,446.16 2012.957,445.485 C2013.365,445.027 2013.844,444.721 2014.373,444.557 C2014.342,444.372 2014.322,444.187 2014.311,444.009 C2014.217,442.747 2014.493,441.577 2015.096,440.65 C2014.627,439.399 2014.347,438.282 2014.253,437.295 C2013.996,434.476 2014.968,432.711 2015.823,431.725 C2016.091,431.415 2016.467,431.076 2016.966,430.808 C2016.529,429.919 2016.299,429.146 2016.238,428.45 C2016.124,427.158 2016.486,425.959 2017.245,425.085 C2018.445,423.708 2020.479,423.659 2021.856,424.97 L2022.956,426.029 C2022.414,425.101 2022.389,424.659 2022.365,424.206 C2022.32,423.405 2022.542,422.562 2022.959,421.91 C2022.183,420.496 2021.764,419.291 2021.679,418.272 C2021.556,416.836 2021.951,415.511 2022.796,414.544 C2023.27,413.998 2023.877,413.658 2024.525,413.536 C2024.169,412.345 2024.387,411.019 2025.203,410.075 C2026.738,408.3 2028.325,408.913 2029.889,410.057 L2029.893,410.05 L2029.948,410.098 C2030.397,410.436 2030.859,410.816 2031.309,411.193 L2032.264,412.001 C2031.507,410.769 2031.19,409.828 2031.127,408.966 C2031.038,407.813 2031.377,406.741 2032.066,405.943 C2032.441,405.514 2032.835,405.18 2033.261,404.965 C2033.218,404.684 2033.188,404.444 2033.169,404.222 C2033.023,402.762 2033.416,401.412 2034.269,400.435 C2035.372,399.168 2037.204,399.022 2038.584,400.081 C2040.703,401.723 2042.908,403.393 2045.112,405.041 C2031.882,391.65 2031.854,391.125 2031.776,389.676 C2031.721,388.721 2032.027,387.789 2032.615,387.109 C2033.739,385.816 2034.766,385.341 2037.915,386.755 C2035.522,384.277 2034.656,382.743 2034.506,381.151 C2034.393,379.959 2034.728,378.85 2035.454,378.019 C2036.442,376.882 2038.043,376.631 2039.37,377.399 C2041.052,378.368 2042.971,379.474 2044.958,380.613 C2045.061,379.912 2045.35,379.243 2045.781,378.745 C2047.006,377.338 2049.11,377.327 2050.478,378.724 C2050.819,379.078 2051.083,379.487 2051.266,379.924 C2052.239,381.025 2055.091,383.68 2056.866,385.332 C2062.054,390.175 2062.728,390.792 2062.866,392.66 C2062.929,393.641 2062.621,394.619 2062.018,395.314 C2061.047,396.428 2060.204,396.667 2058.857,396.21 C2065.504,402.04 2067.41,404.353 2067.652,406.804 C2067.759,407.992 2067.424,409.101 2066.704,409.932 C2065.653,411.138 2063.924,411.334 2062.561,410.408 C2060.011,408.669 2057.369,406.897 2054.781,405.185 C2060.093,410.544 2065.733,416.209 2070.268,420.739 C2070.933,421.405 2071.342,422.321 2071.398,423.277 C2071.447,424.233 2071.15,425.156 2070.552,425.839 C2069.268,427.313 2067.949,428.823 2058.048,422.587 C2064.083,428.128 2070.38,434.095 2075.735,439.162 C2078.992,442.245 2082.32,445.4 2084.444,447.353 C2085.302,448.074 2086.15,448.788 2087.001,449.495 C2087.761,450.132 2088.264,451.074 2088.359,452.091 C2088.458,453.103 2088.155,454.096 2087.524,454.819 C2087.046,455.372 2086.569,455.712 2086.08,455.871 C2086.687,456.838 2086.842,457.5 2086.896,458.231 C2086.977,459.291 2086.658,460.282 2086.013,461.025 C2084.037,463.3 2081.639,461.516 2080.059,460.335 C2079.139,459.646 2077.839,458.634 2076.21,457.329 L2088.668,470.054 C2088.932,470.325 2089.152,470.628 2089.316,470.957 C2093.781,475.56 2098.578,480.58 2103.733,486.052 C2103.937,486.02 2104.146,486.004 2104.359,486.005 C2104.824,486.001 2105.355,486.002 2106.244,486.331 C2106.378,486.107 2106.532,485.896 2106.707,485.697 C2107.282,485.037 2108.327,484.246 2110.011,484.252 C2111.479,484.256 2113.501,485.075 2116.082,486.695 C2116.751,486.091 2117.791,485.512 2119.311,485.514 C2121.684,485.514 2125.249,487.335 2129.935,490.762 C2131.148,489.766 2132.848,489.519 2136.51,491.437 C2135.771,490.18 2135.767,488.544 2136.613,487.354 C2137.683,485.84 2139.724,485.59 2141.203,486.798 L2150.273,494.184 C2149.84,493.366 2149.625,492.647 2149.569,491.962 C2149.464,490.771 2149.802,489.661 2150.52,488.841 C2153.226,485.73 2156.938,487.468 2168.449,498.121 C2168.605,497.733 2168.827,497.368 2169.102,497.053 C2170.824,495.08 2172.603,495.742 2176.367,498.318 C2176.313,498.076 2176.28,497.839 2176.256,497.592 C2176.167,496.534 2176.488,495.504 2177.134,494.761 C2178.583,493.099 2180.474,492.902 2183.909,494.652 C2183.827,493.438 2184.181,492.31 2184.923,491.458 C2185.997,490.222 2187.786,490.047 2189.155,491.044 C2191.62,492.837 2197.016,498.353 2200.066,500.575 C2198.563,499.05 2197.107,497.573 2195.735,496.179 C2194.41,494.844 2194.247,492.669 2195.355,491.243 C2196.463,489.812 2198.46,489.633 2199.892,490.833 L2209.504,497.546 C2209.949,497.121 2210.492,496.853 2211.069,496.749 C2209.699,495.353 2209.587,493.08 2210.811,491.676 C2212.512,489.724 2212.827,489.318 2217.838,493.101 C2217.953,492.507 2220.84,492.064 2223.648,498.511 C2226.457,504.958 2220.95,503.52 2220.95,503.52 C2220.6,503.709 2226.295,511.988 2225.904,512.021 C2225.956,513.016 2225.668,513.909 2225.097,514.584 C2223.243,516.801 2221.317,515.403 2219.079,513.781 L2218.055,520.507 C2218.113,520.741 2218.156,520.981 2218.179,521.219 C2218.301,522.439 2217.959,523.582 2217.217,524.438 C2215.471,526.441 2213.382,525.493 2211.139,523.898 C2211.552,524.7 2211.762,525.414 2211.821,526.114 C2211.923,527.288 2211.586,528.391 2210.873,529.213 C2210.414,529.731 2209.834,530.074 2209.214,530.207 C2212.852,533.98 2214.643,536.718 2214.867,539.037 C2215,540.422 2214.617,541.719 2213.784,542.673 C2211.605,545.18 2208.653,544.542 2201.886,539.007 C2201.718,539.548 2201.446,540.044 2201.077,540.465 C2199.955,541.757 2198.073,541.886 2196.693,540.765 L2192.376,537.247 C2193.541,539.164 2193.623,540.091 2193.689,540.84 C2193.8,542.114 2193.446,543.288 2192.695,544.145 C2191.502,545.523 2189.463,545.563 2188.093,544.257 C2179.858,536.397 2171.168,528.376 2163.148,521.242 C2169.183,527.322 2175.752,534.079 2182.815,541.427 C2185.891,544.63 2188.84,547.697 2190.455,549.309 C2190.955,549.757 2191.451,550.203 2191.947,550.65 C2192.678,551.299 2193.135,552.235 2193.217,553.221 C2193.301,554.225 2192.994,555.183 2192.382,555.89 C2191.788,556.566 2190.947,556.954 2190.062,556.953 C2190.472,558.021 2190.524,558.678 2190.571,559.239 C2190.671,560.504 2190.32,561.67 2189.578,562.533 C2188.982,563.209 2188.127,563.593 2187.246,563.597 C2185.607,563.596 2185.468,563.592 2174.884,552.539 C2174.774,553.251 2174.483,553.915 2174.027,554.432 C2173.689,554.83 2173.276,555.116 2172.814,555.299 C2174.778,557.281 2176.693,559.206 2178.544,561.067 C2179.915,562.456 2180.045,564.721 2178.832,566.144 C2178.085,567.013 2177.002,567.358 2175.959,567.171 z" fill="#FFCC00" id="star"/>
      <path d="M2593.091,976.043 C2592.837,977.178 2592.32,977.991 2591.845,978.537 C2591.233,979.244 2590.365,979.626 2589.447,979.596 C2588.524,979.568 2587.637,979.127 2586.995,978.381 C2586.948,978.325 2586.25,977.517 2584.976,976.046 C2584.851,976.499 2584.633,976.926 2584.328,977.295 C2583.594,978.187 2582.51,978.549 2581.458,978.378 C2581.35,980.358 2580.571,981.69 2579.867,982.496 C2579.296,983.152 2578.476,983.546 2577.625,983.566 C2578.68,984.617 2578.717,985.007 2578.807,985.963 C2578.899,986.971 2578.595,987.949 2577.976,988.664 C2577.448,989.268 2576.648,989.947 2575.506,990.333 C2575.654,990.748 2575.72,991.11 2575.747,991.464 C2575.829,992.54 2575.512,993.54 2574.859,994.291 C2573.661,995.664 2571.613,995.707 2570.242,994.383 L2566.93,991.186 C2567.532,992.611 2567.881,993.879 2567.973,994.983 C2568.169,997.39 2567.322,998.91 2566.575,999.768 C2565.985,1000.443 2565.16,1000.832 2564.277,1000.83 C2563.393,1000.836 2562.532,1000.452 2561.873,999.775 C2559.372,997.204 2556.779,994.536 2554.119,991.804 C2554.163,992.011 2554.189,992.217 2554.206,992.412 C2554.303,993.685 2553.942,994.879 2553.186,995.746 C2552.802,996.177 2552.262,996.662 2551.527,997.018 C2555.453,1000.58 2555.452,1000.645 2555.575,1002.143 C2555.657,1003.128 2555.356,1004.098 2554.739,1004.799 C2554.599,1004.964 2554.453,1005.105 2554.308,1005.232 C2555.417,1007.185 2556.021,1008.842 2556.135,1010.224 C2556.307,1012.301 2555.555,1013.653 2554.894,1014.406 C2554.093,1015.331 2552.621,1016.417 2550.163,1016.33 C2548.732,1016.279 2546.83,1015.837 2544.01,1014.396 C2543.852,1014.404 2543.701,1014.411 2543.537,1014.415 C2542.74,1014.413 2541.668,1014.403 2539.458,1013.344 C2546.281,1019.393 2550.483,1023.067 2550.598,1023.175 C2551.337,1023.815 2551.806,1024.749 2551.9,1025.756 C2551.99,1026.751 2551.681,1027.73 2551.06,1028.44 C2550.472,1029.12 2549.405,1029.93 2547.659,1029.954 C2554.256,1036.827 2556.764,1040.523 2556.951,1042.944 C2557.043,1044.179 2556.7,1045.323 2555.961,1046.171 C2555.286,1046.955 2554.329,1047.306 2553.382,1047.22 C2559.165,1053.082 2561.289,1056.207 2561.483,1058.413 C2561.589,1059.617 2561.247,1060.748 2560.522,1061.579 C2560.179,1061.972 2559.832,1062.252 2559.492,1062.437 C2560.806,1063.636 2561.531,1064.286 2561.581,1064.336 C2562.308,1064.992 2562.758,1065.925 2562.846,1066.909 C2562.916,1067.878 2562.636,1068.816 2562.054,1069.514 C2570.07,1080.027 2570.353,1083.404 2570.516,1085.354 C2570.721,1087.738 2569.9,1089.239 2569.169,1090.072 C2568.757,1090.55 2568.243,1090.866 2567.689,1091.025 C2571.375,1095.068 2572.518,1097.115 2572.638,1098.644 C2572.636,1098.657 2572.638,1098.663 2572.641,1098.675 C2577.375,1105.413 2580.089,1110.761 2580.388,1114.425 C2580.611,1117.257 2579.641,1119.028 2578.785,1120.015 C2578.141,1120.744 2576.979,1121.615 2575.05,1121.597 C2573.811,1121.579 2571.938,1121.57 2566.783,1118.32 C2566.585,1118.683 2566.369,1118.988 2566.158,1119.232 C2565.541,1119.933 2564.678,1120.321 2563.766,1120.289 C2562.843,1120.261 2561.962,1119.825 2561.319,1119.091 C2560.295,1117.915 2559.256,1116.732 2558.222,1115.54 C2562.733,1121.477 2562.838,1123.07 2562.917,1124.224 C2562.997,1125.443 2562.642,1126.564 2561.931,1127.385 C2561.312,1128.1 2560.423,1128.481 2559.493,1128.449 C2558.571,1128.407 2557.679,1127.948 2557.037,1127.183 C2546.38,1114.38 2531.917,1097.337 2515.431,1078.341 C2468.965,1030.296 2392.603,955.766 2337.933,903.453 C2337.683,903.386 2337.423,903.321 2337.182,903.267 L2387.264,954.408 C2399.055,965.136 2411.722,976.799 2424.372,988.665 C2491.879,1051.986 2512.831,1077.934 2519.47,1089.395 L2544.088,1114.535 C2545.448,1115.927 2545.565,1118.195 2544.344,1119.601 C2543.718,1120.311 2542.596,1121.158 2540.746,1121.129 C2538.493,1121.096 2534.016,1121.023 2509.164,1098.458 C2505.461,1095.326 2500.186,1090.587 2492.541,1083.386 C2491.512,1084.249 2489.958,1085.031 2487.719,1084.982 C2482.091,1084.852 2473.34,1079.068 2461.707,1068.633 C2460.77,1068.556 2459.664,1068.234 2458.369,1067.651 C2458.341,1068.882 2457.929,1069.994 2457.201,1070.839 C2455.976,1072.248 2453.878,1072.259 2452.511,1070.862 C2452.203,1070.548 2451.958,1070.189 2451.777,1069.805 C2450.708,1070.292 2449.412,1070.13 2448.4,1069.283 L2441.317,1063.35 C2448.975,1070.73 2449.423,1071.798 2449.555,1073.525 C2449.62,1074.509 2449.301,1075.555 2448.688,1076.255 C2447.555,1077.557 2445.642,1077.671 2444.263,1076.516 C2442.562,1075.09 2440.779,1073.603 2438.935,1072.051 C2442.191,1076.099 2442.291,1077.319 2442.375,1078.348 C2442.464,1079.499 2442.13,1080.576 2441.439,1081.364 C2440.295,1082.688 2438.353,1082.784 2436.971,1081.598 C2434.352,1079.327 2431.696,1077.053 2429.029,1074.784 C2429.488,1075.747 2429.761,1076.623 2429.847,1077.386 C2430.018,1078.985 2429.605,1080.447 2428.676,1081.508 C2426.483,1084.026 2424.156,1082.243 2418.549,1077.914 C2415.139,1075.29 2410.567,1071.621 2405.73,1067.755 C2404.077,1066.431 2402.279,1064.994 2400.418,1063.506 C2406.629,1069.459 2414.385,1076.693 2423.675,1085.175 C2430.26,1091.198 2430.271,1091.194 2430.402,1092.838 C2430.481,1093.836 2430.177,1094.794 2429.561,1095.496 C2427.245,1098.155 2424.916,1096.385 2417.702,1090.232 C2417.633,1090.337 2417.555,1090.432 2417.473,1090.534 C2416.927,1091.157 2416.32,1091.61 2415.576,1091.806 C2416.805,1093.094 2416.85,1093.58 2416.936,1094.564 C2417.023,1095.566 2416.721,1096.568 2416.103,1097.284 C2414.831,1098.737 2413.285,1099.173 2410.672,1098.07 C2410.566,1098.445 2410.395,1098.801 2410.156,1099.125 C2409.086,1100.622 2407.063,1100.864 2405.591,1099.666 C2403.607,1098.065 2401.573,1096.389 2399.532,1094.675 C2400.654,1096.12 2400.851,1096.877 2400.909,1097.784 C2400.979,1098.766 2400.648,1099.816 2400.042,1100.514 C2399.012,1101.689 2397.337,1101.911 2395.989,1101.052 C2393.401,1099.399 2390.504,1097.547 2387.551,1095.659 C2388.919,1096.804 2390.291,1097.921 2391.633,1098.995 C2393.107,1100.179 2393.505,1102.357 2392.53,1103.936 C2392.134,1104.584 2391.551,1105.024 2390.913,1105.259 C2396.998,1111.782 2397.109,1113.198 2397.186,1114.126 C2397.267,1115.208 2396.948,1116.215 2396.298,1116.965 C2394.232,1119.349 2391.291,1118.119 2386.191,1114.304 C2385.245,1115.344 2383.765,1115.605 2382.487,1114.965 L2379.85,1113.623 C2379.847,1114.498 2379.535,1115.354 2378.994,1115.975 C2377.703,1117.46 2376.825,1117.471 2373.987,1116.067 C2373.844,1116.537 2373.609,1116.976 2373.299,1117.341 C2372.073,1118.748 2369.972,1118.768 2368.604,1117.371 C2368.512,1117.276 2368.422,1117.174 2368.335,1117.063 C2368.035,1116.791 2367.535,1116.358 2366.917,1115.831 C2362.013,1111.581 2360.153,1109.762 2359.6,1107.91 C2359.51,1107.606 2359.452,1107.295 2359.429,1106.984 C2359.332,1105.907 2359.648,1104.849 2360.308,1104.095 C2361.055,1103.237 2361.635,1102.806 2362.748,1102.939 C2362.75,1102.926 2362.744,1102.908 2362.742,1102.882 C2362.677,1101.912 2362.992,1100.931 2363.595,1100.241 C2364.537,1099.164 2366.031,1098.872 2367.335,1099.525 C2365.836,1098.044 2364.523,1096.768 2363.633,1095.888 C2359.761,1092.089 2359.76,1092.084 2359.672,1090.55 C2359.61,1089.592 2359.918,1088.666 2360.513,1087.989 C2361.078,1087.336 2361.661,1087.013 2362.258,1086.918 C2361.915,1086.599 2361.572,1086.282 2361.23,1085.97 C2359.859,1084.716 2359.583,1082.586 2360.576,1081.092 C2361.258,1080.073 2362.377,1079.591 2363.495,1079.722 C2363.479,1079.643 2363.471,1079.562 2363.463,1079.492 C2363.325,1078.162 2363.673,1076.939 2364.461,1076.037 C2366.21,1074.032 2368.216,1075.271 2369.824,1076.273 C2370.666,1076.798 2371.872,1077.556 2373.314,1078.472 C2365.513,1070.968 2365.116,1070.096 2364.996,1068.308 C2364.925,1067.339 2365.253,1066.303 2365.848,1065.608 C2366.653,1064.688 2367.749,1063.436 2371.554,1064.855 C2371.413,1063.454 2371.785,1062.166 2372.611,1061.221 C2372.706,1061.102 2372.811,1061 2372.915,1060.896 C2371.101,1058.456 2370.271,1056.608 2370.133,1055.057 C2370.01,1053.677 2370.393,1052.391 2371.211,1051.456 C2371.812,1050.759 2372.629,1050.411 2373.461,1050.389 C2372.246,1049.01 2372.157,1046.896 2373.285,1045.531 C2373.872,1044.811 2374.698,1044.435 2375.544,1044.402 C2375.476,1043.226 2375.819,1042.14 2376.516,1041.336 C2378.938,1038.555 2382.051,1040.68 2390.686,1047.222 C2396.096,1051.326 2402.803,1056.692 2409.295,1061.888 C2401.005,1054.032 2390.14,1044.661 2379.859,1036.423 C2379.068,1035.792 2378.56,1034.844 2378.446,1033.824 C2378.333,1032.796 2378.634,1031.789 2379.271,1031.055 C2381.661,1028.309 2384.856,1030.312 2393.366,1036.757 C2394.694,1037.763 2396.157,1038.886 2397.745,1040.134 C2392.668,1035.348 2387.438,1030.484 2382.292,1025.78 C2381.577,1025.125 2381.135,1024.197 2381.058,1023.211 C2380.982,1022.224 2381.281,1021.268 2381.892,1020.568 C2383.86,1018.305 2385.934,1019.794 2388.774,1021.973 C2385.655,1018.344 2384.553,1016.279 2384.441,1014.657 C2384.354,1013.492 2384.692,1012.415 2385.386,1011.618 C2386.498,1010.341 2388.356,1010.201 2389.718,1011.282 C2386.814,1007.801 2385.939,1005.98 2385.836,1004.528 C2385.8,1003.998 2385.855,1003.484 2385.994,1003.007 C2384.623,1001.782 2383.264,1000.567 2381.919,999.365 C2330.465,953.433 2304.742,929.553 2301.505,918.736 C2301.328,918.144 2301.223,917.594 2301.181,917.076 C2301.002,914.959 2301.763,913.596 2302.438,912.826 C2303.088,912.081 2303.982,911.676 2304.979,911.676 C2305.553,911.679 2306.233,911.861 2307.134,912.348 C2301.587,906.38 2299.512,903.232 2299.361,901.262 C2299.278,900.115 2299.614,899.048 2300.299,898.258 C2300.958,897.499 2302.154,896.604 2304.09,896.643 C2306.766,896.711 2310.691,898.984 2316.226,903.665 C2316.467,903.268 2316.721,902.931 2316.967,902.648 C2317.556,901.97 2318.385,901.59 2319.259,901.591 C2320.143,901.585 2321.011,901.96 2321.661,902.636 C2322.339,903.329 2323.014,904.024 2323.694,904.72 C2323.735,903.974 2323.996,903.242 2324.488,902.659 C2325.177,901.826 2326.17,901.451 2327.162,901.553 C2327.141,901.443 2327.131,901.333 2327.127,901.221 C2327.073,900.271 2327.379,899.357 2327.973,898.681 C2329.171,897.301 2331.399,895.687 2335.204,895.841 C2336.328,895.887 2337.559,896.095 2338.902,896.464 C2339.889,895.918 2341.209,895.516 2342.913,895.57 C2345.615,895.647 2351.127,895.805 2369.615,910.514 C2355.656,897.804 2355.608,897.333 2355.47,895.562 C2355.392,894.57 2355.704,893.577 2356.312,892.872 C2356.978,892.114 2357.894,891.704 2358.909,891.721 C2360.904,891.746 2363.942,893.872 2372.995,903.139 C2373.255,901.758 2373.856,900.785 2374.405,900.155 C2375.61,898.773 2377.663,898.733 2379.037,900.072 L2381.659,902.627 C2381.615,902.443 2381.587,902.251 2381.572,902.058 C2381.486,901.061 2381.792,900.093 2382.404,899.39 C2382.53,899.239 2382.678,899.085 2382.847,898.937 C2382.101,897.568 2381.725,896.465 2381.66,895.594 C2381.573,894.333 2381.938,893.166 2382.682,892.316 C2383.573,891.29 2385.13,890.103 2387.627,889.942 C2388.729,889.348 2390.109,889.483 2391.173,890.351 C2396.055,891.663 2402.655,895.916 2410.676,902.557 C2410.69,900.867 2411.335,899.746 2411.905,899.085 C2412.503,898.401 2413.339,898.019 2414.232,898.024 C2415.125,898.029 2415.992,898.42 2416.645,899.111 C2416.82,899.299 2417.007,899.492 2417.182,899.682 C2416.678,898.332 2416.606,897.48 2416.552,896.824 C2416.353,894.596 2417.135,893.184 2417.826,892.394 C2418.424,891.71 2419.259,891.325 2420.153,891.334 C2420.602,891.335 2421.04,891.438 2421.449,891.623 C2418.181,887.637 2416.9,885.341 2416.812,883.885 C2416.741,882.773 2417.069,881.741 2417.738,880.976 C2417.86,880.832 2417.998,880.701 2418.146,880.582 C2417.964,880.05 2417.856,879.575 2417.823,879.128 C2417.707,877.752 2418.089,876.481 2418.891,875.552 C2419.494,874.864 2420.159,874.501 2420.882,874.394 C2420.733,873.798 2420.702,873.358 2420.664,872.991 C2420.516,871.039 2421.212,869.79 2421.829,869.085 C2422.042,868.834 2422.293,868.627 2422.568,868.46 C2422.167,867.571 2421.957,866.806 2421.902,866.133 C2421.809,864.831 2422.177,863.634 2422.936,862.757 C2423.631,861.96 2424.61,861.523 2425.706,861.518 C2426.078,861.518 2426.497,861.516 2427.119,861.702 C2427.056,861.429 2427.037,861.172 2427.013,860.891 C2426.935,859.899 2427.26,858.851 2427.868,858.142 C2428.089,857.892 2428.338,857.681 2428.604,857.521 C2428.88,856.058 2429.506,855.032 2430.089,854.357 C2430.497,853.899 2430.977,853.593 2431.506,853.429 C2431.474,853.244 2431.455,853.059 2431.443,852.881 C2431.35,851.619 2431.626,850.449 2432.229,849.522 C2431.76,848.271 2431.479,847.154 2431.385,846.167 C2431.128,843.348 2432.1,841.583 2432.955,840.597 C2433.223,840.287 2433.599,839.948 2434.098,839.68 C2433.662,838.791 2433.431,838.018 2433.371,837.321 C2433.256,836.03 2433.618,834.831 2434.377,833.957 C2435.577,832.58 2437.611,832.531 2438.988,833.842 L2440.088,834.901 C2439.546,833.973 2439.521,833.531 2439.497,833.078 C2439.453,832.277 2439.674,831.434 2440.091,830.782 C2439.315,829.368 2438.896,828.163 2438.811,827.144 C2438.688,825.708 2439.083,824.383 2439.928,823.416 C2440.402,822.87 2441.009,822.53 2441.657,822.408 C2441.301,821.217 2441.519,819.891 2442.335,818.947 C2443.87,817.172 2445.458,817.785 2447.021,818.929 L2447.025,818.922 L2447.08,818.97 C2447.53,819.308 2447.991,819.688 2448.441,820.065 L2449.396,820.873 C2448.639,819.641 2448.322,818.7 2448.259,817.838 C2448.17,816.685 2448.51,815.613 2449.198,814.815 C2449.573,814.386 2449.967,814.052 2450.394,813.837 C2450.35,813.556 2450.321,813.316 2450.301,813.094 C2450.155,811.634 2450.548,810.284 2451.401,809.307 C2452.504,808.04 2454.337,807.894 2455.716,808.953 C2457.835,810.594 2460.04,812.265 2462.244,813.913 C2449.014,800.522 2448.987,799.997 2448.908,798.548 C2448.854,797.593 2449.159,796.661 2449.747,795.981 C2450.871,794.688 2451.898,794.213 2455.047,795.627 C2452.655,793.149 2451.789,791.615 2451.638,790.023 C2451.525,788.831 2451.86,787.722 2452.586,786.891 C2453.574,785.754 2455.176,785.503 2456.503,786.271 C2458.185,787.24 2460.103,788.346 2462.09,789.484 C2462.193,788.784 2462.483,788.115 2462.913,787.617 C2464.138,786.21 2466.242,786.199 2467.61,787.596 C2467.951,787.95 2468.216,788.359 2468.399,788.796 C2469.371,789.897 2472.223,792.552 2473.998,794.204 C2479.186,799.047 2479.86,799.664 2479.999,801.532 C2480.062,802.512 2479.753,803.491 2479.15,804.185 C2478.179,805.3 2477.336,805.539 2475.99,805.082 C2482.636,810.912 2484.542,813.224 2484.784,815.676 C2484.891,816.864 2484.556,817.973 2483.836,818.804 C2482.785,820.01 2481.056,820.206 2479.693,819.28 C2477.144,817.541 2474.502,815.769 2471.913,814.057 C2477.225,819.416 2482.865,825.081 2487.4,829.611 C2488.065,830.277 2488.474,831.193 2488.53,832.149 C2488.579,833.105 2488.282,834.028 2487.684,834.711 C2486.4,836.185 2485.081,837.695 2475.18,831.459 C2481.215,837 2487.512,842.967 2492.867,848.034 C2496.124,851.117 2499.452,854.272 2501.576,856.225 C2502.434,856.946 2503.282,857.66 2504.133,858.367 C2504.893,859.004 2505.396,859.946 2505.491,860.963 C2505.59,861.975 2505.287,862.968 2504.656,863.691 C2504.178,864.244 2503.701,864.584 2503.212,864.743 C2503.819,865.71 2503.975,866.372 2504.029,867.103 C2504.109,868.163 2503.791,869.154 2503.145,869.897 C2501.169,872.172 2498.771,870.388 2497.191,869.207 C2496.272,868.518 2494.971,867.506 2493.342,866.201 L2505.801,878.926 C2506.064,879.197 2506.284,879.5 2506.449,879.829 C2510.913,884.432 2515.711,889.452 2520.866,894.924 C2521.069,894.892 2521.278,894.876 2521.491,894.877 C2521.956,894.873 2522.487,894.874 2523.376,895.203 C2523.51,894.979 2523.665,894.768 2523.839,894.569 C2524.415,893.909 2525.459,893.118 2527.143,893.124 C2528.611,893.128 2530.633,893.947 2533.214,895.567 C2533.883,894.963 2534.923,894.383 2536.443,894.386 C2538.816,894.386 2542.381,896.207 2547.067,899.634 C2548.281,898.638 2549.98,898.391 2553.642,900.309 C2552.904,899.052 2552.899,897.416 2553.745,896.226 C2554.815,894.712 2556.856,894.462 2558.336,895.67 L2567.406,903.056 C2566.972,902.238 2566.758,901.519 2566.701,900.834 C2566.596,899.643 2566.934,898.533 2567.652,897.713 C2570.358,894.602 2574.071,896.34 2585.582,906.993 C2585.737,906.604 2585.959,906.24 2586.234,905.925 C2587.956,903.952 2589.735,904.614 2593.499,907.19 C2593.445,906.948 2593.412,906.711 2593.388,906.464 C2593.299,905.406 2593.62,904.376 2594.266,903.633 C2595.715,901.971 2597.606,901.774 2601.042,903.524 C2600.959,902.31 2601.313,901.182 2602.055,900.33 C2603.129,899.094 2604.918,898.919 2606.287,899.916 C2608.752,901.709 2614.148,907.225 2617.199,909.447 C2615.695,907.922 2614.239,906.445 2612.867,905.051 C2611.542,903.716 2611.379,901.541 2612.488,900.115 C2613.595,898.684 2615.593,898.504 2617.025,899.705 L2626.636,906.418 C2627.082,905.993 2627.624,905.725 2628.201,905.621 C2626.832,904.225 2626.719,901.952 2627.943,900.548 C2629.645,898.596 2629.959,898.189 2634.97,901.973 C2635.085,901.379 2637.972,900.936 2640.781,907.383 C2643.59,913.83 2638.082,912.392 2638.082,912.392 C2637.732,912.581 2643.427,920.86 2643.036,920.893 C2643.088,921.888 2642.8,922.781 2642.229,923.456 C2640.375,925.673 2638.449,924.275 2636.211,922.653 L2635.187,929.379 C2635.246,929.613 2635.288,929.853 2635.312,930.091 C2635.433,931.311 2635.091,932.454 2634.349,933.31 C2632.604,935.313 2630.514,934.365 2628.271,932.77 C2628.685,933.572 2628.895,934.286 2628.953,934.986 C2629.056,936.16 2628.718,937.263 2628.005,938.085 C2627.546,938.603 2626.966,938.946 2626.346,939.079 C2629.984,942.852 2631.776,945.59 2632,947.909 C2632.133,949.294 2631.75,950.591 2630.916,951.545 C2628.738,954.052 2625.785,953.414 2619.018,947.879 C2618.85,948.42 2618.578,948.916 2618.209,949.337 C2617.087,950.628 2615.205,950.758 2613.825,949.637 L2609.508,946.119 C2610.673,948.036 2610.756,948.963 2610.821,949.712 C2610.933,950.986 2610.579,952.16 2609.827,953.017 C2608.634,954.395 2606.595,954.435 2605.225,953.129 C2596.99,945.269 2588.3,937.248 2580.28,930.114 C2586.315,936.194 2592.884,942.951 2599.948,950.299 C2603.023,953.502 2605.972,956.569 2607.587,958.181 C2608.087,958.629 2608.583,959.075 2609.079,959.522 C2609.811,960.171 2610.267,961.107 2610.349,962.093 C2610.433,963.097 2610.126,964.055 2609.514,964.762 C2608.92,965.438 2608.079,965.826 2607.194,965.824 C2607.604,966.893 2607.656,967.55 2607.703,968.111 C2607.803,969.375 2607.452,970.542 2606.71,971.405 C2606.115,972.081 2605.259,972.465 2604.378,972.469 C2602.74,972.468 2602.6,972.464 2592.016,961.411 C2591.906,962.123 2591.615,962.787 2591.159,963.304 C2590.821,963.702 2590.408,963.988 2589.946,964.171 C2591.91,966.153 2593.825,968.078 2595.676,969.939 C2597.047,971.328 2597.177,973.593 2595.965,975.016 C2595.217,975.885 2594.134,976.23 2593.091,976.043 z" fill="#FFCC00" id="star"/>
      <path d="M2756.698,1546.349 C2756.443,1547.484 2755.927,1548.297 2755.451,1548.843 C2754.839,1549.55 2753.971,1549.932 2753.053,1549.902 C2752.13,1549.874 2751.243,1549.433 2750.601,1548.687 C2750.555,1548.631 2749.856,1547.823 2748.582,1546.352 C2748.457,1546.805 2748.24,1547.232 2747.934,1547.601 C2747.2,1548.493 2746.116,1548.856 2745.065,1548.684 C2744.956,1550.664 2744.178,1551.996 2743.473,1552.802 C2742.903,1553.458 2742.082,1553.852 2741.232,1553.872 C2742.286,1554.923 2742.323,1555.313 2742.414,1556.269 C2742.506,1557.277 2742.201,1558.255 2741.583,1558.97 C2741.055,1559.574 2740.254,1560.253 2739.113,1560.639 C2739.26,1561.054 2739.327,1561.417 2739.354,1561.77 C2739.435,1562.846 2739.118,1563.846 2738.466,1564.597 C2737.267,1565.97 2735.22,1566.013 2733.848,1564.689 L2730.536,1561.492 C2731.139,1562.917 2731.488,1564.185 2731.579,1565.289 C2731.775,1567.696 2730.928,1569.217 2730.181,1570.074 C2729.591,1570.749 2728.767,1571.138 2727.883,1571.136 C2727,1571.142 2726.138,1570.758 2725.479,1570.081 C2722.979,1567.51 2720.385,1564.842 2717.725,1562.111 C2717.77,1562.317 2717.795,1562.523 2717.812,1562.718 C2717.909,1563.991 2717.549,1565.185 2716.793,1566.052 C2716.408,1566.483 2715.868,1566.968 2715.134,1567.324 C2719.06,1570.886 2719.059,1570.951 2719.181,1572.449 C2719.263,1573.434 2718.962,1574.404 2718.345,1575.105 C2718.206,1575.27 2718.059,1575.411 2717.914,1575.538 C2719.023,1577.491 2719.627,1579.148 2719.742,1580.53 C2719.914,1582.607 2719.161,1583.959 2718.501,1584.712 C2717.7,1585.637 2716.228,1586.723 2713.77,1586.636 C2712.339,1586.585 2710.436,1586.143 2707.616,1584.703 C2707.458,1584.71 2707.308,1584.717 2707.144,1584.721 C2706.346,1584.719 2705.275,1584.709 2703.064,1583.65 C2709.888,1589.699 2714.09,1593.374 2714.205,1593.481 C2714.944,1594.121 2715.412,1595.055 2715.507,1596.062 C2715.597,1597.057 2715.288,1598.036 2714.667,1598.746 C2714.079,1599.426 2713.012,1600.236 2711.265,1600.26 C2717.863,1607.133 2720.371,1610.829 2720.558,1613.25 C2720.649,1614.485 2720.307,1615.629 2719.567,1616.477 C2718.893,1617.261 2717.936,1617.612 2716.989,1617.526 C2722.771,1623.388 2724.896,1626.513 2725.089,1628.719 C2725.195,1629.923 2724.854,1631.054 2724.129,1631.885 C2723.786,1632.278 2723.438,1632.558 2723.098,1632.743 C2724.412,1633.942 2725.138,1634.593 2725.188,1634.642 C2725.915,1635.298 2726.365,1636.231 2726.452,1637.215 C2726.523,1638.184 2726.242,1639.122 2725.661,1639.82 C2733.676,1650.333 2733.959,1653.71 2734.122,1655.661 C2734.327,1658.044 2733.506,1659.545 2732.775,1660.378 C2732.363,1660.856 2731.849,1661.172 2731.295,1661.331 C2734.981,1665.374 2736.124,1667.421 2736.244,1668.95 C2736.242,1668.964 2736.244,1668.969 2736.248,1668.981 C2740.981,1675.719 2743.696,1681.067 2743.994,1684.731 C2744.217,1687.563 2743.247,1689.334 2742.392,1690.321 C2741.747,1691.05 2740.585,1691.922 2738.656,1691.903 C2737.417,1691.885 2735.545,1691.876 2730.39,1688.626 C2730.192,1688.99 2729.975,1689.294 2729.765,1689.538 C2729.147,1690.239 2728.285,1690.627 2727.372,1690.595 C2726.449,1690.567 2725.568,1690.131 2724.925,1689.397 C2723.901,1688.221 2722.863,1687.038 2721.828,1685.846 C2726.339,1691.783 2726.444,1693.376 2726.523,1694.53 C2726.603,1695.749 2726.248,1696.87 2725.537,1697.691 C2724.919,1698.406 2724.03,1698.788 2723.099,1698.755 C2722.177,1698.714 2721.286,1698.254 2720.644,1697.489 C2709.986,1684.687 2695.523,1667.643 2679.038,1648.648 C2632.571,1600.603 2556.209,1526.072 2501.54,1473.76 C2501.29,1473.692 2501.029,1473.627 2500.788,1473.573 L2550.871,1524.714 C2562.661,1535.442 2575.328,1547.105 2587.979,1558.971 C2655.485,1622.292 2676.437,1648.24 2683.077,1659.701 L2707.695,1684.841 C2709.054,1686.233 2709.171,1688.501 2707.95,1689.907 C2707.325,1690.617 2706.203,1691.464 2704.353,1691.435 C2702.1,1691.402 2697.623,1691.329 2672.77,1668.764 C2669.067,1665.632 2663.792,1660.893 2656.147,1653.692 C2655.118,1654.555 2653.564,1655.337 2651.325,1655.288 C2645.697,1655.159 2636.946,1649.374 2625.313,1638.939 C2624.377,1638.862 2623.27,1638.54 2621.975,1637.957 C2621.948,1639.188 2621.535,1640.3 2620.808,1641.146 C2619.583,1642.554 2617.484,1642.565 2616.117,1641.168 C2615.809,1640.854 2615.564,1640.495 2615.384,1640.111 C2614.315,1640.599 2613.019,1640.436 2612.007,1639.589 L2604.923,1633.656 C2612.581,1641.036 2613.03,1642.104 2613.162,1643.831 C2613.226,1644.815 2612.907,1645.861 2612.295,1646.561 C2611.161,1647.863 2609.248,1647.977 2607.87,1646.822 C2606.169,1645.396 2604.385,1643.909 2602.541,1642.357 C2605.798,1646.405 2605.897,1647.625 2605.981,1648.654 C2606.071,1649.805 2605.737,1650.882 2605.045,1651.67 C2603.901,1652.994 2601.959,1653.09 2600.578,1651.904 C2597.958,1649.633 2595.302,1647.359 2592.635,1645.09 C2593.094,1646.053 2593.367,1646.929 2593.453,1647.692 C2593.624,1649.291 2593.211,1650.753 2592.283,1651.814 C2590.09,1654.332 2587.763,1652.549 2582.156,1648.22 C2578.746,1645.596 2574.174,1641.927 2569.336,1638.061 C2567.684,1636.737 2565.885,1635.3 2564.025,1633.812 C2570.236,1639.765 2577.991,1646.999 2587.281,1655.481 C2593.866,1661.504 2593.878,1661.5 2594.008,1663.144 C2594.088,1664.142 2593.784,1665.1 2593.167,1665.802 C2590.851,1668.461 2588.522,1666.691 2581.309,1660.538 C2581.239,1660.643 2581.161,1660.738 2581.08,1660.84 C2580.534,1661.463 2579.926,1661.916 2579.182,1662.112 C2580.411,1663.401 2580.456,1663.886 2580.542,1664.87 C2580.63,1665.872 2580.327,1666.874 2579.709,1667.59 C2578.437,1669.043 2576.892,1669.479 2574.278,1668.376 C2574.172,1668.752 2574.001,1669.107 2573.762,1669.431 C2572.692,1670.928 2570.669,1671.17 2569.197,1669.972 C2567.213,1668.371 2565.179,1666.695 2563.138,1664.981 C2564.261,1666.426 2564.458,1667.183 2564.516,1668.091 C2564.585,1669.072 2564.254,1670.122 2563.648,1670.82 C2562.619,1671.995 2560.944,1672.217 2559.595,1671.358 C2557.007,1669.705 2554.111,1667.853 2551.157,1665.965 C2552.525,1667.11 2553.897,1668.227 2555.239,1669.302 C2556.714,1670.485 2557.111,1672.663 2556.137,1674.242 C2555.741,1674.89 2555.157,1675.33 2554.52,1675.566 C2560.604,1682.088 2560.715,1683.505 2560.792,1684.432 C2560.874,1685.514 2560.555,1686.521 2559.905,1687.271 C2557.838,1689.655 2554.897,1688.425 2549.798,1684.61 C2548.851,1685.651 2547.371,1685.911 2546.094,1685.271 L2543.457,1683.929 C2543.453,1684.804 2543.142,1685.661 2542.601,1686.281 C2541.31,1687.766 2540.432,1687.777 2537.594,1686.374 C2537.45,1686.843 2537.216,1687.282 2536.905,1687.647 C2535.68,1689.054 2533.579,1689.074 2532.211,1687.677 C2532.118,1687.582 2532.029,1687.48 2531.942,1687.369 C2531.642,1687.097 2531.142,1686.664 2530.524,1686.137 C2525.62,1681.888 2523.76,1680.068 2523.207,1678.216 C2523.116,1677.912 2523.059,1677.601 2523.036,1677.29 C2522.938,1676.213 2523.255,1675.155 2523.914,1674.401 C2524.661,1673.543 2525.241,1673.112 2526.354,1673.245 C2526.356,1673.232 2526.351,1673.214 2526.349,1673.188 C2526.283,1672.218 2526.598,1671.237 2527.202,1670.547 C2528.143,1669.47 2529.637,1669.178 2530.942,1669.831 C2529.443,1668.35 2528.129,1667.074 2527.24,1666.195 C2523.367,1662.395 2523.366,1662.39 2523.279,1660.856 C2523.216,1659.898 2523.525,1658.972 2524.119,1658.295 C2524.684,1657.642 2525.267,1657.319 2525.865,1657.224 C2525.521,1656.906 2525.178,1656.588 2524.837,1656.276 C2523.466,1655.022 2523.19,1652.892 2524.183,1651.398 C2524.865,1650.38 2525.983,1649.897 2527.102,1650.028 C2527.085,1649.949 2527.077,1649.868 2527.069,1649.798 C2526.932,1648.468 2527.28,1647.245 2528.067,1646.343 C2529.817,1644.339 2531.823,1645.577 2533.431,1646.579 C2534.273,1647.104 2535.478,1647.862 2536.92,1648.778 C2529.119,1641.274 2528.723,1640.402 2528.602,1638.614 C2528.532,1637.645 2528.859,1636.609 2529.454,1635.914 C2530.26,1634.994 2531.355,1633.742 2535.161,1635.161 C2535.02,1633.76 2535.391,1632.472 2536.217,1631.527 C2536.312,1631.408 2536.417,1631.306 2536.521,1631.202 C2534.707,1628.762 2533.878,1626.914 2533.74,1625.363 C2533.617,1623.983 2534,1622.697 2534.818,1621.762 C2535.418,1621.065 2536.235,1620.717 2537.067,1620.695 C2535.853,1619.317 2535.763,1617.202 2536.891,1615.837 C2537.478,1615.117 2538.305,1614.741 2539.151,1614.709 C2539.082,1613.532 2539.426,1612.446 2540.123,1611.642 C2542.544,1608.861 2545.657,1610.986 2554.292,1617.528 C2559.703,1621.632 2566.41,1626.998 2572.902,1632.194 C2564.612,1624.338 2553.747,1614.968 2543.466,1606.729 C2542.675,1606.098 2542.167,1605.15 2542.052,1604.13 C2541.94,1603.103 2542.24,1602.095 2542.877,1601.361 C2545.268,1598.616 2548.462,1600.618 2556.973,1607.063 C2558.301,1608.069 2559.763,1609.192 2561.351,1610.44 C2556.274,1605.654 2551.045,1600.791 2545.898,1596.086 C2545.184,1595.432 2544.741,1594.503 2544.665,1593.517 C2544.589,1592.53 2544.887,1591.574 2545.498,1590.874 C2547.467,1588.611 2549.54,1590.1 2552.381,1592.279 C2549.261,1588.65 2548.16,1586.585 2548.048,1584.963 C2547.96,1583.798 2548.298,1582.721 2548.993,1581.924 C2550.105,1580.647 2551.962,1580.507 2553.324,1581.588 C2550.42,1578.107 2549.545,1576.286 2549.443,1574.834 C2549.406,1574.304 2549.461,1573.79 2549.6,1573.313 C2548.23,1572.088 2546.87,1570.873 2545.525,1569.671 C2494.071,1523.74 2468.348,1499.859 2465.111,1489.042 C2464.935,1488.45 2464.83,1487.9 2464.787,1487.383 C2464.609,1485.265 2465.37,1483.902 2466.044,1483.132 C2466.694,1482.388 2467.588,1481.982 2468.586,1481.982 C2469.16,1481.985 2469.839,1482.167 2470.741,1482.654 C2465.193,1476.687 2463.119,1473.538 2462.968,1471.568 C2462.885,1470.421 2463.22,1469.354 2463.906,1468.564 C2464.564,1467.805 2465.761,1466.91 2467.697,1466.949 C2470.373,1467.018 2474.297,1469.29 2479.832,1473.971 C2480.074,1473.575 2480.327,1473.238 2480.573,1472.954 C2481.162,1472.276 2481.992,1471.896 2482.866,1471.897 C2483.75,1471.891 2484.618,1472.266 2485.267,1472.942 C2485.945,1473.635 2486.62,1474.33 2487.3,1475.026 C2487.342,1474.28 2487.602,1473.548 2488.094,1472.965 C2488.784,1472.132 2489.776,1471.757 2490.768,1471.859 C2490.747,1471.749 2490.738,1471.639 2490.733,1471.527 C2490.679,1470.577 2490.985,1469.663 2491.579,1468.987 C2492.778,1467.607 2495.005,1465.993 2498.811,1466.148 C2499.934,1466.193 2501.166,1466.401 2502.509,1466.77 C2503.496,1466.224 2504.816,1465.822 2506.52,1465.876 C2509.222,1465.953 2514.733,1466.112 2533.221,1480.82 C2519.262,1468.11 2519.215,1467.639 2519.076,1465.869 C2518.999,1464.876 2519.31,1463.884 2519.919,1463.178 C2520.584,1462.42 2521.5,1462.01 2522.515,1462.027 C2524.511,1462.052 2527.549,1464.179 2536.601,1473.445 C2536.861,1472.064 2537.462,1471.091 2538.011,1470.461 C2539.216,1469.079 2541.269,1469.039 2542.643,1470.378 L2545.265,1472.933 C2545.222,1472.749 2545.194,1472.557 2545.178,1472.364 C2545.092,1471.368 2545.399,1470.399 2546.01,1469.696 C2546.136,1469.545 2546.285,1469.391 2546.453,1469.244 C2545.707,1467.875 2545.331,1466.771 2545.267,1465.9 C2545.179,1464.639 2545.544,1463.472 2546.288,1462.622 C2547.179,1461.596 2548.737,1460.409 2551.233,1460.249 C2552.335,1459.654 2553.716,1459.789 2554.779,1460.657 C2559.661,1461.969 2566.261,1466.222 2574.282,1472.863 C2574.297,1471.173 2574.942,1470.052 2575.511,1469.391 C2576.11,1468.707 2576.945,1468.325 2577.838,1468.33 C2578.731,1468.335 2579.598,1468.726 2580.251,1469.417 C2580.426,1469.605 2580.613,1469.798 2580.789,1469.989 C2580.284,1468.638 2580.213,1467.786 2580.159,1467.13 C2579.959,1464.902 2580.742,1463.49 2581.432,1462.7 C2582.03,1462.017 2582.866,1461.631 2583.76,1461.64 C2584.208,1461.641 2584.646,1461.744 2585.056,1461.929 C2581.787,1457.943 2580.506,1455.647 2580.419,1454.191 C2580.347,1453.079 2580.676,1452.047 2581.344,1451.282 C2581.467,1451.139 2581.604,1451.007 2581.752,1450.888 C2581.57,1450.357 2581.463,1449.881 2581.43,1449.434 C2581.314,1448.058 2581.695,1446.787 2582.498,1445.858 C2583.101,1445.17 2583.765,1444.807 2584.489,1444.7 C2584.34,1444.104 2584.309,1443.665 2584.27,1443.297 C2584.123,1441.345 2584.818,1440.096 2585.435,1439.391 C2585.649,1439.14 2585.899,1438.933 2586.175,1438.766 C2585.773,1437.877 2585.563,1437.112 2585.509,1436.439 C2585.415,1435.137 2585.783,1433.94 2586.542,1433.063 C2587.238,1432.266 2588.216,1431.829 2589.313,1431.825 C2589.685,1431.825 2590.103,1431.822 2590.725,1432.008 C2590.662,1431.735 2590.644,1431.478 2590.619,1431.198 C2590.542,1430.205 2590.866,1429.158 2591.475,1428.448 C2591.695,1428.198 2591.945,1427.987 2592.21,1427.827 C2592.486,1426.364 2593.112,1425.338 2593.696,1424.663 C2594.103,1424.205 2594.583,1423.9 2595.112,1423.735 C2595.08,1423.55 2595.061,1423.365 2595.05,1423.187 C2594.956,1421.925 2595.232,1420.755 2595.835,1419.828 C2595.366,1418.577 2595.086,1417.46 2594.991,1416.473 C2594.734,1413.654 2595.706,1411.89 2596.562,1410.903 C2596.829,1410.593 2597.206,1410.254 2597.705,1409.986 C2597.268,1409.097 2597.037,1408.324 2596.977,1407.628 C2596.863,1406.336 2597.225,1405.137 2597.984,1404.263 C2599.184,1402.886 2601.218,1402.837 2602.594,1404.148 L2603.695,1405.207 C2603.153,1404.279 2603.127,1403.837 2603.104,1403.384 C2603.059,1402.583 2603.28,1401.74 2603.698,1401.088 C2602.922,1399.674 2602.503,1398.469 2602.417,1397.45 C2602.294,1396.014 2602.69,1394.689 2603.534,1393.722 C2604.009,1393.176 2604.616,1392.836 2605.263,1392.714 C2604.908,1391.523 2605.126,1390.197 2605.942,1389.253 C2607.477,1387.479 2609.064,1388.092 2610.628,1389.235 L2610.631,1389.228 L2610.687,1389.276 C2611.136,1389.614 2611.598,1389.994 2612.047,1390.371 L2613.003,1391.179 C2612.246,1389.947 2611.928,1389.006 2611.866,1388.144 C2611.776,1386.991 2612.116,1385.919 2612.805,1385.121 C2613.179,1384.692 2613.574,1384.358 2614,1384.143 C2613.957,1383.862 2613.927,1383.622 2613.907,1383.401 C2613.761,1381.94 2614.154,1380.59 2615.008,1379.613 C2616.111,1378.346 2617.943,1378.2 2619.322,1379.259 C2621.442,1380.901 2623.646,1382.571 2625.851,1384.219 C2612.62,1370.828 2612.593,1370.303 2612.514,1368.854 C2612.46,1367.899 2612.765,1366.967 2613.354,1366.287 C2614.478,1364.995 2615.505,1364.519 2618.654,1365.933 C2616.261,1363.455 2615.395,1361.921 2615.245,1360.329 C2615.131,1359.137 2615.466,1358.028 2616.192,1357.197 C2617.18,1356.06 2618.782,1355.809 2620.109,1356.577 C2621.791,1357.546 2623.71,1358.652 2625.696,1359.791 C2625.799,1359.09 2626.089,1358.421 2626.52,1357.923 C2627.745,1356.516 2629.848,1356.505 2631.216,1357.902 C2631.558,1358.256 2631.822,1358.665 2632.005,1359.102 C2632.977,1360.203 2635.829,1362.858 2637.604,1364.51 C2642.793,1369.354 2643.467,1369.97 2643.605,1371.838 C2643.668,1372.819 2643.359,1373.797 2642.757,1374.492 C2641.786,1375.606 2640.942,1375.845 2639.596,1375.388 C2646.242,1381.218 2648.148,1383.531 2648.39,1385.983 C2648.498,1387.17 2648.162,1388.279 2647.442,1389.11 C2646.391,1390.316 2644.662,1390.512 2643.3,1389.587 C2640.75,1387.847 2638.108,1386.075 2635.519,1384.363 C2640.831,1389.722 2646.471,1395.387 2651.007,1399.917 C2651.672,1400.583 2652.081,1401.499 2652.136,1402.455 C2652.186,1403.411 2651.889,1404.334 2651.29,1405.017 C2650.007,1406.491 2648.688,1408.001 2638.787,1401.765 C2644.821,1407.306 2651.119,1413.273 2656.473,1418.34 C2659.731,1421.423 2663.058,1424.578 2665.182,1426.531 C2666.041,1427.252 2666.888,1427.966 2667.74,1428.673 C2668.5,1429.31 2669.003,1430.252 2669.097,1431.269 C2669.196,1432.281 2668.893,1433.274 2668.262,1433.997 C2667.784,1434.55 2667.308,1434.89 2666.818,1435.049 C2667.425,1436.016 2667.581,1436.678 2667.635,1437.409 C2667.715,1438.469 2667.397,1439.461 2666.752,1440.203 C2664.776,1442.479 2662.377,1440.694 2660.797,1439.514 C2659.878,1438.824 2658.578,1437.812 2656.949,1436.507 L2669.407,1449.232 C2669.671,1449.503 2669.891,1449.806 2670.055,1450.135 C2674.519,1454.738 2679.317,1459.758 2684.472,1465.23 C2684.676,1465.198 2684.885,1465.182 2685.098,1465.183 C2685.563,1465.18 2686.093,1465.18 2686.983,1465.509 C2687.116,1465.285 2687.271,1465.074 2687.446,1464.875 C2688.021,1464.215 2689.065,1463.424 2690.75,1463.43 C2692.218,1463.434 2694.239,1464.253 2696.82,1465.873 C2697.49,1465.269 2698.53,1464.69 2700.05,1464.692 C2702.422,1464.692 2705.988,1466.513 2710.673,1469.94 C2711.887,1468.944 2713.587,1468.697 2717.249,1470.615 C2716.51,1469.358 2716.506,1467.722 2717.351,1466.532 C2718.421,1465.018 2720.462,1464.768 2721.942,1465.976 L2731.012,1473.362 C2730.579,1472.544 2730.364,1471.825 2730.307,1471.14 C2730.203,1469.949 2730.541,1468.839 2731.258,1468.02 C2733.965,1464.908 2737.677,1466.646 2749.188,1477.299 C2749.344,1476.911 2749.565,1476.546 2749.84,1476.231 C2751.562,1474.258 2753.341,1474.92 2757.105,1477.496 C2757.052,1477.254 2757.019,1477.018 2756.994,1476.77 C2756.905,1475.713 2757.226,1474.682 2757.872,1473.939 C2759.321,1472.277 2761.213,1472.08 2764.648,1473.83 C2764.566,1472.616 2764.92,1471.488 2765.662,1470.636 C2766.736,1469.4 2768.525,1469.225 2769.893,1470.222 C2772.358,1472.016 2777.755,1477.531 2780.805,1479.753 C2779.302,1478.228 2777.845,1476.751 2776.473,1475.357 C2775.148,1474.022 2774.985,1471.848 2776.094,1470.421 C2777.201,1468.99 2779.199,1468.811 2780.631,1470.011 L2790.242,1476.724 C2790.688,1476.299 2791.23,1476.031 2791.808,1475.927 C2790.438,1474.531 2790.325,1472.258 2791.55,1470.854 C2793.251,1468.902 2793.566,1468.496 2798.577,1472.279 C2798.691,1471.685 2801.578,1471.242 2804.387,1477.689 C2807.196,1484.136 2801.689,1482.699 2801.689,1482.699 C2801.338,1482.887 2807.034,1491.166 2806.643,1491.199 C2806.695,1492.194 2806.407,1493.087 2805.836,1493.762 C2803.981,1495.979 2802.055,1494.581 2799.818,1492.959 L2798.794,1499.685 C2798.852,1499.919 2798.895,1500.159 2798.918,1500.397 C2799.04,1501.617 2798.697,1502.76 2797.955,1503.616 C2796.21,1505.619 2794.121,1504.671 2791.877,1503.077 C2792.291,1503.878 2792.501,1504.592 2792.56,1505.292 C2792.662,1506.466 2792.325,1507.569 2791.612,1508.391 C2791.152,1508.909 2790.573,1509.252 2789.952,1509.385 C2793.59,1513.158 2795.382,1515.896 2795.606,1518.215 C2795.739,1519.6 2795.356,1520.897 2794.523,1521.851 C2792.344,1524.358 2789.392,1523.72 2782.624,1518.185 C2782.456,1518.726 2782.185,1519.222 2781.815,1519.643 C2780.694,1520.935 2778.811,1521.064 2777.431,1519.943 L2773.115,1516.425 C2774.28,1518.342 2774.362,1519.269 2774.427,1520.019 C2774.539,1521.292 2774.185,1522.466 2773.434,1523.323 C2772.241,1524.701 2770.201,1524.742 2768.831,1523.435 C2760.597,1515.575 2751.907,1507.554 2743.886,1500.42 C2749.922,1506.5 2756.491,1513.257 2763.554,1520.605 C2766.629,1523.808 2769.578,1526.875 2771.194,1528.488 C2771.693,1528.935 2772.189,1529.381 2772.686,1529.828 C2773.417,1530.477 2773.874,1531.414 2773.955,1532.4 C2774.04,1533.403 2773.732,1534.361 2773.12,1535.068 C2772.526,1535.744 2771.685,1536.132 2770.8,1536.131 C2771.211,1537.199 2771.262,1537.856 2771.309,1538.417 C2771.409,1539.682 2771.059,1540.848 2770.316,1541.711 C2769.721,1542.387 2768.866,1542.771 2767.984,1542.775 C2766.346,1542.774 2766.207,1542.77 2755.622,1531.717 C2755.513,1532.43 2755.221,1533.093 2754.766,1533.61 C2754.427,1534.008 2754.014,1534.294 2753.552,1534.477 C2755.517,1536.459 2757.432,1538.385 2759.283,1540.245 C2760.653,1541.634 2760.784,1543.899 2759.571,1545.322 C2758.823,1546.191 2757.74,1546.536 2756.698,1546.349 z" fill="#FFCC00" id="star"/>
    </g>
  </g>
  <g id="shape" display="none">
    <path d="M253.935,1228.175 C253.935,1228.175 394.143,999.676 411.972,899.187 C428.012,808.777 468.699,669.845 430.611,660.93 C375.98,648.144 347.439,845.878 347.95,882.168 C348.761,939.706 291.506,1173.634 318.435,1208.257 C344.071,1241.218 356.165,1243.239 397.521,1244.201 C424.758,1244.834 539.908,1197.965 557.175,1185.632 C606.225,1154.855 639.693,576.649 639.693,576.649 C639.693,576.649 574.841,581.869 563.892,605.26 C531.22,675.061 529.612,826.278 529.612,826.278 C529.612,826.278 733.847,426.418 733.847,426.418 C733.847,426.418 1119.648,321.592 1119.648,321.592 C1119.648,321.592 1162.875,360.853 1125.931,371.619 C1002.066,407.713 776.65,452.659 745.855,492.368 C745.044,516.68 722.353,743.591 714.249,880.548 C711.176,932.48 705.252,1178.482 745.044,1194.981 C811.497,1222.535 960.71,1175.865 1034.511,1172.351 C1097.933,1169.33 1100.844,1166.203 1111.943,1166.203 C1123.043,1166.203 678.592,812.474 678.592,812.474 C678.592,812.474 943.941,730.624 976.007,730.624 C1008.073,730.624 1205.674,955.308 1205.674,955.308 C1205.674,955.308 1163.913,1170.492 1171.313,1182.825 C1178.713,1195.158 1270.991,1145.547 1289.63,1124.477 C1308.27,1103.406 1352.841,1017.504 1356.939,986.005 C1361.113,953.92 1319.615,1131.77 1334.202,1164.186 C1340.369,1182.686 1388.203,1182.235 1414.103,1160.036 C1440.002,1137.837 1468.728,1034.771 1468.728,1017.504 C1468.728,1000.238 1476.763,1004.538 1453.33,1004.538 C1429.898,1004.538 1520.204,1019.442 1547.336,1025.608 C1574.469,1031.775 1506.601,1172.369 1541.133,1171.136 C1575.666,1169.902 1587.669,1109.885 1586.472,1087.142 C1585.955,1077.318 1619.565,1004.41 1619.565,1004.41 C1619.565,1004.41 1746.249,990.449 1746.249,990.449 C1746.249,990.449 1727.634,1029.747 1710.053,1041.639 C1709.032,1042.33 1639.214,1024.576 1613.573,1098.763 C1601.684,1133.161 1611.814,1162.42 1644.902,1167.806 C1677.99,1173.192 1694.233,1156.934 1700.746,1151.777 C1717.02,1138.89 1736.413,1128.269 1747.8,1108.342 C1760.21,1086.625 1783.669,1047.962 1755.556,1051.981 C1727.443,1056 1721.912,1084.609 1727.117,1091.279 C1732.322,1097.948 1780.394,1123.037 1800.127,1078.638 C1819.86,1034.239 1835.893,998.473 1834.659,1016.973 C1833.426,1035.472 1743.395,1394.364 1747.095,1398.064 C1750.795,1401.764 1802.611,1101.786 1866.632,1056.403 C1874.744,1050.653 1873.629,1065.088 1884.461,1111.51 C1890.134,1135.822 1878.518,1145.997 1903.911,1154.461 C1934.421,1164.631 1998.315,1105.688 2014.474,1076.448 C2030.496,1047.457 2031.638,1030.392 2012.504,1025.608 C1994.036,1020.992 1955.89,1068.809 1952.534,1092.871 C1946.861,1133.546 1942.26,1137.295 1984.95,1148.789 C2027.091,1160.134 2044.639,1160.359 2070.647,1152.627 C2099.118,1144.162 2122.002,1147.114 2149.134,1131.081 C2176.267,1115.048 2186.75,1077.917 2214.825,1080.436 C2222.494,1081.123 2073.303,1480.346 2073.303,1480.346 C2073.303,1480.346 801.041,1516.262 801.041,1516.262 C801.041,1516.262 326.267,1612.461 311.98,1641.929 C292.572,1681.957 261.499,2289.202 300.524,2330.318 C350.531,2383.003 617.545,2321.339 643.562,2311.944 C693.293,2293.986 240.196,1943.112 240.196,1943.112 C240.196,1943.112 481.94,1865.754 509.567,1867.135 C537.195,1868.517 675.335,2173.804 675.335,2173.804 C675.335,2173.804 727.086,2086.786 765.765,2078.498 C804.444,2070.209 791.662,2325.853 798.278,2350.623 C805.408,2377.315 790.769,2108.859 939.003,2100.822 C997.064,2097.674 949.206,2429.554 1012.394,2545.399 C1037.259,2590.985 1339.659,2428.427 1339.659,2428.427 C1339.659,2428.427 1364.559,2132.153 1364.954,2075.819 C1365.348,2019.485 1391.089,1638.101 1397.802,1653.02 C1414.068,1680.229 1432.604,1787.762 1483.72,1791.852 C1528.369,1795.424 1687.319,1545.39 1698.035,1576.644 C1664.994,1956.16 1670.403,2216.217 1729.337,2687.682 C1734.862,2731.887 1806.695,2695.971 1806.695,2695.971 C1806.695,2695.971 1803.626,2148.824 1802.55,2173.804 C1793.42,2202.688 1781.829,2245.637 1756.964,2244.256 C1726.433,2242.559 1787.355,2072.963 1819.127,2074.344 C1833.488,2074.969 1835.478,2105.984 1838.212,2144.855 C1841.527,2191.982 1845.163,2248.759 1863.332,2252.544 C1896.485,2259.451 1996.743,2058.105 1966.353,2058.105 C1966.903,2056.741 1948.335,2057.997 1943.452,2057.768 C1936.869,2057.538 2012.522,2055.005 2044.294,2070.2 C2076.066,2085.396 2009.424,2183.421 2041.196,2205.523 C2072.38,2203.822 2122.746,2157.297 2096.194,2172.638 C2070.679,2187.379 2099.55,2031.521 2099.55,2031.521 C2099.55,2031.521 2261.173,1969.359 2266.698,1983.172 C2272.224,1996.986 2283.275,2055.005 2283.275,2055.005 C2283.275,2055.005 2258.921,2075.115 2258.921,2075.115 C2258.921,2075.115 2234.004,2044.569 2224.334,2047.332 C2214.665,2050.095 2148.924,2037.693 2130.781,2155.628 C2117.087,2244.633 2202.789,2210.059 2228.87,2189.081 C2259.315,2164.592 2317.81,2113.023 2328.861,2089.54 C2339.912,2066.056 2378.591,1827.075 2381.354,1847.796 C2384.116,1868.517 2306.759,2189 2317.81,2180.711 C2328.861,2172.423 2356.5,2070.308 2375.722,2087.022 C2392.305,2101.441 2365.516,2163.566 2408.04,2168.669 C2447.815,2173.442 2504.298,2113.023 2508.442,2075.726 C2512.586,2038.428 2473.907,2053.623 2453.186,2089.54 C2432.465,2125.456 2435.228,2153.084 2469.763,2164.135 C2504.298,2175.186 2620.334,2187.618 2748.804,2106.116" fill-opacity="0" stroke="#000000" stroke-width="44"/>
  </g>
</svg>
